<?xml version="1.0" encoding="utf-8"?>
<COLLADA xmlns="http://www.collada.org/2005/11/COLLADASchema" version="1.4.1" xmlns:xsi="http://www.w3.org/2001/XMLSchema-instance">
  <asset>
    <contributor>
      <author>Blender User</author>
      <authoring_tool>Blender 4.2.1 LTS commit date:2024-08-19, commit time:11:21, hash:396f546c9d82</authoring_tool>
    </contributor>
    <created>2024-08-28T14:31:07</created>
    <modified>2024-08-28T14:31:07</modified>
    <unit name="meter" meter="1"/>
    <up_axis>Z_UP</up_axis>
  </asset>
  <library_effects>
    <effect id="Material-effect">
      <profile_COMMON>
        <newparam sid="post-apocalyptic_texture_png_002-surface">
          <surface type="2D">
            <init_from>post-apocalyptic_texture_png_002</init_from>
          </surface>
        </newparam>
        <newparam sid="post-apocalyptic_texture_png_002-sampler">
          <sampler2D>
            <source>post-apocalyptic_texture_png_002-surface</source>
          </sampler2D>
        </newparam>
        <technique sid="common">
          <lambert>
            <emission>
              <color sid="emission">0 0 0 1</color>
            </emission>
            <diffuse>
              <texture texture="post-apocalyptic_texture_png_002-sampler" texcoord="UVMap"/>
            </diffuse>
            <reflectivity>
              <float sid="specular">1</float>
            </reflectivity>
            <index_of_refraction>
              <float sid="ior">1.45</float>
            </index_of_refraction>
          </lambert>
        </technique>
      </profile_COMMON>
    </effect>
  </library_effects>
  <library_images>
    <image id="post-apocalyptic_texture_png_002" name="post-apocalyptic_texture_png_002">
      <init_from>post-apocalyptic_texture.png.002.png</init_from>
    </image>
  </library_images>
  <library_materials>
    <material id="Material-material" name="Material">
      <instance_effect url="#Material-effect"/>
    </material>
  </library_materials>
  <library_geometries>
    <geometry id="door_1_mesh-mesh" name="door_1_mesh">
      <mesh>
        <source id="door_1_mesh-mesh-positions">
          <float_array id="door_1_mesh-mesh-positions-array" count="342">0.7367816 -6.65697e-4 0.07851338 0.06393671 -6.66144e-4 0.07851338 0.06393671 0.08173751 0.07850873 0.7367816 0.08173793 0.07850873 0.06393885 -6.66144e-4 1.378456 0.7367797 -6.65697e-4 1.378456 0.06393671 0.08173751 1.378455 0.7367816 0.08173745 1.378455 0.8007183 -6.657e-4 0 0 -6.66141e-4 0 0 0.08173751 0 0.8007183 0.08173793 0 0 0.08173751 1.456967 0.8007183 0.08173745 1.456967 0.8007159 -6.657e-4 1.456967 2.62258e-6 -6.66141e-4 1.456967 0.6629472 0.01449483 0.6846807 0.6022029 0.01449483 0.6846807 0.6022024 0.06658023 0.6846805 0.6629472 0.06658023 0.6846805 0.6022024 0.06657975 0.7394239 0.6629472 0.06657975 0.7394239 0.6629462 0.01449483 0.7394239 0.6022034 0.01449483 0.7394239 0.7367816 0.01379102 0.07851314 0.06393671 0.01379108 0.07851314 0.06393671 0.06728076 0.07850897 0.7367816 0.0672807 0.07850897 0.06393671 0.06728029 1.378455 0.7367816 0.0672807 1.378455 0.7367797 0.01379102 1.378455 0.06393885 0.01379108 1.378455 0.6585989 0.003658235 0.6885896 0.6065507 0.003658235 0.6885896 0.6065502 0.07741826 0.6886087 0.6585989 0.07741826 0.6886087 0.6065502 0.07741826 0.735515 0.6585989 0.07741826 0.735515 0.658598 0.003658235 0.7354958 0.6065512 0.003658235 0.7354958 0.4003592 -6.66159e-4 0 0.4003592 0.08173745 0 0.4003592 -6.66159e-4 1.456967 0.4003592 0.08173745 1.456967 0.4003592 -6.66159e-4 0.07851338 0.4003592 0.08173745 0.07850873 0.4003592 -6.66159e-4 1.378456 0.4003592 0.08173745 1.378455 0.4003592 0.01379102 0.07851314 0.4003592 0.0672807 0.07850897 0.4003592 0.01379102 1.378455 0.4003592 0.06728023 1.378455 0.632575 0.01449483 0.673852 0.632575 0.06658023 0.6738516 0.632575 0.01449483 0.7502527 0.632575 0.06657975 0.7502529 0.6325746 0.003658235 0.6793074 0.6325746 0.07741826 0.6793339 0.6325746 0.003658235 0.7447705 0.6325746 0.07741826 0.7447975 0 0.08173751 0.7120507 0.8007183 0.08173793 0.7120507 0.8007169 -6.657e-4 0.7120533 1.43048e-6 -6.66141e-4 0.7120533 0.06393671 0.08173751 0.7120508 0.7367816 0.08173793 0.7120508 0.7367802 -6.65697e-4 0.7120532 0.0639379 -6.66144e-4 0.7120532 0.06393671 0.06728076 0.7120509 0.7367816 0.0672807 0.7120509 0.7367802 0.01379102 0.7120531 0.0639379 0.01379108 0.7120531 0.5958366 0.06658023 0.7120522 0.669313 0.06658023 0.7120522 0.669312 0.01449483 0.7120524 0.5958376 0.01449483 0.7120524 0.6010962 0.07741826 0.7120619 0.664053 0.07741826 0.7120619 0.6640525 0.003658235 0.7120427 0.6010966 0.003658235 0.7120427 0.6035051 -0.03012609 0.6858432 0.632575 -0.03012609 0.6754744 0.632575 -0.01684331 0.6670973 0.5968475 -0.01684331 0.6798408 0.632575 0.09791702 0.6671338 0.6683035 0.09791702 0.679867 0.5893588 0.09791702 0.7120655 0.5968471 0.09791702 0.679867 0.6757913 0.09791702 0.7120655 0.6757908 -0.01684331 0.7120391 0.6683025 -0.01684331 0.7442374 0.5893593 -0.01684331 0.7120391 0.632575 -0.01684331 0.7569705 0.596848 -0.01684331 0.7442374 0.632575 0.09791702 0.7570074 0.6683035 0.09791702 0.7442639 0.668303 -0.01684331 0.6798408 0.5968471 0.09791702 0.7442639 0.632575 0.1111984 0.6755041 0.6616459 0.1111984 0.6858646 0.5974121 0.1111984 0.712063 0.6035047 0.1111984 0.6858646 0.6677384 0.1111984 0.712063 0.667738 -0.03012609 0.7120416 0.6616449 -0.03012609 0.7382399 0.5974126 -0.03012609 0.7120416 0.632575 -0.03012609 0.7486004 0.6035056 -0.03012609 0.7382399 0.632575 0.1111984 0.7486303 0.6616459 0.1111984 0.7382615 0.6616454 -0.03012609 0.6858432 0.6035047 0.1111984 0.7382615 0.632575 -0.03012609 0.7120416 0.632575 0.1111984 0.712063</float_array>
          <technique_common>
            <accessor source="#door_1_mesh-mesh-positions-array" count="114" stride="3">
              <param name="X" type="float"/>
              <param name="Y" type="float"/>
              <param name="Z" type="float"/>
            </accessor>
          </technique_common>
        </source>
        <source id="door_1_mesh-mesh-normals">
          <float_array id="door_1_mesh-mesh-normals-array" count="672">0 2.8933e-6 1 0 0 -1 0 0 -1 1 -2.89332e-5 1.28025e-6 -1 -1.7316e-5 2.00899e-6 0 1.64913e-5 1 0 -1 0 -1.37308e-6 1 0 0 1 0 0 1 7.15537e-7 0 -1 0 0 -1 0 1.37378e-6 -1 0 0 1 0 -0.3030613 0.4301397 -0.8503727 0.8805112 0.4275184 -0.2047634 1 0 -1.88164e-6 -1 0 0 0 1.64919e-5 1 0 -1.64913e-5 -1 -1 0 -7.15539e-7 1 0 0 3.69977e-4 -0.9999994 0.001037836 0 0.9999993 0.001176595 0.001316964 0.9999991 3.06012e-4 -0.01038163 0.9999433 -0.002397 -0.01043123 -0.9999427 0.002425611 0.001323103 -0.9999991 -3.07726e-4 0 -0.9999994 -0.001120328 3.51268e-4 0.9999995 -9.8522e-4 -0.293005 0.4892247 -0.8214665 0.8506653 0.4870673 -0.1978237 -0.3030652 -0.4301769 0.8503525 0.8805012 -0.4275312 0.20478 -0.8806628 0.4271886 0.2047997 0.3035486 -0.4284506 -0.8510513 0.3035656 0.428388 0.8510767 -0.8806563 -0.4272028 -0.2047981 -0.3034166 0.4286274 0.8510093 -0.3034052 -0.4286887 -0.8509826 0.3032182 -0.429931 0.8504222 0.2929926 -0.4892865 0.8214342 0.8506286 -0.4871349 0.1978144 -3.75616e-4 0.9999994 -0.001053452 0 -0.9999994 -0.001101315 0 0.9999994 0.001155555 -3.9677e-4 -0.9999994 0.001112759 0 -1.64919e-5 -1 0 1.64913e-5 1 0.3032162 0.4298905 -0.8504434 0 1 0 0 -1 0 0 1 0 1.14741e-6 -1 9.69967e-7 0 1.64913e-5 1 0 0 -1 0 0 -1 0 2.8933e-6 1 -0.2928472 0.488956 0.8216828 -0.8506453 -0.4871039 0.1978191 -0.8805142 -0.4275041 0.2047805 -0.8805351 0.4274595 -0.2047837 0.8806461 -0.4272328 -0.2047796 -0.2929912 -0.4892794 0.8214389 -0.8506734 0.4870522 -0.1978256 0.001307487 -0.9999991 0 -0.009531974 -0.9999546 0 -0.009486615 0.999955 0 0.001302242 0.9999991 7.15536e-7 1 0 0 -1 0 -2.25797e-6 -1 0 0 1 0 -1.43108e-6 0.8806623 0.4271792 0.2048215 0 -1 0 0 -1 0 0 1 0 0 1 0 -1 -3.17826e-5 1.60031e-6 1 -1.73597e-5 2.00899e-6 -0.2888264 0.5107488 0.8097624 0.8386914 0.5084837 -0.1950413 0.2886836 -0.5104361 0.8100104 -0.8387036 -0.5084536 0.1950668 -0.838685 0.5084911 -0.1950495 -0.288674 0.5104773 -0.8099878 0.8386819 -0.5085009 -0.1950369 0.2886713 0.5104756 -0.8099898 -0.8507015 0.4869902 0.1978573 0.2928272 -0.4890213 -0.8216511 -0.850678 -0.4870389 -0.1978384 0.2929947 0.4892392 -0.8214615 0.8506575 -0.4870816 -0.1978209 -0.292827 -0.4890131 -0.8216559 0.8506827 0.487028 0.197845 0.2928413 0.4889704 0.8216763 0 1 0 0 -1 0 0 -1 0 0 1 0 0 1 0 0 -1 0 0 -1 0 0 1 0 0.838712 -0.5084415 0.1950622 -0.8386706 -0.5085199 -0.1950364 -0.2886919 -0.5104298 0.8100113 -0.8386472 0.5085608 0.1950301 0.2888216 0.5107501 0.8097632 -0.2888379 -0.5107089 -0.8097833 0.8386588 0.5085414 0.1950309 0.2888341 -0.5107086 -0.8097849 0 2.89332e-6 1 0 0 -1 0 0 -1 1 -1.73598e-5 0 -1 0 0 0 1.64919e-5 1 0 -1 0 -1.13519e-6 1 -1.01939e-6 0 1 0 -6.69509e-7 1 6.40122e-7 0 -1 0 0 -1 0 1.14741e-6 -1 -9.69992e-7 0 1 0 -0.3032139 0.4298787 -0.8504503 0.8805205 0.4274911 -0.2047802 1 0 -1.88164e-6 -1 0 0 0 1.64919e-5 1 0 -1.64913e-5 -1 -1 0 -7.15539e-7 1 0 0 0 -0.9999994 0.001161038 -3.94858e-4 0.9999992 0.001107454 0.001301407 0.9999991 0 -0.009493112 0.9999549 0 -0.009532034 -0.9999545 0 0.001307487 -0.9999991 0 -3.77188e-4 -0.9999994 -0.001057744 0 0.9999994 -0.001096129 -0.2930016 0.4892281 -0.8214657 0.8506599 0.487084 -0.1978051 -0.3032159 -0.4299192 0.8504291 0.8804996 -0.4275358 0.2047771 -0.8806768 0.4271476 0.204825 0.3034034 -0.4286996 -0.8509777 0.3034189 0.4286393 0.8510026 -0.8806558 -0.4272043 -0.2047972 -0.303569 0.4283662 0.8510865 -0.3035572 -0.4284281 -0.8510596 0.3030617 -0.4301986 0.8503428 0.292985 -0.4892941 0.8214324 0.8506289 -0.4871342 0.1978152 -1.37308e-6 0.9999994 -0.00111556 3.52881e-4 -0.9999994 -9.89898e-4 3.68286e-4 0.9999994 0.001032948 0 -0.9999994 0.001182198 0 -1.64913e-5 -1 0 1.64919e-5 1 0.3030577 0.4301614 -0.850363 0 1 0 0 -1 0 0 1 0 1.37378e-6 -1 0 0 1.64913e-5 1 0 0 -1 0 0 -1 0 2.8933e-6 1 -0.2928475 0.4889558 0.8216828 -0.8506488 -0.4870925 0.1978316 -0.8805157 -0.4274995 0.2047833 -0.8805257 0.427487 -0.2047667 0.8806449 -0.427236 -0.2047776 -0.2929945 -0.4892761 0.8214396 -0.8506773 0.48704 -0.1978391 0.001323103 -0.9999991 3.07702e-4 -0.01043117 -0.9999427 -0.002425968 -0.01038157 0.9999432 0.002414405 0.001316964 0.9999991 -2.88592e-4 1 0 0 -1 0 -2.25797e-6 -1 0 0 1 0 -1.43108e-6 0.8806483 0.4272201 0.2047963 0 -1 0 0 -1 0 0 1 0 0 1 0 -1 -1.73161e-5 0 1 0 0 -0.288826 0.5107493 0.8097621 0.8386895 0.5084882 -0.195038 0.2886875 -0.5104306 0.8100125 -0.8386992 -0.5084638 0.1950592 -0.8386784 0.5085062 -0.1950383 -0.2886745 0.5104765 -0.8099882 0.8386834 -0.5084975 -0.1950394 0.2886697 0.510478 -0.8099889 -0.8506991 0.4869979 0.1978488 0.2928251 -0.4890235 -0.8216505 -0.850674 -0.4870514 -0.1978247 0.2929998 0.4892342 -0.8214627 0.8506577 -0.4870814 -0.1978212 -0.2928335 -0.4890066 -0.8216575 0.8506813 0.4870326 0.19784 0.2928453 0.4889664 0.8216773 0 1 0 0 -1 0 0 -1 0 0 1 0 0 1 0 0 -1 0 0 -1 0 0 1 0 0.8387082 -0.5084507 0.1950554 -0.8386775 -0.5085039 -0.1950483 -0.2886869 -0.510437 0.8100087 -0.8386543 0.5085443 0.1950423 0.2888232 0.5107479 0.809764 -0.2888385 -0.510708 -0.8097837 0.8386602 0.5085383 0.1950331 0.2888345 -0.510708 -0.8097851</float_array>
          <technique_common>
            <accessor source="#door_1_mesh-mesh-normals-array" count="224" stride="3">
              <param name="X" type="float"/>
              <param name="Y" type="float"/>
              <param name="Z" type="float"/>
            </accessor>
          </technique_common>
        </source>
        <source id="door_1_mesh-mesh-map-0">
          <float_array id="door_1_mesh-mesh-map-0-array" count="1344">0.04564148 0.08926445 0.06111198 0.07898968 0.06111204 0.08926445 0.07650697 0.07893055 0.06103634 0.08920532 0.06103634 0.07893055 0.06083613 0.0849114 0.04667419 0.08310872 0.06083613 0.08310872 0.06400173 0.08169084 0.03522056 0.09196001 0.03521925 0.08169084 0.06424337 0.08091336 0.09302455 0.09118252 0.064242 0.09118252 0.04556572 0.08122736 0.05972766 0.07942467 0.05972766 0.08122736 0.08767044 0.1180224 0.06603527 0.1200216 0.06603527 0.1180224 0.08727997 0.1180226 0.0656448 0.1200219 0.0656448 0.1180226 0.04400956 0.1180226 0.04201036 0.07604724 0.04400956 0.07604724 0.08727997 0.03407174 0.08927923 0.07604724 0.08727997 0.07604724 0.04440003 0.1180224 0.04240089 0.07604712 0.04440009 0.07604712 0.08767032 0.03407174 0.08966964 0.07604706 0.08767038 0.07604706 0.04440015 0.03407174 0.06603527 0.03207254 0.06603527 0.03407174 0.04400962 0.03407174 0.0656448 0.03207254 0.0656448 0.03407174 0.5488498 0.2688426 0.5474985 0.2720876 0.5474985 0.2688427 0.5635327 0.2680137 0.5622261 0.270954 0.5622037 0.2680213 0.09220898 0.07873207 0.06473523 0.08053368 0.06473499 0.07873207 0.06473529 0.08228081 0.09220916 0.08408242 0.06473505 0.08408242 0.07388967 0.08297449 0.05972766 0.08477717 0.05972766 0.08297449 0.07388949 0.0865243 0.0597276 0.08832699 0.0597276 0.0865243 0.06473499 0.0876314 0.03726124 0.08582967 0.06473523 0.08582967 0.03726124 0.09118014 0.06473505 0.08937853 0.06473529 0.09118014 0.07817673 0.07409226 0.06626129 0.03373277 0.07996964 0.07345294 0.07978618 0.07777088 0.087713 0.1174913 0.06607782 0.1174913 0.07799321 0.07713162 0.04444259 0.07551586 0.0776174 0.07551574 0.08157914 0.07389992 0.087713 0.07551586 0.08195495 0.07551574 0.08176261 0.07409226 0.0878964 0.07570809 0.08213835 0.07570809 0.07817673 0.07732391 0.04462617 0.07570809 0.07780092 0.07570809 0.07996964 0.07796317 0.08789634 0.1176834 0.06626129 0.1176834 0.07799321 0.07389992 0.06607782 0.03354036 0.07978618 0.07326066 0.5665697 0.2720876 0.569126 0.2688426 0.569126 0.2732974 0.5373416 0.2713422 0.5398259 0.2683904 0.5398567 0.2724167 0.5634713 0.2688425 0.5621201 0.2720874 0.5621201 0.2688426 0.5359472 0.2684006 0.5373416 0.265494 0.5373192 0.2684096 0.5653322 0.2680137 0.5666388 0.2651058 0.5666611 0.2680214 0.5652185 0.2688426 0.5665697 0.2655978 0.5665697 0.2688427 0.5505971 0.2688426 0.5519484 0.2655978 0.5519484 0.2688427 0.5562316 0.2680137 0.5548371 0.2709552 0.5548595 0.2680225 0.5505971 0.2688426 0.5519484 0.2720876 0.5505971 0.2726297 0.5652185 0.2688426 0.5665697 0.2720876 0.5652185 0.2726297 0.5634713 0.2688425 0.5621201 0.2655978 0.5634713 0.2650556 0.5519484 0.2655978 0.5545044 0.2688426 0.5519484 0.2688427 0.5622261 0.2651058 0.5596008 0.2680035 0.5596316 0.2640008 0.07978618 0.07326066 0.087713 0.03354036 0.08157914 0.07389992 0.07817673 0.07732391 0.06626129 0.1176834 0.04462617 0.1176834 0.07799321 0.07713162 0.06607782 0.1174913 0.04444259 0.1174913 0.07996964 0.07345294 0.08789646 0.03373277 0.08176261 0.07409226 0.04556572 0.0865243 0.0597276 0.08832699 0.04556572 0.08832699 0.05972766 0.08297449 0.04556572 0.08477717 0.04556572 0.08297449 0.5488498 0.2688426 0.5474985 0.2655978 0.5488498 0.2650556 0.08727997 0.03407174 0.0656448 0.03207254 0.08927923 0.03207254 0.08767032 0.03407174 0.06603527 0.03207254 0.08966952 0.03207254 0.04400956 0.1180226 0.0656448 0.1200219 0.04201036 0.1200219 0.04440003 0.1180224 0.06603527 0.1200216 0.04240077 0.1200216 0.05972766 0.08122736 0.07388967 0.07942467 0.07388967 0.08122736 0.06083613 0.0849114 0.07499814 0.08310872 0.07499814 0.0849114 0.04556572 0.07893055 0.06103634 0.08920532 0.04556572 0.08920532 0.07658255 0.08926445 0.06111198 0.07898968 0.07658261 0.07898968 0.5621201 0.2720874 0.5595638 0.2688425 0.5621201 0.2688426 0.5666388 0.2651058 0.5692639 0.2680035 0.5666611 0.2680214 0.5562316 0.2680137 0.5548371 0.265107 0.5562055 0.264611 0.5653322 0.2680137 0.5666387 0.270954 0.565306 0.2714364 0.5359472 0.2684006 0.5373416 0.2713422 0.5359733 0.2718233 0.5519484 0.2720876 0.5545044 0.2688426 0.5545044 0.2732976 0.5548371 0.2709552 0.5523528 0.2680035 0.5548595 0.2680225 0.07817673 0.07409226 0.04462617 0.07570809 0.04462605 0.03373277 0.08176255 0.07732391 0.0878964 0.07570809 0.08789634 0.1176834 0.08157914 0.07713162 0.087713 0.07551586 0.087713 0.1174913 0.07799321 0.07389992 0.04444259 0.07551586 0.04444259 0.03354036 0.06473529 0.09118014 0.09220916 0.08937853 0.09220939 0.09118026 0.09220892 0.0876314 0.06473523 0.08582967 0.09220921 0.08582967 0.03726124 0.08228081 0.06473505 0.08408242 0.037261 0.08408242 0.06473499 0.07873207 0.03726124 0.08053368 0.037261 0.07873207 0.5635327 0.2680137 0.5622261 0.2651058 0.5635588 0.2646111 0.08767044 0.1180224 0.08966964 0.07604706 0.0896697 0.1200216 0.04440015 0.03407174 0.04240089 0.07604712 0.04240089 0.03207254 0.08727997 0.1180226 0.08927923 0.07604724 0.08927923 0.1200219 0.04400962 0.03407174 0.04201036 0.07604724 0.04201036 0.03207254 0.03546077 0.08091336 0.064242 0.09118252 0.03545945 0.09118252 0.09278434 0.08169084 0.06400322 0.09196001 0.06400173 0.08169084 0.5545044 0.2688426 0.5561605 0.2724674 0.5545044 0.2732976 0.5596008 0.2680035 0.5580038 0.2712931 0.5579788 0.2680172 0.5595638 0.2688425 0.5579076 0.2652179 0.5595638 0.2643877 0.5523528 0.2680035 0.5506394 0.2647584 0.552322 0.2640008 0.5692639 0.2680035 0.570861 0.2712932 0.5692332 0.2720298 0.5449425 0.2688426 0.5432865 0.2724674 0.5432865 0.2688426 0.5398259 0.2683904 0.5415393 0.271678 0.5398567 0.2724167 0.5449425 0.2688426 0.5432865 0.2652179 0.5449425 0.2643877 0.5548371 0.265107 0.5523528 0.2680035 0.552322 0.2640008 0.5474985 0.2655978 0.5449425 0.2688426 0.5449425 0.2643877 0.5666387 0.270954 0.5692639 0.2680035 0.5692332 0.2720298 0.5665697 0.2655978 0.569126 0.2688426 0.5665697 0.2688427 0.5622261 0.270954 0.5596008 0.2680035 0.5622037 0.2680213 0.5474985 0.2720876 0.5449425 0.2688426 0.5474985 0.2688427 0.5373416 0.265494 0.5398259 0.2683904 0.5373192 0.2684096 0.5621201 0.2655978 0.5595638 0.2688425 0.5595638 0.2643877 0.4723734 0.424236 0.4681029 0.4265967 0.4681029 0.4232429 0.4620854 0.424235 0.4648758 0.4282378 0.4610525 0.428676 0.4620854 0.424235 0.4578149 0.4265956 0.4578149 0.4232418 0.475164 0.4282388 0.4723734 0.424236 0.4766439 0.4252291 0.4766439 0.4218753 0.4723734 0.424236 0.4734061 0.419795 0.4592949 0.4202322 0.4620854 0.424235 0.4578149 0.4232418 0.4663558 0.4218744 0.4620854 0.424235 0.463118 0.419795 0.4723734 0.424236 0.4695827 0.4202333 0.4734061 0.419795 0.5398259 0.2683904 0.5415393 0.2651453 0.5415143 0.2684021 0.5523528 0.2680035 0.5506394 0.2712911 0.5506644 0.2680152 0.5595638 0.2688425 0.5579076 0.2724671 0.5579076 0.2688425 0.5692639 0.2680035 0.570861 0.2647604 0.570886 0.2680172 0.5545044 0.2688426 0.5561605 0.2652179 0.5561605 0.2688426 0.569126 0.2688426 0.5707822 0.2724673 0.569126 0.2732974 0.5596008 0.2680035 0.5580038 0.2647604 0.5596316 0.2640008 0.569126 0.2688426 0.5707822 0.2652179 0.5707822 0.2688426 0.04564148 0.08926445 0.04564136 0.07898968 0.06111198 0.07898968 0.07650697 0.07893055 0.07650697 0.08920532 0.06103634 0.08920532 0.06083613 0.0849114 0.04667419 0.08491128 0.04667419 0.08310872 0.06400173 0.08169084 0.06400322 0.09196001 0.03522056 0.09196001 0.06424337 0.08091336 0.09302598 0.08091336 0.09302455 0.09118252 0.04556572 0.08122736 0.04556572 0.07942467 0.05972766 0.07942467 0.08767044 0.1180224 0.0896697 0.1200216 0.06603527 0.1200216 0.08727997 0.1180226 0.08927923 0.1200219 0.0656448 0.1200219 0.04400956 0.1180226 0.04201036 0.1200219 0.04201036 0.07604724 0.08727997 0.03407174 0.08927923 0.03207254 0.08927923 0.07604724 0.04440003 0.1180224 0.04240077 0.1200216 0.04240089 0.07604712 0.08767032 0.03407174 0.08966952 0.03207254 0.08966964 0.07604706 0.04440015 0.03407174 0.04240089 0.03207254 0.06603527 0.03207254 0.04400962 0.03407174 0.04201036 0.03207254 0.0656448 0.03207254 0.5488498 0.2688426 0.5488498 0.2726297 0.5474985 0.2720876 0.5635327 0.2680137 0.5635588 0.2714364 0.5622261 0.270954 0.09220898 0.07873207 0.09220921 0.08053368 0.06473523 0.08053368 0.06473529 0.08228081 0.09220939 0.08228081 0.09220916 0.08408242 0.07388967 0.08297449 0.07388967 0.08477717 0.05972766 0.08477717 0.07388949 0.0865243 0.07388949 0.08832699 0.0597276 0.08832699 0.06473499 0.0876314 0.037261 0.0876314 0.03726124 0.08582967 0.03726124 0.09118014 0.037261 0.08937853 0.06473505 0.08937853 0.07817673 0.07409226 0.04462605 0.03373277 0.06626129 0.03373277 0.07978618 0.07777088 0.08157914 0.07713162 0.087713 0.1174913 0.07799321 0.07713162 0.04444259 0.1174913 0.04444259 0.07551586 0.08157914 0.07389992 0.087713 0.03354036 0.087713 0.07551586 0.08176261 0.07409226 0.08789646 0.03373277 0.0878964 0.07570809 0.07817673 0.07732391 0.04462617 0.1176834 0.04462617 0.07570809 0.07996964 0.07796317 0.08176255 0.07732391 0.08789634 0.1176834 0.07799321 0.07389992 0.04444259 0.03354036 0.06607782 0.03354036 0.5665697 0.2720876 0.5665697 0.2688427 0.569126 0.2688426 0.5373416 0.2713422 0.5373192 0.2684096 0.5398259 0.2683904 0.5634713 0.2688425 0.5634713 0.2726295 0.5621201 0.2720874 0.5359472 0.2684006 0.5359733 0.264998 0.5373416 0.265494 0.5653322 0.2680137 0.565306 0.2646111 0.5666388 0.2651058 0.5652185 0.2688426 0.5652185 0.2650556 0.5665697 0.2655978 0.5505971 0.2688426 0.5505971 0.2650556 0.5519484 0.2655978 0.5562316 0.2680137 0.5562055 0.2714363 0.5548371 0.2709552 0.5505971 0.2688426 0.5519484 0.2688427 0.5519484 0.2720876 0.5652185 0.2688426 0.5665697 0.2688427 0.5665697 0.2720876 0.5634713 0.2688425 0.5621201 0.2688426 0.5621201 0.2655978 0.5519484 0.2655978 0.5545044 0.2643877 0.5545044 0.2688426 0.5622261 0.2651058 0.5622037 0.2680213 0.5596008 0.2680035 0.07978618 0.07326066 0.06607782 0.03354036 0.087713 0.03354036 0.07817673 0.07732391 0.07996964 0.07796317 0.06626129 0.1176834 0.07799321 0.07713162 0.07978618 0.07777088 0.06607782 0.1174913 0.07996964 0.07345294 0.06626129 0.03373277 0.08789646 0.03373277 0.04556572 0.0865243 0.0597276 0.0865243 0.0597276 0.08832699 0.05972766 0.08297449 0.05972766 0.08477717 0.04556572 0.08477717 0.5488498 0.2688426 0.5474985 0.2688427 0.5474985 0.2655978 0.08727997 0.03407174 0.0656448 0.03407174 0.0656448 0.03207254 0.08767032 0.03407174 0.06603527 0.03407174 0.06603527 0.03207254 0.04400956 0.1180226 0.0656448 0.1180226 0.0656448 0.1200219 0.04440003 0.1180224 0.06603527 0.1180224 0.06603527 0.1200216 0.05972766 0.08122736 0.05972766 0.07942467 0.07388967 0.07942467 0.06083613 0.0849114 0.06083613 0.08310872 0.07499814 0.08310872 0.04556572 0.07893055 0.06103634 0.07893055 0.06103634 0.08920532 0.07658255 0.08926445 0.06111204 0.08926445 0.06111198 0.07898968 0.5621201 0.2720874 0.5595638 0.2732973 0.5595638 0.2688425 0.5666388 0.2651058 0.5692332 0.2640008 0.5692639 0.2680035 0.5562316 0.2680137 0.5548595 0.2680225 0.5548371 0.265107 0.5653322 0.2680137 0.5666611 0.2680214 0.5666387 0.270954 0.5359472 0.2684006 0.5373192 0.2684096 0.5373416 0.2713422 0.5519484 0.2720876 0.5519484 0.2688427 0.5545044 0.2688426 0.5548371 0.2709552 0.552322 0.2720297 0.5523528 0.2680035 0.07817673 0.07409226 0.07780092 0.07570809 0.04462617 0.07570809 0.08176255 0.07732391 0.08213835 0.07570809 0.0878964 0.07570809 0.08157914 0.07713162 0.08195495 0.07551574 0.087713 0.07551586 0.07799321 0.07389992 0.0776174 0.07551574 0.04444259 0.07551586 0.06473529 0.09118014 0.06473505 0.08937853 0.09220916 0.08937853 0.09220892 0.0876314 0.06473499 0.0876314 0.06473523 0.08582967 0.03726124 0.08228081 0.06473529 0.08228081 0.06473505 0.08408242 0.06473499 0.07873207 0.06473523 0.08053368 0.03726124 0.08053368 0.5635327 0.2680137 0.5622037 0.2680213 0.5622261 0.2651058 0.08767044 0.1180224 0.08767038 0.07604706 0.08966964 0.07604706 0.04440015 0.03407174 0.04440009 0.07604712 0.04240089 0.07604712 0.08727997 0.1180226 0.08727997 0.07604724 0.08927923 0.07604724 0.04400962 0.03407174 0.04400956 0.07604724 0.04201036 0.07604724 0.03546077 0.08091336 0.06424337 0.08091336 0.064242 0.09118252 0.09278434 0.08169084 0.09278577 0.09196001 0.06400322 0.09196001 0.5545044 0.2688426 0.5561605 0.2688426 0.5561605 0.2724674 0.5596008 0.2680035 0.5596316 0.2720298 0.5580038 0.2712931 0.5595638 0.2688425 0.5579076 0.2688425 0.5579076 0.2652179 0.5523528 0.2680035 0.5506644 0.2680152 0.5506394 0.2647584 0.5692639 0.2680035 0.570886 0.2680172 0.570861 0.2712932 0.5449425 0.2688426 0.5449425 0.2732976 0.5432865 0.2724674 0.5398259 0.2683904 0.5415143 0.2684021 0.5415393 0.271678 0.5449425 0.2688426 0.5432865 0.2688426 0.5432865 0.2652179 0.5548371 0.265107 0.5548595 0.2680225 0.5523528 0.2680035 0.5474985 0.2655978 0.5474985 0.2688427 0.5449425 0.2688426 0.5666387 0.270954 0.5666611 0.2680214 0.5692639 0.2680035 0.5665697 0.2655978 0.569126 0.2643878 0.569126 0.2688426 0.5622261 0.270954 0.5596316 0.2720298 0.5596008 0.2680035 0.5474985 0.2720876 0.5449425 0.2732976 0.5449425 0.2688426 0.5373416 0.265494 0.5398567 0.2643878 0.5398259 0.2683904 0.5621201 0.2655978 0.5621201 0.2688426 0.5595638 0.2688425 0.4723734 0.424236 0.4713408 0.428676 0.4681029 0.4265967 0.4620854 0.424235 0.4663558 0.4252281 0.4648758 0.4282378 0.4620854 0.424235 0.4610525 0.428676 0.4578149 0.4265956 0.475164 0.4282388 0.4713408 0.428676 0.4723734 0.424236 0.4766439 0.4218753 0.4766439 0.4252291 0.4723734 0.424236 0.4592949 0.4202322 0.463118 0.419795 0.4620854 0.424235 0.4663558 0.4218744 0.4663558 0.4252281 0.4620854 0.424235 0.4723734 0.424236 0.4681029 0.4232429 0.4695827 0.4202333 0.5398259 0.2683904 0.5398567 0.2643878 0.5415393 0.2651453 0.5523528 0.2680035 0.552322 0.2720297 0.5506394 0.2712911 0.5595638 0.2688425 0.5595638 0.2732973 0.5579076 0.2724671 0.5692639 0.2680035 0.5692332 0.2640008 0.570861 0.2647604 0.5545044 0.2688426 0.5545044 0.2643877 0.5561605 0.2652179 0.569126 0.2688426 0.5707822 0.2688426 0.5707822 0.2724673 0.5596008 0.2680035 0.5579788 0.2680172 0.5580038 0.2647604 0.569126 0.2688426 0.569126 0.2643878 0.5707822 0.2652179</float_array>
          <technique_common>
            <accessor source="#door_1_mesh-mesh-map-0-array" count="672" stride="2">
              <param name="S" type="float"/>
              <param name="T" type="float"/>
            </accessor>
          </technique_common>
        </source>
        <vertices id="door_1_mesh-mesh-vertices">
          <input semantic="POSITION" source="#door_1_mesh-mesh-positions"/>
        </vertices>
        <triangles material="Material-material" count="224">
          <input semantic="VERTEX" source="#door_1_mesh-mesh-vertices" offset="0"/>
          <input semantic="NORMAL" source="#door_1_mesh-mesh-normals" offset="1"/>
          <input semantic="TEXCOORD" source="#door_1_mesh-mesh-map-0" offset="2" set="0"/>
          <p>14 0 0 43 0 1 42 0 2 9 1 3 41 1 4 40 1 5 47 2 6 29 2 7 51 2 8 62 3 9 13 3 10 14 3 11 60 4 12 9 4 13 63 4 14 0 5 15 48 5 16 44 5 17 1 6 18 40 6 19 44 6 20 3 7 21 41 7 22 45 7 23 2 8 24 60 8 25 64 8 26 7 9 27 61 9 28 65 9 29 0 10 30 62 10 31 66 10 32 4 11 33 63 11 34 67 11 35 5 12 36 42 12 37 46 12 38 6 13 39 43 13 40 47 13 41 53 14 42 34 14 43 57 14 44 73 15 45 35 15 46 77 15 47 1 16 48 71 16 49 67 16 50 65 17 51 27 17 52 69 17 53 2 18 54 49 18 55 45 18 56 4 19 57 50 19 58 46 19 59 66 20 60 30 20 61 70 20 62 6 21 63 68 21 64 64 21 65 17 22 66 48 22 67 52 22 68 53 23 69 27 23 70 49 23 71 18 24 72 68 24 73 72 24 74 21 25 75 69 25 76 73 25 77 16 26 78 70 26 79 74 26 80 23 27 81 71 27 82 75 27 83 54 28 84 30 28 85 50 28 86 20 29 87 51 29 88 55 29 89 33 30 90 82 30 91 83 30 92 32 31 93 89 31 94 96 31 95 54 32 96 39 32 97 58 32 98 74 33 99 38 33 100 78 33 101 72 34 102 36 34 103 76 34 104 52 35 105 32 35 106 56 35 107 55 36 108 37 36 109 59 36 110 75 37 111 33 37 112 79 37 113 55 38 114 36 38 115 20 38 116 52 39 117 33 39 118 17 39 119 54 40 120 38 40 121 22 40 122 37 41 123 94 41 124 59 41 125 37 42 126 88 42 127 95 42 128 55 43 129 29 43 130 21 43 131 23 44 132 50 44 133 31 44 134 18 45 135 49 45 136 26 45 137 52 46 138 24 46 139 16 46 140 5 47 141 50 47 142 30 47 143 45 48 144 27 48 145 3 48 146 53 49 147 35 49 148 19 49 149 7 50 150 43 50 151 13 50 152 4 51 153 42 51 154 15 51 155 2 52 156 41 52 157 10 52 158 0 53 159 40 53 160 8 53 161 44 54 162 25 54 163 1 54 164 47 55 165 28 55 166 6 55 167 8 56 168 41 56 169 11 56 170 15 57 171 43 57 172 12 57 173 39 58 174 92 58 175 58 58 176 36 59 177 86 59 178 76 59 179 75 60 180 39 60 181 23 60 182 72 61 183 34 61 184 18 61 185 74 62 186 32 62 187 16 62 188 36 63 189 94 63 190 97 63 191 33 64 192 91 64 193 79 64 194 17 65 195 71 65 196 25 65 197 22 66 198 70 66 199 30 66 200 19 67 201 69 67 202 27 67 203 20 68 204 68 68 205 28 68 206 64 69 207 26 69 208 2 69 209 0 70 210 70 70 211 24 70 212 7 71 213 69 71 214 29 71 215 67 72 216 31 72 217 4 72 218 73 73 219 37 73 220 21 73 221 1 74 222 63 74 223 9 74 224 5 75 225 62 75 226 14 75 227 3 76 228 61 76 229 11 76 230 6 77 231 60 77 232 12 77 233 12 78 234 63 78 235 15 78 236 8 79 237 61 79 238 62 79 239 94 80 240 111 80 241 97 80 242 88 81 243 99 81 244 102 81 245 92 82 246 104 82 247 90 82 248 91 83 249 107 83 250 93 83 251 86 84 252 101 84 253 87 84 254 84 85 255 101 85 256 98 85 257 89 86 258 110 86 259 96 86 260 84 87 261 99 87 262 85 87 263 39 88 264 91 88 265 93 88 266 35 89 267 84 89 268 85 89 269 34 90 270 86 90 271 87 90 272 32 91 273 82 91 274 56 91 275 35 92 276 88 92 277 77 92 278 34 93 279 84 93 280 57 93 281 38 94 282 89 94 283 78 94 284 38 95 285 92 95 286 90 95 287 113 96 288 101 96 289 100 96 290 112 97 291 80 97 292 81 97 293 112 98 294 110 98 295 103 98 296 99 99 297 113 99 298 102 99 299 109 100 300 113 100 301 108 100 302 104 101 303 112 101 304 103 101 305 107 102 306 112 102 307 106 102 308 113 103 309 111 103 310 108 103 311 89 104 312 104 104 313 103 104 314 91 105 315 80 105 316 105 105 317 92 106 318 107 106 319 106 106 320 86 107 321 111 107 322 100 107 323 94 108 324 109 108 325 108 108 326 82 109 327 80 109 328 83 109 329 88 110 330 109 110 331 95 110 332 82 111 333 110 111 334 81 111 335 14 112 336 13 112 337 43 112 338 9 113 339 10 113 340 41 113 341 47 114 342 7 114 343 29 114 344 62 115 345 61 115 346 13 115 347 60 116 348 10 116 349 9 116 350 0 117 351 24 117 352 48 117 353 1 118 354 9 118 355 40 118 356 3 119 357 11 119 358 41 119 359 2 120 360 10 120 361 60 120 362 7 121 363 13 121 364 61 121 365 0 122 366 8 122 367 62 122 368 4 123 369 15 123 370 63 123 371 5 124 372 14 124 373 42 124 374 6 125 375 12 125 376 43 125 377 53 126 378 18 126 379 34 126 380 73 127 381 19 127 382 35 127 383 1 128 384 25 128 385 71 128 386 65 129 387 3 129 388 27 129 389 2 130 390 26 130 391 49 130 392 4 131 393 31 131 394 50 131 395 66 132 396 5 132 397 30 132 398 6 133 399 28 133 400 68 133 401 17 134 402 25 134 403 48 134 404 53 135 405 19 135 406 27 135 407 18 136 408 26 136 409 68 136 410 21 137 411 29 137 412 69 137 413 16 138 414 24 138 415 70 138 416 23 139 417 31 139 418 71 139 419 54 140 420 22 140 421 30 140 422 20 141 423 28 141 424 51 141 425 33 142 426 56 142 427 82 142 428 32 143 429 78 143 430 89 143 431 54 144 432 23 144 433 39 144 434 74 145 435 22 145 436 38 145 437 72 146 438 20 146 439 36 146 440 52 147 441 16 147 442 32 147 443 55 148 444 21 148 445 37 148 446 75 149 447 17 149 448 33 149 449 55 150 450 59 150 451 36 150 452 52 151 453 56 151 454 33 151 455 54 152 456 58 152 457 38 152 458 37 153 459 95 153 460 94 153 461 37 154 462 77 154 463 88 154 464 55 155 465 51 155 466 29 155 467 23 156 468 54 156 469 50 156 470 18 157 471 53 157 472 49 157 473 52 158 474 48 158 475 24 158 476 5 159 477 46 159 478 50 159 479 45 160 480 49 160 481 27 160 482 53 161 483 57 161 484 35 161 485 7 162 486 47 162 487 43 162 488 4 163 489 46 163 490 42 163 491 2 164 492 45 164 493 41 164 494 0 165 495 44 165 496 40 165 497 44 166 498 48 166 499 25 166 500 47 167 501 51 167 502 28 167 503 8 168 504 40 168 505 41 168 506 15 169 507 42 169 508 43 169 509 39 170 510 93 170 511 92 170 512 36 171 513 97 171 514 86 171 515 75 172 516 79 172 517 39 172 518 72 173 519 76 173 520 34 173 521 74 174 522 78 174 523 32 174 524 36 175 525 59 175 526 94 175 527 33 176 528 83 176 529 91 176 530 17 177 531 75 177 532 71 177 533 22 178 534 74 178 535 70 178 536 19 179 537 73 179 538 69 179 539 20 180 540 72 180 541 68 180 542 64 181 543 68 181 544 26 181 545 0 182 546 66 182 547 70 182 548 7 183 549 65 183 550 69 183 551 67 184 552 71 184 553 31 184 554 73 185 555 77 185 556 37 185 557 1 186 558 67 186 559 63 186 560 5 187 561 66 187 562 62 187 563 3 188 564 65 188 565 61 188 566 6 189 567 64 189 568 60 189 569 12 190 570 60 190 571 63 190 572 8 191 573 11 191 574 61 191 575 94 192 576 108 192 577 111 192 578 88 193 579 85 193 580 99 193 581 92 194 582 106 194 583 104 194 584 91 195 585 105 195 586 107 195 587 86 196 588 100 196 589 101 196 590 84 197 591 87 197 592 101 197 593 89 198 594 103 198 595 110 198 596 84 199 597 98 199 598 99 199 599 39 200 600 79 200 601 91 200 602 35 201 603 57 201 604 84 201 605 34 202 606 76 202 607 86 202 608 32 203 609 96 203 610 82 203 611 35 204 612 85 204 613 88 204 614 34 205 615 87 205 616 84 205 617 38 206 618 90 206 619 89 206 620 38 207 621 58 207 622 92 207 623 113 208 624 98 208 625 101 208 626 112 209 627 105 209 628 80 209 629 112 210 630 81 210 631 110 210 632 99 211 633 98 211 634 113 211 635 109 212 636 102 212 637 113 212 638 104 213 639 106 213 640 112 213 641 107 214 642 105 214 643 112 214 644 113 215 645 100 215 646 111 215 647 89 216 648 90 216 649 104 216 650 91 217 651 83 217 652 80 217 653 92 218 654 93 218 655 107 218 656 86 219 657 97 219 658 111 219 659 94 220 660 95 220 661 109 220 662 82 221 663 81 221 664 80 221 665 88 222 666 102 222 667 109 222 668 82 223 669 96 223 670 110 223 671</p>
        </triangles>
      </mesh>
    </geometry>
  </library_geometries>
  <library_visual_scenes>
    <visual_scene id="Scene" name="Scene">
      <node id="door_1" name="door_1" type="NODE">
        <matrix sid="transform">1 0 0 0 0 1 0 0 0 0 1 0 0 0 0 1</matrix>
        <instance_geometry url="#door_1_mesh-mesh" name="door_1">
          <bind_material>
            <technique_common>
              <instance_material symbol="Material-material" target="#Material-material">
                <bind_vertex_input semantic="UVMap" input_semantic="TEXCOORD" input_set="0"/>
              </instance_material>
            </technique_common>
          </bind_material>
        </instance_geometry>
      </node>
    </visual_scene>
  </library_visual_scenes>
  <scene>
    <instance_visual_scene url="#Scene"/>
  </scene>
</COLLADA>