# Blender 4.2.1 LTS
# www.blender.org
mtllib ac_unit.mtl
g ac_unit_Mesh
v -0.388613 -0.068774 -0.186438
v 0.120290 -0.014156 -0.330676
v -0.234264 -0.068974 0.358063
v 0.274639 -0.014356 0.213825
v -0.307759 0.196915 -0.134117
v 0.047506 0.237081 -0.236608
v -0.209359 0.196744 0.300976
v 0.172409 0.236910 0.197052
v 0.234326 0.240885 0.256938
v -0.228529 0.191209 0.388124
v -0.420010 0.178565 -0.185507
v 0.097055 0.234028 -0.331884
v 0.352402 -0.014457 0.489973
v -0.155985 -0.069075 0.634211
v -0.168703 0.191132 0.599173
v 0.294151 0.240807 0.467987
v 0.249061 0.243366 0.221170
v -0.259192 0.178875 0.351796
v 0.327340 0.243265 0.497318
v -0.183588 0.178246 0.648130
v -0.031325 -0.032310 -0.278092
v -0.002798 -0.029249 -0.286177
v 0.134016 -0.029448 0.253682
v 0.105489 -0.032510 0.261767
v 0.108438 0.228274 0.261026
v 0.079911 0.225212 0.269112
v -0.031318 0.219562 -0.292584
v -0.059844 0.216500 -0.284499
v 0.100173 0.228005 0.241702
v 0.047320 0.225753 0.260183
v 0.004996 0.228175 -0.230280
v -0.052871 0.225924 -0.218246
v 0.212295 -0.029549 0.529829
v 0.183768 -0.032611 0.537915
v 0.190559 0.218810 0.547186
v 0.162032 0.215748 0.555271
v 0.115436 0.228125 0.290635
v 0.089491 0.225340 0.297988
v 0.175262 0.228047 0.501684
v 0.149316 0.225263 0.509037
v -0.180780 -0.069043 0.546740
v -0.213945 0.178806 0.556232
v 0.298987 0.234572 0.410361
v 0.317808 -0.014425 0.406628
v -0.187653 0.191156 0.532323
v 0.275201 0.240832 0.401136
v 0.156312 0.228072 0.434833
v 0.124636 0.225287 0.443619
v 0.158973 -0.032579 0.450444
v 0.187500 -0.029517 0.442358
v 0.091306 0.243026 0.311092
v -0.200672 0.210267 0.427329
v 0.139442 0.242297 0.504285
v -0.159652 0.210197 0.589056
v -0.176619 0.210219 0.529202
v 0.259978 0.257076 0.405457
v 0.276945 0.257054 0.465312
v 0.222674 0.257125 0.273858
v 0.117252 0.245810 0.303738
v 0.179677 0.246615 0.492881
v 0.160152 0.246640 0.424002
v 0.107382 0.242322 0.434689
v -0.017062 -0.030780 -0.282135
v 0.119752 -0.030979 0.257724
v 0.094174 0.226743 0.265069
v -0.045581 0.218031 -0.288541
v 0.089684 0.226879 0.244675
v -0.042382 0.227049 -0.221219
v 0.198032 -0.031080 0.533872
v 0.176296 0.217279 0.551229
v 0.102463 0.226732 0.294311
v 0.162289 0.226655 0.505361
v 0.173236 -0.031048 0.446401
v 0.141722 0.226684 0.420946
v 0.104279 0.244418 0.307415
v 0.138417 0.244485 0.412140
v 0.138080 0.265195 0.159408
v 0.161513 0.261273 0.191787
v -0.201789 0.228834 0.271548
v -0.207819 0.222442 0.292186
v -0.290522 0.228986 -0.115167
v -0.301831 0.222607 -0.127426
v 0.033946 0.265347 -0.205461
v 0.040999 0.261438 -0.226392
v 0.089596 0.258147 0.217418
v 0.095147 0.252997 0.234773
v 0.042990 0.250820 0.253057
v 0.056207 0.255985 0.217753
v -0.017847 0.253162 -0.207402
v -0.003793 0.258299 -0.185056
v -0.048285 0.256137 -0.192242
v -0.052812 0.250985 -0.209891
v 0.085006 0.251908 0.237647
v 0.079169 0.257066 0.207736
v -0.029979 0.257218 -0.184709
v -0.042672 0.252073 -0.212765
v -0.260884 0.124696 0.441844
v -0.248094 -0.004177 0.438171
v 0.292886 0.016362 0.215449
v 0.272995 0.216788 0.221161
v -0.430841 -0.043018 -0.221309
v -0.450733 0.157408 -0.215598
v 0.116034 0.217006 -0.372629
v 0.135925 0.016580 -0.378341
v -0.196894 0.157080 0.679878
v -0.177002 -0.043346 0.674166
v 0.324960 0.074414 0.531919
v 0.317617 0.148412 0.534028
v 0.193730 -0.003557 0.569090
v 0.173838 0.196869 0.574802
v 0.236592 0.064930 0.556965
v 0.229249 0.138928 0.559074
v -0.062466 0.197197 -0.316032
v -0.042574 -0.003229 -0.321744
v -0.031338 0.200538 -0.324854
v -0.011446 0.000112 -0.330566
v 0.321041 0.216713 0.431168
v 0.340932 0.016287 0.425456
v -0.226141 -0.004205 0.515614
v -0.238931 0.124667 0.519287
v -0.046902 0.198867 -0.320443
v -0.027010 -0.001559 -0.326155
v 0.209293 -0.001887 0.564679
v 0.189402 0.198539 0.570391
v -0.064938 -0.050801 0.310070
v -0.090516 0.206921 0.317416
v -0.247805 0.198209 -0.240837
v -0.058894 0.211202 0.294671
v -0.185946 0.211372 -0.190562
v 0.013342 -0.050902 0.586219
v -0.008394 0.197457 0.603575
v -0.070033 0.208219 0.343202
v -0.010208 0.208142 0.554251
v -0.219286 -0.050601 -0.234430
v -0.011454 -0.050870 0.498748
v -0.061802 0.226593 0.354487
v -0.010589 0.226195 0.546808
v -0.028831 0.226219 0.482455
v -0.057442 0.242366 0.259092
v -0.053474 0.236585 0.282771
v -0.182943 0.236750 -0.183042
v -0.172678 0.242518 -0.167018
v -0.263025 0.186150 -0.254214
v -0.246075 -0.023188 -0.273677
v -0.031740 0.005351 0.633007
v -0.034705 0.035223 0.633858
v -0.149601 -0.059887 0.334067
v -0.175179 0.197835 0.341412
v -0.332827 0.189123 -0.211110
v -0.130903 0.203973 0.296212
v -0.255806 0.204144 -0.160728
v -0.071322 -0.059988 0.610215
v -0.093058 0.188371 0.627571
v -0.149281 0.199714 0.365663
v -0.089456 0.199637 0.576712
v -0.096117 -0.059956 0.522744
v -0.137863 0.218430 0.376045
v -0.085121 0.218196 0.567932
v -0.128362 0.235600 0.260127
v -0.251341 0.229678 -0.153622
v -0.355408 0.176235 -0.228030
v -0.338458 -0.033103 -0.247493
v -0.051617 0.003217 0.638640
v -0.054582 0.033089 0.639492
v -0.303949 -0.059688 -0.210434
v -0.102725 0.218219 0.505829
v -0.131542 0.229513 0.279957
v -0.238226 0.235752 -0.138407
v 0.007764 -0.023516 0.621798
v -0.015970 0.186273 0.617499
v -0.084619 -0.033431 0.647982
v -0.108353 0.176358 0.643682
v -0.015574 0.010139 0.691857
v -0.011309 0.029644 0.714290
v -0.035451 0.008006 0.697491
v -0.031186 0.027510 0.719924
v 0.017122 -0.009318 0.706104
v 0.014813 0.001208 0.734136
v 0.006982 -0.026546 0.711738
v 0.004673 -0.016021 0.739769
v 0.066354 -0.034193 0.712232
v 0.066140 -0.025341 0.740928
v 0.058653 -0.052641 0.717866
v 0.058440 -0.043789 0.746561
v -0.044217 0.039435 0.678465
v -0.024340 0.041568 0.672831
v -0.023540 0.015231 0.665679
v -0.043417 0.013097 0.671313
v 0.127363 -0.014938 0.709603
v 0.133231 -0.008935 0.738438
v 0.117424 -0.032283 0.715237
v 0.123292 -0.026280 0.744071
v 0.377787 0.016252 0.516777
v 0.357896 0.216678 0.522489
v 0.224857 -0.000216 0.560267
v 0.204966 0.200210 0.565979
v 0.313582 0.077364 0.508403
v 0.306907 0.144617 0.510320
v 0.233269 0.068744 0.531166
v 0.226594 0.135997 0.533083
v -0.274073 0.157191 0.362792
v -0.254181 -0.043235 0.357080
v -0.204058 -0.043311 0.578720
v -0.223950 0.157115 0.584432
v -0.207359 0.130440 0.426674
v -0.194569 0.001568 0.423001
v -0.172616 0.001539 0.500444
v -0.185407 0.130412 0.504117
v -0.394493 0.188948 -0.176586
v -0.251605 0.188749 0.349649
v 0.256334 0.234641 0.219105
v 0.088982 0.243566 -0.315810
v -0.329885 0.198034 -0.197359
v -0.096900 0.197734 0.617560
v -0.170103 0.188647 0.624365
v -0.200628 0.188679 0.544773
v 0.291714 0.243297 0.412425
v 0.333217 0.233701 0.501520
v -0.028376 0.228473 -0.278832
v -0.042640 0.226943 -0.274790
v -0.056903 0.225412 -0.270747
v 0.186717 0.228173 0.537175
v 0.172453 0.226642 0.541217
v 0.158190 0.225111 0.545260
v 0.185559 0.207902 0.560379
v 0.169996 0.206232 0.564790
v -0.043960 0.207779 -0.306691
v -0.059524 0.206108 -0.302280
v -0.266486 0.167064 0.360645
v -0.216363 0.166988 0.582284
v 0.265721 0.225513 0.223226
v 0.313768 0.225438 0.433233
v -0.028397 0.209449 -0.311102
v -0.358349 0.167323 -0.241781
v -0.444913 0.167791 -0.209183
v 0.201123 0.209573 0.555968
v -0.104511 0.166995 0.653694
v -0.194869 0.167482 0.673304
v 0.352018 0.226242 0.518287
v 0.113690 0.226544 -0.364075
v -0.244864 0.207121 -0.227085
v -0.012237 0.206820 0.593563
v -0.265966 0.177238 -0.267965
v -0.012128 0.176910 0.627510
v 0.261119 0.224019 0.224530
v 0.251773 0.233107 0.220397
v -0.441119 0.166207 -0.206044
v -0.416198 0.176985 -0.182428
v 0.348571 0.224385 0.514516
v 0.329218 0.231837 0.497868
v 0.167966 0.205368 0.557300
v 0.160002 0.214884 0.547781
v 0.199195 0.208485 0.548754
v 0.188596 0.217793 0.539875
v -0.211224 0.166055 0.581031
v -0.209365 0.178038 0.554933
v 0.183529 0.207038 0.552889
v 0.174265 0.216414 0.543738
v -0.254706 0.178006 0.350524
v -0.261954 0.166243 0.359361
v 0.095278 0.232011 -0.327354
v 0.112664 0.224549 -0.358967
v -0.182279 0.176805 0.642811
v -0.192984 0.166058 0.668542
v -0.057715 0.215359 -0.277419
v -0.057395 0.204967 -0.295200
v -0.029253 0.218247 -0.285797
v -0.026362 0.208066 -0.304447
v 0.294344 0.233121 0.411676
v 0.309261 0.223854 0.434510
v -0.043452 0.216890 -0.281461
v -0.041831 0.206638 -0.299611
v -0.245676 0.197068 -0.233757
v -0.260896 0.185009 -0.247133
v -0.018001 0.185409 0.610008
v -0.010424 0.196593 0.596084
v -0.110258 0.175225 0.636534
v -0.095046 0.187410 0.620190
v -0.330381 0.187866 -0.209950
v -0.353394 0.174806 -0.221467
v -0.311438 -0.068874 0.085813
v 0.184571 -0.014256 -0.051721
v -0.325556 0.188848 0.074892
v 0.150398 0.243466 -0.041511
v -0.276109 0.196830 0.060150
v 0.116046 0.236996 -0.033746
v 0.028315 -0.032410 -0.010483
v 0.056841 -0.029348 -0.018569
v 0.042578 -0.030879 -0.014526
v -0.269509 0.222524 0.068054
v -0.253856 0.228910 0.072819
v 0.108419 0.261355 -0.012289
v 0.096399 0.265271 -0.008880
v 0.030725 0.258223 0.009734
v 0.010587 0.256061 0.015442
v 0.020656 0.257142 0.012588
v 0.182337 0.216897 -0.070999
v 0.195782 0.016471 -0.074920
v -0.346630 -0.043127 0.075765
v -0.366521 0.157299 0.081477
v -0.142112 -0.050701 0.037820
v -0.116314 0.242442 0.051409
v -0.179355 0.235676 0.069277
v -0.226775 -0.059787 0.061816
v -0.343720 0.178720 0.091024
v 0.163801 0.234334 -0.049686
v 0.171083 0.226029 -0.063899
v -0.359818 0.167427 0.083610
v -0.339570 0.177495 0.091927
v 0.160633 0.232559 -0.046773
v 0.168268 0.224284 -0.060693
v -0.355656 0.166225 0.084537
vn 0.1093 -0.9935 -0.0313
vn -0.6133 -0.7705 0.1736
vn 0.4858 0.3229 0.8122
vn -0.0913 -0.8387 -0.5369
vn 0.2964 0.9500 -0.0986
vn 0.7662 -0.6245 -0.1514
vn -0.0887 0.9949 0.0482
vn -0.1520 0.9881 0.0252
vn -0.1755 0.9835 0.0432
vn -0.1843 0.9739 0.1326
vn 0.8312 0.4906 -0.2615
vn -0.1034 0.9943 0.0270
vn -0.2064 0.3310 -0.9208
vn 0.2408 0.3694 0.8975
vn 0.3009 -0.9513 -0.0674
vn -0.4530 0.8874 0.0852
vn 0.1067 -0.9938 -0.0306
vn -0.9057 0.3371 0.2569
vn -0.0987 0.9947 0.0283
vn -0.1480 0.9881 0.0423
vn -0.1821 0.9819 0.0520
vn -0.0987 0.9947 0.0284
vn -0.7350 0.6452 0.2086
vn -0.0613 0.9980 0.0153
vn 0.0987 -0.9947 -0.0283
vn -0.4290 -0.8930 0.1363
vn -0.1309 0.9849 -0.1136
vn 0.2297 0.3026 0.9250
vn -0.4716 0.3120 -0.8248
vn -0.0411 0.9991 0.0109
vn -0.9507 0.1631 0.2636
vn 0.3203 0.3098 0.8952
vn -0.0900 0.9955 0.0294
vn -0.1071 0.9942 -0.0015
vn -0.0959 0.9947 0.0384
vn -0.0480 -0.8340 -0.5497
vn -0.0636 -0.8380 -0.5419
vn -0.2781 0.5901 -0.7579
vn 0.2151 0.3761 0.9013
vn -0.1080 0.9938 0.0245
vn -0.2175 0.9725 0.0838
vn 0.1285 -0.9885 0.0792
vn -0.6381 -0.7563 0.1441
vn -0.0979 0.9947 0.0313
vn -0.1047 0.9940 0.0300
vn -0.8244 0.5155 0.2339
vn 0.8552 0.4058 -0.3225
vn 0.6892 0.6978 -0.1951
vn -0.4784 0.3164 0.8191
vn -0.5363 0.6354 -0.5556
vn 0.5111 0.7436 0.4310
vn -0.1176 0.9924 0.0351
vn -0.1664 0.5788 -0.7983
vn -0.0668 0.9976 0.0193
vn -0.2898 0.3033 -0.9077
vn -0.6871 0.6605 0.3028
vn -0.0436 0.9570 0.2868
vn -0.4031 0.9090 0.1060
vn 0.2853 0.9542 -0.0903
vn -0.2122 0.9567 -0.1990
vn -0.0002 0.9927 0.1204
vn 0.0256 0.9860 0.1650
vn -0.2130 0.9450 -0.2483
vn 0.0198 0.9818 -0.1890
vn -0.0204 0.9567 0.2904
vn -0.0430 0.9792 -0.1981
vn -0.1015 0.9947 0.0184
vn 0.2543 -0.7467 0.6146
vn 0.2727 -0.0004 0.9621
vn -0.1392 0.9831 -0.1188
vn -0.2727 0.0004 -0.9621
vn 0.1869 -0.9427 0.2765
vn 0.8484 -0.4939 -0.1901
vn 0.9697 0.1026 -0.2218
vn -0.2155 0.9089 -0.3570
vn -0.0595 0.9825 0.1762
vn -0.2303 0.0049 -0.9731
vn 0.2544 -0.7467 0.6146
vn 0.8389 -0.4181 -0.3484
vn 0.9225 0.1022 -0.3723
vn 0.2552 -0.7467 0.6143
vn -0.0622 0.9861 0.1538
vn 0.0558 -0.9829 -0.1752
vn 0.9743 0.0695 -0.2141
vn -0.9570 -0.1027 0.2712
vn -0.1135 0.9900 -0.0835
vn -0.3080 -0.0035 -0.9514
vn 0.1297 -0.9884 0.0789
vn -0.0227 0.9589 0.2829
vn 0.0408 -0.9786 -0.2019
vn -0.1537 0.9584 -0.2404
vn -0.0764 0.9903 0.1163
vn -0.1014 0.9947 0.0189
vn -0.0943 0.9946 0.0438
vn -0.0963 0.9949 0.0288
vn -0.2245 0.3087 -0.9243
vn -0.0551 0.9720 0.2285
vn -0.0357 0.5359 0.8435
vn -0.0519 0.9673 0.2482
vn -0.1180 0.9927 0.0234
vn 0.0278 0.3220 0.9463
vn -0.1173 0.9931 0.0069
vn -0.1240 -0.7926 -0.5971
vn -0.1202 0.9910 0.0596
vn 0.2646 -0.9567 -0.1213
vn -0.2727 0.0003 -0.9621
vn -0.1945 0.9560 -0.2195
vn -0.0883 0.9642 0.2502
vn -0.4028 0.3035 -0.8635
vn -0.0987 0.9939 0.0498
vn 0.5868 0.5525 -0.5920
vn 0.9570 0.1027 -0.2712
vn 0.0470 -0.9777 -0.2045
vn -0.4683 -0.8392 0.2765
vn -0.7670 -0.4049 0.4978
vn -0.1728 -0.5493 -0.8176
vn -0.2172 0.4165 0.8828
vn -0.0463 0.3325 0.9420
vn -0.0282 -0.2812 -0.9592
vn 0.0269 0.2963 0.9547
vn 0.4611 0.8489 -0.2584
vn 0.1719 -0.9541 0.2454
vn -0.9570 -0.1027 0.2713
vn -0.1402 0.9825 -0.1227
vn 0.8561 -0.5125 -0.0675
vn -0.2997 0.9110 -0.2833
vn 0.2631 -0.9538 0.1450
vn 0.0675 -0.3171 -0.9460
vn 0.2755 -0.0001 0.9613
vn 0.2737 -0.0018 0.9618
vn 0.2727 -0.0003 0.9621
vn -0.9004 -0.1014 0.4230
vn 0.1335 -0.9862 0.0976
vn 0.9885 0.1013 -0.1124
vn -0.9872 -0.1015 0.1230
vn -0.9658 0.1395 0.2185
vn -0.4077 0.9065 0.1101
vn 0.5109 0.8520 -0.1141
vn -0.2720 0.8331 -0.4817
vn -0.0131 0.9187 0.3947
vn -0.7560 0.6240 0.1977
vn 0.8634 0.3897 -0.3205
vn -0.2659 0.7645 -0.5872
vn -0.2300 0.8384 -0.4941
vn 0.1062 0.7462 0.6572
vn -0.4784 0.8587 0.1838
vn 0.7382 0.6543 -0.1644
vn -0.7625 0.6235 0.1727
vn 0.7372 0.6544 -0.1684
vn -0.2757 0.6123 -0.7410
vn 0.1442 0.7497 0.6458
vn 0.6904 0.6504 -0.3166
vn 0.1892 0.4901 0.8509
vn 0.5533 0.8152 -0.1714
vn -0.8318 0.4994 0.2424
vn -0.2789 0.8320 -0.4795
vn -0.9053 0.3385 0.2567
vn -0.1986 0.8413 -0.5027
vn -0.2011 0.8411 -0.5021
vn -0.2590 0.8349 -0.4856
vn -0.5084 0.8481 0.1495
vn 0.1183 0.7526 0.6478
vn 0.5396 0.7973 -0.2704
vn 0.1055 0.7460 0.6576
vn 0.6823 0.7143 -0.1559
vn -0.7757 0.6072 0.1720
vn -0.2310 0.8382 -0.4941
vn -0.2037 0.8311 -0.5175
vn 0.5982 0.7889 -0.1409
vn -0.2565 0.8311 -0.4935
vn -0.7394 0.6303 0.2367
vn -0.2294 0.8391 -0.4932
vn 0.1061 0.7473 0.6559
vn 0.0553 0.9130 0.4043
vn -0.1426 0.9486 -0.2824
vn 0.0418 -0.9843 -0.1712
vn 0.0254 0.9294 0.3681
vn 0.1344 -0.9858 0.1010
vn -0.2991 -0.9504 0.0853
vn 0.1701 0.9848 -0.0355
vn -0.1285 0.9885 -0.0792
vn 0.3888 -0.9117 -0.1328
vn 0.0550 -0.9830 -0.1750
vn -0.0558 0.9829 0.1752
vn -0.0195 -0.8991 -0.4373
vn 0.1678 0.9851 -0.0376
vn 0.1431 -0.9856 0.0898
vn -0.0551 0.9830 0.1750
vn -0.3125 0.9472 0.0724
vn -0.1558 -0.9872 0.0342
vn -0.0435 0.9754 0.2160
vn 0.5734 -0.8081 -0.1348
vn -0.1737 -0.9830 0.0589
vn 0.7296 0.6365 -0.2502
vn -0.6244 0.7516 0.2128
vn -0.7406 0.6236 0.2503
vn 0.8965 0.3969 -0.1969
vn 0.7086 0.6536 -0.2659
vn -0.4079 0.9061 0.1120
vn -0.0893 0.9957 0.0238
vn -0.0991 0.9947 0.0269
vn -0.9450 -0.1026 0.3105
vn -0.7756 -0.5918 0.2196
vn 0.9528 0.0697 -0.2956
vn -0.1076 0.9937 0.0309
vn 0.2515 0.9657 -0.0650
vn -0.5643 0.8203 0.0936
vn -0.0427 0.9990 0.0100
vn 0.1003 -0.9947 -0.0227
vn -0.9704 0.1827 0.1582
vn -0.0983 0.9947 0.0299
vn -0.2835 0.9544 0.0932
vn -0.1078 0.9937 0.0309
vn 0.9052 0.3540 -0.2354
vn -0.1084 0.9938 0.0246
vn -0.1426 0.9890 0.0387
vn 0.8183 -0.5053 -0.2738
vn 0.4762 0.8685 -0.1373
vn 0.1109 -0.9935 -0.0251
vn 0.0973 -0.9947 -0.0334
vn 0.4529 0.3771 0.8079
vn -0.0896 -0.8234 -0.5604
vn 0.1627 0.9851 -0.0555
vn 0.8627 -0.4650 -0.1990
vn -0.1107 0.9916 0.0668
vn -0.1057 0.9940 0.0294
vn -0.0952 0.9948 0.0361
vn -0.1222 0.9924 0.0173
vn 0.8835 0.3612 -0.2983
vn -0.3308 0.4547 -0.8269
vn 0.2393 0.3035 0.9223
vn 0.2815 -0.9575 -0.0626
vn -0.6977 0.7037 0.1346
vn 0.0957 -0.9946 -0.0401
vn -0.1143 0.9892 0.0912
vn -0.1864 0.9813 0.0490
vn -0.1173 0.9919 0.0496
vn -0.8341 0.5151 0.1972
vn -0.0963 0.9947 0.0367
vn -0.1782 0.9375 -0.2989
vn -0.4667 0.3222 -0.8236
vn -0.9537 0.1469 0.2625
vn 0.3194 0.3110 0.8951
vn -0.1090 0.9940 -0.0013
vn -0.0200 0.9996 0.0199
vn -0.1037 0.9941 0.0305
vn -0.0019 0.9977 0.0673
vn -0.0453 -0.8367 -0.5457
vn 0.1003 -0.9947 -0.0228
vn -0.0598 0.9981 0.0135
vn -0.1001 0.9947 0.0241
vn 0.7439 0.5739 -0.3425
vn -0.6266 0.4853 0.6098
vn -0.1896 0.9293 -0.3170
vn 0.5019 0.4566 0.7346
vn 0.1871 0.3163 -0.9300
vn -0.0994 0.9947 0.0259
vn -0.2898 0.3033 -0.9078
vn -0.2935 0.9460 0.1379
vn -0.1233 0.9919 0.0304
vn -0.0433 0.9578 0.2840
vn -0.4746 0.8704 0.1309
vn 0.2749 0.9576 -0.0862
vn -0.2590 0.9338 -0.2471
vn 0.0538 0.9619 0.2682
vn 0.0318 0.9872 0.1563
vn -0.2254 0.9709 -0.0815
vn -0.1695 0.9569 -0.2359
vn -0.2992 0.9288 0.2185
vn -0.0046 0.9840 -0.1784
vn -0.1570 0.9863 0.0503
vn -0.1316 0.9882 -0.0783
vn 0.1291 -0.9863 0.1025
vn 0.8369 -0.5127 -0.1917
vn -0.1532 0.9815 -0.1148
vn -0.0409 0.9736 0.2245
vn 0.8488 -0.4025 -0.3427
vn 0.2551 -0.7469 0.6141
vn 0.9759 0.1023 -0.1925
vn -0.1373 0.9842 -0.1117
vn 0.1322 -0.9869 0.0929
vn -0.0243 -0.9098 -0.4144
vn -0.1552 0.9570 -0.2451
vn -0.0665 0.9667 0.2472
vn -0.1068 0.9938 0.0304
vn -0.1068 0.9938 0.0306
vn -0.0903 0.9955 0.0298
vn -0.2257 0.3012 -0.9265
vn 0.0085 0.8968 0.4423
vn -0.0718 0.4359 0.8971
vn -0.0922 0.9954 0.0241
vn -0.0886 0.9940 0.0639
vn -0.0892 0.9957 0.0257
vn 0.0849 0.5365 0.8396
vn 0.0574 -0.9828 -0.1757
vn -0.1095 0.9924 0.0559
vn -0.0637 -0.8380 -0.5419
vn 0.5710 -0.7904 -0.2220
vn -0.1921 0.9572 -0.2165
vn -0.0966 0.9557 0.2779
vn -0.4003 0.3100 -0.8623
vn -0.0948 0.9946 0.0422
vn 0.7805 0.6037 -0.1624
vn -0.4597 -0.8496 0.2587
vn -0.6591 -0.7203 0.2162
vn 0.1618 -0.3914 -0.9059
vn 0.1791 0.5264 0.8312
vn -0.0471 0.3097 0.9497
vn -0.0300 -0.2947 -0.9551
vn 0.0248 0.2825 0.9589
vn 0.4701 0.8383 -0.2760
vn -0.2401 0.9590 -0.1508
vn 0.3253 -0.9029 0.2809
vn 0.0680 -0.3432 -0.9368
vn 0.2734 0.0013 0.9619
vn -0.9328 -0.2924 0.2108
vn -0.7436 0.6238 0.2407
vn 0.6187 0.7717 -0.1472
vn -0.2241 0.8906 -0.3957
vn -0.0260 0.7251 0.6881
vn -0.5249 0.8432 0.1165
vn 0.6991 0.6522 -0.2931
vn -0.2602 0.8347 -0.4853
vn 0.2160 0.5009 0.8381
vn -0.4286 0.8915 0.1470
vn -0.1860 0.8422 -0.5060
vn 0.1864 0.4988 0.8465
vn 0.8594 0.3758 -0.3467
vn 0.0835 0.7436 0.6634
vn 0.7183 0.6546 -0.2356
vn -0.9021 0.3475 0.2558
vn -0.3076 0.5923 -0.7447
vn -0.7616 0.6236 0.1765
vn -0.6168 0.7683 0.1709
vn -0.0028 0.9115 0.4112
vn 0.8004 0.5092 -0.3163
vn 0.1046 0.7462 0.6574
vn 0.7237 0.6710 -0.1611
vn -0.8216 0.5380 0.1885
vn -0.2317 0.8383 -0.4936
vn -0.1977 0.8448 -0.4973
vn 0.3058 0.9504 -0.0562
vn -0.2437 0.9054 -0.3477
vn -0.5523 0.8257 0.1151
vn -0.2300 0.8384 -0.4942
vn 0.0725 0.7661 0.6386
vn -0.2547 0.8521 -0.4573
vn 0.0472 -0.9779 -0.2038
vn -0.0323 0.9766 0.2128
vn 0.1174 -0.9897 0.0824
vn -0.4671 -0.8747 0.1293
vn 0.4190 0.9020 -0.1038
vn 0.2923 -0.9513 -0.0978
vn -0.1020 -0.7746 -0.6242
vn 0.1695 0.9848 -0.0380
vn 0.1724 -0.9392 0.2968
vn -0.2910 0.9544 0.0669
vn -0.1791 -0.9830 0.0399
vn -0.0378 0.9847 0.1701
vn 0.4182 -0.9033 -0.0956
vn -0.3013 -0.9485 0.0982
vn 0.5538 0.8130 -0.1795
vn -0.7355 0.6336 0.2401
vn -0.8278 0.4905 0.2722
vn 0.5834 0.8047 -0.1102
vn 0.4833 0.8593 -0.1674
vn -0.4064 0.9068 0.1118
vn -0.0880 0.9958 0.0239
vn -0.0945 0.9952 0.0272
vn -0.6152 -0.7621 0.2019
vn 0.9434 0.1026 -0.3154
vn -0.0996 0.9947 0.0251
vn 0.2906 0.9542 -0.0715
vn -0.3968 0.9146 0.0778
vn 0.0920 -0.9955 -0.0209
vn -0.9668 0.1991 0.1599
vn -0.1396 0.9894 0.0399
vn -0.4060 0.9038 0.1354
vn -0.1002 0.9947 0.0230
vn 0.8644 0.4564 -0.2109
vn -0.1720 0.9834 0.0585
vn -0.1472 0.9882 0.0412
vn 0.8313 -0.4789 -0.2821
vn 0.2942 0.9518 -0.0866
vn 0.1123 -0.9933 -0.0262
vt 0.595552 0.297322
vt 0.589171 0.310771
vt 0.589171 0.297185
vt 0.569312 0.321301
vt 0.570677 0.324555
vt 0.569312 0.326064
vt 0.588855 0.283918
vt 0.590342 0.280308
vt 0.590113 0.283943
vt 0.590239 0.281820
vt 0.596233 0.283597
vt 0.589917 0.284045
vt 0.569248 0.296188
vt 0.568752 0.310101
vt 0.568580 0.310194
vt 0.575928 0.309764
vt 0.577341 0.322585
vt 0.576186 0.324549
vt 0.575390 0.311426
vt 0.575906 0.310302
vt 0.577198 0.311042
vt 0.575906 0.321851
vt 0.574178 0.317253
vt 0.575400 0.317272
vt 0.584706 0.311375
vt 0.585723 0.316886
vt 0.584887 0.316930
vt 0.584619 0.321930
vt 0.583159 0.323361
vt 0.583603 0.322060
vt 0.594220 0.291388
vt 0.592884 0.301293
vt 0.592940 0.290505
vt 0.574245 0.292321
vt 0.580538 0.302731
vt 0.574417 0.303145
vt 0.590342 0.301193
vt 0.588886 0.299395
vt 0.590119 0.299102
vt 0.588983 0.286598
vt 0.590024 0.291480
vt 0.588785 0.292001
vt 0.586203 0.300917
vt 0.586330 0.296339
vt 0.586444 0.296338
vt 0.595209 0.310052
vt 0.596369 0.324449
vt 0.595028 0.309945
vt 0.595705 0.320240
vt 0.589171 0.324553
vt 0.589171 0.320187
vt 0.589917 0.318706
vt 0.590762 0.315705
vt 0.590803 0.319146
vt 0.585730 0.309638
vt 0.582848 0.310335
vt 0.582820 0.309624
vt 0.574421 0.304453
vt 0.575933 0.303588
vt 0.576360 0.304462
vt 0.574400 0.309584
vt 0.574039 0.305880
vt 0.574414 0.306078
vt 0.585751 0.304506
vt 0.586050 0.305772
vt 0.585744 0.306132
vt 0.582875 0.303621
vt 0.586318 0.303637
vt 0.582205 0.304490
vt 0.582526 0.303619
vt 0.582523 0.304491
vt 0.578280 0.309602
vt 0.582150 0.310331
vt 0.577978 0.310312
vt 0.582499 0.310333
vt 0.582502 0.309622
vt 0.589782 0.324159
vt 0.588893 0.319134
vt 0.589782 0.316956
vt 0.582061 0.306118
vt 0.582590 0.306523
vt 0.579180 0.320189
vt 0.587739 0.324553
vt 0.579180 0.324554
vt 0.588455 0.320188
vt 0.588455 0.324553
vt 0.573642 0.300982
vt 0.573806 0.303136
vt 0.573746 0.303246
vt 0.588407 0.281048
vt 0.595801 0.281035
vt 0.588407 0.281409
vt 0.588853 0.284445
vt 0.590111 0.284452
vt 0.590116 0.314210
vt 0.588901 0.316626
vt 0.588886 0.313953
vt 0.581122 0.292378
vt 0.582507 0.301839
vt 0.581291 0.302152
vt 0.590342 0.279989
vt 0.591588 0.291545
vt 0.590362 0.291999
vt 0.590241 0.286588
vt 0.579029 0.322358
vt 0.582461 0.323357
vt 0.577925 0.323550
vt 0.582481 0.322148
vt 0.582810 0.323359
vt 0.586291 0.310351
vt 0.582527 0.310821
vt 0.588676 0.281820
vt 0.579180 0.283599
vt 0.578591 0.281374
vt 0.589457 0.281820
vt 0.589201 0.284046
vt 0.587739 0.297185
vt 0.579180 0.310773
vt 0.579180 0.297186
vt 0.588455 0.310772
vt 0.588455 0.297185
vt 0.587739 0.310772
vt 0.592884 0.287256
vt 0.591990 0.286580
vt 0.592884 0.286605
vt 0.591982 0.315897
vt 0.592884 0.308199
vt 0.592884 0.315732
vt 0.574225 0.303896
vt 0.592884 0.285954
vt 0.591990 0.280640
vt 0.592884 0.279989
vt 0.582176 0.303324
vt 0.582525 0.303142
vt 0.582526 0.303323
vt 0.587517 0.309049
vt 0.588785 0.318782
vt 0.587496 0.319954
vt 0.574733 0.306056
vt 0.576563 0.304609
vt 0.576557 0.306119
vt 0.585420 0.306107
vt 0.583045 0.304640
vt 0.585426 0.304651
vt 0.582191 0.309291
vt 0.582619 0.306719
vt 0.582509 0.309292
vt 0.585407 0.309306
vt 0.583038 0.306315
vt 0.574831 0.308503
vt 0.576582 0.309264
vt 0.588886 0.327150
vt 0.588886 0.324160
vt 0.589311 0.322178
vt 0.590214 0.316888
vt 0.590214 0.321772
vt 0.592542 0.316047
vt 0.593465 0.319018
vt 0.592593 0.319401
vt 0.591504 0.310073
vt 0.590579 0.307096
vt 0.591504 0.306734
vt 0.590579 0.316658
vt 0.590579 0.310085
vt 0.589878 0.319540
vt 0.590739 0.319981
vt 0.576340 0.309593
vt 0.591965 0.299301
vt 0.592884 0.300957
vt 0.591889 0.300378
vt 0.582826 0.309294
vt 0.591990 0.285929
vt 0.587739 0.320188
vt 0.588485 0.284046
vt 0.582783 0.310822
vt 0.582224 0.322147
vt 0.590162 0.303502
vt 0.588956 0.302383
vt 0.580617 0.292374
vt 0.588928 0.303993
vt 0.588931 0.303484
vt 0.595270 0.285237
vt 0.595920 0.280812
vt 0.582834 0.306118
vt 0.582840 0.304493
vt 0.582185 0.309621
vt 0.567446 0.283216
vt 0.570577 0.281951
vt 0.571008 0.282815
vt 0.566872 0.293507
vt 0.567568 0.293074
vt 0.585500 0.292428
vt 0.584541 0.302297
vt 0.584926 0.292410
vt 0.570556 0.303536
vt 0.568261 0.302243
vt 0.571000 0.302652
vt 0.581706 0.282024
vt 0.585359 0.282310
vt 0.584712 0.284092
vt 0.580153 0.282430
vt 0.581204 0.281160
vt 0.581343 0.282606
vt 0.582114 0.303063
vt 0.585109 0.303190
vt 0.581034 0.303623
vt 0.581713 0.281165
vt 0.581628 0.292382
vt 0.587930 0.326062
vt 0.580340 0.285946
vt 0.589876 0.286701
vt 0.580340 0.286728
vt 0.577506 0.281048
vt 0.572866 0.281406
vt 0.572867 0.281048
vt 0.585525 0.289905
vt 0.595187 0.289076
vt 0.595188 0.289857
vt 0.582875 0.303321
vt 0.586328 0.303083
vt 0.586399 0.303189
vt 0.594220 0.319871
vt 0.596908 0.323736
vt 0.594220 0.323736
vt 0.576074 0.295054
vt 0.577227 0.285924
vt 0.577341 0.295391
vt 0.566452 0.295031
vt 0.575961 0.284727
vt 0.568599 0.281011
vt 0.568458 0.280811
vt 0.585522 0.288344
vt 0.585523 0.289125
vt 0.577537 0.324524
vt 0.572897 0.324198
vt 0.577536 0.324172
vt 0.595163 0.299952
vt 0.585500 0.300000
vt 0.588711 0.326062
vt 0.580340 0.285165
vt 0.589876 0.285919
vt 0.578591 0.326063
vt 0.580340 0.296066
vt 0.589876 0.296038
vt 0.577336 0.281607
vt 0.566447 0.279989
vt 0.576069 0.280012
vt 0.596209 0.324545
vt 0.589493 0.326061
vt 0.588652 0.315367
vt 0.589878 0.319599
vt 0.588652 0.319804
vt 0.582806 0.282996
vt 0.582457 0.283171
vt 0.582457 0.282997
vt 0.566564 0.324526
vt 0.566374 0.309732
vt 0.569312 0.296201
vt 0.570677 0.283601
vt 0.570677 0.297187
vt 0.577833 0.294829
vt 0.587495 0.279989
vt 0.587495 0.294829
vt 0.587626 0.281048
vt 0.587625 0.281423
vt 0.595163 0.280832
vt 0.595185 0.288295
vt 0.578004 0.303342
vt 0.575931 0.303173
vt 0.578004 0.303161
vt 0.577834 0.324721
vt 0.577834 0.319953
vt 0.592542 0.317420
vt 0.591538 0.315367
vt 0.592536 0.315368
vt 0.574928 0.324555
vt 0.573951 0.326064
vt 0.585510 0.304636
vt 0.595174 0.304587
vt 0.583155 0.282994
vt 0.586245 0.283007
vt 0.583156 0.283162
vt 0.580524 0.303619
vt 0.574323 0.281963
vt 0.579069 0.280972
vt 0.591990 0.294913
vt 0.591990 0.287231
vt 0.578443 0.309273
vt 0.581777 0.306403
vt 0.578387 0.304618
vt 0.582060 0.304635
vt 0.592884 0.319474
vt 0.591982 0.319877
vt 0.574928 0.310773
vt 0.574928 0.320189
vt 0.574928 0.297187
vt 0.574928 0.283600
vt 0.573951 0.281375
vt 0.577257 0.322123
vt 0.575809 0.323413
vt 0.590160 0.304029
vt 0.588958 0.310412
vt 0.572898 0.324524
vt 0.568620 0.324633
vt 0.578300 0.304471
vt 0.582177 0.303618
vt 0.590240 0.295087
vt 0.588923 0.295383
vt 0.571079 0.292294
vt 0.578841 0.310625
vt 0.581477 0.310733
vt 0.590342 0.298797
vt 0.589083 0.299102
vt 0.574117 0.310597
vt 0.570677 0.320190
vt 0.577920 0.282798
vt 0.575848 0.282977
vt 0.575803 0.282934
vt 0.574206 0.323353
vt 0.569312 0.281375
vt 0.570677 0.310774
vt 0.592884 0.323217
vt 0.591982 0.323856
vt 0.586087 0.300918
vt 0.585521 0.309271
vt 0.595184 0.309222
vt 0.580340 0.300704
vt 0.589876 0.305316
vt 0.580340 0.305343
vt 0.574116 0.304031
vt 0.574174 0.280832
vt 0.592884 0.295259
vt 0.591990 0.298729
vt 0.578381 0.306182
vt 0.590189 0.310596
vt 0.578005 0.303598
vt 0.583320 0.297877
vt 0.581898 0.298880
vt 0.581898 0.297882
vt 0.583320 0.298876
vt 0.589876 0.300677
vt 0.581792 0.323154
vt 0.579721 0.323665
vt 0.580627 0.322306
vt 0.581864 0.320992
vt 0.580559 0.320972
vt 0.577423 0.320898
vt 0.578512 0.322346
vt 0.577257 0.323057
vt 0.586505 0.320535
vt 0.585508 0.321860
vt 0.585507 0.320536
vt 0.585426 0.320999
vt 0.587067 0.318534
vt 0.586735 0.321013
vt 0.578802 0.325088
vt 0.571884 0.320142
vt 0.570358 0.321221
vt 0.571629 0.319178
vt 0.566872 0.320077
vt 0.568978 0.321307
vt 0.568005 0.321532
vt 0.568558 0.324188
vt 0.567847 0.326728
vt 0.566872 0.326941
vt 0.570480 0.324003
vt 0.569552 0.323722
vt 0.588652 0.320945
vt 0.587067 0.318660
vt 0.588454 0.318743
vt 0.586506 0.318940
vt 0.585508 0.318940
vt 0.578366 0.319178
vt 0.578726 0.321026
vt 0.581117 0.319178
vt 0.579721 0.319507
vt 0.592536 0.319372
vt 0.591544 0.317419
vt 0.593465 0.316808
vt 0.594174 0.315402
vt 0.594174 0.316843
vt 0.588652 0.315722
vt 0.585426 0.315728
vt 0.586776 0.315367
vt 0.570990 0.326301
vt 0.586868 0.279805
vt 0.580343 0.277484
vt 0.589880 0.277457
vt 0.583348 0.284252
vt 0.589876 0.285138
vt 0.583348 0.279815
vt 0.586868 0.284242
vt 0.582016 0.308072
vt 0.585215 0.304031
vt 0.585215 0.308063
vt 0.583038 0.322507
vt 0.584275 0.319116
vt 0.584275 0.322358
vt 0.594181 0.321799
vt 0.592953 0.317563
vt 0.594181 0.317361
vt 0.585507 0.322493
vt 0.584275 0.319128
vt 0.585507 0.318940
vt 0.585612 0.312877
vt 0.577855 0.309049
vt 0.585612 0.316746
vt 0.579399 0.316745
vt 0.579399 0.312877
vt 0.594220 0.307887
vt 0.590352 0.301675
vt 0.594220 0.301675
vt 0.577257 0.325317
vt 0.574570 0.319178
vt 0.577257 0.319185
vt 0.582738 0.315367
vt 0.585426 0.319231
vt 0.582738 0.319229
vt 0.571884 0.325391
vt 0.574570 0.319185
vt 0.574570 0.325399
vt 0.573642 0.317014
vt 0.586049 0.317000
vt 0.586062 0.323455
vt 0.575805 0.323753
vt 0.575931 0.303351
vt 0.573746 0.303456
vt 0.573906 0.310608
vt 0.590576 0.300500
vt 0.590973 0.304894
vt 0.590480 0.305171
vt 0.583155 0.323701
vt 0.586318 0.323780
vt 0.582806 0.323699
vt 0.582016 0.315298
vt 0.582550 0.308244
vt 0.582550 0.315305
vt 0.582016 0.316730
vt 0.582550 0.316021
vt 0.582550 0.316737
vt 0.573642 0.305716
vt 0.590898 0.291103
vt 0.591063 0.300491
vt 0.582016 0.316014
vt 0.590411 0.285926
vt 0.588402 0.324085
vt 0.587615 0.324782
vt 0.587620 0.324085
vt 0.577373 0.319954
vt 0.565964 0.295036
vt 0.566338 0.284704
vt 0.589178 0.324782
vt 0.588397 0.324782
vt 0.568495 0.324822
vt 0.572893 0.325222
vt 0.568254 0.325222
vt 0.590411 0.285145
vt 0.590396 0.305089
vt 0.590411 0.300684
vt 0.565951 0.280263
vt 0.565851 0.284710
vt 0.590399 0.277628
vt 0.565814 0.309562
vt 0.577341 0.280362
vt 0.577357 0.295015
vt 0.596494 0.324667
vt 0.589183 0.324085
vt 0.577341 0.324444
vt 0.582457 0.323697
vt 0.582550 0.325295
vt 0.582016 0.325288
vt 0.577532 0.325222
vt 0.590411 0.296045
vt 0.590411 0.286708
vt 0.577921 0.323890
vt 0.582550 0.329546
vt 0.582016 0.329539
vt 0.569516 0.323192
vt 0.595171 0.282033
vt 0.588087 0.281931
vt 0.594262 0.297686
vt 0.593900 0.294492
vt 0.594392 0.293455
vt 0.591517 0.308297
vt 0.592086 0.317057
vt 0.591519 0.317635
vt 0.591517 0.307516
vt 0.592075 0.307067
vt 0.592084 0.307784
vt 0.594392 0.308012
vt 0.593747 0.298944
vt 0.592085 0.308500
vt 0.588146 0.322887
vt 0.587619 0.323733
vt 0.587430 0.322887
vt 0.589782 0.327870
vt 0.590343 0.318137
vt 0.590331 0.328183
vt 0.588862 0.322902
vt 0.588401 0.323733
vt 0.578128 0.323326
vt 0.595200 0.323190
vt 0.594542 0.309377
vt 0.589182 0.323754
vt 0.568903 0.285291
vt 0.569486 0.282035
vt 0.569396 0.286442
vt 0.573876 0.323336
vt 0.592081 0.321308
vt 0.591504 0.322274
vt 0.582807 0.283170
vt 0.582874 0.303145
vt 0.573642 0.289678
vt 0.573723 0.283060
vt 0.573726 0.289726
vt 0.568656 0.285297
vt 0.586844 0.281423
vt 0.586844 0.281048
vt 0.585956 0.289742
vt 0.586049 0.289695
vt 0.577921 0.282973
vt 0.573660 0.282964
vt 0.582176 0.303143
vt 0.569468 0.296191
vt 0.575932 0.303351
vt 0.595568 0.295566
vt 0.595037 0.285240
vt 0.573906 0.296090
vt 0.573751 0.300983
vt 0.577505 0.281423
vt 0.586317 0.282915
vt 0.574013 0.296091
vt 0.593791 0.321893
vt 0.593885 0.308333
vt 0.569457 0.309522
vt 0.577394 0.309049
vt 0.566069 0.324164
vt 0.590411 0.291111
vt 0.591063 0.277642
vt 0.573662 0.323724
vt 0.588785 0.295757
vt 0.588785 0.309357
vt 0.567861 0.302969
vt 0.591569 0.301006
vt 0.590342 0.301396
vt 0.595805 0.295564
vt 0.594120 0.279989
vt 0.592884 0.280380
vt 0.577195 0.308862
vt 0.596233 0.310771
vt 0.589085 0.279989
vt 0.597721 0.281541
vt 0.594121 0.301675
vt 0.589878 0.315367
vt 0.590132 0.316956
vt 0.591570 0.280373
vt 0.591982 0.307887
vt 0.574738 0.304601
vt 0.589782 0.327499
vt 0.589311 0.316208
vt 0.593465 0.315367
vt 0.591504 0.317274
vt 0.592884 0.299235
vt 0.566872 0.282352
vt 0.596908 0.319871
vt 0.597175 0.326054
vt 0.589878 0.315566
vt 0.577833 0.279989
vt 0.585500 0.280880
vt 0.587496 0.324722
vt 0.592884 0.299235
vt 0.580593 0.324750
vt 0.586506 0.321860
vt 0.585723 0.318615
vt 0.579721 0.324074
vt 0.571249 0.321624
vt 0.567306 0.319178
vt 0.569552 0.324092
vt 0.587293 0.320953
vt 0.579721 0.319664
vt 0.591538 0.319371
vt 0.593465 0.315367
vt 0.587271 0.315367
vt 0.571884 0.326694
vt 0.582016 0.304040
vt 0.583038 0.318940
vt 0.592953 0.321596
vt 0.584275 0.322356
vt 0.590352 0.307887
vt 0.574570 0.325309
vt 0.585426 0.315369
vt 0.571884 0.319178
vt 0.582031 0.308072
vt 0.596660 0.325058
vt 0.573846 0.281934
vt 0.594295 0.322426
vt 0.569982 0.296475
vt 0.590478 0.277457
s 0
usemtl Material
f 282/1/1 23/2/1 288/3/1
f 203/4/2 14/5/2 106/6/2
f 29/7/3 78/8/3 86/9/3
f 116/10/4 2/11/4 22/12/4
f 229/13/5 312/14/5 308/15/5
f 298/16/6 2/17/6 104/18/6
f 7/19/7 148/20/7 150/21/7
f 5/22/8 283/23/8 285/24/8
f 8/25/9 284/26/9 286/27/9
f 6/28/10 219/29/10 31/30/10
f 286/31/11 84/32/11 292/33/11
f 302/34/12 91/35/12 142/36/12
f 31/37/13 84/38/13 6/39/13
f 30/40/14 140/41/14 128/42/14
f 43/43/15 246/44/15 211/45/15
f 307/46/16 262/47/16 311/48/16
f 44/49/17 33/50/17 50/51/17
f 47/52/18 60/53/18 61/54/18
f 9/55/19 25/56/19 37/57/19
f 15/58/19 214/59/19 155/60/19
f 10/61/20 216/62/20 45/63/20
f 16/64/21 217/65/21 46/66/21
f 16/64/19 222/67/19 19/68/19
f 40/69/19 223/70/19 72/71/19
f 132/72/22 26/73/22 126/74/22
f 37/57/22 65/75/22 71/76/22
f 45/77/23 52/78/23 10/79/23
f 48/80/24 72/71/24 74/81/24
f 135/82/25 34/83/25 130/84/25
f 73/85/25 33/50/25 69/86/25
f 42/87/26 263/88/26 20/89/26
f 236/90/27 249/91/27 253/92/27
f 67/93/28 86/9/28 93/94/28
f 151/95/29 82/96/29 160/97/29
f 296/98/30 90/99/30 95/100/30
f 7/101/31 290/102/31 285/103/31
f 30/40/32 93/94/32 87/104/32
f 129/105/33 221/106/33 241/107/33
f 68/108/34 219/29/34 220/109/34
f 8/25/35 25/56/35 17/110/35
f 67/111/22 26/73/22 65/75/22
f 114/112/36 134/113/36 144/114/36
f 122/115/37 22/12/37 63/116/37
f 287/117/25 125/118/25 301/119/25
f 288/3/25 64/120/25 289/121/25
f 23/2/25 73/85/25 64/120/25
f 24/122/25 135/82/25 125/118/25
f 38/123/38 75/124/38 71/125/38
f 133/126/39 53/127/39 137/128/39
f 9/55/40 217/65/40 17/110/40
f 15/58/41 216/62/41 215/129/41
f 37/130/38 58/131/38 9/132/38
f 23/2/17 44/49/17 50/51/17
f 36/133/42 258/134/42 70/135/42
f 202/136/43 41/137/43 203/138/43
f 55/139/19 158/140/19 166/141/19
f 56/142/19 60/143/19 57/144/19
f 51/145/44 76/146/44 75/147/44
f 58/148/19 61/149/19 56/142/19
f 52/150/45 166/141/45 157/151/45
f 45/77/46 54/152/46 55/153/46
f 39/154/39 57/155/39 60/156/39
f 48/157/47 53/158/47 40/159/47
f 46/160/48 57/161/48 16/162/48
f 46/160/48 58/163/48 56/164/48
f 74/165/49 61/54/49 76/166/49
f 154/167/50 52/150/50 157/151/50
f 74/168/51 62/169/51 48/170/51
f 59/171/52 76/146/52 61/149/52
f 71/125/38 59/172/38 37/130/38
f 64/120/25 49/173/25 24/122/25
f 287/117/25 64/120/25 24/122/25
f 114/112/37 63/116/37 21/174/37
f 29/175/22 65/75/22 25/56/22
f 68/108/34 221/106/34 32/176/34
f 68/177/53 89/178/53 31/37/53
f 295/179/54 95/100/54 91/35/54
f 68/177/55 92/180/55 96/181/55
f 232/182/56 249/91/56 239/183/56
f 73/85/25 34/83/25 49/173/25
f 47/184/19 72/71/19 39/185/19
f 38/186/19 65/75/19 26/73/19
f 39/185/19 223/70/19 222/67/19
f 79/187/57 167/188/57 159/189/57
f 290/190/58 79/187/58 291/191/58
f 292/192/59 83/193/59 293/194/59
f 160/195/60 81/196/60 168/197/60
f 85/198/61 78/199/61 77/200/61
f 88/201/62 93/202/62 94/203/62
f 89/204/63 83/193/63 84/205/63
f 96/206/64 91/35/64 95/100/64
f 85/198/65 93/202/65 86/207/65
f 89/204/66 95/100/66 90/99/66
f 293/194/67 90/99/67 294/208/67
f 69/86/68 109/209/68 34/83/68
f 123/210/69 110/211/69 109/212/69
f 170/213/70 277/214/70 172/215/70
f 113/216/71 122/217/71 114/218/71
f 35/219/72 250/220/72 218/221/72
f 97/222/25 208/223/25 120/224/25
f 99/225/73 44/226/73 4/227/73
f 100/228/74 118/229/74 99/225/74
f 172/215/75 264/230/75 238/231/75
f 115/232/71 122/217/71 121/233/71
f 143/234/76 280/235/76 274/236/76
f 113/216/77 144/237/77 243/238/77
f 33/50/78 123/239/78 69/86/78
f 195/240/69 124/241/69 123/210/69
f 130/84/68 109/209/68 169/242/68
f 169/243/69 110/211/69 244/244/69
f 118/229/79 13/245/79 44/226/79
f 118/229/80 194/246/80 193/247/80
f 13/248/81 195/249/81 33/50/81
f 107/250/82 199/251/82 111/252/82
f 66/253/83 265/254/83 28/255/83
f 298/16/84 103/256/84 297/257/84
f 299/258/2 1/259/2 281/260/2
f 300/261/85 101/262/85 299/263/85
f 225/264/86 253/92/86 257/265/86
f 115/232/87 104/266/87 116/267/87
f 131/268/88 278/269/88 276/270/88
f 203/138/85 105/271/85 204/272/85
f 186/273/89 176/274/89 174/275/89
f 152/276/68 169/242/68 171/277/68
f 234/278/71 144/237/71 162/279/71
f 27/280/90 261/281/90 267/282/90
f 92/283/91 142/36/91 91/35/91
f 139/284/92 87/285/92 88/201/92
f 38/123/38 136/286/38 51/287/38
f 136/288/93 62/289/93 51/145/93
f 62/289/94 137/290/94 53/291/94
f 133/126/39 158/292/39 155/293/39
f 147/294/25 135/82/25 156/295/25
f 304/296/25 125/118/25 147/294/25
f 144/114/37 165/297/37 162/298/37
f 151/299/95 241/107/95 213/300/95
f 32/301/96 141/302/96 92/180/96
f 161/303/97 247/304/97 280/235/97
f 156/295/25 130/84/25 152/276/25
f 154/167/19 126/74/19 148/20/19
f 133/305/19 224/306/19 40/69/19
f 128/42/98 167/307/98 150/308/98
f 302/34/19 168/197/19 303/309/19
f 128/310/99 26/73/99 30/311/99
f 291/191/100 168/197/100 81/196/100
f 150/308/101 80/312/101 7/313/101
f 10/61/102 148/20/102 210/314/102
f 41/315/25 152/276/25 14/5/25
f 127/316/103 279/317/103 149/318/103
f 5/22/104 213/300/104 209/319/104
f 162/298/37 1/259/37 101/320/37
f 281/260/25 147/294/25 3/321/25
f 147/294/25 41/315/25 3/321/25
f 155/293/39 54/322/39 15/323/39
f 43/43/105 250/220/105 269/324/105
f 102/325/106 162/279/106 101/326/106
f 14/5/68 171/277/68 106/6/68
f 171/327/69 105/328/69 106/329/69
f 141/330/107 168/197/107 142/36/107
f 159/189/108 140/331/108 139/284/108
f 132/332/38 157/333/38 136/286/38
f 157/151/19 138/334/19 136/288/19
f 166/141/19 137/290/19 138/334/19
f 129/335/109 160/97/109 141/302/109
f 155/60/19 242/336/19 133/305/19
f 150/21/110 126/74/110 128/310/110
f 146/337/69 169/243/69 244/244/69
f 163/338/69 169/243/69 145/339/69
f 164/340/69 244/244/69 237/341/69
f 164/340/69 171/327/69 163/338/69
f 174/342/111 177/343/111 173/344/111
f 186/345/112 173/344/112 187/346/112
f 185/347/85 175/348/85 176/349/85
f 187/350/113 175/351/113 188/352/113
f 179/353/114 184/354/114 180/355/114
f 175/348/115 180/356/115 176/349/115
f 173/357/116 179/358/116 175/359/116
f 174/360/117 180/361/117 178/362/117
f 182/363/118 192/364/118 190/365/118
f 179/358/119 181/366/119 183/367/119
f 180/361/120 182/363/120 178/362/120
f 177/368/121 182/369/121 181/370/121
f 145/371/122 188/352/122 163/372/122
f 164/373/123 188/374/123 185/347/123
f 146/375/112 187/346/112 145/376/112
f 146/377/124 185/378/124 186/273/124
f 189/379/125 192/380/125 191/381/125
f 182/369/126 189/382/126 181/370/126
f 184/354/127 191/383/127 192/384/127
f 181/366/128 191/385/128 183/367/128
f 108/386/129 193/387/129 194/388/129
f 111/389/69 196/390/69 195/240/69
f 107/391/130 195/240/130 193/387/130
f 108/386/131 196/390/131 112/392/131
f 199/393/69 198/394/69 200/395/69
f 107/396/132 198/397/132 197/398/132
f 112/399/133 198/400/133 108/401/133
f 111/402/134 200/403/134 112/404/134
f 98/405/135 201/406/135 202/136/135
f 119/407/85 204/272/85 120/408/85
f 97/409/136 204/272/136 201/406/136
f 98/405/85 203/138/85 119/407/85
f 206/410/85 208/411/85 205/412/85
f 98/413/69 205/414/69 97/415/69
f 119/416/19 206/417/19 98/418/19
f 119/419/71 208/420/71 207/421/71
f 305/422/137 210/314/137 283/23/137
f 306/423/138 212/424/138 284/26/138
f 149/425/139 209/319/139 213/300/139
f 153/426/140 215/129/140 20/427/140
f 18/428/141 216/62/141 210/314/141
f 43/429/142 19/430/142 218/431/142
f 27/432/143 212/424/143 12/433/143
f 66/434/144 221/106/144 220/109/144
f 35/435/145 19/436/145 222/437/145
f 36/438/145 223/439/145 224/440/145
f 42/441/146 215/129/146 216/62/146
f 43/429/147 17/442/147 217/443/147
f 66/434/144 219/29/144 27/432/144
f 70/444/145 222/437/145 223/439/145
f 225/445/145 110/211/145 124/241/145
f 227/446/144 113/447/144 228/448/144
f 230/449/148 201/406/148 204/272/148
f 231/450/149 117/451/149 100/228/149
f 227/446/144 115/452/144 121/453/144
f 235/454/150 234/455/150 102/456/150
f 236/457/145 124/241/145 196/390/145
f 238/458/151 237/341/151 172/459/151
f 239/460/152 117/451/152 232/461/152
f 239/462/153 196/390/153 194/388/153
f 307/463/154 100/228/154 297/257/154
f 235/464/155 300/261/155 308/465/155
f 240/466/156 115/452/156 233/467/156
f 238/468/157 204/272/157 105/271/157
f 28/469/158 241/107/158 221/106/158
f 36/438/145 242/470/145 131/471/145
f 143/234/159 113/447/159 243/472/159
f 170/473/145 110/211/145 226/474/145
f 149/425/160 241/107/160 127/475/160
f 131/471/145 214/476/145 153/477/145
f 143/234/144 234/455/144 161/303/144
f 172/459/145 244/244/145 170/473/145
f 312/14/161 248/478/161 247/304/161
f 253/92/162 250/479/162 254/480/162
f 270/481/163 250/482/163 249/483/163
f 251/484/145 276/485/145 275/486/145
f 257/487/164 254/488/164 258/489/164
f 245/490/165 269/491/165 270/481/165
f 251/484/145 258/489/145 252/492/145
f 271/493/144 266/494/144 265/495/144
f 260/496/166 256/497/166 259/498/166
f 267/499/167 272/500/167 271/493/167
f 273/501/168 266/494/168 274/236/168
f 311/48/169 261/502/169 310/503/169
f 261/502/170 268/504/170 267/499/170
f 255/505/171 263/506/171 256/507/171
f 279/508/172 274/236/172 280/235/172
f 275/486/173 278/509/173 277/510/173
f 277/214/174 263/506/174 264/230/174
f 248/478/175 280/235/175 247/304/175
f 66/253/176 267/282/176 271/511/176
f 233/467/177 262/47/177 240/466/177
f 70/135/178 254/512/178 35/219/178
f 305/513/179 248/514/179 309/515/179
f 230/516/180 264/230/180 255/505/180
f 225/264/181 251/517/181 226/518/181
f 211/45/182 310/519/182 306/520/182
f 28/255/183 273/521/183 127/316/183
f 228/448/184 272/500/184 227/446/184
f 149/318/185 248/514/185 11/522/185
f 36/133/42 276/270/42 252/523/42
f 229/13/186 255/505/186 260/524/186
f 153/525/187 263/88/187 278/269/187
f 228/448/188 274/236/188 266/494/188
f 232/182/189 245/526/189 270/527/189
f 18/528/190 256/529/190 42/87/190
f 170/213/181 251/517/181 275/530/181
f 227/446/191 268/504/191 233/467/191
f 306/520/192 261/281/192 12/531/192
f 18/528/193 309/515/193 259/532/193
f 245/490/194 310/533/194 246/534/194
f 260/524/195 309/535/195 312/14/195
f 308/465/196 201/406/196 229/536/196
f 240/537/197 297/257/197 103/256/197
f 211/538/198 284/539/198 17/442/198
f 305/422/199 209/319/199 11/540/199
f 1/259/25 304/296/25 281/260/25
f 79/187/200 303/309/200 291/191/200
f 159/189/201 302/34/201 303/309/201
f 134/113/25 304/296/25 165/297/25
f 201/406/202 299/263/202 202/136/202
f 202/136/203 281/541/203 3/542/203
f 100/228/204 298/16/204 297/257/204
f 77/200/205 294/208/205 85/198/205
f 292/192/206 77/200/206 78/199/206
f 290/190/207 81/196/207 82/543/207
f 94/203/208 295/179/208 88/201/208
f 21/174/209 289/121/209 287/117/209
f 63/116/209 288/3/209 289/121/209
f 134/113/25 287/117/25 301/119/25
f 285/103/210 82/544/210 5/545/210
f 94/203/211 294/208/211 296/98/211
f 231/546/212 311/48/212 245/526/212
f 88/201/213 302/34/213 139/284/213
f 8/547/214 292/33/214 78/548/214
f 6/28/215 284/26/215 212/424/215
f 7/19/216 283/23/216 210/314/216
f 99/225/217 282/549/217 298/16/217
f 308/15/218 247/304/218 235/454/218
f 22/12/219 282/1/219 288/3/219
f 282/1/220 4/550/220 23/2/220
f 203/4/2 41/315/2 14/5/2
f 29/7/221 8/551/221 78/8/221
f 116/10/222 104/552/222 2/11/222
f 229/13/223 260/524/223 312/14/223
f 298/16/224 282/549/224 2/17/224
f 7/19/225 210/314/225 148/20/225
f 5/22/226 209/319/226 283/23/226
f 8/25/227 17/110/227 284/26/227
f 6/28/228 212/424/228 219/29/228
f 286/31/229 6/553/229 84/32/229
f 302/34/19 295/179/19 91/35/19
f 31/37/230 89/178/230 84/38/230
f 30/40/231 87/104/231 140/41/231
f 43/43/232 269/324/232 246/44/232
f 307/46/233 240/466/233 262/47/233
f 44/49/234 13/248/234 33/50/234
f 47/52/18 39/554/18 60/53/18
f 9/55/19 17/110/19 25/56/19
f 15/58/235 215/129/235 214/59/235
f 10/61/236 210/314/236 216/62/236
f 16/64/237 19/68/237 217/65/237
f 16/64/22 39/185/22 222/67/22
f 40/69/19 224/306/19 223/70/19
f 132/72/19 38/186/19 26/73/19
f 37/57/19 25/56/19 65/75/19
f 45/77/238 55/153/238 52/78/238
f 48/80/239 40/69/239 72/71/239
f 135/82/25 49/173/25 34/83/25
f 73/85/25 50/51/25 33/50/25
f 42/87/190 256/529/190 263/88/190
f 236/90/240 239/183/240 249/91/240
f 67/93/28 29/7/28 86/9/28
f 151/95/241 5/555/241 82/96/241
f 296/98/67 294/208/67 90/99/67
f 7/101/242 80/556/242 290/102/242
f 30/40/243 67/93/243 93/94/243
f 129/105/244 32/176/244 221/106/244
f 68/108/245 31/30/245 219/29/245
f 8/25/246 29/175/246 25/56/246
f 67/111/247 30/311/247 26/73/247
f 114/112/248 21/174/248 134/113/248
f 122/115/37 116/10/37 22/12/37
f 287/117/25 24/122/25 125/118/25
f 288/3/25 23/2/25 64/120/25
f 23/2/25 50/51/25 73/85/25
f 24/122/25 49/173/25 135/82/25
f 38/123/38 51/287/38 75/124/38
f 133/126/39 40/557/39 53/127/39
f 9/55/21 46/66/21 217/65/21
f 15/58/20 45/63/20 216/62/20
f 37/130/38 59/172/38 58/131/38
f 23/2/249 4/550/249 44/49/249
f 36/133/42 252/523/42 258/134/42
f 202/136/203 3/542/203 41/137/203
f 55/139/19 54/558/19 158/140/19
f 56/142/19 61/149/19 60/143/19
f 51/145/250 62/289/250 76/146/250
f 58/148/19 59/171/19 61/149/19
f 52/150/251 55/139/251 166/141/251
f 45/77/46 15/559/46 54/152/46
f 39/154/39 16/560/39 57/155/39
f 48/157/252 62/561/252 53/158/252
f 46/160/48 56/164/48 57/161/48
f 46/160/48 9/562/48 58/163/48
f 74/165/253 47/52/253 61/54/253
f 154/167/254 10/61/254 52/150/254
f 74/168/255 76/563/255 62/169/255
f 59/171/44 75/147/44 76/146/44
f 71/125/38 75/124/38 59/172/38
f 64/120/25 73/85/25 49/173/25
f 287/117/25 289/121/25 64/120/25
f 114/112/37 122/115/37 63/116/37
f 29/175/19 67/111/19 65/75/19
f 68/108/34 220/109/34 221/106/34
f 68/177/256 96/181/256 89/178/256
f 295/179/257 296/98/257 95/100/257
f 68/177/258 32/301/258 92/180/258
f 232/182/259 270/527/259 249/91/259
f 73/85/25 69/86/25 34/83/25
f 47/184/260 74/81/260 72/71/260
f 38/186/19 71/76/19 65/75/19
f 39/185/19 72/71/19 223/70/19
f 79/187/261 80/564/261 167/188/261
f 290/190/262 80/564/262 79/187/262
f 292/192/263 84/205/263 83/193/263
f 160/195/264 82/543/264 81/196/264
f 85/198/265 86/207/265 78/199/265
f 88/201/266 87/285/266 93/202/266
f 89/204/267 90/99/267 83/193/267
f 96/206/268 92/283/268 91/35/268
f 85/198/269 94/203/269 93/202/269
f 89/204/270 96/206/270 95/100/270
f 293/194/271 83/193/271 90/99/271
f 69/86/78 123/239/78 109/209/78
f 123/210/69 124/241/69 110/211/69
f 170/213/272 275/530/272 277/214/272
f 113/216/71 121/233/71 122/217/71
f 35/219/273 254/512/273 250/220/273
f 97/222/25 205/565/25 208/223/25
f 99/225/274 118/229/274 44/226/274
f 100/228/74 117/451/74 118/229/74
f 172/215/275 277/214/275 264/230/275
f 115/232/71 116/267/71 122/217/71
f 143/234/276 161/303/276 280/235/276
f 113/216/77 114/218/77 144/237/77
f 33/50/68 195/249/68 123/239/68
f 195/240/69 196/390/69 124/241/69
f 130/84/68 34/83/68 109/209/68
f 169/243/69 109/212/69 110/211/69
f 118/229/277 193/247/277 13/245/277
f 118/229/80 117/451/80 194/246/80
f 13/248/278 193/566/278 195/249/278
f 107/250/82 197/567/82 199/251/82
f 66/253/83 271/511/83 265/254/83
f 298/16/279 104/18/279 103/256/279
f 299/258/2 101/320/2 1/259/2
f 300/261/85 102/568/85 101/262/85
f 225/264/280 236/90/280 253/92/280
f 115/232/87 103/569/87 104/266/87
f 131/268/281 153/525/281 278/269/281
f 203/138/85 106/570/85 105/271/85
f 186/273/89 185/378/89 176/274/89
f 152/276/68 130/84/68 169/242/68
f 234/278/71 243/238/71 144/237/71
f 27/280/282 12/531/282 261/281/282
f 92/283/283 141/330/283 142/36/283
f 139/284/284 140/331/284 87/285/284
f 38/123/38 132/332/38 136/286/38
f 136/288/285 138/334/285 62/289/285
f 62/289/286 138/334/286 137/290/286
f 133/126/39 137/128/39 158/292/39
f 147/294/25 125/118/25 135/82/25
f 304/296/25 301/119/25 125/118/25
f 144/114/37 134/113/37 165/297/37
f 151/299/287 129/105/287 241/107/287
f 32/301/288 129/335/288 141/302/288
f 161/303/289 235/454/289 247/304/289
f 156/295/25 135/82/25 130/84/25
f 154/167/19 132/72/19 126/74/19
f 133/305/19 242/336/19 224/306/19
f 128/42/290 140/41/290 167/307/290
f 302/34/291 142/36/291 168/197/291
f 128/310/292 126/74/292 26/73/292
f 291/191/293 303/309/293 168/197/293
f 150/308/294 167/307/294 80/312/294
f 10/61/19 154/167/19 148/20/19
f 41/315/25 156/295/25 152/276/25
f 127/316/295 273/521/295 279/317/295
f 5/22/296 151/299/296 213/300/296
f 162/298/297 165/297/297 1/259/297
f 281/260/25 304/296/25 147/294/25
f 147/294/25 156/295/25 41/315/25
f 155/293/39 158/292/39 54/322/39
f 43/43/298 218/221/298 250/220/298
f 102/325/71 234/278/71 162/279/71
f 14/5/68 152/276/68 171/277/68
f 171/327/69 237/341/69 105/328/69
f 141/330/299 160/195/299 168/197/299
f 159/189/300 167/188/300 140/331/300
f 132/332/38 154/571/38 157/333/38
f 157/151/19 166/141/19 138/334/19
f 166/141/19 158/140/19 137/290/19
f 129/335/301 151/95/301 160/97/301
f 155/60/19 214/59/19 242/336/19
f 150/21/302 148/20/302 126/74/302
f 146/337/69 145/339/69 169/243/69
f 163/338/131 171/327/131 169/243/131
f 164/340/131 146/337/131 244/244/131
f 164/340/69 237/341/69 171/327/69
f 174/342/303 178/572/303 177/343/303
f 186/345/112 174/342/112 173/344/112
f 185/347/85 188/374/85 175/348/85
f 187/350/113 173/573/113 175/351/113
f 179/353/304 183/574/304 184/354/304
f 175/348/305 179/575/305 180/356/305
f 173/357/306 177/576/306 179/358/306
f 174/360/307 176/577/307 180/361/307
f 182/363/308 184/578/308 192/364/308
f 179/358/309 177/576/309 181/366/309
f 180/361/310 184/578/310 182/363/310
f 177/368/311 178/579/311 182/369/311
f 145/371/122 187/350/122 188/352/122
f 164/373/85 163/580/85 188/374/85
f 146/375/112 186/345/112 187/346/112
f 146/377/124 164/581/124 185/378/124
f 189/379/125 190/582/125 192/380/125
f 182/369/312 190/583/312 189/382/312
f 184/354/313 183/574/313 191/383/313
f 181/366/314 189/584/314 191/385/314
f 108/386/129 107/391/129 193/387/129
f 111/389/69 112/392/69 196/390/69
f 107/391/69 111/389/69 195/240/69
f 108/386/315 194/388/315 196/390/315
f 199/393/69 197/585/69 198/394/69
f 107/396/132 108/586/132 198/397/132
f 112/399/133 200/587/133 198/400/133
f 111/402/134 199/588/134 200/403/134
f 98/405/135 97/409/135 201/406/135
f 119/407/85 203/138/85 204/272/85
f 97/409/85 120/408/85 204/272/85
f 98/405/316 202/136/316 203/138/316
f 206/410/85 207/589/85 208/411/85
f 98/413/69 206/590/69 205/414/69
f 119/416/19 207/591/19 206/417/19
f 119/419/71 120/592/71 208/420/71
f 305/422/317 18/428/317 210/314/317
f 306/423/318 12/433/318 212/424/318
f 149/425/319 11/540/319 209/319/319
f 153/426/320 214/59/320 215/129/320
f 18/428/321 42/441/321 216/62/321
f 43/429/322 217/443/322 19/430/322
f 27/432/323 219/29/323 212/424/323
f 66/434/144 28/469/144 221/106/144
f 35/435/324 218/593/324 19/436/324
f 36/438/145 70/444/145 223/439/145
f 42/441/325 20/427/325 215/129/325
f 43/429/147 211/538/147 17/442/147
f 66/434/144 220/109/144 219/29/144
f 70/444/145 35/435/145 222/437/145
f 225/445/145 226/474/145 110/211/145
f 227/446/144 121/453/144 113/447/144
f 230/449/148 229/536/148 201/406/148
f 231/450/149 232/461/149 117/451/149
f 227/446/144 233/467/144 115/452/144
f 235/454/326 161/303/326 234/455/326
f 236/457/145 225/445/145 124/241/145
f 238/458/327 105/328/327 237/341/327
f 239/460/328 194/246/328 117/451/328
f 239/462/329 236/457/329 196/390/329
f 307/463/330 231/450/330 100/228/330
f 235/464/331 102/568/331 300/261/331
f 240/466/332 103/594/332 115/452/332
f 238/468/333 230/449/333 204/272/333
f 28/469/158 127/475/158 241/107/158
f 36/438/145 224/440/145 242/470/145
f 143/234/159 228/448/159 113/447/159
f 170/473/145 244/244/145 110/211/145
f 149/425/160 213/300/160 241/107/160
f 131/471/145 242/470/145 214/476/145
f 143/234/144 243/472/144 234/455/144
f 172/459/145 237/341/145 244/244/145
f 312/14/334 309/535/334 248/478/334
f 253/92/335 249/91/335 250/479/335
f 270/481/336 269/491/336 250/482/336
f 251/484/145 252/492/145 276/485/145
f 257/487/337 253/162/337 254/488/337
f 245/490/338 246/534/338 269/491/338
f 251/484/145 257/487/145 258/489/145
f 271/493/144 272/500/144 266/494/144
f 260/496/339 255/79/339 256/497/339
f 267/499/340 268/504/340 272/500/340
f 273/501/341 265/495/341 266/494/341
f 311/48/342 262/47/342 261/502/342
f 261/502/343 262/47/343 268/504/343
f 255/505/344 264/230/344 263/506/344
f 279/508/345 273/501/345 274/236/345
f 275/486/145 276/485/145 278/509/145
f 277/214/346 278/595/346 263/506/346
f 248/478/347 279/508/347 280/235/347
f 66/253/348 27/280/348 267/282/348
f 233/467/349 268/504/349 262/47/349
f 70/135/350 258/134/350 254/512/350
f 305/513/351 11/522/351 248/514/351
f 230/516/352 238/231/352 264/230/352
f 225/264/181 257/265/181 251/517/181
f 211/45/353 246/44/353 310/519/353
f 28/255/183 265/254/183 273/521/183
f 228/448/184 266/494/184 272/500/184
f 149/318/354 279/317/354 248/514/354
f 36/133/42 131/268/42 276/270/42
f 229/13/355 230/516/355 255/505/355
f 153/525/356 20/89/356 263/88/356
f 228/448/188 143/234/188 274/236/188
f 232/182/357 231/546/357 245/526/357
f 18/528/358 259/532/358 256/529/358
f 170/213/181 226/518/181 251/517/181
f 227/446/359 272/500/359 268/504/359
f 306/520/360 310/519/360 261/281/360
f 18/528/361 305/513/361 309/515/361
f 245/490/362 311/596/362 310/533/362
f 260/524/363 259/597/363 309/535/363
f 308/465/364 300/261/364 201/406/364
f 240/537/365 307/463/365 297/257/365
f 211/538/366 306/598/366 284/539/366
f 305/422/367 283/23/367 209/319/367
f 1/259/25 165/297/25 304/296/25
f 79/187/368 159/189/368 303/309/368
f 159/189/369 139/284/369 302/34/369
f 134/113/25 301/119/25 304/296/25
f 201/406/202 300/261/202 299/263/202
f 202/136/370 299/263/370 281/541/370
f 100/228/371 99/225/371 298/16/371
f 77/200/372 293/194/372 294/208/372
f 292/192/373 293/194/373 77/200/373
f 290/190/374 291/191/374 81/196/374
f 94/203/211 296/98/211 295/179/211
f 21/174/209 63/116/209 289/121/209
f 63/116/209 22/12/209 288/3/209
f 134/113/375 21/174/375 287/117/375
f 285/103/376 290/102/376 82/544/376
f 94/203/377 85/198/377 294/208/377
f 231/546/378 307/46/378 311/48/378
f 88/201/379 295/179/379 302/34/379
f 8/547/380 286/31/380 292/33/380
f 6/28/381 286/27/381 284/26/381
f 7/19/382 285/24/382 283/23/382
f 99/225/383 4/227/383 282/549/383
f 308/15/384 312/14/384 247/304/384
f 22/12/385 2/11/385 282/1/385
