# Blender 4.2.1 LTS
# www.blender.org
mtllib bar_stool.mtl
g bar_stool_Mesh
v -0.002260 0.480843 -0.113259
v -0.002260 0.533583 -0.107856
v 0.078191 0.487229 -0.082170
v 0.074370 0.533583 -0.076114
v 0.111515 0.480843 0.000516
v 0.106112 0.533583 0.000516
v 0.085325 0.489778 0.077612
v 0.074370 0.533583 0.077146
v -0.002260 0.480843 0.114291
v -0.002260 0.510589 0.108887
v -0.082968 0.489478 0.078946
v -0.078890 0.503364 0.077146
v -0.116035 0.480843 0.000516
v -0.110631 0.506903 0.000516
v -0.082711 0.487229 -0.082170
v -0.087067 0.520537 -0.076103
v 0.043374 0.537075 -0.045826
v -0.011665 0.537075 -0.062986
v 0.058427 0.537075 0.005902
v 0.044536 0.537075 0.038142
v -0.001718 0.513632 0.057301
v -0.047205 0.513632 0.044399
v -0.063971 0.514998 0.002756
v -0.051788 0.523529 -0.045520
v -0.002260 0.472233 -0.037542
v 0.024651 0.472233 -0.026395
v 0.035798 0.472233 0.000516
v 0.024651 0.472233 0.027427
v -0.002260 0.472233 0.038573
v -0.029171 0.472233 0.027427
v -0.040317 0.472233 0.000516
v -0.029171 0.472233 -0.026395
v -0.002260 0.472233 -0.110678
v 0.076366 0.472233 -0.078110
v 0.108934 0.472233 0.000516
v 0.076366 0.472233 0.079142
v -0.002260 0.472233 0.111710
v -0.080886 0.472233 0.079142
v -0.113454 0.472233 0.000516
v -0.080886 0.472233 -0.078110
v 0.026955 0.444664 0.029731
v -0.043576 0.444664 0.000516
v 0.039056 0.444664 0.000516
v -0.031475 0.444664 -0.028699
v -0.002260 0.444504 -0.042875
v 0.026955 0.444664 -0.028699
v -0.002260 0.444664 0.041832
v -0.031475 0.444664 0.029731
v 0.027949 0.435868 0.027052
v -0.037461 0.435868 -0.000042
v 0.039172 0.435868 -0.000042
v -0.012849 0.435868 -0.013746
v 0.000855 0.435868 -0.019423
v 0.014560 0.435868 -0.013746
v 0.000855 0.435868 0.019339
v -0.012849 0.435868 0.013662
v 0.000855 0.435868 -0.038359
v 0.027949 0.435868 -0.027136
v 0.020236 0.435868 -0.000042
v 0.014560 0.435868 0.013662
v 0.000855 0.435868 0.038275
v -0.026239 0.435868 0.027052
v -0.018525 0.435868 -0.000042
v -0.026239 0.435868 -0.027136
v 0.014560 0.097157 0.013662
v -0.018525 0.097157 -0.000042
v 0.020236 0.097157 -0.000042
v -0.012849 0.097157 -0.013746
v 0.000855 0.097157 -0.019423
v 0.014560 0.097157 -0.013746
v 0.000855 0.097157 0.019339
v -0.012849 0.097157 0.013662
v 0.014560 0.081258 0.013662
v -0.018525 0.081258 -0.000042
v 0.020236 0.081258 -0.000042
v -0.012849 0.081258 -0.013746
v 0.000855 0.081258 -0.019423
v 0.014560 0.081258 -0.013746
v 0.000855 0.081258 0.019339
v -0.012849 0.081258 0.013662
v -0.064004 0.061067 -0.018880
v -0.064004 0.072716 -0.018880
v -0.058327 0.072716 -0.032584
v -0.058327 0.061067 -0.032584
v 0.019693 0.072716 -0.064901
v 0.033398 0.072716 -0.059225
v 0.065715 0.072716 0.018796
v 0.060038 0.072716 0.032500
v -0.017982 0.072716 0.064817
v -0.031687 0.072716 0.059141
v 0.019693 0.061067 -0.064901
v 0.033398 0.061067 -0.059225
v 0.065715 0.061067 0.018796
v 0.060038 0.061067 0.032500
v -0.017982 0.061067 0.064817
v -0.031687 0.061067 0.059141
v -0.070904 0.061067 -0.021738
v -0.070904 0.072716 -0.021738
v -0.065228 0.072716 -0.035443
v -0.065228 0.061067 -0.035443
v 0.022552 0.072716 -0.071802
v 0.036256 0.072716 -0.066126
v 0.072615 0.072716 0.021654
v 0.066939 0.072716 0.035358
v -0.020841 0.072716 0.071718
v -0.034545 0.072716 0.066041
v 0.022552 0.061067 -0.071802
v 0.036256 0.061067 -0.066126
v 0.072615 0.061067 0.021654
v 0.066939 0.061067 0.035358
v -0.020841 0.061067 0.071718
v -0.034545 0.061067 0.066041
v -0.075332 0.058942 -0.024788
v -0.075332 0.074842 -0.024788
v -0.070554 0.074842 -0.036439
v -0.070554 0.058942 -0.036439
v 0.027398 0.074842 -0.075845
v 0.036483 0.074842 -0.070746
v 0.075567 0.074842 0.024704
v 0.071623 0.074842 0.036227
v -0.025751 0.074842 0.075568
v -0.033553 0.074842 0.071175
v 0.027398 0.058942 -0.075845
v 0.036483 0.058942 -0.070746
v 0.075567 0.058942 0.024704
v 0.071623 0.058942 0.036227
v -0.025751 0.058942 0.075568
v -0.033553 0.058942 0.071175
v -0.062040 0.058942 -0.018066
v -0.062040 0.074842 -0.018066
v -0.056363 0.074842 -0.031771
v -0.056363 0.058942 -0.031771
v -0.030873 0.074842 0.057177
v -0.030873 0.058942 0.057177
v -0.017169 0.058942 0.062853
v -0.017169 0.074842 0.062853
v 0.058074 0.074842 0.031686
v 0.058074 0.058942 0.031686
v 0.063751 0.058942 0.017982
v 0.063751 0.074842 0.017982
v 0.032584 0.074842 -0.057261
v 0.032584 0.058942 -0.057261
v 0.018880 0.058942 -0.062937
v 0.018880 0.074842 -0.062937
v -0.072868 0.058942 -0.022552
v -0.072868 0.074842 -0.022552
v -0.067192 0.074842 -0.036256
v -0.067192 0.058942 -0.036256
v -0.035358 0.074842 0.068005
v -0.035358 0.058942 0.068005
v -0.021654 0.058942 0.073682
v -0.021654 0.074842 0.073682
v 0.068903 0.074842 0.036172
v 0.068903 0.058942 0.036172
v 0.074579 0.058942 0.022468
v 0.074579 0.074842 0.022468
v 0.037069 0.074842 -0.068089
v 0.037069 0.058942 -0.068089
v 0.023365 0.058942 -0.073766
v 0.023365 0.074842 -0.073766
v 0.026083 0.061067 0.064091
v 0.026083 0.072716 0.064091
v 0.028104 0.072716 0.068970
v 0.028104 0.061067 0.068970
v 0.061662 0.061067 -0.027133
v 0.061662 0.072716 -0.027133
v 0.066542 0.072716 -0.029154
v 0.066542 0.061067 -0.029154
v -0.025703 0.072716 -0.061381
v -0.025703 0.061067 -0.061381
v -0.027724 0.072716 -0.066261
v -0.027724 0.061067 -0.066261
v -0.071350 0.072716 0.027340
v -0.066470 0.072716 0.025319
v -0.066470 0.061067 0.025319
v -0.071350 0.061067 0.027340
v 0.022346 -0.000000 -0.071909
v 0.036477 -0.000000 -0.066056
v 0.072806 -0.000000 0.021743
v 0.067136 -0.000000 0.035431
v -0.022269 -0.000000 0.072288
v -0.033938 -0.000000 0.067455
v -0.071342 -0.000000 -0.022700
v -0.066217 -0.000000 -0.035072
v 0.026971 -0.000000 -0.083075
v 0.041102 -0.000000 -0.077222
v 0.083622 -0.000000 0.026222
v 0.077952 -0.000000 0.039910
v -0.026088 -0.000000 0.081508
v -0.037757 -0.000000 0.076675
v -0.081119 -0.000000 -0.026749
v -0.075994 -0.000000 -0.039122
v 0.016322 0.343458 -0.000042
v 0.011792 0.343458 0.010895
v 0.011792 0.343458 -0.010979
v 0.000855 0.343458 -0.015509
v -0.010081 0.343458 -0.010979
v -0.014612 0.343458 -0.000042
v -0.010081 0.343458 0.010895
v 0.000855 0.343458 0.015425
v 0.011214 0.220308 0.010316
v 0.011214 0.220308 -0.010401
v -0.013794 0.220308 -0.000042
v 0.000855 0.220308 0.014607
v 0.015505 0.220308 -0.000042
v 0.000855 0.220308 -0.014691
v -0.009503 0.220308 -0.010401
v -0.009503 0.220308 0.010316
v 0.070225 0.537075 -0.072172
v -0.013280 0.537075 -0.098207
v 0.093578 0.537075 0.008077
v 0.069651 0.537075 0.063613
v 0.000321 0.514080 0.092330
v -0.071881 0.506855 0.071851
v -0.099641 0.510394 0.002905
v -0.077185 0.524028 -0.075034
v -0.002260 0.515608 -0.109697
v 0.075673 0.517785 -0.078178
v 0.107953 0.515608 0.000516
v 0.078104 0.518654 0.077305
v -0.002260 0.492614 0.110729
v -0.080280 0.497674 0.077760
v -0.112473 0.488928 0.000516
v -0.088370 0.504738 -0.078167
vn 0.3710 0.0946 -0.9238
vn 0.9192 0.1246 -0.3736
vn 0.9291 0.0952 0.3574
vn 0.3558 0.0952 0.9297
vn -0.3718 0.1888 0.9089
vn -0.9227 0.0945 0.3738
vn -0.2186 0.9611 0.1686
vn -0.9569 0.0980 -0.2734
vn -0.3566 0.1499 -0.9222
vn 0.9006 -0.2123 -0.3793
vn -0.0000 1.0000 -0.0000
vn -0.3332 0.9254 0.1808
vn 0.3113 0.9408 0.1341
vn -0.8904 -0.2669 -0.3688
vn 0.3939 -0.1217 0.9110
vn -0.2978 0.8834 0.3620
vn -0.1751 0.9817 -0.0754
vn -0.3388 0.9385 0.0666
vn 0.2301 0.9709 -0.0669
vn -0.2189 0.9223 0.3184
vn -0.3727 0.6511 -0.6612
vn 0.2125 0.8317 -0.5130
vn -0.9184 0.1085 -0.3804
vn 0.9184 0.1085 -0.3804
vn 0.3804 0.1085 0.9184
vn -0.3688 -0.2669 0.8904
vn -0.3669 -0.2844 -0.8857
vn 0.3657 -0.2672 -0.8915
vn 0.9017 -0.2703 0.3376
vn -0.9186 -0.1066 0.3805
vn -0.0000 -1.0000 -0.0000
vn 0.3723 -0.2316 0.8988
vn -0.7688 -0.5546 0.3184
vn -0.4041 -0.3878 -0.8284
vn -0.3804 0.1085 0.9184
vn 0.9184 0.1085 0.3804
vn 0.4294 0.1706 -0.8869
vn -0.3804 0.1085 -0.9184
vn -0.9184 0.1085 0.3804
vn -0.3824 0.0355 -0.9233
vn 0.3824 0.0355 -0.9233
vn 0.9233 0.0355 0.3824
vn 0.9233 0.0364 -0.3824
vn -0.7859 -0.5257 -0.3255
vn -0.3410 -0.4537 0.8233
vn 0.9238 -0.0121 0.3827
vn 0.4180 -0.2980 -0.8582
vn -0.1639 -0.9037 0.3956
vn 0.1639 0.9037 -0.3956
vn 0.3956 -0.9037 0.1639
vn -0.9233 0.0355 0.3824
vn 0.3824 0.0355 0.9233
vn 0.9233 0.0355 -0.3824
vn -0.9233 0.0355 -0.3824
vn -0.3824 0.0355 0.9233
vn -0.9239 -0.0000 -0.3827
vn -0.3827 -0.0000 -0.9239
vn -0.9239 -0.0000 0.3827
vn 0.3827 -0.0000 0.9239
vn 0.9239 -0.0000 -0.3827
vn -0.1096 -0.0000 -0.9940
vn -0.9128 0.1547 -0.3781
vn 0.3956 0.9037 0.1639
vn 0.9239 -0.0000 0.3827
vn -0.3956 -0.9037 -0.1639
vn -0.3827 -0.0000 0.9239
vn -0.1639 0.9037 0.3956
vn 0.3827 -0.0000 -0.9239
vn 0.1639 -0.9037 -0.3956
vn -0.3956 0.9037 -0.1639
vn -0.4582 -0.0000 -0.8888
vn -0.6721 -0.0000 0.7405
vn -0.3827 -0.0001 0.9239
vn 0.0773 -0.0000 0.9970
vn -0.3784 0.1498 0.9135
vn -0.7246 -0.0000 0.6891
vn 0.9114 0.1639 0.3775
vn 0.6971 -0.0000 -0.7170
vn 0.9461 -0.0000 0.3238
vn -0.4907 -0.0000 0.8713
vn -0.9252 -0.0000 -0.3794
vn 0.4894 -0.0000 -0.8720
vn 0.0544 -0.0000 -0.9985
vn -0.8689 -0.0000 0.4950
vn 0.4182 -0.0000 0.9083
vn -0.0201 -0.0000 0.9998
vn 0.9147 -0.0000 -0.4042
vn 0.9765 -0.0000 -0.2157
vn -0.7504 -0.0000 0.6609
vn 0.7736 -0.0000 -0.6337
vn -0.6812 -0.0000 -0.7321
vn 0.6544 -0.0000 0.7561
vn 0.0560 -0.0000 0.9984
vn -0.0165 -0.0000 -0.9999
vn 0.9929 -0.0000 -0.1187
vn -0.9961 -0.0000 0.0879
vn 0.6618 -0.0000 0.7497
vn -0.6349 -0.0000 -0.7726
vn 0.9984 -0.0000 0.0557
vn -1.0000 -0.0000 -0.0091
vn -0.3827 -0.0122 0.9238
vn -0.3777 -0.1610 0.9118
vn 0.9237 -0.0187 0.3826
vn 0.3827 -0.0001 -0.9239
vn -0.9114 -0.1641 -0.3775
vn -0.9237 -0.0187 -0.3826
vn -0.9239 0.0039 -0.3827
vn 0.3766 -0.1781 -0.9091
vn 0.3827 -0.0122 -0.9238
vn 0.3773 0.1670 -0.9109
vn 0.9239 0.0039 0.3827
vn 0.9099 -0.1732 0.3769
vn -0.3824 -0.0391 0.9232
vn -0.9232 -0.0391 -0.3824
vn 0.9232 -0.0391 -0.3824
vn 0.3824 -0.0391 0.9232
vn -0.9232 -0.0391 0.3824
vn 0.9232 -0.0391 0.3824
vn 0.3824 -0.0391 -0.9232
vn -0.3824 -0.0391 -0.9232
vn -0.3827 -0.0061 0.9239
vn -0.9239 -0.0061 -0.3827
vn 0.9239 -0.0061 -0.3827
vn 0.3827 -0.0061 0.9239
vn -0.9239 -0.0061 0.3827
vn 0.9239 -0.0061 0.3827
vn 0.3827 -0.0061 -0.9239
vn -0.3827 -0.0061 -0.9239
vn -0.2236 0.9494 0.2204
vn 0.0037 0.9999 -0.0130
vn -0.1477 0.9829 0.1099
vn -0.1261 0.9818 0.1417
vn -0.2283 0.9501 0.2125
vn -0.3522 0.0954 -0.9310
vn -0.8670 0.3820 -0.3199
vn -0.8660 0.3815 0.3231
vn -0.3619 0.2700 0.8923
vn 0.3481 0.2715 0.8973
vn 0.9458 0.0969 0.3101
vn 0.9258 0.0949 -0.3658
vn 0.3522 0.0954 -0.9310
vn 0.3783 0.1505 -0.9134
vn 0.9198 0.0942 -0.3810
vn 0.8994 0.2289 0.3725
vn 0.3554 0.0988 0.9295
vn -0.3885 0.0939 0.9166
vn -0.8883 0.2580 0.3799
vn -0.1836 0.9345 0.3051
vn -0.9551 0.1144 -0.2734
vn -0.3618 0.0950 -0.9274
vn 0.8904 -0.2669 -0.3688
vn -0.2219 0.9486 0.2258
vn -0.3268 0.9279 0.1792
vn 0.3446 0.9278 0.1427
vn -0.9006 -0.2123 -0.3793
vn 0.3688 -0.2669 0.8904
vn -0.0105 0.9993 0.0370
vn -0.1792 0.9756 0.1271
vn -0.3160 0.9461 0.0712
vn 0.5057 0.8369 -0.2095
vn -0.1488 0.9720 0.1818
vn -0.2742 0.8888 -0.3673
vn 0.0801 0.9631 -0.2570
vn -0.4043 -0.0384 0.9138
vn -0.3657 -0.2672 -0.8915
vn 0.3669 -0.2844 -0.8857
vn 0.8462 -0.4015 0.3505
vn -0.8782 -0.2632 0.3992
vn -0.3251 -0.5277 -0.7848
vn 0.3804 0.1085 -0.9184
vn -0.4294 0.1706 -0.8869
vn 0.9233 0.0365 -0.3824
vn 0.3799 -0.1200 -0.9172
vn -0.4472 0.8943 0.0146
vn -0.1333 0.9834 0.1230
vn -0.1272 0.9883 0.0836
vn -0.1351 0.9819 0.1329
vn -0.1969 0.9804 0.0090
vn -0.3531 0.0986 -0.9304
vn -0.9188 -0.2224 -0.3261
vn -0.8820 0.3370 0.3294
vn -0.3632 0.2491 0.8978
vn 0.3547 0.0986 0.9298
vn 0.9099 0.2312 0.3445
vn 0.3671 0.1502 -0.9180
vt 0.059600 0.049700
vt 0.057512 0.060991
vt 0.057168 0.049613
vt 0.058296 0.043295
vt 0.055925 0.051161
vt 0.056156 0.042975
vt 0.058358 0.051251
vt 0.056364 0.062313
vt 0.057436 0.042053
vt 0.059631 0.050434
vt 0.057201 0.050353
vt 0.059701 0.061664
vt 0.057669 0.061818
vt 0.059631 0.069627
vt 0.057201 0.069872
vt 0.078312 0.061325
vt 0.075470 0.046606
vt 0.078312 0.044878
vt 0.056398 0.046110
vt 0.054373 0.057550
vt 0.053970 0.046037
vt 0.059484 0.041845
vt 0.057346 0.041582
vt 0.052465 0.069659
vt 0.051346 0.061107
vt 0.053382 0.061110
vt 0.046109 0.056196
vt 0.064047 0.063809
vt 0.053429 0.064976
vt 0.066684 0.033249
vt 0.051504 0.035080
vt 0.050238 0.033250
vt 0.067112 0.070083
vt 0.075470 0.061486
vt 0.049272 0.045896
vt 0.048209 0.057563
vt 0.048101 0.046041
vt 0.051220 0.071100
vt 0.050079 0.062647
vt 0.052459 0.061988
vt 0.054183 0.041626
vt 0.068898 0.048891
vt 0.068898 0.058818
vt 0.038609 0.044879
vt 0.039549 0.046607
vt 0.066684 0.072954
vt 0.050640 0.071894
vt 0.066240 0.034934
vt 0.038609 0.061325
vt 0.039535 0.058573
vt 0.050238 0.072954
vt 0.417873 0.291657
vt 0.421803 0.295999
vt 0.417873 0.295820
vt 0.430960 0.389272
vt 0.427006 0.392692
vt 0.427025 0.389462
vt 0.441348 0.407471
vt 0.437426 0.404712
vt 0.441364 0.404533
vt 0.052500 0.050196
vt 0.051402 0.061861
vt 0.051330 0.050338
vt 0.050252 0.057957
vt 0.048101 0.065726
vt 0.051296 0.049585
vt 0.052465 0.049443
vt 0.050053 0.051124
vt 0.051220 0.050988
vt 0.053739 0.062117
vt 0.051330 0.070031
vt 0.055614 0.060590
vt 0.066939 0.073988
vt 0.050064 0.073988
vt 0.051530 0.056506
vt 0.038132 0.062056
vt 0.038132 0.045181
vt 0.051530 0.050731
vt 0.055614 0.046647
vt 0.050064 0.033249
vt 0.066939 0.033249
vt 0.061390 0.046647
vt 0.078871 0.045181
vt 0.065473 0.050731
vt 0.078871 0.062056
vt 0.065473 0.056506
vt 0.061390 0.060590
vt 0.433937 0.358258
vt 0.435174 0.355293
vt 0.435200 0.358249
vt 0.421875 0.299190
vt 0.423077 0.295590
vt 0.423144 0.298549
vt 0.421896 0.288005
vt 0.423077 0.291398
vt 0.421803 0.291480
vt 0.430002 0.350703
vt 0.433909 0.355070
vt 0.429977 0.354866
vt 0.437426 0.400192
vt 0.441364 0.400370
vt 0.430943 0.385109
vt 0.426986 0.384826
vt 0.417940 0.288708
vt 0.430065 0.347752
vt 0.433937 0.350551
vt 0.439922 0.352602
vt 0.436072 0.369755
vt 0.438808 0.352384
vt 0.464273 0.329901
vt 0.459518 0.346944
vt 0.462693 0.329636
vt 0.430854 0.356528
vt 0.426036 0.373556
vt 0.429275 0.356256
vt 0.425768 0.389686
vt 0.435200 0.351102
vt 0.436168 0.404304
vt 0.436168 0.400112
vt 0.425750 0.385494
vt 0.441365 0.403927
vt 0.445364 0.403464
vt 0.442400 0.406428
vt 0.438209 0.406428
vt 0.439244 0.403927
vt 0.437745 0.402428
vt 0.435245 0.403464
vt 0.437745 0.400308
vt 0.435245 0.399272
vt 0.438209 0.396308
vt 0.439244 0.398809
vt 0.442400 0.396308
vt 0.441365 0.398809
vt 0.445364 0.399272
vt 0.442864 0.400308
vt 0.442864 0.402428
vt 0.442966 0.379303
vt 0.449226 0.382564
vt 0.447726 0.384063
vt 0.439075 0.358916
vt 0.441191 0.352203
vt 0.441195 0.358921
vt 0.442966 0.374184
vt 0.449226 0.370923
vt 0.444465 0.375684
vt 0.441859 0.321302
vt 0.438019 0.338474
vt 0.440742 0.321093
vt 0.431968 0.356726
vt 0.428126 0.373916
vt 0.465401 0.330102
vt 0.461609 0.347295
vt 0.433983 0.369395
vt 0.437229 0.352111
vt 0.435930 0.338115
vt 0.439162 0.320822
vt 0.444465 0.377804
vt 0.440846 0.379303
vt 0.439347 0.377804
vt 0.440846 0.374184
vt 0.437160 0.372283
vt 0.443638 0.374331
vt 0.443252 0.376570
vt 0.437546 0.370044
vt 0.435686 0.371994
vt 0.439497 0.338750
vt 0.437635 0.340713
vt 0.429599 0.374178
vt 0.427740 0.376155
vt 0.463101 0.347561
vt 0.461233 0.349536
vt 0.445364 0.402606
vt 0.447029 0.396318
vt 0.447029 0.402616
vt 0.443377 0.376555
vt 0.441357 0.384948
vt 0.441257 0.376555
vt 0.430453 0.349502
vt 0.427680 0.343619
vt 0.428435 0.342864
vt 0.454210 0.389859
vt 0.456328 0.388180
vt 0.456330 0.389856
vt 0.489653 0.315505
vt 0.483077 0.317213
vt 0.489384 0.313249
vt 0.380644 0.315519
vt 0.378527 0.322268
vt 0.378524 0.315515
vt 0.429214 0.376417
vt 0.435693 0.378463
vt 0.435307 0.380702
vt 0.436086 0.384063
vt 0.434586 0.382564
vt 0.444394 0.386335
vt 0.437662 0.387252
vt 0.444394 0.384063
vt 0.433050 0.385423
vt 0.435166 0.392164
vt 0.433046 0.392169
vt 0.462724 0.349802
vt 0.469212 0.351820
vt 0.468835 0.354061
vt 0.439347 0.375683
vt 0.436086 0.369424
vt 0.439113 0.340990
vt 0.445593 0.343032
vt 0.445209 0.345271
vt 0.445078 0.384694
vt 0.438346 0.385611
vt 0.445078 0.382422
vt 0.456328 0.396566
vt 0.441049 0.383902
vt 0.434317 0.384820
vt 0.441049 0.381630
vt 0.427685 0.370025
vt 0.428005 0.371733
vt 0.427685 0.372145
vt 0.445289 0.374615
vt 0.445389 0.376948
vt 0.444903 0.376854
vt 0.447244 0.343315
vt 0.447301 0.345633
vt 0.446860 0.345555
vt 0.434586 0.369890
vt 0.434334 0.371769
vt 0.434224 0.370032
vt 0.435986 0.389525
vt 0.436260 0.397949
vt 0.434586 0.397949
vt 0.427680 0.363082
vt 0.430453 0.369270
vt 0.429698 0.370025
vt 0.442206 0.337695
vt 0.440541 0.343477
vt 0.440541 0.337682
vt 0.443315 0.350031
vt 0.441349 0.358436
vt 0.441195 0.350031
vt 0.433475 0.358269
vt 0.435139 0.365243
vt 0.433475 0.365255
vt 0.474885 0.291782
vt 0.477005 0.300200
vt 0.474888 0.300199
vt 0.439071 0.352197
vt 0.441195 0.350527
vt 0.429977 0.359013
vt 0.433475 0.365382
vt 0.432720 0.365382
vt 0.380647 0.322272
vt 0.378524 0.323944
vt 0.435140 0.378332
vt 0.433475 0.384809
vt 0.433475 0.378339
vt 0.433050 0.393844
vt 0.433475 0.378294
vt 0.429977 0.384663
vt 0.432720 0.378294
vt 0.426447 0.384395
vt 0.424709 0.386668
vt 0.424709 0.384396
vt 0.427718 0.384397
vt 0.426447 0.386668
vt 0.426447 0.384395
vt 0.430453 0.370025
vt 0.428653 0.372297
vt 0.428653 0.370025
vt 0.440718 0.397106
vt 0.439238 0.399376
vt 0.439238 0.397104
vt 0.432642 0.387092
vt 0.432190 0.384822
vt 0.432642 0.384820
vt 0.429999 0.374417
vt 0.430447 0.372457
vt 0.430453 0.374257
vt 0.439299 0.350204
vt 0.440778 0.350031
vt 0.428130 0.386675
vt 0.428130 0.384402
vt 0.380644 0.323947
vt 0.378765 0.324197
vt 0.437344 0.378747
vt 0.437424 0.381069
vt 0.436958 0.380987
vt 0.434759 0.394160
vt 0.433489 0.394316
vt 0.435624 0.387255
vt 0.435986 0.387252
vt 0.454208 0.388184
vt 0.456166 0.387733
vt 0.470864 0.352097
vt 0.470739 0.354383
vt 0.470487 0.354339
vt 0.428653 0.372145
vt 0.428334 0.370247
vt 0.428653 0.370025
vt 0.436671 0.387884
vt 0.436352 0.385612
vt 0.436671 0.385611
vt 0.445559 0.345023
vt 0.445841 0.343383
vt 0.434014 0.386788
vt 0.434317 0.387092
vt 0.483009 0.319204
vt 0.483346 0.319469
vt 0.435658 0.380455
vt 0.435941 0.378814
vt 0.437358 0.389221
vt 0.437661 0.389525
vt 0.469185 0.353812
vt 0.469461 0.352170
vt 0.438043 0.387580
vt 0.438346 0.387884
vt 0.443603 0.376322
vt 0.443886 0.374682
vt 0.446612 0.345204
vt 0.432946 0.386789
vt 0.432946 0.385124
vt 0.481948 0.319330
vt 0.481414 0.317412
vt 0.481751 0.317677
vt 0.436710 0.380636
vt 0.436290 0.389221
vt 0.436290 0.387556
vt 0.470238 0.353989
vt 0.436975 0.387580
vt 0.436975 0.385915
vt 0.444655 0.376503
vt 0.434014 0.385124
vt 0.446893 0.343563
vt 0.470514 0.352347
vt 0.438043 0.385915
vt 0.444938 0.374863
vt 0.481683 0.319668
vt 0.482812 0.317551
vt 0.437358 0.387556
vt 0.436993 0.378995
vt 0.444687 0.386532
vt 0.443022 0.392039
vt 0.443022 0.386544
vt 0.437809 0.345964
vt 0.440541 0.340181
vt 0.438564 0.345964
vt 0.440541 0.338671
vt 0.437809 0.332887
vt 0.438564 0.332887
vt 0.441358 0.392688
vt 0.443023 0.398735
vt 0.441358 0.398744
vt 0.443028 0.400112
vt 0.441364 0.406163
vt 0.441364 0.400129
vt 0.439238 0.393145
vt 0.436169 0.387287
vt 0.436923 0.386532
vt 0.429977 0.392032
vt 0.433046 0.386173
vt 0.430731 0.392032
vt 0.433475 0.365259
vt 0.435140 0.371811
vt 0.433475 0.371816
vt 0.446743 0.395127
vt 0.445078 0.388810
vt 0.446743 0.388822
vt 0.433046 0.398243
vt 0.432291 0.398998
vt 0.436169 0.399357
vt 0.436923 0.400112
vt 0.440541 0.349241
vt 0.442206 0.343497
vt 0.442206 0.349249
vt 0.446743 0.388810
vt 0.445079 0.382422
vt 0.446743 0.382427
vt 0.440541 0.326600
vt 0.439786 0.325846
vt 0.440541 0.352251
vt 0.440541 0.337663
vt 0.442205 0.331844
vt 0.442205 0.337682
vt 0.431381 0.404585
vt 0.433046 0.398998
vt 0.433046 0.404580
vt 0.430453 0.357199
vt 0.429698 0.356444
vt 0.427680 0.355689
vt 0.428435 0.356444
vt 0.443022 0.386532
vt 0.441358 0.392679
vt 0.441358 0.386552
vt 0.430731 0.371838
vt 0.429977 0.372593
vt 0.440541 0.331821
vt 0.442206 0.325849
vt 0.442206 0.331824
vt 0.429977 0.371083
vt 0.435139 0.378332
vt 0.433475 0.371816
vt 0.435139 0.371831
vt 0.429858 0.384395
vt 0.428130 0.386581
vt 0.428130 0.384395
vt 0.440911 0.397104
vt 0.439238 0.394986
vt 0.440911 0.394986
vt 0.427262 0.394497
vt 0.428689 0.392692
vt 0.428689 0.394497
vt 0.426741 0.376039
vt 0.428254 0.374125
vt 0.428254 0.376039
vt 0.445244 0.353826
vt 0.431833 0.384826
vt 0.433989 0.393271
vt 0.431803 0.393271
vt 0.435381 0.389264
vt 0.468823 0.362601
vt 0.439238 0.386532
vt 0.441358 0.394986
vt 0.439240 0.394986
vt 0.482830 0.328017
vt 0.481414 0.328186
vt 0.443174 0.385102
vt 0.435170 0.394316
vt 0.433223 0.402756
vt 0.433050 0.394316
vt 0.432837 0.395518
vt 0.431324 0.395518
vt 0.441240 0.376555
vt 0.439071 0.384964
vt 0.439120 0.376555
vt 0.436972 0.396308
vt 0.435245 0.396308
vt 0.443314 0.368122
vt 0.441294 0.376555
vt 0.441194 0.368122
vt 0.444118 0.290406
vt 0.443763 0.303752
vt 0.442095 0.303466
vt 0.442212 0.321699
vt 0.441844 0.335048
vt 0.440177 0.334760
vt 0.471115 0.299819
vt 0.467230 0.312549
vt 0.469623 0.299553
vt 0.437809 0.326467
vt 0.433883 0.339188
vt 0.436336 0.326205
vt 0.446207 0.290764
vt 0.444942 0.303973
vt 0.434246 0.325846
vt 0.432216 0.338901
vt 0.465562 0.312269
vt 0.467533 0.299202
vt 0.445776 0.322349
vt 0.444302 0.322060
vt 0.468421 0.312762
vt 0.435059 0.339397
vt 0.443021 0.335278
vt 0.063084 0.041537
vt 0.046117 0.049403
vt 0.053210 0.041074
vt 0.052500 0.070346
vt 0.053516 0.041159
vt 0.052018 0.042355
vt 0.059647 0.060930
vt 0.058383 0.062481
vt 0.059463 0.042516
vt 0.056504 0.057340
vt 0.051296 0.069342
vt 0.050053 0.070780
vt 0.430943 0.392247
vt 0.437408 0.407902
vt 0.049272 0.066037
vt 0.423144 0.288430
vt 0.434005 0.347346
vt 0.425750 0.392681
vt 0.447726 0.369424
vt 0.445364 0.396308
vt 0.443272 0.384948
vt 0.429698 0.349502
vt 0.435170 0.385418
vt 0.434586 0.370923
vt 0.454208 0.396570
vt 0.428158 0.370462
vt 0.445776 0.374709
vt 0.447685 0.343393
vt 0.434586 0.372010
vt 0.428435 0.363082
vt 0.442206 0.343489
vt 0.443154 0.358436
vt 0.435139 0.358258
vt 0.477005 0.291783
vt 0.439075 0.350522
vt 0.430731 0.358258
vt 0.435140 0.384803
vt 0.435170 0.393839
vt 0.430731 0.385418
vt 0.426447 0.386668
vt 0.427718 0.386670
vt 0.430453 0.372297
vt 0.440718 0.399378
vt 0.432190 0.387094
vt 0.429999 0.372297
vt 0.380502 0.324309
vt 0.437809 0.378829
vt 0.435624 0.389527
vt 0.454366 0.387730
vt 0.471115 0.352142
vt 0.428158 0.371726
vt 0.436352 0.387885
vt 0.444687 0.392027
vt 0.439786 0.339426
vt 0.443023 0.392679
vt 0.443028 0.406146
vt 0.438483 0.393145
vt 0.432291 0.385418
vt 0.435140 0.365255
vt 0.445078 0.395115
vt 0.440541 0.343489
vt 0.445079 0.388805
vt 0.439786 0.353006
vt 0.440541 0.331824
vt 0.431381 0.399003
vt 0.443022 0.392659
vt 0.440541 0.325846
vt 0.433475 0.378317
vt 0.429858 0.386581
vt 0.427262 0.392692
vt 0.426741 0.374125
vt 0.446735 0.354082
vt 0.433953 0.384826
vt 0.436787 0.389506
vt 0.470473 0.362878
vt 0.441358 0.386532
vt 0.444876 0.385396
vt 0.435028 0.402756
vt 0.441257 0.384964
vt 0.443208 0.376555
vt 0.447685 0.291040
s 0
usemtl Material.003
f 2/1/1 218/2/1 217/3/1
f 4/4/2 219/5/2 218/6/2
f 6/7/3 220/8/3 219/5/3
f 220/9/4 10/10/4 221/11/4
f 221/11/5 12/12/5 222/13/5
f 222/13/6 14/14/6 223/15/6
f 8/16/7 213/17/7 10/18/7
f 14/19/8 224/20/8 223/21/8
f 16/22/9 217/3/9 224/23/9
f 5/24/10 34/25/10 3/26/10
f 18/27/11 19/28/11 17/29/11
f 12/30/12 215/31/12 14/32/12
f 8/16/13 211/33/13 212/34/13
f 13/35/14 40/36/14 39/37/14
f 9/38/15 36/39/15 7/40/15
f 23/41/16 21/42/16 20/43/16
f 19/28/17 23/41/17 20/43/17
f 16/44/18 215/31/18 216/45/18
f 6/46/19 209/47/19 211/33/19
f 10/18/20 214/48/20 12/30/20
f 2/49/21 216/45/21 210/50/21
f 2/49/22 209/47/22 4/51/22
f 32/52/23 42/53/23 31/54/23
f 26/55/24 43/56/24 46/57/24
f 29/58/25 41/59/25 28/60/25
f 9/61/26 38/62/26 37/63/26
f 15/64/27 33/65/27 40/36/27
f 3/26/28 33/66/28 1/67/28
f 7/40/29 35/68/29 5/69/29
f 11/70/30 39/71/30 38/62/30
f 26/72/31 33/73/31 34/74/31
f 27/75/31 34/74/31 35/76/31
f 27/75/31 36/77/31 28/78/31
f 29/79/31 36/77/31 37/80/31
f 29/79/31 38/81/31 30/82/31
f 30/82/31 39/83/31 31/84/31
f 31/84/31 40/85/31 32/86/31
f 32/86/31 33/73/31 25/87/31
f 41/88/32 61/89/32 49/90/32
f 48/91/33 50/92/33 62/93/33
f 45/94/34 64/95/34 44/96/34
f 30/97/35 47/98/35 29/99/35
f 28/60/36 43/100/36 27/101/36
f 25/102/37 46/57/37 45/103/37
f 25/104/38 44/96/38 32/52/38
f 31/105/39 48/106/39 30/97/39
f 206/107/40 68/108/40 207/109/40
f 202/110/41 69/111/41 206/112/41
f 201/113/42 67/114/42 205/115/42
f 43/56/43 58/116/43 46/57/43
f 44/96/44 50/92/44 42/53/44
f 47/98/45 62/117/45 61/89/45
f 43/100/46 49/118/46 51/119/46
f 46/57/47 57/120/47 45/103/47
f 54/121/31 57/122/31 58/123/31
f 54/121/31 51/124/31 59/125/31
f 60/126/31 51/124/31 49/127/31
f 55/128/31 49/127/31 61/129/31
f 55/128/31 62/130/31 56/131/31
f 56/131/31 50/132/31 63/133/31
f 63/133/31 64/134/31 52/135/31
f 52/135/31 57/122/31 53/136/31
f 78/137/48 143/138/48 142/139/48
f 70/140/49 144/141/49 69/142/49
f 74/143/50 132/144/50 76/145/50
f 203/146/51 72/147/51 208/148/51
f 204/149/52 65/150/52 201/113/52
f 205/151/53 70/152/53 202/110/53
f 207/109/54 66/153/54 203/154/54
f 208/148/55 71/155/55 204/156/55
f 77/157/31 75/158/31 76/145/31
f 73/159/31 80/160/31 74/143/31
f 75/158/31 74/143/31 76/145/31
f 77/161/56 144/162/56 143/163/56
f 69/164/57 76/165/57 68/108/57
f 66/166/58 80/167/58 72/147/58
f 71/168/59 73/169/59 65/150/59
f 67/170/60 78/171/60 70/152/60
f 171/172/61 107/173/61 172/174/61
f 148/175/62 191/176/62 145/177/62
f 172/178/31 84/179/31 100/180/31
f 131/181/11 146/182/11 130/183/11
f 80/184/56 133/185/56 72/186/56
f 65/187/63 140/188/63 67/189/63
f 79/190/64 136/191/64 135/192/64
f 73/159/65 139/193/65 138/194/65
f 73/195/66 137/196/66 65/197/66
f 71/198/67 133/199/67 136/200/67
f 75/201/68 140/202/68 139/203/68
f 79/204/69 134/205/69 80/160/69
f 74/206/66 130/207/66 129/208/66
f 78/209/64 141/210/64 70/211/64
f 66/212/70 131/181/70 130/183/70
f 76/213/68 131/214/68 68/215/68
f 151/216/31 128/217/31 150/218/31
f 160/219/71 123/220/71 159/221/71
f 146/222/72 113/223/72 145/224/72
f 154/225/31 125/226/31 126/227/31
f 154/228/73 180/229/73 188/230/73
f 171/231/11 85/232/11 101/233/11
f 170/234/74 85/235/74 169/236/74
f 150/237/75 189/238/75 151/239/75
f 112/240/76 173/241/76 176/242/76
f 155/243/77 188/244/77 187/245/77
f 141/246/11 160/247/11 144/141/11
f 96/248/31 176/249/31 175/250/31
f 137/251/11 156/252/11 140/188/11
f 174/253/78 96/254/78 175/255/78
f 133/199/11 152/256/11 136/200/11
f 173/257/11 90/258/11 174/259/11
f 120/260/79 125/261/79 119/262/79
f 122/263/80 127/264/80 121/265/80
f 115/266/81 113/267/81 114/268/81
f 118/269/82 123/270/82 117/271/82
f 148/272/83 115/273/83 147/274/83
f 148/275/31 113/276/31 116/277/31
f 160/247/11 118/278/11 117/279/11
f 150/280/84 122/263/84 149/281/84
f 153/282/11 119/283/11 156/252/11
f 152/284/85 127/285/85 151/286/85
f 152/256/11 122/287/11 121/288/11
f 154/228/86 120/289/86 153/290/86
f 147/291/11 114/292/11 146/182/11
f 156/293/87 125/294/87 155/295/87
f 159/296/31 124/297/31 158/298/31
f 158/299/88 118/300/88 157/301/88
f 81/302/66 130/207/66 82/303/66
f 84/304/68 131/214/68 132/305/68
f 96/306/56 133/185/56 134/307/56
f 95/308/64 136/191/64 89/309/64
f 94/310/66 137/196/66 138/311/66
f 93/312/68 140/202/68 87/313/68
f 92/314/64 141/210/64 142/315/64
f 91/316/56 144/162/56 85/317/56
f 97/318/66 146/222/66 145/224/66
f 100/319/68 147/274/68 99/320/68
f 112/321/56 149/322/56 106/323/56
f 111/324/64 152/284/64 151/286/64
f 110/325/66 153/290/66 104/326/66
f 109/327/68 156/293/68 155/295/68
f 108/328/64 157/301/64 102/329/64
f 107/330/56 160/219/56 159/221/56
f 83/331/68 147/274/68 131/214/68
f 82/303/66 146/222/66 98/332/66
f 103/333/68 140/202/68 156/293/68
f 109/327/68 139/203/68 93/312/68
f 91/316/56 159/221/56 143/163/56
f 92/314/64 158/299/64 108/328/64
f 86/334/64 157/301/64 141/210/64
f 110/325/66 138/311/66 154/228/66
f 97/318/66 129/208/66 81/302/66
f 85/317/56 160/219/56 101/335/56
f 111/324/64 135/192/64 95/308/64
f 96/306/56 150/336/56 112/321/56
f 84/304/68 148/272/68 100/319/68
f 90/337/56 149/322/56 133/185/56
f 104/326/66 137/196/66 88/338/66
f 89/309/64 152/284/64 105/339/64
f 166/340/89 92/341/89 165/342/89
f 167/343/11 86/344/11 166/345/11
f 92/346/31 168/347/31 165/348/31
f 108/349/90 167/350/90 168/351/90
f 162/352/91 94/353/91 161/354/91
f 163/355/11 89/356/11 105/357/11
f 164/358/31 95/359/31 161/360/31
f 110/361/92 163/362/92 164/363/92
f 164/364/93 105/365/93 111/366/93
f 164/358/31 94/367/31 110/368/31
f 88/369/11 163/355/11 104/370/11
f 89/371/94 161/372/94 95/373/94
f 168/374/95 103/375/95 109/376/95
f 93/377/31 168/347/31 109/378/31
f 87/379/11 167/343/11 166/345/11
f 87/380/96 165/381/96 93/382/96
f 84/383/97 169/384/97 83/385/97
f 83/386/11 171/231/11 99/387/11
f 91/388/31 172/178/31 107/389/31
f 99/390/98 172/391/98 100/392/98
f 98/393/11 174/259/11 82/394/11
f 82/395/99 175/396/99 81/397/99
f 175/250/31 97/393/31 81/398/31
f 176/399/100 98/400/100 97/401/100
f 178/402/31 185/403/31 186/404/31
f 179/405/31 188/406/31 180/407/31
f 182/408/31 189/409/31 190/410/31
f 184/411/31 191/412/31 192/413/31
f 145/224/101 183/414/101 129/208/101
f 142/415/102 177/416/102 178/417/102
f 151/286/103 181/418/103 135/192/103
f 155/295/104 179/419/104 139/203/104
f 138/420/105 179/421/105 180/422/105
f 150/336/106 182/423/106 190/424/106
f 159/221/107 177/425/107 143/163/107
f 135/426/108 182/427/108 134/428/108
f 148/272/109 184/429/109 192/430/109
f 158/431/110 185/432/110 159/433/110
f 158/299/111 178/434/111 186/435/111
f 129/436/112 184/437/112 132/438/112
f 55/439/113 199/440/113 200/441/113
f 63/442/114 197/443/114 198/444/114
f 59/445/115 195/446/115 54/447/115
f 55/448/116 194/449/116 60/450/116
f 56/451/117 198/452/117 199/440/117
f 59/453/118 194/449/118 193/454/118
f 54/447/119 196/455/119 53/456/119
f 53/457/120 197/443/120 52/458/120
f 199/440/121 204/156/121 200/441/121
f 198/444/122 207/109/122 203/154/122
f 193/459/123 202/110/123 195/446/123
f 200/460/124 201/113/124 194/449/124
f 198/452/125 208/148/125 199/440/125
f 194/449/126 205/115/126 193/454/126
f 195/446/127 206/112/127 196/455/127
f 196/461/128 207/109/128 197/443/128
f 17/29/11 210/50/11 18/27/11
f 17/29/11 211/33/11 209/47/11
f 20/43/11 211/33/11 19/28/11
f 20/43/129 213/17/129 212/34/129
f 22/462/130 213/17/130 21/42/130
f 22/462/131 215/31/131 214/48/131
f 24/463/132 215/31/132 23/41/132
f 18/27/133 216/45/133 24/463/133
f 15/464/134 217/3/134 1/67/134
f 223/21/135 15/64/135 13/35/135
f 11/70/136 223/15/136 13/465/136
f 221/11/137 11/70/137 9/61/137
f 7/466/138 221/11/138 9/61/138
f 219/5/139 7/40/139 5/69/139
f 3/467/140 219/5/140 5/69/140
f 217/3/141 3/26/141 1/67/141
f 2/1/142 4/468/142 218/2/142
f 4/4/143 6/7/143 219/5/143
f 6/7/144 8/469/144 220/8/144
f 220/9/145 8/470/145 10/10/145
f 221/11/146 10/10/146 12/12/146
f 222/13/147 12/12/147 14/14/147
f 8/16/148 212/34/148 213/17/148
f 14/19/149 16/471/149 224/20/149
f 16/22/150 2/1/150 217/3/150
f 5/24/151 35/472/151 34/25/151
f 18/27/152 24/463/152 19/28/152
f 12/30/153 214/48/153 215/31/153
f 8/16/154 6/46/154 211/33/154
f 13/35/155 15/64/155 40/36/155
f 9/38/156 37/473/156 36/39/156
f 23/41/157 22/462/157 21/42/157
f 19/28/158 24/463/158 23/41/158
f 16/44/159 14/32/159 215/31/159
f 6/46/160 4/51/160 209/47/160
f 10/18/161 213/17/161 214/48/161
f 2/49/162 16/44/162 216/45/162
f 2/49/163 210/50/163 209/47/163
f 32/52/23 44/96/23 42/53/23
f 26/55/24 27/474/24 43/56/24
f 29/58/25 47/475/25 41/59/25
f 9/61/164 11/70/164 38/62/164
f 15/64/165 1/476/165 33/65/165
f 3/26/166 34/25/166 33/66/166
f 7/40/167 36/39/167 35/68/167
f 11/70/168 13/465/168 39/71/168
f 26/72/31 25/87/31 33/73/31
f 27/75/31 26/72/31 34/74/31
f 27/75/31 35/76/31 36/77/31
f 29/79/31 28/78/31 36/77/31
f 29/79/31 37/80/31 38/81/31
f 30/82/31 38/81/31 39/83/31
f 31/84/31 39/83/31 40/85/31
f 32/86/31 40/85/31 33/73/31
f 41/88/32 47/98/32 61/89/32
f 48/91/33 42/53/33 50/92/33
f 45/94/169 57/477/169 64/95/169
f 30/97/35 48/106/35 47/98/35
f 28/60/36 41/59/36 43/100/36
f 25/102/170 26/55/170 46/57/170
f 25/104/171 45/94/171 44/96/171
f 31/105/39 42/478/39 48/106/39
f 206/107/40 69/164/40 68/108/40
f 202/110/41 70/152/41 69/111/41
f 201/113/42 65/150/42 67/114/42
f 43/56/172 51/479/172 58/116/172
f 44/96/44 64/95/44 50/92/44
f 47/98/45 48/106/45 62/117/45
f 43/100/46 41/59/46 49/118/46
f 46/57/173 58/116/173 57/120/173
f 54/121/31 53/136/31 57/122/31
f 54/121/31 58/123/31 51/124/31
f 60/126/31 59/125/31 51/124/31
f 55/128/31 60/126/31 49/127/31
f 55/128/31 61/129/31 62/130/31
f 56/131/31 62/130/31 50/132/31
f 63/133/31 50/132/31 64/134/31
f 52/135/31 64/134/31 57/122/31
f 78/137/48 77/157/48 143/138/48
f 70/140/49 141/246/49 144/141/49
f 74/143/50 129/480/50 132/144/50
f 203/146/51 66/166/51 72/147/51
f 204/149/52 71/168/52 65/150/52
f 205/151/53 67/170/53 70/152/53
f 207/109/54 68/108/54 66/153/54
f 208/148/55 72/147/55 71/155/55
f 77/157/31 78/137/31 75/158/31
f 73/159/31 79/204/31 80/160/31
f 75/158/31 73/159/31 74/143/31
f 77/161/56 69/164/56 144/162/56
f 69/164/57 77/161/57 76/165/57
f 66/166/58 74/206/58 80/167/58
f 71/168/59 79/190/59 73/169/59
f 67/170/60 75/201/60 78/171/60
f 171/172/61 101/481/61 107/173/61
f 148/175/62 192/482/62 191/176/62
f 172/178/31 170/483/31 84/179/31
f 131/181/11 147/291/11 146/182/11
f 80/184/56 134/307/56 133/185/56
f 65/187/63 137/251/63 140/188/63
f 79/190/64 71/168/64 136/191/64
f 73/159/65 75/158/65 139/193/65
f 73/195/66 138/311/66 137/196/66
f 71/198/67 72/484/67 133/199/67
f 75/201/68 67/170/68 140/202/68
f 79/204/69 135/485/69 134/205/69
f 74/206/66 66/166/66 130/207/66
f 78/209/64 142/315/64 141/210/64
f 66/212/70 68/486/70 131/181/70
f 76/213/68 132/305/68 131/214/68
f 151/216/31 127/487/31 128/217/31
f 160/219/71 117/488/71 123/220/71
f 146/222/72 114/489/72 113/223/72
f 154/225/31 155/490/31 125/226/31
f 154/228/73 138/311/73 180/229/73
f 171/231/11 169/491/11 85/232/11
f 170/234/74 91/492/74 85/235/74
f 150/237/75 190/493/75 189/238/75
f 112/240/76 106/494/76 173/241/76
f 155/243/77 154/495/77 188/244/77
f 141/246/11 157/496/11 160/247/11
f 96/248/31 112/497/31 176/249/31
f 137/251/11 153/282/11 156/252/11
f 174/253/78 90/498/78 96/254/78
f 133/199/11 149/499/11 152/256/11
f 173/257/11 106/500/11 90/258/11
f 120/260/79 126/501/79 125/261/79
f 122/263/80 128/502/80 127/264/80
f 115/266/81 116/503/81 113/267/81
f 118/269/82 124/504/82 123/270/82
f 148/272/83 116/505/83 115/273/83
f 148/275/31 145/506/31 113/276/31
f 160/247/11 157/496/11 118/278/11
f 150/280/84 128/502/84 122/263/84
f 153/282/11 120/507/11 119/283/11
f 152/284/85 121/508/85 127/285/85
f 152/256/11 149/499/11 122/287/11
f 154/228/86 126/509/86 120/289/86
f 147/291/11 115/510/11 114/292/11
f 156/293/87 119/511/87 125/294/87
f 159/296/31 123/512/31 124/297/31
f 158/299/88 124/513/88 118/300/88
f 81/302/66 129/208/66 130/207/66
f 84/304/68 83/331/68 131/214/68
f 96/306/56 90/337/56 133/185/56
f 95/308/64 135/192/64 136/191/64
f 94/310/66 88/338/66 137/196/66
f 93/312/68 139/203/68 140/202/68
f 92/314/64 86/334/64 141/210/64
f 91/316/56 143/163/56 144/162/56
f 97/318/66 98/332/66 146/222/66
f 100/319/68 148/272/68 147/274/68
f 112/321/56 150/336/56 149/322/56
f 111/324/64 105/339/64 152/284/64
f 110/325/66 154/228/66 153/290/66
f 109/327/68 103/333/68 156/293/68
f 108/328/64 158/299/64 157/301/64
f 107/330/56 101/335/56 160/219/56
f 83/331/68 99/320/68 147/274/68
f 82/303/66 130/207/66 146/222/66
f 103/333/68 87/313/68 140/202/68
f 109/327/68 155/295/68 139/203/68
f 91/316/56 107/330/56 159/221/56
f 92/314/64 142/315/64 158/299/64
f 86/334/64 102/329/64 157/301/64
f 110/325/66 94/310/66 138/311/66
f 97/318/66 145/224/66 129/208/66
f 85/317/56 144/162/56 160/219/56
f 111/324/64 151/286/64 135/192/64
f 96/306/56 134/307/56 150/336/56
f 84/304/68 132/305/68 148/272/68
f 90/337/56 106/323/56 149/322/56
f 104/326/66 153/290/66 137/196/66
f 89/309/64 136/191/64 152/284/64
f 166/340/89 86/514/89 92/341/89
f 167/343/11 102/515/11 86/344/11
f 92/346/31 108/515/31 168/347/31
f 108/349/90 102/516/90 167/350/90
f 162/352/91 88/517/91 94/353/91
f 163/355/11 162/518/11 89/356/11
f 164/358/31 111/519/31 95/359/31
f 110/361/92 104/520/92 163/362/92
f 164/364/93 163/521/93 105/365/93
f 164/358/31 161/360/31 94/367/31
f 88/369/11 162/518/11 163/355/11
f 89/371/94 162/522/94 161/372/94
f 168/374/95 167/523/95 103/375/95
f 93/377/31 165/348/31 168/347/31
f 87/379/11 103/524/11 167/343/11
f 87/380/96 166/525/96 165/381/96
f 84/383/97 170/526/97 169/384/97
f 83/386/11 169/491/11 171/231/11
f 91/388/31 170/483/31 172/178/31
f 99/390/98 171/527/98 172/391/98
f 98/393/11 173/257/11 174/259/11
f 82/395/99 174/528/99 175/396/99
f 175/250/31 176/249/31 97/393/31
f 176/399/100 173/529/100 98/400/100
f 178/402/31 177/530/31 185/403/31
f 179/405/31 187/271/31 188/406/31
f 182/408/31 181/531/31 189/409/31
f 184/411/31 183/532/31 191/412/31
f 145/224/101 191/533/101 183/414/101
f 142/415/102 143/534/102 177/416/102
f 151/286/103 189/535/103 181/418/103
f 155/295/104 187/536/104 179/419/104
f 138/420/105 139/537/105 179/421/105
f 150/336/106 134/307/106 182/423/106
f 159/221/107 185/538/107 177/425/107
f 135/426/108 181/539/108 182/427/108
f 148/272/109 132/305/109 184/429/109
f 158/431/110 186/540/110 185/432/110
f 158/299/111 142/315/111 178/434/111
f 129/436/112 183/541/112 184/437/112
f 55/439/113 56/451/113 199/440/113
f 63/442/114 52/458/114 197/443/114
f 59/445/115 193/459/115 195/446/115
f 55/448/116 200/460/116 194/449/116
f 56/451/117 63/542/117 198/452/117
f 59/453/118 60/450/118 194/449/118
f 54/447/119 195/446/119 196/455/119
f 53/457/120 196/461/120 197/443/120
f 199/440/121 208/148/121 204/156/121
f 198/444/122 197/443/122 207/109/122
f 193/459/123 205/151/123 202/110/123
f 200/460/124 204/149/124 201/113/124
f 198/452/125 203/146/125 208/148/125
f 194/449/126 201/113/126 205/115/126
f 195/446/127 202/110/127 206/112/127
f 196/461/128 206/107/128 207/109/128
f 17/29/11 209/47/11 210/50/11
f 17/29/11 19/28/11 211/33/11
f 20/43/11 212/34/11 211/33/11
f 20/43/174 21/42/174 213/17/174
f 22/462/175 214/48/175 213/17/175
f 22/462/176 23/41/176 215/31/176
f 24/463/177 216/45/177 215/31/177
f 18/27/178 210/50/178 216/45/178
f 15/464/179 224/23/179 217/3/179
f 223/21/180 224/20/180 15/64/180
f 11/70/181 222/13/181 223/15/181
f 221/11/182 222/13/182 11/70/182
f 7/466/183 220/9/183 221/11/183
f 219/5/184 220/8/184 7/40/184
f 3/467/2 218/6/2 219/5/2
f 217/3/185 218/2/185 3/26/185
