# Blender 4.2.1 LTS
# www.blender.org
mtllib barrel_damaged_blue.mtl
g barrel_damaged_blue_Mesh
v 0.144193 0.787032 -0.258711
v -0.097562 0.917847 0.174159
v 0.028206 0.910380 0.211981
v 0.249195 0.790801 -0.183707
v 0.156663 0.889457 0.192893
v 0.312811 0.804964 -0.086695
v -0.195728 0.910380 0.086916
v 0.025261 0.790801 -0.308773
v -0.246850 0.889457 -0.032467
v -0.090703 0.804964 -0.312055
v 0.103823 0.039695 -0.186428
v -0.150112 0.039695 0.268251
v 0.204679 0.039695 -0.104001
v -0.023873 0.039695 0.305229
v -0.019254 0.039695 -0.229066
v -0.247806 0.039695 0.180164
v -0.136114 0.039695 -0.230745
v -0.297605 0.039695 0.058411
v 0.267400 0.039695 -0.005385
v 0.105909 0.039695 0.283770
v -0.289646 0.039695 -0.072892
v -0.057610 0.876657 0.017656
v -0.225506 0.039695 -0.187738
v -0.048694 0.871832 0.001691
v 0.277668 0.039695 0.093281
v 0.023649 0.871832 0.042093
v 0.213527 0.039695 0.208127
v 0.014732 0.876657 0.058059
v -0.150112 0.027483 0.268251
v -0.153417 0.018806 0.274170
v -0.098160 0.939774 0.175229
v -0.096043 0.929655 0.171438
v -0.253352 0.018806 0.184062
v -0.247806 0.027483 0.180164
v -0.194209 0.922188 0.084196
v -0.198577 0.932135 0.085986
v -0.304294 0.018806 0.059516
v -0.297605 0.027483 0.058411
v -0.245332 0.901264 -0.035187
v -0.250872 0.910732 -0.036136
v -0.296152 0.018806 -0.074797
v -0.289646 0.027483 -0.072892
v -0.239285 0.871029 -0.163066
v -0.244687 0.879803 -0.166947
v -0.230541 0.018806 -0.192277
v -0.225506 0.027483 -0.187738
v -0.177266 0.837471 -0.274112
v -0.181246 0.845475 -0.280540
v -0.138680 0.018806 -0.237019
v -0.136114 0.027483 -0.230745
v -0.089184 0.816772 -0.314775
v -0.090739 0.824083 -0.322860
v -0.018844 0.018806 -0.235833
v -0.019254 0.027483 -0.229066
v 0.026780 0.802609 -0.311493
v 0.028172 0.809440 -0.320015
v 0.107128 0.018806 -0.192347
v 0.103823 0.027483 -0.186428
v 0.145712 0.798840 -0.261431
v 0.149987 0.805500 -0.269086
v 0.210226 0.018806 -0.107900
v 0.204679 0.027483 -0.104001
v 0.250714 0.802609 -0.186428
v 0.257241 0.809440 -0.192082
v 0.274088 0.018806 -0.006491
v 0.267400 0.027483 -0.005385
v 0.314330 0.816772 -0.089415
v 0.322030 0.824083 -0.092331
v 0.284174 0.018806 0.095187
v 0.277668 0.027483 0.093281
v 0.325907 0.837471 0.006907
v 0.333468 0.845475 0.006924
v 0.218562 0.018806 0.212667
v 0.213527 0.027483 0.208127
v 0.263889 0.871029 0.117953
v 0.270027 0.879803 0.120517
v 0.108475 0.018806 0.290045
v 0.105909 0.027483 0.283770
v 0.158183 0.901264 0.190173
v 0.161896 0.910732 0.194392
v -0.024283 0.018806 0.311996
v -0.023873 0.027483 0.305229
v 0.029724 0.922188 0.209261
v 0.030492 0.932135 0.213919
v -0.167613 0.055195 0.299587
v -0.116411 0.912016 0.207910
v -0.226498 0.903642 0.110074
v -0.277170 0.055195 0.200802
v -0.283828 0.880177 -0.023807
v -0.333016 0.055195 0.064265
v -0.277047 0.846271 -0.167213
v -0.324091 0.055195 -0.082981
v -0.207498 0.808637 -0.291743
v -0.252162 0.055195 -0.211773
v -0.106580 0.784267 -0.341176
v -0.149702 0.055195 -0.263965
v 0.024983 0.767563 -0.340212
v -0.017082 0.055195 -0.264892
v 0.153093 0.762888 -0.274646
v 0.121324 0.055195 -0.217763
v 0.276109 0.767563 -0.199960
v 0.234043 0.055195 -0.124641
v 0.345932 0.784267 -0.088451
v 0.302810 0.055195 -0.011240
v 0.356775 0.808637 0.023399
v 0.312112 0.055195 0.103371
v 0.287226 0.846271 0.147930
v 0.240183 0.055195 0.232161
v 0.168684 0.880177 0.228918
v 0.119497 0.055195 0.316991
v 0.024627 0.903642 0.250325
v -0.026044 0.055195 0.341054
v 0.025919 0.924292 0.264092
v -0.165429 0.257610 0.295679
v 0.028002 0.939775 0.259290
v -0.145185 0.670700 0.259430
v -0.253776 0.662439 0.162923
v -0.246541 0.718672 0.149970
v -0.273538 0.255285 0.198309
v -0.271502 0.313292 0.194663
v -0.310327 0.639294 0.030863
v -0.303092 0.695527 0.017910
v -0.328740 0.248772 0.063833
v -0.326704 0.306779 0.060187
v -0.303638 0.605848 -0.110595
v -0.296403 0.662081 -0.123548
v -0.320101 0.239359 -0.081118
v -0.318065 0.297366 -0.084763
v -0.225633 0.556008 -0.228183
v -0.218399 0.612241 -0.241136
v -0.239931 0.216195 -0.202581
v -0.237895 0.274202 -0.206226
v -0.135727 0.544817 -0.281763
v -0.128492 0.601049 -0.294718
v -0.148630 0.222184 -0.258659
v -0.146595 0.280191 -0.262304
v -0.006122 0.528432 -0.280509
v 0.001112 0.584665 -0.293463
v -0.018070 0.217573 -0.259115
v -0.016034 0.275580 -0.262761
v 0.070570 0.537418 -0.198668
v 0.077804 0.593651 -0.211621
v 0.101074 0.220102 -0.152333
v 0.103109 0.278109 -0.155979
v 0.241590 0.528432 -0.142163
v 0.248825 0.584665 -0.155117
v 0.246964 0.205045 -0.111095
v 0.249000 0.263052 -0.114740
v 0.310635 0.535427 -0.032474
v 0.317869 0.591660 -0.045427
v 0.297732 0.222184 -0.009369
v 0.299767 0.280191 -0.013014
v 0.321571 0.568726 0.077427
v 0.328805 0.624959 0.064474
v 0.307273 0.228913 0.103029
v 0.309308 0.286920 0.099383
v 0.252966 0.605848 0.200265
v 0.260201 0.662081 0.187312
v 0.236504 0.239359 0.229742
v 0.238540 0.297366 0.226097
v 0.136035 0.639294 0.280153
v 0.143270 0.695527 0.267199
v 0.117622 0.248772 0.313122
v 0.119658 0.306779 0.309477
v -0.006063 0.662439 0.301269
v 0.001171 0.718672 0.288315
v -0.025826 0.255285 0.336655
v -0.023790 0.313292 0.333009
v 0.177829 0.899548 0.241519
v -0.163393 0.315617 0.292033
v 0.179388 0.915117 0.236794
v 0.302835 0.863793 0.156115
v 0.303962 0.879485 0.151684
v -0.137951 0.726932 0.246477
v 0.376175 0.824108 0.024795
v 0.377050 0.839937 0.020818
v 0.365702 0.797889 -0.094873
v 0.366552 0.813841 -0.098329
v 0.292753 0.779906 -0.213682
v 0.293811 0.795944 -0.216650
v 0.163735 0.774774 -0.293701
v 0.165194 0.790842 -0.296314
v 0.027936 0.779906 -0.361580
v 0.029908 0.795944 -0.364038
v -0.111481 0.797889 -0.361377
v -0.108984 0.813841 -0.363913
v -0.218862 0.824108 -0.307528
v -0.215934 0.839937 -0.310360
v -0.292203 0.863793 -0.176209
v -0.289022 0.879485 -0.179493
v -0.299354 0.899548 -0.024984
v -0.296148 0.915117 -0.028790
v -0.238898 0.924292 0.116195
v -0.235901 0.939775 0.111902
v -0.120214 0.948575 0.214716
v -0.122809 0.933123 0.219365
v -0.176425 0.038134 0.315365
v -0.175837 0.021834 0.314312
v -0.027065 0.021834 0.357889
v -0.027138 0.038134 0.359093
v 0.125881 0.021834 0.332601
v 0.126338 0.038134 0.333716
v 0.252709 0.021834 0.243455
v 0.253605 0.038134 0.244264
v 0.328298 0.021834 0.108111
v 0.329455 0.038134 0.108450
v 0.319450 0.021834 -0.013991
v 0.320640 0.038134 -0.014188
v 0.247841 0.021834 -0.134339
v 0.248827 0.038134 -0.135033
v 0.129548 0.021834 -0.232488
v 0.130136 0.038134 -0.233541
v -0.016062 0.021834 -0.281726
v -0.015989 0.038134 -0.282931
v -0.156087 0.021834 -0.279575
v -0.156543 0.038134 -0.280692
v -0.264687 0.021834 -0.223067
v -0.265583 0.038134 -0.223874
v -0.340276 0.021834 -0.087722
v -0.341433 0.038134 -0.088060
v -0.349655 0.021834 0.067017
v -0.350845 0.038134 0.067214
v -0.290968 0.021834 0.210501
v -0.291955 0.038134 0.211194
v -0.172859 0.006389 0.308980
v -0.285972 0.006389 0.206989
v -0.229073 0.953306 0.105109
v -0.115413 0.961952 0.206121
v -0.123166 0.915670 0.220003
v -0.288890 0.055195 0.209041
v -0.343631 0.006389 0.066020
v -0.288264 0.929080 -0.033116
v -0.347150 0.055195 0.066602
v -0.334415 0.006389 -0.086005
v -0.281263 0.894073 -0.181178
v -0.337838 0.055195 -0.087008
v -0.260151 0.006389 -0.218977
v -0.209456 0.855218 -0.309749
v -0.262801 0.055195 -0.221365
v -0.153775 0.006389 -0.273922
v -0.104690 0.829747 -0.361811
v -0.155125 0.055195 -0.277224
v -0.016432 0.006389 -0.275631
v 0.031549 0.812282 -0.361541
v -0.016216 0.055195 -0.279191
v 0.126570 0.006389 -0.227157
v 0.164236 0.807335 -0.294599
v 0.128309 0.055195 -0.230270
v 0.242845 0.006389 -0.130827
v 0.290825 0.812282 -0.216738
v 0.245763 0.055195 -0.132878
v 0.313425 0.006389 -0.012995
v 0.362510 0.829747 -0.100883
v 0.316944 0.055195 -0.013577
v 0.322438 0.006389 0.106395
v 0.373133 0.855218 0.015622
v 0.325860 0.055195 0.107397
v 0.248173 0.006389 0.239367
v 0.301326 0.894073 0.144194
v 0.250822 0.055195 0.241755
v 0.123569 0.006389 0.326949
v 0.178936 0.929080 0.227812
v 0.124920 0.055195 0.330250
v -0.026695 0.006389 0.351793
v 0.030204 0.953306 0.249913
v -0.026911 0.055195 0.355353
v -0.153417 0.000000 0.274170
v -0.253352 0.000000 0.184062
v -0.196238 0.950319 0.081797
v -0.095820 0.957958 0.171040
v -0.304294 0.000000 0.059516
v -0.248533 0.928916 -0.040325
v -0.296152 0.000000 -0.074797
v -0.242347 0.897987 -0.171136
v -0.230541 0.000000 -0.192277
v -0.178907 0.863659 -0.284729
v -0.138680 0.000000 -0.237019
v -0.088400 0.842267 -0.327048
v -0.018844 0.000000 -0.235833
v 0.030511 0.827624 -0.324204
v 0.107128 0.000000 -0.192347
v 0.146233 0.823684 -0.262364
v 0.210226 0.000000 -0.107900
v 0.259580 0.827624 -0.196270
v 0.274088 0.000000 -0.006491
v 0.324369 0.842267 -0.096520
v 0.284174 0.000000 0.095187
v 0.335807 0.863659 0.002735
v 0.218562 0.000000 0.212667
v 0.272367 0.897987 0.116328
v 0.108475 0.000000 0.290045
v 0.164236 0.928916 0.190203
v -0.024283 0.000000 0.311996
v 0.032831 0.950319 0.209731
v -0.174598 0.055195 0.312095
v -0.238010 0.906934 0.117938
v -0.297818 0.882456 -0.021728
v -0.290744 0.847084 -0.171332
v -0.218189 0.807824 -0.301245
v -0.112147 0.781988 -0.354177
v 0.025641 0.764271 -0.354139
v 0.159847 0.759233 -0.286739
v 0.287620 0.764271 -0.207825
v 0.359922 0.781988 -0.090529
v 0.370472 0.807824 0.027519
v 0.297917 0.847084 0.157431
v 0.174251 0.882456 0.241919
v 0.023969 0.906934 0.264252
v -0.026594 0.273152 0.358166
v -0.025688 0.298975 0.356543
v -0.024629 0.314206 0.347085
v -0.170266 0.316631 0.304338
v -0.174953 0.301461 0.312731
v -0.175860 0.275637 0.314354
v -0.172302 0.258624 0.307984
v -0.026665 0.256199 0.350731
v -0.005136 0.682939 0.319744
v -0.001915 0.707973 0.313978
v 0.000521 0.721920 0.302052
v -0.144613 0.730537 0.258405
v -0.150666 0.716805 0.269243
v -0.153886 0.691771 0.275010
v -0.151848 0.674305 0.271359
v -0.006713 0.665687 0.315006
v 0.126783 0.266187 0.333004
v 0.127689 0.292011 0.331382
v 0.125019 0.307411 0.322536
v 0.122983 0.249404 0.326181
v 0.146798 0.658192 0.297167
v 0.150019 0.683225 0.291400
v 0.148761 0.697774 0.280024
v 0.141527 0.641542 0.292977
v 0.253893 0.256124 0.243854
v 0.254799 0.281947 0.242231
v 0.249038 0.297592 0.235552
v 0.247003 0.239585 0.239198
v 0.271822 0.622431 0.211749
v 0.275043 0.647465 0.205983
v 0.270746 0.662883 0.196683
v 0.263512 0.606650 0.209637
v 0.329559 0.244954 0.108371
v 0.330466 0.270777 0.106748
v 0.322865 0.286694 0.103362
v 0.320830 0.228687 0.107007
v 0.345175 0.582740 0.080410
v 0.348395 0.607773 0.074643
v 0.342315 0.624157 0.068537
v 0.335081 0.567924 0.081490
v 0.320616 0.237574 -0.014060
v 0.321522 0.263397 -0.015682
v 0.313698 0.279559 -0.015299
v 0.311662 0.221552 -0.011654
v 0.334703 0.547126 -0.039282
v 0.337923 0.572160 -0.045048
v 0.331669 0.589412 -0.047478
v 0.324435 0.533180 -0.034524
v 0.266028 0.219984 -0.125093
v 0.266935 0.245808 -0.126716
v 0.260545 0.262138 -0.122838
v 0.258509 0.204131 -0.119192
v 0.261744 0.538529 -0.158112
v 0.264964 0.563562 -0.163878
v 0.260180 0.581417 -0.162875
v 0.252946 0.525184 -0.149922
v 0.112655 0.234880 -0.173071
v 0.113561 0.260703 -0.174694
v 0.109982 0.277094 -0.168284
v 0.107945 0.219088 -0.164639
v 0.083207 0.546943 -0.221295
v 0.086428 0.571977 -0.227062
v 0.084466 0.590046 -0.223550
v 0.077232 0.533813 -0.210597
v -0.016151 0.232512 -0.282688
v -0.015244 0.258336 -0.284311
v -0.015195 0.274666 -0.276837
v -0.017231 0.216659 -0.273191
v -0.003113 0.538529 -0.306033
v 0.000107 0.563562 -0.311799
v 0.001762 0.581417 -0.307199
v -0.005472 0.525184 -0.294246
v -0.156640 0.237574 -0.280603
v -0.155733 0.263397 -0.282227
v -0.151955 0.279559 -0.275363
v -0.153991 0.221552 -0.271718
v -0.142553 0.556515 -0.305826
v -0.139333 0.581549 -0.311593
v -0.133984 0.598802 -0.307541
v -0.141218 0.542569 -0.294589
v -0.256169 0.232236 -0.218755
v -0.255262 0.258059 -0.220377
v -0.248394 0.273976 -0.215682
v -0.250430 0.215969 -0.212036
v -0.240553 0.570022 -0.246715
v -0.237333 0.595056 -0.252481
v -0.228944 0.611439 -0.250508
v -0.236179 0.555206 -0.237554
v -0.341235 0.256124 -0.088521
v -0.340329 0.281947 -0.090144
v -0.331622 0.297592 -0.088742
v -0.333658 0.239585 -0.085097
v -0.323306 0.622431 -0.120626
v -0.320085 0.647465 -0.126392
v -0.309913 0.662883 -0.127611
v -0.317148 0.606650 -0.114657
v -0.350473 0.266187 0.066461
v -0.349566 0.292011 0.064838
v -0.340634 0.307411 0.062472
v -0.342670 0.249404 0.066117
v -0.330458 0.658192 0.030623
v -0.327237 0.683225 0.024857
v -0.316892 0.697774 0.019960
v -0.324126 0.641542 0.032913
v -0.291451 0.273152 0.210245
v -0.290545 0.298975 0.208622
v -0.283047 0.314206 0.202761
v -0.285083 0.256199 0.206407
v -0.269993 0.682939 0.171823
v -0.266772 0.707973 0.166057
v -0.257896 0.721920 0.157728
v -0.265131 0.665687 0.170681
v -0.121758 0.823925 0.217483
v -0.227902 0.815851 0.123150
v 0.014229 0.815851 0.258378
v -0.283179 0.793227 -0.005935
v -0.276641 0.760535 -0.144206
v -0.209582 0.724249 -0.264276
v -0.112910 0.701093 -0.310807
v 0.013494 0.685230 -0.309077
v 0.117441 0.705439 -0.260678
v 0.265825 0.679574 -0.160153
v 0.323396 0.701093 -0.067134
v 0.334482 0.724249 0.039580
v 0.267423 0.760535 0.159650
v 0.153127 0.793227 0.237739
v -0.155327 0.489441 0.277589
v -0.261097 0.485226 0.182588
v -0.018966 0.485226 0.317817
v -0.315329 0.473418 0.051631
v -0.307279 0.456355 -0.089345
v -0.238544 0.437416 -0.212419
v -0.140801 0.425330 -0.260867
v -0.013664 0.417050 -0.260449
v 0.072044 0.423498 -0.157609
v 0.247934 0.417050 -0.114349
v 0.295505 0.425330 -0.017194
v 0.305521 0.437416 0.091437
v 0.236785 0.456355 0.214510
v 0.120976 0.473418 0.295304
v -0.165387 0.156206 0.295603
v -0.271060 0.153933 0.200427
v -0.028929 0.153933 0.335655
v -0.325018 0.147567 0.068980
v -0.316574 0.138367 -0.072704
v -0.247399 0.128155 -0.196562
v -0.149376 0.121639 -0.245512
v -0.022048 0.117175 -0.245438
v 0.112004 0.116549 -0.180530
v 0.220083 0.117175 -0.110209
v 0.286929 0.121639 -0.001839
v 0.296664 0.128155 0.107293
v 0.227490 0.138367 0.231152
v 0.111287 0.147567 0.312653
v -0.051130 0.884012 0.053206
v -0.037015 0.885086 0.065749
v -0.058480 0.881004 0.036042
v -0.240804 0.859221 -0.160346
v -0.178786 0.825663 -0.271392
v -0.033496 0.867485 -0.008693
v -0.015027 0.864476 -0.011437
v 0.003055 0.863403 -0.005999
v 0.017169 0.864476 0.006544
v 0.024519 0.867485 0.023708
v 0.324389 0.825663 0.009627
v 0.262370 0.859221 0.120673
v -0.000465 0.881004 0.068443
v -0.018934 0.884012 0.071187
v 0.005826 0.884942 -0.010961
v -0.034245 0.906625 0.060787
v -0.016163 0.905551 0.066225
v 0.019940 0.886016 0.001583
v 0.002306 0.902543 0.063480
v 0.012691 0.891402 0.020916
v -0.048359 0.905551 0.048244
v -0.012256 0.886016 -0.016398
v -0.041110 0.900165 0.028911
v -0.030725 0.889024 -0.013654
v -0.040546 0.897347 0.016993
v -0.034767 0.894220 0.006644
v 0.012128 0.894220 0.032834
v 0.006348 0.897347 0.043183
v -0.036345 0.902115 0.040037
v -0.027197 0.902811 0.048168
v -0.055708 0.902543 0.031080
v -0.054839 0.898196 0.012694
v -0.045923 0.893371 -0.003271
v -0.024915 0.891402 -0.000087
v -0.012943 0.889452 -0.001866
v -0.001222 0.888756 0.001659
v 0.007927 0.889452 0.009790
v 0.027290 0.889024 0.018747
v 0.026420 0.893371 0.037132
v 0.017504 0.898196 0.053098
v -0.003504 0.900165 0.049913
v -0.015476 0.902115 0.051692
v -0.002666 0.877532 0.004244
v -0.028641 0.891587 0.050753
v -0.016920 0.890891 0.054278
v 0.006483 0.878228 0.012375
v -0.004947 0.888941 0.052499
v 0.011247 0.880178 0.023502
v -0.037789 0.890891 0.042623
v -0.014387 0.878228 0.000720
v -0.042554 0.888941 0.031497
v -0.026359 0.880178 0.002499
v -0.041991 0.886123 0.019578
v -0.036211 0.882996 0.009230
v 0.010684 0.882996 0.035419
v 0.004904 0.886123 0.045768
vn -0.2804 -0.0719 0.9572
vn -0.2623 -0.3597 0.8955
vn 0.1627 -0.0720 0.9840
vn 0.1522 -0.3597 0.9206
vn 0.5736 -0.0719 0.8160
vn 0.5366 -0.3597 0.7634
vn 0.8708 -0.0720 0.4863
vn 0.8146 -0.3596 0.4550
vn 0.9947 -0.0735 -0.0721
vn 0.9278 -0.3664 -0.0700
vn 0.8570 -0.0736 -0.5100
vn 0.7981 -0.3668 -0.4780
vn 0.9982 -0.0000 0.0605
vn 0.6369 -0.0726 -0.7676
vn 0.5946 -0.3624 -0.7177
vn -0.8296 0.2245 0.5112
vn 0.3195 -0.0726 -0.9448
vn 0.2992 -0.3624 -0.8827
vn -0.0153 -0.0736 -0.9972
vn -0.0116 -0.3668 -0.9302
vn -0.4603 -0.0735 -0.8847
vn -0.4270 -0.3664 -0.8267
vn -0.8708 -0.0719 -0.4863
vn 0.6696 -0.0000 -0.7427
vn -0.8146 -0.3597 -0.4550
vn -0.9956 -0.0719 -0.0603
vn 0.2654 -0.2488 -0.9315
vn 0.9256 -0.0000 -0.3786
vn -0.9314 -0.3597 -0.0565
vn 0.9130 -0.1994 -0.3560
vn 0.9912 -0.1107 0.0730
vn 0.8731 -0.0000 0.4876
vn 0.4335 -0.0000 0.9011
vn 0.4428 0.1468 0.8845
vn -0.0144 -0.0000 0.9999
vn -0.0001 0.2246 0.9745
vn -0.3273 -0.0000 0.9449
vn -0.3685 0.2534 0.8944
vn -0.6328 -0.0000 0.7743
vn -0.5683 0.2535 0.7828
vn -0.9232 -0.0720 0.3776
vn -0.8438 -0.0000 0.5367
vn -0.9946 -0.0000 0.1035
vn -0.9853 0.1468 0.0869
vn -0.8731 -0.0000 -0.4876
vn -0.5750 -0.0000 -0.8181
vn -0.5820 -0.1107 -0.8056
vn -0.1631 -0.0000 -0.9866
vn -0.1757 -0.1995 -0.9640
vn -0.8636 -0.3596 0.3532
vn 0.6539 -0.2487 -0.7145
vn -0.5821 -0.1107 -0.8056
vn -0.0000 -1.0000 -0.0000
vn 0.5821 0.1107 0.8056
vn -0.9912 0.1107 -0.0730
vn -0.6679 -0.0719 0.7407
vn -0.6248 -0.3597 0.6930
vn 0.1101 0.9481 -0.2982
vn -0.0350 -0.9974 0.0627
vn -0.0000 1.0000 -0.0000
vn 0.0350 0.9974 -0.0627
vn -0.1244 -0.9669 0.2227
vn -0.9951 -0.0000 0.0987
vn 0.1244 0.9669 -0.2227
vn -0.8320 0.2239 0.5075
vn 0.5327 -0.6060 -0.5908
vn 0.5956 0.3881 -0.7033
vn 0.7363 -0.6060 -0.3011
vn 0.8016 0.4272 -0.4182
vn 0.7940 -0.6060 0.0481
vn 0.8638 0.4979 -0.0769
vn 0.6945 -0.6060 0.3879
vn 0.7699 0.5859 0.2529
vn 0.3546 -0.5867 0.7280
vn 0.4257 0.7104 0.5605
vn -0.0080 -0.5844 0.8114
vn 0.0764 0.7719 0.6312
vn -0.2607 -0.6014 0.7552
vn -0.2148 0.7931 0.5700
vn -0.5016 -0.6097 0.6137
vn -0.3848 0.7783 0.4961
vn -0.6652 -0.6153 0.4231
vn -0.6024 0.7468 0.2817
vn -0.7843 -0.6150 0.0816
vn -0.7254 0.6853 -0.0641
vn -0.6945 -0.6059 -0.3879
vn -0.6191 0.5859 -0.5229
vn -0.4574 -0.6059 -0.6508
vn -0.3877 0.4978 -0.7758
vn -0.1298 -0.6060 -0.7848
vn -0.0644 0.4273 -0.9018
vn 0.2236 -0.6060 -0.7634
vn 0.2865 0.3881 -0.8760
vn 0.2811 -0.0000 -0.9597
vn -0.6666 0.1094 0.7373
vn -0.6646 0.1205 0.7375
vn -0.9214 0.0716 0.3820
vn 0.1612 -0.0147 0.9868
vn 0.1645 0.0749 0.9835
vn 0.1580 0.0716 0.9848
vn 0.5717 -0.0396 0.8195
vn 0.5737 0.0159 0.8189
vn 0.5608 -0.0164 0.8278
vn 0.8684 -0.0707 0.4908
vn 0.8683 -0.0535 0.4932
vn 0.8494 -0.1261 0.5125
vn 0.9903 -0.1125 -0.0816
vn 0.9865 -0.1459 -0.0747
vn 0.9617 -0.2711 -0.0411
vn 0.8270 -0.2580 -0.4995
vn 0.8894 -0.1805 -0.4201
vn 0.8333 -0.3379 -0.4376
vn 0.5232 0.2749 -0.8066
vn 0.2250 -0.2240 -0.9483
vn 0.4412 -0.4610 -0.7699
vn 0.4311 -0.1385 -0.8916
vn 0.7571 -0.2128 -0.6176
vn -0.8462 -0.0000 0.5329
vn 0.4503 -0.3701 -0.8126
vn -0.0042 -0.1348 -0.9909
vn -0.0083 -0.1767 -0.9842
vn -0.0311 -0.3497 -0.9363
vn -0.4479 -0.0231 -0.8938
vn -0.4499 -0.0694 -0.8904
vn -0.4694 -0.2711 -0.8403
vn -0.8709 0.0404 -0.4897
vn -0.8707 0.0295 -0.4908
vn -0.8818 -0.1261 -0.4544
vn -0.9976 -0.0396 -0.0569
vn -0.9981 0.0159 -0.0589
vn -0.9989 -0.0164 -0.0434
vn -0.9247 -0.0147 0.3803
vn -0.9237 0.0749 0.3758
vn -0.5280 -0.3882 0.7553
vn -0.2816 -0.0008 0.9595
vn -0.2781 0.1094 0.9543
vn -0.2793 0.1205 0.9526
vn -0.6337 -0.0000 0.7736
vn -0.1783 -0.9429 0.2814
vn 0.1458 0.9431 -0.2987
vn -0.4490 0.2550 0.8564
vn -0.0931 -0.9875 0.1269
vn 0.0590 0.9877 -0.1451
vn -0.3263 -0.0000 0.9453
vn -0.0157 -0.9837 0.1791
vn 0.0482 0.9891 -0.1389
vn 0.0043 0.2239 0.9746
vn 0.0759 -0.9970 0.0171
vn -0.0430 0.9988 0.0239
vn -0.0099 -0.0000 1.0000
vn 0.2654 -0.2487 -0.9315
vn -0.6692 -0.0008 0.7431
vn 0.4471 0.1458 0.8825
vn 0.4379 -0.0000 0.8990
vn -0.0928 -0.9955 -0.0200
vn 0.1086 0.9939 -0.0213
vn -0.1437 -0.9667 0.2119
vn -0.1368 -0.9788 0.1525
vn -0.1110 -0.9641 0.2412
vn 0.1649 0.9723 -0.1658
vn -0.0172 -0.9856 0.1681
vn -0.0285 0.9879 -0.1522
vn -0.9859 0.1458 0.0822
vn -0.1451 -0.9441 0.2961
vn -0.5654 0.5798 0.5866
vn -0.8071 0.5339 0.2521
vn -0.8801 0.4510 -0.1483
vn -0.7699 0.3478 -0.5351
vn -0.3979 0.2045 -0.8943
vn 0.0155 0.1269 -0.9918
vn 0.4485 0.0908 -0.8891
vn 0.5218 0.0908 -0.8482
vn 0.8363 0.1269 -0.5333
vn 0.9702 0.2044 -0.1303
vn 0.8594 0.3478 0.3749
vn 0.5878 0.4510 0.6716
vn 0.2087 0.5339 0.8194
vn -0.2029 0.5799 0.7891
vn -0.1501 -0.9868 0.0614
vn 0.1800 0.9142 -0.3631
vn 0.0167 0.9944 -0.1039
vn 0.1045 -0.9865 -0.1262
vn 0.0797 0.9944 -0.0687
vn -0.0456 -0.9868 0.1556
vn 0.2182 0.9048 -0.3657
vn 0.0524 -0.9870 -0.1519
vn 0.1512 0.9865 -0.0634
vn -0.0253 0.9865 -0.1620
vn 0.1456 -0.9855 -0.0872
vn -0.1086 -0.9868 0.1204
vn 0.2546 0.9192 -0.3003
vn -0.1619 -0.9868 -0.0098
vn 0.1683 -0.9857 -0.0127
vn -0.0380 0.9721 -0.2316
vn 0.2791 0.9316 -0.2329
vn -0.1416 -0.9868 -0.0791
vn 0.1416 -0.9868 0.0791
vn -0.0188 0.9541 -0.2989
vn 0.2643 0.9541 -0.1407
vn -0.0694 -0.9874 -0.1425
vn 0.0933 -0.9868 0.1327
vn 0.0436 0.9293 -0.3668
vn 0.2171 0.9721 -0.0891
vn 0.0016 -0.9874 -0.1584
vn 0.0265 -0.9868 0.1600
vn 0.1181 0.9153 -0.3850
vn -0.2749 0.2094 0.9384
vn 0.1595 0.2093 0.9648
vn 0.5623 0.2093 0.8000
vn 0.8537 0.2093 0.4768
vn 0.9770 0.2015 -0.0702
vn 0.8422 0.2004 -0.5005
vn 0.6248 0.2073 -0.7528
vn 0.3132 0.2073 -0.9268
vn -0.0156 0.2004 -0.9796
vn -0.4526 0.2015 -0.8686
vn -0.8537 0.2093 -0.4768
vn -0.9761 0.2093 -0.0592
vn -0.9051 0.2093 0.3702
vn -0.6548 0.2093 0.7262
vn -0.2799 0.0700 0.9575
vn -0.2654 0.2487 0.9315
vn 0.1641 0.0561 0.9848
vn 0.1757 0.1994 0.9640
vn 0.5756 0.0312 0.8171
vn 0.5820 0.1107 0.8056
vn 0.9967 -0.0394 -0.0704
vn 0.9894 -0.1378 -0.0456
vn 0.8995 -0.0588 -0.4329
vn 0.8379 -0.2226 -0.4984
vn 0.2916 -0.0702 -0.9540
vn 0.3124 -0.2512 -0.9161
vn 0.6472 -0.0704 -0.7590
vn 0.6912 -0.2455 -0.6797
vn -0.0171 -0.0622 -0.9979
vn -0.0299 -0.2207 -0.9749
vn -0.5261 -0.0349 -0.8497
vn -0.5251 -0.1263 -0.8416
vn -0.8376 -0.0049 -0.5462
vn -0.8392 -0.0173 -0.5436
vn -0.9976 0.0312 -0.0615
vn -0.9246 0.0561 0.3768
vn -0.9130 0.1995 0.3560
vn -0.6684 0.0700 0.7405
vn -0.6539 0.2487 0.7145
vn -0.2317 0.5247 0.8191
vn -0.2657 -0.3863 0.8833
vn -0.1810 0.6572 0.7317
vn -0.2928 -0.2283 0.9285
vn 0.1616 0.5125 0.8434
vn 0.1308 -0.3987 0.9077
vn 0.2129 0.6132 0.7607
vn 0.0980 -0.2719 0.9573
vn 0.5261 0.4903 0.6948
vn 0.4983 -0.4210 0.7580
vn 0.5758 0.5339 0.6192
vn 0.4579 -0.3505 0.8170
vn 0.7897 0.4627 0.4029
vn 0.7639 -0.4488 0.4636
vn 0.8357 0.4351 0.3352
vn 0.7157 -0.4486 0.5353
vn 0.9060 0.4133 -0.0911
vn 0.8699 -0.4918 -0.0376
vn 0.9427 0.2857 -0.1721
vn 0.8169 -0.5689 0.0954
vn 0.7960 0.3962 -0.4576
vn 0.8057 -0.5002 -0.3172
vn 0.8230 0.2249 -0.5216
vn 0.6598 -0.6579 -0.3632
vn 0.3108 0.3330 -0.8902
vn 0.2024 -0.5075 -0.8375
vn 0.3362 0.1424 -0.9310
vn 0.2115 -0.6734 -0.7083
vn 0.5954 0.4020 -0.6956
vn 0.5849 -0.4458 -0.6776
vn 0.6843 0.2100 -0.6983
vn 0.5948 -0.5887 -0.5474
vn 0.0051 0.4162 -0.9093
vn -0.0305 -0.4886 -0.8720
vn 0.0340 0.2464 -0.9686
vn -0.0824 -0.6301 -0.7722
vn -0.4919 0.4352 -0.7541
vn -0.4442 -0.4714 -0.7619
vn -0.4521 0.3344 -0.8269
vn -0.4802 -0.5595 -0.6755
vn -0.7010 0.4626 -0.5427
vn -0.7839 -0.4482 -0.4298
vn -0.6705 0.4172 -0.6135
vn -0.8201 -0.4525 -0.3502
vn -0.8675 0.4903 -0.0835
vn -0.9067 -0.4210 -0.0267
vn -0.8292 0.5339 -0.1654
vn -0.9358 -0.3505 0.0386
vn -0.8028 0.5125 0.3047
vn -0.8415 -0.3987 0.3647
vn -0.7593 0.6132 0.2177
vn -0.8665 -0.2719 0.4187
vn -0.5759 0.5247 0.6269
vn -0.6127 -0.3863 0.6895
vn -0.5280 0.6572 0.5379
vn -0.6370 -0.2282 0.7363
vn -0.2855 0.0409 0.9575
vn -0.2557 0.3176 0.9131
vn 0.1458 -0.0073 0.9893
vn 0.1842 0.2685 0.9455
vn 0.5431 -0.0942 0.8344
vn 0.5895 0.1800 0.7875
vn 0.8277 -0.2024 0.5234
vn 0.8798 0.0696 0.4703
vn 0.9390 -0.3437 -0.0087
vn 0.9948 -0.0729 -0.0711
vn 0.7986 -0.4227 -0.4284
vn 0.8523 -0.1537 -0.5000
vn 0.4806 -0.4559 -0.7491
vn 0.5234 -0.1828 -0.8322
vn 0.3857 -0.4559 -0.8021
vn 0.4340 -0.1828 -0.8821
vn -0.0541 -0.4226 -0.9047
vn -0.0213 -0.1537 -0.9879
vn -0.4851 -0.3437 -0.8041
vn -0.4612 -0.0729 -0.8843
vn -0.8798 -0.2024 -0.4302
vn -0.8619 0.0696 -0.5024
vn -0.9952 -0.0942 -0.0248
vn -0.9797 0.1800 -0.0889
vn -0.9188 -0.0074 0.3947
vn -0.9016 0.2685 0.3390
vn -0.6655 0.0408 0.7453
vn -0.6433 0.3177 0.6966
vn -0.2560 0.3158 0.9136
vn -0.9800 0.1782 -0.0885
vn -0.8412 -0.0451 -0.5389
vn -0.5196 -0.1335 -0.8439
vn -0.0103 -0.1572 -0.9875
vn 0.7266 -0.1919 -0.6598
vn 0.2560 -0.4631 -0.8485
vn 0.8379 -0.1775 -0.5161
vn 0.9947 -0.0659 -0.0790
vn 0.8796 0.0677 0.4708
vn 0.5893 0.1782 0.7880
vn 0.1840 0.2667 0.9460
vn -0.9020 0.2667 0.3395
vn -0.6436 0.3158 0.6972
vn -0.2790 0.0923 0.9558
vn -0.9233 0.0823 0.3750
vn -0.9958 0.0657 -0.0636
vn -0.8365 -0.0241 -0.5475
vn -0.5245 0.0294 -0.8509
vn -0.0029 0.0164 -0.9999
vn 0.6599 0.1327 -0.7395
vn 0.2724 0.0043 -0.9622
vn 0.8942 0.0073 -0.4475
vn 0.9959 0.0268 -0.0861
vn 0.8737 0.0475 0.4841
vn 0.5765 0.0657 0.8145
vn 0.1650 0.0823 0.9829
vn -0.6675 0.0923 0.7389
vn -0.6690 0.0442 0.7419
vn -0.2808 0.0442 0.9587
vn -0.9239 0.0607 0.3779
vn -0.9934 0.0972 -0.0602
vn -0.8623 0.1567 -0.4816
vn -0.4404 0.2422 -0.8645
vn -0.0067 0.2990 -0.9542
vn 0.3067 0.3073 -0.9008
vn 0.5546 0.4917 -0.6713
vn 0.8160 0.2990 -0.4948
vn 0.9670 0.2422 -0.0785
vn 0.8623 0.1567 0.4816
vn 0.5723 0.0972 0.8142
vn 0.1628 0.0607 0.9848
vn 0.9129 -0.1995 -0.3560
vn 0.1758 0.1994 0.9640
vn -0.1757 -0.1994 -0.9640
vn -0.2653 0.2487 0.9315
vn 0.2653 -0.2487 -0.9315
vn 0.9130 -0.1995 -0.3560
vn 0.1243 0.9669 -0.2228
vn 0.1758 0.1995 0.9640
vn -0.2804 -0.0720 0.9572
vn 0.1627 -0.0719 0.9841
vn 0.5735 -0.0720 0.8160
vn 0.5366 -0.3596 0.7634
vn 0.9950 -0.0692 -0.0715
vn 0.9353 -0.3473 -0.0678
vn 0.8576 -0.0688 -0.5097
vn 0.8064 -0.3455 -0.4799
vn 0.6370 -0.0712 -0.7675
vn 0.5966 -0.3565 -0.7190
vn 0.3194 -0.0713 -0.9449
vn 0.2993 -0.3564 -0.8851
vn -0.0159 -0.0688 -0.9975
vn -0.0144 -0.3455 -0.9383
vn -0.4610 -0.0692 -0.8847
vn -0.4328 -0.3473 -0.8319
vn -0.9314 -0.3596 -0.0565
vn -0.0002 0.2245 0.9745
vn -0.3685 0.2535 0.8944
vn -0.5683 0.2534 0.7828
vn -0.9232 -0.0719 0.3776
vn -0.8636 -0.3597 0.3532
vn 0.6539 -0.2488 -0.7145
vn -0.6679 -0.0720 0.7408
vn 0.1451 0.9441 -0.2961
vn 0.8639 0.4978 -0.0769
vn 0.3419 -0.6150 0.7106
vn 0.4351 0.6853 0.5840
vn -0.0113 -0.6153 0.7882
vn 0.0762 0.7468 0.6606
vn -0.2595 -0.6097 0.7489
vn -0.2206 0.7783 0.5879
vn -0.5063 -0.6013 0.6181
vn -0.3726 0.7931 0.4818
vn -0.6866 -0.5844 0.4324
vn -0.5775 0.7719 0.2660
vn -0.8059 -0.5867 0.0799
vn -0.7005 0.7104 -0.0685
vn -0.6191 0.5859 -0.5228
vn -0.4574 -0.6060 -0.6508
vn -0.3876 0.4979 -0.7758
vn -0.0644 0.4272 -0.9019
vn -0.6649 0.1112 0.7386
vn 0.1593 0.0803 0.9840
vn 0.5685 0.0235 0.8223
vn 0.8661 -0.0463 0.4977
vn 0.9911 -0.1076 -0.0777
vn 0.9900 -0.1274 -0.0599
vn 0.9644 -0.2618 -0.0365
vn 0.8958 -0.1281 -0.4255
vn 0.8457 -0.0834 -0.5270
vn 0.8261 -0.3096 -0.4709
vn 0.2623 -0.0899 -0.9608
vn 0.2817 -0.3221 -0.9038
vn 0.4853 -0.4068 -0.7739
vn 0.6406 0.2640 -0.7211
vn 0.7284 -0.1689 -0.6640
vn 0.3960 -0.4415 -0.8052
vn -0.0080 -0.1296 -0.9915
vn -0.0122 -0.1718 -0.9851
vn -0.0363 -0.3403 -0.9396
vn -0.5152 -0.1074 -0.8503
vn -0.5194 -0.1258 -0.8452
vn -0.4748 -0.2618 -0.8403
vn -0.8387 -0.0742 -0.5394
vn -0.8427 -0.0556 -0.5355
vn -0.9983 0.0235 -0.0528
vn -0.9213 0.0803 0.3805
vn -0.4937 0.2550 0.8314
vn -0.2801 0.1112 0.9535
vn -0.1458 -0.9431 0.2987
vn 0.1783 0.9429 -0.2814
vn -0.3661 -0.3882 0.8457
vn -0.0590 -0.9877 0.1450
vn 0.0931 0.9875 -0.1269
vn -0.0482 -0.9891 0.1389
vn 0.0157 0.9837 -0.1791
vn 0.0043 0.2240 0.9746
vn 0.0430 -0.9988 -0.0239
vn -0.0759 0.9970 -0.0171
vn 0.1244 0.9669 -0.2228
vn 0.4471 0.1457 0.8825
vn -0.1086 -0.9939 0.0213
vn 0.0928 0.9955 0.0200
vn -0.1472 -0.9641 0.2210
vn -0.1648 -0.9723 0.1658
vn -0.1050 -0.9667 0.2335
vn 0.1367 0.9788 -0.1525
vn 0.0285 -0.9879 0.1522
vn 0.0172 0.9856 -0.1681
vn -0.1101 -0.9481 0.2982
vn -0.7699 0.3477 -0.5351
vn -0.3897 0.2233 -0.8935
vn 0.0211 0.1490 -0.9886
vn 0.4508 0.1182 -0.8848
vn 0.5169 0.1182 -0.8479
vn 0.8307 0.1489 -0.5364
vn 0.9651 0.2233 -0.1368
vn -0.2029 0.5798 0.7891
vn 0.1969 0.9048 -0.3776
vn 0.1018 -0.9870 -0.1243
vn 0.2148 0.9142 -0.3437
vn 0.0526 -0.9865 -0.1552
vn 0.1341 -0.9874 -0.0844
vn 0.2659 0.9153 -0.3025
vn 0.1578 -0.9874 -0.0156
vn 0.2894 0.9293 -0.2295
vn -0.0189 0.9541 -0.2989
vn -0.0775 -0.9857 -0.1500
vn 0.0519 0.9316 -0.3598
vn -0.0021 -0.9855 -0.1697
vn 0.1221 0.9192 -0.3743
vn -0.2749 0.2093 0.9384
vn 0.1595 0.2094 0.9647
vn 0.9743 0.2136 -0.0718
vn 0.8389 0.2139 -0.5005
vn 0.6239 0.2111 -0.7524
vn 0.3134 0.2111 -0.9259
vn -0.0138 0.2139 -0.9768
vn -0.4499 0.2137 -0.8672
vn 0.5756 0.0311 0.8171
vn -0.0170 -0.0621 -0.9979
vn -0.5261 -0.0350 -0.8497
vn -0.9976 0.0311 -0.0615
vn -0.9246 0.0562 0.3768
vn -0.2317 0.5248 0.8191
vn -0.2928 -0.2282 0.9285
vn 0.1616 0.5124 0.8434
vn 0.7897 0.4628 0.4029
vn 0.7639 -0.4488 0.4637
vn 0.8357 0.4350 0.3352
vn 0.8951 0.4356 -0.0953
vn 0.8818 -0.4702 -0.0361
vn 0.9333 0.3137 -0.1750
vn 0.8260 -0.5560 0.0932
vn 0.7882 0.4161 -0.4534
vn 0.8066 -0.4985 -0.3176
vn 0.8158 0.2479 -0.5225
vn 0.6818 -0.6292 -0.3731
vn 0.3009 0.4036 -0.8640
vn 0.2304 -0.4336 -0.8712
vn 0.3282 0.2144 -0.9200
vn 0.2366 -0.6168 -0.7507
vn 0.6086 0.3287 -0.7222
vn 0.5680 -0.5130 -0.6436
vn 0.6895 0.1201 -0.7143
vn 0.5673 -0.6597 -0.4928
vn 0.0004 0.3908 -0.9205
vn -0.0276 -0.5123 -0.8583
vn 0.0270 0.2206 -0.9750
vn -0.0816 -0.6516 -0.7541
vn -0.4920 0.4348 -0.7542
vn -0.4410 -0.4899 -0.7520
vn -0.4533 0.3318 -0.8273
vn -0.4783 -0.5783 -0.6609
vn -0.7093 0.4438 -0.5476
vn -0.7819 -0.4528 -0.4284
vn -0.6796 0.3997 -0.6151
vn -0.8186 -0.4569 -0.3481
vn -0.8414 -0.3987 0.3647
vn -0.6370 -0.2283 0.7363
vn 0.1458 -0.0074 0.9893
vn 0.5431 -0.0941 0.8344
vn 0.8277 -0.2023 0.5234
vn 0.8798 0.0695 0.4703
vn 0.9432 -0.3320 -0.0098
vn 0.9950 -0.0687 -0.0726
vn 0.8036 -0.4100 -0.4314
vn 0.8523 -0.1490 -0.5014
vn 0.4854 -0.4419 -0.7544
vn 0.5225 -0.1884 -0.8316
vn 0.3877 -0.4419 -0.8090
vn 0.4339 -0.1884 -0.8810
vn -0.0542 -0.4100 -0.9105
vn -0.0201 -0.1490 -0.9886
vn -0.4864 -0.3320 -0.8082
vn -0.4600 -0.0687 -0.8852
vn -0.8619 0.0695 -0.5024
vn -0.9952 -0.0941 -0.0248
vn -0.9796 0.1800 -0.0889
vn -0.9188 -0.0073 0.3947
vn -0.6433 0.3176 0.6966
vn -0.2560 0.3159 0.9136
vn -0.8622 0.0677 -0.5020
vn -0.4468 -0.0738 -0.8916
vn -0.0056 -0.1527 -0.9882
vn 0.4447 -0.4874 -0.7515
vn 0.5384 -0.1405 -0.8309
vn 0.8561 -0.1418 -0.4970
vn 0.9932 -0.0784 -0.0862
vn -0.6436 0.3159 0.6971
vn -0.2791 0.0924 0.9558
vn -0.9234 0.0822 0.3750
vn -0.9958 0.0647 -0.0647
vn -0.8692 0.0448 -0.4924
vn -0.4474 -0.0357 -0.8936
vn 0.0039 0.0097 -0.9999
vn 0.7683 -0.0024 -0.6401
vn 0.2400 0.0404 -0.9699
vn 0.8976 0.0137 -0.4406
vn 0.9954 0.0201 -0.0940
vn 0.8751 0.0448 0.4819
vn 0.5774 0.0647 0.8139
vn 0.1650 0.0822 0.9829
vn -0.6674 0.0924 0.7390
vn -0.6691 0.0440 0.7419
vn -0.2807 0.0440 0.9588
vn -0.9245 0.0586 0.3767
vn -0.9939 0.0894 -0.0650
vn -0.8598 0.1384 -0.4916
vn -0.4254 0.2112 -0.8800
vn 0.0099 0.2675 -0.9635
vn 0.3737 0.5221 -0.7667
vn 0.5185 0.3030 -0.7996
vn 0.8151 0.2675 -0.5138
vn 0.9724 0.2112 -0.0994
vn 0.8695 0.1384 0.4742
vn 0.5766 0.0894 0.8121
vn 0.1642 0.0586 0.9847
vn 0.9912 -0.1107 0.0731
vn 0.9129 -0.1994 -0.3560
vn -0.9130 0.1994 0.3560
vn 0.1757 0.1995 0.9640
vn -0.5821 -0.1106 -0.8056
vt 0.531069 0.862797
vt 0.526157 0.861646
vt 0.526157 0.862797
vt 0.526157 0.863948
vt 0.531069 0.863948
vt 0.535980 0.862797
vt 0.531069 0.861646
vt 0.535980 0.863948
vt 0.540892 0.862797
vt 0.535980 0.861646
vt 0.540892 0.863948
vt 0.545803 0.861646
vt 0.545803 0.862797
vt 0.545803 0.863948
vt 0.550715 0.861646
vt 0.550715 0.862797
vt 0.550715 0.863948
vt 0.555627 0.861646
vt 0.555627 0.862797
vt 0.555627 0.863948
vt 0.575013 0.861244
vt 0.573195 0.865017
vt 0.560538 0.861646
vt 0.560538 0.862797
vt 0.560538 0.863948
vt 0.558503 0.853187
vt 0.561777 0.850575
vt 0.565450 0.862797
vt 0.565450 0.863948
vt 0.570362 0.862797
vt 0.565450 0.861646
vt 0.570362 0.863948
vt 0.575273 0.862797
vt 0.570362 0.861646
vt 0.575273 0.863948
vt 0.580185 0.862797
vt 0.575273 0.861646
vt 0.569921 0.867628
vt 0.565838 0.868560
vt 0.580185 0.863948
vt 0.585097 0.862797
vt 0.580185 0.861646
vt 0.561777 0.867533
vt 0.565860 0.868465
vt 0.585097 0.863948
vt 0.569943 0.867533
vt 0.573218 0.864921
vt 0.575035 0.861148
vt 0.575013 0.857056
vt 0.575035 0.856960
vt 0.573195 0.853282
vt 0.573218 0.853187
vt 0.569921 0.850671
vt 0.569943 0.850575
vt 0.565838 0.849739
vt 0.565860 0.849643
vt 0.561755 0.850671
vt 0.590008 0.861646
vt 0.590008 0.862797
vt 0.558481 0.853282
vt 0.556663 0.857056
vt 0.556686 0.856960
vt 0.556663 0.861244
vt 0.556686 0.861148
vt 0.558481 0.865017
vt 0.558503 0.864921
vt 0.561755 0.867628
vt 0.590008 0.863948
vt 0.570029 0.860543
vt 0.571087 0.862740
vt 0.560402 0.865179
vt 0.561460 0.867376
vt 0.571087 0.865179
vt 0.560402 0.862740
vt 0.570029 0.867376
vt 0.561460 0.860543
vt 0.554779 0.890976
vt 0.551505 0.905322
vt 0.554779 0.907933
vt 0.594920 0.861646
vt 0.594920 0.862797
vt 0.594920 0.863948
vt 0.553871 0.859422
vt 0.555381 0.859422
vt 0.590008 0.857321
vt 0.594920 0.857321
vt 0.546896 0.901936
vt 0.545386 0.901936
vt 0.570037 0.867727
vt 0.565860 0.868680
vt 0.567456 0.860484
vt 0.568966 0.860484
vt 0.535980 0.850134
vt 0.540892 0.850134
vt 0.558312 0.853148
vt 0.556453 0.857008
vt 0.545803 0.857321
vt 0.550715 0.857321
vt 0.585097 0.853867
vt 0.590008 0.853867
vt 0.543877 0.901936
vt 0.553871 0.860484
vt 0.555381 0.860484
vt 0.567456 0.859422
vt 0.565947 0.859422
vt 0.531069 0.850134
vt 0.561684 0.850381
vt 0.558334 0.853052
vt 0.565838 0.868776
vt 0.570015 0.867823
vt 0.573387 0.865056
vt 0.575223 0.861292
vt 0.573364 0.865152
vt 0.575245 0.861196
vt 0.575223 0.857008
vt 0.575245 0.856912
vt 0.573364 0.853148
vt 0.573387 0.853052
vt 0.570015 0.850477
vt 0.570037 0.850381
vt 0.565838 0.849523
vt 0.565860 0.849428
vt 0.561661 0.850477
vt 0.556475 0.856912
vt 0.556453 0.861292
vt 0.556475 0.861196
vt 0.558334 0.865056
vt 0.558312 0.865152
vt 0.561684 0.867727
vt 0.561661 0.867823
vt 0.542367 0.901936
vt 0.587944 0.895619
vt 0.583032 0.894172
vt 0.583032 0.895619
vt 0.587944 0.892026
vt 0.583032 0.890439
vt 0.583032 0.892026
vt 0.578121 0.892026
vt 0.540892 0.853867
vt 0.545803 0.853867
vt 0.529004 0.899196
vt 0.524093 0.897626
vt 0.524093 0.899196
vt 0.529004 0.894172
vt 0.524093 0.895619
vt 0.529004 0.895619
vt 0.529004 0.892026
vt 0.524093 0.890439
vt 0.524093 0.892026
vt 0.533916 0.899196
vt 0.529004 0.897626
vt 0.533916 0.894172
vt 0.533916 0.895619
vt 0.585097 0.857321
vt 0.533916 0.890439
vt 0.533916 0.892026
vt 0.538828 0.897626
vt 0.538828 0.899196
vt 0.538828 0.894172
vt 0.538828 0.895619
vt 0.526157 0.850134
vt 0.538828 0.890439
vt 0.538828 0.892026
vt 0.543739 0.897626
vt 0.543739 0.899196
vt 0.543739 0.894172
vt 0.543739 0.895619
vt 0.552362 0.859422
vt 0.543739 0.890439
vt 0.543739 0.892026
vt 0.548651 0.897626
vt 0.548651 0.899196
vt 0.548651 0.895619
vt 0.565947 0.860484
vt 0.548651 0.892026
vt 0.553562 0.897626
vt 0.553562 0.899196
vt 0.553562 0.895619
vt 0.548651 0.894172
vt 0.540858 0.901936
vt 0.553562 0.890439
vt 0.553562 0.892026
vt 0.558474 0.897626
vt 0.558474 0.899196
vt 0.558474 0.895619
vt 0.553562 0.894172
vt 0.558312 0.853148
vt 0.558474 0.890439
vt 0.558474 0.892026
vt 0.563386 0.899196
vt 0.563386 0.895619
vt 0.558474 0.894172
vt 0.540892 0.857321
vt 0.563386 0.892026
vt 0.568297 0.897626
vt 0.568297 0.899196
vt 0.568297 0.894172
vt 0.568297 0.895619
vt 0.580185 0.853867
vt 0.568297 0.892026
vt 0.563386 0.890439
vt 0.573209 0.899196
vt 0.573209 0.895619
vt 0.552362 0.860484
vt 0.573209 0.892026
vt 0.568297 0.890439
vt 0.578121 0.899196
vt 0.573209 0.897626
vt 0.578121 0.895619
vt 0.573209 0.894172
vt 0.564438 0.859422
vt 0.578121 0.890439
vt 0.583032 0.899196
vt 0.578121 0.897626
vt 0.578121 0.894172
vt 0.519181 0.897626
vt 0.519181 0.899196
vt 0.524093 0.894172
vt 0.519181 0.895619
vt 0.519181 0.890439
vt 0.519181 0.892026
vt 0.535980 0.853867
vt 0.580185 0.857321
vt 0.585097 0.857321
vt 0.550853 0.859422
vt 0.564438 0.860484
vt 0.535980 0.857321
vt 0.575273 0.853867
vt 0.550853 0.860484
vt 0.562928 0.859422
vt 0.531069 0.853867
vt 0.575273 0.857321
vt 0.549343 0.859422
vt 0.562928 0.860484
vt 0.531069 0.857321
vt 0.570362 0.853867
vt 0.549343 0.860484
vt 0.561419 0.859422
vt 0.526157 0.853867
vt 0.570362 0.857321
vt 0.561419 0.860484
vt 0.547834 0.859422
vt 0.565450 0.853867
vt 0.526157 0.857321
vt 0.587944 0.899196
vt 0.583032 0.897626
vt 0.559909 0.859422
vt 0.547834 0.860484
vt 0.570362 0.857321
vt 0.565450 0.857321
vt 0.559909 0.860484
vt 0.590008 0.850134
vt 0.594920 0.850134
vt 0.561990 0.901936
vt 0.560480 0.901936
vt 0.560538 0.853867
vt 0.585097 0.850134
vt 0.558400 0.859422
vt 0.558971 0.901936
vt 0.580185 0.850134
vt 0.560538 0.857321
vt 0.557462 0.901936
vt 0.558400 0.860484
vt 0.575273 0.850134
vt 0.555952 0.901936
vt 0.555627 0.853867
vt 0.570362 0.850134
vt 0.556890 0.859422
vt 0.554443 0.901936
vt 0.565450 0.850134
vt 0.558312 0.865152
vt 0.555627 0.857321
vt 0.552933 0.901936
vt 0.556890 0.860484
vt 0.560538 0.850134
vt 0.551424 0.901936
vt 0.550715 0.853867
vt 0.555627 0.850134
vt 0.549914 0.901936
vt 0.550715 0.850134
vt 0.548405 0.901936
vt 0.545803 0.850134
vt 0.594920 0.853867
vt 0.568966 0.859422
vt 0.568966 0.857386
vt 0.567456 0.857740
vt 0.568966 0.857740
vt 0.567456 0.857386
vt 0.565947 0.857740
vt 0.565947 0.857386
vt 0.564438 0.857740
vt 0.562928 0.857386
vt 0.562928 0.857740
vt 0.561419 0.857740
vt 0.561419 0.857386
vt 0.559909 0.857740
vt 0.559909 0.857386
vt 0.558400 0.857740
vt 0.556890 0.857386
vt 0.556890 0.857740
vt 0.555381 0.857386
vt 0.555381 0.857740
vt 0.553871 0.857386
vt 0.553871 0.857740
vt 0.552362 0.857740
vt 0.550853 0.857386
vt 0.550853 0.857740
vt 0.549343 0.857386
vt 0.549343 0.857740
vt 0.547834 0.857740
vt 0.570417 0.868658
vt 0.574089 0.865730
vt 0.556776 0.858337
vt 0.557805 0.857874
vt 0.557805 0.858102
vt 0.558833 0.862609
vt 0.557805 0.863072
vt 0.557805 0.862844
vt 0.565838 0.848596
vt 0.561259 0.849642
vt 0.556677 0.862815
vt 0.556776 0.862609
vt 0.565838 0.869703
vt 0.558833 0.858337
vt 0.558932 0.858131
vt 0.555772 0.862094
vt 0.555951 0.861951
vt 0.559658 0.861951
vt 0.558932 0.862815
vt 0.557587 0.852570
vt 0.555951 0.858995
vt 0.556677 0.858131
vt 0.576127 0.861498
vt 0.555549 0.856801
vt 0.560116 0.861001
vt 0.559837 0.862094
vt 0.555493 0.859945
vt 0.555772 0.858852
vt 0.576127 0.856801
vt 0.555549 0.861498
vt 0.560339 0.859895
vt 0.560339 0.861051
vt 0.555493 0.861001
vt 0.555270 0.859895
vt 0.574089 0.852570
vt 0.557587 0.865730
vt 0.560116 0.859945
vt 0.559837 0.858852
vt 0.555270 0.861051
vt 0.570417 0.849642
vt 0.561259 0.868658
vt 0.559658 0.858995
vt 0.549343 0.861631
vt 0.547834 0.861985
vt 0.549343 0.861985
vt 0.550853 0.861631
vt 0.550853 0.861985
vt 0.552362 0.861631
vt 0.552362 0.861985
vt 0.553871 0.861631
vt 0.553871 0.861985
vt 0.555381 0.861985
vt 0.556890 0.861985
vt 0.555381 0.861631
vt 0.558400 0.861985
vt 0.556890 0.861631
vt 0.559909 0.861631
vt 0.559909 0.861985
vt 0.561419 0.861631
vt 0.561419 0.861985
vt 0.562928 0.861631
vt 0.562928 0.861985
vt 0.564438 0.861631
vt 0.564438 0.861985
vt 0.565947 0.861631
vt 0.565947 0.861985
vt 0.567456 0.861985
vt 0.568966 0.861985
vt 0.567456 0.861631
vt 0.526157 0.856916
vt 0.531069 0.857166
vt 0.531069 0.856916
vt 0.526157 0.853463
vt 0.531069 0.853712
vt 0.531069 0.853463
vt 0.535980 0.856916
vt 0.535980 0.857166
vt 0.535980 0.853712
vt 0.535980 0.853463
vt 0.540892 0.856916
vt 0.540892 0.857166
vt 0.540892 0.853463
vt 0.540892 0.853712
vt 0.545803 0.856916
vt 0.545803 0.857166
vt 0.545803 0.853712
vt 0.545803 0.853463
vt 0.550715 0.856916
vt 0.550715 0.857166
vt 0.550715 0.853463
vt 0.550715 0.853712
vt 0.555627 0.856916
vt 0.555627 0.857166
vt 0.555627 0.853712
vt 0.555627 0.853463
vt 0.560538 0.857166
vt 0.560538 0.856916
vt 0.560538 0.853712
vt 0.560538 0.853463
vt 0.565450 0.856916
vt 0.565450 0.857166
vt 0.565450 0.853712
vt 0.565450 0.853463
vt 0.570362 0.856916
vt 0.570362 0.857166
vt 0.570362 0.853712
vt 0.570362 0.853463
vt 0.575273 0.856916
vt 0.575273 0.857166
vt 0.575273 0.853463
vt 0.575273 0.853712
vt 0.580185 0.857166
vt 0.580185 0.856916
vt 0.580185 0.853712
vt 0.580185 0.853463
vt 0.585097 0.857166
vt 0.585097 0.856916
vt 0.585097 0.853712
vt 0.585097 0.853463
vt 0.590008 0.857166
vt 0.590008 0.856916
vt 0.590008 0.853712
vt 0.590008 0.853463
vt 0.594920 0.857166
vt 0.594920 0.856916
vt 0.594920 0.853712
vt 0.594920 0.853463
vt 0.547834 0.860531
vt 0.547834 0.859470
vt 0.526157 0.853712
vt 0.550853 0.860531
vt 0.549343 0.860531
vt 0.549343 0.859470
vt 0.552362 0.860531
vt 0.552362 0.859470
vt 0.550853 0.859470
vt 0.553871 0.860531
vt 0.555381 0.860531
vt 0.553871 0.859470
vt 0.556890 0.859470
vt 0.555381 0.859470
vt 0.558400 0.860531
vt 0.556890 0.860531
vt 0.558400 0.859470
vt 0.559909 0.860531
vt 0.559909 0.859470
vt 0.561419 0.860531
vt 0.561419 0.859470
vt 0.564438 0.860531
vt 0.562928 0.860531
vt 0.564438 0.859470
vt 0.562928 0.859470
vt 0.565947 0.859470
vt 0.565947 0.860531
vt 0.567456 0.860531
vt 0.567456 0.859470
vt 0.531069 0.848983
vt 0.531068 0.847832
vt 0.526157 0.848983
vt 0.535980 0.847832
vt 0.535980 0.848983
vt 0.540892 0.848983
vt 0.545803 0.848983
vt 0.540892 0.847832
vt 0.550715 0.848983
vt 0.545803 0.847832
vt 0.555627 0.848983
vt 0.550715 0.847832
vt 0.560538 0.848983
vt 0.560538 0.847832
vt 0.565450 0.848983
vt 0.570362 0.847832
vt 0.570362 0.848983
vt 0.575273 0.847832
vt 0.575273 0.848983
vt 0.580185 0.847832
vt 0.580185 0.848983
vt 0.585097 0.848983
vt 0.590008 0.848983
vt 0.585097 0.847832
vt 0.594920 0.848983
vt 0.590008 0.847832
vt 0.519181 0.893613
vt 0.524093 0.893613
vt 0.578121 0.893613
vt 0.573209 0.893613
vt 0.568297 0.893613
vt 0.563386 0.893613
vt 0.558474 0.893613
vt 0.553562 0.893613
vt 0.548651 0.893613
vt 0.543739 0.893613
vt 0.538828 0.893613
vt 0.533916 0.893613
vt 0.529004 0.893613
vt 0.583032 0.893613
vt 0.587944 0.893613
vt 0.519181 0.897066
vt 0.524093 0.897066
vt 0.583032 0.897066
vt 0.578121 0.897066
vt 0.573209 0.897066
vt 0.568297 0.897066
vt 0.563386 0.897066
vt 0.563386 0.897066
vt 0.558474 0.897066
vt 0.558474 0.897066
vt 0.553562 0.897066
vt 0.548651 0.897066
vt 0.543739 0.897066
vt 0.538828 0.897066
vt 0.533916 0.897066
vt 0.529004 0.897066
vt 0.587944 0.897066
vt 0.587944 0.900800
vt 0.583032 0.900800
vt 0.519181 0.900800
vt 0.524093 0.900800
vt 0.578121 0.900800
vt 0.573209 0.900800
vt 0.568297 0.900800
vt 0.563386 0.900800
vt 0.558474 0.900800
vt 0.553562 0.900800
vt 0.548651 0.900800
vt 0.543739 0.900800
vt 0.538828 0.900800
vt 0.533916 0.900800
vt 0.529004 0.900800
vt 0.559471 0.900578
vt 0.558884 0.908770
vt 0.558884 0.900712
vt 0.559942 0.900203
vt 0.562968 0.907838
vt 0.560204 0.899660
vt 0.566242 0.905227
vt 0.560204 0.899058
vt 0.568059 0.901453
vt 0.559942 0.898516
vt 0.568059 0.897265
vt 0.559471 0.898140
vt 0.566242 0.893492
vt 0.558884 0.889949
vt 0.562968 0.890881
vt 0.558297 0.898140
vt 0.558884 0.898006
vt 0.551527 0.893492
vt 0.554801 0.890881
vt 0.557827 0.898516
vt 0.549710 0.897265
vt 0.557565 0.899058
vt 0.549710 0.901453
vt 0.557565 0.899660
vt 0.551527 0.905227
vt 0.557827 0.900203
vt 0.554801 0.907838
vt 0.558297 0.900578
vt 0.569207 0.864750
vt 0.568521 0.866174
vt 0.562967 0.861745
vt 0.562281 0.863169
vt 0.567286 0.867160
vt 0.564203 0.860759
vt 0.565744 0.867512
vt 0.565744 0.860407
vt 0.563367 0.868897
vt 0.568122 0.859022
vt 0.565744 0.869439
vt 0.565744 0.858480
vt 0.563367 0.859022
vt 0.568122 0.868897
vt 0.567470 0.866308
vt 0.565929 0.868587
vt 0.565929 0.866660
vt 0.568706 0.865322
vt 0.568306 0.868045
vt 0.571271 0.864327
vt 0.570213 0.866524
vt 0.569392 0.862317
vt 0.569392 0.863898
vt 0.568706 0.860893
vt 0.571271 0.861888
vt 0.567470 0.859907
vt 0.570213 0.859691
vt 0.565929 0.857628
vt 0.568306 0.858171
vt 0.565929 0.859555
vt 0.563551 0.858171
vt 0.564387 0.859907
vt 0.561644 0.859691
vt 0.562466 0.862317
vt 0.563151 0.860893
vt 0.560586 0.864327
vt 0.560586 0.861888
vt 0.562466 0.863898
vt 0.561644 0.866524
vt 0.563151 0.865322
vt 0.563551 0.868045
vt 0.564387 0.866308
vt 0.568521 0.861745
vt 0.564203 0.867160
vt 0.562281 0.864750
vt 0.567286 0.860759
vt 0.569207 0.863169
vt 0.562967 0.866174
vt 0.540892 0.861646
vt 0.585097 0.861646
vt 0.551505 0.893587
vt 0.587944 0.894172
vt 0.587944 0.890439
vt 0.529004 0.890439
vt 0.533916 0.897626
vt 0.548651 0.890439
vt 0.563386 0.897626
vt 0.563386 0.894172
vt 0.563386 0.897626
vt 0.573209 0.890439
vt 0.578121 0.897626
vt 0.519181 0.894172
vt 0.587944 0.897626
vt 0.564438 0.857386
vt 0.558400 0.857386
vt 0.552362 0.857386
vt 0.547834 0.857386
vt 0.547834 0.861631
vt 0.558400 0.861631
vt 0.568966 0.861631
vt 0.526157 0.857166
vt 0.568966 0.860531
vt 0.568966 0.859470
vt 0.526157 0.847832
vt 0.555627 0.847832
vt 0.565450 0.847832
vt 0.594920 0.847832
s 0
usemtl Material
f 199/1/1 197/2/1 198/3/1
f 199/1/2 225/4/2 264/5/2
f 201/6/3 200/7/3 199/1/3
f 201/6/4 264/5/4 261/8/4
f 203/9/5 202/10/5 201/6/5
f 258/11/6 201/6/6 261/8/6
f 206/12/7 203/9/7 205/13/7
f 255/14/8 203/9/8 258/11/8
f 208/15/9 205/13/9 207/16/9
f 207/16/10 255/14/10 252/17/10
f 210/18/11 207/16/11 209/19/11
f 209/19/12 252/17/12 249/20/12
f 42/21/13 18/22/13 38/22/13
f 212/23/14 209/19/14 211/24/14
f 211/24/15 249/20/15 246/25/15
f 67/26/16 4/27/16 6/26/16
f 213/28/17 212/23/17 211/24/17
f 243/29/18 211/24/18 246/25/18
f 215/30/19 214/31/19 213/28/19
f 240/32/20 213/28/20 243/29/20
f 217/33/21 216/34/21 215/30/21
f 237/35/22 215/30/22 240/32/22
f 219/36/23 218/37/23 217/33/23
f 34/38/24 12/39/24 29/39/24
f 234/40/25 217/33/25 237/35/25
f 221/41/26 220/42/26 219/36/26
f 83/43/27 2/44/27 32/44/27
f 38/22/28 16/38/28 34/38/28
f 231/45/29 219/36/29 234/40/29
f 35/46/30 9/47/30 39/47/30
f 43/48/31 9/47/31 466/48/31
f 46/49/32 21/21/32 42/21/32
f 47/50/32 466/48/32 467/50/32
f 50/51/33 23/49/33 46/49/33
f 47/50/34 10/52/34 51/52/34
f 54/53/35 17/51/35 50/51/35
f 51/52/36 8/54/36 55/54/36
f 58/55/37 15/53/37 54/53/37
f 59/56/38 8/54/38 1/56/38
f 62/57/39 11/55/39 58/55/39
f 63/27/40 1/56/40 4/27/40
f 224/58/41 221/41/41 223/59/41
f 66/60/42 13/57/42 62/57/42
f 70/61/43 19/60/43 66/60/43
f 71/62/44 6/26/44 473/62/44
f 74/63/45 25/61/45 70/61/45
f 75/64/45 473/62/45 474/64/45
f 78/65/46 27/63/46 74/63/46
f 79/66/47 474/64/47 5/66/47
f 82/67/48 20/65/48 78/65/48
f 79/66/49 3/43/49 83/43/49
f 226/68/50 221/41/50 231/45/50
f 32/44/51 7/46/51 35/46/51
f 468/69/52 495/70/52 486/69/52
f 11/55/53 14/67/53 12/39/53
f 28/71/54 481/72/54 475/72/54
f 24/70/45 494/73/45 495/70/45
f 28/71/32 501/74/32 502/71/32
f 465/75/55 494/73/55 22/73/55
f 26/74/31 500/76/31 501/74/31
f 11/55/53 16/38/53 15/53/53
f 13/77/53 20/78/53 14/79/53
f 15/53/53 18/22/53 17/51/53
f 17/51/53 21/21/53 23/49/53
f 19/60/53 27/63/53 20/65/53
f 197/80/56 223/59/56 198/81/56
f 198/81/57 226/68/57 225/82/57
f 154/83/58 355/84/58 150/84/58
f 119/85/59 315/86/59 416/85/59
f 106/87/60 260/88/60 257/87/60
f 36/89/51 270/90/51 31/90/51
f 120/91/61 312/92/61 170/92/61
f 109/93/62 306/94/62 307/93/62
f 65/95/63 287/96/63 69/96/63
f 155/97/59 352/98/59 344/97/59
f 121/99/62 420/100/62 412/99/62
f 110/101/60 260/88/60 108/88/60
f 156/102/61 351/103/61 152/103/61
f 118/104/64 411/105/64 419/104/64
f 109/93/62 308/106/62 111/106/62
f 64/107/65 286/108/65 284/107/65
f 30/109/66 34/38/66 29/39/66
f 36/89/67 32/44/67 35/46/67
f 33/110/68 38/22/68 34/38/68
f 40/111/69 35/46/69 39/47/69
f 41/112/70 38/22/70 37/113/70
f 44/114/71 39/47/71 43/48/71
f 45/115/72 42/21/72 41/112/72
f 48/116/73 43/48/73 47/50/73
f 49/117/74 46/49/74 45/115/74
f 52/118/75 47/50/75 51/52/75
f 53/119/76 50/51/76 49/117/76
f 56/120/77 51/52/77 55/54/77
f 57/121/78 54/53/78 53/119/78
f 60/122/79 55/54/79 59/56/79
f 57/121/80 62/57/80 58/55/80
f 60/122/81 63/27/81 64/107/81
f 61/123/82 66/60/82 62/57/82
f 64/107/83 67/26/83 68/108/83
f 65/95/84 70/61/84 66/60/84
f 68/108/85 71/62/85 72/124/85
f 73/125/86 70/61/86 69/96/86
f 72/124/87 75/64/87 76/126/87
f 73/125/88 78/65/88 74/63/88
f 80/127/89 75/64/89 79/66/89
f 77/128/90 82/67/90 78/65/90
f 84/129/91 79/66/91 83/43/91
f 30/109/92 82/67/92 81/130/92
f 31/90/93 83/43/93 32/44/93
f 29/39/94 14/67/94 82/67/94
f 110/101/60 266/131/60 263/101/60
f 435/132/95 117/133/95 436/134/95
f 421/135/96 87/136/96 422/137/96
f 87/136/97 424/138/97 422/137/97
f 157/139/62 348/140/62 340/139/62
f 462/141/98 167/142/98 451/143/98
f 161/144/99 437/145/99 448/146/99
f 30/109/24 268/110/24 33/110/24
f 434/147/100 111/148/100 423/149/100
f 461/150/101 163/151/101 462/141/101
f 157/152/102 448/146/102 447/153/102
f 123/154/59 416/85/59 408/154/59
f 107/155/103 434/147/103 433/156/103
f 155/157/104 461/150/104 460/158/104
f 153/159/105 447/153/105 446/160/105
f 86/161/62 308/106/62 229/161/62
f 105/162/106 433/156/106 432/163/106
f 151/164/107 460/158/107 459/165/107
f 149/166/108 446/160/108 445/167/108
f 154/83/64 339/168/64 347/83/64
f 103/169/109 432/163/109 431/170/109
f 147/171/110 459/165/110 458/172/110
f 444/173/111 149/166/111 445/167/111
f 124/174/61 415/91/61 120/91/61
f 430/175/112 103/169/112 431/170/112
f 143/176/113 458/172/113 457/177/113
f 443/178/114 145/179/114 444/173/114
f 112/131/60 295/180/60 266/131/60
f 99/181/115 430/175/115 429/182/115
f 139/183/116 457/177/116 456/184/116
f 442/185/117 141/186/117 443/178/117
f 61/123/118 285/187/118 65/187/118
f 97/188/119 429/182/119 428/189/119
f 455/190/120 139/183/120 456/184/120
f 441/191/121 137/192/121 442/185/121
f 155/97/59 336/193/59 159/193/59
f 427/194/122 97/188/122 428/189/122
f 131/195/123 455/190/123 454/196/123
f 129/197/124 441/191/124 440/198/124
f 125/199/62 412/99/62 404/199/62
f 426/200/125 95/201/125 427/194/125
f 453/202/126 131/195/126 454/196/126
f 439/203/127 129/197/127 440/198/127
f 160/204/61 343/102/61 156/102/61
f 425/205/128 93/206/128 426/200/128
f 452/207/129 127/208/129 453/202/129
f 438/209/130 125/210/130 439/203/130
f 122/105/64 403/211/64 411/105/64
f 89/212/131 425/205/131 424/138/131
f 450/213/132 123/214/132 452/207/132
f 436/134/133 121/215/133 438/209/133
f 64/107/134 282/122/134 60/122/134
f 451/143/135 114/216/135 449/217/135
f 165/218/136 435/219/136 437/145/136
f 423/149/137 86/220/137 421/221/137
f 161/222/62 340/139/62 332/222/62
f 127/223/59 408/224/59 400/223/59
f 158/168/64 331/225/64 339/168/64
f 128/226/61 407/174/61 124/174/61
f 57/121/138 283/123/138 61/123/138
f 163/227/59 336/193/59 328/227/59
f 125/199/139 396/228/139 129/228/139
f 164/229/61 335/204/61 160/204/61
f 126/211/140 395/230/140 403/211/140
f 56/120/141 282/122/141 280/120/141
f 165/231/62 332/222/62 324/231/62
f 127/223/142 392/232/142 131/232/142
f 166/233/64 331/225/64 162/225/64
f 128/226/143 391/234/143 399/226/143
f 53/119/144 281/121/144 57/121/144
f 167/235/59 328/227/59 316/235/59
f 129/228/145 388/236/145 133/236/145
f 168/237/61 327/229/61 164/229/61
f 130/230/146 387/238/146 395/230/146
f 56/120/147 278/118/147 52/118/147
f 116/239/62 324/231/62 323/239/62
f 131/232/148 384/240/148 135/240/148
f 132/234/149 383/241/149 391/234/149
f 174/242/64 319/233/64 166/233/64
f 49/117/150 279/119/150 53/119/150
f 133/236/62 380/243/62 137/243/62
f 114/244/59 316/235/59 315/244/59
f 31/90/151 294/129/151 84/129/151
f 449/245/152 119/246/152 450/213/152
f 134/238/64 379/247/64 387/238/64
f 52/118/153 276/116/153 48/116/153
f 170/248/61 311/237/61 168/237/61
f 81/130/94 267/109/94 30/109/94
f 135/249/59 376/250/59 139/250/59
f 136/241/61 375/251/61 383/241/61
f 87/252/62 229/253/62 296/252/62
f 80/127/49 294/129/49 292/127/49
f 45/115/154 277/117/154 49/117/154
f 85/254/60 230/255/60 295/254/60
f 137/243/62 372/256/62 141/256/62
f 87/252/62 297/257/62 89/257/62
f 138/247/64 371/258/64 379/247/64
f 48/116/32 274/114/32 44/114/32
f 88/255/60 233/259/60 230/255/60
f 89/257/62 298/260/62 91/260/62
f 77/128/48 293/130/48 81/130/48
f 139/250/59 368/261/59 143/261/59
f 92/262/60 233/259/60 90/259/60
f 140/251/61 367/263/61 375/251/61
f 93/264/62 298/260/62 299/264/62
f 76/126/47 292/127/47 290/126/47
f 41/112/32 275/115/32 45/115/32
f 94/265/60 236/262/60 92/262/60
f 145/266/62 372/256/62 364/266/62
f 93/264/62 300/267/62 95/267/62
f 146/268/64 371/258/64 142/258/64
f 44/114/31 272/111/31 40/111/31
f 94/265/60 242/269/60 239/265/60
f 95/267/62 301/270/62 97/270/62
f 73/125/46 291/271/46 77/271/46
f 147/272/155 368/261/155 360/272/155
f 96/269/60 245/273/60 242/269/60
f 148/274/156 367/263/156 144/263/156
f 97/270/157 302/275/157 99/275/157
f 72/124/45 290/126/45 288/124/45
f 37/113/13 273/112/13 41/112/13
f 98/273/60 248/276/60 245/273/60
f 149/277/158 364/266/158 356/277/158
f 101/278/159 302/275/159 303/278/159
f 150/84/160 363/268/160 146/268/160
f 40/111/30 269/89/30 36/89/30
f 102/279/60 248/276/60 100/276/60
f 103/280/62 303/278/62 304/280/62
f 69/96/45 289/125/45 73/125/45
f 151/98/161 360/272/161 352/98/161
f 104/281/60 251/279/60 102/279/60
f 152/103/162 359/274/162 148/274/162
f 105/282/62 304/280/62 305/282/62
f 68/108/163 288/124/163 286/108/163
f 33/110/28 271/113/28 37/113/28
f 116/283/62 420/100/62 117/100/62
f 106/87/60 254/281/60 104/281/60
f 153/140/164 356/277/164 348/140/164
f 118/104/64 320/284/64 174/284/64
f 107/94/62 305/282/62 306/94/62
f 228/285/165 194/286/165 195/287/165
f 227/288/166 192/289/166 194/286/166
f 232/290/167 190/291/167 192/289/167
f 190/291/168 238/292/168 188/293/168
f 238/292/169 186/294/169 188/293/169
f 241/295/170 184/296/170 186/294/170
f 244/297/171 182/298/171 184/296/171
f 182/298/172 250/299/172 180/300/172
f 180/300/173 253/301/173 178/302/173
f 178/302/174 256/303/174 176/304/174
f 256/303/175 173/305/175 176/304/175
f 173/305/176 262/306/176 171/307/176
f 171/307/177 265/308/177 115/309/177
f 265/308/178 195/310/178 115/309/178
f 271/113/179 226/311/179 231/312/179
f 284/313/180 247/314/180 282/315/180
f 269/316/181 228/317/181 270/318/181
f 283/123/182 246/319/182 249/320/182
f 270/318/183 265/321/183 294/322/183
f 293/130/184 225/323/184 267/109/184
f 280/324/185 247/314/185 244/325/185
f 279/119/186 246/319/186 281/121/186
f 294/322/187 262/326/187 292/327/187
f 272/328/188 227/329/188 269/316/188
f 285/187/189 249/320/189 252/330/189
f 268/110/190 225/323/190 226/311/190
f 286/331/191 250/332/191 284/313/191
f 271/113/192 234/333/192 273/112/192
f 287/96/193 252/330/193 255/334/193
f 274/335/194 232/336/194 272/328/194
f 288/337/195 253/338/195 286/331/195
f 275/115/196 234/333/196 237/339/196
f 289/125/197 255/334/197 258/340/197
f 274/335/198 238/341/198 235/342/198
f 290/343/199 256/344/199 288/337/199
f 275/115/200 240/345/200 277/117/200
f 289/125/201 261/346/201 291/271/201
f 276/347/202 241/348/202 238/341/202
f 292/327/203 259/349/203 290/343/203
f 277/117/204 243/350/204 279/119/204
f 291/128/205 264/351/205 293/130/205
f 278/352/206 244/325/206 241/348/206
f 266/353/207 197/354/207 200/355/207
f 263/356/208 200/355/208 202/357/208
f 260/358/209 202/357/209 204/359/209
f 257/360/210 204/359/210 206/361/210
f 208/362/211 257/360/211 206/361/211
f 210/363/212 254/364/212 208/362/212
f 212/365/213 251/366/213 210/363/213
f 245/367/214 212/365/214 214/368/214
f 242/369/215 214/368/215 216/370/215
f 239/371/216 216/370/216 218/372/216
f 236/373/217 218/372/217 220/374/217
f 233/375/218 220/374/218 222/376/218
f 224/377/219 233/375/219 222/376/219
f 197/378/220 230/379/220 224/377/220
f 313/380/221 309/381/221 310/382/221
f 321/383/222 317/384/222 318/385/222
f 326/386/223 309/381/223 325/387/223
f 318/385/224 329/388/224 330/389/224
f 334/390/225 325/387/225 333/391/225
f 338/392/226 329/388/226 337/393/226
f 342/394/32 333/391/32 341/395/32
f 338/392/32 345/396/32 346/397/32
f 350/398/227 341/395/227 349/399/227
f 354/400/228 345/396/228 353/401/228
f 358/402/229 349/399/229 357/403/229
f 354/400/230 361/404/230 362/405/230
f 358/402/231 365/406/231 366/407/231
f 362/405/232 369/408/232 370/409/232
f 374/410/233 365/406/233 373/411/233
f 370/409/234 377/412/234 378/413/234
f 382/414/235 373/411/235 381/415/235
f 378/413/236 385/416/236 386/417/236
f 390/418/237 381/415/237 389/419/237
f 394/420/238 385/416/238 393/421/238
f 390/418/239 397/422/239 398/423/239
f 394/420/240 401/424/240 402/425/240
f 398/423/241 405/426/241 406/427/241
f 402/425/55 409/428/55 410/429/55
f 406/427/242 413/430/242 414/431/242
f 410/429/243 417/432/243 418/433/243
f 414/431/244 314/434/244 313/435/244
f 418/433/245 322/436/245 321/437/245
f 313/438/246 311/237/246 312/248/246
f 309/381/247 315/244/247 316/235/247
f 321/439/248 319/233/248 320/242/248
f 322/440/249 324/231/249 317/384/249
f 326/441/250 311/237/250 310/442/250
f 309/381/251 328/227/251 325/387/251
f 318/443/252 331/225/252 319/233/252
f 317/384/253 332/222/253 329/388/253
f 334/444/254 327/229/254 326/441/254
f 325/387/255 336/193/255 333/391/255
f 338/445/256 331/225/256 330/446/256
f 329/388/257 340/139/257 337/393/257
f 342/447/258 335/204/258 334/444/258
f 341/395/259 336/193/259 344/97/259
f 338/445/260 347/83/260 339/168/260
f 337/393/261 348/140/261 345/396/261
f 350/448/262 343/102/262 342/447/262
f 349/399/263 344/97/263 352/98/263
f 346/449/264 355/84/264 347/83/264
f 353/401/265 348/140/265 356/277/265
f 350/448/266 359/274/266 351/103/266
f 357/403/267 352/98/267 360/272/267
f 362/450/268 355/84/268 354/451/268
f 361/404/269 356/277/269 364/266/269
f 366/452/270 359/274/270 358/453/270
f 365/406/271 360/272/271 368/261/271
f 370/454/272 363/268/272 362/450/272
f 369/408/273 364/266/273 372/256/273
f 366/452/274 375/251/274 367/263/274
f 365/406/275 376/250/275 373/411/275
f 370/454/276 379/247/276 371/258/276
f 369/408/277 380/243/277 377/412/277
f 374/455/278 383/241/278 375/251/278
f 373/411/279 384/249/279 381/415/279
f 378/456/280 387/238/280 379/247/280
f 377/412/281 388/236/281 385/416/281
f 382/457/282 391/234/282 383/241/282
f 389/419/283 384/240/283 392/232/283
f 386/458/284 395/230/284 387/238/284
f 393/421/285 388/236/285 396/228/285
f 398/459/286 391/234/286 390/460/286
f 389/419/287 400/223/287 397/422/287
f 402/461/288 395/230/288 394/462/288
f 393/421/289 404/199/289 401/424/289
f 398/459/290 407/174/290 399/226/290
f 397/422/291 408/224/291 405/426/291
f 410/463/292 403/211/292 402/461/292
f 401/424/293 412/99/293 409/428/293
f 406/464/294 415/91/294 407/174/294
f 413/430/295 408/154/295 416/85/295
f 410/463/296 419/104/296 411/105/296
f 409/428/297 420/100/297 417/432/297
f 414/465/298 312/92/298 415/91/298
f 314/434/299 416/85/299 315/86/299
f 418/466/300 320/284/300 419/104/300
f 322/436/301 420/100/301 323/283/301
f 113/467/302 229/161/302 308/106/302
f 115/468/303 196/469/303 113/467/303
f 307/93/304 113/467/304 308/106/304
f 171/470/305 113/467/305 169/471/305
f 306/94/306 169/471/306 307/93/306
f 172/472/307 171/470/307 169/471/307
f 305/282/308 172/472/308 306/94/308
f 175/473/309 173/474/309 172/472/309
f 177/475/310 305/282/310 304/280/310
f 177/475/311 176/476/311 175/473/311
f 179/477/312 304/280/312 303/278/312
f 179/477/313 178/478/313 177/475/313
f 181/479/314 303/278/314 302/275/314
f 182/480/315 179/477/315 181/479/315
f 301/270/316 181/479/316 302/275/316
f 183/481/317 182/480/317 181/479/317
f 300/267/318 183/481/318 301/270/318
f 186/482/319 183/481/319 185/483/319
f 299/264/320 185/483/320 300/267/320
f 188/484/321 185/483/321 187/485/321
f 298/260/322 187/485/322 299/264/322
f 190/486/323 187/485/323 189/487/323
f 191/488/324 298/260/324 297/257/324
f 191/488/325 190/486/325 189/487/325
f 193/489/326 297/257/326 296/252/326
f 193/489/327 192/490/327 191/488/327
f 196/491/328 296/252/328 229/253/328
f 196/491/329 194/492/329 193/489/329
f 423/149/330 174/493/330 166/494/330
f 122/495/331 425/205/331 126/496/331
f 126/496/332 426/200/332 130/497/332
f 426/200/333 134/498/333 130/497/333
f 427/194/334 138/499/334 134/498/334
f 428/189/335 142/500/335 138/499/335
f 429/182/336 146/501/336 142/500/336
f 430/175/337 150/502/337 146/501/337
f 431/170/338 154/503/338 150/502/338
f 154/503/339 433/156/339 158/504/339
f 158/504/340 434/147/340 162/505/340
f 434/147/341 166/494/341 162/505/341
f 422/137/342 122/495/342 118/506/342
f 421/135/343 118/506/343 174/507/343
f 437/145/344 170/508/344 168/509/344
f 120/510/345 438/209/345 124/511/345
f 124/511/346 439/203/346 128/512/346
f 128/512/347 440/198/347 132/513/347
f 132/513/348 441/191/348 136/514/348
f 136/515/349 442/185/349 140/516/349
f 140/517/350 443/178/350 144/518/350
f 144/518/351 444/173/351 148/519/351
f 444/173/352 152/520/352 148/519/352
f 445/167/353 156/521/353 152/520/353
f 446/160/354 160/522/354 156/521/354
f 447/153/355 164/523/355 160/522/355
f 448/146/356 168/509/356 164/523/356
f 170/524/357 436/134/357 120/510/357
f 85/525/358 450/213/358 88/526/358
f 451/143/359 85/527/359 112/528/359
f 88/526/360 452/207/360 90/529/360
f 90/529/361 453/202/361 92/530/361
f 92/530/362 454/196/362 94/531/362
f 94/531/363 455/190/363 96/532/363
f 96/532/364 456/184/364 98/533/364
f 456/184/365 100/534/365 98/533/365
f 457/177/366 102/535/366 100/534/366
f 458/172/367 104/536/367 102/535/367
f 459/165/368 106/537/368 104/536/368
f 460/158/369 108/538/369 106/537/369
f 461/150/370 110/539/370 108/538/370
f 462/141/371 112/528/371 110/539/371
f 463/540/64 2/541/64 464/542/64
f 465/543/64 7/544/64 463/540/64
f 22/545/64 9/546/64 465/543/64
f 24/547/64 466/548/64 22/545/64
f 468/549/64 467/550/64 24/547/64
f 469/551/64 10/552/64 468/549/64
f 469/551/64 1/553/64 8/554/64
f 471/555/64 1/553/64 470/556/64
f 471/555/64 6/557/64 4/558/64
f 472/559/64 473/560/64 6/557/64
f 26/561/64 474/562/64 473/560/64
f 28/563/64 5/564/64 474/562/64
f 475/565/64 3/566/64 5/564/64
f 476/567/64 2/541/64 3/566/64
f 487/568/31 513/569/31 515/568/31
f 482/570/55 517/571/55 489/571/55
f 491/572/372 513/569/372 485/569/372
f 499/573/243 510/570/243 482/570/243
f 491/572/51 506/574/51 511/572/51
f 498/575/245 508/573/245 499/573/245
f 476/576/373 481/72/373 479/576/373
f 468/69/374 484/577/374 469/577/374
f 476/576/375 478/578/375 464/578/375
f 470/579/376 484/577/376 477/579/376
f 470/579/51 480/580/51 471/580/51
f 463/581/245 478/578/245 483/581/245
f 472/76/377 480/580/377 500/76/377
f 465/75/243 483/581/243 493/75/243
f 491/582/64 478/583/64 492/584/64
f 485/585/64 483/586/64 491/582/64
f 485/585/64 494/587/64 493/588/64
f 488/589/64 494/587/64 487/590/64
f 496/591/64 495/592/64 488/589/64
f 497/593/64 486/594/64 496/591/64
f 497/593/64 477/595/64 484/596/64
f 498/597/64 480/598/64 477/595/64
f 499/599/64 500/600/64 480/598/64
f 489/601/64 500/600/64 482/602/64
f 489/601/64 502/603/64 501/604/64
f 490/605/64 481/606/64 502/603/64
f 503/607/64 479/608/64 481/606/64
f 504/609/64 478/583/64 479/608/64
f 511/572/64 514/610/64 513/569/64
f 506/574/64 508/573/64 505/575/64
f 507/611/64 510/570/64 508/573/64
f 510/570/378 518/612/378 517/571/378
f 512/613/64 506/574/64 505/575/64
f 513/569/64 516/614/64 515/568/64
f 489/571/45 518/612/45 490/612/45
f 488/614/32 515/568/32 516/614/32
f 490/612/47 509/615/47 503/615/47
f 488/614/54 514/610/54 496/610/54
f 503/615/49 507/611/49 504/611/49
f 497/613/379 514/610/379 512/613/379
f 504/611/151 506/574/151 492/574/151
f 498/575/222 512/613/222 505/575/222
f 199/1/380 200/7/380 197/2/380
f 199/1/2 198/3/2 225/4/2
f 201/6/381 202/10/381 200/7/381
f 201/6/4 199/1/4 264/5/4
f 203/9/382 204/616/382 202/10/382
f 258/11/383 203/9/383 201/6/383
f 206/12/7 204/616/7 203/9/7
f 255/14/8 205/13/8 203/9/8
f 208/15/384 206/12/384 205/13/384
f 207/16/385 205/13/385 255/14/385
f 210/18/386 208/15/386 207/16/386
f 209/19/387 207/16/387 252/17/387
f 42/21/13 21/21/13 18/22/13
f 212/23/388 210/18/388 209/19/388
f 211/24/389 209/19/389 249/20/389
f 67/26/16 63/27/16 4/27/16
f 213/28/390 214/31/390 212/23/390
f 243/29/391 213/28/391 211/24/391
f 215/30/392 216/34/392 214/31/392
f 240/32/393 215/30/393 213/28/393
f 217/33/394 218/37/394 216/34/394
f 237/35/395 217/33/395 215/30/395
f 219/36/23 220/42/23 218/37/23
f 34/38/24 16/38/24 12/39/24
f 234/40/25 219/36/25 217/33/25
f 221/41/26 222/617/26 220/42/26
f 83/43/151 3/43/151 2/44/151
f 38/22/28 18/22/28 16/38/28
f 231/45/396 221/41/396 219/36/396
f 35/46/30 7/46/30 9/47/30
f 43/48/31 39/47/31 9/47/31
f 46/49/32 23/49/32 21/21/32
f 47/50/32 43/48/32 466/48/32
f 50/51/33 17/51/33 23/49/33
f 47/50/34 467/50/34 10/52/34
f 54/53/35 15/53/35 17/51/35
f 51/52/397 10/52/397 8/54/397
f 58/55/37 11/55/37 15/53/37
f 59/56/398 55/54/398 8/54/398
f 62/57/39 13/57/39 11/55/39
f 63/27/399 59/56/399 1/56/399
f 224/58/400 222/617/400 221/41/400
f 66/60/42 19/60/42 13/57/42
f 70/61/43 25/61/43 19/60/43
f 71/62/44 67/26/44 6/26/44
f 74/63/45 27/63/45 25/61/45
f 75/64/45 71/62/45 473/62/45
f 78/65/46 20/65/46 27/63/46
f 79/66/47 75/64/47 474/64/47
f 82/67/48 14/67/48 20/65/48
f 79/66/374 5/66/374 3/43/374
f 226/68/401 223/59/401 221/41/401
f 32/44/402 2/44/402 7/46/402
f 468/69/52 24/70/52 495/70/52
f 11/55/53 13/57/53 14/67/53
f 28/71/226 502/71/226 481/72/226
f 24/70/45 22/73/45 494/73/45
f 28/71/32 26/74/32 501/74/32
f 465/75/55 493/75/55 494/73/55
f 26/74/31 472/76/31 500/76/31
f 11/55/53 12/39/53 16/38/53
f 13/77/53 19/618/53 20/78/53
f 15/53/53 16/38/53 18/22/53
f 17/51/53 18/22/53 21/21/53
f 19/60/53 25/61/53 27/63/53
f 197/80/403 224/58/403 223/59/403
f 198/81/57 223/59/57 226/68/57
f 154/83/404 347/83/404 355/84/404
f 119/85/59 114/86/59 315/86/59
f 106/87/60 108/88/60 260/88/60
f 36/89/51 269/89/51 270/90/51
f 120/91/61 415/91/61 312/92/61
f 109/93/62 107/94/62 306/94/62
f 65/95/63 285/95/63 287/96/63
f 155/97/59 151/98/59 352/98/59
f 121/99/62 117/100/62 420/100/62
f 110/101/60 263/101/60 260/88/60
f 156/102/61 343/102/61 351/103/61
f 118/104/64 122/105/64 411/105/64
f 109/93/62 307/93/62 308/106/62
f 64/107/65 68/108/65 286/108/65
f 30/109/66 33/110/66 34/38/66
f 36/89/67 31/90/67 32/44/67
f 33/110/68 37/113/68 38/22/68
f 40/111/69 36/89/69 35/46/69
f 41/112/70 42/21/70 38/22/70
f 44/114/405 40/111/405 39/47/405
f 45/115/72 46/49/72 42/21/72
f 48/116/73 44/114/73 43/48/73
f 49/117/406 50/51/406 46/49/406
f 52/118/407 48/116/407 47/50/407
f 53/119/408 54/53/408 50/51/408
f 56/120/409 52/118/409 51/52/409
f 57/121/410 58/55/410 54/53/410
f 60/122/411 56/120/411 55/54/411
f 57/121/412 61/123/412 62/57/412
f 60/122/413 59/56/413 63/27/413
f 61/123/414 65/187/414 66/60/414
f 64/107/415 63/27/415 67/26/415
f 65/95/416 69/96/416 70/61/416
f 68/108/417 67/26/417 71/62/417
f 73/125/86 74/63/86 70/61/86
f 72/124/418 71/62/418 75/64/418
f 73/125/419 77/271/419 78/65/419
f 80/127/420 76/126/420 75/64/420
f 77/128/90 81/130/90 82/67/90
f 84/129/421 80/127/421 79/66/421
f 30/109/92 29/39/92 82/67/92
f 31/90/93 84/129/93 83/43/93
f 29/39/94 12/39/94 14/67/94
f 110/101/60 112/131/60 266/131/60
f 435/132/422 116/619/422 117/133/422
f 421/135/96 86/620/96 87/136/96
f 87/136/97 89/212/97 424/138/97
f 157/139/62 153/140/62 348/140/62
f 462/141/98 163/151/98 167/142/98
f 161/144/423 165/218/423 437/145/423
f 30/109/24 267/109/24 268/110/24
f 434/147/100 109/621/100 111/148/100
f 461/150/101 159/622/101 163/151/101
f 157/152/424 161/144/424 448/146/424
f 123/154/59 119/85/59 416/85/59
f 107/155/103 109/621/103 434/147/103
f 155/157/104 159/622/104 461/150/104
f 153/159/425 157/152/425 447/153/425
f 86/161/62 111/106/62 308/106/62
f 105/162/106 107/155/106 433/156/106
f 151/164/426 155/157/426 460/158/426
f 149/166/427 153/159/427 446/160/427
f 154/83/64 158/168/64 339/168/64
f 103/169/428 105/162/428 432/163/428
f 147/171/429 151/164/429 459/165/429
f 444/173/430 145/179/430 149/166/430
f 124/174/61 407/174/61 415/91/61
f 430/175/431 101/623/431 103/169/431
f 143/176/432 147/171/432 458/172/432
f 443/178/433 141/186/433 145/179/433
f 112/131/60 85/180/60 295/180/60
f 99/181/434 101/623/434 430/175/434
f 139/183/435 143/176/435 457/177/435
f 442/185/436 137/192/436 141/186/436
f 61/123/118 283/123/118 285/187/118
f 97/188/437 99/181/437 429/182/437
f 455/190/438 135/624/438 139/183/438
f 441/191/439 133/625/439 137/192/439
f 155/97/59 344/97/59 336/193/59
f 427/194/440 95/201/440 97/188/440
f 131/195/441 135/626/441 455/190/441
f 129/197/442 133/625/442 441/191/442
f 125/199/62 121/99/62 412/99/62
f 426/200/443 93/206/443 95/201/443
f 453/202/444 127/208/444 131/195/444
f 439/203/445 125/210/445 129/197/445
f 160/204/61 335/204/61 343/102/61
f 425/205/128 91/627/128 93/206/128
f 452/207/129 123/628/129 127/208/129
f 438/209/446 121/215/446 125/210/446
f 122/105/64 126/211/64 403/211/64
f 89/212/131 91/627/131 425/205/131
f 450/213/132 119/246/132 123/214/132
f 436/134/447 117/133/447 121/215/447
f 64/107/448 284/107/448 282/122/448
f 451/143/135 167/142/135 114/216/135
f 165/218/449 116/629/449 435/219/449
f 423/149/137 111/148/137 86/220/137
f 161/222/62 157/139/62 340/139/62
f 127/223/59 123/224/59 408/224/59
f 158/168/64 162/225/64 331/225/64
f 128/226/61 399/226/61 407/174/61
f 57/121/138 281/121/138 283/123/138
f 163/227/59 159/193/59 336/193/59
f 125/199/450 404/199/450 396/228/450
f 164/229/61 327/229/61 335/204/61
f 126/211/451 130/230/451 395/230/451
f 56/120/452 60/122/452 282/122/452
f 165/231/62 161/222/62 332/222/62
f 127/223/453 400/223/453 392/232/453
f 166/233/64 319/233/64 331/225/64
f 128/226/454 132/234/454 391/234/454
f 53/119/144 279/119/144 281/121/144
f 167/235/59 163/227/59 328/227/59
f 129/228/455 396/228/455 388/236/455
f 168/237/61 311/237/61 327/229/61
f 130/230/456 134/238/456 387/238/456
f 56/120/457 280/120/457 278/118/457
f 116/239/62 165/231/62 324/231/62
f 131/232/458 392/232/458 384/240/458
f 132/234/459 136/241/459 383/241/459
f 174/242/460 320/242/460 319/233/460
f 49/117/150 277/117/150 279/119/150
f 133/236/62 388/236/62 380/243/62
f 114/244/59 167/235/59 316/235/59
f 31/90/151 270/90/151 294/129/151
f 449/245/152 114/630/152 119/246/152
f 134/238/64 138/247/64 379/247/64
f 52/118/461 278/118/461 276/116/461
f 170/248/61 312/248/61 311/237/61
f 81/130/94 293/130/94 267/109/94
f 135/249/59 384/249/59 376/250/59
f 136/241/61 140/251/61 375/251/61
f 87/252/62 86/253/62 229/253/62
f 80/127/374 84/129/374 294/129/374
f 45/115/154 275/115/154 277/117/154
f 85/254/60 88/255/60 230/255/60
f 137/243/62 380/243/62 372/256/62
f 87/252/62 296/252/62 297/257/62
f 138/247/64 142/258/64 371/258/64
f 48/116/32 276/116/32 274/114/32
f 88/255/60 90/259/60 233/259/60
f 89/257/62 297/257/62 298/260/62
f 77/128/48 291/128/48 293/130/48
f 139/250/59 376/250/59 368/261/59
f 92/262/60 236/262/60 233/259/60
f 140/251/61 144/263/61 367/263/61
f 93/264/62 91/260/62 298/260/62
f 76/126/47 80/127/47 292/127/47
f 41/112/32 273/112/32 275/115/32
f 94/265/60 239/265/60 236/262/60
f 145/266/62 141/256/62 372/256/62
f 93/264/62 299/264/62 300/267/62
f 146/268/64 363/268/64 371/258/64
f 44/114/31 274/114/31 272/111/31
f 94/265/60 96/269/60 242/269/60
f 95/267/62 300/267/62 301/270/62
f 73/125/46 289/125/46 291/271/46
f 147/272/462 143/261/462 368/261/462
f 96/269/60 98/273/60 245/273/60
f 148/274/463 359/274/463 367/263/463
f 97/270/464 301/270/464 302/275/464
f 72/124/45 76/126/45 290/126/45
f 37/113/13 271/113/13 273/112/13
f 98/273/60 100/276/60 248/276/60
f 149/277/465 145/266/465 364/266/465
f 101/278/466 99/275/466 302/275/466
f 150/84/467 355/84/467 363/268/467
f 40/111/30 272/111/30 269/89/30
f 102/279/60 251/279/60 248/276/60
f 103/280/62 101/278/62 303/278/62
f 69/96/45 287/96/45 289/125/45
f 151/98/468 147/272/468 360/272/468
f 104/281/60 254/281/60 251/279/60
f 152/103/469 351/103/469 359/274/469
f 105/282/62 103/280/62 304/280/62
f 68/108/163 72/124/163 288/124/163
f 33/110/28 268/110/28 271/113/28
f 116/283/62 323/283/62 420/100/62
f 106/87/60 257/87/60 254/281/60
f 153/140/470 149/277/470 356/277/470
f 118/104/64 419/104/64 320/284/64
f 107/94/62 105/282/62 305/282/62
f 228/285/165 227/288/165 194/286/165
f 227/288/166 232/290/166 192/289/166
f 232/290/167 235/631/167 190/291/167
f 190/291/471 235/631/471 238/292/471
f 238/292/472 241/295/472 186/294/472
f 241/295/473 244/297/473 184/296/473
f 244/297/474 247/632/474 182/298/474
f 182/298/475 247/632/475 250/299/475
f 180/300/476 250/299/476 253/301/476
f 178/302/477 253/301/477 256/303/477
f 256/303/175 259/633/175 173/305/175
f 173/305/176 259/633/176 262/306/176
f 171/307/177 262/306/177 265/308/177
f 265/308/478 228/634/478 195/310/478
f 271/113/179 268/110/179 226/311/179
f 284/313/479 250/332/479 247/314/479
f 269/316/181 227/329/181 228/317/181
f 283/123/480 281/121/480 246/319/480
f 270/318/183 228/317/183 265/321/183
f 293/130/184 264/351/184 225/323/184
f 280/324/481 282/315/481 247/314/481
f 279/119/482 243/350/482 246/319/482
f 294/322/187 265/321/187 262/326/187
f 272/328/188 232/336/188 227/329/188
f 285/187/483 283/123/483 249/320/483
f 268/110/190 267/109/190 225/323/190
f 286/331/484 253/338/484 250/332/484
f 271/113/192 231/312/192 234/333/192
f 287/96/485 285/95/485 252/330/485
f 274/335/194 235/342/194 232/336/194
f 288/337/486 256/344/486 253/338/486
f 275/115/196 273/112/196 234/333/196
f 289/125/197 287/96/197 255/334/197
f 274/335/487 276/347/487 238/341/487
f 290/343/199 259/349/199 256/344/199
f 275/115/488 237/339/488 240/345/488
f 289/125/201 258/340/201 261/346/201
f 276/347/489 278/352/489 241/348/489
f 292/327/203 262/326/203 259/349/203
f 277/117/490 240/345/490 243/350/490
f 291/128/205 261/346/205 264/351/205
f 278/352/491 280/324/491 244/325/491
f 266/353/492 295/635/492 197/354/492
f 263/356/493 266/353/493 200/355/493
f 260/358/209 263/356/209 202/357/209
f 257/360/210 260/358/210 204/359/210
f 208/362/494 254/364/494 257/360/494
f 210/363/495 251/366/495 254/364/495
f 212/365/496 248/636/496 251/366/496
f 245/367/497 248/636/497 212/365/497
f 242/369/498 245/367/498 214/368/498
f 239/371/499 242/369/499 216/370/499
f 236/373/217 239/371/217 218/372/217
f 233/375/218 236/373/218 220/374/218
f 224/377/219 230/379/219 233/375/219
f 197/378/220 295/637/220 230/379/220
f 313/380/221 314/638/221 309/381/221
f 321/383/222 322/440/222 317/384/222
f 326/386/223 310/382/223 309/381/223
f 318/385/224 317/384/224 329/388/224
f 334/390/500 326/386/500 325/387/500
f 338/392/226 330/389/226 329/388/226
f 342/394/32 334/390/32 333/391/32
f 338/392/32 337/393/32 345/396/32
f 350/398/227 342/394/227 341/395/227
f 354/400/228 346/397/228 345/396/228
f 358/402/229 350/398/229 349/399/229
f 354/400/230 353/401/230 361/404/230
f 358/402/231 357/403/231 365/406/231
f 362/405/232 361/404/232 369/408/232
f 374/410/233 366/407/233 365/406/233
f 370/409/234 369/408/234 377/412/234
f 382/414/501 374/410/501 373/411/501
f 378/413/236 377/412/236 385/416/236
f 390/418/502 382/414/502 381/415/502
f 394/420/238 386/417/238 385/416/238
f 390/418/239 389/419/239 397/422/239
f 394/420/240 393/421/240 401/424/240
f 398/423/503 397/422/503 405/426/503
f 402/425/55 401/424/55 409/428/55
f 406/427/504 405/426/504 413/430/504
f 410/429/243 409/428/243 417/432/243
f 414/431/244 413/430/244 314/434/244
f 418/433/245 417/432/245 322/436/245
f 313/438/505 310/442/505 311/237/505
f 309/381/247 314/638/247 315/244/247
f 321/439/248 318/443/248 319/233/248
f 322/440/506 323/239/506 324/231/506
f 326/441/507 327/229/507 311/237/507
f 309/381/251 316/235/251 328/227/251
f 318/443/252 330/446/252 331/225/252
f 317/384/253 324/231/253 332/222/253
f 334/444/254 335/204/254 327/229/254
f 325/387/255 328/227/255 336/193/255
f 338/445/256 339/168/256 331/225/256
f 329/388/257 332/222/257 340/139/257
f 342/447/508 343/102/508 335/204/508
f 341/395/509 333/391/509 336/193/509
f 338/445/510 346/449/510 347/83/510
f 337/393/261 340/139/261 348/140/261
f 350/448/511 351/103/511 343/102/511
f 349/399/512 341/395/512 344/97/512
f 346/449/513 354/451/513 355/84/513
f 353/401/514 345/396/514 348/140/514
f 350/448/515 358/453/515 359/274/515
f 357/403/516 349/399/516 352/98/516
f 362/450/517 363/268/517 355/84/517
f 361/404/518 353/401/518 356/277/518
f 366/452/519 367/263/519 359/274/519
f 365/406/520 357/403/520 360/272/520
f 370/454/521 371/258/521 363/268/521
f 369/408/522 361/404/522 364/266/522
f 366/452/523 374/455/523 375/251/523
f 365/406/524 368/261/524 376/250/524
f 370/454/525 378/456/525 379/247/525
f 369/408/526 372/256/526 380/243/526
f 374/455/527 382/457/527 383/241/527
f 373/411/528 376/250/528 384/249/528
f 378/456/529 386/458/529 387/238/529
f 377/412/530 380/243/530 388/236/530
f 382/457/531 390/460/531 391/234/531
f 389/419/532 381/415/532 384/240/532
f 386/458/533 394/462/533 395/230/533
f 393/421/534 385/416/534 388/236/534
f 398/459/535 399/226/535 391/234/535
f 389/419/536 392/232/536 400/223/536
f 402/461/537 403/211/537 395/230/537
f 393/421/538 396/228/538 404/199/538
f 398/459/290 406/464/290 407/174/290
f 397/422/291 400/223/291 408/224/291
f 410/463/292 411/105/292 403/211/292
f 401/424/293 404/199/293 412/99/293
f 406/464/294 414/465/294 415/91/294
f 413/430/539 405/426/539 408/154/539
f 410/463/296 418/466/296 419/104/296
f 409/428/297 412/99/297 420/100/297
f 414/465/298 313/639/298 312/92/298
f 314/434/299 413/430/299 416/85/299
f 418/466/300 321/640/300 320/284/300
f 322/436/540 417/432/540 420/100/540
f 113/467/302 196/469/302 229/161/302
f 115/468/303 195/641/303 196/469/303
f 307/93/541 169/471/541 113/467/541
f 171/470/305 115/468/305 113/467/305
f 306/94/542 172/472/542 169/471/542
f 172/472/307 173/474/307 171/470/307
f 305/282/543 175/473/543 172/472/543
f 175/473/544 176/476/544 173/474/544
f 177/475/545 175/473/545 305/282/545
f 177/475/546 178/478/546 176/476/546
f 179/477/547 177/475/547 304/280/547
f 179/477/548 180/642/548 178/478/548
f 181/479/549 179/477/549 303/278/549
f 182/480/550 180/642/550 179/477/550
f 301/270/551 183/481/551 181/479/551
f 183/481/552 184/643/552 182/480/552
f 300/267/553 185/483/553 183/481/553
f 186/482/554 184/643/554 183/481/554
f 299/264/555 187/485/555 185/483/555
f 188/484/556 186/482/556 185/483/556
f 298/260/322 189/487/322 187/485/322
f 190/486/557 188/484/557 187/485/557
f 191/488/558 189/487/558 298/260/558
f 191/488/559 192/490/559 190/486/559
f 193/489/560 191/488/560 297/257/560
f 193/489/327 194/492/327 192/490/327
f 196/491/328 193/489/328 296/252/328
f 196/491/561 195/644/561 194/492/561
f 423/149/562 421/221/562 174/493/562
f 122/495/331 424/138/331 425/205/331
f 126/496/563 425/205/563 426/200/563
f 426/200/564 427/194/564 134/498/564
f 427/194/565 428/189/565 138/499/565
f 428/189/566 429/182/566 142/500/566
f 429/182/567 430/175/567 146/501/567
f 430/175/568 431/170/568 150/502/568
f 431/170/569 432/163/569 154/503/569
f 154/503/339 432/163/339 433/156/339
f 158/504/340 433/156/340 434/147/340
f 434/147/341 423/149/341 166/494/341
f 422/137/342 424/138/342 122/495/342
f 421/135/570 422/137/570 118/506/570
f 437/145/571 435/219/571 170/508/571
f 120/510/572 436/134/572 438/209/572
f 124/511/573 438/209/573 439/203/573
f 128/512/574 439/203/574 440/198/574
f 132/513/575 440/198/575 441/191/575
f 136/515/576 441/191/576 442/185/576
f 140/517/577 442/185/577 443/178/577
f 144/518/578 443/178/578 444/173/578
f 444/173/579 445/167/579 152/520/579
f 445/167/580 446/160/580 156/521/580
f 446/160/581 447/153/581 160/522/581
f 447/153/582 448/146/582 164/523/582
f 448/146/583 437/145/583 168/509/583
f 170/524/584 435/132/584 436/134/584
f 85/525/585 449/245/585 450/213/585
f 451/143/586 449/217/586 85/527/586
f 88/526/587 450/213/587 452/207/587
f 90/529/588 452/207/588 453/202/588
f 92/530/589 453/202/589 454/196/589
f 94/531/590 454/196/590 455/190/590
f 96/532/591 455/190/591 456/184/591
f 456/184/592 457/177/592 100/534/592
f 457/177/593 458/172/593 102/535/593
f 458/172/594 459/165/594 104/536/594
f 459/165/595 460/158/595 106/537/595
f 460/158/596 461/150/596 108/538/596
f 461/150/597 462/141/597 110/539/597
f 462/141/598 451/143/598 112/528/598
f 463/540/64 7/544/64 2/541/64
f 465/543/64 9/546/64 7/544/64
f 22/545/64 466/548/64 9/546/64
f 24/547/64 467/550/64 466/548/64
f 468/549/64 10/552/64 467/550/64
f 469/551/64 8/554/64 10/552/64
f 469/551/64 470/556/64 1/553/64
f 471/555/64 4/558/64 1/553/64
f 471/555/64 472/559/64 6/557/64
f 472/559/64 26/561/64 473/560/64
f 26/561/64 28/563/64 474/562/64
f 28/563/64 475/565/64 5/564/64
f 475/565/64 476/567/64 3/566/64
f 476/567/64 464/542/64 2/541/64
f 487/568/599 485/569/599 513/569/599
f 482/570/55 510/570/55 517/571/55
f 491/572/600 511/572/600 513/569/600
f 499/573/601 508/573/601 510/570/601
f 491/572/51 492/574/51 506/574/51
f 498/575/245 505/575/245 508/573/245
f 476/576/602 475/72/602 481/72/602
f 468/69/49 486/69/49 484/577/49
f 476/576/222 479/576/222 478/578/222
f 470/579/151 469/577/151 484/577/151
f 470/579/51 477/579/51 480/580/51
f 463/581/245 464/578/245 478/578/245
f 472/76/30 471/580/30 480/580/30
f 465/75/243 463/581/243 483/581/243
f 491/582/64 483/586/64 478/583/64
f 485/585/64 493/588/64 483/586/64
f 485/585/64 487/590/64 494/587/64
f 488/589/64 495/592/64 494/587/64
f 496/591/64 486/594/64 495/592/64
f 497/593/64 484/596/64 486/594/64
f 497/593/64 498/597/64 477/595/64
f 498/597/64 499/599/64 480/598/64
f 499/599/64 482/602/64 500/600/64
f 489/601/64 501/604/64 500/600/64
f 489/601/64 490/605/64 502/603/64
f 490/605/64 503/607/64 481/606/64
f 503/607/64 504/609/64 479/608/64
f 504/609/64 492/584/64 478/583/64
f 511/572/64 512/613/64 514/610/64
f 506/574/64 507/611/64 508/573/64
f 507/611/64 509/615/64 510/570/64
f 510/570/64 509/615/64 518/612/64
f 512/613/64 511/572/64 506/574/64
f 513/569/64 514/610/64 516/614/64
f 489/571/45 517/571/45 518/612/45
f 488/614/32 487/568/32 515/568/32
f 490/612/603 518/612/603 509/615/603
f 488/614/54 516/614/54 514/610/54
f 503/615/49 509/615/49 507/611/49
f 497/613/379 496/610/379 514/610/379
f 504/611/151 507/611/151 506/574/151
f 498/575/222 497/613/222 512/613/222
