# Blender 4.2.1 LTS
# www.blender.org
mtllib bucket_1.mtl
g bucket_1_Mesh
v 0.113875 0.030218 -0.126322
v 0.114730 0.346713 -0.126935
v 0.158001 0.030218 -0.013406
v 0.158980 0.346713 -0.013385
v 0.109300 0.030218 0.097489
v 0.109062 0.346713 0.102340
v -0.003551 0.030218 0.141467
v -0.003572 0.346713 0.142446
v -0.114445 0.030218 0.092766
v -0.115152 0.346713 0.093444
v -0.158423 0.030218 -0.020085
v -0.159402 0.346713 -0.020106
v -0.109723 0.030218 -0.130980
v -0.114580 0.346713 -0.130947
v 0.003128 0.030218 -0.174958
v 0.003149 0.346713 -0.175937
v 0.093611 0.000000 -0.110984
v 0.129782 0.000000 -0.018424
v 0.089861 0.000000 0.072479
v -0.002645 0.000000 0.108529
v -0.093548 0.000000 0.068608
v -0.129598 0.000000 -0.023899
v -0.089677 0.000000 -0.114802
v 0.002830 0.000000 -0.150851
v 0.117168 0.103817 -0.129431
v 0.162515 0.103817 -0.013311
v 0.112424 0.103817 0.100748
v -0.003646 0.103817 0.145980
v -0.117704 0.103817 0.095890
v -0.162937 0.103817 -0.020180
v -0.112847 0.103817 -0.134239
v 0.003223 0.103817 -0.179471
v 0.122603 0.225265 -0.134562
v 0.169963 0.225265 -0.013154
v 0.117580 0.225265 0.106126
v -0.003803 0.225265 0.153429
v -0.123082 0.225265 0.101046
v -0.170385 0.225265 -0.020337
v -0.118002 0.225265 -0.139617
v 0.003381 0.225265 -0.186920
v 0.176288 0.338652 -0.013020
v 0.127227 0.338652 -0.138915
v 0.115755 0.346713 0.109322
v -0.003937 0.338652 0.159753
v -0.127649 0.338652 0.105424
v -0.176710 0.338652 -0.020471
v -0.121273 0.346713 -0.137928
v 0.003514 0.338652 -0.193244
v -0.003265 0.051647 0.127945
v 0.104260 0.051647 -0.116898
v -0.104682 0.051647 0.083407
v 0.002843 0.051647 -0.161436
v 0.144479 0.051647 -0.013691
v 0.099941 0.051647 0.087726
v -0.144902 0.051647 -0.019800
v -0.100363 0.051647 -0.121217
v -0.002654 0.011710 0.098987
v 0.083352 0.011710 -0.096854
v -0.083774 0.011710 0.063363
v 0.002232 0.011710 -0.132478
v 0.115522 0.011710 -0.014303
v 0.079897 0.011710 0.066817
v -0.115944 0.011710 -0.019188
v -0.080319 0.011710 -0.100308
v 0.151386 0.030218 0.001656
v 0.168909 0.338652 0.003783
v -0.116337 0.030218 -0.115918
v -0.125474 0.346713 -0.128362
v 0.124360 0.000000 -0.006077
v -0.095099 0.000000 -0.102455
v -0.010261 0.000000 -0.121044
v 0.080537 0.000000 -0.081169
v -0.119650 0.103817 -0.118747
v 0.155711 0.103817 0.002181
v -0.125117 0.225265 -0.123416
v 0.162848 0.225265 0.003047
v 0.152324 0.346713 0.001770
v -0.118377 0.346713 -0.122301
v 0.138430 0.051647 0.000083
v -0.106413 0.051647 -0.107442
v 0.071670 0.011710 -0.070254
v -0.009450 0.011710 -0.105879
v 0.110683 0.011710 -0.003285
v -0.085158 0.011710 -0.089290
v 0.152469 0.030218 -0.027562
v 0.170137 0.338652 -0.028803
v 0.095153 0.030218 0.103002
v 0.107316 0.346713 0.112610
v 0.125247 0.000000 -0.030028
v 0.078264 0.000000 0.076999
v 0.097873 0.103817 0.106418
v 0.156830 0.103817 -0.027868
v 0.102363 0.225265 0.112056
v 0.164025 0.225265 -0.028374
v 0.153432 0.346713 -0.027621
v 0.101488 0.346713 0.105292
v 0.139437 0.051647 -0.026630
v 0.087002 0.051647 0.092768
v 0.111489 0.011710 -0.024652
v 0.069548 0.011710 0.070850
v 0.105792 0.011710 -0.011680
v 0.118866 0.000000 -0.015491
v 0.106175 0.338652 0.116843
v 0.121958 0.338652 0.110692
v 0.095743 0.346713 0.103743
v 0.109978 0.346713 0.098196
v -0.110401 0.346713 -0.131687
v -0.122381 0.338652 -0.144183
v -0.129760 0.338652 -0.127380
v -0.117056 0.346713 -0.116531
v 0.101643 0.354626 0.118049
v 0.105569 0.362721 0.119087
v 0.095353 0.355455 0.111174
v 0.098876 0.362721 0.112105
v -0.124766 0.362721 -0.121182
v -0.131459 0.362721 -0.128163
v -0.130454 0.353382 -0.123588
v -0.123858 0.354281 -0.117046
v 0.101997 0.353167 0.118970
v 0.106761 0.363668 0.119972
v 0.094143 0.354575 0.110245
v 0.098467 0.364138 0.111143
v -0.123822 0.364138 -0.120732
v -0.132293 0.363668 -0.129391
v -0.131356 0.351920 -0.123976
v -0.122977 0.353406 -0.115797
v 0.051665 0.373099 0.176154
v 0.055396 0.383722 0.177794
v 0.047045 0.373290 0.165354
v 0.050423 0.383365 0.166878
v -0.185994 0.387860 -0.054976
v -0.196622 0.388163 -0.060451
v -0.194947 0.376302 -0.056111
v -0.184420 0.376541 -0.051056
v 0.082784 0.362442 0.150196
v 0.074930 0.363849 0.141471
v -0.160758 0.375528 -0.096299
v -0.159914 0.364796 -0.091365
v -0.169230 0.375058 -0.104959
v 0.079253 0.373412 0.142369
v -0.168293 0.363310 -0.099543
v 0.087547 0.372942 0.151198
v 0.005657 0.383888 0.187527
v 0.007911 0.394745 0.189532
v 0.004762 0.383049 0.175794
v 0.006970 0.393571 0.177637
v -0.200037 0.398437 -0.011323
v -0.211943 0.399791 -0.011995
v -0.209730 0.387519 -0.009678
v -0.197998 0.386649 -0.009033
v -0.165427 0.403013 0.122229
v -0.165997 0.415097 0.122891
v -0.157956 0.401655 0.114348
v -0.158466 0.412739 0.114931
v -0.188557 0.396181 0.052180
v -0.197559 0.397503 0.058619
v -0.198743 0.409979 0.058758
v -0.189627 0.407559 0.052297
v -0.079898 0.407965 0.169018
v -0.082832 0.410016 0.179847
v -0.083885 0.398350 0.178191
v -0.080852 0.397346 0.167530
v 0.126609 0.330483 -0.138333
v 0.175442 0.330483 -0.013038
v 0.121373 0.330483 0.110082
v -0.003919 0.330483 0.158908
v -0.127039 0.330483 0.104839
v -0.175865 0.330483 -0.020453
v -0.121796 0.330483 -0.143573
v 0.003496 0.330483 -0.192399
v -0.129139 0.330483 -0.126851
v 0.168098 0.330483 0.003685
v 0.105666 0.330483 0.116203
v 0.169320 0.330483 -0.028746
v 0.153058 0.338536 -0.013435
v 0.110723 0.338536 -0.122068
v 0.003973 0.338536 -0.168949
v -0.151542 0.338536 -0.019864
v -0.104661 0.338536 -0.126615
v -0.002457 0.338536 0.135651
v -0.109207 0.338536 0.088770
v 0.106177 0.338536 0.093316
v 0.146690 0.338536 0.001065
v -0.111029 0.338536 -0.112115
v 0.092558 0.338536 0.098623
v 0.147750 0.338536 -0.027054
v 0.180085 0.332609 -0.032680
v 0.134929 0.332525 -0.146296
v 0.134308 0.324356 -0.145718
v 0.178684 0.332611 0.008076
v 0.186954 0.332527 -0.012795
v 0.110052 0.332611 0.126791
v 0.129341 0.332528 0.118394
v -0.135350 0.332528 0.112807
v -0.004162 0.332528 0.170419
v -0.187376 0.332528 -0.020696
v -0.139535 0.332611 -0.131673
v 0.003739 0.332528 -0.203911
v -0.129764 0.332528 -0.151885
v 0.186109 0.324358 -0.012813
v 0.128756 0.324358 0.117783
v -0.004144 0.324358 0.169574
v -0.134740 0.324358 0.112222
v -0.186531 0.324358 -0.020678
v -0.129179 0.324358 -0.151274
v 0.003722 0.324358 -0.203065
v -0.138915 0.324442 -0.131144
v 0.177874 0.324442 0.007978
v 0.109542 0.324442 0.126151
v 0.179268 0.324439 -0.032623
v -0.125210 0.356178 -0.134154
v -0.118517 0.356178 -0.127172
v -0.120178 0.352048 -0.120574
v -0.127048 0.351608 -0.126853
v 0.099390 0.352623 0.107303
v 0.105125 0.356178 0.106115
v 0.111818 0.356178 0.113096
v 0.105428 0.352217 0.114420
vn -0.4509 -0.8703 -0.1980
vn -0.1873 -0.8501 -0.4921
vn 0.1788 0.8703 0.4589
vn -0.1788 -0.8703 -0.4589
vn -0.2122 0.8494 0.4833
vn 0.2122 -0.8494 -0.4833
vn 0.9154 0.0213 0.4020
vn -0.4590 -0.8702 0.1789
vn 0.4918 -0.8494 -0.1916
vn 0.3241 -0.5919 -0.7380
vn -0.4020 0.0256 0.9153
vn -0.9314 0.0275 0.3630
vn -0.2919 -0.5947 -0.7491
vn -0.2829 -0.7106 0.6442
vn -0.0000 -1.0000 -0.0000
vn 0.6732 -0.6778 0.2956
vn -0.6807 -0.6828 0.2653
vn 0.7240 -0.6291 -0.2829
vn 0.2561 -0.7088 0.6573
vn -0.7071 -0.6353 -0.3105
vn 0.4014 -0.0566 -0.9141
vn -0.3625 -0.0566 -0.9303
vn -0.9141 -0.0566 -0.4015
vn -0.9303 -0.0566 0.3625
vn -0.4015 -0.0566 0.9141
vn 0.3625 -0.0566 0.9303
vn 0.9141 -0.0566 0.4015
vn 0.9299 -0.0566 -0.3634
vn 0.9300 -0.0566 -0.3632
vn 0.4193 0.8930 -0.1634
vn 0.4121 0.8930 0.1810
vn 0.1634 0.8930 0.4193
vn -0.1810 0.8930 0.4121
vn -0.4193 0.8930 0.1634
vn -0.4056 0.3756 -0.8333
vn -0.1634 0.8930 -0.4193
vn 0.1810 0.8930 -0.4121
vn -0.7741 0.5566 0.3017
vn -0.3017 0.5566 -0.7741
vn 0.7741 0.5566 -0.3017
vn 0.4020 0.0235 -0.9153
vn -0.9153 0.0277 -0.4019
vn 0.3630 0.0230 0.9315
vn 0.9315 0.0215 -0.3630
vn -0.3630 0.0260 -0.9314
vn -0.0000 1.0000 -0.0000
vn -0.3340 0.5566 0.7606
vn 0.7606 0.5566 0.3340
vn 0.3340 0.5566 -0.7606
vn -0.7606 0.5566 -0.3341
vn 0.3017 0.5566 0.7741
vn -0.7606 0.5566 -0.3340
vn 0.7606 0.5566 0.3341
vn -0.9152 0.0277 -0.4019
vn -0.4121 0.8930 -0.1810
vn 0.6732 -0.6778 0.2957
vn 0.4590 0.8702 -0.1789
vn -0.4838 0.8501 -0.2079
vn -0.7741 0.5566 0.3016
vn 0.4353 0.7978 -0.4173
vn 0.2562 -0.7088 0.6573
vn 0.4681 -0.8533 0.2299
vn -0.4509 0.8703 -0.1980
vn 0.3326 0.4011 0.8535
vn 0.4260 0.5174 -0.7421
vn -0.8387 0.4011 -0.3683
vn -0.6132 0.7774 0.1404
vn -0.7166 0.4011 0.5706
vn -0.1842 -0.9315 0.3138
vn -0.8155 -0.3756 -0.4404
vn 0.4353 0.7977 -0.4173
vn 0.5211 -0.3523 0.7774
vn -0.3712 -0.8902 0.2642
vn 0.7502 0.3543 0.5583
vn 0.6985 -0.2530 -0.6694
vn 0.6984 -0.2528 -0.6695
vn 0.6985 -0.2529 -0.6695
vn 0.6984 -0.2530 -0.6695
vn 0.6984 -0.2529 -0.6695
vn 0.6984 -0.2528 -0.6696
vn 0.6984 -0.2529 -0.6696
vn 0.6984 -0.2531 -0.6695
vn 0.8555 0.2716 0.4409
vn -0.2591 -0.9627 0.0780
vn 0.1984 0.9737 -0.1118
vn -0.9445 -0.2168 -0.2466
vn 0.1343 0.9690 -0.2072
vn -0.5543 0.3031 -0.7752
vn -0.0693 -0.9666 0.2466
vn -0.8531 -0.2731 -0.4446
vn 0.2166 0.9675 -0.1303
vn 0.5401 -0.3193 0.7786
vn -0.8865 -0.0668 0.4580
vn -0.0584 -0.9916 0.1154
vn 0.1864 -0.2157 0.9585
vn -0.2075 -0.9756 0.0715
vn 0.9427 0.2184 0.2521
vn 0.1279 0.9725 -0.1945
vn -0.1888 0.2078 -0.9598
vn -0.0837 -0.9744 0.2087
vn 0.9758 0.1354 -0.1716
vn 0.1205 0.9797 -0.1602
vn 0.1573 0.9772 -0.1425
vn -0.5672 -0.0717 0.8205
vn -0.1048 -0.9919 0.0716
vn 0.8906 0.0883 -0.4462
vn 0.1494 0.9765 -0.1551
vn 0.5685 0.0639 -0.8202
vn -0.0370 -0.9878 0.1510
vn -0.9761 -0.0948 0.1957
vn 0.1188 0.1273 -0.9847
vn -0.1720 -0.9816 0.0834
vn -0.1234 -0.1286 0.9840
vn 0.1785 0.9745 -0.1362
vn 0.7305 -0.3852 0.5639
vn 0.2172 0.9641 -0.1527
vn -0.7313 0.3836 -0.5639
vn -0.2878 -0.9518 0.1056
vn -0.5891 -0.3766 -0.7150
vn -0.1069 -0.9532 0.2827
vn 0.1596 0.9649 -0.2085
vn 0.5891 0.3754 0.7156
vn 0.9305 -0.0481 -0.3630
vn 0.3627 -0.0481 0.9307
vn 0.9145 -0.0481 0.4016
vn -0.9145 -0.0481 -0.4016
vn 0.4016 -0.0481 -0.9145
vn -0.3627 -0.0481 -0.9307
vn -0.9307 -0.0481 0.3627
vn -0.4016 -0.0481 0.9145
vn -0.7731 0.5582 0.3013
vn -0.2940 0.5869 -0.7544
vn 0.6832 0.6657 0.3000
vn -0.7622 0.5541 -0.3347
vn 0.6977 0.6627 -0.2719
vn 0.2790 0.6400 0.7160
vn 0.3116 0.6321 -0.7095
vn -0.7731 0.5581 0.3013
vn -0.3229 0.5959 0.7353
vn 0.9407 -0.0963 -0.3252
vn 0.9087 -0.0950 0.4064
vn 0.3553 -0.0950 0.9299
vn -0.4003 -0.0952 0.9114
vn -0.9275 -0.0951 0.3615
vn -0.8962 -0.0961 -0.4331
vn -0.3615 -0.0952 -0.9275
vn 0.4003 -0.0952 -0.9114
vn -0.9141 -0.0950 -0.3941
vn 0.9253 -0.0962 0.3669
vn 0.3971 -0.0963 0.9127
vn 0.9251 -0.0950 -0.3677
vn 0.4860 0.8532 0.1891
vn -0.1916 0.8494 -0.4918
vn -0.4804 -0.8501 -0.2156
vn 0.4509 -0.8703 0.1980
vn -0.4936 -0.8535 0.1670
vn 0.4509 0.8703 0.1980
vn -0.4918 0.8494 0.1917
vn -0.2123 -0.8493 0.4834
vn 0.2122 0.8494 -0.4833
vn 0.1916 -0.8494 0.4918
vn 0.2111 0.8535 0.4764
vn 0.4893 0.8500 -0.1951
vn 0.9153 0.1949 0.3524
vn -0.8941 -0.2153 -0.3926
vn -0.6024 -0.4055 0.6875
vn 0.6255 0.4992 -0.5996
vn -0.7025 -0.4398 0.5595
vn 0.3148 -0.1973 0.9284
vn 0.6255 0.4993 -0.5996
vn -0.3546 0.2153 -0.9099
vn -0.4860 -0.8533 -0.1891
vn 0.1874 0.8501 0.4921
vn -0.2112 -0.8535 -0.4764
vn -0.4893 -0.8500 0.1951
vn 0.4918 -0.8494 -0.1917
vn 0.4015 -0.0566 -0.9141
vn 0.9301 -0.0566 -0.3628
vn -0.5099 0.3481 -0.7866
vn 0.7741 0.5566 -0.3016
vn 0.4937 0.8535 -0.1670
vn -0.3016 0.5566 -0.7741
vn 0.9301 -0.0569 -0.3628
vn 0.9300 -0.0570 -0.3632
vn -0.4681 0.8533 -0.2298
vn 0.7595 0.5174 -0.3943
vn -0.5949 0.4011 0.6966
vn -0.1640 0.7765 0.6084
vn -0.2406 -0.9138 0.3273
vn -0.7365 -0.3599 -0.5728
vn 0.4056 -0.3756 0.8333
vn -0.3626 -0.9050 0.2226
vn 0.8155 0.3756 0.4404
vn 0.6983 -0.2529 -0.6697
vn 0.8554 0.2704 0.4417
vn -0.2535 -0.9630 0.0914
vn 0.1982 0.9725 -0.1221
vn -0.9431 -0.2233 -0.2463
vn 0.1461 0.9697 -0.1956
vn -0.5509 0.3214 -0.7702
vn -0.0880 -0.9694 0.2290
vn -0.8531 -0.2813 -0.4394
vn 0.2099 0.9668 -0.1457
vn 0.5418 -0.3108 0.7809
vn -0.8859 -0.0892 0.4552
vn -0.0614 -0.9912 0.1175
vn 0.1874 -0.2138 0.9587
vn -0.2074 -0.9745 0.0856
vn 0.9441 0.2123 0.2523
vn 0.1217 0.9732 -0.1951
vn -0.1888 0.2084 -0.9596
vn -0.0783 -0.9747 0.2092
vn 0.9803 0.0940 -0.1739
vn 0.1409 0.9759 -0.1668
vn 0.1567 0.9775 -0.1414
vn -0.5666 -0.0655 0.8214
vn -0.1012 -0.9928 0.0647
vn 0.8913 0.0646 -0.4488
vn 0.1453 0.9776 -0.1522
vn 0.5690 0.0693 -0.8194
vn -0.0820 -0.9828 0.1657
vn -0.9713 -0.1386 0.1934
vn 0.1193 0.1470 -0.9819
vn -0.1640 -0.9854 0.0461
vn -0.1304 -0.1538 0.9795
vn 0.1731 0.9787 -0.1103
vn 0.9306 -0.0484 -0.3627
vn 0.9307 -0.0481 -0.3627
vn 0.6832 0.6657 0.3001
vn 0.6977 0.6628 -0.2719
vn 0.2790 0.6400 0.7159
vn 0.9407 -0.0966 -0.3253
vn 0.9087 -0.0954 0.4064
vn 0.3553 -0.0954 0.9299
vn -0.9275 -0.0952 0.3615
vn -0.8962 -0.0965 -0.4329
vn 0.4003 -0.0949 -0.9115
vn -0.9141 -0.0954 -0.3941
vn 0.9252 -0.0965 0.3670
vn 0.3969 -0.0966 0.9127
vn 0.9250 -0.0964 -0.3676
vn 0.4838 -0.8501 0.2079
vn 0.4804 0.8501 0.2155
vn -0.4918 0.8494 0.1916
vn -0.2122 -0.8494 0.4832
vn 0.2123 0.8493 -0.4834
vn 0.8941 0.2153 0.3927
vn -0.9182 -0.1877 -0.3487
vn -0.5888 -0.4218 0.6895
vn -0.7011 -0.4280 0.5704
vn 0.3546 -0.2153 0.9099
vn -0.3175 0.2025 -0.9264
vt 0.550714 0.089140
vt 0.551184 0.089297
vt 0.551034 0.089470
vt 0.553094 0.094956
vt 0.553302 0.092013
vt 0.553302 0.095077
vt 0.551226 0.078332
vt 0.549298 0.080634
vt 0.549117 0.080434
vt 0.553071 0.091570
vt 0.553074 0.091994
vt 0.551465 0.074828
vt 0.551465 0.078446
vt 0.550769 0.097314
vt 0.550836 0.097578
vt 0.543336 0.067238
vt 0.545630 0.074547
vt 0.543210 0.074482
vt 0.547403 0.089089
vt 0.550262 0.088879
vt 0.550299 0.089133
vt 0.547324 0.097524
vt 0.547459 0.097263
vt 0.536232 0.095698
vt 0.539050 0.096405
vt 0.536589 0.096501
vt 0.545993 0.073793
vt 0.543236 0.081078
vt 0.543045 0.073835
vt 0.541467 0.081043
vt 0.541183 0.073798
vt 0.541378 0.079162
vt 0.539028 0.079762
vt 0.539131 0.078883
vt 0.547083 0.087980
vt 0.544582 0.088880
vt 0.544102 0.088047
vt 0.543071 0.093002
vt 0.542854 0.090686
vt 0.543071 0.090459
vt 0.544585 0.094094
vt 0.547027 0.088825
vt 0.547027 0.094040
vt 0.548755 0.090553
vt 0.548755 0.092714
vt 0.541993 0.092886
vt 0.542854 0.092846
vt 0.536075 0.079074
vt 0.534822 0.080368
vt 0.534000 0.079622
vt 0.541459 0.095683
vt 0.541134 0.096501
vt 0.540873 0.096489
vt 0.542258 0.089974
vt 0.538716 0.078909
vt 0.538688 0.079783
vt 0.536132 0.093838
vt 0.539235 0.095581
vt 0.539067 0.077037
vt 0.538640 0.077063
vt 0.541897 0.083000
vt 0.544092 0.084907
vt 0.541881 0.084864
vt 0.538747 0.083044
vt 0.538818 0.084907
vt 0.549528 0.079400
vt 0.551361 0.081136
vt 0.549439 0.081246
vt 0.546522 0.079357
vt 0.549164 0.081262
vt 0.546517 0.081204
vt 0.541508 0.093822
vt 0.541778 0.095698
vt 0.535966 0.090768
vt 0.539221 0.093717
vt 0.538961 0.073990
vt 0.541378 0.077323
vt 0.538514 0.074018
vt 0.541924 0.079923
vt 0.544171 0.083044
vt 0.538630 0.079970
vt 0.549673 0.076354
vt 0.551504 0.079287
vt 0.546531 0.076309
vt 0.549244 0.079416
vt 0.541588 0.090752
vt 0.541836 0.093838
vt 0.545584 0.080307
vt 0.545102 0.080418
vt 0.545312 0.080033
vt 0.548660 0.080318
vt 0.545868 0.080724
vt 0.546002 0.080308
vt 0.550836 0.078151
vt 0.548933 0.080047
vt 0.550836 0.075075
vt 0.548661 0.072891
vt 0.551226 0.074921
vt 0.542202 0.095280
vt 0.542274 0.095021
vt 0.542313 0.095289
vt 0.545584 0.072879
vt 0.542993 0.074890
vt 0.545404 0.072487
vt 0.543409 0.078123
vt 0.543409 0.075046
vt 0.543515 0.082060
vt 0.542100 0.082032
vt 0.549842 0.085075
vt 0.550001 0.085753
vt 0.549721 0.085753
vt 0.540924 0.089954
vt 0.543374 0.091080
vt 0.541521 0.090929
vt 0.543334 0.082940
vt 0.545993 0.090133
vt 0.543241 0.090143
vt 0.547607 0.074707
vt 0.548066 0.081778
vt 0.547686 0.081788
vt 0.542935 0.067228
vt 0.540819 0.074578
vt 0.540819 0.067339
vt 0.540896 0.082741
vt 0.544791 0.074731
vt 0.545267 0.081852
vt 0.545011 0.081810
vt 0.551062 0.089059
vt 0.551327 0.087365
vt 0.551579 0.089578
vt 0.549483 0.090644
vt 0.547769 0.091163
vt 0.547554 0.090948
vt 0.546036 0.081038
vt 0.545314 0.075600
vt 0.543378 0.075549
vt 0.547785 0.082646
vt 0.547480 0.082654
vt 0.542830 0.074472
vt 0.541466 0.075625
vt 0.545545 0.082705
vt 0.543074 0.075540
vt 0.546190 0.089579
vt 0.546190 0.087339
vt 0.547769 0.085754
vt 0.551579 0.087618
vt 0.545061 0.074774
vt 0.545868 0.072489
vt 0.548815 0.072500
vt 0.545404 0.080722
vt 0.546095 0.079348
vt 0.535923 0.077233
vt 0.546101 0.081195
vt 0.536523 0.079919
vt 0.542854 0.093185
vt 0.541993 0.093300
vt 0.548755 0.093053
vt 0.547027 0.094859
vt 0.544586 0.094914
vt 0.543071 0.093402
vt 0.544902 0.080617
vt 0.545858 0.072228
vt 0.548908 0.072261
vt 0.551579 0.087338
vt 0.551365 0.087122
vt 0.542908 0.074428
vt 0.543222 0.081523
vt 0.547401 0.085075
vt 0.541898 0.082028
vt 0.541213 0.081038
vt 0.543526 0.095025
vt 0.543757 0.095265
vt 0.543526 0.095270
vt 0.542993 0.078301
vt 0.541993 0.090251
vt 0.540916 0.073793
vt 0.545102 0.094832
vt 0.545202 0.095364
vt 0.544824 0.094946
vt 0.542577 0.095278
vt 0.542790 0.095021
vt 0.542790 0.095329
vt 0.548911 0.080195
vt 0.548859 0.080566
vt 0.548766 0.080340
vt 0.545551 0.072564
vt 0.540339 0.076332
vt 0.539958 0.076317
vt 0.540112 0.076196
vt 0.545882 0.072791
vt 0.545644 0.072790
vt 0.540699 0.095104
vt 0.540661 0.095478
vt 0.540661 0.095021
vt 0.552941 0.096277
vt 0.552639 0.096302
vt 0.552771 0.096151
vt 0.544442 0.095257
vt 0.544572 0.095021
vt 0.544562 0.095254
vt 0.540134 0.076062
vt 0.540273 0.075799
vt 0.540356 0.076057
vt 0.543757 0.095270
vt 0.543989 0.095021
vt 0.543989 0.095265
vt 0.544251 0.095270
vt 0.544120 0.095021
vt 0.544281 0.095134
vt 0.544310 0.095039
vt 0.544442 0.095244
vt 0.544301 0.095265
vt 0.540613 0.095250
vt 0.540451 0.095021
vt 0.540661 0.095125
vt 0.541590 0.095352
vt 0.541336 0.095313
vt 0.541371 0.095287
vt 0.541594 0.095087
vt 0.541619 0.095386
vt 0.541074 0.095055
vt 0.541048 0.095341
vt 0.541048 0.095021
vt 0.541309 0.095365
vt 0.541083 0.095313
vt 0.541364 0.095056
vt 0.541560 0.095115
vt 0.544622 0.087486
vt 0.544748 0.087510
vt 0.544731 0.087523
vt 0.544735 0.087635
vt 0.544748 0.087651
vt 0.541336 0.095021
vt 0.072809 0.891341
vt 0.072650 0.890757
vt 0.072794 0.890754
vt 0.075283 0.881670
vt 0.075724 0.881801
vt 0.075279 0.881804
vt 0.071213 0.894708
vt 0.071645 0.894297
vt 0.071737 0.894409
vt 0.070135 0.887667
vt 0.069974 0.887062
vt 0.070127 0.887044
vt 0.070798 0.890493
vt 0.071424 0.890502
vt 0.071377 0.890640
vt 0.074424 0.888644
vt 0.074339 0.888231
vt 0.074445 0.888198
vt 0.075377 0.885691
vt 0.075980 0.885643
vt 0.075381 0.885834
vt 0.069945 0.888297
vt 0.070100 0.888320
vt 0.070699 0.894747
vt 0.071165 0.894570
vt 0.074420 0.881471
vt 0.074527 0.881026
vt 0.074541 0.881493
vt 0.070586 0.887705
vt 0.070591 0.888399
vt 0.070445 0.888384
vt 0.076968 0.884628
vt 0.077090 0.883819
vt 0.077222 0.883809
vt 0.070736 0.891089
vt 0.070498 0.890653
vt 0.070633 0.890630
vt 0.075774 0.881672
vt 0.076182 0.882028
vt 0.072800 0.890208
vt 0.071875 0.890901
vt 0.073067 0.894450
vt 0.072995 0.894060
vt 0.073124 0.894085
vt 0.076403 0.885238
vt 0.076500 0.885336
vt 0.072655 0.890190
vt 0.072863 0.889577
vt 0.071975 0.890795
vt 0.072326 0.891544
vt 0.072346 0.893488
vt 0.072719 0.892359
vt 0.072464 0.893558
vt 0.070537 0.889583
vt 0.076862 0.882753
vt 0.073077 0.891252
vt 0.073021 0.892002
vt 0.072942 0.891271
vt 0.072462 0.891523
vt 0.072584 0.892353
vt 0.073052 0.893140
vt 0.073154 0.891991
vt 0.073180 0.893151
vt 0.076835 0.884613
vt 0.069856 0.886386
vt 0.070002 0.886347
vt 0.076273 0.881918
vt 0.070393 0.889591
vt 0.074407 0.881927
vt 0.074528 0.881950
vt 0.070260 0.894638
vt 0.070698 0.894600
vt 0.074445 0.889102
vt 0.074322 0.888663
vt 0.074852 0.881807
vt 0.074847 0.881940
vt 0.070011 0.888809
vt 0.074852 0.885774
vt 0.070260 0.890445
vt 0.070259 0.890592
vt 0.072722 0.891841
vt 0.072863 0.891822
vt 0.539198 0.090642
vt 0.541640 0.088094
vt 0.549377 0.076371
vt 0.549789 0.073713
vt 0.546083 0.076299
vt 0.546545 0.073666
vt 0.535674 0.074195
vt 0.538400 0.071384
vt 0.535836 0.088111
vt 0.541356 0.071664
vt 0.541378 0.074289
vt 0.541938 0.077259
vt 0.544302 0.079970
vt 0.538539 0.077307
vt 0.551741 0.076235
vt 0.541931 0.090768
vt 0.541056 0.073596
vt 0.540777 0.073590
vt 0.550654 0.078120
vt 0.543303 0.067017
vt 0.542884 0.067005
vt 0.547648 0.074529
vt 0.544987 0.074600
vt 0.548573 0.080193
vt 0.548834 0.079933
vt 0.548573 0.073087
vt 0.545630 0.073076
vt 0.543549 0.075149
vt 0.548007 0.074696
vt 0.546308 0.082741
vt 0.543281 0.082752
vt 0.543002 0.073634
vt 0.545883 0.067306
vt 0.545742 0.075244
vt 0.545510 0.075659
vt 0.545535 0.075232
vt 0.540519 0.083598
vt 0.540824 0.080558
vt 0.540723 0.083598
vt 0.540602 0.080147
vt 0.540705 0.077968
vt 0.540806 0.080163
vt 0.552642 0.083431
vt 0.552900 0.087042
vt 0.552693 0.087037
vt 0.552849 0.089658
vt 0.552642 0.089641
vt 0.544490 0.073339
vt 0.543893 0.075377
vt 0.543757 0.073373
vt 0.543613 0.084808
vt 0.542885 0.084792
vt 0.545718 0.069112
vt 0.545649 0.072669
vt 0.545510 0.069128
vt 0.542885 0.062614
vt 0.540705 0.084163
vt 0.545858 0.081002
vt 0.545291 0.080980
vt 0.542734 0.074795
vt 0.545291 0.072247
vt 0.553277 0.091485
vt 0.545422 0.095162
vt 0.550777 0.088908
vt 0.548815 0.080735
vt 0.545079 0.091447
vt 0.547266 0.088853
vt 0.544800 0.091354
vt 0.548908 0.080994
vt 0.542734 0.078412
vt 0.540661 0.095390
vt 0.540416 0.095284
vt 0.540801 0.095308
vt 0.540832 0.095062
vt 0.540922 0.095269
vt 0.542790 0.095293
vt 0.543014 0.095021
vt 0.543014 0.095260
vt 0.553051 0.096169
vt 0.552822 0.095894
vt 0.552873 0.096050
vt 0.543014 0.095293
vt 0.543238 0.095021
vt 0.543238 0.095260
vt 0.542155 0.095439
vt 0.542250 0.095558
vt 0.540870 0.079991
vt 0.542155 0.095133
vt 0.550192 0.085075
vt 0.546230 0.082930
vt 0.550001 0.091163
vt 0.545755 0.082028
vt 0.545575 0.091072
vt 0.546002 0.072881
vt 0.543757 0.095021
vt 0.542577 0.095114
vt 0.540356 0.076556
vt 0.553062 0.096363
vt 0.544442 0.095026
vt 0.540066 0.075960
vt 0.543757 0.095025
vt 0.544120 0.095287
vt 0.544442 0.095021
vt 0.541336 0.095398
vt 0.544609 0.087469
vt 0.072669 0.891360
vt 0.069981 0.887661
vt 0.070799 0.890346
vt 0.075930 0.885514
vt 0.074407 0.880992
vt 0.070736 0.887731
vt 0.070603 0.891127
vt 0.072942 0.894415
vt 0.072729 0.889539
vt 0.076979 0.882684
vt 0.070259 0.894491
vt 0.074342 0.889121
vt 0.069856 0.888787
vt 0.074847 0.885632
vt 0.539174 0.087980
vt 0.549483 0.073730
vt 0.546083 0.073656
vt 0.535468 0.071567
vt 0.538861 0.071355
vt 0.544393 0.077307
vt 0.551923 0.073590
vt 0.541993 0.088111
vt 0.550654 0.075176
vt 0.548066 0.074519
vt 0.546083 0.073590
vt 0.545965 0.067087
vt 0.545718 0.075673
vt 0.540620 0.080543
vt 0.540500 0.077942
vt 0.552849 0.083419
vt 0.544627 0.075350
vt 0.545856 0.072669
vt 0.543613 0.062529
vt 0.540500 0.084165
vt 0.540484 0.095550
vt 0.542790 0.095053
vt 0.552639 0.096063
vt 0.543014 0.095053
s 0
usemtl Material
f 164/1/1 208/2/1 172/3/1
f 166/4/2 209/5/2 202/6/2
f 44/7/3 192/8/3 103/9/3
f 165/10/4 209/5/4 173/11/4
f 44/7/5 194/12/5 195/13/5
f 167/14/6 202/6/6 203/15/6
f 184/16/7 55/17/7 80/18/7
f 163/19/8 210/20/8 174/21/8
f 167/14/9 204/22/9 168/23/9
f 15/24/10 17/25/10 24/26/10
f 177/27/11 50/28/11 176/29/11
f 176/29/12 97/30/12 186/31/12
f 15/32/13 23/33/13 13/34/13
f 9/35/14 20/36/14 7/37/14
f 102/38/15 19/39/15 90/40/15
f 72/41/15 21/42/15 71/43/15
f 71/43/15 22/44/15 70/45/15
f 65/46/16 19/39/16 69/47/16
f 11/48/17 21/49/17 9/50/17
f 85/51/18 18/52/18 89/53/18
f 87/54/19 20/36/19 90/40/19
f 67/55/20 23/33/20 70/56/20
f 32/57/21 1/58/21 15/24/21
f 31/59/22 15/32/22 13/34/22
f 73/60/23 13/34/23 67/55/23
f 29/61/24 11/62/24 9/63/24
f 28/64/25 9/63/25 7/65/25
f 91/66/26 7/67/26 87/68/26
f 74/69/27 5/70/27 65/71/27
f 92/72/28 3/73/28 85/51/28
f 40/74/21 25/75/21 32/57/21
f 39/76/22 32/77/22 31/59/22
f 75/78/23 31/59/23 73/60/23
f 37/79/24 30/80/24 29/61/24
f 36/81/25 29/61/25 28/64/25
f 93/82/26 28/83/26 91/66/26
f 76/84/27 27/85/27 74/69/27
f 94/86/29 26/87/29 92/72/29
f 4/88/30 86/89/30 95/90/30
f 106/91/31 66/92/31 77/93/31
f 8/94/32 103/9/32 105/95/32
f 10/96/33 44/7/33 8/94/33
f 12/97/34 45/98/34 10/96/34
f 215/99/35 114/100/35 216/101/35
f 107/102/36 48/103/36 108/104/36
f 2/105/37 48/103/37 16/106/37
f 97/30/38 58/107/38 99/108/38
f 98/109/39 62/110/39 100/111/39
f 55/112/40 59/113/40 63/114/40
f 181/115/41 49/116/41 51/117/41
f 183/118/42 53/119/42 79/120/42
f 179/121/43 52/122/43 177/123/43
f 178/124/44 51/117/44 55/112/44
f 185/125/45 54/126/45 98/127/45
f 81/128/46 100/111/46 101/129/46
f 58/130/46 82/131/46 81/128/46
f 82/131/46 64/132/46 84/133/46
f 52/134/47 58/107/47 50/28/47
f 80/18/48 63/135/48 84/136/48
f 49/116/49 59/113/49 51/117/49
f 79/120/50 61/137/50 83/138/50
f 56/139/51 60/140/51 52/122/51
f 79/120/52 62/141/52 54/126/52
f 80/18/53 64/142/53 56/139/53
f 82/131/46 63/143/46 59/144/46
f 81/128/46 59/144/46 57/145/46
f 99/146/46 81/128/46 101/129/46
f 183/118/54 54/126/54 182/147/54
f 12/97/55 109/148/55 46/149/55
f 4/88/31 66/92/31 41/150/31
f 26/151/27 76/84/27 74/69/27
f 30/152/23 75/78/23 73/60/23
f 3/153/27 74/69/27 65/71/27
f 11/48/23 73/60/23 67/55/23
f 67/55/20 22/154/20 11/48/20
f 65/46/56 18/155/56 3/156/56
f 71/43/15 23/157/15 24/158/15
f 17/159/15 71/43/15 24/158/15
f 18/155/15 102/38/15 89/160/15
f 184/16/7 56/139/7 179/121/7
f 41/150/57 187/161/57 86/89/57
f 46/149/58 197/162/58 196/163/58
f 89/160/15 72/41/15 17/159/15
f 61/164/46 101/129/46 83/165/46
f 101/129/46 62/110/46 83/165/46
f 180/166/45 98/127/45 49/167/45
f 98/109/39 57/145/39 49/168/39
f 97/30/59 61/169/59 53/170/59
f 211/171/60 115/172/60 212/173/60
f 2/105/30 86/89/30 42/174/30
f 25/75/29 94/86/29 92/72/29
f 27/85/26 93/82/26 91/66/26
f 1/58/28 92/72/28 85/51/28
f 5/70/26 91/66/26 87/68/26
f 87/54/61 19/39/61 5/175/61
f 1/58/18 89/53/18 17/25/18
f 72/41/15 90/40/15 20/36/15
f 186/31/12 53/170/12 175/176/12
f 169/177/62 207/178/62 205/179/62
f 108/104/63 197/162/63 109/148/63
f 43/180/64 103/181/64 104/182/64
f 96/183/46 106/91/46 105/95/46
f 43/184/46 106/91/46 6/185/46
f 47/186/65 107/102/65 108/104/65
f 47/187/66 109/188/66 68/189/66
f 78/190/46 107/102/46 14/191/46
f 78/192/67 109/193/67 110/194/67
f 96/195/68 103/196/68 88/197/68
f 214/198/69 118/199/69 117/200/69
f 214/201/70 116/202/70 211/203/70
f 217/204/71 114/205/71 112/206/71
f 218/207/72 112/208/72 111/209/72
f 218/210/73 113/211/73 215/212/73
f 213/213/74 115/214/74 118/215/74
f 112/216/75 119/217/75 111/218/75
f 112/216/76 122/219/76 120/220/76
f 116/221/77 125/222/77 124/223/77
f 118/224/78 125/222/78 117/225/78
f 113/226/79 122/219/79 114/227/79
f 116/228/80 123/229/80 115/230/80
f 118/231/81 123/229/81 126/232/81
f 113/226/82 119/217/82 121/233/82
f 138/234/83 131/235/83 134/236/83
f 135/237/84 129/238/84 136/239/84
f 128/240/85 146/241/85 144/242/85
f 132/243/86 149/244/86 148/245/86
f 137/246/87 132/247/87 131/248/87
f 140/249/88 129/250/88 130/251/88
f 138/252/89 133/253/89 141/254/89
f 141/255/90 132/243/90 139/256/90
f 142/257/91 130/258/91 128/240/91
f 142/259/92 127/260/92 135/261/92
f 157/262/93 151/263/93 152/264/93
f 156/265/94 153/266/94 151/267/94
f 127/268/95 144/269/95 143/270/95
f 127/271/96 145/272/96 129/238/96
f 131/235/97 150/273/97 134/236/97
f 132/247/98 147/274/98 131/248/98
f 130/275/99 145/276/99 146/277/99
f 133/253/100 150/278/100 149/279/100
f 147/280/101 155/281/101 150/273/101
f 148/282/102 158/283/102 147/274/102
f 159/284/103 152/285/103 160/286/103
f 161/287/104 152/264/104 151/263/104
f 162/288/105 151/267/105 153/266/105
f 158/289/106 153/290/106 155/291/106
f 157/292/107 154/293/107 158/283/107
f 162/294/108 154/295/108 159/296/108
f 149/279/109 155/297/109 156/265/109
f 148/245/110 156/298/110 157/299/110
f 146/277/111 162/294/111 159/296/111
f 143/300/112 162/288/112 145/272/112
f 143/270/113 160/301/113 161/287/113
f 144/242/114 159/284/114 160/286/114
f 120/302/115 135/261/115 119/303/115
f 120/304/116 140/305/116 142/257/116
f 122/306/117 136/307/117 140/249/117
f 119/308/118 136/239/118 121/309/118
f 124/310/119 141/255/119 139/256/119
f 125/311/120 138/252/120 141/254/120
f 124/312/121 137/246/121 123/313/121
f 123/314/122 138/234/122 126/315/122
f 33/316/123 174/317/123 94/86/123
f 35/318/124 173/319/124 93/82/124
f 34/320/125 172/321/125 76/84/125
f 38/322/126 171/323/126 75/78/126
f 170/324/127 33/316/127 40/74/127
f 39/76/128 170/325/128 40/326/128
f 171/323/126 39/76/126 75/78/126
f 167/327/129 38/328/129 37/79/129
f 166/329/130 37/79/130 36/81/130
f 173/319/124 36/330/124 93/82/124
f 172/321/125 35/318/125 76/84/125
f 174/317/123 34/331/123 94/86/123
f 95/332/131 175/176/131 4/333/131
f 105/95/132 180/334/132 8/94/132
f 110/335/133 179/121/133 107/336/133
f 77/337/134 182/147/134 106/338/134
f 105/95/132 182/339/132 185/340/132
f 10/96/135 178/341/135 12/97/135
f 16/106/136 179/342/136 177/343/136
f 77/337/134 175/344/134 183/118/134
f 8/345/137 181/115/137 10/346/137
f 95/332/138 176/29/138 186/31/138
f 2/347/139 177/27/139 176/29/139
f 110/335/133 178/348/133 184/16/133
f 187/349/140 200/350/140 210/351/140
f 190/352/141 201/353/141 208/354/141
f 192/355/142 202/356/142 209/357/142
f 202/358/143 194/359/143 203/360/143
f 203/360/144 196/361/144 204/362/144
f 197/363/145 205/364/145 207/365/145
f 205/364/146 198/366/146 206/367/146
f 198/368/147 189/369/147 206/370/147
f 204/371/148 197/363/148 207/365/148
f 200/372/149 190/352/149 208/354/149
f 201/353/150 192/355/150 209/357/150
f 189/369/151 187/349/151 210/351/151
f 41/150/152 190/373/152 191/374/152
f 108/104/153 198/375/153 199/376/153
f 165/10/154 208/2/154 201/377/154
f 168/23/155 207/178/155 171/378/155
f 164/1/156 210/20/156 200/379/156
f 104/380/157 190/373/157 66/92/157
f 45/98/158 196/163/158 194/12/158
f 170/381/159 189/382/159 163/19/159
f 42/174/160 198/375/160 48/103/160
f 170/381/161 205/179/161 206/383/161
f 104/380/162 192/8/162 193/384/162
f 42/174/163 187/161/163 188/385/163
f 78/386/164 212/387/164 213/213/164
f 68/189/165 211/203/165 47/187/165
f 68/388/166 213/389/166 214/390/166
f 14/391/167 211/392/167 212/393/167
f 88/197/168 215/394/168 96/195/168
f 88/197/169 217/395/169 218/396/169
f 43/397/170 216/398/170 217/399/170
f 96/400/171 216/101/171 6/401/171
f 164/1/172 200/379/172 208/2/172
f 166/4/4 173/11/4 209/5/4
f 44/7/173 195/13/173 192/8/173
f 165/10/174 201/377/174 209/5/174
f 44/7/5 45/98/5 194/12/5
f 167/14/6 166/4/6 202/6/6
f 184/16/7 178/348/7 55/17/7
f 163/19/175 189/382/175 210/20/175
f 167/14/176 203/15/176 204/22/176
f 15/24/10 1/58/10 17/25/10
f 177/27/11 52/134/11 50/28/11
f 176/29/12 50/28/12 97/30/12
f 15/32/13 24/402/13 23/33/13
f 9/35/14 21/42/14 20/36/14
f 102/38/15 69/47/15 19/39/15
f 72/41/15 20/36/15 21/42/15
f 71/43/15 21/42/15 22/44/15
f 65/46/56 5/175/56 19/39/56
f 11/48/17 22/154/17 21/49/17
f 85/51/18 3/73/18 18/52/18
f 87/54/19 7/37/19 20/36/19
f 67/55/20 13/34/20 23/33/20
f 32/57/21 25/75/21 1/58/21
f 31/59/22 32/77/22 15/32/22
f 73/60/23 31/59/23 13/34/23
f 29/61/24 30/80/24 11/62/24
f 28/64/25 29/61/25 9/63/25
f 91/66/26 28/83/26 7/67/26
f 74/69/27 27/85/27 5/70/27
f 92/72/29 26/87/29 3/73/29
f 40/74/177 33/316/177 25/75/177
f 39/76/22 40/326/22 32/77/22
f 75/78/23 39/76/23 31/59/23
f 37/79/24 38/328/24 30/80/24
f 36/81/25 37/79/25 29/61/25
f 93/82/26 36/330/26 28/83/26
f 76/84/27 35/318/27 27/85/27
f 94/86/178 34/331/178 26/87/178
f 4/88/30 41/150/30 86/89/30
f 106/91/31 104/380/31 66/92/31
f 8/94/32 44/7/32 103/9/32
f 10/96/33 45/98/33 44/7/33
f 12/97/34 46/149/34 45/98/34
f 215/99/179 113/403/179 114/100/179
f 107/102/36 16/106/36 48/103/36
f 2/105/37 42/174/37 48/103/37
f 97/30/38 50/28/38 58/107/38
f 98/109/39 54/404/39 62/110/39
f 55/112/180 51/117/180 59/113/180
f 181/115/41 180/405/41 49/116/41
f 183/118/42 175/344/42 53/119/42
f 179/121/43 56/139/43 52/122/43
f 178/124/44 181/115/44 51/117/44
f 185/125/45 182/147/45 54/126/45
f 81/128/46 57/145/46 100/111/46
f 58/130/46 60/406/46 82/131/46
f 82/131/46 60/406/46 64/132/46
f 52/134/47 60/407/47 58/107/47
f 80/18/48 55/17/48 63/135/48
f 49/116/49 57/408/49 59/113/49
f 79/120/52 53/119/52 61/137/52
f 56/139/51 64/142/51 60/140/51
f 79/120/52 83/138/52 62/141/52
f 80/18/53 84/136/53 64/142/53
f 82/131/46 84/133/46 63/143/46
f 81/128/46 82/131/46 59/144/46
f 99/146/46 58/130/46 81/128/46
f 183/118/54 79/120/54 54/126/54
f 12/97/55 110/409/55 109/148/55
f 4/88/31 77/93/31 66/92/31
f 26/151/27 34/320/27 76/84/27
f 30/152/23 38/322/23 75/78/23
f 3/153/27 26/151/27 74/69/27
f 11/48/23 30/152/23 73/60/23
f 67/55/20 70/56/20 22/154/20
f 65/46/16 69/47/16 18/155/16
f 71/43/15 70/45/15 23/157/15
f 17/159/15 72/41/15 71/43/15
f 18/155/15 69/47/15 102/38/15
f 184/16/7 80/18/7 56/139/7
f 41/150/181 191/374/181 187/161/181
f 46/149/63 109/148/63 197/162/63
f 89/160/15 102/38/15 72/41/15
f 61/164/46 99/146/46 101/129/46
f 101/129/46 100/111/46 62/110/46
f 180/166/45 185/125/45 98/127/45
f 98/109/182 100/111/182 57/145/182
f 97/30/38 99/108/38 61/169/38
f 211/171/60 116/410/60 115/172/60
f 2/105/30 95/90/30 86/89/30
f 25/75/183 33/316/183 94/86/183
f 27/85/26 35/318/26 93/82/26
f 1/58/184 25/75/184 92/72/184
f 5/70/26 27/85/26 91/66/26
f 87/54/19 90/40/19 19/39/19
f 1/58/18 85/51/18 89/53/18
f 72/41/15 102/38/15 90/40/15
f 186/31/12 97/30/12 53/170/12
f 169/177/155 171/378/155 207/178/155
f 108/104/185 199/376/185 197/162/185
f 43/180/64 88/411/64 103/181/64
f 96/183/46 6/185/46 106/91/46
f 43/184/186 104/380/186 106/91/186
f 47/186/46 14/191/46 107/102/46
f 47/187/66 108/412/66 109/188/66
f 78/190/46 110/409/46 107/102/46
f 78/192/187 68/388/187 109/193/187
f 96/195/188 105/413/188 103/196/188
f 214/198/189 213/414/189 118/199/189
f 214/201/190 117/415/190 116/202/190
f 217/204/60 216/416/60 114/205/60
f 218/207/191 217/417/191 112/208/191
f 218/210/192 111/418/192 113/211/192
f 213/213/193 212/387/193 115/214/193
f 112/216/75 120/220/75 119/217/75
f 112/216/78 114/227/78 122/219/78
f 116/221/81 117/225/81 125/222/81
f 118/224/79 126/419/79 125/222/79
f 113/226/194 121/233/194 122/219/194
f 116/228/78 124/420/78 123/229/78
f 118/231/77 115/230/77 123/229/77
f 113/226/82 111/218/82 119/217/82
f 138/234/195 137/421/195 131/235/195
f 135/237/196 127/271/196 129/238/196
f 128/240/197 130/258/197 146/241/197
f 132/243/198 133/422/198 149/244/198
f 137/246/199 139/423/199 132/247/199
f 140/249/200 136/307/200 129/250/200
f 138/252/201 134/424/201 133/253/201
f 141/255/202 133/422/202 132/243/202
f 142/257/203 140/305/203 130/258/203
f 142/259/204 128/425/204 127/260/204
f 157/262/205 156/426/205 151/263/205
f 156/265/206 155/297/206 153/266/206
f 127/268/207 128/427/207 144/269/207
f 127/271/208 143/300/208 145/272/208
f 131/235/209 147/280/209 150/273/209
f 132/247/210 148/282/210 147/274/210
f 130/275/211 129/428/211 145/276/211
f 133/253/212 134/424/212 150/278/212
f 147/280/213 158/429/213 155/281/213
f 148/282/214 157/292/214 158/283/214
f 159/284/215 154/293/215 152/285/215
f 161/287/216 160/301/216 152/264/216
f 162/288/217 161/430/217 151/267/217
f 158/289/218 154/295/218 153/290/218
f 157/292/219 152/285/219 154/293/219
f 162/294/220 153/290/220 154/295/220
f 149/279/221 150/278/221 155/297/221
f 148/245/222 149/244/222 156/298/222
f 146/277/223 145/276/223 162/294/223
f 143/300/224 161/430/224 162/288/224
f 143/270/225 144/269/225 160/301/225
f 144/242/226 146/241/226 159/284/226
f 120/302/115 142/259/115 135/261/115
f 120/304/116 122/431/116 140/305/116
f 122/306/117 121/432/117 136/307/117
f 119/308/118 135/237/118 136/239/118
f 124/310/119 125/433/119 141/255/119
f 125/311/120 126/434/120 138/252/120
f 124/312/121 139/423/121 137/246/121
f 123/314/122 137/421/122 138/234/122
f 33/316/227 163/435/227 174/317/227
f 35/318/124 165/436/124 173/319/124
f 34/320/125 164/437/125 172/321/125
f 38/322/126 168/438/126 171/323/126
f 170/324/127 163/435/127 33/316/127
f 39/76/128 169/439/128 170/325/128
f 171/323/126 169/439/126 39/76/126
f 167/327/129 168/440/129 38/328/129
f 166/329/130 167/327/130 37/79/130
f 173/319/124 166/441/124 36/330/124
f 172/321/125 165/436/125 35/318/125
f 174/317/228 164/442/228 34/331/228
f 95/332/138 186/31/138 175/176/138
f 105/95/132 185/340/132 180/334/132
f 110/335/229 184/16/229 179/121/229
f 77/337/134 183/118/134 182/147/134
f 105/95/132 106/91/132 182/339/132
f 10/96/230 181/443/230 178/341/230
f 16/106/231 107/102/231 179/342/231
f 77/337/134 4/444/134 175/344/134
f 8/345/137 180/405/137 181/115/137
f 95/332/138 2/347/138 176/29/138
f 2/347/139 16/445/139 177/27/139
f 110/335/133 12/446/133 178/348/133
f 187/349/232 191/447/232 200/350/232
f 190/352/233 193/448/233 201/353/233
f 192/355/234 195/449/234 202/356/234
f 202/358/143 195/450/143 194/359/143
f 203/360/235 194/359/235 196/361/235
f 197/363/236 199/451/236 205/364/236
f 205/364/146 199/451/146 198/366/146
f 198/368/237 188/452/237 189/369/237
f 204/371/238 196/453/238 197/363/238
f 200/372/239 191/454/239 190/352/239
f 201/353/240 193/448/240 192/355/240
f 189/369/241 188/452/241 187/349/241
f 41/150/157 66/92/157 190/373/157
f 108/104/153 48/103/153 198/375/153
f 165/10/1 172/3/1 208/2/1
f 168/23/242 204/22/242 207/178/242
f 164/1/8 174/21/8 210/20/8
f 104/380/243 193/384/243 190/373/243
f 45/98/244 46/149/244 196/163/244
f 170/381/245 206/383/245 189/382/245
f 42/174/246 188/385/246 198/375/246
f 170/381/161 169/177/161 205/179/161
f 104/380/3 103/9/3 192/8/3
f 42/174/57 86/89/57 187/161/57
f 78/386/247 14/455/247 212/387/247
f 68/189/248 214/201/248 211/203/248
f 68/388/249 78/192/249 213/389/249
f 14/391/167 47/456/167 211/392/167
f 88/197/250 218/396/250 215/394/250
f 88/197/251 43/457/251 217/395/251
f 43/397/167 6/458/167 216/398/167
f 96/400/252 215/99/252 216/101/252
