# Blender 4.2.1 LTS
# www.blender.org
mtllib can_1_opened.mtl
g can_1_opened_Mesh
v 0.012583 0.043109 -0.052822
v 0.007403 0.061279 -0.057812
v 0.012455 0.083420 -0.059364
v 0.011817 0.104267 -0.055475
v 0.050143 0.102177 -0.032729
v 0.045183 0.085616 -0.031593
v 0.046094 0.066583 -0.037133
v 0.043140 0.041136 -0.033188
v 0.055238 0.104241 -0.003278
v 0.053674 0.083542 -0.001983
v 0.053811 0.063671 -0.002125
v 0.056321 0.043109 -0.004822
v 0.047023 0.104241 0.030306
v 0.045647 0.083542 0.030836
v 0.045768 0.063671 0.030757
v 0.047986 0.043109 0.029253
v 0.016302 0.102028 0.051659
v 0.019569 0.083542 0.053869
v 0.019797 0.063762 0.053803
v 0.023787 0.044841 0.052552
v -0.013327 0.104600 0.053839
v -0.011671 0.083858 0.058185
v -0.017497 0.061279 0.056596
v -0.013678 0.043109 0.054548
v -0.039034 0.104844 0.037903
v -0.043136 0.083542 0.039741
v -0.042880 0.063579 0.039619
v -0.040376 0.040409 0.036803
v -0.056337 0.104241 0.005026
v -0.055360 0.083542 0.006131
v -0.055432 0.063671 0.006005
v -0.056706 0.043109 0.003647
v -0.049019 0.103480 -0.029217
v -0.049229 0.081606 -0.028718
v -0.048285 0.062909 -0.027535
v -0.048371 0.043109 -0.030428
v -0.016960 0.104535 -0.054919
v -0.021561 0.084955 -0.056313
v -0.022652 0.066081 -0.059340
v -0.017951 0.038515 -0.054350
v 0.042954 0.033221 -0.038935
v 0.055530 0.033427 -0.007207
v 0.047165 0.033427 0.026994
v 0.021210 0.033741 0.049969
v -0.013232 0.033427 0.052746
v -0.042952 0.032305 0.034285
v -0.054925 0.033427 0.002024
v -0.046560 0.033427 -0.032176
v -0.019846 0.032592 -0.056787
v 0.013750 0.033427 -0.057575
v 0.012545 0.116202 -0.052656
v 0.040661 0.115658 -0.035136
v 0.054358 0.116202 -0.004168
v 0.046309 0.116202 0.028743
v 0.019726 0.115658 0.050458
v -0.013334 0.116202 0.053151
v -0.041116 0.116465 0.035578
v -0.054978 0.116202 0.003969
v -0.046929 0.116202 -0.028941
v -0.020181 0.116465 -0.053976
v -0.046717 0.042918 -0.029254
v -0.044995 0.033043 -0.030938
v -0.017287 0.037849 -0.052567
v 0.012188 0.042325 -0.051019
v -0.021969 0.065993 -0.057420
v 0.007037 0.061048 -0.055822
v -0.021543 0.086132 -0.051639
v 0.012734 0.084032 -0.054610
v -0.015902 0.105762 -0.051634
v 0.011353 0.104662 -0.047014
v -0.045723 0.063605 -0.025703
v -0.045655 0.083583 -0.025530
v -0.046455 0.104303 -0.027387
v -0.054678 0.043187 0.003444
v -0.053400 0.063687 0.005832
v -0.053328 0.083510 0.005963
v -0.054310 0.104183 0.004807
v -0.037011 0.041592 0.035943
v -0.041307 0.063693 0.038326
v -0.041573 0.083408 0.038439
v -0.035706 0.105166 0.037225
v -0.013190 0.043377 0.052589
v -0.016923 0.061412 0.054644
v -0.011297 0.083723 0.056185
v -0.012846 0.104404 0.051868
v 0.022928 0.045046 0.050715
v 0.019017 0.063798 0.051919
v 0.018757 0.083455 0.051999
v 0.015612 0.101867 0.049747
v 0.046237 0.043233 0.028214
v 0.044027 0.063606 0.029698
v 0.043923 0.083525 0.029744
v 0.045319 0.104185 0.029187
v 0.054292 0.042995 -0.004644
v 0.051789 0.063539 -0.001896
v 0.051651 0.083594 -0.001721
v 0.053215 0.104313 -0.003022
v 0.042772 0.041521 -0.030255
v 0.044619 0.066369 -0.035743
v 0.044556 0.086174 -0.027390
v 0.048716 0.102455 -0.031304
v 0.020471 0.034165 0.048126
v 0.045414 0.033773 0.026020
v -0.052898 0.033588 0.001870
v -0.012716 0.033725 0.050800
v 0.013397 0.032428 -0.055898
v -0.019204 0.031648 -0.055158
v 0.053506 0.033431 -0.006951
v 0.041604 0.032583 -0.037579
v -0.039962 0.033234 0.033388
v -0.019474 0.116929 -0.052133
v 0.012115 0.116746 -0.050756
v -0.045287 0.116332 -0.027740
v -0.052950 0.116137 0.003764
v -0.039521 0.116455 0.034306
v -0.012835 0.116107 0.051176
v 0.018926 0.115589 0.048584
v 0.044591 0.116101 0.027648
v 0.052338 0.116272 -0.003896
v 0.039186 0.116038 -0.033792
v 0.021251 0.000065 0.049258
v 0.019640 0.151746 0.045503
v -0.009230 0.000065 0.051731
v -0.010711 0.151746 0.048281
v -0.035760 0.000065 0.035340
v -0.036898 0.151746 0.032688
v -0.048204 0.000065 0.006347
v -0.048919 0.151746 0.004680
v -0.041809 0.000065 -0.024175
v -0.042182 0.151746 -0.025043
v -0.019018 0.000065 -0.044567
v -0.019260 0.151746 -0.045130
v 0.011464 0.000065 -0.047040
v 0.011091 0.151746 -0.047908
v 0.037994 0.000065 -0.030649
v 0.037279 0.151746 -0.032315
v 0.050438 0.000065 -0.001655
v 0.049299 0.151746 -0.004308
v 0.044043 0.000065 0.028867
v 0.042562 0.151746 0.025416
v 0.022982 0.000065 0.053290
v -0.010120 0.000065 0.055976
v -0.011648 0.151746 0.052414
v 0.021311 0.151746 0.049398
v -0.038929 0.000065 0.038176
v -0.040086 0.151746 0.035481
v -0.052443 0.000065 0.006691
v -0.053140 0.151746 0.005067
v -0.045498 0.000065 -0.026454
v -0.045824 0.151746 -0.027212
v -0.020749 0.000065 -0.048599
v -0.020932 0.151746 -0.049026
v 0.012353 0.000065 -0.051284
v 0.012028 0.151746 -0.052042
v 0.041163 0.000065 -0.033485
v 0.040466 0.151746 -0.035109
v 0.054677 0.000065 -0.001999
v 0.053520 0.151746 -0.004694
v 0.047732 0.000065 0.031146
v 0.046204 0.151746 0.027585
v 0.017789 0.149840 0.041190
v -0.017409 0.149840 -0.040817
v 0.038529 0.149840 0.023015
v 0.010054 0.149840 -0.043330
v -0.009674 0.149840 0.043703
v -0.038149 0.149840 -0.022642
v -0.019018 0.001972 -0.044567
v 0.021251 0.001972 0.049258
v -0.041809 0.001972 -0.024175
v -0.009230 0.001972 0.051731
v 0.011464 0.001972 -0.047040
v 0.044043 0.001972 0.028867
v -0.035760 0.001972 0.035340
v -0.033368 0.149840 0.029594
v -0.048204 0.001972 0.006347
v -0.044245 0.149840 0.004253
v 0.037994 0.001972 -0.030649
v 0.033749 0.149840 -0.029222
v 0.050438 0.001972 -0.001655
v 0.044625 0.149840 -0.003880
v 0.020141 0.042761 0.046670
v 0.019849 0.062533 0.037839
v 0.014419 0.087308 0.040865
v 0.018910 0.109693 0.043803
v -0.009276 0.107053 0.045745
v -0.013878 0.089707 0.044410
v -0.014744 0.065324 0.042392
v -0.016132 0.041517 0.048552
v -0.040116 0.109693 0.033943
v -0.039644 0.086794 0.031966
v -0.039644 0.065324 0.031966
v -0.040086 0.042761 0.035481
v -0.053021 0.109693 0.003875
v -0.052238 0.086794 0.002622
v -0.052238 0.065324 0.002622
v -0.053140 0.042761 0.005067
v -0.041696 0.107053 -0.029793
v -0.045640 0.086794 -0.029593
v -0.045640 0.065324 -0.029593
v -0.048210 0.044667 -0.026187
v -0.021179 0.109693 -0.049602
v -0.024790 0.087308 -0.050488
v -0.019107 0.062533 -0.052927
v -0.020932 0.042761 -0.049026
v 0.005610 0.110968 -0.050096
v 0.009738 0.086794 -0.054569
v 0.009738 0.065324 -0.054569
v 0.007368 0.040854 -0.050042
v 0.039520 0.109693 -0.035844
v 0.038073 0.086794 -0.036139
v 0.038073 0.065324 -0.036139
v 0.040466 0.042761 -0.035109
v 0.052426 0.109693 -0.005775
v 0.050667 0.086794 -0.006795
v 0.050667 0.065324 -0.006795
v 0.053520 0.042761 -0.004694
v 0.038030 0.110968 0.025442
v 0.042691 0.089707 0.022210
v 0.041072 0.065324 0.018437
v 0.039446 0.037704 0.024698
v 0.018407 0.105842 0.043474
v -0.009791 0.103904 0.045595
v -0.040063 0.105784 0.033721
v -0.052933 0.105784 0.003734
v -0.042138 0.103578 -0.029770
v -0.021583 0.105842 -0.049701
v 0.006072 0.106849 -0.050597
v 0.039358 0.105784 -0.035877
v 0.052228 0.105784 -0.005889
v 0.038552 0.107176 0.025080
v 0.014962 0.083516 0.040562
v -0.013965 0.085926 0.044208
v -0.039644 0.083338 0.031966
v -0.052238 0.083338 0.002622
v -0.045640 0.083338 -0.029593
v -0.024221 0.083516 -0.050732
v 0.009738 0.083338 -0.054569
v 0.038073 0.083338 -0.036139
v 0.050667 0.083338 -0.006795
v 0.042529 0.085926 0.021833
v 0.019881 0.058827 0.038768
v -0.014890 0.061144 0.043040
v -0.039690 0.061275 0.032336
v -0.052333 0.061275 0.002879
v -0.045910 0.061475 -0.029235
v -0.019298 0.058827 -0.052517
v 0.009489 0.061074 -0.054093
v 0.038325 0.061275 -0.036031
v 0.050967 0.061275 -0.006574
v 0.040901 0.060743 0.019095
v -0.015540 0.037561 0.049283
v -0.039972 0.038793 0.035747
v -0.053071 0.038793 0.005227
v -0.047943 0.040681 -0.026214
v -0.020913 0.038793 -0.048983
v 0.007860 0.036905 -0.050164
v 0.040535 0.038793 -0.034949
v 0.053634 0.038793 -0.004429
v 0.040262 0.033785 0.025333
v 0.020420 0.038793 0.047323
v -0.010834 0.003450 0.055093
v -0.039067 0.003670 0.037856
v -0.052526 0.003670 0.006498
v -0.045821 0.004009 -0.026423
v -0.020770 0.003670 -0.048650
v 0.011761 0.003332 -0.051136
v 0.041081 0.003670 -0.033678
v 0.054539 0.003670 -0.002320
v 0.046747 0.002774 0.030380
v 0.022644 0.003670 0.052504
v 0.020918 0.146773 0.048481
v -0.011259 0.146185 0.051321
v -0.040091 0.146773 0.035229
v -0.053121 0.146773 0.004871
v -0.045147 0.146185 -0.027635
v -0.020972 0.146773 -0.049120
v 0.010976 0.147057 -0.051723
v 0.040311 0.146773 -0.035229
v 0.053341 0.146773 -0.004871
v 0.044864 0.147057 0.027233
v 0.023515 0.000473 0.054528
v -0.010379 0.000325 0.057335
v -0.011955 0.151515 0.053769
v 0.021856 0.151451 0.050663
v 0.021459 0.146478 0.049747
v -0.011230 0.003673 0.056426
v -0.039977 0.000130 0.039114
v -0.041130 0.151635 0.036420
v -0.040148 0.003728 0.038756
v -0.053841 0.000025 0.006847
v -0.054540 0.151695 0.005200
v -0.053928 0.003627 0.006623
v -0.046710 0.000000 -0.027169
v -0.047048 0.151704 -0.027905
v -0.047046 0.003942 -0.027114
v -0.021301 0.000047 -0.049894
v -0.021486 0.151734 -0.050319
v -0.021326 0.003652 -0.049943
v 0.012723 0.000107 -0.052642
v 0.012386 0.151671 -0.053401
v 0.012043 0.003368 -0.052516
v 0.042235 0.000098 -0.034396
v 0.041526 0.151674 -0.036033
v 0.042134 0.003705 -0.034611
v 0.056071 0.000228 -0.002106
v 0.054917 0.151608 -0.004801
v 0.055930 0.003814 -0.002481
v 0.048899 0.000447 0.031836
v 0.047397 0.151471 0.028279
v 0.047930 0.003150 0.031045
v 0.023175 0.004078 0.053743
v -0.011553 0.145952 0.052678
v -0.041147 0.146666 0.036154
v -0.054523 0.146721 0.004981
v -0.046336 0.146148 -0.028388
v -0.021530 0.146761 -0.050412
v 0.011229 0.146994 -0.053107
v 0.041357 0.146699 -0.036169
v 0.054736 0.146640 -0.005002
v 0.046035 0.146779 0.027964
v 0.020193 0.039427 0.047076
v 0.019965 0.041630 0.046382
v 0.019710 0.059356 0.038308
v 0.019623 0.061437 0.037388
v 0.014758 0.084275 0.040083
v 0.014278 0.086786 0.040364
v 0.018258 0.106509 0.043049
v 0.018672 0.108992 0.043427
v 0.038960 0.036101 0.024535
v 0.040563 0.064536 0.018152
v 0.042263 0.089325 0.021904
v 0.037542 0.110217 0.025185
v 0.052928 0.041802 -0.004595
v 0.050030 0.064574 -0.006728
v 0.050028 0.086203 -0.006709
v 0.051809 0.108920 -0.005764
v 0.040020 0.041890 -0.034647
v 0.037541 0.064644 -0.035755
v 0.037526 0.086182 -0.035773
v 0.039062 0.108885 -0.035394
v 0.007179 0.039793 -0.049509
v 0.009423 0.064735 -0.054147
v 0.009496 0.086168 -0.054120
v 0.005389 0.110101 -0.049573
v -0.020767 0.041919 -0.048604
v -0.018968 0.061725 -0.052556
v -0.024563 0.086736 -0.050151
v -0.021058 0.108815 -0.049181
v -0.047714 0.044047 -0.026018
v -0.045137 0.064641 -0.029435
v -0.045109 0.086200 -0.029485
v -0.041166 0.106190 -0.029602
v -0.052494 0.041937 0.004966
v -0.051584 0.064587 0.002503
v -0.051584 0.086182 0.002485
v -0.052371 0.108902 0.003808
v -0.039530 0.041865 0.035179
v -0.039143 0.064530 0.031557
v -0.039150 0.086194 0.031538
v -0.039636 0.108944 0.033536
v -0.015885 0.040390 0.048114
v -0.014664 0.064445 0.041830
v -0.013755 0.089322 0.043861
v -0.009140 0.106332 0.045221
v -0.009584 0.104420 0.045079
v -0.039592 0.106398 0.033303
v -0.052280 0.106351 0.003719
v -0.041594 0.103943 -0.029611
v -0.021360 0.106329 -0.049330
v 0.005824 0.107412 -0.050088
v 0.038904 0.106339 -0.035421
v 0.051610 0.106376 -0.005839
v 0.038037 0.107866 0.024865
v -0.013822 0.086857 0.043659
v -0.039120 0.084039 0.031570
v -0.051584 0.084028 0.002485
v -0.045107 0.084045 -0.029488
v -0.024076 0.084219 -0.050355
v 0.009492 0.084013 -0.054121
v 0.037526 0.084028 -0.035773
v 0.050031 0.084047 -0.006670
v 0.042072 0.086860 0.021556
v -0.014830 0.061908 0.042487
v -0.039221 0.062136 0.031901
v -0.051684 0.062196 0.002725
v -0.045386 0.062466 -0.029114
v -0.019097 0.059644 -0.052165
v 0.009221 0.062128 -0.053651
v 0.037773 0.062248 -0.035672
v 0.050333 0.062184 -0.006551
v 0.040443 0.061548 0.018748
v -0.015396 0.038302 0.048837
v -0.039460 0.039658 0.035398
v -0.052430 0.039734 0.005083
v -0.047455 0.041640 -0.026023
v -0.020795 0.039717 -0.048543
v 0.007609 0.037797 -0.049646
v 0.040084 0.039691 -0.034490
v 0.053054 0.039573 -0.004474
v 0.039790 0.034448 0.025180
v -0.010711 0.149840 0.048281
v 0.019640 0.149840 0.045503
v -0.036898 0.149840 0.032688
v -0.048919 0.149840 0.004680
v -0.042182 0.149840 -0.025043
v -0.019260 0.149840 -0.045130
v 0.011091 0.149840 -0.047908
v 0.037279 0.149840 -0.032315
v 0.049299 0.149840 -0.004308
v 0.042562 0.149840 0.025416
v 0.010054 0.011702 -0.043330
v 0.038529 0.011702 0.023015
v -0.009674 0.011702 0.043703
v -0.038149 0.011702 -0.022642
v 0.017789 0.011702 0.041190
v -0.017409 0.011702 -0.040817
v -0.033368 0.011702 0.029594
v -0.044245 0.011702 0.004253
v 0.033749 0.011702 -0.029222
v 0.044625 0.011702 -0.003880
v 0.038529 0.125810 0.023015
v 0.036343 0.080771 0.016701
v 0.041636 0.031377 0.018448
v -0.047845 0.031377 0.004582
v -0.041711 0.080771 -0.000992
v -0.044245 0.125810 0.004253
v -0.033368 0.125810 0.029594
v -0.031454 0.080771 0.022905
v -0.036088 0.031377 0.031977
v 0.019214 0.031377 0.038096
v 0.016785 0.080771 0.033839
v 0.017789 0.125810 0.041190
v 0.010054 0.125810 -0.043330
v 0.009491 0.080771 -0.045861
v 0.010853 0.031377 -0.046857
v 0.036468 0.031377 -0.031605
v 0.031835 0.080771 -0.032557
v 0.033749 0.125810 -0.029222
v -0.041255 0.031377 -0.024492
v -0.035962 0.080771 -0.026352
v -0.038149 0.125810 -0.022642
v -0.010473 0.031377 0.047230
v -0.009111 0.080771 0.036209
v -0.009674 0.125810 0.043703
v 0.048226 0.031377 -0.010627
v 0.042091 0.080771 -0.008661
v 0.044625 0.125810 -0.003880
v -0.018835 0.031377 -0.044140
v -0.016405 0.080771 -0.043491
v -0.017409 0.125810 -0.040817
vn 0.6323 0.1607 -0.7579
vn 0.9557 -0.0897 -0.2803
vn 0.9697 -0.0584 0.2372
vn 0.6483 0.2023 0.7340
vn 0.1369 0.1414 0.9804
vn -0.5018 0.1388 0.8537
vn -0.9196 0.2060 0.3345
vn -0.9848 0.0055 -0.1736
vn -0.7056 -0.0094 -0.7086
vn -0.0849 0.0906 -0.9923
vn 0.4825 -0.1703 -0.8592
vn 0.9728 0.1064 -0.2056
vn 0.9714 0.0050 0.2376
vn 0.6637 0.0011 0.7480
vn 0.0804 -0.0906 0.9926
vn -0.5567 -0.0122 0.8306
vn -0.9368 0.0012 0.3498
vn -0.9764 -0.0623 -0.2067
vn -0.7723 -0.0789 -0.6303
vn 0.0746 0.1537 -0.9853
vn 0.5221 -0.1895 -0.8316
vn 0.8901 0.1644 -0.4251
vn 0.9677 0.0871 0.2367
vn 0.6942 0.0223 0.7194
vn 0.0556 -0.0542 0.9970
vn -0.5275 -0.2038 0.8247
vn -0.8969 0.0049 0.4422
vn -0.9706 0.0389 -0.2374
vn -0.6221 -0.2410 -0.7449
vn 0.0847 -0.2414 -0.9667
vn 0.4875 0.4314 -0.7591
vn 0.9020 0.2396 -0.3591
vn 0.9623 -0.1366 0.2354
vn 0.6443 -0.2253 0.7309
vn 0.0807 -0.1788 0.9806
vn -0.5225 -0.0971 0.8471
vn -0.9162 -0.2242 0.3322
vn -0.9621 -0.1375 -0.2353
vn -0.5933 0.4613 -0.6597
vn -0.0313 0.3889 -0.9208
vn 0.9675 0.0887 0.2366
vn 0.5727 -0.0720 0.8166
vn -0.9733 0.0920 -0.2101
vn 0.7924 0.4932 -0.3591
vn 0.5239 0.1654 -0.8356
vn 0.0784 0.0591 0.9952
vn -0.6199 -0.1059 -0.7775
vn -0.8826 -0.0649 0.4657
vn -0.5259 0.0500 0.8491
vn -0.0166 0.2307 -0.9729
vn -0.6058 -0.3103 0.7326
vn -0.9521 0.2753 0.1334
vn -0.9696 0.0583 -0.2375
vn -0.5699 0.0164 -0.8216
vn -0.1378 -0.1434 -0.9800
vn 0.5313 -0.1348 -0.8364
vn 0.8423 -0.2537 -0.4757
vn 0.9698 0.0593 0.2364
vn 0.7274 0.0891 0.6804
vn 0.0848 -0.0246 0.9961
vn -0.4779 0.0723 0.8754
vn -0.9760 -0.0872 0.1994
vn -0.9711 -0.0046 -0.2386
vn -0.6642 -0.0017 -0.7475
vn -0.1379 0.0022 -0.9904
vn 0.5050 -0.0679 -0.8604
vn 0.9402 0.0147 -0.3403
vn 0.9716 -0.0051 0.2367
vn 0.7350 -0.0084 0.6780
vn -0.0992 -0.2726 0.9570
vn -0.4793 0.0920 0.8728
vn -0.9692 0.1196 0.2153
vn -0.9678 -0.0863 -0.2366
vn -0.6953 -0.0231 -0.7184
vn -0.0542 0.0527 -0.9971
vn 0.5501 0.2060 -0.8093
vn 0.9153 0.2147 -0.3407
vn 0.9678 -0.0878 0.2358
vn 0.7976 -0.1391 0.5869
vn -0.0261 0.1656 0.9858
vn -0.4893 -0.4329 0.7571
vn -0.9159 -0.1759 0.3608
vn -0.9618 0.1364 -0.2375
vn -0.6442 0.2255 -0.7309
vn -0.0615 0.2441 -0.9678
vn 0.5547 0.1780 -0.8128
vn 0.8641 -0.1592 -0.4775
vn 0.9623 0.1401 0.2331
vn 0.6179 -0.0263 0.7858
vn 0.0303 -0.3932 0.9189
vn -0.9672 -0.0883 -0.2380
vn -0.6244 -0.1374 -0.7689
vn 0.9677 -0.0895 0.2358
vn -0.7949 -0.4930 0.3536
vn -0.5037 0.2844 0.8157
vn -0.0822 -0.0645 -0.9945
vn 0.6867 -0.0454 0.7255
vn 0.8540 0.1606 -0.4950
vn 0.5375 -0.0503 -0.8417
vn -0.0434 0.0308 0.9986
vn -0.0033 -0.9883 -0.1527
vn 0.0300 0.9993 -0.0215
vn -0.1242 -0.9841 -0.1268
vn 0.0080 1.0000 0.0023
vn -0.0024 -1.0000 -0.0006
vn 0.0096 -0.8635 -0.5042
vn 0.0128 0.9989 -0.0453
vn 0.3219 -0.9389 -0.1215
vn -0.3575 -0.8623 -0.3587
vn -0.0420 0.9988 -0.0264
vn 0.2793 -0.8498 -0.4470
vn -0.2010 -0.9784 -0.0492
vn 0.0355 0.9993 0.0087
vn 0.0179 0.9680 -0.2504
vn 0.0745 -0.9953 -0.0623
vn 0.1687 0.9814 -0.0919
vn -0.1749 0.9686 -0.1767
vn 0.2081 -0.9377 -0.2781
vn 0.1658 0.9574 -0.2364
vn -0.0669 0.9976 -0.0164
vn -0.0238 0.9995 0.0212
vn -0.0007 -0.9995 -0.0308
vn 0.0031 -0.9857 -0.1685
vn -0.0260 0.9996 0.0077
vn 0.1352 0.9786 0.1551
vn 0.0249 -0.9959 -0.0875
vn -0.1035 0.9946 -0.0050
vn 0.2018 -0.9528 0.2268
vn 0.5116 -0.0000 -0.8592
vn 0.0200 0.9755 0.2189
vn -0.0216 0.9995 -0.0232
vn 0.0809 -0.0000 0.9967
vn -0.9753 -0.0000 -0.2211
vn 0.5256 -0.0000 -0.8507
vn 0.6591 -0.0000 0.7521
vn -0.9787 -0.0000 -0.2051
vn -0.0911 -0.0000 -0.9958
vn 0.6668 -0.0000 0.7452
vn -0.0000 -1.0000 -0.0000
vn -0.0000 1.0000 -0.0000
vn -0.6668 -0.0000 -0.7452
vn 0.0911 -0.0000 0.9958
vn 0.9189 -0.0000 -0.3944
vn -0.6591 -0.0000 -0.7521
vn -0.5256 -0.0000 0.8507
vn -0.5116 -0.0000 0.8592
vn 0.9787 -0.0000 0.2051
vn -0.9189 -0.0000 0.3944
vn 0.9753 -0.0000 0.2211
vn -0.0809 -0.0000 -0.9967
vn 0.5889 -0.5825 0.5603
vn -0.8631 0.4768 -0.1667
vn -0.7641 -0.6103 -0.2092
vn 0.7107 0.4612 0.5312
vn 0.6894 -0.2768 0.6694
vn -0.7484 0.5805 0.3209
vn -0.6921 -0.7078 -0.1418
vn 0.6938 0.5904 0.4124
vn -0.3256 0.5609 0.7612
vn -0.7510 -0.6422 -0.1538
vn 0.7668 0.5511 -0.3291
vn 0.1400 0.5736 0.8071
vn -0.7859 -0.5968 -0.1619
vn 0.3247 0.5545 -0.7662
vn -0.5718 -0.4956 -0.6537
vn -0.0026 0.5019 -0.8649
vn -0.5576 -0.6024 -0.5712
vn -0.5702 0.4116 -0.7110
vn -0.5785 -0.5626 -0.5905
vn -0.8764 0.4684 -0.1115
vn -0.5400 -0.5950 -0.5953
vn -0.7575 0.5658 0.3255
vn 0.5515 0.5320 0.6426
vn 0.0076 -0.4309 -0.9024
vn -0.3894 0.5328 0.7513
vn 0.7219 0.6289 0.2886
vn -0.1065 -0.5360 -0.8375
vn 0.0264 0.5112 0.8591
vn 0.6516 0.7047 -0.2808
vn -0.0066 -0.4179 -0.9085
vn 0.2923 0.7386 -0.6075
vn -0.0627 -0.4571 -0.8872
vn -0.0472 0.6588 -0.7508
vn 0.3079 -0.5474 -0.7782
vn -0.5698 0.6472 -0.5064
vn 0.4256 -0.6299 -0.6497
vn -0.4980 0.8387 -0.2203
vn 0.4309 0.5615 0.7065
vn 0.4069 -0.6659 -0.6253
vn 0.1059 -0.4972 0.8612
vn 0.9607 0.1722 0.2178
vn -0.5040 0.1722 0.8464
vn -0.6574 -0.0703 -0.7502
vn 0.9052 0.1722 -0.3885
vn 0.1139 -0.1152 0.9868
vn -0.4245 -0.0926 0.9007
vn -0.9175 -0.0566 0.3938
vn -0.9602 0.1983 -0.1967
vn -0.7027 0.1392 -0.6977
vn -0.1131 0.1731 -0.9784
vn 0.5451 -0.0253 -0.8380
vn 0.9175 -0.0566 -0.3938
vn 0.9577 -0.0917 0.2726
vn 0.5511 -0.0065 0.8344
vn 0.1219 -0.0998 0.9875
vn -0.3862 -0.0000 0.9224
vn -0.9797 -0.0000 -0.2007
vn -0.6630 -0.0838 -0.7439
vn -0.0568 -0.0000 -0.9984
vn 0.5452 -0.0000 -0.8383
vn 0.9347 -0.0000 0.3555
vn 0.6772 -0.1661 0.7168
vn 0.0407 0.2677 0.9626
vn -0.4508 0.2677 0.8516
vn -0.9155 0.0863 0.3929
vn -0.9877 0.0248 -0.1543
vn -0.6432 -0.0505 -0.7640
vn -0.0491 -0.2073 -0.9770
vn 0.4112 0.0022 -0.9116
vn 0.9155 0.0863 -0.3929
vn 0.8974 0.0499 0.4383
vn 0.7496 0.3019 0.5891
vn 0.0753 0.1502 0.9858
vn -0.5193 0.0734 0.8514
vn -0.9796 -0.0224 -0.1997
vn -0.6637 -0.0098 -0.7479
vn -0.0760 0.0200 -0.9969
vn 0.5117 -0.0231 -0.8589
vn 0.9440 0.2351 0.2314
vn 0.6593 0.2531 0.7080
vn 0.0360 -0.9992 -0.0172
vn -0.1753 0.9573 -0.2297
vn 0.0155 -0.9816 0.1905
vn 0.0106 -0.9999 0.0098
vn 0.0176 -0.9996 0.0215
vn 0.1003 0.9947 0.0227
vn 0.0239 -0.9997 -0.0009
vn 0.2755 -0.9592 0.0644
vn -0.0374 0.9993 -0.0082
vn 0.0128 -0.9988 0.0479
vn 0.0899 -0.1873 0.9782
vn -0.4879 -0.0450 0.8718
vn -0.9188 -0.0206 0.3942
vn -0.9664 -0.1034 -0.2353
vn -0.6641 0.0199 -0.7474
vn -0.0821 0.0194 -0.9964
vn 0.4814 -0.1732 -0.8592
vn 0.9187 -0.0204 -0.3944
vn 0.9658 -0.0455 0.2551
vn 0.6529 -0.1873 0.7340
vn 0.6064 0.4156 0.6779
vn 0.9056 0.3798 0.1889
vn 0.9192 -0.0051 -0.3938
vn 0.5255 -0.0358 -0.8500
vn -0.0805 0.0220 -0.9965
vn -0.6665 -0.0148 -0.7453
vn -0.9781 -0.0361 -0.2050
vn -0.9188 -0.0043 0.3948
vn -0.5222 0.0973 0.8472
vn 0.0796 0.2194 0.9724
vn -0.0008 1.0000 -0.0091
vn -0.0251 -0.9989 0.0406
vn 0.0071 0.9998 -0.0176
vn -0.0847 0.9852 0.1492
vn -0.0288 0.9986 -0.0451
vn 0.0125 -0.9997 -0.0208
vn -0.0306 0.9995 0.0040
vn 0.0284 0.9985 -0.0477
vn -0.1375 -0.9761 -0.1685
vn 0.0276 -0.9996 -0.0118
vn 0.0392 0.9991 -0.0168
vn -0.2043 -0.9779 -0.0453
vn -0.0752 0.9966 0.0342
vn 0.0919 0.9862 -0.1379
vn 0.1123 -0.9927 -0.0441
vn -0.0913 -0.9951 0.0392
vn -0.0295 0.9533 -0.3007
vn 0.0498 0.9985 -0.0214
vn -0.0333 -0.9986 0.0421
vn 0.0476 -0.9988 0.0107
vn 0.6860 0.5359 0.4921
vn 0.6270 0.3369 0.7024
vn 0.5645 -0.1579 0.8102
vn 0.6747 0.0415 0.7369
vn 0.7346 0.5325 0.4206
vn 0.9305 0.0355 0.3646
vn 0.9626 0.0059 0.2708
vn 0.9099 -0.0834 0.4063
vn 0.9176 0.0301 -0.3964
vn 0.9148 0.0869 -0.3944
vn 0.9188 -0.0062 -0.3948
vn 0.9176 -0.0525 -0.3940
vn 0.4248 -0.0520 -0.9038
vn 0.5327 0.0222 -0.8460
vn 0.5476 -0.0007 -0.8367
vn 0.4049 -0.0153 -0.9143
vn -0.0346 0.0611 -0.9975
vn -0.0355 -0.1827 -0.9825
vn -0.1115 0.0006 -0.9938
vn -0.0303 0.0631 -0.9975
vn -0.6458 -0.0130 -0.7634
vn -0.6610 -0.0351 -0.7496
vn -0.7018 -0.0784 -0.7080
vn -0.6996 0.1359 -0.7015
vn -0.9864 -0.0373 -0.1601
vn -0.9808 0.0230 -0.1938
vn -0.9801 -0.0007 -0.1986
vn -0.9331 0.1789 -0.3121
vn -0.9193 0.0101 0.3933
vn -0.9161 0.0862 0.3915
vn -0.9191 -0.0071 0.3939
vn -0.9180 -0.0464 0.3938
vn -0.4707 0.1885 0.8619
vn -0.3830 0.2547 0.8879
vn -0.4318 0.0072 0.9019
vn -0.3690 -0.0913 0.9249
vn 0.0375 0.3036 0.9521
vn 0.1392 0.4053 0.9035
vn 0.1158 -0.0885 0.9893
vn 0.0793 -0.0920 0.9926
vn -0.7519 -0.5757 0.3213
vn -0.5647 0.4405 -0.6979
vn 0.3772 -0.7986 0.4690
vn -0.7234 -0.6167 0.3105
vn -0.0809 0.3681 -0.9263
vn 0.5862 -0.5752 0.5705
vn -0.6376 -0.7201 0.2737
vn 0.4501 0.5222 -0.7244
vn 0.8224 -0.4757 0.3120
vn 0.1516 0.4844 0.8616
vn -0.7171 -0.6254 0.3078
vn 0.7701 0.5456 -0.3305
vn 0.7433 -0.6064 0.2827
vn -0.3784 0.6534 0.6557
vn -0.4577 -0.4077 0.7901
vn 0.7618 0.5677 0.3121
vn 0.6744 -0.6916 0.2585
vn -0.6666 0.6886 0.2854
vn -0.3299 -0.5295 0.7815
vn 0.4820 0.6575 0.5791
vn 0.7319 -0.5779 0.3611
vn -0.7774 0.6090 -0.1572
vn -0.1677 -0.8246 0.5403
vn 0.7596 -0.5627 -0.3260
vn -0.6256 0.4648 -0.6266
vn -0.3316 -0.5947 0.7324
vn 0.6676 -0.6862 -0.2889
vn -0.0927 0.5266 -0.8450
vn 0.0554 -0.2550 0.9654
vn 0.6313 -0.7266 -0.2710
vn 0.4097 0.6598 -0.6299
vn 0.0047 0.7061 0.7080
vn 0.0840 -0.3941 0.9152
vn 0.7383 -0.5954 -0.3169
vn 0.6851 0.6664 -0.2941
vn -0.2366 0.6649 0.7084
vn 0.0265 -0.6962 0.7174
vn 0.3890 -0.4680 -0.7935
vn 0.8571 0.4771 0.1941
vn -0.6278 0.7303 0.2694
vn -0.0898 0.1722 -0.9810
vn -0.8794 0.2903 0.3774
vn 0.6492 0.1722 0.7408
vn 0.5040 0.1722 -0.8464
vn -0.9702 0.1021 -0.2199
vn 0.0898 0.1722 0.9810
vn 0.0910 -0.0570 0.9942
vn 0.0911 -0.0176 0.9957
vn -0.9723 0.0781 -0.2204
vn -0.9692 -0.1116 -0.2197
vn 0.5060 0.1477 -0.8498
vn 0.5011 -0.2016 -0.8416
vn 0.6588 -0.0299 0.7517
vn 0.6585 -0.0423 0.7514
vn -0.9189 0.0098 0.3944
vn -0.8653 -0.1268 0.4850
vn -0.0899 0.1624 -0.9826
vn -0.2881 -0.2010 -0.9363
vn 0.9146 0.0972 -0.3925
vn 0.9076 -0.1567 -0.3895
vn -0.6529 0.1362 -0.7451
vn -0.6560 -0.0968 -0.7486
vn -0.5112 -0.0418 0.8585
vn -0.5114 -0.0314 0.8588
vn 0.9748 0.0291 0.2210
vn 0.9708 -0.0957 0.2200
vn -0.9189 -0.0131 0.3944
vn 0.6914 -0.1272 0.7112
vn -0.3645 -0.1494 0.9191
vn 0.0895 -0.1294 0.9875
vn -0.9473 -0.0663 -0.3134
vn -0.6930 -0.0214 -0.7206
vn -0.0191 0.0131 -0.9997
vn 0.3825 -0.0983 -0.9187
vn 0.9189 -0.0131 -0.3944
vn 0.9071 -0.0326 0.4196
vn 0.4912 -0.2052 -0.8465
vn 0.9454 -0.2930 -0.1430
vn 0.5715 -0.0170 0.8205
vn 0.0899 0.2111 0.9733
vn -0.5179 0.1720 0.8380
vn -0.8847 -0.0169 0.4659
vn -0.9766 -0.0572 -0.2075
vn -0.6170 0.1992 -0.7614
vn -0.0173 0.1829 -0.9830
vn 0.6173 0.2470 -0.7470
vn 0.9614 0.0086 -0.2751
vn 0.6620 0.0052 0.7495
vn 0.1369 -0.0017 0.9906
vn -0.5050 0.0698 0.8603
vn -0.9397 -0.0142 0.3418
vn -0.9848 0.0047 -0.1735
vn -0.7071 0.1517 -0.6906
vn -0.0914 -0.0488 -0.9946
vn 0.4798 -0.1025 -0.8714
vn 0.9634 -0.1467 -0.2246
vn 0.6612 0.0902 0.7448
vn 0.0806 -0.0949 0.9922
vn -0.5588 -0.1593 0.8139
vn -0.9274 -0.1422 0.3459
vn -0.9742 0.0844 -0.2095
vn -0.7797 0.0938 -0.6191
vn 0.0222 -0.1744 -0.9844
vn 0.4895 0.5049 -0.7110
vn 0.9057 0.0302 -0.4229
vn 0.6472 -0.3121 0.6955
vn 0.0627 -0.2400 0.9688
vn -0.5321 -0.1785 0.8277
vn -0.8834 0.1421 0.4466
vn -0.6154 0.0271 -0.7878
vn -0.0210 0.4385 -0.8985
vn 0.6249 0.1377 0.7684
vn -0.9585 0.1625 -0.2344
vn 0.9829 0.0593 -0.1742
vn 0.5076 0.2077 -0.8362
vn 0.0821 0.0669 0.9944
vn -0.6785 0.1271 -0.7236
vn -0.9074 0.1382 0.3968
vn -0.5326 0.0733 0.8432
vn 0.0409 0.0897 -0.9951
vn -0.3541 0.3031 0.8847
vn -0.9576 0.0895 0.2737
vn -0.9695 0.0591 -0.2380
vn -0.6487 -0.2006 -0.7342
vn -0.0913 -0.2100 -0.9734
vn 0.4987 -0.1818 -0.8475
vn 0.9400 0.0257 -0.3402
vn 0.9698 0.0587 0.2368
vn 0.6169 -0.1775 0.7667
vn -0.1702 -0.3505 0.9210
vn -0.6056 -0.3109 0.7325
vn -0.9641 -0.0089 0.2656
vn -0.9711 -0.0045 -0.2385
vn -0.6624 -0.0057 -0.7491
vn -0.0812 0.0890 -0.9927
vn 0.5569 0.0123 -0.8305
vn 0.9372 -0.0011 -0.3488
vn 0.9716 -0.0054 0.2365
vn 0.7934 -0.1834 0.5804
vn 0.0817 -0.0727 0.9940
vn -0.5441 0.2193 0.8099
vn -0.8960 -0.1644 0.4125
vn -0.9674 -0.0876 -0.2375
vn -0.6619 -0.0903 -0.7442
vn -0.0816 0.0961 -0.9920
vn 0.5580 0.1954 -0.8065
vn 0.8786 0.0008 -0.4776
vn 0.9678 -0.0871 0.2363
vn 0.6282 0.2325 0.7425
vn -0.0852 0.2255 0.9705
vn -0.4915 -0.5127 0.7040
vn -0.9112 -0.0242 0.4113
vn -0.9616 0.1385 -0.2368
vn -0.6473 0.3117 -0.6956
vn -0.0814 0.1778 -0.9807
vn 0.5364 0.0677 -0.8413
vn 0.9018 0.2274 -0.3676
vn 0.9646 0.1289 0.2302
vn 0.5947 -0.4594 0.6598
vn 0.0197 -0.4401 0.8977
vn -0.9672 -0.0897 -0.2375
vn -0.5714 0.0686 -0.8178
vn 0.9681 -0.0871 0.2350
vn -0.9851 -0.0605 0.1607
vn -0.3907 -0.1067 0.9143
vn -0.0794 -0.0588 -0.9951
vn 0.5989 0.2259 0.7683
vn 0.9072 -0.1379 -0.3975
vn 0.5336 -0.0381 -0.8449
vn -0.1475 0.3010 0.9421
vn -0.0050 -0.9750 -0.2223
vn -0.0016 1.0000 -0.0097
vn -0.1578 -0.9743 -0.1608
vn 0.0377 0.9985 -0.0389
vn -0.1763 -0.9838 -0.0331
vn 0.0090 -0.8601 -0.5101
vn 0.0128 0.9990 -0.0426
vn 0.0011 -0.9996 0.0273
vn -0.1550 -0.9820 -0.1084
vn -0.0372 0.9991 -0.0212
vn 0.1790 -0.9468 -0.2676
vn 0.0820 -0.9960 0.0363
vn -0.0538 0.9985 -0.0078
vn 0.0174 0.9623 -0.2713
vn 0.2622 -0.9577 -0.1184
vn 0.0315 0.9993 -0.0217
vn -0.0546 0.9980 -0.0333
vn 0.0981 -0.9872 -0.1256
vn 0.1181 0.9820 -0.1475
vn 0.0336 0.9993 0.0144
vn -0.0201 0.9997 0.0144
vn 0.0011 -0.9999 0.0139
vn -0.0045 -0.9743 -0.2250
vn -0.0980 0.9943 0.0421
vn 0.1448 0.9756 0.1652
vn 0.0663 -0.9857 -0.1548
vn -0.2819 0.9586 -0.0409
vn 0.1887 -0.9591 0.2109
vn 0.0177 0.9849 0.1723
vn -0.0060 1.0000 -0.0069
vn 0.6514 -0.4001 0.6447
vn -0.8194 0.5503 -0.1605
vn -0.8069 -0.5456 -0.2263
vn 0.6650 0.5826 0.4674
vn 0.6890 -0.2780 0.6693
vn -0.7532 0.5729 0.3233
vn -0.7243 -0.6736 -0.1471
vn 0.7176 0.5583 0.4164
vn -0.3221 0.5718 0.7545
vn -0.7773 -0.6090 -0.1579
vn 0.7658 0.5527 -0.3287
vn 0.1342 0.6738 0.7266
vn -0.7495 -0.6430 -0.1574
vn 0.3293 0.5418 -0.7733
vn -0.6057 -0.4099 -0.6820
vn -0.0059 0.4303 -0.9027
vn -0.5741 -0.5722 -0.5856
vn -0.5650 0.4280 -0.7054
vn -0.6289 -0.4112 -0.6599
vn -0.8294 0.5493 -0.1023
vn -0.5942 -0.4503 -0.6665
vn -0.7519 0.5749 0.3227
vn 0.5267 0.5853 0.6165
vn 0.0089 -0.5178 -0.8554
vn -0.3908 0.5290 0.7532
vn 0.6774 0.6850 0.2684
vn -0.1060 -0.5520 -0.8271
vn 0.0377 0.3743 0.9265
vn 0.6256 0.7325 -0.2685
vn 0.0107 -0.5867 -0.8098
vn 0.3048 0.7094 -0.6355
vn -0.0624 -0.4391 -0.8963
vn -0.0480 0.6197 -0.7834
vn 0.2948 -0.5870 -0.7540
vn -0.4430 0.8194 -0.3637
vn 0.3876 -0.7033 -0.5960
vn -0.6376 0.7275 -0.2533
vn 0.4703 0.4541 0.7567
vn 0.4050 -0.6694 -0.6227
vn 0.1071 -0.5711 0.8138
vn 0.0848 -0.1568 0.9840
vn -0.3636 0.0269 0.9312
vn -0.9520 -0.0169 -0.3056
vn -0.6967 0.1503 -0.7014
vn -0.0341 0.0483 -0.9983
vn 0.3985 0.2477 -0.8831
vn 0.9069 0.1502 0.3937
vn 0.6629 -0.2424 0.7084
vn 0.1170 -0.0916 0.9889
vn -0.4242 -0.0635 0.9033
vn -0.7024 -0.0000 -0.7117
vn -0.1115 0.0765 -0.9908
vn 0.9529 -0.1138 0.2812
vn 0.5604 0.0231 0.8279
vn 0.1383 0.4389 0.8878
vn -0.3903 0.1623 0.9063
vn -0.9760 0.0983 -0.1946
vn -0.6608 -0.0946 -0.7446
vn -0.0387 -0.1924 -0.9806
vn 0.5189 -0.2199 -0.8260
vn 0.9173 0.1634 0.3631
vn 0.6705 0.1351 0.7295
vn 0.0477 0.1741 0.9836
vn -0.4827 0.0401 0.8749
vn -0.9849 -0.0561 -0.1640
vn -0.6453 -0.0330 -0.7633
vn -0.0416 -0.0097 -0.9991
vn 0.4174 0.0747 -0.9056
vn 0.9080 0.0484 0.4161
vn 0.7508 0.1427 0.6450
vn 0.0739 -0.9968 -0.0317
vn -0.1810 0.9547 -0.2364
vn 0.0291 -0.9531 0.3012
vn 0.0325 -0.9988 0.0363
vn 0.0395 -0.9988 0.0278
vn 0.1971 0.9792 0.0488
vn 0.0284 -0.9996 0.0046
vn 0.1176 -0.9928 0.0246
vn -0.0308 0.9995 -0.0070
vn 0.0076 -1.0000 0.0061
vn 0.0896 -0.1854 0.9786
vn -0.5013 -0.2012 0.8416
vn -0.9187 -0.0179 0.3946
vn -0.9753 0.0063 -0.2207
vn -0.6592 -0.0192 -0.7518
vn -0.0906 -0.0403 -0.9951
vn 0.5120 0.0061 -0.8590
vn 0.9189 -0.0175 -0.3940
vn 0.9348 -0.2856 0.2113
vn 0.6407 -0.2351 0.7309
vn 0.6639 0.2184 0.7152
vn 0.9705 0.0624 0.2328
vn 0.9189 0.0024 -0.3946
vn 0.5053 0.1384 -0.8518
vn -0.0770 -0.0142 -0.9969
vn -0.6634 -0.0461 -0.7468
vn -0.9765 -0.0804 -0.1999
vn -0.9191 0.0025 0.3941
vn -0.5204 0.0601 0.8518
vn 0.0714 0.2782 0.9579
vn -0.0032 0.9984 -0.0560
vn -0.0975 -0.9808 0.1689
vn 0.0126 0.9995 0.0286
vn -0.0422 0.9966 0.0709
vn 0.0004 0.9999 -0.0147
vn 0.0162 -0.9995 -0.0262
vn -0.0533 0.9986 -0.0016
vn 0.0277 0.9985 -0.0466
vn -0.1318 -0.9780 -0.1616
vn -0.0423 -0.9989 0.0214
vn -0.0301 0.9995 0.0098
vn -0.0969 -0.9951 -0.0214
vn -0.0351 0.9993 0.0151
vn 0.0236 0.9991 -0.0355
vn 0.0221 -0.9997 -0.0095
vn -0.0526 -0.9984 0.0207
vn -0.0250 0.9847 -0.1723
vn 0.0956 0.9947 -0.0389
vn -0.0321 -0.9987 0.0396
vn 0.0296 -0.9995 0.0062
vn 0.7598 0.2657 0.5934
vn 0.6617 0.1212 0.7399
vn 0.5499 0.0118 0.8352
vn 0.6853 -0.2201 0.6942
vn 0.8935 0.0742 0.4429
vn 0.9249 0.1434 0.3522
vn 0.9558 -0.1123 0.2717
vn 0.9021 0.1339 0.4102
vn 0.9188 -0.0014 -0.3947
vn 0.9161 0.0751 -0.3940
vn 0.9186 -0.0000 -0.3952
vn 0.9169 -0.0604 -0.3944
vn 0.3999 0.1483 -0.9045
vn 0.5361 -0.1978 -0.8206
vn 0.5477 -0.0000 -0.8367
vn 0.3845 0.2331 -0.8932
vn -0.0344 -0.0270 -0.9990
vn -0.0355 -0.1842 -0.9822
vn -0.1146 0.0584 -0.9917
vn -0.0235 0.1842 -0.9826
vn -0.6440 -0.0677 -0.7620
vn -0.6650 -0.0980 -0.7404
vn -0.7092 0.0005 -0.7050
vn -0.7004 0.1270 -0.7023
vn -0.9817 -0.1053 -0.1586
vn -0.9769 0.0827 -0.1971
vn -0.9801 -0.0000 -0.1985
vn -0.9484 -0.0228 -0.3162
vn -0.9190 -0.0061 0.3943
vn -0.9166 0.0749 0.3926
vn -0.9193 -0.0000 0.3935
vn -0.9179 -0.0522 0.3933
vn -0.4752 0.0722 0.8769
vn -0.3825 0.1439 0.9127
vn -0.4295 -0.0619 0.9009
vn -0.3567 0.0138 0.9341
vn 0.0339 0.3344 0.9418
vn 0.1453 0.2390 0.9601
vn 0.1159 -0.0841 0.9897
vn 0.0790 -0.1630 0.9835
vn -0.7285 -0.6096 0.3126
vn -0.5824 0.3948 -0.7106
vn 0.4458 -0.6798 0.5823
vn -0.6904 -0.6609 0.2943
vn -0.0818 0.4118 -0.9076
vn 0.6091 -0.5246 0.5948
vn -0.6277 -0.7306 0.2689
vn 0.4771 0.4401 -0.7607
vn 0.8809 -0.3039 0.3629
vn 0.1494 0.5561 0.8176
vn -0.7215 -0.6192 0.3099
vn 0.7646 0.5544 -0.3286
vn 0.7547 -0.5903 0.2863
vn -0.4168 0.5079 0.7538
vn -0.4305 -0.5172 0.7397
vn 0.7816 0.5368 0.3176
vn 0.5502 -0.8022 0.2319
vn -0.6796 0.6731 0.2917
vn -0.3135 -0.5840 0.7488
vn 0.5303 0.5716 0.6261
vn 0.7227 -0.5912 0.3579
vn -0.7321 0.6645 -0.1499
vn -0.2462 -0.6885 0.6821
vn 0.7846 -0.5195 -0.3385
vn -0.5949 0.5369 -0.5982
vn -0.3294 -0.6044 0.7254
vn 0.7118 -0.6325 -0.3055
vn -0.0945 0.4852 -0.8693
vn 0.0605 -0.3501 0.9348
vn 0.6333 -0.7246 -0.2718
vn 0.4370 0.6021 -0.6682
vn 0.0208 0.5403 0.8412
vn 0.0680 -0.5331 0.8433
vn 0.7395 -0.5936 -0.3174
vn 0.6696 0.6845 -0.2882
vn -0.2065 0.7320 0.6492
vn 0.0025 -0.8186 0.5743
vn 0.3637 -0.5754 -0.7326
vn 0.7489 0.6444 0.1546
vn -0.6590 0.6975 0.2815
vn -0.2916 -0.1280 -0.9479
vn -0.8586 0.1769 0.4812
vn -0.9161 -0.0784 0.3932
vn -0.0908 -0.0899 -0.9918
vn 0.6561 -0.1608 0.7373
vn -0.4876 -0.0299 0.8725
vn 0.0808 -0.1366 0.9873
vn -0.9712 0.0038 -0.2383
vn -0.6644 0.0134 -0.7472
vn -0.0809 -0.0329 -0.9962
vn 0.4901 0.0040 -0.8716
vn 0.9484 -0.1921 0.2521
vt 0.562395 0.082880
vt 0.562716 0.082405
vt 0.562792 0.082871
vt 0.567921 0.070804
vt 0.568129 0.071075
vt 0.567876 0.071096
vt 0.568129 0.071530
vt 0.567876 0.071541
vt 0.570607 0.091353
vt 0.571274 0.090964
vt 0.571220 0.091328
vt 0.571891 0.091304
vt 0.570447 0.089642
vt 0.570996 0.090094
vt 0.570360 0.090041
vt 0.570985 0.089653
vt 0.571763 0.090121
vt 0.572398 0.089715
vt 0.572342 0.090126
vt 0.562386 0.084238
vt 0.562750 0.083605
vt 0.562797 0.084233
vt 0.562369 0.083494
vt 0.562743 0.090138
vt 0.563185 0.090522
vt 0.562609 0.090592
vt 0.576519 0.088936
vt 0.576079 0.089424
vt 0.576073 0.088998
vt 0.576471 0.089409
vt 0.576106 0.090150
vt 0.576498 0.090135
vt 0.576140 0.090778
vt 0.571229 0.091795
vt 0.571906 0.091387
vt 0.572033 0.091842
vt 0.570424 0.090587
vt 0.570993 0.090169
vt 0.570979 0.090561
vt 0.571761 0.090196
vt 0.571746 0.090588
vt 0.572339 0.090201
vt 0.572324 0.090593
vt 0.561395 0.090091
vt 0.561965 0.090514
vt 0.561381 0.090482
vt 0.562020 0.090072
vt 0.562745 0.091034
vt 0.563195 0.090613
vt 0.563295 0.091047
vt 0.575549 0.088898
vt 0.575991 0.089420
vt 0.575585 0.089372
vt 0.575613 0.090124
vt 0.576018 0.090148
vt 0.575687 0.090744
vt 0.571220 0.091879
vt 0.571949 0.092275
vt 0.571141 0.092246
vt 0.570422 0.090667
vt 0.570963 0.091088
vt 0.570416 0.091013
vt 0.571749 0.090676
vt 0.571787 0.091080
vt 0.572329 0.090681
vt 0.572386 0.091085
vt 0.561359 0.090976
vt 0.561975 0.090614
vt 0.562077 0.091122
vt 0.562622 0.090674
vt 0.562750 0.091122
vt 0.563303 0.091955
vt 0.562780 0.091962
vt 0.575463 0.088881
vt 0.574663 0.089348
vt 0.574646 0.088751
vt 0.575499 0.089369
vt 0.574692 0.090124
vt 0.575527 0.090123
vt 0.574734 0.090766
vt 0.571201 0.093200
vt 0.571951 0.092361
vt 0.571962 0.093195
vt 0.570389 0.091933
vt 0.570968 0.091174
vt 0.571004 0.091979
vt 0.571786 0.091166
vt 0.571780 0.092000
vt 0.572388 0.091172
vt 0.572398 0.092005
vt 0.561354 0.091899
vt 0.562073 0.091208
vt 0.562043 0.091962
vt 0.578040 0.070112
vt 0.577179 0.069368
vt 0.578058 0.069368
vt 0.573082 0.070736
vt 0.572209 0.070104
vt 0.573134 0.070022
vt 0.577687 0.091539
vt 0.578549 0.090970
vt 0.578565 0.091562
vt 0.577161 0.070120
vt 0.578073 0.070617
vt 0.577150 0.070698
vt 0.561425 0.082316
vt 0.562312 0.082881
vt 0.561440 0.082824
vt 0.572204 0.069368
vt 0.573082 0.069373
vt 0.562302 0.084239
vt 0.561438 0.083542
vt 0.562287 0.083479
vt 0.577680 0.092305
vt 0.578533 0.092394
vt 0.577670 0.092908
vt 0.578549 0.092919
vt 0.568111 0.070768
vt 0.570571 0.090941
vt 0.571807 0.089710
vt 0.571222 0.091403
vt 0.570365 0.090125
vt 0.575981 0.088989
vt 0.570976 0.090652
vt 0.561377 0.090571
vt 0.571147 0.092333
vt 0.570414 0.091100
vt 0.561359 0.091063
vt 0.572204 0.070745
vt 0.561425 0.084233
vt 0.577670 0.090941
vt 0.567742 0.360832
vt 0.567781 0.360046
vt 0.567772 0.360843
vt 0.559798 0.382142
vt 0.559311 0.382734
vt 0.559780 0.382115
vt 0.562323 0.381766
vt 0.562766 0.382365
vt 0.562736 0.382374
vt 0.567751 0.360055
vt 0.567321 0.359397
vt 0.565507 0.385867
vt 0.565477 0.386630
vt 0.565477 0.385857
vt 0.562736 0.383125
vt 0.562766 0.383136
vt 0.567301 0.359422
vt 0.566575 0.359155
vt 0.561732 0.383548
vt 0.561762 0.382783
vt 0.561762 0.383558
vt 0.566752 0.371004
vt 0.566779 0.371429
vt 0.566752 0.371429
vt 0.565950 0.387229
vt 0.565507 0.386620
vt 0.567825 0.386619
vt 0.567855 0.385856
vt 0.567855 0.386630
vt 0.565705 0.384193
vt 0.565646 0.383700
vt 0.565690 0.383700
vt 0.565837 0.380655
vt 0.565791 0.380084
vt 0.565835 0.380084
vt 0.565835 0.377655
vt 0.565791 0.376946
vt 0.565835 0.376946
vt 0.573344 0.383907
vt 0.573388 0.384594
vt 0.573344 0.384594
vt 0.563267 0.366712
vt 0.563313 0.367302
vt 0.563270 0.367302
vt 0.566754 0.370655
vt 0.566779 0.371004
vt 0.565646 0.383010
vt 0.565690 0.383010
vt 0.561638 0.383516
vt 0.561276 0.384150
vt 0.561217 0.384071
vt 0.566006 0.387151
vt 0.565598 0.386590
vt 0.560537 0.384369
vt 0.560537 0.384272
vt 0.566666 0.387365
vt 0.559798 0.384120
vt 0.559857 0.384043
vt 0.567382 0.387229
vt 0.566666 0.387462
vt 0.559436 0.383472
vt 0.559341 0.383500
vt 0.567325 0.387151
vt 0.559436 0.382776
vt 0.559341 0.382744
vt 0.567733 0.385896
vt 0.567733 0.386590
vt 0.559856 0.382221
vt 0.567325 0.385335
vt 0.567824 0.385866
vt 0.560537 0.381923
vt 0.560537 0.382020
vt 0.566665 0.385121
vt 0.567382 0.385257
vt 0.561275 0.382172
vt 0.561217 0.382249
vt 0.566006 0.385336
vt 0.566665 0.385025
vt 0.561638 0.382820
vt 0.561732 0.382792
vt 0.565598 0.385897
vt 0.565949 0.385258
vt 0.571577 0.384152
vt 0.569829 0.385493
vt 0.570909 0.383955
vt 0.570909 0.386251
vt 0.570242 0.386054
vt 0.571989 0.384713
vt 0.571577 0.386010
vt 0.569829 0.384784
vt 0.570242 0.384196
vt 0.571732 0.365408
vt 0.571689 0.364712
vt 0.571732 0.364712
vt 0.573403 0.385091
vt 0.573359 0.385091
vt 0.565837 0.378227
vt 0.565791 0.377655
vt 0.571776 0.364712
vt 0.571819 0.365406
vt 0.571776 0.365406
vt 0.563270 0.368020
vt 0.563311 0.368591
vt 0.563267 0.368591
vt 0.566780 0.371768
vt 0.566754 0.371768
vt 0.565835 0.381899
vt 0.565794 0.381348
vt 0.565837 0.381348
vt 0.565662 0.382387
vt 0.565705 0.382388
vt 0.563313 0.368020
vt 0.573359 0.383294
vt 0.573388 0.383908
vt 0.565794 0.376371
vt 0.565837 0.376371
vt 0.565794 0.380655
vt 0.570766 0.316552
vt 0.570121 0.316490
vt 0.570119 0.316473
vt 0.568815 0.318441
vt 0.568805 0.317814
vt 0.568838 0.318433
vt 0.571130 0.319514
vt 0.571184 0.318822
vt 0.571202 0.318810
vt 0.570906 0.317102
vt 0.570234 0.317181
vt 0.570905 0.317087
vt 0.570233 0.317107
vt 0.570898 0.317036
vt 0.570236 0.317143
vt 0.568784 0.317817
vt 0.568775 0.317093
vt 0.570116 0.318589
vt 0.570833 0.318781
vt 0.570835 0.318796
vt 0.570229 0.317196
vt 0.569529 0.317036
vt 0.568738 0.316653
vt 0.568755 0.317089
vt 0.568903 0.318443
vt 0.568859 0.317816
vt 0.568876 0.317818
vt 0.568285 0.319243
vt 0.568876 0.319232
vt 0.568888 0.319250
vt 0.571369 0.316583
vt 0.570774 0.316625
vt 0.571359 0.316565
vt 0.568361 0.317795
vt 0.568417 0.318404
vt 0.568342 0.317792
vt 0.567467 0.319272
vt 0.568282 0.319222
vt 0.571182 0.320158
vt 0.571112 0.319521
vt 0.566912 0.319218
vt 0.567469 0.319252
vt 0.579898 0.318702
vt 0.579235 0.318737
vt 0.579227 0.318724
vt 0.579157 0.319771
vt 0.579956 0.319776
vt 0.579961 0.319797
vt 0.580042 0.319259
vt 0.579243 0.319226
vt 0.579237 0.319211
vt 0.568340 0.318413
vt 0.568292 0.317791
vt 0.568362 0.318404
vt 0.579960 0.319707
vt 0.579156 0.319694
vt 0.579150 0.319681
vt 0.568271 0.317794
vt 0.568261 0.317041
vt 0.568624 0.314284
vt 0.568613 0.314895
vt 0.568598 0.314900
vt 0.566926 0.317605
vt 0.567452 0.317606
vt 0.566933 0.317625
vt 0.568196 0.316548
vt 0.568241 0.317039
vt 0.568613 0.313556
vt 0.568640 0.314288
vt 0.566836 0.318113
vt 0.567473 0.318152
vt 0.566844 0.318126
vt 0.571471 0.317125
vt 0.571461 0.317108
vt 0.569949 0.316384
vt 0.570222 0.317069
vt 0.569939 0.316394
vt 0.566912 0.318679
vt 0.567464 0.318639
vt 0.566919 0.318697
vt 0.569951 0.317846
vt 0.570237 0.317069
vt 0.567460 0.319182
vt 0.566921 0.319147
vt 0.566913 0.319128
vt 0.567453 0.317680
vt 0.566924 0.317682
vt 0.567454 0.317667
vt 0.567451 0.317586
vt 0.568277 0.317647
vt 0.577191 0.313967
vt 0.576592 0.313727
vt 0.577192 0.313957
vt 0.567473 0.318137
vt 0.568234 0.318163
vt 0.576582 0.313735
vt 0.576070 0.313125
vt 0.570170 0.316008
vt 0.570895 0.316060
vt 0.570900 0.316077
vt 0.567465 0.318626
vt 0.568227 0.318653
vt 0.568642 0.315349
vt 0.568669 0.314895
vt 0.568685 0.314898
vt 0.563330 0.388300
vt 0.563869 0.388763
vt 0.563314 0.388750
vt 0.566859 0.388304
vt 0.567330 0.388754
vt 0.566832 0.388752
vt 0.573061 0.388302
vt 0.573608 0.388758
vt 0.572981 0.388745
vt 0.569648 0.388331
vt 0.569187 0.388792
vt 0.569108 0.388346
vt 0.556554 0.383511
vt 0.556944 0.383950
vt 0.556625 0.383991
vt 0.567523 0.361748
vt 0.567886 0.362195
vt 0.567454 0.362229
vt 0.567886 0.362938
vt 0.567454 0.362955
vt 0.574750 0.388272
vt 0.575406 0.387904
vt 0.575352 0.388289
vt 0.576022 0.388267
vt 0.559860 0.378377
vt 0.560477 0.377944
vt 0.560497 0.378401
vt 0.561300 0.377982
vt 0.561265 0.378413
vt 0.561844 0.378420
vt 0.556973 0.382143
vt 0.556599 0.382770
vt 0.556543 0.382151
vt 0.556998 0.382880
vt 0.561405 0.363552
vt 0.561864 0.363962
vt 0.561271 0.364027
vt 0.566896 0.390103
vt 0.567320 0.390517
vt 0.566910 0.390533
vt 0.566938 0.391259
vt 0.567348 0.391243
vt 0.566965 0.391883
vt 0.575361 0.388776
vt 0.576037 0.388352
vt 0.576166 0.388824
vt 0.559936 0.378943
vt 0.560496 0.378480
vt 0.560489 0.378890
vt 0.561257 0.378902
vt 0.561264 0.378492
vt 0.561836 0.378909
vt 0.560058 0.363513
vt 0.560624 0.363947
vt 0.560046 0.363923
vt 0.560675 0.363483
vt 0.561406 0.364486
vt 0.561874 0.364058
vt 0.561975 0.364509
vt 0.566800 0.390094
vt 0.566394 0.390483
vt 0.566349 0.390006
vt 0.566818 0.390529
vt 0.566423 0.391235
vt 0.566846 0.391258
vt 0.566493 0.391851
vt 0.575353 0.388864
vt 0.576084 0.389272
vt 0.575275 0.389246
vt 0.559936 0.379027
vt 0.560485 0.379446
vt 0.559937 0.379392
vt 0.561262 0.378994
vt 0.561308 0.379416
vt 0.561843 0.379001
vt 0.561908 0.379423
vt 0.560025 0.364438
vt 0.560635 0.364052
vt 0.560738 0.364581
vt 0.561284 0.364112
vt 0.561411 0.364577
vt 0.561984 0.365382
vt 0.561444 0.365381
vt 0.566258 0.389989
vt 0.565503 0.390459
vt 0.565477 0.389857
vt 0.566304 0.390480
vt 0.565533 0.391235
vt 0.566333 0.391235
vt 0.565568 0.391872
vt 0.575336 0.390166
vt 0.576086 0.389362
vt 0.576098 0.390159
vt 0.559930 0.380281
vt 0.560491 0.379536
vt 0.560545 0.380301
vt 0.561310 0.379507
vt 0.561322 0.380306
vt 0.561912 0.379514
vt 0.561940 0.380313
vt 0.560025 0.365329
vt 0.560734 0.364671
vt 0.560704 0.365382
vt 0.562278 0.383721
vt 0.562295 0.383747
vt 0.565859 0.359391
vt 0.566574 0.359186
vt 0.561295 0.384175
vt 0.559311 0.383510
vt 0.561543 0.383923
vt 0.561542 0.383955
vt 0.565930 0.385232
vt 0.560848 0.383681
vt 0.560829 0.383706
vt 0.561295 0.382146
vt 0.567401 0.387255
vt 0.560412 0.383085
vt 0.560442 0.383075
vt 0.577081 0.367908
vt 0.577189 0.367380
vt 0.577193 0.367919
vt 0.555462 0.380766
vt 0.555337 0.380173
vt 0.555450 0.380167
vt 0.555337 0.379400
vt 0.555450 0.379395
vt 0.555336 0.378764
vt 0.555462 0.378760
vt 0.558078 0.365376
vt 0.557952 0.364622
vt 0.558065 0.364621
vt 0.561114 0.365304
vt 0.561005 0.365920
vt 0.561001 0.365303
vt 0.561111 0.365940
vt 0.560999 0.366707
vt 0.561113 0.366711
vt 0.561001 0.367322
vt 0.577063 0.369356
vt 0.577187 0.368659
vt 0.577175 0.369358
vt 0.568205 0.383111
vt 0.568266 0.382344
vt 0.568267 0.383112
vt 0.568256 0.383805
vt 0.565791 0.379440
vt 0.565706 0.378810
vt 0.565787 0.378803
vt 0.565790 0.380228
vt 0.565709 0.379444
vt 0.565788 0.380871
vt 0.565716 0.380240
vt 0.570905 0.364321
vt 0.570991 0.365096
vt 0.570909 0.365096
vt 0.560573 0.388178
vt 0.560655 0.387525
vt 0.560655 0.388183
vt 0.560568 0.388973
vt 0.560650 0.388982
vt 0.560565 0.389591
vt 0.560641 0.389617
vt 0.568183 0.382353
vt 0.568252 0.381795
vt 0.560537 0.384401
vt 0.567308 0.361434
vt 0.567326 0.361460
vt 0.566666 0.387494
vt 0.565931 0.387255
vt 0.566579 0.361657
vt 0.566578 0.361689
vt 0.560537 0.381891
vt 0.565841 0.361422
vt 0.565860 0.361396
vt 0.567399 0.385231
vt 0.561637 0.381495
vt 0.562342 0.381741
vt 0.559780 0.384146
vt 0.565381 0.360773
vt 0.565411 0.360763
vt 0.560903 0.381714
vt 0.561635 0.381526
vt 0.565381 0.360002
vt 0.565411 0.360010
vt 0.560445 0.382309
vt 0.560885 0.381687
vt 0.565841 0.359366
vt 0.566665 0.384993
vt 0.560414 0.382299
vt 0.570131 0.316559
vt 0.570761 0.316577
vt 0.570178 0.315931
vt 0.570173 0.315986
vt 0.568694 0.314301
vt 0.569548 0.316519
vt 0.569566 0.315973
vt 0.569565 0.316022
vt 0.568671 0.313555
vt 0.568873 0.319181
vt 0.568231 0.318708
vt 0.568800 0.318662
vt 0.568807 0.318716
vt 0.568233 0.318212
vt 0.568808 0.318170
vt 0.568808 0.318219
vt 0.568856 0.317712
vt 0.568273 0.317705
vt 0.568280 0.319172
vt 0.567464 0.318699
vt 0.567472 0.318201
vt 0.566920 0.319197
vt 0.567462 0.319206
vt 0.566920 0.318744
vt 0.579909 0.318771
vt 0.580534 0.318687
vt 0.580534 0.318736
vt 0.579162 0.319749
vt 0.579957 0.319726
vt 0.580031 0.319324
vt 0.579235 0.319276
vt 0.579236 0.318786
vt 0.579897 0.318714
vt 0.571125 0.320156
vt 0.571060 0.319515
vt 0.569301 0.317799
vt 0.569377 0.318417
vt 0.569328 0.318419
vt 0.571127 0.318826
vt 0.568312 0.317045
vt 0.568830 0.317098
vt 0.569323 0.317079
vt 0.569274 0.317080
vt 0.570893 0.318911
vt 0.570864 0.318370
vt 0.570907 0.318371
vt 0.568262 0.316573
vt 0.568213 0.316556
vt 0.568814 0.316674
vt 0.568756 0.316664
vt 0.569322 0.316608
vt 0.570915 0.319283
vt 0.570850 0.318913
vt 0.570909 0.316003
vt 0.571382 0.315999
vt 0.568626 0.315338
vt 0.568583 0.315342
vt 0.568332 0.317042
vt 0.580034 0.319343
vt 0.571821 0.317351
vt 0.571440 0.316686
vt 0.571448 0.316677
vt 0.568848 0.317093
vt 0.580544 0.319257
vt 0.580532 0.319233
vt 0.568711 0.314298
vt 0.571514 0.318550
vt 0.571523 0.318562
vt 0.567464 0.318723
vt 0.568238 0.318730
vt 0.569530 0.316985
vt 0.569520 0.316963
vt 0.571393 0.316021
vt 0.570851 0.318367
vt 0.570838 0.318916
vt 0.568819 0.318737
vt 0.569551 0.316465
vt 0.569541 0.316448
vt 0.569300 0.316599
vt 0.569257 0.317076
vt 0.568287 0.316565
vt 0.570130 0.316577
vt 0.570804 0.316445
vt 0.570805 0.316459
vt 0.569286 0.317802
vt 0.568833 0.316662
vt 0.570779 0.316638
vt 0.568688 0.313545
vt 0.579229 0.318802
vt 0.578640 0.318770
vt 0.571839 0.317996
vt 0.571851 0.317999
vt 0.568884 0.319160
vt 0.568284 0.319152
vt 0.579913 0.318787
vt 0.566338 0.311403
vt 0.566326 0.312147
vt 0.566326 0.311405
vt 0.569898 0.315443
vt 0.569912 0.314721
vt 0.569913 0.315440
vt 0.580546 0.318751
vt 0.570901 0.317011
vt 0.571458 0.317060
vt 0.570116 0.316678
vt 0.570123 0.316692
vt 0.567472 0.318216
vt 0.568240 0.318228
vt 0.577191 0.311660
vt 0.576592 0.311878
vt 0.576583 0.311869
vt 0.571347 0.316507
vt 0.568281 0.317629
vt 0.568862 0.317654
vt 0.570494 0.322177
vt 0.570480 0.321453
vt 0.570494 0.321450
vt 0.576070 0.312393
vt 0.576056 0.312388
vt 0.571809 0.317354
vt 0.576056 0.313131
vt 0.569290 0.377920
vt 0.569887 0.377620
vt 0.569887 0.377726
vt 0.568922 0.378428
vt 0.569228 0.377834
vt 0.568820 0.379088
vt 0.568820 0.378395
vt 0.569290 0.379563
vt 0.568922 0.379055
vt 0.569887 0.379757
vt 0.569228 0.379650
vt 0.570547 0.379650
vt 0.569887 0.379864
vt 0.570484 0.379563
vt 0.570954 0.379089
vt 0.570853 0.378428
vt 0.570853 0.379056
vt 0.570484 0.377920
vt 0.570954 0.378395
vt 0.570547 0.377834
vt 0.577002 0.388439
vt 0.577371 0.387304
vt 0.577371 0.387931
vt 0.575809 0.388439
vt 0.576406 0.386602
vt 0.576406 0.388633
vt 0.575440 0.387304
vt 0.575809 0.386796
vt 0.572419 0.388307
vt 0.572477 0.388758
vt 0.566317 0.388304
vt 0.566205 0.388752
vt 0.562659 0.388300
vt 0.562693 0.388750
vt 0.570314 0.388762
vt 0.569687 0.388778
vt 0.565758 0.388306
vt 0.565688 0.388754
vt 0.562173 0.388314
vt 0.562243 0.388763
vt 0.562709 0.385609
vt 0.562257 0.386169
vt 0.562260 0.385622
vt 0.562640 0.387178
vt 0.562216 0.387191
vt 0.566205 0.385609
vt 0.565688 0.386158
vt 0.565688 0.385611
vt 0.566205 0.386156
vt 0.565840 0.387182
vt 0.566327 0.387181
vt 0.570235 0.385620
vt 0.569622 0.386182
vt 0.569608 0.385636
vt 0.570201 0.387194
vt 0.569610 0.387209
vt 0.563330 0.385609
vt 0.562706 0.386155
vt 0.563226 0.387178
vt 0.566832 0.385609
vt 0.566832 0.386156
vt 0.570750 0.385609
vt 0.570249 0.386167
vt 0.570764 0.386156
vt 0.572633 0.387200
vt 0.569122 0.386197
vt 0.569108 0.385650
vt 0.569139 0.387222
vt 0.573674 0.385622
vt 0.573036 0.386155
vt 0.573047 0.385609
vt 0.573663 0.386167
vt 0.573108 0.387188
vt 0.573700 0.387200
vt 0.567330 0.385611
vt 0.567330 0.386158
vt 0.566918 0.387181
vt 0.567398 0.388306
vt 0.563885 0.385622
vt 0.563327 0.386155
vt 0.563749 0.387191
vt 0.559211 0.387513
vt 0.558601 0.386963
vt 0.559225 0.386963
vt 0.557084 0.382894
vt 0.557898 0.383544
vt 0.557058 0.383495
vt 0.558586 0.387949
vt 0.559244 0.387890
vt 0.557904 0.384069
vt 0.569458 0.367253
vt 0.570272 0.367849
vt 0.569386 0.367958
vt 0.569458 0.368605
vt 0.559973 0.377026
vt 0.560475 0.377850
vt 0.559950 0.377869
vt 0.560576 0.377031
vt 0.561305 0.377893
vt 0.561341 0.377050
vt 0.561899 0.377900
vt 0.557904 0.382142
vt 0.557062 0.382142
vt 0.562412 0.082441
vt 0.571925 0.090903
vt 0.563222 0.090077
vt 0.576531 0.090763
vt 0.576056 0.090776
vt 0.572025 0.091923
vt 0.563296 0.091134
vt 0.575600 0.090746
vt 0.562344 0.082446
vt 0.565662 0.384193
vt 0.563311 0.366712
vt 0.566780 0.370655
vt 0.571989 0.385422
vt 0.571689 0.365408
vt 0.565794 0.378227
vt 0.571819 0.364713
vt 0.565791 0.381899
vt 0.573403 0.383294
vt 0.570119 0.318577
vt 0.569520 0.317054
vt 0.568887 0.318436
vt 0.568431 0.318411
vt 0.571202 0.320162
vt 0.580039 0.319277
vt 0.568600 0.313546
vt 0.569939 0.317842
vt 0.566915 0.317693
vt 0.568241 0.318150
vt 0.568233 0.318638
vt 0.563930 0.388314
vt 0.573739 0.388316
vt 0.556971 0.383496
vt 0.567846 0.361689
vt 0.574713 0.387841
vt 0.576056 0.387841
vt 0.559940 0.377957
vt 0.561892 0.377989
vt 0.561898 0.363496
vt 0.567362 0.390039
vt 0.567375 0.391867
vt 0.575353 0.388367
vt 0.559868 0.378463
vt 0.561843 0.378499
vt 0.566878 0.391881
vt 0.576158 0.388908
vt 0.560488 0.378986
vt 0.560043 0.364015
vt 0.561976 0.364600
vt 0.566402 0.391853
vt 0.575281 0.389336
vt 0.559936 0.379482
vt 0.560025 0.364529
vt 0.577063 0.367355
vt 0.555336 0.380786
vt 0.557952 0.365395
vt 0.561114 0.367328
vt 0.577081 0.368673
vt 0.568174 0.383809
vt 0.565706 0.380872
vt 0.570994 0.364314
vt 0.560565 0.387523
vt 0.568174 0.381797
vt 0.569350 0.317797
vt 0.569377 0.316601
vt 0.570883 0.319287
vt 0.571386 0.315944
vt 0.579228 0.319299
vt 0.569538 0.316540
vt 0.578627 0.318786
vt 0.566338 0.312154
vt 0.569898 0.314716
vt 0.571470 0.317035
vt 0.577192 0.311670
vt 0.571359 0.316487
vt 0.568875 0.317636
vt 0.570479 0.322174
vt 0.569553 0.316038
vt 0.577002 0.386796
vt 0.575440 0.387931
vt 0.570326 0.388314
vt 0.570687 0.387183
vt 0.567388 0.387183
vt 0.563883 0.386169
vt 0.558588 0.387518
vt 0.557900 0.382823
vt 0.557016 0.383945
vt 0.570300 0.367220
vt 0.570300 0.368585
vt 0.561940 0.377057
s 0
usemtl Material
f 4/1/1 6/2/1 3/3/1
f 6/4/2 9/5/2 10/6/2
f 10/6/3 13/7/3 14/8/3
f 14/9/4 17/10/4 18/11/4
f 17/10/5 22/12/5 18/11/5
f 21/13/6 26/14/6 22/15/6
f 25/16/7 30/17/7 26/14/7
f 30/17/8 33/18/8 34/19/8
f 33/20/9 38/21/9 34/22/9
f 37/23/10 3/3/10 38/21/10
f 3/24/11 7/25/11 2/26/11
f 6/27/12 11/28/12 7/29/12
f 10/30/13 15/31/13 11/28/13
f 14/32/14 19/33/14 15/31/14
f 19/34/15 22/35/15 23/36/15
f 23/37/16 26/38/16 27/39/16
f 27/39/17 30/40/17 31/41/17
f 31/41/18 34/42/18 35/43/18
f 34/44/19 39/45/19 35/46/19
f 38/47/20 2/26/20 39/45/20
f 1/48/21 7/49/21 8/50/21
f 8/51/22 11/52/22 12/53/22
f 11/52/23 16/54/23 12/53/23
f 15/55/24 20/56/24 16/54/24
f 19/57/25 24/58/25 20/59/25
f 23/60/26 28/61/26 24/62/26
f 28/61/27 31/63/27 32/64/27
f 32/64/28 35/65/28 36/66/28
f 36/67/29 39/68/29 40/69/29
f 40/69/30 2/70/30 1/48/30
f 1/71/31 41/72/31 50/73/31
f 8/74/32 42/75/32 41/76/32
f 12/77/33 43/78/33 42/75/33
f 16/79/34 44/80/34 43/78/34
f 44/81/35 24/82/35 45/83/35
f 45/84/36 28/85/36 46/86/36
f 46/86/37 32/87/37 47/88/37
f 47/88/38 36/89/38 48/90/38
f 48/91/39 40/92/39 49/93/39
f 40/92/40 50/73/40 49/93/40
f 9/94/41 54/95/41 13/96/41
f 13/97/42 55/98/42 17/99/42
f 58/100/43 33/101/43 29/102/43
f 53/103/44 5/104/44 52/105/44
f 52/106/45 4/107/45 51/108/45
f 17/99/46 56/109/46 21/110/46
f 33/111/47 60/112/47 37/113/47
f 57/114/48 29/102/48 25/115/48
f 56/116/49 25/115/49 21/117/49
f 37/113/50 51/108/50 4/107/50
f 100/2/51 70/1/51 68/3/51
f 100/4/52 97/5/52 101/118/52
f 96/6/53 93/7/53 97/5/53
f 92/9/54 89/10/54 93/119/54
f 84/12/55 89/10/55 88/11/55
f 84/15/56 81/16/56 85/13/56
f 80/14/57 77/120/57 81/16/57
f 72/19/58 77/120/58 76/17/58
f 67/21/59 73/20/59 72/22/59
f 68/3/60 69/23/60 67/21/60
f 99/25/61 68/24/61 66/26/61
f 95/28/62 100/27/62 99/29/62
f 91/31/63 96/30/63 95/28/63
f 87/33/64 92/32/64 91/31/64
f 87/34/65 84/35/65 88/121/65
f 83/37/66 80/38/66 84/122/66
f 79/39/67 76/40/67 80/38/67
f 75/41/68 72/42/68 76/40/68
f 71/46/69 67/47/69 72/44/69
f 66/26/70 67/47/70 65/45/70
f 64/48/71 99/49/71 66/70/71
f 98/51/72 95/52/72 99/123/72
f 90/54/73 95/52/73 94/53/73
f 86/56/74 91/55/74 90/54/74
f 82/58/75 87/57/75 86/59/75
f 78/61/76 83/60/76 82/62/76
f 78/61/77 75/63/77 79/124/77
f 74/64/78 71/65/78 75/63/78
f 61/67/79 65/68/79 71/125/79
f 63/69/80 66/70/80 65/68/80
f 109/72/81 64/71/81 106/73/81
f 108/75/82 98/74/82 109/76/82
f 103/78/83 94/77/83 108/75/83
f 102/80/84 90/79/84 103/78/84
f 102/81/85 82/82/85 86/126/85
f 105/84/86 78/85/86 82/127/86
f 110/86/87 74/87/87 78/85/87
f 104/88/88 61/89/88 74/87/88
f 62/91/89 63/92/89 61/128/89
f 106/73/90 63/92/90 107/93/90
f 97/94/91 118/95/91 119/103/91
f 93/97/92 117/98/92 118/129/92
f 73/101/93 114/100/93 77/102/93
f 101/104/94 119/103/94 120/105/94
f 70/107/95 120/106/95 112/108/95
f 89/99/96 116/109/96 117/98/96
f 73/111/97 111/112/97 113/130/97
f 77/102/98 115/114/98 81/115/98
f 81/115/99 116/116/99 85/117/99
f 69/113/100 112/108/100 111/112/100
f 105/83/101 44/81/101 45/83/101
f 57/114/102 114/100/102 58/100/102
f 44/80/103 103/78/103 43/78/103
f 56/116/104 115/114/104 57/114/104
f 43/78/105 108/75/105 42/75/105
f 50/73/106 107/93/106 49/93/106
f 55/98/107 116/109/107 56/109/107
f 42/75/108 109/76/108 41/76/108
f 107/93/109 48/91/109 49/93/109
f 118/129/110 55/98/110 54/129/110
f 41/72/111 106/73/111 50/73/111
f 62/90/112 47/88/112 48/90/112
f 119/103/113 54/95/113 53/103/113
f 111/112/114 51/108/114 60/112/114
f 104/88/115 46/86/115 47/88/115
f 120/105/116 53/103/116 52/105/116
f 59/130/117 111/112/117 60/112/117
f 110/86/118 45/84/118 46/86/118
f 112/108/119 52/106/119 51/108/119
f 58/100/120 113/131/120 59/131/120
f 266/132/121 304/133/121 301/134/121
f 153/135/122 296/136/122 299/137/122
f 271/138/123 312/139/123 272/140/123
f 267/141/124 307/142/124 304/133/124
f 160/143/125 284/144/125 309/145/125
f 273/146/126 312/139/126 313/147/126
f 268/148/127 310/149/127 307/142/127
f 141/150/128 308/151/128 281/152/128
f 124/153/129 403/154/129 126/155/129
f 143/156/130 284/144/130 144/157/130
f 150/158/131 297/159/131 294/160/131
f 133/161/132 167/162/132 131/163/132
f 138/164/133 410/165/133 140/166/133
f 125/167/134 170/168/134 123/169/134
f 130/170/135 406/171/135 132/172/135
f 139/173/136 179/174/136 137/175/136
f 122/176/137 401/177/137 124/153/137
f 131/163/138 169/178/138 129/179/138
f 121/180/139 142/181/139 123/182/139
f 124/183/140 144/157/140 122/184/140
f 123/182/139 145/185/139 125/186/139
f 126/187/140 143/156/140 124/183/140
f 125/186/139 147/188/139 127/189/139
f 126/187/140 148/190/140 146/191/140
f 129/192/139 147/188/139 149/193/139
f 128/194/140 150/158/140 148/190/140
f 131/195/139 149/193/139 151/196/139
f 132/197/140 150/158/140 130/198/140
f 131/195/139 153/135/139 133/199/139
f 134/200/140 152/201/140 132/197/140
f 133/199/139 155/202/139 135/203/139
f 136/204/140 154/205/140 134/200/140
f 135/203/139 157/206/139 137/207/139
f 138/208/140 156/209/140 136/204/140
f 139/210/139 157/206/139 159/211/139
f 140/212/140 158/213/140 138/208/140
f 121/180/139 159/211/139 141/150/139
f 122/184/140 160/143/140 140/212/140
f 168/214/139 171/215/139 172/216/139
f 168/214/139 169/217/139 167/218/139
f 170/219/139 175/220/139 169/217/139
f 172/216/139 177/221/139 179/222/139
f 121/223/141 172/224/141 139/225/141
f 132/172/142 407/226/142 134/227/142
f 127/228/143 173/229/143 125/167/143
f 140/230/144 402/231/144 122/232/144
f 135/233/145 171/234/145 133/235/145
f 126/155/143 404/236/143 128/237/143
f 134/238/146 408/239/146 136/240/146
f 129/179/147 175/241/147 127/242/147
f 137/175/148 177/243/148 135/233/148
f 128/244/149 405/245/149 130/170/149
f 123/169/150 168/246/150 121/247/150
f 136/240/148 409/248/148 138/164/148
f 182/249/151 330/250/151 219/251/151
f 245/252/152 385/253/152 386/254/152
f 197/255/153 356/256/153 193/257/153
f 260/258/154 400/259/154 321/260/154
f 220/261/155 322/262/155 329/263/155
f 244/264/156 384/265/156 385/253/156
f 198/266/157 355/267/157 194/268/157
f 259/269/158 399/270/158 400/259/158
f 242/271/159 384/265/159 243/272/159
f 199/273/160 354/274/160 195/275/160
f 257/276/161 399/277/161 258/278/161
f 242/279/162 323/280/162 383/281/162
f 196/282/163 349/283/163 353/284/163
f 256/285/164 398/286/164 257/276/164
f 197/255/165 348/287/165 352/288/165
f 255/289/166 397/290/166 256/285/166
f 202/291/167 351/292/167 198/293/167
f 254/294/168 396/295/168 255/296/168
f 203/297/169 350/298/169 199/299/169
f 254/300/170 394/301/170 395/302/170
f 204/303/171 349/304/171 200/305/171
f 253/306/172 393/307/172 394/301/172
f 230/308/173 327/309/173 221/310/173
f 201/311/174 344/312/174 348/313/174
f 251/314/175 393/307/175 252/315/175
f 230/308/176 372/316/176 373/317/176
f 202/318/177 343/319/177 347/320/177
f 251/321/178 321/260/178 392/322/178
f 229/323/179 371/324/179 372/325/179
f 203/326/180 342/327/180 346/328/180
f 227/329/181 371/324/181 228/330/181
f 208/331/182 345/332/182 204/333/182
f 227/334/183 369/335/183 370/336/183
f 205/337/184 340/338/184 344/312/184
f 226/339/185 368/340/185 369/341/185
f 206/342/186 339/343/186 343/319/186
f 225/344/187 367/345/187 368/340/187
f 240/346/188 325/347/188 231/348/188
f 207/349/189 338/350/189 342/327/189
f 185/351/190 328/352/190 184/353/190
f 439/354/191 418/355/191 414/356/191
f 436/357/192 411/358/192 419/359/192
f 430/360/193 412/361/193 415/362/193
f 429/363/194 418/364/194 424/365/194
f 183/366/195 222/367/195 186/368/195
f 186/369/196 223/370/196 190/371/196
f 190/371/197 224/372/197 194/373/197
f 194/374/198 225/375/198 198/376/198
f 225/375/199 202/377/199 198/376/199
f 202/378/200 227/379/200 206/380/200
f 206/380/201 228/381/201 210/382/201
f 228/381/202 214/383/202 210/382/202
f 229/384/203 218/385/203 214/386/203
f 230/387/204 183/366/204 218/385/204
f 231/388/205 187/389/205 182/390/205
f 187/391/206 233/392/206 191/393/206
f 233/392/148 195/394/148 191/393/148
f 234/395/207 199/396/207 195/394/207
f 199/397/208 236/398/208 203/399/208
f 203/400/209 237/401/209 207/402/209
f 237/401/210 211/403/210 207/402/210
f 238/404/143 215/405/143 211/403/143
f 239/406/211 219/407/211 215/408/211
f 240/409/212 182/390/212 219/407/212
f 181/410/213 242/411/213 188/412/213
f 242/413/214 192/414/214 188/415/214
f 243/416/215 196/417/215 192/414/215
f 244/418/216 200/419/216 196/417/216
f 245/420/217 204/421/217 200/422/217
f 246/423/218 208/424/218 204/425/218
f 208/424/219 248/426/219 212/427/219
f 212/427/220 249/428/220 216/429/220
f 216/430/221 250/431/221 220/432/221
f 220/432/222 241/433/222 181/410/222
f 260/434/223 261/435/223 270/436/223
f 251/437/224 262/438/224 261/439/224
f 252/440/148 263/441/148 262/438/148
f 253/442/225 264/443/225 263/441/225
f 264/444/226 255/445/226 265/446/226
f 265/447/227 256/448/227 266/449/227
f 266/449/228 257/450/228 267/451/228
f 267/451/143 258/452/143 268/453/143
f 268/454/229 259/455/229 269/456/229
f 259/455/230 270/436/230 269/456/230
f 274/457/231 313/147/231 314/458/231
f 270/459/232 310/149/232 269/460/232
f 141/150/233 282/461/233 142/181/233
f 151/196/234 293/462/234 296/136/234
f 275/463/235 314/458/235 315/464/235
f 160/143/236 306/465/236 158/213/236
f 276/466/237 315/464/237 316/467/237
f 159/211/238 305/468/238 308/151/238
f 148/190/239 294/160/239 291/469/239
f 276/466/240 317/470/240 277/471/240
f 284/472/241 312/473/241 285/474/241
f 312/475/242 288/476/242 313/477/242
f 313/477/243 291/478/243 314/479/243
f 314/479/244 294/480/244 315/481/244
f 315/482/245 297/483/245 316/484/245
f 297/485/246 317/486/246 316/487/246
f 300/488/247 318/489/247 317/486/247
f 303/490/248 319/491/248 318/489/248
f 306/492/249 320/493/249 319/494/249
f 320/493/250 284/472/250 285/474/250
f 310/495/251 281/496/251 308/497/251
f 305/498/252 310/495/252 308/497/252
f 302/499/253 307/500/253 305/501/253
f 299/502/254 304/503/254 302/499/254
f 296/504/255 301/505/255 299/502/255
f 293/506/256 298/507/256 296/508/256
f 292/509/257 293/510/257 290/511/257
f 289/512/258 290/511/258 287/513/258
f 286/514/259 287/513/259 282/515/259
f 311/516/260 282/517/260 281/496/260
f 154/205/261 297/159/261 152/201/261
f 142/181/262 287/518/262 145/185/262
f 265/519/263 301/134/263 298/520/263
f 143/156/264 288/521/264 283/522/264
f 264/523/265 298/520/265 295/524/265
f 155/202/266 299/137/266 302/525/266
f 264/523/267 292/526/267 263/527/267
f 156/209/268 300/528/268 154/205/268
f 271/138/269 320/529/269 285/530/269
f 145/185/270 290/531/270 147/188/270
f 263/527/271 289/532/271 262/533/271
f 279/534/272 320/529/272 280/535/272
f 146/191/273 291/469/273 288/521/273
f 262/533/274 286/536/274 261/537/274
f 157/206/275 302/525/275 305/468/275
f 278/538/276 319/539/276 279/534/276
f 261/537/277 311/540/277 270/459/277
f 158/213/278 303/541/278 156/209/278
f 277/471/279 318/542/279 278/538/279
f 149/193/280 290/531/280 293/462/280
f 329/263/281 321/260/281 400/259/281
f 391/543/282 324/544/282 323/280/282
f 331/545/283 325/347/283 382/546/283
f 332/547/284 327/309/284 373/317/284
f 399/270/285 329/263/285 400/259/285
f 390/548/286 330/250/286 391/543/286
f 335/549/287 382/546/287 381/550/287
f 336/551/288 373/317/288 372/316/288
f 398/286/289 333/552/289 399/277/289
f 389/553/290 334/554/290 390/555/290
f 380/556/291 335/557/291 381/558/291
f 340/338/292 372/559/292 371/560/292
f 397/290/293 337/561/293 398/286/293
f 388/562/294 338/350/294 389/553/294
f 343/319/295 380/556/295 379/563/295
f 370/336/296 340/338/296 371/560/296
f 396/564/297 341/565/297 397/290/297
f 346/328/298 388/562/298 387/566/298
f 378/567/299 343/568/299 379/569/299
f 348/313/300 370/336/300 369/335/300
f 395/570/301 345/571/301 396/295/301
f 350/298/302 387/572/302 386/573/302
f 377/574/303 347/575/303 378/567/303
f 352/288/304 369/576/304 368/577/304
f 353/284/305 395/302/305 394/301/305
f 354/274/306 386/254/306 385/253/306
f 376/578/307 351/579/307 377/580/307
f 367/581/308 352/288/308 368/577/308
f 357/582/309 394/301/309 393/307/309
f 358/583/310 385/253/310 384/265/310
f 359/584/311 376/578/311 375/585/311
f 366/586/312 356/587/312 367/588/312
f 361/589/313 393/307/313 392/590/313
f 362/591/314 384/265/314 383/592/314
f 374/593/315 359/584/315 375/585/315
f 365/594/316 360/595/316 366/586/316
f 322/262/317 392/322/317 321/260/317
f 324/544/318 383/281/318 323/280/318
f 326/596/319 374/597/319 325/347/319
f 327/309/320 364/598/320 365/599/320
f 192/600/321 353/284/321 357/582/321
f 246/601/322 386/573/322 387/572/322
f 183/602/323 331/603/323 218/604/323
f 195/275/324 358/583/324 191/605/324
f 247/606/325 387/572/325 388/607/325
f 184/353/326 332/547/326 217/608/326
f 194/268/327 359/609/327 190/610/327
f 247/611/328 389/553/328 248/612/328
f 220/261/329 333/613/329 216/614/329
f 232/615/330 325/347/330 374/597/330
f 193/616/331 360/595/331 189/617/331
f 248/612/332 390/555/332 249/618/332
f 219/251/333 334/619/333 215/620/333
f 232/621/334 375/585/334 233/622/334
f 188/623/335 357/582/335 361/589/335
f 250/624/336 390/548/336 391/543/336
f 214/625/337 331/603/337 335/626/337
f 234/627/338 375/585/338 376/578/338
f 187/628/339 358/583/339 362/591/339
f 250/624/340 323/280/340 241/629/340
f 217/608/341 336/551/341 213/630/341
f 235/631/342 376/632/342 377/574/342
f 190/610/343 363/633/343 186/634/343
f 216/635/344 337/561/344 212/636/344
f 236/637/345 377/574/345 378/567/345
f 185/638/346 360/639/346 364/640/346
f 211/641/347 334/642/347 338/643/347
f 236/637/348 379/569/348 237/644/348
f 181/645/349 361/646/349 322/262/349
f 210/647/350 335/626/350 339/648/350
f 237/649/351 380/556/351 238/650/351
f 221/651/352 365/652/352 222/653/352
f 182/249/353 362/654/353 324/544/353
f 209/655/354 336/656/354 340/338/354
f 238/657/355 381/658/355 239/659/355
f 222/653/356 366/660/356 223/661/356
f 183/602/357 363/633/357 326/662/357
f 208/331/358 337/561/358 341/565/358
f 240/346/359 381/550/359 382/546/359
f 223/661/360 367/345/360 224/663/360
f 165/664/140 402/665/140 161/666/140
f 174/667/140 401/668/140 165/664/140
f 174/667/140 404/669/140 403/670/140
f 166/671/140 404/669/140 176/672/140
f 162/673/140 405/674/140 166/671/140
f 162/673/140 407/675/140 406/676/140
f 164/677/140 408/678/140 407/675/140
f 180/679/140 408/678/140 178/680/140
f 163/681/140 409/682/140 180/679/140
f 163/681/140 402/665/140 410/683/140
f 411/684/140 420/685/140 419/686/140
f 414/687/140 415/688/140 416/689/140
f 415/688/140 411/684/140 416/689/140
f 414/687/140 417/690/140 413/691/140
f 442/692/361 415/362/361 413/693/361
f 445/694/362 419/359/362 420/695/362
f 448/696/363 414/356/363 416/697/363
f 429/363/364 413/698/364 417/699/364
f 423/700/365 420/695/365 412/701/365
f 435/702/366 416/697/366 411/703/366
f 162/704/142 433/705/142 164/706/142
f 433/705/367 449/707/367 434/708/367
f 449/707/368 435/702/368 434/708/368
f 180/709/133 421/710/133 163/711/133
f 447/712/369 422/713/369 421/710/369
f 446/714/370 423/700/370 422/713/370
f 165/715/129 427/716/129 174/717/129
f 427/716/371 443/718/371 428/719/371
f 443/718/372 429/363/372 428/719/372
f 166/720/135 450/721/135 162/704/135
f 450/721/373 440/722/373 449/707/373
f 440/722/374 448/696/374 449/707/374
f 178/723/148 447/712/148 180/709/148
f 438/724/375 446/714/375 447/712/375
f 446/714/376 436/357/376 445/694/376
f 161/725/137 444/726/137 165/715/137
f 432/727/377 443/718/377 444/726/377
f 443/728/378 430/360/378 442/692/378
f 174/717/143 426/729/143 176/730/143
f 426/729/379 428/719/379 425/731/379
f 428/719/380 424/365/380 425/731/380
f 163/732/144 432/733/144 161/734/144
f 421/735/381 431/736/381 432/733/381
f 422/737/382 430/360/382 431/736/382
f 164/738/146 438/724/146 178/723/146
f 433/739/383 437/740/383 438/724/383
f 437/740/384 435/741/384 436/357/384
f 176/742/149 441/743/149 166/720/149
f 441/743/385 425/744/385 440/722/385
f 425/744/386 439/354/386 440/722/386
f 189/745/387 274/746/387 193/747/387
f 217/748/388 271/749/388 184/750/388
f 272/751/389 189/745/389 185/752/389
f 272/753/390 184/750/390 271/749/390
f 193/754/391 275/755/391 197/756/391
f 275/755/392 201/757/392 197/756/392
f 276/758/393 205/759/393 201/760/393
f 277/761/394 209/762/394 205/759/394
f 278/763/395 213/764/395 209/762/395
f 279/765/396 217/748/396 213/766/396
f 4/1/397 5/767/397 6/2/397
f 6/4/398 5/118/398 9/5/398
f 10/6/3 9/5/3 13/7/3
f 14/9/399 13/119/399 17/10/399
f 17/10/400 21/768/400 22/12/400
f 21/13/401 25/16/401 26/14/401
f 25/16/402 29/120/402 30/17/402
f 30/17/403 29/120/403 33/18/403
f 33/20/404 37/23/404 38/21/404
f 37/23/405 4/1/405 3/3/405
f 3/24/406 6/769/406 7/25/406
f 6/27/407 10/30/407 11/28/407
f 10/30/13 14/32/13 15/31/13
f 14/32/408 18/770/408 19/33/408
f 19/34/409 18/121/409 22/35/409
f 23/37/410 22/122/410 26/38/410
f 27/39/411 26/38/411 30/40/411
f 31/41/412 30/40/412 34/42/412
f 34/44/413 38/47/413 39/45/413
f 38/47/414 3/24/414 2/26/414
f 1/48/415 2/70/415 7/49/415
f 8/51/416 7/123/416 11/52/416
f 11/52/23 15/55/23 16/54/23
f 15/55/417 19/771/417 20/56/417
f 19/57/418 23/772/418 24/58/418
f 23/60/419 27/124/419 28/61/419
f 28/61/420 27/124/420 31/63/420
f 32/64/421 31/63/421 35/65/421
f 36/67/422 35/125/422 39/68/422
f 40/69/423 39/68/423 2/70/423
f 1/71/424 8/773/424 41/72/424
f 8/74/425 12/77/425 42/75/425
f 12/77/33 16/79/33 43/78/33
f 16/79/426 20/774/426 44/80/426
f 44/81/427 20/126/427 24/82/427
f 45/84/428 24/127/428 28/85/428
f 46/86/429 28/85/429 32/87/429
f 47/88/38 32/87/38 36/89/38
f 48/91/430 36/128/430 40/92/430
f 40/92/431 1/71/431 50/73/431
f 9/94/41 53/103/41 54/95/41
f 13/97/432 54/129/432 55/98/432
f 58/100/433 59/131/433 33/101/433
f 53/103/434 9/94/434 5/104/434
f 52/106/435 5/775/435 4/107/435
f 17/99/436 55/98/436 56/109/436
f 33/111/437 59/130/437 60/112/437
f 57/114/438 58/100/438 29/102/438
f 56/116/439 57/114/439 25/115/439
f 37/113/440 60/112/440 51/108/440
f 100/2/441 101/767/441 70/1/441
f 100/4/442 96/6/442 97/5/442
f 96/6/443 92/8/443 93/7/443
f 92/9/444 88/11/444 89/10/444
f 84/12/445 85/768/445 89/10/445
f 84/15/446 80/14/446 81/16/446
f 80/14/447 76/17/447 77/120/447
f 72/19/448 73/18/448 77/120/448
f 67/21/449 69/23/449 73/20/449
f 68/3/450 70/1/450 69/23/450
f 99/25/451 100/769/451 68/24/451
f 95/28/452 96/30/452 100/27/452
f 91/31/453 92/32/453 96/30/453
f 87/33/454 88/770/454 92/32/454
f 87/34/455 83/36/455 84/35/455
f 83/37/456 79/39/456 80/38/456
f 79/39/457 75/41/457 76/40/457
f 75/41/458 71/43/458 72/42/458
f 71/46/459 65/45/459 67/47/459
f 66/26/460 68/24/460 67/47/460
f 64/48/461 98/50/461 99/49/461
f 98/51/462 94/53/462 95/52/462
f 90/54/463 91/55/463 95/52/463
f 86/56/464 87/771/464 91/55/464
f 82/58/465 83/772/465 87/57/465
f 78/61/466 79/124/466 83/60/466
f 78/61/467 74/64/467 75/63/467
f 74/64/468 61/66/468 71/65/468
f 61/67/469 63/69/469 65/68/469
f 63/69/470 64/48/470 66/70/470
f 109/72/471 98/773/471 64/71/471
f 108/75/472 94/77/472 98/74/472
f 103/78/473 90/79/473 94/77/473
f 102/80/474 86/774/474 90/79/474
f 102/81/475 105/83/475 82/82/475
f 105/84/476 110/86/476 78/85/476
f 110/86/477 104/88/477 74/87/477
f 104/88/478 62/90/478 61/89/478
f 62/91/479 107/93/479 63/92/479
f 106/73/480 64/71/480 63/92/480
f 97/94/481 93/96/481 118/95/481
f 93/97/482 89/99/482 117/98/482
f 73/101/483 113/131/483 114/100/483
f 101/104/484 97/94/484 119/103/484
f 70/107/485 101/775/485 120/106/485
f 89/99/486 85/110/486 116/109/486
f 73/111/487 69/113/487 111/112/487
f 77/102/488 114/100/488 115/114/488
f 81/115/489 115/114/489 116/116/489
f 69/113/490 70/107/490 112/108/490
f 105/83/491 102/81/491 44/81/491
f 57/114/492 115/114/492 114/100/492
f 44/80/493 102/80/493 103/78/493
f 56/116/494 116/116/494 115/114/494
f 43/78/495 103/78/495 108/75/495
f 50/73/496 106/73/496 107/93/496
f 55/98/497 117/98/497 116/109/497
f 42/75/498 108/75/498 109/76/498
f 107/93/499 62/91/499 48/91/499
f 118/129/500 117/98/500 55/98/500
f 41/72/501 109/72/501 106/73/501
f 62/90/502 104/88/502 47/88/502
f 119/103/503 118/95/503 54/95/503
f 111/112/504 112/108/504 51/108/504
f 104/88/505 110/86/505 46/86/505
f 120/105/506 119/103/506 53/103/506
f 59/130/507 113/130/507 111/112/507
f 110/86/508 105/84/508 45/84/508
f 112/108/509 120/106/509 52/106/509
f 58/100/510 114/100/510 113/131/510
f 266/132/511 267/141/511 304/133/511
f 153/135/512 151/196/512 296/136/512
f 271/138/513 285/530/513 312/139/513
f 267/141/514 268/148/514 307/142/514
f 160/143/515 144/157/515 284/144/515
f 273/146/516 272/140/516 312/139/516
f 268/148/517 269/460/517 310/149/517
f 141/150/518 159/211/518 308/151/518
f 124/153/129 401/177/129 403/154/129
f 143/156/519 283/522/519 284/144/519
f 150/158/520 152/201/520 297/159/520
f 133/161/132 171/776/132 167/162/132
f 138/164/133 409/248/133 410/165/133
f 125/167/134 173/229/134 170/168/134
f 130/170/135 405/245/135 406/171/135
f 139/173/136 172/777/136 179/174/136
f 122/176/137 402/778/137 401/177/137
f 131/163/138 167/162/138 169/178/138
f 121/180/139 141/150/139 142/181/139
f 124/183/140 143/156/140 144/157/140
f 123/182/139 142/181/139 145/185/139
f 126/187/140 146/191/140 143/156/140
f 125/186/139 145/185/139 147/188/139
f 126/187/140 128/194/140 148/190/140
f 129/192/139 127/189/139 147/188/139
f 128/194/140 130/198/140 150/158/140
f 131/195/139 129/192/139 149/193/139
f 132/197/140 152/201/140 150/158/140
f 131/195/139 151/196/139 153/135/139
f 134/200/140 154/205/140 152/201/140
f 133/199/139 153/135/139 155/202/139
f 136/204/140 156/209/140 154/205/140
f 135/203/139 155/202/139 157/206/139
f 138/208/140 158/213/140 156/209/140
f 139/210/139 137/207/139 157/206/139
f 140/212/140 160/143/140 158/213/140
f 121/180/139 139/210/139 159/211/139
f 122/184/140 144/157/140 160/143/140
f 168/214/139 167/218/139 171/215/139
f 168/214/139 170/219/139 169/217/139
f 170/219/139 173/779/139 175/220/139
f 172/216/139 171/215/139 177/221/139
f 121/223/141 168/780/141 172/224/141
f 132/172/142 406/171/142 407/226/142
f 127/228/143 175/781/143 173/229/143
f 140/230/144 410/782/144 402/231/144
f 135/233/145 177/243/145 171/234/145
f 126/155/143 403/154/143 404/236/143
f 134/238/146 407/783/146 408/239/146
f 129/179/147 169/178/147 175/241/147
f 137/175/148 179/174/148 177/243/148
f 128/244/149 404/784/149 405/245/149
f 123/169/150 170/168/150 168/246/150
f 136/240/148 408/239/148 409/248/148
f 182/249/521 324/544/521 330/250/521
f 245/252/522 244/264/522 385/253/522
f 197/255/523 352/288/523 356/256/523
f 260/258/524 259/269/524 400/259/524
f 220/261/525 181/645/525 322/262/525
f 244/264/526 243/272/526 384/265/526
f 198/266/527 351/785/527 355/267/527
f 259/269/528 258/786/528 399/270/528
f 242/271/529 383/592/529 384/265/529
f 199/273/530 350/787/530 354/274/530
f 257/276/531 398/286/531 399/277/531
f 242/279/532 241/629/532 323/280/532
f 196/282/533 200/788/533 349/283/533
f 256/285/534 397/290/534 398/286/534
f 197/255/535 201/789/535 348/287/535
f 255/289/536 396/564/536 397/290/536
f 202/291/537 347/575/537 351/292/537
f 254/294/538 395/570/538 396/295/538
f 203/297/539 346/790/539 350/298/539
f 254/300/540 253/306/540 394/301/540
f 204/303/541 345/571/541 349/304/541
f 253/306/542 252/315/542 393/307/542
f 230/308/543 373/317/543 327/309/543
f 201/311/544 205/337/544 344/312/544
f 251/314/545 392/590/545 393/307/545
f 230/308/546 229/791/546 372/316/546
f 202/318/547 206/342/547 343/319/547
f 251/321/548 260/258/548 321/260/548
f 229/323/549 228/330/549 371/324/549
f 203/326/550 207/349/550 342/327/550
f 227/329/551 370/792/551 371/324/551
f 208/331/552 341/565/552 345/332/552
f 227/334/553 226/793/553 369/335/553
f 205/337/554 209/655/554 340/338/554
f 226/339/555 225/344/555 368/340/555
f 206/342/556 210/794/556 339/343/556
f 225/344/557 224/663/557 367/345/557
f 240/346/558 382/546/558 325/347/558
f 207/349/559 211/795/559 338/350/559
f 185/351/560 364/598/560 328/352/560
f 439/354/191 424/796/191 418/355/191
f 436/357/192 435/741/192 411/358/192
f 430/360/193 423/797/193 412/361/193
f 429/363/194 417/699/194 418/364/194
f 183/366/561 221/798/561 222/367/561
f 186/369/562 222/799/562 223/370/562
f 190/371/197 223/370/197 224/372/197
f 194/374/563 224/800/563 225/375/563
f 225/375/564 226/801/564 202/377/564
f 202/378/565 226/802/565 227/379/565
f 206/380/566 227/379/566 228/381/566
f 228/381/202 229/803/202 214/383/202
f 229/384/567 230/387/567 218/385/567
f 230/387/568 221/798/568 183/366/568
f 231/388/569 232/804/569 187/389/569
f 187/391/570 232/805/570 233/392/570
f 233/392/148 234/395/148 195/394/148
f 234/395/207 235/806/207 199/396/207
f 199/397/571 235/807/571 236/398/571
f 203/400/572 236/808/572 237/401/572
f 237/401/210 238/404/210 211/403/210
f 238/404/143 239/809/143 215/405/143
f 239/406/573 240/409/573 219/407/573
f 240/409/574 231/388/574 182/390/574
f 181/410/575 241/433/575 242/411/575
f 242/413/576 243/416/576 192/414/576
f 243/416/215 244/418/215 196/417/215
f 244/418/577 245/810/577 200/419/577
f 245/420/578 246/811/578 204/421/578
f 246/423/579 247/812/579 208/424/579
f 208/424/580 247/812/580 248/426/580
f 212/427/220 248/426/220 249/428/220
f 216/430/581 249/813/581 250/431/581
f 220/432/582 250/431/582 241/433/582
f 260/434/583 251/814/583 261/435/583
f 251/437/584 252/440/584 262/438/584
f 252/440/148 253/442/148 263/441/148
f 253/442/585 254/815/585 264/443/585
f 264/444/586 254/816/586 255/445/586
f 265/447/587 255/817/587 256/448/587
f 266/449/588 256/448/588 257/450/588
f 267/451/143 257/450/143 258/452/143
f 268/454/589 258/818/589 259/455/589
f 259/455/590 260/434/590 270/436/590
f 274/457/591 273/146/591 313/147/591
f 270/459/592 311/540/592 310/149/592
f 141/150/593 281/152/593 282/461/593
f 151/196/594 149/193/594 293/462/594
f 275/463/595 274/457/595 314/458/595
f 160/143/596 309/145/596 306/465/596
f 276/466/597 275/463/597 315/464/597
f 159/211/598 157/206/598 305/468/598
f 148/190/599 150/158/599 294/160/599
f 276/466/600 316/467/600 317/470/600
f 284/472/601 283/819/601 312/473/601
f 312/475/602 283/820/602 288/476/602
f 313/477/603 288/476/603 291/478/603
f 314/479/604 291/478/604 294/480/604
f 315/482/605 294/821/605 297/483/605
f 297/485/606 300/488/606 317/486/606
f 300/488/607 303/490/607 318/489/607
f 303/490/608 306/822/608 319/491/608
f 306/492/609 309/823/609 320/493/609
f 320/493/610 309/823/610 284/472/610
f 310/495/611 311/516/611 281/496/611
f 305/498/612 307/824/612 310/495/612
f 302/499/613 304/503/613 307/500/613
f 299/502/614 301/505/614 304/503/614
f 296/504/615 298/825/615 301/505/615
f 293/506/616 295/826/616 298/507/616
f 292/509/617 295/827/617 293/510/617
f 289/512/618 292/509/618 290/511/618
f 286/514/619 289/512/619 287/513/619
f 311/516/620 286/828/620 282/517/620
f 154/205/621 300/528/621 297/159/621
f 142/181/622 282/461/622 287/518/622
f 265/519/623 266/132/623 301/134/623
f 143/156/624 146/191/624 288/521/624
f 264/523/625 265/519/625 298/520/625
f 155/202/626 153/135/626 299/137/626
f 264/523/627 295/524/627 292/526/627
f 156/209/628 303/541/628 300/528/628
f 271/138/629 280/535/629 320/529/629
f 145/185/630 287/518/630 290/531/630
f 263/527/631 292/526/631 289/532/631
f 279/534/632 319/539/632 320/529/632
f 146/191/633 148/190/633 291/469/633
f 262/533/634 289/532/634 286/536/634
f 157/206/635 155/202/635 302/525/635
f 278/538/636 318/542/636 319/539/636
f 261/537/637 286/536/637 311/540/637
f 158/213/638 306/465/638 303/541/638
f 277/471/639 317/470/639 318/542/639
f 149/193/640 147/188/640 290/531/640
f 329/263/641 322/262/641 321/260/641
f 391/543/642 330/250/642 324/544/642
f 331/545/643 326/596/643 325/347/643
f 332/547/644 328/352/644 327/309/644
f 399/270/645 333/613/645 329/263/645
f 390/548/646 334/619/646 330/250/646
f 335/549/647 331/545/647 382/546/647
f 336/551/648 332/547/648 373/317/648
f 398/286/649 337/561/649 333/552/649
f 389/553/650 338/350/650 334/554/650
f 380/556/651 339/343/651 335/557/651
f 340/338/652 336/656/652 372/559/652
f 397/290/653 341/565/653 337/561/653
f 388/562/654 342/327/654 338/350/654
f 343/319/655 339/343/655 380/556/655
f 370/336/656 344/312/656 340/338/656
f 396/564/657 345/332/657 341/565/657
f 346/328/658 342/327/658 388/562/658
f 378/567/659 347/575/659 343/568/659
f 348/313/660 344/312/660 370/336/660
f 395/570/661 349/304/661 345/571/661
f 350/298/662 346/790/662 387/572/662
f 377/574/663 351/292/663 347/575/663
f 352/288/664 348/287/664 369/576/664
f 353/284/665 349/283/665 395/302/665
f 354/274/666 350/787/666 386/254/666
f 376/578/667 355/829/667 351/579/667
f 367/581/668 356/256/668 352/288/668
f 357/582/669 353/284/669 394/301/669
f 358/583/670 354/274/670 385/253/670
f 359/584/671 355/829/671 376/578/671
f 366/586/672 360/595/672 356/587/672
f 361/589/673 357/582/673 393/307/673
f 362/591/674 358/583/674 384/265/674
f 374/593/675 363/830/675 359/584/675
f 365/594/676 364/831/676 360/595/676
f 322/262/677 361/646/677 392/322/677
f 324/544/678 362/654/678 383/281/678
f 326/596/679 363/832/679 374/597/679
f 327/309/680 328/352/680 364/598/680
f 192/600/681 196/282/681 353/284/681
f 246/601/682 245/833/682 386/573/682
f 183/602/683 326/662/683 331/603/683
f 195/275/684 354/274/684 358/583/684
f 247/606/685 246/601/685 387/572/685
f 184/353/686 328/352/686 332/547/686
f 194/268/687 355/267/687 359/609/687
f 247/611/688 388/562/688 389/553/688
f 220/261/689 329/263/689 333/613/689
f 232/615/690 231/348/690 325/347/690
f 193/616/691 356/587/691 360/595/691
f 248/612/692 389/553/692 390/555/692
f 219/251/693 330/250/693 334/619/693
f 232/621/694 374/593/694 375/585/694
f 188/623/695 192/600/695 357/582/695
f 250/624/696 249/834/696 390/548/696
f 214/625/697 218/604/697 331/603/697
f 234/627/698 233/622/698 375/585/698
f 187/628/699 191/605/699 358/583/699
f 250/624/700 391/543/700 323/280/700
f 217/608/701 332/547/701 336/551/701
f 235/631/702 234/835/702 376/632/702
f 190/610/703 359/609/703 363/633/703
f 216/635/704 333/552/704 337/561/704
f 236/637/705 235/631/705 377/574/705
f 185/638/706 189/836/706 360/639/706
f 211/641/707 215/837/707 334/642/707
f 236/637/708 378/567/708 379/569/708
f 181/645/709 188/838/709 361/646/709
f 210/647/710 214/625/710 335/626/710
f 237/649/711 379/563/711 380/556/711
f 221/651/712 327/839/712 365/652/712
f 182/249/713 187/840/713 362/654/713
f 209/655/714 213/841/714 336/656/714
f 238/657/715 380/842/715 381/658/715
f 222/653/716 365/652/716 366/660/716
f 183/602/717 186/634/717 363/633/717
f 208/331/718 212/636/718 337/561/718
f 240/346/719 239/843/719 381/550/719
f 223/661/720 366/660/720 367/345/720
f 165/664/140 401/668/140 402/665/140
f 174/667/140 403/670/140 401/668/140
f 174/667/140 176/672/140 404/669/140
f 166/671/140 405/674/140 404/669/140
f 162/673/140 406/676/140 405/674/140
f 162/673/140 164/677/140 407/675/140
f 164/677/140 178/680/140 408/678/140
f 180/679/140 409/682/140 408/678/140
f 163/681/140 410/683/140 409/682/140
f 163/681/140 161/666/140 402/665/140
f 411/684/140 412/844/140 420/685/140
f 414/687/140 413/691/140 415/688/140
f 415/688/140 412/844/140 411/684/140
f 414/687/140 418/845/140 417/690/140
f 442/692/721 430/360/721 415/362/721
f 445/694/722 436/357/722 419/359/722
f 448/696/363 439/354/363 414/356/363
f 429/363/364 442/846/364 413/698/364
f 423/700/365 445/694/365 420/695/365
f 435/702/366 448/696/366 416/697/366
f 162/704/142 450/721/142 433/705/142
f 433/705/367 450/721/367 449/707/367
f 449/707/368 448/696/368 435/702/368
f 180/709/133 447/712/133 421/710/133
f 447/712/369 446/714/369 422/713/369
f 446/714/370 445/694/370 423/700/370
f 165/715/129 444/726/129 427/716/129
f 427/716/371 444/726/371 443/718/371
f 443/718/372 442/846/372 429/363/372
f 166/720/135 441/743/135 450/721/135
f 450/721/373 441/743/373 440/722/373
f 440/722/374 439/354/374 448/696/374
f 178/723/148 438/724/148 447/712/148
f 438/724/375 437/740/375 446/714/375
f 446/714/723 437/740/723 436/357/723
f 161/725/137 432/727/137 444/726/137
f 432/727/377 431/847/377 443/718/377
f 443/728/724 431/736/724 430/360/724
f 174/717/143 427/716/143 426/729/143
f 426/729/379 427/716/379 428/719/379
f 428/719/380 429/363/380 424/365/380
f 163/732/144 421/735/144 432/733/144
f 421/735/381 422/737/381 431/736/381
f 422/737/382 423/797/382 430/360/382
f 164/738/146 433/739/146 438/724/146
f 433/739/383 434/848/383 437/740/383
f 437/740/384 434/848/384 435/741/384
f 176/742/149 426/849/149 441/743/149
f 441/743/385 426/849/385 425/744/385
f 425/744/386 424/796/386 439/354/386
f 189/745/387 273/850/387 274/746/387
f 217/748/725 280/851/725 271/749/725
f 272/751/726 273/850/726 189/745/726
f 272/753/727 185/852/727 184/750/727
f 193/754/728 274/853/728 275/755/728
f 275/755/729 276/854/729 201/757/729
f 276/758/730 277/761/730 205/759/730
f 277/761/731 278/763/731 209/762/731
f 278/763/395 279/855/395 213/764/395
f 279/765/732 280/851/732 217/748/732
