# Blender 4.2.1 LTS
# www.blender.org
mtllib can_1_closed.mtl
g can_1_closed_Mesh
v -0.000194 0.000065 -0.051605
v -0.000194 0.151746 -0.047518
v 0.028792 0.000065 -0.041855
v 0.028792 0.151746 -0.038100
v 0.046707 0.000065 -0.016329
v 0.046707 0.151746 -0.013443
v 0.046707 0.000065 0.015222
v 0.046707 0.151746 0.017035
v 0.028792 0.000065 0.040747
v 0.028792 0.151746 0.041692
v -0.000194 0.000065 0.050497
v -0.000194 0.151746 0.051111
v -0.029180 0.000065 0.040747
v -0.029180 0.151746 0.041692
v -0.047095 0.000065 0.015222
v -0.047095 0.151746 0.017035
v -0.047095 0.000065 -0.016329
v -0.047095 0.151746 -0.013443
v -0.029180 0.000065 -0.041855
v -0.029180 0.151746 -0.038100
v -0.000194 0.000065 -0.055992
v 0.031284 0.000065 -0.045404
v 0.031284 0.151746 -0.041529
v -0.000194 0.151746 -0.051756
v 0.050738 0.000065 -0.017685
v 0.050738 0.151746 -0.014752
v 0.050738 0.000065 0.016578
v 0.050738 0.151746 0.018345
v 0.031284 0.000065 0.044297
v 0.031284 0.151746 0.045122
v -0.000194 0.000065 0.054885
v -0.000194 0.151746 0.055349
v -0.031672 0.000065 0.044297
v -0.031672 0.151746 0.045122
v -0.051126 0.000065 0.016578
v -0.051126 0.151746 0.018345
v -0.051126 0.000065 -0.017685
v -0.051126 0.151746 -0.014752
v -0.031672 0.000065 -0.045404
v -0.031672 0.151746 -0.041529
v -0.000194 0.001972 0.050497
v -0.000194 0.001972 -0.051605
v 0.028792 0.001972 0.040747
v 0.028792 0.001972 -0.041855
v -0.029180 0.001972 0.040747
v -0.029180 0.001972 -0.041855
v 0.046707 0.001972 -0.016329
v 0.046707 0.001972 0.015222
v -0.047095 0.001972 0.015222
v -0.047095 0.001972 -0.016329
v 0.031592 0.003450 -0.044312
v 0.031592 0.004008 0.044395
v -0.031069 0.003332 0.044395
v -0.031069 0.002774 -0.044312
v -0.000194 0.146773 -0.050758
v 0.030495 0.146185 0.045243
v -0.051031 0.146773 0.018517
v -0.000195 0.000473 -0.057340
v 0.032057 0.000325 -0.046551
v 0.032100 0.151515 -0.042652
v -0.000196 0.151451 -0.053133
v -0.000192 0.146478 -0.052135
v 0.032481 0.003673 -0.045381
v 0.052071 0.000130 -0.018134
v 0.052067 0.151635 -0.015203
v 0.052087 0.003728 -0.017737
v 0.052085 0.000025 0.016986
v 0.052077 0.151695 0.018775
v 0.052075 0.003627 0.017226
v 0.032115 0.000000 0.045432
v 0.032136 0.151704 0.046242
v 0.032445 0.003942 0.045513
v -0.000197 0.000047 0.056293
v -0.000195 0.151734 0.056757
v -0.000194 0.003652 0.056348
v -0.032547 0.000107 0.045399
v -0.032537 0.151671 0.046230
v -0.031872 0.003368 0.045551
v -0.052471 0.000098 0.016993
v -0.052464 0.151674 0.018777
v -0.052462 0.003705 0.017230
v -0.052450 0.000228 -0.018137
v -0.052452 0.151608 -0.015205
v -0.052468 0.003814 -0.017737
v -0.032471 0.000447 -0.046499
v -0.032494 0.151471 -0.042638
v -0.031893 0.003150 -0.045390
v -0.000192 0.004078 -0.056484
v 0.031300 0.145952 -0.041809
v 0.051978 0.146665 -0.014952
v 0.051975 0.146721 0.018970
v 0.031291 0.146148 0.046404
v -0.000191 0.146761 0.056860
v -0.031357 0.146994 0.046415
v -0.052362 0.146699 0.018968
v -0.052364 0.146640 -0.014950
v -0.031367 0.146779 -0.041811
v 0.018851 0.149839 -0.003617
v 0.010768 0.149839 0.011649
v -0.000194 0.149839 0.016565
v -0.011156 0.149839 0.011649
v -0.019239 0.149839 -0.003617
v 0.046707 0.149839 0.017035
v 0.028792 0.149839 0.041692
v -0.000194 0.149839 0.051111
v -0.029180 0.149839 0.041692
v -0.047095 0.149839 0.017035
v 0.028792 0.149839 -0.038100
v -0.000194 0.149839 -0.047518
v 0.046707 0.149839 -0.013443
v -0.029180 0.149839 -0.038100
v -0.047095 0.149839 -0.013443
v -0.011196 0.153707 -0.006103
v -0.011009 0.153707 -0.001045
v 0.010622 0.153707 -0.001045
v 0.010808 0.153707 -0.006103
v -0.003687 0.153707 -0.022348
v -0.006599 0.153707 0.005414
v 0.023051 0.149839 -0.005109
v 0.016541 0.149839 0.019641
v -0.000194 0.149839 0.025121
v -0.016929 0.149839 0.019641
v -0.023439 0.149839 -0.005109
v -0.000194 0.153707 -0.019675
v -0.000194 0.153707 0.007618
v 0.006211 0.153707 0.005414
v 0.003300 0.153707 -0.022348
v 0.007649 0.152134 -0.032396
v 0.010312 0.152134 0.009253
v -0.000194 0.152134 0.014169
v -0.000194 0.152134 -0.037312
v -0.010700 0.152134 0.009253
v -0.008037 0.152134 -0.032396
v 0.009663 0.152134 -0.025470
v 0.016806 0.152134 -0.003617
v -0.017194 0.152134 -0.003617
v -0.010050 0.152134 -0.025470
v -0.000194 0.153707 -0.029835
v -0.003780 0.153707 -0.027605
v -0.008463 0.153707 -0.025470
v -0.014455 0.153707 -0.003617
v -0.009008 0.153707 0.006791
v -0.000194 0.153707 0.011707
v 0.008620 0.153707 0.006791
v 0.014067 0.153707 -0.003617
v 0.008075 0.153707 -0.025470
v 0.003393 0.153707 -0.027605
v -0.005700 0.151654 0.004096
v -0.005368 0.151654 -0.012621
v -0.000194 0.151654 0.005990
v -0.000194 0.151654 -0.014207
v 0.004980 0.151654 -0.012621
v 0.005312 0.151654 0.004096
v -0.009652 0.151654 -0.005805
v -0.009492 0.151654 -0.001456
v 0.009104 0.151654 -0.001456
v 0.009264 0.151654 -0.005805
v -0.000194 0.153707 -0.034500
v -0.006774 0.153707 -0.029584
v 0.006386 0.153707 -0.029584
v -0.000194 0.153707 -0.015876
v -0.006213 0.153707 -0.014032
v 0.005825 0.153707 -0.014032
v -0.000194 0.152125 -0.020645
v -0.000194 0.152125 -0.028919
v -0.003115 0.152125 -0.027103
v 0.002727 0.152125 -0.027103
v -0.003039 0.152125 -0.022822
v 0.002651 0.152125 -0.022822
v -0.008632 0.149358 -0.034421
v -0.000194 0.149358 -0.039337
v 0.008244 0.149358 -0.034421
v 0.023655 0.149719 -0.036332
v 0.013381 0.149478 -0.035910
v -0.000194 0.149478 -0.041952
v -0.000194 0.149719 -0.044625
v -0.024043 0.149719 -0.036332
v -0.013769 0.149478 -0.035910
v 0.011905 0.149839 -0.023907
v 0.010961 0.149782 -0.028057
v 0.010878 0.150462 -0.025470
v -0.011349 0.149782 -0.028057
v -0.012293 0.149839 -0.023907
v -0.011266 0.150462 -0.025470
v 0.030699 0.149839 -0.009573
v 0.035551 0.149839 -0.009842
v 0.037255 0.149839 0.010781
v 0.032140 0.149839 0.009724
v 0.025707 0.149839 0.034022
v 0.022822 0.149839 0.028382
v -0.000194 0.149839 0.043415
v -0.000194 0.149839 0.037136
v -0.026095 0.149839 0.034022
v -0.023210 0.149839 0.028382
v -0.037643 0.149839 0.010781
v -0.032528 0.149839 0.009724
v -0.035938 0.149839 -0.009842
v -0.031087 0.149839 -0.009573
v 0.020305 0.149839 -0.020946
v 0.019551 0.149808 -0.025660
v -0.020693 0.149839 -0.020946
v -0.019939 0.149808 -0.025660
v 0.012950 0.149614 -0.024426
v 0.012146 0.149557 -0.026536
v -0.012534 0.149557 -0.026536
v -0.013338 0.149614 -0.024426
v -0.020691 0.149614 -0.021855
v -0.019937 0.149582 -0.023984
v -0.033487 0.149614 -0.009841
v -0.032427 0.149614 -0.009572
v -0.035076 0.149614 0.010781
v -0.033932 0.149614 0.009724
v -0.025030 0.149614 0.031615
v -0.024209 0.149614 0.029951
v -0.000194 0.149614 0.041008
v -0.000194 0.149614 0.039046
v 0.024642 0.149614 0.031615
v 0.023821 0.149614 0.029951
v 0.034688 0.149614 0.010781
v 0.033544 0.149614 0.009724
v 0.033099 0.149614 -0.009841
v 0.032039 0.149614 -0.009572
v 0.020303 0.149614 -0.021855
v 0.019550 0.149582 -0.023984
v -0.000194 0.044128 -0.048788
v -0.003410 0.063035 -0.040558
v 0.002774 0.086727 -0.041197
v -0.000194 0.108133 -0.045668
v 0.026473 0.105608 -0.036336
v 0.030176 0.089021 -0.033293
v 0.030176 0.065704 -0.031099
v 0.033881 0.042939 -0.036211
v 0.050158 0.108133 -0.013327
v 0.048945 0.086235 -0.011696
v 0.048945 0.065704 -0.011696
v 0.050738 0.044128 -0.014752
v 0.050158 0.108133 0.019394
v 0.048945 0.086235 0.020236
v 0.048945 0.065704 0.020236
v 0.050738 0.044128 0.018345
v 0.026473 0.105608 0.045865
v 0.030176 0.086235 0.047237
v 0.030176 0.065704 0.047237
v 0.033881 0.045951 0.045122
v -0.000194 0.108133 0.055977
v 0.002774 0.086727 0.058215
v -0.003410 0.063035 0.058215
v -0.000194 0.044128 0.055349
v -0.025006 0.109352 0.045865
v -0.030564 0.086235 0.048347
v -0.030564 0.065704 0.048347
v -0.026601 0.042305 0.045122
v -0.050546 0.108133 0.019394
v -0.049333 0.086235 0.020236
v -0.049333 0.065704 0.020236
v -0.051126 0.044128 0.018345
v -0.050546 0.108133 -0.013327
v -0.049333 0.086235 -0.011696
v -0.049333 0.065704 -0.011696
v -0.051126 0.044128 -0.014752
v -0.025006 0.109352 -0.036336
v -0.030564 0.089021 -0.035205
v -0.030564 0.065704 -0.031099
v -0.026601 0.039292 -0.036211
v 0.000139 0.104450 -0.045167
v 0.026888 0.102597 -0.035995
v 0.050022 0.104395 -0.013144
v 0.050022 0.104395 0.019488
v 0.026888 0.102285 0.046019
v 0.000139 0.104450 0.056227
v -0.025628 0.105413 0.046143
v -0.050410 0.104395 0.019488
v -0.050410 0.104395 -0.013144
v -0.025628 0.105725 -0.036209
v 0.002156 0.083100 -0.041133
v 0.030176 0.085405 -0.033074
v 0.048945 0.082930 -0.011696
v 0.048945 0.082930 0.020236
v 0.030176 0.082930 0.047237
v 0.002156 0.083100 0.058215
v -0.030564 0.082930 0.048347
v -0.049333 0.082930 0.020236
v -0.049333 0.082930 -0.011696
v -0.030564 0.085405 -0.034794
v -0.003071 0.059491 -0.041424
v 0.030565 0.061707 -0.031636
v 0.049133 0.061832 -0.012017
v 0.049133 0.061832 0.020037
v 0.030565 0.062024 0.047015
v -0.003071 0.059491 0.057914
v -0.030147 0.061640 0.048008
v -0.049521 0.061832 0.020037
v -0.049521 0.061832 -0.012017
v -0.030147 0.061324 -0.031636
v 0.033625 0.039156 -0.037116
v 0.050738 0.040333 -0.015041
v 0.050738 0.040333 0.018171
v 0.033625 0.042139 0.045040
v -0.000194 0.040333 0.055303
v -0.027100 0.038528 0.045040
v -0.051126 0.040333 0.018171
v -0.051126 0.040333 -0.015041
v -0.027100 0.035545 -0.037116
v -0.000194 0.040333 -0.049498
v 0.050738 0.003670 -0.017336
v 0.050738 0.003670 0.016788
v -0.000194 0.003670 0.054940
v -0.051126 0.003670 0.016788
v -0.051126 0.003670 -0.017336
v -0.000194 0.003670 -0.055136
v 0.030495 0.146185 -0.040678
v 0.050642 0.146773 -0.014519
v 0.050642 0.146773 0.018517
v -0.000194 0.146773 0.055452
v -0.030579 0.147057 0.045243
v -0.051031 0.146773 -0.014519
v -0.030579 0.147057 -0.040678
v -0.000083 0.040940 -0.049181
v -0.000146 0.043047 -0.048454
v -0.003096 0.059998 -0.040934
v -0.003379 0.061988 -0.040054
v 0.002154 0.083827 -0.040612
v 0.002706 0.086228 -0.040681
v 0.000108 0.105088 -0.044718
v -0.000124 0.107462 -0.045229
v -0.026218 0.037760 -0.035870
v -0.030209 0.064950 -0.030636
v -0.030291 0.088655 -0.034754
v -0.024659 0.108633 -0.035908
v -0.050543 0.043211 -0.014610
v -0.048721 0.064987 -0.011507
v -0.048712 0.085670 -0.011524
v -0.049976 0.107393 -0.013094
v -0.050533 0.043296 0.018096
v -0.048693 0.065054 0.020093
v -0.048685 0.085650 0.020115
v -0.049948 0.107360 0.019161
v -0.026216 0.041290 0.044706
v -0.030109 0.065141 0.048084
v -0.030164 0.085636 0.048030
v -0.024597 0.108522 0.045472
v -0.000178 0.043324 0.054897
v -0.003391 0.062262 0.057819
v 0.002700 0.086179 0.057815
v -0.000139 0.107293 0.055543
v 0.033491 0.045358 0.044770
v 0.029775 0.065051 0.046894
v 0.029730 0.085667 0.046928
v 0.026060 0.104783 0.045481
v 0.050105 0.043341 0.018182
v 0.048297 0.065000 0.020088
v 0.048290 0.085650 0.020103
v 0.049534 0.107376 0.019199
v 0.050107 0.043271 -0.014694
v 0.048323 0.064945 -0.011518
v 0.048322 0.085661 -0.011498
v 0.049557 0.107416 -0.013142
v 0.033481 0.041861 -0.035906
v 0.029881 0.064863 -0.030613
v 0.029846 0.088653 -0.032838
v 0.026141 0.104918 -0.035908
v 0.026494 0.103090 -0.035602
v 0.049424 0.104982 -0.012945
v 0.049416 0.104937 0.019244
v 0.026450 0.102634 0.045658
v 0.000080 0.104915 0.055798
v -0.025200 0.105951 0.045773
v -0.049814 0.104925 0.019248
v -0.049822 0.104961 -0.012947
v -0.025240 0.106385 -0.035808
v 0.029828 0.086296 -0.032626
v 0.048307 0.083600 -0.011539
v 0.048290 0.083590 0.020103
v 0.029727 0.083607 0.046931
v 0.002171 0.083773 0.057811
v -0.030161 0.083576 0.048033
v -0.048685 0.083590 0.020115
v -0.048699 0.083609 -0.011561
v -0.030252 0.086299 -0.034359
v 0.030292 0.062438 -0.031152
v 0.048531 0.062656 -0.011804
v 0.048476 0.062713 0.019922
v 0.030131 0.062971 0.046697
v -0.003118 0.060272 0.057510
v -0.029726 0.062649 0.047707
v -0.048873 0.062763 0.019925
v -0.048930 0.062701 -0.011790
v -0.029863 0.062093 -0.031137
v 0.033317 0.039865 -0.036764
v 0.050130 0.041161 -0.014924
v 0.050092 0.041234 0.018050
v 0.033252 0.043056 0.044672
v -0.000129 0.041218 0.054852
v -0.026666 0.039381 0.044662
v -0.050530 0.041192 0.017927
v -0.050611 0.041080 -0.014770
v -0.026726 0.036178 -0.036790
v -0.000206 0.043108 -0.051993
v -0.003429 0.061278 -0.043368
v 0.002608 0.083857 -0.043552
v -0.000030 0.104266 -0.048052
v 0.028229 0.102177 -0.038263
v 0.031928 0.086052 -0.035108
v 0.032134 0.063610 -0.033186
v 0.035713 0.041978 -0.038789
v 0.052998 0.104240 -0.014002
v 0.051787 0.083541 -0.012372
v 0.051886 0.063670 -0.012542
v 0.053684 0.043108 -0.015759
v 0.052998 0.104240 0.020572
v 0.051787 0.083541 0.021414
v 0.051886 0.063670 0.021309
v 0.053684 0.043108 0.019321
v 0.028229 0.102028 0.048613
v 0.031928 0.083541 0.049983
v 0.032134 0.063761 0.049865
v 0.035713 0.044840 0.047701
v -0.000033 0.104599 0.057770
v 0.002608 0.083857 0.061598
v -0.003429 0.061278 0.061439
v -0.000206 0.043108 0.058542
v -0.026787 0.105308 0.048678
v -0.032338 0.083541 0.051157
v -0.032118 0.063578 0.050978
v -0.028410 0.041376 0.047701
v -0.053409 0.104240 0.020572
v -0.052198 0.083541 0.021414
v -0.052297 0.063670 0.021309
v -0.054094 0.043108 0.019321
v -0.053409 0.104240 -0.014002
v -0.052198 0.083541 -0.012372
v -0.052297 0.063670 -0.012542
v -0.054094 0.043108 -0.015759
v -0.026787 0.105457 -0.038376
v -0.032338 0.086052 -0.037029
v -0.032118 0.063427 -0.033186
v -0.028410 0.038514 -0.038789
v 0.032595 0.033220 -0.045719
v 0.052349 0.033426 -0.017887
v 0.052349 0.033426 0.017321
v 0.032595 0.033740 0.045805
v -0.000201 0.033426 0.056685
v -0.032056 0.033111 0.045805
v -0.052750 0.033426 0.017321
v -0.052750 0.033426 -0.017887
v -0.032056 0.032591 -0.045719
v -0.000201 0.033426 -0.056887
v -0.000203 0.116202 -0.051823
v 0.031270 0.115658 -0.041485
v 0.051933 0.116202 -0.014657
v 0.051933 0.116202 0.019223
v 0.031270 0.115658 0.046633
v -0.000203 0.116202 0.057103
v -0.031365 0.116464 0.046633
v -0.052340 0.116202 0.019223
v -0.052340 0.116202 -0.014657
v -0.031365 0.116464 -0.041485
v -0.052208 0.042918 -0.015011
v -0.050936 0.033042 -0.017056
v -0.027342 0.037849 -0.037215
v -0.000161 0.042324 -0.050148
v -0.030998 0.063339 -0.031483
v -0.003312 0.061047 -0.041347
v -0.031255 0.086131 -0.035302
v 0.002511 0.084031 -0.041523
v -0.025774 0.105761 -0.036637
v -0.000021 0.104662 -0.046059
v -0.050399 0.063604 -0.011798
v -0.050292 0.083582 -0.011647
v -0.051510 0.104302 -0.013260
v -0.052173 0.043187 0.018642
v -0.050364 0.063686 0.020658
v -0.050263 0.083509 0.020768
v -0.051492 0.104182 0.019879
v -0.027291 0.041591 0.046012
v -0.030897 0.063692 0.049348
v -0.031129 0.083407 0.049521
v -0.025719 0.105165 0.046948
v -0.000197 0.043376 0.056523
v -0.003335 0.061411 0.059406
v 0.002496 0.083722 0.059566
v -0.000034 0.104403 0.055741
v 0.034441 0.045046 0.046122
v 0.030929 0.063797 0.048220
v 0.030695 0.083454 0.048360
v 0.027105 0.101866 0.046920
v 0.051737 0.043232 0.018727
v 0.049943 0.063605 0.020693
v 0.049854 0.083524 0.020763
v 0.051077 0.104184 0.019890
v 0.051756 0.042994 -0.015104
v 0.049977 0.063538 -0.011840
v 0.049885 0.083593 -0.011637
v 0.051095 0.104312 -0.013272
v 0.034481 0.041520 -0.037244
v 0.031031 0.063396 -0.031486
v 0.030820 0.086173 -0.033400
v 0.027182 0.102455 -0.036540
v 0.031440 0.034164 0.044191
v 0.050417 0.033772 0.016791
v -0.050818 0.033587 0.016690
v -0.000162 0.033725 0.054673
v -0.000146 0.032427 -0.055174
v -0.031045 0.031647 -0.044289
v 0.050444 0.033430 -0.017158
v 0.031606 0.032582 -0.044082
v -0.030764 0.033233 0.044233
v -0.030240 0.116928 -0.039862
v -0.000169 0.116745 -0.049875
v -0.050459 0.116332 -0.013880
v -0.050419 0.116136 0.018542
v -0.030118 0.116455 0.045019
v -0.000188 0.116106 0.055066
v 0.030048 0.115588 0.045002
v 0.050004 0.116100 0.018569
v 0.050035 0.116271 -0.013913
v 0.030157 0.116037 -0.039828
vn 0.0302 0.9995 -0.0101
vn -0.0115 -0.9995 0.0285
vn -0.0693 -0.9857 0.1536
vn 0.0269 0.9996 0.0031
vn -0.0630 0.9786 -0.1958
vn -0.0574 -0.9959 0.0706
vn 0.0932 0.9946 0.0454
vn -0.0960 -0.9528 -0.2881
vn -0.8090 -0.0000 0.5878
vn 0.0679 0.9756 -0.2090
vn 0.0107 0.9995 0.0299
vn 0.3188 -0.0000 -0.9478
vn 0.8090 -0.0000 0.5878
vn -0.8185 -0.0000 0.5745
vn -0.3090 -0.0000 -0.9511
vn 0.8185 -0.0000 0.5745
vn -0.3090 -0.0000 0.9511
vn -0.3188 -0.0000 -0.9478
vn -0.0000 -1.0000 -0.0000
vn -0.0000 1.0000 -0.0000
vn 0.3188 -0.0000 0.9478
vn 0.3090 -0.0000 -0.9511
vn -1.0000 -0.0000 -0.0000
vn 0.3090 -0.0000 0.9511
vn 0.8185 -0.0000 -0.5745
vn 0.8090 -0.0000 -0.5878
vn -0.8185 -0.0000 -0.5745
vn 1.0000 -0.0000 -0.0000
vn -0.8090 -0.0000 -0.5878
vn -0.3188 -0.0000 0.9478
vn -0.0399 -0.9992 0.0016
vn 0.0705 0.9573 0.2803
vn 0.0609 -0.9816 -0.1812
vn -0.0059 -0.9999 -0.0133
vn -0.0077 -0.9996 -0.0267
vn -0.0832 0.9947 -0.0604
vn -0.0223 -0.9997 -0.0086
vn -0.2277 -0.9592 -0.1678
vn 0.0311 0.9993 0.0223
vn 0.0071 -0.9988 -0.0490
vn 0.3032 -0.1873 -0.9343
vn 0.7921 -0.0449 -0.6087
vn 0.9998 -0.0206 0.0001
vn 0.7952 -0.1034 0.5974
vn 0.3155 0.0198 0.9487
vn -0.3176 0.0193 0.9480
vn -0.7812 -0.1733 0.5997
vn -0.9998 -0.0205 0.0001
vn -0.7869 -0.0455 -0.6154
vn -0.3104 -0.1873 -0.9320
vn -0.2899 0.4156 -0.8621
vn -0.7577 0.3798 -0.5308
vn -1.0000 -0.0050 -0.0006
vn -0.8182 -0.0357 0.5739
vn -0.3190 0.0219 0.9475
vn 0.3186 -0.0147 0.9478
vn 0.8179 -0.0360 0.5742
vn 1.0000 -0.0043 -0.0004
vn 0.8140 0.0971 -0.5726
vn 0.3104 0.2194 -0.9249
vn -0.0028 1.0000 0.0086
vn 0.0391 -0.9989 -0.0274
vn -0.0135 0.9998 0.0134
vn 0.1367 0.9852 -0.1038
vn 0.0086 0.9986 0.0528
vn -0.0197 -0.9997 0.0141
vn 0.0297 0.9995 0.0084
vn -0.0448 0.9985 0.0326
vn 0.0598 -0.9761 0.2090
vn -0.0301 -0.9995 -0.0000
vn -0.0426 0.9991 -0.0000
vn 0.1698 -0.9779 0.1222
vn 0.0826 0.9966 -0.0018
vn -0.1388 0.9862 0.0904
vn -0.1205 -0.9927 -0.0037
vn 0.0993 -0.9951 -0.0000
vn -0.0915 0.9533 0.2880
vn -0.0541 0.9985 -0.0000
vn 0.0472 -0.9986 -0.0255
vn -0.0396 -0.9988 -0.0286
vn -0.2604 0.5997 -0.7567
vn -0.6891 0.5810 0.4331
vn 0.6891 0.5810 0.4331
vn 0.2604 0.5997 -0.7567
vn 0.2962 0.6898 0.6606
vn 0.7362 0.5532 0.3898
vn 0.0072 0.9993 -0.0364
vn 0.0045 1.0000 -0.0066
vn -0.0399 0.9952 0.0897
vn 0.7724 0.5828 -0.2525
vn -0.7022 0.6938 -0.1598
vn -0.6986 0.6226 0.3525
vn -0.0145 0.9990 0.0416
vn 0.0399 0.9952 0.0897
vn -0.2952 0.7175 0.6309
vn 0.0268 0.9986 0.0460
vn -0.4820 0.8391 0.2523
vn -0.2926 0.8346 -0.4668
vn 0.4916 0.8558 -0.1607
vn -0.2277 0.8840 0.4083
vn 0.4596 0.8573 0.2319
vn 0.2773 0.8862 -0.3711
vn -0.6911 0.6975 -0.1895
vn 0.2443 0.8172 0.5221
vn 0.6762 0.6825 -0.2776
vn -0.5940 0.7857 -0.1727
vn 0.5463 0.4379 -0.7140
vn 0.9234 0.3834 -0.0164
vn 0.8010 0.5979 -0.0296
vn -0.2313 0.6138 0.7549
vn -0.6691 0.5862 -0.4569
vn 0.6691 0.5862 -0.4569
vn 0.2313 0.6138 0.7548
vn -0.8010 0.5980 -0.0296
vn 0.4739 0.4411 0.7622
vn -0.9234 0.3834 -0.0164
vn -0.5463 0.4380 -0.7140
vn -0.4738 0.4410 0.7622
vn -0.4286 0.5905 -0.6838
vn 0.4259 0.5331 -0.7311
vn 0.0380 0.9980 -0.0503
vn 0.0145 0.9990 0.0416
vn -0.7724 0.5828 -0.2525
vn -0.0268 0.9986 0.0460
vn -0.0045 1.0000 -0.0066
vn 0.6369 0.7020 -0.3187
vn 0.6827 0.7118 -0.1652
vn -0.6827 0.7118 -0.1652
vn 0.1325 0.9823 0.1321
vn 0.0436 0.9924 0.1147
vn 0.0864 0.9656 -0.2451
vn 0.0874 0.9953 -0.0421
vn 0.1658 0.9861 -0.0124
vn -0.1584 0.9873 -0.0124
vn -0.0912 0.9922 0.0851
vn -0.0338 0.9951 -0.0931
vn -0.1667 0.9819 -0.0904
vn 0.2447 0.9410 -0.2338
vn -0.0209 0.9995 -0.0223
vn 0.0068 0.9995 -0.0299
vn -0.0068 0.9995 -0.0299
vn 0.0209 0.9995 -0.0223
vn -0.0991 0.9939 -0.0492
vn -0.1272 0.9900 0.0611
vn -0.0494 0.9899 0.1332
vn 0.2808 0.9567 -0.0772
vn 0.0302 0.9963 -0.0799
vn 0.0556 0.9805 0.1885
vn -0.1640 0.9750 -0.1499
vn 0.1579 0.9843 0.0789
vn -0.0839 0.9672 -0.2399
vn 0.0915 0.9958 0.0071
vn -0.0874 0.9961 0.0072
vn -0.0443 0.9921 0.1170
vn -0.3152 -0.5998 -0.7355
vn 0.7195 0.4939 0.4882
vn 0.6091 -0.6274 0.4852
vn -0.4393 0.4774 -0.7610
vn -0.3682 -0.2883 -0.8839
vn 0.8014 0.5981 0.0003
vn 0.5669 -0.7234 0.3941
vn -0.4677 0.6071 -0.6424
vn 0.5907 0.5782 -0.5628
vn 0.6176 -0.6589 0.4293
vn -0.8229 0.5682 -0.0000
vn 0.1869 0.5906 -0.7851
vn 0.6475 -0.6141 0.4512
vn -0.5922 0.5716 0.5679
vn 0.2646 -0.5126 0.8168
vn -0.3349 0.5187 0.7867
vn 0.2823 -0.6197 0.7323
vn 0.2417 0.4268 0.8715
vn 0.2943 -0.5802 0.7594
vn 0.7537 0.4849 0.4436
vn 0.2571 -0.6126 0.7474
vn 0.8124 0.5831 -0.0003
vn -0.2501 0.5490 -0.7975
vn -0.3597 -0.4468 0.8191
vn 0.6458 0.5497 -0.5299
vn -0.5397 0.6458 -0.5401
vn -0.2293 -0.5534 0.8008
vn 0.3108 0.5283 -0.7902
vn -0.6938 0.7202 0.0010
vn -0.3494 -0.4336 0.8306
vn -0.4957 0.7534 0.4321
vn -0.2895 -0.4735 0.8319
vn -0.2478 0.6752 0.6948
vn -0.5817 -0.5647 0.5854
vn 0.3177 0.6642 0.6767
vn -0.6357 -0.6468 0.4214
vn 0.3591 0.8496 0.3863
vn -0.1157 0.5784 -0.8075
vn -0.6083 -0.6820 0.4060
vn 0.2396 -0.5139 -0.8237
vn 0.2844 -0.1204 -0.9511
vn 0.7450 -0.0968 -0.6600
vn 0.9982 -0.0592 -0.0000
vn 0.8033 0.2070 0.5584
vn 0.3702 0.1455 0.9175
vn -0.2816 0.1808 0.9424
vn -0.8314 -0.0264 0.5551
vn -0.9982 -0.0592 -0.0000
vn -0.7723 -0.0959 -0.6280
vn -0.1774 -0.0068 -0.9841
vn 0.2773 -0.1043 -0.9551
vn 0.7187 -0.0000 -0.6953
vn 0.8211 -0.0000 0.5708
vn 0.3158 -0.0876 0.9448
vn -0.3415 -0.0000 0.9399
vn -0.8317 -0.0000 0.5553
vn -0.7187 -0.0000 -0.6953
vn -0.3391 -0.1734 -0.9246
vn 0.3411 0.2790 -0.8977
vn 0.7476 0.2790 -0.6027
vn 0.9959 0.0903 -0.0000
vn 0.8468 0.0260 0.5313
vn 0.2897 -0.0528 0.9557
vn -0.3396 -0.2164 0.9153
vn -0.7374 0.0023 0.6755
vn -0.9959 0.0903 -0.0000
vn -0.6517 0.0522 -0.7566
vn -0.4545 0.3144 -0.8334
vn 0.3199 0.1440 -0.9364
vn 0.8132 0.0701 -0.5777
vn 0.8214 -0.0215 0.5699
vn 0.3149 -0.0094 0.9491
vn -0.3233 0.0191 0.9461
vn -0.8090 -0.0222 0.5874
vn -0.7787 0.2231 -0.5864
vn -0.3274 0.2403 -0.9138
vn -0.4306 0.5532 -0.7132
vn -0.2976 0.3506 -0.8880
vn -0.1990 -0.1650 -0.9660
vn -0.3293 0.0434 -0.9432
vn -0.5025 0.5496 -0.6674
vn -0.7112 0.0371 -0.7020
vn -0.7777 0.0061 -0.6286
vn -0.6757 -0.0873 -0.7320
vn -0.9995 0.0314 0.0023
vn -0.9959 0.0908 0.0016
vn -1.0000 -0.0065 0.0004
vn -0.9985 -0.0550 0.0002
vn -0.7468 -0.0543 0.6629
vn -0.8231 0.0232 0.5674
vn -0.8332 -0.0008 0.5529
vn -0.7326 -0.0161 0.6804
vn -0.3616 0.0638 0.9302
vn -0.3543 -0.1908 0.9154
vn -0.2895 0.0007 0.9572
vn -0.3655 0.0658 0.9285
vn 0.2924 -0.0134 0.9562
vn 0.3118 -0.0366 0.9495
vn 0.3656 -0.0819 0.9272
vn 0.3659 0.1422 0.9197
vn 0.8433 -0.0390 0.5361
vn 0.8248 0.0238 0.5649
vn 0.8223 -0.0004 0.5690
vn 0.7332 0.1870 0.6538
vn 0.9999 0.0106 0.0011
vn 0.9959 0.0902 0.0016
vn 1.0000 -0.0077 0.0005
vn 0.9988 -0.0485 0.0002
vn 0.7712 0.1967 -0.6054
vn 0.7000 0.2657 -0.6629
vn 0.7525 0.0073 -0.6585
vn 0.7036 -0.0953 -0.7042
vn 0.3395 0.3161 -0.8859
vn 0.2266 0.4208 -0.8784
vn 0.2837 -0.0925 -0.9544
vn 0.3185 -0.0964 -0.9430
vn 0.8053 -0.5929 0.0013
vn 0.2415 0.4565 0.8563
vn -0.1571 -0.8113 -0.5632
vn 0.7732 -0.6341 -0.0000
vn -0.2891 0.3827 0.8775
vn -0.3089 -0.5925 -0.7440
vn 0.6776 -0.7354 -0.0000
vn -0.6906 0.5392 0.4820
vn -0.6262 -0.4919 -0.6049
vn 0.1983 0.5015 -0.8421
vn 0.7661 -0.6427 -0.0000
vn -0.8266 0.5628 -0.0000
vn -0.5619 -0.6235 -0.5436
vn 0.5944 0.6704 -0.4442
vn 0.7266 -0.4231 -0.5414
vn -0.5685 0.5848 -0.5786
vn -0.5067 -0.7075 -0.4927
vn 0.7095 0.7047 0.0006
vn 0.6035 -0.5466 -0.5805
vn -0.2104 0.6739 -0.7082
vn -0.5222 -0.5948 -0.6112
vn 0.6414 0.6260 0.4434
vn 0.3562 -0.8360 -0.4174
vn -0.8147 -0.5799 -0.0000
vn 0.3245 0.4812 0.8144
vn 0.5839 -0.6119 -0.5335
vn -0.7119 -0.7023 0.0021
vn -0.2449 0.5436 0.8028
vn 0.3288 -0.2659 -0.9062
vn -0.6706 -0.7419 0.0001
vn -0.6125 0.6764 0.4090
vn 0.2686 0.7222 -0.6374
vn 0.2817 -0.4089 -0.8680
vn -0.7906 -0.6124 0.0001
vn -0.7304 0.6830 -0.0000
vn 0.4868 0.6814 -0.5465
vn 0.2529 -0.7120 -0.6550
vn -0.6636 -0.4847 0.5698
vn -0.7035 0.4939 -0.5110
vn 0.6667 0.7453 -0.0000
vn 0.9999 -0.0125 -0.0000
vn 0.7467 -0.0639 0.6621
vn -0.9999 -0.0125 -0.0000
vn 0.6974 -0.1442 -0.7021
vn 0.3075 -0.1243 -0.9434
vn 0.3528 -0.0206 0.9355
vn -0.6682 -0.0313 -0.7433
vn -0.7143 -0.0941 0.6935
vn -0.3768 0.0126 0.9262
vn -0.3546 -0.1221 -0.9270
vn 0.2831 -0.1212 -0.9514
vn 0.7444 -0.0956 -0.6608
vn 0.9983 -0.0584 -0.0000
vn 0.8041 0.2023 0.5590
vn 0.3659 0.1414 0.9198
vn -0.2831 0.1795 0.9421
vn -0.8314 -0.0261 0.5551
vn -0.9983 -0.0584 -0.0000
vn -0.7706 -0.0947 -0.6303
vn -0.1844 -0.0155 -0.9827
vn 0.2793 -0.0825 -0.9567
vn 0.7225 0.0095 -0.6913
vn 1.0000 0.0050 -0.0000
vn 0.8224 0.0011 0.5689
vn 0.3139 -0.0906 0.9451
vn -0.3434 -0.0122 0.9391
vn -0.8269 0.0012 0.5624
vn -1.0000 0.0050 -0.0000
vn -0.7150 0.0096 -0.6990
vn -0.3408 -0.1607 -0.9263
vn 0.3384 0.2880 -0.8958
vn 0.7503 0.2793 -0.5992
vn 0.9962 0.0871 -0.0000
vn 0.8453 0.0223 0.5339
vn 0.2909 -0.0542 0.9552
vn -0.3399 -0.2066 0.9175
vn -0.7414 -0.0001 0.6710
vn -0.9962 0.0871 -0.0000
vn -0.6589 0.0704 -0.7489
vn -0.4440 0.3188 -0.8374
vn 0.2932 0.4314 -0.8532
vn 0.8036 0.1662 -0.5715
vn 0.9906 -0.1366 -0.0000
vn 0.7995 -0.2253 0.5569
vn 0.3113 -0.1788 0.9333
vn -0.3217 -0.0746 0.9439
vn -0.7890 -0.2275 0.5707
vn -0.9905 -0.1375 -0.0000
vn -0.5004 0.7704 -0.3951
vn -0.2189 0.7956 -0.5649
vn 0.9961 0.0887 -0.0000
vn 0.7503 -0.0720 0.6571
vn -0.9960 0.0890 -0.0000
vn 0.7566 -0.3085 -0.5765
vn 0.2948 -0.2840 -0.9124
vn 0.3125 0.0590 0.9481
vn -0.6756 0.0200 -0.7370
vn -0.7126 -0.1675 0.6813
vn -0.3202 0.0496 0.9461
vn -0.3369 -0.2882 -0.8963
vn -0.3136 0.1670 0.9348
vn -0.6966 -0.0173 0.7173
vn -0.9983 0.0583 -0.0003
vn -0.7488 0.0164 -0.6627
vn -0.3667 -0.1434 -0.9192
vn 0.3174 -0.1348 -0.9387
vn 0.7051 -0.2536 -0.6622
vn 0.9982 0.0593 -0.0008
vn 0.7706 0.0944 0.6303
vn 0.1821 0.0160 0.9831
vn -0.2801 0.0783 0.9568
vn -0.7484 0.0486 0.6614
vn -1.0000 -0.0046 -0.0010
vn -0.8228 -0.0017 -0.5683
vn -0.3693 0.0023 -0.9293
vn 0.2862 -0.0679 -0.9558
vn 0.8325 0.0147 -0.5539
vn 1.0000 -0.0051 -0.0009
vn 0.7121 -0.0092 0.7020
vn 0.3430 0.1590 0.9258
vn -0.2189 -0.4450 0.8683
vn -0.7486 -0.2767 0.6025
vn -0.9963 -0.0863 0.0001
vn -0.8460 -0.0231 -0.5326
vn -0.2895 0.0527 -0.9557
vn 0.3421 0.2061 -0.9168
vn 0.8082 0.2147 -0.5484
vn 0.9961 -0.0878 -0.0009
vn 0.7009 -0.1689 0.6930
vn 0.3190 -0.1642 0.9334
vn -0.2954 -0.4329 0.8516
vn -0.8040 -0.1759 0.5681
vn -0.9907 0.1364 -0.0022
vn -0.7994 0.2255 -0.5569
vn -0.2897 0.2442 -0.9255
vn 0.3457 0.1779 -0.9213
vn 0.7259 -0.1592 -0.6692
vn 0.9901 0.1402 -0.0022
vn 0.6563 -0.0710 0.7512
vn 0.2222 -0.7879 0.5744
vn -0.9961 -0.0884 -0.0014
vn -0.7892 -0.1374 -0.5985
vn 0.9960 -0.0895 -0.0009
vn -0.7568 0.3057 0.5778
vn -0.2955 0.2843 0.9120
vn -0.3162 -0.0645 -0.9465
vn 0.6729 -0.0207 0.7395
vn 0.7119 0.1606 -0.6837
vn 0.3222 -0.0503 -0.9453
vn 0.2952 0.3722 0.8799
vn -0.0395 -0.9883 -0.1476
vn 0.0241 0.9993 -0.0280
vn -0.1508 -0.9841 -0.0937
vn 0.0083 1.0000 0.0004
vn -0.0025 -1.0000 -0.0000
vn -0.1508 -0.8562 -0.4941
vn 0.0016 0.9989 -0.0470
vn 0.2838 -0.9389 -0.1945
vn -0.4124 -0.8667 -0.2806
vn -0.0471 0.9988 -0.0157
vn 0.1651 -0.8498 -0.5006
vn -0.2069 -0.9784 -0.0000
vn 0.0366 0.9993 -0.0000
vn -0.0803 0.9605 -0.2666
vn 0.0643 -0.9963 -0.0577
vn 0.1420 0.9814 -0.1293
vn -0.1946 0.9705 -0.1426
vn 0.0284 -0.9981 -0.0543
vn 0.1049 0.9574 -0.2690
vn -0.0689 0.9976 -0.0000
vn 0.0241 0.9997 -0.0053
vn 0.0045 -0.9999 -0.0133
vn -0.0846 -0.9744 0.2084
vn 0.1067 0.9943 -0.0000
vn -0.0679 0.9756 -0.2089
vn -0.1220 -0.9857 0.1161
vn 0.2430 0.9585 0.1488
vn -0.0902 -0.9591 -0.2683
vn 0.0517 0.9849 -0.1654
vn 0.0028 1.0000 0.0086
vn -0.0803 -0.9968 -0.0000
vn 0.0731 0.9547 0.2886
vn 0.0921 -0.9531 -0.2883
vn -0.0155 -0.9988 -0.0462
vn -0.0254 -0.9988 -0.0411
vn -0.1619 0.9792 -0.1227
vn -0.0242 -0.9996 -0.0153
vn -0.0983 -0.9928 -0.0690
vn 0.0255 0.9995 0.0186
vn -0.0046 -1.0000 -0.0086
vn 0.3037 -0.1854 -0.9346
vn 0.7925 -0.2013 -0.5756
vn 0.9998 -0.0179 -0.0003
vn 0.8092 0.0063 0.5875
vn 0.3092 -0.0192 0.9508
vn -0.3092 -0.0404 0.9501
vn -0.8093 0.0060 0.5874
vn -0.9998 -0.0176 -0.0003
vn -0.7756 -0.2856 -0.5629
vn -0.3005 -0.2351 -0.9243
vn -0.3280 0.2185 -0.9191
vn -0.8000 0.0624 -0.5967
vn -1.0000 0.0025 0.0002
vn -0.8003 0.1384 0.5835
vn -0.3225 -0.0141 0.9465
vn 0.3151 -0.0460 0.9479
vn 0.8185 -0.0803 0.5689
vn 1.0000 0.0027 0.0003
vn 0.8142 0.0601 -0.5775
vn 0.3121 0.2782 -0.9084
vn -0.0191 0.9984 0.0527
vn 0.1562 -0.9808 -0.1168
vn -0.0003 0.9995 -0.0313
vn 0.0668 0.9966 -0.0485
vn -0.0062 0.9999 0.0134
vn -0.0252 -0.9995 0.0177
vn 0.0484 0.9986 0.0225
vn -0.0438 0.9985 0.0319
vn 0.0574 -0.9780 0.2004
vn 0.0473 -0.9989 -0.0030
vn 0.0315 0.9995 0.0029
vn 0.0806 -0.9951 0.0579
vn 0.0382 0.9993 -0.0000
vn -0.0357 0.9991 0.0233
vn -0.0240 -0.9997 -0.0000
vn 0.0565 -0.9984 0.0017
vn -0.0450 0.9847 0.1682
vn -0.1031 0.9947 -0.0020
vn 0.0451 -0.9987 -0.0238
vn -0.0248 -0.9995 -0.0174
vn 0.2952 0.7175 0.6309
vn 0.6986 0.6226 0.3525
vn -0.0380 0.9980 -0.0503
vn -0.0242 0.9996 -0.0176
vn -0.0209 0.9980 0.0602
vn -0.0216 0.9998 0.0052
vn 0.7233 0.6446 -0.2476
vn 0.7754 0.5634 -0.2852
vn -0.7875 0.5723 -0.2289
vn -0.8110 0.4480 -0.3762
vn -0.7362 0.5532 0.3898
vn -0.0114 0.9993 0.0350
vn 0.0209 0.9980 0.0602
vn -0.2963 0.6898 0.6606
vn 0.0142 0.9994 0.0319
vn -0.4596 0.8573 0.2319
vn -0.2773 0.8862 -0.3712
vn 0.6911 0.6975 -0.1895
vn -0.2443 0.8172 0.5221
vn 0.4820 0.8391 0.2523
vn 0.2926 0.8346 -0.4668
vn -0.4916 0.8558 -0.1607
vn 0.2277 0.8840 0.4083
vn 0.5940 0.7857 -0.1727
vn -0.6762 0.6824 -0.2776
vn 0.8010 0.5980 -0.0296
vn -0.2313 0.6138 0.7548
vn 0.2313 0.6137 0.7549
vn 0.4739 0.4410 0.7622
vn -0.5463 0.4379 -0.7140
vn -0.4739 0.4411 0.7622
vn -0.4259 0.5331 -0.7311
vn 0.4286 0.5904 -0.6839
vn -0.0071 0.9993 -0.0364
vn 0.0114 0.9993 0.0350
vn -0.7754 0.5635 -0.2852
vn -0.7233 0.6446 -0.2476
vn -0.0142 0.9994 0.0319
vn 0.0216 0.9998 0.0052
vn 0.0242 0.9996 -0.0176
vn 0.8887 0.3787 -0.2583
vn 0.8024 0.5831 -0.1275
vn 0.0912 0.9922 0.0851
vn 0.0443 0.9921 0.1170
vn 0.0839 0.9672 -0.2399
vn 0.0991 0.9939 -0.0492
vn 0.1584 0.9873 -0.0124
vn -0.1658 0.9861 -0.0124
vn -0.1325 0.9823 0.1321
vn -0.0302 0.9963 -0.0799
vn -0.2808 0.9566 -0.0772
vn 0.1641 0.9750 -0.1499
vn 0.0059 0.9998 -0.0170
vn -0.0059 0.9998 -0.0170
vn -0.0874 0.9953 -0.0421
vn -0.1579 0.9843 0.0789
vn -0.0556 0.9805 0.1885
vn 0.1668 0.9818 -0.0904
vn 0.0338 0.9951 -0.0931
vn 0.0494 0.9899 0.1332
vn -0.2447 0.9410 -0.2338
vn 0.1272 0.9900 0.0611
vn -0.0864 0.9656 -0.2451
vn 0.0874 0.9961 0.0072
vn -0.0915 0.9958 0.0071
vn -0.0436 0.9924 0.1147
vn -0.3418 -0.4154 -0.8430
vn 0.6799 0.5679 0.4639
vn 0.6431 -0.5632 0.5189
vn -0.4202 0.5993 -0.6814
vn -0.3677 -0.2901 -0.8835
vn 0.8070 0.5905 -0.0000
vn 0.5948 -0.6902 0.4120
vn -0.4882 0.5754 -0.6562
vn 0.5848 0.5888 -0.5579
vn 0.6407 -0.6265 0.4439
vn -0.8219 0.5697 0.0001
vn 0.1600 0.6899 -0.7060
vn 0.6145 -0.6602 0.4318
vn -0.5996 0.5586 0.5731
vn 0.2855 -0.4251 0.8590
vn -0.3476 0.4462 0.8247
vn 0.2922 -0.5893 0.7532
vn 0.2390 0.4438 0.8637
vn 0.3152 -0.4263 0.8479
vn 0.7117 0.5666 0.4152
vn 0.2805 -0.4663 0.8390
vn 0.8059 0.5920 -0.0000
vn -0.2370 0.6026 -0.7620
vn -0.3413 -0.5349 0.7730
vn 0.6478 0.5462 -0.5311
vn -0.5058 0.7008 -0.5030
vn -0.2257 -0.5690 0.7907
vn 0.3287 0.3887 -0.8607
vn -0.6643 0.7475 -0.0000
vn -0.3241 -0.6034 0.7286
vn -0.5188 0.7248 0.4534
vn -0.2934 -0.4553 0.8406
vn -0.2602 0.6370 0.7256
vn -0.5594 -0.6042 0.5675
vn 0.2557 0.8311 0.4938
vn -0.5780 -0.7190 0.3859
vn 0.4744 0.7426 0.4728
vn -0.1324 0.4706 -0.8724
vn -0.6053 -0.6858 0.4042
vn 0.2192 -0.5884 -0.7783
vn 0.3098 -0.1637 -0.9366
vn 0.7013 0.0281 -0.7123
vn 0.7543 -0.0177 0.6563
vn 0.3632 0.1570 0.9184
vn -0.3623 0.0505 0.9307
vn -0.7124 0.2583 0.6525
vn -0.6774 0.1569 -0.7187
vn -0.3288 -0.2527 -0.9099
vn 0.2824 -0.0957 -0.9545
vn 0.7460 -0.0665 -0.6626
vn 0.3648 -0.0000 0.9311
vn -0.2882 0.0799 0.9542
vn -0.7643 -0.1189 -0.6338
vn -0.1885 0.0242 -0.9818
vn 0.2210 0.4549 -0.8627
vn 0.7152 0.1696 -0.6780
vn 0.8197 0.1027 0.5635
vn 0.3135 -0.0989 0.9444
vn -0.3506 -0.2008 0.9147
vn -0.8009 -0.2294 0.5532
vn -0.6989 0.1706 -0.6946
vn -0.3281 0.1411 -0.9340
vn 0.3441 0.1666 -0.9240
vn 0.7888 0.0384 -0.6135
vn 0.8406 -0.0539 0.5390
vn 0.2918 -0.0317 0.9560
vn -0.3558 -0.0093 0.9345
vn -0.7412 0.0713 0.6675
vn -0.6708 0.0463 -0.7402
vn -0.4341 0.1369 -0.8904
vn -0.4626 0.2771 -0.8421
vn -0.3161 0.1267 -0.9402
vn -0.1759 0.0123 -0.9843
vn -0.3552 -0.2297 -0.9061
vn -0.6462 0.0774 -0.7592
vn -0.7103 0.1499 -0.6877
vn -0.7707 -0.1176 -0.6263
vn -0.6666 0.1398 -0.7322
vn -1.0000 -0.0014 0.0003
vn -0.9969 0.0785 0.0007
vn -1.0000 -0.0000 0.0008
vn -0.9980 -0.0633 0.0008
vn -0.7234 0.1551 0.6728
vn -0.8148 -0.2068 0.5416
vn -0.8333 -0.0000 0.5529
vn -0.7038 0.2433 0.6674
vn -0.3624 -0.0282 0.9316
vn -0.3542 -0.1926 0.9151
vn -0.2858 0.0612 0.9563
vn -0.3654 0.1924 0.9108
vn 0.2912 -0.0707 0.9540
vn 0.3190 -0.1025 0.9422
vn 0.3736 0.0007 0.9276
vn 0.3664 0.1325 0.9210
vn 0.8391 -0.1099 0.5327
vn 0.8197 0.0864 0.5662
vn 0.8224 -0.0000 0.5690
vn 0.7468 -0.0238 0.6646
vn 1.0000 -0.0063 0.0001
vn 0.9969 0.0781 0.0007
vn 1.0000 -0.0000 0.0010
vn 0.9985 -0.0543 0.0006
vn 0.7823 0.0755 -0.6183
vn 0.7108 0.1504 -0.6871
vn 0.7499 -0.0648 -0.6584
vn 0.6962 0.0141 -0.7177
vn 0.3385 0.3478 -0.8743
vn 0.2444 0.2494 -0.9371
vn 0.2838 -0.0880 -0.9548
vn 0.3149 -0.1703 -0.9337
vn 0.7793 -0.6267 -0.0000
vn 0.2530 0.4103 0.8762
vn -0.1762 -0.6960 -0.6961
vn 0.7356 -0.6774 0.0018
vn -0.2806 0.4272 0.8595
vn -0.3210 -0.5419 -0.7767
vn 0.6664 -0.7456 0.0004
vn -0.7318 0.4564 0.5062
vn -0.6635 -0.3163 -0.6780
vn 0.1826 0.5732 -0.7988
vn 0.7715 -0.6362 -0.0002
vn -0.8206 0.5715 0.0003
vn -0.5713 -0.6076 -0.5517
vn 0.6722 0.5251 -0.5219
vn 0.6790 -0.5341 -0.5038
vn -0.5852 0.5538 -0.5923
vn -0.4022 -0.8148 -0.4176
vn 0.7240 0.6898 -0.0000
vn 0.5741 -0.6017 -0.5553
vn -0.2368 0.5886 -0.7730
vn -0.5146 -0.6085 -0.6041
vn 0.6012 0.6811 0.4179
vn 0.4846 -0.7047 -0.5183
vn -0.8440 -0.5363 0.0016
vn 0.3066 0.5539 0.7741
vn 0.5788 -0.6218 -0.5276
vn -0.7603 -0.6496 -0.0000
vn -0.2532 0.5018 0.8271
vn 0.3113 -0.3639 -0.8779
vn -0.6729 -0.7398 -0.0000
vn -0.6541 0.6193 0.4343
vn 0.3085 0.5574 -0.7708
vn 0.2666 -0.5502 -0.7913
vn -0.7921 -0.6103 -0.0000
vn -0.7134 0.7008 0.0007
vn 0.4348 0.7474 -0.5024
vn 0.2175 -0.8303 -0.5131
vn -0.6136 -0.5927 0.5217
vn -0.6153 0.6612 -0.4292
vn 0.7008 0.7134 0.0012
vn 0.7985 0.0037 0.6020
vn 0.7922 -0.0287 -0.6095
vn 0.3163 -0.1319 -0.9395
vn 0.3158 0.0129 0.9487
vn -0.7734 -0.1842 -0.6066
vn -0.7942 0.0038 0.6077
vn -0.3186 -0.0315 0.9474
vn -0.3124 -0.1541 -0.9374
vn 0.3118 -0.1660 -0.9355
vn 0.6987 0.0203 -0.7151
vn 0.7500 -0.0170 0.6612
vn 0.3186 0.2111 0.9241
vn -0.3157 0.1332 0.9395
vn -0.7068 0.2554 0.6597
vn -0.6720 0.1418 -0.7269
vn -0.3394 -0.2441 -0.9084
vn 0.2814 -0.0793 -0.9563
vn 0.7495 -0.0497 -0.6602
vn 0.8211 0.0052 0.5708
vn 0.3683 -0.0017 0.9297
vn -0.2861 0.0698 0.9556
vn -0.8316 -0.0142 0.5552
vn -0.7679 -0.1145 -0.6302
vn -0.1809 0.0403 -0.9827
vn 0.2184 0.4498 -0.8660
vn 0.7119 0.1689 -0.6817
vn 0.8192 0.0902 0.5664
vn 0.3140 -0.0949 0.9447
vn -0.3497 -0.1937 0.9166
vn -0.8077 -0.2159 0.5487
vn -0.7038 0.1694 -0.6899
vn -0.3192 0.1625 -0.9337
vn 0.3091 0.5201 -0.7963
vn 0.7875 0.0268 -0.6158
vn 0.7939 -0.3121 0.5218
vn 0.2911 -0.2400 0.9261
vn -0.3436 -0.1770 0.9223
vn -0.7259 0.1672 0.6672
vn -0.6585 0.0732 -0.7490
vn -0.4410 0.4047 -0.8011
vn 0.7896 0.1378 0.5980
vn 0.6986 0.0230 -0.7152
vn 0.2949 -0.2845 -0.9122
vn 0.3160 0.0669 0.9464
vn -0.7021 -0.4482 -0.5533
vn -0.7872 0.1381 0.6011
vn -0.3179 0.0432 0.9472
vn -0.2952 -0.3714 -0.8803
vn -0.2822 0.1205 0.9518
vn -0.7431 0.0957 0.6623
vn -0.9983 0.0591 -0.0008
vn -0.8045 -0.2006 -0.5590
vn -0.3199 -0.2100 -0.9239
vn 0.2830 -0.1817 -0.9417
vn 0.8323 0.0257 -0.5537
vn 0.9983 0.0587 -0.0003
vn 0.6702 -0.1375 0.7293
vn 0.3425 0.2416 0.9079
vn -0.2804 0.0778 0.9567
vn -0.7197 -0.0103 0.6942
vn -1.0000 -0.0045 -0.0010
vn -0.8214 -0.0057 -0.5703
vn -0.3147 0.0890 -0.9450
vn 0.3437 0.0123 -0.9390
vn 0.8275 -0.0011 -0.5615
vn 1.0000 -0.0054 -0.0011
vn 0.7679 0.1143 0.6303
vn 0.1788 -0.0378 0.9832
vn -0.3400 -0.2892 0.8948
vn -0.7087 -0.1702 0.6847
vn -0.9962 -0.0876 -0.0009
vn -0.8197 -0.0903 -0.5656
vn -0.3150 0.0961 -0.9442
vn 0.3504 0.1954 -0.9160
vn 0.7400 0.0008 -0.6726
vn 0.9962 -0.0871 -0.0004
vn 0.6556 -0.0749 0.7513
vn 0.4495 -0.3169 0.8351
vn -0.3101 -0.5127 0.8006
vn -0.7874 -0.0242 0.6160
vn -0.9904 0.1385 -0.0015
vn -0.7940 0.3117 -0.5219
vn -0.3120 0.1778 -0.9333
vn 0.3212 0.0677 -0.9446
vn 0.7886 0.2274 -0.5713
vn 0.9916 0.1289 -0.0055
vn 0.5025 -0.7633 0.4061
vn 0.4464 -0.4046 0.7981
vn -0.9960 -0.0897 -0.0009
vn -0.7493 0.0686 -0.6587
vn 0.9962 -0.0871 -0.0018
vn -0.6962 -0.0232 0.7174
vn -0.2958 0.2855 0.9116
vn -0.3136 -0.0588 -0.9477
vn 0.7030 0.4420 0.5572
vn 0.7868 -0.1379 -0.6016
vn 0.3176 -0.0381 -0.9475
vn 0.3399 0.2870 0.8956
vn -0.0577 -0.9750 -0.2148
vn -0.0039 1.0000 -0.0090
vn -0.1916 -0.9743 -0.1187
vn 0.0273 0.9985 -0.0468
vn -0.1791 -0.9838 0.0098
vn -0.1443 -0.8696 -0.4721
vn 0.0023 0.9990 -0.0444
vn 0.0075 -0.9996 0.0262
vn -0.1729 -0.9820 -0.0760
vn -0.0412 0.9991 -0.0117
vn 0.1103 -0.9468 -0.3024
vn 0.0883 -0.9960 0.0158
vn -0.0542 0.9985 0.0052
vn -0.0703 0.9709 -0.2289
vn 0.0418 -0.9982 -0.0433
vn 0.0254 0.9993 -0.0285
vn -0.0593 0.9980 -0.0233
vn 0.0654 -0.9872 -0.1454
vn 0.0797 0.9820 -0.1713
vn 0.0361 0.9993 0.0060
vt 0.564547 0.410383
vt 0.564562 0.410093
vt 0.564558 0.410387
vt 0.568243 0.407185
vt 0.568064 0.407403
vt 0.568237 0.407175
vt 0.564131 0.410598
vt 0.564295 0.410819
vt 0.564284 0.410822
vt 0.564550 0.410096
vt 0.564392 0.409854
vt 0.565923 0.409432
vt 0.565934 0.409151
vt 0.565934 0.409435
vt 0.564284 0.411099
vt 0.564295 0.411103
vt 0.564385 0.409863
vt 0.564117 0.409765
vt 0.568956 0.407703
vt 0.568967 0.407421
vt 0.568967 0.407706
vt 0.567039 0.402693
vt 0.567049 0.402849
vt 0.567039 0.402849
vt 0.565759 0.408930
vt 0.565923 0.409154
vt 0.565069 0.409154
vt 0.565057 0.409435
vt 0.565058 0.409150
vt 0.566894 0.407873
vt 0.566869 0.407696
vt 0.566885 0.407697
vt 0.565796 0.400150
vt 0.565815 0.400363
vt 0.565799 0.400363
vt 0.567023 0.402854
vt 0.567013 0.402694
vt 0.567023 0.402694
vt 0.560515 0.407848
vt 0.560531 0.408100
vt 0.560515 0.408100
vt 0.565801 0.400618
vt 0.565820 0.400838
vt 0.565804 0.400838
vt 0.567043 0.402564
vt 0.567049 0.402693
vt 0.566869 0.407444
vt 0.566885 0.407444
vt 0.568921 0.407691
vt 0.568788 0.407925
vt 0.568766 0.407895
vt 0.565739 0.408959
vt 0.565889 0.409165
vt 0.568515 0.408005
vt 0.568515 0.407969
vt 0.565496 0.408844
vt 0.568243 0.407914
vt 0.568265 0.407885
vt 0.565253 0.408959
vt 0.565496 0.408880
vt 0.568110 0.407675
vt 0.568075 0.407685
vt 0.565102 0.409165
vt 0.565232 0.408930
vt 0.568110 0.407418
vt 0.568075 0.407407
vt 0.565069 0.409432
vt 0.568265 0.407214
vt 0.565253 0.409627
vt 0.565102 0.409421
vt 0.568515 0.407104
vt 0.568515 0.407140
vt 0.565496 0.409742
vt 0.565232 0.409656
vt 0.568766 0.407224
vt 0.568788 0.407196
vt 0.565739 0.409627
vt 0.565496 0.409706
vt 0.568921 0.407435
vt 0.568956 0.407424
vt 0.565889 0.409421
vt 0.565759 0.409656
vt 0.566990 0.408450
vt 0.566747 0.409224
vt 0.566747 0.408532
vt 0.567233 0.409224
vt 0.566990 0.409306
vt 0.567384 0.408746
vt 0.567384 0.409010
vt 0.566597 0.408746
vt 0.560432 0.402081
vt 0.560448 0.402337
vt 0.560432 0.402337
vt 0.560540 0.408277
vt 0.560524 0.408277
vt 0.567026 0.402983
vt 0.567013 0.402854
vt 0.565812 0.400618
vt 0.565796 0.400618
vt 0.565804 0.401102
vt 0.565817 0.401310
vt 0.565801 0.401310
vt 0.567053 0.402974
vt 0.567043 0.402974
vt 0.566246 0.403081
vt 0.566238 0.402957
vt 0.566248 0.402957
vt 0.566878 0.407210
vt 0.566894 0.407211
vt 0.565820 0.401102
vt 0.560524 0.407618
vt 0.560531 0.407848
vt 0.567016 0.402564
vt 0.567026 0.402564
vt 0.566237 0.402801
vt 0.566246 0.402801
vt 0.564115 0.411319
vt 0.564121 0.411328
vt 0.563853 0.409852
vt 0.564117 0.409776
vt 0.568795 0.407934
vt 0.568064 0.407689
vt 0.563844 0.411393
vt 0.563844 0.411405
vt 0.565767 0.409666
vt 0.563588 0.411304
vt 0.563581 0.411313
vt 0.568795 0.407186
vt 0.565225 0.408920
vt 0.563428 0.411084
vt 0.563439 0.411081
vt 0.565653 0.407548
vt 0.565689 0.407359
vt 0.565695 0.407552
vt 0.559619 0.400974
vt 0.559664 0.401191
vt 0.559622 0.401193
vt 0.559666 0.401476
vt 0.559624 0.401477
vt 0.568207 0.400768
vt 0.568160 0.400532
vt 0.568207 0.400525
vt 0.568161 0.400247
vt 0.568203 0.400247
vt 0.565381 0.407508
vt 0.565335 0.407735
vt 0.565339 0.407507
vt 0.565374 0.407742
vt 0.565333 0.408025
vt 0.565375 0.408027
vt 0.565339 0.408251
vt 0.565643 0.408084
vt 0.565692 0.407823
vt 0.565685 0.408084
vt 0.563177 0.407014
vt 0.563200 0.406732
vt 0.563200 0.407014
vt 0.563193 0.407273
vt 0.565801 0.400853
vt 0.565764 0.400621
vt 0.565794 0.400618
vt 0.565800 0.401143
vt 0.565771 0.400854
vt 0.565794 0.401380
vt 0.565773 0.401148
vt 0.560076 0.401936
vt 0.560107 0.402222
vt 0.560077 0.402222
vt 0.566860 0.404395
vt 0.566887 0.404153
vt 0.566890 0.404397
vt 0.566858 0.404688
vt 0.566889 0.404691
vt 0.566854 0.404913
vt 0.566882 0.404923
vt 0.563169 0.406735
vt 0.563191 0.406536
vt 0.568515 0.408017
vt 0.564387 0.410604
vt 0.564394 0.410614
vt 0.565496 0.408832
vt 0.565766 0.408920
vt 0.564119 0.410686
vt 0.564118 0.410698
vt 0.568516 0.407092
vt 0.563847 0.410600
vt 0.563854 0.410590
vt 0.565225 0.409666
vt 0.563879 0.410498
vt 0.564139 0.410589
vt 0.568236 0.407923
vt 0.563677 0.410361
vt 0.563688 0.410357
vt 0.563609 0.410579
vt 0.563878 0.410510
vt 0.563677 0.410077
vt 0.563689 0.410080
vt 0.563440 0.410799
vt 0.563602 0.410569
vt 0.563847 0.409842
vt 0.565496 0.409754
vt 0.563428 0.410795
vt 0.560462 0.414327
vt 0.560444 0.414278
vt 0.560461 0.414271
vt 0.562239 0.414351
vt 0.562256 0.414278
vt 0.562257 0.414345
vt 0.562384 0.414289
vt 0.562365 0.414233
vt 0.562383 0.414221
vt 0.561617 0.415885
vt 0.561578 0.415889
vt 0.561612 0.415877
vt 0.561510 0.415924
vt 0.561578 0.415940
vt 0.561578 0.415954
vt 0.563224 0.413577
vt 0.563204 0.413466
vt 0.563223 0.413446
vt 0.564984 0.409677
vt 0.565032 0.409704
vt 0.564975 0.409796
vt 0.565072 0.409858
vt 0.565033 0.409912
vt 0.565175 0.409892
vt 0.565318 0.409912
vt 0.565279 0.409858
vt 0.565376 0.409796
vt 0.565319 0.409704
vt 0.565367 0.409677
vt 0.565302 0.409606
vt 0.565091 0.409514
vt 0.565106 0.409562
vt 0.565053 0.409577
vt 0.565336 0.409947
vt 0.565466 0.409841
vt 0.565355 0.409994
vt 0.565028 0.409511
vt 0.564954 0.409675
vt 0.565175 0.409460
vt 0.565175 0.409476
vt 0.564996 0.409500
vt 0.564885 0.409653
vt 0.563221 0.413745
vt 0.563201 0.413757
vt 0.563204 0.413576
vt 0.565058 0.409714
vt 0.565175 0.409839
vt 0.565108 0.409808
vt 0.565293 0.409714
vt 0.565243 0.409808
vt 0.562166 0.414281
vt 0.562147 0.414240
vt 0.562153 0.414230
vt 0.562296 0.414230
vt 0.562276 0.414359
vt 0.562276 0.414240
vt 0.564944 0.409803
vt 0.565175 0.409442
vt 0.565175 0.410005
vt 0.565175 0.410052
vt 0.565259 0.409514
vt 0.561646 0.415924
vt 0.561643 0.415909
vt 0.565228 0.409523
vt 0.565175 0.409493
vt 0.561683 0.415830
vt 0.561632 0.415894
vt 0.561666 0.415829
vt 0.561626 0.415651
vt 0.561578 0.415638
vt 0.561578 0.415621
vt 0.561517 0.415694
vt 0.561490 0.415829
vt 0.561473 0.415830
vt 0.561578 0.415924
vt 0.561523 0.415894
vt 0.561513 0.415909
vt 0.561529 0.415651
vt 0.561537 0.415669
vt 0.561639 0.415694
vt 0.561629 0.415694
vt 0.561527 0.415694
vt 0.561619 0.415669
vt 0.559801 0.414360
vt 0.559787 0.414373
vt 0.559788 0.414356
vt 0.561615 0.415765
vt 0.561646 0.415814
vt 0.561645 0.415845
vt 0.561578 0.415899
vt 0.561538 0.415885
vt 0.561511 0.415845
vt 0.561510 0.415814
vt 0.561541 0.415765
vt 0.559787 0.414320
vt 0.559801 0.414316
vt 0.565175 0.409648
vt 0.565141 0.409761
vt 0.565143 0.409658
vt 0.565209 0.409761
vt 0.565234 0.409700
vt 0.565233 0.409727
vt 0.565117 0.409700
vt 0.565118 0.409727
vt 0.565207 0.409658
vt 0.562366 0.414328
vt 0.562366 0.414291
vt 0.562239 0.414273
vt 0.562257 0.414241
vt 0.560461 0.414386
vt 0.560444 0.414326
vt 0.562384 0.414332
vt 0.562365 0.414373
vt 0.563739 0.413686
vt 0.563722 0.413638
vt 0.563739 0.413633
vt 0.562257 0.414373
vt 0.562240 0.414384
vt 0.561578 0.415667
vt 0.561600 0.415681
vt 0.561578 0.415730
vt 0.561578 0.415754
vt 0.561556 0.415714
vt 0.561599 0.415714
vt 0.561556 0.415681
vt 0.555324 0.404320
vt 0.555299 0.404270
vt 0.555324 0.404284
vt 0.555276 0.404321
vt 0.555300 0.404339
vt 0.563828 0.413633
vt 0.563841 0.413665
vt 0.563828 0.413668
vt 0.559816 0.414381
vt 0.559829 0.414346
vt 0.559829 0.414375
vt 0.563815 0.413669
vt 0.563801 0.413637
vt 0.563815 0.413633
vt 0.559815 0.414346
vt 0.559829 0.414320
vt 0.562168 0.414358
vt 0.562142 0.414285
vt 0.561526 0.415639
vt 0.561578 0.415608
vt 0.565244 0.409562
vt 0.565323 0.409511
vt 0.561653 0.415704
vt 0.565015 0.409947
vt 0.564885 0.409841
vt 0.565123 0.409523
vt 0.565397 0.409675
vt 0.565355 0.409500
vt 0.565466 0.409653
vt 0.564996 0.409994
vt 0.565298 0.409577
vt 0.563221 0.413779
vt 0.563224 0.413832
vt 0.565407 0.409803
vt 0.561503 0.415704
vt 0.561509 0.415678
vt 0.561509 0.415694
vt 0.562726 0.414239
vt 0.562732 0.414265
vt 0.562726 0.414255
vt 0.564497 0.401581
vt 0.564398 0.401493
vt 0.564398 0.401483
vt 0.564276 0.401871
vt 0.564127 0.401827
vt 0.564134 0.401817
vt 0.564149 0.401512
vt 0.564195 0.401490
vt 0.564201 0.401493
vt 0.564508 0.401708
vt 0.564430 0.401837
vt 0.564492 0.401708
vt 0.564076 0.401702
vt 0.564076 0.401582
vt 0.564085 0.401582
vt 0.564476 0.401702
vt 0.564475 0.401582
vt 0.564485 0.401702
vt 0.564055 0.401581
vt 0.564154 0.401493
vt 0.564070 0.401581
vt 0.564116 0.401852
vt 0.564276 0.401895
vt 0.564276 0.401910
vt 0.564351 0.401493
vt 0.564352 0.401477
vt 0.564357 0.401490
vt 0.564149 0.401506
vt 0.565049 0.409606
vt 0.565100 0.409588
vt 0.564482 0.401581
vt 0.564403 0.401506
vt 0.564425 0.401827
vt 0.564276 0.401883
vt 0.564122 0.401837
vt 0.564060 0.401708
vt 0.564067 0.401702
vt 0.564200 0.401477
vt 0.564044 0.401708
vt 0.564418 0.401817
vt 0.564154 0.401483
vt 0.564207 0.401468
vt 0.564436 0.401852
vt 0.564345 0.401468
vt 0.564403 0.401512
vt 0.564467 0.401582
vt 0.563837 0.407572
vt 0.563601 0.407550
vt 0.563600 0.407544
vt 0.564579 0.407569
vt 0.564573 0.407336
vt 0.564587 0.407566
vt 0.563797 0.409143
vt 0.563785 0.409402
vt 0.563778 0.409406
vt 0.563889 0.407767
vt 0.563642 0.407794
vt 0.563889 0.407762
vt 0.563641 0.407768
vt 0.563886 0.407744
vt 0.563643 0.407780
vt 0.564566 0.407338
vt 0.564563 0.407071
vt 0.563217 0.407493
vt 0.563481 0.407564
vt 0.563482 0.407569
vt 0.563640 0.407799
vt 0.563380 0.407739
vt 0.565250 0.407109
vt 0.565321 0.407322
vt 0.565317 0.407325
vt 0.563881 0.409383
vt 0.563659 0.409398
vt 0.563655 0.409392
vt 0.564086 0.409152
vt 0.564303 0.409147
vt 0.564308 0.409154
vt 0.565321 0.406825
vt 0.565255 0.407109
vt 0.562924 0.408146
vt 0.563136 0.408127
vt 0.562929 0.408153
vt 0.563784 0.409155
vt 0.564085 0.409144
vt 0.563785 0.408906
vt 0.563804 0.409141
vt 0.563580 0.409127
vt 0.563785 0.409147
vt 0.564125 0.409202
vt 0.563880 0.409216
vt 0.563877 0.409211
vt 0.563137 0.408154
vt 0.563431 0.408157
vt 0.563433 0.408164
vt 0.564177 0.409401
vt 0.563883 0.409389
vt 0.564412 0.407558
vt 0.564392 0.407327
vt 0.564419 0.407554
vt 0.563432 0.408132
vt 0.563134 0.408122
vt 0.564385 0.407328
vt 0.564381 0.407051
vt 0.563472 0.406682
vt 0.563476 0.406458
vt 0.563482 0.406456
vt 0.564784 0.406930
vt 0.564785 0.406736
vt 0.564791 0.406928
vt 0.564361 0.406871
vt 0.564374 0.407050
vt 0.563474 0.406953
vt 0.563466 0.406681
vt 0.564354 0.409213
vt 0.564124 0.409207
vt 0.564091 0.407772
vt 0.564087 0.407766
vt 0.563214 0.407446
vt 0.563395 0.407648
vt 0.563211 0.407450
vt 0.563584 0.408938
vt 0.563788 0.408933
vt 0.563587 0.408945
vt 0.563400 0.407951
vt 0.563400 0.407646
vt 0.563783 0.409123
vt 0.563584 0.409102
vt 0.563581 0.409095
vt 0.563297 0.408157
vt 0.563395 0.407951
vt 0.564778 0.406737
vt 0.564797 0.406432
vt 0.563299 0.408160
vt 0.563077 0.408246
vt 0.563795 0.408757
vt 0.564075 0.408771
vt 0.563795 0.408761
vt 0.563077 0.408250
vt 0.562786 0.408214
vt 0.563621 0.407381
vt 0.563885 0.407399
vt 0.563887 0.407405
vt 0.563788 0.408928
vt 0.564069 0.408944
vt 0.563463 0.406296
vt 0.563457 0.406458
vt 0.563451 0.406456
vt 0.564022 0.407259
vt 0.563882 0.407101
vt 0.563994 0.407088
vt 0.565911 0.402814
vt 0.565988 0.402914
vt 0.565895 0.402922
vt 0.565988 0.403081
vt 0.565895 0.403086
vt 0.566901 0.410384
vt 0.567147 0.410241
vt 0.567127 0.410375
vt 0.567374 0.410366
vt 0.566810 0.409901
vt 0.567040 0.409758
vt 0.567044 0.409920
vt 0.567343 0.409779
vt 0.567327 0.409930
vt 0.567540 0.409932
vt 0.563872 0.407763
vt 0.564006 0.407530
vt 0.564023 0.407761
vt 0.563866 0.407489
vt 0.564004 0.409937
vt 0.564166 0.410078
vt 0.563954 0.410104
vt 0.560280 0.410236
vt 0.560427 0.410387
vt 0.560282 0.410393
vt 0.560292 0.410660
vt 0.560437 0.410655
vt 0.560305 0.410892
vt 0.567130 0.410547
vt 0.567379 0.410396
vt 0.567426 0.410564
vt 0.566833 0.410102
vt 0.567043 0.409948
vt 0.567038 0.410092
vt 0.567320 0.410102
vt 0.567326 0.409958
vt 0.567533 0.410104
vt 0.563507 0.409919
vt 0.563717 0.410075
vt 0.563502 0.410063
vt 0.563737 0.409912
vt 0.564004 0.410267
vt 0.564170 0.410112
vt 0.564207 0.410271
vt 0.560246 0.410233
vt 0.560100 0.410374
vt 0.560087 0.410199
vt 0.560250 0.410391
vt 0.560111 0.410651
vt 0.560260 0.410660
vt 0.560138 0.410879
vt 0.567127 0.410578
vt 0.567395 0.410724
vt 0.567097 0.410713
vt 0.566833 0.410131
vt 0.567032 0.410286
vt 0.566830 0.410259
vt 0.567321 0.410135
vt 0.567335 0.410284
vt 0.567535 0.410136
vt 0.567556 0.410285
vt 0.563494 0.410245
vt 0.563721 0.410112
vt 0.563758 0.410299
vt 0.563959 0.410134
vt 0.564006 0.410299
vt 0.564210 0.410606
vt 0.564017 0.410609
vt 0.560055 0.410193
vt 0.559761 0.410365
vt 0.559754 0.410145
vt 0.560068 0.410373
vt 0.559771 0.410651
vt 0.560079 0.410651
vt 0.559787 0.410887
vt 0.567119 0.411065
vt 0.567396 0.410756
vt 0.567400 0.411063
vt 0.566820 0.410598
vt 0.567034 0.410318
vt 0.567047 0.410615
vt 0.567335 0.410315
vt 0.567333 0.410622
vt 0.567557 0.410317
vt 0.567561 0.410624
vt 0.563492 0.410585
vt 0.563757 0.410331
vt 0.563746 0.410609
vt 0.563604 0.407574
vt 0.563835 0.407581
vt 0.563840 0.407598
vt 0.563623 0.407354
vt 0.563621 0.407373
vt 0.563448 0.406676
vt 0.563387 0.407557
vt 0.563395 0.407365
vt 0.563395 0.407382
vt 0.563453 0.406953
vt 0.564303 0.409129
vt 0.564070 0.408963
vt 0.564280 0.408946
vt 0.564282 0.408965
vt 0.564074 0.408788
vt 0.564286 0.408773
vt 0.564286 0.408790
vt 0.564811 0.406219
vt 0.564817 0.406433
vt 0.564084 0.409127
vt 0.563788 0.408954
vt 0.563794 0.408779
vt 0.564807 0.406735
vt 0.563583 0.409120
vt 0.563783 0.409131
vt 0.563587 0.408961
vt 0.563565 0.408762
vt 0.564811 0.406931
vt 0.563138 0.408146
vt 0.563431 0.408139
vt 0.564173 0.409424
vt 0.563880 0.409406
vt 0.563881 0.409233
vt 0.564129 0.409227
vt 0.563805 0.408907
vt 0.563822 0.409144
vt 0.564410 0.407328
vt 0.564592 0.407337
vt 0.564748 0.407331
vt 0.564778 0.407561
vt 0.564760 0.407561
vt 0.563805 0.409401
vt 0.564399 0.407052
vt 0.564582 0.407073
vt 0.564755 0.407066
vt 0.564738 0.407066
vt 0.564552 0.407735
vt 0.564538 0.407465
vt 0.564558 0.407465
vt 0.564384 0.406880
vt 0.564367 0.406874
vt 0.564579 0.406918
vt 0.564559 0.406914
vt 0.564758 0.406894
vt 0.564559 0.407918
vt 0.564531 0.407736
vt 0.564050 0.407574
vt 0.563890 0.407379
vt 0.564059 0.407375
vt 0.563469 0.406300
vt 0.563484 0.406299
vt 0.564406 0.407052
vt 0.564174 0.409430
vt 0.563845 0.407037
vt 0.563705 0.406792
vt 0.563708 0.406789
vt 0.564598 0.407338
vt 0.564588 0.407071
vt 0.563787 0.408962
vt 0.563442 0.406677
vt 0.563732 0.407479
vt 0.563736 0.407483
vt 0.564072 0.408971
vt 0.563381 0.407722
vt 0.563377 0.407714
vt 0.564063 0.407383
vt 0.564532 0.407463
vt 0.564525 0.407737
vt 0.564286 0.408973
vt 0.563389 0.407538
vt 0.563385 0.407532
vt 0.564750 0.406891
vt 0.564732 0.407065
vt 0.564393 0.406877
vt 0.563604 0.407581
vt 0.563471 0.406703
vt 0.563471 0.406709
vt 0.564742 0.407332
vt 0.562628 0.406419
vt 0.562624 0.406643
vt 0.562624 0.406421
vt 0.563842 0.407603
vt 0.563447 0.406956
vt 0.563771 0.409056
vt 0.563776 0.408782
vt 0.563775 0.409056
vt 0.563852 0.407275
vt 0.563857 0.407276
vt 0.564307 0.409122
vt 0.564086 0.409120
vt 0.564130 0.409233
vt 0.562628 0.406143
vt 0.562624 0.406417
vt 0.562624 0.406143
vt 0.563761 0.407942
vt 0.563767 0.407676
vt 0.563767 0.407941
vt 0.563562 0.408768
vt 0.563794 0.408784
vt 0.563888 0.407735
vt 0.564086 0.407749
vt 0.563217 0.406789
vt 0.563220 0.406794
vt 0.564076 0.408794
vt 0.562720 0.407538
vt 0.562613 0.407747
vt 0.562609 0.407747
vt 0.564045 0.407553
vt 0.562389 0.406000
vt 0.562394 0.405728
vt 0.562394 0.405998
vt 0.562902 0.408448
vt 0.562896 0.408182
vt 0.562902 0.408181
vt 0.562602 0.408017
vt 0.562597 0.408019
vt 0.563841 0.407038
vt 0.562783 0.408219
vt 0.554889 0.403998
vt 0.554571 0.403724
vt 0.554895 0.403724
vt 0.567813 0.402789
vt 0.567491 0.402556
vt 0.567831 0.402526
vt 0.554759 0.411892
vt 0.555076 0.411682
vt 0.555082 0.411900
vt 0.554561 0.404214
vt 0.554901 0.404184
vt 0.563518 0.407055
vt 0.563845 0.407263
vt 0.563524 0.407242
vt 0.567813 0.402287
vt 0.563518 0.407761
vt 0.563836 0.407483
vt 0.563841 0.407763
vt 0.554756 0.412174
vt 0.555071 0.412206
vt 0.554753 0.412396
vt 0.555076 0.412400
vt 0.178026 0.382676
vt 0.177647 0.382246
vt 0.177950 0.382210
vt 0.183155 0.370609
vt 0.183363 0.370880
vt 0.183110 0.370901
vt 0.183363 0.371335
vt 0.183110 0.371346
vt 0.185841 0.391158
vt 0.186509 0.390768
vt 0.186455 0.391133
vt 0.187126 0.391109
vt 0.185594 0.389846
vt 0.186219 0.389457
vt 0.186231 0.389899
vt 0.187042 0.389514
vt 0.186998 0.389926
vt 0.187576 0.389931
vt 0.177621 0.384043
vt 0.177985 0.383409
vt 0.178031 0.384038
vt 0.177604 0.383298
vt 0.177978 0.389943
vt 0.178419 0.390326
vt 0.177843 0.390397
vt 0.191308 0.388802
vt 0.191705 0.389214
vt 0.191314 0.389229
vt 0.191341 0.389954
vt 0.191732 0.389939
vt 0.191374 0.390583
vt 0.186463 0.391600
vt 0.187141 0.391191
vt 0.187267 0.391647
vt 0.185659 0.390392
vt 0.186228 0.389974
vt 0.186213 0.390365
vt 0.186995 0.390001
vt 0.186980 0.390392
vt 0.187573 0.390006
vt 0.187559 0.390397
vt 0.176629 0.389896
vt 0.177199 0.390318
vt 0.176615 0.390287
vt 0.177255 0.389877
vt 0.177980 0.390839
vt 0.178429 0.390418
vt 0.178529 0.390852
vt 0.191216 0.388793
vt 0.190820 0.389177
vt 0.190784 0.388703
vt 0.191225 0.389225
vt 0.190848 0.389929
vt 0.191253 0.389953
vt 0.190921 0.390549
vt 0.186455 0.391683
vt 0.187184 0.392080
vt 0.186375 0.392051
vt 0.185657 0.390472
vt 0.186197 0.390893
vt 0.185651 0.390818
vt 0.186983 0.390480
vt 0.187021 0.390885
vt 0.187564 0.390485
vt 0.187620 0.390890
vt 0.176594 0.390781
vt 0.177209 0.390419
vt 0.177311 0.390926
vt 0.177856 0.390479
vt 0.177984 0.390926
vt 0.178537 0.391760
vt 0.178014 0.391767
vt 0.190697 0.388686
vt 0.189898 0.389153
vt 0.189880 0.388555
vt 0.190733 0.389173
vt 0.189927 0.389928
vt 0.190761 0.389928
vt 0.189968 0.390570
vt 0.186435 0.393005
vt 0.187185 0.392166
vt 0.187197 0.393000
vt 0.185624 0.391737
vt 0.186202 0.390979
vt 0.186239 0.391784
vt 0.187021 0.390971
vt 0.187015 0.391804
vt 0.187622 0.390976
vt 0.187633 0.391810
vt 0.176588 0.391704
vt 0.177308 0.391013
vt 0.177278 0.391767
vt 0.193274 0.369917
vt 0.192413 0.369173
vt 0.193292 0.369173
vt 0.188317 0.370541
vt 0.187444 0.369909
vt 0.188368 0.369827
vt 0.192921 0.391344
vt 0.193783 0.390775
vt 0.193800 0.391367
vt 0.192395 0.369924
vt 0.193307 0.370422
vt 0.192384 0.370503
vt 0.176660 0.382121
vt 0.177547 0.382686
vt 0.176675 0.382629
vt 0.187438 0.369173
vt 0.188317 0.369177
vt 0.176660 0.384038
vt 0.177521 0.383284
vt 0.177536 0.384043
vt 0.192914 0.392109
vt 0.193768 0.392198
vt 0.192905 0.392713
vt 0.193783 0.392723
vt 0.177630 0.382685
vt 0.183346 0.370573
vt 0.185805 0.390746
vt 0.185681 0.389447
vt 0.191754 0.388740
vt 0.186456 0.391208
vt 0.185600 0.389929
vt 0.186210 0.390457
vt 0.176612 0.390375
vt 0.186382 0.392138
vt 0.185648 0.390904
vt 0.176594 0.390868
vt 0.187438 0.370550
vt 0.176673 0.383347
vt 0.192905 0.390746
vt 0.566878 0.407872
vt 0.565812 0.400150
vt 0.565817 0.400618
vt 0.567053 0.402564
vt 0.567233 0.408532
vt 0.566597 0.409010
vt 0.560448 0.402081
vt 0.567016 0.402983
vt 0.566237 0.403081
vt 0.560540 0.407619
vt 0.565643 0.407350
vt 0.559666 0.400967
vt 0.568165 0.400769
vt 0.565381 0.408253
vt 0.565654 0.407828
vt 0.563163 0.407275
vt 0.565764 0.401380
vt 0.560109 0.401934
vt 0.566854 0.404152
vt 0.563163 0.406538
vt 0.565175 0.409966
vt 0.563215 0.413757
vt 0.562168 0.414239
vt 0.562296 0.414373
vt 0.559801 0.414381
vt 0.565175 0.409773
vt 0.562240 0.414230
vt 0.560444 0.414376
vt 0.562383 0.414384
vt 0.563722 0.413683
vt 0.555275 0.404285
vt 0.563841 0.413637
vt 0.563801 0.413666
vt 0.559816 0.414313
vt 0.562144 0.414367
vt 0.565250 0.409588
vt 0.561646 0.415694
vt 0.561696 0.415830
vt 0.563200 0.413814
vt 0.564556 0.407069
vt 0.563218 0.407489
vt 0.563377 0.407746
vt 0.565317 0.406823
vt 0.563778 0.408904
vt 0.564176 0.409407
vt 0.563478 0.406956
vt 0.564358 0.409208
vt 0.564790 0.406431
vt 0.564078 0.408767
vt 0.564071 0.408938
vt 0.563875 0.407263
vt 0.565981 0.402801
vt 0.566887 0.410232
vt 0.567386 0.410218
vt 0.566842 0.409754
vt 0.567561 0.409781
vt 0.564180 0.409914
vt 0.560444 0.410213
vt 0.560449 0.410886
vt 0.567127 0.410403
vt 0.566812 0.409931
vt 0.567539 0.409960
vt 0.560274 0.410891
vt 0.567423 0.410594
vt 0.567037 0.410126
vt 0.563500 0.410096
vt 0.564207 0.410303
vt 0.560106 0.410880
vt 0.567100 0.410745
vt 0.566829 0.410291
vt 0.563494 0.410277
vt 0.564790 0.406217
vt 0.563563 0.408742
vt 0.564439 0.407554
vt 0.564605 0.407567
vt 0.564765 0.407331
vt 0.564778 0.406892
vt 0.564543 0.407920
vt 0.564061 0.407355
vt 0.564417 0.407329
vt 0.563877 0.409414
vt 0.563583 0.408968
vt 0.563384 0.407564
vt 0.562628 0.406646
vt 0.563771 0.408780
vt 0.563878 0.409239
vt 0.562628 0.406419
vt 0.563761 0.407674
vt 0.564090 0.407740
vt 0.562723 0.407540
vt 0.564050 0.407546
vt 0.562389 0.405726
vt 0.562896 0.408447
vt 0.563390 0.407388
vt 0.554565 0.404001
vt 0.567489 0.402792
vt 0.554753 0.411671
vt 0.563857 0.407103
vt 0.567489 0.402285
vt 0.563523 0.407507
vt 0.187159 0.390707
vt 0.187633 0.389520
vt 0.178456 0.389882
vt 0.191766 0.390568
vt 0.191290 0.390580
vt 0.187259 0.391728
vt 0.178531 0.390939
vt 0.190835 0.390550
vt 0.177579 0.382251
s 0
usemtl Material
f 53/1/1 81/2/1 78/3/1
f 33/4/2 73/5/2 76/6/2
f 55/7/3 89/8/3 311/9/3
f 308/10/4 84/11/4 81/2/4
f 40/12/5 61/13/5 86/14/5
f 312/15/6 89/8/6 90/16/6
f 309/17/7 87/18/7 84/11/7
f 21/19/8 85/20/8 58/21/8
f 4/22/9 110/23/9 6/24/9
f 23/25/10 61/13/10 24/26/10
f 30/27/11 74/28/11 71/29/11
f 13/30/12 41/31/12 11/32/12
f 18/33/13 111/34/13 20/35/13
f 5/36/14 44/37/14 3/38/14
f 10/39/15 105/40/15 12/41/15
f 19/42/16 50/43/16 17/44/16
f 2/45/17 108/46/17 4/22/17
f 11/32/18 43/47/18 9/48/18
f 1/49/19 22/50/19 3/51/19
f 4/52/20 24/26/20 2/53/20
f 3/51/19 25/54/19 5/55/19
f 4/52/20 26/56/20 23/25/20
f 5/55/19 27/57/19 7/58/19
f 8/59/20 26/56/20 6/60/20
f 9/61/19 27/57/19 29/62/19
f 10/63/20 28/64/20 8/59/20
f 11/65/19 29/62/19 31/66/19
f 10/63/20 32/67/20 30/27/20
f 11/65/19 33/4/19 13/68/19
f 14/69/20 32/67/20 12/70/20
f 13/68/19 35/71/19 15/72/19
f 14/69/20 36/73/20 34/74/20
f 17/75/19 35/71/19 37/76/19
f 18/77/20 36/73/20 16/78/20
f 19/79/19 37/76/19 39/80/19
f 20/81/20 38/82/20 18/77/20
f 1/49/19 39/80/19 21/19/19
f 20/81/20 24/26/20 40/12/20
f 42/83/19 45/84/19 46/85/19
f 42/83/19 43/86/19 41/87/19
f 43/86/19 47/88/19 48/89/19
f 45/84/19 50/90/19 46/85/19
f 1/91/21 46/92/21 19/93/21
f 12/41/22 106/94/22 14/95/22
f 7/96/23 47/97/23 5/36/23
f 20/35/24 109/98/24 2/99/24
f 15/100/25 45/101/25 13/102/25
f 6/24/23 103/103/23 8/104/23
f 14/105/26 107/106/26 16/107/26
f 9/48/27 48/108/27 7/109/27
f 17/44/28 49/110/28 15/100/28
f 8/111/29 104/112/29 10/39/29
f 3/38/30 42/113/30 1/114/30
f 16/107/28 112/115/28 18/116/28
f 313/117/31 90/16/31 91/118/31
f 310/119/32 87/18/32 54/120/32
f 21/19/33 59/121/33 22/50/33
f 31/66/34 70/122/34 73/5/34
f 56/123/35 91/118/35 92/124/35
f 40/12/36 83/125/36 38/82/36
f 314/126/37 92/124/37 93/127/37
f 39/80/38 82/128/38 85/20/38
f 28/64/39 71/29/39 68/129/39
f 314/126/40 94/130/40 315/131/40
f 61/132/41 89/133/41 62/134/41
f 89/135/42 65/136/42 90/137/42
f 90/137/43 68/138/43 91/139/43
f 91/140/44 71/141/44 92/142/44
f 92/142/45 74/143/45 93/144/45
f 74/145/46 94/146/46 93/147/46
f 77/148/47 95/149/47 94/146/47
f 80/150/48 96/151/48 95/149/48
f 83/152/49 97/153/49 96/154/49
f 97/153/50 61/132/50 62/134/50
f 87/155/51 58/156/51 85/157/51
f 82/158/52 87/155/52 85/157/52
f 79/159/53 84/160/53 82/161/53
f 76/162/54 81/163/54 79/159/54
f 73/164/55 78/165/55 76/162/55
f 70/166/56 75/167/56 73/168/56
f 69/169/57 70/170/57 67/171/57
f 66/172/58 67/171/58 64/173/58
f 63/174/59 64/173/59 59/175/59
f 88/176/60 59/177/60 58/156/60
f 34/74/61 74/28/61 32/67/61
f 22/50/62 64/178/62 25/54/62
f 307/179/63 78/3/63 75/180/63
f 23/25/64 65/181/64 60/182/64
f 52/183/65 75/180/65 72/184/65
f 35/71/66 76/6/66 79/185/66
f 52/183/67 69/186/67 306/187/67
f 36/73/68 77/188/68 34/74/68
f 55/7/69 97/189/69 62/190/69
f 25/54/70 67/191/70 27/57/70
f 306/187/71 66/192/71 305/193/71
f 316/194/72 97/189/72 317/195/72
f 26/56/73 68/129/73 65/181/73
f 305/193/74 63/196/74 51/197/74
f 37/76/75 79/185/75 82/128/75
f 57/198/76 96/199/76 316/194/76
f 51/197/77 88/200/77 310/119/77
f 38/82/78 80/201/78 36/73/78
f 315/131/79 95/202/79 57/198/79
f 29/62/80 67/191/80 70/122/80
f 126/203/81 150/204/81 125/205/81
f 116/206/82 152/207/82 157/208/82
f 113/209/83 149/210/83 162/211/83
f 118/212/84 150/213/84 148/214/84
f 99/215/85 130/216/85 100/217/85
f 98/218/86 129/219/86 99/220/86
f 185/221/20 119/222/20 188/223/20
f 188/223/20 120/224/20 190/225/20
f 121/226/20 190/225/20 120/224/20
f 194/227/20 121/226/20 122/228/20
f 196/229/20 122/228/20 123/230/20
f 198/231/20 123/230/20 201/232/20
f 174/233/87 180/234/87 200/235/87
f 193/236/20 107/237/20 106/238/20
f 173/239/88 200/235/88 186/240/88
f 174/233/89 176/241/89 175/242/89
f 108/243/20 186/240/20 110/244/20
f 179/245/90 134/246/90 135/247/90
f 98/248/20 120/224/20 119/222/20
f 100/249/20 120/224/20 99/250/20
f 100/249/20 122/228/20 121/226/20
f 102/251/20 122/228/20 101/252/20
f 133/253/91 182/254/91 184/255/91
f 102/256/92 132/257/92 136/258/92
f 187/259/20 110/244/20 186/240/20
f 173/239/93 109/260/93 176/241/93
f 191/261/20 106/238/20 105/262/20
f 176/241/94 178/263/94 175/242/94
f 101/264/95 130/216/95 132/265/95
f 175/242/96 170/266/96 171/267/96
f 136/268/97 142/269/97 141/270/97
f 133/271/98 158/272/98 131/273/98
f 134/274/99 145/275/99 135/276/99
f 132/265/100 143/277/100 142/269/100
f 135/276/101 144/278/101 129/279/101
f 128/280/102 158/272/102 160/281/102
f 137/282/103 141/270/103 140/283/103
f 129/279/104 143/277/104 130/216/104
f 134/274/105 160/281/105 146/284/105
f 137/282/106 159/285/106 133/271/106
f 117/286/107 164/287/107 168/288/107
f 162/289/20 140/283/20 113/290/20
f 113/290/20 141/270/20 114/291/20
f 114/291/20 142/269/20 118/212/20
f 118/212/20 143/277/20 125/292/20
f 126/293/20 143/277/20 144/278/20
f 115/294/20 144/278/20 145/275/20
f 116/295/20 145/275/20 146/284/20
f 163/296/20 146/284/20 160/281/20
f 117/286/108 166/297/108 139/298/108
f 151/299/20 153/300/20 152/301/20
f 148/302/20 154/303/20 155/304/20
f 157/305/20 153/300/20 156/306/20
f 148/302/20 151/299/20 149/307/20
f 113/209/109 155/308/109 154/309/109
f 163/310/110 151/311/110 152/207/110
f 115/312/111 153/313/111 126/203/111
f 114/314/112 148/315/112 155/308/112
f 162/316/113 151/317/113 161/318/113
f 116/206/114 156/319/114 115/320/114
f 138/321/20 159/285/20 139/322/20
f 138/321/20 160/281/20 158/272/20
f 124/323/20 162/289/20 161/324/20
f 124/323/20 163/296/20 127/325/20
f 117/326/20 159/285/20 162/289/20
f 127/325/20 160/281/20 147/327/20
f 168/328/20 165/329/20 166/330/20
f 169/331/20 165/329/20 164/332/20
f 139/333/115 165/334/115 138/335/115
f 127/336/116 167/337/116 169/338/116
f 127/339/117 164/340/117 124/341/117
f 147/342/118 165/343/118 167/337/118
f 131/344/119 170/345/119 133/253/119
f 131/273/120 172/346/120 171/347/120
f 178/263/121 182/348/121 170/266/121
f 102/251/20 201/232/20 123/230/20
f 109/260/122 177/349/122 176/241/122
f 183/350/123 136/268/123 137/282/123
f 189/351/20 103/352/20 187/259/20
f 172/353/124 175/242/124 171/267/124
f 197/354/20 111/355/20 112/356/20
f 191/261/20 104/357/20 189/351/20
f 202/358/125 177/349/125 197/354/125
f 134/246/126 180/359/126 172/360/126
f 195/361/20 112/356/20 107/237/20
f 179/362/127 180/363/127 181/364/127
f 182/365/128 183/366/128 184/367/128
f 197/368/129 208/369/129 202/370/129
f 192/371/130 218/372/130 190/373/130
f 199/374/131 203/375/131 179/376/131
f 195/377/132 213/378/132 211/379/132
f 188/380/133 222/381/133 185/382/133
f 196/383/134 210/384/134 212/385/134
f 186/386/135 224/387/135 221/388/135
f 189/389/136 215/390/136 191/391/136
f 183/392/137 205/393/137 206/394/137
f 199/374/138 222/381/138 223/395/138
f 98/248/20 199/396/20 179/397/20
f 209/398/139 207/399/139 208/369/139
f 209/398/20 212/385/20 210/384/20
f 211/379/20 214/400/20 212/385/20
f 213/378/20 216/401/20 214/400/20
f 217/402/20 216/401/20 215/390/20
f 219/403/20 218/372/20 217/402/20
f 221/388/20 220/404/20 219/403/20
f 203/375/140 224/387/140 204/405/140
f 208/369/141 206/394/141 205/393/141
f 223/395/142 221/388/142 224/387/142
f 187/406/143 217/402/143 189/389/143
f 194/407/144 212/385/144 214/400/144
f 200/408/145 204/405/145 224/387/145
f 179/376/146 204/405/146 180/409/146
f 193/410/147 215/390/147 213/378/147
f 202/370/148 205/393/148 182/411/148
f 201/412/149 210/384/149 198/413/149
f 190/373/150 220/404/150 188/380/150
f 201/412/151 206/394/151 207/399/151
f 197/368/152 211/379/152 209/398/152
f 186/386/153 219/403/153 187/406/153
f 192/371/154 214/400/154 216/401/154
f 226/414/155 327/415/155 263/416/155
f 289/417/156 382/418/156 383/419/156
f 241/420/157 353/421/157 237/422/157
f 304/423/158 397/424/158 318/425/158
f 264/426/159 319/427/159 326/428/159
f 288/429/160 381/430/160 382/418/160
f 242/431/161 352/432/161 238/433/161
f 303/434/162 396/435/162 397/424/162
f 286/436/163 381/437/163 287/438/163
f 243/439/164 351/440/164 239/441/164
f 301/442/165 396/443/165 302/444/165
f 286/436/166 320/445/166 380/446/166
f 240/447/167 346/448/167 350/449/167
f 300/450/168 395/451/168 301/442/168
f 241/420/169 345/452/169 349/453/169
f 299/454/170 394/455/170 300/450/170
f 246/456/171 348/457/171 242/458/171
f 298/459/172 393/460/172 299/461/172
f 247/462/173 347/463/173 243/439/173
f 298/464/174 391/465/174 392/466/174
f 248/467/175 346/448/175 244/468/175
f 297/469/176 390/470/176 391/465/176
f 274/471/177 324/472/177 265/473/177
f 245/474/178 341/475/178 345/476/178
f 295/477/179 390/470/179 296/478/179
f 274/471/180 369/479/180 370/480/180
f 246/456/181 340/481/181 344/482/181
f 295/483/182 318/425/182 389/484/182
f 273/485/183 368/486/183 369/487/183
f 247/488/184 339/489/184 343/490/184
f 271/491/185 368/486/185 272/492/185
f 252/493/186 342/494/186 248/495/186
f 271/491/187 366/496/187 367/497/187
f 249/498/188 337/499/188 341/475/188
f 270/500/189 365/501/189 366/496/189
f 250/502/190 336/503/190 340/504/190
f 269/505/191 364/506/191 365/501/191
f 284/507/192 322/508/192 275/509/192
f 251/510/193 335/511/193 339/489/193
f 229/512/194 325/513/194 228/514/194
f 227/515/195 266/516/195 230/517/195
f 230/518/196 267/519/196 234/520/196
f 234/520/197 268/521/197 238/522/197
f 238/523/198 269/524/198 242/525/198
f 269/524/199 246/526/199 242/525/199
f 246/527/200 271/528/200 250/529/200
f 250/529/201 272/530/201 254/531/201
f 272/530/202 258/532/202 254/531/202
f 273/533/203 262/534/203 258/535/203
f 274/536/204 227/515/204 262/534/204
f 275/537/205 231/538/205 226/539/205
f 231/540/206 277/541/206 235/542/206
f 277/541/28 239/543/28 235/542/28
f 278/544/207 243/545/207 239/543/207
f 243/546/208 280/547/208 247/548/208
f 247/549/209 281/550/209 251/551/209
f 281/550/210 255/552/210 251/551/210
f 282/553/23 259/554/23 255/552/23
f 283/555/211 263/556/211 259/557/211
f 284/558/212 226/539/212 263/556/212
f 225/559/213 286/560/213 232/561/213
f 286/562/214 236/563/214 232/564/214
f 287/565/215 240/566/215 236/563/215
f 288/567/216 244/568/216 240/566/216
f 289/569/217 248/570/217 244/571/217
f 290/572/218 252/573/218 248/574/218
f 252/573/219 292/575/219 256/576/219
f 256/576/220 293/577/220 260/578/220
f 260/579/221 294/580/221 264/581/221
f 264/581/222 285/582/222 225/559/222
f 304/583/223 51/584/223 310/585/223
f 295/586/224 305/587/224 51/588/224
f 296/589/28 306/590/28 305/587/28
f 297/591/225 52/592/225 306/590/225
f 52/593/226 299/594/226 307/595/226
f 307/596/227 300/597/227 53/598/227
f 53/598/228 301/599/228 308/600/228
f 308/600/23 302/601/23 309/602/23
f 309/603/229 303/604/229 54/605/229
f 303/604/230 310/585/230 54/605/230
f 326/428/231 318/425/231 397/424/231
f 388/606/232 321/607/232 320/608/232
f 328/609/233 322/508/233 379/610/233
f 329/611/234 324/472/234 370/480/234
f 396/435/235 326/428/235 397/424/235
f 387/612/236 327/415/236 388/606/236
f 332/613/237 379/610/237 378/614/237
f 333/615/238 370/480/238 369/479/238
f 395/451/239 330/616/239 396/443/239
f 386/617/240 331/618/240 387/619/240
f 377/620/241 332/621/241 378/622/241
f 337/499/242 369/623/242 368/624/242
f 394/455/243 334/625/243 395/451/243
f 385/626/244 335/511/244 386/617/244
f 340/504/245 377/620/245 376/627/245
f 367/628/246 337/499/246 368/624/246
f 393/629/247 338/630/247 394/455/247
f 343/490/248 385/626/248 384/631/248
f 375/632/249 340/504/249 376/627/249
f 345/476/250 367/628/250 366/633/250
f 392/634/251 342/635/251 393/460/251
f 347/463/252 384/636/252 383/637/252
f 374/638/253 344/482/253 375/639/253
f 349/453/254 366/640/254 365/641/254
f 350/642/255 392/466/255 391/465/255
f 351/643/256 383/419/256 382/418/256
f 373/644/257 348/645/257 374/646/257
f 364/647/258 349/453/258 365/641/258
f 354/648/259 391/465/259 390/470/259
f 355/649/260 382/418/260 381/430/260
f 356/650/261 373/644/261 372/651/261
f 363/652/262 353/653/262 364/654/262
f 358/655/263 390/470/263 389/656/263
f 359/657/264 381/430/264 380/658/264
f 371/659/265 356/650/265 372/651/265
f 362/660/266 357/661/266 363/652/266
f 319/427/267 389/484/267 318/425/267
f 321/607/268 380/662/268 320/608/268
f 323/663/269 371/664/269 322/508/269
f 324/472/270 361/665/270 362/666/270
f 236/667/271 350/642/271 354/648/271
f 290/668/272 383/637/272 384/636/272
f 227/669/273 328/670/273 262/671/273
f 239/672/274 355/649/274 235/673/274
f 291/674/275 384/631/275 385/626/275
f 228/514/276 329/611/276 261/675/276
f 238/433/277 356/676/277 234/677/277
f 291/674/278 386/617/278 292/678/278
f 264/426/279 330/679/279 260/680/279
f 276/681/280 322/508/280 371/664/280
f 237/682/281 357/661/281 233/683/281
f 292/678/282 387/619/282 293/684/282
f 263/416/283 331/685/283 259/686/283
f 276/687/284 372/651/284 277/688/284
f 232/689/285 354/648/285 358/655/285
f 294/690/286 387/612/286 388/606/286
f 258/691/287 328/670/287 332/692/287
f 278/693/288 372/651/288 373/644/288
f 231/694/289 355/695/289 359/696/289
f 294/690/290 320/608/290 285/697/290
f 261/675/291 333/615/291 257/698/291
f 279/699/292 373/700/292 374/701/292
f 234/677/293 360/702/293 230/703/293
f 260/704/294 334/625/294 256/705/294
f 280/706/295 374/638/295 375/639/295
f 229/707/296 357/708/296 361/709/296
f 255/710/297 331/711/297 335/712/297
f 280/713/298 376/627/298 281/714/298
f 225/715/299 358/716/299 319/427/299
f 254/717/300 332/692/300 336/718/300
f 281/714/301 377/620/301 282/719/301
f 265/720/302 362/721/302 266/722/302
f 226/414/303 359/723/303 321/607/303
f 253/724/304 333/725/304 337/726/304
f 282/727/305 378/728/305 283/729/305
f 266/722/306 363/730/306 267/731/306
f 227/669/307 360/702/307 323/732/307
f 252/493/308 334/625/308 338/630/308
f 284/507/309 378/614/309 379/610/309
f 267/731/310 364/506/310 268/733/310
f 233/734/311 313/735/311 237/736/311
f 237/737/312 56/738/312 241/739/312
f 57/740/313 257/741/313 253/742/313
f 311/743/314 233/734/314 229/744/314
f 311/745/315 228/746/315 55/747/315
f 56/738/316 245/748/316 241/739/316
f 316/749/317 261/750/317 257/751/317
f 315/752/318 253/742/318 249/753/318
f 314/754/319 249/753/319 245/755/319
f 261/750/320 55/747/320 228/746/320
f 400/756/321 402/757/321 403/758/321
f 403/759/322 406/760/322 407/761/322
f 407/761/323 410/762/323 411/763/323
f 411/764/324 414/765/324 415/766/324
f 414/765/325 419/767/325 415/766/325
f 419/768/326 422/769/326 423/770/326
f 423/770/327 426/771/327 427/772/327
f 426/771/328 431/773/328 427/772/328
f 430/774/329 435/775/329 431/776/329
f 434/777/330 400/756/330 435/775/330
f 400/778/331 404/779/331 399/780/331
f 404/781/332 407/782/332 408/783/332
f 407/782/333 412/784/333 408/783/333
f 411/785/334 416/786/334 412/784/334
f 416/787/335 419/788/335 420/789/335
f 420/790/336 423/791/336 424/792/336
f 424/792/337 427/793/337 428/794/337
f 428/794/338 431/795/338 432/796/338
f 431/797/339 436/798/339 432/799/339
f 435/800/340 399/780/340 436/798/340
f 398/801/341 404/802/341 405/803/341
f 404/804/342 409/805/342 405/806/342
f 408/807/343 413/808/343 409/805/343
f 412/809/344 417/810/344 413/808/344
f 416/811/345 421/812/345 417/813/345
f 420/814/346 425/815/346 421/816/346
f 425/815/347 428/817/347 429/818/347
f 429/818/348 432/819/348 433/820/348
f 433/821/349 436/822/349 437/823/349
f 437/823/350 399/824/350 398/801/350
f 398/825/351 438/826/351 447/827/351
f 405/828/352 439/829/352 438/830/352
f 409/831/353 440/832/353 439/829/353
f 413/833/354 441/834/354 440/832/354
f 441/835/355 421/836/355 442/837/355
f 442/838/356 425/839/356 443/840/356
f 443/840/357 429/841/357 444/842/357
f 444/842/358 433/843/358 445/844/358
f 445/845/359 437/846/359 446/847/359
f 437/846/360 447/827/360 446/847/360
f 406/848/361 451/849/361 410/850/361
f 410/851/362 452/852/362 414/853/362
f 455/854/363 430/855/363 426/856/363
f 450/857/364 402/858/364 449/859/364
f 449/860/365 401/861/365 448/862/365
f 414/853/366 453/863/366 418/864/366
f 456/865/367 434/866/367 430/867/367
f 454/868/368 426/856/368 422/869/368
f 453/870/369 422/869/369 418/871/369
f 434/866/370 448/862/370 401/861/370
f 465/756/371 498/757/371 467/872/371
f 497/759/372 494/760/372 498/873/372
f 493/761/373 490/762/373 494/760/373
f 489/764/374 486/765/374 490/874/374
f 481/767/375 486/765/375 485/766/375
f 481/768/376 478/769/376 482/875/376
f 477/770/377 474/771/377 478/769/377
f 469/773/378 474/771/378 473/772/378
f 464/775/379 470/774/379 469/776/379
f 465/756/380 466/777/380 464/775/380
f 496/779/381 465/778/381 463/780/381
f 496/781/382 493/782/382 497/876/382
f 488/784/383 493/782/383 492/783/383
f 484/786/384 489/785/384 488/784/384
f 484/787/385 481/788/385 485/877/385
f 480/790/386 477/791/386 481/878/386
f 476/792/387 473/793/387 477/791/387
f 472/794/388 469/795/388 473/793/388
f 462/798/389 469/797/389 468/799/389
f 463/780/390 464/800/390 462/798/390
f 461/801/391 496/802/391 463/824/391
f 491/805/392 496/804/392 495/806/392
f 487/808/393 492/807/393 491/805/393
f 483/810/394 488/809/394 487/808/394
f 479/812/395 484/811/395 483/813/395
f 475/815/396 480/814/396 479/816/396
f 475/815/397 472/817/397 476/879/397
f 471/818/398 468/819/398 472/817/398
f 458/821/399 462/822/399 468/880/399
f 460/823/400 463/824/400 462/822/400
f 506/826/401 461/825/401 503/827/401
f 505/829/402 495/828/402 506/830/402
f 500/832/403 491/831/403 505/829/403
f 499/834/404 487/833/404 500/832/404
f 499/835/405 479/836/405 483/881/405
f 502/838/406 475/839/406 479/882/406
f 507/840/407 471/841/407 475/839/407
f 501/842/408 458/843/408 471/841/408
f 459/845/409 460/846/409 458/883/409
f 503/827/410 460/846/410 504/847/410
f 494/848/411 515/849/411 516/857/411
f 490/851/412 514/852/412 515/884/412
f 470/855/413 511/854/413 474/856/413
f 498/858/414 516/857/414 517/859/414
f 467/861/415 517/860/415 509/862/415
f 486/853/416 513/863/416 514/852/416
f 466/866/417 510/865/417 470/867/417
f 474/856/418 512/868/418 478/869/418
f 478/869/419 513/870/419 482/871/419
f 466/866/420 509/862/420 508/885/420
f 502/837/421 441/835/421 442/837/421
f 454/868/422 511/854/422 455/854/422
f 441/834/423 500/832/423 440/832/423
f 453/870/424 512/868/424 454/868/424
f 440/832/425 505/829/425 439/829/425
f 503/827/426 446/847/426 447/827/426
f 452/852/427 513/863/427 453/863/427
f 439/829/428 506/830/428 438/830/428
f 504/847/429 445/845/429 446/847/429
f 515/884/430 452/852/430 451/884/430
f 438/826/431 503/827/431 447/827/431
f 459/844/432 444/842/432 445/844/432
f 516/857/433 451/849/433 450/857/433
f 457/885/434 509/862/434 448/862/434
f 501/842/435 443/840/435 444/842/435
f 517/859/436 450/857/436 449/859/436
f 456/865/437 508/885/437 457/885/437
f 507/840/438 442/838/438 443/840/438
f 509/862/439 449/860/439 448/862/439
f 455/854/440 510/886/440 456/886/440
f 53/1/441 308/10/441 81/2/441
f 33/4/442 31/66/442 73/5/442
f 55/7/443 62/190/443 89/8/443
f 308/10/444 309/17/444 84/11/444
f 40/12/445 24/26/445 61/13/445
f 312/15/446 311/9/446 89/8/446
f 309/17/447 54/120/447 87/18/447
f 21/19/448 39/80/448 85/20/448
f 4/22/9 108/46/9 110/23/9
f 23/25/449 60/182/449 61/13/449
f 30/27/450 32/67/450 74/28/450
f 13/30/12 45/887/12 41/31/12
f 18/33/13 112/888/13 111/34/13
f 5/36/14 47/97/14 44/37/14
f 10/39/15 104/112/15 105/40/15
f 19/42/16 46/889/16 50/43/16
f 2/45/17 109/890/17 108/46/17
f 11/32/18 41/31/18 43/47/18
f 1/49/19 21/19/19 22/50/19
f 4/52/20 23/25/20 24/26/20
f 3/51/19 22/50/19 25/54/19
f 4/52/20 6/60/20 26/56/20
f 5/55/19 25/54/19 27/57/19
f 8/59/20 28/64/20 26/56/20
f 9/61/19 7/58/19 27/57/19
f 10/63/20 30/27/20 28/64/20
f 11/65/19 9/61/19 29/62/19
f 10/63/20 12/70/20 32/67/20
f 11/65/19 31/66/19 33/4/19
f 14/69/20 34/74/20 32/67/20
f 13/68/19 33/4/19 35/71/19
f 14/69/20 16/78/20 36/73/20
f 17/75/19 15/72/19 35/71/19
f 18/77/20 38/82/20 36/73/20
f 19/79/19 17/75/19 37/76/19
f 20/81/20 40/12/20 38/82/20
f 1/49/19 19/79/19 39/80/19
f 20/81/20 2/53/20 24/26/20
f 42/83/19 41/87/19 45/84/19
f 42/83/19 44/891/19 43/86/19
f 43/86/19 44/891/19 47/88/19
f 45/84/19 49/892/19 50/90/19
f 1/91/21 42/893/21 46/92/21
f 12/41/22 105/40/22 106/94/22
f 7/96/23 48/894/23 47/97/23
f 20/35/24 111/34/24 109/98/24
f 15/100/25 49/110/25 45/101/25
f 6/24/23 110/23/23 103/103/23
f 14/105/26 106/895/26 107/106/26
f 9/48/27 43/47/27 48/108/27
f 17/44/28 50/43/28 49/110/28
f 8/111/29 103/896/29 104/112/29
f 3/38/30 44/37/30 42/113/30
f 16/107/28 107/106/28 112/115/28
f 313/117/451 312/15/451 90/16/451
f 310/119/452 88/200/452 87/18/452
f 21/19/453 58/21/453 59/121/453
f 31/66/454 29/62/454 70/122/454
f 56/123/455 313/117/455 91/118/455
f 40/12/456 86/14/456 83/125/456
f 314/126/457 56/123/457 92/124/457
f 39/80/458 37/76/458 82/128/458
f 28/64/459 30/27/459 71/29/459
f 314/126/460 93/127/460 94/130/460
f 61/132/461 60/897/461 89/133/461
f 89/135/462 60/898/462 65/136/462
f 90/137/463 65/136/463 68/138/463
f 91/140/464 68/899/464 71/141/464
f 92/142/465 71/141/465 74/143/465
f 74/145/466 77/148/466 94/146/466
f 77/148/467 80/150/467 95/149/467
f 80/150/468 83/900/468 96/151/468
f 83/152/469 86/901/469 97/153/469
f 97/153/470 86/901/470 61/132/470
f 87/155/471 88/176/471 58/156/471
f 82/158/472 84/902/472 87/155/472
f 79/159/473 81/163/473 84/160/473
f 76/162/474 78/165/474 81/163/474
f 73/164/475 75/903/475 78/165/475
f 70/166/476 72/904/476 75/167/476
f 69/169/477 72/905/477 70/170/477
f 66/172/478 69/169/478 67/171/478
f 63/174/479 66/172/479 64/173/479
f 88/176/480 63/906/480 59/177/480
f 34/74/481 77/188/481 74/28/481
f 22/50/482 59/121/482 64/178/482
f 307/179/483 53/1/483 78/3/483
f 23/25/484 26/56/484 65/181/484
f 52/183/485 307/179/485 75/180/485
f 35/71/486 33/4/486 76/6/486
f 52/183/487 72/184/487 69/186/487
f 36/73/488 80/201/488 77/188/488
f 55/7/489 317/195/489 97/189/489
f 25/54/490 64/178/490 67/191/490
f 306/187/491 69/186/491 66/192/491
f 316/194/492 96/199/492 97/189/492
f 26/56/493 28/64/493 68/129/493
f 305/193/494 66/192/494 63/196/494
f 37/76/495 35/71/495 79/185/495
f 57/198/496 95/202/496 96/199/496
f 51/197/497 63/196/497 88/200/497
f 38/82/498 83/125/498 80/201/498
f 315/131/499 94/130/499 95/202/499
f 29/62/500 27/57/500 67/191/500
f 126/203/81 153/313/81 150/204/81
f 116/206/82 163/310/82 152/207/82
f 113/209/83 154/309/83 149/210/83
f 118/212/84 125/292/84 150/213/84
f 99/215/501 129/279/501 130/216/501
f 98/218/502 135/247/502 129/219/502
f 185/221/20 199/396/20 119/222/20
f 188/223/20 119/222/20 120/224/20
f 121/226/20 192/907/20 190/225/20
f 194/227/20 192/907/20 121/226/20
f 196/229/20 194/227/20 122/228/20
f 198/231/20 196/229/20 123/230/20
f 174/233/503 172/353/503 180/234/503
f 193/236/20 195/361/20 107/237/20
f 173/239/504 174/233/504 200/235/504
f 174/233/505 173/239/505 176/241/505
f 108/243/506 173/239/506 186/240/506
f 135/247/507 98/218/507 179/245/507
f 179/245/508 181/908/508 134/246/508
f 98/248/20 99/250/20 120/224/20
f 100/249/20 121/226/20 120/224/20
f 100/249/20 101/252/20 122/228/20
f 102/251/20 123/230/20 122/228/20
f 184/255/509 137/909/509 133/253/509
f 133/253/510 170/345/510 182/254/510
f 102/256/511 101/910/511 132/257/511
f 187/259/20 103/352/20 110/244/20
f 173/239/512 108/243/512 109/260/512
f 191/261/20 193/236/20 106/238/20
f 176/241/513 177/349/513 178/263/513
f 101/264/514 100/217/514 130/216/514
f 175/242/515 178/263/515 170/266/515
f 136/268/516 132/265/516 142/269/516
f 133/271/517 159/285/517 158/272/517
f 134/274/518 146/284/518 145/275/518
f 132/265/519 130/216/519 143/277/519
f 135/276/520 145/275/520 144/278/520
f 128/280/521 131/273/521 158/272/521
f 137/282/522 136/268/522 141/270/522
f 129/279/523 144/278/523 143/277/523
f 134/274/524 128/280/524 160/281/524
f 137/282/525 140/283/525 159/285/525
f 117/286/107 124/911/107 164/287/107
f 162/289/20 159/285/20 140/283/20
f 113/290/20 140/283/20 141/270/20
f 114/291/20 141/270/20 142/269/20
f 118/212/20 142/269/20 143/277/20
f 126/293/20 125/292/20 143/277/20
f 115/294/20 126/293/20 144/278/20
f 116/295/20 115/294/20 145/275/20
f 163/296/20 116/295/20 146/284/20
f 117/286/108 168/288/108 166/297/108
f 151/299/20 150/912/20 153/300/20
f 148/302/20 149/307/20 154/303/20
f 157/305/20 152/301/20 153/300/20
f 148/302/20 150/912/20 151/299/20
f 113/209/526 114/314/526 155/308/526
f 163/310/527 161/913/527 151/311/527
f 115/312/111 156/914/111 153/313/111
f 114/314/112 118/915/112 148/315/112
f 162/316/528 149/916/528 151/317/528
f 116/206/114 157/208/114 156/319/114
f 138/321/20 158/272/20 159/285/20
f 138/321/20 147/327/20 160/281/20
f 124/323/20 117/326/20 162/289/20
f 124/323/20 161/324/20 163/296/20
f 117/326/20 139/322/20 159/285/20
f 127/325/20 163/296/20 160/281/20
f 168/328/20 164/332/20 165/329/20
f 169/331/20 167/917/20 165/329/20
f 139/333/529 166/918/529 165/334/529
f 127/336/116 147/342/116 167/337/116
f 127/339/530 169/919/530 164/340/530
f 147/342/531 138/920/531 165/343/531
f 131/344/532 171/921/532 170/345/532
f 131/273/533 128/280/533 172/346/533
f 178/263/534 202/358/534 182/348/534
f 102/251/20 183/922/20 201/232/20
f 109/260/535 111/355/535 177/349/535
f 137/282/536 184/923/536 183/350/536
f 183/350/537 102/924/537 136/268/537
f 189/351/20 104/357/20 103/352/20
f 172/353/538 174/233/538 175/242/538
f 197/354/539 177/349/539 111/355/539
f 191/261/20 105/262/20 104/357/20
f 202/358/540 178/263/540 177/349/540
f 172/360/541 128/925/541 134/246/541
f 134/246/542 181/908/542 180/359/542
f 195/361/20 197/354/20 112/356/20
f 197/368/543 209/398/543 208/369/543
f 192/371/544 216/401/544 218/372/544
f 199/374/545 223/395/545 203/375/545
f 195/377/546 193/410/546 213/378/546
f 188/380/547 220/404/547 222/381/547
f 196/383/548 198/413/548 210/384/548
f 186/386/549 200/408/549 224/387/549
f 189/389/550 217/402/550 215/390/550
f 183/392/551 182/411/551 205/393/551
f 199/374/552 185/382/552 222/381/552
f 98/248/20 119/222/20 199/396/20
f 209/398/20 210/384/20 207/399/20
f 209/398/20 211/379/20 212/385/20
f 211/379/20 213/378/20 214/400/20
f 213/378/20 215/390/20 216/401/20
f 217/402/20 218/372/20 216/401/20
f 219/403/20 220/404/20 218/372/20
f 221/388/20 222/381/20 220/404/20
f 203/375/553 223/395/553 224/387/553
f 208/369/554 207/399/554 206/394/554
f 223/395/20 222/381/20 221/388/20
f 187/406/555 219/403/555 217/402/555
f 194/407/556 196/383/556 212/385/556
f 200/408/557 180/409/557 204/405/557
f 179/376/558 203/375/558 204/405/558
f 193/410/559 191/391/559 215/390/559
f 202/370/560 208/369/560 205/393/560
f 201/412/561 207/399/561 210/384/561
f 190/373/562 218/372/562 220/404/562
f 201/412/563 183/392/563 206/394/563
f 197/368/564 195/377/564 211/379/564
f 186/386/565 221/388/565 219/403/565
f 192/371/566 194/407/566 214/400/566
f 226/414/567 321/607/567 327/415/567
f 289/417/568 288/429/568 382/418/568
f 241/420/569 349/453/569 353/421/569
f 304/423/570 303/434/570 397/424/570
f 264/426/571 225/715/571 319/427/571
f 288/429/572 287/926/572 381/430/572
f 242/431/573 348/927/573 352/432/573
f 303/434/574 302/928/574 396/435/574
f 286/436/575 380/446/575 381/437/575
f 243/439/576 347/463/576 351/440/576
f 301/442/577 395/451/577 396/443/577
f 286/436/578 285/929/578 320/445/578
f 240/447/579 244/468/579 346/448/579
f 300/450/580 394/455/580 395/451/580
f 241/420/581 245/930/581 345/452/581
f 299/454/582 393/629/582 394/455/582
f 246/456/583 344/482/583 348/457/583
f 298/459/584 392/634/584 393/460/584
f 247/462/585 343/931/585 347/463/585
f 298/464/586 297/469/586 391/465/586
f 248/467/587 342/635/587 346/448/587
f 297/469/588 296/478/588 390/470/588
f 274/471/589 370/480/589 324/472/589
f 245/474/590 249/498/590 341/475/590
f 295/477/591 389/656/591 390/470/591
f 274/471/592 273/932/592 369/479/592
f 246/456/593 250/933/593 340/481/593
f 295/483/594 304/423/594 318/425/594
f 273/485/595 272/492/595 368/486/595
f 247/488/596 251/510/596 339/489/596
f 271/491/597 367/497/597 368/486/597
f 252/493/598 338/630/598 342/494/598
f 271/491/599 270/500/599 366/496/599
f 249/498/600 253/934/600 337/499/600
f 270/500/601 269/505/601 365/501/601
f 250/502/602 254/935/602 336/503/602
f 269/505/603 268/733/603 364/506/603
f 284/507/604 379/610/604 322/508/604
f 251/510/605 255/936/605 335/511/605
f 229/512/606 361/665/606 325/513/606
f 227/515/607 265/937/607 266/516/607
f 230/518/608 266/938/608 267/519/608
f 234/520/197 267/519/197 268/521/197
f 238/523/609 268/939/609 269/524/609
f 269/524/610 270/940/610 246/526/610
f 246/527/611 270/941/611 271/528/611
f 250/529/612 271/528/612 272/530/612
f 272/530/202 273/942/202 258/532/202
f 273/533/613 274/536/613 262/534/613
f 274/536/614 265/937/614 227/515/614
f 275/537/615 276/943/615 231/538/615
f 231/540/616 276/944/616 277/541/616
f 277/541/28 278/544/28 239/543/28
f 278/544/207 279/945/207 243/545/207
f 243/546/617 279/946/617 280/547/617
f 247/549/618 280/947/618 281/550/618
f 281/550/210 282/553/210 255/552/210
f 282/553/23 283/948/23 259/554/23
f 283/555/619 284/558/619 263/556/619
f 284/558/620 275/537/620 226/539/620
f 225/559/621 285/582/621 286/560/621
f 286/562/622 287/565/622 236/563/622
f 287/565/215 288/567/215 240/566/215
f 288/567/623 289/949/623 244/568/623
f 289/569/624 290/950/624 248/570/624
f 290/572/625 291/951/625 252/573/625
f 252/573/626 291/951/626 292/575/626
f 256/576/220 292/575/220 293/577/220
f 260/579/627 293/952/627 294/580/627
f 264/581/628 294/580/628 285/582/628
f 304/583/629 295/953/629 51/584/629
f 295/586/630 296/589/630 305/587/630
f 296/589/28 297/591/28 306/590/28
f 297/591/631 298/954/631 52/592/631
f 52/593/632 298/955/632 299/594/632
f 307/596/633 299/956/633 300/597/633
f 53/598/634 300/597/634 301/599/634
f 308/600/23 301/599/23 302/601/23
f 309/603/635 302/957/635 303/604/635
f 303/604/636 304/583/636 310/585/636
f 326/428/637 319/427/637 318/425/637
f 388/606/638 327/415/638 321/607/638
f 328/609/639 323/663/639 322/508/639
f 329/611/640 325/513/640 324/472/640
f 396/435/641 330/679/641 326/428/641
f 387/612/642 331/685/642 327/415/642
f 332/613/643 328/609/643 379/610/643
f 333/615/644 329/611/644 370/480/644
f 395/451/645 334/625/645 330/616/645
f 386/617/646 335/511/646 331/618/646
f 377/620/647 336/503/647 332/621/647
f 337/499/648 333/958/648 369/623/648
f 394/455/649 338/630/649 334/625/649
f 385/626/650 339/489/650 335/511/650
f 340/504/651 336/503/651 377/620/651
f 367/628/652 341/475/652 337/499/652
f 393/629/653 342/494/653 338/630/653
f 343/490/654 339/489/654 385/626/654
f 375/632/655 344/959/655 340/504/655
f 345/476/656 341/475/656 367/628/656
f 392/634/657 346/448/657 342/635/657
f 347/463/658 343/931/658 384/636/658
f 374/638/659 348/457/659 344/482/659
f 349/453/660 345/452/660 366/640/660
f 350/642/661 346/960/661 392/466/661
f 351/643/662 347/961/662 383/419/662
f 373/644/663 352/962/663 348/645/663
f 364/647/664 353/421/664 349/453/664
f 354/648/665 350/642/665 391/465/665
f 355/649/666 351/643/666 382/418/666
f 356/650/667 352/962/667 373/644/667
f 363/652/668 357/661/668 353/653/668
f 358/655/669 354/648/669 390/470/669
f 359/657/670 355/649/670 381/430/670
f 371/659/671 360/963/671 356/650/671
f 362/660/672 361/964/672 357/661/672
f 319/427/673 358/716/673 389/484/673
f 321/607/674 359/723/674 380/662/674
f 323/663/675 360/965/675 371/664/675
f 324/472/676 325/513/676 361/665/676
f 236/667/677 240/966/677 350/642/677
f 290/668/678 289/967/678 383/637/678
f 227/669/679 323/732/679 328/670/679
f 239/672/680 351/643/680 355/649/680
f 291/674/681 290/968/681 384/631/681
f 228/514/682 325/513/682 329/611/682
f 238/433/683 352/432/683 356/676/683
f 291/674/684 385/626/684 386/617/684
f 264/426/685 326/428/685 330/679/685
f 276/681/686 275/509/686 322/508/686
f 237/682/687 353/653/687 357/661/687
f 292/678/688 386/617/688 387/619/688
f 263/416/689 327/415/689 331/685/689
f 276/687/690 371/659/690 372/651/690
f 232/689/691 236/667/691 354/648/691
f 294/690/692 293/969/692 387/612/692
f 258/691/693 262/671/693 328/670/693
f 278/693/694 277/688/694 372/651/694
f 231/694/695 235/970/695 355/695/695
f 294/690/696 388/606/696 320/608/696
f 261/675/697 329/611/697 333/615/697
f 279/699/698 278/971/698 373/700/698
f 234/677/699 356/676/699 360/702/699
f 260/704/700 330/616/700 334/625/700
f 280/706/701 279/972/701 374/638/701
f 229/707/702 233/973/702 357/708/702
f 255/710/703 259/974/703 331/711/703
f 280/713/704 375/632/704 376/627/704
f 225/715/705 232/975/705 358/716/705
f 254/717/706 258/691/706 332/692/706
f 281/714/707 376/627/707 377/620/707
f 265/720/708 324/976/708 362/721/708
f 226/414/709 231/977/709 359/723/709
f 253/724/710 257/978/710 333/725/710
f 282/727/711 377/979/711 378/728/711
f 266/722/712 362/721/712 363/730/712
f 227/669/713 230/703/713 360/702/713
f 252/493/714 256/705/714 334/625/714
f 284/507/715 283/980/715 378/614/715
f 267/731/716 363/730/716 364/506/716
f 233/734/311 312/981/311 313/735/311
f 237/737/717 313/982/717 56/738/717
f 57/740/313 316/983/313 257/741/313
f 311/743/718 312/981/718 233/734/718
f 311/745/719 229/984/719 228/746/719
f 56/738/720 314/985/720 245/748/720
f 316/749/721 317/986/721 261/750/721
f 315/752/722 57/740/722 253/742/722
f 314/754/723 315/752/723 249/753/723
f 261/750/724 317/986/724 55/747/724
f 400/756/725 401/872/725 402/757/725
f 403/759/726 402/873/726 406/760/726
f 407/761/323 406/760/323 410/762/323
f 411/764/727 410/874/727 414/765/727
f 414/765/728 418/987/728 419/767/728
f 419/768/729 418/875/729 422/769/729
f 423/770/730 422/769/730 426/771/730
f 426/771/328 430/988/328 431/773/328
f 430/774/731 434/777/731 435/775/731
f 434/777/732 401/872/732 400/756/732
f 400/778/733 403/989/733 404/779/733
f 404/781/734 403/876/734 407/782/734
f 407/782/333 411/785/333 412/784/333
f 411/785/735 415/990/735 416/786/735
f 416/787/736 415/877/736 419/788/736
f 420/790/737 419/878/737 423/791/737
f 424/792/738 423/791/738 427/793/738
f 428/794/338 427/793/338 431/795/338
f 431/797/739 435/800/739 436/798/739
f 435/800/740 400/778/740 399/780/740
f 398/801/741 399/824/741 404/802/741
f 404/804/742 408/807/742 409/805/742
f 408/807/343 412/809/343 413/808/343
f 412/809/743 416/991/743 417/810/743
f 416/811/744 420/992/744 421/812/744
f 420/814/745 424/879/745 425/815/745
f 425/815/746 424/879/746 428/817/746
f 429/818/348 428/817/348 432/819/348
f 433/821/747 432/880/747 436/822/747
f 437/823/748 436/822/748 399/824/748
f 398/825/749 405/993/749 438/826/749
f 405/828/750 409/831/750 439/829/750
f 409/831/353 413/833/353 440/832/353
f 413/833/751 417/994/751 441/834/751
f 441/835/752 417/881/752 421/836/752
f 442/838/753 421/882/753 425/839/753
f 443/840/754 425/839/754 429/841/754
f 444/842/358 429/841/358 433/843/358
f 445/845/755 433/883/755 437/846/755
f 437/846/756 398/825/756 447/827/756
f 406/848/361 450/857/361 451/849/361
f 410/851/757 451/884/757 452/852/757
f 455/854/363 456/886/363 430/855/363
f 450/857/758 406/848/758 402/858/758
f 449/860/759 402/995/759 401/861/759
f 414/853/760 452/852/760 453/863/760
f 456/865/761 457/885/761 434/866/761
f 454/868/762 455/854/762 426/856/762
f 453/870/763 454/868/763 422/869/763
f 434/866/764 457/885/764 448/862/764
f 465/756/765 497/758/765 498/757/765
f 497/759/766 493/761/766 494/760/766
f 493/761/767 489/763/767 490/762/767
f 489/764/768 485/766/768 486/765/768
f 481/767/769 482/987/769 486/765/769
f 481/768/770 477/770/770 478/769/770
f 477/770/771 473/772/771 474/771/771
f 469/773/772 470/988/772 474/771/772
f 464/775/773 466/777/773 470/774/773
f 465/756/774 467/872/774 466/777/774
f 496/779/775 497/989/775 465/778/775
f 496/781/776 492/783/776 493/782/776
f 488/784/777 489/785/777 493/782/777
f 484/786/778 485/990/778 489/785/778
f 484/787/779 480/789/779 481/788/779
f 480/790/780 476/792/780 477/791/780
f 476/792/781 472/794/781 473/793/781
f 472/794/782 468/796/782 469/795/782
f 462/798/783 464/800/783 469/797/783
f 463/780/784 465/778/784 464/800/784
f 461/801/785 495/803/785 496/802/785
f 491/805/786 492/807/786 496/804/786
f 487/808/787 488/809/787 492/807/787
f 483/810/788 484/991/788 488/809/788
f 479/812/789 480/992/789 484/811/789
f 475/815/790 476/879/790 480/814/790
f 475/815/791 471/818/791 472/817/791
f 471/818/792 458/820/792 468/819/792
f 458/821/793 460/823/793 462/822/793
f 460/823/794 461/801/794 463/824/794
f 506/826/795 495/993/795 461/825/795
f 505/829/796 491/831/796 495/828/796
f 500/832/797 487/833/797 491/831/797
f 499/834/798 483/994/798 487/833/798
f 499/835/799 502/837/799 479/836/799
f 502/838/800 507/840/800 475/839/800
f 507/840/801 501/842/801 471/841/801
f 501/842/802 459/844/802 458/843/802
f 459/845/803 504/847/803 460/846/803
f 503/827/804 461/825/804 460/846/804
f 494/848/805 490/850/805 515/849/805
f 490/851/806 486/853/806 514/852/806
f 470/855/807 510/886/807 511/854/807
f 498/858/808 494/848/808 516/857/808
f 467/861/809 498/995/809 517/860/809
f 486/853/810 482/864/810 513/863/810
f 466/866/811 508/885/811 510/865/811
f 474/856/812 511/854/812 512/868/812
f 478/869/813 512/868/813 513/870/813
f 466/866/814 467/861/814 509/862/814
f 502/837/815 499/835/815 441/835/815
f 454/868/816 512/868/816 511/854/816
f 441/834/817 499/834/817 500/832/817
f 453/870/818 513/870/818 512/868/818
f 440/832/819 500/832/819 505/829/819
f 503/827/820 504/847/820 446/847/820
f 452/852/821 514/852/821 513/863/821
f 439/829/822 505/829/822 506/830/822
f 504/847/823 459/845/823 445/845/823
f 515/884/824 514/852/824 452/852/824
f 438/826/825 506/826/825 503/827/825
f 459/844/826 501/842/826 444/842/826
f 516/857/827 515/849/827 451/849/827
f 457/885/828 508/885/828 509/862/828
f 501/842/829 507/840/829 443/840/829
f 517/859/830 516/857/830 450/857/830
f 456/865/831 510/865/831 508/885/831
f 507/840/832 502/838/832 442/838/832
f 509/862/833 517/860/833 449/860/833
f 455/854/834 511/854/834 510/886/834
