# Blender 4.2.1 LTS
# www.blender.org
mtllib can_2_closed.mtl
g can_2_closed_Mesh
v -0.000391 0.013535 -0.059519
v -0.003823 0.020903 -0.050333
v 0.002605 0.030059 -0.050530
v -0.000203 0.038335 -0.055321
v 0.029887 0.037487 -0.044898
v 0.033826 0.030949 -0.041538
v 0.034045 0.021848 -0.039492
v 0.037856 0.013077 -0.045458
v 0.056262 0.038324 -0.019064
v 0.054972 0.029931 -0.017329
v 0.055078 0.021873 -0.017510
v 0.056992 0.013535 -0.020935
v 0.056262 0.038324 0.017752
v 0.054972 0.029931 0.018648
v 0.055078 0.021873 0.018536
v 0.056992 0.013535 0.016419
v 0.029887 0.037427 0.047610
v 0.033826 0.029931 0.049069
v 0.034045 0.021910 0.048944
v 0.037856 0.014237 0.046639
v -0.000207 0.038470 0.057360
v 0.002605 0.030059 0.061437
v -0.003823 0.020903 0.061267
v -0.000391 0.013535 0.058182
v -0.028696 0.038757 0.047680
v -0.034607 0.029931 0.050319
v -0.034372 0.021835 0.050128
v -0.030423 0.012832 0.046639
v -0.057044 0.038324 0.017752
v -0.055753 0.029931 0.018648
v -0.055860 0.021873 0.018536
v -0.057773 0.013535 0.016419
v -0.057044 0.038324 -0.019064
v -0.055753 0.029931 -0.017329
v -0.055860 0.021873 -0.017510
v -0.057773 0.013535 -0.020935
v -0.028696 0.038818 -0.045018
v -0.034607 0.030949 -0.043584
v -0.034372 0.021774 -0.039492
v -0.030423 0.011672 -0.045458
v 0.034537 0.009525 -0.052838
v 0.055571 0.009608 -0.023201
v 0.055571 0.009608 0.014290
v 0.034537 0.009736 0.044620
v -0.000386 0.009608 0.056206
v -0.034307 0.009481 0.044620
v -0.056342 0.009608 0.014290
v -0.056342 0.009608 -0.023201
v -0.034307 0.009270 -0.052838
v -0.000386 0.009608 -0.064730
v -0.000389 0.043175 -0.059337
v 0.033125 0.042954 -0.048329
v 0.055128 0.043175 -0.019762
v 0.055128 0.043175 0.016315
v 0.033125 0.042954 0.045502
v -0.000389 0.043175 0.056651
v -0.033570 0.043281 0.045502
v -0.055905 0.043175 0.016315
v -0.055905 0.043175 -0.019762
v -0.033570 0.043281 -0.048329
v -0.055765 0.013457 -0.020139
v -0.054410 0.009453 -0.022316
v -0.029286 0.011402 -0.043783
v -0.000343 0.013217 -0.057554
v -0.033180 0.021738 -0.037679
v -0.003698 0.020809 -0.048182
v -0.033454 0.030981 -0.041745
v 0.002502 0.030129 -0.048370
v -0.027617 0.038941 -0.043167
v -0.000194 0.038495 -0.053200
v -0.053839 0.021846 -0.016717
v -0.053724 0.029947 -0.016556
v -0.055022 0.038350 -0.018274
v -0.055727 0.013566 0.015696
v -0.053801 0.021879 0.017842
v -0.053694 0.029918 0.017960
v -0.055002 0.038301 0.017013
v -0.029232 0.012919 0.044841
v -0.033072 0.021882 0.048393
v -0.033319 0.029876 0.048577
v -0.027558 0.038699 0.045837
v -0.000382 0.013643 0.056033
v -0.003723 0.020957 0.059103
v 0.002486 0.030004 0.059274
v -0.000208 0.038390 0.055201
v 0.036502 0.014320 0.044958
v 0.032762 0.021924 0.047192
v 0.032513 0.029895 0.047341
v 0.028690 0.037362 0.045807
v 0.054919 0.013585 0.015787
v 0.053009 0.021846 0.017880
v 0.052914 0.029924 0.017955
v 0.054216 0.038301 0.017025
v 0.054939 0.013489 -0.020238
v 0.053045 0.021819 -0.016762
v 0.052947 0.029952 -0.016546
v 0.054235 0.038353 -0.018287
v 0.036544 0.012891 -0.043813
v 0.032871 0.021762 -0.037681
v 0.032646 0.030998 -0.039720
v 0.028772 0.037600 -0.043063
v 0.033306 0.009908 0.042902
v 0.053513 0.009749 0.013726
v -0.054285 0.009674 0.013618
v -0.000344 0.009730 0.054063
v -0.000327 0.009204 -0.062906
v -0.033230 0.008887 -0.051315
v 0.053542 0.009610 -0.022425
v 0.033483 0.009266 -0.051094
v -0.032931 0.009530 0.042946
v -0.032373 0.043469 -0.046601
v -0.000352 0.043395 -0.057262
v -0.053902 0.043227 -0.018934
v -0.053859 0.043148 0.015590
v -0.032242 0.043277 0.043783
v -0.000371 0.043136 0.054482
v 0.031824 0.042926 0.043765
v 0.053074 0.043134 0.015618
v 0.053107 0.043203 -0.018970
v 0.031940 0.043108 -0.046564
v -0.000378 0.000023 -0.059109
v -0.000378 0.053429 -0.054757
v 0.030488 0.000023 -0.048727
v 0.030488 0.053429 -0.044729
v 0.049563 0.000023 -0.021546
v 0.049563 0.053429 -0.018473
v 0.049563 0.000023 0.012050
v 0.049563 0.053429 0.013981
v 0.030488 0.000023 0.039230
v 0.030488 0.053429 0.040237
v -0.000378 0.000023 0.049612
v -0.000378 0.053429 0.050265
v -0.031244 0.000023 0.039230
v -0.031244 0.053429 0.040237
v -0.050320 0.000023 0.012050
v -0.050320 0.053429 0.013981
v -0.050320 0.000023 -0.021546
v -0.050320 0.053429 -0.018473
v -0.031244 0.000023 -0.048727
v -0.031244 0.053429 -0.044729
v -0.000378 0.000023 -0.063781
v 0.033140 0.000023 -0.052507
v 0.033140 0.053429 -0.048380
v -0.000378 0.053429 -0.059271
v 0.053856 0.000023 -0.022990
v 0.053856 0.053429 -0.019867
v 0.053856 0.000023 0.013494
v 0.053856 0.053429 0.015376
v 0.033140 0.000023 0.043010
v 0.033140 0.053429 0.043888
v -0.000378 0.000023 0.054285
v -0.000378 0.053429 0.054779
v -0.033897 0.000023 0.043010
v -0.033897 0.053429 0.043888
v -0.054612 0.000023 0.013494
v -0.054612 0.053429 0.015376
v -0.054612 0.000023 -0.022990
v -0.054612 0.053429 -0.019867
v -0.033897 0.000023 -0.052507
v -0.033897 0.053429 -0.048380
v -0.000378 0.000695 0.049612
v -0.000378 0.000695 -0.059109
v 0.030488 0.000695 0.039230
v 0.030488 0.000695 -0.048727
v -0.031244 0.000695 0.039230
v -0.031244 0.000695 -0.048727
v 0.049563 0.000695 -0.021546
v 0.049563 0.000695 0.012050
v -0.050320 0.000695 0.012050
v -0.050320 0.000695 -0.021546
v 0.033469 0.001215 -0.051343
v 0.053856 0.001292 0.013718
v 0.033469 0.001411 0.043115
v -0.054612 0.001292 0.013718
v 0.032300 0.051471 -0.047473
v 0.053754 0.051678 -0.019619
v 0.053754 0.051678 0.015559
v -0.054511 0.051678 -0.019619
v -0.032733 0.051778 -0.047473
v -0.000379 0.000167 -0.065216
v 0.033964 0.000115 -0.053728
v 0.034009 0.053347 -0.049576
v -0.000380 0.053325 -0.060737
v -0.000376 0.051574 -0.059674
v 0.034415 0.001293 -0.052481
v 0.055275 0.000046 -0.023468
v 0.055271 0.053390 -0.020348
v 0.055292 0.001313 -0.023046
v 0.055290 0.000009 0.013928
v 0.055282 0.053411 0.015833
v 0.055279 0.001277 0.014184
v 0.034025 0.000000 0.044218
v 0.034047 0.053414 0.045081
v 0.034377 0.001388 0.044305
v -0.000382 0.000017 0.055784
v -0.000379 0.053424 0.056278
v -0.000378 0.001286 0.055842
v -0.034828 0.000038 0.044184
v -0.034818 0.053402 0.045068
v -0.034109 0.001186 0.044346
v -0.056044 0.000034 0.013936
v -0.056037 0.053403 0.015836
v -0.056034 0.001305 0.014189
v -0.056021 0.000080 -0.023471
v -0.056024 0.053380 -0.020350
v -0.056041 0.001343 -0.023046
v -0.034748 0.000157 -0.053672
v -0.034773 0.053332 -0.049561
v -0.034132 0.001109 -0.052491
v -0.000376 0.001436 -0.064304
v 0.033157 0.051389 -0.048678
v 0.055177 0.051640 -0.020080
v 0.055173 0.051659 0.016041
v 0.033148 0.051458 0.045254
v -0.000375 0.051674 0.056387
v -0.033561 0.051756 0.045265
v -0.055928 0.051652 0.016039
v -0.055931 0.051631 -0.020078
v -0.033572 0.051680 -0.048680
v 0.019901 0.052757 -0.008010
v 0.011294 0.052757 0.008246
v -0.000378 0.052757 0.013481
v -0.012051 0.052757 0.008246
v -0.020658 0.052757 -0.008010
v 0.049563 0.052757 0.013981
v 0.030488 0.052757 0.040237
v -0.000378 0.052757 0.050265
v -0.031244 0.052757 0.040237
v -0.050320 0.052757 0.013981
v 0.030488 0.052757 -0.044729
v -0.000378 0.052757 -0.054757
v 0.049563 0.052757 -0.018473
v -0.031244 0.052757 -0.044729
v -0.050320 0.052757 -0.018473
v -0.012094 0.054119 -0.010657
v -0.011895 0.054119 -0.005271
v 0.011139 0.054119 -0.005271
v 0.011338 0.054119 -0.010657
v -0.004098 0.054119 -0.027955
v -0.007199 0.054119 0.001606
v 0.024374 0.052757 -0.009599
v 0.017442 0.052757 0.016755
v -0.000378 0.052757 0.022591
v -0.018198 0.052757 0.016755
v -0.025130 0.052757 -0.009599
v -0.000378 0.054119 -0.025109
v -0.000378 0.054119 0.003953
v 0.006442 0.054119 0.001606
v 0.003342 0.054119 -0.027955
v 0.007974 0.053565 -0.038655
v 0.010809 0.053565 0.005694
v -0.000378 0.053565 0.010929
v -0.000378 0.053565 -0.043890
v -0.011565 0.053565 0.005694
v -0.008730 0.053565 -0.038655
v 0.010117 0.053565 -0.031280
v 0.017724 0.053565 -0.008010
v -0.018480 0.053565 -0.008010
v -0.010874 0.053565 -0.031280
v -0.000378 0.054119 -0.035928
v -0.004197 0.054119 -0.033553
v -0.009183 0.054119 -0.031280
v -0.015564 0.054119 -0.008010
v -0.009763 0.054119 0.003073
v -0.000378 0.054119 0.008307
v 0.009007 0.054119 0.003072
v 0.014808 0.054119 -0.008010
v 0.008427 0.054119 -0.031280
v 0.003441 0.054119 -0.033553
v -0.006242 0.053396 0.000202
v -0.005888 0.053396 -0.017598
v -0.000378 0.053396 0.002220
v -0.000378 0.053396 -0.019286
v 0.005131 0.053396 -0.017598
v 0.005485 0.053396 0.000202
v -0.010450 0.053396 -0.010340
v -0.010279 0.053396 -0.005709
v 0.009522 0.053396 -0.005709
v 0.009693 0.053396 -0.010340
v -0.000378 0.054119 -0.040895
v -0.007385 0.054119 -0.035661
v 0.006629 0.054119 -0.035661
v -0.000378 0.054119 -0.021064
v -0.006787 0.054119 -0.019100
v 0.006031 0.054119 -0.019100
v -0.000378 0.053562 -0.026142
v -0.000378 0.053562 -0.034953
v -0.003488 0.053562 -0.033019
v 0.002732 0.053562 -0.033019
v -0.003407 0.053562 -0.028460
v 0.002651 0.053562 -0.028460
v -0.009363 0.052588 -0.040811
v -0.000378 0.052588 -0.046046
v 0.008607 0.052588 -0.040811
v 0.025017 0.052715 -0.042846
v 0.014077 0.052630 -0.042397
v -0.000378 0.052630 -0.048830
v -0.000378 0.052715 -0.051677
v -0.025774 0.052715 -0.042846
v -0.014833 0.052630 -0.042397
v 0.012505 0.052757 -0.029616
v 0.011500 0.052737 -0.034035
v 0.011411 0.052977 -0.031280
v -0.012256 0.052737 -0.034035
v -0.013261 0.052757 -0.029616
v -0.012167 0.052977 -0.031280
v 0.032518 0.052757 -0.014352
v 0.037684 0.052757 -0.014639
v 0.039499 0.052757 0.007321
v 0.034052 0.052757 0.006196
v 0.027202 0.052757 0.032069
v 0.024130 0.052757 0.026063
v -0.000378 0.052757 0.042071
v -0.000378 0.052757 0.035385
v -0.027958 0.052757 0.032069
v -0.024886 0.052757 0.026063
v -0.040255 0.052757 0.007321
v -0.034808 0.052757 0.006196
v -0.038440 0.052757 -0.014639
v -0.033274 0.052757 -0.014352
v 0.021450 0.052757 -0.026463
v 0.020647 0.052746 -0.031482
v -0.022206 0.052757 -0.026463
v -0.021403 0.052746 -0.031482
v 0.013618 0.052678 -0.030169
v 0.012762 0.052658 -0.032415
v -0.013518 0.052658 -0.032415
v -0.014374 0.052678 -0.030169
v -0.022204 0.052678 -0.027431
v -0.021402 0.052667 -0.029698
v -0.035830 0.052678 -0.014638
v -0.034701 0.052678 -0.014351
v -0.037522 0.052678 0.007321
v -0.036304 0.052678 0.006196
v -0.026824 0.052678 0.029505
v -0.025950 0.052678 0.027734
v -0.000378 0.052678 0.039508
v -0.000378 0.052678 0.037419
v 0.026068 0.052678 0.029505
v 0.025194 0.052678 0.027734
v 0.036765 0.052678 0.007321
v 0.035547 0.052678 0.006196
v 0.035074 0.052678 -0.014638
v 0.033945 0.052678 -0.014351
v 0.021448 0.052678 -0.027431
v 0.020646 0.052667 -0.029698
v -0.000378 0.015537 -0.056110
v -0.003803 0.022194 -0.047346
v 0.002782 0.030536 -0.048026
v -0.000378 0.038073 -0.052787
v 0.028018 0.037184 -0.042850
v 0.031960 0.031344 -0.039611
v 0.031960 0.023134 -0.037273
v 0.035906 0.015118 -0.042717
v 0.053239 0.038073 -0.018350
v 0.051947 0.030363 -0.016613
v 0.051947 0.023134 -0.016613
v 0.053856 0.015537 -0.019867
v 0.053239 0.038073 0.016492
v 0.051947 0.030363 0.017389
v 0.051947 0.023134 0.017389
v 0.053856 0.015537 0.015376
v 0.028018 0.037184 0.044680
v 0.031960 0.030363 0.046141
v 0.031960 0.023134 0.046141
v 0.035906 0.016179 0.043888
v -0.000378 0.038073 0.055447
v 0.002782 0.030536 0.057830
v -0.003803 0.022194 0.057830
v -0.000378 0.015537 0.054779
v -0.026799 0.038502 0.044680
v -0.032717 0.030363 0.047323
v -0.032717 0.023134 0.047323
v -0.028497 0.014895 0.043888
v -0.053995 0.038073 0.016492
v -0.052703 0.030363 0.017389
v -0.052703 0.023134 0.017389
v -0.054612 0.015537 0.015376
v -0.053995 0.038073 -0.018350
v -0.052703 0.030363 -0.016613
v -0.052703 0.023134 -0.016613
v -0.054612 0.015537 -0.019867
v -0.026799 0.038502 -0.042850
v -0.032717 0.031344 -0.041646
v -0.032717 0.023134 -0.037273
v -0.028497 0.013835 -0.042717
v -0.000024 0.036776 -0.052254
v 0.028459 0.036124 -0.042488
v 0.053094 0.036757 -0.018155
v 0.053094 0.036757 0.016593
v 0.028459 0.036014 0.044844
v -0.000024 0.036776 0.055714
v -0.027461 0.037115 0.044976
v -0.053850 0.036757 0.016593
v -0.053850 0.036757 -0.018155
v -0.027461 0.037225 -0.042716
v 0.002125 0.029259 -0.047958
v 0.031960 0.030071 -0.039377
v 0.051947 0.029199 -0.016613
v 0.051947 0.029199 0.017389
v 0.031960 0.029199 0.046141
v 0.002125 0.029259 0.057830
v -0.032717 0.029199 0.047323
v -0.052703 0.029199 0.017389
v -0.052703 0.029199 -0.016613
v -0.032717 0.030071 -0.041209
v -0.003442 0.020947 -0.048268
v 0.032375 0.021727 -0.037846
v 0.052147 0.021771 -0.016955
v 0.052147 0.021771 0.017178
v 0.032375 0.021838 0.045904
v -0.003442 0.020947 0.057509
v -0.032273 0.021703 0.046962
v -0.052903 0.021771 0.017178
v -0.052903 0.021771 -0.016955
v -0.032273 0.021592 -0.037846
v 0.035634 0.013787 -0.043681
v 0.053856 0.014201 -0.020175
v 0.053856 0.014201 0.015190
v 0.035634 0.014837 0.043802
v -0.000378 0.014201 0.054730
v -0.029029 0.013566 0.043802
v -0.054612 0.014201 0.015190
v -0.054612 0.014201 -0.020175
v -0.029029 0.012515 -0.043681
v -0.000378 0.014201 -0.056865
v 0.053856 0.001292 -0.022619
v -0.000378 0.001292 0.054343
v -0.033255 0.001173 0.043115
v -0.054612 0.001292 -0.022619
v -0.033255 0.000977 -0.051343
v -0.000378 0.001292 -0.062869
v -0.000378 0.051678 -0.058208
v 0.032300 0.051471 0.044018
v -0.000378 0.051678 0.054888
v -0.032733 0.051778 0.044018
v -0.054511 0.051678 0.015559
v -0.000260 0.014415 -0.056528
v -0.000327 0.015157 -0.055754
v -0.003469 0.021125 -0.047747
v -0.003769 0.021825 -0.046809
v 0.002122 0.029515 -0.047404
v 0.002710 0.030360 -0.047477
v -0.000057 0.037001 -0.051775
v -0.000303 0.037836 -0.052320
v -0.028089 0.013295 -0.042354
v -0.032339 0.022869 -0.036781
v -0.032426 0.031215 -0.041166
v -0.026429 0.038249 -0.042394
v -0.053992 0.015214 -0.019716
v -0.052051 0.022882 -0.016412
v -0.052042 0.030164 -0.016430
v -0.053388 0.037812 -0.018102
v -0.053981 0.015244 0.015111
v -0.052021 0.022905 0.017237
v -0.052013 0.030157 0.017261
v -0.053358 0.037801 0.016245
v -0.028087 0.014538 0.043446
v -0.032232 0.022936 0.047042
v -0.032292 0.030152 0.046985
v -0.026363 0.038210 0.044261
v -0.000362 0.015254 0.054297
v -0.003783 0.021922 0.057409
v 0.002703 0.030343 0.057405
v -0.000319 0.037777 0.054985
v 0.035491 0.015970 0.043513
v 0.031534 0.022904 0.045775
v 0.031486 0.030163 0.045812
v 0.027578 0.036893 0.044271
v 0.053182 0.015260 0.015202
v 0.051256 0.022886 0.017231
v 0.051249 0.030157 0.017248
v 0.052574 0.037806 0.016285
v 0.053184 0.015236 -0.019806
v 0.051284 0.022867 -0.016423
v 0.051284 0.030161 -0.016402
v 0.052598 0.037820 -0.018153
v 0.035480 0.014739 -0.042392
v 0.031647 0.022838 -0.036757
v 0.031609 0.031214 -0.039125
v 0.027664 0.036941 -0.042395
v 0.028039 0.036297 -0.042069
v 0.052457 0.036963 -0.017943
v 0.052448 0.036948 0.016334
v 0.027994 0.036137 0.044459
v -0.000086 0.036940 0.055256
v -0.027005 0.037305 0.044582
v -0.053215 0.036943 0.016337
v -0.053224 0.036956 -0.017945
v -0.027048 0.037457 -0.042289
v 0.031590 0.030384 -0.038900
v 0.051267 0.029435 -0.016446
v 0.051249 0.029431 0.017248
v 0.031483 0.029437 0.045815
v 0.002141 0.029496 0.057400
v -0.032288 0.029427 0.046988
v -0.052013 0.029431 0.017261
v -0.052027 0.029438 -0.016469
v -0.032385 0.030385 -0.040746
v 0.032084 0.021984 -0.037330
v 0.051506 0.022061 -0.016728
v 0.051447 0.022081 0.017056
v 0.031913 0.022172 0.045565
v -0.003491 0.021221 0.057080
v -0.031825 0.022058 0.046641
v -0.052213 0.022098 0.017058
v -0.052273 0.022077 -0.016712
v -0.031971 0.021863 -0.037314
v 0.035305 0.014036 -0.043306
v 0.053208 0.014493 -0.020050
v 0.053167 0.014518 0.015062
v 0.035236 0.015160 0.043409
v -0.000309 0.014513 0.054250
v -0.028567 0.013866 0.043399
v -0.053978 0.014504 0.014931
v -0.054063 0.014464 -0.019886
v -0.028631 0.012738 -0.043333
vn 0.2716 -0.3054 -0.9127
vn 0.7252 -0.2445 -0.6437
vn 0.9884 -0.1519 -0.0000
vn 0.7217 0.4768 0.5017
vn 0.3461 0.3512 0.8700
vn -0.2595 0.4321 0.8637
vn -0.6740 0.5859 0.4500
vn -0.9884 -0.1519 -0.0000
vn -0.7510 -0.2424 -0.6143
vn -0.1843 -0.0406 -0.9820
vn 0.2739 -0.2124 -0.9380
vn 0.7223 0.0250 -0.6911
vn 0.9999 0.0132 -0.0000
vn 0.8224 0.0029 0.5689
vn 0.3066 -0.2324 0.9231
vn -0.3433 -0.0321 0.9387
vn -0.8269 0.0031 0.5624
vn -0.9999 0.0132 -0.0000
vn -0.7148 0.0251 -0.6989
vn -0.3175 -0.3930 -0.8630
vn 0.2773 0.6198 -0.7341
vn 0.6209 0.6071 -0.4959
vn 0.9747 0.2237 -0.0000
vn 0.8440 0.0584 0.5331
vn 0.2884 -0.1412 0.9470
vn -0.3039 -0.4849 0.8201
vn -0.7414 -0.0001 0.6710
vn -0.9747 0.2237 -0.0000
vn -0.6495 0.1821 -0.7382
vn -0.3511 0.6620 -0.6622
vn 0.2025 0.7822 -0.5892
vn 0.7452 0.4048 -0.5300
vn 0.9403 -0.3404 -0.0000
vn 0.7014 -0.5190 0.4886
vn 0.2856 -0.4307 0.8561
vn -0.3165 -0.1929 0.9288
vn -0.6907 -0.5229 0.4996
vn -0.9395 -0.3426 -0.0000
vn -0.2359 0.9537 -0.1863
vn -0.2139 0.7801 -0.5880
vn 0.9737 0.2277 -0.0000
vn 0.7391 -0.1862 0.6473
vn -0.9735 0.2285 -0.0000
vn 0.6056 -0.6483 -0.4614
vn 0.2429 -0.6139 -0.7511
vn 0.3094 0.1535 0.9385
vn -0.6748 0.0525 -0.7361
vn -0.6601 -0.4074 0.6311
vn -0.3179 0.1294 0.9393
vn -0.2761 -0.6200 -0.7344
vn -0.2906 0.4064 0.8662
vn -0.6959 -0.0455 0.7167
vn -0.9885 0.1515 -0.0003
vn -0.7482 0.0429 -0.6621
vn -0.3463 -0.3556 -0.8681
vn 0.3016 -0.3364 -0.8921
vn 0.6767 -0.5819 -0.4511
vn 0.9880 0.1541 -0.0007
vn 0.7511 0.2416 0.6144
vn 0.1820 0.0420 0.9824
vn -0.2752 0.2020 0.9399
vn -0.7433 0.1268 0.6569
vn -0.9999 -0.0120 -0.0010
vn -0.8228 -0.0045 -0.5683
vn -0.3693 0.0059 -0.9293
vn 0.2824 -0.1759 -0.9430
vn 0.8319 0.0384 -0.5535
vn 0.9999 -0.0134 -0.0009
vn 0.7120 -0.0240 0.7018
vn 0.3200 0.3895 0.8637
vn -0.1487 -0.7937 0.5898
vn -0.6214 -0.6031 0.5002
vn -0.9751 -0.2217 0.0001
vn -0.8447 -0.0606 -0.5318
vn -0.2872 0.1372 -0.9480
vn 0.3059 0.4839 -0.8199
vn 0.7167 0.4999 -0.4863
vn 0.9742 -0.2255 -0.0008
vn 0.6484 -0.4104 0.6412
vn 0.2963 -0.4004 0.8671
vn -0.2036 -0.7836 0.5870
vn -0.7393 -0.4248 0.5224
vn -0.9404 0.3399 -0.0020
vn -0.7012 0.5194 -0.4884
vn -0.2492 0.5515 -0.7961
vn 0.3174 0.4289 -0.8458
vn 0.6771 -0.3899 -0.6242
vn 0.9373 0.3484 -0.0020
vn 0.6467 -0.1837 0.7403
vn 0.1699 -0.9580 0.2309
vn -0.9739 -0.2268 -0.0014
vn -0.7487 -0.3423 -0.5678
vn 0.9733 -0.2297 -0.0009
vn -0.6077 0.6445 0.4639
vn -0.2432 0.6144 0.7506
vn -0.3124 -0.1673 -0.9351
vn 0.6720 -0.0542 0.7385
vn 0.6633 0.3929 -0.6370
vn 0.3198 -0.1312 -0.9384
vn 0.2190 0.7251 0.6529
vn -0.0152 -0.9983 -0.0567
vn 0.0092 0.9999 -0.0107
vn -0.0737 -0.9962 -0.0469
vn 0.0032 1.0000 0.0002
vn -0.0009 -1.0000 -0.0000
vn -0.0654 -0.9746 -0.2142
vn 0.0006 0.9998 -0.0179
vn 0.1140 -0.9904 -0.0781
vn -0.1770 -0.9768 -0.1204
vn -0.0179 0.9998 -0.0060
vn 0.0720 -0.9732 -0.2183
vn -0.0803 -0.9968 -0.0000
vn 0.0139 0.9999 -0.0000
vn -0.0317 0.9940 -0.1050
vn 0.0245 -0.9995 -0.0220
vn 0.0550 0.9972 -0.0501
vn -0.0760 0.9955 -0.0557
vn 0.0108 -0.9997 -0.0207
vn 0.0414 0.9935 -0.1063
vn -0.0263 0.9997 -0.0000
vn 0.0100 0.9999 -0.0033
vn -0.0038 -0.9999 0.0094
vn -0.0232 -0.9984 0.0514
vn 0.0089 1.0000 0.0010
vn -0.0212 0.9976 -0.0660
vn -0.0190 -0.9995 0.0234
vn 0.0309 0.9994 0.0151
vn -0.0331 -0.9945 -0.0994
vn -0.8090 -0.0000 0.5878
vn 0.0223 0.9973 -0.0707
vn 0.0035 0.9999 0.0098
vn 0.3188 -0.0000 -0.9478
vn 0.8090 -0.0000 0.5878
vn -0.8185 -0.0000 0.5745
vn -0.3090 -0.0000 -0.9511
vn 0.8185 -0.0000 0.5745
vn -0.3090 -0.0000 0.9511
vn -0.3188 -0.0000 -0.9478
vn -0.0000 -1.0000 -0.0000
vn -0.0000 1.0000 -0.0000
vn 0.3188 -0.0000 0.9478
vn 0.3090 -0.0000 -0.9511
vn -1.0000 -0.0000 -0.0000
vn 0.3090 -0.0000 0.9511
vn 0.8185 -0.0000 -0.5745
vn 0.8090 -0.0000 -0.5878
vn -0.8185 -0.0000 -0.5745
vn 1.0000 -0.0000 -0.0000
vn -0.8090 -0.0000 -0.5878
vn -0.3188 -0.0000 0.9478
vn -0.0132 -0.9999 0.0005
vn 0.0242 0.9950 0.0964
vn 0.0205 -0.9979 -0.0609
vn -0.0020 -1.0000 -0.0044
vn -0.0025 -1.0000 -0.0088
vn -0.0276 0.9994 -0.0201
vn -0.0074 -1.0000 -0.0028
vn -0.0781 -0.9953 -0.0576
vn 0.0103 0.9999 0.0073
vn 0.0024 -0.9999 -0.0162
vn 0.2674 -0.4996 -0.8240
vn 0.7857 -0.1349 -0.6038
vn 0.9981 -0.0623 0.0001
vn 0.7627 -0.2999 0.5730
vn 0.3150 0.0599 0.9472
vn -0.3171 0.0585 0.9466
vn -0.7003 -0.4697 0.5376
vn -0.9981 -0.0619 0.0001
vn -0.7804 -0.1365 -0.6103
vn -0.2738 -0.4995 -0.8219
vn -0.2633 0.5631 -0.7833
vn -0.5138 0.7788 -0.3599
vn -0.9999 -0.0153 -0.0006
vn -0.8140 -0.1073 0.5709
vn -0.3184 0.0662 0.9456
vn 0.3183 -0.0446 0.9469
vn 0.8136 -0.1084 0.5712
vn 0.9999 -0.0132 -0.0004
vn 0.7844 0.2832 -0.5518
vn 0.2631 0.5624 -0.7839
vn -0.0009 1.0000 0.0029
vn 0.0129 -0.9999 -0.0091
vn -0.0044 1.0000 0.0044
vn 0.0457 0.9983 -0.0347
vn 0.0029 0.9998 0.0175
vn -0.0065 -1.0000 0.0046
vn 0.0098 0.9999 0.0028
vn -0.0148 0.9998 0.0108
vn 0.0202 -0.9973 0.0707
vn -0.0100 -1.0000 -0.0000
vn -0.0141 0.9999 -0.0000
vn 0.0573 -0.9975 0.0412
vn 0.0273 0.9996 -0.0006
vn -0.0465 0.9985 0.0303
vn -0.0401 -0.9992 -0.0012
vn 0.0330 -0.9995 -0.0000
vn -0.0315 0.9946 0.0993
vn -0.0179 0.9998 -0.0000
vn 0.0156 -0.9998 -0.0085
vn -0.0131 -0.9999 -0.0095
vn -0.1313 0.9149 -0.3817
vn -0.3558 0.9074 0.2236
vn 0.3559 0.9074 0.2237
vn 0.1313 0.9149 -0.3817
vn 0.1342 0.9447 0.2992
vn 0.3939 0.8952 0.2086
vn 0.0024 0.9999 -0.0121
vn 0.0015 1.0000 -0.0022
vn -0.0133 0.9995 0.0298
vn 0.3979 0.9081 -0.1301
vn -0.3165 0.9458 -0.0720
vn -0.3426 0.9234 0.1729
vn -0.0048 0.9999 0.0137
vn 0.0133 0.9995 0.0298
vn -0.1295 0.9521 0.2769
vn 0.0089 0.9998 0.0152
vn -0.1857 0.9778 0.0972
vn -0.1133 0.9770 -0.1807
vn 0.1863 0.9806 -0.0609
vn -0.0839 0.9851 0.1504
vn 0.1738 0.9809 0.0877
vn 0.1019 0.9854 -0.1365
vn -0.3102 0.9469 -0.0851
vn 0.0963 0.9739 0.2057
vn 0.3088 0.9426 -0.1268
vn -0.2419 0.9677 -0.0703
vn 0.3413 0.8274 -0.4461
vn 0.6230 0.7822 -0.0110
vn 0.4050 0.9142 -0.0150
vn -0.1147 0.9202 0.3742
vn -0.3433 0.9095 -0.2344
vn 0.3433 0.9095 -0.2344
vn 0.1147 0.9202 0.3742
vn -0.4049 0.9142 -0.0149
vn 0.2948 0.8297 0.4741
vn -0.6231 0.7821 -0.0110
vn -0.3413 0.8273 -0.4461
vn -0.2948 0.8297 0.4741
vn -0.2187 0.9112 -0.3490
vn 0.2339 0.8855 -0.4015
vn 0.0126 0.9998 -0.0167
vn 0.0048 0.9999 0.0137
vn -0.3980 0.9081 -0.1301
vn -0.0089 0.9998 0.0152
vn -0.0015 1.0000 -0.0022
vn 0.2844 0.9481 -0.1423
vn 0.3016 0.9507 -0.0730
vn -0.3015 0.9507 -0.0729
vn 0.0445 0.9980 0.0444
vn 0.0145 0.9992 0.0382
vn 0.0295 0.9961 -0.0836
vn 0.0290 0.9995 -0.0140
vn 0.0555 0.9985 -0.0041
vn -0.0529 0.9986 -0.0041
vn -0.0303 0.9991 0.0283
vn -0.0112 0.9995 -0.0309
vn -0.0560 0.9980 -0.0304
vn 0.0853 0.9930 -0.0815
vn -0.0069 0.9999 -0.0074
vn 0.0023 0.9999 -0.0099
vn -0.0023 0.9999 -0.0099
vn 0.0070 0.9999 -0.0074
vn -0.0329 0.9993 -0.0164
vn -0.0424 0.9989 0.0204
vn -0.0165 0.9989 0.0444
vn 0.0965 0.9950 -0.0265
vn 0.0100 0.9996 -0.0265
vn 0.0187 0.9978 0.0634
vn -0.0554 0.9972 -0.0507
vn 0.0529 0.9982 0.0264
vn -0.0286 0.9963 -0.0816
vn 0.0304 0.9995 0.0023
vn -0.0290 0.9996 0.0024
vn -0.0148 0.9991 0.0390
vn -0.1590 -0.9149 -0.3709
vn 0.4164 0.8641 0.2826
vn 0.2970 -0.9251 0.2366
vn -0.2600 0.8542 -0.4504
vn -0.2843 -0.6732 -0.6826
vn 0.4051 0.9143 0.0002
vn 0.2471 -0.9536 0.1718
vn -0.2336 0.9178 -0.3210
vn 0.3061 0.9062 -0.2917
vn 0.2900 -0.9356 0.2016
vn -0.4319 0.9019 -0.0000
vn 0.0954 0.9113 -0.4006
vn 0.3211 -0.9204 0.2229
vn -0.3095 0.9034 0.2968
vn 0.1493 -0.8748 0.4609
vn -0.1874 0.8781 0.4403
vn 0.1388 -0.9225 0.3602
vn 0.1538 0.8188 0.5531
vn 0.1521 -0.9071 0.3925
vn 0.4413 0.8589 0.2597
vn 0.1277 -0.9198 0.3711
vn 0.4184 0.9082 -0.0002
vn -0.1356 0.8932 -0.4288
vn -0.2219 -0.8339 0.5053
vn 0.3471 0.8935 -0.2848
vn -0.2573 0.9314 -0.2574
vn -0.1227 -0.8952 0.4285
vn 0.1718 0.8830 -0.4367
vn -0.3034 0.9529 0.0004
vn -0.2197 -0.8240 0.5222
vn -0.2091 0.9608 0.1822
vn -0.1717 -0.8518 0.4950
vn -0.1142 0.9405 0.3200
vn -0.3067 -0.9004 0.3087
vn 0.1482 0.9372 0.3156
vn -0.3027 -0.9317 0.2007
vn 0.1370 0.9796 0.1473
vn -0.0579 0.9064 -0.4184
vn -0.2780 -0.9425 0.1855
vn 0.1350 -0.8754 -0.4641
vn 0.2690 -0.3444 -0.8995
vn 0.7181 -0.2822 -0.6361
vn 0.9843 -0.1766 -0.0000
vn 0.6917 0.5389 0.4808
vn 0.3419 0.4064 0.8473
vn -0.2793 0.1934 0.9405
vn -0.6367 0.6433 0.4251
vn -0.9843 -0.1766 -0.0000
vn -0.7449 -0.2797 -0.6057
vn -0.1773 -0.0206 -0.9839
vn 0.2658 -0.3023 -0.9154
vn 0.7187 -0.0000 -0.6953
vn 0.8211 -0.0000 0.5708
vn 0.3063 -0.2570 0.9166
vn -0.3415 -0.0000 0.9399
vn -0.8317 -0.0000 0.5553
vn -0.7187 -0.0000 -0.6953
vn -0.3039 -0.4701 -0.8286
vn 0.2668 0.6601 -0.7022
vn 0.5848 0.6600 -0.4715
vn 0.9644 0.2643 -0.0000
vn 0.8445 0.0783 0.5299
vn 0.2864 -0.1579 0.9450
vn -0.2889 -0.5568 0.7788
vn -0.7373 0.0068 0.6755
vn -0.9644 0.2643 -0.0000
vn -0.6446 0.1562 -0.7484
vn -0.3383 0.7077 -0.6203
vn 0.2959 0.4028 -0.8661
vn 0.7974 0.2080 -0.5665
vn 0.8199 -0.0649 0.5688
vn 0.3148 -0.0284 0.9487
vn -0.3229 0.0578 0.9447
vn -0.8074 -0.0669 0.5863
vn -0.6569 0.5691 -0.4947
vn -0.3064 0.4014 -0.8631
vn -0.3479 0.6621 -0.6638
vn -0.2103 0.7496 -0.6276
vn -0.1800 -0.4515 -0.8739
vn -0.3268 0.1301 -0.9361
vn -0.2701 0.8935 -0.3587
vn -0.7072 0.1115 -0.6981
vn -0.7776 0.0187 -0.6285
vn -0.6557 -0.2561 -0.7103
vn -0.9955 0.0947 0.0023
vn -0.9640 0.2658 0.0015
vn -0.9998 -0.0197 0.0004
vn -0.9864 -0.1645 0.0002
vn -0.7380 -0.1621 0.6551
vn -0.8213 0.0698 0.5661
vn -0.8332 -0.0020 0.5529
vn -0.7318 -0.0488 0.6797
vn -0.3557 0.1899 0.9151
vn -0.3112 -0.5068 0.8040
vn -0.2895 0.0026 0.9572
vn -0.3119 0.5063 0.8040
vn 0.2921 -0.0405 0.9555
vn 0.3101 -0.1103 0.9443
vn 0.3560 -0.2414 0.9028
vn 0.3391 0.3985 0.8522
vn 0.8381 -0.1172 0.5328
vn 0.8229 0.0718 0.5636
vn 0.8223 -0.0013 0.5690
vn 0.6469 0.4988 0.5768
vn 0.9995 0.0317 0.0011
vn 0.9645 0.2642 0.0015
vn 0.9997 -0.0234 0.0005
vn 0.9894 -0.1453 0.0002
vn 0.6725 0.5188 -0.5279
vn 0.5578 0.6402 -0.5282
vn 0.7524 0.0223 -0.6584
vn 0.6789 -0.2782 -0.6795
vn 0.2521 0.7097 -0.6579
vn 0.2077 0.6163 -0.7597
vn 0.2743 -0.2706 -0.9228
vn 0.3071 -0.2812 -0.9092
vn 0.4097 -0.9122 0.0007
vn 0.1471 0.8405 0.5215
vn -0.0623 -0.9727 -0.2233
vn 0.3741 -0.9274 -0.0000
vn -0.1961 0.7816 0.5921
vn -0.1572 -0.9121 -0.3786
vn 0.2914 -0.9566 -0.0000
vn -0.3762 0.8886 0.2626
vn -0.3633 -0.8631 -0.3509
vn 0.1148 0.8689 -0.4815
vn 0.3666 -0.9304 -0.0001
vn -0.4368 0.8995 -0.0000
vn -0.2753 -0.9237 -0.2663
vn 0.2754 0.9390 -0.2059
vn 0.4635 -0.8161 -0.3453
vn -0.2921 0.9090 -0.2973
vn -0.2252 -0.9498 -0.2170
vn 0.3159 0.9488 0.0003
vn 0.3257 -0.8920 -0.3133
vn -0.0971 0.9401 -0.3269
vn -0.2650 -0.9130 -0.3102
vn 0.3132 0.9247 0.2165
vn 0.1357 -0.9773 -0.1628
vn -0.4213 -0.9069 -0.0000
vn 0.1910 0.8566 0.4793
vn 0.2901 -0.9195 -0.2651
vn -0.3179 -0.9481 0.0009
vn -0.1327 0.8906 0.4351
vn 0.2619 -0.6404 -0.7220
vn -0.2863 -0.9581 -0.0000
vn -0.2817 0.9409 0.1881
vn 0.1172 0.9533 -0.2782
vn 0.1802 -0.8053 -0.5648
vn -0.3927 -0.9197 -0.0000
vn -0.3334 0.9428 -0.0000
vn 0.2227 0.9423 -0.2499
vn 0.1116 -0.9508 -0.2891
vn -0.3887 -0.8587 0.3338
vn -0.4070 0.8643 -0.2956
vn 0.2836 0.9589 -0.0000
vn 0.9993 -0.0379 -0.0000
vn 0.7346 -0.1900 0.6513
vn -0.9993 -0.0379 -0.0000
vn 0.7280 -0.3987 -0.5577
vn 0.2991 -0.3532 -0.8864
vn 0.3553 0.0383 0.9340
vn -0.6655 -0.0943 -0.7404
vn -0.6898 -0.2749 0.6697
vn -0.3766 0.0380 0.9256
vn -0.3349 -0.3488 -0.8753
vn 0.2892 -0.4042 -0.8677
vn 0.6979 0.0534 -0.7142
vn 0.7494 -0.0447 0.6606
vn 0.2835 0.4933 0.8223
vn -0.3004 0.3328 0.8939
vn -0.7252 -0.0381 0.6875
vn -0.6354 0.3520 -0.6873
vn -0.2919 -0.5515 -0.7814
vn 0.2763 -0.2045 -0.9391
vn 0.7441 -0.1295 -0.6554
vn 0.8210 0.0135 0.5707
vn 0.3683 -0.0044 0.9297
vn -0.2821 0.1806 0.9422
vn -0.8311 -0.0372 0.5549
vn -0.7399 -0.2897 -0.6072
vn -0.1800 0.1054 -0.9780
vn 0.1475 0.7977 -0.5848
vn 0.6587 0.4103 -0.6307
vn 0.8002 0.2313 0.5533
vn 0.3060 -0.2428 0.9205
vn -0.3165 -0.4602 0.8295
vn -0.7154 -0.5021 0.4860
vn -0.6508 0.4115 -0.6380
vn -0.2969 0.3969 -0.8685
vn 0.1919 0.8478 -0.4944
vn 0.7858 0.0702 -0.6145
vn 0.6328 -0.6532 0.4159
vn 0.2515 -0.5444 0.8002
vn -0.3157 -0.4270 0.8473
vn -0.6726 0.4068 0.6182
vn -0.6484 0.1892 -0.7375
vn -0.1652 0.9601 -0.2256
vn 0.7488 0.3430 0.5671
vn 0.6975 0.0604 -0.7141
vn 0.2425 -0.6147 -0.7506
vn 0.3119 0.1735 0.9342
vn -0.4750 -0.7964 -0.3743
vn -0.7463 0.3439 0.5699
vn -0.3161 0.1128 0.9420
vn -0.2192 -0.7243 -0.6537
vn -0.2709 0.3036 0.9135
vn -0.7238 0.2447 0.6451
vn -0.9881 0.1536 -0.0008
vn -0.7233 -0.4736 -0.5026
vn -0.2850 -0.4913 -0.8230
vn 0.2590 -0.4366 -0.8616
vn 0.7235 0.0351 -0.6894
vn 0.9883 0.1525 -0.0003
vn 0.6357 -0.3426 0.6917
vn 0.2954 0.5473 0.7831
vn -0.2755 0.2008 0.9401
vn -0.7195 -0.0271 0.6939
vn -0.9999 -0.0118 -0.0010
vn -0.8214 -0.0149 -0.5702
vn -0.3076 0.2285 -0.9237
vn 0.3435 0.0322 -0.9386
vn 0.8275 -0.0029 -0.5615
vn 0.9999 -0.0141 -0.0011
vn 0.7400 0.2891 0.6073
vn 0.1780 -0.0987 0.9791
vn -0.2783 -0.6215 0.7323
vn -0.6550 -0.4130 0.6328
vn -0.9743 -0.2251 -0.0008
vn -0.8007 -0.2316 -0.5525
vn -0.3067 0.2458 -0.9195
vn 0.3166 0.4636 -0.8275
vn 0.7400 0.0022 -0.6726
vn 0.9747 -0.2237 -0.0003
vn 0.6451 -0.1935 0.7392
vn 0.3563 -0.6595 0.6619
vn -0.1942 -0.8431 0.5014
vn -0.7860 -0.0636 0.6149
vn -0.9387 0.3448 -0.0014
vn -0.6332 0.6526 -0.4162
vn -0.2865 0.4286 -0.8569
vn 0.3169 0.1754 -0.9321
vn 0.6903 0.5228 -0.5001
vn 0.9464 0.3230 -0.0053
vn 0.2386 -0.9518 0.1928
vn 0.2141 -0.7812 0.5864
vn -0.9731 -0.2302 -0.0009
vn -0.7391 0.1778 -0.6497
vn 0.9746 -0.2238 -0.0017
vn -0.6951 -0.0609 0.7163
vn -0.2431 0.6161 0.7492
vn -0.3104 -0.1528 -0.9382
vn 0.4792 0.7913 0.3798
vn 0.7461 -0.3434 -0.5705
vn 0.3162 -0.0997 -0.9434
vn 0.2789 0.6183 0.7348
vn -0.0224 -0.9962 -0.0836
vn -0.0015 1.0000 -0.0034
vn -0.0585 -0.9977 -0.0351
vn 0.0104 0.9998 -0.0178
vn -0.0691 -0.9976 0.0038
vn -0.0618 -0.9774 -0.2021
vn 0.0009 0.9999 -0.0169
vn 0.0029 -0.9999 0.0100
vn -0.0669 -0.9973 -0.0294
vn -0.0157 0.9999 -0.0045
vn 0.0440 -0.9917 -0.1206
vn 0.0337 -0.9994 0.0060
vn -0.0206 0.9998 0.0020
vn -0.0275 0.9956 -0.0894
vn 0.0160 -0.9997 -0.0165
vn 0.0097 0.9999 -0.0109
vn -0.0226 0.9997 -0.0089
vn 0.0252 -0.9981 -0.0559
vn 0.0308 0.9973 -0.0663
vn 0.0137 0.9999 0.0023
vn 0.0080 1.0000 -0.0017
vn 0.0015 -1.0000 -0.0044
vn -0.0286 -0.9971 0.0706
vn 0.0354 0.9994 -0.0000
vn -0.0229 0.9972 -0.0706
vn -0.0409 -0.9984 0.0389
vn 0.0835 0.9952 0.0511
vn -0.0310 -0.9953 -0.0920
vn 0.0179 0.9983 -0.0550
vn 0.0009 1.0000 0.0029
vn -0.0266 -0.9996 -0.0000
vn 0.0252 0.9947 0.0994
vn 0.0318 -0.9945 -0.0994
vn -0.0052 -0.9999 -0.0154
vn -0.0084 -0.9999 -0.0136
vn -0.0545 0.9977 -0.0413
vn -0.0080 -1.0000 -0.0050
vn -0.0327 -0.9992 -0.0229
vn 0.0084 0.9999 0.0061
vn -0.0015 -1.0000 -0.0029
vn 0.2684 -0.4955 -0.8261
vn 0.6872 -0.5278 -0.4992
vn 0.9985 -0.0539 -0.0003
vn 0.8091 0.0190 0.5874
vn 0.3088 -0.0579 0.9494
vn -0.3072 -0.1212 0.9439
vn -0.8091 0.0181 0.5873
vn -0.9986 -0.0533 -0.0003
vn -0.6012 -0.6695 -0.4363
vn -0.2495 -0.5905 -0.7675
vn -0.2002 0.8111 -0.5496
vn -0.7876 0.1858 -0.5875
vn -1.0000 0.0077 0.0002
vn -0.7442 0.3895 0.5426
vn -0.3222 -0.0429 0.9457
vn 0.3124 -0.1380 0.9399
vn 0.7978 -0.2366 0.5545
vn 1.0000 0.0080 0.0003
vn 0.8024 0.1790 -0.5692
vn 0.2444 0.6589 -0.7114
vn -0.0063 0.9998 0.0174
vn 0.0525 -0.9978 -0.0393
vn -0.0001 0.9999 -0.0103
vn 0.0221 0.9996 -0.0160
vn -0.0021 1.0000 0.0044
vn -0.0083 -0.9999 0.0058
vn 0.0161 0.9998 0.0075
vn -0.0145 0.9998 0.0105
vn 0.0193 -0.9975 0.0676
vn 0.0156 -0.9999 -0.0010
vn 0.0104 0.9999 0.0010
vn 0.0268 -0.9995 0.0192
vn 0.0126 0.9999 -0.0000
vn -0.0118 0.9999 0.0077
vn -0.0079 -1.0000 -0.0000
vn 0.0187 -0.9998 0.0006
vn -0.0151 0.9983 0.0564
vn -0.0343 0.9994 -0.0007
vn 0.0149 -0.9999 -0.0079
vn -0.0082 -0.9999 -0.0058
vn 0.1295 0.9521 0.2769
vn 0.3426 0.9234 0.1729
vn -0.0126 0.9998 -0.0167
vn -0.0080 1.0000 -0.0058
vn -0.0069 0.9998 0.0200
vn -0.0071 1.0000 0.0017
vn 0.3454 0.9310 -0.1182
vn 0.4094 0.8999 -0.1506
vn -0.4112 0.9037 -0.1195
vn -0.4997 0.8347 -0.2317
vn -0.3939 0.8952 0.2086
vn -0.0038 0.9999 0.0116
vn 0.0069 0.9998 0.0199
vn -0.1342 0.9447 0.2991
vn 0.0047 0.9999 0.0106
vn -0.1739 0.9809 0.0877
vn -0.1020 0.9854 -0.1365
vn 0.3102 0.9468 -0.0851
vn -0.0963 0.9739 0.2057
vn 0.1857 0.9778 0.0972
vn 0.1133 0.9770 -0.1807
vn -0.1863 0.9806 -0.0609
vn 0.0839 0.9851 0.1504
vn 0.2419 0.9677 -0.0703
vn -0.3088 0.9426 -0.1268
vn 0.3413 0.8273 -0.4461
vn 0.6231 0.7821 -0.0110
vn 0.4050 0.9142 -0.0149
vn -0.3432 0.9095 -0.2344
vn 0.2948 0.8297 0.4740
vn -0.6230 0.7822 -0.0110
vn -0.3413 0.8274 -0.4461
vn -0.2340 0.8855 -0.4015
vn 0.2187 0.9112 -0.3490
vn -0.0024 0.9999 -0.0121
vn 0.0038 0.9999 0.0116
vn -0.4095 0.8998 -0.1506
vn -0.3454 0.9310 -0.1182
vn -0.0047 0.9999 0.0106
vn 0.0071 1.0000 0.0017
vn 0.0080 1.0000 -0.0058
vn 0.6036 0.7778 -0.1754
vn 0.4132 0.9083 -0.0657
vn 0.0303 0.9991 0.0283
vn 0.0148 0.9991 0.0390
vn 0.0286 0.9963 -0.0816
vn 0.0329 0.9993 -0.0164
vn 0.0529 0.9986 -0.0041
vn -0.0555 0.9985 -0.0041
vn -0.0445 0.9980 0.0444
vn -0.0100 0.9996 -0.0265
vn -0.0965 0.9950 -0.0265
vn 0.0554 0.9972 -0.0507
vn 0.0020 1.0000 -0.0056
vn -0.0020 1.0000 -0.0056
vn -0.0290 0.9995 -0.0140
vn -0.0529 0.9982 0.0264
vn -0.0187 0.9978 0.0634
vn 0.0560 0.9980 -0.0304
vn 0.0112 0.9995 -0.0309
vn 0.0165 0.9989 0.0444
vn -0.0853 0.9930 -0.0815
vn 0.0424 0.9989 0.0204
vn -0.0295 0.9961 -0.0836
vn 0.0290 0.9996 0.0024
vn -0.0304 0.9995 0.0023
vn -0.0145 0.9992 0.0382
vn -0.2203 -0.8101 -0.5434
vn 0.3570 0.9018 0.2436
vn 0.3398 -0.8997 0.2741
vn -0.2120 0.9148 -0.3437
vn -0.2832 -0.6758 -0.6805
vn 0.4119 0.9112 -0.0000
vn 0.2691 -0.9449 0.1864
vn -0.2540 0.9050 -0.3413
vn 0.2991 0.9106 -0.2853
vn 0.3127 -0.9248 0.2166
vn -0.4306 0.9026 -0.0000
vn 0.0725 0.9447 -0.3199
vn 0.2874 -0.9360 0.2031
vn -0.3186 0.8977 0.3045
vn 0.1815 -0.8177 0.5463
vn -0.2147 0.8333 0.5094
vn 0.1494 -0.9107 0.3850
vn 0.1477 0.8317 0.5352
vn 0.2002 -0.8185 0.5386
vn 0.3743 0.9012 0.2184
vn 0.1685 -0.8471 0.5040
vn 0.4104 0.9119 -0.0000
vn -0.1183 0.9159 -0.3835
vn -0.1870 -0.8864 0.4235
vn 0.3498 0.8919 -0.2868
vn -0.2261 0.9478 -0.2248
vn -0.1183 -0.9024 0.4144
vn 0.2201 0.7870 -0.5763
vn -0.2819 0.9594 -0.0000
vn -0.1628 -0.9163 0.3659
vn -0.2258 0.9540 0.1973
vn -0.1793 -0.8397 0.5125
vn -0.1254 0.9284 0.3497
vn -0.2807 -0.9166 0.2848
vn 0.0994 0.9764 0.1919
vn -0.2532 -0.9525 0.1690
vn 0.2025 0.9583 0.2018
vn -0.0809 0.8503 -0.5200
vn -0.2755 -0.9436 0.1839
vn 0.1121 -0.9104 -0.3981
vn 0.2807 -0.4486 -0.8485
vn 0.6991 0.0847 -0.7100
vn 0.7533 -0.0535 0.6555
vn 0.3314 0.4333 0.8381
vn -0.3065 0.5165 0.7996
vn -0.7313 -0.0464 0.6805
vn -0.6182 0.4331 -0.6560
vn -0.2667 -0.6199 -0.7380
vn 0.2724 -0.2793 -0.9208
vn 0.7329 -0.1975 -0.6510
vn 0.3648 -0.0000 0.9311
vn -0.2810 0.2357 0.9303
vn -0.7238 -0.3405 -0.6002
vn -0.1880 0.0729 -0.9795
vn 0.1349 0.8395 -0.5264
vn 0.6438 0.4616 -0.6103
vn 0.7866 0.2981 0.5407
vn 0.3017 -0.2879 0.9089
vn -0.3042 -0.5270 0.7936
vn -0.6700 -0.5805 0.4628
vn -0.6283 0.4639 -0.6245
vn -0.3043 0.3959 -0.8664
vn 0.3107 0.4551 -0.8345
vn 0.7841 0.1155 -0.6098
vn 0.8308 -0.1612 0.5327
vn 0.2906 -0.0955 0.9521
vn -0.3557 -0.0280 0.9342
vn -0.7263 0.2114 0.6541
vn -0.6650 0.1389 -0.7338
vn -0.3622 0.6041 -0.7099
vn -0.2412 0.8949 -0.3755
vn -0.2972 0.3602 -0.8843
vn -0.1758 0.0371 -0.9837
vn -0.2971 -0.5809 -0.7578
vn -0.6310 0.2287 -0.7413
vn -0.6532 0.4165 -0.6324
vn -0.7307 -0.3370 -0.5938
vn -0.6191 0.3927 -0.6800
vn -1.0000 -0.0043 0.0003
vn -0.9728 0.2316 0.0007
vn -1.0000 -0.0000 0.0008
vn -0.9821 -0.1882 0.0008
vn -0.6615 0.4290 0.6152
vn -0.7018 -0.5384 0.4665
vn -0.8333 -0.0000 0.5529
vn -0.5780 0.6045 0.5481
vn -0.3612 -0.0850 0.9286
vn -0.3104 -0.5103 0.8020
vn -0.2815 0.1820 0.9421
vn -0.3710 0.1913 0.9087
vn 0.2855 -0.2097 0.9352
vn 0.3062 -0.2974 0.9043
vn 0.3736 0.0022 0.9276
vn 0.3427 0.3750 0.8614
vn 0.8007 -0.3170 0.5083
vn 0.7959 0.2537 0.5497
vn 0.8224 -0.0000 0.5690
vn 0.7451 -0.0717 0.6631
vn 0.9998 -0.0193 0.0001
vn 0.9731 0.2304 0.0007
vn 1.0000 -0.0000 0.0010
vn 0.9868 -0.1621 0.0006
vn 0.7648 0.2231 -0.6044
vn 0.6532 0.4179 -0.6314
vn 0.7374 -0.1929 -0.6474
vn 0.6957 0.0425 -0.7171
vn 0.2403 0.7465 -0.6205
vn 0.1369 0.8140 -0.5644
vn 0.2752 -0.2582 -0.9261
vn 0.2832 -0.4633 -0.8398
vn 0.3803 -0.9249 -0.0000
vn 0.1643 0.8057 0.5691
vn -0.0792 -0.9465 -0.3129
vn 0.3379 -0.9412 0.0008
vn -0.1767 0.8195 0.5452
vn -0.1743 -0.8898 -0.4217
vn 0.2834 -0.9590 0.0002
vn -0.4458 0.8403 0.3084
vn -0.4925 -0.7100 -0.5033
vn 0.0936 0.9042 -0.4167
vn 0.3722 -0.9282 -0.0000
vn -0.4289 0.9034 0.0002
vn -0.2854 -0.9179 -0.2756
vn 0.3730 0.8814 -0.2896
vn 0.3724 -0.8860 -0.2763
vn -0.3128 0.8955 -0.3166
vn -0.1572 -0.9735 -0.1660
vn 0.3279 0.9447 -0.0000
vn 0.2890 -0.9156 -0.2796
vn -0.1211 0.9106 -0.3952
vn -0.2567 -0.9183 -0.3014
vn 0.2751 0.9422 0.1912
vn 0.2164 -0.9492 -0.2286
vn -0.4616 -0.8871 0.0009
vn 0.1639 0.8955 0.4137
vn 0.2842 -0.9231 -0.2590
vn -0.3609 -0.9326 -0.0000
vn -0.1450 0.8688 0.4736
vn 0.2160 -0.7632 -0.6089
vn -0.2879 -0.9577 -0.0000
vn -0.3221 0.9222 0.2139
vn 0.1641 0.8972 -0.4100
vn 0.1458 -0.8940 -0.4237
vn -0.3945 -0.9189 -0.0000
vn -0.3190 0.9477 0.0003
vn 0.1845 0.9594 -0.2132
vn 0.0846 -0.9762 -0.1995
vn -0.3122 -0.9122 0.2654
vn -0.2882 0.9362 -0.2010
vn 0.3090 0.9511 0.0005
vn 0.7984 0.0111 0.6020
vn 0.6955 -0.0928 -0.7125
vn 0.2876 -0.3718 -0.8826
vn 0.3150 -0.0505 0.9478
vn -0.6846 -0.4930 -0.5370
vn -0.7941 0.0116 0.6077
vn -0.3173 -0.0948 0.9436
vn -0.2860 -0.4266 -0.8580
vt 0.558568 0.142089
vt 0.558496 0.153134
vt 0.554973 0.154505
vt 0.565137 0.148765
vt 0.561089 0.138561
vt 0.564929 0.137783
vt 0.561125 0.121869
vt 0.564964 0.121471
vt 0.568219 0.149748
vt 0.570926 0.135072
vt 0.574347 0.136740
vt 0.575604 0.121597
vt 0.567366 0.109525
vt 0.571060 0.106780
vt 0.567384 0.109656
vt 0.562850 0.122940
vt 0.563167 0.108570
vt 0.566612 0.123246
vt 0.563283 0.139246
vt 0.567056 0.139932
vt 0.564759 0.151120
vt 0.562420 0.127657
vt 0.559414 0.125009
vt 0.550997 0.154461
vt 0.555393 0.139392
vt 0.569247 0.147845
vt 0.568569 0.137873
vt 0.568605 0.121529
vt 0.569306 0.107747
vt 0.577396 0.136996
vt 0.578729 0.118983
vt 0.574123 0.107052
vt 0.559518 0.108754
vt 0.559205 0.123087
vt 0.559639 0.139425
vt 0.554028 0.112473
vt 0.554924 0.124711
vt 0.550997 0.112558
vt 0.551399 0.128885
vt 0.559019 0.145649
vt 0.554129 0.147100
vt 0.560942 0.157716
vt 0.572311 0.122496
vt 0.572274 0.139433
vt 0.572649 0.108798
vt 0.548402 0.144644
vt 0.551353 0.130692
vt 0.551206 0.147268
vt 0.548369 0.128272
vt 0.557907 0.117695
vt 0.566077 0.105478
vt 0.569559 0.105691
vt 0.555398 0.124148
vt 0.555848 0.141079
vt 0.560570 0.149376
vt 0.556205 0.152199
vt 0.555984 0.116841
vt 0.556759 0.127928
vt 0.550835 0.145097
vt 0.548511 0.128558
vt 0.573083 0.150558
vt 0.574094 0.140465
vt 0.574791 0.153908
vt 0.574131 0.123466
vt 0.574791 0.109719
vt 0.553567 0.146387
vt 0.553214 0.131187
vt 0.559954 0.116424
vt 0.554001 0.111399
vt 0.553696 0.125160
vt 0.554148 0.142153
vt 0.562804 0.107343
vt 0.553100 0.114551
vt 0.558967 0.122515
vt 0.559816 0.109288
vt 0.562423 0.108338
vt 0.568860 0.123837
vt 0.558932 0.138873
vt 0.562305 0.150283
vt 0.559724 0.151832
vt 0.565841 0.141737
vt 0.563029 0.141369
vt 0.569293 0.120654
vt 0.571271 0.120729
vt 0.559675 0.112540
vt 0.557722 0.112021
vt 0.569294 0.110592
vt 0.559687 0.139449
vt 0.559577 0.150094
vt 0.555191 0.138773
vt 0.562037 0.148693
vt 0.566012 0.138952
vt 0.564904 0.150188
vt 0.562165 0.138188
vt 0.565881 0.122942
vt 0.577450 0.151856
vt 0.574902 0.137698
vt 0.580805 0.152383
vt 0.570237 0.124744
vt 0.571485 0.139311
vt 0.578323 0.113168
vt 0.574552 0.123922
vt 0.562239 0.120930
vt 0.557739 0.108165
vt 0.561949 0.107031
vt 0.561825 0.136574
vt 0.558481 0.121263
vt 0.560401 0.147959
vt 0.558049 0.137257
vt 0.555835 0.125562
vt 0.558885 0.122954
vt 0.567143 0.151416
vt 0.562946 0.136859
vt 0.557861 0.147796
vt 0.558397 0.122604
vt 0.558491 0.138311
vt 0.557675 0.109314
vt 0.562047 0.122546
vt 0.568463 0.139587
vt 0.567143 0.122230
vt 0.574597 0.110482
vt 0.565553 0.107207
vt 0.565876 0.121076
vt 0.563399 0.122686
vt 0.564088 0.110946
vt 0.567143 0.111031
vt 0.587338 0.130753
vt 0.575418 0.144151
vt 0.582326 0.128338
vt 0.570617 0.154805
vt 0.579803 0.146865
vt 0.554731 0.123578
vt 0.554797 0.139912
vt 0.554367 0.110350
vt 0.572807 0.134124
vt 0.570616 0.147657
vt 0.567097 0.149051
vt 0.571468 0.120189
vt 0.576439 0.133001
vt 0.568549 0.106324
vt 0.575839 0.118899
vt 0.569672 0.122148
vt 0.565489 0.136741
vt 0.569305 0.138392
vt 0.564618 0.146223
vt 0.586296 0.118370
vt 0.581474 0.115377
vt 0.583493 0.145987
vt 0.590272 0.131264
vt 0.553004 0.140915
vt 0.553990 0.150604
vt 0.552272 0.153916
vt 0.552956 0.124524
vt 0.552272 0.111295
vt 0.565234 0.147418
vt 0.570898 0.133920
vt 0.571068 0.109819
vt 0.569437 0.108917
vt 0.571360 0.123133
vt 0.582560 0.107669
vt 0.580736 0.106576
vt 0.589792 0.116968
vt 0.568033 0.123565
vt 0.568170 0.139247
vt 0.567151 0.110804
vt 0.556236 0.121850
vt 0.567510 0.151759
vt 0.556821 0.151840
vt 0.552346 0.139152
vt 0.576545 0.123851
vt 0.577352 0.139214
vt 0.558434 0.110984
vt 0.560393 0.110482
vt 0.555799 0.109047
vt 0.553020 0.123866
vt 0.553836 0.131190
vt 0.582709 0.114993
vt 0.571269 0.106492
vt 0.571289 0.105597
vt 0.554158 0.145829
vt 0.561086 0.155567
vt 0.589589 0.129270
vt 0.582312 0.115583
vt 0.572656 0.154683
vt 0.572712 0.155567
vt 0.557664 0.123561
vt 0.555203 0.107683
vt 0.558276 0.123685
vt 0.589544 0.143903
vt 0.588905 0.129302
vt 0.583855 0.146413
vt 0.582962 0.106808
vt 0.590241 0.116451
vt 0.582396 0.152776
vt 0.582839 0.153653
vt 0.555209 0.137866
vt 0.571336 0.106808
vt 0.571681 0.153084
vt 0.571637 0.153970
vt 0.553574 0.115817
vt 0.554291 0.130257
vt 0.553574 0.130289
vt 0.571336 0.107696
vt 0.560882 0.144178
vt 0.560409 0.144727
vt 0.560087 0.105913
vt 0.554294 0.116294
vt 0.560331 0.117018
vt 0.560569 0.106766
vt 0.561035 0.403755
vt 0.559871 0.404112
vt 0.561035 0.403706
vt 0.556129 0.404094
vt 0.555375 0.405010
vt 0.556102 0.404052
vt 0.563594 0.404161
vt 0.562907 0.403234
vt 0.562954 0.403220
vt 0.559901 0.404151
vt 0.559169 0.405123
vt 0.560351 0.406803
vt 0.560306 0.407984
vt 0.560305 0.406788
vt 0.562954 0.402057
vt 0.562907 0.402041
vt 0.559215 0.405139
vt 0.559209 0.406337
vt 0.559123 0.406270
vt 0.559169 0.405086
vt 0.559168 0.406285
vt 0.563007 0.405708
vt 0.562912 0.404787
vt 0.562934 0.404786
vt 0.560352 0.407969
vt 0.561008 0.408952
vt 0.563940 0.407968
vt 0.563986 0.406787
vt 0.563986 0.407985
vt 0.563515 0.404786
vt 0.563427 0.405803
vt 0.563406 0.405803
vt 0.567833 0.404216
vt 0.567807 0.403347
vt 0.567830 0.403347
vt 0.562814 0.404786
vt 0.562912 0.405720
vt 0.562890 0.405720
vt 0.563655 0.406828
vt 0.563536 0.405803
vt 0.563558 0.405803
vt 0.567571 0.403347
vt 0.567597 0.404247
vt 0.567575 0.404247
vt 0.563007 0.406777
vt 0.562985 0.405708
vt 0.563529 0.406828
vt 0.563508 0.406828
vt 0.558977 0.406221
vt 0.558417 0.407202
vt 0.558326 0.407079
vt 0.561125 0.408791
vt 0.560494 0.407923
vt 0.557273 0.407541
vt 0.557273 0.407391
vt 0.562146 0.409272
vt 0.561037 0.408912
vt 0.556129 0.407156
vt 0.556220 0.407037
vt 0.563167 0.408791
vt 0.562146 0.409123
vt 0.555569 0.406153
vt 0.555422 0.406196
vt 0.563797 0.407922
vt 0.563255 0.408912
vt 0.555568 0.405075
vt 0.555422 0.405026
vt 0.563939 0.406802
vt 0.556219 0.404217
vt 0.563166 0.405980
vt 0.563797 0.406849
vt 0.557272 0.403755
vt 0.557272 0.403905
vt 0.562145 0.405649
vt 0.563254 0.405859
vt 0.558326 0.404259
vt 0.558416 0.404140
vt 0.561124 0.405981
vt 0.562145 0.405499
vt 0.558977 0.405144
vt 0.559123 0.405100
vt 0.561036 0.405860
vt 0.560493 0.406849
vt 0.566496 0.408360
vt 0.567517 0.405107
vt 0.567517 0.408017
vt 0.565475 0.405108
vt 0.566496 0.404764
vt 0.564844 0.407118
vt 0.564844 0.406007
vt 0.568148 0.407118
vt 0.562890 0.406794
vt 0.562836 0.407597
vt 0.562814 0.407598
vt 0.563642 0.404786
vt 0.563663 0.404786
vt 0.568210 0.404459
vt 0.568190 0.403347
vt 0.568212 0.403347
vt 0.562934 0.407585
vt 0.562985 0.406778
vt 0.567575 0.405358
vt 0.567593 0.406257
vt 0.567571 0.406257
vt 0.559581 0.404067
vt 0.559600 0.405140
vt 0.559578 0.405140
vt 0.567830 0.406158
vt 0.567811 0.405290
vt 0.567833 0.405290
vt 0.568212 0.405358
vt 0.568187 0.404459
vt 0.567597 0.405358
vt 0.559603 0.406009
vt 0.559581 0.406009
vt 0.562912 0.406794
vt 0.567811 0.404216
vt 0.563663 0.401135
vt 0.563636 0.401094
vt 0.559930 0.407255
vt 0.559254 0.406322
vt 0.558446 0.407241
vt 0.555375 0.406211
vt 0.564800 0.400823
vt 0.564803 0.400773
vt 0.561007 0.405821
vt 0.565876 0.401197
vt 0.565906 0.401158
vt 0.558446 0.404101
vt 0.563284 0.408952
vt 0.566552 0.402119
vt 0.566505 0.402135
vt 0.568014 0.409165
vt 0.567836 0.410271
vt 0.567948 0.409166
vt 0.563478 0.406455
vt 0.563417 0.405517
vt 0.563475 0.405509
vt 0.563417 0.404321
vt 0.563475 0.404314
vt 0.563413 0.403353
vt 0.563478 0.403347
vt 0.567071 0.408050
vt 0.567055 0.408925
vt 0.566997 0.408924
vt 0.567001 0.410078
vt 0.567055 0.410119
vt 0.567079 0.411139
vt 0.565371 0.405510
vt 0.565431 0.404322
vt 0.565428 0.405517
vt 0.565373 0.404313
vt 0.565425 0.403376
vt 0.567836 0.408064
vt 0.559169 0.406358
vt 0.559903 0.407294
vt 0.559886 0.407320
vt 0.567467 0.404346
vt 0.567428 0.403386
vt 0.567460 0.403347
vt 0.567467 0.405584
vt 0.567425 0.404360
vt 0.568206 0.410131
vt 0.568332 0.411166
vt 0.568292 0.411170
vt 0.568204 0.408932
vt 0.568244 0.410106
vt 0.568287 0.408036
vt 0.568246 0.408931
vt 0.564583 0.404344
vt 0.564622 0.403350
vt 0.564625 0.404352
vt 0.564581 0.405575
vt 0.564623 0.405589
vt 0.564577 0.406549
vt 0.564615 0.406590
vt 0.561036 0.407655
vt 0.557273 0.407591
vt 0.562141 0.404070
vt 0.562169 0.404030
vt 0.562145 0.409322
vt 0.562849 0.405014
vt 0.562896 0.404998
vt 0.557273 0.403706
vt 0.562896 0.406211
vt 0.562848 0.406197
vt 0.563281 0.405818
vt 0.564656 0.404581
vt 0.563564 0.404199
vt 0.556100 0.407197
vt 0.562194 0.407223
vt 0.562163 0.407185
vt 0.565791 0.404242
vt 0.564659 0.404532
vt 0.561072 0.407629
vt 0.561067 0.407581
vt 0.566501 0.403320
vt 0.565819 0.404283
vt 0.562145 0.405450
vt 0.566548 0.403336
vt 0.564698 0.402602
vt 0.564472 0.402582
vt 0.564472 0.402524
vt 0.564860 0.403008
vt 0.564654 0.403238
vt 0.564805 0.402998
vt 0.564085 0.403008
vt 0.564290 0.403238
vt 0.564260 0.403287
vt 0.564247 0.402602
vt 0.564278 0.402649
vt 0.564858 0.402383
vt 0.564472 0.402294
vt 0.564472 0.402210
vt 0.565143 0.402921
vt 0.564842 0.402467
vt 0.565560 0.403131
vt 0.565291 0.402973
vt 0.565611 0.402451
vt 0.565062 0.402102
vt 0.565283 0.401794
vt 0.564472 0.401909
vt 0.563662 0.401794
vt 0.563883 0.402102
vt 0.563333 0.402451
vt 0.563653 0.402973
vt 0.563384 0.403131
vt 0.563750 0.403531
vt 0.564950 0.404058
vt 0.564865 0.403782
vt 0.565168 0.403697
vt 0.563560 0.401595
vt 0.562820 0.402193
vt 0.563451 0.401325
vt 0.565312 0.404073
vt 0.565731 0.403140
vt 0.564472 0.404365
vt 0.564472 0.404271
vt 0.565493 0.404135
vt 0.566124 0.403267
vt 0.564898 0.403635
vt 0.564819 0.403690
vt 0.565071 0.402920
vt 0.563801 0.402921
vt 0.564086 0.402383
vt 0.564196 0.403934
vt 0.564079 0.403782
vt 0.564082 0.403690
vt 0.564102 0.402467
vt 0.563873 0.402920
vt 0.565791 0.402414
vt 0.564472 0.404467
vt 0.564472 0.401264
vt 0.564472 0.400993
vt 0.563994 0.404058
vt 0.564175 0.404006
vt 0.564472 0.404179
vt 0.564162 0.402554
vt 0.563970 0.402920
vt 0.564472 0.404008
vt 0.564472 0.404107
vt 0.564975 0.402920
vt 0.564472 0.402380
vt 0.564783 0.402554
vt 0.564749 0.403934
vt 0.564704 0.403835
vt 0.564125 0.403690
vt 0.564181 0.403690
vt 0.564763 0.403690
vt 0.564240 0.403835
vt 0.564349 0.403580
vt 0.564472 0.403520
vt 0.564372 0.403597
vt 0.564091 0.402830
vt 0.564853 0.402830
vt 0.564684 0.403287
vt 0.564369 0.403748
vt 0.564346 0.403765
vt 0.564472 0.403293
vt 0.564666 0.402649
vt 0.564139 0.402998
vt 0.564145 0.402844
vt 0.564800 0.402844
vt 0.564472 0.403352
vt 0.564472 0.403844
vt 0.564472 0.403486
vt 0.564595 0.403580
vt 0.564599 0.403765
vt 0.564472 0.403812
vt 0.564572 0.403597
vt 0.564575 0.403748
vt 0.564769 0.404006
vt 0.563632 0.404073
vt 0.564046 0.403635
vt 0.565385 0.401595
vt 0.566124 0.402193
vt 0.563213 0.403140
vt 0.563451 0.404135
vt 0.562820 0.403267
vt 0.565493 0.401325
vt 0.563777 0.403697
vt 0.563153 0.402414
vt 0.564862 0.403690
vt 0.563777 0.403638
vt 0.564472 0.401485
vt 0.565318 0.401738
vt 0.565194 0.403531
vt 0.564935 0.403654
vt 0.563597 0.401680
vt 0.563244 0.402414
vt 0.565608 0.403131
vt 0.563337 0.403130
vt 0.563284 0.402451
vt 0.565168 0.403638
vt 0.565645 0.403140
vt 0.564472 0.401349
vt 0.564038 0.403728
vt 0.564009 0.403654
vt 0.565194 0.403563
vt 0.563299 0.403140
vt 0.563750 0.403563
vt 0.563626 0.401738
vt 0.564472 0.401418
vt 0.565347 0.401680
vt 0.565701 0.402414
vt 0.565661 0.402451
vt 0.564907 0.403728
vt 0.567817 0.404678
vt 0.567777 0.403672
vt 0.567796 0.403665
vt 0.568801 0.405936
vt 0.569843 0.406408
vt 0.568794 0.405954
vt 0.564479 0.406376
vt 0.563243 0.406487
vt 0.563232 0.406467
vt 0.566321 0.409212
vt 0.565327 0.409502
vt 0.566317 0.409201
vt 0.568183 0.410155
vt 0.568030 0.409215
vt 0.568204 0.410142
vt 0.569861 0.406393
vt 0.570440 0.407353
vt 0.552743 0.399860
vt 0.552105 0.400816
vt 0.552082 0.400811
vt 0.565325 0.409520
vt 0.564182 0.409485
vt 0.570276 0.408282
vt 0.570462 0.407349
vt 0.564510 0.404843
vt 0.565221 0.405746
vt 0.565209 0.405767
vt 0.563395 0.408632
vt 0.564175 0.409504
vt 0.569446 0.409190
vt 0.570258 0.408272
vt 0.568916 0.411918
vt 0.567967 0.411346
vt 0.567973 0.411324
vt 0.563395 0.407363
vt 0.563416 0.408624
vt 0.565391 0.406781
vt 0.564480 0.406396
vt 0.563860 0.406461
vt 0.563415 0.407362
vt 0.553708 0.399474
vt 0.552759 0.399871
vt 0.564988 0.405955
vt 0.563873 0.406471
vt 0.564510 0.403598
vt 0.564526 0.404833
vt 0.564989 0.405936
vt 0.566055 0.406258
vt 0.569276 0.413118
vt 0.568904 0.411931
vt 0.566070 0.406240
vt 0.566831 0.407123
vt 0.566101 0.410462
vt 0.565222 0.410829
vt 0.566090 0.410451
vt 0.565403 0.406771
vt 0.565765 0.407634
vt 0.566919 0.408093
vt 0.566849 0.407112
vt 0.565222 0.410849
vt 0.564040 0.410830
vt 0.554869 0.399832
vt 0.553711 0.399488
vt 0.566902 0.408091
vt 0.564030 0.410849
vt 0.563268 0.409999
vt 0.565140 0.402815
vt 0.564523 0.403603
vt 0.563246 0.408725
vt 0.563247 0.410007
vt 0.568901 0.414035
vt 0.569260 0.413117
vt 0.563678 0.407860
vt 0.563266 0.408725
vt 0.565785 0.407634
vt 0.565764 0.408921
vt 0.563669 0.407847
vt 0.564601 0.407489
vt 0.554883 0.399821
vt 0.555521 0.400815
vt 0.564604 0.407469
vt 0.565827 0.407618
vt 0.560784 0.409875
vt 0.559642 0.409636
vt 0.560783 0.409856
vt 0.565136 0.402797
vt 0.566280 0.402499
vt 0.562469 0.408459
vt 0.562926 0.409335
vt 0.562917 0.409347
vt 0.565120 0.406522
vt 0.565248 0.407367
vt 0.565070 0.407485
vt 0.564525 0.400921
vt 0.564700 0.401631
vt 0.564489 0.401682
vt 0.564700 0.402780
vt 0.564489 0.402806
vt 0.564681 0.403715
vt 0.564493 0.403758
vt 0.561678 0.402801
vt 0.561413 0.403412
vt 0.561493 0.402678
vt 0.561622 0.403525
vt 0.561391 0.404628
vt 0.561629 0.404499
vt 0.561467 0.405626
vt 0.566547 0.409986
vt 0.566770 0.408890
vt 0.566758 0.410015
vt 0.566560 0.408837
vt 0.566742 0.408062
vt 0.565267 0.405517
vt 0.565070 0.405346
vt 0.565070 0.406502
vt 0.564768 0.407485
vt 0.564841 0.406306
vt 0.558705 0.411138
vt 0.558909 0.411820
vt 0.558708 0.411822
vt 0.558719 0.412946
vt 0.558920 0.412944
vt 0.558733 0.413898
vt 0.560653 0.400560
vt 0.560775 0.401313
vt 0.560535 0.401496
vt 0.560768 0.402510
vt 0.560569 0.402512
vt 0.560653 0.403509
vt 0.566770 0.409963
vt 0.566990 0.408842
vt 0.566971 0.409966
vt 0.566790 0.408838
vt 0.566997 0.408158
vt 0.565027 0.405346
vt 0.564768 0.405346
vt 0.569681 0.409372
vt 0.570462 0.408358
vt 0.554736 0.404048
vt 0.554949 0.403455
vt 0.554955 0.404211
vt 0.554743 0.403358
vt 0.554955 0.402289
vt 0.554749 0.402228
vt 0.554935 0.401346
vt 0.559887 0.403610
vt 0.559608 0.404493
vt 0.559712 0.403531
vt 0.559772 0.404549
vt 0.559592 0.405490
vt 0.559887 0.406578
vt 0.559686 0.406655
vt 0.566147 0.408089
vt 0.566381 0.409153
vt 0.566177 0.409255
vt 0.566399 0.409844
vt 0.566147 0.410011
vt 0.568658 0.409493
vt 0.569456 0.409204
vt 0.558286 0.402216
vt 0.557818 0.403333
vt 0.557941 0.402219
vt 0.567734 0.415627
vt 0.568157 0.414934
vt 0.568147 0.415884
vt 0.567730 0.414849
vt 0.568166 0.413732
vt 0.567740 0.413680
vt 0.568166 0.412759
vt 0.567282 0.412816
vt 0.567626 0.413687
vt 0.567204 0.413699
vt 0.567619 0.414700
vt 0.567210 0.414845
vt 0.567723 0.415850
vt 0.567304 0.415877
vt 0.558286 0.401176
vt 0.558716 0.402296
vt 0.558289 0.402378
vt 0.558669 0.403074
vt 0.558286 0.403328
vt 0.557818 0.401126
vt 0.566298 0.409184
vt 0.568464 0.409399
vt 0.569421 0.409169
vt 0.564529 0.403347
vt 0.564549 0.404492
vt 0.564499 0.403349
vt 0.575030 0.412225
vt 0.575086 0.413101
vt 0.575004 0.412204
vt 0.565318 0.409466
vt 0.567468 0.405456
vt 0.567500 0.406120
vt 0.567467 0.406138
vt 0.564764 0.404166
vt 0.564761 0.403361
vt 0.564788 0.404165
vt 0.574770 0.411324
vt 0.574741 0.411329
vt 0.559631 0.404073
vt 0.559656 0.405219
vt 0.559631 0.405225
vt 0.567467 0.404339
vt 0.567495 0.405446
vt 0.564774 0.405280
vt 0.559603 0.405203
vt 0.559631 0.404072
vt 0.559631 0.405206
vt 0.568332 0.409975
vt 0.568461 0.411115
vt 0.568437 0.411118
vt 0.567469 0.403361
vt 0.567494 0.404333
vt 0.564734 0.406263
vt 0.564758 0.406264
vt 0.563824 0.405957
vt 0.563751 0.404786
vt 0.563779 0.404792
vt 0.568339 0.408975
vt 0.568355 0.409960
vt 0.563499 0.404282
vt 0.563551 0.405273
vt 0.563478 0.404278
vt 0.565302 0.404093
vt 0.565371 0.405273
vt 0.565347 0.405274
vt 0.563831 0.406915
vt 0.563792 0.405973
vt 0.568434 0.408034
vt 0.568363 0.408975
vt 0.563578 0.403355
vt 0.563555 0.403347
vt 0.565347 0.403349
vt 0.565330 0.404074
vt 0.563751 0.407612
vt 0.563775 0.407627
vt 0.565554 0.404284
vt 0.565566 0.403351
vt 0.565578 0.404289
vt 0.567504 0.404292
vt 0.567525 0.403354
vt 0.567531 0.404297
vt 0.564910 0.405213
vt 0.564950 0.406157
vt 0.564925 0.406158
vt 0.567542 0.404488
vt 0.567556 0.405413
vt 0.567531 0.405419
vt 0.565539 0.405442
vt 0.565564 0.405451
vt 0.567504 0.405405
vt 0.567530 0.405415
vt 0.564920 0.404099
vt 0.564896 0.404098
vt 0.567531 0.403354
vt 0.567571 0.404486
vt 0.565542 0.406189
vt 0.565565 0.406220
vt 0.567500 0.406077
vt 0.567529 0.406096
vt 0.564922 0.403355
vt 0.574965 0.414026
vt 0.574771 0.414830
vt 0.574741 0.414825
vt 0.570236 0.408264
vt 0.564577 0.404512
vt 0.564499 0.405464
vt 0.574989 0.414014
vt 0.566807 0.411324
vt 0.566809 0.411346
vt 0.567594 0.406242
vt 0.567600 0.406255
vt 0.553708 0.402975
vt 0.554873 0.402747
vt 0.554882 0.402763
vt 0.566279 0.406093
vt 0.566278 0.406115
vt 0.566990 0.407046
vt 0.566972 0.407045
vt 0.563776 0.409698
vt 0.563775 0.409718
vt 0.552104 0.401929
vt 0.552082 0.401936
vt 0.566940 0.408233
vt 0.566919 0.408242
vt 0.566051 0.414048
vt 0.566812 0.414891
vt 0.566808 0.414912
vt 0.561758 0.409575
vt 0.561770 0.409591
vt 0.562432 0.407296
vt 0.562451 0.407306
vt 0.567533 0.409180
vt 0.567519 0.409198
vt 0.567339 0.402843
vt 0.567352 0.402824
vt 0.562409 0.408833
vt 0.562432 0.408838
vt 0.566051 0.411918
vt 0.566062 0.411932
vt 0.568465 0.409420
vt 0.555522 0.401930
vt 0.555544 0.401936
vt 0.562432 0.407713
vt 0.562409 0.407718
vt 0.567132 0.405699
vt 0.567120 0.405684
vt 0.564976 0.409739
vt 0.564985 0.409759
vt 0.561770 0.406762
vt 0.561755 0.406773
vt 0.552743 0.402696
vt 0.552755 0.402680
vt 0.567964 0.414891
vt 0.567973 0.414912
vt 0.560784 0.406376
vt 0.560784 0.406390
vt 0.562488 0.408457
vt 0.566283 0.402475
vt 0.559645 0.406734
vt 0.559631 0.406723
vt 0.568014 0.409216
vt 0.568204 0.408039
vt 0.555544 0.400811
vt 0.558993 0.407718
vt 0.558970 0.407713
vt 0.566552 0.409583
vt 0.566571 0.409584
vt 0.567800 0.404673
vt 0.565785 0.408930
vt 0.558992 0.408833
vt 0.558970 0.408838
vt 0.566599 0.408448
vt 0.566620 0.408439
vt 0.553711 0.402957
vt 0.568916 0.414048
vt 0.559631 0.409651
vt 0.565837 0.407598
vt 0.561489 0.407727
vt 0.561939 0.408848
vt 0.561489 0.408879
vt 0.561937 0.409790
vt 0.561465 0.409812
vt 0.565036 0.406024
vt 0.565486 0.404903
vt 0.565486 0.406055
vt 0.561939 0.407685
vt 0.561465 0.406916
vt 0.561937 0.406763
vt 0.559475 0.407440
vt 0.560161 0.406557
vt 0.559957 0.407479
vt 0.556368 0.406998
vt 0.556771 0.407725
vt 0.556322 0.407721
vt 0.559719 0.409271
vt 0.559973 0.408361
vt 0.560161 0.409288
vt 0.556773 0.408850
vt 0.556395 0.409859
vt 0.556342 0.408665
vt 0.564863 0.150271
vt 0.568529 0.151672
vt 0.565686 0.107683
vt 0.564863 0.156899
vt 0.554325 0.114845
vt 0.561331 0.115287
vt 0.555620 0.110441
vt 0.564863 0.106780
vt 0.569294 0.140190
vt 0.561211 0.154907
vt 0.568481 0.136646
vt 0.565192 0.125900
vt 0.564863 0.107593
vt 0.563114 0.151447
vt 0.556595 0.148505
vt 0.561270 0.109222
vt 0.571574 0.110761
vt 0.567065 0.152934
vt 0.565234 0.105241
vt 0.569092 0.149105
vt 0.570038 0.118352
vt 0.571045 0.139424
vt 0.564525 0.109895
vt 0.555799 0.137498
vt 0.580805 0.111298
vt 0.561405 0.154653
vt 0.554674 0.108033
vt 0.588860 0.143359
vt 0.554674 0.137252
vt 0.563536 0.404786
vt 0.562836 0.404786
vt 0.563634 0.406828
vt 0.567593 0.403347
vt 0.565475 0.408017
vt 0.568148 0.406006
vt 0.562912 0.407586
vt 0.559603 0.404067
vt 0.567807 0.406158
vt 0.568190 0.405358
vt 0.567906 0.410299
vt 0.563413 0.406484
vt 0.567137 0.408024
vt 0.567137 0.411144
vt 0.565371 0.403347
vt 0.567896 0.408024
vt 0.567425 0.405592
vt 0.568332 0.408024
vt 0.564577 0.403347
vt 0.565359 0.406428
vt 0.564684 0.400826
vt 0.561678 0.405672
vt 0.566547 0.408024
vt 0.565008 0.407485
vt 0.558934 0.411066
vt 0.558934 0.413896
vt 0.560852 0.400558
vt 0.560852 0.403507
vt 0.566770 0.408024
vt 0.554748 0.401278
vt 0.559800 0.405563
vt 0.566352 0.408024
vt 0.558136 0.403402
vt 0.567723 0.412733
vt 0.558713 0.401126
vt 0.558103 0.401263
vt 0.568444 0.409391
vt 0.575117 0.413092
vt 0.564180 0.409479
vt 0.564734 0.403347
vt 0.559656 0.404067
vt 0.564750 0.405280
vt 0.559603 0.404067
vt 0.567498 0.403347
vt 0.563578 0.405279
vt 0.563803 0.406904
vt 0.568461 0.408024
vt 0.565539 0.403347
vt 0.567500 0.403347
vt 0.564934 0.405212
vt 0.567559 0.403347
vt 0.564950 0.403347
vt 0.566886 0.408065
vt 0.564527 0.405465
vt 0.566062 0.414035
vt 0.568189 0.408024
vt 0.565036 0.404861
vt 0.559677 0.406376
vt 0.556845 0.406873
vt 0.559494 0.408519
vt 0.556845 0.409883
s 0
usemtl Material
f 3/1/1 5/2/1 6/3/1
f 6/4/2 9/5/2 10/6/2
f 10/6/3 13/7/3 14/8/3
f 14/9/4 17/10/4 18/11/4
f 17/10/5 22/12/5 18/11/5
f 22/12/6 25/13/6 26/14/6
f 25/15/7 30/16/7 26/17/7
f 29/18/8 34/19/8 30/16/8
f 33/20/9 38/21/9 34/19/9
f 37/22/10 3/1/10 38/23/10
f 3/1/11 7/24/11 2/25/11
f 7/26/12 10/6/12 11/27/12
f 10/6/13 15/28/13 11/27/13
f 14/8/14 19/29/14 15/28/14
f 19/30/15 22/12/15 23/31/15
f 23/31/16 26/14/16 27/32/16
f 27/33/17 30/16/17 31/34/17
f 31/34/18 34/19/18 35/35/18
f 34/36/19 39/37/19 35/38/19
f 38/23/20 2/25/20 39/37/20
f 1/39/21 7/40/21 8/41/21
f 7/40/22 12/42/22 8/41/22
f 11/27/23 16/43/23 12/44/23
f 15/28/24 20/45/24 16/43/24
f 19/46/25 24/47/25 20/48/25
f 23/49/26 28/50/26 24/47/26
f 28/50/27 31/51/27 32/52/27
f 32/53/28 35/35/28 36/54/28
f 36/54/29 39/55/29 40/56/29
f 40/57/30 2/58/30 1/39/30
f 1/39/31 41/59/31 50/60/31
f 8/61/32 42/62/32 41/63/32
f 12/44/33 43/64/33 42/62/33
f 16/43/34 44/65/34 43/64/34
f 44/66/35 24/47/35 45/67/35
f 45/67/36 28/50/36 46/68/36
f 46/69/37 32/53/37 47/70/37
f 47/70/38 36/54/38 48/71/38
f 48/72/39 40/57/39 49/73/39
f 49/73/40 1/39/40 50/60/40
f 9/5/41 54/74/41 13/7/41
f 13/7/42 55/75/42 17/76/42
f 58/77/43 33/20/43 29/18/43
f 53/78/44 5/79/44 52/80/44
f 51/81/45 5/2/45 4/82/45
f 17/10/46 56/83/46 21/84/46
f 59/85/47 37/22/47 33/86/47
f 57/87/48 29/18/48 25/15/48
f 56/83/49 25/13/49 21/84/49
f 37/22/50 51/81/50 4/82/50
f 68/88/51 101/89/51 70/90/51
f 100/91/52 97/92/52 101/93/52
f 96/94/53 93/95/53 97/92/53
f 92/96/54 89/97/54 93/98/54
f 84/99/55 89/97/55 88/100/55
f 84/99/56 81/101/56 85/102/56
f 76/103/57 81/104/57 80/105/57
f 72/106/58 77/107/58 76/103/58
f 67/108/59 73/109/59 72/106/59
f 68/88/60 69/110/60 67/111/60
f 99/112/61 68/88/61 66/113/61
f 99/114/62 96/94/62 100/91/62
f 91/115/63 96/94/63 95/116/63
f 87/117/64 92/118/64 91/115/64
f 87/119/65 84/99/65 88/100/65
f 83/120/66 80/121/66 84/99/66
f 79/122/67 76/103/67 80/105/67
f 75/123/68 72/106/68 76/103/68
f 65/124/69 72/125/69 71/126/69
f 66/113/70 67/111/70 65/124/70
f 64/127/71 99/128/71 66/129/71
f 94/130/72 99/128/72 98/131/72
f 90/132/73 95/116/73 94/133/73
f 86/134/74 91/115/74 90/132/74
f 82/135/75 87/136/75 86/137/75
f 78/138/76 83/139/76 82/135/76
f 78/138/77 75/140/77 79/141/77
f 74/142/78 71/143/78 75/123/78
f 61/144/79 65/145/79 71/143/79
f 63/146/80 66/129/80 65/147/80
f 109/148/81 64/127/81 106/149/81
f 108/150/82 98/151/82 109/152/82
f 103/153/83 94/133/83 108/150/83
f 102/154/84 90/132/84 103/153/84
f 102/155/85 82/135/85 86/137/85
f 105/156/86 78/138/86 82/135/86
f 110/157/87 74/142/87 78/158/87
f 104/159/88 61/144/88 74/142/88
f 62/160/89 63/146/89 61/161/89
f 107/162/90 64/127/90 63/146/90
f 97/92/91 118/163/91 119/164/91
f 93/95/92 117/165/92 118/163/92
f 73/109/93 114/166/93 77/107/93
f 101/93/94 119/164/94 120/167/94
f 70/90/95 120/168/95 112/169/95
f 89/97/96 116/170/96 117/171/96
f 69/110/97 113/172/97 73/173/97
f 77/107/98 115/174/98 81/104/98
f 81/101/99 116/170/99 85/102/99
f 69/110/100 112/169/100 111/175/100
f 105/176/101 44/66/101 45/67/101
f 57/177/102 114/178/102 58/179/102
f 102/180/103 43/181/103 44/66/103
f 56/182/104 115/183/104 57/177/104
f 43/181/105 108/184/105 42/185/105
f 106/186/106 49/187/106 50/188/106
f 55/189/107 116/190/107 56/182/107
f 42/185/108 109/148/108 41/191/108
f 107/162/109 48/192/109 49/193/109
f 118/194/110 55/189/110 54/195/110
f 41/196/111 106/186/111 50/188/111
f 62/160/112 47/197/112 48/192/112
f 119/198/113 54/195/113 53/199/113
f 60/200/114 112/201/114 51/202/114
f 104/203/115 46/68/115 47/197/115
f 120/204/116 53/199/116 52/205/116
f 59/206/117 111/207/117 60/200/117
f 110/208/118 45/67/118 46/68/118
f 112/201/119 52/205/119 51/202/119
f 58/179/120 113/209/120 59/206/120
f 429/210/121 203/211/121 200/212/121
f 153/213/122 195/214/122 198/215/122
f 433/216/123 211/217/123 175/218/123
f 174/219/124 206/220/124 203/211/124
f 160/221/125 183/222/125 208/223/125
f 176/224/126 211/217/126 212/225/126
f 430/226/127 209/227/127 206/220/127
f 141/228/128 207/229/128 180/230/128
f 124/231/129 232/232/129 126/233/129
f 144/234/130 182/235/130 183/222/130
f 150/236/131 196/237/131 193/238/131
f 133/239/132 161/240/132 131/241/132
f 138/242/133 233/243/133 140/244/133
f 125/245/134 164/246/134 123/247/134
f 130/248/135 227/249/135 132/250/135
f 139/251/136 170/252/136 137/253/136
f 122/254/137 230/255/137 124/231/137
f 131/241/138 163/256/138 129/257/138
f 121/258/139 142/259/139 123/260/139
f 124/261/140 144/234/140 122/262/140
f 123/260/139 145/263/139 125/264/139
f 124/261/140 146/265/140 143/266/140
f 125/264/139 147/267/139 127/268/139
f 128/269/140 146/265/140 126/270/140
f 129/271/139 147/267/139 149/272/139
f 130/273/140 148/274/140 128/269/140
f 131/275/139 149/272/139 151/276/139
f 130/273/140 152/277/140 150/236/140
f 131/275/139 153/213/139 133/278/139
f 134/279/140 152/277/140 132/280/140
f 133/278/139 155/281/139 135/282/139
f 136/283/140 154/284/140 134/279/140
f 137/285/139 155/281/139 157/286/139
f 138/287/140 156/288/140 136/283/140
f 139/289/139 157/286/139 159/290/139
f 138/287/140 160/221/140 158/291/140
f 121/258/139 159/290/139 141/228/139
f 140/292/140 144/234/140 160/221/140
f 162/293/139 165/294/139 166/295/139
f 162/293/139 163/296/139 161/297/139
f 163/296/139 167/298/139 168/299/139
f 165/294/139 170/300/139 166/295/139
f 121/301/141 166/302/141 139/303/141
f 132/250/142 228/304/142 134/305/142
f 127/306/143 167/307/143 125/308/143
f 140/309/144 231/310/144 122/254/144
f 135/311/145 165/312/145 133/313/145
f 126/314/143 225/315/143 128/316/143
f 134/317/146 229/318/146 136/319/146
f 129/320/147 168/321/147 127/306/147
f 137/253/148 169/322/148 135/311/148
f 128/316/149 226/323/149 130/324/149
f 123/247/150 162/325/150 121/301/150
f 136/319/148 234/326/148 138/242/148
f 177/327/151 212/225/151 213/328/151
f 432/329/152 209/227/152 431/330/152
f 141/228/153 181/331/153 142/259/153
f 151/276/154 192/332/154 195/214/154
f 434/333/155 213/328/155 214/334/155
f 160/221/156 205/335/156 158/291/156
f 435/336/157 214/334/157 215/337/157
f 159/290/158 204/338/158 207/229/158
f 148/274/159 193/238/159 190/339/159
f 435/336/160 216/340/160 436/341/160
f 183/342/161 211/343/161 184/344/161
f 211/345/162 187/346/162 212/347/162
f 212/347/163 190/348/163 213/349/163
f 213/349/164 193/350/164 214/351/164
f 214/352/165 196/353/165 215/354/165
f 196/353/166 216/355/166 215/354/166
f 199/356/167 217/357/167 216/355/167
f 202/358/168 218/359/168 217/360/168
f 205/361/169 219/362/169 218/359/169
f 219/363/170 183/342/170 184/344/170
f 207/364/171 210/365/171 180/366/171
f 204/367/172 209/368/172 207/369/172
f 201/370/173 206/371/173 204/367/173
f 198/372/174 203/373/174 201/374/174
f 195/375/175 200/376/175 198/372/175
f 192/377/176 197/378/176 195/375/176
f 191/379/177 192/380/177 189/381/177
f 188/382/178 189/381/178 186/383/178
f 185/384/179 186/383/179 181/385/179
f 210/365/180 181/386/180 180/366/180
f 154/284/181 196/237/181 152/277/181
f 142/259/182 186/387/182 145/263/182
f 428/388/183 200/212/183 197/389/183
f 143/266/184 187/390/184 182/235/184
f 173/391/185 197/389/185 194/392/185
f 155/281/186 198/215/186 201/393/186
f 173/391/187 191/394/187 172/395/187
f 156/288/188 199/396/188 154/284/188
f 433/216/189 219/397/189 184/398/189
f 145/263/190 189/399/190 147/267/190
f 172/395/191 188/400/191 427/401/191
f 178/402/192 219/397/192 179/403/192
f 146/265/193 190/339/193 187/390/193
f 427/401/194 185/404/194 171/405/194
f 157/286/195 201/393/195 204/338/195
f 437/406/196 218/407/196 178/402/196
f 171/405/197 210/365/197 432/329/197
f 158/291/198 202/408/198 156/288/198
f 436/341/199 217/409/199 437/406/199
f 149/272/200 189/399/200 192/332/200
f 248/410/201 272/411/201 247/412/201
f 238/413/202 274/414/202 279/415/202
f 235/416/203 271/417/203 284/418/203
f 240/419/204 272/411/204 270/420/204
f 221/421/205 252/422/205 222/423/205
f 220/424/206 251/425/206 221/421/206
f 307/426/140 241/427/140 310/428/140
f 310/428/140 242/429/140 312/430/140
f 243/431/140 312/430/140 242/429/140
f 316/432/140 243/431/140 244/433/140
f 318/434/140 244/433/140 245/435/140
f 320/436/140 245/435/140 323/437/140
f 296/438/207 302/439/207 322/440/207
f 315/441/140 229/442/140 228/443/140
f 295/444/208 322/440/208 308/445/208
f 296/438/209 298/446/209 297/447/209
f 230/448/140 308/445/140 232/449/140
f 301/450/210 256/451/210 257/452/210
f 220/424/140 242/429/140 241/427/140
f 222/423/140 242/429/140 221/421/140
f 222/423/140 244/433/140 243/431/140
f 224/453/140 244/433/140 223/454/140
f 255/455/211 304/456/211 306/457/211
f 224/453/212 254/458/212 258/459/212
f 309/460/140 232/449/140 308/445/140
f 295/444/213 231/461/213 298/446/213
f 313/462/140 228/443/140 227/463/140
f 298/446/214 300/464/214 297/447/214
f 223/454/215 252/422/215 254/458/215
f 297/447/216 292/465/216 293/466/216
f 258/459/217 264/467/217 263/468/217
f 255/455/218 280/469/218 253/470/218
f 256/451/219 267/471/219 257/452/219
f 254/458/220 265/472/220 264/467/220
f 257/452/221 266/473/221 251/425/221
f 250/474/222 280/469/222 282/475/222
f 259/476/223 263/468/223 262/477/223
f 251/425/224 265/472/224 252/422/224
f 256/451/225 282/475/225 268/478/225
f 259/476/226 281/479/226 255/455/226
f 239/480/227 286/481/227 290/482/227
f 284/418/140 262/477/140 235/416/140
f 235/416/140 263/468/140 236/483/140
f 236/483/140 264/467/140 240/419/140
f 240/419/140 265/472/140 247/412/140
f 248/410/140 265/472/140 266/473/140
f 237/484/140 266/473/140 267/471/140
f 238/413/140 267/471/140 268/478/140
f 285/485/140 268/478/140 282/475/140
f 239/480/228 288/486/228 261/487/228
f 273/488/140 275/489/140 274/414/140
f 270/420/140 276/490/140 277/491/140
f 279/415/140 275/489/140 278/492/140
f 270/420/140 273/488/140 271/417/140
f 235/416/229 277/491/229 276/490/229
f 285/485/230 273/488/230 274/414/230
f 237/484/231 275/489/231 248/410/231
f 236/483/232 270/420/232 277/491/232
f 284/418/233 273/488/233 283/493/233
f 238/413/234 278/492/234 237/484/234
f 260/494/140 281/479/140 261/487/140
f 260/494/140 282/475/140 280/469/140
f 246/495/140 284/418/140 283/493/140
f 246/495/140 285/485/140 249/496/140
f 239/480/140 281/479/140 284/418/140
f 249/496/140 282/475/140 269/497/140
f 290/482/140 287/498/140 288/486/140
f 291/499/140 287/498/140 286/481/140
f 261/487/235 287/498/235 260/494/235
f 249/496/236 289/500/236 291/499/236
f 249/496/237 286/481/237 246/495/237
f 269/497/238 287/498/238 289/500/238
f 253/470/239 292/465/239 255/455/239
f 253/470/240 294/501/240 293/466/240
f 300/464/241 304/456/241 292/465/241
f 224/453/140 323/437/140 245/435/140
f 231/461/242 299/502/242 298/446/242
f 305/503/243 258/459/243 259/476/243
f 311/504/140 225/505/140 309/460/140
f 294/501/244 297/447/244 293/466/244
f 319/506/140 233/507/140 234/508/140
f 313/462/140 226/509/140 311/504/140
f 324/510/245 299/502/245 319/506/245
f 256/451/246 302/439/246 294/501/246
f 317/511/140 234/508/140 229/442/140
f 301/450/247 302/439/247 303/512/247
f 304/456/248 305/503/248 306/457/248
f 319/506/249 330/513/249 324/510/249
f 314/514/250 340/515/250 312/430/250
f 321/516/251 325/517/251 301/450/251
f 317/511/252 335/518/252 333/519/252
f 310/428/253 344/520/253 307/426/253
f 318/434/254 332/521/254 334/522/254
f 308/445/255 346/523/255 343/524/255
f 311/504/256 337/525/256 313/462/256
f 305/503/257 327/526/257 328/527/257
f 321/516/258 344/520/258 345/528/258
f 220/424/140 321/516/140 301/450/140
f 331/529/259 329/530/259 330/513/259
f 331/529/140 334/522/140 332/521/140
f 333/519/140 336/531/140 334/522/140
f 335/518/140 338/532/140 336/531/140
f 339/533/140 338/532/140 337/525/140
f 341/534/140 340/515/140 339/533/140
f 343/524/140 342/535/140 341/534/140
f 325/517/260 346/523/260 326/536/260
f 330/513/261 328/527/261 327/526/261
f 345/528/262 343/524/262 346/523/262
f 309/460/263 339/533/263 311/504/263
f 316/432/264 334/522/264 336/531/264
f 322/440/265 326/536/265 346/523/265
f 301/450/266 326/536/266 302/439/266
f 315/441/267 337/525/267 335/518/267
f 324/510/268 327/526/268 304/456/268
f 323/437/269 332/521/269 320/436/269
f 312/430/270 342/535/270 310/428/270
f 323/437/271 328/527/271 329/530/271
f 319/506/272 333/519/272 331/529/272
f 308/445/273 341/534/273 309/460/273
f 314/514/274 336/531/274 338/532/274
f 348/537/275 447/538/275 385/539/275
f 411/540/276 502/541/276 503/542/276
f 363/543/277 473/544/277 359/545/277
f 426/546/278 517/547/278 438/548/278
f 386/549/279 439/550/279 446/551/279
f 410/552/280 501/553/280 502/541/280
f 364/554/281 472/555/281 360/556/281
f 425/557/282 516/558/282 517/547/282
f 408/559/283 501/553/283 409/560/283
f 365/561/284 471/562/284 361/563/284
f 423/564/285 516/558/285 424/565/285
f 408/559/286 440/566/286 500/567/286
f 366/568/287 470/569/287 362/570/287
f 422/571/288 515/572/288 423/564/288
f 363/543/289 465/573/289 469/574/289
f 421/575/290 514/576/290 422/571/290
f 368/577/291 468/578/291 364/554/291
f 421/575/292 512/579/292 513/580/292
f 369/581/293 467/582/293 365/561/293
f 420/583/294 511/584/294 512/579/294
f 370/585/295 466/586/295 366/568/295
f 419/587/296 510/588/296 511/584/296
f 387/589/297 490/590/297 444/591/297
f 367/592/298 461/593/298 465/573/298
f 417/594/299 510/588/299 418/595/299
f 396/596/300 489/597/300 490/590/300
f 368/577/301 460/598/301 464/599/301
f 417/594/302 438/548/302 509/600/302
f 395/601/303 488/602/303 489/597/303
f 369/581/304 459/603/304 463/604/304
f 393/605/305 488/602/305 394/606/305
f 370/585/306 458/607/306 462/608/306
f 393/605/307 486/609/307 487/610/307
f 371/611/308 457/612/308 461/593/308
f 392/613/309 485/614/309 486/609/309
f 372/615/310 456/616/310 460/598/310
f 391/617/311 484/618/311 485/614/311
f 397/619/312 499/620/312 442/621/312
f 373/622/313 455/623/313 459/603/313
f 351/624/314 445/625/314 350/626/314
f 349/627/315 388/628/315 352/629/315
f 352/630/316 389/631/316 356/632/316
f 356/632/317 390/633/317 360/634/317
f 360/634/318 391/635/318 364/636/318
f 391/637/319 368/638/319 364/639/319
f 392/640/320 372/641/320 368/638/320
f 393/642/321 376/643/321 372/641/321
f 394/644/322 380/645/322 376/646/322
f 395/647/323 384/648/323 380/645/323
f 396/649/324 349/627/324 384/650/324
f 397/651/325 353/652/325 348/653/325
f 353/654/326 399/655/326 357/656/326
f 399/655/148 361/657/148 357/656/148
f 400/658/327 365/659/327 361/657/327
f 365/660/328 402/661/328 369/662/328
f 369/662/329 403/663/329 373/664/329
f 403/663/330 377/665/330 373/664/330
f 404/666/143 381/667/143 377/668/143
f 405/669/331 385/670/331 381/667/331
f 406/671/332 348/653/332 385/672/332
f 347/673/333 408/559/333 354/674/333
f 408/675/334 358/676/334 354/677/334
f 409/678/335 362/679/335 358/676/335
f 410/680/336 366/681/336 362/679/336
f 411/682/337 370/683/337 366/684/337
f 412/685/338 374/686/338 370/683/338
f 374/686/339 414/687/339 378/688/339
f 378/689/340 415/690/340 382/691/340
f 382/691/341 416/692/341 386/693/341
f 386/694/342 407/695/342 347/673/342
f 426/696/343 171/697/343 432/698/343
f 417/699/344 427/700/344 171/701/344
f 418/702/148 172/703/148 427/700/148
f 419/704/345 173/705/345 172/703/345
f 173/706/346 421/707/346 428/708/346
f 428/708/347 422/709/347 429/710/347
f 429/710/348 423/711/348 174/712/348
f 174/713/143 424/714/143 430/715/143
f 430/715/349 425/716/349 431/717/349
f 431/718/350 426/696/350 432/698/350
f 517/547/351 439/719/351 438/548/351
f 508/720/352 441/721/352 440/566/352
f 448/722/353 442/723/353 499/724/353
f 449/725/354 444/726/354 490/727/354
f 516/558/355 446/728/355 517/547/355
f 507/729/356 447/730/356 508/731/356
f 452/732/357 499/733/357 498/734/357
f 453/735/358 490/727/358 489/736/358
f 515/737/359 450/738/359 516/739/359
f 506/740/360 451/741/360 507/729/360
f 497/742/361 452/732/361 498/734/361
f 457/743/362 489/744/362 488/745/362
f 514/746/363 454/747/363 515/748/363
f 505/749/364 455/750/364 506/740/364
f 460/751/365 497/742/365 496/752/365
f 487/753/366 457/754/366 488/755/366
f 513/756/367 458/757/367 514/746/367
f 463/758/368 505/759/368 504/760/368
f 495/761/369 460/762/369 496/763/369
f 486/764/370 461/765/370 487/753/370
f 512/766/371 462/767/371 513/756/371
f 467/768/372 504/760/372 503/769/372
f 494/770/373 464/771/373 495/761/373
f 469/772/374 486/764/374 485/773/374
f 470/774/375 512/775/375 511/776/375
f 471/777/376 503/778/376 502/779/376
f 493/780/377 468/781/377 494/782/377
f 484/783/378 469/784/378 485/785/378
f 474/786/379 511/776/379 510/787/379
f 475/788/380 502/779/380 501/789/380
f 476/790/381 493/780/381 492/791/381
f 483/792/382 473/793/382 484/783/382
f 478/794/383 510/787/383 509/795/383
f 479/796/384 501/789/384 500/797/384
f 491/798/385 476/790/385 492/791/385
f 482/799/386 477/800/386 483/801/386
f 439/719/387 509/600/387 438/548/387
f 440/566/388 479/802/388 500/567/388
f 443/803/389 491/804/389 442/723/389
f 444/726/390 481/805/390 482/799/390
f 358/806/391 470/569/391 474/807/391
f 412/808/392 503/542/392 504/809/392
f 349/810/393 448/811/393 384/812/393
f 361/563/394 475/813/394 357/814/394
f 412/808/395 505/815/395 413/816/395
f 350/626/396 449/817/396 383/818/396
f 360/556/397 476/819/397 356/820/397
f 413/816/398 506/821/398 414/822/398
f 386/823/399 450/824/399 382/825/399
f 397/619/400 491/826/400 398/827/400
f 355/828/401 473/544/401 477/829/401
f 414/822/402 507/830/402 415/831/402
f 385/539/403 451/832/403 381/833/403
f 398/827/404 492/834/404 399/835/404
f 354/836/405 474/807/405 478/837/405
f 416/838/406 507/830/406 508/720/406
f 384/812/407 452/839/407 380/840/407
f 400/841/408 492/834/408 493/842/408
f 353/843/409 475/813/409 479/844/409
f 416/838/410 440/566/410 407/695/410
f 383/818/411 453/845/411 379/846/411
f 401/847/412 493/842/412 494/848/412
f 352/849/413 476/819/413 480/850/413
f 382/825/414 454/851/414 378/852/414
f 402/853/415 494/848/415 495/854/415
f 351/624/416 477/829/416 481/855/416
f 377/856/417 451/832/417 455/623/417
f 402/853/418 496/857/418 403/858/418
f 347/859/419 478/860/419 439/550/419
f 376/861/420 452/839/420 456/616/420
f 403/858/421 497/862/421 404/863/421
f 387/589/422 482/864/422 388/865/422
f 353/843/423 441/866/423 348/537/423
f 375/867/424 453/845/424 457/612/424
f 404/863/425 498/868/425 405/869/425
f 388/865/426 483/870/426 389/871/426
f 349/810/427 480/850/427 443/872/427
f 374/873/428 454/851/428 458/607/428
f 406/874/429 498/868/429 499/620/429
f 389/871/430 484/618/430 390/875/430
f 355/876/431 177/877/431 359/878/431
f 359/878/432 434/879/432 363/880/432
f 437/881/433 379/882/433 375/883/433
f 176/884/434 351/885/434 175/886/434
f 433/887/435 351/888/435 350/889/435
f 363/890/436 435/891/436 367/892/436
f 178/893/437 383/894/437 379/895/437
f 436/896/438 375/897/438 371/898/438
f 435/891/439 371/898/439 367/892/439
f 383/894/440 433/887/440 350/889/440
f 3/1/441 4/82/441 5/2/441
f 6/4/442 5/79/442 9/5/442
f 10/6/3 9/5/3 13/7/3
f 14/9/443 13/899/443 17/10/443
f 17/10/444 21/84/444 22/12/444
f 22/12/445 21/84/445 25/13/445
f 25/15/446 29/18/446 30/16/446
f 29/18/8 33/20/8 34/19/8
f 33/20/447 37/900/447 38/21/447
f 37/22/448 4/82/448 3/1/448
f 3/1/449 6/3/449 7/24/449
f 7/26/450 6/4/450 10/6/450
f 10/6/13 14/8/13 15/28/13
f 14/8/451 18/901/451 19/29/451
f 19/30/452 18/11/452 22/12/452
f 23/31/453 22/12/453 26/14/453
f 27/33/454 26/17/454 30/16/454
f 31/34/18 30/16/18 34/19/18
f 34/36/455 38/23/455 39/37/455
f 38/23/456 3/1/456 2/25/456
f 1/39/457 2/58/457 7/40/457
f 7/40/458 11/902/458 12/42/458
f 11/27/23 15/28/23 16/43/23
f 15/28/459 19/29/459 20/45/459
f 19/46/460 23/49/460 24/47/460
f 23/49/461 27/903/461 28/50/461
f 28/50/462 27/903/462 31/51/462
f 32/53/28 31/34/28 35/35/28
f 36/54/463 35/35/463 39/55/463
f 40/57/464 39/904/464 2/58/464
f 1/39/465 8/41/465 41/59/465
f 8/61/466 12/44/466 42/62/466
f 12/44/33 16/43/33 43/64/33
f 16/43/467 20/45/467 44/65/467
f 44/66/468 20/48/468 24/47/468
f 45/67/469 24/47/469 28/50/469
f 46/69/470 28/905/470 32/53/470
f 47/70/38 32/53/38 36/54/38
f 48/72/471 36/906/471 40/57/471
f 49/73/472 40/57/472 1/39/472
f 9/5/41 53/78/41 54/74/41
f 13/7/473 54/74/473 55/75/473
f 58/77/43 59/907/43 33/20/43
f 53/78/474 9/5/474 5/79/474
f 51/81/475 52/908/475 5/2/475
f 17/10/476 55/909/476 56/83/476
f 59/85/477 60/910/477 37/22/477
f 57/87/478 58/77/478 29/18/478
f 56/83/479 57/911/479 25/13/479
f 37/22/480 60/910/480 51/81/480
f 68/88/481 100/912/481 101/89/481
f 100/91/482 96/94/482 97/92/482
f 96/94/483 92/118/483 93/95/483
f 92/96/484 88/100/484 89/97/484
f 84/99/485 85/102/485 89/97/485
f 84/99/486 80/121/486 81/101/486
f 76/103/487 77/107/487 81/104/487
f 72/106/488 73/109/488 77/107/488
f 67/108/489 69/913/489 73/109/489
f 68/88/490 70/90/490 69/110/490
f 99/112/491 100/912/491 68/88/491
f 99/114/492 95/116/492 96/94/492
f 91/115/493 92/118/493 96/94/493
f 87/117/494 88/914/494 92/118/494
f 87/119/495 83/120/495 84/99/495
f 83/120/496 79/915/496 80/121/496
f 79/122/497 75/123/497 76/103/497
f 75/123/498 71/143/498 72/106/498
f 65/124/499 67/111/499 72/125/499
f 66/113/500 68/88/500 67/111/500
f 64/127/501 98/131/501 99/128/501
f 94/130/502 95/916/502 99/128/502
f 90/132/503 91/115/503 95/116/503
f 86/134/504 87/117/504 91/115/504
f 82/135/505 83/139/505 87/136/505
f 78/138/506 79/141/506 83/139/506
f 78/138/507 74/917/507 75/140/507
f 74/142/508 61/144/508 71/143/508
f 61/144/509 63/918/509 65/145/509
f 63/146/510 64/127/510 66/129/510
f 109/148/511 98/131/511 64/127/511
f 108/150/512 94/133/512 98/151/512
f 103/153/513 90/132/513 94/133/513
f 102/154/514 86/134/514 90/132/514
f 102/155/515 105/156/515 82/135/515
f 105/156/516 110/919/516 78/138/516
f 110/157/517 104/159/517 74/142/517
f 104/159/518 62/920/518 61/144/518
f 62/160/519 107/162/519 63/146/519
f 107/162/520 106/149/520 64/127/520
f 97/92/521 93/95/521 118/163/521
f 93/95/522 89/921/522 117/165/522
f 73/109/523 113/922/523 114/166/523
f 101/93/524 97/92/524 119/164/524
f 70/90/525 101/89/525 120/168/525
f 89/97/526 85/102/526 116/170/526
f 69/110/527 111/175/527 113/172/527
f 77/107/528 114/166/528 115/174/528
f 81/101/529 115/923/529 116/170/529
f 69/110/530 70/90/530 112/169/530
f 105/176/531 102/180/531 44/66/531
f 57/177/532 115/183/532 114/178/532
f 102/180/533 103/924/533 43/181/533
f 56/182/534 116/190/534 115/183/534
f 43/181/535 103/924/535 108/184/535
f 106/186/536 107/925/536 49/187/536
f 55/189/537 117/926/537 116/190/537
f 42/185/538 108/184/538 109/148/538
f 107/162/539 62/160/539 48/192/539
f 118/194/540 117/926/540 55/189/540
f 41/196/541 109/927/541 106/186/541
f 62/160/542 104/203/542 47/197/542
f 119/198/543 118/194/543 54/195/543
f 60/200/544 111/207/544 112/201/544
f 104/203/545 110/208/545 46/68/545
f 120/204/546 119/198/546 53/199/546
f 59/206/547 113/209/547 111/207/547
f 110/208/548 105/176/548 45/67/548
f 112/201/549 120/204/549 52/205/549
f 58/179/550 114/178/550 113/209/550
f 429/210/551 174/219/551 203/211/551
f 153/213/552 151/276/552 195/214/552
f 433/216/553 184/398/553 211/217/553
f 174/219/554 430/226/554 206/220/554
f 160/221/555 144/234/555 183/222/555
f 176/224/556 175/218/556 211/217/556
f 430/226/557 431/330/557 209/227/557
f 141/228/558 159/290/558 207/229/558
f 124/231/129 230/255/129 232/232/129
f 144/234/559 143/266/559 182/235/559
f 150/236/560 152/277/560 196/237/560
f 133/239/132 165/928/132 161/240/132
f 138/242/133 234/326/133 233/243/133
f 125/245/134 167/929/134 164/246/134
f 130/248/135 226/930/135 227/249/135
f 139/251/136 166/931/136 170/252/136
f 122/254/137 231/310/137 230/255/137
f 131/241/138 161/240/138 163/256/138
f 121/258/139 141/228/139 142/259/139
f 124/261/140 143/266/140 144/234/140
f 123/260/139 142/259/139 145/263/139
f 124/261/140 126/270/140 146/265/140
f 125/264/139 145/263/139 147/267/139
f 128/269/140 148/274/140 146/265/140
f 129/271/139 127/268/139 147/267/139
f 130/273/140 150/236/140 148/274/140
f 131/275/139 129/271/139 149/272/139
f 130/273/140 132/280/140 152/277/140
f 131/275/139 151/276/139 153/213/139
f 134/279/140 154/284/140 152/277/140
f 133/278/139 153/213/139 155/281/139
f 136/283/140 156/288/140 154/284/140
f 137/285/139 135/282/139 155/281/139
f 138/287/140 158/291/140 156/288/140
f 139/289/139 137/285/139 157/286/139
f 138/287/140 140/292/140 160/221/140
f 121/258/139 139/289/139 159/290/139
f 140/292/140 122/262/140 144/234/140
f 162/293/139 161/297/139 165/294/139
f 162/293/139 164/932/139 163/296/139
f 163/296/139 164/932/139 167/298/139
f 165/294/139 169/933/139 170/300/139
f 121/301/141 162/325/141 166/302/141
f 132/250/142 227/249/142 228/304/142
f 127/306/143 168/321/143 167/307/143
f 140/309/144 233/934/144 231/310/144
f 135/311/145 169/322/145 165/312/145
f 126/314/143 232/935/143 225/315/143
f 134/317/146 228/936/146 229/318/146
f 129/320/147 163/937/147 168/321/147
f 137/253/148 170/252/148 169/322/148
f 128/316/149 225/315/149 226/323/149
f 123/247/150 164/246/150 162/325/150
f 136/319/148 229/318/148 234/326/148
f 177/327/561 176/224/561 212/225/561
f 432/329/562 210/365/562 209/227/562
f 141/228/563 180/230/563 181/331/563
f 151/276/564 149/272/564 192/332/564
f 434/333/565 177/327/565 213/328/565
f 160/221/566 208/223/566 205/335/566
f 435/336/567 434/333/567 214/334/567
f 159/290/568 157/286/568 204/338/568
f 148/274/569 150/236/569 193/238/569
f 435/336/570 215/337/570 216/340/570
f 183/342/571 182/938/571 211/343/571
f 211/345/572 182/939/572 187/346/572
f 212/347/573 187/346/573 190/348/573
f 213/349/574 190/348/574 193/350/574
f 214/352/575 193/940/575 196/353/575
f 196/353/576 199/356/576 216/355/576
f 199/356/577 202/941/577 217/357/577
f 202/358/578 205/361/578 218/359/578
f 205/361/579 208/942/579 219/362/579
f 219/363/580 208/943/580 183/342/580
f 207/364/581 209/227/581 210/365/581
f 204/367/582 206/371/582 209/368/582
f 201/370/583 203/944/583 206/371/583
f 198/372/584 200/376/584 203/373/584
f 195/375/585 197/378/585 200/376/585
f 192/377/586 194/945/586 197/378/586
f 191/379/587 194/946/587 192/380/587
f 188/382/588 191/379/588 189/381/588
f 185/384/589 188/382/589 186/383/589
f 210/365/590 185/404/590 181/386/590
f 154/284/591 199/396/591 196/237/591
f 142/259/592 181/331/592 186/387/592
f 428/388/593 429/210/593 200/212/593
f 143/266/594 146/265/594 187/390/594
f 173/391/595 428/388/595 197/389/595
f 155/281/596 153/213/596 198/215/596
f 173/391/597 194/392/597 191/394/597
f 156/288/598 202/408/598 199/396/598
f 433/216/599 179/403/599 219/397/599
f 145/263/600 186/387/600 189/399/600
f 172/395/601 191/394/601 188/400/601
f 178/402/602 218/407/602 219/397/602
f 146/265/603 148/274/603 190/339/603
f 427/401/604 188/400/604 185/404/604
f 157/286/605 155/281/605 201/393/605
f 437/406/606 217/409/606 218/407/606
f 171/405/607 185/404/607 210/365/607
f 158/291/608 205/335/608 202/408/608
f 436/341/609 216/340/609 217/409/609
f 149/272/610 147/267/610 189/399/610
f 248/410/201 275/489/201 272/411/201
f 238/413/202 285/485/202 274/414/202
f 235/416/203 276/490/203 271/417/203
f 240/419/204 247/412/204 272/411/204
f 221/421/611 251/425/611 252/422/611
f 220/424/612 257/452/612 251/425/612
f 307/426/140 321/516/140 241/427/140
f 310/428/140 241/427/140 242/429/140
f 243/431/140 314/514/140 312/430/140
f 316/432/140 314/514/140 243/431/140
f 318/434/140 316/432/140 244/433/140
f 320/436/140 318/434/140 245/435/140
f 296/438/613 294/501/613 302/439/613
f 315/441/140 317/511/140 229/442/140
f 295/444/614 296/438/614 322/440/614
f 296/438/615 295/444/615 298/446/615
f 230/448/616 295/444/616 308/445/616
f 257/452/617 220/424/617 301/450/617
f 301/450/618 303/512/618 256/451/618
f 220/424/140 221/421/140 242/429/140
f 222/423/140 243/431/140 242/429/140
f 222/423/140 223/454/140 244/433/140
f 224/453/140 245/435/140 244/433/140
f 306/457/619 259/476/619 255/455/619
f 255/455/620 292/465/620 304/456/620
f 224/453/621 223/454/621 254/458/621
f 309/460/140 225/505/140 232/449/140
f 295/444/622 230/448/622 231/461/622
f 313/462/140 315/441/140 228/443/140
f 298/446/623 299/502/623 300/464/623
f 223/454/624 222/423/624 252/422/624
f 297/447/625 300/464/625 292/465/625
f 258/459/626 254/458/626 264/467/626
f 255/455/627 281/479/627 280/469/627
f 256/451/628 268/478/628 267/471/628
f 254/458/629 252/422/629 265/472/629
f 257/452/630 267/471/630 266/473/630
f 250/474/631 253/470/631 280/469/631
f 259/476/632 258/459/632 263/468/632
f 251/425/633 266/473/633 265/472/633
f 256/451/634 250/474/634 282/475/634
f 259/476/635 262/477/635 281/479/635
f 239/480/636 246/495/636 286/481/636
f 284/418/140 281/479/140 262/477/140
f 235/416/140 262/477/140 263/468/140
f 236/483/140 263/468/140 264/467/140
f 240/419/140 264/467/140 265/472/140
f 248/410/140 247/412/140 265/472/140
f 237/484/140 248/410/140 266/473/140
f 238/413/140 237/484/140 267/471/140
f 285/485/140 238/413/140 268/478/140
f 239/480/637 290/482/637 288/486/637
f 273/488/140 272/411/140 275/489/140
f 270/420/140 271/417/140 276/490/140
f 279/415/140 274/414/140 275/489/140
f 270/420/140 272/411/140 273/488/140
f 235/416/638 236/483/638 277/491/638
f 285/485/230 283/493/230 273/488/230
f 237/484/639 278/492/639 275/489/639
f 236/483/232 240/419/232 270/420/232
f 284/418/233 271/417/233 273/488/233
f 238/413/234 279/415/234 278/492/234
f 260/494/140 280/469/140 281/479/140
f 260/494/140 269/497/140 282/475/140
f 246/495/140 239/480/140 284/418/140
f 246/495/140 283/493/140 285/485/140
f 239/480/140 261/487/140 281/479/140
f 249/496/140 285/485/140 282/475/140
f 290/482/140 286/481/140 287/498/140
f 291/499/140 289/500/140 287/498/140
f 261/487/640 288/486/640 287/498/640
f 249/496/641 269/497/641 289/500/641
f 249/496/642 291/499/642 286/481/642
f 269/497/238 260/494/238 287/498/238
f 253/470/643 293/466/643 292/465/643
f 253/470/644 250/474/644 294/501/644
f 300/464/645 324/510/645 304/456/645
f 224/453/140 305/503/140 323/437/140
f 231/461/646 233/507/646 299/502/646
f 259/476/647 306/457/647 305/503/647
f 305/503/648 224/453/648 258/459/648
f 311/504/140 226/509/140 225/505/140
f 294/501/649 296/438/649 297/447/649
f 319/506/650 299/502/650 233/507/650
f 313/462/140 227/463/140 226/509/140
f 324/510/651 300/464/651 299/502/651
f 294/501/652 250/474/652 256/451/652
f 256/451/653 303/512/653 302/439/653
f 317/511/140 319/506/140 234/508/140
f 319/506/654 331/529/654 330/513/654
f 314/514/655 338/532/655 340/515/655
f 321/516/656 345/528/656 325/517/656
f 317/511/657 315/441/657 335/518/657
f 310/428/658 342/535/658 344/520/658
f 318/434/659 320/436/659 332/521/659
f 308/445/660 322/440/660 346/523/660
f 311/504/661 339/533/661 337/525/661
f 305/503/662 304/456/662 327/526/662
f 321/516/663 307/426/663 344/520/663
f 220/424/140 241/427/140 321/516/140
f 331/529/140 332/521/140 329/530/140
f 331/529/140 333/519/140 334/522/140
f 333/519/140 335/518/140 336/531/140
f 335/518/140 337/525/140 338/532/140
f 339/533/140 340/515/140 338/532/140
f 341/534/140 342/535/140 340/515/140
f 343/524/140 344/520/140 342/535/140
f 325/517/664 345/528/664 346/523/664
f 330/513/665 329/530/665 328/527/665
f 345/528/140 344/520/140 343/524/140
f 309/460/666 341/534/666 339/533/666
f 316/432/667 318/434/667 334/522/667
f 322/440/668 302/439/668 326/536/668
f 301/450/669 325/517/669 326/536/669
f 315/441/670 313/462/670 337/525/670
f 324/510/671 330/513/671 327/526/671
f 323/437/672 329/530/672 332/521/672
f 312/430/673 340/515/673 342/535/673
f 323/437/674 305/503/674 328/527/674
f 319/506/675 317/511/675 333/519/675
f 308/445/676 343/524/676 341/534/676
f 314/514/677 316/432/677 336/531/677
f 348/537/678 441/866/678 447/538/678
f 411/540/679 410/552/679 502/541/679
f 363/543/680 469/574/680 473/544/680
f 426/546/681 425/557/681 517/547/681
f 386/549/682 347/859/682 439/550/682
f 410/552/683 409/560/683 501/553/683
f 364/554/684 468/578/684 472/555/684
f 425/557/685 424/565/685 516/558/685
f 408/559/686 500/567/686 501/553/686
f 365/561/687 467/582/687 471/562/687
f 423/564/688 515/572/688 516/558/688
f 408/559/689 407/695/689 440/566/689
f 366/568/690 466/586/690 470/569/690
f 422/571/691 514/576/691 515/572/691
f 363/543/692 367/592/692 465/573/692
f 421/575/693 513/580/693 514/576/693
f 368/577/694 464/599/694 468/578/694
f 421/575/695 420/583/695 512/579/695
f 369/581/696 463/604/696 467/582/696
f 420/583/697 419/587/697 511/584/697
f 370/585/698 462/608/698 466/586/698
f 419/587/699 418/595/699 510/588/699
f 387/589/700 396/596/700 490/590/700
f 367/592/701 371/611/701 461/593/701
f 417/594/702 509/600/702 510/588/702
f 396/596/703 395/601/703 489/597/703
f 368/577/704 372/615/704 460/598/704
f 417/594/705 426/546/705 438/548/705
f 395/601/706 394/606/706 488/602/706
f 369/581/707 373/622/707 459/603/707
f 393/605/708 487/610/708 488/602/708
f 370/585/709 374/873/709 458/607/709
f 393/605/710 392/613/710 486/609/710
f 371/611/711 375/867/711 457/612/711
f 392/613/712 391/617/712 485/614/712
f 372/615/713 376/861/713 456/616/713
f 391/617/714 390/875/714 484/618/714
f 397/619/715 406/874/715 499/620/715
f 373/622/716 377/856/716 455/623/716
f 351/624/717 481/855/717 445/625/717
f 349/627/718 387/947/718 388/628/718
f 352/630/719 388/948/719 389/631/719
f 356/632/317 389/631/317 390/633/317
f 360/634/720 390/633/720 391/635/720
f 391/637/721 392/640/721 368/638/721
f 392/640/722 393/642/722 372/641/722
f 393/642/723 394/949/723 376/643/723
f 394/644/322 395/647/322 380/645/322
f 395/647/724 396/950/724 384/648/724
f 396/649/725 387/947/725 349/627/725
f 397/651/726 398/951/726 353/652/726
f 353/654/727 398/952/727 399/655/727
f 399/655/148 400/658/148 361/657/148
f 400/658/327 401/953/327 365/659/327
f 365/660/728 401/954/728 402/661/728
f 369/662/729 402/661/729 403/663/729
f 403/663/330 404/955/330 377/665/330
f 404/666/143 405/669/143 381/667/143
f 405/669/730 406/956/730 385/670/730
f 406/671/731 397/651/731 348/653/731
f 347/673/732 407/695/732 408/559/732
f 408/675/733 409/678/733 358/676/733
f 409/678/335 410/680/335 362/679/335
f 410/680/734 411/957/734 366/681/734
f 411/682/735 412/685/735 370/683/735
f 412/685/736 413/958/736 374/686/736
f 374/686/737 413/958/737 414/687/737
f 378/689/340 414/959/340 415/690/340
f 382/691/738 415/690/738 416/692/738
f 386/694/739 416/838/739 407/695/739
f 426/696/740 417/960/740 171/697/740
f 417/699/741 418/702/741 427/700/741
f 418/702/148 419/704/148 172/703/148
f 419/704/742 420/961/742 173/705/742
f 173/706/743 420/961/743 421/707/743
f 428/708/744 421/707/744 422/709/744
f 429/710/745 422/709/745 423/711/745
f 174/713/143 423/962/143 424/714/143
f 430/715/746 424/714/746 425/716/746
f 431/718/747 425/963/747 426/696/747
f 517/547/748 446/728/748 439/719/748
f 508/720/749 447/964/749 441/721/749
f 448/722/750 443/803/750 442/723/750
f 449/725/751 445/965/751 444/726/751
f 516/558/752 450/966/752 446/728/752
f 507/729/753 451/741/753 447/730/753
f 452/732/754 448/967/754 499/733/754
f 453/735/755 449/725/755 490/727/755
f 515/737/756 454/968/756 450/738/756
f 506/740/757 455/750/757 451/741/757
f 497/742/758 456/969/758 452/732/758
f 457/743/759 453/970/759 489/744/759
f 514/746/760 458/757/760 454/747/760
f 505/749/761 459/971/761 455/750/761
f 460/751/762 456/969/762 497/742/762
f 487/753/763 461/765/763 457/754/763
f 513/756/764 462/767/764 458/757/764
f 463/758/765 459/972/765 505/759/765
f 495/761/766 464/771/766 460/762/766
f 486/764/767 465/973/767 461/765/767
f 512/766/768 466/974/768 462/767/768
f 467/768/769 463/758/769 504/760/769
f 494/770/770 468/942/770 464/771/770
f 469/772/771 465/973/771 486/764/771
f 470/774/772 466/975/772 512/775/772
f 471/777/773 467/976/773 503/778/773
f 493/780/774 472/977/774 468/781/774
f 484/783/775 473/793/775 469/784/775
f 474/786/776 470/774/776 511/776/776
f 475/788/777 471/777/777 502/779/777
f 476/790/778 472/977/778 493/780/778
f 483/792/779 477/978/779 473/793/779
f 478/794/780 474/786/780 510/787/780
f 479/796/781 475/788/781 501/789/781
f 491/798/782 480/979/782 476/790/782
f 482/799/783 481/805/783 477/800/783
f 439/719/784 478/980/784 509/600/784
f 440/566/785 441/721/785 479/802/785
f 443/803/786 480/981/786 491/804/786
f 444/726/787 445/965/787 481/805/787
f 358/806/788 362/570/788 470/569/788
f 412/808/789 411/540/789 503/542/789
f 349/810/790 443/872/790 448/811/790
f 361/563/791 471/562/791 475/813/791
f 412/808/792 504/809/792 505/815/792
f 350/626/793 445/625/793 449/817/793
f 360/556/794 472/555/794 476/819/794
f 413/816/795 505/815/795 506/821/795
f 386/823/796 446/982/796 450/824/796
f 397/619/797 442/621/797 491/826/797
f 355/828/798 359/545/798 473/544/798
f 414/822/799 506/821/799 507/830/799
f 385/539/800 447/538/800 451/832/800
f 398/827/801 491/826/801 492/834/801
f 354/836/802 358/806/802 474/807/802
f 416/838/803 415/831/803 507/830/803
f 384/812/804 448/811/804 452/839/804
f 400/841/805 399/835/805 492/834/805
f 353/843/806 357/814/806 475/813/806
f 416/838/807 508/720/807 440/566/807
f 383/818/808 449/817/808 453/845/808
f 401/847/809 400/841/809 493/842/809
f 352/849/810 356/820/810 476/819/810
f 382/825/811 450/824/811 454/851/811
f 402/853/812 401/847/812 494/848/812
f 351/624/813 355/828/813 477/829/813
f 377/856/814 381/833/814 451/832/814
f 402/853/815 495/854/815 496/857/815
f 347/859/816 354/983/816 478/860/816
f 376/861/817 380/840/817 452/839/817
f 403/858/818 496/857/818 497/862/818
f 387/589/819 444/591/819 482/864/819
f 353/843/820 479/844/820 441/866/820
f 375/867/821 379/846/821 453/845/821
f 404/863/822 497/862/822 498/868/822
f 388/865/823 482/864/823 483/870/823
f 349/810/824 352/849/824 480/850/824
f 374/873/825 378/852/825 454/851/825
f 406/874/826 405/869/826 498/868/826
f 389/871/827 483/870/827 484/618/827
f 355/876/431 176/884/431 177/877/431
f 359/878/828 177/877/828 434/879/828
f 437/881/433 178/984/433 379/882/433
f 176/884/829 355/876/829 351/885/829
f 433/887/830 175/985/830 351/888/830
f 363/890/831 434/986/831 435/891/831
f 178/893/832 179/987/832 383/894/832
f 436/896/833 437/988/833 375/897/833
f 435/891/834 436/896/834 371/898/834
f 383/894/835 179/987/835 433/887/835
