# Blender 4.2.1 LTS
# www.blender.org
mtllib car_seat_2.mtl
g car_seat_2_Mesh
v 0.163089 0.086385 0.196796
v -0.142205 0.063222 0.182782
v 0.337810 0.072334 -0.456576
v -0.218215 0.528422 0.232046
v -0.252567 0.027540 -0.483677
v 0.163384 0.557375 0.249563
v -0.249535 0.003663 0.002745
v 0.294112 0.044911 0.027700
v 0.171238 0.194414 0.180444
v -0.135491 0.117938 0.143208
v -0.262354 0.152771 -0.477468
v 0.328024 0.197565 -0.450368
v 0.239244 0.195039 0.022167
v -0.219141 0.160696 0.000850
v 0.248904 0.623619 0.056017
v -0.294743 0.582371 0.031062
v -0.089059 0.067254 0.185221
v 0.109943 0.082353 0.194356
v 0.069427 0.872115 0.317643
v -0.179313 0.853243 0.306225
v 0.180555 0.063808 -0.532500
v -0.089566 0.043313 -0.544899
v -0.176804 0.877184 0.211991
v 0.046211 0.853757 0.204111
v -0.102082 0.014850 0.009514
v 0.146659 0.033723 0.020932
v 0.112288 0.184884 0.048423
v -0.094868 0.169167 0.038914
v -0.096543 0.132591 -0.540474
v 0.173578 0.153086 -0.528074
v 0.099707 0.136461 0.155333
v -0.084931 0.122452 0.146857
v 0.089902 0.723661 0.116970
v -0.158838 0.704788 0.105552
v 0.087141 0.656520 0.288099
v -0.161599 0.637647 0.276681
v 0.296008 0.047303 -0.017560
v -0.247639 0.006055 -0.042515
v 0.286314 0.193990 -0.048835
v -0.257333 0.152742 -0.073790
v 0.138864 0.160115 -0.018181
v -0.089329 0.159335 -0.101355
v -0.100185 0.017242 -0.035747
v 0.148555 0.036115 -0.024329
v 0.350169 0.089412 -0.202764
v -0.300048 0.168490 -0.233565
v -0.290424 0.040808 -0.232170
v 0.340545 0.217093 -0.204160
v 0.205004 0.184091 -0.206498
v -0.148486 0.126449 -0.145663
v -0.116676 0.053991 -0.224194
v 0.176421 0.076229 -0.210740
v 0.359839 0.096272 -0.325898
v -0.299383 0.174666 -0.357112
v -0.289760 0.046984 -0.355716
v 0.350215 0.223953 -0.327293
v 0.195577 0.192227 -0.358202
v -0.167830 0.160042 -0.312449
v -0.113569 0.060353 -0.347629
v 0.183648 0.082903 -0.333985
v -0.171067 0.035427 -0.514288
v -0.155939 0.166364 0.006839
v -0.107230 0.120760 0.145834
v -0.228767 0.674125 0.060870
v -0.190012 0.616764 0.270618
v -0.113092 0.065431 0.184118
v -0.175808 0.009256 0.006129
v -0.179449 0.142681 -0.508971
v -0.173912 0.011648 -0.039131
v -0.153139 0.127305 -0.024361
v -0.203550 0.047399 -0.228182
v -0.218021 0.156364 -0.214887
v -0.201664 0.053668 -0.351673
v -0.240440 0.176580 -0.386127
v 0.133976 0.084176 0.195459
v 0.220385 0.039317 0.024316
v 0.250801 0.175325 -0.489221
v 0.259183 0.068071 -0.494539
v 0.175750 0.191531 0.022065
v 0.122005 0.138153 0.156356
v 0.167427 0.704186 0.079057
v 0.118807 0.640195 0.284794
v 0.181715 0.152711 -0.008990
v 0.222281 0.041709 -0.020944
v 0.298969 0.207094 -0.206720
v 0.263295 0.082820 -0.206752
v 0.284091 0.199276 -0.300689
v 0.271743 0.089587 -0.329941
v -0.047220 0.070428 0.187142
v 0.068105 0.079179 0.192436
v 0.013278 0.913841 0.323673
v -0.130872 0.902904 0.317055
v 0.123765 0.059499 -0.535107
v -0.032776 0.047622 -0.542293
v -0.128309 0.927354 0.220816
v 0.015841 0.938291 0.227433
v -0.049786 0.018818 0.011914
v 0.094363 0.029755 0.018531
v 0.068819 0.181284 0.053231
v -0.051974 0.172119 0.047686
v -0.039753 0.136899 -0.537867
v 0.116788 0.148777 -0.530681
v 0.060889 0.133516 0.153551
v -0.046113 0.125397 0.148639
v 0.037393 0.717654 0.122596
v -0.106757 0.706717 0.115979
v 0.034846 0.652552 0.285698
v -0.109304 0.641615 0.279081
v -0.047890 0.021210 -0.033346
v 0.096260 0.032147 -0.026729
v 0.074500 0.134467 0.020966
v -0.047578 0.125204 0.015362
v -0.055055 0.058666 -0.221366
v 0.114800 0.071553 -0.213569
v 0.144782 0.192909 -0.165629
v -0.051082 0.065094 -0.344760
v 0.121161 0.078162 -0.336854
v 0.064839 0.182366 -0.336709
v -0.053457 0.178250 -0.392665
v -0.163592 0.759167 0.119241
v 0.063083 0.785758 0.140289
v 0.080785 0.736410 0.294520
v -0.167955 0.717537 0.283102
v 0.028147 0.729173 0.304986
v -0.116003 0.718236 0.298369
v -0.111297 0.763135 0.121641
v 0.032853 0.774072 0.128259
v -0.109486 0.733936 0.130443
v -0.130361 0.728135 0.146238
v -0.112603 0.704197 0.247502
v -0.131861 0.705015 0.237562
v -0.130846 0.738509 0.148452
v 0.053362 0.752485 0.156908
v 0.054649 0.742173 0.154730
v 0.051850 0.729611 0.247252
v 0.051287 0.718911 0.245970
v -0.134142 0.715499 0.238714
v 0.034664 0.744873 0.137061
v 0.031547 0.715134 0.254119
v 0.030651 0.725380 0.256698
v -0.113498 0.714442 0.250081
v -0.110381 0.744182 0.133022
v 0.033768 0.755119 0.139640
v -0.167498 0.800881 0.135387
v 0.073162 0.818271 0.147768
v 0.076994 0.779221 0.306347
v -0.171747 0.760348 0.294929
v 0.023110 0.786784 0.319488
v -0.121040 0.775847 0.312871
v -0.116728 0.816982 0.150956
v 0.027422 0.827920 0.157573
v -0.233958 0.001831 0.064239
v -0.218382 0.000000 0.125734
v 0.252793 0.035750 0.147363
v 0.273453 0.040330 0.087531
v -0.205241 0.131743 0.128548
v -0.210478 0.132608 0.067085
v 0.228394 0.177108 0.087697
v 0.218556 0.163980 0.147447
v -0.298865 0.549796 0.174696
v -0.296804 0.566083 0.102879
v 0.246843 0.607332 0.127834
v 0.244782 0.591044 0.199652
v -0.096333 0.012273 0.070557
v -0.090585 0.009696 0.131600
v 0.135827 0.029888 0.081214
v 0.124996 0.026053 0.141496
v -0.178477 0.861223 0.274813
v -0.177640 0.869203 0.243402
v 0.070263 0.880096 0.286232
v 0.071100 0.888076 0.254820
v 0.088405 0.707875 0.175673
v 0.086908 0.692088 0.234376
v -0.160335 0.689002 0.164255
v -0.161832 0.673216 0.222958
v -0.233126 0.643676 0.206157
v -0.231211 0.658566 0.139841
v -0.165146 0.007052 0.067398
v -0.154483 0.004848 0.128667
v 0.164982 0.688627 0.158028
v 0.163068 0.673737 0.224344
v 0.204640 0.035109 0.084373
v 0.188895 0.030901 0.144430
v -0.130018 0.911054 0.284976
v -0.129164 0.919204 0.252896
v 0.014132 0.921991 0.291593
v 0.014986 0.930141 0.259513
v -0.047524 0.015977 0.072798
v -0.045261 0.013135 0.133681
v 0.087018 0.026185 0.078973
v 0.079673 0.022614 0.139416
v -0.165047 0.745290 0.173861
v -0.166501 0.731414 0.228481
v 0.078588 0.749644 0.241143
v 0.075497 0.764359 0.189005
v 0.069669 0.731433 0.179682
v 0.052408 0.726665 0.215556
v -0.130861 0.720429 0.176679
v -0.131361 0.712722 0.207121
v -0.131945 0.730839 0.178539
v -0.133044 0.723169 0.208627
v 0.052354 0.737236 0.217137
v 0.052858 0.744860 0.187022
v 0.078410 0.792732 0.253166
v 0.079826 0.806243 0.199986
v -0.168914 0.787370 0.188568
v -0.170330 0.773859 0.241748
v -0.126093 0.106243 0.153101
v -0.257460 0.090155 -0.480573
v 0.332917 0.134949 -0.453472
v 0.240301 0.158841 0.051055
v -0.217157 0.124133 0.030044
v 0.169566 0.106778 0.191870
v 0.096175 0.122491 0.162095
v -0.079967 0.109126 0.154010
v -0.093055 0.087952 -0.542687
v 0.177067 0.108447 -0.530287
v -0.215295 0.120267 -0.010385
v 0.242689 0.155015 0.010638
v 0.345357 0.153252 -0.203462
v -0.295236 0.104649 -0.232867
v 0.355027 0.160113 -0.326595
v -0.294571 0.110825 -0.356414
v -0.175258 0.089054 -0.511630
v -0.101239 0.107512 0.153033
v 0.117447 0.124105 0.163072
v 0.254992 0.121698 -0.491880
v -0.036264 0.092261 -0.540080
v 0.120276 0.104138 -0.532894
v 0.059143 0.119681 0.160395
v -0.042935 0.111936 0.155709
v 0.227171 0.146233 0.096295
v 0.212017 0.141231 0.151445
v -0.195882 0.110292 0.132728
v -0.206485 0.113336 0.076384
v -0.212015 0.492004 0.223914
v 0.163505 0.520496 0.241152
v 0.253242 0.571116 0.048298
v -0.290405 0.529868 0.023342
v 0.089622 0.608508 0.269913
v -0.155156 0.589936 0.258677
v -0.127317 0.582050 0.043226
v 0.096776 0.657496 0.076583
v -0.234505 0.564379 -0.004643
v -0.183121 0.571818 0.248806
v 0.120778 0.594876 0.262756
v 0.173983 0.641623 0.039633
v -0.050417 0.635562 0.061111
v 0.044250 0.651704 0.082240
v 0.038160 0.604604 0.267551
v -0.103694 0.593841 0.261039
v 0.249484 0.557872 0.120345
v 0.245727 0.544628 0.192393
v -0.292146 0.503818 0.167702
v -0.291275 0.516843 0.095522
v 0.349729 0.085444 -0.412841
v -0.279963 0.164860 -0.438894
v -0.270258 0.038404 -0.441301
v 0.340025 0.211901 -0.410434
v 0.174851 0.191306 -0.470252
v -0.108818 0.169783 -0.483273
v -0.100663 0.052975 -0.467868
v 0.183007 0.074498 -0.454846
v -0.185460 0.045689 -0.454584
v -0.194840 0.176976 -0.467264
v 0.256989 0.211258 -0.446523
v 0.266368 0.079971 -0.433844
v -0.041024 0.057500 -0.465130
v 0.123368 0.069973 -0.457584
v 0.115666 0.187353 -0.483802
v -0.048726 0.174880 -0.491348
v 0.344877 0.148673 -0.411638
v -0.275111 0.101632 -0.440097
v -0.188269 0.342374 0.169547
v 0.265606 0.423622 0.022732
v -0.278041 0.382374 -0.002223
v 0.105465 0.361771 0.192056
v -0.126510 0.344170 0.181408
v -0.131290 0.383027 0.037254
v 0.117450 0.401900 0.048671
v -0.237108 0.411988 0.002294
v -0.154492 0.342544 0.178573
v 0.133513 0.364396 0.191793
v 0.206277 0.471650 0.051982
v -0.079162 0.384477 0.047472
v 0.064987 0.395414 0.054089
v 0.056695 0.358071 0.189818
v -0.077740 0.347871 0.183647
v 0.257599 0.407986 0.088919
v 0.249968 0.390255 0.150389
v -0.269252 0.350860 0.126556
v -0.273695 0.367662 0.064571
v 0.167611 0.369376 0.185883
v -0.192249 0.239718 -0.016642
v -0.265794 0.234353 -0.024366
v -0.255691 0.202402 0.050954
v 0.252215 0.239597 0.145686
v 0.150489 0.139637 0.156335
v -0.132938 0.171335 0.166481
v -0.165002 0.168902 0.165009
v 0.203945 0.269778 0.001545
v 0.128789 0.262382 0.032267
v -0.068002 0.247040 0.031514
v -0.119951 0.243509 0.020849
v 0.139174 0.191981 0.178972
v 0.112705 0.189973 0.177757
v -0.060390 0.176840 0.169811
v -0.106469 0.173343 0.167696
v -0.055813 0.145352 -0.036212
v -0.091958 0.122176 0.006262
v 0.213213 0.177839 -0.048392
v 0.119473 0.138218 0.015968
v -0.182981 0.147779 -0.066578
v -0.215131 0.131357 -0.030322
v 0.277853 0.275602 0.000590
v 0.242673 0.166092 -0.009307
v 0.076148 0.257977 0.038132
v 0.066626 0.186477 0.175642
v 0.027096 0.142872 -0.033540
v -0.248351 0.201617 0.122708
v 0.265120 0.255053 0.075470
v -0.256218 0.122750 -0.048493
v 0.287428 0.163998 -0.023538
v -0.233557 0.103375 0.124125
v -0.245299 0.107205 0.056459
v -0.151201 0.082440 0.177146
v 0.269460 0.146261 0.080089
v 0.252314 0.140239 0.146428
v 0.285339 0.161245 0.026532
v 0.069767 0.099206 0.187289
v -0.051403 0.090012 0.181727
v 0.113726 0.102541 0.189307
v 0.142098 0.126591 0.165412
v 0.138977 0.104457 0.190466
v -0.095362 0.086677 0.179709
v -0.120613 0.084761 0.178550
v -0.258308 0.119997 0.001577
v -0.189188 0.122594 -0.145175
v -0.109876 0.141243 -0.029599
v -0.057927 0.144774 -0.018934
v 0.205550 0.201421 -0.405138
v 0.246466 0.188431 -0.163982
v -0.202360 0.177817 -0.336096
v -0.053303 0.180014 -0.410394
v 0.044214 0.143929 -0.015366
v 0.150181 0.180672 -0.146260
v 0.058643 0.183288 -0.356032
v -0.006591 0.142717 -0.237743
v -0.094917 0.101896 -0.149453
v 0.080868 0.169692 -0.180547
v 0.091061 0.171340 -0.299518
v -0.020669 0.157208 -0.308639
v -0.035730 0.125546 -0.063882
v -0.072378 0.149148 -0.115264
v 0.185422 0.210332 -0.328848
v 0.137491 0.166468 -0.205449
v -0.064791 0.157961 -0.254720
v -0.012189 0.122308 -0.086664
vn -0.9938 -0.1069 -0.0313
vn -0.0101 -0.9571 0.2897
vn -0.2569 0.8825 -0.3939
vn 0.0778 -0.9957 -0.0494
vn -0.2690 0.2364 -0.9337
vn -0.9742 -0.1055 0.1998
vn 0.9961 0.0707 0.0522
vn 0.0522 0.5475 0.8352
vn 0.4300 0.0782 -0.8994
vn -0.9208 -0.0528 -0.3866
vn -0.0216 0.4698 0.8825
vn 0.5409 -0.1853 0.8204
vn -0.1593 -0.2409 0.9574
vn 0.0155 -0.4367 0.8995
vn -0.0160 -0.3549 0.9348
vn -0.0750 0.4498 0.8900
vn -0.3531 0.0188 -0.9354
vn 0.0418 0.0527 -0.9977
vn 0.3550 0.1930 -0.9147
vn -0.1188 0.1050 -0.9874
vn 0.0002 0.7651 -0.6439
vn -0.1445 0.8151 -0.5610
vn 0.5974 0.7733 0.2124
vn 0.1142 -0.9741 0.1950
vn 0.0689 -0.9886 0.1339
vn -0.0788 0.5264 0.8466
vn -0.2923 -0.1389 0.9462
vn -0.7529 0.6408 0.1499
vn 0.2906 0.9221 0.2554
vn 0.0780 -0.5105 -0.8564
vn -0.4783 0.8643 0.1555
vn 0.1266 0.5708 -0.8113
vn -0.3778 0.4887 -0.7864
vn -0.9957 -0.0842 -0.0378
vn 0.9209 0.2707 0.2803
vn -0.0004 0.7282 -0.6854
vn 0.9937 0.0758 0.0823
vn 0.0832 -0.9767 -0.1977
vn 0.2270 0.6122 -0.7574
vn -0.2220 0.9747 0.0254
vn -0.9729 0.1270 0.1934
vn 0.0624 0.9971 0.0430
vn 0.9886 0.0783 -0.1285
vn -0.0965 0.9735 0.2073
vn -0.3509 0.9361 -0.0223
vn -0.9971 -0.0753 -0.0091
vn 0.1349 0.9896 0.0502
vn 0.4815 0.8502 0.2127
vn 0.2406 0.9186 -0.3134
vn 0.3700 0.5455 -0.7520
vn -0.8231 0.5584 0.1030
vn 0.1277 -0.9466 0.2960
vn 0.0920 0.1548 -0.9837
vn -0.0315 -0.4403 0.8973
vn -0.0567 0.7608 -0.6465
vn -0.2310 0.9719 -0.0443
vn -0.2149 0.9746 0.0637
vn -0.0331 0.6212 -0.7829
vn 0.7243 0.6719 0.1548
vn 0.1559 0.9139 -0.3749
vn -0.1299 0.4616 0.8775
vn 0.1059 -0.2208 0.9696
vn -0.3838 0.0770 -0.9202
vn 0.0165 -0.9815 0.1905
vn -0.1815 0.8342 -0.5207
vn -0.4580 0.8889 -0.0054
vn -0.1627 0.9764 0.1423
vn -0.2417 0.9401 0.2403
vn -0.1367 0.5508 -0.8233
vn -0.0052 0.5670 -0.8237
vn 0.2225 -0.0998 0.9698
vn -0.0431 -0.0362 0.9984
vn 0.7542 0.6308 -0.1825
vn 0.4733 -0.4366 -0.7651
vn -0.7239 0.6730 0.1517
vn -0.0845 0.9663 0.2432
vn 0.0706 0.8314 -0.5511
vn -0.0294 0.7715 -0.6356
vn 0.1873 0.1297 -0.9737
vn 0.0366 0.1182 -0.9923
vn 0.0040 0.4784 -0.8781
vn 0.0153 0.3622 -0.9320
vn -0.6267 0.3157 -0.7124
vn -0.0748 0.4461 0.8919
vn -0.9961 -0.0756 -0.0457
vn 0.9505 -0.2534 -0.1797
vn -0.0095 -0.9969 0.0778
vn 0.1554 0.4844 -0.8610
vn 0.6601 0.2371 -0.7128
vn 0.9924 0.1142 0.0455
vn -0.9945 -0.0963 -0.0407
vn -0.6215 0.1357 -0.7716
vn 0.0258 0.2461 -0.9689
vn -0.0258 -0.2461 0.9689
vn 0.4055 -0.1897 0.8942
vn -0.4520 -0.2547 0.8549
vn 0.0873 -0.7646 -0.6386
vn 0.0717 -0.9941 0.0818
vn 0.2028 -0.9791 0.0167
vn -0.1527 0.8235 -0.5463
vn -0.3591 -0.9012 -0.2428
vn 0.0049 0.4696 -0.8828
vn 0.5593 -0.8058 -0.1947
vn 0.2676 0.4453 0.8545
vn 0.7420 0.4124 -0.5285
vn 0.6090 0.4853 -0.6274
vn -0.0080 0.7080 -0.7062
vn -0.0018 0.5347 -0.8450
vn -0.0258 -0.2462 0.9689
vn 0.2211 -0.2415 0.9449
vn -0.2673 -0.2785 0.9225
vn 0.9961 0.0756 0.0457
vn 0.8086 -0.4344 -0.3969
vn 0.6512 -0.7382 -0.1760
vn -0.3669 -0.8992 -0.2382
vn -0.3634 -0.9006 -0.2385
vn -0.9764 -0.2050 -0.0679
vn -0.9870 -0.1511 -0.0545
vn 0.9998 0.0025 0.0174
vn 0.9997 -0.0031 0.0258
vn 0.0182 -0.6818 0.7313
vn 0.6285 0.6498 0.4275
vn 0.6296 0.7461 0.2167
vn 0.7605 0.1395 0.6342
vn 0.7259 0.6663 0.1706
vn -0.5557 0.1131 0.8236
vn -0.8301 0.5485 0.1006
vn -0.4251 0.6984 0.5759
vn -0.4408 0.8784 0.1845
vn 0.4384 0.7503 0.4948
vn 0.2583 0.9313 0.2570
vn -0.7488 0.6446 0.1542
vn -0.7501 0.6439 0.1507
vn 0.6766 0.4115 -0.6106
vn 0.9972 0.0442 0.0601
vn 0.9985 0.0118 0.0542
vn 0.9562 0.0427 0.2894
vn 0.9437 -0.2294 0.2385
vn -0.2097 0.5278 0.8231
vn -0.9164 -0.3701 0.1524
vn -0.5793 -0.2703 0.7690
vn -0.9896 -0.1390 -0.0370
vn -0.9612 -0.1374 0.2394
vn -0.5811 -0.0336 0.8132
vn 0.9450 0.0073 0.3269
vn 0.9422 0.0587 0.3298
vn -0.0635 0.2533 0.9653
vn 0.9891 0.0783 -0.1248
vn -0.9760 -0.0611 0.2090
vn 0.9509 0.0852 0.2974
vn -0.9263 -0.0539 -0.3729
vn 0.5030 0.0487 0.8629
vn -0.9664 -0.0861 0.2422
vn -0.9915 -0.1246 0.0373
vn -0.4659 -0.3666 0.8053
vn 0.9911 0.0263 0.1306
vn 0.9916 0.0272 0.1264
vn -0.0208 -0.3021 0.9531
vn -0.0095 0.6059 -0.7955
vn 0.1553 0.4787 -0.8641
vn -0.2864 0.4773 -0.8307
vn 0.2079 -0.3310 0.9205
vn -0.0788 -0.3010 0.9504
vn -0.4885 0.0873 -0.8682
vn -0.1488 0.5048 -0.8503
vn 0.2908 0.4792 -0.8281
vn 0.0363 -0.2922 0.9557
vn -0.2386 -0.3649 0.9000
vn 0.4405 -0.2978 0.8469
vn 0.3008 0.5308 -0.7923
vn -0.9915 -0.1245 0.0371
vn -0.9741 -0.0707 -0.2149
vn 0.9539 0.0888 -0.2866
vn -0.0367 0.9992 0.0154
vn -0.1314 0.9910 -0.0271
vn 0.0723 -0.9950 0.0688
vn 0.0713 -0.9935 0.0883
vn -0.3789 0.9213 -0.0871
vn -0.0224 0.9997 -0.0077
vn 0.0699 -0.9909 0.1153
vn 0.9495 0.0891 -0.3007
vn -0.0610 0.9938 -0.0930
vn -0.1077 0.9890 0.1013
vn -0.9733 -0.0705 -0.2186
vn -0.1020 0.9846 -0.1423
vn -0.9898 -0.1148 0.0841
vn 0.4038 -0.0201 0.9146
vn -0.0400 -0.0754 0.9963
vn -0.0393 -0.0845 0.9956
vn 0.9838 0.0329 0.1763
vn 0.9831 0.0090 0.1827
vn -0.4778 -0.0870 0.8742
vn -0.9851 -0.1405 0.0992
vn 0.0421 0.0494 -0.9979
vn 0.1916 0.0256 -0.9811
vn -0.0453 0.1048 -0.9935
vn -0.0140 0.1696 -0.9854
vn -0.1143 0.0993 -0.9885
vn 0.4139 -0.0484 -0.9090
vn 0.0536 -0.0622 -0.9966
vn 0.1136 -0.2514 -0.9612
vn -0.8173 -0.5617 -0.1286
vn 0.2784 -0.4733 0.8358
vn -0.0118 -0.3990 0.9169
vn -0.3668 -0.1101 -0.9238
vn 0.2084 -0.1635 -0.9643
vn -0.0133 -0.3837 0.9234
vn -0.1647 0.8344 0.5259
vn 0.0262 0.8347 0.5501
vn 0.0190 0.9043 0.4264
vn 0.4663 -0.0572 -0.8828
vn -0.1988 0.8193 0.5378
vn 0.0082 -0.2624 -0.9649
vn 0.0212 -0.3930 0.9193
vn -0.1932 0.8900 0.4131
vn -0.0936 -0.1841 -0.9784
vn 0.0600 -0.1983 -0.9783
vn -0.1467 0.9206 0.3620
vn -0.0102 0.8672 0.4979
vn -0.5142 -0.2486 0.8209
vn -0.8450 -0.5287 0.0806
vn 0.9062 -0.4215 0.0347
vn 0.9124 -0.4047 0.0613
vn -0.3692 0.8134 0.4495
vn 0.2624 0.6278 0.7328
vn -0.1998 0.9757 0.0903
vn -0.1366 0.7716 0.6212
vn 0.0377 0.9943 0.1000
vn 0.1119 0.9479 0.2984
vn -0.0875 0.7756 0.6251
vn -0.0870 0.7520 0.6534
vn -0.0331 0.9948 -0.0967
vn -0.0370 0.7597 0.6492
vn 0.1052 0.6996 0.7067
vn -0.1617 0.9857 0.0475
vn -0.2883 0.9158 0.2798
vn -0.5217 0.8507 0.0651
vn -0.0728 0.9970 0.0245
vn -0.3463 0.9318 0.1089
vn -0.0898 0.9743 0.2067
vn 0.1614 0.8876 0.4315
vn 0.0106 0.9976 -0.0680
vn -0.0839 0.9963 -0.0198
vn -0.0639 0.9956 0.0680
vn -0.0766 0.9922 0.0980
vn 0.1845 0.8533 0.4877
vn 0.3744 0.9146 0.1531
vn 0.0855 0.8690 0.4873
vn 0.0653 0.9977 0.0194
vn -0.2879 0.9576 -0.0114
vn 0.2655 0.9541 0.1387
vn -0.1531 0.8165 -0.5566
vn 0.0125 0.9711 0.2383
vn 0.5250 0.8510 0.0164
vn -0.1464 0.9155 0.3746
vn 0.0428 0.8269 -0.5608
vn -0.0420 -0.9795 0.1970
vn -0.1624 0.7319 -0.6618
vn -0.0243 0.1459 -0.9890
vn -0.9842 0.0747 0.1604
vn 0.9964 0.0741 0.0404
vn 0.0744 0.1518 0.9856
vn -0.9152 -0.0627 -0.3982
vn -0.1325 0.5759 0.8067
vn 0.5540 -0.1176 0.8242
vn 0.0929 -0.4232 0.9013
vn -0.0869 -0.3568 0.9301
vn 0.4500 0.1403 -0.8819
vn -0.1152 0.1068 -0.9876
vn 0.0376 0.8333 -0.5516
vn 0.1488 -0.9783 0.1441
vn -0.4083 0.3940 0.8235
vn -0.1730 -0.0458 0.9839
vn -0.7554 0.5448 0.3640
vn 0.3266 0.9254 0.1924
vn -0.4482 0.8661 0.2215
vn 0.1273 0.5713 -0.8108
vn -0.4192 0.5270 -0.7393
vn -0.9954 -0.0800 -0.0527
vn 0.9380 0.0744 0.3386
vn 0.1151 0.6250 -0.7721
vn -0.2209 0.6387 -0.7371
vn -0.3443 0.9388 -0.0130
vn -0.9654 -0.0700 0.2512
vn 0.1321 0.9893 0.0622
vn 0.9886 0.0731 -0.1318
vn 0.3865 0.7635 0.5173
vn -0.0570 0.9964 0.0633
vn 0.0239 0.9932 0.1141
vn -0.2187 0.9653 0.1426
vn 0.9061 0.3767 -0.1923
vn 0.4006 0.5892 -0.7017
vn -0.8283 0.5541 0.0835
vn 0.1709 -0.9633 0.2068
vn 0.0258 0.1159 -0.9929
vn 0.0545 -0.3461 0.9366
vn -0.1122 0.8219 -0.5585
vn -0.3405 0.9399 0.0256
vn -0.2370 0.9696 0.0615
vn -0.1611 0.7176 -0.6775
vn 0.7168 0.6753 0.1737
vn 0.1099 0.7526 -0.6493
vn -0.0298 0.5837 0.8114
vn -0.1098 -0.4385 0.8920
vn -0.1537 0.2412 -0.9582
vn -0.0123 -0.9905 0.1367
vn -0.2246 0.8302 -0.5102
vn -0.3499 0.9358 0.0427
vn -0.0512 0.9868 0.1539
vn 0.8539 0.5198 -0.0252
vn -0.1375 0.5512 -0.8230
vn 0.0876 -0.0260 0.9958
vn 0.6260 0.7489 0.2173
vn 0.5350 -0.4974 -0.6829
vn 0.1911 0.1285 -0.9731
vn 0.1127 0.4838 -0.8679
vn 0.0761 0.8409 -0.5358
vn 0.9651 -0.0316 -0.2598
vn -0.0538 -0.9985 0.0049
vn -0.1483 0.2651 -0.9527
vn 0.6616 0.2330 -0.7127
vn 0.6154 0.7876 -0.0314
vn -0.9983 -0.0369 -0.0459
vn -0.6205 0.1400 -0.7716
vn 0.4251 -0.1297 0.8958
vn -0.4805 -0.1984 0.8542
vn -0.4406 -0.4777 -0.7600
vn 0.1523 -0.9846 0.0853
vn 0.6343 0.4114 -0.6545
vn -0.3566 -0.9032 -0.2390
vn 0.5516 -0.8040 -0.2220
vn 0.0727 0.8592 -0.5064
vn 0.8172 0.5757 0.0283
vn -0.3451 0.4759 -0.8090
vn 0.2014 -0.2225 0.9539
vn -0.2516 -0.2569 0.9331
vn 0.5921 -0.7657 -0.2512
vn -0.3653 -0.8987 -0.2424
vn -0.9862 -0.1482 -0.0738
vn -0.9939 -0.0928 -0.0599
vn 0.9982 -0.0552 0.0227
vn 0.6720 0.6196 0.4057
vn 0.9992 0.0146 -0.0375
vn 0.9933 -0.0812 -0.0818
vn 0.6311 0.7458 0.2134
vn 0.7421 0.5177 0.4258
vn 0.4550 0.1898 0.8700
vn 0.7254 0.6665 0.1720
vn -0.8274 0.0190 0.5613
vn -0.8304 0.5483 0.0991
vn -0.5896 0.6723 0.4476
vn -0.4179 0.8800 0.2260
vn 0.2608 0.7504 0.6073
vn 0.2848 0.9335 0.2178
vn -0.7518 0.6413 0.1533
vn 0.9981 0.0473 0.0394
vn 0.9570 0.1975 0.2125
vn 0.9865 0.0066 0.1639
vn -0.1835 0.1103 0.9768
vn -0.9830 -0.1644 0.0815
vn -0.6027 -0.2054 0.7711
vn -0.9932 -0.1037 -0.0520
vn -0.9818 -0.0935 0.1651
vn -0.5523 -0.0681 0.8309
vn 0.9656 0.0543 0.2545
vn 0.9502 0.0747 0.3026
vn 0.9891 0.0732 -0.1279
vn -0.9744 -0.0711 0.2132
vn 0.9505 0.0749 0.3015
vn -0.9213 -0.0634 -0.3838
vn 0.4782 0.0101 0.8782
vn -0.9742 -0.0713 0.2143
vn -0.9897 -0.1382 -0.0369
vn -0.5778 -0.2916 0.7623
vn 0.9984 0.0126 0.0544
vn 0.9953 0.0721 0.0652
vn 0.0986 0.5268 -0.8442
vn -0.1646 0.5173 -0.8398
vn -0.2934 0.4875 -0.8224
vn -0.0321 -0.2957 0.9547
vn -0.1307 -0.3112 0.9413
vn -0.3279 0.4968 -0.8035
vn -0.1472 0.5041 -0.8510
vn 0.3050 0.4923 -0.8152
vn 0.0897 -0.2945 0.9514
vn -0.0109 -0.2941 0.9557
vn 0.5432 -0.2065 0.8138
vn 0.2476 0.1609 -0.9554
vn -0.9965 -0.0790 -0.0263
vn -0.9730 -0.0757 -0.2180
vn 0.9514 0.0787 -0.2978
vn -0.0724 0.9951 -0.0672
vn -0.0347 0.9899 -0.1374
vn 0.0480 -0.9965 0.0690
vn -0.0470 0.9948 0.0905
vn 0.0830 0.9965 -0.0016
vn 0.0996 -0.9907 0.0925
vn 0.9466 0.0786 -0.3127
vn 0.0965 -0.9928 0.0713
vn -0.0934 0.9933 -0.0683
vn -0.2232 0.9737 -0.0460
vn -0.9722 -0.0757 -0.2218
vn -0.1699 0.9813 -0.0907
vn 0.0427 -0.9950 0.0899
vn -0.9950 -0.0891 0.0451
vn 0.4005 -0.0226 0.9160
vn -0.2574 -0.0598 0.9645
vn 0.0162 -0.0736 0.9972
vn -0.0957 -0.0821 0.9920
vn 0.1745 -0.0270 0.9843
vn 0.9890 0.0618 0.1342
vn 0.9903 0.0370 0.1336
vn -0.4743 -0.0890 0.8759
vn -0.9929 -0.1115 0.0409
vn 0.1962 0.1227 -0.9729
vn 0.2070 0.0294 -0.9779
vn -0.4517 -0.1497 -0.8795
vn -0.4307 -0.0337 -0.9019
vn -0.1173 0.0984 -0.9882
vn 0.3191 0.0221 -0.9475
vn -0.3508 0.1313 -0.9272
vn 0.1193 -0.2531 -0.9601
vn -0.8181 -0.5601 -0.1305
vn 0.4755 -0.1916 0.8586
vn -0.0455 -0.3973 0.9166
vn -0.3710 -0.1132 -0.9217
vn 0.2091 -0.1637 -0.9641
vn -0.1648 0.8345 0.5259
vn 0.0256 0.8335 0.5520
vn 0.0182 0.9046 0.4258
vn 0.4619 -0.0547 -0.8852
vn -0.1994 0.8204 0.5358
vn 0.0159 -0.2590 -0.9658
vn -0.1940 0.8895 0.4136
vn -0.0930 -0.1838 -0.9786
vn -0.0109 0.8446 0.5353
vn -0.0862 0.9442 0.3178
vn -0.2723 -0.5074 0.8176
vn -0.8517 -0.5200 0.0653
vn 0.9050 -0.4237 0.0376
vn 0.9065 -0.4154 0.0752
vn -0.4289 0.5731 0.6983
vn 0.1916 0.8581 0.4764
vn -0.2003 0.9756 0.0900
vn -0.2803 0.6607 0.6963
vn 0.0370 0.9943 0.1003
vn 0.1132 0.9481 0.2971
vn -0.1371 0.7508 0.6462
vn 0.0091 0.9984 0.0553
vn -0.0870 0.7519 0.6534
vn -0.0386 0.7802 0.6243
vn -0.1072 0.9892 -0.1000
vn -0.2867 0.9158 0.2814
vn -0.0950 0.9910 -0.0947
vn -0.0455 0.9717 0.2320
vn -0.1678 0.9838 0.0632
vn 0.3058 0.9200 0.2450
vn 0.0348 0.9945 0.0992
vn 0.0287 0.9989 0.0370
vn 0.3975 0.8217 0.4084
vn -0.0613 0.9819 0.1793
vn -0.0673 0.9953 0.0691
vn -0.1886 0.9746 0.1209
vn -0.6818 0.6135 -0.3984
vn 0.2074 0.9657 0.1562
vn -0.3186 0.9254 0.2052
vn -0.1403 0.9642 0.2249
vn -0.3590 0.9266 0.1119
vn -0.2308 0.8764 0.4226
vn 0.0192 0.9998 0.0017
vn 0.5945 0.7925 -0.1358
vn -0.1760 0.9365 0.3032
vn -0.1317 0.9533 -0.2716
vt 0.547125 0.277579
vt 0.550150 0.279509
vt 0.547149 0.279630
vt 0.556826 0.269541
vt 0.559683 0.268502
vt 0.560282 0.270244
vt 0.542320 0.287698
vt 0.543143 0.290544
vt 0.542249 0.291171
vt 0.555695 0.288419
vt 0.557981 0.290908
vt 0.555153 0.290908
vt 0.552192 0.286945
vt 0.549158 0.293047
vt 0.549964 0.284566
vt 0.546163 0.295660
vt 0.547618 0.296173
vt 0.545679 0.296405
vt 0.549890 0.288407
vt 0.550134 0.286715
vt 0.551509 0.288019
vt 0.540657 0.292011
vt 0.543162 0.291809
vt 0.543528 0.292200
vt 0.544118 0.269554
vt 0.545678 0.266284
vt 0.546289 0.269559
vt 0.533682 0.275449
vt 0.531748 0.273802
vt 0.534321 0.273810
vt 0.556553 0.300576
vt 0.557287 0.301034
vt 0.556274 0.300993
vt 0.537957 0.275789
vt 0.541169 0.274405
vt 0.541294 0.275948
vt 0.555258 0.272641
vt 0.556854 0.274405
vt 0.556730 0.275948
vt 0.542665 0.270617
vt 0.543981 0.271920
vt 0.542766 0.272641
vt 0.551974 0.269829
vt 0.554043 0.271920
vt 0.551927 0.271920
vt 0.544545 0.292237
vt 0.545245 0.291769
vt 0.545420 0.292237
vt 0.551239 0.291769
vt 0.552660 0.292237
vt 0.551138 0.292237
vt 0.546289 0.287243
vt 0.545093 0.283932
vt 0.546900 0.283936
vt 0.545093 0.275164
vt 0.546900 0.272834
vt 0.546900 0.275168
vt 0.567053 0.261953
vt 0.565870 0.264299
vt 0.565377 0.261486
vt 0.570217 0.261961
vt 0.571060 0.264199
vt 0.570216 0.264176
vt 0.539955 0.290908
vt 0.542442 0.288419
vt 0.542783 0.290908
vt 0.550516 0.288419
vt 0.552325 0.290908
vt 0.550319 0.290908
vt 0.543048 0.272575
vt 0.542320 0.269128
vt 0.543126 0.281778
vt 0.543048 0.284234
vt 0.548019 0.291467
vt 0.546830 0.293858
vt 0.546663 0.291468
vt 0.538710 0.267095
vt 0.541712 0.268837
vt 0.538257 0.269541
vt 0.550920 0.268837
vt 0.553102 0.265688
vt 0.553371 0.268837
vt 0.552776 0.267682
vt 0.554124 0.269829
vt 0.555087 0.298177
vt 0.558273 0.300327
vt 0.554464 0.300327
vt 0.557438 0.279532
vt 0.556165 0.279651
vt 0.556325 0.278376
vt 0.554611 0.294596
vt 0.557793 0.292705
vt 0.557774 0.295195
vt 0.543954 0.271252
vt 0.538022 0.271909
vt 0.538029 0.271257
vt 0.558605 0.268978
vt 0.555740 0.267110
vt 0.558524 0.265688
vt 0.550516 0.286562
vt 0.552665 0.288419
vt 0.539412 0.288419
vt 0.542442 0.286562
vt 0.538457 0.297812
vt 0.536699 0.295687
vt 0.538471 0.295636
vt 0.547788 0.295874
vt 0.545314 0.297858
vt 0.545214 0.295681
vt 0.549006 0.294853
vt 0.549236 0.296562
vt 0.550029 0.284871
vt 0.552103 0.291224
vt 0.550936 0.292326
vt 0.534155 0.295885
vt 0.531578 0.297416
vt 0.531550 0.295950
vt 0.555695 0.286562
vt 0.558725 0.288419
vt 0.550009 0.279807
vt 0.552639 0.284700
vt 0.551023 0.278821
vt 0.552665 0.286562
vt 0.539412 0.286562
vt 0.541510 0.278821
vt 0.567481 0.264432
vt 0.567842 0.265447
vt 0.566894 0.265447
vt 0.570105 0.263870
vt 0.569602 0.262019
vt 0.571275 0.264441
vt 0.530922 0.290303
vt 0.533021 0.283925
vt 0.532091 0.291402
vt 0.561326 0.286041
vt 0.562861 0.291704
vt 0.559807 0.291965
vt 0.557126 0.278821
vt 0.558725 0.286562
vt 0.551937 0.276297
vt 0.549347 0.276389
vt 0.551072 0.273759
vt 0.553556 0.278821
vt 0.537939 0.278821
vt 0.541424 0.273759
vt 0.575872 0.262716
vt 0.574578 0.260861
vt 0.576242 0.259998
vt 0.569033 0.259838
vt 0.568785 0.261259
vt 0.530408 0.283759
vt 0.533035 0.278861
vt 0.564757 0.280304
vt 0.564715 0.285259
vt 0.557260 0.273759
vt 0.560696 0.278821
vt 0.576816 0.259572
vt 0.577026 0.261547
vt 0.576521 0.262756
vt 0.534369 0.278821
vt 0.537804 0.273759
vt 0.576430 0.263870
vt 0.575246 0.264441
vt 0.536382 0.286562
vt 0.536624 0.297865
vt 0.536382 0.288419
vt 0.549442 0.273802
vt 0.550130 0.277331
vt 0.535419 0.268502
vt 0.534801 0.270244
vt 0.537127 0.290908
vt 0.529847 0.286963
vt 0.532874 0.293060
vt 0.529846 0.293093
vt 0.545678 0.290550
vt 0.544118 0.287238
vt 0.555359 0.270617
vt 0.552834 0.291769
vt 0.553534 0.292237
vt 0.553640 0.273759
vt 0.538631 0.285259
vt 0.540940 0.281682
vt 0.540308 0.285305
vt 0.540724 0.291704
vt 0.543675 0.291965
vt 0.550389 0.295949
vt 0.547865 0.297722
vt 0.552020 0.269407
vt 0.549674 0.265688
vt 0.552966 0.265865
vt 0.543143 0.266279
vt 0.542249 0.265688
vt 0.546367 0.301034
vt 0.547219 0.300576
vt 0.547370 0.300993
vt 0.545093 0.272830
vt 0.571061 0.261950
vt 0.572255 0.264294
vt 0.556392 0.267095
vt 0.566383 0.265291
vt 0.566894 0.265548
vt 0.566537 0.266390
vt 0.573053 0.264318
vt 0.572242 0.261906
vt 0.573673 0.263594
vt 0.543993 0.273759
vt 0.544042 0.278821
vt 0.571135 0.262365
vt 0.572777 0.264589
vt 0.570270 0.261394
vt 0.570629 0.259396
vt 0.571336 0.261509
vt 0.544591 0.286562
vt 0.543474 0.297808
vt 0.543436 0.295632
vt 0.544591 0.288419
vt 0.558273 0.290102
vt 0.555087 0.292252
vt 0.554464 0.290102
vt 0.560176 0.292252
vt 0.559251 0.294053
vt 0.558593 0.295133
vt 0.545241 0.270780
vt 0.543947 0.271905
vt 0.542000 0.265688
vt 0.544163 0.268837
vt 0.550768 0.265688
vt 0.546830 0.283729
vt 0.548019 0.285597
vt 0.546663 0.285599
vt 0.543126 0.275021
vt 0.545093 0.281598
vt 0.544789 0.290908
vt 0.567894 0.261963
vt 0.567051 0.264202
vt 0.567893 0.264178
vt 0.546900 0.281602
vt 0.546841 0.291769
vt 0.546942 0.292237
vt 0.546049 0.269829
vt 0.546096 0.271920
vt 0.538019 0.268829
vt 0.535875 0.269439
vt 0.535880 0.271259
vt 0.538028 0.273568
vt 0.537174 0.272358
vt 0.538023 0.272344
vt 0.546049 0.267677
vt 0.551974 0.267677
vt 0.546060 0.291397
vt 0.547883 0.293477
vt 0.546060 0.293643
vt 0.543130 0.297825
vt 0.540954 0.299132
vt 0.540954 0.297777
vt 0.548112 0.289820
vt 0.546674 0.287665
vt 0.548644 0.287669
vt 0.543944 0.268824
vt 0.550621 0.375434
vt 0.549807 0.375854
vt 0.549806 0.375420
vt 0.557842 0.381419
vt 0.556570 0.381801
vt 0.556572 0.381369
vt 0.561918 0.380532
vt 0.562506 0.379341
vt 0.562345 0.380616
vt 0.543050 0.375440
vt 0.543882 0.375859
vt 0.543034 0.375874
vt 0.543881 0.375425
vt 0.551908 0.370759
vt 0.557834 0.371193
vt 0.551908 0.371193
vt 0.551107 0.371197
vt 0.557834 0.370759
vt 0.558635 0.371197
vt 0.541330 0.287695
vt 0.542506 0.288503
vt 0.541330 0.289844
vt 0.546674 0.281741
vt 0.548644 0.281745
vt 0.548112 0.279597
vt 0.546243 0.280882
vt 0.543952 0.273563
vt 0.544778 0.272352
vt 0.546106 0.273554
vt 0.543591 0.289836
vt 0.543752 0.288511
vt 0.543947 0.272339
vt 0.545910 0.279754
vt 0.544997 0.280899
vt 0.559750 0.300195
vt 0.559266 0.297911
vt 0.560058 0.298298
vt 0.544857 0.267435
vt 0.543918 0.263756
vt 0.542968 0.295852
vt 0.544647 0.294076
vt 0.542249 0.293681
vt 0.542249 0.295007
vt 0.535843 0.265672
vt 0.537993 0.263761
vt 0.552646 0.298177
vt 0.552646 0.292252
vt 0.552639 0.290102
vt 0.552639 0.300327
vt 0.542249 0.297660
vt 0.546060 0.295889
vt 0.546060 0.298135
vt 0.542249 0.296334
vt 0.547299 0.294183
vt 0.545374 0.297916
vt 0.545973 0.294129
vt 0.543056 0.299591
vt 0.541924 0.300314
vt 0.543757 0.279941
vt 0.543752 0.280915
vt 0.545851 0.289828
vt 0.546243 0.288526
vt 0.544997 0.288518
vt 0.561599 0.383054
vt 0.562185 0.381892
vt 0.562024 0.383167
vt 0.561759 0.381793
vt 0.560383 0.381520
vt 0.559139 0.381907
vt 0.559112 0.381470
vt 0.547501 0.299825
vt 0.547619 0.298006
vt 0.545259 0.299743
vt 0.547883 0.298091
vt 0.547883 0.295784
vt 0.535265 0.279781
vt 0.532441 0.274843
vt 0.535265 0.275040
vt 0.544987 0.293398
vt 0.550122 0.293398
vt 0.535265 0.281500
vt 0.532441 0.279978
vt 0.543124 0.293398
vt 0.543952 0.285602
vt 0.545308 0.291470
vt 0.543952 0.291472
vt 0.545308 0.285600
vt 0.544176 0.283733
vt 0.545503 0.283731
vt 0.557755 0.297684
vt 0.557621 0.300180
vt 0.559261 0.296625
vt 0.532441 0.272980
vt 0.535265 0.272333
vt 0.535265 0.273321
vt 0.554610 0.293398
vt 0.551984 0.293398
vt 0.540869 0.270077
vt 0.555025 0.269655
vt 0.555740 0.266088
vt 0.535265 0.283685
vt 0.532441 0.284468
vt 0.535265 0.282488
vt 0.537872 0.293398
vt 0.540498 0.293398
vt 0.557154 0.270077
vt 0.560185 0.273879
vt 0.544121 0.277827
vt 0.546151 0.273979
vt 0.556855 0.274576
vt 0.555816 0.272089
vt 0.558664 0.271759
vt 0.555778 0.269599
vt 0.556290 0.300178
vt 0.554605 0.297378
vt 0.557715 0.277060
vt 0.556646 0.275825
vt 0.557992 0.274587
vt 0.556486 0.277101
vt 0.543252 0.292237
vt 0.545503 0.293859
vt 0.532441 0.281841
vt 0.548994 0.271335
vt 0.551995 0.271457
vt 0.554996 0.271579
vt 0.552915 0.287058
vt 0.553443 0.288259
vt 0.555431 0.287240
vt 0.555740 0.288133
vt 0.554917 0.291809
vt 0.557424 0.292010
vt 0.554552 0.292200
vt 0.543666 0.295381
vt 0.543378 0.296268
vt 0.532441 0.270353
vt 0.535265 0.271136
vt 0.557237 0.293398
vt 0.560066 0.275789
vt 0.544148 0.279750
vt 0.532625 0.298489
vt 0.536871 0.296264
vt 0.536893 0.298774
vt 0.535995 0.284003
vt 0.532441 0.287094
vt 0.546156 0.297190
vt 0.550394 0.299403
vt 0.546125 0.299692
vt 0.546186 0.294688
vt 0.550470 0.296640
vt 0.535995 0.274920
vt 0.548707 0.275172
vt 0.548707 0.281606
vt 0.548707 0.283940
vt 0.548460 0.269564
vt 0.548707 0.272838
vt 0.535995 0.272075
vt 0.535995 0.281708
vt 0.548213 0.290555
vt 0.548460 0.287248
vt 0.535648 0.279027
vt 0.535635 0.284091
vt 0.547399 0.279978
vt 0.546757 0.276481
vt 0.536857 0.291898
vt 0.547418 0.285042
vt 0.546175 0.292831
vt 0.532086 0.293456
vt 0.536849 0.293755
vt 0.535995 0.279901
vt 0.535995 0.273113
vt 0.535995 0.282746
vt 0.536274 0.275536
vt 0.536893 0.273818
vt 0.548213 0.266290
vt 0.532441 0.267727
vt 0.535995 0.270818
vt 0.550944 0.294380
vt 0.532554 0.295721
vt 0.544965 0.286251
vt 0.547572 0.285895
vt 0.559683 0.282330
vt 0.556326 0.282499
vt 0.554175 0.278080
vt 0.551567 0.277719
vt 0.548780 0.277471
vt 0.551775 0.282519
vt 0.546249 0.282519
vt 0.544244 0.282519
vt 0.540024 0.277091
vt 0.536693 0.279121
vt 0.535882 0.273563
vt 0.549155 0.274940
vt 0.546121 0.276578
vt 0.543092 0.282515
vt 0.541698 0.282499
vt 0.553779 0.282519
vt 0.554931 0.282515
vt 0.529846 0.278650
vt 0.532197 0.279897
vt 0.529846 0.280823
vt 0.543967 0.276578
vt 0.532870 0.274953
vt 0.538340 0.282330
vt 0.552191 0.278632
vt 0.549169 0.277811
vt 0.550363 0.285651
vt 0.548695 0.274744
vt 0.546125 0.274757
vt 0.547878 0.274731
vt 0.554735 0.277887
vt 0.550143 0.279890
vt 0.544202 0.277606
vt 0.538732 0.277149
vt 0.538306 0.280304
vt 0.560790 0.281003
vt 0.560539 0.275813
vt 0.562365 0.279075
vt 0.534183 0.273759
vt 0.551265 0.274731
vt 0.557013 0.275166
vt 0.542141 0.275813
vt 0.531089 0.275362
vt 0.563977 0.277149
vt 0.560881 0.273759
vt 0.550435 0.291794
vt 0.547203 0.292714
vt 0.538724 0.288330
vt 0.542101 0.289470
vt 0.555922 0.289470
vt 0.554604 0.289470
vt 0.543419 0.289470
vt 0.544507 0.289470
vt 0.553516 0.289470
vt 0.551622 0.289470
vt 0.546401 0.289470
vt 0.548707 0.283608
vt 0.551885 0.284002
vt 0.554846 0.284215
vt 0.559299 0.288330
vt 0.544289 0.292385
vt 0.568674 0.258038
vt 0.567367 0.258834
vt 0.571064 0.257837
vt 0.572571 0.260969
vt 0.531617 0.285884
vt 0.570220 0.257837
vt 0.565605 0.259138
vt 0.552191 0.280805
vt 0.540327 0.291178
vt 0.546111 0.292803
vt 0.538033 0.292750
vt 0.544328 0.291769
vt 0.555995 0.295021
vt 0.554667 0.293753
vt 0.556787 0.293421
vt 0.544886 0.293818
vt 0.546659 0.293421
vt 0.547385 0.295021
vt 0.561067 0.293604
vt 0.535887 0.292812
vt 0.553751 0.291769
vt 0.558521 0.293818
vt 0.552191 0.293075
vt 0.542426 0.293604
vt 0.543957 0.292746
vt 0.549213 0.295304
vt 0.550489 0.293799
vt 0.554184 0.295304
vt 0.557747 0.291175
vt 0.562735 0.293017
vt 0.561039 0.294509
vt 0.540598 0.293017
vt 0.560624 0.298006
vt 0.561686 0.300028
vt 0.560158 0.300257
vt 0.558247 0.302260
vt 0.542966 0.298007
vt 0.541902 0.300028
vt 0.541245 0.297322
vt 0.542479 0.296071
vt 0.540654 0.295029
vt 0.549744 0.300993
vt 0.554184 0.302260
vt 0.549250 0.302260
vt 0.548236 0.300993
vt 0.547460 0.302260
vt 0.546432 0.302260
vt 0.545186 0.302260
vt 0.555974 0.302260
vt 0.555408 0.300993
vt 0.562791 0.295029
vt 0.561106 0.296071
vt 0.553900 0.300993
vt 0.557002 0.302260
vt 0.543549 0.300257
vt 0.542390 0.294509
vt 0.562205 0.297322
vt 0.574946 0.263245
vt 0.574385 0.264300
vt 0.574415 0.264571
vt 0.570455 0.259010
vt 0.570312 0.258240
vt 0.574439 0.258633
vt 0.572641 0.259135
vt 0.572537 0.259437
vt 0.574442 0.258350
vt 0.571236 0.262016
vt 0.573629 0.261163
vt 0.574668 0.263064
vt 0.574050 0.263944
vt 0.574992 0.262736
vt 0.572101 0.260048
vt 0.573880 0.260009
vt 0.549019 0.288072
vt 0.557703 0.300531
vt 0.537838 0.273879
vt 0.543900 0.269829
vt 0.548158 0.293856
vt 0.560176 0.298177
vt 0.557992 0.282109
vt 0.554605 0.291306
vt 0.550107 0.296227
vt 0.534102 0.297733
vt 0.552620 0.279636
vt 0.567813 0.264509
vt 0.530421 0.278695
vt 0.577434 0.258816
vt 0.550394 0.297400
vt 0.549015 0.269159
vt 0.546058 0.300531
vt 0.566894 0.264432
vt 0.544762 0.271918
vt 0.544334 0.265688
vt 0.548158 0.283728
vt 0.547883 0.291171
vt 0.545766 0.269453
vt 0.550638 0.375868
vt 0.557624 0.382037
vt 0.562078 0.379272
vt 0.551048 0.370764
vt 0.558693 0.370764
vt 0.541829 0.287682
vt 0.543194 0.300365
vt 0.560423 0.381959
vt 0.543378 0.274202
vt 0.555740 0.274587
vt 0.544606 0.292292
vt 0.536555 0.287396
vt 0.536555 0.267424
vt 0.554572 0.274731
vt 0.545462 0.275166
vt 0.572259 0.258320
s 0
usemtl Material
f 161/1/1 239/2/1 255/3/1
f 267/4/2 3/5/2 256/6/2
f 265/7/3 11/8/3 257/9/3
f 76/10/4 155/11/4 182/12/4
f 275/13/5 301/14/5 284/15/5
f 157/16/6 212/17/6 235/18/6
f 219/19/7 13/20/7 211/21/7
f 233/22/8 298/23/8 333/24/8
f 77/25/9 210/26/9 227/27/9
f 273/28/10 11/29/10 209/30/10
f 63/31/11 208/32/11 225/33/11
f 253/34/12 6/35/12 237/36/12
f 245/37/13 4/38/13 236/39/13
f 82/40/14 240/41/14 246/42/14
f 108/43/15 241/44/15 251/45/15
f 226/46/16 31/47/16 214/48/16
f 104/49/16 215/50/16 231/51/16
f 224/52/17 29/53/17 216/54/17
f 102/55/18 217/56/18 229/57/18
f 279/58/19 294/59/19 281/60/19
f 286/61/20 302/62/20 317/63/20
f 178/64/4 25/65/4 164/66/4
f 98/67/4 166/68/4 190/69/4
f 77/25/21 260/70/21 266/71/21
f 271/72/22 29/53/22 261/73/22
f 91/74/23 170/75/23 186/76/23
f 61/77/24 262/78/24 264/79/24
f 269/80/25 21/81/25 263/82/25
f 108/43/26 131/83/26 36/84/26
f 149/85/27 20/86/27 147/87/27
f 175/88/28 131/89/28 199/90/28
f 180/91/29 33/92/29 172/93/29
f 127/94/30 142/95/30 126/96/30
f 177/97/31 34/98/31 64/99/31
f 110/100/4 26/101/4 98/67/4
f 67/102/4 43/103/4 25/65/4
f 112/104/32 28/105/32 100/106/32
f 79/107/33 312/108/33 27/109/33
f 14/110/34 218/111/34 212/17/34
f 220/112/35 39/113/35 323/114/35
f 62/115/36 314/116/36 14/117/36
f 84/118/4 8/119/4 76/10/4
f 222/120/37 48/121/37 220/112/37
f 114/122/38 44/123/38 110/100/38
f 69/124/38 51/125/38 43/103/38
f 42/126/39 349/127/39 50/128/39
f 311/129/40 342/130/40 41/131/40
f 40/132/41 221/133/41 322/134/41
f 72/135/42 40/136/42 313/137/42
f 86/138/38 37/139/38 84/118/38
f 259/140/43 222/120/43 272/141/43
f 117/142/4 52/143/4 114/122/4
f 71/144/4 59/145/4 51/125/4
f 50/146/44 357/147/44 58/148/44
f 87/149/45 342/130/45 85/150/45
f 46/151/46 223/152/46 221/133/46
f 72/135/47 54/153/47 46/154/47
f 88/155/4 45/156/4 86/138/4
f 343/157/48 72/158/48 338/159/48
f 47/160/4 73/161/4 71/144/4
f 338/159/49 313/162/49 339/163/49
f 38/164/38 71/144/38 69/124/38
f 310/165/50 62/115/50 28/105/50
f 38/164/4 67/102/4 7/166/4
f 161/1/51 64/167/51 16/168/51
f 5/169/52 264/79/52 258/170/52
f 152/171/4 67/102/4 178/64/4
f 276/172/53 294/173/53 295/174/53
f 209/175/17 68/176/17 224/52/17
f 241/44/54 65/177/54 245/37/54
f 32/178/16 225/179/16 215/50/16
f 261/73/55 68/176/55 265/7/55
f 60/180/4 86/138/4 52/143/4
f 48/181/56 87/182/56 85/183/56
f 52/143/38 84/118/38 44/123/38
f 39/184/57 85/183/57 311/185/57
f 44/123/4 76/10/4 26/101/4
f 13/186/58 83/187/58 79/107/58
f 162/188/59 81/189/59 180/190/59
f 12/191/60 266/71/60 259/192/60
f 333/193/61 80/194/61 226/195/61
f 6/35/62 246/42/62 237/36/62
f 30/196/9 227/27/9 217/56/9
f 280/197/63 301/198/63 302/62/63
f 26/101/4 182/12/4 166/68/4
f 263/82/64 78/199/64 267/4/64
f 115/200/65 356/201/65 350/202/65
f 319/203/66 350/204/66 358/205/66
f 51/125/4 116/206/4 113/207/4
f 113/207/4 117/142/4 114/122/4
f 41/131/67 346/208/67 345/209/67
f 49/210/68 355/211/68 356/212/68
f 43/103/38 113/207/38 109/213/38
f 109/213/38 114/122/38 110/100/38
f 27/109/69 111/214/69 99/215/69
f 111/214/70 100/106/70 99/215/70
f 43/103/4 97/216/4 25/65/4
f 97/216/4 110/100/4 98/67/4
f 19/217/71 148/218/71 146/219/71
f 91/220/72 149/85/72 148/218/72
f 172/93/73 134/221/73 196/222/73
f 121/223/74 143/224/74 127/94/74
f 22/225/25 268/226/25 262/78/25
f 268/226/25 93/227/25 269/80/25
f 168/228/75 92/229/75 184/230/75
f 184/230/76 91/74/76 186/76/76
f 30/196/77 270/231/77 260/70/77
f 270/231/78 101/232/78 271/72/78
f 164/66/4 97/216/4 188/233/4
f 188/233/4 98/67/4 190/69/4
f 285/234/79 304/235/79 279/58/79
f 286/61/80 303/236/80 285/234/80
f 29/53/18 228/237/18 216/54/18
f 101/232/18 229/57/18 228/237/18
f 214/48/16 103/238/16 230/239/16
f 103/238/16 231/51/16 230/239/16
f 240/41/15 107/240/15 250/241/15
f 107/240/15 251/45/15 250/241/15
f 150/242/81 127/94/81 126/96/81
f 144/243/82 126/96/82 120/244/82
f 106/245/83 129/246/83 128/247/83
f 108/43/84 139/248/84 130/249/84
f 144/250/85 192/251/85 206/252/85
f 205/253/86 121/254/86 145/255/86
f 123/256/87 141/257/87 125/258/87
f 151/259/88 121/223/88 127/94/88
f 133/260/89 138/261/89 143/262/89
f 203/263/90 134/264/90 133/265/90
f 200/266/91 129/267/91 198/268/91
f 132/269/92 128/270/92 129/271/92
f 143/262/93 128/270/93 142/272/93
f 140/273/94 130/274/94 139/275/94
f 136/276/95 140/273/95 139/275/95
f 141/277/96 131/278/96 130/274/96
f 126/279/97 132/280/97 120/281/97
f 125/258/98 140/282/98 124/283/98
f 122/284/99 140/282/99 135/285/99
f 105/286/100 134/287/100 33/288/100
f 192/289/101 132/280/101 200/290/101
f 105/286/102 128/247/102 138/291/102
f 194/292/103 135/285/103 202/293/103
f 107/294/104 136/295/104 139/296/104
f 24/297/105 151/259/105 96/298/105
f 205/253/106 24/299/106 171/300/106
f 23/301/85 206/252/85 169/302/85
f 23/303/107 150/242/107 144/243/107
f 95/304/108 151/259/108 150/242/108
f 148/218/109 125/305/109 124/306/109
f 146/219/110 124/306/110 122/307/110
f 125/305/111 147/87/111 123/308/111
f 20/309/85 207/310/85 147/311/85
f 169/302/85 207/310/85 168/312/85
f 19/313/112 204/314/112 170/315/112
f 204/314/112 171/300/112 170/315/112
f 195/316/113 133/317/113 121/254/113
f 195/318/114 202/293/114 203/319/114
f 193/320/115 137/321/115 123/256/115
f 192/289/116 201/322/116 193/320/116
f 137/323/117 199/324/117 131/325/117
f 201/326/118 198/268/118 199/324/118
f 135/327/119 197/328/119 202/329/119
f 197/328/119 203/263/119 202/329/119
f 122/330/112 204/314/112 146/331/112
f 194/332/120 205/253/120 204/314/120
f 207/310/85 123/333/85 147/311/85
f 206/252/85 193/334/85 207/310/85
f 89/335/121 191/336/121 90/337/121
f 189/338/4 190/69/4 191/339/4
f 17/340/121 189/341/121 89/335/121
f 165/342/4 188/233/4 189/338/4
f 95/343/76 187/344/76 96/345/76
f 184/230/76 187/344/76 185/346/76
f 23/347/75 185/346/75 95/343/75
f 169/348/75 184/230/75 185/346/75
f 173/349/122 136/295/122 35/350/122
f 172/93/123 197/351/123 173/349/123
f 167/352/121 75/353/121 18/354/121
f 166/68/4 183/355/4 167/356/4
f 6/35/124 181/357/124 82/40/124
f 163/358/125 180/190/125 181/359/125
f 2/360/121 179/361/121 66/362/121
f 153/363/4 178/64/4 179/364/4
f 4/38/126 176/365/126 160/366/126
f 160/367/127 177/368/127 161/1/127
f 65/369/128 175/370/128 176/371/128
f 176/371/129 174/372/129 177/97/129
f 82/373/130 173/349/130 35/350/130
f 181/374/131 172/93/131 173/349/131
f 174/375/132 129/376/132 34/377/132
f 174/375/133 199/90/133 198/378/133
f 96/379/134 171/300/134 24/299/134
f 186/76/23 171/380/23 187/344/23
f 191/336/121 18/354/121 90/337/121
f 190/69/4 167/356/4 191/339/4
f 66/362/121 165/381/121 17/340/121
f 179/364/4 164/66/4 165/342/4
f 238/382/135 162/188/135 252/383/135
f 252/383/136 163/358/136 253/384/136
f 211/21/137 158/385/137 232/386/137
f 232/386/138 159/387/138 233/388/138
f 10/389/139 234/390/139 208/391/139
f 156/392/140 235/18/140 234/393/140
f 183/394/121 1/395/121 75/353/121
f 182/12/4 154/396/4 183/355/4
f 4/38/141 254/397/141 236/39/141
f 160/367/142 255/3/142 254/398/142
f 324/399/143 152/400/143 153/401/143
f 326/402/144 153/403/144 2/360/144
f 155/404/145 328/405/145 154/406/145
f 8/407/146 327/408/146 155/404/146
f 330/409/147 89/335/147 90/337/147
f 18/354/147 330/409/147 90/337/147
f 228/237/18 93/410/18 94/411/18
f 216/54/18 94/411/18 22/412/18
f 217/56/9 78/413/9 21/414/9
f 1/395/147 334/415/147 75/353/147
f 335/416/147 66/362/147 17/340/147
f 5/417/17 224/52/17 61/418/17
f 221/133/46 55/419/46 47/420/46
f 272/141/148 53/421/148 256/422/148
f 322/134/149 47/420/149 38/423/149
f 53/421/37 220/112/37 45/424/37
f 45/424/150 323/114/150 37/425/150
f 337/426/85 38/423/85 7/427/85
f 229/57/18 21/414/18 93/410/18
f 61/418/17 216/54/17 22/412/17
f 331/428/147 17/340/147 89/335/147
f 75/353/147 332/429/147 18/354/147
f 336/430/147 2/360/147 66/362/147
f 258/431/151 209/30/151 5/432/151
f 227/27/9 3/433/9 78/413/9
f 154/434/152 213/435/152 1/395/152
f 37/425/112 329/436/112 8/407/112
f 325/437/153 7/427/153 152/400/153
f 291/438/154 255/3/154 292/439/154
f 236/39/155 291/440/155 274/441/155
f 252/383/156 290/442/156 289/443/156
f 275/444/157 252/383/157 289/443/157
f 250/241/158 288/445/158 287/446/158
f 277/447/158 250/241/158 287/446/158
f 105/286/159 248/448/159 106/245/159
f 106/245/160 242/449/160 34/450/160
f 81/451/161 243/452/161 33/288/161
f 237/36/162 283/453/162 293/454/162
f 278/455/163 245/37/163 282/456/163
f 16/457/164 244/458/164 239/459/164
f 33/288/165 249/460/165 105/286/165
f 64/461/166 242/449/166 244/458/166
f 251/45/158 278/455/158 288/445/158
f 246/42/167 277/447/167 283/453/167
f 282/456/168 236/39/168 274/441/168
f 290/462/169 237/36/169 293/454/169
f 15/463/170 247/464/170 81/451/170
f 255/3/171 276/465/171 292/439/171
f 55/419/172 273/28/172 258/431/172
f 210/466/173 256/422/173 3/467/173
f 270/468/174 344/469/174 347/470/174
f 341/471/175 270/468/175 347/470/175
f 116/206/176 269/80/176 117/142/176
f 262/78/176 116/206/176 59/145/176
f 60/180/177 267/4/177 88/155/177
f 259/472/178 87/182/178 56/473/178
f 343/474/179 265/475/179 74/476/179
f 258/170/180 73/161/180 55/477/180
f 12/478/181 272/141/181 210/466/181
f 117/142/176 263/82/176 60/180/176
f 264/79/177 59/145/177 73/161/177
f 344/469/182 261/479/182 343/474/182
f 266/480/183 341/471/183 87/182/183
f 223/152/184 257/481/184 273/28/184
f 74/476/185 257/482/185 54/153/185
f 88/155/180 256/6/180 53/483/180
f 292/439/186 295/484/186 296/485/186
f 297/486/187 293/454/187 9/487/187
f 282/456/188 300/488/188 299/489/188
f 305/490/189 277/447/189 306/491/189
f 288/445/189 308/492/189 307/493/189
f 278/455/189 299/489/189 308/492/189
f 9/487/188 283/453/188 305/490/188
f 306/491/189 287/446/189 318/494/189
f 318/494/189 288/445/189 307/493/189
f 315/495/190 289/443/190 321/496/190
f 321/496/191 290/442/191 297/497/191
f 274/441/192 320/498/192 300/488/192
f 291/438/193 296/485/193 320/499/193
f 248/500/194 286/61/194 285/234/194
f 242/501/195 285/234/195 279/58/195
f 243/502/196 284/503/196 280/197/196
f 239/459/197 281/504/197 276/172/197
f 249/505/198 280/197/198 286/61/198
f 242/501/199 281/60/199 244/506/199
f 238/507/200 284/15/200 247/464/200
f 14/117/201 294/173/201 62/115/201
f 14/110/202 296/485/202 295/484/202
f 159/508/203 9/487/203 298/23/203
f 10/389/204 299/489/204 300/488/204
f 79/107/205 302/509/205 301/14/205
f 28/105/206 303/510/206 100/106/206
f 80/511/207 306/491/207 31/47/207
f 32/178/207 307/493/207 308/492/207
f 310/512/208 340/513/208 339/514/208
f 83/515/209 41/516/209 312/517/209
f 314/518/210 313/137/210 40/136/210
f 62/115/211 304/519/211 28/105/211
f 63/520/207 308/492/207 299/489/207
f 70/521/212 339/514/212 313/137/212
f 13/186/213 301/14/213 315/522/213
f 298/23/214 305/490/214 80/511/214
f 316/523/215 311/185/215 83/515/215
f 27/109/216 317/524/216 302/509/216
f 99/215/217 303/510/217 317/524/217
f 31/47/207 318/494/207 103/238/207
f 103/238/207 307/493/207 104/49/207
f 111/525/218 41/516/218 345/526/218
f 112/527/219 345/526/219 340/513/219
f 156/528/220 300/488/220 320/498/220
f 157/16/221 320/499/221 296/485/221
f 13/20/222 321/496/222 158/385/222
f 158/385/223 297/497/223 159/387/223
f 314/518/224 322/529/224 218/530/224
f 316/523/225 323/531/225 39/184/225
f 235/532/226 324/533/226 234/534/226
f 234/534/227 326/535/227 208/32/227
f 232/536/228 328/537/228 327/538/228
f 211/539/229 327/538/229 329/540/229
f 230/541/230 331/542/230 330/543/230
f 214/544/230 330/543/230 332/545/230
f 333/193/231 334/546/231 213/547/231
f 225/33/230 335/548/230 215/549/230
f 218/530/232 337/550/232 212/551/232
f 215/549/230 331/542/230 231/552/230
f 226/195/230 332/545/230 334/546/230
f 208/32/233 336/553/233 225/33/233
f 233/554/234 213/547/234 328/537/234
f 219/555/235 329/540/235 323/531/235
f 212/551/236 325/556/236 235/532/236
f 50/146/237 339/163/237 42/557/237
f 309/558/238 339/163/238 340/559/238
f 57/560/239 342/130/239 341/561/239
f 58/148/240 338/159/240 50/146/240
f 119/562/241 343/157/241 58/148/241
f 319/203/242 340/559/242 345/209/242
f 49/210/243 346/208/243 342/130/243
f 57/560/244 347/563/244 118/564/244
f 119/562/245 347/563/245 344/565/245
f 319/203/246 346/208/246 115/566/246
f 348/567/247 354/568/247 353/569/247
f 348/567/248 357/147/248 349/570/248
f 356/212/249 351/571/249 350/204/249
f 351/571/250 348/567/250 350/204/250
f 358/205/251 348/567/251 353/569/251
f 118/564/252 355/211/252 57/560/252
f 58/148/253 352/572/253 119/562/253
f 42/557/254 353/569/254 354/568/254
f 118/564/255 352/572/255 351/571/255
f 319/203/256 353/569/256 309/558/256
f 161/1/85 16/168/85 239/2/85
f 267/4/257 78/199/257 3/5/257
f 265/7/258 68/176/258 11/8/258
f 76/10/4 8/119/4 155/11/4
f 275/13/259 315/522/259 301/14/259
f 157/16/260 14/110/260 212/17/260
f 219/19/261 316/573/261 13/20/261
f 233/22/262 159/508/262 298/23/262
f 77/25/9 12/191/9 210/26/9
f 273/28/263 257/481/263 11/29/263
f 63/31/264 10/574/264 208/32/264
f 253/34/265 163/575/265 6/35/265
f 245/37/266 65/177/266 4/38/266
f 82/40/267 35/576/267 240/41/267
f 108/43/15 36/84/15 241/44/15
f 226/46/16 80/511/16 31/47/16
f 104/49/16 32/178/16 215/50/16
f 224/52/17 68/176/17 29/53/17
f 102/55/18 30/196/18 217/56/18
f 279/58/268 304/235/268 294/59/268
f 286/61/269 280/197/269 302/62/269
f 178/64/4 67/102/4 25/65/4
f 98/67/4 26/101/4 166/68/4
f 77/25/270 30/196/270 260/70/270
f 271/72/78 101/232/78 29/53/78
f 91/74/23 19/577/23 170/75/23
f 61/77/271 22/225/271 262/78/271
f 269/80/25 93/227/25 21/81/25
f 108/43/272 130/249/272 131/83/272
f 149/85/273 92/578/273 20/86/273
f 175/88/274 36/579/274 131/89/274
f 180/91/275 81/580/275 33/92/275
f 127/94/30 143/224/30 142/95/30
f 177/97/276 174/372/276 34/98/276
f 110/100/4 44/123/4 26/101/4
f 67/102/4 69/124/4 43/103/4
f 112/104/277 310/165/277 28/105/277
f 79/107/278 83/187/278 312/108/278
f 14/110/279 314/581/279 218/111/279
f 220/112/280 48/121/280 39/113/280
f 62/115/281 70/582/281 314/116/281
f 84/118/4 37/139/4 8/119/4
f 222/120/37 56/583/37 48/121/37
f 114/122/38 52/143/38 44/123/38
f 69/124/38 71/144/38 51/125/38
f 42/126/282 354/584/282 349/127/282
f 311/129/283 85/150/283 342/130/283
f 40/132/284 46/151/284 221/133/284
f 72/135/285 46/154/285 40/136/285
f 86/138/38 45/156/38 37/139/38
f 259/140/286 56/583/286 222/120/286
f 117/142/4 60/180/4 52/143/4
f 71/144/4 73/161/4 59/145/4
f 50/146/287 349/570/287 357/147/287
f 87/149/288 341/561/288 342/130/288
f 46/151/46 54/585/46 223/152/46
f 72/135/289 74/476/289 54/153/289
f 88/155/4 53/483/4 45/156/4
f 343/157/290 74/586/290 72/158/290
f 47/160/4 55/477/4 73/161/4
f 338/159/291 72/158/291 313/162/291
f 38/164/38 47/160/38 71/144/38
f 310/165/292 70/582/292 62/115/292
f 38/164/4 69/124/4 67/102/4
f 161/1/293 177/368/293 64/167/293
f 5/169/294 61/77/294 264/79/294
f 152/171/4 7/166/4 67/102/4
f 276/172/295 281/504/295 294/173/295
f 209/175/17 11/8/17 68/176/17
f 241/44/296 36/84/296 65/177/296
f 32/178/16 63/520/16 225/179/16
f 261/73/297 29/53/297 68/176/297
f 60/180/4 88/155/4 86/138/4
f 48/181/298 56/473/298 87/182/298
f 52/143/38 86/138/38 84/118/38
f 39/184/299 48/181/299 85/183/299
f 44/123/4 84/118/4 76/10/4
f 13/186/300 316/587/300 83/187/300
f 162/188/301 15/588/301 81/189/301
f 12/191/302 77/25/302 266/71/302
f 333/193/303 298/589/303 80/194/303
f 6/35/304 82/40/304 246/42/304
f 30/196/9 77/25/9 227/27/9
f 280/197/305 284/503/305 301/198/305
f 26/101/4 76/10/4 182/12/4
f 263/82/306 21/81/306 78/199/306
f 115/200/307 49/590/307 356/201/307
f 319/203/308 115/566/308 350/204/308
f 51/125/4 59/145/4 116/206/4
f 113/207/4 116/206/4 117/142/4
f 41/131/309 342/130/309 346/208/309
f 49/210/310 57/560/310 355/211/310
f 43/103/38 51/125/38 113/207/38
f 109/213/38 113/207/38 114/122/38
f 27/109/311 312/108/311 111/214/311
f 111/214/70 112/104/70 100/106/70
f 43/103/4 109/213/4 97/216/4
f 97/216/4 109/213/4 110/100/4
f 19/217/312 91/220/312 148/218/312
f 91/220/72 92/578/72 149/85/72
f 172/93/313 33/92/313 134/221/313
f 121/223/314 133/591/314 143/224/314
f 22/225/25 94/592/25 268/226/25
f 268/226/25 94/592/25 93/227/25
f 168/228/75 20/593/75 92/229/75
f 184/230/76 92/229/76 91/74/76
f 30/196/78 102/55/78 270/231/78
f 270/231/78 102/55/78 101/232/78
f 164/66/4 25/65/4 97/216/4
f 188/233/4 97/216/4 98/67/4
f 285/234/315 303/236/315 304/235/315
f 286/61/80 317/63/80 303/236/80
f 29/53/18 101/232/18 228/237/18
f 101/232/18 102/55/18 229/57/18
f 214/48/16 31/47/16 103/238/16
f 103/238/16 104/49/16 231/51/16
f 240/41/15 35/576/15 107/240/15
f 107/240/15 108/43/15 251/45/15
f 150/242/81 151/259/81 127/94/81
f 144/243/316 150/242/316 126/96/316
f 106/245/317 34/450/317 129/246/317
f 108/43/84 107/240/84 139/248/84
f 144/250/85 120/594/85 192/251/85
f 205/253/318 195/316/318 121/254/318
f 123/256/319 137/321/319 141/257/319
f 151/259/320 145/595/320 121/223/320
f 133/260/321 134/596/321 138/261/321
f 203/263/322 196/597/322 134/264/322
f 200/266/323 132/598/323 129/267/323
f 132/269/324 142/272/324 128/270/324
f 143/262/93 138/261/93 128/270/93
f 140/273/109 141/277/109 130/274/109
f 136/276/325 135/599/325 140/273/325
f 141/277/326 137/600/326 131/278/326
f 126/279/327 142/601/327 132/280/327
f 125/258/98 141/257/98 140/282/98
f 122/284/328 124/283/328 140/282/328
f 105/286/329 138/291/329 134/287/329
f 192/289/330 120/281/330 132/280/330
f 105/286/102 106/245/102 128/247/102
f 194/292/331 122/284/331 135/285/331
f 107/294/26 35/350/26 136/295/26
f 24/297/332 145/595/332 151/259/332
f 205/253/333 145/255/333 24/299/333
f 23/301/85 144/250/85 206/252/85
f 23/303/334 95/304/334 150/242/334
f 95/304/108 96/298/108 151/259/108
f 148/218/109 149/85/109 125/305/109
f 146/219/335 148/218/335 124/306/335
f 125/305/336 149/85/336 147/87/336
f 20/309/85 168/312/85 207/310/85
f 169/302/85 206/252/85 207/310/85
f 19/313/112 146/331/112 204/314/112
f 204/314/112 205/253/112 171/300/112
f 195/316/114 203/602/114 133/317/114
f 195/318/337 194/292/337 202/293/337
f 193/320/338 201/322/338 137/321/338
f 192/289/101 200/290/101 201/322/101
f 137/323/339 201/326/339 199/324/339
f 201/326/340 200/266/340 198/268/340
f 135/327/341 136/603/341 197/328/341
f 197/328/342 196/597/342 203/263/342
f 122/330/343 194/332/343 204/314/343
f 194/332/344 195/316/344 205/253/344
f 207/310/85 193/334/85 123/333/85
f 206/252/85 192/251/85 193/334/85
f 89/335/121 189/341/121 191/336/121
f 189/338/4 188/233/4 190/69/4
f 17/340/121 165/381/121 189/341/121
f 165/342/4 164/66/4 188/233/4
f 95/343/76 185/346/76 187/344/76
f 184/230/76 186/76/76 187/344/76
f 23/347/75 169/348/75 185/346/75
f 169/348/75 168/228/75 184/230/75
f 173/349/345 197/351/345 136/295/345
f 172/93/346 196/222/346 197/351/346
f 167/352/121 183/394/121 75/353/121
f 166/68/4 182/12/4 183/355/4
f 6/35/347 163/575/347 181/357/347
f 163/358/348 162/188/348 180/190/348
f 2/360/121 153/403/121 179/361/121
f 153/363/4 152/171/4 178/64/4
f 4/38/349 65/177/349 176/365/349
f 160/367/350 176/604/350 177/368/350
f 65/369/351 36/605/351 175/370/351
f 176/371/352 175/370/352 174/372/352
f 82/373/353 181/374/353 173/349/353
f 181/374/354 180/91/354 172/93/354
f 174/375/133 198/378/133 129/376/133
f 174/375/355 175/88/355 199/90/355
f 96/379/23 187/606/23 171/300/23
f 186/76/23 170/75/23 171/380/23
f 191/336/121 167/352/121 18/354/121
f 190/69/4 166/68/4 167/356/4
f 66/362/121 179/361/121 165/381/121
f 179/364/4 178/64/4 164/66/4
f 238/382/112 15/588/112 162/188/112
f 252/383/356 162/188/356 163/358/356
f 211/21/357 13/20/357 158/385/357
f 232/386/358 158/385/358 159/387/358
f 10/389/359 156/528/359 234/390/359
f 156/392/360 157/16/360 235/18/360
f 183/394/121 154/434/121 1/395/121
f 182/12/4 155/11/4 154/396/4
f 4/38/361 160/366/361 254/397/361
f 160/367/362 161/1/362 255/3/362
f 324/399/363 325/437/363 152/400/363
f 326/402/364 324/607/364 153/403/364
f 155/404/365 327/408/365 328/405/365
f 8/407/366 329/436/366 327/408/366
f 330/409/147 331/428/147 89/335/147
f 18/354/147 332/429/147 330/409/147
f 228/237/18 229/57/18 93/410/18
f 216/54/18 228/237/18 94/411/18
f 217/56/9 227/27/9 78/413/9
f 1/395/147 213/435/147 334/415/147
f 335/416/147 336/430/147 66/362/147
f 5/417/17 209/175/17 224/52/17
f 221/133/46 223/152/46 55/419/46
f 272/141/367 222/120/367 53/421/367
f 322/134/368 221/133/368 47/420/368
f 53/421/37 222/120/37 220/112/37
f 45/424/369 220/112/369 323/114/369
f 337/426/85 322/134/85 38/423/85
f 229/57/18 217/56/18 21/414/18
f 61/418/17 224/52/17 216/54/17
f 331/428/147 335/416/147 17/340/147
f 75/353/147 334/415/147 332/429/147
f 336/430/147 326/402/147 2/360/147
f 258/431/370 273/28/370 209/30/370
f 227/27/9 210/26/9 3/433/9
f 154/434/371 328/608/371 213/435/371
f 37/425/112 323/114/112 329/436/112
f 325/437/372 337/426/372 7/427/372
f 291/438/373 254/398/373 255/3/373
f 236/39/374 254/397/374 291/440/374
f 252/383/375 253/384/375 290/442/375
f 275/444/376 238/382/376 252/383/376
f 250/241/158 251/45/158 288/445/158
f 277/447/158 240/41/158 250/241/158
f 105/286/377 249/460/377 248/448/377
f 106/245/378 248/448/378 242/449/378
f 81/451/379 247/464/379 243/452/379
f 237/36/380 246/42/380 283/453/380
f 278/455/381 241/44/381 245/37/381
f 16/457/382 64/461/382 244/458/382
f 33/288/383 243/452/383 249/460/383
f 64/461/384 34/450/384 242/449/384
f 251/45/158 241/44/158 278/455/158
f 246/42/385 240/41/385 277/447/385
f 282/456/386 245/37/386 236/39/386
f 290/462/387 253/34/387 237/36/387
f 15/463/388 238/507/388 247/464/388
f 255/3/389 239/2/389 276/465/389
f 55/419/390 223/152/390 273/28/390
f 210/466/391 272/141/391 256/422/391
f 270/468/392 271/609/392 344/469/392
f 341/471/393 260/610/393 270/468/393
f 116/206/176 268/226/176 269/80/176
f 262/78/176 268/226/176 116/206/176
f 60/180/394 263/82/394 267/4/394
f 259/472/395 266/480/395 87/182/395
f 343/474/396 261/479/396 265/475/396
f 258/170/397 264/79/397 73/161/397
f 12/478/398 259/140/398 272/141/398
f 117/142/176 269/80/176 263/82/176
f 264/79/399 262/78/399 59/145/399
f 344/469/400 271/609/400 261/479/400
f 266/480/401 260/610/401 341/471/401
f 223/152/402 54/585/402 257/481/402
f 74/476/403 265/475/403 257/482/403
f 88/155/404 267/4/404 256/6/404
f 292/439/405 276/465/405 295/484/405
f 297/486/406 290/462/406 293/454/406
f 282/456/407 274/441/407 300/488/407
f 305/490/408 283/453/408 277/447/408
f 288/445/189 278/455/189 308/492/189
f 278/455/409 282/456/409 299/489/409
f 9/487/410 293/454/410 283/453/410
f 306/491/189 277/447/189 287/446/189
f 318/494/189 287/446/189 288/445/189
f 315/495/411 275/444/411 289/443/411
f 321/496/412 289/443/412 290/442/412
f 274/441/413 291/440/413 320/498/413
f 291/438/414 292/439/414 296/485/414
f 248/500/415 249/505/415 286/61/415
f 242/501/416 248/500/416 285/234/416
f 243/502/417 247/611/417 284/503/417
f 239/459/418 244/458/418 281/504/418
f 249/505/419 243/502/419 280/197/419
f 242/501/420 279/58/420 281/60/420
f 238/507/421 275/13/421 284/15/421
f 14/117/422 295/174/422 294/173/422
f 14/110/423 157/16/423 296/485/423
f 159/508/424 297/486/424 9/487/424
f 10/389/425 63/520/425 299/489/425
f 79/107/426 27/109/426 302/509/426
f 28/105/427 304/519/427 303/510/427
f 80/511/207 305/490/207 306/491/207
f 32/178/207 104/49/207 307/493/207
f 310/512/428 112/527/428 340/513/428
f 83/515/429 311/185/429 41/516/429
f 314/518/430 70/521/430 313/137/430
f 62/115/431 294/173/431 304/519/431
f 63/520/207 32/178/207 308/492/207
f 70/521/432 310/512/432 339/514/432
f 13/186/433 79/107/433 301/14/433
f 298/23/204 9/487/204 305/490/204
f 316/523/434 39/184/434 311/185/434
f 27/109/435 99/215/435 317/524/435
f 99/215/217 100/106/217 303/510/217
f 31/47/207 306/491/207 318/494/207
f 103/238/207 318/494/207 307/493/207
f 111/525/436 312/517/436 41/516/436
f 112/527/437 111/525/437 345/526/437
f 156/528/438 10/389/438 300/488/438
f 157/16/439 156/392/439 320/499/439
f 13/20/440 315/495/440 321/496/440
f 158/385/441 321/496/441 297/497/441
f 314/518/442 40/136/442 322/529/442
f 316/523/443 219/555/443 323/531/443
f 235/532/444 325/556/444 324/533/444
f 234/534/445 324/533/445 326/535/445
f 232/536/446 233/554/446 328/537/446
f 211/539/447 232/536/447 327/538/447
f 230/541/230 231/552/230 331/542/230
f 214/544/230 230/541/230 330/543/230
f 333/193/448 226/195/448 334/546/448
f 225/33/230 336/553/230 335/548/230
f 218/530/449 322/529/449 337/550/449
f 215/549/230 335/548/230 331/542/230
f 226/195/230 214/544/230 332/545/230
f 208/32/450 326/535/450 336/553/450
f 233/554/451 333/193/451 213/547/451
f 219/555/452 211/539/452 329/540/452
f 212/551/453 337/550/453 325/556/453
f 50/146/454 338/159/454 339/163/454
f 309/558/455 42/557/455 339/163/455
f 57/560/456 49/210/456 342/130/456
f 58/148/457 343/157/457 338/159/457
f 119/562/458 344/565/458 343/157/458
f 319/203/459 309/558/459 340/559/459
f 49/210/460 115/566/460 346/208/460
f 57/560/461 341/561/461 347/563/461
f 119/562/462 118/564/462 347/563/462
f 319/203/463 345/209/463 346/208/463
f 348/567/464 349/570/464 354/568/464
f 348/567/465 352/572/465 357/147/465
f 356/212/466 355/211/466 351/571/466
f 351/571/467 352/572/467 348/567/467
f 358/205/468 350/204/468 348/567/468
f 118/564/469 351/571/469 355/211/469
f 58/148/470 357/147/470 352/572/470
f 42/557/471 309/558/471 353/569/471
f 118/564/472 119/562/472 352/572/472
f 319/203/473 358/205/473 353/569/473
