# Blender 4.2.1 LTS
# www.blender.org
mtllib car_seat_1.mtl
g car_seat_1_Mesh
v 0.168096 0.157582 0.235443
v -0.136733 0.155908 0.267280
v 0.246057 -0.041915 -0.406229
v -0.185094 0.622176 0.197487
v -0.343422 -0.045153 -0.344664
v -0.271318 0.059767 0.125420
v 0.271502 0.062748 0.068727
v 0.178367 0.256486 0.189438
v -0.133485 0.197556 0.213801
v -0.346904 0.077659 -0.371540
v 0.242575 0.080896 -0.433106
v 0.222812 0.209990 0.029628
v -0.234897 0.207822 0.077047
v -0.287443 0.627194 0.000862
v -0.083668 0.156199 0.261737
v 0.115031 0.157291 0.240985
v 0.126165 0.952267 0.149039
v -0.122197 0.950903 0.174978
v 0.079281 -0.057599 -0.456291
v -0.190429 -0.059080 -0.428123
v -0.132287 0.948901 0.078264
v 0.116075 0.950265 0.052325
v -0.124089 0.060575 0.110043
v 0.124273 0.061939 0.084104
v 0.100651 0.217242 0.073612
v -0.106189 0.216106 0.095215
v -0.192911 0.028472 -0.447283
v 0.076799 0.029953 -0.475451
v 0.101575 0.199846 0.190357
v -0.082782 0.198834 0.209611
v 0.111199 0.755059 -0.004624
v -0.137162 0.753695 0.021315
v 0.130296 0.735802 0.177213
v -0.118065 0.734438 0.203152
v 0.266953 0.052976 0.024663
v -0.275866 0.049995 0.081356
v 0.259068 0.186535 -0.043812
v -0.283751 0.183554 0.012881
v 0.116277 0.173772 0.013428
v -0.121349 0.169268 -0.036616
v -0.128637 0.050803 0.065979
v 0.119725 0.052167 0.040040
v 0.295584 0.040371 -0.170346
v -0.348346 0.160010 -0.138360
v -0.344034 0.036858 -0.103544
v 0.291272 0.163523 -0.205162
v 0.155535 0.141961 -0.181147
v -0.187613 0.130687 -0.062399
v -0.170550 0.037811 -0.121662
v 0.122101 0.039418 -0.152227
v 0.287685 0.013765 -0.290895
v -0.365237 0.133355 -0.257970
v -0.360924 0.010203 -0.223154
v 0.283373 0.136917 -0.325711
v 0.124691 0.110576 -0.326862
v -0.229357 0.120593 -0.228157
v -0.185002 0.011169 -0.241527
v 0.111763 0.012799 -0.272521
v -0.266926 -0.052117 -0.386393
v -0.171310 0.209822 0.073164
v -0.105047 0.198712 0.211937
v -0.214036 0.718010 -0.004058
v -0.147914 0.715024 0.206668
v -0.107665 0.156068 0.264244
v -0.197703 0.060171 0.117731
v -0.269908 0.053065 -0.409412
v -0.202252 0.050399 0.073668
v -0.174691 0.163829 0.053666
v -0.257292 0.037334 -0.112603
v -0.312223 0.144921 -0.146707
v -0.272963 0.010686 -0.232340
v -0.311064 0.122863 -0.293679
v 0.139028 0.157422 0.238479
v 0.197887 0.062344 0.076416
v 0.159688 0.055425 -0.454279
v 0.162669 -0.049757 -0.431260
v 0.159875 0.211641 0.038575
v 0.123840 0.199969 0.188032
v 0.153516 0.694708 -0.033541
v 0.171297 0.701297 0.155809
v 0.159654 0.165666 0.018747
v 0.193339 0.052572 0.032352
v 0.249375 0.156542 -0.199587
v 0.208843 0.039894 -0.161286
v 0.236573 0.093549 -0.297599
v 0.199724 0.013282 -0.281708
v -0.041893 0.156429 0.257374
v 0.073257 0.157061 0.245348
v 0.073288 0.998437 0.150602
v -0.070643 0.997647 0.165635
v 0.022577 -0.057910 -0.450369
v -0.133725 -0.058769 -0.434045
v -0.052300 0.973222 0.051043
v 0.056431 0.977265 0.048155
v -0.071873 0.060862 0.104590
v 0.072057 0.061653 0.089557
v 0.058217 0.218504 0.084717
v -0.062392 0.217842 0.097313
v -0.136207 0.028783 -0.453205
v 0.020095 0.029642 -0.469529
v 0.062816 0.199634 0.194405
v -0.044023 0.199047 0.205563
v 0.059843 0.754943 0.009066
v -0.084087 0.754152 0.024098
v 0.078081 0.735515 0.182666
v -0.065850 0.734725 0.197699
v -0.076421 0.051090 0.060526
v 0.067509 0.051881 0.045494
v 0.057202 0.164544 0.065944
v -0.064691 0.163875 0.078675
v -0.109023 0.038149 -0.128088
v 0.060574 0.039080 -0.145801
v 0.088178 0.156263 -0.143862
v -0.122610 0.011512 -0.248043
v 0.049371 0.012456 -0.266005
v -0.038482 0.085355 -0.323395
v -0.131925 0.102316 -0.335771
v -0.137589 0.809959 0.020194
v 0.110773 0.811323 -0.005745
v 0.128318 0.814805 0.162429
v -0.120043 0.813441 0.188368
v 0.077480 0.814792 0.181087
v -0.066450 0.814002 0.196120
v -0.085373 0.810245 0.014740
v 0.058558 0.811036 -0.000292
v -0.083549 0.784348 0.030844
v -0.102156 0.784592 0.050147
v -0.071015 0.786836 0.150984
v -0.091453 0.786537 0.143734
v -0.101877 0.795187 0.049500
v 0.082051 0.796197 0.030290
v 0.082572 0.785606 0.030853
v 0.092610 0.798121 0.122878
v 0.091417 0.787541 0.124635
v -0.093099 0.797101 0.142273
v 0.060382 0.785139 0.015811
v 0.072916 0.787627 0.135951
v 0.072835 0.798227 0.135740
v -0.071095 0.797437 0.150772
v -0.083629 0.794949 0.030632
v 0.060301 0.795740 0.015600
v -0.137358 0.854626 0.024752
v 0.111004 0.855990 -0.001187
v 0.128087 0.859381 0.162555
v -0.120275 0.858017 0.188494
v 0.077029 0.874400 0.179900
v -0.066901 0.873609 0.194932
v -0.084238 0.870168 0.028755
v 0.059692 0.870959 0.013723
v -0.247131 0.072964 0.182590
v -0.222944 0.086161 0.239760
v 0.247514 0.088745 0.190625
v 0.259508 0.075746 0.129676
v -0.203972 0.212515 0.204953
v -0.217973 0.197575 0.146758
v 0.220772 0.210873 0.098392
v 0.219103 0.214772 0.160208
v -0.272192 0.634036 0.147250
v -0.279817 0.630615 0.074056
v 0.122487 0.584631 -0.000869
v 0.121315 0.631720 0.109759
v -0.109715 0.073718 0.168238
v -0.095342 0.086862 0.226433
v 0.122092 0.074992 0.144028
v 0.119911 0.088044 0.203952
v -0.125560 0.950236 0.142740
v -0.128923 0.949568 0.110502
v 0.122802 0.951600 0.116801
v 0.119438 0.950932 0.084563
v 0.117513 0.755463 0.055852
v 0.123827 0.755866 0.116329
v -0.130848 0.754099 0.081791
v -0.124534 0.754502 0.142268
v -0.198691 0.727350 0.143359
v -0.205728 0.724046 0.075811
v -0.178423 0.073341 0.175414
v -0.159143 0.086511 0.233096
v 0.170812 0.721347 0.026373
v 0.169198 0.731381 0.093995
v 0.190800 0.075369 0.136852
v 0.183712 0.088394 0.197288
v -0.074078 0.996965 0.132710
v -0.077512 0.996283 0.099786
v 0.069853 0.997755 0.117678
v 0.066418 0.997073 0.084754
v -0.060980 0.073986 0.163148
v -0.050087 0.087110 0.221706
v 0.073357 0.074724 0.149118
v 0.074656 0.087795 0.208678
v -0.131740 0.811120 0.076252
v -0.125892 0.812280 0.132310
v 0.122470 0.813644 0.106371
v 0.116621 0.812484 0.050313
v 0.085521 0.786251 0.062114
v 0.088469 0.786896 0.093374
v -0.098588 0.785240 0.081342
v -0.095021 0.785889 0.112538
v -0.098951 0.795825 0.080424
v -0.096025 0.796463 0.111349
v 0.089090 0.797480 0.092015
v 0.085571 0.796838 0.061153
v 0.122392 0.858251 0.107974
v 0.116698 0.857120 0.053394
v -0.131663 0.855756 0.079333
v -0.125969 0.856887 0.133913
v -0.123263 0.188169 0.225219
v -0.345163 0.016253 -0.358102
v 0.244316 0.019490 -0.419667
v 0.226490 0.182713 0.066889
v -0.230274 0.180202 0.114581
v 0.174652 0.175375 0.224375
v 0.098467 0.188478 0.201055
v -0.077407 0.187512 0.219424
v -0.191670 -0.015304 -0.437703
v 0.078040 -0.013823 -0.465871
v -0.234425 0.165689 0.076832
v 0.222862 0.168200 0.029072
v 0.293428 0.101947 -0.187754
v -0.346190 0.098434 -0.120952
v 0.285529 0.075341 -0.308303
v -0.363081 0.071779 -0.240562
v -0.268416 0.000474 -0.397902
v -0.098647 0.187395 0.221642
v 0.119707 0.188594 0.198837
v 0.161178 0.002834 -0.442770
v -0.134966 -0.014993 -0.443625
v 0.021336 -0.014134 -0.459949
v 0.061491 0.188274 0.204917
v -0.040431 0.187715 0.215562
v 0.219496 0.183552 0.115142
v 0.212252 0.194474 0.171039
v -0.195025 0.192249 0.213580
v -0.213500 0.181178 0.160359
v -0.181678 0.584529 0.198841
v 0.203906 0.511598 0.173470
v 0.271647 0.521028 -0.088202
v -0.286489 0.574339 0.007219
v 0.050431 0.683763 0.172603
v -0.116309 0.683314 0.198129
v -0.120177 0.616771 -0.008785
v 0.063984 0.594429 -0.029469
v -0.233797 0.595701 -0.035981
v -0.146147 0.665520 0.197203
v 0.110620 0.597115 0.176132
v 0.105189 0.569392 -0.042267
v -0.034240 0.632384 -0.032601
v 0.000975 0.575258 -0.017603
v -0.000953 0.683481 0.177970
v -0.064925 0.683596 0.192762
v 0.286201 0.514635 -0.002305
v 0.253693 0.524436 0.101016
v -0.268502 0.587456 0.152223
v -0.277496 0.580897 0.079721
v 0.264700 -0.018740 -0.369595
v -0.358242 0.100842 -0.335788
v -0.354344 -0.022139 -0.304941
v 0.260803 0.104242 -0.400441
v 0.091542 0.061165 -0.441735
v -0.195227 0.080272 -0.401269
v -0.189887 -0.028620 -0.355858
v 0.093351 -0.027064 -0.385439
v -0.272116 -0.025380 -0.330400
v -0.277660 0.098246 -0.376991
v 0.194713 0.089387 -0.421843
v 0.179026 -0.022902 -0.377517
v -0.130339 -0.028293 -0.362077
v 0.033803 -0.027391 -0.379220
v 0.027376 0.079166 -0.435158
v -0.136766 0.078264 -0.418015
v 0.262752 0.042751 -0.385018
v -0.356293 0.039351 -0.320365
v -0.172370 0.424465 0.184635
v 0.258628 0.427802 -0.035337
v -0.284191 0.424821 0.021356
v 0.091744 0.398448 0.163399
v -0.109527 0.424403 0.187589
v -0.133387 0.424172 0.040132
v 0.084623 0.398309 0.014193
v -0.241818 0.451225 0.012398
v -0.137669 0.424318 0.188893
v 0.119547 0.398670 0.158859
v 0.202204 0.460066 -0.012932
v -0.080317 0.424111 0.042841
v 0.033261 0.397674 0.027808
v 0.043047 0.398180 0.168484
v -0.060831 0.424670 0.182503
v 0.259592 0.430839 0.033067
v 0.260158 0.430590 0.097495
v -0.258272 0.427742 0.151640
v -0.270889 0.427924 0.088514
v 0.152616 0.399189 0.147523
v -0.207488 0.277048 0.035452
v -0.281538 0.275707 0.038916
v -0.262045 0.264023 0.118159
v 0.255326 0.284329 0.133680
v 0.152060 0.199124 0.183978
v -0.125346 0.254818 0.221158
v -0.157361 0.254642 0.224501
v 0.188103 0.279221 -0.005864
v 0.117916 0.286180 0.035030
v -0.077399 0.286887 0.063562
v -0.130446 0.284816 0.060969
v 0.146351 0.256310 0.192781
v 0.119923 0.256165 0.195542
v -0.052909 0.255216 0.213592
v -0.098917 0.254963 0.218397
v -0.079415 0.170316 0.025053
v -0.110008 0.162097 0.076473
v 0.186177 0.176940 -0.029683
v 0.101102 0.163257 0.054425
v -0.209414 0.174767 0.011633
v -0.236667 0.171087 0.054779
v 0.261281 0.278688 -0.017777
v 0.220440 0.173597 0.007038
v 0.066531 0.287678 0.048530
v 0.073914 0.255913 0.200347
v 0.002834 0.162040 0.017709
v -0.244479 0.281584 0.185880
v 0.258617 0.279668 0.060858
v -0.280272 0.161294 0.045022
v 0.262547 0.164275 -0.011670
v -0.233805 0.186329 0.212055
v -0.255006 0.173124 0.147967
v -0.145627 0.173616 0.257826
v 0.258970 0.175946 0.094287
v 0.251327 0.188994 0.161387
v 0.267583 0.174982 0.037105
v 0.075006 0.174828 0.234783
v -0.045981 0.174164 0.247419
v 0.118897 0.175069 0.230199
v 0.144521 0.189640 0.197252
v 0.144110 0.175208 0.227565
v -0.089872 0.173923 0.252003
v -0.115085 0.173784 0.254636
v -0.275237 0.172001 0.093797
v -0.255222 0.121530 -0.070413
v -0.132084 0.172408 0.039367
v -0.079038 0.174479 0.041960
v 0.132246 0.085249 -0.386266
v 0.205398 0.139741 -0.154536
v -0.265975 0.106950 -0.267414
v -0.132815 0.080903 -0.389172
v 0.022422 0.166481 0.032575
v 0.117118 0.166369 -0.097244
v -0.047353 0.081644 -0.341288
v -0.062083 0.091662 -0.185134
v -0.136237 0.101822 -0.066166
v 0.032589 0.121140 -0.152297
v -0.014552 0.088835 -0.279913
v -0.092159 0.084588 -0.262513
v -0.064386 0.142389 0.001484
v -0.107026 0.154462 -0.049273
v 0.119649 0.136522 -0.302491
v 0.088194 0.130665 -0.166752
v -0.186470 0.112163 -0.221207
v -0.044533 0.131402 -0.022366
v 0.153562 0.157502 0.236961
v 0.234694 0.062546 0.072572
v 0.201131 0.068160 -0.443692
v 0.230146 0.052774 0.028508
v 0.252213 0.040133 -0.165816
v 0.243705 0.013524 -0.286301
v 0.204363 -0.045836 -0.418745
v 0.224692 0.278954 -0.011820
v 0.162359 0.256398 0.191110
v 0.222623 0.181738 -0.036747
v 0.270323 0.160032 -0.202375
v 0.259973 0.115233 -0.311655
v 0.187646 0.528445 0.013400
v 0.215613 0.088569 0.193957
v 0.225154 0.075558 0.133264
v 0.159381 0.175292 0.225971
v 0.202747 0.011162 -0.431219
v 0.178896 0.525283 0.123812
v 0.157200 0.506248 0.181858
v 0.185870 0.531414 -0.044618
v 0.227758 0.096815 -0.411142
v 0.221863 -0.020821 -0.373556
v 0.136081 0.398930 0.153191
v 0.230416 0.443934 -0.024134
v 0.191343 0.210815 0.034101
v 0.137950 0.199546 0.186005
v 0.190047 0.169631 0.012892
v 0.132114 0.189117 0.198044
vn -0.9915 -0.0320 0.1259
vn -0.0088 -0.8430 0.5378
vn -0.2734 0.7652 -0.5829
vn 0.0277 -0.9765 0.2137
vn -0.3954 -0.0547 -0.9169
vn -0.9388 0.0287 0.3434
vn 0.9953 0.0025 -0.0964
vn 0.1952 0.7422 0.6411
vn 0.2988 -0.1959 -0.9340
vn -0.9683 -0.0793 -0.2370
vn 0.1257 0.6858 0.7168
vn -0.0297 0.0332 0.9990
vn 0.1191 0.1228 0.9853
vn 0.1039 -0.0937 0.9902
vn 0.0732 0.6728 0.7362
vn -0.4832 -0.2002 -0.8523
vn -0.1003 -0.2154 -0.9714
vn 0.2273 -0.0836 -0.9702
vn -0.2452 -0.2506 -0.9365
vn -0.0655 0.7237 -0.6870
vn -0.1893 0.6474 -0.7383
vn 0.6540 0.7518 -0.0838
vn 0.0998 -0.8943 0.4363
vn 0.0455 -0.9207 0.3877
vn 0.0664 0.7353 0.6745
vn -0.1585 0.1390 0.9775
vn -0.6957 0.7154 0.0647
vn 0.5146 0.8554 -0.0594
vn -0.0679 -0.7225 -0.6880
vn -0.4139 0.9100 -0.0257
vn 0.0324 0.3250 -0.9451
vn -0.4662 0.2928 -0.8348
vn -0.9934 -0.0117 0.1137
vn 0.9624 0.2608 0.0765
vn -0.0683 0.5196 -0.8517
vn 0.9975 0.0155 -0.0688
vn 0.0124 -0.9977 0.0663
vn 0.1411 0.3710 -0.9178
vn -0.2332 0.9215 -0.3105
vn -0.9286 0.2504 0.2739
vn 0.1094 0.9615 -0.2523
vn 0.9622 -0.0372 -0.2699
vn 0.2091 0.9715 -0.1118
vn -0.6309 0.6875 -0.3595
vn -0.9903 0.0046 0.1388
vn 0.3237 0.9128 -0.2491
vn 0.4796 0.8728 -0.0908
vn 0.2452 0.7450 -0.6203
vn 0.2804 0.2969 -0.9128
vn -0.7753 0.6295 0.0514
vn 0.1289 -0.8423 0.5234
vn -0.0443 -0.1176 -0.9921
vn 0.0796 -0.1845 0.9796
vn -0.1171 0.5657 -0.8163
vn -0.1994 0.9132 -0.3555
vn -0.1621 0.9708 -0.1768
vn -0.1193 0.3937 -0.9115
vn 0.1458 0.9882 0.0461
vn 0.0594 0.7247 -0.6865
vn 0.0176 0.6853 0.7281
vn 0.9423 -0.3060 -0.1360
vn -0.5023 -0.2999 -0.8110
vn 0.0022 -0.8948 0.4465
vn -0.2943 0.6370 -0.7125
vn -0.3462 0.8966 -0.2763
vn -0.0909 0.9936 -0.0671
vn -0.1645 0.9864 0.0044
vn -0.2305 0.3236 -0.9177
vn -0.0999 0.3286 -0.9392
vn 0.3556 0.1418 0.9238
vn 0.0998 0.2316 0.9677
vn 0.6831 0.7260 -0.0794
vn 0.4486 -0.6188 -0.6449
vn 0.0456 -0.9207 0.3877
vn -0.6653 0.7446 0.0540
vn -0.0076 0.9998 -0.0199
vn 0.1245 0.7004 -0.7028
vn -0.0880 0.5767 -0.8122
vn 0.0503 -0.1467 -0.9879
vn -0.1641 -0.1507 -0.9749
vn 0.1021 -0.2422 0.9648
vn 0.2242 -0.0896 0.9704
vn -0.1024 0.2284 -0.9682
vn -0.1039 0.1015 -0.9894
vn -0.7090 0.1658 -0.6855
vn 0.0735 0.6697 0.7390
vn -0.9946 -0.0055 0.1039
vn 0.9946 0.0055 -0.1039
vn -0.0403 -0.9372 0.3465
vn -0.2103 0.2264 -0.9511
vn 0.5598 -0.0122 -0.8285
vn 0.9925 0.0428 -0.1141
vn -0.9932 -0.0242 0.1141
vn -0.7199 -0.0234 -0.6937
vn -0.1037 -0.0206 -0.9944
vn 0.1037 0.0206 0.9944
vn 0.5217 0.0209 0.8528
vn -0.3345 0.0162 0.9423
vn -0.0381 -0.9102 -0.4124
vn 0.0406 -0.9399 0.3392
vn 0.1615 -0.9530 0.2562
vn -0.1949 0.6600 -0.7255
vn -0.4282 -0.9018 0.0591
vn -0.1026 0.2186 -0.9704
vn 0.4469 -0.8940 -0.0324
vn 0.4065 0.6319 0.6599
vn 0.2041 0.3073 -0.9295
vn -0.0797 0.4953 -0.8651
vn -0.1021 0.2404 -0.9653
vn 0.3445 -0.0009 0.9388
vn -0.1431 -0.0035 0.9897
vn 0.4389 -0.8981 -0.0272
vn 0.4409 -0.8970 -0.0316
vn -0.4352 -0.8981 0.0640
vn -0.4318 -0.8997 0.0637
vn -0.9838 -0.1373 0.1154
vn -0.9901 -0.0811 0.1149
vn 0.9911 -0.0726 -0.1115
vn 0.9935 -0.0150 -0.1130
vn 0.0945 -0.4643 0.8806
vn -0.0452 0.8837 -0.4659
vn -0.4091 0.7247 -0.5545
vn 0.7105 0.6873 0.1510
vn 0.6852 0.7243 -0.0764
vn 0.9033 -0.4207 0.0840
vn 0.0205 0.9993 0.0302
vn -0.4259 0.3699 0.8257
vn -0.7829 0.6199 0.0526
vn -0.3077 0.8569 0.4136
vn -0.3720 0.9282 -0.0066
vn 0.6835 0.7117 0.1619
vn 0.4538 0.8895 -0.0533
vn -0.6908 0.7199 0.0673
vn -0.6926 0.7184 0.0643
vn 0.3825 0.7649 -0.5183
vn -0.0569 0.9548 0.2918
vn 0.9889 0.0412 0.1426
vn 0.9576 -0.2327 0.1696
vn -0.0663 0.7409 0.6684
vn -0.8997 -0.2427 0.3628
vn -0.4733 -0.0113 0.8808
vn -0.9896 -0.0647 0.1286
vn -0.9216 0.0074 0.3882
vn -0.4587 0.2281 0.8588
vn 0.9817 0.0179 0.1894
vn 0.9815 0.0683 0.1786
vn 0.0871 0.5028 0.8600
vn 0.9632 -0.0363 -0.2663
vn -0.9374 0.0740 0.3403
vn 0.9866 0.0846 0.1394
vn -0.9718 -0.0763 -0.2230
vn 0.6237 0.2341 0.7458
vn -0.9242 0.0579 0.3776
vn -0.9801 -0.0311 0.1958
vn -0.3601 -0.1032 0.9272
vn 0.9976 0.0690 -0.0085
vn 0.9531 -0.3027 -0.0000
vn 0.1305 -0.0128 0.9914
vn 0.1040 -0.0170 0.9944
vn -0.0979 0.3869 -0.9169
vn 0.0492 0.2203 -0.9742
vn -0.3016 0.2317 -0.9249
vn 0.3134 -0.3022 0.9003
vn 0.0464 -0.0328 0.9984
vn -0.6044 -0.1059 -0.7896
vn -0.2448 0.2204 -0.9442
vn 0.1884 0.2194 -0.9573
vn 0.1040 -0.0377 0.9939
vn 0.1612 -0.0784 0.9838
vn -0.1217 -0.0948 0.9880
vn 0.4800 -0.3993 0.7811
vn 0.8571 -0.4511 -0.2487
vn -0.9802 -0.0311 0.1956
vn -0.9970 -0.0470 -0.0616
vn 0.9056 -0.0660 -0.4191
vn 0.0459 0.9942 -0.0972
vn -0.0333 0.9980 -0.0528
vn 0.0393 -0.9442 0.3269
vn 0.0412 -0.9376 0.3452
vn -0.6542 0.7529 0.0724
vn 0.3891 0.9141 -0.1141
vn 0.0438 -0.9278 0.3704
vn 0.8992 -0.0691 -0.4321
vn 0.0254 0.9829 -0.1825
vn -0.0714 0.9974 -0.0094
vn -0.9967 -0.0480 -0.0653
vn -0.0797 0.9172 -0.3904
vn -0.9713 -0.0094 0.2376
vn 0.4746 0.3258 0.8177
vn 0.1009 0.1931 0.9760
vn 0.0993 0.2483 0.9636
vn 0.1011 0.1841 0.9777
vn 0.0985 0.2728 0.9570
vn 0.0996 0.2380 0.9661
vn 0.9994 -0.0002 0.0339
vn 0.9987 -0.0215 0.0465
vn -0.3500 0.1847 0.9184
vn -0.9656 -0.0306 0.2584
vn -0.1121 -0.3164 -0.9420
vn 0.0491 -0.2490 -0.9673
vn -0.4176 -0.2391 -0.8766
vn -0.1487 -0.0953 -0.9843
vn -0.2426 -0.2815 -0.9284
vn 0.2762 -0.3189 -0.9067
vn -0.4516 -0.4149 -0.7899
vn -0.0369 -0.5039 -0.8630
vn -0.8503 -0.5089 0.1341
vn 0.3757 -0.2570 0.8904
vn 0.1036 -0.1412 0.9845
vn -0.5004 -0.3200 -0.8045
vn 0.0602 -0.4278 -0.9019
vn 0.1037 -0.1246 0.9868
vn -0.0517 0.9538 0.2958
vn 0.1405 0.9453 0.2945
vn 0.1185 0.9802 0.1585
vn 0.3313 -0.3246 -0.8859
vn -0.0844 0.9451 0.3156
vn -0.1423 -0.5043 -0.8517
vn 0.1363 -0.1465 0.9798
vn -0.0936 0.9797 0.1775
vn -0.2414 -0.4272 -0.8713
vn -0.0901 -0.4531 -0.8869
vn -0.0539 0.9921 0.1137
vn 0.0984 0.9657 0.2405
vn -0.4005 0.0181 0.9161
vn -0.8461 -0.4199 0.3283
vn 0.8830 -0.4682 0.0322
vn 0.8938 -0.4455 0.0522
vn -0.2658 0.9298 0.2546
vn 0.3916 0.7757 0.4949
vn -0.1432 0.9777 -0.1537
vn -0.0128 0.9163 0.4002
vn 0.0937 0.9792 -0.1797
vn 0.1937 0.9810 0.0126
vn 0.0364 0.9173 0.3965
vn 0.0382 0.9098 0.4132
vn -0.0046 0.9335 -0.3584
vn 0.0891 0.9043 0.4175
vn 0.2355 0.8504 0.4705
vn -0.1113 0.9730 -0.2021
vn -0.2059 0.9770 0.0546
vn -0.4704 0.8765 -0.1027
vn -0.0263 0.9708 -0.2384
vn 0.3752 0.8690 -0.3228
vn -0.1310 0.9910 -0.0274
vn -0.0932 0.9642 -0.2482
vn 0.0429 0.9404 -0.3375
vn 0.1550 0.9654 -0.2099
vn -0.0630 0.9830 -0.1726
vn 0.1981 0.9086 -0.3676
vn -0.1546 0.9811 -0.1167
vn 0.5004 0.8370 -0.2213
vn 0.1585 0.9873 0.0145
vn -0.2085 0.9637 -0.1669
vn -0.2455 0.9575 -0.1517
vn 0.2171 0.9426 -0.2536
vn -0.3372 0.6089 -0.7180
vn 0.3058 0.9500 0.0639
vn 0.5574 0.7807 -0.2826
vn -0.0645 0.9969 -0.0443
vn -0.0035 0.6438 -0.7652
vn 0.0400 0.9020 0.4300
vn -0.0938 0.9798 0.1767
vn 0.1368 -0.1374 0.9810
vn -0.1421 -0.5071 -0.8501
vn -0.2318 -0.4387 -0.8683
vn 0.0976 0.2966 0.9500
vn 0.0424 -0.9332 0.3567
vn -0.7064 0.7017 -0.0935
vn 0.7928 0.4787 0.3773
vn 0.8747 0.4492 -0.1819
vn 0.0103 0.7533 0.6576
vn 0.0066 0.8118 -0.5839
vn 0.3689 0.8117 -0.4529
vn -0.1058 0.5294 -0.8418
vn -0.1616 0.9714 -0.1738
vn -0.3726 -0.0072 -0.9280
vn -0.0024 -0.8745 0.4850
vn -0.0703 -0.8609 0.5038
vn -0.2250 0.5423 -0.8095
vn -0.1604 -0.1183 -0.9799
vn -0.9468 0.1923 0.2581
vn 0.9941 0.0026 -0.1086
vn 0.2221 0.3996 0.8894
vn -0.9648 -0.0923 -0.2461
vn 0.0097 0.7767 0.6298
vn 0.2038 -0.1768 0.9629
vn 0.1791 -0.3561 0.9171
vn 0.3237 -0.1332 -0.9367
vn -0.2529 -0.2488 -0.9350
vn -0.0594 0.7454 -0.6640
vn 0.1265 -0.9144 0.3845
vn -0.2683 0.6282 0.7304
vn -0.0312 0.2289 0.9730
vn -0.6713 0.6798 0.2953
vn 0.6063 0.6468 -0.4626
vn -0.3745 0.9266 0.0329
vn 0.0331 0.3256 -0.9449
vn -0.4987 0.3453 -0.7951
vn -0.9951 -0.0116 0.0983
vn 0.9793 0.0861 0.1832
vn 0.0289 0.3883 -0.9211
vn -0.2976 0.4375 -0.8485
vn -0.6007 0.7362 -0.3118
vn -0.9212 0.0756 0.3817
vn 0.3154 0.9079 -0.2761
vn 0.9615 -0.0431 -0.2715
vn 0.4820 0.8707 -0.0981
vn 0.1561 0.9494 -0.2725
vn 0.0938 0.9847 -0.1470
vn 0.3979 0.9077 -0.1331
vn 0.8137 0.1608 -0.5586
vn 0.3198 0.3498 -0.8805
vn -0.7834 0.6206 0.0346
vn 0.1580 -0.8853 0.4374
vn -0.1128 -0.1522 -0.9819
vn 0.1743 -0.0904 0.9805
vn -0.1566 0.6520 -0.7419
vn -0.7387 0.6068 -0.2935
vn -0.1849 0.9662 -0.1799
vn -0.2252 0.4517 -0.8633
vn 0.1446 0.9883 0.0491
vn -0.0391 0.7109 -0.7022
vn 0.1196 0.7210 0.6825
vn 0.9076 -0.3321 -0.2570
vn -0.2140 -0.0215 -0.9766
vn -0.0344 -0.9153 0.4013
vn -0.2617 0.6433 -0.7195
vn -0.4810 0.8295 -0.2838
vn 0.2507 0.9660 -0.0627
vn 0.8626 0.4252 -0.2742
vn -0.2312 0.3241 -0.9173
vn 0.2291 0.2303 0.9458
vn 0.6820 0.7274 -0.0761
vn 0.0540 -0.1480 -0.9875
vn -0.1003 -0.2134 -0.9718
vn 0.0068 0.2276 -0.9737
vn 0.0336 0.6613 -0.7494
vn -0.0947 -0.9544 0.2830
vn 0.5613 -0.0163 -0.8275
vn 0.9955 -0.0132 -0.0936
vn -0.9951 0.0319 0.0935
vn -0.7188 -0.0193 -0.6950
vn 0.5439 0.0774 0.8356
vn -0.3603 0.0725 0.9300
vn -0.5654 -0.6244 -0.5390
vn 0.1212 -0.9363 0.3296
vn 0.5502 0.1727 -0.8170
vn -0.4252 -0.9029 0.0631
vn 0.4487 -0.8932 -0.0283
vn -0.1061 0.4952 -0.8623
vn -0.3892 0.3083 -0.8680
vn -0.0367 0.3069 -0.9510
vn 0.3272 0.0213 0.9447
vn -0.1252 0.0188 0.9920
vn 0.4454 -0.8949 -0.0279
vn -0.4342 -0.8988 0.0596
vn -0.9919 -0.0835 0.0956
vn -0.9952 -0.0259 0.0947
vn 0.9878 -0.1265 -0.0905
vn 0.9933 -0.0702 -0.0922
vn -0.0518 0.8921 -0.4488
vn 0.6862 0.7230 -0.0796
vn 0.9198 -0.3574 0.1619
vn 0.1303 0.9901 -0.0529
vn -0.7363 0.2320 0.6357
vn -0.7835 0.6193 0.0513
vn -0.4900 0.8111 0.3194
vn -0.3433 0.9388 0.0296
vn 0.5713 0.7454 0.3434
vn 0.4889 0.8645 -0.1166
vn -0.6940 0.7167 0.0677
vn 0.0802 0.9706 0.2271
vn 0.9851 0.1698 0.0270
vn 0.9992 -0.0290 0.0288
vn -0.0359 0.3779 0.9251
vn -0.9671 -0.0584 0.2477
vn -0.4934 0.0536 0.8681
vn -0.9939 -0.0344 0.1052
vn -0.9509 0.0317 0.3080
vn -0.4291 0.1973 0.8815
vn 0.9936 0.0424 0.1049
vn 0.9862 0.0759 0.1473
vn 0.0870 0.5028 0.8600
vn 0.9625 -0.0420 -0.2679
vn -0.9356 0.0653 0.3469
vn 0.9864 0.0759 0.1461
vn -0.9688 -0.0887 -0.2314
vn 0.5998 0.2029 0.7740
vn -0.9352 0.0654 0.3479
vn -0.9896 -0.0639 0.1285
vn -0.4737 -0.0335 0.8801
vn 0.9360 -0.1663 0.3103
vn 0.9553 -0.2351 -0.1794
vn 0.2251 -0.0350 0.9737
vn 0.3991 0.0053 -0.9169
vn -0.3047 0.2967 -0.9051
vn -0.2101 0.1483 -0.9664
vn -0.3041 -0.0962 0.9478
vn -0.0067 -0.0408 0.9991
vn -0.4190 0.2921 -0.8597
vn -0.2518 0.2198 -0.9425
vn 0.2049 0.2343 -0.9503
vn -0.1314 -0.0510 0.9900
vn 0.1146 -0.0302 0.9930
vn 0.8207 0.0351 0.5702
vn 0.8447 -0.5181 -0.1340
vn -0.9923 -0.0036 0.1234
vn -0.9966 -0.0528 -0.0633
vn 0.9010 -0.0785 -0.4267
vn -0.0090 0.9994 -0.0335
vn 0.1854 0.8444 -0.5026
vn 0.0153 -0.9436 0.3306
vn -0.2332 0.9713 0.0460
vn 0.1846 0.9780 -0.0974
vn 0.0699 -0.9360 0.3449
vn 0.8941 -0.0821 -0.4403
vn 0.0636 -0.9434 0.3256
vn 0.0078 0.9957 -0.0922
vn -0.2087 0.9437 -0.2566
vn -0.9963 -0.0538 -0.0671
vn -0.1395 0.9330 -0.3316
vn 0.0116 -0.9314 0.3637
vn -0.9810 0.0054 0.1941
vn 0.3604 0.2128 0.9082
vn -0.1180 0.2171 0.9690
vn 0.1542 0.2467 0.9567
vn 0.0449 0.1900 0.9808
vn 0.3079 0.2750 0.9108
vn 0.1778 0.1856 0.9664
vn 0.9998 0.0160 -0.0148
vn 0.9999 -0.0081 -0.0088
vn -0.3464 0.1829 0.9201
vn -0.9805 -0.0175 0.1959
vn -0.1889 -0.2754 -0.9426
vn -0.2056 -0.2928 -0.9338
vn -0.0582 -0.3065 -0.9501
vn -0.5572 -0.2357 -0.7962
vn -0.1130 -0.2272 -0.9673
vn 0.1798 -0.2537 -0.9504
vn -0.5168 -0.3666 -0.7737
vn -0.0312 -0.5057 -0.8621
vn -0.8513 -0.5078 0.1320
vn 0.5857 0.0041 0.8105
vn 0.0703 -0.1369 0.9881
vn -0.5044 -0.3220 -0.8011
vn 0.0608 -0.4280 -0.9017
vn -0.0518 0.9539 0.2957
vn 0.1402 0.9446 0.2967
vn 0.1176 0.9804 0.1579
vn 0.3268 -0.3225 -0.8884
vn -0.0852 0.9458 0.3135
vn -0.1345 -0.5046 -0.8528
vn -0.0946 0.9796 0.1774
vn -0.2408 -0.4270 -0.8716
vn 0.1021 0.9538 0.2824
vn 0.0005 0.9984 0.0574
vn -0.1728 -0.2508 0.9525
vn -0.8546 -0.4150 0.3122
vn 0.8823 -0.4694 0.0357
vn 0.8895 -0.4516 0.0691
vn -0.2991 0.7690 0.5650
vn 0.2944 0.9352 0.1967
vn -0.1438 0.9776 -0.1539
vn -0.1488 0.8409 0.5203
vn 0.0931 0.9794 -0.1793
vn 0.1949 0.9808 0.0112
vn -0.0106 0.9029 0.4297
vn 0.0592 0.9737 -0.2199
vn 0.0848 0.9176 0.3884
vn -0.0786 0.9332 -0.3506
vn -0.2041 0.9773 0.0560
vn -0.0871 0.9375 -0.3369
vn 0.0296 0.9989 -0.0371
vn 0.1717 0.9550 -0.2420
vn -0.2969 0.9533 -0.0544
vn -0.1546 0.9179 -0.3655
vn 0.0760 0.9678 -0.2400
vn 0.0664 0.9658 -0.2506
vn -0.1481 0.9028 -0.4037
vn 0.2085 0.9320 -0.2966
vn -0.1432 0.9841 -0.1053
vn -0.6937 0.5385 -0.4784
vn 0.2078 0.9635 -0.1688
vn -0.3403 0.9395 -0.0383
vn -0.0689 0.9956 -0.0642
vn -0.2242 0.9520 -0.2083
vn -0.1527 0.9883 0.0049
vn 0.1918 0.9814 0.0070
vn 0.6017 0.6789 -0.4207
vn 0.1572 0.9760 0.1509
vn -0.1290 0.8555 -0.5015
vn -0.0088 0.8927 0.4506
vn -0.0947 0.9797 0.1768
vn 0.1037 -0.1330 0.9857
vn -0.1343 -0.5078 -0.8510
vn -0.5378 -0.4420 -0.7179
vn 0.3055 0.2970 0.9047
vn 0.0131 -0.9364 0.3508
vn -0.1797 0.9761 -0.1225
vn 0.2022 -0.3069 0.9300
vn 0.7891 0.4320 0.4366
vn 0.6421 0.7631 0.0727
vn 0.1122 0.7773 0.6191
vn -0.0813 0.7802 -0.6203
vn 0.6505 0.7592 0.0189
vn -0.1844 0.9672 -0.1747
vn -0.7097 0.6963 -0.1072
vn -0.1608 -0.0679 -0.9846
vn -0.0546 -0.8865 0.4596
vt 0.551857 0.271020
vt 0.554882 0.272950
vt 0.551881 0.273071
vt 0.540250 0.290941
vt 0.539130 0.292324
vt 0.538522 0.290589
vt 0.534386 0.295929
vt 0.531546 0.296105
vt 0.530931 0.294589
vt 0.541605 0.272407
vt 0.540835 0.269918
vt 0.542249 0.269918
vt 0.560728 0.291354
vt 0.559212 0.297493
vt 0.559531 0.290736
vt 0.550896 0.289101
vt 0.552350 0.289614
vt 0.550411 0.289845
vt 0.554322 0.289948
vt 0.554682 0.288280
vt 0.555964 0.289671
vt 0.541375 0.296547
vt 0.543866 0.296245
vt 0.544256 0.296692
vt 0.532340 0.275440
vt 0.534477 0.273805
vt 0.534721 0.275443
vt 0.540104 0.297127
vt 0.542037 0.298774
vt 0.539465 0.298766
vt 0.554434 0.295586
vt 0.555261 0.296039
vt 0.554247 0.296129
vt 0.554802 0.276565
vt 0.556500 0.278179
vt 0.556467 0.279715
vt 0.541630 0.275913
vt 0.546660 0.276326
vt 0.544461 0.280039
vt 0.551360 0.274054
vt 0.553547 0.275955
vt 0.551436 0.276081
vt 0.545274 0.296661
vt 0.545942 0.296090
vt 0.546147 0.296609
vt 0.551926 0.295735
vt 0.553374 0.296180
vt 0.551855 0.296271
vt 0.534965 0.294765
vt 0.533623 0.291457
vt 0.535452 0.291459
vt 0.533623 0.282689
vt 0.535452 0.280356
vt 0.535452 0.282691
vt 0.570401 0.263725
vt 0.569217 0.266033
vt 0.568724 0.263202
vt 0.573923 0.264150
vt 0.573564 0.265976
vt 0.573079 0.264172
vt 0.558863 0.269918
vt 0.556376 0.272407
vt 0.556035 0.269918
vt 0.548301 0.272407
vt 0.546492 0.269918
vt 0.548498 0.269918
vt 0.552529 0.297439
vt 0.549700 0.297188
vt 0.553815 0.295807
vt 0.540300 0.297099
vt 0.538143 0.298773
vt 0.537848 0.296657
vt 0.537120 0.295457
vt 0.535721 0.297623
vt 0.535772 0.295456
vt 0.560106 0.293731
vt 0.557094 0.291996
vt 0.560550 0.291293
vt 0.547886 0.291996
vt 0.545712 0.295138
vt 0.545434 0.291996
vt 0.552021 0.271516
vt 0.553506 0.273926
vt 0.550523 0.298075
vt 0.553833 0.300227
vt 0.549990 0.300227
vt 0.545757 0.300640
vt 0.544487 0.300489
vt 0.544911 0.299276
vt 0.559354 0.296022
vt 0.557040 0.297329
vt 0.557065 0.294858
vt 0.546569 0.275827
vt 0.552487 0.276536
vt 0.546562 0.276534
vt 0.554605 0.305763
vt 0.557624 0.307523
vt 0.554606 0.309056
vt 0.548301 0.274265
vt 0.546151 0.272407
vt 0.559406 0.274265
vt 0.559406 0.272407
vt 0.546996 0.302419
vt 0.545240 0.300354
vt 0.547012 0.300330
vt 0.556327 0.300444
vt 0.553853 0.302445
vt 0.553754 0.300357
vt 0.553738 0.288294
vt 0.553968 0.290003
vt 0.544157 0.282090
vt 0.542127 0.275729
vt 0.543288 0.274626
vt 0.542693 0.300440
vt 0.540115 0.301862
vt 0.540089 0.300491
vt 0.541605 0.274265
vt 0.540090 0.272407
vt 0.544185 0.287154
vt 0.541553 0.282265
vt 0.547774 0.282019
vt 0.546151 0.274265
vt 0.557289 0.282019
vt 0.556376 0.274265
vt 0.567508 0.265447
vt 0.567841 0.266415
vt 0.566894 0.266415
vt 0.573293 0.259001
vt 0.573808 0.261023
vt 0.572106 0.258440
vt 0.542864 0.282273
vt 0.540765 0.288651
vt 0.541695 0.281174
vt 0.532003 0.286529
vt 0.532486 0.279763
vt 0.535520 0.279547
vt 0.539885 0.282019
vt 0.540090 0.274265
vt 0.542289 0.290663
vt 0.544873 0.290567
vt 0.547725 0.287081
vt 0.545241 0.282019
vt 0.560860 0.282019
vt 0.557374 0.287081
vt 0.567380 0.260227
vt 0.567661 0.262779
vt 0.566988 0.262942
vt 0.574544 0.263331
vt 0.574583 0.261630
vt 0.543378 0.288817
vt 0.540751 0.293715
vt 0.530314 0.291306
vt 0.530495 0.286266
vt 0.539725 0.287081
vt 0.538100 0.282019
vt 0.534400 0.291408
vt 0.534007 0.283329
vt 0.564431 0.282019
vt 0.560995 0.287081
vt 0.559077 0.293625
vt 0.557591 0.289736
vt 0.557744 0.288407
vt 0.562437 0.274265
vt 0.545163 0.302443
vt 0.562437 0.272407
vt 0.554174 0.267243
vt 0.554862 0.270772
vt 0.563397 0.292324
vt 0.564006 0.290589
vt 0.561692 0.269918
vt 0.538383 0.291347
vt 0.541411 0.297481
vt 0.538383 0.297495
vt 0.534477 0.298071
vt 0.532768 0.294763
vt 0.554785 0.274631
vt 0.553519 0.295640
vt 0.534844 0.297439
vt 0.545157 0.287081
vt 0.541670 0.282019
vt 0.556005 0.290948
vt 0.555097 0.286252
vt 0.555961 0.286259
vt 0.543121 0.274265
vt 0.553318 0.279655
vt 0.551805 0.279547
vt 0.543121 0.272407
vt 0.557627 0.300478
vt 0.556403 0.302203
vt 0.555519 0.285744
vt 0.551910 0.288282
vt 0.551434 0.285989
vt 0.554171 0.296772
vt 0.555114 0.295198
vt 0.544765 0.296676
vt 0.545027 0.296144
vt 0.551134 0.290075
vt 0.555599 0.288407
vt 0.556951 0.290786
vt 0.533623 0.280355
vt 0.534965 0.277081
vt 0.575602 0.266035
vt 0.574408 0.265988
vt 0.543663 0.269918
vt 0.542421 0.293731
vt 0.541978 0.291293
vt 0.571917 0.261013
vt 0.571957 0.261427
vt 0.571045 0.261309
vt 0.570288 0.258582
vt 0.569599 0.259357
vt 0.554805 0.287081
vt 0.554756 0.282019
vt 0.572302 0.260206
vt 0.570576 0.258305
vt 0.573055 0.261522
vt 0.572683 0.263514
vt 0.554226 0.274265
vt 0.552014 0.302420
vt 0.551976 0.300331
vt 0.554226 0.272407
vt 0.553833 0.290003
vt 0.550523 0.292150
vt 0.549990 0.290003
vt 0.555734 0.298077
vt 0.555734 0.295847
vt 0.555734 0.294568
vt 0.537838 0.294389
vt 0.539024 0.293564
vt 0.538346 0.294388
vt 0.556815 0.295138
vt 0.554643 0.291996
vt 0.554480 0.295138
vt 0.535721 0.287398
vt 0.537120 0.289532
vt 0.535772 0.289531
vt 0.549246 0.298773
vt 0.547057 0.297099
vt 0.531803 0.289303
vt 0.531803 0.282546
vt 0.554029 0.269918
vt 0.571242 0.263748
vt 0.570399 0.265987
vt 0.571241 0.265976
vt 0.535452 0.289125
vt 0.533623 0.289123
vt 0.547535 0.295995
vt 0.547666 0.296519
vt 0.545445 0.274405
vt 0.548772 0.276200
vt 0.546560 0.273471
vt 0.552494 0.275829
vt 0.544415 0.274038
vt 0.544419 0.275826
vt 0.546567 0.278155
vt 0.545715 0.277044
vt 0.546563 0.276966
vt 0.551223 0.271622
vt 0.545201 0.303299
vt 0.543378 0.301219
vt 0.545201 0.301054
vt 0.544095 0.301352
vt 0.542277 0.303428
vt 0.542277 0.301183
vt 0.544635 0.302462
vt 0.543202 0.300311
vt 0.545169 0.300312
vt 0.554639 0.274041
vt 0.552485 0.273472
vt 0.556233 0.476808
vt 0.555417 0.477163
vt 0.555417 0.476731
vt 0.549626 0.473732
vt 0.550059 0.474988
vt 0.549628 0.475002
vt 0.556654 0.475625
vt 0.557478 0.474583
vt 0.557054 0.475797
vt 0.548661 0.476806
vt 0.549492 0.477161
vt 0.548645 0.477239
vt 0.549492 0.476729
vt 0.548212 0.471740
vt 0.554153 0.471818
vt 0.548238 0.472169
vt 0.547436 0.472158
vt 0.554127 0.471390
vt 0.554951 0.471712
vt 0.537838 0.300314
vt 0.539024 0.301136
vt 0.537838 0.302464
vt 0.543202 0.294386
vt 0.545169 0.294387
vt 0.544635 0.292237
vt 0.542770 0.293526
vt 0.552492 0.278156
vt 0.553320 0.277046
vt 0.554645 0.278119
vt 0.540104 0.302463
vt 0.540273 0.301148
vt 0.552488 0.276967
vt 0.542370 0.292238
vt 0.541521 0.293539
vt 0.544506 0.271962
vt 0.545308 0.271973
vt 0.554610 0.270505
vt 0.552209 0.269340
vt 0.538476 0.301138
vt 0.538476 0.299812
vt 0.549013 0.301016
vt 0.549013 0.299690
vt 0.544387 0.270502
vt 0.547772 0.269433
vt 0.548110 0.292152
vt 0.548110 0.298077
vt 0.548193 0.290005
vt 0.548193 0.300229
vt 0.549013 0.297036
vt 0.545201 0.298808
vt 0.545201 0.296562
vt 0.549013 0.298363
vt 0.538476 0.297159
vt 0.542277 0.298937
vt 0.538476 0.298485
vt 0.540104 0.292239
vt 0.537838 0.292239
vt 0.540273 0.293552
vt 0.542370 0.302462
vt 0.542770 0.301172
vt 0.541521 0.301160
vt 0.555814 0.478024
vt 0.556630 0.477010
vt 0.556206 0.478224
vt 0.556234 0.476825
vt 0.549621 0.471191
vt 0.550059 0.472417
vt 0.549624 0.472461
vt 0.550059 0.473703
vt 0.544095 0.296740
vt 0.542277 0.296692
vt 0.544095 0.299046
vt 0.543378 0.296606
vt 0.543378 0.298913
vt 0.537126 0.287055
vt 0.534589 0.282127
vt 0.537126 0.282315
vt 0.553831 0.267428
vt 0.548696 0.267428
vt 0.537126 0.288775
vt 0.534589 0.287262
vt 0.555694 0.267428
vt 0.532441 0.290765
vt 0.534424 0.295455
vt 0.532801 0.295205
vt 0.534424 0.289530
vt 0.533081 0.287396
vt 0.534401 0.287397
vt 0.557090 0.292386
vt 0.555734 0.292011
vt 0.557121 0.290003
vt 0.555734 0.293289
vt 0.534589 0.280264
vt 0.537126 0.279607
vt 0.537126 0.280595
vt 0.544206 0.267428
vt 0.546833 0.267428
vt 0.553433 0.294402
vt 0.557591 0.293499
vt 0.553238 0.281921
vt 0.550043 0.281727
vt 0.537126 0.290960
vt 0.534589 0.291752
vt 0.537126 0.289763
vt 0.560947 0.267428
vt 0.558321 0.267428
vt 0.556532 0.273534
vt 0.559781 0.277068
vt 0.548853 0.271268
vt 0.550883 0.267420
vt 0.556407 0.300279
vt 0.557626 0.302579
vt 0.554605 0.302987
vt 0.557625 0.305051
vt 0.558878 0.290889
vt 0.559027 0.293242
vt 0.558924 0.306051
vt 0.558950 0.303493
vt 0.558937 0.304772
vt 0.533081 0.297620
vt 0.534401 0.297621
vt 0.534589 0.289125
vt 0.550580 0.279597
vt 0.548644 0.279737
vt 0.557435 0.288821
vt 0.557880 0.290056
vt 0.559934 0.289182
vt 0.560182 0.290102
vt 0.555600 0.295549
vt 0.558112 0.295554
vt 0.548399 0.288822
vt 0.548110 0.289709
vt 0.534589 0.276324
vt 0.537126 0.278411
vt 0.537126 0.279009
vt 0.541580 0.267428
vt 0.542893 0.267428
vt 0.559776 0.278988
vt 0.548881 0.273191
vt 0.541160 0.274087
vt 0.536915 0.276312
vt 0.536893 0.273802
vt 0.537915 0.291279
vt 0.534589 0.294378
vt 0.548066 0.269749
vt 0.543843 0.267542
vt 0.548110 0.267243
vt 0.548021 0.272256
vt 0.543758 0.270308
vt 0.537915 0.282196
vt 0.537281 0.282692
vt 0.537281 0.289126
vt 0.537281 0.291461
vt 0.537162 0.277083
vt 0.537281 0.280358
vt 0.537915 0.279351
vt 0.537915 0.288984
vt 0.537043 0.298073
vt 0.537162 0.294767
vt 0.538137 0.293549
vt 0.538151 0.288485
vt 0.546790 0.286978
vt 0.547458 0.290470
vt 0.536928 0.280678
vt 0.546762 0.281914
vt 0.548037 0.274112
vt 0.541699 0.279120
vt 0.536936 0.278821
vt 0.537915 0.287177
vt 0.537915 0.280389
vt 0.537915 0.290022
vt 0.537511 0.297040
vt 0.536893 0.298758
vt 0.537043 0.273807
vt 0.537102 0.275445
vt 0.534589 0.275011
vt 0.537915 0.278094
vt 0.543274 0.272571
vt 0.541231 0.276855
vt 0.549697 0.279691
vt 0.552304 0.279336
vt 0.559781 0.285445
vt 0.556448 0.286090
vt 0.556724 0.279378
vt 0.560182 0.276212
vt 0.559301 0.279921
vt 0.553959 0.278934
vt 0.556070 0.275663
vt 0.551908 0.286443
vt 0.547697 0.287764
vt 0.545696 0.287882
vt 0.548840 0.282833
vt 0.545230 0.283526
vt 0.544421 0.278116
vt 0.556492 0.280447
vt 0.552813 0.284468
vt 0.542835 0.283891
vt 0.544546 0.287936
vt 0.543848 0.287943
vt 0.553910 0.286324
vt 0.555059 0.286242
vt 0.538383 0.283022
vt 0.540732 0.284145
vt 0.538383 0.285202
vt 0.550191 0.285260
vt 0.541408 0.279368
vt 0.538476 0.286709
vt 0.540886 0.283776
vt 0.543151 0.287950
vt 0.556592 0.296131
vt 0.555095 0.279092
vt 0.545546 0.292207
vt 0.548110 0.292189
vt 0.543618 0.293607
vt 0.540339 0.295903
vt 0.551121 0.294653
vt 0.541535 0.287081
vt 0.554996 0.290590
vt 0.532672 0.292576
vt 0.564616 0.287081
vt 0.542982 0.292224
vt 0.542697 0.297214
vt 0.537914 0.287081
vt 0.555167 0.285235
vt 0.551935 0.286154
vt 0.539221 0.292823
vt 0.542670 0.294063
vt 0.556466 0.293244
vt 0.555151 0.293322
vt 0.545072 0.293921
vt 0.543985 0.293985
vt 0.554065 0.293387
vt 0.552174 0.293499
vt 0.543328 0.294024
vt 0.546962 0.293808
vt 0.553462 0.285039
vt 0.556608 0.285659
vt 0.559550 0.286086
vt 0.559760 0.291605
vt 0.549021 0.285825
vt 0.572660 0.261241
vt 0.572130 0.260289
vt 0.570715 0.260561
vt 0.574367 0.261315
vt 0.573688 0.260931
vt 0.540154 0.290261
vt 0.568951 0.260804
vt 0.561523 0.287298
vt 0.557831 0.287041
vt 0.540995 0.295680
vt 0.554650 0.297366
vt 0.557695 0.297486
vt 0.546572 0.297335
vt 0.539298 0.276577
vt 0.540702 0.277777
vt 0.538553 0.278115
vt 0.550523 0.277760
vt 0.548777 0.278115
vt 0.547988 0.276577
vt 0.534229 0.277938
vt 0.544426 0.297363
vt 0.536759 0.277760
vt 0.544446 0.296195
vt 0.553046 0.277938
vt 0.551784 0.277849
vt 0.552497 0.297337
vt 0.546152 0.276288
vt 0.544875 0.277772
vt 0.541134 0.276288
vt 0.558383 0.294650
vt 0.532496 0.278565
vt 0.534228 0.277065
vt 0.554841 0.278565
vt 0.554832 0.279763
vt 0.534727 0.273523
vt 0.533682 0.271493
vt 0.535254 0.271238
vt 0.537082 0.269340
vt 0.538128 0.270488
vt 0.552552 0.273523
vt 0.553653 0.271493
vt 0.554248 0.274239
vt 0.553040 0.275447
vt 0.554840 0.276518
vt 0.545738 0.270533
vt 0.541184 0.269340
vt 0.546165 0.269340
vt 0.547260 0.270533
vt 0.547972 0.269340
vt 0.548643 0.270511
vt 0.549010 0.269340
vt 0.549638 0.269340
vt 0.539146 0.270533
vt 0.539377 0.269340
vt 0.540020 0.270533
vt 0.532494 0.276518
vt 0.534237 0.275448
vt 0.541543 0.270533
vt 0.548135 0.270533
vt 0.538340 0.269340
vt 0.552020 0.271238
vt 0.550267 0.269340
vt 0.553053 0.277065
vt 0.533090 0.274239
vt 0.568097 0.258440
vt 0.568394 0.259632
vt 0.568962 0.258584
vt 0.568940 0.258307
vt 0.572805 0.263944
vt 0.573025 0.264924
vt 0.566314 0.260484
vt 0.568722 0.264524
vt 0.566468 0.263652
vt 0.570195 0.264208
vt 0.570083 0.264514
vt 0.568797 0.265414
vt 0.569589 0.262044
vt 0.568644 0.259839
vt 0.569242 0.258989
vt 0.568208 0.260261
vt 0.570505 0.263473
vt 0.569237 0.263334
vt 0.549152 0.270488
vt 0.558928 0.300513
vt 0.560728 0.297501
vt 0.558334 0.290119
vt 0.554545 0.285448
vt 0.556414 0.294589
vt 0.557015 0.291306
vt 0.537915 0.278723
vt 0.534589 0.277637
vt 0.552224 0.297208
vt 0.549350 0.295498
vt 0.555812 0.296105
vt 0.548929 0.286885
vt 0.548644 0.288762
vt 0.558932 0.301867
vt 0.556825 0.286266
vt 0.532768 0.277078
vt 0.540775 0.293028
vt 0.553476 0.289555
vt 0.531912 0.273802
vt 0.543299 0.274532
vt 0.540477 0.298773
vt 0.537041 0.297624
vt 0.548046 0.295138
vt 0.545759 0.303275
vt 0.558881 0.298648
vt 0.554839 0.289667
vt 0.542639 0.302199
vt 0.541581 0.287330
vt 0.567832 0.265509
vt 0.543364 0.293881
vt 0.557591 0.296636
vt 0.531912 0.298068
vt 0.557667 0.302035
vt 0.555748 0.289242
vt 0.550311 0.288407
vt 0.575853 0.263146
vt 0.555734 0.292151
vt 0.537041 0.287400
vt 0.546912 0.298773
vt 0.543378 0.303526
vt 0.544095 0.303659
vt 0.554643 0.275829
vt 0.556249 0.477242
vt 0.557074 0.474426
vt 0.547352 0.471724
vt 0.554983 0.471271
vt 0.538346 0.300313
vt 0.550059 0.471132
vt 0.548110 0.267643
vt 0.557635 0.300195
vt 0.538834 0.294682
vt 0.538834 0.274711
vt 0.552639 0.274731
vt 0.538506 0.282935
vt 0.548707 0.297883
vt 0.549120 0.291011
s 0
usemtl Material
f 159/1/1 237/2/1 253/3/1
f 378/4/2 3/5/2 254/6/2
f 263/7/3 10/8/3 255/9/3
f 358/10/4 153/11/4 371/12/4
f 273/13/5 364/14/5 380/15/5
f 155/16/6 210/17/6 233/18/6
f 217/19/7 12/20/7 209/21/7
f 231/22/8 296/23/8 331/24/8
f 359/25/9 208/26/9 373/27/9
f 271/28/10 10/29/10 207/30/10
f 61/31/11 206/32/11 223/33/11
f 243/34/12 4/35/12 234/36/12
f 80/37/13 238/38/13 244/39/13
f 106/40/14 239/41/14 249/42/14
f 224/43/15 29/44/15 212/45/15
f 102/46/15 213/47/15 229/48/15
f 222/49/16 27/50/16 214/51/16
f 100/52/17 215/53/17 227/54/17
f 277/55/18 292/56/18 279/57/18
f 278/58/19 315/59/19 284/60/19
f 176/61/4 23/62/4 162/63/4
f 96/64/4 164/65/4 188/66/4
f 75/67/20 258/68/20 264/69/20
f 269/70/21 27/71/21 259/72/21
f 89/73/22 168/74/22 184/75/22
f 59/76/23 260/77/23 262/78/23
f 267/79/24 19/80/24 261/81/24
f 106/40/25 129/82/25 34/83/25
f 147/84/26 18/85/26 145/86/26
f 173/87/27 129/88/27 197/89/27
f 178/90/28 31/91/28 170/92/28
f 124/93/29 141/94/29 140/95/29
f 175/96/30 32/97/30 62/98/30
f 108/99/4 24/100/4 96/64/4
f 67/101/4 23/62/4 65/102/4
f 110/103/31 26/104/31 98/105/31
f 77/106/32 310/107/32 25/108/32
f 13/109/33 216/110/33 210/17/33
f 218/111/34 37/112/34 321/113/34
f 60/114/35 312/115/35 13/116/35
f 360/117/4 7/118/4 358/10/4
f 220/119/36 46/120/36 218/111/36
f 112/121/37 42/122/37 108/99/37
f 67/101/37 49/123/37 41/124/37
f 40/125/38 347/126/38 48/127/38
f 309/128/39 340/129/39 39/130/39
f 38/131/40 219/132/40 320/133/40
f 70/134/41 38/135/41 311/136/41
f 361/137/37 35/138/37 360/117/37
f 257/139/42 220/119/42 270/140/42
f 115/141/4 50/142/4 112/121/4
f 69/143/4 57/144/4 49/123/4
f 48/145/43 355/146/43 56/147/43
f 85/148/44 340/129/44 83/149/44
f 44/150/45 221/151/45 219/132/45
f 70/134/46 52/152/46 44/153/46
f 362/154/4 43/155/4 361/137/4
f 341/156/47 70/134/47 336/157/47
f 45/158/4 71/159/4 69/143/4
f 336/160/48 311/161/48 337/162/48
f 36/163/37 69/143/37 67/101/37
f 308/164/49 60/114/49 26/104/49
f 36/163/4 65/102/4 6/165/4
f 159/1/50 62/166/50 14/167/50
f 5/168/51 262/78/51 256/169/51
f 150/170/4 65/102/4 176/61/4
f 274/171/52 292/172/52 293/173/52
f 207/174/16 66/175/16 222/49/16
f 239/41/53 63/176/53 243/34/53
f 30/177/15 223/33/15 213/47/15
f 259/72/54 66/178/54 263/7/54
f 58/179/4 84/180/4 50/142/4
f 368/181/55 83/182/55 367/183/55
f 50/142/37 82/184/37 42/122/37
f 366/185/56 83/182/56 309/186/56
f 24/100/4 82/184/4 74/187/4
f 381/188/57 81/189/57 77/106/57
f 250/190/58 376/191/58 369/192/58
f 359/193/59 264/69/59 377/194/59
f 384/195/60 78/196/60 224/43/60
f 160/197/61 79/198/61 178/199/61
f 28/200/9 225/201/9 215/53/9
f 278/58/62 299/202/62 300/203/62
f 24/100/4 180/204/4 164/65/4
f 261/81/63 76/205/63 265/206/63
f 113/207/64 354/208/64 348/209/64
f 317/210/65 348/209/65 356/211/65
f 49/123/4 114/212/4 111/213/4
f 114/212/4 112/121/4 111/213/4
f 39/130/66 344/214/66 343/215/66
f 47/216/67 353/217/67 354/208/67
f 41/124/37 111/213/37 107/218/37
f 107/218/37 112/121/37 108/99/37
f 25/108/68 109/219/68 97/220/68
f 109/219/69 98/105/69 97/220/69
f 41/124/4 95/221/4 23/62/4
f 107/218/4 96/64/4 95/221/4
f 17/222/70 146/223/70 144/224/70
f 146/223/71 90/225/71 147/84/71
f 170/92/72 132/226/72 194/227/72
f 125/228/73 131/229/73 141/230/73
f 20/231/24 266/232/24 260/77/24
f 92/233/74 267/79/74 266/232/74
f 166/234/75 90/235/75 182/236/75
f 90/235/76 184/75/76 182/236/76
f 28/237/77 268/238/77 258/68/77
f 100/52/78 269/239/78 268/240/78
f 162/63/4 95/221/4 186/241/4
f 186/241/4 96/64/4 188/66/4
f 283/242/79 302/243/79 277/55/79
f 284/60/80 301/244/80 283/242/80
f 27/50/17 226/245/17 214/51/17
f 99/246/17 227/54/17 226/245/17
f 212/45/15 101/247/15 228/248/15
f 228/248/15 102/46/15 229/48/15
f 238/38/81 105/249/81 248/250/81
f 248/250/82 106/40/82 249/42/82
f 148/251/83 125/252/83 124/93/83
f 142/253/84 124/93/84 118/254/84
f 104/255/85 127/256/85 126/257/85
f 105/249/86 128/258/86 106/40/86
f 142/259/87 190/260/87 204/261/87
f 193/262/88 143/263/88 203/264/88
f 121/265/89 139/266/89 123/267/89
f 143/268/90 125/252/90 149/269/90
f 131/270/91 136/271/91 141/272/91
f 201/273/92 132/274/92 131/275/92
f 198/276/93 127/277/93 196/278/93
f 130/279/94 126/280/94 127/281/94
f 141/272/95 126/280/95 140/282/95
f 138/283/96 128/284/96 137/285/96
f 134/286/97 138/283/97 137/285/97
f 139/287/98 129/288/98 128/284/98
f 124/289/99 130/290/99 118/291/99
f 123/267/100 138/292/100 122/293/100
f 120/294/101 138/292/101 133/295/101
f 103/296/102 132/297/102 31/298/102
f 190/299/103 130/290/103 198/300/103
f 104/255/104 136/301/104 103/296/104
f 192/302/105 133/295/105 200/303/105
f 105/249/106 134/304/106 137/305/106
f 22/306/107 149/269/107 94/307/107
f 203/264/88 22/308/88 169/309/88
f 21/310/87 204/261/87 167/311/87
f 21/312/108 148/251/108 142/253/108
f 93/313/109 149/269/109 148/251/109
f 122/314/96 147/84/96 123/315/96
f 144/224/110 122/314/110 120/316/110
f 123/315/111 145/86/111 121/317/111
f 18/318/87 205/319/87 145/320/87
f 167/311/87 205/319/87 166/321/87
f 17/322/88 202/323/88 168/324/88
f 202/323/88 169/309/88 168/324/88
f 193/325/112 131/229/112 119/326/112
f 193/325/113 200/303/113 201/327/113
f 191/328/114 135/329/114 121/265/114
f 190/299/115 199/330/115 191/328/115
f 135/331/116 197/332/116 129/333/116
f 199/334/117 196/278/117 197/332/117
f 133/335/118 195/336/118 200/337/118
f 200/337/119 194/338/119 201/273/119
f 120/339/88 202/323/88 144/340/88
f 192/341/88 203/264/88 202/323/88
f 205/319/87 121/342/87 145/320/87
f 204/261/87 191/343/87 205/319/87
f 87/344/120 189/345/120 88/346/120
f 187/347/4 188/66/4 189/348/4
f 15/349/120 187/350/120 87/344/120
f 163/351/4 186/241/4 187/347/4
f 93/352/121 185/353/121 94/354/121
f 183/355/76 184/75/76 185/353/76
f 21/356/122 183/355/122 93/352/122
f 167/357/75 182/236/75 183/355/75
f 171/358/123 134/359/123 33/360/123
f 170/92/124 195/361/124 171/358/124
f 165/362/120 73/363/120 16/364/120
f 164/65/4 181/365/4 165/366/4
f 161/367/125 178/199/125 179/368/125
f 251/369/126 369/192/126 374/370/126
f 2/371/120 177/372/120 64/373/120
f 151/374/4 176/61/4 177/375/4
f 4/35/127 174/376/127 158/377/127
f 158/378/128 175/379/128 159/1/128
f 63/380/129 173/381/129 174/382/129
f 174/382/130 172/383/130 175/96/130
f 80/384/131 171/358/131 33/360/131
f 179/385/132 170/92/132 171/358/132
f 172/383/133 127/386/133 32/97/133
f 172/383/134 197/387/134 196/388/134
f 185/353/135 22/389/135 94/354/135
f 184/75/22 169/390/22 185/353/22
f 189/345/120 16/364/120 88/346/120
f 188/66/4 165/366/4 189/348/4
f 64/373/120 163/391/120 15/349/120
f 177/375/4 162/63/4 163/351/4
f 235/392/136 374/370/136 375/393/136
f 209/21/137 156/394/137 230/395/137
f 230/395/138 157/396/138 231/397/138
f 9/398/139 232/399/139 206/32/139
f 154/400/140 233/18/140 232/401/140
f 370/402/120 1/403/120 357/404/120
f 371/12/4 152/405/4 370/406/4
f 4/35/141 252/407/141 234/36/141
f 158/378/142 253/3/142 252/408/142
f 322/409/143 150/410/143 151/411/143
f 324/412/144 151/413/144 2/371/144
f 153/414/145 326/415/145 152/416/145
f 7/417/146 325/418/146 153/414/146
f 328/419/147 87/344/147 88/346/147
f 16/364/147 328/419/147 88/346/147
f 226/245/17 91/420/17 92/421/17
f 214/51/17 92/421/17 20/422/17
f 215/53/9 76/423/9 19/424/9
f 357/404/147 332/425/147 73/363/147
f 333/426/147 64/373/147 15/349/147
f 5/427/16 222/49/16 59/428/16
f 219/132/45 53/429/45 45/430/45
f 270/140/148 51/431/148 254/432/148
f 320/133/149 45/430/149 36/433/149
f 51/431/36 218/111/36 43/434/36
f 43/434/150 321/113/150 35/435/150
f 335/436/87 36/433/87 6/437/87
f 91/420/17 215/53/17 19/424/17
f 59/428/16 214/51/16 20/422/16
f 329/438/147 15/349/147 87/344/147
f 73/363/147 330/439/147 16/364/147
f 334/440/147 2/371/147 64/373/147
f 256/441/151 207/30/151 5/442/151
f 373/27/9 3/443/9 363/444/9
f 152/445/152 211/446/152 1/403/152
f 35/435/88 327/447/88 7/417/88
f 323/448/153 6/437/153 150/410/153
f 289/449/154 253/3/154 290/450/154
f 234/36/155 289/451/155 272/452/155
f 287/453/156 251/454/156 288/455/156
f 273/456/157 250/457/157 287/453/157
f 248/250/158 286/458/158 285/459/158
f 238/38/159 285/459/159 275/460/159
f 103/296/160 246/461/160 104/255/160
f 104/255/161 240/462/161 32/463/161
f 79/464/162 241/465/162 31/298/162
f 375/466/163 281/467/163 379/468/163
f 276/469/164 243/34/164 280/470/164
f 14/471/165 242/472/165 237/473/165
f 103/296/166 241/465/166 247/474/166
f 62/475/167 240/462/167 242/472/167
f 249/42/168 276/469/168 286/458/168
f 244/39/169 275/460/169 281/467/169
f 280/470/170 234/36/170 272/452/170
f 288/476/171 235/477/171 291/478/171
f 80/479/172 161/367/172 179/368/172
f 253/3/173 274/480/173 290/450/173
f 53/429/174 271/28/174 256/441/174
f 208/481/175 254/432/175 3/482/175
f 345/483/176 269/70/176 342/484/176
f 339/485/177 268/238/177 345/483/177
f 114/212/178 267/79/178 115/141/178
f 260/77/178 114/212/178 57/144/178
f 58/179/179 265/206/179 86/486/179
f 377/194/180 85/487/180 368/181/180
f 341/156/181 263/7/181 72/488/181
f 256/169/182 71/159/182 53/489/182
f 11/490/183 270/140/183 208/481/183
f 115/141/178 261/81/178 58/179/178
f 262/78/179 57/144/179 71/159/179
f 342/484/184 259/72/184 341/156/184
f 264/69/185 339/485/185 85/487/185
f 221/151/186 255/491/186 271/28/186
f 72/488/187 255/9/187 52/152/187
f 362/154/182 254/6/182 51/492/182
f 290/450/188 293/493/188 294/494/188
f 295/495/189 291/478/189 8/496/189
f 280/470/190 298/497/190 297/498/190
f 281/467/191 304/499/191 303/500/191
f 286/458/192 306/501/192 305/502/192
f 276/469/192 297/498/192 306/501/192
f 379/468/193 303/500/193 365/503/193
f 275/460/194 316/504/194 304/499/194
f 285/459/194 305/502/194 316/504/194
f 313/505/195 287/453/195 319/506/195
f 319/506/196 288/455/196 295/507/196
f 272/452/197 318/508/197 298/497/197
f 289/449/198 294/494/198 318/509/198
f 247/510/199 283/242/199 246/511/199
f 240/512/200 283/242/200 277/55/200
f 245/513/201 278/58/201 241/514/201
f 237/473/202 279/515/202 274/171/202
f 247/510/203 278/58/203 284/60/203
f 240/512/204 279/57/204 242/516/204
f 236/517/205 380/15/205 376/518/205
f 13/116/206 292/172/206 60/114/206
f 13/109/207 294/494/207 293/493/207
f 157/519/208 8/496/208 296/23/208
f 9/398/209 297/498/209 298/497/209
f 77/106/210 300/520/210 299/521/210
f 26/104/211 301/522/211 98/105/211
f 78/196/212 304/499/212 29/44/212
f 30/177/212 305/502/212 306/501/212
f 308/523/213 338/524/213 337/525/213
f 81/526/214 39/527/214 310/528/214
f 312/529/215 311/136/215 38/135/215
f 60/114/216 302/530/216 26/104/216
f 61/31/212 306/501/212 297/498/212
f 68/531/217 337/525/217 311/136/217
f 381/188/218 299/521/218 364/14/218
f 296/23/219 365/503/219 382/532/219
f 314/533/220 366/185/220 383/534/220
f 25/108/221 315/535/221 300/520/221
f 97/220/222 301/522/222 315/535/222
f 29/44/212 316/504/212 101/247/212
f 101/247/212 305/502/212 102/46/212
f 109/536/223 39/527/223 343/537/223
f 110/538/224 343/537/224 338/524/224
f 154/539/225 298/497/225 318/508/225
f 155/16/226 318/509/226 294/494/226
f 12/20/227 319/506/227 156/394/227
f 156/394/228 295/507/228 157/396/228
f 312/529/229 320/540/229 216/541/229
f 314/533/230 321/542/230 37/543/230
f 233/544/231 322/545/231 232/546/231
f 232/546/232 324/547/232 206/548/232
f 230/549/233 326/550/233 325/551/233
f 209/552/234 325/551/234 327/553/234
f 228/554/235 329/555/235 328/556/235
f 212/557/235 328/556/235 330/558/235
f 384/559/236 332/560/236 372/561/236
f 223/562/235 333/563/235 213/564/235
f 216/541/237 335/565/237 210/566/237
f 213/564/235 329/555/235 229/567/235
f 224/568/235 330/558/235 332/560/235
f 206/548/238 334/569/238 223/562/238
f 231/570/239 211/571/239 326/550/239
f 217/572/240 327/553/240 321/542/240
f 210/566/241 323/573/241 233/544/241
f 48/145/242 337/574/242 40/575/242
f 307/576/243 337/574/243 338/577/243
f 55/578/244 340/129/244 339/579/244
f 56/147/245 336/580/245 48/145/245
f 117/581/246 341/582/246 56/147/246
f 317/210/247 338/577/247 343/215/247
f 47/216/248 344/214/248 340/129/248
f 116/583/249 339/579/249 345/584/249
f 117/581/250 345/584/250 342/585/250
f 317/210/251 344/214/251 113/207/251
f 346/586/252 352/587/252 351/588/252
f 346/586/253 355/146/253 347/589/253
f 354/208/254 349/590/254 348/209/254
f 349/590/255 346/586/255 348/209/255
f 356/211/256 346/586/256 351/588/256
f 55/578/257 349/590/257 353/217/257
f 117/581/258 355/146/258 350/591/258
f 40/575/259 351/588/259 352/587/259
f 116/583/260 350/591/260 349/590/260
f 317/210/261 351/588/261 307/576/261
f 331/592/262 372/561/262 211/571/262
f 383/534/263 309/186/263 81/526/263
f 382/532/264 303/500/264 78/196/264
f 12/593/265 364/14/265 313/594/265
f 376/518/266 282/595/266 245/596/266
f 291/478/267 365/503/267 8/496/267
f 86/486/268 378/4/268 362/154/268
f 257/597/269 368/181/269 54/598/269
f 291/478/163 375/466/163 379/468/163
f 225/201/9 363/444/9 76/423/9
f 1/403/147 372/599/147 357/404/147
f 180/204/4 370/406/4 181/365/4
f 181/600/120 357/404/120 73/363/120
f 244/601/270 374/602/270 161/367/270
f 374/602/271 160/197/271 161/367/271
f 331/24/272 382/532/272 384/195/272
f 11/603/273 377/194/273 257/597/273
f 160/604/274 376/191/274 245/605/274
f 314/606/275 381/188/275 12/593/275
f 37/543/276 367/183/276 366/185/276
f 46/607/55 368/181/55 367/183/55
f 86/486/4 361/137/4 84/180/4
f 84/180/37 360/117/37 82/184/37
f 82/184/4 358/10/4 74/187/4
f 75/608/9 373/27/9 225/201/9
f 380/15/277 299/521/277 282/595/277
f 74/187/4 371/12/4 180/204/4
f 265/206/278 363/609/278 378/4/278
f 159/1/87 14/167/87 237/2/87
f 378/4/279 363/609/279 3/5/279
f 263/7/280 66/178/280 10/8/280
f 358/10/4 7/118/4 153/11/4
f 273/13/281 313/594/281 364/14/281
f 155/16/282 13/109/282 210/17/282
f 217/19/283 314/610/283 12/20/283
f 231/22/284 157/519/284 296/23/284
f 359/25/9 11/611/9 208/26/9
f 271/28/285 255/491/285 10/29/285
f 61/31/286 9/398/286 206/32/286
f 243/34/287 63/176/287 4/35/287
f 80/37/288 33/612/288 238/38/288
f 106/40/14 34/83/14 239/41/14
f 224/43/15 78/196/15 29/44/15
f 102/46/15 30/177/15 213/47/15
f 222/49/16 66/175/16 27/50/16
f 100/52/17 28/200/17 215/53/17
f 277/55/289 302/243/289 292/56/289
f 278/58/290 300/203/290 315/59/290
f 176/61/4 65/102/4 23/62/4
f 96/64/4 24/100/4 164/65/4
f 75/67/291 28/237/291 258/68/291
f 269/70/78 99/613/78 27/71/78
f 89/73/22 17/614/22 168/74/22
f 59/76/292 20/231/292 260/77/292
f 267/79/74 91/615/74 19/80/74
f 106/40/293 128/258/293 129/82/293
f 147/84/294 90/225/294 18/85/294
f 173/87/295 34/616/295 129/88/295
f 178/90/296 79/617/296 31/91/296
f 124/93/29 125/252/29 141/94/29
f 175/96/297 172/383/297 32/97/297
f 108/99/4 42/122/4 24/100/4
f 67/101/4 41/124/4 23/62/4
f 110/103/298 308/164/298 26/104/298
f 77/106/299 81/189/299 310/107/299
f 13/109/300 312/618/300 216/110/300
f 218/111/301 46/120/301 37/112/301
f 60/114/302 68/619/302 312/115/302
f 360/117/4 35/138/4 7/118/4
f 220/119/36 54/620/36 46/120/36
f 112/121/37 50/142/37 42/122/37
f 67/101/37 69/143/37 49/123/37
f 40/125/303 352/621/303 347/126/303
f 309/128/304 83/149/304 340/129/304
f 38/131/305 44/150/305 219/132/305
f 70/134/306 44/153/306 38/135/306
f 361/137/37 43/155/37 35/138/37
f 257/139/307 54/620/307 220/119/307
f 115/141/4 58/179/4 50/142/4
f 69/143/4 71/159/4 57/144/4
f 48/145/308 347/589/308 355/146/308
f 85/148/309 339/579/309 340/129/309
f 44/150/45 52/622/45 221/151/45
f 70/134/310 72/488/310 52/152/310
f 362/154/4 51/492/4 43/155/4
f 341/156/311 72/488/311 70/134/311
f 45/158/4 53/489/4 71/159/4
f 336/160/312 70/623/312 311/161/312
f 36/163/37 45/158/37 69/143/37
f 308/164/313 68/619/313 60/114/313
f 36/163/4 67/101/4 65/102/4
f 159/1/314 175/379/314 62/166/314
f 5/168/315 59/76/315 262/78/315
f 150/170/4 6/165/4 65/102/4
f 274/171/316 279/515/316 292/172/316
f 207/174/16 10/624/16 66/175/16
f 239/41/317 34/83/317 63/176/317
f 30/177/15 61/31/15 223/33/15
f 259/72/318 27/71/318 66/178/318
f 58/179/4 86/486/4 84/180/4
f 368/181/319 85/487/319 83/182/319
f 50/142/37 84/180/37 82/184/37
f 366/185/320 367/183/320 83/182/320
f 24/100/4 42/122/4 82/184/4
f 381/188/321 383/625/321 81/189/321
f 250/190/322 236/626/322 376/191/322
f 359/193/323 75/67/323 264/69/323
f 384/195/324 382/532/324 78/196/324
f 160/197/325 245/627/325 79/198/325
f 28/200/9 75/608/9 225/201/9
f 278/58/326 282/628/326 299/202/326
f 24/100/4 74/187/4 180/204/4
f 261/81/327 19/80/327 76/205/327
f 113/207/328 47/216/328 354/208/328
f 317/210/329 113/207/329 348/209/329
f 49/123/4 57/144/4 114/212/4
f 114/212/4 115/141/4 112/121/4
f 39/130/330 340/129/330 344/214/330
f 47/216/331 55/578/331 353/217/331
f 41/124/37 49/123/37 111/213/37
f 107/218/37 111/213/37 112/121/37
f 25/108/332 310/107/332 109/219/332
f 109/219/69 110/103/69 98/105/69
f 41/124/4 107/218/4 95/221/4
f 107/218/4 108/99/4 96/64/4
f 17/222/333 89/629/333 146/223/333
f 146/223/71 89/629/71 90/225/71
f 170/92/334 31/91/334 132/226/334
f 125/228/99 119/326/99 131/229/99
f 20/231/24 92/233/24 266/232/24
f 92/233/74 91/615/74 267/79/74
f 166/234/75 18/630/75 90/235/75
f 90/235/76 89/73/76 184/75/76
f 28/237/78 100/631/78 268/238/78
f 100/52/78 99/246/78 269/239/78
f 162/63/4 23/62/4 95/221/4
f 186/241/4 95/221/4 96/64/4
f 283/242/335 301/244/335 302/243/335
f 284/60/336 315/59/336 301/244/336
f 27/50/17 99/246/17 226/245/17
f 99/246/17 100/52/17 227/54/17
f 212/45/15 29/44/15 101/247/15
f 228/248/15 101/247/15 102/46/15
f 238/38/81 33/612/81 105/249/81
f 248/250/81 105/249/81 106/40/81
f 148/251/83 149/269/83 125/252/83
f 142/253/337 148/251/337 124/93/337
f 104/255/338 32/463/338 127/256/338
f 105/249/86 137/305/86 128/258/86
f 142/259/87 118/632/87 190/260/87
f 193/262/88 119/633/88 143/263/88
f 121/265/339 135/329/339 139/266/339
f 143/268/84 119/634/84 125/252/84
f 131/270/340 132/635/340 136/271/340
f 201/273/341 194/338/341 132/274/341
f 198/276/342 130/636/342 127/277/342
f 130/279/343 140/282/343 126/280/343
f 141/272/95 136/271/95 126/280/95
f 138/283/96 139/287/96 128/284/96
f 134/286/344 133/637/344 138/283/344
f 139/287/345 135/638/345 129/288/345
f 124/289/346 140/639/346 130/290/346
f 123/267/100 139/266/100 138/292/100
f 120/294/347 122/293/347 138/292/347
f 103/296/348 136/301/348 132/297/348
f 190/299/349 118/291/349 130/290/349
f 104/255/104 126/257/104 136/301/104
f 192/302/350 120/294/350 133/295/350
f 105/249/25 33/612/25 134/304/25
f 22/306/351 143/268/351 149/269/351
f 203/264/88 143/263/88 22/308/88
f 21/310/87 142/259/87 204/261/87
f 21/312/352 93/313/352 148/251/352
f 93/313/353 94/307/353 149/269/353
f 122/314/96 146/223/96 147/84/96
f 144/224/354 146/223/354 122/314/354
f 123/315/355 147/84/355 145/86/355
f 18/318/87 166/321/87 205/319/87
f 167/311/87 204/261/87 205/319/87
f 17/322/88 144/340/88 202/323/88
f 202/323/88 203/264/88 169/309/88
f 193/325/113 201/327/113 131/229/113
f 193/325/356 192/302/356 200/303/356
f 191/328/357 199/330/357 135/329/357
f 190/299/103 198/300/103 199/330/103
f 135/331/358 199/334/358 197/332/358
f 199/334/359 198/276/359 196/278/359
f 133/335/360 134/640/360 195/336/360
f 200/337/361 195/336/361 194/338/361
f 120/339/88 192/341/88 202/323/88
f 192/341/88 193/262/88 203/264/88
f 205/319/87 191/343/87 121/342/87
f 204/261/87 190/260/87 191/343/87
f 87/344/120 187/350/120 189/345/120
f 187/347/4 186/241/4 188/66/4
f 15/349/120 163/391/120 187/350/120
f 163/351/4 162/63/4 186/241/4
f 93/352/362 183/355/362 185/353/362
f 183/355/76 182/236/76 184/75/76
f 21/356/75 167/357/75 183/355/75
f 167/357/75 166/234/75 182/236/75
f 171/358/363 195/361/363 134/359/363
f 170/92/72 194/227/72 195/361/72
f 165/362/120 181/600/120 73/363/120
f 164/65/4 180/204/4 181/365/4
f 161/367/364 160/197/364 178/199/364
f 251/369/365 250/190/365 369/192/365
f 2/371/120 151/413/120 177/372/120
f 151/374/4 150/170/4 176/61/4
f 4/35/366 63/176/366 174/376/366
f 158/378/367 174/641/367 175/379/367
f 63/380/368 34/642/368 173/381/368
f 174/382/369 173/381/369 172/383/369
f 80/384/370 179/385/370 171/358/370
f 179/385/371 178/90/371 170/92/371
f 172/383/134 196/388/134 127/386/134
f 172/383/372 173/381/372 197/387/372
f 185/353/22 169/390/22 22/389/22
f 184/75/22 168/74/22 169/390/22
f 189/345/120 165/362/120 16/364/120
f 188/66/4 164/65/4 165/366/4
f 64/373/120 177/372/120 163/391/120
f 177/375/4 176/61/4 162/63/4
f 235/392/373 251/369/373 374/370/373
f 209/21/374 12/20/374 156/394/374
f 230/395/375 156/394/375 157/396/375
f 9/398/376 154/539/376 232/399/376
f 154/400/377 155/16/377 233/18/377
f 370/402/120 152/445/120 1/403/120
f 371/12/4 153/11/4 152/405/4
f 4/35/378 158/377/378 252/407/378
f 158/378/379 159/1/379 253/3/379
f 322/409/380 323/448/380 150/410/380
f 324/412/381 322/643/381 151/413/381
f 153/414/382 325/418/382 326/415/382
f 7/417/383 327/447/383 325/418/383
f 328/419/147 329/438/147 87/344/147
f 16/364/147 330/439/147 328/419/147
f 226/245/17 227/54/17 91/420/17
f 214/51/17 226/245/17 92/421/17
f 215/53/9 225/201/9 76/423/9
f 357/404/384 372/599/384 332/425/384
f 333/426/147 334/440/147 64/373/147
f 5/427/16 207/174/16 222/49/16
f 219/132/45 221/151/45 53/429/45
f 270/140/385 220/119/385 51/431/385
f 320/133/386 219/132/386 45/430/386
f 51/431/36 220/119/36 218/111/36
f 43/434/387 218/111/387 321/113/387
f 335/436/87 320/133/87 36/433/87
f 91/420/17 227/54/17 215/53/17
f 59/428/16 222/49/16 214/51/16
f 329/438/147 333/426/147 15/349/147
f 73/363/147 332/425/147 330/439/147
f 334/440/147 324/412/147 2/371/147
f 256/441/388 271/28/388 207/30/388
f 373/27/9 208/26/9 3/443/9
f 152/445/389 326/644/389 211/446/389
f 35/435/88 321/113/88 327/447/88
f 323/448/390 335/436/390 6/437/390
f 289/449/391 252/408/391 253/3/391
f 234/36/392 252/407/392 289/451/392
f 287/453/393 250/457/393 251/454/393
f 273/456/394 236/645/394 250/457/394
f 248/250/395 249/42/395 286/458/395
f 238/38/159 248/250/159 285/459/159
f 103/296/396 247/474/396 246/461/396
f 104/255/397 246/461/397 240/462/397
f 79/464/398 245/596/398 241/465/398
f 375/466/399 244/39/399 281/467/399
f 276/469/400 239/41/400 243/34/400
f 14/471/401 62/475/401 242/472/401
f 103/296/402 31/298/402 241/465/402
f 62/475/403 32/463/403 240/462/403
f 249/42/168 239/41/168 276/469/168
f 244/39/404 238/38/404 275/460/404
f 280/470/405 243/34/405 234/36/405
f 288/476/406 251/646/406 235/477/406
f 80/479/407 244/601/407 161/367/407
f 253/3/408 237/2/408 274/480/408
f 53/429/409 221/151/409 271/28/409
f 208/481/410 270/140/410 254/432/410
f 345/483/411 268/238/411 269/70/411
f 339/485/412 258/68/412 268/238/412
f 114/212/178 266/232/178 267/79/178
f 260/77/178 266/232/178 114/212/178
f 58/179/413 261/81/413 265/206/413
f 377/194/414 264/69/414 85/487/414
f 341/156/415 259/72/415 263/7/415
f 256/169/416 262/78/416 71/159/416
f 11/490/417 257/139/417 270/140/417
f 115/141/178 267/79/178 261/81/178
f 262/78/418 260/77/418 57/144/418
f 342/484/419 269/70/419 259/72/419
f 264/69/420 258/68/420 339/485/420
f 221/151/421 52/622/421 255/491/421
f 72/488/422 263/7/422 255/9/422
f 362/154/423 378/4/423 254/6/423
f 290/450/424 274/480/424 293/493/424
f 295/495/425 288/476/425 291/478/425
f 280/470/426 272/452/426 298/497/426
f 281/467/427 275/460/427 304/499/427
f 286/458/192 276/469/192 306/501/192
f 276/469/428 280/470/428 297/498/428
f 379/468/429 281/467/429 303/500/429
f 275/460/194 285/459/194 316/504/194
f 285/459/430 286/458/430 305/502/430
f 313/505/431 273/456/431 287/453/431
f 319/506/432 287/453/432 288/455/432
f 272/452/433 289/451/433 318/508/433
f 289/449/434 290/450/434 294/494/434
f 247/510/435 284/60/435 283/242/435
f 240/512/436 246/511/436 283/242/436
f 245/513/437 282/628/437 278/58/437
f 237/473/438 242/472/438 279/515/438
f 247/510/439 241/514/439 278/58/439
f 240/512/440 277/55/440 279/57/440
f 236/517/441 273/13/441 380/15/441
f 13/116/442 293/173/442 292/172/442
f 13/109/443 155/16/443 294/494/443
f 157/519/444 295/495/444 8/496/444
f 9/398/445 61/31/445 297/498/445
f 77/106/446 25/108/446 300/520/446
f 26/104/447 302/530/447 301/522/447
f 78/196/212 303/500/212 304/499/212
f 30/177/212 102/46/212 305/502/212
f 308/523/448 110/538/448 338/524/448
f 81/526/449 309/186/449 39/527/449
f 312/529/450 68/531/450 311/136/450
f 60/114/451 292/172/451 302/530/451
f 61/31/212 30/177/212 306/501/212
f 68/531/452 308/523/452 337/525/452
f 381/188/453 77/106/453 299/521/453
f 296/23/209 8/496/209 365/503/209
f 314/533/454 37/543/454 366/185/454
f 25/108/455 97/220/455 315/535/455
f 97/220/222 98/105/222 301/522/222
f 29/44/212 304/499/212 316/504/212
f 101/247/212 316/504/212 305/502/212
f 109/536/456 310/528/456 39/527/456
f 110/538/457 109/536/457 343/537/457
f 154/539/458 9/398/458 298/497/458
f 155/16/459 154/400/459 318/509/459
f 12/20/460 313/505/460 319/506/460
f 156/394/461 319/506/461 295/507/461
f 312/529/462 38/135/462 320/540/462
f 314/533/463 217/572/463 321/542/463
f 233/544/464 323/573/464 322/545/464
f 232/546/465 322/545/465 324/547/465
f 230/549/466 231/570/466 326/550/466
f 209/552/467 230/549/467 325/551/467
f 228/554/235 229/567/235 329/555/235
f 212/557/235 228/554/235 328/556/235
f 384/559/468 224/568/468 332/560/468
f 223/562/235 334/569/235 333/563/235
f 216/541/469 320/540/469 335/565/469
f 213/564/235 333/563/235 329/555/235
f 224/568/235 212/557/235 330/558/235
f 206/548/262 324/547/262 334/569/262
f 231/570/470 331/592/470 211/571/470
f 217/572/471 209/552/471 327/553/471
f 210/566/472 335/565/472 323/573/472
f 48/145/473 336/580/473 337/574/473
f 307/576/474 40/575/474 337/574/474
f 55/578/475 47/216/475 340/129/475
f 56/147/476 341/582/476 336/580/476
f 117/581/477 342/585/477 341/582/477
f 317/210/478 307/576/478 338/577/478
f 47/216/479 113/207/479 344/214/479
f 116/583/480 55/578/480 339/579/480
f 117/581/481 116/583/481 345/584/481
f 317/210/482 343/215/482 344/214/482
f 346/586/483 347/589/483 352/587/483
f 346/586/484 350/591/484 355/146/484
f 354/208/485 353/217/485 349/590/485
f 349/590/486 350/591/486 346/586/486
f 356/211/487 348/209/487 346/586/487
f 55/578/488 116/583/488 349/590/488
f 117/581/489 56/147/489 355/146/489
f 40/575/490 307/576/490 351/588/490
f 116/583/491 117/581/491 350/591/491
f 317/210/492 356/211/492 351/588/492
f 331/592/493 384/559/493 372/561/493
f 383/534/494 366/185/494 309/186/494
f 382/532/495 365/503/495 303/500/495
f 12/593/496 381/188/496 364/14/496
f 376/518/497 380/15/497 282/595/497
f 291/478/498 379/468/498 365/503/498
f 86/486/499 265/206/499 378/4/499
f 257/597/500 377/194/500 368/181/500
f 291/478/501 235/477/501 375/466/501
f 225/201/9 373/27/9 363/444/9
f 1/403/147 211/446/147 372/599/147
f 180/204/4 371/12/4 370/406/4
f 181/600/120 370/402/120 357/404/120
f 244/601/502 375/647/502 374/602/502
f 374/602/503 369/648/503 160/197/503
f 331/24/504 296/23/504 382/532/504
f 11/603/505 359/193/505 377/194/505
f 160/604/506 369/192/506 376/191/506
f 314/606/321 383/625/321 381/188/321
f 37/543/507 46/607/507 367/183/507
f 46/607/508 54/598/508 368/181/508
f 86/486/4 362/154/4 361/137/4
f 84/180/37 361/137/37 360/117/37
f 82/184/4 360/117/4 358/10/4
f 75/608/9 359/25/9 373/27/9
f 380/15/509 364/14/509 299/521/509
f 74/187/4 358/10/4 371/12/4
f 265/206/510 76/205/510 363/609/510
