# Blender 4.2.1 LTS
# www.blender.org
mtllib dirt_gray.mtl
g dirt_gray_Mesh
v 0.949880 0.008028 -0.462877
v -0.778211 0.000588 -0.893450
v 0.260271 0.032933 0.978496
v -1.161308 0.019956 0.227440
v 0.878382 0.002500 -0.782813
v -0.056997 -0.005770 -1.261427
v -0.213813 -0.007627 -1.368898
v -1.057551 0.028973 0.749269
v -0.672885 0.031282 0.882937
v -0.081096 0.032683 0.964009
v 0.497917 0.029885 0.802096
v 0.397607 0.023865 0.453691
v 0.555858 0.018774 0.159060
v -1.114627 0.010706 -0.765285
v -0.981858 0.011771 -0.246256
v -0.885511 0.015456 -0.033007
v 0.056536 0.017944 0.111025
v 0.116035 0.021253 0.302486
v 0.004405 0.023315 0.421844
v -0.014309 0.013775 -0.130250
v -0.165537 0.018640 0.151280
v -0.277167 0.020702 0.270638
v -0.290177 -0.023786 -0.292535
v -0.332129 0.041230 0.125123
v -0.385377 0.020835 0.278294
v 1.079726 0.012113 -0.226478
v 0.844121 0.052548 0.129145
v 1.377645 0.014613 -0.081800
v 1.303507 0.018010 0.114816
v 0.472229 -0.023399 0.160595
v 0.997058 -0.034952 -0.508027
v -0.384386 -0.050179 -1.389268
v -0.742236 -0.044165 -1.041247
v -0.939961 -0.026996 -0.047616
v -1.195884 -0.020962 0.301610
v -0.136489 -0.007740 1.066840
v 0.260271 -0.009254 0.979224
v 0.945491 -0.040124 -0.807353
v -0.056997 -0.047957 -1.260698
v -1.057551 -0.013215 0.749998
v -0.672885 -0.010905 0.883666
v 0.004405 -0.018872 0.422573
v -0.277167 -0.021485 0.271367
v -0.385377 -0.021352 0.279022
v 0.497917 -0.012302 0.802825
v 0.397607 -0.018322 0.454420
v -1.196076 -0.039927 -0.795937
v -0.981858 -0.030416 -0.245527
v 0.056536 -0.024243 0.111754
v 0.116035 -0.020934 0.303215
v -0.014309 -0.028412 -0.129520
v -0.165537 -0.023547 0.152009
v -0.294201 -0.031248 -0.293681
v -0.328453 -0.024033 0.123909
v 0.876012 -0.026079 0.005487
v 1.079726 -0.030074 -0.225749
v 1.303507 -0.024177 0.115545
v 1.396093 -0.027513 -0.077496
v 0.762251 -0.001680 0.195625
v 0.558228 0.000636 0.279549
v -0.058963 -0.026155 -1.270936
v 0.952790 -0.018327 -0.817877
v 0.505290 0.009879 0.814504
v 0.264248 0.012979 0.993909
v 1.410501 -0.005546 -0.078205
v 1.311717 0.007322 0.131947
v -0.387869 -0.028438 -1.403067
v 0.406083 0.003767 0.460799
v 1.091039 -0.008187 -0.231036
v -1.070266 0.008885 0.756953
v -1.232529 0.000684 0.282363
v -0.682444 0.011215 0.891798
v -0.797240 -0.021615 -1.008159
v -1.208493 -0.018115 -0.805621
v -0.139480 0.014519 1.083048
v -0.955484 -0.005027 -0.048184
v -0.994387 -0.008551 -0.252091
v 1.006024 -0.013115 -0.516242
v 0.309907 -0.006901 -1.326908
v -0.333514 0.029518 0.780857
v 0.019515 0.030631 -0.011964
v -0.025469 0.019940 0.226498
v -0.137099 0.022002 0.345856
v 0.309907 -0.049089 -1.326179
v -0.333514 -0.012669 0.781586
v 0.020933 -0.026338 -0.009498
v -0.025469 -0.022247 0.227226
v -0.137099 -0.020185 0.346584
v -0.339805 0.009520 0.793736
v 0.503926 -0.025367 -1.225305
vn -0.0000 0.9999 -0.0173
vn -0.1278 0.9917 -0.0123
vn 0.1264 0.9907 0.0508
vn 0.1192 0.9884 0.0944
vn -0.2187 0.9728 -0.0761
vn -0.0302 0.9988 0.0391
vn 0.0289 0.9994 0.0171
vn 0.0408 0.9879 -0.1497
vn -0.0763 0.9915 0.1055
vn 0.0792 0.9950 -0.0607
vn -0.0000 -0.9999 0.0173
vn 0.0545 -0.9857 0.1597
vn 0.0740 -0.4184 -0.9052
vn 0.4988 -0.5380 0.6795
vn 0.8099 -0.4228 0.4066
vn 0.3324 -0.4669 -0.8195
vn 0.9485 -0.1768 -0.2630
vn 0.4138 -0.2991 -0.8598
vn -0.5769 -0.7891 0.2109
vn 0.6870 -0.4323 0.5841
vn 0.0332 -0.9886 0.1467
vn -0.2932 -0.4364 0.8507
vn -0.5844 -0.5505 -0.5963
vn -0.3739 -0.5458 -0.7499
vn -0.7230 -0.4675 0.5087
vn -0.3676 -0.8827 -0.2928
vn -0.8735 -0.3446 0.3438
vn 0.1760 -0.5639 0.8069
vn -0.8760 -0.4495 0.1749
vn 0.8596 -0.4465 -0.2485
vn 0.9120 -0.3799 -0.1544
vn 0.2838 0.9555 -0.0799
vn 0.7492 0.5119 -0.4203
vn -0.3029 0.9454 0.1205
vn -0.0341 0.6067 0.7942
vn -0.8574 0.4659 0.2184
vn -0.2215 0.9424 -0.2508
vn -0.4847 0.5762 0.6580
vn -0.0403 0.9822 -0.1834
vn -0.0930 0.9875 -0.1275
vn -0.2873 0.4981 0.8181
vn 0.0804 0.8625 0.4996
vn 0.2859 0.9484 0.1372
vn -0.2389 0.9706 0.0307
vn 0.3965 0.4059 -0.8235
vn 0.9178 0.2918 -0.2693
vn 0.5341 0.3146 -0.7847
vn 0.5010 0.8477 0.1743
vn 0.4892 0.5827 0.6489
vn -0.1573 0.4299 -0.8891
vn -0.0295 0.7921 0.6097
vn 0.2175 0.9452 -0.2436
vn 0.2573 0.4647 0.8473
vn 0.2668 -0.2289 0.9362
vn 0.5852 -0.5030 -0.6360
vn 0.0979 0.9925 0.0729
vn -0.0211 0.9997 0.0135
vn -0.0415 0.9866 -0.1578
vn 0.0108 0.9907 0.1357
vn -0.1497 0.9839 -0.0974
vn 0.0347 0.9993 0.0123
vn 0.0503 0.9986 -0.0149
vn -0.0478 0.9988 0.0043
vn -0.1257 0.9873 -0.0967
vn 0.0728 0.9952 -0.0649
vn 0.0546 -0.9857 0.1592
vn -0.0285 0.9839 -0.1766
vn 0.5019 -0.5277 0.6853
vn 0.7784 -0.4982 0.3819
vn 0.3412 -0.3742 -0.8623
vn 0.9240 -0.2791 -0.2612
vn 0.3912 -0.4021 -0.8278
vn -0.8007 -0.5414 0.2564
vn 0.1855 -0.9806 0.0640
vn -0.2265 -0.4027 0.8868
vn -0.2926 -0.4388 0.8496
vn -0.6114 -0.4916 -0.6202
vn -0.4703 0.1329 -0.8724
vn -0.7181 -0.4797 0.5043
vn -0.6993 -0.5072 -0.5037
vn -0.8564 -0.3886 0.3400
vn 0.1760 -0.5643 0.8066
vn -0.8055 -0.5645 0.1803
vn 0.8385 -0.4906 -0.2371
vn 0.8944 -0.4225 -0.1468
vn 0.2429 0.9682 -0.0596
vn 0.2689 0.9583 -0.0967
vn -0.8602 0.4856 0.1557
vn 0.0414 0.9845 0.1705
vn -0.3360 0.9350 0.1138
vn -0.5513 0.6867 -0.4739
vn -0.1417 0.9866 0.0811
vn -0.1497 0.9355 -0.3201
vn -0.1430 0.9758 -0.1651
vn -0.2879 0.4957 0.8194
vn 0.0667 0.7314 0.6787
vn 0.6751 0.4822 0.5584
vn -0.7707 0.5847 0.2534
vn 0.3771 0.4726 -0.7965
vn 0.9459 0.1821 -0.2685
vn 0.1954 -0.8600 -0.4715
vn 0.5709 0.7910 0.2199
vn 0.4857 0.5929 0.6423
vn 0.0186 -0.9768 -0.2131
vn 0.0717 0.9865 0.1471
vn 0.1723 0.9632 -0.2065
vn 0.2654 0.2809 0.9223
vn 0.2614 -0.4055 0.8759
vn 0.2813 -0.9015 -0.3290
vn 0.1180 0.9908 0.0667
vn 0.0089 0.9996 -0.0266
vt 0.061762 0.913365
vt 0.064996 0.917244
vt 0.061858 0.918695
vt 0.059518 0.911868
vt 0.055616 0.912654
vt 0.055634 0.910732
vt 0.069201 0.915209
vt 0.066737 0.917457
vt 0.068270 0.914762
vt 0.059686 0.917187
vt 0.061388 0.912768
vt 0.076405 0.908194
vt 0.072214 0.913126
vt 0.070301 0.912296
vt 0.062489 0.909855
vt 0.062359 0.912499
vt 0.061588 0.911726
vt 0.070171 0.914940
vt 0.069401 0.914167
vt 0.075346 0.906018
vt 0.069548 0.912570
vt 0.068470 0.913719
vt 0.060458 0.912320
vt 0.060658 0.911278
vt 0.068850 0.895709
vt 0.069252 0.902593
vt 0.067090 0.900156
vt 0.058789 0.907969
vt 0.059718 0.910826
vt 0.057847 0.909926
vt 0.077718 0.903133
vt 0.072702 0.902872
vt 0.078057 0.898352
vt 0.075098 0.906678
vt 0.070660 0.904686
vt 0.073121 0.917241
vt 0.069574 0.915807
vt 0.068362 0.905963
vt 0.065651 0.908780
vt 0.066624 0.906186
vt 0.063976 0.906316
vt 0.064725 0.905175
vt 0.069333 0.909811
vt 0.072322 0.905475
vt 0.073172 0.908156
vt 0.063186 0.910511
vt 0.067086 0.911304
vt 0.063200 0.912434
vt 0.066499 0.908156
vt 0.068959 0.910408
vt 0.068027 0.910854
vt 0.067264 0.905985
vt 0.076149 0.917437
vt 0.071987 0.912485
vt 0.078078 0.916213
vt 0.070053 0.913323
vt 0.069928 0.910704
vt 0.069157 0.911451
vt 0.075086 0.919612
vt 0.069289 0.913048
vt 0.068225 0.911897
vt 0.068161 0.920077
vt 0.068516 0.912769
vt 0.069929 0.920955
vt 0.066667 0.914762
vt 0.067284 0.912347
vt 0.065412 0.913244
vt 0.077625 0.913002
vt 0.074371 0.908695
vt 0.078078 0.909682
vt 0.065932 0.917474
vt 0.066364 0.919428
vt 0.063716 0.919293
vt 0.065368 0.916148
vt 0.065710 0.914756
vt 0.069141 0.908392
vt 0.069141 0.917634
vt 0.069302 0.917669
vt 0.071038 0.915129
vt 0.071194 0.919869
vt 0.070598 0.915095
vt 0.071818 0.913217
vt 0.071275 0.916093
vt 0.071275 0.912964
vt 0.078805 0.923327
vt 0.079923 0.919972
vt 0.080343 0.920017
vt 0.067078 0.913187
vt 0.066718 0.919001
vt 0.066718 0.912964
vt 0.072346 0.908450
vt 0.071956 0.912243
vt 0.071987 0.908392
vt 0.075687 0.916133
vt 0.076241 0.908392
vt 0.076241 0.916629
vt 0.065342 0.913263
vt 0.063594 0.919273
vt 0.070707 0.915551
vt 0.072110 0.910252
vt 0.071082 0.915713
vt 0.078757 0.911940
vt 0.079027 0.910857
vt 0.078410 0.903520
vt 0.078827 0.903405
vt 0.069903 0.913068
vt 0.070316 0.918554
vt 0.069907 0.918742
vt 0.067078 0.913131
vt 0.067664 0.919758
vt 0.067078 0.920016
vt 0.073574 0.921382
vt 0.073717 0.911837
vt 0.073958 0.921588
vt 0.071621 0.908542
vt 0.071192 0.908392
vt 0.073324 0.911677
vt 0.073958 0.908476
vt 0.072327 0.917050
vt 0.071968 0.917134
vt 0.072346 0.922014
vt 0.071986 0.922142
vt 0.068431 0.905465
vt 0.070315 0.905115
vt 0.066608 0.906110
vt 0.074610 0.916931
vt 0.073472 0.917552
vt 0.064810 0.916832
vt 0.063336 0.915135
vt 0.063429 0.915096
vt 0.077841 0.915643
vt 0.074692 0.916976
vt 0.072808 0.919685
vt 0.066697 0.917540
vt 0.077908 0.913050
vt 0.077230 0.913387
vt 0.078417 0.909390
vt 0.077569 0.908606
vt 0.069671 0.921136
vt 0.067492 0.919714
vt 0.067498 0.919628
vt 0.063856 0.906339
vt 0.065660 0.912368
vt 0.065964 0.910860
vt 0.066602 0.910410
vt 0.072795 0.920270
vt 0.071650 0.908592
vt 0.071621 0.912217
vt 0.066385 0.913187
vt 0.066385 0.919146
vt 0.069456 0.913563
vt 0.068140 0.916263
vt 0.069615 0.913509
vt 0.064584 0.905018
vt 0.063357 0.913183
vt 0.063447 0.913173
vt 0.067887 0.907633
vt 0.065624 0.909468
vt 0.074074 0.905389
vt 0.072313 0.910005
vt 0.071125 0.904501
vt 0.071295 0.904287
vt 0.071726 0.910135
vt 0.073810 0.920242
vt 0.069952 0.921033
vt 0.070417 0.910701
vt 0.069777 0.902794
vt 0.075574 0.909358
vt 0.067330 0.914310
vt 0.067530 0.913267
vt 0.068763 0.912847
vt 0.062503 0.902673
vt 0.061736 0.910129
vt 0.060951 0.910406
vt 0.067819 0.904056
vt 0.067225 0.907203
vt 0.065298 0.906578
vt 0.065309 0.914800
vt 0.056998 0.914391
vt 0.064402 0.910684
vt 0.070803 0.894861
vt 0.078330 0.905389
vt 0.069440 0.904481
vt 0.064248 0.908095
vt 0.064374 0.920519
vt 0.070598 0.911687
vt 0.071621 0.919833
vt 0.071692 0.916057
vt 0.078410 0.923293
vt 0.067078 0.919146
vt 0.072315 0.912215
vt 0.075809 0.908438
vt 0.070316 0.912964
vt 0.067488 0.912964
vt 0.073524 0.908392
vt 0.070218 0.904591
vt 0.064412 0.917595
vt 0.078417 0.915983
vt 0.069683 0.921234
vt 0.065594 0.912351
vt 0.067887 0.919172
vt 0.069192 0.904287
vt 0.070707 0.904417
vt 0.069005 0.902515
vt 0.067533 0.903576
vt 0.068759 0.904508
s 0
usemtl Material
f 25/1/1 4/2/1 8/3/1
f 19/4/1 3/5/1 11/6/1
f 22/7/1 80/8/1 83/9/1
f 25/1/1 9/10/1 22/11/1
f 6/12/2 23/13/2 20/14/2
f 20/15/3 24/16/3 21/17/3
f 24/18/4 22/7/4 21/19/4
f 79/20/5 20/14/5 81/21/5
f 81/21/6 21/19/6 82/22/6
f 21/17/1 83/23/1 82/24/1
f 1/25/1 17/26/1 13/27/1
f 13/28/1 18/29/1 12/30/1
f 12/30/1 19/4/1 11/6/1
f 2/31/7 23/32/7 7/33/7
f 23/32/8 15/34/8 24/35/8
f 24/18/9 16/36/9 25/37/9
f 1/38/10 27/39/10 26/40/10
f 26/40/1 29/41/1 28/42/1
f 44/43/11 35/44/11 34/45/11
f 37/46/11 42/47/11 45/48/11
f 85/49/11 43/50/11 88/51/11
f 41/52/11 44/43/11 43/50/11
f 39/53/11 53/54/11 32/55/11
f 51/56/11 54/57/11 53/54/11
f 43/50/11 54/57/11 52/58/11
f 84/59/11 51/56/11 39/53/11
f 86/60/11 52/58/11 51/56/11
f 88/51/11 52/58/11 87/61/11
f 31/62/11 49/63/11 38/64/11
f 30/65/11 50/66/11 49/63/11
f 46/67/11 42/47/11 50/66/11
f 53/54/11 33/68/11 32/55/11
f 53/54/11 48/69/11 47/70/11
f 54/57/11 34/45/11 48/69/11
f 31/62/11 55/71/11 30/65/11
f 56/72/11 57/73/11 55/71/11
f 30/65/12 59/74/12 60/75/12
f 90/76/13 39/77/13 61/78/13
f 37/79/14 63/80/14 64/81/14
f 57/82/15 65/83/15 66/84/15
f 61/85/16 32/86/16 67/87/16
f 45/88/17 68/89/17 63/90/17
f 58/91/18 69/92/18 65/93/18
f 35/94/19 70/95/19 71/96/19
f 46/67/20 60/75/20 68/97/20
f 55/71/21 66/98/21 59/74/21
f 40/99/22 72/100/22 70/101/22
f 67/87/23 33/102/23 73/103/23
f 73/103/24 47/104/24 74/105/24
f 89/106/25 36/107/25 75/108/25
f 76/109/26 35/110/26 71/111/26
f 47/112/27 77/113/27 74/114/27
f 36/115/28 64/81/28 75/116/28
f 48/117/29 76/118/29 77/113/29
f 69/92/30 31/119/30 78/120/30
f 78/120/31 38/121/31 62/122/31
f 78/123/32 5/124/32 1/38/32
f 69/125/33 1/38/33 26/40/33
f 15/126/34 76/127/34 16/36/34
f 10/128/35 64/129/35 3/130/35
f 14/131/36 77/132/36 15/126/36
f 76/127/37 4/133/37 16/36/37
f 89/134/38 10/128/38 80/8/38
f 73/135/39 14/131/39 2/136/39
f 67/137/40 2/136/40 7/138/40
f 8/139/41 72/140/41 9/141/41
f 27/39/42 66/142/42 29/41/42
f 12/143/43 60/144/43 13/145/43
f 71/146/44 8/139/44 4/133/44
f 28/147/45 69/92/45 26/148/45
f 11/149/46 68/89/46 12/150/46
f 61/151/47 7/152/47 6/153/47
f 29/41/48 65/154/48 28/42/48
f 3/130/49 63/155/49 11/156/49
f 79/157/50 61/151/50 6/153/50
f 13/145/51 59/158/51 27/39/51
f 5/124/52 90/159/52 79/20/52
f 9/160/53 89/161/53 80/162/53
f 41/163/54 89/161/54 72/100/54
f 38/64/55 90/164/55 62/165/55
f 42/47/11 87/61/11 50/66/11
f 49/63/11 87/61/11 86/60/11
f 38/166/11 86/167/11 84/168/11
f 42/47/11 85/49/11 88/51/11
f 82/22/1 19/169/1 18/170/1
f 17/171/1 82/22/1 18/170/1
f 5/172/56 81/173/56 17/174/56
f 19/175/1 80/176/1 10/177/1
f 25/1/1 16/178/1 4/2/1
f 19/4/1 10/179/1 3/5/1
f 22/7/1 9/141/1 80/8/1
f 25/1/1 8/3/1 9/10/1
f 6/12/57 7/138/57 23/13/57
f 20/15/58 23/180/58 24/16/58
f 24/18/59 25/37/59 22/7/59
f 79/20/1 6/12/1 20/14/1
f 81/21/60 20/14/60 21/19/60
f 21/17/1 22/11/1 83/23/1
f 1/25/1 5/181/1 17/26/1
f 13/28/1 17/174/1 18/29/1
f 12/30/1 18/29/1 19/4/1
f 2/31/61 14/182/61 23/32/61
f 23/32/62 14/182/62 15/34/62
f 24/18/63 15/126/63 16/36/63
f 1/38/64 13/145/64 27/39/64
f 26/40/65 27/39/65 29/41/65
f 44/43/11 40/183/11 35/44/11
f 37/46/11 36/184/11 42/47/11
f 85/49/11 41/52/11 43/50/11
f 41/52/11 40/183/11 44/43/11
f 39/53/11 51/56/11 53/54/11
f 51/56/11 52/58/11 54/57/11
f 43/50/11 44/43/11 54/57/11
f 84/59/11 86/60/11 51/56/11
f 86/60/11 87/61/11 52/58/11
f 88/51/11 43/50/11 52/58/11
f 31/62/11 30/65/11 49/63/11
f 30/65/11 46/67/11 50/66/11
f 46/67/11 45/48/11 42/47/11
f 53/54/11 47/70/11 33/68/11
f 53/54/11 54/57/11 48/69/11
f 54/57/11 44/43/11 34/45/11
f 31/62/11 56/72/11 55/71/11
f 56/72/11 58/185/11 57/73/11
f 30/65/66 55/71/66 59/74/66
f 90/76/67 84/186/67 39/77/67
f 37/79/68 45/187/68 63/80/68
f 57/82/69 58/188/69 65/83/69
f 61/85/70 39/189/70 32/86/70
f 45/88/71 46/190/71 68/89/71
f 58/91/72 56/191/72 69/92/72
f 35/94/73 40/192/73 70/95/73
f 46/67/74 30/65/74 60/75/74
f 55/71/75 57/73/75 66/98/75
f 40/99/76 41/163/76 72/100/76
f 67/87/77 32/86/77 33/102/77
f 73/103/78 33/102/78 47/104/78
f 89/106/79 85/193/79 36/107/79
f 76/109/80 34/194/80 35/110/80
f 47/112/81 48/117/81 77/113/81
f 36/115/82 37/79/82 64/81/82
f 48/117/83 34/195/83 76/118/83
f 69/92/84 56/191/84 31/119/84
f 78/120/85 31/119/85 38/121/85
f 78/123/86 62/196/86 5/124/86
f 69/125/87 78/123/87 1/38/87
f 15/126/88 77/132/88 76/127/88
f 10/128/89 75/197/89 64/129/89
f 14/131/90 74/198/90 77/132/90
f 76/127/91 71/146/91 4/133/91
f 89/134/92 75/197/92 10/128/92
f 73/135/93 74/198/93 14/131/93
f 67/137/94 73/135/94 2/136/94
f 8/139/95 70/199/95 72/140/95
f 27/39/96 59/158/96 66/142/96
f 12/143/97 68/200/97 60/144/97
f 71/146/98 70/199/98 8/139/98
f 28/147/99 65/93/99 69/92/99
f 11/149/100 63/90/100 68/89/100
f 61/151/101 67/201/101 7/152/101
f 29/41/102 66/142/102 65/154/102
f 3/130/103 64/129/103 63/155/103
f 79/157/104 90/202/104 61/151/104
f 13/145/105 60/144/105 59/158/105
f 5/124/106 62/196/106 90/159/106
f 9/160/107 72/100/107 89/161/107
f 41/163/108 85/203/108 89/161/108
f 38/64/109 84/59/109 90/164/109
f 42/47/11 88/51/11 87/61/11
f 49/63/11 50/66/11 87/61/11
f 38/166/11 49/204/11 86/167/11
f 42/47/11 36/184/11 85/49/11
f 82/22/1 83/9/1 19/169/1
f 17/171/110 81/21/110 82/22/110
f 5/172/111 79/205/111 81/173/111
f 19/175/1 83/206/1 80/176/1
