# Blender 4.2.1 LTS
# www.blender.org
mtllib dirt_cluster_brown.mtl
g dirt_cluster_brown_Mesh
v -0.178808 0.023902 -0.293722
v -0.327073 0.024944 0.223613
v 0.265318 0.023902 -0.050961
v 0.101793 0.023902 0.231534
v -0.251528 0.023902 -0.138559
v -0.499555 0.023902 -0.004873
v -0.355687 0.023902 0.067146
v 0.218183 0.023902 0.235515
v 0.167199 0.023902 0.131997
v 0.282639 0.023902 0.022021
v 0.227494 0.023902 -0.131712
v 0.171598 0.023902 -0.198021
v 0.021561 0.023902 -0.183650
v -0.182549 0.028378 0.425357
v -0.087962 0.023902 0.359827
v 0.032801 0.023902 0.369433
v -0.017905 0.107782 -0.001314
v 0.085895 0.057579 -0.030656
v 0.131887 0.057579 0.005714
v -0.102079 0.107782 0.031174
v 0.003078 0.107782 0.076889
v 0.086171 0.057579 0.110870
v -0.141967 0.084482 0.142894
v -0.000500 0.127397 0.154118
v 0.092119 0.023902 0.149331
v -0.110073 0.023902 -0.307334
v 0.022457 0.043324 -0.297965
v -0.057809 0.023902 -0.379833
v -0.046464 0.023902 -0.385643
v 0.056182 -0.000000 -0.179973
v -0.196613 -0.000000 -0.309228
v -0.375564 -0.000000 0.155719
v -0.363219 -0.000000 0.237216
v 0.028931 -0.000000 0.389356
v 0.110546 -0.000000 0.278589
v 0.320792 -0.000000 0.038797
v 0.265318 -0.000000 -0.050961
v -0.400458 -0.000000 -0.254471
v -0.499555 -0.000000 -0.004873
v 0.218183 -0.000000 0.235515
v 0.167199 -0.000000 0.131997
v 0.131887 -0.000000 0.005714
v 0.086171 -0.000000 0.110870
v 0.092119 -0.000000 0.149331
v 0.227494 -0.000000 -0.131712
v 0.171598 -0.000000 -0.198021
v -0.191402 -0.000000 0.455412
v -0.087962 -0.000000 0.359827
v 0.019197 -0.000000 -0.003703
v 0.085895 -0.000000 -0.030656
v -0.064977 -0.000000 0.028785
v 0.040180 -0.000000 0.074500
v -0.115374 -0.000000 0.133725
v 0.034964 -0.000000 0.133581
v -0.023180 -0.000000 -0.305659
v -0.110073 -0.000000 -0.307334
v -0.046464 -0.000000 -0.385643
v -0.057078 -0.000000 -0.386535
v 0.048316 0.011958 -0.270638
v 0.087425 0.012449 -0.226611
v -0.503022 0.012449 -0.003878
v -0.404302 0.012449 -0.256779
v 0.231588 0.012449 -0.134705
v 0.270587 0.012449 -0.052830
v -0.057623 0.012449 -0.391676
v -0.040650 0.017680 -0.389081
v -0.380259 0.012449 0.157363
v 0.173763 0.012449 -0.201252
v -0.112163 0.012449 -0.311233
v 0.221183 0.012449 0.239843
v 0.104886 0.012449 0.292250
v 0.170527 0.012449 0.135161
v -0.303096 0.012449 0.240904
v -0.194361 0.012449 0.460128
v 0.326812 0.012449 0.039374
v 0.029324 0.012449 0.394911
v -0.089802 0.012449 0.364490
v -0.199680 0.012449 -0.312201
v -0.382486 0.023902 -0.076532
v 0.248436 0.023902 0.102742
v -0.060694 0.116171 0.015564
v 0.062920 0.057579 0.022190
v 0.108912 0.057579 0.058560
v -0.382486 -0.000000 -0.076532
v 0.248436 -0.000000 0.102742
v -0.023104 -0.000000 0.012624
v 0.062920 -0.000000 0.022190
v 0.108912 -0.000000 0.058560
v 0.253103 0.012449 0.104619
v -0.391890 0.012449 -0.156067
v 0.251152 0.023902 -0.013557
v -0.230958 0.023902 -0.288152
v 0.020379 0.040740 -0.093676
v 0.108752 0.040740 -0.083234
v 0.179690 0.040740 -0.062999
v 0.270228 -0.000000 -0.005170
v -0.245374 -0.000000 -0.307526
v 0.021763 -0.000000 -0.078738
v 0.108752 -0.000000 -0.083234
v 0.179690 -0.000000 -0.062999
v -0.248830 0.012449 -0.310167
v 0.275873 0.012449 -0.005816
v -0.048887 0.038547 -0.216317
v -0.282751 0.026661 0.315025
v -0.093026 0.067722 -0.080072
v -0.271047 0.093359 0.043595
v -0.276700 0.037442 0.149586
v -0.053774 0.033613 -0.296588
v -0.052137 0.023902 -0.382738
v -0.074075 -0.000000 -0.204365
v -0.305251 -0.000000 0.336854
v -0.125402 -0.000000 -0.127628
v -0.269835 -0.000000 0.004054
v -0.278110 -0.000000 0.181129
v -0.076593 -0.000000 -0.300435
v -0.051771 -0.000000 -0.386089
v -0.299930 0.012449 0.348548
v -0.049136 0.015065 -0.390378
v -0.202795 -0.000000 -0.031954
v -0.217313 0.114584 -0.028831
v -0.099739 -0.000000 -0.165997
v -0.075375 0.065722 -0.178552
vn -0.0000 1.0000 -0.0000
vn 0.2635 0.9632 -0.0528
vn 0.1201 0.9351 0.3335
vn 0.1474 0.7553 0.6386
vn -0.0706 0.9812 0.1794
vn -0.0770 0.9812 0.1771
vn 0.5614 0.8079 -0.1792
vn -0.0887 0.9563 0.2787
vn 0.4197 0.8493 -0.3203
vn 0.2339 0.9720 0.0222
vn 0.0344 0.9560 -0.2912
vn 0.0571 0.9781 -0.2000
vn -0.3270 0.9437 0.0495
vn -0.2981 0.8976 0.3249
vn 0.7349 0.6486 0.1981
vn -0.1271 0.9905 -0.0531
vn -0.0578 0.9919 -0.1129
vn -0.0000 -1.0000 -0.0000
vn 0.1739 -0.9742 -0.1436
vn -0.1798 -0.9749 -0.1313
vn 0.8382 -0.3716 -0.3992
vn 0.2349 -0.3040 -0.9233
vn -0.7681 -0.2607 0.5848
vn 0.7227 -0.2887 -0.6280
vn -0.7995 -0.2589 -0.5420
vn 0.3187 -0.6312 0.7072
vn 0.2701 -0.2856 -0.9195
vn 0.2796 -0.9257 -0.2548
vn 0.8982 -0.0653 -0.4347
vn -0.2103 0.9581 0.1943
vn -0.6666 -0.3973 0.6307
vn 0.6246 -0.3348 0.7056
vn 0.7735 -0.2785 0.5693
vn 0.6702 -0.1183 0.7327
vn 0.9105 -0.4007 -0.1024
vn -0.2278 -0.3908 0.8919
vn 0.0108 -0.2298 -0.9732
vn -0.3131 -0.2658 -0.9118
vn -0.0676 0.9977 -0.0093
vn -0.1822 0.3465 -0.9202
vn -0.0323 0.9132 0.4061
vn 0.3787 0.9143 0.1434
vn 0.5612 0.2332 0.7941
vn 0.3196 0.9340 0.1599
vn 0.8430 0.4021 0.3572
vn -0.2865 0.9260 0.2458
vn -0.5156 -0.8510 0.0999
vn 0.8886 0.1372 -0.4377
vn 0.4606 0.7185 -0.5212
vn -0.0286 0.9541 -0.2981
vn -0.0064 0.9826 0.1857
vn -0.7663 0.3279 -0.5524
vn 0.6994 0.4041 -0.5896
vn -0.4378 0.2085 0.8746
vn -0.3366 0.6742 -0.6573
vn 0.8145 0.4370 -0.3815
vn -0.5202 0.0836 -0.8499
vn 0.7103 0.6930 0.1233
vn -0.0639 0.9888 -0.1348
vn 0.3189 0.3374 0.8857
vn 0.3348 -0.2620 0.9051
vn -0.9548 -0.2730 0.1177
vn 0.4726 0.8570 0.2054
vn -0.0030 0.8925 -0.4511
vn 0.2081 0.9741 0.0882
vn 0.4869 0.7597 -0.4309
vn -0.0516 0.8739 -0.4833
vn -0.0403 -0.2181 -0.9751
vn 0.6380 -0.2752 -0.7192
vn 0.1045 0.9906 -0.0881
vn -0.0147 0.9881 -0.1530
vn 0.3511 0.8592 -0.3720
vn 0.2050 0.9740 -0.0960
vn 0.1906 0.8553 -0.4818
vn 0.0247 0.7668 -0.6414
vn -0.3883 0.5237 -0.7582
vn -0.3994 0.8996 0.1767
vn -0.9282 0.3710 0.0273
vn 0.2228 -0.2562 -0.9406
vn -0.1490 0.9830 -0.1074
vn -0.0278 0.9897 -0.1405
vn -0.1991 0.9795 0.0299
vn -0.2379 0.9707 -0.0327
vn -0.4610 0.8835 -0.0831
vn -0.3413 0.6471 0.6818
vn 0.2346 0.9497 -0.2076
vn 0.3458 0.9262 0.1503
vn -0.2771 0.8558 0.4367
vn -0.2630 0.9321 -0.2489
vn 0.6873 0.5958 0.4154
vn -0.0655 0.9696 0.2356
vn -0.1047 0.9649 0.2409
vn 0.5545 0.8194 -0.1454
vn 0.1313 0.8274 -0.5461
vn 0.2616 0.8294 -0.4936
vn 0.1803 0.9568 -0.2280
vn -0.1968 0.9667 0.1637
vn 0.1963 0.9560 0.2181
vn -0.0348 0.8986 0.4373
vn 0.1258 0.9779 0.1671
vn -0.1276 0.9848 -0.1179
vn 0.2328 -0.9614 -0.1470
vn -0.5205 -0.0770 -0.8504
vn 0.8268 -0.4080 -0.3873
vn 0.0775 -0.3777 -0.9227
vn -0.7401 -0.3546 0.5714
vn 0.7083 -0.3765 -0.5971
vn -0.7930 -0.2994 -0.5306
vn 0.3435 -0.3812 0.8583
vn -0.0446 -0.9574 -0.2854
vn 0.9005 -0.3471 -0.2621
vn 0.8899 -0.1264 -0.4383
vn -0.9203 -0.3655 0.1394
vn -0.6824 -0.3239 0.6553
vn 0.6228 -0.3398 0.7047
vn 0.7742 -0.2740 0.5705
vn 0.6685 -0.1722 0.7235
vn 0.9046 -0.4152 -0.0970
vn -0.2275 -0.3709 0.9004
vn 0.0209 -0.2956 -0.9551
vn -0.3108 -0.2790 -0.9086
vn -0.1283 0.9186 -0.3737
vn 0.0059 0.8470 -0.5316
vn -0.2270 0.3983 0.8887
vn 0.8975 0.4293 -0.1009
vn 0.4517 0.7430 0.4938
vn 0.5488 0.7319 0.4039
vn 0.1733 0.9652 0.1958
vn -0.3199 0.8978 0.3026
vn -0.1051 0.9897 0.0970
vn 0.8979 0.0710 -0.4345
vn 0.7948 0.1411 -0.5902
vn 0.2681 0.3082 -0.9128
vn 0.3744 0.4120 0.8307
vn -0.7201 0.4931 -0.4882
vn 0.7173 0.3114 -0.6233
vn -0.1214 0.9883 0.0924
vn -0.0789 0.6365 -0.7672
vn 0.8279 0.3989 -0.3943
vn -0.1661 0.9786 -0.1213
vn 0.1043 0.9891 -0.1037
vn -0.0826 0.9965 0.0102
vn 0.3327 0.2830 0.8996
vn 0.3218 -0.3132 0.8935
vn -0.9890 -0.1089 0.0999
vn 0.3507 0.7958 0.4937
vn 0.1279 0.8666 -0.4823
vn 0.2067 0.9743 0.0899
vn 0.3810 0.8188 -0.4295
vn -0.0186 0.8931 -0.4495
vn -0.0338 -0.2401 -0.9702
vn 0.6219 -0.3191 -0.7152
vn 0.0217 0.9828 -0.1836
vn 0.3834 0.9087 -0.1650
vn 0.1831 0.9806 0.0693
vn -0.0336 0.9487 -0.3143
vn -0.2667 0.7821 -0.5632
vn -0.0119 0.4751 -0.8799
vn -0.4699 -0.8826 0.0138
vn -0.2084 0.9705 0.1212
vn 0.0802 -0.2859 -0.9549
vn -0.1603 0.9858 -0.0508
vn -0.1587 0.9856 0.0584
vn -0.2441 0.9677 -0.0634
vn -0.2072 0.9179 -0.3385
vn -0.5232 0.7649 0.3757
vt 0.287487 0.055430
vt 0.285818 0.051474
vt 0.288723 0.051550
vt 0.293120 0.049252
vt 0.296932 0.046991
vt 0.295252 0.049913
vt 0.291282 0.058772
vt 0.291302 0.056272
vt 0.293490 0.055554
vt 0.289440 0.057139
vt 0.289946 0.058045
vt 0.282995 0.051725
vt 0.284135 0.046498
vt 0.286895 0.047845
vt 0.285844 0.050648
vt 0.290064 0.049310
vt 0.288604 0.051996
vt 0.288504 0.058361
vt 0.289576 0.059564
vt 0.283523 0.060779
vt 0.286407 0.058099
vt 0.287537 0.057746
vt 0.289246 0.061896
vt 0.290912 0.060291
vt 0.289203 0.056140
vt 0.288237 0.053895
vt 0.289573 0.054621
vt 0.289825 0.055941
vt 0.292407 0.053170
vt 0.291169 0.056507
vt 0.289966 0.061715
vt 0.290309 0.059316
vt 0.292628 0.060901
vt 0.290919 0.056750
vt 0.290923 0.055356
vt 0.293055 0.056016
vt 0.281941 0.047903
vt 0.284062 0.052938
vt 0.281694 0.055043
vt 0.281012 0.050059
vt 0.284841 0.052502
vt 0.286885 0.055572
vt 0.290072 0.065619
vt 0.292753 0.066042
vt 0.292718 0.068049
vt 0.296984 0.071512
vt 0.296818 0.071544
vt 0.286403 0.056906
vt 0.287628 0.052279
vt 0.289349 0.054962
vt 0.279137 0.056579
vt 0.283232 0.059299
vt 0.281106 0.059976
vt 0.284575 0.058554
vt 0.284535 0.056054
vt 0.285905 0.057817
vt 0.291696 0.065857
vt 0.290536 0.060606
vt 0.292851 0.062267
vt 0.287768 0.062007
vt 0.287356 0.058168
vt 0.286287 0.059333
vt 0.289695 0.065530
vt 0.286620 0.061669
vt 0.284957 0.060070
vt 0.284189 0.062873
vt 0.286507 0.066297
vt 0.285341 0.066692
vt 0.283614 0.060815
vt 0.285461 0.061328
vt 0.282278 0.061556
vt 0.295237 0.058147
vt 0.291157 0.055650
vt 0.297460 0.054726
vt 0.284176 0.067087
vt 0.282075 0.068470
vt 0.282917 0.064419
vt 0.279082 0.071435
vt 0.282670 0.069160
vt 0.281120 0.066568
vt 0.281501 0.064492
vt 0.288501 0.056029
vt 0.289051 0.053212
vt 0.289174 0.058004
vt 0.294049 0.060876
vt 0.293581 0.058518
vt 0.293889 0.058465
vt 0.288885 0.069815
vt 0.289277 0.069808
vt 0.289265 0.069923
vt 0.292074 0.057381
vt 0.291096 0.062974
vt 0.291747 0.057318
vt 0.290884 0.063653
vt 0.290568 0.061953
vt 0.290884 0.061889
vt 0.288929 0.069734
vt 0.288714 0.065417
vt 0.287747 0.064348
vt 0.288322 0.061910
vt 0.287916 0.064641
vt 0.280941 0.062297
vt 0.280831 0.062330
vt 0.278781 0.071317
vt 0.289394 0.064967
vt 0.289717 0.062004
vt 0.289720 0.065102
vt 0.292074 0.065926
vt 0.291686 0.066508
vt 0.289066 0.065187
vt 0.289394 0.068302
vt 0.289066 0.068345
vt 0.287524 0.064282
vt 0.287440 0.067806
vt 0.287206 0.067920
vt 0.287206 0.063246
vt 0.286414 0.066294
vt 0.286848 0.063257
vt 0.292708 0.065786
vt 0.293207 0.059679
vt 0.292957 0.065886
vt 0.294064 0.062520
vt 0.293740 0.060889
vt 0.286414 0.061889
vt 0.288400 0.063258
vt 0.288749 0.063246
vt 0.289103 0.062364
vt 0.289108 0.061522
vt 0.289457 0.061482
vt 0.289444 0.070099
vt 0.288357 0.071622
vt 0.288256 0.070837
vt 0.292696 0.070176
vt 0.290631 0.069360
vt 0.292682 0.070056
vt 0.293492 0.059539
vt 0.292708 0.057795
vt 0.293212 0.057318
vt 0.294370 0.060844
vt 0.294403 0.062046
vt 0.293581 0.065076
vt 0.287829 0.052331
vt 0.287771 0.053183
vt 0.293551 0.055442
vt 0.296522 0.055980
vt 0.280526 0.058118
vt 0.279043 0.055529
vt 0.281452 0.058157
vt 0.281792 0.065482
vt 0.282836 0.061239
vt 0.283862 0.060784
vt 0.290025 0.064962
vt 0.290025 0.061889
vt 0.285135 0.066129
vt 0.284261 0.061889
vt 0.284449 0.061913
vt 0.294948 0.062486
vt 0.294387 0.064690
vt 0.293420 0.065297
vt 0.288653 0.061889
vt 0.288653 0.064762
vt 0.289457 0.069544
vt 0.288943 0.065354
vt 0.294437 0.057352
vt 0.294211 0.058473
vt 0.280221 0.070049
vt 0.280316 0.070009
vt 0.296843 0.071826
vt 0.296651 0.071576
vt 0.283170 0.069671
vt 0.294785 0.066763
vt 0.294706 0.067751
vt 0.284991 0.070698
vt 0.287520 0.061953
vt 0.287221 0.064172
vt 0.287206 0.061889
vt 0.287747 0.064216
vt 0.282343 0.055353
vt 0.292632 0.059506
vt 0.292262 0.061025
vt 0.290418 0.061552
vt 0.287384 0.064485
vt 0.287293 0.060187
vt 0.288465 0.059843
vt 0.290679 0.057797
vt 0.291537 0.053845
vt 0.294569 0.054271
vt 0.294437 0.063249
vt 0.290489 0.070095
vt 0.288754 0.062390
vt 0.293764 0.064109
vt 0.294079 0.064164
vt 0.278981 0.060653
vt 0.279492 0.058331
vt 0.296896 0.060827
vt 0.289757 0.059437
vt 0.291286 0.056627
vt 0.293908 0.055043
vt 0.292514 0.057075
vt 0.296854 0.048255
vt 0.297384 0.050573
vt 0.291119 0.059106
vt 0.285435 0.069755
vt 0.286494 0.070511
vt 0.286303 0.069128
vt 0.285232 0.064929
vt 0.292770 0.069391
vt 0.287552 0.071267
vt 0.297001 0.071659
vt 0.289066 0.062028
vt 0.289283 0.065096
vt 0.288842 0.069897
vt 0.289254 0.070037
vt 0.279187 0.071530
vt 0.283266 0.069850
vt 0.293015 0.061568
vt 0.295166 0.063928
vt 0.295625 0.069707
vt 0.290729 0.068347
vt 0.288678 0.067651
vt 0.284351 0.050530
vt 0.282281 0.055228
vt 0.287035 0.056432
vt 0.289460 0.052357
vt 0.288223 0.055694
vt 0.281461 0.065521
vt 0.282507 0.061979
vt 0.284704 0.055876
vt 0.280804 0.059756
vt 0.284932 0.053863
vt 0.297010 0.045726
vt 0.290676 0.053259
vt 0.282353 0.048788
vt 0.288992 0.048107
vt 0.288116 0.062250
vt 0.287867 0.055413
vt 0.290906 0.051298
vt 0.290553 0.056875
vt 0.279531 0.045276
vt 0.275381 0.049670
vt 0.284674 0.055919
vt 0.291466 0.063588
vt 0.285137 0.053036
vt 0.278781 0.054828
vt 0.278978 0.071339
vt 0.288732 0.053313
vt 0.291439 0.063054
vt 0.290571 0.063683
vt 0.288365 0.065394
vt 0.288128 0.061944
vt 0.289394 0.061894
vt 0.286898 0.066316
vt 0.292969 0.059606
vt 0.293752 0.062499
vt 0.286766 0.061941
vt 0.289423 0.070858
vt 0.286388 0.055098
vt 0.297160 0.054895
vt 0.278215 0.054998
vt 0.280598 0.064273
vt 0.284261 0.067071
vt 0.295040 0.062522
vt 0.294119 0.057318
vt 0.287732 0.061933
vt 0.289329 0.057063
vt 0.294764 0.060166
vt 0.288257 0.057565
vt 0.289932 0.059845
vt 0.281217 0.067962
vt 0.297160 0.071491
vt 0.289172 0.061889
vt 0.288116 0.051790
vt 0.278607 0.065859
s 0
usemtl Material
f 25/1/1 4/2/1 8/3/1
f 19/4/2 91/5/2 95/6/2
f 83/7/3 9/8/3 80/9/3
f 25/10/4 9/8/4 22/11/4
f 106/12/5 23/13/5 20/14/5
f 23/15/6 21/16/6 20/17/6
f 24/18/7 22/11/7 21/19/7
f 120/20/8 20/21/8 81/22/8
f 81/23/9 21/19/9 82/24/9
f 82/25/1 22/26/1 83/27/1
f 105/28/10 93/29/10 122/30/10
f 93/31/11 18/32/11 94/33/11
f 94/34/12 19/35/12 95/36/12
f 104/37/13 23/15/13 107/38/13
f 23/39/14 15/40/14 24/41/14
f 24/18/15 16/42/15 25/10/15
f 103/43/16 27/44/16 108/45/16
f 108/45/17 29/46/17 109/47/17
f 44/48/18 35/49/18 34/50/18
f 96/51/18 42/52/18 100/53/18
f 88/54/18 41/55/18 43/56/18
f 41/55/18 44/48/18 43/56/18
f 113/57/18 53/58/18 114/59/18
f 51/60/18 54/61/18 53/58/18
f 43/56/18 54/61/18 52/62/18
f 119/63/18 51/60/18 113/57/18
f 86/64/18 52/62/18 51/60/18
f 88/54/18 52/62/18 87/65/18
f 98/66/18 112/67/18 121/68/18
f 98/66/18 50/69/18 49/70/18
f 99/71/18 42/52/18 50/69/18
f 53/58/18 111/72/18 114/59/18
f 53/58/18 48/73/18 47/74/18
f 54/61/18 34/50/18 48/73/18
f 110/75/18 55/76/18 30/77/18
f 116/78/18 55/76/18 115/79/18
f 30/77/19 59/80/19 60/81/19
f 84/82/20 61/83/20 90/84/20
f 64/85/21 45/86/21 63/87/21
f 116/88/22 65/89/22 118/90/22
f 39/91/23 67/92/23 61/93/23
f 63/94/24 46/95/24 68/96/24
f 58/97/25 69/98/25 65/89/25
f 35/99/26 70/100/26 71/101/26
f 46/102/27 60/81/27 68/103/27
f 55/76/28 66/104/28 59/80/28
f 40/105/29 72/106/29 70/107/29
f 67/92/30 33/108/30 73/109/30
f 117/110/31 47/111/31 74/112/31
f 89/113/32 36/114/32 75/115/32
f 34/116/33 71/117/33 76/118/33
f 47/119/34 77/120/34 74/121/34
f 102/122/35 37/123/35 64/85/35
f 77/124/36 34/116/36 76/118/36
f 69/98/37 31/125/37 78/126/37
f 101/127/38 38/128/38 62/129/38
f 92/130/39 62/131/39 5/132/39
f 69/133/40 1/134/40 26/135/40
f 15/136/41 76/137/41 16/138/41
f 102/122/42 3/139/42 91/140/42
f 14/141/43 77/120/43 15/136/43
f 16/42/44 71/142/44 4/143/44
f 89/144/45 10/145/45 80/9/45
f 117/146/46 14/147/46 104/148/46
f 7/149/47 73/150/47 2/151/47
f 8/152/48 72/106/48 9/153/48
f 27/154/49 66/155/49 29/156/49
f 12/157/50 60/158/50 13/159/50
f 71/101/51 8/160/51 4/161/51
f 28/162/52 69/98/52 26/163/52
f 63/87/53 12/164/53 11/165/53
f 61/166/54 7/149/54 6/167/54
f 109/47/55 65/168/55 28/169/55
f 64/85/56 11/165/56 3/139/56
f 79/170/57 61/166/57 6/167/57
f 13/159/58 59/171/58 27/172/58
f 5/132/59 90/173/59 79/170/59
f 72/174/60 80/175/60 9/176/60
f 72/174/61 85/177/61 89/113/61
f 38/128/62 90/84/62 62/129/62
f 42/52/18 87/65/18 50/69/18
f 49/70/18 87/65/18 86/64/18
f 112/67/18 86/64/18 119/63/18
f 42/52/18 85/178/18 88/54/18
f 82/24/1 19/179/1 18/180/1
f 17/181/63 82/24/63 18/180/63
f 105/182/64 81/183/64 17/184/64
f 19/185/65 80/186/65 10/187/65
f 10/188/66 102/122/66 91/140/66
f 78/189/67 92/130/67 1/134/67
f 78/126/68 97/190/68 101/127/68
f 36/191/69 102/122/69 75/192/69
f 45/193/18 99/71/18 46/102/18
f 30/77/18 99/71/18 98/66/18
f 110/75/18 98/66/18 121/68/18
f 37/194/18 100/53/18 45/193/18
f 94/33/70 11/195/70 12/157/70
f 13/196/71 94/34/71 12/197/71
f 122/30/72 13/198/72 103/199/72
f 95/6/73 3/200/73 11/201/73
f 1/202/74 122/30/74 103/199/74
f 31/203/18 121/68/18 97/204/18
f 5/205/75 120/206/75 105/182/75
f 112/67/18 84/207/18 38/208/18
f 29/46/76 118/209/76 109/47/76
f 2/151/77 117/146/77 104/148/77
f 73/210/78 111/211/78 117/110/78
f 57/212/79 118/90/79 66/213/79
f 58/214/18 115/79/18 56/215/18
f 56/215/18 110/75/18 31/203/18
f 114/59/18 33/216/18 32/217/18
f 97/204/18 112/67/18 38/208/18
f 84/207/18 113/57/18 39/218/18
f 113/57/18 32/217/18 39/218/18
f 108/45/80 28/169/80 26/135/80
f 103/43/81 26/219/81 1/220/81
f 2/221/82 107/38/82 7/222/82
f 5/223/83 122/224/83 92/225/83
f 79/226/84 106/227/84 120/20/84
f 7/222/85 106/228/85 6/229/85
f 25/1/1 16/230/1 4/2/1
f 19/4/86 10/231/86 91/5/86
f 83/7/87 22/11/87 9/8/87
f 25/10/1 8/232/1 9/8/1
f 106/12/88 107/233/88 23/13/88
f 23/15/89 24/234/89 21/16/89
f 24/18/90 25/10/90 22/11/90
f 120/20/91 106/227/91 20/21/91
f 81/23/92 20/235/92 21/19/92
f 82/25/93 21/236/93 22/26/93
f 105/28/94 17/237/94 93/29/94
f 93/31/95 17/184/95 18/32/95
f 94/34/96 18/238/96 19/35/96
f 104/37/97 14/239/97 23/15/97
f 23/39/98 14/240/98 15/40/98
f 24/18/99 15/241/99 16/42/99
f 103/43/100 13/242/100 27/44/100
f 108/45/101 27/172/101 29/46/101
f 44/48/18 40/243/18 35/49/18
f 96/51/18 36/244/18 42/52/18
f 88/54/18 85/178/18 41/55/18
f 41/55/18 40/243/18 44/48/18
f 113/57/18 51/60/18 53/58/18
f 51/60/18 52/62/18 54/61/18
f 43/56/18 44/48/18 54/61/18
f 119/63/18 86/64/18 51/60/18
f 86/64/18 87/65/18 52/62/18
f 88/54/18 43/56/18 52/62/18
f 98/66/18 49/70/18 112/67/18
f 98/66/18 99/71/18 50/69/18
f 99/71/18 100/53/18 42/52/18
f 53/58/18 47/74/18 111/72/18
f 53/58/18 54/61/18 48/73/18
f 54/61/18 44/48/18 34/50/18
f 110/75/18 115/79/18 55/76/18
f 116/78/18 57/245/18 55/76/18
f 30/77/102 55/76/102 59/80/102
f 84/82/103 39/246/103 61/83/103
f 64/85/104 37/123/104 45/86/104
f 116/88/105 58/97/105 65/89/105
f 39/91/106 32/247/106 67/92/106
f 63/94/107 45/248/107 46/95/107
f 58/97/108 56/249/108 69/98/108
f 35/99/109 40/250/109 70/100/109
f 46/102/110 30/77/110 60/81/110
f 55/76/111 57/245/111 66/104/111
f 40/105/112 41/251/112 72/106/112
f 67/92/113 32/247/113 33/108/113
f 117/110/114 111/211/114 47/111/114
f 89/113/115 85/177/115 36/114/115
f 34/116/116 35/252/116 71/117/116
f 47/119/117 48/253/117 77/120/117
f 102/122/118 96/254/118 37/123/118
f 77/124/119 48/255/119 34/116/119
f 69/98/120 56/249/120 31/125/120
f 101/127/121 97/190/121 38/128/121
f 92/130/122 101/256/122 62/131/122
f 69/133/123 78/189/123 1/134/123
f 15/136/124 77/120/124 76/137/124
f 102/122/125 64/85/125 3/139/125
f 14/141/126 74/121/126 77/120/126
f 16/42/127 76/257/127 71/142/127
f 89/144/128 75/258/128 10/145/128
f 117/146/129 74/259/129 14/147/129
f 7/149/130 67/260/130 73/150/130
f 8/152/131 70/107/131 72/106/131
f 27/154/132 59/261/132 66/155/132
f 12/157/133 68/262/133 60/158/133
f 71/101/134 70/100/134 8/160/134
f 28/162/135 65/89/135 69/98/135
f 63/87/136 68/263/136 12/164/136
f 61/166/137 67/260/137 7/149/137
f 109/47/138 118/209/138 65/168/138
f 64/85/139 63/87/139 11/165/139
f 79/170/140 90/173/140 61/166/140
f 13/159/141 60/158/141 59/171/141
f 5/132/142 62/131/142 90/173/142
f 72/174/143 89/113/143 80/175/143
f 72/174/144 41/264/144 85/177/144
f 38/128/145 84/82/145 90/84/145
f 42/52/18 88/54/18 87/65/18
f 49/70/18 50/69/18 87/65/18
f 112/67/18 49/70/18 86/64/18
f 42/52/18 36/244/18 85/178/18
f 82/24/1 83/7/1 19/179/1
f 17/181/146 81/23/146 82/24/146
f 105/182/147 120/206/147 81/183/147
f 19/185/148 83/265/148 80/186/148
f 10/188/149 75/192/149 102/122/149
f 78/189/150 101/256/150 92/130/150
f 78/126/151 31/125/151 97/190/151
f 36/191/152 96/254/152 102/122/152
f 45/193/18 100/53/18 99/71/18
f 30/77/18 46/102/18 99/71/18
f 110/75/18 30/77/18 98/66/18
f 37/194/18 96/51/18 100/53/18
f 94/33/12 95/266/12 11/195/12
f 13/196/153 93/267/153 94/34/153
f 122/30/154 93/29/154 13/198/154
f 95/6/155 91/5/155 3/200/155
f 1/202/156 92/268/156 122/30/156
f 31/203/18 110/75/18 121/68/18
f 5/205/157 79/269/157 120/206/157
f 112/67/18 119/63/18 84/207/18
f 29/46/158 66/270/158 118/209/158
f 2/151/159 73/150/159 117/146/159
f 73/210/160 33/271/160 111/211/160
f 57/212/161 116/88/161 118/90/161
f 58/214/18 116/78/18 115/79/18
f 56/215/18 115/79/18 110/75/18
f 114/59/18 111/72/18 33/216/18
f 97/204/18 121/68/18 112/67/18
f 84/207/18 119/63/18 113/57/18
f 113/57/18 114/59/18 32/217/18
f 108/45/17 109/47/17 28/169/17
f 103/43/162 108/45/162 26/219/162
f 2/221/163 104/37/163 107/38/163
f 5/223/164 105/272/164 122/224/164
f 79/226/165 6/273/165 106/227/165
f 7/222/166 107/38/166 106/228/166
