# Blender 4.2.1 LTS
# www.blender.org
mtllib dirt_cluster_brown_2.mtl
g dirt_cluster_brown_2_Mesh
v 0.058463 0.023902 0.338861
v 0.386335 0.024944 -0.087891
v -0.265496 0.023902 -0.050023
v -0.009663 0.023902 -0.252738
v 0.183078 0.023902 0.221241
v 0.462868 0.023902 0.187968
v 0.355495 0.023902 0.068152
v -0.116461 0.023902 -0.299179
v -0.107050 0.023902 -0.184171
v -0.254808 0.023902 -0.124268
v -0.259967 0.023902 0.038975
v -0.232323 0.023902 0.121177
v -0.087490 0.023902 0.162904
v 0.325987 0.028378 -0.328611
v 0.213946 0.023902 -0.302391
v 0.105146 0.023902 -0.355670
v 0.016171 0.107782 0.007797
v -0.091151 0.057579 -0.003026
v -0.120575 0.057579 -0.053743
v 0.106394 0.107782 0.008487
v 0.025371 0.107782 -0.072648
v -0.039440 0.057579 -0.134767
v 0.184520 0.084482 -0.080782
v 0.057057 0.127397 -0.143168
v -0.030850 0.023902 -0.172725
v -0.010469 0.023902 0.326283
v -0.130300 0.043324 0.268904
v -0.085703 0.023902 0.374526
v -0.098389 0.023902 0.375764
v -0.118343 -0.000000 0.146771
v 0.069330 -0.000000 0.359822
v 0.406508 -0.000000 -0.006934
v 0.424951 -0.000000 -0.087271
v 0.116061 -0.000000 -0.372780
v -0.000526 -0.000000 -0.299720
v -0.284136 -0.000000 -0.153881
v -0.265496 -0.000000 -0.050023
v 0.279042 -0.000000 0.383742
v 0.462868 -0.000000 0.187968
v -0.116461 -0.000000 -0.299179
v -0.107050 -0.000000 -0.184171
v -0.120575 -0.000000 -0.053743
v -0.039440 -0.000000 -0.134767
v -0.030850 -0.000000 -0.172725
v -0.259967 -0.000000 0.038975
v -0.232323 -0.000000 0.121177
v 0.345258 -0.000000 -0.353316
v 0.213946 -0.000000 -0.302391
v -0.019216 -0.000000 -0.003605
v -0.091151 -0.000000 -0.003026
v 0.071007 -0.000000 -0.002915
v -0.010016 -0.000000 -0.084050
v 0.156418 -0.000000 -0.082018
v 0.016529 -0.000000 -0.137088
v -0.090677 -0.000000 0.292818
v -0.010469 -0.000000 0.326283
v -0.098389 -0.000000 0.375764
v -0.088844 -0.000000 0.380491
v -0.144318 0.011958 0.233991
v -0.164529 0.012449 0.178678
v 0.466458 0.012449 0.188316
v 0.281770 0.012449 0.387301
v -0.264873 0.012449 0.040257
v -0.271083 0.012449 -0.050220
v -0.090225 0.012449 0.385474
v -0.105060 0.017680 0.376827
v 0.411479 0.012449 -0.006739
v -0.235524 0.012449 0.123387
v -0.009957 0.012449 0.330677
v -0.117662 0.012449 -0.304307
v 0.009755 0.012449 -0.310349
v -0.108983 0.012449 -0.188336
v 0.370382 0.012449 -0.112779
v 0.349742 0.012449 -0.356615
v -0.289524 0.012449 -0.156628
v 0.117735 0.012449 -0.378092
v 0.217369 0.012449 -0.306053
v 0.071092 0.012449 0.363714
v 0.327664 0.023902 0.211634
v -0.193354 0.023902 -0.186790
v 0.062169 0.116171 0.007810
v -0.050377 0.057579 -0.043744
v -0.079801 0.057579 -0.094462
v 0.327664 -0.000000 0.211634
v -0.193354 -0.000000 -0.186790
v 0.026126 -0.000000 -0.003258
v -0.050377 -0.000000 -0.043744
v -0.079801 -0.000000 -0.094462
v -0.197006 0.012449 -0.190250
v 0.307206 0.012449 0.289066
v -0.238585 0.023902 -0.079612
v 0.109015 0.023902 0.352830
v -0.053353 0.040740 0.079649
v -0.131719 0.040740 0.037486
v -0.190271 0.040740 -0.007384
v -0.253249 -0.000000 -0.094419
v 0.115310 -0.000000 0.376144
v -0.049156 -0.000000 0.065246
v -0.131719 -0.000000 0.037486
v -0.190271 -0.000000 -0.007384
v 0.117554 0.012449 0.379870
v -0.258737 0.012449 -0.095891
v -0.033959 0.038547 0.219157
v 0.378676 0.026661 -0.189192
v 0.057125 0.067722 0.108638
v 0.268121 0.093359 0.058978
v 0.312298 0.037442 -0.037532
v -0.058889 0.033613 0.295615
v -0.092046 0.023902 0.375145
v -0.006142 -0.000000 0.217289
v 0.407619 -0.000000 -0.201235
v 0.069777 -0.000000 0.164760
v 0.252473 -0.000000 0.095312
v 0.325192 -0.000000 -0.066354
v -0.039077 -0.000000 0.307572
v -0.093617 -0.000000 0.378128
v 0.406964 0.012449 -0.214065
v -0.097642 0.015065 0.381150
v 0.176895 -0.000000 0.104188
v 0.191545 0.114584 0.106614
v 0.031817 -0.000000 0.191024
v 0.004546 0.065722 0.193757
vn -0.0000 1.0000 -0.0000
vn -0.2644 0.9632 -0.0477
vn 0.0108 0.9351 -0.3543
vn 0.0974 0.7553 -0.6481
vn 0.1315 0.9812 -0.1410
vn 0.1367 0.9812 -0.1365
vn -0.5880 0.8079 -0.0395
vn 0.1849 0.9563 -0.2267
vn -0.5080 0.8493 0.1438
vn -0.2094 0.9720 -0.1065
vn -0.1389 0.9560 0.2582
vn -0.1265 0.9781 0.1651
vn 0.3224 0.9437 0.0740
vn 0.3965 0.8976 -0.1927
vn -0.6109 0.6486 -0.4541
vn 0.0987 0.9905 0.0961
vn 0.0123 0.9919 0.1263
vn -0.0000 -1.0000 -0.0000
vn -0.2144 -0.9742 0.0697
vn 0.1191 -0.9749 0.1882
vn -0.9262 -0.3716 0.0636
vn -0.5575 -0.3040 0.7725
vn 0.9292 -0.2607 -0.2619
vn -0.9028 -0.2887 0.3187
vn 0.5446 -0.2589 0.7977
vn -0.0367 -0.6312 -0.7748
vn -0.5888 -0.2856 0.7561
vn -0.3536 -0.9257 0.1343
vn -0.9951 -0.0653 0.0745
vn 0.2669 0.9581 -0.1035
vn 0.8516 -0.3973 -0.3419
vn -0.3219 -0.3348 -0.8856
vn -0.5104 -0.2785 -0.8136
vn -0.3543 -0.1183 -0.9276
vn -0.8845 -0.4007 -0.2391
vn 0.5393 -0.3908 -0.7459
vn -0.3674 -0.2298 0.9012
vn -0.0436 -0.2658 0.9630
vn 0.0595 0.9977 0.0335
vn -0.1684 0.3465 0.9228
vn 0.1792 0.9132 -0.3659
vn -0.2996 0.9143 -0.2725
vn -0.2304 0.2332 -0.9447
vn -0.2386 0.9340 -0.2661
vn -0.6530 0.4021 -0.6418
vn 0.3567 0.9260 -0.1234
vn 0.5162 -0.8510 0.0963
vn -0.9872 0.1372 0.0808
vn -0.6198 0.7185 0.3157
vn -0.0829 0.9541 0.2878
vn 0.0741 0.9826 -0.1704
vn 0.5099 0.3279 0.7952
vn -0.8670 0.4041 0.2916
vn 0.7283 0.2085 -0.6527
vn 0.0717 0.6742 0.7350
vn -0.8977 0.4370 0.0558
vn 0.1718 0.0836 0.9816
vn -0.6154 0.6930 -0.3755
vn 0.0099 0.9888 0.1489
vn 0.0286 0.3374 -0.9409
vn 0.0210 -0.2620 -0.9648
vn 0.9313 -0.2730 0.2411
vn -0.3641 0.8570 -0.3646
vn -0.1629 0.8925 0.4207
vn -0.1612 0.9741 -0.1584
vn -0.6111 0.7597 0.2220
vn -0.1295 0.8739 0.4685
vn -0.3205 -0.2181 0.9218
vn -0.8575 -0.2752 0.4347
vn -0.1296 0.9906 0.0436
vn -0.0425 0.9881 0.1477
vn -0.4632 0.8592 0.2171
vn -0.2260 0.9740 0.0140
vn -0.3542 0.8553 0.3781
vn -0.2585 0.7668 0.5875
vn 0.0828 0.5237 0.8479
vn 0.4364 0.8996 -0.0177
vn 0.8734 0.3711 0.3155
vn -0.5526 -0.2562 0.7931
vn 0.0992 0.9830 0.1547
vn -0.0257 0.9897 0.1409
vn 0.1962 0.9795 0.0453
vn 0.2093 0.9707 0.1178
vn 0.3983 0.8835 0.2466
vn 0.5678 0.6471 -0.5088
vn -0.2945 0.9497 0.1070
vn -0.2664 0.9262 -0.2668
vn 0.4181 0.8558 -0.3045
vn 0.1532 0.9321 0.3281
vn -0.4867 0.5958 -0.6388
vn 0.1474 0.9696 -0.1951
vn 0.1859 0.9649 -0.1856
vn -0.5692 0.8194 -0.0684
vn -0.3227 0.8274 0.4597
vn -0.4246 0.8294 0.3630
vn -0.2515 0.9568 0.1459
vn 0.2432 0.9667 -0.0800
vn -0.1025 0.9560 -0.2749
vn 0.1929 0.8986 -0.3940
vn -0.0556 0.9779 -0.2016
vn 0.0754 0.9848 0.1565
vn -0.2705 -0.9614 0.0512
vn 0.1719 -0.0770 0.9821
vn -0.9112 -0.4080 0.0566
vn -0.4109 -0.3777 0.8298
vn 0.8982 -0.3546 -0.2597
vn -0.8781 -0.3765 0.2953
vn 0.5428 -0.2994 0.7847
vn -0.0043 -0.3812 -0.9245
vn -0.0633 -0.9574 0.2819
vn -0.9338 -0.3471 -0.0868
vn -0.9887 -0.1264 0.0809
vn 0.9072 -0.3655 0.2083
vn 0.8754 -0.3239 -0.3589
vn -0.3205 -0.3398 -0.8842
vn -0.5107 -0.2740 -0.8149
vn -0.3562 -0.1722 -0.9184
vn -0.8770 -0.4152 -0.2419
vn 0.5422 -0.3709 -0.7540
vn -0.3701 -0.2956 0.8807
vn -0.0445 -0.2790 0.9592
vn -0.0179 0.9186 0.3947
vn -0.2007 0.8470 0.4923
vn 0.5374 0.3983 -0.7433
vn -0.8718 0.4293 -0.2357
vn -0.2388 0.7430 -0.6252
vn -0.3621 0.7319 -0.5772
vn -0.0893 0.9652 -0.2458
vn 0.4087 0.8978 -0.1640
vn 0.1333 0.9897 -0.0517
vn -0.9947 0.0710 0.0744
vn -0.9560 0.1411 0.2571
vn -0.5845 0.3082 0.7506
vn -0.0432 0.4120 -0.9102
vn 0.4905 0.4931 0.7185
vn -0.8961 0.3114 0.3164
vn 0.1468 0.9883 -0.0414
vn -0.2083 0.6365 0.7426
vn -0.9148 0.3989 0.0628
vn 0.1100 0.9786 0.1738
vn -0.1351 0.9891 0.0581
vn 0.0806 0.9965 0.0209
vn 0.0208 0.2830 -0.9589
vn 0.0288 -0.3132 -0.9493
vn 0.9566 -0.1089 0.2702
vn -0.1450 0.7958 -0.5880
vn -0.2961 0.8666 0.4016
vn -0.1593 0.9743 -0.1595
vn -0.5121 0.8188 0.2596
vn -0.1478 0.8931 0.4249
vn -0.3248 -0.2401 0.9148
vn -0.8410 -0.3191 0.4369
vn -0.0876 0.9828 0.1628
vn -0.4172 0.9087 0.0127
vn -0.1448 0.9806 -0.1317
vn -0.0842 0.9487 0.3047
vn 0.0413 0.7821 0.6218
vn -0.3120 0.4751 0.8228
vn 0.4422 -0.8826 0.1597
vn 0.2383 0.9705 -0.0362
vn -0.4252 -0.2859 0.8587
vn 0.1305 0.9858 0.1062
vn 0.1691 0.9856 0.0039
vn 0.2038 0.9677 0.1486
vn 0.0684 0.9179 0.3909
vn 0.6246 0.7649 -0.1573
vt 0.313854 0.122324
vt 0.312185 0.118369
vt 0.315090 0.118445
vt 0.319487 0.116147
vt 0.323300 0.113885
vt 0.321619 0.116807
vt 0.317649 0.125666
vt 0.317670 0.123166
vt 0.319857 0.122449
vt 0.315807 0.124033
vt 0.316313 0.124939
vt 0.309362 0.118620
vt 0.310502 0.113393
vt 0.313262 0.114740
vt 0.312211 0.117543
vt 0.316431 0.116205
vt 0.314971 0.118890
vt 0.314871 0.125256
vt 0.315943 0.126458
vt 0.309890 0.127674
vt 0.312774 0.124994
vt 0.313904 0.124640
vt 0.315613 0.128791
vt 0.317279 0.127185
vt 0.315570 0.123035
vt 0.314604 0.120789
vt 0.315940 0.121516
vt 0.316192 0.122835
vt 0.318774 0.120065
vt 0.317537 0.123402
vt 0.316333 0.128610
vt 0.316676 0.126210
vt 0.318995 0.127795
vt 0.317286 0.123645
vt 0.317290 0.122250
vt 0.319422 0.122911
vt 0.308308 0.114798
vt 0.310430 0.119833
vt 0.308061 0.121938
vt 0.307379 0.116954
vt 0.311209 0.119396
vt 0.313252 0.122467
vt 0.316439 0.132514
vt 0.319120 0.132936
vt 0.319085 0.134943
vt 0.323352 0.138407
vt 0.323185 0.138439
vt 0.312771 0.123801
vt 0.313995 0.119174
vt 0.315717 0.121856
vt 0.305504 0.123474
vt 0.309599 0.126193
vt 0.307474 0.126870
vt 0.310942 0.125448
vt 0.310902 0.122948
vt 0.312272 0.124711
vt 0.318064 0.132752
vt 0.316903 0.127501
vt 0.319218 0.129161
vt 0.314135 0.128902
vt 0.313723 0.125062
vt 0.312654 0.126227
vt 0.316062 0.132425
vt 0.312988 0.128564
vt 0.311324 0.126964
vt 0.310556 0.129768
vt 0.312874 0.133192
vt 0.311709 0.133587
vt 0.309981 0.127709
vt 0.311828 0.128222
vt 0.308645 0.128450
vt 0.321605 0.125041
vt 0.317525 0.122544
vt 0.323827 0.121621
vt 0.310543 0.133981
vt 0.308442 0.135365
vt 0.309285 0.131313
vt 0.305450 0.138329
vt 0.309038 0.136054
vt 0.307487 0.133463
vt 0.307868 0.131387
vt 0.314868 0.122923
vt 0.315418 0.120107
vt 0.315541 0.124899
vt 0.320416 0.127771
vt 0.319948 0.125413
vt 0.320257 0.125360
vt 0.315252 0.136710
vt 0.315644 0.136703
vt 0.315633 0.136817
vt 0.318442 0.124276
vt 0.317463 0.129868
vt 0.318115 0.124212
vt 0.317251 0.130547
vt 0.316935 0.128847
vt 0.317251 0.128784
vt 0.315296 0.136628
vt 0.315081 0.132311
vt 0.314114 0.131243
vt 0.314690 0.128804
vt 0.314283 0.131535
vt 0.307308 0.129191
vt 0.307198 0.129224
vt 0.305149 0.138212
vt 0.315761 0.131861
vt 0.316084 0.128899
vt 0.316087 0.131996
vt 0.318442 0.132821
vt 0.318053 0.133403
vt 0.315434 0.132081
vt 0.315761 0.135197
vt 0.315434 0.135240
vt 0.313891 0.131177
vt 0.313808 0.134700
vt 0.313573 0.134814
vt 0.313573 0.130141
vt 0.312782 0.133189
vt 0.313215 0.130152
vt 0.319075 0.132681
vt 0.319574 0.126574
vt 0.319324 0.132780
vt 0.320431 0.129415
vt 0.320107 0.127784
vt 0.312782 0.128784
vt 0.314767 0.130153
vt 0.315116 0.130140
vt 0.315470 0.129258
vt 0.315475 0.128416
vt 0.315824 0.128377
vt 0.315811 0.136993
vt 0.314724 0.138516
vt 0.314623 0.137731
vt 0.319063 0.137071
vt 0.316998 0.136255
vt 0.319049 0.136950
vt 0.319860 0.126434
vt 0.319075 0.124690
vt 0.319580 0.124212
vt 0.320737 0.127738
vt 0.320770 0.128941
vt 0.319948 0.131971
vt 0.314196 0.119226
vt 0.314138 0.120078
vt 0.319918 0.122337
vt 0.322889 0.122875
vt 0.306893 0.125013
vt 0.305410 0.122424
vt 0.307820 0.125051
vt 0.308160 0.132376
vt 0.309203 0.128134
vt 0.310229 0.127679
vt 0.316393 0.131857
vt 0.316393 0.128784
vt 0.311502 0.133023
vt 0.310629 0.128784
vt 0.310817 0.128807
vt 0.321315 0.129380
vt 0.320754 0.131584
vt 0.319787 0.132191
vt 0.315020 0.128784
vt 0.315020 0.131657
vt 0.315824 0.136439
vt 0.315310 0.132248
vt 0.320804 0.124246
vt 0.320578 0.125367
vt 0.306588 0.136944
vt 0.306683 0.136904
vt 0.323210 0.138721
vt 0.323018 0.138471
vt 0.309538 0.136566
vt 0.321152 0.133657
vt 0.321074 0.134645
vt 0.311359 0.137592
vt 0.313888 0.128847
vt 0.313588 0.131067
vt 0.313573 0.128784
vt 0.314114 0.131110
vt 0.308710 0.122248
vt 0.318999 0.126400
vt 0.318629 0.127919
vt 0.316785 0.128447
vt 0.313751 0.131380
vt 0.313660 0.127082
vt 0.314832 0.126738
vt 0.317046 0.124691
vt 0.317904 0.120740
vt 0.320936 0.121166
vt 0.320804 0.130143
vt 0.316857 0.136990
vt 0.315121 0.129284
vt 0.320131 0.131004
vt 0.320446 0.131058
vt 0.305348 0.127547
vt 0.305859 0.125225
vt 0.323263 0.127722
vt 0.316125 0.126332
vt 0.317653 0.123521
vt 0.320275 0.121937
vt 0.318881 0.123969
vt 0.323221 0.115150
vt 0.323751 0.117468
vt 0.317486 0.126001
vt 0.311802 0.136649
vt 0.312861 0.137405
vt 0.312670 0.136022
vt 0.311599 0.131824
vt 0.319137 0.136286
vt 0.313919 0.138161
vt 0.323368 0.138553
vt 0.315434 0.128923
vt 0.315650 0.131990
vt 0.315209 0.136792
vt 0.315621 0.136931
vt 0.305555 0.138425
vt 0.309633 0.136744
vt 0.319382 0.128462
vt 0.321533 0.130822
vt 0.321993 0.136602
vt 0.317096 0.135241
vt 0.315045 0.134546
vt 0.310718 0.117425
vt 0.308648 0.122122
vt 0.313403 0.123327
vt 0.315828 0.119252
vt 0.314590 0.122589
vt 0.307829 0.132416
vt 0.308874 0.128874
vt 0.311071 0.122770
vt 0.307172 0.126650
vt 0.311299 0.120758
vt 0.323378 0.112621
vt 0.317043 0.120154
vt 0.308721 0.115682
vt 0.315359 0.115002
vt 0.314483 0.129144
vt 0.314234 0.122308
vt 0.317273 0.118193
vt 0.316920 0.123769
vt 0.305898 0.112170
vt 0.301748 0.116565
vt 0.311041 0.122813
vt 0.317834 0.130482
vt 0.311504 0.119931
vt 0.305149 0.121723
vt 0.305345 0.138234
vt 0.315099 0.120207
vt 0.317806 0.129948
vt 0.316938 0.130578
vt 0.314732 0.132288
vt 0.314495 0.128839
vt 0.315761 0.128789
vt 0.313265 0.133211
vt 0.319336 0.126500
vt 0.320119 0.129394
vt 0.313133 0.128835
vt 0.315790 0.137753
vt 0.312755 0.121992
vt 0.323527 0.121789
vt 0.304583 0.121892
vt 0.306965 0.131168
vt 0.310629 0.133965
vt 0.321407 0.129417
vt 0.320486 0.124212
vt 0.314099 0.128828
vt 0.315696 0.123957
vt 0.321131 0.127061
vt 0.314624 0.124460
vt 0.316299 0.126739
vt 0.307584 0.134857
vt 0.323527 0.138386
vt 0.315540 0.128784
vt 0.314483 0.118685
vt 0.304974 0.132754
s 0
usemtl Material
f 25/1/1 4/2/1 8/3/1
f 19/4/2 91/5/2 95/6/2
f 83/7/3 9/8/3 80/9/3
f 25/10/4 9/8/4 22/11/4
f 106/12/5 23/13/5 20/14/5
f 23/15/6 21/16/6 20/17/6
f 24/18/7 22/11/7 21/19/7
f 120/20/8 20/21/8 81/22/8
f 81/23/9 21/19/9 82/24/9
f 82/25/1 22/26/1 83/27/1
f 105/28/10 93/29/10 122/30/10
f 93/31/11 18/32/11 94/33/11
f 94/34/12 19/35/12 95/36/12
f 104/37/13 23/15/13 107/38/13
f 23/39/14 15/40/14 24/41/14
f 24/18/15 16/42/15 25/10/15
f 103/43/16 27/44/16 108/45/16
f 108/45/17 29/46/17 109/47/17
f 44/48/18 35/49/18 34/50/18
f 96/51/18 42/52/18 100/53/18
f 88/54/18 41/55/18 43/56/18
f 41/55/18 44/48/18 43/56/18
f 113/57/18 53/58/18 114/59/18
f 51/60/18 54/61/18 53/58/18
f 43/56/18 54/61/18 52/62/18
f 119/63/18 51/60/18 113/57/18
f 86/64/18 52/62/18 51/60/18
f 88/54/18 52/62/18 87/65/18
f 98/66/18 112/67/18 121/68/18
f 98/66/18 50/69/18 49/70/18
f 99/71/18 42/52/18 50/69/18
f 53/58/18 111/72/18 114/59/18
f 53/58/18 48/73/18 47/74/18
f 54/61/18 34/50/18 48/73/18
f 110/75/18 55/76/18 30/77/18
f 116/78/18 55/76/18 115/79/18
f 30/77/19 59/80/19 60/81/19
f 84/82/20 61/83/20 90/84/20
f 64/85/21 45/86/21 63/87/21
f 116/88/22 65/89/22 118/90/22
f 39/91/23 67/92/23 61/93/23
f 63/94/24 46/95/24 68/96/24
f 58/97/25 69/98/25 65/89/25
f 35/99/26 70/100/26 71/101/26
f 46/102/27 60/81/27 68/103/27
f 55/76/28 66/104/28 59/80/28
f 40/105/29 72/106/29 70/107/29
f 67/92/30 33/108/30 73/109/30
f 117/110/31 47/111/31 74/112/31
f 89/113/32 36/114/32 75/115/32
f 34/116/33 71/117/33 76/118/33
f 47/119/34 77/120/34 74/121/34
f 102/122/35 37/123/35 64/85/35
f 77/124/36 34/116/36 76/118/36
f 69/98/37 31/125/37 78/126/37
f 101/127/38 38/128/38 62/129/38
f 92/130/39 62/131/39 5/132/39
f 69/133/40 1/134/40 26/135/40
f 15/136/41 76/137/41 16/138/41
f 102/122/42 3/139/42 91/140/42
f 14/141/43 77/120/43 15/136/43
f 16/42/44 71/142/44 4/143/44
f 89/144/45 10/145/45 80/9/45
f 117/146/46 14/147/46 104/148/46
f 7/149/47 73/150/47 2/151/47
f 8/152/48 72/106/48 9/153/48
f 27/154/49 66/155/49 29/156/49
f 12/157/50 60/158/50 13/159/50
f 71/101/51 8/160/51 4/161/51
f 28/162/52 69/98/52 26/163/52
f 63/87/53 12/164/53 11/165/53
f 61/166/54 7/149/54 6/167/54
f 109/47/55 65/168/55 28/169/55
f 64/85/56 11/165/56 3/139/56
f 79/170/57 61/166/57 6/167/57
f 13/159/58 59/171/58 27/172/58
f 5/132/59 90/173/59 79/170/59
f 72/174/60 80/175/60 9/176/60
f 72/174/61 85/177/61 89/113/61
f 38/128/62 90/84/62 62/129/62
f 42/52/18 87/65/18 50/69/18
f 49/70/18 87/65/18 86/64/18
f 112/67/18 86/64/18 119/63/18
f 42/52/18 85/178/18 88/54/18
f 82/24/1 19/179/1 18/180/1
f 17/181/63 82/24/63 18/180/63
f 105/182/64 81/183/64 17/184/64
f 19/185/65 80/186/65 10/187/65
f 10/188/66 102/122/66 91/140/66
f 78/189/67 92/130/67 1/134/67
f 78/126/68 97/190/68 101/127/68
f 36/191/69 102/122/69 75/192/69
f 45/193/18 99/71/18 46/102/18
f 30/77/18 99/71/18 98/66/18
f 110/75/18 98/66/18 121/68/18
f 37/194/18 100/53/18 45/193/18
f 94/33/70 11/195/70 12/157/70
f 13/196/71 94/34/71 12/197/71
f 122/30/72 13/198/72 103/199/72
f 95/6/73 3/200/73 11/201/73
f 1/202/74 122/30/74 103/199/74
f 31/203/18 121/68/18 97/204/18
f 5/205/75 120/206/75 105/182/75
f 112/67/18 84/207/18 38/208/18
f 29/46/76 118/209/76 109/47/76
f 2/151/77 117/146/77 104/148/77
f 73/210/78 111/211/78 117/110/78
f 57/212/79 118/90/79 66/213/79
f 58/214/18 115/79/18 56/215/18
f 56/215/18 110/75/18 31/203/18
f 114/59/18 33/216/18 32/217/18
f 97/204/18 112/67/18 38/208/18
f 84/207/18 113/57/18 39/218/18
f 113/57/18 32/217/18 39/218/18
f 108/45/80 28/169/80 26/135/80
f 103/43/81 26/219/81 1/220/81
f 2/221/82 107/38/82 7/222/82
f 5/223/83 122/224/83 92/225/83
f 79/226/84 106/227/84 120/20/84
f 7/222/85 106/228/85 6/229/85
f 25/1/1 16/230/1 4/2/1
f 19/4/86 10/231/86 91/5/86
f 83/7/87 22/11/87 9/8/87
f 25/10/1 8/232/1 9/8/1
f 106/12/88 107/233/88 23/13/88
f 23/15/89 24/234/89 21/16/89
f 24/18/90 25/10/90 22/11/90
f 120/20/91 106/227/91 20/21/91
f 81/23/92 20/235/92 21/19/92
f 82/25/93 21/236/93 22/26/93
f 105/28/94 17/237/94 93/29/94
f 93/31/95 17/184/95 18/32/95
f 94/34/96 18/238/96 19/35/96
f 104/37/97 14/239/97 23/15/97
f 23/39/98 14/240/98 15/40/98
f 24/18/99 15/241/99 16/42/99
f 103/43/100 13/242/100 27/44/100
f 108/45/101 27/172/101 29/46/101
f 44/48/18 40/243/18 35/49/18
f 96/51/18 36/244/18 42/52/18
f 88/54/18 85/178/18 41/55/18
f 41/55/18 40/243/18 44/48/18
f 113/57/18 51/60/18 53/58/18
f 51/60/18 52/62/18 54/61/18
f 43/56/18 44/48/18 54/61/18
f 119/63/18 86/64/18 51/60/18
f 86/64/18 87/65/18 52/62/18
f 88/54/18 43/56/18 52/62/18
f 98/66/18 49/70/18 112/67/18
f 98/66/18 99/71/18 50/69/18
f 99/71/18 100/53/18 42/52/18
f 53/58/18 47/74/18 111/72/18
f 53/58/18 54/61/18 48/73/18
f 54/61/18 44/48/18 34/50/18
f 110/75/18 115/79/18 55/76/18
f 116/78/18 57/245/18 55/76/18
f 30/77/102 55/76/102 59/80/102
f 84/82/103 39/246/103 61/83/103
f 64/85/104 37/123/104 45/86/104
f 116/88/105 58/97/105 65/89/105
f 39/91/106 32/247/106 67/92/106
f 63/94/107 45/248/107 46/95/107
f 58/97/108 56/249/108 69/98/108
f 35/99/109 40/250/109 70/100/109
f 46/102/110 30/77/110 60/81/110
f 55/76/111 57/245/111 66/104/111
f 40/105/112 41/251/112 72/106/112
f 67/92/113 32/247/113 33/108/113
f 117/110/114 111/211/114 47/111/114
f 89/113/115 85/177/115 36/114/115
f 34/116/116 35/252/116 71/117/116
f 47/119/117 48/253/117 77/120/117
f 102/122/118 96/254/118 37/123/118
f 77/124/119 48/255/119 34/116/119
f 69/98/120 56/249/120 31/125/120
f 101/127/121 97/190/121 38/128/121
f 92/130/122 101/256/122 62/131/122
f 69/133/123 78/189/123 1/134/123
f 15/136/124 77/120/124 76/137/124
f 102/122/125 64/85/125 3/139/125
f 14/141/126 74/121/126 77/120/126
f 16/42/127 76/257/127 71/142/127
f 89/144/128 75/258/128 10/145/128
f 117/146/129 74/259/129 14/147/129
f 7/149/130 67/260/130 73/150/130
f 8/152/131 70/107/131 72/106/131
f 27/154/132 59/261/132 66/155/132
f 12/157/133 68/262/133 60/158/133
f 71/101/134 70/100/134 8/160/134
f 28/162/135 65/89/135 69/98/135
f 63/87/136 68/263/136 12/164/136
f 61/166/137 67/260/137 7/149/137
f 109/47/138 118/209/138 65/168/138
f 64/85/139 63/87/139 11/165/139
f 79/170/140 90/173/140 61/166/140
f 13/159/141 60/158/141 59/171/141
f 5/132/142 62/131/142 90/173/142
f 72/174/143 89/113/143 80/175/143
f 72/174/144 41/264/144 85/177/144
f 38/128/145 84/82/145 90/84/145
f 42/52/18 88/54/18 87/65/18
f 49/70/18 50/69/18 87/65/18
f 112/67/18 49/70/18 86/64/18
f 42/52/18 36/244/18 85/178/18
f 82/24/1 83/7/1 19/179/1
f 17/181/146 81/23/146 82/24/146
f 105/182/147 120/206/147 81/183/147
f 19/185/148 83/265/148 80/186/148
f 10/188/149 75/192/149 102/122/149
f 78/189/150 101/256/150 92/130/150
f 78/126/151 31/125/151 97/190/151
f 36/191/152 96/254/152 102/122/152
f 45/193/18 100/53/18 99/71/18
f 30/77/18 46/102/18 99/71/18
f 110/75/18 30/77/18 98/66/18
f 37/194/18 96/51/18 100/53/18
f 94/33/12 95/266/12 11/195/12
f 13/196/153 93/267/153 94/34/153
f 122/30/154 93/29/154 13/198/154
f 95/6/155 91/5/155 3/200/155
f 1/202/156 92/268/156 122/30/156
f 31/203/18 110/75/18 121/68/18
f 5/205/157 79/269/157 120/206/157
f 112/67/18 119/63/18 84/207/18
f 29/46/158 66/270/158 118/209/158
f 2/151/159 73/150/159 117/146/159
f 73/210/160 33/271/160 111/211/160
f 57/212/161 116/88/161 118/90/161
f 58/214/18 116/78/18 115/79/18
f 56/215/18 115/79/18 110/75/18
f 114/59/18 111/72/18 33/216/18
f 97/204/18 121/68/18 112/67/18
f 84/207/18 119/63/18 113/57/18
f 113/57/18 114/59/18 32/217/18
f 108/45/17 109/47/17 28/169/17
f 103/43/162 108/45/162 26/219/162
f 2/221/163 104/37/163 107/38/163
f 5/223/164 105/272/164 122/224/164
f 79/226/165 6/273/165 106/227/165
f 7/222/166 107/38/166 106/228/166
