# Blender 4.2.1 LTS
# www.blender.org
mtllib door_1.mtl
g door_1_Mesh
v 0.736782 0.078513 0.000666
v 0.063937 0.078513 0.000666
v 0.063937 0.078509 -0.081738
v 0.736782 0.078509 -0.081738
v 0.063939 1.378456 0.000666
v 0.736780 1.378456 0.000666
v 0.063937 1.378455 -0.081738
v 0.736782 1.378455 -0.081737
v 0.800718 0.000000 0.000666
v -0.000000 0.000000 0.000666
v 0.000000 0.000000 -0.081738
v 0.800718 0.000000 -0.081738
v 0.000000 1.456967 -0.081738
v 0.800718 1.456967 -0.081737
v 0.800716 1.456967 0.000666
v 0.000003 1.456967 0.000666
v 0.662947 0.684681 -0.014495
v 0.602203 0.684681 -0.014495
v 0.602202 0.684680 -0.066580
v 0.662947 0.684680 -0.066580
v 0.602202 0.739424 -0.066580
v 0.662947 0.739424 -0.066580
v 0.662946 0.739424 -0.014495
v 0.602203 0.739424 -0.014495
v 0.736782 0.078513 -0.013791
v 0.063937 0.078513 -0.013791
v 0.063937 0.078509 -0.067281
v 0.736782 0.078509 -0.067281
v 0.063937 1.378455 -0.067280
v 0.736782 1.378455 -0.067281
v 0.736780 1.378455 -0.013791
v 0.063939 1.378455 -0.013791
v 0.658599 0.688590 -0.003658
v 0.606551 0.688590 -0.003658
v 0.606550 0.688609 -0.077418
v 0.658599 0.688609 -0.077418
v 0.606550 0.735515 -0.077418
v 0.658599 0.735515 -0.077418
v 0.658598 0.735496 -0.003658
v 0.606551 0.735496 -0.003658
v 0.400359 0.000000 0.000666
v 0.400359 0.000000 -0.081738
v 0.400359 1.456967 0.000666
v 0.400359 1.456967 -0.081738
v 0.400359 0.078513 0.000666
v 0.400359 0.078509 -0.081738
v 0.400359 1.378456 0.000666
v 0.400359 1.378455 -0.081738
v 0.400359 0.078513 -0.013791
v 0.400359 0.078509 -0.067281
v 0.400359 1.378455 -0.013791
v 0.400359 1.378455 -0.067280
v 0.632575 0.673852 -0.014495
v 0.632575 0.673852 -0.066580
v 0.632575 0.750253 -0.014495
v 0.632575 0.750253 -0.066580
v 0.632575 0.679307 -0.003658
v 0.632575 0.679334 -0.077418
v 0.632575 0.744771 -0.003658
v 0.632575 0.744797 -0.077418
v 0.000000 0.712051 -0.081738
v 0.800718 0.712051 -0.081738
v 0.800717 0.712053 0.000666
v 0.000001 0.712053 0.000666
v 0.063937 0.712051 -0.081738
v 0.736782 0.712051 -0.081738
v 0.736780 0.712053 0.000666
v 0.063938 0.712053 0.000666
v 0.063937 0.712051 -0.067281
v 0.736782 0.712051 -0.067281
v 0.736780 0.712053 -0.013791
v 0.063938 0.712053 -0.013791
v 0.595837 0.712052 -0.066580
v 0.669313 0.712052 -0.066580
v 0.669312 0.712052 -0.014495
v 0.595838 0.712052 -0.014495
v 0.601096 0.712062 -0.077418
v 0.664053 0.712062 -0.077418
v 0.664052 0.712043 -0.003658
v 0.601097 0.712043 -0.003658
v 0.603505 0.685843 0.030126
v 0.632575 0.675474 0.030126
v 0.632575 0.667097 0.016843
v 0.596848 0.679841 0.016843
v 0.632575 0.667134 -0.097917
v 0.668303 0.679867 -0.097917
v 0.589359 0.712065 -0.097917
v 0.596847 0.679867 -0.097917
v 0.675791 0.712065 -0.097917
v 0.675791 0.712039 0.016843
v 0.668303 0.744237 0.016843
v 0.589359 0.712039 0.016843
v 0.632575 0.756971 0.016843
v 0.596848 0.744237 0.016843
v 0.632575 0.757007 -0.097917
v 0.668303 0.744264 -0.097917
v 0.668303 0.679841 0.016843
v 0.596847 0.744264 -0.097917
v 0.632575 0.675504 -0.111198
v 0.661646 0.685865 -0.111198
v 0.597412 0.712063 -0.111198
v 0.603505 0.685865 -0.111198
v 0.667738 0.712063 -0.111198
v 0.667738 0.712042 0.030126
v 0.661645 0.738240 0.030126
v 0.597413 0.712042 0.030126
v 0.632575 0.748600 0.030126
v 0.603506 0.738240 0.030126
v 0.632575 0.748630 -0.111198
v 0.661646 0.738261 -0.111198
v 0.661645 0.685843 0.030126
v 0.603505 0.738261 -0.111198
v 0.632575 0.712042 0.030126
v 0.632575 0.712063 -0.111198
vn -0.0000 1.0000 -0.0000
vn -0.0000 -1.0000 -0.0000
vn 1.0000 -0.0000 -0.0000
vn -1.0000 -0.0000 -0.0000
vn -0.0000 -0.0000 1.0000
vn -0.0000 -0.0000 -1.0000
vn -0.3031 -0.8504 -0.4301
vn 0.8805 -0.2048 -0.4275
vn 0.0004 0.0010 1.0000
vn -0.0000 0.0012 -1.0000
vn 0.0013 0.0003 -1.0000
vn -0.0104 -0.0024 -0.9999
vn -0.0104 0.0024 0.9999
vn 0.0013 -0.0003 1.0000
vn -0.0000 -0.0011 1.0000
vn 0.0004 -0.0010 -1.0000
vn -0.2930 -0.8215 -0.4892
vn 0.8507 -0.1978 -0.4871
vn -0.3031 0.8504 0.4302
vn 0.8805 0.2048 0.4275
vn -0.8807 0.2048 -0.4272
vn 0.3035 -0.8511 0.4285
vn 0.3036 0.8511 -0.4284
vn -0.8807 -0.2048 0.4272
vn -0.3034 0.8510 -0.4286
vn -0.3034 -0.8510 0.4287
vn 0.3032 0.8504 0.4299
vn 0.2930 0.8214 0.4893
vn 0.8506 0.1978 0.4871
vn -0.0004 -0.0011 -1.0000
vn -0.0004 0.0011 1.0000
vn 0.3032 -0.8504 -0.4299
vn -0.2928 0.8217 -0.4890
vn -0.8506 0.1978 0.4871
vn -0.8805 0.2048 0.4275
vn -0.8805 -0.2048 -0.4275
vn 0.8806 -0.2048 0.4272
vn -0.2930 0.8214 0.4893
vn -0.8507 -0.1978 -0.4871
vn 0.0013 -0.0000 1.0000
vn -0.0095 -0.0000 1.0000
vn -0.0095 -0.0000 -1.0000
vn 0.0013 -0.0000 -1.0000
vn 0.8807 0.2048 -0.4272
vn -0.2888 0.8098 -0.5107
vn 0.8387 -0.1950 -0.5085
vn 0.2887 0.8100 0.5104
vn -0.8387 0.1951 0.5085
vn -0.8387 -0.1950 -0.5085
vn -0.2887 -0.8100 -0.5105
vn 0.8387 -0.1950 0.5085
vn 0.2887 -0.8100 -0.5105
vn -0.8507 0.1979 -0.4870
vn 0.2928 -0.8217 0.4890
vn -0.8507 -0.1978 0.4870
vn 0.2930 -0.8215 -0.4892
vn 0.8507 -0.1978 0.4871
vn -0.2928 -0.8217 0.4890
vn 0.8507 0.1978 -0.4870
vn 0.2928 0.8217 -0.4890
vn 0.8387 0.1951 0.5084
vn -0.8387 -0.1950 0.5085
vn -0.2887 0.8100 0.5104
vn -0.8386 0.1950 -0.5086
vn 0.2888 0.8098 -0.5108
vn -0.2888 -0.8098 0.5107
vn 0.8387 0.1950 -0.5085
vn 0.2888 -0.8098 0.5107
vn -0.3032 -0.8505 -0.4299
vn -0.0000 0.0012 1.0000
vn -0.0004 0.0011 -1.0000
vn -0.0004 -0.0011 1.0000
vn -0.0000 -0.0011 -1.0000
vn -0.3032 0.8504 0.4299
vn -0.8807 0.2048 -0.4271
vn 0.3034 -0.8510 0.4287
vn 0.3034 0.8510 -0.4286
vn -0.3036 0.8511 -0.4284
vn -0.3036 -0.8511 0.4284
vn 0.3031 0.8503 0.4302
vn 0.0004 -0.0010 1.0000
vn 0.0004 0.0010 -1.0000
vn 0.3031 -0.8504 -0.4302
vn -0.8507 0.1978 0.4871
vn -0.8507 -0.1978 -0.4870
vn 0.0013 0.0003 1.0000
vn -0.0104 -0.0024 0.9999
vn -0.0104 0.0024 -0.9999
vn 0.0013 -0.0003 -1.0000
vn 0.8806 0.2048 -0.4272
vn -0.2888 0.8098 -0.5108
vn -0.8507 0.1978 -0.4870
vn -0.8507 -0.1978 0.4871
vn 0.8387 0.1951 0.5085
vn -0.8387 0.1950 -0.5085
vn 0.2888 0.8098 -0.5107
vt 0.045642 0.089264
vt 0.061112 0.078990
vt 0.061112 0.089264
vt 0.076507 0.078931
vt 0.061036 0.089205
vt 0.061036 0.078931
vt 0.060836 0.084911
vt 0.046674 0.083109
vt 0.060836 0.083109
vt 0.064002 0.081691
vt 0.035221 0.091960
vt 0.035219 0.081691
vt 0.064243 0.080913
vt 0.093025 0.091183
vt 0.064242 0.091183
vt 0.045566 0.081227
vt 0.059728 0.079425
vt 0.059728 0.081227
vt 0.087670 0.118022
vt 0.066035 0.120022
vt 0.066035 0.118022
vt 0.087280 0.118023
vt 0.065645 0.120022
vt 0.065645 0.118023
vt 0.044010 0.118023
vt 0.042010 0.076047
vt 0.044010 0.076047
vt 0.087280 0.034072
vt 0.089279 0.076047
vt 0.087280 0.076047
vt 0.044400 0.118022
vt 0.042401 0.076047
vt 0.044400 0.076047
vt 0.087670 0.034072
vt 0.089670 0.076047
vt 0.087670 0.076047
vt 0.044400 0.034072
vt 0.066035 0.032073
vt 0.066035 0.034072
vt 0.044010 0.034072
vt 0.065645 0.032073
vt 0.065645 0.034072
vt 0.548850 0.268843
vt 0.547498 0.272088
vt 0.547498 0.268843
vt 0.563533 0.268014
vt 0.562226 0.270954
vt 0.562204 0.268021
vt 0.092209 0.078732
vt 0.064735 0.080534
vt 0.064735 0.078732
vt 0.064735 0.082281
vt 0.092209 0.084082
vt 0.064735 0.084082
vt 0.073890 0.082974
vt 0.059728 0.084777
vt 0.059728 0.082974
vt 0.073890 0.086524
vt 0.059728 0.088327
vt 0.059728 0.086524
vt 0.064735 0.087631
vt 0.037261 0.085830
vt 0.064735 0.085830
vt 0.037261 0.091180
vt 0.064735 0.089379
vt 0.064735 0.091180
vt 0.078177 0.074092
vt 0.066261 0.033733
vt 0.079970 0.073453
vt 0.079786 0.077771
vt 0.087713 0.117491
vt 0.066078 0.117491
vt 0.077993 0.077132
vt 0.044443 0.075516
vt 0.077617 0.075516
vt 0.081579 0.073900
vt 0.087713 0.075516
vt 0.081955 0.075516
vt 0.081763 0.074092
vt 0.087896 0.075708
vt 0.082138 0.075708
vt 0.078177 0.077324
vt 0.044626 0.075708
vt 0.077801 0.075708
vt 0.079970 0.077963
vt 0.087896 0.117683
vt 0.066261 0.117683
vt 0.077993 0.073900
vt 0.066078 0.033540
vt 0.079786 0.073261
vt 0.566570 0.272088
vt 0.569126 0.268843
vt 0.569126 0.273297
vt 0.537342 0.271342
vt 0.539826 0.268390
vt 0.539857 0.272417
vt 0.563471 0.268843
vt 0.562120 0.272087
vt 0.562120 0.268843
vt 0.535947 0.268401
vt 0.537342 0.265494
vt 0.537319 0.268410
vt 0.565332 0.268014
vt 0.566639 0.265106
vt 0.566661 0.268021
vt 0.565218 0.268843
vt 0.566570 0.265598
vt 0.566570 0.268843
vt 0.550597 0.268843
vt 0.551948 0.265598
vt 0.551948 0.268843
vt 0.556232 0.268014
vt 0.554837 0.270955
vt 0.554860 0.268023
vt 0.551948 0.272088
vt 0.550597 0.272630
vt 0.565218 0.272630
vt 0.562120 0.265598
vt 0.563471 0.265056
vt 0.554504 0.268843
vt 0.562226 0.265106
vt 0.559601 0.268003
vt 0.559632 0.264001
vt 0.087713 0.033540
vt 0.044626 0.117683
vt 0.044443 0.117491
vt 0.087897 0.033733
vt 0.045566 0.088327
vt 0.045566 0.086524
vt 0.045566 0.084777
vt 0.045566 0.082974
vt 0.547498 0.265598
vt 0.548850 0.265056
vt 0.089279 0.032073
vt 0.089670 0.032073
vt 0.042010 0.120022
vt 0.042401 0.120022
vt 0.073890 0.079425
vt 0.073890 0.081227
vt 0.074998 0.083109
vt 0.074998 0.084911
vt 0.045566 0.078931
vt 0.045566 0.089205
vt 0.076583 0.089264
vt 0.076583 0.078990
vt 0.559564 0.268843
vt 0.569264 0.268003
vt 0.554837 0.265107
vt 0.556206 0.264611
vt 0.566639 0.270954
vt 0.565306 0.271436
vt 0.535973 0.271823
vt 0.554504 0.273298
vt 0.552353 0.268003
vt 0.044626 0.033733
vt 0.081763 0.077324
vt 0.081579 0.077132
vt 0.044443 0.033540
vt 0.092209 0.089379
vt 0.092209 0.091180
vt 0.092209 0.087631
vt 0.092209 0.085830
vt 0.037261 0.082281
vt 0.037261 0.084082
vt 0.037261 0.080534
vt 0.037261 0.078732
vt 0.563559 0.264611
vt 0.089670 0.120022
vt 0.042401 0.032073
vt 0.089279 0.120022
vt 0.042010 0.032073
vt 0.035461 0.080913
vt 0.035459 0.091183
vt 0.092784 0.081691
vt 0.064003 0.091960
vt 0.556160 0.272467
vt 0.558004 0.271293
vt 0.557979 0.268017
vt 0.557908 0.265218
vt 0.559564 0.264388
vt 0.550639 0.264758
vt 0.552322 0.264001
vt 0.570861 0.271293
vt 0.569233 0.272030
vt 0.544942 0.268843
vt 0.543286 0.272467
vt 0.543286 0.268843
vt 0.541539 0.271678
vt 0.543286 0.265218
vt 0.544942 0.264388
vt 0.472373 0.424236
vt 0.468103 0.426597
vt 0.468103 0.423243
vt 0.462085 0.424235
vt 0.464876 0.428238
vt 0.461053 0.428676
vt 0.457815 0.426596
vt 0.457815 0.423242
vt 0.475164 0.428239
vt 0.476644 0.425229
vt 0.476644 0.421875
vt 0.473406 0.419795
vt 0.459295 0.420232
vt 0.466356 0.421874
vt 0.463118 0.419795
vt 0.469583 0.420233
vt 0.541539 0.265145
vt 0.541514 0.268402
vt 0.550639 0.271291
vt 0.550664 0.268015
vt 0.557908 0.272467
vt 0.557908 0.268843
vt 0.570861 0.264760
vt 0.570886 0.268017
vt 0.556160 0.265218
vt 0.556160 0.268843
vt 0.570782 0.272467
vt 0.558004 0.264760
vt 0.570782 0.265218
vt 0.570782 0.268843
vt 0.045641 0.078990
vt 0.076507 0.089205
vt 0.046674 0.084911
vt 0.093026 0.080913
vt 0.045566 0.079425
vt 0.548850 0.272630
vt 0.563559 0.271436
vt 0.092209 0.080534
vt 0.092209 0.082281
vt 0.073890 0.084777
vt 0.073890 0.088327
vt 0.037261 0.087631
vt 0.037261 0.089379
vt 0.563471 0.272629
vt 0.535973 0.264998
vt 0.565306 0.264611
vt 0.565218 0.265056
vt 0.550597 0.265056
vt 0.556206 0.271436
vt 0.554504 0.264388
vt 0.559564 0.273297
vt 0.569233 0.264001
vt 0.552322 0.272030
vt 0.092786 0.091960
vt 0.559632 0.272030
vt 0.544942 0.273298
vt 0.569126 0.264388
vt 0.539857 0.264388
vt 0.471341 0.428676
vt 0.466356 0.425228
s 0
usemtl Material
f 15/1/1 44/2/1 43/3/1
f 10/4/2 42/5/2 41/6/2
f 48/7/2 30/8/2 52/9/2
f 63/10/3 14/11/3 15/12/3
f 61/13/4 10/14/4 64/15/4
f 1/16/1 49/17/1 45/18/1
f 2/19/5 41/20/5 45/21/5
f 4/22/6 42/23/6 46/24/6
f 3/25/6 61/26/6 65/27/6
f 8/28/6 62/29/6 66/30/6
f 1/31/5 63/32/5 67/33/5
f 5/34/5 64/35/5 68/36/5
f 6/37/5 43/38/5 47/39/5
f 7/40/6 44/41/6 48/42/6
f 54/43/7 35/44/7 58/45/7
f 74/46/8 36/47/8 78/48/8
f 2/49/3 72/50/3 68/51/3
f 66/52/4 28/53/4 70/54/4
f 3/55/1 50/56/1 46/57/1
f 5/58/2 51/59/2 47/60/2
f 67/61/4 31/62/4 71/63/4
f 7/64/3 69/65/3 65/66/3
f 18/67/9 49/68/9 53/69/9
f 54/70/10 28/71/10 50/72/10
f 19/73/11 69/74/11 73/75/11
f 22/76/12 70/77/12 74/78/12
f 17/79/13 71/80/13 75/81/13
f 24/82/14 72/83/14 76/84/14
f 55/85/15 31/86/15 51/87/15
f 21/88/16 52/89/16 56/90/16
f 34/91/17 83/92/17 84/93/17
f 33/94/18 90/95/18 97/96/18
f 55/97/19 40/98/19 59/99/19
f 75/100/20 39/101/20 79/102/20
f 73/103/21 37/104/21 77/105/21
f 53/106/22 33/107/22 57/108/22
f 56/109/23 38/110/23 60/111/23
f 76/112/24 34/113/24 80/114/24
f 56/109/25 37/115/25 21/116/25
f 53/106/26 34/91/26 18/117/26
f 55/97/27 39/118/27 23/119/27
f 38/110/28 95/120/28 60/111/28
f 38/121/29 89/122/29 96/123/29
f 56/90/30 30/124/30 22/76/30
f 24/82/15 51/87/15 32/125/15
f 19/73/10 50/72/10 27/126/10
f 53/69/31 25/127/31 17/79/31
f 47/60/2 31/128/2 6/129/2
f 46/57/1 28/130/1 4/131/1
f 54/43/32 36/132/32 20/133/32
f 8/28/6 44/41/6 14/134/6
f 5/34/5 43/38/5 16/135/5
f 3/25/6 42/23/6 11/136/6
f 1/31/5 41/20/5 9/137/5
f 45/18/1 26/138/1 2/139/1
f 48/7/2 29/140/2 7/141/2
f 9/142/2 42/5/2 12/143/2
f 16/144/1 44/2/1 13/145/1
f 40/98/33 93/146/33 59/99/33
f 37/104/34 87/147/34 77/105/34
f 76/112/35 40/148/35 24/149/35
f 73/103/36 35/150/36 19/151/36
f 75/100/37 33/94/37 17/152/37
f 37/115/38 95/120/38 98/153/38
f 34/113/39 92/154/39 80/114/39
f 18/67/40 72/83/40 26/155/40
f 23/156/41 71/80/41 31/86/41
f 20/157/42 70/77/42 28/71/42
f 21/88/43 69/74/43 29/158/43
f 65/66/3 27/159/3 3/160/3
f 1/161/4 71/63/4 25/162/4
f 8/163/4 70/54/4 30/164/4
f 68/51/3 32/165/3 5/166/3
f 74/46/44 38/121/44 22/167/44
f 2/19/5 64/35/5 10/168/5
f 6/37/5 63/32/5 15/169/5
f 4/22/6 62/29/6 12/170/6
f 7/40/6 61/26/6 13/171/6
f 13/172/4 64/15/4 16/173/4
f 9/174/3 62/175/3 63/10/3
f 95/120/45 112/176/45 98/153/45
f 89/122/46 100/177/46 103/178/46
f 93/146/47 105/179/47 91/180/47
f 92/154/48 108/181/48 94/182/48
f 87/147/49 102/183/49 88/184/49
f 85/185/50 102/186/50 99/187/50
f 90/95/51 111/188/51 97/96/51
f 85/185/52 100/189/52 86/190/52
f 40/148/53 92/154/53 94/182/53
f 36/132/54 85/185/54 86/190/54
f 35/150/55 87/147/55 88/184/55
f 33/107/56 83/92/56 57/108/56
f 36/47/57 89/122/57 78/48/57
f 35/44/58 85/185/58 58/45/58
f 39/101/59 90/95/59 79/102/59
f 39/118/60 93/146/60 91/180/60
f 114/191/6 102/192/6 101/193/6
f 113/194/5 81/195/5 82/196/5
f 113/194/5 111/197/5 104/198/5
f 100/199/6 114/191/6 103/200/6
f 110/201/6 114/191/6 109/202/6
f 105/203/5 113/194/5 104/198/5
f 108/204/5 113/194/5 107/205/5
f 114/191/6 112/206/6 109/202/6
f 90/95/61 105/207/61 104/208/61
f 92/154/62 81/209/62 106/210/62
f 93/146/63 108/211/63 107/212/63
f 87/147/64 112/213/64 101/214/64
f 95/120/65 110/215/65 109/216/65
f 83/92/66 81/217/66 84/93/66
f 89/122/67 110/218/67 96/123/67
f 83/92/68 111/219/68 82/220/68
f 15/1/1 14/221/1 44/2/1
f 10/4/2 11/222/2 42/5/2
f 48/7/2 8/223/2 30/8/2
f 63/10/3 62/175/3 14/11/3
f 61/13/4 11/224/4 10/14/4
f 1/16/1 25/225/1 49/17/1
f 2/19/5 10/168/5 41/20/5
f 4/22/6 12/170/6 42/23/6
f 3/25/6 11/136/6 61/26/6
f 8/28/6 14/134/6 62/29/6
f 1/31/5 9/137/5 63/32/5
f 5/34/5 16/135/5 64/35/5
f 6/37/5 15/169/5 43/38/5
f 7/40/6 13/171/6 44/41/6
f 54/43/69 19/226/69 35/44/69
f 74/46/8 20/227/8 36/47/8
f 2/49/3 26/228/3 72/50/3
f 66/52/4 4/229/4 28/53/4
f 3/55/1 27/230/1 50/56/1
f 5/58/2 32/231/2 51/59/2
f 67/61/4 6/232/4 31/62/4
f 7/64/3 29/233/3 69/65/3
f 18/67/70 26/155/70 49/68/70
f 54/70/71 20/157/71 28/71/71
f 19/73/43 27/126/43 69/74/43
f 22/76/42 30/124/42 70/77/42
f 17/79/41 25/127/41 71/80/41
f 24/82/40 32/125/40 72/83/40
f 55/85/72 23/156/72 31/86/72
f 21/88/73 29/158/73 52/89/73
f 34/91/17 57/108/17 83/92/17
f 33/94/18 79/102/18 90/95/18
f 55/97/74 24/234/74 40/98/74
f 75/100/20 23/235/20 39/101/20
f 73/103/75 21/236/75 37/104/75
f 53/106/76 17/237/76 33/107/76
f 56/109/77 22/238/77 38/110/77
f 76/112/24 18/239/24 34/113/24
f 56/109/78 60/111/78 37/115/78
f 53/106/79 57/108/79 34/91/79
f 55/97/80 59/99/80 39/118/80
f 38/110/28 96/240/28 95/120/28
f 38/121/29 78/48/29 89/122/29
f 56/90/73 52/89/73 30/124/73
f 24/82/81 55/85/81 51/87/81
f 19/73/82 54/70/82 50/72/82
f 53/69/70 49/68/70 25/127/70
f 47/60/2 51/59/2 31/128/2
f 46/57/1 50/56/1 28/130/1
f 54/43/83 58/45/83 36/132/83
f 8/28/6 48/42/6 44/41/6
f 5/34/5 47/39/5 43/38/5
f 3/25/6 46/24/6 42/23/6
f 1/31/5 45/21/5 41/20/5
f 45/18/1 49/17/1 26/138/1
f 48/7/2 52/9/2 29/140/2
f 9/142/2 41/6/2 42/5/2
f 16/144/1 43/3/1 44/2/1
f 40/98/33 94/241/33 93/146/33
f 37/104/84 98/242/84 87/147/84
f 76/112/35 80/114/35 40/148/35
f 73/103/36 77/105/36 35/150/36
f 75/100/37 79/102/37 33/94/37
f 37/115/38 60/111/38 95/120/38
f 34/113/85 84/243/85 92/154/85
f 18/67/86 76/84/86 72/83/86
f 23/156/87 75/81/87 71/80/87
f 20/157/88 74/78/88 70/77/88
f 21/88/89 73/75/89 69/74/89
f 65/66/3 69/65/3 27/159/3
f 1/161/4 67/61/4 71/63/4
f 8/163/4 66/52/4 70/54/4
f 68/51/3 72/50/3 32/165/3
f 74/46/90 78/48/90 38/121/90
f 2/19/5 68/36/5 64/35/5
f 6/37/5 67/33/5 63/32/5
f 4/22/6 66/30/6 62/29/6
f 7/40/6 65/27/6 61/26/6
f 13/172/4 61/13/4 64/15/4
f 9/174/3 12/244/3 62/175/3
f 95/120/91 109/216/91 112/176/91
f 89/122/46 86/245/46 100/177/46
f 93/146/47 107/212/47 105/179/47
f 92/154/48 106/210/48 108/181/48
f 87/147/49 101/214/49 102/183/49
f 85/185/50 88/246/50 102/186/50
f 90/95/51 104/208/51 111/188/51
f 85/185/52 99/187/52 100/189/52
f 40/148/92 80/114/92 92/154/92
f 36/132/54 58/45/54 85/185/54
f 35/150/93 77/105/93 87/147/93
f 33/107/56 97/247/56 83/92/56
f 36/47/57 86/245/57 89/122/57
f 35/44/58 88/246/58 85/185/58
f 39/101/59 91/248/59 90/95/59
f 39/118/60 59/99/60 93/146/60
f 114/191/6 99/249/6 102/192/6
f 113/194/5 106/250/5 81/195/5
f 113/194/5 82/196/5 111/197/5
f 100/199/6 99/249/6 114/191/6
f 110/201/6 103/200/6 114/191/6
f 105/203/5 107/205/5 113/194/5
f 108/204/5 106/250/5 113/194/5
f 114/191/6 101/193/6 112/206/6
f 90/95/94 91/248/94 105/207/94
f 92/154/62 84/243/62 81/209/62
f 93/146/63 94/241/63 108/211/63
f 87/147/95 98/242/95 112/213/95
f 95/120/96 96/240/96 110/215/96
f 83/92/66 82/220/66 81/217/66
f 89/122/67 103/178/67 110/218/67
f 83/92/68 97/247/68 111/219/68
