# Blender 4.2.1 LTS
# www.blender.org
mtllib floor_tile_1.mtl
g floor_tile_1_Mesh
v -0.910527 0.000000 0.910527
v -0.910527 0.111611 0.910527
v -0.910527 0.000000 -0.910527
v -0.910527 0.111611 -0.910527
v 0.910528 0.000000 0.910527
v 0.910528 0.000000 -0.910527
v 0.910528 0.111611 -0.910527
v 0.650377 0.000000 -0.910527
v 0.390227 0.000000 -0.910527
v 0.130075 0.000000 -0.910527
v -0.130075 0.000000 -0.910527
v -0.390226 0.000000 -0.910527
v -0.650377 0.000000 -0.910527
v -0.650376 0.111611 -0.910527
v -0.130075 0.111611 -0.910527
v 0.650377 0.111611 -0.910527
v -0.650376 0.000000 0.910527
v -0.390224 0.000000 0.910527
v -0.130075 0.000000 0.910527
v 0.130075 0.000000 0.910527
v 0.390227 0.000000 0.910527
v 0.650377 0.000000 0.910527
v 0.650377 0.111611 0.910527
v 0.390227 0.111611 0.910527
v 0.130075 0.111611 0.910527
v -0.390226 0.111611 0.910527
v -0.910527 0.000000 -0.650377
v -0.910527 0.000000 -0.390226
v -0.910527 0.000000 -0.130075
v -0.910527 0.000000 0.130075
v -0.910527 0.000000 0.390226
v -0.910527 0.000000 0.650377
v -0.910527 0.111611 0.130075
v -0.910527 0.111611 -0.130075
v -0.910527 0.111611 -0.390226
v -0.910527 0.111611 -0.650377
v 0.910528 0.000000 0.650377
v 0.910528 0.000000 0.390226
v 0.910528 0.000000 0.130075
v 0.910528 0.000000 -0.130075
v 0.910528 0.000000 -0.390226
v 0.910528 0.000000 -0.650377
v 0.910528 0.111611 0.130075
v 0.130075 0.111611 -0.650377
v 0.130075 0.111611 -0.390226
v -0.650376 0.111611 -0.650377
v -0.650376 0.111611 -0.130075
v -0.650377 0.111611 0.650377
v -0.650377 0.000000 -0.650377
v -0.650377 0.000000 -0.390226
v -0.650377 0.000000 -0.130075
v -0.650377 0.000000 0.130075
v -0.650377 0.000000 0.390226
v -0.650377 0.000000 0.650377
v -0.390226 0.000000 -0.650377
v -0.390226 0.000000 -0.390226
v -0.390226 0.000000 -0.130075
v -0.390226 0.000000 0.130075
v -0.390226 0.000000 0.390226
v -0.390224 0.000000 0.650377
v -0.130075 0.000000 -0.650377
v -0.130075 0.000000 -0.390226
v -0.130075 0.000000 -0.130075
v -0.130075 0.000000 0.130075
v -0.130075 0.000000 0.390226
v -0.130075 0.000000 0.650377
v 0.130075 0.000000 -0.650377
v 0.130075 0.000000 -0.390226
v 0.130075 0.000000 -0.130075
v 0.130075 0.000000 0.130075
v 0.130075 0.000000 0.390226
v 0.130075 0.000000 0.650377
v 0.390227 0.000000 -0.650377
v 0.390227 0.000000 -0.390226
v 0.390227 0.000000 -0.130075
v 0.390227 0.000000 0.130075
v 0.390227 0.000000 0.390226
v 0.390227 0.000000 0.650377
v 0.650377 0.000000 -0.650377
v 0.650377 0.000000 -0.390226
v 0.650377 0.000000 -0.130075
v 0.650377 0.000000 0.130075
v 0.650377 0.000000 0.390226
v 0.650377 0.000000 0.650377
v -0.658606 0.111611 0.658606
v -0.902299 0.111611 0.658606
v -0.902299 0.111611 0.902298
v -0.658606 0.111611 0.902298
v 0.902299 0.111611 0.658606
v 0.658606 0.111611 0.658606
v 0.658606 0.111611 0.902298
v 0.902299 0.111611 0.902298
v 0.642149 0.111611 0.658606
v 0.398455 0.111611 0.658606
v 0.398455 0.111611 0.902298
v 0.642149 0.111611 0.902298
v 0.381998 0.111611 0.658606
v 0.138304 0.111611 0.658606
v 0.138304 0.111611 0.902298
v 0.381998 0.111611 0.902298
v 0.121847 0.111611 0.658606
v -0.121846 0.111611 0.658606
v -0.121846 0.111611 0.902298
v 0.121847 0.111611 0.902298
v -0.138303 0.111611 0.658606
v -0.381996 0.111611 0.658606
v -0.381998 0.111611 0.902298
v -0.138303 0.111611 0.902298
v -0.398453 0.111611 0.658606
v -0.642149 0.111611 0.658606
v -0.642149 0.111611 0.902298
v -0.398454 0.111611 0.902298
v -0.398453 0.111611 -0.902298
v -0.642147 0.111611 -0.902298
v -0.642147 0.111611 -0.658605
v -0.398453 0.111611 -0.658605
v -0.398453 0.111611 -0.642148
v -0.642147 0.111611 -0.642148
v -0.642147 0.111611 -0.398455
v -0.398453 0.111611 -0.398455
v -0.398453 0.111611 -0.381997
v -0.642147 0.111611 -0.381997
v -0.642147 0.111611 -0.138304
v -0.398453 0.111611 -0.138304
v -0.398453 0.111611 -0.121846
v -0.642147 0.111611 -0.121846
v -0.642147 0.111611 0.121847
v -0.398453 0.111611 0.121847
v -0.398453 0.111611 0.138304
v -0.642147 0.111611 0.138304
v -0.642147 0.111611 0.381997
v -0.398453 0.111611 0.381997
v -0.398453 0.111611 0.398455
v -0.642147 0.111611 0.398455
v -0.642149 0.111611 0.642148
v -0.398453 0.111611 0.642148
v -0.138303 0.111611 -0.902298
v -0.381996 0.111611 -0.902298
v -0.381996 0.111611 -0.658605
v -0.138303 0.111611 -0.658605
v -0.138303 0.111611 -0.642148
v -0.381996 0.111611 -0.642148
v -0.381996 0.111611 -0.398455
v -0.138303 0.111611 -0.398455
v -0.138303 0.111611 -0.381997
v -0.381996 0.111611 -0.381997
v -0.381996 0.111611 -0.138304
v -0.138303 0.111611 -0.138304
v -0.138303 0.111611 -0.121846
v -0.381996 0.111611 -0.121846
v -0.381996 0.111611 0.121847
v -0.138303 0.111611 0.121847
v -0.138303 0.111611 0.138304
v -0.381996 0.111611 0.138304
v -0.381996 0.111611 0.381997
v -0.138303 0.111611 0.381997
v -0.138303 0.111611 0.398455
v -0.381996 0.111611 0.398455
v -0.381996 0.111611 0.642148
v -0.138303 0.111611 0.642148
v 0.121847 0.111611 -0.902298
v -0.121846 0.111611 -0.902298
v -0.121846 0.111611 -0.658605
v 0.121847 0.111611 -0.658605
v 0.121847 0.111611 -0.642148
v -0.121846 0.111611 -0.642148
v -0.121846 0.111611 -0.398455
v 0.121847 0.111611 -0.398455
v 0.121847 0.111611 -0.381997
v -0.121846 0.111611 -0.381997
v -0.121846 0.111611 -0.138304
v 0.121847 0.111611 -0.138304
v 0.121847 0.111611 -0.121846
v -0.121846 0.111611 -0.121846
v -0.121846 0.111611 0.121847
v 0.121847 0.111611 0.121847
v 0.121847 0.111611 0.138304
v -0.121846 0.111611 0.138304
v -0.121846 0.111611 0.381997
v 0.121847 0.111611 0.381997
v 0.121847 0.111611 0.398455
v -0.121846 0.111611 0.398455
v -0.121846 0.111611 0.642148
v 0.121847 0.111611 0.642148
v 0.381998 0.111611 -0.902298
v 0.138304 0.111611 -0.902298
v 0.138304 0.111611 -0.658605
v 0.381998 0.111611 -0.658605
v 0.381998 0.111611 -0.642148
v 0.138304 0.111611 -0.642148
v 0.138304 0.111611 -0.398455
v 0.381998 0.111611 -0.398455
v 0.381998 0.111611 -0.381997
v 0.138304 0.111611 -0.381997
v 0.138304 0.111611 -0.138304
v 0.381998 0.111611 -0.138304
v 0.381998 0.111611 -0.121846
v 0.138304 0.111611 -0.121846
v 0.138304 0.111611 0.121847
v 0.381998 0.111611 0.121847
v 0.381998 0.111611 0.138304
v 0.138304 0.111611 0.138304
v 0.138304 0.111611 0.381997
v 0.381998 0.111611 0.381997
v 0.381998 0.111611 0.398455
v 0.138304 0.111611 0.398455
v 0.138304 0.111611 0.642148
v 0.381998 0.111611 0.642148
v 0.642149 0.111611 -0.902298
v 0.398455 0.111611 -0.902298
v 0.398455 0.111611 -0.658605
v 0.642149 0.111611 -0.658605
v 0.642149 0.111611 -0.642148
v 0.398455 0.111611 -0.642148
v 0.398455 0.111611 -0.398455
v 0.642149 0.111611 -0.398455
v 0.642149 0.111611 -0.381997
v 0.398455 0.111611 -0.381997
v 0.398455 0.111611 -0.138304
v 0.642149 0.111611 -0.138304
v 0.642149 0.111611 -0.121846
v 0.398455 0.111611 -0.121846
v 0.398455 0.111611 0.121847
v 0.642149 0.111611 0.121847
v 0.642149 0.111611 0.138304
v 0.398455 0.111611 0.138304
v 0.398455 0.111611 0.381997
v 0.642149 0.111611 0.381997
v 0.642149 0.111611 0.398455
v 0.398455 0.111611 0.398455
v 0.398455 0.111611 0.642148
v 0.642149 0.111611 0.642148
v 0.902299 0.111611 -0.902298
v 0.658606 0.111611 -0.902298
v 0.658606 0.111611 -0.658605
v 0.902299 0.111611 -0.658605
v 0.902299 0.111611 -0.642148
v 0.658606 0.111611 -0.642148
v 0.658606 0.111611 -0.398455
v 0.902299 0.111611 -0.398455
v 0.902299 0.111611 -0.381997
v 0.658606 0.111611 -0.381997
v 0.658606 0.111611 -0.138304
v 0.902299 0.111611 -0.138304
v 0.902299 0.111611 -0.121846
v 0.658606 0.111611 -0.121846
v 0.658606 0.111611 0.121847
v 0.902299 0.111611 0.121847
v 0.902299 0.111611 0.138304
v 0.658606 0.111611 0.138304
v 0.658606 0.111611 0.381997
v 0.902299 0.111611 0.381997
v 0.902299 0.111611 0.398455
v 0.658606 0.111611 0.398455
v 0.658606 0.111611 0.642148
v 0.902299 0.111611 0.642148
v -0.658604 0.111611 -0.902298
v -0.902299 0.111611 -0.902298
v -0.902299 0.111611 -0.658605
v -0.658604 0.111611 -0.658605
v -0.658604 0.111611 -0.642148
v -0.902299 0.111611 -0.642148
v -0.902299 0.111611 -0.398455
v -0.658604 0.111611 -0.398455
v -0.658604 0.111611 -0.381997
v -0.902299 0.111611 -0.381997
v -0.902299 0.111611 -0.138304
v -0.658604 0.111611 -0.138304
v -0.658604 0.111611 -0.121846
v -0.902299 0.111611 -0.121846
v -0.902299 0.111611 0.121847
v -0.658604 0.111611 0.121847
v -0.658604 0.111611 0.138304
v -0.902299 0.111611 0.138304
v -0.902299 0.111611 0.381997
v -0.658604 0.111611 0.381997
v -0.658604 0.111611 0.398455
v -0.902299 0.111611 0.398455
v -0.902299 0.111611 0.642148
v -0.658606 0.111611 0.642148
v -0.650377 0.111611 0.910527
v 0.910528 0.111611 0.910527
v -0.390224 0.111611 0.650377
v -0.130075 0.111611 0.650377
v -0.130075 0.111611 0.910527
v -0.390224 0.111611 -0.650377
v -0.650376 0.111611 -0.390226
v -0.390224 0.111611 -0.390226
v -0.390224 0.111611 -0.130075
v -0.650376 0.111611 0.130075
v -0.390224 0.111611 0.130075
v -0.650376 0.111611 0.390226
v -0.390224 0.111611 0.390226
v -0.390224 0.111611 -0.910527
v -0.130075 0.111611 -0.650377
v -0.130075 0.111611 -0.390226
v -0.130075 0.111611 -0.130075
v -0.130075 0.111611 0.130075
v -0.130075 0.111611 0.390226
v 0.130075 0.111611 0.130075
v 0.130075 0.111611 -0.910527
v 0.390227 0.111611 -0.910527
v 0.390227 0.111611 -0.390226
v 0.130075 0.111611 -0.130075
v 0.390227 0.111611 -0.130075
v 0.390227 0.111611 0.130075
v 0.130075 0.111611 0.390226
v 0.130075 0.111611 0.650377
v 0.390227 0.111611 -0.650377
v 0.650377 0.111611 0.130075
v 0.390227 0.111611 0.390226
v 0.390227 0.111611 0.650377
v 0.650377 0.111611 -0.650377
v 0.910528 0.111611 -0.650377
v 0.910528 0.111611 -0.390226
v 0.650377 0.111611 -0.390226
v 0.650377 0.111611 -0.130075
v 0.910528 0.111611 -0.130075
v 0.650377 0.111611 0.390226
v 0.910528 0.111611 0.390226
v 0.650377 0.111611 0.650377
v 0.910528 0.111611 0.650377
v -0.910527 0.111611 0.390226
v -0.910527 0.111611 0.650377
v -0.902299 0.117858 0.658606
v -0.658606 0.117858 0.658606
v -0.902299 0.117858 0.902298
v -0.658606 0.117858 0.902298
v 0.658606 0.117858 0.658606
v 0.902299 0.117858 0.658606
v 0.658606 0.117858 0.902298
v 0.902299 0.117858 0.902298
v 0.398455 0.117858 0.658606
v 0.642149 0.117858 0.658606
v 0.398455 0.117858 0.902298
v 0.642149 0.117858 0.902298
v 0.138304 0.117858 0.658606
v 0.381998 0.117858 0.658606
v 0.138304 0.117858 0.902298
v 0.381998 0.117858 0.902298
v -0.121846 0.117858 0.658606
v 0.121847 0.117858 0.658606
v -0.121846 0.117858 0.902298
v 0.121847 0.117858 0.902298
v -0.381996 0.117858 0.658606
v -0.138303 0.117858 0.658606
v -0.381998 0.117858 0.902298
v -0.138303 0.117858 0.902298
v -0.642149 0.117858 0.658606
v -0.398453 0.117858 0.658606
v -0.642149 0.117858 0.902298
v -0.398454 0.117858 0.902298
v -0.642147 0.117858 -0.902298
v -0.398453 0.117858 -0.902298
v -0.642147 0.117858 -0.658605
v -0.398453 0.117858 -0.658605
v -0.642147 0.117858 -0.642148
v -0.398453 0.117858 -0.642148
v -0.642147 0.117858 -0.398455
v -0.398453 0.117858 -0.398455
v -0.642147 0.117858 -0.381997
v -0.398453 0.117858 -0.381997
v -0.642147 0.117858 -0.138304
v -0.398453 0.117858 -0.138304
v -0.642147 0.117858 -0.121846
v -0.398453 0.117858 -0.121846
v -0.642147 0.117858 0.121847
v -0.398453 0.117858 0.121847
v -0.642147 0.117858 0.138304
v -0.398453 0.117858 0.138304
v -0.642147 0.117858 0.381997
v -0.398453 0.117858 0.381997
v -0.642147 0.117858 0.398455
v -0.398453 0.117858 0.398455
v -0.642149 0.117858 0.642148
v -0.398453 0.117858 0.642148
v -0.381996 0.117858 -0.902298
v -0.138303 0.117858 -0.902298
v -0.381996 0.117858 -0.658605
v -0.138303 0.117858 -0.658605
v -0.381996 0.117858 -0.642148
v -0.138303 0.117858 -0.642148
v -0.381996 0.117858 -0.398455
v -0.138303 0.117858 -0.398455
v -0.381996 0.117858 -0.381997
v -0.138303 0.117858 -0.381997
v -0.381996 0.117858 -0.138304
v -0.138303 0.117858 -0.138304
v -0.381996 0.117858 -0.121846
v -0.138303 0.117858 -0.121846
v -0.381996 0.117858 0.121847
v -0.138303 0.117858 0.121847
v -0.381996 0.117858 0.138304
v -0.138303 0.117858 0.138304
v -0.381996 0.117858 0.381997
v -0.138303 0.117858 0.381997
v -0.381996 0.117858 0.398455
v -0.138303 0.117858 0.398455
v -0.381996 0.117858 0.642148
v -0.138303 0.117858 0.642148
v -0.121846 0.117858 -0.902298
v 0.121847 0.117858 -0.902298
v -0.121846 0.117858 -0.658605
v 0.121847 0.117858 -0.658605
v -0.121846 0.117858 -0.642148
v 0.121847 0.117858 -0.642148
v -0.121846 0.117858 -0.398455
v 0.121847 0.117858 -0.398455
v -0.121846 0.117858 -0.381997
v 0.121847 0.117858 -0.381997
v -0.121846 0.117858 -0.138304
v 0.121847 0.117858 -0.138304
v -0.121846 0.117858 -0.121846
v 0.121847 0.117858 -0.121846
v -0.121846 0.117858 0.121847
v 0.121847 0.117858 0.121847
v -0.121846 0.117858 0.138304
v 0.121847 0.117858 0.138304
v -0.121846 0.117858 0.381997
v 0.121847 0.117858 0.381997
v -0.121846 0.117858 0.398455
v 0.121847 0.117858 0.398455
v -0.121846 0.117858 0.642148
v 0.121847 0.117858 0.642148
v 0.138304 0.117858 -0.902298
v 0.381998 0.117858 -0.902298
v 0.138304 0.117858 -0.658605
v 0.381998 0.117858 -0.658605
v 0.138304 0.117858 -0.642148
v 0.381998 0.117858 -0.642148
v 0.138304 0.117858 -0.398455
v 0.381998 0.117858 -0.398455
v 0.138304 0.117858 -0.381997
v 0.381998 0.117858 -0.381997
v 0.138304 0.117858 -0.138304
v 0.381998 0.117858 -0.138304
v 0.138304 0.117858 -0.121846
v 0.381998 0.117858 -0.121846
v 0.138304 0.117858 0.121847
v 0.381998 0.117858 0.121847
v 0.138304 0.117858 0.138304
v 0.381998 0.117858 0.138304
v 0.138304 0.117858 0.381997
v 0.381998 0.117858 0.381997
v 0.138304 0.117858 0.398455
v 0.381998 0.117858 0.398455
v 0.138304 0.117858 0.642148
v 0.381998 0.117858 0.642148
v 0.398455 0.117858 -0.902298
v 0.642149 0.117858 -0.902298
v 0.398455 0.117858 -0.658605
v 0.642149 0.117858 -0.658605
v 0.398455 0.117858 -0.642148
v 0.642149 0.117858 -0.642148
v 0.398455 0.117858 -0.398455
v 0.642149 0.117858 -0.398455
v 0.398455 0.117858 -0.381997
v 0.642149 0.117858 -0.381997
v 0.398455 0.117858 -0.138304
v 0.642149 0.117858 -0.138304
v 0.398455 0.117858 -0.121846
v 0.642149 0.117858 -0.121846
v 0.398455 0.117858 0.121847
v 0.642149 0.117858 0.121847
v 0.398455 0.117858 0.138304
v 0.642149 0.117858 0.138304
v 0.398455 0.117858 0.381997
v 0.642149 0.117858 0.381997
v 0.398455 0.117858 0.398455
v 0.642149 0.117858 0.398455
v 0.398455 0.117858 0.642148
v 0.642149 0.117858 0.642148
v 0.658606 0.117858 -0.902298
v 0.902299 0.117858 -0.902298
v 0.658606 0.117858 -0.658605
v 0.902299 0.117858 -0.658605
v 0.658606 0.117858 -0.642148
v 0.902299 0.117858 -0.642148
v 0.658606 0.117858 -0.398455
v 0.902299 0.117858 -0.398455
v 0.658606 0.117858 -0.381997
v 0.902299 0.117858 -0.381997
v 0.658606 0.117858 -0.138304
v 0.902299 0.117858 -0.138304
v 0.658606 0.117858 -0.121846
v 0.902299 0.117858 -0.121846
v 0.658606 0.117858 0.121847
v 0.902299 0.117858 0.121847
v 0.658606 0.117858 0.138304
v 0.902299 0.117858 0.138304
v 0.658606 0.117858 0.381997
v 0.902299 0.117858 0.381997
v 0.658606 0.117858 0.398455
v 0.902299 0.117858 0.398455
v 0.658606 0.117858 0.642148
v 0.902299 0.117858 0.642148
v -0.902299 0.117858 -0.902298
v -0.658604 0.117858 -0.902298
v -0.902299 0.117858 -0.658605
v -0.658604 0.117858 -0.658605
v -0.902299 0.117858 -0.642148
v -0.658604 0.117858 -0.642148
v -0.902299 0.117858 -0.398455
v -0.658604 0.117858 -0.398455
v -0.902299 0.117858 -0.381997
v -0.658604 0.117858 -0.381997
v -0.902299 0.117858 -0.138304
v -0.658604 0.117858 -0.138304
v -0.902299 0.117858 -0.121846
v -0.658604 0.117858 -0.121846
v -0.902299 0.117858 0.121847
v -0.658604 0.117858 0.121847
v -0.902299 0.117858 0.138304
v -0.658604 0.117858 0.138304
v -0.902299 0.117858 0.381997
v -0.658604 0.117858 0.381997
v -0.902299 0.117858 0.398455
v -0.658604 0.117858 0.398455
v -0.902299 0.117858 0.642148
v -0.658606 0.117858 0.642148
vn -1.0000 -0.0000 -0.0000
vn -0.0000 -0.0000 -1.0000
vn 1.0000 -0.0000 -0.0000
vn -0.0000 -0.0000 1.0000
vn -0.0000 -1.0000 -0.0000
vn -0.0000 1.0000 -0.0000
vt 0.819382 0.460412
vt 0.809036 0.460831
vt 0.809036 0.460412
vt 0.819382 0.463340
vt 0.809036 0.463758
vt 0.809036 0.463340
vt 0.819382 0.466267
vt 0.809036 0.466686
vt 0.809036 0.466267
vt 0.819382 0.469195
vt 0.809036 0.469613
vt 0.809036 0.469195
vt 0.807557 0.466686
vt 0.807557 0.466267
vt 0.800167 0.466267
vt 0.798689 0.466686
vt 0.798689 0.466267
vt 0.801645 0.466267
vt 0.800167 0.466686
vt 0.803123 0.466267
vt 0.801645 0.466686
vt 0.804601 0.466267
vt 0.803123 0.466686
vt 0.806079 0.466267
vt 0.804601 0.466686
vt 0.806079 0.466686
vt 0.819382 0.466686
vt 0.809036 0.467104
vt 0.819382 0.467104
vt 0.809036 0.467522
vt 0.819382 0.467522
vt 0.809036 0.467940
vt 0.819382 0.467940
vt 0.809036 0.468359
vt 0.819382 0.468359
vt 0.809036 0.468777
vt 0.819382 0.468777
vt 0.819382 0.460831
vt 0.809036 0.461249
vt 0.819382 0.461249
vt 0.809036 0.461667
vt 0.819382 0.461667
vt 0.809036 0.462085
vt 0.066640 0.885474
vt 0.064101 0.885576
vt 0.064101 0.885474
vt 0.066640 0.885576
vt 0.064101 0.885679
vt 0.819382 0.462922
vt 0.809036 0.462922
vt 0.807557 0.463758
vt 0.806079 0.464176
vt 0.806079 0.463758
vt 0.807557 0.464176
vt 0.806079 0.464595
vt 0.807557 0.464595
vt 0.806079 0.465013
vt 0.807557 0.465013
vt 0.806079 0.465431
vt 0.807557 0.465431
vt 0.806079 0.465849
vt 0.807557 0.465849
vt 0.803549 0.464797
vt 0.803186 0.464900
vt 0.803186 0.464797
vt 0.804601 0.464595
vt 0.804601 0.464176
vt 0.804601 0.465013
vt 0.804832 0.465067
vt 0.804469 0.465170
vt 0.804469 0.465067
vt 0.804601 0.465849
vt 0.804601 0.465431
vt 0.804832 0.465272
vt 0.804469 0.465375
vt 0.804469 0.465272
vt 0.804601 0.463758
vt 0.803123 0.464176
vt 0.803123 0.463758
vt 0.803123 0.464595
vt 0.803123 0.465013
vt 0.803123 0.465431
vt 0.804107 0.465272
vt 0.804107 0.465170
vt 0.803123 0.465849
vt 0.804107 0.464759
vt 0.803744 0.464862
vt 0.803744 0.464759
vt 0.801645 0.464595
vt 0.801645 0.464176
vt 0.801645 0.465013
vt 0.804107 0.465067
vt 0.803744 0.465170
vt 0.803744 0.465067
vt 0.801645 0.465849
vt 0.801645 0.465431
vt 0.803744 0.465375
vt 0.803744 0.465272
vt 0.801645 0.463758
vt 0.800167 0.464176
vt 0.800167 0.463758
vt 0.800167 0.464595
vt 0.800167 0.465013
vt 0.800167 0.465431
vt 0.800167 0.465849
vt 0.798689 0.464176
vt 0.798689 0.463758
vt 0.798689 0.464595
vt 0.798689 0.465013
vt 0.798689 0.465431
vt 0.798689 0.465849
vt 0.809036 0.464176
vt 0.809036 0.464595
vt 0.809036 0.465013
vt 0.809036 0.465431
vt 0.809036 0.465849
vt 0.819382 0.463758
vt 0.819382 0.464176
vt 0.819382 0.464595
vt 0.066640 0.886192
vt 0.064101 0.886295
vt 0.064101 0.886192
vt 0.819382 0.465431
vt 0.819382 0.465849
vt 0.819382 0.457903
vt 0.809036 0.458321
vt 0.809036 0.457903
vt 0.819382 0.458321
vt 0.809036 0.458739
vt 0.819382 0.458739
vt 0.809036 0.459158
vt 0.819382 0.459158
vt 0.809036 0.459576
vt 0.819382 0.459576
vt 0.809036 0.459994
vt 0.819382 0.459994
vt 0.822292 0.464163
vt 0.822292 0.463771
vt 0.826726 0.466281
vt 0.825342 0.466281
vt 0.820907 0.463771
vt 0.823864 0.466281
vt 0.823864 0.466672
vt 0.066585 0.886212
vt 0.066585 0.886308
vt 0.825248 0.466672
vt 0.066924 0.886308
vt 0.825248 0.466281
vt 0.066924 0.886212
vt 0.822385 0.466281
vt 0.822385 0.466672
vt 0.822385 0.465444
vt 0.822385 0.465836
vt 0.823770 0.466672
vt 0.823770 0.465836
vt 0.823770 0.466281
vt 0.823770 0.465444
vt 0.820907 0.466281
vt 0.820907 0.466672
vt 0.066585 0.886007
vt 0.066585 0.886103
vt 0.822292 0.466672
vt 0.066924 0.886103
vt 0.822292 0.466281
vt 0.066924 0.886007
vt 0.819429 0.466281
vt 0.819429 0.466672
vt 0.822385 0.464608
vt 0.822385 0.465000
vt 0.820814 0.466672
vt 0.823770 0.465000
vt 0.820814 0.466281
vt 0.823770 0.464608
vt 0.828298 0.466281
vt 0.828298 0.466672
vt 0.822385 0.464190
vt 0.822385 0.464581
vt 0.829683 0.466672
vt 0.823770 0.464581
vt 0.829683 0.466281
vt 0.823770 0.464190
vt 0.066585 0.885699
vt 0.066585 0.885795
vt 0.066924 0.885795
vt 0.066924 0.885699
vt 0.823864 0.465862
vt 0.823864 0.466254
vt 0.825248 0.466254
vt 0.064608 0.880959
vt 0.065510 0.880951
vt 0.065481 0.880959
vt 0.070460 0.879684
vt 0.070474 0.879561
vt 0.070474 0.879688
vt 0.066711 0.882437
vt 0.065809 0.882445
vt 0.065839 0.882437
vt 0.070039 0.879684
vt 0.070025 0.879561
vt 0.070039 0.879565
vt 0.059021 0.880959
vt 0.059923 0.880951
vt 0.059893 0.880959
vt 0.067765 0.879684
vt 0.067779 0.879561
vt 0.067779 0.879688
vt 0.061124 0.882437
vt 0.060222 0.882445
vt 0.060251 0.882437
vt 0.067344 0.879684
vt 0.067330 0.879561
vt 0.067344 0.879565
vt 0.059952 0.880959
vt 0.060854 0.880951
vt 0.060824 0.880959
vt 0.068214 0.879684
vt 0.068228 0.879561
vt 0.068228 0.879688
vt 0.062055 0.882437
vt 0.061153 0.882445
vt 0.061183 0.882437
vt 0.067793 0.879684
vt 0.067793 0.879565
vt 0.060883 0.880959
vt 0.061785 0.880951
vt 0.061756 0.880959
vt 0.068663 0.879684
vt 0.068678 0.879561
vt 0.068678 0.879688
vt 0.062986 0.882437
vt 0.062084 0.882445
vt 0.062114 0.882437
vt 0.068243 0.879684
vt 0.068243 0.879565
vt 0.062687 0.880959
vt 0.062716 0.880951
vt 0.069112 0.879684
vt 0.069127 0.879561
vt 0.069127 0.879688
vt 0.063917 0.882437
vt 0.063016 0.882445
vt 0.063045 0.882437
vt 0.068692 0.879684
vt 0.068692 0.879565
vt 0.062746 0.880959
vt 0.063648 0.880951
vt 0.063618 0.880959
vt 0.069562 0.879684
vt 0.069576 0.879561
vt 0.069576 0.879688
vt 0.064849 0.882437
vt 0.063947 0.882445
vt 0.063976 0.882437
vt 0.069141 0.879684
vt 0.069141 0.879565
vt 0.063677 0.880959
vt 0.064579 0.880951
vt 0.064549 0.880959
vt 0.070011 0.879684
vt 0.070025 0.879688
vt 0.065780 0.882437
vt 0.064878 0.882445
vt 0.064908 0.882437
vt 0.069590 0.879684
vt 0.069590 0.879565
vt 0.064292 0.883685
vt 0.065194 0.883677
vt 0.065165 0.883685
vt 0.070011 0.878802
vt 0.070025 0.878925
vt 0.070011 0.878921
vt 0.064292 0.883932
vt 0.065194 0.883940
vt 0.064263 0.883940
vt 0.069590 0.878802
vt 0.069576 0.878925
vt 0.069576 0.878798
vt 0.064292 0.883949
vt 0.065165 0.883949
vt 0.070011 0.879048
vt 0.070025 0.879052
vt 0.064292 0.884196
vt 0.065194 0.884204
vt 0.064263 0.884204
vt 0.069590 0.879048
vt 0.069590 0.878929
vt 0.064292 0.884212
vt 0.065165 0.884212
vt 0.070011 0.879175
vt 0.070025 0.879179
vt 0.063677 0.880152
vt 0.064579 0.880161
vt 0.063648 0.880161
vt 0.069590 0.879175
vt 0.069576 0.879052
vt 0.069590 0.879056
vt 0.063677 0.880169
vt 0.064549 0.880169
vt 0.070011 0.879302
vt 0.070025 0.879306
vt 0.063677 0.880416
vt 0.064579 0.880424
vt 0.063648 0.880424
vt 0.069590 0.879302
vt 0.069576 0.879179
vt 0.069590 0.879183
vt 0.063677 0.880432
vt 0.064549 0.880432
vt 0.070011 0.879430
vt 0.070025 0.879434
vt 0.063677 0.880679
vt 0.064579 0.880688
vt 0.063648 0.880688
vt 0.069590 0.879430
vt 0.069576 0.879306
vt 0.069590 0.879310
vt 0.063677 0.880696
vt 0.064549 0.880696
vt 0.070011 0.879557
vt 0.063677 0.880943
vt 0.069590 0.879557
vt 0.069576 0.879434
vt 0.069590 0.879438
vt 0.066416 0.886519
vt 0.066767 0.886515
vt 0.066756 0.886519
vt 0.067246 0.886994
vt 0.067251 0.887042
vt 0.067246 0.887041
vt 0.066756 0.886615
vt 0.066404 0.886618
vt 0.066416 0.886615
vt 0.067082 0.886994
vt 0.067076 0.887042
vt 0.067076 0.886993
vt 0.063361 0.883949
vt 0.064233 0.883949
vt 0.069562 0.879048
vt 0.064233 0.884196
vt 0.063332 0.884204
vt 0.063361 0.884196
vt 0.069141 0.878929
vt 0.069127 0.879052
vt 0.069127 0.878925
vt 0.063361 0.884212
vt 0.064233 0.884212
vt 0.069562 0.879175
vt 0.063618 0.880152
vt 0.062716 0.880161
vt 0.062746 0.880152
vt 0.069141 0.879056
vt 0.069127 0.879179
vt 0.066252 0.887300
vt 0.066603 0.887297
vt 0.066591 0.887300
vt 0.067246 0.887189
vt 0.067251 0.887141
vt 0.067251 0.887191
vt 0.066893 0.885056
vt 0.066542 0.885060
vt 0.066554 0.885056
vt 0.067082 0.887143
vt 0.067076 0.887191
vt 0.067076 0.887141
vt 0.062746 0.880432
vt 0.063618 0.880432
vt 0.069562 0.879430
vt 0.063618 0.880679
vt 0.062716 0.880688
vt 0.062746 0.880679
vt 0.069141 0.879310
vt 0.069127 0.879434
vt 0.069127 0.879306
vt 0.066554 0.885165
vt 0.066905 0.885162
vt 0.066893 0.885165
vt 0.067246 0.887288
vt 0.067251 0.887240
vt 0.067251 0.887290
vt 0.066893 0.885262
vt 0.066542 0.885265
vt 0.066554 0.885262
vt 0.067082 0.887242
vt 0.067076 0.887290
vt 0.067076 0.887240
vt 0.062430 0.883685
vt 0.063332 0.883677
vt 0.063302 0.883685
vt 0.069112 0.878802
vt 0.069112 0.878921
vt 0.063302 0.883932
vt 0.062400 0.883940
vt 0.062430 0.883932
vt 0.068692 0.878802
vt 0.068678 0.878925
vt 0.068678 0.878798
vt 0.063302 0.883949
vt 0.063332 0.883940
vt 0.069112 0.878929
vt 0.069112 0.879048
vt 0.063302 0.884196
vt 0.062400 0.884204
vt 0.062430 0.884196
vt 0.068692 0.879048
vt 0.068692 0.878929
vt 0.063302 0.884212
vt 0.069112 0.879056
vt 0.069112 0.879175
vt 0.062687 0.880152
vt 0.061785 0.880161
vt 0.061815 0.880152
vt 0.068692 0.879175
vt 0.068678 0.879052
vt 0.068692 0.879056
vt 0.062687 0.880169
vt 0.069112 0.879183
vt 0.069112 0.879302
vt 0.062687 0.880416
vt 0.061785 0.880424
vt 0.061815 0.880416
vt 0.068692 0.879302
vt 0.068678 0.879179
vt 0.068692 0.879183
vt 0.066531 0.885063
vt 0.066179 0.885060
vt 0.067071 0.887192
vt 0.067071 0.887239
vt 0.066531 0.885159
vt 0.066179 0.885162
vt 0.066191 0.885159
vt 0.066907 0.887239
vt 0.066901 0.887191
vt 0.066907 0.887192
vt 0.062687 0.880696
vt 0.061785 0.880688
vt 0.069112 0.879438
vt 0.069112 0.879557
vt 0.062687 0.880943
vt 0.061815 0.880943
vt 0.068692 0.879557
vt 0.068678 0.879434
vt 0.068692 0.879438
vt 0.066068 0.886330
vt 0.066419 0.886327
vt 0.066408 0.886330
vt 0.066896 0.886994
vt 0.066901 0.887042
vt 0.066896 0.887041
vt 0.066408 0.886426
vt 0.066056 0.886429
vt 0.066068 0.886426
vt 0.066732 0.886994
vt 0.066727 0.887042
vt 0.066727 0.886993
vt 0.061499 0.883949
vt 0.062371 0.883949
vt 0.068663 0.879048
vt 0.062371 0.884196
vt 0.061469 0.884204
vt 0.061499 0.884196
vt 0.068243 0.878929
vt 0.068228 0.879052
vt 0.068228 0.878925
vt 0.061499 0.884212
vt 0.062371 0.884212
vt 0.068663 0.879175
vt 0.061756 0.880152
vt 0.060854 0.880161
vt 0.060883 0.880152
vt 0.068243 0.879056
vt 0.068228 0.879179
vt 0.065526 0.887300
vt 0.065877 0.887297
vt 0.065866 0.887300
vt 0.066896 0.887189
vt 0.066901 0.887141
vt 0.066168 0.885056
vt 0.065817 0.885060
vt 0.065828 0.885056
vt 0.066732 0.887143
vt 0.066727 0.887191
vt 0.066727 0.887141
vt 0.060883 0.880432
vt 0.061756 0.880432
vt 0.068663 0.879430
vt 0.068678 0.879306
vt 0.061756 0.880679
vt 0.060854 0.880688
vt 0.060883 0.880679
vt 0.068243 0.879310
vt 0.068228 0.879434
vt 0.068228 0.879306
vt 0.065828 0.885165
vt 0.066168 0.885165
vt 0.066896 0.887288
vt 0.066901 0.887240
vt 0.066901 0.887290
vt 0.066168 0.885262
vt 0.065817 0.885265
vt 0.065828 0.885262
vt 0.066732 0.887242
vt 0.066727 0.887290
vt 0.066727 0.887240
vt 0.061440 0.883685
vt 0.060538 0.883677
vt 0.061469 0.883677
vt 0.068214 0.878802
vt 0.068214 0.878921
vt 0.061440 0.883932
vt 0.060538 0.883940
vt 0.060567 0.883932
vt 0.067793 0.878802
vt 0.067779 0.878925
vt 0.067779 0.878798
vt 0.060567 0.883949
vt 0.061469 0.883940
vt 0.061440 0.883949
vt 0.068214 0.879048
vt 0.061440 0.884196
vt 0.060538 0.884204
vt 0.060567 0.884196
vt 0.067793 0.878929
vt 0.067779 0.879052
vt 0.060567 0.884212
vt 0.061440 0.884212
vt 0.068214 0.879175
vt 0.060824 0.880152
vt 0.059923 0.880161
vt 0.059952 0.880152
vt 0.067793 0.879056
vt 0.067779 0.879179
vt 0.059952 0.880169
vt 0.060824 0.880169
vt 0.068214 0.879302
vt 0.060824 0.880416
vt 0.059923 0.880424
vt 0.059952 0.880416
vt 0.067793 0.879183
vt 0.067779 0.879306
vt 0.059952 0.880432
vt 0.060854 0.880424
vt 0.060824 0.880432
vt 0.068214 0.879430
vt 0.060824 0.880679
vt 0.059923 0.880688
vt 0.059952 0.880679
vt 0.067793 0.879310
vt 0.067779 0.879434
vt 0.059952 0.880696
vt 0.060824 0.880696
vt 0.068214 0.879557
vt 0.060824 0.880943
vt 0.059952 0.880943
vt 0.067793 0.879438
vt 0.060508 0.883685
vt 0.059607 0.883677
vt 0.067765 0.878802
vt 0.067765 0.878921
vt 0.060508 0.883932
vt 0.059607 0.883940
vt 0.059636 0.883932
vt 0.067344 0.878802
vt 0.067330 0.878925
vt 0.067330 0.878798
vt 0.059636 0.883949
vt 0.060508 0.883949
vt 0.067765 0.878929
vt 0.067765 0.879048
vt 0.060508 0.884196
vt 0.059607 0.884204
vt 0.059636 0.884196
vt 0.067344 0.878929
vt 0.067330 0.879052
vt 0.059636 0.884212
vt 0.060508 0.884212
vt 0.067765 0.879056
vt 0.067765 0.879175
vt 0.059893 0.880152
vt 0.058991 0.880161
vt 0.059021 0.880152
vt 0.067344 0.879056
vt 0.067330 0.879179
vt 0.059021 0.880169
vt 0.059893 0.880169
vt 0.067765 0.879183
vt 0.067765 0.879302
vt 0.059893 0.880416
vt 0.058991 0.880424
vt 0.059021 0.880416
vt 0.067344 0.879183
vt 0.067330 0.879306
vt 0.059021 0.880432
vt 0.059893 0.880432
vt 0.067765 0.879310
vt 0.067765 0.879430
vt 0.059893 0.880679
vt 0.058991 0.880688
vt 0.059021 0.880679
vt 0.067344 0.879310
vt 0.067330 0.879434
vt 0.059021 0.880696
vt 0.059893 0.880696
vt 0.067765 0.879438
vt 0.067765 0.879557
vt 0.059893 0.880943
vt 0.058991 0.880951
vt 0.059021 0.880943
vt 0.067344 0.879438
vt 0.065224 0.883685
vt 0.066125 0.883677
vt 0.066096 0.883685
vt 0.070460 0.878802
vt 0.070474 0.878925
vt 0.070460 0.878921
vt 0.065224 0.883932
vt 0.066125 0.883940
vt 0.070039 0.878802
vt 0.070025 0.878798
vt 0.065224 0.883949
vt 0.066096 0.883949
vt 0.070460 0.879048
vt 0.070474 0.879052
vt 0.065224 0.884196
vt 0.066125 0.884204
vt 0.070039 0.879048
vt 0.070039 0.878929
vt 0.065224 0.884212
vt 0.066096 0.884212
vt 0.070460 0.879175
vt 0.070474 0.879179
vt 0.064608 0.880152
vt 0.065510 0.880161
vt 0.070039 0.879175
vt 0.070039 0.879056
vt 0.064608 0.880169
vt 0.065481 0.880169
vt 0.070460 0.879302
vt 0.070474 0.879306
vt 0.064608 0.880416
vt 0.065510 0.880424
vt 0.070039 0.879302
vt 0.070039 0.879183
vt 0.064608 0.880432
vt 0.065481 0.880432
vt 0.070460 0.879430
vt 0.070474 0.879434
vt 0.064608 0.880679
vt 0.065510 0.880688
vt 0.070039 0.879430
vt 0.070039 0.879310
vt 0.064608 0.880696
vt 0.065481 0.880696
vt 0.070460 0.879557
vt 0.065481 0.880943
vt 0.064608 0.880943
vt 0.070039 0.879438
vt 0.825342 0.466672
vt 0.828204 0.466281
vt 0.826820 0.466672
vt 0.826820 0.466281
vt 0.828204 0.463771
vt 0.826820 0.464163
vt 0.826820 0.463771
vt 0.830890 0.480791
vt 0.829505 0.481183
vt 0.829505 0.480791
vt 0.828204 0.464608
vt 0.826820 0.465000
vt 0.826820 0.464608
vt 0.828204 0.465026
vt 0.826820 0.465418
vt 0.826820 0.465026
vt 0.828204 0.465444
vt 0.826820 0.465836
vt 0.826820 0.465444
vt 0.828204 0.465862
vt 0.826820 0.466254
vt 0.826820 0.465862
vt 0.065869 0.886186
vt 0.065726 0.886226
vt 0.065726 0.886186
vt 0.826726 0.464190
vt 0.825342 0.464581
vt 0.825342 0.464190
vt 0.830144 0.422616
vt 0.828760 0.423007
vt 0.828760 0.422616
vt 0.065869 0.886315
vt 0.065726 0.886356
vt 0.065726 0.886315
vt 0.826726 0.465444
vt 0.825342 0.465836
vt 0.825342 0.465444
vt 0.065869 0.886402
vt 0.065726 0.886442
vt 0.065726 0.886402
vt 0.825248 0.463771
vt 0.823864 0.464163
vt 0.823864 0.463771
vt 0.825248 0.464190
vt 0.823864 0.464581
vt 0.823864 0.464190
vt 0.825248 0.464608
vt 0.823864 0.465000
vt 0.823864 0.464608
vt 0.825248 0.465026
vt 0.823864 0.465418
vt 0.823864 0.465026
vt 0.066100 0.885884
vt 0.065761 0.885980
vt 0.065761 0.885884
vt 0.825248 0.465862
vt 0.065564 0.886186
vt 0.065420 0.886226
vt 0.065420 0.886186
vt 0.065564 0.886315
vt 0.065420 0.886356
vt 0.065420 0.886315
vt 0.065564 0.886402
vt 0.065420 0.886442
vt 0.065420 0.886402
vt 0.820907 0.464163
vt 0.822292 0.464190
vt 0.820907 0.464581
vt 0.820907 0.464190
vt 0.822292 0.464608
vt 0.820907 0.465000
vt 0.820907 0.464608
vt 0.822292 0.465026
vt 0.820907 0.465418
vt 0.820907 0.465026
vt 0.822292 0.465444
vt 0.820907 0.465836
vt 0.820907 0.465444
vt 0.822292 0.465862
vt 0.820907 0.466254
vt 0.820907 0.465862
vt 0.820814 0.463771
vt 0.819429 0.464163
vt 0.819429 0.463771
vt 0.820814 0.464190
vt 0.819429 0.464581
vt 0.819429 0.464190
vt 0.819593 0.435799
vt 0.818209 0.436191
vt 0.818209 0.435799
vt 0.820814 0.465026
vt 0.819429 0.465418
vt 0.819429 0.465026
vt 0.820814 0.465444
vt 0.819429 0.465836
vt 0.819429 0.465444
vt 0.820814 0.465862
vt 0.819429 0.466254
vt 0.819429 0.465862
vt 0.829683 0.463771
vt 0.828298 0.464163
vt 0.828298 0.463771
vt 0.829683 0.464190
vt 0.828298 0.464581
vt 0.828298 0.464190
vt 0.829683 0.464608
vt 0.828298 0.465000
vt 0.828298 0.464608
vt 0.833101 0.423034
vt 0.831716 0.423426
vt 0.831716 0.423034
vt 0.829683 0.465444
vt 0.828298 0.465836
vt 0.828298 0.465444
vt 0.829683 0.465862
vt 0.828298 0.466254
vt 0.828298 0.465862
vt 0.826726 0.466672
vt 0.822292 0.464581
vt 0.828204 0.466672
vt 0.822292 0.465000
vt 0.828204 0.464163
vt 0.828204 0.464190
vt 0.826820 0.464190
vt 0.822292 0.465418
vt 0.828204 0.464581
vt 0.826820 0.464581
vt 0.822292 0.465836
vt 0.828204 0.465000
vt 0.822292 0.466254
vt 0.828204 0.465418
vt 0.820814 0.464163
vt 0.828204 0.465836
vt 0.820814 0.464581
vt 0.828204 0.466254
vt 0.820814 0.464608
vt 0.819429 0.464608
vt 0.067650 0.885699
vt 0.067310 0.885699
vt 0.820814 0.465000
vt 0.067650 0.885795
vt 0.819429 0.465000
vt 0.067310 0.885795
vt 0.820814 0.465418
vt 0.826726 0.464581
vt 0.826726 0.464608
vt 0.825342 0.464608
vt 0.820814 0.465836
vt 0.826726 0.465000
vt 0.825342 0.465000
vt 0.067650 0.886007
vt 0.067310 0.886007
vt 0.820814 0.466254
vt 0.067650 0.886103
vt 0.067310 0.886103
vt 0.829683 0.464163
vt 0.826726 0.465836
vt 0.067650 0.886212
vt 0.067310 0.886212
vt 0.829683 0.464581
vt 0.067650 0.886308
vt 0.067310 0.886308
vt 0.829683 0.465000
vt 0.825248 0.464163
vt 0.829683 0.465026
vt 0.828298 0.465026
vt 0.829683 0.465418
vt 0.825248 0.464581
vt 0.828298 0.465418
vt 0.829683 0.465836
vt 0.825248 0.465000
vt 0.829683 0.466254
vt 0.825248 0.465418
vt 0.067287 0.886109
vt 0.066947 0.886109
vt 0.067287 0.886205
vt 0.066947 0.886205
vt 0.819382 0.469613
vt 0.819382 0.462085
vt 0.066640 0.885679
vt 0.803549 0.464900
vt 0.804832 0.465170
vt 0.804832 0.465375
vt 0.804107 0.464862
vt 0.804107 0.465375
vt 0.819382 0.465013
vt 0.066640 0.886295
vt 0.070460 0.879565
vt 0.066741 0.882445
vt 0.067765 0.879565
vt 0.067330 0.879688
vt 0.068214 0.879565
vt 0.068663 0.879565
vt 0.061815 0.880959
vt 0.069112 0.879565
vt 0.069562 0.879565
vt 0.070011 0.879565
vt 0.064263 0.883677
vt 0.065165 0.883932
vt 0.069590 0.878921
vt 0.070011 0.878929
vt 0.065165 0.884196
vt 0.070011 0.879056
vt 0.064549 0.880152
vt 0.070011 0.879183
vt 0.064549 0.880416
vt 0.070011 0.879310
vt 0.064549 0.880679
vt 0.070011 0.879438
vt 0.064549 0.880943
vt 0.066404 0.886515
vt 0.067251 0.886993
vt 0.066767 0.886618
vt 0.067082 0.887041
vt 0.069562 0.878929
vt 0.069141 0.879048
vt 0.069562 0.879056
vt 0.069141 0.879175
vt 0.066240 0.887297
vt 0.067246 0.887143
vt 0.066905 0.885060
vt 0.067082 0.887189
vt 0.062716 0.880424
vt 0.069562 0.879310
vt 0.069141 0.879430
vt 0.066542 0.885162
vt 0.067246 0.887242
vt 0.066905 0.885265
vt 0.067082 0.887288
vt 0.062400 0.883677
vt 0.069127 0.878798
vt 0.068692 0.878921
vt 0.062430 0.883949
vt 0.062430 0.884212
vt 0.061815 0.880169
vt 0.066191 0.885063
vt 0.061815 0.880696
vt 0.066056 0.886327
vt 0.066901 0.886993
vt 0.066419 0.886429
vt 0.066732 0.887041
vt 0.068663 0.878929
vt 0.068243 0.879048
vt 0.068663 0.879056
vt 0.068243 0.879175
vt 0.065515 0.887297
vt 0.066896 0.887143
vt 0.066732 0.887189
vt 0.068663 0.879310
vt 0.068243 0.879430
vt 0.065817 0.885162
vt 0.066896 0.887242
vt 0.066179 0.885265
vt 0.066732 0.887288
vt 0.060567 0.883685
vt 0.068228 0.878798
vt 0.067793 0.878921
vt 0.068214 0.878929
vt 0.067793 0.879048
vt 0.068214 0.879056
vt 0.067793 0.879175
vt 0.068214 0.879183
vt 0.067793 0.879302
vt 0.068214 0.879310
vt 0.067793 0.879430
vt 0.068214 0.879438
vt 0.067793 0.879557
vt 0.059636 0.883685
vt 0.067344 0.878921
vt 0.067344 0.879048
vt 0.067344 0.879175
vt 0.067344 0.879302
vt 0.067344 0.879430
vt 0.067344 0.879557
vt 0.070474 0.878798
vt 0.066096 0.883932
vt 0.070039 0.878921
vt 0.070460 0.878929
vt 0.066096 0.884196
vt 0.070460 0.879056
vt 0.065481 0.880152
vt 0.070460 0.879183
vt 0.065481 0.880416
vt 0.070460 0.879310
vt 0.065481 0.880679
vt 0.070460 0.879438
vt 0.070039 0.879557
vt 0.830890 0.481183
vt 0.065869 0.886226
vt 0.830144 0.423007
vt 0.065869 0.886356
vt 0.065869 0.886442
vt 0.066100 0.885980
vt 0.065564 0.886226
vt 0.065564 0.886356
vt 0.065564 0.886442
vt 0.819593 0.436191
vt 0.833101 0.423426
s 0
usemtl Material
f 36/1/1 3/2/1 27/3/1
f 16/4/2 6/5/2 8/6/2
f 322/7/3 5/8/3 37/9/3
f 281/10/4 1/11/4 17/12/4
f 37/9/5 22/13/5 84/14/5
f 54/15/5 1/16/5 32/17/5
f 60/18/5 17/19/5 54/15/5
f 66/20/5 18/21/5 60/18/5
f 72/22/5 19/23/5 66/20/5
f 78/24/5 20/25/5 72/22/5
f 84/14/5 21/26/5 78/24/5
f 282/27/4 22/28/4 5/8/4
f 23/29/4 21/30/4 22/28/4
f 24/31/4 20/32/4 21/30/4
f 25/33/4 19/34/4 20/32/4
f 285/35/4 18/36/4 19/34/4
f 26/37/4 17/12/4 18/36/4
f 4/38/2 13/39/2 3/2/2
f 14/40/2 12/41/2 13/39/2
f 294/42/2 11/43/2 12/41/2
f 15/44/2 10/45/2 11/46/2
f 301/47/2 9/48/2 10/45/2
f 302/49/2 8/6/2 9/50/2
f 8/51/5 73/52/5 9/53/5
f 79/54/5 74/55/5 73/52/5
f 80/56/5 75/57/5 74/55/5
f 81/58/5 76/59/5 75/57/5
f 82/60/5 77/61/5 76/59/5
f 83/62/5 78/24/5 77/61/5
f 9/63/5 67/64/5 10/65/5
f 73/52/5 68/66/5 67/67/5
f 74/55/5 69/68/5 68/66/5
f 75/69/5 70/70/5 69/71/5
f 76/59/5 71/72/5 70/73/5
f 77/74/5 72/75/5 71/76/5
f 10/77/5 61/78/5 11/79/5
f 67/67/5 62/80/5 61/78/5
f 68/66/5 63/81/5 62/80/5
f 69/68/5 64/82/5 63/81/5
f 70/70/5 65/83/5 64/84/5
f 71/72/5 66/20/5 65/85/5
f 11/86/5 55/87/5 12/88/5
f 61/78/5 56/89/5 55/90/5
f 62/80/5 57/91/5 56/89/5
f 63/92/5 58/93/5 57/94/5
f 64/82/5 59/95/5 58/96/5
f 65/83/5 60/97/5 59/98/5
f 12/99/5 49/100/5 13/101/5
f 55/90/5 50/102/5 49/100/5
f 56/89/5 51/103/5 50/102/5
f 57/91/5 52/104/5 51/103/5
f 58/96/5 53/105/5 52/104/5
f 59/95/5 54/15/5 53/105/5
f 13/101/5 27/106/5 3/107/5
f 49/100/5 28/108/5 27/106/5
f 50/102/5 29/109/5 28/108/5
f 51/103/5 30/110/5 29/109/5
f 52/104/5 31/111/5 30/110/5
f 53/105/5 32/17/5 31/111/5
f 6/5/5 79/54/5 8/51/5
f 42/112/5 80/56/5 79/54/5
f 41/113/5 81/58/5 80/56/5
f 40/114/5 82/60/5 81/58/5
f 39/115/5 83/62/5 82/60/5
f 38/116/5 84/14/5 83/62/5
f 7/117/3 42/112/3 6/5/3
f 314/118/3 41/113/3 42/112/3
f 315/119/3 40/114/3 41/113/3
f 318/120/3 39/121/3 40/122/3
f 43/123/3 38/116/3 39/115/3
f 320/124/3 37/9/3 38/116/3
f 2/125/1 32/126/1 1/127/1
f 324/128/1 31/129/1 32/126/1
f 323/130/1 30/131/1 31/129/1
f 33/132/1 29/133/1 30/131/1
f 34/134/1 28/135/1 29/133/1
f 35/136/1 27/3/1 28/135/1
f 211/137/1 449/138/1 210/138/1
f 106/139/2 346/140/2 105/140/2
f 210/138/2 450/141/2 209/141/2
f 101/142/3 344/143/3 104/143/3
f 205/144/3 448/145/3 208/145/3
f 104/143/4 343/146/4 103/146/4
f 208/145/4 447/147/4 207/147/4
f 103/146/1 341/148/1 102/148/1
f 207/147/1 445/149/1 206/149/1
f 102/148/2 342/142/2 101/142/2
f 206/149/2 446/144/2 205/144/2
f 97/150/3 340/151/3 100/151/3
f 201/152/3 444/153/3 204/153/3
f 100/151/4 339/154/4 99/154/4
f 204/153/4 443/155/4 203/155/4
f 99/154/1 337/156/1 98/156/1
f 203/155/1 441/157/1 202/157/1
f 98/156/2 338/150/2 97/150/2
f 202/157/2 442/152/2 201/152/2
f 93/158/3 336/159/3 96/159/3
f 197/160/3 440/161/3 200/161/3
f 96/159/4 335/162/4 95/162/4
f 200/161/4 439/163/4 199/163/4
f 95/162/1 333/164/1 94/164/1
f 199/163/1 437/165/1 198/165/1
f 94/164/2 334/158/2 93/158/2
f 198/165/2 438/160/2 197/160/2
f 89/166/3 332/167/3 92/167/3
f 193/168/3 436/169/3 196/169/3
f 92/167/4 331/170/4 91/170/4
f 196/169/4 435/171/4 195/171/4
f 91/170/1 329/172/1 90/172/1
f 195/171/1 433/173/1 194/173/1
f 90/172/2 330/166/2 89/166/2
f 194/173/2 434/168/2 193/168/2
f 85/174/3 328/175/3 88/175/3
f 189/176/3 432/177/3 192/177/3
f 88/175/4 327/178/4 87/178/4
f 192/177/4 431/179/4 191/179/4
f 87/178/1 325/180/1 86/180/1
f 191/179/1 429/181/1 190/181/1
f 86/180/2 326/174/2 85/174/2
f 190/181/2 430/176/2 189/176/2
f 185/182/3 428/183/3 188/183/3
f 188/183/4 427/184/4 187/184/4
f 187/184/1 425/185/1 186/185/1
f 186/185/2 426/182/2 185/182/2
f 181/186/3 424/187/3 184/187/3
f 184/187/4 423/188/4 183/188/4
f 85/189/6 324/190/6 86/191/6
f 87/192/6 324/193/6 2/194/6
f 87/195/6 281/196/6 88/197/6
f 88/198/6 48/199/6 85/200/6
f 89/201/6 321/202/6 90/203/6
f 91/204/6 321/205/6 23/206/6
f 91/207/6 282/208/6 92/209/6
f 92/210/6 322/211/6 89/212/6
f 93/213/6 312/214/6 94/215/6
f 95/216/6 312/217/6 24/218/6
f 95/219/6 23/220/6 96/221/6
f 96/222/6 321/205/6 93/223/6
f 97/224/6 308/225/6 98/226/6
f 99/227/6 308/228/6 25/229/6
f 99/230/6 24/231/6 100/232/6
f 100/233/6 312/217/6 97/234/6
f 102/235/6 308/225/6 284/236/6
f 103/237/6 284/238/6 285/239/6
f 103/240/6 25/241/6 104/242/6
f 104/243/6 308/228/6 101/244/6
f 105/245/6 283/246/6 106/247/6
f 107/248/6 283/249/6 26/250/6
f 107/251/6 285/252/6 108/253/6
f 108/254/6 284/238/6 105/255/6
f 109/256/6 48/257/6 110/258/6
f 111/259/6 48/199/6 281/260/6
f 111/261/6 26/262/6 112/263/6
f 112/264/6 283/249/6 109/265/6
f 113/266/6 14/267/6 114/268/6
f 114/269/6 46/270/6 115/271/6
f 116/272/6 46/273/6 286/274/6
f 113/275/6 286/276/6 294/277/6
f 117/278/6 46/273/6 118/279/6
f 119/280/6 46/270/6 287/281/6
f 120/282/6 287/283/6 288/284/6
f 120/285/6 286/276/6 117/286/6
f 121/287/6 287/283/6 122/288/6
f 123/289/6 287/281/6 47/290/6
f 124/291/6 47/292/6 289/293/6
f 124/294/6 288/295/6 121/296/6
f 125/297/6 47/292/6 126/298/6
f 127/299/6 47/290/6 290/300/6
f 128/301/6 290/302/6 291/303/6
f 128/304/6 289/305/6 125/306/6
f 129/307/6 290/302/6 130/308/6
f 131/309/6 290/300/6 292/310/6
f 132/311/6 292/312/6 293/313/6
f 132/314/6 291/315/6 129/316/6
f 133/317/6 292/312/6 134/318/6
f 135/319/6 292/310/6 48/199/6
f 136/320/6 48/257/6 283/246/6
f 136/321/6 293/322/6 133/323/6
f 137/324/6 294/325/6 138/326/6
f 138/327/6 286/328/6 139/329/6
f 139/330/6 295/331/6 140/332/6
f 137/333/6 295/334/6 15/335/6
f 141/336/6 286/274/6 142/337/6
f 143/338/6 286/276/6 288/295/6
f 143/339/6 296/340/6 144/341/6
f 141/342/6 296/343/6 295/344/6
f 145/345/6 288/284/6 146/346/6
f 147/347/6 288/295/6 289/305/6
f 147/348/6 297/349/6 148/350/6
f 145/351/6 297/352/6 296/343/6
f 149/353/6 289/354/6 150/355/6
f 151/356/6 289/357/6 291/358/6
f 151/359/6 298/360/6 152/361/6
f 149/362/6 298/363/6 297/364/6
f 153/365/6 291/303/6 154/366/6
f 155/367/6 291/315/6 293/322/6
f 155/368/6 299/369/6 156/370/6
f 153/371/6 299/372/6 298/373/6
f 157/374/6 293/375/6 158/376/6
f 159/377/6 293/378/6 283/379/6
f 159/380/6 284/381/6 160/382/6
f 157/383/6 284/384/6 299/385/6
f 161/386/6 15/387/6 162/388/6
f 162/389/6 295/344/6 163/390/6
f 163/391/6 44/392/6 164/393/6
f 161/394/6 44/395/6 301/396/6
f 166/397/6 44/392/6 295/398/6
f 166/399/6 296/343/6 167/400/6
f 167/401/6 45/402/6 168/403/6
f 168/404/6 44/395/6 165/405/6
f 170/406/6 45/402/6 296/340/6
f 170/407/6 297/352/6 171/408/6
f 171/409/6 304/410/6 172/411/6
f 172/412/6 45/413/6 169/414/6
f 174/415/6 304/410/6 297/349/6
f 174/416/6 298/373/6 175/417/6
f 175/418/6 300/419/6 176/420/6
f 176/421/6 304/422/6 173/423/6
f 178/424/6 300/425/6 298/360/6
f 178/426/6 299/385/6 179/427/6
f 179/428/6 307/429/6 180/430/6
f 180/431/6 300/432/6 177/433/6
f 182/434/6 307/435/6 299/369/6
f 182/436/6 284/238/6 183/437/6
f 183/438/6 308/225/6 184/439/6
f 184/440/6 307/441/6 181/442/6
f 185/443/6 301/444/6 186/445/6
f 186/446/6 44/447/6 187/448/6
f 187/449/6 309/450/6 188/451/6
f 185/452/6 309/453/6 302/454/6
f 189/455/6 44/392/6 190/456/6
f 191/457/6 44/395/6 45/413/6
f 191/458/6 303/459/6 192/460/6
f 189/461/6 303/462/6 309/463/6
f 193/464/6 45/402/6 194/465/6
f 195/466/6 45/413/6 304/422/6
f 195/467/6 305/468/6 196/469/6
f 193/470/6 305/471/6 303/462/6
f 197/472/6 304/473/6 198/474/6
f 199/475/6 304/476/6 300/432/6
f 199/477/6 306/478/6 200/479/6
f 197/480/6 306/481/6 305/482/6
f 201/483/6 300/419/6 202/484/6
f 203/485/6 300/486/6 307/441/6
f 203/487/6 311/488/6 204/489/6
f 201/490/6 311/491/6 306/492/6
f 205/493/6 307/429/6 206/494/6
f 207/495/6 307/496/6 308/497/6
f 207/498/6 312/499/6 208/500/6
f 205/501/6 312/502/6 311/503/6
f 210/504/6 16/505/6 302/506/6
f 210/507/6 309/463/6 211/508/6
f 211/509/6 313/510/6 212/511/6
f 209/512/6 313/513/6 16/514/6
f 213/515/6 309/516/6 214/517/6
f 215/518/6 309/463/6 303/462/6
f 215/519/6 316/520/6 216/521/6
f 213/522/6 316/523/6 313/513/6
f 217/524/6 303/459/6 218/525/6
f 219/526/6 303/462/6 305/471/6
f 219/527/6 317/528/6 220/529/6
f 217/530/6 317/531/6 316/523/6
f 221/532/6 305/468/6 222/533/6
f 223/534/6 305/471/6 306/492/6
f 223/535/6 310/536/6 224/537/6
f 221/538/6 310/539/6 317/531/6
f 225/540/6 306/541/6 226/542/6
f 227/543/6 306/492/6 311/491/6
f 227/544/6 319/545/6 228/546/6
f 225/547/6 319/548/6 310/539/6
f 229/549/6 311/488/6 230/550/6
f 231/551/6 311/491/6 312/217/6
f 231/552/6 321/202/6 232/553/6
f 229/554/6 321/205/6 319/548/6
f 234/555/6 7/556/6 16/505/6
f 234/557/6 313/513/6 235/558/6
f 235/559/6 314/560/6 236/561/6
f 233/562/6 314/563/6 7/564/6
f 237/565/6 313/510/6 238/566/6
f 238/567/6 316/523/6 239/568/6
f 239/569/6 315/570/6 240/571/6
f 237/572/6 315/573/6 314/563/6
f 241/574/6 316/520/6 242/575/6
f 242/576/6 317/531/6 243/577/6
f 243/578/6 318/579/6 244/580/6
f 241/581/6 318/582/6 315/573/6
f 245/583/6 317/528/6 246/584/6
f 246/585/6 310/539/6 247/586/6
f 247/587/6 43/588/6 248/589/6
f 245/590/6 43/591/6 318/582/6
f 249/592/6 310/536/6 250/593/6
f 250/594/6 319/548/6 251/595/6
f 251/596/6 320/597/6 252/598/6
f 249/599/6 320/600/6 43/591/6
f 253/601/6 319/545/6 254/602/6
f 254/603/6 321/205/6 255/604/6
f 255/605/6 322/606/6 256/607/6
f 253/608/6 322/211/6 320/600/6
f 257/609/6 4/610/6 258/611/6
f 258/612/6 36/613/6 259/614/6
f 260/615/6 36/616/6 46/273/6
f 257/617/6 46/270/6 14/618/6
f 261/619/6 36/616/6 262/620/6
f 263/621/6 36/613/6 35/622/6
f 264/623/6 35/624/6 287/283/6
f 264/625/6 46/270/6 261/626/6
f 265/627/6 35/624/6 266/628/6
f 267/629/6 35/622/6 34/630/6
f 268/631/6 34/632/6 47/292/6
f 268/633/6 287/281/6 265/634/6
f 269/635/6 34/632/6 270/636/6
f 271/637/6 34/630/6 33/638/6
f 272/639/6 33/640/6 290/302/6
f 272/641/6 47/290/6 269/642/6
f 273/643/6 33/640/6 274/644/6
f 275/645/6 33/638/6 323/646/6
f 276/647/6 323/648/6 292/312/6
f 276/649/6 290/300/6 273/650/6
f 277/651/6 323/648/6 278/652/6
f 279/653/6 323/646/6 324/193/6
f 279/654/6 48/257/6 280/655/6
f 277/656/6 48/199/6 292/310/6
f 325/180/6 328/175/6 326/174/6
f 329/172/6 332/167/6 330/166/6
f 333/164/6 336/159/6 334/158/6
f 337/156/6 340/151/6 338/150/6
f 341/148/6 344/143/6 342/142/6
f 345/139/6 348/657/6 346/140/6
f 349/658/6 352/659/6 350/660/6
f 353/661/6 356/662/6 354/663/6
f 357/664/6 360/665/6 358/666/6
f 361/667/6 364/668/6 362/669/6
f 365/670/6 368/671/6 366/672/6
f 369/673/6 372/674/6 370/675/6
f 373/676/6 376/677/6 374/678/6
f 377/679/6 380/680/6 378/681/6
f 381/682/6 384/683/6 382/684/6
f 385/685/6 388/686/6 386/687/6
f 389/688/6 392/689/6 390/690/6
f 393/691/6 396/692/6 394/693/6
f 397/694/6 400/695/6 398/696/6
f 401/697/6 404/698/6 402/699/6
f 405/700/6 408/701/6 406/702/6
f 409/703/6 412/704/6 410/705/6
f 413/706/6 416/707/6 414/708/6
f 417/709/6 420/710/6 418/711/6
f 421/712/6 424/187/6 422/186/6
f 425/713/6 428/714/6 426/715/6
f 429/181/6 432/177/6 430/176/6
f 433/173/6 436/169/6 434/168/6
f 437/716/6 440/717/6 438/718/6
f 441/157/6 444/153/6 442/152/6
f 445/719/6 448/720/6 446/721/6
f 449/138/6 452/722/6 450/141/6
f 453/723/6 456/724/6 454/725/6
f 457/726/6 460/727/6 458/728/6
f 461/729/6 464/730/6 462/731/6
f 465/732/6 468/733/6 466/734/6
f 469/735/6 472/736/6 470/737/6
f 473/738/6 476/739/6 474/740/6
f 477/741/6 480/742/6 478/743/6
f 481/744/6 484/745/6 482/746/6
f 485/747/6 488/748/6 486/749/6
f 489/750/6 492/751/6 490/752/6
f 493/753/6 496/754/6 494/755/6
f 497/756/6 500/757/6 498/758/6
f 501/759/6 504/760/6 502/761/6
f 505/762/6 508/763/6 506/764/6
f 509/765/6 512/766/6 510/767/6
f 513/768/6 516/769/6 514/770/6
f 517/771/6 520/772/6 518/773/6
f 107/774/1 345/139/1 106/139/1
f 212/722/4 451/137/4 211/137/4
f 108/657/4 347/774/4 107/774/4
f 209/141/3 452/722/3 212/722/3
f 105/140/3 348/657/3 108/657/3
f 214/723/2 454/725/2 213/725/2
f 110/658/2 350/660/2 109/660/2
f 215/775/1 453/723/1 214/723/1
f 111/776/1 349/658/1 110/658/1
f 216/724/4 455/775/4 215/775/4
f 112/659/4 351/776/4 111/776/4
f 213/725/3 456/724/3 216/724/3
f 109/660/3 352/659/3 112/659/3
f 218/726/2 458/728/2 217/728/2
f 114/661/2 354/663/2 113/663/2
f 219/777/1 457/726/1 218/726/1
f 115/778/1 353/661/1 114/661/1
f 220/727/4 459/777/4 219/777/4
f 116/662/4 355/778/4 115/778/4
f 217/728/3 460/727/3 220/727/3
f 113/663/3 356/662/3 116/662/3
f 222/729/2 462/731/2 221/731/2
f 118/779/2 358/780/2 117/780/2
f 223/781/1 461/729/1 222/729/1
f 119/782/1 357/779/1 118/779/1
f 224/730/4 463/781/4 223/781/4
f 120/783/4 359/782/4 119/782/4
f 221/731/3 464/730/3 224/730/3
f 117/780/3 360/783/3 120/783/3
f 226/732/2 466/734/2 225/734/2
f 122/667/2 362/669/2 121/669/2
f 227/784/1 465/732/1 226/732/1
f 123/785/1 361/667/1 122/667/1
f 228/733/4 467/784/4 227/784/4
f 124/668/4 363/785/4 123/785/4
f 225/734/3 468/733/3 228/733/3
f 121/669/3 364/668/3 124/668/3
f 230/735/2 470/737/2 229/737/2
f 126/670/2 366/672/2 125/672/2
f 231/786/1 469/735/1 230/735/1
f 127/787/1 365/670/1 126/670/1
f 232/736/4 471/786/4 231/786/4
f 128/671/4 367/787/4 127/787/4
f 229/737/3 472/736/3 232/736/3
f 125/672/3 368/671/3 128/671/3
f 234/738/2 474/740/2 233/740/2
f 130/673/2 370/675/2 129/675/2
f 235/788/1 473/738/1 234/738/1
f 131/789/1 369/673/1 130/673/1
f 236/739/4 475/788/4 235/788/4
f 132/674/4 371/789/4 131/789/4
f 233/740/3 476/739/3 236/739/3
f 129/675/3 372/674/3 132/674/3
f 238/741/2 478/743/2 237/743/2
f 134/676/2 374/678/2 133/678/2
f 239/790/1 477/741/1 238/741/1
f 135/791/1 373/676/1 134/676/1
f 240/742/4 479/790/4 239/790/4
f 136/677/4 375/791/4 135/791/4
f 237/743/3 480/742/3 240/742/3
f 133/678/3 376/677/3 136/677/3
f 242/792/2 482/793/2 241/793/2
f 138/794/2 378/795/2 137/795/2
f 243/796/1 481/792/1 242/792/1
f 139/797/1 377/794/1 138/794/1
f 244/798/4 483/796/4 243/796/4
f 140/799/4 379/797/4 139/797/4
f 241/793/3 484/798/3 244/798/3
f 137/795/3 380/799/3 140/799/3
f 246/747/2 486/749/2 245/749/2
f 142/682/2 382/684/2 141/684/2
f 247/800/1 485/747/1 246/747/1
f 143/801/1 381/682/1 142/682/1
f 248/748/4 487/800/4 247/800/4
f 144/683/4 383/801/4 143/801/4
f 245/749/3 488/748/3 248/748/3
f 141/684/3 384/683/3 144/683/3
f 250/750/2 490/752/2 249/752/2
f 146/802/2 386/803/2 145/803/2
f 251/804/1 489/750/1 250/750/1
f 147/805/1 385/802/1 146/802/1
f 252/751/4 491/804/4 251/804/4
f 148/806/4 387/805/4 147/805/4
f 249/752/3 492/751/3 252/751/3
f 145/803/3 388/806/3 148/806/3
f 254/753/2 494/755/2 253/755/2
f 150/807/2 390/808/2 149/808/2
f 255/809/1 493/753/1 254/753/1
f 151/810/1 389/807/1 150/807/1
f 256/754/4 495/809/4 255/809/4
f 152/811/4 391/810/4 151/810/4
f 253/755/3 496/754/3 256/754/3
f 149/808/3 392/811/3 152/811/3
f 258/756/2 498/758/2 257/758/2
f 154/691/2 394/693/2 153/693/2
f 259/812/1 497/756/1 258/756/1
f 155/813/1 393/691/1 154/691/1
f 260/757/4 499/812/4 259/812/4
f 156/692/4 395/813/4 155/813/4
f 257/758/3 500/757/3 260/757/3
f 153/693/3 396/692/3 156/692/3
f 262/759/2 502/761/2 261/761/2
f 158/814/2 398/815/2 157/815/2
f 263/816/1 501/759/1 262/759/1
f 159/817/1 397/814/1 158/814/1
f 264/760/4 503/816/4 263/816/4
f 160/818/4 399/817/4 159/817/4
f 261/761/3 504/760/3 264/760/3
f 157/815/3 400/818/3 160/818/3
f 266/762/2 506/764/2 265/764/2
f 162/697/2 402/699/2 161/699/2
f 267/819/1 505/762/1 266/762/1
f 163/820/1 401/697/1 162/697/1
f 268/763/4 507/819/4 267/819/4
f 164/698/4 403/820/4 163/820/4
f 265/764/3 508/763/3 268/763/3
f 161/699/3 404/698/3 164/698/3
f 270/821/2 510/822/2 269/822/2
f 166/700/2 406/702/2 165/702/2
f 271/823/1 509/821/1 270/821/1
f 167/824/1 405/700/1 166/700/1
f 272/825/4 511/823/4 271/823/4
f 168/701/4 407/824/4 167/824/4
f 269/822/3 512/825/3 272/825/3
f 165/702/3 408/701/3 168/701/3
f 274/768/2 514/770/2 273/770/2
f 170/703/2 410/705/2 169/705/2
f 275/826/1 513/768/1 274/768/1
f 171/827/1 409/703/1 170/703/1
f 276/769/4 515/826/4 275/826/4
f 172/704/4 411/827/4 171/827/4
f 273/770/3 516/769/3 276/769/3
f 169/705/3 412/704/3 172/704/3
f 278/771/2 518/773/2 277/773/2
f 174/706/2 414/708/2 173/708/2
f 279/828/1 517/771/1 278/771/1
f 175/829/1 413/706/1 174/706/1
f 280/772/4 519/828/4 279/828/4
f 176/707/4 415/829/4 175/829/4
f 277/773/3 520/772/3 280/772/3
f 173/708/3 416/707/3 176/707/3
f 178/830/2 418/831/2 177/831/2
f 179/832/1 417/830/1 178/830/1
f 180/833/4 419/832/4 179/832/4
f 177/831/3 420/833/3 180/833/3
f 182/712/2 422/186/2 181/186/2
f 183/188/1 421/712/1 182/712/1
f 36/1/1 4/38/1 3/2/1
f 16/4/2 7/117/2 6/5/2
f 322/7/3 282/27/3 5/8/3
f 281/10/4 2/834/4 1/11/4
f 37/9/5 5/8/5 22/13/5
f 54/15/5 17/19/5 1/16/5
f 60/18/5 18/21/5 17/19/5
f 66/20/5 19/23/5 18/21/5
f 72/22/5 20/25/5 19/23/5
f 78/24/5 21/26/5 20/25/5
f 84/14/5 22/13/5 21/26/5
f 282/27/4 23/29/4 22/28/4
f 23/29/4 24/31/4 21/30/4
f 24/31/4 25/33/4 20/32/4
f 25/33/4 285/35/4 19/34/4
f 285/35/4 26/37/4 18/36/4
f 26/37/4 281/10/4 17/12/4
f 4/38/2 14/40/2 13/39/2
f 14/40/2 294/42/2 12/41/2
f 294/42/2 15/835/2 11/43/2
f 15/44/2 301/47/2 10/45/2
f 301/47/2 302/836/2 9/48/2
f 302/49/2 16/4/2 8/6/2
f 8/51/5 79/54/5 73/52/5
f 79/54/5 80/56/5 74/55/5
f 80/56/5 81/58/5 75/57/5
f 81/58/5 82/60/5 76/59/5
f 82/60/5 83/62/5 77/61/5
f 83/62/5 84/14/5 78/24/5
f 9/63/5 73/837/5 67/64/5
f 73/52/5 74/55/5 68/66/5
f 74/55/5 75/57/5 69/68/5
f 75/69/5 76/838/5 70/70/5
f 76/59/5 77/61/5 71/72/5
f 77/74/5 78/839/5 72/75/5
f 10/77/5 67/67/5 61/78/5
f 67/67/5 68/66/5 62/80/5
f 68/66/5 69/68/5 63/81/5
f 69/68/5 70/73/5 64/82/5
f 70/70/5 71/76/5 65/83/5
f 71/72/5 72/22/5 66/20/5
f 11/86/5 61/840/5 55/87/5
f 61/78/5 62/80/5 56/89/5
f 62/80/5 63/81/5 57/91/5
f 63/92/5 64/84/5 58/93/5
f 64/82/5 65/85/5 59/95/5
f 65/83/5 66/841/5 60/97/5
f 12/99/5 55/90/5 49/100/5
f 55/90/5 56/89/5 50/102/5
f 56/89/5 57/91/5 51/103/5
f 57/91/5 58/96/5 52/104/5
f 58/96/5 59/95/5 53/105/5
f 59/95/5 60/18/5 54/15/5
f 13/101/5 49/100/5 27/106/5
f 49/100/5 50/102/5 28/108/5
f 50/102/5 51/103/5 29/109/5
f 51/103/5 52/104/5 30/110/5
f 52/104/5 53/105/5 31/111/5
f 53/105/5 54/15/5 32/17/5
f 6/5/5 42/112/5 79/54/5
f 42/112/5 41/113/5 80/56/5
f 41/113/5 40/114/5 81/58/5
f 40/114/5 39/115/5 82/60/5
f 39/115/5 38/116/5 83/62/5
f 38/116/5 37/9/5 84/14/5
f 7/117/3 314/118/3 42/112/3
f 314/118/3 315/119/3 41/113/3
f 315/119/3 318/842/3 40/114/3
f 318/120/3 43/843/3 39/121/3
f 43/123/3 320/124/3 38/116/3
f 320/124/3 322/7/3 37/9/3
f 2/125/1 324/128/1 32/126/1
f 324/128/1 323/130/1 31/129/1
f 323/130/1 33/132/1 30/131/1
f 33/132/1 34/134/1 29/133/1
f 34/134/1 35/136/1 28/135/1
f 35/136/1 36/1/1 27/3/1
f 211/137/1 451/137/1 449/138/1
f 106/139/2 345/139/2 346/140/2
f 210/138/2 449/138/2 450/141/2
f 101/142/3 342/142/3 344/143/3
f 205/144/3 446/144/3 448/145/3
f 104/143/4 344/143/4 343/146/4
f 208/145/4 448/145/4 447/147/4
f 103/146/1 343/146/1 341/148/1
f 207/147/1 447/147/1 445/149/1
f 102/148/2 341/148/2 342/142/2
f 206/149/2 445/149/2 446/144/2
f 97/150/3 338/150/3 340/151/3
f 201/152/3 442/152/3 444/153/3
f 100/151/4 340/151/4 339/154/4
f 204/153/4 444/153/4 443/155/4
f 99/154/1 339/154/1 337/156/1
f 203/155/1 443/155/1 441/157/1
f 98/156/2 337/156/2 338/150/2
f 202/157/2 441/157/2 442/152/2
f 93/158/3 334/158/3 336/159/3
f 197/160/3 438/160/3 440/161/3
f 96/159/4 336/159/4 335/162/4
f 200/161/4 440/161/4 439/163/4
f 95/162/1 335/162/1 333/164/1
f 199/163/1 439/163/1 437/165/1
f 94/164/2 333/164/2 334/158/2
f 198/165/2 437/165/2 438/160/2
f 89/166/3 330/166/3 332/167/3
f 193/168/3 434/168/3 436/169/3
f 92/167/4 332/167/4 331/170/4
f 196/169/4 436/169/4 435/171/4
f 91/170/1 331/170/1 329/172/1
f 195/171/1 435/171/1 433/173/1
f 90/172/2 329/172/2 330/166/2
f 194/173/2 433/173/2 434/168/2
f 85/174/3 326/174/3 328/175/3
f 189/176/3 430/176/3 432/177/3
f 88/175/4 328/175/4 327/178/4
f 192/177/4 432/177/4 431/179/4
f 87/178/1 327/178/1 325/180/1
f 191/179/1 431/179/1 429/181/1
f 86/180/2 325/180/2 326/174/2
f 190/181/2 429/181/2 430/176/2
f 185/182/3 426/182/3 428/183/3
f 188/183/4 428/183/4 427/184/4
f 187/184/1 427/184/1 425/185/1
f 186/185/2 425/185/2 426/182/2
f 181/186/3 422/186/3 424/187/3
f 184/187/4 424/187/4 423/188/4
f 85/189/6 48/257/6 324/190/6
f 87/192/6 86/844/6 324/193/6
f 87/195/6 2/845/6 281/196/6
f 88/198/6 281/260/6 48/199/6
f 89/201/6 322/606/6 321/202/6
f 91/204/6 90/846/6 321/205/6
f 91/207/6 23/220/6 282/208/6
f 92/210/6 282/847/6 322/211/6
f 93/213/6 321/202/6 312/214/6
f 95/216/6 94/848/6 312/217/6
f 95/219/6 24/231/6 23/220/6
f 96/222/6 23/206/6 321/205/6
f 97/224/6 312/214/6 308/225/6
f 99/227/6 98/849/6 308/228/6
f 99/230/6 25/241/6 24/231/6
f 100/233/6 24/218/6 312/217/6
f 102/235/6 101/850/6 308/225/6
f 103/237/6 102/851/6 284/238/6
f 103/240/6 285/252/6 25/241/6
f 104/243/6 25/229/6 308/228/6
f 105/245/6 284/236/6 283/246/6
f 107/248/6 106/852/6 283/249/6
f 107/251/6 26/262/6 285/252/6
f 108/254/6 285/239/6 284/238/6
f 109/256/6 283/246/6 48/257/6
f 111/259/6 110/853/6 48/199/6
f 111/261/6 281/196/6 26/262/6
f 112/264/6 26/250/6 283/249/6
f 113/266/6 294/854/6 14/267/6
f 114/269/6 14/618/6 46/270/6
f 116/272/6 115/855/6 46/273/6
f 113/275/6 116/856/6 286/276/6
f 117/278/6 286/274/6 46/273/6
f 119/280/6 118/857/6 46/270/6
f 120/282/6 119/858/6 287/283/6
f 120/285/6 288/295/6 286/276/6
f 121/287/6 288/284/6 287/283/6
f 123/289/6 122/859/6 287/281/6
f 124/291/6 123/860/6 47/292/6
f 124/294/6 289/305/6 288/295/6
f 125/297/6 289/293/6 47/292/6
f 127/299/6 126/861/6 47/290/6
f 128/301/6 127/862/6 290/302/6
f 128/304/6 291/315/6 289/305/6
f 129/307/6 291/303/6 290/302/6
f 131/309/6 130/863/6 290/300/6
f 132/311/6 131/864/6 292/312/6
f 132/314/6 293/322/6 291/315/6
f 133/317/6 293/313/6 292/312/6
f 135/319/6 134/865/6 292/310/6
f 136/320/6 135/866/6 48/257/6
f 136/321/6 283/249/6 293/322/6
f 137/324/6 15/867/6 294/325/6
f 138/327/6 294/868/6 286/328/6
f 139/330/6 286/869/6 295/331/6
f 137/333/6 140/870/6 295/334/6
f 141/336/6 295/398/6 286/274/6
f 143/338/6 142/871/6 286/276/6
f 143/339/6 288/284/6 296/340/6
f 141/342/6 144/872/6 296/343/6
f 145/345/6 296/340/6 288/284/6
f 147/347/6 146/873/6 288/295/6
f 147/348/6 289/293/6 297/349/6
f 145/351/6 148/874/6 297/352/6
f 149/353/6 297/875/6 289/354/6
f 151/356/6 150/876/6 289/357/6
f 151/359/6 291/877/6 298/360/6
f 149/362/6 152/878/6 298/363/6
f 153/365/6 298/879/6 291/303/6
f 155/367/6 154/880/6 291/315/6
f 155/368/6 293/313/6 299/369/6
f 153/371/6 156/881/6 299/372/6
f 157/374/6 299/882/6 293/375/6
f 159/377/6 158/883/6 293/378/6
f 159/380/6 283/884/6 284/381/6
f 157/383/6 160/885/6 284/384/6
f 161/386/6 301/886/6 15/387/6
f 162/389/6 15/887/6 295/344/6
f 163/391/6 295/398/6 44/392/6
f 161/394/6 164/888/6 44/395/6
f 166/397/6 165/889/6 44/392/6
f 166/399/6 295/344/6 296/343/6
f 167/401/6 296/340/6 45/402/6
f 168/404/6 45/413/6 44/395/6
f 170/406/6 169/890/6 45/402/6
f 170/407/6 296/343/6 297/352/6
f 171/409/6 297/349/6 304/410/6
f 172/412/6 304/422/6 45/413/6
f 174/415/6 173/891/6 304/410/6
f 174/416/6 297/352/6 298/373/6
f 175/418/6 298/879/6 300/419/6
f 176/421/6 300/486/6 304/422/6
f 178/424/6 177/892/6 300/425/6
f 178/426/6 298/363/6 299/385/6
f 179/428/6 299/882/6 307/429/6
f 180/431/6 307/496/6 300/432/6
f 182/434/6 181/893/6 307/435/6
f 182/436/6 299/372/6 284/238/6
f 183/438/6 284/236/6 308/225/6
f 184/440/6 308/228/6 307/441/6
f 185/443/6 302/894/6 301/444/6
f 186/446/6 301/895/6 44/447/6
f 187/449/6 44/896/6 309/450/6
f 185/452/6 188/897/6 309/453/6
f 189/455/6 309/516/6 44/392/6
f 191/457/6 190/898/6 44/395/6
f 191/458/6 45/402/6 303/459/6
f 189/461/6 192/899/6 303/462/6
f 193/464/6 303/459/6 45/402/6
f 195/466/6 194/900/6 45/413/6
f 195/467/6 304/410/6 305/468/6
f 193/470/6 196/901/6 305/471/6
f 197/472/6 305/902/6 304/473/6
f 199/475/6 198/903/6 304/476/6
f 199/477/6 300/425/6 306/478/6
f 197/480/6 200/904/6 306/481/6
f 201/483/6 306/541/6 300/419/6
f 203/485/6 202/905/6 300/486/6
f 203/487/6 307/435/6 311/488/6
f 201/490/6 204/906/6 311/491/6
f 205/493/6 311/907/6 307/429/6
f 207/495/6 206/908/6 307/496/6
f 207/498/6 308/909/6 312/499/6
f 205/501/6 208/910/6 312/502/6
f 210/504/6 209/911/6 16/505/6
f 210/507/6 302/912/6 309/463/6
f 211/509/6 309/516/6 313/510/6
f 209/512/6 212/913/6 313/513/6
f 213/515/6 313/510/6 309/516/6
f 215/518/6 214/914/6 309/463/6
f 215/519/6 303/459/6 316/520/6
f 213/522/6 216/915/6 316/523/6
f 217/524/6 316/520/6 303/459/6
f 219/526/6 218/916/6 303/462/6
f 219/527/6 305/468/6 317/528/6
f 217/530/6 220/917/6 317/531/6
f 221/532/6 317/528/6 305/468/6
f 223/534/6 222/918/6 305/471/6
f 223/535/6 306/541/6 310/536/6
f 221/538/6 224/919/6 310/539/6
f 225/540/6 310/536/6 306/541/6
f 227/543/6 226/920/6 306/492/6
f 227/544/6 311/488/6 319/545/6
f 225/547/6 228/921/6 319/548/6
f 229/549/6 319/545/6 311/488/6
f 231/551/6 230/922/6 311/491/6
f 231/552/6 312/214/6 321/202/6
f 229/554/6 232/923/6 321/205/6
f 234/555/6 233/924/6 7/556/6
f 234/557/6 16/514/6 313/513/6
f 235/559/6 313/510/6 314/560/6
f 233/562/6 236/925/6 314/563/6
f 237/565/6 314/560/6 313/510/6
f 238/567/6 313/513/6 316/523/6
f 239/569/6 316/520/6 315/570/6
f 237/572/6 240/926/6 315/573/6
f 241/574/6 315/570/6 316/520/6
f 242/576/6 316/523/6 317/531/6
f 243/578/6 317/528/6 318/579/6
f 241/581/6 244/927/6 318/582/6
f 245/583/6 318/579/6 317/528/6
f 246/585/6 317/531/6 310/539/6
f 247/587/6 310/536/6 43/588/6
f 245/590/6 248/928/6 43/591/6
f 249/592/6 43/588/6 310/536/6
f 250/594/6 310/539/6 319/548/6
f 251/596/6 319/545/6 320/597/6
f 249/599/6 252/929/6 320/600/6
f 253/601/6 320/597/6 319/545/6
f 254/603/6 319/548/6 321/205/6
f 255/605/6 321/202/6 322/606/6
f 253/608/6 256/930/6 322/211/6
f 257/609/6 14/267/6 4/610/6
f 258/612/6 4/931/6 36/613/6
f 260/615/6 259/932/6 36/616/6
f 257/617/6 260/933/6 46/270/6
f 261/619/6 46/273/6 36/616/6
f 263/621/6 262/934/6 36/613/6
f 264/623/6 263/935/6 35/624/6
f 264/625/6 287/281/6 46/270/6
f 265/627/6 287/283/6 35/624/6
f 267/629/6 266/936/6 35/622/6
f 268/631/6 267/937/6 34/632/6
f 268/633/6 47/290/6 287/281/6
f 269/635/6 47/292/6 34/632/6
f 271/637/6 270/938/6 34/630/6
f 272/639/6 271/939/6 33/640/6
f 272/641/6 290/300/6 47/290/6
f 273/643/6 290/302/6 33/640/6
f 275/645/6 274/940/6 33/638/6
f 276/647/6 275/941/6 323/648/6
f 276/649/6 292/310/6 290/300/6
f 277/651/6 292/312/6 323/648/6
f 279/653/6 278/942/6 323/646/6
f 279/654/6 324/190/6 48/257/6
f 277/656/6 280/943/6 48/199/6
f 325/180/6 327/178/6 328/175/6
f 329/172/6 331/170/6 332/167/6
f 333/164/6 335/162/6 336/159/6
f 337/156/6 339/154/6 340/151/6
f 341/148/6 343/146/6 344/143/6
f 345/139/6 347/774/6 348/657/6
f 349/658/6 351/776/6 352/659/6
f 353/661/6 355/778/6 356/662/6
f 357/664/6 359/944/6 360/665/6
f 361/667/6 363/785/6 364/668/6
f 365/670/6 367/787/6 368/671/6
f 369/673/6 371/789/6 372/674/6
f 373/676/6 375/791/6 376/677/6
f 377/679/6 379/945/6 380/680/6
f 381/682/6 383/801/6 384/683/6
f 385/685/6 387/946/6 388/686/6
f 389/688/6 391/947/6 392/689/6
f 393/691/6 395/813/6 396/692/6
f 397/694/6 399/948/6 400/695/6
f 401/697/6 403/820/6 404/698/6
f 405/700/6 407/824/6 408/701/6
f 409/703/6 411/827/6 412/704/6
f 413/706/6 415/829/6 416/707/6
f 417/709/6 419/949/6 420/710/6
f 421/712/6 423/188/6 424/187/6
f 425/713/6 427/950/6 428/714/6
f 429/181/6 431/179/6 432/177/6
f 433/173/6 435/171/6 436/169/6
f 437/716/6 439/951/6 440/717/6
f 441/157/6 443/155/6 444/153/6
f 445/719/6 447/952/6 448/720/6
f 449/138/6 451/137/6 452/722/6
f 453/723/6 455/775/6 456/724/6
f 457/726/6 459/777/6 460/727/6
f 461/729/6 463/781/6 464/730/6
f 465/732/6 467/784/6 468/733/6
f 469/735/6 471/786/6 472/736/6
f 473/738/6 475/788/6 476/739/6
f 477/741/6 479/790/6 480/742/6
f 481/744/6 483/953/6 484/745/6
f 485/747/6 487/800/6 488/748/6
f 489/750/6 491/804/6 492/751/6
f 493/753/6 495/809/6 496/754/6
f 497/756/6 499/812/6 500/757/6
f 501/759/6 503/816/6 504/760/6
f 505/762/6 507/819/6 508/763/6
f 509/765/6 511/954/6 512/766/6
f 513/768/6 515/826/6 516/769/6
f 517/771/6 519/828/6 520/772/6
f 107/774/1 347/774/1 345/139/1
f 212/722/4 452/722/4 451/137/4
f 108/657/4 348/657/4 347/774/4
f 209/141/3 450/141/3 452/722/3
f 105/140/3 346/140/3 348/657/3
f 214/723/2 453/723/2 454/725/2
f 110/658/2 349/658/2 350/660/2
f 215/775/1 455/775/1 453/723/1
f 111/776/1 351/776/1 349/658/1
f 216/724/4 456/724/4 455/775/4
f 112/659/4 352/659/4 351/776/4
f 213/725/3 454/725/3 456/724/3
f 109/660/3 350/660/3 352/659/3
f 218/726/2 457/726/2 458/728/2
f 114/661/2 353/661/2 354/663/2
f 219/777/1 459/777/1 457/726/1
f 115/778/1 355/778/1 353/661/1
f 220/727/4 460/727/4 459/777/4
f 116/662/4 356/662/4 355/778/4
f 217/728/3 458/728/3 460/727/3
f 113/663/3 354/663/3 356/662/3
f 222/729/2 461/729/2 462/731/2
f 118/779/2 357/779/2 358/780/2
f 223/781/1 463/781/1 461/729/1
f 119/782/1 359/782/1 357/779/1
f 224/730/4 464/730/4 463/781/4
f 120/783/4 360/783/4 359/782/4
f 221/731/3 462/731/3 464/730/3
f 117/780/3 358/780/3 360/783/3
f 226/732/2 465/732/2 466/734/2
f 122/667/2 361/667/2 362/669/2
f 227/784/1 467/784/1 465/732/1
f 123/785/1 363/785/1 361/667/1
f 228/733/4 468/733/4 467/784/4
f 124/668/4 364/668/4 363/785/4
f 225/734/3 466/734/3 468/733/3
f 121/669/3 362/669/3 364/668/3
f 230/735/2 469/735/2 470/737/2
f 126/670/2 365/670/2 366/672/2
f 231/786/1 471/786/1 469/735/1
f 127/787/1 367/787/1 365/670/1
f 232/736/4 472/736/4 471/786/4
f 128/671/4 368/671/4 367/787/4
f 229/737/3 470/737/3 472/736/3
f 125/672/3 366/672/3 368/671/3
f 234/738/2 473/738/2 474/740/2
f 130/673/2 369/673/2 370/675/2
f 235/788/1 475/788/1 473/738/1
f 131/789/1 371/789/1 369/673/1
f 236/739/4 476/739/4 475/788/4
f 132/674/4 372/674/4 371/789/4
f 233/740/3 474/740/3 476/739/3
f 129/675/3 370/675/3 372/674/3
f 238/741/2 477/741/2 478/743/2
f 134/676/2 373/676/2 374/678/2
f 239/790/1 479/790/1 477/741/1
f 135/791/1 375/791/1 373/676/1
f 240/742/4 480/742/4 479/790/4
f 136/677/4 376/677/4 375/791/4
f 237/743/3 478/743/3 480/742/3
f 133/678/3 374/678/3 376/677/3
f 242/792/2 481/792/2 482/793/2
f 138/794/2 377/794/2 378/795/2
f 243/796/1 483/796/1 481/792/1
f 139/797/1 379/797/1 377/794/1
f 244/798/4 484/798/4 483/796/4
f 140/799/4 380/799/4 379/797/4
f 241/793/3 482/793/3 484/798/3
f 137/795/3 378/795/3 380/799/3
f 246/747/2 485/747/2 486/749/2
f 142/682/2 381/682/2 382/684/2
f 247/800/1 487/800/1 485/747/1
f 143/801/1 383/801/1 381/682/1
f 248/748/4 488/748/4 487/800/4
f 144/683/4 384/683/4 383/801/4
f 245/749/3 486/749/3 488/748/3
f 141/684/3 382/684/3 384/683/3
f 250/750/2 489/750/2 490/752/2
f 146/802/2 385/802/2 386/803/2
f 251/804/1 491/804/1 489/750/1
f 147/805/1 387/805/1 385/802/1
f 252/751/4 492/751/4 491/804/4
f 148/806/4 388/806/4 387/805/4
f 249/752/3 490/752/3 492/751/3
f 145/803/3 386/803/3 388/806/3
f 254/753/2 493/753/2 494/755/2
f 150/807/2 389/807/2 390/808/2
f 255/809/1 495/809/1 493/753/1
f 151/810/1 391/810/1 389/807/1
f 256/754/4 496/754/4 495/809/4
f 152/811/4 392/811/4 391/810/4
f 253/755/3 494/755/3 496/754/3
f 149/808/3 390/808/3 392/811/3
f 258/756/2 497/756/2 498/758/2
f 154/691/2 393/691/2 394/693/2
f 259/812/1 499/812/1 497/756/1
f 155/813/1 395/813/1 393/691/1
f 260/757/4 500/757/4 499/812/4
f 156/692/4 396/692/4 395/813/4
f 257/758/3 498/758/3 500/757/3
f 153/693/3 394/693/3 396/692/3
f 262/759/2 501/759/2 502/761/2
f 158/814/2 397/814/2 398/815/2
f 263/816/1 503/816/1 501/759/1
f 159/817/1 399/817/1 397/814/1
f 264/760/4 504/760/4 503/816/4
f 160/818/4 400/818/4 399/817/4
f 261/761/3 502/761/3 504/760/3
f 157/815/3 398/815/3 400/818/3
f 266/762/2 505/762/2 506/764/2
f 162/697/2 401/697/2 402/699/2
f 267/819/1 507/819/1 505/762/1
f 163/820/1 403/820/1 401/697/1
f 268/763/4 508/763/4 507/819/4
f 164/698/4 404/698/4 403/820/4
f 265/764/3 506/764/3 508/763/3
f 161/699/3 402/699/3 404/698/3
f 270/821/2 509/821/2 510/822/2
f 166/700/2 405/700/2 406/702/2
f 271/823/1 511/823/1 509/821/1
f 167/824/1 407/824/1 405/700/1
f 272/825/4 512/825/4 511/823/4
f 168/701/4 408/701/4 407/824/4
f 269/822/3 510/822/3 512/825/3
f 165/702/3 406/702/3 408/701/3
f 274/768/2 513/768/2 514/770/2
f 170/703/2 409/703/2 410/705/2
f 275/826/1 515/826/1 513/768/1
f 171/827/1 411/827/1 409/703/1
f 276/769/4 516/769/4 515/826/4
f 172/704/4 412/704/4 411/827/4
f 273/770/3 514/770/3 516/769/3
f 169/705/3 410/705/3 412/704/3
f 278/771/2 517/771/2 518/773/2
f 174/706/2 413/706/2 414/708/2
f 279/828/1 519/828/1 517/771/1
f 175/829/1 415/829/1 413/706/1
f 280/772/4 520/772/4 519/828/4
f 176/707/4 416/707/4 415/829/4
f 277/773/3 518/773/3 520/772/3
f 173/708/3 414/708/3 416/707/3
f 178/830/2 417/830/2 418/831/2
f 179/832/1 419/832/1 417/830/1
f 180/833/4 420/833/4 419/832/4
f 177/831/3 418/831/3 420/833/3
f 182/712/2 421/712/2 422/186/2
f 183/188/1 423/188/1 421/712/1
