# Blender 4.2.1 LTS
# www.blender.org
mtllib floor_tile_4.mtl
g floor_tile_4_Mesh
v -0.910527 0.000000 0.910527
v -0.910527 0.111611 0.910527
v -0.910527 0.000000 -0.910527
v -0.910527 0.111611 -0.910527
v 0.910528 0.000000 0.910527
v 0.910528 0.000000 -0.910527
v 0.910528 0.111611 -0.910527
v 0.650377 0.000000 -0.910527
v 0.390227 0.000000 -0.910527
v 0.130075 0.000000 -0.910527
v -0.130075 0.000000 -0.910527
v -0.390226 0.000000 -0.910527
v -0.650377 0.000000 -0.910527
v -0.650376 0.111611 -0.910527
v -0.130075 0.111611 -0.910527
v 0.650377 0.111611 -0.910527
v -0.650376 0.000000 0.910527
v -0.390224 0.000000 0.910527
v -0.130075 0.000000 0.910527
v 0.130075 0.000000 0.910527
v 0.390227 0.000000 0.910527
v 0.650377 0.000000 0.910527
v 0.650377 0.111611 0.910527
v 0.390227 0.111611 0.910527
v 0.130075 0.111611 0.910527
v -0.390226 0.111611 0.910527
v -0.910527 0.000000 -0.650377
v -0.910527 0.000000 -0.390226
v -0.910527 0.000000 -0.130075
v -0.910527 0.000000 0.130075
v -0.910527 0.000000 0.390226
v -0.910527 0.000000 0.650377
v -0.910527 0.111611 0.130075
v -0.910527 0.111611 -0.130075
v -0.910527 0.111611 -0.390226
v -0.910527 0.111611 -0.650377
v 0.910528 0.000000 0.650377
v 0.910528 0.000000 0.390226
v 0.910528 0.000000 0.130075
v 0.910528 0.000000 -0.130075
v 0.910528 0.000000 -0.390226
v 0.910528 0.000000 -0.650377
v 0.910528 0.111611 0.130075
v 0.130075 0.111611 -0.650377
v 0.130075 0.111611 -0.390226
v -0.650376 0.111611 -0.650377
v -0.650376 0.111611 -0.130075
v -0.650377 0.111611 0.650377
v -0.650377 0.000000 -0.650377
v -0.650377 0.000000 -0.390226
v -0.650377 0.000000 -0.130075
v -0.650377 0.000000 0.130075
v -0.650377 0.000000 0.390226
v -0.650377 0.000000 0.650377
v -0.390226 0.000000 -0.650377
v -0.390226 0.000000 -0.390226
v -0.390226 0.000000 -0.130075
v -0.390226 0.000000 0.130075
v -0.390226 0.000000 0.390226
v -0.390224 0.000000 0.650377
v -0.130075 0.000000 -0.650377
v -0.130075 0.000000 -0.390226
v -0.130075 0.000000 -0.130075
v -0.130075 0.000000 0.130075
v -0.130075 0.000000 0.390226
v -0.130075 0.000000 0.650377
v 0.130075 0.000000 -0.650377
v 0.130075 0.000000 -0.390226
v 0.130075 0.000000 -0.130075
v 0.130075 0.000000 0.130075
v 0.130075 0.000000 0.390226
v 0.130075 0.000000 0.650377
v 0.390227 0.000000 -0.650377
v 0.390227 0.000000 -0.390226
v 0.390227 0.000000 -0.130075
v 0.390227 0.000000 0.130075
v 0.390227 0.000000 0.390226
v 0.390227 0.000000 0.650377
v 0.650377 0.000000 -0.650377
v 0.650377 0.000000 -0.390226
v 0.650377 0.000000 -0.130075
v 0.650377 0.000000 0.130075
v 0.650377 0.000000 0.390226
v 0.650377 0.000000 0.650377
v -0.658606 0.111611 0.658606
v -0.902298 0.111611 0.658606
v -0.902298 0.111611 0.902298
v -0.658606 0.111611 0.902298
v 0.902299 0.111611 0.658606
v 0.658606 0.111611 0.658606
v 0.658606 0.111611 0.902298
v 0.902299 0.111611 0.902298
v 0.642149 0.111611 0.658606
v 0.398455 0.111611 0.658606
v 0.398455 0.111611 0.902298
v 0.642149 0.111611 0.902298
v 0.381998 0.111611 0.658606
v 0.138304 0.111611 0.658606
v 0.138304 0.111611 0.902298
v 0.381998 0.111611 0.902298
v 0.121847 0.111611 0.658606
v -0.121846 0.111611 0.658606
v -0.121846 0.111611 0.902298
v 0.121847 0.111611 0.902298
v -0.138303 0.111611 0.658606
v -0.381996 0.111611 0.658606
v -0.381997 0.111611 0.902298
v -0.138303 0.111611 0.902298
v -0.398453 0.111611 0.658606
v -0.642149 0.111611 0.658606
v -0.642149 0.111611 0.902298
v -0.398454 0.111611 0.902298
v -0.398453 0.111611 -0.902298
v -0.642147 0.111611 -0.902298
v -0.642147 0.111611 -0.658605
v -0.398453 0.111611 -0.658605
v -0.398453 0.111611 -0.642148
v -0.642147 0.111611 -0.642148
v -0.642147 0.111611 -0.398455
v -0.398453 0.111611 -0.398455
v -0.398453 0.111611 -0.381997
v -0.642147 0.111611 -0.381997
v -0.642147 0.111611 -0.138304
v -0.398453 0.111611 -0.138304
v -0.398453 0.111611 -0.121847
v -0.642147 0.111611 -0.121847
v -0.642147 0.111611 0.121846
v -0.398453 0.111611 0.121846
v -0.398453 0.111611 0.138304
v -0.642147 0.111611 0.138304
v -0.642147 0.111611 0.381997
v -0.398453 0.111611 0.381997
v -0.398453 0.111611 0.398455
v -0.642147 0.111611 0.398455
v -0.642149 0.111611 0.642148
v -0.398453 0.111611 0.642148
v -0.138303 0.111611 -0.902298
v -0.381996 0.111611 -0.902298
v -0.381996 0.111611 -0.658605
v -0.138303 0.111611 -0.658605
v -0.138303 0.111611 -0.642148
v -0.381996 0.111611 -0.642148
v -0.381996 0.111611 -0.398455
v -0.138303 0.111611 -0.398455
v -0.138303 0.111611 -0.381997
v -0.381996 0.111611 -0.381997
v -0.381996 0.111611 -0.138304
v -0.138303 0.111611 -0.138304
v -0.138303 0.111611 -0.121847
v -0.381996 0.111611 -0.121847
v -0.381996 0.111611 0.121846
v -0.138303 0.111611 0.121846
v -0.138303 0.111611 0.138304
v -0.381996 0.111611 0.138304
v -0.381996 0.111611 0.381997
v -0.138303 0.111611 0.381997
v -0.138303 0.111611 0.398455
v -0.381996 0.111611 0.398455
v -0.381996 0.111611 0.642148
v -0.138303 0.111611 0.642148
v 0.121847 0.111611 -0.902298
v -0.121846 0.111611 -0.902298
v -0.121846 0.111611 -0.658605
v 0.121847 0.111611 -0.658605
v 0.121847 0.111611 -0.642148
v -0.121846 0.111611 -0.642148
v -0.121846 0.111611 -0.398455
v 0.121847 0.111611 -0.398455
v 0.121847 0.111611 -0.381997
v -0.121846 0.111611 -0.381997
v -0.121846 0.111611 -0.138304
v 0.121847 0.111611 -0.138304
v 0.121847 0.111611 -0.121847
v -0.121846 0.111611 -0.121847
v -0.121846 0.111611 0.121846
v 0.121847 0.111611 0.121846
v 0.121847 0.111611 0.138304
v -0.121846 0.111611 0.138304
v -0.121846 0.111611 0.381997
v 0.121847 0.111611 0.381997
v 0.121847 0.111611 0.398455
v -0.121846 0.111611 0.398455
v -0.121846 0.111611 0.642148
v 0.121847 0.111611 0.642148
v 0.381998 0.111611 -0.902298
v 0.138304 0.111611 -0.902298
v 0.138304 0.111611 -0.658605
v 0.381998 0.111611 -0.658605
v 0.381998 0.111611 -0.642148
v 0.138304 0.111611 -0.642148
v 0.138304 0.111611 -0.398455
v 0.381998 0.111611 -0.398455
v 0.381998 0.111611 -0.381997
v 0.138304 0.111611 -0.381997
v 0.138304 0.111611 -0.138304
v 0.381998 0.111611 -0.138304
v 0.381998 0.111611 -0.121847
v 0.138304 0.111611 -0.121847
v 0.138304 0.111611 0.121846
v 0.381998 0.111611 0.121846
v 0.381998 0.111611 0.138304
v 0.138304 0.111611 0.138304
v 0.138304 0.111611 0.381997
v 0.381998 0.111611 0.381997
v 0.381998 0.111611 0.398455
v 0.138304 0.111611 0.398455
v 0.138304 0.111611 0.642148
v 0.381998 0.111611 0.642148
v 0.642149 0.111611 -0.902298
v 0.398455 0.111611 -0.902298
v 0.398455 0.111611 -0.658605
v 0.642149 0.111611 -0.658605
v 0.642149 0.111611 -0.642148
v 0.398455 0.111611 -0.642148
v 0.398455 0.111611 -0.398455
v 0.642149 0.111611 -0.398455
v 0.642149 0.111611 -0.381997
v 0.398455 0.111611 -0.381997
v 0.398455 0.111611 -0.138304
v 0.642149 0.111611 -0.138304
v 0.642149 0.111611 -0.121847
v 0.398455 0.111611 -0.121847
v 0.398455 0.111611 0.121846
v 0.642149 0.111611 0.121846
v 0.642149 0.111611 0.138304
v 0.398455 0.111611 0.138304
v 0.398455 0.111611 0.381997
v 0.642149 0.111611 0.381997
v 0.642149 0.111611 0.398455
v 0.398455 0.111611 0.398455
v 0.398455 0.111611 0.642148
v 0.642149 0.111611 0.642148
v 0.902299 0.111611 -0.902298
v 0.658606 0.111611 -0.902298
v 0.658606 0.111611 -0.658605
v 0.902299 0.111611 -0.658605
v 0.902299 0.111611 -0.642148
v 0.658606 0.111611 -0.642148
v 0.658606 0.111611 -0.398455
v 0.902299 0.111611 -0.398455
v 0.902299 0.111611 -0.381997
v 0.658606 0.111611 -0.381997
v 0.658606 0.111611 -0.138304
v 0.902299 0.111611 -0.138304
v 0.902299 0.111611 -0.121847
v 0.658606 0.111611 -0.121847
v 0.658606 0.111611 0.121846
v 0.902299 0.111611 0.121846
v 0.902299 0.111611 0.138304
v 0.658606 0.111611 0.138304
v 0.658606 0.111611 0.381997
v 0.902299 0.111611 0.381997
v 0.902299 0.111611 0.398455
v 0.658606 0.111611 0.398455
v 0.658606 0.111611 0.642148
v 0.902299 0.111611 0.642148
v -0.658604 0.111611 -0.902298
v -0.902298 0.111611 -0.902298
v -0.902298 0.111611 -0.658605
v -0.658604 0.111611 -0.658605
v -0.658604 0.111611 -0.642148
v -0.902298 0.111611 -0.642148
v -0.902298 0.111611 -0.398455
v -0.658604 0.111611 -0.398455
v -0.658604 0.111611 -0.381997
v -0.902298 0.111611 -0.381997
v -0.902298 0.111611 -0.138304
v -0.658604 0.111611 -0.138304
v -0.658604 0.111611 -0.121847
v -0.902298 0.111611 -0.121847
v -0.902298 0.111611 0.121846
v -0.658604 0.111611 0.121846
v -0.658604 0.111611 0.138304
v -0.902298 0.111611 0.138304
v -0.902298 0.111611 0.381997
v -0.658604 0.111611 0.381997
v -0.658604 0.111611 0.398455
v -0.902298 0.111611 0.398455
v -0.902298 0.111611 0.642148
v -0.658606 0.111611 0.642148
v -0.650377 0.111611 0.910527
v 0.910528 0.111611 0.910527
v -0.390224 0.111611 0.650377
v -0.130075 0.111611 0.650377
v -0.130075 0.111611 0.910527
v -0.390224 0.111611 -0.650377
v -0.650376 0.111611 -0.390226
v -0.390224 0.111611 -0.390226
v -0.390224 0.111611 -0.130075
v -0.650376 0.111611 0.130075
v -0.390224 0.111611 0.130075
v -0.650376 0.111611 0.390226
v -0.390224 0.111611 0.390226
v -0.390224 0.111611 -0.910527
v -0.130075 0.111611 -0.650377
v -0.130075 0.111611 -0.390226
v -0.130075 0.111611 -0.130075
v -0.130075 0.111611 0.130075
v -0.130075 0.111611 0.390226
v 0.130075 0.111611 0.130075
v 0.130075 0.111611 -0.910527
v 0.390227 0.111611 -0.910527
v 0.390227 0.111611 -0.390226
v 0.130075 0.111611 -0.130075
v 0.390227 0.111611 -0.130075
v 0.390227 0.111611 0.130075
v 0.130075 0.111611 0.390226
v 0.130075 0.111611 0.650377
v 0.390227 0.111611 -0.650377
v 0.650377 0.111611 0.130075
v 0.390227 0.111611 0.390226
v 0.390227 0.111611 0.650377
v 0.650377 0.111611 -0.650377
v 0.910528 0.111611 -0.650377
v 0.910528 0.111611 -0.390226
v 0.650377 0.111611 -0.390226
v 0.650377 0.111611 -0.130075
v 0.910528 0.111611 -0.130075
v 0.650377 0.111611 0.390226
v 0.910528 0.111611 0.390226
v 0.650377 0.111611 0.650377
v 0.910528 0.111611 0.650377
v -0.910527 0.111611 0.390226
v -0.910527 0.111611 0.650377
v -0.902298 0.117858 0.658606
v -0.658606 0.117858 0.658606
v -0.902298 0.117858 0.902298
v -0.658606 0.117858 0.902298
v 0.658606 0.117858 0.658606
v 0.902299 0.117858 0.658606
v 0.658606 0.117858 0.902298
v 0.902299 0.117858 0.902298
v 0.398455 0.117858 0.658606
v 0.642149 0.117858 0.658606
v 0.398455 0.117858 0.902298
v 0.642149 0.117858 0.902298
v 0.138304 0.117858 0.658606
v 0.381998 0.117858 0.658606
v 0.138304 0.117858 0.902298
v 0.381998 0.117858 0.902298
v -0.121846 0.117858 0.658606
v 0.121847 0.117858 0.658606
v -0.121846 0.117858 0.902298
v 0.121847 0.117858 0.902298
v -0.381996 0.117858 0.658606
v -0.138303 0.117858 0.658606
v -0.381997 0.117858 0.902298
v -0.138303 0.117858 0.902298
v -0.642149 0.117858 0.658606
v -0.398453 0.117858 0.658606
v -0.642149 0.117858 0.902298
v -0.398454 0.117858 0.902298
v -0.642147 0.117858 -0.902298
v -0.398453 0.117858 -0.902298
v -0.642147 0.117858 -0.658605
v -0.398453 0.117858 -0.658605
v -0.642147 0.117858 -0.642148
v -0.398453 0.117858 -0.642148
v -0.642147 0.117858 -0.398455
v -0.398453 0.117858 -0.398455
v -0.642147 0.117858 -0.381997
v -0.398453 0.117858 -0.381997
v -0.642147 0.117858 -0.138304
v -0.398453 0.117858 -0.138304
v -0.642147 0.117858 -0.121847
v -0.398453 0.117858 -0.121847
v -0.642147 0.117858 0.121846
v -0.398453 0.117858 0.121846
v -0.642147 0.117858 0.138304
v -0.398453 0.117858 0.138304
v -0.642147 0.117858 0.381997
v -0.398453 0.117858 0.381997
v -0.642147 0.117858 0.398455
v -0.398453 0.117858 0.398455
v -0.642149 0.117858 0.642148
v -0.398453 0.117858 0.642148
v -0.381996 0.117858 -0.902298
v -0.138303 0.117858 -0.902298
v -0.381996 0.117858 -0.658605
v -0.138303 0.117858 -0.658605
v -0.381996 0.117858 -0.642148
v -0.138303 0.117858 -0.642148
v -0.381996 0.117858 -0.398455
v -0.138303 0.117858 -0.398455
v -0.381996 0.117858 -0.381997
v -0.138303 0.117858 -0.381997
v -0.381996 0.117858 -0.138304
v -0.138303 0.117858 -0.138304
v -0.381996 0.117858 -0.121847
v -0.138303 0.117858 -0.121847
v -0.381996 0.117858 0.121846
v -0.138303 0.117858 0.121846
v -0.381996 0.117858 0.138304
v -0.138303 0.117858 0.138304
v -0.381996 0.117858 0.381997
v -0.138303 0.117858 0.381997
v -0.381996 0.117858 0.398455
v -0.138303 0.117858 0.398455
v -0.381996 0.117858 0.642148
v -0.138303 0.117858 0.642148
v -0.121846 0.117858 -0.902298
v 0.121847 0.117858 -0.902298
v -0.121846 0.117858 -0.658605
v 0.121847 0.117858 -0.658605
v -0.121846 0.117858 -0.642148
v 0.121847 0.117858 -0.642148
v -0.121846 0.117858 -0.398455
v 0.121847 0.117858 -0.398455
v -0.121846 0.117858 -0.381997
v 0.121847 0.117858 -0.381997
v -0.121846 0.117858 -0.138304
v 0.121847 0.117858 -0.138304
v -0.121846 0.117858 -0.121847
v 0.121847 0.117858 -0.121847
v -0.121846 0.117858 0.121846
v 0.121847 0.117858 0.121846
v -0.121846 0.117858 0.138304
v 0.121847 0.117858 0.138304
v -0.121846 0.117858 0.381997
v 0.121847 0.117858 0.381997
v -0.121846 0.117858 0.398455
v 0.121847 0.117858 0.398455
v -0.121846 0.117858 0.642148
v 0.121847 0.117858 0.642148
v 0.138304 0.117858 -0.902298
v 0.381998 0.117858 -0.902298
v 0.138304 0.117858 -0.658605
v 0.381998 0.117858 -0.658605
v 0.138304 0.117858 -0.642148
v 0.381998 0.117858 -0.642148
v 0.138304 0.117858 -0.398455
v 0.381998 0.117858 -0.398455
v 0.138304 0.117858 -0.381997
v 0.381998 0.117858 -0.381997
v 0.138304 0.117858 -0.138304
v 0.381998 0.117858 -0.138304
v 0.138304 0.117858 -0.121847
v 0.381998 0.117858 -0.121847
v 0.138304 0.117858 0.121846
v 0.381998 0.117858 0.121846
v 0.138304 0.117858 0.138304
v 0.381998 0.117858 0.138304
v 0.138304 0.117858 0.381997
v 0.381998 0.117858 0.381997
v 0.138304 0.117858 0.398455
v 0.381998 0.117858 0.398455
v 0.138304 0.117858 0.642148
v 0.381998 0.117858 0.642148
v 0.398455 0.117858 -0.902298
v 0.642149 0.117858 -0.902298
v 0.398455 0.117858 -0.658605
v 0.642149 0.117858 -0.658605
v 0.398455 0.117858 -0.642148
v 0.642149 0.117858 -0.642148
v 0.398455 0.117858 -0.398455
v 0.642149 0.117858 -0.398455
v 0.398455 0.117858 -0.381997
v 0.642149 0.117858 -0.381997
v 0.398455 0.117858 -0.138304
v 0.642149 0.117858 -0.138304
v 0.398455 0.117858 -0.121847
v 0.642149 0.117858 -0.121847
v 0.398455 0.117858 0.121846
v 0.642149 0.117858 0.121846
v 0.398455 0.117858 0.138304
v 0.642149 0.117858 0.138304
v 0.398455 0.117858 0.381997
v 0.642149 0.117858 0.381997
v 0.398455 0.117858 0.398455
v 0.642149 0.117858 0.398455
v 0.398455 0.117858 0.642148
v 0.642149 0.117858 0.642148
v 0.658606 0.117858 -0.902298
v 0.902299 0.117858 -0.902298
v 0.658606 0.117858 -0.658605
v 0.902299 0.117858 -0.658605
v 0.658606 0.117858 -0.642148
v 0.902299 0.117858 -0.642148
v 0.658606 0.117858 -0.398455
v 0.902299 0.117858 -0.398455
v 0.658606 0.117858 -0.381997
v 0.902299 0.117858 -0.381997
v 0.658606 0.117858 -0.138304
v 0.902299 0.117858 -0.138304
v 0.658606 0.117858 -0.121847
v 0.902299 0.117858 -0.121847
v 0.658606 0.117858 0.121846
v 0.902299 0.117858 0.121846
v 0.658606 0.117858 0.138304
v 0.902299 0.117858 0.138304
v 0.658606 0.117858 0.381997
v 0.902299 0.117858 0.381997
v 0.658606 0.117858 0.398455
v 0.902299 0.117858 0.398455
v 0.658606 0.117858 0.642148
v 0.902299 0.117858 0.642148
v -0.902298 0.117858 -0.902298
v -0.658604 0.117858 -0.902298
v -0.902298 0.117858 -0.658605
v -0.658604 0.117858 -0.658605
v -0.902298 0.117858 -0.642148
v -0.658604 0.117858 -0.642148
v -0.902298 0.117858 -0.398455
v -0.658604 0.117858 -0.398455
v -0.902298 0.117858 -0.381997
v -0.658604 0.117858 -0.381997
v -0.902298 0.117858 -0.138304
v -0.658604 0.117858 -0.138304
v -0.902298 0.117858 -0.121847
v -0.658604 0.117858 -0.121847
v -0.902298 0.117858 0.121846
v -0.658604 0.117858 0.121846
v -0.902298 0.117858 0.138304
v -0.658604 0.117858 0.138304
v -0.902298 0.117858 0.381997
v -0.658604 0.117858 0.381997
v -0.902298 0.117858 0.398455
v -0.658604 0.117858 0.398455
v -0.902298 0.117858 0.642148
v -0.658606 0.117858 0.642148
vn -1.0000 -0.0000 -0.0000
vn -0.0000 -0.0000 -1.0000
vn 1.0000 -0.0000 -0.0000
vn -0.0000 -0.0000 1.0000
vn -0.0000 -1.0000 -0.0000
vn -0.0000 1.0000 -0.0000
vt 0.819382 0.460412
vt 0.809036 0.460831
vt 0.809036 0.460412
vt 0.819382 0.463340
vt 0.809036 0.463758
vt 0.809036 0.463340
vt 0.819382 0.466267
vt 0.809036 0.466686
vt 0.809036 0.466267
vt 0.819382 0.469195
vt 0.809036 0.469613
vt 0.809036 0.469195
vt 0.807557 0.466686
vt 0.807557 0.466267
vt 0.800167 0.466267
vt 0.798689 0.466686
vt 0.798689 0.466267
vt 0.801645 0.466267
vt 0.800167 0.466686
vt 0.803123 0.466267
vt 0.801645 0.466686
vt 0.804601 0.466267
vt 0.803123 0.466686
vt 0.806079 0.466267
vt 0.804601 0.466686
vt 0.806079 0.466686
vt 0.819382 0.466686
vt 0.809036 0.467104
vt 0.819382 0.467104
vt 0.809036 0.467522
vt 0.819382 0.467522
vt 0.809036 0.467940
vt 0.819382 0.467940
vt 0.809036 0.468359
vt 0.819382 0.468359
vt 0.809036 0.468777
vt 0.819382 0.468777
vt 0.819382 0.460831
vt 0.809036 0.461249
vt 0.819382 0.461249
vt 0.809036 0.461667
vt 0.819382 0.461667
vt 0.809036 0.462085
vt 0.819382 0.462085
vt 0.809036 0.462503
vt 0.819382 0.462503
vt 0.809036 0.462922
vt 0.819382 0.462922
vt 0.807557 0.463758
vt 0.806079 0.464176
vt 0.806079 0.463758
vt 0.807557 0.464176
vt 0.806079 0.464595
vt 0.807557 0.464595
vt 0.806079 0.465013
vt 0.807557 0.465013
vt 0.806079 0.465431
vt 0.803912 0.465208
vt 0.803549 0.465310
vt 0.803549 0.465208
vt 0.807557 0.465849
vt 0.806079 0.465849
vt 0.803549 0.464797
vt 0.803186 0.464900
vt 0.803186 0.464797
vt 0.804601 0.464595
vt 0.804601 0.464176
vt 0.804601 0.465013
vt 0.803549 0.465105
vt 0.803186 0.465208
vt 0.803186 0.465105
vt 0.804601 0.465849
vt 0.804601 0.465431
vt 0.803186 0.465413
vt 0.803186 0.465310
vt 0.804601 0.463758
vt 0.803123 0.464176
vt 0.803123 0.463758
vt 0.803123 0.464595
vt 0.803123 0.465013
vt 0.803123 0.465431
vt 0.803123 0.465849
vt 0.801645 0.464176
vt 0.801645 0.463758
vt 0.801645 0.464595
vt 0.801645 0.465013
vt 0.801645 0.465431
vt 0.801645 0.465849
vt 0.803744 0.464759
vt 0.803381 0.464862
vt 0.803381 0.464759
vt 0.800167 0.464595
vt 0.800167 0.464176
vt 0.800167 0.465013
vt 0.803744 0.465067
vt 0.803381 0.465170
vt 0.803381 0.465067
vt 0.800167 0.465849
vt 0.800167 0.465431
vt 0.803744 0.465272
vt 0.803381 0.465375
vt 0.803381 0.465272
vt 0.800167 0.463758
vt 0.798689 0.464176
vt 0.798689 0.463758
vt 0.798689 0.464595
vt 0.798689 0.465013
vt 0.798689 0.465431
vt 0.803018 0.465272
vt 0.803018 0.465170
vt 0.798689 0.465849
vt 0.804274 0.464797
vt 0.803912 0.464900
vt 0.803912 0.464797
vt 0.809036 0.464176
vt 0.809036 0.464595
vt 0.804274 0.465105
vt 0.803912 0.465105
vt 0.809036 0.465431
vt 0.807557 0.465431
vt 0.804274 0.465310
vt 0.803912 0.465413
vt 0.803912 0.465310
vt 0.819382 0.463758
vt 0.819382 0.464176
vt 0.819382 0.464595
vt 0.809036 0.465013
vt 0.819382 0.465013
vt 0.819382 0.465431
vt 0.809036 0.465849
vt 0.819382 0.465849
vt 0.819382 0.457903
vt 0.809036 0.458321
vt 0.809036 0.457903
vt 0.819382 0.458321
vt 0.809036 0.458739
vt 0.067131 0.886275
vt 0.064592 0.886378
vt 0.064592 0.886275
vt 0.819382 0.459158
vt 0.809036 0.459576
vt 0.809036 0.459158
vt 0.819382 0.459576
vt 0.809036 0.459994
vt 0.819382 0.459994
vt 0.822292 0.464163
vt 0.822292 0.463771
vt 0.826726 0.466281
vt 0.825342 0.466281
vt 0.820907 0.463771
vt 0.823864 0.466281
vt 0.823864 0.466672
vt 0.066585 0.886212
vt 0.066585 0.886308
vt 0.825248 0.466672
vt 0.066924 0.886308
vt 0.825248 0.466281
vt 0.066924 0.886212
vt 0.822385 0.466281
vt 0.822385 0.466672
vt 0.822385 0.465444
vt 0.822385 0.465836
vt 0.823770 0.466672
vt 0.823770 0.465836
vt 0.823770 0.466281
vt 0.823770 0.465444
vt 0.820907 0.466281
vt 0.820907 0.466672
vt 0.066585 0.886007
vt 0.066585 0.886103
vt 0.822292 0.466672
vt 0.066924 0.886103
vt 0.822292 0.466281
vt 0.066924 0.886007
vt 0.819429 0.466281
vt 0.819429 0.466672
vt 0.822385 0.464608
vt 0.822385 0.465000
vt 0.820814 0.466672
vt 0.823770 0.465000
vt 0.820814 0.466281
vt 0.823770 0.464608
vt 0.828298 0.466281
vt 0.828298 0.466672
vt 0.822385 0.464190
vt 0.822385 0.464581
vt 0.829683 0.466672
vt 0.823770 0.464581
vt 0.829683 0.466281
vt 0.823770 0.464190
vt 0.066585 0.885699
vt 0.066585 0.885795
vt 0.066924 0.885795
vt 0.066924 0.885699
vt 0.823864 0.465862
vt 0.823864 0.466254
vt 0.825248 0.466254
vt 0.064608 0.880959
vt 0.065510 0.880951
vt 0.065481 0.880959
vt 0.070460 0.879565
vt 0.070474 0.879688
vt 0.070460 0.879684
vt 0.066711 0.882437
vt 0.065809 0.882445
vt 0.065839 0.882437
vt 0.070039 0.879684
vt 0.070025 0.879561
vt 0.070039 0.879565
vt 0.059893 0.880959
vt 0.058991 0.880951
vt 0.059923 0.880951
vt 0.067765 0.879565
vt 0.067779 0.879688
vt 0.067765 0.879684
vt 0.061124 0.882437
vt 0.060222 0.882445
vt 0.060251 0.882437
vt 0.067344 0.879684
vt 0.067330 0.879561
vt 0.067344 0.879565
vt 0.059952 0.880959
vt 0.060854 0.880951
vt 0.060824 0.880959
vt 0.068214 0.879565
vt 0.068228 0.879688
vt 0.068214 0.879684
vt 0.062055 0.882437
vt 0.061153 0.882445
vt 0.061183 0.882437
vt 0.067793 0.879684
vt 0.067779 0.879561
vt 0.067793 0.879565
vt 0.060883 0.880959
vt 0.061785 0.880951
vt 0.061756 0.880959
vt 0.068663 0.879565
vt 0.068678 0.879688
vt 0.068663 0.879684
vt 0.062114 0.882437
vt 0.063016 0.882445
vt 0.062084 0.882445
vt 0.068243 0.879684
vt 0.068228 0.879561
vt 0.068243 0.879565
vt 0.061815 0.880959
vt 0.062716 0.880951
vt 0.062687 0.880959
vt 0.069112 0.879565
vt 0.069127 0.879688
vt 0.069112 0.879684
vt 0.063917 0.882437
vt 0.063045 0.882437
vt 0.068692 0.879684
vt 0.068678 0.879561
vt 0.068692 0.879565
vt 0.062746 0.880959
vt 0.063648 0.880951
vt 0.063618 0.880959
vt 0.069562 0.879684
vt 0.069576 0.879561
vt 0.069576 0.879688
vt 0.064849 0.882437
vt 0.063947 0.882445
vt 0.063976 0.882437
vt 0.069141 0.879684
vt 0.069127 0.879561
vt 0.069141 0.879565
vt 0.064549 0.880959
vt 0.064579 0.880951
vt 0.070011 0.879565
vt 0.070025 0.879688
vt 0.070011 0.879684
vt 0.065780 0.882437
vt 0.064878 0.882445
vt 0.064908 0.882437
vt 0.069590 0.879565
vt 0.065835 0.886556
vt 0.065484 0.886553
vt 0.065847 0.886553
vt 0.070011 0.878802
vt 0.070025 0.878925
vt 0.070011 0.878921
vt 0.065165 0.883932
vt 0.064263 0.883940
vt 0.064292 0.883932
vt 0.069590 0.878921
vt 0.069576 0.878798
vt 0.069590 0.878802
vt 0.065165 0.883949
vt 0.065194 0.883940
vt 0.070011 0.878929
vt 0.070025 0.879052
vt 0.070011 0.879048
vt 0.065165 0.884196
vt 0.064263 0.884204
vt 0.064292 0.884196
vt 0.069590 0.878929
vt 0.069576 0.879052
vt 0.069576 0.878925
vt 0.065165 0.884212
vt 0.065194 0.884204
vt 0.070011 0.879056
vt 0.070025 0.879179
vt 0.070011 0.879175
vt 0.064549 0.880152
vt 0.063648 0.880161
vt 0.063677 0.880152
vt 0.069590 0.879056
vt 0.069576 0.879179
vt 0.066954 0.887300
vt 0.066603 0.887297
vt 0.066966 0.887297
vt 0.067421 0.887143
vt 0.067426 0.887191
vt 0.067421 0.887189
vt 0.065595 0.885283
vt 0.065244 0.885286
vt 0.065256 0.885283
vt 0.069590 0.879302
vt 0.069590 0.879183
vt 0.064549 0.880432
vt 0.063648 0.880424
vt 0.064579 0.880424
vt 0.070011 0.879310
vt 0.070025 0.879434
vt 0.070011 0.879430
vt 0.064549 0.880679
vt 0.063648 0.880688
vt 0.063677 0.880679
vt 0.069590 0.879310
vt 0.069576 0.879434
vt 0.069576 0.879306
vt 0.065595 0.885392
vt 0.065244 0.885389
vt 0.065607 0.885389
vt 0.067421 0.887288
vt 0.067426 0.887240
vt 0.067426 0.887290
vt 0.065595 0.885488
vt 0.065244 0.885491
vt 0.065256 0.885488
vt 0.067257 0.887288
vt 0.067251 0.887240
vt 0.067257 0.887242
vt 0.063361 0.883685
vt 0.064263 0.883677
vt 0.064233 0.883685
vt 0.069562 0.878802
vt 0.069562 0.878921
vt 0.064233 0.883932
vt 0.063332 0.883940
vt 0.063361 0.883932
vt 0.069141 0.878921
vt 0.069127 0.878798
vt 0.069141 0.878802
vt 0.063361 0.883949
vt 0.064233 0.883949
vt 0.069562 0.878929
vt 0.069562 0.879048
vt 0.064233 0.884196
vt 0.063332 0.884204
vt 0.063361 0.884196
vt 0.069141 0.878929
vt 0.069127 0.879052
vt 0.069127 0.878925
vt 0.063361 0.884212
vt 0.064233 0.884212
vt 0.069562 0.879056
vt 0.069562 0.879175
vt 0.063618 0.880152
vt 0.062716 0.880161
vt 0.062746 0.880152
vt 0.069141 0.879056
vt 0.069127 0.879179
vt 0.062746 0.880169
vt 0.063618 0.880169
vt 0.069562 0.879183
vt 0.069562 0.879302
vt 0.063618 0.880416
vt 0.062716 0.880424
vt 0.062746 0.880416
vt 0.069141 0.879302
vt 0.069141 0.879183
vt 0.062746 0.880432
vt 0.063618 0.880432
vt 0.069562 0.879310
vt 0.069562 0.879430
vt 0.063618 0.880679
vt 0.062716 0.880688
vt 0.062746 0.880679
vt 0.069141 0.879310
vt 0.069127 0.879434
vt 0.069127 0.879306
vt 0.062746 0.880696
vt 0.063618 0.880696
vt 0.069562 0.879557
vt 0.063618 0.880943
vt 0.062746 0.880943
vt 0.069141 0.879557
vt 0.069141 0.879438
vt 0.062430 0.883685
vt 0.063332 0.883677
vt 0.063302 0.883685
vt 0.069112 0.878802
vt 0.069112 0.878921
vt 0.063302 0.883932
vt 0.062400 0.883940
vt 0.062430 0.883932
vt 0.068692 0.878921
vt 0.068678 0.878798
vt 0.068692 0.878802
vt 0.062430 0.883949
vt 0.063302 0.883949
vt 0.069112 0.878929
vt 0.069112 0.879048
vt 0.063302 0.884196
vt 0.062400 0.884204
vt 0.062430 0.884196
vt 0.068692 0.878929
vt 0.068678 0.879052
vt 0.068678 0.878925
vt 0.062430 0.884212
vt 0.063302 0.884212
vt 0.069112 0.879056
vt 0.069112 0.879175
vt 0.062687 0.880152
vt 0.061785 0.880161
vt 0.061815 0.880152
vt 0.068692 0.879056
vt 0.068678 0.879179
vt 0.061815 0.880169
vt 0.062687 0.880169
vt 0.069112 0.879183
vt 0.069112 0.879302
vt 0.062687 0.880416
vt 0.061785 0.880424
vt 0.061815 0.880416
vt 0.068692 0.879302
vt 0.068692 0.879183
vt 0.061815 0.880432
vt 0.062687 0.880432
vt 0.069112 0.879310
vt 0.069112 0.879430
vt 0.062687 0.880679
vt 0.061785 0.880688
vt 0.061815 0.880679
vt 0.068692 0.879310
vt 0.068678 0.879434
vt 0.068678 0.879306
vt 0.061815 0.880696
vt 0.062687 0.880696
vt 0.069112 0.879557
vt 0.062687 0.880943
vt 0.061815 0.880943
vt 0.068692 0.879557
vt 0.068692 0.879438
vt 0.066068 0.886330
vt 0.066419 0.886327
vt 0.066408 0.886330
vt 0.066896 0.886994
vt 0.066901 0.887042
vt 0.066896 0.887041
vt 0.066068 0.886426
vt 0.066419 0.886429
vt 0.066056 0.886429
vt 0.066732 0.887041
vt 0.066727 0.886993
vt 0.066732 0.886994
vt 0.061499 0.883949
vt 0.062371 0.883949
vt 0.068663 0.878929
vt 0.068663 0.879048
vt 0.061499 0.884196
vt 0.061469 0.884204
vt 0.068243 0.878929
vt 0.068228 0.879052
vt 0.068228 0.878925
vt 0.061499 0.884212
vt 0.062371 0.884212
vt 0.068663 0.879056
vt 0.068663 0.879175
vt 0.060883 0.880152
vt 0.060854 0.880161
vt 0.068243 0.879056
vt 0.068228 0.879179
vt 0.065526 0.887300
vt 0.065877 0.887297
vt 0.065866 0.887300
vt 0.066896 0.887143
vt 0.066901 0.887191
vt 0.066896 0.887189
vt 0.060883 0.880416
vt 0.060854 0.880424
vt 0.068243 0.879302
vt 0.068243 0.879183
vt 0.060883 0.880432
vt 0.061756 0.880432
vt 0.068663 0.879310
vt 0.068663 0.879430
vt 0.060883 0.880679
vt 0.060854 0.880688
vt 0.068243 0.879310
vt 0.068228 0.879434
vt 0.068228 0.879306
vt 0.066168 0.885618
vt 0.066519 0.885615
vt 0.066508 0.885618
vt 0.066896 0.887288
vt 0.066901 0.887240
vt 0.066901 0.887290
vt 0.065828 0.885262
vt 0.066179 0.885265
vt 0.065817 0.885265
vt 0.066732 0.887288
vt 0.066727 0.887240
vt 0.066732 0.887242
vt 0.060567 0.883685
vt 0.061469 0.883677
vt 0.061440 0.883685
vt 0.068214 0.878802
vt 0.068214 0.878921
vt 0.061440 0.883932
vt 0.060538 0.883940
vt 0.060567 0.883932
vt 0.067793 0.878921
vt 0.067779 0.878798
vt 0.067793 0.878802
vt 0.060567 0.883949
vt 0.061469 0.883940
vt 0.061440 0.883949
vt 0.068214 0.878929
vt 0.068214 0.879048
vt 0.061440 0.884196
vt 0.060538 0.884204
vt 0.060567 0.884196
vt 0.067793 0.878929
vt 0.067779 0.879052
vt 0.067779 0.878925
vt 0.060567 0.884212
vt 0.061440 0.884212
vt 0.068214 0.879056
vt 0.068214 0.879175
vt 0.060824 0.880152
vt 0.059923 0.880161
vt 0.059952 0.880152
vt 0.067793 0.879056
vt 0.067779 0.879179
vt 0.059952 0.880169
vt 0.060824 0.880169
vt 0.068214 0.879183
vt 0.068214 0.879302
vt 0.060824 0.880416
vt 0.059923 0.880424
vt 0.059952 0.880416
vt 0.067793 0.879302
vt 0.067793 0.879183
vt 0.065805 0.885516
vt 0.066156 0.885512
vt 0.066145 0.885516
vt 0.066721 0.887192
vt 0.066721 0.887239
vt 0.066145 0.885612
vt 0.065794 0.885615
vt 0.065805 0.885612
vt 0.066557 0.887192
vt 0.066552 0.887240
vt 0.066552 0.887191
vt 0.059952 0.880696
vt 0.060824 0.880696
vt 0.068214 0.879557
vt 0.060824 0.880943
vt 0.059952 0.880943
vt 0.067793 0.879557
vt 0.067779 0.879434
vt 0.067793 0.879438
vt 0.066022 0.886783
vt 0.065671 0.886779
vt 0.066033 0.886779
vt 0.066546 0.886994
vt 0.066552 0.887042
vt 0.066546 0.887041
vt 0.066022 0.886879
vt 0.065671 0.886882
vt 0.065682 0.886879
vt 0.066382 0.887041
vt 0.066377 0.886993
vt 0.066382 0.886994
vt 0.060508 0.883949
vt 0.059607 0.883940
vt 0.067765 0.878929
vt 0.067765 0.879048
vt 0.060508 0.884196
vt 0.059607 0.884204
vt 0.059636 0.884196
vt 0.067344 0.878929
vt 0.067330 0.879052
vt 0.067330 0.878925
vt 0.060508 0.884212
vt 0.067765 0.879056
vt 0.067765 0.879175
vt 0.059893 0.880152
vt 0.058991 0.880161
vt 0.059021 0.880152
vt 0.067344 0.879056
vt 0.067330 0.879179
vt 0.066763 0.887715
vt 0.066412 0.887712
vt 0.066775 0.887712
vt 0.066546 0.887143
vt 0.066546 0.887189
vt 0.065782 0.885509
vt 0.065431 0.885512
vt 0.065442 0.885509
vt 0.066382 0.887189
vt 0.066377 0.887141
vt 0.066382 0.887143
vt 0.059893 0.880432
vt 0.058991 0.880424
vt 0.067765 0.879310
vt 0.067765 0.879430
vt 0.059893 0.880679
vt 0.058991 0.880688
vt 0.059021 0.880679
vt 0.067344 0.879310
vt 0.067330 0.879434
vt 0.067330 0.879306
vt 0.065782 0.885618
vt 0.065431 0.885615
vt 0.066546 0.887288
vt 0.066552 0.887290
vt 0.065782 0.885714
vt 0.065431 0.885718
vt 0.065442 0.885714
vt 0.066382 0.887288
vt 0.066377 0.887240
vt 0.066382 0.887242
vt 0.066096 0.883685
vt 0.065194 0.883677
vt 0.066125 0.883677
vt 0.070460 0.878802
vt 0.070474 0.878925
vt 0.070460 0.878921
vt 0.066096 0.883932
vt 0.065224 0.883932
vt 0.070039 0.878921
vt 0.070025 0.878798
vt 0.070039 0.878802
vt 0.066096 0.883949
vt 0.066125 0.883940
vt 0.070460 0.878929
vt 0.070474 0.879052
vt 0.070460 0.879048
vt 0.066096 0.884196
vt 0.065224 0.884196
vt 0.070039 0.878929
vt 0.066096 0.884212
vt 0.066125 0.884204
vt 0.070460 0.879056
vt 0.070474 0.879179
vt 0.070460 0.879175
vt 0.065481 0.880152
vt 0.064579 0.880161
vt 0.064608 0.880152
vt 0.070039 0.879056
vt 0.065481 0.880169
vt 0.065510 0.880161
vt 0.070460 0.879183
vt 0.070474 0.879306
vt 0.070460 0.879302
vt 0.065481 0.880416
vt 0.064608 0.880416
vt 0.070039 0.879302
vt 0.070039 0.879183
vt 0.065958 0.885289
vt 0.065607 0.885286
vt 0.065970 0.885286
vt 0.067596 0.887192
vt 0.067601 0.887240
vt 0.067596 0.887239
vt 0.065958 0.885385
vt 0.065618 0.885385
vt 0.067432 0.887192
vt 0.065481 0.880696
vt 0.064579 0.880688
vt 0.065510 0.880688
vt 0.070460 0.879557
vt 0.070474 0.879434
vt 0.070474 0.879561
vt 0.065481 0.880943
vt 0.064608 0.880943
vt 0.070039 0.879438
vt 0.827934 0.482882
vt 0.826549 0.483274
vt 0.826549 0.482882
vt 0.825342 0.466672
vt 0.828204 0.466281
vt 0.826820 0.466672
vt 0.826820 0.466281
vt 0.065682 0.885733
vt 0.065539 0.885773
vt 0.065539 0.885733
vt 0.828204 0.464190
vt 0.826820 0.464581
vt 0.826820 0.464190
vt 0.828204 0.464608
vt 0.826820 0.465000
vt 0.826820 0.464608
vt 0.065682 0.885862
vt 0.065539 0.885903
vt 0.065539 0.885862
vt 0.828204 0.465444
vt 0.826820 0.465836
vt 0.826820 0.465444
vt 0.065682 0.885949
vt 0.065539 0.885989
vt 0.065539 0.885949
vt 0.826726 0.463771
vt 0.825342 0.464163
vt 0.825342 0.463771
vt 0.826726 0.464190
vt 0.825342 0.464581
vt 0.825342 0.464190
vt 0.825506 0.435799
vt 0.824121 0.436191
vt 0.824121 0.435799
vt 0.826726 0.465026
vt 0.825342 0.465418
vt 0.825342 0.465026
vt 0.826726 0.465444
vt 0.825342 0.465836
vt 0.825342 0.465444
vt 0.826726 0.465862
vt 0.825342 0.466254
vt 0.825342 0.465862
vt 0.825248 0.463771
vt 0.823864 0.464163
vt 0.823864 0.463771
vt 0.825248 0.464190
vt 0.823864 0.464581
vt 0.823864 0.464190
vt 0.828666 0.422616
vt 0.827282 0.423007
vt 0.827282 0.422616
vt 0.825248 0.465026
vt 0.823864 0.465418
vt 0.823864 0.465026
vt 0.825248 0.465444
vt 0.823864 0.465836
vt 0.823864 0.465444
vt 0.825248 0.465862
vt 0.065564 0.886186
vt 0.065420 0.886226
vt 0.065420 0.886186
vt 0.827188 0.422197
vt 0.825803 0.422589
vt 0.825803 0.422197
vt 0.065564 0.886315
vt 0.065420 0.886356
vt 0.065420 0.886315
vt 0.065564 0.886402
vt 0.065420 0.886442
vt 0.065420 0.886402
vt 0.820907 0.464163
vt 0.822292 0.464190
vt 0.820907 0.464581
vt 0.820907 0.464190
vt 0.822292 0.464608
vt 0.820907 0.465000
vt 0.820907 0.464608
vt 0.822292 0.465026
vt 0.820907 0.465418
vt 0.820907 0.465026
vt 0.065715 0.886337
vt 0.065375 0.886433
vt 0.065375 0.886337
vt 0.822292 0.465862
vt 0.820907 0.466254
vt 0.820907 0.465862
vt 0.066541 0.886148
vt 0.066398 0.886188
vt 0.066398 0.886148
vt 0.824232 0.422197
vt 0.822847 0.422589
vt 0.822847 0.422197
vt 0.820814 0.464608
vt 0.819429 0.465000
vt 0.819429 0.464608
vt 0.066541 0.886278
vt 0.066398 0.886318
vt 0.066398 0.886278
vt 0.820814 0.465444
vt 0.819429 0.465836
vt 0.819429 0.465444
vt 0.066541 0.886364
vt 0.066398 0.886405
vt 0.066398 0.886364
vt 0.829683 0.463771
vt 0.828298 0.464163
vt 0.828298 0.463771
vt 0.829683 0.464190
vt 0.828298 0.464581
vt 0.828298 0.464190
vt 0.829683 0.464608
vt 0.828298 0.465000
vt 0.828298 0.464608
vt 0.829683 0.465026
vt 0.828298 0.465418
vt 0.828298 0.465026
vt 0.066811 0.886073
vt 0.066471 0.886169
vt 0.066471 0.886073
vt 0.829683 0.465862
vt 0.828298 0.466254
vt 0.828298 0.465862
vt 0.826726 0.466672
vt 0.822292 0.464581
vt 0.828204 0.466672
vt 0.066805 0.885661
vt 0.066465 0.885661
vt 0.822292 0.465000
vt 0.066805 0.885757
vt 0.066465 0.885757
vt 0.822292 0.465418
vt 0.828204 0.464581
vt 0.066562 0.886109
vt 0.066222 0.886109
vt 0.066562 0.886205
vt 0.828204 0.465000
vt 0.066222 0.886205
vt 0.066805 0.885969
vt 0.066465 0.885969
vt 0.822292 0.466254
vt 0.066805 0.886065
vt 0.066465 0.886065
vt 0.066199 0.885699
vt 0.065859 0.885699
vt 0.066199 0.885795
vt 0.828204 0.465836
vt 0.065859 0.885795
vt 0.820814 0.464190
vt 0.819429 0.464190
vt 0.066805 0.886174
vt 0.066465 0.886174
vt 0.820814 0.464581
vt 0.066805 0.886270
vt 0.819429 0.464581
vt 0.066465 0.886270
vt 0.820814 0.465000
vt 0.826726 0.464163
vt 0.066199 0.886007
vt 0.065859 0.886007
vt 0.066199 0.886103
vt 0.826726 0.464581
vt 0.065859 0.886103
vt 0.826726 0.464608
vt 0.825342 0.464608
vt 0.820814 0.465836
vt 0.826726 0.465000
vt 0.825342 0.465000
vt 0.066199 0.886212
vt 0.065859 0.886212
vt 0.066199 0.886308
vt 0.826726 0.465418
vt 0.065859 0.886308
vt 0.829683 0.464163
vt 0.826726 0.465836
vt 0.829683 0.464581
vt 0.826726 0.466254
vt 0.829683 0.465000
vt 0.825248 0.464163
vt 0.829683 0.465418
vt 0.825248 0.464581
vt 0.067168 0.886071
vt 0.066828 0.886071
vt 0.825248 0.464608
vt 0.823864 0.464608
vt 0.067168 0.886168
vt 0.825248 0.465000
vt 0.066828 0.886168
vt 0.823864 0.465000
vt 0.829683 0.466254
vt 0.825248 0.465418
vt 0.825248 0.465836
vt 0.819382 0.469613
vt 0.803549 0.464900
vt 0.803549 0.465413
vt 0.803744 0.464862
vt 0.803744 0.465170
vt 0.803744 0.465375
vt 0.804274 0.464900
vt 0.804274 0.465208
vt 0.804274 0.465413
vt 0.819382 0.458739
vt 0.067131 0.886378
vt 0.066741 0.882445
vt 0.059021 0.880959
vt 0.067330 0.879688
vt 0.062986 0.882437
vt 0.069562 0.879565
vt 0.063677 0.880959
vt 0.069590 0.879684
vt 0.065495 0.886556
vt 0.064292 0.883949
vt 0.069590 0.879048
vt 0.064292 0.884212
vt 0.069590 0.879175
vt 0.066614 0.887300
vt 0.067426 0.887141
vt 0.063677 0.880432
vt 0.070025 0.879306
vt 0.069590 0.879430
vt 0.065256 0.885392
vt 0.067421 0.887242
vt 0.065607 0.885491
vt 0.067251 0.887290
vt 0.069141 0.879048
vt 0.069141 0.879175
vt 0.069141 0.879430
vt 0.069562 0.879438
vt 0.062400 0.883677
vt 0.068692 0.879048
vt 0.068692 0.879175
vt 0.068692 0.879430
vt 0.069112 0.879438
vt 0.066056 0.886327
vt 0.066901 0.886993
vt 0.066408 0.886426
vt 0.066727 0.887042
vt 0.062371 0.884196
vt 0.068243 0.879048
vt 0.061756 0.880152
vt 0.068243 0.879175
vt 0.065515 0.887297
vt 0.066901 0.887141
vt 0.061756 0.880416
vt 0.061756 0.880679
vt 0.068243 0.879430
vt 0.066156 0.885615
vt 0.066896 0.887242
vt 0.066168 0.885262
vt 0.066727 0.887290
vt 0.060538 0.883677
vt 0.068228 0.878798
vt 0.067793 0.879048
vt 0.067793 0.879175
vt 0.067779 0.879306
vt 0.065794 0.885512
vt 0.066727 0.887191
vt 0.066557 0.887239
vt 0.059923 0.880688
vt 0.068214 0.879438
vt 0.065682 0.886783
vt 0.066552 0.886993
vt 0.066033 0.886882
vt 0.066377 0.887042
vt 0.059636 0.883949
vt 0.067344 0.879048
vt 0.059636 0.884212
vt 0.067344 0.879175
vt 0.066424 0.887715
vt 0.066552 0.887141
vt 0.066377 0.887191
vt 0.059021 0.880432
vt 0.067344 0.879430
vt 0.065442 0.885618
vt 0.066546 0.887242
vt 0.065794 0.885718
vt 0.066377 0.887290
vt 0.065224 0.883685
vt 0.070474 0.878798
vt 0.065224 0.883949
vt 0.070039 0.879048
vt 0.065224 0.884212
vt 0.070039 0.879175
vt 0.064608 0.880169
vt 0.065510 0.880424
vt 0.065618 0.885289
vt 0.067601 0.887191
vt 0.065970 0.885389
vt 0.067432 0.887239
vt 0.064608 0.880696
vt 0.070460 0.879438
vt 0.070039 0.879557
vt 0.827934 0.483274
vt 0.065682 0.885773
vt 0.065682 0.885903
vt 0.065682 0.885989
vt 0.825506 0.436191
vt 0.828666 0.423007
vt 0.065564 0.886226
vt 0.827188 0.422589
vt 0.065564 0.886356
vt 0.065564 0.886442
vt 0.065715 0.886433
vt 0.066541 0.886188
vt 0.824232 0.422589
vt 0.066541 0.886318
vt 0.066541 0.886405
vt 0.066811 0.886169
s 0
usemtl Material
f 36/1/1 3/2/1 27/3/1
f 16/4/2 6/5/2 8/6/2
f 322/7/3 5/8/3 37/9/3
f 281/10/4 1/11/4 17/12/4
f 37/9/5 22/13/5 84/14/5
f 54/15/5 1/16/5 32/17/5
f 60/18/5 17/19/5 54/15/5
f 66/20/5 18/21/5 60/18/5
f 72/22/5 19/23/5 66/20/5
f 78/24/5 20/25/5 72/22/5
f 84/14/5 21/26/5 78/24/5
f 282/27/4 22/28/4 5/8/4
f 23/29/4 21/30/4 22/28/4
f 24/31/4 20/32/4 21/30/4
f 25/33/4 19/34/4 20/32/4
f 285/35/4 18/36/4 19/34/4
f 26/37/4 17/12/4 18/36/4
f 4/38/2 13/39/2 3/2/2
f 14/40/2 12/41/2 13/39/2
f 294/42/2 11/43/2 12/41/2
f 15/44/2 10/45/2 11/43/2
f 301/46/2 9/47/2 10/45/2
f 302/48/2 8/6/2 9/47/2
f 8/49/5 73/50/5 9/51/5
f 79/52/5 74/53/5 73/50/5
f 80/54/5 75/55/5 74/53/5
f 81/56/5 76/57/5 75/55/5
f 82/58/5 77/59/5 76/60/5
f 83/61/5 78/24/5 77/62/5
f 9/63/5 67/64/5 10/65/5
f 73/50/5 68/66/5 67/67/5
f 74/53/5 69/68/5 68/66/5
f 75/69/5 70/70/5 69/71/5
f 76/57/5 71/72/5 70/73/5
f 77/59/5 72/74/5 71/75/5
f 10/76/5 61/77/5 11/78/5
f 67/67/5 62/79/5 61/77/5
f 68/66/5 63/80/5 62/79/5
f 69/68/5 64/81/5 63/80/5
f 70/73/5 65/82/5 64/81/5
f 71/72/5 66/20/5 65/82/5
f 11/78/5 55/83/5 12/84/5
f 61/77/5 56/85/5 55/83/5
f 62/79/5 57/86/5 56/85/5
f 63/80/5 58/87/5 57/86/5
f 64/81/5 59/88/5 58/87/5
f 65/82/5 60/18/5 59/88/5
f 12/89/5 49/90/5 13/91/5
f 55/83/5 50/92/5 49/93/5
f 56/85/5 51/94/5 50/92/5
f 57/95/5 52/96/5 51/97/5
f 58/87/5 53/98/5 52/99/5
f 59/100/5 54/101/5 53/102/5
f 13/103/5 27/104/5 3/105/5
f 49/93/5 28/106/5 27/104/5
f 50/92/5 29/107/5 28/106/5
f 51/94/5 30/108/5 29/107/5
f 52/96/5 31/109/5 30/110/5
f 53/98/5 32/17/5 31/111/5
f 6/112/5 79/113/5 8/114/5
f 42/115/5 80/54/5 79/52/5
f 41/116/5 81/56/5 80/54/5
f 40/117/5 82/58/5 81/118/5
f 39/119/5 83/61/5 82/120/5
f 38/121/5 84/122/5 83/123/5
f 7/124/3 42/115/3 6/5/3
f 314/125/3 41/116/3 42/115/3
f 315/126/3 40/127/3 41/116/3
f 318/128/3 39/119/3 40/127/3
f 43/129/3 38/130/3 39/119/3
f 320/131/3 37/9/3 38/130/3
f 2/132/1 32/133/1 1/134/1
f 324/135/1 31/136/1 32/133/1
f 323/137/1 30/138/1 31/139/1
f 33/140/1 29/141/1 30/142/1
f 34/143/1 28/144/1 29/141/1
f 35/145/1 27/3/1 28/144/1
f 211/146/1 449/147/1 210/147/1
f 106/148/2 346/149/2 105/149/2
f 210/147/2 450/150/2 209/150/2
f 101/151/3 344/152/3 104/152/3
f 205/153/3 448/154/3 208/154/3
f 104/152/4 343/155/4 103/155/4
f 208/154/4 447/156/4 207/156/4
f 103/155/1 341/157/1 102/157/1
f 207/156/1 445/158/1 206/158/1
f 102/157/2 342/151/2 101/151/2
f 206/158/2 446/153/2 205/153/2
f 97/159/3 340/160/3 100/160/3
f 201/161/3 444/162/3 204/162/3
f 100/160/4 339/163/4 99/163/4
f 204/162/4 443/164/4 203/164/4
f 99/163/1 337/165/1 98/165/1
f 203/164/1 441/166/1 202/166/1
f 98/165/2 338/159/2 97/159/2
f 202/166/2 442/161/2 201/161/2
f 93/167/3 336/168/3 96/168/3
f 197/169/3 440/170/3 200/170/3
f 96/168/4 335/171/4 95/171/4
f 200/170/4 439/172/4 199/172/4
f 95/171/1 333/173/1 94/173/1
f 199/172/1 437/174/1 198/174/1
f 94/173/2 334/167/2 93/167/2
f 198/174/2 438/169/2 197/169/2
f 89/175/3 332/176/3 92/176/3
f 193/177/3 436/178/3 196/178/3
f 92/176/4 331/179/4 91/179/4
f 196/178/4 435/180/4 195/180/4
f 91/179/1 329/181/1 90/181/1
f 195/180/1 433/182/1 194/182/1
f 90/181/2 330/175/2 89/175/2
f 194/182/2 434/177/2 193/177/2
f 85/183/3 328/184/3 88/184/3
f 189/185/3 432/186/3 192/186/3
f 88/184/4 327/187/4 87/187/4
f 192/186/4 431/188/4 191/188/4
f 87/187/1 325/189/1 86/189/1
f 191/188/1 429/190/1 190/190/1
f 86/189/2 326/183/2 85/183/2
f 190/190/2 430/185/2 189/185/2
f 185/191/3 428/192/3 188/192/3
f 188/192/4 427/193/4 187/193/4
f 187/193/1 425/194/1 186/194/1
f 186/194/2 426/191/2 185/191/2
f 181/195/3 424/196/3 184/196/3
f 184/196/4 423/197/4 183/197/4
f 85/198/6 324/199/6 86/200/6
f 86/201/6 2/202/6 87/203/6
f 87/204/6 281/205/6 88/206/6
f 88/207/6 48/208/6 85/209/6
f 90/210/6 322/211/6 321/212/6
f 90/213/6 23/214/6 91/215/6
f 91/216/6 282/217/6 92/218/6
f 92/219/6 322/220/6 89/221/6
f 93/222/6 312/223/6 94/224/6
f 94/225/6 24/226/6 95/227/6
f 95/228/6 23/229/6 96/230/6
f 96/231/6 321/232/6 93/233/6
f 97/234/6 308/235/6 98/236/6
f 98/237/6 25/238/6 99/239/6
f 100/240/6 25/241/6 24/242/6
f 100/243/6 312/244/6 97/245/6
f 101/246/6 284/247/6 102/248/6
f 102/249/6 285/250/6 103/251/6
f 103/252/6 25/241/6 104/253/6
f 104/254/6 308/255/6 101/256/6
f 105/257/6 283/258/6 106/259/6
f 107/260/6 283/261/6 26/262/6
f 107/263/6 285/264/6 108/265/6
f 108/266/6 284/267/6 105/268/6
f 110/269/6 283/258/6 48/270/6
f 110/271/6 281/272/6 111/273/6
f 111/274/6 26/275/6 112/276/6
f 109/277/6 26/262/6 283/261/6
f 114/278/6 294/279/6 14/280/6
f 114/281/6 46/282/6 115/283/6
f 115/284/6 286/285/6 116/286/6
f 116/287/6 294/288/6 113/289/6
f 118/290/6 286/285/6 46/291/6
f 118/292/6 287/293/6 119/294/6
f 119/295/6 288/296/6 120/297/6
f 117/298/6 288/299/6 286/300/6
f 122/301/6 288/296/6 287/302/6
f 122/303/6 47/304/6 123/305/6
f 123/306/6 289/307/6 124/308/6
f 121/309/6 289/310/6 288/299/6
f 126/311/6 289/312/6 47/313/6
f 126/314/6 290/315/6 127/316/6
f 127/317/6 291/318/6 128/319/6
f 128/320/6 289/310/6 125/321/6
f 130/322/6 291/323/6 290/324/6
f 130/325/6 292/326/6 131/327/6
f 131/328/6 293/329/6 132/330/6
f 129/331/6 293/332/6 291/333/6
f 134/334/6 293/335/6 292/336/6
f 135/337/6 292/338/6 48/339/6
f 135/340/6 283/341/6 136/342/6
f 136/343/6 293/344/6 133/345/6
f 137/346/6 294/347/6 138/348/6
f 138/349/6 286/300/6 139/350/6
f 139/351/6 295/352/6 140/353/6
f 140/354/6 15/355/6 137/356/6
f 141/357/6 286/285/6 142/358/6
f 142/359/6 288/299/6 143/360/6
f 143/361/6 296/362/6 144/363/6
f 141/364/6 296/365/6 295/366/6
f 145/367/6 288/296/6 146/368/6
f 146/369/6 289/310/6 147/370/6
f 147/371/6 297/372/6 148/373/6
f 145/374/6 297/375/6 296/365/6
f 149/376/6 289/307/6 150/377/6
f 150/378/6 291/333/6 151/379/6
f 151/380/6 298/381/6 152/382/6
f 152/383/6 297/375/6 149/384/6
f 153/385/6 291/323/6 154/386/6
f 154/387/6 293/332/6 155/388/6
f 155/389/6 299/390/6 156/391/6
f 153/392/6 299/393/6 298/394/6
f 157/395/6 293/329/6 158/396/6
f 159/397/6 293/332/6 283/261/6
f 159/398/6 284/247/6 160/399/6
f 160/400/6 299/393/6 157/401/6
f 161/402/6 15/403/6 162/404/6
f 162/405/6 295/366/6 163/406/6
f 163/407/6 44/408/6 164/409/6
f 164/410/6 301/411/6 161/412/6
f 165/413/6 295/352/6 166/414/6
f 166/415/6 296/365/6 167/416/6
f 167/417/6 45/418/6 168/419/6
f 165/420/6 45/421/6 44/422/6
f 169/423/6 296/362/6 170/424/6
f 170/425/6 297/375/6 171/426/6
f 171/427/6 304/428/6 172/429/6
f 169/430/6 304/431/6 45/421/6
f 173/432/6 297/372/6 174/433/6
f 174/434/6 298/394/6 175/435/6
f 175/436/6 300/437/6 176/438/6
f 176/439/6 304/431/6 173/440/6
f 177/441/6 298/381/6 178/442/6
f 178/443/6 299/393/6 179/444/6
f 179/445/6 307/446/6 180/447/6
f 177/448/6 307/449/6 300/450/6
f 181/451/6 299/390/6 182/452/6
f 183/453/6 299/393/6 284/267/6
f 183/454/6 308/235/6 184/455/6
f 184/456/6 307/449/6 181/457/6
f 185/458/6 301/459/6 186/460/6
f 186/461/6 44/462/6 187/463/6
f 188/464/6 44/465/6 309/466/6
f 188/467/6 302/468/6 185/469/6
f 189/470/6 44/408/6 190/471/6
f 190/472/6 45/421/6 191/473/6
f 192/474/6 45/418/6 303/475/6
f 189/476/6 303/477/6 309/478/6
f 193/479/6 45/418/6 194/480/6
f 194/481/6 304/431/6 195/482/6
f 196/483/6 304/428/6 305/484/6
f 193/485/6 305/486/6 303/477/6
f 197/487/6 304/488/6 198/489/6
f 198/490/6 300/491/6 199/492/6
f 200/493/6 300/437/6 306/494/6
f 200/495/6 305/486/6 197/496/6
f 201/497/6 300/437/6 202/498/6
f 202/499/6 307/449/6 203/500/6
f 204/501/6 307/446/6 311/502/6
f 201/503/6 311/504/6 306/505/6
f 205/506/6 307/507/6 206/508/6
f 207/509/6 307/510/6 308/511/6
f 208/512/6 308/513/6 312/514/6
f 208/515/6 311/516/6 205/517/6
f 209/518/6 302/519/6 210/520/6
f 210/521/6 309/478/6 211/522/6
f 211/523/6 313/524/6 212/525/6
f 212/526/6 16/527/6 209/528/6
f 213/529/6 309/530/6 214/531/6
f 214/532/6 303/477/6 215/533/6
f 215/534/6 316/535/6 216/536/6
f 213/537/6 316/538/6 313/539/6
f 217/540/6 303/475/6 218/541/6
f 218/542/6 305/486/6 219/543/6
f 219/544/6 317/545/6 220/546/6
f 217/547/6 317/548/6 316/538/6
f 221/549/6 305/484/6 222/550/6
f 222/551/6 306/505/6 223/552/6
f 223/553/6 310/554/6 224/555/6
f 224/556/6 317/548/6 221/557/6
f 225/558/6 306/559/6 226/560/6
f 226/561/6 311/516/6 227/562/6
f 227/563/6 319/564/6 228/565/6
f 225/566/6 319/567/6 310/568/6
f 229/569/6 311/502/6 230/570/6
f 231/571/6 311/504/6 312/244/6
f 231/572/6 321/212/6 232/573/6
f 232/574/6 319/575/6 229/576/6
f 234/577/6 7/578/6 16/579/6
f 234/580/6 313/581/6 235/582/6
f 235/583/6 314/584/6 236/585/6
f 236/586/6 7/587/6 233/588/6
f 238/589/6 314/590/6 313/524/6
f 238/591/6 316/538/6 239/592/6
f 239/593/6 315/594/6 240/595/6
f 237/596/6 315/597/6 314/598/6
f 242/599/6 315/594/6 316/535/6
f 242/600/6 317/548/6 243/601/6
f 243/602/6 318/603/6 244/604/6
f 241/605/6 318/606/6 315/597/6
f 246/607/6 318/608/6 317/609/6
f 246/610/6 310/568/6 247/611/6
f 247/612/6 43/613/6 248/614/6
f 248/615/6 318/616/6 245/617/6
f 250/618/6 43/619/6 310/554/6
f 250/620/6 319/575/6 251/621/6
f 251/622/6 320/623/6 252/624/6
f 249/625/6 320/626/6 43/627/6
f 254/628/6 320/629/6 319/564/6
f 255/630/6 319/567/6 321/631/6
f 255/632/6 322/633/6 256/634/6
f 256/635/6 320/636/6 253/637/6
f 258/638/6 14/639/6 4/640/6
f 258/641/6 36/642/6 259/643/6
f 259/644/6 46/291/6 260/645/6
f 260/646/6 14/647/6 257/648/6
f 262/649/6 46/291/6 36/650/6
f 262/651/6 35/652/6 263/653/6
f 263/654/6 287/302/6 264/655/6
f 261/656/6 287/293/6 46/282/6
f 266/657/6 287/302/6 35/658/6
f 266/659/6 34/660/6 267/661/6
f 267/662/6 47/663/6 268/664/6
f 265/665/6 47/304/6 287/293/6
f 270/666/6 47/663/6 34/667/6
f 270/668/6 33/669/6 271/670/6
f 271/671/6 290/324/6 272/672/6
f 272/673/6 47/304/6 269/674/6
f 274/675/6 290/676/6 33/677/6
f 274/678/6 323/679/6 275/680/6
f 275/681/6 292/336/6 276/682/6
f 273/683/6 292/338/6 290/315/6
f 278/684/6 292/685/6 323/686/6
f 279/687/6 323/688/6 324/689/6
f 279/690/6 48/270/6 280/691/6
f 277/692/6 48/208/6 292/326/6
f 325/189/6 328/184/6 326/183/6
f 329/181/6 332/176/6 330/175/6
f 333/173/6 336/168/6 334/167/6
f 337/165/6 340/160/6 338/159/6
f 341/693/6 344/694/6 342/695/6
f 345/148/6 348/696/6 346/149/6
f 349/697/6 352/698/6 350/699/6
f 353/700/6 356/701/6 354/702/6
f 357/703/6 360/704/6 358/705/6
f 361/706/6 364/707/6 362/708/6
f 365/709/6 368/710/6 366/711/6
f 369/712/6 372/713/6 370/714/6
f 373/715/6 376/716/6 374/717/6
f 377/718/6 380/719/6 378/720/6
f 381/721/6 384/722/6 382/723/6
f 385/724/6 388/725/6 386/726/6
f 389/727/6 392/728/6 390/729/6
f 393/730/6 396/731/6 394/732/6
f 397/733/6 400/734/6 398/735/6
f 401/736/6 404/737/6 402/738/6
f 405/739/6 408/740/6 406/741/6
f 409/742/6 412/743/6 410/744/6
f 413/745/6 416/746/6 414/747/6
f 417/748/6 420/749/6 418/750/6
f 421/751/6 424/196/6 422/195/6
f 425/752/6 428/753/6 426/754/6
f 429/755/6 432/756/6 430/757/6
f 433/182/6 436/178/6 434/177/6
f 437/758/6 440/759/6 438/760/6
f 441/166/6 444/162/6 442/161/6
f 445/761/6 448/762/6 446/763/6
f 449/147/6 452/764/6 450/150/6
f 453/765/6 456/766/6 454/767/6
f 457/768/6 460/769/6 458/770/6
f 461/771/6 464/772/6 462/773/6
f 465/774/6 468/775/6 466/776/6
f 469/777/6 472/778/6 470/779/6
f 473/780/6 476/781/6 474/782/6
f 477/783/6 480/784/6 478/785/6
f 481/786/6 484/787/6 482/788/6
f 485/789/6 488/790/6 486/791/6
f 489/792/6 492/793/6 490/794/6
f 493/795/6 496/796/6 494/797/6
f 497/798/6 500/799/6 498/800/6
f 501/801/6 504/802/6 502/803/6
f 505/804/6 508/805/6 506/806/6
f 509/807/6 512/808/6 510/809/6
f 513/810/6 516/811/6 514/812/6
f 517/813/6 520/814/6 518/815/6
f 107/816/1 345/148/1 106/148/1
f 212/764/4 451/146/4 211/146/4
f 108/696/4 347/816/4 107/816/4
f 209/150/3 452/764/3 212/764/3
f 105/149/3 348/696/3 108/696/3
f 214/765/2 454/767/2 213/767/2
f 110/697/2 350/699/2 109/699/2
f 215/817/1 453/765/1 214/765/1
f 111/818/1 349/697/1 110/697/1
f 216/766/4 455/817/4 215/817/4
f 112/698/4 351/818/4 111/818/4
f 213/767/3 456/766/3 216/766/3
f 109/699/3 352/698/3 112/698/3
f 218/768/2 458/770/2 217/770/2
f 114/819/2 354/820/2 113/820/2
f 219/821/1 457/768/1 218/768/1
f 115/822/1 353/819/1 114/819/1
f 220/769/4 459/821/4 219/821/4
f 116/823/4 355/822/4 115/822/4
f 217/770/3 460/769/3 220/769/3
f 113/820/3 356/823/3 116/823/3
f 222/771/2 462/773/2 221/773/2
f 118/703/2 358/705/2 117/705/2
f 223/824/1 461/771/1 222/771/1
f 119/825/1 357/703/1 118/703/1
f 224/772/4 463/824/4 223/824/4
f 120/704/4 359/825/4 119/825/4
f 221/773/3 464/772/3 224/772/3
f 117/705/3 360/704/3 120/704/3
f 226/826/2 466/827/2 225/827/2
f 122/706/2 362/708/2 121/708/2
f 227/828/1 465/826/1 226/826/1
f 123/829/1 361/706/1 122/706/1
f 228/830/4 467/828/4 227/828/4
f 124/707/4 363/829/4 123/829/4
f 225/827/3 468/830/3 228/830/3
f 121/708/3 364/707/3 124/707/3
f 230/777/2 470/779/2 229/779/2
f 126/831/2 366/832/2 125/832/2
f 231/833/1 469/777/1 230/777/1
f 127/834/1 365/831/1 126/831/1
f 232/778/4 471/833/4 231/833/4
f 128/835/4 367/834/4 127/834/4
f 229/779/3 472/778/3 232/778/3
f 125/832/3 368/835/3 128/835/3
f 234/836/2 474/837/2 233/837/2
f 130/712/2 370/714/2 129/714/2
f 235/838/1 473/836/1 234/836/1
f 131/839/1 369/712/1 130/712/1
f 236/840/4 475/838/4 235/838/4
f 132/713/4 371/839/4 131/839/4
f 233/837/3 476/840/3 236/840/3
f 129/714/3 372/713/3 132/713/3
f 238/841/2 478/842/2 237/842/2
f 134/843/2 374/844/2 133/844/2
f 239/845/1 477/841/1 238/841/1
f 135/846/1 373/843/1 134/843/1
f 240/847/4 479/845/4 239/845/4
f 136/848/4 375/846/4 135/846/4
f 237/842/3 480/847/3 240/847/3
f 133/844/3 376/848/3 136/848/3
f 242/786/2 482/788/2 241/788/2
f 138/718/2 378/720/2 137/720/2
f 243/849/1 481/786/1 242/786/1
f 139/850/1 377/718/1 138/718/1
f 244/787/4 483/849/4 243/849/4
f 140/719/4 379/850/4 139/850/4
f 241/788/3 484/787/3 244/787/3
f 137/720/3 380/719/3 140/719/3
f 246/851/2 486/852/2 245/852/2
f 142/721/2 382/723/2 141/723/2
f 247/853/1 485/851/1 246/851/1
f 143/854/1 381/721/1 142/721/1
f 248/855/4 487/853/4 247/853/4
f 144/722/4 383/854/4 143/854/4
f 245/852/3 488/855/3 248/855/3
f 141/723/3 384/722/3 144/722/3
f 250/792/2 490/794/2 249/794/2
f 146/856/2 386/857/2 145/857/2
f 251/858/1 489/792/1 250/792/1
f 147/859/1 385/856/1 146/856/1
f 252/793/4 491/858/4 251/858/4
f 148/860/4 387/859/4 147/859/4
f 249/794/3 492/793/3 252/793/3
f 145/857/3 388/860/3 148/860/3
f 254/861/2 494/862/2 253/862/2
f 150/727/2 390/729/2 149/729/2
f 255/863/1 493/861/1 254/861/1
f 151/864/1 389/727/1 150/727/1
f 256/865/4 495/863/4 255/863/4
f 152/728/4 391/864/4 151/864/4
f 253/862/3 496/865/3 256/865/3
f 149/729/3 392/728/3 152/728/3
f 258/798/2 498/800/2 257/800/2
f 154/730/2 394/732/2 153/732/2
f 259/866/1 497/798/1 258/798/1
f 155/867/1 393/730/1 154/730/1
f 260/799/4 499/866/4 259/866/4
f 156/731/4 395/867/4 155/867/4
f 257/800/3 500/799/3 260/799/3
f 153/732/3 396/731/3 156/731/3
f 262/801/2 502/803/2 261/803/2
f 158/733/2 398/735/2 157/735/2
f 263/868/1 501/801/1 262/801/1
f 159/869/1 397/733/1 158/733/1
f 264/802/4 503/868/4 263/868/4
f 160/734/4 399/869/4 159/869/4
f 261/803/3 504/802/3 264/802/3
f 157/735/3 400/734/3 160/734/3
f 266/804/2 506/806/2 265/806/2
f 162/736/2 402/738/2 161/738/2
f 267/870/1 505/804/1 266/804/1
f 163/871/1 401/736/1 162/736/1
f 268/805/4 507/870/4 267/870/4
f 164/737/4 403/871/4 163/871/4
f 265/806/3 508/805/3 268/805/3
f 161/738/3 404/737/3 164/737/3
f 270/807/2 510/809/2 269/809/2
f 166/739/2 406/741/2 165/741/2
f 271/872/1 509/807/1 270/807/1
f 167/873/1 405/739/1 166/739/1
f 272/808/4 511/872/4 271/872/4
f 168/740/4 407/873/4 167/873/4
f 269/809/3 512/808/3 272/808/3
f 165/741/3 408/740/3 168/740/3
f 274/874/2 514/875/2 273/875/2
f 170/876/2 410/877/2 169/877/2
f 275/878/1 513/874/1 274/874/1
f 171/879/1 409/876/1 170/876/1
f 276/880/4 515/878/4 275/878/4
f 172/881/4 411/879/4 171/879/4
f 273/875/3 516/880/3 276/880/3
f 169/877/3 412/881/3 172/881/3
f 278/813/2 518/815/2 277/815/2
f 174/745/2 414/747/2 173/747/2
f 279/882/1 517/813/1 278/813/1
f 175/883/1 413/745/1 174/745/1
f 280/814/4 519/882/4 279/882/4
f 176/746/4 415/883/4 175/883/4
f 277/815/3 520/814/3 280/814/3
f 173/747/3 416/746/3 176/746/3
f 178/748/2 418/750/2 177/750/2
f 179/884/1 417/748/1 178/748/1
f 180/749/4 419/884/4 179/884/4
f 177/750/3 420/749/3 180/749/3
f 182/751/2 422/195/2 181/195/2
f 183/197/1 421/751/1 182/751/1
f 36/1/1 4/38/1 3/2/1
f 16/4/2 7/124/2 6/5/2
f 322/7/3 282/27/3 5/8/3
f 281/10/4 2/885/4 1/11/4
f 37/9/5 5/8/5 22/13/5
f 54/15/5 17/19/5 1/16/5
f 60/18/5 18/21/5 17/19/5
f 66/20/5 19/23/5 18/21/5
f 72/22/5 20/25/5 19/23/5
f 78/24/5 21/26/5 20/25/5
f 84/14/5 22/13/5 21/26/5
f 282/27/4 23/29/4 22/28/4
f 23/29/4 24/31/4 21/30/4
f 24/31/4 25/33/4 20/32/4
f 25/33/4 285/35/4 19/34/4
f 285/35/4 26/37/4 18/36/4
f 26/37/4 281/10/4 17/12/4
f 4/38/2 14/40/2 13/39/2
f 14/40/2 294/42/2 12/41/2
f 294/42/2 15/44/2 11/43/2
f 15/44/2 301/46/2 10/45/2
f 301/46/2 302/48/2 9/47/2
f 302/48/2 16/4/2 8/6/2
f 8/49/5 79/52/5 73/50/5
f 79/52/5 80/54/5 74/53/5
f 80/54/5 81/56/5 75/55/5
f 81/56/5 82/120/5 76/57/5
f 82/58/5 83/123/5 77/59/5
f 83/61/5 84/14/5 78/24/5
f 9/63/5 73/886/5 67/64/5
f 73/50/5 74/53/5 68/66/5
f 74/53/5 75/55/5 69/68/5
f 75/69/5 76/60/5 70/70/5
f 76/57/5 77/62/5 71/72/5
f 77/59/5 78/887/5 72/74/5
f 10/76/5 67/67/5 61/77/5
f 67/67/5 68/66/5 62/79/5
f 68/66/5 69/68/5 63/80/5
f 69/68/5 70/73/5 64/81/5
f 70/73/5 71/72/5 65/82/5
f 71/72/5 72/22/5 66/20/5
f 11/78/5 61/77/5 55/83/5
f 61/77/5 62/79/5 56/85/5
f 62/79/5 63/80/5 57/86/5
f 63/80/5 64/81/5 58/87/5
f 64/81/5 65/82/5 59/88/5
f 65/82/5 66/20/5 60/18/5
f 12/89/5 55/888/5 49/90/5
f 55/83/5 56/85/5 50/92/5
f 56/85/5 57/86/5 51/94/5
f 57/95/5 58/889/5 52/96/5
f 58/87/5 59/88/5 53/98/5
f 59/100/5 60/890/5 54/101/5
f 13/103/5 49/93/5 27/104/5
f 49/93/5 50/92/5 28/106/5
f 50/92/5 51/94/5 29/107/5
f 51/94/5 52/99/5 30/108/5
f 52/96/5 53/102/5 31/109/5
f 53/98/5 54/15/5 32/17/5
f 6/112/5 42/891/5 79/113/5
f 42/115/5 41/116/5 80/54/5
f 41/116/5 40/127/5 81/56/5
f 40/117/5 39/892/5 82/58/5
f 39/119/5 38/130/5 83/61/5
f 38/121/5 37/893/5 84/122/5
f 7/124/3 314/125/3 42/115/3
f 314/125/3 315/126/3 41/116/3
f 315/126/3 318/128/3 40/127/3
f 318/128/3 43/129/3 39/119/3
f 43/129/3 320/131/3 38/130/3
f 320/131/3 322/7/3 37/9/3
f 2/132/1 324/135/1 32/133/1
f 324/135/1 323/894/1 31/136/1
f 323/137/1 33/895/1 30/138/1
f 33/140/1 34/143/1 29/141/1
f 34/143/1 35/145/1 28/144/1
f 35/145/1 36/1/1 27/3/1
f 211/146/1 451/146/1 449/147/1
f 106/148/2 345/148/2 346/149/2
f 210/147/2 449/147/2 450/150/2
f 101/151/3 342/151/3 344/152/3
f 205/153/3 446/153/3 448/154/3
f 104/152/4 344/152/4 343/155/4
f 208/154/4 448/154/4 447/156/4
f 103/155/1 343/155/1 341/157/1
f 207/156/1 447/156/1 445/158/1
f 102/157/2 341/157/2 342/151/2
f 206/158/2 445/158/2 446/153/2
f 97/159/3 338/159/3 340/160/3
f 201/161/3 442/161/3 444/162/3
f 100/160/4 340/160/4 339/163/4
f 204/162/4 444/162/4 443/164/4
f 99/163/1 339/163/1 337/165/1
f 203/164/1 443/164/1 441/166/1
f 98/165/2 337/165/2 338/159/2
f 202/166/2 441/166/2 442/161/2
f 93/167/3 334/167/3 336/168/3
f 197/169/3 438/169/3 440/170/3
f 96/168/4 336/168/4 335/171/4
f 200/170/4 440/170/4 439/172/4
f 95/171/1 335/171/1 333/173/1
f 199/172/1 439/172/1 437/174/1
f 94/173/2 333/173/2 334/167/2
f 198/174/2 437/174/2 438/169/2
f 89/175/3 330/175/3 332/176/3
f 193/177/3 434/177/3 436/178/3
f 92/176/4 332/176/4 331/179/4
f 196/178/4 436/178/4 435/180/4
f 91/179/1 331/179/1 329/181/1
f 195/180/1 435/180/1 433/182/1
f 90/181/2 329/181/2 330/175/2
f 194/182/2 433/182/2 434/177/2
f 85/183/3 326/183/3 328/184/3
f 189/185/3 430/185/3 432/186/3
f 88/184/4 328/184/4 327/187/4
f 192/186/4 432/186/4 431/188/4
f 87/187/1 327/187/1 325/189/1
f 191/188/1 431/188/1 429/190/1
f 86/189/2 325/189/2 326/183/2
f 190/190/2 429/190/2 430/185/2
f 185/191/3 426/191/3 428/192/3
f 188/192/4 428/192/4 427/193/4
f 187/193/1 427/193/1 425/194/1
f 186/194/2 425/194/2 426/191/2
f 181/195/3 422/195/3 424/196/3
f 184/196/4 424/196/4 423/197/4
f 85/198/6 48/270/6 324/199/6
f 86/201/6 324/689/6 2/202/6
f 87/204/6 2/896/6 281/205/6
f 88/207/6 281/272/6 48/208/6
f 90/210/6 89/897/6 322/211/6
f 90/213/6 321/232/6 23/214/6
f 91/216/6 23/229/6 282/217/6
f 92/219/6 282/898/6 322/220/6
f 93/222/6 321/212/6 312/223/6
f 94/225/6 312/244/6 24/226/6
f 95/228/6 24/242/6 23/229/6
f 96/231/6 23/214/6 321/232/6
f 97/234/6 312/223/6 308/235/6
f 98/237/6 308/255/6 25/238/6
f 100/240/6 99/899/6 25/241/6
f 100/243/6 24/226/6 312/244/6
f 101/246/6 308/235/6 284/247/6
f 102/249/6 284/267/6 285/250/6
f 103/252/6 285/264/6 25/241/6
f 104/254/6 25/238/6 308/255/6
f 105/257/6 284/247/6 283/258/6
f 107/260/6 106/900/6 283/261/6
f 107/263/6 26/275/6 285/264/6
f 108/266/6 285/250/6 284/267/6
f 110/269/6 109/901/6 283/258/6
f 110/271/6 48/208/6 281/272/6
f 111/274/6 281/205/6 26/275/6
f 109/277/6 112/902/6 26/262/6
f 114/278/6 113/903/6 294/279/6
f 114/281/6 14/647/6 46/282/6
f 115/284/6 46/291/6 286/285/6
f 116/287/6 286/300/6 294/288/6
f 118/290/6 117/904/6 286/285/6
f 118/292/6 46/282/6 287/293/6
f 119/295/6 287/302/6 288/296/6
f 117/298/6 120/905/6 288/299/6
f 122/301/6 121/906/6 288/296/6
f 122/303/6 287/293/6 47/304/6
f 123/306/6 47/663/6 289/307/6
f 121/309/6 124/907/6 289/310/6
f 126/311/6 125/908/6 289/312/6
f 126/314/6 47/909/6 290/315/6
f 127/317/6 290/676/6 291/318/6
f 128/320/6 291/333/6 289/310/6
f 130/322/6 129/910/6 291/323/6
f 130/325/6 290/911/6 292/326/6
f 131/328/6 292/685/6 293/329/6
f 129/331/6 132/912/6 293/332/6
f 134/334/6 133/913/6 293/335/6
f 135/337/6 134/914/6 292/338/6
f 135/340/6 48/915/6 283/341/6
f 136/343/6 283/916/6 293/344/6
f 137/346/6 15/403/6 294/347/6
f 138/349/6 294/288/6 286/300/6
f 139/351/6 286/285/6 295/352/6
f 140/354/6 295/366/6 15/355/6
f 141/357/6 295/352/6 286/285/6
f 142/359/6 286/300/6 288/299/6
f 143/361/6 288/296/6 296/362/6
f 141/364/6 144/917/6 296/365/6
f 145/367/6 296/362/6 288/296/6
f 146/369/6 288/299/6 289/310/6
f 147/371/6 289/307/6 297/372/6
f 145/374/6 148/918/6 297/375/6
f 149/376/6 297/372/6 289/307/6
f 150/378/6 289/310/6 291/333/6
f 151/380/6 291/323/6 298/381/6
f 152/383/6 298/394/6 297/375/6
f 153/385/6 298/381/6 291/323/6
f 154/387/6 291/333/6 293/332/6
f 155/389/6 293/329/6 299/390/6
f 153/392/6 156/919/6 299/393/6
f 157/395/6 299/390/6 293/329/6
f 159/397/6 158/920/6 293/332/6
f 159/398/6 283/258/6 284/247/6
f 160/400/6 284/267/6 299/393/6
f 161/402/6 301/921/6 15/403/6
f 162/405/6 15/355/6 295/366/6
f 163/407/6 295/352/6 44/408/6
f 164/410/6 44/422/6 301/411/6
f 165/413/6 44/408/6 295/352/6
f 166/415/6 295/366/6 296/365/6
f 167/417/6 296/362/6 45/418/6
f 165/420/6 168/922/6 45/421/6
f 169/423/6 45/418/6 296/362/6
f 170/425/6 296/365/6 297/375/6
f 171/427/6 297/372/6 304/428/6
f 169/430/6 172/923/6 304/431/6
f 173/432/6 304/428/6 297/372/6
f 174/434/6 297/375/6 298/394/6
f 175/436/6 298/381/6 300/437/6
f 176/439/6 300/450/6 304/431/6
f 177/441/6 300/437/6 298/381/6
f 178/443/6 298/394/6 299/393/6
f 179/445/6 299/390/6 307/446/6
f 177/448/6 180/924/6 307/449/6
f 181/451/6 307/446/6 299/390/6
f 183/453/6 182/925/6 299/393/6
f 183/454/6 284/247/6 308/235/6
f 184/456/6 308/255/6 307/449/6
f 185/458/6 302/926/6 301/459/6
f 186/461/6 301/927/6 44/462/6
f 188/464/6 187/928/6 44/465/6
f 188/467/6 309/929/6 302/468/6
f 189/470/6 309/530/6 44/408/6
f 190/472/6 44/422/6 45/421/6
f 192/474/6 191/930/6 45/418/6
f 189/476/6 192/931/6 303/477/6
f 193/479/6 303/475/6 45/418/6
f 194/481/6 45/421/6 304/431/6
f 196/483/6 195/932/6 304/428/6
f 193/485/6 196/933/6 305/486/6
f 197/487/6 305/934/6 304/488/6
f 198/490/6 304/935/6 300/491/6
f 200/493/6 199/936/6 300/437/6
f 200/495/6 306/505/6 305/486/6
f 201/497/6 306/494/6 300/437/6
f 202/499/6 300/450/6 307/449/6
f 204/501/6 203/937/6 307/446/6
f 201/503/6 204/938/6 311/504/6
f 205/506/6 311/939/6 307/507/6
f 207/509/6 206/940/6 307/510/6
f 208/512/6 207/941/6 308/513/6
f 208/515/6 312/942/6 311/516/6
f 209/518/6 16/943/6 302/519/6
f 210/521/6 302/944/6 309/478/6
f 211/523/6 309/530/6 313/524/6
f 212/526/6 313/539/6 16/527/6
f 213/529/6 313/524/6 309/530/6
f 214/532/6 309/478/6 303/477/6
f 215/534/6 303/475/6 316/535/6
f 213/537/6 216/945/6 316/538/6
f 217/540/6 316/535/6 303/475/6
f 218/542/6 303/477/6 305/486/6
f 219/544/6 305/484/6 317/545/6
f 217/547/6 220/946/6 317/548/6
f 221/549/6 317/545/6 305/484/6
f 222/551/6 305/486/6 306/505/6
f 223/553/6 306/494/6 310/554/6
f 224/556/6 310/947/6 317/548/6
f 225/558/6 310/948/6 306/559/6
f 226/561/6 306/949/6 311/516/6
f 227/563/6 311/939/6 319/564/6
f 225/566/6 228/950/6 319/567/6
f 229/569/6 319/951/6 311/502/6
f 231/571/6 230/952/6 311/504/6
f 231/572/6 312/223/6 321/212/6
f 232/574/6 321/232/6 319/575/6
f 234/577/6 233/953/6 7/578/6
f 234/580/6 16/954/6 313/581/6
f 235/583/6 313/955/6 314/584/6
f 236/586/6 314/956/6 7/587/6
f 238/589/6 237/957/6 314/590/6
f 238/591/6 313/539/6 316/538/6
f 239/593/6 316/535/6 315/594/6
f 237/596/6 240/958/6 315/597/6
f 242/599/6 241/959/6 315/594/6
f 242/600/6 316/538/6 317/548/6
f 243/602/6 317/545/6 318/603/6
f 241/605/6 244/960/6 318/606/6
f 246/607/6 245/961/6 318/608/6
f 246/610/6 317/962/6 310/568/6
f 247/612/6 310/948/6 43/613/6
f 248/615/6 43/963/6 318/616/6
f 250/618/6 249/964/6 43/619/6
f 250/620/6 310/947/6 319/575/6
f 251/622/6 319/951/6 320/623/6
f 249/625/6 252/965/6 320/626/6
f 254/628/6 253/966/6 320/629/6
f 255/630/6 254/967/6 319/567/6
f 255/632/6 321/968/6 322/633/6
f 256/635/6 322/969/6 320/636/6
f 258/638/6 257/970/6 14/639/6
f 258/641/6 4/971/6 36/642/6
f 259/644/6 36/650/6 46/291/6
f 260/646/6 46/282/6 14/647/6
f 262/649/6 261/972/6 46/291/6
f 262/651/6 36/642/6 35/652/6
f 263/654/6 35/658/6 287/302/6
f 261/656/6 264/973/6 287/293/6
f 266/657/6 265/974/6 287/302/6
f 266/659/6 35/652/6 34/660/6
f 267/662/6 34/667/6 47/663/6
f 265/665/6 268/975/6 47/304/6
f 270/666/6 269/976/6 47/663/6
f 270/668/6 34/660/6 33/669/6
f 271/671/6 33/977/6 290/324/6
f 272/673/6 290/911/6 47/304/6
f 274/675/6 273/978/6 290/676/6
f 274/678/6 33/979/6 323/679/6
f 275/681/6 323/980/6 292/336/6
f 273/683/6 276/981/6 292/338/6
f 278/684/6 277/982/6 292/685/6
f 279/687/6 278/983/6 323/688/6
f 279/690/6 324/199/6 48/270/6
f 277/692/6 280/984/6 48/208/6
f 325/189/6 327/187/6 328/184/6
f 329/181/6 331/179/6 332/176/6
f 333/173/6 335/171/6 336/168/6
f 337/165/6 339/163/6 340/160/6
f 341/693/6 343/985/6 344/694/6
f 345/148/6 347/816/6 348/696/6
f 349/697/6 351/818/6 352/698/6
f 353/700/6 355/986/6 356/701/6
f 357/703/6 359/825/6 360/704/6
f 361/706/6 363/829/6 364/707/6
f 365/709/6 367/987/6 368/710/6
f 369/712/6 371/839/6 372/713/6
f 373/715/6 375/988/6 376/716/6
f 377/718/6 379/850/6 380/719/6
f 381/721/6 383/854/6 384/722/6
f 385/724/6 387/989/6 388/725/6
f 389/727/6 391/864/6 392/728/6
f 393/730/6 395/867/6 396/731/6
f 397/733/6 399/869/6 400/734/6
f 401/736/6 403/871/6 404/737/6
f 405/739/6 407/873/6 408/740/6
f 409/742/6 411/990/6 412/743/6
f 413/745/6 415/883/6 416/746/6
f 417/748/6 419/884/6 420/749/6
f 421/751/6 423/197/6 424/196/6
f 425/752/6 427/991/6 428/753/6
f 429/755/6 431/992/6 432/756/6
f 433/182/6 435/180/6 436/178/6
f 437/758/6 439/993/6 440/759/6
f 441/166/6 443/164/6 444/162/6
f 445/761/6 447/994/6 448/762/6
f 449/147/6 451/146/6 452/764/6
f 453/765/6 455/817/6 456/766/6
f 457/768/6 459/821/6 460/769/6
f 461/771/6 463/824/6 464/772/6
f 465/774/6 467/995/6 468/775/6
f 469/777/6 471/833/6 472/778/6
f 473/780/6 475/996/6 476/781/6
f 477/783/6 479/997/6 480/784/6
f 481/786/6 483/849/6 484/787/6
f 485/789/6 487/998/6 488/790/6
f 489/792/6 491/858/6 492/793/6
f 493/795/6 495/999/6 496/796/6
f 497/798/6 499/866/6 500/799/6
f 501/801/6 503/868/6 504/802/6
f 505/804/6 507/870/6 508/805/6
f 509/807/6 511/872/6 512/808/6
f 513/810/6 515/1000/6 516/811/6
f 517/813/6 519/882/6 520/814/6
f 107/816/1 347/816/1 345/148/1
f 212/764/4 452/764/4 451/146/4
f 108/696/4 348/696/4 347/816/4
f 209/150/3 450/150/3 452/764/3
f 105/149/3 346/149/3 348/696/3
f 214/765/2 453/765/2 454/767/2
f 110/697/2 349/697/2 350/699/2
f 215/817/1 455/817/1 453/765/1
f 111/818/1 351/818/1 349/697/1
f 216/766/4 456/766/4 455/817/4
f 112/698/4 352/698/4 351/818/4
f 213/767/3 454/767/3 456/766/3
f 109/699/3 350/699/3 352/698/3
f 218/768/2 457/768/2 458/770/2
f 114/819/2 353/819/2 354/820/2
f 219/821/1 459/821/1 457/768/1
f 115/822/1 355/822/1 353/819/1
f 220/769/4 460/769/4 459/821/4
f 116/823/4 356/823/4 355/822/4
f 217/770/3 458/770/3 460/769/3
f 113/820/3 354/820/3 356/823/3
f 222/771/2 461/771/2 462/773/2
f 118/703/2 357/703/2 358/705/2
f 223/824/1 463/824/1 461/771/1
f 119/825/1 359/825/1 357/703/1
f 224/772/4 464/772/4 463/824/4
f 120/704/4 360/704/4 359/825/4
f 221/773/3 462/773/3 464/772/3
f 117/705/3 358/705/3 360/704/3
f 226/826/2 465/826/2 466/827/2
f 122/706/2 361/706/2 362/708/2
f 227/828/1 467/828/1 465/826/1
f 123/829/1 363/829/1 361/706/1
f 228/830/4 468/830/4 467/828/4
f 124/707/4 364/707/4 363/829/4
f 225/827/3 466/827/3 468/830/3
f 121/708/3 362/708/3 364/707/3
f 230/777/2 469/777/2 470/779/2
f 126/831/2 365/831/2 366/832/2
f 231/833/1 471/833/1 469/777/1
f 127/834/1 367/834/1 365/831/1
f 232/778/4 472/778/4 471/833/4
f 128/835/4 368/835/4 367/834/4
f 229/779/3 470/779/3 472/778/3
f 125/832/3 366/832/3 368/835/3
f 234/836/2 473/836/2 474/837/2
f 130/712/2 369/712/2 370/714/2
f 235/838/1 475/838/1 473/836/1
f 131/839/1 371/839/1 369/712/1
f 236/840/4 476/840/4 475/838/4
f 132/713/4 372/713/4 371/839/4
f 233/837/3 474/837/3 476/840/3
f 129/714/3 370/714/3 372/713/3
f 238/841/2 477/841/2 478/842/2
f 134/843/2 373/843/2 374/844/2
f 239/845/1 479/845/1 477/841/1
f 135/846/1 375/846/1 373/843/1
f 240/847/4 480/847/4 479/845/4
f 136/848/4 376/848/4 375/846/4
f 237/842/3 478/842/3 480/847/3
f 133/844/3 374/844/3 376/848/3
f 242/786/2 481/786/2 482/788/2
f 138/718/2 377/718/2 378/720/2
f 243/849/1 483/849/1 481/786/1
f 139/850/1 379/850/1 377/718/1
f 244/787/4 484/787/4 483/849/4
f 140/719/4 380/719/4 379/850/4
f 241/788/3 482/788/3 484/787/3
f 137/720/3 378/720/3 380/719/3
f 246/851/2 485/851/2 486/852/2
f 142/721/2 381/721/2 382/723/2
f 247/853/1 487/853/1 485/851/1
f 143/854/1 383/854/1 381/721/1
f 248/855/4 488/855/4 487/853/4
f 144/722/4 384/722/4 383/854/4
f 245/852/3 486/852/3 488/855/3
f 141/723/3 382/723/3 384/722/3
f 250/792/2 489/792/2 490/794/2
f 146/856/2 385/856/2 386/857/2
f 251/858/1 491/858/1 489/792/1
f 147/859/1 387/859/1 385/856/1
f 252/793/4 492/793/4 491/858/4
f 148/860/4 388/860/4 387/859/4
f 249/794/3 490/794/3 492/793/3
f 145/857/3 386/857/3 388/860/3
f 254/861/2 493/861/2 494/862/2
f 150/727/2 389/727/2 390/729/2
f 255/863/1 495/863/1 493/861/1
f 151/864/1 391/864/1 389/727/1
f 256/865/4 496/865/4 495/863/4
f 152/728/4 392/728/4 391/864/4
f 253/862/3 494/862/3 496/865/3
f 149/729/3 390/729/3 392/728/3
f 258/798/2 497/798/2 498/800/2
f 154/730/2 393/730/2 394/732/2
f 259/866/1 499/866/1 497/798/1
f 155/867/1 395/867/1 393/730/1
f 260/799/4 500/799/4 499/866/4
f 156/731/4 396/731/4 395/867/4
f 257/800/3 498/800/3 500/799/3
f 153/732/3 394/732/3 396/731/3
f 262/801/2 501/801/2 502/803/2
f 158/733/2 397/733/2 398/735/2
f 263/868/1 503/868/1 501/801/1
f 159/869/1 399/869/1 397/733/1
f 264/802/4 504/802/4 503/868/4
f 160/734/4 400/734/4 399/869/4
f 261/803/3 502/803/3 504/802/3
f 157/735/3 398/735/3 400/734/3
f 266/804/2 505/804/2 506/806/2
f 162/736/2 401/736/2 402/738/2
f 267/870/1 507/870/1 505/804/1
f 163/871/1 403/871/1 401/736/1
f 268/805/4 508/805/4 507/870/4
f 164/737/4 404/737/4 403/871/4
f 265/806/3 506/806/3 508/805/3
f 161/738/3 402/738/3 404/737/3
f 270/807/2 509/807/2 510/809/2
f 166/739/2 405/739/2 406/741/2
f 271/872/1 511/872/1 509/807/1
f 167/873/1 407/873/1 405/739/1
f 272/808/4 512/808/4 511/872/4
f 168/740/4 408/740/4 407/873/4
f 269/809/3 510/809/3 512/808/3
f 165/741/3 406/741/3 408/740/3
f 274/874/2 513/874/2 514/875/2
f 170/876/2 409/876/2 410/877/2
f 275/878/1 515/878/1 513/874/1
f 171/879/1 411/879/1 409/876/1
f 276/880/4 516/880/4 515/878/4
f 172/881/4 412/881/4 411/879/4
f 273/875/3 514/875/3 516/880/3
f 169/877/3 410/877/3 412/881/3
f 278/813/2 517/813/2 518/815/2
f 174/745/2 413/745/2 414/747/2
f 279/882/1 519/882/1 517/813/1
f 175/883/1 415/883/1 413/745/1
f 280/814/4 520/814/4 519/882/4
f 176/746/4 416/746/4 415/883/4
f 277/815/3 518/815/3 520/814/3
f 173/747/3 414/747/3 416/746/3
f 178/748/2 417/748/2 418/750/2
f 179/884/1 419/884/1 417/748/1
f 180/749/4 420/749/4 419/884/4
f 177/750/3 418/750/3 420/749/3
f 182/751/2 421/751/2 422/195/2
f 183/197/1 423/197/1 421/751/1
