# Blender 4.2.1 LTS
# www.blender.org
mtllib floor_tile_3.mtl
g floor_tile_3_Mesh
v 0.910528 0.000000 0.910527
v 0.910528 0.111611 0.910527
v -0.910527 0.000000 0.910527
v -0.910527 0.111611 0.910527
v 0.910527 0.000000 -0.910527
v -0.910527 0.000000 -0.910527
v -0.910527 0.111611 -0.910527
v -0.910527 0.000000 -0.650376
v -0.910527 0.000000 -0.390226
v -0.910527 0.000000 -0.130075
v -0.910527 0.000000 0.130075
v -0.910527 0.000000 0.390226
v -0.910527 0.000000 0.650378
v -0.910527 0.111611 0.650376
v -0.910527 0.111611 0.130075
v -0.910527 0.111611 -0.650376
v 0.910528 0.000000 0.650376
v 0.910528 0.000000 0.390225
v 0.910528 0.000000 0.130075
v 0.910528 0.000000 -0.130075
v 0.910528 0.000000 -0.390226
v 0.910528 0.000000 -0.650376
v 0.910528 0.111611 -0.650376
v 0.910528 0.111611 -0.390226
v 0.910528 0.111611 -0.130075
v 0.910528 0.111611 0.390226
v -0.650376 0.000000 0.910527
v -0.390226 0.000000 0.910527
v -0.130075 0.000000 0.910527
v 0.130076 0.000000 0.910527
v 0.390226 0.000000 0.910527
v 0.650377 0.000000 0.910527
v 0.130076 0.111611 0.910527
v -0.130075 0.111611 0.910527
v -0.390226 0.111611 0.910527
v -0.650376 0.111611 0.910527
v 0.650377 0.000000 -0.910527
v 0.390226 0.000000 -0.910527
v 0.130076 0.000000 -0.910527
v -0.130075 0.000000 -0.910527
v -0.390226 0.000000 -0.910527
v -0.650376 0.000000 -0.910527
v 0.130076 0.111611 -0.910527
v -0.650376 0.111611 -0.130075
v -0.390226 0.111611 -0.130075
v -0.650376 0.111611 0.650376
v -0.130075 0.111611 0.650376
v 0.650377 0.111611 0.650378
v -0.650376 0.000000 0.650378
v -0.390226 0.000000 0.650378
v -0.130075 0.000000 0.650378
v 0.130076 0.000000 0.650378
v 0.390226 0.000000 0.650378
v 0.650377 0.000000 0.650378
v -0.650376 0.000000 0.390226
v -0.390226 0.000000 0.390226
v -0.130075 0.000000 0.390226
v 0.130076 0.000000 0.390226
v 0.390226 0.000000 0.390226
v 0.650377 0.000000 0.390225
v -0.650376 0.000000 0.130075
v -0.390226 0.000000 0.130075
v -0.130075 0.000000 0.130075
v 0.130076 0.000000 0.130075
v 0.390226 0.000000 0.130075
v 0.650377 0.000000 0.130075
v -0.650376 0.000000 -0.130075
v -0.390226 0.000000 -0.130075
v -0.130075 0.000000 -0.130075
v 0.130076 0.000000 -0.130075
v 0.390226 0.000000 -0.130075
v 0.650377 0.000000 -0.130075
v -0.650376 0.000000 -0.390226
v -0.390226 0.000000 -0.390226
v -0.130075 0.000000 -0.390226
v 0.130076 0.000000 -0.390226
v 0.390226 0.000000 -0.390226
v 0.650377 0.000000 -0.390226
v -0.650376 0.000000 -0.650376
v -0.390226 0.000000 -0.650376
v -0.130075 0.000000 -0.650376
v 0.130076 0.000000 -0.650376
v 0.390226 0.000000 -0.650376
v 0.650377 0.000000 -0.650376
v 0.658606 0.111611 0.658606
v 0.658606 0.111611 0.902299
v 0.902299 0.111611 0.902299
v 0.902299 0.111611 0.658606
v 0.658606 0.111611 -0.902299
v 0.658606 0.111611 -0.658604
v 0.902299 0.111611 -0.658604
v 0.902299 0.111611 -0.902299
v 0.658606 0.111611 -0.642147
v 0.658606 0.111611 -0.398455
v 0.902299 0.111611 -0.398455
v 0.902299 0.111611 -0.642147
v 0.658606 0.111611 -0.381998
v 0.658606 0.111611 -0.138303
v 0.902299 0.111611 -0.138303
v 0.902299 0.111611 -0.381998
v 0.658606 0.111611 -0.121846
v 0.658606 0.111611 0.121846
v 0.902299 0.111611 0.121846
v 0.902299 0.111611 -0.121846
v 0.658606 0.111611 0.138303
v 0.658606 0.111611 0.381996
v 0.902299 0.111611 0.381998
v 0.902299 0.111611 0.138303
v 0.658606 0.111611 0.398453
v 0.658606 0.111611 0.642149
v 0.902299 0.111611 0.642149
v 0.902299 0.111611 0.398455
v -0.902298 0.111611 0.398453
v -0.902298 0.111611 0.642148
v -0.658605 0.111611 0.642148
v -0.658605 0.111611 0.398453
v -0.642148 0.111611 0.398453
v -0.642147 0.111611 0.642148
v -0.398455 0.111611 0.642148
v -0.398455 0.111611 0.398453
v -0.381997 0.111611 0.398453
v -0.381997 0.111611 0.642148
v -0.138304 0.111611 0.642148
v -0.138304 0.111611 0.398453
v -0.121846 0.111611 0.398453
v -0.121846 0.111611 0.642148
v 0.121847 0.111611 0.642148
v 0.121847 0.111611 0.398453
v 0.138304 0.111611 0.398453
v 0.138304 0.111611 0.642148
v 0.381997 0.111611 0.642148
v 0.381997 0.111611 0.398453
v 0.398455 0.111611 0.398453
v 0.398455 0.111611 0.642148
v 0.642148 0.111611 0.642149
v 0.642148 0.111611 0.398453
v -0.902298 0.111611 0.138303
v -0.902298 0.111611 0.381996
v -0.658605 0.111611 0.381996
v -0.658605 0.111611 0.138303
v -0.642148 0.111611 0.138303
v -0.642148 0.111611 0.381996
v -0.398455 0.111611 0.381996
v -0.398455 0.111611 0.138303
v -0.381997 0.111611 0.138303
v -0.381997 0.111611 0.381996
v -0.138304 0.111611 0.381996
v -0.138304 0.111611 0.138303
v -0.121846 0.111611 0.138303
v -0.121846 0.111611 0.381996
v 0.121847 0.111611 0.381996
v 0.121847 0.111611 0.138303
v 0.138304 0.111611 0.138303
v 0.138304 0.111611 0.381996
v 0.381997 0.111611 0.381996
v 0.381997 0.111611 0.138303
v 0.398455 0.111611 0.138303
v 0.398455 0.111611 0.381996
v 0.642148 0.111611 0.381996
v 0.642148 0.111611 0.138303
v -0.902298 0.111611 -0.121846
v -0.902298 0.111611 0.121847
v -0.658605 0.111611 0.121847
v -0.658605 0.111611 -0.121846
v -0.642148 0.111611 -0.121846
v -0.642148 0.111611 0.121847
v -0.398455 0.111611 0.121847
v -0.398455 0.111611 -0.121846
v -0.381997 0.111611 -0.121846
v -0.381997 0.111611 0.121847
v -0.138304 0.111611 0.121847
v -0.138304 0.111611 -0.121846
v -0.121846 0.111611 -0.121846
v -0.121846 0.111611 0.121847
v 0.121847 0.111611 0.121847
v 0.121847 0.111611 -0.121846
v 0.138304 0.111611 -0.121846
v 0.138304 0.111611 0.121847
v 0.381997 0.111611 0.121847
v 0.381997 0.111611 -0.121846
v 0.398455 0.111611 -0.121846
v 0.398455 0.111611 0.121847
v 0.642148 0.111611 0.121846
v 0.642148 0.111611 -0.121846
v -0.902298 0.111611 -0.381998
v -0.902298 0.111611 -0.138303
v -0.658605 0.111611 -0.138303
v -0.658605 0.111611 -0.381998
v -0.642148 0.111611 -0.381998
v -0.642148 0.111611 -0.138303
v -0.398455 0.111611 -0.138303
v -0.398455 0.111611 -0.381998
v -0.381997 0.111611 -0.381998
v -0.381997 0.111611 -0.138303
v -0.138304 0.111611 -0.138303
v -0.138304 0.111611 -0.381998
v -0.121846 0.111611 -0.381998
v -0.121846 0.111611 -0.138303
v 0.121847 0.111611 -0.138303
v 0.121847 0.111611 -0.381998
v 0.138304 0.111611 -0.381998
v 0.138304 0.111611 -0.138303
v 0.381997 0.111611 -0.138303
v 0.381997 0.111611 -0.381998
v 0.398455 0.111611 -0.381998
v 0.398455 0.111611 -0.138303
v 0.642148 0.111611 -0.138303
v 0.642148 0.111611 -0.381998
v -0.902298 0.111611 -0.642147
v -0.902298 0.111611 -0.398455
v -0.658605 0.111611 -0.398455
v -0.658605 0.111611 -0.642147
v -0.642148 0.111611 -0.642147
v -0.642148 0.111611 -0.398455
v -0.398455 0.111611 -0.398455
v -0.398455 0.111611 -0.642147
v -0.381997 0.111611 -0.642147
v -0.381997 0.111611 -0.398455
v -0.138304 0.111611 -0.398455
v -0.138304 0.111611 -0.642147
v -0.121846 0.111611 -0.642147
v -0.121846 0.111611 -0.398455
v 0.121847 0.111611 -0.398455
v 0.121847 0.111611 -0.642147
v 0.138304 0.111611 -0.642147
v 0.138304 0.111611 -0.398455
v 0.381997 0.111611 -0.398455
v 0.381997 0.111611 -0.642147
v 0.398455 0.111611 -0.642147
v 0.398455 0.111611 -0.398455
v 0.642148 0.111611 -0.398455
v 0.642148 0.111611 -0.642147
v -0.902298 0.111611 -0.902299
v -0.902298 0.111611 -0.658604
v -0.658605 0.111611 -0.658604
v -0.658605 0.111611 -0.902299
v -0.642148 0.111611 -0.902299
v -0.642148 0.111611 -0.658604
v -0.398455 0.111611 -0.658604
v -0.398455 0.111611 -0.902299
v -0.381997 0.111611 -0.902299
v -0.381997 0.111611 -0.658604
v -0.138304 0.111611 -0.658604
v -0.138304 0.111611 -0.902299
v -0.121846 0.111611 -0.902299
v -0.121846 0.111611 -0.658604
v 0.121847 0.111611 -0.658604
v 0.121847 0.111611 -0.902299
v 0.138304 0.111611 -0.902299
v 0.138304 0.111611 -0.658604
v 0.381997 0.111611 -0.658604
v 0.381997 0.111611 -0.902299
v 0.398455 0.111611 -0.902299
v 0.398455 0.111611 -0.658604
v 0.642148 0.111611 -0.658604
v 0.642148 0.111611 -0.902299
v -0.902298 0.111611 0.658605
v -0.902298 0.111611 0.902299
v -0.658605 0.111611 0.902299
v -0.658605 0.111611 0.658605
v -0.642147 0.111611 0.658605
v -0.642147 0.111611 0.902299
v -0.398455 0.111611 0.902299
v -0.398455 0.111611 0.658605
v -0.381997 0.111611 0.658605
v -0.381997 0.111611 0.902299
v -0.138304 0.111611 0.902299
v -0.138304 0.111611 0.658605
v -0.121846 0.111611 0.658605
v -0.121846 0.111611 0.902299
v 0.121847 0.111611 0.902299
v 0.121847 0.111611 0.658605
v 0.138304 0.111611 0.658605
v 0.138304 0.111611 0.902299
v 0.381997 0.111611 0.902299
v 0.381997 0.111611 0.658605
v 0.398455 0.111611 0.658605
v 0.398455 0.111611 0.902299
v 0.642148 0.111611 0.902299
v 0.642148 0.111611 0.658606
v 0.910528 0.111611 0.650378
v 0.910527 0.111611 -0.910527
v 0.650377 0.111611 0.390225
v 0.650377 0.111611 0.130075
v 0.910528 0.111611 0.130075
v -0.650376 0.111611 0.390225
v -0.390226 0.111611 0.650376
v -0.390226 0.111611 0.390225
v -0.130075 0.111611 0.390225
v 0.130076 0.111611 0.650376
v 0.130076 0.111611 0.390225
v 0.390226 0.111611 0.650376
v 0.390226 0.111611 0.390225
v -0.910527 0.111611 0.390225
v -0.650376 0.111611 0.130075
v -0.390226 0.111611 0.130075
v -0.130075 0.111611 0.130075
v 0.130076 0.111611 0.130075
v 0.390226 0.111611 0.130075
v 0.130076 0.111611 -0.130075
v -0.910527 0.111611 -0.130075
v -0.910527 0.111611 -0.390226
v -0.390226 0.111611 -0.390226
v -0.130075 0.111611 -0.130075
v -0.130075 0.111611 -0.390226
v 0.130076 0.111611 -0.390226
v 0.390226 0.111611 -0.130075
v 0.650377 0.111611 -0.130075
v -0.650376 0.111611 -0.390226
v 0.130076 0.111611 -0.650376
v 0.390226 0.111611 -0.390226
v 0.650377 0.111611 -0.390226
v -0.650376 0.111611 -0.650376
v -0.650376 0.111611 -0.910527
v -0.390226 0.111611 -0.910527
v -0.390226 0.111611 -0.650376
v -0.130075 0.111611 -0.650376
v -0.130075 0.111611 -0.910527
v 0.390226 0.111611 -0.650376
v 0.390226 0.111611 -0.910527
v 0.650377 0.111611 -0.650376
v 0.650377 0.111611 -0.910527
v 0.390226 0.111611 0.910527
v 0.650377 0.111611 0.910527
v 0.658606 0.117858 0.902299
v 0.658606 0.117858 0.658606
v 0.902299 0.117858 0.902299
v 0.902299 0.117858 0.658606
v 0.658606 0.117858 -0.658604
v 0.658606 0.117858 -0.902299
v 0.902299 0.117858 -0.658604
v 0.902299 0.117858 -0.902299
v 0.658606 0.117858 -0.398455
v 0.658606 0.117858 -0.642147
v 0.902299 0.117858 -0.398455
v 0.902299 0.117858 -0.642147
v 0.658606 0.117858 -0.138303
v 0.658606 0.117858 -0.381998
v 0.902299 0.117858 -0.138303
v 0.902299 0.117858 -0.381998
v 0.658606 0.117858 0.121846
v 0.658606 0.117858 -0.121846
v 0.902299 0.117858 0.121846
v 0.902299 0.117858 -0.121846
v 0.658606 0.117858 0.381996
v 0.658606 0.117858 0.138303
v 0.902299 0.117858 0.381998
v 0.902299 0.117858 0.138303
v 0.658606 0.117858 0.642149
v 0.658606 0.117858 0.398453
v 0.902299 0.117858 0.642149
v 0.902299 0.117858 0.398455
v -0.902298 0.117858 0.642148
v -0.902298 0.117858 0.398453
v -0.658605 0.117858 0.642148
v -0.658605 0.117858 0.398453
v -0.642147 0.117858 0.642148
v -0.642148 0.117858 0.398453
v -0.398455 0.117858 0.642148
v -0.398455 0.117858 0.398453
v -0.381997 0.117858 0.642148
v -0.381997 0.117858 0.398453
v -0.138304 0.117858 0.642148
v -0.138304 0.117858 0.398453
v 0.040616 0.107034 0.398453
v -0.040615 0.107034 0.398453
v 0.040616 0.107034 0.642148
v 0.081231 0.107034 0.642148
v 0.138304 0.117858 0.642148
v 0.138304 0.117858 0.398453
v 0.381997 0.117858 0.642148
v 0.381997 0.117858 0.398453
v 0.398455 0.117858 0.642148
v 0.398455 0.117858 0.398453
v 0.642148 0.117858 0.642149
v 0.642148 0.117858 0.398453
v -0.902298 0.117858 0.381996
v -0.902298 0.117858 0.138303
v -0.658605 0.117858 0.381996
v -0.658605 0.117858 0.138303
v -0.642148 0.117858 0.381996
v -0.642148 0.117858 0.138303
v -0.398455 0.117858 0.381996
v -0.398455 0.117858 0.138303
v -0.381997 0.117858 0.381996
v -0.381997 0.117858 0.138303
v -0.138304 0.117858 0.381996
v -0.138304 0.117858 0.138303
v -0.121846 0.117858 0.381996
v -0.121846 0.117858 0.138303
v 0.121847 0.117858 0.381996
v 0.121847 0.117858 0.138303
v 0.138304 0.117858 0.381996
v 0.138304 0.117858 0.138303
v 0.381997 0.117858 0.381996
v 0.381997 0.117858 0.138303
v 0.398455 0.117858 0.381996
v 0.398455 0.117858 0.138303
v 0.642148 0.117858 0.381996
v 0.642148 0.117858 0.138303
v -0.902298 0.117858 0.121847
v -0.902298 0.117858 -0.121846
v -0.658605 0.117858 0.121847
v -0.658605 0.117858 -0.121846
v -0.642148 0.107034 -0.121846
v -0.642148 0.107034 0.121847
v 0.081231 0.107034 0.398453
v 0.121847 0.107034 0.642148
v -0.381997 0.117858 0.121847
v -0.381997 0.117858 -0.121846
v -0.138304 0.117858 0.121847
v -0.138304 0.117858 -0.121846
v -0.121846 0.117858 0.121847
v -0.121846 0.117858 -0.121846
v 0.121847 0.117858 0.121847
v 0.121847 0.117858 -0.121846
v 0.138304 0.117858 0.121847
v 0.138304 0.117858 -0.121846
v 0.381997 0.117858 0.121847
v 0.381997 0.117858 -0.121846
v 0.398455 0.117858 0.121847
v 0.398455 0.117858 -0.121846
v 0.642148 0.117858 0.121846
v 0.642148 0.117858 -0.121846
v -0.902298 0.117858 -0.138303
v -0.902298 0.117858 -0.381998
v -0.658605 0.117858 -0.138303
v -0.658605 0.117858 -0.381998
v -0.642148 0.117858 -0.138303
v -0.642148 0.117858 -0.381998
v -0.398455 0.117858 -0.138303
v -0.398455 0.117858 -0.381998
v -0.381997 0.117858 -0.138303
v -0.381997 0.117858 -0.381998
v -0.138304 0.117858 -0.138303
v -0.138304 0.117858 -0.381998
v -0.121846 0.117858 -0.138303
v -0.121846 0.117858 -0.381998
v 0.121847 0.117858 -0.138303
v 0.040616 0.113231 -0.339080
v 0.138304 0.117858 -0.138303
v 0.138304 0.117858 -0.381998
v 0.381997 0.117858 -0.138303
v 0.381997 0.117858 -0.381998
v 0.398455 0.117858 -0.138303
v 0.398455 0.117858 -0.381998
v 0.642148 0.117858 -0.138303
v 0.642148 0.117858 -0.381998
v -0.902298 0.117858 -0.398455
v -0.902298 0.117858 -0.642147
v -0.658605 0.117858 -0.398455
v -0.658605 0.117858 -0.642147
v -0.642148 0.117858 -0.398455
v -0.642148 0.117858 -0.642147
v -0.398455 0.117858 -0.398455
v -0.398455 0.117858 -0.642147
v -0.381997 0.117858 -0.398455
v -0.381997 0.117858 -0.642147
v -0.138304 0.117858 -0.398455
v -0.138304 0.117858 -0.642147
v -0.121846 0.117858 -0.398455
v -0.121846 0.117858 -0.642147
v 0.121847 0.117858 -0.398455
v 0.121847 0.117858 -0.642147
v 0.138304 0.117858 -0.398455
v 0.138304 0.117858 -0.642147
v 0.381997 0.117858 -0.398455
v 0.381997 0.117858 -0.642147
v 0.121847 0.107034 0.398453
v -0.040615 0.107034 0.642148
v -0.121846 0.107034 0.398453
v -0.121846 0.107034 0.642148
v -0.902298 0.117858 -0.658604
v -0.902298 0.117858 -0.902299
v -0.658605 0.117858 -0.658604
v -0.658605 0.117858 -0.902299
v -0.642148 0.117858 -0.658604
v -0.642148 0.117858 -0.902299
v -0.398455 0.117858 -0.658604
v -0.398455 0.117858 -0.902299
v -0.381997 0.117858 -0.658604
v -0.381997 0.117858 -0.902299
v -0.138304 0.117858 -0.658604
v -0.138304 0.117858 -0.902299
v -0.121846 0.117858 -0.658604
v -0.121846 0.117858 -0.902299
v 0.121847 0.117858 -0.658604
v 0.121847 0.117858 -0.902299
v 0.138304 0.117858 -0.658604
v 0.138304 0.117858 -0.902299
v 0.381997 0.117858 -0.658604
v 0.381997 0.117858 -0.902299
v 0.398455 0.117858 -0.658604
v 0.398455 0.117858 -0.902299
v 0.642148 0.117858 -0.658604
v 0.642148 0.117858 -0.902299
v -0.902298 0.117858 0.902299
v -0.902298 0.117858 0.658605
v -0.658605 0.117858 0.902299
v -0.658605 0.117858 0.658605
v -0.642147 0.117858 0.902299
v -0.642147 0.117858 0.658605
v -0.398455 0.117858 0.902299
v -0.398455 0.117858 0.658605
v -0.381997 0.117858 0.902299
v -0.381997 0.117858 0.658605
v -0.138304 0.117858 0.902299
v -0.138304 0.117858 0.658605
v -0.121846 0.117858 0.902299
v -0.121846 0.117858 0.658605
v 0.121847 0.117858 0.902299
v 0.121847 0.117858 0.658605
v 0.138304 0.117858 0.902299
v 0.138304 0.117858 0.658605
v 0.381997 0.117858 0.902299
v 0.381997 0.117858 0.658605
v 0.398455 0.117858 0.902299
v 0.398455 0.117858 0.658605
v 0.642148 0.117858 0.902299
v 0.642148 0.117858 0.658606
v -0.043358 0.000000 0.910527
v 0.043359 0.000000 0.910527
v 0.043359 0.111611 0.910527
v -0.043358 0.111611 0.910527
v 0.043359 0.000000 -0.910527
v -0.043358 0.000000 -0.910527
v -0.043358 0.000000 0.650378
v 0.043359 0.000000 0.650378
v -0.043358 0.000000 0.390226
v 0.043359 0.000000 0.390226
v -0.043358 0.000000 0.130075
v 0.043359 0.000000 0.130075
v -0.043358 0.000000 -0.130075
v 0.043359 0.000000 -0.130075
v -0.043358 0.000000 -0.390226
v 0.043359 0.000000 -0.390226
v -0.043358 0.000000 -0.650376
v 0.043359 0.000000 -0.650376
v 0.040616 0.111611 0.642148
v -0.040615 0.111611 0.642148
v -0.040615 0.111611 0.398453
v 0.040616 0.111611 0.398453
v 0.040616 0.111611 0.381996
v -0.040615 0.111611 0.381996
v -0.040615 0.111611 0.138303
v 0.040616 0.111611 0.138303
v 0.040616 0.111611 0.121847
v -0.040615 0.111611 0.121847
v -0.040615 0.111611 -0.121846
v 0.040616 0.111611 -0.121846
v 0.040616 0.111611 -0.138303
v -0.040615 0.111611 -0.138303
v -0.040615 0.111611 -0.381998
v 0.067947 0.111611 -0.381998
v 0.040616 0.111611 -0.398455
v -0.040615 0.111611 -0.398455
v -0.040615 0.111611 -0.642147
v 0.040616 0.111611 -0.642147
v 0.040616 0.111611 -0.658604
v -0.040615 0.111611 -0.658604
v -0.040615 0.111611 -0.902299
v 0.040616 0.111611 -0.902299
v 0.040616 0.111611 0.902299
v -0.040615 0.111611 0.902299
v -0.040615 0.111611 0.658605
v 0.040616 0.111611 0.658605
v 0.642148 0.107034 -0.642147
v 0.642148 0.107034 -0.398455
v 0.398455 0.107034 -0.642147
v 0.398455 0.107034 -0.398455
v 0.040616 0.117858 0.381996
v -0.040615 0.117858 0.381996
v -0.040615 0.117858 0.138303
v 0.040616 0.117858 0.138303
v 0.040616 0.117858 0.121847
v -0.040615 0.117858 0.121847
v -0.040615 0.117858 -0.121846
v 0.040616 0.117858 -0.121846
v 0.040616 0.117858 -0.138303
v -0.040615 0.117858 -0.138303
v -0.040615 0.117858 -0.381998
v 0.067947 0.117858 -0.381998
v 0.040616 0.117858 -0.398455
v -0.040615 0.117858 -0.398455
v -0.040615 0.117858 -0.642147
v 0.040616 0.117858 -0.642147
v 0.040616 0.117858 -0.658604
v -0.040615 0.117858 -0.658604
v -0.040615 0.117858 -0.902299
v 0.040616 0.117858 -0.902299
v 0.040616 0.117858 0.902299
v -0.040615 0.117858 0.902299
v -0.040615 0.117858 0.658605
v 0.040616 0.117858 0.658605
v -0.043358 0.111611 -0.910527
v 0.043359 0.111611 -0.910527
v -0.043358 0.111611 -0.650376
v 0.043359 0.111611 -0.650376
v -0.043358 0.111611 -0.390226
v 0.043359 0.111611 -0.390226
v -0.043358 0.111611 -0.130075
v 0.043359 0.111611 -0.130075
v -0.043358 0.111611 0.130075
v 0.043359 0.111611 0.130075
v -0.043358 0.111611 0.390225
v 0.043359 0.111611 0.390225
v -0.043358 0.111611 0.650376
v 0.043359 0.111611 0.650376
v 0.086717 0.000000 0.910527
v 0.086717 0.000000 0.650378
v 0.086717 0.000000 0.390226
v 0.086717 0.000000 0.130075
v 0.086717 0.000000 -0.130075
v 0.086717 0.000000 -0.390226
v 0.086717 0.000000 -0.650376
v 0.081231 0.111611 0.398453
v 0.081231 0.111611 0.138303
v 0.081231 0.111611 -0.121846
v 0.081231 0.111611 -0.381998
v 0.081231 0.111611 -0.642147
v 0.081231 0.111611 -0.902299
v 0.081231 0.111611 0.658605
v -0.398455 0.107034 -0.121846
v 0.081231 0.117858 0.138303
v 0.081231 0.117858 -0.121846
v -0.040615 0.113231 -0.297879
v 0.081231 0.117858 -0.642147
v 0.081231 0.117858 -0.902299
v 0.081231 0.117858 0.658605
v 0.086717 0.111611 -0.910527
v 0.086717 0.111611 -0.650376
v 0.086717 0.111611 -0.390226
v 0.086717 0.111611 -0.130075
v 0.086717 0.111611 0.130075
v 0.086717 0.111611 0.390225
v 0.086717 0.111611 0.650376
v 0.086717 0.111611 0.910527
v 0.086717 0.000000 -0.910527
v 0.081231 0.111611 0.642148
v 0.081231 0.111611 0.381996
v 0.081231 0.111611 0.121847
v 0.081231 0.111611 -0.138303
v 0.081231 0.111611 -0.398455
v 0.081231 0.111611 -0.658604
v 0.081231 0.111611 0.902299
v -0.398455 0.107034 0.121847
v 0.081231 0.117858 0.381996
v 0.081231 0.117858 0.121847
v 0.081231 0.117858 -0.138303
v 0.081231 0.117858 -0.398455
v 0.081231 0.117858 -0.658604
v 0.081231 0.117858 0.902299
v -0.910527 0.000000 -0.344412
v 0.910528 0.000000 -0.344412
v 0.910528 0.111611 -0.344412
v -0.650376 0.000000 -0.344412
v -0.390226 0.000000 -0.344412
v -0.130075 0.000000 -0.344412
v 0.130076 0.000000 -0.344412
v 0.390226 0.000000 -0.344412
v 0.650377 0.000000 -0.344412
v -0.910527 0.111611 -0.344412
v 0.658606 0.111611 -0.339081
v 0.902299 0.111611 -0.339081
v -0.902298 0.111611 -0.339080
v -0.658605 0.111611 -0.339080
v -0.642148 0.111611 -0.339080
v -0.398455 0.111611 -0.339080
v -0.381997 0.111611 -0.339080
v -0.138304 0.111611 -0.339080
v -0.121846 0.111611 -0.339080
v 0.121847 0.111611 -0.339080
v 0.138304 0.111611 -0.339080
v 0.381997 0.111611 -0.339081
v 0.398455 0.111611 -0.339081
v 0.642148 0.111611 -0.339081
v 0.658606 0.117858 -0.339081
v 0.902299 0.117858 -0.339081
v -0.902298 0.117858 -0.339080
v -0.658605 0.117858 -0.339080
v -0.642148 0.117858 -0.339080
v -0.398455 0.117858 -0.339080
v -0.381997 0.117858 -0.339080
v -0.138304 0.117858 -0.339080
v -0.121846 0.117858 -0.339080
v 0.138304 0.117858 -0.339080
v 0.381997 0.117858 -0.339081
v 0.398455 0.117858 -0.339081
v 0.642148 0.117858 -0.339081
v -0.650376 0.111611 -0.344412
v -0.390226 0.111611 -0.344412
v -0.130075 0.111611 -0.344412
v 0.130076 0.111611 -0.344412
v 0.390226 0.111611 -0.344412
v 0.650377 0.111611 -0.344412
v -0.040615 0.117858 -0.297879
v 0.040616 0.117858 -0.339080
v -0.043358 0.000000 -0.344412
v 0.043359 0.000000 -0.344412
v 0.121847 0.111611 -0.301530
v 0.086717 0.000000 -0.344412
v -0.910527 0.000000 -0.275113
v 0.910528 0.111611 -0.275113
v -0.650376 0.000000 -0.275113
v -0.390226 0.000000 -0.275113
v -0.130075 0.000000 -0.275113
v 0.130076 0.000000 -0.275113
v 0.390226 0.000000 -0.275113
v 0.650377 0.000000 -0.275113
v 0.902299 0.111611 -0.274165
v -0.658605 0.111611 -0.274165
v -0.398455 0.111611 -0.274165
v -0.138304 0.111611 -0.274165
v 0.381997 0.111611 -0.274165
v 0.642148 0.111611 -0.274165
v 0.902299 0.117858 -0.274165
v -0.658605 0.117858 -0.274165
v -0.398455 0.117858 -0.274165
v -0.138304 0.117858 -0.274165
v 0.121847 0.117858 -0.301530
v 0.381997 0.117858 -0.274165
v 0.642148 0.117858 -0.274165
v -0.043358 0.000000 -0.275113
v 0.043359 0.000000 -0.275113
v 0.086717 0.000000 -0.275113
v 0.910528 0.000000 -0.275113
v -0.910527 0.111611 -0.275113
v 0.658606 0.111611 -0.274165
v -0.902298 0.111611 -0.274165
v -0.642148 0.111611 -0.274165
v -0.381997 0.111611 -0.274165
v -0.121846 0.111611 -0.274165
v 0.138304 0.111611 -0.274165
v 0.398455 0.111611 -0.274165
v 0.658606 0.117858 -0.274165
v -0.902298 0.117858 -0.274165
v -0.642148 0.117858 -0.274165
v -0.381997 0.117858 -0.274165
v -0.121846 0.117858 -0.274165
v 0.138304 0.117858 -0.274165
v 0.398455 0.117858 -0.274165
v -0.650376 0.111611 -0.275113
v -0.390226 0.111611 -0.275113
v -0.130075 0.111611 -0.275113
v 0.130076 0.111611 -0.275113
v 0.390226 0.111611 -0.275113
v 0.650377 0.111611 -0.275113
v 0.005179 0.117858 -0.249953
v 0.073454 0.117858 -0.274165
v 0.097053 0.117858 -0.264578
v 0.005179 0.113231 -0.249953
v 0.073454 0.113231 -0.274165
v 0.097053 0.113231 -0.264578
v 0.081451 0.112417 -0.339080
vn -0.0000 -0.0000 1.0000
vn -1.0000 -0.0000 -0.0000
vn -0.0000 -0.0000 -1.0000
vn 1.0000 -0.0000 -0.0000
vn -0.0000 -1.0000 -0.0000
vn -0.8304 -0.0000 -0.5572
vn -0.0000 1.0000 -0.0000
vn 0.3763 -0.0000 -0.9265
vn 0.4524 -0.0000 0.8918
vn 0.8435 -0.0000 0.5372
vn 0.7230 -0.0000 -0.6908
vn -0.3342 -0.0000 -0.9425
vn 0.0199 0.9998 -0.0000
vn 0.0049 0.9999 -0.0119
vn 0.0199 0.9995 -0.0250
vn -0.0000 0.9998 -0.0188
vn 0.0373 0.9991 -0.0187
vn 0.0199 0.9998 -0.0101
vt 0.819382 0.460412
vt 0.809036 0.460831
vt 0.809036 0.460412
vt 0.819382 0.463340
vt 0.809036 0.463758
vt 0.809036 0.463340
vt 0.068301 0.886273
vt 0.065762 0.886376
vt 0.065762 0.886273
vt 0.819382 0.469195
vt 0.809036 0.469613
vt 0.809036 0.469195
vt 0.803066 0.465375
vt 0.802704 0.465478
vt 0.802704 0.465375
vt 0.800167 0.466267
vt 0.798689 0.466686
vt 0.798689 0.466267
vt 0.803744 0.465375
vt 0.803381 0.465478
vt 0.803381 0.465375
vt 0.803123 0.466267
vt 0.801645 0.466686
vt 0.801645 0.466267
vt 0.804601 0.466267
vt 0.803123 0.466686
vt 0.802341 0.465375
vt 0.802277 0.465478
vt 0.802277 0.465375
vt 0.807557 0.466267
vt 0.806079 0.466686
vt 0.806079 0.466267
vt 0.819382 0.466686
vt 0.809036 0.467104
vt 0.809036 0.466686
vt 0.819382 0.467104
vt 0.809036 0.467522
vt 0.066640 0.886853
vt 0.064101 0.886910
vt 0.064101 0.886853
vt 0.819382 0.467940
vt 0.809036 0.468359
vt 0.809036 0.467940
vt 0.819382 0.468359
vt 0.809036 0.468777
vt 0.819382 0.468777
vt 0.819382 0.460831
vt 0.809036 0.461249
vt 0.066640 0.885268
vt 0.064101 0.885371
vt 0.064101 0.885268
vt 0.819382 0.461667
vt 0.809036 0.462085
vt 0.809036 0.461667
vt 0.819382 0.462085
vt 0.809036 0.462503
vt 0.819382 0.462848
vt 0.809036 0.462922
vt 0.809036 0.462848
vt 0.819382 0.462922
vt 0.803912 0.464797
vt 0.803549 0.464900
vt 0.803549 0.464797
vt 0.807557 0.464176
vt 0.806079 0.464595
vt 0.806079 0.464176
vt 0.807557 0.464595
vt 0.806079 0.465013
vt 0.807557 0.465361
vt 0.806079 0.465431
vt 0.806079 0.465361
vt 0.807557 0.465431
vt 0.806079 0.465849
vt 0.802704 0.465272
vt 0.802341 0.465272
vt 0.806079 0.463758
vt 0.805819 0.464176
vt 0.805819 0.463758
vt 0.803485 0.465002
vt 0.803485 0.464900
vt 0.805819 0.464595
vt 0.805819 0.465013
vt 0.805819 0.465431
vt 0.805819 0.465361
vt 0.802277 0.465170
vt 0.802277 0.465272
vt 0.805819 0.466267
vt 0.805819 0.465849
vt 0.804601 0.463758
vt 0.803123 0.464176
vt 0.803123 0.463758
vt 0.804601 0.464176
vt 0.803123 0.464595
vt 0.804601 0.464595
vt 0.803123 0.465013
vt 0.803123 0.465361
vt 0.804601 0.465431
vt 0.803123 0.465431
vt 0.803123 0.465849
vt 0.804601 0.465849
vt 0.801645 0.464176
vt 0.801645 0.463758
vt 0.801645 0.464595
vt 0.801645 0.465013
vt 0.801645 0.465431
vt 0.801645 0.465361
vt 0.801645 0.465849
vt 0.800167 0.464176
vt 0.800167 0.463758
vt 0.803744 0.464862
vt 0.803381 0.464965
vt 0.803381 0.464862
vt 0.800167 0.465013
vt 0.800167 0.464595
vt 0.800167 0.465431
vt 0.800167 0.465361
vt 0.803744 0.465170
vt 0.803381 0.465272
vt 0.803381 0.465170
vt 0.800167 0.465849
vt 0.803381 0.464759
vt 0.803018 0.464862
vt 0.803018 0.464759
vt 0.798689 0.464595
vt 0.798689 0.464176
vt 0.798689 0.465013
vt 0.798689 0.465431
vt 0.798689 0.465361
vt 0.798689 0.465849
vt 0.803018 0.465375
vt 0.803018 0.465272
vt 0.807557 0.463758
vt 0.804274 0.464900
vt 0.803912 0.465002
vt 0.803912 0.464900
vt 0.809036 0.464595
vt 0.807557 0.465013
vt 0.809036 0.465361
vt 0.803066 0.465170
vt 0.802704 0.465170
vt 0.809036 0.465849
vt 0.807557 0.465849
vt 0.819382 0.463758
vt 0.809036 0.464176
vt 0.819382 0.464176
vt 0.819382 0.464595
vt 0.809036 0.465013
vt 0.819382 0.465361
vt 0.809036 0.465431
vt 0.068301 0.886068
vt 0.065762 0.886171
vt 0.065762 0.886068
vt 0.819382 0.465849
vt 0.809036 0.466267
vt 0.819382 0.457903
vt 0.809036 0.458321
vt 0.809036 0.457903
vt 0.819382 0.458321
vt 0.809036 0.458739
vt 0.819382 0.458739
vt 0.809036 0.459158
vt 0.819382 0.459436
vt 0.809036 0.459576
vt 0.809036 0.459436
vt 0.819382 0.459576
vt 0.809036 0.459994
vt 0.819382 0.459994
vt 0.066562 0.885795
vt 0.066562 0.885699
vt 0.826726 0.466281
vt 0.825342 0.466281
vt 0.066222 0.885699
vt 0.823864 0.466281
vt 0.823864 0.466672
vt 0.822385 0.465862
vt 0.822385 0.466254
vt 0.825248 0.466672
vt 0.822629 0.466254
vt 0.825248 0.466281
vt 0.823770 0.466254
vt 0.823770 0.465862
vt 0.822998 0.465862
vt 0.066585 0.886314
vt 0.066585 0.886411
vt 0.066585 0.886109
vt 0.066585 0.886205
vt 0.066644 0.886411
vt 0.066644 0.886205
vt 0.066924 0.886411
vt 0.066924 0.886314
vt 0.066924 0.886205
vt 0.066924 0.886109
vt 0.066735 0.886314
vt 0.066735 0.886109
vt 0.820907 0.466281
vt 0.820907 0.466672
vt 0.822385 0.465026
vt 0.822385 0.465157
vt 0.822292 0.466672
vt 0.822998 0.465418
vt 0.822998 0.465353
vt 0.822292 0.466281
vt 0.823770 0.465418
vt 0.823770 0.465353
vt 0.823770 0.465026
vt 0.822998 0.465026
vt 0.065859 0.886314
vt 0.065859 0.886411
vt 0.822385 0.464608
vt 0.822385 0.465000
vt 0.066199 0.886411
vt 0.822629 0.465000
vt 0.066199 0.886314
vt 0.823770 0.465000
vt 0.823770 0.464608
vt 0.822998 0.464608
vt 0.828298 0.466281
vt 0.828298 0.466672
vt 0.066585 0.885801
vt 0.066585 0.885897
vt 0.829683 0.466672
vt 0.066644 0.885897
vt 0.829683 0.466281
vt 0.066924 0.885897
vt 0.066924 0.885801
vt 0.066735 0.885801
vt 0.822385 0.463771
vt 0.822385 0.464163
vt 0.822629 0.464163
vt 0.823770 0.464163
vt 0.823770 0.463771
vt 0.822998 0.463771
vt 0.823864 0.465862
vt 0.823864 0.466254
vt 0.825248 0.466254
vt 0.070460 0.879565
vt 0.070025 0.879561
vt 0.070474 0.879561
vt 0.066096 0.885266
vt 0.066125 0.885521
vt 0.066096 0.885513
vt 0.070039 0.879684
vt 0.070474 0.879688
vt 0.070025 0.879688
vt 0.065224 0.885266
vt 0.065194 0.885521
vt 0.065194 0.885258
vt 0.066382 0.887291
vt 0.066552 0.887290
vt 0.066546 0.887291
vt 0.065682 0.886946
vt 0.065694 0.887045
vt 0.065682 0.887042
vt 0.066546 0.887338
vt 0.066377 0.887339
vt 0.066382 0.887338
vt 0.065682 0.887495
vt 0.065671 0.887395
vt 0.065682 0.887398
vt 0.067793 0.879565
vt 0.068228 0.879561
vt 0.068214 0.879565
vt 0.061440 0.885513
vt 0.061469 0.885258
vt 0.061469 0.885521
vt 0.068214 0.879684
vt 0.067779 0.879688
vt 0.067793 0.879684
vt 0.060567 0.885266
vt 0.060538 0.885521
vt 0.060538 0.885258
vt 0.066732 0.887291
vt 0.066757 0.887290
vt 0.066761 0.887291
vt 0.066408 0.887042
vt 0.066419 0.886942
vt 0.066419 0.887045
vt 0.066896 0.887338
vt 0.066804 0.887339
vt 0.066805 0.887338
vt 0.066068 0.886946
vt 0.066056 0.887045
vt 0.066056 0.886942
vt 0.069112 0.879565
vt 0.068678 0.879561
vt 0.069127 0.879561
vt 0.063302 0.885513
vt 0.063332 0.885258
vt 0.063332 0.885521
vt 0.068692 0.879684
vt 0.069127 0.879688
vt 0.068678 0.879688
vt 0.062430 0.885513
vt 0.062400 0.885258
vt 0.062430 0.885266
vt 0.069141 0.879565
vt 0.069576 0.879561
vt 0.069562 0.879565
vt 0.064233 0.885513
vt 0.064263 0.885258
vt 0.064263 0.885521
vt 0.069562 0.879684
vt 0.069141 0.879684
vt 0.063361 0.885266
vt 0.067257 0.887291
vt 0.067426 0.887290
vt 0.067421 0.887291
vt 0.065835 0.887172
vt 0.065847 0.887271
vt 0.065835 0.887268
vt 0.067421 0.887338
vt 0.067251 0.887339
vt 0.067257 0.887338
vt 0.065495 0.887172
vt 0.065484 0.887271
vt 0.065484 0.887169
vt 0.069590 0.878802
vt 0.070025 0.878798
vt 0.070011 0.878802
vt 0.065165 0.883685
vt 0.065194 0.883940
vt 0.065165 0.883932
vt 0.070011 0.878921
vt 0.069576 0.878925
vt 0.069590 0.878921
vt 0.064292 0.883685
vt 0.064263 0.883940
vt 0.064263 0.883677
vt 0.067257 0.887044
vt 0.067426 0.887042
vt 0.067421 0.887044
vt 0.065835 0.886659
vt 0.065847 0.886758
vt 0.065835 0.886755
vt 0.070011 0.879048
vt 0.069576 0.879052
vt 0.069590 0.879048
vt 0.065495 0.886659
vt 0.065484 0.886758
vt 0.065484 0.886656
vt 0.069590 0.879056
vt 0.070025 0.879052
vt 0.070011 0.879056
vt 0.065165 0.884459
vt 0.065194 0.884204
vt 0.065194 0.884467
vt 0.069590 0.879175
vt 0.070025 0.879179
vt 0.069576 0.879179
vt 0.064292 0.884212
vt 0.064263 0.884467
vt 0.064263 0.884204
vt 0.069590 0.879183
vt 0.070011 0.879183
vt 0.065165 0.884476
vt 0.065194 0.884555
vt 0.065165 0.884558
vt 0.069590 0.879302
vt 0.070025 0.879306
vt 0.069576 0.879306
vt 0.064292 0.884723
vt 0.064263 0.884687
vt 0.064292 0.884681
vt 0.067257 0.887192
vt 0.067426 0.887191
vt 0.067421 0.887192
vt 0.065835 0.887063
vt 0.065847 0.886964
vt 0.065847 0.887066
vt 0.069590 0.879430
vt 0.070025 0.879434
vt 0.069576 0.879434
vt 0.065495 0.887063
vt 0.065484 0.886964
vt 0.065495 0.886967
vt 0.069590 0.879438
vt 0.070011 0.879438
vt 0.065165 0.885250
vt 0.065194 0.884994
vt 0.069590 0.879557
vt 0.064292 0.885250
vt 0.064263 0.884994
vt 0.064292 0.885003
vt 0.069562 0.878802
vt 0.069127 0.878798
vt 0.069576 0.878798
vt 0.064233 0.883685
vt 0.064233 0.883932
vt 0.069562 0.878921
vt 0.069127 0.878925
vt 0.069141 0.878921
vt 0.063361 0.883685
vt 0.063332 0.883940
vt 0.063332 0.883677
vt 0.069562 0.878929
vt 0.064233 0.883949
vt 0.064233 0.884196
vt 0.069562 0.879048
vt 0.069127 0.879052
vt 0.069141 0.879048
vt 0.063361 0.883949
vt 0.063332 0.884204
vt 0.069141 0.879056
vt 0.069562 0.879056
vt 0.064233 0.884212
vt 0.064233 0.884459
vt 0.069562 0.879175
vt 0.069127 0.879179
vt 0.069141 0.879175
vt 0.063361 0.884459
vt 0.063361 0.884212
vt 0.069562 0.879183
vt 0.064233 0.884476
vt 0.064263 0.884555
vt 0.064233 0.884558
vt 0.069562 0.879302
vt 0.069127 0.879306
vt 0.069141 0.879302
vt 0.063361 0.884723
vt 0.063332 0.884687
vt 0.063361 0.884681
vt 0.069562 0.879310
vt 0.064233 0.884986
vt 0.064263 0.884731
vt 0.069562 0.879430
vt 0.069127 0.879434
vt 0.069141 0.879430
vt 0.063361 0.884986
vt 0.063332 0.884731
vt 0.063361 0.884739
vt 0.069141 0.879438
vt 0.069562 0.879438
vt 0.064233 0.885250
vt 0.069141 0.879557
vt 0.063361 0.885250
vt 0.063332 0.884994
vt 0.063361 0.885003
vt 0.068692 0.878802
vt 0.069112 0.878802
vt 0.063302 0.883685
vt 0.063302 0.883932
vt 0.069112 0.878921
vt 0.068678 0.878925
vt 0.068692 0.878921
vt 0.062430 0.883685
vt 0.062400 0.883940
vt 0.062400 0.883677
vt 0.069112 0.878929
vt 0.063302 0.884196
vt 0.069112 0.879048
vt 0.068678 0.879052
vt 0.068692 0.879048
vt 0.062430 0.883949
vt 0.062400 0.884204
vt 0.068692 0.879056
vt 0.069112 0.879056
vt 0.063302 0.884212
vt 0.063332 0.884467
vt 0.063302 0.884459
vt 0.069112 0.879175
vt 0.068678 0.879179
vt 0.068692 0.879175
vt 0.062430 0.884459
vt 0.062430 0.884212
vt 0.068692 0.879183
vt 0.069112 0.879183
vt 0.063302 0.884476
vt 0.063332 0.884555
vt 0.063302 0.884558
vt 0.069112 0.879302
vt 0.068678 0.879306
vt 0.068692 0.879302
vt 0.062430 0.884723
vt 0.062400 0.884687
vt 0.062430 0.884681
vt 0.068692 0.879310
vt 0.069112 0.879310
vt 0.063302 0.884739
vt 0.063302 0.884986
vt 0.069112 0.879430
vt 0.068678 0.879434
vt 0.068692 0.879430
vt 0.062430 0.884739
vt 0.062400 0.884994
vt 0.062400 0.884731
vt 0.068692 0.879438
vt 0.069112 0.879438
vt 0.063302 0.885003
vt 0.063302 0.885250
vt 0.069112 0.879557
vt 0.068692 0.879557
vt 0.062430 0.885250
vt 0.062430 0.885003
vt 0.068243 0.878802
vt 0.068307 0.878798
vt 0.068317 0.878802
vt 0.062371 0.883685
vt 0.062371 0.883932
vt 0.068663 0.878921
vt 0.068427 0.878925
vt 0.068429 0.878921
vt 0.061499 0.883685
vt 0.061469 0.883940
vt 0.061469 0.883677
vt 0.068243 0.878929
vt 0.068307 0.878925
vt 0.068317 0.878929
vt 0.066408 0.886529
vt 0.066419 0.886429
vt 0.066419 0.886532
vt 0.066896 0.887090
vt 0.066804 0.887092
vt 0.066805 0.887090
vt 0.066068 0.886432
vt 0.066056 0.886532
vt 0.066056 0.886429
vt 0.068243 0.879056
vt 0.068307 0.879052
vt 0.068317 0.879056
vt 0.062371 0.884459
vt 0.062400 0.884467
vt 0.068663 0.879175
vt 0.068427 0.879179
vt 0.068429 0.879175
vt 0.061499 0.884212
vt 0.061469 0.884467
vt 0.061469 0.884204
vt 0.068243 0.879183
vt 0.068307 0.879179
vt 0.068317 0.879183
vt 0.062371 0.884476
vt 0.062400 0.884555
vt 0.062371 0.884558
vt 0.068663 0.879302
vt 0.068427 0.879306
vt 0.068429 0.879302
vt 0.061499 0.884723
vt 0.061469 0.884687
vt 0.061499 0.884681
vt 0.066732 0.887192
vt 0.066757 0.887191
vt 0.066761 0.887192
vt 0.066408 0.886836
vt 0.066419 0.886737
vt 0.066419 0.886840
vt 0.066896 0.887239
vt 0.066804 0.887240
vt 0.066805 0.887239
vt 0.066068 0.886740
vt 0.066056 0.886840
vt 0.066056 0.886737
vt 0.068243 0.879438
vt 0.068307 0.879434
vt 0.068317 0.879438
vt 0.062371 0.885250
vt 0.068663 0.879557
vt 0.068427 0.879561
vt 0.068429 0.879557
vt 0.061499 0.885003
vt 0.061469 0.884994
vt 0.066721 0.886994
vt 0.066552 0.886993
vt 0.066727 0.886993
vt 0.066045 0.886330
vt 0.066045 0.886426
vt 0.068214 0.878921
vt 0.067779 0.878925
vt 0.067793 0.878921
vt 0.065705 0.886330
vt 0.065694 0.886429
vt 0.065694 0.886327
vt 0.067793 0.878929
vt 0.068228 0.878925
vt 0.068214 0.878929
vt 0.061440 0.884196
vt 0.068214 0.879048
vt 0.067779 0.879052
vt 0.067793 0.879048
vt 0.060567 0.883949
vt 0.060538 0.884204
vt 0.060538 0.883940
vt 0.067793 0.879056
vt 0.068228 0.879052
vt 0.068214 0.879056
vt 0.061440 0.884459
vt 0.068214 0.879175
vt 0.067779 0.879179
vt 0.067793 0.879175
vt 0.060567 0.884212
vt 0.060538 0.884467
vt 0.068214 0.879183
vt 0.068228 0.879179
vt 0.061440 0.884476
vt 0.061469 0.884555
vt 0.061440 0.884558
vt 0.068214 0.879302
vt 0.067779 0.879306
vt 0.067793 0.879302
vt 0.060567 0.884723
vt 0.060538 0.884687
vt 0.060567 0.884681
vt 0.068214 0.879310
vt 0.068228 0.879306
vt 0.061440 0.884986
vt 0.061469 0.884731
vt 0.068214 0.879430
vt 0.067779 0.879434
vt 0.067793 0.879430
vt 0.060567 0.884739
vt 0.060538 0.884994
vt 0.060538 0.884731
vt 0.066557 0.887242
vt 0.066727 0.887240
vt 0.066721 0.887242
vt 0.066045 0.886939
vt 0.066721 0.887288
vt 0.066557 0.887288
vt 0.065705 0.886843
vt 0.065694 0.886942
vt 0.065694 0.886840
vt 0.067344 0.878802
vt 0.067779 0.878798
vt 0.067765 0.878802
vt 0.060508 0.883685
vt 0.060508 0.883932
vt 0.067765 0.878921
vt 0.067330 0.878925
vt 0.067344 0.878921
vt 0.059636 0.883932
vt 0.059607 0.883677
vt 0.059636 0.883685
vt 0.066382 0.887044
vt 0.066552 0.887042
vt 0.066546 0.887044
vt 0.065682 0.886432
vt 0.065694 0.886532
vt 0.065682 0.886529
vt 0.066546 0.887090
vt 0.066377 0.887092
vt 0.066382 0.887090
vt 0.065682 0.886981
vt 0.065671 0.886882
vt 0.065682 0.886885
vt 0.067344 0.879056
vt 0.067765 0.879056
vt 0.060508 0.884212
vt 0.060508 0.884459
vt 0.067765 0.879175
vt 0.067330 0.879179
vt 0.067344 0.879175
vt 0.059636 0.884459
vt 0.059607 0.884204
vt 0.059636 0.884212
vt 0.067344 0.879183
vt 0.067765 0.879183
vt 0.060508 0.884476
vt 0.060538 0.884555
vt 0.060508 0.884558
vt 0.067765 0.879302
vt 0.067330 0.879306
vt 0.067344 0.879302
vt 0.059636 0.884723
vt 0.059607 0.884687
vt 0.059636 0.884681
vt 0.066382 0.887192
vt 0.066552 0.887191
vt 0.066546 0.887192
vt 0.065682 0.886740
vt 0.065682 0.886836
vt 0.066546 0.887239
vt 0.066377 0.887240
vt 0.066382 0.887239
vt 0.065682 0.887289
vt 0.065671 0.887190
vt 0.065682 0.887193
vt 0.067344 0.879438
vt 0.067765 0.879438
vt 0.060508 0.885003
vt 0.060508 0.885250
vt 0.067765 0.879557
vt 0.067330 0.879561
vt 0.067344 0.879557
vt 0.059636 0.885250
vt 0.059607 0.884994
vt 0.059636 0.885003
vt 0.067432 0.886994
vt 0.067601 0.886993
vt 0.067596 0.886994
vt 0.066198 0.886556
vt 0.066209 0.886656
vt 0.066198 0.886652
vt 0.067596 0.887041
vt 0.067432 0.887041
vt 0.065858 0.886556
vt 0.065847 0.886656
vt 0.065847 0.886553
vt 0.070460 0.878929
vt 0.070025 0.878925
vt 0.070474 0.878925
vt 0.066096 0.883949
vt 0.066125 0.884204
vt 0.066096 0.884196
vt 0.070460 0.879048
vt 0.070039 0.879048
vt 0.065224 0.883949
vt 0.070460 0.879056
vt 0.070474 0.879052
vt 0.066096 0.884212
vt 0.066125 0.884467
vt 0.066096 0.884459
vt 0.070460 0.879175
vt 0.070039 0.879175
vt 0.065224 0.884459
vt 0.065224 0.884212
vt 0.070460 0.879183
vt 0.070474 0.879179
vt 0.066096 0.884476
vt 0.066125 0.884555
vt 0.066096 0.884558
vt 0.070460 0.879302
vt 0.070039 0.879302
vt 0.065224 0.884723
vt 0.065194 0.884687
vt 0.065224 0.884681
vt 0.070460 0.879310
vt 0.070474 0.879306
vt 0.066096 0.884739
vt 0.066125 0.884994
vt 0.066096 0.884986
vt 0.070460 0.879430
vt 0.070039 0.879430
vt 0.065224 0.884986
vt 0.065194 0.884731
vt 0.065224 0.884739
vt 0.067596 0.887242
vt 0.067426 0.887240
vt 0.067601 0.887240
vt 0.066198 0.887069
vt 0.066209 0.887169
vt 0.066198 0.887166
vt 0.067596 0.887288
vt 0.067432 0.887288
vt 0.065858 0.887069
vt 0.065847 0.887169
vt 0.066541 0.886407
vt 0.066398 0.886448
vt 0.066398 0.886407
vt 0.065564 0.886445
vt 0.065484 0.886485
vt 0.065484 0.886445
vt 0.825342 0.466672
vt 0.065682 0.885992
vt 0.065539 0.886033
vt 0.065539 0.885992
vt 0.828204 0.463771
vt 0.826820 0.464163
vt 0.826820 0.463771
vt 0.065682 0.885776
vt 0.065539 0.885816
vt 0.065539 0.885776
vt 0.828204 0.464608
vt 0.826820 0.465000
vt 0.826820 0.464608
vt 0.825248 0.465157
vt 0.825248 0.465026
vt 0.065682 0.885906
vt 0.065539 0.885946
vt 0.065539 0.885906
vt 0.828204 0.465862
vt 0.826820 0.466254
vt 0.826820 0.465862
vt 0.826726 0.463771
vt 0.825342 0.464163
vt 0.825342 0.463771
vt 0.826726 0.464190
vt 0.825342 0.464581
vt 0.825342 0.464190
vt 0.825342 0.464608
vt 0.826726 0.465000
vt 0.825342 0.465000
vt 0.826726 0.465353
vt 0.825342 0.465418
vt 0.825342 0.465353
vt 0.826726 0.465444
vt 0.825342 0.465836
vt 0.825342 0.465444
vt 0.826726 0.465862
vt 0.825342 0.466254
vt 0.825342 0.465862
vt 0.825248 0.463771
vt 0.823864 0.464163
vt 0.823864 0.463771
vt 0.823864 0.465157
vt 0.823864 0.465287
vt 0.825248 0.464608
vt 0.823864 0.465000
vt 0.823864 0.464608
vt 0.825248 0.465353
vt 0.823864 0.465418
vt 0.823864 0.465353
vt 0.825248 0.465444
vt 0.823864 0.465836
vt 0.823864 0.465444
vt 0.825248 0.465862
vt 0.822998 0.464163
vt 0.065484 0.886229
vt 0.065564 0.886269
vt 0.065484 0.886269
vt 0.822998 0.465000
vt 0.065484 0.886359
vt 0.065564 0.886399
vt 0.065484 0.886399
vt 0.822998 0.466254
vt 0.065375 0.885926
vt 0.065715 0.886022
vt 0.065375 0.886022
vt 0.822292 0.464190
vt 0.820907 0.464581
vt 0.820907 0.464190
vt 0.822292 0.464608
vt 0.820907 0.465000
vt 0.820907 0.464608
vt 0.822292 0.465353
vt 0.820907 0.465418
vt 0.820907 0.465353
vt 0.822292 0.465444
vt 0.820907 0.465836
vt 0.820907 0.465444
vt 0.820814 0.463771
vt 0.819429 0.464163
vt 0.819429 0.463771
vt 0.066541 0.886191
vt 0.066398 0.886232
vt 0.066398 0.886191
vt 0.820814 0.464608
vt 0.819429 0.465000
vt 0.819429 0.464608
vt 0.820814 0.465353
vt 0.819429 0.465418
vt 0.819429 0.465353
vt 0.066541 0.886321
vt 0.066398 0.886361
vt 0.066398 0.886321
vt 0.820814 0.465862
vt 0.819429 0.466254
vt 0.819429 0.465862
vt 0.066471 0.885662
vt 0.066811 0.885758
vt 0.066471 0.885758
vt 0.829683 0.464190
vt 0.828298 0.464581
vt 0.828298 0.464190
vt 0.829683 0.464608
vt 0.828298 0.465000
vt 0.828298 0.464608
vt 0.829683 0.465353
vt 0.828298 0.465418
vt 0.828298 0.465353
vt 0.829683 0.465444
vt 0.828298 0.465836
vt 0.828298 0.465444
vt 0.066811 0.886175
vt 0.066471 0.886271
vt 0.066471 0.886175
vt 0.826726 0.466672
vt 0.820907 0.464163
vt 0.822292 0.464163
vt 0.066222 0.885795
vt 0.066805 0.886277
vt 0.066465 0.886277
vt 0.822292 0.464581
vt 0.066805 0.886373
vt 0.066465 0.886373
vt 0.822292 0.465000
vt 0.828204 0.464163
vt 0.822292 0.465026
vt 0.820907 0.465026
vt 0.066805 0.885764
vt 0.066465 0.885764
vt 0.822292 0.465418
vt 0.066805 0.885860
vt 0.826820 0.464581
vt 0.828204 0.464581
vt 0.820907 0.465157
vt 0.066465 0.885860
vt 0.822292 0.465836
vt 0.828204 0.465000
vt 0.057713 0.906712
vt 0.057173 0.906559
vt 0.057713 0.906559
vt 0.825248 0.464190
vt 0.823864 0.464190
vt 0.823864 0.464581
vt 0.826820 0.465353
vt 0.826820 0.465418
vt 0.825248 0.464581
vt 0.828204 0.465287
vt 0.828204 0.465157
vt 0.826820 0.465157
vt 0.826820 0.465287
vt 0.828204 0.465418
vt 0.828204 0.465353
vt 0.066805 0.886071
vt 0.066465 0.886071
vt 0.820814 0.464163
vt 0.066805 0.886168
vt 0.066465 0.886168
vt 0.066199 0.885801
vt 0.065859 0.885801
vt 0.066199 0.885897
vt 0.828204 0.466254
vt 0.065859 0.885897
vt 0.820814 0.465000
vt 0.826726 0.464163
vt 0.820814 0.465026
vt 0.819429 0.465026
vt 0.820814 0.465418
vt 0.826726 0.464581
vt 0.819429 0.465157
vt 0.066199 0.886109
vt 0.065859 0.886109
vt 0.826726 0.464608
vt 0.066199 0.886205
vt 0.065859 0.886205
vt 0.826726 0.465026
vt 0.825342 0.465026
vt 0.820814 0.466254
vt 0.826726 0.465418
vt 0.825342 0.465157
vt 0.067168 0.885661
vt 0.066828 0.885661
vt 0.067168 0.885757
vt 0.826726 0.465836
vt 0.066828 0.885757
vt 0.829683 0.464581
vt 0.826726 0.466254
vt 0.829683 0.465000
vt 0.825248 0.464163
vt 0.829683 0.465026
vt 0.828298 0.465026
vt 0.066562 0.886212
vt 0.066222 0.886212
vt 0.829683 0.465418
vt 0.828204 0.465026
vt 0.826820 0.465026
vt 0.062388 0.906910
vt 0.061004 0.906779
vt 0.062388 0.906779
vt 0.828298 0.465157
vt 0.829683 0.465836
vt 0.825248 0.465000
vt 0.067168 0.886174
vt 0.066828 0.886174
vt 0.823864 0.465026
vt 0.067168 0.886270
vt 0.825248 0.465418
vt 0.066828 0.886270
vt 0.825248 0.465836
vt 0.825248 0.465287
vt 0.828298 0.465287
vt 0.829683 0.465157
vt 0.829683 0.465287
vt 0.825342 0.465287
vt 0.826726 0.465157
vt 0.826726 0.465287
vt 0.819429 0.465287
vt 0.820814 0.465157
vt 0.820814 0.465287
vt 0.066222 0.886308
vt 0.066562 0.886308
vt 0.820907 0.465287
vt 0.822292 0.465157
vt 0.822292 0.465287
vt 0.823770 0.465157
vt 0.822998 0.465157
vt 0.823770 0.465287
vt 0.822998 0.465287
vt 0.065224 0.884476
vt 0.065224 0.884640
vt 0.065224 0.884558
vt 0.066096 0.884681
vt 0.066125 0.884643
vt 0.066125 0.884687
vt 0.066096 0.884640
vt 0.059636 0.884476
vt 0.059607 0.884555
vt 0.059607 0.884467
vt 0.059636 0.884640
vt 0.059636 0.884558
vt 0.060508 0.884681
vt 0.060538 0.884643
vt 0.060508 0.884640
vt 0.060567 0.884476
vt 0.060567 0.884640
vt 0.060567 0.884558
vt 0.061440 0.884681
vt 0.061469 0.884643
vt 0.061440 0.884640
vt 0.061499 0.884476
vt 0.061499 0.884558
vt 0.062371 0.884681
vt 0.062400 0.884643
vt 0.062371 0.884640
vt 0.062430 0.884476
vt 0.062430 0.884640
vt 0.062430 0.884558
vt 0.063302 0.884681
vt 0.063332 0.884643
vt 0.063302 0.884640
vt 0.063361 0.884476
vt 0.063361 0.884640
vt 0.063361 0.884558
vt 0.064233 0.884681
vt 0.064263 0.884643
vt 0.064233 0.884640
vt 0.064292 0.884476
vt 0.064292 0.884640
vt 0.064292 0.884558
vt 0.065165 0.884681
vt 0.065194 0.884643
vt 0.065165 0.884640
vt 0.822385 0.465287
vt 0.819382 0.459227
vt 0.809036 0.459297
vt 0.809036 0.459227
vt 0.819382 0.459297
vt 0.819382 0.465013
vt 0.809036 0.465152
vt 0.819382 0.465152
vt 0.809036 0.465292
vt 0.807557 0.465152
vt 0.807557 0.465292
vt 0.798689 0.465152
vt 0.800167 0.465152
vt 0.798689 0.465292
vt 0.801645 0.465152
vt 0.800167 0.465292
vt 0.803123 0.465152
vt 0.801645 0.465292
vt 0.804601 0.465013
vt 0.804601 0.465152
vt 0.803123 0.465292
vt 0.805819 0.465152
vt 0.806079 0.465152
vt 0.805819 0.465292
vt 0.806079 0.465292
vt 0.819382 0.459158
vt 0.822629 0.465157
vt 0.822629 0.465287
vt 0.065165 0.884723
vt 0.064233 0.884723
vt 0.063302 0.884723
vt 0.062371 0.884723
vt 0.061440 0.884723
vt 0.060508 0.884723
vt 0.066096 0.884723
vt 0.066125 0.884731
vt 0.059607 0.884643
vt 0.061499 0.884640
vt 0.819382 0.465292
vt 0.804601 0.465361
vt 0.805425 0.465361
vt 0.805425 0.465292
vt 0.805425 0.465152
vt 0.805425 0.465013
vt 0.822629 0.465026
vt 0.822629 0.465862
vt 0.065446 0.886359
vt 0.065420 0.886399
vt 0.065420 0.886359
vt 0.822629 0.464608
vt 0.065446 0.886229
vt 0.065420 0.886269
vt 0.065420 0.886229
vt 0.822629 0.463771
vt 0.065446 0.886445
vt 0.065420 0.886485
vt 0.065420 0.886445
vt 0.068243 0.879557
vt 0.068307 0.879561
vt 0.068427 0.879434
vt 0.068429 0.879438
vt 0.066732 0.887239
vt 0.066757 0.887240
vt 0.066804 0.887191
vt 0.066805 0.887192
vt 0.068243 0.879302
vt 0.068307 0.879306
vt 0.068429 0.879183
vt 0.068243 0.879175
vt 0.068427 0.879052
vt 0.068429 0.879056
vt 0.066732 0.887090
vt 0.066757 0.887092
vt 0.066727 0.887092
vt 0.068429 0.878929
vt 0.068243 0.878921
vt 0.068427 0.878798
vt 0.068429 0.878802
vt 0.066732 0.887338
vt 0.066757 0.887339
vt 0.066727 0.887339
vt 0.066804 0.887290
vt 0.066805 0.887291
vt 0.066644 0.885801
vt 0.066735 0.885897
vt 0.066644 0.886109
vt 0.066644 0.886314
vt 0.066735 0.886205
vt 0.066735 0.886411
vt 0.805425 0.466267
vt 0.805425 0.465849
vt 0.802181 0.465272
vt 0.802181 0.465170
vt 0.805425 0.465431
vt 0.805425 0.464595
vt 0.803388 0.465002
vt 0.803388 0.464900
vt 0.805425 0.464176
vt 0.805425 0.463758
vt 0.819382 0.462737
vt 0.809036 0.462737
vt 0.066640 0.886808
vt 0.064101 0.886826
vt 0.064101 0.886808
vt 0.802181 0.465478
vt 0.802181 0.465375
vt 0.801978 0.465478
vt 0.801978 0.465375
vt 0.819382 0.462503
vt 0.803186 0.465002
vt 0.803186 0.464900
vt 0.801978 0.465272
vt 0.801978 0.465170
vt 0.066896 0.887291
vt 0.066901 0.887290
vt 0.068663 0.878802
vt 0.068678 0.878798
vt 0.068663 0.878929
vt 0.068663 0.879056
vt 0.068663 0.879183
vt 0.066896 0.887192
vt 0.066901 0.887191
vt 0.068663 0.879438
vt 0.804601 0.465292
vt 0.065446 0.886399
vt 0.065446 0.886269
vt 0.065446 0.886485
vt 0.068317 0.879557
vt 0.066761 0.887239
vt 0.068317 0.879302
vt 0.068317 0.879175
vt 0.066761 0.887090
vt 0.068317 0.878921
vt 0.066761 0.887338
vt 0.066640 0.886826
vt 0.061004 0.907040
vt 0.061004 0.906910
vt 0.062388 0.907040
vt 0.061004 0.907106
vt 0.062388 0.907106
vt 0.061004 0.907171
vt 0.057506 0.905616
vt 0.057750 0.905551
vt 0.057750 0.905616
vt 0.058119 0.905616
vt 0.057750 0.905485
vt 0.058119 0.905354
vt 0.058119 0.905485
vt 0.058119 0.905550
vt 0.057506 0.905485
vt 0.068301 0.886376
vt 0.819382 0.469613
vt 0.803066 0.465478
vt 0.800167 0.466686
vt 0.803744 0.465478
vt 0.804601 0.466686
vt 0.802341 0.465478
vt 0.807557 0.466686
vt 0.819382 0.467522
vt 0.066640 0.886910
vt 0.819382 0.461249
vt 0.066640 0.885371
vt 0.803549 0.465002
vt 0.802341 0.465170
vt 0.803744 0.464965
vt 0.803744 0.465272
vt 0.804274 0.465002
vt 0.803066 0.465272
vt 0.819382 0.465431
vt 0.068301 0.886171
vt 0.819382 0.466267
vt 0.070039 0.879565
vt 0.066125 0.885258
vt 0.070460 0.879684
vt 0.065224 0.885513
vt 0.066377 0.887290
vt 0.066552 0.887339
vt 0.065671 0.887498
vt 0.067779 0.879561
vt 0.061440 0.885266
vt 0.068228 0.879688
vt 0.060567 0.885513
vt 0.066727 0.887290
vt 0.066408 0.886946
vt 0.066901 0.887339
vt 0.066068 0.887042
vt 0.068692 0.879565
vt 0.063302 0.885266
vt 0.069112 0.879684
vt 0.062400 0.885521
vt 0.064233 0.885266
vt 0.069576 0.879688
vt 0.063361 0.885513
vt 0.067251 0.887290
vt 0.067426 0.887339
vt 0.065495 0.887268
vt 0.065194 0.883677
vt 0.064292 0.883932
vt 0.067251 0.887042
vt 0.065495 0.886755
vt 0.065165 0.884212
vt 0.070011 0.879175
vt 0.064292 0.884459
vt 0.070011 0.879302
vt 0.067251 0.887191
vt 0.065835 0.886967
vt 0.070011 0.879430
vt 0.065484 0.887066
vt 0.065165 0.885003
vt 0.070011 0.879557
vt 0.069141 0.878802
vt 0.063361 0.883932
vt 0.069141 0.878929
vt 0.063361 0.884196
vt 0.069141 0.879183
vt 0.069141 0.879310
vt 0.064233 0.884739
vt 0.064233 0.885003
vt 0.069562 0.879557
vt 0.062430 0.883932
vt 0.068692 0.878929
vt 0.063302 0.883949
vt 0.062430 0.884196
vt 0.062430 0.884986
vt 0.068228 0.878798
vt 0.061499 0.883932
vt 0.066408 0.886432
vt 0.066901 0.887092
vt 0.066068 0.886529
vt 0.062371 0.884212
vt 0.061499 0.884459
vt 0.066727 0.887191
vt 0.066408 0.886740
vt 0.066901 0.887240
vt 0.066068 0.886836
vt 0.068228 0.879434
vt 0.062371 0.885003
vt 0.061499 0.885250
vt 0.066557 0.886994
vt 0.066056 0.886327
vt 0.065705 0.886426
vt 0.061440 0.883949
vt 0.060567 0.884196
vt 0.061440 0.884212
vt 0.060567 0.884459
vt 0.067793 0.879183
vt 0.067793 0.879310
vt 0.061440 0.884739
vt 0.060567 0.884986
vt 0.066552 0.887240
vt 0.066045 0.886843
vt 0.065705 0.886939
vt 0.067330 0.878798
vt 0.060538 0.883677
vt 0.059607 0.883940
vt 0.066377 0.887042
vt 0.066552 0.887092
vt 0.065671 0.886985
vt 0.067330 0.879052
vt 0.059607 0.884731
vt 0.066377 0.887191
vt 0.065694 0.886737
vt 0.065671 0.887293
vt 0.067330 0.879434
vt 0.059607 0.885258
vt 0.067426 0.886993
vt 0.066209 0.886553
vt 0.067601 0.887042
vt 0.065858 0.886652
vt 0.070039 0.878929
vt 0.066125 0.883940
vt 0.065224 0.884196
vt 0.070039 0.879056
vt 0.070039 0.879183
vt 0.070039 0.879310
vt 0.070474 0.879434
vt 0.067432 0.887242
vt 0.066209 0.887066
vt 0.067601 0.887290
vt 0.065858 0.887166
vt 0.066541 0.886448
vt 0.065564 0.886485
vt 0.065682 0.886033
vt 0.065682 0.885816
vt 0.065682 0.885946
vt 0.065564 0.886229
vt 0.065564 0.886359
vt 0.065715 0.885926
vt 0.066541 0.886232
vt 0.066541 0.886361
vt 0.066811 0.885662
vt 0.066811 0.886271
vt 0.057173 0.906712
vt 0.062388 0.907171
vt 0.057506 0.905550
vt 0.057750 0.905354
s 0
usemtl Material
f 36/1/1 3/2/1 27/3/1
f 16/4/2 6/5/2 8/6/2
f 322/7/3 5/8/3 37/9/3
f 281/10/4 1/11/4 17/12/4
f 37/13/5 22/14/5 84/15/5
f 54/16/5 1/17/5 32/18/5
f 60/19/5 17/20/5 54/21/5
f 66/22/5 18/23/5 60/24/5
f 72/25/5 19/26/5 66/22/5
f 78/27/5 654/28/5 661/29/5
f 84/30/5 21/31/5 78/32/5
f 282/33/4 22/34/4 5/35/4
f 23/36/4 21/37/4 22/34/4
f 703/38/4 20/39/4 726/40/4
f 25/41/4 19/42/4 20/43/4
f 285/44/4 18/45/4 19/42/4
f 26/46/4 17/12/4 18/45/4
f 4/47/2 13/48/2 3/2/2
f 14/49/2 12/50/2 13/51/2
f 294/52/2 11/53/2 12/54/2
f 15/55/2 10/56/2 11/53/2
f 662/57/2 9/58/2 653/59/2
f 302/60/2 8/6/2 9/58/2
f 8/61/5 73/62/5 9/63/5
f 79/64/5 74/65/5 73/66/5
f 80/67/5 75/68/5 74/65/5
f 615/69/5 76/70/5 614/71/5
f 82/72/5 77/73/5 76/70/5
f 83/74/5 78/27/5 77/75/5
f 9/76/5 656/77/5 653/78/5
f 73/62/5 657/79/5 656/80/5
f 657/81/5 75/68/5 658/82/5
f 614/71/5 659/83/5 701/84/5
f 659/85/5 77/75/5 660/86/5
f 77/73/5 661/87/5 660/88/5
f 10/89/5 61/90/5 11/91/5
f 67/92/5 62/93/5 61/90/5
f 68/94/5 63/95/5 62/93/5
f 612/96/5 70/97/5 64/98/5
f 70/97/5 65/99/5 64/98/5
f 71/100/5 66/22/5 65/99/5
f 11/91/5 55/101/5 12/102/5
f 61/90/5 56/103/5 55/101/5
f 62/93/5 57/104/5 56/103/5
f 612/96/5 58/105/5 611/106/5
f 64/98/5 59/107/5 58/105/5
f 65/99/5 60/24/5 59/107/5
f 12/102/5 49/108/5 13/109/5
f 55/110/5 50/111/5 49/112/5
f 56/103/5 51/113/5 50/114/5
f 611/106/5 52/115/5 610/116/5
f 58/117/5 53/118/5 52/119/5
f 59/107/5 54/16/5 53/120/5
f 13/121/5 27/122/5 3/123/5
f 49/108/5 28/124/5 27/125/5
f 50/114/5 29/126/5 28/124/5
f 610/116/5 30/127/5 609/128/5
f 52/115/5 31/129/5 30/127/5
f 53/118/5 32/130/5 31/131/5
f 6/5/5 79/64/5 8/132/5
f 42/133/5 80/134/5 79/135/5
f 41/136/5 81/137/5 80/67/5
f 638/138/5 82/72/5 615/69/5
f 39/139/5 83/74/5 82/140/5
f 38/141/5 84/30/5 83/142/5
f 7/143/3 42/144/3 6/5/3
f 314/145/3 41/136/3 42/144/3
f 315/146/3 40/147/3 41/136/3
f 630/148/3 39/149/3 638/138/3
f 43/150/3 38/151/3 39/152/3
f 320/153/3 37/154/3 38/141/3
f 2/155/1 32/156/1 1/157/1
f 324/158/1 31/159/1 32/156/1
f 323/160/1 30/161/1 31/159/1
f 524/162/1 29/163/1 521/164/1
f 34/165/1 28/166/1 29/163/1
f 35/167/1 27/3/1 28/166/1
f 211/168/1 449/169/1 210/169/1
f 106/170/2 346/171/2 105/171/2
f 210/169/2 450/172/2 209/172/2
f 101/173/3 344/174/3 104/174/3
f 205/175/3 448/176/3 208/176/3
f 104/174/4 343/177/4 103/177/4
f 208/176/4 689/178/4 676/178/4
f 103/177/1 341/179/1 102/179/1
f 207/180/1 445/181/1 206/181/1
f 102/179/2 342/173/2 101/173/2
f 206/181/2 741/182/2 734/182/2
f 97/183/3 340/184/3 100/184/3
f 201/185/3 444/186/3 204/186/3
f 100/184/4 678/187/4 664/187/4
f 204/186/4 687/188/4 674/188/4
f 99/189/1 337/190/1 98/190/1
f 203/191/1 441/192/1 202/192/1
f 98/190/2 735/193/2 728/193/2
f 202/192/2 740/194/2 733/194/2
f 93/195/3 336/196/3 96/196/3
f 197/197/3 581/198/3 553/198/3
f 96/196/4 335/199/4 95/199/4
f 720/200/6 753/201/6 750/201/6
f 95/199/1 333/202/1 94/202/1
f 199/203/1 649/204/1 642/204/1
f 94/202/2 334/195/2 93/195/2
f 198/205/2 739/206/2 732/206/2
f 89/207/3 332/208/3 92/208/3
f 193/209/3 436/210/3 196/210/3
f 92/208/4 331/211/4 91/211/4
f 196/210/4 684/212/4 670/212/4
f 91/211/1 329/213/1 90/213/1
f 195/214/1 433/215/1 194/215/1
f 90/213/2 330/207/2 89/207/2
f 194/215/2 738/216/2 731/216/2
f 85/217/3 328/218/3 88/218/3
f 189/219/3 432/220/3 192/220/3
f 88/218/4 327/221/4 87/221/4
f 192/220/4 682/222/4 668/222/4
f 87/221/1 325/223/1 86/223/1
f 191/224/1 429/225/1 190/225/1
f 86/223/2 326/217/2 85/217/2
f 190/225/2 737/226/2 730/226/2
f 185/227/3 428/228/3 188/228/3
f 188/228/4 680/229/4 666/229/4
f 187/230/1 425/231/1 186/231/1
f 186/231/2 736/232/2 729/232/2
f 181/233/3 424/234/3 184/234/3
f 184/234/4 423/235/4 183/235/4
f 86/236/7 48/237/7 324/238/7
f 86/239/7 2/240/7 87/241/7
f 88/242/7 2/243/7 281/244/7
f 85/245/7 281/246/7 48/247/7
f 89/248/7 321/249/7 90/250/7
f 90/251/7 23/252/7 91/253/7
f 91/254/7 282/255/7 92/256/7
f 92/257/7 322/258/7 89/259/7
f 93/260/7 312/261/7 94/262/7
f 95/263/7 312/264/7 24/265/7
f 95/266/7 23/267/7 96/268/7
f 93/269/7 23/270/7 321/271/7
f 97/272/7 695/273/7 663/274/7
f 99/275/7 308/276/7 25/277/7
f 99/278/7 703/279/7 710/280/7
f 97/281/7 24/282/7 312/283/7
f 102/284/7 308/285/7 284/286/7
f 103/287/7 284/288/7 285/289/7
f 104/290/7 285/291/7 25/292/7
f 104/293/7 308/294/7 101/295/7
f 105/296/7 283/297/7 106/298/7
f 107/299/7 283/300/7 26/301/7
f 107/302/7 285/291/7 108/303/7
f 105/304/7 285/289/7 284/288/7
f 109/305/7 48/306/7 110/307/7
f 110/308/7 281/309/7 111/310/7
f 111/311/7 26/312/7 112/313/7
f 109/314/7 26/315/7 283/316/7
f 113/317/7 14/318/7 114/319/7
f 114/320/7 46/321/7 115/322/7
f 115/323/7 286/324/7 116/325/7
f 113/326/7 286/327/7 294/328/7
f 117/329/7 46/330/7 118/331/7
f 118/332/7 287/333/7 119/334/7
f 119/335/7 288/336/7 120/337/7
f 117/338/7 288/339/7 286/340/7
f 121/341/7 287/342/7 122/343/7
f 123/344/7 287/345/7 47/346/7
f 124/347/7 47/348/7 289/349/7
f 121/350/7 289/351/7 288/352/7
f 125/353/7 47/348/7 126/354/7
f 126/355/7 607/356/7 540/357/7
f 128/358/7 290/359/7 291/360/7
f 128/361/7 635/362/7 616/363/7
f 129/364/7 290/365/7 130/366/7
f 131/367/7 290/368/7 292/369/7
f 132/370/7 292/371/7 293/372/7
f 132/373/7 291/374/7 129/375/7
f 133/376/7 292/371/7 134/377/7
f 135/378/7 292/379/7 48/247/7
f 136/380/7 48/237/7 283/297/7
f 136/381/7 293/382/7 133/383/7
f 138/384/7 15/385/7 294/386/7
f 138/387/7 286/327/7 139/388/7
f 139/389/7 295/390/7 140/391/7
f 137/392/7 295/393/7 15/394/7
f 142/395/7 295/390/7 286/324/7
f 142/396/7 288/352/7 143/397/7
f 143/398/7 296/399/7 144/400/7
f 141/401/7 296/402/7 295/393/7
f 145/403/7 288/336/7 146/404/7
f 146/405/7 289/351/7 147/406/7
f 147/407/7 297/408/7 148/409/7
f 148/410/7 296/402/7 145/411/7
f 150/412/7 297/408/7 289/349/7
f 150/413/7 605/414/7 544/415/7
f 151/416/7 298/417/7 152/418/7
f 152/419/7 634/420/7 617/421/7
f 154/422/7 298/417/7 291/360/7
f 155/423/7 291/424/7 293/382/7
f 155/425/7 299/426/7 156/427/7
f 156/428/7 298/429/7 153/430/7
f 157/431/7 293/372/7 158/432/7
f 159/433/7 293/382/7 283/300/7
f 160/434/7 283/297/7 284/286/7
f 160/435/7 299/436/7 157/437/7
f 161/438/7 15/385/7 162/439/7
f 162/440/7 295/393/7 163/441/7
f 163/442/7 44/443/7 164/444/7
f 161/445/7 44/446/7 301/447/7
f 166/448/7 44/443/7 295/390/7
f 167/449/7 295/393/7 296/402/7
f 167/450/7 45/451/7 168/452/7
f 165/453/7 45/454/7 44/446/7
f 169/455/7 296/399/7 170/456/7
f 170/457/7 297/458/7 171/459/7
f 171/460/7 304/461/7 172/462/7
f 172/463/7 45/454/7 169/464/7
f 173/465/7 297/408/7 174/466/7
f 174/467/7 603/468/7 548/469/7
f 175/470/7 300/471/7 176/472/7
f 176/473/7 633/474/7 618/475/7
f 177/476/7 298/417/7 178/477/7
f 178/478/7 299/436/7 179/479/7
f 179/480/7 307/481/7 180/482/7
f 177/483/7 307/484/7 300/485/7
f 181/486/7 299/426/7 182/487/7
f 182/488/7 284/288/7 183/489/7
f 183/490/7 308/285/7 184/491/7
f 184/492/7 307/484/7 181/493/7
f 185/494/7 662/495/7 665/496/7
f 186/497/7 44/446/7 187/498/7
f 187/499/7 742/500/7 711/501/7
f 185/502/7 309/503/7 302/504/7
f 189/505/7 690/506/7 667/507/7
f 191/508/7 44/509/7 45/510/7
f 191/511/7 743/512/7 712/513/7
f 189/514/7 303/515/7 309/516/7
f 193/517/7 691/518/7 669/519/7
f 195/520/7 45/454/7 304/521/7
f 195/522/7 744/523/7 713/524/7
f 193/525/7 305/526/7 303/527/7
f 197/528/7 692/529/7 671/530/7
f 198/531/7 601/532/7 552/533/7
f 199/534/7 745/535/7 700/536/7
f 200/537/7 632/538/7 619/539/7
f 201/540/7 693/541/7 673/542/7
f 203/543/7 300/544/7 307/545/7
f 203/546/7 746/547/7 714/548/7
f 201/549/7 311/550/7 306/551/7
f 205/552/7 694/553/7 675/554/7
f 207/555/7 307/484/7 308/294/7
f 207/556/7 747/557/7 715/558/7
f 205/559/7 312/264/7 311/560/7
f 210/561/7 16/562/7 302/563/7
f 210/564/7 309/516/7 211/565/7
f 211/566/7 313/567/7 212/568/7
f 209/569/7 313/570/7 16/571/7
f 213/572/7 309/573/7 214/574/7
f 215/575/7 309/503/7 303/527/7
f 215/576/7 316/577/7 216/578/7
f 213/579/7 316/580/7 313/581/7
f 217/582/7 303/583/7 218/584/7
f 219/585/7 303/527/7 305/526/7
f 219/586/7 317/587/7 220/588/7
f 217/589/7 317/590/7 316/580/7
f 222/591/7 317/587/7 305/592/7
f 222/593/7 599/594/7 556/595/7
f 223/596/7 310/597/7 224/598/7
f 224/599/7 631/600/7 620/601/7
f 226/602/7 310/597/7 306/603/7
f 227/604/7 306/605/7 311/560/7
f 227/606/7 319/607/7 228/608/7
f 225/609/7 319/610/7 310/611/7
f 229/612/7 311/613/7 230/614/7
f 231/615/7 311/550/7 312/283/7
f 231/616/7 321/249/7 232/617/7
f 229/618/7 321/619/7 319/620/7
f 233/621/7 16/622/7 234/623/7
f 234/624/7 313/581/7 235/625/7
f 235/626/7 314/627/7 236/628/7
f 236/629/7 7/630/7 233/631/7
f 237/632/7 313/633/7 238/634/7
f 238/635/7 316/636/7 239/637/7
f 239/638/7 315/639/7 240/640/7
f 240/641/7 314/642/7 237/643/7
f 241/644/7 316/577/7 242/645/7
f 242/646/7 317/590/7 243/647/7
f 243/648/7 318/649/7 244/650/7
f 244/651/7 315/652/7 241/653/7
f 245/654/7 317/587/7 246/655/7
f 246/656/7 597/657/7 560/658/7
f 247/659/7 43/660/7 248/661/7
f 248/662/7 630/663/7 621/664/7
f 249/665/7 310/666/7 250/667/7
f 250/668/7 319/620/7 251/669/7
f 251/670/7 320/671/7 252/672/7
f 252/673/7 43/674/7 249/675/7
f 253/676/7 319/607/7 254/677/7
f 254/678/7 321/271/7 255/679/7
f 255/680/7 322/681/7 256/682/7
f 256/683/7 320/684/7 253/685/7
f 257/686/7 4/687/7 258/688/7
f 258/689/7 36/690/7 259/691/7
f 259/692/7 46/330/7 260/693/7
f 257/694/7 46/695/7 14/696/7
f 262/697/7 46/698/7 36/699/7
f 262/700/7 35/701/7 263/702/7
f 263/703/7 287/342/7 264/704/7
f 261/705/7 287/345/7 46/321/7
f 266/706/7 287/342/7 35/707/7
f 266/708/7 34/709/7 267/710/7
f 267/711/7 47/348/7 268/712/7
f 268/713/7 287/345/7 265/714/7
f 270/715/7 47/348/7 34/716/7
f 270/717/7 524/718/7 564/719/7
f 271/720/7 290/359/7 272/721/7
f 272/722/7 636/723/7 622/724/7
f 274/725/7 290/359/7 33/726/7
f 274/727/7 323/728/7 275/729/7
f 275/730/7 292/371/7 276/731/7
f 276/732/7 290/733/7 273/734/7
f 278/735/7 292/736/7 323/737/7
f 278/738/7 324/739/7 279/740/7
f 279/741/7 48/306/7 280/742/7
f 277/743/7 48/744/7 292/369/7
f 326/217/7 327/221/7 328/218/7
f 329/745/7 332/746/7 330/747/7
f 333/202/7 336/196/7 334/195/7
f 337/748/7 716/749/7 735/750/7
f 341/179/7 344/174/7 342/173/7
f 345/170/7 348/751/7 346/171/7
f 349/752/7 352/753/7 350/754/7
f 353/755/7 356/756/7 354/757/7
f 357/758/7 360/759/7 358/760/7
f 361/761/7 364/762/7 362/763/7
f 548/764/1 413/765/1 174/765/1
f 369/766/7 372/767/7 370/768/7
f 373/769/7 376/770/7 374/771/7
f 377/772/7 380/773/7 378/774/7
f 381/775/7 384/776/7 382/777/7
f 386/778/7 387/779/7 388/780/7
f 647/781/7 392/782/7 624/783/7
f 393/784/7 396/785/7 394/786/7
f 397/787/7 400/788/7 398/789/7
f 401/790/7 404/791/7 402/792/7
f 549/793/3 578/794/3 550/794/3
f 409/795/7 412/796/7 410/797/7
f 648/798/7 416/799/7 625/800/7
f 417/801/7 420/802/7 418/803/7
f 421/804/7 424/234/7 422/233/7
f 425/231/7 717/805/7 736/232/7
f 737/806/7 431/807/7 718/808/7
f 433/215/7 719/809/7 738/216/7
f 750/201/7 439/203/7 720/200/7
f 740/810/7 443/811/7 721/812/7
f 445/181/7 722/813/7 741/182/7
f 450/814/7 451/815/7 452/816/7
f 453/817/7 456/818/7 454/819/7
f 457/820/7 460/821/7 458/822/7
f 650/823/7 464/824/7 627/825/7
f 465/826/7 468/827/7 466/828/7
f 550/794/3 625/800/3 618/800/3
f 473/829/7 476/830/7 474/831/7
f 477/832/7 480/833/7 478/834/7
f 481/835/7 484/836/7 482/837/7
f 651/838/7 488/839/7 628/840/7
f 489/841/7 492/842/7 490/843/7
f 493/844/7 496/845/7 494/846/7
f 498/847/7 499/848/7 500/849/7
f 501/850/7 504/851/7 502/852/7
f 505/853/7 508/854/7 506/855/7
f 652/856/7 512/857/7 629/858/7
f 513/859/7 516/860/7 514/861/7
f 517/862/7 520/863/7 518/864/7
f 107/865/1 345/170/1 106/170/1
f 212/866/4 451/867/4 211/867/4
f 108/751/4 347/865/4 107/865/4
f 209/172/3 452/868/3 212/868/3
f 105/171/3 348/751/3 108/751/3
f 214/817/2 454/819/2 213/819/2
f 110/869/2 350/870/2 109/870/2
f 215/871/1 453/817/1 214/817/1
f 111/872/1 349/869/1 110/869/1
f 216/818/4 455/871/4 215/871/4
f 112/873/4 351/872/4 111/872/4
f 213/819/3 456/818/3 216/818/3
f 109/870/3 352/873/3 112/873/3
f 218/820/2 458/822/2 217/822/2
f 114/755/2 354/757/2 113/757/2
f 219/874/1 457/820/1 218/820/1
f 115/875/1 353/755/1 114/755/1
f 220/821/4 459/874/4 219/874/4
f 116/756/4 355/875/4 115/875/4
f 217/822/3 460/821/3 220/821/3
f 113/757/3 356/756/3 116/756/3
f 222/876/2 462/877/2 221/877/2
f 118/878/2 358/879/2 117/879/2
f 223/880/1 650/823/1 643/823/1
f 119/881/1 357/878/1 118/878/1
f 224/824/4 463/880/4 223/880/4
f 120/882/4 359/883/4 119/883/4
f 221/877/3 585/884/3 557/884/3
f 117/879/3 360/885/3 120/885/3
f 226/826/2 466/828/2 225/828/2
f 122/761/2 362/763/2 121/763/2
f 227/886/1 465/826/1 226/826/1
f 123/887/1 361/761/1 122/761/1
f 228/827/4 467/886/4 227/886/4
f 124/762/4 363/887/4 123/887/4
f 225/828/3 468/827/3 228/827/3
f 121/763/3 364/762/3 124/762/3
f 568/888/7 569/889/7 570/890/7
f 166/891/4 405/892/4 165/892/4
f 165/892/1 623/893/1 168/893/1
f 616/894/1 469/895/1 128/895/1
f 168/893/2 646/896/2 167/896/2
f 539/897/3 470/898/3 540/898/3
f 541/899/1 365/900/1 542/900/1
f 127/901/3 368/902/3 639/902/3
f 234/829/2 474/831/2 233/831/2
f 130/903/2 370/904/2 129/904/2
f 235/905/1 473/829/1 234/829/1
f 131/906/1 369/903/1 130/903/1
f 236/830/4 475/905/4 235/905/4
f 132/907/4 371/906/4 131/906/4
f 233/831/3 476/830/3 236/830/3
f 129/904/3 372/907/3 132/907/3
f 238/908/2 478/909/2 237/909/2
f 134/769/2 374/771/2 133/771/2
f 239/910/1 477/908/1 238/908/1
f 135/911/1 373/769/1 134/769/1
f 240/912/4 479/910/4 239/910/4
f 136/770/4 375/911/4 135/911/4
f 237/909/3 480/912/3 240/912/3
f 133/771/3 376/770/3 136/770/3
f 242/835/2 482/837/2 241/837/2
f 138/772/2 378/774/2 137/774/2
f 243/913/1 481/835/1 242/835/1
f 139/914/1 377/772/1 138/772/1
f 244/836/4 483/913/4 243/913/4
f 140/773/4 379/914/4 139/914/4
f 241/837/3 484/836/3 244/836/3
f 137/774/3 380/773/3 140/773/3
f 246/915/2 486/916/2 245/916/2
f 142/775/2 382/777/2 141/777/2
f 247/917/1 651/838/1 644/838/1
f 143/918/1 381/775/1 142/775/1
f 248/839/4 487/917/4 247/917/4
f 144/776/4 383/918/4 143/918/4
f 245/916/3 589/919/3 561/919/3
f 141/777/3 384/776/3 144/776/3
f 250/920/2 490/921/2 249/921/2
f 146/922/2 386/778/2 145/778/2
f 251/923/1 489/920/1 250/920/1
f 147/779/1 385/922/1 146/922/1
f 252/924/4 491/923/4 251/923/4
f 148/780/4 387/779/4 147/779/4
f 249/921/3 492/924/3 252/924/3
f 145/778/3 388/780/3 148/780/3
f 254/844/2 494/846/2 253/846/2
f 150/925/2 390/926/2 149/926/2
f 255/927/1 493/844/1 254/844/1
f 151/928/1 647/781/1 640/781/1
f 256/845/4 495/927/4 255/927/4
f 152/782/4 391/928/4 151/928/4
f 253/846/3 496/845/3 256/845/3
f 149/926/3 573/929/3 545/929/3
f 258/930/2 498/931/2 257/931/2
f 154/784/2 394/786/2 153/786/2
f 259/932/1 497/930/1 258/930/1
f 155/933/1 393/784/1 154/784/1
f 260/934/4 499/932/4 259/932/4
f 156/785/4 395/933/4 155/933/4
f 257/931/3 500/934/3 260/934/3
f 153/786/3 396/785/3 156/785/3
f 262/850/2 502/852/2 261/852/2
f 158/787/2 398/789/2 157/789/2
f 263/935/1 501/850/1 262/850/1
f 159/936/1 397/787/1 158/787/1
f 264/851/4 503/935/4 263/935/4
f 160/788/4 399/936/4 159/936/4
f 261/852/3 504/851/3 264/851/3
f 157/789/3 400/788/3 160/788/3
f 266/853/2 506/855/2 265/855/2
f 162/790/2 402/792/2 161/792/2
f 267/937/1 505/853/1 266/853/1
f 163/938/1 401/790/1 162/790/1
f 268/854/4 507/937/4 267/937/4
f 164/791/4 403/938/4 163/938/4
f 265/855/3 508/854/3 268/854/3
f 161/792/3 404/791/3 164/791/3
f 270/939/2 510/940/2 269/940/2
f 230/941/4 569/942/4 229/942/4
f 271/943/1 652/856/1 645/856/1
f 126/944/4 471/945/4 125/945/4
f 272/857/4 511/943/4 271/943/4
f 470/946/7 471/947/7 472/948/7
f 269/940/3 593/949/3 565/949/3
f 646/896/7 405/892/7 406/891/7
f 274/859/2 514/861/2 273/861/2
f 170/795/2 410/797/2 169/797/2
f 275/950/1 513/859/1 274/859/1
f 171/951/1 409/795/1 170/795/1
f 276/860/4 515/950/4 275/950/4
f 172/796/4 411/951/4 171/951/4
f 273/861/3 516/860/3 276/860/3
f 169/797/3 412/796/3 172/796/3
f 278/952/2 518/953/2 277/953/2
f 174/765/2 414/954/2 173/954/2
f 279/955/1 517/952/1 278/952/1
f 175/956/1 648/798/1 641/798/1
f 280/957/4 519/955/4 279/955/4
f 176/799/4 415/956/4 175/956/4
f 277/953/3 520/957/3 280/957/3
f 173/954/3 577/793/3 549/793/3
f 178/801/2 418/803/2 177/803/2
f 179/958/1 417/801/1 178/801/1
f 180/802/4 419/958/4 179/958/4
f 177/803/3 420/802/3 180/802/3
f 182/804/2 422/233/2 181/233/2
f 183/235/1 421/804/1 182/804/1
f 547/959/1 576/764/1 548/764/1
f 566/960/3 629/858/3 622/858/3
f 565/949/3 594/960/3 566/960/3
f 564/961/1 509/939/1 270/939/1
f 563/962/1 592/961/1 564/961/1
f 546/963/3 624/783/3 617/783/3
f 545/929/3 574/963/3 546/963/3
f 544/964/1 389/925/1 150/925/1
f 543/965/1 572/964/1 544/964/1
f 562/966/3 628/840/3 621/840/3
f 561/919/3 590/966/3 562/966/3
f 560/967/1 485/915/1 246/915/1
f 559/968/1 588/967/1 560/967/1
f 232/969/2 568/970/2 231/970/2
f 128/895/2 408/901/2 127/901/2
f 542/900/1 407/894/1 616/894/1
f 639/902/3 367/897/3 539/897/3
f 558/971/3 627/825/3 620/825/3
f 557/884/3 586/971/3 558/971/3
f 556/972/1 461/876/1 222/876/1
f 555/973/1 584/972/1 556/972/1
f 509/939/7 593/949/7 510/940/7
f 592/961/7 594/960/7 593/949/7
f 485/915/7 589/919/7 486/916/7
f 588/967/7 590/966/7 589/919/7
f 461/876/7 585/884/7 462/877/7
f 584/972/7 586/971/7 585/884/7
f 739/206/7 580/974/7 748/975/7
f 748/975/7 579/976/7 749/977/7
f 413/765/7 577/793/7 414/954/7
f 576/764/7 578/794/7 577/793/7
f 389/925/7 573/929/7 390/926/7
f 572/964/7 574/963/7 573/929/7
f 269/978/7 607/356/7 47/346/7
f 566/979/7 607/356/7 565/980/7
f 645/981/7 523/982/7 637/983/7
f 564/719/7 523/982/7 563/984/7
f 245/985/7 595/986/7 318/987/7
f 562/988/7 595/986/7 561/989/7
f 644/990/7 598/991/7 631/600/7
f 560/658/7 598/991/7 559/992/7
f 221/993/7 597/657/7 317/590/7
f 558/994/7 597/657/7 557/995/7
f 643/996/7 600/997/7 632/538/7
f 556/595/7 600/997/7 555/998/7
f 197/999/7 599/594/7 305/526/7
f 553/1000/7 600/997/7 599/594/7
f 642/1001/7 602/1002/7 633/474/7
f 552/533/7 602/1002/7 551/1003/7
f 173/1004/7 601/532/7 304/521/7
f 550/1005/7 601/532/7 549/1006/7
f 641/1007/7 604/1008/7 634/420/7
f 548/469/7 604/1008/7 547/1009/7
f 149/1010/7 603/468/7 297/458/7
f 546/1011/7 603/468/7 545/1012/7
f 640/1013/7 606/1014/7 635/362/7
f 544/415/7 606/1014/7 543/1015/7
f 125/1016/7 605/414/7 289/351/7
f 542/1017/7 605/414/7 541/1018/7
f 639/1019/7 608/1020/7 636/723/7
f 540/357/7 608/1020/7 539/1021/7
f 552/974/1 437/205/1 198/205/1
f 551/976/1 580/974/1 552/974/1
f 750/201/8 752/977/8 749/977/8
f 553/198/3 582/1022/3 554/1022/3
f 637/1023/1 522/1024/1 609/1025/1
f 523/1026/1 521/164/1 522/1024/1
f 318/1027/3 526/1028/3 40/147/3
f 595/1029/3 525/1030/3 526/1028/3
f 40/147/5 537/1031/5 81/137/5
f 526/1028/5 538/1032/5 537/1031/5
f 51/113/5 521/1033/5 29/126/5
f 527/1034/5 522/1035/5 521/1033/5
f 57/104/5 527/1034/5 51/113/5
f 529/1036/5 528/1037/5 527/1034/5
f 63/95/5 529/1036/5 57/104/5
f 531/1038/5 530/1039/5 529/1036/5
f 69/1040/5 531/1038/5 63/95/5
f 533/1041/5 532/1042/5 531/1038/5
f 75/68/5 698/1043/5 658/82/5
f 535/1044/5 699/1045/5 698/1043/5
f 81/137/5 535/1044/5 75/68/5
f 537/1031/5 536/1046/5 535/1044/5
f 33/1047/1 609/1025/1 30/161/1
f 696/1048/9 440/1049/9 697/1049/9
f 127/1050/7 636/723/7 290/733/7
f 151/1051/7 635/362/7 291/424/7
f 175/1052/7 634/420/7 298/429/7
f 199/1053/7 633/474/7 300/485/7
f 223/1054/7 632/538/7 306/605/7
f 247/1055/7 631/600/7 310/611/7
f 271/1056/7 637/983/7 33/1057/7
f 620/825/3 464/824/3 224/824/3
f 231/970/3 570/941/3 230/941/3
f 621/840/3 488/839/3 248/839/3
f 617/783/3 392/782/3 152/782/3
f 622/858/3 512/857/3 272/857/3
f 641/798/1 575/959/1 547/959/1
f 645/856/1 591/962/1 563/962/1
f 640/781/1 571/965/1 543/965/1
f 644/838/1 587/968/1 559/968/1
f 540/898/3 472/944/3 126/944/3
f 643/823/1 583/973/1 555/973/1
f 591/962/7 629/858/7 594/960/7
f 587/968/7 628/840/7 590/966/7
f 618/800/3 416/799/3 176/799/3
f 583/973/7 627/825/7 586/971/7
f 579/976/7 750/201/7 749/977/7
f 575/959/7 625/800/7 578/794/7
f 571/965/7 624/783/7 574/963/7
f 622/724/7 608/1020/7 566/979/7
f 621/664/7 596/1058/7 562/988/7
f 620/601/7 598/991/7 558/994/7
f 554/1059/7 632/538/7 600/997/7
f 618/475/7 602/1002/7 550/1005/7
f 617/421/7 604/1008/7 546/1011/7
f 616/363/7 606/1014/7 542/1017/7
f 642/204/1 579/976/1 551/976/1
f 596/1060/3 638/138/3 525/1030/3
f 525/1030/5 615/69/5 538/1032/5
f 528/1037/5 609/128/5 522/1035/5
f 530/1039/5 610/116/5 528/1037/5
f 532/1042/5 611/106/5 530/1039/5
f 532/1042/5 613/1061/5 612/96/5
f 536/1046/5 701/84/5 699/1045/5
f 538/1032/5 614/71/5 536/1046/5
f 699/1045/5 725/1062/5 724/1063/5
f 698/1043/5 724/1063/5 723/1064/5
f 658/82/5 723/1064/5 706/1065/5
f 581/198/7 697/1049/7 582/1022/7
f 685/1066/7 581/198/7 438/197/7
f 688/1067/7 448/176/7 446/175/7
f 686/1068/7 444/1069/7 442/1070/7
f 683/1071/7 436/210/7 434/209/7
f 681/1072/7 432/1073/7 430/1074/7
f 679/1075/7 428/228/7 426/227/7
f 677/1076/7 340/1077/7 338/1078/7
f 208/1079/7 695/1080/7 312/261/7
f 675/554/7 746/1081/7 734/1082/7
f 204/1083/7 694/1084/7 311/613/7
f 673/542/7 745/1085/7 733/1086/7
f 200/1087/7 693/1088/7 306/603/7
f 671/530/7 744/523/7 732/1089/7
f 196/1090/7 692/529/7 305/592/7
f 669/519/7 743/1091/7 731/1092/7
f 192/1093/7 691/1094/7 303/1095/7
f 667/507/7 742/500/7 730/1096/7
f 188/1097/7 690/506/7 309/573/7
f 665/496/7 727/1098/7 729/1099/7
f 100/1100/7 655/1101/7 24/1102/7
f 663/274/7 747/1103/7 728/1104/7
f 665/1075/2 426/227/2 185/227/2
f 666/229/4 717/805/4 711/805/4
f 667/1105/2 430/219/2 189/219/2
f 668/222/4 718/1106/4 712/1106/4
f 669/1071/2 434/209/2 193/209/2
f 670/212/4 719/809/4 713/809/4
f 671/1066/2 438/197/2 197/197/2
f 582/1022/10 440/1049/10 554/1022/10
f 673/1107/2 442/185/2 201/185/2
f 663/1108/2 338/183/2 97/183/2
f 674/188/4 721/1109/4 714/1109/4
f 664/187/4 716/1110/4 710/1110/4
f 675/1067/2 446/175/2 205/175/2
f 676/178/4 722/813/4 715/813/4
f 660/88/5 709/1111/5 708/1112/5
f 659/85/5 708/1113/5 707/1114/5
f 701/84/5 707/1115/5 725/1062/5
f 657/81/5 706/1065/5 705/1116/5
f 656/80/5 705/1117/5 704/1118/5
f 653/78/5 704/1119/5 702/1120/5
f 727/1121/2 653/59/2 702/1122/2
f 24/1123/4 654/1124/4 21/1125/4
f 661/29/5 726/1126/5 709/1127/5
f 709/1127/5 20/1128/5 72/1129/5
f 301/1130/2 702/1122/2 10/56/2
f 702/1120/5 67/92/5 10/89/5
f 704/1118/5 68/1131/5 67/1132/5
f 705/1116/5 69/1040/5 68/94/5
f 725/1062/5 70/97/5 613/1061/5
f 707/1114/5 71/1133/5 70/1134/5
f 708/1112/5 72/25/5 71/100/5
f 715/813/4 447/180/4 207/180/4
f 710/1110/4 339/189/4 99/189/4
f 714/1109/4 443/191/4 203/191/4
f 700/200/4 439/203/4 199/203/4
f 713/809/4 435/214/4 195/214/4
f 712/1106/4 431/224/4 191/224/4
f 711/805/4 427/230/4 187/230/4
f 98/1135/7 747/1103/7 308/1136/7
f 186/1137/7 727/1098/7 301/1138/7
f 190/1139/7 742/500/7 44/443/7
f 194/1140/7 743/1091/7 45/451/7
f 198/1141/7 744/523/7 304/461/7
f 202/1142/7 745/1085/7 300/1143/7
f 206/1144/7 746/1081/7 307/481/7
f 706/1065/5 533/1041/5 69/1040/5
f 723/1064/5 534/1145/5 533/1041/5
f 724/1063/5 613/1061/5 534/1145/5
f 748/975/11 626/1048/11 696/1048/11
f 739/206/7 696/1048/7 685/1066/7
f 741/182/7 689/178/7 688/1067/7
f 740/810/7 687/1146/7 686/1068/7
f 749/977/12 751/975/12 748/975/12
f 738/216/7 684/212/7 683/1071/7
f 737/806/7 682/1147/7 681/1072/7
f 736/232/7 680/229/7 679/1075/7
f 735/750/7 678/1148/7 677/1076/7
f 676/1149/7 747/557/7 695/1080/7
f 674/1150/7 746/547/7 694/1084/7
f 700/536/7 693/1088/7 672/1151/7
f 670/1152/7 744/523/7 692/529/7
f 668/1153/7 743/512/7 691/1094/7
f 666/1154/7 742/500/7 690/506/7
f 664/1155/7 703/279/7 655/1101/7
f 729/232/2 679/1075/2 665/1075/2
f 730/226/2 681/1105/2 667/1105/2
f 731/216/2 683/1071/2 669/1071/2
f 732/206/2 685/1066/2 671/1066/2
f 733/194/2 686/1107/2 673/1107/2
f 728/193/2 677/1108/2 663/1108/2
f 734/182/2 688/1067/2 675/1067/2
f 655/1156/4 726/40/4 654/1124/4
f 229/942/1 567/969/1 232/969/1
f 125/945/1 366/899/1 541/899/1
f 167/896/3 406/891/3 166/891/3
f 470/946/7 365/1157/7 366/1158/7
f 367/1159/7 407/1160/7 365/1157/7
f 368/1161/7 469/1162/7 407/1160/7
f 200/1163/13 754/1164/13 672/1165/13
f 754/1164/13 700/1166/13 672/1165/13
f 440/1167/7 751/1168/7 752/1169/7
f 754/1164/14 752/1169/14 753/1170/14
f 754/1164/15 554/1171/15 440/1167/15
f 36/1/1 4/47/1 3/2/1
f 16/4/2 7/143/2 6/5/2
f 322/7/3 282/1172/3 5/8/3
f 281/10/4 2/1173/4 1/11/4
f 37/13/5 5/1174/5 22/14/5
f 54/16/5 17/1175/5 1/17/5
f 60/19/5 18/1176/5 17/20/5
f 66/22/5 19/26/5 18/23/5
f 72/25/5 20/1177/5 19/26/5
f 78/27/5 21/1178/5 654/28/5
f 84/30/5 22/1179/5 21/31/5
f 282/33/4 23/36/4 22/34/4
f 23/36/4 24/1180/4 21/37/4
f 703/38/4 25/1181/4 20/39/4
f 25/41/4 285/44/4 19/42/4
f 285/44/4 26/46/4 18/45/4
f 26/46/4 281/10/4 17/12/4
f 4/47/2 14/1182/2 13/48/2
f 14/49/2 294/1183/2 12/50/2
f 294/52/2 15/55/2 11/53/2
f 15/55/2 301/1130/2 10/56/2
f 662/57/2 302/60/2 9/58/2
f 302/60/2 16/4/2 8/6/2
f 8/61/5 79/135/5 73/62/5
f 79/64/5 80/67/5 74/65/5
f 80/67/5 81/137/5 75/68/5
f 615/69/5 82/72/5 76/70/5
f 82/72/5 83/142/5 77/73/5
f 83/74/5 84/15/5 78/27/5
f 9/76/5 73/66/5 656/77/5
f 73/62/5 74/1184/5 657/79/5
f 657/81/5 74/65/5 75/68/5
f 614/71/5 76/70/5 659/83/5
f 659/85/5 76/1185/5 77/75/5
f 77/73/5 78/32/5 661/87/5
f 10/89/5 67/92/5 61/90/5
f 67/92/5 68/94/5 62/93/5
f 68/94/5 69/1040/5 63/95/5
f 612/96/5 613/1061/5 70/97/5
f 70/97/5 71/100/5 65/99/5
f 71/100/5 72/25/5 66/22/5
f 11/91/5 61/90/5 55/101/5
f 61/90/5 62/93/5 56/103/5
f 62/93/5 63/95/5 57/104/5
f 612/96/5 64/98/5 58/105/5
f 64/98/5 65/99/5 59/107/5
f 65/99/5 66/22/5 60/24/5
f 12/102/5 55/101/5 49/108/5
f 55/110/5 56/1186/5 50/111/5
f 56/103/5 57/104/5 51/113/5
f 611/106/5 58/105/5 52/115/5
f 58/117/5 59/1187/5 53/118/5
f 59/107/5 60/24/5 54/16/5
f 13/121/5 49/112/5 27/122/5
f 49/108/5 50/114/5 28/124/5
f 50/114/5 51/113/5 29/126/5
f 610/116/5 52/115/5 30/127/5
f 52/115/5 53/120/5 31/129/5
f 53/118/5 54/21/5 32/130/5
f 6/5/5 42/144/5 79/64/5
f 42/133/5 41/1188/5 80/134/5
f 41/136/5 40/147/5 81/137/5
f 638/138/5 39/149/5 82/72/5
f 39/139/5 38/1189/5 83/74/5
f 38/141/5 37/154/5 84/30/5
f 7/143/3 314/145/3 42/144/3
f 314/145/3 315/146/3 41/136/3
f 315/146/3 318/1027/3 40/147/3
f 630/148/3 43/1190/3 39/149/3
f 43/150/3 320/1191/3 38/151/3
f 320/153/3 322/1192/3 37/154/3
f 2/155/1 324/158/1 32/156/1
f 324/158/1 323/160/1 31/159/1
f 323/160/1 33/1047/1 30/161/1
f 524/162/1 34/165/1 29/163/1
f 34/165/1 35/167/1 28/166/1
f 35/167/1 36/1/1 27/3/1
f 211/168/1 451/168/1 449/169/1
f 106/170/2 345/170/2 346/171/2
f 210/169/2 449/169/2 450/172/2
f 101/173/3 342/173/3 344/174/3
f 205/175/3 446/175/3 448/176/3
f 104/174/4 344/174/4 343/177/4
f 208/176/4 448/176/4 689/178/4
f 103/177/1 343/177/1 341/179/1
f 207/180/1 447/180/1 445/181/1
f 102/179/2 341/179/2 342/173/2
f 206/181/2 445/181/2 741/182/2
f 97/183/3 338/183/3 340/184/3
f 201/185/3 442/185/3 444/186/3
f 100/184/4 340/184/4 678/187/4
f 204/186/4 444/186/4 687/188/4
f 99/189/1 339/189/1 337/190/1
f 203/191/1 443/191/1 441/192/1
f 98/190/2 337/190/2 735/193/2
f 202/192/2 441/192/2 740/194/2
f 93/195/3 334/195/3 336/196/3
f 197/197/3 438/197/3 581/198/3
f 96/196/4 336/196/4 335/199/4
f 720/200/6 700/200/6 753/201/6
f 95/199/1 335/199/1 333/202/1
f 199/203/1 439/203/1 649/204/1
f 94/202/2 333/202/2 334/195/2
f 198/205/2 437/205/2 739/206/2
f 89/207/3 330/207/3 332/208/3
f 193/209/3 434/209/3 436/210/3
f 92/208/4 332/208/4 331/211/4
f 196/210/4 436/210/4 684/212/4
f 91/211/1 331/211/1 329/213/1
f 195/214/1 435/214/1 433/215/1
f 90/213/2 329/213/2 330/207/2
f 194/215/2 433/215/2 738/216/2
f 85/217/3 326/217/3 328/218/3
f 189/219/3 430/219/3 432/220/3
f 88/218/4 328/218/4 327/221/4
f 192/220/4 432/220/4 682/222/4
f 87/221/1 327/221/1 325/223/1
f 191/224/1 431/224/1 429/225/1
f 86/223/2 325/223/2 326/217/2
f 190/225/2 429/225/2 737/226/2
f 185/227/3 426/227/3 428/228/3
f 188/228/4 428/228/4 680/229/4
f 187/230/1 427/230/1 425/231/1
f 186/231/2 425/231/2 736/232/2
f 181/233/3 422/233/3 424/234/3
f 184/234/4 424/234/4 423/235/4
f 86/236/7 85/1193/7 48/237/7
f 86/239/7 324/1194/7 2/240/7
f 88/242/7 87/1195/7 2/243/7
f 85/245/7 88/1196/7 281/246/7
f 89/248/7 322/1197/7 321/249/7
f 90/251/7 321/619/7 23/252/7
f 91/254/7 23/1198/7 282/255/7
f 92/257/7 282/1199/7 322/258/7
f 93/260/7 321/1200/7 312/261/7
f 95/263/7 94/1201/7 312/264/7
f 95/266/7 24/1202/7 23/267/7
f 93/269/7 96/1203/7 23/270/7
f 97/272/7 312/1204/7 695/273/7
f 99/275/7 98/1205/7 308/276/7
f 99/278/7 25/1206/7 703/279/7
f 97/281/7 100/1207/7 24/282/7
f 102/284/7 101/1208/7 308/285/7
f 103/287/7 102/1209/7 284/288/7
f 104/290/7 103/1210/7 285/291/7
f 104/293/7 25/1211/7 308/294/7
f 105/296/7 284/286/7 283/297/7
f 107/299/7 106/1212/7 283/300/7
f 107/302/7 26/1213/7 285/291/7
f 105/304/7 108/1214/7 285/289/7
f 109/305/7 283/1215/7 48/306/7
f 110/308/7 48/744/7 281/309/7
f 111/311/7 281/1216/7 26/312/7
f 109/314/7 112/1217/7 26/315/7
f 113/317/7 294/386/7 14/318/7
f 114/320/7 14/1218/7 46/321/7
f 115/323/7 46/698/7 286/324/7
f 113/326/7 116/1219/7 286/327/7
f 117/329/7 286/1220/7 46/330/7
f 118/332/7 46/695/7 287/333/7
f 119/335/7 287/342/7 288/336/7
f 117/338/7 120/1221/7 288/339/7
f 121/341/7 288/336/7 287/342/7
f 123/344/7 122/1222/7 287/345/7
f 124/347/7 123/1223/7 47/348/7
f 121/350/7 124/1224/7 289/351/7
f 125/353/7 289/349/7 47/348/7
f 126/355/7 47/346/7 607/356/7
f 128/358/7 127/1225/7 290/359/7
f 128/361/7 291/424/7 635/362/7
f 129/364/7 291/1226/7 290/365/7
f 131/367/7 130/1227/7 290/368/7
f 132/370/7 131/1228/7 292/371/7
f 132/373/7 293/1229/7 291/374/7
f 133/376/7 293/372/7 292/371/7
f 135/378/7 134/1230/7 292/379/7
f 136/380/7 135/1231/7 48/237/7
f 136/381/7 283/300/7 293/382/7
f 138/384/7 137/1232/7 15/385/7
f 138/387/7 294/328/7 286/327/7
f 139/389/7 286/324/7 295/390/7
f 137/392/7 140/1233/7 295/393/7
f 142/395/7 141/1234/7 295/390/7
f 142/396/7 286/327/7 288/352/7
f 143/398/7 288/336/7 296/399/7
f 141/401/7 144/1235/7 296/402/7
f 145/403/7 296/399/7 288/336/7
f 146/405/7 288/352/7 289/351/7
f 147/407/7 289/349/7 297/408/7
f 148/410/7 297/458/7 296/402/7
f 150/412/7 149/1236/7 297/408/7
f 150/413/7 289/351/7 605/414/7
f 151/416/7 291/360/7 298/417/7
f 152/419/7 298/429/7 634/420/7
f 154/422/7 153/1237/7 298/417/7
f 155/423/7 154/1238/7 291/424/7
f 155/425/7 293/372/7 299/426/7
f 156/428/7 299/436/7 298/429/7
f 157/431/7 299/426/7 293/372/7
f 159/433/7 158/1239/7 293/382/7
f 160/434/7 159/1240/7 283/297/7
f 160/435/7 284/288/7 299/436/7
f 161/438/7 301/1138/7 15/385/7
f 162/440/7 15/394/7 295/393/7
f 163/442/7 295/390/7 44/443/7
f 161/445/7 164/1241/7 44/446/7
f 166/448/7 165/1242/7 44/443/7
f 167/449/7 166/1243/7 295/393/7
f 167/450/7 296/399/7 45/451/7
f 165/453/7 168/1244/7 45/454/7
f 169/455/7 45/451/7 296/399/7
f 170/457/7 296/402/7 297/458/7
f 171/460/7 297/408/7 304/461/7
f 172/463/7 304/521/7 45/454/7
f 173/465/7 304/461/7 297/408/7
f 174/467/7 297/458/7 603/468/7
f 175/470/7 298/417/7 300/471/7
f 176/473/7 300/485/7 633/474/7
f 177/476/7 300/471/7 298/417/7
f 178/478/7 298/429/7 299/436/7
f 179/480/7 299/426/7 307/481/7
f 177/483/7 180/1245/7 307/484/7
f 181/486/7 307/481/7 299/426/7
f 182/488/7 299/436/7 284/288/7
f 183/490/7 284/286/7 308/285/7
f 184/492/7 308/294/7 307/484/7
f 185/494/7 302/1246/7 662/495/7
f 186/497/7 301/447/7 44/446/7
f 187/499/7 44/443/7 742/500/7
f 185/502/7 188/1247/7 309/503/7
f 189/505/7 309/573/7 690/506/7
f 191/508/7 190/1248/7 44/509/7
f 191/511/7 45/1249/7 743/512/7
f 189/514/7 192/1250/7 303/515/7
f 193/517/7 303/583/7 691/518/7
f 195/520/7 194/1251/7 45/454/7
f 195/522/7 304/461/7 744/523/7
f 193/525/7 196/1252/7 305/526/7
f 197/528/7 305/592/7 692/529/7
f 198/531/7 304/521/7 601/532/7
f 199/534/7 300/471/7 745/535/7
f 200/537/7 306/605/7 632/538/7
f 201/540/7 306/1253/7 693/541/7
f 203/543/7 202/1254/7 300/544/7
f 203/546/7 307/1255/7 746/547/7
f 201/549/7 204/1256/7 311/550/7
f 205/552/7 311/1257/7 694/553/7
f 207/555/7 206/1258/7 307/484/7
f 207/556/7 308/285/7 747/557/7
f 205/559/7 208/1259/7 312/264/7
f 210/561/7 209/1260/7 16/562/7
f 210/564/7 302/1261/7 309/516/7
f 211/566/7 309/573/7 313/567/7
f 209/569/7 212/1262/7 313/570/7
f 213/572/7 313/567/7 309/573/7
f 215/575/7 214/1263/7 309/503/7
f 215/576/7 303/583/7 316/577/7
f 213/579/7 216/1264/7 316/580/7
f 217/582/7 316/577/7 303/583/7
f 219/585/7 218/1265/7 303/527/7
f 219/586/7 305/592/7 317/587/7
f 217/589/7 220/1266/7 317/590/7
f 222/591/7 221/1267/7 317/587/7
f 222/593/7 305/526/7 599/594/7
f 223/596/7 306/603/7 310/597/7
f 224/599/7 310/611/7 631/600/7
f 226/602/7 225/1268/7 310/597/7
f 227/604/7 226/1269/7 306/605/7
f 227/606/7 311/1257/7 319/607/7
f 225/609/7 228/1270/7 319/610/7
f 229/612/7 319/1271/7 311/613/7
f 231/615/7 230/1272/7 311/550/7
f 231/616/7 312/1204/7 321/249/7
f 229/618/7 232/1273/7 321/619/7
f 233/621/7 7/1274/7 16/622/7
f 234/624/7 16/1275/7 313/581/7
f 235/626/7 313/567/7 314/627/7
f 236/629/7 314/1276/7 7/630/7
f 237/632/7 314/1277/7 313/633/7
f 238/635/7 313/570/7 316/636/7
f 239/638/7 316/1278/7 315/639/7
f 240/641/7 315/1279/7 314/642/7
f 241/644/7 315/1280/7 316/577/7
f 242/646/7 316/580/7 317/590/7
f 243/648/7 317/587/7 318/649/7
f 244/651/7 318/987/7 315/652/7
f 245/654/7 318/649/7 317/587/7
f 246/656/7 317/590/7 597/657/7
f 247/659/7 310/597/7 43/660/7
f 248/662/7 43/1281/7 630/663/7
f 249/665/7 43/1282/7 310/666/7
f 250/668/7 310/1283/7 319/620/7
f 251/670/7 319/1271/7 320/671/7
f 252/673/7 320/1284/7 43/674/7
f 253/676/7 320/1285/7 319/607/7
f 254/678/7 319/610/7 321/271/7
f 255/680/7 321/1200/7 322/681/7
f 256/683/7 322/1286/7 320/684/7
f 257/686/7 14/1287/7 4/687/7
f 258/689/7 4/1288/7 36/690/7
f 259/692/7 36/1289/7 46/330/7
f 257/694/7 260/1290/7 46/695/7
f 262/697/7 261/1291/7 46/698/7
f 262/700/7 36/1292/7 35/701/7
f 263/703/7 35/707/7 287/342/7
f 261/705/7 264/1293/7 287/345/7
f 266/706/7 265/1294/7 287/342/7
f 266/708/7 35/701/7 34/709/7
f 267/711/7 34/716/7 47/348/7
f 268/713/7 47/346/7 287/345/7
f 270/715/7 269/1295/7 47/348/7
f 270/717/7 34/709/7 524/718/7
f 271/720/7 33/726/7 290/359/7
f 272/722/7 290/733/7 636/723/7
f 274/725/7 273/1296/7 290/359/7
f 274/727/7 33/1057/7 323/728/7
f 275/730/7 323/1297/7 292/371/7
f 276/732/7 292/379/7 290/733/7
f 278/735/7 277/1298/7 292/736/7
f 278/738/7 323/1299/7 324/739/7
f 279/741/7 324/1300/7 48/306/7
f 277/743/7 280/1301/7 48/744/7
f 326/217/7 325/223/7 327/221/7
f 329/745/7 331/1302/7 332/746/7
f 333/202/7 335/199/7 336/196/7
f 337/748/7 339/1303/7 716/749/7
f 341/179/7 343/177/7 344/174/7
f 345/170/7 347/865/7 348/751/7
f 349/752/7 351/1304/7 352/753/7
f 353/755/7 355/875/7 356/756/7
f 357/758/7 359/1305/7 360/759/7
f 361/761/7 363/887/7 364/762/7
f 548/764/1 576/764/1 413/765/1
f 369/766/7 371/1306/7 372/767/7
f 373/769/7 375/911/7 376/770/7
f 377/772/7 379/914/7 380/773/7
f 381/775/7 383/918/7 384/776/7
f 386/778/7 385/922/7 387/779/7
f 647/781/7 391/928/7 392/782/7
f 393/784/7 395/933/7 396/785/7
f 397/787/7 399/936/7 400/788/7
f 401/790/7 403/938/7 404/791/7
f 549/793/3 577/793/3 578/794/3
f 409/795/7 411/951/7 412/796/7
f 648/798/7 415/956/7 416/799/7
f 417/801/7 419/958/7 420/802/7
f 421/804/7 423/235/7 424/234/7
f 425/231/7 427/230/7 717/805/7
f 737/806/7 429/1307/7 431/807/7
f 433/215/7 435/214/7 719/809/7
f 750/201/7 649/204/7 439/203/7
f 740/810/7 441/1308/7 443/811/7
f 445/181/7 447/180/7 722/813/7
f 450/814/7 449/1309/7 451/815/7
f 453/817/7 455/871/7 456/818/7
f 457/820/7 459/874/7 460/821/7
f 650/823/7 463/880/7 464/824/7
f 465/826/7 467/886/7 468/827/7
f 550/794/3 578/794/3 625/800/3
f 473/829/7 475/905/7 476/830/7
f 477/832/7 479/1310/7 480/833/7
f 481/835/7 483/913/7 484/836/7
f 651/838/7 487/917/7 488/839/7
f 489/841/7 491/1311/7 492/842/7
f 493/844/7 495/927/7 496/845/7
f 498/847/7 497/1312/7 499/848/7
f 501/850/7 503/935/7 504/851/7
f 505/853/7 507/937/7 508/854/7
f 652/856/7 511/943/7 512/857/7
f 513/859/7 515/950/7 516/860/7
f 517/862/7 519/1313/7 520/863/7
f 107/865/1 347/865/1 345/170/1
f 212/866/4 452/866/4 451/867/4
f 108/751/4 348/751/4 347/865/4
f 209/172/3 450/172/3 452/868/3
f 105/171/3 346/171/3 348/751/3
f 214/817/2 453/817/2 454/819/2
f 110/869/2 349/869/2 350/870/2
f 215/871/1 455/871/1 453/817/1
f 111/872/1 351/872/1 349/869/1
f 216/818/4 456/818/4 455/871/4
f 112/873/4 352/873/4 351/872/4
f 213/819/3 454/819/3 456/818/3
f 109/870/3 350/870/3 352/873/3
f 218/820/2 457/820/2 458/822/2
f 114/755/2 353/755/2 354/757/2
f 219/874/1 459/874/1 457/820/1
f 115/875/1 355/875/1 353/755/1
f 220/821/4 460/821/4 459/874/4
f 116/756/4 356/756/4 355/875/4
f 217/822/3 458/822/3 460/821/3
f 113/757/3 354/757/3 356/756/3
f 222/876/2 461/876/2 462/877/2
f 118/878/2 357/878/2 358/879/2
f 223/880/1 463/880/1 650/823/1
f 119/881/1 359/881/1 357/878/1
f 224/824/4 464/824/4 463/880/4
f 120/882/4 360/882/4 359/883/4
f 221/877/3 462/877/3 585/884/3
f 117/879/3 358/879/3 360/885/3
f 226/826/2 465/826/2 466/828/2
f 122/761/2 361/761/2 362/763/2
f 227/886/1 467/886/1 465/826/1
f 123/887/1 363/887/1 361/761/1
f 228/827/4 468/827/4 467/886/4
f 124/762/4 364/762/4 363/887/4
f 225/828/3 466/828/3 468/827/3
f 121/763/3 362/763/3 364/762/3
f 568/888/7 567/1314/7 569/889/7
f 166/891/4 406/891/4 405/892/4
f 165/892/1 405/892/1 623/893/1
f 616/894/1 407/894/1 469/895/1
f 168/893/2 623/893/2 646/896/2
f 539/897/3 367/897/3 470/898/3
f 541/899/1 366/899/1 365/900/1
f 127/901/3 408/901/3 368/902/3
f 234/829/2 473/829/2 474/831/2
f 130/903/2 369/903/2 370/904/2
f 235/905/1 475/905/1 473/829/1
f 131/906/1 371/906/1 369/903/1
f 236/830/4 476/830/4 475/905/4
f 132/907/4 372/907/4 371/906/4
f 233/831/3 474/831/3 476/830/3
f 129/904/3 370/904/3 372/907/3
f 238/908/2 477/908/2 478/909/2
f 134/769/2 373/769/2 374/771/2
f 239/910/1 479/910/1 477/908/1
f 135/911/1 375/911/1 373/769/1
f 240/912/4 480/912/4 479/910/4
f 136/770/4 376/770/4 375/911/4
f 237/909/3 478/909/3 480/912/3
f 133/771/3 374/771/3 376/770/3
f 242/835/2 481/835/2 482/837/2
f 138/772/2 377/772/2 378/774/2
f 243/913/1 483/913/1 481/835/1
f 139/914/1 379/914/1 377/772/1
f 244/836/4 484/836/4 483/913/4
f 140/773/4 380/773/4 379/914/4
f 241/837/3 482/837/3 484/836/3
f 137/774/3 378/774/3 380/773/3
f 246/915/2 485/915/2 486/916/2
f 142/775/2 381/775/2 382/777/2
f 247/917/1 487/917/1 651/838/1
f 143/918/1 383/918/1 381/775/1
f 248/839/4 488/839/4 487/917/4
f 144/776/4 384/776/4 383/918/4
f 245/916/3 486/916/3 589/919/3
f 141/777/3 382/777/3 384/776/3
f 250/920/2 489/920/2 490/921/2
f 146/922/2 385/922/2 386/778/2
f 251/923/1 491/923/1 489/920/1
f 147/779/1 387/779/1 385/922/1
f 252/924/4 492/924/4 491/923/4
f 148/780/4 388/780/4 387/779/4
f 249/921/3 490/921/3 492/924/3
f 145/778/3 386/778/3 388/780/3
f 254/844/2 493/844/2 494/846/2
f 150/925/2 389/925/2 390/926/2
f 255/927/1 495/927/1 493/844/1
f 151/928/1 391/928/1 647/781/1
f 256/845/4 496/845/4 495/927/4
f 152/782/4 392/782/4 391/928/4
f 253/846/3 494/846/3 496/845/3
f 149/926/3 390/926/3 573/929/3
f 258/930/2 497/930/2 498/931/2
f 154/784/2 393/784/2 394/786/2
f 259/932/1 499/932/1 497/930/1
f 155/933/1 395/933/1 393/784/1
f 260/934/4 500/934/4 499/932/4
f 156/785/4 396/785/4 395/933/4
f 257/931/3 498/931/3 500/934/3
f 153/786/3 394/786/3 396/785/3
f 262/850/2 501/850/2 502/852/2
f 158/787/2 397/787/2 398/789/2
f 263/935/1 503/935/1 501/850/1
f 159/936/1 399/936/1 397/787/1
f 264/851/4 504/851/4 503/935/4
f 160/788/4 400/788/4 399/936/4
f 261/852/3 502/852/3 504/851/3
f 157/789/3 398/789/3 400/788/3
f 266/853/2 505/853/2 506/855/2
f 162/790/2 401/790/2 402/792/2
f 267/937/1 507/937/1 505/853/1
f 163/938/1 403/938/1 401/790/1
f 268/854/4 508/854/4 507/937/4
f 164/791/4 404/791/4 403/938/4
f 265/855/3 506/855/3 508/854/3
f 161/792/3 402/792/3 404/791/3
f 270/939/2 509/939/2 510/940/2
f 230/941/4 570/941/4 569/942/4
f 271/943/1 511/943/1 652/856/1
f 126/944/4 472/944/4 471/945/4
f 272/857/4 512/857/4 511/943/4
f 470/946/7 366/1158/7 471/947/7
f 269/940/3 510/940/3 593/949/3
f 646/896/7 623/893/7 405/892/7
f 274/859/2 513/859/2 514/861/2
f 170/795/2 409/795/2 410/797/2
f 275/950/1 515/950/1 513/859/1
f 171/951/1 411/951/1 409/795/1
f 276/860/4 516/860/4 515/950/4
f 172/796/4 412/796/4 411/951/4
f 273/861/3 514/861/3 516/860/3
f 169/797/3 410/797/3 412/796/3
f 278/952/2 517/952/2 518/953/2
f 174/765/2 413/765/2 414/954/2
f 279/955/1 519/955/1 517/952/1
f 175/956/1 415/956/1 648/798/1
f 280/957/4 520/957/4 519/955/4
f 176/799/4 416/799/4 415/956/4
f 277/953/3 518/953/3 520/957/3
f 173/954/3 414/954/3 577/793/3
f 178/801/2 417/801/2 418/803/2
f 179/958/1 419/958/1 417/801/1
f 180/802/4 420/802/4 419/958/4
f 177/803/3 418/803/3 420/802/3
f 182/804/2 421/804/2 422/233/2
f 183/235/1 423/235/1 421/804/1
f 547/959/1 575/959/1 576/764/1
f 566/960/3 594/960/3 629/858/3
f 565/949/3 593/949/3 594/960/3
f 564/961/1 592/961/1 509/939/1
f 563/962/1 591/962/1 592/961/1
f 546/963/3 574/963/3 624/783/3
f 545/929/3 573/929/3 574/963/3
f 544/964/1 572/964/1 389/925/1
f 543/965/1 571/965/1 572/964/1
f 562/966/3 590/966/3 628/840/3
f 561/919/3 589/919/3 590/966/3
f 560/967/1 588/967/1 485/915/1
f 559/968/1 587/968/1 588/967/1
f 232/969/2 567/969/2 568/970/2
f 128/895/2 469/895/2 408/901/2
f 542/900/1 365/900/1 407/894/1
f 639/902/3 368/902/3 367/897/3
f 558/971/3 586/971/3 627/825/3
f 557/884/3 585/884/3 586/971/3
f 556/972/1 584/972/1 461/876/1
f 555/973/1 583/973/1 584/972/1
f 509/939/7 592/961/7 593/949/7
f 592/961/7 591/962/7 594/960/7
f 485/915/7 588/967/7 589/919/7
f 588/967/7 587/968/7 590/966/7
f 461/876/7 584/972/7 585/884/7
f 584/972/7 583/973/7 586/971/7
f 739/206/7 437/205/7 580/974/7
f 748/975/7 580/974/7 579/976/7
f 413/765/7 576/764/7 577/793/7
f 576/764/7 575/959/7 578/794/7
f 389/925/7 572/964/7 573/929/7
f 572/964/7 571/965/7 574/963/7
f 269/978/7 565/980/7 607/356/7
f 566/979/7 608/1020/7 607/356/7
f 645/981/7 563/984/7 523/982/7
f 564/719/7 524/718/7 523/982/7
f 245/985/7 561/989/7 595/986/7
f 562/988/7 596/1058/7 595/986/7
f 644/990/7 559/992/7 598/991/7
f 560/658/7 597/657/7 598/991/7
f 221/993/7 557/995/7 597/657/7
f 558/994/7 598/991/7 597/657/7
f 643/996/7 555/998/7 600/997/7
f 556/595/7 599/594/7 600/997/7
f 197/999/7 553/1000/7 599/594/7
f 553/1000/7 554/1059/7 600/997/7
f 642/1001/7 551/1003/7 602/1002/7
f 552/533/7 601/532/7 602/1002/7
f 173/1004/7 549/1006/7 601/532/7
f 550/1005/7 602/1002/7 601/532/7
f 641/1007/7 547/1009/7 604/1008/7
f 548/469/7 603/468/7 604/1008/7
f 149/1010/7 545/1012/7 603/468/7
f 546/1011/7 604/1008/7 603/468/7
f 640/1013/7 543/1015/7 606/1014/7
f 544/415/7 605/414/7 606/1014/7
f 125/1016/7 541/1018/7 605/414/7
f 542/1017/7 606/1014/7 605/414/7
f 639/1019/7 539/1021/7 608/1020/7
f 540/357/7 607/356/7 608/1020/7
f 552/974/1 580/974/1 437/205/1
f 551/976/1 579/976/1 580/974/1
f 750/201/8 753/201/8 752/977/8
f 553/198/3 581/198/3 582/1022/3
f 637/1023/1 523/1026/1 522/1024/1
f 523/1026/1 524/162/1 521/164/1
f 318/1027/3 595/1029/3 526/1028/3
f 595/1029/3 596/1060/3 525/1030/3
f 40/147/5 526/1028/5 537/1031/5
f 526/1028/5 525/1030/5 538/1032/5
f 51/113/5 527/1034/5 521/1033/5
f 527/1034/5 528/1037/5 522/1035/5
f 57/104/5 529/1036/5 527/1034/5
f 529/1036/5 530/1039/5 528/1037/5
f 63/95/5 531/1038/5 529/1036/5
f 531/1038/5 532/1042/5 530/1039/5
f 69/1040/5 533/1041/5 531/1038/5
f 533/1041/5 534/1145/5 532/1042/5
f 75/68/5 535/1044/5 698/1043/5
f 535/1044/5 536/1046/5 699/1045/5
f 81/137/5 537/1031/5 535/1044/5
f 537/1031/5 538/1032/5 536/1046/5
f 33/1047/1 637/1023/1 609/1025/1
f 696/1048/9 626/1048/9 440/1049/9
f 127/1050/7 639/1019/7 636/723/7
f 151/1051/7 640/1013/7 635/362/7
f 175/1052/7 641/1007/7 634/420/7
f 199/1053/7 642/1001/7 633/474/7
f 223/1054/7 643/996/7 632/538/7
f 247/1055/7 644/990/7 631/600/7
f 271/1056/7 645/981/7 637/983/7
f 620/825/3 627/825/3 464/824/3
f 231/970/3 568/970/3 570/941/3
f 621/840/3 628/840/3 488/839/3
f 617/783/3 624/783/3 392/782/3
f 622/858/3 629/858/3 512/857/3
f 641/798/1 648/798/1 575/959/1
f 645/856/1 652/856/1 591/962/1
f 640/781/1 647/781/1 571/965/1
f 644/838/1 651/838/1 587/968/1
f 540/898/3 470/898/3 472/944/3
f 643/823/1 650/823/1 583/973/1
f 591/962/7 652/856/7 629/858/7
f 587/968/7 651/838/7 628/840/7
f 618/800/3 625/800/3 416/799/3
f 583/973/7 650/823/7 627/825/7
f 579/976/7 649/204/7 750/201/7
f 575/959/7 648/798/7 625/800/7
f 571/965/7 647/781/7 624/783/7
f 622/724/7 636/723/7 608/1020/7
f 621/664/7 630/663/7 596/1058/7
f 620/601/7 631/600/7 598/991/7
f 554/1059/7 619/539/7 632/538/7
f 618/475/7 633/474/7 602/1002/7
f 617/421/7 634/420/7 604/1008/7
f 616/363/7 635/362/7 606/1014/7
f 642/204/1 649/204/1 579/976/1
f 596/1060/3 630/148/3 638/138/3
f 525/1030/5 638/138/5 615/69/5
f 528/1037/5 610/116/5 609/128/5
f 530/1039/5 611/106/5 610/116/5
f 532/1042/5 612/96/5 611/106/5
f 532/1042/5 534/1145/5 613/1061/5
f 536/1046/5 614/71/5 701/84/5
f 538/1032/5 615/69/5 614/71/5
f 699/1045/5 701/84/5 725/1062/5
f 698/1043/5 699/1045/5 724/1063/5
f 658/82/5 698/1043/5 723/1064/5
f 581/198/7 696/1048/7 697/1049/7
f 685/1066/7 696/1048/7 581/198/7
f 688/1067/7 689/178/7 448/176/7
f 686/1068/7 687/1146/7 444/1069/7
f 683/1071/7 684/212/7 436/210/7
f 681/1072/7 682/1147/7 432/1073/7
f 679/1075/7 680/229/7 428/228/7
f 677/1076/7 678/1148/7 340/1077/7
f 208/1079/7 676/1149/7 695/1080/7
f 675/554/7 694/553/7 746/1081/7
f 204/1083/7 674/1150/7 694/1084/7
f 673/542/7 693/541/7 745/1085/7
f 200/1087/7 672/1151/7 693/1088/7
f 671/530/7 692/529/7 744/523/7
f 196/1090/7 670/1152/7 692/529/7
f 669/519/7 691/518/7 743/1091/7
f 192/1093/7 668/1153/7 691/1094/7
f 667/507/7 690/506/7 742/500/7
f 188/1097/7 666/1154/7 690/506/7
f 665/496/7 662/495/7 727/1098/7
f 100/1100/7 664/1155/7 655/1101/7
f 663/274/7 695/273/7 747/1103/7
f 665/1075/2 679/1075/2 426/227/2
f 666/229/4 680/229/4 717/805/4
f 667/1105/2 681/1105/2 430/219/2
f 668/222/4 682/222/4 718/1106/4
f 669/1071/2 683/1071/2 434/209/2
f 670/212/4 684/212/4 719/809/4
f 671/1066/2 685/1066/2 438/197/2
f 582/1022/10 697/1049/10 440/1049/10
f 673/1107/2 686/1107/2 442/185/2
f 663/1108/2 677/1108/2 338/183/2
f 674/188/4 687/188/4 721/1109/4
f 664/187/4 678/187/4 716/1110/4
f 675/1067/2 688/1067/2 446/175/2
f 676/178/4 689/178/4 722/813/4
f 660/88/5 661/87/5 709/1111/5
f 659/85/5 660/86/5 708/1113/5
f 701/84/5 659/83/5 707/1115/5
f 657/81/5 658/82/5 706/1065/5
f 656/80/5 657/79/5 705/1117/5
f 653/78/5 656/77/5 704/1119/5
f 727/1121/2 662/57/2 653/59/2
f 24/1123/4 655/1156/4 654/1124/4
f 661/29/5 654/28/5 726/1126/5
f 709/1127/5 726/1126/5 20/1128/5
f 301/1130/2 727/1121/2 702/1122/2
f 702/1120/5 704/1119/5 67/92/5
f 704/1118/5 705/1117/5 68/1131/5
f 705/1116/5 706/1065/5 69/1040/5
f 725/1062/5 707/1115/5 70/97/5
f 707/1114/5 708/1113/5 71/1133/5
f 708/1112/5 709/1111/5 72/25/5
f 715/813/4 722/813/4 447/180/4
f 710/1110/4 716/1110/4 339/189/4
f 714/1109/4 721/1109/4 443/191/4
f 700/200/4 720/200/4 439/203/4
f 713/809/4 719/809/4 435/214/4
f 712/1106/4 718/1106/4 431/224/4
f 711/805/4 717/805/4 427/230/4
f 98/1135/7 728/1104/7 747/1103/7
f 186/1137/7 729/1099/7 727/1098/7
f 190/1139/7 730/1096/7 742/500/7
f 194/1140/7 731/1092/7 743/1091/7
f 198/1141/7 732/1089/7 744/523/7
f 202/1142/7 733/1086/7 745/1085/7
f 206/1144/7 734/1082/7 746/1081/7
f 706/1065/5 723/1064/5 533/1041/5
f 723/1064/5 724/1063/5 534/1145/5
f 724/1063/5 725/1062/5 613/1061/5
f 748/975/11 751/975/11 626/1048/11
f 739/206/7 748/975/7 696/1048/7
f 741/182/7 722/813/7 689/178/7
f 740/810/7 721/812/7 687/1146/7
f 749/977/12 752/977/12 751/975/12
f 738/216/7 719/809/7 684/212/7
f 737/806/7 718/808/7 682/1147/7
f 736/232/7 717/805/7 680/229/7
f 735/750/7 716/749/7 678/1148/7
f 676/1149/7 715/558/7 747/557/7
f 674/1150/7 714/548/7 746/547/7
f 700/536/7 745/535/7 693/1088/7
f 670/1152/7 713/524/7 744/523/7
f 668/1153/7 712/513/7 743/512/7
f 666/1154/7 711/501/7 742/500/7
f 664/1155/7 710/280/7 703/279/7
f 729/232/2 736/232/2 679/1075/2
f 730/226/2 737/226/2 681/1105/2
f 731/216/2 738/216/2 683/1071/2
f 732/206/2 739/206/2 685/1066/2
f 733/194/2 740/194/2 686/1107/2
f 728/193/2 735/193/2 677/1108/2
f 734/182/2 741/182/2 688/1067/2
f 655/1156/4 703/38/4 726/40/4
f 229/942/1 569/942/1 567/969/1
f 125/945/1 471/945/1 366/899/1
f 167/896/3 646/896/3 406/891/3
f 470/946/7 367/1159/7 365/1157/7
f 367/1159/7 368/1161/7 407/1160/7
f 368/1161/7 408/1315/7 469/1162/7
f 200/1163/16 619/1316/16 754/1164/16
f 754/1164/17 753/1170/17 700/1166/17
f 440/1167/7 626/1317/7 751/1168/7
f 754/1164/18 440/1167/18 752/1169/18
f 754/1164/16 619/1316/16 554/1171/16
