# Blender 4.2.1 LTS
# www.blender.org
mtllib freezer_2.mtl
g glassA_freezer_2_Mesh
v -0.483682 1.018557 0.179554
v -0.483682 1.015040 0.276855
v -0.315281 0.868828 -0.074162
v -0.483682 0.606705 -0.268633
v -0.483682 0.408647 -0.361186
v 0.117825 1.018557 0.179554
v 0.117825 0.698979 -0.225492
v 0.117825 0.868828 -0.074162
v 0.117825 1.015040 0.276855
v -0.483682 1.020443 0.277050
v -0.483682 1.023798 0.178224
v -0.273572 1.023798 0.178224
v -0.483682 0.609680 -0.273148
v -0.483682 0.410936 -0.366085
v 0.117825 1.023798 0.178224
v 0.117825 0.701954 -0.230008
v 0.117825 0.873005 -0.077596
v 0.117825 1.020443 0.277050
v -0.339206 1.018557 0.179554
v -0.335127 0.698979 -0.225492
v -0.409094 0.897331 -0.026103
v -0.339206 0.408647 -0.361186
v -0.339205 1.015040 0.276855
v -0.339206 1.023798 0.178224
v -0.311921 0.701954 -0.230007
v -0.339206 0.901508 -0.029536
v -0.339206 0.410936 -0.366085
v -0.339205 1.020443 0.277050
v -0.483682 0.970011 0.097531
v 0.117825 0.943693 0.052696
v -0.483682 0.974720 0.095149
v 0.117825 0.948401 0.050314
v -0.406746 0.948401 0.050314
v -0.406746 0.943693 0.052696
v -0.220792 0.698979 -0.225492
v 0.117825 0.751180 -0.178983
v -0.273572 1.015040 0.276855
v 0.117825 0.754524 -0.183166
v -0.398695 0.754524 -0.183166
v -0.421901 0.751180 -0.178983
v -0.339206 0.774844 -0.157988
v -0.273572 1.018557 0.179554
v 0.117825 0.810004 -0.126573
v -0.273572 0.408647 -0.361186
v 0.117825 0.813764 -0.130381
v -0.362412 0.778604 -0.161796
v -0.220792 0.701954 -0.230007
v -0.245393 0.873005 -0.077596
v -0.273572 0.410936 -0.366085
v -0.273572 1.020443 0.277050
v -0.273572 0.948401 0.050314
v -0.273572 0.943693 0.052696
v -0.273572 0.754524 -0.183166
v -0.273572 0.751180 -0.178983
v -0.273572 0.813764 -0.130381
v -0.273572 0.810004 -0.126573
v -0.483682 0.445779 -0.343834
v -0.483682 0.448197 -0.348660
v -0.334090 0.465497 -0.340573
v -0.338441 0.463079 -0.335746
v -0.263677 0.465497 -0.340573
v -0.263677 0.463079 -0.335746
v -0.338117 0.486127 -0.324974
v -0.259487 0.486127 -0.324974
v -0.483682 0.461502 -0.336487
v 0.117825 0.590025 -0.276620
v -0.483682 0.463974 -0.341283
v 0.117825 0.592497 -0.281416
v -0.331924 0.488599 -0.329770
v -0.259487 0.488599 -0.329770
v 0.071592 1.018557 0.179554
v 0.077826 0.698979 -0.225492
v 0.066665 0.868828 -0.074162
v 0.071592 1.015040 0.276855
v 0.071592 0.810004 -0.126573
v 0.071592 1.023798 0.178224
v 0.077826 0.701954 -0.230008
v 0.074920 0.873005 -0.077596
v 0.071592 1.020443 0.277050
v 0.071592 0.751180 -0.178983
v 0.071592 0.948401 0.050314
v 0.071592 0.943693 0.052696
v 0.071592 0.754524 -0.183166
v 0.071592 0.813764 -0.130381
v 0.073256 0.660265 -0.249600
v 0.073256 0.657793 -0.244804
v 0.005835 0.810004 -0.126573
v 0.005835 0.751180 -0.178983
v 0.005835 0.943693 0.052696
v -0.016349 0.463079 -0.335746
v 0.035780 0.537689 -0.300766
v 0.005836 1.018557 0.179554
v 0.020937 0.698979 -0.225492
v -0.006099 0.868828 -0.074162
v 0.054419 0.408647 -0.361187
v 0.005836 1.015040 0.276855
v 0.005836 1.023798 0.178224
v 0.020937 0.701954 -0.230008
v 0.013898 0.873005 -0.077596
v 0.054419 0.410936 -0.366085
v 0.005836 1.020443 0.277050
v 0.005835 0.948401 0.050314
v 0.005835 0.754524 -0.183166
v 0.005835 0.813764 -0.130381
v -0.016349 0.465497 -0.340573
v 0.035780 0.540161 -0.305562
vn -0.0000 -0.9993 -0.0361
vn -0.0000 -0.6652 0.7466
vn -0.0000 -0.4245 0.9054
vn -0.0000 -0.8612 0.5082
vn -0.0000 0.9994 0.0339
vn -0.0000 0.6653 -0.7466
vn 0.0002 0.4251 -0.9051
vn -0.0000 0.8615 -0.5078
vn -1.0000 -0.0000 -0.0000
vn 1.0000 -0.0000 -0.0000
vn -0.0000 -0.9059 -0.4234
vn -0.0000 -0.0361 0.9993
vn -0.0000 -0.0362 0.9993
vn -0.0009 0.8617 -0.5074
vn -0.0000 0.4236 -0.9059
vn -0.8074 -0.2663 -0.5265
vn -0.0000 -0.8606 0.5093
vn -0.0000 -0.4234 0.9060
vn -0.0000 0.6638 -0.7480
vn -0.0000 -0.6637 0.7480
vn 0.0018 0.8616 -0.5075
vn -0.0000 -0.8619 0.5071
vn -0.0000 -0.4234 0.9059
vn -0.5591 -0.3742 -0.7398
vn -0.0771 0.7842 -0.6156
vn -0.0765 0.6833 -0.7261
vn -0.1893 -0.1928 0.9628
vn -0.2193 0.4201 -0.8806
vn -0.5614 0.6910 0.4552
vn -0.2032 -0.3150 0.9271
vn -0.0000 0.4236 -0.9058
vn -0.0000 -0.4233 0.9060
vn -0.8591 -0.4549 -0.2345
vn 0.9622 -0.2421 -0.1248
vn 0.8451 -0.4752 -0.2449
vn -0.0023 0.4229 -0.9062
vn 0.0017 -0.4228 0.9062
vn -0.0003 -0.4234 0.9060
vn 0.0003 0.4235 -0.9059
vn 0.6480 0.6810 0.3411
vn 0.0003 -0.4248 0.9053
vn -0.0000 0.4253 -0.9050
vn -0.0000 0.8610 -0.5086
vn -0.0762 0.8604 -0.5039
vn 0.0012 -0.8615 0.5078
vn -0.0001 -0.4234 0.9059
vn 0.0007 0.6653 -0.7466
vn -0.0010 -0.6652 0.7466
vn -0.0000 0.8623 -0.5064
vn -0.0011 -0.8611 0.5085
vn -0.8835 -0.3333 -0.3291
vn -0.2151 0.8093 -0.5466
vn -0.2247 0.4147 -0.8818
vn -0.2204 0.7187 -0.6595
vn -0.5830 0.5781 0.5709
vn 0.8450 -0.4781 -0.2395
vn -0.0000 -0.4229 0.9062
vn -0.0000 0.4231 -0.9061
vn 0.0001 0.4245 -0.9054
vn -0.0001 -0.4244 0.9055
vn 0.6472 0.6906 0.3228
vt 0.511029 0.983519
vt 0.515615 0.982913
vt 0.511029 0.982913
vt 0.508503 0.982913
vt 0.509153 0.983519
vt 0.509153 0.982913
vt 0.504852 0.982913
vt 0.507276 0.983519
vt 0.507276 0.982913
vt 0.510091 0.983519
vt 0.510091 0.982913
vt 0.508503 0.983519
vt 0.504852 0.983519
vt 0.507276 0.975639
vt 0.504852 0.975639
vt 0.507853 0.983519
vt 0.511029 0.975639
vt 0.515615 0.975639
vt 0.503969 0.975639
vt 0.503969 0.977532
vt 0.515615 0.977532
vt 0.511029 0.978392
vt 0.511029 0.977532
vt 0.515615 0.983519
vt 0.510091 0.975639
vt 0.503969 0.978392
vt 0.510091 0.977532
vt 0.504852 0.977532
vt 0.509153 0.977532
vt 0.507276 0.977532
vt 0.507853 0.978392
vt 0.507276 0.978392
vt 0.507853 0.977532
vt 0.504852 0.978392
vt 0.510091 0.978392
vt 0.508503 0.977532
vt 0.515615 0.978392
vt 0.503969 0.982052
vt 0.507853 0.982913
vt 0.508503 0.977532
vt 0.509153 0.978392
vt 0.508503 0.978392
vt 0.504589 0.977532
vt 0.504589 0.975639
vt 0.504589 0.975639
vt 0.504589 0.978392
vt 0.504589 0.978392
vt 0.504852 0.982052
vt 0.508503 0.982052
vt 0.507853 0.982052
vt 0.507276 0.982052
vt 0.504589 0.982052
vt 0.510091 0.982052
vt 0.509153 0.982052
vt 0.515615 0.982052
vt 0.511029 0.982052
s 0
usemtl Material
f 6/1/1 74/2/1 71/3/1
f 75/4/2 8/5/2 73/6/2
f 86/7/3 7/8/3 72/9/3
f 30/10/4 71/3/4 82/11/4
f 79/2/5 15/1/5 76/3/5
f 78/6/6 45/12/6 84/4/6
f 85/7/7 16/8/7 68/13/7
f 76/3/8 32/10/8 81/11/8
f 4/14/9 67/15/9 65/15/9
f 7/8/10 38/16/10 36/16/10
f 1/17/9 10/18/9 11/17/9
f 5/19/11 27/20/11 22/20/11
f 28/21/5 12/22/5 24/23/5
f 9/24/12 79/2/12 74/2/12
f 8/5/10 32/10/10 30/10/10
f 1/17/9 31/25/9 29/25/9
f 6/1/10 18/24/10 9/24/10
f 23/21/13 10/18/13 2/18/13
f 22/20/11 49/26/11 44/26/11
f 31/25/14 24/23/14 33/27/14
f 13/14/15 69/28/15 67/15/15
f 26/29/16 34/27/16 33/27/16
f 10/18/5 24/23/5 11/17/5
f 29/25/17 19/23/17 1/17/17
f 63/28/18 4/14/18 65/15/18
f 25/30/6 53/31/6 47/32/6
f 19/23/1 2/18/1 1/17/1
f 20/30/2 54/31/2 40/33/2
f 25/30/15 70/34/15 69/28/15
f 24/23/8 51/35/8 33/27/8
f 6/1/10 32/10/10 15/1/10
f 78/6/8 32/10/8 17/5/8
f 8/5/4 82/11/4 73/6/4
f 46/36/19 53/31/19 39/33/19
f 37/37/13 28/21/13 23/21/13
f 44/26/11 100/38/11 95/38/11
f 36/16/10 45/12/10 43/12/10
f 77/9/6 38/16/6 16/8/6
f 72/9/2 36/16/2 80/39/2
f 8/5/10 45/12/10 17/5/10
f 54/31/20 41/40/20 40/33/20
f 26/29/21 51/35/21 48/41/21
f 21/29/22 52/35/22 34/27/22
f 84/4/6 38/16/6 83/39/6
f 36/16/2 75/4/2 80/39/2
f 52/35/4 19/23/4 34/27/4
f 64/34/23 20/30/23 63/28/23
f 29/25/24 33/27/24 34/27/24
f 42/22/1 23/21/1 19/23/1
f 26/29/25 3/41/25 21/29/25
f 55/42/26 3/41/26 48/41/26
f 46/36/27 40/33/27 41/40/27
f 39/33/28 20/30/28 40/33/28
f 20/30/29 13/14/29 4/14/29
f 41/40/30 55/42/30 46/36/30
f 44/26/23 60/43/23 22/20/23
f 59/43/15 49/26/15 27/20/15
f 22/20/18 57/44/18 5/19/18
f 58/45/31 27/20/31 14/19/31
f 57/44/9 14/19/9 5/19/9
f 7/8/10 68/13/10 16/8/10
f 62/46/23 63/28/23 60/43/23
f 69/28/15 61/47/15 59/43/15
f 60/43/32 65/15/32 57/44/32
f 67/15/15 59/43/15 58/45/15
f 65/15/9 58/45/9 57/44/9
f 86/7/33 68/13/33 66/13/33
f 106/48/34 86/7/34 91/48/34
f 80/39/2 87/49/2 88/50/2
f 103/50/6 84/4/6 83/39/6
f 93/51/2 80/39/2 88/50/2
f 98/51/6 83/39/6 77/9/6
f 91/48/35 105/52/35 106/48/35
f 73/6/4 89/53/4 94/54/4
f 99/54/8 81/11/8 78/6/8
f 74/2/13 101/55/13 96/55/13
f 97/56/8 81/11/8 102/53/8
f 98/51/36 85/7/36 106/48/36
f 99/54/6 84/4/6 104/49/6
f 97/56/5 79/2/5 76/3/5
f 82/11/4 92/56/4 89/53/4
f 86/7/37 93/51/37 91/48/37
f 87/49/2 73/6/2 94/54/2
f 71/3/1 96/55/1 92/56/1
f 92/56/1 37/37/1 42/22/1
f 56/42/2 94/54/2 3/41/2
f 91/48/38 35/32/38 64/34/38
f 89/53/4 42/22/4 52/35/4
f 50/37/5 97/56/5 12/22/5
f 48/41/6 104/49/6 55/42/6
f 47/32/39 106/48/39 70/34/39
f 51/35/8 97/56/8 102/53/8
f 96/55/13 50/37/13 37/37/13
f 48/41/8 102/53/8 99/54/8
f 94/54/4 52/35/4 3/41/4
f 47/32/6 103/50/6 98/51/6
f 35/32/2 88/50/2 54/31/2
f 53/31/6 104/49/6 103/50/6
f 54/31/2 87/49/2 56/42/2
f 49/26/15 105/52/15 100/38/15
f 44/26/23 90/52/23 62/46/23
f 70/34/15 105/52/15 61/47/15
f 90/52/23 64/34/23 62/46/23
f 90/52/40 100/38/40 105/52/40
f 6/1/1 9/24/1 74/2/1
f 75/4/2 43/12/2 8/5/2
f 86/7/41 66/13/41 7/8/41
f 30/10/4 6/1/4 71/3/4
f 79/2/5 18/24/5 15/1/5
f 78/6/6 17/5/6 45/12/6
f 85/7/42 77/9/42 16/8/42
f 76/3/8 15/1/8 32/10/8
f 4/14/9 13/14/9 67/15/9
f 7/8/10 16/8/10 38/16/10
f 1/17/9 2/18/9 10/18/9
f 5/19/11 14/19/11 27/20/11
f 28/21/5 50/37/5 12/22/5
f 9/24/12 18/24/12 79/2/12
f 8/5/10 17/5/10 32/10/10
f 1/17/9 11/17/9 31/25/9
f 6/1/10 15/1/10 18/24/10
f 23/21/13 28/21/13 10/18/13
f 22/20/11 27/20/11 49/26/11
f 31/25/43 11/17/43 24/23/43
f 13/14/15 25/30/15 69/28/15
f 26/29/44 21/29/44 34/27/44
f 10/18/5 28/21/5 24/23/5
f 29/25/45 34/27/45 19/23/45
f 63/28/46 20/30/46 4/14/46
f 25/30/6 39/33/6 53/31/6
f 19/23/1 23/21/1 2/18/1
f 20/30/2 35/32/2 54/31/2
f 25/30/15 47/32/15 70/34/15
f 24/23/8 12/22/8 51/35/8
f 6/1/10 30/10/10 32/10/10
f 78/6/8 81/11/8 32/10/8
f 8/5/4 30/10/4 82/11/4
f 46/36/47 55/42/47 53/31/47
f 37/37/13 50/37/13 28/21/13
f 44/26/11 49/26/11 100/38/11
f 36/16/10 38/16/10 45/12/10
f 77/9/6 83/39/6 38/16/6
f 72/9/2 7/8/2 36/16/2
f 8/5/10 43/12/10 45/12/10
f 54/31/48 56/42/48 41/40/48
f 26/29/49 33/27/49 51/35/49
f 21/29/50 3/41/50 52/35/50
f 84/4/6 45/12/6 38/16/6
f 36/16/2 43/12/2 75/4/2
f 52/35/4 42/22/4 19/23/4
f 64/34/23 35/32/23 20/30/23
f 29/25/24 31/25/24 33/27/24
f 42/22/1 37/37/1 23/21/1
f 26/29/25 48/41/25 3/41/25
f 55/42/51 56/42/51 3/41/51
f 46/36/52 39/33/52 40/33/52
f 39/33/53 25/30/53 20/30/53
f 20/30/54 25/30/54 13/14/54
f 41/40/55 56/42/55 55/42/55
f 44/26/23 62/46/23 60/43/23
f 59/43/15 61/47/15 49/26/15
f 22/20/23 60/43/23 57/44/23
f 58/45/15 59/43/15 27/20/15
f 57/44/9 58/45/9 14/19/9
f 7/8/10 66/13/10 68/13/10
f 62/46/23 64/34/23 63/28/23
f 69/28/15 70/34/15 61/47/15
f 60/43/23 63/28/23 65/15/23
f 67/15/15 69/28/15 59/43/15
f 65/15/9 67/15/9 58/45/9
f 86/7/33 85/7/33 68/13/33
f 106/48/34 85/7/34 86/7/34
f 80/39/2 75/4/2 87/49/2
f 103/50/6 104/49/6 84/4/6
f 93/51/2 72/9/2 80/39/2
f 98/51/6 103/50/6 83/39/6
f 91/48/56 90/52/56 105/52/56
f 73/6/4 82/11/4 89/53/4
f 99/54/8 102/53/8 81/11/8
f 74/2/12 79/2/12 101/55/12
f 97/56/8 76/3/8 81/11/8
f 98/51/42 77/9/42 85/7/42
f 99/54/6 78/6/6 84/4/6
f 97/56/5 101/55/5 79/2/5
f 82/11/4 71/3/4 92/56/4
f 86/7/3 72/9/3 93/51/3
f 87/49/2 75/4/2 73/6/2
f 71/3/1 74/2/1 96/55/1
f 92/56/1 96/55/1 37/37/1
f 56/42/2 87/49/2 94/54/2
f 91/48/57 93/51/57 35/32/57
f 89/53/4 92/56/4 42/22/4
f 50/37/5 101/55/5 97/56/5
f 48/41/6 99/54/6 104/49/6
f 47/32/58 98/51/58 106/48/58
f 51/35/8 12/22/8 97/56/8
f 96/55/13 101/55/13 50/37/13
f 48/41/8 51/35/8 102/53/8
f 94/54/4 89/53/4 52/35/4
f 47/32/6 53/31/6 103/50/6
f 35/32/2 93/51/2 88/50/2
f 53/31/6 55/42/6 104/49/6
f 54/31/2 88/50/2 87/49/2
f 49/26/15 61/47/15 105/52/15
f 44/26/23 95/38/23 90/52/23
f 70/34/59 106/48/59 105/52/59
f 90/52/60 91/48/60 64/34/60
f 90/52/61 95/38/61 100/38/61
g glassb_freezer_2_Mesh
v 0.502139 1.015925 0.181245
v 0.502139 1.012408 0.278546
v 0.502139 0.866196 -0.072471
v 0.502139 0.696347 -0.223801
v 0.502139 0.406015 -0.359495
v -0.099368 1.015925 0.181246
v -0.099368 0.696347 -0.223800
v -0.099368 0.866196 -0.072470
v -0.099368 0.406015 -0.359495
v -0.099368 1.012408 0.278546
v -0.099368 1.010761 0.182556
v 0.502139 1.010761 0.182556
v 0.502139 1.007084 0.278353
v 0.502139 0.862081 -0.069088
v 0.502139 0.693417 -0.219352
v -0.099368 0.693417 -0.219351
v -0.099368 0.862081 -0.069087
v 0.502139 0.403759 -0.354669
v -0.099368 0.403759 -0.354668
v -0.099368 1.007084 0.278354
vn -0.0000 0.8612 -0.5082
vn -0.0000 0.4234 -0.9059
vn -0.0000 0.6652 -0.7466
vn -0.0000 0.9993 0.0361
vn -0.0000 -0.8610 0.5087
vn -0.0000 -0.4233 0.9060
vn -0.0000 -0.6652 0.7467
vn -0.0000 -0.9993 -0.0384
vn -1.0000 -0.0000 -0.0000
vn -0.0000 -0.9059 -0.4234
vn 1.0000 -0.0000 -0.0000
vn -0.0000 -0.0362 0.9993
vt 0.511417 0.989720
vt 0.509540 0.997599
vt 0.509540 0.989720
vt 0.504357 0.989720
vt 0.507664 0.997599
vt 0.504357 0.997599
vt 0.507664 0.989720
vt 0.516003 0.997599
vt 0.511417 0.997599
vt 0.516003 0.989720
s 0
usemtl Material
f 112/57/62 109/58/62 114/59/62
f 115/60/63 110/61/63 111/62/63
f 114/59/64 110/61/64 113/63/64
f 112/57/65 108/64/65 107/65/65
f 123/59/66 118/65/66 117/57/66
f 125/60/67 121/61/67 122/63/67
f 121/61/68 123/59/68 122/63/68
f 118/65/69 126/66/69 117/57/69
f 113/63/70 123/59/70 114/59/70
f 124/62/71 115/60/71 111/62/71
f 118/65/72 109/58/72 107/65/72
f 115/60/70 122/63/70 113/63/70
f 108/64/72 118/65/72 107/65/72
f 126/66/73 108/64/73 116/66/73
f 114/59/70 117/57/70 112/57/70
f 120/58/72 110/61/72 109/58/72
f 117/57/70 116/66/70 112/57/70
f 121/61/72 111/62/72 110/61/72
f 112/57/62 107/65/62 109/58/62
f 115/60/63 113/63/63 110/61/63
f 114/59/64 109/58/64 110/61/64
f 112/57/65 116/66/65 108/64/65
f 123/59/66 120/58/66 118/65/66
f 125/60/67 124/62/67 121/61/67
f 121/61/68 120/58/68 123/59/68
f 118/65/69 119/64/69 126/66/69
f 113/63/70 122/63/70 123/59/70
f 124/62/71 125/60/71 115/60/71
f 118/65/72 120/58/72 109/58/72
f 115/60/70 125/60/70 122/63/70
f 108/64/72 119/64/72 118/65/72
f 126/66/73 119/64/73 108/64/73
f 114/59/70 123/59/70 117/57/70
f 120/58/72 121/61/72 110/61/72
f 117/57/70 126/66/70 116/66/70
f 121/61/72 124/62/72 111/62/72
g freezer_2_Mesh
v -0.601533 0.617451 0.280228
v 0.601481 0.623953 0.280227
v 0.601480 0.646471 -0.231058
v 0.601481 0.652973 0.280227
v -0.601534 0.626523 -0.231057
v -0.601533 0.667247 0.280228
v -0.601534 0.597503 -0.241912
v 0.601480 0.617451 -0.241913
v -0.360930 0.667247 0.280227
v -0.120327 0.667247 0.280227
v 0.120275 0.646471 0.280227
v 0.360878 0.646471 0.280227
v -0.360931 0.646471 -0.231057
v -0.120328 0.646471 -0.231057
v 0.120275 0.646471 -0.231057
v 0.360878 0.652973 -0.231058
v -0.360931 0.617451 -0.241913
v -0.120328 0.617451 -0.241913
v 0.120275 0.617451 -0.241913
v 0.360878 0.623953 -0.241913
v -0.360930 0.617451 0.280227
v -0.120327 0.617451 0.280227
v 0.120275 0.638227 0.280227
v 0.360878 0.617451 0.280227
v 0.601481 0.652973 0.152406
v 0.601481 0.646471 0.024585
v 0.601481 0.646471 -0.103237
v -0.601533 0.617451 0.149693
v -0.601533 0.617451 0.019157
v -0.601533 0.617451 -0.111378
v 0.601481 0.623953 0.149692
v 0.601481 0.617451 0.019156
v 0.601480 0.617451 -0.111378
v -0.601533 0.646471 0.152406
v -0.601533 0.646471 0.024585
v -0.601533 0.646471 -0.103236
v -0.360931 0.617451 -0.111378
v -0.360931 0.638227 0.019157
v -0.360930 0.617451 0.149693
v -0.120328 0.597503 -0.111378
v -0.120328 0.597503 0.019157
v -0.120328 0.617451 0.149692
v 0.120275 0.597503 -0.111378
v 0.120275 0.597503 0.019157
v 0.120275 0.617451 0.149692
v 0.360878 0.623953 -0.111378
v 0.360878 0.617451 0.019157
v 0.360878 0.617451 0.149692
v -0.360930 0.646471 0.152406
v -0.360931 0.646471 0.024585
v -0.360931 0.646471 -0.103236
v -0.120328 0.646471 0.152406
v -0.120328 0.626523 0.024585
v -0.120328 0.626523 -0.103236
v 0.120275 0.646471 0.152406
v 0.120275 0.626523 0.024585
v 0.120275 0.646471 -0.103236
v 0.360878 0.646471 0.152406
v 0.360878 0.646471 0.024585
v 0.360878 0.646471 -0.103236
v 0.617285 0.331798 0.266648
v 0.648577 0.990472 0.270737
v -0.617190 0.331798 0.266649
v -0.648482 0.990472 0.270738
v 0.617285 0.331798 -0.266649
v 0.648577 1.004945 0.191647
v -0.617190 0.331798 -0.266648
v -0.648482 1.004945 0.191648
v -0.627679 0.331798 0.288398
v 0.627772 0.331798 0.288397
v -0.627679 0.331798 -0.372820
v 0.627772 0.331798 -0.372821
v -0.617190 0.000000 0.266649
v 0.617285 0.000000 0.266648
v -0.617190 0.000000 -0.266648
v 0.617285 0.000000 -0.266649
v 0.648577 0.472653 0.268741
v -0.648482 0.472653 0.268742
v -0.648483 0.401103 -0.352869
v 0.648577 0.401103 -0.352870
v -0.648209 0.331798 0.307942
v 0.648303 0.331798 0.307942
v -0.669693 0.429689 0.337789
v -0.648210 0.331798 -0.392365
v -0.669693 0.355483 -0.422212
v 0.660526 0.339947 -0.386539
v 0.682011 0.363632 -0.416385
v 0.669788 0.429689 0.337789
v -0.563325 0.331798 0.288398
v 0.563276 0.331798 0.288397
v 0.601481 1.034317 0.319073
v -0.601533 1.034317 0.319074
v 0.562339 0.321337 -0.362702
v -0.563326 0.331798 -0.372820
v -0.601535 1.037414 0.196786
v 0.601483 1.037414 0.196785
v -0.500699 0.331798 0.266649
v 0.500700 0.331798 0.266648
v 0.500699 0.331798 -0.266649
v -0.500700 0.331798 -0.266648
v -0.500699 0.000000 0.266649
v 0.500700 0.000000 0.266648
v 0.500699 0.000000 -0.266649
v -0.500700 0.000000 -0.266648
v -0.581996 0.375052 -0.401001
v 0.594167 0.383202 -0.395174
v 0.599934 0.457467 0.316577
v -0.599986 0.457467 0.316578
v -0.581755 0.331798 0.307942
v 0.581693 0.331798 0.307942
v 0.593916 0.339947 -0.386539
v -0.581755 0.331798 -0.392365
v -0.601036 0.355483 -0.422212
v 0.613194 0.363632 -0.416385
v 0.619550 0.429689 0.337789
v -0.619615 0.429689 0.337789
v 0.648577 0.457467 0.316577
v 0.648577 1.034317 0.319073
v -0.648482 1.034317 0.319074
v -0.648482 1.039807 0.175090
v 0.648577 1.039807 0.175089
v -0.648482 0.457467 0.316578
v -0.648483 0.375052 -0.401001
v 0.660800 0.383202 -0.395174
v 0.648577 0.751132 0.316577
v -0.648482 0.751132 0.316578
v -0.619125 0.724883 -0.231056
v 0.648577 0.709925 -0.244390
v -0.580186 0.724883 -0.231056
v 0.613569 0.700662 -0.227537
v 0.599934 0.751132 0.316577
v -0.599986 0.751132 0.316578
v 0.648577 0.731563 0.269739
v -0.648482 0.731563 0.269740
v -0.638997 0.704272 -0.207801
v 0.648577 0.704272 -0.207802
v 0.648577 0.897965 0.316577
v 0.648577 0.861018 0.270238
v -0.667433 0.897965 0.316578
v -0.619125 0.870308 -0.101441
v 0.648577 0.885266 -0.088110
v -0.580186 0.870308 -0.101441
v 0.601481 0.885266 -0.088110
v 0.599934 0.897965 0.316577
v -0.618937 0.897965 0.316578
v -0.667433 0.861018 0.270238
v -0.638997 0.891250 -0.035894
v 0.648577 0.891250 -0.035895
v 0.624889 0.861018 0.270238
v 0.624889 0.990472 0.270737
v -0.624794 0.990472 0.270738
v -0.624794 1.004945 0.191648
v 0.624889 1.004945 0.191647
v -0.624794 0.731563 0.269740
v -0.624794 0.472653 0.268741
v -0.624794 0.704272 -0.207801
v -0.624794 0.401103 -0.352869
v 0.624889 0.704272 -0.207802
v 0.624889 0.401103 -0.352870
v 0.624889 0.472653 0.268741
v 0.624889 0.731563 0.269739
v -0.643745 0.861018 0.270238
v -0.624794 0.891250 -0.035894
v 0.624889 0.891250 -0.035895
v -0.648482 0.492415 0.316578
v -0.648483 0.414905 -0.382363
v 0.660800 0.423054 -0.376536
v -0.601534 0.409215 -0.381828
v 0.619907 0.409469 -0.376458
v 0.599934 0.492415 0.316577
v -0.599986 0.492415 0.316578
v -0.648482 0.503465 0.268860
v -0.648483 0.437182 -0.335605
v 0.648577 0.437182 -0.335606
v 0.648577 0.492415 0.316577
v 0.648577 0.503465 0.268859
v -0.624794 0.503465 0.268860
v -0.624794 0.437182 -0.335605
v 0.624889 0.437182 -0.335606
v 0.624889 0.503465 0.268859
v -0.627679 0.331798 -0.042212
v -0.648482 1.037062 0.279197
v 0.627772 0.331798 -0.042212
v 0.648577 1.037062 0.279196
v -0.617190 0.331798 0.000000
v 0.617285 0.331798 -0.000001
v -0.617190 0.000000 0.000000
v 0.617285 0.000000 -0.000001
v 0.648577 0.394633 -0.042212
v -0.648482 0.394633 -0.042212
v -0.648210 0.331798 -0.042212
v 0.648302 0.331798 -0.042212
v 0.682011 0.379109 -0.036384
v -0.669693 0.370960 -0.042212
v -0.500700 0.000000 0.000000
v 0.500700 0.000000 -0.000000
v -0.601534 1.035231 0.280420
v 0.601481 1.035231 0.280419
v -0.648482 0.997709 0.231193
v 0.648577 0.997709 0.231192
v 0.648577 0.415252 -0.042065
v -0.648482 0.415252 -0.042064
v -0.624794 0.997709 0.231193
v 0.624889 0.997709 0.231192
v 0.624889 0.415252 -0.042065
v -0.624794 0.415252 -0.042064
v 0.624889 0.717917 0.030968
v -0.624794 0.717917 0.030969
v 0.628775 0.846125 0.122802
v -0.624794 0.876134 0.117172
v -0.624794 0.448698 -0.033372
v 0.624889 0.448698 -0.033373
v -0.601533 0.409215 0.280228
v 0.601481 0.409215 0.280227
v -0.593653 1.008899 0.290227
v 0.601481 1.012408 0.280227
v -0.601533 0.409215 -0.072470
v -0.601534 0.409215 -0.223800
v 0.601481 0.409215 -0.072471
v 0.613704 0.417364 -0.217973
v -0.601534 0.409215 -0.359494
v 0.609368 0.419864 -0.354518
v -0.601545 1.066215 0.321313
v -0.648506 1.066216 0.321298
v -0.648499 1.069002 0.280719
v -0.648491 1.071772 0.249827
v 0.601489 1.066972 0.250596
v 0.648586 1.071772 0.249827
v 0.648594 1.069002 0.280718
v 0.648602 1.066216 0.321297
v 0.600091 1.057163 0.326788
v -0.601541 1.066972 0.250597
v -0.601544 1.064284 0.281672
v 0.601491 1.064284 0.281671
v -0.601533 1.030519 0.280228
v -0.601533 1.033263 0.175090
v 0.601481 1.030519 0.280227
v 0.601481 1.033263 0.175089
v -0.601057 1.071951 0.283924
v -0.606395 1.079962 0.250958
v 0.601492 1.068989 0.282006
v 0.601490 1.071772 0.249827
v -0.592825 1.060122 0.275147
v -0.595497 1.035562 0.274502
v 0.438613 1.064615 0.275757
v 0.411584 1.035562 0.274501
v -0.593074 1.037417 0.196786
v 0.441875 1.041541 0.208877
v -0.593080 1.066975 0.250597
v 0.434236 1.066975 0.250596
v -0.601533 0.431422 0.280228
v 0.601481 0.431422 0.280227
v 0.601480 0.460442 -0.313633
v 0.601481 0.460442 0.280227
v -0.601534 0.460442 -0.313633
v -0.601533 0.460442 0.280228
v -0.601534 0.431422 -0.324489
v 0.601480 0.431422 -0.324490
v -0.360930 0.460442 0.280227
v -0.120327 0.460442 0.280227
v 0.120275 0.481218 0.280227
v 0.360878 0.460442 0.280227
v -0.360931 0.460442 -0.313633
v -0.120328 0.460442 -0.313633
v 0.120275 0.460442 -0.313633
v 0.360878 0.460442 -0.313633
v -0.360931 0.431422 -0.324489
v -0.120328 0.431422 -0.324489
v 0.120275 0.431422 -0.324489
v 0.360878 0.431422 -0.324489
v -0.360930 0.431422 0.280227
v -0.120327 0.431422 0.280227
v 0.120275 0.431422 0.280227
v 0.360878 0.431422 0.280227
v 0.601481 0.460442 0.131762
v 0.601481 0.460442 -0.016704
v 0.601480 0.460442 -0.165168
v -0.601533 0.431422 0.129048
v -0.601533 0.431422 -0.022130
v -0.601533 0.431422 -0.173309
v 0.601481 0.431422 0.129048
v 0.601481 0.431422 -0.022131
v 0.601480 0.431422 -0.173310
v -0.601533 0.460442 0.131763
v -0.601533 0.460442 -0.016703
v -0.601533 0.460442 -0.165168
v -0.360931 0.431422 -0.173310
v -0.360931 0.431422 -0.022130
v -0.360930 0.431422 0.129048
v -0.120328 0.431422 -0.173310
v -0.120328 0.431422 -0.022131
v -0.120328 0.431422 0.129048
v 0.120275 0.452198 -0.173310
v 0.120275 0.431422 -0.022131
v 0.120275 0.431422 0.129048
v 0.360878 0.431422 -0.173310
v 0.360878 0.431422 -0.022131
v 0.360878 0.437924 0.129048
v -0.360930 0.460442 0.131763
v -0.360931 0.481218 -0.016703
v -0.360931 0.460442 -0.165168
v -0.120328 0.460442 0.131762
v -0.120328 0.460442 -0.016703
v -0.120328 0.460442 -0.165168
v 0.120275 0.460442 0.131762
v 0.120275 0.460442 -0.016703
v 0.120275 0.460442 -0.165168
v 0.360878 0.466944 0.131762
v 0.360878 0.460442 -0.016703
v 0.360878 0.460442 -0.165168
v -0.601533 0.823060 0.280228
v 0.601481 0.823060 0.280227
v 0.601481 0.852081 -0.064949
v 0.601481 0.852081 0.280227
v -0.601533 0.794824 -0.064948
v -0.601533 0.852081 0.280228
v -0.601533 0.789931 -0.075804
v 0.601481 0.823060 -0.075805
v 0.601481 0.852081 0.165168
v 0.601481 0.852081 0.050109
v -0.601533 0.791185 0.161551
v -0.601533 0.791185 0.042873
v 0.601481 0.823060 0.161550
v 0.601481 0.823060 0.042872
v -0.601533 0.820206 0.165169
v -0.601533 0.820206 0.050110
v -0.268408 0.847527 0.278765
v -0.000026 0.852081 0.280227
v 0.372538 0.837912 0.280227
v -0.300780 0.852081 -0.064949
v -0.040824 0.828214 -0.076140
v 0.300727 0.852081 -0.064949
v -0.300780 0.823060 -0.075804
v -0.040824 0.799193 -0.086996
v 0.300727 0.823060 -0.075805
v -0.268408 0.818506 0.278765
v -0.000026 0.823060 0.280227
v 0.271131 0.798597 0.280227
v -0.268408 0.818506 0.160088
v -0.040823 0.799193 0.150358
v 0.372538 0.798597 0.161550
v -0.271260 0.820291 0.042148
v -0.040823 0.799193 0.031681
v 0.300727 0.823060 0.042872
v 0.271131 0.827617 0.165168
v -0.000026 0.852081 0.165169
v -0.268408 0.847527 0.163706
v 0.372538 0.827617 0.050110
v -0.040824 0.828214 0.038918
v -0.271260 0.849311 0.049386
vn -1.0000 -0.0000 -0.0000
vn -0.0000 -0.0000 1.0000
vn 0.0270 0.9983 0.0508
vn -0.0270 -0.9996 -0.0000
vn 1.0000 -0.0000 -0.0000
vn -0.0290 0.3502 -0.9362
vn 0.0095 0.3503 -0.9366
vn -0.0095 0.3503 -0.9366
vn -0.0000 0.3504 -0.9366
vn -0.0000 -1.0000 -0.0000
vn -0.0817 -0.9852 -0.1506
vn -0.0000 -0.9885 -0.1511
vn 0.1080 -0.9827 -0.1502
vn -0.0816 0.9847 -0.1537
vn -0.0000 1.0000 -0.0000
vn -0.0816 0.9847 0.1537
vn 0.0849 0.9835 -0.1599
vn -0.0000 0.9880 -0.1542
vn -0.0000 0.9870 -0.1604
vn 0.0826 0.9966 -0.0000
vn -0.0850 -0.9840 0.1566
vn 0.0826 -0.9966 -0.0000
vn 0.0850 -0.9840 0.1566
vn -0.0000 -0.9885 0.1511
vn -0.1649 -0.9741 0.1550
vn 0.0270 -0.9996 -0.0000
vn 0.0270 -0.9984 0.0497
vn -0.0270 0.9996 -0.0000
vn -0.0000 -0.0183 0.9998
vn -0.0000 -0.9837 -0.1800
vn -0.0000 0.8716 -0.4901
vn -0.0000 0.0039 -1.0000
vn -0.0033 0.8410 -0.5410
vn -0.0000 -0.0000 -1.0000
vn -0.0000 0.7350 -0.6781
vn -0.0000 0.6069 0.7948
vn 0.8144 -0.5803 -0.0000
vn -0.0000 -0.7833 -0.6216
vn -0.8767 -0.4810 -0.0000
vn -0.0000 -0.2916 0.9565
vn -0.7443 0.6669 -0.0364
vn 0.4382 0.8854 -0.1551
vn -0.0000 -0.8597 -0.5108
vn 0.0085 -0.7936 -0.6084
vn 0.0085 -0.7806 -0.6250
vn -0.0017 0.7357 -0.6773
vn 0.1602 -0.9870 0.0158
vn -0.0102 -0.9948 0.1018
vn -0.0000 -0.3200 0.9474
vn -1.0000 -0.0005 -0.0002
vn -0.0000 0.8615 -0.5077
vn 0.9977 -0.0675 -0.0000
vn -0.7628 0.5121 -0.3949
vn 0.9296 -0.1591 0.3325
vn -0.9908 0.1223 -0.0583
vn -0.9866 -0.1273 0.1015
vn 0.0627 0.4330 -0.8992
vn -0.1504 0.4476 -0.8815
vn -0.9823 0.1388 -0.1259
vn -0.8425 0.3585 -0.4022
vn -0.0000 0.6654 -0.7465
vn -0.0000 0.9834 -0.1816
vn -0.4720 0.5866 -0.6581
vn -0.0000 -0.8945 0.4470
vn 0.9996 0.0073 0.0256
vn 0.9995 -0.0316 0.0018
vn -0.0000 -0.6768 0.7362
vn -0.0000 -0.4316 0.9021
vn -0.0000 -0.4316 0.9020
vn -0.0000 0.9990 -0.0455
vn -0.0000 0.5803 -0.8144
vn -0.0000 0.4894 -0.8721
vn 0.0009 0.4898 -0.8718
vn 0.9994 0.0312 -0.0156
vn -0.9881 0.1050 -0.1120
vn 0.8381 0.5454 0.0114
vn -0.0000 -0.4198 -0.9076
vn -0.0003 -0.0696 0.9976
vn 0.6611 0.7497 -0.0305
vn -0.8227 0.5619 -0.0868
vn 0.8134 -0.5814 0.0151
vn -1.0000 -0.0003 -0.0000
vn -0.9966 -0.0027 -0.0828
vn 0.9989 -0.0462 -0.0000
vn 0.9974 -0.0119 -0.0708
vn 0.0017 0.9040 -0.4275
vn -0.9995 0.0006 0.0318
vn -0.0084 -0.0000 -1.0000
vn 0.0016 0.9976 0.0685
vn -0.0665 0.9954 0.0683
vn 0.0028 0.9668 0.2554
vn -0.1925 0.9774 0.0876
vn -0.0000 0.9960 0.0893
vn 0.1183 0.8490 -0.5150
vn -0.0051 -0.0700 0.9975
vn -0.0000 0.8538 -0.5205
vn 1.0000 -0.0008 -0.0001
vn 1.0000 -0.0005 -0.0003
vn 0.0292 -0.9992 -0.0261
vn -0.0000 0.9194 -0.3932
vn 1.0000 0.0004 -0.0000
vn -1.0000 0.0002 -0.0000
vn -0.0000 0.0408 -0.9992
vn 0.9981 -0.0618 -0.0053
vn -1.0000 0.0003 0.0001
vn -0.0014 0.0709 -0.9975
vn 0.9177 0.3482 -0.1912
vn -1.0000 0.0001 0.0001
vn 0.0050 -0.9961 -0.0884
vn 0.0027 0.8541 -0.5202
vn -0.0044 0.9956 0.0941
vn -0.0003 0.9632 0.2689
vn -0.0278 -0.9993 -0.0261
vn -0.0003 0.8765 -0.4814
vn -0.0011 0.9963 0.0862
vn -0.0000 -0.9984 -0.0559
vn -0.0088 1.0000 -0.0000
vn 0.0852 -0.9871 0.1357
vn -0.0852 -0.9871 0.1357
vn 0.0852 0.9867 -0.1381
vn 0.0852 0.9867 0.1381
vn 0.0270 -0.9987 0.0430
vn -0.0270 -0.9987 0.0430
vn 0.0270 0.9987 0.0437
vn 0.0270 0.9987 -0.0437
vn -0.0000 0.9781 0.2080
vn -0.0666 0.3496 -0.9345
vn 0.0737 -0.9953 0.0630
vn 0.1062 -0.9943 -0.0000
vn -0.0738 0.9970 -0.0241
vn -0.0737 0.9952 -0.0650
vn -0.0878 0.9961 -0.0000
vn 0.0918 0.9957 0.0133
vn 0.0878 0.9732 -0.2124
vn -0.0800 0.9606 -0.2661
vn -0.0170 0.9999 -0.0000
vn 0.0899 0.9960 -0.0000
vn 0.0817 -0.9965 -0.0171
vn -0.0851 -0.9963 -0.0130
vn 0.0041 -0.9789 -0.2043
vn -0.0137 -0.9999 -0.0000
vn 0.0157 -0.9843 0.1759
vn -0.0879 -0.9744 0.2067
vn 0.0062 0.3504 -0.9366
vn -0.0082 0.3503 -0.9366
vn 0.0876 -0.9951 -0.0453
vn -0.0912 -0.9958 -0.0000
vn 0.0697 -0.9976 -0.0000
vn -0.1828 0.9601 -0.2118
vn 0.0914 0.9958 0.0005
vn -0.0697 0.9976 -0.0000
vn 0.0044 -0.0000 1.0000
vn -0.0054 -0.0000 1.0000
vn 0.0817 -0.9852 0.1506
vn 0.0816 0.9847 0.1537
vn -0.0270 0.9983 0.0508
vn 0.0816 0.9847 -0.1537
vn 0.1091 -0.9928 -0.0495
vn -0.1649 -0.9741 -0.1550
vn -0.0826 -0.9966 -0.0000
vn 0.0850 -0.9840 -0.1566
vn -0.0270 -0.9984 -0.0497
vn -0.0270 0.9983 -0.0508
vn -0.1190 0.8562 -0.5027
vn -0.0000 0.9984 0.0559
vn 0.9706 -0.2323 0.0631
vn -0.7569 -0.6530 0.0266
vn -0.6611 0.7497 -0.0305
vn 0.8125 0.5807 -0.0520
vn 0.2356 -0.9717 -0.0146
vn 0.0400 -0.8126 -0.5815
vn -0.0094 -0.9999 0.0088
vn 0.0082 -0.7859 -0.6183
vn -0.0017 0.7342 -0.6789
vn -0.0000 -0.9941 0.1083
vn 0.1249 -0.0691 0.9898
vn -1.0000 -0.0008 -0.0001
vn 0.1188 0.8521 -0.5097
vn 0.9979 -0.0432 0.0484
vn -0.9993 -0.0160 -0.0337
vn 0.9292 -0.1565 0.3347
vn -0.8358 0.2608 -0.4831
vn -0.9876 -0.1448 0.0605
vn -0.0000 0.4310 -0.9024
vn -0.4799 0.3501 -0.8044
vn -0.9828 0.1443 -0.1151
vn -0.8639 0.3409 -0.3708
vn -0.0000 0.6027 -0.7980
vn 0.9997 -0.0001 0.0264
vn -0.1410 0.4194 -0.8968
vn 0.0615 0.4228 -0.9041
vn 0.0035 0.5780 -0.8160
vn 0.9421 -0.1064 0.3181
vn -0.9804 -0.1430 -0.1355
vn 0.9996 -0.0106 -0.0275
vn 0.9997 0.0227 0.0041
vn -0.9891 0.1447 0.0265
vn -0.0000 -0.0700 0.9975
vn 0.4232 0.9059 -0.0147
vn -0.7398 0.6628 -0.1161
vn -0.9739 -0.2243 0.0347
vn 0.7568 -0.6531 0.0266
vn -1.0000 -0.0005 -0.0003
vn -0.9965 -0.0033 -0.0839
vn 0.9975 0.0118 0.0700
vn 0.9382 0.3461 0.0090
vn -0.8242 0.2435 -0.5113
vn -0.0000 0.0167 -0.9999
vn -0.1505 0.9570 0.2480
vn -0.0000 0.9884 0.1517
vn 0.0068 0.9884 0.1517
vn -0.0767 0.9659 0.2471
vn 0.0021 0.9963 0.0862
vn -0.1660 0.9067 -0.3878
vn -0.0138 0.8764 -0.4814
vn 1.0000 -0.0005 -0.0002
vn 1.0000 -0.0003 -0.0000
vn 0.0003 -0.9997 -0.0239
vn -0.1226 0.8822 -0.4546
vn 1.0000 0.0002 -0.0000
vn -1.0000 0.0004 -0.0000
vn 0.9341 0.3509 -0.0660
vn -0.0000 0.2818 -0.9595
vn 0.9884 0.1491 -0.0284
vn -1.0000 0.0003 -0.0000
vn -0.0000 -0.9997 -0.0239
vn -0.0000 0.8765 -0.4814
vn -0.0000 0.9632 0.2689
vn 0.4753 0.8765 0.0759
vn 0.0011 -0.9959 -0.0902
vn -0.0000 0.9956 0.0934
vn -0.0070 0.9984 0.0553
vn -0.0068 0.9998 0.0185
vn -0.0270 0.9987 0.0437
vn -0.0270 0.9987 -0.0437
vn -0.0852 0.9867 -0.1381
vn -0.0852 0.9867 0.1381
vn 0.0270 -0.9987 -0.0430
vn -0.0852 -0.9871 -0.1357
vn 0.0852 -0.9871 -0.1357
vn -0.0270 -0.9987 -0.0430
vn -0.1062 0.9943 -0.0000
vn -0.0999 0.9071 -0.4089
vn -0.0000 -0.9794 -0.2019
vn -0.0618 0.9981 -0.0000
vn -0.0817 0.9965 0.0176
vn -0.0157 0.9834 -0.1808
vn 0.0014 1.0000 0.0012
vn 0.0137 0.9999 -0.0000
vn 0.0377 0.9918 -0.1220
vn 0.0878 -0.9961 -0.0000
vn 0.0801 -0.9627 0.2586
vn -0.0846 -0.9964 -0.0000
vn -0.0014 -1.0000 -0.0012
vn 0.1095 -0.9939 0.0105
vn -0.0914 -0.9958 -0.0005
vn -0.0876 0.9951 0.0467
vn 0.0912 0.9958 -0.0000
vn -0.0043 0.9776 0.2105
vt 0.572844 0.368641
vt 0.568036 0.368641
vt 0.568036 0.368641
vt 0.572844 0.391636
vt 0.572844 0.387037
vt 0.543771 0.438795
vt 0.538963 0.443394
vt 0.538963 0.438795
vt 0.553612 0.387037
vt 0.558420 0.391636
vt 0.558420 0.387037
vt 0.553612 0.391636
vt 0.553612 0.373240
vt 0.553612 0.368641
vt 0.553612 0.382438
vt 0.553612 0.377839
vt 0.558420 0.368641
vt 0.558420 0.373240
vt 0.558420 0.377839
vt 0.558420 0.382438
vt 0.543771 0.420399
vt 0.538963 0.424998
vt 0.538963 0.420399
vt 0.543771 0.424998
vt 0.538963 0.429597
vt 0.543771 0.434196
vt 0.543771 0.429597
vt 0.538963 0.434196
vt 0.572844 0.373240
vt 0.572844 0.377839
vt 0.572844 0.382438
vt 0.558195 0.438795
vt 0.553387 0.434196
vt 0.558195 0.434196
vt 0.548579 0.438795
vt 0.548579 0.434196
vt 0.553387 0.429597
vt 0.558195 0.429597
vt 0.548579 0.429597
vt 0.558195 0.424998
vt 0.553387 0.424998
vt 0.548579 0.424998
vt 0.553387 0.420399
vt 0.558195 0.420399
vt 0.548579 0.420399
vt 0.568036 0.382438
vt 0.563228 0.387037
vt 0.568036 0.387037
vt 0.563228 0.382438
vt 0.568036 0.377839
vt 0.563228 0.377839
vt 0.568036 0.373240
vt 0.563228 0.373240
vt 0.563228 0.368641
vt 0.568036 0.391636
vt 0.563228 0.391636
vt 0.558195 0.443394
vt 0.553387 0.438795
vt 0.548579 0.443394
vt 0.563228 0.368641
vt 0.546532 0.294101
vt 0.547774 0.294371
vt 0.546532 0.294545
vt 0.543832 0.293950
vt 0.543616 0.293582
vt 0.543833 0.293582
vt 0.546314 0.282963
vt 0.548740 0.282544
vt 0.548738 0.282976
vt 0.545502 0.292891
vt 0.545285 0.292611
vt 0.545502 0.292611
vt 0.547894 0.294203
vt 0.544854 0.291760
vt 0.547894 0.291760
vt 0.545967 0.293164
vt 0.546021 0.283634
vt 0.546027 0.293085
vt 0.548582 0.283098
vt 0.548781 0.283593
vt 0.548582 0.284167
vt 0.546151 0.294411
vt 0.548781 0.294505
vt 0.545766 0.294507
vt 0.543720 0.294412
vt 0.542752 0.293920
vt 0.543720 0.293345
vt 0.543720 0.283102
vt 0.545766 0.283004
vt 0.546151 0.283100
vt 0.544190 0.284123
vt 0.541759 0.283056
vt 0.544190 0.283055
vt 0.546285 0.292846
vt 0.543245 0.290406
vt 0.546285 0.290404
vt 0.544363 0.283233
vt 0.547380 0.284308
vt 0.544363 0.284301
vt 0.550396 0.294544
vt 0.547380 0.293478
vt 0.550396 0.293477
vt 0.548781 0.283002
vt 0.548959 0.283424
vt 0.549049 0.282536
vt 0.549248 0.282971
vt 0.549045 0.283147
vt 0.542527 0.294373
vt 0.542299 0.294109
vt 0.542527 0.293928
vt 0.545766 0.294695
vt 0.544401 0.288544
vt 0.545108 0.285436
vt 0.544828 0.288632
vt 0.542326 0.283138
vt 0.542620 0.282706
vt 0.542620 0.283316
vt 0.541981 0.288658
vt 0.541626 0.291871
vt 0.541626 0.288665
vt 0.541375 0.294370
vt 0.541375 0.293762
vt 0.542752 0.294509
vt 0.542574 0.294089
vt 0.542022 0.291950
vt 0.542202 0.288664
vt 0.540644 0.287672
vt 0.540949 0.290913
vt 0.540643 0.290965
vt 0.542752 0.283006
vt 0.545766 0.282816
vt 0.542854 0.283606
vt 0.541375 0.282491
vt 0.542299 0.282755
vt 0.541375 0.283101
vt 0.542574 0.294697
vt 0.542280 0.294264
vt 0.542527 0.282488
vt 0.542299 0.282294
vt 0.542527 0.282934
vt 0.549047 0.294531
vt 0.549252 0.294094
vt 0.549248 0.294723
vt 0.549051 0.293922
vt 0.548959 0.294084
vt 0.548959 0.294693
vt 0.548781 0.293916
vt 0.550396 0.284301
vt 0.547380 0.283234
vt 0.550396 0.283233
vt 0.547380 0.284303
vt 0.544363 0.293476
vt 0.547380 0.294549
vt 0.544363 0.294543
vt 0.547380 0.293482
vt 0.544190 0.294366
vt 0.541759 0.293300
vt 0.544190 0.293298
vt 0.543720 0.284170
vt 0.548582 0.294409
vt 0.548582 0.293342
vt 0.547774 0.282486
vt 0.547991 0.282931
vt 0.547774 0.282918
vt 0.548087 0.285718
vt 0.548354 0.285332
vt 0.548380 0.285703
vt 0.548813 0.294161
vt 0.546266 0.293986
vt 0.548815 0.293804
vt 0.541709 0.287787
vt 0.538817 0.289243
vt 0.538817 0.287856
vt 0.546532 0.282487
vt 0.546532 0.282932
vt 0.547774 0.293941
vt 0.541758 0.285154
vt 0.542619 0.284762
vt 0.542944 0.285197
vt 0.547660 0.285795
vt 0.547726 0.286157
vt 0.541680 0.285514
vt 0.541278 0.286016
vt 0.541334 0.285063
vt 0.542916 0.285816
vt 0.543097 0.285378
vt 0.543199 0.285815
vt 0.546753 0.288607
vt 0.548112 0.286671
vt 0.546564 0.289214
vt 0.546970 0.291040
vt 0.546762 0.291251
vt 0.546645 0.290871
vt 0.546500 0.285326
vt 0.547122 0.288197
vt 0.546933 0.288190
vt 0.542261 0.291509
vt 0.542390 0.288663
vt 0.544237 0.289621
vt 0.542615 0.288472
vt 0.542576 0.287992
vt 0.542591 0.291351
vt 0.545232 0.290401
vt 0.542387 0.291779
vt 0.546471 0.285794
vt 0.545467 0.285377
vt 0.546810 0.285370
vt 0.544129 0.285240
vt 0.546333 0.284882
vt 0.546218 0.285316
vt 0.545197 0.282933
vt 0.542845 0.293928
vt 0.542845 0.282934
vt 0.545197 0.282487
vt 0.542845 0.282488
vt 0.543211 0.283725
vt 0.542247 0.283913
vt 0.542248 0.283747
vt 0.545677 0.294258
vt 0.548718 0.294100
vt 0.548664 0.294530
vt 0.543834 0.293215
vt 0.544051 0.293582
vt 0.543834 0.293582
vt 0.545971 0.282967
vt 0.548666 0.282536
vt 0.548786 0.282911
vt 0.545502 0.289358
vt 0.545285 0.288181
vt 0.545502 0.288180
vt 0.545197 0.293927
vt 0.542845 0.294373
vt 0.548062 0.285352
vt 0.541602 0.285874
vt 0.545040 0.290182
vt 0.543964 0.284806
vt 0.545617 0.285089
vt 0.542233 0.289439
vt 0.544209 0.294265
vt 0.545680 0.293901
vt 0.545749 0.284994
vt 0.545967 0.282141
vt 0.545967 0.284994
vt 0.544138 0.282651
vt 0.545908 0.282643
vt 0.543832 0.291245
vt 0.543617 0.293215
vt 0.543614 0.291244
vt 0.545197 0.294372
vt 0.542926 0.288010
vt 0.544073 0.287275
vt 0.543128 0.289404
vt 0.540807 0.288719
vt 0.542074 0.288418
vt 0.542149 0.289774
vt 0.543284 0.290668
vt 0.545346 0.288580
vt 0.545722 0.291369
vt 0.539077 0.289568
vt 0.541488 0.291056
vt 0.539097 0.292338
vt 0.543259 0.288477
vt 0.541514 0.288866
vt 0.541414 0.292065
vt 0.541457 0.290887
vt 0.541631 0.292065
vt 0.541631 0.294140
vt 0.541414 0.294140
vt 0.546836 0.289629
vt 0.546708 0.287732
vt 0.546838 0.287732
vt 0.546923 0.292551
vt 0.546706 0.292204
vt 0.546923 0.292203
vt 0.545502 0.290536
vt 0.545285 0.289358
vt 0.541414 0.289710
vt 0.541240 0.290888
vt 0.541454 0.282748
vt 0.541670 0.284644
vt 0.541453 0.284644
vt 0.541671 0.287219
vt 0.541454 0.287219
vt 0.543912 0.291244
vt 0.544051 0.293215
vt 0.546923 0.287732
vt 0.546706 0.284883
vt 0.546923 0.284883
vt 0.541671 0.287566
vt 0.541454 0.287567
vt 0.546706 0.289629
vt 0.541631 0.294420
vt 0.541414 0.294421
vt 0.538774 0.289662
vt 0.538774 0.292511
vt 0.545628 0.288594
vt 0.546024 0.291462
vt 0.546653 0.284893
vt 0.544174 0.289955
vt 0.545288 0.285806
vt 0.545285 0.290536
vt 0.545701 0.294140
vt 0.546024 0.294313
vt 0.539170 0.286794
vt 0.546706 0.282030
vt 0.546923 0.282030
vt 0.541539 0.286676
vt 0.541670 0.291208
vt 0.543310 0.292859
vt 0.539452 0.286780
vt 0.540724 0.289078
vt 0.542720 0.286611
vt 0.543991 0.286916
vt 0.545967 0.287843
vt 0.545750 0.287843
vt 0.544051 0.293949
vt 0.543834 0.293949
vt 0.542777 0.285379
vt 0.547122 0.291434
vt 0.541371 0.284699
vt 0.547793 0.286519
vt 0.542571 0.282337
vt 0.542757 0.293288
vt 0.542571 0.293359
vt 0.548067 0.293941
vt 0.548067 0.294371
vt 0.546621 0.284121
vt 0.546621 0.293297
vt 0.546621 0.294364
vt 0.548959 0.282814
vt 0.540755 0.294200
vt 0.540949 0.294396
vt 0.542519 0.285178
vt 0.541626 0.285458
vt 0.544478 0.291769
vt 0.543245 0.287964
vt 0.546285 0.287962
vt 0.546621 0.283053
vt 0.548405 0.285986
vt 0.544854 0.289317
vt 0.547894 0.289317
vt 0.543834 0.293215
vt 0.538817 0.286613
vt 0.538817 0.286408
vt 0.546893 0.286782
vt 0.545462 0.289450
vt 0.543041 0.288975
vt 0.538817 0.292474
vt 0.544535 0.291511
vt 0.544311 0.292565
vt 0.548602 0.294198
vt 0.548399 0.283102
vt 0.548602 0.283006
vt 0.548048 0.289359
vt 0.546799 0.289377
vt 0.548221 0.282349
vt 0.542736 0.282337
vt 0.545331 0.282958
vt 0.544973 0.282525
vt 0.545345 0.282526
vt 0.544922 0.294410
vt 0.545266 0.293976
vt 0.545294 0.294411
vt 0.544922 0.282969
vt 0.545567 0.294026
vt 0.545576 0.294412
vt 0.545626 0.282959
vt 0.545628 0.282528
vt 0.546264 0.294416
vt 0.546251 0.282141
vt 0.546636 0.283604
vt 0.546251 0.283674
vt 0.541080 0.284669
vt 0.541007 0.285322
vt 0.541042 0.285040
vt 0.547911 0.294173
vt 0.548621 0.294117
vt 0.548675 0.294172
vt 0.546315 0.282531
vt 0.544573 0.291709
vt 0.544510 0.292474
vt 0.543012 0.283686
vt 0.542246 0.283704
vt 0.542528 0.282337
vt 0.542528 0.293358
vt 0.544844 0.292202
vt 0.544889 0.292508
vt 0.544819 0.292487
vt 0.542520 0.283414
vt 0.542233 0.283394
vt 0.542527 0.283370
vt 0.545304 0.282511
vt 0.545232 0.293528
vt 0.545261 0.282511
vt 0.544963 0.292206
vt 0.548621 0.284890
vt 0.547911 0.294095
vt 0.548017 0.284612
vt 0.546747 0.293087
vt 0.546251 0.293164
vt 0.546251 0.293087
vt 0.548675 0.283150
vt 0.547911 0.283150
vt 0.546747 0.293165
vt 0.542584 0.283149
vt 0.545767 0.294186
vt 0.542536 0.294172
vt 0.545816 0.283163
vt 0.547154 0.294192
vt 0.548397 0.294197
vt 0.568036 0.368641
vt 0.543771 0.443394
vt 0.558420 0.373240
vt 0.558420 0.368641
vt 0.543771 0.420399
vt 0.543771 0.434196
vt 0.553387 0.420399
vt 0.563228 0.377839
vt 0.568036 0.391636
vt 0.563228 0.391636
vt 0.553387 0.443394
vt 0.548579 0.443394
vt 0.566433 0.368641
vt 0.566433 0.368641
vt 0.572844 0.385887
vt 0.545374 0.437645
vt 0.538963 0.437645
vt 0.553612 0.385887
vt 0.560022 0.391636
vt 0.560022 0.385887
vt 0.553612 0.374390
vt 0.566433 0.391636
vt 0.566433 0.385887
vt 0.558195 0.437645
vt 0.551785 0.443394
vt 0.551785 0.437645
vt 0.560022 0.368641
vt 0.551785 0.420399
vt 0.545374 0.426148
vt 0.545374 0.420399
vt 0.551785 0.426148
vt 0.545374 0.431896
vt 0.551785 0.431896
vt 0.558195 0.426148
vt 0.558195 0.431896
vt 0.560022 0.374390
vt 0.566433 0.374390
vt 0.566433 0.380139
vt 0.572844 0.374390
vt 0.572844 0.380139
vt 0.553612 0.380139
vt 0.553612 0.380139
vt 0.560022 0.380139
vt 0.538963 0.426148
vt 0.538963 0.431896
vt 0.572844 0.374390
vt 0.553387 0.443394
vt 0.543614 0.293949
vt 0.545285 0.292892
vt 0.544854 0.294203
vt 0.541759 0.284124
vt 0.543245 0.292847
vt 0.547380 0.283239
vt 0.547380 0.294545
vt 0.549252 0.282340
vt 0.542299 0.294568
vt 0.544239 0.285088
vt 0.542326 0.282507
vt 0.541839 0.292137
vt 0.540838 0.287480
vt 0.542280 0.294893
vt 0.541759 0.294367
vt 0.548067 0.282486
vt 0.544212 0.293908
vt 0.545750 0.282141
vt 0.544135 0.283083
vt 0.540890 0.288360
vt 0.546706 0.292551
vt 0.541631 0.289709
vt 0.541671 0.282747
vt 0.544042 0.291244
vt 0.546706 0.287732
vt 0.543908 0.286557
vt 0.544239 0.292025
vt 0.548252 0.289453
vt 0.548221 0.293370
vt 0.544924 0.293979
vt 0.546747 0.282142
vt 0.544553 0.292476
vt 0.542236 0.283437
vt 0.545304 0.293532
vt 0.547149 0.283057
vt 0.545374 0.443394
s 0
usemtl Material
f 127/67/74 160/68/74 154/69/74
f 128/70/75 138/71/75 150/71/75
f 186/72/76 129/73/76 142/74/76
f 146/75/77 159/76/77 172/77/77
f 159/76/78 129/78/78 153/76/78
f 143/79/79 131/80/79 139/79/79
f 146/75/80 129/78/80 134/78/80
f 146/75/81 141/81/81 142/75/81
f 145/81/82 140/82/82 141/81/82
f 143/79/82 140/82/82 144/82/82
f 156/83/83 143/79/83 163/84/83
f 163/84/84 144/82/84 166/85/84
f 166/85/85 145/81/85 169/86/85
f 145/81/86 172/77/86 169/86/86
f 162/87/87 139/88/87 131/89/87
f 177/90/88 140/91/88 139/88/88
f 183/92/89 140/91/89 180/93/89
f 186/72/88 141/94/88 183/92/88
f 147/95/75 132/67/75 127/67/75
f 148/96/75 135/95/75 147/95/75
f 149/97/75 136/96/75 148/96/75
f 149/97/75 138/71/75 137/97/75
f 138/98/88 181/99/88 137/100/88
f 181/99/87 185/101/87 182/102/87
f 185/101/89 183/92/89 182/102/89
f 137/100/90 178/103/90 136/104/90
f 181/99/91 179/105/91 178/103/91
f 182/102/88 180/93/88 179/105/88
f 135/106/92 178/103/92 175/107/92
f 178/103/88 176/108/88 175/107/88
f 179/105/93 177/90/93 176/108/93
f 135/106/92 160/109/92 132/110/92
f 160/109/88 176/108/88 161/111/88
f 176/108/88 162/87/88 161/111/88
f 171/112/94 150/71/94 149/97/94
f 171/112/83 173/113/83 174/114/83
f 169/86/95 173/113/95 170/115/95
f 148/96/96 171/112/96 149/97/96
f 168/116/97 170/115/97 171/112/97
f 166/85/83 170/115/83 167/117/83
f 165/118/83 148/96/83 147/95/83
f 165/118/97 167/117/97 168/116/97
f 163/84/98 167/117/98 164/119/98
f 154/69/83 147/95/83 127/67/83
f 155/120/83 165/118/83 154/69/83
f 155/120/96 163/84/96 164/119/96
f 128/70/78 151/121/78 130/70/78
f 157/121/78 152/122/78 151/121/78
f 158/122/78 153/76/78 152/122/78
f 174/114/99 128/70/99 150/71/99
f 174/114/100 158/122/100 157/121/100
f 173/113/83 159/76/83 158/122/83
f 130/123/101 184/124/101 138/98/101
f 184/124/88 152/125/88 185/101/88
f 152/125/88 186/72/88 185/101/88
f 156/83/74 131/80/74 133/80/74
f 155/120/74 162/83/74 156/83/74
f 154/69/74 161/126/74 155/120/74
f 271/127/102 245/128/102 265/129/102
f 188/130/103 330/131/103 326/132/103
f 364/133/104 267/134/104 269/135/104
f 203/136/105 306/137/105 302/138/105
f 187/139/78 314/140/78 312/141/78
f 359/142/106 371/143/106 369/144/106
f 187/145/83 216/146/83 224/147/83
f 311/148/83 195/149/83 307/150/83
f 193/151/83 220/152/83 226/153/83
f 191/154/83 309/155/83 312/156/83
f 322/157/83 202/158/83 314/159/83
f 193/160/74 313/161/74 311/162/74
f 191/163/107 229/164/107 225/165/107
f 189/166/75 227/167/75 223/168/75
f 196/169/83 236/170/83 216/146/83
f 250/171/108 240/172/108 232/173/108
f 248/174/109 242/175/109 234/176/109
f 195/149/83 317/177/83 307/150/83
f 319/178/110 208/179/110 318/180/110
f 240/181/111 212/182/111 237/183/111
f 320/184/112 210/185/112 317/186/112
f 242/175/113 207/187/113 235/188/113
f 197/189/83 238/190/83 220/152/83
f 249/191/114 320/184/114 316/192/114
f 243/193/115 319/194/115 315/195/115
f 198/196/83 318/197/83 309/155/83
f 198/196/116 237/183/116 212/182/116
f 219/198/117 238/190/117 237/183/117
f 208/199/113 241/200/113 236/201/113
f 241/200/113 235/188/113 236/201/113
f 210/202/111 239/203/111 238/190/111
f 239/203/118 237/183/118 238/190/118
f 243/204/109 241/200/109 214/205/109
f 234/176/109 241/200/109 233/206/109
f 249/207/108 239/208/108 211/209/108
f 231/210/119 240/172/119 239/208/119
f 195/149/83 235/211/83 207/212/83
f 215/213/83 236/170/83 235/211/83
f 224/214/75 200/215/75 187/216/75
f 223/168/75 228/217/75 224/214/75
f 226/218/107 201/219/107 193/220/107
f 225/165/107 230/221/107 226/218/107
f 313/222/83 230/223/83 321/224/83
f 230/223/83 322/157/83 321/224/83
f 191/154/120 219/198/120 198/196/120
f 225/225/121 220/152/121 219/198/121
f 189/226/83 215/213/83 195/149/83
f 223/227/83 216/146/83 215/213/83
f 244/228/122 357/229/122 217/230/122
f 308/231/123 350/232/123 351/233/123
f 266/234/124 362/235/124 268/236/124
f 255/237/125 343/238/125 344/239/125
f 263/240/102 217/230/102 270/241/102
f 270/241/102 218/242/102 271/127/102
f 188/243/78 263/244/78 264/245/78
f 190/246/74 308/231/74 325/247/74
f 326/248/78 247/249/78 310/250/78
f 204/251/74 291/252/74 298/253/74
f 273/254/126 246/255/126 266/256/126
f 206/257/127 293/258/127 300/259/127
f 203/260/78 315/261/78 327/262/78
f 205/263/74 316/192/74 328/264/74
f 262/265/78 267/266/78 274/267/78
f 299/268/128 253/269/128 292/270/128
f 272/271/129 252/272/129 265/273/129
f 259/274/78 301/275/78 302/276/78
f 257/277/75 297/278/75 296/279/75
f 251/280/75 296/279/75 301/281/75
f 364/282/74 342/283/74 363/284/74
f 253/285/130 294/286/130 292/287/130
f 194/288/103 329/289/103 325/290/103
f 256/291/131 293/292/131 295/293/131
f 264/294/105 276/295/105 188/296/105
f 258/297/75 291/298/75 297/278/75
f 190/246/132 265/273/132 245/299/132
f 274/267/78 247/249/78 192/300/78
f 261/301/133 266/256/133 253/269/133
f 264/245/78 251/302/78 259/274/78
f 270/241/75 258/297/75 257/277/75
f 263/240/75 257/277/75 251/280/75
f 269/303/74 340/304/74 364/282/74
f 266/305/134 255/306/134 253/285/134
f 328/307/135 281/308/135 332/309/135
f 256/291/136 267/310/136 254/311/136
f 274/312/137 279/313/137 290/314/137
f 271/127/75 252/315/75 258/297/75
f 336/316/74 278/317/74 289/318/74
f 330/319/138 275/320/138 335/321/138
f 333/322/78 306/323/78 338/324/78
f 337/325/74 282/326/74 304/327/74
f 335/321/139 287/328/139 333/322/139
f 334/329/74 289/318/74 282/326/74
f 260/330/105 288/331/105 280/332/105
f 260/330/105 303/333/105 298/334/105
f 261/335/140 289/336/140 273/337/140
f 205/338/141 304/339/141 299/340/141
f 259/341/105 275/342/105 264/294/105
f 190/343/105 288/331/105 272/344/105
f 274/345/140 284/346/140 262/347/140
f 262/347/142 305/348/142 300/349/142
f 273/350/137 278/351/137 194/288/137
f 206/352/143 331/353/143 327/354/143
f 300/349/141 285/355/141 206/356/141
f 261/335/142 304/339/142 282/357/142
f 298/334/105 281/358/105 204/359/105
f 332/360/74 304/327/74 283/361/74
f 338/324/78 286/362/78 331/363/78
f 297/278/75 248/174/75 234/176/75
f 295/293/144 250/171/144 232/173/144
f 249/207/145 294/286/145 231/210/145
f 294/286/146 232/173/146 231/210/146
f 301/281/75 233/206/75 243/204/75
f 296/279/75 234/176/75 233/206/75
f 203/260/78 301/275/78 243/364/78
f 205/263/74 292/270/74 249/191/74
f 300/259/78 254/365/78 262/265/78
f 260/366/74 291/252/74 252/272/74
f 302/138/105 287/367/105 259/341/105
f 305/368/78 331/363/78 285/369/78
f 281/370/74 337/325/74 332/360/74
f 327/354/135 286/371/135 203/372/135
f 280/373/74 336/316/74 334/329/74
f 290/374/78 333/322/78 284/375/78
f 303/376/74 334/329/74 337/325/74
f 284/375/78 338/324/78 305/368/78
f 279/377/147 335/321/147 290/374/147
f 288/378/148 329/379/148 336/316/148
f 328/307/143 283/380/143 205/381/143
f 325/290/103 277/382/103 190/383/103
f 204/251/74 316/192/74 248/384/74
f 206/257/149 315/261/149 250/385/149
f 188/243/78 310/250/78 244/386/78
f 325/247/74 246/255/74 194/387/74
f 363/388/150 341/389/150 361/390/150
f 245/128/151 349/391/151 350/392/151
f 321/224/83 228/393/83 227/394/83
f 199/395/83 321/224/83 227/394/83
f 196/169/83 318/197/83 208/396/83
f 250/397/152 319/194/152 213/398/152
f 248/384/153 320/184/153 209/399/153
f 207/400/112 320/184/112 317/186/112
f 212/401/154 319/178/154 318/180/154
f 197/189/83 317/177/83 210/202/83
f 311/162/74 199/402/74 189/403/74
f 228/393/83 314/159/83 200/404/83
f 312/156/83 196/169/83 187/145/83
f 193/151/83 307/150/83 197/189/83
f 308/231/155 352/405/155 246/255/155
f 312/141/78 202/406/78 191/407/78
f 326/132/103 279/313/103 192/408/103
f 255/237/125 347/409/125 294/410/125
f 256/411/156 345/412/156 269/303/156
f 268/413/157 339/414/157 343/238/157
f 362/415/158 341/416/158 339/414/158
f 294/417/159 348/418/159 295/419/159
f 256/411/160 348/420/160 346/421/160
f 340/422/161 341/389/161 342/423/161
f 367/424/162 356/425/162 355/426/162
f 350/427/163 365/428/163 351/429/163
f 365/428/164 357/430/164 367/424/164
f 351/429/165 366/431/165 352/432/165
f 368/433/166 355/426/166 354/434/166
f 246/435/167 366/431/167 362/235/167
f 218/242/168 357/229/168 349/391/168
f 353/436/169 374/437/169 376/438/169
f 310/250/170 356/439/170 244/386/170
f 310/250/171 354/440/171 355/441/171
f 221/442/172 370/443/172 323/444/172
f 247/445/173 368/433/173 354/434/173
f 221/446/174 361/447/174 362/415/174
f 222/448/175 363/284/175 324/449/175
f 324/450/176 361/390/176 323/451/176
f 358/452/177 365/453/177 359/454/177
f 353/455/178 367/456/178 368/457/178
f 360/458/179 365/459/179 367/460/179
f 221/446/180 366/461/180 358/452/180
f 222/448/181 368/457/181 364/282/181
f 372/462/182 373/463/182 374/464/182
f 373/465/183 376/438/183 374/437/183
f 376/438/184 369/144/184 371/143/184
f 358/466/185 369/144/185 375/467/185
f 324/468/186 374/464/186 222/469/186
f 358/466/187 373/465/187 221/470/187
f 353/436/188 371/143/188 360/308/188
f 323/444/189 372/462/189 324/468/189
f 340/471/88 343/472/88 339/473/88
f 345/474/88 344/475/88 343/472/88
f 344/475/190 348/418/190 347/476/190
f 377/67/74 410/477/74 404/69/74
f 378/70/75 388/71/75 400/71/75
f 403/478/88 392/74/88 436/72/88
f 396/75/83 409/76/83 422/77/83
f 409/76/78 379/78/78 403/76/78
f 383/80/82 389/79/82 393/79/82
f 396/75/82 379/78/82 384/78/82
f 395/81/82 392/75/82 396/75/82
f 394/82/82 391/81/82 395/81/82
f 393/79/82 390/82/82 394/82/82
f 383/80/83 413/479/83 406/480/83
f 413/479/83 394/82/83 416/85/83
f 416/85/191 395/81/191 419/86/191
f 395/81/192 422/77/192 419/86/192
f 412/481/88 389/88/88 381/89/88
f 430/93/88 389/88/88 427/90/88
f 433/482/88 390/91/88 430/93/88
f 433/482/88 392/74/88 391/94/88
f 397/95/75 382/67/75 377/67/75
f 398/96/75 385/95/75 397/95/75
f 399/97/75 386/96/75 398/96/75
f 399/97/75 388/71/75 387/97/75
f 388/98/193 431/99/193 387/100/193
f 431/99/88 435/101/88 432/102/88
f 435/101/88 433/482/88 432/102/88
f 386/104/88 431/99/88 428/103/88
f 428/103/88 432/102/88 429/105/88
f 432/102/88 430/93/88 429/105/88
f 386/104/88 425/107/88 385/106/88
f 425/107/194 429/105/194 426/108/194
f 429/105/193 427/90/193 426/108/193
f 385/106/88 410/483/88 382/110/88
f 425/107/88 411/111/88 410/483/88
f 411/111/88 427/90/88 412/481/88
f 421/112/83 400/71/83 399/97/83
f 421/112/195 423/113/195 424/114/195
f 420/115/83 422/77/83 423/113/83
f 418/116/83 399/97/83 398/96/83
f 417/484/83 421/112/83 418/116/83
f 416/85/83 420/115/83 417/484/83
f 397/95/83 418/116/83 398/96/83
f 414/119/83 418/116/83 415/118/83
f 413/479/83 417/484/83 414/119/83
f 404/69/83 397/95/83 377/67/83
f 404/69/83 414/119/83 415/118/83
f 406/480/83 414/119/83 405/120/83
f 378/70/78 401/485/78 380/70/78
f 407/485/78 402/486/78 401/485/78
f 408/486/78 403/76/78 402/486/78
f 400/71/83 407/485/83 378/70/83
f 423/113/196 407/485/196 424/114/196
f 422/77/83 408/486/83 423/113/83
f 388/98/197 401/487/197 434/124/197
f 401/487/198 435/101/198 434/124/198
f 402/488/88 436/72/88 435/101/88
f 406/480/74 381/80/74 383/80/74
f 405/120/74 412/480/74 406/480/74
f 404/69/74 411/126/74 405/120/74
f 437/67/74 451/489/74 447/490/74
f 438/70/75 455/491/75 464/491/75
f 474/492/199 439/73/199 458/493/199
f 461/494/83 450/495/83 470/496/83
f 450/495/78 439/78/78 446/495/78
f 459/497/200 441/80/200 456/497/200
f 438/70/78 445/498/78 440/70/78
f 449/498/78 446/495/78 445/498/78
f 467/499/201 438/70/201 464/491/201
f 467/499/202 450/495/202 449/498/202
f 455/500/203 445/501/203 471/502/203
f 445/501/204 474/492/204 471/502/204
f 448/503/74 441/80/74 443/80/74
f 447/490/74 452/503/74 448/503/74
f 451/504/205 476/505/205 452/506/205
f 473/507/206 475/508/206 476/505/206
f 471/502/207 475/508/207 472/509/207
f 442/110/208 473/507/208 451/504/208
f 453/510/209 472/509/209 473/507/209
f 454/511/210 471/502/210 472/509/210
f 447/490/211 468/512/211 465/513/211
f 468/512/212 466/514/212 465/513/212
f 466/514/213 470/496/213 467/499/213
f 437/67/214 465/513/214 462/515/214
f 462/515/215 466/514/215 463/516/215
f 466/514/216 464/491/216 463/516/216
f 461/494/82 439/78/82 444/78/82
f 461/494/217 457/517/217 458/494/217
f 459/497/218 457/517/218 460/518/218
f 448/503/219 459/497/219 468/512/219
f 468/512/220 460/518/220 469/519/220
f 469/519/221 461/494/221 470/496/221
f 452/506/222 456/520/222 441/89/222
f 476/505/223 457/521/223 456/520/223
f 475/508/224 458/493/224 457/521/224
f 437/67/225 453/522/225 442/67/225
f 463/516/226 453/522/226 462/515/226
f 464/491/75 454/516/75 463/516/75
f 127/67/74 132/67/74 160/68/74
f 128/70/75 130/70/75 138/71/75
f 186/72/88 153/478/88 129/73/88
f 146/75/77 134/78/77 159/76/77
f 159/76/78 134/78/78 129/78/78
f 143/79/79 133/80/79 131/80/79
f 146/75/80 142/75/80 129/78/80
f 146/75/81 145/81/81 141/81/81
f 145/81/82 144/82/82 140/82/82
f 143/79/82 139/79/82 140/82/82
f 156/83/227 133/80/227 143/79/227
f 163/84/83 143/79/83 144/82/83
f 166/85/85 144/82/85 145/81/85
f 145/81/99 146/75/99 172/77/99
f 162/87/88 177/90/88 139/88/88
f 177/90/228 180/93/228 140/91/228
f 183/92/88 141/94/88 140/91/88
f 186/72/229 142/74/229 141/94/229
f 147/95/75 135/95/75 132/67/75
f 148/96/75 136/96/75 135/95/75
f 149/97/75 137/97/75 136/96/75
f 149/97/75 150/71/75 138/71/75
f 138/98/88 184/124/88 181/99/88
f 181/99/88 184/124/88 185/101/88
f 185/101/88 186/72/88 183/92/88
f 137/100/88 181/99/88 178/103/88
f 181/99/91 182/102/91 179/105/91
f 182/102/89 183/92/89 180/93/89
f 135/106/92 136/104/92 178/103/92
f 178/103/230 179/105/230 176/108/230
f 179/105/93 180/93/93 177/90/93
f 135/106/92 175/107/92 160/109/92
f 160/109/88 175/107/88 176/108/88
f 176/108/88 177/90/88 162/87/88
f 171/112/83 174/114/83 150/71/83
f 171/112/227 170/115/227 173/113/227
f 169/86/231 172/77/231 173/113/231
f 148/96/83 168/116/83 171/112/83
f 168/116/97 167/117/97 170/115/97
f 166/85/83 169/86/83 170/115/83
f 165/118/83 168/116/83 148/96/83
f 165/118/232 164/119/232 167/117/232
f 163/84/233 166/85/233 167/117/233
f 154/69/83 165/118/83 147/95/83
f 155/120/234 164/119/234 165/118/234
f 155/120/83 156/83/83 163/84/83
f 128/70/78 157/121/78 151/121/78
f 157/121/78 158/122/78 152/122/78
f 158/122/78 159/76/78 153/76/78
f 174/114/99 157/121/99 128/70/99
f 174/114/83 173/113/83 158/122/83
f 173/113/235 172/77/235 159/76/235
f 130/123/101 151/523/101 184/124/101
f 184/124/236 151/523/236 152/125/236
f 152/125/88 153/478/88 186/72/88
f 156/83/74 162/83/74 131/80/74
f 155/120/74 161/126/74 162/83/74
f 154/69/74 160/68/74 161/126/74
f 271/127/102 218/242/102 245/128/102
f 188/130/103 276/524/103 330/131/103
f 364/133/237 247/445/237 267/134/237
f 203/136/105 286/525/105 306/137/105
f 187/139/78 200/526/78 314/140/78
f 359/142/238 360/308/238 371/143/238
f 187/145/83 196/169/83 216/146/83
f 311/148/83 189/226/83 195/149/83
f 193/151/83 197/189/83 220/152/83
f 191/154/83 198/196/83 309/155/83
f 322/157/83 229/527/83 202/158/83
f 193/160/74 201/528/74 313/161/74
f 191/163/107 202/529/107 229/164/107
f 189/166/75 199/530/75 227/167/75
f 196/169/83 208/396/83 236/170/83
f 250/171/108 213/531/108 240/172/108
f 248/174/109 209/532/109 242/175/109
f 195/149/83 207/212/83 317/177/83
f 319/178/239 214/533/239 208/179/239
f 240/181/111 213/534/111 212/182/111
f 320/184/240 211/535/240 210/185/240
f 242/175/113 209/532/113 207/187/113
f 197/189/83 210/202/83 238/190/83
f 249/191/241 211/535/241 320/184/241
f 243/193/242 214/536/242 319/194/242
f 198/196/243 212/182/243 318/197/243
f 198/196/244 219/198/244 237/183/244
f 219/198/245 220/152/245 238/190/245
f 208/199/113 214/205/113 241/200/113
f 241/200/113 242/175/113 235/188/113
f 210/202/111 211/537/111 239/203/111
f 239/203/246 240/181/246 237/183/246
f 243/204/109 233/206/109 241/200/109
f 234/176/109 242/175/109 241/200/109
f 249/207/108 231/210/108 239/208/108
f 231/210/247 232/173/247 240/172/247
f 195/149/83 215/213/83 235/211/83
f 215/213/83 216/146/83 236/170/83
f 224/214/75 228/217/75 200/215/75
f 223/168/75 227/167/75 228/217/75
f 226/218/107 230/221/107 201/219/107
f 225/165/107 229/164/107 230/221/107
f 313/222/83 201/538/83 230/223/83
f 230/223/83 229/527/83 322/157/83
f 191/154/248 225/225/248 219/198/248
f 225/225/83 226/153/83 220/152/83
f 189/226/83 223/227/83 215/213/83
f 223/227/83 224/147/83 216/146/83
f 244/228/249 356/539/249 357/229/249
f 308/231/250 245/299/250 350/232/250
f 266/234/251 246/435/251 362/235/251
f 255/237/252 268/413/252 343/238/252
f 263/240/102 244/228/102 217/230/102
f 270/241/102 217/230/102 218/242/102
f 188/243/78 244/386/78 263/244/78
f 190/246/74 245/299/74 308/231/74
f 326/248/78 192/300/78 247/249/78
f 204/251/74 248/384/74 291/252/74
f 273/254/253 194/387/253 246/255/253
f 206/257/254 250/385/254 293/258/254
f 203/260/78 243/364/78 315/261/78
f 205/263/74 249/191/74 316/192/74
f 262/265/78 254/365/78 267/266/78
f 299/268/255 261/301/255 253/269/255
f 272/271/256 260/366/256 252/272/256
f 259/274/78 251/302/78 301/275/78
f 257/277/75 258/297/75 297/278/75
f 251/280/75 257/277/75 296/279/75
f 364/282/74 340/304/74 342/283/74
f 253/285/257 255/306/257 294/286/257
f 194/288/103 278/351/103 329/289/103
f 256/291/258 254/311/258 293/292/258
f 264/294/105 275/342/105 276/295/105
f 258/297/75 252/315/75 291/298/75
f 190/246/259 272/271/259 265/273/259
f 274/267/78 267/266/78 247/249/78
f 261/301/260 273/254/260 266/256/260
f 264/245/78 263/244/78 251/302/78
f 270/241/75 271/127/75 258/297/75
f 263/240/75 270/241/75 257/277/75
f 269/303/74 345/412/74 340/304/74
f 266/305/134 268/540/134 255/306/134
f 328/307/135 204/541/135 281/308/135
f 256/291/261 269/542/261 267/310/261
f 274/312/137 192/408/137 279/313/137
f 271/127/75 265/129/75 252/315/75
f 336/316/74 329/379/74 278/317/74
f 330/319/78 276/543/78 275/320/78
f 333/322/78 287/328/78 306/323/78
f 337/325/74 334/329/74 282/326/74
f 335/321/262 275/320/262 287/328/262
f 334/329/74 336/316/74 289/318/74
f 260/330/105 272/344/105 288/331/105
f 260/330/105 280/332/105 303/333/105
f 261/335/140 282/357/140 289/336/140
f 205/338/142 283/544/142 304/339/142
f 259/341/105 287/367/105 275/342/105
f 190/343/105 277/545/105 288/331/105
f 274/345/140 290/546/140 284/346/140
f 262/347/142 284/346/142 305/348/142
f 273/350/137 289/547/137 278/351/137
f 206/352/143 285/548/143 331/353/143
f 300/349/141 305/348/141 285/355/141
f 261/335/142 299/340/142 304/339/142
f 298/334/105 303/333/105 281/358/105
f 332/360/74 337/325/74 304/327/74
f 338/324/78 306/323/78 286/362/78
f 297/278/75 291/298/75 248/174/75
f 295/293/263 293/292/263 250/171/263
f 249/207/264 292/287/264 294/286/264
f 294/286/265 295/293/265 232/173/265
f 301/281/75 296/279/75 233/206/75
f 296/279/75 297/278/75 234/176/75
f 203/260/78 302/276/78 301/275/78
f 205/263/74 299/268/74 292/270/74
f 300/259/266 293/258/266 254/365/266
f 260/366/74 298/253/74 291/252/74
f 302/138/105 306/137/105 287/367/105
f 305/368/78 338/324/78 331/363/78
f 281/370/74 303/376/74 337/325/74
f 327/354/135 331/353/135 286/371/135
f 280/373/267 288/378/267 336/316/267
f 290/374/268 335/321/268 333/322/268
f 303/376/74 280/373/74 334/329/74
f 284/375/78 333/322/78 338/324/78
f 279/377/269 330/319/269 335/321/269
f 288/378/270 277/549/270 329/379/270
f 328/307/143 332/309/143 283/380/143
f 325/290/103 329/289/103 277/382/103
f 204/251/74 328/264/74 316/192/74
f 206/257/78 327/262/78 315/261/78
f 188/243/78 326/248/78 310/250/78
f 325/247/74 308/231/74 246/255/74
f 363/388/161 342/423/161 341/389/161
f 245/128/271 218/242/271 349/391/271
f 321/224/83 322/157/83 228/393/83
f 199/395/83 313/222/83 321/224/83
f 196/169/83 309/155/83 318/197/83
f 250/397/272 315/195/272 319/194/272
f 248/384/273 316/192/273 320/184/273
f 207/400/274 209/399/274 320/184/274
f 212/401/275 213/550/275 319/178/275
f 197/189/83 307/150/83 317/177/83
f 311/162/74 313/161/74 199/402/74
f 228/393/83 322/157/83 314/159/83
f 312/156/83 309/155/83 196/169/83
f 193/151/83 311/148/83 307/150/83
f 308/231/276 351/233/276 352/405/276
f 312/141/78 314/140/78 202/406/78
f 326/132/103 330/131/103 279/313/103
f 255/237/125 344/239/125 347/409/125
f 256/411/277 346/421/277 345/412/277
f 268/413/278 362/415/278 339/414/278
f 362/415/279 361/447/279 341/416/279
f 294/417/190 347/476/190 348/418/190
f 256/411/280 295/551/280 348/420/280
f 340/422/281 339/552/281 341/389/281
f 367/424/282 357/430/282 356/425/282
f 350/427/283 349/553/283 365/428/283
f 365/428/284 349/553/284 357/430/284
f 351/429/285 365/428/285 366/431/285
f 368/433/286 367/424/286 355/426/286
f 246/435/287 352/432/287 366/431/287
f 218/242/122 217/230/122 357/229/122
f 353/436/288 222/554/288 374/437/288
f 310/250/289 355/441/289 356/439/289
f 310/250/290 247/249/290 354/440/290
f 221/442/291 373/463/291 370/443/291
f 247/445/292 364/133/292 368/433/292
f 221/446/293 323/555/293 361/447/293
f 222/448/294 364/282/294 363/284/294
f 324/450/176 363/388/176 361/390/176
f 358/452/295 366/461/295 365/453/295
f 353/455/181 360/556/181 367/456/181
f 360/458/296 359/557/296 365/459/296
f 221/446/297 362/415/297 366/461/297
f 222/448/298 353/455/298 368/457/298
f 372/462/299 370/443/299 373/463/299
f 373/465/300 375/467/300 376/438/300
f 376/438/301 375/467/301 369/144/301
f 358/466/302 359/142/302 369/144/302
f 324/468/303 372/462/303 374/464/303
f 358/466/187 375/467/187 373/465/187
f 353/436/304 376/438/304 371/143/304
f 323/444/189 370/443/189 372/462/189
f 340/471/88 345/474/88 343/472/88
f 345/474/305 346/558/305 344/475/305
f 344/475/306 346/558/306 348/418/306
f 377/67/74 382/67/74 410/477/74
f 378/70/75 380/70/75 388/71/75
f 403/478/88 379/73/88 392/74/88
f 396/75/83 384/78/83 409/76/83
f 409/76/78 384/78/78 379/78/78
f 383/80/82 381/80/82 389/79/82
f 396/75/82 392/75/82 379/78/82
f 395/81/82 391/81/82 392/75/82
f 394/82/82 390/82/82 391/81/82
f 393/79/82 389/79/82 390/82/82
f 383/80/83 393/79/83 413/479/83
f 413/479/83 393/79/83 394/82/83
f 416/85/83 394/82/83 395/81/83
f 395/81/83 396/75/83 422/77/83
f 412/481/88 427/90/88 389/88/88
f 430/93/88 390/91/88 389/88/88
f 433/482/88 391/94/88 390/91/88
f 433/482/88 436/72/88 392/74/88
f 397/95/75 385/95/75 382/67/75
f 398/96/75 386/96/75 385/95/75
f 399/97/75 387/97/75 386/96/75
f 399/97/75 400/71/75 388/71/75
f 388/98/307 434/124/307 431/99/307
f 431/99/308 434/124/308 435/101/308
f 435/101/88 436/72/88 433/482/88
f 386/104/309 387/100/309 431/99/309
f 428/103/88 431/99/88 432/102/88
f 432/102/88 433/482/88 430/93/88
f 386/104/88 428/103/88 425/107/88
f 425/107/88 428/103/88 429/105/88
f 429/105/88 430/93/88 427/90/88
f 385/106/88 425/107/88 410/483/88
f 425/107/310 426/108/310 411/111/310
f 411/111/309 426/108/309 427/90/309
f 421/112/311 424/114/311 400/71/311
f 421/112/83 420/115/83 423/113/83
f 420/115/312 419/86/312 422/77/312
f 418/116/83 421/112/83 399/97/83
f 417/484/83 420/115/83 421/112/83
f 416/85/313 419/86/313 420/115/313
f 397/95/83 415/118/83 418/116/83
f 414/119/83 417/484/83 418/116/83
f 413/479/83 416/85/83 417/484/83
f 404/69/83 415/118/83 397/95/83
f 404/69/83 405/120/83 414/119/83
f 406/480/83 413/479/83 414/119/83
f 378/70/78 407/485/78 401/485/78
f 407/485/78 408/486/78 402/486/78
f 408/486/78 409/76/78 403/76/78
f 400/71/314 424/114/314 407/485/314
f 423/113/83 408/486/83 407/485/83
f 422/77/83 409/76/83 408/486/83
f 388/98/88 380/123/88 401/487/88
f 401/487/88 402/488/88 435/101/88
f 402/488/88 403/478/88 436/72/88
f 406/480/74 412/480/74 381/80/74
f 405/120/74 411/126/74 412/480/74
f 404/69/74 410/477/74 411/126/74
f 437/67/74 442/67/74 451/489/74
f 438/70/75 440/70/75 455/491/75
f 474/492/315 446/559/315 439/73/315
f 461/494/83 444/78/83 450/495/83
f 450/495/78 444/78/78 439/78/78
f 459/497/316 443/80/316 441/80/316
f 438/70/78 449/498/78 445/498/78
f 449/498/78 450/495/78 446/495/78
f 467/499/202 449/498/202 438/70/202
f 467/499/317 470/496/317 450/495/317
f 455/500/318 440/123/318 445/501/318
f 445/501/315 446/559/315 474/492/315
f 448/503/74 452/503/74 441/80/74
f 447/490/74 451/489/74 452/503/74
f 451/504/319 473/507/319 476/505/319
f 473/507/320 472/509/320 475/508/320
f 471/502/321 474/492/321 475/508/321
f 442/110/322 453/510/322 473/507/322
f 453/510/209 454/511/209 472/509/209
f 454/511/323 455/500/323 471/502/323
f 447/490/324 448/503/324 468/512/324
f 468/512/220 469/519/220 466/514/220
f 466/514/221 469/519/221 470/496/221
f 437/67/325 447/490/325 465/513/325
f 462/515/326 465/513/326 466/514/326
f 466/514/327 467/499/327 464/491/327
f 461/494/82 458/494/82 439/78/82
f 461/494/217 460/518/217 457/517/217
f 459/497/218 456/497/218 457/517/218
f 448/503/328 443/80/328 459/497/328
f 468/512/329 459/497/329 460/518/329
f 469/519/221 460/518/221 461/494/221
f 452/506/330 476/505/330 456/520/330
f 476/505/331 475/508/331 457/521/331
f 475/508/332 474/492/332 458/493/332
f 437/67/225 462/515/225 453/522/225
f 463/516/226 454/516/226 453/522/226
f 464/491/75 455/491/75 454/516/75
