# Blender 4.2.1 LTS
# www.blender.org
mtllib freezer_1.mtl
g freezer_glass_1_Mesh
v 0.172078 1.015925 0.181246
v 0.172079 1.012408 0.278546
v 0.083351 0.866196 -0.072470
v 0.172078 0.696347 -0.223800
v 0.172078 0.406015 -0.359495
v -0.386516 0.673236 -0.234277
v -0.382497 0.866196 -0.072470
v -0.429429 0.406015 -0.359494
v 0.172078 1.010761 0.182556
v 0.172079 1.007084 0.278354
v 0.083351 0.862081 -0.069087
v 0.172078 0.693417 -0.219351
v -0.386516 0.670305 -0.229829
v -0.382497 0.862081 -0.069087
v 0.172078 0.403759 -0.354668
v -0.429429 0.403759 -0.354668
v -0.194578 1.015925 0.194114
v -0.369404 0.571530 -0.281669
v -0.261837 0.673236 -0.234277
v -0.154271 0.696347 -0.223800
v -0.318003 0.866196 -0.072470
v -0.210437 0.866196 -0.072470
v -0.154271 0.866196 -0.072470
v -0.369404 0.406015 -0.359494
v -0.261838 0.406015 -0.359494
v -0.154272 0.406015 -0.359495
v -0.258921 1.012408 0.278546
v -0.194578 1.010761 0.195424
v -0.369404 0.568599 -0.277220
v -0.261837 0.670305 -0.229829
v -0.154271 0.693417 -0.219351
v -0.318003 0.862081 -0.069087
v -0.210437 0.862081 -0.069087
v -0.154271 0.862081 -0.069087
v -0.369404 0.403759 -0.354668
v -0.261838 0.403759 -0.354668
v -0.154272 0.403759 -0.354668
v -0.258921 1.007084 0.278354
v 0.172078 0.897006 -0.020263
v -0.279613 0.897006 -0.020263
v 0.172078 0.892675 -0.017306
v -0.279613 0.892675 -0.017306
v -0.247304 0.892675 -0.017306
v -0.210437 0.892675 -0.017306
v -0.154271 0.892675 -0.017306
v -0.247304 0.897006 -0.020263
v -0.210437 0.897006 -0.020263
v -0.154271 0.897006 -0.020263
v 0.120410 0.722341 -0.200641
v 0.120410 0.719228 -0.196356
v -0.261837 0.708135 -0.208065
v -0.154271 0.719228 -0.196356
v -0.261837 0.711247 -0.212351
v -0.154271 0.722341 -0.200641
v -0.318003 0.772606 -0.148623
v -0.287353 0.772606 -0.148623
v -0.154271 0.832183 -0.095723
v 0.130978 0.836089 -0.099295
v -0.350312 0.791149 -0.139612
v 0.130978 0.832183 -0.095723
v -0.350312 0.787244 -0.136040
v -0.318003 0.776512 -0.152195
v -0.287353 0.776512 -0.152195
v -0.154271 0.836089 -0.099295
v -0.180115 0.951234 0.081807
v -0.125428 0.988684 0.145114
v 0.140590 0.955979 0.079666
v 0.140590 0.951234 0.081806
v -0.180115 0.955979 0.079666
v -0.125428 0.993428 0.142974
v 0.172079 1.014167 0.229896
v 0.172079 1.008922 0.230455
v -0.207890 1.008922 0.230455
v -0.207890 1.014167 0.229896
vn 0.0003 0.8612 -0.5083
vn -0.0000 0.4234 -0.9059
vn -0.0000 0.6652 -0.7466
vn -0.0000 0.9993 0.0361
vn 0.0147 -0.9080 0.4187
vn -0.0000 -0.4233 0.9060
vn -0.0000 -0.6652 0.7467
vn -0.0000 -0.9993 -0.0384
vn -0.9515 -0.1954 -0.2377
vn -0.0000 -0.9059 -0.4234
vn 0.5595 -0.5263 -0.6403
vn -0.9894 0.1214 0.0800
vn 1.0000 -0.0000 -0.0000
vn -0.0000 -0.0361 0.9993
vn -0.6221 -0.3220 -0.7137
vn 0.5547 0.6948 0.4577
vn -0.0000 -0.6668 0.7453
vn -0.0000 -0.6644 0.7474
vn 0.0005 -0.6646 0.7472
vn -0.0066 -0.4233 0.9060
vn -0.0000 -0.4252 0.9051
vn -0.0000 -0.4241 0.9056
vn 0.0099 0.6644 -0.7473
vn -0.0000 0.6644 -0.7474
vn -0.0006 0.6647 -0.7472
vn -0.0000 0.4255 -0.9050
vn -0.0000 0.4243 -0.9055
vn -0.0000 0.8612 -0.5082
vn -0.0000 -0.8610 0.5087
vn -0.5031 0.5488 0.6676
vn 0.9647 0.1083 0.2401
vn -0.0230 0.4995 -0.8660
vn 0.0227 -0.4985 0.8666
vn 0.9976 -0.0469 -0.0513
vn 0.6416 0.4871 0.5925
vn 0.0097 0.6798 -0.7334
vn -0.0097 -0.6799 0.7333
vn 0.9634 -0.0659 -0.2598
vn 0.9883 0.1272 0.0838
vn -0.7181 0.5811 0.3828
vn -1.0000 -0.0000 -0.0000
vn -0.0001 -0.8608 0.5089
vn -0.9599 -0.1892 -0.2068
vn -0.0000 -0.6749 -0.7379
vn -0.5102 -0.5805 -0.6346
vn -0.0000 0.5638 0.8259
vn -0.9669 0.1439 0.2108
vn -0.8008 0.2463 0.5460
vn -0.0000 -0.9986 -0.0524
vn 0.0013 0.9993 0.0361
vn -0.6846 0.0263 -0.7284
vn -0.9334 -0.0380 -0.3567
vn -0.0147 0.9078 -0.4192
vn -0.0001 -0.8609 0.5087
vn -0.9518 -0.2069 -0.2262
vn 0.5603 -0.4670 -0.6841
vn -0.9895 0.1307 0.0611
vn -0.0000 -0.0362 0.9993
vn -0.6232 -0.1924 -0.7580
vn 0.5542 0.6736 0.4891
vn -0.0099 -0.6643 0.7474
vn 0.0020 -0.4241 0.9056
vn 0.0027 -0.4233 0.9060
vn -0.0000 0.6668 -0.7453
vn 0.0072 0.4234 -0.9059
vn -0.0022 0.4243 -0.9055
vn -0.0027 0.4234 -0.9059
vn -0.5039 0.4870 0.7134
vn 0.9644 0.1491 0.2183
vn 0.0127 0.6652 -0.7466
vn -0.0127 -0.6652 0.7466
vn 0.9975 -0.0567 -0.0412
vn 0.6415 0.5177 0.5660
vn -0.0010 0.6652 -0.7466
vn 0.0010 -0.6652 0.7467
vn 0.9653 -0.1075 -0.2382
vn -0.0011 0.8611 -0.5084
vn 0.0005 -0.8609 0.5088
vn 0.0002 0.8610 -0.5086
vn -0.9606 -0.2250 -0.1634
vn -0.5102 -0.5805 -0.6347
vn -0.9671 0.1046 0.2318
vn -0.8007 0.2463 0.5460
vn -0.0013 -0.9993 -0.0384
vn -0.0000 0.9988 0.0491
vn -0.6866 -0.0770 -0.7230
vn -0.9321 -0.0891 -0.3511
vt 0.528105 0.987491
vt 0.528857 0.989461
vt 0.528105 0.989461
vt 0.525103 0.987491
vt 0.521797 0.989461
vt 0.521797 0.987491
vt 0.526647 0.987491
vt 0.526980 0.989461
vt 0.526647 0.989461
vt 0.531149 0.987491
vt 0.533442 0.989461
vt 0.531149 0.989461
vt 0.528105 0.987491
vt 0.528857 0.987491
vt 0.526647 0.987491
vt 0.526980 0.987491
vt 0.533442 0.987491
vt 0.526647 0.981581
vt 0.526980 0.981581
vt 0.521797 0.983551
vt 0.521797 0.981581
vt 0.527366 0.989461
vt 0.525103 0.981581
vt 0.525391 0.989461
vt 0.525103 0.989461
vt 0.521797 0.985521
vt 0.526980 0.983551
vt 0.526647 0.985521
vt 0.526647 0.983551
vt 0.526980 0.985521
vt 0.525103 0.983551
vt 0.525103 0.985521
vt 0.527366 0.985521
vt 0.526980 0.987491
vt 0.527366 0.983551
vt 0.527366 0.981581
vt 0.527366 0.987491
vt 0.527366 0.987491
vt 0.525391 0.985521
vt 0.525391 0.987491
vt 0.528105 0.985521
vt 0.528857 0.987491
s 0
usemtl Material
f 70/1/1 1/2/1 67/3/1
f 20/4/2 5/5/2 26/6/2
f 64/7/3 3/8/3 58/9/3
f 74/10/4 2/11/4 71/12/4
f 66/13/5 9/2/5 28/14/5
f 15/5/6 31/4/6 37/6/6
f 57/15/7 11/8/7 34/16/7
f 73/10/8 10/11/8 38/17/8
f 59/18/9 14/19/9 7/19/9
f 24/20/10 16/21/10 8/21/10
f 39/22/11 11/8/11 3/8/11
f 8/21/12 13/23/12 6/23/12
f 71/12/13 9/2/13 1/2/13
f 38/17/14 2/11/14 27/17/14
f 28/14/15 70/1/15 66/13/15
f 49/24/16 12/25/16 4/25/16
f 12/25/13 5/5/13 4/25/13
f 15/5/10 26/6/10 5/5/10
f 37/6/10 25/26/10 26/6/10
f 36/26/10 24/20/10 25/26/10
f 61/18/17 32/27/17 14/19/17
f 56/28/18 32/27/18 55/29/18
f 57/15/19 33/30/19 56/28/19
f 16/21/20 29/31/20 13/23/20
f 36/26/21 29/31/21 35/20/21
f 37/6/22 30/32/22 36/26/22
f 59/18/23 21/27/23 62/29/23
f 21/27/24 63/28/24 62/29/24
f 22/30/25 64/7/25 63/28/25
f 8/21/26 18/31/26 24/20/26
f 18/31/26 25/26/26 24/20/26
f 19/32/27 26/6/27 25/26/27
f 47/33/28 23/34/28 22/30/28
f 46/35/28 22/30/28 21/27/28
f 40/36/28 21/27/28 7/19/28
f 33/30/29 45/37/29 44/33/29
f 33/30/29 43/35/29 32/27/29
f 32/27/29 42/36/29 14/19/29
f 14/19/30 40/36/30 7/19/30
f 68/3/31 39/22/31 67/3/31
f 11/8/29 45/37/29 34/16/29
f 48/38/28 3/8/28 23/34/28
f 53/39/32 20/4/32 19/32/32
f 31/4/33 51/39/33 30/32/33
f 60/9/34 49/24/34 58/9/34
f 31/4/7 50/24/7 52/40/7
f 20/4/3 49/24/3 4/25/3
f 11/8/35 58/9/35 3/8/35
f 63/28/36 54/40/36 53/39/36
f 52/40/37 56/28/37 51/39/37
f 50/24/7 57/15/7 52/40/7
f 64/7/3 49/24/3 54/40/3
f 9/2/38 67/3/38 1/2/38
f 69/41/28 48/38/28 47/33/28
f 45/37/29 65/41/29 44/33/29
f 13/23/39 18/31/39 6/23/39
f 18/31/40 30/32/40 19/32/40
f 19/32/41 51/39/41 53/39/41
f 45/37/42 68/3/42 66/13/42
f 48/38/28 67/3/28 39/22/28
f 63/28/43 51/39/43 56/28/43
f 63/28/44 55/29/44 62/29/44
f 62/29/45 61/18/45 59/18/45
f 42/36/46 46/35/46 40/36/46
f 47/33/46 43/35/46 44/33/46
f 65/41/47 47/33/47 44/33/47
f 69/41/48 66/13/48 70/1/48
f 2/11/13 72/12/13 71/12/13
f 28/14/49 72/12/49 73/10/49
f 17/42/50 71/12/50 1/2/50
f 27/17/51 73/10/51 38/17/51
f 74/10/52 28/14/52 73/10/52
f 70/1/53 17/42/53 1/2/53
f 20/4/2 4/25/2 5/5/2
f 64/7/3 23/34/3 3/8/3
f 74/10/4 27/17/4 2/11/4
f 66/13/54 68/3/54 9/2/54
f 15/5/6 12/25/6 31/4/6
f 57/15/7 60/9/7 11/8/7
f 73/10/8 72/12/8 10/11/8
f 59/18/55 61/18/55 14/19/55
f 24/20/10 35/20/10 16/21/10
f 39/22/56 41/22/56 11/8/56
f 8/21/57 16/21/57 13/23/57
f 71/12/13 72/12/13 9/2/13
f 38/17/58 10/11/58 2/11/58
f 28/14/59 17/42/59 70/1/59
f 49/24/60 50/24/60 12/25/60
f 12/25/13 15/5/13 5/5/13
f 15/5/10 37/6/10 26/6/10
f 37/6/10 36/26/10 25/26/10
f 36/26/10 35/20/10 24/20/10
f 61/18/61 55/29/61 32/27/61
f 56/28/18 33/30/18 32/27/18
f 57/15/7 34/16/7 33/30/7
f 16/21/21 35/20/21 29/31/21
f 36/26/62 30/32/62 29/31/62
f 37/6/63 31/4/63 30/32/63
f 59/18/64 7/19/64 21/27/64
f 21/27/24 22/30/24 63/28/24
f 22/30/3 23/34/3 64/7/3
f 8/21/65 6/23/65 18/31/65
f 18/31/66 19/32/66 25/26/66
f 19/32/67 20/4/67 26/6/67
f 47/33/28 48/38/28 23/34/28
f 46/35/28 47/33/28 22/30/28
f 40/36/28 46/35/28 21/27/28
f 33/30/29 34/16/29 45/37/29
f 33/30/29 44/33/29 43/35/29
f 32/27/29 43/35/29 42/36/29
f 14/19/68 42/36/68 40/36/68
f 68/3/69 41/22/69 39/22/69
f 11/8/29 41/22/29 45/37/29
f 48/38/28 39/22/28 3/8/28
f 53/39/70 54/40/70 20/4/70
f 31/4/71 52/40/71 51/39/71
f 60/9/72 50/24/72 49/24/72
f 31/4/7 12/25/7 50/24/7
f 20/4/3 54/40/3 49/24/3
f 11/8/73 60/9/73 58/9/73
f 63/28/74 64/7/74 54/40/74
f 52/40/75 57/15/75 56/28/75
f 50/24/7 60/9/7 57/15/7
f 64/7/3 58/9/3 49/24/3
f 9/2/76 68/3/76 67/3/76
f 69/41/77 70/1/77 48/38/77
f 45/37/78 66/13/78 65/41/78
f 13/23/39 29/31/39 18/31/39
f 18/31/40 29/31/40 30/32/40
f 19/32/41 30/32/41 51/39/41
f 45/37/29 41/22/29 68/3/29
f 48/38/79 70/1/79 67/3/79
f 63/28/80 53/39/80 51/39/80
f 63/28/44 56/28/44 55/29/44
f 62/29/81 55/29/81 61/18/81
f 42/36/46 43/35/46 46/35/46
f 47/33/46 46/35/46 43/35/46
f 65/41/82 69/41/82 47/33/82
f 69/41/83 65/41/83 66/13/83
f 2/11/13 10/11/13 72/12/13
f 28/14/84 9/2/84 72/12/84
f 17/42/85 74/10/85 71/12/85
f 27/17/86 74/10/86 73/10/86
f 74/10/87 17/42/87 28/14/87
g freezer_1_Mesh
v 0.617285 0.331798 0.266648
v 0.647094 0.999644 0.279682
v -0.617190 0.331798 0.266649
v -0.648482 0.990472 0.270738
v 0.617285 0.331798 -0.266649
v 0.650372 1.012383 0.184573
v -0.617190 0.331798 -0.266648
v -0.648482 1.004945 0.191648
v -0.627679 0.331798 0.288398
v 0.627772 0.331798 0.288397
v -0.627679 0.331798 -0.372820
v 0.627772 0.331798 -0.372821
v -0.617190 0.000000 0.266649
v 0.617285 0.000000 0.266648
v -0.617190 0.000000 -0.266648
v 0.617285 0.000000 -0.266649
v 0.648577 0.472653 0.268741
v -0.648482 0.472653 0.268742
v -0.648483 0.401103 -0.352868
v 0.648577 0.401103 -0.352869
v -0.648209 0.331798 0.307943
v 0.648303 0.331798 0.307942
v -0.669693 0.429689 0.337789
v -0.648210 0.331798 -0.392365
v -0.669693 0.355483 -0.422212
v 0.648302 0.331798 -0.392366
v 0.669788 0.355483 -0.422213
v 0.669788 0.429689 0.337789
v -0.563325 0.331798 0.288398
v 0.563276 0.331798 0.288397
v 0.601481 1.034317 0.319073
v -0.601533 1.034317 0.319074
v 0.563275 0.331798 -0.372821
v -0.563326 0.331798 -0.372820
v -0.601535 1.037414 0.196787
v 0.601483 1.037414 0.196786
v -0.500699 0.331798 0.266649
v 0.500700 0.331798 0.266648
v 0.500699 0.331798 -0.266649
v -0.500700 0.331798 -0.266648
v -0.500699 0.000000 0.266649
v 0.500700 0.000000 0.266648
v 0.500699 0.000000 -0.266649
v -0.500700 0.000000 -0.266648
v -0.581996 0.375052 -0.401001
v 0.581943 0.375052 -0.401002
v 0.599934 0.457467 0.316578
v -0.599986 0.457467 0.316579
v -0.581755 0.331798 0.307943
v 0.581693 0.331798 0.307942
v 0.581693 0.331798 -0.392366
v -0.581755 0.331798 -0.392365
v -0.601036 0.355483 -0.422212
v 0.600971 0.355483 -0.422213
v 0.619550 0.429689 0.337789
v -0.619615 0.429689 0.337789
v 0.648577 0.457467 0.316578
v 0.648577 1.034317 0.319073
v -0.648482 1.034317 0.319074
v -0.648482 1.039807 0.175090
v 0.648577 1.039807 0.175089
v -0.648482 0.457467 0.316579
v -0.648483 0.375052 -0.401001
v 0.648577 0.375052 -0.401002
v 0.648577 0.751132 0.316578
v -0.648482 0.751132 0.316579
v -0.648483 0.709925 -0.244388
v 0.648577 0.709925 -0.244389
v -0.601534 0.709925 -0.244388
v 0.601480 0.709925 -0.244389
v 0.599934 0.751132 0.316578
v -0.599986 0.751132 0.316579
v 0.648577 0.731563 0.269739
v -0.648482 0.731563 0.269740
v -0.648483 0.704272 -0.207801
v 0.648577 0.704272 -0.207802
v 0.648577 0.897965 0.316578
v 0.648577 0.861018 0.270238
v -0.648482 0.897965 0.316579
v -0.648483 0.885266 -0.088108
v 0.643598 0.900955 -0.087128
v -0.603065 0.908325 -0.076028
v 0.615796 0.893329 -0.076997
v 0.438036 0.902931 0.351012
v -0.599986 0.897965 0.316579
v -0.648482 0.861018 0.270239
v -0.648482 0.891250 -0.035894
v 0.648577 0.891250 -0.035895
v 0.624889 0.861018 0.270238
v 0.624889 0.990472 0.270737
v -0.624794 0.990472 0.270738
v -0.624794 1.004945 0.191648
v 0.622068 0.990774 0.176553
v -0.624794 0.731563 0.269740
v -0.624794 0.472653 0.268741
v -0.624794 0.704272 -0.207801
v -0.624794 0.401103 -0.352868
v 0.624889 0.704272 -0.207802
v 0.624889 0.401103 -0.352869
v 0.624889 0.472653 0.268741
v 0.624889 0.731563 0.269739
v -0.624794 0.861018 0.270239
v -0.624794 0.891250 -0.035894
v 0.624889 0.891250 -0.035895
v -0.648482 0.492415 0.316579
v -0.648483 0.414905 -0.382363
v 0.648577 0.414905 -0.382363
v -0.601534 0.409215 -0.381828
v 0.601480 0.409215 -0.381829
v 0.599934 0.492415 0.316578
v -0.599986 0.492415 0.316579
v -0.648482 0.503465 0.268861
v -0.648483 0.437182 -0.335604
v 0.648577 0.437182 -0.335605
v 0.648577 0.492415 0.316578
v 0.648577 0.503465 0.268860
v -0.624794 0.503465 0.268861
v -0.624794 0.437182 -0.335604
v 0.624889 0.437182 -0.335605
v 0.624889 0.503465 0.268860
v -0.627679 0.331798 -0.042211
v -0.648482 1.037062 0.279197
v 0.627772 0.331798 -0.042212
v 0.648577 1.037062 0.279196
v -0.617190 0.331798 0.000000
v 0.617285 0.331798 -0.000000
v -0.617190 0.000000 0.000000
v 0.617285 0.000000 -0.000000
v 0.648577 0.394633 -0.042212
v -0.648482 0.394633 -0.042211
v -0.648210 0.331798 -0.042211
v 0.648302 0.331798 -0.042212
v 0.669788 0.370960 -0.042212
v -0.669693 0.370960 -0.042211
v -0.500700 0.000000 0.000000
v 0.500700 0.000000 -0.000000
v -0.596996 0.983126 0.291240
v 0.577149 1.016349 0.292264
v -0.648482 0.997709 0.231193
v 0.650869 1.010079 0.252530
v 0.648577 0.415252 -0.042064
v -0.648482 0.415252 -0.042063
v -0.624794 0.997709 0.231193
v 0.624889 0.997709 0.231192
v 0.624889 0.415252 -0.042064
v -0.624794 0.415252 -0.042063
v 0.624889 0.717917 0.030968
v -0.624794 0.717917 0.030969
v 0.624889 0.876134 0.117172
v -0.624794 0.876134 0.117173
v -0.624794 0.448698 -0.033372
v 0.624889 0.448698 -0.033373
v -0.601533 0.409215 0.280228
v 0.601481 0.409215 0.280227
v -0.577335 0.801441 0.264812
v 0.560855 0.934231 0.299990
v -0.601533 0.409215 -0.072469
v -0.601534 0.409215 -0.223800
v 0.601481 0.409215 -0.072470
v 0.601480 0.409215 -0.223800
v -0.601534 0.409215 -0.359494
v 0.601480 0.409215 -0.359495
v -0.601545 1.066215 0.321313
v -0.648506 1.066216 0.321298
v -0.648499 1.069002 0.280719
v -0.648491 1.071772 0.249828
v 0.601489 1.066972 0.250596
v 0.648586 1.071772 0.249827
v 0.648594 1.069002 0.280718
v 0.648602 1.066216 0.321297
v 0.601493 1.066215 0.321312
v -0.601541 1.066972 0.250597
v -0.601544 1.064284 0.281672
v 0.601491 1.064284 0.281672
v -0.594421 0.918044 0.273438
v -0.601533 1.033263 0.175090
v 0.573447 0.985283 0.293870
v 0.601481 1.033263 0.175089
v -0.603141 1.074572 0.290258
v -0.601542 1.071772 0.249828
v 0.601492 1.068989 0.282006
v 0.601490 1.071772 0.249827
v -0.595503 1.064615 0.275758
v -0.563954 1.007928 0.247562
v 0.595450 1.064615 0.275757
v 0.513965 1.026424 0.208280
v -0.593074 1.037417 0.196787
v 0.593022 1.037417 0.196786
v -0.558889 1.063661 0.249336
v 0.593027 1.066975 0.250597
v -0.000026 1.034317 0.319074
v -0.000025 0.331798 0.288398
v -0.000025 0.331798 -0.372821
v 0.000000 0.331798 0.266649
v -0.000000 0.331798 -0.266648
v 0.000000 0.000000 0.266649
v -0.000000 0.000000 -0.266648
v 0.071668 0.369187 -0.397607
v -0.000026 0.457467 0.316578
v -0.000031 0.331798 0.307943
v -0.000031 0.331798 -0.392366
v -0.000033 0.355483 -0.422212
v -0.000032 0.429689 0.337789
v -0.000026 0.751132 0.316578
v -0.080975 0.900448 0.333795
v 0.013464 0.381358 -0.392906
v -0.000026 0.492415 0.316578
v -0.024335 0.967064 0.281701
v -0.000000 0.000000 -0.000000
v 0.009102 0.395192 -0.365752
v 0.025035 0.914720 0.294038
v -0.076514 0.455902 0.281493
v -0.005844 1.069810 0.330607
v -0.010123 1.073525 0.296660
v 0.022497 1.003216 0.286685
v -0.000026 1.064284 0.281672
v -0.037076 1.055201 0.194513
v -0.000026 1.066975 0.250597
v -0.052285 1.021950 0.226310
v -0.000026 1.064615 0.275758
v -0.000026 0.409215 -0.072470
v -0.000026 0.409215 -0.223800
v -0.601533 0.431422 0.280228
v 0.601481 0.431422 0.280227
v 0.601480 0.460442 -0.313633
v 0.601481 0.460442 0.280227
v -0.601534 0.460442 -0.313633
v -0.601533 0.460442 0.280228
v -0.601534 0.431422 -0.324488
v 0.601480 0.431422 -0.324489
v -0.300780 0.460442 0.280228
v -0.000026 0.460442 0.280228
v 0.300727 0.460442 0.280227
v -0.300780 0.460442 -0.313633
v -0.000027 0.460442 -0.313633
v 0.300727 0.460442 -0.313633
v -0.300780 0.431422 -0.324488
v -0.000027 0.431422 -0.324489
v 0.300727 0.431422 -0.324489
v -0.300780 0.431422 0.280228
v -0.000026 0.431422 0.280228
v 0.300727 0.431422 0.280227
v 0.601481 0.460442 0.082274
v 0.601481 0.460442 -0.115680
v -0.601533 0.431422 0.078656
v -0.601533 0.431422 -0.122916
v 0.601481 0.431422 0.078655
v 0.601481 0.431422 -0.122917
v -0.601533 0.460442 0.082274
v -0.601533 0.460442 -0.115679
v -0.300780 0.431422 -0.122916
v -0.300780 0.431422 0.078656
v -0.000026 0.431422 -0.122916
v -0.000026 0.431422 0.078656
v 0.300727 0.431422 -0.122917
v 0.300727 0.431422 0.078655
v -0.300780 0.460442 0.082274
v -0.300780 0.460442 -0.115679
v -0.000026 0.460442 0.082274
v -0.000026 0.460442 -0.115679
v 0.300727 0.460442 0.082274
v 0.300727 0.436767 -0.115679
v -0.601533 0.617451 0.280228
v 0.601481 0.617451 0.280227
v 0.601480 0.646471 -0.231057
v 0.601481 0.646471 0.280227
v -0.601534 0.609442 -0.231056
v -0.601533 0.646471 0.280228
v -0.601534 0.580421 -0.241912
v 0.601480 0.617451 -0.241913
v 0.601481 0.624975 0.109799
v 0.601481 0.624975 -0.060629
v -0.601533 0.617451 0.106181
v -0.601533 0.617451 -0.067866
v 0.601481 0.617451 0.106180
v 0.601481 0.617451 -0.067867
v -0.601533 0.646471 0.109800
v -0.601533 0.620772 -0.060629
v -0.200528 0.601155 0.280228
v 0.200476 0.646471 0.280228
v -0.200529 0.586096 -0.231057
v 0.200476 0.590739 -0.231057
v -0.200529 0.557075 -0.241913
v 0.200476 0.561718 -0.241913
v -0.200528 0.572134 0.280228
v 0.200476 0.617451 0.280228
v -0.200529 0.572134 0.106181
v 0.200476 0.617451 0.106180
v -0.200529 0.585011 -0.067866
v 0.200476 0.617451 -0.067866
v 0.200476 0.646471 0.109799
v -0.200529 0.601155 0.109800
v 0.200476 0.646471 -0.060629
v -0.200529 0.614032 -0.060629
v -0.601533 0.767294 0.280228
v 0.601481 0.823060 0.280227
v 0.601481 0.852081 0.280227
v -0.601533 0.809173 -0.064948
v -0.601533 0.796315 0.280228
v -0.601533 0.780153 -0.075803
v -0.360930 0.852081 0.280228
v -0.120328 0.811634 0.280228
v 0.120275 0.852081 0.280228
v 0.360878 0.852081 0.280227
v -0.360931 0.852081 -0.064948
v -0.120328 0.852081 -0.064948
v 0.120275 0.852081 -0.064948
v 0.339288 0.829630 -0.068823
v -0.360931 0.823060 -0.075804
v -0.120328 0.823060 -0.075804
v 0.120275 0.823060 -0.075804
v 0.339288 0.800609 -0.079678
v -0.360930 0.823060 0.280228
v -0.120328 0.782614 0.280228
v 0.120275 0.823060 0.280228
v 0.360878 0.823060 0.280227
v 0.601481 0.852081 0.165169
v -0.601533 0.823060 0.161551
v -0.601533 0.823060 0.042874
v 0.601481 0.823060 0.161550
v -0.601533 0.852081 0.165169
v -0.601533 0.852081 0.050111
v -0.360931 0.773333 0.042873
v -0.360930 0.823060 0.161550
v -0.120328 0.823060 0.042873
v -0.120328 0.782614 0.161550
v 0.120275 0.823060 0.042873
v 0.120275 0.823060 0.161550
v 0.342229 0.730561 0.042873
v 0.360878 0.777128 0.161550
v -0.360930 0.852081 0.165169
v -0.360931 0.802353 0.050111
v -0.120328 0.811634 0.165169
v -0.120328 0.852081 0.050110
v 0.120275 0.852081 0.165169
v 0.120275 0.852081 0.050110
v 0.360878 0.852081 0.165169
v 0.342229 0.759582 0.050110
v 0.481179 0.852081 0.280227
v 0.481179 0.823060 0.280227
v 0.481179 0.800094 0.161550
v 0.410219 0.776810 0.115023
v 0.481179 0.852081 0.165169
v 0.410219 0.805831 0.122260
v -0.601533 0.801606 -0.016465
v -0.601533 0.830627 -0.007419
v -0.360931 0.827217 -0.007419
v -0.120328 0.852081 -0.007419
v 0.120275 0.852081 -0.007419
v 0.395264 0.753590 0.016350
v -0.360931 0.798196 -0.016465
v -0.120328 0.823060 -0.016465
v 0.120275 0.823060 -0.016465
v 0.395264 0.724569 0.007303
vn -0.0000 -0.0183 0.9998
vn 0.5246 -0.8374 -0.1532
vn -0.3806 0.8202 -0.4271
vn -0.0000 0.0039 -1.0000
vn 1.0000 -0.0000 -0.0000
vn -0.0000 0.9984 0.0559
vn -0.0000 -1.0000 -0.0000
vn -1.0000 -0.0000 -0.0000
vn -0.0000 -0.0000 -1.0000
vn -0.0000 -0.0000 1.0000
vn -0.0000 0.7350 -0.6781
vn -0.0000 0.6069 0.7948
vn 0.8767 -0.4810 -0.0000
vn -0.0000 -0.7833 -0.6216
vn -0.8767 -0.4810 -0.0000
vn -0.0000 -0.2916 0.9565
vn -0.7443 0.6669 -0.0364
vn 0.7398 0.6628 -0.1161
vn -0.0000 0.8736 -0.4866
vn -0.0000 -0.0700 0.9975
vn -1.0000 -0.0005 -0.0002
vn -0.2901 0.8253 -0.4846
vn 0.1622 0.0380 0.9860
vn -0.0331 -0.0187 0.9993
vn 0.9999 0.0113 -0.0090
vn 0.9966 0.0825 0.0022
vn 0.9937 0.0756 -0.0823
vn -0.9653 0.2215 -0.1383
vn 0.0606 0.4149 -0.9078
vn -0.0000 -0.9837 -0.1800
vn -0.0604 0.4149 -0.9078
vn 0.3487 0.0674 -0.9348
vn 0.9979 0.0525 -0.0370
vn -0.0000 -0.1145 0.9934
vn -0.9986 -0.0087 -0.0519
vn -0.0000 0.6654 -0.7465
vn -0.0000 0.9834 -0.1816
vn -0.0000 0.6741 -0.7386
vn -0.0000 -0.9056 0.4242
vn -0.0000 -0.6768 0.7362
vn -0.0000 -0.4316 0.9021
vn -0.0000 -0.4316 0.9020
vn -0.0000 -0.8945 0.4470
vn -0.0000 0.9990 -0.0455
vn -0.0000 0.4894 -0.8721
vn -0.0115 0.4944 -0.8692
vn 0.9997 0.0234 0.0023
vn 0.9992 -0.0396 -0.0027
vn 0.0262 -0.2058 -0.9782
vn -0.0003 -0.0696 0.9976
vn 0.6611 0.7497 -0.0305
vn -0.8227 0.5619 -0.0868
vn -1.0000 -0.0003 -0.0000
vn 0.5924 -0.8024 0.0713
vn -0.9982 0.0300 0.0525
vn 1.0000 0.0031 -0.0000
vn 0.9000 -0.0724 -0.4298
vn 0.0323 0.8927 -0.4496
vn 0.0452 0.0173 -0.9988
vn 0.0016 0.9976 0.0685
vn -0.1357 0.9884 0.0678
vn 0.0100 0.9942 0.1075
vn -0.0000 0.9960 0.0893
vn 0.1230 0.8822 -0.4545
vn 0.0127 -0.3071 0.9516
vn 0.0002 0.8765 -0.4814
vn 1.0000 -0.0008 -0.0001
vn 1.0000 -0.0005 -0.0003
vn -0.0075 -0.8671 -0.4980
vn -0.0000 0.9194 -0.3932
vn 0.9985 0.0531 -0.0101
vn -0.9690 0.1039 -0.2240
vn 0.0167 0.1153 -0.9932
vn 0.9912 0.1286 0.0303
vn -1.0000 0.0003 0.0001
vn -0.0000 0.8512 -0.5248
vn 1.0000 0.0003 -0.0000
vn -1.0000 0.0001 0.0001
vn 0.0253 -0.8581 -0.5129
vn -0.0054 0.9794 -0.2021
vn -0.0061 0.9956 0.0934
vn 0.0794 0.9941 0.0741
vn -0.0003 -0.9765 -0.2155
vn -0.0003 0.8765 -0.4814
vn -0.0298 0.9958 0.0861
vn 0.0282 -0.9443 -0.3280
vn 0.0680 0.9909 -0.1160
vn -0.0000 1.0000 -0.0000
vn -0.0000 0.9952 -0.0983
vn -0.0886 0.9961 -0.0000
vn 0.0248 -0.9902 -0.1375
vn -0.0000 0.9956 0.0934
vn -0.0000 0.8765 -0.4814
vn -0.0161 -0.6650 -0.7466
vn -0.0000 0.0709 -0.9975
vn -0.0087 0.2635 -0.9646
vn -0.0151 -0.0700 0.9974
vn -0.0011 0.9656 0.2599
vn 0.0097 0.0384 -0.9992
vn -0.0473 0.9989 -0.0000
vn 0.0080 0.0749 -0.9972
vn 0.0083 0.3946 -0.9188
vn -0.0000 -0.2212 0.9752
vn -0.0335 0.1292 0.9910
vn -0.0779 0.9899 0.1184
vn -0.0000 0.3504 -0.9366
vn -0.0779 0.9899 -0.1184
vn -0.1310 0.9423 -0.3081
vn 0.0204 0.3503 -0.9364
vn 0.0535 0.9986 -0.0000
vn 0.1111 0.9827 -0.1482
vn -0.1120 0.9909 0.0749
vn 0.1123 0.9937 -0.0000
vn -0.1123 0.9937 -0.0000
vn -0.1120 -0.9910 -0.0733
vn 0.1120 -0.9910 -0.0733
vn -0.1123 -0.9937 -0.0000
vn 0.1123 -0.9937 -0.0000
vn -0.0486 0.3499 -0.9355
vn -0.0041 0.3504 -0.9366
vn -0.0789 -0.9751 0.2075
vn 0.0768 -0.9496 0.3041
vn 0.0168 0.9977 -0.0663
vn -0.0114 0.9868 -0.1617
vn 0.1580 0.7569 -0.6341
vn -0.0624 0.3497 -0.9348
vn 0.8850 0.1631 -0.4360
vn 0.0193 0.3503 -0.9364
vn -0.0133 -0.9403 0.3400
vn 0.0949 -0.9181 -0.3847
vn -0.2400 -0.8021 -0.5468
vn 0.0133 0.9369 -0.3494
vn -0.0944 0.9138 0.3950
vn 0.1020 0.9948 -0.0000
vn 0.3847 0.9230 -0.0000
vn -0.1658 0.9862 -0.0000
vn -0.1566 0.9318 0.3275
vn 0.1658 0.9862 -0.0000
vn -0.1864 0.9019 -0.3898
vn -0.2042 0.8809 0.4270
vn -0.1732 -0.9073 0.3832
vn 0.1658 -0.9862 -0.0000
vn 0.1571 -0.9348 -0.3186
vn -0.1658 -0.9862 -0.0000
vn -0.1571 -0.9348 -0.3186
vn 0.2053 -0.8858 -0.4162
vn -0.0000 0.1237 -0.9923
vn 0.1837 -0.9621 0.2014
vn -0.0000 -0.9818 0.1900
vn 0.6542 0.1830 -0.7338
vn -0.1864 0.9019 0.3898
vn -0.3847 -0.9230 -0.0000
vn 0.1872 -0.9060 -0.3796
vn -0.1873 -0.9060 -0.3796
vn 0.5084 -0.2084 0.8356
vn 0.4872 0.0606 -0.8712
vn 0.4569 -0.8497 -0.2631
vn -0.1202 0.8651 -0.4870
vn 0.9739 -0.2243 0.0347
vn -0.7569 -0.6530 0.0266
vn -0.6611 0.7497 -0.0305
vn 0.8227 0.5619 -0.0868
vn -0.0129 0.7291 -0.6843
vn 0.0003 -0.0696 0.9976
vn -1.0000 -0.0008 -0.0001
vn 0.1238 0.8881 -0.4426
vn 1.0000 0.0031 0.0054
vn -0.0000 0.1093 0.9940
vn 0.9993 0.0007 -0.0382
vn 0.9980 0.0635 -0.0051
vn 0.9997 0.0231 0.0036
vn -0.9346 -0.0591 -0.3509
vn -0.0000 0.4236 -0.9058
vn 0.9913 0.1078 -0.0759
vn -0.0332 -0.0000 0.9995
vn 0.1600 -0.0530 0.9857
vn -0.9996 0.0296 -0.0000
vn -0.1243 0.6414 -0.7570
vn -0.4148 0.5719 -0.7078
vn 0.4717 -0.7744 0.4216
vn -0.0613 0.4228 -0.9041
vn 0.0615 0.4228 -0.9041
vn 0.0004 0.3620 -0.9322
vn 0.9968 0.0548 -0.0584
vn 0.9916 -0.0377 0.1234
vn 0.0155 -0.1228 -0.9923
vn 0.7443 0.6669 -0.0364
vn -0.7398 0.6628 -0.1161
vn -0.9739 -0.2243 0.0347
vn 0.7568 -0.6531 0.0266
vn -1.0000 -0.0005 -0.0003
vn 0.4520 -0.8914 -0.0335
vn 1.0000 -0.0009 -0.0056
vn 0.9863 0.1379 0.0902
vn 0.0230 0.9997 -0.0000
vn 0.0059 -0.0396 -0.9992
vn -0.0000 0.9975 0.0704
vn -0.0001 0.9656 0.2599
vn 0.0070 0.9975 0.0704
vn -0.1065 0.9916 -0.0729
vn 0.0021 0.9963 0.0862
vn 0.0003 0.8765 -0.4814
vn 1.0000 -0.0005 -0.0002
vn 1.0000 -0.0003 -0.0000
vn 0.0003 -0.8647 -0.5023
vn -0.1226 0.8822 -0.4546
vn 0.9987 0.0455 -0.0219
vn -0.9273 0.3678 -0.0703
vn 0.0113 -0.0530 -0.9985
vn 1.0000 0.0003 0.0001
vn 0.0094 0.6416 -0.7670
vn 1.0000 0.0001 0.0001
vn -1.0000 0.0003 -0.0000
vn -0.0113 -0.6884 -0.7252
vn -0.0306 0.9020 -0.4306
vn -0.0000 0.9993 -0.0361
vn 0.0298 0.9958 0.0861
vn 0.1068 -0.9745 -0.1973
vn 0.0542 0.8788 -0.4741
vn 0.0003 0.9956 0.0933
vn 0.0034 -0.8707 -0.4918
vn -0.0237 0.9997 -0.0000
vn 0.0219 0.9951 -0.0969
vn -0.0000 0.9914 -0.1308
vn -0.0018 -0.9557 -0.2943
vn 0.0283 0.9743 -0.2233
vn -0.0177 -0.6868 -0.7266
vn -0.0063 0.8493 -0.5279
vn -0.0122 0.1520 -0.9883
vn -0.0000 -0.3090 0.9510
vn -0.0077 0.9939 0.1097
vn -0.0000 0.0273 -0.9996
vn -0.0162 0.8898 -0.4560
vn 0.0776 -0.1588 -0.9843
vn 0.0066 0.4923 -0.8704
vn -0.0322 -0.1317 0.9908
vn -0.0000 0.2362 0.9717
vn 0.0104 0.8604 -0.5094
vn 0.0779 0.9899 0.1184
vn 0.0779 0.9899 -0.1184
vn 0.0531 0.9907 0.1250
vn 0.1312 -0.9441 0.3023
vn 0.0531 0.9907 -0.1250
vn 0.0168 0.9970 0.0753
vn -0.0806 0.9967 -0.0000
vn -0.0806 -0.9967 -0.0000
vn 0.0806 -0.9967 -0.0000
vn -0.0486 0.3500 -0.9355
vn -0.0574 -0.9857 0.1582
vn 0.0114 -0.9873 0.1585
vn 0.0574 0.9852 -0.1615
vn -0.0767 0.9477 -0.3099
vn -0.0000 0.6801 -0.7331
vn 0.8837 0.1393 -0.4469
vn 0.1623 -0.9101 -0.3813
vn -0.1020 -0.9948 -0.0000
vn -0.1615 0.9059 0.3915
vn 0.2374 0.7969 0.5554
vn -0.0000 0.7794 -0.6266
vn 0.1566 0.9318 0.3275
vn 0.1864 0.9018 -0.3898
vn -0.1753 -0.9182 0.3554
vn 0.1872 -0.9060 0.3796
vn -0.1872 -0.9060 0.3796
vn 0.1842 -0.9650 0.1867
vn -0.0133 0.0694 -0.9975
vn 0.2870 -0.9062 0.3105
vn 0.1753 -0.9182 0.3554
vn 0.2973 0.9042 0.3066
vn -0.1028 0.9947 -0.0000
vn 0.1864 0.9019 0.3898
vn -0.2997 -0.9076 -0.2939
vn 0.1028 -0.9947 -0.0000
vn 0.5187 -0.2544 0.8162
vn 0.4865 0.2114 -0.8477
vt 0.544715 0.293768
vt 0.543470 0.294198
vt 0.543470 0.293754
vt 0.544117 0.292779
vt 0.543873 0.292961
vt 0.543881 0.292593
vt 0.544687 0.282690
vt 0.542296 0.282382
vt 0.544776 0.282435
vt 0.546241 0.292372
vt 0.546024 0.292091
vt 0.546241 0.292091
vt 0.544583 0.288934
vt 0.547624 0.291377
vt 0.544583 0.291377
vt 0.541298 0.288323
vt 0.541361 0.282867
vt 0.541352 0.288323
vt 0.544856 0.282984
vt 0.545054 0.283478
vt 0.544856 0.284052
vt 0.542429 0.294298
vt 0.545054 0.294390
vt 0.542045 0.294395
vt 0.540002 0.294302
vt 0.539036 0.293810
vt 0.540002 0.293235
vt 0.540002 0.282992
vt 0.542045 0.282893
vt 0.542429 0.282988
vt 0.547695 0.284052
vt 0.545268 0.282988
vt 0.547695 0.282984
vt 0.540865 0.289423
vt 0.543905 0.291866
vt 0.540865 0.291866
vt 0.548046 0.294074
vt 0.545028 0.293010
vt 0.548046 0.293005
vt 0.547798 0.293691
vt 0.544776 0.292625
vt 0.547798 0.292623
vt 0.545054 0.282888
vt 0.545232 0.283309
vt 0.544370 0.282456
vt 0.544576 0.282893
vt 0.544370 0.283067
vt 0.539459 0.294201
vt 0.539227 0.293938
vt 0.539459 0.293757
vt 0.542045 0.294583
vt 0.545196 0.286591
vt 0.545554 0.283385
vt 0.545554 0.286593
vt 0.538561 0.283141
vt 0.538858 0.282710
vt 0.538858 0.283320
vt 0.548728 0.286681
vt 0.549088 0.283470
vt 0.549088 0.286678
vt 0.538306 0.294199
vt 0.538306 0.293590
vt 0.539036 0.294400
vt 0.538858 0.293980
vt 0.544370 0.294341
vt 0.541092 0.294536
vt 0.541078 0.294341
vt 0.544403 0.283306
vt 0.544979 0.286593
vt 0.539036 0.282898
vt 0.542045 0.282705
vt 0.538858 0.288650
vt 0.539036 0.288650
vt 0.538306 0.282320
vt 0.539227 0.282584
vt 0.538306 0.282930
vt 0.539227 0.288261
vt 0.538306 0.288260
vt 0.538858 0.294588
vt 0.538561 0.294154
vt 0.538561 0.288647
vt 0.539459 0.282317
vt 0.539227 0.282124
vt 0.539459 0.288260
vt 0.544576 0.293906
vt 0.544576 0.294535
vt 0.544343 0.287742
vt 0.544576 0.288399
vt 0.545232 0.293969
vt 0.545232 0.294577
vt 0.545232 0.288639
vt 0.545054 0.288639
vt 0.547798 0.283448
vt 0.544776 0.282382
vt 0.547798 0.282380
vt 0.544776 0.288038
vt 0.547798 0.288036
vt 0.548046 0.283830
vt 0.545028 0.282767
vt 0.548046 0.282763
vt 0.545028 0.288422
vt 0.548046 0.288418
vt 0.547695 0.294294
vt 0.545268 0.293230
vt 0.547695 0.293226
vt 0.545268 0.288643
vt 0.547695 0.288639
vt 0.539036 0.283489
vt 0.540002 0.288648
vt 0.544856 0.294294
vt 0.545054 0.293800
vt 0.544856 0.288639
vt 0.544715 0.282313
vt 0.545007 0.282745
vt 0.544715 0.282745
vt 0.542626 0.289622
vt 0.542358 0.290008
vt 0.542333 0.289636
vt 0.542278 0.294267
vt 0.544653 0.293858
vt 0.544776 0.294275
vt 0.547243 0.292361
vt 0.549998 0.290786
vt 0.549998 0.292172
vt 0.543470 0.282314
vt 0.543550 0.284245
vt 0.543510 0.289000
vt 0.539435 0.283644
vt 0.540367 0.283305
vt 0.540705 0.283730
vt 0.543052 0.289545
vt 0.542986 0.289183
vt 0.539339 0.283892
vt 0.539067 0.284602
vt 0.539092 0.283648
vt 0.547797 0.289527
vt 0.547616 0.289965
vt 0.547515 0.289528
vt 0.543962 0.286736
vt 0.542600 0.288669
vt 0.544016 0.286257
vt 0.544919 0.289439
vt 0.544793 0.289709
vt 0.544589 0.289281
vt 0.544264 0.283744
vt 0.544790 0.286591
vt 0.548453 0.283832
vt 0.548512 0.286678
vt 0.548323 0.286679
vt 0.542141 0.288110
vt 0.540339 0.287005
vt 0.540428 0.286535
vt 0.548122 0.283990
vt 0.545623 0.284826
vt 0.548326 0.283562
vt 0.544239 0.289540
vt 0.545245 0.289965
vt 0.543900 0.289965
vt 0.541891 0.283735
vt 0.544083 0.283306
vt 0.543981 0.283743
vt 0.542133 0.288258
vt 0.539777 0.293757
vt 0.539777 0.288260
vt 0.542133 0.282315
vt 0.539777 0.282762
vt 0.539777 0.282317
vt 0.542170 0.292829
vt 0.543076 0.293979
vt 0.542608 0.293921
vt 0.545251 0.282605
vt 0.548091 0.283026
vt 0.545203 0.283035
vt 0.543397 0.293194
vt 0.543612 0.293563
vt 0.543395 0.293562
vt 0.548167 0.294048
vt 0.545333 0.294488
vt 0.545279 0.294057
vt 0.546241 0.288838
vt 0.546024 0.287660
vt 0.546229 0.287567
vt 0.542133 0.293755
vt 0.539777 0.294201
vt 0.542651 0.289988
vt 0.539318 0.284515
vt 0.545675 0.285161
vt 0.541712 0.283305
vt 0.542133 0.282761
vt 0.543452 0.290518
vt 0.547888 0.293793
vt 0.549856 0.282598
vt 0.548088 0.282596
vt 0.542471 0.288410
vt 0.542689 0.285534
vt 0.542688 0.288410
vt 0.550023 0.294182
vt 0.548170 0.294479
vt 0.544124 0.290279
vt 0.543863 0.292103
vt 0.543907 0.290275
vt 0.542133 0.294199
vt 0.547028 0.290032
vt 0.548176 0.289297
vt 0.547230 0.291427
vt 0.544331 0.286669
vt 0.545598 0.286369
vt 0.545396 0.287764
vt 0.546808 0.288619
vt 0.548870 0.286531
vt 0.549246 0.289320
vt 0.543178 0.291588
vt 0.545590 0.293078
vt 0.543199 0.294359
vt 0.546783 0.286428
vt 0.545615 0.290887
vt 0.541236 0.289724
vt 0.541453 0.290902
vt 0.541236 0.290902
vt 0.541453 0.292978
vt 0.541236 0.292977
vt 0.541670 0.289443
vt 0.541456 0.287567
vt 0.541673 0.287567
vt 0.541673 0.292350
vt 0.541456 0.292005
vt 0.541673 0.292004
vt 0.546241 0.290016
vt 0.546024 0.288838
vt 0.541236 0.288546
vt 0.541453 0.289724
vt 0.541233 0.285639
vt 0.541453 0.283762
vt 0.541450 0.285638
vt 0.541453 0.288199
vt 0.541236 0.288200
vt 0.543392 0.291244
vt 0.543614 0.293196
vt 0.540643 0.293206
vt 0.540425 0.290356
vt 0.540642 0.290356
vt 0.541453 0.288545
vt 0.541453 0.289444
vt 0.541453 0.293258
vt 0.541236 0.293258
vt 0.542875 0.291681
vt 0.542875 0.294532
vt 0.549152 0.286545
vt 0.549548 0.289413
vt 0.544950 0.294490
vt 0.544946 0.293879
vt 0.544867 0.282606
vt 0.544872 0.283215
vt 0.544864 0.289205
vt 0.539459 0.282763
vt 0.548691 0.283391
vt 0.542090 0.288445
vt 0.545425 0.289536
vt 0.546024 0.290016
vt 0.549225 0.292091
vt 0.549548 0.292264
vt 0.543271 0.288813
vt 0.540426 0.287480
vt 0.540643 0.287480
vt 0.545641 0.288696
vt 0.545194 0.289158
vt 0.546834 0.290810
vt 0.543553 0.288799
vt 0.544371 0.287173
vt 0.546826 0.288637
vt 0.548093 0.288938
vt 0.542689 0.291260
vt 0.542472 0.291260
vt 0.543609 0.293931
vt 0.543392 0.293930
vt 0.547936 0.289965
vt 0.545158 0.289880
vt 0.539117 0.283283
vt 0.542920 0.288820
vt 0.548150 0.293352
vt 0.547509 0.288328
vt 0.547971 0.287874
vt 0.544715 0.294198
vt 0.545007 0.293768
vt 0.545007 0.294198
vt 0.550122 0.288635
vt 0.550122 0.284048
vt 0.550122 0.294289
vt 0.550122 0.293222
vt 0.545232 0.282699
vt 0.541092 0.282262
vt 0.544576 0.282262
vt 0.548190 0.290162
vt 0.549088 0.289886
vt 0.545554 0.289801
vt 0.543905 0.294309
vt 0.540865 0.294309
vt 0.550122 0.282979
vt 0.542308 0.289353
vt 0.547624 0.293820
vt 0.544583 0.293820
vt 0.544124 0.292158
vt 0.549998 0.293415
vt 0.549998 0.293620
vt 0.545132 0.288986
vt 0.547888 0.290562
vt 0.545425 0.290818
vt 0.549998 0.287554
vt 0.544280 0.288517
vt 0.546405 0.287693
vt 0.547723 0.293704
vt 0.547585 0.288109
vt 0.547841 0.288070
vt 0.547888 0.287932
vt 0.547888 0.289175
vt 0.543322 0.287403
vt 0.546446 0.282808
vt 0.541301 0.282812
vt 0.540944 0.282380
vt 0.541313 0.282380
vt 0.540926 0.294265
vt 0.541205 0.293849
vt 0.541295 0.294265
vt 0.540848 0.288376
vt 0.541156 0.288415
vt 0.541577 0.293835
vt 0.541576 0.294265
vt 0.541594 0.282812
vt 0.541594 0.282381
vt 0.542283 0.293837
vt 0.544715 0.288256
vt 0.545049 0.288310
vt 0.541589 0.282812
vt 0.542099 0.282891
vt 0.541589 0.282890
vt 0.538825 0.283262
vt 0.538774 0.283917
vt 0.538800 0.283634
vt 0.546774 0.293163
vt 0.547268 0.292823
vt 0.547691 0.293129
vt 0.544242 0.288319
vt 0.545336 0.287616
vt 0.542132 0.293028
vt 0.542324 0.293906
vt 0.548305 0.288303
vt 0.543996 0.287541
vt 0.543927 0.287833
vt 0.543902 0.287462
vt 0.541861 0.293521
vt 0.541842 0.293809
vt 0.541817 0.293514
vt 0.541290 0.293835
vt 0.543971 0.287826
vt 0.546747 0.287989
vt 0.546774 0.293086
vt 0.542100 0.288664
vt 0.541586 0.293445
vt 0.541581 0.288324
vt 0.541572 0.293835
vt 0.541344 0.293780
vt 0.547691 0.282368
vt 0.546800 0.282219
vt 0.546800 0.282141
vt 0.542082 0.293759
vt 0.542082 0.293837
vt 0.541307 0.282812
vt 0.547071 0.288133
vt 0.547642 0.287451
vt 0.541671 0.282681
vt 0.544895 0.288193
vt 0.541631 0.288892
vt 0.544896 0.282681
vt 0.546279 0.288193
vt 0.546280 0.282681
vt 0.547518 0.293704
vt 0.546278 0.293704
vt 0.544894 0.293704
vt 0.541669 0.293704
vt 0.546915 0.282945
vt 0.548128 0.282628
vt 0.547516 0.282650
vt 0.540926 0.293834
vt 0.542896 0.293615
vt 0.547693 0.293238
vt 0.547521 0.282681
vt 0.547725 0.282681
vt 0.544976 0.288671
vt 0.544856 0.293227
vt 0.540002 0.284060
vt 0.545028 0.283835
vt 0.544776 0.283450
vt 0.544370 0.293731
vt 0.572844 0.368641
vt 0.566433 0.368641
vt 0.572844 0.391636
vt 0.572844 0.385887
vt 0.545374 0.443394
vt 0.538963 0.437645
vt 0.545374 0.437645
vt 0.553612 0.385887
vt 0.560022 0.391636
vt 0.560022 0.385887
vt 0.553612 0.391636
vt 0.553612 0.368641
vt 0.553612 0.374390
vt 0.553612 0.380139
vt 0.560022 0.368641
vt 0.560022 0.374390
vt 0.560022 0.380139
vt 0.545374 0.426148
vt 0.538963 0.420399
vt 0.545374 0.420399
vt 0.538963 0.431896
vt 0.538963 0.426148
vt 0.545374 0.431896
vt 0.572844 0.374390
vt 0.572844 0.380139
vt 0.558195 0.437645
vt 0.551785 0.431896
vt 0.558195 0.431896
vt 0.551785 0.437645
vt 0.551785 0.426148
vt 0.558195 0.426148
vt 0.558195 0.420399
vt 0.551785 0.420399
vt 0.566433 0.380139
vt 0.566433 0.385887
vt 0.566433 0.374390
vt 0.566433 0.391636
vt 0.558195 0.443394
vt 0.566433 0.368641
vt 0.572844 0.383971
vt 0.545374 0.435729
vt 0.538963 0.443394
vt 0.538963 0.435729
vt 0.560022 0.383971
vt 0.553612 0.376306
vt 0.566433 0.383971
vt 0.551785 0.435729
vt 0.558195 0.435729
vt 0.551785 0.443394
vt 0.551785 0.428064
vt 0.545374 0.428064
vt 0.558195 0.428064
vt 0.560022 0.376306
vt 0.566433 0.376306
vt 0.572844 0.376306
vt 0.553612 0.383971
vt 0.538963 0.428064
vt 0.572844 0.389337
vt 0.551785 0.438795
vt 0.545374 0.441094
vt 0.545374 0.438795
vt 0.553612 0.373240
vt 0.556817 0.387037
vt 0.553612 0.387037
vt 0.553612 0.382438
vt 0.553612 0.377839
vt 0.556817 0.373240
vt 0.556817 0.368641
vt 0.556817 0.377839
vt 0.556817 0.382438
vt 0.542168 0.424998
vt 0.542168 0.420399
vt 0.542168 0.429597
vt 0.538963 0.424998
vt 0.542168 0.434196
vt 0.538963 0.429597
vt 0.538963 0.438795
vt 0.538963 0.434196
vt 0.572844 0.373240
vt 0.572844 0.377839
vt 0.572844 0.382438
vt 0.572844 0.387037
vt 0.558195 0.438795
vt 0.551785 0.434196
vt 0.558195 0.434196
vt 0.545374 0.434196
vt 0.551785 0.429597
vt 0.558195 0.429597
vt 0.545374 0.429597
vt 0.551785 0.424998
vt 0.558195 0.424998
vt 0.545374 0.424998
vt 0.566433 0.382438
vt 0.560022 0.387037
vt 0.566433 0.387037
vt 0.560022 0.377839
vt 0.566433 0.377839
vt 0.566433 0.373240
vt 0.558195 0.441094
vt 0.551785 0.441094
vt 0.566433 0.389337
vt 0.560022 0.389337
vt 0.566433 0.389337
vt 0.560022 0.382438
vt 0.560022 0.373240
vt 0.544077 0.293036
vt 0.542300 0.282814
vt 0.546024 0.292371
vt 0.547624 0.288934
vt 0.545268 0.284056
vt 0.543905 0.289423
vt 0.545028 0.294078
vt 0.544776 0.293693
vt 0.539227 0.294397
vt 0.544658 0.283109
vt 0.538561 0.282511
vt 0.548870 0.283199
vt 0.538561 0.294783
vt 0.545268 0.294298
vt 0.545007 0.282313
vt 0.550083 0.283014
vt 0.542472 0.285534
vt 0.550083 0.294435
vt 0.544413 0.286311
vt 0.541456 0.292351
vt 0.541453 0.288546
vt 0.541236 0.283762
vt 0.543609 0.291245
vt 0.540426 0.293206
vt 0.548010 0.288579
vt 0.541078 0.282456
vt 0.545338 0.290072
vt 0.547888 0.287727
vt 0.542896 0.282593
vt 0.540943 0.282811
vt 0.542099 0.282814
vt 0.544740 0.287453
vt 0.548431 0.293385
vt 0.541885 0.293806
vt 0.542168 0.438795
s 0
usemtl Material
f 106/43/88 153/44/88 159/45/88
f 214/46/89 164/47/89 218/48/89
f 157/49/90 135/50/90 155/51/90
f 91/52/91 194/53/91 190/54/91
f 75/55/92 202/56/92 200/57/92
f 290/58/93 259/59/93 294/60/93
f 75/61/94 104/62/94 112/63/94
f 199/64/94 83/65/94 195/66/94
f 81/67/94 108/68/94 114/69/94
f 79/70/94 197/71/94 200/72/94
f 210/73/94 90/74/94 202/75/94
f 81/76/95 201/77/95 199/78/95
f 79/79/96 117/80/96 113/81/96
f 77/82/97 115/83/97 111/84/97
f 84/85/94 124/86/94 104/62/94
f 138/87/98 128/88/98 120/89/98
f 136/90/99 130/91/99 122/92/99
f 83/65/94 205/93/94 195/66/94
f 207/94/100 96/95/100 206/96/100
f 128/97/101 100/98/101 125/99/101
f 208/100/102 98/101/102 205/102/102
f 130/91/103 95/103/103 123/104/103
f 85/105/94 126/106/94 108/68/94
f 137/107/104 208/108/104 204/109/104
f 131/110/105 207/94/105 203/111/105
f 86/112/94 206/113/94 197/71/94
f 86/112/94 125/99/94 100/98/94
f 108/68/94 275/114/94 267/115/94
f 96/116/103 129/117/103 124/118/103
f 277/119/103 123/104/103 274/120/103
f 98/121/101 127/122/101 126/106/101
f 276/123/101 125/99/101 275/114/101
f 131/124/99 129/117/99 102/125/99
f 122/92/99 277/119/99 273/126/99
f 137/107/98 127/127/98 99/128/98
f 272/129/106 128/88/106 276/130/106
f 83/65/94 123/131/94 95/132/94
f 104/62/94 274/133/94 266/134/94
f 112/135/97 88/136/97 75/137/97
f 111/84/97 270/138/97 268/139/97
f 114/140/96 89/141/96 81/142/96
f 113/81/96 271/143/96 269/144/96
f 201/145/94 118/146/94 209/147/94
f 271/148/94 210/73/94 283/149/94
f 79/70/94 107/150/94 86/112/94
f 114/69/94 267/115/94 269/151/94
f 77/152/94 103/153/94 83/65/94
f 112/63/94 266/134/94 268/154/94
f 132/155/107 245/156/107 105/157/107
f 196/158/108 238/159/108 239/160/108
f 134/161/109 156/162/109 154/163/109
f 143/164/92 231/165/92 232/166/92
f 151/167/110 105/157/110 158/168/110
f 279/169/111 106/43/111 159/45/111
f 76/170/112 151/171/112 152/172/112
f 78/173/95 196/158/95 213/174/95
f 214/175/113 135/176/113 198/177/113
f 92/178/95 179/179/95 186/180/95
f 161/181/95 134/182/95 154/183/95
f 94/184/92 181/185/92 188/186/92
f 91/187/92 203/111/92 215/188/92
f 93/189/95 204/190/95 216/191/95
f 150/192/114 155/193/114 162/194/114
f 187/195/95 141/196/95 180/197/95
f 160/198/95 140/199/95 153/200/95
f 147/201/92 189/202/92 190/203/92
f 278/204/97 185/205/97 281/206/97
f 139/207/97 184/208/97 189/209/97
f 252/210/115 230/211/115 251/212/115
f 180/213/116 143/214/116 182/215/116
f 82/216/117 217/217/117 213/218/117
f 144/219/118 181/220/118 183/221/118
f 152/222/119 164/223/119 76/224/119
f 146/225/97 179/226/97 185/205/97
f 78/173/95 153/200/95 133/227/95
f 162/194/120 135/176/120 80/228/120
f 149/229/95 154/183/95 141/196/95
f 152/172/92 139/230/92 147/201/92
f 279/169/121 146/225/121 278/204/121
f 151/167/97 145/231/97 139/207/97
f 157/232/122 228/233/122 252/210/122
f 154/234/123 143/214/123 141/235/123
f 216/236/124 169/237/124 220/238/124
f 157/239/125 142/240/125 144/219/125
f 162/241/126 167/242/126 178/243/126
f 159/45/97 140/244/97 146/225/97
f 224/245/95 166/246/95 177/247/95
f 218/248/92 163/249/92 223/250/92
f 221/251/92 194/252/92 226/253/92
f 225/254/95 170/255/95 192/256/95
f 223/250/92 175/257/92 221/251/92
f 222/258/95 177/247/95 170/255/95
f 160/259/91 168/260/91 148/261/91
f 148/261/91 191/262/91 186/263/91
f 149/264/127 177/265/127 161/266/127
f 93/267/128 192/268/128 187/269/128
f 147/270/91 163/271/91 152/222/91
f 78/272/91 176/273/91 160/259/91
f 150/274/127 178/275/127 172/276/127
f 150/274/129 193/277/129 188/278/129
f 161/279/130 166/280/130 82/216/130
f 94/281/131 219/282/131 215/283/131
f 94/272/128 193/277/128 173/284/128
f 187/269/129 170/285/129 149/264/129
f 186/263/91 169/286/91 92/287/91
f 220/288/95 192/256/95 171/289/95
f 226/253/92 174/290/92 219/291/92
f 185/205/97 136/90/97 122/92/97
f 183/221/132 138/292/132 120/293/132
f 137/294/132 182/215/132 119/295/132
f 272/296/133 183/221/133 120/293/133
f 189/209/97 121/297/97 131/124/97
f 281/206/97 122/92/97 273/126/97
f 91/187/92 189/202/92 131/110/92
f 93/189/95 180/197/95 137/298/95
f 188/186/92 142/299/92 150/192/92
f 148/300/95 179/179/95 140/199/95
f 190/54/91 175/301/91 147/270/91
f 193/302/92 219/291/92 173/303/92
f 169/304/95 225/254/95 220/288/95
f 215/283/124 174/305/124 91/306/124
f 168/307/95 224/245/95 222/258/95
f 178/308/92 221/251/92 172/309/92
f 191/310/95 222/258/95 225/254/95
f 172/309/92 226/253/92 193/302/92
f 167/311/134 223/250/134 178/308/134
f 176/312/95 217/313/95 224/245/95
f 216/236/131 171/314/131 93/315/131
f 213/218/117 165/316/117 78/317/117
f 92/178/95 204/190/95 136/318/95
f 94/184/92 203/111/92 138/319/92
f 76/170/135 198/177/135 132/320/135
f 213/174/95 134/182/95 82/321/95
f 251/322/136 285/323/136 282/324/136
f 133/325/137 237/326/137 238/327/137
f 270/328/94 210/73/94 116/329/94
f 87/330/94 209/147/94 115/331/94
f 84/85/94 206/113/94 96/332/94
f 138/87/138 207/333/138 101/334/138
f 136/318/139 208/100/139 97/335/139
f 95/336/102 208/100/102 205/102/102
f 100/337/100 207/94/100 206/96/100
f 85/105/94 205/93/94 98/121/94
f 199/78/95 87/338/95 77/339/95
f 116/329/94 202/75/94 88/340/94
f 200/72/94 84/85/94 75/61/94
f 81/67/94 195/66/94 85/105/94
f 196/158/140 240/341/140 134/182/140
f 200/57/92 90/342/92 79/343/92
f 80/344/141 218/48/141 167/242/141
f 143/164/92 235/345/92 182/346/92
f 144/347/142 233/348/142 157/232/142
f 156/349/143 227/350/143 231/165/143
f 250/351/144 229/352/144 227/350/144
f 182/353/145 284/354/145 280/355/145
f 144/347/95 236/356/95 234/357/95
f 286/358/146 229/359/146 285/323/146
f 255/360/147 244/361/147 243/362/147
f 238/363/148 253/364/148 239/365/148
f 287/366/149 255/360/149 288/367/149
f 239/365/150 254/368/150 240/369/150
f 256/370/150 243/362/150 242/371/150
f 134/161/151 254/368/151 250/372/151
f 265/373/152 245/156/152 287/374/152
f 241/375/153 262/376/153 264/377/153
f 198/177/154 244/378/154 132/320/154
f 198/177/155 242/379/155 243/380/155
f 109/381/156 258/382/156 211/383/156
f 135/50/157 256/370/157 242/371/157
f 109/384/158 249/385/158 250/351/158
f 110/386/159 251/212/159 212/387/159
f 289/388/160 251/322/160 282/324/160
f 247/389/161 254/390/161 253/391/161
f 241/392/162 255/393/162 256/394/162
f 247/395/163 288/367/163 290/58/163
f 109/384/164 254/390/164 246/396/164
f 110/386/165 256/394/165 252/210/165
f 291/397/166 258/382/166 261/398/166
f 291/399/167 263/400/167 292/401/167
f 263/400/168 294/60/168 292/401/168
f 246/402/169 257/403/169 263/400/169
f 212/404/170 262/405/170 110/406/170
f 246/402/171 261/407/171 109/408/171
f 241/375/172 259/59/172 248/409/172
f 211/383/173 293/410/173 289/411/173
f 228/412/174 295/413/174 286/414/174
f 233/415/175 296/416/175 295/413/175
f 234/417/176 284/354/176 296/416/176
f 296/416/175 235/418/175 232/419/175
f 295/413/175 232/419/175 231/420/175
f 286/414/177 231/420/177 227/421/177
f 289/411/178 260/422/178 212/404/178
f 264/377/179 294/60/179 259/59/179
f 262/376/180 292/401/180 264/377/180
f 260/422/181 291/397/181 262/405/181
f 290/58/182 255/360/182 248/409/182
f 211/423/183 282/324/183 249/424/183
f 106/43/184 287/374/184 237/326/184
f 237/425/185 288/367/185 253/364/185
f 228/426/186 285/323/186 230/427/186
f 280/355/187 236/428/187 183/429/187
f 209/147/94 270/328/94 115/331/94
f 282/324/188 229/359/188 249/424/188
f 184/208/97 273/126/97 121/297/97
f 119/295/189 280/430/189 272/296/189
f 158/168/190 278/204/190 145/231/190
f 145/231/97 281/206/97 184/208/97
f 158/168/191 265/373/191 279/169/191
f 111/431/94 266/134/94 103/153/94
f 113/432/94 267/115/94 107/150/94
f 118/146/94 283/149/94 209/147/94
f 269/144/96 118/433/96 114/140/96
f 268/139/97 116/434/97 112/135/97
f 103/153/94 274/133/94 123/131/94
f 119/435/98 276/130/98 127/127/98
f 121/297/99 277/119/99 129/117/99
f 126/106/101 276/123/101 275/114/101
f 124/118/103 277/119/103 274/120/103
f 107/150/94 275/114/94 125/99/94
f 290/58/93 257/403/93 247/395/93
f 297/436/95 323/437/95 319/437/95
f 298/438/97 307/439/97 316/439/97
f 318/440/192 310/441/192 336/442/192
f 313/443/94 322/444/94 329/445/94
f 322/444/92 299/446/92 318/444/92
f 303/447/193 308/448/193 311/448/193
f 304/446/193 310/443/193 299/446/193
f 312/449/193 310/443/193 313/443/193
f 311/448/193 309/449/193 312/449/193
f 320/450/94 311/448/94 325/451/94
f 311/448/94 327/452/94 325/451/94
f 312/449/94 329/445/94 327/452/94
f 332/453/175 301/454/175 324/455/175
f 332/453/175 309/456/175 308/457/175
f 334/458/175 310/441/175 309/456/175
f 314/459/97 302/436/97 297/436/97
f 315/460/97 305/459/97 314/459/97
f 316/439/97 306/460/97 315/460/97
f 307/461/175 333/462/175 306/463/175
f 335/464/175 334/458/175 333/462/175
f 306/463/175 331/465/175 305/466/175
f 331/465/175 334/458/175 332/453/175
f 302/467/175 331/465/175 323/468/175
f 331/465/175 324/455/175 323/468/175
f 328/469/94 316/439/94 315/460/94
f 327/452/94 330/470/94 328/469/94
f 314/459/94 328/469/94 315/460/94
f 326/471/94 327/452/94 328/469/94
f 297/436/94 326/471/94 314/459/94
f 319/437/94 325/451/94 326/471/94
f 298/438/92 317/472/92 300/438/92
f 321/472/92 318/444/92 317/472/92
f 330/470/94 298/438/94 316/439/94
f 330/470/94 322/444/94 321/472/94
f 300/473/175 335/464/175 307/461/175
f 335/464/194 318/440/194 336/442/194
f 320/450/95 301/447/95 303/447/95
f 319/437/95 324/450/95 320/450/95
f 337/436/95 351/437/95 347/474/95
f 338/438/97 354/475/97 360/475/97
f 367/476/195 339/477/195 356/478/195
f 364/479/94 344/446/94 350/444/94
f 350/444/92 339/446/92 346/444/92
f 343/447/196 355/480/196 357/480/196
f 338/438/92 345/472/92 340/438/92
f 349/472/92 346/444/92 345/472/92
f 362/481/94 338/438/94 360/475/94
f 362/481/94 350/444/94 349/472/94
f 340/473/175 365/482/175 354/483/175
f 345/484/197 367/476/197 365/482/197
f 348/450/95 341/447/95 343/447/95
f 347/474/95 352/450/95 348/450/95
f 366/485/198 352/455/198 351/468/198
f 365/482/199 368/486/199 366/485/199
f 353/487/200 351/468/200 342/467/200
f 354/483/201 366/485/201 353/487/201
f 347/474/202 363/488/202 361/489/202
f 363/488/203 362/481/203 361/489/203
f 347/474/204 359/490/204 337/436/204
f 361/489/205 360/475/205 359/490/205
f 344/446/206 356/491/206 339/446/206
f 358/491/207 355/480/207 356/491/207
f 343/447/208 363/488/208 348/450/208
f 363/488/209 358/491/209 364/479/209
f 368/486/210 341/454/210 352/455/210
f 368/486/211 356/478/211 355/492/211
f 337/436/97 353/490/97 342/436/97
f 360/475/97 353/490/97 359/490/97
f 392/474/95 373/436/95 395/437/95
f 370/438/97 413/493/97 414/493/97
f 411/494/212 418/495/212 412/496/212
f 383/497/213 372/447/213 379/497/213
f 424/498/214 386/499/214 382/499/214
f 385/500/215 382/499/215 386/499/215
f 385/500/193 380/501/193 381/500/193
f 384/501/193 379/497/193 380/501/193
f 374/447/216 425/502/216 419/503/216
f 383/497/217 426/504/217 425/502/217
f 426/504/94 385/500/94 427/505/94
f 427/505/218 386/499/218 428/498/218
f 421/506/219 372/454/219 420/507/219
f 422/508/220 379/509/220 421/506/220
f 423/510/175 380/511/175 422/508/175
f 423/510/221 382/512/221 381/513/221
f 387/514/97 373/436/97 369/436/97
f 387/514/97 376/515/97 375/514/97
f 389/516/97 376/515/97 388/515/97
f 390/517/97 377/516/97 389/516/97
f 378/518/175 409/519/175 377/520/175
f 409/519/222 412/496/222 410/521/222
f 377/520/223 407/522/223 376/523/223
f 409/519/224 408/524/224 407/522/224
f 376/523/225 405/525/225 375/526/225
f 405/525/226 408/524/226 406/527/226
f 375/526/227 395/468/227 373/467/227
f 405/525/175 396/455/175 395/468/175
f 402/528/94 390/517/94 389/516/94
f 402/528/228 403/529/228 404/530/228
f 388/515/229 402/528/229 389/516/229
f 399/531/230 402/528/230 400/532/230
f 387/514/231 400/532/231 388/515/231
f 398/533/232 399/531/232 400/532/232
f 392/474/233 387/514/233 369/436/233
f 393/450/94 398/533/94 392/474/94
f 370/438/92 391/472/92 371/438/92
f 414/493/94 394/472/94 370/438/94
f 413/534/175 391/484/175 417/535/175
f 394/472/234 417/536/234 391/472/234
f 393/450/95 420/503/95 419/503/95
f 392/474/95 396/450/95 393/450/95
f 378/518/175 417/535/175 411/494/175
f 404/530/235 416/537/235 415/538/235
f 390/517/236 415/538/236 414/493/236
f 412/529/237 416/537/237 403/529/237
f 414/493/97 378/517/97 390/517/97
f 419/503/95 372/447/95 374/447/95
f 412/496/222 423/510/222 410/521/222
f 410/521/175 422/508/175 408/524/175
f 408/524/238 421/506/238 406/527/238
f 396/455/219 421/506/219 420/507/219
f 427/505/239 403/529/239 401/539/239
f 399/531/94 427/505/94 401/539/94
f 425/502/240 399/531/240 397/540/240
f 393/450/241 425/502/241 397/540/241
f 403/529/242 424/498/242 412/529/242
f 415/538/243 418/537/243 417/536/243
f 106/43/88 133/325/88 153/44/88
f 214/46/244 76/541/244 164/47/244
f 157/49/245 252/542/245 135/50/245
f 91/52/91 174/543/91 194/53/91
f 75/55/92 88/544/92 202/56/92
f 290/58/93 248/409/93 259/59/93
f 75/61/94 84/85/94 104/62/94
f 199/64/94 77/152/94 83/65/94
f 81/67/94 85/105/94 108/68/94
f 79/70/94 86/112/94 197/71/94
f 210/73/94 117/545/94 90/74/94
f 81/76/95 89/546/95 201/77/95
f 79/79/96 90/547/96 117/80/96
f 77/82/97 87/548/97 115/83/97
f 84/85/94 96/332/94 124/86/94
f 138/87/98 101/334/98 128/88/98
f 136/90/99 97/549/99 130/91/99
f 83/65/94 95/132/94 205/93/94
f 207/94/246 102/550/246 96/95/246
f 128/97/101 101/551/101 100/98/101
f 208/100/247 99/552/247 98/101/247
f 130/91/103 97/549/103 95/103/103
f 85/105/94 98/121/94 126/106/94
f 137/107/248 99/128/248 208/108/248
f 131/110/249 102/550/249 207/94/249
f 86/112/94 100/98/94 206/113/94
f 86/112/94 107/150/94 125/99/94
f 108/68/94 126/106/94 275/114/94
f 96/116/103 102/125/103 129/117/103
f 277/119/103 130/91/103 123/104/103
f 98/121/101 99/553/101 127/122/101
f 276/123/101 128/97/101 125/99/101
f 131/124/99 121/297/99 129/117/99
f 122/92/99 130/91/99 277/119/99
f 137/107/98 119/435/98 127/127/98
f 272/129/250 120/89/250 128/88/250
f 83/65/94 103/153/94 123/131/94
f 104/62/94 124/86/94 274/133/94
f 112/135/97 116/434/97 88/136/97
f 111/84/97 115/83/97 270/138/97
f 114/140/96 118/433/96 89/141/96
f 113/81/96 117/80/96 271/143/96
f 201/145/94 89/554/94 118/146/94
f 271/148/94 117/545/94 210/73/94
f 79/70/94 113/432/94 107/150/94
f 114/69/94 108/68/94 267/115/94
f 77/152/94 111/431/94 103/153/94
f 112/63/94 104/62/94 266/134/94
f 132/155/251 244/555/251 245/156/251
f 196/158/252 133/227/252 238/159/252
f 134/161/253 250/372/253 156/162/253
f 143/164/254 156/349/254 231/165/254
f 151/167/88 132/155/88 105/157/88
f 279/169/255 265/373/255 106/43/255
f 76/170/256 132/320/256 151/171/256
f 78/173/95 133/227/95 196/158/95
f 214/175/257 80/228/257 135/176/257
f 92/178/95 136/318/95 179/179/95
f 161/181/95 82/321/95 134/182/95
f 94/184/92 138/319/92 181/185/92
f 91/187/92 131/110/92 203/111/92
f 93/189/95 137/298/95 204/190/95
f 150/192/258 142/299/258 155/193/258
f 187/195/95 149/229/95 141/196/95
f 160/198/95 148/300/95 140/199/95
f 147/201/92 139/230/92 189/202/92
f 278/204/97 146/225/97 185/205/97
f 139/207/97 145/231/97 184/208/97
f 252/210/259 228/233/259 230/211/259
f 180/213/260 141/235/260 143/214/260
f 82/216/117 166/280/117 217/217/117
f 144/219/260 142/240/260 181/220/260
f 152/222/91 163/271/91 164/223/91
f 146/225/97 140/244/97 179/226/97
f 78/173/95 160/198/95 153/200/95
f 162/194/261 155/193/261 135/176/261
f 149/229/95 161/181/95 154/183/95
f 152/172/92 151/171/92 139/230/92
f 279/169/262 159/45/262 146/225/262
f 151/167/263 158/168/263 145/231/263
f 157/232/264 233/348/264 228/233/264
f 154/234/265 156/556/265 143/214/265
f 216/236/124 92/557/124 169/237/124
f 157/239/266 155/558/266 142/240/266
f 162/241/267 80/344/267 167/242/267
f 159/45/97 153/44/97 140/244/97
f 224/245/95 217/313/95 166/246/95
f 218/248/92 164/559/92 163/249/92
f 221/251/92 175/257/92 194/252/92
f 225/254/95 222/258/95 170/255/95
f 223/250/92 163/249/92 175/257/92
f 222/258/95 224/245/95 177/247/95
f 160/259/91 176/273/91 168/260/91
f 148/261/91 168/260/91 191/262/91
f 149/264/127 170/285/127 177/265/127
f 93/267/128 171/560/128 192/268/128
f 147/270/91 175/301/91 163/271/91
f 78/272/91 165/561/91 176/273/91
f 150/274/127 162/562/127 178/275/127
f 150/274/129 172/276/129 193/277/129
f 161/279/130 177/563/130 166/280/130
f 94/281/131 173/564/131 219/282/131
f 94/272/129 188/278/129 193/277/129
f 187/269/129 192/268/129 170/285/129
f 186/263/91 191/262/91 169/286/91
f 220/288/95 225/254/95 192/256/95
f 226/253/92 194/252/92 174/290/92
f 185/205/97 179/226/97 136/90/97
f 183/221/268 181/220/268 138/292/268
f 137/294/269 180/213/269 182/215/269
f 272/296/270 280/430/270 183/221/270
f 189/209/97 184/208/97 121/297/97
f 281/206/97 185/205/97 122/92/97
f 91/187/92 190/203/92 189/202/92
f 93/189/95 187/195/95 180/197/95
f 188/186/92 181/185/92 142/299/92
f 148/300/95 186/180/95 179/179/95
f 190/54/91 194/53/91 175/301/91
f 193/302/92 226/253/92 219/291/92
f 169/304/95 191/310/95 225/254/95
f 215/283/124 219/282/124 174/305/124
f 168/307/95 176/312/95 224/245/95
f 178/308/92 223/250/92 221/251/92
f 191/310/95 168/307/95 222/258/95
f 172/309/92 221/251/92 226/253/92
f 167/311/271 218/248/271 223/250/271
f 176/312/95 165/565/95 217/313/95
f 216/236/131 220/238/131 171/314/131
f 213/218/117 217/217/117 165/316/117
f 92/178/95 216/191/95 204/190/95
f 94/184/92 215/188/92 203/111/92
f 76/170/272 214/175/272 198/177/272
f 213/174/95 196/158/95 134/182/95
f 251/322/273 230/427/273 285/323/273
f 133/325/107 106/43/107 237/326/107
f 270/328/94 283/149/94 210/73/94
f 87/330/94 201/145/94 209/147/94
f 84/85/94 197/71/94 206/113/94
f 138/87/274 203/566/274 207/333/274
f 136/318/275 204/190/275 208/100/275
f 95/336/276 97/335/276 208/100/276
f 100/337/277 101/567/277 207/94/277
f 85/105/94 195/66/94 205/93/94
f 199/78/95 201/77/95 87/338/95
f 116/329/94 210/73/94 202/75/94
f 200/72/94 197/71/94 84/85/94
f 81/67/94 199/64/94 195/66/94
f 196/158/278 239/160/278 240/341/278
f 200/57/92 202/56/92 90/342/92
f 80/344/279 214/46/279 218/48/279
f 143/164/92 232/166/92 235/345/92
f 144/347/95 234/357/95 233/348/95
f 156/349/280 250/351/280 227/350/280
f 250/351/281 249/385/281 229/352/281
f 182/353/282 235/418/282 284/354/282
f 144/347/95 183/568/95 236/356/95
f 286/358/283 227/569/283 229/359/283
f 255/360/284 245/570/284 244/361/284
f 238/363/285 237/425/285 253/364/285
f 287/366/286 245/570/286 255/360/286
f 239/365/287 253/364/287 254/368/287
f 256/370/288 255/360/288 243/362/288
f 134/161/157 240/369/157 254/368/157
f 265/373/107 105/157/107 245/156/107
f 241/375/289 110/571/289 262/376/289
f 198/177/290 243/380/290 244/378/290
f 198/177/291 135/176/291 242/379/291
f 109/381/292 261/398/292 258/382/292
f 135/50/293 252/542/293 256/370/293
f 109/384/294 211/572/294 249/385/294
f 110/386/295 252/210/295 251/212/295
f 289/388/296 212/573/296 251/322/296
f 247/389/297 246/396/297 254/390/297
f 241/392/165 248/574/165 255/393/165
f 247/395/298 253/364/298 288/367/298
f 109/384/299 250/351/299 254/390/299
f 110/386/300 241/392/300 256/394/300
f 291/397/301 293/410/301 258/382/301
f 291/399/302 261/407/302 263/400/302
f 263/400/303 257/403/303 294/60/303
f 246/402/304 247/395/304 257/403/304
f 212/404/305 260/422/305 262/405/305
f 246/402/306 263/400/306 261/407/306
f 241/375/307 264/377/307 259/59/307
f 211/383/308 258/382/308 293/410/308
f 228/412/175 233/415/175 295/413/175
f 233/415/175 234/417/175 296/416/175
f 234/417/309 236/428/309 284/354/309
f 296/416/310 284/354/310 235/418/310
f 295/413/175 296/416/175 232/419/175
f 286/414/311 295/413/311 231/420/311
f 289/411/312 293/410/312 260/422/312
f 264/377/179 292/401/179 294/60/179
f 262/376/313 291/399/313 292/401/313
f 260/422/314 293/410/314 291/397/314
f 290/58/315 288/367/315 255/360/315
f 211/423/316 289/388/316 282/324/316
f 106/43/317 265/373/317 287/374/317
f 237/425/318 287/366/318 288/367/318
f 228/426/319 286/358/319 285/323/319
f 280/355/320 284/354/320 236/428/320
f 209/147/94 283/149/94 270/328/94
f 282/324/321 285/323/321 229/359/321
f 184/208/97 281/206/97 273/126/97
f 119/295/322 182/215/322 280/430/322
f 158/168/323 279/169/323 278/204/323
f 145/231/97 278/204/97 281/206/97
f 158/168/324 105/157/324 265/373/324
f 111/431/94 268/154/94 266/134/94
f 113/432/94 269/151/94 267/115/94
f 118/146/94 271/148/94 283/149/94
f 269/144/96 271/143/96 118/433/96
f 268/139/97 270/138/97 116/434/97
f 103/153/94 266/134/94 274/133/94
f 119/435/325 272/129/325 276/130/325
f 121/297/99 273/126/99 277/119/99
f 126/106/101 127/122/101 276/123/101
f 124/118/103 129/117/103 277/119/103
f 107/150/94 267/115/94 275/114/94
f 290/58/93 294/60/93 257/403/93
f 297/436/95 302/436/95 323/437/95
f 298/438/97 300/438/97 307/439/97
f 318/440/175 299/477/175 310/441/175
f 313/443/94 304/446/94 322/444/94
f 322/444/92 304/446/92 299/446/92
f 303/447/193 301/447/193 308/448/193
f 304/446/193 313/443/193 310/443/193
f 312/449/193 309/449/193 310/443/193
f 311/448/193 308/448/193 309/449/193
f 320/450/94 303/447/94 311/448/94
f 311/448/94 312/449/94 327/452/94
f 312/449/94 313/443/94 329/445/94
f 332/453/175 308/457/175 301/454/175
f 332/453/175 334/458/175 309/456/175
f 334/458/326 336/442/326 310/441/326
f 314/459/97 305/459/97 302/436/97
f 315/460/97 306/460/97 305/459/97
f 316/439/97 307/439/97 306/460/97
f 307/461/175 335/464/175 333/462/175
f 335/464/327 336/442/327 334/458/327
f 306/463/175 333/462/175 331/465/175
f 331/465/175 333/462/175 334/458/175
f 302/467/175 305/466/175 331/465/175
f 331/465/175 332/453/175 324/455/175
f 328/469/94 330/470/94 316/439/94
f 327/452/94 329/445/94 330/470/94
f 314/459/94 326/471/94 328/469/94
f 326/471/94 325/451/94 327/452/94
f 297/436/94 319/437/94 326/471/94
f 319/437/94 320/450/94 325/451/94
f 298/438/92 321/472/92 317/472/92
f 321/472/92 322/444/92 318/444/92
f 330/470/94 321/472/94 298/438/94
f 330/470/94 329/445/94 322/444/94
f 300/473/175 317/484/175 335/464/175
f 335/464/175 317/484/175 318/440/175
f 320/450/95 324/450/95 301/447/95
f 319/437/95 323/437/95 324/450/95
f 337/436/95 342/436/95 351/437/95
f 338/438/97 340/438/97 354/475/97
f 367/476/328 346/440/328 339/477/328
f 364/479/329 358/491/329 344/446/329
f 350/444/92 344/446/92 339/446/92
f 343/447/196 341/447/196 355/480/196
f 338/438/92 349/472/92 345/472/92
f 349/472/92 350/444/92 346/444/92
f 362/481/94 349/472/94 338/438/94
f 362/481/94 364/479/94 350/444/94
f 340/473/330 345/484/330 365/482/330
f 345/484/197 346/440/197 367/476/197
f 348/450/95 352/450/95 341/447/95
f 347/474/95 351/437/95 352/450/95
f 366/485/331 368/486/331 352/455/331
f 365/482/332 367/476/332 368/486/332
f 353/487/200 366/485/200 351/468/200
f 354/483/201 365/482/201 366/485/201
f 347/474/333 348/450/333 363/488/333
f 363/488/334 364/479/334 362/481/334
f 347/474/204 361/489/204 359/490/204
f 361/489/205 362/481/205 360/475/205
f 344/446/335 358/491/335 356/491/335
f 358/491/207 357/480/207 355/480/207
f 343/447/336 357/480/336 363/488/336
f 363/488/337 357/480/337 358/491/337
f 368/486/338 355/492/338 341/454/338
f 368/486/339 367/476/339 356/478/339
f 337/436/97 359/490/97 353/490/97
f 360/475/97 354/475/97 353/490/97
f 392/474/95 369/436/95 373/436/95
f 370/438/97 371/438/97 413/493/97
f 411/494/340 417/535/340 418/495/340
f 383/497/213 374/447/213 372/447/213
f 424/498/341 428/498/341 386/499/341
f 385/500/215 381/500/215 382/499/215
f 385/500/193 384/501/193 380/501/193
f 384/501/193 383/497/193 379/497/193
f 374/447/342 383/497/342 425/502/342
f 383/497/94 384/501/94 426/504/94
f 426/504/94 384/501/94 385/500/94
f 427/505/343 385/500/343 386/499/343
f 421/506/344 379/509/344 372/454/344
f 422/508/175 380/511/175 379/509/175
f 423/510/175 381/513/175 380/511/175
f 423/510/345 424/575/345 382/512/345
f 387/514/97 375/514/97 373/436/97
f 387/514/97 388/515/97 376/515/97
f 389/516/97 377/516/97 376/515/97
f 390/517/97 378/517/97 377/516/97
f 378/518/175 411/494/175 409/519/175
f 409/519/346 411/494/346 412/496/346
f 377/520/223 409/519/223 407/522/223
f 409/519/175 410/521/175 408/524/175
f 376/523/225 407/522/225 405/525/225
f 405/525/347 407/522/347 408/524/347
f 375/526/175 405/525/175 395/468/175
f 405/525/348 406/527/348 396/455/348
f 402/528/349 404/530/349 390/517/349
f 402/528/239 401/539/239 403/529/239
f 388/515/229 400/532/229 402/528/229
f 399/531/94 401/539/94 402/528/94
f 387/514/231 398/533/231 400/532/231
f 398/533/350 397/540/350 399/531/350
f 392/474/94 398/533/94 387/514/94
f 393/450/351 397/540/351 398/533/351
f 370/438/92 394/472/92 391/472/92
f 414/493/352 415/538/352 394/472/352
f 413/534/175 371/473/175 391/484/175
f 394/472/353 415/538/353 417/536/353
f 393/450/95 396/450/95 420/503/95
f 392/474/95 395/437/95 396/450/95
f 378/518/175 413/534/175 417/535/175
f 404/530/354 403/529/354 416/537/354
f 390/517/355 404/530/355 415/538/355
f 412/529/237 418/537/237 416/537/237
f 414/493/97 413/493/97 378/517/97
f 419/503/95 420/503/95 372/447/95
f 412/496/356 424/575/356 423/510/356
f 410/521/175 423/510/175 422/508/175
f 408/524/357 422/508/357 421/506/357
f 396/455/358 406/527/358 421/506/358
f 427/505/359 428/498/359 403/529/359
f 399/531/94 426/504/94 427/505/94
f 425/502/360 426/504/360 399/531/360
f 393/450/216 419/503/216 425/502/216
f 403/529/361 428/498/361 424/498/361
f 415/538/362 416/537/362 418/537/362
