# Blender 4.2.1 LTS
# www.blender.org
mtllib gas_pump_D_destroyed.mtl
g gas_pump_D_destroyed_Mesh
v 0.333302 0.152291 0.227363
v -0.331352 0.152291 0.227363
v 0.333302 0.152291 -0.179978
v -0.331352 0.152291 -0.179978
v -0.212217 0.140281 0.316518
v -0.105621 0.140281 0.349545
v 0.000975 0.140281 0.357951
v 0.107572 0.140281 0.349545
v 0.214168 0.140281 0.316518
v 0.198877 0.163975 -0.273870
v 0.107572 0.163975 -0.302159
v 0.000975 0.163975 -0.310565
v -0.105621 0.163975 -0.302159
v -0.196927 0.163975 -0.273870
v 0.291178 0.793357 0.244636
v -0.298329 0.908987 0.244636
v -0.298454 0.832928 -0.196488
v 0.291304 0.793357 -0.196488
v -0.210219 0.832928 -0.235244
v -0.103835 0.738890 -0.234460
v -0.005489 0.786885 -0.263751
v 0.129947 0.798050 -0.249206
v 0.203069 0.793357 -0.235244
v 0.200260 0.793357 0.289107
v 0.089519 0.854826 0.286023
v -0.063232 0.855441 0.303906
v -0.098458 0.814432 0.320849
v -0.207410 0.832928 0.289107
v -0.325988 0.597817 0.225499
v -0.325988 0.516747 -0.178115
v 0.327938 0.564017 -0.178115
v -0.154082 0.460778 -0.301631
v -0.093433 0.469423 -0.294951
v -0.004257 0.465159 -0.298196
v 0.099534 0.413232 -0.281014
v 0.143536 0.460586 -0.273000
v 0.233981 0.545308 0.298381
v 0.154812 0.538301 0.351953
v 0.030685 0.451868 0.338330
v -0.104960 0.546506 0.311685
v -0.203742 0.514060 0.275723
v 0.327310 0.540192 0.229402
v 0.214168 0.000000 0.316518
v 0.326999 0.000000 0.268710
v -0.325048 0.000000 -0.221326
v -0.325048 0.000000 0.268710
v -0.212217 0.000000 -0.269132
v 0.326999 0.000000 -0.221326
v -0.212217 0.000000 0.316518
v -0.105621 0.000000 0.349545
v 0.000975 0.000000 0.357951
v 0.107572 0.000000 0.349545
v 0.214168 0.000000 -0.269132
v 0.107572 0.000000 -0.302159
v 0.000975 0.000000 -0.310565
v -0.105621 0.000000 -0.302159
v 0.224813 0.140281 0.383550
v 0.326999 0.140281 0.383550
v -0.222863 0.140281 -0.279248
v -0.325048 0.140281 -0.336164
v -0.325048 0.140281 0.383550
v -0.222863 0.140281 0.383550
v -0.111179 0.140281 0.383550
v 0.000975 0.140281 0.383550
v 0.113130 0.140281 0.383550
v 0.289793 0.140281 -0.314675
v 0.224813 0.140281 -0.336164
v 0.113129 0.140281 -0.336164
v 0.000975 0.140281 -0.336164
v -0.111179 0.140281 -0.336164
v 0.000975 0.000000 0.383550
v 0.326999 0.000000 0.383550
v 0.224813 0.000000 0.383550
v 0.224813 0.000000 -0.336164
v 0.289793 0.000000 -0.314675
v -0.222863 0.000000 -0.279248
v -0.325048 0.000000 -0.336164
v -0.325048 0.000000 0.383550
v -0.222863 0.000000 0.383550
v -0.111179 0.000000 0.383550
v 0.113130 0.000000 0.383550
v 0.113129 0.000000 -0.336164
v 0.000975 0.000000 -0.336164
v -0.111179 0.000000 -0.336164
v -0.381970 0.140281 -0.275804
v -0.381970 0.140281 0.323188
v 0.383920 0.140281 0.323188
v 0.383920 0.140281 -0.275804
v 0.383920 0.000000 0.323188
v 0.346715 0.000000 -0.254315
v -0.381970 0.000000 -0.275804
v -0.381970 0.000000 0.323188
v 0.346715 0.140281 -0.314675
v -0.381970 0.140281 -0.336163
v -0.381970 0.000000 0.383550
v 0.383920 0.000000 0.383550
v 0.383920 0.140281 0.383550
v 0.346715 0.000000 -0.314675
v -0.381970 0.000000 -0.336163
v -0.381970 0.140281 0.383550
v 0.224819 0.108579 0.383550
v 0.113225 0.108579 0.383550
v 0.001060 0.108579 0.383550
v -0.111036 0.108579 0.383550
v -0.223248 0.108579 0.383550
v -0.222952 0.108579 -0.279248
v 0.000975 0.000000 0.401799
v 0.326999 0.000000 0.401799
v 0.224813 0.000000 0.401799
v 0.224813 0.000000 -0.354413
v 0.289793 0.000000 -0.332925
v -0.222863 0.000000 -0.297498
v -0.325048 0.000000 -0.354413
v -0.325048 0.000000 0.401799
v -0.222863 0.000000 0.401799
v -0.111179 0.000000 0.401799
v 0.113130 0.000000 0.401799
v 0.113129 0.000000 -0.354413
v 0.000975 0.000000 -0.354413
v -0.111179 0.000000 -0.354413
v -0.111745 0.108579 -0.336164
v 0.001006 0.108579 -0.336164
v 0.113111 0.108579 -0.336164
v 0.224791 0.108579 -0.336164
v 0.424200 0.000000 0.323188
v 0.424200 0.000000 -0.275804
v -0.422250 0.000000 -0.275804
v -0.422250 0.000000 0.323188
v -0.351460 0.152291 -0.057899
v -0.351460 0.152291 0.105283
v 0.353411 0.152291 0.105283
v 0.353411 0.152291 -0.057899
v 0.322400 0.904993 -0.054137
v 0.296093 0.870838 0.122550
v -0.321826 1.004368 -0.054137
v -0.345607 0.597816 0.104724
v -0.345607 0.490261 0.005033
v 0.347557 0.549866 -0.057340
v 0.347557 0.597816 0.104724
v -0.325048 0.000000 -0.057981
v -0.325048 0.000000 0.105365
v 0.326999 0.000000 0.105365
v 0.326999 0.000000 -0.057981
v -0.212217 0.000000 -0.073915
v -0.212217 0.000000 0.121301
v -0.105621 0.000000 -0.084924
v -0.105621 0.000000 0.132310
v 0.000975 0.000000 -0.087726
v 0.000975 0.000000 0.135112
v 0.107572 0.000000 -0.084924
v 0.107572 0.000000 0.132310
v 0.214168 0.000000 -0.073915
v 0.214168 0.000000 0.121301
v -0.413518 0.140281 -0.076140
v -0.413518 0.140281 0.123525
v 0.391154 0.140281 0.123525
v 0.415469 0.140281 -0.076140
v -0.381970 0.000000 -0.076140
v -0.381970 0.000000 0.123525
v 0.383920 0.000000 0.123525
v 0.383920 0.000000 -0.076140
v -0.381970 0.108579 0.223336
v -0.381970 0.108579 0.123811
v -0.381970 0.108579 -0.076119
v -0.381970 0.108579 -0.176881
v -0.457117 0.000000 -0.076140
v -0.457117 0.000000 0.123525
v 0.459067 0.000000 0.123525
v 0.459067 0.000000 -0.076140
v -0.324881 0.619173 0.266543
v -0.325048 0.140281 0.268710
v -0.351908 0.140281 0.105365
v -0.324881 0.619173 -0.219159
v -0.325048 0.140281 -0.221326
v 0.314697 0.619173 -0.219159
v 0.277853 0.140281 -0.221326
v 0.353858 0.140281 -0.057981
v 0.326999 0.140281 0.268710
v 0.314697 0.619173 0.266543
v -0.351226 0.619173 -0.057258
v 0.341042 0.619173 0.104642
v -0.351908 0.140281 -0.057981
v 0.353858 0.140281 0.105365
v -0.351226 0.619173 0.104642
v 0.341042 0.619173 -0.057258
v 0.390236 0.550673 -0.065270
v 0.396090 0.194563 -0.065820
v 0.390236 0.598622 0.112657
v 0.396090 0.194563 0.113206
v -0.388286 0.598622 0.112657
v -0.406747 0.211713 0.113130
v -0.388286 0.491067 -0.002900
v -0.406747 0.211713 -0.065745
v -0.387040 0.549164 0.201139
v -0.391703 0.211692 0.202706
v -0.387040 0.468094 -0.153754
v -0.391703 0.211692 -0.155322
v 0.388990 0.515364 -0.153754
v 0.393653 0.211692 -0.155322
v 0.393653 0.211692 0.202706
v 0.399915 0.389968 0.193700
v -0.367718 0.598602 0.241237
v -0.373082 0.194534 0.243100
v -0.394140 0.194563 0.113206
v -0.367718 0.517532 -0.193852
v -0.373082 0.194534 -0.195716
v 0.369668 0.564802 -0.193852
v 0.375032 0.194534 -0.195716
v 0.408697 0.211713 -0.065745
v 0.375032 0.194534 0.243100
v 0.369040 0.540978 0.245137
v -0.401606 0.441622 -0.002974
v 0.443683 0.461750 0.059545
v -0.394140 0.194563 -0.065820
v 0.408697 0.211713 0.113130
v -0.401606 0.549177 0.112731
v 0.403556 0.501228 -0.065345
v 0.311120 0.707900 0.288798
v -0.324881 0.713896 0.264838
v -0.324881 0.774008 -0.217454
v 0.284588 0.682185 -0.216895
v -0.178591 0.521462 -0.297015
v -0.099111 0.660121 -0.270453
v 0.005932 0.656156 -0.321250
v 0.072839 0.638287 -0.308810
v 0.147045 0.514751 -0.287900
v 0.218772 0.691183 0.322629
v 0.122433 0.678631 0.364106
v 0.019859 0.681728 0.367709
v -0.142899 0.682380 0.342620
v -0.239622 0.779251 0.316518
v -0.351226 0.713896 0.104074
v -0.351226 0.881013 0.029964
v 0.370414 0.754186 -0.065627
v 0.350886 0.717710 0.091714
v 0.214168 0.140281 -0.269132
v 0.107572 0.140281 -0.302159
v 0.000975 0.140281 -0.310565
v -0.105621 0.140281 -0.302159
v -0.212217 0.140281 -0.269132
v -0.282233 0.489641 -0.260337
v 0.261506 0.461380 -0.265365
v -0.231823 0.674071 -0.282550
v 0.217659 0.574673 -0.279449
v -0.109933 0.509830 -0.295747
v -0.016865 0.483435 -0.296327
v 0.090015 0.495714 -0.301078
v 0.213161 0.140280 -0.261535
v 0.106927 0.140281 -0.294471
v 0.000975 0.140281 -0.302815
v -0.104977 0.140281 -0.294471
v -0.211211 0.140280 -0.261535
v -0.217285 0.524619 -0.261533
v 0.207100 0.524619 -0.261533
v -0.205195 0.626133 -0.289620
v 0.216721 0.574334 -0.271844
v -0.118780 0.555403 -0.291549
v -0.007057 0.533881 -0.254634
v 0.095789 0.560708 -0.301152
v 0.197871 0.163974 -0.266271
v 0.106927 0.163975 -0.294471
v 0.000975 0.163975 -0.302815
v -0.104977 0.163975 -0.294471
v -0.195920 0.163974 -0.266271
v -0.201959 0.524671 -0.266006
v 0.191775 0.524671 -0.266006
v -0.189566 0.556380 -0.292264
v 0.201460 0.565327 -0.277110
v -0.118769 0.546333 -0.292787
v -0.007057 0.524819 -0.256019
v 0.095778 0.551639 -0.302390
v 0.340424 0.140281 -0.139682
v -0.309038 0.949478 -0.132030
v -0.338049 0.619173 -0.138238
v 0.326999 0.000000 -0.139682
v 0.399689 0.140281 -0.176007
v 0.383920 0.000000 -0.176007
v 0.383920 0.108579 -0.176330
v 0.441628 0.000000 -0.176007
v -0.338473 0.140281 -0.139682
v 0.301887 0.859754 -0.132030
v 0.327865 0.619173 -0.138238
v -0.325048 0.000000 -0.139682
v -0.212217 0.000000 -0.171559
v -0.105621 0.000000 -0.193582
v 0.000975 0.000000 -0.199187
v 0.107572 0.000000 -0.193582
v 0.214168 0.000000 -0.171559
v -0.397738 0.140281 -0.176007
v -0.381970 0.000000 -0.176007
v 0.383920 0.108579 -0.076394
v -0.439677 0.000000 -0.176007
v 0.343353 0.152291 -0.118960
v -0.335794 0.553662 -0.095195
v -0.341403 0.152291 -0.118960
v 0.337744 0.564017 -0.117749
v 0.385557 0.194549 -0.130792
v -0.377998 0.554458 -0.107030
v -0.383607 0.194549 -0.130792
v 0.379948 0.564812 -0.129584
v 0.401172 0.211703 -0.110549
v -0.394320 0.505017 -0.087010
v -0.399222 0.211703 -0.110549
v 0.396271 0.515371 -0.109565
v 0.325963 0.707991 -0.128263
v -0.338049 0.774008 -0.137101
v -0.338478 0.140281 0.187037
v 0.301892 0.793357 0.179385
v 0.327869 0.619173 0.185594
v -0.325048 0.000000 0.187037
v -0.212217 0.000000 0.218909
v -0.105621 0.000000 0.240928
v 0.000975 0.000000 0.246531
v 0.107572 0.000000 0.240928
v 0.214168 0.000000 0.218909
v -0.397744 0.140281 0.223355
v -0.381970 0.000000 0.223355
v 0.359606 0.108579 0.123742
v -0.439683 0.000000 0.223355
v 0.340428 0.140281 0.187037
v -0.309042 0.832928 0.179385
v -0.338054 0.619173 0.185594
v 0.326999 0.000000 0.187037
v 0.375380 0.140281 0.223355
v 0.383920 0.000000 0.223355
v 0.359606 0.108579 0.223247
v 0.441634 0.000000 0.223355
v -0.341406 0.152291 0.166324
v 0.337748 0.597816 0.165112
v 0.343357 0.152291 0.166324
v -0.335797 0.597816 0.165113
v -0.383611 0.194549 0.178153
v 0.379952 0.598612 0.176946
v 0.385561 0.194549 0.178153
v -0.378002 0.598612 0.176946
v -0.399225 0.211703 0.157918
v 0.399555 0.526283 0.153403
v 0.401175 0.211703 0.157918
v -0.394323 0.549171 0.156934
v -0.337265 0.714346 0.153220
v 0.344898 0.704224 0.184575
v 0.326999 0.108579 0.383550
v 0.289793 0.108579 -0.314675
v -0.325048 0.108579 -0.336164
v -0.325048 0.108579 0.383550
v 0.383920 0.108579 0.323188
v 0.379923 0.108579 -0.254315
v -0.381970 0.108579 -0.275804
v -0.381970 0.108579 0.323188
v 0.383920 0.108579 0.383550
v 0.346715 0.108579 -0.314675
v -0.381970 0.108579 -0.336163
v -0.381970 0.108579 0.383550
v 0.000975 0.108579 0.401799
v 0.326999 0.108579 0.401799
v 0.224813 0.108579 0.401799
v 0.224813 0.108579 -0.354413
v 0.289793 0.108579 -0.332925
v 0.113130 0.108579 0.401799
v 0.113129 0.108579 -0.354413
v 0.000975 0.108579 -0.354413
v -0.111179 0.108579 -0.354413
v -0.222863 0.108579 -0.297498
v -0.325048 0.108579 -0.354413
v -0.325048 0.108579 0.401799
v -0.222863 0.108579 0.401799
v -0.111179 0.108579 0.401799
v 0.424200 0.075279 0.323188
v 0.424200 0.075279 -0.275804
v -0.422250 0.075279 -0.275804
v -0.422250 0.075279 0.323188
v -0.457117 0.075279 0.123525
v -0.457117 0.075279 -0.076140
v 0.459067 0.075279 -0.076140
v 0.401257 0.075279 0.123525
v 0.441628 0.075279 -0.176007
v -0.439677 0.075279 -0.176007
v -0.439683 0.075279 0.223355
v 0.383823 0.075279 0.223355
v -0.233749 0.840530 0.345967
v -0.103964 0.814432 0.349545
v -0.057044 0.875607 0.327769
v 0.211134 0.793357 0.316518
v 0.097842 0.859566 0.307046
v 0.317730 0.793357 0.264377
v 0.133104 0.798050 -0.278447
v 0.211134 0.793357 -0.263812
v -0.005489 0.786885 -0.293242
v -0.091943 0.723864 -0.269177
v -0.218285 0.832928 -0.263812
v -0.324881 0.832928 -0.216992
v 0.330903 0.793357 0.184148
v 0.317730 0.793357 -0.216992
v -0.364088 0.946728 -0.139512
v -0.324881 0.908987 0.264377
v 0.330898 0.859754 -0.136792
v 0.370725 0.905212 -0.060544
v 0.344076 0.865973 0.103921
v -0.338054 0.832928 0.184148
v -0.351226 1.004368 -0.056535
v 0.107572 0.263651 0.104186
v 0.000975 0.119357 0.104148
v -0.067791 0.462714 0.059422
v -0.218285 0.544070 0.104196
v 0.214168 0.263651 0.104062
v 0.311642 0.628781 0.101523
v -0.321826 0.736148 0.101523
v -0.037627 0.602731 0.127578
v 0.000975 0.263651 -0.056310
v 0.107572 0.263651 0.184438
v 0.208100 0.522379 0.184396
v -0.218285 0.730239 0.184392
v 0.000975 0.119357 0.184356
v 0.298858 0.730239 0.179385
v -0.308254 0.764455 0.148149
v -0.098458 0.740863 0.282510
v 0.095998 0.730239 0.320849
v 0.198648 0.722037 0.289107
v -0.207410 0.762200 0.289107
v 0.311642 0.730239 -0.054137
v 0.208100 0.602475 -0.056283
v 0.107572 0.263651 -0.056329
v -0.218285 0.544070 -0.056363
v -0.321826 0.864893 0.032516
v -0.105621 0.263651 -0.056293
v 0.000975 0.263651 -0.136489
v 0.208100 0.615264 -0.136632
v 0.107572 0.556635 -0.136537
v -0.103599 0.452664 -0.136640
v -0.218285 0.604525 -0.136556
v -0.309038 0.730239 -0.132030
v 0.298853 0.730239 -0.132030
v 0.002997 0.661635 -0.257361
v -0.210219 0.730239 -0.235244
v -0.100441 0.661635 -0.249206
v 0.002632 0.740863 0.290305
v 0.098347 0.730239 -0.249206
v 0.200035 0.730239 -0.235244
v 0.291178 0.769841 0.244636
v -0.298454 0.730239 -0.196488
v 0.288270 0.730239 -0.196488
v -0.298329 0.796280 0.244636
vn -0.0000 1.0000 -0.0000
vn -0.0000 -1.0000 -0.0000
vn -0.2415 0.0203 0.9702
vn -0.1524 -0.0069 0.9883
vn 0.0426 0.3058 0.9512
vn 0.3848 0.0837 0.9192
vn 0.3299 0.0809 0.9405
vn 0.2302 0.0762 -0.9702
vn 0.2355 0.2232 -0.9459
vn -0.4323 0.0666 -0.8992
vn 0.0918 0.0096 -0.9957
vn -0.4600 0.1426 -0.8764
vn 0.9513 0.0144 0.3078
vn 0.6144 0.0745 -0.7854
vn -0.9868 0.0013 -0.1617
vn -0.5195 0.0020 0.8545
vn -0.3878 0.1087 0.9153
vn 0.7037 -0.7105 -0.0000
vn 0.5985 -0.0789 -0.7973
vn -0.3526 -0.0004 -0.9358
vn -0.3895 -0.0549 -0.9194
vn -0.2956 -0.0466 -0.9542
vn -0.0785 0.0395 -0.9961
vn 0.0783 0.0868 -0.9931
vn 0.2947 0.0902 -0.9513
vn 0.3900 0.0221 0.9205
vn 0.2957 -0.0409 0.9544
vn 0.0785 0.0552 0.9954
vn -0.0784 0.0701 0.9945
vn -0.2942 0.1103 0.9494
vn -0.0000 -0.0000 1.0000
vn 1.0000 -0.0000 -0.0000
vn 0.4866 -0.0014 -0.8736
vn -0.0000 -0.0000 -1.0000
vn -1.0000 -0.0000 -0.0000
vn 0.8463 -0.2588 -0.4656
vn 0.3140 -0.0000 -0.9494
vn -0.4541 -0.0000 -0.8910
vn 0.4866 -0.0000 -0.8736
vn 0.7552 0.5800 -0.3054
vn -0.9851 -0.0000 -0.1720
vn 0.3139 -0.0002 -0.9495
vn -0.8954 -0.4454 -0.0000
vn -0.9851 -0.0000 0.1720
vn 0.9851 -0.0000 -0.1720
vn 0.6874 -0.7177 0.1113
vn 0.3529 -0.0005 -0.9357
vn -0.7037 -0.7105 -0.0000
vn -0.6870 -0.7178 0.1132
vn 0.8338 -0.0580 -0.5490
vn 0.9908 0.0347 0.1310
vn -0.9996 0.0005 0.0267
vn -0.9860 0.0392 0.1621
vn -0.9878 0.0153 -0.1550
vn 0.9187 -0.0689 -0.3890
vn 0.9860 0.0392 -0.1621
vn 0.9878 0.0144 0.1548
vn -0.9776 -0.1382 -0.1591
vn 0.9447 0.2895 0.1537
vn -0.9859 0.0397 -0.1624
vn -0.9993 0.0372 -0.0000
vn 0.9859 0.0397 0.1624
vn 0.9993 0.0372 -0.0000
vn -0.9558 -0.2499 0.1553
vn -0.9991 -0.0286 0.0309
vn 0.9803 0.1164 -0.1593
vn 0.9565 0.2918 -0.0000
vn -0.9860 0.0189 -0.1656
vn 0.9858 -0.0263 0.1656
vn 0.9860 0.0177 -0.1656
vn 0.9904 -0.1386 -0.0000
vn -0.9861 0.0152 0.1656
vn -0.9998 0.0224 -0.0000
vn 0.6870 -0.7178 -0.1132
vn 0.0181 0.9998 -0.0027
vn -0.3526 -0.0116 0.9357
vn -0.1121 0.7274 -0.6770
vn 0.1268 0.9117 -0.3909
vn 0.0400 0.9772 0.2084
vn -0.1928 0.7460 0.6374
vn 0.3526 -0.0003 0.9358
vn -0.0707 0.9565 -0.2830
vn -0.6874 -0.7177 -0.1113
vn -0.9074 0.0140 0.4200
vn -0.8049 -0.5789 0.1304
vn -0.9049 0.0191 -0.4252
vn 0.9080 0.0153 -0.4187
vn 0.8049 -0.5789 -0.1304
vn 0.9099 -0.0110 0.4148
vn -0.9258 0.3565 0.1256
vn 0.9651 0.2113 0.1544
vn -0.8070 -0.5748 -0.1354
vn -0.8057 -0.5923 -0.0000
vn 0.8070 -0.5748 0.1354
vn 0.8057 -0.5923 -0.0000
vn -0.9550 0.2515 0.1574
vn -0.9384 0.2532 -0.2353
vn 0.9550 0.2515 -0.1574
vn 0.9114 0.3974 -0.1071
vn 0.9950 -0.0994 -0.0000
vn 0.9863 0.0391 -0.1605
vn -0.9851 0.0627 0.1603
vn -0.2270 -0.1780 0.9575
vn -0.9870 0.0018 -0.1606
vn 0.4973 0.0852 -0.8634
vn 0.9686 -0.1921 0.1576
vn -0.5871 0.0633 -0.8071
vn 0.1061 0.0238 -0.9941
vn -0.0324 0.0795 -0.9963
vn 0.0452 -0.2312 -0.9719
vn 0.3612 -0.1808 -0.9148
vn 0.4441 -0.1017 0.8902
vn 0.5634 -0.0780 0.8225
vn -0.0199 -0.1277 0.9916
vn -0.2806 -0.1347 0.9503
vn -0.2459 -0.2799 0.9280
vn 0.2384 -0.0496 -0.9699
vn -0.0000 -1.0000 -0.0001
vn -0.0716 -0.0011 -0.9974
vn -0.4156 0.0215 -0.9093
vn -0.0000 1.0000 0.0001
vn 0.1836 0.6632 -0.7256
vn 0.1800 -0.0437 -0.9827
vn 0.1327 -0.2790 -0.9511
vn 0.0334 0.0888 -0.9955
vn 0.2962 -0.0000 -0.9551
vn 0.0785 -0.0000 -0.9969
vn -0.0785 -0.0000 -0.9969
vn -0.2961 0.0002 -0.9551
vn -0.2801 -0.0040 -0.9599
vn 0.3026 0.0048 -0.9531
vn -0.6707 -0.1225 -0.7316
vn 0.2652 -0.3123 -0.9122
vn 0.0119 0.1352 -0.9907
vn 0.3341 0.1424 -0.9317
vn -0.4353 0.1222 -0.8919
vn 0.2086 0.2057 -0.9561
vn -0.6051 -0.0095 -0.7961
vn 0.9749 0.1815 0.1292
vn -0.9796 0.1661 -0.1134
vn 0.1102 0.2046 -0.9726
vn -0.7953 -0.1708 -0.5816
vn 0.9717 0.1980 -0.1287
vn 0.3330 0.1257 -0.9345
vn 0.4705 -0.2623 -0.8425
vn 0.0344 -0.4809 -0.8761
vn -0.9870 0.0012 -0.1606
vn 0.8907 0.4308 -0.1449
vn 0.9628 0.2595 -0.0756
vn -0.7987 -0.5866 -0.1340
vn -0.9566 0.2097 -0.2024
vn 0.8106 -0.5707 -0.1313
vn -0.6860 -0.7191 -0.1111
vn -0.0178 0.9998 0.0027
vn -0.0820 0.8459 0.5270
vn 0.6885 -0.7164 -0.1134
vn 0.9861 0.0160 -0.1656
vn -0.9840 0.0671 -0.1653
vn 0.9860 0.0929 -0.1384
vn -0.9860 0.0378 -0.1624
vn -0.9856 -0.0536 -0.1604
vn 0.4263 -0.8435 -0.3267
vn 0.9004 -0.2687 -0.3421
vn -0.7088 -0.7054 -0.0000
vn -0.8864 -0.4412 0.1401
vn -0.9887 -0.1488 0.0173
vn -0.9870 0.0029 0.1606
vn -0.9535 0.2571 0.1571
vn 0.7987 -0.5866 0.1340
vn 0.9492 0.0915 0.3011
vn -0.8106 -0.5707 0.1313
vn -0.0183 0.9998 -0.0030
vn 0.0178 0.9998 -0.0027
vn -0.9861 0.0144 0.1656
vn 0.9811 -0.1020 0.1647
vn -0.9555 -0.2508 0.1552
vn 0.9860 0.0378 0.1624
vn 0.9837 0.0818 0.1601
vn -0.9859 0.0407 0.1621
vn -0.9933 -0.0353 0.1101
vn -0.6885 -0.7164 0.1134
vn 0.6860 -0.7191 0.1111
vn -0.4043 0.9119 0.0706
vn -0.4051 0.9143 -0.0000
vn 0.7856 0.6033 0.1372
vn 0.9842 0.1549 0.0860
vn 0.9868 -0.0000 0.1620
vn -0.9901 0.0232 0.1387
vn -0.4373 0.0099 -0.8993
vn -0.4021 0.0193 0.9154
vn 0.9970 -0.0000 0.0775
vn -0.1250 -0.2731 -0.9538
vn -0.9868 -0.0000 -0.1620
vn -0.0666 0.5729 0.8169
vn 0.4021 -0.0000 0.9156
vn 0.1796 0.4647 0.8670
vn -0.1159 0.0511 -0.9919
vn 0.0080 -0.1871 0.9823
vn -0.9974 -0.0606 -0.0395
vn 0.2797 -0.0000 -0.9601
vn 0.0682 0.4611 -0.8847
vn 0.2549 0.0665 0.9647
vn -0.9733 0.0599 0.2215
vn 0.9899 0.0681 -0.1243
vn -0.1108 0.0517 0.9925
vn 0.4394 -0.0000 -0.8983
vn -0.9851 0.0473 0.1651
vn -0.1870 0.0090 0.9823
vn -0.4041 0.9120 -0.0706
vn -0.4989 0.8623 -0.0871
vn -0.8953 -0.4455 -0.0000
vn -0.6372 0.7707 -0.0000
vn -0.4556 0.0013 -0.8902
vn 0.8946 -0.4445 -0.0459
vn 0.4043 0.9119 -0.0706
vn -0.2672 -0.0000 -0.9636
vn 0.7065 -0.7025 0.0858
vn 0.4020 0.9082 0.1164
vn 0.8953 -0.4455 -0.0000
vn 0.6211 0.7762 0.1085
vn 0.8751 -0.4347 -0.2129
vn 0.6170 0.7463 -0.2495
vn 0.8954 -0.4454 -0.0000
vn 0.5670 0.8178 -0.0990
vn 0.7224 -0.0000 -0.6915
vn 0.1587 0.9869 0.0304
vn 0.5067 0.8383 -0.2010
vn 0.0628 0.9980 0.0068
vn -0.0803 0.9968 -0.0000
vn -0.4960 0.7220 -0.4824
vn 0.6517 0.7358 -0.1840
vn 0.0935 0.4883 -0.8676
vn 0.5844 0.7947 0.1644
vn -0.0796 0.8710 -0.4849
vn 0.0269 0.9714 0.2361
vn -0.5870 0.7938 0.1595
vn -0.5137 0.2133 -0.8310
vn 0.0465 0.8201 -0.5703
vn -0.4173 0.7325 -0.5379
vn 0.3258 0.6737 0.6633
vn -0.4326 0.6887 -0.5819
vn -0.7827 0.5605 -0.2707
vn 0.0674 0.9672 -0.2447
vn 0.9565 0.2170 0.1951
vn 0.4814 0.6800 -0.5530
vn -0.0096 0.3956 -0.9184
vn 0.7267 0.5486 0.4135
vn -0.8085 0.2398 0.5374
vn 0.9603 0.0444 -0.2753
vn -0.7225 0.5792 0.3775
vn -0.4990 0.8558 0.1362
vn 0.8059 0.5770 0.1323
vn -0.5871 0.2137 0.7808
vn 0.9092 0.3541 -0.2191
vn -0.8043 0.5942 -0.0000
vn 0.4756 0.8797 -0.0000
vn -0.5862 0.2277 -0.7775
vn 0.4297 0.5404 0.7234
vn -0.7717 0.6233 0.1267
vn 0.4607 0.8344 -0.3025
vn 0.0693 0.4723 0.8787
vn -0.4120 0.4805 0.7742
vn -0.1041 0.6433 0.7585
vn -0.7712 0.3235 -0.5482
vn -0.3206 0.6036 0.7300
vn 0.9118 0.1940 0.3619
vn 0.9805 0.1964 -0.0000
vn 0.1654 0.9383 -0.3036
vn 0.3270 0.2726 -0.9048
vn -0.5731 0.6689 -0.4734
vn -0.2323 0.4431 -0.8658
vn -0.1097 -0.4220 0.8999
vn 0.1238 0.2471 0.9610
vn 0.1543 0.2577 0.9538
vn 0.1033 0.3119 0.9445
vn 0.4289 0.2174 0.8768
vn 0.1898 0.1138 -0.9752
vn 0.0928 0.1520 -0.9840
vn -0.3731 0.1631 -0.9133
vn 0.0549 0.1124 -0.9922
vn -0.4021 0.0072 -0.9156
vn 0.9750 0.1539 0.1601
vn 0.3992 -0.1198 -0.9090
vn -0.9527 -0.1473 -0.2657
vn -0.7399 -0.2325 0.6313
vn -0.0716 0.0045 0.9974
vn 0.7413 -0.0540 -0.6690
vn -0.3529 -0.0004 -0.9357
vn -0.6890 0.0035 -0.7247
vn 0.1067 0.0192 -0.9941
vn -0.0352 0.0250 -0.9991
vn 0.1843 0.0435 -0.9819
vn 0.1474 0.0304 -0.9886
vn 0.3563 0.0134 0.9343
vn 0.5598 0.0097 0.8286
vn -0.1143 0.0076 0.9934
vn -0.1296 0.0922 0.9873
vn -0.3659 0.0870 0.9266
vn 0.4869 -0.0000 -0.8734
vn 0.9851 -0.0000 0.1720
vn -0.8880 -0.4378 -0.1403
vn -0.7044 -0.7010 -0.1113
vn 0.7730 0.5936 0.2238
vn 0.6885 -0.7164 0.1134
vn 0.3525 -0.0004 -0.9358
vn -0.6860 -0.7191 0.1111
vn 0.8828 0.0140 -0.4695
vn 0.9874 -0.0074 0.1582
vn -0.9880 0.0125 0.1543
vn -0.9860 0.0378 0.1624
vn -0.9997 0.0005 -0.0258
vn 0.5962 0.0114 -0.8028
vn 0.9860 0.0378 -0.1624
vn 0.9621 0.0259 0.2716
vn -0.9760 -0.1278 -0.1764
vn 0.9450 0.2889 0.1535
vn -0.9859 0.0407 -0.1621
vn 0.9859 0.0407 0.1621
vn -0.9558 -0.2494 0.1555
vn -0.9671 -0.2545 -0.0000
vn 0.9803 0.1166 -0.1595
vn 0.9952 0.0936 -0.0277
vn -0.9921 0.0264 -0.1228
vn 0.9999 0.0053 0.0089
vn 0.9874 0.0164 -0.1574
vn 0.9535 0.0173 -0.3009
vn -0.9866 0.0148 0.1626
vn -0.9998 0.0152 -0.0141
vn 0.6860 -0.7191 -0.1111
vn 0.0183 0.9998 -0.0030
vn -0.3438 -0.0102 0.9390
vn 0.1475 0.6723 -0.7254
vn 0.1570 0.9154 -0.3707
vn 0.0233 0.9742 0.2244
vn -0.2419 0.7598 0.6035
vn 0.3529 -0.0004 0.9357
vn 0.0301 0.9651 -0.2601
vn -0.6885 -0.7164 -0.1134
vn -0.9057 0.0145 0.4237
vn -0.7987 -0.5866 0.1340
vn -0.9090 0.0175 -0.4164
vn 0.9054 0.0161 -0.4242
vn 0.7987 -0.5866 -0.1340
vn 0.8728 0.0122 0.4880
vn -0.9596 0.2583 0.1117
vn 0.9300 0.2639 0.2558
vn -0.8106 -0.5707 -0.1313
vn 0.8106 -0.5707 0.1313
vn -0.9562 0.2496 0.1530
vn -0.9386 0.2525 -0.2350
vn 0.9562 0.2496 -0.1530
vn 0.9414 0.2539 -0.2222
vn 0.9755 -0.2077 0.0729
vn 0.8644 -0.2162 -0.4540
vn -0.9619 0.0016 0.2732
vn -0.5268 0.0153 0.8498
vn -0.9868 0.0012 -0.1617
vn 0.4317 0.2375 -0.8702
vn 0.9501 -0.0393 0.3093
vn -0.5666 0.0091 -0.8239
vn 0.0335 0.0893 -0.9954
vn -0.0134 -0.0251 -0.9996
vn -0.0519 0.0661 -0.9965
vn 0.3017 -0.2710 -0.9141
vn 0.3698 -0.2120 0.9046
vn 0.3942 0.0114 0.9190
vn 0.0326 -0.0788 0.9964
vn -0.1482 -0.2587 0.9545
vn -0.4319 -0.1939 0.8808
vn 0.2399 -0.0475 -0.9696
vn -0.9807 0.1461 -0.1299
vn -0.1122 0.7069 -0.6984
vn 0.3359 0.1566 -0.9288
vn 0.1190 -0.9925 -0.0295
vn -0.3075 -0.0305 -0.9511
vn 0.0124 0.1386 -0.9903
vn 0.2961 0.0002 -0.9551
vn -0.2962 -0.0000 -0.9551
vn -0.2894 -0.0046 -0.9572
vn 0.2802 0.0054 -0.9599
vn -0.2292 -0.5661 -0.7918
vn 0.4502 -0.2640 -0.8530
vn 0.0107 0.0403 -0.9991
vn 0.3333 0.1279 -0.9341
vn -0.4365 0.1359 -0.8894
vn 0.2144 0.1319 -0.9678
vn -0.9796 0.1535 0.1298
vn 0.1395 0.0031 -0.9902
vn -0.3525 -0.2486 -0.9022
vn 0.1208 0.1742 -0.9773
vn -0.7817 -0.2730 -0.5608
vn -0.0183 -0.0003 -0.9998
vn -0.4109 -0.4021 -0.8182
vn 0.4731 -0.3352 -0.8147
vn -0.3610 -0.1968 -0.9116
vn -0.9945 0.0332 -0.0997
vn 0.8962 0.0684 -0.4383
vn 0.9560 0.2785 -0.0917
vn -0.8049 -0.5789 -0.1304
vn -0.9486 0.2216 -0.2261
vn 0.8070 -0.5748 -0.1354
vn -0.6870 -0.7178 -0.1132
vn -0.0180 0.9998 0.0029
vn -0.1260 0.8528 0.5067
vn 0.6874 -0.7177 -0.1113
vn 0.9866 0.0165 -0.1626
vn -0.9973 0.0223 -0.0697
vn 0.9803 0.1163 -0.1595
vn -0.9860 0.0392 -0.1621
vn -0.9931 -0.0862 -0.0791
vn 0.9859 0.0397 -0.1624
vn 0.9907 -0.0395 -0.1299
vn -0.9920 0.0725 0.1034
vn 0.9944 -0.0927 0.0507
vn -0.9928 0.0458 0.1103
vn -0.9552 0.2535 0.1528
vn 0.8049 -0.5789 0.1304
vn 0.9438 0.1621 0.2880
vn -0.8070 -0.5748 0.1354
vn -0.0181 0.9998 -0.0027
vn 0.0180 0.9998 -0.0029
vn 0.9077 0.0107 0.4194
vn -0.9557 -0.2501 0.1555
vn 0.9860 0.0392 0.1621
vn 0.9434 0.1557 0.2927
vn -0.9859 0.0397 0.1624
vn -0.9868 0.0004 0.1617
vn -0.6874 -0.7177 0.1113
vn 0.6870 -0.7178 0.1132
vn -0.4998 0.8662 -0.0000
vn 0.9817 0.0296 0.1880
vn -0.9857 0.0474 0.1618
vn -0.4394 -0.0000 -0.8983
vn 0.9911 0.0703 0.1132
vn -0.2949 0.0067 -0.9555
vn -0.9883 0.0475 -0.1451
vn 0.2108 0.5159 0.8303
vn -0.2219 0.3953 0.8914
vn 0.2761 -0.2454 -0.9293
vn -0.0074 -0.0000 1.0000
vn -0.9889 0.0609 -0.1355
vn 0.0368 0.4618 -0.8862
vn -0.3464 -0.0883 -0.9339
vn 0.0773 -0.1837 0.9799
vn -0.9865 0.0231 0.1620
vn 0.9868 -0.0000 -0.1620
vn -0.1157 0.0428 0.9924
vn -0.9943 -0.0560 -0.0902
vn -0.1358 0.0633 0.9887
vn -0.4998 0.8661 -0.0000
vn -0.7049 -0.7005 0.1114
vn -0.4978 0.8629 0.0869
vn -0.4540 0.0081 -0.8909
vn 0.9625 -0.2245 -0.1521
vn 0.4998 0.8661 -0.0000
vn -0.3647 0.1116 -0.9244
vn 0.7058 -0.7031 0.0860
vn 0.6229 0.7786 0.0757
vn 0.7048 -0.7006 0.1114
vn 0.8087 0.5882 -0.0000
vn 0.9964 -0.0000 -0.0852
vn 0.7938 0.5767 -0.1931
vn 0.7049 -0.7006 -0.1114
vn 0.4997 0.8658 -0.0256
vn 0.8028 -0.4006 -0.4417
vn 0.1980 0.9794 -0.0392
vn 0.4597 0.8098 -0.3645
vn 0.0570 0.9982 0.0161
vn -0.0812 0.9967 -0.0088
vn -0.5891 0.8081 -0.0000
vn 0.6473 0.7550 -0.1051
vn 0.4906 0.5995 -0.6323
vn 0.2959 0.8683 0.3980
vn -0.0682 0.8722 -0.4844
vn 0.1799 0.9605 0.2124
vn -0.8665 0.4967 -0.0493
vn -0.1478 0.4091 -0.9004
vn 0.0372 0.8180 -0.5740
vn -0.1155 0.7013 -0.7034
vn -0.1320 0.5799 0.8040
vn -0.1223 0.6561 -0.7447
vn -0.8098 0.5658 -0.1554
vn -0.0710 0.7709 -0.6330
vn -0.0001 0.5026 -0.8645
vn 0.6039 0.3153 -0.7320
vn -0.0276 0.4423 -0.8964
vn 0.6894 0.2771 0.6693
vn 0.0504 0.7552 -0.6535
vn -0.8314 0.2255 0.5079
vn -0.6650 0.1972 0.7203
vn 0.5704 0.3162 0.7581
vn 0.3305 0.5696 0.7526
vn -0.7095 0.5240 0.4712
vn 0.7506 0.5276 0.3977
vn 0.6747 0.2709 -0.6866
vn 0.5263 0.3971 0.7519
vn -0.7831 0.6142 0.0978
vn 0.4470 0.8348 -0.3213
vn 0.4610 0.2557 0.8497
vn -0.6288 0.2289 0.7431
vn -0.2960 0.5089 0.8083
vn -0.7246 0.1888 -0.6628
vn -0.7809 0.6113 0.1282
vn 0.8803 0.4745 -0.0000
vn 0.8983 0.0202 -0.4390
vn 0.3693 0.7610 -0.5334
vn -0.2218 0.1644 -0.9611
vn -0.7160 0.2974 -0.6316
vn -0.5637 0.2189 -0.7965
vt 0.570786 0.281762
vt 0.571488 0.279578
vt 0.571488 0.281877
vt 0.559155 0.271813
vt 0.558481 0.273057
vt 0.558430 0.271813
vt 0.566079 0.273194
vt 0.567004 0.272256
vt 0.567556 0.274180
vt 0.570786 0.277392
vt 0.570959 0.279577
vt 0.566569 0.285264
vt 0.565338 0.286645
vt 0.565239 0.285944
vt 0.570104 0.275206
vt 0.571488 0.277278
vt 0.694404 0.091585
vt 0.701360 0.093365
vt 0.696400 0.098379
vt 0.688041 0.098437
vt 0.683971 0.089220
vt 0.682754 0.098593
vt 0.678144 0.092639
vt 0.677754 0.097907
vt 0.672967 0.097014
vt 0.697534 0.110207
vt 0.705660 0.117360
vt 0.694367 0.117689
vt 0.705229 0.106181
vt 0.698410 0.106751
vt 0.702081 0.101747
vt 0.698801 0.101378
vt 0.699478 0.094533
vt 0.704853 0.089786
vt 0.707709 0.095241
vt 0.698256 0.100549
vt 0.702282 0.097861
vt 0.703559 0.101556
vt 0.700115 0.121180
vt 0.703179 0.091877
vt 0.707267 0.089789
vt 0.707304 0.092291
vt 0.705705 0.086634
vt 0.705702 0.096682
vt 0.699470 0.106985
vt 0.705705 0.126229
vt 0.699938 0.126275
vt 0.715878 0.061078
vt 0.707130 0.057869
vt 0.716347 0.058015
vt 0.688594 0.119959
vt 0.672253 0.120839
vt 0.672083 0.117524
vt 0.715666 0.061920
vt 0.696615 0.064339
vt 0.694503 0.062202
vt 0.059947 0.065757
vt 0.077756 0.067928
vt 0.059770 0.071534
vt 0.700165 0.083878
vt 0.684910 0.086379
vt 0.685016 0.081697
vt 0.700398 0.091598
vt 0.684876 0.091863
vt 0.697788 0.096958
vt 0.684903 0.097360
vt 0.685002 0.102084
vt 0.672122 0.126230
vt 0.676946 0.105397
vt 0.677977 0.126275
vt 0.681073 0.105809
vt 0.683497 0.126306
vt 0.071170 0.102278
vt 0.075125 0.086220
vt 0.076668 0.102286
vt 0.082150 0.102278
vt 0.087142 0.082957
vt 0.087610 0.102247
vt 0.566161 0.275205
vt 0.567624 0.275862
vt 0.559251 0.274180
vt 0.560730 0.275205
vt 0.559319 0.275862
vt 0.560648 0.273194
vt 0.562069 0.274751
vt 0.561978 0.272514
vt 0.563422 0.274636
vt 0.564694 0.272514
vt 0.564784 0.274751
vt 0.569118 0.286260
vt 0.568183 0.287749
vt 0.567433 0.286533
vt 0.563910 0.286645
vt 0.563888 0.286117
vt 0.571044 0.273656
vt 0.571488 0.274989
vt 0.559661 0.284278
vt 0.558898 0.283344
vt 0.559593 0.282595
vt 0.562523 0.285944
vt 0.562481 0.286645
vt 0.561138 0.285264
vt 0.561059 0.286645
vt 0.570313 0.284166
vt 0.571488 0.286262
vt 0.559757 0.286645
vt 0.557603 0.281517
vt 0.557226 0.283809
vt 0.557226 0.281520
vt 0.568062 0.286645
vt 0.566776 0.287021
vt 0.566760 0.286645
vt 0.563486 0.272826
vt 0.562832 0.270725
vt 0.563486 0.270726
vt 0.568749 0.271764
vt 0.568765 0.272140
vt 0.557603 0.283818
vt 0.557226 0.285904
vt 0.561879 0.271813
vt 0.560489 0.272610
vt 0.561864 0.271437
vt 0.563292 0.271437
vt 0.563308 0.271813
vt 0.556737 0.284787
vt 0.556162 0.286910
vt 0.556084 0.284785
vt 0.568188 0.279799
vt 0.568985 0.277521
vt 0.569362 0.277510
vt 0.564721 0.271437
vt 0.564736 0.271813
vt 0.566143 0.271437
vt 0.566158 0.271813
vt 0.558020 0.283937
vt 0.556636 0.286249
vt 0.556636 0.284154
vt 0.557882 0.287417
vt 0.556636 0.287416
vt 0.570104 0.283947
vt 0.556636 0.281864
vt 0.557338 0.281751
vt 0.558020 0.275195
vt 0.556636 0.272881
vt 0.559006 0.272883
vt 0.559942 0.271892
vt 0.560691 0.272609
vt 0.556636 0.279565
vt 0.557165 0.279565
vt 0.563329 0.272341
vt 0.570242 0.287427
vt 0.557338 0.277380
vt 0.556636 0.277266
vt 0.556636 0.274976
vt 0.560504 0.272986
vt 0.571011 0.285252
vt 0.570547 0.286530
vt 0.570497 0.285286
vt 0.568319 0.275114
vt 0.568748 0.273057
vt 0.569054 0.275114
vt 0.556172 0.282497
vt 0.556830 0.280183
vt 0.556825 0.282510
vt 0.562844 0.284694
vt 0.562305 0.285946
vt 0.562305 0.284700
vt 0.560457 0.272366
vt 0.562305 0.271097
vt 0.562305 0.272342
vt 0.567779 0.273500
vt 0.569490 0.272140
vt 0.569963 0.273384
vt 0.559050 0.286913
vt 0.556812 0.288085
vt 0.556815 0.286911
vt 0.557882 0.271715
vt 0.558982 0.285401
vt 0.563486 0.269551
vt 0.565726 0.284180
vt 0.563486 0.285353
vt 0.563486 0.284179
vt 0.569118 0.273899
vt 0.571044 0.272489
vt 0.568736 0.285401
vt 0.568787 0.286645
vt 0.556159 0.274217
vt 0.556815 0.273044
vt 0.556812 0.274218
vt 0.565281 0.277897
vt 0.563046 0.275585
vt 0.565281 0.275583
vt 0.564188 0.281395
vt 0.566428 0.283700
vt 0.564188 0.283699
vt 0.565281 0.280202
vt 0.563046 0.277900
vt 0.564188 0.279081
vt 0.566428 0.281396
vt 0.566428 0.285808
vt 0.564188 0.285808
vt 0.565312 0.281549
vt 0.563046 0.280204
vt 0.565281 0.273269
vt 0.563046 0.273271
vt 0.563128 0.270984
vt 0.565363 0.270981
vt 0.564188 0.272354
vt 0.566428 0.274463
vt 0.564188 0.274463
vt 0.566428 0.276768
vt 0.564188 0.276767
vt 0.566428 0.279082
vt 0.563046 0.268858
vt 0.565281 0.268856
vt 0.568985 0.275210
vt 0.569362 0.275211
vt 0.559772 0.287021
vt 0.556182 0.277869
vt 0.556835 0.277870
vt 0.561074 0.287021
vt 0.562496 0.287021
vt 0.565759 0.286407
vt 0.565382 0.284555
vt 0.565759 0.284559
vt 0.563925 0.287021
vt 0.565353 0.287021
vt 0.566989 0.271880
vt 0.570470 0.285321
vt 0.569388 0.283344
vt 0.569872 0.283264
vt 0.567709 0.284713
vt 0.566632 0.282676
vt 0.567912 0.282659
vt 0.569362 0.272911
vt 0.556840 0.275566
vt 0.563709 0.286790
vt 0.562878 0.285239
vt 0.563709 0.284555
vt 0.558469 0.285401
vt 0.558163 0.283344
vt 0.562047 0.286795
vt 0.561216 0.285242
vt 0.562047 0.284555
vt 0.568985 0.270622
vt 0.569362 0.270622
vt 0.556188 0.275564
vt 0.568919 0.269289
vt 0.558648 0.277172
vt 0.557829 0.275114
vt 0.558564 0.275114
vt 0.558815 0.281286
vt 0.557691 0.277172
vt 0.562305 0.282660
vt 0.562305 0.280581
vt 0.563028 0.282640
vt 0.568116 0.276485
vt 0.566632 0.274436
vt 0.567913 0.274420
vt 0.568116 0.280604
vt 0.566835 0.276501
vt 0.570580 0.277092
vt 0.570274 0.275034
vt 0.569527 0.281286
vt 0.569359 0.277172
vt 0.567898 0.282595
vt 0.568569 0.281286
vt 0.568653 0.283344
vt 0.567693 0.277546
vt 0.567829 0.280912
vt 0.568402 0.277172
vt 0.567433 0.272615
vt 0.566122 0.271075
vt 0.568183 0.271401
vt 0.562377 0.272335
vt 0.565747 0.272338
vt 0.559524 0.280912
vt 0.559388 0.277546
vt 0.560691 0.286528
vt 0.562002 0.288067
vt 0.559942 0.287742
vt 0.565747 0.286807
vt 0.562377 0.286804
vt 0.565057 0.281467
vt 0.566487 0.283252
vt 0.565148 0.283706
vt 0.564875 0.276991
vt 0.566405 0.281241
vt 0.563702 0.281525
vt 0.563795 0.283821
vt 0.563515 0.276933
vt 0.562433 0.283706
vt 0.562160 0.276991
vt 0.562342 0.281467
vt 0.561056 0.283252
vt 0.560812 0.277217
vt 0.560975 0.281241
vt 0.566242 0.277217
vt 0.719002 0.061446
vt 0.719671 0.058402
vt 0.723063 0.048034
vt 0.720870 0.064686
vt 0.720902 0.048080
vt 0.712338 0.056275
vt 0.721184 0.053301
vt 0.720743 0.056338
vt 0.706031 0.056815
vt 0.708608 0.053516
vt 0.709184 0.056545
vt 0.681629 0.094424
vt 0.685403 0.097509
vt 0.682116 0.100743
vt 0.694042 0.093949
vt 0.693481 0.099736
vt 0.684533 0.099573
vt 0.682413 0.119016
vt 0.682413 0.098683
vt 0.687700 0.118068
vt 0.690853 0.118296
vt 0.686633 0.118656
vt 0.705339 0.103170
vt 0.707651 0.119203
vt 0.705525 0.118494
vt 0.694182 0.123444
vt 0.696868 0.122730
vt 0.682832 0.122738
vt 0.685994 0.122942
vt 0.681764 0.123302
vt 0.700593 0.107797
vt 0.702764 0.124059
vt 0.700642 0.123339
vt 0.701070 0.101285
vt 0.699116 0.098038
vt 0.703274 0.098453
vt 0.697280 0.105076
vt 0.694165 0.104056
vt 0.698309 0.104540
vt 0.703460 0.118781
vt 0.702393 0.118178
vt 0.699258 0.117861
vt 0.690854 0.117799
vt 0.698584 0.123567
vt 0.697518 0.122970
vt 0.694394 0.122601
vt 0.685993 0.122469
vt 0.686596 0.098329
vt 0.687653 0.099310
vt 0.690773 0.099047
vt 0.695933 0.103653
vt 0.679606 0.106480
vt 0.681638 0.104277
vt 0.682731 0.106217
vt 0.694189 0.104715
vt 0.685831 0.103924
vt 0.723489 0.052442
vt 0.725642 0.041925
vt 0.725787 0.052679
vt 0.718651 0.057194
vt 0.720425 0.050033
vt 0.720943 0.057470
vt 0.704830 0.056977
vt 0.707054 0.045194
vt 0.707150 0.056774
vt 0.713570 0.045623
vt 0.716359 0.056919
vt 0.709662 0.052340
vt 0.711913 0.037954
vt 0.711977 0.052137
vt 0.717897 0.042567
vt 0.721189 0.052205
vt 0.701157 0.061484
vt 0.703767 0.058152
vt 0.704316 0.061215
vt 0.705275 0.063855
vt 0.703059 0.066952
vt 0.703051 0.063598
vt 0.723039 0.028055
vt 0.720870 0.045907
vt 0.720904 0.028063
vt 0.707468 0.060286
vt 0.705275 0.066190
vt 0.705275 0.060245
vt 0.718332 0.053570
vt 0.720310 0.057485
vt 0.718097 0.057830
vt 0.708747 0.052246
vt 0.706117 0.054935
vt 0.706588 0.051620
vt 0.709274 0.070141
vt 0.706260 0.067394
vt 0.708429 0.066801
vt 0.708633 0.046579
vt 0.710823 0.067393
vt 0.708633 0.069528
vt 0.707953 0.063687
vt 0.708302 0.055360
vt 0.723877 0.056654
vt 0.724519 0.053634
vt 0.707345 0.038346
vt 0.705253 0.053798
vt 0.705249 0.036794
vt 0.711964 0.053233
vt 0.727853 0.053966
vt 0.702472 0.045011
vt 0.700406 0.058434
vt 0.700355 0.043587
vt 0.722996 0.058790
vt 0.722203 0.040119
vt 0.717869 0.040855
vt 0.723206 0.038502
vt 0.718299 0.044482
vt 0.716158 0.041811
vt 0.719449 0.042190
vt 0.708571 0.036518
vt 0.709629 0.038150
vt 0.703682 0.043312
vt 0.704760 0.044816
vt 0.707016 0.043611
vt 0.690785 0.093954
vt 0.690778 0.097976
vt 0.688240 0.094323
vt 0.705702 0.101562
vt 0.707428 0.098868
vt 0.702453 0.105024
vt 0.696890 0.089787
vt 0.690084 0.091956
vt 0.702706 0.086156
vt 0.700632 0.087007
vt 0.701344 0.090950
vt 0.701954 0.096451
vt 0.700249 0.099229
vt 0.672761 0.101563
vt 0.687452 0.110248
vt 0.694416 0.105348
vt 0.702978 0.099398
vt 0.704823 0.096746
vt 0.705614 0.102208
vt 0.685154 0.123545
vt 0.684094 0.120665
vt 0.685545 0.123498
vt 0.706051 0.102153
vt 0.706085 0.107609
vt 0.705655 0.102186
vt 0.672110 0.117478
vt 0.691860 0.117159
vt 0.703616 0.091484
vt 0.683699 0.120701
vt 0.683665 0.117314
vt 0.704350 0.096697
vt 0.703958 0.096748
vt 0.693575 0.111396
vt 0.696989 0.095900
vt 0.691874 0.095300
vt 0.683699 0.113923
vt 0.683266 0.117330
vt 0.703301 0.082618
vt 0.704592 0.085702
vt 0.702608 0.062975
vt 0.701292 0.058271
vt 0.702509 0.058270
vt 0.701265 0.052807
vt 0.702483 0.052807
vt 0.701299 0.047356
vt 0.702516 0.047356
vt 0.702622 0.042692
vt 0.701422 0.041908
vt 0.721171 0.041589
vt 0.721157 0.042375
vt 0.721157 0.063448
vt 0.701407 0.063767
vt 0.722691 0.042994
vt 0.726286 0.042189
vt 0.723192 0.063145
vt 0.721144 0.062655
vt 0.722641 0.046640
vt 0.722171 0.046640
vt 0.721665 0.052422
vt 0.721194 0.052421
vt 0.722401 0.057683
vt 0.722871 0.057685
vt 0.723674 0.063935
vt 0.706051 0.113064
vt 0.706484 0.107609
vt 0.685043 0.081755
vt 0.703579 0.081438
vt 0.704350 0.118518
vt 0.705655 0.113031
vt 0.685030 0.102038
vt 0.694377 0.117646
vt 0.701553 0.107206
vt 0.700103 0.106175
vt 0.701553 0.105385
vt 0.059797 0.071591
vt 0.692368 0.106133
vt 0.693344 0.100351
vt 0.703565 0.101718
vt 0.685154 0.110961
vt 0.684094 0.113928
vt 0.677488 0.103031
vt 0.677449 0.104629
vt 0.727676 0.040403
vt 0.702512 0.057179
vt 0.727010 0.056970
vt 0.709274 0.049140
vt 0.707141 0.048313
vt 0.720546 0.062942
vt 0.718333 0.063085
vt 0.707477 0.060945
vt 0.685864 0.106529
vt 0.699266 0.118358
vt 0.679672 0.123008
vt 0.677449 0.125222
vt 0.677501 0.097470
vt 0.570242 0.271726
vt 0.569969 0.272977
vt 0.563213 0.276465
vt 0.562305 0.276456
vt 0.557968 0.273057
vt 0.562305 0.274402
vt 0.562844 0.272335
vt 0.563028 0.274400
vt 0.566835 0.280621
vt 0.566122 0.288071
vt 0.694563 0.086884
vt 0.703289 0.083783
vt 0.682479 0.094660
vt 0.711892 0.036243
vt 0.722962 0.044930
vt 0.707348 0.052542
vt 0.705761 0.064079
vt 0.705275 0.060703
vt 0.703043 0.060245
vt 0.694403 0.123074
vt 0.684546 0.118338
vt 0.686620 0.089252
vt 0.722127 0.061815
vt 0.567966 0.284278
vt 0.559006 0.286251
vt 0.569249 0.285401
vt 0.566428 0.272371
vt 0.567709 0.272354
vt 0.566625 0.279160
vt 0.565363 0.277102
vt 0.566982 0.277100
vt 0.557858 0.281286
vt 0.565363 0.272977
vt 0.566982 0.272980
vt 0.567036 0.277542
vt 0.566276 0.279576
vt 0.566029 0.277501
vt 0.562002 0.271570
vt 0.698176 0.097377
vt 0.688347 0.039067
vt 0.688258 0.041631
vt 0.687190 0.040565
vt 0.693482 0.037534
vt 0.693206 0.039508
vt 0.691579 0.037664
vt 0.697527 0.041466
vt 0.699211 0.042887
vt 0.696824 0.042976
vt 0.683603 0.050180
vt 0.684933 0.052272
vt 0.683455 0.052224
vt 0.690729 0.038434
vt 0.692639 0.042236
vt 0.694732 0.041789
vt 0.695729 0.039112
vt 0.686898 0.043374
vt 0.685950 0.044599
vt 0.685650 0.044258
vt 0.677582 0.128217
vt 0.676057 0.121768
vt 0.677568 0.121781
vt 0.683639 0.038393
vt 0.685850 0.040659
vt 0.683455 0.040466
vt 0.676057 0.135731
vt 0.676062 0.129034
vt 0.692803 0.040723
vt 0.692481 0.037634
vt 0.685449 0.043124
vt 0.687238 0.043354
vt 0.686870 0.041326
vt 0.691930 0.040827
vt 0.690462 0.044669
vt 0.691357 0.038156
vt 0.688503 0.038289
vt 0.689167 0.036777
vt 0.690630 0.039781
vt 0.687040 0.045770
vt 0.684132 0.045339
vt 0.689790 0.038408
vt 0.691317 0.051150
vt 0.692794 0.050451
vt 0.691681 0.052536
vt 0.685265 0.047862
vt 0.683624 0.048471
vt 0.686832 0.036764
vt 0.687890 0.034354
vt 0.687678 0.044256
vt 0.685080 0.050229
vt 0.566625 0.270920
vt 0.565363 0.270897
vt 0.566267 0.268861
vt 0.562832 0.282070
vt 0.563486 0.279768
vt 0.563486 0.282071
vt 0.557603 0.274632
vt 0.557226 0.272537
vt 0.557603 0.272537
vt 0.565363 0.279156
vt 0.566267 0.281221
vt 0.565363 0.281216
vt 0.570794 0.274964
vt 0.570079 0.274991
vt 0.566539 0.271326
vt 0.567533 0.273432
vt 0.566073 0.273365
vt 0.559382 0.287497
vt 0.560943 0.285948
vt 0.560974 0.287497
vt 0.570163 0.277051
vt 0.570936 0.281137
vt 0.570020 0.281175
vt 0.570819 0.283195
vt 0.570104 0.283226
vt 0.565006 0.284555
vt 0.565382 0.286407
vt 0.565006 0.286402
vt 0.562832 0.284179
vt 0.567811 0.277582
vt 0.567284 0.279618
vt 0.567094 0.281665
vt 0.566347 0.281631
vt 0.557226 0.274631
vt 0.557603 0.276919
vt 0.557226 0.276921
vt 0.562832 0.279766
vt 0.563486 0.277454
vt 0.557603 0.279219
vt 0.557226 0.279220
vt 0.568985 0.281894
vt 0.569362 0.281895
vt 0.562832 0.277452
vt 0.563486 0.275141
vt 0.567811 0.269770
vt 0.567006 0.269289
vt 0.559050 0.273046
vt 0.559047 0.274221
vt 0.562832 0.285353
vt 0.565726 0.269552
vt 0.565726 0.270726
vt 0.556159 0.288084
vt 0.570510 0.272908
vt 0.570004 0.272107
vt 0.562844 0.271090
vt 0.560457 0.285970
vt 0.560457 0.284724
vt 0.562878 0.285241
vt 0.562878 0.286794
vt 0.569822 0.286530
vt 0.568077 0.287021
vt 0.562832 0.272834
vt 0.691408 0.109665
vt 0.687737 0.104851
vt 0.689175 0.104410
vt 0.689128 0.089160
vt 0.688768 0.094082
vt 0.687664 0.088761
vt 0.690895 0.084286
vt 0.689735 0.083046
vt 0.685722 0.096910
vt 0.686007 0.101096
vt 0.684604 0.100526
vt 0.681958 0.107046
vt 0.683296 0.107764
vt 0.679919 0.111393
vt 0.678103 0.111009
vt 0.676963 0.116419
vt 0.675861 0.115359
vt 0.671970 0.118396
vt 0.672263 0.120088
vt 0.693769 0.081926
vt 0.694176 0.083375
vt 0.686095 0.091986
vt 0.687214 0.097242
vt 0.690509 0.121359
vt 0.687664 0.115055
vt 0.690509 0.115117
vt 0.694176 0.113594
vt 0.688642 0.111279
vt 0.680732 0.086559
vt 0.684548 0.088414
vt 0.683631 0.089607
vt 0.673960 0.081926
vt 0.682191 0.084533
vt 0.689834 0.120250
vt 0.691445 0.122569
vt 0.689834 0.122882
vt 0.686729 0.116806
vt 0.688506 0.120333
vt 0.687210 0.122993
vt 0.685995 0.121918
vt 0.687505 0.125924
vt 0.685995 0.125923
vt 0.687664 0.091293
vt 0.688693 0.122029
vt 0.686586 0.125899
vt 0.686194 0.122029
vt 0.688506 0.112536
vt 0.687151 0.112565
vt 0.688572 0.101982
vt 0.689834 0.102282
vt 0.689892 0.094415
vt 0.681090 0.048598
vt 0.683106 0.045479
vt 0.685348 0.050476
vt 0.685459 0.036003
vt 0.683220 0.035006
vt 0.683824 0.034467
vt 0.688061 0.040519
vt 0.683620 0.040086
vt 0.690291 0.040753
vt 0.692170 0.043631
vt 0.688843 0.040670
vt 0.691285 0.052232
vt 0.687511 0.049781
vt 0.691317 0.048991
vt 0.684048 0.042224
vt 0.687148 0.038434
vt 0.687190 0.050117
vt 0.692734 0.041579
vt 0.689349 0.048361
vt 0.688128 0.050589
vt 0.687793 0.050596
vt 0.696383 0.046427
vt 0.696620 0.043909
vt 0.696420 0.046396
vt 0.686034 0.038586
vt 0.686083 0.038315
vt 0.696220 0.048882
vt 0.691305 0.054711
vt 0.687528 0.052260
vt 0.688400 0.044480
vt 0.685650 0.055137
vt 0.685650 0.052273
vt 0.686025 0.043314
vt 0.683464 0.040306
vt 0.692675 0.053175
vt 0.690470 0.052060
vt 0.695051 0.047476
vt 0.686064 0.048455
vt 0.688495 0.050275
vt 0.685746 0.050275
vt 0.685725 0.051311
vt 0.684460 0.053097
vt 0.683261 0.051160
vt 0.698187 0.046292
vt 0.698941 0.043895
vt 0.688481 0.048392
vt 0.686326 0.046949
vt 0.688388 0.046063
vt 0.692440 0.045132
vt 0.683220 0.048679
vt 0.701085 0.090237
vt 0.691968 0.088413
vt 0.672606 0.092590
vt 0.705851 0.113330
vt 0.707882 0.089785
vt 0.705826 0.122885
vt 0.715648 0.064058
vt 0.084563 0.065759
vt 0.068746 0.081781
vt 0.082088 0.081320
vt 0.557603 0.285905
vt 0.567811 0.279800
vt 0.571488 0.287429
vt 0.571061 0.286496
vt 0.556177 0.280183
vt 0.562844 0.285939
vt 0.560457 0.271121
vt 0.567729 0.272256
vt 0.559047 0.288088
vt 0.556636 0.271714
vt 0.559032 0.286645
vt 0.562832 0.269551
vt 0.565726 0.285354
vt 0.556162 0.273043
vt 0.563077 0.281551
vt 0.566428 0.272355
vt 0.559140 0.271437
vt 0.565382 0.286402
vt 0.566428 0.284729
vt 0.568985 0.272911
vt 0.562878 0.286789
vt 0.561216 0.286795
vt 0.568542 0.269289
vt 0.563213 0.280584
vt 0.570011 0.281206
vt 0.723063 0.066770
vt 0.685609 0.091377
vt 0.673018 0.123726
vt 0.705275 0.067006
vt 0.723039 0.048034
vt 0.707479 0.066174
vt 0.720546 0.053023
vt 0.707128 0.070936
vt 0.710797 0.046579
vt 0.705113 0.082056
vt 0.703958 0.118466
vt 0.701341 0.110501
vt 0.079547 0.071272
vt 0.685545 0.110977
vt 0.698989 0.081678
vt 0.682457 0.086374
vt 0.694262 0.038416
vt 0.699432 0.042384
vt 0.692639 0.038923
vt 0.677561 0.136895
vt 0.565363 0.268856
vt 0.567643 0.271373
vt 0.560021 0.285249
vt 0.571079 0.277022
vt 0.565382 0.284559
vt 0.567702 0.279632
vt 0.562832 0.275138
vt 0.569838 0.286906
vt 0.689131 0.121322
vt 0.693314 0.115055
vt 0.671970 0.083613
vt 0.691622 0.120034
vt 0.688217 0.116713
vt 0.688851 0.121768
vt 0.688070 0.126033
vt 0.681324 0.050120
vt 0.687190 0.039913
vt 0.694262 0.048991
vt 0.687527 0.055123
vt 0.687627 0.042415
vt 0.683220 0.047362
vt 0.690392 0.052170
vt 0.686731 0.053240
vt 0.691314 0.046851
vt 0.686731 0.047362
vt 0.686832 0.054139
s 0
usemtl Material
f 239/1/1 69/2/1 70/3/1
f 77/4/2 91/5/2 99/6/2
f 53/7/2 75/8/2 48/9/2
f 237/10/1 69/2/1 238/11/1
f 43/12/2 81/13/2 52/14/2
f 236/15/1 68/16/1 237/10/1
f 381/17/3 231/18/3 230/19/3
f 229/20/4 381/17/4 230/19/4
f 384/21/5 229/20/5 228/22/5
f 383/23/6 228/22/6 227/24/6
f 218/25/7 383/23/7 227/24/7
f 225/26/8 387/27/8 244/28/8
f 388/29/9 225/26/9 224/30/9
f 389/31/10 224/30/10 223/32/10
f 243/33/11 389/31/11 223/32/11
f 220/34/12 390/35/12 243/33/12
f 341/36/13 385/37/13 218/38/13
f 387/27/14 221/39/14 244/28/14
f 306/40/15 391/41/15 220/42/15
f 231/18/16 395/43/16 219/44/16
f 41/45/17 171/46/17 5/47/17
f 131/48/18 187/49/18 189/50/18
f 242/51/19 176/52/19 236/53/19
f 31/54/20 208/55/20 3/56/20
f 174/57/21 241/58/21 240/59/21
f 32/60/22 13/61/22 14/62/22
f 13/61/23 34/63/23 12/64/23
f 12/64/24 35/65/24 11/66/24
f 35/65/25 10/67/25 11/66/25
f 178/68/26 37/69/26 9/70/26
f 9/70/27 38/71/27 8/72/27
f 8/73/28 39/74/28 7/75/28
f 39/74/29 6/76/29 7/75/29
f 6/76/30 41/77/30 5/78/30
f 288/79/2 48/9/2 275/80/2
f 45/81/2 284/82/2 283/83/2
f 47/84/2 285/85/2 284/82/2
f 56/86/2 286/87/2 285/85/2
f 286/87/2 54/88/2 287/89/2
f 287/89/2 53/7/2 288/79/2
f 174/90/1 289/91/1 280/92/1
f 52/14/2 71/93/2 51/94/2
f 236/15/1 66/95/1 67/96/1
f 46/97/2 317/98/2 310/99/2
f 50/100/2 71/93/2 80/101/2
f 49/102/2 80/101/2 79/103/2
f 174/90/1 59/104/1 60/105/1
f 49/102/2 78/106/2 46/97/2
f 104/107/1 366/108/1 367/109/1
f 72/110/2 109/111/2 73/112/2
f 105/113/31 61/114/31 345/115/31
f 75/8/32 358/116/32 343/117/32
f 105/118/1 365/119/1 366/108/1
f 84/120/2 112/121/2 120/122/2
f 84/120/2 119/123/2 83/124/2
f 106/125/33 60/126/33 59/127/33
f 363/128/1 121/129/1 362/130/1
f 83/124/2 118/131/2 82/132/2
f 82/132/2 110/133/2 74/134/2
f 53/7/2 82/132/2 74/134/2
f 5/135/1 61/136/1 62/137/1
f 61/136/1 86/138/1 100/139/1
f 240/140/1 70/3/1 59/104/1
f 54/88/2 83/124/2 82/132/2
f 5/135/1 63/141/1 6/142/1
f 9/143/1 58/144/1 178/145/1
f 178/145/1 324/146/1 320/147/1
f 6/142/1 64/148/1 7/149/1
f 56/86/2 83/124/2 55/150/2
f 60/105/1 85/151/1 174/90/1
f 47/84/2 84/120/2 56/86/2
f 8/152/1 64/148/1 65/153/1
f 43/12/2 72/110/2 73/112/2
f 9/143/1 65/153/1 57/154/1
f 45/81/2 76/155/2 47/84/2
f 87/156/32 350/157/32 346/158/32
f 277/159/2 126/160/2 279/161/2
f 70/162/34 122/163/34 121/164/34
f 85/165/35 352/166/35 348/167/35
f 92/168/35 353/169/35 349/170/35
f 90/171/36 351/172/36 347/173/36
f 75/8/2 90/171/2 48/9/2
f 77/174/34 352/175/34 344/176/34
f 48/9/2 277/159/2 275/80/2
f 58/144/1 87/177/1 178/145/1
f 78/106/2 92/178/2 46/97/2
f 61/114/31 353/179/31 345/115/31
f 72/180/31 350/181/31 342/182/31
f 176/183/1 93/184/1 66/95/1
f 72/110/2 89/185/2 96/186/2
f 66/187/34 351/188/34 343/189/34
f 360/190/34 119/191/34 361/192/34
f 359/193/31 109/194/31 356/195/31
f 357/196/34 118/197/34 360/190/34
f 354/198/31 117/199/31 359/193/31
f 356/195/31 108/200/31 355/201/31
f 358/202/37 110/203/37 357/196/37
f 362/204/34 119/191/34 120/205/34
f 362/204/38 112/206/38 363/207/38
f 365/208/31 115/209/31 366/210/31
f 366/210/31 116/211/31 367/212/31
f 367/212/31 107/213/31 354/198/31
f 363/207/39 113/214/39 364/215/39
f 77/4/2 112/121/2 76/155/2
f 362/130/1 122/216/1 361/217/1
f 79/103/2 114/218/2 78/106/2
f 122/163/34 68/219/34 123/220/34
f 80/101/2 115/221/2 79/103/2
f 71/93/2 116/222/2 80/101/2
f 78/223/35 365/224/35 345/225/35
f 81/13/2 107/226/2 71/93/2
f 73/112/2 117/227/2 81/13/2
f 74/134/2 111/228/2 75/8/2
f 368/229/40 327/230/40 379/231/40
f 370/232/41 292/233/41 377/234/41
f 122/216/1 360/235/1 361/217/1
f 68/219/34 124/236/34 123/220/34
f 91/237/34 370/238/34 348/239/34
f 317/98/2 128/240/2 319/241/2
f 89/242/31 368/243/31 346/244/31
f 360/235/1 124/245/1 357/246/1
f 67/247/42 343/189/42 124/236/42
f 124/245/1 358/248/1 357/246/1
f 158/249/2 292/250/2 290/251/2
f 159/252/2 166/253/2 158/249/2
f 165/254/35 85/165/35 348/167/35
f 164/255/43 289/256/43 165/254/43
f 372/257/44 319/258/44 378/259/44
f 373/260/35 167/261/35 372/257/35
f 374/262/45 279/161/45 376/263/45
f 374/262/32 168/264/32 169/265/32
f 323/266/2 160/267/2 325/268/2
f 143/269/2 160/267/2 142/270/2
f 160/267/2 327/230/2 325/268/2
f 161/271/2 168/264/2 160/267/2
f 272/272/1 157/273/1 276/274/1
f 183/275/1 157/273/1 177/276/1
f 283/83/2 158/249/2 290/251/2
f 141/277/2 158/249/2 140/278/2
f 307/279/1 155/280/1 316/281/1
f 182/282/1 155/280/1 172/283/1
f 151/284/2 315/285/2 314/286/2
f 150/287/2 153/288/2 151/284/2
f 149/289/2 314/286/2 313/290/2
f 148/291/2 151/284/2 149/289/2
f 312/292/2 149/289/2 313/290/2
f 146/293/2 149/289/2 147/294/2
f 311/295/2 147/294/2 312/292/2
f 144/296/2 147/294/2 145/297/2
f 310/99/2 145/297/2 311/295/2
f 141/277/2 144/296/2 145/297/2
f 153/288/2 323/266/2 315/285/2
f 152/298/2 142/270/2 153/288/2
f 330/299/46 189/50/46 334/300/46
f 30/301/47 206/302/47 205/303/47
f 130/304/48 214/305/48 129/306/48
f 2/307/49 332/308/49 328/309/49
f 396/310/50 234/311/50 305/312/50
f 234/311/51 398/313/51 235/314/51
f 29/315/52 171/316/52 170/317/52
f 328/318/53 172/319/53 307/320/53
f 30/321/54 174/322/54 4/323/54
f 31/324/55 176/52/55 175/325/55
f 293/326/56 177/327/56 272/328/56
f 42/329/57 178/330/57 1/331/57
f 294/332/58 180/333/58 274/334/58
f 329/335/59 181/336/59 309/337/59
f 4/323/60 280/338/60 295/339/60
f 129/340/61 172/319/61 130/341/61
f 1/331/62 320/342/62 330/343/62
f 131/344/63 177/327/63 132/345/63
f 29/315/64 322/346/64 331/347/64
f 136/348/65 180/333/65 137/349/65
f 31/350/66 282/351/66 296/352/66
f 139/353/67 185/354/67 181/336/67
f 303/355/68 196/356/68 197/357/68
f 338/358/69 201/359/69 200/360/69
f 301/361/70 217/362/70 209/363/70
f 209/363/71 213/364/71 215/365/71
f 336/366/72 216/367/72 191/368/72
f 191/368/73 212/369/73 193/370/73
f 3/371/74 297/372/74 293/373/74
f 331/374/75 190/375/75 335/376/75
f 42/377/76 210/378/76 211/379/76
f 136/380/77 192/381/77 190/382/77
f 30/383/78 298/384/78 294/385/78
f 296/386/79 186/387/79 300/388/79
f 42/389/80 333/390/80 329/391/80
f 29/392/81 203/393/81 2/394/81
f 139/395/82 186/387/82 138/396/82
f 295/397/83 214/305/83 299/398/83
f 194/399/84 203/400/84 202/401/84
f 336/366/85 204/402/85 332/308/85
f 196/356/86 206/403/86 197/357/86
f 198/404/87 208/405/87 207/406/87
f 301/361/88 187/49/88 297/372/88
f 201/359/89 210/407/89 200/360/89
f 302/408/90 192/409/90 298/410/90
f 337/411/91 188/412/91 333/413/91
f 197/357/92 299/398/92 303/355/92
f 191/368/93 214/305/93 204/402/93
f 200/360/94 334/300/94 338/358/94
f 215/365/95 187/49/95 209/363/95
f 194/399/96 335/414/96 339/415/96
f 216/367/97 192/409/97 212/369/97
f 198/404/98 300/416/98 304/417/98
f 213/364/99 186/418/99 188/412/99
f 185/354/100 235/314/100 181/336/100
f 305/312/101 185/354/101 282/351/101
f 232/419/35 180/333/35 184/420/35
f 340/421/102 184/420/102 322/346/102
f 231/18/103 170/422/103 41/45/103
f 274/334/104 220/42/104 173/423/104
f 244/28/105 175/325/105 242/51/105
f 341/36/106 179/424/106 309/337/106
f 173/425/107 243/33/107 241/426/107
f 32/60/108 245/427/108 33/428/108
f 33/428/109 246/429/109 34/63/109
f 34/63/110 247/430/110 35/65/110
f 247/430/111 36/431/111 35/65/111
f 179/432/112 227/24/112 37/69/112
f 227/24/113 38/71/113 37/69/113
f 38/71/114 229/20/114 39/433/114
f 229/20/115 40/434/115 39/433/115
f 230/19/116 41/45/116 40/434/116
f 226/435/117 271/436/117 268/437/117
f 14/438/118 263/439/118 264/440/118
f 237/441/1 250/442/1 249/443/1
f 242/51/119 248/444/119 254/445/119
f 247/430/120 270/446/120 271/436/120
f 13/447/2 262/448/2 263/439/2
f 236/449/121 249/443/121 248/450/121
f 245/427/122 270/446/122 246/429/122
f 244/28/123 259/451/123 225/26/123
f 241/426/124 255/452/124 253/453/124
f 11/454/2 262/448/2 12/455/2
f 222/456/125 269/457/125 245/427/125
f 260/458/126 249/459/126 261/460/126
f 261/460/127 250/461/127 262/462/127
f 262/462/128 251/463/128 263/464/128
f 264/465/129 251/463/129 252/466/129
f 264/465/130 253/467/130 265/468/130
f 260/458/131 254/469/131 248/470/131
f 267/471/132 253/467/132 255/472/132
f 268/473/133 254/469/133 266/474/133
f 267/471/134 257/475/134 269/476/134
f 269/476/135 258/477/135 270/478/135
f 271/479/136 258/477/136 259/480/136
f 268/473/137 259/480/137 256/481/137
f 239/482/1 250/442/1 238/483/1
f 32/60/138 264/484/138 265/485/138
f 240/486/1 251/487/1 239/482/1
f 36/431/139 260/488/139 10/67/139
f 244/28/140 254/445/140 256/489/140
f 223/32/141 255/452/141 243/33/141
f 222/490/142 265/491/142 267/492/142
f 241/58/143 252/493/143 240/59/143
f 223/32/144 258/494/144 257/495/144
f 226/435/145 266/496/145 36/431/145
f 10/497/2 261/498/2 11/454/2
f 225/26/146 258/494/146 224/30/146
f 180/333/147 306/40/147 274/334/147
f 221/499/148 282/351/148 175/500/148
f 304/417/149 186/418/149 217/362/149
f 303/355/150 214/305/150 193/370/150
f 196/356/151 298/410/151 205/501/151
f 199/502/152 297/372/152 208/405/152
f 4/503/153 299/398/153 206/403/153
f 31/504/154 300/388/154 207/505/154
f 294/385/155 192/506/155 137/507/155
f 293/373/156 187/49/156 132/508/156
f 198/404/157 301/361/157 199/502/157
f 212/369/158 303/355/158 193/370/158
f 296/352/159 185/354/159 138/509/159
f 295/339/160 182/510/160 129/340/160
f 30/321/161 274/334/161 173/423/161
f 3/511/162 272/328/162 176/512/162
f 393/513/163 305/312/163 221/499/163
f 45/81/2 290/251/2 91/5/2
f 176/183/1 276/274/1 88/514/1
f 376/263/45 126/160/45 369/515/45
f 155/516/164 164/255/164 163/517/164
f 290/251/2 127/518/2 91/5/2
f 162/519/165 86/520/165 316/521/165
f 377/234/41 166/522/41 373/260/41
f 275/80/2 161/271/2 143/269/2
f 161/271/2 279/161/2 169/265/2
f 280/92/1 154/523/1 182/282/1
f 150/287/2 288/79/2 152/298/2
f 148/291/2 287/89/2 150/287/2
f 285/85/2 148/291/2 146/293/2
f 284/82/2 146/293/2 144/296/2
f 283/83/2 144/296/2 140/278/2
f 152/298/2 275/80/2 143/269/2
f 233/524/166 394/525/166 306/40/166
f 181/336/106 341/36/106 309/337/106
f 219/526/167 322/346/167 170/317/167
f 339/415/168 190/527/168 216/367/168
f 338/358/169 189/50/169 215/365/169
f 337/411/170 211/528/170 201/359/170
f 195/529/171 332/308/171 203/400/171
f 329/391/172 188/530/172 139/395/172
f 29/531/173 335/376/173 202/532/173
f 194/399/174 336/366/174 195/529/174
f 213/364/175 338/358/175 215/365/175
f 331/347/176 184/420/176 136/348/176
f 330/343/177 183/533/177 131/344/177
f 42/329/178 309/337/178 179/424/178
f 2/534/179 307/320/179 171/316/179
f 219/526/180 399/535/180 340/421/180
f 328/309/181 204/402/181 130/304/181
f 1/536/182 334/300/182 210/407/182
f 315/285/2 44/537/2 43/12/2
f 46/97/2 311/295/2 49/102/2
f 49/102/2 312/292/2 50/100/2
f 50/100/2 313/290/2 51/94/2
f 313/290/2 52/14/2 51/94/2
f 314/286/2 43/12/2 52/14/2
f 171/538/1 316/281/1 86/138/1
f 325/268/2 125/539/2 89/185/2
f 44/537/2 325/268/2 89/185/2
f 378/259/44 128/540/44 371/541/44
f 378/542/183 163/543/183 372/544/183
f 159/252/2 319/241/2 167/545/2
f 372/544/184 164/546/184 373/547/184
f 375/548/185 327/549/185 168/550/185
f 320/147/1 156/551/1 183/275/1
f 310/99/2 159/252/2 141/277/2
f 235/314/186 392/552/186 341/36/186
f 17/553/187 431/554/187 440/555/187
f 18/556/188 432/557/188 281/558/188
f 24/559/189 439/560/189 418/561/189
f 23/562/190 441/563/190 18/564/190
f 273/565/191 424/566/191 431/554/191
f 24/559/192 417/567/192 25/568/192
f 308/569/193 439/570/193 15/571/193
f 233/572/194 135/573/194 400/574/194
f 17/575/195 434/576/195 19/577/195
f 233/572/196 407/578/196 424/579/196
f 25/568/197 436/580/197 26/581/197
f 20/582/198 434/576/198 435/583/198
f 134/584/199 420/585/199 406/586/199
f 27/587/200 419/588/200 28/589/200
f 27/587/201 436/580/201 416/590/201
f 20/582/202 433/591/202 21/592/202
f 281/558/203 420/585/203 133/593/203
f 321/594/204 442/595/204 415/596/204
f 21/592/205 437/597/205 22/598/205
f 28/589/206 442/599/206 16/600/206
f 134/584/207 414/601/207 308/569/207
f 22/598/208 438/602/208 23/562/208
f 164/546/209 377/603/209 373/547/209
f 165/604/210 370/605/210 377/603/210
f 57/606/31 102/607/31 101/608/31
f 101/609/1 355/610/1 342/611/1
f 316/521/211 163/517/211 162/519/211
f 162/612/212 371/613/212 349/614/212
f 59/127/213 121/164/213 106/125/213
f 347/173/214 276/615/214 278/616/214
f 376/617/215 291/618/215 374/619/215
f 90/620/216 369/621/216 126/622/216
f 291/623/217 156/624/217 318/625/217
f 291/618/218 375/548/218 374/619/218
f 318/625/219 324/626/219 326/627/219
f 344/628/35 113/629/35 77/630/35
f 101/608/31 58/631/31 57/606/31
f 318/632/220 379/633/220 375/548/220
f 324/626/221 346/158/221 326/627/221
f 379/633/222 346/634/222 368/635/222
f 356/636/1 102/637/1 359/638/1
f 65/639/31 103/640/31 102/607/31
f 359/638/1 103/641/1 354/642/1
f 344/643/1 363/128/1 364/644/1
f 276/615/223 291/623/223 278/616/223
f 64/645/31 104/646/31 103/640/31
f 347/647/224 376/617/224 369/648/224
f 354/642/1 104/107/1 367/109/1
f 343/189/34 98/649/34 75/650/34
f 342/182/31 97/651/31 58/631/31
f 345/115/31 95/652/31 78/653/31
f 344/176/34 94/654/34 60/126/34
f 88/655/225 351/172/225 93/656/225
f 349/170/35 100/657/35 86/520/35
f 348/167/35 99/658/35 91/659/35
f 92/242/31 371/660/31 128/661/31
f 346/158/32 96/186/32 89/185/32
f 342/662/32 108/663/32 72/110/32
f 104/646/31 62/664/31 105/113/31
f 28/665/226 381/666/226 27/667/226
f 24/668/227 384/669/227 383/670/227
f 15/671/1 383/670/1 385/672/1
f 23/673/228 386/674/228 22/675/228
f 21/676/229 386/674/229 388/677/229
f 21/676/230 389/678/230 20/679/230
f 20/679/231 390/680/231 19/681/231
f 17/682/1 390/680/1 391/683/1
f 15/671/1 392/684/1 308/685/1
f 18/686/1 387/687/1 23/673/1
f 17/688/232 394/689/232 273/690/232
f 16/691/233 380/692/233 28/665/233
f 133/693/234 396/694/234 281/695/234
f 133/693/235 398/696/235 397/697/235
f 340/698/236 407/699/236 232/700/236
f 399/701/237 415/702/237 340/703/237
f 273/704/238 400/705/238 135/706/238
f 18/686/239 396/694/239 393/707/239
f 134/708/240 392/709/240 398/710/240
f 16/711/241 399/701/241 395/712/241
f 27/667/242 382/713/242 26/714/242
f 25/715/243 382/713/243 384/669/243
f 409/716/244 403/717/244 402/718/244
f 412/719/245 407/720/245 415/721/245
f 408/722/246 404/723/246 412/719/246
f 423/724/247 429/725/247 430/726/247
f 422/727/248 405/728/248 421/729/248
f 408/730/249 436/731/249 413/732/249
f 421/733/250 406/586/250 420/585/250
f 428/734/251 421/735/251 427/736/251
f 426/737/1 425/738/1 409/739/1
f 430/726/252 440/740/252 431/741/252
f 426/737/253 422/742/253 428/734/253
f 409/743/1 401/744/1 422/727/1
f 423/745/254 431/554/254 424/566/254
f 401/744/255 413/746/255 410/747/255
f 403/748/256 423/749/256 404/723/256
f 405/750/257 410/751/257 411/752/257
f 430/726/258 435/583/258 434/576/258
f 432/753/259 421/754/259 420/755/259
f 412/756/260 442/757/260 419/758/260
f 429/725/261 433/591/261 435/583/261
f 433/591/262 428/734/262 437/597/262
f 437/597/263 427/736/263 438/602/263
f 406/759/264 411/752/264 414/760/264
f 427/761/265 441/762/265 438/763/265
f 407/764/266 423/745/266 424/566/266
f 403/717/267 413/732/267 402/718/267
f 416/765/268 412/756/268 419/758/268
f 410/751/269 436/580/269 417/567/269
f 414/760/270 418/561/270 439/560/270
f 411/752/271 417/567/271 418/561/271
f 239/1/1 238/11/1 69/2/1
f 77/4/2 45/81/2 91/5/2
f 53/7/2 74/134/2 75/8/2
f 237/10/1 68/16/1 69/2/1
f 43/12/2 73/112/2 81/13/2
f 236/15/1 67/96/1 68/16/1
f 381/17/272 380/766/272 231/18/272
f 229/20/273 382/767/273 381/17/273
f 384/21/274 382/767/274 229/20/274
f 383/23/275 384/21/275 228/22/275
f 218/25/276 385/768/276 383/23/276
f 225/26/277 386/769/277 387/27/277
f 388/29/278 386/769/278 225/26/278
f 389/31/279 388/29/279 224/30/279
f 243/33/280 390/35/280 389/31/280
f 220/34/281 391/770/281 390/35/281
f 341/36/282 392/552/282 385/37/282
f 387/27/283 393/771/283 221/39/283
f 306/40/284 394/525/284 391/41/284
f 231/18/285 380/766/285 395/43/285
f 41/45/286 170/422/286 171/46/286
f 131/48/18 132/508/18 187/49/18
f 242/51/287 175/325/287 176/52/287
f 31/54/288 207/772/288 208/55/288
f 174/57/289 173/773/289 241/58/289
f 32/60/290 33/428/290 13/61/290
f 13/61/291 33/428/291 34/63/291
f 12/64/292 34/63/292 35/65/292
f 35/65/293 36/431/293 10/67/293
f 178/68/294 179/432/294 37/69/294
f 9/70/295 37/69/295 38/71/295
f 8/73/296 38/774/296 39/74/296
f 39/74/297 40/775/297 6/76/297
f 6/76/298 40/775/298 41/77/298
f 288/79/2 53/7/2 48/9/2
f 45/81/2 47/84/2 284/82/2
f 47/84/2 56/86/2 285/85/2
f 56/86/2 55/150/2 286/87/2
f 286/87/2 55/150/2 54/88/2
f 287/89/2 54/88/2 53/7/2
f 174/90/1 85/151/1 289/91/1
f 52/14/2 81/13/2 71/93/2
f 236/15/1 176/183/1 66/95/1
f 46/97/2 92/178/2 317/98/2
f 50/100/2 51/94/2 71/93/2
f 49/102/2 50/100/2 80/101/2
f 174/90/1 240/140/1 59/104/1
f 49/102/2 79/103/2 78/106/2
f 104/107/1 105/118/1 366/108/1
f 72/110/2 108/663/2 109/111/2
f 105/113/31 62/664/31 61/114/31
f 75/8/32 111/228/32 358/116/32
f 105/118/1 345/776/1 365/119/1
f 84/120/2 76/155/2 112/121/2
f 84/120/2 120/122/2 119/123/2
f 106/125/299 344/176/299 60/126/299
f 363/128/1 106/777/1 121/129/1
f 83/124/2 119/123/2 118/131/2
f 82/132/2 118/131/2 110/133/2
f 53/7/2 54/88/2 82/132/2
f 5/135/1 171/538/1 61/136/1
f 61/136/1 171/538/1 86/138/1
f 240/140/1 239/1/1 70/3/1
f 54/88/2 55/150/2 83/124/2
f 5/135/1 62/137/1 63/141/1
f 9/143/1 57/154/1 58/144/1
f 178/145/1 87/177/1 324/146/1
f 6/142/1 63/141/1 64/148/1
f 56/86/2 84/120/2 83/124/2
f 60/105/1 94/778/1 85/151/1
f 47/84/2 76/155/2 84/120/2
f 8/152/1 7/149/1 64/148/1
f 43/12/2 44/537/2 72/110/2
f 9/143/1 8/152/1 65/153/1
f 45/81/2 77/4/2 76/155/2
f 87/156/32 97/779/32 350/157/32
f 277/159/2 90/171/2 126/160/2
f 70/162/34 69/780/34 122/163/34
f 85/165/35 94/781/35 352/166/35
f 92/168/35 95/782/35 353/169/35
f 90/171/32 98/783/32 351/172/32
f 75/8/2 98/783/2 90/171/2
f 77/174/34 99/784/34 352/175/34
f 48/9/2 90/171/2 277/159/2
f 58/144/1 97/785/1 87/177/1
f 78/106/2 95/786/2 92/178/2
f 61/114/31 100/787/31 353/179/31
f 72/180/31 96/788/31 350/181/31
f 176/183/1 88/514/1 93/184/1
f 72/110/2 44/537/2 89/185/2
f 66/187/34 93/789/34 351/188/34
f 360/190/34 118/197/34 119/191/34
f 359/193/31 117/199/31 109/194/31
f 357/196/34 110/203/34 118/197/34
f 354/198/31 107/213/31 117/199/31
f 356/195/31 109/194/31 108/200/31
f 358/202/37 111/790/37 110/203/37
f 362/204/34 361/192/34 119/191/34
f 362/204/38 120/205/38 112/206/38
f 365/208/31 114/791/31 115/209/31
f 366/210/31 115/209/31 116/211/31
f 367/212/31 116/211/31 107/213/31
f 363/207/39 112/206/39 113/214/39
f 77/4/2 113/792/2 112/121/2
f 362/130/1 121/129/1 122/216/1
f 79/103/2 115/221/2 114/218/2
f 122/163/34 69/780/34 68/219/34
f 80/101/2 116/222/2 115/221/2
f 71/93/2 107/226/2 116/222/2
f 78/223/35 114/793/35 365/224/35
f 81/13/2 117/227/2 107/226/2
f 73/112/2 109/111/2 117/227/2
f 74/134/2 110/133/2 111/228/2
f 368/229/300 125/539/300 327/230/300
f 370/232/41 127/794/41 292/233/41
f 122/216/1 123/795/1 360/235/1
f 68/219/34 67/247/34 124/236/34
f 91/237/34 127/796/34 370/238/34
f 317/98/2 92/178/2 128/240/2
f 89/242/31 125/797/31 368/243/31
f 360/235/1 123/795/1 124/245/1
f 67/247/37 66/187/37 343/189/37
f 124/245/1 343/798/1 358/248/1
f 158/249/2 166/253/2 292/250/2
f 159/252/2 167/545/2 166/253/2
f 165/254/301 289/256/301 85/165/301
f 164/255/302 154/799/302 289/256/302
f 372/257/44 167/261/44 319/258/44
f 373/260/35 166/522/35 167/261/35
f 374/262/45 169/265/45 279/161/45
f 374/262/303 375/800/303 168/264/303
f 323/266/2 142/270/2 160/267/2
f 143/269/2 161/271/2 160/267/2
f 160/267/2 168/264/2 327/230/2
f 161/271/2 169/265/2 168/264/2
f 272/272/1 177/276/1 157/273/1
f 183/275/1 156/551/1 157/273/1
f 283/83/2 140/278/2 158/249/2
f 141/277/2 159/252/2 158/249/2
f 307/279/1 172/283/1 155/280/1
f 182/282/1 154/523/1 155/280/1
f 151/284/2 153/288/2 315/285/2
f 150/287/2 152/298/2 153/288/2
f 149/289/2 151/284/2 314/286/2
f 148/291/2 150/287/2 151/284/2
f 312/292/2 147/294/2 149/289/2
f 146/293/2 148/291/2 149/289/2
f 311/295/2 145/297/2 147/294/2
f 144/296/2 146/293/2 147/294/2
f 310/99/2 141/277/2 145/297/2
f 141/277/2 140/278/2 144/296/2
f 153/288/2 142/270/2 323/266/2
f 152/298/2 143/269/2 142/270/2
f 330/299/304 131/48/304 189/50/304
f 30/301/305 4/801/305 206/302/305
f 130/304/48 204/402/48 214/305/48
f 2/307/306 203/400/306 332/308/306
f 396/310/307 397/802/307 234/311/307
f 234/311/308 397/802/308 398/313/308
f 29/315/309 2/534/309 171/316/309
f 328/318/310 130/341/310 172/319/310
f 30/321/311 173/423/311 174/322/311
f 31/324/312 3/803/312 176/52/312
f 293/326/313 132/345/313 177/327/313
f 42/329/314 179/424/314 178/330/314
f 294/332/315 137/349/315 180/333/315
f 329/335/316 139/353/316 181/336/316
f 4/323/317 174/322/317 280/338/317
f 129/340/61 182/510/61 172/319/61
f 1/331/318 178/330/318 320/342/318
f 131/344/63 183/533/63 177/327/63
f 29/315/319 170/317/319 322/346/319
f 136/348/320 184/420/320 180/333/320
f 31/350/321 175/500/321 282/351/321
f 139/353/322 138/509/322 185/354/322
f 303/355/323 302/408/323 196/356/323
f 338/358/324 337/411/324 201/359/324
f 301/361/325 304/417/325 217/362/325
f 209/363/326 217/362/326 213/364/326
f 336/366/327 339/415/327 216/367/327
f 191/368/328 216/367/328 212/369/328
f 3/371/329 208/405/329 297/372/329
f 331/374/330 136/804/330 190/375/330
f 42/377/331 1/805/331 210/378/331
f 136/380/332 137/806/332 192/381/332
f 30/383/333 205/807/333 298/384/333
f 296/386/334 138/396/334 186/387/334
f 42/389/335 211/808/335 333/390/335
f 29/392/336 202/809/336 203/393/336
f 139/395/337 188/530/337 186/387/337
f 295/397/338 129/306/338 214/305/338
f 194/399/339 195/529/339 203/400/339
f 336/366/340 191/368/340 204/402/340
f 196/356/341 205/501/341 206/403/341
f 198/404/342 199/502/342 208/405/342
f 301/361/343 209/363/343 187/49/343
f 201/359/344 211/528/344 210/407/344
f 302/408/345 212/369/345 192/409/345
f 337/411/346 213/364/346 188/412/346
f 197/357/347 206/403/347 299/398/347
f 191/368/93 193/370/93 214/305/93
f 200/360/348 210/407/348 334/300/348
f 215/365/95 189/50/95 187/49/95
f 194/399/349 202/401/349 335/414/349
f 216/367/350 190/527/350 192/409/350
f 198/404/351 207/406/351 300/416/351
f 213/364/352 217/362/352 186/418/352
f 185/354/353 234/311/353 235/314/353
f 305/312/354 234/311/354 185/354/354
f 232/419/35 233/524/35 180/333/35
f 340/421/355 232/419/355 184/420/355
f 231/18/356 219/44/356 170/422/356
f 274/334/357 306/40/357 220/42/357
f 244/28/358 221/39/358 175/325/358
f 341/36/359 218/38/359 179/424/359
f 173/425/360 220/34/360 243/33/360
f 32/60/361 222/456/361 245/427/361
f 33/428/362 245/427/362 246/429/362
f 34/63/363 246/429/363 247/430/363
f 247/430/364 226/435/364 36/431/364
f 179/432/365 218/25/365 227/24/365
f 227/24/366 228/22/366 38/71/366
f 38/71/367 228/22/367 229/20/367
f 229/20/368 230/19/368 40/434/368
f 230/19/369 231/18/369 41/45/369
f 226/435/370 247/430/370 271/436/370
f 14/438/2 13/447/2 263/439/2
f 237/441/1 238/483/1 250/442/1
f 242/51/371 236/53/371 248/444/371
f 247/430/372 246/429/372 270/446/372
f 13/447/2 12/455/2 262/448/2
f 236/449/1 237/441/1 249/443/1
f 245/427/373 269/457/373 270/446/373
f 244/28/374 256/489/374 259/451/374
f 241/426/375 243/33/375 255/452/375
f 11/454/2 261/498/2 262/448/2
f 222/456/376 267/810/376 269/457/376
f 260/458/377 248/470/377 249/459/377
f 261/460/127 249/459/127 250/461/127
f 262/462/128 250/461/128 251/463/128
f 264/465/378 263/464/378 251/463/378
f 264/465/379 252/466/379 253/467/379
f 260/458/380 266/474/380 254/469/380
f 267/471/381 265/468/381 253/467/381
f 268/473/382 256/481/382 254/469/382
f 267/471/383 255/472/383 257/475/383
f 269/476/384 257/475/384 258/477/384
f 271/479/385 270/478/385 258/477/385
f 268/473/386 271/479/386 259/480/386
f 239/482/1 251/487/1 250/442/1
f 32/60/387 14/62/387 264/484/387
f 240/486/121 252/811/121 251/487/121
f 36/431/388 266/496/388 260/488/388
f 244/28/389 242/51/389 254/445/389
f 223/32/390 257/495/390 255/452/390
f 222/490/391 32/812/391 265/491/391
f 241/58/392 253/813/392 252/493/392
f 223/32/393 224/30/393 258/494/393
f 226/435/394 268/437/394 266/496/394
f 10/497/118 260/814/118 261/498/118
f 225/26/395 259/451/395 258/494/395
f 180/333/396 233/524/396 306/40/396
f 221/499/397 305/312/397 282/351/397
f 304/417/398 300/416/398 186/418/398
f 303/355/399 299/398/399 214/305/399
f 196/356/400 302/408/400 298/410/400
f 199/502/401 301/361/401 297/372/401
f 4/503/402 295/397/402 299/398/402
f 31/504/403 296/386/403 300/388/403
f 294/385/404 298/384/404 192/506/404
f 293/373/405 297/372/405 187/49/405
f 198/404/406 304/417/406 301/361/406
f 212/369/407 302/408/407 303/355/407
f 296/352/408 282/351/408 185/354/408
f 295/339/409 280/338/409 182/510/409
f 30/321/410 294/332/410 274/334/410
f 3/511/411 293/326/411 272/328/411
f 393/513/412 396/310/412 305/312/412
f 45/81/2 283/83/2 290/251/2
f 176/183/1 272/272/1 276/274/1
f 376/263/45 279/161/45 126/160/45
f 155/516/164 154/799/164 164/255/164
f 290/251/2 292/250/2 127/518/2
f 162/519/35 349/170/35 86/520/35
f 377/234/41 292/233/41 166/522/41
f 275/80/2 277/159/2 161/271/2
f 161/271/2 277/159/2 279/161/2
f 280/92/1 289/91/1 154/523/1
f 150/287/2 287/89/2 288/79/2
f 148/291/2 286/87/2 287/89/2
f 285/85/2 286/87/2 148/291/2
f 284/82/2 285/85/2 146/293/2
f 283/83/2 284/82/2 144/296/2
f 152/298/2 288/79/2 275/80/2
f 233/524/413 400/815/413 394/525/413
f 181/336/414 235/314/414 341/36/414
f 219/526/415 340/421/415 322/346/415
f 339/415/416 335/414/416 190/527/416
f 338/358/417 334/300/417 189/50/417
f 337/411/418 333/413/418 211/528/418
f 195/529/419 336/366/419 332/308/419
f 329/391/420 333/390/420 188/530/420
f 29/531/421 331/374/421 335/376/421
f 194/399/327 339/415/327 336/366/327
f 213/364/422 337/411/422 338/358/422
f 331/347/423 322/346/423 184/420/423
f 330/343/424 320/342/424 183/533/424
f 42/329/425 329/335/425 309/337/425
f 2/534/426 328/318/426 307/320/426
f 219/526/427 395/816/427 399/535/427
f 328/309/428 332/308/428 204/402/428
f 1/536/429 330/299/429 334/300/429
f 315/285/2 323/266/2 44/537/2
f 46/97/2 310/99/2 311/295/2
f 49/102/2 311/295/2 312/292/2
f 50/100/2 312/292/2 313/290/2
f 313/290/2 314/286/2 52/14/2
f 314/286/2 315/285/2 43/12/2
f 171/538/1 307/279/1 316/281/1
f 325/268/2 327/230/2 125/539/2
f 44/537/2 323/266/2 325/268/2
f 378/259/44 319/258/44 128/540/44
f 378/542/430 162/612/430 163/543/430
f 159/252/2 317/98/2 319/241/2
f 372/544/184 163/543/184 164/546/184
f 375/548/185 379/633/185 327/549/185
f 320/147/1 324/146/1 156/551/1
f 310/99/2 317/98/2 159/252/2
f 235/314/431 398/313/431 392/552/431
f 17/553/187 273/565/187 431/554/187
f 18/556/432 441/817/432 432/557/432
f 24/559/433 15/818/433 439/560/433
f 23/562/190 438/602/190 441/563/190
f 273/565/434 135/819/434 424/566/434
f 24/559/435 418/561/435 417/567/435
f 308/569/436 414/601/436 439/570/436
f 233/572/437 424/579/437 135/573/437
f 17/575/195 440/740/195 434/576/195
f 233/572/438 232/820/438 407/578/438
f 25/568/439 417/567/439 436/580/439
f 20/582/440 19/577/440 434/576/440
f 134/584/441 133/593/441 420/585/441
f 27/587/442 416/590/442 419/588/442
f 27/587/443 26/581/443 436/580/443
f 20/582/444 435/583/444 433/591/444
f 281/558/445 432/557/445 420/585/445
f 321/594/446 16/729/446 442/595/446
f 21/592/447 433/591/447 437/597/447
f 28/589/206 419/588/206 442/599/206
f 134/584/448 406/586/448 414/601/448
f 22/598/449 437/597/449 438/602/449
f 164/546/450 165/604/450 377/603/450
f 165/604/212 348/821/212 370/605/212
f 57/606/31 65/639/31 102/607/31
f 101/609/1 356/636/1 355/610/1
f 316/521/451 155/516/451 163/517/451
f 162/612/452 378/542/452 371/613/452
f 59/127/453 70/162/453 121/164/453
f 347/173/454 88/655/454 276/615/454
f 376/617/455 278/822/455 291/618/455
f 90/620/456 347/823/456 369/621/456
f 291/623/457 157/824/457 156/624/457
f 291/618/458 318/632/458 375/548/458
f 318/625/459 156/624/459 324/626/459
f 344/628/35 364/825/35 113/629/35
f 101/608/31 342/182/31 58/631/31
f 318/632/460 326/826/460 379/633/460
f 324/626/461 87/156/461 346/158/461
f 379/633/462 326/826/462 346/634/462
f 356/636/1 101/609/1 102/637/1
f 65/639/31 64/645/31 103/640/31
f 359/638/1 102/637/1 103/641/1
f 344/643/1 106/777/1 363/128/1
f 276/615/463 157/824/463 291/623/463
f 64/645/31 63/827/31 104/646/31
f 347/647/464 278/822/464 376/617/464
f 354/642/1 103/641/1 104/107/1
f 343/189/34 351/188/34 98/649/34
f 342/182/31 350/181/31 97/651/31
f 345/115/31 353/179/31 95/652/31
f 344/176/34 352/175/34 94/654/34
f 88/655/465 347/173/465 351/172/465
f 349/170/35 353/169/35 100/657/35
f 348/167/35 352/166/35 99/658/35
f 92/242/31 349/244/31 371/660/31
f 346/158/32 350/157/32 96/186/32
f 342/662/32 355/828/32 108/663/32
f 104/646/31 63/827/31 62/664/31
f 28/665/466 380/692/466 381/666/466
f 24/668/467 25/715/467 384/669/467
f 15/671/1 24/668/1 383/670/1
f 23/673/468 387/687/468 386/674/468
f 21/676/469 22/675/469 386/674/469
f 21/676/470 388/677/470 389/678/470
f 20/679/471 389/678/471 390/680/471
f 17/682/1 19/681/1 390/680/1
f 15/671/1 385/672/1 392/684/1
f 18/686/1 393/707/1 387/687/1
f 17/688/472 391/829/472 394/689/472
f 16/691/473 395/830/473 380/692/473
f 133/693/474 397/697/474 396/694/474
f 133/693/475 134/831/475 398/696/475
f 340/698/476 415/832/476 407/699/476
f 399/701/477 321/833/477 415/702/477
f 273/704/478 394/834/478 400/705/478
f 18/686/479 281/695/479 396/694/479
f 134/708/480 308/835/480 392/709/480
f 16/711/481 321/833/481 399/701/481
f 27/667/482 381/666/482 382/713/482
f 25/715/483 26/714/483 382/713/483
f 409/716/484 425/836/484 403/717/484
f 412/719/485 404/723/485 407/720/485
f 408/722/486 403/748/486 404/723/486
f 423/724/487 425/738/487 429/725/487
f 422/727/1 401/744/1 405/728/1
f 408/730/488 416/837/488 436/731/488
f 421/733/489 405/838/489 406/586/489
f 428/734/490 422/742/490 421/735/490
f 426/737/491 429/725/491 425/738/491
f 430/726/492 434/576/492 440/740/492
f 426/737/1 409/739/1 422/742/1
f 409/743/493 402/839/493 401/744/493
f 423/745/494 430/840/494 431/554/494
f 401/744/255 402/839/255 413/746/255
f 403/748/495 425/841/495 423/749/495
f 405/750/1 401/842/1 410/751/1
f 430/726/496 429/725/496 435/583/496
f 432/753/497 427/761/497 421/754/497
f 412/756/498 415/843/498 442/757/498
f 429/725/499 426/737/499 433/591/499
f 433/591/500 426/737/500 428/734/500
f 437/597/501 428/734/501 427/736/501
f 406/759/502 405/750/502 411/752/502
f 427/761/503 432/753/503 441/762/503
f 407/764/504 404/844/504 423/745/504
f 403/717/505 408/730/505 413/732/505
f 416/765/506 408/845/506 412/756/506
f 410/751/507 413/846/507 436/580/507
f 414/760/508 411/752/508 418/561/508
f 411/752/509 410/751/509 417/567/509
