# Blender 4.2.1 LTS
# www.blender.org
mtllib gas_pump_C_destroyed.mtl
g gas_pump_C_destroyed_body_Mesh
v 0.332327 0.152291 0.203670
v -0.332327 0.152291 0.203670
v 0.332327 0.152291 -0.203672
v -0.332327 0.152291 -0.203672
v -0.213192 0.140281 0.292824
v -0.106596 0.140281 0.325852
v 0.000000 0.140281 0.334259
v 0.106596 0.140281 0.325852
v 0.213192 0.140281 0.292824
v 0.197902 0.163975 -0.297562
v 0.106596 0.163975 -0.325852
v -0.000000 0.163975 -0.334259
v -0.106596 0.163975 -0.325852
v -0.197902 0.163975 -0.297562
v 0.293237 1.219651 0.220943
v -0.293237 1.320721 0.220943
v -0.293362 1.219651 -0.220182
v 0.293362 1.219651 -0.220182
v -0.205127 1.219651 -0.258937
v -0.106467 1.119270 -0.258153
v -0.008122 1.183046 -0.287445
v 0.103439 1.219651 -0.272898
v 0.205127 1.219651 -0.258937
v 0.202318 1.219651 0.265415
v 0.063011 1.295097 0.262331
v -0.065864 1.274146 0.280213
v -0.101090 1.219651 0.297156
v -0.202318 1.219651 0.265415
v -0.326963 0.687806 0.201807
v -0.326963 0.580079 -0.201807
v 0.326963 0.642893 -0.201808
v -0.197866 0.781486 -0.297298
v -0.106596 0.789420 -0.325852
v -0.000000 0.790363 -0.334259
v 0.106596 0.789420 -0.325852
v 0.197866 0.781486 -0.297298
v 0.213192 0.781417 0.292824
v 0.106596 0.278912 0.325852
v -0.089010 0.497146 0.359714
v -0.106596 0.479895 0.325852
v -0.213192 0.368801 0.292824
v 0.326963 0.687806 0.201807
v 0.213192 0.000000 0.292824
v 0.326024 0.000000 0.245018
v -0.326024 0.000000 -0.245018
v -0.326024 0.000000 0.245018
v -0.213192 0.000000 -0.292824
v 0.326024 0.000000 -0.245018
v -0.213192 0.000000 0.292824
v -0.106596 0.000000 0.325852
v 0.000000 0.000000 0.334259
v 0.106596 0.000000 0.325852
v 0.213192 0.000000 -0.292824
v 0.106596 0.000000 -0.325852
v -0.000000 0.000000 -0.334259
v -0.106596 0.000000 -0.325852
v 0.223838 0.140281 0.359857
v 0.326024 0.140281 0.359857
v -0.223838 0.140281 -0.302941
v -0.326024 0.140281 -0.359857
v -0.326024 0.140281 0.359857
v -0.223838 0.140281 0.359857
v -0.112154 0.140281 0.359857
v 0.000000 0.140281 0.359857
v 0.112154 0.140281 0.359857
v 0.288818 0.140281 -0.338369
v 0.223838 0.140281 -0.359857
v 0.112154 0.140281 -0.359857
v -0.000000 0.140281 -0.359857
v -0.112154 0.140281 -0.359857
v 0.000000 0.000000 0.359857
v 0.326024 0.000000 0.359857
v 0.223838 0.000000 0.359857
v 0.223838 0.000000 -0.359857
v 0.288818 0.000000 -0.338369
v -0.223838 0.000000 -0.302941
v -0.326024 0.000000 -0.359857
v -0.326024 0.000000 0.359857
v -0.223838 0.000000 0.359857
v -0.112154 0.000000 0.359857
v 0.112154 0.000000 0.359857
v 0.112154 0.000000 -0.359857
v -0.000000 0.000000 -0.359857
v -0.112154 0.000000 -0.359857
v -0.382945 0.140281 -0.299497
v -0.382945 0.140281 0.299495
v 0.382945 0.140281 0.299495
v 0.382945 0.140281 -0.299497
v 0.382945 0.000000 0.299495
v 0.345740 0.000000 -0.278009
v -0.382945 0.000000 -0.299497
v -0.382945 0.000000 0.299495
v 0.345740 0.140281 -0.338369
v -0.382945 0.140281 -0.359857
v -0.382945 0.000000 0.359857
v 0.382945 0.000000 0.359857
v 0.382945 0.140281 0.359857
v 0.345740 0.000000 -0.338369
v -0.382945 0.000000 -0.359857
v -0.382945 0.140281 0.359857
v 0.223844 0.108579 0.359857
v 0.112250 0.108579 0.359857
v 0.000084 0.108579 0.359857
v -0.112011 0.108579 0.359857
v -0.224223 0.108579 0.359857
v -0.223927 0.108579 -0.302941
v 0.000000 0.000000 0.378107
v 0.326024 0.000000 0.378107
v 0.223838 0.000000 0.378107
v 0.223838 0.000000 -0.378107
v 0.288818 0.000000 -0.356618
v -0.223838 0.000000 -0.321190
v -0.326024 0.000000 -0.378107
v -0.326024 0.000000 0.378107
v -0.223838 0.000000 0.378107
v -0.112154 0.000000 0.378107
v 0.112154 0.000000 0.378107
v 0.112154 0.000000 -0.378107
v -0.000000 0.000000 -0.378107
v -0.112154 0.000000 -0.378107
v -0.112721 0.108579 -0.359857
v 0.000031 0.108579 -0.359857
v 0.112136 0.108579 -0.359857
v 0.223815 0.108579 -0.359857
v 0.423225 0.000000 0.299495
v 0.423225 0.000000 -0.299497
v -0.423225 0.000000 -0.299497
v -0.423225 0.000000 0.299495
v -0.352436 0.152291 -0.081591
v -0.352436 0.152291 0.081590
v 0.352436 0.152291 0.081590
v 0.352436 0.152291 -0.081591
v 0.316734 1.419258 -0.077831
v 0.298151 1.322610 0.098857
v -0.316734 1.447464 -0.077831
v -0.346582 0.687805 0.081031
v -0.346582 0.544884 -0.018661
v 0.346582 0.624089 -0.081032
v 0.346582 0.687805 0.081031
v -0.326024 0.000000 -0.081673
v -0.326024 0.000000 0.081672
v 0.326024 0.000000 0.081672
v 0.326024 0.000000 -0.081673
v -0.213192 0.000000 -0.097608
v -0.213192 0.000000 0.097608
v -0.106596 0.000000 -0.108617
v -0.106596 0.000000 0.108617
v -0.000000 0.000000 -0.111419
v 0.000000 0.000000 0.111419
v 0.106596 0.000000 -0.108617
v 0.106596 0.000000 0.108617
v 0.213192 0.000000 -0.097608
v 0.213192 0.000000 0.097608
v -0.414494 0.140281 -0.099833
v -0.414494 0.140281 0.099831
v 0.390179 0.140281 0.099831
v 0.414494 0.140281 -0.099833
v -0.382945 0.000000 -0.099833
v -0.382945 0.000000 0.099831
v 0.382945 0.000000 0.099831
v 0.382945 0.000000 -0.099833
v -0.382945 0.108579 0.199644
v -0.382945 0.108579 0.100117
v -0.382945 0.108579 -0.099813
v -0.382945 0.108579 -0.200574
v -0.458092 0.000000 -0.099833
v -0.458092 0.000000 0.099831
v 0.458092 0.000000 0.099831
v 0.458092 0.000000 -0.099833
v -0.319789 0.760678 0.242851
v -0.326024 0.140281 0.245018
v -0.352883 0.140281 0.081672
v -0.319789 0.760678 -0.242852
v -0.326024 0.140281 -0.245018
v 0.319789 0.760678 -0.242852
v 0.276877 0.140281 -0.245018
v 0.352883 0.140281 -0.081673
v 0.326024 0.140281 0.245018
v 0.319789 0.760678 0.242851
v -0.346134 0.760678 -0.080951
v 0.346134 0.760678 0.080949
v -0.352883 0.140281 -0.081673
v 0.352883 0.140281 0.081672
v -0.346134 0.760678 0.080949
v 0.346134 0.760678 -0.080951
v 0.389261 0.625161 -0.088964
v 0.395115 0.194563 -0.089513
v 0.389261 0.688877 0.088963
v 0.395115 0.194563 0.089512
v -0.389261 0.688877 0.088963
v -0.407722 0.211713 0.089437
v -0.389261 0.545955 -0.026593
v -0.407722 0.211713 -0.089439
v -0.388015 0.623156 0.177445
v -0.392678 0.211692 0.179013
v -0.388015 0.515429 -0.177447
v -0.392678 0.211692 -0.179015
v 0.388015 0.578242 -0.177447
v 0.392678 0.211692 -0.179015
v 0.392678 0.211692 0.179013
v 0.388015 0.623156 0.177445
v -0.368693 0.688850 0.217543
v -0.374057 0.194534 0.219408
v -0.395115 0.194563 0.089512
v -0.368693 0.581122 -0.217545
v -0.374057 0.194534 -0.219408
v 0.368693 0.643936 -0.217545
v 0.374057 0.194534 -0.219409
v 0.407722 0.211713 -0.089439
v 0.374057 0.194534 0.219408
v 0.368693 0.688850 0.217543
v -0.402581 0.480253 -0.026667
v 0.402581 0.623174 0.089037
v -0.395115 0.194563 -0.089513
v 0.407722 0.211713 0.089437
v -0.402581 0.623174 0.089037
v 0.402581 0.559458 -0.089038
v 0.319789 1.061479 0.241146
v -0.319789 1.061479 0.241146
v -0.319789 1.061479 -0.241147
v 0.319789 1.061479 -0.241147
v -0.154808 1.040994 -0.308569
v -0.106596 0.959295 -0.307194
v -0.000000 0.959496 -0.315601
v 0.056809 1.079645 -0.307194
v 0.199292 1.011387 -0.287434
v 0.214615 1.015320 0.292824
v 0.106596 1.162341 0.325852
v 0.000000 1.162341 0.334259
v -0.106596 1.162341 0.325852
v -0.234530 1.148324 0.292824
v -0.346134 1.061479 0.080381
v -0.346134 1.283548 0.006270
v 0.346134 1.061479 -0.080383
v 0.346134 1.061479 0.080382
v 0.213192 0.140281 -0.292824
v 0.106596 0.140281 -0.325852
v -0.000000 0.140281 -0.334259
v -0.106596 0.140281 -0.325852
v -0.213192 0.140281 -0.292824
v -0.233360 0.783748 -0.288471
v 0.250670 0.775799 -0.299381
v -0.180180 1.133929 -0.281348
v 0.214615 1.023173 -0.282164
v -0.106584 0.947244 -0.308433
v -0.000000 0.947453 -0.316986
v 0.080267 1.025630 -0.308433
v 0.212186 0.140280 -0.285227
v 0.105952 0.140281 -0.318164
v -0.000000 0.140281 -0.326509
v -0.105952 0.140281 -0.318164
v -0.212186 0.140280 -0.285227
v -0.212193 0.781294 -0.285226
v 0.212193 0.781294 -0.285226
v -0.174930 1.081712 -0.290565
v 0.213677 1.022723 -0.274559
v -0.106075 0.958411 -0.299536
v -0.000000 0.958658 -0.307896
v 0.079759 1.036797 -0.299536
v 0.196896 0.163974 -0.289964
v 0.105952 0.163975 -0.318164
v -0.000000 0.163975 -0.326509
v -0.105952 0.163975 -0.318164
v -0.196896 0.163974 -0.289964
v -0.196867 0.781363 -0.289699
v 0.196867 0.781363 -0.289699
v -0.169205 1.066976 -0.292681
v 0.198417 1.010753 -0.279826
v -0.106064 0.946360 -0.300774
v -0.000000 0.946615 -0.309281
v 0.079748 1.024746 -0.300774
v 0.339448 0.140281 -0.163375
v -0.303946 1.374525 -0.155722
v -0.332957 0.760678 -0.161931
v 0.326024 0.000000 -0.163375
v 0.398714 0.140281 -0.199701
v 0.382945 0.000000 -0.199701
v 0.382945 0.108579 -0.200023
v 0.440652 0.000000 -0.199701
v -0.339448 0.140281 -0.163375
v 0.303946 1.307881 -0.155722
v 0.332957 0.760678 -0.161931
v -0.326024 0.000000 -0.163375
v -0.213192 0.000000 -0.195252
v -0.106596 0.000000 -0.217274
v -0.000000 0.000000 -0.222880
v 0.106596 0.000000 -0.217274
v 0.213192 0.000000 -0.195252
v -0.398714 0.140281 -0.199701
v -0.382945 0.000000 -0.199701
v 0.382945 0.108579 -0.100087
v -0.440652 0.000000 -0.199701
v 0.342378 0.152291 -0.142653
v -0.336769 0.629133 -0.118887
v -0.342378 0.152291 -0.142653
v 0.336769 0.642892 -0.141442
v 0.384582 0.194549 -0.154484
v -0.378973 0.630190 -0.130723
v -0.384582 0.194549 -0.154484
v 0.378973 0.643949 -0.153278
v 0.400197 0.211703 -0.134243
v -0.395296 0.564492 -0.110704
v -0.400197 0.211703 -0.134243
v 0.395296 0.578251 -0.133258
v 0.332957 1.061479 -0.160794
v -0.332957 1.061479 -0.160794
v -0.339453 0.140281 0.163345
v 0.303950 1.219651 0.155692
v 0.332962 0.760678 0.161900
v -0.326024 0.000000 0.163345
v -0.213192 0.000000 0.195216
v -0.106596 0.000000 0.217234
v 0.000000 0.000000 0.222839
v 0.106596 0.000000 0.217234
v 0.213192 0.000000 0.195216
v -0.398719 0.140281 0.199663
v -0.382945 0.000000 0.199663
v 0.358631 0.108579 0.100049
v -0.440659 0.000000 0.199663
v 0.339453 0.140281 0.163345
v -0.303950 1.219651 0.155692
v -0.332962 0.760678 0.161900
v 0.326024 0.000000 0.163345
v 0.374405 0.140281 0.199663
v 0.382945 0.000000 0.199663
v 0.358631 0.108579 0.199553
v 0.440659 0.000000 0.199663
v -0.342381 0.152291 0.142630
v 0.336772 0.687806 0.141419
v 0.342381 0.152291 0.142630
v -0.336772 0.687806 0.141419
v -0.384586 0.194549 0.154459
v 0.378977 0.688863 0.153253
v 0.384586 0.194549 0.154459
v -0.378977 0.688863 0.153253
v -0.400200 0.211703 0.134225
v 0.395298 0.623165 0.133241
v 0.400200 0.211703 0.134225
v -0.395298 0.623165 0.133241
v -0.332173 1.062078 0.129528
v 0.332962 1.061479 0.160763
v 0.326024 0.108579 0.359857
v 0.288818 0.108579 -0.338369
v -0.326024 0.108579 -0.359857
v -0.326024 0.108579 0.359857
v 0.382945 0.108579 0.299495
v 0.378948 0.108579 -0.278009
v -0.382945 0.108579 -0.299497
v -0.382945 0.108579 0.299495
v 0.382945 0.108579 0.359857
v 0.345740 0.108579 -0.338369
v -0.382945 0.108579 -0.359857
v -0.382945 0.108579 0.359857
v 0.000000 0.108579 0.378107
v 0.326024 0.108579 0.378107
v 0.223838 0.108579 0.378107
v 0.223838 0.108579 -0.378107
v 0.288818 0.108579 -0.356618
v 0.112154 0.108579 0.378107
v 0.112154 0.108579 -0.378107
v -0.000000 0.108579 -0.378107
v -0.112154 0.108579 -0.378107
v -0.223838 0.108579 -0.321190
v -0.326024 0.108579 -0.378107
v -0.326024 0.108579 0.378107
v -0.223838 0.108579 0.378107
v -0.112154 0.108579 0.378107
v 0.423225 0.075279 0.299495
v 0.423225 0.075279 -0.299497
v -0.423225 0.075279 -0.299497
v -0.423225 0.075279 0.299495
v -0.458092 0.075279 0.099831
v -0.458092 0.075279 -0.099833
v 0.458092 0.075279 -0.099833
v 0.400281 0.075279 0.099831
v 0.440652 0.075279 -0.199701
v -0.440652 0.075279 -0.199701
v -0.440659 0.075279 0.199663
v 0.382848 0.075279 0.199663
v -0.228657 1.229753 0.322274
v -0.106596 1.219651 0.325852
v -0.051951 1.276365 0.304076
v 0.213192 1.219651 0.292824
v 0.071334 1.301395 0.283352
v 0.319789 1.219651 0.240684
v 0.106596 1.219651 -0.302140
v 0.213192 1.219651 -0.287506
v -0.008122 1.183046 -0.316936
v -0.094575 1.099303 -0.292871
v -0.213192 1.219651 -0.287506
v -0.319789 1.219651 -0.240685
v 0.332962 1.219651 0.160455
v 0.319789 1.219651 -0.240685
v -0.358995 1.370871 -0.163206
v -0.319789 1.320721 0.240684
v 0.332957 1.307881 -0.160486
v 0.365059 1.419550 -0.084237
v 0.346134 1.316145 0.080227
v -0.332962 1.219651 0.160455
v -0.346134 1.447464 -0.080228
v 0.106596 0.263651 0.080492
v 0.000000 0.119357 0.080454
v -0.106596 0.563771 0.080405
v -0.213192 1.003318 0.080502
v 0.213192 0.263651 0.080369
v 0.316734 1.003318 0.077830
v -0.316734 1.091048 0.077830
v -0.106596 0.859024 0.160737
v -0.000000 0.263651 -0.080003
v 0.106596 0.263651 0.160744
v 0.213192 1.003318 0.160702
v -0.213192 1.003318 0.160698
v 0.000000 0.119357 0.160663
v 0.303950 1.003318 0.155692
v -0.303162 1.128664 0.124456
v -0.101090 1.042013 0.258817
v 0.101090 1.003318 0.297156
v 0.203741 0.992418 0.265415
v -0.202318 1.045788 0.265415
v 0.316734 1.003318 -0.077831
v 0.213192 1.003318 -0.079977
v 0.106596 0.263651 -0.080022
v -0.213192 1.003318 -0.080057
v -0.316734 1.262127 0.008822
v -0.106596 0.263651 -0.079986
v -0.000000 0.263651 -0.160182
v 0.213192 1.003318 -0.160326
v 0.106596 0.633084 -0.160230
v -0.106596 0.854518 -0.160332
v -0.213192 1.003318 -0.160249
v -0.303946 1.003318 -0.155722
v 0.303946 1.003318 -0.155722
v -0.000000 0.854518 -0.281055
v -0.205127 1.003318 -0.258937
v -0.103439 0.854518 -0.272898
v 0.000000 1.042013 0.266612
v 0.103439 1.003318 -0.272898
v 0.205127 1.003318 -0.258937
v 0.293237 1.108524 0.220943
v -0.293362 1.003318 -0.220182
v 0.293362 1.003318 -0.220182
v -0.293237 1.170954 0.220943
vn -0.0000 1.0000 -0.0000
vn -0.0000 -1.0000 -0.0000
vn -0.2038 -0.3199 0.9253
vn -0.0786 -0.0000 0.9969
vn 0.0748 0.3088 0.9482
vn 0.2950 0.0021 0.9555
vn 0.4399 0.0031 0.8980
vn 0.1476 -0.0258 -0.9887
vn 0.1475 -0.0005 -0.9891
vn -0.0784 0.1081 -0.9910
vn -0.0892 0.1089 -0.9900
vn -0.2781 0.0028 -0.9606
vn 0.9868 0.0005 0.1617
vn 0.3704 -0.0226 -0.9286
vn -0.9868 0.0005 -0.1617
vn -0.5195 0.0015 0.8545
vn -0.3901 -0.0000 0.9208
vn 0.7037 -0.7105 -0.0000
vn 0.5999 -0.0387 -0.7991
vn -0.3526 -0.0003 -0.9358
vn -0.3901 0.0071 -0.9207
vn -0.2960 0.0004 -0.9552
vn -0.0786 -0.0000 -0.9969
vn 0.0786 -0.0000 -0.9969
vn 0.2960 0.0004 -0.9552
vn 0.3901 0.0071 0.9207
vn 0.2960 -0.0000 0.9552
vn 0.0786 -0.0000 0.9969
vn -0.2960 -0.0000 0.9552
vn -0.0000 -0.0000 1.0000
vn 1.0000 -0.0000 -0.0000
vn 0.4866 -0.0014 -0.8736
vn -0.0000 -0.0000 -1.0000
vn -1.0000 -0.0000 -0.0000
vn 0.8463 -0.2588 -0.4656
vn 0.3140 -0.0000 -0.9494
vn -0.4541 -0.0000 -0.8910
vn 0.4866 -0.0000 -0.8736
vn 0.7552 0.5800 -0.3054
vn -0.9851 -0.0000 -0.1720
vn 0.3139 -0.0002 -0.9495
vn -0.8954 -0.4454 -0.0000
vn -0.9851 -0.0000 0.1720
vn 0.9851 -0.0000 -0.1720
vn 0.6874 -0.7177 0.1113
vn 0.3529 -0.0004 -0.9357
vn -0.7037 -0.7105 -0.0000
vn -0.6870 -0.7178 0.1132
vn 0.9868 0.0002 -0.1617
vn -0.9880 0.0105 0.1541
vn -0.9860 0.0392 0.1621
vn -0.9879 0.0131 -0.1544
vn 0.9361 -0.0635 -0.3460
vn 0.9860 0.0393 -0.1621
vn 0.9881 0.0104 0.1537
vn -0.9867 -0.0239 -0.1606
vn 0.9870 0.0065 0.1606
vn -0.9859 0.0397 -0.1624
vn -0.9993 0.0372 -0.0000
vn 0.9859 0.0397 0.1624
vn 0.9993 0.0372 -0.0000
vn -0.9870 0.0066 0.1603
vn -1.0000 0.0015 -0.0021
vn 0.9871 0.0041 -0.1603
vn 1.0000 0.0061 -0.0000
vn -0.9861 0.0160 -0.1656
vn 0.9861 0.0118 0.1656
vn 0.9861 0.0148 -0.1656
vn 0.9999 0.0148 -0.0000
vn -0.9861 0.0125 0.1656
vn -0.9998 0.0191 -0.0000
vn 0.6870 -0.7178 -0.1132
vn 0.0240 0.9997 -0.0036
vn -0.3528 -0.0003 0.9357
vn -0.1277 0.6236 -0.7713
vn 0.1586 0.8579 -0.4888
vn 0.0523 0.9608 0.2723
vn -0.0239 0.9997 -0.0039
vn 0.3526 -0.0003 0.9358
vn -0.0910 0.9268 -0.3644
vn -0.6874 -0.7177 -0.1113
vn -0.9080 0.0114 0.4188
vn -0.8049 -0.5789 0.1304
vn -0.9054 0.0161 -0.4242
vn 0.9087 0.0126 -0.4173
vn 0.8049 -0.5789 -0.1304
vn 0.9062 0.0119 0.4228
vn -0.9524 0.2760 0.1292
vn 0.9688 0.1935 0.1550
vn -0.8070 -0.5748 -0.1354
vn -0.8057 -0.5923 -0.0000
vn 0.8070 -0.5748 0.1354
vn 0.8057 -0.5923 -0.0000
vn -0.9683 0.1920 0.1596
vn -0.9517 0.1932 -0.2387
vn 0.9683 0.1920 -0.1596
vn 0.9776 0.1981 -0.0709
vn 0.9870 0.0006 -0.1606
vn -0.9868 0.0198 0.1606
vn -0.4622 -0.0127 0.8867
vn -0.9870 0.0009 -0.1606
vn 0.6453 0.1462 -0.7498
vn 0.9870 0.0009 0.1606
vn -0.4678 0.0050 -0.8838
vn -0.3052 0.1045 -0.9465
vn -0.0791 0.1090 -0.9909
vn 0.0791 0.1090 -0.9909
vn 0.3014 0.0390 -0.9527
vn 0.4241 -0.0026 0.9056
vn 0.1706 -0.0000 0.9853
vn -0.8875 -0.0000 0.4609
vn -0.2884 -0.0079 0.9575
vn 0.1002 0.9905 0.0940
vn -0.0000 -1.0000 -0.0001
vn -0.3452 -0.0000 -0.9385
vn -0.6992 0.7141 0.0350
vn -0.0000 1.0000 0.0001
vn 0.0067 0.9941 0.1082
vn 0.1155 -0.1145 -0.9867
vn 0.1473 -0.0358 -0.9884
vn 0.8892 0.4574 -0.0075
vn 0.2962 -0.0000 -0.9551
vn 0.0785 -0.0000 -0.9969
vn -0.0785 -0.0000 -0.9969
vn -0.2961 0.0001 -0.9551
vn -0.2802 0.0004 -0.9600
vn 0.2959 -0.0000 -0.9552
vn -0.3003 0.0203 -0.9536
vn 0.2801 0.0394 -0.9592
vn 0.0676 0.1020 -0.9925
vn -0.0797 0.1139 -0.9903
vn 0.0042 0.1022 -0.9948
vn 0.1981 0.1720 -0.9650
vn -0.9915 -0.0000 0.1304
vn 0.9913 -0.0000 0.1313
vn -0.9925 0.0115 -0.1217
vn 0.2169 0.1908 -0.9574
vn -0.6896 0.0593 -0.7218
vn 0.9913 -0.0000 -0.1314
vn -0.0067 -0.9934 -0.1143
vn 0.9914 -0.0123 0.1302
vn 0.7018 -0.7081 -0.0770
vn -0.9870 0.0006 -0.1606
vn 0.9870 0.0009 -0.1606
vn 0.9772 0.1982 -0.0768
vn -0.7987 -0.5866 -0.1340
vn -0.9644 0.1515 -0.2166
vn 0.8106 -0.5707 -0.1313
vn -0.6860 -0.7191 -0.1111
vn -0.0236 0.9997 0.0036
vn -0.0987 0.7665 0.6346
vn 0.6885 -0.7164 -0.1134
vn 0.9861 0.0133 -0.1656
vn -0.9846 0.0575 -0.1654
vn 0.9872 0.0033 -0.1593
vn -0.9860 0.0378 -0.1624
vn -0.9870 0.0027 -0.1606
vn 0.4263 -0.8435 -0.3267
vn 0.9868 0.0005 -0.1617
vn -0.7088 -0.7054 -0.0000
vn -0.8864 -0.4412 0.1401
vn -0.9960 -0.0836 0.0325
vn 0.9870 0.0006 0.1606
vn -0.9870 0.0009 0.1606
vn -0.9675 0.1963 0.1594
vn 0.7987 -0.5866 0.1340
vn 0.9694 0.1904 0.1551
vn -0.8106 -0.5707 0.1313
vn -0.0244 0.9997 -0.0040
vn 0.0236 0.9997 -0.0036
vn -0.9861 0.0118 0.1656
vn 0.9861 0.0125 0.1656
vn -0.9870 0.0062 0.1603
vn 0.9860 0.0378 0.1624
vn 0.9870 0.0067 0.1606
vn -0.9859 0.0407 0.1621
vn -0.9936 -0.0266 0.1101
vn -0.6885 -0.7164 0.1134
vn 0.6860 -0.7191 0.1111
vn -0.4043 0.9119 0.0706
vn -0.4051 0.9143 -0.0000
vn 0.7856 0.6033 0.1372
vn 0.9868 0.0003 0.1617
vn 0.9868 -0.0000 0.1620
vn -0.9868 -0.0000 0.1620
vn -0.4421 -0.0028 -0.8970
vn -0.4021 -0.0000 0.9156
vn 0.9970 -0.0000 0.0775
vn -0.0453 -0.1242 -0.9912
vn -0.9868 -0.0000 -0.1620
vn -0.0719 0.4655 0.8821
vn 0.4021 -0.0000 0.9156
vn 0.1886 0.3674 0.9107
vn -0.1403 0.0182 -0.9899
vn 0.0566 -0.0549 0.9969
vn -0.9983 -0.0581 -0.0000
vn 0.2992 -0.0000 -0.9542
vn 0.0752 0.2104 -0.9747
vn 0.2702 0.0254 0.9625
vn 0.9909 0.0513 -0.1244
vn -0.1293 -0.0000 0.9916
vn 0.4394 -0.0000 -0.8983
vn -0.1360 -0.0000 0.9907
vn -0.4041 0.9120 -0.0706
vn -0.4989 0.8623 -0.0871
vn -0.8953 -0.4455 -0.0000
vn -0.6372 0.7707 -0.0000
vn -0.4556 0.0013 -0.8902
vn 0.8946 -0.4445 -0.0459
vn 0.4043 0.9119 -0.0706
vn -0.2672 -0.0000 -0.9636
vn 0.7065 -0.7025 0.0858
vn 0.4020 0.9082 0.1164
vn 0.8953 -0.4455 -0.0000
vn 0.6211 0.7762 0.1085
vn 0.8751 -0.4347 -0.2129
vn 0.6170 0.7463 -0.2495
vn 0.8954 -0.4454 -0.0000
vn 0.5670 0.8178 -0.0990
vn 0.7224 -0.0000 -0.6915
vn 0.4993 0.8435 -0.1981
vn -0.3040 0.9527 -0.0000
vn -0.5638 0.6176 -0.5483
vn 0.6999 0.6864 -0.1976
vn 0.0988 0.3881 -0.9163
vn 0.6857 0.7018 0.1930
vn -0.1322 0.5782 -0.8051
vn 0.0660 0.8413 0.5365
vn -0.6885 0.7007 0.1870
vn -0.5189 0.1621 -0.8393
vn 0.0553 0.7333 -0.6776
vn -0.4764 0.6293 -0.6141
vn 0.3636 0.5657 0.7401
vn -0.4854 0.5815 -0.6529
vn -0.7244 0.5828 0.3682
vn -0.2267 0.9540 -0.1961
vn 0.9517 0.2283 0.2053
vn 0.7534 0.3871 -0.5316
vn 0.8043 0.5942 -0.0000
vn 0.8129 0.5824 -0.0000
vn -0.8269 0.1191 0.5496
vn 0.6203 0.0895 -0.7792
vn -0.9610 0.2767 -0.0000
vn -0.5922 0.1710 0.7875
vn 0.5682 0.4613 -0.6815
vn -0.8043 0.5942 -0.0000
vn 0.9718 0.2357 -0.0000
vn -0.5998 0.0864 -0.7955
vn 0.8112 0.5811 0.0663
vn 0.8195 0.4891 -0.2987
vn -0.4392 0.2581 0.8605
vn 0.8659 0.1871 0.4639
vn 0.9724 0.2332 -0.0000
vn 0.0100 0.9263 -0.3767
vn 0.3449 0.1727 -0.9226
vn -0.0470 0.5230 -0.8510
vn -0.9870 0.1422 -0.0743
vn -0.0293 -0.0000 0.9996
vn 0.0802 0.2890 0.9540
vn 0.0994 0.2967 0.9498
vn 0.1204 0.3180 0.9404
vn 0.4394 0.0026 0.8983
vn 0.1360 -0.0126 -0.9906
vn 0.1313 -0.0109 -0.9913
vn -0.2546 -0.0150 -0.9669
vn -0.1884 -0.1423 -0.9717
vn -0.3927 -0.2155 -0.8941
vn 0.9868 0.0003 0.1620
vn 0.4021 0.0027 -0.9156
vn -0.9445 -0.0820 -0.3180
vn -0.7487 -0.1770 0.6388
vn -0.4025 0.0072 0.9154
vn 0.6265 -0.0450 -0.7781
vn -0.3529 -0.0003 -0.9357
vn -0.4650 -0.0086 -0.8853
vn -0.2986 -0.0000 -0.9544
vn 0.2986 -0.0000 -0.9544
vn 0.4245 -0.0000 0.9054
vn 0.1284 -0.0387 0.9910
vn -0.8063 -0.2397 0.5408
vn 0.4869 -0.0000 -0.8734
vn 0.9851 -0.0000 0.1720
vn -0.8880 -0.4378 -0.1403
vn -0.7044 -0.7010 -0.1113
vn 0.7730 0.5936 0.2238
vn 0.6885 -0.7164 0.1134
vn 0.3525 -0.0003 -0.9358
vn -0.6860 -0.7191 0.1111
vn 0.9459 -0.0534 -0.3200
vn 0.9953 -0.0517 0.0820
vn -0.9881 0.0104 0.1537
vn -0.9860 0.0378 0.1624
vn -0.9918 0.0104 -0.1275
vn 0.5964 0.0096 -0.8026
vn 0.9860 0.0378 -0.1624
vn 0.9880 0.0105 0.1541
vn -0.9915 -0.0343 -0.1259
vn 0.9870 0.0062 0.1603
vn -0.9859 0.0407 -0.1621
vn 0.9859 0.0407 0.1621
vn -0.9870 0.0067 0.1606
vn -1.0000 0.0061 -0.0000
vn 0.9870 0.0041 -0.1606
vn 1.0000 0.0033 -0.0013
vn -0.9920 0.0221 -0.1244
vn 0.9866 0.0121 0.1626
vn 0.9875 0.0136 -0.1569
vn 0.9999 0.0125 -0.0045
vn -0.9866 0.0121 0.1626
vn -0.9998 0.0125 -0.0154
vn 0.6860 -0.7191 -0.1111
vn 0.0244 0.9997 -0.0040
vn -0.3526 -0.0003 0.9358
vn 0.1645 0.5643 -0.8090
vn 0.1968 0.8634 -0.4646
vn 0.0304 0.9558 0.2926
vn -0.0236 0.9997 -0.0036
vn 0.3528 -0.0003 0.9357
vn 0.0390 0.9407 -0.3369
vn -0.6885 -0.7164 -0.1134
vn -0.9062 0.0119 0.4228
vn -0.7987 -0.5866 0.1340
vn -0.9099 0.0146 -0.4145
vn 0.9059 0.0133 -0.4233
vn 0.7987 -0.5866 -0.1340
vn 0.9080 0.0114 0.4188
vn -0.9738 0.1973 0.1133
vn 0.9675 0.1963 0.1594
vn -0.8106 -0.5707 -0.1313
vn 0.8106 -0.5707 0.1313
vn -0.9694 0.1904 0.1551
vn -0.9519 0.1927 -0.2383
vn 0.9694 0.1904 -0.1551
vn 0.9776 0.1983 -0.0709
vn 0.9868 0.0003 -0.1617
vn -0.9619 0.0005 0.2733
vn -0.5219 0.0048 0.8530
vn -0.9868 0.0006 -0.1617
vn 0.3617 0.0053 -0.9323
vn 0.9868 0.0006 0.1617
vn -0.3076 0.0660 -0.9492
vn -0.0616 -0.0331 -0.9976
vn -0.0797 0.1094 -0.9908
vn 0.0312 0.0770 -0.9965
vn 0.1837 0.0926 -0.9786
vn 0.4392 0.0051 0.8984
vn 0.2902 -0.0018 0.9570
vn 0.0786 0.0276 0.9965
vn -0.0785 0.0486 0.9957
vn -0.2500 -0.0000 0.9683
vn 0.0969 0.9880 0.1206
vn -0.9897 0.0570 -0.1311
vn -0.7019 0.7081 0.0770
vn 0.0068 0.9934 0.1142
vn -0.0913 -0.9934 -0.0701
vn -0.5237 0.0967 -0.8464
vn 0.8862 0.4606 0.0498
vn 0.2961 0.0001 -0.9551
vn -0.2962 -0.0000 -0.9551
vn -0.2959 -0.0000 -0.9552
vn 0.2802 0.0004 -0.9600
vn -0.2802 0.0171 -0.9598
vn 0.2975 0.0403 -0.9539
vn 0.3704 0.2715 -0.8883
vn -0.0784 0.1018 -0.9917
vn -0.0059 0.1142 -0.9934
vn 0.1844 0.1003 -0.9777
vn -0.9913 -0.0000 0.1313
vn 0.9915 -0.0000 0.1304
vn -0.3433 0.0153 -0.9391
vn -0.9205 -0.3905 0.0176
vn -0.9770 0.1678 0.1312
vn 0.1528 0.0115 -0.9882
vn -0.0067 -0.9941 -0.1082
vn 0.9935 -0.0110 0.1134
vn 0.2392 -0.0452 -0.9699
vn -0.9948 0.0168 -0.1008
vn 0.9868 0.0006 -0.1617
vn 0.9725 0.2132 -0.0933
vn -0.8049 -0.5789 -0.1304
vn -0.9616 0.1742 -0.2123
vn 0.8070 -0.5748 -0.1354
vn -0.6870 -0.7178 -0.1132
vn -0.0239 0.9997 0.0039
vn -0.1523 0.7757 0.6124
vn 0.6874 -0.7177 -0.1113
vn 0.9866 0.0136 -0.1626
vn -0.9975 0.0184 -0.0680
vn 0.9870 0.0040 -0.1606
vn -0.9860 0.0393 -0.1621
vn -0.9936 -0.0081 -0.1127
vn 0.9859 0.0397 -0.1624
vn 0.9868 0.0002 -0.1622
vn -0.9931 0.0546 0.1035
vn -0.9938 0.0145 0.1103
vn -0.9688 0.1935 0.1550
vn 0.8049 -0.5789 0.1304
vn 0.9683 0.1920 0.1596
vn -0.8070 -0.5748 0.1354
vn -0.0240 0.9997 -0.0036
vn 0.0239 0.9997 -0.0039
vn -0.9870 0.0065 0.1606
vn 0.9860 0.0392 0.1621
vn 0.9870 0.0066 0.1603
vn -0.9859 0.0397 0.1624
vn -0.9868 0.0003 0.1617
vn -0.6874 -0.7177 0.1113
vn 0.6870 -0.7178 0.1132
vn -0.4998 0.8662 -0.0000
vn 0.9868 0.0001 0.1621
vn -0.4394 -0.0000 -0.8983
vn 0.9921 0.0530 0.1133
vn -0.2956 -0.0019 -0.9553
vn 0.2241 0.4128 0.8828
vn -0.2298 0.3081 0.9232
vn 0.2598 -0.0810 -0.9623
vn -0.0079 -0.0000 1.0000
vn -0.9945 -0.0000 -0.1046
vn -0.0558 0.2106 -0.9760
vn -0.3687 -0.0502 -0.9282
vn 0.0785 -0.0545 0.9954
vn 0.9868 -0.0000 -0.1620
vn -0.1026 0.0168 0.9946
vn -0.9983 -0.0579 -0.0030
vn -0.4998 0.8661 -0.0000
vn -0.7049 -0.7005 0.1114
vn -0.4978 0.8629 0.0869
vn -0.4540 0.0081 -0.8909
vn 0.9625 -0.2245 -0.1521
vn 0.4998 0.8661 -0.0000
vn -0.3647 0.1116 -0.9244
vn 0.7058 -0.7031 0.0860
vn 0.6229 0.7786 0.0757
vn 0.7048 -0.7006 0.1114
vn 0.8087 0.5882 -0.0000
vn 0.9964 -0.0000 -0.0852
vn 0.7938 0.5767 -0.1931
vn 0.7049 -0.7006 -0.1114
vn 0.4997 0.8658 -0.0256
vn 0.8028 -0.4006 -0.4417
vn 0.0857 0.9870 -0.1357
vn 0.4407 0.7969 -0.4132
vn -0.3077 0.9509 -0.0332
vn -0.6958 0.7183 -0.0000
vn 0.6993 0.6964 -0.1610
vn 0.5340 0.4911 -0.6883
vn 0.3607 0.7965 0.4852
vn -0.1103 0.5819 -0.8057
vn 0.2982 0.8239 0.4820
vn -0.9170 0.3955 -0.0522
vn -0.1535 0.3197 -0.9350
vn 0.0441 0.7307 -0.6813
vn -0.1302 0.5950 -0.7931
vn -0.1428 0.4721 0.8699
vn -0.1356 0.5475 -0.8258
vn -0.7395 0.6580 -0.1419
vn -0.1602 0.9871 0.0016
vn -0.0001 0.4713 -0.8820
vn 0.6465 0.7630 -0.0000
vn 0.7343 0.1782 -0.6550
vn 0.6827 0.0985 0.7240
vn 0.0679 0.4697 -0.8802
vn -0.8302 0.1181 0.5447
vn -0.8273 0.1192 0.5490
vn 0.5977 0.1080 0.7944
vn -0.7095 0.5240 0.4712
vn 0.9563 0.1378 -0.2578
vn 0.8264 0.5626 0.0232
vn 0.8154 0.5020 -0.2883
vn 0.7428 0.1342 0.6559
vn -0.5702 0.1646 0.8048
vn -0.7012 0.2021 0.6837
vn -0.6226 0.0845 -0.7779
vn 0.8765 0.1264 -0.4645
vn 0.5270 0.3891 -0.7556
vn -0.1519 0.1128 -0.9819
vn -0.7935 0.6085 -0.0083
vn -0.2742 0.1724 -0.9461
vt 0.568252 0.276338
vt 0.568516 0.275509
vt 0.568516 0.276381
vt 0.569042 0.276646
vt 0.568572 0.276203
vt 0.569042 0.276203
vt 0.568520 0.280840
vt 0.568875 0.281428
vt 0.568149 0.281718
vt 0.568252 0.274681
vt 0.568317 0.275509
vt 0.563965 0.280840
vt 0.563444 0.280054
vt 0.563708 0.280011
vt 0.567995 0.273852
vt 0.568516 0.274637
vt 0.686646 0.093116
vt 0.689020 0.091817
vt 0.689111 0.093384
vt 0.684581 0.093111
vt 0.686652 0.092004
vt 0.683185 0.090380
vt 0.682508 0.093097
vt 0.680428 0.091959
vt 0.680379 0.095924
vt 0.678317 0.094993
vt 0.698747 0.101680
vt 0.701762 0.098935
vt 0.701810 0.102747
vt 0.697478 0.099684
vt 0.697660 0.104022
vt 0.695802 0.101310
vt 0.695588 0.104035
vt 0.694045 0.100723
vt 0.691402 0.098978
vt 0.691420 0.102049
vt 0.693539 0.102381
vt 0.695088 0.099298
vt 0.695085 0.102352
vt 0.703836 0.101974
vt 0.687156 0.095056
vt 0.688703 0.091984
vt 0.688711 0.095055
vt 0.690757 0.090020
vt 0.690731 0.095052
vt 0.688658 0.100504
vt 0.690757 0.112935
vt 0.688591 0.112948
vt 0.711814 0.054860
vt 0.713044 0.051663
vt 0.712618 0.055113
vt 0.701883 0.119889
vt 0.703870 0.107813
vt 0.703106 0.119862
vt 0.719332 0.048244
vt 0.720156 0.056964
vt 0.719332 0.057769
vt 0.691453 0.107888
vt 0.693606 0.119939
vt 0.691402 0.119932
vt 0.706825 0.086974
vt 0.708621 0.098969
vt 0.706841 0.098960
vt 0.708605 0.086829
vt 0.710693 0.098969
vt 0.712743 0.086822
vt 0.712760 0.098962
vt 0.714508 0.086961
vt 0.714525 0.098947
vt 0.678286 0.100833
vt 0.680316 0.112909
vt 0.678102 0.112875
vt 0.061787 0.091206
vt 0.063941 0.078632
vt 0.063873 0.091232
vt 0.065946 0.091246
vt 0.068079 0.078652
vt 0.068011 0.091251
vt 0.070130 0.078801
vt 0.070063 0.091245
vt 0.567761 0.280840
vt 0.567514 0.281718
vt 0.568149 0.276646
vt 0.567761 0.277524
vt 0.567514 0.276646
vt 0.568520 0.277524
vt 0.567933 0.278353
vt 0.568777 0.278353
vt 0.567976 0.279182
vt 0.568777 0.280011
vt 0.567933 0.280011
vt 0.567623 0.278045
vt 0.567271 0.278610
vt 0.566988 0.278149
vt 0.563444 0.279182
vt 0.563643 0.279182
vt 0.568349 0.273264
vt 0.568516 0.273769
vt 0.564337 0.276646
vt 0.564690 0.276203
vt 0.564972 0.276646
vt 0.563708 0.278353
vt 0.563444 0.278309
vt 0.563965 0.277524
vt 0.563444 0.277441
vt 0.568074 0.277250
vt 0.568516 0.278044
vt 0.563444 0.276646
vt 0.562332 0.276307
vt 0.562190 0.277177
vt 0.562190 0.276309
vt 0.563444 0.281718
vt 0.563302 0.280923
vt 0.563444 0.280923
vt 0.565739 0.278346
vt 0.565493 0.277555
vt 0.565739 0.277555
vt 0.561390 0.284320
vt 0.561248 0.283481
vt 0.561390 0.283480
vt 0.562332 0.277180
vt 0.562190 0.277972
vt 0.569042 0.278309
vt 0.568741 0.277441
vt 0.569184 0.278309
vt 0.569184 0.279182
vt 0.569042 0.279182
vt 0.565147 0.275703
vt 0.564909 0.276490
vt 0.564900 0.275702
vt 0.561391 0.277468
vt 0.561692 0.276603
vt 0.561834 0.276599
vt 0.569184 0.280054
vt 0.569042 0.280054
vt 0.569184 0.280923
vt 0.569042 0.280923
vt 0.563440 0.277168
vt 0.562919 0.278045
vt 0.562919 0.277251
vt 0.563388 0.278488
vt 0.562919 0.278488
vt 0.567995 0.277167
vt 0.562919 0.276382
vt 0.563183 0.276339
vt 0.563440 0.273853
vt 0.562919 0.272975
vt 0.563812 0.272975
vt 0.564165 0.272599
vt 0.564447 0.272871
vt 0.562919 0.275510
vt 0.563118 0.275510
vt 0.568843 0.279182
vt 0.568047 0.278487
vt 0.563183 0.274681
vt 0.562919 0.274638
vt 0.562919 0.273770
vt 0.568599 0.277441
vt 0.562188 0.272950
vt 0.562441 0.272486
vt 0.562433 0.272955
vt 0.567796 0.282160
vt 0.568572 0.282474
vt 0.567796 0.282609
vt 0.564910 0.274827
vt 0.565157 0.273955
vt 0.565157 0.274832
vt 0.560643 0.279638
vt 0.560889 0.279168
vt 0.560889 0.279638
vt 0.564436 0.283262
vt 0.563592 0.283732
vt 0.563592 0.283262
vt 0.560657 0.281686
vt 0.561482 0.281197
vt 0.561469 0.281679
vt 0.568405 0.281871
vt 0.566000 0.276491
vt 0.565155 0.276933
vt 0.565156 0.276490
vt 0.563388 0.272533
vt 0.563913 0.276203
vt 0.565739 0.277112
vt 0.566583 0.282625
vt 0.565739 0.283067
vt 0.565739 0.282625
vt 0.567623 0.273357
vt 0.568349 0.272821
vt 0.563913 0.282160
vt 0.563444 0.282160
vt 0.564909 0.271711
vt 0.565156 0.271269
vt 0.565155 0.271711
vt 0.566658 0.281139
vt 0.567502 0.282011
vt 0.566658 0.282011
vt 0.560688 0.281817
vt 0.561532 0.282686
vt 0.560688 0.282685
vt 0.566658 0.280270
vt 0.567502 0.281139
vt 0.560688 0.280945
vt 0.561532 0.281817
vt 0.561532 0.283480
vt 0.560688 0.283480
vt 0.566654 0.279767
vt 0.567502 0.280270
vt 0.566658 0.282883
vt 0.567502 0.282883
vt 0.567493 0.283758
vt 0.566648 0.283758
vt 0.560688 0.278410
vt 0.561532 0.279205
vt 0.560688 0.279204
vt 0.561532 0.280073
vt 0.560688 0.280073
vt 0.561532 0.280945
vt 0.567502 0.284547
vt 0.566658 0.284546
vt 0.561692 0.275727
vt 0.561834 0.275727
vt 0.563302 0.276646
vt 0.564911 0.273082
vt 0.565158 0.273083
vt 0.563302 0.277441
vt 0.563302 0.278309
vt 0.565885 0.283187
vt 0.565743 0.282343
vt 0.565885 0.282343
vt 0.563302 0.279182
vt 0.563302 0.280054
vt 0.569017 0.281428
vt 0.562724 0.272946
vt 0.563307 0.273727
vt 0.562677 0.273736
vt 0.567481 0.274464
vt 0.568067 0.275237
vt 0.567481 0.275237
vt 0.561834 0.274855
vt 0.565159 0.272214
vt 0.561386 0.284751
vt 0.561073 0.284166
vt 0.561386 0.283907
vt 0.563913 0.275890
vt 0.564690 0.275754
vt 0.561700 0.284751
vt 0.561386 0.284166
vt 0.561700 0.283907
vt 0.561692 0.273987
vt 0.561834 0.273986
vt 0.564912 0.272214
vt 0.561667 0.273481
vt 0.567019 0.276203
vt 0.567796 0.275754
vt 0.567796 0.276203
vt 0.565466 0.276203
vt 0.567019 0.275619
vt 0.560889 0.280407
vt 0.560889 0.281191
vt 0.560643 0.280412
vt 0.567482 0.277564
vt 0.568067 0.278343
vt 0.567481 0.278343
vt 0.567482 0.276012
vt 0.568068 0.277564
vt 0.562700 0.276034
vt 0.563255 0.276829
vt 0.562673 0.276816
vt 0.563308 0.274496
vt 0.563282 0.276047
vt 0.564972 0.281718
vt 0.565466 0.282160
vt 0.564690 0.282160
vt 0.566878 0.281718
vt 0.565608 0.281718
vt 0.564690 0.282609
vt 0.567019 0.282160
vt 0.565466 0.282745
vt 0.566988 0.272870
vt 0.566494 0.272287
vt 0.567271 0.272409
vt 0.565082 0.272766
vt 0.566353 0.272766
vt 0.566878 0.276646
vt 0.564447 0.278150
vt 0.564941 0.278733
vt 0.564165 0.278610
vt 0.566353 0.278254
vt 0.565082 0.278254
vt 0.565398 0.280011
vt 0.564724 0.280840
vt 0.564553 0.280011
vt 0.567002 0.280840
vt 0.565484 0.280840
vt 0.565376 0.279182
vt 0.564510 0.279182
vt 0.567109 0.279182
vt 0.564553 0.278353
vt 0.567088 0.278353
vt 0.565398 0.278353
vt 0.564724 0.277524
vt 0.565484 0.277524
vt 0.565608 0.276646
vt 0.567002 0.277524
vt 0.711475 0.056012
vt 0.712260 0.056340
vt 0.722358 0.030710
vt 0.721542 0.038212
vt 0.721552 0.030706
vt 0.721578 0.035997
vt 0.720749 0.039318
vt 0.720749 0.035842
vt 0.721968 0.041536
vt 0.720954 0.040579
vt 0.721773 0.040351
vt 0.687329 0.097632
vt 0.688876 0.102415
vt 0.687304 0.102390
vt 0.692010 0.097493
vt 0.691994 0.102410
vt 0.680114 0.102311
vt 0.679274 0.112941
vt 0.679315 0.100895
vt 0.681267 0.112709
vt 0.682454 0.112944
vt 0.680864 0.112942
vt 0.687949 0.104402
vt 0.688787 0.112941
vt 0.687987 0.112708
vt 0.686470 0.110460
vt 0.685544 0.120063
vt 0.685677 0.108173
vt 0.687594 0.119963
vt 0.688786 0.120214
vt 0.687189 0.120189
vt 0.694300 0.109583
vt 0.695095 0.120151
vt 0.694300 0.119933
vt 0.686343 0.103451
vt 0.685610 0.100898
vt 0.687177 0.100896
vt 0.693139 0.109604
vt 0.691981 0.108218
vt 0.693538 0.108189
vt 0.687207 0.112942
vt 0.686805 0.112709
vt 0.685623 0.112711
vt 0.682456 0.112711
vt 0.693524 0.120181
vt 0.693126 0.119955
vt 0.691953 0.119977
vt 0.688788 0.119982
vt 0.680891 0.100896
vt 0.681290 0.102312
vt 0.682465 0.102313
vt 0.684400 0.105087
vt 0.687259 0.108197
vt 0.687651 0.110479
vt 0.691978 0.109626
vt 0.688842 0.108222
vt 0.712294 0.053546
vt 0.713125 0.047647
vt 0.713161 0.053545
vt 0.723692 0.056929
vt 0.724553 0.048959
vt 0.724553 0.056913
vt 0.718486 0.056934
vt 0.719394 0.050224
vt 0.719362 0.056949
vt 0.722831 0.056945
vt 0.707082 0.053549
vt 0.707956 0.045560
vt 0.707954 0.053549
vt 0.710204 0.048333
vt 0.711427 0.053547
vt 0.712106 0.049315
vt 0.712996 0.050386
vt 0.712154 0.050515
vt 0.710681 0.055241
vt 0.709839 0.056409
vt 0.709836 0.055145
vt 0.722231 0.040030
vt 0.721421 0.049622
vt 0.721429 0.040026
vt 0.713106 0.050549
vt 0.712279 0.053340
vt 0.712275 0.050517
vt 0.717835 0.038845
vt 0.717010 0.037357
vt 0.717849 0.037220
vt 0.720343 0.052103
vt 0.721351 0.051084
vt 0.721163 0.052330
vt 0.720156 0.045433
vt 0.721168 0.046373
vt 0.720349 0.046605
vt 0.722407 0.044954
vt 0.723233 0.054545
vt 0.722407 0.055349
vt 0.720543 0.047777
vt 0.720522 0.050932
vt 0.721773 0.034812
vt 0.720954 0.034581
vt 0.706235 0.045560
vt 0.705420 0.053881
vt 0.705449 0.044283
vt 0.707949 0.053881
vt 0.706684 0.053881
vt 0.713939 0.053876
vt 0.717667 0.049833
vt 0.716808 0.057214
vt 0.716876 0.048526
vt 0.719347 0.057254
vt 0.718077 0.057234
vt 0.725317 0.057205
vt 0.711832 0.046696
vt 0.710197 0.047056
vt 0.712214 0.045419
vt 0.723703 0.048975
vt 0.722844 0.047694
vt 0.724080 0.047672
vt 0.712682 0.053877
vt 0.711424 0.053879
vt 0.724068 0.057228
vt 0.706701 0.044283
vt 0.707095 0.045560
vt 0.718133 0.048546
vt 0.718531 0.049847
vt 0.722853 0.048990
vt 0.719388 0.048928
vt 0.682478 0.095057
vt 0.682467 0.100898
vt 0.681520 0.095044
vt 0.690700 0.100891
vt 0.688744 0.100895
vt 0.702542 0.107552
vt 0.695095 0.108160
vt 0.693535 0.107494
vt 0.708596 0.083758
vt 0.710667 0.083754
vt 0.710676 0.086810
vt 0.714526 0.082494
vt 0.680383 0.100464
vt 0.682469 0.100335
vt 0.063980 0.071394
vt 0.066014 0.078628
vt 0.684542 0.100331
vt 0.686607 0.100355
vt 0.697364 0.093763
vt 0.697459 0.096089
vt 0.697216 0.093770
vt 0.687006 0.111819
vt 0.687406 0.113605
vt 0.686858 0.111839
vt 0.699725 0.095386
vt 0.699738 0.097455
vt 0.699576 0.095398
vt 0.701862 0.119886
vt 0.701791 0.107444
vt 0.697673 0.097692
vt 0.697608 0.096089
vt 0.687555 0.113592
vt 0.687568 0.115662
vt 0.699084 0.093317
vt 0.698936 0.093336
vt 0.697363 0.099744
vt 0.697524 0.097682
vt 0.699195 0.102505
vt 0.696732 0.100543
vt 0.697216 0.094271
vt 0.696716 0.100547
vt 0.687555 0.117731
vt 0.687718 0.115662
vt 0.686161 0.112554
vt 0.686364 0.115603
vt 0.686214 0.115604
vt 0.733790 0.058883
vt 0.732035 0.059366
vt 0.732033 0.058906
vt 0.729981 0.059381
vt 0.729978 0.058921
vt 0.727921 0.059390
vt 0.727919 0.058930
vt 0.726145 0.058929
vt 0.725850 0.059389
vt 0.725779 0.046946
vt 0.726077 0.046945
vt 0.734017 0.046897
vt 0.734088 0.059339
vt 0.726037 0.040873
vt 0.725738 0.040640
vt 0.733723 0.042442
vt 0.733721 0.046899
vt 0.686310 0.112549
vt 0.686360 0.115369
vt 0.727825 0.043736
vt 0.729885 0.043488
vt 0.729886 0.043722
vt 0.731423 0.042193
vt 0.731422 0.041959
vt 0.734016 0.042206
vt 0.699725 0.099524
vt 0.699888 0.097455
vt 0.700895 0.119620
vt 0.700873 0.107632
vt 0.701020 0.107631
vt 0.699084 0.101593
vt 0.699576 0.099511
vt 0.693978 0.118570
vt 0.693985 0.106645
vt 0.694124 0.118565
vt 0.701790 0.102753
vt 0.726272 0.040176
vt 0.727823 0.043502
vt 0.700895 0.101550
vt 0.700747 0.101560
vt 0.686161 0.112277
vt 0.686309 0.099901
vt 0.686309 0.112278
vt 0.693146 0.091445
vt 0.693295 0.089381
vt 0.693295 0.091447
vt 0.693838 0.106648
vt 0.694124 0.102217
vt 0.687006 0.119504
vt 0.687406 0.117719
vt 0.697658 0.104035
vt 0.685733 0.102365
vt 0.713897 0.046369
vt 0.717611 0.056920
vt 0.721968 0.033627
vt 0.721158 0.033320
vt 0.720156 0.053275
vt 0.720967 0.053579
vt 0.716997 0.035333
vt 0.717836 0.035272
vt 0.712203 0.051716
vt 0.688830 0.110860
vt 0.685625 0.112944
vt 0.690621 0.110839
vt 0.690663 0.111632
vt 0.689651 0.109910
vt 0.685754 0.099311
vt 0.568047 0.272532
vt 0.563227 0.277611
vt 0.562645 0.277598
vt 0.565487 0.282817
vt 0.565733 0.281264
vt 0.565733 0.282819
vt 0.568572 0.275890
vt 0.563592 0.282486
vt 0.563345 0.283262
vt 0.563346 0.282484
vt 0.568068 0.276012
vt 0.567019 0.282745
vt 0.566494 0.278733
vt 0.567088 0.280011
vt 0.683918 0.090746
vt 0.687212 0.089052
vt 0.679349 0.095055
vt 0.707952 0.044283
vt 0.722819 0.057250
vt 0.725317 0.047650
vt 0.706210 0.053549
vt 0.721371 0.047621
vt 0.710681 0.054053
vt 0.709833 0.053881
vt 0.691954 0.120210
vt 0.680079 0.112708
vt 0.680920 0.091985
vt 0.721578 0.039166
vt 0.711136 0.057164
vt 0.711903 0.057566
vt 0.564337 0.281718
vt 0.563812 0.278045
vt 0.563913 0.282474
vt 0.568066 0.279122
vt 0.567481 0.279122
vt 0.567375 0.276558
vt 0.567830 0.277330
vt 0.567239 0.277334
vt 0.565466 0.275619
vt 0.567830 0.278885
vt 0.567239 0.278887
vt 0.562678 0.274505
vt 0.564941 0.272476
vt 0.693546 0.099327
vt 0.692252 0.046722
vt 0.695514 0.049570
vt 0.694480 0.050255
vt 0.694069 0.027750
vt 0.692136 0.031684
vt 0.693115 0.025852
vt 0.693225 0.029155
vt 0.695002 0.031330
vt 0.693252 0.033565
vt 0.684953 0.028403
vt 0.683260 0.032622
vt 0.683260 0.028423
vt 0.691691 0.043507
vt 0.695514 0.043611
vt 0.691250 0.033341
vt 0.690521 0.027692
vt 0.686870 0.026541
vt 0.685266 0.028461
vt 0.685624 0.026333
vt 0.690805 0.107975
vt 0.690228 0.104747
vt 0.690798 0.104751
vt 0.694648 0.028415
vt 0.692916 0.032596
vt 0.692916 0.028397
vt 0.690228 0.111741
vt 0.690231 0.108386
vt 0.689296 0.032604
vt 0.688014 0.028092
vt 0.691001 0.030347
vt 0.690935 0.035479
vt 0.688291 0.024753
vt 0.690641 0.031432
vt 0.687661 0.030931
vt 0.687325 0.029143
vt 0.685369 0.032532
vt 0.685369 0.029157
vt 0.687336 0.032607
vt 0.688923 0.035476
vt 0.689078 0.029097
vt 0.691978 0.023467
vt 0.692322 0.025345
vt 0.693687 0.026169
vt 0.691896 0.027158
vt 0.686920 0.032594
vt 0.686920 0.028395
vt 0.683616 0.030122
vt 0.683616 0.027214
vt 0.686174 0.030683
vt 0.684953 0.032602
vt 0.567375 0.279664
vt 0.567830 0.279669
vt 0.567510 0.280440
vt 0.565493 0.281830
vt 0.565739 0.280963
vt 0.565739 0.281830
vt 0.562332 0.273696
vt 0.562190 0.272902
vt 0.562332 0.272901
vt 0.563591 0.281712
vt 0.567830 0.276556
vt 0.567510 0.275781
vt 0.567830 0.275780
vt 0.561717 0.282289
vt 0.561484 0.282286
vt 0.568111 0.273632
vt 0.567711 0.272833
vt 0.568289 0.272864
vt 0.564068 0.282198
vt 0.564670 0.281613
vt 0.564673 0.282198
vt 0.561904 0.276276
vt 0.562147 0.277812
vt 0.561904 0.277844
vt 0.567923 0.271289
vt 0.562386 0.274513
vt 0.562167 0.273728
vt 0.562400 0.273740
vt 0.565195 0.283426
vt 0.565337 0.284271
vt 0.565195 0.284271
vt 0.565493 0.282625
vt 0.562190 0.273696
vt 0.562332 0.274564
vt 0.562190 0.274564
vt 0.565493 0.280962
vt 0.565739 0.280090
vt 0.562332 0.275436
vt 0.562190 0.275437
vt 0.561692 0.278262
vt 0.561834 0.278262
vt 0.561508 0.283062
vt 0.565493 0.280090
vt 0.565739 0.279219
vt 0.567606 0.274213
vt 0.567935 0.274400
vt 0.566000 0.271269
vt 0.566000 0.271712
vt 0.565493 0.283067
vt 0.566583 0.277113
vt 0.566583 0.277555
vt 0.564909 0.276933
vt 0.561706 0.281508
vt 0.561727 0.281191
vt 0.563345 0.283732
vt 0.561734 0.279168
vt 0.561734 0.279638
vt 0.562013 0.284166
vt 0.562013 0.284751
vt 0.563280 0.272505
vt 0.563272 0.272974
vt 0.560971 0.283481
vt 0.561113 0.284320
vt 0.560971 0.284321
vt 0.565493 0.278349
vt 0.694609 0.097430
vt 0.694206 0.095270
vt 0.694763 0.095377
vt 0.694063 0.111534
vt 0.694527 0.114021
vt 0.693491 0.111505
vt 0.694314 0.109585
vt 0.693785 0.109220
vt 0.684039 0.108838
vt 0.684691 0.110821
vt 0.684120 0.110828
vt 0.684197 0.113028
vt 0.684767 0.113083
vt 0.684149 0.114748
vt 0.683454 0.114904
vt 0.684903 0.105760
vt 0.684239 0.103604
vt 0.684801 0.103620
vt 0.689028 0.119342
vt 0.689599 0.117392
vt 0.689599 0.119652
vt 0.695178 0.108478
vt 0.695447 0.108981
vt 0.683454 0.107061
vt 0.684606 0.108735
vt 0.696703 0.097127
vt 0.695634 0.094081
vt 0.696703 0.094086
vt 0.694763 0.099340
vt 0.693395 0.097492
vt 0.693664 0.096626
vt 0.694230 0.098775
vt 0.693668 0.098832
vt 0.694598 0.100337
vt 0.695512 0.097376
vt 0.695512 0.100582
vt 0.682518 0.094480
vt 0.691758 0.114940
vt 0.692424 0.116694
vt 0.691916 0.118008
vt 0.684074 0.097870
vt 0.683496 0.096302
vt 0.684067 0.096333
vt 0.693664 0.100582
vt 0.694180 0.100536
vt 0.688072 0.114718
vt 0.687182 0.116652
vt 0.687124 0.114718
vt 0.692424 0.112922
vt 0.691903 0.112936
vt 0.692289 0.119116
vt 0.691828 0.118099
vt 0.692289 0.118008
vt 0.694967 0.114045
vt 0.694921 0.116427
vt 0.689975 0.044779
vt 0.692365 0.038481
vt 0.693346 0.047225
vt 0.692942 0.029667
vt 0.691053 0.027949
vt 0.693347 0.032645
vt 0.691396 0.029830
vt 0.688299 0.030156
vt 0.687164 0.033385
vt 0.686753 0.030319
vt 0.688371 0.045634
vt 0.685266 0.045102
vt 0.690715 0.031455
vt 0.687257 0.036201
vt 0.689326 0.050558
vt 0.691094 0.038818
vt 0.692253 0.031713
vt 0.688984 0.047004
vt 0.691093 0.047042
vt 0.689024 0.047043
vt 0.688505 0.044063
vt 0.686860 0.045096
vt 0.686757 0.043832
vt 0.686955 0.047044
vt 0.686915 0.039835
vt 0.693270 0.029685
vt 0.695339 0.026569
vt 0.695339 0.029685
vt 0.683571 0.046744
vt 0.681945 0.046122
vt 0.683580 0.041290
vt 0.690982 0.044733
vt 0.689425 0.047526
vt 0.689425 0.044713
vt 0.694947 0.054372
vt 0.692870 0.054629
vt 0.692928 0.040123
vt 0.684859 0.030536
vt 0.682099 0.044125
vt 0.680273 0.042735
vt 0.682279 0.042603
vt 0.694893 0.028659
vt 0.684962 0.033836
vt 0.684997 0.033620
vt 0.694443 0.032092
vt 0.694143 0.032031
vt 0.694947 0.039875
vt 0.694675 0.039880
vt 0.680344 0.044293
vt 0.681950 0.045384
vt 0.680273 0.046213
vt 0.689393 0.024803
vt 0.694893 0.047062
vt 0.685187 0.033400
vt 0.691395 0.047756
vt 0.691143 0.030356
vt 0.692848 0.029325
vt 0.692889 0.030616
vt 0.697025 0.041007
vt 0.694994 0.026843
vt 0.697025 0.026635
vt 0.685586 0.090888
vt 0.678333 0.091923
vt 0.699697 0.098954
vt 0.693485 0.098985
vt 0.703818 0.098903
vt 0.720147 0.048239
vt 0.061854 0.078762
vt 0.563302 0.281718
vt 0.561248 0.284321
vt 0.562332 0.277972
vt 0.561249 0.277468
vt 0.568516 0.278487
vt 0.562195 0.272481
vt 0.564911 0.273955
vt 0.560643 0.279168
vt 0.564436 0.283732
vt 0.560643 0.281217
vt 0.568875 0.281871
vt 0.566000 0.276934
vt 0.562919 0.272533
vt 0.563444 0.276203
vt 0.565493 0.277112
vt 0.566583 0.283068
vt 0.564909 0.271268
vt 0.567498 0.279767
vt 0.561532 0.278410
vt 0.569184 0.276646
vt 0.565743 0.283187
vt 0.563306 0.272958
vt 0.568066 0.274464
vt 0.561692 0.274855
vt 0.561073 0.284752
vt 0.561386 0.284752
vt 0.561525 0.273481
vt 0.560644 0.281186
vt 0.722358 0.039015
vt 0.721158 0.041840
vt 0.688848 0.095540
vt 0.686401 0.119944
vt 0.712948 0.049110
vt 0.710681 0.056429
vt 0.722231 0.050426
vt 0.713106 0.053365
vt 0.716997 0.039059
vt 0.720965 0.045125
vt 0.723224 0.044949
vt 0.706814 0.080891
vt 0.712221 0.082230
vt 0.066053 0.071408
vt 0.697216 0.099724
vt 0.696716 0.093763
vt 0.686364 0.112278
vt 0.700747 0.119618
vt 0.698936 0.101573
vt 0.727815 0.043488
vt 0.686161 0.099898
vt 0.693146 0.089369
vt 0.693977 0.102209
vt 0.686858 0.119485
vt 0.690670 0.112038
vt 0.565487 0.281264
vt 0.685597 0.087563
vt 0.679358 0.090021
vt 0.693374 0.031893
vt 0.695002 0.029173
vt 0.692188 0.041488
vt 0.694648 0.032614
vt 0.690794 0.112322
vt 0.693399 0.023291
vt 0.567830 0.280438
vt 0.563346 0.281705
vt 0.567670 0.273609
vt 0.564321 0.281352
vt 0.562148 0.276248
vt 0.567606 0.271268
vt 0.562167 0.274498
vt 0.565337 0.283426
vt 0.561727 0.283071
vt 0.565493 0.279218
vt 0.561700 0.283907
vt 0.561113 0.283480
vt 0.684239 0.106171
vt 0.689028 0.117471
vt 0.683899 0.106588
vt 0.696196 0.097099
vt 0.694217 0.099677
vt 0.694598 0.096524
vt 0.694639 0.096896
vt 0.681609 0.093749
vt 0.692322 0.114917
vt 0.682994 0.097870
vt 0.687738 0.116718
vt 0.691758 0.119276
vt 0.695447 0.116534
vt 0.689848 0.044573
vt 0.685298 0.045118
vt 0.691053 0.035534
vt 0.688505 0.045985
vt 0.693203 0.026589
vt 0.683580 0.046784
vt 0.690982 0.047546
vt 0.692897 0.054660
vt 0.688428 0.044942
vt 0.691143 0.028315
vt 0.694413 0.026641
s 0
usemtl Material
f 239/1/1 69/2/1 70/3/1
f 77/4/2 91/5/2 99/6/2
f 53/7/2 75/8/2 48/9/2
f 237/10/1 69/2/1 238/11/1
f 43/12/2 81/13/2 52/14/2
f 236/15/1 68/16/1 237/10/1
f 230/17/3 380/18/3 231/19/3
f 229/20/4 381/21/4 230/17/4
f 384/22/5 229/20/5 228/23/5
f 383/24/6 228/23/6 227/25/6
f 218/26/7 383/24/7 227/25/7
f 225/27/8 387/28/8 244/29/8
f 388/30/9 225/27/9 224/31/9
f 389/32/10 224/31/10 223/33/10
f 243/34/11 389/32/11 223/33/11
f 391/35/12 243/34/12 220/36/12
f 341/37/13 385/38/13 218/39/13
f 387/28/14 221/40/14 244/29/14
f 306/41/15 391/42/15 220/43/15
f 231/19/16 395/44/16 219/45/16
f 41/46/17 171/47/17 5/48/17
f 131/49/18 187/50/18 189/51/18
f 236/52/19 175/53/19 176/54/19
f 31/55/20 208/56/20 3/57/20
f 173/58/21 240/59/21 174/60/21
f 32/61/22 13/62/22 14/63/22
f 33/64/23 12/65/23 13/62/23
f 12/65/24 35/66/24 11/67/24
f 11/67/25 36/68/25 10/69/25
f 179/70/26 9/71/26 178/72/26
f 9/73/27 38/74/27 8/75/27
f 38/74/28 7/76/28 8/75/28
f 7/76/4 40/77/4 6/78/4
f 6/78/29 41/79/29 5/80/29
f 288/81/2 48/9/2 275/82/2
f 45/83/2 284/84/2 283/85/2
f 47/86/2 285/87/2 284/84/2
f 56/88/2 286/89/2 285/87/2
f 286/89/2 54/90/2 287/91/2
f 287/91/2 53/7/2 288/81/2
f 174/92/1 289/93/1 280/94/1
f 52/14/2 71/95/2 51/96/2
f 236/15/1 66/97/1 67/98/1
f 46/99/2 317/100/2 310/101/2
f 50/102/2 71/95/2 80/103/2
f 49/104/2 80/103/2 79/105/2
f 174/92/1 59/106/1 60/107/1
f 49/104/2 78/108/2 46/99/2
f 104/109/1 366/110/1 367/111/1
f 72/112/2 109/113/2 73/114/2
f 105/115/30 61/116/30 345/117/30
f 75/118/31 358/119/31 343/120/31
f 105/121/1 365/122/1 366/110/1
f 84/123/2 112/124/2 120/125/2
f 84/123/2 119/126/2 83/127/2
f 106/128/32 60/129/32 59/130/32
f 363/131/1 121/132/1 362/133/1
f 83/127/2 118/134/2 82/135/2
f 82/135/2 110/136/2 74/137/2
f 53/7/2 82/135/2 74/137/2
f 5/138/1 61/139/1 62/140/1
f 61/139/1 86/141/1 100/142/1
f 240/143/1 70/3/1 59/106/1
f 54/90/2 83/127/2 82/135/2
f 5/138/1 63/144/1 6/145/1
f 9/146/1 58/147/1 178/148/1
f 178/148/1 324/149/1 320/150/1
f 6/145/1 64/151/1 7/152/1
f 56/88/2 83/127/2 55/153/2
f 60/107/1 85/154/1 174/92/1
f 47/86/2 84/123/2 56/88/2
f 8/155/1 64/151/1 65/156/1
f 43/12/2 72/112/2 73/114/2
f 9/146/1 65/156/1 57/157/1
f 45/83/2 76/158/2 47/86/2
f 87/159/31 350/160/31 346/161/31
f 277/162/2 126/163/2 279/164/2
f 70/165/33 122/166/33 121/167/33
f 85/168/34 352/169/34 348/170/34
f 92/171/34 353/172/34 349/173/34
f 90/174/35 351/175/35 347/176/35
f 75/8/2 90/177/2 48/9/2
f 77/178/33 352/179/33 344/180/33
f 48/9/2 277/162/2 275/82/2
f 58/147/1 87/181/1 178/148/1
f 78/108/2 92/182/2 46/99/2
f 61/116/30 353/183/30 345/117/30
f 72/184/30 350/185/30 342/186/30
f 176/187/1 93/188/1 66/97/1
f 72/112/2 89/189/2 96/190/2
f 66/191/33 351/192/33 343/193/33
f 360/194/33 119/195/33 361/196/33
f 359/197/30 109/198/30 356/199/30
f 357/200/33 118/201/33 360/194/33
f 354/202/30 117/203/30 359/197/30
f 356/199/30 108/204/30 355/205/30
f 358/206/36 110/207/36 357/200/36
f 362/208/33 119/195/33 120/209/33
f 362/208/37 112/210/37 363/211/37
f 365/212/30 115/213/30 366/214/30
f 366/214/30 116/215/30 367/216/30
f 367/216/30 107/217/30 354/202/30
f 363/211/38 113/218/38 364/219/38
f 77/4/2 112/124/2 76/158/2
f 362/133/1 122/220/1 361/221/1
f 79/105/2 114/222/2 78/108/2
f 122/166/33 68/223/33 123/224/33
f 80/103/2 115/225/2 79/105/2
f 71/95/2 116/226/2 80/103/2
f 78/227/34 365/228/34 345/229/34
f 81/13/2 107/230/2 71/95/2
f 73/114/2 117/231/2 81/13/2
f 74/137/2 111/232/2 75/8/2
f 368/233/39 327/234/39 379/235/39
f 370/236/40 292/237/40 377/238/40
f 122/220/1 360/239/1 361/221/1
f 68/223/33 124/240/33 123/224/33
f 91/241/33 370/242/33 348/243/33
f 317/100/2 128/244/2 319/245/2
f 89/246/30 368/247/30 346/248/30
f 360/239/1 124/249/1 357/250/1
f 67/251/41 343/193/41 124/240/41
f 124/249/1 358/252/1 357/250/1
f 158/253/2 292/254/2 290/255/2
f 159/256/2 166/257/2 158/253/2
f 165/258/34 85/168/34 348/170/34
f 164/259/42 289/260/42 165/258/42
f 372/261/43 319/262/43 378/263/43
f 373/264/34 167/265/34 372/261/34
f 374/266/44 279/267/44 376/268/44
f 374/266/31 168/269/31 169/270/31
f 323/271/2 160/272/2 325/273/2
f 143/274/2 160/272/2 142/275/2
f 160/272/2 327/276/2 325/273/2
f 161/277/2 168/278/2 160/272/2
f 272/279/1 157/280/1 276/281/1
f 183/282/1 157/280/1 177/283/1
f 283/85/2 158/253/2 290/255/2
f 140/284/2 159/256/2 158/253/2
f 307/285/1 155/286/1 316/287/1
f 182/288/1 155/286/1 172/289/1
f 151/290/2 315/291/2 314/292/2
f 151/290/2 152/293/2 153/294/2
f 149/295/2 314/292/2 313/296/2
f 148/297/2 151/290/2 149/295/2
f 312/298/2 149/295/2 313/296/2
f 146/299/2 149/295/2 147/300/2
f 311/301/2 147/300/2 312/298/2
f 145/302/2 146/299/2 147/300/2
f 310/101/2 145/302/2 311/301/2
f 141/303/2 144/304/2 145/302/2
f 153/294/2 323/271/2 315/291/2
f 152/293/2 142/275/2 153/294/2
f 330/305/45 189/51/45 334/306/45
f 30/307/46 206/308/46 205/309/46
f 129/310/47 204/311/47 214/312/47
f 2/313/48 332/314/48 328/315/48
f 396/316/49 234/317/49 305/318/49
f 234/317/31 398/319/31 235/320/31
f 29/321/50 171/322/50 170/323/50
f 328/324/51 172/325/51 307/326/51
f 30/327/52 174/328/52 4/329/52
f 31/330/53 176/331/53 175/332/53
f 293/333/54 177/334/54 272/335/54
f 42/336/55 178/337/55 1/338/55
f 294/339/56 180/340/56 274/341/56
f 329/342/57 181/343/57 309/344/57
f 4/329/58 280/345/58 295/346/58
f 129/347/59 172/325/59 130/348/59
f 1/338/60 320/349/60 330/350/60
f 131/351/61 177/334/61 132/352/61
f 29/321/62 322/353/62 331/354/62
f 136/355/63 180/340/63 137/356/63
f 31/330/64 282/357/64 296/358/64
f 139/359/65 185/360/65 181/343/65
f 303/361/66 196/362/66 197/363/66
f 338/364/67 201/365/67 200/366/67
f 301/367/68 217/368/68 209/369/68
f 217/368/69 215/370/69 209/369/69
f 336/371/70 216/372/70 191/373/70
f 191/373/71 212/374/71 193/375/71
f 3/376/72 297/377/72 293/378/72
f 331/379/73 190/380/73 335/381/73
f 42/382/74 210/383/74 211/384/74
f 136/385/75 192/386/75 190/387/75
f 30/388/76 298/389/76 294/390/76
f 296/391/77 186/392/77 300/393/77
f 42/394/78 333/395/78 329/396/78
f 29/397/79 203/398/79 2/399/79
f 139/400/80 186/392/80 138/401/80
f 295/402/81 214/312/81 299/403/81
f 194/404/82 203/405/82 202/406/82
f 336/371/83 204/407/83 332/408/83
f 196/362/84 206/409/84 197/363/84
f 198/410/85 208/411/85 207/412/85
f 301/367/86 187/413/86 297/414/86
f 201/365/87 210/415/87 200/366/87
f 302/416/88 192/417/88 298/418/88
f 337/419/89 188/420/89 333/421/89
f 197/363/90 299/422/90 303/361/90
f 191/373/91 214/423/91 204/407/91
f 200/366/92 334/424/92 338/364/92
f 215/370/93 187/413/93 209/369/93
f 194/404/94 335/425/94 339/426/94
f 216/372/95 192/417/95 212/374/95
f 198/410/96 300/427/96 304/428/96
f 213/429/97 186/430/97 188/420/97
f 234/317/31 181/343/31 185/360/31
f 305/318/98 185/360/98 282/357/98
f 232/431/34 180/340/34 184/432/34
f 340/433/99 184/432/99 322/353/99
f 231/19/100 170/434/100 41/46/100
f 274/341/101 220/43/101 173/435/101
f 244/29/102 175/53/102 242/436/102
f 309/344/103 218/39/103 179/437/103
f 220/36/104 241/438/104 173/58/104
f 32/61/105 245/439/105 33/64/105
f 33/64/106 246/440/106 34/441/106
f 246/440/107 35/66/107 34/441/107
f 35/66/108 226/442/108 36/68/108
f 179/70/109 227/25/109 37/443/109
f 37/443/27 228/23/27 38/444/27
f 228/445/110 39/446/110 38/74/110
f 39/447/111 230/17/111 40/448/111
f 40/448/112 231/19/112 41/46/112
f 226/449/113 271/450/113 268/451/113
f 14/452/114 263/453/114 264/454/114
f 237/455/1 250/456/1 249/457/1
f 242/436/115 248/458/115 254/459/115
f 246/460/116 271/450/116 247/461/116
f 13/462/2 262/463/2 263/453/2
f 236/464/117 249/457/117 248/465/117
f 245/466/118 270/467/118 246/460/118
f 244/29/119 259/468/119 225/27/119
f 241/469/120 255/470/120 253/471/120
f 11/472/2 262/463/2 12/473/2
f 222/474/121 269/475/121 245/476/121
f 260/477/122 249/478/122 261/479/122
f 261/479/123 250/480/123 262/481/123
f 262/481/124 251/482/124 263/483/124
f 264/484/125 251/482/125 252/485/125
f 264/484/126 253/486/126 265/487/126
f 260/477/127 254/488/127 248/489/127
f 267/490/128 253/486/128 255/491/128
f 268/492/129 254/488/129 266/493/129
f 267/494/130 257/495/130 269/475/130
f 269/496/131 258/497/131 270/498/131
f 271/499/132 258/497/132 259/500/132
f 268/492/133 259/500/133 256/501/133
f 239/502/1 250/456/1 238/503/1
f 14/504/134 265/505/134 32/506/134
f 240/507/1 251/508/1 239/502/1
f 10/509/135 266/510/135 260/511/135
f 244/29/136 254/459/136 256/512/136
f 243/513/137 257/514/137 255/491/137
f 222/515/138 265/505/138 267/516/138
f 240/517/139 253/518/139 252/519/139
f 223/520/140 258/521/140 257/522/140
f 36/523/141 268/524/141 266/510/141
f 10/525/2 261/526/2 11/472/2
f 224/31/142 259/468/142 258/527/142
f 180/340/143 306/41/143 274/341/143
f 221/528/144 282/357/144 175/332/144
f 304/428/145 186/430/145 217/368/145
f 303/361/146 214/423/146 193/375/146
f 302/416/147 205/529/147 196/362/147
f 199/530/148 297/414/148 208/411/148
f 4/531/149 299/403/149 206/532/149
f 31/533/150 300/393/150 207/534/150
f 294/390/151 192/535/151 137/536/151
f 293/378/152 187/50/152 132/537/152
f 198/410/153 301/367/153 199/530/153
f 212/374/154 303/361/154 193/375/154
f 296/358/155 185/360/155 138/538/155
f 295/346/156 182/539/156 129/347/156
f 30/327/157 274/341/157 173/435/157
f 3/540/158 272/541/158 176/542/158
f 393/543/159 305/318/159 221/528/159
f 45/83/2 290/255/2 91/5/2
f 176/187/1 276/281/1 88/544/1
f 376/268/44 126/545/44 369/546/44
f 155/547/160 164/548/160 163/549/160
f 290/255/2 127/550/2 91/5/2
f 162/551/161 86/552/161 316/553/161
f 377/238/40 166/554/40 373/264/40
f 275/82/2 161/277/2 143/274/2
f 161/277/2 279/164/2 169/555/2
f 280/94/1 154/556/1 182/288/1
f 150/557/2 288/81/2 152/293/2
f 148/297/2 287/91/2 150/557/2
f 285/87/2 148/297/2 146/299/2
f 284/84/2 146/299/2 144/304/2
f 283/85/2 144/304/2 140/284/2
f 152/293/2 275/82/2 143/274/2
f 233/558/162 394/559/162 306/41/162
f 181/343/163 341/37/163 309/344/163
f 219/560/164 322/353/164 170/323/164
f 339/426/165 190/561/165 216/372/165
f 338/364/166 189/562/166 215/370/166
f 201/365/167 333/421/167 211/563/167
f 195/564/168 332/408/168 203/405/168
f 329/396/169 188/565/169 139/400/169
f 29/566/170 335/381/170 202/567/170
f 194/404/171 336/371/171 195/564/171
f 213/429/172 338/364/172 215/370/172
f 331/354/173 184/432/173 136/355/173
f 330/350/174 183/568/174 131/351/174
f 42/336/175 309/344/175 179/437/175
f 2/569/176 307/326/176 171/322/176
f 219/560/177 399/570/177 340/433/177
f 328/315/178 204/311/178 130/571/178
f 1/572/179 334/306/179 210/573/179
f 315/291/2 44/574/2 43/12/2
f 46/99/2 311/301/2 49/104/2
f 49/104/2 312/298/2 50/102/2
f 50/102/2 313/296/2 51/96/2
f 313/296/2 52/14/2 51/96/2
f 314/292/2 43/12/2 52/14/2
f 171/575/1 316/287/1 86/141/1
f 325/273/2 125/576/2 89/189/2
f 44/574/2 325/273/2 89/189/2
f 378/263/43 128/577/43 371/578/43
f 378/579/180 163/580/180 372/581/180
f 159/256/2 319/245/2 167/582/2
f 372/581/181 164/583/181 373/584/181
f 375/585/182 327/234/182 168/269/182
f 320/150/1 156/586/1 183/282/1
f 310/101/2 159/256/2 141/303/2
f 235/320/183 392/587/183 341/37/183
f 17/588/184 431/589/184 440/590/184
f 18/591/185 432/592/185 281/593/185
f 24/594/186 439/595/186 418/596/186
f 23/597/187 441/598/187 18/599/187
f 273/600/188 424/601/188 431/589/188
f 24/594/189 417/602/189 25/603/189
f 308/604/190 439/605/190 15/606/190
f 233/607/191 135/608/191 400/609/191
f 17/610/192 434/611/192 19/612/192
f 233/607/193 407/613/193 424/614/193
f 25/603/194 436/615/194 26/616/194
f 20/617/195 434/611/195 435/618/195
f 134/619/196 420/620/196 406/621/196
f 27/622/197 419/623/197 28/624/197
f 27/622/198 436/615/198 416/625/198
f 20/617/199 433/626/199 21/627/199
f 281/593/185 420/620/185 133/628/185
f 321/629/200 442/630/200 415/631/200
f 21/627/201 437/632/201 22/633/201
f 28/624/202 442/634/202 16/635/202
f 308/604/190 406/621/190 414/636/190
f 22/633/203 438/637/203 23/597/203
f 164/583/204 377/638/204 373/584/204
f 165/639/205 370/640/205 377/638/205
f 57/641/30 102/642/30 101/643/30
f 101/644/1 355/645/1 342/646/1
f 316/553/206 163/647/206 162/551/206
f 162/648/207 371/649/207 349/650/207
f 59/130/208 121/167/208 106/128/208
f 347/176/209 276/651/209 278/652/209
f 376/653/210 291/654/210 374/655/210
f 90/656/211 369/657/211 126/658/211
f 291/659/212 156/660/212 318/661/212
f 291/654/213 375/662/213 374/655/213
f 318/663/214 324/664/214 326/665/214
f 344/666/34 113/667/34 77/668/34
f 101/643/30 58/669/30 57/641/30
f 318/663/215 379/235/215 375/585/215
f 324/664/216 346/161/216 326/665/216
f 379/235/217 346/161/217 368/233/217
f 356/670/1 102/671/1 359/672/1
f 65/673/30 103/674/30 102/642/30
f 359/672/1 103/675/1 354/676/1
f 344/677/1 363/131/1 364/678/1
f 276/651/218 291/679/218 278/652/218
f 64/680/30 104/681/30 103/674/30
f 347/682/219 376/653/219 369/683/219
f 354/676/1 104/109/1 367/111/1
f 343/193/33 98/684/33 75/685/33
f 342/186/30 97/686/30 58/669/30
f 345/117/30 95/687/30 78/688/30
f 344/180/33 94/689/33 60/129/33
f 88/690/220 351/175/220 93/691/220
f 349/173/34 100/692/34 86/552/34
f 348/170/34 99/693/34 91/694/34
f 92/246/30 371/695/30 128/696/30
f 346/161/31 96/697/31 89/698/31
f 342/699/31 108/700/31 72/701/31
f 104/681/30 62/702/30 105/115/30
f 28/703/1 381/704/1 27/705/1
f 24/706/221 384/707/221 383/708/221
f 15/709/1 383/708/1 385/710/1
f 23/711/1 386/712/1 22/713/1
f 21/714/222 386/712/222 388/715/222
f 21/714/223 389/716/223 20/717/223
f 20/718/224 390/719/224 19/720/224
f 17/721/1 390/722/1 391/723/1
f 15/709/1 392/724/1 308/725/1
f 18/726/1 387/727/1 23/711/1
f 17/728/225 394/729/225 273/730/225
f 16/731/226 380/732/226 28/703/226
f 133/733/227 396/734/227 281/735/227
f 133/736/228 398/737/228 397/738/228
f 340/433/229 407/739/229 232/431/229
f 399/740/230 415/741/230 340/742/230
f 273/743/231 400/744/231 135/745/231
f 18/746/232 396/734/232 393/747/232
f 134/748/233 392/749/233 398/750/233
f 16/751/234 399/740/234 395/752/234
f 27/753/235 382/754/235 26/755/235
f 25/756/236 382/757/236 384/707/236
f 409/758/237 403/759/237 402/760/237
f 412/761/238 407/762/238 415/631/238
f 408/763/239 404/764/239 412/761/239
f 423/765/240 429/766/240 430/767/240
f 422/768/241 405/769/241 421/770/241
f 408/771/242 436/615/242 413/772/242
f 421/770/1 406/621/1 420/620/1
f 428/773/243 421/770/243 427/774/243
f 426/775/1 425/776/1 409/777/1
f 430/778/1 440/779/1 431/780/1
f 426/775/244 422/781/244 428/782/244
f 409/783/1 401/784/1 422/785/1
f 423/786/245 431/787/245 424/788/245
f 401/789/246 413/790/246 410/791/246
f 403/759/247 423/765/247 404/764/247
f 405/792/248 410/793/248 411/794/248
f 429/766/249 434/795/249 430/767/249
f 432/796/1 421/797/1 420/798/1
f 419/799/250 415/631/250 442/630/250
f 429/766/1 433/800/1 435/801/1
f 433/626/251 428/782/251 437/632/251
f 437/802/1 427/774/1 438/803/1
f 406/804/1 411/794/1 414/805/1
f 427/806/1 441/807/1 438/808/1
f 407/762/252 423/765/252 424/809/252
f 403/759/253 413/810/253 402/760/253
f 416/625/254 412/811/254 419/623/254
f 410/812/255 436/615/255 417/602/255
f 411/813/256 439/814/256 414/815/256
f 410/816/257 418/817/257 411/818/257
f 239/1/1 238/11/1 69/2/1
f 77/4/2 45/83/2 91/5/2
f 53/7/2 74/137/2 75/8/2
f 237/10/1 68/16/1 69/2/1
f 43/12/2 73/114/2 81/13/2
f 236/15/1 67/98/1 68/16/1
f 230/17/258 381/21/258 380/18/258
f 229/20/259 382/819/259 381/21/259
f 384/22/260 382/819/260 229/20/260
f 383/24/261 384/22/261 228/23/261
f 218/26/262 385/820/262 383/24/262
f 225/27/263 386/821/263 387/28/263
f 388/30/264 386/821/264 225/27/264
f 389/32/265 388/30/265 224/31/265
f 243/34/266 390/822/266 389/32/266
f 391/35/267 390/822/267 243/34/267
f 341/37/268 392/587/268 385/38/268
f 387/28/269 393/823/269 221/40/269
f 306/41/270 394/559/270 391/42/270
f 231/19/271 380/18/271 395/44/271
f 41/46/272 170/434/272 171/47/272
f 131/49/18 132/537/18 187/50/18
f 236/52/273 242/436/273 175/53/273
f 31/55/274 207/824/274 208/56/274
f 173/58/275 241/438/275 240/59/275
f 32/61/276 33/64/276 13/62/276
f 33/64/23 34/441/23 12/65/23
f 12/65/24 34/441/24 35/66/24
f 11/67/277 35/66/277 36/68/277
f 179/70/278 37/443/278 9/71/278
f 9/73/27 37/825/27 38/74/27
f 38/74/279 39/446/279 7/76/279
f 7/76/280 39/446/280 40/77/280
f 6/78/29 40/77/29 41/79/29
f 288/81/2 53/7/2 48/9/2
f 45/83/2 47/86/2 284/84/2
f 47/86/2 56/88/2 285/87/2
f 56/88/2 55/153/2 286/89/2
f 286/89/2 55/153/2 54/90/2
f 287/91/2 54/90/2 53/7/2
f 174/92/1 85/154/1 289/93/1
f 52/14/2 81/13/2 71/95/2
f 236/15/1 176/187/1 66/97/1
f 46/99/2 92/182/2 317/100/2
f 50/102/2 51/96/2 71/95/2
f 49/104/2 50/102/2 80/103/2
f 174/92/1 240/143/1 59/106/1
f 49/104/2 79/105/2 78/108/2
f 104/109/1 105/121/1 366/110/1
f 72/112/2 108/826/2 109/113/2
f 105/115/30 62/702/30 61/116/30
f 75/118/31 111/827/31 358/119/31
f 105/121/1 345/828/1 365/122/1
f 84/123/2 76/158/2 112/124/2
f 84/123/2 120/125/2 119/126/2
f 106/128/281 344/180/281 60/129/281
f 363/131/1 106/829/1 121/132/1
f 83/127/2 119/126/2 118/134/2
f 82/135/2 118/134/2 110/136/2
f 53/7/2 54/90/2 82/135/2
f 5/138/1 171/575/1 61/139/1
f 61/139/1 171/575/1 86/141/1
f 240/143/1 239/1/1 70/3/1
f 54/90/2 55/153/2 83/127/2
f 5/138/1 62/140/1 63/144/1
f 9/146/1 57/157/1 58/147/1
f 178/148/1 87/181/1 324/149/1
f 6/145/1 63/144/1 64/151/1
f 56/88/2 84/123/2 83/127/2
f 60/107/1 94/830/1 85/154/1
f 47/86/2 76/158/2 84/123/2
f 8/155/1 7/152/1 64/151/1
f 43/12/2 44/574/2 72/112/2
f 9/146/1 8/155/1 65/156/1
f 45/83/2 77/4/2 76/158/2
f 87/159/31 97/831/31 350/160/31
f 277/162/2 90/177/2 126/163/2
f 70/165/33 69/832/33 122/166/33
f 85/168/34 94/833/34 352/169/34
f 92/171/34 95/834/34 353/172/34
f 90/174/31 98/835/31 351/175/31
f 75/8/2 98/836/2 90/177/2
f 77/178/33 99/837/33 352/179/33
f 48/9/2 90/177/2 277/162/2
f 58/147/1 97/838/1 87/181/1
f 78/108/2 95/839/2 92/182/2
f 61/116/30 100/840/30 353/183/30
f 72/184/30 96/841/30 350/185/30
f 176/187/1 88/544/1 93/188/1
f 72/112/2 44/574/2 89/189/2
f 66/191/33 93/842/33 351/192/33
f 360/194/33 118/201/33 119/195/33
f 359/197/30 117/203/30 109/198/30
f 357/200/33 110/207/33 118/201/33
f 354/202/30 107/217/30 117/203/30
f 356/199/30 109/198/30 108/204/30
f 358/206/36 111/843/36 110/207/36
f 362/208/33 361/196/33 119/195/33
f 362/208/37 120/209/37 112/210/37
f 365/212/30 114/844/30 115/213/30
f 366/214/30 115/213/30 116/215/30
f 367/216/30 116/215/30 107/217/30
f 363/211/38 112/210/38 113/218/38
f 77/4/2 113/845/2 112/124/2
f 362/133/1 121/132/1 122/220/1
f 79/105/2 115/225/2 114/222/2
f 122/166/33 69/832/33 68/223/33
f 80/103/2 116/226/2 115/225/2
f 71/95/2 107/230/2 116/226/2
f 78/227/34 114/846/34 365/228/34
f 81/13/2 117/231/2 107/230/2
f 73/114/2 109/113/2 117/231/2
f 74/137/2 110/136/2 111/232/2
f 368/233/282 125/847/282 327/234/282
f 370/236/40 127/848/40 292/237/40
f 122/220/1 123/849/1 360/239/1
f 68/223/33 67/251/33 124/240/33
f 91/241/33 127/850/33 370/242/33
f 317/100/2 92/182/2 128/244/2
f 89/246/30 125/851/30 368/247/30
f 360/239/1 123/849/1 124/249/1
f 67/251/36 66/191/36 343/193/36
f 124/249/1 343/852/1 358/252/1
f 158/253/2 166/257/2 292/254/2
f 159/256/2 167/582/2 166/257/2
f 165/258/283 289/260/283 85/168/283
f 164/259/284 154/853/284 289/260/284
f 372/261/43 167/265/43 319/262/43
f 373/264/34 166/554/34 167/265/34
f 374/266/44 169/270/44 279/267/44
f 374/266/285 375/585/285 168/269/285
f 323/271/2 142/275/2 160/272/2
f 143/274/2 161/277/2 160/272/2
f 160/272/2 168/278/2 327/276/2
f 161/277/2 169/555/2 168/278/2
f 272/279/1 177/283/1 157/280/1
f 183/282/1 156/586/1 157/280/1
f 283/85/2 140/284/2 158/253/2
f 140/284/2 141/303/2 159/256/2
f 307/285/1 172/289/1 155/286/1
f 182/288/1 154/556/1 155/286/1
f 151/290/2 153/294/2 315/291/2
f 151/290/2 150/557/2 152/293/2
f 149/295/2 151/290/2 314/292/2
f 148/297/2 150/557/2 151/290/2
f 312/298/2 147/300/2 149/295/2
f 146/299/2 148/297/2 149/295/2
f 311/301/2 145/302/2 147/300/2
f 145/302/2 144/304/2 146/299/2
f 310/101/2 141/303/2 145/302/2
f 141/303/2 140/284/2 144/304/2
f 153/294/2 142/275/2 323/271/2
f 152/293/2 143/274/2 142/275/2
f 330/305/286 131/49/286 189/51/286
f 30/307/287 4/854/287 206/308/287
f 129/310/47 130/571/47 204/311/47
f 2/313/288 203/855/288 332/314/288
f 396/316/289 397/856/289 234/317/289
f 234/317/290 397/856/290 398/319/290
f 29/321/291 2/569/291 171/322/291
f 328/324/292 130/348/292 172/325/292
f 30/327/293 173/435/293 174/328/293
f 31/330/294 3/857/294 176/331/294
f 293/333/295 132/352/295 177/334/295
f 42/336/296 179/437/296 178/337/296
f 294/339/297 137/356/297 180/340/297
f 329/342/298 139/359/298 181/343/298
f 4/329/299 174/328/299 280/345/299
f 129/347/59 182/539/59 172/325/59
f 1/338/300 178/337/300 320/349/300
f 131/351/61 183/568/61 177/334/61
f 29/321/301 170/323/301 322/353/301
f 136/355/302 184/432/302 180/340/302
f 31/330/303 175/332/303 282/357/303
f 139/359/304 138/538/304 185/360/304
f 303/361/305 302/416/305 196/362/305
f 338/364/306 337/419/306 201/365/306
f 301/367/307 304/428/307 217/368/307
f 217/368/308 213/429/308 215/370/308
f 336/371/309 339/426/309 216/372/309
f 191/373/310 216/372/310 212/374/310
f 3/376/311 208/858/311 297/377/311
f 331/379/312 136/859/312 190/380/312
f 42/382/313 1/860/313 210/383/313
f 136/385/314 137/861/314 192/386/314
f 30/388/315 205/862/315 298/389/315
f 296/391/316 138/401/316 186/392/316
f 42/394/317 211/863/317 333/395/317
f 29/397/318 202/864/318 203/398/318
f 139/400/319 188/565/319 186/392/319
f 295/402/320 129/310/320 214/312/320
f 194/404/321 195/564/321 203/405/321
f 336/371/322 191/373/322 204/407/322
f 196/362/323 205/529/323 206/409/323
f 198/410/324 199/530/324 208/411/324
f 301/367/325 209/369/325 187/413/325
f 201/365/326 211/563/326 210/415/326
f 302/416/327 212/374/327 192/417/327
f 337/419/328 213/429/328 188/420/328
f 197/363/329 206/409/329 299/422/329
f 191/373/91 193/375/91 214/423/91
f 200/366/330 210/415/330 334/424/330
f 215/370/93 189/562/93 187/413/93
f 194/404/331 202/406/331 335/425/331
f 216/372/332 190/561/332 192/417/332
f 198/410/333 207/412/333 300/427/333
f 213/429/334 217/368/334 186/430/334
f 234/317/31 235/320/31 181/343/31
f 305/318/335 234/317/335 185/360/335
f 232/431/34 233/558/34 180/340/34
f 340/433/336 232/431/336 184/432/336
f 231/19/337 219/45/337 170/434/337
f 274/341/338 306/41/338 220/43/338
f 244/29/339 221/40/339 175/53/339
f 309/344/340 341/37/340 218/39/340
f 220/36/341 243/34/341 241/438/341
f 32/61/342 222/865/342 245/439/342
f 33/64/343 245/439/343 246/440/343
f 246/440/344 247/866/344 35/66/344
f 35/66/345 247/866/345 226/442/345
f 179/70/346 218/26/346 227/25/346
f 37/443/347 227/25/347 228/23/347
f 228/445/348 229/867/348 39/446/348
f 39/447/349 229/20/349 230/17/349
f 40/448/350 230/17/350 231/19/350
f 226/449/351 247/461/351 271/450/351
f 14/452/2 13/462/2 263/453/2
f 237/455/1 238/503/1 250/456/1
f 242/436/352 236/52/352 248/458/352
f 246/460/353 270/467/353 271/450/353
f 13/462/2 12/473/2 262/463/2
f 236/464/1 237/455/1 249/457/1
f 245/466/354 269/868/354 270/467/354
f 244/29/355 256/512/355 259/468/355
f 241/469/356 243/869/356 255/470/356
f 11/472/2 261/526/2 262/463/2
f 222/474/357 267/494/357 269/475/357
f 260/477/358 248/489/358 249/478/358
f 261/479/123 249/478/123 250/480/123
f 262/481/124 250/480/124 251/482/124
f 264/484/359 263/483/359 251/482/359
f 264/484/360 252/485/360 253/486/360
f 260/477/361 266/493/361 254/488/361
f 267/490/362 265/487/362 253/486/362
f 268/492/363 256/501/363 254/488/363
f 267/494/364 255/870/364 257/495/364
f 269/496/365 257/514/365 258/497/365
f 271/499/366 270/498/366 258/497/366
f 268/492/367 271/499/367 259/500/367
f 239/502/1 251/508/1 250/456/1
f 14/504/368 264/871/368 265/505/368
f 240/507/117 252/872/117 251/508/117
f 10/509/369 36/523/369 266/510/369
f 244/29/370 242/436/370 254/459/370
f 243/513/371 223/873/371 257/514/371
f 222/515/372 32/506/372 265/505/372
f 240/517/373 241/874/373 253/518/373
f 223/520/374 224/875/374 258/521/374
f 36/523/375 226/876/375 268/524/375
f 10/525/114 260/877/114 261/526/114
f 224/31/376 225/27/376 259/468/376
f 180/340/377 233/558/377 306/41/377
f 221/528/378 305/318/378 282/357/378
f 304/428/379 300/427/379 186/430/379
f 303/361/380 299/422/380 214/423/380
f 302/416/381 298/418/381 205/529/381
f 199/530/382 301/367/382 297/414/382
f 4/531/383 295/402/383 299/403/383
f 31/533/384 296/391/384 300/393/384
f 294/390/385 298/389/385 192/535/385
f 293/378/386 297/377/386 187/50/386
f 198/410/387 304/428/387 301/367/387
f 212/374/388 302/416/388 303/361/388
f 296/358/389 282/357/389 185/360/389
f 295/346/390 280/345/390 182/539/390
f 30/327/391 294/339/391 274/341/391
f 3/540/392 293/878/392 272/541/392
f 393/543/393 396/316/393 305/318/393
f 45/83/2 283/85/2 290/255/2
f 176/187/1 272/279/1 276/281/1
f 376/268/44 279/267/44 126/545/44
f 155/547/160 154/879/160 164/548/160
f 290/255/2 292/254/2 127/550/2
f 162/551/34 349/173/34 86/552/34
f 377/238/40 292/237/40 166/554/40
f 275/82/2 277/162/2 161/277/2
f 161/277/2 277/162/2 279/164/2
f 280/94/1 289/93/1 154/556/1
f 150/557/2 287/91/2 288/81/2
f 148/297/2 286/89/2 287/91/2
f 285/87/2 286/89/2 148/297/2
f 284/84/2 285/87/2 146/299/2
f 283/85/2 284/84/2 144/304/2
f 152/293/2 288/81/2 275/82/2
f 233/558/394 400/880/394 394/559/394
f 181/343/183 235/320/183 341/37/183
f 219/560/395 340/433/395 322/353/395
f 339/426/396 335/425/396 190/561/396
f 338/364/397 334/424/397 189/562/397
f 201/365/398 337/419/398 333/421/398
f 195/564/399 336/371/399 332/408/399
f 329/396/400 333/395/400 188/565/400
f 29/566/401 331/379/401 335/381/401
f 194/404/309 339/426/309 336/371/309
f 213/429/306 337/419/306 338/364/306
f 331/354/402 322/353/402 184/432/402
f 330/350/403 320/349/403 183/568/403
f 42/336/404 329/342/404 309/344/404
f 2/569/405 328/324/405 307/326/405
f 219/560/406 395/881/406 399/570/406
f 328/315/407 332/314/407 204/311/407
f 1/572/408 330/305/408 334/306/408
f 315/291/2 323/271/2 44/574/2
f 46/99/2 310/101/2 311/301/2
f 49/104/2 311/301/2 312/298/2
f 50/102/2 312/298/2 313/296/2
f 313/296/2 314/292/2 52/14/2
f 314/292/2 315/291/2 43/12/2
f 171/575/1 307/285/1 316/287/1
f 325/273/2 327/276/2 125/576/2
f 44/574/2 323/271/2 325/273/2
f 378/263/43 319/262/43 128/577/43
f 378/579/409 162/648/409 163/580/409
f 159/256/2 317/100/2 319/245/2
f 372/581/181 163/580/181 164/583/181
f 375/585/182 379/235/182 327/234/182
f 320/150/1 324/149/1 156/586/1
f 310/101/2 317/100/2 159/256/2
f 235/320/410 398/319/410 392/587/410
f 17/588/184 273/600/184 431/589/184
f 18/591/185 441/882/185 432/592/185
f 24/594/411 15/883/411 439/595/411
f 23/597/187 438/637/187 441/598/187
f 273/600/412 135/884/412 424/601/412
f 24/594/413 418/596/413 417/602/413
f 308/604/190 414/636/190 439/605/190
f 233/607/414 424/614/414 135/608/414
f 17/610/192 440/885/192 434/611/192
f 233/607/415 232/886/415 407/613/415
f 25/603/416 417/602/416 436/615/416
f 20/617/417 19/612/417 434/611/417
f 134/619/418 133/628/418 420/620/418
f 27/622/419 416/625/419 419/623/419
f 27/622/420 26/616/420 436/615/420
f 20/617/421 435/618/421 433/626/421
f 281/593/185 432/592/185 420/620/185
f 321/629/422 16/887/422 442/630/422
f 21/627/423 433/626/423 437/632/423
f 28/624/202 419/623/202 442/634/202
f 308/604/424 134/619/424 406/621/424
f 22/633/203 437/632/203 438/637/203
f 164/583/425 165/639/425 377/638/425
f 165/639/207 348/888/207 370/640/207
f 57/641/30 65/673/30 102/642/30
f 101/644/1 356/670/1 355/645/1
f 316/553/426 155/889/426 163/647/426
f 162/648/427 378/579/427 371/649/427
f 59/130/428 70/165/428 121/167/428
f 347/176/429 88/690/429 276/651/429
f 376/653/430 278/890/430 291/654/430
f 90/656/431 347/891/431 369/657/431
f 291/659/432 157/892/432 156/660/432
f 291/654/433 318/893/433 375/662/433
f 318/663/434 156/894/434 324/664/434
f 344/666/34 364/895/34 113/667/34
f 101/643/30 342/186/30 58/669/30
f 318/663/435 326/665/435 379/235/435
f 324/664/436 87/159/436 346/161/436
f 379/235/437 326/665/437 346/161/437
f 356/670/1 101/644/1 102/671/1
f 65/673/30 64/680/30 103/674/30
f 359/672/1 102/671/1 103/675/1
f 344/677/1 106/829/1 363/131/1
f 276/651/438 157/896/438 291/679/438
f 64/680/30 63/897/30 104/681/30
f 347/682/439 278/890/439 376/653/439
f 354/676/1 103/675/1 104/109/1
f 343/193/33 351/192/33 98/684/33
f 342/186/30 350/185/30 97/686/30
f 345/117/30 353/183/30 95/687/30
f 344/180/33 352/179/33 94/689/33
f 88/690/440 347/176/440 351/175/440
f 349/173/34 353/172/34 100/692/34
f 348/170/34 352/169/34 99/693/34
f 92/246/30 349/898/30 371/695/30
f 346/161/31 350/160/31 96/697/31
f 342/699/31 355/899/31 108/700/31
f 104/681/30 63/897/30 62/702/30
f 28/703/441 380/732/441 381/704/441
f 24/706/442 25/756/442 384/707/442
f 15/709/1 24/706/1 383/708/1
f 23/711/1 387/727/1 386/712/1
f 21/714/443 22/713/443 386/712/443
f 21/714/444 388/715/444 389/716/444
f 20/718/445 389/900/445 390/719/445
f 17/721/1 19/901/1 390/722/1
f 15/709/1 385/710/1 392/724/1
f 18/726/1 393/902/1 387/727/1
f 17/728/446 391/903/446 394/729/446
f 16/731/447 395/904/447 380/732/447
f 133/733/448 397/905/448 396/734/448
f 133/736/449 134/906/449 398/737/449
f 340/433/450 415/907/450 407/739/450
f 399/740/451 321/908/451 415/741/451
f 273/743/452 394/909/452 400/744/452
f 18/746/453 281/735/453 396/734/453
f 134/748/454 308/910/454 392/749/454
f 16/751/455 321/908/455 399/740/455
f 27/753/456 381/911/456 382/754/456
f 25/756/457 26/912/457 382/757/457
f 409/758/458 425/913/458 403/759/458
f 412/761/459 404/764/459 407/762/459
f 408/763/460 403/759/460 404/764/460
f 423/765/461 425/913/461 429/766/461
f 422/768/1 401/914/1 405/769/1
f 408/771/462 416/625/462 436/615/462
f 421/770/463 405/769/463 406/621/463
f 428/773/464 422/768/464 421/770/464
f 426/775/465 429/915/465 425/776/465
f 430/778/1 434/916/1 440/779/1
f 426/775/1 409/777/1 422/781/1
f 409/783/466 402/917/466 401/784/466
f 423/786/1 430/918/1 431/787/1
f 401/789/246 402/919/246 413/790/246
f 403/759/467 425/913/467 423/765/467
f 405/792/1 401/920/1 410/793/1
f 429/766/468 435/801/468 434/795/468
f 432/796/1 427/806/1 421/797/1
f 419/799/469 412/761/469 415/631/469
f 429/766/470 426/921/470 433/800/470
f 433/626/471 426/775/471 428/782/471
f 437/802/472 428/773/472 427/774/472
f 406/804/473 405/792/473 411/794/473
f 427/806/1 432/796/1 441/807/1
f 407/762/459 404/764/459 423/765/459
f 403/759/474 408/763/474 413/810/474
f 416/625/475 408/771/475 412/811/475
f 410/812/476 413/772/476 436/615/476
f 411/813/477 418/922/477 439/814/477
f 410/816/478 417/923/478 418/817/478
