# Blender 4.2.1 LTS
# www.blender.org
mtllib gas_station_column_A.mtl
g gas_station_column_A_Mesh
v 0.131401 1.395486 0.117224
v -0.130293 1.395486 0.118115
v -0.129866 1.376601 -0.118609
v 0.130907 1.395486 -0.117648
v 0.188635 0.000000 0.181624
v -0.190894 0.000000 0.181624
v -0.190894 0.000000 -0.180953
v 0.188635 0.000000 -0.180953
v -0.173474 1.395486 0.000336
v 0.184145 1.395486 0.000335
v -0.257360 0.000000 0.000336
v 0.270438 0.000000 0.000335
v -0.000994 1.376601 0.152923
v -0.000995 1.395486 -0.156771
v -0.000977 -0.000000 0.232751
v -0.000977 -0.000000 -0.237193
v -0.000977 -0.000000 0.000336
v 0.188635 1.079334 0.181624
v 0.188635 1.079334 -0.180953
v -0.190894 1.079334 -0.180953
v -0.190894 1.079334 0.181624
v -0.257360 1.079334 0.000336
v 0.270438 1.079334 0.000335
v -0.000977 1.079333 0.232751
v -0.000977 1.079333 -0.237193
v -0.000951 -0.000000 0.353442
v -0.275256 0.000000 0.270033
v -0.381287 0.000000 0.000336
v 0.394364 0.000000 0.000335
v 0.270926 0.000000 -0.271195
v -0.000948 -0.000000 -0.357884
v -0.276406 0.000000 -0.268308
v 0.269736 0.873290 0.272881
v 0.269736 0.000000 0.272881
v -0.275256 0.873290 0.270033
v -0.381287 0.873290 0.000336
v 0.394364 0.873290 0.000335
v -0.000951 0.873289 0.353442
v -0.000948 0.873289 -0.357884
v 0.270926 0.873290 -0.271195
v -0.276406 0.873290 -0.268308
v -0.324696 0.931071 0.000315
v -0.332706 0.917751 0.000316
v -0.242852 0.917732 -0.234111
v -0.237320 0.931056 -0.228464
v -0.293714 0.982582 0.000320
v -0.301724 0.969263 0.000321
v -0.221486 0.969242 -0.212262
v -0.215954 0.982567 -0.206614
v -0.262732 1.034094 0.000327
v -0.270741 1.020775 0.000328
v -0.200122 1.020752 -0.190411
v -0.194591 1.034077 -0.184763
v -0.000903 0.931072 0.298328
v -0.000904 0.917755 0.306129
v -0.242131 0.917731 0.235443
v -0.236671 0.931055 0.229729
v -0.000925 0.982584 0.268155
v -0.000925 0.969267 0.275955
v -0.221059 0.969240 0.213325
v -0.215600 0.982565 0.207610
v -0.000951 1.034096 0.237982
v -0.000950 1.020779 0.245781
v -0.199990 1.020749 0.191204
v -0.194532 1.034075 0.185488
v -0.000904 0.931070 -0.302771
v -0.000904 0.917753 -0.310571
v 0.238558 0.917738 -0.235926
v 0.233231 0.931061 -0.230097
v -0.000926 0.982582 -0.272598
v -0.000926 0.969264 -0.280398
v 0.218017 0.969248 -0.213339
v 0.212690 0.982571 -0.207507
v -0.000952 1.034094 -0.242425
v -0.000951 1.020776 -0.250225
v 0.197481 1.020758 -0.190745
v 0.192158 1.034081 -0.184913
v 0.337776 0.931066 0.000316
v 0.345789 0.917744 0.000317
v 0.237811 0.917736 0.237233
v 0.232559 0.931059 0.231339
v 0.306795 0.982577 0.000320
v 0.314808 0.969255 0.000321
v 0.217574 0.969246 0.214387
v 0.212324 0.982570 0.208491
v 0.275813 1.034088 0.000327
v 0.283826 1.020766 0.000327
v 0.197344 1.020756 0.191534
v 0.192097 1.034080 0.185636
v -0.000968 1.010014 -0.271266
v -0.000970 1.044436 -0.263465
v -0.000961 0.958503 -0.301439
v -0.000963 0.992925 -0.293638
v -0.000954 0.906992 -0.331611
v -0.000957 0.941414 -0.323811
v -0.252263 0.941418 -0.243645
v -0.257793 0.906989 -0.249294
v -0.230886 0.992929 -0.221806
v -0.236415 0.958500 -0.227455
v -0.209507 1.044440 -0.199967
v -0.215037 1.010010 -0.205616
v -0.000969 1.010014 0.266824
v -0.000971 1.044436 0.259024
v -0.000962 0.958503 0.296997
v -0.000964 0.992925 0.289197
v -0.000957 0.906992 0.327169
v -0.000957 0.941414 0.319369
v 0.246839 0.941418 0.247116
v 0.252083 0.906989 0.253017
v 0.226563 0.992929 0.224302
v 0.231808 0.958500 0.230203
v 0.206288 1.044440 0.201488
v 0.211533 1.010011 0.207388
v 0.305426 1.010012 0.000335
v 0.297413 1.044439 0.000335
v 0.336408 0.958501 0.000335
v 0.328395 0.992928 0.000335
v 0.367389 0.906989 0.000335
v 0.359377 0.941417 0.000335
v 0.247692 0.941418 -0.245717
v 0.253014 0.906989 -0.251552
v 0.227119 0.992929 -0.223156
v 0.232441 0.958501 -0.228991
v 0.206547 1.044439 -0.200596
v 0.211867 1.010011 -0.206431
v -0.292347 1.010013 0.000336
v -0.284336 1.044437 0.000336
v -0.323329 0.958502 0.000336
v -0.315317 0.992927 0.000336
v -0.354311 0.906991 0.000336
v -0.346299 0.941416 0.000336
v -0.251438 0.941418 0.245072
v -0.256893 0.906989 0.250789
v -0.230348 0.992930 0.222970
v -0.235803 0.958499 0.228687
v -0.209257 1.044441 0.200867
v -0.214713 1.010010 0.206585
v -0.000977 1.478635 0.200375
v -0.190894 1.478635 0.181624
v -0.257360 1.395486 0.000336
v 0.237620 1.444932 0.027951
v 0.163673 1.395486 -0.180953
v -0.000977 1.611853 -0.237193
v -0.165933 1.395486 -0.180953
v 0.188635 1.395486 0.181624
v -0.000989 1.467398 0.174612
v -0.146758 1.467398 0.135370
v -0.196265 1.444806 0.000336
v 0.146592 1.444806 -0.134848
v 0.198674 1.458241 0.007838
v -0.146447 1.444806 -0.135548
v -0.045874 1.496266 -0.147068
v 0.146952 1.444806 0.134721
vn -0.7474 0.5982 -0.2890
vn -0.0000 -1.0000 -0.0000
vn -0.2839 0.0224 -0.9586
vn 0.2603 -0.0000 0.9655
vn 0.9091 0.0718 -0.4102
vn -0.9389 -0.0000 0.3442
vn -0.9389 -0.0000 -0.3442
vn -0.2592 0.0781 0.9627
vn 0.3232 -0.0000 -0.9463
vn 0.9452 0.0606 0.3208
vn 0.9094 -0.0000 0.4159
vn 0.3038 -0.0000 -0.9527
vn -0.2909 -0.0000 0.9567
vn -0.9315 -0.0000 -0.3637
vn -0.9307 -0.0000 0.3659
vn 0.9103 -0.0000 -0.4138
vn 0.2853 -0.0000 0.9585
vn -0.3092 -0.0000 -0.9510
vn 0.7352 0.5885 0.3362
vn -0.7722 0.5658 0.2891
vn -0.5819 0.7823 -0.2220
vn 0.2321 0.5813 0.7799
vn -0.2525 0.5775 -0.7764
vn 0.5758 0.7742 0.2626
vn -0.2412 0.5604 -0.7923
vn 0.7469 0.5731 -0.3370
vn 0.7448 0.5757 0.3374
vn 0.5760 0.7744 0.2619
vn -0.1927 0.7633 -0.6167
vn -0.1960 0.7642 -0.6145
vn 0.2413 0.5967 -0.7654
vn 0.1761 0.7665 0.6176
vn 0.1795 0.7674 0.6156
vn -0.2291 0.5984 0.7677
vn 0.2208 0.5645 0.7954
vn -0.7598 0.5874 -0.2786
vn -0.5824 0.7829 -0.2186
vn -0.5989 0.7675 0.2286
vn -0.5969 0.7683 0.2313
vn -0.7567 0.5822 0.2975
vn 0.5784 0.7726 -0.2617
vn 0.5781 0.7727 -0.2621
vn 0.7372 0.5869 -0.3347
vn -0.2103 0.5880 0.7811
vn -0.1686 0.7833 0.5983
vn -0.1739 0.7826 0.5978
vn 0.2306 0.5853 -0.7774
vn 0.1818 0.7815 -0.5969
vn 0.1852 0.7810 -0.5965
vn -0.4263 -0.8898 -0.1627
vn -0.4517 0.8749 -0.1746
vn -0.4264 -0.8903 -0.1602
vn -0.4532 0.8744 -0.1729
vn -0.4265 -0.8908 -0.1569
vn -0.4552 0.8739 -0.1709
vn -0.1272 -0.8903 0.4373
vn -0.1412 0.8697 0.4730
vn -0.1233 -0.8907 0.4375
vn -0.1382 0.8691 0.4750
vn -0.1186 -0.8912 0.4378
vn -0.1346 0.8683 0.4775
vn 0.1357 -0.8890 -0.4374
vn 0.8015 0.4759 0.3621
vn 0.8007 0.4763 0.3634
vn 0.8001 0.4766 0.3644
vn 0.2533 0.4711 -0.8449
vn 0.2582 0.4721 -0.8429
vn 0.2622 0.4729 -0.8412
vn -0.2345 0.4628 0.8549
vn -0.2424 0.4646 0.8517
vn -0.2488 0.4661 0.8490
vn -0.8264 0.4727 -0.3060
vn -0.8238 0.4739 -0.3110
vn -0.8218 0.4747 -0.3150
vn -0.8172 0.4915 0.3011
vn -0.8155 0.4905 0.3073
vn -0.8141 0.4896 0.3124
vn 0.7991 0.4806 -0.3611
vn 0.7989 0.4805 -0.3619
vn 0.7987 0.4803 -0.3625
vn 0.2279 0.4921 0.8402
vn 0.2347 0.4913 0.8388
vn 0.2404 0.4906 0.8376
vn -0.2489 0.4895 -0.8357
vn -0.2560 0.4886 -0.8341
vn -0.2618 0.4878 -0.8328
vn -0.4398 0.8831 0.1632
vn -0.4452 -0.8798 0.1667
vn -0.4395 0.8827 0.1665
vn -0.4428 -0.8805 0.1690
vn -0.4393 0.8823 0.1693
vn 0.4404 0.8754 0.1992
vn -0.4408 -0.8812 0.1709
vn 0.4370 0.8775 -0.1977
vn 0.4240 -0.8850 0.1921
vn 0.4264 -0.8838 -0.1925
vn 0.4370 0.8774 -0.1981
vn 0.4394 0.8758 0.1996
vn 0.4256 -0.8841 -0.1927
vn 0.4370 0.8773 -0.1984
vn 0.4240 -0.8849 0.1928
vn 0.4251 -0.8844 -0.1928
vn 0.1238 0.8834 0.4520
vn 0.4386 0.8762 0.1999
vn 0.1277 -0.8787 0.4599
vn 0.1274 0.8829 0.4519
vn 0.4239 -0.8849 0.1933
vn 0.1307 -0.8792 0.4583
vn 0.1305 0.8825 0.4518
vn 0.1424 0.8726 -0.4673
vn 0.1332 -0.8795 0.4568
vn -0.1356 0.8821 -0.4511
vn 0.1302 -0.8898 -0.4375
vn -0.1401 -0.8767 -0.4601
vn -0.1393 0.8817 -0.4507
vn 0.1447 0.8729 -0.4660
vn -0.1431 -0.8774 -0.4579
vn -0.1424 0.8814 -0.4504
vn 0.1332 -0.8893 -0.4374
vn -0.1455 -0.8780 -0.4561
vn 0.1466 0.8731 -0.4650
vn 0.1597 0.9854 -0.0585
vn -0.0000 1.0000 -0.0000
vn -0.1272 0.9900 0.0604
vn 0.1070 0.9113 -0.3975
vn -0.1500 0.9184 -0.3662
vn 0.7541 0.5685 -0.3288
vn -0.4235 0.6984 -0.5769
vn -0.6121 0.7582 -0.2244
vn 0.2264 0.9547 0.1934
vn 0.3920 0.7860 0.4782
vn 0.1056 0.5856 0.8037
vn -0.0998 -0.1393 0.9852
vn -0.1862 0.3801 -0.9060
vn -0.8821 0.2518 -0.3980
vn 0.8613 0.3980 0.3158
vn -0.0108 0.2385 0.9711
vn -0.8364 0.3976 0.3774
vn 0.8815 0.2911 -0.3719
vn 0.2836 0.2228 -0.9327
vn -0.7561 0.5841 -0.2952
vn -0.3227 -0.0000 -0.9465
vn 0.1328 0.0801 0.9879
vn 0.9285 0.1101 -0.3547
vn -0.8907 0.0703 -0.4492
vn -0.0983 -0.0000 0.9952
vn 0.2843 0.0224 -0.9585
vn 0.9115 -0.0000 0.4113
vn 0.7379 0.5850 0.3367
vn -0.7598 0.5874 0.2786
vn -0.5954 0.7699 -0.2295
vn 0.2252 0.5990 0.7684
vn -0.2451 0.5960 -0.7646
vn 0.5796 0.7711 0.2637
vn -0.2302 0.5853 -0.7775
vn 0.7449 0.5759 -0.3369
vn 0.7484 0.5709 0.3377
vn 0.5801 0.7709 0.2631
vn -0.1830 0.7813 -0.5968
vn -0.1874 0.7806 -0.5963
vn 0.2469 0.5826 -0.7744
vn 0.1674 0.7835 0.5984
vn 0.1716 0.7829 0.5980
vn -0.2378 0.5761 0.7820
vn 0.2106 0.5880 0.7810
vn -0.7709 0.5681 -0.2880
vn -0.5972 0.7693 -0.2270
vn -0.5823 0.7828 0.2192
vn -0.5818 0.7822 0.2230
vn -0.7470 0.5979 0.2906
vn 0.5761 0.7746 -0.2611
vn 0.5760 0.7745 -0.2615
vn 0.7357 0.5889 -0.3345
vn -0.2231 0.5582 0.7992
vn -0.1797 0.7617 0.6225
vn -0.1838 0.7629 0.6199
vn 0.2389 0.5666 -0.7886
vn 0.1891 0.7680 -0.6119
vn 0.1917 0.7686 -0.6103
vn -0.4395 -0.8821 -0.1694
vn -0.4396 0.8823 -0.1686
vn -0.4412 -0.8816 -0.1677
vn -0.4397 0.8826 -0.1661
vn -0.4433 -0.8810 -0.1656
vn -0.4399 0.8831 -0.1630
vn -0.1367 -0.8769 0.4608
vn -0.1323 0.8826 0.4511
vn -0.1337 -0.8763 0.4629
vn -0.1285 0.8830 0.4515
vn -0.1300 -0.8754 0.4656
vn -0.1240 0.8834 0.4519
vn 0.1421 -0.8805 -0.4523
vn 0.7990 0.4806 0.3614
vn 0.7986 0.4803 0.3627
vn 0.7982 0.4801 0.3638
vn 0.2489 0.4895 -0.8357
vn 0.2543 0.4888 -0.8345
vn 0.2587 0.4882 -0.8335
vn -0.2279 0.4921 0.8402
vn -0.2365 0.4911 0.8384
vn -0.2435 0.4902 0.8369
vn -0.8173 0.4915 -0.3009
vn -0.8157 0.4906 -0.3066
vn -0.8144 0.4898 -0.3111
vn -0.8274 0.4705 0.3067
vn -0.8246 0.4717 0.3123
vn -0.8223 0.4728 0.3168
vn 0.8005 0.4781 -0.3615
vn 0.8000 0.4784 -0.3622
vn 0.7996 0.4785 -0.3628
vn 0.2331 0.4689 0.8519
vn 0.2394 0.4702 0.8495
vn 0.2446 0.4713 0.8474
vn -0.2547 0.4651 -0.8478
vn -0.2611 0.4666 -0.8451
vn -0.2664 0.4677 -0.8428
vn -0.4569 0.8727 0.1720
vn -0.4264 -0.8908 0.1570
vn -0.4547 0.8734 0.1743
vn -0.4262 -0.8903 0.1605
vn -0.4529 0.8740 0.1762
vn 0.4368 0.8775 0.1981
vn -0.4260 -0.8899 0.1634
vn 0.4386 0.8765 -0.1983
vn 0.4283 -0.8827 0.1934
vn 0.4242 -0.8850 -0.1918
vn 0.4380 0.8768 -0.1984
vn 0.4367 0.8774 0.1987
vn 0.4242 -0.8849 -0.1922
vn 0.4374 0.8770 -0.1986
vn 0.4272 -0.8831 0.1938
vn 0.4242 -0.8849 -0.1925
vn 0.1321 0.8714 0.4724
vn 0.4366 0.8773 0.1992
vn 0.1187 -0.8911 0.4380
vn 0.1351 0.8718 0.4708
vn 0.4264 -0.8835 0.1942
vn 0.1225 -0.8906 0.4379
vn 0.1376 0.8722 0.4694
vn 0.1354 0.8820 -0.4513
vn 0.1256 -0.8902 0.4379
vn -0.1448 0.8695 -0.4722
vn 0.1378 -0.8799 -0.4547
vn -0.1301 -0.8899 -0.4373
vn -0.1477 0.8702 -0.4701
vn 0.1383 0.8817 -0.4512
vn -0.1340 -0.8894 -0.4370
vn -0.1501 0.8707 -0.4684
vn 0.1401 -0.8802 -0.4534
vn -0.1372 -0.8891 -0.4368
vn 0.1407 0.8813 -0.4511
vn 0.1847 0.9789 -0.0877
vn -0.1250 0.9903 0.0604
vn 0.0214 0.9760 -0.2167
vn -0.6250 0.7742 0.0996
vn 0.4614 0.8127 -0.3557
vn -0.6430 0.6104 0.4626
vn -0.7084 0.6087 -0.3572
vn 0.4734 0.7833 0.4029
vn 0.0321 0.9161 -0.3996
vn 0.7980 0.5353 -0.2770
vn -0.2617 0.3910 0.8824
vn -0.2833 0.2228 -0.9328
vn -0.8682 0.3849 -0.3132
vn 0.9118 0.2931 0.2877
vn 0.2795 0.0321 0.9596
vn -0.9298 0.1767 0.3228
vn 0.8613 0.3980 -0.3158
vn 0.2496 0.2796 -0.9271
vt 0.565349 0.380487
vt 0.565349 0.387766
vt 0.571666 0.387766
vt 0.577983 0.395044
vt 0.571666 0.395044
vt 0.565349 0.380487
vt 0.571666 0.380487
vt 0.577983 0.387765
vt 0.577983 0.380487
vt 0.565349 0.395044
vt 0.437458 0.387463
vt 0.443774 0.387463
vt 0.437458 0.387463
vt 0.450091 0.402020
vt 0.443775 0.402020
vt 0.450091 0.387463
vt 0.450091 0.394741
vt 0.437458 0.394741
vt 0.437458 0.402020
vt 0.437458 0.402020
vt 0.443775 0.387463
vt 0.450091 0.394741
vt 0.579533 0.382642
vt 0.579533 0.375364
vt 0.579533 0.375364
vt 0.571666 0.380487
vt 0.571666 0.395044
vt 0.565349 0.380487
vt 0.565349 0.395044
vt 0.577983 0.387765
vt 0.573216 0.382642
vt 0.577983 0.387765
vt 0.437458 0.394741
vt 0.450091 0.394741
vt 0.450091 0.394741
vt 0.437458 0.387463
vt 0.450091 0.402020
vt 0.450091 0.394741
vt 0.443774 0.387463
vt 0.437458 0.387463
vt 0.571666 0.380487
vt 0.450091 0.402020
vt 0.565349 0.395044
vt 0.443775 0.402020
vt 0.437458 0.402020
vt 0.437458 0.402020
vt 0.437458 0.402020
vt 0.450091 0.387463
vt 0.450091 0.387463
vt 0.450091 0.387463
vt 0.577983 0.380487
vt 0.437458 0.402020
vt 0.565349 0.395044
vt 0.571666 0.395044
vt 0.450091 0.387463
vt 0.577983 0.395044
vt 0.577983 0.380487
vt 0.577983 0.380487
vt 0.565349 0.395044
vt 0.565349 0.387765
vt 0.577983 0.380487
vt 0.571666 0.395044
vt 0.577983 0.395044
vt 0.571666 0.380487
vt 0.577983 0.387765
vt 0.443775 0.399527
vt 0.438756 0.394320
vt 0.439735 0.398730
vt 0.448185 0.399543
vt 0.447855 0.390804
vt 0.443916 0.390641
vt 0.439114 0.389428
vt 0.439116 0.399624
vt 0.443775 0.400204
vt 0.449268 0.395036
vt 0.448513 0.389840
vt 0.443878 0.389778
vt 0.438664 0.388894
vt 0.438403 0.394434
vt 0.448703 0.400216
vt 0.448961 0.395145
vt 0.573216 0.382642
vt 0.443774 0.387463
vt 0.443774 0.387463
vt 0.443774 0.402020
s 0
usemtl Material
f 97/1/1 36/2/1 130/2/1
f 17/3/2 5/4/2 15/5/2
f 7/6/2 31/7/2 16/7/2
f 12/8/2 30/9/2 29/8/2
f 12/8/2 34/4/2 5/4/2
f 6/10/2 28/2/2 11/2/2
f 8/9/2 17/3/2 16/7/2
f 7/6/2 17/3/2 11/2/2
f 7/6/2 28/2/2 32/6/2
f 17/3/2 6/10/2 11/2/2
f 144/11/3 25/12/3 20/13/3
f 145/14/4 24/15/4 18/14/4
f 142/16/5 23/17/5 19/16/5
f 140/18/6 21/19/6 139/20/6
f 140/18/7 20/13/7 22/18/7
f 138/15/8 21/19/8 24/15/8
f 142/16/9 25/12/9 143/21/9
f 145/14/10 23/17/10 141/22/10
f 33/23/11 29/24/11 37/25/11
f 39/26/12 30/9/12 31/7/12
f 38/27/13 27/10/13 26/5/13
f 41/28/14 28/2/14 36/2/14
f 35/29/15 28/2/15 27/10/15
f 37/30/16 30/9/16 40/9/16
f 38/31/17 34/23/17 33/23/17
f 39/26/18 32/6/18 41/28/18
f 118/32/19 33/4/19 37/30/19
f 21/19/20 127/18/20 136/19/20
f 99/13/21 131/33/21 128/18/21
f 5/4/2 26/5/2 15/5/2
f 109/4/22 38/27/22 33/4/22
f 97/1/23 39/26/23 41/28/23
f 116/34/24 108/14/24 119/35/24
f 8/9/2 31/7/2 30/9/2
f 6/10/2 26/5/2 27/10/2
f 20/13/25 91/12/25 100/36/25
f 23/17/26 124/16/26 19/16/26
f 23/17/27 112/37/27 115/38/27
f 114/17/28 110/37/28 117/17/28
f 101/13/29 93/39/29 98/36/29
f 99/13/30 95/39/30 96/40/30
f 121/9/31 39/26/31 94/41/31
f 113/37/32 105/15/32 110/42/32
f 111/42/33 107/15/33 108/14/33
f 133/43/34 38/27/34 106/27/34
f 18/14/35 103/44/35 112/37/35
f 20/13/36 127/33/36 22/18/36
f 101/13/37 129/18/37 126/18/37
f 137/45/38 129/18/38 134/46/38
f 135/47/39 131/33/39 132/47/39
f 133/43/40 36/2/40 35/29/40
f 114/17/41 122/48/41 125/49/41
f 116/17/42 120/50/42 123/48/42
f 118/32/43 40/9/43 121/51/43
f 21/19/44 103/44/44 24/15/44
f 137/20/45 105/15/45 102/44/45
f 135/47/46 107/15/46 104/15/46
f 19/16/47 91/12/47 25/12/47
f 125/16/48 93/39/48 90/12/48
f 123/16/49 95/39/49 92/39/49
f 131/33/50 45/36/50 42/33/50
f 130/2/51 44/1/51 97/1/51
f 129/18/52 49/13/52 46/18/52
f 128/2/53 48/28/53 99/28/53
f 127/33/54 53/13/54 50/33/54
f 126/2/55 52/28/55 101/28/55
f 107/15/56 57/47/56 54/15/56
f 106/27/57 56/43/57 133/43/57
f 105/15/58 61/52/58 58/15/58
f 104/27/59 60/53/59 135/53/59
f 103/44/60 65/19/60 62/44/60
f 102/54/61 64/10/61 137/10/61
f 95/39/62 69/55/62 66/39/62
f 88/56/63 86/8/63 89/56/63
f 84/56/64 82/30/64 85/56/64
f 80/4/65 78/32/65 81/4/65
f 75/26/66 77/9/66 76/9/66
f 71/41/67 73/57/67 72/9/67
f 67/41/68 69/58/68 68/9/68
f 63/54/69 65/29/69 64/10/69
f 59/27/70 61/53/70 60/53/70
f 55/27/71 57/53/71 56/43/71
f 51/2/72 53/28/72 52/28/72
f 47/2/73 49/28/73 48/28/73
f 43/2/74 45/28/74 44/1/74
f 51/2/75 65/29/75 50/2/75
f 47/2/76 61/59/76 46/2/76
f 43/60/77 57/53/77 42/60/77
f 76/61/78 86/30/78 87/30/78
f 72/57/79 82/30/79 83/30/79
f 68/51/80 78/32/80 79/32/80
f 63/62/81 89/56/81 62/54/81
f 59/27/82 85/63/82 58/27/82
f 55/27/83 81/4/83 54/27/83
f 75/26/84 53/28/84 74/26/84
f 71/64/85 49/28/85 70/41/85
f 67/26/86 45/1/86 66/41/86
f 126/2/87 64/43/87 51/2/87
f 127/18/88 65/19/88 136/19/88
f 128/2/89 60/53/89 47/2/89
f 129/18/90 61/46/90 134/46/90
f 130/60/91 56/43/91 43/60/91
f 113/56/92 87/30/92 88/56/92
f 131/33/93 57/47/93 132/47/93
f 125/61/94 87/30/94 114/30/94
f 112/37/95 86/38/95 115/38/95
f 124/16/96 86/17/96 77/16/96
f 123/57/97 83/30/97 116/30/97
f 111/56/98 83/65/98 84/56/98
f 122/48/99 82/17/99 73/48/99
f 121/51/100 79/32/100 118/32/100
f 110/37/101 82/17/101 117/17/101
f 120/50/102 78/35/102 69/50/102
f 102/62/103 88/56/103 63/62/103
f 109/4/104 79/32/104 80/4/104
f 103/44/105 89/37/105 112/37/105
f 104/27/106 84/63/106 59/27/106
f 108/14/107 78/35/107 119/35/107
f 105/15/108 85/42/108 110/42/108
f 106/27/109 80/4/109 55/27/109
f 90/26/110 76/9/110 125/9/110
f 107/15/111 81/14/111 108/14/111
f 90/26/112 52/28/112 75/26/112
f 91/12/113 77/16/113 74/12/113
f 91/12/114 53/36/114 100/36/114
f 92/64/115 48/28/115 71/64/115
f 92/41/116 72/9/116 123/9/116
f 93/39/117 49/36/117 98/36/117
f 94/26/118 44/1/118 67/26/118
f 93/39/119 73/48/119 70/39/119
f 95/39/120 45/40/120 96/40/120
f 94/41/121 68/9/121 121/9/121
f 13/66/122 9/67/122 2/68/122
f 1/69/123 4/70/123 14/71/123
f 13/66/124 14/71/124 3/72/124
f 147/73/125 138/15/125 146/74/125
f 147/73/126 140/18/126 139/20/126
f 150/75/127 142/16/127 149/76/127
f 152/77/128 144/11/128 151/78/128
f 151/78/129 140/18/129 148/79/129
f 153/80/130 141/22/130 150/75/130
f 153/80/131 138/15/131 145/14/131
f 149/76/132 143/21/132 152/77/132
f 14/71/133 149/76/133 152/77/133
f 1/69/134 146/74/134 153/80/134
f 1/69/135 150/75/135 10/81/135
f 9/67/136 151/78/136 148/79/136
f 3/72/137 152/77/137 151/78/137
f 10/81/138 149/76/138 4/70/138
f 2/68/139 148/79/139 147/73/139
f 2/68/140 146/74/140 13/66/140
f 97/1/141 41/28/141 36/2/141
f 17/3/2 12/8/2 5/4/2
f 7/6/2 32/6/2 31/7/2
f 12/8/2 8/9/2 30/9/2
f 12/8/2 29/8/2 34/4/2
f 6/10/2 27/10/2 28/2/2
f 8/9/2 12/8/2 17/3/2
f 7/6/2 16/7/2 17/3/2
f 7/6/2 11/2/2 28/2/2
f 17/3/2 15/5/2 6/10/2
f 144/11/142 143/21/142 25/12/142
f 145/14/143 138/15/143 24/15/143
f 142/16/144 141/22/144 23/17/144
f 140/18/6 22/18/6 21/19/6
f 140/18/145 144/11/145 20/13/145
f 138/15/146 139/20/146 21/19/146
f 142/16/147 19/16/147 25/12/147
f 145/14/148 18/14/148 23/17/148
f 33/23/11 34/23/11 29/24/11
f 39/26/12 40/9/12 30/9/12
f 38/27/13 35/29/13 27/10/13
f 41/28/14 32/6/14 28/2/14
f 35/29/15 36/2/15 28/2/15
f 37/30/16 29/8/16 30/9/16
f 38/31/17 26/82/17 34/23/17
f 39/26/18 31/7/18 32/6/18
f 118/32/149 109/4/149 33/4/149
f 21/19/150 22/18/150 127/18/150
f 99/13/151 96/36/151 131/33/151
f 5/4/2 34/4/2 26/5/2
f 109/4/152 106/27/152 38/27/152
f 97/1/153 94/26/153 39/26/153
f 116/34/154 111/37/154 108/14/154
f 8/9/2 16/7/2 31/7/2
f 6/10/2 15/5/2 26/5/2
f 20/13/155 25/12/155 91/12/155
f 23/17/156 115/17/156 124/16/156
f 23/17/157 18/14/157 112/37/157
f 114/17/158 113/37/158 110/37/158
f 101/13/159 90/83/159 93/39/159
f 99/13/160 92/84/160 95/39/160
f 121/9/161 40/9/161 39/26/161
f 113/37/162 102/85/162 105/15/162
f 111/42/163 104/15/163 107/15/163
f 133/43/164 35/29/164 38/27/164
f 18/14/165 24/15/165 103/44/165
f 20/13/166 100/13/166 127/33/166
f 101/13/167 98/13/167 129/18/167
f 137/45/168 126/18/168 129/18/168
f 135/47/169 128/18/169 131/33/169
f 133/43/170 130/60/170 36/2/170
f 114/17/171 117/17/171 122/48/171
f 116/17/172 119/35/172 120/50/172
f 118/32/173 37/30/173 40/9/173
f 21/19/174 136/19/174 103/44/174
f 137/20/175 134/52/175 105/15/175
f 135/47/176 132/47/176 107/15/176
f 19/16/177 124/16/177 91/12/177
f 125/16/178 122/48/178 93/39/178
f 123/16/179 120/55/179 95/39/179
f 131/33/180 96/36/180 45/36/180
f 130/2/181 43/2/181 44/1/181
f 129/18/182 98/13/182 49/13/182
f 128/2/183 47/2/183 48/28/183
f 127/33/184 100/13/184 53/13/184
f 126/2/185 51/2/185 52/28/185
f 107/15/186 132/47/186 57/47/186
f 106/27/187 55/27/187 56/43/187
f 105/15/188 134/52/188 61/52/188
f 104/27/189 59/27/189 60/53/189
f 103/44/190 136/19/190 65/19/190
f 102/54/191 63/54/191 64/10/191
f 95/39/192 120/55/192 69/55/192
f 88/56/193 87/30/193 86/8/193
f 84/56/194 83/65/194 82/30/194
f 80/4/195 79/32/195 78/32/195
f 75/26/196 74/26/196 77/9/196
f 71/41/197 70/41/197 73/57/197
f 67/41/198 66/41/198 69/58/198
f 63/54/199 62/54/199 65/29/199
f 59/27/200 58/27/200 61/53/200
f 55/27/201 54/27/201 57/53/201
f 51/2/202 50/60/202 53/28/202
f 47/2/203 46/2/203 49/28/203
f 43/2/204 42/60/204 45/28/204
f 51/2/205 64/43/205 65/29/205
f 47/2/206 60/53/206 61/59/206
f 43/60/207 56/43/207 57/53/207
f 76/61/208 77/9/208 86/30/208
f 72/57/209 73/57/209 82/30/209
f 68/51/210 69/51/210 78/32/210
f 63/62/211 88/56/211 89/56/211
f 59/27/212 84/63/212 85/63/212
f 55/27/213 80/4/213 81/4/213
f 75/26/214 52/28/214 53/28/214
f 71/64/215 48/28/215 49/28/215
f 67/26/216 44/1/216 45/1/216
f 126/2/217 137/43/217 64/43/217
f 127/18/218 50/18/218 65/19/218
f 128/2/219 135/53/219 60/53/219
f 129/18/220 46/18/220 61/46/220
f 130/60/221 133/43/221 56/43/221
f 113/56/222 114/30/222 87/30/222
f 131/33/223 42/33/223 57/47/223
f 125/61/224 76/61/224 87/30/224
f 112/37/225 89/37/225 86/38/225
f 124/16/226 115/17/226 86/17/226
f 123/57/227 72/57/227 83/30/227
f 111/56/228 116/65/228 83/65/228
f 122/48/229 117/17/229 82/17/229
f 121/51/230 68/51/230 79/32/230
f 110/37/231 85/37/231 82/17/231
f 120/50/232 119/35/232 78/35/232
f 102/62/233 113/56/233 88/56/233
f 109/4/234 118/32/234 79/32/234
f 103/44/235 62/44/235 89/37/235
f 104/27/236 111/63/236 84/63/236
f 108/14/237 81/14/237 78/35/237
f 105/15/238 58/15/238 85/42/238
f 106/27/239 109/4/239 80/4/239
f 90/26/240 75/26/240 76/9/240
f 107/15/241 54/15/241 81/14/241
f 90/26/242 101/28/242 52/28/242
f 91/12/243 124/16/243 77/16/243
f 91/12/244 74/12/244 53/36/244
f 92/64/245 99/28/245 48/28/245
f 92/41/246 71/41/246 72/9/246
f 93/39/247 70/39/247 49/36/247
f 94/26/248 97/1/248 44/1/248
f 93/39/249 122/48/249 73/48/249
f 95/39/250 66/39/250 45/40/250
f 94/41/251 67/41/251 68/9/251
f 13/66/252 3/72/252 9/67/252
f 1/69/123 10/81/123 4/70/123
f 13/66/253 1/69/253 14/71/253
f 147/73/254 139/20/254 138/15/254
f 147/73/255 148/79/255 140/18/255
f 150/75/256 141/22/256 142/16/256
f 152/77/257 143/21/257 144/11/257
f 151/78/258 144/11/258 140/18/258
f 153/80/259 145/14/259 141/22/259
f 153/80/260 146/74/260 138/15/260
f 149/76/261 142/16/261 143/21/261
f 14/71/262 4/70/262 149/76/262
f 1/69/263 13/66/263 146/74/263
f 1/69/264 153/80/264 150/75/264
f 9/67/265 3/72/265 151/78/265
f 3/72/266 14/71/266 152/77/266
f 10/81/267 150/75/267 149/76/267
f 2/68/268 9/67/268 148/79/268
f 2/68/269 147/73/269 146/74/269
