# Blender 4.2.1 LTS
# www.blender.org
mtllib grass_green_2.mtl
g grass_green_2_Mesh
v -0.017245 -0.016292 -0.031818
v -0.017904 -0.017963 0.016629
v -0.054254 -0.019641 -0.004370
v -0.042884 -0.018016 -0.030544
v -0.027132 0.046502 -0.033814
v -0.029346 0.053374 -0.008370
v -0.041648 0.035406 -0.028880
v -0.049690 0.036774 -0.011688
v -0.017993 0.032667 0.010763
v -0.055101 0.016325 0.001832
v -0.016150 0.025315 -0.029912
v -0.042662 0.015948 -0.024799
v -0.039762 0.060723 -0.043663
v -0.095866 0.148319 -0.021825
v -0.082901 0.098643 -0.039509
v -0.040418 0.062110 -0.018447
v -0.056043 0.053864 -0.040931
v -0.062912 0.052015 -0.024029
v -0.074239 0.100623 -0.037496
v -0.092748 0.148406 -0.021433
v -0.093093 0.148436 -0.018011
v -0.075222 0.099263 -0.026579
v -0.084882 0.095296 -0.030100
v -0.096451 0.148341 -0.018575
v -0.105990 0.170284 -0.026320
v -0.104233 0.169908 -0.026049
v -0.104502 0.169834 -0.024081
v -0.106391 0.170245 -0.024455
v -0.088231 0.122379 -0.026851
v -0.084334 0.122270 -0.021365
v -0.083814 0.122575 -0.026275
v -0.089141 0.122077 -0.022366
v -0.069316 0.079257 -0.043613
v -0.059327 0.087080 -0.044893
v -0.068259 0.078238 -0.026691
v -0.060229 0.089003 -0.028628
v 0.009179 0.045344 -0.006537
v 0.001275 0.165339 -0.071831
v -0.017967 0.096110 -0.017338
v 0.017207 0.054502 0.014470
v -0.012380 0.051212 -0.000611
v -0.015459 0.055208 0.013495
v 0.000567 0.095344 -0.020732
v 0.005925 0.162822 -0.072453
v 0.008779 0.167129 -0.069769
v 0.005287 0.103855 -0.009435
v -0.015469 0.103897 -0.007235
v 0.003634 0.169674 -0.069206
v 0.012284 0.173387 -0.094350
v 0.014133 0.172270 -0.093804
v 0.015139 0.174276 -0.092858
v 0.013100 0.175403 -0.093487
v -0.007684 0.149533 -0.060347
v 0.006586 0.151254 -0.056546
v 0.003144 0.146225 -0.060900
v -0.005537 0.154266 -0.056612
v -0.015428 0.065735 -0.008647
v 0.005229 0.062990 -0.015980
v -0.014708 0.074111 0.002863
v 0.013725 0.073833 -0.000389
v 0.018234 0.036577 0.030804
v -0.025629 0.033372 0.030468
v 0.006237 0.039777 -0.000359
v -0.021540 0.036661 0.011269
v 0.006113 0.129249 -0.029439
v -0.012480 0.126385 -0.035442
v 0.002135 0.123756 -0.037394
v -0.010276 0.131267 -0.028278
v 0.020646 0.023334 0.036409
v -0.026954 0.020058 0.035945
v -0.022461 0.022185 0.016785
v 0.007308 0.025020 0.003939
v 0.015825 0.011065 0.044794
v -0.026799 0.009808 0.033610
v -0.033865 0.009105 0.022967
v 0.000277 0.012096 0.008035
v 0.012146 -0.000619 -0.012215
v 0.016788 -0.002163 0.042776
v 0.013961 0.002686 0.044774
v -0.031768 -0.005214 0.038829
v -0.028025 0.005689 0.037359
v -0.028081 -0.007283 0.002409
v -0.036316 0.001608 0.017431
v 0.007541 0.003765 0.000128
v -0.007328 -0.017441 0.021736
v -0.010445 -0.018453 0.045790
v -0.028310 -0.018899 0.024185
v -0.042532 -0.019497 0.014216
v -0.024816 -0.019035 0.035052
v -0.001149 -0.016386 0.002391
v -0.006155 -0.018282 0.049061
v -0.031689 -0.019633 0.039443
v 0.021672 -0.015783 0.029001
v -0.009070 -0.016377 -0.013334
v 0.037563 -0.012685 -0.032214
v 0.044242 -0.013369 0.001188
v 0.036044 0.038409 0.035382
v 0.015523 0.041863 0.007083
v 0.052421 0.031754 0.017909
v 0.046043 0.031282 -0.006774
v 0.008893 0.013684 0.000189
v 0.048335 0.016483 -0.015972
v 0.033893 0.016574 0.034521
v 0.054524 0.017751 0.013605
v 0.046384 0.075428 0.032729
v 0.085438 0.149116 -0.042936
v 0.069225 0.127407 -0.004791
v 0.031538 0.075646 0.010307
v 0.058829 0.067268 0.020869
v 0.054451 0.064169 0.002100
v 0.058053 0.130918 -0.001515
v 0.080930 0.151510 -0.042113
v 0.078768 0.149381 -0.046886
v 0.051099 0.125115 -0.013149
v 0.064566 0.119416 -0.014749
v 0.083732 0.146879 -0.047580
v 0.087078 0.178473 -0.056312
v 0.085171 0.179492 -0.056234
v 0.084375 0.178271 -0.058098
v 0.086470 0.177219 -0.058107
v 0.080653 0.132318 -0.025392
v 0.069978 0.133058 -0.034083
v 0.073753 0.138242 -0.026239
v 0.077832 0.126949 -0.032565
v 0.067763 0.097674 0.012653
v 0.056777 0.110107 0.014489
v 0.055950 0.086889 -0.002788
v 0.047501 0.102501 -0.003317
v 0.037552 -0.015869 0.062543
v -0.016111 -0.018813 0.045424
v 0.025549 -0.014249 -0.009114
v 0.046217 -0.013722 0.015554
v 0.037137 0.039820 0.070986
v 0.054031 0.172287 0.073845
v 0.069653 0.100966 0.060922
v 0.006206 0.050544 0.062943
v 0.046153 0.051349 0.043099
v 0.033061 0.057205 0.029120
v 0.058330 0.102972 0.079864
v 0.050057 0.169611 0.078998
v 0.044299 0.174427 0.077317
v 0.042272 0.106388 0.073139
v 0.056450 0.104240 0.053266
v 0.048832 0.177123 0.071814
v 0.060279 0.206279 0.093228
v 0.058583 0.205290 0.095393
v 0.056049 0.206919 0.094161
v 0.058080 0.207855 0.091925
v 0.061766 0.150421 0.062360
v 0.044989 0.149104 0.072564
v 0.054515 0.148544 0.075343
v 0.054034 0.151245 0.058911
v 0.059561 0.066189 0.055658
v 0.050049 0.062553 0.082539
v 0.047168 0.078202 0.047269
v 0.027361 0.077924 0.078838
v -0.012499 0.012727 0.048478
v 0.022948 0.016168 0.001697
v 0.032349 0.018171 0.063219
v 0.039943 0.019782 0.021850
v 0.046740 0.121174 0.076227
v 0.069452 0.123577 0.064064
v 0.059221 0.124485 0.080753
v 0.059164 0.120838 0.058537
v -0.038007 -0.019882 0.034501
v 0.010053 -0.016299 0.021662
v -0.002421 -0.018293 0.056667
v -0.029494 -0.020042 0.055878
v -0.045248 0.036612 0.047440
v -0.037577 0.131398 0.091884
v -0.048726 0.077543 0.090149
v -0.024319 0.048654 0.043639
v -0.036215 0.030612 0.060915
v -0.019503 0.035786 0.063874
v -0.049182 0.077729 0.078465
v -0.038968 0.133423 0.087731
v -0.034957 0.136849 0.087906
v -0.035587 0.074299 0.076360
v -0.036739 0.073653 0.090130
v -0.033617 0.134518 0.092391
v -0.052499 0.157102 0.102712
v -0.052590 0.157263 0.101782
v -0.051698 0.157790 0.101760
v -0.051636 0.157595 0.102766
v -0.035909 0.107075 0.086868
v -0.028866 0.112247 0.077783
v -0.037504 0.109099 0.078924
v -0.027766 0.109791 0.086583
v -0.048345 0.049497 0.076026
v -0.055120 0.056838 0.066289
v -0.034896 0.053975 0.076940
v -0.039540 0.065350 0.063684
v -0.005734 0.013743 0.029018
v -0.000503 0.012696 0.061784
v -0.037217 0.013597 0.034354
v -0.026581 0.012744 0.057694
v 0.034162 -0.013137 -0.025384
v -0.020053 -0.017660 0.003421
v -0.025973 -0.016392 -0.045868
v 0.005464 -0.013978 -0.056361
v 0.028711 0.043828 -0.030479
v 0.002161 0.044904 -0.016670
v 0.016538 0.036468 -0.046184
v -0.004946 0.034224 -0.043750
v -0.004314 0.017007 -0.006220
v -0.014395 0.017362 -0.045879
v 0.033265 0.013924 -0.027135
v 0.016248 0.012720 -0.049548
v 0.028090 0.057427 -0.053570
v -0.005834 0.115219 -0.124700
v 0.005040 0.087090 -0.106231
v 0.013847 0.065495 -0.047150
v 0.025383 0.059211 -0.068092
v 0.006987 0.059799 -0.063915
v 0.006975 0.091647 -0.100420
v -0.004215 0.117198 -0.120689
v -0.009039 0.118473 -0.119219
v -0.001617 0.092847 -0.097199
v -0.002960 0.086158 -0.103420
v -0.010591 0.116280 -0.123616
v -0.005494 0.125765 -0.136833
v -0.004925 0.126171 -0.134970
v -0.006977 0.126586 -0.134376
v -0.007509 0.126129 -0.136415
v -0.001877 0.100553 -0.114490
v -0.006292 0.104541 -0.107036
v 0.000254 0.103280 -0.109204
v -0.008138 0.101454 -0.112999
v 0.007266 0.072722 -0.088035
v 0.015934 0.080693 -0.083122
v -0.004750 0.076328 -0.081610
v 0.003771 0.084748 -0.079014
vn 0.8916 0.4509 -0.0411
vn 0.0654 -0.9973 -0.0335
vn -0.4219 0.5751 0.7009
vn -0.1177 -0.1979 -0.9731
vn -0.9055 -0.0397 -0.4224
vn 0.6859 0.7153 -0.1335
vn 0.0966 -0.5072 -0.8564
vn -0.3751 0.3646 0.8522
vn -0.6266 -0.7052 -0.3318
vn -0.9164 0.0726 -0.3936
vn -0.0601 0.1669 -0.9841
vn -0.4883 -0.1594 0.8580
vn 0.9996 -0.0269 0.0127
vn -0.8019 -0.4893 -0.3429
vn 0.5723 0.8059 0.1519
vn -0.2800 0.2040 -0.9381
vn -0.3022 -0.1051 0.9474
vn -0.1502 0.1922 0.9698
vn 0.9477 0.3053 0.0929
vn -0.9485 -0.2388 -0.2084
vn -0.1844 -0.2861 0.9403
vn 0.1164 0.2217 -0.9681
vn 0.1998 0.9777 0.0638
vn 0.8693 0.4872 0.0833
vn -0.8744 -0.4434 -0.1973
vn 0.1273 -0.1428 -0.9815
vn 0.0915 0.4846 -0.8700
vn -0.1930 -0.1881 0.9630
vn -0.9674 -0.0913 -0.2362
vn 0.9320 0.3419 0.1199
vn -0.2596 0.0450 0.9647
vn -0.1112 -0.1285 -0.9855
vn 0.8071 0.5902 -0.0115
vn -0.8871 -0.4608 0.0277
vn 0.8840 -0.2863 -0.3697
vn -0.0518 0.6278 0.7766
vn -0.2895 -0.4894 -0.8226
vn -0.9934 -0.0540 0.1014
vn -0.9351 0.3239 -0.1437
vn 0.8841 0.1118 -0.4536
vn -0.3505 -0.1853 -0.9180
vn 0.1004 0.3217 0.9415
vn 0.4445 0.8175 0.3662
vn 0.8698 -0.3812 -0.3134
vn -0.8880 0.4551 -0.0664
vn 0.1305 0.6109 0.7809
vn -0.3700 -0.4882 -0.7904
vn 0.3966 0.2208 -0.8911
vn 0.8721 -0.4806 0.0914
vn -0.8536 0.4544 -0.2549
vn -0.3421 -0.8036 -0.4871
vn -0.2169 -0.7010 -0.6794
vn 0.3613 0.5668 0.7404
vn -0.9368 0.3272 0.1237
vn 0.9177 -0.3161 -0.2406
vn 0.1041 0.4844 0.8686
vn -0.3536 -0.5017 -0.7895
vn 0.9423 -0.0802 -0.3252
vn -0.9810 -0.1226 0.1505
vn -0.9737 0.0031 -0.2280
vn -0.3508 -0.3139 -0.8823
vn -0.0354 0.3832 0.9230
vn 0.9251 0.0079 -0.3796
vn 0.9237 -0.2551 -0.2857
vn -0.9731 0.2192 0.0716
vn -0.2012 -0.4872 -0.8498
vn 0.1388 0.7677 0.6256
vn 0.7717 -0.5366 -0.3414
vn -0.2416 -0.2191 0.9453
vn -0.3924 -0.0905 -0.9153
vn -0.8208 -0.1386 0.5541
vn 0.7241 -0.6850 -0.0803
vn -0.1011 0.4830 0.8698
vn -0.3575 0.6276 -0.6916
vn 0.7095 0.6995 -0.0851
vn -0.7668 -0.6406 -0.0412
vn -0.2936 0.8609 -0.4154
vn -0.0488 -0.4047 0.9131
vn 0.6418 0.7662 -0.0327
vn -0.1890 -0.5577 -0.8082
vn -0.9186 0.0118 0.3949
vn -0.2549 0.0544 0.9654
vn -0.6912 0.5881 0.4200
vn -0.8094 0.0472 0.5854
vn -0.3658 0.4498 -0.8148
vn 0.7109 -0.1069 0.6951
vn 0.9387 0.2748 -0.2082
vn -0.7540 0.3017 0.5835
vn 0.6405 -0.1246 0.7578
vn -0.2979 0.3189 -0.8997
vn 0.9671 -0.1579 -0.1995
vn 0.9504 -0.2424 -0.1950
vn 0.7357 -0.3742 0.5645
vn -0.3504 0.5503 -0.7579
vn -0.7915 0.2158 0.5718
vn 0.9393 -0.2068 -0.2737
vn -0.8770 0.3020 0.3736
vn 0.3892 0.5464 0.7416
vn -0.3722 -0.2319 -0.8987
vn -0.2756 -0.2928 -0.9156
vn -0.8267 0.5474 0.1302
vn 0.9274 -0.3621 -0.0938
vn -0.3707 -0.7068 -0.6025
vn 0.4352 0.5842 0.6850
vn 0.3522 0.7070 -0.6133
vn -0.9141 0.2882 0.2854
vn 0.9635 -0.1537 -0.2191
vn 0.2527 0.4051 0.8787
vn 0.3880 0.7871 0.4795
vn -0.3450 -0.4571 -0.8198
vn 0.6954 -0.6832 0.2229
vn -0.5846 0.7773 -0.2323
vn -0.4054 -0.1666 -0.8988
vn 0.4727 0.2951 0.8304
vn -0.8042 0.5676 0.1765
vn 0.8454 -0.3560 -0.3981
vn -0.2806 -0.2187 0.9346
vn -0.7050 0.5059 -0.4970
vn 0.9421 -0.2940 0.1615
vn 0.5405 -0.0296 -0.8408
vn 0.7154 0.2577 -0.6495
vn -0.3019 0.3367 0.8919
vn 0.9358 -0.1713 0.3080
vn -0.7293 0.3896 -0.5624
vn -0.7311 0.5138 -0.4489
vn -0.4107 -0.1790 0.8940
vn 0.3915 0.5326 -0.7504
vn -0.7651 0.3448 -0.5439
vn 0.7765 0.0554 0.6277
vn 0.2426 0.7965 0.5539
vn -0.5395 -0.2255 0.8113
vn 0.5863 0.3172 -0.7454
vn 0.8158 -0.3908 0.4263
vn 0.8269 0.2724 0.4921
vn -0.7902 0.0922 -0.6058
vn 0.4565 0.0744 -0.8866
vn -0.2726 0.1083 0.9560
vn -0.6124 0.7107 -0.3463
vn 0.8015 -0.5608 0.2077
vn -0.3291 -0.2708 0.9046
vn 0.6209 0.0973 -0.7778
vn 0.7322 0.2828 -0.6196
vn 0.9715 0.1470 0.1859
vn -0.7922 0.1431 -0.5932
vn -0.3005 -0.0578 0.9520
vn -0.3981 -0.0707 0.9146
vn 0.4429 0.1273 -0.8875
vn 0.8498 -0.0568 0.5240
vn -0.8130 -0.1255 -0.5686
vn -0.1604 0.3074 -0.9380
vn 0.7637 0.6376 -0.1016
vn -0.7984 -0.4928 0.3458
vn -0.1435 -0.4466 0.8831
vn -0.1518 -0.2123 0.9653
vn 0.1085 0.7958 -0.5957
vn -0.8431 -0.0710 0.5331
vn 0.9957 0.0362 0.0851
vn 0.8007 0.5954 0.0662
vn -0.2332 0.3201 -0.9182
vn 0.0989 -0.1945 0.9759
vn 0.9718 -0.1658 -0.1678
vn -0.9573 -0.1476 0.2486
vn -0.4955 0.8463 0.1954
vn -0.2507 0.3866 -0.8875
vn 0.1314 -0.3191 0.9386
vn -0.8580 -0.5124 0.0375
vn -0.9046 0.3329 0.2664
vn 0.9480 0.2894 -0.1329
vn 0.0329 0.0963 0.9948
vn -0.1536 0.0642 -0.9860
vn 0.8084 0.5645 0.1666
vn -0.8213 -0.5482 0.1581
vn -0.4279 0.5077 -0.7478
vn 0.1331 -0.5657 0.8138
vn -0.0257 -0.0530 0.9983
vn -0.9287 0.0235 0.3700
vn 0.8665 0.3745 0.3301
vn -0.2636 0.0965 -0.9598
vn 0.4888 0.2042 0.8481
vn -0.8621 0.4549 0.2232
vn 0.7922 0.0761 -0.6055
vn -0.0909 0.1747 -0.9804
vn 0.3475 0.7098 0.6127
vn 0.7676 -0.5431 -0.3405
vn -0.8372 0.5212 0.1655
vn -0.1892 -0.6421 -0.7429
vn -0.3223 0.1103 -0.9402
vn 0.7297 -0.1231 -0.6726
vn -0.8914 0.4376 0.1183
vn 0.4667 0.0339 0.8838
vn -0.1212 -0.7862 -0.6060
vn 0.2511 0.9097 0.3307
vn 0.6970 -0.3851 -0.6048
vn -0.9815 0.1916 0.0058
vn -0.8851 0.4467 0.1306
vn 0.3734 0.6513 0.6606
vn -0.2662 -0.5980 -0.7560
vn -0.9415 -0.1079 0.3192
vn 0.9288 -0.0075 -0.3705
vn 0.1225 0.9612 -0.2473
vn 0.3577 0.8022 0.4780
vn -0.2632 -0.7245 -0.6370
vn 0.9281 -0.2928 -0.2301
vn 0.8819 0.1808 -0.4354
vn -0.9610 0.0486 0.2723
vn -0.2067 -0.5866 -0.7830
vn 0.3451 0.6811 0.6457
vn -0.5819 0.3648 0.7268
vn 0.9384 0.3177 -0.1359
vn 0.4048 0.8336 0.3757
vn -0.1344 -0.8728 -0.4692
vn 0.8903 0.4532 -0.0449
vn -0.4812 0.4379 0.7594
vn -0.1368 -0.2476 -0.9592
vn -0.9063 -0.0410 -0.4207
vn 0.7532 0.6575 -0.0166
vn 0.0694 -0.5069 -0.8592
vn -0.4416 0.3786 0.8134
vn -0.6311 -0.7389 -0.2364
vn -0.9045 0.0517 -0.4232
vn -0.2062 0.0502 -0.9772
vn -0.2781 0.1101 0.9542
vn 0.9990 0.0069 0.0440
vn -0.7165 -0.6976 0.0028
vn 0.6570 0.7521 -0.0524
vn 0.1493 0.3038 -0.9410
vn 0.1693 0.0508 0.9843
vn -0.1678 0.1852 0.9683
vn 0.9450 0.3045 0.1190
vn -0.9554 -0.2413 -0.1704
vn -0.2144 -0.3023 0.9288
vn 0.1155 0.2216 -0.9683
vn 0.1999 0.9777 0.0639
vn 0.8614 0.4893 0.1359
vn -0.8831 -0.4426 -0.1560
vn 0.1203 -0.1455 -0.9820
vn 0.0919 0.4846 -0.8699
vn -0.1577 -0.1839 0.9702
vn -0.9743 -0.0960 -0.2040
vn 0.9313 0.3416 0.1264
vn -0.1280 0.2673 0.9551
vn -0.0320 -0.1215 -0.9921
vn 0.8033 0.5950 -0.0258
vn -0.8947 -0.2218 -0.3878
vn 0.8384 -0.5383 -0.0858
vn -0.0075 0.6733 0.7393
vn -0.3598 -0.6014 -0.7133
vn -0.9773 0.0452 0.2068
vn -0.8987 0.3294 -0.2894
vn 0.8619 0.0501 -0.5045
vn -0.1840 -0.2846 -0.9408
vn 0.1109 0.3151 0.9425
vn 0.3613 0.8580 0.3651
vn 0.8881 -0.3533 -0.2939
vn -0.8699 0.4923 -0.0312
vn 0.0857 0.5970 0.7977
vn -0.1962 -0.5012 -0.8428
vn 0.3967 0.2208 -0.8910
vn 0.8150 -0.5765 0.0582
vn -0.8115 0.5540 -0.1856
vn -0.4646 -0.7372 -0.4906
vn -0.2447 -0.6863 -0.6850
vn 0.1387 0.5759 0.8056
vn -0.9494 0.3020 0.0864
vn 0.8882 -0.3506 -0.2970
vn -0.0105 0.6082 0.7937
vn -0.3473 -0.5088 -0.7878
vn 0.8898 -0.0439 -0.4543
vn -0.9785 -0.0701 -0.1937
vn -0.9772 -0.0183 -0.2113
vn -0.3426 -0.2856 -0.8950
vn -0.0351 0.3841 0.9226
vn 0.9312 -0.0380 -0.3624
vn 0.9485 -0.1975 -0.2475
vn -0.9569 0.2677 0.1121
vn -0.1771 -0.4813 -0.8585
vn 0.1824 0.7482 0.6379
vn 0.7740 -0.5306 -0.3455
vn -0.0476 0.5763 0.8159
vn -0.3886 -0.0795 -0.9180
vn -0.7747 0.6222 -0.1126
vn 0.5800 -0.8141 0.0291
vn -0.3540 0.0379 0.9345
vn -0.3436 0.4713 -0.8123
vn 0.9005 -0.1994 -0.3865
vn -0.8894 0.3456 0.2992
vn -0.2724 0.7552 -0.5963
vn -0.1581 0.1850 0.9699
vn 0.8389 0.5335 -0.1078
vn -0.1943 -0.5734 -0.7959
vn -0.6927 0.7127 -0.1106
vn -0.0792 0.6838 0.7253
vn -0.9246 0.0215 0.3803
vn -0.8050 0.0560 0.5906
vn -0.3088 0.2940 -0.9046
vn 0.7074 -0.0973 0.7001
vn 0.9439 0.2180 -0.2481
vn -0.8033 0.2627 0.5345
vn 0.6819 -0.1821 0.7085
vn -0.2382 0.2035 -0.9497
vn 0.9535 -0.1782 -0.2430
vn 0.9524 -0.2392 -0.1890
vn 0.6459 -0.4573 0.6113
vn -0.3496 0.5510 -0.7577
vn -0.7993 0.2055 0.5647
vn 0.8446 -0.3670 -0.3898
vn -0.8910 0.3098 0.3319
vn 0.5682 0.3955 0.7217
vn -0.2556 -0.3510 -0.9008
vn -0.1687 -0.3280 -0.9295
vn -0.8471 0.5282 0.0586
vn 0.9114 -0.3831 -0.1503
vn -0.4162 -0.6840 -0.5991
vn 0.4252 0.5930 0.6838
vn 0.3521 0.7070 -0.6134
vn -0.9379 0.2587 0.2309
vn 0.9484 -0.1769 -0.2632
vn 0.3538 0.3714 0.8584
vn 0.5422 0.6983 0.4673
vn -0.2575 -0.5316 -0.8069
vn 0.6975 -0.6777 0.2329
vn -0.5395 0.8366 -0.0948
vn -0.3742 -0.2329 -0.8976
vn 0.6878 -0.0060 0.7259
vn -0.7311 0.4761 0.4887
vn 0.9719 -0.1090 -0.2087
vn -0.3252 -0.2549 0.9107
vn -0.7123 0.5288 -0.4614
vn 0.9420 -0.2766 0.1902
vn 0.5050 0.0187 -0.8629
vn 0.7567 0.2560 -0.6015
vn -0.1029 0.0866 0.9909
vn 0.8012 -0.3100 0.5118
vn -0.8036 0.3206 -0.5014
vn -0.7758 0.4880 -0.4000
vn -0.2851 -0.2221 0.9324
vn 0.6508 0.4395 -0.6191
vn -0.7589 0.3065 -0.5746
vn 0.8690 0.0488 0.4924
vn -0.4724 -0.2723 0.8382
vn 0.6309 0.2829 -0.7224
vn 0.8010 -0.4008 0.4446
vn 0.8242 0.2677 0.4990
vn -0.8366 0.1003 -0.5385
vn 0.4132 0.0809 -0.9070
vn -0.3692 0.1346 0.9196
vn -0.6131 0.6934 -0.3785
vn 0.7534 -0.6570 -0.0280
vn -0.3311 -0.2712 0.9038
vn 0.7433 0.0751 -0.6647
vn 0.7158 0.2561 -0.6496
vn 0.9722 0.1449 0.1841
vn -0.7935 0.1480 -0.5903
vn -0.3044 -0.0654 0.9503
vn -0.3349 -0.0251 0.9419
vn 0.5262 0.1780 -0.8315
vn 0.8535 -0.0642 0.5170
vn -0.8169 -0.1309 -0.5617
vn -0.3638 0.3612 -0.8586
vn 0.8925 0.4454 0.0708
vn -0.8142 -0.4744 0.3346
vn 0.1249 -0.5443 0.8295
vn -0.1006 -0.2288 0.9683
vn -0.4184 0.5432 -0.7279
vn -0.9987 -0.0329 0.0385
vn 0.9496 0.0233 -0.3126
vn 0.8011 0.5944 0.0696
vn -0.2372 0.3181 -0.9179
vn 0.0470 -0.2178 0.9749
vn 0.9697 -0.2339 0.0702
vn -0.9800 -0.1024 0.1707
vn -0.4955 0.8464 0.1954
vn -0.2745 0.3670 -0.8888
vn 0.1259 -0.3234 0.9379
vn -0.8651 -0.5015 -0.0017
vn -0.9148 0.4017 0.0421
vn 0.9688 0.2418 -0.0536
vn 0.0023 0.0971 0.9953
vn -0.1366 0.0653 -0.9885
vn 0.8232 0.5401 0.1752
vn -0.7381 -0.6415 0.2091
vn -0.4053 0.5095 -0.7590
vn 0.0296 -0.5665 0.8235
vn -0.1534 -0.1517 0.9764
vn -0.9077 0.0576 0.4157
vn 0.9867 -0.0349 -0.1586
vn -0.1671 -0.0004 -0.9859
vn 0.4603 0.1676 0.8718
vn -0.9513 0.2739 0.1417
vn 0.7783 0.0485 -0.6260
vn -0.1260 0.1406 -0.9820
vn 0.5817 0.7077 0.4011
vn 0.8202 -0.5289 -0.2179
vn -0.8559 0.5167 0.0209
vn -0.0258 -0.6115 -0.7908
vn -0.0733 0.2743 -0.9589
vn 0.7967 -0.0127 -0.6042
vn -0.9191 0.3153 0.2364
vn 0.4896 0.0724 0.8689
vn -0.4520 -0.7988 -0.3971
vn 0.3979 0.8542 0.3348
vn 0.9668 -0.1294 -0.2204
vn -0.6923 0.5604 0.4547
vn -0.8989 0.4253 0.1054
vn 0.3476 0.6607 0.6653
vn -0.3021 -0.5876 -0.7507
vn -0.9342 -0.1020 0.3420
vn 0.9286 -0.0077 -0.3710
vn 0.1225 0.9611 -0.2473
vn 0.3074 0.8125 0.4953
vn -0.3029 -0.7187 -0.6259
vn 0.9321 -0.2858 -0.2223
vn 0.8775 0.1776 -0.4454
vn -0.9503 0.0612 0.3051
vn -0.2670 -0.5748 -0.7735
vn 0.3380 0.6836 0.6468
vn -0.9322 0.0918 0.3502
vn 0.6343 -0.2360 -0.7361
vn 0.5757 0.7407 0.3464
vn -0.4605 -0.7802 -0.4234
vt 0.197550 0.046208
vt 0.201405 0.042179
vt 0.203647 0.045995
vt 0.184975 0.056948
vt 0.190404 0.052800
vt 0.188772 0.056699
vt 0.195672 0.043689
vt 0.200600 0.041323
vt 0.201782 0.044312
vt 0.195039 0.046341
vt 0.198118 0.048985
vt 0.193969 0.048951
vt 0.198689 0.041600
vt 0.201014 0.044534
vt 0.196709 0.044514
vt 0.197533 0.042677
vt 0.200267 0.040238
vt 0.196495 0.043091
vt 0.197594 0.045555
vt 0.198443 0.037963
vt 0.202160 0.038364
vt 0.201478 0.041771
vt 0.199725 0.038632
vt 0.202395 0.038308
vt 0.197908 0.049445
vt 0.202085 0.049149
vt 0.195960 0.054753
vt 0.192293 0.053744
vt 0.197695 0.050949
vt 0.203466 0.049249
vt 0.203604 0.053162
vt 0.196552 0.051897
vt 0.201986 0.034126
vt 0.199267 0.031500
vt 0.200654 0.030916
vt 0.199578 0.035372
vt 0.198716 0.032922
vt 0.200301 0.033305
vt 0.193254 0.039088
vt 0.193604 0.035798
vt 0.195025 0.038495
vt 0.201826 0.034404
vt 0.201847 0.031179
vt 0.203466 0.031272
vt 0.202314 0.023642
vt 0.202656 0.020172
vt 0.202909 0.020031
vt 0.201617 0.029807
vt 0.202206 0.025789
vt 0.202712 0.025844
vt 0.197775 0.027738
vt 0.197193 0.023790
vt 0.198445 0.027639
vt 0.202602 0.027528
vt 0.201901 0.027714
vt 0.192712 0.031960
vt 0.193342 0.028048
vt 0.193340 0.032137
vt 0.202373 0.022064
vt 0.202099 0.022175
vt 0.202095 0.022036
vt 0.202389 0.022216
vt 0.196925 0.020213
vt 0.197205 0.020184
vt 0.192901 0.027915
vt 0.192762 0.024559
vt 0.192293 0.035682
vt 0.201831 0.023774
vt 0.200898 0.029680
vt 0.193893 0.043229
vt 0.196552 0.039907
vt 0.199655 0.034678
vt 0.192960 0.061368
vt 0.197469 0.060182
vt 0.198612 0.064663
vt 0.187922 0.037264
vt 0.195278 0.033664
vt 0.196436 0.038928
vt 0.199372 0.058766
vt 0.203434 0.060234
vt 0.197958 0.062649
vt 0.185798 0.052630
vt 0.187649 0.047314
vt 0.188532 0.053007
vt 0.185528 0.056782
vt 0.187698 0.059999
vt 0.184777 0.062532
vt 0.196463 0.055809
vt 0.193945 0.051076
vt 0.196839 0.050800
vt 0.198358 0.055589
vt 0.200271 0.049027
vt 0.202644 0.054770
vt 0.195747 0.029515
vt 0.192699 0.022758
vt 0.196697 0.023374
vt 0.190534 0.040238
vt 0.189701 0.035302
vt 0.191672 0.040158
vt 0.193547 0.038261
vt 0.191968 0.034759
vt 0.192997 0.034246
vt 0.189212 0.033368
vt 0.190682 0.029754
vt 0.190344 0.033933
vt 0.196715 0.016972
vt 0.193508 0.016891
vt 0.199663 0.036309
vt 0.198743 0.032038
vt 0.199767 0.032276
vt 0.201270 0.027802
vt 0.201639 0.028263
vt 0.201257 0.028065
vt 0.190123 0.030413
vt 0.190526 0.030159
vt 0.193158 0.025436
vt 0.193509 0.025737
vt 0.196789 0.042655
vt 0.199731 0.042530
vt 0.190087 0.044077
vt 0.188093 0.040324
vt 0.193855 0.044830
vt 0.195907 0.044670
vt 0.190272 0.028701
vt 0.203934 0.058591
vt 0.192713 0.059652
vt 0.188201 0.055981
vt 0.187965 0.062959
vt 0.184972 0.065318
vt 0.204236 0.063104
vt 0.198326 0.065649
vt 0.187066 0.040002
vt 0.196312 0.041765
vt 0.192486 0.064002
vt 0.198587 0.067136
vt 0.185136 0.046805
vt 0.192398 0.051100
vt 0.189266 0.050873
vt 0.191435 0.066832
vt 0.198454 0.070222
vt 0.187571 0.042879
vt 0.196152 0.043578
vt 0.203438 0.065845
vt 0.196638 0.068742
vt 0.188429 0.066338
vt 0.186220 0.066797
vt 0.198198 0.035553
vt 0.201159 0.044242
vt 0.196783 0.046306
vt 0.196715 0.046813
vt 0.191217 0.049191
vt 0.187191 0.045252
vt 0.196788 0.069459
vt 0.197586 0.071588
vt 0.190123 0.066736
vt 0.186750 0.070047
vt 0.190117 0.067214
vt 0.193143 0.066851
vt 0.191175 0.062799
vt 0.193509 0.062138
vt 0.187782 0.044508
vt 0.194443 0.027774
vt 0.193039 0.035473
vt 0.193039 0.025912
vt 0.190821 0.045687
vt 0.193926 0.041064
vt 0.193028 0.049503
vt 0.192675 0.070774
vt 0.187830 0.072492
vt 0.185954 0.067892
vt 0.202478 0.040841
vt 0.204778 0.039147
vt 0.204769 0.041398
vt 0.203638 0.036389
vt 0.205653 0.038643
vt 0.205920 0.044001
vt 0.203300 0.035553
vt 0.187484 0.045587
vt 0.191140 0.044008
vt 0.192957 0.047390
vt 0.181801 0.048541
vt 0.188319 0.053492
vt 0.183667 0.056052
vt 0.194940 0.049566
vt 0.199495 0.045564
vt 0.200825 0.047285
vt 0.191221 0.052017
vt 0.193656 0.055528
vt 0.190009 0.053276
vt 0.195868 0.037308
vt 0.199387 0.038646
vt 0.195019 0.039583
vt 0.186776 0.043135
vt 0.189552 0.038985
vt 0.194553 0.052979
vt 0.192382 0.047966
vt 0.195004 0.048205
vt 0.194335 0.045579
vt 0.198845 0.040913
vt 0.199569 0.036582
vt 0.196566 0.032173
vt 0.199295 0.031237
vt 0.198079 0.043642
vt 0.193102 0.044386
vt 0.201694 0.038869
vt 0.201330 0.043947
vt 0.201302 0.051279
vt 0.194370 0.054021
vt 0.189303 0.050010
vt 0.195976 0.051917
vt 0.197651 0.026800
vt 0.193102 0.024295
vt 0.194465 0.022826
vt 0.190577 0.034179
vt 0.189424 0.030223
vt 0.191373 0.031179
vt 0.194550 0.042352
vt 0.192878 0.038444
vt 0.194668 0.038470
vt 0.196476 0.035616
vt 0.198530 0.032291
vt 0.198271 0.037523
vt 0.200493 0.026617
vt 0.200801 0.022099
vt 0.201302 0.026771
vt 0.193879 0.027817
vt 0.194391 0.024557
vt 0.195172 0.024854
vt 0.186352 0.061711
vt 0.187076 0.058147
vt 0.187736 0.061600
vt 0.199477 0.029605
vt 0.196396 0.032018
vt 0.191787 0.035227
vt 0.190009 0.032318
vt 0.190757 0.032168
vt 0.192705 0.068459
vt 0.192382 0.068110
vt 0.192702 0.068123
vt 0.195976 0.020959
vt 0.187401 0.053437
vt 0.187736 0.053420
vt 0.190654 0.027644
vt 0.190957 0.027556
vt 0.193542 0.059430
vt 0.194914 0.056779
vt 0.194914 0.060302
vt 0.192549 0.027133
vt 0.194910 0.040362
vt 0.192394 0.043514
vt 0.187650 0.032986
vt 0.195342 0.028954
vt 0.195325 0.055365
vt 0.199993 0.051432
vt 0.201946 0.057710
vt 0.195841 0.056204
vt 0.203310 0.049184
vt 0.204183 0.056204
vt 0.181606 0.063526
vt 0.188339 0.056538
vt 0.190297 0.063601
vt 0.191323 0.054454
vt 0.195851 0.058529
vt 0.189900 0.059815
vt 0.194411 0.041287
vt 0.196873 0.036918
vt 0.197107 0.042148
vt 0.192484 0.045466
vt 0.194664 0.050757
vt 0.191349 0.052769
vt 0.197292 0.046548
vt 0.193845 0.042102
vt 0.196460 0.042208
vt 0.191712 0.051758
vt 0.193798 0.045596
vt 0.195932 0.051327
vt 0.187606 0.052479
vt 0.184405 0.047758
vt 0.187979 0.048322
vt 0.185942 0.037728
vt 0.184217 0.032514
vt 0.184670 0.032399
vt 0.197539 0.036025
vt 0.197238 0.032791
vt 0.198263 0.032297
vt 0.192307 0.030615
vt 0.192356 0.026946
vt 0.193507 0.030350
vt 0.187770 0.045725
vt 0.184586 0.045436
vt 0.191970 0.039292
vt 0.191042 0.035963
vt 0.192041 0.036179
vt 0.192010 0.071040
vt 0.192476 0.071483
vt 0.192043 0.071483
vt 0.196519 0.027044
vt 0.196976 0.026909
vt 0.191349 0.026531
vt 0.192795 0.021133
vt 0.192557 0.030399
vt 0.190400 0.043172
vt 0.193174 0.042485
vt 0.185200 0.041734
vt 0.184862 0.038051
vt 0.194448 0.034619
vt 0.195917 0.033696
vt 0.196202 0.039893
vt 0.196091 0.035782
vt 0.181903 0.057106
vt 0.195899 0.055108
vt 0.195040 0.051942
vt 0.195368 0.045169
vt 0.196646 0.055480
vt 0.192401 0.057413
vt 0.196543 0.063375
vt 0.189771 0.064789
vt 0.181300 0.068155
vt 0.191467 0.068155
vt 0.193509 0.060122
vt 0.201526 0.062404
vt 0.196202 0.052727
vt 0.199520 0.048111
vt 0.200650 0.054242
vt 0.186866 0.060221
vt 0.191392 0.055976
vt 0.190246 0.059823
vt 0.181468 0.049426
vt 0.185157 0.044400
vt 0.186163 0.048122
vt 0.188892 0.040422
vt 0.191874 0.044009
vt 0.188188 0.043349
vt 0.193782 0.042159
vt 0.191123 0.038719
vt 0.192697 0.037735
vt 0.190256 0.045592
vt 0.192159 0.048743
vt 0.188393 0.049564
vt 0.197807 0.044252
vt 0.196764 0.041462
vt 0.198504 0.042569
vt 0.188154 0.036643
vt 0.188934 0.032746
vt 0.190068 0.035898
vt 0.185957 0.040913
vt 0.184923 0.038118
vt 0.186866 0.037522
vt 0.184388 0.029081
vt 0.184403 0.025006
vt 0.184554 0.024987
vt 0.201304 0.037728
vt 0.200754 0.034000
vt 0.201472 0.033697
vt 0.188557 0.034208
vt 0.189131 0.030659
vt 0.189818 0.034268
vt 0.184795 0.032906
vt 0.183437 0.032963
vt 0.185652 0.045442
vt 0.184524 0.041881
vt 0.185218 0.041726
vt 0.192511 0.068784
vt 0.192652 0.068937
vt 0.192512 0.068931
vt 0.199760 0.029566
vt 0.199909 0.029533
vt 0.188446 0.030357
vt 0.190240 0.026143
vt 0.184599 0.037316
vt 0.193953 0.060148
vt 0.192731 0.056395
vt 0.193953 0.056275
vt 0.183637 0.028943
vt 0.199935 0.037741
vt 0.181670 0.043481
vt 0.191368 0.039956
vt 0.195955 0.048676
vt 0.192861 0.045796
vt 0.191687 0.042008
vt 0.189837 0.053962
vt 0.193782 0.053224
vt 0.187331 0.047662
vt 0.190625 0.048399
vt 0.186866 0.052603
vt 0.182023 0.054286
vt 0.194404 0.057131
vt 0.201472 0.059240
vt 0.182565 0.043158
vt 0.188568 0.041640
vt 0.188593 0.045224
vt 0.188918 0.049501
vt 0.194717 0.057074
vt 0.188918 0.058595
vt 0.198240 0.053913
vt 0.201567 0.048821
vt 0.203491 0.050903
vt 0.195241 0.043518
vt 0.196916 0.048139
vt 0.193186 0.046381
vt 0.189158 0.053703
vt 0.193247 0.055682
vt 0.188723 0.056544
vt 0.184394 0.040205
vt 0.186760 0.036270
vt 0.196643 0.040621
vt 0.198326 0.043909
vt 0.198808 0.044354
vt 0.201570 0.043850
vt 0.190012 0.041342
vt 0.188745 0.037740
vt 0.191526 0.037502
vt 0.193235 0.060024
vt 0.188723 0.061789
vt 0.195283 0.051798
vt 0.189841 0.049122
vt 0.206437 0.055281
vt 0.200324 0.059241
vt 0.181300 0.045657
vt 0.189546 0.049228
vt 0.189165 0.033823
vt 0.187857 0.030932
vt 0.189075 0.030641
vt 0.187800 0.030722
vt 0.186873 0.027560
vt 0.188215 0.027801
vt 0.192461 0.035831
vt 0.192373 0.032555
vt 0.194144 0.035346
vt 0.203176 0.040611
vt 0.203731 0.037278
vt 0.205006 0.037636
vt 0.205754 0.032446
vt 0.206133 0.030255
vt 0.206437 0.030159
vt 0.189005 0.025594
vt 0.188778 0.022882
vt 0.189546 0.022925
vt 0.187141 0.028879
vt 0.187578 0.026721
vt 0.188096 0.028816
vt 0.204352 0.035135
vt 0.190828 0.030244
vt 0.191139 0.027612
vt 0.191753 0.030290
vt 0.189037 0.020201
vt 0.188742 0.020387
vt 0.188731 0.020192
vt 0.189062 0.020413
vt 0.187467 0.024603
vt 0.187774 0.024594
vt 0.190443 0.027565
vt 0.190116 0.025497
vt 0.191274 0.032718
vt 0.204994 0.032496
vt 0.205375 0.035077
vt 0.187978 0.025475
vt 0.201828 0.039626
vt 0.194959 0.039372
vt 0.185811 0.030634
vt 0.184975 0.049777
vt 0.196968 0.039870
vt 0.197156 0.035323
vt 0.200317 0.033159
vt 0.196709 0.023831
vt 0.192534 0.024426
vt 0.188863 0.033047
vt 0.192374 0.056176
vt 0.196638 0.049707
vt 0.189266 0.035491
vt 0.192145 0.038729
vt 0.189769 0.029142
vt 0.197448 0.036082
vt 0.201685 0.028006
vt 0.192495 0.043939
vt 0.186347 0.040045
vt 0.196420 0.049571
vt 0.205537 0.066215
vt 0.196222 0.044583
vt 0.193985 0.035451
vt 0.190821 0.037149
vt 0.189262 0.048541
vt 0.186056 0.038175
vt 0.200472 0.022026
vt 0.186278 0.058064
vt 0.200739 0.030229
vt 0.190630 0.035907
vt 0.192359 0.068459
vt 0.195662 0.020808
vt 0.193997 0.056109
vt 0.199290 0.046634
vt 0.194592 0.037217
vt 0.193509 0.048053
vt 0.190697 0.046518
vt 0.182117 0.052007
vt 0.189771 0.039463
vt 0.192477 0.071001
vt 0.192360 0.021045
vt 0.192140 0.030327
vt 0.187638 0.041640
vt 0.194400 0.038972
vt 0.186866 0.052844
vt 0.195181 0.044625
vt 0.187331 0.032185
vt 0.183518 0.039870
vt 0.184426 0.045442
vt 0.192662 0.068784
vt 0.190098 0.026105
vt 0.184462 0.037302
vt 0.192257 0.060344
vt 0.195496 0.052242
vt 0.197218 0.049522
vt 0.192068 0.052338
vt 0.184223 0.036252
vt 0.186849 0.041390
vt 0.187233 0.034373
vt 0.186849 0.026747
vt 0.189841 0.025413
s 0
usemtl Material
f 11/1/1 6/2/1 9/3/1
f 1/4/2 3/5/2 4/6/2
f 9/7/3 8/8/3 10/9/3
f 7/10/4 11/11/4 12/12/4
f 8/13/5 12/14/5 10/15/5
f 5/16/6 16/17/6 6/2/6
f 7/10/7 13/18/7 5/19/7
f 8/8/8 16/20/8 18/21/8
f 7/22/9 18/23/9 17/24/9
f 3/25/10 12/14/10 4/26/10
f 12/12/11 1/27/11 4/28/11
f 2/29/12 10/9/12 3/30/12
f 11/1/13 2/31/13 1/32/13
f 33/33/14 23/34/14 15/35/14
f 36/36/15 19/37/15 22/38/15
f 33/39/16 19/40/16 34/41/16
f 35/42/17 22/43/17 23/44/17
f 24/45/18 27/46/18 28/47/18
f 30/48/19 20/49/19 21/50/19
f 32/51/20 14/52/20 29/53/20
f 32/54/21 22/43/21 30/55/21
f 29/56/22 20/57/22 31/58/22
f 28/59/23 26/60/23 25/61/23
f 20/49/24 27/62/24 21/50/24
f 14/52/25 28/63/25 25/64/25
f 14/65/26 26/66/26 20/57/26
f 15/67/27 31/58/27 19/40/27
f 21/68/28 32/54/28 30/55/28
f 23/34/29 29/53/29 15/35/29
f 22/38/30 31/69/30 30/48/30
f 16/20/31 35/42/31 18/21/31
f 17/70/32 34/41/32 13/18/32
f 13/71/33 36/36/33 16/17/33
f 17/24/34 35/72/34 33/33/34
f 63/73/35 40/74/35 61/75/35
f 61/76/36 42/77/36 62/78/36
f 41/79/37 63/80/37 64/81/37
f 59/82/38 39/83/38 57/84/38
f 42/85/39 64/86/39 62/87/39
f 60/88/40 43/89/40 46/90/40
f 57/91/41 43/92/41 58/93/41
f 59/94/42 46/95/42 47/96/42
f 45/97/43 52/98/43 48/99/43
f 54/100/44 44/101/44 45/102/44
f 56/103/45 38/104/45 53/105/45
f 68/106/46 46/95/46 65/107/46
f 55/108/47 38/109/47 44/110/47
f 52/111/48 50/112/48 49/113/48
f 45/102/49 50/114/49 51/115/49
f 38/104/50 52/116/50 49/117/50
f 44/110/51 49/113/51 50/112/51
f 66/118/52 55/108/52 67/119/52
f 48/99/53 54/120/53 45/97/53
f 66/121/54 56/103/54 53/105/54
f 67/122/55 54/100/55 65/123/55
f 42/77/56 60/124/56 59/94/56
f 41/79/57 58/93/57 37/125/57
f 37/126/58 60/88/58 40/74/58
f 41/127/59 59/82/59 57/84/59
f 62/87/60 71/128/60 70/129/60
f 64/81/61 72/130/61 71/131/61
f 69/132/62 62/78/62 70/133/62
f 72/134/63 61/75/63 69/135/63
f 46/90/64 67/122/64 65/123/64
f 47/136/65 66/121/65 39/83/65
f 43/92/66 66/118/66 67/119/66
f 54/120/67 68/137/67 65/138/67
f 76/139/68 69/135/68 73/140/68
f 73/141/69 70/133/69 74/142/69
f 71/131/70 76/143/70 75/144/70
f 70/129/71 75/145/71 74/146/71
f 78/147/72 90/148/72 77/149/72
f 80/150/73 91/151/73 78/152/73
f 76/143/74 83/153/74 75/144/74
f 76/139/75 79/154/75 84/155/75
f 80/156/76 83/157/76 82/158/76
f 82/158/77 84/159/77 77/160/77
f 79/161/78 80/150/78 78/152/78
f 84/162/79 78/163/79 77/164/79
f 82/165/80 90/166/80 88/167/80
f 80/156/81 88/168/81 92/169/81
f 74/142/82 79/161/82 73/141/82
f 75/145/83 81/170/83 74/146/83
f 85/171/2 89/172/2 87/173/2
f 86/174/2 92/175/2 89/172/2
f 87/173/2 90/148/2 85/171/2
f 87/173/2 92/175/2 88/176/2
f 85/171/2 91/177/2 86/174/2
f 103/178/84 98/179/84 101/180/84
f 94/181/2 96/182/2 93/183/2
f 101/184/85 100/185/85 102/186/85
f 99/187/86 103/188/86 104/189/86
f 100/190/87 104/191/87 102/192/87
f 97/193/88 108/194/88 98/179/88
f 97/195/89 109/196/89 105/197/89
f 98/198/90 110/199/90 100/185/90
f 99/200/91 110/201/91 109/202/91
f 102/192/92 96/203/92 95/204/92
f 96/203/93 103/205/93 93/206/93
f 101/184/94 95/207/94 94/208/94
f 93/209/95 101/180/95 94/210/95
f 125/211/96 115/212/96 107/213/96
f 128/214/97 111/215/97 114/216/97
f 126/217/98 107/218/98 111/219/98
f 128/220/99 115/221/99 127/222/99
f 113/223/100 120/224/100 116/225/100
f 122/226/101 112/227/101 113/228/101
f 124/229/102 106/230/102 121/231/102
f 122/232/103 115/221/103 114/233/103
f 123/234/104 106/235/104 112/236/104
f 120/237/105 118/238/105 117/239/105
f 112/227/106 119/240/106 113/228/106
f 106/230/107 120/241/107 117/242/107
f 112/236/108 117/243/108 118/244/108
f 107/218/109 123/234/109 111/219/109
f 116/225/110 122/232/110 113/223/110
f 115/245/111 121/246/111 107/247/111
f 114/216/112 123/248/112 122/226/112
f 108/249/113 127/222/113 110/199/113
f 105/197/114 125/250/114 126/217/114
f 108/194/115 126/251/115 128/214/115
f 109/202/116 127/252/116 125/211/116
f 159/253/117 136/254/117 157/255/117
f 130/256/2 132/257/2 129/258/2
f 157/259/118 138/260/118 158/261/118
f 137/262/119 159/263/119 160/264/119
f 155/265/120 135/266/120 153/267/120
f 138/268/121 160/269/121 158/270/121
f 156/271/122 139/272/122 142/273/122
f 153/274/123 139/275/123 154/276/123
f 155/277/124 142/278/124 143/279/124
f 144/280/125 147/281/125 148/282/125
f 150/283/126 140/284/126 141/285/126
f 152/286/127 134/287/127 149/288/127
f 164/289/128 142/278/128 161/290/128
f 151/291/129 134/292/129 140/293/129
f 148/294/130 146/295/130 145/296/130
f 141/285/131 146/297/131 147/298/131
f 144/299/132 145/300/132 134/287/132
f 134/292/133 146/301/133 140/293/133
f 162/302/134 151/291/134 163/303/134
f 144/280/135 150/304/135 141/305/135
f 164/306/136 149/288/136 162/307/136
f 161/308/137 151/309/137 150/283/137
f 136/310/138 155/277/138 138/260/138
f 133/311/139 153/274/139 154/276/139
f 133/312/140 156/271/140 136/254/140
f 137/313/141 155/265/141 153/267/141
f 158/270/142 132/314/142 131/315/142
f 160/264/143 129/316/143 132/317/143
f 130/318/144 158/261/144 131/319/144
f 129/320/145 157/255/145 130/321/145
f 139/272/146 161/308/146 142/273/146
f 135/266/147 164/306/147 162/307/147
f 139/275/148 162/302/148 163/303/148
f 150/304/149 164/289/149 161/290/149
f 195/322/150 172/323/150 193/324/150
f 165/325/2 167/326/2 168/327/2
f 193/328/151 174/329/151 194/330/151
f 173/331/152 195/332/152 196/333/152
f 189/334/153 179/335/153 171/336/153
f 174/337/154 196/338/154 194/339/154
f 192/340/155 175/341/155 178/342/155
f 189/343/156 175/344/156 190/345/156
f 191/346/157 178/347/157 179/348/157
f 180/349/158 183/350/158 184/351/158
f 186/352/159 176/353/159 177/354/159
f 188/355/160 170/356/160 185/357/160
f 188/358/161 178/347/161 186/359/161
f 187/360/162 170/361/162 176/362/162
f 184/363/163 182/364/163 181/365/163
f 177/354/164 182/366/164 183/367/164
f 180/368/165 181/369/165 170/356/165
f 170/361/166 182/370/166 176/362/166
f 175/371/167 185/372/167 187/373/167
f 180/349/168 186/359/168 177/374/168
f 179/335/169 185/357/169 171/336/169
f 178/342/170 187/375/170 186/352/170
f 172/376/171 191/346/171 174/329/171
f 169/377/172 189/343/172 190/345/172
f 169/378/173 192/340/173 172/323/173
f 173/379/174 191/380/174 189/334/174
f 167/381/175 196/338/175 168/382/175
f 168/383/176 195/332/176 165/384/176
f 193/328/177 167/385/177 166/386/177
f 165/387/178 193/324/178 166/388/178
f 207/389/179 202/390/179 205/391/179
f 198/392/2 200/393/2 197/394/2
f 205/395/180 204/396/180 206/397/180
f 203/398/181 207/399/181 208/400/181
f 204/401/182 208/402/182 206/403/182
f 201/404/183 212/405/183 202/390/183
f 203/398/184 209/406/184 201/407/184
f 204/396/185 212/408/185 214/409/185
f 203/410/186 214/411/186 213/412/186
f 206/403/187 200/413/187 199/414/187
f 208/400/188 197/415/188 200/416/188
f 205/395/189 199/417/189 198/418/189
f 197/419/190 205/391/190 198/420/190
f 229/421/191 219/422/191 211/423/191
f 232/424/192 215/425/192 218/426/192
f 229/427/193 215/428/193 230/429/193
f 231/430/194 218/431/194 219/432/194
f 220/433/195 223/434/195 224/435/195
f 226/436/196 216/437/196 217/438/196
f 228/439/197 210/440/197 225/441/197
f 226/442/198 219/432/198 218/431/198
f 225/443/199 216/444/199 227/445/199
f 224/446/200 222/447/200 221/448/200
f 216/437/201 223/449/201 217/438/201
f 210/440/202 224/450/202 221/451/202
f 210/452/203 222/453/203 216/444/203
f 211/454/204 227/445/204 215/428/204
f 217/455/205 228/456/205 226/442/205
f 219/422/206 225/441/206 211/423/206
f 218/426/207 227/457/207 226/436/207
f 214/409/208 232/458/208 231/430/208
f 213/459/209 230/429/209 209/406/209
f 212/405/210 230/460/210 232/424/210
f 214/411/211 229/421/211 213/412/211
f 11/1/212 5/16/212 6/2/212
f 1/4/2 2/461/2 3/5/2
f 9/7/213 6/462/213 8/8/213
f 7/10/214 5/19/214 11/11/214
f 8/13/215 7/22/215 12/14/215
f 5/16/216 13/71/216 16/17/216
f 7/10/217 17/70/217 13/18/217
f 8/8/218 6/462/218 16/20/218
f 7/22/219 8/13/219 18/23/219
f 3/25/220 10/15/220 12/14/220
f 12/12/221 11/11/221 1/27/221
f 2/29/222 9/7/222 10/9/222
f 11/1/223 9/3/223 2/31/223
f 33/33/224 35/72/224 23/34/224
f 36/36/225 34/463/225 19/37/225
f 33/39/226 15/67/226 19/40/226
f 35/42/227 36/464/227 22/43/227
f 24/45/228 21/68/228 27/46/228
f 30/48/229 31/69/229 20/49/229
f 32/51/230 24/465/230 14/52/230
f 32/54/231 23/44/231 22/43/231
f 29/56/232 14/65/232 20/57/232
f 28/59/233 27/62/233 26/60/233
f 20/49/234 26/60/234 27/62/234
f 14/52/235 24/465/235 28/63/235
f 14/65/236 25/466/236 26/66/236
f 15/67/237 29/56/237 31/58/237
f 21/68/238 24/45/238 32/54/238
f 23/34/239 32/51/239 29/53/239
f 22/38/240 19/37/240 31/69/240
f 16/20/241 36/464/241 35/42/241
f 17/70/242 33/39/242 34/41/242
f 13/71/243 34/463/243 36/36/243
f 17/24/244 18/23/244 35/72/244
f 63/73/245 37/126/245 40/74/245
f 61/76/246 40/467/246 42/77/246
f 41/79/247 37/125/247 63/80/247
f 59/82/248 47/136/248 39/83/248
f 42/85/249 41/127/249 64/86/249
f 60/88/250 58/468/250 43/89/250
f 57/91/251 39/469/251 43/92/251
f 59/94/252 60/124/252 46/95/252
f 45/97/253 51/470/253 52/98/253
f 54/100/254 55/471/254 44/101/254
f 56/103/255 48/472/255 38/104/255
f 68/106/256 47/96/256 46/95/256
f 55/108/257 53/473/257 38/109/257
f 52/111/258 51/474/258 50/112/258
f 45/102/259 44/101/259 50/114/259
f 38/104/260 48/472/260 52/116/260
f 44/110/261 38/109/261 49/113/261
f 66/118/262 53/473/262 55/108/262
f 48/99/263 56/475/263 54/120/263
f 66/121/264 68/476/264 56/103/264
f 67/122/265 55/471/265 54/100/265
f 42/77/266 40/467/266 60/124/266
f 41/79/267 57/91/267 58/93/267
f 37/126/268 58/468/268 60/88/268
f 41/127/269 42/85/269 59/82/269
f 62/87/270 64/86/270 71/128/270
f 64/81/271 63/80/271 72/130/271
f 69/132/272 61/76/272 62/78/272
f 72/134/273 63/73/273 61/75/273
f 46/90/274 43/89/274 67/122/274
f 47/136/275 68/476/275 66/121/275
f 43/92/276 39/469/276 66/118/276
f 54/120/277 56/475/277 68/137/277
f 76/139/278 72/134/278 69/135/278
f 73/141/279 69/132/279 70/133/279
f 71/131/280 72/130/280 76/143/280
f 70/129/281 71/128/281 75/145/281
f 78/147/282 91/177/282 90/148/282
f 80/150/283 92/477/283 91/151/283
f 76/143/284 84/478/284 83/153/284
f 76/139/285 73/140/285 79/154/285
f 80/156/286 81/170/286 83/157/286
f 82/158/287 83/157/287 84/159/287
f 79/161/288 81/479/288 80/150/288
f 84/162/289 79/480/289 78/163/289
f 82/165/290 77/481/290 90/166/290
f 80/156/291 82/158/291 88/168/291
f 74/142/292 81/479/292 79/161/292
f 75/145/293 83/157/293 81/170/293
f 85/171/2 86/174/2 89/172/2
f 86/174/2 91/177/2 92/175/2
f 87/173/2 88/176/2 90/148/2
f 87/173/2 89/172/2 92/175/2
f 85/171/2 90/148/2 91/177/2
f 103/178/294 97/193/294 98/179/294
f 94/181/2 95/482/2 96/182/2
f 101/184/295 98/198/295 100/185/295
f 99/187/296 97/195/296 103/188/296
f 100/190/297 99/200/297 104/191/297
f 97/193/298 105/483/298 108/194/298
f 97/195/299 99/187/299 109/196/299
f 98/198/300 108/249/300 110/199/300
f 99/200/301 100/190/301 110/201/301
f 102/192/302 104/191/302 96/203/302
f 96/203/303 104/191/303 103/205/303
f 101/184/304 102/186/304 95/207/304
f 93/209/305 103/178/305 101/180/305
f 125/211/306 127/252/306 115/212/306
f 128/214/307 126/251/307 111/215/307
f 126/217/308 125/250/308 107/218/308
f 128/220/309 114/233/309 115/221/309
f 113/223/310 119/484/310 120/224/310
f 122/226/311 123/248/311 112/227/311
f 124/229/312 116/485/312 106/230/312
f 122/232/313 124/486/313 115/221/313
f 123/234/314 121/487/314 106/235/314
f 120/237/315 119/488/315 118/238/315
f 112/227/316 118/489/316 119/240/316
f 106/230/317 116/485/317 120/241/317
f 112/236/318 106/235/318 117/243/318
f 107/218/319 121/487/319 123/234/319
f 116/225/320 124/486/320 122/232/320
f 115/245/321 124/490/321 121/246/321
f 114/216/322 111/215/322 123/248/322
f 108/249/323 128/220/323 127/222/323
f 105/197/324 109/196/324 125/250/324
f 108/194/325 105/483/325 126/251/325
f 109/202/326 110/201/326 127/252/326
f 159/253/327 133/312/327 136/254/327
f 130/256/2 131/491/2 132/257/2
f 157/259/328 136/310/328 138/260/328
f 137/262/329 133/311/329 159/263/329
f 155/265/330 143/492/330 135/266/330
f 138/268/331 137/313/331 160/269/331
f 156/271/332 154/493/332 139/272/332
f 153/274/333 135/494/333 139/275/333
f 155/277/334 156/495/334 142/278/334
f 144/280/335 141/305/335 147/281/335
f 150/283/336 151/309/336 140/284/336
f 152/286/337 144/299/337 134/287/337
f 164/289/338 143/279/338 142/278/338
f 151/291/339 149/496/339 134/292/339
f 148/294/130 147/497/130 146/295/130
f 141/285/340 140/284/340 146/297/340
f 144/299/341 148/498/341 145/300/341
f 134/292/342 145/499/342 146/301/342
f 162/302/343 149/496/343 151/291/343
f 144/280/344 152/500/344 150/304/344
f 164/306/345 152/286/345 149/288/345
f 161/308/346 163/501/346 151/309/346
f 136/310/347 156/495/347 155/277/347
f 133/311/348 137/262/348 153/274/348
f 133/312/349 154/493/349 156/271/349
f 137/313/350 138/268/350 155/265/350
f 158/270/351 160/269/351 132/314/351
f 160/264/352 159/263/352 129/316/352
f 130/318/353 157/259/353 158/261/353
f 129/320/354 159/253/354 157/255/354
f 139/272/355 163/501/355 161/308/355
f 135/266/356 143/492/356 164/306/356
f 139/275/357 135/494/357 162/302/357
f 150/304/358 152/500/358 164/289/358
f 195/322/359 169/378/359 172/323/359
f 165/325/2 166/502/2 167/326/2
f 193/328/360 172/376/360 174/329/360
f 173/331/361 169/377/361 195/332/361
f 189/334/362 191/380/362 179/335/362
f 174/337/363 173/379/363 196/338/363
f 192/340/364 190/503/364 175/341/364
f 189/343/365 171/504/365 175/344/365
f 191/346/366 192/505/366 178/347/366
f 180/349/367 177/374/367 183/350/367
f 186/352/368 187/375/368 176/353/368
f 188/355/369 180/368/369 170/356/369
f 188/358/370 179/348/370 178/347/370
f 187/360/371 185/506/371 170/361/371
f 184/363/372 183/507/372 182/364/372
f 177/354/373 176/353/373 182/366/373
f 180/368/374 184/508/374 181/369/374
f 170/361/375 181/509/375 182/370/375
f 175/371/376 171/510/376 185/372/376
f 180/349/377 188/358/377 186/359/377
f 179/335/378 188/355/378 185/357/378
f 178/342/379 175/341/379 187/375/379
f 172/376/380 192/505/380 191/346/380
f 169/377/381 173/331/381 189/343/381
f 169/378/382 190/503/382 192/340/382
f 173/379/383 174/337/383 191/380/383
f 167/381/384 194/339/384 196/338/384
f 168/383/385 196/333/385 195/332/385
f 193/328/386 194/330/386 167/385/386
f 165/387/387 195/322/387 193/324/387
f 207/389/388 201/404/388 202/390/388
f 198/392/2 199/511/2 200/393/2
f 205/395/389 202/512/389 204/396/389
f 203/398/390 201/407/390 207/399/390
f 204/401/391 203/513/391 208/402/391
f 201/404/392 209/514/392 212/405/392
f 203/398/393 213/459/393 209/406/393
f 204/396/394 202/512/394 212/408/394
f 203/410/395 204/515/395 214/411/395
f 206/403/396 208/402/396 200/413/396
f 208/400/397 207/399/397 197/415/397
f 205/395/398 206/397/398 199/417/398
f 197/419/399 207/389/399 205/391/399
f 229/421/400 231/516/400 219/422/400
f 232/424/401 230/460/401 215/425/401
f 229/427/402 211/454/402 215/428/402
f 231/430/403 232/458/403 218/431/403
f 220/433/404 217/455/404 223/434/404
f 226/436/405 227/457/405 216/437/405
f 228/439/406 220/517/406 210/440/406
f 226/442/407 228/456/407 219/432/407
f 225/443/408 210/452/408 216/444/408
f 224/446/409 223/449/409 222/447/409
f 216/437/410 222/447/410 223/449/410
f 210/440/411 220/517/411 224/450/411
f 210/452/412 221/518/412 222/453/412
f 211/454/413 225/443/413 227/445/413
f 217/455/414 220/433/414 228/456/414
f 219/422/415 228/439/415 225/441/415
f 218/426/416 215/425/416 227/457/416
f 214/409/417 212/408/417 232/458/417
f 213/459/418 229/427/418 230/429/418
f 212/405/419 209/514/419 230/460/419
f 214/411/420 231/516/420 229/421/420
