# Blender 4.2.1 LTS
# www.blender.org
mtllib grass_green_3.mtl
g grass_green_3_Mesh
v 0.012135 0.000000 -0.033574
v 0.003240 0.000000 0.017987
v -0.042935 0.000000 -0.002324
v -0.023624 0.000000 -0.030392
v 0.002943 0.053320 -0.049592
v -0.003292 0.057158 -0.015237
v -0.020481 0.045027 -0.048975
v -0.033682 0.044146 -0.027178
v -0.001657 0.029258 -0.005017
v -0.040828 0.028928 -0.022055
v 0.005341 0.031655 -0.046938
v -0.024048 0.030780 -0.047149
v -0.008719 0.089474 -0.056016
v -0.095143 0.157873 -0.032934
v -0.055064 0.138561 -0.047422
v -0.014465 0.089911 -0.029749
v -0.025288 0.080125 -0.056464
v -0.035463 0.076692 -0.040163
v -0.045200 0.142903 -0.041790
v -0.091587 0.160583 -0.030335
v -0.093353 0.158442 -0.025408
v -0.048290 0.137181 -0.028558
v -0.058397 0.130563 -0.036952
v -0.097125 0.155599 -0.028420
v -0.107900 0.186595 -0.025468
v -0.106589 0.187739 -0.024181
v -0.107285 0.186511 -0.022282
v -0.108675 0.185324 -0.023751
v -0.078092 0.142021 -0.041351
v -0.076945 0.143167 -0.027660
v -0.074315 0.148352 -0.035958
v -0.080892 0.136611 -0.034200
v -0.039493 0.109589 -0.057845
v -0.031410 0.122768 -0.051551
v -0.041585 0.099088 -0.038361
v -0.037178 0.115193 -0.032308
v -0.008873 0.060588 -0.001276
v -0.058466 0.178588 0.047110
v -0.001274 0.112630 0.024504
v -0.000055 0.069900 -0.021895
v 0.009941 0.068049 0.009891
v 0.021898 0.072708 0.002161
v -0.016528 0.110540 0.013617
v -0.061967 0.175753 0.044273
v -0.062330 0.179951 0.040255
v -0.012316 0.119099 0.002156
v 0.003679 0.120571 0.015484
v -0.058529 0.182845 0.043488
v -0.082794 0.185140 0.054746
v -0.083610 0.183923 0.053068
v -0.083773 0.185890 0.051640
v -0.082884 0.187126 0.053513
v -0.042921 0.163796 0.045886
v -0.050236 0.164706 0.032975
v -0.050611 0.159769 0.038595
v -0.042069 0.168501 0.041632
v 0.005296 0.082463 0.017337
v -0.014115 0.078129 0.007725
v 0.012451 0.091155 0.008596
v -0.009615 0.088909 -0.009490
v 0.012170 0.052504 -0.033603
v 0.042634 0.052165 -0.001883
v -0.002020 0.055436 -0.003348
v 0.025822 0.054534 0.008505
v -0.028975 0.143700 0.014922
v -0.020151 0.141858 0.032492
v -0.031522 0.138215 0.023449
v -0.016896 0.146822 0.025801
v 0.015427 0.039327 -0.038929
v 0.048401 0.039157 -0.004442
v 0.031417 0.040342 0.005657
v 0.001340 0.040793 -0.006766
v 0.025633 0.027687 -0.041037
v 0.047336 0.028846 -0.002682
v 0.044677 0.028251 0.009819
v 0.010057 0.028501 -0.004284
v -0.011799 0.014365 0.001640
v 0.024440 0.014365 -0.040009
v 0.027497 0.019453 -0.039492
v 0.055570 0.014365 -0.002412
v 0.051158 0.024944 -0.004323
v 0.027085 0.010840 0.020403
v 0.042940 0.020749 0.015612
v -0.000070 0.019453 -0.003775
v 0.027203 0.000000 -0.007701
v 0.046656 0.000000 -0.022226
v 0.043638 0.000000 0.005650
v 0.046428 0.000000 0.022802
v 0.048998 0.000000 -0.004430
v 0.008991 0.000000 0.001344
v 0.046004 0.000000 -0.027584
v 0.056958 0.000000 -0.002557
v 0.025112 0.000000 -0.068343
v 0.050356 0.000000 -0.017904
v -0.017946 0.000000 -0.009799
v -0.014690 0.000000 -0.041821
v 0.027567 0.055849 -0.075246
v 0.008651 0.186948 -0.092454
v -0.006490 0.114366 -0.092949
v 0.042558 0.068297 -0.047738
v 0.000539 0.065822 -0.062520
v -0.000775 0.072050 -0.043531
v 0.014797 0.117742 -0.098101
v 0.015286 0.184712 -0.093140
v 0.017750 0.189835 -0.087957
v 0.020905 0.121973 -0.081991
v -0.003022 0.118238 -0.078231
v 0.010473 0.192043 -0.087428
v 0.015815 0.221090 -0.111249
v 0.018613 0.220287 -0.111522
v 0.019378 0.222035 -0.108886
v 0.016301 0.222762 -0.108802
v -0.003422 0.164251 -0.089467
v 0.015631 0.164376 -0.084540
v 0.011040 0.163288 -0.093287
v -0.000575 0.165462 -0.081544
v -0.000822 0.080166 -0.081232
v 0.025279 0.078063 -0.093086
v 0.000949 0.092676 -0.066787
v 0.037327 0.094752 -0.074620
v 0.047836 0.031320 -0.023363
v -0.010518 0.030867 -0.016194
v 0.026841 0.034311 -0.065890
v -0.008156 0.034034 -0.042508
v 0.018981 0.136530 -0.087692
v -0.005675 0.137034 -0.095528
v 0.013317 0.139168 -0.099865
v -0.002291 0.134790 -0.084241
v -0.004315 0.000000 0.036732
v 0.030933 0.000000 0.003447
v 0.041282 0.000000 0.044166
v 0.014534 0.000000 0.054244
v -0.003244 0.063204 0.043728
v 0.016026 0.071054 0.027402
v 0.011147 0.053252 0.050942
v 0.028944 0.055719 0.044676
v 0.023272 0.050303 0.006412
v 0.043805 0.036132 0.039600
v -0.006608 0.041486 0.033639
v 0.016127 0.034050 0.049279
v -0.002506 0.077882 0.059309
v 0.046013 0.169642 0.082191
v 0.027804 0.118661 0.086411
v 0.015901 0.080153 0.042155
v 0.011240 0.072198 0.069223
v 0.028239 0.071369 0.062394
v 0.023089 0.120136 0.078757
v 0.044120 0.169538 0.079682
v 0.046807 0.169706 0.077542
v 0.031680 0.119210 0.071877
v 0.036148 0.115767 0.081345
v 0.048744 0.169811 0.080343
v 0.048302 0.192060 0.092060
v 0.047301 0.191578 0.090622
v 0.048901 0.191588 0.089443
v 0.049918 0.192109 0.091047
v 0.038916 0.143104 0.080840
v 0.040141 0.142925 0.074224
v 0.036245 0.143031 0.077270
v 0.042778 0.143014 0.078370
v 0.016776 0.098300 0.080002
v 0.008374 0.105406 0.073557
v 0.028224 0.097782 0.067464
v 0.020508 0.107928 0.062812
v 0.057829 0.000000 0.005421
v 0.014993 0.000000 -0.020124
v 0.048854 0.000000 -0.035563
v 0.067224 0.000000 -0.015584
v 0.068189 0.057248 0.000251
v 0.088069 0.152765 -0.038476
v 0.098324 0.099727 -0.028014
v 0.050086 0.067761 -0.012368
v 0.071973 0.051125 -0.015476
v 0.062117 0.055291 -0.029630
v 0.090265 0.099551 -0.019541
v 0.085922 0.154737 -0.034629
v 0.083022 0.157897 -0.037704
v 0.079550 0.095171 -0.027728
v 0.090251 0.095063 -0.036493
v 0.085462 0.155635 -0.041738
v 0.104398 0.179738 -0.035947
v 0.103785 0.179874 -0.035237
v 0.103112 0.180341 -0.035872
v 0.103803 0.180175 -0.036614
v 0.085012 0.128231 -0.035598
v 0.073256 0.132624 -0.034426
v 0.080294 0.130087 -0.028962
v 0.078961 0.130397 -0.041295
v 0.089904 0.071258 -0.017776
v 0.087131 0.078697 -0.006304
v 0.080900 0.074876 -0.028149
v 0.073847 0.086079 -0.015844
v 0.029137 0.031239 -0.014656
v 0.049026 0.030951 -0.041235
v 0.054844 0.033332 0.004170
v 0.064217 0.032567 -0.019708
v -0.035653 0.000000 -0.004643
v 0.022953 0.000000 0.014193
v -0.008298 0.000000 0.052786
v -0.037822 0.000000 0.037537
v -0.039477 0.056997 0.001474
v -0.011218 0.060269 0.010828
v -0.041745 0.049927 0.021321
v -0.024917 0.049176 0.035060
v 0.002703 0.033221 0.008832
v -0.018701 0.032905 0.043708
v -0.038166 0.026988 -0.003417
v -0.042299 0.026149 0.024433
v -0.056518 0.069826 0.017707
v -0.087876 0.127297 0.090261
v -0.080256 0.099151 0.070251
v -0.042587 0.079019 0.023239
v -0.065155 0.071296 0.029734
v -0.049423 0.073225 0.039980
v -0.077759 0.103764 0.064705
v -0.086268 0.129299 0.086257
v -0.081953 0.130935 0.088655
v -0.069566 0.105631 0.068583
v -0.072620 0.098839 0.074042
v -0.083868 0.128703 0.092886
v -0.097530 0.137385 0.098234
v -0.096621 0.137816 0.096517
v -0.094798 0.138383 0.097562
v -0.095857 0.137894 0.099376
v -0.082298 0.112754 0.080650
v -0.074172 0.117270 0.078517
v -0.080185 0.115511 0.075372
v -0.076942 0.114112 0.084072
v -0.067780 0.085287 0.056302
v -0.070841 0.092834 0.046480
v -0.055082 0.089884 0.060340
v -0.059732 0.097811 0.052229
vn 0.9781 0.1196 0.1701
vn -0.0000 -1.0000 -0.0000
vn -0.3603 0.4452 0.8198
vn 0.0110 -0.1298 -0.9915
vn -0.8205 0.2057 -0.5334
vn 0.9206 0.3698 0.1257
vn 0.1060 -0.1407 -0.9844
vn -0.4591 0.3074 0.8335
vn -0.8038 -0.2274 -0.5497
vn -0.7831 -0.3105 -0.5388
vn -0.0812 -0.4024 -0.9119
vn -0.3372 0.5463 0.7667
vn 0.9442 0.2861 0.1629
vn -0.8342 -0.2768 -0.4769
vn 0.8558 0.3710 0.3603
vn 0.2223 0.5443 -0.8089
vn -0.3684 -0.2370 0.8989
vn -0.4434 -0.3047 0.8429
vn 0.6296 0.6043 0.4883
vn -0.6864 -0.4249 -0.5902
vn -0.1244 -0.7009 0.7024
vn 0.1472 0.5771 -0.8033
vn -0.7329 0.6615 0.1590
vn 0.8194 0.3567 0.4487
vn -0.8157 -0.2236 -0.5335
vn 0.4251 0.4169 -0.8034
vn 0.0188 0.7757 -0.6309
vn -0.3152 -0.4608 0.8296
vn -0.2761 -0.7194 -0.6374
vn 0.1859 0.8057 0.5624
vn -0.3500 -0.1698 0.9212
vn 0.2452 0.2912 -0.9247
vn 0.6457 0.6245 0.4394
vn -0.8477 -0.4237 -0.3193
vn -0.8589 -0.3557 -0.3684
vn 0.5481 0.6555 -0.5194
vn -0.3535 -0.4967 0.7926
vn 0.7666 0.0145 0.6419
vn 0.5245 0.3793 0.7623
vn -0.9469 0.0385 -0.3193
vn -0.4006 -0.1927 0.8958
vn 0.5817 0.3459 -0.7362
vn -0.1037 0.7985 -0.5929
vn -0.8022 -0.4475 -0.3953
vn 0.5379 0.5097 0.6715
vn 0.4256 0.6269 -0.6526
vn -0.2747 -0.4892 0.8278
vn -0.9287 0.1644 0.3324
vn -0.5072 -0.5334 -0.6770
vn 0.3791 0.5005 0.7784
vn -0.0549 -0.7953 0.6037
vn -0.2868 -0.7077 0.6457
vn 0.2394 0.5664 -0.7886
vn 0.7168 0.3918 0.5769
vn -0.7879 -0.3833 -0.4819
vn 0.5156 0.5054 -0.6918
vn -0.2845 -0.5036 0.8157
vn -0.8819 -0.1525 -0.4460
vn 0.7979 -0.0530 0.6004
vn 0.5132 0.0591 0.8562
vn -0.3658 -0.3197 0.8741
vn 0.6585 0.4154 -0.6276
vn -0.9151 -0.0654 -0.3978
vn -0.8286 -0.3244 -0.4562
vn 0.7122 0.2846 0.6417
vn -0.4345 -0.5013 0.7483
vn 0.2978 0.7775 -0.5539
vn -0.7433 -0.5971 -0.3018
vn 0.8597 -0.1710 -0.4813
vn -0.3761 -0.0952 0.9217
vn 0.9766 -0.0660 0.2046
vn -0.5130 -0.7332 -0.4464
vn 0.6591 0.5174 -0.5457
vn -0.2903 0.6261 0.7237
vn -0.6027 0.6484 -0.4652
vn 0.5479 -0.5901 0.5929
vn -0.1532 0.8639 0.4798
vn 0.7156 -0.3698 -0.5925
vn -0.5227 0.7210 -0.4549
vn -0.4083 -0.5709 0.7123
vn 0.9202 0.0851 0.3821
vn 0.8643 0.1033 -0.4922
vn 0.7400 0.6458 0.1882
vn 0.8791 -0.1684 -0.4459
vn 0.0990 0.5340 0.8397
vn -0.5186 -0.3494 -0.7804
vn -0.9753 -0.0930 0.2002
vn -0.9799 0.1885 -0.0653
vn 0.8247 0.3855 -0.4139
vn -0.4180 -0.2218 -0.8810
vn 0.0771 0.4173 0.9055
vn 0.1510 0.5451 0.8246
vn 0.9377 -0.1217 -0.3254
vn -0.8462 0.4804 0.2306
vn 0.1184 0.3757 0.9192
vn -0.0942 0.0255 -0.9952
vn 0.1724 0.7970 -0.5788
vn 0.9712 -0.1624 -0.1742
vn -0.9630 0.2531 0.0927
vn -0.2346 -0.4288 -0.8724
vn -0.2414 0.2340 -0.9418
vn 0.1091 0.1233 0.9864
vn -0.9570 0.0147 0.2898
vn 0.8661 0.1579 -0.4743
vn 0.1283 0.7372 0.6634
vn -0.3692 -0.6047 -0.7057
vn 0.8950 -0.2183 -0.3890
vn -0.9949 0.0304 0.0957
vn -0.9720 0.2134 -0.0988
vn -0.5523 0.0893 -0.8288
vn 0.1160 0.1747 0.9778
vn 0.8942 -0.0061 -0.4476
vn 0.9362 -0.0139 -0.3513
vn -0.9518 0.0682 0.2989
vn -0.2115 -0.0947 -0.9728
vn 0.1667 -0.0911 0.9818
vn -0.6804 0.3900 -0.6204
vn 0.7548 0.6246 -0.2003
vn -0.6009 -0.2223 0.7678
vn 0.3297 0.0055 0.9441
vn -0.6220 0.6641 -0.4149
vn -0.6448 -0.5409 0.5401
vn 0.8453 0.4167 -0.3345
vn 0.2471 -0.6735 0.6967
vn 0.3501 0.1191 0.9291
vn -0.6742 0.1374 0.7257
vn 0.9645 -0.0983 -0.2451
vn -0.6837 -0.0918 -0.7240
vn 0.3459 -0.4470 0.8250
vn -0.3450 0.7714 -0.5347
vn -0.4910 0.1904 0.8501
vn 0.8954 -0.0534 -0.4420
vn 0.7850 0.2340 -0.5736
vn -0.6133 0.2456 -0.7506
vn 0.5266 -0.1831 0.8302
vn 0.8210 -0.2417 -0.5172
vn -0.7892 0.1811 0.5868
vn -0.1613 0.9642 -0.2106
vn -0.5783 0.4318 -0.6922
vn 0.4973 -0.3916 0.7742
vn -0.7810 -0.1836 0.5970
vn -0.7199 0.4481 0.5300
vn 0.8365 -0.1426 -0.5291
vn 0.5096 -0.0357 0.8597
vn -0.5857 0.2841 -0.7591
vn 0.8677 0.0942 -0.4881
vn -0.6191 -0.1539 0.7701
vn -0.6102 0.5355 -0.5839
vn 0.6683 -0.4006 0.6268
vn -0.5813 0.2857 0.7619
vn -0.6478 0.5825 -0.4910
vn 0.8367 -0.4277 0.3421
vn 0.7629 -0.4064 -0.5027
vn 0.8112 -0.1694 -0.5597
vn -0.5572 0.7666 0.3191
vn 0.9723 0.0022 0.2336
vn -0.6336 -0.0261 -0.7732
vn -0.5504 0.5437 -0.6336
vn -0.5174 0.3037 0.8000
vn 0.6433 -0.1678 -0.7470
vn -0.7838 -0.2345 -0.5750
vn 0.8535 -0.0763 0.5155
vn 0.4252 0.8830 0.1987
vn -0.4877 0.3721 0.7897
vn 0.6026 -0.2953 -0.7414
vn 0.6588 -0.4536 0.6002
vn 0.7961 0.4000 0.4541
vn -0.7740 0.2221 -0.5929
vn 0.6825 0.1272 -0.7197
vn -0.6035 0.0410 0.7963
vn -0.4819 0.5157 -0.7084
vn 0.7220 -0.4877 0.4907
vn -0.2732 0.5092 0.8161
vn 0.5293 -0.5456 -0.6497
vn 0.7360 -0.0177 -0.6767
vn 0.9086 0.0966 0.4064
vn -0.3919 0.3279 -0.8596
vn -0.5105 0.0813 0.8560
vn 0.2531 0.2001 -0.9465
vn 0.7272 0.5175 0.4510
vn -0.9892 0.0038 -0.1467
vn -0.6507 0.1473 0.7449
vn 0.1477 0.7057 -0.6929
vn -0.7393 -0.6032 -0.2994
vn 0.6640 0.5801 0.4718
vn -0.3556 -0.6528 0.6689
vn -0.4566 0.0995 0.8841
vn -0.9799 -0.1930 -0.0504
vn 0.6736 0.4987 0.5455
vn 0.3058 0.0329 -0.9515
vn -0.2947 -0.7965 0.5280
vn -0.0011 0.9019 -0.4319
vn -0.8905 -0.4499 -0.0682
vn 0.6729 0.2555 0.6943
vn 0.6774 0.5078 0.5322
vn 0.1679 0.6472 -0.7436
vn -0.3144 -0.6043 0.7321
vn 0.8902 -0.0353 0.4541
vn -0.9101 -0.0807 -0.4064
vn -0.3290 0.9423 0.0622
vn 0.0377 0.7927 -0.6085
vn -0.2226 -0.7267 0.6499
vn -0.7892 -0.3604 -0.4972
vn -0.9371 0.1080 -0.3320
vn 0.8593 0.1205 0.4971
vn -0.3760 -0.5977 0.7081
vn 0.1750 0.6784 -0.7136
vn 0.8992 0.4263 -0.0989
vn -0.7715 0.2509 -0.5847
vn -0.0704 0.8175 -0.5716
vn -0.1816 -0.8774 0.4441
vn 0.9782 0.1283 0.1632
vn -0.4533 0.2831 0.8452
vn 0.0163 -0.1198 -0.9927
vn -0.8487 0.1474 -0.5080
vn 0.9225 0.3324 0.1963
vn 0.0459 -0.2024 -0.9782
vn -0.5283 0.1867 0.8283
vn -0.8241 -0.2482 -0.5091
vn -0.7804 -0.3072 -0.5445
vn 0.0205 -0.4778 -0.8782
vn -0.3378 0.5470 0.7659
vn 0.9453 0.2762 0.1736
vn -0.8403 -0.4343 -0.3243
vn 0.8351 0.3784 0.3993
vn 0.0941 0.3814 -0.9196
vn -0.4427 -0.3635 0.8197
vn -0.5253 -0.3473 0.7768
vn 0.5938 0.5842 0.5533
vn -0.7143 -0.4467 -0.5388
vn -0.0919 -0.6750 0.7321
vn 0.1526 0.5865 -0.7954
vn 0.7991 0.3271 0.5045
vn -0.8351 -0.2473 -0.4914
vn 0.3427 0.3760 -0.8609
vn -0.0910 0.6766 -0.7307
vn -0.3615 -0.5404 0.7598
vn -0.2709 -0.7137 -0.6460
vn 0.2489 0.8665 0.4328
vn -0.3662 -0.2379 0.8996
vn 0.0420 -0.0266 -0.9988
vn 0.8247 0.5390 0.1714
vn -0.8171 -0.1793 -0.5478
vn -0.6066 -0.5945 -0.5279
vn 0.4875 0.6967 -0.5262
vn -0.2187 -0.6002 0.7694
vn 0.8241 0.1159 0.5545
vn 0.3945 0.3776 0.8377
vn -0.9636 -0.0233 -0.2665
vn -0.5257 -0.3033 0.7948
vn 0.5756 0.3386 -0.7443
vn -0.0494 0.8443 -0.5336
vn -0.8029 -0.4203 -0.4227
vn 0.5479 0.5468 0.6331
vn 0.4698 0.6165 -0.6319
vn -0.4320 -0.5152 0.7402
vn -0.4846 -0.6263 -0.6107
vn 0.3925 0.5994 0.6976
vn 0.0230 -0.7212 0.6923
vn -0.2724 -0.6914 0.6692
vn 0.4401 0.5923 -0.6749
vn 0.7005 0.3662 0.6125
vn -0.8054 -0.4177 -0.4206
vn 0.5331 0.6338 -0.5605
vn -0.2871 -0.5111 0.8102
vn -0.9404 -0.1172 -0.3192
vn 0.5463 -0.0124 0.8375
vn 0.5292 0.0385 0.8476
vn -0.3826 -0.2924 0.8764
vn 0.6580 0.4163 -0.6275
vn -0.9039 -0.1110 -0.4132
vn -0.8225 -0.2673 -0.5020
vn 0.7266 0.3333 0.6008
vn -0.4579 -0.4972 0.7370
vn 0.2777 0.7556 -0.5932
vn -0.7482 -0.5913 -0.3008
vn 0.5769 0.6052 -0.5486
vn -0.3815 -0.0847 0.9205
vn 0.4144 0.6674 0.6187
vn -0.3255 -0.8489 -0.4165
vn 0.9122 0.0922 -0.3993
vn -0.3754 0.4653 0.8016
vn -0.8885 -0.2707 -0.3706
vn 0.8081 0.4129 0.4200
vn -0.2900 0.7510 0.5933
vn 0.7912 0.2273 -0.5678
vn -0.6973 0.4735 -0.5382
vn -0.3947 -0.5858 0.7079
vn 0.3526 0.7523 0.5565
vn 0.5265 0.7115 -0.4653
vn 0.9132 0.0947 0.3964
vn 0.8955 -0.2024 -0.3964
vn 0.1279 0.5585 0.8196
vn -0.4992 -0.3310 -0.8007
vn -0.9698 -0.0432 0.2399
vn -0.9742 0.1857 -0.1283
vn 0.7747 0.1263 -0.6196
vn -0.1689 -0.3444 -0.9235
vn 0.1773 0.3555 0.9177
vn 0.2188 0.5240 0.8232
vn 0.8809 -0.1716 -0.4411
vn -0.9259 0.3750 -0.0444
vn 0.0948 0.3361 0.9371
vn -0.2549 0.0083 -0.9669
vn 0.1724 0.7971 -0.5788
vn 0.9472 -0.2126 -0.2400
vn -0.9752 0.2167 0.0456
vn -0.2106 -0.4372 -0.8744
vn -0.2343 0.2298 -0.9446
vn 0.1889 0.1367 0.9724
vn -0.9420 0.0233 0.3349
vn 0.9053 0.1892 -0.3803
vn 0.1068 0.7190 0.6868
vn -0.4979 -0.7054 -0.5045
vn 0.8958 -0.2185 -0.3870
vn -0.9975 0.0040 -0.0704
vn -0.9802 0.1868 -0.0655
vn -0.5539 0.0871 -0.8280
vn 0.1186 0.1797 0.9765
vn 0.8962 -0.0135 -0.4434
vn 0.9086 0.0285 -0.4166
vn -0.9732 0.1152 0.1990
vn -0.2186 -0.1026 -0.9704
vn 0.1747 -0.0960 0.9799
vn -0.6824 0.3922 -0.6168
vn 0.8474 0.4936 -0.1955
vn -0.5742 -0.2701 0.7729
vn 0.3316 0.0043 0.9434
vn -0.5811 0.6059 -0.5433
vn -0.6279 -0.5388 0.5616
vn 0.8627 0.4337 -0.2601
vn 0.3208 -0.7035 0.6342
vn 0.3221 0.0965 0.9418
vn -0.5596 0.0308 0.8282
vn 0.8686 0.1599 -0.4691
vn -0.6632 -0.0570 -0.7463
vn 0.5484 -0.6488 0.5276
vn -0.5464 0.7053 -0.4516
vn -0.7984 0.2617 0.5424
vn 0.5832 0.0726 -0.8090
vn 0.7967 0.2281 -0.5596
vn -0.5928 0.2459 -0.7669
vn 0.5587 -0.1839 0.8087
vn 0.8348 -0.2563 -0.4872
vn -0.7886 0.1810 0.5876
vn -0.5355 0.4362 -0.7231
vn 0.5328 -0.3889 0.7516
vn -0.7763 -0.1859 0.6024
vn -0.7202 0.4481 0.5297
vn 0.8168 -0.1406 -0.5596
vn 0.5377 -0.0389 0.8422
vn -0.5805 0.2840 -0.7631
vn 0.7539 0.3070 -0.5809
vn -0.6794 -0.1523 0.7178
vn -0.6181 0.5400 -0.5713
vn 0.3596 -0.1757 0.9164
vn -0.3868 0.3553 0.8510
vn -0.6005 0.3882 -0.6990
vn 0.8383 -0.4086 0.3608
vn 0.5448 -0.5232 -0.6553
vn 0.7788 -0.1892 -0.5980
vn -0.2680 0.5447 0.7947
vn 0.7239 0.0337 0.6891
vn -0.8853 -0.0493 -0.4625
vn -0.5483 0.5428 -0.6362
vn -0.5143 0.3020 0.8027
vn 0.6802 -0.1876 -0.7086
vn -0.6074 -0.2943 -0.7379
vn 0.8103 -0.0323 0.5851
vn 0.4253 0.8830 0.1987
vn -0.4709 0.3542 0.8080
vn 0.6061 -0.2991 -0.7370
vn 0.6349 -0.4436 0.6325
vn 0.6379 0.4619 0.6163
vn -0.7285 0.1760 -0.6621
vn 0.7040 0.1300 -0.6982
vn -0.6171 0.0409 0.7858
vn -0.4843 0.4907 -0.7244
vn 0.7073 -0.5844 0.3978
vn -0.2971 0.5092 0.8077
vn 0.6083 -0.5393 -0.5823
vn 0.8160 -0.1086 -0.5677
vn 0.9243 0.1307 0.3586
vn -0.7968 -0.1046 -0.5951
vn -0.5895 -0.0225 0.8074
vn 0.2925 0.1662 -0.9417
vn 0.7434 0.3401 0.5759
vn -0.9923 -0.0235 -0.1218
vn -0.6251 0.1156 0.7719
vn -0.1664 0.6812 -0.7130
vn -0.6891 -0.5884 -0.4229
vn 0.5738 0.5720 0.5862
vn -0.5055 -0.6347 0.5845
vn -0.6544 0.2462 0.7149
vn -0.9852 -0.0850 -0.1488
vn 0.7859 0.3825 0.4858
vn 0.2767 0.0693 -0.9585
vn 0.0855 -0.7804 0.6195
vn -0.0963 0.8371 -0.5386
vn -0.8206 -0.1997 -0.5355
vn 0.7675 0.6194 0.1654
vn 0.6705 0.4865 0.5602
vn 0.1887 0.6585 -0.7286
vn -0.2865 -0.5914 0.7538
vn 0.9010 -0.0292 0.4328
vn -0.9103 -0.0809 -0.4059
vn 0.0843 0.8068 -0.5847
vn -0.1875 -0.7179 0.6704
vn -0.7870 -0.3535 -0.5056
vn -0.9410 0.1048 -0.3219
vn 0.8745 0.1334 0.4662
vn -0.3280 -0.5816 0.7444
vn 0.1804 0.6814 -0.7094
vn 0.8920 0.1642 0.4211
vn -0.9513 -0.3015 0.0648
vn -0.2037 0.7126 -0.6713
vn 0.0713 -0.7622 0.6434
vt 0.181377 0.047716
vt 0.185033 0.046137
vt 0.186850 0.049519
vt 0.190707 0.044383
vt 0.197225 0.049333
vt 0.192573 0.051893
vt 0.192799 0.053817
vt 0.197354 0.049816
vt 0.198684 0.051537
vt 0.198089 0.049665
vt 0.200524 0.053175
vt 0.196877 0.050924
vt 0.191516 0.055910
vt 0.195035 0.057249
vt 0.190667 0.058186
vt 0.180669 0.045263
vt 0.183446 0.041114
vt 0.201421 0.050626
vt 0.199249 0.045614
vt 0.201871 0.045852
vt 0.192194 0.049831
vt 0.196704 0.045164
vt 0.195217 0.055185
vt 0.192214 0.050776
vt 0.194942 0.049840
vt 0.193727 0.062245
vt 0.188750 0.062989
vt 0.197341 0.057472
vt 0.196978 0.062550
vt 0.199160 0.055530
vt 0.192229 0.058273
vt 0.183196 0.052138
vt 0.189870 0.054046
vt 0.193298 0.045403
vt 0.188750 0.042898
vt 0.190113 0.041429
vt 0.184471 0.036308
vt 0.183317 0.032351
vt 0.185266 0.033308
vt 0.201418 0.040000
vt 0.199746 0.036091
vt 0.201535 0.036117
vt 0.194335 0.039867
vt 0.196389 0.036543
vt 0.196129 0.041775
vt 0.198352 0.030869
vt 0.198660 0.026350
vt 0.199160 0.031023
vt 0.187772 0.029946
vt 0.188284 0.026686
vt 0.189066 0.026982
vt 0.186352 0.053420
vt 0.187076 0.049856
vt 0.187736 0.053308
vt 0.197336 0.033857
vt 0.194255 0.036270
vt 0.198655 0.032874
vt 0.196877 0.029965
vt 0.197625 0.029816
vt 0.192705 0.068110
vt 0.192382 0.067761
vt 0.192702 0.067774
vt 0.189870 0.023088
vt 0.187401 0.045145
vt 0.187736 0.045128
vt 0.197521 0.025291
vt 0.197824 0.025204
vt 0.193542 0.055238
vt 0.194914 0.052587
vt 0.194914 0.056109
vt 0.186442 0.029262
vt 0.192769 0.044614
vt 0.199261 0.041161
vt 0.181543 0.035115
vt 0.190990 0.047556
vt 0.184470 0.061368
vt 0.188979 0.060182
vt 0.190123 0.064663
vt 0.189023 0.044125
vt 0.196380 0.040525
vt 0.197537 0.045789
vt 0.190473 0.058766
vt 0.194535 0.060234
vt 0.189059 0.062649
vt 0.193732 0.052461
vt 0.195583 0.047146
vt 0.196467 0.052839
vt 0.193463 0.056614
vt 0.195632 0.059831
vt 0.192711 0.062364
vt 0.187973 0.055809
vt 0.185455 0.051076
vt 0.188349 0.050800
vt 0.189459 0.055589
vt 0.191372 0.049027
vt 0.193745 0.054770
vt 0.196848 0.036376
vt 0.193800 0.029619
vt 0.197798 0.030235
vt 0.192386 0.048850
vt 0.191552 0.043913
vt 0.193524 0.048770
vt 0.185057 0.038261
vt 0.183478 0.034759
vt 0.184507 0.034246
vt 0.197146 0.033200
vt 0.198617 0.029586
vt 0.198278 0.033765
vt 0.197817 0.023833
vt 0.194609 0.023752
vt 0.190764 0.036309
vt 0.189844 0.032038
vt 0.190868 0.032276
vt 0.192371 0.027802
vt 0.192740 0.028263
vt 0.192358 0.028065
vt 0.181633 0.030413
vt 0.182037 0.030159
vt 0.201092 0.025267
vt 0.201443 0.025569
vt 0.187890 0.042655
vt 0.190832 0.042530
vt 0.191939 0.052689
vt 0.196027 0.040156
vt 0.185365 0.044830
vt 0.187418 0.044670
vt 0.191374 0.035562
vt 0.195035 0.058591
vt 0.184223 0.059652
vt 0.196135 0.055812
vt 0.195899 0.062790
vt 0.192906 0.065149
vt 0.195337 0.063104
vt 0.189427 0.065649
vt 0.188168 0.046863
vt 0.197414 0.048626
vt 0.183996 0.064002
vt 0.190097 0.067136
vt 0.193071 0.046637
vt 0.194250 0.059711
vt 0.191117 0.059485
vt 0.182945 0.066832
vt 0.189964 0.070222
vt 0.188673 0.049740
vt 0.197254 0.050439
vt 0.194539 0.065845
vt 0.187739 0.068742
vt 0.196363 0.066170
vt 0.194154 0.066628
vt 0.196300 0.033365
vt 0.199261 0.042053
vt 0.194885 0.044117
vt 0.197817 0.053674
vt 0.192318 0.056052
vt 0.188293 0.052113
vt 0.187889 0.069459
vt 0.189097 0.071588
vt 0.181633 0.066736
vt 0.194684 0.069879
vt 0.198051 0.067046
vt 0.201077 0.066683
vt 0.199109 0.062631
vt 0.201443 0.061970
vt 0.188883 0.051369
vt 0.193039 0.027774
vt 0.191635 0.035473
vt 0.191635 0.025912
vt 0.191540 0.055099
vt 0.194645 0.050475
vt 0.193747 0.058915
vt 0.200609 0.070605
vt 0.195764 0.072324
vt 0.193888 0.067724
vt 0.200580 0.038652
vt 0.202880 0.036959
vt 0.202871 0.039210
vt 0.201740 0.034201
vt 0.203755 0.036454
vt 0.204022 0.041813
vt 0.201402 0.033365
vt 0.192616 0.052377
vt 0.197285 0.048443
vt 0.199237 0.054722
vt 0.193102 0.053957
vt 0.200571 0.046937
vt 0.201445 0.053957
vt 0.185778 0.054879
vt 0.192511 0.047891
vt 0.194468 0.054955
vt 0.191422 0.047063
vt 0.195950 0.051138
vt 0.189998 0.052424
vt 0.192075 0.033856
vt 0.194536 0.029486
vt 0.194770 0.034716
vt 0.190147 0.038034
vt 0.192328 0.043325
vt 0.189013 0.045337
vt 0.194584 0.043560
vt 0.191136 0.039113
vt 0.193751 0.039220
vt 0.191810 0.044367
vt 0.193897 0.038205
vt 0.196031 0.043936
vt 0.191778 0.043832
vt 0.188576 0.039111
vt 0.192151 0.039676
vt 0.190114 0.029081
vt 0.188389 0.023867
vt 0.188842 0.023752
vt 0.194830 0.033037
vt 0.194530 0.029803
vt 0.195554 0.029308
vt 0.189971 0.023183
vt 0.190019 0.019515
vt 0.191170 0.022918
vt 0.191942 0.037078
vt 0.188758 0.036789
vt 0.192069 0.031901
vt 0.191141 0.028572
vt 0.192140 0.028788
vt 0.191544 0.071040
vt 0.192009 0.071483
vt 0.191577 0.071483
vt 0.193811 0.024056
vt 0.194267 0.023921
vt 0.189013 0.019099
vt 0.190459 0.013701
vt 0.192656 0.023008
vt 0.190499 0.035781
vt 0.193273 0.035094
vt 0.189371 0.033087
vt 0.189034 0.029404
vt 0.192111 0.027187
vt 0.193581 0.026264
vt 0.193493 0.036904
vt 0.193383 0.032794
vt 0.186075 0.048459
vt 0.195998 0.047717
vt 0.192331 0.048954
vt 0.193031 0.037737
vt 0.194310 0.048048
vt 0.190065 0.049981
vt 0.196642 0.055984
vt 0.189870 0.057398
vt 0.185472 0.059508
vt 0.195638 0.059508
vt 0.190800 0.057134
vt 0.198818 0.059416
vt 0.197541 0.054500
vt 0.201396 0.050470
vt 0.203638 0.054286
vt 0.197048 0.056574
vt 0.202478 0.052425
vt 0.200846 0.056325
vt 0.186542 0.046761
vt 0.191469 0.044395
vt 0.192651 0.047384
vt 0.199185 0.071896
vt 0.202264 0.074541
vt 0.198114 0.074506
vt 0.197771 0.044649
vt 0.200095 0.047583
vt 0.195790 0.047563
vt 0.197525 0.050968
vt 0.200259 0.048529
vt 0.200641 0.068647
vt 0.201740 0.071110
vt 0.189312 0.041035
vt 0.193030 0.041436
vt 0.200559 0.044819
vt 0.198806 0.041681
vt 0.201477 0.041357
vt 0.196990 0.052494
vt 0.201167 0.052198
vt 0.200106 0.080308
vt 0.196439 0.079300
vt 0.188564 0.054021
vt 0.194335 0.052322
vt 0.203595 0.061453
vt 0.196543 0.060189
vt 0.201067 0.037175
vt 0.198349 0.034549
vt 0.199736 0.033965
vt 0.199570 0.043663
vt 0.198708 0.041213
vt 0.200293 0.041597
vt 0.197399 0.064644
vt 0.197749 0.061353
vt 0.199171 0.064050
vt 0.192695 0.037476
vt 0.192717 0.034251
vt 0.194335 0.034344
vt 0.193183 0.026714
vt 0.193525 0.023244
vt 0.193779 0.023104
vt 0.201608 0.038098
vt 0.202198 0.034080
vt 0.202703 0.034135
vt 0.196857 0.030787
vt 0.196274 0.026839
vt 0.197527 0.030688
vt 0.193471 0.030600
vt 0.192770 0.030786
vt 0.196858 0.057515
vt 0.197488 0.053604
vt 0.197486 0.057693
vt 0.202364 0.030356
vt 0.202091 0.030466
vt 0.202086 0.030327
vt 0.202381 0.030507
vt 0.196006 0.023261
vt 0.196286 0.023233
vt 0.197047 0.053471
vt 0.196908 0.050115
vt 0.196439 0.061238
vt 0.192700 0.026846
vt 0.200889 0.037971
vt 0.198039 0.068785
vt 0.196543 0.048199
vt 0.198737 0.037726
vt 0.196990 0.053612
vt 0.200308 0.048996
vt 0.201438 0.055127
vt 0.198291 0.055546
vt 0.202817 0.051301
vt 0.201671 0.055149
vt 0.181452 0.049033
vt 0.185141 0.044008
vt 0.186147 0.047730
vt 0.190744 0.048617
vt 0.193726 0.052204
vt 0.190039 0.051544
vt 0.192254 0.041041
vt 0.189595 0.037601
vt 0.191169 0.036617
vt 0.188728 0.044474
vt 0.190631 0.047625
vt 0.186866 0.048446
vt 0.198595 0.045138
vt 0.197552 0.042347
vt 0.199293 0.043455
vt 0.190005 0.044838
vt 0.190786 0.040941
vt 0.191920 0.044093
vt 0.185941 0.040520
vt 0.184906 0.037725
vt 0.186849 0.037130
vt 0.184372 0.028688
vt 0.184387 0.024614
vt 0.184537 0.024594
vt 0.202092 0.038613
vt 0.201542 0.034886
vt 0.202261 0.034582
vt 0.187029 0.033090
vt 0.187603 0.029541
vt 0.188290 0.033150
vt 0.184779 0.032514
vt 0.183420 0.032570
vt 0.194409 0.043613
vt 0.193281 0.040052
vt 0.193976 0.039898
vt 0.192359 0.068784
vt 0.192500 0.068937
vt 0.192360 0.068931
vt 0.200548 0.030452
vt 0.200697 0.030419
vt 0.186918 0.029239
vt 0.188712 0.025025
vt 0.193356 0.035487
vt 0.193953 0.056078
vt 0.192731 0.052326
vt 0.193953 0.052205
vt 0.183620 0.028550
vt 0.200723 0.038627
vt 0.181654 0.043089
vt 0.193219 0.048151
vt 0.196743 0.049561
vt 0.191333 0.044678
vt 0.190159 0.040890
vt 0.188309 0.052844
vt 0.192254 0.052106
vt 0.189183 0.055857
vt 0.192477 0.056594
vt 0.186849 0.052210
vt 0.182007 0.053893
vt 0.195192 0.058017
vt 0.202261 0.060126
vt 0.192515 0.072982
vt 0.198518 0.071464
vt 0.198544 0.075048
vt 0.192428 0.045056
vt 0.198227 0.052629
vt 0.192428 0.054150
vt 0.195011 0.046689
vt 0.198338 0.041597
vt 0.200262 0.043679
vt 0.200596 0.070767
vt 0.202271 0.075388
vt 0.198542 0.073629
vt 0.195932 0.050865
vt 0.200020 0.052845
vt 0.195496 0.053707
vt 0.194344 0.070029
vt 0.196710 0.066094
vt 0.201999 0.067870
vt 0.203681 0.071158
vt 0.195579 0.037130
vt 0.198341 0.036626
vt 0.187209 0.069086
vt 0.185942 0.065484
vt 0.188723 0.065246
vt 0.200008 0.057186
vt 0.195496 0.058952
vt 0.200638 0.079046
vt 0.195197 0.076370
vt 0.203208 0.048057
vt 0.197095 0.052017
vt 0.191250 0.075481
vt 0.199496 0.079052
vt 0.186361 0.061567
vt 0.185054 0.058676
vt 0.186271 0.058385
vt 0.197750 0.060546
vt 0.196823 0.057384
vt 0.198165 0.057625
vt 0.197816 0.063079
vt 0.197728 0.059803
vt 0.199500 0.062594
vt 0.199947 0.033387
vt 0.200501 0.030054
vt 0.201776 0.030412
vt 0.202524 0.025222
vt 0.202904 0.023031
vt 0.203208 0.022935
vt 0.198955 0.055419
vt 0.198728 0.052706
vt 0.199496 0.052750
vt 0.184337 0.056623
vt 0.184775 0.054465
vt 0.185293 0.056560
vt 0.201122 0.027911
vt 0.196183 0.057492
vt 0.196495 0.054860
vt 0.197108 0.057538
vt 0.198988 0.050025
vt 0.198692 0.050212
vt 0.198682 0.050017
vt 0.199012 0.050237
vt 0.184664 0.052347
vt 0.184971 0.052338
vt 0.195799 0.054813
vt 0.195472 0.052745
vt 0.196630 0.059966
vt 0.201765 0.025272
vt 0.202146 0.027853
vt 0.197928 0.055299
vt 0.198599 0.032402
vt 0.200314 0.066620
vt 0.195762 0.060458
vt 0.198168 0.044383
vt 0.179949 0.040304
vt 0.198330 0.026277
vt 0.186278 0.049772
vt 0.198598 0.034480
vt 0.197498 0.033554
vt 0.192359 0.068110
vt 0.189555 0.022936
vt 0.193997 0.051917
vt 0.189964 0.039908
vt 0.183884 0.056176
vt 0.187739 0.049707
vt 0.191117 0.044103
vt 0.183655 0.038729
vt 0.197703 0.028973
vt 0.188549 0.036082
vt 0.192786 0.028006
vt 0.194346 0.052550
vt 0.194281 0.039877
vt 0.197521 0.056432
vt 0.196638 0.066215
vt 0.197323 0.051444
vt 0.192581 0.035451
vt 0.191540 0.046561
vt 0.196552 0.044386
vt 0.192256 0.029785
vt 0.190800 0.045064
vt 0.190796 0.039127
vt 0.186288 0.043361
vt 0.189870 0.032072
vt 0.192010 0.071001
vt 0.190023 0.013613
vt 0.192239 0.022936
vt 0.191810 0.032993
vt 0.191692 0.035983
vt 0.197048 0.049403
vt 0.187837 0.042942
vt 0.197147 0.043615
vt 0.191186 0.036232
vt 0.195790 0.026880
vt 0.196680 0.049981
vt 0.198291 0.048170
vt 0.195970 0.045510
vt 0.189183 0.040379
vt 0.183502 0.039477
vt 0.193184 0.043613
vt 0.192511 0.068784
vt 0.188570 0.024987
vt 0.193219 0.035473
vt 0.192257 0.056275
vt 0.199006 0.047797
vt 0.193989 0.042298
vt 0.198841 0.049501
vt 0.194174 0.066076
vt 0.184046 0.069134
vt 0.184430 0.062117
vt 0.184046 0.054491
vt 0.195197 0.052661
s 0
usemtl Material
f 11/1/1 6/2/1 9/3/1
f 2/4/2 4/5/2 1/6/2
f 9/7/3 8/8/3 10/9/3
f 7/10/4 11/11/4 12/12/4
f 8/13/5 12/14/5 10/15/5
f 5/16/6 16/17/6 6/2/6
f 5/18/7 17/19/7 13/20/7
f 6/21/8 18/22/8 8/8/8
f 7/23/9 18/24/9 17/25/9
f 10/15/10 4/26/10 3/27/10
f 4/26/11 11/28/11 1/29/11
f 9/7/12 3/30/12 2/31/12
f 1/32/13 9/3/13 2/33/13
f 33/34/14 23/35/14 15/36/14
f 36/37/15 19/38/15 22/39/15
f 34/40/16 15/41/16 19/42/16
f 36/43/17 23/44/17 35/45/17
f 21/46/18 28/47/18 24/48/18
f 30/49/19 20/50/19 21/51/19
f 32/52/20 14/53/20 29/54/20
f 30/55/21 23/44/21 22/56/21
f 31/57/22 14/58/22 20/59/22
f 28/60/23 26/61/23 25/62/23
f 20/50/24 27/63/24 21/51/24
f 14/53/25 28/64/25 25/65/25
f 20/59/26 25/66/26 26/67/26
f 15/41/27 31/57/27 19/42/27
f 24/48/28 30/55/28 21/46/28
f 23/68/29 29/69/29 15/70/29
f 22/39/30 31/71/30 30/49/30
f 16/72/31 35/45/31 18/22/31
f 13/20/32 33/73/32 34/40/32
f 16/17/33 34/74/33 36/37/33
f 17/25/34 35/75/34 33/34/34
f 63/76/35 40/77/35 61/78/35
f 61/79/36 42/80/36 62/81/36
f 41/82/37 63/83/37 64/84/37
f 59/85/38 39/86/38 57/87/38
f 42/88/39 64/89/39 62/90/39
f 60/91/40 43/92/40 46/93/40
f 57/94/41 43/95/41 58/96/41
f 59/97/42 46/98/42 47/99/42
f 45/100/43 52/101/43 48/102/43
f 54/103/44 44/104/44 45/105/44
f 56/106/45 38/107/45 53/108/45
f 68/109/46 46/98/46 65/110/46
f 55/111/47 38/112/47 44/113/47
f 52/114/48 50/115/48 49/116/48
f 45/105/49 50/117/49 51/118/49
f 38/107/50 52/119/50 49/120/50
f 44/113/51 49/116/51 50/115/51
f 66/121/52 55/111/52 67/122/52
f 48/102/53 54/123/53 45/100/53
f 66/124/54 56/106/54 53/108/54
f 67/125/55 54/103/55 65/126/55
f 42/80/56 60/127/56 59/97/56
f 41/82/57 58/96/57 37/128/57
f 37/129/58 60/91/58 40/77/58
f 41/130/59 59/85/59 57/87/59
f 62/90/60 71/131/60 70/132/60
f 64/84/61 72/133/61 71/134/61
f 69/135/62 62/81/62 70/136/62
f 72/137/63 61/78/63 69/138/63
f 46/93/64 67/125/64 65/126/64
f 47/139/65 66/124/65 39/86/65
f 43/95/66 66/121/66 67/122/66
f 54/123/67 68/140/67 65/141/67
f 76/142/68 69/138/68 73/143/68
f 73/144/69 70/136/69 74/145/69
f 71/134/70 76/146/70 75/147/70
f 70/132/71 75/148/71 74/149/71
f 78/150/72 90/151/72 77/152/72
f 80/153/73 91/154/73 78/155/73
f 76/146/74 83/156/74 75/147/74
f 76/142/75 79/157/75 84/158/75
f 80/159/76 83/160/76 82/161/76
f 82/161/77 84/162/77 77/163/77
f 79/164/78 80/153/78 78/155/78
f 84/165/79 78/166/79 77/167/79
f 82/168/80 90/169/80 88/170/80
f 80/159/81 88/171/81 92/172/81
f 74/145/82 79/164/82 73/144/82
f 75/148/83 81/173/83 74/149/83
f 85/174/2 89/175/2 87/176/2
f 86/177/2 92/178/2 89/175/2
f 87/176/2 90/151/2 85/174/2
f 87/176/2 92/178/2 88/179/2
f 85/174/2 91/180/2 86/177/2
f 123/181/84 100/182/84 121/183/84
f 94/184/2 96/185/2 93/186/2
f 121/187/85 102/188/85 122/189/85
f 101/190/86 123/191/86 124/192/86
f 119/193/87 99/194/87 117/195/87
f 102/196/88 124/197/88 122/198/88
f 120/199/89 103/200/89 106/201/89
f 117/202/90 103/203/90 118/204/90
f 119/205/91 106/206/91 107/207/91
f 108/208/92 111/209/92 112/210/92
f 114/211/93 104/212/93 105/213/93
f 116/214/94 98/215/94 113/216/94
f 128/217/95 106/206/95 125/218/95
f 115/219/96 98/220/96 104/221/96
f 112/222/97 110/223/97 109/224/97
f 105/213/98 110/225/98 111/226/98
f 108/227/99 109/228/99 98/215/99
f 98/220/100 110/229/100 104/221/100
f 126/230/101 115/219/101 127/231/101
f 108/208/102 114/232/102 105/233/102
f 128/234/103 113/216/103 126/235/103
f 125/236/104 115/237/104 114/211/104
f 100/238/105 119/205/105 102/188/105
f 97/239/106 117/202/106 118/204/106
f 97/240/107 120/199/107 100/182/107
f 101/241/108 119/193/108 117/195/108
f 122/198/109 96/242/109 95/243/109
f 124/192/110 93/244/110 96/245/110
f 94/246/111 122/189/111 95/247/111
f 93/248/112 121/183/112 94/249/112
f 103/200/113 125/236/113 106/201/113
f 99/194/114 128/234/114 126/235/114
f 103/203/115 126/230/115 127/231/115
f 114/232/116 128/217/116 125/218/116
f 139/250/117 134/251/117 137/252/117
f 129/253/2 131/254/2 132/255/2
f 137/256/118 136/257/118 138/258/118
f 135/259/119 139/260/119 140/261/119
f 136/262/120 140/263/120 138/264/120
f 133/265/121 144/266/121 134/251/121
f 135/259/122 141/267/122 133/268/122
f 136/257/123 144/269/123 146/270/123
f 135/271/124 146/272/124 145/273/124
f 131/274/125 140/263/125 132/275/125
f 140/261/126 129/276/126 132/277/126
f 130/278/127 138/258/127 131/279/127
f 139/250/128 130/280/128 129/281/128
f 161/282/129 151/283/129 143/284/129
f 164/285/130 147/286/130 150/287/130
f 161/288/131 147/289/131 162/290/131
f 163/291/132 150/292/132 151/293/132
f 152/294/133 155/295/133 156/296/133
f 158/297/134 148/298/134 149/299/134
f 160/300/135 142/301/135 157/302/135
f 160/303/136 150/292/136 158/304/136
f 157/305/137 148/306/137 159/307/137
f 156/308/138 154/309/138 153/310/138
f 148/298/139 155/311/139 149/299/139
f 142/301/140 156/312/140 153/313/140
f 142/314/141 154/315/141 148/306/141
f 143/316/142 159/307/142 147/289/142
f 149/317/143 160/303/143 158/304/143
f 151/283/144 157/302/144 143/284/144
f 150/287/145 159/318/145 158/297/145
f 144/269/146 163/291/146 146/270/146
f 145/319/147 162/290/147 141/267/147
f 141/320/148 164/285/148 144/266/148
f 145/273/149 163/321/149 161/282/149
f 195/322/150 172/323/150 193/324/150
f 165/325/2 167/326/2 168/327/2
f 193/328/151 174/329/151 194/330/151
f 173/331/152 195/332/152 196/333/152
f 189/334/153 179/335/153 171/336/153
f 174/337/154 196/338/154 194/339/154
f 192/340/155 175/341/155 178/342/155
f 189/343/156 175/344/156 190/345/156
f 191/346/157 178/347/157 179/348/157
f 180/349/158 183/350/158 184/351/158
f 186/352/159 176/353/159 177/354/159
f 188/355/160 170/356/160 185/357/160
f 188/358/161 178/347/161 186/359/161
f 187/360/162 170/361/162 176/362/162
f 184/363/163 182/364/163 181/365/163
f 177/354/164 182/366/164 183/367/164
f 180/368/165 181/369/165 170/356/165
f 170/361/166 182/370/166 176/362/166
f 175/371/167 185/372/167 187/373/167
f 180/349/168 186/359/168 177/374/168
f 179/335/169 185/357/169 171/336/169
f 178/342/170 187/375/170 186/352/170
f 172/376/171 191/346/171 174/329/171
f 169/377/172 189/343/172 190/345/172
f 169/378/173 192/340/173 172/323/173
f 173/379/174 191/380/174 189/334/174
f 167/381/175 196/338/175 168/382/175
f 168/383/176 195/332/176 165/384/176
f 193/328/177 167/385/177 166/386/177
f 165/387/178 193/324/178 166/388/178
f 207/389/179 202/390/179 205/391/179
f 198/392/2 200/393/2 197/394/2
f 205/395/180 204/396/180 206/397/180
f 203/398/181 207/399/181 208/400/181
f 204/401/182 208/402/182 206/403/182
f 201/404/183 212/405/183 202/390/183
f 203/398/184 209/406/184 201/407/184
f 204/396/185 212/408/185 214/409/185
f 203/410/186 214/411/186 213/412/186
f 206/403/187 200/413/187 199/414/187
f 208/400/188 197/415/188 200/416/188
f 205/395/189 199/417/189 198/418/189
f 197/419/190 205/391/190 198/420/190
f 229/421/191 219/422/191 211/423/191
f 232/424/192 215/425/192 218/426/192
f 229/427/193 215/428/193 230/429/193
f 231/430/194 218/431/194 219/432/194
f 220/433/195 223/434/195 224/435/195
f 226/436/196 216/437/196 217/438/196
f 228/439/197 210/440/197 225/441/197
f 226/442/198 219/432/198 218/431/198
f 225/443/199 216/444/199 227/445/199
f 224/446/200 222/447/200 221/448/200
f 216/437/201 223/449/201 217/438/201
f 210/440/202 224/450/202 221/451/202
f 210/452/203 222/453/203 216/444/203
f 211/454/204 227/445/204 215/428/204
f 217/455/205 228/456/205 226/442/205
f 219/422/206 225/441/206 211/423/206
f 218/426/207 227/457/207 226/436/207
f 214/409/208 232/458/208 231/430/208
f 213/459/209 230/429/209 209/406/209
f 212/405/210 230/460/210 232/424/210
f 214/411/211 229/421/211 213/412/211
f 11/1/212 5/16/212 6/2/212
f 2/4/2 3/461/2 4/5/2
f 9/7/213 6/21/213 8/8/213
f 7/10/214 5/18/214 11/11/214
f 8/13/215 7/23/215 12/14/215
f 5/16/216 13/462/216 16/17/216
f 5/18/217 7/10/217 17/19/217
f 6/21/218 16/72/218 18/22/218
f 7/23/219 8/13/219 18/24/219
f 10/15/220 12/14/220 4/26/220
f 4/26/221 12/14/221 11/28/221
f 9/7/222 10/9/222 3/30/222
f 1/32/223 11/1/223 9/3/223
f 33/34/224 35/75/224 23/35/224
f 36/37/225 34/74/225 19/38/225
f 34/40/226 33/73/226 15/41/226
f 36/43/227 22/56/227 23/44/227
f 21/46/228 27/463/228 28/47/228
f 30/49/229 31/71/229 20/50/229
f 32/52/230 24/464/230 14/53/230
f 30/55/231 32/465/231 23/44/231
f 31/57/232 29/466/232 14/58/232
f 28/60/23 27/467/23 26/61/23
f 20/50/233 26/468/233 27/63/233
f 14/53/234 24/464/234 28/64/234
f 20/59/235 14/58/235 25/66/235
f 15/41/236 29/466/236 31/57/236
f 24/48/237 32/465/237 30/55/237
f 23/68/238 32/469/238 29/69/238
f 22/39/239 19/38/239 31/71/239
f 16/72/240 36/43/240 35/45/240
f 13/20/241 17/19/241 33/73/241
f 16/17/242 13/462/242 34/74/242
f 17/25/243 18/24/243 35/75/243
f 63/76/244 37/129/244 40/77/244
f 61/79/245 40/470/245 42/80/245
f 41/82/246 37/128/246 63/83/246
f 59/85/247 47/139/247 39/86/247
f 42/88/248 41/130/248 64/89/248
f 60/91/249 58/471/249 43/92/249
f 57/94/250 39/472/250 43/95/250
f 59/97/251 60/127/251 46/98/251
f 45/100/252 51/473/252 52/101/252
f 54/103/253 55/474/253 44/104/253
f 56/106/254 48/475/254 38/107/254
f 68/109/255 47/99/255 46/98/255
f 55/111/256 53/476/256 38/112/256
f 52/114/48 51/477/48 50/115/48
f 45/105/257 44/104/257 50/117/257
f 38/107/258 48/475/258 52/119/258
f 44/113/259 38/112/259 49/116/259
f 66/121/260 53/476/260 55/111/260
f 48/102/261 56/478/261 54/123/261
f 66/124/262 68/479/262 56/106/262
f 67/125/263 55/474/263 54/103/263
f 42/80/264 40/470/264 60/127/264
f 41/82/265 57/94/265 58/96/265
f 37/129/266 58/471/266 60/91/266
f 41/130/267 42/88/267 59/85/267
f 62/90/268 64/89/268 71/131/268
f 64/84/269 63/83/269 72/133/269
f 69/135/270 61/79/270 62/81/270
f 72/137/271 63/76/271 61/78/271
f 46/93/272 43/92/272 67/125/272
f 47/139/273 68/479/273 66/124/273
f 43/95/274 39/472/274 66/121/274
f 54/123/275 56/478/275 68/140/275
f 76/142/276 72/137/276 69/138/276
f 73/144/277 69/135/277 70/136/277
f 71/134/278 72/133/278 76/146/278
f 70/132/279 71/131/279 75/148/279
f 78/150/280 91/180/280 90/151/280
f 80/153/281 92/480/281 91/154/281
f 76/146/282 84/481/282 83/156/282
f 76/142/283 73/143/283 79/157/283
f 80/159/284 81/173/284 83/160/284
f 82/161/285 83/160/285 84/162/285
f 79/164/286 81/482/286 80/153/286
f 84/165/287 79/483/287 78/166/287
f 82/168/288 77/484/288 90/169/288
f 80/159/289 82/161/289 88/171/289
f 74/145/290 81/482/290 79/164/290
f 75/148/291 83/160/291 81/173/291
f 85/174/2 86/177/2 89/175/2
f 86/177/2 91/180/2 92/178/2
f 87/176/2 88/179/2 90/151/2
f 87/176/2 89/175/2 92/178/2
f 85/174/2 90/151/2 91/180/2
f 123/181/292 97/240/292 100/182/292
f 94/184/2 95/485/2 96/185/2
f 121/187/293 100/238/293 102/188/293
f 101/190/294 97/239/294 123/191/294
f 119/193/295 107/486/295 99/194/295
f 102/196/296 101/241/296 124/197/296
f 120/199/297 118/487/297 103/200/297
f 117/202/298 99/488/298 103/203/298
f 119/205/299 120/489/299 106/206/299
f 108/208/300 105/233/300 111/209/300
f 114/211/301 115/237/301 104/212/301
f 116/214/302 108/227/302 98/215/302
f 128/217/303 107/207/303 106/206/303
f 115/219/304 113/490/304 98/220/304
f 112/222/305 111/491/305 110/223/305
f 105/213/306 104/212/306 110/225/306
f 108/227/307 112/492/307 109/228/307
f 98/220/308 109/493/308 110/229/308
f 126/230/309 113/490/309 115/219/309
f 108/208/310 116/494/310 114/232/310
f 128/234/311 116/214/311 113/216/311
f 125/236/312 127/495/312 115/237/312
f 100/238/313 120/489/313 119/205/313
f 97/239/314 101/190/314 117/202/314
f 97/240/315 118/487/315 120/199/315
f 101/241/316 102/196/316 119/193/316
f 122/198/317 124/197/317 96/242/317
f 124/192/318 123/191/318 93/244/318
f 94/246/319 121/187/319 122/189/319
f 93/248/320 123/181/320 121/183/320
f 103/200/321 127/495/321 125/236/321
f 99/194/322 107/486/322 128/234/322
f 103/203/323 99/488/323 126/230/323
f 114/232/324 116/494/324 128/217/324
f 139/250/325 133/265/325 134/251/325
f 129/253/2 130/496/2 131/254/2
f 137/256/326 134/497/326 136/257/326
f 135/259/327 133/268/327 139/260/327
f 136/262/328 135/271/328 140/263/328
f 133/265/329 141/320/329 144/266/329
f 135/259/330 145/319/330 141/267/330
f 136/257/331 134/497/331 144/269/331
f 135/271/332 136/262/332 146/272/332
f 131/274/333 138/264/333 140/263/333
f 140/261/334 139/260/334 129/276/334
f 130/278/335 137/256/335 138/258/335
f 139/250/336 137/252/336 130/280/336
f 161/282/337 163/321/337 151/283/337
f 164/285/338 162/498/338 147/286/338
f 161/288/339 143/316/339 147/289/339
f 163/291/340 164/499/340 150/292/340
f 152/294/341 149/317/341 155/295/341
f 158/297/342 159/318/342 148/298/342
f 160/300/343 152/500/343 142/301/343
f 160/303/344 151/293/344 150/292/344
f 157/305/345 142/314/345 148/306/345
f 156/308/138 155/311/138 154/309/138
f 148/298/346 154/309/346 155/311/346
f 142/301/347 152/500/347 156/312/347
f 142/314/348 153/501/348 154/315/348
f 143/316/349 157/305/349 159/307/349
f 149/317/350 152/294/350 160/303/350
f 151/283/351 160/300/351 157/302/351
f 150/287/352 147/286/352 159/318/352
f 144/269/353 164/499/353 163/291/353
f 145/319/354 161/288/354 162/290/354
f 141/320/355 162/498/355 164/285/355
f 145/273/356 146/272/356 163/321/356
f 195/322/357 169/378/357 172/323/357
f 165/325/2 166/502/2 167/326/2
f 193/328/358 172/376/358 174/329/358
f 173/331/359 169/377/359 195/332/359
f 189/334/360 191/380/360 179/335/360
f 174/337/361 173/379/361 196/338/361
f 192/340/362 190/503/362 175/341/362
f 189/343/363 171/504/363 175/344/363
f 191/346/364 192/505/364 178/347/364
f 180/349/365 177/374/365 183/350/365
f 186/352/366 187/375/366 176/353/366
f 188/355/367 180/368/367 170/356/367
f 188/358/368 179/348/368 178/347/368
f 187/360/369 185/506/369 170/361/369
f 184/363/370 183/507/370 182/364/370
f 177/354/371 176/353/371 182/366/371
f 180/368/372 184/508/372 181/369/372
f 170/361/373 181/509/373 182/370/373
f 175/371/374 171/510/374 185/372/374
f 180/349/375 188/358/375 186/359/375
f 179/335/376 188/355/376 185/357/376
f 178/342/377 175/341/377 187/375/377
f 172/376/378 192/505/378 191/346/378
f 169/377/379 173/331/379 189/343/379
f 169/378/380 190/503/380 192/340/380
f 173/379/381 174/337/381 191/380/381
f 167/381/382 194/339/382 196/338/382
f 168/383/383 196/333/383 195/332/383
f 193/328/384 194/330/384 167/385/384
f 165/387/385 195/322/385 193/324/385
f 207/389/386 201/404/386 202/390/386
f 198/392/2 199/511/2 200/393/2
f 205/395/387 202/512/387 204/396/387
f 203/398/388 201/407/388 207/399/388
f 204/401/389 203/513/389 208/402/389
f 201/404/390 209/514/390 212/405/390
f 203/398/391 213/459/391 209/406/391
f 204/396/392 202/512/392 212/408/392
f 203/410/393 204/515/393 214/411/393
f 206/403/394 208/402/394 200/413/394
f 208/400/395 207/399/395 197/415/395
f 205/395/396 206/397/396 199/417/396
f 197/419/397 207/389/397 205/391/397
f 229/421/398 231/516/398 219/422/398
f 232/424/399 230/460/399 215/425/399
f 229/427/400 211/454/400 215/428/400
f 231/430/401 232/458/401 218/431/401
f 220/433/402 217/455/402 223/434/402
f 226/436/403 227/457/403 216/437/403
f 228/439/404 220/517/404 210/440/404
f 226/442/405 228/456/405 219/432/405
f 225/443/406 210/452/406 216/444/406
f 224/446/200 223/449/200 222/447/200
f 216/437/407 222/447/407 223/449/407
f 210/440/408 220/517/408 224/450/408
f 210/452/409 221/518/409 222/453/409
f 211/454/410 225/443/410 227/445/410
f 217/455/411 220/433/411 228/456/411
f 219/422/412 228/439/412 225/441/412
f 218/426/413 215/425/413 227/457/413
f 214/409/414 212/408/414 232/458/414
f 213/459/415 229/427/415 230/429/415
f 212/405/416 209/514/416 230/460/416
f 214/411/417 231/516/417 229/421/417
