# Blender 4.2.1 LTS
# www.blender.org
mtllib grass_brown_2.mtl
g grass_brown_2_Mesh
v -0.089234 -0.018741 0.044785
v -0.012673 -0.052109 -0.002834
v -0.000892 -0.057243 0.071548
v -0.045692 -0.037718 0.089736
v -0.071677 0.099378 0.054207
v -0.015803 0.085219 0.021480
v -0.048595 0.067297 0.086762
v -0.004389 0.045692 0.079142
v -0.011575 0.032621 0.001873
v 0.008196 0.023214 0.070793
v -0.075721 0.044975 0.041407
v -0.045847 0.029855 0.079372
v -0.060255 0.115623 0.088035
v -0.039228 0.502450 0.120376
v -0.055506 0.338911 0.144062
v -0.025121 0.129840 0.072776
v -0.052204 0.116837 0.120656
v -0.011944 0.105487 0.109414
v -0.063164 0.337184 0.122722
v -0.043063 0.493796 0.114240
v -0.033746 0.491894 0.109471
v -0.038389 0.336471 0.110727
v -0.031559 0.332425 0.137164
v -0.029981 0.501331 0.116302
v -0.042988 0.543692 0.109273
v -0.044252 0.539207 0.107336
v -0.040250 0.538358 0.105571
v -0.039047 0.543242 0.107737
v -0.044121 0.424736 0.118747
v -0.033890 0.420339 0.095348
v -0.050881 0.419200 0.103630
v -0.027752 0.426325 0.112554
v -0.061688 0.237512 0.128973
v -0.077850 0.241868 0.102516
v -0.031634 0.219340 0.118869
v -0.046985 0.230847 0.094606
v -0.031736 0.086951 0.017749
v 0.029312 0.574475 0.122836
v 0.027653 0.173436 0.035081
v -0.041248 0.111202 -0.013038
v 0.001852 0.088422 0.007619
v 0.007124 0.096183 -0.013754
v 0.000280 0.180854 0.041449
v 0.021567 0.571729 0.123957
v 0.018827 0.581988 0.120322
v -0.004094 0.201240 0.025118
v 0.026342 0.191155 0.020369
v 0.027314 0.584537 0.119258
v 0.017295 0.593859 0.158170
v 0.014131 0.592610 0.157407
v 0.013346 0.597200 0.156153
v 0.016799 0.598363 0.157030
v 0.035334 0.476750 0.103940
v 0.014780 0.487673 0.099248
v 0.018202 0.475523 0.105335
v 0.033740 0.487604 0.098688
v 0.012161 0.115050 0.020397
v -0.018863 0.119214 0.032772
v 0.013612 0.133185 0.003463
v -0.028152 0.146537 0.010319
v -0.050286 0.077579 -0.038721
v 0.013071 0.049234 -0.041387
v -0.029803 0.074983 0.007876
v 0.009290 0.055998 -0.011821
v 0.017306 0.352357 0.056906
v 0.043912 0.336785 0.064576
v 0.021534 0.338672 0.068389
v 0.042106 0.348292 0.054138
v -0.059057 0.052950 -0.047787
v 0.009780 0.022583 -0.050518
v 0.004970 0.027237 -0.021049
v -0.037094 0.046543 0.000615
v -0.056968 0.026907 -0.061507
v 0.005863 0.002026 -0.047535
v 0.016557 -0.003921 -0.031923
v -0.031773 0.017683 -0.006790
v -0.052897 -0.003633 0.024012
v -0.063199 0.000857 -0.059116
v -0.057342 0.009290 -0.062069
v 0.007311 -0.029873 -0.056618
v 0.005937 -0.006431 -0.053531
v 0.003037 -0.035621 -0.001273
v 0.017667 -0.020603 -0.024114
v -0.045141 0.003972 0.005231
v -0.032277 -0.043565 -0.029715
v -0.029336 -0.044846 -0.066448
v -0.002079 -0.056726 -0.034942
v 0.019147 -0.065976 -0.020835
v -0.007843 -0.054214 -0.051184
v -0.039955 -0.040218 0.000091
v -0.035756 -0.042048 -0.071104
v 0.001815 -0.058423 -0.058343
v -0.074710 -0.025071 -0.038655
v -0.027470 -0.045659 0.023386
v -0.093709 -0.016791 0.055396
v -0.105552 -0.011630 0.005182
v -0.076050 0.090569 -0.044344
v -0.043083 0.084489 -0.002657
v -0.101699 0.083841 -0.017107
v -0.091190 0.077359 0.019848
v -0.043446 0.024404 0.005780
v -0.099582 0.048158 0.033127
v -0.080961 0.045932 -0.044396
v -0.109774 0.056598 -0.011214
v -0.086666 0.163277 -0.044232
v -0.149154 0.331243 0.044692
v -0.126105 0.269780 -0.004847
v -0.061380 0.169666 -0.012520
v -0.104294 0.151366 -0.023097
v -0.095422 0.150651 0.005180
v -0.110401 0.276856 -0.013034
v -0.142923 0.336306 0.041718
v -0.138648 0.335236 0.049123
v -0.097339 0.273350 0.004963
v -0.116324 0.260596 0.012010
v -0.145561 0.329805 0.052035
v -0.155053 0.396290 0.052544
v -0.152382 0.398597 0.051675
v -0.150715 0.397404 0.054733
v -0.153671 0.394959 0.055548
v -0.141346 0.289090 0.025143
v -0.124266 0.297450 0.035550
v -0.131928 0.302481 0.022737
v -0.135173 0.283138 0.037226
v -0.120958 0.201643 -0.018424
v -0.106936 0.227049 -0.028093
v -0.099191 0.191397 0.006243
v -0.089224 0.223940 -0.000820
v 0.031299 -0.071273 -0.082071
v 0.055173 -0.081677 -0.022090
v -0.004315 -0.055751 0.001588
v -0.005790 -0.055108 -0.047698
v 0.052483 0.008214 -0.071361
v 0.098124 0.399750 -0.054274
v 0.040460 0.134830 -0.037280
v 0.069779 0.012454 -0.038672
v 0.031543 0.006692 -0.055548
v 0.034089 0.008748 -0.028770
v 0.057553 0.134488 -0.042087
v 0.104818 0.397661 -0.056824
v 0.107948 0.398293 -0.049461
v 0.065530 0.132374 -0.022151
v 0.044805 0.131300 -0.018828
v 0.100581 0.400526 -0.047005
v 0.110612 0.523941 -0.057480
v 0.111964 0.523574 -0.057893
v 0.112425 0.523323 -0.056399
v 0.110944 0.523731 -0.056013
v 0.066130 0.291548 -0.050083
v 0.082991 0.288043 -0.041406
v 0.077771 0.288213 -0.054468
v 0.069828 0.291714 -0.037578
v 0.023360 0.085305 -0.036774
v 0.042639 0.083703 -0.045472
v 0.024177 0.076328 -0.016267
v 0.050793 0.070487 -0.021377
v 0.069926 -0.029624 -0.028351
v 0.024864 -0.010606 -0.010661
v 0.054294 -0.018293 -0.073478
v 0.023914 -0.006703 -0.050628
v 0.103008 0.473707 -0.061016
v 0.098363 0.475384 -0.059506
v 0.101049 0.473346 -0.065724
v 0.096827 0.474910 -0.064149
v -0.103220 -0.012646 -0.091539
v -0.013210 -0.051874 -0.058938
v -0.069928 -0.027155 0.026833
v -0.095163 -0.016157 -0.003273
v -0.079010 0.097319 -0.098162
v -0.091028 0.395645 -0.139468
v -0.117654 0.242725 -0.083978
v -0.029091 0.102441 -0.087489
v -0.086516 0.122127 -0.054634
v -0.064340 0.125908 -0.034014
v -0.107960 0.233268 -0.119587
v -0.089017 0.387283 -0.147948
v -0.078607 0.394126 -0.149527
v -0.078818 0.243075 -0.118020
v -0.092735 0.253200 -0.079606
v -0.081207 0.402888 -0.140292
v -0.098998 0.462425 -0.172975
v -0.098073 0.459165 -0.176587
v -0.093392 0.461301 -0.176453
v -0.094762 0.464646 -0.172570
v -0.102766 0.358641 -0.113793
v -0.085129 0.345303 -0.135812
v -0.100003 0.348637 -0.135141
v -0.089958 0.356895 -0.112740
v -0.107265 0.148961 -0.074765
v -0.096250 0.130360 -0.114700
v -0.088235 0.177396 -0.068008
v -0.062523 0.164011 -0.117442
v -0.014875 0.016406 -0.068935
v -0.063280 0.036523 0.004591
v -0.079609 0.051077 -0.087914
v -0.088001 0.054137 -0.024596
v -0.098317 0.290254 -0.132867
v -0.122853 0.309220 -0.105565
v -0.116982 0.302454 -0.134305
v -0.106541 0.299490 -0.101826
v -0.024641 -0.046892 0.065196
v -0.027889 -0.045477 -0.043076
v 0.051519 -0.080085 -0.000025
v 0.029822 -0.070629 0.059636
v 0.033342 0.101275 0.086021
v 0.049113 0.139613 0.020155
v 0.060907 0.047759 0.066641
v 0.081733 0.050587 0.017634
v -0.005464 0.062105 -0.023805
v 0.063906 -0.011456 -0.009506
v -0.010140 0.037186 0.063110
v 0.039780 -0.007307 0.048836
v 0.067534 0.145962 0.104973
v 0.084007 0.461741 0.123628
v 0.107700 0.340119 0.106532
v 0.069782 0.178258 0.054137
v 0.101220 0.123518 0.091861
v 0.115990 0.134878 0.054770
v 0.092277 0.329931 0.109694
v 0.075685 0.452740 0.125448
v 0.070153 0.457863 0.115714
v 0.083615 0.336196 0.090956
v 0.103735 0.343549 0.087607
v 0.079379 0.467386 0.114144
v 0.079639 0.504417 0.141570
v 0.076683 0.499785 0.141648
v 0.074609 0.501863 0.137429
v 0.077890 0.506786 0.137518
v 0.102507 0.412726 0.114252
v 0.078523 0.405012 0.099338
v 0.087627 0.397173 0.117559
v 0.095533 0.421486 0.097080
v 0.110230 0.209297 0.097771
v 0.079083 0.229898 0.105087
v 0.108610 0.221203 0.065801
v 0.082233 0.247603 0.075988
v 0.011276 -0.062546 -0.051297
v -0.057420 -0.032607 -0.028353
v -0.041655 -0.039478 -0.082378
v -0.002434 -0.056571 -0.083128
v 0.042245 0.047496 -0.068275
v 0.078471 0.244057 -0.124953
v 0.061914 0.144819 -0.126528
v 0.016132 0.081576 -0.060415
v 0.026013 0.041348 -0.088417
v 0.003194 0.060290 -0.091474
v 0.067832 0.140553 -0.110086
v 0.080893 0.239449 -0.118933
v 0.073799 0.240688 -0.115320
v 0.048791 0.143654 -0.100304
v 0.043773 0.146599 -0.120583
v 0.071470 0.245621 -0.121977
v 0.092587 0.301792 -0.101086
v 0.092915 0.300517 -0.100047
v 0.091482 0.300713 -0.099411
v 0.091187 0.302083 -0.100561
v 0.064549 0.193446 -0.123978
v 0.058052 0.194487 -0.105992
v 0.069601 0.188843 -0.112856
v 0.053378 0.199113 -0.118710
v 0.054484 0.102657 -0.109453
v 0.068028 0.102176 -0.093169
v 0.034674 0.109100 -0.102377
v 0.046435 0.110001 -0.077590
v -0.023424 0.019956 -0.038918
v -0.033236 0.023612 -0.088287
v 0.022559 0.004435 -0.049164
v 0.005364 0.010278 -0.083865
vn -0.4652 0.2761 -0.8411
vn -0.3995 -0.9167 -0.0000
vn 0.8326 0.5281 -0.1668
vn -0.8062 -0.1710 0.5663
vn 0.1154 -0.2884 0.9505
vn -0.2062 0.7194 -0.6633
vn -0.8856 -0.2244 0.4068
vn 0.9553 0.2204 -0.1970
vn 0.0728 -0.5595 0.8256
vn 0.3638 -0.0324 0.9309
vn -0.6909 0.1081 0.7148
vn 0.9802 -0.1123 -0.1630
vn -0.5102 0.0543 -0.8583
vn 0.2338 -0.1570 0.9595
vn -0.1899 0.1632 -0.9682
vn -0.8517 0.0202 0.5236
vn 0.8592 0.0812 -0.5051
vn 0.8125 0.0572 -0.5802
vn -0.4409 0.1747 -0.8804
vn 0.3983 -0.0443 0.9162
vn 0.9476 -0.1061 -0.3012
vn -0.9175 0.0399 0.3957
vn -0.2804 0.4460 -0.8500
vn -0.4736 -0.1393 -0.8697
vn 0.3763 0.2727 0.8855
vn -0.8770 0.0497 0.4780
vn -0.9252 0.2119 0.3149
vn 0.9319 0.0684 -0.3563
vn 0.3259 0.2274 0.9176
vn -0.4262 -0.1410 -0.8936
vn 0.9575 0.1840 -0.2220
vn -0.8527 -0.1753 0.4921
vn -0.4303 0.1007 -0.8970
vn 0.2951 -0.0426 0.9545
vn -0.9151 -0.0588 0.3990
vn 0.1956 0.5157 -0.8341
vn 0.2057 -0.4681 0.8594
vn 0.9642 -0.2179 -0.1508
vn 0.9918 0.0589 0.1134
vn -0.8310 0.2282 0.5074
vn 0.3333 -0.2322 0.9138
vn -0.0632 0.2922 -0.9543
vn -0.3092 0.8620 -0.4016
vn -0.8792 -0.0676 0.4716
vn 0.9886 0.0850 -0.1244
vn -0.0734 0.2152 -0.9738
vn 0.0933 -0.1924 0.9769
vn -0.3044 0.2021 0.9309
vn -0.9799 -0.1868 -0.0706
vn 0.9496 0.2538 0.1837
vn 0.1888 -0.8136 0.5499
vn 0.0967 -0.2572 0.9615
vn -0.0280 0.2191 -0.9753
vn 0.9933 0.0834 -0.0799
vn -0.9454 -0.1132 0.3055
vn 0.1117 0.4030 -0.9083
vn 0.2709 -0.4930 0.8267
vn -0.9007 0.0485 0.4317
vn 0.9154 -0.3941 0.0827
vn 0.9653 -0.1831 0.1865
vn 0.3069 -0.3322 0.8919
vn 0.0999 0.3114 -0.9450
vn -0.8906 0.1606 0.4254
vn -0.9179 0.0471 0.3941
vn 0.9833 -0.0674 -0.1688
vn 0.1498 -0.1859 0.9711
vn -0.0271 0.2981 -0.9542
vn -0.8921 -0.2645 0.3662
vn 0.1494 -0.1698 -0.9741
vn 0.3944 -0.1686 0.9033
vn 0.8109 0.4373 -0.3889
vn -0.9180 -0.3855 0.0929
vn 0.1971 0.3787 -0.9043
vn 0.5551 0.3826 0.7385
vn -0.6248 0.7613 0.1734
vn 0.7008 -0.7130 -0.0199
vn 0.5891 0.6346 0.5002
vn 0.0940 0.1354 -0.9863
vn -0.5436 0.8318 0.1123
vn 0.0816 -0.5089 0.8569
vn 0.8869 -0.1442 -0.4389
vn 0.2269 0.0262 -0.9736
vn 0.8334 0.3244 -0.4473
vn 0.7782 -0.0919 -0.6213
vn 0.5039 0.2334 0.8316
vn -0.7408 0.0752 -0.6675
vn -0.8835 0.3791 0.2752
vn 0.7875 0.0987 -0.6084
vn -0.7334 -0.1061 -0.6715
vn 0.3902 0.2023 0.8982
vn -0.9542 -0.0101 0.2991
vn -0.9735 -0.0096 0.2286
vn -0.8288 -0.1172 -0.5472
vn 0.5213 0.3179 0.7920
vn 0.8003 0.0320 -0.5987
vn -0.8887 -0.1532 0.4321
vn 0.8323 0.1973 -0.5180
vn -0.5253 0.2126 -0.8239
vn 0.4763 0.0447 0.8782
vn 0.3890 -0.0013 0.9212
vn 0.8372 0.4369 -0.3291
vn -0.8720 -0.3294 0.3621
vn 0.5320 -0.3714 0.7610
vn -0.5750 0.2502 -0.7789
vn -0.4508 0.7207 0.5267
vn 0.8597 0.2089 -0.4661
vn -0.9214 -0.1279 0.3670
vn -0.3777 0.0900 -0.9216
vn -0.5653 0.4707 -0.6774
vn 0.4719 -0.1334 0.8715
vn -0.7362 -0.6741 0.0599
vn 0.6226 0.7797 -0.0662
vn 0.4530 0.0186 0.8913
vn -0.5887 0.0174 -0.8081
vn 0.6456 0.4623 -0.6079
vn -0.7732 -0.3078 0.5545
vn 0.9353 -0.0812 -0.3444
vn 0.4862 0.4622 0.7416
vn -0.5907 0.0404 -0.8059
vn -0.9081 0.3163 0.2744
vn -0.8746 0.4802 0.0677
vn 0.8830 -0.2155 -0.4170
vn -0.2653 0.1415 -0.9537
vn 0.1836 -0.0231 0.9827
vn 0.2174 -0.1265 0.9678
vn 0.9025 -0.2309 -0.3637
vn -0.9208 0.2827 0.2686
vn 0.2998 0.0839 0.9503
vn -0.3360 0.0628 -0.9398
vn 0.2824 0.9565 0.0730
vn 0.9376 -0.1487 -0.3145
vn -0.9320 0.2232 0.2854
vn -0.2740 0.2060 -0.9394
vn -0.3593 -0.0279 -0.9328
vn 0.2809 0.0065 0.9597
vn -0.9444 0.1773 0.2770
vn 0.9124 -0.1495 -0.3809
vn 0.1526 -0.1581 0.9756
vn -0.6005 0.1882 -0.7771
vn 0.9309 0.3425 -0.1272
vn -0.9864 -0.1274 0.1036
vn -0.8354 0.5487 0.0322
vn -0.5724 0.3052 -0.7611
vn 0.3736 0.0102 0.9275
vn 0.8694 -0.2942 -0.3971
vn -0.3874 -0.1267 -0.9132
vn -0.9499 0.0246 0.3116
vn 0.9203 0.0003 -0.3912
vn 0.3579 0.1641 0.9192
vn 0.1883 -0.1772 -0.9660
vn 0.8394 0.2435 0.4860
vn -0.9909 -0.0356 -0.1296
vn -0.3950 0.0464 0.9175
vn -0.6300 0.3016 0.7156
vn 0.0525 0.0035 -0.9986
vn -0.9699 -0.1204 -0.2114
vn 0.9436 0.1041 0.3144
vn 0.9577 0.2667 0.1081
vn 0.0347 -0.2746 -0.9609
vn 0.0097 0.5679 0.8230
vn 0.9042 0.4106 0.1174
vn -0.9555 0.1996 -0.2172
vn -0.2877 0.6731 -0.6813
vn 0.1780 -0.3321 -0.9263
vn -0.2315 0.4141 0.8803
vn -0.9846 -0.1558 -0.0798
vn -0.9071 0.3288 -0.2627
vn 0.9699 -0.0636 0.2350
vn -0.0553 0.1858 0.9810
vn 0.0363 -0.0621 -0.9974
vn 0.7952 0.5448 0.2661
vn -0.9005 -0.4261 0.0875
vn 0.2294 -0.3222 -0.9184
vn -0.5559 0.1791 0.8117
vn -0.6717 0.3058 0.6747
vn -0.9870 0.1294 0.0952
vn 0.8429 0.0980 0.5291
vn 0.2862 -0.1320 -0.9490
vn 0.1345 -0.2464 -0.9598
vn -0.0355 0.3061 0.9513
vn -0.9612 -0.1713 -0.2162
vn 0.9290 -0.2061 0.3074
vn -0.8401 0.5317 0.1072
vn 0.4423 0.2497 -0.8614
vn -0.0016 -0.3071 0.9517
vn 0.8350 -0.4035 0.3740
vn -0.9239 0.3401 0.1752
vn 0.0636 -0.4305 0.9003
vn 0.4617 0.1937 -0.8656
vn 0.8423 -0.5081 0.1798
vn 0.9318 -0.0864 0.3526
vn 0.1613 0.1412 0.9768
vn 0.4000 -0.1959 -0.8953
vn -0.9848 0.1707 0.0318
vn 0.9989 0.0221 -0.0424
vn -0.9131 -0.0540 0.4041
vn 0.1843 -0.0695 0.9804
vn -0.2087 0.1635 -0.9642
vn -0.5799 0.3993 -0.7101
vn -0.8921 -0.2566 0.3720
vn 0.9092 0.3770 -0.1769
vn -0.2001 0.1039 -0.9743
vn 0.2889 -0.0734 0.9545
vn -0.6925 0.4513 0.5628
vn -0.9118 -0.1037 0.3973
vn 0.9217 0.2267 -0.3149
vn 0.4951 -0.2922 0.8182
vn 0.2594 -0.0945 0.9611
vn -0.3421 0.2283 -0.9115
vn 0.9779 0.0900 -0.1886
vn -0.9076 -0.1163 0.4034
vn 0.1424 0.1374 -0.9802
vn 0.2096 -0.0302 0.9773
vn -0.9843 0.1765 0.0008
vn 0.9344 -0.1212 0.3350
vn 0.2957 0.2713 0.9159
vn -0.6885 0.7002 0.1887
vn 0.7144 -0.5400 -0.4449
vn -0.3235 -0.3057 -0.8955
vn 0.0621 -0.1475 -0.9871
vn 0.6269 0.4052 0.6654
vn 0.7364 -0.2697 -0.6204
vn -0.8963 0.3498 0.2726
vn -0.8963 0.1555 0.4153
vn 0.5107 -0.0005 0.8597
vn -0.3876 0.0889 -0.9175
vn -0.9436 0.2013 0.2627
vn 0.8403 -0.2456 -0.4833
vn 0.3829 0.6408 0.6654
vn 0.3438 -0.3339 0.8777
vn -0.2725 0.4237 -0.8638
vn 0.9116 -0.0534 -0.4077
vn 0.9349 -0.0543 -0.3506
vn -0.8214 0.3679 0.4357
vn -0.3049 0.0664 -0.9501
vn 0.5119 0.0029 0.8590
vn -0.8421 0.5390 -0.0186
vn 0.6353 -0.5475 -0.5446
vn 0.4122 0.1072 0.9047
vn -0.3734 -0.1412 -0.9169
vn -0.0228 -0.0084 -0.9997
vn 0.8999 -0.1384 -0.4136
vn -0.8271 0.4743 -0.3017
vn 0.3124 -0.0111 0.9499
vn -0.4458 0.2363 -0.8634
vn 0.9863 0.1211 -0.1122
vn -0.8425 -0.0632 0.5350
vn 0.0771 -0.1876 0.9792
vn -0.4559 0.8526 -0.2555
vn -0.9419 -0.2336 0.2412
vn 0.9711 0.2370 -0.0298
vn -0.0709 -0.4577 0.8863
vn 0.1729 0.1497 0.9735
vn -0.7333 0.1901 0.6528
vn 0.9613 0.0028 -0.2754
vn -0.5147 0.0638 -0.8550
vn 0.2290 -0.1556 0.9609
vn -0.4162 0.2495 -0.8744
vn -0.9414 0.0072 0.3372
vn 0.9660 -0.0396 -0.2556
vn 0.8298 0.0697 -0.5537
vn -0.4211 0.1708 -0.8908
vn 0.3567 -0.0360 0.9335
vn 0.9584 -0.1081 -0.2642
vn -0.8744 0.0449 0.4831
vn -0.4253 -0.1469 -0.8931
vn 0.4154 0.2675 0.8694
vn -0.8818 0.0460 0.4693
vn -0.9181 0.2192 0.3303
vn 0.8426 0.0518 -0.5361
vn 0.3252 0.2274 0.9179
vn -0.4347 -0.1419 -0.8893
vn 0.8659 0.2774 -0.4163
vn -0.9659 -0.0926 0.2418
vn -0.2203 0.0808 -0.9721
vn 0.2595 -0.0353 0.9651
vn -0.9641 -0.2433 0.1062
vn 0.1652 0.5703 -0.8047
vn 0.2567 -0.5901 0.7654
vn 0.9583 -0.1373 -0.2508
vn 0.9632 0.0645 0.2610
vn -0.8156 0.1757 0.5512
vn 0.1457 -0.2775 0.9496
vn -0.0555 0.2834 -0.9574
vn -0.1966 0.8913 -0.4085
vn -0.9088 -0.0484 0.4143
vn 0.9678 0.1120 -0.2254
vn -0.0799 0.2171 -0.9729
vn 0.2012 -0.1740 0.9640
vn -0.3043 0.2022 0.9309
vn -0.9612 -0.2722 -0.0438
vn 0.9646 0.1593 0.2102
vn 0.3497 -0.7661 0.5392
vn 0.1408 -0.2600 0.9553
vn -0.1788 0.1929 -0.9648
vn 0.9898 0.0936 -0.1069
vn -0.9647 -0.0903 0.2476
vn 0.0354 0.5419 -0.8397
vn 0.2627 -0.4982 0.8263
vn -0.8970 0.1674 0.4090
vn 0.9876 -0.1418 -0.0673
vn 0.9653 -0.1992 0.1690
vn 0.3045 -0.3081 0.9013
vn 0.0999 0.3122 -0.9448
vn -0.9052 0.1286 0.4051
vn -0.9388 0.0688 0.3374
vn 0.9735 -0.0497 -0.2232
vn 0.1728 -0.1917 0.9661
vn -0.0569 0.3010 -0.9519
vn -0.8919 -0.2595 0.3704
vn 0.1729 0.4699 -0.8656
vn 0.3930 -0.1599 0.9055
vn 0.9702 -0.1583 0.1834
vn -0.8464 -0.5313 -0.0363
vn 0.3199 -0.0044 -0.9474
vn 0.4893 0.2543 0.8342
vn -0.9079 0.0059 0.4191
vn 0.9398 0.0982 -0.3274
vn 0.5201 0.5218 0.6762
vn 0.0382 -0.3538 -0.9346
vn -0.7746 0.6039 0.1881
vn 0.0830 -0.5246 0.8473
vn 0.9059 0.4084 0.1124
vn 0.2462 0.5620 -0.7897
vn 0.8951 -0.1388 -0.4238
vn 0.7755 -0.0846 -0.6256
vn 0.4052 0.1247 0.9057
vn -0.7356 0.0817 -0.6725
vn -0.8906 0.3313 0.3114
vn 0.7657 0.1128 -0.6332
vn -0.7140 -0.0890 -0.6944
vn 0.3701 0.1849 0.9104
vn -0.9619 -0.0008 0.2734
vn -0.9748 -0.0068 0.2228
vn -0.7707 -0.1936 -0.6070
vn 0.5207 0.3186 0.7921
vn 0.8054 0.0230 -0.5923
vn -0.7752 -0.2406 0.5841
vn 0.8093 0.2209 -0.5443
vn -0.6756 0.0947 -0.7311
vn 0.3751 -0.0468 0.9258
vn 0.2888 -0.0303 0.9569
vn 0.7903 0.4745 -0.3877
vn -0.9013 -0.2998 0.3127
vn 0.5730 -0.3499 0.7411
vn -0.5667 0.2579 -0.7825
vn -0.4508 0.7206 0.5267
vn 0.8910 0.2004 -0.4074
vn -0.9002 -0.1344 0.4141
vn -0.4713 0.0635 -0.8797
vn -0.6996 0.3838 -0.6027
vn 0.3958 -0.1966 0.8971
vn -0.7397 -0.6713 0.0472
vn 0.5490 0.7999 -0.2426
vn 0.4664 0.0489 0.8832
vn -0.7073 -0.1707 -0.6861
vn 0.7968 0.3735 -0.4749
vn -0.9505 -0.0956 0.2958
vn 0.8744 0.0977 -0.4753
vn 0.2376 0.2322 0.9432
vn -0.6035 0.0224 -0.7970
vn -0.9161 0.3527 0.1908
vn -0.8613 0.5063 0.0430
vn 0.8931 -0.2368 -0.3825
vn -0.3990 0.1285 -0.9079
vn 0.1595 -0.0257 0.9869
vn 0.2605 -0.1384 0.9555
vn 0.9024 -0.2309 -0.3637
vn -0.9173 0.2835 0.2797
vn 0.1530 0.0911 0.9840
vn -0.3379 0.0636 -0.9390
vn 0.2823 0.9565 0.0730
vn 0.9177 -0.1416 -0.3711
vn -0.9422 0.2274 0.2462
vn -0.2377 0.1962 -0.9513
vn -0.2712 -0.0342 -0.9619
vn 0.3144 -0.0066 0.9493
vn -0.9496 0.1783 0.2577
vn 0.9173 -0.1503 -0.3686
vn 0.2807 -0.1886 0.9411
vn -0.3928 0.1747 -0.9029
vn 0.8353 0.2726 -0.4774
vn -0.9898 -0.1410 -0.0223
vn -0.8482 0.5248 0.0714
vn -0.4793 0.3393 -0.8094
vn 0.3681 0.0075 0.9297
vn 0.8693 -0.3156 -0.3804
vn -0.3875 -0.1267 -0.9131
vn -0.9479 0.0250 0.3177
vn 0.9232 0.0008 -0.3843
vn 0.3564 0.1643 0.9198
vn 0.2252 -0.2136 -0.9506
vn 0.8561 0.2134 0.4707
vn -0.9872 -0.0221 -0.1576
vn -0.2257 0.1342 0.9649
vn -0.6752 0.3104 0.6692
vn -0.0304 -0.0509 -0.9982
vn -0.9650 -0.1294 -0.2283
vn 0.8914 0.1867 0.4131
vn 0.9708 0.2342 0.0512
vn -0.1069 -0.2852 -0.9525
vn -0.3257 0.5307 0.7825
vn 0.8984 0.3765 0.2262
vn -0.9471 0.0859 -0.3092
vn 0.0945 -0.3582 -0.9289
vn -0.2894 0.3927 0.8729
vn -0.9808 -0.1673 -0.1001
vn -0.9070 0.3238 -0.2692
vn 0.9591 -0.0132 0.2826
vn -0.0961 0.2126 0.9724
vn -0.0454 -0.0014 -0.9990
vn 0.7840 0.5580 0.2719
vn -0.8081 -0.5869 0.0505
vn 0.2507 -0.3255 -0.9117
vn -0.6868 0.1507 0.7110
vn -0.6416 0.2818 0.7134
vn -0.9259 0.3510 -0.1397
vn 0.8433 0.0966 0.5287
vn 0.2605 -0.0416 -0.9646
vn -0.0660 -0.2159 -0.9742
vn -0.2990 0.3390 0.8920
vn -0.9769 -0.1311 -0.1687
vn 0.9299 -0.2114 0.3009
vn -0.8406 0.5308 0.1077
vn 0.4417 0.1867 -0.8775
vn 0.0037 -0.3388 0.9408
vn 0.8398 -0.4296 0.3321
vn -0.8137 0.5656 0.1344
vn 0.0264 -0.3284 0.9442
vn 0.4350 0.4521 -0.7787
vn 0.8197 -0.4745 0.3209
vn 0.9155 -0.1118 0.3865
vn 0.2579 -0.0205 0.9659
vn 0.3068 0.1055 -0.9459
vn -0.9791 0.2031 0.0056
vn 0.9787 0.0732 -0.1918
vn -0.9909 0.1319 -0.0270
vn 0.2385 -0.0603 0.9693
vn -0.2206 0.1658 -0.9612
vn -0.5504 0.4137 -0.7252
vn -0.9054 -0.2439 0.3474
vn 0.8970 0.3918 -0.2046
vn -0.2206 0.0948 -0.9707
vn 0.2886 -0.0737 0.9546
vn -0.6925 0.4514 0.5628
vn -0.8900 -0.1315 0.4366
vn 0.9366 0.2043 -0.2848
vn 0.4856 -0.2961 0.8225
vn 0.2953 -0.0801 0.9520
vn -0.3682 0.2074 -0.9063
vn 0.9402 0.1369 -0.3120
vn -0.9157 -0.1086 0.3870
vn -0.0570 0.3093 -0.9492
vn 0.3041 -0.0972 0.9477
vn -0.9898 0.1361 0.0427
vn 0.9960 0.0874 -0.0179
vn 0.3794 0.0781 0.9219
vn -0.8439 0.5362 -0.0159
vn 0.7334 -0.5263 -0.4304
vn -0.4087 -0.3165 -0.8561
vn 0.0079 -0.1501 -0.9886
vn 0.4722 0.3576 0.8057
vn 0.8655 -0.3114 -0.3923
vn -0.8583 0.3270 0.3954
vn -0.8930 0.1507 0.4240
vn 0.4546 0.0055 0.8907
vn -0.3746 0.0808 -0.9237
vn -0.9085 0.1523 0.3892
vn 0.8249 -0.2368 -0.5132
vn 0.3788 -0.3407 0.8605
vn -0.2421 0.4169 -0.8761
vn 0.9236 -0.0701 -0.3768
vn 0.9059 -0.0269 -0.4226
vn -0.7801 0.3403 0.5250
vn -0.3813 0.1025 -0.9188
vn 0.4611 0.0340 0.8867
vn -0.5838 0.7728 0.2489
vn 0.7430 -0.4983 -0.4467
vn 0.6018 0.0781 0.7948
vn -0.0328 -0.1977 -0.9797
vn 0.0779 -0.1033 -0.9916
vn 0.8834 -0.1081 -0.4559
vn -0.9678 0.1482 0.2033
vn 0.1963 -0.0642 0.9784
vt 0.289613 0.199263
vt 0.296215 0.197935
vt 0.296518 0.201062
vt 0.276933 0.175589
vt 0.282971 0.183090
vt 0.276933 0.184694
vt 0.291534 0.198291
vt 0.296255 0.192332
vt 0.297158 0.194114
vt 0.294576 0.194620
vt 0.297361 0.199190
vt 0.293114 0.197009
vt 0.280712 0.187278
vt 0.284788 0.188077
vt 0.279537 0.189083
vt 0.290327 0.196405
vt 0.294043 0.192569
vt 0.297301 0.192213
vt 0.299019 0.195444
vt 0.291191 0.188402
vt 0.295184 0.187175
vt 0.284898 0.185297
vt 0.281505 0.182572
vt 0.285453 0.181303
vt 0.285453 0.192745
vt 0.281015 0.194721
vt 0.294709 0.202549
vt 0.289279 0.199880
vt 0.295222 0.202896
vt 0.300759 0.198082
vt 0.287273 0.201340
vt 0.295225 0.204097
vt 0.284894 0.175198
vt 0.287471 0.178234
vt 0.285485 0.179204
vt 0.289112 0.186182
vt 0.291480 0.181118
vt 0.292265 0.186079
vt 0.293450 0.186360
vt 0.293951 0.181834
vt 0.296336 0.185568
vt 0.293155 0.181900
vt 0.297724 0.178575
vt 0.295563 0.183394
vt 0.299315 0.171324
vt 0.300337 0.168755
vt 0.300759 0.168696
vt 0.289164 0.178671
vt 0.289701 0.174516
vt 0.290903 0.178075
vt 0.286250 0.181715
vt 0.287182 0.184537
vt 0.286460 0.184676
vt 0.298521 0.174815
vt 0.295330 0.177391
vt 0.296701 0.174617
vt 0.291089 0.178993
vt 0.291372 0.175428
vt 0.292747 0.178911
vt 0.287652 0.171586
vt 0.287343 0.171954
vt 0.287273 0.171750
vt 0.288756 0.174909
vt 0.287745 0.171801
vt 0.286573 0.187720
vt 0.286259 0.187780
vt 0.290432 0.175458
vt 0.289661 0.172980
vt 0.291810 0.182380
vt 0.298301 0.171234
vt 0.290180 0.192762
vt 0.283746 0.171914
vt 0.287386 0.173237
vt 0.291802 0.203954
vt 0.296312 0.202768
vt 0.297455 0.207248
vt 0.275034 0.184821
vt 0.282391 0.181220
vt 0.283548 0.186485
vt 0.290016 0.196486
vt 0.294078 0.197954
vt 0.288602 0.200369
vt 0.289091 0.197573
vt 0.290943 0.192258
vt 0.291826 0.197951
vt 0.288822 0.201725
vt 0.290991 0.204943
vt 0.288070 0.207476
vt 0.295306 0.198395
vt 0.292788 0.193663
vt 0.295681 0.193386
vt 0.289002 0.193309
vt 0.290915 0.186747
vt 0.293288 0.192490
vt 0.277384 0.176258
vt 0.283809 0.170930
vt 0.282859 0.177072
vt 0.289290 0.176167
vt 0.288456 0.171231
vt 0.290427 0.176088
vt 0.292390 0.180848
vt 0.290811 0.177346
vt 0.291840 0.176833
vt 0.292505 0.178312
vt 0.293976 0.174698
vt 0.293637 0.178877
vt 0.283828 0.164528
vt 0.279811 0.170314
vt 0.280620 0.164447
vt 0.288091 0.173801
vt 0.290411 0.169996
vt 0.290307 0.174028
vt 0.292329 0.165725
vt 0.291900 0.165784
vt 0.291914 0.165522
vt 0.288966 0.173000
vt 0.289370 0.172746
vt 0.293062 0.174085
vt 0.296802 0.170681
vt 0.292282 0.165982
vt 0.290375 0.180250
vt 0.291250 0.179868
vt 0.288843 0.180007
vt 0.289640 0.184989
vt 0.291387 0.185268
vt 0.294750 0.187257
vt 0.290987 0.181315
vt 0.275975 0.180604
vt 0.294578 0.196310
vt 0.291217 0.198762
vt 0.291494 0.200924
vt 0.291259 0.207902
vt 0.288265 0.210261
vt 0.294880 0.200824
vt 0.288970 0.203369
vt 0.274179 0.187559
vt 0.283424 0.189321
vt 0.291329 0.206587
vt 0.297430 0.209722
vt 0.292698 0.187417
vt 0.288430 0.191749
vt 0.287433 0.180375
vt 0.288021 0.186803
vt 0.290278 0.209417
vt 0.297297 0.212807
vt 0.274684 0.190435
vt 0.283265 0.191134
vt 0.294082 0.203565
vt 0.287282 0.206462
vt 0.289514 0.211740
vt 0.291723 0.211281
vt 0.291337 0.180828
vt 0.294292 0.189516
vt 0.289922 0.191580
vt 0.283828 0.194370
vt 0.278330 0.196741
vt 0.274303 0.192808
vt 0.292694 0.207492
vt 0.293410 0.212158
vt 0.296429 0.214173
vt 0.288966 0.209321
vt 0.290044 0.214991
vt 0.296436 0.211794
vt 0.294468 0.207741
vt 0.296802 0.207080
vt 0.283334 0.192139
vt 0.287432 0.187398
vt 0.286029 0.195097
vt 0.286029 0.185536
vt 0.289532 0.202307
vt 0.292632 0.197683
vt 0.291733 0.206123
vt 0.295966 0.215711
vt 0.291121 0.217430
vt 0.274894 0.192065
vt 0.289248 0.212835
vt 0.295612 0.186116
vt 0.297913 0.184422
vt 0.297904 0.186673
vt 0.296773 0.181664
vt 0.298788 0.183918
vt 0.299055 0.189277
vt 0.296435 0.180828
vt 0.290538 0.190959
vt 0.295911 0.190351
vt 0.296372 0.193308
vt 0.296550 0.202693
vt 0.291483 0.196424
vt 0.296550 0.194990
vt 0.281002 0.200178
vt 0.285032 0.195577
vt 0.286697 0.197442
vt 0.295839 0.211592
vt 0.298398 0.215046
vt 0.294450 0.213280
vt 0.292864 0.187544
vt 0.296550 0.188326
vt 0.292392 0.189969
vt 0.290939 0.188910
vt 0.294708 0.184940
vt 0.299477 0.211983
vt 0.297119 0.206999
vt 0.299886 0.206815
vt 0.279852 0.195969
vt 0.283833 0.190389
vt 0.296397 0.186228
vt 0.293102 0.182129
vt 0.295900 0.181422
vt 0.296073 0.193436
vt 0.291282 0.194990
vt 0.292637 0.217703
vt 0.297342 0.219922
vt 0.287989 0.202027
vt 0.281291 0.205314
vt 0.290968 0.194964
vt 0.298243 0.197605
vt 0.295135 0.178191
vt 0.291282 0.174857
vt 0.292937 0.173864
vt 0.291803 0.179422
vt 0.295333 0.176837
vt 0.294909 0.180078
vt 0.298466 0.201815
vt 0.296348 0.198131
vt 0.298101 0.197973
vt 0.282130 0.185328
vt 0.284550 0.182224
vt 0.283695 0.187435
vt 0.287167 0.176384
vt 0.287989 0.171876
vt 0.287951 0.176642
vt 0.295695 0.172745
vt 0.297931 0.170006
vt 0.297112 0.173200
vt 0.287746 0.188277
vt 0.286197 0.184984
vt 0.286972 0.185126
vt 0.285811 0.179364
vt 0.282463 0.181665
vt 0.294764 0.195176
vt 0.292637 0.192513
vt 0.293353 0.192287
vt 0.287407 0.180416
vt 0.287678 0.180633
vt 0.287348 0.180627
vt 0.297109 0.169849
vt 0.298243 0.165849
vt 0.292787 0.187749
vt 0.293071 0.187633
vt 0.290220 0.221791
vt 0.291563 0.218692
vt 0.292187 0.222168
vt 0.279915 0.189686
vt 0.296445 0.203233
vt 0.290867 0.184411
vt 0.292444 0.179366
vt 0.282571 0.193163
vt 0.286013 0.190652
vt 0.287283 0.193482
vt 0.284420 0.192457
vt 0.288963 0.187506
vt 0.290749 0.192242
vt 0.279368 0.201278
vt 0.283422 0.199641
vt 0.284249 0.201483
vt 0.292147 0.183601
vt 0.295255 0.184770
vt 0.291519 0.184719
vt 0.279576 0.181368
vt 0.277196 0.177803
vt 0.279022 0.177478
vt 0.278934 0.185890
vt 0.281298 0.186969
vt 0.277510 0.187799
vt 0.283933 0.186877
vt 0.286439 0.182865
vt 0.286498 0.187531
vt 0.291361 0.177952
vt 0.289966 0.174451
vt 0.291623 0.174033
vt 0.283502 0.195084
vt 0.285469 0.191142
vt 0.286134 0.195494
vt 0.281621 0.178253
vt 0.281521 0.174645
vt 0.281672 0.174663
vt 0.284680 0.179265
vt 0.283390 0.174212
vt 0.284159 0.174078
vt 0.278333 0.173421
vt 0.279077 0.168060
vt 0.279599 0.173396
vt 0.284553 0.186816
vt 0.283563 0.190449
vt 0.283202 0.186648
vt 0.291294 0.170635
vt 0.293534 0.165460
vt 0.292523 0.170568
vt 0.287224 0.214033
vt 0.287083 0.213880
vt 0.287223 0.213886
vt 0.283562 0.170823
vt 0.283757 0.167181
vt 0.283910 0.167185
vt 0.278810 0.164492
vt 0.278127 0.160913
vt 0.279286 0.164516
vt 0.294804 0.162340
vt 0.295000 0.158556
vt 0.295255 0.162341
vt 0.282558 0.181463
vt 0.284344 0.182956
vt 0.294563 0.182978
vt 0.281535 0.185713
vt 0.281893 0.191369
vt 0.277196 0.192115
vt 0.294564 0.189066
vt 0.289696 0.188849
vt 0.279664 0.205325
vt 0.286134 0.205545
vt 0.281433 0.197511
vt 0.287764 0.197511
vt 0.292823 0.165487
vt 0.283325 0.181550
vt 0.281131 0.178217
vt 0.293842 0.210690
vt 0.299876 0.209483
vt 0.298523 0.215923
vt 0.286990 0.189999
vt 0.290718 0.180973
vt 0.296203 0.187645
vt 0.290461 0.211626
vt 0.298208 0.216954
vt 0.289594 0.216898
vt 0.284172 0.195417
vt 0.287970 0.197030
vt 0.285762 0.200892
vt 0.282616 0.191645
vt 0.284377 0.188165
vt 0.285358 0.192376
vt 0.281628 0.196925
vt 0.283549 0.204113
vt 0.298714 0.203409
vt 0.295765 0.199599
vt 0.298383 0.198287
vt 0.283687 0.190981
vt 0.286109 0.187022
vt 0.287817 0.190105
vt 0.296254 0.206002
vt 0.292841 0.201050
vt 0.296877 0.201294
vt 0.293298 0.189722
vt 0.290984 0.185439
vt 0.291421 0.185282
vt 0.295690 0.191752
vt 0.293658 0.189552
vt 0.294229 0.188611
vt 0.285240 0.179583
vt 0.287895 0.176942
vt 0.286268 0.180264
vt 0.296146 0.197931
vt 0.292950 0.198022
vt 0.283561 0.179676
vt 0.286612 0.176923
vt 0.285750 0.179962
vt 0.290235 0.185614
vt 0.289754 0.185804
vt 0.290014 0.185445
vt 0.289936 0.185989
vt 0.287477 0.175933
vt 0.292323 0.173104
vt 0.285659 0.176507
vt 0.288021 0.171387
vt 0.283083 0.183451
vt 0.285979 0.183348
vt 0.292266 0.190166
vt 0.295474 0.193453
vt 0.293068 0.193877
vt 0.285630 0.184290
vt 0.294782 0.195985
vt 0.296790 0.195728
vt 0.296906 0.211313
vt 0.290776 0.205535
vt 0.283627 0.194338
vt 0.288021 0.193210
vt 0.295288 0.207531
vt 0.288202 0.205825
vt 0.285648 0.208771
vt 0.292323 0.199724
vt 0.299041 0.220238
vt 0.288956 0.220238
vt 0.289754 0.213558
vt 0.296580 0.220504
vt 0.283951 0.183873
vt 0.282470 0.187397
vt 0.283120 0.203154
vt 0.292263 0.210301
vt 0.283625 0.209612
vt 0.287390 0.200330
vt 0.282387 0.206803
vt 0.283891 0.200961
vt 0.275662 0.203007
vt 0.281249 0.195397
vt 0.283885 0.200187
vt 0.281936 0.195966
vt 0.285257 0.201957
vt 0.279621 0.200138
vt 0.288368 0.185978
vt 0.293862 0.189345
vt 0.288016 0.190741
vt 0.290154 0.201952
vt 0.281930 0.199770
vt 0.287212 0.198427
vt 0.286938 0.195558
vt 0.281965 0.191545
vt 0.285746 0.190945
vt 0.274179 0.194321
vt 0.281400 0.190562
vt 0.293419 0.185066
vt 0.289386 0.181151
vt 0.293287 0.180628
vt 0.282955 0.201042
vt 0.286738 0.204706
vt 0.283129 0.206741
vt 0.281381 0.205873
vt 0.276854 0.202673
vt 0.280750 0.209328
vt 0.287273 0.202985
vt 0.291723 0.218357
vt 0.281628 0.215298
vt 0.288241 0.177175
vt 0.291633 0.171293
vt 0.292415 0.175985
vt 0.294260 0.201916
vt 0.290717 0.205166
vt 0.290515 0.202180
vt 0.281853 0.186812
vt 0.282299 0.181261
vt 0.285062 0.185712
vt 0.277307 0.184239
vt 0.283305 0.181316
vt 0.279977 0.186585
vt 0.285430 0.173153
vt 0.286797 0.170247
vt 0.287273 0.170211
vt 0.286960 0.191604
vt 0.285025 0.189044
vt 0.286132 0.188916
vt 0.288061 0.167556
vt 0.289110 0.163833
vt 0.289968 0.167657
vt 0.282272 0.176652
vt 0.280709 0.179840
vt 0.279086 0.178055
vt 0.279230 0.174022
vt 0.280927 0.177902
vt 0.286227 0.212130
vt 0.286555 0.212704
vt 0.286106 0.212592
vt 0.286106 0.209328
vt 0.286684 0.212283
vt 0.288016 0.163692
vt 0.289548 0.160789
vt 0.278186 0.174091
vt 0.277281 0.171120
vt 0.279950 0.181939
vt 0.284306 0.172973
vt 0.284290 0.177006
vt 0.288938 0.171884
vt 0.287059 0.193976
vt 0.284951 0.191701
vt 0.276106 0.189159
vt 0.281628 0.195438
vt 0.285879 0.194514
vt 0.294476 0.193726
vt 0.297715 0.200216
vt 0.293761 0.197753
vt 0.296266 0.198603
vt 0.291271 0.198620
vt 0.294979 0.197310
vt 0.277760 0.193029
vt 0.279810 0.187131
vt 0.281998 0.190984
vt 0.295992 0.184698
vt 0.298025 0.188826
vt 0.294573 0.187248
vt 0.292781 0.187089
vt 0.291162 0.182975
vt 0.292993 0.183316
vt 0.289951 0.191245
vt 0.292441 0.193822
vt 0.288956 0.194988
vt 0.294668 0.189492
vt 0.296476 0.185270
vt 0.297308 0.189760
vt 0.296268 0.181143
vt 0.296588 0.177387
vt 0.298315 0.180898
vt 0.279456 0.183146
vt 0.278907 0.178079
vt 0.280797 0.178842
vt 0.283696 0.171934
vt 0.283277 0.167035
vt 0.283425 0.167004
vt 0.293719 0.183126
vt 0.292741 0.180187
vt 0.294941 0.182523
vt 0.292317 0.179555
vt 0.295061 0.176950
vt 0.293451 0.180129
vt 0.280916 0.174873
vt 0.293815 0.175219
vt 0.293561 0.173040
vt 0.295034 0.175021
vt 0.293744 0.169044
vt 0.293629 0.169118
vt 0.293602 0.169025
vt 0.290953 0.175648
vt 0.291102 0.175615
vt 0.294347 0.176732
vt 0.296266 0.172151
vt 0.292853 0.173045
vt 0.293761 0.169139
vt 0.294927 0.177869
vt 0.282925 0.171910
vt 0.282231 0.175223
vt 0.276195 0.187222
vt 0.298532 0.184895
vt 0.298076 0.194038
vt 0.292526 0.191083
vt 0.290700 0.187310
vt 0.292853 0.191586
vt 0.295894 0.193113
vt 0.283696 0.193815
vt 0.279731 0.197587
vt 0.290953 0.201449
vt 0.297318 0.205154
vt 0.283782 0.178243
vt 0.290200 0.194253
vt 0.295084 0.189906
vt 0.288899 0.181824
vt 0.287555 0.181395
vt 0.289279 0.172914
vt 0.287555 0.170316
vt 0.291556 0.202238
vt 0.287282 0.187427
vt 0.288021 0.171421
vt 0.289387 0.169758
vt 0.296451 0.170379
vt 0.291153 0.187029
vt 0.283533 0.197121
vt 0.286975 0.195075
vt 0.289532 0.193769
vt 0.289401 0.201012
vt 0.293236 0.176241
vt 0.287671 0.171755
vt 0.286393 0.188283
vt 0.286991 0.180192
vt 0.293717 0.195964
vt 0.287746 0.180438
vt 0.297911 0.165751
vt 0.290220 0.218357
vt 0.282496 0.191469
vt 0.284420 0.185947
vt 0.280079 0.198260
vt 0.277657 0.182223
vt 0.289332 0.178331
vt 0.283317 0.179405
vt 0.278331 0.168019
vt 0.287073 0.214033
vt 0.283071 0.170904
vt 0.277982 0.160935
vt 0.294862 0.158566
vt 0.286990 0.179942
vt 0.286488 0.193967
vt 0.282190 0.186820
vt 0.294723 0.204281
vt 0.294351 0.192323
vt 0.292076 0.172736
vt 0.287618 0.171231
vt 0.287390 0.210862
vt 0.286738 0.198905
vt 0.294260 0.206243
vt 0.287187 0.209719
vt 0.289087 0.160745
vt 0.276854 0.171052
vt 0.284108 0.193976
vt 0.289767 0.202076
vt 0.294454 0.185816
vt 0.276809 0.182821
vt 0.291990 0.180393
vt 0.296124 0.172112
s 0
usemtl Material
f 11/1/1 6/2/1 9/3/1
f 2/4/2 4/5/2 1/6/2
f 9/7/3 8/8/3 10/9/3
f 7/10/4 11/11/4 12/12/4
f 8/13/5 12/14/5 10/15/5
f 5/16/6 16/17/6 6/2/6
f 7/10/7 13/18/7 5/19/7
f 8/8/8 16/20/8 18/21/8
f 7/22/9 18/23/9 17/24/9
f 10/15/10 4/25/10 3/26/10
f 12/12/11 1/27/11 4/28/11
f 2/29/12 10/9/12 3/30/12
f 1/31/13 9/3/13 2/32/13
f 33/33/14 23/34/14 15/35/14
f 34/36/15 22/37/15 36/38/15
f 33/39/16 19/40/16 34/41/16
f 36/42/17 23/43/17 35/44/17
f 24/45/18 27/46/18 28/47/18
f 31/48/19 21/49/19 30/50/19
f 29/51/20 24/52/20 14/53/20
f 32/54/21 22/55/21 30/56/21
f 29/57/22 20/58/22 31/59/22
f 28/60/23 26/61/23 25/62/23
f 20/63/24 27/64/24 21/49/24
f 14/53/25 28/65/25 25/66/25
f 14/67/26 26/68/26 20/58/26
f 15/69/27 31/59/27 19/40/27
f 21/70/28 32/54/28 30/56/28
f 23/34/29 29/51/29 15/35/29
f 22/37/30 31/48/30 30/50/30
f 16/20/31 35/44/31 18/21/31
f 13/18/32 33/39/32 34/41/32
f 13/71/33 36/38/33 16/17/33
f 17/72/34 35/73/34 33/33/34
f 63/74/35 40/75/35 61/76/35
f 61/77/36 42/78/36 62/79/36
f 41/80/37 63/81/37 64/82/37
f 59/83/38 39/84/38 57/85/38
f 42/86/39 64/87/39 62/88/39
f 60/89/40 43/90/40 46/91/40
f 57/92/41 43/93/41 58/94/41
f 60/95/42 47/96/42 59/97/42
f 45/98/43 52/99/43 48/100/43
f 54/101/44 44/102/44 45/103/44
f 56/104/45 38/105/45 53/106/45
f 68/107/46 46/108/46 65/109/46
f 53/110/47 44/111/47 55/112/47
f 51/113/48 49/114/48 52/115/48
f 45/103/49 50/116/49 51/117/49
f 48/118/50 49/119/50 38/105/50
f 44/111/51 49/114/51 50/120/51
f 67/121/52 53/110/52 55/112/52
f 45/98/53 56/122/53 54/123/53
f 68/124/54 53/106/54 66/125/54
f 65/126/55 55/127/55 54/101/55
f 40/128/56 59/97/56 42/78/56
f 41/80/57 58/94/57 37/129/57
f 40/75/58 58/130/58 60/89/58
f 42/86/59 57/85/59 41/131/59
f 62/88/60 71/132/60 70/133/60
f 64/82/61 72/134/61 71/135/61
f 69/136/62 62/79/62 70/137/62
f 72/138/63 61/76/63 69/139/63
f 46/91/64 67/140/64 65/126/64
f 47/141/65 66/125/65 39/84/65
f 43/93/66 66/142/66 67/121/66
f 56/122/67 65/143/67 54/123/67
f 76/144/68 69/139/68 73/145/68
f 73/146/69 70/137/69 74/147/69
f 71/135/70 76/148/70 75/149/70
f 74/150/71 71/132/71 75/151/71
f 78/152/72 90/153/72 77/154/72
f 80/155/73 91/156/73 78/157/73
f 76/158/74 83/159/74 75/151/74
f 76/144/75 79/160/75 84/161/75
f 80/162/76 83/159/76 82/163/76
f 82/163/77 84/164/77 77/165/77
f 78/157/78 81/166/78 80/155/78
f 84/167/79 78/168/79 77/169/79
f 82/170/80 90/171/80 88/172/80
f 80/162/81 88/173/81 92/174/81
f 74/147/82 79/175/82 73/146/82
f 75/151/83 81/176/83 74/150/83
f 85/177/2 89/178/2 87/179/2
f 86/180/2 92/181/2 89/178/2
f 87/179/2 90/153/2 85/177/2
f 87/179/2 92/181/2 88/182/2
f 85/177/2 91/183/2 86/180/2
f 103/184/84 98/185/84 101/186/84
f 94/187/2 96/188/2 93/189/2
f 101/190/85 100/191/85 102/192/85
f 99/193/86 103/194/86 104/195/86
f 100/196/87 104/197/87 102/198/87
f 97/199/88 108/200/88 98/185/88
f 97/201/89 109/202/89 105/203/89
f 98/204/90 110/205/90 100/191/90
f 99/206/91 110/207/91 109/208/91
f 102/198/92 96/209/92 95/210/92
f 96/211/93 103/194/93 93/212/93
f 101/190/94 95/213/94 94/214/94
f 93/215/95 101/186/95 94/216/95
f 125/217/96 115/218/96 107/219/96
f 126/220/97 114/221/97 128/222/97
f 126/223/98 107/224/98 111/225/98
f 128/226/99 115/227/99 127/228/99
f 113/229/100 120/230/100 116/231/100
f 123/232/101 113/233/101 122/234/101
f 121/235/102 116/236/102 106/237/102
f 122/238/103 115/227/103 114/239/103
f 123/240/104 106/241/104 112/242/104
f 119/243/105 117/244/105 120/245/105
f 112/246/106 119/247/106 113/233/106
f 106/237/107 120/245/107 117/244/107
f 112/242/108 117/248/108 118/249/108
f 107/224/109 123/240/109 111/225/109
f 116/231/110 122/238/110 113/229/110
f 115/250/111 121/251/111 107/252/111
f 114/221/112 123/232/112 122/234/112
f 108/253/113 127/228/113 110/205/113
f 105/203/114 125/254/114 126/223/114
f 105/255/115 128/222/115 108/200/115
f 109/208/116 127/256/116 125/217/116
f 159/257/117 136/258/117 157/259/117
f 130/260/2 132/261/2 129/262/2
f 157/263/118 138/264/118 158/265/118
f 137/266/119 159/267/119 160/268/119
f 153/269/120 143/270/120 135/271/120
f 138/272/121 160/273/121 158/274/121
f 154/275/122 142/276/122 156/277/122
f 154/278/123 135/279/123 139/280/123
f 156/281/124 143/282/124 155/283/124
f 162/284/125 147/285/125 148/286/125
f 150/287/126 140/288/126 141/289/126
f 152/290/127 134/291/127 149/292/127
f 152/293/128 142/294/128 150/295/128
f 149/296/129 140/297/129 151/298/129
f 148/299/130 146/300/130 145/301/130
f 161/302/131 146/303/131 147/304/131
f 162/305/132 145/306/132 164/307/132
f 164/308/133 146/309/133 163/310/133
f 139/280/134 149/296/134 151/298/134
f 141/311/135 152/293/135 150/295/135
f 135/271/136 152/290/136 149/292/136
f 139/312/137 150/287/137 142/276/137
f 138/264/138 156/281/138 155/283/138
f 137/266/139 154/278/139 133/313/139
f 136/258/140 154/275/140 156/277/140
f 138/272/141 153/269/141 137/314/141
f 158/274/142 132/315/142 131/316/142
f 160/268/143 129/317/143 132/318/143
f 130/319/144 158/265/144 131/320/144
f 129/321/145 157/259/145 130/322/145
f 134/323/146 163/310/146 140/297/146
f 134/291/147 162/305/147 164/307/147
f 140/288/148 161/302/148 141/289/148
f 144/324/149 161/325/149 162/284/149
f 195/326/150 172/327/150 193/328/150
f 166/329/2 168/330/2 165/331/2
f 172/332/151 194/333/151 193/334/151
f 173/335/152 195/336/152 196/337/152
f 191/338/153 171/339/153 189/340/153
f 174/341/154 196/337/154 194/342/154
f 192/343/155 175/344/155 178/345/155
f 189/346/156 175/347/156 190/348/156
f 191/349/157 178/350/157 179/351/157
f 180/352/158 183/353/158 184/354/158
f 186/355/159 176/356/159 177/357/159
f 188/358/160 170/359/160 185/360/160
f 200/361/161 178/350/161 197/362/161
f 185/363/162 176/364/162 187/365/162
f 183/366/163 181/367/163 184/368/163
f 177/357/164 182/369/164 183/366/164
f 180/370/165 181/371/165 170/359/165
f 170/372/166 182/373/166 176/364/166
f 198/374/167 187/365/167 199/375/167
f 177/376/168 188/377/168 186/378/168
f 198/379/169 188/358/169 185/360/169
f 199/380/170 186/355/170 197/381/170
f 174/382/171 192/383/171 191/349/171
f 173/384/172 190/348/172 169/385/172
f 169/386/173 192/343/173 172/327/173
f 173/335/174 191/338/174 189/340/174
f 194/342/175 168/387/175 167/388/175
f 196/337/176 165/389/176 168/387/176
f 193/334/177 167/390/177 166/391/177
f 165/392/178 193/328/178 166/393/178
f 175/344/179 197/381/179 178/345/179
f 171/339/180 200/394/180 198/379/180
f 171/395/181 199/375/181 175/347/181
f 186/378/182 200/361/182 197/362/182
f 205/396/183 209/397/183 211/398/183
f 201/399/2 203/400/2 204/401/2
f 209/402/184 208/403/184 210/404/184
f 207/405/185 211/406/185 212/407/185
f 208/408/186 212/409/186 210/410/186
f 206/411/187 213/412/187 216/413/187
f 205/414/188 217/415/188 213/416/188
f 206/417/189 218/418/189 208/403/189
f 207/419/190 218/420/190 217/421/190
f 203/422/191 212/423/191 204/424/191
f 212/407/192 201/425/192 204/426/192
f 202/427/193 210/404/193 203/428/193
f 211/398/194 202/429/194 201/430/194
f 235/431/195 215/432/195 233/433/195
f 236/434/196 219/435/196 222/436/196
f 233/437/197 219/438/197 234/439/197
f 236/440/198 223/441/198 235/442/198
f 224/443/199 227/444/199 228/445/199
f 230/446/200 220/447/200 221/448/200
f 232/449/201 214/450/201 229/451/201
f 230/452/202 223/441/202 222/453/202
f 229/454/203 220/455/203 231/456/203
f 227/457/204 225/458/204 228/459/204
f 221/460/205 226/461/205 227/457/205
f 224/462/206 225/463/206 214/450/206
f 214/464/207 226/465/207 220/455/207
f 215/466/208 231/456/208 219/438/208
f 221/467/209 232/468/209 230/452/209
f 223/469/210 229/451/210 215/432/210
f 222/470/211 231/471/211 230/446/211
f 216/472/212 235/442/212 218/418/212
f 213/416/213 233/437/213 234/439/213
f 216/413/214 234/473/214 236/474/214
f 218/420/215 233/433/215 217/421/215
f 241/475/216 265/476/216 267/477/216
f 237/478/2 239/479/2 240/480/2
f 265/481/217 246/482/217 266/483/217
f 245/484/218 267/485/218 268/486/218
f 261/487/219 251/488/219 243/489/219
f 246/490/220 268/491/220 266/492/220
f 262/493/221 250/494/221 264/495/221
f 261/496/222 247/497/222 262/498/222
f 263/499/223 250/500/223 251/501/223
f 252/502/224 255/503/224 256/504/224
f 259/505/225 249/506/225 258/507/225
f 260/508/226 242/509/226 257/510/226
f 258/511/227 251/501/227 250/500/227
f 257/512/228 248/513/228 259/514/228
f 255/515/229 253/516/229 256/517/229
f 249/506/230 254/518/230 255/519/230
f 252/520/231 253/521/231 242/509/231
f 242/522/232 254/523/232 248/513/232
f 243/524/233 259/514/233 247/497/233
f 249/525/234 260/526/234 258/511/234
f 251/488/235 257/510/235 243/489/235
f 250/494/236 259/505/236 258/507/236
f 244/527/237 263/499/237 246/482/237
f 241/528/238 261/496/238 262/498/238
f 241/475/239 264/495/239 244/529/239
f 245/530/240 263/531/240 261/487/240
f 239/479/241 268/491/241 240/480/241
f 240/532/242 267/485/242 237/533/242
f 265/481/243 239/534/243 238/535/243
f 237/536/244 265/476/244 238/537/244
f 11/1/245 5/16/245 6/2/245
f 2/4/2 3/538/2 4/5/2
f 9/7/246 6/539/246 8/8/246
f 7/10/247 5/19/247 11/11/247
f 8/13/248 7/22/248 12/14/248
f 5/16/249 13/71/249 16/17/249
f 7/10/250 17/540/250 13/18/250
f 8/8/251 6/539/251 16/20/251
f 7/22/252 8/13/252 18/23/252
f 10/15/253 12/14/253 4/25/253
f 12/12/254 11/11/254 1/27/254
f 2/29/255 9/7/255 10/9/255
f 1/31/256 11/1/256 9/3/256
f 33/33/257 35/73/257 23/34/257
f 34/36/258 19/541/258 22/37/258
f 33/39/259 15/69/259 19/40/259
f 36/42/260 22/55/260 23/43/260
f 24/45/261 21/70/261 27/46/261
f 31/48/262 20/63/262 21/49/262
f 29/51/263 32/542/263 24/52/263
f 32/54/264 23/43/264 22/55/264
f 29/57/265 14/67/265 20/58/265
f 28/60/23 27/64/23 26/61/23
f 20/63/266 26/61/266 27/64/266
f 14/53/267 24/52/267 28/65/267
f 14/67/268 25/543/268 26/68/268
f 15/69/269 29/57/269 31/59/269
f 21/70/270 24/45/270 32/54/270
f 23/34/271 32/542/271 29/51/271
f 22/37/272 19/541/272 31/48/272
f 16/20/273 36/42/273 35/44/273
f 13/18/274 17/540/274 33/39/274
f 13/71/275 34/36/275 36/38/275
f 17/72/276 18/544/276 35/73/276
f 63/74/277 37/545/277 40/75/277
f 61/77/278 40/128/278 42/78/278
f 41/80/279 37/129/279 63/81/279
f 59/83/280 47/141/280 39/84/280
f 42/86/281 41/131/281 64/87/281
f 60/89/282 58/130/282 43/90/282
f 57/92/283 39/546/283 43/93/283
f 60/95/284 46/108/284 47/96/284
f 45/98/285 51/547/285 52/99/285
f 54/101/286 55/127/286 44/102/286
f 56/104/287 48/118/287 38/105/287
f 68/107/288 47/96/288 46/108/288
f 53/110/289 38/548/289 44/111/289
f 51/113/290 50/120/290 49/114/290
f 45/103/291 44/102/291 50/116/291
f 48/118/292 52/549/292 49/119/292
f 44/111/293 38/548/293 49/114/293
f 67/121/294 66/142/294 53/110/294
f 45/98/295 48/100/295 56/122/295
f 68/124/296 56/104/296 53/106/296
f 65/126/297 67/140/297 55/127/297
f 40/128/298 60/95/298 59/97/298
f 41/80/299 57/92/299 58/94/299
f 40/75/300 37/545/300 58/130/300
f 42/86/301 59/83/301 57/85/301
f 62/88/302 64/87/302 71/132/302
f 64/82/303 63/81/303 72/134/303
f 69/136/304 61/77/304 62/79/304
f 72/138/305 63/74/305 61/76/305
f 46/91/306 43/90/306 67/140/306
f 47/141/307 68/124/307 66/125/307
f 43/93/308 39/546/308 66/142/308
f 56/122/309 68/550/309 65/143/309
f 76/144/310 72/138/310 69/139/310
f 73/146/311 69/136/311 70/137/311
f 71/135/312 72/134/312 76/148/312
f 74/150/313 70/133/313 71/132/313
f 78/152/314 91/183/314 90/153/314
f 80/155/315 92/551/315 91/156/315
f 76/158/316 84/164/316 83/159/316
f 76/144/317 73/145/317 79/160/317
f 80/162/318 81/176/318 83/159/318
f 82/163/319 83/159/319 84/164/319
f 78/157/320 79/175/320 81/166/320
f 84/167/321 79/552/321 78/168/321
f 82/170/322 77/553/322 90/171/322
f 80/162/323 82/163/323 88/173/323
f 74/147/324 81/166/324 79/175/324
f 75/151/325 83/159/325 81/176/325
f 85/177/2 86/180/2 89/178/2
f 86/180/2 91/183/2 92/181/2
f 87/179/2 88/182/2 90/153/2
f 87/179/2 89/178/2 92/181/2
f 85/177/2 90/153/2 91/183/2
f 103/184/326 97/199/326 98/185/326
f 94/187/2 95/554/2 96/188/2
f 101/190/327 98/204/327 100/191/327
f 99/193/328 97/201/328 103/194/328
f 100/196/329 99/206/329 104/197/329
f 97/199/330 105/255/330 108/200/330
f 97/201/331 99/193/331 109/202/331
f 98/204/332 108/253/332 110/205/332
f 99/206/333 100/196/333 110/207/333
f 102/198/334 104/197/334 96/209/334
f 96/211/335 104/195/335 103/194/335
f 101/190/336 102/192/336 95/213/336
f 93/215/337 103/184/337 101/186/337
f 125/217/338 127/256/338 115/218/338
f 126/220/339 111/555/339 114/221/339
f 126/223/340 125/254/340 107/224/340
f 128/226/341 114/239/341 115/227/341
f 113/229/342 119/556/342 120/230/342
f 123/232/343 112/246/343 113/233/343
f 121/235/344 124/557/344 116/236/344
f 122/238/345 124/558/345 115/227/345
f 123/240/346 121/559/346 106/241/346
f 119/243/347 118/560/347 117/244/347
f 112/246/348 118/561/348 119/247/348
f 106/237/349 116/236/349 120/245/349
f 112/242/350 106/241/350 117/248/350
f 107/224/351 121/559/351 123/240/351
f 116/231/352 124/558/352 122/238/352
f 115/250/353 124/562/353 121/251/353
f 114/221/354 111/555/354 123/232/354
f 108/253/355 128/226/355 127/228/355
f 105/203/356 109/202/356 125/254/356
f 105/255/357 126/220/357 128/222/357
f 109/208/358 110/207/358 127/256/358
f 159/257/359 133/563/359 136/258/359
f 130/260/2 131/564/2 132/261/2
f 157/263/360 136/565/360 138/264/360
f 137/266/361 133/313/361 159/267/361
f 153/269/362 155/566/362 143/270/362
f 138/272/363 137/314/363 160/273/363
f 154/275/364 139/312/364 142/276/364
f 154/278/365 153/567/365 135/279/365
f 156/281/366 142/294/366 143/282/366
f 162/284/367 161/325/367 147/285/367
f 150/287/368 151/568/368 140/288/368
f 152/290/369 144/569/369 134/291/369
f 152/293/370 143/282/370 142/294/370
f 149/296/371 134/323/371 140/297/371
f 148/299/372 147/570/372 146/300/372
f 161/302/373 163/571/373 146/303/373
f 162/305/374 148/572/374 145/306/374
f 164/308/375 145/573/375 146/309/375
f 139/280/376 135/279/376 149/296/376
f 141/311/377 144/324/377 152/293/377
f 135/271/378 143/270/378 152/290/378
f 139/312/379 151/568/379 150/287/379
f 138/264/380 136/565/380 156/281/380
f 137/266/381 153/567/381 154/278/381
f 136/258/382 133/563/382 154/275/382
f 138/272/383 155/566/383 153/269/383
f 158/274/384 160/273/384 132/315/384
f 160/268/385 159/267/385 129/317/385
f 130/319/386 157/263/386 158/265/386
f 129/321/387 159/257/387 157/259/387
f 134/323/388 164/308/388 163/310/388
f 134/291/389 144/569/389 162/305/389
f 140/288/390 163/571/390 161/302/390
f 144/324/391 141/311/391 161/325/391
f 195/326/392 169/386/392 172/327/392
f 166/329/2 167/574/2 168/330/2
f 172/332/393 174/382/393 194/333/393
f 173/335/394 169/575/394 195/336/394
f 191/338/395 179/576/395 171/339/395
f 174/341/396 173/335/396 196/337/396
f 192/343/397 190/577/397 175/344/397
f 189/346/398 171/395/398 175/347/398
f 191/349/399 192/383/399 178/350/399
f 180/352/400 177/376/400 183/353/400
f 186/355/401 187/578/401 176/356/401
f 188/358/402 180/370/402 170/359/402
f 200/361/403 179/351/403 178/350/403
f 185/363/404 170/372/404 176/364/404
f 183/366/163 182/369/163 181/367/163
f 177/357/405 176/356/405 182/369/405
f 180/370/406 184/579/406 181/371/406
f 170/372/407 181/580/407 182/373/407
f 198/374/408 185/363/408 187/365/408
f 177/376/409 180/352/409 188/377/409
f 198/379/410 200/394/410 188/358/410
f 199/380/411 187/578/411 186/355/411
f 174/382/412 172/332/412 192/383/412
f 173/384/413 189/346/413 190/348/413
f 169/386/414 190/577/414 192/343/414
f 173/335/415 174/341/415 191/338/415
f 194/342/416 196/337/416 168/387/416
f 196/337/417 195/336/417 165/389/417
f 193/334/418 194/333/418 167/390/418
f 165/392/419 195/326/419 193/328/419
f 175/344/420 199/380/420 197/381/420
f 171/339/421 179/576/421 200/394/421
f 171/395/422 198/374/422 199/375/422
f 186/378/423 188/377/423 200/361/423
f 205/396/424 206/411/424 209/397/424
f 201/399/2 202/581/2 203/400/2
f 209/402/425 206/417/425 208/403/425
f 207/405/426 205/414/426 211/406/426
f 208/408/427 207/419/427 212/409/427
f 206/411/428 205/396/428 213/412/428
f 205/414/429 207/405/429 217/415/429
f 206/417/430 216/472/430 218/418/430
f 207/419/431 208/408/431 218/420/431
f 203/422/432 210/582/432 212/423/432
f 212/407/433 211/406/433 201/425/433
f 202/427/434 209/402/434 210/404/434
f 211/398/435 209/397/435 202/429/435
f 235/431/436 223/469/436 215/432/436
f 236/434/437 234/583/437 219/435/437
f 233/437/438 215/466/438 219/438/438
f 236/440/439 222/453/439 223/441/439
f 224/443/440 221/467/440 227/444/440
f 230/446/441 231/471/441 220/447/441
f 232/449/442 224/462/442 214/450/442
f 230/452/443 232/468/443 223/441/443
f 229/454/444 214/464/444 220/455/444
f 227/457/445 226/461/445 225/458/445
f 221/460/446 220/584/446 226/461/446
f 224/462/447 228/585/447 225/463/447
f 214/464/448 225/586/448 226/465/448
f 215/466/449 229/454/449 231/456/449
f 221/467/450 224/443/450 232/468/450
f 223/469/451 232/449/451 229/451/451
f 222/470/452 219/587/452 231/471/452
f 216/472/453 236/440/453 235/442/453
f 213/416/454 217/415/454 233/437/454
f 216/413/455 213/412/455 234/473/455
f 218/420/456 235/431/456 233/433/456
f 241/475/457 244/529/457 265/476/457
f 237/478/2 238/588/2 239/479/2
f 265/481/458 244/527/458 246/482/458
f 245/484/459 241/528/459 267/485/459
f 261/487/460 263/531/460 251/488/460
f 246/490/461 245/530/461 268/491/461
f 262/493/462 247/589/462 250/494/462
f 261/496/463 243/524/463 247/497/463
f 263/499/464 264/590/464 250/500/464
f 252/502/465 249/525/465 255/503/465
f 259/505/466 248/591/466 249/506/466
f 260/508/467 252/520/467 242/509/467
f 258/511/468 260/526/468 251/501/468
f 257/512/469 242/522/469 248/513/469
f 255/515/229 254/523/229 253/516/229
f 249/506/470 248/591/470 254/518/470
f 252/520/471 256/592/471 253/521/471
f 242/522/472 253/516/472 254/523/472
f 243/524/473 257/512/473 259/514/473
f 249/525/474 252/502/474 260/526/474
f 251/488/475 260/508/475 257/510/475
f 250/494/476 247/589/476 259/505/476
f 244/527/477 264/590/477 263/499/477
f 241/528/478 245/484/478 261/496/478
f 241/475/479 262/493/479 264/495/479
f 245/530/480 246/490/480 263/531/480
f 239/479/481 266/492/481 268/491/481
f 240/532/482 268/486/482 267/485/482
f 265/481/483 266/483/483 239/534/483
f 237/536/484 267/477/484 265/476/484
