# Blender 4.2.1 LTS
# www.blender.org
mtllib grass_brown_1.mtl
g grass_brwon_1_Mesh
v -0.055547 -0.031674 0.043790
v 0.022981 -0.035370 0.032042
v 0.016007 -0.012000 0.106341
v -0.033719 -0.016371 0.092443
v -0.074176 0.081424 0.045892
v -0.021705 0.086782 0.037177
v -0.061990 0.075063 0.081302
v -0.024240 0.075902 0.089879
v -0.007778 0.028695 0.039672
v -0.013417 0.047832 0.102723
v -0.071511 0.036603 0.048727
v -0.057640 0.047845 0.090343
v -0.087333 0.151619 0.057538
v -0.063623 0.427276 0.160666
v -0.090016 0.319687 0.114509
v -0.048563 0.166600 0.051080
v -0.076041 0.140422 0.082816
v -0.047241 0.145380 0.088789
v -0.090453 0.327799 0.097049
v -0.063813 0.432763 0.153944
v -0.055245 0.433485 0.153777
v -0.068257 0.329065 0.094279
v -0.069724 0.314676 0.113869
v -0.055390 0.427522 0.161052
v -0.066967 0.491804 0.171711
v -0.066712 0.494353 0.169030
v -0.063135 0.493895 0.169024
v -0.063557 0.491158 0.171922
v -0.072097 0.383852 0.143004
v -0.055910 0.396282 0.133418
v -0.071223 0.398130 0.134041
v -0.058021 0.380756 0.143297
v -0.085584 0.188252 0.101240
v -0.094886 0.265002 0.085114
v -0.052711 0.185201 0.093898
v -0.062488 0.268782 0.082806
v 0.056119 -0.033026 0.039492
v -0.019626 -0.045428 0.000064
v 0.042950 -0.057773 -0.039184
v 0.074929 -0.045745 -0.000944
v 0.066819 0.128433 -0.004744
v 0.036852 0.145199 -0.029499
v 0.068118 0.099744 -0.024300
v 0.049834 0.098884 -0.047586
v -0.004970 0.059039 -0.007768
v 0.034483 0.014952 -0.048924
v 0.050868 0.050194 0.025710
v 0.062900 0.021838 -0.012486
v 0.084313 0.233455 -0.021331
v 0.102254 0.527861 -0.037950
v 0.111653 0.362881 -0.055099
v 0.055504 0.216910 -0.047310
v 0.100904 0.214046 -0.039971
v 0.089411 0.195968 -0.063661
v 0.097721 0.362376 -0.046785
v 0.099275 0.526712 -0.036173
v 0.097056 0.529120 -0.038849
v 0.086359 0.371351 -0.061415
v 0.103256 0.367015 -0.070881
v 0.100368 0.530264 -0.040660
v 0.120633 0.568784 -0.024653
v 0.118071 0.567050 -0.023600
v 0.116267 0.568973 -0.026023
v 0.119112 0.570769 -0.027062
v 0.107192 0.456878 -0.044166
v 0.091214 0.460099 -0.047438
v 0.098067 0.453603 -0.038677
v 0.101740 0.463204 -0.052801
v 0.108203 0.326213 -0.055362
v 0.092357 0.325753 -0.046119
v 0.090382 0.327513 -0.080729
v 0.076558 0.334435 -0.065381
v 0.001091 0.094048 0.037266
v 0.076065 0.498038 0.043530
v 0.034544 0.191072 -0.003388
v -0.032848 0.111847 0.031385
v 0.008095 0.099035 0.003071
v -0.008802 0.104229 -0.011669
v 0.026227 0.195226 0.023837
v 0.075698 0.493134 0.050747
v 0.067207 0.496207 0.051700
v 0.007693 0.212195 0.020372
v 0.019169 0.206118 -0.008827
v 0.067951 0.501384 0.043857
v 0.084881 0.534371 0.071809
v 0.084015 0.531295 0.074160
v 0.080597 0.533188 0.074383
v 0.081674 0.536437 0.071832
v 0.084032 0.461191 0.027389
v 0.068776 0.455064 0.043400
v 0.080032 0.452944 0.042982
v 0.074567 0.463958 0.026575
v 0.021057 0.128839 0.001132
v 0.016579 0.130146 0.034361
v 0.005021 0.144375 -0.007782
v -0.010378 0.152285 0.032432
v -0.055601 0.073358 0.025719
v -0.024624 0.054553 -0.031789
v -0.005197 0.081016 0.030399
v -0.001559 0.065178 -0.013905
v 0.050647 0.294877 0.029283
v 0.072156 0.303064 0.009287
v 0.066414 0.296393 0.030735
v 0.058961 0.302027 0.006159
v -0.064841 0.046328 0.028183
v -0.031090 0.026347 -0.034205
v -0.008359 0.034718 -0.015537
v -0.011739 0.050724 0.032326
v -0.072798 0.018836 0.018861
v -0.028042 0.005915 -0.029993
v -0.008761 0.004048 -0.031932
v -0.012370 0.021904 0.023160
v 0.006702 0.002371 0.055886
v -0.070742 -0.007461 0.024629
v -0.071472 0.001300 0.018351
v -0.031624 -0.026748 -0.036690
v -0.032248 -0.003341 -0.033242
v 0.014963 -0.024611 -0.006250
v 0.000418 -0.011061 -0.029639
v -0.006752 0.008182 0.040232
v -0.025559 -0.042145 0.010502
v -0.055853 -0.048580 -0.009956
v -0.014263 -0.051368 -0.018819
v 0.009088 -0.055133 -0.030789
v -0.031360 -0.052242 -0.021600
v -0.003752 -0.035448 0.031795
v -0.063253 -0.047500 -0.006525
v -0.032503 -0.056030 -0.033643
v -0.037615 -0.067882 -0.071323
v 0.026881 -0.065374 -0.063350
v 0.016225 -0.045161 0.000913
v -0.027264 -0.052282 -0.021727
v -0.027253 0.015437 -0.082069
v -0.020482 0.406467 -0.097169
v -0.017727 0.143834 -0.050965
v 0.008813 0.027237 -0.081147
v -0.023320 0.013182 -0.056155
v 0.000865 0.019691 -0.045299
v -0.013737 0.145348 -0.068233
v -0.019277 0.405028 -0.104319
v -0.011482 0.407251 -0.103453
v 0.007567 0.147516 -0.065576
v 0.000727 0.143827 -0.045905
v -0.013104 0.408717 -0.095757
v -0.014148 0.495874 -0.130414
v -0.013823 0.495653 -0.131807
v -0.012281 0.495704 -0.131492
v -0.012695 0.495941 -0.129998
v -0.039421 0.301759 -0.072175
v -0.023498 0.302176 -0.082789
v -0.037316 0.299558 -0.084573
v -0.026846 0.304394 -0.069321
v -0.019814 0.092427 -0.037376
v -0.018017 0.092434 -0.058483
v -0.000640 0.086822 -0.028411
v 0.008230 0.084303 -0.054315
v 0.022580 -0.012707 -0.077606
v 0.014365 0.001954 -0.029066
v -0.025233 -0.010782 -0.085527
v -0.021165 -0.000445 -0.047532
v -0.015149 0.444587 -0.127101
v -0.016236 0.445771 -0.122258
v -0.020119 0.443214 -0.127690
v -0.020936 0.444361 -0.123189
v -0.097585 -0.031810 0.043361
v -0.042625 -0.046474 -0.003261
v -0.010121 -0.025394 0.063759
v -0.038769 -0.023617 0.069406
v -0.094006 0.053894 0.035718
v -0.139501 0.172171 0.074614
v -0.099934 0.118334 0.071043
v -0.071565 0.063766 0.009223
v -0.072271 0.074694 0.055470
v -0.052881 0.081793 0.049081
v -0.108373 0.110250 0.060007
v -0.140021 0.169803 0.070475
v -0.140729 0.175885 0.068532
v -0.107062 0.130885 0.048984
v -0.098029 0.137842 0.063047
v -0.140138 0.178196 0.073087
v -0.152052 0.172354 0.083697
v -0.153781 0.172322 0.082493
v -0.153659 0.175478 0.082264
v -0.151805 0.175261 0.083581
v -0.129323 0.164160 0.069714
v -0.132940 0.166916 0.062157
v -0.133239 0.158531 0.065493
v -0.128882 0.171984 0.067153
v -0.086787 0.087773 0.062962
v -0.104148 0.073262 0.044115
v -0.079354 0.108129 0.055058
v -0.097887 0.097387 0.025215
v -0.058927 0.018836 -0.007822
v -0.030551 0.036374 0.050180
v -0.096627 0.034720 0.027879
v -0.059340 0.043151 0.056052
v -0.120061 0.149789 0.058958
v -0.117305 0.144503 0.073281
v -0.124426 0.137668 0.066067
v -0.110848 0.157090 0.070684
v -0.021438 -0.057593 -0.038612
v -0.037557 -0.034923 0.033461
v -0.076116 -0.047578 -0.006772
v -0.056211 -0.058634 -0.041920
v -0.033878 0.053142 -0.070377
v -0.103803 0.276705 -0.077089
v -0.080776 0.178794 -0.084414
v -0.043315 0.084039 -0.042674
v -0.058347 0.041537 -0.066191
v -0.073972 0.056318 -0.047152
v -0.064115 0.182030 -0.078755
v -0.096681 0.275316 -0.075704
v -0.098203 0.273198 -0.067993
v -0.068073 0.176164 -0.058041
v -0.086712 0.171402 -0.067062
v -0.105843 0.274788 -0.069807
v -0.095170 0.341591 -0.062400
v -0.093851 0.340872 -0.062173
v -0.094213 0.340374 -0.060685
v -0.095624 0.341172 -0.060991
v -0.102870 0.222751 -0.071231
v -0.093334 0.224012 -0.054662
v -0.090533 0.224003 -0.068448
v -0.106658 0.222637 -0.058752
v -0.066967 0.112687 -0.081184
v -0.048479 0.126383 -0.083313
v -0.076837 0.121529 -0.063152
v -0.054621 0.142836 -0.059715
v -0.036507 0.020502 0.000332
v -0.084367 0.015080 -0.014976
v -0.021798 0.010570 -0.045283
v -0.060698 0.008433 -0.046948
v 0.009157 -0.014870 0.097216
v 0.008012 -0.043505 0.006178
v 0.078651 -0.035423 0.031874
v 0.073219 -0.020646 0.078854
v 0.012318 0.105846 0.090245
v 0.012086 0.095320 0.025116
v 0.057402 0.082141 0.083301
v 0.071945 0.066836 0.041908
v 0.003042 0.041033 0.010216
v 0.073225 0.045272 0.026146
v 0.005449 0.049566 0.085817
v 0.056531 0.044461 0.076113
v 0.047509 0.128284 0.095642
v 0.114191 0.372411 0.060207
v 0.120032 0.240713 0.077199
v 0.049363 0.145304 0.058012
v 0.079467 0.135687 0.104504
v 0.090124 0.128855 0.063535
v 0.105154 0.260013 0.086737
v 0.109618 0.376122 0.068257
v 0.101246 0.380529 0.062705
v 0.085974 0.257052 0.067108
v 0.103296 0.229908 0.059872
v 0.106534 0.376335 0.054227
v 0.137709 0.427433 0.076788
v 0.133976 0.426462 0.078157
v 0.132208 0.429824 0.074958
v 0.136317 0.430736 0.073609
v 0.113597 0.335039 0.064218
v 0.090200 0.348632 0.060412
v 0.099605 0.336050 0.073944
v 0.106257 0.346578 0.050759
v 0.095238 0.209706 0.095309
v 0.069013 0.227358 0.105974
v 0.089828 0.205294 0.061461
v 0.067917 0.227978 0.073108
vn -0.1498 -0.0782 -0.9856
vn -0.0000 -0.9539 0.3000
vn 0.9362 0.3506 -0.0227
vn -0.9443 -0.0426 0.3262
vn -0.2554 0.3192 0.9126
vn -0.1739 0.1119 -0.9784
vn -0.9229 -0.2249 0.3127
vn 0.9430 0.3139 0.1102
vn -0.1921 -0.0640 0.9793
vn -0.2627 -0.0710 0.9623
vn -0.8576 -0.2336 0.4582
vn 0.8977 0.4374 -0.0533
vn -0.1456 0.0478 -0.9882
vn 0.0066 -0.1002 0.9949
vn -0.1317 0.1732 -0.9761
vn -0.9968 0.0603 0.0530
vn 0.9912 0.1226 0.0498
vn 0.9882 0.1083 0.1085
vn -0.0576 0.4800 -0.8753
vn -0.0982 -0.3585 0.9284
vn 0.9866 -0.1587 -0.0387
vn -0.9819 0.1321 0.1356
vn 0.0931 0.7171 0.6907
vn -0.0392 0.2397 -0.9701
vn -0.0936 -0.1727 0.9805
vn -0.9935 -0.0192 -0.1125
vn -0.9690 0.1712 0.1782
vn 0.9998 -0.0199 0.0037
vn -0.1026 -0.3796 0.9194
vn 0.0251 0.4996 -0.8659
vn 0.9906 0.1311 0.0390
vn -0.9884 -0.0948 0.1190
vn -0.1009 0.2824 -0.9540
vn 0.1777 -0.3227 0.9297
vn -0.4231 0.4023 0.8119
vn -0.6428 0.1296 -0.7550
vn 0.9501 -0.0164 0.3115
vn 0.7935 -0.1357 -0.5932
vn -0.4860 0.3276 0.8102
vn 0.7383 -0.0165 0.6743
vn -0.6236 0.1265 -0.7715
vn 0.9283 -0.2970 -0.2238
vn 0.7629 0.0255 -0.6460
vn 0.9089 0.2221 0.3530
vn -0.5476 -0.1734 -0.8186
vn -0.4734 0.1148 0.8733
vn 0.8714 -0.0785 -0.4842
vn -0.7441 0.1271 0.6558
vn 0.5042 -0.0582 0.8616
vn -0.6000 0.3721 -0.7082
vn -0.5531 0.4837 -0.6783
vn -0.7753 -0.0129 0.6314
vn 0.8733 0.1025 -0.4763
vn -0.4855 0.1619 -0.8591
vn 0.5250 -0.0378 0.8502
vn -0.1870 0.6968 0.6924
vn -0.7365 0.1422 0.6613
vn 0.7556 -0.1308 -0.6418
vn 0.5788 -0.4760 0.6621
vn 0.5130 -0.0779 0.8549
vn -0.4833 0.1483 -0.8628
vn 0.8889 0.0943 -0.4483
vn -0.8041 -0.0493 0.5924
vn -0.4856 -0.1090 -0.8674
vn 0.4910 0.1858 0.8511
vn -0.6993 0.2294 0.6770
vn 0.8080 -0.1314 -0.5743
vn -0.0768 -0.1006 0.9920
vn -0.7195 0.4451 -0.5331
vn 0.9097 -0.3617 0.2040
vn 0.3684 -0.1465 -0.9180
vn 0.5615 0.1507 -0.8137
vn -0.0020 0.1979 0.9802
vn 0.9828 -0.1235 0.1373
vn -0.8973 0.1989 -0.3941
vn -0.9399 0.3396 0.0355
vn 0.0390 -0.1962 0.9798
vn 0.2012 0.4292 -0.8805
vn -0.7923 0.4554 -0.4062
vn 0.9606 0.0508 0.2733
vn 0.3347 0.5108 0.7919
vn -0.1980 -0.4594 0.8659
vn 0.2031 0.5702 -0.7960
vn 0.9827 -0.1727 -0.0675
vn 0.9684 -0.1020 0.2275
vn -0.9495 0.0269 -0.3126
vn 0.2226 0.0944 -0.9703
vn -0.0840 -0.0780 0.9934
vn -0.8003 0.3244 -0.5044
vn 0.9148 -0.3819 0.1317
vn -0.0636 0.0095 0.9979
vn 0.5734 -0.2990 -0.7627
vn 0.6508 -0.0846 -0.7545
vn 0.9643 -0.2229 0.1427
vn -0.8222 0.2330 -0.5194
vn -0.0871 0.1199 0.9890
vn -0.1900 -0.0071 0.9818
vn 0.2280 0.0335 -0.9731
vn 0.8719 -0.3684 0.3226
vn -0.9450 0.1333 -0.2986
vn -0.0520 -0.3072 0.9502
vn -0.7466 -0.2393 -0.6207
vn 0.9948 -0.0579 0.0839
vn -0.1185 -0.2174 -0.9689
vn -0.2818 -0.4589 0.8426
vn -0.7547 0.3091 -0.5787
vn 0.8568 0.5043 -0.1073
vn -0.2956 0.6948 0.6557
vn 0.4469 -0.6251 -0.6400
vn 0.6109 0.7526 -0.2456
vn -0.8322 -0.3671 -0.4155
vn -0.3231 0.7624 0.5607
vn 0.8590 -0.4109 0.3055
vn 0.0703 -0.1053 -0.9919
vn -0.7417 -0.0366 -0.6698
vn -0.0595 0.3545 -0.9331
vn -0.0000 -0.9539 0.3001
vn 0.1621 -0.0316 -0.9863
vn 0.8118 0.5826 -0.0386
vn -0.9890 -0.0763 0.1266
vn -0.2555 0.2568 0.9321
vn -0.4442 0.3970 0.8032
vn 0.1018 -0.1734 -0.9796
vn -0.9744 0.0379 -0.2218
vn 0.9456 0.0745 0.3166
vn 0.9621 -0.0260 0.2713
vn 0.1666 -0.2086 -0.9637
vn -0.2664 0.2691 0.9255
vn 0.9556 0.2144 0.2022
vn -0.9730 0.1308 -0.1902
vn -0.0006 0.9876 -0.1572
vn 0.2025 -0.0951 -0.9747
vn -0.2392 0.1657 0.9567
vn -0.9740 0.1010 -0.2026
vn -0.9770 -0.1639 -0.1368
vn 0.9735 -0.0684 0.2182
vn -0.2395 0.0968 0.9661
vn 0.1317 -0.0835 -0.9878
vn 0.9424 -0.0616 0.3287
vn -0.9853 0.0705 0.1557
vn 0.2661 0.4124 -0.8713
vn -0.3557 -0.2006 0.9128
vn -0.4680 0.4612 0.7538
vn -0.9719 0.1862 0.1443
vn 0.9849 0.1190 0.1259
vn 0.1284 -0.2655 -0.9555
vn -0.9823 -0.1131 -0.1495
vn -0.3133 0.5350 0.7846
vn 0.2375 -0.5030 -0.8310
vn 0.9657 0.2000 0.1655
vn -0.6630 0.0952 -0.7425
vn 0.7672 0.4046 -0.4977
vn -0.5465 -0.2518 0.7987
vn 0.6329 0.0684 0.7712
vn 0.2286 0.1357 0.9640
vn -0.9621 -0.0783 -0.2610
vn -0.5094 -0.3882 0.7680
vn 0.5714 0.5280 -0.6283
vn -0.0445 0.9738 0.2229
vn -0.7773 -0.2718 -0.5674
vn 0.5624 0.2284 0.7947
vn 0.4614 0.6409 -0.6135
vn -0.2007 -0.4945 0.8457
vn -0.5709 0.0811 0.8170
vn -0.6921 -0.2916 -0.6603
vn 0.5860 -0.0174 0.8101
vn 0.2438 -0.8548 0.4582
vn -0.5796 -0.2233 0.7837
vn 0.1244 0.6443 -0.7546
vn 0.0217 0.1913 0.9813
vn -0.5712 -0.2858 -0.7695
vn 0.5197 0.6486 -0.5562
vn -0.2709 -0.4988 0.8233
vn -0.7002 -0.2260 -0.6773
vn 0.5416 0.1250 0.8313
vn 0.2023 0.2736 0.9403
vn -0.4107 0.0555 0.9101
vn 0.8611 0.1818 -0.4748
vn -0.6645 -0.2158 -0.7154
vn -0.7215 -0.1381 -0.6785
vn 0.5237 0.2788 0.8050
vn -0.5104 -0.4595 0.7269
vn 0.4971 0.5055 -0.7053
vn 0.9018 0.3787 0.2083
vn -0.3000 0.6327 0.7139
vn 0.0646 -0.5049 -0.8607
vn -0.8974 -0.2065 -0.3899
vn -0.8049 -0.2255 -0.5490
vn 0.8974 0.3487 0.2702
vn 0.2898 0.1587 -0.9438
vn -0.1896 0.0394 0.9811
vn -0.2584 -0.0880 0.9620
vn 0.9690 0.1493 0.1968
vn -0.9586 -0.0471 -0.2808
vn -0.3670 -0.2569 0.8940
vn 0.2293 -0.1093 -0.9672
vn 0.3928 0.8392 0.3761
vn 0.9820 -0.0771 0.1727
vn -0.9503 0.1834 -0.2516
vn 0.2228 0.1878 -0.9566
vn 0.2341 0.3683 -0.8997
vn -0.3069 0.2205 0.9258
vn -0.8546 -0.3031 -0.4215
vn 0.8754 0.4496 0.1776
vn -0.3261 0.2117 0.9213
vn 0.0134 -0.1713 -0.9851
vn 0.9710 0.2163 0.1019
vn -0.8294 -0.2096 -0.5179
vn -0.8787 -0.0939 -0.4681
vn 0.0965 -0.0680 -0.9930
vn -0.7272 0.3623 0.5830
vn 0.9774 0.0944 0.1889
vn -0.9869 0.1608 0.0133
vn 0.1448 0.5895 -0.7947
vn 0.1651 -0.1885 0.9681
vn 0.9353 -0.1709 0.3097
vn -0.7649 0.6363 -0.1001
vn 0.0146 -0.2554 0.9667
vn 0.2316 0.2591 -0.9377
vn 0.8368 -0.4615 0.2946
vn 0.9931 0.0733 0.0918
vn 0.2832 0.1127 0.9524
vn 0.3346 0.0646 -0.9401
vn -0.9977 -0.0602 0.0315
vn 0.6873 -0.6871 -0.2354
vn -0.8453 0.5329 0.0382
vn 0.4170 0.0722 0.9060
vn -0.3536 0.1338 -0.9258
vn -0.3680 0.4843 -0.7937
vn -0.5067 0.1140 0.8546
vn 0.8495 -0.0696 -0.5230
vn -0.5185 -0.0385 -0.8542
vn 0.8344 -0.1325 0.5350
vn 0.0738 0.7075 0.7029
vn -0.6940 0.2700 0.6674
vn 0.6086 -0.0211 -0.7932
vn 0.6764 -0.4430 0.5884
vn 0.5704 0.1766 0.8022
vn -0.7364 0.2987 -0.6071
vn 0.7320 -0.0436 -0.6799
vn -0.7814 0.0813 0.6187
vn 0.1237 -0.0264 -0.9920
vn -0.2573 -0.0448 0.9653
vn -0.9765 0.2125 0.0366
vn 0.9670 -0.2216 -0.1256
vn -0.1563 -0.0716 -0.9851
vn 0.9671 0.2360 0.0952
vn -0.9469 -0.0361 0.3194
vn -0.2188 0.2759 0.9360
vn -0.2087 0.1219 -0.9703
vn -0.9358 -0.2078 0.2847
vn 0.9461 0.2952 0.1329
vn -0.2200 -0.0575 0.9738
vn -0.2690 -0.0688 0.9607
vn -0.8725 -0.3128 0.3753
vn 0.8974 0.4381 -0.0527
vn -0.1357 0.0399 -0.9899
vn 0.2055 -0.1228 0.9709
vn -0.0920 0.1922 -0.9770
vn -0.9609 -0.0597 0.2703
vn 0.9895 0.0707 0.1260
vn 0.9746 0.0739 0.2115
vn 0.0243 0.4942 -0.8690
vn -0.0333 -0.3531 0.9350
vn 0.9868 -0.1565 -0.0410
vn -0.9820 0.1399 0.1271
vn 0.0288 0.2391 -0.9706
vn -0.0410 -0.1733 0.9840
vn -0.9987 -0.0496 -0.0123
vn -0.9686 0.2153 0.1243
vn 0.9933 -0.0855 0.0779
vn -0.0688 -0.3957 0.9158
vn -0.1354 0.4900 -0.8612
vn 0.9916 0.1217 0.0432
vn -0.9150 -0.2904 0.2801
vn -0.2405 0.2142 -0.9467
vn -0.1761 -0.1490 0.9730
vn -0.4321 0.4121 0.8022
vn -0.6384 0.1181 -0.7606
vn 0.9681 -0.1097 0.2252
vn 0.7808 -0.1445 -0.6078
vn -0.7204 0.2237 0.6565
vn 0.9061 -0.2095 0.3675
vn -0.4783 -0.0925 -0.8733
vn 0.7310 -0.3906 -0.5595
vn 0.7877 0.0092 -0.6160
vn 0.9678 0.0993 0.2311
vn -0.6971 0.0442 -0.7156
vn -0.4939 0.1337 0.8592
vn 0.8094 -0.1205 -0.5748
vn -0.7402 0.1204 0.6615
vn 0.5131 -0.0544 0.8566
vn -0.4363 0.2098 -0.8750
vn -0.5428 0.4828 -0.6872
vn -0.7905 -0.0079 0.6125
vn 0.8585 0.1083 -0.5013
vn -0.4514 0.1580 -0.8782
vn 0.5228 -0.0382 0.8516
vn -0.7112 0.1152 0.6935
vn 0.7743 -0.1520 -0.6143
vn 0.5902 -0.4768 0.6514
vn 0.5331 -0.0727 0.8429
vn -0.5125 0.1428 -0.8467
vn 0.8734 0.1032 -0.4759
vn -0.8034 -0.0497 0.5934
vn -0.7364 0.0280 -0.6759
vn 0.7659 0.0382 0.6419
vn -0.7222 0.2374 0.6497
vn 0.9150 -0.0586 -0.3992
vn -0.3204 -0.3160 0.8930
vn -0.7177 0.4962 -0.4886
vn 0.8716 -0.4779 0.1088
vn 0.2647 -0.0769 -0.9613
vn 0.6768 0.1666 -0.7171
vn 0.0539 0.1516 0.9870
vn 0.9329 -0.1795 0.3124
vn -0.9025 0.1950 -0.3839
vn -0.9535 0.2852 0.0978
vn 0.0007 -0.1896 0.9819
vn 0.1439 0.4357 -0.8885
vn -0.8942 0.4018 -0.1973
vn 0.9780 0.1462 0.1490
vn 0.3346 0.5109 0.7918
vn -0.0873 -0.5071 0.8575
vn 0.3228 0.5099 -0.7973
vn 0.9670 -0.2538 0.0245
vn 0.9752 -0.0961 0.1993
vn -0.9822 -0.1001 -0.1593
vn 0.1179 0.1130 -0.9866
vn 0.0219 -0.0799 0.9966
vn -0.7986 0.4540 -0.3951
vn 0.9115 -0.3874 0.1381
vn -0.1056 0.1247 0.9866
vn 0.4371 -0.0636 -0.8972
vn 0.6384 -0.1016 -0.7630
vn 0.9682 -0.1995 0.1508
vn -0.8221 0.2337 -0.5192
vn -0.1050 0.0857 0.9908
vn -0.0885 -0.0327 0.9955
vn 0.3390 0.0064 -0.9408
vn 0.9325 -0.3298 0.1471
vn -0.9566 0.1253 -0.2630
vn -0.0493 -0.3017 0.9521
vn -0.7481 0.3969 -0.5318
vn 0.9950 -0.0494 0.0868
vn 0.4854 0.4072 -0.7737
vn -0.3340 -0.6169 0.7126
vn -0.6692 -0.0570 -0.7409
vn 0.9284 0.3714 -0.0070
vn -0.0692 -0.0342 0.9970
vn 0.1429 0.1480 -0.9786
vn 0.7591 0.6434 -0.0993
vn -0.7912 0.0684 -0.6077
vn -0.3212 0.5338 0.7822
vn 0.8539 -0.4263 0.2986
vn 0.4567 0.5024 -0.7342
vn -0.6683 0.4977 -0.5529
vn 0.0861 -0.0981 -0.9914
vn -0.0170 0.1294 -0.9914
vn 0.9025 0.3351 0.2706
vn -0.9854 -0.0945 0.1413
vn -0.3369 0.2836 0.8978
vn -0.4633 0.4204 0.7802
vn 0.1405 -0.1904 -0.9716
vn -0.9962 0.0180 -0.0848
vn 0.9380 0.0703 0.3394
vn 0.9732 -0.0351 0.2271
vn 0.1640 -0.2086 -0.9642
vn -0.2596 0.2692 0.9274
vn 0.9110 0.2083 0.3559
vn -0.9733 0.1311 -0.1885
vn 0.1429 -0.0945 -0.9852
vn -0.2785 0.1656 0.9461
vn -0.9662 0.0936 -0.2404
vn -0.9580 -0.1633 -0.2357
vn 0.9660 -0.0637 0.2506
vn -0.2632 0.0948 0.9601
vn 0.1430 -0.0826 -0.9863
vn 0.9765 -0.0836 0.1989
vn -0.9944 0.0640 -0.0846
vn -0.0739 0.3002 -0.9510
vn -0.4660 -0.2257 0.8555
vn -0.4371 0.4415 0.7836
vn -0.9740 0.2221 0.0438
vn 0.9845 0.1160 0.1316
vn 0.1487 -0.2470 -0.9575
vn -0.9835 -0.1103 -0.1435
vn -0.3156 0.5342 0.7842
vn 0.2360 -0.5035 -0.8312
vn 0.9652 0.2009 0.1676
vn -0.7778 0.3260 -0.5373
vn 0.7685 0.3651 -0.5254
vn -0.5419 -0.2071 0.8145
vn 0.6651 0.2267 0.7115
vn 0.2680 0.1275 0.9549
vn -0.9555 0.0173 -0.2944
vn -0.5417 -0.4248 0.7254
vn 0.5918 0.5680 -0.5720
vn -0.4166 0.8314 -0.3676
vn -0.7793 -0.2075 -0.5913
vn 0.5584 0.2587 0.7882
vn 0.4374 0.5679 -0.6972
vn -0.3776 -0.7826 0.4950
vn -0.5710 0.0812 0.8169
vn -0.6606 -0.0290 -0.7502
vn 0.6105 0.2545 0.7500
vn 0.0023 -0.9997 0.0234
vn -0.5682 -0.2027 0.7975
vn 0.2279 0.8561 -0.4638
vn 0.0676 0.3069 0.9493
vn -0.5614 -0.2588 -0.7860
vn 0.5170 0.6626 -0.5420
vn -0.2254 -0.6605 0.7162
vn -0.8236 -0.2015 -0.5301
vn 0.2880 0.0728 0.9549
vn 0.2520 0.2639 0.9311
vn -0.6188 0.1865 0.7631
vn 0.8610 0.1802 -0.4757
vn -0.7123 -0.1493 -0.6858
vn -0.7264 -0.2873 -0.6243
vn 0.4549 -0.0499 0.8892
vn -0.4586 -0.3734 0.8064
vn 0.4779 0.3922 -0.7860
vn 0.9745 0.1876 0.1228
vn -0.5094 0.4443 0.7370
vn 0.0831 -0.4884 -0.8686
vn -0.8949 -0.2081 -0.3948
vn -0.8326 -0.2329 -0.5025
vn 0.9620 0.2649 0.0657
vn -0.0681 -0.0629 -0.9957
vn -0.3848 -0.2006 0.9009
vn -0.2479 -0.0902 0.9646
vn 0.9618 0.1478 0.2304
vn -0.9557 -0.0466 -0.2905
vn -0.2601 -0.2524 0.9320
vn 0.1705 -0.1035 -0.9799
vn 0.3929 0.8391 0.3762
vn 0.9744 -0.0850 0.2082
vn -0.9589 0.1771 -0.2219
vn 0.2612 0.1800 -0.9484
vn 0.1703 0.3606 -0.9170
vn -0.1852 0.2065 0.9607
vn -0.9093 -0.3088 -0.2788
vn 0.8404 0.4577 0.2902
vn -0.3361 0.2020 0.9199
vn -0.0656 -0.2133 -0.9748
vn 0.9728 0.2109 0.0961
vn -0.8960 -0.1425 -0.4205
vn -0.8081 -0.1798 -0.5609
vn 0.0479 -0.0970 -0.9941
vn -0.3121 0.0828 0.9464
vn 0.9533 0.0344 0.2999
vn -0.9923 0.1224 -0.0162
vn 0.3493 0.1935 -0.9168
vn 0.1049 -0.0907 0.9903
vn 0.9287 -0.0901 0.3596
vn -0.5435 0.7746 0.3236
vn -0.1922 -0.2918 0.9370
vn 0.3841 0.2904 -0.8765
vn 0.8148 -0.3888 0.4300
vn 0.9176 0.2483 0.3106
vn 0.2010 0.1819 0.9626
vn 0.2241 -0.0540 -0.9731
vn -0.9980 -0.0508 0.0375
vn 0.8726 -0.4824 -0.0766
vn -0.5037 0.7783 0.3748
vn 0.5658 0.0289 0.8241
vn -0.3515 0.0252 -0.9359
vn -0.5840 0.5214 -0.6222
vn -0.6590 0.2646 0.7040
vn 0.6395 0.0831 -0.7643
vn -0.4602 -0.0575 -0.8859
vn 0.5729 0.0785 0.8159
vn -0.5196 0.0842 0.8503
vn 0.7853 -0.2244 -0.5770
vn 0.4066 -0.4185 0.8121
vn 0.6614 0.1464 0.7356
vn -0.5025 0.1047 -0.8582
vn 0.8529 -0.0621 -0.5184
vn -0.7186 0.0641 0.6925
vn -0.2606 0.2297 -0.9377
vn 0.3939 0.0302 0.9187
vn -0.9772 0.2073 0.0457
vn 0.9682 0.0105 0.2501
vt 0.279051 0.196429
vt 0.284424 0.195821
vt 0.284885 0.198778
vt 0.286916 0.199165
vt 0.281849 0.192896
vt 0.286916 0.191462
vt 0.290419 0.202464
vt 0.294449 0.197863
vt 0.296114 0.199728
vt 0.285577 0.209410
vt 0.288136 0.212864
vt 0.284188 0.211097
vt 0.290706 0.191515
vt 0.294393 0.192297
vt 0.290234 0.193940
vt 0.279453 0.194380
vt 0.283221 0.190409
vt 0.289215 0.209800
vt 0.286856 0.204816
vt 0.289624 0.204632
vt 0.289269 0.198256
vt 0.293250 0.192675
vt 0.294240 0.190199
vt 0.290945 0.186100
vt 0.293743 0.185393
vt 0.293915 0.197407
vt 0.289125 0.198961
vt 0.282375 0.215520
vt 0.287080 0.217740
vt 0.297406 0.204313
vt 0.290709 0.207600
vt 0.279481 0.200434
vt 0.286756 0.203074
vt 0.292978 0.182162
vt 0.289125 0.178828
vt 0.290779 0.177835
vt 0.283422 0.185548
vt 0.281749 0.181711
vt 0.283846 0.182307
vt 0.288204 0.199632
vt 0.286085 0.195949
vt 0.287839 0.195790
vt 0.291547 0.187614
vt 0.293967 0.184510
vt 0.293112 0.189721
vt 0.296584 0.178671
vt 0.297406 0.174162
vt 0.297369 0.178928
vt 0.285625 0.178670
vt 0.285622 0.175319
vt 0.286444 0.175476
vt 0.281037 0.190071
vt 0.281615 0.186914
vt 0.282389 0.190065
vt 0.296408 0.182478
vt 0.291881 0.183951
vt 0.295228 0.181651
vt 0.284501 0.192993
vt 0.282375 0.190330
vt 0.283091 0.190104
vt 0.282051 0.182204
vt 0.282321 0.182421
vt 0.281991 0.182415
vt 0.286756 0.171319
vt 0.282525 0.185566
vt 0.282809 0.185450
vt 0.283455 0.193782
vt 0.284810 0.206885
vt 0.282842 0.203074
vt 0.284185 0.203409
vt 0.284208 0.178214
vt 0.289333 0.191972
vt 0.286183 0.201050
vt 0.280316 0.184891
vt 0.290287 0.183337
vt 0.285752 0.181100
vt 0.291114 0.187721
vt 0.284745 0.187465
vt 0.291274 0.190436
vt 0.297258 0.185940
vt 0.295459 0.190355
vt 0.284890 0.204255
vt 0.287215 0.197447
vt 0.291004 0.202384
vt 0.292963 0.191002
vt 0.293844 0.197165
vt 0.289702 0.195720
vt 0.280864 0.214078
vt 0.283114 0.220287
vt 0.278608 0.219847
vt 0.287471 0.177593
vt 0.289632 0.180283
vt 0.295717 0.190890
vt 0.291871 0.188185
vt 0.294574 0.187900
vt 0.283312 0.196704
vt 0.288772 0.193917
vt 0.282628 0.191462
vt 0.280892 0.187538
vt 0.283746 0.187824
vt 0.278770 0.225205
vt 0.283700 0.225343
vt 0.290176 0.201916
vt 0.286561 0.199341
vt 0.289276 0.210486
vt 0.294590 0.205732
vt 0.290880 0.195290
vt 0.282787 0.193178
vt 0.283247 0.183002
vt 0.281018 0.180570
vt 0.282775 0.180415
vt 0.286325 0.173959
vt 0.283705 0.173134
vt 0.285507 0.172584
vt 0.291204 0.182975
vt 0.291569 0.180130
vt 0.292896 0.182399
vt 0.287156 0.187776
vt 0.290451 0.186479
vt 0.288651 0.189131
vt 0.292398 0.179539
vt 0.294269 0.176799
vt 0.294590 0.176786
vt 0.285588 0.170417
vt 0.284781 0.168427
vt 0.285118 0.168280
vt 0.280042 0.176770
vt 0.280114 0.173867
vt 0.281105 0.176932
vt 0.291675 0.182698
vt 0.288829 0.185470
vt 0.290527 0.182460
vt 0.288910 0.176731
vt 0.288618 0.173217
vt 0.289965 0.176600
vt 0.287130 0.213402
vt 0.286921 0.213727
vt 0.286921 0.213416
vt 0.282787 0.167087
vt 0.283082 0.166980
vt 0.279767 0.173794
vt 0.281265 0.170376
vt 0.288272 0.173254
vt 0.286852 0.171074
vt 0.290070 0.180630
vt 0.292028 0.179470
vt 0.284505 0.170804
vt 0.284979 0.192764
vt 0.283910 0.174580
vt 0.280351 0.183751
vt 0.283626 0.204122
vt 0.288135 0.202937
vt 0.289279 0.207417
vt 0.276568 0.189238
vt 0.283925 0.185637
vt 0.285082 0.190902
vt 0.280948 0.196654
vt 0.285010 0.198122
vt 0.279534 0.200537
vt 0.290584 0.199761
vt 0.292435 0.194446
vt 0.293318 0.200139
vt 0.290315 0.203914
vt 0.292484 0.207131
vt 0.289563 0.209664
vt 0.287129 0.198564
vt 0.284611 0.193831
vt 0.287505 0.193555
vt 0.279934 0.193477
vt 0.281847 0.186916
vt 0.284220 0.192658
vt 0.284393 0.181489
vt 0.281345 0.174731
vt 0.285343 0.175347
vt 0.286476 0.183733
vt 0.284070 0.179067
vt 0.284505 0.178877
vt 0.284213 0.181017
vt 0.282634 0.177514
vt 0.283664 0.177001
vt 0.293998 0.180500
vt 0.295468 0.176886
vt 0.295130 0.181065
vt 0.282154 0.168864
vt 0.279023 0.173970
vt 0.281343 0.170164
vt 0.281239 0.174197
vt 0.283261 0.165893
vt 0.282832 0.165952
vt 0.282846 0.165690
vt 0.280789 0.173168
vt 0.281193 0.172914
vt 0.294555 0.176274
vt 0.298294 0.172869
vt 0.280319 0.169926
vt 0.283214 0.166150
vt 0.278365 0.180543
vt 0.281307 0.180418
vt 0.285339 0.183813
vt 0.287299 0.187514
vt 0.284892 0.187653
vt 0.291133 0.187177
vt 0.292879 0.187456
vt 0.284521 0.187585
vt 0.286574 0.187425
vt 0.277509 0.185021
vt 0.285510 0.196478
vt 0.283040 0.198930
vt 0.292987 0.203112
vt 0.292751 0.210090
vt 0.289758 0.212449
vt 0.285812 0.200992
vt 0.279902 0.203537
vt 0.275713 0.191976
vt 0.284959 0.193738
vt 0.283153 0.206755
vt 0.289253 0.209890
vt 0.278214 0.187596
vt 0.287202 0.194675
vt 0.284070 0.194449
vt 0.282102 0.209585
vt 0.289121 0.212975
vt 0.276218 0.194852
vt 0.284799 0.195551
vt 0.285014 0.203733
vt 0.278214 0.206630
vt 0.293215 0.213470
vt 0.291006 0.213928
vt 0.284895 0.183691
vt 0.287850 0.192380
vt 0.283480 0.194444
vt 0.285362 0.198787
vt 0.279864 0.201158
vt 0.275838 0.197225
vt 0.294186 0.209681
vt 0.294903 0.214346
vt 0.288253 0.214341
vt 0.280789 0.209489
vt 0.291536 0.217179
vt 0.297929 0.213983
vt 0.295961 0.209930
vt 0.298294 0.209268
vt 0.276428 0.196482
vt 0.288836 0.187398
vt 0.287432 0.195097
vt 0.287432 0.185536
vt 0.286916 0.199999
vt 0.290015 0.195376
vt 0.289117 0.203815
vt 0.297459 0.217900
vt 0.292613 0.219618
vt 0.290741 0.215024
vt 0.289170 0.188979
vt 0.291470 0.187285
vt 0.291462 0.189536
vt 0.290330 0.184527
vt 0.292346 0.186781
vt 0.292613 0.192140
vt 0.289992 0.183691
vt 0.288901 0.193163
vt 0.292343 0.190652
vt 0.293613 0.193482
vt 0.282470 0.200848
vt 0.287013 0.195898
vt 0.288799 0.200633
vt 0.285919 0.189572
vt 0.289973 0.187936
vt 0.290800 0.189778
vt 0.294484 0.191033
vt 0.297591 0.192202
vt 0.293856 0.192151
vt 0.281753 0.188800
vt 0.279373 0.185235
vt 0.281200 0.184910
vt 0.281111 0.193322
vt 0.283475 0.194401
vt 0.279687 0.195231
vt 0.290264 0.186877
vt 0.292770 0.182865
vt 0.292829 0.187531
vt 0.293697 0.185384
vt 0.292302 0.181883
vt 0.293960 0.181465
vt 0.290053 0.183379
vt 0.292020 0.179436
vt 0.292685 0.183788
vt 0.288172 0.166547
vt 0.288072 0.162939
vt 0.288223 0.162958
vt 0.291011 0.179265
vt 0.289721 0.174212
vt 0.290490 0.174078
vt 0.280510 0.180852
vt 0.281254 0.175492
vt 0.281776 0.180827
vt 0.291104 0.175111
vt 0.290114 0.178744
vt 0.289753 0.174942
vt 0.294859 0.178000
vt 0.295160 0.172919
vt 0.295870 0.172892
vt 0.287224 0.214186
vt 0.287083 0.214033
vt 0.287223 0.214039
vt 0.289892 0.170823
vt 0.290088 0.167181
vt 0.290241 0.167185
vt 0.280988 0.171924
vt 0.280305 0.168345
vt 0.281463 0.171948
vt 0.297140 0.169772
vt 0.297337 0.165988
vt 0.297591 0.169772
vt 0.293631 0.178067
vt 0.289877 0.169844
vt 0.289109 0.169757
vt 0.290675 0.182956
vt 0.296900 0.190410
vt 0.283713 0.193144
vt 0.284070 0.198801
vt 0.279373 0.199547
vt 0.296900 0.196498
vt 0.292033 0.196281
vt 0.286215 0.193619
vt 0.292685 0.193839
vt 0.294094 0.197511
vt 0.287764 0.197511
vt 0.280508 0.175450
vt 0.289402 0.170904
vt 0.283307 0.183557
vt 0.286804 0.183118
vt 0.287427 0.186702
vt 0.283277 0.193485
vt 0.277687 0.191485
vt 0.283179 0.188543
vt 0.292061 0.183376
vt 0.296841 0.186919
vt 0.290462 0.186864
vt 0.277771 0.186795
vt 0.280856 0.184299
vt 0.282099 0.185267
vt 0.278132 0.189439
vt 0.279816 0.187490
vt 0.279819 0.190085
vt 0.277214 0.192551
vt 0.279534 0.194307
vt 0.277681 0.196437
vt 0.285212 0.179608
vt 0.282511 0.177942
vt 0.283962 0.176830
vt 0.277643 0.182565
vt 0.278463 0.180030
vt 0.280347 0.182500
vt 0.296206 0.179952
vt 0.294797 0.177130
vt 0.296499 0.177103
vt 0.296019 0.172314
vt 0.296053 0.171651
vt 0.296245 0.171756
vt 0.282666 0.173220
vt 0.281773 0.172619
vt 0.282048 0.172226
vt 0.279302 0.182776
vt 0.280339 0.182069
vt 0.279773 0.183171
vt 0.295324 0.175215
vt 0.277480 0.175678
vt 0.277910 0.174684
vt 0.278159 0.175789
vt 0.277620 0.173457
vt 0.277899 0.173504
vt 0.277715 0.173595
vt 0.280361 0.171497
vt 0.281439 0.181081
vt 0.281578 0.181232
vt 0.277541 0.174532
vt 0.277117 0.177444
vt 0.278219 0.177457
vt 0.295580 0.172455
vt 0.295970 0.173351
vt 0.295276 0.173467
vt 0.278926 0.184644
vt 0.279976 0.184959
vt 0.283092 0.174931
vt 0.282171 0.173695
vt 0.296517 0.183017
vt 0.292701 0.179808
vt 0.277638 0.184294
vt 0.283424 0.182399
vt 0.279054 0.191757
vt 0.281578 0.199183
vt 0.279543 0.201017
vt 0.297775 0.191577
vt 0.290403 0.191577
vt 0.280249 0.187508
vt 0.286105 0.191504
vt 0.282003 0.175408
vt 0.278513 0.186570
vt 0.276998 0.179980
vt 0.296852 0.175196
vt 0.288981 0.178162
vt 0.292730 0.184372
vt 0.288591 0.182233
vt 0.293115 0.192049
vt 0.289332 0.189290
vt 0.291712 0.189066
vt 0.283862 0.190909
vt 0.285915 0.185001
vt 0.288107 0.188853
vt 0.284119 0.216813
vt 0.285696 0.220902
vt 0.282424 0.219265
vt 0.293040 0.182708
vt 0.295429 0.178783
vt 0.295112 0.182373
vt 0.292480 0.186687
vt 0.295070 0.189215
vt 0.291610 0.190670
vt 0.291487 0.173982
vt 0.288059 0.170303
vt 0.290031 0.169598
vt 0.286868 0.212834
vt 0.284248 0.208963
vt 0.285949 0.208715
vt 0.282915 0.180690
vt 0.286560 0.176674
vt 0.285561 0.181014
vt 0.289788 0.169802
vt 0.289361 0.164907
vt 0.289510 0.164875
vt 0.284750 0.217391
vt 0.285093 0.214128
vt 0.286106 0.217521
vt 0.294771 0.175734
vt 0.296018 0.172460
vt 0.296740 0.172649
vt 0.287547 0.172815
vt 0.284671 0.175911
vt 0.282471 0.205366
vt 0.283127 0.202014
vt 0.283704 0.205305
vt 0.286921 0.213880
vt 0.287062 0.214033
vt 0.286922 0.214027
vt 0.284345 0.213908
vt 0.286106 0.209378
vt 0.297567 0.167763
vt 0.297710 0.167796
vt 0.282424 0.201900
vt 0.283802 0.197174
vt 0.289016 0.169780
vt 0.288862 0.173163
vt 0.293586 0.178523
vt 0.292072 0.165941
vt 0.293442 0.169302
vt 0.292114 0.169417
vt 0.282301 0.185095
vt 0.286631 0.217109
vt 0.284806 0.212886
vt 0.292594 0.178185
vt 0.288834 0.173927
vt 0.295058 0.186357
vt 0.294051 0.194346
vt 0.297710 0.192790
vt 0.279051 0.206868
vt 0.282798 0.203327
vt 0.282842 0.206716
vt 0.289788 0.191700
vt 0.285829 0.195473
vt 0.286088 0.186142
vt 0.292730 0.189326
vt 0.292594 0.176292
vt 0.298220 0.172515
vt 0.299987 0.176340
vt 0.289922 0.191580
vt 0.296185 0.198926
vt 0.289922 0.200685
vt 0.287424 0.190601
vt 0.291272 0.184299
vt 0.292538 0.185945
vt 0.284988 0.187729
vt 0.288212 0.192278
vt 0.283600 0.190160
vt 0.281431 0.196741
vt 0.285264 0.197377
vt 0.280249 0.198441
vt 0.290515 0.206808
vt 0.286561 0.202910
vt 0.290515 0.201916
vt 0.287677 0.185246
vt 0.289672 0.188478
vt 0.286203 0.180791
vt 0.289953 0.179226
vt 0.285371 0.194754
vt 0.282162 0.192796
vt 0.286102 0.191504
vt 0.286102 0.202260
vt 0.281829 0.204012
vt 0.285996 0.195739
vt 0.280080 0.193159
vt 0.295790 0.189720
vt 0.291012 0.194960
vt 0.291837 0.180974
vt 0.300838 0.182337
vt 0.286226 0.196178
vt 0.283321 0.194401
vt 0.284905 0.192860
vt 0.284855 0.184293
vt 0.286920 0.179151
vt 0.287342 0.182792
vt 0.284072 0.179579
vt 0.283214 0.175284
vt 0.286979 0.178706
vt 0.287162 0.174211
vt 0.290702 0.172727
vt 0.289799 0.175454
vt 0.292911 0.168119
vt 0.295376 0.165690
vt 0.295790 0.165772
vt 0.287110 0.176058
vt 0.286377 0.173313
vt 0.287342 0.173533
vt 0.282254 0.191425
vt 0.282184 0.189472
vt 0.283394 0.190713
vt 0.292493 0.169860
vt 0.288875 0.170778
vt 0.290926 0.168954
vt 0.294464 0.198074
vt 0.292806 0.195681
vt 0.293642 0.195771
vt 0.287039 0.216448
vt 0.286674 0.216822
vt 0.286644 0.216426
vt 0.285753 0.170515
vt 0.286175 0.170434
vt 0.281864 0.190134
vt 0.281706 0.186334
vt 0.286106 0.215945
vt 0.286416 0.212932
vt 0.286921 0.215769
vt 0.280080 0.174126
vt 0.281447 0.173329
vt 0.292408 0.167278
vt 0.285273 0.176204
vt 0.285521 0.183014
vt 0.291814 0.197020
vt 0.288016 0.190741
vt 0.290993 0.191820
vt 0.285527 0.199427
vt 0.283109 0.196760
vt 0.279767 0.197484
vt 0.279380 0.189881
vt 0.297088 0.174041
vt 0.280840 0.186772
vt 0.282389 0.182226
vt 0.286424 0.171221
vt 0.282842 0.206508
vt 0.291274 0.182155
vt 0.283700 0.214608
vt 0.283688 0.178708
vt 0.279767 0.191262
vt 0.287114 0.213727
vt 0.280965 0.170316
vt 0.286561 0.171052
vt 0.283379 0.202406
vt 0.289923 0.193937
vt 0.278919 0.180674
vt 0.282811 0.181484
vt 0.285362 0.168945
vt 0.297944 0.172568
vt 0.285067 0.201538
vt 0.284868 0.196556
vt 0.288379 0.195075
vt 0.286916 0.191462
vt 0.288827 0.191469
vt 0.282470 0.194338
vt 0.286630 0.186555
vt 0.279834 0.189655
vt 0.291669 0.185763
vt 0.287682 0.166511
vt 0.289648 0.179405
vt 0.287073 0.214186
vt 0.280160 0.168367
vt 0.297198 0.165997
vt 0.276363 0.193485
vt 0.282831 0.180622
vt 0.280060 0.181703
vt 0.277810 0.173346
vt 0.280249 0.171686
vt 0.289332 0.194503
vt 0.293612 0.175216
vt 0.287073 0.213880
vt 0.285962 0.209328
vt 0.283674 0.197121
vt 0.294166 0.165941
vt 0.279051 0.203074
vt 0.291837 0.172257
vt 0.296771 0.194234
vt 0.285812 0.186684
vt 0.286938 0.206626
vt 0.284239 0.179194
vt 0.281566 0.176688
vt 0.292806 0.198000
vt 0.287039 0.216858
vt 0.281411 0.186457
vt 0.286106 0.212704
vt 0.288016 0.196306
vt 0.281411 0.199079
s 0
usemtl Material
f 11/1/1 6/2/1 9/3/1
f 2/4/2 4/5/2 1/6/2
f 9/7/3 8/8/3 10/9/3
f 7/10/4 11/11/4 12/12/4
f 8/13/5 12/14/5 10/15/5
f 5/16/6 16/17/6 6/2/6
f 5/18/7 17/19/7 13/20/7
f 6/21/8 18/22/8 8/8/8
f 7/23/9 18/24/9 17/25/9
f 10/15/10 4/26/10 3/27/10
f 4/28/11 11/11/11 1/29/11
f 9/7/12 3/30/12 2/31/12
f 1/32/13 9/3/13 2/33/13
f 33/34/14 23/35/14 15/36/14
f 36/37/15 19/38/15 22/39/15
f 34/40/16 15/41/16 19/42/16
f 36/43/17 23/44/17 35/45/17
f 21/46/18 28/47/18 24/48/18
f 30/49/19 20/50/19 21/51/19
f 32/52/20 14/53/20 29/54/20
f 32/55/21 22/56/21 30/57/21
f 31/58/22 14/59/22 20/60/22
f 27/61/23 25/62/23 28/63/23
f 20/50/24 27/64/24 21/51/24
f 14/53/25 28/63/25 25/62/25
f 20/60/26 25/65/26 26/66/26
f 19/42/27 29/67/27 31/58/27
f 24/48/28 30/57/28 21/46/28
f 15/68/29 32/69/29 29/70/29
f 22/39/30 31/71/30 30/49/30
f 16/72/31 35/45/31 18/22/31
f 13/20/32 33/73/32 34/40/32
f 16/17/33 34/74/33 36/37/33
f 17/25/34 35/75/34 33/34/34
f 41/76/35 45/77/35 47/78/35
f 37/79/2 39/80/2 40/81/2
f 45/82/36 44/83/36 46/84/36
f 43/85/37 47/86/37 48/87/37
f 44/88/38 48/89/38 46/90/38
f 41/76/39 52/91/39 42/92/39
f 41/93/40 53/94/40 49/95/40
f 42/96/41 54/97/41 44/83/41
f 43/98/42 54/99/42 53/100/42
f 39/101/43 48/89/43 40/102/43
f 48/87/44 37/103/44 40/104/44
f 38/105/45 46/84/45 39/106/45
f 47/78/46 38/107/46 37/108/46
f 69/109/47 59/110/47 51/111/47
f 72/112/48 55/113/48 58/114/48
f 69/115/49 55/116/49 70/117/49
f 72/118/50 59/119/50 71/120/50
f 60/121/51 63/122/51 64/123/51
f 66/124/52 56/125/52 57/126/52
f 68/127/53 50/128/53 65/129/53
f 68/130/54 58/131/54 66/132/54
f 65/133/55 56/134/55 67/135/55
f 63/136/56 61/137/56 64/138/56
f 57/126/57 62/139/57 63/140/57
f 60/141/58 61/142/58 50/128/58
f 50/143/59 62/144/59 56/134/59
f 51/145/60 67/135/60 55/116/60
f 57/146/61 68/130/61 66/132/61
f 59/110/62 65/129/62 51/111/62
f 58/114/63 67/147/63 66/124/63
f 52/148/64 71/120/64 54/97/64
f 49/95/65 69/115/65 70/117/65
f 52/91/66 70/149/66 72/112/66
f 53/100/67 71/150/67 69/109/67
f 99/151/68 76/152/68 97/153/68
f 97/154/69 78/155/69 98/156/69
f 77/157/70 99/158/70 100/159/70
f 95/160/71 75/161/71 93/162/71
f 78/163/72 100/164/72 98/165/72
f 96/166/73 79/167/73 82/168/73
f 93/169/74 79/170/74 94/171/74
f 95/172/75 82/173/75 83/174/75
f 84/175/76 87/176/76 88/177/76
f 90/178/77 80/179/77 81/180/77
f 92/181/78 74/182/78 89/183/78
f 101/184/79 83/174/79 82/173/79
f 89/185/80 80/186/80 91/187/80
f 87/188/81 85/189/81 88/190/81
f 81/180/82 86/191/82 87/192/82
f 84/193/83 85/194/83 74/182/83
f 74/195/84 86/196/84 80/186/84
f 102/197/85 91/187/85 103/198/85
f 81/199/86 92/200/86 90/201/86
f 104/202/87 89/183/87 102/203/87
f 103/204/88 90/178/88 101/205/88
f 76/206/89 95/172/89 78/155/89
f 77/157/90 94/171/90 73/207/90
f 76/152/91 94/208/91 96/166/91
f 78/163/92 93/162/92 77/209/92
f 98/165/93 107/210/93 106/211/93
f 100/159/94 108/212/94 107/213/94
f 105/214/95 98/156/95 106/215/95
f 108/216/96 97/153/96 105/217/96
f 79/167/97 101/205/97 82/168/97
f 75/161/98 104/202/98 102/203/98
f 75/218/99 103/198/99 79/170/99
f 90/201/100 104/219/100 101/220/100
f 112/221/101 105/217/101 109/222/101
f 109/223/102 106/215/102 110/224/102
f 107/213/103 112/225/103 111/226/103
f 106/211/104 111/227/104 110/228/104
f 114/229/105 126/230/105 113/231/105
f 116/232/106 127/233/106 114/234/106
f 112/235/107 119/236/107 111/227/107
f 112/221/108 115/237/108 120/238/108
f 116/239/109 119/236/109 118/240/109
f 118/240/110 120/241/110 113/242/110
f 115/243/111 116/232/111 114/234/111
f 120/244/112 114/245/112 113/246/112
f 118/247/113 126/248/113 124/249/113
f 116/239/114 124/250/114 128/251/114
f 110/224/115 115/243/115 109/223/115
f 111/227/116 117/252/116 110/228/116
f 121/253/2 125/254/2 123/255/2
f 122/256/2 128/257/2 125/254/2
f 123/255/2 126/230/2 121/253/2
f 123/255/2 128/257/2 124/258/2
f 121/253/117 127/259/117 122/256/117
f 159/260/118 136/261/118 157/262/118
f 130/263/2 132/264/2 129/265/2
f 157/266/119 138/267/119 158/268/119
f 137/269/120 159/270/120 160/271/120
f 153/272/121 143/273/121 135/274/121
f 138/275/122 160/276/122 158/277/122
f 154/278/123 142/279/123 156/280/123
f 154/281/124 135/282/124 139/283/124
f 156/284/125 143/285/125 155/286/125
f 162/287/126 147/288/126 148/289/126
f 150/290/127 140/291/127 141/292/127
f 152/293/128 134/294/128 149/295/128
f 152/296/129 142/297/129 150/298/129
f 151/299/130 134/300/130 140/301/130
f 148/302/131 146/303/131 145/304/131
f 161/305/132 146/306/132 147/307/132
f 162/308/133 145/309/133 164/310/133
f 164/311/134 146/312/134 163/313/134
f 139/283/135 149/314/135 151/299/135
f 144/315/136 150/298/136 141/316/136
f 135/274/137 152/293/137 149/295/137
f 139/317/138 150/290/138 142/279/138
f 138/267/139 156/284/139 155/286/139
f 137/269/140 154/281/140 133/318/140
f 136/261/141 154/278/141 156/280/141
f 138/275/142 153/272/142 137/319/142
f 158/277/143 132/320/143 131/321/143
f 160/271/144 129/322/144 132/323/144
f 130/324/145 158/268/145 131/325/145
f 159/260/146 130/326/146 129/327/146
f 140/301/147 164/311/147 163/313/147
f 144/328/148 164/310/148 134/294/148
f 141/292/149 163/329/149 161/305/149
f 141/316/150 162/287/150 144/315/150
f 195/330/151 172/331/151 193/332/151
f 166/333/2 168/334/2 165/335/2
f 172/336/152 194/337/152 193/338/152
f 196/339/153 169/340/153 195/341/153
f 191/342/154 171/343/154 189/344/154
f 174/345/155 196/346/155 194/347/155
f 192/348/156 175/349/156 178/350/156
f 189/351/157 175/352/157 190/353/157
f 191/354/158 178/355/158 179/356/158
f 180/357/159 183/358/159 184/359/159
f 186/360/160 176/361/160 177/362/160
f 188/363/161 170/364/161 185/365/161
f 197/366/162 179/356/162 178/355/162
f 185/367/163 176/368/163 187/369/163
f 184/370/164 182/371/164 181/372/164
f 176/361/165 183/373/165 177/362/165
f 170/364/166 184/374/166 181/375/166
f 170/376/167 182/371/167 176/368/167
f 198/377/168 187/369/168 199/378/168
f 177/379/169 188/380/169 186/381/169
f 200/382/170 185/365/170 198/383/170
f 197/384/171 187/385/171 186/360/171
f 174/386/172 192/387/172 191/354/172
f 173/388/173 190/353/173 169/340/173
f 169/389/174 192/348/174 172/331/174
f 173/390/175 191/342/175 189/344/175
f 194/347/176 168/391/176 167/392/176
f 196/339/177 165/335/177 168/334/177
f 193/338/178 167/393/178 166/394/178
f 165/395/179 193/332/179 166/396/179
f 178/350/180 199/397/180 197/384/180
f 179/398/181 198/383/181 171/343/181
f 171/399/182 199/378/182 175/352/182
f 186/381/183 200/400/183 197/366/183
f 205/401/184 229/402/184 231/403/184
f 201/404/2 203/405/2 204/406/2
f 229/407/185 210/408/185 230/409/185
f 209/410/186 231/411/186 232/412/186
f 227/413/187 207/414/187 225/415/187
f 210/416/188 232/417/188 230/418/188
f 228/419/189 211/420/189 214/421/189
f 226/422/190 207/423/190 211/424/190
f 228/425/191 215/426/191 227/427/191
f 216/428/192 219/429/192 220/430/192
f 223/431/193 213/432/193 222/433/193
f 221/434/194 216/435/194 206/436/194
f 222/437/195 215/426/195 214/438/195
f 221/439/196 212/440/196 223/441/196
f 220/442/197 218/443/197 217/444/197
f 212/445/198 219/446/198 213/432/198
f 206/436/199 220/447/199 217/448/199
f 206/449/200 218/450/200 212/440/200
f 207/423/201 223/441/201 211/424/201
f 213/451/202 224/452/202 222/437/202
f 215/453/203 221/434/203 207/414/203
f 214/454/204 223/455/204 222/456/204
f 208/457/205 227/427/205 210/408/205
f 205/458/206 225/459/206 226/422/206
f 208/460/207 226/461/207 228/419/207
f 210/416/208 225/415/208 209/462/208
f 203/463/209 232/417/209 204/464/209
f 232/465/210 201/466/210 204/467/210
f 229/407/211 203/468/211 202/469/211
f 201/470/212 229/402/212 202/471/212
f 243/472/213 238/473/213 241/474/213
f 234/475/2 236/476/2 233/477/2
f 241/478/214 240/479/214 242/480/214
f 239/481/215 243/482/215 244/483/215
f 240/484/216 244/485/216 242/486/216
f 237/487/217 248/488/217 238/489/217
f 239/481/218 245/490/218 237/491/218
f 240/479/219 248/492/219 250/493/219
f 239/494/220 250/495/220 249/496/220
f 242/486/221 236/497/221 235/498/221
f 244/483/222 233/499/222 236/500/222
f 241/478/223 235/501/223 234/502/223
f 233/503/224 241/474/224 234/504/224
f 265/505/225 255/506/225 247/507/225
f 266/508/226 254/509/226 268/510/226
f 265/511/227 251/512/227 266/513/227
f 268/514/228 255/515/228 267/516/228
f 256/517/229 259/518/229 260/519/229
f 262/520/230 252/521/230 253/522/230
f 264/523/231 246/524/231 261/525/231
f 264/526/232 254/527/232 262/528/232
f 263/529/233 246/530/233 252/531/233
f 259/532/234 257/533/234 260/534/234
f 253/522/235 258/535/235 259/536/235
f 256/537/236 257/538/236 246/524/236
f 246/539/237 258/540/237 252/541/237
f 251/512/238 261/542/238 263/543/238
f 256/517/239 262/528/239 253/544/239
f 255/506/240 261/525/240 247/507/240
f 254/509/241 263/545/241 262/520/241
f 248/492/242 267/516/242 250/493/242
f 249/546/243 266/513/243 245/490/243
f 248/547/244 266/548/244 268/549/244
f 249/550/245 267/551/245 265/505/245
f 11/1/246 5/16/246 6/2/246
f 2/4/2 3/552/2 4/5/2
f 9/7/247 6/21/247 8/8/247
f 7/10/248 5/18/248 11/11/248
f 8/13/249 7/23/249 12/14/249
f 5/16/250 13/553/250 16/17/250
f 5/18/251 7/10/251 17/19/251
f 6/21/252 16/72/252 18/22/252
f 7/23/253 8/13/253 18/24/253
f 10/15/254 12/14/254 4/26/254
f 4/28/255 12/12/255 11/11/255
f 9/7/256 10/9/256 3/30/256
f 1/32/257 11/1/257 9/3/257
f 33/34/258 35/75/258 23/35/258
f 36/37/259 34/74/259 19/38/259
f 34/40/260 33/73/260 15/41/260
f 36/43/261 22/56/261 23/44/261
f 21/46/262 27/554/262 28/47/262
f 30/49/263 31/71/263 20/50/263
f 32/52/264 24/555/264 14/53/264
f 32/55/265 23/44/265 22/56/265
f 31/58/266 29/67/266 14/59/266
f 27/61/23 26/556/23 25/62/23
f 20/50/267 26/557/267 27/64/267
f 14/53/268 24/555/268 28/63/268
f 20/60/269 14/59/269 25/65/269
f 19/42/270 15/41/270 29/67/270
f 24/48/271 32/55/271 30/57/271
f 15/68/272 23/558/272 32/69/272
f 22/39/273 19/38/273 31/71/273
f 16/72/274 36/43/274 35/45/274
f 13/20/275 17/19/275 33/73/275
f 16/17/276 13/553/276 34/74/276
f 17/25/277 18/24/277 35/75/277
f 41/76/278 42/92/278 45/77/278
f 37/79/2 38/559/2 39/80/2
f 45/82/279 42/96/279 44/83/279
f 43/85/280 41/93/280 47/86/280
f 44/88/281 43/560/281 48/89/281
f 41/76/282 49/561/282 52/91/282
f 41/93/283 43/85/283 53/94/283
f 42/96/284 52/148/284 54/97/284
f 43/98/285 44/562/285 54/99/285
f 39/101/286 46/90/286 48/89/286
f 48/87/287 47/86/287 37/103/287
f 38/105/288 45/82/288 46/84/288
f 47/78/289 45/77/289 38/107/289
f 69/109/290 71/150/290 59/110/290
f 72/112/291 70/149/291 55/113/291
f 69/115/292 51/145/292 55/116/292
f 72/118/293 58/131/293 59/119/293
f 60/121/294 57/146/294 63/122/294
f 66/124/295 67/147/295 56/125/295
f 68/127/296 60/141/296 50/128/296
f 68/130/297 59/119/297 58/131/297
f 65/133/298 50/143/298 56/134/298
f 63/136/56 62/563/56 61/137/56
f 57/126/299 56/125/299 62/139/299
f 60/141/300 64/564/300 61/142/300
f 50/143/301 61/565/301 62/144/301
f 51/145/302 65/133/302 67/135/302
f 57/146/303 60/121/303 68/130/303
f 59/110/304 68/127/304 65/129/304
f 58/114/305 55/113/305 67/147/305
f 52/148/306 72/118/306 71/120/306
f 49/95/307 53/94/307 69/115/307
f 52/91/308 49/561/308 70/149/308
f 53/100/309 54/99/309 71/150/309
f 99/151/310 73/566/310 76/152/310
f 97/154/311 76/206/311 78/155/311
f 77/157/312 73/207/312 99/158/312
f 95/160/313 83/567/313 75/161/313
f 78/163/314 77/209/314 100/164/314
f 96/166/315 94/208/315 79/167/315
f 93/169/316 75/218/316 79/170/316
f 95/172/317 96/568/317 82/173/317
f 84/175/318 81/199/318 87/176/318
f 90/178/319 91/569/319 80/179/319
f 92/181/320 84/193/320 74/182/320
f 101/184/321 104/570/321 83/174/321
f 89/185/322 74/195/322 80/186/322
f 87/188/323 86/196/323 85/189/323
f 81/180/324 80/179/324 86/191/324
f 84/193/325 88/571/325 85/194/325
f 74/195/326 85/189/326 86/196/326
f 102/197/327 89/185/327 91/187/327
f 81/199/328 84/175/328 92/200/328
f 104/202/329 92/181/329 89/183/329
f 103/204/330 91/569/330 90/178/330
f 76/206/331 96/568/331 95/172/331
f 77/157/332 93/169/332 94/171/332
f 76/152/333 73/566/333 94/208/333
f 78/163/334 95/160/334 93/162/334
f 98/165/335 100/164/335 107/210/335
f 100/159/336 99/158/336 108/212/336
f 105/214/337 97/154/337 98/156/337
f 108/216/338 99/151/338 97/153/338
f 79/167/339 103/204/339 101/205/339
f 75/161/340 83/567/340 104/202/340
f 75/218/341 102/197/341 103/198/341
f 90/201/342 92/200/342 104/219/342
f 112/221/343 108/216/343 105/217/343
f 109/223/344 105/214/344 106/215/344
f 107/213/345 108/212/345 112/225/345
f 106/211/346 107/210/346 111/227/346
f 114/229/347 127/259/347 126/230/347
f 116/232/348 128/572/348 127/233/348
f 112/235/349 120/241/349 119/236/349
f 112/221/350 109/222/350 115/237/350
f 116/239/351 117/252/351 119/236/351
f 118/240/352 119/236/352 120/241/352
f 115/243/353 117/573/353 116/232/353
f 120/244/354 115/574/354 114/245/354
f 118/247/355 113/575/355 126/248/355
f 116/239/356 118/240/356 124/250/356
f 110/224/357 117/573/357 115/243/357
f 111/227/358 119/236/358 117/252/358
f 121/253/2 122/256/2 125/254/2
f 122/256/2 127/259/2 128/257/2
f 123/255/2 124/258/2 126/230/2
f 123/255/2 125/254/2 128/257/2
f 121/253/117 126/230/117 127/259/117
f 159/260/359 133/576/359 136/261/359
f 130/263/2 131/577/2 132/264/2
f 157/266/360 136/578/360 138/267/360
f 137/269/361 133/318/361 159/270/361
f 153/272/362 155/579/362 143/273/362
f 138/275/363 137/319/363 160/276/363
f 154/278/364 139/317/364 142/279/364
f 154/281/365 153/580/365 135/282/365
f 156/284/366 142/297/366 143/285/366
f 162/287/367 161/581/367 147/288/367
f 150/290/368 151/582/368 140/291/368
f 152/293/369 144/328/369 134/294/369
f 152/296/370 143/285/370 142/297/370
f 151/299/371 149/314/371 134/300/371
f 148/302/131 147/583/131 146/303/131
f 161/305/372 163/329/372 146/306/372
f 162/308/373 148/584/373 145/309/373
f 164/311/374 145/585/374 146/312/374
f 139/283/375 135/282/375 149/314/375
f 144/315/376 152/296/376 150/298/376
f 135/274/377 143/273/377 152/293/377
f 139/317/378 151/582/378 150/290/378
f 138/267/379 136/578/379 156/284/379
f 137/269/380 153/580/380 154/281/380
f 136/261/381 133/576/381 154/278/381
f 138/275/382 155/579/382 153/272/382
f 158/277/383 160/276/383 132/320/383
f 160/271/384 159/270/384 129/322/384
f 130/324/385 157/266/385 158/268/385
f 159/260/386 157/262/386 130/326/386
f 140/301/387 134/300/387 164/311/387
f 144/328/388 162/308/388 164/310/388
f 141/292/389 140/291/389 163/329/389
f 141/316/390 161/581/390 162/287/390
f 195/330/391 169/389/391 172/331/391
f 166/333/2 167/586/2 168/334/2
f 172/336/392 174/386/392 194/337/392
f 196/339/393 173/388/393 169/340/393
f 191/342/394 179/398/394 171/343/394
f 174/345/395 173/390/395 196/346/395
f 192/348/396 190/587/396 175/349/396
f 189/351/397 171/399/397 175/352/397
f 191/354/398 192/387/398 178/355/398
f 180/357/399 177/379/399 183/358/399
f 186/360/400 187/385/400 176/361/400
f 188/363/401 180/588/401 170/364/401
f 197/366/402 200/400/402 179/356/402
f 185/367/403 170/376/403 176/368/403
f 184/370/404 183/589/404 182/371/404
f 176/361/405 182/590/405 183/373/405
f 170/364/406 180/588/406 184/374/406
f 170/376/407 181/372/407 182/371/407
f 198/377/408 185/367/408 187/369/408
f 177/379/409 180/357/409 188/380/409
f 200/382/410 188/363/410 185/365/410
f 197/384/411 199/397/411 187/385/411
f 174/386/412 172/336/412 192/387/412
f 173/388/413 189/351/413 190/353/413
f 169/389/414 190/587/414 192/348/414
f 173/390/415 174/345/415 191/342/415
f 194/347/416 196/346/416 168/391/416
f 196/339/417 195/341/417 165/335/417
f 193/338/418 194/337/418 167/393/418
f 165/395/419 195/330/419 193/332/419
f 178/350/420 175/349/420 199/397/420
f 179/398/421 200/382/421 198/383/421
f 171/399/422 198/377/422 199/378/422
f 186/381/423 188/380/423 200/400/423
f 205/401/424 208/460/424 229/402/424
f 201/404/2 202/591/2 203/405/2
f 229/407/425 208/457/425 210/408/425
f 209/410/426 205/458/426 231/411/426
f 227/413/427 215/453/427 207/414/427
f 210/416/428 209/462/428 232/417/428
f 228/419/429 226/461/429 211/420/429
f 226/422/430 225/459/430 207/423/430
f 228/425/431 214/438/431 215/426/431
f 216/428/432 213/451/432 219/429/432
f 223/431/433 212/445/433 213/432/433
f 221/434/434 224/592/434 216/435/434
f 222/437/435 224/452/435 215/426/435
f 221/439/436 206/449/436 212/440/436
f 220/442/437 219/593/437 218/443/437
f 212/445/438 218/594/438 219/446/438
f 206/436/439 216/435/439 220/447/439
f 206/449/440 217/595/440 218/450/440
f 207/423/441 221/439/441 223/441/441
f 213/451/442 216/428/442 224/452/442
f 215/453/443 224/592/443 221/434/443
f 214/454/444 211/596/444 223/455/444
f 208/457/445 228/425/445 227/427/445
f 205/458/446 209/410/446 225/459/446
f 208/460/447 205/401/447 226/461/447
f 210/416/448 227/413/448 225/415/448
f 203/463/449 230/418/449 232/417/449
f 232/465/450 231/597/450 201/466/450
f 229/407/451 230/409/451 203/468/451
f 201/470/452 231/403/452 229/402/452
f 243/472/453 237/598/453 238/473/453
f 234/475/2 235/599/2 236/476/2
f 241/478/454 238/600/454 240/479/454
f 239/481/455 237/491/455 243/482/455
f 240/484/456 239/494/456 244/485/456
f 237/487/457 245/601/457 248/488/457
f 239/481/458 249/546/458 245/490/458
f 240/479/459 238/600/459 248/492/459
f 239/494/460 240/484/460 250/495/460
f 242/486/461 244/485/461 236/497/461
f 244/483/462 243/482/462 233/499/462
f 241/478/463 242/480/463 235/501/463
f 233/503/464 243/472/464 241/474/464
f 265/505/465 267/551/465 255/506/465
f 266/508/466 251/602/466 254/509/466
f 265/511/467 247/603/467 251/512/467
f 268/514/468 254/527/468 255/515/468
f 256/517/469 253/544/469 259/518/469
f 262/520/470 263/545/470 252/521/470
f 264/523/471 256/537/471 246/524/471
f 264/526/472 255/515/472 254/527/472
f 263/529/473 261/604/473 246/530/473
f 259/532/234 258/605/234 257/533/234
f 253/522/474 252/521/474 258/535/474
f 256/537/475 260/606/475 257/538/475
f 246/539/476 257/607/476 258/540/476
f 251/512/477 247/603/477 261/542/477
f 256/517/478 264/526/478 262/528/478
f 255/506/479 264/523/479 261/525/479
f 254/509/480 251/602/480 263/545/480
f 248/492/481 268/514/481 267/516/481
f 249/546/482 265/511/482 266/513/482
f 248/547/483 245/608/483 266/548/483
f 249/550/484 250/609/484 267/551/484
