# Blender 4.2.1 LTS
# www.blender.org
mtllib grass_cluster_1.mtl
g grass_cluster_1_Mesh
v 1.079367 0.116880 -0.811246
v -1.027437 0.068374 -1.180453
v 0.359389 0.099306 1.098729
v -1.154683 0.058966 0.283802
v 1.065972 0.114539 -1.234624
v -0.114498 0.088013 -1.268357
v -0.276333 0.083535 -1.369998
v -1.027641 0.062426 0.806237
v -0.636420 0.073265 0.924318
v -0.040063 0.089802 0.980176
v 0.713715 0.105716 1.039407
v 0.685711 0.102543 0.686791
v 0.831174 0.106616 0.382285
v -1.131810 0.082570 -0.714445
v -0.995919 0.063430 -0.202474
v -0.889967 0.066343 0.008651
v 0.060014 0.092685 0.112695
v 0.184971 0.094550 0.422366
v 0.021564 0.091580 0.428883
v -0.021635 0.090449 -0.127855
v -0.160642 0.086557 0.163111
v -0.267170 0.083587 0.288559
v -0.302520 -0.020327 -0.284854
v -0.330409 0.150133 0.147489
v -0.375219 0.080588 0.301047
v 1.530151 0.120750 -0.510993
v 1.172875 0.216142 0.282515
v 1.723019 0.129190 -0.052214
v 1.657467 0.127347 0.149608
v 0.750663 -0.020677 0.381156
v 1.127811 -0.006830 -0.865272
v -0.444900 -0.046198 -1.389426
v -0.994761 -0.055759 -1.337651
v -0.941965 -0.060157 -0.010064
v -1.182842 -0.066884 0.353870
v -0.087804 -0.036594 1.080104
v 0.362610 -0.025663 1.093109
v 1.135293 -0.008594 -1.268714
v -0.111277 -0.036957 -1.273977
v -1.024420 -0.062544 0.800618
v -0.633199 -0.051705 0.918698
v 0.024785 -0.033390 0.423264
v -0.263949 -0.041383 0.282939
v -0.371998 -0.044382 0.295427
v 0.716936 -0.019253 1.033788
v 0.688932 -0.022426 0.681172
v -1.210966 -0.068102 -0.749365
v -0.992698 -0.061540 -0.208094
v 0.063235 -0.032285 0.107076
v 0.188192 -0.030419 0.416746
v -0.018414 -0.034520 -0.133474
v -0.157421 -0.038412 0.157492
v -0.306039 -0.042481 -0.286955
v -0.321851 -0.042971 0.136275
v 1.137900 -0.009626 0.305008
v 1.533372 -0.004220 -0.516612
v 1.660689 0.002377 0.143989
v 1.744877 0.004737 -0.055034
v 1.154879 0.049947 0.463843
v 0.840412 0.046933 0.500818
v -0.115360 0.028066 -1.280919
v 1.140477 0.056686 -1.276352
v 0.723176 0.046053 1.048568
v 0.365583 0.039552 1.111075
v 1.757616 0.070225 -0.053073
v 1.667279 0.095065 0.164893
v -0.450661 0.018778 -1.399899
v 0.696044 0.042905 0.690551
v 1.542808 0.061177 -0.519139
v -1.038508 0.002199 0.811511
v -1.222060 -0.002835 0.339354
v -0.644073 0.013127 0.930641
v -1.050051 0.007837 -1.298507
v -1.225493 -0.003369 -0.755289
v -0.091742 0.028430 1.099915
v -0.959200 0.004500 -0.006646
v -1.007199 0.003193 -0.210861
v 1.134768 0.058499 -0.870653
v 0.250111 0.098138 -1.350616
v -0.301010 0.082585 0.806307
v 0.016365 0.135382 -0.007654
v -0.017011 0.090533 0.232916
v -0.123539 0.087563 0.358363
v 0.253332 -0.026832 -1.356235
v -0.297789 -0.042385 0.800688
v 0.022202 -0.033408 -0.013812
v -0.013790 -0.034436 0.227296
v -0.120318 -0.037407 0.352744
v -0.305213 0.022542 0.816545
v 0.450479 0.043761 -1.259582
vn -0.0277 0.9996 0.0001
vn -0.0185 0.9998 -0.0022
vn -0.3807 0.9242 0.0290
vn 0.3317 0.9278 0.1709
vn 0.3127 0.9055 0.2870
vn -0.5724 0.8108 -0.1221
vn -0.1086 0.9799 0.1676
vn -0.0196 0.9998 0.0045
vn -0.0184 0.9998 0.0046
vn -0.0117 0.9999 -0.0081
vn 0.0040 0.9954 0.0954
vn 0.0693 0.9296 -0.3620
vn -0.2226 0.9108 0.3476
vn 0.0547 0.9940 -0.0949
vn 0.1159 0.9910 -0.0670
vn 0.0277 -0.9996 -0.0001
vn 0.0185 -0.9998 0.0022
vn 0.0284 -0.9996 0.0049
vn 0.0173 -0.9999 -0.0009
vn 0.0117 -0.9999 0.0081
vn 0.0160 -0.9998 -0.0151
vn 0.0278 -0.9996 0.0009
vn 0.0280 -0.9996 -0.0026
vn 0.0246 -0.9997 0.0052
vn 0.0497 -0.9369 0.3461
vn -0.0002 0.8077 -0.5896
vn 0.1716 -0.2330 0.9572
vn 0.9066 -0.1531 0.3932
vn 0.3349 -0.1209 -0.9345
vn 0.9941 -0.0781 -0.0747
vn 0.8973 -0.1623 -0.4104
vn -0.8365 -0.4375 0.3299
vn 0.7859 -0.1709 0.5943
vn 0.2635 -0.9121 0.3139
vn -0.2767 -0.2177 0.9360
vn -0.1592 0.4134 -0.8965
vn -0.9235 -0.2350 -0.3031
vn -0.7757 -0.2265 0.5891
vn -0.6705 -0.5286 -0.5206
vn -0.9137 -0.1713 0.3684
vn -0.0171 -0.2648 0.9641
vn -0.9527 -0.2038 0.2252
vn 0.6482 -0.1226 -0.7515
vn 0.9969 -0.0775 0.0144
vn 0.7116 0.7021 -0.0264
vn 0.3219 0.8079 -0.4937
vn -0.6688 0.6680 0.3264
vn -0.2842 0.1656 0.9443
vn -0.9553 0.1428 0.2589
vn -0.5216 0.7034 -0.4829
vn -0.5491 0.1777 0.8167
vn -0.6272 0.7615 -0.1637
vn -0.1739 0.7582 -0.6284
vn -0.2897 0.1365 0.9473
vn 0.3128 0.4825 0.8182
vn 0.6289 0.7130 0.3100
vn -0.6033 0.7849 0.1415
vn 0.8929 0.2417 -0.3798
vn 0.9830 0.1653 -0.0796
vn 0.5210 0.1679 -0.8369
vn 0.8311 0.4837 0.2744
vn 0.1575 0.2154 0.9637
vn -0.2209 0.2031 -0.9539
vn -0.0403 0.7386 0.6730
vn 0.1110 -0.7264 -0.6783
vn 0.3254 0.1368 0.9356
vn 0.3198 -0.1195 0.9399
vn -0.0220 -0.1145 -0.9932
vn 0.0182 -0.9998 0.0017
vn 0.0208 -0.9998 -0.0013
vn -0.0182 0.9998 -0.0017
vn -0.0229 0.9997 0.0032
vn 0.2843 0.9314 0.2273
vn -0.0239 0.9997 0.0005
vn -0.0858 0.9920 0.0929
vn -0.1538 0.9158 -0.3710
vn 0.0231 0.9081 0.4180
vn -0.4301 0.8818 -0.1937
vn -0.0279 0.9996 -0.0046
vn -0.0186 0.9998 0.0015
vn -0.0183 0.9998 -0.0024
vn 0.1243 0.9922 -0.0024
vn 0.1205 0.9927 0.0051
vn -0.1645 0.9840 0.0689
vn -0.3201 0.9456 -0.0584
vn 0.1993 0.9772 0.0736
vn 0.0243 -0.9997 -0.0007
vn 0.0190 -0.9998 -0.0054
vn 0.0172 -0.9998 -0.0023
vn 0.0183 -0.9998 0.0024
vn 0.0284 -0.9996 -0.0002
vn 0.0086 -1.0000 -0.0025
vn 0.0355 -0.9994 0.0031
vn 0.1093 -0.8983 0.4256
vn -0.2155 -0.1170 -0.9695
vn 0.1638 -0.2689 0.9491
vn 0.9054 -0.1875 0.3808
vn 0.3280 -0.0799 -0.9413
vn 0.9922 -0.0968 -0.0779
vn 0.9005 -0.1458 -0.4098
vn -0.9111 -0.2530 0.3255
vn 0.5102 -0.8542 0.1000
vn 0.2913 -0.2301 0.9285
vn -0.2764 -0.2188 0.9358
vn -0.0896 -0.1662 -0.9820
vn -0.8037 -0.5103 -0.3061
vn -0.7753 -0.2321 0.5874
vn -0.8172 -0.1891 -0.5444
vn -0.9101 -0.1881 0.3693
vn -0.0205 -0.2925 0.9560
vn -0.9345 -0.2618 0.2412
vn 0.6468 -0.1308 -0.7514
vn 0.9944 -0.1043 0.0189
vn 0.6151 0.7884 0.0051
vn 0.6335 0.2354 -0.7371
vn -0.9628 0.1489 0.2254
vn -0.0326 0.8951 0.4447
vn -0.7124 0.6445 0.2779
vn -0.7589 0.3151 -0.5699
vn -0.3942 0.8757 0.2787
vn -0.7032 0.6783 -0.2131
vn -0.0908 0.8931 -0.4406
vn -0.2899 0.1353 0.9474
vn 0.3231 0.6815 0.6567
vn 0.7820 0.1732 0.5987
vn -0.9147 0.1960 0.3535
vn 0.7967 0.4729 -0.3764
vn 0.9865 0.1448 -0.0760
vn 0.3101 -0.4474 -0.8389
vn 0.8590 0.4077 0.3096
vn 0.1664 0.1754 0.9703
vn 0.0445 -0.8115 -0.5826
vn 0.0439 0.8937 0.4466
vn -0.0306 0.5585 -0.8289
vn 0.3171 0.0592 0.9466
vn 0.3306 -0.1881 0.9248
vn 0.0491 0.7562 -0.6525
vn 0.0229 -0.9997 -0.0032
vn 0.0237 -0.9997 0.0012
vn 0.3108 0.9257 0.2157
vn -0.0158 0.9994 -0.0305
vt 0.182677 0.132066
vt 0.185911 0.135945
vt 0.182774 0.137396
vt 0.180433 0.130569
vt 0.176532 0.131355
vt 0.176549 0.129433
vt 0.190116 0.133911
vt 0.187652 0.136158
vt 0.189186 0.133463
vt 0.180601 0.135888
vt 0.182304 0.131469
vt 0.197320 0.126895
vt 0.193129 0.131827
vt 0.191216 0.130997
vt 0.183404 0.128556
vt 0.183274 0.131200
vt 0.182504 0.130427
vt 0.191087 0.133641
vt 0.190316 0.132868
vt 0.196261 0.124719
vt 0.190463 0.131271
vt 0.189386 0.132420
vt 0.181373 0.131021
vt 0.181573 0.129979
vt 0.189765 0.114410
vt 0.190167 0.121294
vt 0.188006 0.118857
vt 0.179705 0.126670
vt 0.180633 0.129527
vt 0.178763 0.128627
vt 0.198633 0.121834
vt 0.193618 0.121573
vt 0.198972 0.117053
vt 0.196013 0.125379
vt 0.191575 0.123387
vt 0.194037 0.135942
vt 0.190490 0.134508
vt 0.189277 0.124664
vt 0.186566 0.127481
vt 0.187539 0.124887
vt 0.185640 0.123876
vt 0.190249 0.128512
vt 0.193237 0.124176
vt 0.194087 0.126857
vt 0.184102 0.129212
vt 0.188002 0.130005
vt 0.184116 0.131135
vt 0.187414 0.126857
vt 0.189874 0.129109
vt 0.188942 0.129555
vt 0.188180 0.124686
vt 0.197064 0.136138
vt 0.192902 0.131186
vt 0.198994 0.134914
vt 0.190969 0.132024
vt 0.190844 0.129405
vt 0.190072 0.130152
vt 0.196001 0.138313
vt 0.190204 0.131749
vt 0.189140 0.130598
vt 0.189077 0.138778
vt 0.189432 0.131471
vt 0.190844 0.139656
vt 0.187582 0.133463
vt 0.188200 0.131048
vt 0.186327 0.131945
vt 0.198994 0.128383
vt 0.198540 0.131703
vt 0.195286 0.127396
vt 0.186848 0.136175
vt 0.187279 0.138129
vt 0.184632 0.137994
vt 0.186625 0.133457
vt 0.186283 0.134849
vt 0.191514 0.130388
vt 0.190217 0.136370
vt 0.190056 0.127093
vt 0.191514 0.133796
vt 0.192537 0.138534
vt 0.192109 0.138570
vt 0.192733 0.131918
vt 0.192191 0.134794
vt 0.192191 0.131665
vt 0.199721 0.142028
vt 0.200838 0.138674
vt 0.201258 0.138718
vt 0.187994 0.131888
vt 0.187633 0.137703
vt 0.187633 0.131665
vt 0.193261 0.127151
vt 0.192871 0.130944
vt 0.192902 0.127093
vt 0.196602 0.134834
vt 0.197156 0.127093
vt 0.197156 0.135330
vt 0.186258 0.131964
vt 0.184509 0.137974
vt 0.191622 0.134253
vt 0.193025 0.128953
vt 0.191997 0.134414
vt 0.199672 0.130641
vt 0.199943 0.129559
vt 0.199325 0.122221
vt 0.199742 0.122107
vt 0.190819 0.131769
vt 0.191232 0.137256
vt 0.190822 0.137443
vt 0.187994 0.131832
vt 0.188580 0.138459
vt 0.187994 0.138717
vt 0.194489 0.140083
vt 0.194633 0.130538
vt 0.194873 0.140289
vt 0.192108 0.127093
vt 0.191953 0.133830
vt 0.194240 0.130379
vt 0.194873 0.127177
vt 0.193230 0.130916
vt 0.192883 0.135835
vt 0.193261 0.140715
vt 0.192902 0.140843
vt 0.189346 0.124167
vt 0.191230 0.123816
vt 0.195525 0.135633
vt 0.194387 0.136253
vt 0.185725 0.135533
vt 0.184251 0.133836
vt 0.184344 0.133797
vt 0.198757 0.134344
vt 0.195607 0.135677
vt 0.193723 0.138386
vt 0.187612 0.136241
vt 0.198145 0.132088
vt 0.199332 0.134684
vt 0.199332 0.128092
vt 0.198484 0.127307
vt 0.190586 0.139837
vt 0.188407 0.138415
vt 0.188414 0.138330
vt 0.184772 0.125041
vt 0.184891 0.125017
vt 0.186575 0.131069
vt 0.186879 0.129561
vt 0.187517 0.129111
vt 0.193711 0.138971
vt 0.192565 0.127293
vt 0.192537 0.130918
vt 0.187300 0.131889
vt 0.187300 0.137847
vt 0.190371 0.132264
vt 0.189055 0.134964
vt 0.190530 0.132210
vt 0.185499 0.123719
vt 0.184362 0.131875
vt 0.188802 0.126334
vt 0.186540 0.128169
vt 0.194989 0.124090
vt 0.193229 0.128706
vt 0.192040 0.123202
vt 0.192210 0.122988
vt 0.192641 0.128836
vt 0.194725 0.138943
vt 0.190868 0.139734
vt 0.191332 0.129402
vt 0.190692 0.121495
vt 0.196489 0.128059
vt 0.188246 0.133011
vt 0.188446 0.131968
vt 0.189679 0.131548
vt 0.183418 0.121374
vt 0.182651 0.128830
vt 0.181866 0.129107
vt 0.188734 0.122757
vt 0.188141 0.125904
vt 0.186214 0.125279
vt 0.186224 0.133501
vt 0.177913 0.133092
vt 0.185317 0.129386
vt 0.191719 0.113562
vt 0.199245 0.124090
vt 0.190355 0.123182
vt 0.185163 0.126796
vt 0.185289 0.139220
vt 0.190056 0.136336
vt 0.192607 0.134758
vt 0.199325 0.141994
vt 0.187994 0.137847
vt 0.196725 0.127139
vt 0.191232 0.131665
vt 0.188403 0.131665
vt 0.192537 0.127243
vt 0.194439 0.127093
vt 0.193243 0.135751
vt 0.191133 0.123292
vt 0.187523 0.124811
vt 0.185327 0.136296
vt 0.198824 0.131751
vt 0.190598 0.139935
vt 0.186509 0.131053
vt 0.188802 0.137873
vt 0.184272 0.131885
vt 0.190107 0.122988
vt 0.191622 0.123118
vt 0.189920 0.121217
vt 0.188449 0.122277
vt 0.189674 0.123209
s 0
usemtl Material
f 25/1/1 4/2/1 8/3/1
f 19/4/2 3/5/2 11/6/2
f 22/7/1 80/8/1 83/9/1
f 25/1/1 9/10/1 22/11/1
f 6/12/3 23/13/3 20/14/3
f 20/15/4 24/16/4 21/17/4
f 24/18/5 22/7/5 21/19/5
f 79/20/6 20/14/6 81/21/6
f 81/21/7 21/19/7 82/22/7
f 21/17/1 83/23/1 82/24/1
f 1/25/8 17/26/8 13/27/8
f 13/28/9 18/29/9 12/30/9
f 18/29/10 11/6/10 12/30/10
f 2/31/11 23/32/11 7/33/11
f 23/32/12 15/34/12 24/35/12
f 24/18/13 16/36/13 25/37/13
f 1/38/14 27/39/14 26/40/14
f 27/39/15 28/41/15 26/40/15
f 44/42/16 35/43/16 34/44/16
f 37/45/17 42/46/17 45/47/17
f 85/48/16 43/49/16 88/50/16
f 41/51/16 44/42/16 43/49/16
f 39/52/16 53/53/16 32/54/16
f 51/55/16 54/56/16 53/53/16
f 43/49/16 54/56/16 52/57/16
f 84/58/16 51/55/16 39/52/16
f 86/59/16 52/57/16 51/55/16
f 88/50/16 52/57/16 87/60/16
f 31/61/18 49/62/18 38/63/18
f 30/64/19 50/65/19 49/62/19
f 45/47/20 50/65/20 46/66/20
f 32/54/21 47/67/21 33/68/21
f 53/53/22 48/69/22 47/67/22
f 54/56/16 34/44/16 48/69/16
f 31/61/23 55/70/23 30/64/23
f 56/71/24 57/72/24 55/70/24
f 60/73/25 55/70/25 59/74/25
f 84/75/26 61/76/26 90/77/26
f 64/78/27 45/79/27 63/80/27
f 57/81/28 65/82/28 66/83/28
f 61/84/29 32/85/29 67/86/29
f 45/87/30 68/88/30 63/89/30
f 58/90/31 69/91/31 65/92/31
f 35/93/32 70/94/32 71/95/32
f 46/66/33 60/73/33 68/96/33
f 55/70/34 66/97/34 59/74/34
f 40/98/35 72/99/35 70/100/35
f 67/86/36 33/101/36 73/102/36
f 73/102/37 47/103/37 74/104/37
f 89/105/38 36/106/38 75/107/38
f 76/108/39 35/109/39 71/110/39
f 47/111/40 77/112/40 74/113/40
f 75/114/41 37/115/41 64/78/41
f 48/116/42 76/117/42 77/112/42
f 56/118/43 78/119/43 69/91/43
f 78/119/44 38/120/44 62/121/44
f 78/122/45 5/123/45 1/38/45
f 26/40/46 78/122/46 1/38/46
f 15/124/47 76/125/47 16/36/47
f 10/126/48 64/127/48 3/128/48
f 14/129/49 77/130/49 15/124/49
f 76/125/50 4/131/50 16/36/50
f 89/132/51 10/126/51 80/8/51
f 2/133/52 74/134/52 14/129/52
f 67/135/53 2/133/53 7/136/53
f 8/137/54 72/138/54 9/139/54
f 27/39/55 66/140/55 29/141/55
f 12/142/56 60/143/56 13/144/56
f 71/145/57 8/137/57 4/131/57
f 28/146/58 69/91/58 26/147/58
f 11/148/59 68/88/59 12/149/59
f 61/150/60 7/151/60 6/152/60
f 29/141/61 65/153/61 28/41/61
f 64/127/62 11/154/62 3/128/62
f 79/155/63 61/150/63 6/152/63
f 13/144/64 59/156/64 27/39/64
f 5/123/65 90/157/65 79/20/65
f 9/158/66 89/159/66 80/160/66
f 41/161/67 89/159/67 72/99/67
f 38/63/68 90/162/68 62/163/68
f 42/46/69 87/60/69 50/65/69
f 49/62/16 87/60/16 86/59/16
f 38/164/70 86/165/70 84/166/70
f 42/46/16 85/48/16 88/50/16
f 82/22/71 19/167/71 18/168/71
f 17/169/72 82/22/72 18/168/72
f 5/170/73 81/171/73 17/172/73
f 19/173/1 80/174/1 10/175/1
f 25/1/1 16/176/1 4/2/1
f 19/4/74 10/177/74 3/5/74
f 22/7/1 9/139/1 80/8/1
f 25/1/1 8/3/1 9/10/1
f 6/12/75 7/136/75 23/13/75
f 20/15/76 23/178/76 24/16/76
f 24/18/77 25/37/77 22/7/77
f 79/20/1 6/12/1 20/14/1
f 81/21/78 20/14/78 21/19/78
f 21/17/1 22/11/1 83/23/1
f 1/25/79 5/179/79 17/26/79
f 13/28/80 17/172/80 18/29/80
f 18/29/81 19/4/81 11/6/81
f 2/31/82 14/180/82 23/32/82
f 23/32/83 14/180/83 15/34/83
f 24/18/84 15/124/84 16/36/84
f 1/38/85 13/144/85 27/39/85
f 27/39/86 29/141/86 28/41/86
f 44/42/16 40/181/16 35/43/16
f 37/45/87 36/182/87 42/46/87
f 85/48/16 41/51/16 43/49/16
f 41/51/16 40/181/16 44/42/16
f 39/52/16 51/55/16 53/53/16
f 51/55/16 52/57/16 54/56/16
f 43/49/16 44/42/16 54/56/16
f 84/58/16 86/59/16 51/55/16
f 86/59/16 87/60/16 52/57/16
f 88/50/16 43/49/16 52/57/16
f 31/61/88 30/64/88 49/62/88
f 30/64/89 46/66/89 50/65/89
f 45/47/90 42/46/90 50/65/90
f 32/54/91 53/53/91 47/67/91
f 53/53/16 54/56/16 48/69/16
f 54/56/16 44/42/16 34/44/16
f 31/61/92 56/71/92 55/70/92
f 56/71/93 58/183/93 57/72/93
f 60/73/94 30/64/94 55/70/94
f 84/75/95 39/184/95 61/76/95
f 64/78/96 37/115/96 45/79/96
f 57/81/97 58/185/97 65/82/97
f 61/84/98 39/186/98 32/85/98
f 45/87/99 46/187/99 68/88/99
f 58/90/100 56/118/100 69/91/100
f 35/93/101 40/188/101 70/94/101
f 46/66/102 30/64/102 60/73/102
f 55/70/103 57/72/103 66/97/103
f 40/98/104 41/161/104 72/99/104
f 67/86/105 32/85/105 33/101/105
f 73/102/106 33/101/106 47/103/106
f 89/105/107 85/189/107 36/106/107
f 76/108/108 34/190/108 35/109/108
f 47/111/109 48/116/109 77/112/109
f 75/114/110 36/191/110 37/115/110
f 48/116/111 34/192/111 76/117/111
f 56/118/112 31/193/112 78/119/112
f 78/119/113 31/193/113 38/120/113
f 78/122/114 62/194/114 5/123/114
f 26/40/115 69/195/115 78/122/115
f 15/124/116 77/130/116 76/125/116
f 10/126/117 75/196/117 64/127/117
f 14/129/118 74/134/118 77/130/118
f 76/125/119 71/145/119 4/131/119
f 89/132/120 75/196/120 10/126/120
f 2/133/121 73/197/121 74/134/121
f 67/135/122 73/197/122 2/133/122
f 8/137/123 70/198/123 72/138/123
f 27/39/124 59/156/124 66/140/124
f 12/142/125 68/199/125 60/143/125
f 71/145/126 70/198/126 8/137/126
f 28/146/127 65/92/127 69/91/127
f 11/148/128 63/89/128 68/88/128
f 61/150/129 67/200/129 7/151/129
f 29/141/130 66/140/130 65/153/130
f 64/127/131 63/201/131 11/154/131
f 79/155/132 90/202/132 61/150/132
f 13/144/133 60/143/133 59/156/133
f 5/123/134 62/194/134 90/157/134
f 9/158/135 72/99/135 89/159/135
f 41/161/136 85/203/136 89/159/136
f 38/63/137 84/58/137 90/162/137
f 42/46/16 88/50/16 87/60/16
f 49/62/138 50/65/138 87/60/138
f 38/164/139 49/204/139 86/165/139
f 42/46/16 36/182/16 85/48/16
f 82/22/1 83/9/1 19/167/1
f 17/169/140 81/21/140 82/22/140
f 5/170/141 79/205/141 81/171/141
f 19/173/1 83/206/1 80/174/1
