# Blender 4.2.1 LTS
# www.blender.org
mtllib grass_green_7.mtl
g grass_green_7_Mesh
v 0.013955 -0.027057 -0.038610
v 0.003726 -0.027057 0.020685
v -0.049376 -0.027057 -0.002673
v -0.027167 -0.027057 -0.034950
v 0.003384 0.055474 -0.057031
v -0.003786 0.061415 -0.017523
v -0.023553 0.042637 -0.056321
v -0.038734 0.041274 -0.031254
v -0.001906 0.018229 -0.005769
v -0.046952 0.017719 -0.025363
v 0.006142 0.021941 -0.053978
v -0.027655 0.020585 -0.054221
v -0.010027 0.111435 -0.064419
v -0.109414 0.217306 -0.037874
v -0.063324 0.187414 -0.054535
v -0.016635 0.112112 -0.034212
v -0.029080 0.096964 -0.064933
v -0.040782 0.091650 -0.046187
v -0.051979 0.194135 -0.048058
v -0.105325 0.221501 -0.034886
v -0.107356 0.218186 -0.029219
v -0.055533 0.185278 -0.032842
v -0.067156 0.175035 -0.042494
v -0.111694 0.213785 -0.032683
v -0.124084 0.261763 -0.029288
v -0.122577 0.263533 -0.027808
v -0.123377 0.261632 -0.025624
v -0.124975 0.259796 -0.027314
v -0.089805 0.192770 -0.047553
v -0.088487 0.194542 -0.031809
v -0.085461 0.202569 -0.041352
v -0.093025 0.184396 -0.039330
v -0.045417 0.142570 -0.066521
v -0.036122 0.162969 -0.059284
v -0.047822 0.126316 -0.044114
v -0.042755 0.151244 -0.037154
v -0.010204 0.066725 -0.001468
v -0.067235 0.249369 0.054176
v -0.001465 0.147277 0.028179
v -0.000063 0.081138 -0.025179
v 0.011432 0.078273 0.011374
v 0.025183 0.085483 0.002485
v -0.019008 0.144042 0.015660
v -0.071262 0.244981 0.050914
v -0.071679 0.251479 0.046293
v -0.014163 0.157289 0.002480
v 0.004231 0.159569 0.017807
v -0.067307 0.255958 0.050010
v -0.095212 0.259511 0.062957
v -0.096151 0.257626 0.061028
v -0.096338 0.260672 0.059385
v -0.095316 0.262584 0.061539
v -0.049359 0.226473 0.052769
v -0.057772 0.227882 0.037921
v -0.058203 0.220241 0.044384
v -0.048380 0.233756 0.047877
v 0.006090 0.100583 0.019937
v -0.016233 0.093875 0.008883
v 0.014318 0.114036 0.009885
v -0.011057 0.110560 -0.010914
v 0.013995 0.054211 -0.038643
v 0.049029 0.053686 -0.002165
v -0.002323 0.058749 -0.003851
v 0.029695 0.057354 0.009781
v -0.033321 0.195367 0.017160
v -0.023174 0.192517 0.037365
v -0.036251 0.186878 0.026966
v -0.019430 0.200201 0.029671
v 0.017741 0.033815 -0.044769
v 0.055661 0.033553 -0.005108
v 0.036130 0.035386 0.006505
v 0.001541 0.036084 -0.007781
v 0.029477 0.015799 -0.047192
v 0.054436 0.017593 -0.003085
v 0.051378 0.016671 0.011291
v 0.011565 0.017058 -0.004927
v -0.013569 -0.004822 0.001886
v 0.028106 -0.004822 -0.046010
v 0.031621 0.003053 -0.045416
v 0.063905 -0.004822 -0.002774
v 0.058831 0.011553 -0.004971
v 0.031148 -0.010278 0.023464
v 0.049381 0.005059 0.017954
v -0.000081 0.003053 -0.004341
v 0.031284 -0.027057 -0.008857
v 0.053654 -0.027057 -0.025560
v 0.050184 -0.027057 0.006497
v 0.053392 -0.027057 0.026222
v 0.056347 -0.027057 -0.005095
v 0.010339 -0.027057 0.001545
v 0.052905 -0.027057 -0.031722
v 0.065501 -0.027057 -0.002941
v 0.028879 -0.027057 -0.078594
v 0.057909 -0.027057 -0.020590
v -0.020637 -0.027057 -0.011269
v -0.016893 -0.027057 -0.048094
v 0.031701 0.059388 -0.086533
v 0.009948 0.262309 -0.106322
v -0.007463 0.149964 -0.106891
v 0.048941 0.078656 -0.054898
v 0.000620 0.074826 -0.071898
v -0.000891 0.084465 -0.050060
v 0.017016 0.155189 -0.112816
v 0.017579 0.258849 -0.107110
v 0.020412 0.266779 -0.101150
v 0.024040 0.161738 -0.094289
v -0.003475 0.155956 -0.089965
v 0.012044 0.270196 -0.100542
v 0.018187 0.315155 -0.127936
v 0.021405 0.313912 -0.128249
v 0.022285 0.316619 -0.125218
v 0.018746 0.317743 -0.125122
v -0.003935 0.227178 -0.102887
v 0.017976 0.227372 -0.097220
v 0.012696 0.225688 -0.107280
v -0.000661 0.229053 -0.093775
v -0.000946 0.097027 -0.093416
v 0.029071 0.093772 -0.107049
v 0.001091 0.116391 -0.076805
v 0.042926 0.119605 -0.085812
v 0.055011 0.021422 -0.026867
v -0.012096 0.020720 -0.018623
v 0.030867 0.026051 -0.075773
v -0.009380 0.025623 -0.048884
v 0.021828 0.184270 -0.100846
v -0.006526 0.185051 -0.109857
v 0.015314 0.188353 -0.114845
v -0.002635 0.181576 -0.096877
v -0.004962 -0.027057 0.042242
v 0.035573 -0.027057 0.003964
v 0.047474 -0.027057 0.050791
v 0.016714 -0.027057 0.062380
v -0.003731 0.070774 0.050287
v 0.018430 0.082924 0.031512
v 0.012819 0.055369 0.058583
v 0.033286 0.059188 0.051377
v 0.026763 0.050804 0.007374
v 0.050375 0.028870 0.045540
v -0.007599 0.037158 0.038685
v 0.018545 0.025648 0.056670
v -0.002882 0.093492 0.068204
v 0.052915 0.235523 0.094519
v 0.031975 0.156611 0.099372
v 0.018286 0.097008 0.048478
v 0.012926 0.084695 0.079606
v 0.032475 0.083412 0.071753
v 0.026552 0.158895 0.090570
v 0.050738 0.235362 0.091634
v 0.053827 0.235621 0.089173
v 0.036432 0.157461 0.082659
v 0.041570 0.152132 0.093546
v 0.056055 0.235784 0.092394
v 0.055547 0.270221 0.105869
v 0.054396 0.269476 0.104215
v 0.056236 0.269492 0.102859
v 0.057405 0.270297 0.104703
v 0.044753 0.194446 0.092965
v 0.046162 0.194168 0.085358
v 0.041681 0.194332 0.088860
v 0.049195 0.194306 0.090125
v 0.019293 0.125096 0.092002
v 0.009630 0.136096 0.084590
v 0.032458 0.124295 0.077584
v 0.023585 0.139999 0.072233
v 0.066502 -0.027057 0.006234
v 0.017242 -0.027057 -0.023142
v 0.056182 -0.027057 -0.040897
v 0.077307 -0.027057 -0.017921
v 0.078416 0.061554 0.000288
v 0.101279 0.209400 -0.044247
v 0.113072 0.127305 -0.032216
v 0.057598 0.077827 -0.014223
v 0.082769 0.052076 -0.017798
v 0.071435 0.058526 -0.034075
v 0.103804 0.127032 -0.022472
v 0.098810 0.212452 -0.039823
v 0.095474 0.217343 -0.043360
v 0.091482 0.120253 -0.031887
v 0.103788 0.120085 -0.041967
v 0.098281 0.213842 -0.047998
v 0.120057 0.251150 -0.041339
v 0.119352 0.251359 -0.040522
v 0.118579 0.252082 -0.041253
v 0.119373 0.251826 -0.042106
v 0.097764 0.171425 -0.040937
v 0.084244 0.178224 -0.039589
v 0.092338 0.174297 -0.033306
v 0.090805 0.174778 -0.047489
v 0.103389 0.083240 -0.020442
v 0.100201 0.094754 -0.007249
v 0.093034 0.088839 -0.032371
v 0.084924 0.106181 -0.018220
v 0.033508 0.021296 -0.016854
v 0.056380 0.020851 -0.047420
v 0.063070 0.024536 0.004796
v 0.073849 0.023352 -0.022664
v -0.041000 -0.027057 -0.005340
v 0.026395 -0.027057 0.016321
v -0.009543 -0.027057 0.060704
v -0.043495 -0.027057 0.043167
v -0.045398 0.061165 0.001695
v -0.012901 0.066230 0.012452
v -0.048007 0.050222 0.024519
v -0.028655 0.049059 0.040319
v 0.003108 0.024364 0.010156
v -0.021506 0.023875 0.050264
v -0.043890 0.014716 -0.003929
v -0.048643 0.013417 0.028098
v -0.064996 0.081022 0.020363
v -0.101057 0.169979 0.103799
v -0.092294 0.126414 0.080789
v -0.048975 0.095252 0.026724
v -0.074928 0.083298 0.034194
v -0.056836 0.086284 0.045977
v -0.089423 0.133554 0.074411
v -0.099208 0.173078 0.099195
v -0.094245 0.175610 0.101953
v -0.080000 0.136444 0.078870
v -0.083513 0.125930 0.085148
v -0.096447 0.172154 0.106819
v -0.112159 0.185594 0.112968
v -0.111113 0.186261 0.110993
v -0.109017 0.187139 0.112196
v -0.110234 0.186382 0.114282
v -0.094642 0.147468 0.092747
v -0.085298 0.154458 0.090295
v -0.092212 0.151737 0.086677
v -0.088483 0.149570 0.096682
v -0.077946 0.104954 0.064747
v -0.081467 0.116636 0.053452
v -0.063344 0.112070 0.069391
v -0.068691 0.124340 0.060063
vn 0.9813 0.0892 0.1707
vn -0.0000 -1.0000 -0.0000
vn -0.3775 0.3465 0.8588
vn 0.0110 -0.0968 -0.9952
vn -0.8283 0.1543 -0.5386
vn 0.9501 0.2835 0.1298
vn 0.1065 -0.1050 -0.9888
vn -0.4692 0.2334 0.8517
vn -0.8133 -0.1709 -0.5561
vn -0.8006 -0.2358 -0.5508
vn -0.0843 -0.3104 -0.9469
vn -0.3623 0.4361 0.8237
vn 0.9621 0.2166 0.1660
vn -0.8489 -0.2093 -0.4853
vn 0.8709 0.2754 0.4070
vn 0.2387 0.4343 -0.8686
vn -0.3732 -0.1784 0.9105
vn -0.4530 -0.2312 0.8610
vn 0.6583 0.4601 0.5957
vn -0.7366 -0.3637 -0.5702
vn -0.1408 -0.5896 0.7953
vn 0.1596 0.4649 -0.8709
vn -0.8174 0.5481 0.1773
vn 0.8438 0.2729 0.4621
vn -0.8250 -0.1680 -0.5396
vn 0.4426 0.3226 -0.8367
vn 0.0220 0.6743 -0.7382
vn -0.3313 -0.3599 0.8722
vn -0.3151 -0.6098 -0.7272
vn 0.2208 0.7108 0.6678
vn -0.3523 -0.1270 0.9273
vn 0.2500 0.2205 -0.9428
vn 0.8144 0.5561 0.1657
vn -0.8840 -0.3282 -0.3330
vn -0.8844 -0.2721 -0.3793
vn 0.6100 0.5420 -0.5781
vn -0.3749 -0.3913 0.8405
vn 0.7667 0.0107 0.6419
vn 0.5422 0.2914 0.7881
vn -0.9472 0.0286 -0.3194
vn -0.4039 -0.1444 0.9033
vn 0.5979 0.2641 -0.7568
vn -0.0824 0.7643 -0.6396
vn -0.8408 -0.3485 -0.4143
vn 0.5722 0.4029 0.7143
vn 0.4689 0.5131 -0.7189
vn -0.4366 -0.4379 0.7859
vn -0.9344 0.1229 0.3344
vn -0.5429 -0.4243 -0.7247
vn 0.4176 0.4888 0.7659
vn 0.0155 -0.6057 0.7955
vn -0.3256 -0.5970 0.7332
vn 0.4458 0.5210 -0.7279
vn 0.7271 0.2755 0.6288
vn -0.8276 -0.3346 -0.4507
vn 0.5479 0.3991 -0.7352
vn -0.3021 -0.3974 0.8665
vn -0.9136 -0.1601 -0.3738
vn 0.5938 -0.1605 0.7884
vn 0.5136 0.0440 0.8569
vn -0.3745 -0.2431 0.8948
vn 0.6855 0.3213 -0.6533
vn -0.9160 -0.0486 -0.3982
vn -0.8489 -0.2469 -0.4674
vn 0.7255 0.2154 0.6537
vn -0.4824 -0.3999 0.7793
vn 0.3488 0.6765 -0.6487
vn -0.8108 -0.4839 -0.3292
vn 0.8654 -0.1279 -0.4845
vn -0.3769 -0.0709 0.9235
vn 0.9776 -0.0491 0.2048
vn -0.5888 -0.6252 -0.5123
vn 0.7026 0.4098 -0.5817
vn -0.3197 0.5123 0.7971
vn -0.6690 0.5347 -0.5163
vn 0.5964 -0.4772 0.6454
vn -0.1878 0.7867 0.5881
vn 0.7386 -0.2836 -0.6116
vn -0.5968 0.6116 -0.5193
vn -0.4418 -0.4590 0.7708
vn 0.9217 0.0633 0.3827
vn 0.8664 0.0769 -0.4934
vn 0.8206 0.5320 0.2086
vn 0.8848 -0.1259 -0.4487
vn 0.1060 0.4248 0.8991
vn -0.5334 -0.2670 -0.8026
vn -0.9772 -0.0693 0.2006
vn -0.9878 0.1412 -0.0658
vn 0.8536 0.2964 -0.4284
vn -0.4227 -0.1666 -0.8908
vn 0.0803 0.3229 0.9430
vn 0.1622 0.4350 0.8857
vn 0.9408 -0.0907 -0.3265
vn -0.8936 0.3770 0.2435
vn 0.1223 0.2884 0.9497
vn -0.0942 0.0190 -0.9954
vn 0.2039 0.7001 -0.6843
vn 0.9770 -0.1214 -0.1753
vn -0.9771 0.1908 0.0940
vn -0.2449 -0.3326 -0.9107
vn -0.2444 0.1761 -0.9536
vn 0.1886 0.0859 0.9783
vn -0.9570 0.0109 0.2898
vn 0.8710 0.1180 -0.4769
vn 0.1475 0.6297 0.7627
vn -0.5545 -0.4573 -0.6953
vn 0.9053 -0.1631 -0.3922
vn -0.9952 0.0226 0.0957
vn -0.9820 0.1602 -0.0999
vn -0.5533 0.0665 -0.8303
vn 0.1168 0.1307 0.9845
vn 0.8942 -0.0045 -0.4476
vn 0.9362 -0.0103 -0.3513
vn -0.9528 0.0507 0.2992
vn -0.2119 -0.0705 -0.9747
vn 0.1670 -0.0678 0.9836
vn -0.7049 0.3001 -0.6427
vn 0.8309 0.5108 -0.2205
vn -0.6077 -0.1670 0.7764
vn 0.3297 0.0041 0.9441
vn -0.6944 0.5508 -0.4632
vn -0.6734 -0.4421 0.5925
vn 0.8802 0.3224 -0.3483
vn 0.2768 -0.5605 0.7805
vn 0.3512 0.0888 0.9321
vn -0.6771 0.1025 0.7287
vn 0.9666 -0.0732 -0.2456
vn -0.6850 -0.0683 -0.7254
vn 0.3625 -0.3481 0.8646
vn -0.4029 0.6692 -0.6244
vn -0.4951 0.1426 0.8571
vn 0.7059 0.1641 -0.6891
vn 0.7948 0.1761 -0.5808
vn -0.6218 0.1850 -0.7610
vn 0.5306 -0.1371 0.8365
vn 0.8320 -0.1820 -0.5241
vn -0.7951 0.1355 0.5912
vn -0.2112 0.9377 -0.2758
vn -0.6041 0.3351 -0.7230
vn 0.5153 -0.3015 0.8022
vn -0.7869 -0.1374 0.6015
vn -0.7547 0.3490 0.5556
vn 0.8403 -0.1065 -0.5316
vn 0.5098 -0.0265 0.8599
vn -0.5966 0.2150 -0.7732
vn 0.8694 0.0701 -0.4891
vn -0.6676 -0.0883 0.7393
vn -0.6642 0.4226 -0.6166
vn 0.6937 -0.3089 0.6506
vn -0.5922 0.2162 0.7762
vn -0.7034 0.4700 -0.5332
vn 0.8732 -0.3317 0.3571
vn 0.7928 -0.3138 -0.5225
vn 0.8165 -0.1267 -0.5633
vn -0.6492 0.6636 0.3718
vn 0.9723 0.0016 0.2336
vn -0.6337 -0.0194 -0.7733
vn -0.5886 0.4328 -0.6828
vn -0.5285 0.2305 0.8171
vn 0.6474 -0.1254 -0.7518
vn -0.7937 -0.1764 -0.5822
vn 0.8546 -0.0568 0.5162
vn 0.5272 0.8133 0.2463
vn -0.5036 0.2855 0.8154
vn 0.6147 -0.2238 -0.7563
vn 0.6669 -0.3402 0.6629
vn 0.8263 0.3085 0.4713
vn -0.7827 0.1669 -0.5996
vn 0.6850 0.0949 -0.7224
vn -0.6037 0.0305 0.7966
vn -0.5134 0.4083 -0.7548
vn 0.7639 -0.3833 0.5192
vn -0.3052 0.4150 0.8571
vn 0.5686 -0.4354 -0.6979
vn 0.7361 -0.0132 -0.6768
vn 0.9105 0.0719 0.4072
vn -0.4017 0.2497 -0.8811
vn -0.5112 0.0605 0.8573
vn 0.2613 0.1244 -0.9572
vn 0.7752 0.4099 0.4807
vn -0.9892 0.0028 -0.1467
vn -0.6539 0.1100 0.7486
vn 0.1675 0.5949 -0.7862
vn -0.8081 -0.4899 -0.3272
vn 0.7205 0.4677 0.5120
vn -0.3953 -0.5392 0.7436
vn -0.4577 0.0741 0.8860
vn -0.9882 -0.1446 -0.0508
vn 0.7146 0.3930 0.5787
vn 0.3059 0.0244 -0.9518
vn -0.3483 -0.6994 0.6241
vn -0.0014 0.8405 -0.5418
vn -0.9250 0.0339 -0.3785
vn 0.7068 0.5968 0.3798
vn 0.7203 0.4012 0.5659
vn 0.1863 0.5335 -0.8250
vn -0.3438 -0.4910 0.8005
vn 0.8989 -0.0134 0.4380
vn -0.9116 -0.0603 -0.4066
vn -0.4240 0.9021 0.0801
vn 0.0445 0.6948 -0.7178
vn -0.2548 -0.6179 0.7438
vn -0.8133 -0.2759 -0.5123
vn -0.9428 0.0746 -0.3249
vn 0.8742 0.1090 0.4731
vn -0.4102 -0.4846 0.7726
vn 0.1964 0.5657 -0.8009
vn 0.9382 0.3304 -0.1032
vn -0.7826 0.1891 -0.5931
vn -0.0842 0.7257 -0.6829
vn -0.2244 -0.8054 0.5487
vn 0.9818 0.0957 0.1638
vn -0.4617 0.2142 0.8608
vn 0.0163 -0.0893 -0.9959
vn -0.8528 0.1100 -0.5105
vn 0.9462 0.2533 0.2013
vn 0.0463 -0.1518 -0.9873
vn -0.5325 0.1398 0.8348
vn -0.8357 -0.1870 -0.5163
vn -0.7975 -0.2332 -0.5564
vn 0.0217 -0.3747 -0.9269
vn -0.3630 0.4368 0.8231
vn 0.9619 0.2088 0.1766
vn -0.8783 -0.3373 -0.3389
vn 0.8720 0.3062 0.3819
vn 0.0974 0.2931 -0.9511
vn -0.4564 -0.2784 0.8451
vn -0.5401 -0.2653 0.7987
vn 0.6662 0.5146 0.5398
vn -0.7236 -0.3215 -0.6107
vn -0.1031 -0.5622 0.8206
vn 0.1659 0.4738 -0.8649
vn 0.8189 0.2490 0.5170
vn -0.8468 -0.1863 -0.4983
vn 0.3541 0.2886 -0.8896
vn -0.1020 0.5639 -0.8195
vn -0.3878 -0.4306 0.8150
vn -0.3083 -0.6035 -0.7353
vn 0.3055 0.7902 0.5313
vn -0.3709 -0.1790 0.9113
vn 0.0420 -0.0198 -0.9989
vn 0.8176 0.3700 0.4411
vn -0.8231 -0.1342 -0.5518
vn -0.6611 -0.4814 -0.5754
vn 0.5511 0.5852 -0.5949
vn -0.2388 -0.4869 0.8402
vn 0.8265 0.0864 0.5562
vn 0.4077 0.2900 0.8659
vn -0.9637 -0.0173 -0.2665
vn -0.5368 -0.2301 0.8117
vn 0.5910 0.2583 -0.7642
vn -0.1148 0.6983 -0.7065
vn -0.8367 -0.3254 -0.4405
vn 0.5887 0.4365 0.6803
vn 0.5157 0.5028 -0.6937
vn -0.3520 -0.3287 0.8764
vn -0.5337 -0.5125 -0.6727
vn 0.4279 0.3904 0.8151
vn -0.0344 -0.7067 0.7067
vn -0.3073 -0.5794 0.7549
vn 0.3450 0.3768 -0.8597
vn 0.7355 0.3068 0.6041
vn -0.8228 -0.2845 -0.4921
vn 0.5887 0.5200 -0.6189
vn -0.3055 -0.4041 0.8622
vn -0.9087 -0.0435 -0.4151
vn 0.7093 0.0887 0.6993
vn 0.5293 0.0286 0.8479
vn -0.3901 -0.2215 0.8937
vn 0.6851 0.3220 -0.6534
vn -0.9064 -0.0827 -0.4143
vn -0.8360 -0.2019 -0.5102
vn 0.7454 0.2541 0.6164
vn -0.4667 -0.3856 0.7959
vn 0.3219 0.6508 -0.6877
vn -0.8148 -0.4784 -0.3275
vn 0.6310 0.4918 -0.6000
vn -0.3821 -0.0630 0.9220
vn 0.4632 0.5543 0.6915
vn -0.3956 -0.7664 -0.5061
vn 0.9139 0.0686 -0.4000
vn -0.3950 0.3638 0.8436
vn -0.9034 -0.2045 -0.3768
vn 0.8409 0.3192 0.4371
vn -0.3355 0.6454 0.6862
vn 0.8005 0.1709 -0.5745
vn -0.7352 0.3709 -0.5674
vn -0.4290 -0.4731 0.7695
vn 0.4081 0.6470 0.6441
vn 0.5988 0.6011 -0.5292
vn 0.9150 0.0705 0.3972
vn 0.9038 -0.1518 -0.4001
vn 0.1379 0.4474 0.8836
vn -0.5119 -0.2522 -0.8212
vn -0.9702 -0.0321 0.2400
vn -0.9818 0.1390 -0.1293
vn 0.7775 0.0942 -0.6218
vn -0.1736 -0.2630 -0.9491
vn 0.1825 0.2719 0.9448
vn 0.2336 0.4157 0.8790
vn 0.8868 -0.1283 -0.4440
vn -0.9566 0.2879 -0.0459
vn 0.0973 0.2563 0.9617
vn -0.2549 0.0062 -0.9669
vn 0.2038 0.7002 -0.6843
vn 0.9569 -0.1596 -0.2425
vn -0.9856 0.1627 0.0461
vn -0.2202 -0.3397 -0.9144
vn -0.2371 0.1728 -0.9560
vn 0.1223 0.1242 0.9847
vn -0.9421 0.0173 0.3349
vn 0.9127 0.1417 -0.3833
vn 0.1219 0.6094 0.7835
vn -0.3688 -0.6602 -0.6543
vn 0.9048 -0.1650 -0.3926
vn -0.9975 0.0030 -0.0704
vn -0.9880 0.1399 -0.0660
vn -0.5548 0.0648 -0.8294
vn 0.1194 0.1345 0.9837
vn 0.8963 -0.0100 -0.4434
vn 0.9088 0.0212 -0.4167
vn -0.9761 0.0859 0.1996
vn -0.2191 -0.0764 -0.9727
vn 0.1751 -0.0714 0.9820
vn -0.7072 0.3020 -0.6393
vn 0.8978 0.3886 -0.2071
vn -0.5838 -0.2040 0.7858
vn 0.3316 0.0032 0.9434
vn -0.6357 0.4925 -0.5944
vn -0.6881 -0.4211 0.5909
vn 0.9015 0.3367 -0.2718
vn 0.3636 -0.5925 0.7189
vn 0.3227 0.0719 0.9438
vn -0.5598 0.0229 0.8283
vn 0.8736 0.1195 -0.4718
vn -0.6637 -0.0424 -0.7468
vn 0.6088 -0.5351 0.5857
vn -0.6199 0.5944 -0.5123
vn -0.8109 0.1975 0.5509
vn 0.8063 -0.2832 -0.5192
vn 0.8062 0.1715 -0.5663
vn -0.6010 0.1852 -0.7775
vn 0.5630 -0.1377 0.8149
vn 0.8474 -0.1933 -0.4946
vn -0.7945 0.1355 0.5920
vn -0.2112 0.9378 -0.2757
vn -0.5599 0.3389 -0.7561
vn 0.5518 -0.2992 0.7785
vn -0.7823 -0.1392 0.6071
vn -0.7549 0.3490 0.5552
vn 0.8204 -0.1049 -0.5621
vn 0.5379 -0.0289 0.8425
vn -0.5913 0.2149 -0.7773
vn 0.7703 0.2330 -0.5936
vn -0.6282 -0.1360 0.7660
vn -0.6524 0.4313 -0.6232
vn 0.3621 -0.1315 0.9228
vn -0.3982 0.2718 0.8761
vn -0.6219 0.2987 -0.7239
vn 0.8716 -0.3156 0.3752
vn 0.5816 -0.4150 -0.6996
vn 0.7852 -0.1417 -0.6029
vn -0.2878 0.4346 0.8534
vn 0.7240 0.0251 0.6893
vn -0.8857 -0.0366 -0.4627
vn -0.5907 0.4341 -0.6802
vn -0.5252 0.2291 0.8196
vn 0.6856 -0.1405 -0.7143
vn -0.6195 -0.2231 -0.7526
vn 0.8105 -0.0240 0.5853
vn 0.5272 0.8132 0.2463
vn -0.4847 0.2709 0.8317
vn 0.6186 -0.2268 -0.7523
vn 0.6908 -0.3546 0.6302
vn 0.6707 0.3608 0.6480
vn -0.7336 0.1317 -0.6667
vn 0.7066 0.0970 -0.7009
vn -0.6174 0.0304 0.7861
vn -0.5127 0.3860 -0.7669
vn 0.7685 -0.4718 0.4322
vn -0.2986 0.3934 0.8695
vn 0.6523 -0.4297 -0.6244
vn 0.8182 -0.0809 -0.5692
vn 0.9278 0.0975 0.3600
vn -0.7988 -0.0779 -0.5966
vn -0.5896 -0.0167 0.8075
vn 0.2873 0.1616 -0.9441
vn 0.7634 0.2595 0.5915
vn -0.9924 -0.0175 -0.1218
vn -0.6270 0.0861 0.7743
vn -0.1870 0.5686 -0.8011
vn -0.7497 -0.4756 -0.4601
vn 0.6211 0.4600 0.6345
vn -0.5584 -0.5209 0.6456
vn -0.6635 0.1855 0.7248
vn -0.9868 -0.0632 -0.1490
vn 0.8130 0.2940 0.5025
vn 0.2770 0.0516 -0.9595
vn 0.1003 -0.6799 0.7264
vn -0.1163 0.7508 -0.6502
vn -0.8756 -0.4452 -0.1875
vn 0.8613 0.0156 0.5079
vn 0.7091 0.3823 0.5925
vn 0.2102 0.5450 -0.8117
vn -0.3119 -0.4784 0.8208
vn 0.8934 -0.0308 0.4482
vn -0.9115 -0.0599 -0.4070
vn 0.1002 0.7123 -0.6947
vn -0.2138 -0.6082 0.7645
vn -0.8100 -0.2703 -0.5204
vn -0.9402 0.0829 -0.3305
vn 0.8650 0.0829 0.4948
vn -0.3561 -0.4692 0.8081
vn 0.2028 0.5688 -0.7971
vn 0.8975 0.1228 0.4236
vn -0.9712 -0.2287 0.0662
vn -0.2318 0.6024 -0.7638
vn 0.0829 -0.6584 0.7481
vt 0.181377 0.047716
vt 0.185033 0.046137
vt 0.186850 0.049519
vt 0.190707 0.044383
vt 0.197225 0.049333
vt 0.192573 0.051893
vt 0.192799 0.053817
vt 0.197354 0.049816
vt 0.198684 0.051537
vt 0.198089 0.049665
vt 0.200524 0.053175
vt 0.196877 0.050924
vt 0.191516 0.055910
vt 0.195035 0.057249
vt 0.190667 0.058186
vt 0.180669 0.045263
vt 0.183446 0.041114
vt 0.201421 0.050626
vt 0.199249 0.045614
vt 0.201871 0.045852
vt 0.192194 0.049831
vt 0.196704 0.045164
vt 0.195217 0.055185
vt 0.192214 0.050776
vt 0.194942 0.049840
vt 0.193727 0.062245
vt 0.188750 0.062989
vt 0.197341 0.057472
vt 0.196978 0.062550
vt 0.199160 0.055530
vt 0.192229 0.058273
vt 0.183196 0.052138
vt 0.189870 0.054046
vt 0.193298 0.045403
vt 0.188750 0.042898
vt 0.190113 0.041429
vt 0.181543 0.035115
vt 0.185266 0.033308
vt 0.184471 0.036308
vt 0.201418 0.040000
vt 0.199746 0.036091
vt 0.201535 0.036117
vt 0.194335 0.039867
vt 0.196389 0.036543
vt 0.196129 0.041775
vt 0.198352 0.030869
vt 0.198660 0.026350
vt 0.199160 0.031023
vt 0.186442 0.029262
vt 0.189066 0.026982
vt 0.187772 0.029946
vt 0.187736 0.053308
vt 0.186278 0.049772
vt 0.187076 0.049856
vt 0.197336 0.033857
vt 0.194255 0.036270
vt 0.198655 0.032874
vt 0.196877 0.029965
vt 0.197625 0.029816
vt 0.192359 0.068110
vt 0.192702 0.067774
vt 0.192705 0.068110
vt 0.188284 0.026686
vt 0.189870 0.023088
vt 0.187401 0.045145
vt 0.187736 0.045128
vt 0.197521 0.025291
vt 0.197824 0.025204
vt 0.193542 0.055238
vt 0.194914 0.052587
vt 0.194914 0.056109
vt 0.192769 0.044614
vt 0.199261 0.041161
vt 0.179949 0.040304
vt 0.190990 0.047556
vt 0.184470 0.061368
vt 0.188979 0.060182
vt 0.190123 0.064663
vt 0.189023 0.044125
vt 0.196380 0.040525
vt 0.197537 0.045789
vt 0.190473 0.058766
vt 0.194535 0.060234
vt 0.189059 0.062649
vt 0.193732 0.052461
vt 0.195583 0.047146
vt 0.196467 0.052839
vt 0.193463 0.056614
vt 0.195632 0.059831
vt 0.192711 0.062364
vt 0.187973 0.055809
vt 0.185455 0.051076
vt 0.188349 0.050800
vt 0.189459 0.055589
vt 0.191372 0.049027
vt 0.193745 0.054770
vt 0.196848 0.036376
vt 0.193800 0.029619
vt 0.197798 0.030235
vt 0.193524 0.048770
vt 0.191117 0.044103
vt 0.191552 0.043913
vt 0.185057 0.038261
vt 0.183478 0.034759
vt 0.184507 0.034246
vt 0.197146 0.033200
vt 0.198617 0.029586
vt 0.198278 0.033765
vt 0.197817 0.023833
vt 0.194609 0.023752
vt 0.188549 0.036082
vt 0.190868 0.032276
vt 0.190764 0.036309
vt 0.192786 0.028006
vt 0.192358 0.028065
vt 0.192371 0.027802
vt 0.181633 0.030413
vt 0.182037 0.030159
vt 0.197703 0.028973
vt 0.201443 0.025569
vt 0.189844 0.032038
vt 0.192740 0.028263
vt 0.187890 0.042655
vt 0.190832 0.042530
vt 0.192386 0.048850
vt 0.194346 0.052550
vt 0.191939 0.052689
vt 0.194281 0.039877
vt 0.196027 0.040156
vt 0.187418 0.044670
vt 0.183655 0.038729
vt 0.191374 0.035562
vt 0.195035 0.058591
vt 0.183884 0.056176
vt 0.196135 0.055812
vt 0.195899 0.062790
vt 0.192906 0.065149
vt 0.195337 0.063104
vt 0.189427 0.065649
vt 0.188168 0.046863
vt 0.197414 0.048626
vt 0.183996 0.064002
vt 0.190097 0.067136
vt 0.185365 0.044830
vt 0.193071 0.046637
vt 0.187739 0.049707
vt 0.194250 0.059711
vt 0.191117 0.059485
vt 0.182945 0.066832
vt 0.189964 0.070222
vt 0.188673 0.049740
vt 0.197254 0.050439
vt 0.194539 0.065845
vt 0.187739 0.068742
vt 0.196363 0.066170
vt 0.194154 0.066628
vt 0.196300 0.033365
vt 0.199261 0.042053
vt 0.194885 0.044117
vt 0.197817 0.053674
vt 0.192318 0.056052
vt 0.188293 0.052113
vt 0.187889 0.069459
vt 0.189097 0.071588
vt 0.181633 0.066736
vt 0.194684 0.069879
vt 0.198051 0.067046
vt 0.201077 0.066683
vt 0.199109 0.062631
vt 0.201443 0.061970
vt 0.188883 0.051369
vt 0.193039 0.027774
vt 0.191635 0.035473
vt 0.191635 0.025912
vt 0.191540 0.055099
vt 0.194645 0.050475
vt 0.193747 0.058915
vt 0.200609 0.070605
vt 0.195764 0.072324
vt 0.193888 0.067724
vt 0.200580 0.038652
vt 0.202880 0.036959
vt 0.202871 0.039210
vt 0.201740 0.034201
vt 0.203755 0.036454
vt 0.204022 0.041813
vt 0.201402 0.033365
vt 0.192616 0.052377
vt 0.197285 0.048443
vt 0.199237 0.054722
vt 0.193102 0.053957
vt 0.200571 0.046937
vt 0.201445 0.053957
vt 0.185778 0.054879
vt 0.192511 0.047891
vt 0.194468 0.054955
vt 0.191422 0.047063
vt 0.195950 0.051138
vt 0.189998 0.052424
vt 0.192075 0.033856
vt 0.194536 0.029486
vt 0.194770 0.034716
vt 0.190147 0.038034
vt 0.192328 0.043325
vt 0.189013 0.045337
vt 0.194584 0.043560
vt 0.191136 0.039113
vt 0.193751 0.039220
vt 0.191810 0.044367
vt 0.193897 0.038205
vt 0.196031 0.043936
vt 0.191778 0.043832
vt 0.188576 0.039111
vt 0.192151 0.039676
vt 0.190114 0.029081
vt 0.188389 0.023867
vt 0.188842 0.023752
vt 0.194830 0.033037
vt 0.194530 0.029803
vt 0.195554 0.029308
vt 0.189971 0.023183
vt 0.190019 0.019515
vt 0.191170 0.022918
vt 0.191942 0.037078
vt 0.188758 0.036789
vt 0.192069 0.031901
vt 0.191141 0.028572
vt 0.192140 0.028788
vt 0.192010 0.071001
vt 0.191577 0.071483
vt 0.191544 0.071040
vt 0.193811 0.024056
vt 0.194267 0.023921
vt 0.189013 0.019099
vt 0.190459 0.013701
vt 0.192656 0.023008
vt 0.190499 0.035781
vt 0.193273 0.035094
vt 0.189034 0.029404
vt 0.191810 0.032993
vt 0.189371 0.033087
vt 0.192111 0.027187
vt 0.193581 0.026264
vt 0.193493 0.036904
vt 0.193383 0.032794
vt 0.186075 0.048459
vt 0.195998 0.047717
vt 0.190800 0.045064
vt 0.193031 0.037737
vt 0.194310 0.048048
vt 0.190065 0.049981
vt 0.196642 0.055984
vt 0.189870 0.057398
vt 0.185472 0.059508
vt 0.195638 0.059508
vt 0.190800 0.057134
vt 0.198818 0.059416
vt 0.197541 0.054500
vt 0.201396 0.050470
vt 0.203638 0.054286
vt 0.197048 0.056574
vt 0.202478 0.052425
vt 0.200846 0.056325
vt 0.186542 0.046761
vt 0.191469 0.044395
vt 0.192651 0.047384
vt 0.199185 0.071896
vt 0.202264 0.074541
vt 0.198114 0.074506
vt 0.197771 0.044649
vt 0.200095 0.047583
vt 0.195790 0.047563
vt 0.197525 0.050968
vt 0.200259 0.048529
vt 0.201740 0.071110
vt 0.198039 0.068785
vt 0.200641 0.068647
vt 0.189312 0.041035
vt 0.193030 0.041436
vt 0.200559 0.044819
vt 0.198806 0.041681
vt 0.201477 0.041357
vt 0.196990 0.052494
vt 0.201167 0.052198
vt 0.200106 0.080308
vt 0.196439 0.079300
vt 0.188564 0.054021
vt 0.194335 0.052322
vt 0.203595 0.061453
vt 0.196543 0.060189
vt 0.201067 0.037175
vt 0.198349 0.034549
vt 0.199736 0.033965
vt 0.199570 0.043663
vt 0.198708 0.041213
vt 0.200293 0.041597
vt 0.197399 0.064644
vt 0.197749 0.061353
vt 0.199171 0.064050
vt 0.191186 0.036232
vt 0.194335 0.034344
vt 0.192695 0.037476
vt 0.193183 0.026714
vt 0.193525 0.023244
vt 0.193779 0.023104
vt 0.201608 0.038098
vt 0.202198 0.034080
vt 0.202703 0.034135
vt 0.196857 0.030787
vt 0.196274 0.026839
vt 0.197527 0.030688
vt 0.193471 0.030600
vt 0.192717 0.034251
vt 0.192770 0.030786
vt 0.196858 0.057515
vt 0.197488 0.053604
vt 0.197486 0.057693
vt 0.202364 0.030356
vt 0.202091 0.030466
vt 0.202086 0.030327
vt 0.202381 0.030507
vt 0.196006 0.023261
vt 0.196286 0.023233
vt 0.197047 0.053471
vt 0.196908 0.050115
vt 0.196439 0.061238
vt 0.192700 0.026846
vt 0.200889 0.037971
vt 0.197147 0.043615
vt 0.198737 0.037726
vt 0.196990 0.053612
vt 0.200308 0.048996
vt 0.201438 0.055127
vt 0.198291 0.055546
vt 0.202817 0.051301
vt 0.201671 0.055149
vt 0.181452 0.049033
vt 0.185141 0.044008
vt 0.186147 0.047730
vt 0.190744 0.048617
vt 0.193726 0.052204
vt 0.190039 0.051544
vt 0.192254 0.041041
vt 0.189595 0.037601
vt 0.191169 0.036617
vt 0.188728 0.044474
vt 0.190631 0.047625
vt 0.186866 0.048446
vt 0.198595 0.045138
vt 0.197552 0.042347
vt 0.199293 0.043455
vt 0.190005 0.044838
vt 0.190786 0.040941
vt 0.191920 0.044093
vt 0.185941 0.040520
vt 0.184906 0.037725
vt 0.186849 0.037130
vt 0.183620 0.028550
vt 0.184537 0.024594
vt 0.184372 0.028688
vt 0.202092 0.038613
vt 0.201542 0.034886
vt 0.202261 0.034582
vt 0.187029 0.033090
vt 0.187603 0.029541
vt 0.188290 0.033150
vt 0.184779 0.032514
vt 0.183420 0.032570
vt 0.194409 0.043613
vt 0.193281 0.040052
vt 0.193976 0.039898
vt 0.192359 0.068784
vt 0.192500 0.068937
vt 0.192360 0.068931
vt 0.200548 0.030452
vt 0.200697 0.030419
vt 0.186918 0.029239
vt 0.188712 0.025025
vt 0.193219 0.035473
vt 0.193356 0.035487
vt 0.193953 0.056078
vt 0.192731 0.052326
vt 0.193953 0.052205
vt 0.200723 0.038627
vt 0.181654 0.043089
vt 0.193219 0.048151
vt 0.195970 0.045510
vt 0.191333 0.044678
vt 0.190159 0.040890
vt 0.188309 0.052844
vt 0.192254 0.052106
vt 0.189183 0.055857
vt 0.192477 0.056594
vt 0.186849 0.052210
vt 0.182007 0.053893
vt 0.195192 0.058017
vt 0.202261 0.060126
vt 0.194344 0.070029
vt 0.198544 0.075048
vt 0.192515 0.072982
vt 0.192428 0.045056
vt 0.198227 0.052629
vt 0.192428 0.054150
vt 0.195011 0.046689
vt 0.198338 0.041597
vt 0.200262 0.043679
vt 0.200596 0.070767
vt 0.202271 0.075388
vt 0.198542 0.073629
vt 0.195932 0.050865
vt 0.200020 0.052845
vt 0.195496 0.053707
vt 0.196710 0.066094
vt 0.198518 0.071464
vt 0.201999 0.067870
vt 0.203681 0.071158
vt 0.195579 0.037130
vt 0.198341 0.036626
vt 0.187209 0.069086
vt 0.185942 0.065484
vt 0.188723 0.065246
vt 0.200008 0.057186
vt 0.195496 0.058952
vt 0.200638 0.079046
vt 0.195197 0.076370
vt 0.203208 0.048057
vt 0.197095 0.052017
vt 0.191250 0.075481
vt 0.199496 0.079052
vt 0.186361 0.061567
vt 0.185054 0.058676
vt 0.186271 0.058385
vt 0.197750 0.060546
vt 0.196823 0.057384
vt 0.198165 0.057625
vt 0.199500 0.062594
vt 0.196630 0.059966
vt 0.197728 0.059803
vt 0.198599 0.032402
vt 0.201776 0.030412
vt 0.199947 0.033387
vt 0.202524 0.025222
vt 0.202904 0.023031
vt 0.203208 0.022935
vt 0.198955 0.055419
vt 0.198728 0.052706
vt 0.199496 0.052750
vt 0.184337 0.056623
vt 0.184775 0.054465
vt 0.185293 0.056560
vt 0.202146 0.027853
vt 0.200501 0.030054
vt 0.201122 0.027911
vt 0.197108 0.057538
vt 0.195799 0.054813
vt 0.196495 0.054860
vt 0.198988 0.050025
vt 0.198692 0.050212
vt 0.198682 0.050017
vt 0.199012 0.050237
vt 0.184664 0.052347
vt 0.184971 0.052338
vt 0.195472 0.052745
vt 0.196183 0.057492
vt 0.201765 0.025272
vt 0.197928 0.055299
vt 0.200314 0.066620
vt 0.195762 0.060458
vt 0.198168 0.044383
vt 0.183317 0.032351
vt 0.198330 0.026277
vt 0.186352 0.053420
vt 0.198598 0.034480
vt 0.197498 0.033554
vt 0.192382 0.067761
vt 0.189555 0.022936
vt 0.193997 0.051917
vt 0.184223 0.059652
vt 0.189964 0.039908
vt 0.201092 0.025267
vt 0.197521 0.056432
vt 0.196638 0.066215
vt 0.197323 0.051444
vt 0.192581 0.035451
vt 0.191540 0.046561
vt 0.192331 0.048954
vt 0.196552 0.044386
vt 0.192256 0.029785
vt 0.190796 0.039127
vt 0.186288 0.043361
vt 0.189870 0.032072
vt 0.192009 0.071483
vt 0.190023 0.013613
vt 0.192239 0.022936
vt 0.191692 0.035983
vt 0.197048 0.049403
vt 0.187837 0.042942
vt 0.196543 0.048199
vt 0.195790 0.026880
vt 0.196680 0.049981
vt 0.196743 0.049561
vt 0.198291 0.048170
vt 0.189183 0.040379
vt 0.183502 0.039477
vt 0.184387 0.024614
vt 0.193184 0.043613
vt 0.192511 0.068784
vt 0.188570 0.024987
vt 0.192257 0.056275
vt 0.199006 0.047797
vt 0.193989 0.042298
vt 0.198841 0.049501
vt 0.194174 0.066076
vt 0.184046 0.069134
vt 0.184430 0.062117
vt 0.197816 0.063079
vt 0.184046 0.054491
vt 0.195197 0.052661
s 0
usemtl Material
f 11/1/1 6/2/1 9/3/1
f 2/4/2 4/5/2 1/6/2
f 9/7/3 8/8/3 10/9/3
f 7/10/4 11/11/4 12/12/4
f 8/13/5 12/14/5 10/15/5
f 5/16/6 16/17/6 6/2/6
f 5/18/7 17/19/7 13/20/7
f 6/21/8 18/22/8 8/8/8
f 7/23/9 18/24/9 17/25/9
f 10/15/10 4/26/10 3/27/10
f 4/26/11 11/28/11 1/29/11
f 9/7/12 3/30/12 2/31/12
f 1/32/13 9/3/13 2/33/13
f 33/34/14 23/35/14 15/36/14
f 34/37/15 22/38/15 36/39/15
f 34/40/16 15/41/16 19/42/16
f 36/43/17 23/44/17 35/45/17
f 21/46/18 28/47/18 24/48/18
f 31/49/19 21/50/19 30/51/19
f 29/52/20 24/53/20 14/54/20
f 30/55/21 23/44/21 22/56/21
f 31/57/22 14/58/22 20/59/22
f 27/60/23 25/61/23 28/62/23
f 20/63/24 27/64/24 21/50/24
f 14/54/25 28/65/25 25/66/25
f 20/59/26 25/67/26 26/68/26
f 15/41/27 31/57/27 19/42/27
f 24/48/28 30/55/28 21/46/28
f 23/69/29 29/70/29 15/71/29
f 22/38/30 31/49/30 30/51/30
f 16/72/31 35/45/31 18/22/31
f 13/20/32 33/73/32 34/40/32
f 13/74/33 36/39/33 16/17/33
f 17/25/34 35/75/34 33/34/34
f 63/76/35 40/77/35 61/78/35
f 61/79/36 42/80/36 62/81/36
f 41/82/37 63/83/37 64/84/37
f 59/85/38 39/86/38 57/87/38
f 42/88/39 64/89/39 62/90/39
f 60/91/40 43/92/40 46/93/40
f 57/94/41 43/95/41 58/96/41
f 59/97/42 46/98/42 47/99/42
f 48/100/43 51/101/43 52/102/43
f 54/103/44 44/104/44 45/105/44
f 56/106/45 38/107/45 53/108/45
f 68/109/46 46/98/46 65/110/46
f 53/111/47 44/112/47 55/113/47
f 51/114/48 49/115/48 52/116/48
f 45/105/49 50/117/49 51/118/49
f 48/119/50 49/120/50 38/107/50
f 38/121/51 50/122/51 44/112/51
f 66/123/52 55/113/52 67/124/52
f 45/125/53 56/126/53 54/127/53
f 68/128/54 53/108/54 66/129/54
f 65/130/55 55/131/55 54/103/55
f 42/80/56 60/132/56 59/97/56
f 41/82/57 58/96/57 37/133/57
f 40/77/58 58/134/58 60/91/58
f 42/88/59 57/87/59 41/135/59
f 62/90/60 71/136/60 70/137/60
f 64/84/61 72/138/61 71/139/61
f 69/140/62 62/81/62 70/141/62
f 72/142/63 61/78/63 69/143/63
f 46/93/64 67/144/64 65/130/64
f 47/145/65 66/129/65 39/86/65
f 39/146/66 67/124/66 43/95/66
f 54/127/67 68/147/67 65/148/67
f 76/149/68 69/143/68 73/150/68
f 73/151/69 70/141/69 74/152/69
f 71/139/70 76/153/70 75/154/70
f 70/137/71 75/155/71 74/156/71
f 78/157/72 90/158/72 77/159/72
f 80/160/73 91/161/73 78/162/73
f 76/153/74 83/163/74 75/154/74
f 76/149/75 79/164/75 84/165/75
f 80/166/76 83/167/76 82/168/76
f 82/168/77 84/169/77 77/170/77
f 79/171/78 80/160/78 78/162/78
f 84/172/79 78/173/79 77/174/79
f 82/175/80 90/176/80 88/177/80
f 80/166/81 88/178/81 92/179/81
f 74/152/82 79/171/82 73/151/82
f 75/155/83 81/180/83 74/156/83
f 85/181/2 89/182/2 87/183/2
f 86/184/2 92/185/2 89/182/2
f 87/183/2 90/158/2 85/181/2
f 87/183/2 92/185/2 88/186/2
f 85/181/2 91/187/2 86/184/2
f 123/188/84 100/189/84 121/190/84
f 94/191/2 96/192/2 93/193/2
f 121/194/85 102/195/85 122/196/85
f 101/197/86 123/198/86 124/199/86
f 119/200/87 99/201/87 117/202/87
f 102/203/88 124/204/88 122/205/88
f 120/206/89 103/207/89 106/208/89
f 117/209/90 103/210/90 118/211/90
f 119/212/91 106/213/91 107/214/91
f 108/215/92 111/216/92 112/217/92
f 114/218/93 104/219/93 105/220/93
f 116/221/94 98/222/94 113/223/94
f 128/224/95 106/213/95 125/225/95
f 115/226/96 98/227/96 104/228/96
f 111/229/97 109/230/97 112/231/97
f 105/220/98 110/232/98 111/233/98
f 108/234/99 109/235/99 98/222/99
f 98/227/100 110/236/100 104/228/100
f 126/237/101 115/226/101 127/238/101
f 105/239/102 116/240/102 114/241/102
f 128/242/103 113/223/103 126/243/103
f 125/244/104 115/245/104 114/218/104
f 100/246/105 119/212/105 102/195/105
f 101/197/106 118/211/106 97/247/106
f 100/189/107 118/248/107 120/206/107
f 101/249/108 119/200/108 117/202/108
f 122/205/109 96/250/109 95/251/109
f 124/199/110 93/252/110 96/253/110
f 94/254/111 122/196/111 95/255/111
f 93/256/112 121/190/112 94/257/112
f 103/207/113 125/244/113 106/208/113
f 99/201/114 128/242/114 126/243/114
f 103/210/115 126/237/115 127/238/115
f 114/241/116 128/224/116 125/225/116
f 139/258/117 134/259/117 137/260/117
f 129/261/2 131/262/2 132/263/2
f 137/264/118 136/265/118 138/266/118
f 135/267/119 139/268/119 140/269/119
f 136/270/120 140/271/120 138/272/120
f 133/273/121 144/274/121 134/259/121
f 133/275/122 145/276/122 141/277/122
f 136/265/123 144/278/123 146/279/123
f 135/280/124 146/281/124 145/282/124
f 131/283/125 140/271/125 132/284/125
f 140/269/126 129/285/126 132/286/126
f 130/287/127 138/266/127 131/288/127
f 139/258/128 130/289/128 129/290/128
f 161/291/129 151/292/129 143/293/129
f 164/294/130 147/295/130 150/296/130
f 161/297/131 147/298/131 162/299/131
f 164/300/132 151/301/132 163/302/132
f 152/303/133 155/304/133 156/305/133
f 158/306/134 148/307/134 149/308/134
f 160/309/135 142/310/135 157/311/135
f 160/312/136 150/313/136 158/314/136
f 157/315/137 148/316/137 159/317/137
f 156/318/138 154/319/138 153/320/138
f 148/307/139 155/321/139 149/308/139
f 142/310/140 156/322/140 153/323/140
f 142/324/141 154/325/141 148/316/141
f 143/326/142 159/317/142 147/298/142
f 149/327/143 160/312/143 158/314/143
f 151/292/144 157/311/144 143/293/144
f 150/296/145 159/328/145 158/306/145
f 144/278/146 163/302/146 146/279/146
f 141/277/147 161/297/147 162/299/147
f 144/274/148 162/329/148 164/294/148
f 145/282/149 163/330/149 161/291/149
f 195/331/150 172/332/150 193/333/150
f 165/334/2 167/335/2 168/336/2
f 193/337/151 174/338/151 194/339/151
f 173/340/152 195/341/152 196/342/152
f 189/343/153 179/344/153 171/345/153
f 174/346/154 196/347/154 194/348/154
f 192/349/155 175/350/155 178/351/155
f 189/352/156 175/353/156 190/354/156
f 191/355/157 178/356/157 179/357/157
f 177/358/158 184/359/158 180/360/158
f 186/361/159 176/362/159 177/363/159
f 188/364/160 170/365/160 185/366/160
f 188/367/161 178/356/161 186/368/161
f 187/369/162 170/370/162 176/371/162
f 184/372/163 182/373/163 181/374/163
f 177/363/164 182/375/164 183/376/164
f 180/377/165 181/378/165 170/365/165
f 176/371/166 181/379/166 182/380/166
f 175/381/167 185/382/167 187/383/167
f 180/360/168 186/368/168 177/358/168
f 179/344/169 185/366/169 171/345/169
f 178/351/170 187/384/170 186/361/170
f 172/385/171 191/355/171 174/338/171
f 169/386/172 189/352/172 190/354/172
f 172/332/173 190/387/173 192/349/173
f 173/388/174 191/389/174 189/343/174
f 167/390/175 196/347/175 168/391/175
f 168/392/176 195/341/176 165/393/176
f 193/337/177 167/394/177 166/395/177
f 165/396/178 193/333/178 166/397/178
f 201/398/179 205/399/179 207/400/179
f 198/401/2 200/402/2 197/403/2
f 205/404/180 204/405/180 206/406/180
f 203/407/181 207/408/181 208/409/181
f 204/410/182 208/411/182 206/412/182
f 201/398/183 212/413/183 202/414/183
f 203/407/184 209/415/184 201/416/184
f 204/405/185 212/417/185 214/418/185
f 203/419/186 214/420/186 213/421/186
f 206/412/187 200/422/187 199/423/187
f 208/409/188 197/424/188 200/425/188
f 205/404/189 199/426/189 198/427/189
f 197/428/190 205/399/190 198/429/190
f 229/430/191 219/431/191 211/432/191
f 232/433/192 215/434/192 218/435/192
f 230/436/193 211/437/193 215/438/193
f 232/439/194 219/440/194 231/441/194
f 220/442/195 223/443/195 224/444/195
f 226/445/196 216/446/196 217/447/196
f 228/448/197 210/449/197 225/450/197
f 228/451/198 218/452/198 226/453/198
f 227/454/199 210/455/199 216/456/199
f 224/457/200 222/458/200 221/459/200
f 216/446/201 223/460/201 217/447/201
f 210/449/202 224/461/202 221/462/202
f 210/455/203 222/463/203 216/456/203
f 215/438/204 225/464/204 227/454/204
f 220/442/205 226/453/205 217/465/205
f 219/431/206 225/450/206 211/432/206
f 218/435/207 227/466/207 226/445/207
f 214/418/208 232/439/208 231/441/208
f 213/467/209 230/436/209 209/415/209
f 212/413/210 230/468/210 232/433/210
f 214/420/211 229/430/211 213/421/211
f 11/1/212 5/16/212 6/2/212
f 2/4/2 3/469/2 4/5/2
f 9/7/213 6/21/213 8/8/213
f 7/10/214 5/18/214 11/11/214
f 8/13/215 7/23/215 12/14/215
f 5/16/216 13/74/216 16/17/216
f 5/18/217 7/10/217 17/19/217
f 6/21/218 16/72/218 18/22/218
f 7/23/219 8/13/219 18/24/219
f 10/15/220 12/14/220 4/26/220
f 4/26/221 12/14/221 11/28/221
f 9/7/222 10/9/222 3/30/222
f 1/32/223 11/1/223 9/3/223
f 33/34/224 35/75/224 23/35/224
f 34/37/225 19/470/225 22/38/225
f 34/40/226 33/73/226 15/41/226
f 36/43/227 22/56/227 23/44/227
f 21/46/228 27/471/228 28/47/228
f 31/49/229 20/63/229 21/50/229
f 29/52/230 32/472/230 24/53/230
f 30/55/231 32/473/231 23/44/231
f 31/57/232 29/474/232 14/58/232
f 27/60/23 26/475/23 25/61/23
f 20/63/233 26/476/233 27/64/233
f 14/54/234 24/53/234 28/65/234
f 20/59/235 14/58/235 25/67/235
f 15/41/236 29/474/236 31/57/236
f 24/48/237 32/473/237 30/55/237
f 23/69/238 32/477/238 29/70/238
f 22/38/239 19/470/239 31/49/239
f 16/72/240 36/43/240 35/45/240
f 13/20/241 17/19/241 33/73/241
f 13/74/242 34/37/242 36/39/242
f 17/25/243 18/24/243 35/75/243
f 63/76/244 37/478/244 40/77/244
f 61/79/245 40/479/245 42/80/245
f 41/82/246 37/133/246 63/83/246
f 59/85/247 47/145/247 39/86/247
f 42/88/248 41/135/248 64/89/248
f 60/91/249 58/134/249 43/92/249
f 57/94/250 39/146/250 43/95/250
f 59/97/251 60/132/251 46/98/251
f 48/100/252 45/125/252 51/101/252
f 54/103/253 55/131/253 44/104/253
f 56/106/254 48/119/254 38/107/254
f 68/109/255 47/99/255 46/98/255
f 53/111/256 38/121/256 44/112/256
f 51/114/48 50/122/48 49/115/48
f 45/105/257 44/104/257 50/117/257
f 48/119/258 52/480/258 49/120/258
f 38/121/259 49/115/259 50/122/259
f 66/123/260 53/111/260 55/113/260
f 45/125/261 48/100/261 56/126/261
f 68/128/262 56/106/262 53/108/262
f 65/130/263 67/144/263 55/131/263
f 42/80/264 40/479/264 60/132/264
f 41/82/265 57/94/265 58/96/265
f 40/77/266 37/478/266 58/134/266
f 42/88/267 59/85/267 57/87/267
f 62/90/268 64/89/268 71/136/268
f 64/84/269 63/83/269 72/138/269
f 69/140/270 61/79/270 62/81/270
f 72/142/271 63/76/271 61/78/271
f 46/93/272 43/92/272 67/144/272
f 47/145/273 68/128/273 66/129/273
f 39/146/274 66/123/274 67/124/274
f 54/127/275 56/126/275 68/147/275
f 76/149/276 72/142/276 69/143/276
f 73/151/277 69/140/277 70/141/277
f 71/139/278 72/138/278 76/153/278
f 70/137/279 71/136/279 75/155/279
f 78/157/280 91/187/280 90/158/280
f 80/160/281 92/481/281 91/161/281
f 76/153/282 84/482/282 83/163/282
f 76/149/283 73/150/283 79/164/283
f 80/166/284 81/180/284 83/167/284
f 82/168/285 83/167/285 84/169/285
f 79/171/286 81/483/286 80/160/286
f 84/172/287 79/484/287 78/173/287
f 82/175/288 77/485/288 90/176/288
f 80/166/289 82/168/289 88/178/289
f 74/152/290 81/483/290 79/171/290
f 75/155/291 83/167/291 81/180/291
f 85/181/2 86/184/2 89/182/2
f 86/184/2 91/187/2 92/185/2
f 87/183/2 88/186/2 90/158/2
f 87/183/2 89/182/2 92/185/2
f 85/181/2 90/158/2 91/187/2
f 123/188/292 97/486/292 100/189/292
f 94/191/2 95/487/2 96/192/2
f 121/194/293 100/246/293 102/195/293
f 101/197/294 97/247/294 123/198/294
f 119/200/295 107/488/295 99/201/295
f 102/203/296 101/249/296 124/204/296
f 120/206/297 118/248/297 103/207/297
f 117/209/298 99/489/298 103/210/298
f 119/212/299 120/490/299 106/213/299
f 108/215/300 105/239/300 111/216/300
f 114/218/301 115/245/301 104/219/301
f 116/221/302 108/234/302 98/222/302
f 128/224/303 107/214/303 106/213/303
f 115/226/304 113/491/304 98/227/304
f 111/229/305 110/492/305 109/230/305
f 105/220/306 104/219/306 110/232/306
f 108/234/307 112/493/307 109/235/307
f 98/227/308 109/494/308 110/236/308
f 126/237/309 113/491/309 115/226/309
f 105/239/310 108/215/310 116/240/310
f 128/242/311 116/221/311 113/223/311
f 125/244/312 127/495/312 115/245/312
f 100/246/313 120/490/313 119/212/313
f 101/197/314 117/209/314 118/211/314
f 100/189/315 97/486/315 118/248/315
f 101/249/316 102/203/316 119/200/316
f 122/205/317 124/204/317 96/250/317
f 124/199/318 123/198/318 93/252/318
f 94/254/319 121/194/319 122/196/319
f 93/256/320 123/188/320 121/190/320
f 103/207/321 127/495/321 125/244/321
f 99/201/322 107/488/322 128/242/322
f 103/210/323 99/489/323 126/237/323
f 114/241/324 116/240/324 128/224/324
f 139/258/325 133/273/325 134/259/325
f 129/261/2 130/496/2 131/262/2
f 137/264/326 134/497/326 136/265/326
f 135/267/327 133/275/327 139/268/327
f 136/270/328 135/280/328 140/271/328
f 133/273/329 141/498/329 144/274/329
f 133/275/330 135/267/330 145/276/330
f 136/265/331 134/497/331 144/278/331
f 135/280/332 136/270/332 146/281/332
f 131/283/333 138/272/333 140/271/333
f 140/269/334 139/268/334 129/285/334
f 130/287/335 137/264/335 138/266/335
f 139/258/336 137/260/336 130/289/336
f 161/291/337 163/330/337 151/292/337
f 164/294/338 162/329/338 147/295/338
f 161/297/339 143/326/339 147/298/339
f 164/300/340 150/313/340 151/301/340
f 152/303/341 149/327/341 155/304/341
f 158/306/342 159/328/342 148/307/342
f 160/309/343 152/499/343 142/310/343
f 160/312/344 151/301/344 150/313/344
f 157/315/345 142/324/345 148/316/345
f 156/318/346 155/321/346 154/319/346
f 148/307/347 154/319/347 155/321/347
f 142/310/348 152/499/348 156/322/348
f 142/324/349 153/500/349 154/325/349
f 143/326/350 157/315/350 159/317/350
f 149/327/351 152/303/351 160/312/351
f 151/292/352 160/309/352 157/311/352
f 150/296/353 147/295/353 159/328/353
f 144/278/354 164/300/354 163/302/354
f 141/277/355 145/276/355 161/297/355
f 144/274/356 141/498/356 162/329/356
f 145/282/357 146/281/357 163/330/357
f 195/331/358 169/501/358 172/332/358
f 165/334/2 166/502/2 167/335/2
f 193/337/359 172/385/359 174/338/359
f 173/340/360 169/386/360 195/341/360
f 189/343/361 191/389/361 179/344/361
f 174/346/362 173/388/362 196/347/362
f 192/349/363 190/387/363 175/350/363
f 189/352/364 171/503/364 175/353/364
f 191/355/365 192/504/365 178/356/365
f 177/358/366 183/505/366 184/359/366
f 186/361/367 187/384/367 176/362/367
f 188/364/368 180/377/368 170/365/368
f 188/367/369 179/357/369 178/356/369
f 187/369/370 185/506/370 170/370/370
f 184/372/371 183/507/371 182/373/371
f 177/363/372 176/362/372 182/375/372
f 180/377/373 184/508/373 181/378/373
f 176/371/374 170/370/374 181/379/374
f 175/381/375 171/509/375 185/382/375
f 180/360/376 188/367/376 186/368/376
f 179/344/377 188/364/377 185/366/377
f 178/351/378 175/350/378 187/384/378
f 172/385/379 192/504/379 191/355/379
f 169/386/380 173/340/380 189/352/380
f 172/332/381 169/501/381 190/387/381
f 173/388/382 174/346/382 191/389/382
f 167/390/383 194/348/383 196/347/383
f 168/392/384 196/342/384 195/341/384
f 193/337/385 194/339/385 167/394/385
f 165/396/386 195/331/386 193/333/386
f 201/398/387 202/414/387 205/399/387
f 198/401/2 199/510/2 200/402/2
f 205/404/388 202/511/388 204/405/388
f 203/407/389 201/416/389 207/408/389
f 204/410/390 203/512/390 208/411/390
f 201/398/391 209/513/391 212/413/391
f 203/407/392 213/467/392 209/415/392
f 204/405/393 202/511/393 212/417/393
f 203/419/394 204/514/394 214/420/394
f 206/412/395 208/411/395 200/422/395
f 208/409/396 207/408/396 197/424/396
f 205/404/397 206/406/397 199/426/397
f 197/428/398 207/400/398 205/399/398
f 229/430/399 231/515/399 219/431/399
f 232/433/400 230/468/400 215/434/400
f 230/436/401 229/516/401 211/437/401
f 232/439/402 218/452/402 219/440/402
f 220/442/403 217/465/403 223/443/403
f 226/445/404 227/466/404 216/446/404
f 228/448/405 220/517/405 210/449/405
f 228/451/406 219/440/406 218/452/406
f 227/454/407 225/464/407 210/455/407
f 224/457/200 223/460/200 222/458/200
f 216/446/408 222/458/408 223/460/408
f 210/449/409 220/517/409 224/461/409
f 210/455/410 221/518/410 222/463/410
f 215/438/411 211/437/411 225/464/411
f 220/442/412 228/451/412 226/453/412
f 219/431/413 228/448/413 225/450/413
f 218/435/414 215/434/414 227/466/414
f 214/418/415 212/417/415 232/439/415
f 213/467/416 229/516/416 230/436/416
f 212/413/417 209/513/417 230/468/417
f 214/420/418 231/515/418 229/430/418
