# Blender 4.2.1 LTS
# www.blender.org
mtllib grass_green_6.mtl
g grass_green_6_Mesh
v -0.070097 -0.025621 -0.028934
v -0.063663 -0.029267 0.026379
v -0.104977 -0.005853 0.008352
v -0.096870 -0.010447 -0.023320
v -0.048545 0.068314 -0.032688
v -0.043126 0.078426 -0.003717
v -0.068161 0.062717 -0.024223
v -0.072830 0.069507 -0.003448
v -0.038960 0.041214 0.017254
v -0.086523 0.044371 0.013793
v -0.047502 0.031249 -0.028964
v -0.078421 0.036284 -0.018471
v -0.055788 0.097069 -0.042576
v -0.064762 0.256265 -0.013061
v -0.079737 0.179129 -0.032830
v -0.051609 0.098517 -0.013847
v -0.075405 0.098643 -0.036543
v -0.080565 0.100174 -0.016127
v -0.069580 0.175851 -0.032014
v -0.061478 0.254228 -0.013116
v -0.061252 0.254381 -0.009169
v -0.069480 0.174238 -0.019369
v -0.081912 0.175502 -0.021645
v -0.064813 0.256577 -0.009271
v -0.064634 0.293841 -0.017634
v -0.062992 0.292101 -0.017587
v -0.062980 0.292112 -0.015301
v -0.064756 0.293992 -0.015446
v -0.071011 0.215236 -0.018733
v -0.066197 0.212206 -0.013106
v -0.066319 0.212453 -0.018790
v -0.071354 0.215278 -0.013470
v -0.076442 0.143067 -0.038718
v -0.062500 0.147100 -0.042145
v -0.073106 0.140306 -0.019581
v -0.059771 0.149788 -0.023588
v -0.007684 0.040763 -0.007373
v 0.034594 0.214977 -0.086252
v -0.011270 0.130198 -0.017813
v 0.008597 0.047174 0.014807
v -0.025677 0.063491 0.002516
v -0.024463 0.070627 0.018863
v 0.006653 0.116530 -0.024587
v 0.037946 0.208316 -0.087577
v 0.043485 0.212228 -0.085187
v 0.017644 0.124674 -0.012898
v -0.003107 0.138908 -0.007094
v 0.039633 0.219271 -0.083851
v 0.046202 0.219403 -0.114019
v 0.047604 0.216564 -0.113638
v 0.049806 0.218620 -0.112820
v 0.048199 0.221606 -0.113266
v 0.019318 0.198793 -0.070990
v 0.035346 0.191237 -0.069019
v 0.028568 0.186787 -0.073181
v 0.024524 0.203744 -0.067312
v -0.022711 0.086017 -0.006850
v -0.004279 0.068292 -0.018348
v -0.015828 0.096713 0.005725
v 0.012447 0.076917 -0.002487
v 0.003205 0.021014 0.034102
v -0.043141 0.046711 0.040858
v -0.012498 0.034838 0.000396
v -0.040456 0.049169 0.018200
v 0.028120 0.160053 -0.037028
v 0.006746 0.169074 -0.040760
v 0.019969 0.155461 -0.045180
v 0.012650 0.174065 -0.033197
v -0.000155 0.000788 0.040740
v -0.050364 0.028959 0.047949
v -0.047853 0.029526 0.025328
v -0.018210 0.013482 0.005835
v -0.009930 -0.013221 0.051646
v -0.055805 0.014725 0.045766
v -0.065104 0.018995 0.034814
v -0.031271 0.000241 0.012243
v -0.028979 -0.024799 -0.012069
v -0.016009 -0.032150 0.049841
v -0.016093 -0.023558 0.052328
v -0.067649 -0.002883 0.053226
v -0.058533 0.009718 0.050428
v -0.070927 -0.006945 0.011298
v -0.072322 0.010487 0.029269
v -0.029411 -0.016009 0.002496
v -0.051791 -0.035995 0.030481
v -0.051531 -0.036143 0.058398
v -0.073495 -0.023695 0.036679
v -0.089916 -0.014388 0.027628
v -0.068222 -0.026683 0.048495
v -0.048140 -0.038065 0.007434
v -0.046539 -0.038972 0.061429
v -0.074804 -0.022953 0.054614
v -0.020228 -0.053884 0.034051
v -0.058782 -0.032034 -0.009199
v -0.012522 -0.058252 -0.038283
v -0.000585 -0.065017 -0.001306
v 0.023023 0.011152 0.036388
v -0.000760 0.031077 0.007285
v 0.033444 -0.008682 0.014223
v 0.022657 -0.004049 -0.012826
v -0.022979 -0.003188 0.001867
v 0.015952 -0.025805 -0.022936
v 0.009583 -0.017615 0.036814
v 0.027754 -0.029385 0.009672
v 0.051949 0.055478 0.029921
v 0.116779 0.133609 -0.065979
v 0.095489 0.113242 -0.018938
v 0.033263 0.066803 0.006760
v 0.058522 0.036051 0.014843
v 0.049406 0.035451 -0.005667
v 0.086438 0.125663 -0.013602
v 0.113542 0.139996 -0.064442
v 0.109475 0.138704 -0.069425
v 0.074496 0.122822 -0.025450
v 0.085045 0.105729 -0.029137
v 0.113142 0.131850 -0.070883
v 0.131188 0.173681 -0.082890
v 0.129778 0.176401 -0.082546
v 0.128040 0.175323 -0.084481
v 0.129637 0.172426 -0.084774
v 0.106242 0.112959 -0.044437
v 0.094322 0.121638 -0.052663
v 0.102091 0.125944 -0.044590
v 0.099460 0.107716 -0.051889
v 0.081738 0.072377 0.002592
v 0.077179 0.097095 0.005825
v 0.061689 0.066104 -0.012573
v 0.060941 0.093576 -0.012590
v 0.001404 -0.066144 0.069695
v -0.057543 -0.032736 0.058901
v -0.021757 -0.053017 -0.010010
v 0.003605 -0.067391 0.014744
v 0.030699 0.011049 0.076659
v 0.115762 0.183016 0.070776
v 0.093263 0.073869 0.057055
v 0.003341 0.047460 0.071908
v 0.041166 0.021867 0.042931
v 0.028520 0.039493 0.028823
v 0.085864 0.083732 0.080314
v 0.111201 0.181847 0.077402
v 0.107511 0.192541 0.076171
v 0.070148 0.099745 0.075051
v 0.080228 0.087758 0.050286
v 0.112595 0.193368 0.069057
v 0.142600 0.225146 0.090183
v 0.140724 0.224860 0.092965
v 0.138771 0.228904 0.091886
v 0.140948 0.228889 0.088973
v 0.110628 0.147807 0.057540
v 0.094551 0.157129 0.071886
v 0.104422 0.149708 0.073559
v 0.102608 0.154387 0.054806
v 0.064429 0.032772 0.054365
v 0.057308 0.033275 0.086642
v 0.056545 0.058251 0.046206
v 0.041421 0.070310 0.085295
v -0.037319 0.008404 0.060266
v -0.007156 -0.009453 0.001225
v 0.013536 -0.015395 0.069636
v 0.015295 -0.016857 0.021276
v 0.082726 0.117064 0.077134
v 0.105077 0.105244 0.059562
v 0.097861 0.112917 0.080137
v 0.092301 0.108715 0.055044
v -0.082174 -0.018776 0.050008
v -0.033525 -0.046348 0.027576
v -0.041494 -0.041831 0.069489
v -0.070078 -0.025631 0.072986
v -0.058682 0.064056 0.063135
v 0.004647 0.188582 0.107873
v -0.034388 0.121629 0.110294
v -0.031870 0.066517 0.054892
v -0.050325 0.049035 0.077322
v -0.030190 0.044622 0.077777
v -0.036676 0.122630 0.097062
v 0.003579 0.192499 0.103270
v 0.009435 0.194487 0.102664
v -0.024923 0.108613 0.092671
v -0.024165 0.108002 0.108554
v 0.010350 0.190170 0.107667
v 0.004308 0.234074 0.121317
v 0.004145 0.234395 0.120266
v 0.005318 0.234514 0.120073
v 0.005447 0.234163 0.121218
v -0.006852 0.153895 0.103083
v 0.001458 0.156563 0.091373
v -0.008751 0.158088 0.094199
v 0.002774 0.152077 0.101331
v -0.050587 0.082998 0.095529
v -0.055349 0.098190 0.085170
v -0.034465 0.079936 0.094209
v -0.035583 0.099386 0.079311
v -0.033109 0.005881 0.036997
v -0.022935 -0.000368 0.073499
v -0.064362 0.027108 0.048086
v -0.050135 0.017762 0.072993
v -0.015093 -0.056794 -0.029949
v -0.067866 -0.026885 0.011677
v -0.081342 -0.019248 -0.043528
v -0.049827 -0.037109 -0.060589
v 0.007501 0.026124 -0.037651
v -0.016717 0.045346 -0.017764
v -0.011217 0.024859 -0.053226
v -0.033834 0.036416 -0.046927
v -0.035787 0.010727 -0.003485
v -0.052383 0.019602 -0.047025
v -0.002527 -0.018591 -0.033115
v -0.024146 -0.007748 -0.055852
v 0.009996 0.046257 -0.064489
v -0.006822 0.152308 -0.142839
v -0.007028 0.105156 -0.122186
v 0.000652 0.066991 -0.055310
v 0.005763 0.051125 -0.080669
v -0.011983 0.064422 -0.073017
v -0.001786 0.109932 -0.116104
v -0.003508 0.153794 -0.138630
v -0.007530 0.158820 -0.136251
v -0.009395 0.117381 -0.111129
v -0.015187 0.109256 -0.117669
v -0.010948 0.157008 -0.140900
v -0.003103 0.167144 -0.157214
v -0.002011 0.167249 -0.155204
v -0.003792 0.169211 -0.154222
v -0.004900 0.169018 -0.156435
v -0.008578 0.128879 -0.131139
v -0.009820 0.137167 -0.122148
v -0.004153 0.131003 -0.125595
v -0.014249 0.134375 -0.128489
v -0.009084 0.083036 -0.101136
v 0.004603 0.087955 -0.097313
v -0.018429 0.096054 -0.092088
v -0.005043 0.101781 -0.090901
vn 0.9831 0.0068 -0.1832
vn -0.4931 -0.8700 -0.0000
vn -0.0215 0.5735 0.8189
vn -0.3315 -0.0759 -0.9404
vn -0.9089 0.2889 -0.3006
vn 0.9290 0.2591 -0.2642
vn -0.2755 -0.3739 -0.8856
vn -0.0518 0.3704 0.9274
vn -0.9396 -0.2641 -0.2176
vn -0.8825 0.3775 -0.2806
vn -0.1210 0.1496 -0.9813
vn -0.3806 0.0398 0.9239
vn 0.9213 -0.3661 -0.1313
vn -0.9766 -0.0553 -0.2079
vn 0.9310 0.3630 0.0390
vn -0.2989 0.2509 -0.9207
vn -0.1788 0.0129 0.9838
vn 0.0915 0.1620 0.9825
vn 0.9924 -0.1115 -0.0525
vn -0.9851 0.1591 -0.0654
vn -0.1923 -0.1435 0.9708
vn 0.0634 0.1271 -0.9899
vn 0.7273 0.6863 -0.0069
vn 0.9976 0.0362 -0.0585
vn -0.9985 -0.0033 -0.0555
vn -0.0911 -0.1203 -0.9885
vn 0.1781 0.3203 -0.9304
vn -0.1169 -0.0787 0.9900
vn -0.9578 0.2700 -0.0987
vn 0.9963 -0.0821 -0.0249
vn -0.0725 0.0989 0.9925
vn -0.2324 -0.0228 -0.9723
vn 0.9805 0.1278 -0.1490
vn -0.9854 -0.0147 0.1697
vn 0.6676 -0.5262 -0.5268
vn 0.3874 0.4942 0.7783
vn -0.6017 -0.2199 -0.7678
vn -0.9209 0.3002 0.2487
vn -0.8010 0.5979 -0.0301
vn 0.7815 -0.2129 -0.5865
vn -0.5234 0.0084 -0.8520
vn 0.3697 0.1663 0.9141
vn 0.8628 0.4179 0.2844
vn 0.6354 -0.6105 -0.4728
vn -0.7049 0.7078 0.0450
vn 0.4860 0.3896 0.7823
vn -0.5530 -0.2831 -0.7836
vn 0.3218 0.0319 -0.9463
vn 0.6849 -0.7285 -0.0118
vn -0.6070 0.7842 -0.1287
vn -0.8416 -0.3401 -0.4195
vn -0.6383 -0.4081 -0.6526
vn 0.5449 0.3687 0.7531
vn -0.7856 0.5721 0.2357
vn 0.6657 -0.6039 -0.4383
vn 0.4441 0.2814 0.8506
vn -0.6588 -0.2069 -0.7233
vn 0.7298 -0.4118 -0.5457
vn -0.9906 0.1363 0.0141
vn -0.9348 0.3423 -0.0952
vn -0.5697 -0.0565 -0.8199
vn 0.2774 0.2577 0.9255
vn 0.7966 -0.3038 -0.5226
vn 0.7330 -0.5179 -0.4411
vn -0.8309 0.5127 0.2162
vn -0.5086 -0.2602 -0.8208
vn 0.6048 0.4977 0.6217
vn 0.4738 -0.7225 -0.5035
vn 0.2031 0.5093 0.8363
vn -0.5197 0.0856 -0.8501
vn -0.7173 0.1706 0.6755
vn 0.4181 -0.8876 -0.1930
vn 0.2609 0.3565 0.8971
vn -0.1582 0.6298 -0.7605
vn 0.9466 0.2384 -0.2169
vn -0.9801 -0.1749 0.0936
vn 0.0777 0.8546 -0.5134
vn -0.0947 -0.2777 0.9560
vn 0.9371 0.3104 -0.1595
vn -0.5492 -0.3055 -0.7779
vn -0.7816 0.3158 0.5379
vn 0.0047 0.0630 0.9980
vn -0.3498 0.7334 0.5829
vn -0.6338 0.2982 0.7137
vn -0.2621 0.4720 -0.8418
vn 0.7111 -0.3317 0.6199
vn 0.9287 -0.1237 -0.3497
vn -0.5281 0.5129 0.6768
vn 0.6454 -0.3200 0.6936
vn -0.2628 0.3415 -0.9024
vn 0.8190 -0.4542 -0.3507
vn 0.7802 -0.5205 -0.3471
vn 0.5830 -0.6240 0.5203
vn -0.1955 0.5533 -0.8097
vn -0.5603 0.4220 0.7127
vn 0.7645 -0.4825 -0.4275
vn -0.6817 0.5353 0.4988
vn 0.7065 0.2268 0.6703
vn -0.5605 -0.0158 -0.8280
vn -0.5058 -0.0881 -0.8581
vn -0.5743 0.7734 0.2683
vn 0.7004 -0.6545 -0.2848
vn -0.7631 -0.3544 -0.5405
vn 0.7585 0.2386 0.6064
vn 0.5687 0.3868 -0.7259
vn -0.7138 0.5435 0.4417
vn 0.8131 -0.4488 -0.3707
vn 0.5348 0.1728 0.8271
vn 0.8112 0.4135 0.4135
vn -0.6327 -0.1783 -0.7536
vn 0.4399 -0.8766 0.1952
vn -0.2703 0.9330 -0.2375
vn -0.5613 0.0387 -0.8267
vn 0.6678 0.0259 0.7439
vn -0.5332 0.7829 0.3206
vn 0.6010 -0.5723 -0.5579
vn -0.2122 -0.0696 0.9747
vn -0.5521 0.6769 -0.4868
vn 0.8182 -0.5730 0.0471
vn 0.3502 -0.1856 -0.9181
vn 0.6554 -0.0529 -0.7534
vn 0.0094 0.3205 0.9472
vn 0.8084 -0.4038 0.4284
vn -0.6233 0.5737 -0.5314
vn -0.5719 0.6981 -0.4308
vn -0.3151 0.0005 0.9490
vn 0.4865 0.2444 -0.8388
vn -0.6719 0.5479 -0.4983
vn 0.8194 -0.2353 0.5226
vn 0.7040 0.4797 0.5237
vn -0.4616 0.0135 0.8870
vn 0.5533 0.0310 -0.8324
vn 0.6971 -0.6130 0.3718
vn 0.9239 -0.0987 0.3697
vn -0.7813 0.3486 -0.5178
vn 0.3115 -0.0856 -0.9464
vn -0.0574 0.1463 0.9876
vn -0.3511 0.8624 -0.3646
vn 0.6017 -0.7855 0.1450
vn -0.2836 -0.0869 0.9550
vn 0.4849 -0.1270 -0.8653
vn 0.6855 -0.0423 -0.7269
vn 0.9721 -0.2306 0.0442
vn -0.7659 0.3888 -0.5121
vn -0.1585 0.0391 0.9866
vn -0.1894 0.0195 0.9817
vn 0.3950 -0.0756 -0.9156
vn 0.8394 -0.3425 0.4221
vn -0.8734 0.1996 -0.4441
vn -0.1444 0.2828 -0.9483
vn 0.9556 0.1765 -0.2361
vn -0.8774 -0.0710 0.4745
vn -0.2045 -0.2735 0.9399
vn -0.0909 -0.1088 0.9899
vn 0.4076 0.5662 -0.7164
vn -0.7162 0.2258 0.6604
vn 0.9464 -0.3180 -0.0574
vn 0.9891 0.1311 -0.0677
vn -0.2038 0.3185 -0.9257
vn 0.1427 -0.1817 0.9729
vn 0.8270 -0.4636 -0.3181
vn -0.8940 0.2170 0.3920
vn -0.0479 0.9533 0.2981
vn -0.1875 0.3755 -0.9077
vn 0.1126 -0.2808 0.9531
vn -0.9891 -0.0438 0.1409
vn -0.6950 0.5815 0.4230
vn 0.9537 -0.1183 -0.2765
vn 0.2138 0.0357 0.9762
vn -0.2497 0.1113 -0.9619
vn 0.9939 0.1067 0.0292
vn -0.9507 -0.0972 0.2944
vn -0.2912 0.5491 -0.7834
vn -0.0176 -0.4725 0.8812
vn 0.0534 -0.1198 0.9914
vn -0.7782 0.3576 0.5163
vn 0.9807 -0.0423 0.1910
vn -0.3315 0.1700 -0.9280
vn 0.6321 -0.0634 0.7723
vn -0.6231 0.6852 0.3772
vn 0.6594 -0.2032 -0.7238
vn -0.1654 0.1441 -0.9756
vn 0.7466 0.3654 0.5560
vn 0.4672 -0.7276 -0.5024
vn -0.5872 0.7475 0.3105
vn -0.5879 -0.3710 -0.7188
vn -0.3767 0.1994 -0.9046
vn 0.5162 -0.3236 -0.7930
vn -0.6801 0.6852 0.2608
vn 0.5593 -0.1482 0.8156
vn -0.5986 -0.5223 -0.6073
vn 0.7593 0.5840 0.2870
vn 0.3989 -0.5262 -0.7510
vn -0.3919 0.8368 0.3822
vn -0.6684 0.6914 0.2743
vn 0.7404 0.3101 0.5964
vn -0.6312 -0.3082 -0.7118
vn -0.8421 0.2485 0.4787
vn 0.7967 -0.3169 -0.5146
vn 0.5939 0.7194 -0.3602
vn 0.7644 0.4764 0.4345
vn -0.7143 -0.3864 -0.5836
vn 0.7373 -0.5555 -0.3844
vn 0.8008 -0.1689 -0.5746
vn -0.8315 0.3623 0.4212
vn -0.5770 -0.3211 -0.7509
vn 0.7317 0.3435 0.5887
vn -0.2704 0.4561 0.8479
vn 0.9555 -0.0959 -0.2788
vn 0.8418 0.4471 0.3023
vn -0.6505 -0.6007 -0.4647
vn 0.9823 0.0089 -0.1869
vn -0.1347 0.4750 0.8696
vn -0.3692 -0.1032 -0.9236
vn -0.9098 0.2882 -0.2987
vn 0.9697 0.1924 -0.1507
vn -0.3004 -0.3631 -0.8820
vn -0.1144 0.4083 0.9056
vn -0.9499 -0.2888 -0.1191
vn -0.8808 0.3573 -0.3107
vn -0.3016 0.1193 -0.9459
vn -0.0619 0.1495 0.9868
vn 0.9350 -0.3406 -0.0994
vn -0.9631 -0.2331 0.1343
vn 0.9383 0.2947 -0.1807
vn 0.1338 0.1716 -0.9760
vn 0.3131 -0.0394 0.9489
vn 0.0723 0.1632 0.9839
vn 0.9934 -0.1116 -0.0261
vn -0.9869 0.1590 -0.0264
vn -0.1625 -0.1571 0.9741
vn 0.0624 0.1273 -0.9899
vn 0.9992 0.0393 -0.0054
vn -0.9999 -0.0007 -0.0134
vn -0.0986 -0.1199 -0.9879
vn 0.1786 0.3201 -0.9304
vn -0.0827 -0.0878 0.9927
vn -0.9611 0.2684 -0.0648
vn 0.9965 -0.0822 -0.0183
vn 0.1438 0.2067 0.9678
vn -0.2974 -0.0536 -0.9532
vn 0.9777 0.1326 -0.1630
vn -0.9549 0.1557 -0.2530
vn 0.5989 -0.7709 -0.2169
vn 0.4033 0.4286 0.8085
vn -0.7076 -0.2774 -0.6500
vn -0.8593 0.3672 0.3560
vn -0.7828 0.5896 -0.1992
vn 0.7309 -0.2479 -0.6359
vn -0.4253 -0.1127 -0.8980
vn 0.3759 0.1581 0.9131
vn 0.8206 0.4864 0.3002
vn 0.6667 -0.5927 -0.4520
vn -0.6689 0.7388 0.0825
vn 0.5126 0.3518 0.7832
vn -0.6121 -0.1537 -0.7757
vn 0.3218 0.0320 -0.9463
vn 0.5875 -0.8083 -0.0381
vn -0.7062 0.6918 -0.1507
vn -0.7971 -0.4482 -0.4046
vn -0.6542 -0.3853 -0.6508
vn 0.6240 0.1980 0.7559
vn -0.7555 0.6013 0.2601
vn 0.7217 -0.5608 -0.4057
vn 0.3991 0.4217 0.8142
vn -0.6569 -0.2141 -0.7230
vn 0.8081 -0.3017 -0.5060
vn -0.9072 0.3853 0.1688
vn -0.9419 0.3271 -0.0761
vn -0.5657 -0.0846 -0.8202
vn 0.2774 0.2569 0.9258
vn 0.7908 -0.3410 -0.5083
vn 0.7810 -0.4791 -0.4006
vn -0.7951 0.5485 0.2588
vn -0.5218 -0.2412 -0.8183
vn 0.6321 0.4621 0.6220
vn 0.4777 -0.7169 -0.5078
vn 0.0466 -0.1689 0.9845
vn -0.5120 0.0917 -0.8541
vn -0.5359 0.8434 -0.0384
vn 0.2099 -0.9775 -0.0226
vn -0.1643 0.1262 0.9783
vn -0.2308 0.4810 -0.8458
vn 0.7072 -0.4572 -0.5392
vn -0.6692 0.5857 0.4574
vn 0.0093 0.7181 -0.6959
vn 0.0812 0.1597 0.9838
vn 0.9659 0.0806 -0.2460
vn -0.5607 -0.3155 -0.7655
vn -0.4062 0.9120 -0.0566
vn 0.2548 0.5809 0.7730
vn -0.7867 0.3256 0.5245
vn -0.6257 0.3030 0.7188
vn -0.2840 0.3267 -0.9014
vn 0.7116 -0.3232 0.6238
vn 0.9064 -0.1635 -0.3895
vn -0.5194 0.4453 0.7293
vn 0.6597 -0.3788 0.6491
vn -0.2622 0.2359 -0.9357
vn 0.7922 -0.4648 -0.3955
vn 0.7841 -0.5187 -0.3408
vn 0.5832 -0.5264 0.6187
vn -0.1943 0.5536 -0.8098
vn -0.5727 0.4170 0.7058
vn 0.5983 -0.5826 -0.5500
vn -0.6464 0.5611 0.5170
vn 0.7823 0.0632 0.6197
vn -0.5139 -0.1344 -0.8473
vn -0.4309 -0.1476 -0.8902
vn -0.6168 0.7649 0.1856
vn 0.7474 -0.6172 -0.2459
vn -0.7874 -0.3200 -0.5268
vn 0.7547 0.2484 0.6073
vn 0.5686 0.3868 -0.7260
vn -0.7566 0.5287 0.3848
vn 0.7838 -0.4611 -0.4160
vn 0.6034 0.1160 0.7890
vn 0.8838 0.2869 0.3695
vn -0.5942 -0.2617 -0.7605
vn 0.4462 -0.8708 0.2066
vn -0.1619 0.9841 -0.0728
vn -0.5626 -0.0158 -0.8266
vn 0.7277 -0.2496 0.6389
vn -0.4222 0.6322 0.6497
vn 0.8356 -0.4157 -0.3592
vn -0.2713 -0.0787 0.9593
vn -0.5480 0.7048 -0.4506
vn 0.8267 -0.5572 0.0778
vn 0.3348 -0.1399 -0.9318
vn 0.6987 -0.0686 -0.7121
vn 0.0889 0.0743 0.9933
vn 0.7987 -0.5725 0.1851
vn -0.7137 0.5422 -0.4434
vn -0.6225 0.6926 -0.3643
vn -0.2180 -0.0704 0.9734
vn 0.6844 0.0892 -0.7236
vn -0.6808 0.5113 -0.5246
vn 0.8865 -0.2704 0.3755
vn 0.7040 0.4797 0.5238
vn -0.4194 -0.0403 0.9069
vn 0.5806 -0.0070 -0.8141
vn 0.6810 -0.6161 0.3958
vn 0.9259 -0.1035 0.3633
vn -0.8153 0.3713 -0.4443
vn 0.2727 -0.0665 -0.9598
vn -0.1382 0.1981 0.9704
vn -0.3639 0.8410 -0.4003
vn 0.4733 -0.8709 -0.1324
vn -0.2840 -0.0888 0.9547
vn 0.6048 -0.1859 -0.7744
vn 0.6551 -0.0542 -0.7536
vn 0.9717 -0.2323 0.0424
vn -0.7652 0.3931 -0.5098
vn -0.1601 0.0460 0.9860
vn -0.2246 0.0982 0.9695
vn 0.3379 0.0189 -0.9410
vn 0.8399 -0.3494 0.4153
vn -0.8711 0.1942 -0.4510
vn -0.3027 0.3991 -0.8655
vn 0.9974 0.0010 -0.0723
vn -0.8840 -0.0532 0.4644
vn -0.0127 -0.4514 0.8922
vn -0.0524 -0.1372 0.9891
vn -0.2639 0.5775 -0.7725
vn -0.9295 0.3191 0.1849
vn 0.8359 -0.3027 -0.4579
vn 0.9886 0.1325 -0.0709
vn -0.2084 0.3185 -0.9247
vn 0.0855 -0.1800 0.9799
vn 0.8472 -0.5278 -0.0607
vn -0.9124 0.2587 0.3171
vn -0.0480 0.9533 0.2981
vn -0.2188 0.3694 -0.9032
vn 0.1055 -0.2820 0.9536
vn -0.9824 -0.0597 0.1771
vn -0.7290 0.6615 0.1761
vn 0.9669 -0.1591 -0.1994
vn 0.1873 0.0463 0.9812
vn -0.2342 0.1064 -0.9663
vn 0.9957 0.0853 0.0366
vn -0.9206 -0.1900 0.3411
vn -0.2689 0.5408 -0.7970
vn -0.1146 -0.4305 0.8953
vn -0.0143 0.0064 0.9999
vn -0.7657 0.3206 0.5577
vn 0.8793 -0.3638 -0.3073
vn -0.2895 0.0724 -0.9544
vn 0.6241 -0.0217 0.7810
vn -0.7824 0.5508 0.2905
vn 0.6330 -0.2173 -0.7430
vn -0.1702 0.1935 -0.9662
vn 0.9132 0.2807 0.2954
vn 0.5554 -0.7450 -0.3694
vn -0.6371 0.7576 0.1420
vn -0.4331 -0.4099 -0.8027
vn -0.0821 0.2283 -0.9701
vn 0.6312 -0.2679 -0.7279
vn -0.7206 0.5724 0.3913
vn 0.5936 -0.1294 0.7943
vn -0.8610 -0.3991 -0.3151
vn 0.8443 0.4682 0.2606
vn 0.8228 -0.4300 -0.3715
vn -0.8659 0.2884 0.4087
vn -0.6941 0.6763 0.2467
vn 0.7245 0.3267 0.6070
vn -0.6555 -0.2874 -0.6984
vn -0.8533 0.2328 0.4665
vn 0.7964 -0.3169 -0.5151
vn 0.5939 0.7194 -0.3603
vn 0.7943 0.4346 0.4246
vn -0.6906 -0.4168 -0.5911
vn 0.7448 -0.5511 -0.3761
vn 0.8067 -0.1618 -0.5683
vn -0.8119 0.3673 0.4538
vn -0.6213 -0.2903 -0.7278
vn 0.7274 0.3481 0.5914
vn -0.7773 0.3832 0.4990
vn 0.3714 -0.3726 -0.8504
vn 0.9204 0.3083 0.2405
vn -0.8598 -0.3805 -0.3406
vt 0.197550 0.046208
vt 0.201405 0.042179
vt 0.203647 0.045995
vt 0.184975 0.056948
vt 0.190404 0.052800
vt 0.188772 0.056699
vt 0.195672 0.043689
vt 0.200600 0.041323
vt 0.201782 0.044312
vt 0.195039 0.046341
vt 0.198118 0.048985
vt 0.193969 0.048951
vt 0.198689 0.041600
vt 0.201014 0.044534
vt 0.196709 0.044514
vt 0.197533 0.042677
vt 0.200267 0.040238
vt 0.196495 0.043091
vt 0.197594 0.045555
vt 0.198443 0.037963
vt 0.202160 0.038364
vt 0.201478 0.041771
vt 0.199725 0.038632
vt 0.202395 0.038308
vt 0.197908 0.049445
vt 0.202085 0.049149
vt 0.195960 0.054753
vt 0.192293 0.053744
vt 0.197695 0.050949
vt 0.203466 0.049249
vt 0.203604 0.053162
vt 0.196552 0.051897
vt 0.201986 0.034126
vt 0.199267 0.031500
vt 0.200654 0.030916
vt 0.199578 0.035372
vt 0.198716 0.032922
vt 0.200301 0.033305
vt 0.193254 0.039088
vt 0.193604 0.035798
vt 0.195025 0.038495
vt 0.201826 0.034404
vt 0.201847 0.031179
vt 0.203466 0.031272
vt 0.202314 0.023642
vt 0.202656 0.020172
vt 0.202909 0.020031
vt 0.201617 0.029807
vt 0.202206 0.025789
vt 0.202712 0.025844
vt 0.197775 0.027738
vt 0.197193 0.023790
vt 0.198445 0.027639
vt 0.201901 0.027714
vt 0.192712 0.031960
vt 0.193342 0.028048
vt 0.193340 0.032137
vt 0.202389 0.022216
vt 0.202095 0.022036
vt 0.202373 0.022064
vt 0.196925 0.020213
vt 0.197205 0.020184
vt 0.192901 0.027915
vt 0.192762 0.024559
vt 0.192293 0.035682
vt 0.201831 0.023774
vt 0.202602 0.027528
vt 0.200898 0.029680
vt 0.196552 0.039907
vt 0.199655 0.034678
vt 0.192960 0.061368
vt 0.197469 0.060182
vt 0.198612 0.064663
vt 0.188863 0.033047
vt 0.196436 0.038928
vt 0.187922 0.037264
vt 0.199372 0.058766
vt 0.203434 0.060234
vt 0.197958 0.062649
vt 0.185798 0.052630
vt 0.187649 0.047314
vt 0.188532 0.053007
vt 0.185528 0.056782
vt 0.187698 0.059999
vt 0.184777 0.062532
vt 0.196463 0.055809
vt 0.193945 0.051076
vt 0.196839 0.050800
vt 0.198358 0.055589
vt 0.200271 0.049027
vt 0.202644 0.054770
vt 0.195747 0.029515
vt 0.192699 0.022758
vt 0.196697 0.023374
vt 0.190534 0.040238
vt 0.189701 0.035302
vt 0.191672 0.040158
vt 0.193547 0.038261
vt 0.191968 0.034759
vt 0.192997 0.034246
vt 0.189212 0.033368
vt 0.190682 0.029754
vt 0.190344 0.033933
vt 0.193508 0.016891
vt 0.197448 0.036082
vt 0.199767 0.032276
vt 0.199663 0.036309
vt 0.201685 0.028006
vt 0.201257 0.028065
vt 0.201270 0.027802
vt 0.190123 0.030413
vt 0.190526 0.030159
vt 0.189769 0.029142
vt 0.193509 0.025737
vt 0.198743 0.032038
vt 0.201639 0.028263
vt 0.196789 0.042655
vt 0.199731 0.042530
vt 0.192495 0.043939
vt 0.190087 0.044077
vt 0.186347 0.040045
vt 0.188093 0.040324
vt 0.195907 0.044670
vt 0.192145 0.038729
vt 0.195278 0.033664
vt 0.190272 0.028701
vt 0.203934 0.058591
vt 0.192374 0.056176
vt 0.188201 0.055981
vt 0.187965 0.062959
vt 0.184972 0.065318
vt 0.198326 0.065649
vt 0.204236 0.063104
vt 0.196312 0.041765
vt 0.187066 0.040002
vt 0.192486 0.064002
vt 0.198587 0.067136
vt 0.193855 0.044830
vt 0.185136 0.046805
vt 0.196638 0.049707
vt 0.192398 0.051100
vt 0.189266 0.050873
vt 0.191435 0.066832
vt 0.198454 0.070222
vt 0.196152 0.043578
vt 0.187571 0.042879
vt 0.203438 0.065845
vt 0.196638 0.068742
vt 0.188429 0.066338
vt 0.186220 0.066797
vt 0.198198 0.035553
vt 0.201159 0.044242
vt 0.196783 0.046306
vt 0.196715 0.046813
vt 0.191217 0.049191
vt 0.187191 0.045252
vt 0.196788 0.069459
vt 0.197586 0.071588
vt 0.190123 0.066736
vt 0.186750 0.070047
vt 0.190117 0.067214
vt 0.193143 0.066851
vt 0.191175 0.062799
vt 0.193509 0.062138
vt 0.187782 0.044508
vt 0.194443 0.027774
vt 0.193039 0.035473
vt 0.193039 0.025912
vt 0.190821 0.045687
vt 0.193926 0.041064
vt 0.193028 0.049503
vt 0.192675 0.070774
vt 0.187830 0.072492
vt 0.196222 0.044583
vt 0.185954 0.067892
vt 0.202478 0.040841
vt 0.204778 0.039147
vt 0.204769 0.041398
vt 0.203638 0.036389
vt 0.205653 0.038643
vt 0.205920 0.044001
vt 0.203300 0.035553
vt 0.187484 0.045587
vt 0.191140 0.044008
vt 0.192957 0.047390
vt 0.181801 0.048541
vt 0.188319 0.053492
vt 0.183667 0.056052
vt 0.194940 0.049566
vt 0.199495 0.045564
vt 0.200825 0.047285
vt 0.191221 0.052017
vt 0.193656 0.055528
vt 0.190009 0.053276
vt 0.195868 0.037308
vt 0.199387 0.038646
vt 0.195019 0.039583
vt 0.186056 0.038175
vt 0.189552 0.038985
vt 0.194553 0.052979
vt 0.192382 0.047966
vt 0.195004 0.048205
vt 0.194335 0.045579
vt 0.198845 0.040913
vt 0.199569 0.036582
vt 0.196566 0.032173
vt 0.199295 0.031237
vt 0.198079 0.043642
vt 0.193102 0.044386
vt 0.201330 0.043947
vt 0.201302 0.051279
vt 0.194370 0.054021
vt 0.189303 0.050010
vt 0.195976 0.051917
vt 0.197651 0.026800
vt 0.193102 0.024295
vt 0.194465 0.022826
vt 0.187650 0.032986
vt 0.191373 0.031179
vt 0.190577 0.034179
vt 0.194550 0.042352
vt 0.192878 0.038444
vt 0.194668 0.038470
vt 0.196476 0.035616
vt 0.198530 0.032291
vt 0.198271 0.037523
vt 0.200493 0.026617
vt 0.200801 0.022099
vt 0.201302 0.026771
vt 0.193879 0.027817
vt 0.194391 0.024557
vt 0.195172 0.024854
vt 0.187736 0.061600
vt 0.186278 0.058064
vt 0.187076 0.058147
vt 0.199477 0.029605
vt 0.196396 0.032018
vt 0.191787 0.035227
vt 0.190009 0.032318
vt 0.190757 0.032168
vt 0.192359 0.068459
vt 0.192702 0.068123
vt 0.192705 0.068459
vt 0.195976 0.020959
vt 0.187401 0.053437
vt 0.187736 0.053420
vt 0.190654 0.027644
vt 0.190957 0.027556
vt 0.193542 0.059430
vt 0.194914 0.056779
vt 0.194914 0.060302
vt 0.192549 0.027133
vt 0.194910 0.040362
vt 0.192394 0.043514
vt 0.195342 0.028954
vt 0.195325 0.055365
vt 0.199993 0.051432
vt 0.201946 0.057710
vt 0.195841 0.056204
vt 0.203310 0.049184
vt 0.204183 0.056204
vt 0.181606 0.063526
vt 0.188339 0.056538
vt 0.190297 0.063601
vt 0.191323 0.054454
vt 0.195851 0.058529
vt 0.189900 0.059815
vt 0.194411 0.041287
vt 0.196873 0.036918
vt 0.197107 0.042148
vt 0.192484 0.045466
vt 0.194664 0.050757
vt 0.191349 0.052769
vt 0.197292 0.046548
vt 0.193845 0.042102
vt 0.196460 0.042208
vt 0.195932 0.051327
vt 0.190697 0.046518
vt 0.193798 0.045596
vt 0.187606 0.052479
vt 0.184405 0.047758
vt 0.187979 0.048322
vt 0.185942 0.037728
vt 0.184217 0.032514
vt 0.184670 0.032399
vt 0.197539 0.036025
vt 0.197238 0.032791
vt 0.198263 0.032297
vt 0.192307 0.030615
vt 0.192356 0.026946
vt 0.193507 0.030350
vt 0.187770 0.045725
vt 0.184586 0.045436
vt 0.191970 0.039292
vt 0.191042 0.035963
vt 0.192041 0.036179
vt 0.192477 0.071001
vt 0.192043 0.071483
vt 0.192010 0.071040
vt 0.196519 0.027044
vt 0.196976 0.026909
vt 0.191349 0.026531
vt 0.192795 0.021133
vt 0.192557 0.030399
vt 0.193174 0.042485
vt 0.189771 0.039463
vt 0.185200 0.041734
vt 0.184862 0.038051
vt 0.194448 0.034619
vt 0.195917 0.033696
vt 0.196202 0.039893
vt 0.196091 0.035782
vt 0.181903 0.057106
vt 0.195899 0.055108
vt 0.191712 0.051758
vt 0.193509 0.048053
vt 0.195368 0.045169
vt 0.196646 0.055480
vt 0.192401 0.057413
vt 0.196543 0.063375
vt 0.189771 0.064789
vt 0.181300 0.068155
vt 0.191467 0.068155
vt 0.201526 0.062404
vt 0.193509 0.060122
vt 0.194400 0.038972
vt 0.194592 0.037217
vt 0.190400 0.043172
vt 0.187638 0.041640
vt 0.196202 0.052727
vt 0.199520 0.048111
vt 0.200650 0.054242
vt 0.186866 0.060221
vt 0.191392 0.055976
vt 0.190246 0.059823
vt 0.181468 0.049426
vt 0.185157 0.044400
vt 0.186163 0.048122
vt 0.188892 0.040422
vt 0.191874 0.044009
vt 0.188188 0.043349
vt 0.193782 0.042159
vt 0.191123 0.038719
vt 0.192697 0.037735
vt 0.190256 0.045592
vt 0.192159 0.048743
vt 0.188393 0.049564
vt 0.197807 0.044252
vt 0.196764 0.041462
vt 0.198504 0.042569
vt 0.188154 0.036643
vt 0.188934 0.032746
vt 0.190068 0.035898
vt 0.185957 0.040913
vt 0.184923 0.038118
vt 0.186866 0.037522
vt 0.183637 0.028943
vt 0.184554 0.024987
vt 0.184388 0.029081
vt 0.201304 0.037728
vt 0.200754 0.034000
vt 0.201472 0.033697
vt 0.188557 0.034208
vt 0.189131 0.030659
vt 0.189818 0.034268
vt 0.184795 0.032906
vt 0.183437 0.032963
vt 0.185652 0.045442
vt 0.184524 0.041881
vt 0.185218 0.041726
vt 0.192511 0.068784
vt 0.192652 0.068937
vt 0.192512 0.068931
vt 0.199760 0.029566
vt 0.199909 0.029533
vt 0.188446 0.030357
vt 0.190240 0.026143
vt 0.184462 0.037302
vt 0.184599 0.037316
vt 0.193953 0.060148
vt 0.192731 0.056395
vt 0.193953 0.056275
vt 0.199935 0.037741
vt 0.181670 0.043481
vt 0.191368 0.039956
vt 0.195955 0.048676
vt 0.192861 0.045796
vt 0.191687 0.042008
vt 0.193782 0.053224
vt 0.189837 0.053962
vt 0.190625 0.048399
vt 0.187331 0.047662
vt 0.186866 0.052603
vt 0.182023 0.054286
vt 0.194404 0.057131
vt 0.201472 0.059240
vt 0.184394 0.040205
vt 0.188593 0.045224
vt 0.182565 0.043158
vt 0.188918 0.049501
vt 0.194717 0.057074
vt 0.188918 0.058595
vt 0.198240 0.053913
vt 0.201567 0.048821
vt 0.203491 0.050903
vt 0.195241 0.043518
vt 0.196916 0.048139
vt 0.193186 0.046381
vt 0.188723 0.056544
vt 0.192068 0.052338
vt 0.193247 0.055682
vt 0.186760 0.036270
vt 0.188568 0.041640
vt 0.196643 0.040621
vt 0.198326 0.043909
vt 0.198808 0.044354
vt 0.201570 0.043850
vt 0.190012 0.041342
vt 0.188745 0.037740
vt 0.191526 0.037502
vt 0.193235 0.060024
vt 0.188723 0.061789
vt 0.195283 0.051798
vt 0.189841 0.049122
vt 0.206437 0.055281
vt 0.200324 0.059241
vt 0.181300 0.045657
vt 0.189546 0.049228
vt 0.189165 0.033823
vt 0.187857 0.030932
vt 0.189075 0.030641
vt 0.187800 0.030722
vt 0.186873 0.027560
vt 0.188215 0.027801
vt 0.192461 0.035831
vt 0.192373 0.032555
vt 0.194144 0.035346
vt 0.201828 0.039626
vt 0.205006 0.037636
vt 0.203176 0.040611
vt 0.205754 0.032446
vt 0.206133 0.030255
vt 0.206437 0.030159
vt 0.189005 0.025594
vt 0.188778 0.022882
vt 0.189546 0.022925
vt 0.187141 0.028879
vt 0.187578 0.026721
vt 0.188096 0.028816
vt 0.205375 0.035077
vt 0.203731 0.037278
vt 0.204352 0.035135
vt 0.190828 0.030244
vt 0.191139 0.027612
vt 0.191753 0.030290
vt 0.189037 0.020201
vt 0.188742 0.020387
vt 0.188731 0.020192
vt 0.189062 0.020413
vt 0.186849 0.026747
vt 0.187774 0.024594
vt 0.190443 0.027565
vt 0.190116 0.025497
vt 0.204994 0.032496
vt 0.187978 0.025475
vt 0.194959 0.039372
vt 0.185811 0.030634
vt 0.184975 0.049777
vt 0.196968 0.039870
vt 0.193893 0.043229
vt 0.197156 0.035323
vt 0.200317 0.033159
vt 0.196709 0.023831
vt 0.202099 0.022175
vt 0.192534 0.024426
vt 0.192713 0.059652
vt 0.189266 0.035491
vt 0.196715 0.016972
vt 0.193158 0.025436
vt 0.196420 0.049571
vt 0.205537 0.066215
vt 0.193985 0.035451
vt 0.190821 0.037149
vt 0.186776 0.043135
vt 0.189262 0.048541
vt 0.201694 0.038869
vt 0.189424 0.030223
vt 0.200472 0.022026
vt 0.186352 0.061711
vt 0.200739 0.030229
vt 0.190630 0.035907
vt 0.192382 0.068110
vt 0.195662 0.020808
vt 0.193997 0.056109
vt 0.195040 0.051942
vt 0.199290 0.046634
vt 0.182117 0.052007
vt 0.192476 0.071483
vt 0.192360 0.021045
vt 0.192140 0.030327
vt 0.186866 0.052844
vt 0.195181 0.044625
vt 0.187331 0.032185
vt 0.183518 0.039870
vt 0.184403 0.025006
vt 0.184426 0.045442
vt 0.192662 0.068784
vt 0.190098 0.026105
vt 0.192257 0.060344
vt 0.195496 0.052242
vt 0.197218 0.049522
vt 0.189158 0.053703
vt 0.184223 0.036252
vt 0.186849 0.041390
vt 0.187233 0.034373
vt 0.191274 0.032718
vt 0.187467 0.024603
vt 0.189841 0.025413
s 0
usemtl Material
f 11/1/1 6/2/1 9/3/1
f 1/4/2 3/5/2 4/6/2
f 9/7/3 8/8/3 10/9/3
f 7/10/4 11/11/4 12/12/4
f 8/13/5 12/14/5 10/15/5
f 5/16/6 16/17/6 6/2/6
f 7/10/7 13/18/7 5/19/7
f 8/8/8 16/20/8 18/21/8
f 7/22/9 18/23/9 17/24/9
f 3/25/10 12/14/10 4/26/10
f 12/12/11 1/27/11 4/28/11
f 2/29/12 10/9/12 3/30/12
f 11/1/13 2/31/13 1/32/13
f 33/33/14 23/34/14 15/35/14
f 36/36/15 19/37/15 22/38/15
f 33/39/16 19/40/16 34/41/16
f 35/42/17 22/43/17 23/44/17
f 24/45/18 27/46/18 28/47/18
f 30/48/19 20/49/19 21/50/19
f 32/51/20 14/52/20 29/53/20
f 30/54/21 23/44/21 22/43/21
f 29/55/22 20/56/22 31/57/22
f 27/58/23 25/59/23 28/60/23
f 20/49/24 27/58/24 21/50/24
f 14/52/25 28/61/25 25/62/25
f 14/63/26 26/64/26 20/56/26
f 15/65/27 31/57/27 19/40/27
f 21/66/28 32/67/28 30/54/28
f 23/34/29 29/53/29 15/35/29
f 22/38/30 31/68/30 30/48/30
f 16/20/31 35/42/31 18/21/31
f 13/18/32 33/39/32 34/41/32
f 13/69/33 36/36/33 16/17/33
f 17/24/34 35/70/34 33/33/34
f 63/71/35 40/72/35 61/73/35
f 40/74/36 62/75/36 61/76/36
f 41/77/37 63/78/37 64/79/37
f 59/80/38 39/81/38 57/82/38
f 42/83/39 64/84/39 62/85/39
f 60/86/40 43/87/40 46/88/40
f 57/89/41 43/90/41 58/91/41
f 59/92/42 46/93/42 47/94/42
f 45/95/43 52/96/43 48/97/43
f 54/98/44 44/99/44 45/100/44
f 56/101/45 38/102/45 53/103/45
f 65/104/46 47/94/46 46/93/46
f 53/105/47 44/106/47 55/107/47
f 51/108/48 49/109/48 52/110/48
f 45/100/49 50/111/49 51/112/49
f 48/113/50 49/114/50 38/102/50
f 38/115/51 50/116/51 44/106/51
f 66/117/52 55/107/52 67/118/52
f 45/95/53 56/119/53 54/120/53
f 68/121/54 53/103/54 66/122/54
f 65/123/55 55/124/55 54/98/55
f 42/125/56 60/126/56 59/92/56
f 41/77/57 58/91/57 37/127/57
f 40/72/58 58/128/58 60/86/58
f 42/83/59 57/82/59 41/129/59
f 62/85/60 71/130/60 70/131/60
f 71/132/61 63/78/61 72/133/61
f 61/76/62 70/134/62 69/135/62
f 72/136/63 61/73/63 69/137/63
f 46/88/64 67/138/64 65/123/64
f 47/139/65 66/122/65 39/81/65
f 39/140/66 67/118/66 43/90/66
f 54/120/67 68/141/67 65/142/67
f 76/143/68 69/137/68 73/144/68
f 69/135/69 74/145/69 73/146/69
f 71/132/70 76/147/70 75/148/70
f 70/131/71 75/149/71 74/150/71
f 78/151/72 90/152/72 77/153/72
f 80/154/73 91/155/73 78/156/73
f 76/147/74 83/157/74 75/148/74
f 76/143/75 79/158/75 84/159/75
f 80/160/76 83/161/76 82/162/76
f 82/162/77 84/163/77 77/164/77
f 79/165/78 80/154/78 78/156/78
f 84/166/79 78/167/79 77/168/79
f 82/169/80 90/170/80 88/171/80
f 80/160/81 88/172/81 92/173/81
f 73/146/82 81/174/82 79/165/82
f 75/149/83 81/175/83 74/150/83
f 85/176/2 89/177/2 87/178/2
f 86/179/2 92/180/2 89/177/2
f 87/178/2 90/152/2 85/176/2
f 87/178/2 92/180/2 88/181/2
f 85/176/2 91/182/2 86/179/2
f 103/183/84 98/184/84 101/185/84
f 94/186/2 96/187/2 93/188/2
f 101/189/85 100/190/85 102/191/85
f 99/192/86 103/193/86 104/194/86
f 100/195/87 104/196/87 102/197/87
f 98/184/88 105/198/88 108/199/88
f 97/200/89 109/201/89 105/202/89
f 98/203/90 110/204/90 100/190/90
f 99/205/91 110/206/91 109/207/91
f 102/197/92 96/208/92 95/209/92
f 104/196/93 93/210/93 96/208/93
f 101/189/94 95/211/94 94/212/94
f 93/213/95 101/185/95 94/214/95
f 125/215/96 115/216/96 107/217/96
f 126/218/97 114/219/97 128/220/97
f 126/221/98 107/222/98 111/223/98
f 128/224/99 115/225/99 127/226/99
f 113/227/100 120/228/100 116/229/100
f 122/230/101 112/231/101 113/232/101
f 121/233/102 116/234/102 106/235/102
f 122/236/103 115/225/103 114/237/103
f 123/238/104 106/239/104 112/240/104
f 119/241/105 117/242/105 120/243/105
f 112/231/106 119/244/106 113/232/106
f 106/235/107 120/245/107 117/246/107
f 112/240/108 117/247/108 118/248/108
f 107/222/109 123/238/109 111/223/109
f 116/229/110 122/236/110 113/227/110
f 115/249/111 121/250/111 107/251/111
f 114/219/112 123/252/112 122/230/112
f 108/253/113 127/226/113 110/204/113
f 105/202/114 125/254/114 126/221/114
f 108/199/115 126/218/115 128/220/115
f 109/207/116 127/255/116 125/215/116
f 159/256/117 136/257/117 157/258/117
f 130/259/2 132/260/2 129/261/2
f 157/262/118 138/263/118 158/264/118
f 137/265/119 159/266/119 160/267/119
f 155/268/120 135/269/120 153/270/120
f 138/271/121 160/272/121 158/273/121
f 156/274/122 139/275/122 142/276/122
f 154/277/123 135/278/123 139/279/123
f 155/280/124 142/281/124 143/282/124
f 144/283/125 147/284/125 148/285/125
f 150/286/126 140/287/126 141/288/126
f 152/289/127 134/290/127 149/291/127
f 164/292/128 142/281/128 161/293/128
f 151/294/129 134/295/129 140/296/129
f 147/297/130 145/298/130 148/299/130
f 141/288/131 146/300/131 147/301/131
f 144/302/132 145/303/132 134/290/132
f 134/295/133 146/304/133 140/296/133
f 163/305/134 149/306/134 151/294/134
f 144/283/135 150/307/135 141/308/135
f 164/309/136 149/291/136 162/310/136
f 161/311/137 151/312/137 150/286/137
f 136/313/138 155/280/138 138/263/138
f 133/314/139 153/315/139 154/277/139
f 136/257/140 154/316/140 156/274/140
f 137/317/141 155/268/141 153/270/141
f 158/273/142 132/318/142 131/319/142
f 160/267/143 129/320/143 132/321/143
f 130/322/144 158/264/144 131/323/144
f 159/256/145 130/324/145 129/325/145
f 142/276/146 163/326/146 161/311/146
f 143/327/147 162/310/147 135/269/147
f 139/279/148 162/328/148 163/305/148
f 152/329/149 161/293/149 150/307/149
f 195/330/150 172/331/150 193/332/150
f 165/333/2 167/334/2 168/335/2
f 193/336/151 174/337/151 194/338/151
f 173/339/152 195/340/152 196/341/152
f 189/342/153 179/343/153 171/344/153
f 174/345/154 196/346/154 194/347/154
f 192/348/155 175/349/155 178/350/155
f 189/351/156 175/352/156 190/353/156
f 191/354/157 178/355/157 179/356/157
f 177/357/158 184/358/158 180/359/158
f 186/360/159 176/361/159 177/362/159
f 188/363/160 170/364/160 185/365/160
f 188/366/161 178/355/161 186/367/161
f 187/368/162 170/369/162 176/370/162
f 184/371/163 182/372/163 181/373/163
f 177/362/164 182/374/164 183/375/164
f 180/376/165 181/377/165 170/364/165
f 176/370/166 181/378/166 182/379/166
f 175/380/167 185/381/167 187/382/167
f 180/359/168 186/367/168 177/357/168
f 179/343/169 185/365/169 171/344/169
f 178/350/170 187/383/170 186/360/170
f 172/384/171 191/354/171 174/337/171
f 169/385/172 189/351/172 190/353/172
f 169/386/173 192/348/173 172/331/173
f 173/387/174 191/388/174 189/342/174
f 194/347/175 168/389/175 167/390/175
f 196/341/176 165/391/176 168/392/176
f 193/336/177 167/393/177 166/394/177
f 165/395/178 193/332/178 166/396/178
f 201/397/179 205/398/179 207/399/179
f 198/400/2 200/401/2 197/402/2
f 205/403/180 204/404/180 206/405/180
f 203/406/181 207/407/181 208/408/181
f 206/409/182 203/410/182 208/411/182
f 201/397/183 212/412/183 202/413/183
f 203/406/184 209/414/184 201/415/184
f 204/404/185 212/416/185 214/417/185
f 203/418/186 214/419/186 213/420/186
f 206/409/187 200/421/187 199/422/187
f 208/408/188 197/423/188 200/424/188
f 205/403/189 199/425/189 198/426/189
f 197/427/190 205/398/190 198/428/190
f 229/429/191 219/430/191 211/431/191
f 232/432/192 215/433/192 218/434/192
f 229/435/193 215/436/193 230/437/193
f 232/438/194 219/439/194 231/440/194
f 220/441/195 223/442/195 224/443/195
f 226/444/196 216/445/196 217/446/196
f 228/447/197 210/448/197 225/449/197
f 228/450/198 218/451/198 226/452/198
f 225/453/199 216/454/199 227/455/199
f 224/456/200 222/457/200 221/458/200
f 217/446/201 222/457/201 223/459/201
f 220/460/202 221/461/202 210/448/202
f 210/462/203 222/463/203 216/454/203
f 215/436/204 225/453/204 227/455/204
f 217/464/205 228/450/205 226/452/205
f 219/430/206 225/449/206 211/431/206
f 218/434/207 227/465/207 226/444/207
f 214/417/208 232/438/208 231/440/208
f 213/466/209 230/437/209 209/414/209
f 212/412/210 230/467/210 232/432/210
f 214/419/211 229/429/211 213/420/211
f 11/1/212 5/16/212 6/2/212
f 1/4/2 2/468/2 3/5/2
f 9/7/213 6/469/213 8/8/213
f 7/10/214 5/19/214 11/11/214
f 8/13/215 7/22/215 12/14/215
f 5/16/216 13/69/216 16/17/216
f 7/10/217 17/470/217 13/18/217
f 8/8/218 6/469/218 16/20/218
f 7/22/219 8/13/219 18/23/219
f 3/25/220 10/15/220 12/14/220
f 12/12/221 11/11/221 1/27/221
f 2/29/222 9/7/222 10/9/222
f 11/1/223 9/3/223 2/31/223
f 33/33/224 35/70/224 23/34/224
f 36/36/225 34/471/225 19/37/225
f 33/39/226 15/65/226 19/40/226
f 35/42/227 36/472/227 22/43/227
f 24/45/228 21/66/228 27/46/228
f 30/48/229 31/68/229 20/49/229
f 32/51/230 24/473/230 14/52/230
f 30/54/231 32/67/231 23/44/231
f 29/55/232 14/63/232 20/56/232
f 27/58/23 26/474/23 25/59/23
f 20/49/233 26/474/233 27/58/233
f 14/52/234 24/473/234 28/61/234
f 14/63/235 25/475/235 26/64/235
f 15/65/236 29/55/236 31/57/236
f 21/66/237 24/45/237 32/67/237
f 23/34/238 32/51/238 29/53/238
f 22/38/239 19/37/239 31/68/239
f 16/20/240 36/472/240 35/42/240
f 13/18/241 17/470/241 33/39/241
f 13/69/242 34/471/242 36/36/242
f 17/24/243 18/23/243 35/70/243
f 63/71/244 37/476/244 40/72/244
f 40/74/245 42/125/245 62/75/245
f 41/77/246 37/127/246 63/78/246
f 59/80/247 47/139/247 39/81/247
f 42/83/248 41/129/248 64/84/248
f 60/86/249 58/128/249 43/87/249
f 57/89/250 39/140/250 43/90/250
f 59/92/251 60/126/251 46/93/251
f 45/95/252 51/477/252 52/96/252
f 54/98/253 55/124/253 44/99/253
f 56/101/254 48/113/254 38/102/254
f 65/104/255 68/478/255 47/94/255
f 53/105/256 38/115/256 44/106/256
f 51/108/257 50/116/257 49/109/257
f 45/100/258 44/99/258 50/111/258
f 48/113/259 52/479/259 49/114/259
f 38/115/260 49/109/260 50/116/260
f 66/117/261 53/105/261 55/107/261
f 45/95/262 48/97/262 56/119/262
f 68/121/263 56/101/263 53/103/263
f 65/123/264 67/138/264 55/124/264
f 42/125/265 40/74/265 60/126/265
f 41/77/266 57/89/266 58/91/266
f 40/72/267 37/476/267 58/128/267
f 42/83/268 59/80/268 57/82/268
f 62/85/269 64/84/269 71/130/269
f 71/132/270 64/79/270 63/78/270
f 61/76/271 62/75/271 70/134/271
f 72/136/272 63/71/272 61/73/272
f 46/88/273 43/87/273 67/138/273
f 47/139/274 68/121/274 66/122/274
f 39/140/275 66/117/275 67/118/275
f 54/120/276 56/119/276 68/141/276
f 76/143/277 72/136/277 69/137/277
f 69/135/278 70/134/278 74/145/278
f 71/132/279 72/133/279 76/147/279
f 70/131/280 71/130/280 75/149/280
f 78/151/281 91/182/281 90/152/281
f 80/154/282 92/480/282 91/155/282
f 76/147/283 84/481/283 83/157/283
f 76/143/284 73/144/284 79/158/284
f 80/160/285 81/175/285 83/161/285
f 82/162/286 83/161/286 84/163/286
f 79/165/287 81/174/287 80/154/287
f 84/166/288 79/482/288 78/167/288
f 82/169/289 77/483/289 90/170/289
f 80/160/290 82/162/290 88/172/290
f 73/146/291 74/145/291 81/174/291
f 75/149/292 83/161/292 81/175/292
f 85/176/2 86/179/2 89/177/2
f 86/179/2 91/182/2 92/180/2
f 87/178/2 88/181/2 90/152/2
f 87/178/2 89/177/2 92/180/2
f 85/176/2 90/152/2 91/182/2
f 103/183/293 97/484/293 98/184/293
f 94/186/2 95/485/2 96/187/2
f 101/189/294 98/203/294 100/190/294
f 99/192/295 97/200/295 103/193/295
f 100/195/296 99/205/296 104/196/296
f 98/184/297 97/484/297 105/198/297
f 97/200/298 99/192/298 109/201/298
f 98/203/299 108/253/299 110/204/299
f 99/205/300 100/195/300 110/206/300
f 102/197/301 104/196/301 96/208/301
f 104/196/302 103/486/302 93/210/302
f 101/189/303 102/191/303 95/211/303
f 93/213/304 103/183/304 101/185/304
f 125/215/305 127/255/305 115/216/305
f 126/218/306 111/487/306 114/219/306
f 126/221/307 125/254/307 107/222/307
f 128/224/308 114/237/308 115/225/308
f 113/227/309 119/488/309 120/228/309
f 122/230/310 123/252/310 112/231/310
f 121/233/311 124/489/311 116/234/311
f 122/236/312 124/490/312 115/225/312
f 123/238/313 121/491/313 106/239/313
f 119/241/314 118/492/314 117/242/314
f 112/231/315 118/493/315 119/244/315
f 106/235/316 116/234/316 120/245/316
f 112/240/317 106/239/317 117/247/317
f 107/222/318 121/491/318 123/238/318
f 116/229/319 124/490/319 122/236/319
f 115/249/320 124/494/320 121/250/320
f 114/219/321 111/487/321 123/252/321
f 108/253/322 128/224/322 127/226/322
f 105/202/323 109/201/323 125/254/323
f 108/199/324 105/198/324 126/218/324
f 109/207/325 110/206/325 127/255/325
f 159/256/326 133/495/326 136/257/326
f 130/259/2 131/496/2 132/260/2
f 157/262/327 136/313/327 138/263/327
f 137/265/328 133/314/328 159/266/328
f 155/268/329 143/327/329 135/269/329
f 138/271/330 137/317/330 160/272/330
f 156/274/331 154/316/331 139/275/331
f 154/277/332 153/315/332 135/278/332
f 155/280/333 156/497/333 142/281/333
f 144/283/334 141/308/334 147/284/334
f 150/286/335 151/312/335 140/287/335
f 152/289/336 144/302/336 134/290/336
f 164/292/337 143/282/337 142/281/337
f 151/294/338 149/306/338 134/295/338
f 147/297/339 146/498/339 145/298/339
f 141/288/340 140/287/340 146/300/340
f 144/302/341 148/499/341 145/303/341
f 134/295/342 145/500/342 146/304/342
f 163/305/343 162/328/343 149/306/343
f 144/283/344 152/329/344 150/307/344
f 164/309/345 152/289/345 149/291/345
f 161/311/346 163/326/346 151/312/346
f 136/313/347 156/497/347 155/280/347
f 133/314/348 137/265/348 153/315/348
f 136/257/349 133/495/349 154/316/349
f 137/317/350 138/271/350 155/268/350
f 158/273/351 160/272/351 132/318/351
f 160/267/352 159/266/352 129/320/352
f 130/322/353 157/262/353 158/264/353
f 159/256/354 157/258/354 130/324/354
f 142/276/355 139/275/355 163/326/355
f 143/327/356 164/309/356 162/310/356
f 139/279/357 135/278/357 162/328/357
f 152/329/358 164/292/358 161/293/358
f 195/330/359 169/386/359 172/331/359
f 165/333/2 166/501/2 167/334/2
f 193/336/360 172/384/360 174/337/360
f 173/339/361 169/385/361 195/340/361
f 189/342/362 191/388/362 179/343/362
f 174/345/363 173/387/363 196/346/363
f 192/348/364 190/502/364 175/349/364
f 189/351/365 171/503/365 175/352/365
f 191/354/366 192/504/366 178/355/366
f 177/357/367 183/505/367 184/358/367
f 186/360/368 187/383/368 176/361/368
f 188/363/369 180/376/369 170/364/369
f 188/366/370 179/356/370 178/355/370
f 187/368/371 185/506/371 170/369/371
f 184/371/372 183/507/372 182/372/372
f 177/362/373 176/361/373 182/374/373
f 180/376/374 184/508/374 181/377/374
f 176/370/375 170/369/375 181/378/375
f 175/380/376 171/509/376 185/381/376
f 180/359/377 188/366/377 186/367/377
f 179/343/378 188/363/378 185/365/378
f 178/350/379 175/349/379 187/383/379
f 172/384/380 192/504/380 191/354/380
f 169/385/381 173/339/381 189/351/381
f 169/386/382 190/502/382 192/348/382
f 173/387/383 174/345/383 191/388/383
f 194/347/384 196/346/384 168/389/384
f 196/341/385 195/340/385 165/391/385
f 193/336/386 194/338/386 167/393/386
f 165/395/387 195/330/387 193/332/387
f 201/397/388 202/413/388 205/398/388
f 198/400/2 199/510/2 200/401/2
f 205/403/389 202/511/389 204/404/389
f 203/406/390 201/415/390 207/407/390
f 206/409/391 204/512/391 203/410/391
f 201/397/392 209/513/392 212/412/392
f 203/406/393 213/466/393 209/414/393
f 204/404/394 202/511/394 212/416/394
f 203/418/395 204/514/395 214/419/395
f 206/409/396 208/411/396 200/421/396
f 208/408/397 207/407/397 197/423/397
f 205/403/398 206/405/398 199/425/398
f 197/427/399 207/399/399 205/398/399
f 229/429/400 231/515/400 219/430/400
f 232/432/401 230/467/401 215/433/401
f 229/435/402 211/516/402 215/436/402
f 232/438/403 218/451/403 219/439/403
f 220/441/404 217/464/404 223/442/404
f 226/444/405 227/465/405 216/445/405
f 228/447/406 220/460/406 210/448/406
f 228/450/407 219/439/407 218/451/407
f 225/453/408 210/462/408 216/454/408
f 224/456/409 223/459/409 222/457/409
f 217/446/410 216/445/410 222/457/410
f 220/460/411 224/517/411 221/461/411
f 210/462/412 221/518/412 222/463/412
f 215/436/413 211/516/413 225/453/413
f 217/464/414 220/441/414 228/450/414
f 219/430/415 228/447/415 225/449/415
f 218/434/416 215/433/416 227/465/416
f 214/417/417 212/416/417 232/438/417
f 213/466/418 229/435/418 230/437/418
f 212/412/419 209/513/419 230/467/419
f 214/419/420 231/515/420 229/429/420
