# Blender 4.2.1 LTS
# www.blender.org
mtllib grass_green_5.mtl
g grass_green_5_Mesh
v -0.118404 -0.067757 0.059425
v -0.016815 -0.111782 -0.003760
v -0.001184 -0.118557 0.094936
v -0.060629 -0.092795 0.119069
v -0.095108 0.088093 0.071927
v -0.020969 0.069412 0.028502
v -0.064481 0.045765 0.115124
v -0.005824 0.017258 0.105013
v -0.015358 0.000012 0.002486
v 0.010876 -0.012400 0.093935
v -0.100474 0.016312 0.054943
v -0.060834 -0.003638 0.105317
v -0.079951 0.109528 0.116813
v -0.022756 0.242849 0.337247
v -0.044356 0.168216 0.261627
v -0.033332 0.128285 0.096566
v -0.069269 0.111130 0.160097
v -0.015849 0.096153 0.145181
v -0.054517 0.201826 0.248169
v -0.027845 0.254775 0.329517
v -0.015483 0.263480 0.328220
v -0.021643 0.220861 0.240834
v -0.012580 0.175787 0.252006
v -0.010487 0.250227 0.336632
v -0.027745 0.257784 0.378821
v -0.029422 0.261752 0.374670
v -0.024112 0.264993 0.374047
v -0.022516 0.260569 0.378562
v -0.029249 0.205337 0.296889
v -0.015674 0.240798 0.279907
v -0.038219 0.226749 0.283522
v -0.007529 0.216252 0.294843
v -0.052558 0.138135 0.206473
v -0.074004 0.182020 0.192780
v -0.012679 0.141922 0.184355
v -0.033048 0.187083 0.178194
v -0.042110 0.071696 0.023552
v 0.037107 0.373535 0.162990
v 0.036692 0.185807 0.046549
v -0.054732 0.103694 -0.017300
v 0.002458 0.073637 0.010110
v 0.009453 0.083877 -0.018249
v 0.000372 0.195594 0.054998
v 0.026830 0.369912 0.164477
v 0.023196 0.383448 0.159654
v -0.005432 0.222492 0.033329
v 0.034952 0.209186 0.027027
v 0.034457 0.386811 0.158243
v 0.021162 0.399112 0.209874
v 0.016964 0.397463 0.208861
v 0.015922 0.403519 0.207198
v 0.020504 0.405054 0.208361
v 0.045991 0.327544 0.137917
v 0.018718 0.341955 0.131691
v 0.023259 0.325924 0.139768
v 0.043876 0.341865 0.130948
v 0.016137 0.108772 0.027065
v -0.025029 0.114265 0.043485
v 0.018061 0.132700 0.004595
v -0.037354 0.150316 0.013692
v -0.066724 0.059331 -0.051379
v 0.017344 0.021932 -0.054917
v -0.039546 0.055906 0.010450
v 0.012327 0.030857 -0.015685
v 0.006886 0.287239 0.075508
v 0.042189 0.266693 0.085686
v 0.012496 0.269182 0.090745
v 0.039794 0.281874 0.071835
v -0.078362 0.026835 -0.063408
v 0.012977 -0.013233 -0.067032
v 0.006595 -0.007092 -0.027929
v -0.049219 0.018381 0.000816
v -0.075591 -0.007527 -0.081613
v 0.007780 -0.040356 -0.063073
v 0.021970 -0.048202 -0.042358
v -0.042159 -0.019698 -0.009010
v -0.070189 -0.047822 0.031861
v -0.083858 -0.041898 -0.078440
v -0.076087 -0.030772 -0.082358
v 0.009700 -0.082444 -0.075126
v 0.007878 -0.051515 -0.071030
v 0.004030 -0.090028 -0.001689
v 0.023442 -0.070213 -0.031996
v -0.059897 -0.037788 0.006941
v -0.042828 -0.100509 -0.039428
v -0.038925 -0.102200 -0.088169
v -0.002759 -0.117874 -0.046364
v 0.025406 -0.130080 -0.027646
v -0.010407 -0.114560 -0.067915
v -0.053016 -0.096094 0.000120
v -0.047444 -0.098509 -0.094347
v 0.002408 -0.120113 -0.077414
v -0.099132 -0.076108 -0.051291
v -0.036450 -0.103273 0.031031
v -0.124342 -0.065183 0.073504
v -0.140055 -0.058373 0.006875
v -0.100910 0.076470 -0.058840
v -0.057167 0.068449 -0.003525
v -0.134943 0.067593 -0.022699
v -0.120999 0.059040 0.026336
v -0.057647 -0.010829 0.007669
v -0.132134 0.020512 0.043957
v -0.107427 0.017575 -0.058908
v -0.145658 0.031648 -0.014880
v -0.114996 0.172403 -0.058691
v -0.197911 0.394022 0.059301
v -0.167327 0.312925 -0.006431
v -0.081445 0.180833 -0.016612
v -0.138387 0.156688 -0.030647
v -0.126615 0.155743 0.006873
v -0.146490 0.322263 -0.017294
v -0.189643 0.400702 0.055356
v -0.183971 0.399290 0.065181
v -0.129158 0.317637 0.006585
v -0.154350 0.300808 0.015936
v -0.193143 0.392124 0.069045
v -0.205738 0.479847 0.069721
v -0.202194 0.482890 0.068567
v -0.199982 0.481317 0.072625
v -0.203905 0.478090 0.073707
v -0.187551 0.338404 0.033362
v -0.164887 0.349435 0.047171
v -0.175054 0.356073 0.030169
v -0.179360 0.330551 0.049395
v -0.160498 0.223024 -0.024447
v -0.141892 0.256545 -0.037276
v -0.131615 0.209505 0.008284
v -0.118391 0.252443 -0.001088
v 0.041531 -0.137068 -0.108899
v 0.073209 -0.150796 -0.029311
v -0.005725 -0.116589 0.002107
v -0.007683 -0.115740 -0.063290
v 0.069639 -0.032191 -0.094688
v 0.116803 0.282449 -0.072015
v 0.053686 0.134869 -0.049467
v 0.092589 -0.026597 -0.051313
v 0.041854 -0.034200 -0.073707
v 0.045232 -0.031487 -0.038175
v 0.076366 0.134418 -0.055844
v 0.125685 0.279692 -0.075399
v 0.129838 0.280527 -0.065629
v 0.086951 0.131629 -0.029392
v 0.059452 0.130212 -0.024983
v 0.120062 0.283474 -0.062370
v 0.169099 0.394617 -0.076269
v 0.170893 0.394132 -0.076818
v 0.171505 0.393802 -0.074836
v 0.169540 0.394340 -0.074324
v 0.078815 0.198590 -0.066455
v 0.101189 0.193965 -0.054942
v 0.094261 0.194190 -0.072273
v 0.083723 0.198810 -0.049862
v 0.030997 0.069524 -0.048795
v 0.056577 0.067411 -0.060337
v 0.032080 0.057680 -0.021585
v 0.067397 0.049974 -0.028366
v 0.092784 -0.082116 -0.037619
v 0.032991 -0.057023 -0.014147
v 0.072043 -0.067165 -0.097498
v 0.031731 -0.051873 -0.067178
v 0.159010 0.328337 -0.080961
v 0.152845 0.330550 -0.078958
v 0.156410 0.327860 -0.087208
v 0.150808 0.329924 -0.085119
v -0.136962 -0.059714 -0.121462
v -0.017528 -0.111473 -0.078205
v -0.092787 -0.078858 0.035605
v -0.126271 -0.064347 -0.004343
v -0.104837 0.085377 -0.130251
v -0.225279 0.350668 -0.234497
v -0.163047 0.235748 -0.113945
v -0.038600 0.092135 -0.116088
v -0.114798 0.118108 -0.072494
v -0.085372 0.123098 -0.045133
v -0.143477 0.217337 -0.157691
v -0.215018 0.342227 -0.242000
v -0.212201 0.359841 -0.249811
v -0.118196 0.258270 -0.162977
v -0.142956 0.274455 -0.115229
v -0.223413 0.368247 -0.241378
v -0.275184 0.354843 -0.296738
v -0.271000 0.351525 -0.300070
v -0.269210 0.359502 -0.302230
v -0.273864 0.362443 -0.298466
v -0.211546 0.330832 -0.186401
v -0.182193 0.331440 -0.213056
v -0.196126 0.312980 -0.208723
v -0.200853 0.348606 -0.188631
v -0.142329 0.153514 -0.099204
v -0.127714 0.128972 -0.152194
v -0.117078 0.191032 -0.090240
v -0.082961 0.173371 -0.155832
v -0.019737 -0.021382 -0.091470
v -0.083966 0.005161 0.006092
v -0.105632 0.024363 -0.116652
v -0.116768 0.028401 -0.032637
v -0.149514 0.281968 -0.184514
v -0.189816 0.278915 -0.151521
v -0.172718 0.261936 -0.184800
v -0.170907 0.298812 -0.148692
v -0.032697 -0.104900 0.086508
v -0.037005 -0.103033 -0.057157
v 0.068360 -0.148695 -0.000033
v 0.039571 -0.136219 0.079131
v 0.044241 0.090596 0.114141
v 0.065168 0.141180 0.026744
v 0.080817 0.019986 0.088425
v 0.108450 0.023716 0.023398
v -0.007250 0.038914 -0.031586
v 0.084797 -0.058145 -0.012613
v -0.013454 0.006035 0.083740
v 0.052783 -0.052670 0.064800
v 0.102289 0.109959 0.140218
v 0.347310 0.156984 0.188530
v 0.246089 0.107128 0.165052
v 0.122796 0.153311 0.076161
v 0.127050 0.054814 0.118016
v 0.149735 0.060139 0.069025
v 0.235925 0.149601 0.171231
v 0.340151 0.173450 0.190701
v 0.347325 0.182618 0.178533
v 0.250386 0.171305 0.136554
v 0.255177 0.117655 0.129322
v 0.354772 0.164436 0.176684
v 0.387388 0.154801 0.215762
v 0.383525 0.160980 0.215671
v 0.386430 0.164413 0.210368
v 0.390488 0.157591 0.210684
v 0.297227 0.135159 0.171358
v 0.296426 0.179807 0.152369
v 0.284944 0.164486 0.175351
v 0.309038 0.146482 0.149718
v 0.179517 0.095408 0.140366
v 0.165682 0.149618 0.158506
v 0.183731 0.123958 0.082631
v 0.181352 0.181974 0.106339
v 0.014963 -0.125554 -0.068065
v -0.076190 -0.086051 -0.037622
v -0.055271 -0.095117 -0.109307
v -0.003230 -0.117670 -0.110302
v 0.056054 0.019638 -0.090594
v 0.141309 0.109709 -0.276629
v 0.088153 0.083663 -0.194466
v 0.021406 0.064605 -0.080165
v 0.034516 0.011527 -0.117319
v 0.004238 0.036519 -0.121376
v 0.102535 0.099647 -0.180068
v 0.145816 0.114107 -0.268657
v 0.140418 0.126427 -0.269037
v 0.088016 0.132744 -0.180844
v 0.072014 0.109950 -0.196137
v 0.135765 0.121167 -0.277643
v 0.190158 0.153113 -0.310256
v 0.190671 0.153768 -0.308481
v 0.189509 0.156102 -0.308565
v 0.189002 0.155298 -0.310481
v 0.109133 0.104125 -0.234773
v 0.112442 0.136152 -0.226538
v 0.119436 0.113263 -0.223334
v 0.101665 0.124407 -0.238847
v 0.066460 0.055042 -0.147425
v 0.083990 0.068637 -0.127914
v 0.042351 0.075796 -0.147714
v 0.057958 0.100951 -0.120636
v -0.031081 -0.016698 -0.051640
v -0.044100 -0.011875 -0.117148
v 0.029933 -0.037177 -0.065236
v 0.007117 -0.029467 -0.111280
vn -0.4650 0.2776 -0.8407
vn -0.3976 -0.9175 -0.0000
vn 0.8313 0.5303 -0.1665
vn -0.8061 -0.1719 0.5663
vn 0.1154 -0.2899 0.9501
vn -0.2056 0.7214 -0.6613
vn -0.8853 -0.2256 0.4067
vn 0.9550 0.2216 -0.1970
vn 0.0726 -0.5617 0.8241
vn 0.3638 -0.0325 0.9309
vn -0.6908 0.1087 0.7148
vn 0.9801 -0.1129 -0.1630
vn -0.5102 0.0546 -0.8583
vn 0.3277 -0.8491 0.4143
vn -0.5271 0.7844 -0.3270
vn -0.8637 -0.2944 0.4091
vn 0.9041 0.3816 -0.1923
vn 0.8778 0.4584 0.1388
vn -0.5637 0.7485 -0.3492
vn 0.4073 -0.7007 0.5858
vn 0.9562 0.1743 -0.2350
vn -0.9278 -0.1866 0.3230
vn -0.2983 0.6269 0.7197
vn -0.5799 0.8033 -0.1357
vn 0.4540 -0.8198 0.3490
vn -0.9255 -0.3780 0.0261
vn -0.8825 -0.0803 0.4635
vn 0.9523 0.2747 -0.1328
vn 0.3530 -0.7159 0.6024
vn -0.5377 0.7814 -0.3166
vn 0.9577 0.1459 -0.2480
vn -0.9543 -0.1753 0.2420
vn -0.5018 0.7027 -0.5044
vn 0.3020 -0.8671 0.3961
vn -0.9151 -0.0591 0.3990
vn 0.1953 0.5179 -0.8329
vn 0.2054 -0.4702 0.8583
vn 0.9640 -0.2191 -0.1507
vn 0.9918 0.0592 0.1134
vn -0.8307 0.2294 0.5072
vn 0.3332 -0.2334 0.9135
vn -0.0632 0.2937 -0.9538
vn -0.3079 0.8633 -0.4000
vn -0.9314 -0.1288 0.3403
vn 0.9851 0.1666 0.0434
vn -0.0044 0.5464 -0.8375
vn 0.1054 -0.4935 0.8633
vn -0.3043 0.2032 0.9307
vn -0.9797 -0.1879 -0.0706
vn 0.9493 0.2551 0.1837
vn 0.1881 -0.8152 0.5478
vn 0.0721 -0.6599 0.7479
vn -0.0224 0.5604 -0.8279
vn 0.9914 0.0439 -0.1233
vn -0.9447 -0.1123 0.3083
vn 0.1116 0.4050 -0.9075
vn 0.2706 -0.4952 0.8256
vn -0.9007 0.0488 0.4316
vn 0.9146 -0.3959 0.0826
vn 0.9651 -0.1841 0.1864
vn 0.3067 -0.3339 0.8913
vn 0.0998 0.3130 -0.9445
vn -0.8905 0.1615 0.4253
vn -0.9479 -0.0265 0.3176
vn 0.9941 -0.0156 -0.1073
vn 0.1133 -0.4492 0.8862
vn -0.0180 0.7182 -0.6956
vn -0.8918 -0.2659 0.3661
vn 0.1493 -0.1708 -0.9739
vn 0.3943 -0.1695 0.9032
vn 0.8100 0.4393 -0.3885
vn -0.9172 -0.3874 0.0929
vn 0.1969 0.3806 -0.9035
vn 0.5546 0.3845 0.7379
vn -0.6228 0.7631 0.1729
vn 0.6988 -0.7150 -0.0199
vn 0.5877 0.6368 0.4991
vn 0.0939 0.1362 -0.9862
vn -0.5415 0.8332 0.1119
vn 0.0815 -0.5111 0.8557
vn 0.8868 -0.1450 -0.4388
vn 0.2269 0.0264 -0.9736
vn 0.8330 0.3261 -0.4471
vn 0.7781 -0.0924 -0.6212
vn 0.5037 0.2346 0.8314
vn -0.7408 0.0756 -0.6674
vn -0.8828 0.3809 0.2750
vn 0.7875 0.0993 -0.6083
vn -0.7334 -0.1066 -0.6714
vn 0.3901 0.2034 0.8980
vn -0.9542 -0.0102 0.2991
vn -0.9735 -0.0097 0.2286
vn -0.8287 -0.1179 -0.5471
vn 0.5210 0.3195 0.7915
vn 0.8003 0.0322 -0.5987
vn -0.8886 -0.1541 0.4321
vn 0.8321 0.1984 -0.5179
vn -0.5252 0.2137 -0.8237
vn 0.4763 0.0450 0.8782
vn 0.3890 -0.0013 0.9212
vn 0.8363 0.4389 -0.3288
vn -0.8714 -0.3311 0.3619
vn 0.5316 -0.3732 0.7604
vn -0.5748 0.2515 -0.7787
vn -0.4495 0.7226 0.5251
vn 0.8595 0.2101 -0.4660
vn -0.9213 -0.1286 0.3670
vn -0.3776 0.0905 -0.9215
vn -0.5646 0.4728 -0.6766
vn 0.4718 -0.1342 0.8714
vn -0.7343 -0.6762 0.0597
vn 0.6205 0.7814 -0.0660
vn 0.4530 0.0187 0.8913
vn -0.5887 0.0175 -0.8081
vn 0.6448 0.4643 -0.6071
vn -0.7728 -0.3094 0.5542
vn 0.9353 -0.0817 -0.3444
vn 0.4856 0.4642 0.7407
vn -0.5907 0.0406 -0.8059
vn -0.9076 0.3180 0.2742
vn -0.8734 0.4823 0.0676
vn 0.8828 -0.2166 -0.4169
vn -0.2653 0.1423 -0.9536
vn 0.1836 -0.0233 0.9827
vn 0.2174 -0.1272 0.9678
vn 0.8777 -0.3330 -0.3446
vn -0.8748 0.4131 0.2533
vn 0.3404 0.2890 0.8948
vn -0.3309 0.0873 -0.9396
vn 0.2808 0.9570 0.0726
vn 0.9374 -0.1495 -0.3144
vn -0.9318 0.2244 0.2854
vn -0.2739 0.2071 -0.9392
vn -0.3830 -0.1365 -0.9136
vn 0.3193 0.0113 0.9476
vn -0.8750 0.4126 0.2533
vn 0.8560 -0.3511 -0.3795
vn 0.1526 -0.1590 0.9754
vn -0.6004 0.1892 -0.7770
vn 0.9303 0.3442 -0.1271
vn -0.9863 -0.1281 0.1036
vn -0.8340 0.5508 0.0321
vn -0.5721 0.3067 -0.7607
vn 0.3736 0.0102 0.9275
vn 0.8690 -0.2957 -0.3969
vn -0.3512 -0.0055 -0.9363
vn -0.7708 0.6062 0.1961
vn 0.7769 -0.5639 -0.2802
vn 0.3400 0.0930 0.9358
vn 0.1883 -0.1782 -0.9658
vn 0.8391 0.2448 0.4858
vn -0.9909 -0.0358 -0.1296
vn -0.4112 0.0594 0.9096
vn -0.6297 0.3032 0.7153
vn -0.0433 -0.1016 -0.9939
vn -0.9661 -0.1836 -0.1814
vn 0.8706 0.3679 0.3267
vn 0.2866 0.8941 -0.3442
vn 0.5216 -0.4142 -0.7459
vn -0.7519 0.5055 0.4232
vn 0.6079 0.7940 -0.0103
vn -0.7050 -0.6809 -0.1982
vn -0.6500 -0.0593 -0.7576
vn 0.6397 -0.3314 -0.6935
vn -0.7301 0.3149 0.6065
vn -0.4591 -0.8329 0.3092
vn -0.8545 -0.4823 -0.1930
vn 0.6824 0.7309 0.0077
vn -0.4804 0.3417 0.8078
vn 0.2178 -0.3758 -0.9007
vn 0.7939 0.5469 0.2657
vn -0.8995 -0.4280 0.0874
vn 0.2293 -0.3239 -0.9179
vn -0.5558 0.1801 0.8116
vn -0.6714 0.3074 0.6744
vn -0.9869 0.1302 0.0952
vn 0.8428 0.0986 0.5291
vn 0.2862 -0.1327 -0.9489
vn 0.3249 -0.3639 -0.8729
vn -0.5617 0.3169 0.7642
vn -0.7996 -0.5906 -0.1091
vn 0.7725 0.6107 0.1742
vn -0.8388 0.5338 0.1071
vn 0.4422 0.2510 -0.8611
vn -0.0016 -0.3087 0.9512
vn 0.8343 -0.4054 0.3737
vn -0.4732 0.8069 0.3537
vn -0.2356 -0.4521 0.8603
vn 0.6122 0.2470 -0.7511
vn 0.5295 -0.8341 0.1545
vn 0.9318 -0.0869 0.3525
vn 0.1613 0.1420 0.9766
vn 0.3999 -0.1970 -0.8951
vn -0.9847 0.1716 0.0318
vn 0.2463 -0.9449 -0.2157
vn -0.0869 0.8603 0.5023
vn -0.1670 -0.3509 0.9214
vn 0.5499 0.1596 -0.8199
vn 0.6763 0.3729 -0.6353
vn -0.2848 0.8388 0.4640
vn 0.4500 -0.8683 -0.2087
vn 0.2888 0.1841 -0.9395
vn -0.2271 -0.2242 0.9477
vn 0.6546 0.4185 0.6296
vn -0.0817 0.8186 0.5685
vn 0.2040 -0.9052 -0.3728
vn -0.5406 -0.3367 0.7709
vn -0.0374 -0.1502 0.9880
vn 0.4343 0.2336 -0.8700
vn 0.4889 -0.8626 -0.1298
vn -0.3022 0.8559 0.4196
vn 0.1627 0.1220 -0.9791
vn -0.0643 -0.3314 0.9413
vn -0.5440 0.7764 0.3181
vn 0.5569 -0.8131 0.1695
vn 0.2956 0.2728 0.9156
vn -0.6866 0.7023 0.1882
vn 0.7133 -0.5422 -0.4442
vn -0.5147 -0.6063 -0.6062
vn 0.0621 -0.1483 -0.9870
vn 0.7547 0.3442 0.5585
vn 0.7085 -0.6880 -0.1572
vn -0.8061 0.5864 -0.0802
vn -0.5995 0.7851 -0.1558
vn 0.8238 0.3175 0.4696
vn -0.7031 -0.3926 -0.5929
vn -0.6695 0.6762 -0.3074
vn 0.4667 -0.8466 0.2559
vn 0.8307 0.3996 -0.3877
vn 0.4958 0.2764 0.8233
vn -0.3786 -0.2617 -0.8878
vn 0.6926 -0.7184 0.0646
vn 0.7146 -0.6969 0.0598
vn -0.3842 0.8123 -0.4388
vn -0.6763 -0.4521 -0.5816
vn 0.8262 0.3176 0.4653
vn -0.7529 0.6458 -0.1265
vn 0.7498 -0.6145 -0.2455
vn 0.5697 0.2853 0.7708
vn -0.2372 -0.4289 -0.8716
vn -0.0228 -0.0084 -0.9997
vn 0.8998 -0.1392 -0.4135
vn -0.8260 0.4764 -0.3013
vn 0.3124 -0.0112 0.9499
vn -0.4457 0.2375 -0.8631
vn 0.9862 0.1218 -0.1122
vn -0.8425 -0.0636 0.5350
vn 0.0771 -0.1886 0.9790
vn -0.4541 0.8539 -0.2544
vn -0.9417 -0.2349 0.2411
vn 0.9707 0.2382 -0.0298
vn -0.0708 -0.4597 0.8852
vn 0.1729 0.1505 0.9734
vn -0.7332 0.1912 0.6526
vn 0.9613 0.0029 -0.2754
vn -0.5146 0.0642 -0.8550
vn 0.3159 -0.8486 0.4243
vn -0.2100 0.9417 -0.2628
vn -0.9509 -0.1895 0.2448
vn 0.9602 0.1321 -0.2461
vn 0.8887 0.4322 0.1531
vn -0.5354 0.7695 -0.3481
vn 0.4392 -0.6816 0.5852
vn 0.9615 0.1339 -0.2399
vn -0.9277 -0.1870 0.3230
vn -0.5278 0.8364 -0.1477
vn 0.4972 -0.7984 0.3396
vn -0.9287 -0.3701 0.0215
vn -0.8824 -0.0812 0.4635
vn 0.9620 0.2413 -0.1281
vn 0.4028 -0.6886 0.6030
vn -0.5273 0.7897 -0.3137
vn 0.8917 0.3658 -0.2666
vn -0.8454 -0.2692 0.4614
vn -0.3151 0.6988 -0.6422
vn 0.0292 -0.6511 0.7584
vn -0.9638 -0.2446 0.1062
vn 0.1649 0.5724 -0.8032
vn 0.2562 -0.5923 0.7639
vn 0.9582 -0.1381 -0.2507
vn 0.9632 0.0648 0.2610
vn -0.8155 0.1767 0.5511
vn 0.1457 -0.2789 0.9492
vn -0.0555 0.2849 -0.9570
vn -0.1957 0.8924 -0.4067
vn -0.9410 -0.1044 0.3218
vn 0.9799 0.1992 0.0101
vn 0.0392 0.5224 -0.8518
vn 0.2732 -0.4192 0.8658
vn -0.3042 0.2033 0.9307
vn -0.9608 -0.2736 -0.0438
vn 0.9644 0.1602 0.2102
vn 0.3486 -0.7679 0.5374
vn 0.1076 -0.6514 0.7511
vn -0.2455 0.4651 -0.8506
vn 0.9866 0.0754 -0.1446
vn -0.9579 -0.0608 0.2807
vn 0.0354 0.5441 -0.8383
vn 0.2624 -0.5003 0.8251
vn -0.8969 0.1684 0.4090
vn 0.9875 -0.1426 -0.0673
vn 0.9651 -0.2003 0.1690
vn 0.3043 -0.3097 0.9008
vn 0.0998 0.3138 -0.9442
vn -0.9051 0.1293 0.4050
vn -0.9590 0.0207 0.2826
vn 0.9891 0.0236 -0.1452
vn 0.0898 -0.4387 0.8941
vn 0.0346 0.7003 -0.7130
vn -0.8916 -0.2608 0.3702
vn 0.1727 0.4720 -0.8645
vn 0.3929 -0.1608 0.9054
vn 0.9701 -0.1591 0.1833
vn -0.8451 -0.5334 -0.0362
vn 0.3199 -0.0044 -0.9474
vn 0.4891 0.2557 0.8339
vn -0.9079 0.0059 0.4191
vn 0.9397 0.0987 -0.3274
vn 0.5193 0.5239 0.6752
vn 0.0382 -0.3555 -0.9339
vn -0.7730 0.6060 0.1878
vn 0.0828 -0.5268 0.8460
vn 0.9050 0.4103 0.1123
vn 0.2457 0.5642 -0.7882
vn 0.8950 -0.1396 -0.4237
vn 0.7755 -0.0851 -0.6256
vn 0.4052 0.1254 0.9056
vn -0.7355 0.0822 -0.6725
vn -0.8901 0.3330 0.3112
vn 0.7656 0.1134 -0.6332
vn -0.7140 -0.0895 -0.6944
vn 0.3700 0.1859 0.9102
vn -0.9619 -0.0008 0.2734
vn -0.9748 -0.0068 0.2228
vn -0.7706 -0.1946 -0.6069
vn 0.5204 0.3203 0.7916
vn 0.8054 0.0231 -0.5923
vn -0.7749 -0.2419 0.5839
vn 0.8090 0.2221 -0.5442
vn -0.6756 0.0952 -0.7311
vn 0.3751 -0.0470 0.9258
vn 0.2888 -0.0305 0.9569
vn 0.7893 0.4765 -0.3872
vn -0.9008 -0.3014 0.3125
vn 0.5726 -0.3516 0.7406
vn -0.5665 0.2593 -0.7822
vn -0.4495 0.7226 0.5252
vn 0.8908 0.2015 -0.4073
vn -0.9001 -0.1351 0.4141
vn -0.4713 0.0638 -0.8797
vn -0.6991 0.3856 -0.6022
vn 0.3957 -0.1976 0.8969
vn -0.7378 -0.6734 0.0471
vn 0.5470 0.8015 -0.2417
vn 0.4664 0.0491 0.8832
vn -0.7071 -0.1716 -0.6859
vn 0.7962 0.3753 -0.4745
vn -0.9504 -0.0962 0.2958
vn 0.8743 0.0983 -0.4753
vn 0.2375 0.2334 0.9429
vn -0.6035 0.0226 -0.7970
vn -0.9154 0.3544 0.1907
vn -0.8600 0.5085 0.0429
vn 0.8928 -0.2380 -0.3823
vn -0.3989 0.1292 -0.9078
vn 0.1595 -0.0258 0.9869
vn 0.2605 -0.1391 0.9554
vn 0.8737 -0.3340 -0.3536
vn -0.8753 0.4129 0.2519
vn 0.1364 0.2948 0.9458
vn -0.3294 0.0869 -0.9402
vn 0.2809 0.9570 0.0726
vn 0.9176 -0.1424 -0.3710
vn -0.9419 0.2286 0.2461
vn -0.2377 0.1973 -0.9511
vn -0.2705 -0.1470 -0.9514
vn 0.2842 0.0196 0.9586
vn -0.8677 0.4093 0.2822
vn 0.8662 -0.3558 -0.3509
vn 0.2806 -0.1897 0.9409
vn -0.3928 0.1757 -0.9027
vn 0.8350 0.2741 -0.4772
vn -0.9896 -0.1418 -0.0223
vn -0.8469 0.5270 0.0713
vn -0.4790 0.3410 -0.8089
vn 0.3681 0.0075 0.9297
vn 0.8688 -0.3172 -0.3802
vn -0.3567 -0.0024 -0.9342
vn -0.7718 0.6057 0.1937
vn 0.7761 -0.5641 -0.2817
vn 0.3381 0.0940 0.9364
vn 0.2251 -0.2148 -0.9504
vn 0.8559 0.2146 0.4705
vn -0.9872 -0.0223 -0.1576
vn -0.3004 0.1870 0.9353
vn -0.6748 0.3120 0.6688
vn -0.0166 -0.0650 -0.9977
vn -0.9144 -0.2824 -0.2902
vn 0.8573 0.3846 0.3423
vn 0.3498 0.8537 -0.3859
vn 0.4634 -0.5184 -0.7187
vn -0.8446 0.2705 0.4620
vn 0.6180 0.7843 0.0546
vn -0.7783 -0.6269 -0.0363
vn -0.6501 -0.0593 -0.7576
vn 0.6281 -0.3972 -0.6691
vn -0.7351 0.2692 0.6222
vn -0.4385 -0.8490 0.2947
vn -0.8502 -0.4882 -0.1969
vn 0.6143 0.7884 0.0308
vn -0.4545 0.3748 0.8081
vn 0.2727 -0.3029 -0.9132
vn 0.7826 0.5602 0.2715
vn -0.8065 -0.5891 0.0504
vn 0.2505 -0.3272 -0.9112
vn -0.6867 0.1515 0.7109
vn -0.6413 0.2832 0.7131
vn -0.9252 0.3528 -0.1396
vn 0.8432 0.0972 0.5287
vn 0.2605 -0.0419 -0.9646
vn 0.3334 -0.3204 -0.8867
vn -0.5358 0.4038 0.7415
vn -0.7994 -0.5908 -0.1093
vn 0.7784 0.6044 0.1699
vn -0.8393 0.5330 0.1075
vn 0.4416 0.1877 -0.8774
vn 0.0037 -0.3405 0.9402
vn 0.8389 -0.4315 0.3317
vn -0.4464 0.8009 0.3991
vn -0.2290 -0.4357 0.8705
vn 0.6043 0.2331 -0.7619
vn 0.5324 -0.8274 0.1788
vn 0.9154 -0.1125 0.3865
vn 0.2579 -0.0206 0.9659
vn 0.3068 0.1061 -0.9458
vn -0.9789 0.2042 0.0056
vn 0.1983 -0.8843 -0.4228
vn -0.0913 0.8583 0.5049
vn -0.3075 -0.2086 0.9284
vn 0.4203 0.3580 -0.8338
vn 0.6839 0.3455 -0.6426
vn -0.2620 0.8583 0.4413
vn 0.4726 -0.8490 -0.2363
vn 0.2775 0.1526 -0.9485
vn -0.2274 -0.2238 0.9477
vn -0.0552 0.8516 0.5212
vn 0.2246 -0.8823 -0.4136
vn -0.5430 -0.3282 0.7729
vn -0.0380 -0.1528 0.9875
vn 0.4135 0.2581 -0.8731
vn 0.5125 -0.8433 -0.1615
vn -0.2961 0.8603 0.4150
vn 0.2740 0.3734 -0.8863
vn -0.0775 -0.4021 0.9123
vn -0.5672 0.7549 0.3293
vn 0.8854 -0.4391 -0.1525
vn 0.3794 0.0785 0.9219
vn -0.8426 0.5384 -0.0159
vn 0.7322 -0.5284 -0.4297
vn -0.6125 -0.4187 -0.6705
vn 0.0079 -0.1509 -0.9885
vn 0.7159 0.4581 0.5269
vn 0.7614 -0.6469 -0.0424
vn -0.7917 0.6062 -0.0751
vn -0.6048 0.7788 -0.1664
vn 0.8014 0.3657 0.4733
vn -0.7101 -0.3805 -0.5924
vn -0.6256 0.7597 -0.1772
vn 0.4449 -0.8665 0.2265
vn 0.5105 0.2491 0.8230
vn -0.3649 -0.2840 -0.8867
vn 0.6740 -0.7383 0.0262
vn 0.6766 -0.7360 -0.0215
vn -0.3253 0.8748 -0.3590
vn -0.6953 -0.3787 -0.6109
vn 0.8200 0.3699 0.4367
vn -0.7700 0.6235 -0.1355
vn 0.6493 -0.6931 -0.3129
vn 0.5745 0.2629 0.7752
vn -0.2774 -0.3348 -0.9006
vn 0.0779 -0.1039 -0.9915
vn 0.8834 -0.1087 -0.4559
vn -0.9677 0.1490 0.2033
vn 0.1963 -0.0646 0.9784
vt 0.195051 0.054320
vt 0.201653 0.052992
vt 0.201956 0.056119
vt 0.182371 0.030646
vt 0.188409 0.038147
vt 0.182371 0.039751
vt 0.196972 0.053348
vt 0.201693 0.047389
vt 0.202596 0.049171
vt 0.200014 0.049677
vt 0.202799 0.054247
vt 0.198552 0.052066
vt 0.186150 0.042334
vt 0.190226 0.043133
vt 0.184975 0.044140
vt 0.195765 0.051462
vt 0.199481 0.047626
vt 0.202739 0.047269
vt 0.204457 0.050501
vt 0.196629 0.043459
vt 0.200622 0.042232
vt 0.190336 0.040354
vt 0.186943 0.037628
vt 0.190891 0.036360
vt 0.190891 0.047801
vt 0.186453 0.049777
vt 0.200147 0.057606
vt 0.194717 0.054936
vt 0.200660 0.057952
vt 0.206197 0.053139
vt 0.192711 0.056397
vt 0.200663 0.059154
vt 0.190332 0.030255
vt 0.192909 0.033291
vt 0.190923 0.034261
vt 0.197703 0.041135
vt 0.194337 0.036881
vt 0.196918 0.036174
vt 0.198888 0.041417
vt 0.199389 0.036890
vt 0.201774 0.040624
vt 0.198593 0.036956
vt 0.203162 0.033632
vt 0.201001 0.038451
vt 0.204753 0.026381
vt 0.205775 0.023811
vt 0.206197 0.023752
vt 0.196341 0.033131
vt 0.194194 0.029966
vt 0.195139 0.029573
vt 0.192993 0.036451
vt 0.191898 0.039733
vt 0.191688 0.036772
vt 0.203959 0.029871
vt 0.200768 0.032448
vt 0.202139 0.029674
vt 0.198185 0.033968
vt 0.195870 0.030515
vt 0.196810 0.030484
vt 0.193090 0.026643
vt 0.192781 0.027011
vt 0.192711 0.026807
vt 0.193183 0.026857
vt 0.192011 0.042776
vt 0.191697 0.042836
vt 0.195099 0.028037
vt 0.196527 0.034050
vt 0.203739 0.026290
vt 0.194602 0.033728
vt 0.200522 0.044963
vt 0.195618 0.047819
vt 0.189184 0.026971
vt 0.192824 0.028294
vt 0.197241 0.059011
vt 0.201750 0.057825
vt 0.202893 0.062305
vt 0.180472 0.039878
vt 0.187829 0.036277
vt 0.188986 0.041542
vt 0.195454 0.051543
vt 0.199516 0.053011
vt 0.194040 0.055426
vt 0.194529 0.052630
vt 0.196381 0.047315
vt 0.197264 0.053007
vt 0.194260 0.056782
vt 0.196429 0.059999
vt 0.193509 0.062532
vt 0.200744 0.053452
vt 0.198226 0.048719
vt 0.201119 0.048443
vt 0.194440 0.048366
vt 0.196353 0.041804
vt 0.198726 0.047546
vt 0.182822 0.031314
vt 0.189247 0.025986
vt 0.188297 0.032128
vt 0.194728 0.031224
vt 0.193894 0.026288
vt 0.195865 0.031144
vt 0.197828 0.035905
vt 0.196249 0.032403
vt 0.197278 0.031889
vt 0.197944 0.033369
vt 0.199414 0.029755
vt 0.199075 0.033934
vt 0.189266 0.019584
vt 0.185249 0.025371
vt 0.186058 0.019504
vt 0.193529 0.028858
vt 0.195849 0.025052
vt 0.195745 0.029085
vt 0.197767 0.020782
vt 0.197338 0.020841
vt 0.197352 0.020578
vt 0.194404 0.028057
vt 0.194808 0.027802
vt 0.198500 0.029142
vt 0.202240 0.025737
vt 0.197720 0.021039
vt 0.192871 0.035432
vt 0.195813 0.035307
vt 0.196688 0.034925
vt 0.194281 0.035064
vt 0.195078 0.040045
vt 0.196825 0.040324
vt 0.200188 0.042314
vt 0.196425 0.036372
vt 0.181413 0.035660
vt 0.200016 0.051367
vt 0.196655 0.053819
vt 0.196932 0.055981
vt 0.196697 0.062958
vt 0.193703 0.065318
vt 0.200318 0.055880
vt 0.194408 0.058426
vt 0.179617 0.042616
vt 0.188862 0.044378
vt 0.196767 0.061644
vt 0.202868 0.064778
vt 0.198136 0.042473
vt 0.193868 0.046806
vt 0.193459 0.041859
vt 0.195716 0.064474
vt 0.202735 0.067864
vt 0.180122 0.045492
vt 0.188703 0.046191
vt 0.199520 0.058621
vt 0.192720 0.061518
vt 0.194952 0.066796
vt 0.197161 0.066338
vt 0.196775 0.035885
vt 0.199730 0.044573
vt 0.195360 0.046637
vt 0.189266 0.049426
vt 0.183768 0.051798
vt 0.179741 0.047865
vt 0.198132 0.062549
vt 0.198848 0.067214
vt 0.201867 0.069230
vt 0.194404 0.064377
vt 0.195482 0.070047
vt 0.201874 0.066851
vt 0.199906 0.062798
vt 0.202240 0.062137
vt 0.188772 0.047196
vt 0.192870 0.042455
vt 0.191467 0.050154
vt 0.191467 0.040593
vt 0.194970 0.057364
vt 0.198070 0.052740
vt 0.197171 0.061180
vt 0.201404 0.070768
vt 0.196559 0.072487
vt 0.180332 0.047121
vt 0.194686 0.067892
vt 0.201050 0.041172
vt 0.203351 0.039479
vt 0.203342 0.041730
vt 0.202211 0.036721
vt 0.204226 0.038974
vt 0.204493 0.044333
vt 0.201873 0.035885
vt 0.195976 0.046015
vt 0.201349 0.045408
vt 0.201810 0.048365
vt 0.201988 0.057749
vt 0.196922 0.051481
vt 0.201988 0.050046
vt 0.186440 0.055235
vt 0.190470 0.050633
vt 0.192135 0.052499
vt 0.201277 0.066649
vt 0.203837 0.070103
vt 0.199888 0.068336
vt 0.198302 0.042601
vt 0.201988 0.043383
vt 0.197830 0.045026
vt 0.196378 0.043967
vt 0.200146 0.039996
vt 0.204915 0.067040
vt 0.202557 0.062056
vt 0.205324 0.061871
vt 0.185290 0.051026
vt 0.189271 0.045445
vt 0.201836 0.041285
vt 0.198540 0.037186
vt 0.201338 0.036479
vt 0.201511 0.048492
vt 0.196720 0.050046
vt 0.198075 0.072760
vt 0.202780 0.074979
vt 0.193427 0.057084
vt 0.186729 0.060371
vt 0.196406 0.050021
vt 0.203681 0.052661
vt 0.200573 0.033248
vt 0.196720 0.029913
vt 0.198375 0.028921
vt 0.197241 0.034478
vt 0.200771 0.031894
vt 0.200347 0.035135
vt 0.203904 0.056872
vt 0.201786 0.053188
vt 0.203539 0.053030
vt 0.187568 0.040384
vt 0.189988 0.037280
vt 0.189133 0.042492
vt 0.192605 0.031441
vt 0.193427 0.026932
vt 0.193390 0.031698
vt 0.201133 0.027801
vt 0.203369 0.025063
vt 0.202550 0.028257
vt 0.193184 0.043334
vt 0.191635 0.040041
vt 0.192410 0.040183
vt 0.191249 0.034421
vt 0.187901 0.036722
vt 0.200202 0.050233
vt 0.198075 0.047570
vt 0.198791 0.047344
vt 0.192845 0.035473
vt 0.193116 0.035689
vt 0.192786 0.035684
vt 0.202547 0.024906
vt 0.203681 0.020906
vt 0.198225 0.042805
vt 0.198509 0.042690
vt 0.195658 0.076848
vt 0.197001 0.073749
vt 0.197625 0.077225
vt 0.185353 0.044743
vt 0.201883 0.058289
vt 0.196305 0.039468
vt 0.197882 0.034422
vt 0.188009 0.048220
vt 0.191451 0.045709
vt 0.192721 0.048539
vt 0.189858 0.047513
vt 0.194401 0.042563
vt 0.196187 0.047299
vt 0.184806 0.056335
vt 0.188860 0.054698
vt 0.189687 0.056540
vt 0.197585 0.038657
vt 0.200693 0.039827
vt 0.196958 0.039775
vt 0.185014 0.036425
vt 0.182634 0.032860
vt 0.184460 0.032535
vt 0.184372 0.040947
vt 0.186736 0.042025
vt 0.182948 0.042856
vt 0.189371 0.041933
vt 0.191877 0.037921
vt 0.191936 0.042588
vt 0.196799 0.033009
vt 0.195404 0.029507
vt 0.197061 0.029090
vt 0.188940 0.050141
vt 0.190907 0.046198
vt 0.191572 0.050550
vt 0.187059 0.033309
vt 0.186959 0.029702
vt 0.187110 0.029720
vt 0.190118 0.034322
vt 0.188828 0.029269
vt 0.189597 0.029134
vt 0.183771 0.028477
vt 0.184515 0.023117
vt 0.185037 0.028452
vt 0.189991 0.041873
vt 0.189001 0.045506
vt 0.188640 0.041704
vt 0.197961 0.025625
vt 0.198261 0.020544
vt 0.198972 0.020517
vt 0.192662 0.069090
vt 0.192521 0.068937
vt 0.192661 0.068943
vt 0.189000 0.025879
vt 0.189195 0.022237
vt 0.189348 0.022242
vt 0.184248 0.019549
vt 0.183565 0.015970
vt 0.184724 0.019573
vt 0.200242 0.017397
vt 0.200438 0.013613
vt 0.200693 0.017397
vt 0.196733 0.025692
vt 0.188763 0.036606
vt 0.187996 0.036519
vt 0.189782 0.038013
vt 0.200001 0.038034
vt 0.186973 0.040769
vt 0.187331 0.046425
vt 0.182634 0.047172
vt 0.200002 0.044123
vt 0.195135 0.043906
vt 0.185102 0.060381
vt 0.191572 0.060601
vt 0.186871 0.052567
vt 0.193202 0.052567
vt 0.183769 0.023075
vt 0.188509 0.025961
vt 0.199280 0.065746
vt 0.205314 0.064539
vt 0.203961 0.070979
vt 0.192428 0.045056
vt 0.196156 0.036030
vt 0.201641 0.042702
vt 0.195899 0.066682
vt 0.203646 0.072010
vt 0.195032 0.071954
vt 0.189610 0.050474
vt 0.193408 0.052086
vt 0.191200 0.055949
vt 0.188054 0.046702
vt 0.189815 0.043222
vt 0.190796 0.047432
vt 0.187066 0.051982
vt 0.188987 0.059170
vt 0.204152 0.058465
vt 0.201204 0.054655
vt 0.203821 0.053344
vt 0.189125 0.046038
vt 0.191547 0.042078
vt 0.193255 0.045162
vt 0.201692 0.061059
vt 0.198280 0.056107
vt 0.202316 0.056350
vt 0.198736 0.044779
vt 0.196423 0.040496
vt 0.196859 0.040339
vt 0.201128 0.046809
vt 0.199096 0.044608
vt 0.199667 0.043667
vt 0.190678 0.034640
vt 0.193333 0.031999
vt 0.191706 0.035321
vt 0.201584 0.052988
vt 0.198388 0.053078
vt 0.191188 0.035018
vt 0.191097 0.031564
vt 0.192050 0.031980
vt 0.195673 0.040671
vt 0.195192 0.040861
vt 0.195452 0.040501
vt 0.195374 0.041046
vt 0.192915 0.030990
vt 0.197761 0.028161
vt 0.193459 0.026444
vt 0.188521 0.038507
vt 0.191417 0.038405
vt 0.197704 0.045223
vt 0.200912 0.048510
vt 0.198506 0.048933
vt 0.189389 0.038930
vt 0.191068 0.039347
vt 0.202228 0.050785
vt 0.199789 0.047380
vt 0.202344 0.066369
vt 0.196214 0.060592
vt 0.189065 0.049394
vt 0.193459 0.048267
vt 0.200726 0.062587
vt 0.193640 0.060882
vt 0.191086 0.063828
vt 0.197761 0.054781
vt 0.204479 0.075294
vt 0.194394 0.075294
vt 0.195192 0.068614
vt 0.202018 0.075560
vt 0.200221 0.051041
vt 0.187628 0.041876
vt 0.187908 0.042454
vt 0.188558 0.058211
vt 0.197701 0.065358
vt 0.189063 0.064669
vt 0.192828 0.055387
vt 0.187825 0.061860
vt 0.189329 0.056017
vt 0.181100 0.058064
vt 0.186687 0.050454
vt 0.189323 0.055244
vt 0.187374 0.051022
vt 0.190695 0.057013
vt 0.185059 0.055195
vt 0.193806 0.041035
vt 0.199300 0.044401
vt 0.193454 0.045797
vt 0.192650 0.053484
vt 0.195592 0.057009
vt 0.192376 0.050614
vt 0.187403 0.046601
vt 0.191184 0.046002
vt 0.179617 0.049378
vt 0.186838 0.045618
vt 0.198857 0.040123
vt 0.194824 0.036208
vt 0.198725 0.035684
vt 0.188393 0.056098
vt 0.192176 0.059762
vt 0.188567 0.061798
vt 0.186819 0.060930
vt 0.182293 0.057729
vt 0.186188 0.064384
vt 0.192711 0.058041
vt 0.197161 0.073414
vt 0.187066 0.070355
vt 0.197853 0.031042
vt 0.194376 0.026940
vt 0.197071 0.026349
vt 0.199698 0.056973
vt 0.196155 0.060223
vt 0.195953 0.057237
vt 0.187291 0.041869
vt 0.187738 0.036318
vt 0.190500 0.040769
vt 0.185415 0.041641
vt 0.186147 0.034897
vt 0.188743 0.036373
vt 0.190868 0.028209
vt 0.192235 0.025303
vt 0.192711 0.025267
vt 0.192398 0.046661
vt 0.190463 0.044101
vt 0.191570 0.043973
vt 0.193499 0.022613
vt 0.194548 0.018889
vt 0.195406 0.022713
vt 0.189728 0.032062
vt 0.187710 0.031709
vt 0.184524 0.033112
vt 0.184668 0.029079
vt 0.186365 0.032958
vt 0.191544 0.067648
vt 0.192122 0.067339
vt 0.191993 0.067761
vt 0.192625 0.064776
vt 0.191665 0.067187
vt 0.191544 0.064384
vt 0.194525 0.015801
vt 0.194986 0.015846
vt 0.183624 0.029148
vt 0.182719 0.026177
vt 0.189744 0.028030
vt 0.192497 0.049033
vt 0.190389 0.046757
vt 0.181544 0.044215
vt 0.187066 0.050494
vt 0.191317 0.049571
vt 0.199914 0.048783
vt 0.203153 0.055273
vt 0.199199 0.052809
vt 0.201704 0.053660
vt 0.196709 0.053676
vt 0.200417 0.052367
vt 0.183198 0.048086
vt 0.185248 0.042188
vt 0.187436 0.046041
vt 0.201430 0.039755
vt 0.203463 0.043882
vt 0.200011 0.042305
vt 0.196138 0.042366
vt 0.198431 0.038373
vt 0.198219 0.042146
vt 0.195389 0.046302
vt 0.197879 0.048879
vt 0.194394 0.050045
vt 0.202746 0.044817
vt 0.199892 0.040872
vt 0.201914 0.040327
vt 0.201706 0.036199
vt 0.202026 0.032444
vt 0.203753 0.035955
vt 0.182247 0.037878
vt 0.186235 0.033899
vt 0.184894 0.038202
vt 0.188363 0.026967
vt 0.188863 0.022061
vt 0.189134 0.026990
vt 0.199157 0.038182
vt 0.198179 0.035244
vt 0.200379 0.037579
vt 0.198889 0.035185
vt 0.199785 0.031788
vt 0.200499 0.032007
vt 0.186354 0.029930
vt 0.184345 0.033135
vt 0.199253 0.030276
vt 0.198999 0.028097
vt 0.200472 0.030077
vt 0.199040 0.024081
vt 0.199199 0.024196
vt 0.199067 0.024174
vt 0.196391 0.030705
vt 0.196540 0.030672
vt 0.201704 0.027208
vt 0.200365 0.032926
vt 0.187669 0.030280
vt 0.196600 0.038032
vt 0.181633 0.042279
vt 0.203970 0.039952
vt 0.203514 0.049095
vt 0.200106 0.044549
vt 0.197964 0.046140
vt 0.198291 0.046643
vt 0.201332 0.048170
vt 0.189134 0.048871
vt 0.185169 0.052644
vt 0.196391 0.056505
vt 0.202756 0.060211
vt 0.189220 0.033300
vt 0.195638 0.049310
vt 0.194550 0.041238
vt 0.197249 0.037436
vt 0.192620 0.039593
vt 0.194717 0.027971
vt 0.192993 0.025372
vt 0.196994 0.057294
vt 0.192720 0.042484
vt 0.193459 0.026477
vt 0.194825 0.024814
vt 0.201889 0.025436
vt 0.196591 0.042086
vt 0.188971 0.052178
vt 0.192413 0.050132
vt 0.194970 0.048826
vt 0.194839 0.056069
vt 0.198674 0.031298
vt 0.193109 0.026811
vt 0.191832 0.043340
vt 0.192429 0.035249
vt 0.199155 0.051021
vt 0.193184 0.035495
vt 0.203349 0.020808
vt 0.195658 0.073414
vt 0.187934 0.046526
vt 0.189858 0.041003
vt 0.185517 0.053317
vt 0.183095 0.037279
vt 0.194770 0.033388
vt 0.186569 0.033273
vt 0.188755 0.034462
vt 0.192511 0.069090
vt 0.183420 0.015992
vt 0.200300 0.013622
vt 0.192428 0.034999
vt 0.191926 0.049024
vt 0.200161 0.059338
vt 0.188999 0.034733
vt 0.197514 0.027793
vt 0.193056 0.026288
vt 0.192828 0.065919
vt 0.187369 0.054827
vt 0.192176 0.053962
vt 0.193679 0.032232
vt 0.199698 0.061299
vt 0.185388 0.036996
vt 0.182745 0.039295
vt 0.193454 0.018749
vt 0.182293 0.026109
vt 0.189546 0.049033
vt 0.195205 0.057133
vt 0.188715 0.022092
vt 0.197428 0.035450
vt 0.197755 0.034612
vt 0.198291 0.028102
vt 0.199182 0.024101
vt 0.201563 0.027169
s 0
usemtl Material
f 11/1/1 6/2/1 9/3/1
f 2/4/2 4/5/2 1/6/2
f 9/7/3 8/8/3 10/9/3
f 7/10/4 11/11/4 12/12/4
f 8/13/5 12/14/5 10/15/5
f 5/16/6 16/17/6 6/2/6
f 7/10/7 13/18/7 5/19/7
f 8/8/8 16/20/8 18/21/8
f 7/22/9 18/23/9 17/24/9
f 10/15/10 4/25/10 3/26/10
f 12/12/11 1/27/11 4/28/11
f 2/29/12 10/9/12 3/30/12
f 1/31/13 9/3/13 2/32/13
f 33/33/14 23/34/14 15/35/14
f 36/36/15 19/37/15 22/38/15
f 33/39/16 19/40/16 34/41/16
f 36/42/17 23/43/17 35/44/17
f 24/45/18 27/46/18 28/47/18
f 30/48/19 20/49/19 21/50/19
f 32/51/20 14/52/20 29/53/20
f 32/54/21 22/55/21 30/56/21
f 31/57/22 14/58/22 20/59/22
f 28/60/23 26/61/23 25/62/23
f 20/49/24 27/63/24 21/50/24
f 14/52/25 28/64/25 25/65/25
f 14/58/26 26/66/26 20/59/26
f 19/40/27 29/67/27 31/57/27
f 24/45/28 30/56/28 21/68/28
f 23/34/29 29/53/29 15/35/29
f 22/38/30 31/69/30 30/48/30
f 16/20/31 35/44/31 18/21/31
f 17/70/32 34/41/32 13/18/32
f 13/71/33 36/36/33 16/17/33
f 17/72/34 35/73/34 33/33/34
f 63/74/35 40/75/35 61/76/35
f 61/77/36 42/78/36 62/79/36
f 41/80/37 63/81/37 64/82/37
f 59/83/38 39/84/38 57/85/38
f 42/86/39 64/87/39 62/88/39
f 60/89/40 43/90/40 46/91/40
f 57/92/41 43/93/41 58/94/41
f 60/95/42 47/96/42 59/97/42
f 45/98/43 52/99/43 48/100/43
f 54/101/44 44/102/44 45/103/44
f 56/104/45 38/105/45 53/106/45
f 68/107/46 46/108/46 65/109/46
f 53/110/47 44/111/47 55/112/47
f 51/113/48 49/114/48 52/115/48
f 45/103/49 50/116/49 51/117/49
f 48/118/50 49/119/50 38/105/50
f 44/111/51 49/114/51 50/120/51
f 66/121/52 55/112/52 67/122/52
f 45/98/53 56/123/53 54/124/53
f 68/125/54 53/106/54 66/126/54
f 65/127/55 55/128/55 54/101/55
f 40/129/56 59/97/56 42/78/56
f 41/80/57 58/94/57 37/130/57
f 40/75/58 58/131/58 60/89/58
f 42/86/59 57/85/59 41/132/59
f 62/88/60 71/133/60 70/134/60
f 64/82/61 72/135/61 71/136/61
f 69/137/62 62/79/62 70/138/62
f 72/139/63 61/76/63 69/140/63
f 46/91/64 67/141/64 65/127/64
f 47/142/65 66/126/65 39/84/65
f 43/93/66 66/121/66 67/122/66
f 56/123/67 65/143/67 54/124/67
f 76/144/68 69/140/68 73/145/68
f 73/146/69 70/138/69 74/147/69
f 71/136/70 76/148/70 75/149/70
f 74/150/71 71/133/71 75/151/71
f 78/152/72 90/153/72 77/154/72
f 80/155/73 91/156/73 78/157/73
f 76/158/74 83/159/74 75/151/74
f 76/144/75 79/160/75 84/161/75
f 80/162/76 83/159/76 82/163/76
f 82/163/77 84/164/77 77/165/77
f 78/157/78 81/166/78 80/155/78
f 84/167/79 78/168/79 77/169/79
f 82/170/80 90/171/80 88/172/80
f 80/162/81 88/173/81 92/174/81
f 74/147/82 79/175/82 73/146/82
f 75/151/83 81/176/83 74/150/83
f 85/177/2 89/178/2 87/179/2
f 86/180/2 92/181/2 89/178/2
f 87/179/2 90/153/2 85/177/2
f 87/179/2 92/181/2 88/182/2
f 85/177/2 91/183/2 86/180/2
f 103/184/84 98/185/84 101/186/84
f 94/187/2 96/188/2 93/189/2
f 101/190/85 100/191/85 102/192/85
f 99/193/86 103/194/86 104/195/86
f 100/196/87 104/197/87 102/198/87
f 97/199/88 108/200/88 98/185/88
f 97/201/89 109/202/89 105/203/89
f 98/204/90 110/205/90 100/191/90
f 99/206/91 110/207/91 109/208/91
f 102/198/92 96/209/92 95/210/92
f 96/211/93 103/194/93 93/212/93
f 101/190/94 95/213/94 94/214/94
f 93/215/95 101/186/95 94/216/95
f 125/217/96 115/218/96 107/219/96
f 126/220/97 114/221/97 128/222/97
f 126/223/98 107/224/98 111/225/98
f 128/226/99 115/227/99 127/228/99
f 113/229/100 120/230/100 116/231/100
f 123/232/101 113/233/101 122/234/101
f 121/235/102 116/236/102 106/237/102
f 122/238/103 115/227/103 114/239/103
f 123/240/104 106/241/104 112/242/104
f 119/243/105 117/244/105 120/245/105
f 112/246/106 119/247/106 113/233/106
f 106/237/107 120/245/107 117/244/107
f 112/242/108 117/248/108 118/249/108
f 107/224/109 123/240/109 111/225/109
f 116/231/110 122/238/110 113/229/110
f 115/250/111 121/251/111 107/252/111
f 114/221/112 123/232/112 122/234/112
f 108/253/113 127/228/113 110/205/113
f 105/203/114 125/254/114 126/223/114
f 105/255/115 128/222/115 108/200/115
f 109/208/116 127/256/116 125/217/116
f 159/257/117 136/258/117 157/259/117
f 130/260/2 132/261/2 129/262/2
f 157/263/118 138/264/118 158/265/118
f 137/266/119 159/267/119 160/268/119
f 153/269/120 143/270/120 135/271/120
f 138/272/121 160/273/121 158/274/121
f 154/275/122 142/276/122 156/277/122
f 154/278/123 135/279/123 139/280/123
f 156/281/124 143/282/124 155/283/124
f 162/284/125 147/285/125 148/286/125
f 150/287/126 140/288/126 141/289/126
f 152/290/127 134/291/127 149/292/127
f 152/293/128 142/294/128 150/295/128
f 151/296/129 134/297/129 140/298/129
f 148/299/130 146/300/130 145/301/130
f 161/302/131 146/303/131 147/304/131
f 162/305/132 145/306/132 164/307/132
f 164/308/133 146/309/133 163/310/133
f 139/280/134 149/311/134 151/296/134
f 144/312/135 150/295/135 141/313/135
f 135/271/136 152/290/136 149/292/136
f 139/314/137 150/287/137 142/276/137
f 138/264/138 156/281/138 155/283/138
f 137/266/139 154/278/139 133/315/139
f 136/258/140 154/275/140 156/277/140
f 138/272/141 153/269/141 137/316/141
f 158/274/142 132/317/142 131/318/142
f 160/268/143 129/319/143 132/320/143
f 130/321/144 158/265/144 131/322/144
f 129/323/145 157/259/145 130/324/145
f 140/298/146 164/308/146 163/310/146
f 144/325/147 164/307/147 134/291/147
f 141/289/148 163/326/148 161/302/148
f 141/313/149 162/284/149 144/312/149
f 195/327/150 172/328/150 193/329/150
f 166/330/2 168/331/2 165/332/2
f 172/333/151 194/334/151 193/335/151
f 173/336/152 195/337/152 196/338/152
f 191/339/153 171/340/153 189/341/153
f 174/342/154 196/338/154 194/343/154
f 192/344/155 175/345/155 178/346/155
f 189/347/156 175/348/156 190/349/156
f 191/350/157 178/351/157 179/352/157
f 180/353/158 183/354/158 184/355/158
f 186/356/159 176/357/159 177/358/159
f 188/359/160 170/360/160 185/361/160
f 200/362/161 178/351/161 197/363/161
f 187/364/162 170/365/162 176/366/162
f 183/367/163 181/368/163 184/369/163
f 177/358/164 182/370/164 183/367/164
f 180/371/165 181/372/165 170/360/165
f 170/365/166 182/373/166 176/366/166
f 198/374/167 187/364/167 199/375/167
f 177/376/168 188/377/168 186/378/168
f 200/379/169 185/361/169 198/380/169
f 197/381/170 187/382/170 186/356/170
f 174/383/171 192/384/171 191/350/171
f 173/385/172 190/349/172 169/386/172
f 169/387/173 192/344/173 172/328/173
f 173/336/174 191/339/174 189/341/174
f 194/343/175 168/388/175 167/389/175
f 196/338/176 165/390/176 168/388/176
f 193/335/177 167/391/177 166/392/177
f 165/393/178 193/329/178 166/394/178
f 178/346/179 199/395/179 197/381/179
f 179/396/180 198/380/180 171/340/180
f 171/397/181 199/375/181 175/348/181
f 186/378/182 200/362/182 197/363/182
f 205/398/183 209/399/183 211/400/183
f 201/401/2 203/402/2 204/403/2
f 209/404/184 208/405/184 210/406/184
f 207/407/185 211/408/185 212/409/185
f 208/410/186 212/411/186 210/412/186
f 205/398/187 216/413/187 206/414/187
f 205/415/188 217/416/188 213/417/188
f 206/418/189 218/419/189 208/405/189
f 207/420/190 218/421/190 217/422/190
f 203/423/191 212/424/191 204/425/191
f 212/409/192 201/426/192 204/427/192
f 202/428/193 210/406/193 203/429/193
f 211/400/194 202/430/194 201/431/194
f 233/432/195 223/433/195 215/434/195
f 236/435/196 219/436/196 222/437/196
f 233/438/197 219/439/197 234/440/197
f 235/441/198 222/442/198 223/443/198
f 224/444/199 227/445/199 228/446/199
f 230/447/200 220/448/200 221/449/200
f 232/450/201 214/451/201 229/452/201
f 232/453/202 222/442/202 230/454/202
f 229/455/203 220/456/203 231/457/203
f 228/458/204 226/459/204 225/460/204
f 220/461/205 227/462/205 221/463/205
f 214/451/206 228/464/206 225/465/206
f 214/466/207 226/467/207 220/456/207
f 219/439/208 229/455/208 231/457/208
f 221/468/209 232/453/209 230/454/209
f 223/433/210 229/452/210 215/434/210
f 222/469/211 231/470/211 230/447/211
f 216/471/212 235/441/212 218/419/212
f 213/417/213 233/438/213 234/440/213
f 216/413/214 234/472/214 236/473/214
f 218/421/215 233/432/215 217/422/215
f 241/474/216 265/475/216 267/476/216
f 237/477/2 239/478/2 240/479/2
f 265/480/217 246/481/217 266/482/217
f 245/483/218 267/484/218 268/485/218
f 263/486/219 243/487/219 261/488/219
f 246/489/220 268/490/220 266/491/220
f 264/492/221 247/493/221 250/494/221
f 261/495/222 247/496/222 262/497/222
f 264/498/223 251/499/223 263/500/223
f 249/501/224 256/502/224 252/503/224
f 259/504/225 249/505/225 258/506/225
f 257/507/226 252/508/226 242/509/226
f 258/510/227 251/499/227 250/511/227
f 257/512/228 248/513/228 259/514/228
f 256/515/229 254/516/229 253/517/229
f 249/505/230 254/518/230 255/519/230
f 252/508/231 253/520/231 242/509/231
f 248/513/232 253/517/232 254/516/232
f 243/521/233 259/514/233 247/496/233
f 249/501/234 260/522/234 258/510/234
f 251/523/235 257/507/235 243/487/235
f 250/494/236 259/504/236 258/506/236
f 244/524/237 263/500/237 246/481/237
f 241/525/238 261/495/238 262/497/238
f 244/526/239 262/527/239 264/492/239
f 246/489/240 261/488/240 245/528/240
f 239/478/241 268/490/241 240/479/241
f 240/529/242 267/484/242 237/530/242
f 265/480/243 239/531/243 238/532/243
f 237/533/244 265/475/244 238/534/244
f 11/1/245 5/16/245 6/2/245
f 2/4/2 3/535/2 4/5/2
f 9/7/246 6/536/246 8/8/246
f 7/10/247 5/19/247 11/11/247
f 8/13/248 7/22/248 12/14/248
f 5/16/249 13/71/249 16/17/249
f 7/10/250 17/70/250 13/18/250
f 8/8/251 6/536/251 16/20/251
f 7/22/252 8/13/252 18/23/252
f 10/15/253 12/14/253 4/25/253
f 12/12/254 11/11/254 1/27/254
f 2/29/255 9/7/255 10/9/255
f 1/31/256 11/1/256 9/3/256
f 33/33/257 35/73/257 23/34/257
f 36/36/258 34/537/258 19/37/258
f 33/39/259 15/538/259 19/40/259
f 36/42/260 22/55/260 23/43/260
f 24/45/261 21/68/261 27/46/261
f 30/48/262 31/69/262 20/49/262
f 32/51/263 24/539/263 14/52/263
f 32/54/264 23/43/264 22/55/264
f 31/57/265 29/67/265 14/58/265
f 28/60/23 27/63/23 26/61/23
f 20/49/266 26/61/266 27/63/266
f 14/52/267 24/539/267 28/64/267
f 14/58/268 25/540/268 26/66/268
f 19/40/269 15/538/269 29/67/269
f 24/45/270 32/54/270 30/56/270
f 23/34/271 32/51/271 29/53/271
f 22/38/272 19/37/272 31/69/272
f 16/20/273 36/42/273 35/44/273
f 17/70/274 33/39/274 34/41/274
f 13/71/275 34/537/275 36/36/275
f 17/72/276 18/541/276 35/73/276
f 63/74/277 37/542/277 40/75/277
f 61/77/278 40/129/278 42/78/278
f 41/80/279 37/130/279 63/81/279
f 59/83/280 47/142/280 39/84/280
f 42/86/281 41/132/281 64/87/281
f 60/89/282 58/131/282 43/90/282
f 57/92/283 39/543/283 43/93/283
f 60/95/284 46/108/284 47/96/284
f 45/98/285 51/544/285 52/99/285
f 54/101/286 55/128/286 44/102/286
f 56/104/287 48/118/287 38/105/287
f 68/107/288 47/96/288 46/108/288
f 53/110/289 38/545/289 44/111/289
f 51/113/290 50/120/290 49/114/290
f 45/103/291 44/102/291 50/116/291
f 48/118/292 52/546/292 49/119/292
f 44/111/293 38/545/293 49/114/293
f 66/121/294 53/110/294 55/112/294
f 45/98/295 48/100/295 56/123/295
f 68/125/296 56/104/296 53/106/296
f 65/127/297 67/141/297 55/128/297
f 40/129/298 60/95/298 59/97/298
f 41/80/299 57/92/299 58/94/299
f 40/75/300 37/542/300 58/131/300
f 42/86/301 59/83/301 57/85/301
f 62/88/302 64/87/302 71/133/302
f 64/82/303 63/81/303 72/135/303
f 69/137/304 61/77/304 62/79/304
f 72/139/305 63/74/305 61/76/305
f 46/91/306 43/90/306 67/141/306
f 47/142/307 68/125/307 66/126/307
f 43/93/308 39/543/308 66/121/308
f 56/123/309 68/547/309 65/143/309
f 76/144/310 72/139/310 69/140/310
f 73/146/311 69/137/311 70/138/311
f 71/136/312 72/135/312 76/148/312
f 74/150/313 70/134/313 71/133/313
f 78/152/314 91/183/314 90/153/314
f 80/155/315 92/548/315 91/156/315
f 76/158/316 84/164/316 83/159/316
f 76/144/317 73/145/317 79/160/317
f 80/162/318 81/176/318 83/159/318
f 82/163/319 83/159/319 84/164/319
f 78/157/320 79/175/320 81/166/320
f 84/167/321 79/549/321 78/168/321
f 82/170/322 77/550/322 90/171/322
f 80/162/323 82/163/323 88/173/323
f 74/147/324 81/166/324 79/175/324
f 75/151/325 83/159/325 81/176/325
f 85/177/2 86/180/2 89/178/2
f 86/180/2 91/183/2 92/181/2
f 87/179/2 88/182/2 90/153/2
f 87/179/2 89/178/2 92/181/2
f 85/177/2 90/153/2 91/183/2
f 103/184/326 97/199/326 98/185/326
f 94/187/2 95/551/2 96/188/2
f 101/190/327 98/204/327 100/191/327
f 99/193/328 97/201/328 103/194/328
f 100/196/329 99/206/329 104/197/329
f 97/199/330 105/255/330 108/200/330
f 97/201/331 99/193/331 109/202/331
f 98/204/332 108/253/332 110/205/332
f 99/206/333 100/196/333 110/207/333
f 102/198/334 104/197/334 96/209/334
f 96/211/335 104/195/335 103/194/335
f 101/190/336 102/192/336 95/213/336
f 93/215/337 103/184/337 101/186/337
f 125/217/338 127/256/338 115/218/338
f 126/220/339 111/552/339 114/221/339
f 126/223/340 125/254/340 107/224/340
f 128/226/341 114/239/341 115/227/341
f 113/229/342 119/553/342 120/230/342
f 123/232/343 112/246/343 113/233/343
f 121/235/344 124/554/344 116/236/344
f 122/238/345 124/555/345 115/227/345
f 123/240/346 121/556/346 106/241/346
f 119/243/347 118/557/347 117/244/347
f 112/246/348 118/558/348 119/247/348
f 106/237/349 116/236/349 120/245/349
f 112/242/350 106/241/350 117/248/350
f 107/224/351 121/556/351 123/240/351
f 116/231/352 124/555/352 122/238/352
f 115/250/353 124/559/353 121/251/353
f 114/221/354 111/552/354 123/232/354
f 108/253/355 128/226/355 127/228/355
f 105/203/356 109/202/356 125/254/356
f 105/255/357 126/220/357 128/222/357
f 109/208/358 110/207/358 127/256/358
f 159/257/359 133/560/359 136/258/359
f 130/260/2 131/561/2 132/261/2
f 157/263/360 136/562/360 138/264/360
f 137/266/361 133/315/361 159/267/361
f 153/269/362 155/563/362 143/270/362
f 138/272/363 137/316/363 160/273/363
f 154/275/364 139/314/364 142/276/364
f 154/278/365 153/564/365 135/279/365
f 156/281/366 142/294/366 143/282/366
f 162/284/367 161/565/367 147/285/367
f 150/287/368 151/566/368 140/288/368
f 152/290/369 144/325/369 134/291/369
f 152/293/370 143/282/370 142/294/370
f 151/296/371 149/311/371 134/297/371
f 148/299/372 147/567/372 146/300/372
f 161/302/373 163/326/373 146/303/373
f 162/305/374 148/568/374 145/306/374
f 164/308/375 145/569/375 146/309/375
f 139/280/376 135/279/376 149/311/376
f 144/312/377 152/293/377 150/295/377
f 135/271/378 143/270/378 152/290/378
f 139/314/379 151/566/379 150/287/379
f 138/264/380 136/562/380 156/281/380
f 137/266/381 153/564/381 154/278/381
f 136/258/382 133/560/382 154/275/382
f 138/272/383 155/563/383 153/269/383
f 158/274/384 160/273/384 132/317/384
f 160/268/385 159/267/385 129/319/385
f 130/321/386 157/263/386 158/265/386
f 129/323/387 159/257/387 157/259/387
f 140/298/388 134/297/388 164/308/388
f 144/325/389 162/305/389 164/307/389
f 141/289/390 140/288/390 163/326/390
f 141/313/391 161/565/391 162/284/391
f 195/327/392 169/387/392 172/328/392
f 166/330/2 167/570/2 168/331/2
f 172/333/393 174/383/393 194/334/393
f 173/336/394 169/571/394 195/337/394
f 191/339/395 179/396/395 171/340/395
f 174/342/396 173/336/396 196/338/396
f 192/344/397 190/572/397 175/345/397
f 189/347/398 171/397/398 175/348/398
f 191/350/399 192/384/399 178/351/399
f 180/353/400 177/376/400 183/354/400
f 186/356/401 187/382/401 176/357/401
f 188/359/402 180/371/402 170/360/402
f 200/362/403 179/352/403 178/351/403
f 187/364/404 185/573/404 170/365/404
f 183/367/405 182/370/405 181/368/405
f 177/358/406 176/357/406 182/370/406
f 180/371/407 184/574/407 181/372/407
f 170/365/408 181/575/408 182/373/408
f 198/374/409 185/573/409 187/364/409
f 177/376/410 180/353/410 188/377/410
f 200/379/411 188/359/411 185/361/411
f 197/381/412 199/395/412 187/382/412
f 174/383/413 172/333/413 192/384/413
f 173/385/414 189/347/414 190/349/414
f 169/387/415 190/572/415 192/344/415
f 173/336/416 174/342/416 191/339/416
f 194/343/417 196/338/417 168/388/417
f 196/338/418 195/337/418 165/390/418
f 193/335/419 194/334/419 167/391/419
f 165/393/420 195/327/420 193/329/420
f 178/346/421 175/345/421 199/395/421
f 179/396/422 200/379/422 198/380/422
f 171/397/423 198/374/423 199/375/423
f 186/378/424 188/377/424 200/362/424
f 205/398/425 206/414/425 209/399/425
f 201/401/2 202/576/2 203/402/2
f 209/404/426 206/418/426 208/405/426
f 207/407/427 205/415/427 211/408/427
f 208/410/428 207/420/428 212/411/428
f 205/398/429 213/577/429 216/413/429
f 205/415/430 207/407/430 217/416/430
f 206/418/431 216/471/431 218/419/431
f 207/420/432 208/410/432 218/421/432
f 203/423/433 210/578/433 212/424/433
f 212/409/434 211/408/434 201/426/434
f 202/428/435 209/404/435 210/406/435
f 211/400/436 209/399/436 202/430/436
f 233/432/437 235/579/437 223/433/437
f 236/435/438 234/580/438 219/436/438
f 233/438/439 215/581/439 219/439/439
f 235/441/440 236/582/440 222/442/440
f 224/444/441 221/468/441 227/445/441
f 230/447/442 231/470/442 220/448/442
f 232/450/443 224/583/443 214/451/443
f 232/453/444 223/443/444 222/442/444
f 229/455/445 214/466/445 220/456/445
f 228/458/204 227/462/204 226/459/204
f 220/461/446 226/459/446 227/462/446
f 214/451/447 224/583/447 228/464/447
f 214/466/448 225/584/448 226/467/448
f 219/439/449 215/581/449 229/455/449
f 221/468/450 224/444/450 232/453/450
f 223/433/451 232/450/451 229/452/451
f 222/469/452 219/585/452 231/470/452
f 216/471/453 236/582/453 235/441/453
f 213/417/454 217/416/454 233/438/454
f 216/413/455 213/577/455 234/472/455
f 218/421/456 235/579/456 233/432/456
f 241/474/457 244/526/457 265/475/457
f 237/477/2 238/586/2 239/478/2
f 265/480/458 244/524/458 246/481/458
f 245/483/459 241/525/459 267/484/459
f 263/486/460 251/523/460 243/487/460
f 246/489/461 245/528/461 268/490/461
f 264/492/462 262/527/462 247/493/462
f 261/495/463 243/521/463 247/496/463
f 264/498/464 250/511/464 251/499/464
f 249/501/465 255/587/465 256/502/465
f 259/504/466 248/588/466 249/505/466
f 257/507/467 260/589/467 252/508/467
f 258/510/468 260/522/468 251/499/468
f 257/512/469 242/590/469 248/513/469
f 256/515/229 255/591/229 254/516/229
f 249/505/470 248/588/470 254/518/470
f 252/508/471 256/592/471 253/520/471
f 248/513/472 242/590/472 253/517/472
f 243/521/473 257/512/473 259/514/473
f 249/501/474 252/503/474 260/522/474
f 251/523/475 260/589/475 257/507/475
f 250/494/476 247/493/476 259/504/476
f 244/524/477 264/498/477 263/500/477
f 241/525/478 245/483/478 261/495/478
f 244/526/479 241/474/479 262/527/479
f 246/489/480 263/486/480 261/488/480
f 239/478/481 266/491/481 268/490/481
f 240/529/482 268/485/482 267/484/482
f 265/480/483 266/482/483 239/531/483
f 237/533/484 267/476/484 265/475/484
