# Blender 4.2.1 LTS
# www.blender.org
mtllib grass_green_1.mtl
g grass_green_1_Mesh
v -0.102960 0.053649 0.051674
v -0.014622 0.025205 -0.003270
v -0.001029 0.020829 0.082554
v -0.052721 0.037472 0.103539
v -0.082703 0.154337 0.062546
v -0.018234 0.142268 0.024785
v -0.056070 0.126990 0.100108
v -0.005064 0.108573 0.091316
v -0.013355 0.097431 0.002162
v 0.009457 0.089412 0.081683
v -0.087369 0.107962 0.047777
v -0.052899 0.095073 0.091581
v -0.069523 0.168185 0.101577
v -0.019788 0.254319 0.293260
v -0.038570 0.206101 0.227503
v -0.028985 0.180304 0.083971
v -0.060234 0.169220 0.139215
v -0.013782 0.159545 0.126245
v -0.047406 0.227815 0.215800
v -0.024213 0.262024 0.286538
v -0.013463 0.267648 0.285410
v -0.018820 0.240113 0.209422
v -0.010939 0.210992 0.219137
v -0.009119 0.259086 0.292725
v -0.024126 0.263968 0.329412
v -0.025585 0.266531 0.325801
v -0.020967 0.268625 0.325260
v -0.019579 0.265767 0.329186
v -0.025434 0.230084 0.258166
v -0.013629 0.252994 0.243399
v -0.033234 0.243917 0.246542
v -0.006547 0.237136 0.256386
v -0.045703 0.186667 0.179543
v -0.064351 0.215020 0.167636
v -0.011026 0.189114 0.160310
v -0.028738 0.218290 0.154953
v -0.036617 0.143743 0.020480
v 0.032267 0.338750 0.141731
v 0.031906 0.217466 0.040477
v -0.047593 0.164416 -0.015044
v 0.002137 0.144997 0.008791
v 0.008220 0.151613 -0.015869
v 0.000323 0.223789 0.047825
v 0.023331 0.336409 0.143024
v 0.020170 0.345154 0.138830
v -0.004724 0.241167 0.028982
v 0.030394 0.232570 0.023502
v 0.029963 0.347327 0.137603
v 0.018402 0.355274 0.182500
v 0.014751 0.354209 0.181620
v 0.013845 0.358122 0.180173
v 0.017830 0.359113 0.181185
v 0.039993 0.309037 0.119929
v 0.016277 0.318347 0.114515
v 0.020225 0.307990 0.121538
v 0.038153 0.318289 0.113869
v 0.014032 0.167697 0.023535
v -0.021765 0.171246 0.037813
v 0.015706 0.183155 0.003996
v -0.032482 0.194537 0.011906
v -0.058021 0.135755 -0.044678
v 0.015082 0.111593 -0.047754
v -0.034388 0.133542 0.009087
v 0.010719 0.117359 -0.013639
v 0.005988 0.282997 0.065660
v 0.036687 0.269723 0.074510
v 0.010866 0.271331 0.078909
v 0.034603 0.279531 0.062466
v -0.068141 0.114760 -0.055138
v 0.011285 0.088874 -0.058289
v 0.005735 0.092842 -0.024286
v -0.042799 0.109299 0.000710
v -0.065732 0.092561 -0.070968
v 0.006765 0.071351 -0.054847
v 0.019104 0.066282 -0.036833
v -0.036660 0.084697 -0.007834
v -0.061034 0.066528 0.027706
v -0.072921 0.070355 -0.068209
v -0.066163 0.077543 -0.071616
v 0.008435 0.044160 -0.065328
v 0.006850 0.064142 -0.061765
v 0.003504 0.039260 -0.001469
v 0.020385 0.052062 -0.027823
v -0.052085 0.073010 0.006035
v -0.037242 0.032489 -0.034286
v -0.033848 0.031396 -0.076669
v -0.002399 0.021270 -0.040317
v 0.022093 0.013384 -0.024040
v -0.009049 0.023411 -0.059057
v -0.046101 0.035341 0.000104
v -0.041256 0.033781 -0.082041
v 0.002094 0.019823 -0.067317
v -0.086203 0.048253 -0.044601
v -0.031696 0.030703 0.026983
v -0.108124 0.055311 0.063917
v -0.121788 0.059711 0.005979
v -0.087748 0.146828 -0.051165
v -0.049710 0.141646 -0.003066
v -0.117343 0.141093 -0.019738
v -0.105217 0.135567 0.022901
v -0.050128 0.090427 0.006669
v -0.114900 0.110676 0.038223
v -0.093415 0.108778 -0.051225
v -0.126660 0.117870 -0.012939
v -0.099997 0.208806 -0.051036
v -0.172097 0.351986 0.051566
v -0.145503 0.299592 -0.005592
v -0.070822 0.214252 -0.014445
v -0.120337 0.198653 -0.026649
v -0.110101 0.198043 0.005977
v -0.127383 0.305625 -0.015038
v -0.164908 0.356301 0.048136
v -0.159975 0.355389 0.056680
v -0.112312 0.302636 0.005726
v -0.134218 0.291764 0.013857
v -0.167951 0.350760 0.060039
v -0.178903 0.407434 0.060627
v -0.175821 0.409400 0.059624
v -0.173898 0.408383 0.063153
v -0.177310 0.406299 0.064093
v -0.163088 0.316053 0.029010
v -0.143381 0.323180 0.041018
v -0.152222 0.327468 0.026234
v -0.155966 0.310979 0.042953
v -0.139565 0.241511 -0.021258
v -0.123385 0.263167 -0.032414
v -0.114449 0.232777 0.007204
v -0.102949 0.260517 -0.000946
v 0.036114 0.008869 -0.094696
v 0.063660 0.000000 -0.025488
v -0.004978 0.022100 0.001832
v -0.006681 0.022648 -0.055035
v 0.060556 0.076626 -0.082338
v 0.101568 0.279903 -0.062622
v 0.046684 0.184557 -0.043015
v 0.080513 0.080240 -0.044621
v 0.036395 0.075329 -0.064093
v 0.039332 0.077081 -0.033196
v 0.066406 0.184266 -0.048561
v 0.109292 0.278122 -0.065565
v 0.112903 0.278661 -0.057069
v 0.075610 0.182464 -0.025558
v 0.051697 0.181548 -0.021724
v 0.104402 0.280565 -0.054235
v 0.147043 0.352370 -0.066321
v 0.148603 0.352057 -0.066799
v 0.149136 0.351844 -0.065075
v 0.147427 0.352191 -0.064630
v 0.068535 0.225725 -0.057787
v 0.087991 0.222737 -0.047776
v 0.081967 0.222882 -0.062846
v 0.072803 0.225867 -0.043359
v 0.026954 0.142340 -0.042431
v 0.049198 0.140975 -0.052467
v 0.027896 0.134688 -0.018770
v 0.058606 0.129710 -0.024666
v 0.080682 0.044372 -0.032712
v 0.028688 0.060583 -0.012301
v 0.062646 0.054031 -0.084781
v 0.027592 0.063911 -0.058416
v 0.138270 0.309549 -0.070402
v 0.132910 0.310979 -0.068660
v 0.136009 0.309241 -0.075834
v 0.131138 0.310575 -0.074017
v -0.119098 0.058845 -0.105620
v -0.015242 0.025405 -0.068005
v -0.080685 0.046476 0.030961
v -0.109801 0.055851 -0.003777
v -0.091163 0.152582 -0.113262
v -0.195896 0.323976 -0.203912
v -0.141781 0.249731 -0.099083
v -0.033566 0.156948 -0.100946
v -0.099825 0.173729 -0.063038
v -0.074237 0.176952 -0.039247
v -0.124763 0.237836 -0.137124
v -0.186973 0.318523 -0.210436
v -0.184524 0.329903 -0.217228
v -0.102780 0.264281 -0.141720
v -0.124310 0.274738 -0.100200
v -0.194273 0.335334 -0.209895
v -0.239292 0.326674 -0.258035
v -0.235653 0.324530 -0.260931
v -0.234097 0.329683 -0.262810
v -0.238144 0.331583 -0.259537
v -0.183954 0.311161 -0.162089
v -0.158430 0.311554 -0.185267
v -0.170545 0.299627 -0.181499
v -0.174656 0.322644 -0.164028
v -0.123765 0.196603 -0.086265
v -0.111056 0.180747 -0.132343
v -0.101807 0.220842 -0.078470
v -0.072140 0.209432 -0.135507
v -0.017163 0.083610 -0.079539
v -0.073014 0.100758 0.005297
v -0.091855 0.113164 -0.101437
v -0.101538 0.115772 -0.028380
v -0.130013 0.279592 -0.160448
v -0.165058 0.277619 -0.131758
v -0.150191 0.266650 -0.160697
v -0.148616 0.290474 -0.129298
v -0.028432 0.029652 0.075225
v -0.032179 0.030858 -0.049702
v 0.059444 0.001357 -0.000029
v 0.034410 0.009418 0.068810
v 0.038471 0.155954 0.099254
v 0.056668 0.188634 0.023256
v 0.070276 0.110336 0.076891
v 0.094305 0.112746 0.020346
v -0.006304 0.122564 -0.027466
v 0.073737 0.059859 -0.010968
v -0.011699 0.101323 0.072818
v 0.045899 0.063396 0.056348
v 0.088948 0.168464 0.121929
v 0.302010 0.198845 0.163940
v 0.213991 0.166635 0.143524
v 0.106779 0.196472 0.066227
v 0.110479 0.132837 0.102623
v 0.130205 0.136277 0.060022
v 0.205153 0.194075 0.148897
v 0.295785 0.209483 0.165828
v 0.302024 0.215406 0.155247
v 0.217728 0.208097 0.118743
v 0.221894 0.173436 0.112454
v 0.308499 0.203659 0.153639
v 0.336861 0.197434 0.187620
v 0.333502 0.201426 0.187541
v 0.336028 0.203645 0.182930
v 0.339557 0.199237 0.183205
v 0.258460 0.184744 0.149008
v 0.257763 0.213590 0.132496
v 0.247778 0.203692 0.152480
v 0.268730 0.192060 0.130190
v 0.156103 0.159063 0.122058
v 0.144072 0.194086 0.137832
v 0.159767 0.177508 0.071853
v 0.157698 0.214989 0.092469
v 0.013011 0.016308 -0.059187
v -0.066253 0.041830 -0.032715
v -0.048062 0.035972 -0.095050
v -0.002809 0.021402 -0.095915
v 0.048743 0.110111 -0.078778
v 0.122878 0.168302 -0.240549
v 0.076655 0.151475 -0.169102
v 0.018614 0.139162 -0.069709
v 0.030014 0.104871 -0.102017
v 0.003685 0.121017 -0.105545
v 0.089161 0.161801 -0.156582
v 0.126797 0.171143 -0.233616
v 0.122103 0.179103 -0.233947
v 0.076536 0.183184 -0.157256
v 0.062621 0.168458 -0.170555
v 0.118057 0.175705 -0.241430
v 0.165355 0.196344 -0.269790
v 0.165802 0.196767 -0.268246
v 0.164792 0.198275 -0.268319
v 0.164350 0.197756 -0.269985
v 0.094899 0.164695 -0.204152
v 0.097776 0.185386 -0.196991
v 0.103858 0.170598 -0.194204
v 0.088404 0.177798 -0.207695
v 0.057791 0.132984 -0.128197
v 0.073035 0.141767 -0.111230
v 0.036828 0.146392 -0.128448
v 0.050398 0.162644 -0.104902
v -0.027027 0.086636 -0.044904
v -0.038348 0.089752 -0.101868
v 0.026029 0.073405 -0.056727
v 0.006189 0.078386 -0.096766
vn -0.4511 0.3624 -0.8156
vn -0.3065 -0.9519 -0.0000
vn 0.9419 0.2273 -0.2473
vn -0.7966 -0.2287 0.5596
vn 0.1116 -0.3775 0.9192
vn -0.1724 0.8141 -0.5545
vn -0.8676 -0.2975 0.3985
vn 0.9365 0.2925 -0.1932
vn 0.0648 -0.6746 0.7353
vn 0.3637 -0.0438 0.9305
vn -0.6875 0.1456 0.7114
vn 0.9751 -0.1512 -0.1621
vn -0.5096 0.0734 -0.8573
vn 0.2603 -0.9077 0.3291
vn -0.4305 0.8622 -0.2670
vn -0.8348 -0.3830 0.3955
vn 0.8550 0.4857 -0.1819
vn 0.8114 0.5703 0.1283
vn -0.4674 0.8353 -0.2895
vn 0.3444 -0.7975 0.4953
vn 0.9581 0.1868 -0.2172
vn -0.9148 -0.2481 0.3186
vn -0.2597 0.7347 0.6267
vn -0.4698 0.8759 -0.1100
vn 0.3652 -0.8876 0.2807
vn -0.8761 -0.4816 0.0247
vn -0.8799 -0.1087 0.4626
vn 0.9389 0.3238 -0.1167
vn 0.2966 -0.8098 0.5063
vn -0.4397 0.8600 -0.2589
vn 0.8069 0.4122 -0.4231
vn -0.9426 -0.2331 0.2391
vn -0.4240 0.7991 -0.4262
vn 0.2380 -0.9197 0.3121
vn -0.9138 -0.0794 0.3984
vn 0.1770 0.6317 -0.7548
vn 0.1892 -0.5827 0.7904
vn 0.9457 -0.2893 -0.1479
vn 0.9904 0.0796 0.1132
vn -0.8135 0.3024 0.4968
vn 0.3261 -0.3074 0.8940
vn -0.0512 0.3798 -0.9237
vn -0.2431 0.9172 -0.3157
vn -0.9252 -0.1723 0.3381
vn 0.9742 0.2218 0.0429
vn -0.0039 0.6598 -0.7514
vn 0.2663 -0.5997 0.7546
vn -0.2993 0.2690 0.9155
vn -0.9659 -0.2493 -0.0696
vn 0.9472 0.2208 0.2327
vn 0.1516 -0.8843 0.4416
vn 0.0620 -0.7634 0.6429
vn -0.2370 0.6714 -0.7022
vn 0.9836 0.0949 -0.1537
vn -0.9583 -0.0942 0.2699
vn -0.0123 0.5350 -0.8448
vn 0.2471 -0.6086 0.7540
vn -0.9213 0.1365 0.3641
vn 0.9152 -0.3504 -0.1989
vn 0.9521 -0.2444 0.1839
vn 0.2937 -0.4304 0.8535
vn 0.0961 0.4055 -0.9090
vn -0.8812 0.2151 0.4209
vn -0.9476 -0.0357 0.3175
vn 0.9940 -0.0210 -0.1073
vn 0.1051 -0.5604 0.8215
vn 0.0318 0.8066 -0.5903
vn -0.8673 -0.3480 0.3560
vn 0.1476 -0.2272 -0.9626
vn 0.3898 -0.2256 0.8928
vn 0.7421 -0.3083 -0.5951
vn -0.8660 -0.4923 0.0877
vn 0.1863 0.4845 -0.8547
vn 0.5241 0.4890 0.6973
vn -0.5132 0.8464 0.1424
vn 0.5875 -0.8091 -0.0167
vn 0.5098 0.7434 0.4329
vn -0.0835 -0.3616 -0.9286
vn -0.4331 0.8969 0.0895
vn 0.0740 -0.6248 0.7773
vn 0.8793 -0.1936 -0.4351
vn 0.2268 0.0355 -0.9733
vn 0.7992 0.4211 -0.4289
vn 0.7755 -0.1240 -0.6191
vn 0.4929 0.3090 0.8134
vn -0.7391 0.1016 -0.6659
vn -0.8350 0.4849 0.2601
vn 0.7843 0.1331 -0.6059
vn -0.7300 -0.1429 -0.6683
vn 0.3837 0.2693 0.8833
vn -0.9541 -0.0137 0.2991
vn -0.9734 -0.0131 0.2286
vn -0.8241 -0.1577 -0.5441
vn 0.5006 0.4132 0.7607
vn 0.8000 0.0433 -0.5985
vn -0.8801 -0.2054 0.4280
vn 0.7984 0.2633 -0.5416
vn -0.5157 0.2825 -0.8089
vn 0.4759 0.0605 0.8774
vn 0.3890 -0.0017 0.9212
vn 0.7414 0.5610 -0.3682
vn -0.8661 -0.4029 0.2958
vn 0.5038 -0.4762 0.7207
vn -0.5606 0.3302 -0.7594
vn -0.3767 0.8151 0.4401
vn 0.8445 0.2778 -0.4579
vn -0.9152 -0.1719 0.3645
vn -0.3764 0.1214 -0.9185
vn -0.5194 0.5855 -0.6225
vn 0.4684 -0.1793 0.8651
vn -0.6271 -0.7772 0.0510
vn 0.5074 0.8600 -0.0540
vn 0.4529 0.0252 0.8912
vn -0.5887 0.0235 -0.8080
vn 0.5949 0.5765 -0.5601
vn -0.7444 -0.4011 0.5338
vn 0.9328 -0.1096 -0.3434
vn 0.4480 0.5764 0.6834
vn -0.5903 0.0547 -0.8053
vn -0.8725 0.4114 0.2636
vn -0.8011 0.5954 0.0620
vn 0.8664 -0.2862 -0.4092
vn -0.2632 0.1900 -0.9459
vn 0.1836 -0.0313 0.9825
vn 0.2591 -0.1840 0.9482
vn 0.8407 -0.4293 -0.3300
vn -0.8199 0.5211 0.2374
vn 0.3294 0.3764 0.8659
vn -0.3299 0.1171 -0.9367
vn 0.2127 0.9756 0.0550
vn 0.9290 -0.1994 -0.3116
vn -0.9133 0.2961 0.2797
vn -0.2328 0.2659 -0.9355
vn -0.3801 -0.1823 -0.9068
vn 0.3193 0.0152 0.9475
vn -0.8202 0.5205 0.2375
vn 0.8161 -0.4505 -0.3618
vn 0.1510 -0.2118 0.9656
vn -0.5919 0.2511 -0.7659
vn 0.8885 0.4424 -0.1214
vn -0.9798 -0.1713 0.1029
vn -0.7471 0.6641 0.0288
vn -0.5514 0.3979 -0.7332
vn 0.3736 0.0138 0.9275
vn 0.8309 -0.4042 -0.3825
vn -0.3512 -0.0074 -0.9363
vn -0.6772 0.7160 0.1699
vn 0.6926 -0.6767 -0.2498
vn 0.3388 0.1247 0.9326
vn 0.1859 -0.2368 -0.9536
vn 0.8243 0.2955 0.4829
vn -0.9904 -0.0482 -0.1296
vn -0.4107 0.0799 0.9083
vn -0.6074 0.3936 0.6900
vn -0.0431 -0.1362 -0.9897
vn -0.9532 -0.2438 -0.1790
vn 0.8264 0.4701 0.3101
vn 0.2232 0.9372 -0.2681
vn 0.4887 -0.5223 -0.6988
vn -0.6843 0.6192 0.3851
vn 0.4944 0.8692 -0.0084
vn -0.6010 -0.7812 -0.1689
vn -0.6491 -0.0797 -0.7565
vn 0.6130 -0.4274 -0.6646
vn -0.7024 0.4078 0.5835
vn -0.3672 -0.8967 0.2473
vn -0.7837 -0.5954 -0.1770
vn 0.5214 0.8510 0.0629
vn -0.4591 0.4395 0.7720
vn 0.2063 -0.4791 -0.8532
vn 0.7044 0.6648 0.2488
vn -0.8097 -0.5865 -0.0215
vn 0.2201 -0.4185 -0.8812
vn -0.5486 0.2393 0.8011
vn -0.6470 0.3987 0.6499
vn -0.9802 0.1740 0.0946
vn 0.8395 0.1307 0.5273
vn 0.2842 -0.1774 -0.9422
vn 0.3374 -0.4264 -0.8393
vn -0.4784 0.4699 0.7419
vn -0.7058 -0.7018 -0.0966
vn 0.6768 0.7202 0.1526
vn -0.7564 0.6470 0.0963
vn 0.4313 0.3296 -0.8399
vn -0.0015 -0.4003 0.9164
vn 0.7836 -0.5126 0.3510
vn -0.3827 0.8784 0.2861
vn -0.2182 -0.5636 0.7967
vn 0.5976 0.3245 -0.7332
vn 0.4233 -0.8975 0.1235
vn 0.9289 -0.1166 0.3515
vn 0.1599 0.1896 0.9687
vn 0.3938 -0.2610 -0.8814
vn -0.9731 0.2282 0.0314
vn 0.1876 -0.9684 -0.1643
vn -0.0687 0.9153 0.3970
vn -0.1592 -0.4504 0.8785
vn 0.5123 0.4354 -0.7402
vn 0.6411 0.4758 -0.6022
vn -0.2272 0.9007 0.3702
vn 0.3544 -0.9205 -0.1644
vn 0.2849 0.2444 -0.9269
vn -0.2226 -0.2957 0.9290
vn 0.6125 0.5271 0.5891
vn -0.0658 0.8867 0.4576
vn 0.1581 -0.9442 -0.2889
vn -0.5173 -0.4337 0.7378
vn -0.0364 -0.2033 0.9784
vn 0.4250 0.3077 -0.8513
vn 0.3860 -0.9168 -0.1025
vn -0.2393 0.9123 0.3323
vn 0.1618 0.1633 -0.9732
vn -0.0616 -0.4274 0.9020
vn -0.4458 0.8563 0.2607
vn 0.4493 -0.8829 0.1367
vn 0.2633 0.2153 0.9404
vn -0.5802 0.7988 0.1590
vn 0.6409 -0.6557 -0.3991
vn -0.6244 -0.5623 -0.5421
vn 0.0616 -0.1978 -0.9783
vn 0.6485 0.5407 0.5359
vn 0.6022 -0.7871 -0.1336
vn -0.7001 0.7119 -0.0558
vn -0.4936 0.8589 -0.1369
vn 0.7920 0.4108 0.4515
vn -0.6629 -0.4982 -0.5589
vn -0.5717 0.7773 -0.2625
vn 0.3711 -0.9060 0.2035
vn 0.7815 0.5061 -0.3648
vn 0.4989 0.3275 0.8024
vn -0.3499 -0.3682 -0.8614
vn 0.5620 -0.8269 0.0212
vn 0.6052 -0.7944 0.0507
vn -0.3100 0.8823 -0.3541
vn -0.6263 -0.5636 -0.5386
vn 0.7943 0.4110 0.4474
vn -0.6508 0.7513 -0.1093
vn 0.6560 -0.7236 -0.2148
vn 0.5649 0.3531 0.7458
vn -0.2958 -0.4780 -0.8271
vn -0.0228 -0.0113 -0.9997
vn 0.8928 -0.1859 -0.4103
vn -0.7591 0.5892 -0.2769
vn 0.3124 -0.0151 0.9498
vn -0.4358 0.3126 -0.8440
vn 0.8195 0.5601 0.1214
vn -0.8411 -0.0855 0.5341
vn 0.0760 -0.2503 0.9652
vn -0.3599 0.9109 -0.2017
vn -0.9213 -0.3093 0.2359
vn 0.9491 0.3135 -0.0291
vn -0.0654 -0.5717 0.8179
vn 0.1713 0.2008 0.9645
vn -0.7225 0.2536 0.6432
vn 0.9613 0.0038 -0.2754
vn -0.5138 0.0862 -0.8536
vn 0.2510 -0.9074 0.3371
vn -0.1601 0.9665 -0.2004
vn -0.9373 -0.2514 0.2413
vn 0.9535 0.1765 -0.2443
vn 0.8281 0.5421 0.1427
vn -0.4400 0.8512 -0.2861
vn 0.3743 -0.7818 0.4987
vn 0.9430 0.2096 -0.2583
vn -0.9150 -0.2478 0.3183
vn -0.4215 0.8991 -0.1180
vn 0.4036 -0.8724 0.2757
vn -0.8811 -0.4725 0.0204
vn -0.8803 -0.1083 0.4618
vn 0.9267 0.3471 -0.1441
vn 0.3423 -0.7876 0.5124
vn -0.4296 0.8661 -0.2556
vn 0.9300 0.3228 -0.1760
vn -0.8216 -0.3521 0.4484
vn -0.2666 0.7960 -0.5434
vn 0.0252 -0.7559 0.6541
vn -0.9412 -0.3215 0.1037
vn 0.1465 0.6848 -0.7139
vn 0.2260 -0.7033 0.6740
vn 0.9508 -0.1844 -0.2488
vn 0.9615 0.0871 0.2605
vn -0.8054 0.2348 0.5443
vn 0.1413 -0.3641 0.9206
vn -0.0629 0.3760 -0.9245
vn -0.1525 0.9361 -0.3169
vn -0.9369 -0.1399 0.3204
vn 0.9645 0.2639 0.0100
vn 0.0355 0.6362 -0.7707
vn 0.0966 -0.5724 0.8143
vn -0.2993 0.2691 0.9154
vn -0.9329 -0.3576 -0.0425
vn 0.9285 0.3308 0.1690
vn 0.2867 -0.8500 0.4420
vn 0.0928 -0.7562 0.6478
vn -0.0213 0.6291 -0.7770
vn 0.9908 0.0657 -0.1179
vn -0.9361 -0.1374 0.3237
vn 0.1316 0.6235 -0.7707
vn 0.2392 -0.6139 0.7522
vn -0.8571 0.1528 0.4920
vn 0.9377 -0.3150 0.1468
vn 0.9497 -0.2653 0.1663
vn 0.2931 -0.4015 0.8677
vn 0.0961 0.4064 -0.9086
vn -0.8990 0.1729 0.4023
vn -0.9588 0.0279 0.2826
vn 0.9889 0.0318 -0.1452
vn 0.0835 -0.5492 0.8315
vn -0.0156 0.7989 -0.6013
vn -0.8679 -0.3418 0.3604
vn 0.1590 0.5846 -0.7956
vn 0.3889 -0.2142 0.8961
vn 0.9069 0.4092 0.1003
vn -0.7617 -0.6471 -0.0326
vn 0.3199 -0.0059 -0.9474
vn 0.4766 0.3354 0.8126
vn -0.9079 0.0080 0.4191
vn 0.9360 0.1324 -0.3261
vn 0.4696 0.6377 0.6106
vn 0.1648 0.1858 -0.9687
vn -0.6784 0.7159 0.1648
vn 0.0748 -0.6406 0.7643
vn 0.8489 0.5180 0.1053
vn 0.2191 0.6769 -0.7027
vn 0.8880 -0.1864 -0.4204
vn 0.7732 -0.1142 -0.6238
vn 0.4026 0.1677 0.8999
vn -0.7335 0.1103 -0.6706
vn -0.8526 0.4293 0.2981
vn 0.7617 0.1518 -0.6299
vn -0.7117 -0.1201 -0.6921
vn 0.3649 0.2468 0.8977
vn -0.9619 -0.0011 0.2734
vn -0.9748 -0.0092 0.2228
vn -0.7590 -0.2580 -0.5978
vn 0.5000 0.4142 0.7606
vn 0.8052 0.0311 -0.5922
vn -0.7572 -0.3181 0.5705
vn 0.8150 0.2836 -0.5054
vn -0.6731 0.1277 -0.7284
vn 0.3747 -0.0632 0.9250
vn 0.2887 -0.0410 0.9565
vn 0.7702 0.5644 -0.2969
vn -0.8428 -0.4058 0.3536
vn 0.5459 -0.4512 0.7060
vn -0.5516 0.3399 -0.7617
vn 0.8765 0.2668 -0.4008
vn -0.8935 -0.1806 0.4111
vn -0.4705 0.0857 -0.8782
vn -0.6604 0.4903 -0.5688
vn 0.3896 -0.2619 0.8830
vn -0.6308 -0.7749 0.0402
vn 0.4435 0.8746 -0.1960
vn 0.4659 0.0661 0.8824
vn -0.6988 -0.2283 -0.6779
vn 0.7543 0.4785 -0.4495
vn -0.9469 -0.1289 0.2947
vn 0.8709 0.1318 -0.4734
vn 0.2324 0.3074 0.9227
vn -0.6034 0.0303 -0.7969
vn -0.8721 0.4544 0.1817
vn -0.7819 0.6222 0.0390
vn 0.8730 -0.3133 -0.3738
vn -0.3962 0.1727 -0.9018
vn 0.1595 -0.0347 0.9866
vn 0.2146 -0.1761 0.9607
vn 0.8367 -0.4305 -0.3386
vn -0.8203 0.5209 0.2361
vn 0.1319 0.3834 0.9141
vn -0.3284 0.1166 -0.9373
vn 0.9102 -0.1901 -0.3680
vn -0.9225 0.3014 0.2411
vn -0.2698 0.2727 -0.9235
vn -0.2681 -0.1961 -0.9432
vn 0.2842 0.0264 0.9584
vn -0.8141 0.5169 0.2648
vn 0.8249 -0.4560 -0.3341
vn 0.2766 -0.2516 0.9275
vn -0.3879 0.2336 -0.8916
vn 0.8106 0.3581 -0.4632
vn -0.9817 -0.1893 -0.0222
vn -0.7651 0.6407 0.0644
vn -0.4579 0.4387 -0.7732
vn 0.3681 0.0101 0.9297
vn 0.8478 -0.3847 -0.3650
vn -0.3567 -0.0032 -0.9342
vn -0.6767 0.7159 0.1722
vn 0.6919 -0.6769 -0.2511
vn 0.3368 0.1261 0.9331
vn 0.2210 -0.2838 -0.9331
vn 0.8357 0.3177 0.4479
vn -0.9870 -0.0300 -0.1576
vn -0.2963 0.2482 0.9223
vn -0.6496 0.4043 0.6439
vn -0.0166 -0.0874 -0.9960
vn -0.8861 -0.3684 -0.2812
vn 0.8100 0.4891 0.3235
vn 0.2772 0.9108 -0.3059
vn 0.4198 -0.6322 -0.6512
vn -0.8206 0.3537 0.4488
vn 0.5047 0.8621 0.0446
vn -0.6777 -0.7347 -0.0316
vn 0.5914 -0.5033 -0.6300
vn -0.7144 0.3521 0.6047
vn -0.3483 -0.9077 0.2340
vn -0.7783 -0.6015 -0.1803
vn 0.5568 0.8306 -0.0083
vn -0.4306 0.4780 0.7656
vn 0.2631 -0.3933 -0.8809
vn 0.7044 0.6707 0.2322
vn -0.7521 -0.6437 0.1413
vn 0.2403 -0.4224 -0.8740
vn -0.6804 0.2021 0.7044
vn -0.6214 0.3694 0.6910
vn -0.8818 0.4525 -0.1330
vn 0.8400 0.1320 0.5263
vn 0.2603 -0.0563 -0.9639
vn 0.2916 -0.4383 -0.8502
vn -0.5667 0.4273 0.7045
vn -0.7058 -0.7019 -0.0963
vn 0.6836 0.7144 0.1492
vn -0.7561 0.6472 0.0973
vn 0.4354 0.2491 -0.8651
vn 0.0035 -0.4382 0.8989
vn 0.7819 -0.5414 0.3092
vn -0.3620 0.8742 0.3236
vn -0.2131 -0.5458 0.8103
vn 0.5914 0.3070 -0.7457
vn 0.4269 -0.8929 0.1433
vn 0.9107 -0.1506 0.3845
vn 0.2579 -0.0278 0.9658
vn 0.3054 0.1421 -0.9416
vn -0.9628 0.2703 0.0055
vn 0.1551 -0.9309 -0.3307
vn -0.0722 0.9139 0.3994
vn -0.3022 -0.2760 0.9124
vn 0.4122 0.2104 -0.8865
vn 0.6530 0.4440 -0.6135
vn -0.2073 0.9139 0.3491
vn 0.3754 -0.9076 -0.1877
vn 0.2749 0.2035 -0.9397
vn -0.2229 -0.2953 0.9290
vn -0.0438 0.9094 0.4135
vn 0.1758 -0.9297 -0.3237
vn -0.5208 -0.4236 0.7412
vn -0.0388 -0.2012 0.9788
vn 0.4027 0.3384 -0.8505
vn 0.4081 -0.9038 -0.1286
vn -0.2341 0.9152 0.3280
vn 0.2597 0.4764 -0.8400
vn -0.0729 -0.5089 0.8578
vn -0.4691 0.8401 0.2723
vn 0.8233 -0.5496 -0.1418
vn 0.4708 0.2217 0.8539
vn -0.7581 0.6520 -0.0143
vn 0.6611 -0.6422 -0.3880
vn -0.4218 -0.6709 -0.6099
vn 0.0078 -0.2013 -0.9795
vn 0.7531 0.4595 0.4708
vn 0.6579 -0.7522 -0.0367
vn -0.7073 0.7027 -0.0774
vn -0.4897 0.8626 -0.1270
vn 0.7612 0.4675 0.4495
vn -0.6717 -0.4845 -0.5604
vn -0.5163 0.8438 -0.1462
vn 0.3507 -0.9193 0.1785
vn 0.7816 0.5061 -0.3648
vn 0.4770 0.3584 0.8025
vn -0.3692 -0.3432 -0.8636
vn 0.5768 -0.8149 0.0564
vn 0.5639 -0.8256 -0.0179
vn -0.2555 0.9248 -0.2819
vn -0.6580 -0.4825 -0.5781
vn 0.7779 0.4724 0.4143
vn -0.6713 0.7317 -0.1181
vn 0.5508 -0.7913 -0.2654
vn 0.5438 0.3599 0.7581
vn -0.1960 -0.5035 -0.8415
vn 0.0776 -0.1392 -0.9872
vn 0.8792 -0.1456 -0.4537
vn -0.9591 0.1988 0.2015
vn 0.1960 -0.0868 0.9768
vt 0.195051 0.054320
vt 0.201653 0.052992
vt 0.201956 0.056119
vt 0.182371 0.030646
vt 0.188409 0.038147
vt 0.182371 0.039751
vt 0.195638 0.049310
vt 0.202596 0.049171
vt 0.196972 0.053348
vt 0.200014 0.049677
vt 0.202799 0.054247
vt 0.198552 0.052066
vt 0.186150 0.042334
vt 0.190226 0.043133
vt 0.184975 0.044140
vt 0.195765 0.051462
vt 0.199481 0.047626
vt 0.202739 0.047269
vt 0.204457 0.050501
vt 0.201693 0.047389
vt 0.196629 0.043459
vt 0.200622 0.042232
vt 0.190336 0.040354
vt 0.186943 0.037628
vt 0.190891 0.036360
vt 0.190891 0.047801
vt 0.186453 0.049777
vt 0.200147 0.057606
vt 0.194717 0.054936
vt 0.200660 0.057952
vt 0.206197 0.053139
vt 0.192711 0.056397
vt 0.200663 0.059154
vt 0.190332 0.030255
vt 0.192909 0.033291
vt 0.190923 0.034261
vt 0.197703 0.041135
vt 0.194337 0.036881
vt 0.196918 0.036174
vt 0.198888 0.041417
vt 0.199389 0.036890
vt 0.201774 0.040624
vt 0.198593 0.036956
vt 0.203162 0.033632
vt 0.201001 0.038451
vt 0.204753 0.026381
vt 0.205775 0.023811
vt 0.206197 0.023752
vt 0.196341 0.033131
vt 0.194194 0.029966
vt 0.195139 0.029573
vt 0.192993 0.036451
vt 0.191898 0.039733
vt 0.191688 0.036772
vt 0.202139 0.029674
vt 0.200768 0.032448
vt 0.196527 0.034050
vt 0.196810 0.030484
vt 0.198185 0.033968
vt 0.193090 0.026643
vt 0.192781 0.027011
vt 0.192711 0.026807
vt 0.193183 0.026857
vt 0.192011 0.042776
vt 0.191697 0.042836
vt 0.195870 0.030515
vt 0.195099 0.028037
vt 0.197249 0.037436
vt 0.203739 0.026290
vt 0.203959 0.029871
vt 0.194602 0.033728
vt 0.200522 0.044963
vt 0.195618 0.047819
vt 0.189184 0.026971
vt 0.192824 0.028294
vt 0.197241 0.059011
vt 0.201750 0.057825
vt 0.202893 0.062305
vt 0.180472 0.039878
vt 0.187829 0.036277
vt 0.188986 0.041542
vt 0.195454 0.051543
vt 0.199516 0.053011
vt 0.194040 0.055426
vt 0.194529 0.052630
vt 0.196381 0.047315
vt 0.197264 0.053007
vt 0.194260 0.056782
vt 0.196429 0.059999
vt 0.193509 0.062532
vt 0.200744 0.053452
vt 0.198226 0.048719
vt 0.201119 0.048443
vt 0.194440 0.048366
vt 0.196353 0.041804
vt 0.198726 0.047546
vt 0.188297 0.032128
vt 0.185249 0.025371
vt 0.189247 0.025986
vt 0.194728 0.031224
vt 0.193894 0.026288
vt 0.195865 0.031144
vt 0.197828 0.035905
vt 0.196249 0.032403
vt 0.197278 0.031889
vt 0.197944 0.033369
vt 0.199414 0.029755
vt 0.199075 0.033934
vt 0.189266 0.019584
vt 0.186058 0.019504
vt 0.195745 0.029085
vt 0.194825 0.024814
vt 0.195849 0.025052
vt 0.197352 0.020578
vt 0.197720 0.021039
vt 0.197338 0.020841
vt 0.194404 0.028057
vt 0.194808 0.027802
vt 0.201889 0.025436
vt 0.202240 0.025737
vt 0.192871 0.035432
vt 0.195813 0.035307
vt 0.194281 0.035064
vt 0.196825 0.040324
vt 0.198136 0.042473
vt 0.200188 0.042314
vt 0.182822 0.031314
vt 0.200016 0.051367
vt 0.196994 0.057294
vt 0.196932 0.055981
vt 0.196697 0.062958
vt 0.193703 0.065318
vt 0.200318 0.055880
vt 0.194408 0.058426
vt 0.179617 0.042616
vt 0.188862 0.044378
vt 0.196767 0.061644
vt 0.202868 0.064778
vt 0.193868 0.046806
vt 0.196591 0.042086
vt 0.193459 0.041859
vt 0.195716 0.064474
vt 0.202735 0.067864
vt 0.180122 0.045492
vt 0.188703 0.046191
vt 0.199520 0.058621
vt 0.192720 0.061518
vt 0.197161 0.066338
vt 0.194952 0.066796
vt 0.196775 0.035885
vt 0.199730 0.044573
vt 0.195360 0.046637
vt 0.189266 0.049426
vt 0.183768 0.051798
vt 0.179741 0.047865
vt 0.198132 0.062549
vt 0.198848 0.067214
vt 0.201867 0.069230
vt 0.194404 0.064377
vt 0.195482 0.070047
vt 0.201874 0.066851
vt 0.199906 0.062798
vt 0.202240 0.062137
vt 0.180332 0.047121
vt 0.192870 0.042455
vt 0.191467 0.050154
vt 0.191467 0.040593
vt 0.194970 0.057364
vt 0.198070 0.052740
vt 0.197171 0.061180
vt 0.201404 0.070768
vt 0.196559 0.072487
vt 0.194686 0.067892
vt 0.201050 0.041172
vt 0.203351 0.039479
vt 0.203342 0.041730
vt 0.202211 0.036721
vt 0.204226 0.038974
vt 0.204493 0.044333
vt 0.201873 0.035885
vt 0.195976 0.046015
vt 0.201349 0.045408
vt 0.201810 0.048365
vt 0.201988 0.057749
vt 0.196922 0.051481
vt 0.201988 0.050046
vt 0.186440 0.055235
vt 0.190470 0.050633
vt 0.192135 0.052499
vt 0.201277 0.066649
vt 0.203837 0.070103
vt 0.199888 0.068336
vt 0.198302 0.042601
vt 0.201988 0.043383
vt 0.197830 0.045026
vt 0.196378 0.043967
vt 0.200146 0.039996
vt 0.204915 0.067040
vt 0.202557 0.062056
vt 0.205324 0.061871
vt 0.185290 0.051026
vt 0.189271 0.045445
vt 0.201836 0.041285
vt 0.198540 0.037186
vt 0.201338 0.036479
vt 0.201511 0.048492
vt 0.196720 0.050046
vt 0.198075 0.072760
vt 0.202780 0.074979
vt 0.193427 0.057084
vt 0.186729 0.060371
vt 0.196406 0.050021
vt 0.203681 0.052661
vt 0.200573 0.033248
vt 0.196720 0.029913
vt 0.198375 0.028921
vt 0.200347 0.035135
vt 0.198674 0.031298
vt 0.200771 0.031894
vt 0.203904 0.056872
vt 0.201786 0.053188
vt 0.203539 0.053030
vt 0.187568 0.040384
vt 0.189988 0.037280
vt 0.189133 0.042492
vt 0.192605 0.031441
vt 0.193427 0.026932
vt 0.193390 0.031698
vt 0.202550 0.028257
vt 0.202547 0.024906
vt 0.203369 0.025063
vt 0.191832 0.043340
vt 0.192410 0.040183
vt 0.193184 0.043334
vt 0.191249 0.034421
vt 0.187901 0.036722
vt 0.200202 0.050233
vt 0.198075 0.047570
vt 0.198791 0.047344
vt 0.192786 0.035684
vt 0.193184 0.035495
vt 0.193116 0.035689
vt 0.203681 0.020906
vt 0.198225 0.042805
vt 0.198509 0.042690
vt 0.195658 0.076848
vt 0.197001 0.073749
vt 0.197625 0.077225
vt 0.201133 0.027801
vt 0.185353 0.044743
vt 0.201883 0.058289
vt 0.196305 0.039468
vt 0.197882 0.034422
vt 0.188009 0.048220
vt 0.191451 0.045709
vt 0.192721 0.048539
vt 0.189858 0.047513
vt 0.194401 0.042563
vt 0.196187 0.047299
vt 0.184806 0.056335
vt 0.188860 0.054698
vt 0.189687 0.056540
vt 0.197585 0.038657
vt 0.200693 0.039827
vt 0.196958 0.039775
vt 0.185014 0.036425
vt 0.182634 0.032860
vt 0.184460 0.032535
vt 0.184372 0.040947
vt 0.186736 0.042025
vt 0.182948 0.042856
vt 0.189371 0.041933
vt 0.191877 0.037921
vt 0.191936 0.042588
vt 0.196799 0.033009
vt 0.195404 0.029507
vt 0.197061 0.029090
vt 0.188940 0.050141
vt 0.190907 0.046198
vt 0.191572 0.050550
vt 0.186569 0.033273
vt 0.187110 0.029720
vt 0.187059 0.033309
vt 0.190118 0.034322
vt 0.188828 0.029269
vt 0.189597 0.029134
vt 0.183771 0.028477
vt 0.184515 0.023117
vt 0.185037 0.028452
vt 0.189991 0.041873
vt 0.189001 0.045506
vt 0.188640 0.041704
vt 0.197961 0.025625
vt 0.198261 0.020544
vt 0.198972 0.020517
vt 0.192662 0.069090
vt 0.192521 0.068937
vt 0.192661 0.068943
vt 0.189000 0.025879
vt 0.189195 0.022237
vt 0.189348 0.022242
vt 0.184248 0.019549
vt 0.183565 0.015970
vt 0.184724 0.019573
vt 0.200693 0.017397
vt 0.200300 0.013622
vt 0.200438 0.013613
vt 0.196733 0.025692
vt 0.188763 0.036606
vt 0.187996 0.036519
vt 0.189782 0.038013
vt 0.200001 0.038034
vt 0.186973 0.040769
vt 0.187331 0.046425
vt 0.182634 0.047172
vt 0.200002 0.044123
vt 0.195135 0.043906
vt 0.185102 0.060381
vt 0.191572 0.060601
vt 0.193202 0.052567
vt 0.186871 0.052567
vt 0.200242 0.017397
vt 0.188509 0.025961
vt 0.199280 0.065746
vt 0.205314 0.064539
vt 0.203961 0.070979
vt 0.192428 0.045056
vt 0.196156 0.036030
vt 0.201641 0.042702
vt 0.195032 0.071954
vt 0.202344 0.066369
vt 0.203646 0.072010
vt 0.189610 0.050474
vt 0.193408 0.052086
vt 0.191200 0.055949
vt 0.188054 0.046702
vt 0.189815 0.043222
vt 0.190796 0.047432
vt 0.187066 0.051982
vt 0.188987 0.059170
vt 0.204152 0.058465
vt 0.201204 0.054655
vt 0.203821 0.053344
vt 0.189125 0.046038
vt 0.191547 0.042078
vt 0.193255 0.045162
vt 0.201692 0.061059
vt 0.198280 0.056107
vt 0.202316 0.056350
vt 0.198736 0.044779
vt 0.196423 0.040496
vt 0.196859 0.040339
vt 0.201128 0.046809
vt 0.199096 0.044608
vt 0.199667 0.043667
vt 0.190678 0.034640
vt 0.193333 0.031999
vt 0.191706 0.035321
vt 0.201584 0.052988
vt 0.198388 0.053078
vt 0.191188 0.035018
vt 0.191097 0.031564
vt 0.192050 0.031980
vt 0.195452 0.040501
vt 0.195374 0.041046
vt 0.195192 0.040861
vt 0.195673 0.040671
vt 0.192915 0.030990
vt 0.197761 0.028161
vt 0.193459 0.026444
vt 0.188521 0.038507
vt 0.191417 0.038405
vt 0.198506 0.048933
vt 0.197704 0.045223
vt 0.189389 0.038930
vt 0.191068 0.039347
vt 0.202228 0.050785
vt 0.199789 0.047380
vt 0.195899 0.066682
vt 0.193459 0.048267
vt 0.200726 0.062587
vt 0.193640 0.060882
vt 0.191086 0.063828
vt 0.197761 0.054781
vt 0.194394 0.075294
vt 0.204479 0.075294
vt 0.195192 0.068614
vt 0.202018 0.075560
vt 0.189063 0.064669
vt 0.195592 0.057009
vt 0.197701 0.065358
vt 0.192828 0.055387
vt 0.187825 0.061860
vt 0.189329 0.056017
vt 0.181100 0.058064
vt 0.186687 0.050454
vt 0.189323 0.055244
vt 0.187374 0.051022
vt 0.190695 0.057013
vt 0.185059 0.055195
vt 0.193806 0.041035
vt 0.199300 0.044401
vt 0.193454 0.045797
vt 0.188558 0.058211
vt 0.192650 0.053484
vt 0.192376 0.050614
vt 0.187403 0.046601
vt 0.191184 0.046002
vt 0.179617 0.049378
vt 0.186838 0.045618
vt 0.198857 0.040123
vt 0.194824 0.036208
vt 0.198725 0.035684
vt 0.188393 0.056098
vt 0.192176 0.059762
vt 0.188567 0.061798
vt 0.186819 0.060930
vt 0.182293 0.057729
vt 0.186188 0.064384
vt 0.192711 0.058041
vt 0.197161 0.073414
vt 0.187066 0.070355
vt 0.197853 0.031042
vt 0.194376 0.026940
vt 0.197071 0.026349
vt 0.199698 0.056973
vt 0.196155 0.060223
vt 0.195953 0.057237
vt 0.187291 0.041869
vt 0.187738 0.036318
vt 0.190500 0.040769
vt 0.182745 0.039295
vt 0.188743 0.036373
vt 0.185415 0.041641
vt 0.190868 0.028209
vt 0.192235 0.025303
vt 0.192711 0.025267
vt 0.192398 0.046661
vt 0.190463 0.044101
vt 0.191570 0.043973
vt 0.193499 0.022613
vt 0.194548 0.018889
vt 0.195406 0.022713
vt 0.189728 0.032062
vt 0.186147 0.034897
vt 0.187710 0.031709
vt 0.184524 0.033112
vt 0.184668 0.029079
vt 0.186365 0.032958
vt 0.191544 0.067648
vt 0.192122 0.067339
vt 0.191993 0.067761
vt 0.192625 0.064776
vt 0.191665 0.067187
vt 0.191544 0.064384
vt 0.194525 0.015801
vt 0.194986 0.015846
vt 0.183624 0.029148
vt 0.182719 0.026177
vt 0.185388 0.036996
vt 0.189744 0.028030
vt 0.192497 0.049033
vt 0.190389 0.046757
vt 0.181544 0.044215
vt 0.187066 0.050494
vt 0.191317 0.049571
vt 0.199199 0.052809
vt 0.203514 0.049095
vt 0.203153 0.055273
vt 0.201704 0.053660
vt 0.196709 0.053676
vt 0.200417 0.052367
vt 0.183198 0.048086
vt 0.185248 0.042188
vt 0.187436 0.046041
vt 0.201430 0.039755
vt 0.203463 0.043882
vt 0.200011 0.042305
vt 0.198219 0.042146
vt 0.196600 0.038032
vt 0.198431 0.038373
vt 0.195389 0.046302
vt 0.197879 0.048879
vt 0.194394 0.050045
vt 0.200106 0.044549
vt 0.201914 0.040327
vt 0.202746 0.044817
vt 0.201706 0.036199
vt 0.202026 0.032444
vt 0.203753 0.035955
vt 0.184894 0.038202
vt 0.184345 0.033135
vt 0.186235 0.033899
vt 0.189134 0.026990
vt 0.188715 0.022092
vt 0.188863 0.022061
vt 0.199157 0.038182
vt 0.198179 0.035244
vt 0.200379 0.037579
vt 0.198889 0.035185
vt 0.199785 0.031788
vt 0.200499 0.032007
vt 0.186354 0.029930
vt 0.199253 0.030276
vt 0.198999 0.028097
vt 0.200472 0.030077
vt 0.199040 0.024081
vt 0.199199 0.024196
vt 0.199067 0.024174
vt 0.197428 0.035450
vt 0.196540 0.030672
vt 0.201563 0.027169
vt 0.201704 0.027208
vt 0.198291 0.028102
vt 0.200365 0.032926
vt 0.188363 0.026967
vt 0.187669 0.030280
vt 0.181633 0.042279
vt 0.203970 0.039952
vt 0.199914 0.048783
vt 0.197964 0.046140
vt 0.196138 0.042366
vt 0.198291 0.046643
vt 0.201332 0.048170
vt 0.189134 0.048871
vt 0.185169 0.052644
vt 0.196391 0.056505
vt 0.202756 0.060211
vt 0.189220 0.033300
vt 0.194550 0.041238
vt 0.192620 0.039593
vt 0.194717 0.027971
vt 0.192993 0.025372
vt 0.181413 0.035660
vt 0.196655 0.053819
vt 0.192720 0.042484
vt 0.193459 0.026477
vt 0.196425 0.036372
vt 0.198500 0.029142
vt 0.193529 0.028858
vt 0.197767 0.020782
vt 0.196688 0.034925
vt 0.195078 0.040045
vt 0.188971 0.052178
vt 0.188772 0.047196
vt 0.192413 0.050132
vt 0.194970 0.048826
vt 0.194839 0.056069
vt 0.197241 0.034478
vt 0.193109 0.026811
vt 0.191635 0.040041
vt 0.192429 0.035249
vt 0.199155 0.051021
vt 0.192845 0.035473
vt 0.203349 0.020808
vt 0.195658 0.073414
vt 0.187934 0.046526
vt 0.189858 0.041003
vt 0.185517 0.053317
vt 0.183095 0.037279
vt 0.194770 0.033388
vt 0.186959 0.029702
vt 0.188755 0.034462
vt 0.183769 0.023075
vt 0.192511 0.069090
vt 0.183420 0.015992
vt 0.192428 0.034999
vt 0.191926 0.049024
vt 0.187628 0.041876
vt 0.200161 0.059338
vt 0.187908 0.042454
vt 0.196214 0.060592
vt 0.188999 0.034733
vt 0.197514 0.027793
vt 0.193056 0.026288
vt 0.200912 0.048510
vt 0.200221 0.051041
vt 0.189065 0.049394
vt 0.192828 0.065919
vt 0.187369 0.054827
vt 0.192176 0.053962
vt 0.193679 0.032232
vt 0.199698 0.061299
vt 0.193454 0.018749
vt 0.182293 0.026109
vt 0.189546 0.049033
vt 0.195205 0.057133
vt 0.199892 0.040872
vt 0.182247 0.037878
vt 0.197755 0.034612
vt 0.199182 0.024101
vt 0.196391 0.030705
s 0
usemtl Material
f 11/1/1 6/2/1 9/3/1
f 2/4/2 4/5/2 1/6/2
f 6/7/3 10/8/3 9/9/3
f 7/10/4 11/11/4 12/12/4
f 8/13/5 12/14/5 10/15/5
f 5/16/6 16/17/6 6/2/6
f 7/10/7 13/18/7 5/19/7
f 8/20/8 16/21/8 18/22/8
f 7/23/9 18/24/9 17/25/9
f 10/15/10 4/26/10 3/27/10
f 12/12/11 1/28/11 4/29/11
f 2/30/12 10/8/12 3/31/12
f 1/32/13 9/3/13 2/33/13
f 33/34/14 23/35/14 15/36/14
f 36/37/15 19/38/15 22/39/15
f 33/40/16 19/41/16 34/42/16
f 36/43/17 23/44/17 35/45/17
f 24/46/18 27/47/18 28/48/18
f 30/49/19 20/50/19 21/51/19
f 32/52/20 14/53/20 29/54/20
f 30/55/21 23/44/21 22/56/21
f 29/57/22 20/58/22 31/59/22
f 28/60/23 26/61/23 25/62/23
f 20/50/24 27/63/24 21/51/24
f 14/53/25 28/64/25 25/65/25
f 14/66/26 26/67/26 20/58/26
f 15/68/27 31/59/27 19/41/27
f 21/69/28 32/70/28 30/55/28
f 23/35/29 29/54/29 15/36/29
f 22/39/30 31/71/30 30/49/30
f 18/22/31 36/43/31 35/45/31
f 17/72/32 34/42/32 13/18/32
f 13/73/33 36/37/33 16/17/33
f 17/74/34 35/75/34 33/34/34
f 63/76/35 40/77/35 61/78/35
f 61/79/36 42/80/36 62/81/36
f 41/82/37 63/83/37 64/84/37
f 59/85/38 39/86/38 57/87/38
f 42/88/39 64/89/39 62/90/39
f 60/91/40 43/92/40 46/93/40
f 57/94/41 43/95/41 58/96/41
f 59/97/42 46/98/42 47/99/42
f 45/100/43 52/101/43 48/102/43
f 54/103/44 44/104/44 45/105/44
f 56/106/45 38/107/45 53/108/45
f 68/109/46 46/98/46 65/110/46
f 55/111/47 38/112/47 44/113/47
f 52/114/48 50/115/48 49/116/48
f 45/105/49 50/117/49 51/118/49
f 38/107/50 52/119/50 49/120/50
f 44/113/51 49/116/51 50/115/51
f 66/121/52 55/111/52 67/122/52
f 48/102/53 54/123/53 45/100/53
f 66/124/54 56/106/54 53/108/54
f 67/125/55 54/103/55 65/126/55
f 42/80/56 60/127/56 59/97/56
f 41/82/57 58/96/57 37/128/57
f 37/129/58 60/91/58 40/77/58
f 41/130/59 59/85/59 57/87/59
f 62/90/60 71/131/60 70/132/60
f 64/84/61 72/133/61 71/134/61
f 69/135/62 62/81/62 70/136/62
f 72/137/63 61/78/63 69/138/63
f 46/93/64 67/125/64 65/126/64
f 47/139/65 66/124/65 39/86/65
f 43/95/66 66/121/66 67/122/66
f 54/123/67 68/140/67 65/141/67
f 76/142/68 69/138/68 73/143/68
f 73/144/69 70/136/69 74/145/69
f 71/134/70 76/146/70 75/147/70
f 70/132/71 75/148/71 74/149/71
f 78/150/72 90/151/72 77/152/72
f 80/153/73 91/154/73 78/155/73
f 76/156/74 83/157/74 75/148/74
f 76/142/75 79/158/75 84/159/75
f 80/160/76 83/157/76 82/161/76
f 82/161/77 84/162/77 77/163/77
f 79/164/78 80/153/78 78/155/78
f 84/165/79 78/166/79 77/167/79
f 82/168/80 90/169/80 88/170/80
f 80/160/81 88/171/81 92/172/81
f 74/145/82 79/164/82 73/144/82
f 75/148/83 81/173/83 74/149/83
f 85/174/2 89/175/2 87/176/2
f 86/177/2 92/178/2 89/175/2
f 87/176/2 90/151/2 85/174/2
f 87/176/2 92/178/2 88/179/2
f 85/174/2 91/180/2 86/177/2
f 103/181/84 98/182/84 101/183/84
f 94/184/2 96/185/2 93/186/2
f 101/187/85 100/188/85 102/189/85
f 99/190/86 103/191/86 104/192/86
f 100/193/87 104/194/87 102/195/87
f 97/196/88 108/197/88 98/182/88
f 97/198/89 109/199/89 105/200/89
f 98/201/90 110/202/90 100/188/90
f 99/203/91 110/204/91 109/205/91
f 102/195/92 96/206/92 95/207/92
f 96/208/93 103/191/93 93/209/93
f 101/187/94 95/210/94 94/211/94
f 93/212/95 101/183/95 94/213/95
f 125/214/96 115/215/96 107/216/96
f 128/217/97 111/218/97 114/219/97
f 126/220/98 107/221/98 111/222/98
f 128/223/99 115/224/99 127/225/99
f 113/226/100 120/227/100 116/228/100
f 122/229/101 112/230/101 113/231/101
f 124/232/102 106/233/102 121/234/102
f 122/235/103 115/224/103 114/236/103
f 123/237/104 106/238/104 112/239/104
f 120/240/105 118/241/105 117/242/105
f 112/230/106 119/243/106 113/231/106
f 106/233/107 120/240/107 117/242/107
f 112/239/108 117/244/108 118/245/108
f 107/221/109 123/237/109 111/222/109
f 116/228/110 122/235/110 113/226/110
f 115/246/111 121/247/111 107/248/111
f 114/219/112 123/249/112 122/229/112
f 108/250/113 127/225/113 110/202/113
f 105/200/114 125/251/114 126/220/114
f 105/252/115 128/217/115 108/197/115
f 109/205/116 127/253/116 125/214/116
f 159/254/117 136/255/117 157/256/117
f 130/257/2 132/258/2 129/259/2
f 157/260/118 138/261/118 158/262/118
f 137/263/119 159/264/119 160/265/119
f 153/266/120 143/267/120 135/268/120
f 138/269/121 160/270/121 158/271/121
f 154/272/122 142/273/122 156/274/122
f 154/275/123 135/276/123 139/277/123
f 156/278/124 143/279/124 155/280/124
f 161/281/125 148/282/125 162/283/125
f 150/284/126 140/285/126 141/286/126
f 152/287/127 134/288/127 149/289/127
f 152/290/128 142/291/128 150/292/128
f 151/293/129 134/294/129 140/295/129
f 148/296/130 146/297/130 145/298/130
f 161/299/131 146/300/131 147/301/131
f 162/302/132 145/303/132 164/304/132
f 163/305/133 145/306/133 146/307/133
f 139/277/134 149/308/134 151/293/134
f 144/309/135 150/292/135 141/310/135
f 135/268/136 152/287/136 149/289/136
f 139/311/137 150/284/137 142/273/137
f 138/261/138 156/278/138 155/280/138
f 137/263/139 154/275/139 133/312/139
f 136/255/140 154/272/140 156/274/140
f 138/269/141 153/266/141 137/313/141
f 158/271/142 132/314/142 131/315/142
f 160/265/143 129/316/143 132/317/143
f 130/318/144 158/262/144 131/319/144
f 159/254/145 130/320/145 129/321/145
f 140/295/146 164/322/146 163/305/146
f 134/288/147 162/302/147 164/304/147
f 141/286/148 163/323/148 161/299/148
f 141/310/149 162/283/149 144/309/149
f 195/324/150 172/325/150 193/326/150
f 166/327/2 168/328/2 165/329/2
f 193/330/151 174/331/151 194/332/151
f 173/333/152 195/334/152 196/335/152
f 191/336/153 171/337/153 189/338/153
f 174/339/154 196/335/154 194/340/154
f 192/341/155 175/342/155 178/343/155
f 189/344/156 175/345/156 190/346/156
f 191/347/157 178/348/157 179/349/157
f 180/350/158 183/351/158 184/352/158
f 186/353/159 176/354/159 177/355/159
f 188/356/160 170/357/160 185/358/160
f 200/359/161 178/348/161 197/360/161
f 187/361/162 170/362/162 176/363/162
f 184/364/163 182/365/163 181/366/163
f 177/355/164 182/365/164 183/367/164
f 180/368/165 181/369/165 170/357/165
f 170/362/166 182/370/166 176/363/166
f 198/371/167 187/361/167 199/372/167
f 180/350/168 186/373/168 177/374/168
f 200/375/169 185/358/169 198/376/169
f 197/377/170 187/378/170 186/353/170
f 172/379/171 191/347/171 174/331/171
f 169/380/172 189/344/172 190/346/172
f 169/381/173 192/341/173 172/325/173
f 173/333/174 191/336/174 189/338/174
f 194/340/175 168/382/175 167/383/175
f 196/335/176 165/384/176 168/382/176
f 166/385/177 194/332/177 167/386/177
f 165/387/178 193/326/178 166/388/178
f 175/342/179 197/377/179 178/343/179
f 171/337/180 200/375/180 198/376/180
f 175/345/181 198/371/181 199/372/181
f 186/373/182 200/359/182 197/360/182
f 211/389/183 206/390/183 209/391/183
f 201/392/2 203/393/2 204/394/2
f 209/395/184 208/396/184 210/397/184
f 207/398/185 211/399/185 212/400/185
f 208/401/186 212/402/186 210/403/186
f 205/404/187 216/405/187 206/390/187
f 205/406/188 217/407/188 213/408/188
f 206/409/189 218/410/189 208/396/189
f 207/411/190 218/412/190 217/413/190
f 203/414/191 212/415/191 204/416/191
f 212/400/192 201/417/192 204/418/192
f 202/419/193 210/397/193 203/420/193
f 211/389/194 202/421/194 201/422/194
f 233/423/195 223/424/195 215/425/195
f 236/426/196 219/427/196 222/428/196
f 233/429/197 219/430/197 234/431/197
f 236/432/198 223/433/198 235/434/198
f 224/435/199 227/436/199 228/437/199
f 230/438/200 220/439/200 221/440/200
f 232/441/201 214/442/201 229/443/201
f 232/444/202 222/445/202 230/446/202
f 229/447/203 220/448/203 231/449/203
f 228/450/204 226/451/204 225/452/204
f 220/453/205 227/454/205 221/455/205
f 214/442/206 228/456/206 225/457/206
f 214/458/207 226/459/207 220/448/207
f 215/460/208 231/449/208 219/430/208
f 221/461/209 232/444/209 230/446/209
f 223/424/210 229/443/210 215/425/210
f 222/462/211 231/463/211 230/438/211
f 216/464/212 235/434/212 218/410/212
f 213/408/213 233/429/213 234/431/213
f 216/405/214 234/465/214 236/466/214
f 218/412/215 233/423/215 217/413/215
f 267/467/216 244/468/216 265/469/216
f 237/470/2 239/471/2 240/472/2
f 265/473/217 246/474/217 266/475/217
f 245/476/218 267/477/218 268/478/218
f 261/479/219 251/480/219 243/481/219
f 246/482/220 268/483/220 266/484/220
f 262/485/221 250/486/221 264/487/221
f 261/488/222 247/489/222 262/490/222
f 263/491/223 250/492/223 251/493/223
f 252/494/224 255/495/224 256/496/224
f 259/497/225 249/498/225 258/499/225
f 257/500/226 252/501/226 242/502/226
f 258/503/227 251/493/227 250/492/227
f 257/504/228 248/505/228 259/506/228
f 256/507/229 254/508/229 253/509/229
f 248/510/230 255/511/230 249/498/230
f 242/502/231 256/512/231 253/513/231
f 242/514/232 254/508/232 248/505/232
f 243/515/233 259/506/233 247/489/233
f 249/516/234 260/517/234 258/503/234
f 251/480/235 257/500/235 243/481/235
f 250/486/236 259/497/236 258/499/236
f 244/518/237 263/491/237 246/474/237
f 241/519/238 261/488/238 262/490/238
f 241/520/239 264/487/239 244/468/239
f 245/521/240 263/522/240 261/479/240
f 239/471/241 268/483/241 240/472/241
f 240/523/242 267/477/242 237/524/242
f 265/473/243 239/525/243 238/526/243
f 237/527/244 265/469/244 238/528/244
f 11/1/245 5/16/245 6/2/245
f 2/4/2 3/529/2 4/5/2
f 6/7/246 8/20/246 10/8/246
f 7/10/247 5/19/247 11/11/247
f 8/13/248 7/23/248 12/14/248
f 5/16/249 13/73/249 16/17/249
f 7/10/250 17/72/250 13/18/250
f 8/20/251 6/7/251 16/21/251
f 7/23/252 8/13/252 18/24/252
f 10/15/253 12/14/253 4/26/253
f 12/12/254 11/11/254 1/28/254
f 2/30/255 9/9/255 10/8/255
f 1/32/256 11/1/256 9/3/256
f 33/34/257 35/75/257 23/35/257
f 36/37/258 34/530/258 19/38/258
f 33/40/259 15/68/259 19/41/259
f 36/43/260 22/56/260 23/44/260
f 24/46/261 21/69/261 27/47/261
f 30/49/262 31/71/262 20/50/262
f 32/52/263 24/531/263 14/53/263
f 30/55/264 32/70/264 23/44/264
f 29/57/265 14/66/265 20/58/265
f 28/60/23 27/63/23 26/61/23
f 20/50/266 26/61/266 27/63/266
f 14/53/267 24/531/267 28/64/267
f 14/66/268 25/532/268 26/67/268
f 15/68/269 29/57/269 31/59/269
f 21/69/270 24/46/270 32/70/270
f 23/35/271 32/52/271 29/54/271
f 22/39/272 19/38/272 31/71/272
f 18/22/273 16/21/273 36/43/273
f 17/72/274 33/40/274 34/42/274
f 13/73/275 34/530/275 36/37/275
f 17/74/276 18/533/276 35/75/276
f 63/76/277 37/129/277 40/77/277
f 61/79/278 40/534/278 42/80/278
f 41/82/279 37/128/279 63/83/279
f 59/85/280 47/139/280 39/86/280
f 42/88/281 41/130/281 64/89/281
f 60/91/282 58/535/282 43/92/282
f 57/94/283 39/536/283 43/95/283
f 59/97/284 60/127/284 46/98/284
f 45/100/285 51/537/285 52/101/285
f 54/103/286 55/538/286 44/104/286
f 56/106/287 48/539/287 38/107/287
f 68/109/288 47/99/288 46/98/288
f 55/111/289 53/540/289 38/112/289
f 52/114/290 51/541/290 50/115/290
f 45/105/291 44/104/291 50/117/291
f 38/107/292 48/539/292 52/119/292
f 44/113/293 38/112/293 49/116/293
f 66/121/294 53/540/294 55/111/294
f 48/102/295 56/542/295 54/123/295
f 66/124/296 68/543/296 56/106/296
f 67/125/297 55/538/297 54/103/297
f 42/80/298 40/534/298 60/127/298
f 41/82/299 57/94/299 58/96/299
f 37/129/300 58/535/300 60/91/300
f 41/130/301 42/88/301 59/85/301
f 62/90/302 64/89/302 71/131/302
f 64/84/303 63/83/303 72/133/303
f 69/135/304 61/79/304 62/81/304
f 72/137/305 63/76/305 61/78/305
f 46/93/306 43/92/306 67/125/306
f 47/139/307 68/543/307 66/124/307
f 43/95/308 39/536/308 66/121/308
f 54/123/309 56/542/309 68/140/309
f 76/142/310 72/137/310 69/138/310
f 73/144/311 69/135/311 70/136/311
f 71/134/312 72/133/312 76/146/312
f 70/132/313 71/131/313 75/148/313
f 78/150/314 91/180/314 90/151/314
f 80/153/315 92/544/315 91/154/315
f 76/156/316 84/162/316 83/157/316
f 76/142/317 73/143/317 79/158/317
f 80/160/318 81/173/318 83/157/318
f 82/161/319 83/157/319 84/162/319
f 79/164/320 81/545/320 80/153/320
f 84/165/321 79/546/321 78/166/321
f 82/168/322 77/547/322 90/169/322
f 80/160/323 82/161/323 88/171/323
f 74/145/324 81/545/324 79/164/324
f 75/148/325 83/157/325 81/173/325
f 85/174/2 86/177/2 89/175/2
f 86/177/2 91/180/2 92/178/2
f 87/176/2 88/179/2 90/151/2
f 87/176/2 89/175/2 92/178/2
f 85/174/2 90/151/2 91/180/2
f 103/181/326 97/196/326 98/182/326
f 94/184/2 95/548/2 96/185/2
f 101/187/327 98/201/327 100/188/327
f 99/190/328 97/198/328 103/191/328
f 100/193/329 99/203/329 104/194/329
f 97/196/330 105/252/330 108/197/330
f 97/198/331 99/190/331 109/199/331
f 98/201/332 108/250/332 110/202/332
f 99/203/333 100/193/333 110/204/333
f 102/195/334 104/194/334 96/206/334
f 96/208/335 104/192/335 103/191/335
f 101/187/336 102/189/336 95/210/336
f 93/212/337 103/181/337 101/183/337
f 125/214/338 127/253/338 115/215/338
f 128/217/339 126/549/339 111/218/339
f 126/220/340 125/251/340 107/221/340
f 128/223/341 114/236/341 115/224/341
f 113/226/342 119/550/342 120/227/342
f 122/229/343 123/249/343 112/230/343
f 124/232/344 116/551/344 106/233/344
f 122/235/345 124/552/345 115/224/345
f 123/237/346 121/553/346 106/238/346
f 120/240/105 119/554/105 118/241/105
f 112/230/347 118/555/347 119/243/347
f 106/233/348 116/551/348 120/240/348
f 112/239/349 106/238/349 117/244/349
f 107/221/350 121/553/350 123/237/350
f 116/228/351 124/552/351 122/235/351
f 115/246/352 124/556/352 121/247/352
f 114/219/353 111/218/353 123/249/353
f 108/250/354 128/223/354 127/225/354
f 105/200/355 109/199/355 125/251/355
f 105/252/356 126/549/356 128/217/356
f 109/205/357 110/204/357 127/253/357
f 159/254/358 133/557/358 136/255/358
f 130/257/2 131/558/2 132/258/2
f 157/260/359 136/559/359 138/261/359
f 137/263/360 133/312/360 159/264/360
f 153/266/361 155/560/361 143/267/361
f 138/269/362 137/313/362 160/270/362
f 154/272/363 139/311/363 142/273/363
f 154/275/364 153/561/364 135/276/364
f 156/278/365 142/291/365 143/279/365
f 161/281/366 147/562/366 148/282/366
f 150/284/367 151/563/367 140/285/367
f 152/287/368 144/564/368 134/288/368
f 152/290/369 143/279/369 142/291/369
f 151/293/370 149/308/370 134/294/370
f 148/296/130 147/565/130 146/297/130
f 161/299/371 163/323/371 146/300/371
f 162/302/372 148/566/372 145/303/372
f 163/305/373 164/322/373 145/306/373
f 139/277/374 135/276/374 149/308/374
f 144/309/375 152/290/375 150/292/375
f 135/268/376 143/267/376 152/287/376
f 139/311/377 151/563/377 150/284/377
f 138/261/378 136/559/378 156/278/378
f 137/263/379 153/561/379 154/275/379
f 136/255/380 133/557/380 154/272/380
f 138/269/381 155/560/381 153/266/381
f 158/271/382 160/270/382 132/314/382
f 160/265/383 159/264/383 129/316/383
f 130/318/384 157/260/384 158/262/384
f 159/254/385 157/256/385 130/320/385
f 140/295/386 134/294/386 164/322/386
f 134/288/387 144/564/387 162/302/387
f 141/286/388 140/285/388 163/323/388
f 141/310/389 161/281/389 162/283/389
f 195/324/390 169/381/390 172/325/390
f 166/327/2 167/567/2 168/328/2
f 193/330/391 172/379/391 174/331/391
f 173/333/392 169/568/392 195/334/392
f 191/336/393 179/569/393 171/337/393
f 174/339/394 173/333/394 196/335/394
f 192/341/395 190/570/395 175/342/395
f 189/344/396 171/571/396 175/345/396
f 191/347/397 192/572/397 178/348/397
f 180/350/398 177/374/398 183/351/398
f 186/353/399 187/378/399 176/354/399
f 188/356/400 180/368/400 170/357/400
f 200/359/401 179/349/401 178/348/401
f 187/361/402 185/573/402 170/362/402
f 184/364/163 183/367/163 182/365/163
f 177/355/403 176/354/403 182/365/403
f 180/368/404 184/574/404 181/369/404
f 170/362/405 181/575/405 182/370/405
f 198/371/406 185/573/406 187/361/406
f 180/350/407 188/576/407 186/373/407
f 200/375/408 188/356/408 185/358/408
f 197/377/409 199/577/409 187/378/409
f 172/379/410 192/572/410 191/347/410
f 169/380/411 173/578/411 189/344/411
f 169/381/412 190/570/412 192/341/412
f 173/333/413 174/339/413 191/336/413
f 194/340/414 196/335/414 168/382/414
f 196/335/415 195/334/415 165/384/415
f 166/385/416 193/330/416 194/332/416
f 165/387/417 195/324/417 193/326/417
f 175/342/418 199/577/418 197/377/418
f 171/337/419 179/569/419 200/375/419
f 175/345/420 171/571/420 198/371/420
f 186/373/421 188/576/421 200/359/421
f 211/389/422 205/404/422 206/390/422
f 201/392/2 202/579/2 203/393/2
f 209/395/423 206/409/423 208/396/423
f 207/398/424 205/406/424 211/399/424
f 208/401/425 207/411/425 212/402/425
f 205/404/426 213/580/426 216/405/426
f 205/406/427 207/398/427 217/407/427
f 206/409/428 216/464/428 218/410/428
f 207/411/429 208/401/429 218/412/429
f 203/414/430 210/581/430 212/415/430
f 212/400/431 211/399/431 201/417/431
f 202/419/432 209/395/432 210/397/432
f 211/389/433 209/391/433 202/421/433
f 233/423/434 235/582/434 223/424/434
f 236/426/435 234/583/435 219/427/435
f 233/429/436 215/460/436 219/430/436
f 236/432/437 222/445/437 223/433/437
f 224/435/438 221/461/438 227/436/438
f 230/438/439 231/463/439 220/439/439
f 232/441/440 224/584/440 214/442/440
f 232/444/441 223/433/441 222/445/441
f 229/447/442 214/458/442 220/448/442
f 228/450/204 227/454/204 226/451/204
f 220/453/443 226/451/443 227/454/443
f 214/442/444 224/584/444 228/456/444
f 214/458/445 225/585/445 226/459/445
f 215/460/446 229/447/446 231/449/446
f 221/461/447 224/435/447 232/444/447
f 223/424/448 232/441/448 229/443/448
f 222/462/449 219/586/449 231/463/449
f 216/464/450 236/432/450 235/434/450
f 213/408/451 217/407/451 233/429/451
f 216/405/452 213/580/452 234/465/452
f 218/412/453 235/582/453 233/423/453
f 267/467/454 241/520/454 244/468/454
f 237/470/2 238/587/2 239/471/2
f 265/473/455 244/518/455 246/474/455
f 245/476/456 241/519/456 267/477/456
f 261/479/457 263/522/457 251/480/457
f 246/482/458 245/521/458 268/483/458
f 262/485/459 247/588/459 250/486/459
f 261/488/460 243/515/460 247/489/460
f 263/491/461 264/589/461 250/492/461
f 252/494/462 249/516/462 255/495/462
f 259/497/463 248/510/463 249/498/463
f 257/500/464 260/590/464 252/501/464
f 258/503/465 260/517/465 251/493/465
f 257/504/466 242/514/466 248/505/466
f 256/507/467 255/591/467 254/508/467
f 248/510/468 254/592/468 255/511/468
f 242/502/469 252/501/469 256/512/469
f 242/514/470 253/509/470 254/508/470
f 243/515/471 257/504/471 259/506/471
f 249/516/472 252/494/472 260/517/472
f 251/480/473 260/590/473 257/500/473
f 250/486/474 247/588/474 259/497/474
f 244/518/475 264/589/475 263/491/475
f 241/519/476 245/476/476 261/488/476
f 241/520/477 262/485/477 264/487/477
f 245/521/478 246/482/478 263/522/478
f 239/471/479 266/484/479 268/483/479
f 240/523/480 268/478/480 267/477/480
f 265/473/481 266/475/481 239/525/481
f 237/527/482 267/467/482 265/469/482
