# Blender 4.2.1 LTS
# www.blender.org
mtllib grass_cluster_2.mtl
g grass_cluster_2_Mesh
v 0.112015 0.104414 -0.559899
v -0.603192 0.078180 0.149978
v 0.587657 0.138326 0.610216
v -0.196008 0.103031 0.843810
v -0.013154 0.093486 -0.355077
v -0.500757 0.083057 -0.209514
v -0.581186 0.078832 -0.200098
v -0.054422 0.115806 0.957014
v 0.029712 0.123292 0.774236
v 0.459135 0.132050 0.774285
v 0.617420 0.138651 0.426923
v 0.498383 0.128696 0.312364
v 0.464899 0.124034 0.172821
v -0.593638 0.101332 0.313763
v -0.412222 0.094654 0.446586
v -0.251663 0.100509 0.687444
v 0.028230 0.114782 0.458674
v 0.152100 0.121661 0.527921
v 0.100061 0.121051 0.573605
v -0.062922 0.108606 0.400753
v -0.030931 0.113060 0.534095
v -0.032476 0.114390 0.603985
v -0.213219 0.062504 0.369179
v -0.090639 0.168382 0.575708
v -0.064705 0.113286 0.636876
v 0.467345 0.109268 -0.493374
v 0.551227 0.210925 0.051193
v 0.656553 0.124181 -0.187336
v 0.688903 0.127663 -0.103062
v 0.437457 0.017114 0.190937
v 0.112886 -0.002001 -0.593618
v -0.642503 -0.029596 -0.164606
v -0.635079 -0.030639 0.086292
v -0.274419 -0.006425 0.692148
v -0.187193 -0.001704 0.871568
v 0.469483 0.027705 0.817142
v 0.586577 0.032372 0.604561
v -0.000083 -0.012238 -0.387752
v -0.501837 -0.022897 -0.215169
v -0.055502 0.009852 0.951358
v 0.028632 0.017338 0.768580
v 0.098981 0.015097 0.567950
v -0.033556 0.008436 0.598329
v -0.065785 0.007332 0.631221
v 0.616341 0.032697 0.421268
v 0.497303 0.022742 0.306708
v -0.629782 -0.026120 0.319779
v -0.413302 -0.011300 0.440930
v 0.027151 0.008828 0.453019
v 0.151020 0.015707 0.522265
v -0.064002 0.002652 0.395097
v -0.032011 0.007106 0.528439
v -0.199690 -0.004276 0.420826
v -0.091805 0.004568 0.565175
v 0.544577 0.020652 0.062669
v 0.466266 0.003314 -0.499029
v 0.687824 0.021709 -0.108717
v 0.662355 0.018524 -0.197024
v 0.592909 0.074313 0.112133
v 0.499307 0.075953 0.208204
v -0.504703 0.032046 -0.214851
v -0.000085 0.042808 -0.390131
v 0.622677 0.088235 0.426031
v 0.592689 0.087937 0.611248
v 0.667405 0.073870 -0.198236
v 0.696051 0.100556 -0.101376
v -0.646865 0.025250 -0.165010
v 0.502483 0.078176 0.309451
v 0.469029 0.058523 -0.500847
v -0.056896 0.065049 0.960245
v -0.203649 0.052632 0.878729
v 0.028576 0.072598 0.776959
v -0.642486 0.024639 0.115498
v -0.635814 0.028712 0.323214
v 0.473813 0.083221 0.826280
v -0.278846 0.048572 0.699397
v -0.418482 0.043599 0.445403
v 0.114071 0.053116 -0.595722
v -0.357002 0.085924 -0.279760
v 0.106853 0.125024 0.729015
v -0.018072 0.148817 0.431472
v 0.035000 0.116374 0.518982
v 0.033455 0.117703 0.588872
v -0.358082 -0.020030 -0.285415
v 0.105773 0.019070 0.723360
v -0.018658 0.005724 0.423911
v 0.033920 0.010420 0.513327
v 0.032375 0.011749 0.583217
v 0.107899 0.074458 0.732116
v -0.267029 0.039679 -0.304350
vn -0.0858 0.9963 -0.0051
vn -0.0351 0.9994 -0.0039
vn -0.0406 0.9987 -0.0309
vn -0.0637 0.9976 -0.0289
vn -0.3247 0.9256 0.1942
vn 0.6030 0.7792 -0.1707
vn 0.6801 0.7332 0.0011
vn -0.7426 0.5983 0.3010
vn 0.0287 0.9428 0.3321
vn -0.0548 0.9983 -0.0202
vn -0.0731 0.9973 0.0085
vn -0.0357 0.9991 -0.0248
vn -0.0451 0.9982 -0.0399
vn 0.0378 0.9993 0.0042
vn -0.0276 0.8961 -0.4430
vn 0.1199 0.7624 0.6359
vn 0.0215 0.9822 -0.1867
vn 0.2780 0.9356 -0.2175
vn 0.0643 -0.9979 -0.0050
vn 0.0351 -0.9994 0.0039
vn 0.0573 -0.9979 0.0312
vn 0.0637 -0.9976 0.0289
vn 0.0496 -0.9988 0.0057
vn 0.0548 -0.9983 0.0202
vn 0.0299 -0.9993 0.0204
vn 0.0768 -0.9970 -0.0075
vn 0.0390 -0.9988 0.0295
vn 0.0451 -0.9982 0.0399
vn 0.0651 -0.9979 -0.0061
vn 0.0379 -0.9978 0.0543
vn 0.0532 -0.9985 -0.0100
vn 0.0416 -0.9991 0.0072
vn 0.0382 -0.9989 0.0255
vn 0.4323 -0.7900 0.4347
vn -0.3486 0.2446 -0.9048
vn 0.9792 -0.1268 0.1583
vn 0.9617 -0.0758 -0.2635
vn -0.3293 -0.0331 -0.9437
vn 0.6969 -0.0180 -0.7169
vn 0.8351 -0.0881 -0.5430
vn -0.4701 -0.1519 0.8695
vn 0.9954 -0.0916 -0.0292
vn 0.6234 -0.7536 0.2085
vn 0.9061 -0.0448 0.4207
vn -0.9899 -0.1407 0.0151
vn -0.9932 -0.1114 0.0341
vn -0.2437 -0.1390 0.9598
vn -0.8731 -0.3136 0.3732
vn -0.4807 -0.1162 0.8692
vn 0.8671 -0.1460 0.4762
vn -0.8674 -0.1330 0.4795
vn 0.2586 -0.0447 -0.9649
vn -0.8743 0.0003 -0.4854
vn -0.8487 0.1349 -0.5114
vn 0.1800 0.1492 -0.9723
vn -0.7301 0.4914 0.4748
vn 0.7823 0.0907 0.6163
vn -0.5886 0.0535 0.8066
vn -0.8210 0.4951 0.2842
vn -0.1284 0.0581 0.9900
vn -0.8657 0.5001 -0.0202
vn -0.7901 0.6111 -0.0485
vn 0.9084 0.0021 0.4182
vn 0.7749 0.4392 0.4546
vn 0.8629 0.4540 -0.2222
vn -0.5589 0.5278 0.6395
vn 0.8088 0.2858 -0.5140
vn 0.6873 0.0844 -0.7215
vn -0.1214 0.1126 -0.9862
vn 0.9082 0.2173 -0.3576
vn 0.9820 0.1013 0.1596
vn -0.4375 0.1270 -0.8902
vn 0.5208 0.4752 0.7092
vn -0.2150 0.0984 -0.9716
vn 0.5036 0.0633 0.8616
vn 0.4902 -0.1302 0.8618
vn -0.3052 -0.0411 -0.9514
vn 0.0424 -0.9985 0.0350
vn 0.0283 -0.9993 0.0228
vn 0.0555 -0.9982 0.0231
vn -0.0424 0.9985 -0.0350
vn -0.0435 0.9988 -0.0215
vn 0.6110 0.7899 -0.0517
vn -0.0167 0.9996 -0.0248
vn -0.0662 0.9978 0.0075
vn -0.0361 0.9993 0.0099
vn -0.0573 0.9979 -0.0312
vn -0.0987 0.9951 -0.0047
vn -0.0456 0.9973 0.0581
vn -0.2081 0.9150 -0.3456
vn 0.4617 0.7475 0.4775
vn -0.0299 0.9993 -0.0204
vn -0.7146 0.6835 0.1486
vn -0.0370 0.9990 -0.0243
vn -0.0397 0.9988 -0.0283
vn -0.0446 0.9983 -0.0375
vn 0.1215 0.9818 -0.1459
vn 0.1167 0.9871 -0.1098
vn -0.2831 0.9446 0.1658
vn -0.5146 0.8272 0.2257
vn 0.3581 0.9171 -0.1754
vn 0.0843 -0.9964 0.0051
vn 0.0356 -0.9994 -0.0023
vn 0.0406 -0.9987 0.0309
vn 0.0987 -0.9951 0.0047
vn 0.0519 -0.9986 0.0046
vn 0.0641 -0.9979 0.0056
vn 0.0354 -0.9991 0.0239
vn 0.0382 -0.9989 0.0288
vn 0.0446 -0.9983 0.0375
vn 0.0464 -0.9988 0.0183
vn 0.0361 -0.9988 0.0342
vn 0.0699 -0.9975 0.0142
vn 0.0070 -0.9995 0.0299
vn 0.0375 -0.9990 0.0252
vn 0.5511 -0.7086 0.4407
vn -0.4387 -0.0177 -0.8985
vn 0.9793 -0.1253 0.1588
vn 0.9575 -0.0933 -0.2728
vn -0.3377 -0.0122 -0.9412
vn 0.6944 -0.0293 -0.7190
vn 0.8386 -0.0598 -0.5415
vn -0.4842 -0.2569 0.8364
vn 0.6974 -0.6364 -0.3296
vn 0.7603 -0.1384 0.6346
vn 0.9076 -0.0620 0.4152
vn -0.9964 -0.0790 0.0292
vn -0.9890 -0.1459 0.0253
vn -0.2440 -0.1423 0.9593
vn -0.8905 -0.1292 0.4363
vn -0.4799 -0.1073 0.8707
vn 0.8671 -0.1525 0.4743
vn -0.8677 -0.1212 0.4821
vn 0.2589 -0.0424 -0.9650
vn -0.8760 -0.0209 -0.4818
vn -0.8443 0.2836 -0.4546
vn 0.2048 0.5659 -0.7986
vn -0.8731 0.0960 0.4781
vn 0.6809 0.6200 0.3900
vn -0.4732 0.3784 0.7956
vn -0.8584 0.3737 0.3515
vn -0.1966 0.6864 0.7001
vn -0.8105 0.5855 0.0146
vn -0.6284 0.7778 0.0115
vn 0.9064 -0.0173 0.4220
vn 0.8583 0.2541 0.4459
vn 0.9960 0.0827 -0.0331
vn -0.4892 0.0791 0.8686
vn 0.8289 0.1083 -0.5489
vn 0.6887 0.0973 -0.7185
vn -0.3133 -0.2209 -0.9236
vn 0.9012 0.2682 -0.3404
vn 0.9822 0.0996 0.1592
vn -0.3421 -0.1746 -0.9233
vn 0.5061 0.7160 0.4809
vn -0.2703 0.4996 -0.8230
vn 0.4912 0.0358 0.8703
vn 0.5023 -0.1538 0.8509
vn -0.2753 0.1172 -0.9542
vn 0.0435 -0.9988 0.0215
vn 0.0528 -0.9983 0.0233
vn 0.0173 -0.9995 0.0248
vn 0.6238 0.7763 -0.0905
vn -0.0373 0.9968 -0.0704
vn -0.0555 0.9982 -0.0231
vt 0.181127 0.177797
vt 0.184361 0.181676
vt 0.181224 0.183127
vt 0.178883 0.176300
vt 0.174981 0.177086
vt 0.174999 0.175164
vt 0.187635 0.179194
vt 0.186863 0.184060
vt 0.186102 0.181888
vt 0.179051 0.181619
vt 0.180753 0.177200
vt 0.195770 0.172626
vt 0.191579 0.177558
vt 0.189666 0.176728
vt 0.181854 0.174287
vt 0.181724 0.176930
vt 0.180954 0.176157
vt 0.189536 0.179372
vt 0.188566 0.179641
vt 0.188766 0.178599
vt 0.194711 0.170450
vt 0.188913 0.177002
vt 0.187836 0.178151
vt 0.179823 0.176752
vt 0.180023 0.175710
vt 0.190168 0.159293
vt 0.186455 0.164588
vt 0.188215 0.160141
vt 0.178155 0.172400
vt 0.179083 0.175258
vt 0.177212 0.174358
vt 0.197083 0.167565
vt 0.192067 0.167304
vt 0.197422 0.162784
vt 0.194463 0.171109
vt 0.190025 0.169118
vt 0.192486 0.181673
vt 0.188940 0.180239
vt 0.187727 0.170395
vt 0.185016 0.173212
vt 0.185989 0.170618
vt 0.184090 0.169607
vt 0.188698 0.174243
vt 0.191687 0.169907
vt 0.192537 0.172588
vt 0.182551 0.174943
vt 0.186451 0.175736
vt 0.182565 0.176866
vt 0.187392 0.175286
vt 0.186630 0.170417
vt 0.188324 0.174840
vt 0.195514 0.181869
vt 0.191352 0.176917
vt 0.197443 0.180645
vt 0.189418 0.177755
vt 0.189294 0.175136
vt 0.188522 0.175883
vt 0.194451 0.184044
vt 0.188654 0.177480
vt 0.187590 0.176329
vt 0.186032 0.179194
vt 0.189294 0.185387
vt 0.187526 0.184509
vt 0.186649 0.176779
vt 0.187881 0.177201
vt 0.184777 0.177676
vt 0.196990 0.177434
vt 0.193736 0.173127
vt 0.197443 0.174114
vt 0.185297 0.181905
vt 0.183739 0.184951
vt 0.185729 0.183860
vt 0.185075 0.179188
vt 0.184733 0.180579
vt 0.189963 0.176119
vt 0.188667 0.182101
vt 0.188506 0.172824
vt 0.190403 0.179561
vt 0.190559 0.184301
vt 0.189963 0.179527
vt 0.191183 0.177649
vt 0.190640 0.180525
vt 0.190640 0.177395
vt 0.198171 0.187758
vt 0.199288 0.184404
vt 0.199708 0.184449
vt 0.186443 0.177619
vt 0.186083 0.183433
vt 0.186083 0.177395
vt 0.191711 0.172882
vt 0.191321 0.176675
vt 0.191352 0.172824
vt 0.195606 0.181061
vt 0.195174 0.172870
vt 0.195606 0.172824
vt 0.184708 0.177695
vt 0.182959 0.183704
vt 0.190072 0.179983
vt 0.191475 0.174684
vt 0.190447 0.180145
vt 0.198122 0.176372
vt 0.198393 0.175289
vt 0.197775 0.167952
vt 0.198192 0.167837
vt 0.189268 0.177500
vt 0.189682 0.182986
vt 0.189272 0.183173
vt 0.186443 0.177563
vt 0.187029 0.184190
vt 0.186443 0.184448
vt 0.193323 0.186020
vt 0.192690 0.176109
vt 0.193082 0.176269
vt 0.190987 0.172973
vt 0.190557 0.172824
vt 0.192889 0.172824
vt 0.193323 0.172908
vt 0.191680 0.176647
vt 0.191333 0.181566
vt 0.191693 0.181482
vt 0.191352 0.186574
vt 0.189583 0.169023
vt 0.189680 0.169547
vt 0.185973 0.170542
vt 0.193975 0.181363
vt 0.192837 0.181984
vt 0.184175 0.181264
vt 0.182701 0.179567
vt 0.182794 0.179527
vt 0.197206 0.180075
vt 0.194057 0.181408
vt 0.192173 0.184117
vt 0.186062 0.181972
vt 0.196595 0.177819
vt 0.197782 0.180415
vt 0.196934 0.173038
vt 0.197273 0.177481
vt 0.189036 0.185568
vt 0.186857 0.184146
vt 0.184990 0.173900
vt 0.183341 0.170748
vt 0.185025 0.176799
vt 0.185329 0.175291
vt 0.185967 0.174842
vt 0.192160 0.184702
vt 0.190987 0.176649
vt 0.191015 0.173024
vt 0.185750 0.183578
vt 0.185750 0.177619
vt 0.188821 0.177995
vt 0.187505 0.180695
vt 0.188980 0.177941
vt 0.183222 0.170771
vt 0.182812 0.177605
vt 0.187252 0.172065
vt 0.193439 0.169821
vt 0.191679 0.174436
vt 0.190490 0.168932
vt 0.190660 0.168718
vt 0.191091 0.174567
vt 0.193175 0.184674
vt 0.189317 0.185465
vt 0.189782 0.175133
vt 0.189142 0.167226
vt 0.194939 0.173790
vt 0.185864 0.172588
vt 0.186695 0.178742
vt 0.186895 0.177699
vt 0.188128 0.177279
vt 0.181868 0.167105
vt 0.181101 0.174561
vt 0.180316 0.174838
vt 0.187184 0.168488
vt 0.186590 0.171635
vt 0.184663 0.171010
vt 0.184674 0.179232
vt 0.176363 0.178823
vt 0.183767 0.175116
vt 0.188617 0.167025
vt 0.197695 0.169821
vt 0.188805 0.168913
vt 0.183613 0.172527
vt 0.183082 0.183725
vt 0.188506 0.182066
vt 0.190987 0.184265
vt 0.191057 0.180489
vt 0.197775 0.187725
vt 0.186443 0.183578
vt 0.195052 0.180565
vt 0.189682 0.177395
vt 0.186853 0.177395
vt 0.192939 0.185814
vt 0.191711 0.186446
vt 0.187796 0.169897
vt 0.183777 0.182027
vt 0.197782 0.173822
vt 0.189048 0.185666
vt 0.184959 0.176783
vt 0.187252 0.183604
vt 0.183949 0.169450
vt 0.182722 0.177615
vt 0.188557 0.168718
vt 0.190072 0.168849
vt 0.188370 0.166947
vt 0.186898 0.168008
vt 0.188124 0.168940
s 0
usemtl Material
f 25/1/1 4/2/1 8/3/1
f 19/4/2 3/5/2 11/6/2
f 83/7/3 9/8/3 80/9/3
f 25/1/4 9/10/4 22/11/4
f 6/12/5 23/13/5 20/14/5
f 20/15/6 24/16/6 21/17/6
f 24/18/7 22/19/7 21/20/7
f 79/21/8 20/14/8 81/22/8
f 81/22/9 21/20/9 82/23/9
f 21/17/10 83/24/10 82/25/10
f 5/26/11 13/27/11 1/28/11
f 13/29/12 18/30/12 12/31/12
f 18/30/13 11/6/13 12/31/13
f 2/32/14 23/33/14 7/34/14
f 23/33/15 15/35/15 24/36/15
f 24/18/16 16/37/16 25/38/16
f 1/39/17 27/40/17 26/41/17
f 27/40/18 28/42/18 26/41/18
f 44/43/19 35/44/19 34/45/19
f 37/46/20 42/47/20 45/48/20
f 88/49/21 41/50/21 43/51/21
f 41/50/22 44/43/22 43/51/22
f 39/52/23 53/53/23 32/54/23
f 51/55/24 54/56/24 53/53/24
f 43/51/24 54/56/24 52/57/24
f 84/58/25 51/55/25 39/52/25
f 86/59/24 52/57/24 51/55/24
f 88/49/24 52/57/24 87/60/24
f 30/61/26 38/62/26 31/63/26
f 30/61/27 50/64/27 49/65/27
f 45/48/28 50/64/28 46/66/28
f 53/53/29 33/67/29 32/54/29
f 53/53/30 48/68/30 47/69/30
f 54/56/31 34/45/31 48/68/31
f 31/63/32 55/70/32 30/61/32
f 58/71/33 55/70/33 56/72/33
f 60/73/34 55/70/34 59/74/34
f 84/75/35 61/76/35 90/77/35
f 37/78/36 63/79/36 64/80/36
f 57/81/37 65/82/37 66/83/37
f 61/84/38 32/85/38 67/86/38
f 45/87/39 68/88/39 63/89/39
f 58/90/40 69/91/40 65/92/40
f 71/93/41 40/94/41 70/95/41
f 46/66/42 60/73/42 68/96/42
f 55/70/43 66/97/43 59/74/43
f 40/98/44 72/99/44 70/100/44
f 67/86/45 33/101/45 73/102/45
f 73/102/46 47/103/46 74/104/46
f 89/105/47 36/106/47 75/107/47
f 76/108/48 35/109/48 71/110/48
f 74/111/49 48/112/49 77/113/49
f 36/114/50 64/80/50 75/115/50
f 77/113/51 34/116/51 76/117/51
f 56/118/52 78/119/52 69/91/52
f 31/120/53 62/121/53 78/119/53
f 1/39/54 62/122/54 5/123/54
f 69/124/55 1/39/55 26/41/55
f 15/125/56 76/126/56 16/37/56
f 10/127/57 64/128/57 3/129/57
f 14/130/58 77/131/58 15/125/58
f 76/126/59 4/132/59 16/37/59
f 89/133/60 10/127/60 80/9/60
f 2/134/61 74/135/61 14/130/61
f 7/136/62 73/137/62 2/134/62
f 8/138/63 72/139/63 9/8/63
f 59/140/64 29/141/64 27/40/64
f 12/142/65 60/143/65 13/144/65
f 71/145/66 8/138/66 4/132/66
f 65/92/67 26/146/67 28/147/67
f 63/89/68 12/148/68 11/149/68
f 61/150/69 7/151/69 6/152/69
f 66/153/70 28/42/70 29/141/70
f 64/128/71 11/154/71 3/129/71
f 79/155/72 61/150/72 6/152/72
f 13/144/73 59/140/73 27/40/73
f 5/123/74 90/156/74 79/21/74
f 9/157/75 89/158/75 80/159/75
f 41/160/76 89/158/76 72/99/76
f 38/62/77 90/161/77 62/162/77
f 42/47/78 87/60/78 50/64/78
f 49/65/24 87/60/24 86/59/24
f 38/163/79 86/164/79 84/165/79
f 42/47/80 85/166/80 88/49/80
f 82/23/81 19/167/81 18/168/81
f 17/169/82 82/23/82 18/168/82
f 5/170/83 81/171/83 17/172/83
f 19/173/84 80/174/84 10/175/84
f 25/1/85 16/176/85 4/2/85
f 19/4/86 10/177/86 3/5/86
f 83/7/87 22/19/87 9/8/87
f 25/1/88 8/3/88 9/10/88
f 6/12/89 7/136/89 23/13/89
f 20/15/90 23/178/90 24/16/90
f 24/18/91 25/38/91 22/19/91
f 79/21/92 6/12/92 20/14/92
f 81/22/93 20/14/93 21/20/93
f 21/17/10 22/11/10 83/24/10
f 5/26/94 17/179/94 13/27/94
f 13/29/95 17/172/95 18/30/95
f 18/30/96 19/4/96 11/6/96
f 2/32/97 14/180/97 23/33/97
f 23/33/98 14/180/98 15/35/98
f 24/18/99 15/125/99 16/37/99
f 1/39/100 13/144/100 27/40/100
f 27/40/101 29/141/101 28/42/101
f 44/43/102 40/181/102 35/44/102
f 37/46/103 36/182/103 42/47/103
f 88/49/104 85/166/104 41/50/104
f 41/50/105 40/181/105 44/43/105
f 39/52/106 51/55/106 53/53/106
f 51/55/24 52/57/24 54/56/24
f 43/51/24 44/43/24 54/56/24
f 84/58/107 86/59/107 51/55/107
f 86/59/24 87/60/24 52/57/24
f 88/49/24 43/51/24 52/57/24
f 30/61/108 49/65/108 38/62/108
f 30/61/109 46/66/109 50/64/109
f 45/48/110 42/47/110 50/64/110
f 53/53/111 47/69/111 33/67/111
f 53/53/112 54/56/112 48/68/112
f 54/56/113 44/43/113 34/45/113
f 31/63/114 56/72/114 55/70/114
f 58/71/115 57/183/115 55/70/115
f 60/73/116 30/61/116 55/70/116
f 84/75/117 39/184/117 61/76/117
f 37/78/118 45/185/118 63/79/118
f 57/81/119 58/186/119 65/82/119
f 61/84/120 39/187/120 32/85/120
f 45/87/121 46/188/121 68/88/121
f 58/90/122 56/118/122 69/91/122
f 71/93/123 35/189/123 40/94/123
f 46/66/124 30/61/124 60/73/124
f 55/70/125 57/183/125 66/97/125
f 40/98/126 41/160/126 72/99/126
f 67/86/127 32/85/127 33/101/127
f 73/102/128 33/101/128 47/103/128
f 89/105/129 85/190/129 36/106/129
f 76/108/130 34/191/130 35/109/130
f 74/111/131 47/192/131 48/112/131
f 36/114/132 37/78/132 64/80/132
f 77/113/133 48/112/133 34/116/133
f 56/118/134 31/120/134 78/119/134
f 31/120/135 38/193/135 62/121/135
f 1/39/136 78/194/136 62/122/136
f 69/124/137 78/194/137 1/39/137
f 15/125/138 77/131/138 76/126/138
f 10/127/139 75/195/139 64/128/139
f 14/130/140 74/135/140 77/131/140
f 76/126/141 71/145/141 4/132/141
f 89/133/142 75/195/142 10/127/142
f 2/134/143 73/137/143 74/135/143
f 7/136/144 67/196/144 73/137/144
f 8/138/145 70/197/145 72/139/145
f 59/140/146 66/153/146 29/141/146
f 12/142/147 68/198/147 60/143/147
f 71/145/148 70/197/148 8/138/148
f 65/92/149 69/91/149 26/146/149
f 63/89/150 68/88/150 12/148/150
f 61/150/151 67/199/151 7/151/151
f 66/153/152 65/200/152 28/42/152
f 64/128/153 63/201/153 11/154/153
f 79/155/154 90/202/154 61/150/154
f 13/144/155 60/143/155 59/140/155
f 5/123/156 62/122/156 90/156/156
f 9/157/157 72/99/157 89/158/157
f 41/160/158 85/203/158 89/158/158
f 38/62/159 84/58/159 90/161/159
f 42/47/24 88/49/24 87/60/24
f 49/65/160 50/64/160 87/60/160
f 38/163/161 49/204/161 86/164/161
f 42/47/162 36/182/162 85/166/162
f 82/23/10 83/7/10 19/167/10
f 17/169/163 81/22/163 82/23/163
f 5/170/164 79/205/164 81/171/164
f 19/173/165 83/206/165 80/174/165
