# Blender 4.2.1 LTS
# www.blender.org
mtllib grass_green_4.mtl
g grass_green_4_Mesh
v -0.073704 -0.026981 0.058105
v 0.030493 -0.031857 0.042517
v 0.021240 -0.001022 0.141103
v -0.044741 -0.006790 0.122662
v -0.098423 0.122244 0.060894
v -0.028800 0.129313 0.049330
v -0.082254 0.113851 0.107879
v -0.032164 0.114957 0.119259
v -0.010321 0.052672 0.052640
v -0.017803 0.077922 0.136303
v -0.094887 0.063105 0.064656
v -0.076482 0.077938 0.119876
v -0.115882 0.214860 0.076347
v -0.078169 0.439119 0.213186
v -0.111402 0.353665 0.151941
v -0.064438 0.234627 0.067777
v -0.100898 0.200087 0.109887
v -0.062683 0.206629 0.117813
v -0.111983 0.364368 0.128773
v -0.078421 0.446359 0.204267
v -0.067052 0.447312 0.204045
v -0.082532 0.366038 0.125098
v -0.084478 0.347054 0.151092
v -0.067245 0.439444 0.213699
v -0.082605 0.524260 0.227841
v -0.082268 0.527622 0.224285
v -0.077521 0.527018 0.224276
v -0.078081 0.523407 0.228122
v -0.089413 0.381824 0.189750
v -0.067935 0.398225 0.177031
v -0.088252 0.400664 0.177858
v -0.070735 0.377740 0.190139
v -0.113561 0.263196 0.134335
v -0.119652 0.297141 0.112937
v -0.069942 0.259170 0.124592
v -0.076662 0.302127 0.109875
v 0.074464 -0.028765 0.052402
v -0.026041 -0.045128 0.000085
v 0.056990 -0.061417 -0.051993
v 0.099422 -0.045547 -0.001253
v 0.088662 0.184269 -0.006295
v 0.048899 0.206391 -0.039142
v 0.090385 0.146416 -0.032244
v 0.066124 0.145281 -0.063141
v -0.006594 0.092708 -0.010308
v 0.045755 0.034539 -0.064917
v 0.067496 0.081038 0.034114
v 0.083461 0.043624 -0.016568
v 0.137780 0.203203 -0.028304
v 0.241177 0.298861 -0.206262
v 0.201130 0.231509 -0.125097
v 0.101086 0.229365 -0.062776
v 0.136898 0.164056 -0.053037
v 0.113528 0.164943 -0.084472
v 0.198387 0.257908 -0.116643
v 0.240058 0.303985 -0.203673
v 0.237355 0.306722 -0.207599
v 0.182007 0.269614 -0.135017
v 0.183350 0.235552 -0.141032
v 0.238676 0.301068 -0.210236
v 0.286847 0.300518 -0.226951
v 0.285082 0.304233 -0.224571
v 0.282648 0.306272 -0.227947
v 0.284656 0.302171 -0.230382
v 0.220145 0.264551 -0.171129
v 0.207612 0.288048 -0.175186
v 0.216882 0.280404 -0.163346
v 0.211889 0.270081 -0.182834
v 0.179713 0.218272 -0.097571
v 0.176462 0.248209 -0.088222
v 0.145347 0.228630 -0.118866
v 0.152701 0.263329 -0.110001
v 0.001448 0.138901 0.049448
v 0.125624 0.470018 0.057759
v 0.045836 0.266916 -0.004496
v -0.043586 0.162384 0.041645
v 0.010741 0.145481 0.004075
v -0.011679 0.152333 -0.015483
v 0.034800 0.272397 0.031629
v 0.122445 0.465120 0.067336
v 0.115001 0.477204 0.068601
v 0.010208 0.294786 0.027031
v 0.025435 0.286768 -0.011712
v 0.118744 0.482005 0.058193
v 0.155780 0.499996 0.095283
v 0.153097 0.497582 0.098403
v 0.150473 0.503152 0.098698
v 0.153482 0.505534 0.095313
v 0.113338 0.422137 0.036342
v 0.093354 0.431315 0.057587
v 0.104331 0.417398 0.057033
v 0.104667 0.434899 0.035262
v 0.027940 0.184804 0.001503
v 0.021998 0.186529 0.045593
v 0.006662 0.205303 -0.010326
v -0.013770 0.215739 0.043034
v -0.073777 0.111601 0.034127
v -0.032673 0.086790 -0.042180
v -0.006896 0.121706 0.040336
v -0.002069 0.100808 -0.018450
v 0.045258 0.366974 0.038856
v 0.073177 0.353549 0.012323
v 0.063179 0.352307 0.040782
v 0.058311 0.366072 0.008173
v -0.086037 0.075938 0.037396
v -0.041253 0.049573 -0.045386
v -0.011091 0.060619 -0.020616
v -0.015576 0.081738 0.042893
v -0.096595 0.039663 0.025026
v -0.037209 0.022615 -0.039798
v -0.011626 0.020151 -0.042370
v -0.016414 0.043712 0.030731
v 0.008892 0.017939 0.074155
v -0.093867 0.004967 0.032680
v -0.094836 0.016526 0.024349
v -0.041961 -0.020482 -0.048684
v -0.042790 0.010403 -0.044108
v 0.019854 -0.017662 -0.008293
v 0.000554 0.000217 -0.039328
v -0.008959 0.025607 0.053384
v -0.033914 -0.040796 0.013935
v -0.074111 -0.049287 -0.013210
v -0.018925 -0.052965 -0.024971
v 0.012058 -0.057933 -0.040854
v -0.041612 -0.054119 -0.028661
v -0.004978 -0.031960 0.042188
v -0.083930 -0.047863 -0.008658
v -0.043128 -0.059117 -0.044641
v -0.049911 -0.074755 -0.094638
v 0.035668 -0.071446 -0.084058
v 0.021528 -0.044776 0.001212
v -0.036176 -0.054172 -0.028829
v -0.036161 0.035179 -0.108897
v -0.029857 0.356364 -0.128933
v -0.023522 0.204589 -0.067625
v 0.011693 0.050748 -0.107674
v -0.030943 0.032204 -0.074511
v 0.001147 0.040791 -0.060107
v -0.018228 0.206587 -0.090537
v -0.028258 0.354465 -0.138420
v -0.017914 0.357399 -0.137270
v 0.010041 0.209447 -0.087013
v 0.000965 0.204579 -0.060911
v -0.020066 0.359333 -0.127059
v -0.021452 0.474331 -0.173045
v -0.021021 0.474039 -0.174893
v -0.018975 0.474106 -0.174475
v -0.019525 0.474419 -0.172494
v -0.033551 0.268700 -0.095768
v -0.012423 0.269250 -0.109852
v -0.030758 0.265796 -0.112220
v -0.016865 0.272177 -0.091982
v -0.026292 0.136762 -0.049594
v -0.023907 0.136771 -0.077600
v -0.000849 0.129366 -0.037698
v 0.010920 0.126043 -0.072070
v 0.029961 -0.001955 -0.102974
v 0.019060 0.017389 -0.038567
v -0.033482 0.000584 -0.113485
v -0.028084 0.014224 -0.063070
v -0.022781 0.406661 -0.168649
v -0.024223 0.408223 -0.162223
v -0.029375 0.404850 -0.169431
v -0.030459 0.406362 -0.163458
v -0.129484 -0.027160 0.057535
v -0.056559 -0.046508 -0.004327
v -0.013429 -0.018694 0.084601
v -0.051442 -0.016351 0.092094
v -0.124735 0.085920 0.047394
v -0.185103 0.241977 0.099005
v -0.132602 0.170944 0.094266
v -0.094958 0.098946 0.012238
v -0.095895 0.113364 0.073603
v -0.070168 0.122730 0.065125
v -0.143800 0.160278 0.079622
v -0.185793 0.238854 0.093512
v -0.186732 0.246878 0.090934
v -0.142060 0.187504 0.064997
v -0.130074 0.196683 0.083656
v -0.185947 0.249927 0.096979
v -0.201756 0.242219 0.111057
v -0.204050 0.242176 0.109459
v -0.203889 0.246341 0.109155
v -0.201429 0.246055 0.110903
v -0.171597 0.231408 0.092502
v -0.176397 0.235044 0.082475
v -0.176794 0.223981 0.086902
v -0.171012 0.241731 0.089105
v -0.115157 0.130620 0.083544
v -0.138193 0.111474 0.058535
v -0.105294 0.157479 0.073056
v -0.129885 0.143305 0.033457
v -0.078189 0.039663 -0.010379
v -0.040538 0.062803 0.066583
v -0.128213 0.060621 0.036992
v -0.078737 0.071746 0.074375
v -0.159307 0.212446 0.078231
v -0.155651 0.205472 0.097236
v -0.165100 0.196454 0.087664
v -0.147084 0.222080 0.093790
v -0.028446 -0.061179 -0.051234
v -0.049835 -0.031268 0.044400
v -0.100998 -0.047966 -0.008986
v -0.074586 -0.062552 -0.055623
v -0.044952 0.084928 -0.093382
v -0.175932 0.158409 -0.255308
v -0.120943 0.136522 -0.171928
v -0.057474 0.125694 -0.056623
v -0.077420 0.069616 -0.087829
v -0.098153 0.089118 -0.062566
v -0.103450 0.156656 -0.176972
v -0.167382 0.164641 -0.255226
v -0.171674 0.175935 -0.250303
v -0.114776 0.187030 -0.163610
v -0.133040 0.159793 -0.157806
v -0.180744 0.168733 -0.250592
v -0.186809 0.203502 -0.312894
v -0.185102 0.204495 -0.312458
v -0.185991 0.206612 -0.311409
v -0.187801 0.205451 -0.311923
v -0.163830 0.155603 -0.203263
v -0.158760 0.188973 -0.201121
v -0.150061 0.167914 -0.206405
v -0.173211 0.173884 -0.198071
v -0.093287 0.112810 -0.128944
v -0.069597 0.131836 -0.134328
v -0.107343 0.129628 -0.107372
v -0.079322 0.160928 -0.107028
v -0.048440 0.041862 0.000440
v -0.111945 0.034708 -0.019871
v -0.028924 0.028757 -0.060085
v -0.080540 0.025938 -0.062295
v 0.012151 -0.004809 0.128996
v 0.010632 -0.042591 0.008197
v 0.104362 -0.031927 0.042294
v 0.097154 -0.012430 0.104630
v 0.016344 0.154466 0.119746
v 0.016037 0.140579 0.033327
v 0.076166 0.123190 0.110531
v 0.095463 0.102996 0.055608
v 0.004037 0.068951 0.013555
v 0.097161 0.074544 0.034693
v 0.007230 0.080209 0.113869
v 0.075010 0.073474 0.100994
v 0.063040 0.184071 0.126906
v 0.246801 0.327948 0.092910
v 0.195058 0.258829 0.134356
v 0.065499 0.206529 0.076975
v 0.105444 0.193839 0.138665
v 0.119585 0.184825 0.084304
v 0.186855 0.292107 0.149499
v 0.247818 0.340240 0.101839
v 0.239395 0.351711 0.094576
v 0.172422 0.315677 0.120872
v 0.177999 0.271060 0.106782
v 0.238641 0.337949 0.085218
v 0.290030 0.340033 0.091640
v 0.286353 0.344000 0.094196
v 0.285021 0.347873 0.089264
v 0.289052 0.343425 0.086703
v 0.227352 0.294640 0.112413
v 0.209691 0.332969 0.105781
v 0.218166 0.315933 0.125737
v 0.220406 0.308328 0.092663
v 0.147472 0.230724 0.149591
v 0.120436 0.268744 0.163070
v 0.146810 0.237103 0.104154
v 0.126668 0.277688 0.120393
vn -0.1497 -0.0787 -0.9856
vn -0.0000 -0.9544 0.2985
vn 0.9356 0.3523 -0.0227
vn -0.9443 -0.0428 0.3262
vn -0.2552 0.3208 0.9121
vn -0.1739 0.1125 -0.9783
vn -0.9226 -0.2261 0.3126
vn 0.9425 0.3155 0.1101
vn -0.1921 -0.0643 0.9793
vn -0.2627 -0.0714 0.9622
vn -0.8573 -0.2349 0.4581
vn 0.8967 0.4394 -0.0533
vn -0.1456 0.0481 -0.9882
vn -0.0159 -0.1906 0.9815
vn -0.1330 0.2181 -0.9668
vn -0.9929 0.0969 0.0696
vn 0.9872 0.1591 0.0137
vn 0.9881 0.1089 0.1085
vn -0.0575 0.4821 -0.8742
vn -0.0981 -0.3602 0.9277
vn 0.9608 -0.2533 -0.1131
vn -0.9818 0.1329 0.1356
vn 0.0928 0.7191 0.6887
vn -0.0392 0.2410 -0.9697
vn -0.0936 -0.1736 0.9804
vn -0.9935 -0.0193 -0.1125
vn -0.9182 0.3503 0.1849
vn 0.9998 -0.0200 0.0037
vn -0.1622 -0.7439 0.6483
vn 0.0785 0.8373 -0.5410
vn 0.9905 0.1318 0.0390
vn -0.9874 -0.0998 0.1227
vn -0.1198 0.5097 -0.8520
vn 0.1776 -0.3243 0.9291
vn -0.4227 0.4042 0.8112
vn -0.6427 0.1303 -0.7549
vn 0.9501 -0.0165 0.3115
vn 0.7934 -0.1364 -0.5932
vn -0.0687 0.7869 0.6132
vn 0.5053 -0.4690 0.7243
vn -0.4709 0.2043 -0.8582
vn 0.2589 -0.9408 -0.2190
vn 0.7629 0.0256 -0.6460
vn 0.9087 0.2232 0.3529
vn -0.5475 -0.1743 -0.8184
vn -0.4734 0.1154 0.8733
vn 0.1112 -0.9266 -0.3591
vn 0.1669 0.8922 0.4197
vn 0.8043 -0.1038 0.5851
vn -0.5204 0.3133 -0.7944
vn -0.3862 0.3238 -0.8637
vn 0.0631 0.8386 0.5411
vn 0.2961 -0.7659 -0.5707
vn -0.8479 0.0236 -0.5296
vn 0.8780 -0.0487 0.4761
vn 0.8021 0.5418 -0.2510
vn 0.2133 0.8643 0.4556
vn -0.1303 -0.9232 -0.3616
vn 0.3970 -0.3432 0.8512
vn 0.9283 0.0086 0.3718
vn -0.7644 0.1171 -0.6340
vn 0.2527 -0.8324 -0.4931
vn 0.1147 0.8731 0.4738
vn -0.7834 0.0571 -0.6189
vn 0.8598 -0.0648 0.5064
vn -0.0093 0.8166 0.5771
vn 0.5220 -0.7484 -0.4092
vn -0.0768 -0.1012 0.9919
vn -0.7187 0.4471 -0.5325
vn 0.9090 -0.3635 0.2038
vn 0.3683 -0.1473 -0.9179
vn 0.5614 0.1516 -0.8135
vn -0.0020 0.1990 0.9800
vn 0.9827 -0.1242 0.1373
vn -0.8971 0.2000 -0.3940
vn -0.5906 0.8059 0.0419
vn -0.1215 -0.1771 0.9767
vn 0.4779 0.2536 -0.8410
vn -0.8147 0.4545 -0.3600
vn 0.8724 -0.3937 0.2896
vn 0.6261 0.2558 0.7366
vn -0.4956 -0.2772 0.8231
vn 0.5703 0.3541 -0.7412
vn 0.7607 -0.6445 -0.0771
vn 0.7882 -0.5613 0.2524
vn -0.8169 0.4667 -0.3390
vn 0.3565 0.1159 -0.9271
vn -0.1592 -0.1644 0.9735
vn -0.7998 0.3260 -0.5041
vn 0.9140 -0.3837 0.1316
vn -0.0636 0.0096 0.9979
vn 0.5732 -0.3006 -0.7623
vn 0.6508 -0.0850 -0.7545
vn 0.9641 -0.2241 0.1426
vn -0.8219 0.2342 -0.5192
vn -0.0871 0.1206 0.9889
vn -0.1698 -0.0785 0.9823
vn 0.3828 0.0582 -0.9220
vn 0.8886 -0.3496 0.2969
vn -0.7114 0.6252 -0.3210
vn -0.0520 -0.3087 0.9497
vn -0.7464 -0.2406 -0.6205
vn 0.9948 -0.0583 0.0839
vn -0.1184 -0.2186 -0.9686
vn -0.2815 -0.4609 0.8416
vn -0.7543 0.3107 -0.5784
vn 0.8556 0.5064 -0.1072
vn -0.2948 0.6968 0.6539
vn 0.4459 -0.6272 -0.6386
vn 0.6090 0.7545 -0.2448
vn -0.8316 -0.3689 -0.4151
vn -0.3220 0.7642 0.5589
vn 0.8581 -0.4129 0.3052
vn 0.0703 -0.1059 -0.9919
vn -0.7417 -0.0368 -0.6698
vn -0.0595 0.3563 -0.9325
vn 0.1621 -0.0318 -0.9863
vn 0.8103 0.5848 -0.0385
vn -0.9890 -0.0767 0.1266
vn -0.2554 0.2581 0.9317
vn -0.4438 0.3989 0.8024
vn 0.1018 -0.1744 -0.9794
vn -0.9743 0.0382 -0.2218
vn 0.9456 0.0749 0.3165
vn 0.9621 -0.0262 0.2713
vn 0.1845 -0.2814 -0.9417
vn -0.2761 0.3503 0.8951
vn 0.9027 0.3998 0.1589
vn -0.9866 -0.0201 -0.1622
vn -0.0006 0.9877 -0.1562
vn 0.2025 -0.0956 -0.9746
vn -0.2391 0.1666 0.9566
vn -0.9740 0.1016 -0.2025
vn -0.9615 -0.2473 -0.1196
vn 0.9760 0.1178 0.1834
vn -0.2760 0.3498 0.8952
vn 0.1481 -0.3038 -0.9412
vn 0.9424 -0.0619 0.3287
vn -0.9853 0.0709 0.1556
vn 0.2658 0.4143 -0.8704
vn -0.3557 -0.2017 0.9126
vn -0.4674 0.4632 0.7529
vn -0.9717 0.1872 0.1443
vn 0.9848 0.1196 0.1259
vn 0.1284 -0.2669 -0.9551
vn -0.9822 -0.1138 -0.1495
vn -0.3128 0.5371 0.7833
vn 0.2371 -0.5052 -0.8298
vn 0.9655 0.2011 0.1654
vn -0.6630 0.0957 -0.7425
vn 0.7665 0.4065 -0.4972
vn -0.5463 -0.2532 0.7984
vn 0.6329 0.0687 0.7712
vn 0.2286 0.1365 0.9639
vn -0.9621 -0.0788 -0.2610
vn -0.5089 -0.3900 0.7674
vn 0.5705 0.5302 -0.6273
vn -0.0443 0.9741 0.2217
vn -0.7770 -0.2732 -0.5671
vn 0.5622 0.2296 0.7945
vn 0.4603 0.6431 -0.6120
vn -0.2004 -0.4966 0.8445
vn -0.5708 0.0815 0.8170
vn -0.6918 -0.2931 -0.6600
vn 0.5860 -0.0175 0.8101
vn 0.2428 -0.8561 0.4563
vn -0.5795 -0.2245 0.7835
vn 0.1241 0.6465 -0.7528
vn 0.0217 0.1924 0.9811
vn -0.5709 -0.2873 -0.7691
vn 0.5184 0.6507 -0.5548
vn -0.2705 -0.5009 0.8222
vn -0.7000 -0.2273 -0.6771
vn 0.5416 0.1257 0.8312
vn 0.2022 0.2751 0.9399
vn -0.4107 0.0558 0.9101
vn 0.8609 0.1828 -0.4747
vn -0.6643 -0.2170 -0.7153
vn -0.7214 -0.1389 -0.6784
vn 0.5235 0.2802 0.8046
vn -0.5098 -0.4615 0.7260
vn 0.4964 0.5076 -0.7042
vn 0.9011 0.3805 0.2082
vn -0.2993 0.6348 0.7123
vn 0.0645 -0.5070 -0.8595
vn -0.7147 -0.6952 0.0763
vn -0.8046 -0.2267 -0.5488
vn 0.8352 0.4503 -0.3156
vn 0.4528 -0.5660 -0.6889
vn -0.5914 0.5227 0.6140
vn -0.5572 0.6827 0.4728
vn 0.8385 0.4303 -0.3342
vn -0.8597 -0.4802 0.1740
vn -0.5458 0.5080 0.6663
vn 0.6339 -0.7535 -0.1744
vn -0.0241 0.4358 -0.8997
vn 0.9187 0.3945 -0.0172
vn -0.9197 -0.3742 -0.1193
vn 0.5127 -0.6219 -0.5919
vn 0.3664 -0.5128 -0.7764
vn -0.7216 0.6923 0.0059
vn -0.6247 -0.6160 0.4799
vn 0.5999 0.4188 -0.6817
vn -0.5774 0.5432 0.6095
vn 0.2636 -0.5520 -0.7911
vn 0.9073 0.4060 -0.1095
vn -0.8558 -0.4851 -0.1794
vn -0.8786 -0.0944 -0.4681
vn 0.0971 -0.0970 -0.9905
vn -0.7267 0.3640 0.5826
vn 0.9774 0.0949 0.1889
vn -0.9868 0.1617 0.0133
vn 0.1445 0.5916 -0.7931
vn 0.1650 -0.1895 0.9679
vn 0.9352 -0.1718 0.3097
vn -0.7631 0.6385 -0.0999
vn 0.0146 -0.2568 0.9664
vn 0.2315 0.2605 -0.9373
vn 0.8358 -0.4636 0.2943
vn 0.9930 0.0737 0.0918
vn 0.2831 0.1133 0.9524
vn 0.3346 0.0649 -0.9401
vn -0.9977 -0.0605 0.0315
vn 0.4733 -0.8714 -0.1292
vn -0.4664 0.5530 0.6904
vn 0.2512 -0.1598 0.9546
vn -0.2142 0.2694 -0.9389
vn -0.0264 0.4807 -0.8765
vn -0.0129 0.5281 0.8491
vn 0.4774 -0.6346 -0.6078
vn -0.4614 0.2522 -0.8506
vn 0.7532 -0.4262 0.5010
vn 0.7840 0.5732 0.2384
vn 0.1421 0.6019 0.7858
vn 0.2032 -0.7878 -0.5814
vn 0.2123 -0.5857 0.7822
vn 0.6719 -0.1623 0.7226
vn -0.5600 0.4866 -0.6705
vn 0.4065 -0.7151 -0.5687
vn -0.0750 0.7425 0.6657
vn 0.2248 0.2414 -0.9440
vn -0.1999 -0.2671 0.9427
vn -0.8013 0.5594 0.2121
vn 0.6718 -0.7321 -0.1126
vn -0.1563 -0.0720 -0.9851
vn 0.9668 0.2372 0.0952
vn -0.9469 -0.0363 0.3194
vn -0.2187 0.2774 0.9355
vn -0.2087 0.1225 -0.9703
vn -0.9356 -0.2089 0.2847
vn 0.9457 0.2967 0.1329
vn -0.2199 -0.0579 0.9738
vn -0.2690 -0.0692 0.9607
vn -0.8721 -0.3144 0.3751
vn 0.8964 0.4401 -0.0527
vn -0.1357 0.0401 -0.9899
vn 0.1883 -0.2548 0.9485
vn -0.0965 0.2386 -0.9663
vn -0.9707 -0.0234 0.2392
vn 0.9908 0.0625 0.1198
vn 0.9745 0.0743 0.2115
vn 0.0242 0.4963 -0.8678
vn -0.0333 -0.3549 0.9343
vn 0.9603 -0.2312 -0.1562
vn -0.9819 0.1407 0.1271
vn 0.0288 0.2404 -0.9703
vn -0.0409 -0.1743 0.9838
vn -0.9987 -0.0499 -0.0123
vn -0.9062 0.2642 0.3302
vn 0.9933 -0.0859 0.0779
vn -0.1759 -0.7430 0.6458
vn -0.1159 0.8246 -0.5537
vn 0.9863 0.1629 0.0252
vn -0.9145 -0.2919 0.2800
vn -0.2915 0.3775 -0.8789
vn -0.1761 -0.1499 0.9729
vn -0.4317 0.4140 0.8014
vn -0.6384 0.1187 -0.7605
vn 0.9680 -0.1103 0.2252
vn 0.7808 -0.1453 -0.6077
vn -0.0241 0.7838 0.6205
vn 0.5028 -0.4730 0.7235
vn -0.4751 0.1971 -0.8576
vn 0.2976 -0.9337 -0.1994
vn 0.7877 0.0093 -0.6160
vn 0.9678 0.0999 0.2311
vn -0.6971 0.0444 -0.7156
vn -0.4939 0.1345 0.8591
vn -0.0485 -0.9268 -0.3725
vn 0.1680 0.8861 0.4320
vn 0.8072 -0.0943 0.5827
vn -0.6586 0.1056 -0.7450
vn -0.3864 0.3143 -0.8671
vn 0.0382 0.8529 0.5207
vn 0.2717 -0.7586 -0.5922
vn -0.8468 0.0600 -0.5286
vn 0.8785 -0.0523 0.4748
vn 0.8021 0.5419 -0.2510
vn 0.1842 0.8944 0.4075
vn -0.1550 -0.9019 -0.4032
vn 0.3965 -0.3542 0.8469
vn 0.9294 -0.0214 0.3685
vn -0.7619 0.0916 -0.6412
vn 0.2087 -0.8192 -0.5342
vn 0.1061 0.8788 0.4653
vn -0.7446 0.3090 -0.5916
vn 0.8435 -0.3004 0.4453
vn 0.0036 0.7984 0.6021
vn 0.3043 -0.5659 -0.7663
vn -0.3203 -0.3176 0.8925
vn -0.7167 0.4983 -0.4879
vn 0.8705 -0.4800 0.1087
vn 0.2647 -0.0774 -0.9612
vn 0.6767 0.1675 -0.7170
vn 0.0539 0.1524 0.9868
vn 0.9327 -0.1805 0.3123
vn -0.9023 0.1960 -0.3839
vn -0.6479 0.7531 0.1144
vn -0.1472 -0.1550 0.9769
vn 0.4399 0.2833 -0.8522
vn -0.8038 0.4350 -0.4059
vn 0.9385 -0.3094 0.1533
vn 0.6261 0.2559 0.7365
vn -0.4471 -0.3610 0.8184
vn 0.6172 0.2602 -0.7425
vn 0.6866 -0.7265 0.0286
vn 0.8046 -0.5497 0.2244
vn -0.9196 0.3559 -0.1665
vn 0.3297 0.1451 -0.9329
vn -0.1999 -0.1165 0.9729
vn -0.7977 0.4560 -0.3946
vn 0.9107 -0.3893 0.1380
vn -0.1056 0.1254 0.9865
vn 0.4371 -0.0640 -0.8971
vn 0.6384 -0.1022 -0.7629
vn 0.9680 -0.2006 0.1508
vn -0.8218 0.2349 -0.5191
vn -0.1050 0.0862 0.9907
vn -0.2148 -0.0355 0.9760
vn 0.3401 0.0936 -0.9357
vn 0.8833 -0.3412 0.3216
vn -0.7423 0.6095 -0.2783
vn -0.0493 -0.3033 0.9516
vn -0.7474 0.3988 -0.5313
vn 0.9950 -0.0497 0.0868
vn 0.4850 0.4091 -0.7729
vn -0.3333 -0.6191 0.7111
vn -0.6692 -0.0573 -0.7409
vn 0.9277 0.3732 -0.0070
vn -0.0692 -0.0344 0.9970
vn 0.1429 0.1488 -0.9785
vn 0.7573 0.6455 -0.0991
vn -0.7912 0.0688 -0.6077
vn -0.3207 0.5359 0.7810
vn 0.8530 -0.4282 0.2983
vn 0.4560 0.5045 -0.7331
vn -0.6674 0.4998 -0.5521
vn 0.0861 -0.0986 -0.9914
vn -0.0170 0.1302 -0.9913
vn 0.9019 0.3367 0.2705
vn -0.9854 -0.0951 0.1413
vn -0.3367 0.2851 0.8974
vn -0.4628 0.4223 0.7794
vn 0.1405 -0.1914 -0.9714
vn -0.9962 0.0181 -0.0848
vn 0.9380 0.0707 0.3393
vn 0.9732 -0.0353 0.2271
vn 0.1752 -0.2835 -0.9428
vn -0.2774 0.3499 0.8948
vn 0.8442 0.3911 0.3665
vn -0.9863 -0.0204 -0.1638
vn -0.0006 0.9877 -0.1563
vn 0.1428 -0.0950 -0.9852
vn -0.2784 0.1665 0.9459
vn -0.9661 0.0941 -0.2403
vn -0.9380 -0.2515 -0.2387
vn 0.9675 0.1242 0.2202
vn -0.2476 0.3500 0.9034
vn 0.1783 -0.3049 -0.9356
vn 0.9764 -0.0840 0.1989
vn -0.9943 0.0644 -0.0846
vn -0.0739 0.3017 -0.9505
vn -0.4658 -0.2269 0.8553
vn -0.4366 0.4435 0.7827
vn -0.9738 0.2233 0.0438
vn 0.9844 0.1167 0.1316
vn 0.1486 -0.2484 -0.9572
vn -0.9834 -0.1109 -0.1435
vn -0.3151 0.5364 0.7830
vn 0.2357 -0.5056 -0.8300
vn 0.9649 0.2020 0.1675
vn -0.7773 0.3277 -0.5370
vn 0.7680 0.3669 -0.5250
vn -0.5418 -0.2083 0.8143
vn 0.6649 0.2279 0.7113
vn 0.2680 0.1282 0.9549
vn -0.9555 0.0174 -0.2944
vn -0.5411 -0.4268 0.7246
vn 0.5908 0.5701 -0.5709
vn -0.4150 0.8329 -0.3662
vn -0.7791 -0.2086 -0.5912
vn 0.5581 0.2601 0.7879
vn 0.4366 0.5701 -0.6960
vn -0.3762 -0.7843 0.4933
vn -0.5710 0.0817 0.8169
vn -0.6606 -0.0292 -0.7502
vn 0.6103 0.2559 0.7497
vn 0.0023 -0.9997 0.0233
vn -0.5681 -0.2038 0.7973
vn 0.2270 0.8574 -0.4619
vn 0.0675 0.3085 0.9488
vn -0.5612 -0.2602 -0.7857
vn 0.5157 0.6646 -0.5406
vn -0.2249 -0.6626 0.7144
vn -0.8235 -0.2026 -0.5300
vn 0.2880 0.0732 0.9548
vn 0.2519 0.2652 0.9307
vn -0.6186 0.1875 0.7630
vn 0.8608 0.1812 -0.4756
vn -0.7122 -0.1502 -0.6857
vn -0.7261 -0.2888 -0.6240
vn 0.4549 -0.0502 0.8892
vn -0.4582 -0.3752 0.8058
vn 0.4774 0.3941 -0.7853
vn 0.9744 0.1886 0.1228
vn -0.5088 0.4463 0.7362
vn 0.0829 -0.4905 -0.8675
vn -0.8478 -0.5157 0.1235
vn -0.8324 -0.2342 -0.5023
vn 0.7815 0.5455 -0.3029
vn 0.3970 -0.6714 -0.6258
vn -0.5900 0.5262 0.6124
vn -0.5670 0.6752 0.4718
vn 0.8285 0.4564 -0.3245
vn -0.8561 -0.4878 0.1706
vn -0.4656 0.5808 0.6677
vn 0.5807 -0.7944 -0.1779
vn -0.0240 0.4358 -0.8997
vn 0.9296 0.3673 -0.0321
vn -0.9085 -0.3962 -0.1327
vn 0.4766 -0.6462 -0.5960
vn 0.3177 -0.5520 -0.7709
vn -0.6220 0.7829 0.0124
vn -0.6936 -0.5025 0.5161
vn 0.5456 0.4995 -0.6730
vn -0.5887 0.5202 0.6188
vn 0.1763 -0.6439 -0.7445
vn 0.9167 0.3832 -0.1127
vn -0.8176 -0.5004 -0.2847
vn -0.8080 -0.1808 -0.5608
vn 0.0466 -0.0720 -0.9963
vn -0.3121 0.0833 0.9464
vn 0.9533 0.0346 0.2999
vn -0.9923 0.1231 -0.0162
vn 0.3492 0.1945 -0.9166
vn 0.1048 -0.0912 0.9903
vn 0.9287 -0.0906 0.3596
vn -0.5416 0.7763 0.3225
vn -0.1921 -0.2933 0.9365
vn 0.3839 0.2919 -0.8760
vn 0.8141 -0.3907 0.4297
vn 0.9172 0.2496 0.3105
vn 0.2010 0.1829 0.9624
vn 0.2241 -0.0543 -0.9730
vn -0.9980 -0.0511 0.0375
vn 0.6094 -0.5129 -0.6046
vn -0.2998 0.9416 0.1536
vn 0.4389 -0.2803 0.8537
vn -0.2141 0.2697 -0.9388
vn -0.0486 0.5634 -0.8247
vn -0.0729 0.7430 0.6653
vn 0.3106 -0.4071 -0.8589
vn -0.4710 0.2116 -0.8564
vn 0.7644 -0.0712 0.6408
vn 0.0437 0.7914 0.6097
vn 0.0853 -0.5627 -0.8222
vn 0.1478 -0.4352 0.8881
vn 0.6719 -0.1632 0.7225
vn -0.5898 0.1644 -0.7906
vn 0.3964 -0.6834 -0.6131
vn -0.0740 0.7513 0.6558
vn 0.1385 0.4264 -0.8939
vn 0.0299 -0.3150 0.9486
vn -0.8271 0.5620 -0.0030
vn 0.7971 -0.5270 0.2947
vt 0.184489 0.051485
vt 0.189862 0.050878
vt 0.190323 0.053835
vt 0.192354 0.054221
vt 0.187287 0.047953
vt 0.192354 0.046518
vt 0.195857 0.057521
vt 0.199887 0.052920
vt 0.201552 0.054785
vt 0.191015 0.064466
vt 0.193574 0.067920
vt 0.189626 0.066154
vt 0.196144 0.046572
vt 0.199831 0.047354
vt 0.195672 0.048997
vt 0.184891 0.049436
vt 0.188659 0.045466
vt 0.194653 0.064857
vt 0.192294 0.059873
vt 0.195062 0.059689
vt 0.194707 0.053312
vt 0.198688 0.047732
vt 0.199678 0.045256
vt 0.196383 0.041157
vt 0.199181 0.040450
vt 0.199353 0.052463
vt 0.194563 0.054017
vt 0.187813 0.070577
vt 0.192518 0.072796
vt 0.202844 0.059370
vt 0.196147 0.062657
vt 0.184919 0.055491
vt 0.192194 0.058131
vt 0.198416 0.037219
vt 0.194563 0.033884
vt 0.196217 0.032892
vt 0.188860 0.040605
vt 0.187187 0.036768
vt 0.189284 0.037363
vt 0.193642 0.054689
vt 0.191523 0.051005
vt 0.193277 0.050847
vt 0.196985 0.042670
vt 0.199405 0.039567
vt 0.198550 0.044778
vt 0.202022 0.033727
vt 0.202844 0.029218
vt 0.202807 0.033985
vt 0.191063 0.033727
vt 0.191060 0.030376
vt 0.191882 0.030533
vt 0.186475 0.045128
vt 0.187053 0.041971
vt 0.187827 0.045122
vt 0.200666 0.036707
vt 0.197319 0.039008
vt 0.189939 0.048050
vt 0.187813 0.045387
vt 0.188529 0.045161
vt 0.187489 0.037261
vt 0.187759 0.037477
vt 0.187429 0.037472
vt 0.192194 0.026376
vt 0.187963 0.040623
vt 0.188247 0.040507
vt 0.188280 0.061565
vt 0.189623 0.058466
vt 0.190248 0.061942
vt 0.189646 0.033271
vt 0.194771 0.047029
vt 0.191621 0.056106
vt 0.185754 0.039948
vt 0.195725 0.038393
vt 0.191190 0.036157
vt 0.196552 0.042778
vt 0.190184 0.042521
vt 0.196712 0.045493
vt 0.202697 0.040997
vt 0.200897 0.045412
vt 0.190328 0.059312
vt 0.192653 0.052504
vt 0.196442 0.057441
vt 0.198401 0.046059
vt 0.199282 0.052222
vt 0.195140 0.050777
vt 0.186302 0.069134
vt 0.188552 0.075344
vt 0.184046 0.074904
vt 0.192909 0.032650
vt 0.195070 0.035340
vt 0.201155 0.045946
vt 0.197309 0.043241
vt 0.200012 0.042957
vt 0.188750 0.051760
vt 0.194210 0.048973
vt 0.188066 0.046518
vt 0.186330 0.042595
vt 0.189184 0.042881
vt 0.184208 0.080262
vt 0.189138 0.080400
vt 0.195614 0.056973
vt 0.191999 0.054397
vt 0.194714 0.065542
vt 0.200028 0.060789
vt 0.196318 0.050346
vt 0.188225 0.048235
vt 0.188685 0.038059
vt 0.186456 0.035626
vt 0.188213 0.035472
vt 0.191763 0.029016
vt 0.189143 0.028191
vt 0.190946 0.027641
vt 0.198334 0.037456
vt 0.195508 0.035687
vt 0.197007 0.035186
vt 0.192594 0.042833
vt 0.195890 0.041535
vt 0.194089 0.044188
vt 0.197836 0.034596
vt 0.199707 0.031856
vt 0.200028 0.031843
vt 0.191026 0.025474
vt 0.190219 0.023484
vt 0.190556 0.023337
vt 0.185480 0.031827
vt 0.185552 0.028924
vt 0.186543 0.031989
vt 0.197113 0.037755
vt 0.194267 0.040527
vt 0.195965 0.037516
vt 0.195403 0.031657
vt 0.193710 0.028311
vt 0.194056 0.028274
vt 0.192359 0.068472
vt 0.192552 0.068784
vt 0.192359 0.068784
vt 0.188520 0.022036
vt 0.186403 0.025372
vt 0.186703 0.025432
vt 0.192290 0.026130
vt 0.194348 0.031787
vt 0.197466 0.034526
vt 0.189943 0.025861
vt 0.190417 0.047821
vt 0.196642 0.038032
vt 0.189348 0.029637
vt 0.189064 0.059179
vt 0.193573 0.057993
vt 0.194717 0.062473
vt 0.182006 0.044295
vt 0.189363 0.040694
vt 0.190520 0.045959
vt 0.186386 0.051711
vt 0.190448 0.053179
vt 0.184972 0.055594
vt 0.196022 0.054818
vt 0.197873 0.049503
vt 0.198756 0.055196
vt 0.195753 0.058970
vt 0.197922 0.062188
vt 0.195001 0.064721
vt 0.192567 0.053620
vt 0.190049 0.048888
vt 0.192943 0.048611
vt 0.185372 0.048534
vt 0.187285 0.041972
vt 0.189658 0.047715
vt 0.189831 0.036545
vt 0.186783 0.029788
vt 0.190781 0.030403
vt 0.191914 0.038790
vt 0.189508 0.034123
vt 0.189943 0.033934
vt 0.189651 0.036073
vt 0.188072 0.032571
vt 0.189102 0.032058
vt 0.199436 0.035557
vt 0.200906 0.031943
vt 0.200568 0.036122
vt 0.190800 0.024001
vt 0.187592 0.023921
vt 0.184461 0.029026
vt 0.186781 0.025221
vt 0.186677 0.029253
vt 0.188699 0.020950
vt 0.188270 0.021009
vt 0.188284 0.020747
vt 0.186227 0.028225
vt 0.186631 0.027971
vt 0.199993 0.031330
vt 0.203732 0.027926
vt 0.185757 0.024983
vt 0.188652 0.021207
vt 0.183803 0.035600
vt 0.186745 0.035475
vt 0.190777 0.038870
vt 0.192737 0.042571
vt 0.190330 0.042709
vt 0.196571 0.042234
vt 0.198317 0.042513
vt 0.192012 0.042482
vt 0.188249 0.036540
vt 0.182947 0.040077
vt 0.190948 0.051535
vt 0.188478 0.053987
vt 0.198425 0.058169
vt 0.198189 0.065147
vt 0.195196 0.067506
vt 0.191250 0.056049
vt 0.185340 0.058594
vt 0.181151 0.047033
vt 0.190397 0.048795
vt 0.188591 0.061812
vt 0.194691 0.064947
vt 0.189959 0.042642
vt 0.195361 0.048994
vt 0.192640 0.049732
vt 0.189508 0.049505
vt 0.187540 0.064642
vt 0.194559 0.068032
vt 0.181656 0.049909
vt 0.190237 0.050608
vt 0.190452 0.058790
vt 0.183652 0.061687
vt 0.198653 0.068527
vt 0.196445 0.068985
vt 0.190333 0.038748
vt 0.193288 0.047436
vt 0.188918 0.049501
vt 0.190800 0.053843
vt 0.185302 0.056215
vt 0.181276 0.052282
vt 0.199624 0.064737
vt 0.200341 0.069403
vt 0.193691 0.069398
vt 0.186227 0.064546
vt 0.196974 0.072236
vt 0.203367 0.069039
vt 0.201399 0.064986
vt 0.203732 0.064325
vt 0.181866 0.051538
vt 0.194274 0.042455
vt 0.192870 0.050154
vt 0.192870 0.040593
vt 0.192354 0.055056
vt 0.195453 0.050432
vt 0.194555 0.058872
vt 0.202897 0.072957
vt 0.198051 0.074675
vt 0.196179 0.070081
vt 0.194608 0.044036
vt 0.196909 0.042342
vt 0.196900 0.044593
vt 0.195768 0.039584
vt 0.197784 0.041838
vt 0.198051 0.047197
vt 0.195430 0.038748
vt 0.194339 0.048220
vt 0.197781 0.045709
vt 0.199051 0.048539
vt 0.187908 0.055904
vt 0.192451 0.050954
vt 0.194237 0.055690
vt 0.191357 0.044629
vt 0.195411 0.042992
vt 0.196238 0.044835
vt 0.199922 0.046089
vt 0.203029 0.047259
vt 0.199294 0.047207
vt 0.187191 0.043856
vt 0.184811 0.040291
vt 0.186638 0.039967
vt 0.186549 0.048379
vt 0.188913 0.049457
vt 0.185125 0.050288
vt 0.195702 0.041933
vt 0.198208 0.037921
vt 0.198267 0.042588
vt 0.199135 0.040440
vt 0.197740 0.036939
vt 0.199398 0.036522
vt 0.195491 0.038435
vt 0.197458 0.034493
vt 0.198123 0.038845
vt 0.193610 0.021604
vt 0.193510 0.017996
vt 0.193661 0.018015
vt 0.196449 0.034322
vt 0.195159 0.029269
vt 0.195928 0.029134
vt 0.185948 0.035909
vt 0.186692 0.030549
vt 0.187214 0.035884
vt 0.196542 0.030167
vt 0.195552 0.033800
vt 0.195191 0.029999
vt 0.200297 0.033057
vt 0.200598 0.027975
vt 0.201308 0.027949
vt 0.192662 0.069243
vt 0.192521 0.069090
vt 0.192661 0.069096
vt 0.195330 0.025879
vt 0.195526 0.022237
vt 0.195679 0.022242
vt 0.186426 0.026981
vt 0.185743 0.023402
vt 0.186901 0.027005
vt 0.202578 0.024829
vt 0.202775 0.021045
vt 0.203029 0.024829
vt 0.199069 0.033124
vt 0.195315 0.024901
vt 0.194547 0.024814
vt 0.196113 0.038013
vt 0.202338 0.045466
vt 0.189151 0.048201
vt 0.189508 0.053857
vt 0.184811 0.054604
vt 0.202338 0.051555
vt 0.197471 0.051338
vt 0.191653 0.048676
vt 0.198123 0.048896
vt 0.199532 0.052567
vt 0.193202 0.052567
vt 0.185946 0.030507
vt 0.194840 0.025961
vt 0.188745 0.038614
vt 0.192242 0.038174
vt 0.192865 0.041759
vt 0.188715 0.048541
vt 0.183125 0.046542
vt 0.188617 0.043600
vt 0.197499 0.038433
vt 0.202279 0.041976
vt 0.195900 0.041921
vt 0.183209 0.041852
vt 0.186294 0.039356
vt 0.187537 0.040324
vt 0.183570 0.044496
vt 0.185254 0.042547
vt 0.185257 0.045142
vt 0.182652 0.047607
vt 0.184972 0.049364
vt 0.183119 0.051493
vt 0.190650 0.034665
vt 0.187949 0.032999
vt 0.189400 0.031887
vt 0.183081 0.037621
vt 0.183901 0.035087
vt 0.185785 0.037556
vt 0.201644 0.035009
vt 0.200235 0.032186
vt 0.201937 0.032159
vt 0.201457 0.027371
vt 0.201491 0.026708
vt 0.201683 0.026812
vt 0.188104 0.028277
vt 0.187211 0.027675
vt 0.187486 0.027282
vt 0.184740 0.037833
vt 0.185777 0.037125
vt 0.185211 0.038227
vt 0.200762 0.030271
vt 0.182918 0.030735
vt 0.183348 0.029741
vt 0.183597 0.030845
vt 0.183058 0.028514
vt 0.183337 0.028560
vt 0.183153 0.028652
vt 0.185799 0.026554
vt 0.186877 0.036138
vt 0.187016 0.036288
vt 0.182979 0.029589
vt 0.182555 0.032500
vt 0.183657 0.032514
vt 0.201018 0.027512
vt 0.201409 0.028408
vt 0.200714 0.028524
vt 0.184364 0.039701
vt 0.185414 0.040015
vt 0.188530 0.029988
vt 0.187609 0.028752
vt 0.201955 0.038073
vt 0.198139 0.034864
vt 0.183076 0.039351
vt 0.188862 0.037455
vt 0.184492 0.046814
vt 0.187016 0.054240
vt 0.184981 0.056074
vt 0.203214 0.046634
vt 0.195841 0.046634
vt 0.185687 0.042564
vt 0.191543 0.046561
vt 0.187441 0.030465
vt 0.183951 0.041627
vt 0.182436 0.035037
vt 0.202290 0.030253
vt 0.194420 0.033219
vt 0.198168 0.039428
vt 0.194029 0.037290
vt 0.198553 0.047105
vt 0.194770 0.044346
vt 0.197150 0.044123
vt 0.189300 0.045966
vt 0.191353 0.040058
vt 0.193545 0.043910
vt 0.189557 0.071869
vt 0.191134 0.075958
vt 0.187862 0.074321
vt 0.198478 0.037765
vt 0.200867 0.033840
vt 0.200550 0.037430
vt 0.197918 0.041744
vt 0.200509 0.044272
vt 0.197048 0.045727
vt 0.196925 0.029039
vt 0.193497 0.025360
vt 0.195469 0.024654
vt 0.192306 0.067890
vt 0.189686 0.064020
vt 0.191387 0.063771
vt 0.188353 0.035747
vt 0.191998 0.031730
vt 0.190999 0.036071
vt 0.194454 0.024836
vt 0.194948 0.019932
vt 0.195226 0.024859
vt 0.190188 0.072448
vt 0.190531 0.069185
vt 0.191544 0.072578
vt 0.200209 0.030791
vt 0.201456 0.027516
vt 0.202178 0.027706
vt 0.192985 0.027871
vt 0.190109 0.030968
vt 0.187909 0.060423
vt 0.188565 0.057071
vt 0.189142 0.060361
vt 0.192359 0.068937
vt 0.192500 0.069090
vt 0.192360 0.069084
vt 0.191400 0.064384
vt 0.191544 0.064434
vt 0.203148 0.022852
vt 0.189112 0.052178
vt 0.189240 0.052231
vt 0.194300 0.028220
vt 0.199024 0.033580
vt 0.197510 0.020998
vt 0.198880 0.024359
vt 0.197552 0.024474
vt 0.187739 0.040151
vt 0.192069 0.072166
vt 0.190244 0.067942
vt 0.198032 0.033242
vt 0.194272 0.028983
vt 0.200496 0.041414
vt 0.199489 0.049403
vt 0.203148 0.047846
vt 0.188280 0.061773
vt 0.184489 0.058131
vt 0.188236 0.058383
vt 0.195226 0.046756
vt 0.191267 0.050529
vt 0.191526 0.041199
vt 0.198168 0.044383
vt 0.198032 0.031349
vt 0.203658 0.027572
vt 0.205425 0.031397
vt 0.195360 0.046637
vt 0.201623 0.053982
vt 0.195360 0.055742
vt 0.192862 0.045658
vt 0.196710 0.039356
vt 0.197976 0.041002
vt 0.190426 0.042786
vt 0.193650 0.047334
vt 0.189038 0.045217
vt 0.186869 0.051798
vt 0.190702 0.052434
vt 0.185687 0.053498
vt 0.195953 0.061865
vt 0.191999 0.057967
vt 0.195953 0.056973
vt 0.193115 0.040302
vt 0.195110 0.043535
vt 0.191641 0.035848
vt 0.195391 0.034282
vt 0.190809 0.049810
vt 0.187600 0.047853
vt 0.191540 0.046561
vt 0.191540 0.057317
vt 0.187267 0.059069
vt 0.191434 0.050795
vt 0.185518 0.048215
vt 0.201228 0.044777
vt 0.196450 0.050017
vt 0.197275 0.036030
vt 0.206276 0.037394
vt 0.188547 0.051817
vt 0.190343 0.047916
vt 0.191664 0.051234
vt 0.192780 0.037849
vt 0.189677 0.034250
vt 0.192358 0.034207
vt 0.189510 0.034635
vt 0.188652 0.030341
vt 0.192417 0.033762
vt 0.192600 0.029268
vt 0.196140 0.027783
vt 0.195237 0.030511
vt 0.198349 0.023175
vt 0.200814 0.020747
vt 0.201228 0.020829
vt 0.192548 0.031115
vt 0.191815 0.028370
vt 0.192780 0.028590
vt 0.187692 0.046482
vt 0.187622 0.044528
vt 0.188832 0.045770
vt 0.197931 0.024917
vt 0.194313 0.025835
vt 0.196364 0.024010
vt 0.199902 0.053130
vt 0.198244 0.050738
vt 0.199080 0.050828
vt 0.192082 0.071483
vt 0.192477 0.071914
vt 0.192112 0.071878
vt 0.191613 0.025490
vt 0.186849 0.041514
vt 0.187144 0.041390
vt 0.191544 0.071001
vt 0.191854 0.067989
vt 0.192359 0.070825
vt 0.185518 0.029182
vt 0.186885 0.028386
vt 0.197846 0.022335
vt 0.188759 0.049458
vt 0.190711 0.031260
vt 0.190959 0.038071
vt 0.193454 0.051362
vt 0.196431 0.046877
vt 0.197252 0.052077
vt 0.190965 0.054484
vt 0.185205 0.052541
vt 0.184819 0.044937
vt 0.202526 0.029098
vt 0.186278 0.041829
vt 0.201846 0.037535
vt 0.188893 0.048838
vt 0.187827 0.037283
vt 0.191862 0.026277
vt 0.188280 0.058131
vt 0.196712 0.037212
vt 0.189138 0.069665
vt 0.189126 0.033765
vt 0.185205 0.046319
vt 0.185789 0.038808
vt 0.185205 0.028851
vt 0.192568 0.068459
vt 0.188225 0.022144
vt 0.191999 0.026109
vt 0.188817 0.057463
vt 0.183652 0.042652
vt 0.184357 0.035731
vt 0.203382 0.027624
vt 0.190505 0.056595
vt 0.190306 0.051613
vt 0.193817 0.050132
vt 0.192354 0.046518
vt 0.194265 0.046526
vt 0.187908 0.049394
vt 0.192068 0.041612
vt 0.185272 0.044711
vt 0.197107 0.040819
vt 0.193120 0.021568
vt 0.195086 0.034462
vt 0.192511 0.069243
vt 0.185598 0.023423
vt 0.202636 0.021054
vt 0.181801 0.048541
vt 0.188269 0.035678
vt 0.185499 0.036760
vt 0.183248 0.028403
vt 0.185687 0.026743
vt 0.194770 0.049559
vt 0.194799 0.019963
vt 0.189783 0.068964
vt 0.199050 0.030272
vt 0.187862 0.056957
vt 0.192511 0.068937
vt 0.203005 0.022819
vt 0.199604 0.020998
vt 0.184489 0.061924
vt 0.197275 0.027313
vt 0.202209 0.049291
vt 0.191250 0.041741
vt 0.192376 0.061683
vt 0.190293 0.039349
vt 0.187004 0.031744
vt 0.187302 0.045191
vt 0.198244 0.053057
vt 0.192477 0.071505
vt 0.191191 0.025572
vt 0.191544 0.067761
vt 0.193454 0.045797
vt 0.186849 0.054135
s 0
usemtl Material
f 11/1/1 6/2/1 9/3/1
f 2/4/2 4/5/2 1/6/2
f 9/7/3 8/8/3 10/9/3
f 7/10/4 11/11/4 12/12/4
f 8/13/5 12/14/5 10/15/5
f 5/16/6 16/17/6 6/2/6
f 5/18/7 17/19/7 13/20/7
f 6/21/8 18/22/8 8/8/8
f 7/23/9 18/24/9 17/25/9
f 10/15/10 4/26/10 3/27/10
f 4/28/11 11/11/11 1/29/11
f 9/7/12 3/30/12 2/31/12
f 1/32/13 9/3/13 2/33/13
f 33/34/14 23/35/14 15/36/14
f 36/37/15 19/38/15 22/39/15
f 34/40/16 15/41/16 19/42/16
f 36/43/17 23/44/17 35/45/17
f 21/46/18 28/47/18 24/48/18
f 30/49/19 20/50/19 21/51/19
f 32/52/20 14/53/20 29/54/20
f 30/55/21 23/44/21 22/56/21
f 31/57/22 14/58/22 20/59/22
f 27/60/23 25/61/23 28/62/23
f 20/50/24 27/63/24 21/51/24
f 14/53/25 28/62/25 25/61/25
f 20/59/26 25/64/26 26/65/26
f 15/41/27 31/57/27 19/42/27
f 24/48/28 30/55/28 21/46/28
f 23/66/29 29/67/29 15/68/29
f 22/39/30 31/69/30 30/49/30
f 16/70/31 35/45/31 18/22/31
f 13/20/32 33/71/32 34/40/32
f 16/17/33 34/72/33 36/37/33
f 17/25/34 35/73/34 33/34/34
f 41/74/35 45/75/35 47/76/35
f 37/77/2 39/78/2 40/79/2
f 45/80/36 44/81/36 46/82/36
f 43/83/37 47/84/37 48/85/37
f 44/86/38 48/87/38 46/88/38
f 41/74/39 52/89/39 42/90/39
f 41/91/40 53/92/40 49/93/40
f 42/94/41 54/95/41 44/81/41
f 43/96/42 54/97/42 53/98/42
f 39/99/43 48/87/43 40/100/43
f 48/85/44 37/101/44 40/102/44
f 38/103/45 46/82/45 39/104/45
f 47/76/46 38/105/46 37/106/46
f 69/107/47 59/108/47 51/109/47
f 72/110/48 55/111/48 58/112/48
f 70/113/49 51/114/49 55/115/49
f 72/116/50 59/117/50 71/118/50
f 60/119/51 63/120/51 64/121/51
f 66/122/52 56/123/52 57/124/52
f 68/125/53 50/126/53 65/127/53
f 68/128/54 58/129/54 66/130/54
f 67/131/55 50/132/55 56/133/55
f 64/134/56 62/135/56 61/136/56
f 56/123/57 63/137/57 57/124/57
f 50/126/58 64/138/58 61/139/58
f 50/132/59 62/140/59 56/133/59
f 55/115/60 65/141/60 67/131/60
f 60/119/61 66/130/61 57/142/61
f 59/108/62 65/127/62 51/109/62
f 58/112/63 67/143/63 66/122/63
f 52/144/64 71/118/64 54/95/64
f 49/93/65 69/145/65 70/113/65
f 52/89/66 70/146/66 72/110/66
f 54/97/67 69/107/67 53/98/67
f 99/147/68 76/148/68 97/149/68
f 97/150/69 78/151/69 98/152/69
f 77/153/70 99/154/70 100/155/70
f 95/156/71 75/157/71 93/158/71
f 78/159/72 100/160/72 98/161/72
f 96/162/73 79/163/73 82/164/73
f 93/165/74 79/166/74 94/167/74
f 95/168/75 82/169/75 83/170/75
f 84/171/76 87/172/76 88/173/76
f 90/174/77 80/175/77 81/176/77
f 92/177/78 74/178/78 89/179/78
f 104/180/79 82/169/79 101/181/79
f 89/182/80 80/183/80 91/184/80
f 87/185/81 85/186/81 88/187/81
f 81/176/82 86/188/82 87/189/82
f 84/190/83 85/191/83 74/178/83
f 74/192/84 86/193/84 80/183/84
f 102/194/85 91/184/85 103/195/85
f 81/196/86 92/197/86 90/198/86
f 104/199/87 89/179/87 102/200/87
f 101/201/88 91/202/88 90/174/88
f 76/203/89 95/168/89 78/151/89
f 77/153/90 94/167/90 73/204/90
f 76/148/91 94/205/91 96/162/91
f 78/159/92 93/158/92 77/206/92
f 98/161/93 107/207/93 106/208/93
f 100/155/94 108/209/94 107/210/94
f 105/211/95 98/152/95 106/212/95
f 108/213/96 97/149/96 105/214/96
f 82/164/97 103/215/97 101/201/97
f 83/216/98 102/200/98 75/157/98
f 79/166/99 102/194/99 103/195/99
f 90/198/100 104/217/100 101/218/100
f 112/219/101 105/214/101 109/220/101
f 109/221/102 106/212/102 110/222/102
f 107/210/103 112/223/103 111/224/103
f 106/208/104 111/225/104 110/226/104
f 114/227/105 126/228/105 113/229/105
f 116/230/106 127/231/106 114/232/106
f 112/233/107 119/234/107 111/225/107
f 112/219/108 115/235/108 120/236/108
f 116/237/109 119/234/109 118/238/109
f 118/238/110 120/239/110 113/240/110
f 115/241/111 116/230/111 114/232/111
f 120/242/112 114/243/112 113/244/112
f 118/245/113 126/246/113 124/247/113
f 116/237/114 124/248/114 128/249/114
f 110/222/115 115/241/115 109/221/115
f 111/225/116 117/250/116 110/226/116
f 121/251/2 125/252/2 123/253/2
f 122/254/2 128/255/2 125/252/2
f 123/253/2 126/228/2 121/251/2
f 123/253/2 128/255/2 124/256/2
f 121/251/2 127/257/2 122/254/2
f 159/258/117 136/259/117 157/260/117
f 130/261/2 132/262/2 129/263/2
f 157/264/118 138/265/118 158/266/118
f 137/267/119 159/268/119 160/269/119
f 153/270/120 143/271/120 135/272/120
f 138/273/121 160/274/121 158/275/121
f 154/276/122 142/277/122 156/278/122
f 154/279/123 135/280/123 139/281/123
f 156/282/124 143/283/124 155/284/124
f 162/285/125 147/286/125 148/287/125
f 150/288/126 140/289/126 141/290/126
f 152/291/127 134/292/127 149/293/127
f 152/294/128 142/295/128 150/296/128
f 151/297/129 134/298/129 140/299/129
f 148/300/130 146/301/130 145/302/130
f 161/303/131 146/304/131 147/305/131
f 162/306/132 145/307/132 164/308/132
f 164/309/133 146/310/133 163/311/133
f 139/281/134 149/312/134 151/297/134
f 144/313/135 150/296/135 141/314/135
f 135/272/136 152/291/136 149/293/136
f 139/315/137 150/288/137 142/277/137
f 138/265/138 156/282/138 155/284/138
f 137/267/139 154/279/139 133/316/139
f 136/259/140 154/276/140 156/278/140
f 138/273/141 153/270/141 137/317/141
f 158/275/142 132/318/142 131/319/142
f 160/269/143 129/320/143 132/321/143
f 130/322/144 158/266/144 131/323/144
f 159/258/145 130/324/145 129/325/145
f 140/299/146 164/309/146 163/311/146
f 144/326/147 164/308/147 134/292/147
f 141/290/148 163/327/148 161/303/148
f 141/314/149 162/285/149 144/313/149
f 195/328/150 172/329/150 193/330/150
f 166/331/2 168/332/2 165/333/2
f 172/334/151 194/335/151 193/336/151
f 196/337/152 169/338/152 195/339/152
f 191/340/153 171/341/153 189/342/153
f 174/343/154 196/344/154 194/345/154
f 192/346/155 175/347/155 178/348/155
f 189/349/156 175/350/156 190/351/156
f 191/352/157 178/353/157 179/354/157
f 180/355/158 183/356/158 184/357/158
f 186/358/159 176/359/159 177/360/159
f 188/361/160 170/362/160 185/363/160
f 197/364/161 179/354/161 178/353/161
f 185/365/162 176/366/162 187/367/162
f 184/368/163 182/369/163 181/370/163
f 176/359/164 183/371/164 177/360/164
f 170/362/165 184/372/165 181/373/165
f 170/374/166 182/369/166 176/366/166
f 198/375/167 187/367/167 199/376/167
f 177/377/168 188/378/168 186/379/168
f 200/380/169 185/363/169 198/381/169
f 197/382/170 187/383/170 186/358/170
f 174/384/171 192/385/171 191/352/171
f 173/386/172 190/351/172 169/338/172
f 169/387/173 192/346/173 172/329/173
f 173/388/174 191/340/174 189/342/174
f 194/345/175 168/389/175 167/390/175
f 196/337/176 165/333/176 168/332/176
f 193/336/177 167/391/177 166/392/177
f 165/393/178 193/330/178 166/394/178
f 178/348/179 199/395/179 197/382/179
f 179/396/180 198/381/180 171/341/180
f 171/397/181 199/376/181 175/350/181
f 186/379/182 200/398/182 197/364/182
f 205/399/183 229/400/183 231/401/183
f 201/402/2 203/403/2 204/404/2
f 229/405/184 210/406/184 230/407/184
f 209/408/185 231/409/185 232/410/185
f 227/411/186 207/412/186 225/413/186
f 210/414/187 232/415/187 230/416/187
f 228/417/188 211/418/188 214/419/188
f 226/420/189 207/421/189 211/422/189
f 228/423/190 215/424/190 227/425/190
f 213/426/191 220/427/191 216/428/191
f 223/429/192 213/430/192 222/431/192
f 221/432/193 216/433/193 206/434/193
f 222/435/194 215/424/194 214/436/194
f 221/437/195 212/438/195 223/439/195
f 220/440/196 218/441/196 217/442/196
f 213/430/197 218/443/197 219/444/197
f 216/433/198 217/445/198 206/434/198
f 212/438/199 217/446/199 218/447/199
f 207/421/200 223/439/200 211/422/200
f 213/426/201 224/448/201 222/435/201
f 215/449/202 221/432/202 207/412/202
f 214/450/203 223/451/203 222/452/203
f 208/453/204 227/425/204 210/406/204
f 205/454/205 225/455/205 226/420/205
f 208/456/206 226/457/206 228/417/206
f 209/458/207 227/411/207 225/413/207
f 203/459/208 232/415/208 204/460/208
f 204/461/209 231/462/209 201/463/209
f 229/405/210 203/464/210 202/465/210
f 201/466/211 229/400/211 202/467/211
f 243/468/212 238/469/212 241/470/212
f 234/471/2 236/472/2 233/473/2
f 241/474/213 240/475/213 242/476/213
f 239/477/214 243/478/214 244/479/214
f 240/480/215 244/481/215 242/482/215
f 237/483/216 248/484/216 238/485/216
f 239/477/217 245/486/217 237/487/217
f 240/475/218 248/488/218 250/489/218
f 239/490/219 250/491/219 249/492/219
f 242/482/220 236/493/220 235/494/220
f 244/479/221 233/495/221 236/496/221
f 241/474/222 235/497/222 234/498/222
f 233/499/223 241/470/223 234/500/223
f 267/501/224 247/502/224 265/503/224
f 268/504/225 251/505/225 254/506/225
f 265/507/226 251/508/226 266/509/226
f 268/510/227 255/511/227 267/512/227
f 256/513/228 259/514/228 260/515/228
f 262/516/229 252/517/229 253/518/229
f 264/519/230 246/520/230 261/521/230
f 264/522/231 254/523/231 262/524/231
f 263/525/232 246/526/232 252/527/232
f 260/528/233 258/529/233 257/530/233
f 252/517/234 259/531/234 253/518/234
f 246/520/235 260/532/235 257/533/235
f 246/534/236 258/535/236 252/536/236
f 251/508/237 261/537/237 263/538/237
f 256/513/238 262/524/238 253/539/238
f 255/540/239 261/521/239 247/502/239
f 254/506/240 263/541/240 262/516/240
f 248/488/241 267/512/241 250/489/241
f 249/542/242 266/509/242 245/486/242
f 245/543/243 268/544/243 248/545/243
f 249/546/244 267/501/244 265/503/244
f 11/1/245 5/16/245 6/2/245
f 2/4/2 3/547/2 4/5/2
f 9/7/246 6/21/246 8/8/246
f 7/10/247 5/18/247 11/11/247
f 8/13/248 7/23/248 12/14/248
f 5/16/249 13/548/249 16/17/249
f 5/18/250 7/10/250 17/19/250
f 6/21/251 16/70/251 18/22/251
f 7/23/252 8/13/252 18/24/252
f 10/15/253 12/14/253 4/26/253
f 4/28/254 12/12/254 11/11/254
f 9/7/255 10/9/255 3/30/255
f 1/32/256 11/1/256 9/3/256
f 33/34/257 35/73/257 23/35/257
f 36/37/258 34/72/258 19/38/258
f 34/40/259 33/71/259 15/41/259
f 36/43/260 22/56/260 23/44/260
f 21/46/261 27/549/261 28/47/261
f 30/49/262 31/69/262 20/50/262
f 32/52/263 24/550/263 14/53/263
f 30/55/264 32/551/264 23/44/264
f 31/57/265 29/552/265 14/58/265
f 27/60/23 26/553/23 25/61/23
f 20/50/266 26/554/266 27/63/266
f 14/53/267 24/550/267 28/62/267
f 20/59/268 14/58/268 25/64/268
f 15/41/269 29/552/269 31/57/269
f 24/48/270 32/551/270 30/55/270
f 23/66/271 32/555/271 29/67/271
f 22/39/272 19/38/272 31/69/272
f 16/70/273 36/43/273 35/45/273
f 13/20/274 17/19/274 33/71/274
f 16/17/275 13/548/275 34/72/275
f 17/25/276 18/24/276 35/73/276
f 41/74/277 42/90/277 45/75/277
f 37/77/2 38/556/2 39/78/2
f 45/80/278 42/94/278 44/81/278
f 43/83/279 41/91/279 47/84/279
f 44/86/280 43/557/280 48/87/280
f 41/74/281 49/558/281 52/89/281
f 41/91/282 43/83/282 53/92/282
f 42/94/283 52/144/283 54/95/283
f 43/96/284 44/559/284 54/97/284
f 39/99/285 46/88/285 48/87/285
f 48/85/286 47/84/286 37/101/286
f 38/103/287 45/80/287 46/82/287
f 47/76/288 45/75/288 38/105/288
f 69/107/289 71/560/289 59/108/289
f 72/110/290 70/146/290 55/111/290
f 70/113/291 69/145/291 51/114/291
f 72/116/292 58/129/292 59/117/292
f 60/119/293 57/142/293 63/120/293
f 66/122/294 67/143/294 56/123/294
f 68/125/295 60/561/295 50/126/295
f 68/128/296 59/117/296 58/129/296
f 67/131/297 65/141/297 50/132/297
f 64/134/298 63/562/298 62/135/298
f 56/123/299 62/563/299 63/137/299
f 50/126/300 60/561/300 64/138/300
f 50/132/301 61/564/301 62/140/301
f 55/115/302 51/114/302 65/141/302
f 60/119/303 68/128/303 66/130/303
f 59/108/304 68/125/304 65/127/304
f 58/112/305 55/111/305 67/143/305
f 52/144/306 72/116/306 71/118/306
f 49/93/307 53/92/307 69/145/307
f 52/89/308 49/558/308 70/146/308
f 54/97/309 71/560/309 69/107/309
f 99/147/310 73/565/310 76/148/310
f 97/150/311 76/203/311 78/151/311
f 77/153/312 73/204/312 99/154/312
f 95/156/313 83/216/313 75/157/313
f 78/159/314 77/206/314 100/160/314
f 96/162/315 94/205/315 79/163/315
f 93/165/316 75/566/316 79/166/316
f 95/168/317 96/567/317 82/169/317
f 84/171/318 81/196/318 87/172/318
f 90/174/319 91/202/319 80/175/319
f 92/177/320 84/190/320 74/178/320
f 104/180/321 83/170/321 82/169/321
f 89/182/322 74/192/322 80/183/322
f 87/185/323 86/193/323 85/186/323
f 81/176/324 80/175/324 86/188/324
f 84/190/325 88/568/325 85/191/325
f 74/192/326 85/186/326 86/193/326
f 102/194/327 89/182/327 91/184/327
f 81/196/328 84/171/328 92/197/328
f 104/199/329 92/177/329 89/179/329
f 101/201/330 103/215/330 91/202/330
f 76/203/331 96/567/331 95/168/331
f 77/153/332 93/165/332 94/167/332
f 76/148/333 73/565/333 94/205/333
f 78/159/334 95/156/334 93/158/334
f 98/161/335 100/160/335 107/207/335
f 100/155/336 99/154/336 108/209/336
f 105/211/337 97/150/337 98/152/337
f 108/213/338 99/147/338 97/149/338
f 82/164/339 79/163/339 103/215/339
f 83/216/340 104/199/340 102/200/340
f 79/166/341 75/566/341 102/194/341
f 90/198/342 92/197/342 104/217/342
f 112/219/343 108/213/343 105/214/343
f 109/221/344 105/211/344 106/212/344
f 107/210/345 108/209/345 112/223/345
f 106/208/346 107/207/346 111/225/346
f 114/227/347 127/257/347 126/228/347
f 116/230/348 128/569/348 127/231/348
f 112/233/349 120/239/349 119/234/349
f 112/219/350 109/220/350 115/235/350
f 116/237/351 117/250/351 119/234/351
f 118/238/352 119/234/352 120/239/352
f 115/241/353 117/570/353 116/230/353
f 120/242/354 115/571/354 114/243/354
f 118/245/355 113/572/355 126/246/355
f 116/237/356 118/238/356 124/248/356
f 110/222/357 117/570/357 115/241/357
f 111/225/358 119/234/358 117/250/358
f 121/251/2 122/254/2 125/252/2
f 122/254/2 127/257/2 128/255/2
f 123/253/2 124/256/2 126/228/2
f 123/253/2 125/252/2 128/255/2
f 121/251/2 126/228/2 127/257/2
f 159/258/359 133/573/359 136/259/359
f 130/261/2 131/574/2 132/262/2
f 157/264/360 136/575/360 138/265/360
f 137/267/361 133/316/361 159/268/361
f 153/270/362 155/576/362 143/271/362
f 138/273/363 137/317/363 160/274/363
f 154/276/364 139/315/364 142/277/364
f 154/279/365 153/577/365 135/280/365
f 156/282/366 142/295/366 143/283/366
f 162/285/367 161/578/367 147/286/367
f 150/288/368 151/579/368 140/289/368
f 152/291/369 144/326/369 134/292/369
f 152/294/370 143/283/370 142/295/370
f 151/297/371 149/312/371 134/298/371
f 148/300/372 147/580/372 146/301/372
f 161/303/373 163/327/373 146/304/373
f 162/306/374 148/581/374 145/307/374
f 164/309/375 145/582/375 146/310/375
f 139/281/376 135/280/376 149/312/376
f 144/313/377 152/294/377 150/296/377
f 135/272/378 143/271/378 152/291/378
f 139/315/379 151/579/379 150/288/379
f 138/265/380 136/575/380 156/282/380
f 137/267/381 153/577/381 154/279/381
f 136/259/382 133/573/382 154/276/382
f 138/273/383 155/576/383 153/270/383
f 158/275/384 160/274/384 132/318/384
f 160/269/385 159/268/385 129/320/385
f 130/322/386 157/264/386 158/266/386
f 159/258/387 157/260/387 130/324/387
f 140/299/388 134/298/388 164/309/388
f 144/326/389 162/306/389 164/308/389
f 141/290/390 140/289/390 163/327/390
f 141/314/391 161/578/391 162/285/391
f 195/328/392 169/387/392 172/329/392
f 166/331/2 167/583/2 168/332/2
f 172/334/393 174/384/393 194/335/393
f 196/337/394 173/386/394 169/338/394
f 191/340/395 179/396/395 171/341/395
f 174/343/396 173/388/396 196/344/396
f 192/346/397 190/584/397 175/347/397
f 189/349/398 171/397/398 175/350/398
f 191/352/399 192/385/399 178/353/399
f 180/355/400 177/377/400 183/356/400
f 186/358/401 187/383/401 176/359/401
f 188/361/402 180/585/402 170/362/402
f 197/364/403 200/398/403 179/354/403
f 185/365/404 170/374/404 176/366/404
f 184/368/405 183/586/405 182/369/405
f 176/359/406 182/587/406 183/371/406
f 170/362/407 180/585/407 184/372/407
f 170/374/408 181/370/408 182/369/408
f 198/375/409 185/365/409 187/367/409
f 177/377/410 180/355/410 188/378/410
f 200/380/411 188/361/411 185/363/411
f 197/382/412 199/395/412 187/383/412
f 174/384/413 172/334/413 192/385/413
f 173/386/414 189/349/414 190/351/414
f 169/387/415 190/584/415 192/346/415
f 173/388/416 174/343/416 191/340/416
f 194/345/417 196/344/417 168/389/417
f 196/337/418 195/339/418 165/333/418
f 193/336/419 194/335/419 167/391/419
f 165/393/420 195/328/420 193/330/420
f 178/348/421 175/347/421 199/395/421
f 179/396/422 200/380/422 198/381/422
f 171/397/423 198/375/423 199/376/423
f 186/379/424 188/378/424 200/398/424
f 205/399/425 208/456/425 229/400/425
f 201/402/2 202/588/2 203/403/2
f 229/405/426 208/453/426 210/406/426
f 209/408/427 205/454/427 231/409/427
f 227/411/428 215/449/428 207/412/428
f 210/414/429 209/458/429 232/415/429
f 228/417/430 226/457/430 211/418/430
f 226/420/431 225/455/431 207/421/431
f 228/423/432 214/436/432 215/424/432
f 213/426/433 219/589/433 220/427/433
f 223/429/434 212/590/434 213/430/434
f 221/432/435 224/591/435 216/433/435
f 222/435/436 224/448/436 215/424/436
f 221/437/437 206/592/437 212/438/437
f 220/440/438 219/593/438 218/441/438
f 213/430/439 212/590/439 218/443/439
f 216/433/440 220/594/440 217/445/440
f 212/438/441 206/592/441 217/446/441
f 207/421/442 221/437/442 223/439/442
f 213/426/443 216/428/443 224/448/443
f 215/449/444 224/591/444 221/432/444
f 214/450/445 211/595/445 223/451/445
f 208/453/446 228/423/446 227/425/446
f 205/454/447 209/408/447 225/455/447
f 208/456/448 205/399/448 226/457/448
f 209/458/449 210/414/449 227/411/449
f 203/459/450 230/416/450 232/415/450
f 204/461/451 232/596/451 231/462/451
f 229/405/452 230/407/452 203/464/452
f 201/466/453 231/401/453 229/400/453
f 243/468/454 237/597/454 238/469/454
f 234/471/2 235/598/2 236/472/2
f 241/474/455 238/599/455 240/475/455
f 239/477/456 237/487/456 243/478/456
f 240/480/457 239/490/457 244/481/457
f 237/483/458 245/600/458 248/484/458
f 239/477/459 249/542/459 245/486/459
f 240/475/460 238/599/460 248/488/460
f 239/490/461 240/480/461 250/491/461
f 242/482/462 244/481/462 236/493/462
f 244/479/463 243/478/463 233/495/463
f 241/474/464 242/476/464 235/497/464
f 233/499/465 243/468/465 241/470/465
f 267/501/466 255/540/466 247/502/466
f 268/504/467 266/601/467 251/505/467
f 265/507/468 247/602/468 251/508/468
f 268/510/469 254/523/469 255/511/469
f 256/513/470 253/539/470 259/514/470
f 262/516/471 263/541/471 252/517/471
f 264/519/472 256/603/472 246/520/472
f 264/522/473 255/511/473 254/523/473
f 263/525/474 261/604/474 246/526/474
f 260/528/233 259/605/233 258/529/233
f 252/517/475 258/606/475 259/531/475
f 246/520/476 256/603/476 260/532/476
f 246/534/477 257/607/477 258/535/477
f 251/508/478 247/602/478 261/537/478
f 256/513/479 264/522/479 262/524/479
f 255/540/480 264/519/480 261/521/480
f 254/506/481 251/505/481 263/541/481
f 248/488/482 268/510/482 267/512/482
f 249/542/483 265/507/483 266/509/483
f 245/543/484 266/608/484 268/544/484
f 249/546/485 250/609/485 267/501/485
