# Blender 4.2.1 LTS
# www.blender.org
mtllib lamp_1.mtl
g lamp_1_Mesh
v -0.000000 0.000000 -0.177969
v -0.010628 5.622216 -0.068112
v 0.125843 0.000000 -0.125843
v 0.039306 5.684221 -0.048162
v 0.177969 0.000000 0.000000
v 0.064570 5.642589 0.000000
v 0.125843 0.000000 0.125843
v 0.033991 5.683336 0.048162
v -0.000000 0.000000 0.177969
v 0.004430 5.605386 0.068112
v -0.125843 0.000000 0.125843
v -0.035760 5.678021 0.048162
v -0.177969 0.000000 0.000000
v -0.058367 5.535408 -0.000000
v -0.125843 0.000000 -0.125843
v -0.048161 5.701052 -0.048162
v 0.035663 5.976645 0.070145
v 0.000001 6.035646 0.056747
v 0.054192 6.011018 0.102489
v 0.038320 5.990472 0.134834
v 0.000001 5.981962 0.148232
v -0.038318 5.990472 0.134834
v -0.054190 6.011018 0.102489
v -0.034775 6.049281 0.070145
v 0.025337 6.262837 0.405723
v 0.000001 6.271731 0.400151
v 0.035831 6.241368 0.419173
v 0.025337 6.219898 0.432625
v 0.000001 6.211004 0.438196
v -0.025335 6.219898 0.432625
v -0.035829 6.241368 0.419173
v -0.025335 6.262837 0.405723
v 0.027972 6.329010 0.767384
v 0.000001 6.340593 0.767160
v 0.039558 6.301044 0.767922
v 0.027972 6.273078 0.768460
v 0.000001 6.261494 0.768683
v -0.027970 6.273078 0.768460
v -0.039556 6.301044 0.767922
v -0.027970 6.329010 0.767384
v 0.067216 6.304862 1.094959
v 0.003105 6.312574 1.120370
v 0.093771 6.286242 1.033613
v 0.067216 6.267621 0.972266
v 0.003105 6.259908 0.946855
v -0.061005 6.267621 0.972266
v -0.087560 6.286242 1.033613
v -0.061005 6.304862 1.094959
v 0.053897 6.355078 0.796721
v 0.000001 6.377362 0.796474
v 0.076314 6.301187 0.797318
v 0.054025 6.247166 0.797914
v 0.000001 6.224754 0.798161
v -0.054023 6.247166 0.797914
v -0.076311 6.301187 0.797318
v -0.053895 6.355078 0.796721
v 0.003105 6.238266 0.900509
v 0.102793 6.249916 0.940048
v 0.103029 6.306322 1.131522
v 0.003105 6.318035 1.171289
v 0.144255 6.278086 1.035671
v -0.096582 6.249916 0.940048
v -0.138045 6.278086 1.035671
v -0.096819 6.306322 1.131522
v 0.000001 0.966207 -0.137606
v 0.097303 0.966207 -0.097302
v 0.137607 0.966207 0.000000
v 0.097303 0.966207 0.097302
v 0.000001 0.966207 0.137606
v -0.097301 0.966207 0.097302
v -0.137605 0.966207 0.000000
v -0.097301 0.966207 -0.097302
v 0.000001 0.994130 -0.112235
v 0.079363 0.994130 -0.079362
v 0.112236 0.994130 0.000000
v 0.079363 0.994130 0.079362
v 0.000001 0.994130 0.112235
v -0.079361 0.994130 0.079362
v -0.112233 0.994130 0.000000
v -0.079361 0.994130 -0.079362
v 0.001553 6.222645 0.849432
v 0.084681 6.242277 0.869050
v 0.084720 6.362822 0.964053
v 0.119144 6.289644 0.916494
v -0.116038 6.289644 0.916494
v -0.081614 6.362822 0.964053
v -0.081574 6.242277 0.869050
v 0.001553 6.382408 0.983785
v 0.025689 2.196697 -0.100207
v 0.070858 2.277305 -0.070857
v 0.091349 2.165694 -0.000000
v 0.072629 1.938930 0.070856
v -0.015943 2.166580 0.100207
v -0.058454 2.237444 0.070856
v -0.086032 1.997393 -0.000000
v -0.070855 2.277305 -0.070857
v 0.063595 1.625974 -0.075109
v 0.101793 1.579912 0.000000
v 0.071744 1.325157 0.075109
v 0.009036 1.309301 0.106221
v -0.057215 1.447840 0.075109
v -0.099133 1.495761 0.000000
v -0.075108 1.635717 -0.075109
v -0.030116 1.695952 -0.106221
v -0.014172 3.825814 -0.084146
v 0.041785 3.951597 -0.059500
v 0.065903 3.892294 0.000000
v 0.039127 3.882111 0.059500
v -0.003713 3.954388 0.084146
v -0.038422 4.129038 0.059500
v -0.062183 3.848604 0.000000
v -0.059499 3.990572 -0.059500
v -0.152355 6.052102 1.213163
v -0.119901 6.309677 1.221966
v -0.152355 6.052102 0.808483
v -0.119901 6.309677 0.795876
v 0.164604 6.052102 1.213163
v 0.118680 6.309677 1.221966
v 0.164604 6.052102 0.808483
v 0.118680 6.309677 0.795876
v 0.066621 6.052102 0.859177
v -0.054372 6.052102 0.859177
v -0.044627 6.309677 0.795876
v 0.043406 6.309677 0.795876
v -0.050282 6.052102 1.299438
v 0.062532 6.052102 1.299438
v 0.041138 6.309677 1.312045
v -0.042360 6.309677 1.312045
v -0.156399 6.283431 1.250160
v -0.156399 6.283431 0.755494
v 0.051318 6.283431 0.755494
v 0.155176 6.283431 0.755494
v 0.155176 6.283431 1.250160
v -0.052540 6.283431 1.352427
v -0.052540 6.283431 0.755494
v 0.051318 6.283431 1.352427
v -0.193370 6.052102 0.755494
v -0.193370 6.052102 1.250160
v -0.064863 6.052102 0.755494
v 0.192148 6.052102 1.250160
v 0.192148 6.052102 0.755494
v 0.063642 6.052102 1.352427
v 0.063642 6.052102 0.755494
v -0.064863 6.052102 1.352427
v -0.044492 6.110323 0.872270
v -0.040642 6.110323 1.283823
v 0.069426 6.110323 0.872270
v 0.065576 6.110323 1.283823
v -0.136745 6.110323 0.821576
v -0.136745 6.110323 1.202593
v 0.125698 6.115978 1.202593
v 0.125698 6.115978 0.821576
vn 0.3890 0.0075 -0.9212
vn 0.9270 0.0007 -0.3750
vn 0.9119 0.0007 0.4105
vn 0.5061 0.0059 0.8625
vn -0.5421 0.0108 0.8402
vn -0.9321 0.0021 0.3623
vn -0.9180 0.1587 -0.3633
vn -0.9992 0.0023 -0.0397
vn -0.4526 0.0089 -0.8916
vn -0.0000 -1.0000 -0.0000
vn 0.7617 -0.1262 0.6355
vn -0.6243 -0.1593 0.7648
vn 0.1043 0.8196 -0.5634
vn 0.8370 0.4287 -0.3399
vn 0.9217 -0.2869 0.2612
vn 0.7447 0.1983 -0.6373
vn -0.3687 -0.2513 0.8949
vn 0.0931 0.2857 -0.9538
vn 0.7016 0.2747 -0.6575
vn 0.9192 -0.1189 0.3755
vn 0.9229 -0.3813 0.0531
vn -0.3557 -0.9235 0.1434
vn -0.9143 0.3972 -0.0793
vn -0.9189 -0.2918 0.2655
vn 0.3807 -0.7256 0.5732
vn 0.9237 0.3332 -0.1888
vn -0.9301 0.3212 -0.1783
vn -0.3643 -0.7300 0.5783
vn 0.2480 -0.6062 -0.7556
vn -0.1792 -0.9603 0.2139
vn 0.6010 -0.2563 -0.7571
vn 0.3782 0.9101 -0.1693
vn -0.3598 0.9170 -0.1721
vn -0.9111 -0.4077 0.0600
vn 0.3798 -0.9145 0.1397
vn 0.9218 0.3804 -0.0749
vn -0.0000 -0.9569 0.2904
vn -0.0771 -0.9913 0.1063
vn 0.6052 0.2434 -0.7579
vn 0.0723 -0.9913 0.1104
vn 0.2523 0.6018 -0.7577
vn 0.1643 -0.9631 0.2131
vn -0.7637 0.6295 0.1430
vn 0.8605 0.4916 -0.1336
vn 0.1562 -0.9458 0.2845
vn -0.0804 -0.9927 0.0898
vn 0.8707 -0.4606 -0.1725
vn 0.2823 0.9179 0.2788
vn -0.2341 0.9189 0.3174
vn -0.8262 -0.5253 -0.2035
vn -0.1633 -0.9222 0.3506
vn -0.2463 -0.6092 -0.7538
vn -0.0612 -0.9017 0.4280
vn -0.6030 -0.2643 -0.7527
vn 0.0618 -0.9043 0.4223
vn -0.6123 0.2392 -0.7536
vn 0.1538 -0.9278 0.3400
vn -0.2556 0.6027 -0.7559
vn -0.3824 0.0386 -0.9232
vn -0.9232 0.0386 -0.3824
vn -0.9232 0.0386 0.3824
vn -0.3824 0.0386 0.9232
vn 0.3824 0.0386 0.9232
vn 0.9232 0.0386 0.3824
vn 0.9232 0.0386 -0.3824
vn 0.3824 0.0386 -0.9232
vn -0.2931 0.6429 -0.7076
vn -0.7076 0.6430 -0.2931
vn -0.7076 0.6430 0.2931
vn -0.2931 0.6430 0.7076
vn 0.2931 0.6429 0.7076
vn 0.7076 0.6429 0.2931
vn 0.7076 0.6429 -0.2931
vn 0.2931 0.6429 -0.7076
vn -0.8894 -0.3192 -0.3274
vn -0.2237 0.9744 -0.0244
vn 0.3801 0.9181 -0.1125
vn 0.8495 -0.3548 -0.3905
vn -0.2639 -0.9499 -0.1675
vn 0.3825 -0.9226 -0.0495
vn 0.8866 0.3657 -0.2832
vn -0.8474 0.5051 -0.1637
vn -0.5771 0.0092 -0.8166
vn -0.9648 0.0252 -0.2617
vn -0.8668 0.0226 0.4982
vn -0.4360 -0.0064 0.8999
vn 0.4433 0.0056 0.8964
vn 0.9270 0.0013 0.3751
vn 0.8952 0.0160 -0.4455
vn 0.3002 -0.0220 -0.9536
vn 0.3826 0.0158 -0.9238
vn 0.9238 0.0165 -0.3826
vn 0.9236 0.0262 0.3826
vn 0.3827 0.0067 0.9239
vn -0.3825 0.0286 0.9235
vn -0.9228 0.0486 0.3822
vn -0.9236 0.0241 -0.3826
vn -0.3827 0.0087 -0.9238
vn -0.2891 0.0024 -0.9573
vn -0.9868 0.0127 -0.1611
vn -0.9451 0.0122 0.3266
vn -0.5553 0.0113 0.8316
vn 0.3407 0.0114 0.9401
vn 0.9507 0.0182 0.3094
vn 0.9663 0.0142 -0.2570
vn 0.5180 0.0211 -0.8551
vn -0.9875 0.1578 -0.0000
vn -0.0000 -0.0000 -1.0000
vn 0.9875 0.1578 -0.0000
vn -0.6196 0.0990 0.7786
vn -0.8540 -0.5202 -0.0000
vn -0.0000 1.0000 -0.0000
vn 0.6673 -0.1939 0.7191
vn 0.6163 -0.2976 -0.7291
vn 0.6196 0.0990 0.7786
vn -0.0000 -0.0000 1.0000
vn -0.5838 0.8119 -0.0000
vn -0.0000 0.8385 -0.5450
vn 0.5839 0.8119 -0.0000
vn -0.4140 0.8074 0.4204
vn 0.3753 0.8688 0.3230
vn -0.0000 0.8385 0.5450
vn 0.0948 -0.9955 0.0009
vn 0.9659 -0.2590 -0.0000
vn -0.0000 -0.2591 -0.9659
vn -0.0000 -0.2194 0.9756
vn -0.6781 -0.5019 -0.5369
vn -0.4582 -0.0763 0.8856
vn 0.3639 0.0066 -0.9314
vn 0.8871 0.0043 -0.4616
vn 0.8464 0.0058 0.5325
vn 0.5470 0.0068 0.8371
vn -0.4339 0.0073 0.9009
vn -0.9104 0.0046 0.4137
vn -0.9941 0.0311 -0.1037
vn -0.9833 0.0077 -0.1818
vn -0.4547 0.0089 -0.8906
vn 0.3693 -0.2572 0.8930
vn -0.9185 -0.1127 0.3791
vn -0.3827 0.7843 -0.4883
vn 0.3824 0.7614 -0.5235
vn 0.9189 -0.2918 0.2655
vn 0.9235 0.1537 -0.3515
vn -0.6599 -0.1638 0.7332
vn -0.2282 0.3210 -0.9192
vn 0.0242 0.2885 -0.9572
vn 0.7724 -0.1499 0.6172
vn 0.9111 -0.4077 0.0600
vn -0.3798 -0.9145 0.1397
vn -0.9218 0.3804 -0.0749
vn -0.9217 -0.2869 0.2612
vn 0.3643 -0.7300 0.5783
vn -0.2545 0.7319 -0.6321
vn -0.9237 0.3332 -0.1888
vn -0.3807 -0.7256 0.5732
vn 0.2463 -0.6092 -0.7538
vn -0.1643 -0.9631 0.2131
vn 0.6030 -0.2643 -0.7527
vn 0.3598 0.9170 -0.1721
vn -0.3782 0.9101 -0.1693
vn -0.9229 -0.3813 0.0531
vn 0.3557 -0.9235 0.1434
vn 0.9143 0.3972 -0.0793
vn -0.0723 -0.9913 0.1104
vn 0.6123 0.2392 -0.7536
vn 0.0771 -0.9913 0.1063
vn 0.2556 0.6027 -0.7559
vn 0.1792 -0.9603 0.2139
vn -0.8685 0.4824 -0.1136
vn 0.7537 0.6433 0.1346
vn 0.0819 -0.9929 0.0859
vn -0.1537 -0.9436 0.2933
vn 0.8468 -0.4820 -0.2252
vn 0.2329 0.9204 0.3141
vn -0.2830 0.9163 0.2834
vn -0.8586 -0.4964 -0.1281
vn -0.1538 -0.9278 0.3400
vn -0.2480 -0.6062 -0.7556
vn -0.0618 -0.9043 0.4223
vn -0.6010 -0.2563 -0.7571
vn 0.0612 -0.9017 0.4280
vn -0.6052 0.2434 -0.7579
vn 0.1633 -0.9222 0.3506
vn -0.2523 0.6018 -0.7577
vn -0.7076 0.6429 -0.2931
vn -0.7076 0.6429 0.2931
vn -0.2931 0.6429 0.7076
vn -0.8616 -0.3594 -0.3584
vn -0.3804 0.9188 -0.1055
vn 0.2228 0.9745 -0.0281
vn 0.8888 -0.2978 -0.3483
vn -0.3829 -0.9234 -0.0264
vn 0.2661 -0.9470 -0.1798
vn 0.8406 0.5114 -0.1785
vn -0.8921 0.3682 -0.2617
vn -0.2595 0.0405 -0.9649
vn -0.9836 0.0077 -0.1802
vn -0.9325 0.0005 0.3613
vn -0.5641 0.0036 0.8257
vn 0.3533 0.0169 0.9354
vn 0.9519 0.0170 0.3058
vn 0.9568 -0.0088 -0.2905
vn 0.5456 -0.0006 -0.8380
vn 0.3299 0.0222 -0.9437
vn 0.8973 0.0254 -0.4408
vn 0.9082 0.0162 0.4182
vn 0.4399 0.0217 0.8978
vn -0.3779 0.0271 0.9255
vn -0.9568 0.0083 -0.2906
vn -0.5535 -0.0166 -0.8327
vn -0.4525 0.0089 -0.8917
vn -0.9996 0.0068 -0.0288
vn -0.9468 0.0120 0.3217
vn -0.5423 0.0108 0.8401
vn 0.5041 0.0043 0.8636
vn 0.9110 0.0134 0.4122
vn 0.9329 0.0186 -0.3596
vn 0.3787 0.0129 -0.9254
vn -0.7011 0.0374 0.7120
vn 0.4573 0.0974 0.8840
vn 0.7011 0.0374 0.7120
vn 0.5838 0.8119 -0.0000
vn -0.3753 0.8688 0.3230
vn 0.4140 0.8074 0.4204
vn 0.1000 -0.9950 -0.0000
vn -0.6363 -0.1686 -0.7528
vn -0.4784 -0.1146 0.8706
vt 0.559285 0.369744
vt 0.559437 0.373758
vt 0.559342 0.373768
vt 0.556130 0.375681
vt 0.555630 0.372394
vt 0.557702 0.374697
vt 0.558435 0.370262
vt 0.558507 0.374276
vt 0.558645 0.370256
vt 0.558659 0.374276
vt 0.559980 0.375128
vt 0.561699 0.371955
vt 0.560191 0.374880
vt 0.559162 0.369746
vt 0.558971 0.368997
vt 0.559040 0.368952
vt 0.559066 0.369742
vt 0.559191 0.373771
vt 0.047114 0.888672
vt 0.048670 0.890254
vt 0.047114 0.889596
vt 0.558522 0.370256
vt 0.558717 0.369583
vt 0.561577 0.371941
vt 0.561553 0.371201
vt 0.561415 0.374998
vt 0.560123 0.380504
vt 0.560618 0.374896
vt 0.555561 0.371626
vt 0.556246 0.370944
vt 0.555629 0.371675
vt 0.558621 0.369563
vt 0.558883 0.368930
vt 0.558918 0.368979
vt 0.555720 0.371705
vt 0.558732 0.370262
vt 0.558788 0.369568
vt 0.559134 0.368930
vt 0.555509 0.372411
vt 0.558558 0.369519
vt 0.556319 0.371003
vt 0.557017 0.370588
vt 0.557018 0.370628
vt 0.563297 0.370877
vt 0.563835 0.364265
vt 0.563806 0.370946
vt 0.560907 0.370549
vt 0.560156 0.370213
vt 0.560935 0.370508
vt 0.561464 0.371240
vt 0.563118 0.377426
vt 0.562811 0.370946
vt 0.556293 0.370985
vt 0.561619 0.371170
vt 0.563884 0.377647
vt 0.562662 0.383682
vt 0.563204 0.384099
vt 0.562165 0.384229
vt 0.557136 0.369500
vt 0.557611 0.367582
vt 0.558048 0.368486
vt 0.557114 0.370605
vt 0.557115 0.370682
vt 0.556964 0.370469
vt 0.556995 0.370522
vt 0.560662 0.380522
vt 0.560827 0.387144
vt 0.560863 0.370596
vt 0.560155 0.370274
vt 0.562735 0.364265
vt 0.563272 0.364310
vt 0.559412 0.368410
vt 0.557208 0.370858
vt 0.560427 0.369317
vt 0.558223 0.371765
vt 0.559587 0.371690
vt 0.559736 0.367463
vt 0.557072 0.370478
vt 0.561319 0.368878
vt 0.557013 0.370375
vt 0.560500 0.370676
vt 0.561429 0.370995
vt 0.564538 0.377132
vt 0.566113 0.378811
vt 0.565164 0.380566
vt 0.557455 0.370360
vt 0.557694 0.370529
vt 0.557413 0.370577
vt 0.556192 0.372719
vt 0.557888 0.372689
vt 0.557566 0.373687
vt 0.559276 0.373797
vt 0.560007 0.372572
vt 0.557462 0.370614
vt 0.557297 0.370667
vt 0.562862 0.377541
vt 0.561429 0.380871
vt 0.561429 0.377385
vt 0.563223 0.381420
vt 0.561155 0.379956
vt 0.560285 0.379503
vt 0.560833 0.377878
vt 0.556192 0.369165
vt 0.561429 0.383535
vt 0.562282 0.383323
vt 0.556308 0.371280
vt 0.561430 0.382424
vt 0.562283 0.382749
vt 0.562163 0.381549
vt 0.562665 0.382295
vt 0.563200 0.381420
vt 0.563204 0.382228
vt 0.047714 0.893590
vt 0.047980 0.894374
vt 0.047711 0.894376
vt 0.047551 0.893587
vt 0.047499 0.894372
vt 0.050749 0.889126
vt 0.052498 0.895573
vt 0.050248 0.895573
vt 0.047308 0.894540
vt 0.047425 0.893763
vt 0.047499 0.894546
vt 0.047038 0.894540
vt 0.047278 0.893759
vt 0.046921 0.893763
vt 0.046847 0.894546
vt 0.046015 0.893800
vt 0.046555 0.894436
vt 0.046289 0.894451
vt 0.047922 0.893589
vt 0.048148 0.894367
vt 0.047728 0.893566
vt 0.048580 0.893197
vt 0.047114 0.892858
vt 0.047439 0.892717
vt 0.048045 0.893828
vt 0.048580 0.893907
vt 0.047439 0.894431
vt 0.047068 0.893759
vt 0.047258 0.893738
vt 0.046222 0.893788
vt 0.046309 0.893724
vt 0.046364 0.893744
vt 0.046025 0.893769
vt 0.045903 0.893748
vt 0.045866 0.893773
vt 0.561415 0.381935
vt 0.560189 0.380767
vt 0.562930 0.373996
vt 0.558342 0.374896
vt 0.556338 0.374196
vt 0.557287 0.374624
vt 0.562378 0.381689
vt 0.562378 0.378695
vt 0.050872 0.890261
vt 0.048670 0.888023
vt 0.052428 0.889612
vt 0.050872 0.888030
vt 0.052428 0.888688
vt 0.559220 0.377801
vt 0.559421 0.379307
vt 0.559231 0.379311
vt 0.559894 0.378830
vt 0.559802 0.380325
vt 0.559574 0.380573
vt 0.558674 0.378303
vt 0.558679 0.379810
vt 0.558493 0.378303
vt 0.558487 0.379810
vt 0.557764 0.379988
vt 0.558263 0.379739
vt 0.557648 0.378621
vt 0.559400 0.377798
vt 0.559443 0.380816
vt 0.559569 0.380804
vt 0.557219 0.381409
vt 0.557419 0.381381
vt 0.558339 0.381328
vt 0.558482 0.381318
vt 0.558684 0.381318
vt 0.558828 0.381328
vt 0.560337 0.382830
vt 0.560137 0.382807
vt 0.559242 0.380820
vt 0.559083 0.380812
vt 0.559666 0.379078
vt 0.556753 0.378956
vt 0.559512 0.377787
vt 0.555855 0.308124
vt 0.560991 0.297279
vt 0.560991 0.308124
vt 0.566052 0.289251
vt 0.560991 0.287244
vt 0.566052 0.286434
vt 0.564434 0.290722
vt 0.559532 0.301623
vt 0.559412 0.290778
vt 0.558867 0.305969
vt 0.563759 0.308197
vt 0.558752 0.309116
vt 0.564151 0.285171
vt 0.562902 0.276586
vt 0.564151 0.276299
vt 0.563132 0.291050
vt 0.564783 0.300275
vt 0.563083 0.302226
vt 0.561202 0.291050
vt 0.559552 0.300275
vt 0.559552 0.291050
vt 0.561252 0.302226
vt 0.560713 0.308782
vt 0.559412 0.309904
vt 0.559413 0.308866
vt 0.565349 0.307903
vt 0.563897 0.309768
vt 0.564058 0.307664
vt 0.564555 0.301567
vt 0.559412 0.303866
vt 0.563803 0.303337
vt 0.558752 0.303191
vt 0.560991 0.294075
vt 0.566052 0.292068
vt 0.566052 0.294886
vt 0.560991 0.289521
vt 0.564783 0.291050
vt 0.565583 0.300977
vt 0.561029 0.290267
vt 0.558752 0.300977
vt 0.558752 0.290267
vt 0.563306 0.303191
vt 0.563306 0.290267
vt 0.565583 0.290267
vt 0.561029 0.303191
vt 0.564138 0.289477
vt 0.565037 0.279794
vt 0.565037 0.290639
vt 0.562220 0.290639
vt 0.561990 0.288366
vt 0.557190 0.289477
vt 0.556586 0.279794
vt 0.557190 0.280605
vt 0.559427 0.278713
vt 0.559403 0.277552
vt 0.559403 0.290639
vt 0.556586 0.290639
vt 0.559338 0.288366
vt 0.561900 0.278713
vt 0.564138 0.280605
vt 0.562220 0.277552
vt 0.821611 0.438364
vt 0.820142 0.429749
vt 0.821711 0.427631
vt 0.824581 0.438364
vt 0.826987 0.429749
vt 0.826987 0.439686
vt 0.824481 0.427631
vt 0.562902 0.276299
vt 0.561610 0.284884
vt 0.561610 0.276531
vt 0.565402 0.305431
vt 0.564108 0.305336
vt 0.559413 0.306401
vt 0.560713 0.306164
vt 0.565327 0.303191
vt 0.563897 0.304013
vt 0.559535 0.304227
vt 0.560835 0.303866
vt 0.559361 0.369736
vt 0.556207 0.370903
vt 0.555421 0.372373
vt 0.562378 0.377647
vt 0.563201 0.383615
vt 0.561415 0.387059
vt 0.560137 0.370342
vt 0.565636 0.376521
vt 0.557850 0.370349
vt 0.052488 0.889126
vt 0.048052 0.893583
vt 0.047897 0.893565
vt 0.048045 0.893249
vt 0.047114 0.894255
vt 0.047088 0.893738
vt 0.046193 0.893759
vt 0.560292 0.381931
vt 0.564075 0.374024
vt 0.557412 0.370213
vt 0.555855 0.297279
vt 0.563897 0.305583
vt 0.562902 0.284940
vt 0.560835 0.310725
vt 0.565178 0.310138
vt 0.564462 0.303810
vt 0.560991 0.291798
vt 0.820142 0.439686
vt 0.562902 0.285171
s 0
usemtl Material
f 2/1/1 106/2/1 105/3/1
f 106/4/2 6/5/2 107/6/2
f 6/7/3 108/8/3 107/6/3
f 108/8/4 10/9/4 109/10/4
f 10/9/5 110/11/5 109/10/5
f 110/11/6 14/12/6 111/13/6
f 16/14/7 23/15/7 24/16/7
f 14/17/8 112/18/8 111/13/8
f 112/18/9 2/1/9 105/3/9
f 3/19/10 15/20/10 1/21/10
f 8/22/11 21/23/11 10/9/11
f 12/24/12 23/25/12 14/12/12
f 24/26/13 26/27/13 18/28/13
f 18/29/14 25/30/14 17/31/14
f 20/32/15 27/33/15 28/34/15
f 6/5/16 17/31/16 19/35/16
f 12/36/17 21/23/17 22/37/17
f 16/14/18 18/38/18 2/1/18
f 4/39/19 18/29/19 17/31/19
f 8/22/20 19/40/20 20/32/20
f 28/41/21 35/42/21 36/43/21
f 29/44/22 38/45/22 30/46/22
f 31/47/23 40/48/23 32/49/23
f 22/50/24 31/47/24 23/25/24
f 21/51/25 28/52/25 29/44/25
f 19/35/26 25/30/26 27/53/26
f 23/25/27 32/49/27 24/54/27
f 21/51/28 30/46/28 22/55/28
f 37/56/29 52/57/29 53/58/29
f 43/59/30 59/60/30 41/61/30
f 36/43/31 51/62/31 52/63/31
f 25/30/32 34/64/32 33/65/32
f 32/66/33 34/67/33 26/27/33
f 30/68/34 39/69/34 31/47/34
f 29/44/35 36/70/35 37/71/35
f 27/53/36 33/65/36 35/42/36
f 42/72/37 43/59/37 41/61/37
f 44/73/37 48/74/37 45/75/37
f 48/74/37 46/76/37 45/75/37
f 41/61/38 60/77/38 42/72/38
f 35/42/39 49/78/39 51/62/39
f 48/74/40 60/77/40 64/79/40
f 33/65/41 50/80/41 49/78/41
f 47/81/42 64/79/42 63/82/42
f 86/83/43 63/84/43 64/85/43
f 83/86/44 61/87/44 84/88/44
f 82/89/45 57/90/45 81/91/45
f 87/92/46 57/90/46 62/93/46
f 84/88/47 58/94/47 82/95/47
f 88/96/48 59/97/48 83/98/48
f 88/96/49 64/85/49 60/99/49
f 85/100/50 62/101/50 63/102/50
f 44/73/51 61/103/51 43/59/51
f 37/56/52 54/104/52 38/105/52
f 45/75/53 58/106/53 44/73/53
f 38/105/54 55/107/54 39/108/54
f 45/75/55 62/93/55 57/90/55
f 39/108/56 56/109/56 40/110/56
f 46/76/57 63/82/57 62/93/57
f 40/110/58 50/111/58 34/112/58
f 72/113/59 1/114/59 15/115/59
f 71/116/60 15/115/60 13/117/60
f 70/118/61 13/119/61 11/120/61
f 9/121/62 70/122/62 11/123/62
f 7/124/63 69/125/63 9/121/63
f 67/126/64 7/124/64 5/127/64
f 66/128/65 5/129/65 3/130/65
f 65/131/66 3/132/66 1/114/66
f 80/133/67 65/131/67 72/113/67
f 71/134/68 80/135/68 72/136/68
f 78/137/69 71/134/69 70/138/69
f 69/139/70 78/137/70 70/138/70
f 68/140/71 77/141/71 69/125/71
f 67/142/72 76/143/72 68/144/72
f 74/145/73 67/142/73 66/128/73
f 73/146/74 66/128/74 65/147/74
f 55/148/75 87/149/75 85/100/75
f 50/150/76 86/83/76 88/96/76
f 50/80/77 83/86/77 49/78/77
f 51/62/78 82/95/78 52/63/78
f 54/151/79 81/91/79 87/92/79
f 52/152/80 81/91/80 53/153/80
f 49/78/81 84/88/81 51/62/81
f 56/154/82 85/100/82 86/155/82
f 13/156/10 5/157/10 11/158/10
f 11/158/10 7/159/10 9/160/10
f 96/161/83 104/162/83 103/163/83
f 95/164/84 103/163/84 102/165/84
f 101/166/85 95/164/85 102/165/85
f 93/167/86 101/166/86 100/168/86
f 92/169/87 100/168/87 99/170/87
f 98/171/88 92/169/88 99/170/88
f 97/172/89 91/173/89 98/171/89
f 89/174/90 97/172/90 104/162/90
f 73/175/91 97/172/91 74/176/91
f 74/177/92 98/171/92 75/178/92
f 75/179/93 99/170/93 76/180/93
f 76/180/94 100/168/94 77/181/94
f 100/168/95 78/182/95 77/181/95
f 101/166/96 79/183/96 78/184/96
f 102/165/97 80/185/97 79/186/97
f 103/163/98 73/175/98 80/185/98
f 96/161/99 105/3/99 89/174/99
f 111/13/100 96/161/100 95/164/100
f 94/187/101 111/13/101 95/164/101
f 109/10/102 94/187/102 93/167/102
f 108/8/103 93/167/103 92/169/103
f 91/173/104 108/8/104 92/169/104
f 90/188/105 107/6/105 91/173/105
f 105/3/106 90/189/106 89/174/106
f 129/190/107 137/191/107 138/192/107
f 143/193/108 132/194/108 141/195/108
f 132/196/109 140/197/109 141/198/109
f 144/199/110 129/200/110 138/201/110
f 117/202/111 152/203/111 119/204/111
f 123/205/112 114/206/112 128/207/112
f 124/208/112 118/209/112 120/210/112
f 123/205/112 127/211/112 124/208/112
f 121/212/113 152/213/113 147/214/113
f 125/215/114 150/216/114 146/217/114
f 133/218/115 142/219/115 140/197/115
f 136/220/116 144/199/116 142/221/116
f 130/222/108 139/223/108 137/224/108
f 139/223/108 131/225/108 143/193/108
f 116/226/117 129/227/117 114/206/117
f 120/210/118 131/228/118 124/208/118
f 120/210/119 133/229/119 132/230/119
f 128/207/120 129/227/120 134/231/120
f 116/226/118 135/232/118 130/233/118
f 123/205/118 131/228/118 135/232/118
f 127/211/121 133/229/121 118/209/121
f 128/207/122 136/234/122 127/211/122
f 115/235/10 138/236/10 137/237/10
f 115/235/10 139/238/10 122/239/10
f 119/240/10 140/241/10 117/242/10
f 126/243/10 140/241/10 142/244/10
f 119/240/10 143/245/10 141/246/10
f 122/239/10 143/245/10 121/247/10
f 125/248/10 138/236/10 113/249/10
f 125/248/10 142/244/10 144/250/10
f 147/251/123 151/252/123 148/253/123
f 145/254/10 150/255/10 149/256/10
f 147/251/10 146/257/10 145/254/10
f 113/258/124 149/259/124 150/260/124
f 126/261/125 146/217/125 148/262/125
f 121/212/126 145/263/126 122/264/126
f 117/265/127 148/262/127 151/266/127
f 122/264/128 149/267/128 115/268/128
f 2/1/129 4/269/129 106/2/129
f 106/4/130 4/39/130 6/5/130
f 6/7/131 8/22/131 108/8/131
f 108/8/132 8/22/132 10/9/132
f 10/9/133 12/36/133 110/11/133
f 110/11/134 12/24/134 14/12/134
f 16/14/135 14/17/135 23/15/135
f 14/17/136 16/14/136 112/18/136
f 112/18/137 16/14/137 2/1/137
f 3/19/10 13/156/10 15/20/10
f 8/22/138 20/32/138 21/23/138
f 12/24/139 22/50/139 23/25/139
f 24/26/140 32/66/140 26/27/140
f 18/29/141 26/270/141 25/30/141
f 20/32/142 19/40/142 27/33/142
f 6/5/143 4/39/143 17/31/143
f 12/36/144 10/9/144 21/23/144
f 16/14/145 24/16/145 18/38/145
f 4/39/146 2/271/146 18/29/146
f 8/22/147 6/7/147 19/40/147
f 28/41/148 27/53/148 35/42/148
f 29/44/149 37/71/149 38/45/149
f 31/47/150 39/69/150 40/48/150
f 22/50/151 30/68/151 31/47/151
f 21/51/152 20/272/152 28/52/152
f 19/35/153 17/31/153 25/30/153
f 23/25/154 31/47/154 32/49/154
f 21/51/155 29/44/155 30/46/155
f 37/56/156 36/273/156 52/57/156
f 43/59/157 61/103/157 59/60/157
f 36/43/158 35/42/158 51/62/158
f 25/30/159 26/270/159 34/64/159
f 32/66/160 40/274/160 34/67/160
f 30/68/161 38/275/161 39/69/161
f 29/44/162 28/52/162 36/70/162
f 27/53/163 25/30/163 33/65/163
f 42/72/37 44/73/37 43/59/37
f 44/73/37 42/72/37 48/74/37
f 48/74/37 47/81/37 46/76/37
f 41/61/164 59/60/164 60/77/164
f 35/42/165 33/65/165 49/78/165
f 48/74/166 42/72/166 60/77/166
f 33/65/167 34/64/167 50/80/167
f 47/81/168 48/74/168 64/79/168
f 86/83/169 85/276/169 63/84/169
f 83/86/170 59/277/170 61/87/170
f 82/89/171 58/106/171 57/90/171
f 87/92/172 81/91/172 57/90/172
f 84/88/173 61/87/173 58/94/173
f 88/96/174 60/99/174 59/97/174
f 88/96/175 86/83/175 64/85/175
f 85/100/176 87/149/176 62/101/176
f 44/73/177 58/106/177 61/103/177
f 37/56/178 53/58/178 54/104/178
f 45/75/179 57/90/179 58/106/179
f 38/105/180 54/104/180 55/107/180
f 45/75/181 46/76/181 62/93/181
f 39/108/182 55/107/182 56/109/182
f 46/76/183 47/81/183 63/82/183
f 40/110/184 56/109/184 50/111/184
f 72/113/59 65/131/59 1/114/59
f 71/116/60 72/113/60 15/115/60
f 70/118/61 71/278/61 13/119/61
f 9/121/62 69/125/62 70/122/62
f 7/124/63 68/140/63 69/125/63
f 67/126/64 68/140/64 7/124/64
f 66/128/65 67/142/65 5/129/65
f 65/131/66 66/279/66 3/132/66
f 80/133/67 73/280/67 65/131/67
f 71/134/185 79/281/185 80/135/185
f 78/137/186 79/281/186 71/134/186
f 69/139/187 77/282/187 78/137/187
f 68/140/71 76/283/71 77/141/71
f 67/142/72 75/284/72 76/143/72
f 74/145/73 75/284/73 67/142/73
f 73/146/74 74/145/74 66/128/74
f 55/148/188 54/285/188 87/149/188
f 50/150/189 56/286/189 86/83/189
f 50/80/190 88/287/190 83/86/190
f 51/62/191 84/88/191 82/95/191
f 54/151/192 53/153/192 81/91/192
f 52/152/193 82/89/193 81/91/193
f 49/78/194 83/86/194 84/88/194
f 56/154/195 55/148/195 85/100/195
f 13/156/10 3/19/10 5/157/10
f 11/158/10 5/157/10 7/159/10
f 96/161/196 89/174/196 104/162/196
f 95/164/197 96/161/197 103/163/197
f 101/166/198 94/187/198 95/164/198
f 93/167/199 94/187/199 101/166/199
f 92/169/200 93/167/200 100/168/200
f 98/171/201 91/173/201 92/169/201
f 97/172/202 90/188/202 91/173/202
f 89/174/203 90/189/203 97/172/203
f 73/175/204 104/162/204 97/172/204
f 74/177/205 97/172/205 98/171/205
f 75/179/206 98/171/206 99/170/206
f 76/180/207 99/170/207 100/168/207
f 100/168/208 101/166/208 78/182/208
f 101/166/85 102/165/85 79/183/85
f 102/165/209 103/163/209 80/185/209
f 103/163/210 104/162/210 73/175/210
f 96/161/211 112/18/211 105/3/211
f 111/13/212 112/18/212 96/161/212
f 94/187/213 110/11/213 111/13/213
f 109/10/214 110/11/214 94/187/214
f 108/8/215 109/10/215 93/167/215
f 91/173/216 107/6/216 108/8/216
f 90/188/217 106/4/217 107/6/217
f 105/3/218 106/2/218 90/189/218
f 129/190/107 130/288/107 137/191/107
f 143/193/108 131/225/108 132/194/108
f 132/196/109 133/218/109 140/197/109
f 144/199/219 134/289/219 129/200/219
f 117/202/111 151/290/111 152/203/111
f 123/205/112 116/226/112 114/206/112
f 124/208/112 127/211/112 118/209/112
f 123/205/112 128/207/112 127/211/112
f 121/212/220 119/291/220 152/213/220
f 125/215/114 113/292/114 150/216/114
f 133/218/221 136/293/221 142/219/221
f 136/220/116 134/289/116 144/199/116
f 130/222/108 135/294/108 139/223/108
f 139/223/108 135/294/108 131/225/108
f 116/226/117 130/233/117 129/227/117
f 120/210/118 132/230/118 131/228/118
f 120/210/222 118/209/222 133/229/222
f 128/207/223 114/206/223 129/227/223
f 116/226/118 123/205/118 135/232/118
f 123/205/118 124/208/118 131/228/118
f 127/211/224 136/234/224 133/229/224
f 128/207/122 134/231/122 136/234/122
f 115/235/10 113/249/10 138/236/10
f 115/235/10 137/237/10 139/238/10
f 119/240/10 141/246/10 140/241/10
f 126/243/10 117/242/10 140/241/10
f 119/240/10 121/247/10 143/245/10
f 122/239/10 139/238/10 143/245/10
f 125/248/10 144/250/10 138/236/10
f 125/248/10 126/243/10 142/244/10
f 147/251/225 152/295/225 151/252/225
f 145/254/10 146/257/10 150/255/10
f 147/251/10 148/253/10 146/257/10
f 113/258/124 115/296/124 149/259/124
f 126/261/125 125/215/125 146/217/125
f 121/212/126 147/214/126 145/263/126
f 117/265/226 126/261/226 148/262/226
f 122/264/227 145/263/227 149/267/227
