# Blender 4.2.1 LTS
# www.blender.org
mtllib lamp_2.mtl
g lamp_2_Mesh
v -0.000000 0.000000 -0.177969
v -2.875295 0.221307 -1.116508
v 0.125843 0.000000 -0.125843
v -2.898951 0.265773 -1.103065
v 0.177969 0.000000 0.000000
v -2.920776 0.284192 -1.059453
v 0.125843 0.000000 0.125843
v -2.927987 0.265773 -1.011220
v -0.000000 0.000000 0.177969
v -2.916358 0.221307 -0.986621
v -0.125843 0.000000 0.125843
v -2.892702 0.176840 -1.000065
v -0.177969 0.000000 0.000000
v -2.870877 0.158422 -1.043677
v -0.125843 0.000000 -0.125843
v -2.863666 0.176841 -1.091909
v -3.252428 0.162689 -1.081103
v -3.255406 0.122729 -1.091808
v -3.242496 0.183088 -1.046383
v -3.231427 0.171976 -1.007986
v -3.225707 0.135863 -0.988406
v -3.228685 0.095903 -0.999111
v -3.238617 0.075504 -1.033832
v -3.249685 0.086616 -1.072228
v -3.568866 0.168199 -0.823995
v -3.574898 0.141891 -0.828848
v -3.552490 0.181413 -0.806410
v -3.535363 0.173793 -0.786394
v -3.527518 0.149803 -0.775673
v -3.533551 0.123495 -0.780526
v -3.549926 0.110281 -0.798111
v -3.567053 0.117901 -0.818127
v -3.735079 0.202909 -0.497877
v -3.745114 0.174346 -0.498075
v -3.708851 0.216338 -0.490923
v -3.681794 0.206766 -0.481284
v -3.669757 0.179799 -0.474608
v -3.679792 0.151235 -0.474806
v -3.706020 0.137807 -0.481761
v -3.733078 0.147379 -0.491399
v -3.806381 0.276567 -0.183362
v -3.818694 0.214979 -0.153855
v -3.772067 0.297978 -0.239748
v -3.735852 0.266670 -0.289985
v -3.718951 0.200982 -0.304643
v -3.731265 0.139394 -0.275136
v -3.765579 0.117983 -0.218749
v -3.801793 0.149291 -0.168513
v -3.769317 0.229859 -0.480161
v -3.788670 0.174842 -0.480356
v -3.718652 0.255782 -0.467191
v -3.666264 0.237337 -0.449007
v -3.642927 0.185238 -0.436278
v -3.662398 0.130086 -0.436495
v -3.713191 0.104282 -0.449516
v -3.765460 0.122862 -0.467678
v -3.685053 0.197751 -0.342811
v -3.711011 0.299917 -0.319897
v -3.819445 0.315711 -0.153053
v -3.838388 0.219756 -0.106825
v -3.766644 0.348845 -0.241363
v -3.703877 0.102012 -0.296808
v -3.756543 0.068626 -0.208671
v -3.812295 0.117337 -0.129910
v 0.000001 0.966207 -0.137606
v 0.097303 0.966207 -0.097302
v 0.137607 0.966207 0.000000
v 0.097303 0.966207 0.097302
v 0.000001 0.966207 0.137606
v -0.097301 0.966207 0.097302
v -0.137605 0.966207 0.000000
v -0.097301 0.966207 -0.097302
v 0.000001 0.994130 -0.112235
v 0.079363 0.994130 -0.079362
v 0.112236 0.994130 0.000000
v 0.079363 0.994130 0.079362
v 0.000001 0.994130 0.112235
v -0.079361 0.994130 0.079362
v -0.112234 0.994130 0.000000
v -0.079361 0.994130 -0.079362
v -3.655522 0.192099 -0.386984
v -3.682879 0.275279 -0.383368
v -3.825363 0.276837 -0.326338
v -3.742972 0.311107 -0.355305
v -3.734557 0.077659 -0.328069
v -3.819412 0.111729 -0.307076
v -3.676930 0.110250 -0.364116
v -3.846757 0.194964 -0.303344
v 0.024133 2.118758 -0.091446
v 0.073049 2.156830 -0.044860
v 0.075422 2.172600 0.031022
v 0.029860 2.156830 0.091751
v -0.036945 2.118758 0.101752
v -0.085862 2.080687 0.055166
v -0.088235 2.064917 -0.020717
v -0.042674 2.080687 -0.081445
v -0.468816 2.237609 -0.246655
v -0.420640 2.302901 -0.190774
v -0.578116 2.329945 -0.199019
v -0.420756 2.302901 -0.076113
v -0.419624 2.237609 -0.036805
v -0.348750 2.172318 -0.028908
v -0.316703 2.145273 -0.092944
v -0.306116 2.172318 -0.163766
v -0.073580 2.316339 -0.101708
v -0.061016 2.378419 -0.033030
v -0.125818 2.322241 0.035936
v -0.142884 2.267324 0.067578
v -0.177534 2.212721 0.025703
v -0.174111 2.190104 -0.047865
v -0.134622 2.212721 -0.110031
v -0.075451 2.274295 -0.121147
v -0.182803 2.258205 -0.154475
v -0.228354 2.319684 -0.116062
v -0.260682 2.345636 -0.042159
v -0.257171 2.345262 0.044006
v -0.256100 2.275494 0.042302
v -0.217542 2.195315 0.012990
v -0.212203 2.171065 -0.058290
v -0.197814 2.197114 -0.127656
v -0.114084 2.270021 -0.079937
v -0.253071 2.263282 -0.103183
v -0.182181 2.247664 0.061361
v -0.197538 2.204018 0.019346
v -0.193157 2.180585 -0.053078
v -0.166218 2.204918 -0.118844
v -0.144986 2.241051 -0.137711
v -0.182539 2.242491 -0.085709
v 0.076217 1.624893 -0.041399
v 0.093257 1.571644 0.009177
v 0.064753 1.565579 0.071779
v -0.018592 1.560093 0.106959
v -0.069401 1.556935 0.068995
v -0.100156 1.532997 -0.010426
v -0.066053 1.523705 -0.056421
v 0.019048 1.573791 -0.096360
v 0.082749 1.416649 -0.060235
v 0.109717 1.447417 0.022227
v 0.078712 1.471205 0.067307
v -0.001272 1.485052 0.114680
v -0.061136 1.397718 0.096576
v -0.102606 1.399981 -0.053668
v -0.047478 1.469435 -0.088370
v 0.034128 1.309181 -0.090940
v 0.008133 1.852277 -0.095798
v 0.072406 1.795277 -0.036920
v 0.093709 1.749087 0.015612
v 0.054451 1.716657 0.085597
v -0.085752 1.531253 -0.049610
v 0.072374 1.362126 0.080207
v -0.054980 1.271745 -0.087858
v 0.044396 1.498813 -0.093978
v 0.110160 1.309727 0.027729
v 0.076598 1.081211 -0.064253
v 0.022214 1.495704 -0.052439
v 0.008894 1.538347 -0.070753
v 0.056074 1.570110 -0.026661
v 0.060937 1.460066 -0.048094
v 0.068363 1.541631 0.009776
v 0.084822 1.475934 0.022157
v 0.042816 1.537945 0.060233
v -0.060520 1.516606 -0.032085
v 0.056776 1.488062 0.055761
v -0.041945 1.487921 -0.064034
v -1.673118 1.229458 -0.665638
v -1.632158 1.284337 -0.626723
v -1.729250 1.307068 -0.627110
v -1.624412 1.284337 -0.544729
v -1.652047 1.229458 -0.526594
v -1.620726 1.174579 -0.514486
v -1.593790 1.151848 -0.568311
v -1.584891 1.174579 -0.627838
v -3.483888 -0.012902 0.563764
v -3.738693 0.002942 0.611709
v -3.547262 -0.053776 0.166172
v -3.805419 -0.040094 0.193082
v -3.509996 0.301720 0.535582
v -3.758346 0.239764 0.590496
v -3.573370 0.260847 0.137990
v -3.825072 0.196728 0.171869
v -3.557360 0.168706 0.196508
v -3.547394 0.048606 0.207266
v -3.811620 0.034625 0.186389
v -3.818872 0.122009 0.178562
v -3.478785 0.097131 0.639452
v -3.488078 0.209114 0.629421
v -3.737851 0.171892 0.685892
v -3.730973 0.089010 0.693316
v -3.705439 -0.028680 0.638357
v -3.782905 -0.078642 0.152355
v -3.800015 0.127544 0.133886
v -3.808570 0.230636 0.124652
v -3.731105 0.280598 0.610653
v -3.697979 0.084742 0.729597
v -3.791460 0.024451 0.143120
v -3.706535 0.187834 0.720363
v -3.552181 -0.099839 0.117758
v -3.474715 -0.049877 0.603760
v -3.562766 0.027719 0.106332
v -3.506472 0.332798 0.569482
v -3.583937 0.282835 0.083480
v -3.479871 0.215568 0.681383
v -3.573352 0.155277 0.094906
v -3.469286 0.088010 0.692809
v -3.603460 0.055834 0.228785
v -3.539327 0.101223 0.632787
v -3.612844 0.168912 0.218656
v -3.548077 0.206658 0.623343
v -3.603799 -0.040860 0.187182
v -3.544132 -0.002376 0.561526
v -3.571315 0.257753 0.539116
v -3.630983 0.219269 0.164773
vn -0.3144 0.6940 -0.6477
vn 0.0825 0.3362 -0.9382
vn -0.5371 0.3324 0.7753
vn -0.6136 0.5086 0.6041
vn -0.3478 0.0084 0.9375
vn 0.3964 -0.7577 0.5184
vn 0.1997 -0.9250 -0.3234
vn 0.6455 -0.7407 -0.1863
vn 0.3705 -0.0434 -0.9278
vn -0.0000 -1.0000 -0.0000
vn -0.1311 0.4564 0.8801
vn 0.2064 -0.8601 0.4665
vn -0.5814 -0.4571 -0.6731
vn -0.6031 0.2763 -0.7482
vn 0.1677 0.9605 0.2222
vn -0.2873 0.8595 -0.4228
vn 0.0660 -0.2628 0.9626
vn 0.0647 -0.4700 -0.8803
vn -0.1257 0.2252 -0.9662
vn -0.2745 0.8997 0.3395
vn 0.3172 0.9470 0.0499
vn 0.8569 -0.2767 0.4350
vn -0.3253 -0.9422 -0.0803
vn 0.2371 -0.8657 0.4408
vn 0.5188 0.4845 0.7043
vn -0.2987 0.8755 -0.3798
vn -0.2539 -0.9462 -0.2006
vn 0.5482 -0.2543 0.7967
vn 0.7866 0.2105 -0.5805
vn 0.8658 -0.0919 0.4919
vn 0.4391 0.5372 -0.7201
vn -0.8375 0.2974 -0.4585
vn -0.8169 -0.4359 -0.3776
vn 0.4062 -0.8710 0.2762
vn 0.8229 0.4524 0.3437
vn -0.3762 0.8819 -0.2841
vn 0.8344 0.0934 0.5432
vn 0.8344 0.0935 0.5432
vn 0.9224 0.0006 0.3862
vn -0.0396 0.5079 -0.8605
vn 0.9158 0.1493 0.3727
vn -0.3705 0.1336 -0.9192
vn 0.8564 0.2491 0.4522
vn -0.6165 -0.7858 0.0496
vn -0.4639 0.8077 -0.3639
vn 0.8199 0.2472 0.5165
vn 0.9285 -0.0042 0.3712
vn 0.4592 0.8777 -0.1371
vn -0.9688 0.2469 -0.0223
vn -0.9623 -0.2618 0.0740
vn 0.5907 -0.8055 0.0478
vn 0.7899 -0.0649 0.6098
vn 0.8066 -0.2798 -0.5207
vn 0.7446 0.0429 0.6661
vn 0.4886 -0.6569 -0.5743
vn 0.7444 0.1646 0.6472
vn 0.0068 -0.6999 -0.7142
vn 0.7869 0.2492 0.5646
vn -0.3536 -0.3705 -0.8589
vn -0.3824 0.0386 -0.9232
vn -0.9232 0.0386 -0.3824
vn -0.9232 0.0386 0.3824
vn -0.3824 0.0386 0.9232
vn 0.3824 0.0386 0.9232
vn 0.9232 0.0386 0.3824
vn 0.9232 0.0386 -0.3824
vn 0.3824 0.0386 -0.9232
vn -0.2931 0.6429 -0.7076
vn -0.7076 0.6429 -0.2931
vn -0.7076 0.6429 0.2931
vn -0.2931 0.6429 0.7076
vn 0.2931 0.6429 0.7076
vn 0.7076 0.6429 0.2931
vn 0.7076 0.6429 -0.2931
vn 0.2931 0.6429 -0.7076
vn 0.4306 -0.8945 -0.1203
vn -0.9187 -0.2898 -0.2685
vn -0.8613 0.3044 -0.4068
vn 0.4205 0.8276 -0.3719
vn 0.9672 -0.2152 0.1352
vn 0.8844 0.4365 0.1652
vn -0.3017 0.8270 -0.4745
vn -0.4071 -0.8915 -0.1986
vn -0.3725 -0.0246 -0.9277
vn -0.9383 0.0143 -0.3456
vn -0.9350 0.0278 0.3537
vn -0.5987 0.0023 0.8010
vn 0.2467 0.0171 0.9690
vn 0.8631 0.0412 0.5033
vn 0.9407 0.0528 -0.3351
vn 0.6669 -0.0175 -0.7450
vn 0.3734 -0.4483 -0.8121
vn 0.3155 -0.9080 -0.2756
vn 0.0614 -0.9435 0.3256
vn -0.2077 -0.4224 0.8823
vn -0.5868 -0.0288 0.8092
vn -0.2608 0.9653 0.0148
vn 0.0398 0.9481 -0.3155
vn 0.2317 0.6331 -0.7386
vn 0.5777 0.2197 -0.7861
vn 0.7543 0.6377 -0.1561
vn 0.5062 0.6627 0.5519
vn 0.0129 0.2329 0.9724
vn -0.5752 -0.2238 0.7868
vn -0.8304 -0.5397 0.1381
vn -0.6001 -0.5397 -0.5904
vn -0.0184 -0.2238 -0.9745
vn -0.3706 0.9282 -0.0317
vn 0.9990 0.0163 -0.0406
vn -0.9637 0.1931 -0.1846
vn -0.3981 -0.5596 0.7269
vn 0.2946 -0.9038 0.3103
vn 0.2922 -0.9297 -0.2243
vn 0.1374 -0.5207 -0.8426
vn -0.7070 0.3225 -0.6294
vn -0.3396 0.9010 -0.2701
vn 0.8458 -0.2649 0.4630
vn 0.2264 0.9497 0.2162
vn 0.4317 -0.5446 -0.7191
vn 0.2799 -0.9455 -0.1662
vn 0.3016 -0.9073 0.2930
vn 0.2300 -0.6799 0.6963
vn 0.2987 0.9515 -0.0737
vn 0.6416 -0.4103 -0.6481
vn 0.2883 0.1652 -0.9432
vn 0.5471 0.8216 0.1601
vn 0.4353 0.0083 0.9003
vn -0.4548 0.1290 0.8812
vn -0.9620 -0.0683 0.2645
vn -0.4251 0.0824 -0.9014
vn 0.7437 -0.5182 -0.4224
vn -0.3827 0.0053 -0.9239
vn -0.9217 0.0693 -0.3818
vn -0.9236 0.0254 0.3826
vn -0.3826 -0.0221 0.9237
vn 0.3827 0.0051 0.9239
vn 0.9235 -0.0275 0.3825
vn 0.9197 0.0953 -0.3809
vn 0.3771 0.1699 -0.9104
vn 0.6765 0.0345 -0.7357
vn 0.9504 0.0089 -0.3109
vn 0.9090 0.0239 0.4162
vn -0.4026 -0.0139 -0.9153
vn 0.6256 0.0557 0.7782
vn -0.1208 0.4726 -0.8730
vn -0.0340 -0.0013 -0.9994
vn 0.8231 0.0253 0.5674
vn 0.9498 -0.0137 -0.3126
vn 0.6032 -0.0454 -0.7963
vn 0.2851 0.1954 -0.9384
vn 0.9219 0.1649 -0.3507
vn 0.7829 0.2990 0.5455
vn 0.2066 -0.3309 -0.9208
vn 0.6988 0.6091 -0.3752
vn 0.6301 0.5427 -0.5555
vn 0.7419 -0.6098 0.2787
vn 0.8977 0.4381 0.0463
vn -0.3084 0.9466 -0.0939
vn 0.1263 -0.9442 -0.3041
vn 0.4150 -0.1120 -0.9029
vn -0.2464 -0.1517 0.9572
vn -0.6071 0.4021 0.6854
vn -0.5550 0.2987 0.7763
vn 0.0995 0.2891 -0.9521
vn -0.4561 0.7485 -0.4814
vn -0.0740 -0.9908 0.1136
vn -0.1566 -0.1010 -0.9825
vn -0.2367 0.9696 -0.0620
vn 0.0755 -0.5431 0.8363
vn 0.5823 -0.8129 -0.0093
vn -0.9842 -0.0670 0.1638
vn 0.2484 0.7480 0.6154
vn 0.1280 0.5580 -0.8199
vn -0.0266 0.6871 0.7261
vn 0.1566 0.1010 0.9825
vn -0.7510 -0.6339 0.1849
vn -0.9106 -0.1112 -0.3981
vn -0.8471 0.5251 0.0810
vn -0.6947 -0.4226 0.5821
vn -0.8354 0.3469 0.4263
vn -0.7399 -0.0011 0.6727
vn 0.9842 0.0670 -0.1638
vn 0.9721 0.1609 -0.1706
vn 0.1753 0.9761 -0.1283
vn 0.1037 -0.0802 -0.9914
vn 0.3687 0.1132 0.9226
vn 0.4658 -0.6937 -0.5493
vn 0.2515 -0.3602 0.8983
vn 0.0791 0.3268 -0.9418
vn -0.4357 0.7301 -0.5264
vn -0.6769 0.7157 0.1721
vn -0.5287 0.3008 0.7937
vn -0.0957 -0.3344 0.9376
vn 0.1997 -0.9244 -0.3251
vn 0.5418 -0.2939 -0.7874
vn -0.1308 0.4535 0.8816
vn 0.2104 -0.8680 0.4498
vn -0.5758 -0.4831 -0.6596
vn -0.6068 0.2476 -0.7553
vn 0.1713 0.9585 0.2280
vn -0.2723 0.8300 -0.4868
vn 0.0654 -0.2568 0.9643
vn 0.0644 -0.4677 -0.8815
vn -0.1310 0.2656 -0.9551
vn -0.2739 0.9114 0.3071
vn 0.3410 0.9378 0.0652
vn 0.8501 -0.3016 0.4317
vn -0.3102 -0.9480 -0.0706
vn 0.2337 -0.8693 0.4356
vn 0.5222 0.4689 0.7124
vn -0.3188 0.8542 -0.4107
vn -0.2326 -0.9583 -0.1658
vn 0.5461 -0.2714 0.7925
vn 0.7890 0.2091 -0.5777
vn 0.8682 -0.0770 0.4902
vn 0.4454 0.5402 -0.7140
vn -0.8427 0.2783 -0.4609
vn -0.8104 -0.4535 -0.3709
vn 0.3833 -0.8852 0.2637
vn 0.8314 0.4295 0.3526
vn -0.3908 0.8729 -0.2921
vn 0.9210 0.0058 0.3895
vn -0.0371 0.5156 -0.8560
vn 0.9169 0.1537 0.3683
vn -0.3719 0.1370 -0.9181
vn 0.8529 0.2638 0.4504
vn -0.3989 -0.9059 -0.1420
vn -0.6816 0.7186 -0.1379
vn 0.9240 0.1566 0.3488
vn 0.8263 -0.0597 0.5600
vn 0.4955 0.8501 -0.1786
vn -0.9794 0.2012 0.0163
vn -0.9483 -0.3137 0.0480
vn 0.5427 -0.8319 0.1155
vn 0.7979 -0.0562 0.6002
vn 0.8043 -0.2819 -0.5230
vn 0.7488 0.0419 0.6615
vn 0.4821 -0.6558 -0.5809
vn 0.7402 0.1644 0.6520
vn 0.0037 -0.6936 -0.7203
vn 0.7782 0.2593 0.5720
vn -0.3524 -0.3673 -0.8607
vn 0.4770 -0.8674 -0.1419
vn -0.8368 -0.4498 -0.3123
vn -0.9337 0.1530 -0.3238
vn 0.3525 0.8670 -0.3521
vn 0.9060 -0.3209 0.2761
vn 0.9489 0.3094 0.0614
vn -0.4694 0.7821 -0.4099
vn -0.2465 -0.9367 -0.2487
vn -0.1624 0.0259 -0.9864
vn -0.8031 0.0285 -0.5951
vn -0.9988 -0.0304 0.0375
vn -0.6832 -0.0156 0.7301
vn 0.1511 -0.0054 0.9885
vn 0.7983 0.0126 0.6022
vn 0.9995 -0.0025 -0.0307
vn 0.7017 -0.0305 -0.7118
vn 0.3101 -0.3496 -0.8841
vn 0.3066 -0.9036 -0.2992
vn 0.0826 -0.9026 0.4225
vn -0.3627 -0.2864 0.8868
vn -0.4713 0.4489 0.7592
vn -0.3227 0.7495 0.5781
vn 0.1743 0.8805 -0.4408
vn 0.2246 0.5326 -0.8160
vn 0.6160 0.3078 -0.7251
vn 0.7915 0.3743 -0.4832
vn 0.3903 0.4994 0.7735
vn 0.1670 0.4527 0.8759
vn -0.5784 -0.2326 0.7819
vn -0.8278 -0.5459 0.1293
vn -0.6030 -0.5459 -0.5817
vn 0.0064 -0.1836 -0.9830
vn -0.4376 0.8965 -0.0690
vn 0.9966 0.0818 0.0139
vn -0.7908 0.5240 -0.3162
vn -0.1197 -0.3912 0.9125
vn 0.3501 -0.8785 0.3251
vn 0.4834 -0.8478 -0.2181
vn 0.3410 -0.4469 -0.8270
vn -0.7818 0.5270 -0.3333
vn -0.3679 0.8951 -0.2520
vn 0.5847 -0.0717 0.8081
vn 0.3254 0.9221 0.2095
vn 0.3487 -0.5866 -0.7310
vn 0.4715 -0.8723 -0.1296
vn 0.3569 -0.8822 0.3070
vn 0.0839 -0.7062 0.7030
vn 0.3597 0.9324 -0.0337
vn 0.6059 -0.5147 -0.6066
vn 0.5322 0.1184 -0.8383
vn 0.7424 0.6485 0.1684
vn 0.0478 0.1131 0.9924
vn -0.5955 -0.0550 0.8015
vn -0.9338 0.0135 0.3575
vn -0.9287 0.1300 -0.3472
vn 0.7955 -0.4120 -0.4443
vn -0.0657 0.0744 -0.9951
vn -0.7084 -0.0760 -0.7017
vn -0.9621 0.0581 0.2664
vn -0.2821 -0.0055 0.9594
vn 0.4192 -0.0034 0.9079
vn 0.8181 0.0142 0.5749
vn 0.8979 0.0444 -0.4379
vn 0.5311 -0.0003 -0.8473
vn 0.6888 0.0285 -0.7244
vn 0.9352 0.0302 -0.3527
vn 0.8759 -0.0197 0.4822
vn -0.3644 -0.1175 -0.9238
vn 0.9733 0.0458 0.2251
vn -0.6916 0.0244 -0.7218
vn -0.0568 -0.0129 -0.9983
vn 0.8282 0.0181 0.5601
vn 0.9514 -0.0092 -0.3077
vn 0.5334 0.0004 -0.8459
vn 0.7087 -0.0797 -0.7010
vn 0.9631 0.0919 -0.2530
vn 0.8677 0.2021 0.4541
vn -0.5381 0.4473 -0.7144
vn 0.7517 0.4984 -0.4318
vn 0.8267 0.5621 -0.0240
vn 0.6834 -0.6667 0.2973
vn 0.6045 0.7026 0.3754
vn 0.0132 0.7948 -0.6068
vn -0.0433 -0.5769 -0.8157
vn 0.3662 -0.0513 -0.9291
vn -0.3665 -0.0039 0.9304
vn -0.6446 0.5122 0.5677
vn -0.5508 0.2927 0.7817
vn 0.0765 0.3105 -0.9475
vn -0.3870 0.7079 -0.5909
vn 0.1325 -0.6266 0.7680
vn 0.0049 0.5367 0.8438
vn 0.0170 0.7654 0.6434
vn -0.7736 -0.3981 0.4930
vn -0.7629 0.3993 0.5085
vn 0.9711 0.1659 -0.1718
vn 0.1005 -0.6963 -0.7107
vn 0.2885 -0.3793 0.8791
vt 0.558389 0.375196
vt 0.560286 0.378304
vt 0.558246 0.375222
vt 0.563384 0.378358
vt 0.562656 0.374456
vt 0.562786 0.374446
vt 0.563161 0.378389
vt 0.562498 0.374324
vt 0.562356 0.378124
vt 0.562348 0.374186
vt 0.562245 0.378140
vt 0.562211 0.374226
vt 0.558072 0.378349
vt 0.558876 0.374531
vt 0.559012 0.374556
vt 0.557962 0.378329
vt 0.557986 0.379211
vt 0.557850 0.378304
vt 0.558624 0.374814
vt 0.560499 0.378228
vt 0.053055 0.888986
vt 0.049569 0.889595
vt 0.051013 0.888960
vt 0.562567 0.378758
vt 0.562482 0.378778
vt 0.558071 0.379192
vt 0.560776 0.390372
vt 0.562411 0.383246
vt 0.561556 0.390613
vt 0.562243 0.390382
vt 0.562853 0.383167
vt 0.563056 0.379109
vt 0.562493 0.379680
vt 0.562450 0.379648
vt 0.563278 0.378367
vt 0.563219 0.379184
vt 0.563143 0.379129
vt 0.562134 0.378172
vt 0.562413 0.378846
vt 0.560479 0.378952
vt 0.560402 0.378283
vt 0.560384 0.378929
vt 0.561715 0.379855
vt 0.561699 0.379809
vt 0.561483 0.370555
vt 0.562352 0.364265
vt 0.561943 0.370568
vt 0.558710 0.379776
vt 0.559481 0.380072
vt 0.558669 0.379808
vt 0.558152 0.379144
vt 0.561677 0.377727
vt 0.560958 0.370568
vt 0.562528 0.379734
vt 0.562378 0.377878
vt 0.557942 0.383846
vt 0.558150 0.382625
vt 0.558795 0.383569
vt 0.562751 0.375181
vt 0.563514 0.376902
vt 0.562679 0.376534
vt 0.557608 0.383358
vt 0.557071 0.382333
vt 0.562515 0.375900
vt 0.562999 0.375934
vt 0.561882 0.383161
vt 0.558749 0.379725
vt 0.559495 0.380023
vt 0.561265 0.364265
vt 0.561840 0.364371
vt 0.561722 0.379926
vt 0.561861 0.374202
vt 0.560356 0.377437
vt 0.560530 0.374170
vt 0.559538 0.375104
vt 0.561967 0.378359
vt 0.561687 0.377469
vt 0.557047 0.383207
vt 0.556192 0.382860
vt 0.559894 0.378308
vt 0.562666 0.375221
vt 0.563596 0.375289
vt 0.559466 0.376457
vt 0.558513 0.376783
vt 0.560942 0.371993
vt 0.559437 0.370842
vt 0.560300 0.368898
vt 0.562378 0.381066
vt 0.564111 0.379395
vt 0.564111 0.381657
vt 0.561525 0.372163
vt 0.560176 0.373229
vt 0.559806 0.372268
vt 0.558513 0.373333
vt 0.558631 0.374680
vt 0.557854 0.380711
vt 0.558795 0.380768
vt 0.558558 0.381568
vt 0.562612 0.371561
vt 0.564127 0.368923
vt 0.564127 0.372013
vt 0.562244 0.368102
vt 0.559853 0.380116
vt 0.559922 0.380021
vt 0.560137 0.380150
vt 0.563627 0.374796
vt 0.558628 0.384608
vt 0.557855 0.384385
vt 0.562243 0.373277
vt 0.559506 0.379952
vt 0.559568 0.380066
vt 0.559542 0.380161
vt 0.561927 0.375927
vt 0.048101 0.889126
vt 0.050248 0.895466
vt 0.048612 0.895280
vt 0.046356 0.889143
vt 0.046356 0.895302
vt 0.048092 0.899834
vt 0.048883 0.893376
vt 0.049777 0.899883
vt 0.045838 0.899856
vt 0.047580 0.893338
vt 0.049020 0.901494
vt 0.050142 0.895005
vt 0.051088 0.901372
vt 0.046919 0.901429
vt 0.048543 0.895099
vt 0.047877 0.890272
vt 0.049744 0.890193
vt 0.049766 0.890289
vt 0.047859 0.890354
vt 0.049743 0.890396
vt 0.042190 0.894158
vt 0.041678 0.893654
vt 0.042755 0.894108
vt 0.042755 0.894812
vt 0.041311 0.895173
vt 0.041678 0.895353
vt 0.045838 0.893355
vt 0.047434 0.893167
vt 0.049826 0.894794
vt 0.046919 0.895048
vt 0.048522 0.894871
vt 0.047812 0.890273
vt 0.047860 0.890197
vt 0.047798 0.890340
vt 0.559758 0.379967
vt 0.558696 0.371993
vt 0.560653 0.371233
vt 0.559542 0.371442
vt 0.562825 0.384126
vt 0.563945 0.383883
vt 0.561532 0.375276
vt 0.559978 0.373130
vt 0.560794 0.367954
vt 0.561555 0.372462
vt 0.560107 0.378093
vt 0.559344 0.368175
vt 0.559286 0.378094
vt 0.558095 0.378038
vt 0.557377 0.368605
vt 0.558827 0.358415
vt 0.558604 0.368669
vt 0.560202 0.370807
vt 0.561449 0.362850
vt 0.561590 0.373546
vt 0.558655 0.370129
vt 0.560374 0.362370
vt 0.557482 0.371169
vt 0.556591 0.371040
vt 0.557577 0.371056
vt 0.557348 0.371371
vt 0.556654 0.371157
vt 0.556521 0.372028
vt 0.556365 0.371782
vt 0.556491 0.371774
vt 0.559790 0.370734
vt 0.559685 0.370435
vt 0.559847 0.370479
vt 0.559953 0.370763
vt 0.560019 0.370453
vt 0.562338 0.369916
vt 0.562289 0.370279
vt 0.562146 0.369987
vt 0.562614 0.370208
vt 0.562473 0.369823
vt 0.561899 0.370245
vt 0.561862 0.370578
vt 0.561699 0.370213
vt 0.562189 0.370534
vt 0.562078 0.370234
vt 0.556207 0.372140
vt 0.556193 0.371806
vt 0.049569 0.890517
vt 0.054498 0.889656
vt 0.051013 0.891188
vt 0.054498 0.890579
vt 0.053055 0.891213
vt 0.556356 0.371535
vt 0.556740 0.371318
vt 0.556253 0.371500
vt 0.558882 0.362064
vt 0.561612 0.358411
vt 0.562325 0.359484
vt 0.557547 0.357652
vt 0.560656 0.355769
vt 0.557993 0.368109
vt 0.559092 0.365291
vt 0.556472 0.371631
vt 0.556799 0.371428
vt 0.565416 0.340902
vt 0.566711 0.338075
vt 0.567700 0.339120
vt 0.553373 0.384857
vt 0.554994 0.383682
vt 0.554697 0.384856
vt 0.556192 0.377253
vt 0.558185 0.376055
vt 0.556252 0.378288
vt 0.562134 0.369935
vt 0.562181 0.369811
vt 0.559856 0.370428
vt 0.560030 0.370401
vt 0.559698 0.370358
vt 0.556481 0.371703
vt 0.556413 0.371689
vt 0.557784 0.374896
vt 0.558380 0.374999
vt 0.568110 0.337987
vt 0.553595 0.382759
vt 0.554605 0.382208
vt 0.568649 0.338151
vt 0.568570 0.339681
vt 0.559864 0.370377
vt 0.559712 0.370282
vt 0.560040 0.370349
vt 0.560130 0.370317
vt 0.560137 0.370213
vt 0.566299 0.341434
vt 0.557987 0.371078
vt 0.557990 0.371199
vt 0.557877 0.371180
vt 0.555516 0.375765
vt 0.555068 0.377254
vt 0.554994 0.376233
vt 0.559751 0.375507
vt 0.559025 0.375298
vt 0.559877 0.375060
vt 0.561506 0.375066
vt 0.560083 0.377593
vt 0.557031 0.370083
vt 0.558278 0.371752
vt 0.557732 0.381141
vt 0.560100 0.380447
vt 0.561150 0.383007
vt 0.557993 0.371369
vt 0.558062 0.371353
vt 0.558657 0.371512
vt 0.559325 0.371465
vt 0.559284 0.371562
vt 0.559228 0.388143
vt 0.560918 0.388095
vt 0.558065 0.388546
vt 0.557205 0.379702
vt 0.558893 0.379662
vt 0.561734 0.384382
vt 0.560185 0.384604
vt 0.558853 0.378575
vt 0.558612 0.384485
vt 0.559136 0.371248
vt 0.559326 0.371093
vt 0.559342 0.371270
vt 0.558671 0.373475
vt 0.559951 0.373673
vt 0.561769 0.377731
vt 0.561136 0.379347
vt 0.560390 0.378322
vt 0.558206 0.371487
vt 0.558605 0.371351
vt 0.558703 0.375942
vt 0.558365 0.371209
vt 0.558589 0.371036
vt 0.558174 0.371324
vt 0.558158 0.371304
vt 0.558253 0.371228
vt 0.558047 0.371124
vt 0.558200 0.371080
vt 0.559037 0.373944
vt 0.558156 0.371439
vt 0.558274 0.371036
vt 0.558062 0.371470
vt 0.556188 0.377124
vt 0.555547 0.376029
vt 0.556188 0.375765
vt 0.554994 0.373951
vt 0.555544 0.374845
vt 0.555200 0.375765
vt 0.560512 0.372652
vt 0.559718 0.371257
vt 0.560512 0.370799
vt 0.563944 0.366328
vt 0.564366 0.364895
vt 0.564366 0.366513
vt 0.556377 0.372109
vt 0.559626 0.370697
vt 0.562451 0.370231
vt 0.562033 0.370546
vt 0.554023 0.285867
vt 0.547913 0.298768
vt 0.547913 0.285867
vt 0.555043 0.305928
vt 0.549023 0.303541
vt 0.555043 0.302577
vt 0.554900 0.306438
vt 0.548782 0.293605
vt 0.554757 0.293538
vt 0.553570 0.298183
vt 0.559389 0.300833
vt 0.553433 0.301926
vt 0.555560 0.295921
vt 0.557045 0.306133
vt 0.555560 0.306475
vt 0.554274 0.289495
vt 0.552310 0.278521
vt 0.554333 0.276202
vt 0.556569 0.289495
vt 0.558532 0.278521
vt 0.558532 0.289495
vt 0.556510 0.276202
vt 0.557190 0.306496
vt 0.558738 0.305161
vt 0.558736 0.306396
vt 0.558773 0.301527
vt 0.557045 0.303745
vt 0.557237 0.301243
vt 0.554900 0.290870
vt 0.559442 0.295053
vt 0.553433 0.294878
vt 0.549023 0.311667
vt 0.555043 0.309279
vt 0.555043 0.312631
vt 0.549023 0.308958
vt 0.552310 0.289495
vt 0.551359 0.277688
vt 0.556776 0.290427
vt 0.559484 0.277688
vt 0.559484 0.290427
vt 0.554067 0.275054
vt 0.554067 0.290427
vt 0.551359 0.290427
vt 0.556776 0.275054
vt 0.560917 0.289140
vt 0.561986 0.277621
vt 0.561986 0.290522
vt 0.558635 0.290522
vt 0.558361 0.287818
vt 0.552651 0.289140
vt 0.551933 0.277621
vt 0.552651 0.278586
vt 0.555313 0.276336
vt 0.555284 0.274954
vt 0.555284 0.290522
vt 0.551933 0.290522
vt 0.555206 0.287818
vt 0.558255 0.276336
vt 0.560917 0.278586
vt 0.558635 0.274954
vt 0.822720 0.455073
vt 0.821252 0.446459
vt 0.822821 0.444340
vt 0.825691 0.455073
vt 0.828097 0.446459
vt 0.828097 0.456395
vt 0.825591 0.444340
vt 0.554023 0.306133
vt 0.554023 0.296197
vt 0.558836 0.298586
vt 0.557296 0.298473
vt 0.558736 0.309328
vt 0.557190 0.309610
vt 0.558746 0.295921
vt 0.557045 0.296899
vt 0.558591 0.311914
vt 0.557045 0.312343
vt 0.560557 0.378915
vt 0.560888 0.377878
vt 0.556590 0.383481
vt 0.562900 0.377647
vt 0.558716 0.379414
vt 0.559588 0.379930
vt 0.049365 0.889270
vt 0.041311 0.893788
vt 0.042190 0.894732
vt 0.046013 0.893180
vt 0.047197 0.894830
vt 0.047798 0.890212
vt 0.560859 0.375420
vt 0.561493 0.367574
vt 0.556090 0.371372
vt 0.559718 0.357391
vt 0.559664 0.354673
vt 0.557732 0.365059
vt 0.560516 0.364905
vt 0.564778 0.340309
vt 0.556192 0.375111
vt 0.566906 0.337019
vt 0.553373 0.381076
vt 0.555516 0.377637
vt 0.560103 0.374070
vt 0.558072 0.371425
vt 0.555516 0.377144
vt 0.555893 0.373951
vt 0.560010 0.372404
vt 0.564203 0.364265
vt 0.554023 0.298768
vt 0.549023 0.306250
vt 0.548926 0.306504
vt 0.559552 0.297724
vt 0.557045 0.296197
vt 0.557045 0.304185
vt 0.558569 0.304185
vt 0.548892 0.290936
vt 0.821252 0.456395
s 0
usemtl Material
f 165/1/1 4/2/1 166/3/1
f 4/4/2 167/5/2 166/6/2
f 167/5/3 8/7/3 168/8/3
f 8/9/4 169/10/4 168/8/4
f 10/11/5 170/12/5 169/10/5
f 12/13/6 171/14/6 170/15/6
f 14/16/7 24/17/7 16/18/7
f 171/14/8 16/18/8 172/19/8
f 16/20/9 165/1/9 172/19/9
f 3/21/10 15/22/10 1/23/10
f 10/11/11 20/24/11 21/25/11
f 12/13/12 23/26/12 14/16/12
f 24/27/13 26/28/13 18/29/13
f 17/30/14 26/28/14 25/31/14
f 20/32/15 27/33/15 28/34/15
f 6/35/16 17/36/16 19/37/16
f 12/38/17 21/25/17 22/39/17
f 16/20/18 18/40/18 2/41/18
f 2/41/19 17/42/19 4/2/19
f 8/7/20 19/37/20 20/32/20
f 28/34/21 35/43/21 36/44/21
f 29/45/22 38/46/22 30/47/22
f 31/48/23 40/49/23 32/50/23
f 22/51/24 31/48/24 23/26/24
f 21/52/25 28/53/25 29/45/25
f 19/37/26 25/54/26 27/33/26
f 23/26/27 32/50/27 24/17/27
f 21/52/28 30/47/28 22/55/28
f 37/56/29 52/57/29 53/58/29
f 43/59/30 59/60/30 41/61/30
f 36/62/31 51/63/31 52/57/31
f 25/31/32 34/64/32 33/65/32
f 32/66/33 34/64/33 26/28/33
f 30/67/34 39/68/34 31/48/34
f 29/45/35 36/69/35 37/70/35
f 27/33/36 33/71/36 35/43/36
f 41/61/37 44/72/37 43/59/37
f 44/72/38 48/73/38 45/74/38
f 48/73/37 46/75/37 45/74/37
f 41/61/39 60/76/39 42/77/39
f 35/78/40 49/79/40 51/63/40
f 48/73/41 60/76/41 64/80/41
f 33/65/42 50/81/42 49/82/42
f 47/83/43 64/80/43 63/84/43
f 86/85/44 63/86/44 64/87/44
f 83/88/45 61/89/45 84/90/45
f 82/91/46 57/92/46 81/93/46
f 87/94/47 57/92/47 62/95/47
f 84/96/48 58/97/48 82/98/48
f 88/99/49 59/100/49 83/101/49
f 88/99/50 64/87/50 60/102/50
f 85/103/51 62/104/51 63/105/51
f 44/72/52 61/106/52 43/59/52
f 37/56/53 54/107/53 38/108/53
f 45/74/54 58/109/54 44/72/54
f 38/110/55 55/111/55 39/68/55
f 45/74/56 62/95/56 57/92/56
f 39/68/57 56/112/57 40/49/57
f 46/75/58 63/84/58 62/95/58
f 40/113/59 50/81/59 34/64/59
f 72/114/60 1/115/60 15/116/60
f 71/117/61 15/116/61 13/118/61
f 11/119/62 71/120/62 13/121/62
f 9/122/63 70/123/63 11/119/63
f 7/124/64 69/125/64 9/126/64
f 5/127/65 68/128/65 7/124/65
f 66/129/66 5/130/66 3/131/66
f 65/132/67 3/131/67 1/133/67
f 80/134/68 65/135/68 72/136/68
f 71/137/69 80/134/69 72/136/69
f 78/138/70 71/137/70 70/139/70
f 69/140/71 78/141/71 70/123/71
f 68/128/72 77/142/72 69/125/72
f 67/143/73 76/144/73 68/128/73
f 74/145/74 67/146/74 66/129/74
f 73/147/75 66/129/75 65/132/75
f 55/111/76 87/148/76 85/103/76
f 50/81/77 86/85/77 88/99/77
f 50/81/78 83/101/78 49/82/78
f 51/63/79 82/98/79 52/57/79
f 54/149/80 81/93/80 87/94/80
f 52/150/81 81/93/81 53/151/81
f 49/152/82 84/90/82 51/153/82
f 56/154/83 85/155/83 86/85/83
f 96/156/84 145/157/84 149/158/84
f 95/159/85 149/158/85 134/160/85
f 133/161/86 95/159/86 134/160/86
f 132/162/87 94/163/87 133/164/87
f 148/165/88 93/166/88 132/167/88
f 147/168/89 92/169/89 148/165/89
f 146/170/90 91/171/90 147/172/90
f 145/173/91 90/174/91 146/170/91
f 104/175/92 113/176/92 120/177/92
f 103/178/93 120/179/93 119/180/93
f 102/181/94 119/180/94 118/182/94
f 117/183/95 102/184/95 118/185/95
f 100/186/96 117/183/96 116/187/96
f 115/188/97 100/189/97 116/190/97
f 98/191/98 115/188/98 114/192/98
f 113/176/99 98/193/99 114/194/99
f 13/195/10 5/196/10 11/197/10
f 11/197/10 7/198/10 9/199/10
f 112/200/100 90/174/100 89/201/100
f 105/202/101 91/171/101 90/174/101
f 91/203/102 107/204/102 92/169/102
f 92/169/103 108/205/103 93/166/103
f 93/206/104 109/207/104 94/163/104
f 94/208/105 110/209/105 95/159/105
f 110/209/106 96/156/106 95/159/106
f 111/210/107 89/201/107 96/211/107
f 123/212/108 121/213/108 128/214/108
f 117/215/109 115/216/109 116/217/109
f 107/218/110 121/219/110 108/220/110
f 117/183/111 124/221/111 123/222/111
f 118/182/112 125/223/112 124/224/112
f 125/223/113 120/179/113 126/225/113
f 126/226/114 113/176/114 127/227/114
f 121/219/115 105/228/115 112/229/115
f 121/213/116 127/230/116 128/214/116
f 122/231/117 114/232/117 115/216/117
f 128/214/118 113/233/118 122/234/118
f 111/210/119 127/227/119 112/200/119
f 110/235/120 126/225/120 111/236/120
f 124/224/121 110/235/121 109/237/121
f 123/238/122 109/237/122 108/239/122
f 117/240/123 128/214/123 122/234/123
f 130/241/124 157/242/124 129/243/124
f 131/244/125 163/245/125 161/246/125
f 139/247/126 160/248/126 163/249/126
f 148/165/127 140/250/127 150/251/127
f 140/252/128 133/164/128 141/253/128
f 141/254/129 134/160/129 142/255/129
f 142/255/130 149/158/130 151/256/130
f 136/257/131 157/242/131 156/258/131
f 151/259/132 73/260/132 80/261/132
f 79/262/133 151/256/133 80/263/133
f 141/254/134 79/262/134 78/264/134
f 77/265/135 141/253/135 78/266/135
f 150/251/136 77/267/136 76/268/136
f 153/269/137 76/268/137 75/270/137
f 154/271/138 75/272/138 74/273/138
f 73/260/139 154/271/139 74/273/139
f 136/257/140 146/170/140 129/243/140
f 129/243/141 147/172/141 130/241/141
f 130/274/142 148/165/142 131/275/142
f 136/276/143 149/158/143 145/157/143
f 131/275/144 150/251/144 139/247/144
f 143/277/145 149/158/145 135/278/145
f 143/279/146 144/280/146 151/259/146
f 138/281/147 150/251/147 153/269/147
f 137/282/148 153/283/148 154/271/148
f 137/282/149 144/280/149 152/284/149
f 155/285/150 157/242/150 158/286/150
f 158/286/151 159/287/151 160/288/151
f 159/289/152 163/249/152 160/248/152
f 164/290/153 156/258/153 155/285/153
f 138/291/154 158/286/154 160/288/154
f 135/292/155 164/290/155 143/279/155
f 131/293/156 159/294/156 130/295/156
f 152/296/157 158/297/157 137/298/157
f 143/299/158 155/300/158 152/301/158
f 135/302/159 156/303/159 162/304/159
f 172/19/160 97/305/160 104/175/160
f 103/178/8 172/19/8 104/306/8
f 170/15/6 103/178/6 102/181/6
f 101/307/161 170/12/161 102/184/161
f 168/8/162 101/307/162 100/186/162
f 99/308/163 168/8/163 100/189/163
f 166/6/164 99/308/164 98/191/164
f 97/305/165 166/3/165 98/193/165
f 189/309/166 197/310/166 198/311/166
f 203/312/167 192/313/167 201/314/167
f 201/315/168 193/316/168 200/317/168
f 204/318/169 189/319/169 198/320/169
f 177/321/170 212/322/170 179/323/170
f 183/324/171 174/325/171 188/326/171
f 184/327/171 178/328/171 180/329/171
f 184/327/171 188/326/171 187/330/171
f 181/331/172 212/332/172 207/333/172
f 185/334/173 210/335/173 206/336/173
f 193/316/174 202/337/174 200/317/174
f 196/338/175 204/318/175 202/339/175
f 190/340/167 199/341/167 197/342/167
f 195/343/167 203/312/167 199/341/167
f 176/344/176 189/345/176 174/325/176
f 180/329/177 191/346/177 184/327/177
f 180/329/178 193/347/178 192/348/178
f 188/326/179 189/345/179 194/349/179
f 176/344/177 195/350/177 190/351/177
f 183/324/177 191/346/177 195/350/177
f 187/330/180 193/347/180 178/328/180
f 188/326/181 196/352/181 187/330/181
f 175/353/182 198/354/182 197/355/182
f 175/353/182 199/356/182 182/357/182
f 179/358/182 200/359/182 177/360/182
f 186/361/182 200/359/182 202/362/182
f 179/358/182 203/363/182 201/364/182
f 182/357/182 203/363/182 181/365/182
f 185/366/182 198/354/182 173/367/182
f 185/366/182 202/362/182 204/368/182
f 207/369/183 211/370/183 208/371/183
f 205/372/182 210/373/182 209/374/182
f 207/369/182 206/375/182 205/372/182
f 173/321/184 209/376/184 210/377/184
f 186/378/185 206/336/185 208/379/185
f 181/331/186 205/380/186 182/381/186
f 177/382/187 208/379/187 211/383/187
f 182/381/188 209/384/188 175/385/188
f 165/1/189 2/41/189 4/2/189
f 4/4/190 6/35/190 167/5/190
f 167/5/191 6/35/191 8/7/191
f 8/9/192 10/11/192 169/10/192
f 10/11/193 12/38/193 170/12/193
f 12/13/6 14/16/6 171/14/6
f 14/16/194 23/26/194 24/17/194
f 171/14/8 14/16/8 16/18/8
f 16/20/195 2/41/195 165/1/195
f 3/21/10 13/195/10 15/22/10
f 10/11/196 8/9/196 20/24/196
f 12/13/197 22/51/197 23/26/197
f 24/27/198 32/66/198 26/28/198
f 17/30/199 18/29/199 26/28/199
f 20/32/200 19/37/200 27/33/200
f 6/35/201 4/4/201 17/36/201
f 12/38/202 10/11/202 21/25/202
f 16/20/203 24/386/203 18/40/203
f 2/41/204 18/40/204 17/42/204
f 8/7/205 6/35/205 19/37/205
f 28/34/206 27/33/206 35/43/206
f 29/45/207 37/70/207 38/46/207
f 31/48/208 39/68/208 40/49/208
f 22/51/209 30/67/209 31/48/209
f 21/52/210 20/387/210 28/53/210
f 19/37/211 17/36/211 25/54/211
f 23/26/212 31/48/212 32/50/212
f 21/52/213 29/45/213 30/47/213
f 37/56/214 36/62/214 52/57/214
f 43/59/215 61/106/215 59/60/215
f 36/62/216 35/78/216 51/63/216
f 25/31/217 26/28/217 34/64/217
f 32/66/218 40/113/218 34/64/218
f 30/67/219 38/110/219 39/68/219
f 29/45/220 28/53/220 36/69/220
f 27/33/221 25/54/221 33/71/221
f 41/61/37 42/77/37 44/72/37
f 44/72/38 42/77/38 48/73/38
f 48/73/38 47/83/38 46/75/38
f 41/61/222 59/60/222 60/76/222
f 35/78/223 33/388/223 49/79/223
f 48/73/224 42/77/224 60/76/224
f 33/65/225 34/64/225 50/81/225
f 47/83/226 48/73/226 64/80/226
f 86/85/227 85/155/227 63/86/227
f 83/88/228 59/389/228 61/89/228
f 82/91/229 58/109/229 57/92/229
f 87/94/230 81/93/230 57/92/230
f 84/96/231 61/390/231 58/97/231
f 88/99/232 60/102/232 59/100/232
f 88/99/233 86/85/233 64/87/233
f 85/103/234 87/148/234 62/104/234
f 44/72/235 58/109/235 61/106/235
f 37/56/236 53/58/236 54/107/236
f 45/74/237 57/92/237 58/109/237
f 38/110/238 54/391/238 55/111/238
f 45/74/239 46/75/239 62/95/239
f 39/68/240 55/111/240 56/112/240
f 46/75/241 47/83/241 63/84/241
f 40/113/242 56/154/242 50/81/242
f 72/114/60 65/392/60 1/115/60
f 71/117/61 72/114/61 15/116/61
f 11/119/62 70/123/62 71/120/62
f 9/122/63 69/140/63 70/123/63
f 7/124/64 68/128/64 69/125/64
f 5/127/65 67/143/65 68/128/65
f 66/129/66 67/146/66 5/130/66
f 65/132/67 66/129/67 3/131/67
f 80/134/68 73/393/68 65/135/68
f 71/137/69 79/394/69 80/134/69
f 78/138/70 79/394/70 71/137/70
f 69/140/71 77/395/71 78/141/71
f 68/128/72 76/144/72 77/142/72
f 67/143/73 75/396/73 76/144/73
f 74/145/74 75/397/74 67/146/74
f 73/147/75 74/145/75 66/129/75
f 55/111/243 54/391/243 87/148/243
f 50/81/244 56/154/244 86/85/244
f 50/81/245 88/99/245 83/101/245
f 51/63/246 84/96/246 82/98/246
f 54/149/247 53/151/247 81/93/247
f 52/150/248 82/91/248 81/93/248
f 49/152/249 83/88/249 84/90/249
f 56/154/250 55/398/250 85/155/250
f 96/156/251 89/399/251 145/157/251
f 95/159/252 96/156/252 149/158/252
f 133/161/253 94/208/253 95/159/253
f 132/162/254 93/206/254 94/163/254
f 148/165/255 92/169/255 93/166/255
f 147/168/256 91/203/256 92/169/256
f 146/170/257 90/174/257 91/171/257
f 145/173/258 89/201/258 90/174/258
f 104/175/259 97/305/259 113/176/259
f 103/178/260 104/306/260 120/179/260
f 102/181/261 103/178/261 119/180/261
f 117/183/262 101/307/262 102/184/262
f 100/186/263 101/307/263 117/183/263
f 115/188/264 99/308/264 100/189/264
f 98/191/265 99/308/265 115/188/265
f 113/176/266 97/305/266 98/193/266
f 13/195/10 3/21/10 5/196/10
f 11/197/10 5/196/10 7/198/10
f 112/200/267 105/202/267 90/174/267
f 105/202/268 106/400/268 91/171/268
f 91/203/269 106/401/269 107/204/269
f 92/169/270 107/204/270 108/205/270
f 93/206/271 108/402/271 109/207/271
f 94/208/272 109/403/272 110/209/272
f 110/209/273 111/404/273 96/156/273
f 111/210/274 112/200/274 89/201/274
f 123/212/275 108/405/275 121/213/275
f 117/215/276 122/231/276 115/216/276
f 107/218/277 106/406/277 121/219/277
f 117/183/278 118/185/278 124/221/278
f 118/182/279 119/180/279 125/223/279
f 125/223/280 119/180/280 120/179/280
f 126/226/281 120/177/281 113/176/281
f 121/219/282 106/406/282 105/228/282
f 121/213/283 112/407/283 127/230/283
f 122/231/284 113/408/284 114/232/284
f 128/214/285 127/230/285 113/233/285
f 111/210/286 126/226/286 127/227/286
f 110/235/287 125/223/287 126/225/287
f 124/224/288 125/223/288 110/235/288
f 123/238/289 124/224/289 109/237/289
f 117/240/290 123/212/290 128/214/290
f 130/241/291 159/287/291 157/242/291
f 131/244/292 139/409/292 163/245/292
f 139/247/293 138/281/293 160/248/293
f 148/165/294 132/167/294 140/250/294
f 140/252/295 132/162/295 133/164/295
f 141/254/296 133/161/296 134/160/296
f 142/255/297 134/160/297 149/158/297
f 136/257/298 129/243/298 157/242/298
f 151/259/299 144/280/299 73/260/299
f 79/262/300 142/255/300 151/256/300
f 141/254/301 142/255/301 79/262/301
f 77/265/302 140/252/302 141/253/302
f 150/251/303 140/250/303 77/267/303
f 153/269/304 150/251/304 76/268/304
f 154/271/305 153/283/305 75/272/305
f 73/260/306 144/280/306 154/271/306
f 136/257/307 145/173/307 146/170/307
f 129/243/308 146/170/308 147/172/308
f 130/274/309 147/168/309 148/165/309
f 136/276/310 135/278/310 149/158/310
f 131/275/311 148/165/311 150/251/311
f 143/277/312 151/256/312 149/158/312
f 143/279/313 152/284/313 144/280/313
f 138/281/314 139/247/314 150/251/314
f 137/282/315 138/291/315 153/283/315
f 137/282/316 154/271/316 144/280/316
f 155/285/317 156/258/317 157/242/317
f 158/286/318 157/242/318 159/287/318
f 159/289/319 161/410/319 163/249/319
f 164/290/320 162/411/320 156/258/320
f 138/291/321 137/282/321 158/286/321
f 135/292/322 162/411/322 164/290/322
f 131/293/323 161/412/323 159/294/323
f 152/296/324 155/413/324 158/297/324
f 143/299/325 164/414/325 155/300/325
f 135/302/326 136/415/326 156/303/326
f 172/19/327 165/1/327 97/305/327
f 103/178/8 171/14/8 172/19/8
f 170/15/6 171/14/6 103/178/6
f 101/307/328 169/10/328 170/12/328
f 168/8/329 169/10/329 101/307/329
f 99/308/330 167/5/330 168/8/330
f 166/6/331 167/5/331 99/308/331
f 97/305/332 165/1/332 166/3/332
f 189/309/166 190/416/166 197/310/166
f 203/312/167 191/417/167 192/313/167
f 201/315/168 192/418/168 193/316/168
f 204/318/333 194/419/333 189/319/333
f 177/321/170 211/420/170 212/322/170
f 183/324/171 176/344/171 174/325/171
f 184/327/171 187/330/171 178/328/171
f 184/327/171 183/324/171 188/326/171
f 181/331/334 179/421/334 212/332/334
f 185/334/173 173/422/173 210/335/173
f 193/316/335 196/423/335 202/337/335
f 196/338/175 194/419/175 204/318/175
f 190/340/167 195/343/167 199/341/167
f 195/343/167 191/417/167 203/312/167
f 176/344/176 190/351/176 189/345/176
f 180/329/177 192/348/177 191/346/177
f 180/329/178 178/328/178 193/347/178
f 188/326/336 174/325/336 189/345/336
f 176/344/177 183/324/177 195/350/177
f 183/324/177 184/327/177 191/346/177
f 187/330/337 196/352/337 193/347/337
f 188/326/181 194/349/181 196/352/181
f 175/353/182 173/367/182 198/354/182
f 175/353/182 197/355/182 199/356/182
f 179/358/182 201/364/182 200/359/182
f 186/361/182 177/360/182 200/359/182
f 179/358/182 181/365/182 203/363/182
f 182/357/182 199/356/182 203/363/182
f 185/366/182 204/368/182 198/354/182
f 185/366/182 186/361/182 202/362/182
f 207/369/338 212/424/338 211/370/338
f 205/372/182 206/375/182 210/373/182
f 207/369/182 208/371/182 206/375/182
f 173/321/184 175/323/184 209/376/184
f 186/378/185 185/334/185 206/336/185
f 181/331/186 207/333/186 205/380/186
f 177/382/339 186/378/339 208/379/339
f 182/381/340 205/380/340 209/384/340
