# Blender 4.2.1 LTS
# www.blender.org
mtllib leaflet_holder_2.mtl
g leaflet_holder_2_Mesh
v 0.379921 0.185128 0.171281
v 0.397648 1.003807 0.191118
v -0.399905 0.185128 0.127473
v -0.430084 1.003807 0.145200
v 0.401083 0.185128 -0.205436
v 0.421225 1.005058 -0.029520
v -0.378742 0.185128 -0.249244
v -0.417646 1.003807 -0.076226
v -0.394964 0.206366 0.125321
v 0.375252 0.206366 0.168589
v 0.367758 1.003807 0.163387
v -0.397277 1.003807 0.120992
v -0.373202 0.211139 -0.262074
v -0.386297 1.003807 -0.074465
v 0.397014 0.211139 -0.218806
v 0.389877 1.005058 -0.031281
v -0.381925 0.185128 -0.192577
v -0.396556 0.185128 0.067854
v -0.421829 1.003807 -0.001755
v 0.383270 0.185128 0.111662
v 0.397900 0.185128 -0.148770
v 0.417042 1.005058 0.044951
v -0.377449 0.209548 -0.186470
v -0.390696 0.207957 0.049342
v -0.390480 1.003807 0.000006
v 0.379520 0.207957 0.092610
v 0.392767 0.209548 -0.143202
v 0.370142 0.995077 0.040684
v -0.337457 0.185128 0.130981
v 0.317473 0.185128 0.167773
v 0.297848 0.984743 0.179427
v -0.330073 1.003807 0.150819
v 0.338636 0.185128 -0.208944
v -0.316295 0.185128 -0.245736
v -0.318539 0.206366 0.129614
v 0.298827 0.206366 0.164296
v 0.299307 0.984743 0.153457
v -0.328614 1.003807 0.124849
v 0.320589 0.211139 -0.223100
v -0.296777 0.211139 -0.257781
v 0.303095 0.207957 0.088316
v -0.314271 0.207957 0.053635
v 0.316342 0.209548 -0.147495
v -0.301024 0.209548 -0.182176
v -0.334108 0.185128 0.071362
v 0.320822 0.185128 0.108154
v -0.319478 0.185128 -0.189069
v 0.335452 0.185128 -0.152278
v 0.297636 0.185128 0.185500
v 0.397648 0.185128 0.191118
v -0.419742 0.185128 0.145200
v -0.296777 0.185128 -0.257781
v -0.396789 0.185128 -0.263399
v 0.415885 0.185128 -0.133527
v 0.420602 0.185128 -0.217481
v -0.401505 0.185128 -0.179445
v 0.315873 0.185128 -0.139146
v -0.319730 0.185128 0.150819
v 0.320589 0.185128 -0.223100
v -0.301493 0.185128 -0.173827
v 0.317473 0.000000 0.167773
v 0.379921 0.000000 0.171281
v -0.396556 0.000000 0.067854
v -0.399905 0.000000 0.127473
v -0.316295 0.000000 -0.245736
v -0.378742 0.000000 -0.249244
v 0.397900 0.000000 -0.148770
v 0.401083 0.000000 -0.205436
v -0.381925 0.000000 -0.192577
v 0.383270 0.000000 0.111662
v 0.320822 0.000000 0.108154
v 0.335452 0.000000 -0.152278
v -0.337457 0.000000 0.130981
v 0.338636 0.000000 -0.208944
v -0.334108 0.000000 0.071362
v -0.319478 0.000000 -0.189069
v 0.397648 0.583504 0.191118
v -0.419742 0.583504 0.145200
v -0.407118 0.583504 -0.079526
v 0.410272 0.583504 -0.033608
v 0.371505 0.583504 0.165988
v -0.390949 0.583504 0.123156
v -0.379650 0.583504 -0.077983
v 0.382804 0.583504 -0.035151
v 0.378435 0.583504 0.042620
v 0.375639 0.583504 0.092392
v 0.405903 0.583504 0.044163
v -0.386815 0.583504 0.049560
v -0.384019 0.583504 -0.000212
v -0.411487 0.583504 -0.001755
v 0.298961 0.583504 0.161913
v -0.318405 0.583504 0.127232
v 0.297636 0.583504 0.185500
v -0.319730 0.583504 0.150819
v 0.397648 0.621226 0.191118
v 0.371310 0.621226 0.165853
v 0.385113 0.621226 -0.079841
v 0.375437 0.621226 0.092380
v -0.386613 0.621226 0.049571
v -0.376939 0.621226 -0.122651
v 0.298968 0.621226 0.161789
v -0.318398 0.621226 0.127108
v -0.419742 0.621226 0.145200
v -0.400372 0.621226 -0.199615
v 0.417018 0.621226 -0.153697
v -0.390741 0.621226 0.123044
v -0.372702 0.621226 -0.198061
v 0.389349 0.621226 -0.155252
v 0.412782 0.621226 -0.078287
v -0.404608 0.621226 -0.124205
v 0.297636 0.621226 0.185500
v -0.319730 0.621226 0.150819
v 0.397648 0.650248 0.191118
v 0.371199 0.811384 0.165776
v 0.385011 0.650248 -0.080092
v -0.376809 0.650248 -0.122888
v 0.298972 0.811384 0.161718
v -0.318394 0.811384 0.127037
v -0.419742 0.650248 0.145200
v -0.400372 0.650248 -0.199615
v 0.417018 0.650248 -0.153697
v -0.390621 0.811384 0.122979
v -0.372587 0.650248 -0.198054
v 0.389233 0.650248 -0.155258
v 0.412796 0.650248 -0.078531
v -0.404594 0.650248 -0.124449
v 0.297636 0.650248 0.185500
v -0.319730 0.650248 0.150819
v -0.419675 1.003807 -0.040100
v 0.418508 0.185128 -0.180223
v -0.388326 1.003807 -0.038339
v 0.394921 0.210343 -0.181548
v -0.398882 0.185128 -0.226140
v 0.419196 1.005058 0.006605
v -0.375294 0.210343 -0.224815
v 0.387847 1.005058 0.004844
v -0.298870 0.210343 -0.220522
v 0.318496 0.210343 -0.185841
v -0.298870 0.185128 -0.220522
v 0.318496 0.185128 -0.185841
v 0.399726 0.185128 -0.181278
v -0.380100 0.185128 -0.225085
v -0.317652 0.185128 -0.221577
v 0.337279 0.185128 -0.184786
v 0.399726 0.000000 -0.181278
v -0.380100 0.000000 -0.225085
v -0.317652 0.000000 -0.221577
v 0.337279 0.000000 -0.184786
v 0.408057 0.583504 0.005817
v 0.380589 0.583504 0.004274
v -0.381865 0.583504 -0.038557
v -0.409333 0.583504 -0.040100
v 0.414940 0.621226 -0.116694
v 0.387270 0.621226 -0.118248
v -0.374781 0.621226 -0.161058
v -0.402450 0.621226 -0.162612
v 0.414946 0.650248 -0.116816
v 0.387161 0.650248 -0.118377
v -0.374659 0.650248 -0.161173
v -0.402444 0.650248 -0.162734
v 0.314964 0.621226 -0.122310
v 0.303099 0.621226 0.088317
v 0.312802 0.621226 -0.083904
v -0.305518 0.621226 -0.118639
v -0.314510 0.621226 0.053622
v -0.303481 0.621226 -0.157052
v -0.303399 0.650248 -0.157170
v 0.314938 0.650210 -0.122434
v 0.312789 0.650248 -0.084149
v -0.305434 0.650248 -0.118879
v 0.314049 0.671072 -0.106528
v 0.386268 0.680253 -0.102471
v 0.312789 0.671072 -0.084149
v 0.385011 0.680253 -0.080092
v -0.375552 0.721916 -0.145267
v -0.376809 0.721916 -0.122888
v -0.304292 0.721916 -0.141264
v -0.305434 0.721916 -0.118879
v 0.315492 0.621186 -0.131718
v 0.387799 0.621186 -0.127656
v 0.315471 0.650209 -0.131842
v 0.387690 0.650209 -0.127785
v -0.374253 0.621186 -0.170465
v -0.374130 0.650209 -0.170581
v -0.302953 0.621186 -0.166460
v -0.302870 0.650209 -0.166578
v 0.378685 0.811317 0.032519
v 0.378095 0.817118 0.043018
v 0.382829 0.770555 -0.041261
v 0.382210 0.776643 -0.030242
v -0.378991 0.733482 -0.084057
v -0.383136 0.811317 -0.010278
v 0.373970 0.857606 0.116455
v 0.374510 0.852375 0.106835
v -0.424350 1.003807 0.043122
v -0.424900 1.003807 0.052917
v 0.409558 0.996328 0.097905
v 0.410108 0.996328 0.088110
v -0.393550 1.003807 0.054643
v -0.393004 1.003807 0.044922
v 0.364662 0.984365 0.082035
v 0.364116 0.984365 0.091756
v -0.414004 0.185128 0.043051
v -0.414562 0.185128 0.052981
v 0.403386 0.185128 0.088969
v 0.402828 0.185128 0.098899
v 0.302813 0.185128 0.093339
v 0.303375 0.185128 0.083346
v -0.313992 0.185128 0.048665
v -0.314553 0.185128 0.058657
v 0.403386 0.583504 0.088978
v 0.402829 0.583504 0.098892
v -0.414562 0.583504 0.052974
v -0.414005 0.583504 0.043060
v 0.403385 0.621226 0.088991
v 0.402829 0.621226 0.098880
v -0.414561 0.621226 0.052962
v -0.414005 0.621226 0.043074
v 0.375052 0.774682 0.097190
v -0.386769 0.774682 0.054394
v 0.403384 0.650248 0.089012
v 0.402830 0.650248 0.098861
v -0.414560 0.650248 0.052943
v -0.414006 0.650248 0.043094
v -0.314224 0.769467 0.048848
v -0.314733 0.774666 0.058412
v -0.405741 0.185128 -0.104037
v -0.406323 0.185128 -0.093682
v -0.409869 0.185128 -0.030551
v -0.410445 0.185128 -0.020292
v -0.423967 1.003807 0.036301
v -0.423419 1.003807 0.026552
v -0.423027 1.003807 0.019566
v -0.422495 1.003807 0.010106
v 0.406945 0.185128 0.025626
v 0.407521 0.185128 0.015367
v 0.411067 0.185128 -0.047764
v 0.411649 0.185128 -0.058119
v 0.416375 1.005058 0.056812
v 0.415844 1.005058 0.066271
v 0.415452 1.005058 0.073258
v 0.414904 1.005058 0.083007
v -0.392076 1.003807 0.028414
v -0.392613 1.003807 0.037961
v -0.391154 1.003807 0.011998
v -0.391671 1.003807 0.021196
v 0.365995 0.984365 0.058310
v 0.366512 0.984365 0.049111
v 0.365053 0.984365 0.075074
v 0.365589 0.984365 0.065527
v -0.306310 0.185128 -0.088075
v -0.305730 0.185128 -0.098408
v -0.310433 0.185128 -0.014681
v -0.309858 0.185128 -0.024925
v 0.311636 0.185128 -0.063726
v 0.311056 0.185128 -0.053394
v 0.307508 0.185128 0.009756
v 0.306933 0.185128 0.020000
v -0.413062 0.583504 0.026282
v -0.413640 0.583504 0.036571
v -0.412127 0.583504 0.009641
v -0.412711 0.583504 0.020031
v 0.404680 0.583504 0.065949
v 0.405263 0.583504 0.055559
v 0.403750 0.583504 0.082489
v 0.404328 0.583504 0.072200
v -0.409874 0.621226 -0.030465
v -0.410441 0.621226 -0.020378
v -0.405756 0.621226 -0.103775
v -0.406308 0.621226 -0.093945
v 0.411082 0.621226 -0.048027
v 0.411634 0.621226 -0.057857
v 0.406949 0.621226 0.025539
v 0.407516 0.621226 0.015453
v -0.410432 0.650248 -0.020539
v -0.409874 0.650248 -0.030466
v -0.406295 0.650248 -0.094184
v -0.405751 0.650248 -0.103862
v -0.378547 0.693911 -0.091952
v -0.382663 0.734386 -0.018692
v 0.411639 0.650248 -0.057944
v 0.411095 0.650248 -0.048266
v 0.407516 0.650248 0.015451
v 0.406958 0.650248 0.025379
v 0.379157 0.734386 0.024104
v 0.379747 0.728585 0.013605
v 0.383273 0.693911 -0.049156
v 0.311664 0.687868 -0.064150
v -0.310839 0.734351 -0.014721
v -0.310287 0.728620 -0.025096
v -0.419742 0.450760 0.145200
v -0.407118 0.450760 -0.079526
v 0.414687 0.449303 -0.034560
v -0.392956 0.450760 0.124239
v -0.381591 0.450760 -0.078092
v 0.389160 0.449303 -0.035994
v 0.410440 0.449303 0.041052
v -0.411366 0.450760 -0.003915
v 0.297636 0.450760 0.185500
v -0.319730 0.450760 0.150819
v 0.397648 0.450760 0.191118
v 0.373379 0.450760 0.167289
v 0.380497 0.450760 0.040569
v 0.374698 0.450760 0.143800
v -0.391637 0.450760 0.100750
v -0.385838 0.450760 -0.002481
v 0.298894 0.450760 0.163104
v -0.318472 0.450760 0.128423
v -0.409211 0.450760 -0.042260
v -0.383684 0.450760 -0.040826
v 0.387067 0.449303 0.001272
v 0.412594 0.449303 0.002706
v 0.399947 0.450760 0.150194
v 0.400504 0.450760 0.140272
v -0.416886 0.450760 0.094354
v -0.417444 0.450760 0.104276
v 0.408470 0.449303 0.076112
v 0.409053 0.449303 0.065740
v 0.401529 0.450760 0.122029
v 0.402106 0.450760 0.111755
v -0.415284 0.450760 0.065837
v -0.415861 0.450760 0.076111
v -0.412752 0.450760 0.020773
v -0.413335 0.450760 0.031146
v 0.397648 0.907727 0.191118
v 0.369478 0.907727 0.164582
v 0.376090 0.907727 0.046882
v -0.382166 0.907727 0.004286
v 0.277522 0.944494 0.171600
v -0.318333 0.907727 0.125943
v -0.419742 0.907727 0.145200
v -0.407304 0.907727 -0.076226
v 0.410087 0.907727 -0.030308
v -0.388778 0.907727 0.121986
v -0.377737 0.907727 -0.074565
v 0.380520 0.907727 -0.031969
v 0.405657 0.907727 0.048543
v -0.411733 0.907727 0.002625
v 0.276124 0.944494 0.196476
v -0.319730 0.907727 0.150819
v 0.407809 0.907727 0.010228
v 0.378243 0.907727 0.008567
v -0.380014 0.907727 -0.034029
v -0.409580 0.907727 -0.035690
v 0.370387 0.907727 0.148413
v 0.370930 0.907727 0.138743
v -0.387326 0.907727 0.096147
v -0.387870 0.907727 0.105817
v 0.399949 0.907727 0.150147
v 0.400501 0.907727 0.140325
v -0.416889 0.907727 0.094407
v -0.417441 0.907727 0.104229
v -0.415294 0.907727 0.066014
v -0.415847 0.907727 0.075852
v -0.412771 0.907727 0.021094
v -0.413308 0.907727 0.030663
v -0.385722 0.907727 0.067582
v -0.386285 0.907727 0.077606
v -0.383188 0.907727 0.022484
v -0.383756 0.907727 0.032593
v 0.404082 0.907727 0.076580
v 0.404619 0.907727 0.067012
v 0.401543 0.907727 0.121770
v 0.402096 0.907727 0.111932
v 0.374500 0.907727 0.075190
v 0.375068 0.907727 0.065080
v 0.371971 0.907727 0.120202
v 0.372535 0.907727 0.110178
v -0.419742 0.292820 0.145200
v -0.396789 0.292820 -0.263399
v 0.420602 0.292820 -0.217481
v -0.394102 0.292820 0.124857
v -0.372369 0.292820 -0.262027
v 0.396181 0.292820 -0.218853
v 0.416197 0.292820 -0.139079
v -0.401193 0.292820 -0.184997
v 0.297636 0.292820 0.185500
v -0.319730 0.292820 0.150819
v -0.399039 0.292820 -0.223343
v 0.418351 0.292820 -0.177425
v 0.401592 0.292820 0.120913
v -0.415241 0.292820 0.065069
v 0.408058 0.292820 0.005808
v 0.404620 0.292820 0.066999
v -0.412193 0.292820 0.010816
v -0.408750 0.292820 -0.050472
v 0.397648 0.292820 0.191118
v 0.374448 0.292820 0.168031
v 0.391777 0.292820 -0.140451
v 0.377450 0.292820 0.114579
v -0.391100 0.292820 0.071405
v -0.376773 0.292820 -0.183625
v 0.298856 0.292820 0.163784
v -0.318510 0.292820 0.129103
v -0.374619 0.292820 -0.221971
v 0.393931 0.292820 -0.178797
v 0.402149 0.292820 0.110987
v -0.415798 0.292820 0.074995
v 0.408640 0.292820 -0.004554
v 0.405197 0.292820 0.056734
v -0.412770 0.292820 0.021082
v -0.409332 0.292820 -0.040110
v -0.419742 0.752448 0.145200
v -0.400372 0.752448 -0.199615
v 0.417018 0.752448 -0.153697
v -0.390075 0.752448 0.122685
v -0.372059 0.752448 -0.198025
v 0.388705 0.752448 -0.155288
v 0.412521 0.752448 -0.073644
v -0.404869 0.752448 -0.119562
v 0.297636 0.752448 0.185500
v -0.319730 0.752448 0.150819
v 0.414672 0.752448 -0.111938
v -0.402718 0.752448 -0.157856
v 0.374211 0.752448 0.102735
v -0.387095 0.752448 0.069633
v 0.401977 0.752448 0.114060
v -0.414860 0.752448 0.058301
v -0.411480 0.752448 -0.001874
v -0.407831 0.752448 -0.066831
v -0.383736 0.752448 0.009846
v -0.380091 0.752448 -0.055043
v 0.409017 0.752448 -0.011267
v 0.405354 0.752448 0.053945
v 0.381277 0.752448 -0.023055
v 0.377610 0.752448 0.042225
v 0.397648 0.752448 0.191118
v 0.370689 0.752448 0.165422
v 0.384208 0.752448 -0.075235
v -0.376556 0.752448 -0.117972
v 0.298990 0.752448 0.161394
v -0.318376 0.752448 0.126713
v 0.386359 0.752448 -0.113528
v -0.374405 0.752448 -0.156265
v 0.373669 0.752448 0.112370
v -0.386554 0.752448 0.059998
v 0.402529 0.752448 0.104219
v -0.415414 0.752448 0.068142
v -0.412036 0.752448 0.008027
v -0.408373 0.752448 -0.057185
v -0.383154 0.752448 -0.000512
v -0.379487 0.752448 -0.065792
v 0.409559 0.752448 -0.020913
v 0.405910 0.752448 0.044044
v 0.380673 0.752448 -0.012306
v 0.377028 0.752448 0.052583
v 0.382829 0.756081 -0.041261
v 0.382210 0.762169 -0.030242
v 0.310601 0.766782 -0.045236
v 0.309991 0.776598 -0.034381
v 0.306456 0.811352 0.028524
v 0.305873 0.817083 0.038897
v -0.379610 0.739570 -0.073038
v -0.070870 0.759336 -0.079954
v -0.071448 0.765334 -0.069098
v -0.383725 0.817118 0.000222
v -0.311349 0.811352 -0.006182
v -0.311902 0.817083 0.004193
v -0.315816 0.857591 0.077677
v -0.315306 0.852391 0.068114
v 0.301744 0.845424 0.112369
v 0.302281 0.840224 0.102807
v -0.387310 0.852375 0.064038
v -0.387851 0.857606 0.073659
v 0.375592 0.769450 0.087570
v -0.386228 0.769450 0.044773
v 0.303363 0.769467 0.083542
v 0.302826 0.774666 0.093104
v -0.377928 0.687823 -0.102971
v -0.382073 0.728585 -0.029192
v 0.383892 0.687823 -0.060175
v 0.306935 0.734351 0.019983
v 0.307518 0.728620 0.009610
v 0.311054 0.693866 -0.053295
v -0.306937 0.693866 -0.088012
v -0.306359 0.687868 -0.098868
v 0.378685 0.312972 0.032519
v 0.378095 0.318773 0.043018
v 0.382829 0.251482 -0.041261
v 0.382210 0.257570 -0.030242
v 0.310601 0.249242 -0.045236
v 0.309991 0.255239 -0.034381
v 0.306456 0.313007 0.028524
v 0.305873 0.318738 0.038897
v -0.379610 0.278298 -0.073038
v -0.378991 0.272210 -0.084057
v -0.307421 0.272256 -0.079954
v -0.307999 0.278253 -0.069098
v -0.383725 0.318773 0.000222
v -0.383136 0.312972 -0.010278
v -0.311349 0.313007 -0.006182
v -0.311902 0.318738 0.004193
v -0.315816 0.304893 0.077677
v -0.315306 0.299693 0.068114
v 0.301744 0.359246 0.112369
v 0.302281 0.354046 0.102807
v -0.387310 0.290723 0.064038
v -0.387851 0.295955 0.073659
v 0.373970 0.359261 0.116455
v 0.374510 0.354030 0.106835
v 0.375592 0.271105 0.087570
v 0.375052 0.276337 0.097190
v -0.386769 0.276337 0.054394
v -0.386228 0.271105 0.044773
v 0.303363 0.271122 0.083542
v 0.302826 0.276321 0.093104
v -0.314224 0.271122 0.048848
v -0.314733 0.276321 0.058412
v -0.377928 0.189478 -0.102971
v -0.378547 0.195566 -0.091952
v -0.382073 0.230240 -0.029192
v -0.382663 0.236041 -0.018692
v 0.379157 0.236041 0.024104
v 0.379747 0.230240 0.013605
v 0.383273 0.195566 -0.049156
v 0.383892 0.189478 -0.060175
v 0.306935 0.236006 0.019983
v 0.307518 0.230275 0.009610
v 0.311054 0.195520 -0.053295
v 0.311664 0.189523 -0.064150
v -0.310839 0.236006 -0.014721
v -0.310287 0.230275 -0.025096
v -0.306937 0.195520 -0.088012
v -0.306359 0.189523 -0.098868
vn -0.0561 -0.0060 0.9984
vn -0.9927 -0.1069 -0.0558
vn 0.9945 0.0885 0.0559
vn -0.3654 0.6112 0.7021
vn -0.9984 -0.0000 -0.0561
vn 0.0561 -0.0054 -0.9984
vn -0.9909 -0.1222 -0.0557
vn -0.0012 0.9998 0.0213
vn 0.9956 -0.0750 0.0559
vn 0.0561 0.0017 -0.9984
vn 0.0561 -0.0000 -0.9984
vn -0.0000 1.0000 -0.0000
vn -0.0000 -1.0000 -0.0000
vn 0.9945 0.0886 0.0559
vn -0.0012 0.9998 0.0209
vn -0.0004 1.0000 0.0067
vn -0.9021 0.0727 -0.4254
vn 0.9984 -0.0000 0.0561
vn -0.2071 0.9782 -0.0116
vn 0.9919 -0.1140 0.0557
vn -0.8654 -0.0939 -0.4922
vn -0.2081 0.9520 0.2243
vn 0.0303 0.9995 0.0017
vn 0.1462 -0.0097 -0.9892
vn 0.0284 -0.4235 -0.9054
vn 0.1387 0.3219 0.9366
vn -0.0759 -0.0082 0.9971
vn -0.0561 -0.0000 0.9984
vn 0.0561 -0.0090 -0.9984
vn 0.9983 -0.0146 0.0561
vn 0.9979 0.0324 0.0561
vn -0.9983 -0.0146 -0.0561
vn -0.9856 -0.0439 -0.1632
vn 0.0168 -0.9542 -0.2988
vn 0.0561 0.0089 -0.9984
vn 0.0561 -0.0033 -0.9984
vn 0.9984 -0.0001 0.0561
vn 0.9984 -0.0054 0.0561
vn -0.9984 -0.0054 -0.0561
vn -0.9984 -0.0053 -0.0561
vn 0.9984 -0.0053 0.0561
vn 0.0264 0.8820 -0.4705
vn -0.9984 0.0040 -0.0561
vn -0.0099 0.4681 -0.8836
vn 0.0271 0.8756 -0.4822
vn 0.9984 -0.0040 0.0561
vn -0.9984 -0.0040 -0.0561
vn -0.9973 -0.0469 -0.0560
vn -0.0012 0.9998 0.0207
vn -0.9938 0.0959 -0.0558
vn 0.0002 1.0000 -0.0042
vn -0.1257 0.9920 -0.0071
vn 0.0817 0.9966 0.0046
vn 0.0446 0.6069 -0.7935
vn 0.0548 0.2170 -0.9746
vn 0.0561 -0.0042 -0.9984
vn -0.0005 1.0000 -0.0002
vn 0.0003 1.0000 -0.0042
vn -0.0002 -1.0000 0.0042
vn 0.9984 0.0040 0.0561
vn 0.0495 0.4700 -0.8813
vn 0.0495 0.4689 -0.8819
vn 0.0502 0.4700 -0.8812
vn 0.9984 0.0001 0.0561
vn -0.9984 -0.0001 -0.0561
vn -0.9975 -0.0368 0.0607
vn -0.3804 0.9246 -0.0214
vn 0.9841 0.0355 0.1743
vn -0.9909 -0.1222 -0.0556
vn 0.0662 0.9952 -0.0714
vn -0.2528 0.9674 -0.0142
vn -0.9984 -0.0000 -0.0560
vn 0.9980 -0.0278 0.0561
vn -0.9982 0.0207 -0.0561
vn 0.9984 -0.0070 0.0561
vn 0.0561 -0.0043 -0.9984
vn -0.9984 -0.0070 -0.0561
vn 0.0365 0.7600 -0.6489
vn -0.9984 -0.0081 -0.0561
vn 0.9919 -0.1140 0.0558
vn 0.9984 -0.0081 0.0561
vn -0.9927 -0.1068 -0.0557
vn 0.0561 0.0060 -0.9984
vn -0.0560 -0.0632 0.9964
vn 0.0560 0.0592 -0.9967
vn 0.0561 -0.0050 -0.9984
vn 0.0439 0.6227 -0.7812
vn 0.0561 -0.0059 -0.9984
vn 0.9984 -0.0098 0.0561
vn 0.9984 -0.0096 0.0561
vn -0.9984 -0.0100 -0.0562
vn -0.9984 -0.0101 -0.0563
vn -0.9984 -0.0098 -0.0563
vn 0.9984 -0.0101 0.0561
vn 0.9984 -0.0100 0.0561
vn -0.9984 -0.0102 -0.0563
vn 0.9984 -0.0000 0.0560
vn 0.0365 0.7591 -0.6500
vn 0.9984 -0.0052 0.0561
vn -0.0561 -0.0055 0.9984
vn -0.9980 -0.0293 -0.0561
vn -0.9984 -0.0090 -0.0561
vn -0.9984 -0.0052 -0.0561
vn -0.9979 -0.0311 -0.0561
vn -0.9990 -0.0057 -0.0454
vn 0.9977 -0.0174 0.0654
vn 0.9984 -0.0082 0.0561
vn -0.9987 -0.0139 -0.0485
vn 0.9982 -0.0222 0.0561
vn 0.9975 -0.0209 0.0674
vn -0.9988 -0.0209 -0.0447
vn 0.9936 -0.0655 0.0920
vn 0.9980 -0.0120 0.0627
vn -0.9987 -0.0120 -0.0495
vn -0.9977 -0.0656 -0.0198
vn -0.1195 0.8694 -0.4795
vn 0.0554 0.2232 -0.9732
vn -0.0510 -0.3832 0.9222
vn -0.1001 -0.2230 0.9697
vn 0.0550 0.2266 -0.9724
vn -0.0559 -0.0792 0.9953
vn -0.0543 -0.2266 0.9725
vn 0.0440 0.8787 -0.4754
vn 0.0268 0.8788 -0.4764
vn -0.0667 0.8719 -0.4852
vn 0.0390 0.7422 -0.6690
vn 0.1841 0.7342 -0.6535
vn 0.0531 0.2674 -0.9621
vn 0.0547 0.2232 -0.9732
vn -0.0554 -0.2232 0.9732
vn -0.0547 -0.2232 0.9732
vn -0.0539 -0.2232 0.9733
vn -0.0591 -0.2266 0.9722
vn -0.0544 -0.2631 0.9632
vn 0.0539 0.2232 -0.9733
vn 0.0541 0.2631 -0.9633
vn 0.0836 0.2333 -0.9688
vn 0.0162 0.2265 -0.9739
vn -0.0118 0.2918 -0.9564
vn -0.0537 -0.2232 0.9733
vn -0.0544 -0.3024 0.9516
vn -0.0226 0.5583 -0.8293
vn -0.0630 -0.2232 0.9727
vn -0.0399 -0.7012 0.7118
vn -0.0502 0.8763 -0.4791
vn -0.0817 0.8736 -0.4797
vn 0.0596 0.8752 -0.4802
vn -0.0005 0.8753 -0.4836
vn 0.0435 0.2922 -0.9554
vn -0.0465 -0.5597 0.8274
vn -0.0550 -0.2266 0.9724
vn 0.0347 0.2266 -0.9734
vn 0.0535 0.3024 -0.9517
vn 0.0543 0.2266 -0.9725
vn 0.0557 0.2232 -0.9732
vn 0.3939 0.2929 0.8712
vn -0.2194 0.9625 0.1597
vn -0.9959 -0.0718 -0.0559
vn -0.3717 0.6485 0.6643
vn 0.9911 -0.0313 0.1292
vn -0.2662 0.9638 -0.0150
vn -0.1960 -0.3128 -0.9294
vn 0.0766 -0.0032 -0.9971
vn -0.1164 -0.0000 0.9932
vn -0.0294 0.4033 0.9146
vn 0.0443 0.6069 -0.7935
vn 0.9979 0.0324 0.0560
vn 0.0817 0.9966 0.0042
vn 0.0725 0.2170 -0.9735
vn -0.0000 1.0000 -0.0002
vn 0.0488 0.4700 -0.8813
vn -0.9983 -0.0186 -0.0561
vn 0.9945 0.0885 0.0558
vn -0.2156 0.9451 -0.2456
vn 0.9832 -0.0425 0.1773
vn -0.9781 0.1228 -0.1681
vn -0.0764 -0.0000 0.9971
vn 0.0277 -0.0539 0.9982
vn 0.0767 -0.0050 -0.9970
vn -0.0575 0.0466 -0.9973
vn 0.9984 -0.0100 0.0560
vn 0.9984 -0.0098 0.0559
vn -0.9984 -0.0098 -0.0561
vn -0.9984 -0.0100 -0.0561
vn -0.9984 -0.0096 -0.0561
vn 0.9984 -0.0102 0.0559
vn 0.9984 -0.0101 0.0559
vn -0.9984 -0.0101 -0.0561
vn 0.9975 -0.0208 0.0675
vn -0.9988 -0.0174 -0.0468
vn 0.9592 -0.2212 0.1761
vn -0.9984 -0.0082 -0.0561
vn 0.9984 -0.0090 0.0561
vn 0.9978 -0.0057 0.0668
vn -0.9982 -0.0221 -0.0561
vn 0.9979 -0.0139 0.0637
vn 0.9981 -0.0238 0.0561
vn -0.9981 -0.0238 -0.0561
vn 0.9980 -0.0293 0.0561
vn -0.9980 -0.0292 -0.0561
vn 0.0123 -0.2936 0.9559
vn -0.0550 -0.2674 0.9620
vn -0.0818 -0.2231 0.9714
vn -0.0667 0.8718 -0.4854
vn 0.0268 0.8756 -0.4823
vn 0.1546 0.8684 -0.4711
vn 0.0879 0.2333 -0.9684
vn -0.0541 -0.2631 0.9633
vn -0.0169 -0.2265 0.9739
vn 0.0591 0.2266 -0.9722
vn 0.0559 0.0792 -0.9953
vn 0.0538 0.2631 -0.9633
vn 0.0526 0.3832 -0.9222
vn -0.0453 -0.2922 0.9553
vn 0.0401 0.7012 -0.7118
vn -0.0535 -0.3024 0.9517
vn 0.0230 -0.5583 0.8293
vn -0.0502 0.8762 -0.4793
vn -0.0817 0.8738 -0.4794
vn 0.0596 0.8751 -0.4802
vn 0.0526 0.3024 -0.9517
vn -0.0347 -0.2266 0.9734
vn 0.0465 0.5597 -0.8274
vn 0.0630 0.2232 -0.9727
vt 0.311616 0.081178
vt 0.313998 0.078951
vt 0.313998 0.081434
vt 0.316773 0.076710
vt 0.317541 0.078725
vt 0.316692 0.078724
vt 0.318112 0.076273
vt 0.320096 0.071094
vt 0.320301 0.076273
vt 0.328910 0.071827
vt 0.328294 0.069338
vt 0.328545 0.069072
vt 0.311762 0.082029
vt 0.308542 0.092010
vt 0.308542 0.082029
vt 0.323477 0.109042
vt 0.318302 0.105794
vt 0.323477 0.105237
vt 0.312623 0.075448
vt 0.314655 0.071308
vt 0.315031 0.071308
vt 0.328468 0.072852
vt 0.330470 0.076965
vt 0.328468 0.076974
vt 0.328948 0.074386
vt 0.327109 0.069607
vt 0.329950 0.074386
vt 0.321157 0.081203
vt 0.319919 0.075991
vt 0.321612 0.075944
vt 0.329255 0.074626
vt 0.327854 0.070499
vt 0.329255 0.069225
vt 0.332658 0.112620
vt 0.334603 0.114303
vt 0.332658 0.114311
vt 0.323453 0.113367
vt 0.327854 0.112093
vt 0.329255 0.113367
vt 0.322681 0.108957
vt 0.324081 0.112655
vt 0.322683 0.114352
vt 0.328176 0.112638
vt 0.328546 0.114328
vt 0.328178 0.114329
vt 0.316572 0.108888
vt 0.317896 0.110985
vt 0.316572 0.110985
vt 0.332658 0.070747
vt 0.330594 0.069064
vt 0.332658 0.069056
vt 0.327853 0.076273
vt 0.328700 0.071094
vt 0.328726 0.076273
vt 0.309636 0.072931
vt 0.313720 0.077035
vt 0.309636 0.077054
vt 0.313720 0.072912
vt 0.326407 0.076984
vt 0.318652 0.075448
vt 0.316898 0.070733
vt 0.318883 0.070208
vt 0.312894 0.085507
vt 0.313750 0.088285
vt 0.312892 0.088285
vt 0.313268 0.085417
vt 0.310049 0.095399
vt 0.310049 0.085417
vt 0.330725 0.071623
vt 0.329955 0.069067
vt 0.322924 0.074386
vt 0.324763 0.069136
vt 0.324993 0.074386
vt 0.330480 0.074386
vt 0.332693 0.069205
vt 0.332693 0.074386
vt 0.326330 0.076273
vt 0.324592 0.071094
vt 0.327331 0.076273
vt 0.316583 0.075448
vt 0.316433 0.071308
vt 0.315028 0.076709
vt 0.314353 0.078722
vt 0.313964 0.078722
vt 0.329956 0.114322
vt 0.330594 0.112628
vt 0.330594 0.114319
vt 0.315387 0.085508
vt 0.315283 0.088286
vt 0.314556 0.088286
vt 0.317896 0.095946
vt 0.316572 0.095946
vt 0.316488 0.085417
vt 0.313268 0.095399
vt 0.313268 0.085417
vt 0.313282 0.109282
vt 0.314820 0.108888
vt 0.314532 0.109282
vt 0.313720 0.110339
vt 0.326407 0.114411
vt 0.313720 0.114462
vt 0.326407 0.110288
vt 0.309636 0.114481
vt 0.309636 0.110358
vt 0.324096 0.071386
vt 0.323107 0.075149
vt 0.322697 0.069701
vt 0.324079 0.108951
vt 0.329255 0.107966
vt 0.327854 0.107966
vt 0.328468 0.110279
vt 0.330470 0.114392
vt 0.328468 0.114402
vt 0.330470 0.110269
vt 0.323477 0.068093
vt 0.319343 0.071903
vt 0.318303 0.068189
vt 0.321470 0.073024
vt 0.326341 0.074008
vt 0.325036 0.083989
vt 0.325036 0.074008
vt 0.321453 0.095946
vt 0.320672 0.108888
vt 0.320672 0.095946
vt 0.313998 0.099242
vt 0.312088 0.096756
vt 0.313088 0.096241
vt 0.312888 0.110985
vt 0.312888 0.108888
vt 0.330483 0.099025
vt 0.332693 0.091867
vt 0.332693 0.099025
vt 0.321179 0.094243
vt 0.321179 0.095553
vt 0.321179 0.110591
vt 0.320672 0.110985
vt 0.320672 0.110591
vt 0.319991 0.094243
vt 0.320672 0.093850
vt 0.320672 0.094243
vt 0.315030 0.108888
vt 0.316357 0.110985
vt 0.315030 0.110985
vt 0.328962 0.099025
vt 0.327177 0.091867
vt 0.329947 0.099025
vt 0.319991 0.110591
vt 0.319694 0.108888
vt 0.319991 0.109282
vt 0.313282 0.095553
vt 0.312888 0.093850
vt 0.313282 0.094243
vt 0.321453 0.108888
vt 0.321453 0.110985
vt 0.314821 0.093850
vt 0.314532 0.094243
vt 0.319694 0.095946
vt 0.319694 0.093850
vt 0.327712 0.091867
vt 0.332693 0.089833
vt 0.314820 0.095946
vt 0.312888 0.095946
vt 0.320672 0.095553
vt 0.320672 0.109282
vt 0.311353 0.098771
vt 0.311353 0.095399
vt 0.311559 0.097594
vt 0.308339 0.094222
vt 0.311559 0.094222
vt 0.317246 0.094221
vt 0.314026 0.097593
vt 0.314026 0.094221
vt 0.313268 0.098771
vt 0.314573 0.095399
vt 0.314573 0.098771
vt 0.313421 0.075442
vt 0.310049 0.085417
vt 0.310049 0.075443
vt 0.315287 0.082029
vt 0.313532 0.092011
vt 0.313532 0.082029
vt 0.311915 0.072047
vt 0.308542 0.082029
vt 0.308542 0.072047
vt 0.315287 0.072047
vt 0.311915 0.082029
vt 0.326341 0.083989
vt 0.325036 0.093970
vt 0.325036 0.083989
vt 0.322032 0.072047
vt 0.318659 0.082029
vt 0.318659 0.072047
vt 0.318507 0.082029
vt 0.315287 0.092010
vt 0.315287 0.082029
vt 0.311559 0.084247
vt 0.308186 0.094222
vt 0.308186 0.084248
vt 0.316793 0.075442
vt 0.313421 0.085417
vt 0.313421 0.075443
vt 0.317246 0.084247
vt 0.313873 0.094221
vt 0.313873 0.084247
vt 0.321720 0.082029
vt 0.319964 0.092011
vt 0.319964 0.082029
vt 0.315287 0.072047
vt 0.322033 0.096759
vt 0.325323 0.081434
vt 0.325323 0.096759
vt 0.322033 0.099242
vt 0.325323 0.099242
vt 0.319406 0.076618
vt 0.312256 0.109957
vt 0.312256 0.076617
vt 0.312256 0.072700
vt 0.319406 0.072596
vt 0.317896 0.093850
vt 0.316572 0.093850
vt 0.316357 0.093850
vt 0.315030 0.095946
vt 0.315030 0.093850
vt 0.322017 0.100913
vt 0.324822 0.093755
vt 0.327592 0.100913
vt 0.328796 0.093755
vt 0.328861 0.100913
vt 0.313282 0.110591
vt 0.314821 0.110985
vt 0.322686 0.091867
vt 0.324575 0.099102
vt 0.322504 0.099103
vt 0.316936 0.100087
vt 0.314131 0.092929
vt 0.316819 0.092929
vt 0.318890 0.092929
vt 0.319072 0.100169
vt 0.317130 0.086030
vt 0.318613 0.092535
vt 0.317130 0.092535
vt 0.318183 0.091487
vt 0.319561 0.084295
vt 0.319561 0.091531
vt 0.311361 0.100087
vt 0.310157 0.092929
vt 0.319406 0.109958
vt 0.312256 0.113875
vt 0.314532 0.110591
vt 0.319947 0.100913
vt 0.317934 0.093755
vt 0.320063 0.093755
vt 0.316822 0.088287
vt 0.317605 0.085510
vt 0.317603 0.088288
vt 0.322033 0.081434
vt 0.325323 0.078951
vt 0.307784 0.092668
vt 0.309235 0.094272
vt 0.307741 0.094231
vt 0.321098 0.096759
vt 0.321098 0.099242
vt 0.310224 0.076617
vt 0.310224 0.072710
vt 0.324757 0.091867
vt 0.319247 0.089833
vt 0.325372 0.091867
vt 0.327712 0.089833
vt 0.332693 0.088268
vt 0.322134 0.093755
vt 0.324822 0.091721
vt 0.328789 0.091721
vt 0.315036 0.084719
vt 0.315172 0.085508
vt 0.315036 0.085508
vt 0.318144 0.089833
vt 0.314131 0.090895
vt 0.323432 0.090895
vt 0.325506 0.090895
vt 0.306258 0.090481
vt 0.307741 0.083976
vt 0.307741 0.090481
vt 0.310164 0.090895
vt 0.310224 0.113864
vt 0.310224 0.109957
vt 0.326826 0.091867
vt 0.327178 0.089833
vt 0.313447 0.091721
vt 0.319348 0.084722
vt 0.316779 0.085509
vt 0.321098 0.081434
vt 0.322033 0.078951
vt 0.307935 0.087164
vt 0.309284 0.092709
vt 0.320379 0.096759
vt 0.320379 0.099242
vt 0.319243 0.088269
vt 0.314947 0.073687
vt 0.311097 0.077505
vt 0.311097 0.073609
vt 0.307305 0.075326
vt 0.307813 0.073761
vt 0.307813 0.075326
vt 0.333971 0.074473
vt 0.331897 0.070623
vt 0.333971 0.070623
vt 0.315036 0.084111
vt 0.316366 0.084720
vt 0.316070 0.089833
vt 0.318131 0.088269
vt 0.331897 0.074480
vt 0.322597 0.070623
vt 0.322597 0.107870
vt 0.318629 0.111776
vt 0.318629 0.107869
vt 0.320118 0.096936
vt 0.321568 0.095331
vt 0.321612 0.096894
vt 0.307299 0.135712
vt 0.305235 0.137779
vt 0.305235 0.135713
vt 0.318521 0.110906
vt 0.314950 0.114706
vt 0.314948 0.110821
vt 0.323751 0.089833
vt 0.327179 0.088269
vt 0.311449 0.091721
vt 0.313440 0.090157
vt 0.319351 0.084114
vt 0.320123 0.084722
vt 0.320379 0.081434
vt 0.321098 0.078951
vt 0.318548 0.084114
vt 0.318543 0.084721
vt 0.318517 0.073684
vt 0.314948 0.077505
vt 0.314950 0.073609
vt 0.327504 0.090895
vt 0.325513 0.089330
vt 0.327504 0.089330
vt 0.314072 0.089834
vt 0.316063 0.088269
vt 0.315975 0.085509
vt 0.315521 0.091721
vt 0.321019 0.092929
vt 0.320557 0.091867
vt 0.316018 0.088287
vt 0.321084 0.100169
vt 0.320491 0.099103
vt 0.318659 0.092011
vt 0.318659 0.082029
vt 0.323280 0.093970
vt 0.323280 0.083989
vt 0.312227 0.092011
vt 0.312227 0.082029
vt 0.316328 0.098771
vt 0.316328 0.095399
vt 0.313109 0.095399
vt 0.313109 0.098771
vt 0.321179 0.109282
vt 0.319991 0.095553
vt 0.321453 0.093850
vt 0.319694 0.110985
vt 0.323280 0.083989
vt 0.323280 0.074008
vt 0.320735 0.074386
vt 0.322693 0.069136
vt 0.320841 0.075448
vt 0.320834 0.070208
vt 0.334603 0.070739
vt 0.334603 0.069048
vt 0.322167 0.071094
vt 0.322370 0.076273
vt 0.315969 0.076710
vt 0.315888 0.078723
vt 0.318629 0.074529
vt 0.322597 0.074517
vt 0.333971 0.107871
vt 0.331897 0.111776
vt 0.331897 0.107871
vt 0.322597 0.111776
vt 0.318629 0.070623
vt 0.306798 0.101657
vt 0.307305 0.105500
vt 0.306798 0.105502
vt 0.315736 0.085509
vt 0.315501 0.088286
vt 0.308457 0.138694
vt 0.306410 0.136652
vt 0.308457 0.136652
vt 0.323575 0.110917
vt 0.320043 0.114706
vt 0.320039 0.110833
vt 0.318521 0.077580
vt 0.306410 0.156385
vt 0.306410 0.138694
vt 0.308971 0.139081
vt 0.308332 0.137019
vt 0.308971 0.137016
vt 0.308332 0.156755
vt 0.308332 0.139083
vt 0.308971 0.156756
vt 0.308332 0.158795
vt 0.313626 0.095263
vt 0.312418 0.091399
vt 0.313626 0.091399
vt 0.307299 0.155472
vt 0.307299 0.137778
vt 0.305235 0.157513
vt 0.305235 0.155473
vt 0.308457 0.158452
vt 0.308457 0.156385
vt 0.317493 0.095395
vt 0.318702 0.091531
vt 0.319561 0.095395
vt 0.333407 0.074950
vt 0.331844 0.071052
vt 0.333407 0.071046
vt 0.333407 0.108349
vt 0.331844 0.112193
vt 0.331844 0.108344
vt 0.331844 0.074952
vt 0.307305 0.068301
vt 0.307811 0.072195
vt 0.307305 0.072197
vt 0.306798 0.068301
vt 0.307305 0.101656
vt 0.333971 0.111776
vt 0.334479 0.107871
vt 0.334479 0.111776
vt 0.307813 0.072197
vt 0.334479 0.074473
vt 0.314948 0.110898
vt 0.311097 0.114706
vt 0.311097 0.110810
vt 0.323570 0.073683
vt 0.320039 0.077505
vt 0.320043 0.073609
vt 0.314948 0.077583
vt 0.333314 0.074146
vt 0.331245 0.107524
vt 0.331245 0.074149
vt 0.323575 0.077579
vt 0.331247 0.070248
vt 0.333314 0.070246
vt 0.319778 0.089833
vt 0.323206 0.088269
vt 0.323206 0.089833
vt 0.333314 0.107532
vt 0.331247 0.111389
vt 0.312896 0.084110
vt 0.314829 0.084718
vt 0.312895 0.084717
vt 0.318117 0.084113
vt 0.318114 0.084721
vt 0.325933 0.091867
vt 0.326271 0.091867
vt 0.316578 0.084112
vt 0.317908 0.084721
vt 0.316577 0.084720
vt 0.314828 0.085508
vt 0.318113 0.110985
vt 0.318113 0.108888
vt 0.325908 0.099102
vt 0.314532 0.095553
vt 0.329064 0.112635
vt 0.329446 0.114324
vt 0.329070 0.114326
vt 0.315518 0.085508
vt 0.314341 0.088286
vt 0.313958 0.088285
vt 0.318113 0.093850
vt 0.318113 0.095946
vt 0.327651 0.114331
vt 0.315720 0.076709
vt 0.315501 0.078723
vt 0.311100 0.075448
vt 0.310286 0.070266
vt 0.314130 0.071308
vt 0.322814 0.071094
vt 0.323353 0.076273
vt 0.329446 0.069069
vt 0.329424 0.071825
vt 0.329070 0.069070
vt 0.325404 0.069136
vt 0.325991 0.074386
vt 0.316358 0.095946
vt 0.326468 0.099102
vt 0.328407 0.099025
vt 0.315054 0.075448
vt 0.315546 0.071308
vt 0.315936 0.071308
vt 0.326507 0.074386
vt 0.326292 0.069136
vt 0.328416 0.074386
vt 0.323899 0.076273
vt 0.323701 0.071094
vt 0.325788 0.076273
vt 0.327767 0.069340
vt 0.315376 0.076709
vt 0.315301 0.078723
vt 0.314560 0.078722
vt 0.327652 0.112640
vt 0.328012 0.071831
vt 0.328536 0.071829
vt 0.311622 0.075448
vt 0.327713 0.113347
vt 0.328365 0.107540
vt 0.328902 0.107540
vt 0.325117 0.071094
vt 0.314570 0.091591
vt 0.314821 0.093845
vt 0.314362 0.091591
vt 0.327711 0.088269
vt 0.314830 0.084111
vt 0.328000 0.082758
vt 0.328531 0.082758
vt 0.314719 0.081972
vt 0.314512 0.081972
vt 0.310028 0.075271
vt 0.309521 0.071148
vt 0.310028 0.070695
vt 0.309521 0.080300
vt 0.310028 0.076177
vt 0.310028 0.080753
vt 0.310168 0.080201
vt 0.308186 0.076473
vt 0.308449 0.075944
vt 0.319765 0.088269
vt 0.323742 0.088269
vt 0.316370 0.084112
vt 0.317914 0.084113
vt 0.319792 0.113347
vt 0.322126 0.107541
vt 0.322685 0.107541
vt 0.323756 0.113347
vt 0.325436 0.107540
vt 0.325990 0.107540
vt 0.315707 0.091592
vt 0.316357 0.093846
vt 0.315492 0.091592
vt 0.316992 0.091593
vt 0.317896 0.093847
vt 0.316775 0.091593
vt 0.315980 0.081973
vt 0.315773 0.081973
vt 0.317342 0.081974
vt 0.317140 0.081974
vt 0.324216 0.071094
vt 0.323311 0.071094
vt 0.321242 0.082758
vt 0.321763 0.082758
vt 0.324750 0.082758
vt 0.325285 0.082758
vt 0.316358 0.108888
vt 0.317896 0.108888
vt 0.315600 0.075448
vt 0.313165 0.075448
vt 0.329813 0.071824
vt 0.330308 0.071822
vt 0.328550 0.112637
vt 0.329453 0.112633
vt 0.329948 0.112631
vt 0.312888 0.076707
vt 0.313758 0.078722
vt 0.312900 0.078721
vt 0.317579 0.080200
vt 0.319561 0.076473
vt 0.317842 0.080730
vt 0.309545 0.090336
vt 0.310028 0.086192
vt 0.310028 0.090767
vt 0.310028 0.085329
vt 0.309545 0.081184
vt 0.310028 0.080753
vt 0.314861 0.107541
vt 0.319812 0.091595
vt 0.312790 0.107541
vt 0.310627 0.107541
vt 0.328785 0.108603
vt 0.330949 0.108603
vt 0.312239 0.109429
vt 0.320616 0.091595
vt 0.329237 0.078951
vt 0.329237 0.081434
vt 0.321455 0.091596
vt 0.310168 0.109429
vt 0.317934 0.100913
vt 0.327913 0.109959
vt 0.319406 0.113981
vt 0.310056 0.108603
vt 0.312942 0.108603
vt 0.318564 0.085964
vt 0.317249 0.075511
vt 0.318624 0.075442
vt 0.326715 0.108603
vt 0.328898 0.109429
vt 0.326011 0.109429
vt 0.327913 0.076619
vt 0.327913 0.072537
vt 0.329238 0.096759
vt 0.329238 0.099242
vt 0.332693 0.107540
vt 0.312890 0.091590
vt 0.311559 0.084247
vt 0.312937 0.091399
vt 0.311559 0.091399
vt 0.312897 0.081971
vt 0.316279 0.083820
vt 0.316838 0.083820
vt 0.319783 0.083820
vt 0.320363 0.083820
vt 0.326818 0.069136
vt 0.325915 0.069136
vt 0.319170 0.084646
vt 0.318590 0.084646
vt 0.322674 0.084646
vt 0.322115 0.084646
vt 0.315522 0.076709
vt 0.315171 0.076709
vt 0.314823 0.076709
vt 0.327638 0.069607
vt 0.325903 0.084646
vt 0.325383 0.084646
vt 0.313050 0.083820
vt 0.313570 0.083820
vt 0.318395 0.082758
vt 0.310185 0.083820
vt 0.318447 0.081975
vt 0.319250 0.081975
vt 0.315772 0.084646
vt 0.325249 0.083820
vt 0.327504 0.083820
vt 0.316327 0.082758
vt 0.314072 0.082758
vt 0.309434 0.073394
vt 0.308156 0.078539
vt 0.307741 0.073348
vt 0.317846 0.081434
vt 0.317846 0.096759
vt 0.317846 0.099242
vt 0.331841 0.105238
vt 0.331841 0.071898
vt 0.331841 0.068026
vt 0.323181 0.083820
vt 0.332693 0.082758
vt 0.328768 0.084646
vt 0.319885 0.089870
vt 0.321414 0.089827
vt 0.313704 0.084646
vt 0.320125 0.081976
vt 0.317846 0.078951
vt 0.312888 0.093844
vt 0.316573 0.093846
vt 0.332693 0.113347
vt 0.327176 0.113347
vt 0.331906 0.081434
vt 0.331906 0.096759
vt 0.331907 0.099242
vt 0.332570 0.109960
vt 0.332570 0.076620
vt 0.332570 0.072492
vt 0.324822 0.114005
vt 0.328925 0.114091
vt 0.312639 0.113347
vt 0.315161 0.113347
vt 0.314131 0.113179
vt 0.326866 0.113093
vt 0.328937 0.113050
vt 0.323453 0.069225
vt 0.310028 0.113265
vt 0.327913 0.114041
vt 0.310017 0.113876
vt 0.308005 0.109429
vt 0.320673 0.093849
vt 0.321454 0.093850
vt 0.331906 0.078951
vt 0.319694 0.093848
vt 0.312088 0.113919
vt 0.330949 0.113007
vt 0.310627 0.113347
vt 0.318113 0.093847
vt 0.319233 0.113347
vt 0.315030 0.093845
vt 0.323202 0.113347
vt 0.306365 0.073394
vt 0.307682 0.083932
vt 0.306365 0.083976
vt 0.320379 0.078951
vt 0.320124 0.084115
vt 0.311449 0.084646
vt 0.316992 0.076449
vt 0.320170 0.072577
vt 0.320170 0.076449
vt 0.308186 0.084247
vt 0.311103 0.081009
vt 0.308887 0.082565
vt 0.320068 0.095373
vt 0.315686 0.076452
vt 0.316218 0.080710
vt 0.313873 0.079063
vt 0.323445 0.089330
vt 0.318860 0.082565
vt 0.316644 0.081009
vt 0.322370 0.087305
vt 0.316992 0.109789
vt 0.320170 0.113661
vt 0.316992 0.113690
vt 0.320170 0.109789
vt 0.314072 0.088269
vt 0.315508 0.090157
vt 0.312061 0.076453
vt 0.311529 0.080710
vt 0.316583 0.088131
vt 0.318385 0.085107
vt 0.321775 0.086976
vt 0.320568 0.085933
vt 0.309905 0.080730
vt 0.321135 0.085620
vt 0.317179 0.087802
vt 0.317818 0.084794
vt 0.309464 0.087205
vt 0.310235 0.155019
vt 0.310028 0.157086
vt 0.310029 0.155019
vt 0.308222 0.138716
vt 0.310646 0.136661
vt 0.310647 0.138716
vt 0.308953 0.156838
vt 0.311380 0.158887
vt 0.308955 0.158887
vt 0.308953 0.139154
vt 0.311380 0.137087
vt 0.311378 0.139154
vt 0.307597 0.137346
vt 0.310028 0.135286
vt 0.310029 0.137346
vt 0.311378 0.156838
vt 0.304088 0.158887
vt 0.306520 0.156826
vt 0.306520 0.158887
vt 0.310235 0.137347
vt 0.310236 0.135286
vt 0.310874 0.136661
vt 0.310873 0.138717
vt 0.314670 0.137282
vt 0.314908 0.135234
vt 0.314906 0.137283
vt 0.310647 0.156395
vt 0.310873 0.156395
vt 0.314670 0.154968
vt 0.314906 0.154968
vt 0.314908 0.157034
vt 0.310874 0.158461
vt 0.312245 0.154968
vt 0.314668 0.157034
vt 0.312243 0.157034
vt 0.308222 0.156395
vt 0.313855 0.134693
vt 0.316279 0.136760
vt 0.313854 0.136760
vt 0.313854 0.154438
vt 0.316279 0.154438
vt 0.313855 0.156493
vt 0.316280 0.156493
vt 0.304087 0.156826
vt 0.306520 0.139154
vt 0.304088 0.137087
vt 0.304087 0.139154
vt 0.310646 0.158461
vt 0.308221 0.158461
vt 0.307597 0.155019
vt 0.307596 0.157086
vt 0.312245 0.137282
vt 0.314668 0.135234
vt 0.307595 0.155019
vt 0.307389 0.157086
vt 0.307389 0.155019
vt 0.302304 0.137340
vt 0.304727 0.135286
vt 0.304729 0.137340
vt 0.302810 0.157512
vt 0.305233 0.155463
vt 0.305235 0.157512
vt 0.302810 0.135712
vt 0.305233 0.137778
vt 0.302808 0.137778
vt 0.304957 0.137346
vt 0.307389 0.135286
vt 0.307389 0.137346
vt 0.302808 0.155463
vt 0.306520 0.156826
vt 0.308953 0.158887
vt 0.306521 0.158887
vt 0.307595 0.137347
vt 0.307596 0.135286
vt 0.304956 0.135286
vt 0.304955 0.137341
vt 0.314987 0.137705
vt 0.315226 0.135657
vt 0.315224 0.137706
vt 0.304729 0.155019
vt 0.304955 0.155019
vt 0.315224 0.155390
vt 0.314987 0.155390
vt 0.314985 0.157457
vt 0.304956 0.157086
vt 0.312560 0.157457
vt 0.302304 0.155019
vt 0.303985 0.136652
vt 0.306408 0.138719
vt 0.303983 0.138719
vt 0.303983 0.156397
vt 0.306408 0.156397
vt 0.303985 0.158452
vt 0.306410 0.158452
vt 0.306520 0.139154
vt 0.308953 0.156826
vt 0.306521 0.137087
vt 0.308953 0.139154
vt 0.304727 0.157086
vt 0.302302 0.157086
vt 0.304957 0.155019
vt 0.312562 0.137705
vt 0.312562 0.155390
vt 0.314985 0.135657
vt 0.311616 0.078696
vt 0.317530 0.076711
vt 0.318145 0.071094
vt 0.311762 0.092010
vt 0.318302 0.109502
vt 0.330470 0.072842
vt 0.319561 0.081248
vt 0.327854 0.074626
vt 0.334603 0.112612
vt 0.323453 0.112048
vt 0.326407 0.072861
vt 0.313268 0.095399
vt 0.316488 0.095399
vt 0.324506 0.075143
vt 0.326341 0.083989
vt 0.311617 0.099242
vt 0.310049 0.098771
vt 0.308339 0.097594
vt 0.317246 0.097593
vt 0.313421 0.085416
vt 0.315287 0.092011
vt 0.311915 0.082029
vt 0.315287 0.082029
vt 0.326341 0.093970
vt 0.322032 0.082029
vt 0.318507 0.092010
vt 0.311559 0.094221
vt 0.316793 0.085416
vt 0.317246 0.094221
vt 0.321720 0.092011
vt 0.318659 0.082029
vt 0.318624 0.086030
vt 0.318078 0.084247
vt 0.310093 0.100087
vt 0.306247 0.083976
vt 0.307305 0.073761
vt 0.318517 0.114780
vt 0.311449 0.090157
vt 0.320742 0.069136
vt 0.323570 0.114780
vt 0.308971 0.158793
vt 0.311559 0.095263
vt 0.307299 0.157512
vt 0.306410 0.158452
vt 0.317493 0.091531
vt 0.333407 0.112199
vt 0.307811 0.068299
vt 0.307305 0.068299
vt 0.307305 0.073761
vt 0.334479 0.070623
vt 0.314947 0.114783
vt 0.333314 0.111387
vt 0.310227 0.075448
vt 0.309521 0.075724
vt 0.319297 0.075944
vt 0.309545 0.085760
vt 0.317249 0.086030
vt 0.313042 0.084247
vt 0.309752 0.078582
vt 0.331841 0.109110
vt 0.323453 0.070543
vt 0.332570 0.114087
vt 0.308005 0.113833
vt 0.316992 0.072549
vt 0.319561 0.084247
vt 0.313873 0.079063
vt 0.310236 0.157086
vt 0.308221 0.136661
vt 0.308955 0.137087
vt 0.316280 0.134693
vt 0.306520 0.137087
vt 0.312243 0.135234
vt 0.302302 0.135286
vt 0.305235 0.135712
vt 0.315226 0.157457
vt 0.308953 0.137087
vt 0.312560 0.135657
s 0
usemtl Material
f 32/1/1 331/2/1 340/3/1
f 129/4/2 332/5/2 344/6/2
f 335/7/3 131/8/3 343/9/3
f 249/10/4 198/11/4 242/12/4
f 46/13/5 61/14/5 30/15/5
f 334/16/6 38/17/6 330/18/6
f 367/19/7 201/20/7 249/21/7
f 132/22/8 39/23/8 138/24/8
f 363/25/9 198/26/9 350/27/9
f 333/28/10 16/29/10 6/30/10
f 59/31/11 15/32/11 55/33/11
f 131/34/12 8/35/12 129/36/12
f 370/37/11 13/38/11 53/39/11
f 32/40/12 12/41/12 4/42/12
f 200/43/12 231/44/12 195/45/12
f 257/46/13 237/47/13 236/48/13
f 136/49/12 22/50/12 134/51/12
f 348/52/14 12/53/14 334/54/14
f 10/55/15 41/56/15 36/57/15
f 26/58/16 43/59/16 41/56/16
f 342/60/17 28/61/17 136/62/17
f 78/63/5 316/64/5 291/65/5
f 1/66/18 70/67/18 20/68/18
f 28/69/19 239/70/19 22/50/19
f 341/71/20 22/72/20 337/73/20
f 349/74/18 2/75/18 325/76/18
f 358/77/3 200/78/3 347/79/3
f 327/80/21 248/81/21 28/61/21
f 195/82/2 354/83/2 351/84/2
f 234/85/12 25/86/12 19/87/12
f 259/88/5 324/89/5 321/90/5
f 251/91/13 257/46/13 254/92/13
f 29/93/18 75/94/18 45/95/18
f 30/96/13 207/97/13 46/98/13
f 42/99/16 23/100/16 24/101/16
f 41/56/16 44/102/16 42/99/16
f 9/103/15 42/99/15 24/101/15
f 35/104/15 41/56/15 42/99/15
f 11/105/22 31/106/22 2/107/22
f 31/106/23 38/108/23 32/40/23
f 13/38/11 52/109/11 53/39/11
f 40/110/11 59/31/11 52/109/11
f 137/111/8 13/112/8 135/113/8
f 138/24/8 40/114/8 137/111/8
f 326/115/24 37/116/24 11/117/24
f 329/118/25 38/17/25 37/116/25
f 7/119/5 146/120/5 142/121/5
f 52/122/13 140/123/13 139/124/13
f 325/125/26 31/126/26 339/127/26
f 339/127/27 32/1/27 340/3/27
f 30/96/13 50/128/13 49/129/13
f 313/130/18 77/131/18 301/132/18
f 7/133/13 52/122/13 34/134/13
f 5/135/13 130/136/13 141/137/13
f 17/138/13 133/139/13 142/140/13
f 208/141/13 235/142/13 205/143/13
f 319/144/18 211/145/18 314/146/18
f 21/147/13 57/148/13 48/149/13
f 29/150/13 51/151/13 3/152/13
f 5/135/13 59/153/13 55/154/13
f 3/152/13 204/155/13 18/156/13
f 17/138/13 60/157/13 56/158/13
f 212/159/18 95/160/18 77/131/18
f 29/150/13 210/161/13 58/162/13
f 34/134/13 139/124/13 143/163/13
f 48/149/13 140/123/13 144/164/13
f 148/165/13 68/67/13 145/166/13
f 61/167/13 70/168/13 62/169/13
f 63/170/13 73/171/13 64/172/13
f 66/173/13 147/174/13 146/175/13
f 20/176/11 71/177/11 46/178/11
f 47/179/18 147/180/18 143/181/18
f 48/182/28 67/183/28 21/184/28
f 30/185/28 62/186/28 1/182/28
f 33/187/5 148/188/5 144/189/5
f 3/190/28 73/191/28 29/192/28
f 18/193/5 64/194/5 3/195/5
f 5/196/11 74/197/11 33/198/11
f 34/199/11 66/200/11 7/201/11
f 45/202/11 63/203/11 18/204/11
f 21/205/18 145/206/18 141/207/18
f 17/192/28 76/179/28 47/208/28
f 93/209/28 300/210/28 299/211/28
f 77/212/28 299/211/28 301/213/28
f 307/214/29 92/215/29 91/216/29
f 307/214/29 81/217/29 302/218/29
f 228/219/13 254/92/13 229/220/13
f 230/221/13 209/222/13 203/223/13
f 306/224/30 88/225/30 305/226/30
f 305/226/30 82/227/30 294/228/30
f 1/229/13 206/230/13 50/128/13
f 149/231/31 297/232/31 312/233/31
f 303/234/32 86/235/32 85/236/32
f 303/234/33 150/237/33 311/238/33
f 104/239/34 83/240/34 79/241/34
f 296/242/35 80/243/35 293/244/35
f 304/245/32 81/246/32 86/235/32
f 308/247/29 82/248/29 92/215/29
f 46/98/13 206/230/13 20/249/13
f 310/250/30 83/251/30 151/252/30
f 309/253/5 79/254/5 292/255/5
f 94/256/28 291/257/28 300/210/28
f 120/258/11 107/259/11 104/260/11
f 111/261/28 94/256/28 93/209/28
f 95/262/28 93/209/28 77/212/28
f 92/215/36 101/263/36 91/216/36
f 91/216/36 96/264/36 81/217/36
f 87/265/37 272/266/37 264/267/37
f 216/268/18 113/269/18 95/160/18
f 89/270/38 99/271/38 88/225/38
f 88/225/38 106/272/38 82/227/38
f 218/273/5 260/274/5 214/275/5
f 149/231/18 109/276/18 87/265/18
f 85/236/39 98/277/39 97/278/39
f 150/237/40 97/278/40 154/279/40
f 84/280/34 105/281/34 80/282/34
f 86/235/39 96/283/39 98/277/39
f 92/215/36 106/284/36 102/285/36
f 265/286/18 215/287/18 211/145/18
f 83/251/41 155/288/41 151/252/41
f 156/289/5 79/254/5 152/290/5
f 112/291/28 78/292/28 94/256/28
f 404/293/11 123/294/11 120/258/11
f 127/295/28 112/291/28 111/261/28
f 113/296/28 111/261/28 95/262/28
f 109/276/18 281/297/18 272/266/18
f 219/298/42 117/299/42 114/300/42
f 155/301/43 184/302/43 183/303/43
f 166/304/13 100/305/13 155/306/13
f 224/307/5 268/308/5 218/273/5
f 153/309/18 125/310/18 109/276/18
f 164/311/13 99/312/13 100/305/13
f 162/313/13 96/314/13 101/315/13
f 108/316/11 121/317/11 105/318/11
f 158/319/44 171/320/44 172/321/44
f 289/322/45 466/323/45 225/324/45
f 273/325/18 221/326/18 215/287/18
f 107/327/46 159/328/46 155/288/46
f 160/329/5 104/330/5 156/289/5
f 128/331/28 103/332/28 112/291/28
f 126/333/5 156/289/5 110/334/5
f 285/335/45 467/336/45 465/337/45
f 108/338/47 158/339/47 124/340/47
f 105/341/18 157/342/18 153/309/18
f 110/334/5 152/290/5 90/343/5
f 151/252/41 100/344/41 89/270/41
f 84/345/39 154/279/39 108/338/39
f 80/346/18 153/309/18 149/231/18
f 298/347/5 152/290/5 309/253/5
f 306/224/30 151/252/30 89/270/30
f 311/238/48 84/345/48 296/348/48
f 80/346/31 312/233/31 293/349/31
f 141/207/18 68/350/18 5/351/18
f 144/189/5 72/352/5 48/353/5
f 143/181/18 65/354/18 34/355/18
f 69/356/13 147/174/13 76/357/13
f 148/165/13 67/358/13 72/359/13
f 33/360/13 140/123/13 59/153/13
f 47/361/13 139/124/13 60/157/13
f 7/133/13 133/139/13 53/362/13
f 21/147/13 130/136/13 54/363/13
f 60/157/13 140/123/13 57/148/13
f 142/121/5 69/364/5 17/365/5
f 44/102/49 138/24/49 137/111/49
f 23/100/49 137/111/49 135/113/49
f 333/366/20 134/367/20 341/71/20
f 336/368/50 136/62/50 16/369/50
f 16/370/12 134/51/12 6/371/12
f 19/87/12 131/34/12 129/36/12
f 43/59/49 132/22/49 138/24/49
f 343/9/3 25/372/3 328/373/3
f 19/374/2 344/6/2 338/375/2
f 162/313/13 102/376/13 165/377/13
f 161/378/13 97/379/13 163/380/13
f 163/380/13 98/381/13 162/313/13
f 165/377/13 106/382/13 99/312/13
f 164/311/13 161/378/13 163/380/13
f 165/377/13 163/380/13 162/313/13
f 167/383/51 184/384/51 159/385/51
f 261/386/5 298/347/5 323/387/5
f 170/388/28 176/389/28 116/390/28
f 475/391/45 470/392/45 290/393/45
f 472/394/45 225/324/45 467/336/45
f 170/388/28 173/395/28 178/396/28
f 171/397/52 174/398/52 172/399/52
f 171/397/53 178/400/53 173/401/53
f 177/402/12 176/403/12 178/400/12
f 115/404/18 172/405/18 174/406/18
f 167/407/54 171/320/54 168/408/54
f 167/407/55 175/409/55 177/410/55
f 115/411/28 173/395/28 169/412/28
f 116/413/5 175/414/5 159/415/5
f 179/416/56 182/417/56 180/418/56
f 185/419/56 184/420/56 186/421/56
f 179/416/56 186/421/56 181/422/56
f 158/423/57 181/424/57 168/425/57
f 168/426/58 186/427/58 167/383/58
f 154/428/59 179/429/59 180/430/59
f 166/304/59 179/429/59 161/378/59
f 154/302/60 182/425/60 158/431/60
f 155/306/59 185/432/59 166/304/59
f 226/433/42 122/434/42 118/435/42
f 287/436/45 473/437/45 286/438/45
f 468/439/42 118/435/42 117/299/42
f 169/440/61 476/441/61 288/442/61
f 474/443/45 290/393/45 473/437/45
f 169/440/62 471/444/62 115/445/62
f 271/446/18 283/447/18 274/448/18
f 170/449/63 469/450/63 476/441/63
f 119/451/5 217/452/5 103/453/5
f 278/454/5 110/334/5 269/455/5
f 263/456/64 274/448/64 266/457/64
f 276/458/5 270/459/5 267/460/5
f 103/453/5 213/461/5 78/63/5
f 269/455/65 90/343/65 261/386/65
f 57/148/13 238/462/13 255/463/13
f 297/232/31 264/267/31 318/464/31
f 45/465/13 204/155/13 210/161/13
f 243/466/12 233/467/12 232/468/12
f 58/162/13 207/97/13 49/129/13
f 267/460/5 262/469/5 259/88/5
f 214/275/5 322/470/5 315/471/5
f 227/472/13 60/157/13 252/473/13
f 12/41/12 196/474/12 4/42/12
f 234/475/2 338/375/2 355/476/2
f 345/477/66 11/478/66 202/479/66
f 328/373/3 245/480/3 359/481/3
f 240/482/67 250/483/67 241/484/67
f 337/73/20 239/485/20 362/486/20
f 253/487/13 208/141/13 209/222/13
f 317/488/68 266/457/68 320/489/68
f 365/490/69 250/491/69 247/492/69
f 60/157/13 255/463/13 252/473/13
f 361/493/20 241/494/20 364/495/20
f 360/496/3 243/497/3 357/498/3
f 197/499/70 11/105/70 2/107/70
f 232/500/2 356/501/2 353/502/2
f 200/43/12 196/474/12 199/503/12
f 202/504/71 198/11/71 201/505/71
f 202/479/7 346/506/7 345/477/7
f 208/141/13 206/230/13 207/97/13
f 206/507/18 397/508/18 381/509/18
f 347/79/3 199/510/3 348/52/3
f 382/511/5 204/512/5 398/513/5
f 209/222/13 204/155/13 203/223/13
f 209/222/13 207/97/13 210/161/13
f 212/159/18 215/287/18 216/268/18
f 218/273/5 213/461/5 217/452/5
f 216/268/18 221/326/18 222/514/18
f 224/307/5 217/452/5 223/515/5
f 222/514/18 437/516/18 417/517/18
f 418/518/5 223/515/5 438/519/5
f 287/520/18 189/521/18 190/522/18
f 279/523/5 191/524/5 469/525/5
f 219/526/18 194/527/18 193/528/18
f 282/529/18 272/266/18 281/297/18
f 284/530/18 274/448/18 283/447/18
f 267/460/5 275/531/5 276/458/5
f 269/455/5 277/532/5 278/454/5
f 271/446/18 264/267/18 272/266/18
f 273/325/18 266/457/18 274/448/18
f 259/88/5 268/308/5 267/460/5
f 261/386/5 270/459/5 269/455/5
f 237/533/18 399/534/18 383/535/18
f 235/536/18 400/537/18 384/538/18
f 385/539/5 230/540/5 401/541/5
f 386/542/5 228/543/5 402/544/5
f 257/46/13 253/487/13 254/92/13
f 255/463/13 251/91/13 252/473/13
f 229/220/13 253/487/13 230/221/13
f 252/473/13 228/219/13 227/472/13
f 419/545/5 275/531/5 439/546/5
f 420/547/5 277/532/5 440/548/5
f 357/498/14 244/549/14 358/77/14
f 359/481/3 246/550/3 360/496/3
f 282/529/18 443/551/18 423/552/18
f 284/530/18 444/553/18 424/554/18
f 236/48/13 258/555/13 257/46/13
f 238/462/13 256/556/13 255/463/13
f 247/492/7 366/557/7 365/490/7
f 249/21/7 368/558/7 367/19/7
f 247/559/67 239/70/67 248/560/67
f 249/10/67 241/484/67 250/483/67
f 243/466/12 231/44/12 244/561/12
f 234/85/12 246/562/12 245/563/12
f 4/564/2 352/565/2 331/566/2
f 220/567/5 463/568/5 466/569/5
f 280/570/72 192/571/72 470/572/72
f 285/573/18 187/574/18 188/575/18
f 323/387/5 262/469/5 261/386/5
f 321/90/5 260/274/5 259/88/5
f 265/286/18 320/489/18 266/457/18
f 263/456/31 318/464/31 264/267/31
f 315/471/5 213/461/5 214/275/5
f 212/159/18 314/146/18 211/145/18
f 317/488/73 400/537/73 383/535/73
f 382/511/5 322/470/5 401/541/5
f 297/232/73 399/534/73 375/576/73
f 386/542/5 298/347/5 376/577/5
f 293/349/73 380/578/73 371/579/73
f 396/580/74 296/348/74 374/581/74
f 392/582/75 310/250/75 306/224/75
f 376/577/5 309/253/5 379/583/5
f 300/210/28 369/584/28 378/585/28
f 379/583/5 292/255/5 370/586/5
f 395/587/75 295/588/75 310/250/75
f 394/589/76 294/590/76 308/247/76
f 388/591/77 304/245/77 390/592/77
f 371/593/78 296/594/78 293/595/78
f 389/596/74 311/238/74 396/580/74
f 390/592/77 303/234/77 389/596/77
f 312/233/73 375/576/73 380/578/73
f 372/597/75 305/226/75 294/228/75
f 391/598/75 306/224/75 305/226/75
f 393/599/76 302/218/76 388/600/76
f 394/589/76 307/214/76 393/599/76
f 301/213/28 377/601/28 387/602/28
f 299/211/28 378/585/28 377/601/28
f 319/144/18 397/508/18 384/538/18
f 313/130/18 387/603/18 381/509/18
f 385/539/5 324/89/5 402/544/5
f 369/604/5 316/64/5 398/513/5
f 79/605/11 295/606/11 292/607/11
f 403/608/5 352/565/5 438/519/5
f 446/609/79 368/558/79 426/610/79
f 445/611/79 366/557/79 425/612/79
f 242/613/80 364/495/80 241/494/80
f 240/614/20 362/486/20 239/485/20
f 359/481/81 422/615/81 442/616/81
f 357/498/81 421/617/81 441/618/81
f 355/476/2 233/619/2 234/475/2
f 353/502/82 231/620/82 232/500/82
f 351/84/2 196/621/2 195/82/2
f 197/622/9 350/27/9 198/26/9
f 347/79/81 416/623/81 436/624/81
f 435/625/79 346/506/79 415/626/79
f 419/545/5 356/501/5 440/548/5
f 441/618/81 360/496/81 357/498/81
f 361/493/18 444/553/18 423/552/18
f 426/610/79 365/490/79 445/611/79
f 337/73/18 443/551/18 409/627/18
f 442/616/81 328/373/81 359/481/81
f 428/628/79 345/477/79 435/625/79
f 420/547/5 338/375/5 410/629/5
f 410/629/5 344/6/5 414/630/5
f 430/631/81 343/9/81 328/373/81
f 433/632/79 336/368/79 408/633/79
f 333/366/18 413/634/18 405/635/18
f 14/636/83 332/637/83 8/638/83
f 339/127/84 412/639/84 411/640/84
f 325/125/28 411/640/28 427/641/28
f 432/642/85 329/118/85 431/643/85
f 431/643/86 326/115/86 428/644/86
f 418/518/5 354/83/5 439/546/5
f 425/612/79 327/80/79 429/645/79
f 436/624/81 358/77/81 347/79/81
f 349/74/18 427/646/18 417/517/18
f 341/71/18 409/627/18 413/634/18
f 429/645/79 342/60/79 433/632/79
f 406/647/81 348/52/81 334/54/81
f 408/648/87 333/28/87 405/649/87
f 363/25/18 437/516/18 424/554/18
f 415/626/79 367/19/79 446/609/79
f 432/642/86 334/16/86 330/18/86
f 434/650/81 335/7/81 343/9/81
f 414/630/5 332/5/5 404/651/5
f 340/3/28 403/652/28 412/639/28
f 51/653/5 398/513/5 204/512/5
f 229/654/5 402/544/5 228/543/5
f 381/509/18 50/655/18 206/507/18
f 384/538/18 205/656/18 235/536/18
f 377/601/28 58/657/28 49/658/28
f 387/602/28 49/658/28 50/659/28
f 35/660/88 393/599/88 36/661/88
f 36/661/88 388/600/88 10/662/88
f 24/663/89 392/582/89 391/598/89
f 9/664/90 391/598/90 372/597/90
f 130/665/18 375/576/18 54/666/18
f 26/667/91 389/596/91 27/668/91
f 27/668/92 396/580/92 132/669/92
f 15/32/11 371/670/11 55/33/11
f 10/671/93 390/592/93 26/667/93
f 35/660/88 372/672/88 394/589/88
f 135/673/94 373/674/94 395/587/94
f 133/675/5 370/586/5 53/676/5
f 378/585/28 51/677/28 58/657/28
f 376/577/5 133/675/5 56/678/5
f 23/679/95 395/587/95 392/582/95
f 132/669/96 374/581/96 15/680/96
f 371/579/18 130/665/18 55/681/18
f 227/682/5 376/577/5 56/678/5
f 375/576/18 238/683/18 54/666/18
f 203/684/5 401/541/5 230/540/5
f 383/535/18 236/685/18 237/533/18
f 323/387/5 402/544/5 324/89/5
f 321/90/5 401/541/5 322/470/5
f 384/538/18 320/489/18 319/144/18
f 383/535/73 318/464/73 317/488/73
f 315/471/5 398/513/5 316/64/5
f 381/509/97 314/146/97 313/130/97
f 292/686/98 373/687/98 370/688/98
f 412/639/28 119/689/28 128/331/28
f 160/329/5 404/651/5 120/690/5
f 159/328/99 407/691/99 434/650/99
f 118/692/100 406/693/100 432/694/100
f 285/695/101 415/696/101 446/697/101
f 424/554/18 221/326/18 284/530/18
f 124/698/11 405/649/11 121/317/11
f 122/699/102 416/700/102 406/701/102
f 115/702/103 433/632/103 158/339/103
f 413/634/18 125/310/18 157/342/18
f 417/517/18 113/269/18 222/514/18
f 466/569/104 421/703/104 436/704/104
f 471/705/105 429/645/105 115/702/105
f 224/307/5 439/546/5 275/531/5
f 117/706/100 428/707/100 114/708/100
f 118/692/100 431/709/100 117/706/100
f 427/641/28 127/295/28 113/296/28
f 411/640/28 128/331/28 127/295/28
f 405/635/18 157/342/18 121/710/18
f 158/339/103 408/633/103 124/340/103
f 116/711/99 434/650/99 430/631/99
f 126/333/5 414/630/5 160/329/5
f 278/454/5 410/629/5 126/333/5
f 114/712/106 435/713/106 219/526/106
f 469/714/107 430/631/107 442/616/107
f 409/627/18 281/297/18 125/310/18
f 286/715/108 445/611/108 287/716/108
f 423/552/18 283/447/18 282/529/18
f 470/717/109 422/615/109 441/618/109
f 276/458/5 440/548/5 277/532/5
f 219/526/110 415/696/110 465/718/110
f 436/704/111 220/567/111 466/569/111
f 441/618/112 280/719/112 470/717/112
f 442/616/113 279/720/113 469/714/113
f 287/716/114 425/612/114 471/705/114
f 285/721/115 426/610/115 286/715/115
f 119/451/5 438/519/5 223/515/5
f 424/554/18 364/495/18 363/25/18
f 423/552/18 362/486/18 361/493/18
f 355/476/5 440/548/5 356/501/5
f 353/502/5 439/546/5 354/83/5
f 351/84/5 438/519/5 352/565/5
f 417/517/18 350/27/18 349/74/18
f 332/637/87 407/722/87 404/293/87
f 461/723/116 194/724/116 462/725/116
f 290/726/117 192/727/117 457/728/117
f 475/729/118 453/730/118 279/731/118
f 474/732/119 448/733/119 450/734/119
f 225/735/120 463/736/120 460/737/120
f 474/732/121 455/738/121 475/729/121
f 220/739/122 459/740/122 464/741/122
f 461/723/123 460/737/123 459/742/123
f 464/743/124 460/737/124 463/736/124
f 457/728/45 456/744/45 458/745/45
f 454/746/125 453/747/125 455/748/125
f 451/749/45 458/745/45 452/750/45
f 449/751/126 455/748/126 450/752/126
f 448/753/127 449/751/127 450/752/127
f 188/754/45 451/749/45 452/750/45
f 288/755/128 447/756/128 471/757/128
f 473/758/129 457/728/129 451/749/129
f 285/759/130 452/760/130 472/761/130
f 289/762/131 452/760/131 458/763/131
f 280/764/132 458/763/132 456/765/132
f 226/766/133 461/767/133 459/740/133
f 219/768/134 461/767/134 468/769/134
f 473/758/135 187/770/135 286/771/135
f 225/735/136 462/725/136 467/772/136
f 288/755/137 454/746/137 449/751/137
f 465/773/138 462/725/138 194/724/138
f 476/774/139 191/775/139 454/746/139
f 495/776/124 500/777/124 496/778/124
f 522/779/117 490/780/117 491/781/117
f 510/782/140 488/783/140 485/784/140
f 515/785/141 482/786/141 519/787/141
f 507/788/142 497/789/142 494/790/142
f 523/791/143 482/786/143 488/783/143
f 508/792/144 498/793/144 503/794/144
f 493/795/145 496/778/145 494/790/145
f 498/796/146 494/790/146 497/789/146
f 491/781/45 489/797/45 492/798/45
f 487/799/45 485/800/45 488/801/45
f 483/802/45 492/798/45 484/803/45
f 487/799/147 482/804/147 481/805/147
f 482/804/148 479/806/148 481/805/148
f 478/807/45 483/802/45 484/803/45
f 516/808/149 481/805/149 479/806/149
f 518/809/129 491/781/129 483/802/129
f 513/810/130 484/811/130 517/812/130
f 521/813/131 484/811/131 492/814/131
f 512/815/132 492/814/132 489/816/132
f 506/817/150 493/818/150 508/792/150
f 502/819/151 495/820/151 506/817/151
f 518/809/135 477/821/135 514/822/135
f 505/823/152 494/790/152 496/778/152
f 524/824/153 481/805/153 520/825/153
f 505/823/154 500/777/154 501/807/154
f 524/824/155 486/826/155 487/799/155
f 32/1/1 4/827/1 331/2/1
f 129/4/2 8/828/2 332/5/2
f 335/7/3 14/829/3 131/8/3
f 249/10/71 201/505/71 198/11/71
f 46/13/5 71/830/5 61/14/5
f 334/16/6 12/831/6 38/17/6
f 367/19/7 346/506/7 201/20/7
f 132/22/8 15/832/8 39/23/8
f 363/25/156 242/613/156 198/26/156
f 333/28/10 336/833/10 16/29/10
f 59/31/11 39/834/11 15/32/11
f 131/34/12 14/835/12 8/35/12
f 370/37/11 373/836/11 13/38/11
f 32/40/12 38/108/12 12/41/12
f 200/43/12 244/561/12 231/44/12
f 257/46/13 256/556/13 237/47/13
f 136/49/157 28/69/157 22/50/157
f 348/52/14 199/510/14 12/53/14
f 10/55/15 26/58/15 41/56/15
f 26/58/16 27/837/16 43/59/16
f 342/60/158 327/80/158 28/61/158
f 78/63/5 213/461/5 316/64/5
f 1/66/18 62/838/18 70/67/18
f 28/69/159 248/560/159 239/70/159
f 341/71/20 134/367/20 22/72/20
f 349/74/160 197/622/160 2/75/160
f 358/77/3 244/549/3 200/78/3
f 327/80/7 366/557/7 248/81/7
f 195/82/2 231/620/2 354/83/2
f 234/85/12 245/563/12 25/86/12
f 259/88/5 262/469/5 324/89/5
f 251/91/13 256/556/13 257/46/13
f 29/93/18 73/839/18 75/94/18
f 30/96/13 49/129/13 207/97/13
f 42/99/16 44/102/16 23/100/16
f 41/56/16 43/59/16 44/102/16
f 9/103/15 35/104/15 42/99/15
f 35/104/15 36/57/15 41/56/15
f 11/105/161 37/840/161 31/106/161
f 31/106/23 37/840/23 38/108/23
f 13/38/11 40/110/11 52/109/11
f 40/110/11 39/834/11 59/31/11
f 137/111/8 40/114/8 13/112/8
f 138/24/8 39/23/8 40/114/8
f 326/115/162 329/118/162 37/116/162
f 329/118/163 330/18/163 38/17/163
f 7/119/5 66/841/5 146/120/5
f 52/122/13 59/153/13 140/123/13
f 325/125/164 2/842/164 31/126/164
f 339/127/165 31/126/165 32/1/165
f 30/96/13 1/229/13 50/128/13
f 313/130/18 212/159/18 77/131/18
f 7/133/13 53/362/13 52/122/13
f 5/135/13 55/154/13 130/136/13
f 17/138/13 56/158/13 133/139/13
f 208/141/13 258/555/13 235/142/13
f 319/144/97 265/286/97 211/145/97
f 21/147/13 54/363/13 57/148/13
f 29/150/13 58/162/13 51/151/13
f 5/135/13 33/360/13 59/153/13
f 3/152/13 51/151/13 204/155/13
f 17/138/13 47/361/13 60/157/13
f 212/159/18 216/268/18 95/160/18
f 29/150/13 45/465/13 210/161/13
f 34/134/13 52/122/13 139/124/13
f 48/149/13 57/148/13 140/123/13
f 148/165/13 74/843/13 68/67/13
f 61/167/13 71/844/13 70/168/13
f 63/170/13 75/845/13 73/171/13
f 66/173/13 65/838/13 147/174/13
f 20/176/11 70/846/11 71/177/11
f 47/179/18 76/847/18 147/180/18
f 48/182/28 72/848/28 67/183/28
f 30/185/28 61/849/28 62/186/28
f 33/187/5 74/850/5 148/188/5
f 3/190/28 64/851/28 73/191/28
f 18/193/5 63/852/5 64/194/5
f 5/196/11 68/853/11 74/197/11
f 34/199/11 65/854/11 66/200/11
f 45/202/11 75/855/11 63/203/11
f 21/205/18 67/856/18 145/206/18
f 17/192/28 69/857/28 76/179/28
f 93/209/28 94/256/28 300/210/28
f 77/212/28 93/209/28 299/211/28
f 307/214/29 308/247/29 92/215/29
f 307/214/29 91/216/29 81/217/29
f 228/219/13 251/91/13 254/92/13
f 230/221/13 253/487/13 209/222/13
f 306/224/30 89/270/30 88/225/30
f 305/226/30 88/225/30 82/227/30
f 1/229/13 20/249/13 206/230/13
f 149/231/31 87/265/31 297/232/31
f 303/234/32 304/245/32 86/235/32
f 303/234/32 85/236/32 150/237/32
f 104/239/34 107/858/34 83/240/34
f 296/242/35 84/859/35 80/243/35
f 304/245/32 302/860/32 81/246/32
f 308/247/29 294/590/29 82/248/29
f 46/98/13 207/97/13 206/230/13
f 310/250/30 295/588/30 83/251/30
f 309/253/5 152/290/5 79/254/5
f 94/256/28 78/292/28 291/257/28
f 120/258/11 123/294/11 107/259/11
f 111/261/28 112/291/28 94/256/28
f 95/262/28 111/261/28 93/209/28
f 92/215/36 102/285/36 101/263/36
f 91/216/36 101/263/36 96/264/36
f 87/265/18 109/276/18 272/266/18
f 216/268/18 222/514/18 113/269/18
f 89/270/38 100/344/38 99/271/38
f 88/225/38 99/271/38 106/272/38
f 218/273/5 268/308/5 260/274/5
f 149/231/18 153/309/18 109/276/18
f 85/236/39 86/235/39 98/277/39
f 150/237/40 85/236/40 97/278/40
f 84/280/34 108/861/34 105/281/34
f 86/235/39 81/246/39 96/283/39
f 92/215/36 82/248/36 106/284/36
f 265/286/18 273/325/18 215/287/18
f 83/251/38 107/327/38 155/288/38
f 156/289/5 104/330/5 79/254/5
f 112/291/28 103/332/28 78/292/28
f 404/293/11 407/722/11 123/294/11
f 127/295/28 128/331/28 112/291/28
f 113/296/28 127/295/28 111/261/28
f 109/276/18 125/310/18 281/297/18
f 219/298/42 468/439/42 117/299/42
f 155/301/43 159/862/43 184/302/43
f 166/304/13 164/311/13 100/305/13
f 224/307/5 275/531/5 268/308/5
f 153/309/18 157/342/18 125/310/18
f 164/311/13 165/377/13 99/312/13
f 162/313/13 98/381/13 96/314/13
f 108/316/11 124/698/11 121/317/11
f 158/319/166 168/408/166 171/320/166
f 289/322/45 280/863/45 466/323/45
f 273/325/18 284/530/18 221/326/18
f 107/327/46 123/864/46 159/328/46
f 160/329/5 120/690/5 104/330/5
f 128/331/28 119/689/28 103/332/28
f 126/333/5 160/329/5 156/289/5
f 285/335/45 472/394/45 467/336/45
f 108/338/47 154/279/47 158/339/47
f 105/341/18 121/710/18 157/342/18
f 110/334/5 156/289/5 152/290/5
f 151/252/41 155/288/41 100/344/41
f 84/345/39 150/237/39 154/279/39
f 80/346/18 105/341/18 153/309/18
f 298/347/5 90/343/5 152/290/5
f 306/224/30 310/250/30 151/252/30
f 311/238/48 150/237/48 84/345/48
f 80/346/167 149/231/167 312/233/167
f 141/207/18 145/206/18 68/350/18
f 144/189/5 148/188/5 72/352/5
f 143/181/18 147/180/18 65/354/18
f 69/356/13 146/175/13 147/174/13
f 148/165/13 145/166/13 67/358/13
f 33/360/13 144/164/13 140/123/13
f 47/361/13 143/163/13 139/124/13
f 7/133/13 142/140/13 133/139/13
f 21/147/13 141/137/13 130/136/13
f 60/157/13 139/124/13 140/123/13
f 142/121/5 146/120/5 69/364/5
f 44/102/49 43/59/49 138/24/49
f 23/100/49 44/102/49 137/111/49
f 333/366/20 6/865/20 134/367/20
f 336/368/50 342/60/50 136/62/50
f 16/370/12 136/49/12 134/51/12
f 19/87/12 25/86/12 131/34/12
f 43/59/49 27/837/49 132/22/49
f 343/9/3 131/8/3 25/372/3
f 19/374/2 129/4/2 344/6/2
f 162/313/13 101/315/13 102/376/13
f 161/378/13 154/428/13 97/379/13
f 163/380/13 97/379/13 98/381/13
f 165/377/13 102/376/13 106/382/13
f 164/311/13 166/304/13 161/378/13
f 165/377/13 164/311/13 163/380/13
f 167/383/51 186/427/51 184/384/51
f 261/386/5 90/343/5 298/347/5
f 170/388/28 178/396/28 176/389/28
f 475/391/45 279/866/45 470/392/45
f 472/394/45 289/322/45 225/324/45
f 170/388/28 169/412/28 173/395/28
f 171/397/52 173/401/52 174/398/52
f 171/397/168 177/402/168 178/400/168
f 177/402/12 175/867/12 176/403/12
f 115/404/18 158/868/18 172/405/18
f 167/407/169 177/410/169 171/320/169
f 167/407/55 159/869/55 175/409/55
f 115/411/28 174/870/28 173/395/28
f 116/413/5 176/871/5 175/414/5
f 179/416/56 181/422/56 182/417/56
f 185/419/56 183/872/56 184/420/56
f 179/416/56 185/419/56 186/421/56
f 158/423/51 182/873/51 181/424/51
f 168/426/170 181/874/170 186/427/170
f 154/428/59 161/378/59 179/429/59
f 166/304/59 185/432/59 179/429/59
f 154/302/60 180/875/60 182/425/60
f 155/306/59 183/876/59 185/432/59
f 226/433/42 220/877/42 122/434/42
f 287/436/45 474/443/45 473/437/45
f 468/439/42 226/433/42 118/435/42
f 169/440/61 170/449/61 476/441/61
f 474/443/45 475/391/45 290/393/45
f 169/440/171 288/442/171 471/444/171
f 271/446/18 282/529/18 283/447/18
f 170/449/62 116/878/62 469/450/62
f 119/451/5 223/515/5 217/452/5
f 278/454/5 126/333/5 110/334/5
f 263/456/18 271/446/18 274/448/18
f 276/458/5 277/532/5 270/459/5
f 103/453/5 217/452/5 213/461/5
f 269/455/5 110/334/5 90/343/5
f 57/148/13 54/363/13 238/462/13
f 297/232/167 87/265/167 264/267/167
f 45/465/13 18/156/13 204/155/13
f 243/466/12 246/562/12 233/467/12
f 58/162/13 210/161/13 207/97/13
f 267/460/5 270/459/5 262/469/5
f 214/275/5 260/274/5 322/470/5
f 227/472/13 56/158/13 60/157/13
f 12/41/12 199/503/12 196/474/12
f 234/475/2 19/374/2 338/375/2
f 345/477/172 326/879/172 11/478/172
f 328/373/3 25/372/3 245/480/3
f 240/482/67 247/559/67 250/483/67
f 337/73/20 22/72/20 239/485/20
f 253/487/13 258/555/13 208/141/13
f 317/488/31 263/456/31 266/457/31
f 365/490/7 368/558/7 250/491/7
f 60/157/13 57/148/13 255/463/13
f 361/493/20 240/614/20 241/494/20
f 360/496/173 246/550/173 243/497/173
f 197/499/174 202/504/174 11/105/174
f 232/500/2 233/619/2 356/501/2
f 200/43/12 195/45/12 196/474/12
f 202/504/71 197/499/71 198/11/71
f 202/479/7 201/20/7 346/506/7
f 208/141/13 205/143/13 206/230/13
f 206/507/18 205/656/18 397/508/18
f 347/79/3 200/78/3 199/510/3
f 382/511/72 203/684/72 204/512/72
f 209/222/13 210/161/13 204/155/13
f 209/222/13 208/141/13 207/97/13
f 212/159/18 211/145/18 215/287/18
f 218/273/5 214/275/5 213/461/5
f 216/268/18 215/287/18 221/326/18
f 224/307/5 218/273/5 217/452/5
f 222/514/18 221/326/18 437/516/18
f 418/518/5 224/307/5 223/515/5
f 287/520/18 471/880/18 189/521/18
f 279/523/5 453/880/5 191/524/5
f 219/526/18 465/718/18 194/527/18
f 282/529/18 271/446/18 272/266/18
f 284/530/18 273/325/18 274/448/18
f 267/460/5 268/308/5 275/531/5
f 269/455/5 270/459/5 277/532/5
f 271/446/18 263/456/18 264/267/18
f 273/325/18 265/286/18 266/457/18
f 259/88/5 260/274/5 268/308/5
f 261/386/5 262/469/5 270/459/5
f 237/533/18 238/683/18 399/534/18
f 235/536/18 236/685/18 400/537/18
f 385/539/5 229/654/5 230/540/5
f 386/542/5 227/682/5 228/543/5
f 257/46/13 258/555/13 253/487/13
f 255/463/13 256/556/13 251/91/13
f 229/220/13 254/92/13 253/487/13
f 252/473/13 251/91/13 228/219/13
f 419/545/5 276/458/5 275/531/5
f 420/547/5 278/454/5 277/532/5
f 357/498/14 243/497/14 244/549/14
f 359/481/3 245/480/3 246/550/3
f 282/529/18 281/297/18 443/551/18
f 284/530/18 283/447/18 444/553/18
f 236/48/13 235/142/13 258/555/13
f 238/462/13 237/47/13 256/556/13
f 247/492/7 248/81/7 366/557/7
f 249/21/7 250/491/7 368/558/7
f 247/559/67 240/482/67 239/70/67
f 249/10/67 242/12/67 241/484/67
f 243/466/12 232/468/12 231/44/12
f 234/85/12 233/467/12 246/562/12
f 4/564/2 196/621/2 352/565/2
f 220/567/5 464/881/5 463/568/5
f 280/570/5 456/882/5 192/571/5
f 285/573/18 286/882/18 187/574/18
f 323/387/5 324/89/5 262/469/5
f 321/90/5 322/470/5 260/274/5
f 265/286/18 319/144/18 320/489/18
f 263/456/31 317/488/31 318/464/31
f 315/471/5 316/64/5 213/461/5
f 212/159/97 313/130/97 314/146/97
f 317/488/175 320/489/175 400/537/175
f 382/511/5 315/471/5 322/470/5
f 297/232/73 318/464/73 399/534/73
f 386/542/5 323/387/5 298/347/5
f 293/349/73 312/233/73 380/578/73
f 396/580/74 311/238/74 296/348/74
f 392/582/75 395/587/75 310/250/75
f 376/577/5 298/347/5 309/253/5
f 300/210/28 291/257/28 369/584/28
f 379/583/5 309/253/5 292/255/5
f 395/587/75 373/674/75 295/588/75
f 394/589/76 372/672/76 294/590/76
f 388/591/77 302/860/77 304/245/77
f 371/593/78 374/883/78 296/594/78
f 389/596/176 303/234/176 311/238/176
f 390/592/77 304/245/77 303/234/77
f 312/233/73 297/232/73 375/576/73
f 372/597/75 391/598/75 305/226/75
f 391/598/75 392/582/75 306/224/75
f 393/599/76 307/214/76 302/218/76
f 394/589/76 308/247/76 307/214/76
f 301/213/28 299/211/28 377/601/28
f 299/211/28 300/210/28 378/585/28
f 319/144/18 314/146/18 397/508/18
f 313/130/18 301/132/18 387/603/18
f 385/539/5 321/90/5 324/89/5
f 369/604/5 291/65/5 316/64/5
f 79/605/11 83/884/11 295/606/11
f 403/608/5 331/566/5 352/565/5
f 446/609/79 367/19/79 368/558/79
f 445/611/79 365/490/79 366/557/79
f 242/613/20 363/25/20 364/495/20
f 240/614/20 361/493/20 362/486/20
f 359/481/81 360/496/81 422/615/81
f 357/498/81 358/77/81 421/617/81
f 355/476/2 356/501/2 233/619/2
f 353/502/2 354/83/2 231/620/2
f 351/84/2 352/565/2 196/621/2
f 197/622/9 349/74/9 350/27/9
f 347/79/81 348/52/81 416/623/81
f 435/625/79 345/477/79 346/506/79
f 419/545/5 353/502/5 356/501/5
f 441/618/81 422/615/81 360/496/81
f 361/493/18 364/495/18 444/553/18
f 426/610/79 368/558/79 365/490/79
f 337/73/18 362/486/18 443/551/18
f 442/616/81 430/631/81 328/373/81
f 428/628/79 326/879/79 345/477/79
f 420/547/5 355/476/5 338/375/5
f 410/629/5 338/375/5 344/6/5
f 430/631/81 434/650/81 343/9/81
f 433/632/79 342/60/79 336/368/79
f 333/366/18 341/71/18 413/634/18
f 14/636/83 335/885/83 332/637/83
f 339/127/177 340/3/177 412/639/177
f 325/125/178 339/127/178 411/640/178
f 432/642/179 330/18/179 329/118/179
f 431/643/180 329/118/180 326/115/180
f 418/518/5 351/84/5 354/83/5
f 425/612/79 366/557/79 327/80/79
f 436/624/81 421/617/81 358/77/81
f 349/74/18 325/76/18 427/646/18
f 341/71/18 337/73/18 409/627/18
f 429/645/79 327/80/79 342/60/79
f 406/647/81 416/623/81 348/52/81
f 408/648/87 336/833/87 333/28/87
f 363/25/18 350/27/18 437/516/18
f 415/626/79 346/506/79 367/19/79
f 432/642/86 406/886/86 334/16/86
f 434/650/81 407/691/81 335/7/81
f 414/630/5 344/6/5 332/5/5
f 340/3/28 331/2/28 403/652/28
f 51/653/5 369/604/5 398/513/5
f 229/654/5 385/539/5 402/544/5
f 381/509/18 387/603/18 50/655/18
f 384/538/18 397/508/18 205/656/18
f 377/601/28 378/585/28 58/657/28
f 387/602/28 377/601/28 49/658/28
f 35/660/88 394/589/88 393/599/88
f 36/661/88 393/599/88 388/600/88
f 24/663/181 23/679/181 392/582/181
f 9/664/182 24/663/182 391/598/182
f 130/665/18 380/578/18 375/576/18
f 26/667/183 390/592/183 389/596/183
f 27/668/184 389/596/184 396/580/184
f 15/32/11 374/887/11 371/670/11
f 10/671/185 388/591/185 390/592/185
f 35/660/88 9/888/88 372/672/88
f 135/673/186 13/889/186 373/674/186
f 133/675/5 379/583/5 370/586/5
f 378/585/28 369/584/28 51/677/28
f 376/577/5 379/583/5 133/675/5
f 23/679/187 135/673/187 395/587/187
f 132/669/188 396/580/188 374/581/188
f 371/579/18 380/578/18 130/665/18
f 227/682/5 386/542/5 376/577/5
f 375/576/18 399/534/18 238/683/18
f 203/684/5 382/511/5 401/541/5
f 383/535/18 400/537/18 236/685/18
f 323/387/5 386/542/5 402/544/5
f 321/90/5 385/539/5 401/541/5
f 384/538/18 400/537/18 320/489/18
f 383/535/73 399/534/73 318/464/73
f 315/471/5 382/511/5 398/513/5
f 381/509/18 397/508/18 314/146/18
f 292/686/98 295/638/98 373/687/98
f 412/639/28 403/652/28 119/689/28
f 160/329/5 414/630/5 404/651/5
f 159/328/99 123/864/99 407/691/99
f 118/692/100 122/890/100 406/693/100
f 285/695/189 465/718/189 415/696/189
f 424/554/18 437/516/18 221/326/18
f 124/698/11 408/648/11 405/649/11
f 122/699/190 220/567/190 416/700/190
f 115/702/103 429/645/103 433/632/103
f 413/634/18 409/627/18 125/310/18
f 417/517/18 427/646/18 113/269/18
f 466/569/191 280/891/191 421/703/191
f 471/705/192 425/612/192 429/645/192
f 224/307/5 418/518/5 439/546/5
f 117/706/100 431/709/100 428/707/100
f 118/692/100 432/694/100 431/709/100
f 427/641/28 411/640/28 127/295/28
f 411/640/28 412/639/28 128/331/28
f 405/635/18 413/634/18 157/342/18
f 158/339/103 433/632/103 408/633/103
f 116/711/99 159/328/99 434/650/99
f 126/333/5 410/629/5 414/630/5
f 278/454/5 420/547/5 410/629/5
f 114/712/193 428/892/193 435/713/193
f 469/714/194 116/711/194 430/631/194
f 409/627/18 443/551/18 281/297/18
f 286/715/195 426/610/195 445/611/195
f 423/552/18 444/553/18 283/447/18
f 470/717/196 279/720/196 422/615/196
f 276/458/5 419/545/5 440/548/5
f 219/526/197 435/713/197 415/696/197
f 436/704/198 416/700/198 220/567/198
f 441/618/199 421/617/199 280/719/199
f 442/616/193 422/615/193 279/720/193
f 287/716/102 445/611/102 425/612/102
f 285/721/200 446/609/200 426/610/200
f 119/451/5 403/608/5 438/519/5
f 424/554/18 444/553/18 364/495/18
f 423/552/18 443/551/18 362/486/18
f 355/476/5 420/547/5 440/548/5
f 353/502/5 419/545/5 439/546/5
f 351/84/5 418/518/5 438/519/5
f 417/517/18 437/516/18 350/27/18
f 332/637/87 335/885/87 407/722/87
f 461/723/116 193/893/116 194/724/116
f 290/726/117 470/894/117 192/727/117
f 475/729/201 455/738/201 453/730/201
f 474/732/202 287/895/202 448/733/202
f 225/735/120 466/796/120 463/736/120
f 474/732/203 450/734/203 455/738/203
f 220/739/122 226/766/122 459/740/122
f 461/723/123 462/725/123 460/737/123
f 464/743/124 459/742/124 460/737/124
f 457/728/45 192/727/45 456/744/45
f 454/746/204 191/775/204 453/747/204
f 451/749/45 457/728/45 458/745/45
f 449/751/205 454/746/205 455/748/205
f 448/753/206 447/756/206 449/751/206
f 188/754/45 187/770/45 451/749/45
f 288/755/207 449/751/207 447/756/207
f 473/758/129 290/726/129 457/728/129
f 285/759/130 188/896/130 452/760/130
f 289/762/131 472/761/131 452/760/131
f 280/764/132 289/762/132 458/763/132
f 226/766/208 468/769/208 461/767/208
f 219/768/209 193/897/209 461/767/209
f 473/758/135 451/749/135 187/770/135
f 225/735/210 460/737/210 462/725/210
f 288/755/211 476/774/211 454/746/211
f 465/773/212 467/772/212 462/725/212
f 476/774/213 469/898/213 191/775/213
f 495/776/124 499/773/124 500/777/124
f 522/779/117 511/899/117 490/780/117
f 510/782/140 523/791/140 488/783/140
f 515/785/214 480/900/214 482/786/214
f 507/788/215 504/797/215 497/789/215
f 523/791/216 519/787/216 482/786/216
f 508/792/217 493/818/217 498/793/217
f 493/795/218 495/776/218 496/778/218
f 498/796/219 493/795/219 494/790/219
f 491/781/45 490/780/45 489/797/45
f 487/799/45 486/826/45 485/800/45
f 483/802/45 491/781/45 492/798/45
f 487/799/220 488/801/220 482/804/220
f 482/804/148 480/901/148 479/806/148
f 478/807/45 477/821/45 483/802/45
f 516/808/221 520/825/221 481/805/221
f 518/809/129 522/779/129 491/781/129
f 513/810/130 478/389/130 484/811/130
f 521/813/131 517/812/131 484/811/131
f 512/815/132 521/813/132 492/814/132
f 506/817/222 495/820/222 493/818/222
f 502/819/151 499/902/151 495/820/151
f 518/809/135 483/802/135 477/821/135
f 505/823/223 507/788/223 494/790/223
f 524/824/224 487/799/224 481/805/224
f 505/823/154 496/778/154 500/777/154
f 524/824/155 509/903/155 486/826/155
