# Blender 4.2.1 LTS
# www.blender.org
mtllib leaflet_holder_1.mtl
g leaflet_holder_1_Mesh
v 0.406717 0.185128 0.101480
v 0.427689 0.984410 0.117848
v -0.368467 0.185128 0.197068
v -0.384835 0.981322 0.218040
v 0.360540 0.185128 -0.272995
v 0.400548 0.963855 -0.102260
v -0.414643 0.185128 -0.177407
v -0.411977 0.981322 -0.002068
v -0.363988 0.206366 0.194071
v 0.401644 0.206366 0.099662
v 0.393344 0.984410 0.095876
v -0.356857 0.981322 0.188382
v -0.411473 0.211139 -0.191019
v -0.380815 0.981322 -0.005911
v 0.354158 0.211139 -0.285428
v 0.369386 0.963855 -0.098417
v -0.407697 0.185128 -0.121078
v -0.375775 0.185128 0.137803
v -0.402848 0.981322 0.071960
v 0.399409 0.185128 0.042216
v 0.367486 0.185128 -0.216665
v 0.409676 0.979645 -0.028232
v -0.402205 0.209548 -0.115864
v -0.373301 0.207957 0.118544
v -0.371686 0.981322 0.068117
v 0.392330 0.207957 0.024134
v 0.363426 0.209548 -0.210273
v 0.378514 0.979645 -0.024389
v -0.306391 0.185128 0.189413
v 0.344641 0.185128 0.109135
v 0.328273 0.963590 0.130108
v -0.285419 1.003807 0.205781
v 0.298465 0.185128 -0.265340
v -0.352568 0.185128 -0.185062
v -0.288018 0.206366 0.184703
v 0.325674 0.206366 0.109029
v 0.325089 0.963590 0.104292
v -0.288602 1.003807 0.179966
v 0.278189 0.211139 -0.276060
v -0.335503 0.211139 -0.200386
v 0.316360 0.207957 0.033502
v -0.297331 0.207957 0.109176
v 0.287456 0.209548 -0.200906
v -0.326236 0.209548 -0.125232
v -0.313699 0.185128 0.130149
v 0.337333 0.185128 0.049870
v -0.345622 0.185128 -0.128733
v 0.305411 0.185128 -0.209011
v 0.328273 0.185128 0.130108
v 0.427689 0.185128 0.117848
v -0.384835 0.185128 0.218040
v -0.335503 0.185128 -0.200386
v -0.434919 0.185128 -0.188127
v 0.387896 0.185128 -0.204865
v 0.377605 0.185128 -0.288319
v -0.424629 0.185128 -0.104673
v 0.288479 0.185128 -0.192606
v -0.285419 0.185128 0.205781
v 0.278189 0.185128 -0.276060
v -0.325212 0.185128 -0.116932
v 0.344641 0.000000 0.109135
v 0.406717 0.000000 0.101480
v -0.375775 0.000000 0.137803
v -0.368467 0.000000 0.197068
v -0.352568 0.000000 -0.185062
v -0.414643 0.000000 -0.177407
v 0.367486 0.000000 -0.216665
v 0.360540 0.000000 -0.272995
v -0.407697 0.000000 -0.121078
v 0.399409 0.000000 0.042216
v 0.337333 0.000000 0.049870
v 0.305411 0.000000 -0.209011
v -0.306391 0.000000 0.189413
v 0.298465 0.000000 -0.265340
v -0.313699 0.000000 0.130149
v -0.345622 0.000000 -0.128733
v 0.427689 0.583504 0.117848
v -0.384835 0.583504 0.218040
v -0.412381 0.583504 -0.005349
v 0.400144 0.583504 -0.105541
v 0.397494 0.583504 0.097769
v -0.360422 0.583504 0.191227
v -0.385077 0.583504 -0.008716
v 0.372839 0.583504 -0.102174
v 0.382372 0.583504 -0.024865
v 0.388473 0.583504 0.024610
v 0.409676 0.583504 -0.028232
v -0.369443 0.583504 0.118068
v -0.375544 0.583504 0.068593
v -0.402848 0.583504 0.071960
v 0.325382 0.583504 0.106661
v -0.288310 0.583504 0.182335
v 0.328273 0.583504 0.130108
v -0.285419 0.583504 0.205781
v 0.427689 0.621226 0.117848
v 0.397278 0.621226 0.097670
v 0.367162 0.621226 -0.146562
v 0.388272 0.621226 0.024635
v -0.369243 0.621226 0.118043
v -0.390353 0.621226 -0.053153
v 0.325366 0.621226 0.106538
v -0.288325 0.621226 0.182211
v -0.384835 0.621226 0.218040
v -0.427101 0.621226 -0.124723
v 0.385424 0.621226 -0.224915
v -0.360237 0.621226 0.191079
v -0.399596 0.621226 -0.128114
v 0.357919 0.621226 -0.221523
v 0.394667 0.621226 -0.149953
v -0.417858 0.621226 -0.049762
v 0.328273 0.621226 0.130108
v -0.285419 0.621226 0.205781
v 0.427689 0.650248 0.117848
v 0.397155 0.811384 0.097614
v 0.367018 0.650248 -0.146790
v -0.390268 0.650248 -0.053410
v 0.325358 0.811384 0.106467
v -0.288334 0.811384 0.182141
v -0.384835 0.650248 0.218040
v -0.427101 0.650248 -0.124723
v 0.385424 0.650248 -0.224915
v -0.360131 0.811384 0.190994
v -0.399482 0.650248 -0.128129
v 0.357804 0.650248 -0.221509
v 0.394637 0.650248 -0.150196
v -0.417888 0.650248 -0.050004
v 0.328273 0.650248 0.130108
v -0.285419 0.650248 0.205781
v -0.407549 0.981322 0.033842
v 0.382172 0.185128 -0.251282
v -0.376387 0.981322 0.030000
v 0.358725 0.210343 -0.248391
v -0.430353 0.185128 -0.151090
v 0.404976 0.963855 -0.066350
v -0.406906 0.210343 -0.153982
v 0.373814 0.963855 -0.062507
v -0.330936 0.210343 -0.163349
v 0.282756 0.210343 -0.239023
v -0.330936 0.185128 -0.163349
v 0.282756 0.185128 -0.239023
v 0.363502 0.185128 -0.248980
v -0.411682 0.185128 -0.153393
v -0.349606 0.185128 -0.161047
v 0.301426 0.185128 -0.241325
v 0.363502 0.000000 -0.248980
v -0.411682 0.000000 -0.153393
v -0.349606 0.000000 -0.161047
v 0.301426 0.000000 -0.241325
v 0.404976 0.583504 -0.066350
v 0.377672 0.583504 -0.062983
v -0.380244 0.583504 0.030475
v -0.407549 0.583504 0.033842
v 0.389959 0.621226 -0.188132
v 0.362454 0.621226 -0.184740
v -0.395061 0.621226 -0.091332
v -0.422565 0.621226 -0.087940
v 0.389944 0.650248 -0.188253
v 0.362325 0.650248 -0.184847
v -0.394961 0.650248 -0.091467
v -0.422580 0.650248 -0.088061
v 0.290579 0.621226 -0.175877
v 0.316365 0.621226 0.033502
v 0.295282 0.621226 -0.137698
v -0.319358 0.621226 -0.061908
v -0.297569 0.621226 0.109205
v -0.324185 0.621226 -0.100071
v -0.334958 0.660693 -0.097033
v 0.310380 0.661154 -0.172631
v 0.295226 0.650248 -0.137938
v -0.319318 0.650248 -0.062159
v 0.098842 0.684269 -0.157423
v 0.364274 0.721916 -0.169036
v 0.159510 0.695348 -0.137938
v 0.367018 0.721916 -0.146790
v -0.393011 0.713090 -0.075656
v -0.390268 0.713090 -0.053410
v -0.322175 0.721916 -0.084390
v -0.319318 0.721916 -0.062159
v 0.289426 0.621186 -0.185229
v 0.361301 0.621186 -0.194092
v 0.305330 0.650535 -0.186684
v 0.361172 0.650209 -0.194199
v -0.396214 0.621186 -0.100683
v -0.396114 0.650209 -0.100819
v -0.325339 0.621186 -0.109423
v -0.339514 0.651543 -0.108015
v 0.380821 0.811317 -0.034850
v 0.382108 0.817118 -0.024413
v 0.371777 0.770555 -0.108191
v 0.373128 0.776643 -0.097237
v -0.384158 0.776643 -0.003856
v -0.385508 0.770555 -0.014810
v -0.375178 0.817118 0.068967
v -0.376465 0.811317 0.058530
v -0.367356 0.852375 0.132404
v -0.366176 0.857606 0.141967
v 0.391110 0.857606 0.048587
v 0.389930 0.852375 0.039024
v -0.397348 0.981322 0.116569
v -0.396147 0.981322 0.126306
v 0.416378 1.003807 0.026114
v 0.415177 1.003807 0.016378
v -0.364989 0.981322 0.122428
v -0.366181 0.981322 0.112765
v 0.384020 1.003807 0.020258
v 0.385211 1.003807 0.029922
v -0.397356 0.185128 0.116499
v -0.396139 0.185128 0.126369
v 0.415168 0.185128 0.016307
v 0.416386 0.185128 0.026178
v 0.316976 0.185128 0.038495
v 0.315751 0.185128 0.028562
v -0.297940 0.185128 0.104236
v -0.296715 0.185128 0.114169
v 0.415170 0.583504 0.016316
v 0.416385 0.583504 0.026171
v -0.396140 0.583504 0.126363
v -0.397355 0.583504 0.116507
v 0.415171 0.621226 0.016329
v 0.416383 0.621226 0.026159
v -0.396141 0.621226 0.126351
v -0.397353 0.621226 0.116521
v 0.387569 0.769450 0.019873
v 0.388748 0.774682 0.029436
v -0.368538 0.774682 0.122817
v -0.369717 0.769450 0.113254
v 0.415174 0.650248 0.016350
v 0.416381 0.650248 0.026140
v -0.396144 0.650248 0.126332
v -0.397351 0.650248 0.116541
v 0.315775 0.769467 0.028756
v 0.316947 0.774666 0.038261
v -0.298136 0.769467 0.104457
v -0.296937 0.774666 0.113959
v -0.415386 0.185128 -0.029714
v -0.414116 0.185128 -0.019420
v -0.406378 0.185128 0.043335
v -0.405121 0.185128 0.053533
v -0.398184 0.981322 0.109789
v -0.399379 0.981322 0.100098
v -0.400235 0.981322 0.093153
v -0.401395 0.981322 0.083750
v 0.407404 0.185128 -0.046659
v 0.406147 0.185128 -0.056857
v 0.398408 0.185128 -0.119612
v 0.397139 0.185128 -0.129906
v 0.411130 0.987346 -0.016442
v 0.412290 1.003807 -0.007039
v 0.413146 1.003807 -0.000094
v 0.414341 1.003807 0.009597
v -0.368204 0.981322 0.096356
v -0.367034 0.981322 0.105846
v -0.370217 0.981322 0.080037
v -0.369089 0.981322 0.089181
v 0.381112 1.003807 -0.003326
v 0.379984 0.987346 -0.012470
v 0.383167 1.003807 0.013339
v 0.381996 1.003807 0.003849
v -0.314701 0.185128 -0.031691
v -0.315968 0.185128 -0.041962
v -0.305705 0.185128 0.041266
v -0.306960 0.185128 0.031084
v 0.297724 0.185128 -0.117635
v 0.298990 0.185128 -0.107365
v 0.306731 0.185128 -0.044590
v 0.307987 0.185128 -0.034408
v -0.399412 0.583504 0.099829
v -0.398151 0.583504 0.110057
v -0.401452 0.583504 0.083288
v -0.400178 0.583504 0.093616
v 0.412347 0.583504 -0.006576
v 0.411073 0.583504 -0.016904
v 0.414374 0.583504 0.009865
v 0.413113 0.583504 -0.000362
v -0.406367 0.621226 0.043421
v -0.405131 0.621226 0.053447
v -0.415353 0.621226 -0.029453
v -0.414149 0.621226 -0.019682
v 0.398376 0.621226 -0.119874
v 0.397171 0.621226 -0.129645
v 0.407394 0.621226 -0.046745
v 0.406157 0.621226 -0.056771
v -0.405151 0.650248 0.053287
v -0.406368 0.650248 0.043419
v -0.414178 0.650248 -0.019919
v -0.415364 0.650248 -0.029539
v -0.387827 0.687823 -0.033612
v -0.386476 0.693911 -0.022658
v -0.378783 0.728585 0.039729
v -0.377496 0.734386 0.050166
v 0.397161 0.650248 -0.129731
v 0.398347 0.650248 -0.120111
v 0.406157 0.650248 -0.056773
v 0.407374 0.650248 -0.046905
v 0.379789 0.734386 -0.043215
v 0.378502 0.728585 -0.053652
v 0.370810 0.693911 -0.116038
v 0.369459 0.687823 -0.126992
v 0.307986 0.734351 -0.034424
v 0.306715 0.728620 -0.044736
v 0.299006 0.693866 -0.107267
v 0.297675 0.687868 -0.118057
v -0.306111 0.734351 0.041299
v -0.307413 0.728620 0.030992
v -0.315307 0.693866 -0.031517
v -0.316669 0.687868 -0.042303
v -0.384835 0.450760 0.218040
v -0.412381 0.450760 -0.015930
v 0.400144 0.450760 -0.105541
v -0.362205 0.450760 0.192649
v -0.387006 0.450760 -0.019059
v 0.374768 0.450760 -0.102412
v 0.409412 0.450760 -0.030379
v -0.403113 0.407461 0.034030
v 0.328273 0.450760 0.130108
v -0.285419 0.450760 0.205781
v 0.427689 0.450760 0.117848
v 0.399569 0.450760 0.098715
v 0.384036 0.450760 -0.027250
v 0.396690 0.450760 0.075366
v -0.365084 0.450760 0.169300
v -0.377737 0.407461 0.030901
v 0.325528 0.450760 0.107845
v -0.288164 0.450760 0.183519
v -0.407813 0.505542 0.012025
v -0.382438 0.505542 0.008896
v 0.379336 0.450760 -0.065368
v 0.404711 0.450760 -0.068497
v 0.422673 0.450760 0.077168
v 0.421457 0.450760 0.067305
v -0.391068 0.450760 0.167497
v -0.389852 0.450760 0.177360
v 0.413709 0.450760 0.004473
v 0.412438 0.450760 -0.005838
v 0.419221 0.450760 0.049170
v 0.417961 0.450760 0.038957
v -0.394563 0.450760 0.139149
v -0.393304 0.450760 0.149362
v -0.400087 0.450760 0.094354
v -0.398816 0.450760 0.104664
v 0.427689 0.907727 0.117848
v 0.395250 0.907727 0.096745
v 0.380822 0.907727 -0.020254
v -0.372921 0.907727 0.072689
v 0.325224 0.907727 0.105380
v -0.288468 0.907727 0.181053
v -0.384835 0.907727 0.218040
v -0.411977 0.907727 -0.002068
v 0.400548 0.907727 -0.102260
v -0.358494 0.907727 0.189688
v -0.382586 0.907727 -0.005692
v 0.371157 0.907727 -0.098636
v 0.410213 0.907727 -0.023878
v -0.402312 0.907727 0.076314
v 0.328273 0.907727 0.130108
v -0.285419 0.907727 0.205781
v 0.405517 0.907727 -0.061965
v 0.376126 0.907727 -0.058341
v -0.377617 0.907727 0.034602
v -0.407008 0.907727 0.038226
v 0.393268 0.907727 0.080673
v 0.392082 0.907727 0.071060
v -0.361661 0.907727 0.164003
v -0.360475 0.907727 0.173616
v 0.422667 0.907727 0.077121
v 0.421463 0.907727 0.067357
v -0.391061 0.907727 0.167549
v -0.389857 0.907727 0.177313
v -0.394542 0.907727 0.139325
v -0.393336 0.907727 0.149105
v -0.400048 0.907727 0.094672
v -0.398875 0.907727 0.104184
v -0.365162 0.907727 0.135609
v -0.363934 0.907727 0.145573
v -0.370690 0.907727 0.090779
v -0.369451 0.907727 0.100828
v 0.413650 0.907727 0.003992
v 0.412477 0.907727 -0.005520
v 0.419189 0.907727 0.048913
v 0.417983 0.907727 0.039133
v 0.384292 0.907727 0.007885
v 0.383053 0.907727 -0.002164
v 0.389810 0.907727 0.052629
v 0.388581 0.907727 0.042666
v -0.384835 0.292820 0.218040
v -0.434919 0.333929 -0.188127
v 0.377605 0.292820 -0.288319
v -0.363222 0.292820 0.193461
v -0.410645 0.333929 -0.191121
v 0.353331 0.292820 -0.285326
v 0.387215 0.292820 -0.210383
v -0.425309 0.374224 -0.037732
v 0.328273 0.292820 0.130108
v -0.285419 0.292820 0.205781
v -0.430010 0.292820 -0.148309
v 0.382515 0.292820 -0.248501
v 0.419084 0.292820 0.048061
v -0.394657 0.292820 0.138386
v 0.404975 0.292820 -0.066359
v 0.412476 0.292820 -0.005532
v -0.401308 0.292820 0.084455
v -0.408820 0.292820 0.023532
v 0.427689 0.292820 0.117848
v 0.400753 0.292820 0.099255
v 0.362941 0.292820 -0.207390
v 0.394201 0.292820 0.046122
v -0.369774 0.292820 0.140327
v -0.401035 0.374224 -0.040725
v 0.325611 0.292820 0.108521
v -0.288080 0.292820 0.184195
v -0.405735 0.333929 -0.151303
v 0.358241 0.292820 -0.245508
v 0.417867 0.292820 0.038194
v -0.393441 0.292820 0.148253
v 0.403705 0.292820 -0.076660
v 0.411217 0.292820 -0.015737
v -0.400049 0.292820 0.094660
v -0.407550 0.292820 0.033833
v -0.384835 0.752448 0.218040
v -0.427101 0.752448 -0.124723
v 0.385424 0.752448 -0.224915
v -0.359646 0.752448 0.190607
v -0.398957 0.752448 -0.128193
v 0.357279 0.752448 -0.221444
v 0.395236 0.752448 -0.145338
v -0.417289 0.752448 -0.045146
v 0.328273 0.752448 0.130108
v -0.285419 0.752448 0.205781
v 0.390542 0.752448 -0.183404
v -0.421982 0.752448 -0.083212
v 0.388906 0.752448 0.035042
v -0.366148 0.752448 0.137871
v 0.418244 0.752448 0.041249
v -0.395487 0.752448 0.131658
v -0.402863 0.752448 0.071841
v -0.410825 0.752448 0.007271
v -0.373477 0.752448 0.078440
v -0.381431 0.752448 0.013938
v 0.402882 0.752448 -0.083332
v 0.410875 0.752448 -0.018509
v 0.373488 0.752448 -0.089999
v 0.381489 0.752448 -0.025108
v 0.427689 0.752448 0.117848
v 0.396590 0.752448 0.097356
v 0.367092 0.752448 -0.141868
v -0.389144 0.752448 -0.048617
v 0.325318 0.752448 0.106145
v -0.288373 0.752448 0.181819
v 0.362398 0.752448 -0.179934
v -0.393838 0.752448 -0.086683
v 0.390087 0.752448 0.044620
v -0.367330 0.752448 0.128293
v 0.417038 0.752448 0.031466
v -0.394281 0.752448 0.141441
v -0.401649 0.752448 0.081683
v -0.409643 0.752448 0.016859
v -0.374747 0.752448 0.068143
v -0.382748 0.752448 0.003252
v 0.401700 0.752448 -0.092921
v 0.409662 0.752448 -0.028351
v 0.374805 0.752448 -0.079313
v 0.382759 0.752448 -0.014811
vn 0.1224 -0.0000 0.9925
vn -0.9925 -0.0000 0.1224
vn 0.9922 -0.0242 -0.1223
vn -0.0000 1.0000 -0.0000
vn -0.1187 -0.0114 -0.9929
vn -0.9923 -0.0186 0.1224
vn 0.0026 0.9998 0.0212
vn 0.9925 -0.0000 -0.1224
vn -0.1224 -0.0000 -0.9925
vn -0.2414 0.9433 -0.2278
vn -0.0000 -1.0000 -0.0000
vn -0.0465 0.9249 -0.3774
vn 0.0026 0.9998 0.0207
vn 0.0008 1.0000 0.0067
vn -0.9920 -0.0318 0.1223
vn -0.0666 0.8391 -0.5399
vn -0.9922 -0.0248 0.1223
vn -0.1669 0.9508 0.2609
vn 0.0644 0.9979 -0.0079
vn -0.1181 -0.0142 -0.9929
vn -0.1224 -0.0196 -0.9923
vn -0.1224 -0.0090 -0.9924
vn 0.9924 -0.0146 -0.1224
vn -0.9924 -0.0146 0.1224
vn -0.0366 -0.9542 -0.2970
vn 0.9925 0.0059 -0.1224
vn -0.9816 -0.0152 0.1901
vn -0.1224 -0.0033 -0.9925
vn 0.9925 -0.0054 -0.1224
vn -0.9925 -0.0054 0.1224
vn -0.0577 0.8820 -0.4677
vn -0.9925 0.0040 0.1224
vn -0.1802 0.2166 -0.9595
vn -0.0591 0.8756 -0.4794
vn 0.9925 -0.0040 -0.1224
vn -0.9925 -0.0040 0.1224
vn -0.9935 -0.0226 0.1116
vn 0.9905 0.0169 -0.1364
vn 0.0025 0.9998 0.0206
vn -0.0237 0.9997 -0.0013
vn -0.9983 -0.0110 0.0580
vn 0.1563 -0.0000 0.9877
vn -0.1263 0.9919 0.0156
vn -0.0207 0.8954 -0.4447
vn -0.1215 0.9925 0.0156
vn -0.1074 -0.3783 -0.9194
vn -0.1472 0.2294 -0.9621
vn 0.0307 0.0922 0.9953
vn -0.1334 -0.0043 -0.9911
vn -0.1260 -0.0042 -0.9920
vn -0.1211 0.0164 -0.9925
vn -0.0739 0.8083 -0.5842
vn 0.0005 -1.0000 0.0042
vn 0.9925 0.0040 -0.1224
vn -0.1080 0.4700 -0.8760
vn -0.1081 0.4689 -0.8766
vn -0.1073 0.4700 -0.8761
vn -0.9930 -0.0220 0.1160
vn -0.1417 0.9648 0.2215
vn 0.9922 -0.0242 -0.1224
vn -0.9922 -0.0224 0.1224
vn -0.1104 0.4884 -0.8656
vn -0.9579 0.0215 0.2863
vn -0.9925 -0.0070 0.1224
vn -0.8288 0.4669 -0.3085
vn -0.6987 0.4529 0.5538
vn 0.1087 -0.4590 0.8817
vn -0.1193 -0.2228 -0.9675
vn -0.1224 -0.0043 -0.9925
vn -0.0797 0.7591 -0.6461
vn 0.9925 -0.0070 -0.1224
vn 0.9961 -0.0137 -0.0868
vn -0.1220 0.0789 -0.9894
vn -0.9925 -0.0081 0.1224
vn 0.9925 -0.0081 -0.1224
vn 0.9924 -0.0081 -0.1224
vn -0.1224 -0.0050 -0.9925
vn -0.0958 0.6227 -0.7766
vn -0.1224 -0.0059 -0.9925
vn 0.9856 0.0024 -0.1691
vn 0.9924 -0.0096 -0.1224
vn -0.9924 -0.0100 0.1223
vn -0.9925 -0.0101 0.1222
vn -0.9925 -0.0098 0.1222
vn 0.9925 -0.0067 -0.1224
vn 0.9987 0.0147 -0.0478
vn -0.9925 -0.0102 0.1222
vn -0.0502 0.9121 -0.4069
vn 0.9925 -0.0052 -0.1224
vn 0.1224 -0.0055 0.9925
vn -0.9921 -0.0293 0.1223
vn -0.9924 -0.0090 0.1224
vn -0.9925 -0.0052 0.1224
vn -0.9920 -0.0311 0.1223
vn -0.9911 -0.0057 0.1330
vn 0.9934 -0.0174 -0.1131
vn 0.9924 -0.0082 -0.1224
vn -0.9914 -0.0139 0.1300
vn 0.9922 -0.0222 -0.1224
vn 0.9936 -0.0209 -0.1111
vn -0.9908 -0.0209 0.1336
vn 0.9941 -0.0657 -0.0861
vn 0.9932 -0.0120 -0.1158
vn -0.9916 -0.0120 0.1289
vn -0.9853 -0.0656 0.1580
vn -0.0692 0.8077 -0.5855
vn -0.1224 -0.0149 -0.9924
vn -0.3084 0.9505 0.0380
vn -0.9909 -0.0242 0.1322
vn -0.0683 0.8418 -0.5354
vn -0.9906 -0.0206 0.1355
vn -0.2876 0.9571 0.0355
vn -0.1231 -0.0114 -0.9923
vn 0.9956 0.0076 -0.0934
vn 0.9876 -0.0021 -0.1573
vn -0.9920 -0.0309 0.1223
vn -0.0592 0.1112 -0.9920
vn -0.1916 0.7917 -0.5801
vn 0.1148 0.3456 0.9313
vn -0.1443 0.9834 -0.1099
vn 0.0871 0.9961 -0.0112
vn -0.1218 0.9924 0.0150
vn -0.1464 0.2293 -0.9623
vn -0.1319 0.2457 -0.9603
vn -0.1224 0.0171 -0.9923
vn -0.1224 -0.0111 -0.9924
vn 0.1989 0.9796 -0.0287
vn -0.1087 0.4700 -0.8760
vn -0.9922 -0.0233 0.1223
vn 0.0340 0.9599 0.2781
vn -0.9887 -0.0153 0.1494
vn -0.1025 0.4989 -0.8606
vn -0.9987 0.0483 0.0154
vn -0.0420 0.9393 -0.3405
vn 0.9581 -0.1600 -0.2374
vn 0.9914 0.0486 -0.1219
vn 0.9924 -0.0098 -0.1226
vn -0.9924 -0.0098 0.1224
vn -0.9924 -0.0100 0.1224
vn -0.9924 -0.0096 0.1224
vn 0.9924 -0.0068 -0.1225
vn -0.9978 -0.0252 0.0609
vn 0.9924 -0.0067 -0.1225
vn -0.9924 -0.0101 0.1224
vn -0.9821 -0.0660 0.1766
vn 0.9936 -0.0208 -0.1109
vn -0.9912 -0.0174 0.1316
vn 0.9752 -0.2213 0.0028
vn -0.9924 -0.0082 0.1224
vn 0.9924 -0.0090 -0.1224
vn 0.9937 -0.0057 -0.1117
vn -0.9922 -0.0222 0.1224
vn 0.9933 -0.0139 -0.1148
vn 0.9922 -0.0238 -0.1224
vn -0.9922 -0.0238 0.1224
vn 0.9921 -0.0293 -0.1223
vn -0.0744 0.7811 -0.6199
vt 0.314008 0.081189
vt 0.311616 0.078696
vt 0.314008 0.078696
vt 0.315224 0.076113
vt 0.315583 0.077066
vt 0.315180 0.077066
vt 0.319303 0.085188
vt 0.319662 0.084235
vt 0.319705 0.085188
vt 0.328067 0.113552
vt 0.328438 0.111852
vt 0.328436 0.113552
vt 0.318564 0.085031
vt 0.315331 0.095056
vt 0.315331 0.085031
vt 0.323943 0.105399
vt 0.318748 0.109123
vt 0.318748 0.105399
vt 0.310703 0.075932
vt 0.312482 0.070729
vt 0.312859 0.070729
vt 0.310878 0.114788
vt 0.308868 0.110643
vt 0.310878 0.110643
vt 0.327229 0.072430
vt 0.325454 0.067227
vt 0.328235 0.072430
vt 0.313008 0.079854
vt 0.314612 0.074656
vt 0.314612 0.079854
vt 0.328382 0.085229
vt 0.328125 0.084469
vt 0.328382 0.084235
vt 0.323939 0.070919
vt 0.321988 0.069219
vt 0.323939 0.069219
vt 0.327315 0.092358
vt 0.328125 0.092123
vt 0.328382 0.092358
vt 0.333951 0.074644
vt 0.332548 0.070919
vt 0.333951 0.069219
vt 0.328438 0.070919
vt 0.328067 0.069219
vt 0.328436 0.069219
vt 0.322848 0.075753
vt 0.319424 0.070329
vt 0.322847 0.070329
vt 0.323939 0.111852
vt 0.326011 0.113552
vt 0.323939 0.113552
vt 0.321095 0.085188
vt 0.321245 0.084235
vt 0.321256 0.085188
vt 0.329777 0.114788
vt 0.325679 0.110643
vt 0.329777 0.110643
vt 0.325679 0.114788
vt 0.312946 0.110643
vt 0.314680 0.075932
vt 0.316997 0.070729
vt 0.316758 0.075932
vt 0.313383 0.080283
vt 0.313789 0.081600
vt 0.313383 0.081600
vt 0.325820 0.073209
vt 0.322587 0.083233
vt 0.322587 0.073209
vt 0.326011 0.111852
vt 0.326652 0.113552
vt 0.320940 0.067227
vt 0.323257 0.072430
vt 0.321179 0.072430
vt 0.328768 0.072430
vt 0.330990 0.067227
vt 0.330990 0.072430
vt 0.320815 0.085188
vt 0.320489 0.084235
vt 0.320999 0.085188
vt 0.313693 0.075932
vt 0.314918 0.070729
vt 0.314397 0.076113
vt 0.314072 0.077066
vt 0.313887 0.077066
vt 0.326652 0.069219
vt 0.326011 0.070919
vt 0.326011 0.069219
vt 0.314564 0.080283
vt 0.314516 0.081600
vt 0.314171 0.081600
vt 0.322848 0.109237
vt 0.319423 0.075753
vt 0.325820 0.083233
vt 0.322587 0.093258
vt 0.331361 0.074735
vt 0.327381 0.075753
vt 0.328127 0.074735
vt 0.325679 0.073014
vt 0.312946 0.077159
vt 0.312946 0.073014
vt 0.325679 0.077159
vt 0.329777 0.077159
vt 0.329777 0.073014
vt 0.332548 0.111852
vt 0.333951 0.108128
vt 0.333951 0.113552
vt 0.332548 0.108128
vt 0.328382 0.091364
vt 0.328125 0.091364
vt 0.310878 0.077159
vt 0.308868 0.073014
vt 0.310878 0.073014
vt 0.308868 0.077159
vt 0.323943 0.068094
vt 0.318748 0.071915
vt 0.318748 0.068191
vt 0.323943 0.071915
vt 0.324871 0.085031
vt 0.323561 0.095056
vt 0.323561 0.085031
vt 0.312240 0.109237
vt 0.310219 0.075753
vt 0.312240 0.075753
vt 0.314008 0.099073
vt 0.311616 0.096580
vt 0.314008 0.096580
vt 0.331361 0.071348
vt 0.332379 0.075753
vt 0.328771 0.097176
vt 0.330990 0.089987
vt 0.330990 0.097176
vt 0.310930 0.113643
vt 0.310219 0.109237
vt 0.310930 0.110256
vt 0.310930 0.071348
vt 0.312240 0.070329
vt 0.312240 0.071348
vt 0.314003 0.113643
vt 0.312240 0.114662
vt 0.312240 0.113643
vt 0.326839 0.075753
vt 0.323404 0.070329
vt 0.326839 0.070329
vt 0.327243 0.097176
vt 0.325450 0.089987
vt 0.328233 0.097176
vt 0.314003 0.074735
vt 0.314772 0.070329
vt 0.314772 0.075753
vt 0.331361 0.113643
vt 0.332379 0.109237
vt 0.332379 0.114662
vt 0.310219 0.070329
vt 0.327378 0.114662
vt 0.328127 0.113643
vt 0.314003 0.110256
vt 0.314772 0.114662
vt 0.325988 0.089987
vt 0.330990 0.087945
vt 0.331361 0.110256
vt 0.327381 0.109237
vt 0.312240 0.110256
vt 0.312240 0.074735
vt 0.313254 0.098434
vt 0.311944 0.095047
vt 0.313254 0.095047
vt 0.312911 0.099030
vt 0.316145 0.095643
vt 0.316145 0.099030
vt 0.316530 0.097746
vt 0.319763 0.094359
vt 0.319763 0.097746
vt 0.315331 0.098443
vt 0.316641 0.095056
vt 0.316641 0.098443
vt 0.319917 0.084343
vt 0.316530 0.094359
vt 0.316530 0.084343
vt 0.322256 0.089616
vt 0.320493 0.099641
vt 0.320493 0.089616
vt 0.319917 0.074318
vt 0.316530 0.074318
vt 0.315331 0.075006
vt 0.311944 0.085031
vt 0.311944 0.075006
vt 0.328894 0.073209
vt 0.327583 0.083233
vt 0.327583 0.073209
vt 0.318718 0.075006
vt 0.321798 0.085031
vt 0.318564 0.095056
vt 0.322570 0.079600
vt 0.319183 0.089616
vt 0.319183 0.079600
vt 0.314205 0.082657
vt 0.310818 0.092673
vt 0.310818 0.082657
vt 0.313892 0.092673
vt 0.312128 0.102698
vt 0.312128 0.092673
vt 0.322105 0.075006
vt 0.318718 0.085031
vt 0.322078 0.096580
vt 0.325382 0.081189
vt 0.325382 0.096580
vt 0.322078 0.099073
vt 0.325382 0.099073
vt 0.319444 0.109756
vt 0.312265 0.076272
vt 0.319444 0.076272
vt 0.312265 0.072337
vt 0.319444 0.072232
vt 0.319424 0.114662
vt 0.322847 0.114662
vt 0.323404 0.114662
vt 0.326839 0.109237
vt 0.326839 0.114662
vt 0.321047 0.089722
vt 0.320043 0.088405
vt 0.320537 0.088405
vt 0.321269 0.088405
vt 0.321280 0.089722
vt 0.327378 0.070329
vt 0.332379 0.070329
vt 0.320940 0.089987
vt 0.322903 0.097176
vt 0.320823 0.097176
vt 0.315035 0.100678
vt 0.312218 0.093489
vt 0.314918 0.093489
vt 0.316997 0.093489
vt 0.317114 0.100678
vt 0.316312 0.085339
vt 0.317802 0.091871
vt 0.316312 0.091871
vt 0.322210 0.082188
vt 0.323594 0.075006
vt 0.323594 0.082188
vt 0.309436 0.100678
vt 0.308226 0.093489
vt 0.312265 0.113690
vt 0.312265 0.109756
vt 0.328127 0.071348
vt 0.319640 0.089722
vt 0.319270 0.088405
vt 0.319662 0.088405
vt 0.315245 0.081600
vt 0.315616 0.080283
vt 0.315616 0.081600
vt 0.322078 0.081189
vt 0.325382 0.078696
vt 0.314612 0.094073
vt 0.316112 0.095643
vt 0.314612 0.095643
vt 0.321139 0.096580
vt 0.321139 0.099073
vt 0.310224 0.076272
vt 0.310224 0.072348
vt 0.323020 0.089987
vt 0.317487 0.087945
vt 0.323638 0.089987
vt 0.325987 0.087945
vt 0.330990 0.086373
vt 0.320537 0.088031
vt 0.321267 0.088031
vt 0.314397 0.079908
vt 0.314462 0.080283
vt 0.314398 0.080283
vt 0.316378 0.087945
vt 0.312218 0.091447
vt 0.321559 0.091447
vt 0.323642 0.091447
vt 0.314216 0.096372
vt 0.315706 0.089839
vt 0.315706 0.096372
vt 0.308233 0.091447
vt 0.310224 0.113679
vt 0.310224 0.109756
vt 0.325099 0.089987
vt 0.325451 0.087945
vt 0.318444 0.088031
vt 0.316441 0.079908
vt 0.315224 0.080283
vt 0.321139 0.081189
vt 0.322078 0.078696
vt 0.314612 0.088544
vt 0.316119 0.094073
vt 0.320417 0.096580
vt 0.320417 0.099073
vt 0.317482 0.086373
vt 0.318217 0.117085
vt 0.322096 0.113167
vt 0.322096 0.117085
vt 0.318408 0.070386
vt 0.318918 0.068814
vt 0.318918 0.070386
vt 0.319517 0.108087
vt 0.321600 0.111954
vt 0.319517 0.111954
vt 0.314397 0.079620
vt 0.315028 0.079908
vt 0.314295 0.087945
vt 0.316365 0.086373
vt 0.321600 0.108081
vt 0.330941 0.111954
vt 0.330941 0.074546
vt 0.334925 0.070623
vt 0.334925 0.074546
vt 0.313111 0.095643
vt 0.303966 0.149559
vt 0.303161 0.148754
vt 0.303966 0.148754
vt 0.308828 0.075156
vt 0.312427 0.071261
vt 0.312428 0.075166
vt 0.322010 0.087945
vt 0.325452 0.086373
vt 0.318077 0.088031
vt 0.318443 0.087743
vt 0.316443 0.079620
vt 0.316809 0.079908
vt 0.320417 0.081189
vt 0.321139 0.078696
vt 0.316062 0.079620
vt 0.316060 0.079908
vt 0.308832 0.112580
vt 0.312428 0.108663
vt 0.312427 0.112580
vt 0.325649 0.091447
vt 0.323649 0.089875
vt 0.325649 0.089875
vt 0.312288 0.087945
vt 0.314289 0.086373
vt 0.314843 0.080283
vt 0.318826 0.088031
vt 0.319136 0.093489
vt 0.318802 0.089987
vt 0.314864 0.081600
vt 0.320021 0.089722
vt 0.319136 0.100678
vt 0.318802 0.097176
vt 0.310818 0.102698
vt 0.325820 0.083233
vt 0.325820 0.073208
vt 0.319183 0.099641
vt 0.319183 0.089616
vt 0.318404 0.095056
vt 0.318404 0.098443
vt 0.315017 0.095047
vt 0.315017 0.098434
vt 0.310930 0.074735
vt 0.314772 0.109237
vt 0.310219 0.114662
vt 0.314003 0.071348
vt 0.321798 0.095056
vt 0.318981 0.072430
vt 0.318957 0.075932
vt 0.318957 0.070729
vt 0.321988 0.111852
vt 0.321988 0.113552
vt 0.312946 0.114788
vt 0.320043 0.084235
vt 0.320086 0.085188
vt 0.314843 0.076113
vt 0.314799 0.077066
vt 0.334925 0.108031
vt 0.330941 0.108043
vt 0.319517 0.074544
vt 0.321600 0.070623
vt 0.321600 0.074545
vt 0.330941 0.070623
vt 0.334925 0.111954
vt 0.313859 0.078997
vt 0.313662 0.080497
vt 0.313662 0.078997
vt 0.314619 0.081600
vt 0.312117 0.140211
vt 0.310061 0.138159
vt 0.312117 0.138159
vt 0.312428 0.075145
vt 0.315988 0.071261
vt 0.315992 0.075155
vt 0.308828 0.108663
vt 0.310061 0.157978
vt 0.310061 0.140211
vt 0.314985 0.157220
vt 0.315625 0.155144
vt 0.315625 0.157220
vt 0.314985 0.155144
vt 0.315625 0.137377
vt 0.314985 0.137373
vt 0.315625 0.135325
vt 0.320641 0.098937
vt 0.319427 0.095056
vt 0.320641 0.095056
vt 0.303966 0.156458
vt 0.303161 0.149559
vt 0.303161 0.157253
vt 0.303161 0.156458
vt 0.312117 0.157978
vt 0.310061 0.160054
vt 0.310587 0.097559
vt 0.311800 0.093678
vt 0.312663 0.097559
vt 0.322075 0.070650
vt 0.320505 0.074573
vt 0.320505 0.070656
vt 0.320505 0.108110
vt 0.322075 0.111981
vt 0.320505 0.111975
vt 0.322075 0.074572
vt 0.310444 0.077489
vt 0.309935 0.081406
vt 0.309935 0.077489
vt 0.319007 0.070623
vt 0.319517 0.070623
vt 0.319007 0.074544
vt 0.319428 0.068814
vt 0.319007 0.111954
vt 0.319007 0.108087
vt 0.318215 0.079673
vt 0.322096 0.075766
vt 0.322096 0.079683
vt 0.312433 0.112580
vt 0.315992 0.108663
vt 0.315988 0.112580
vt 0.318215 0.113167
vt 0.316843 0.074878
vt 0.314761 0.108398
vt 0.314761 0.074878
vt 0.312428 0.108663
vt 0.314763 0.070961
vt 0.316843 0.070961
vt 0.318020 0.087945
vt 0.321463 0.086373
vt 0.321463 0.087945
vt 0.316843 0.108409
vt 0.314763 0.112280
vt 0.313383 0.079620
vt 0.314299 0.079908
vt 0.313383 0.079908
vt 0.315858 0.079620
vt 0.315857 0.079908
vt 0.324201 0.089987
vt 0.324540 0.089987
vt 0.315128 0.079620
vt 0.315759 0.079908
vt 0.315128 0.079908
vt 0.314299 0.080283
vt 0.314730 0.080283
vt 0.318862 0.070329
vt 0.318863 0.075753
vt 0.324242 0.097176
vt 0.328127 0.110256
vt 0.327546 0.070919
vt 0.327163 0.069219
vt 0.327541 0.069219
vt 0.314626 0.080283
vt 0.314069 0.081600
vt 0.313888 0.081600
vt 0.318862 0.114662
vt 0.318863 0.109237
vt 0.328965 0.069219
vt 0.314725 0.076113
vt 0.314616 0.077066
vt 0.309173 0.075932
vt 0.308356 0.070729
vt 0.311954 0.070729
vt 0.320162 0.084235
vt 0.320267 0.085188
vt 0.327163 0.113552
vt 0.327546 0.111852
vt 0.327541 0.113552
vt 0.323020 0.067227
vt 0.324259 0.072430
vt 0.323403 0.109237
vt 0.324804 0.097176
vt 0.326686 0.097176
vt 0.313145 0.075932
vt 0.313377 0.070729
vt 0.313768 0.070729
vt 0.324778 0.072430
vt 0.324555 0.067227
vt 0.326695 0.072430
vt 0.320368 0.085188
vt 0.320325 0.084235
vt 0.320715 0.085188
vt 0.328965 0.113552
vt 0.314562 0.076113
vt 0.314521 0.077066
vt 0.314169 0.077066
vt 0.328963 0.070919
vt 0.328963 0.111852
vt 0.309698 0.075932
vt 0.325989 0.111560
vt 0.326644 0.105728
vt 0.327183 0.105728
vt 0.320586 0.084235
vt 0.314179 0.083167
vt 0.314299 0.084235
vt 0.314080 0.083167
vt 0.325987 0.086373
vt 0.314299 0.079620
vt 0.326277 0.080839
vt 0.326811 0.080839
vt 0.314246 0.078606
vt 0.314148 0.078606
vt 0.309845 0.117378
vt 0.309336 0.113236
vt 0.309845 0.112782
vt 0.309336 0.112327
vt 0.309845 0.108186
vt 0.312808 0.078593
vt 0.310818 0.074850
vt 0.311082 0.074318
vt 0.318007 0.086373
vt 0.322001 0.086373
vt 0.315030 0.079620
vt 0.315761 0.079620
vt 0.318034 0.111560
vt 0.320378 0.105728
vt 0.320940 0.105728
vt 0.322014 0.111560
vt 0.323702 0.105728
vt 0.324258 0.105728
vt 0.314718 0.083167
vt 0.315027 0.084235
vt 0.314616 0.083167
vt 0.315327 0.083167
vt 0.315756 0.084235
vt 0.315224 0.083167
vt 0.319423 0.109237
vt 0.314844 0.078606
vt 0.314746 0.078606
vt 0.315490 0.078606
vt 0.315394 0.078606
vt 0.320420 0.084235
vt 0.320253 0.084235
vt 0.319490 0.080839
vt 0.320013 0.080839
vt 0.323013 0.080839
vt 0.323550 0.080839
vt 0.323403 0.075753
vt 0.314267 0.070729
vt 0.311247 0.075932
vt 0.327156 0.111852
vt 0.326659 0.111852
vt 0.328062 0.111852
vt 0.328062 0.070919
vt 0.326659 0.070919
vt 0.327156 0.070919
vt 0.313383 0.076113
vt 0.313790 0.077066
vt 0.313383 0.077066
vt 0.322905 0.075536
vt 0.324895 0.071793
vt 0.323169 0.076068
vt 0.306818 0.117349
vt 0.307303 0.113187
vt 0.307303 0.117783
vt 0.308229 0.117349
vt 0.307744 0.113187
vt 0.308229 0.112753
vt 0.313081 0.105728
vt 0.316664 0.083167
vt 0.311002 0.105728
vt 0.308829 0.105728
vt 0.326936 0.109231
vt 0.329108 0.109231
vt 0.317841 0.091289
vt 0.317045 0.083167
vt 0.317443 0.083167
vt 0.329314 0.078696
vt 0.329314 0.081189
vt 0.319270 0.089722
vt 0.327987 0.109756
vt 0.319444 0.113796
vt 0.308125 0.109231
vt 0.311024 0.109231
vt 0.316372 0.085339
vt 0.317696 0.074656
vt 0.317696 0.085339
vt 0.324856 0.109231
vt 0.321287 0.091289
vt 0.320756 0.091289
vt 0.327987 0.076272
vt 0.327987 0.072172
vt 0.329314 0.096580
vt 0.329314 0.099073
vt 0.330990 0.105728
vt 0.313383 0.083167
vt 0.314276 0.093885
vt 0.314003 0.095201
vt 0.314003 0.093885
vt 0.313383 0.078606
vt 0.314375 0.084341
vt 0.314936 0.084341
vt 0.317894 0.084341
vt 0.318477 0.084341
vt 0.325084 0.067227
vt 0.323663 0.067227
vt 0.324176 0.067227
vt 0.319497 0.086729
vt 0.319391 0.086729
vt 0.320142 0.086729
vt 0.320039 0.086729
vt 0.314631 0.076113
vt 0.314465 0.076113
vt 0.314300 0.076113
vt 0.325985 0.067227
vt 0.320736 0.086729
vt 0.320641 0.086729
vt 0.311132 0.084341
vt 0.311655 0.084341
vt 0.316630 0.080839
vt 0.308255 0.084341
vt 0.316014 0.078606
vt 0.316394 0.078606
vt 0.318872 0.086729
vt 0.323384 0.084341
vt 0.325649 0.084341
vt 0.314553 0.080839
vt 0.312288 0.080839
vt 0.314612 0.074656
vt 0.316215 0.079854
vt 0.317873 0.081189
vt 0.317873 0.096580
vt 0.317873 0.099073
vt 0.332342 0.105399
vt 0.332342 0.071915
vt 0.332342 0.068026
vt 0.321307 0.084341
vt 0.330990 0.080839
vt 0.321263 0.086729
vt 0.313076 0.088544
vt 0.323943 0.109220
vt 0.318492 0.086729
vt 0.316809 0.078606
vt 0.317873 0.078696
vt 0.313383 0.084235
vt 0.315129 0.084235
vt 0.330990 0.111560
vt 0.325450 0.111560
vt 0.331994 0.081189
vt 0.331994 0.096580
vt 0.331994 0.099073
vt 0.332663 0.109756
vt 0.332663 0.076272
vt 0.332663 0.072127
vt 0.320537 0.092131
vt 0.318222 0.091289
vt 0.321292 0.092147
vt 0.310850 0.111560
vt 0.313382 0.111560
vt 0.312218 0.113826
vt 0.325008 0.113740
vt 0.327088 0.113697
vt 0.327315 0.084235
vt 0.308097 0.113913
vt 0.327987 0.113856
vt 0.317813 0.092108
vt 0.317443 0.091289
vt 0.317443 0.084235
vt 0.317073 0.084235
vt 0.331994 0.078696
vt 0.316609 0.084235
vt 0.318194 0.092116
vt 0.329108 0.113654
vt 0.308829 0.111560
vt 0.315859 0.084235
vt 0.317472 0.111560
vt 0.314398 0.084235
vt 0.321458 0.111560
vt 0.320417 0.078696
vt 0.316809 0.079620
vt 0.318077 0.086729
vt 0.315992 0.075178
vt 0.319183 0.071290
vt 0.319183 0.075178
vt 0.313747 0.079405
vt 0.311522 0.080968
vt 0.313105 0.094073
vt 0.321003 0.071772
vt 0.321538 0.076048
vt 0.319183 0.074394
vt 0.321572 0.089875
vt 0.324191 0.077911
vt 0.321965 0.076348
vt 0.320492 0.087840
vt 0.315992 0.108663
vt 0.319183 0.112551
vt 0.315992 0.112580
vt 0.319183 0.108663
vt 0.312288 0.086373
vt 0.318823 0.087743
vt 0.314710 0.074829
vt 0.314175 0.079105
vt 0.319021 0.087370
vt 0.316490 0.085633
vt 0.319894 0.087511
vt 0.319755 0.086966
vt 0.312544 0.079125
vt 0.319859 0.086908
vt 0.319131 0.087310
vt 0.315921 0.085319
vt 0.316147 0.088544
vt 0.313860 0.079195
vt 0.310595 0.110299
vt 0.313860 0.078997
vt 0.311616 0.081189
vt 0.315583 0.076113
vt 0.319303 0.084235
vt 0.308868 0.114788
vt 0.312911 0.074656
vt 0.328125 0.085229
vt 0.321988 0.070919
vt 0.327315 0.092115
vt 0.332548 0.074644
vt 0.325820 0.093258
vt 0.324871 0.095056
vt 0.311616 0.099073
vt 0.311944 0.098434
vt 0.312911 0.095643
vt 0.316530 0.094359
vt 0.319917 0.094359
vt 0.322256 0.099641
vt 0.328894 0.083233
vt 0.322570 0.089616
vt 0.315331 0.095047
vt 0.314205 0.092673
vt 0.313892 0.102698
vt 0.322105 0.085031
vt 0.317813 0.085339
vt 0.308162 0.100678
vt 0.314205 0.089839
vt 0.318408 0.068814
vt 0.308832 0.071261
vt 0.318077 0.087743
vt 0.318981 0.067227
vt 0.313859 0.080497
vt 0.312433 0.071261
vt 0.314985 0.135325
vt 0.318564 0.098937
vt 0.303966 0.157253
vt 0.312117 0.160054
vt 0.310587 0.093678
vt 0.322075 0.108114
vt 0.310444 0.081406
vt 0.319428 0.070386
vt 0.318217 0.075766
vt 0.316843 0.112280
vt 0.308296 0.075932
vt 0.309336 0.117832
vt 0.309336 0.107731
vt 0.324630 0.071261
vt 0.306818 0.112753
vt 0.307744 0.117783
vt 0.316312 0.074656
vt 0.314257 0.095201
vt 0.332342 0.109288
vt 0.327315 0.084478
vt 0.332663 0.113901
vt 0.317443 0.092100
vt 0.315992 0.071261
vt 0.324895 0.079600
vt 0.316530 0.077451
s 0
usemtl Material
f 356/1/1 4/2/1 347/3/1
f 129/4/2 348/5/2 360/6/2
f 351/7/3 131/8/3 359/9/3
f 250/10/4 205/11/4 202/12/4
f 46/13/2 61/14/2 30/15/2
f 346/16/5 12/17/5 38/18/5
f 383/19/6 205/20/6 257/21/6
f 132/22/7 39/23/7 138/24/7
f 379/25/8 202/26/8 366/27/8
f 352/28/9 6/29/9 349/30/9
f 59/31/9 15/32/9 55/33/9
f 131/34/4 8/35/4 129/36/4
f 386/37/9 13/38/9 53/39/9
f 32/40/10 12/41/10 4/42/10
f 204/43/4 239/44/4 199/45/4
f 265/46/11 245/47/11 244/48/11
f 136/49/12 22/50/12 134/51/12
f 364/52/3 12/53/3 350/54/3
f 10/55/13 41/56/13 36/57/13
f 26/58/14 43/59/14 41/56/14
f 343/60/15 136/61/15 358/62/15
f 78/63/2 332/64/2 307/65/2
f 1/66/8 70/67/8 20/68/8
f 28/69/16 247/70/16 22/50/16
f 134/71/8 353/72/8 357/73/8
f 365/74/8 2/75/8 341/76/8
f 374/77/3 204/78/3 363/79/3
f 382/80/17 28/81/17 343/60/17
f 199/82/2 370/83/2 367/84/2
f 242/85/4 25/86/4 19/87/4
f 267/88/2 340/89/2 337/90/2
f 262/91/11 264/92/11 265/46/11
f 29/93/8 75/94/8 45/67/8
f 30/95/11 211/96/11 46/97/11
f 24/98/14 44/99/14 23/100/14
f 41/56/14 44/99/14 42/101/14
f 35/102/13 24/98/13 9/103/13
f 36/57/13 42/101/13 35/102/13
f 11/104/18 31/105/18 2/106/18
f 37/107/19 32/40/19 31/105/19
f 13/38/9 52/108/9 53/39/9
f 40/109/9 59/31/9 52/108/9
f 137/110/7 13/111/7 135/112/7
f 138/24/7 40/113/7 137/110/7
f 342/114/20 37/115/20 11/116/20
f 346/16/21 37/115/21 345/117/21
f 7/118/2 146/119/2 142/120/2
f 139/121/11 59/122/11 140/123/11
f 341/124/1 31/125/1 355/126/1
f 31/125/1 356/1/1 355/126/1
f 1/127/11 49/128/11 30/95/11
f 329/129/8 77/130/8 317/131/8
f 7/132/11 52/133/11 34/134/11
f 5/135/11 130/136/11 141/137/11
f 17/138/11 133/139/11 142/140/11
f 212/141/11 243/142/11 209/143/11
f 335/144/8 215/145/8 330/146/8
f 48/147/11 54/148/11 57/149/11
f 3/150/11 58/151/11 51/152/11
f 5/135/11 59/122/11 55/153/11
f 3/150/11 208/154/11 18/155/11
f 47/156/11 56/157/11 17/138/11
f 216/158/8 95/159/8 77/130/8
f 29/160/11 214/161/11 58/151/11
f 34/134/11 139/121/11 143/162/11
f 48/147/11 140/123/11 144/163/11
f 148/164/11 68/165/11 145/166/11
f 71/167/11 62/168/11 61/169/11
f 63/170/11 73/171/11 64/172/11
f 66/173/11 147/174/11 146/175/11
f 20/176/9 71/177/9 46/178/9
f 47/179/8 147/180/8 143/181/8
f 48/182/1 67/178/1 21/183/1
f 30/184/1 62/185/1 1/186/1
f 33/187/2 148/188/2 144/189/2
f 3/190/1 73/15/1 29/184/1
f 18/191/2 64/192/2 3/13/2
f 5/193/9 74/194/9 33/195/9
f 34/15/9 66/165/9 7/185/9
f 45/196/9 63/197/9 18/198/9
f 21/199/8 145/200/8 141/201/8
f 17/202/1 76/203/1 47/190/1
f 93/204/1 316/205/1 315/206/1
f 77/207/1 315/206/1 317/208/1
f 324/209/22 91/210/22 323/211/22
f 323/211/22 81/212/22 318/213/22
f 236/214/11 262/91/11 237/215/11
f 238/216/11 213/217/11 207/218/11
f 321/219/23 89/220/23 88/221/23
f 321/219/23 82/222/23 310/223/23
f 1/127/11 210/224/11 50/225/11
f 149/226/8 313/227/8 328/228/8
f 319/229/24 86/230/24 85/231/24
f 319/229/24 150/232/24 327/233/24
f 104/234/25 83/235/25 79/236/25
f 312/237/9 80/238/9 309/239/9
f 320/240/24 81/241/24 86/230/24
f 324/209/22 82/242/22 92/243/22
f 46/97/11 210/224/11 20/244/11
f 326/245/26 83/246/26 151/247/26
f 325/248/27 79/249/27 308/250/27
f 94/251/1 307/252/1 316/205/1
f 120/253/9 107/254/9 104/255/9
f 111/256/1 94/251/1 93/204/1
f 95/257/1 93/204/1 77/207/1
f 92/243/28 101/258/28 91/210/28
f 91/210/28 96/259/28 81/212/28
f 87/260/8 280/261/8 272/262/8
f 220/263/8 113/264/8 95/159/8
f 89/220/29 99/265/29 88/221/29
f 88/221/29 106/266/29 82/222/29
f 222/267/2 268/268/2 218/269/2
f 149/226/8 109/270/8 87/260/8
f 85/231/30 98/271/30 97/272/30
f 150/232/30 97/272/30 154/273/30
f 84/274/25 105/275/25 80/276/25
f 86/230/30 96/277/30 98/271/30
f 92/243/28 106/278/28 102/279/28
f 273/280/8 219/281/8 215/145/8
f 83/246/29 155/282/29 151/247/29
f 156/283/2 79/249/2 152/284/2
f 112/285/1 78/286/1 94/251/1
f 420/287/9 123/288/9 120/253/9
f 127/289/1 112/285/1 111/256/1
f 113/290/1 111/256/1 95/257/1
f 109/270/8 291/291/8 280/261/8
f 224/292/31 117/293/31 114/294/31
f 155/295/32 184/296/32 183/297/32
f 166/298/11 100/299/11 155/300/11
f 230/301/2 276/302/2 222/267/2
f 153/303/8 125/304/8 109/270/8
f 164/305/11 99/306/11 100/299/11
f 162/307/11 96/308/11 101/309/11
f 108/310/9 121/253/9 105/255/9
f 168/311/33 172/312/33 158/313/33
f 303/314/34 226/315/34 233/316/34
f 281/317/8 227/318/8 219/281/8
f 107/319/35 159/320/35 155/282/35
f 160/321/2 104/322/2 156/283/2
f 128/323/1 103/324/1 112/285/1
f 126/325/2 156/283/2 110/326/2
f 295/327/34 231/328/34 223/329/34
f 108/330/36 158/331/36 124/332/36
f 105/333/8 157/334/8 153/303/8
f 110/326/2 152/284/2 90/335/2
f 151/247/29 100/336/29 89/220/29
f 84/337/30 154/273/30 108/330/30
f 80/338/8 153/303/8 149/226/8
f 90/335/37 325/248/37 314/339/37
f 326/245/38 89/220/38 322/340/38
f 327/233/24 84/337/24 312/341/24
f 80/338/8 328/228/8 309/342/8
f 141/201/8 68/343/8 5/197/8
f 144/189/2 72/344/2 48/345/2
f 143/181/8 65/346/8 34/347/8
f 146/175/11 76/348/11 69/349/11
f 148/164/11 67/350/11 72/351/11
f 33/352/11 140/123/11 59/122/11
f 47/156/11 139/121/11 60/353/11
f 7/132/11 133/139/11 53/354/11
f 21/355/11 130/136/11 54/148/11
f 60/353/11 140/123/11 57/149/11
f 142/120/2 69/356/2 17/191/2
f 43/59/39 137/110/39 44/99/39
f 23/100/39 137/110/39 135/112/39
f 349/357/8 134/71/8 357/73/8
f 352/358/15 136/61/15 16/359/15
f 16/360/4 134/51/4 6/361/4
f 19/87/4 131/34/4 129/36/4
f 27/362/39 138/24/39 43/59/39
f 359/9/3 25/363/3 344/364/3
f 19/365/2 360/6/2 354/366/2
f 162/307/11 102/367/11 165/368/11
f 161/369/11 97/370/11 163/371/11
f 163/371/11 98/372/11 162/307/11
f 165/368/11 106/373/11 99/306/11
f 164/305/11 161/369/11 163/371/11
f 165/368/11 163/371/11 162/307/11
f 159/374/40 186/375/40 184/376/40
f 339/377/41 90/335/41 314/339/41
f 170/378/1 176/379/1 116/380/1
f 305/381/34 289/382/34 304/383/34
f 299/384/34 233/316/34 231/328/34
f 170/378/42 173/385/42 178/386/42
f 172/387/43 173/388/43 174/389/43
f 171/390/44 178/391/44 173/388/44
f 177/392/45 176/393/45 178/391/45
f 115/394/8 172/395/8 174/396/8
f 167/397/46 171/398/46 168/311/46
f 167/397/47 175/399/47 177/400/47
f 169/401/48 174/402/48 173/385/48
f 116/403/2 175/404/2 159/405/2
f 180/406/49 181/407/49 182/408/49
f 186/409/50 183/410/50 184/411/50
f 179/412/51 186/409/51 181/407/51
f 168/413/52 182/414/52 181/415/52
f 161/369/53 180/416/53 154/417/53
f 166/298/53 179/418/53 161/369/53
f 158/419/54 180/297/54 182/296/54
f 166/298/53 183/420/53 185/421/53
f 234/422/31 122/423/31 118/424/31
f 297/425/34 300/426/34 296/427/34
f 232/428/31 118/424/31 117/293/31
f 169/429/55 306/430/55 302/431/55
f 301/432/34 304/383/34 300/426/34
f 169/429/56 298/433/56 115/434/56
f 279/435/8 293/436/8 282/437/8
f 170/438/57 287/439/57 306/430/57
f 119/440/2 221/441/2 103/442/2
f 286/443/2 110/326/2 277/444/2
f 271/445/8 282/437/8 274/446/8
f 284/447/2 278/448/2 275/449/2
f 103/442/2 217/450/2 78/63/2
f 277/444/2 90/335/2 269/451/2
f 57/149/11 246/452/11 263/453/11
f 313/227/8 272/262/8 334/454/8
f 45/455/11 208/154/11 214/161/11
f 251/456/4 241/457/4 240/458/4
f 214/161/11 49/128/11 58/151/11
f 275/449/2 270/459/2 267/88/2
f 218/269/2 338/460/2 331/461/2
f 235/462/11 60/353/11 260/463/11
f 12/41/4 200/464/4 4/42/4
f 242/465/2 354/366/2 371/466/2
f 361/467/58 11/468/58 206/469/58
f 344/364/3 253/470/3 375/471/3
f 248/472/4 258/473/4 249/474/4
f 22/475/8 378/476/8 353/72/8
f 261/477/11 212/141/11 213/217/11
f 333/478/8 274/446/8 336/479/8
f 381/480/6 258/481/6 255/482/6
f 260/463/11 57/149/11 263/453/11
f 377/483/8 249/484/8 380/485/8
f 376/486/3 251/487/3 373/488/3
f 201/489/59 11/104/59 2/106/59
f 240/490/2 372/491/2 369/492/2
f 204/43/4 200/464/4 203/493/4
f 201/489/4 205/11/4 206/494/4
f 206/469/6 362/495/6 361/467/6
f 212/141/11 210/224/11 211/96/11
f 210/496/8 413/497/8 397/498/8
f 363/79/60 203/499/60 364/52/60
f 398/500/2 208/501/2 414/502/2
f 213/217/11 208/154/11 207/218/11
f 212/141/11 214/161/11 213/217/11
f 216/158/8 219/281/8 220/263/8
f 222/267/2 217/450/2 221/441/2
f 220/263/8 227/318/8 228/503/8
f 230/301/2 221/441/2 229/504/2
f 228/503/8 453/505/8 433/506/8
f 434/507/2 229/504/2 454/508/2
f 297/509/8 189/510/8 190/511/8
f 288/512/2 192/513/2 287/511/2
f 224/514/8 198/515/8 197/516/8
f 292/517/8 280/261/8 291/291/8
f 294/518/8 282/437/8 293/436/8
f 275/449/2 283/519/2 284/447/2
f 277/444/2 285/520/2 286/443/2
f 279/435/8 272/262/8 280/261/8
f 281/317/8 274/446/8 282/437/8
f 267/88/2 276/302/2 275/449/2
f 269/451/2 278/448/2 277/444/2
f 245/521/8 415/522/8 399/523/8
f 243/524/8 416/525/8 400/526/8
f 401/527/2 238/528/2 417/529/2
f 402/530/2 236/531/2 418/532/2
f 265/46/11 261/477/11 262/91/11
f 263/453/11 259/533/11 260/463/11
f 237/215/11 261/477/11 238/216/11
f 260/463/11 236/214/11 235/462/11
f 435/534/2 283/519/2 455/535/2
f 436/536/2 285/520/2 456/537/2
f 373/488/3 252/538/3 374/77/3
f 375/471/60 254/539/60 376/486/60
f 292/517/8 459/540/8 439/541/8
f 294/518/8 460/542/8 440/543/8
f 244/48/11 266/544/11 265/46/11
f 246/452/11 264/92/11 263/453/11
f 381/480/61 256/545/61 382/80/61
f 257/21/6 384/546/6 383/19/6
f 255/547/62 247/70/62 256/548/62
f 250/10/4 258/473/4 257/549/4
f 251/456/4 239/44/4 252/550/4
f 253/551/4 241/457/4 254/552/4
f 4/553/2 368/554/2 347/555/2
f 225/556/2 195/557/2 226/558/2
f 290/559/2 194/560/2 289/561/2
f 295/562/8 187/563/8 188/564/8
f 339/377/2 270/459/2 269/451/2
f 337/90/2 268/268/2 267/88/2
f 273/280/8 336/479/8 274/446/8
f 271/445/8 334/454/8 272/262/8
f 331/461/2 217/450/2 218/269/2
f 216/158/8 330/146/8 215/145/8
f 333/478/8 416/525/8 399/523/8
f 398/500/2 338/460/2 417/529/2
f 313/227/8 415/522/8 391/565/8
f 402/530/63 314/339/63 392/566/63
f 309/342/8 396/567/8 387/568/8
f 412/569/64 312/341/64 390/570/64
f 392/566/65 411/571/65 395/572/65
f 411/571/66 386/573/66 395/572/66
f 316/205/1 385/574/1 394/575/1
f 325/248/67 311/576/67 326/245/67
f 326/245/68 314/339/68 325/248/68
f 410/577/69 310/578/69 324/209/69
f 404/579/64 320/240/64 406/580/64
f 390/581/70 309/582/70 387/583/70
f 405/584/64 327/233/64 412/569/64
f 406/580/64 319/229/64 405/584/64
f 328/228/8 391/565/8 396/567/8
f 388/585/71 321/219/71 310/223/71
f 407/586/72 322/340/72 321/219/72
f 409/587/69 318/213/69 404/588/69
f 410/577/69 323/211/69 409/587/69
f 317/208/1 393/589/1 403/590/1
f 315/206/1 394/575/1 393/589/1
f 335/144/8 413/497/8 400/526/8
f 329/129/8 403/591/8 397/498/8
f 401/527/2 340/89/2 418/532/2
f 385/592/2 332/64/2 414/502/2
f 83/593/73 308/594/73 79/595/73
f 419/596/2 368/554/2 454/508/2
f 462/597/74 384/546/74 442/598/74
f 461/599/74 382/80/74 441/600/74
f 250/601/8 380/485/8 249/484/8
f 377/483/8 247/602/8 248/603/8
f 375/471/75 438/604/75 458/605/75
f 373/488/75 437/606/75 457/607/75
f 371/466/2 241/608/2 242/465/2
f 369/492/2 239/609/2 240/490/2
f 367/84/2 200/610/2 199/82/2
f 201/611/8 366/27/8 202/26/8
f 363/79/76 432/612/76 452/613/76
f 451/614/74 362/495/74 431/615/74
f 435/534/2 372/491/2 456/537/2
f 457/607/75 376/486/75 373/488/75
f 377/483/8 460/542/8 439/541/8
f 442/598/74 381/480/74 461/599/74
f 353/72/8 459/540/8 425/616/8
f 458/605/75 344/364/75 375/471/75
f 444/617/74 361/467/74 451/614/74
f 436/536/2 354/366/2 426/618/2
f 426/618/2 360/6/2 430/619/2
f 446/620/75 359/9/75 344/364/75
f 449/621/74 352/358/74 424/622/74
f 349/357/8 429/623/8 421/624/8
f 8/625/9 351/626/9 348/30/9
f 355/126/1 428/627/1 427/628/1
f 341/124/1 427/628/1 443/629/1
f 448/630/77 345/117/77 447/631/77
f 447/631/77 342/114/77 444/632/77
f 434/507/2 370/83/2 455/535/2
f 441/600/74 343/60/74 445/633/74
f 452/613/75 374/77/75 363/79/75
f 365/74/8 443/634/8 433/506/8
f 357/73/8 425/616/8 429/623/8
f 445/633/74 358/62/74 449/621/74
f 422/635/75 364/52/75 350/54/75
f 424/636/78 349/30/78 421/287/78
f 379/25/8 453/505/8 440/543/8
f 431/615/74 383/19/74 462/597/74
f 448/630/77 350/637/77 346/16/77
f 450/638/75 351/7/75 359/9/75
f 430/619/2 348/5/2 420/639/2
f 356/1/1 419/640/1 428/627/1
f 51/641/2 414/502/2 208/501/2
f 237/642/2 418/532/2 236/531/2
f 397/498/8 50/643/8 210/496/8
f 400/526/8 209/644/8 243/524/8
f 393/589/1 58/645/1 49/646/1
f 403/590/1 49/646/1 50/647/1
f 35/648/79 409/587/79 36/649/79
f 36/649/79 404/588/79 10/650/79
f 24/651/80 408/652/80 407/586/80
f 9/653/81 407/586/81 388/585/81
f 130/654/8 391/565/8 54/655/8
f 26/656/82 405/584/82 27/657/82
f 27/657/83 412/569/83 132/658/83
f 15/32/9 387/659/9 55/33/9
f 10/660/84 406/580/84 26/656/84
f 35/648/79 388/661/79 410/577/79
f 135/662/85 389/663/85 411/571/85
f 395/572/2 53/664/2 133/665/2
f 394/575/1 51/666/1 58/645/1
f 56/667/2 395/572/2 133/665/2
f 23/668/86 411/571/86 408/652/86
f 132/658/87 390/570/87 15/669/87
f 387/568/8 130/654/8 55/670/8
f 402/530/2 56/667/2 235/671/2
f 391/565/8 246/672/8 54/655/8
f 207/673/2 417/529/2 238/528/2
f 399/523/8 244/674/8 245/521/8
f 339/377/2 418/532/2 340/89/2
f 337/90/2 417/529/2 338/460/2
f 400/526/8 336/479/8 335/144/8
f 399/523/8 334/454/8 333/478/8
f 331/461/2 414/502/2 332/64/2
f 397/498/8 330/146/8 329/129/8
f 408/652/88 314/339/88 322/340/88
f 428/627/1 119/675/1 128/323/1
f 160/321/2 420/639/2 120/676/2
f 159/320/89 423/677/89 450/638/89
f 118/678/90 422/679/90 448/680/90
f 295/198/91 431/681/91 462/682/91
f 440/543/8 227/318/8 294/518/8
f 124/683/9 421/287/9 121/253/9
f 122/684/92 432/685/92 422/686/92
f 115/687/93 449/621/93 158/331/93
f 429/623/8 125/304/8 157/334/8
f 433/506/8 113/264/8 228/503/8
f 226/558/94 437/688/94 452/689/94
f 298/690/95 445/633/95 115/687/95
f 230/301/2 455/535/2 283/519/2
f 117/691/90 444/692/90 114/693/90
f 118/678/90 447/694/90 117/691/90
f 443/629/1 127/289/1 113/290/1
f 427/628/1 128/323/1 127/289/1
f 421/624/8 157/334/8 121/695/8
f 158/331/93 424/622/93 124/332/93
f 116/696/89 450/638/89 446/620/89
f 126/325/2 430/619/2 160/321/2
f 286/443/2 426/618/2 126/325/2
f 114/697/96 451/698/96 224/514/96
f 287/699/97 446/620/97 458/605/97
f 425/616/8 291/291/8 125/304/8
f 296/700/98 461/599/98 297/701/98
f 439/541/8 293/436/8 292/517/8
f 289/702/99 438/604/99 457/607/99
f 284/447/2 456/537/2 285/520/2
f 224/514/100 431/681/100 223/703/100
f 452/689/101 225/556/101 226/558/101
f 457/607/102 290/704/102 289/702/102
f 458/605/103 288/705/103 287/699/103
f 297/701/104 441/600/104 298/690/104
f 295/706/105 442/598/105 296/700/105
f 119/440/2 454/508/2 229/504/2
f 440/543/8 380/485/8 379/25/8
f 439/541/8 378/476/8 377/483/8
f 371/466/2 456/537/2 372/491/2
f 369/492/2 455/535/2 370/83/2
f 367/84/2 454/508/2 368/554/2
f 433/506/8 366/27/8 365/74/8
f 348/30/78 423/707/78 420/287/78
f 181/708/106 167/709/106 168/710/106
f 356/1/1 32/711/1 4/2/1
f 129/4/2 8/712/2 348/5/2
f 351/7/3 14/713/3 131/8/3
f 250/10/4 257/549/4 205/11/4
f 46/13/2 71/192/2 61/14/2
f 346/16/107 350/637/107 12/17/107
f 383/19/6 362/495/6 205/20/6
f 132/22/7 15/714/7 39/23/7
f 379/25/8 250/601/8 202/26/8
f 352/28/9 16/715/9 6/29/9
f 59/31/9 39/716/9 15/32/9
f 131/34/4 14/717/4 8/35/4
f 386/37/9 389/718/9 13/38/9
f 32/40/108 38/719/108 12/41/108
f 204/43/4 252/550/4 239/44/4
f 265/46/11 264/92/11 245/47/11
f 136/49/12 28/69/12 22/50/12
f 364/52/3 203/499/3 12/53/3
f 10/55/13 26/58/13 41/56/13
f 26/58/14 27/362/14 43/59/14
f 343/60/109 28/81/109 136/61/109
f 78/63/2 217/450/2 332/64/2
f 1/66/8 62/93/8 70/67/8
f 28/69/110 256/548/110 247/70/110
f 134/71/8 22/475/8 353/72/8
f 365/74/8 201/611/8 2/75/8
f 374/77/3 252/538/3 204/78/3
f 382/80/111 256/545/111 28/81/111
f 199/82/2 239/609/2 370/83/2
f 242/85/4 253/551/4 25/86/4
f 267/88/2 270/459/2 340/89/2
f 262/91/11 259/533/11 264/92/11
f 29/93/8 73/720/8 75/94/8
f 30/95/11 49/128/11 211/96/11
f 24/98/14 42/101/14 44/99/14
f 41/56/14 43/59/14 44/99/14
f 35/102/13 42/101/13 24/98/13
f 36/57/13 41/56/13 42/101/13
f 11/104/112 37/107/112 31/105/112
f 37/107/19 38/719/19 32/40/19
f 13/38/9 40/109/9 52/108/9
f 40/109/9 39/716/9 59/31/9
f 137/110/7 40/113/7 13/111/7
f 138/24/7 39/23/7 40/113/7
f 342/114/21 345/117/21 37/115/21
f 346/16/113 38/18/113 37/115/113
f 7/118/2 66/721/2 146/119/2
f 139/121/11 52/133/11 59/122/11
f 341/124/1 2/722/1 31/125/1
f 31/125/1 32/711/1 356/1/1
f 1/127/11 50/225/11 49/128/11
f 329/129/8 216/158/8 77/130/8
f 7/132/11 53/354/11 52/133/11
f 5/135/11 55/153/11 130/136/11
f 17/138/11 56/157/11 133/139/11
f 212/141/11 266/544/11 243/142/11
f 335/144/8 273/280/8 215/145/8
f 48/147/11 21/355/11 54/148/11
f 3/150/11 29/160/11 58/151/11
f 5/135/11 33/352/11 59/122/11
f 3/150/11 51/152/11 208/154/11
f 47/156/11 60/353/11 56/157/11
f 216/158/8 220/263/8 95/159/8
f 29/160/11 45/455/11 214/161/11
f 34/134/11 52/133/11 139/121/11
f 48/147/11 57/149/11 140/123/11
f 148/164/11 74/723/11 68/165/11
f 71/167/11 70/724/11 62/168/11
f 63/170/11 75/725/11 73/171/11
f 66/173/11 65/14/11 147/174/11
f 20/176/9 70/726/9 71/177/9
f 47/179/8 76/727/8 147/180/8
f 48/182/1 72/176/1 67/178/1
f 30/184/1 61/15/1 62/185/1
f 33/187/2 74/728/2 148/188/2
f 3/190/1 64/203/1 73/15/1
f 18/191/2 63/356/2 64/192/2
f 5/193/9 68/729/9 74/194/9
f 34/15/9 65/730/9 66/165/9
f 45/196/9 75/731/9 63/197/9
f 21/199/8 67/732/8 145/200/8
f 17/202/1 69/733/1 76/203/1
f 93/204/1 94/251/1 316/205/1
f 77/207/1 93/204/1 315/206/1
f 324/209/22 92/243/22 91/210/22
f 323/211/22 91/210/22 81/212/22
f 236/214/11 259/533/11 262/91/11
f 238/216/11 261/477/11 213/217/11
f 321/219/114 322/340/114 89/220/114
f 321/219/23 88/221/23 82/222/23
f 1/127/11 20/244/11 210/224/11
f 149/226/8 87/260/8 313/227/8
f 319/229/24 320/240/24 86/230/24
f 319/229/24 85/231/24 150/232/24
f 104/234/25 107/734/25 83/235/25
f 312/237/9 84/202/9 80/238/9
f 320/240/24 318/735/24 81/241/24
f 324/209/22 310/578/22 82/242/22
f 46/97/11 211/96/11 210/224/11
f 326/245/115 311/576/115 83/246/115
f 325/248/116 152/284/116 79/249/116
f 94/251/1 78/286/1 307/252/1
f 120/253/9 123/288/9 107/254/9
f 111/256/1 112/285/1 94/251/1
f 95/257/1 111/256/1 93/204/1
f 92/243/28 102/279/28 101/258/28
f 91/210/28 101/258/28 96/259/28
f 87/260/8 109/270/8 280/261/8
f 220/263/8 228/503/8 113/264/8
f 89/220/29 100/336/29 99/265/29
f 88/221/29 99/265/29 106/266/29
f 222/267/2 276/302/2 268/268/2
f 149/226/8 153/303/8 109/270/8
f 85/231/30 86/230/30 98/271/30
f 150/232/30 85/231/30 97/272/30
f 84/274/25 108/736/25 105/275/25
f 86/230/30 81/241/30 96/277/30
f 92/243/28 82/242/28 106/278/28
f 273/280/8 281/317/8 219/281/8
f 83/246/29 107/319/29 155/282/29
f 156/283/2 104/322/2 79/249/2
f 112/285/1 103/324/1 78/286/1
f 420/287/9 423/707/9 123/288/9
f 127/289/1 128/323/1 112/285/1
f 113/290/1 127/289/1 111/256/1
f 109/270/8 125/304/8 291/291/8
f 224/292/31 232/428/31 117/293/31
f 155/295/32 159/737/32 184/296/32
f 166/298/11 164/305/11 100/299/11
f 230/301/2 283/519/2 276/302/2
f 153/303/8 157/334/8 125/304/8
f 164/305/11 165/368/11 99/306/11
f 162/307/11 98/372/11 96/308/11
f 108/310/9 124/683/9 121/253/9
f 168/311/117 171/398/117 172/312/117
f 303/314/34 290/738/34 226/315/34
f 281/317/8 294/518/8 227/318/8
f 107/319/35 123/739/35 159/320/35
f 160/321/2 120/676/2 104/322/2
f 128/323/1 119/675/1 103/324/1
f 126/325/2 160/321/2 156/283/2
f 295/327/34 299/384/34 231/328/34
f 108/330/36 154/273/36 158/331/36
f 105/333/8 121/695/8 157/334/8
f 110/326/2 156/283/2 152/284/2
f 151/247/29 155/282/29 100/336/29
f 84/337/30 150/232/30 154/273/30
f 80/338/8 105/333/8 153/303/8
f 90/335/116 152/284/116 325/248/116
f 326/245/26 151/247/26 89/220/26
f 327/233/24 150/232/24 84/337/24
f 80/338/8 149/226/8 328/228/8
f 141/201/8 145/200/8 68/343/8
f 144/189/2 148/188/2 72/344/2
f 143/181/8 147/180/8 65/346/8
f 146/175/11 147/174/11 76/348/11
f 148/164/11 145/166/11 67/350/11
f 33/352/11 144/163/11 140/123/11
f 47/156/11 143/162/11 139/121/11
f 7/132/11 142/140/11 133/139/11
f 21/355/11 141/137/11 130/136/11
f 60/353/11 139/121/11 140/123/11
f 142/120/2 146/119/2 69/356/2
f 43/59/39 138/24/39 137/110/39
f 23/100/39 44/99/39 137/110/39
f 349/357/8 6/740/8 134/71/8
f 352/358/15 358/62/15 136/61/15
f 16/360/4 136/49/4 134/51/4
f 19/87/4 25/86/4 131/34/4
f 27/362/39 132/22/39 138/24/39
f 359/9/3 131/8/3 25/363/3
f 19/365/2 129/4/2 360/6/2
f 162/307/11 101/309/11 102/367/11
f 161/369/11 154/417/11 97/370/11
f 163/371/11 97/370/11 98/372/11
f 165/368/11 102/367/11 106/373/11
f 164/305/11 166/298/11 161/369/11
f 165/368/11 164/305/11 163/371/11
f 159/374/118 167/741/118 186/375/118
f 339/377/2 269/451/2 90/335/2
f 170/378/1 178/386/1 176/379/1
f 305/381/34 288/742/34 289/382/34
f 299/384/34 303/314/34 233/316/34
f 170/378/119 169/401/119 173/385/119
f 172/387/120 171/390/120 173/388/120
f 171/390/121 177/392/121 178/391/121
f 177/392/122 175/743/122 176/393/122
f 115/394/8 158/744/8 172/395/8
f 167/397/123 177/400/123 171/398/123
f 167/397/124 159/745/124 175/399/124
f 169/401/1 115/746/1 174/402/1
f 116/403/2 176/747/2 175/404/2
f 180/406/125 179/412/125 181/407/125
f 186/409/126 185/748/126 183/410/126
f 179/412/126 185/748/126 186/409/126
f 168/413/127 158/749/127 182/414/127
f 161/369/53 179/418/53 180/416/53
f 166/298/53 185/421/53 179/418/53
f 158/419/54 154/750/54 180/297/54
f 166/298/53 155/300/53 183/420/53
f 234/422/31 225/751/31 122/423/31
f 297/425/34 301/432/34 300/426/34
f 232/428/31 234/422/31 118/424/31
f 169/429/55 170/438/55 306/430/55
f 301/432/34 305/381/34 304/383/34
f 169/429/128 302/431/128 298/433/128
f 279/435/8 292/517/8 293/436/8
f 170/438/56 116/752/56 287/439/56
f 119/440/2 229/504/2 221/441/2
f 286/443/2 126/325/2 110/326/2
f 271/445/8 279/435/8 282/437/8
f 284/447/2 285/520/2 278/448/2
f 103/442/2 221/441/2 217/450/2
f 277/444/2 110/326/2 90/335/2
f 57/149/11 54/148/11 246/452/11
f 313/227/8 87/260/8 272/262/8
f 45/455/11 18/155/11 208/154/11
f 251/456/4 254/552/4 241/457/4
f 214/161/11 211/96/11 49/128/11
f 275/449/2 278/448/2 270/459/2
f 218/269/2 268/268/2 338/460/2
f 235/462/11 56/157/11 60/353/11
f 12/41/4 203/493/4 200/464/4
f 242/465/2 19/365/2 354/366/2
f 361/467/129 342/753/129 11/468/129
f 344/364/3 25/363/3 253/470/3
f 248/472/4 255/547/4 258/473/4
f 22/475/8 247/602/8 378/476/8
f 261/477/11 266/544/11 212/141/11
f 333/478/8 271/445/8 274/446/8
f 381/480/6 384/546/6 258/481/6
f 260/463/11 60/353/11 57/149/11
f 377/483/8 248/603/8 249/484/8
f 376/486/3 254/539/3 251/487/3
f 201/489/130 206/494/130 11/104/130
f 240/490/2 241/608/2 372/491/2
f 204/43/4 199/45/4 200/464/4
f 201/489/4 202/12/4 205/11/4
f 206/469/6 205/20/6 362/495/6
f 212/141/11 209/143/11 210/224/11
f 210/496/8 209/644/8 413/497/8
f 363/79/3 204/78/3 203/499/3
f 398/500/2 207/673/2 208/501/2
f 213/217/11 214/161/11 208/154/11
f 212/141/11 211/96/11 214/161/11
f 216/158/8 215/145/8 219/281/8
f 222/267/2 218/269/2 217/450/2
f 220/263/8 219/281/8 227/318/8
f 230/301/2 222/267/2 221/441/2
f 228/503/8 227/318/8 453/505/8
f 434/507/2 230/301/2 229/504/2
f 297/509/8 298/754/8 189/510/8
f 288/512/2 191/755/2 192/513/2
f 224/514/8 223/703/8 198/515/8
f 292/517/8 279/435/8 280/261/8
f 294/518/8 281/317/8 282/437/8
f 275/449/2 276/302/2 283/519/2
f 277/444/2 278/448/2 285/520/2
f 279/435/8 271/445/8 272/262/8
f 281/317/8 273/280/8 274/446/8
f 267/88/2 268/268/2 276/302/2
f 269/451/2 270/459/2 278/448/2
f 245/521/8 246/672/8 415/522/8
f 243/524/8 244/674/8 416/525/8
f 401/527/2 237/642/2 238/528/2
f 402/530/2 235/671/2 236/531/2
f 265/46/11 266/544/11 261/477/11
f 263/453/11 264/92/11 259/533/11
f 237/215/11 262/91/11 261/477/11
f 260/463/11 259/533/11 236/214/11
f 435/534/2 284/447/2 283/519/2
f 436/536/2 286/443/2 285/520/2
f 373/488/3 251/487/3 252/538/3
f 375/471/60 253/470/60 254/539/60
f 292/517/8 291/291/8 459/540/8
f 294/518/8 293/436/8 460/542/8
f 244/48/11 243/142/11 266/544/11
f 246/452/11 245/47/11 264/92/11
f 381/480/131 255/482/131 256/545/131
f 257/21/6 258/481/6 384/546/6
f 255/547/132 248/472/132 247/70/132
f 250/10/4 249/474/4 258/473/4
f 251/456/4 240/458/4 239/44/4
f 253/551/4 242/85/4 241/457/4
f 4/553/2 200/610/2 368/554/2
f 225/556/2 196/756/2 195/557/2
f 290/559/2 193/757/2 194/560/2
f 295/562/8 296/758/8 187/563/8
f 339/377/2 340/89/2 270/459/2
f 337/90/2 338/460/2 268/268/2
f 273/280/8 335/144/8 336/479/8
f 271/445/8 333/478/8 334/454/8
f 331/461/2 332/64/2 217/450/2
f 216/158/8 329/129/8 330/146/8
f 333/478/8 336/479/8 416/525/8
f 398/500/2 331/461/2 338/460/2
f 313/227/8 334/454/8 415/522/8
f 402/530/133 339/377/133 314/339/133
f 309/342/8 328/228/8 396/567/8
f 412/569/64 327/233/64 312/341/64
f 392/566/134 408/652/134 411/571/134
f 411/571/4 389/718/4 386/573/4
f 316/205/1 307/252/1 385/574/1
f 325/248/67 308/594/67 311/576/67
f 326/245/68 322/340/68 314/339/68
f 410/577/69 388/661/69 310/578/69
f 404/579/64 318/735/64 320/240/64
f 390/581/70 312/759/70 309/582/70
f 405/584/64 319/229/64 327/233/64
f 406/580/64 320/240/64 319/229/64
f 328/228/8 313/227/8 391/565/8
f 388/585/71 407/586/71 321/219/71
f 407/586/135 408/652/135 322/340/135
f 409/587/69 323/211/69 318/213/69
f 410/577/69 324/209/69 323/211/69
f 317/208/1 315/206/1 393/589/1
f 315/206/1 316/205/1 394/575/1
f 335/144/8 330/146/8 413/497/8
f 329/129/8 317/131/8 403/591/8
f 401/527/2 337/90/2 340/89/2
f 385/592/2 307/65/2 332/64/2
f 83/593/73 311/760/73 308/594/73
f 419/596/2 347/555/2 368/554/2
f 462/597/74 383/19/74 384/546/74
f 461/599/74 381/480/74 382/80/74
f 250/601/8 379/25/8 380/485/8
f 377/483/8 378/476/8 247/602/8
f 375/471/76 376/486/76 438/604/76
f 373/488/75 374/77/75 437/606/75
f 371/466/2 372/491/2 241/608/2
f 369/492/2 370/83/2 239/609/2
f 367/84/2 368/554/2 200/610/2
f 201/611/8 365/74/8 366/27/8
f 363/79/76 364/52/76 432/612/76
f 451/614/74 361/467/74 362/495/74
f 435/534/2 369/492/2 372/491/2
f 457/607/75 438/604/75 376/486/75
f 377/483/8 380/485/8 460/542/8
f 442/598/74 384/546/74 381/480/74
f 353/72/8 378/476/8 459/540/8
f 458/605/75 446/620/75 344/364/75
f 444/617/74 342/753/74 361/467/74
f 436/536/2 371/466/2 354/366/2
f 426/618/2 354/366/2 360/6/2
f 446/620/75 450/638/75 359/9/75
f 449/621/74 358/62/74 352/358/74
f 349/357/8 357/73/8 429/623/8
f 8/625/9 14/759/9 351/626/9
f 355/126/1 356/1/1 428/627/1
f 341/124/1 355/126/1 427/628/1
f 448/630/77 346/16/77 345/117/77
f 447/631/77 345/117/77 342/114/77
f 434/507/2 367/84/2 370/83/2
f 441/600/74 382/80/74 343/60/74
f 452/613/75 437/606/75 374/77/75
f 365/74/8 341/76/8 443/634/8
f 357/73/8 353/72/8 425/616/8
f 445/633/74 343/60/74 358/62/74
f 422/635/75 432/612/75 364/52/75
f 424/636/78 352/28/78 349/30/78
f 379/25/8 366/27/8 453/505/8
f 431/615/74 362/495/74 383/19/74
f 448/630/77 422/761/77 350/637/77
f 450/638/75 423/677/75 351/7/75
f 430/619/2 360/6/2 348/5/2
f 356/1/1 347/3/1 419/640/1
f 51/641/2 385/592/2 414/502/2
f 237/642/2 401/527/2 418/532/2
f 397/498/8 403/591/8 50/643/8
f 400/526/8 413/497/8 209/644/8
f 393/589/1 394/575/1 58/645/1
f 403/590/1 393/589/1 49/646/1
f 35/648/79 410/577/79 409/587/79
f 36/649/79 409/587/79 404/588/79
f 24/651/136 23/668/136 408/652/136
f 9/653/137 24/651/137 407/586/137
f 130/654/8 396/567/8 391/565/8
f 26/656/138 406/580/138 405/584/138
f 27/657/139 405/584/139 412/569/139
f 15/32/9 390/762/9 387/659/9
f 10/660/140 404/579/140 406/580/140
f 35/648/79 9/763/79 388/661/79
f 135/662/141 13/764/141 389/663/141
f 395/572/2 386/573/2 53/664/2
f 394/575/1 385/574/1 51/666/1
f 56/667/142 392/566/142 395/572/142
f 23/668/143 135/662/143 411/571/143
f 132/658/144 412/569/144 390/570/144
f 387/568/8 396/567/8 130/654/8
f 402/530/145 392/566/145 56/667/145
f 391/565/8 415/522/8 246/672/8
f 207/673/2 398/500/2 417/529/2
f 399/523/8 416/525/8 244/674/8
f 339/377/2 402/530/2 418/532/2
f 337/90/2 401/527/2 417/529/2
f 400/526/8 416/525/8 336/479/8
f 399/523/8 415/522/8 334/454/8
f 331/461/2 398/500/2 414/502/2
f 397/498/8 413/497/8 330/146/8
f 408/652/88 392/566/88 314/339/88
f 428/627/1 419/640/1 119/675/1
f 160/321/2 430/619/2 420/639/2
f 159/320/89 123/739/89 423/677/89
f 118/678/90 122/765/90 422/679/90
f 295/198/146 223/703/146 431/681/146
f 440/543/8 453/505/8 227/318/8
f 124/683/9 424/636/9 421/287/9
f 122/684/147 225/556/147 432/685/147
f 115/687/93 445/633/93 449/621/93
f 429/623/8 425/616/8 125/304/8
f 433/506/8 443/634/8 113/264/8
f 226/558/148 290/766/148 437/688/148
f 298/690/149 441/600/149 445/633/149
f 230/301/2 434/507/2 455/535/2
f 117/691/90 447/694/90 444/692/90
f 118/678/90 448/680/90 447/694/90
f 443/629/1 427/628/1 127/289/1
f 427/628/1 428/627/1 128/323/1
f 421/624/8 429/623/8 157/334/8
f 158/331/93 449/621/93 424/622/93
f 116/696/89 159/320/89 450/638/89
f 126/325/2 426/618/2 430/619/2
f 286/443/2 436/536/2 426/618/2
f 114/697/150 444/767/150 451/698/150
f 287/699/151 116/696/151 446/620/151
f 425/616/8 459/540/8 291/291/8
f 296/700/152 442/598/152 461/599/152
f 439/541/8 460/542/8 293/436/8
f 289/702/153 288/705/153 438/604/153
f 284/447/2 435/534/2 456/537/2
f 224/514/154 451/698/154 431/681/154
f 452/689/155 432/685/155 225/556/155
f 457/607/156 437/606/156 290/704/156
f 458/605/150 438/604/150 288/705/150
f 297/701/92 461/599/92 441/600/92
f 295/706/91 462/597/91 442/598/91
f 119/440/2 419/596/2 454/508/2
f 440/543/8 460/542/8 380/485/8
f 439/541/8 459/540/8 378/476/8
f 371/466/2 436/536/2 456/537/2
f 369/492/2 435/534/2 455/535/2
f 367/84/2 434/507/2 454/508/2
f 433/506/8 453/505/8 366/27/8
f 348/30/78 351/626/78 423/707/78
f 181/708/157 186/375/157 167/709/157
