# Blender 4.2.1 LTS
# www.blender.org
mtllib propane_tank.mtl
g propane_tank_Mesh
v -0.000748 0.116132 -0.281550
v -0.001535 0.719789 -0.294479
v 0.127152 0.116132 -0.252357
v 0.132830 0.719789 -0.263811
v 0.229720 0.116132 -0.170562
v 0.240583 0.719789 -0.177881
v 0.286641 0.116132 -0.052365
v 0.047641 0.777991 -0.004789
v 0.286641 0.116132 0.078824
v 0.047641 0.777991 0.019349
v 0.229720 0.116132 0.197021
v 0.240583 0.719789 0.208285
v 0.127152 0.116132 0.278816
v 0.132830 0.719789 0.294215
v -0.000748 0.116132 0.308009
v -0.001535 0.719789 0.324883
v -0.128648 0.116132 0.278816
v -0.135901 0.719789 0.294215
v -0.231215 0.116132 0.197021
v -0.243654 0.719789 0.208285
v -0.288136 0.116132 0.078824
v -0.050713 0.777991 0.019349
v -0.288136 0.116132 -0.052365
v -0.050713 0.777991 -0.004789
v -0.231215 0.116132 -0.170562
v -0.243654 0.719789 -0.177881
v -0.128648 0.116132 -0.252357
v -0.135901 0.719789 -0.263811
v -0.000748 0.165960 -0.326231
v 0.146539 0.165960 -0.292614
v 0.264653 0.165960 -0.198421
v 0.320752 0.188797 -0.062308
v 0.323114 0.180922 0.088767
v 0.264653 0.165960 0.224879
v 0.147326 0.182497 0.319072
v -0.000748 0.165960 0.352689
v -0.167720 0.188797 0.319072
v -0.266148 0.165960 0.224879
v -0.331697 0.208483 0.088767
v -0.336421 0.177772 -0.062308
v -0.260636 0.184859 -0.198421
v -0.148034 0.165960 -0.292614
v 0.146539 0.684369 -0.292614
v -0.000748 0.684369 -0.326231
v 0.264653 0.684369 -0.198421
v 0.342872 0.653972 -0.048472
v 0.336131 0.663817 0.074868
v 0.260853 0.611748 0.235850
v 0.146539 0.684369 0.319072
v -0.000748 0.684369 0.352689
v -0.148034 0.684369 0.319072
v -0.266148 0.684369 0.224879
v -0.331697 0.684369 0.088767
v -0.331697 0.684369 -0.062308
v -0.266148 0.684369 -0.198421
v -0.148034 0.684369 -0.292614
v 0.091785 0.757267 -0.183130
v -0.001535 0.757267 -0.204429
v 0.166622 0.757267 -0.123449
v 0.300382 0.719789 -0.053709
v 0.300382 0.719789 0.084113
v 0.166622 0.757267 0.144752
v 0.091785 0.757267 0.204432
v -0.001535 0.757267 0.225732
v -0.094855 0.757267 0.204432
v -0.169692 0.757267 0.144752
v -0.303452 0.719789 0.084113
v -0.303452 0.719789 -0.053709
v -0.169692 0.757267 -0.123449
v -0.094855 0.757267 -0.183130
v 0.064834 0.768731 -0.127166
v -0.001535 0.768731 -0.142315
v 0.118058 0.768731 -0.084722
v 0.208153 0.757267 -0.037209
v 0.208153 0.757267 0.058511
v 0.118058 0.768731 0.106024
v 0.064834 0.768731 0.148468
v -0.001535 0.768731 0.163617
v -0.067904 0.768731 0.148468
v -0.121129 0.768731 0.106024
v -0.211223 0.757267 0.058511
v -0.211223 0.757267 -0.037209
v -0.121129 0.768731 -0.084722
v -0.067904 0.768731 -0.127166
v 0.020350 0.777991 -0.041586
v -0.001536 0.777991 -0.046957
v 0.037901 0.777991 -0.026537
v 0.147596 0.768731 -0.023387
v 0.147596 0.768731 0.044689
v 0.037901 0.777991 0.041096
v 0.015624 0.779335 0.056470
v -0.001536 0.779339 0.060722
v -0.018695 0.779335 0.056470
v -0.040972 0.777991 0.041096
v -0.150666 0.768731 0.044689
v -0.150666 0.768731 -0.023387
v -0.040972 0.777991 -0.026536
v -0.023422 0.777991 -0.041586
v -0.001536 0.806735 -0.038962
v -0.001535 0.749897 -0.225519
v -0.020195 0.806735 -0.034382
v -0.020195 0.806735 0.048941
v -0.018299 0.850891 -0.007094
v -0.035159 0.806735 0.036110
v 0.017124 0.806735 -0.034382
v 0.012758 0.804919 0.050082
v 0.032088 0.806735 -0.021552
v 0.015227 0.850891 0.021653
v 0.019367 0.850891 0.002150
v 0.019367 0.850891 0.012409
v -0.022439 0.850891 0.012409
v -0.022439 0.850891 0.002150
v 0.007767 0.850891 -0.013491
v -0.001536 0.850891 -0.015774
v 0.015227 0.850891 -0.007094
v 0.040392 0.806735 -0.003010
v 0.040392 0.806735 0.017570
v 0.032088 0.806735 0.036110
v 0.003984 0.846336 0.030500
v -0.001536 0.848910 0.031786
v -0.007056 0.846336 0.030500
v -0.018299 0.850891 0.021653
v -0.043463 0.806735 0.017569
v -0.043463 0.806735 -0.003010
v -0.035159 0.806735 -0.021552
v -0.010839 0.850891 -0.013491
v -0.001536 0.880549 -0.026000
v -0.001536 0.880549 0.040561
v -0.014965 0.880549 -0.022705
v -0.014965 0.880549 0.037265
v -0.025735 0.880549 -0.013470
v -0.025735 0.880549 0.028031
v 0.011894 0.880549 -0.022705
v 0.011894 0.880549 0.037265
v 0.022664 0.880549 -0.013470
v 0.022664 0.880549 0.028030
v 0.028641 0.880549 -0.000126
v 0.028640 0.880549 0.014686
v -0.031712 0.880549 0.014686
v -0.031712 0.880549 -0.000126
v -0.001536 0.894264 -0.026000
v -0.001536 0.894264 0.040561
v -0.014965 0.894264 -0.022705
v -0.014965 0.894264 0.037265
v -0.025735 0.894264 -0.013470
v -0.025735 0.894264 0.028031
v 0.011894 0.894264 -0.022705
v 0.011894 0.894264 0.037265
v 0.022664 0.894264 -0.013470
v 0.022664 0.894264 0.028030
v 0.028641 0.894264 -0.000126
v 0.028640 0.894264 0.014686
v -0.031712 0.894264 0.014686
v -0.031712 0.894264 -0.000126
v -0.001536 0.777991 0.061516
v 0.020350 0.777991 0.056145
v -0.023422 0.777991 0.056145
v 0.017124 0.806735 0.048941
v -0.015829 0.804919 0.050082
v -0.001536 0.850891 0.030333
v 0.007767 0.850891 0.028050
v -0.010839 0.850891 0.028050
v -0.001536 0.803275 0.042058
v 0.010392 0.803170 0.038884
v -0.013463 0.803170 0.038884
v -0.001536 0.778055 0.049084
v -0.001536 0.847498 0.020569
v 0.013209 0.778082 0.045117
v -0.016280 0.778082 0.045117
v 0.001685 0.844975 0.019531
v -0.004756 0.844975 0.019531
v 0.100936 0.749897 -0.202131
v 0.183111 0.749897 -0.136599
v 0.228714 0.749897 -0.041902
v 0.228714 0.749897 0.063204
v 0.183111 0.749897 0.157901
v 0.100936 0.749897 0.223434
v -0.001535 0.749897 0.246822
v -0.104006 0.749897 0.223434
v -0.186181 0.749897 0.157901
v -0.231785 0.749897 0.063204
v -0.231785 0.749897 -0.041902
v -0.186181 0.749897 -0.136599
v -0.104006 0.749897 -0.202131
v 0.091203 0.876571 -0.189131
v 0.020514 0.907282 -0.211357
v 0.169831 0.924606 -0.126855
v 0.212155 0.924606 -0.036864
v 0.212155 0.924606 0.063018
v 0.174885 0.924606 0.146352
v -0.215225 0.924606 0.063018
v -0.177955 0.924606 0.146352
v -0.215225 0.924606 -0.036864
v -0.172901 0.924606 -0.126855
v -0.110023 0.894683 -0.189131
v 0.020514 0.907282 -0.229732
v 0.098990 0.876571 -0.205686
v 0.183861 0.924606 -0.138311
v 0.229650 0.924606 -0.040953
v 0.229650 0.924606 0.067107
v 0.188915 0.924606 0.157809
v -0.191985 0.924606 0.157809
v -0.232720 0.924606 0.067107
v -0.232720 0.924606 -0.040953
v -0.186931 0.924606 -0.138311
v -0.117809 0.894683 -0.205686
v 0.091203 0.920782 -0.189131
v 0.027601 0.952280 -0.211357
v 0.169831 0.968817 -0.126855
v 0.212155 0.968817 -0.036864
v 0.212155 0.968817 0.063018
v 0.174885 0.968817 0.146352
v -0.215225 0.968817 0.063018
v -0.177955 0.968817 0.146352
v -0.215225 0.968817 -0.036864
v -0.172901 0.968817 -0.126855
v -0.110023 0.938894 -0.189131
v 0.027601 0.952280 -0.229732
v 0.098990 0.920782 -0.205686
v 0.183861 0.968817 -0.138311
v 0.229650 0.968817 -0.040953
v 0.229650 0.968817 0.067107
v 0.188915 0.968817 0.157809
v -0.191985 0.968817 0.157809
v -0.232720 0.968817 0.067107
v -0.232720 0.968817 -0.040953
v -0.186931 0.968817 -0.138311
v -0.117809 0.938894 -0.205686
v 0.088232 0.892262 -0.182812
v 0.027601 0.923760 -0.204343
v 0.164476 0.940297 -0.122482
v 0.205477 0.940297 -0.035304
v 0.205463 0.940297 0.061524
v 0.168222 0.940297 0.147979
v -0.208533 0.940297 0.061524
v -0.171293 0.940297 0.147979
v -0.208547 0.940297 -0.035304
v -0.167546 0.940297 -0.122482
v -0.107051 0.910374 -0.182812
v -0.208533 0.961839 0.061524
v 0.236328 0.940297 -0.042513
v 0.236328 0.961839 -0.042513
v 0.168222 0.961839 0.147979
v 0.190498 0.961839 0.164632
v 0.190498 0.940297 0.164632
v 0.236341 0.940297 0.068607
v 0.236341 0.961839 0.068607
v -0.193569 0.940297 0.164632
v 0.205477 0.961839 -0.035304
v 0.205463 0.961839 0.061524
v -0.239411 0.961839 0.068607
v -0.239411 0.940297 0.068607
v -0.193569 0.961839 0.164632
v 0.027601 0.923760 -0.236745
v -0.120781 0.910374 -0.212005
v -0.192286 0.940297 -0.142684
v -0.239398 0.940297 -0.042513
v 0.189216 0.940297 -0.142684
v 0.101961 0.892262 -0.212005
v 0.088232 0.913805 -0.182812
v 0.027601 0.945303 -0.204343
v 0.164476 0.961839 -0.122482
v -0.171293 0.961839 0.147979
v -0.208547 0.961839 -0.035304
v -0.167546 0.961839 -0.122482
v -0.107051 0.931916 -0.182812
v 0.027601 0.945303 -0.236745
v -0.120781 0.931916 -0.212005
v -0.192286 0.961839 -0.142684
v -0.239398 0.961839 -0.042513
v 0.189216 0.961839 -0.142684
v 0.101961 0.913805 -0.212005
v -0.000748 0.375495 -0.326231
v 0.146539 0.375495 -0.292614
v 0.264653 0.375495 -0.198421
v 0.321540 0.393606 -0.062308
v 0.321540 0.393606 0.088767
v 0.264653 0.375495 0.224880
v 0.148299 0.407808 0.315874
v -0.000748 0.375495 0.352690
v -0.156696 0.404631 0.319072
v -0.233075 0.393606 0.224880
v -0.312011 0.387307 0.088767
v -0.312011 0.387307 -0.062308
v -0.233075 0.393606 -0.198421
v -0.156696 0.404631 -0.292614
v -0.000748 0.419287 -0.326231
v 0.146539 0.419287 -0.292614
v 0.264653 0.419287 -0.198421
v 0.321540 0.437399 -0.062308
v 0.321540 0.437399 0.088767
v 0.264653 0.419287 0.224880
v 0.148692 0.456679 0.315300
v -0.000748 0.419287 0.352690
v -0.158271 0.449211 0.319072
v -0.233075 0.437399 0.224880
v -0.312011 0.431099 0.088767
v -0.312011 0.431099 -0.062308
v -0.233075 0.437399 -0.198421
v -0.158271 0.449211 -0.292614
v -0.000748 0.016223 0.299247
v -0.000748 0.016223 -0.272788
v -0.124846 0.016223 0.270922
v -0.124846 0.016223 -0.244463
v -0.224365 0.016223 0.191558
v -0.224365 0.016223 -0.165100
v 0.123351 0.016223 0.270922
v 0.123351 0.016223 -0.244463
v 0.222870 0.016223 0.191558
v 0.222870 0.016223 -0.165100
v 0.278099 0.016223 -0.050416
v 0.278099 0.016223 0.076874
v -0.279594 0.016223 0.076874
v -0.279594 0.016223 -0.050416
v -0.000748 -0.000000 0.277592
v -0.000748 -0.000000 -0.251134
v -0.115450 -0.000000 0.251412
v -0.115450 -0.000000 -0.224954
v -0.207435 -0.000000 0.178057
v -0.207435 -0.000000 -0.151598
v 0.113955 -0.000000 0.251412
v 0.113955 -0.000000 -0.224954
v 0.205940 -0.000000 0.178057
v 0.205940 -0.000000 -0.151598
v 0.256987 -0.000000 -0.045597
v 0.256987 -0.000000 0.072055
v -0.258483 -0.000000 0.072055
v -0.258483 -0.000000 -0.045597
v 0.144053 0.152220 -0.287452
v -0.000748 0.152220 -0.320502
v 0.260174 0.152220 -0.194849
v 0.324616 0.152220 -0.061033
v 0.324616 0.152220 0.087492
v 0.260174 0.152220 0.221307
v 0.144053 0.152220 0.313911
v -0.000748 0.152220 0.346961
v -0.145548 0.152220 0.313911
v -0.261669 0.152220 0.221307
v -0.308000 0.139621 0.087492
v -0.326112 0.152220 -0.061033
v -0.261669 0.152220 -0.194849
v -0.145548 0.152220 -0.287452
v 0.153735 0.401507 -0.307557
v 0.153735 0.393276 -0.307557
v 0.277620 0.401507 -0.208762
v 0.277620 0.393276 -0.208762
v 0.337709 0.419618 -0.065999
v 0.337709 0.411387 -0.065999
v 0.337709 0.419618 0.092457
v 0.337709 0.411387 0.092457
v 0.277620 0.401507 0.235220
v 0.277620 0.393276 0.235220
v 0.155495 0.433820 0.330817
v 0.152993 0.416391 0.325622
v -0.000748 0.410704 0.363509
v -0.000748 0.384078 0.363509
v -0.162965 0.440627 0.328821
v -0.161390 0.413214 0.328821
v -0.241534 0.428816 0.231625
v -0.241534 0.402189 0.231625
v -0.322559 0.422516 0.091174
v -0.322559 0.395890 0.091174
v -0.322559 0.422516 -0.064715
v -0.322559 0.395890 -0.064715
v -0.241534 0.428816 -0.205167
v -0.241534 0.402189 -0.205167
v -0.162965 0.440627 -0.302362
v -0.165467 0.423199 -0.307557
v -0.000748 0.393276 -0.342817
v -0.000748 0.401507 -0.342817
v -0.161390 0.413214 -0.302362
v -0.000748 0.384078 -0.337050
v -0.250767 0.405875 -0.208762
v -0.328181 0.405087 -0.065999
v -0.328181 0.405087 0.092457
v -0.250767 0.405875 0.235220
v -0.165467 0.423199 0.334015
v -0.000748 0.393276 0.369276
v 0.155495 0.425589 0.330817
v 0.273112 0.384078 0.231625
v 0.332088 0.402189 0.091174
v 0.332088 0.402189 -0.064715
v 0.273112 0.384078 -0.205167
v 0.151233 0.384078 -0.302362
v -0.165467 0.431430 -0.307557
v -0.000748 0.410704 -0.337050
v -0.250767 0.414106 -0.208762
v -0.328181 0.413318 -0.065999
v -0.328181 0.413318 0.092457
v -0.250767 0.414106 0.235220
v -0.165467 0.431430 0.334015
v -0.000748 0.401507 0.369276
v 0.153386 0.448096 0.325047
v 0.273112 0.410704 0.231625
v 0.332088 0.428816 0.091174
v 0.332088 0.428816 -0.064715
v 0.273112 0.410704 -0.205167
v 0.151233 0.410704 -0.302362
v -0.000748 0.566002 -0.326231
v 0.146539 0.566002 -0.292614
v 0.264653 0.566002 -0.198421
v 0.333553 0.577586 -0.094283
v 0.330202 0.566002 0.088767
v 0.264653 0.566002 0.224879
v 0.136079 0.563957 0.309814
v -0.000748 0.566002 0.352690
v -0.148034 0.566002 0.319072
v -0.266148 0.566002 0.224879
v -0.331697 0.566002 0.088767
v -0.331697 0.566002 -0.062308
v -0.266148 0.566002 -0.198421
v -0.148034 0.566002 -0.292614
vn 0.2225 -0.0000 -0.9749
vn 0.6235 -0.0000 -0.7818
vn 0.8340 -0.0000 -0.5518
vn 0.9918 -0.1271 0.0101
vn 0.9006 -0.0292 0.4337
vn 0.5465 -0.1521 0.8236
vn 0.2990 -0.0000 0.9542
vn -0.2225 -0.0000 0.9749
vn -0.6235 -0.0000 0.7818
vn -0.9010 -0.0000 0.4339
vn -1.0000 -0.0000 -0.0000
vn -0.9010 -0.0000 -0.4339
vn -0.2301 0.2608 -0.9376
vn -0.6235 -0.0000 -0.7818
vn -0.2225 -0.0000 -0.9749
vn 0.2217 -0.0852 0.9714
vn 0.6295 0.2546 0.7341
vn -0.6295 0.2546 -0.7341
vn 0.8842 0.2475 0.3960
vn -0.8842 0.2475 -0.3960
vn 0.9696 0.2445 -0.0000
vn -0.2217 -0.0852 -0.9714
vn 0.6212 -0.0852 0.7790
vn -0.6212 -0.0852 -0.7790
vn 0.8977 -0.0852 0.4323
vn -0.8977 -0.0852 -0.4323
vn 0.2061 -0.3766 -0.9032
vn 0.5776 -0.3766 -0.7243
vn 0.8981 0.0798 -0.4325
vn 0.9986 0.0523 -0.0000
vn 0.8679 -0.3693 0.3322
vn 0.5967 -0.1971 0.7779
vn 0.2061 -0.3766 0.9032
vn -0.2253 -0.2687 0.9365
vn -0.5928 -0.3781 0.7111
vn -0.8903 -0.3125 0.3311
vn -0.9257 -0.3694 0.0815
vn -0.8728 -0.0257 -0.4873
vn -0.6318 -0.3701 -0.6810
vn -0.2061 -0.3766 -0.9032
vn 0.1671 0.6602 -0.7323
vn 0.4687 0.6594 -0.5878
vn 0.6818 0.6537 -0.3283
vn 0.8400 0.5425 0.0026
vn 0.8046 0.4499 0.3875
vn 0.6784 0.2985 0.6713
vn 0.1763 0.6103 0.7723
vn -0.1771 0.6053 0.7760
vn -0.4959 0.6062 0.6218
vn -0.7120 0.6128 0.3429
vn -0.7818 0.6235 -0.0000
vn -0.6954 0.6358 -0.3349
vn -0.4752 0.6474 -0.5959
vn -0.1680 0.6559 -0.7359
vn 0.0909 0.9127 -0.3985
vn 0.2521 0.9146 -0.3161
vn 0.3573 0.9180 -0.1721
vn 0.3873 0.9219 -0.0000
vn 0.3410 0.9256 0.1642
vn 0.2317 0.9284 0.2905
vn 0.0819 0.9299 0.3587
vn -0.0819 0.9299 0.3586
vn -0.2317 0.9284 0.2905
vn -0.3410 0.9256 0.1642
vn -0.3873 0.9219 -0.0000
vn -0.3573 0.9180 -0.1721
vn -0.2521 0.9146 -0.3161
vn -0.0909 0.9127 -0.3985
vn 0.0414 0.9825 -0.1813
vn 0.1160 0.9825 -0.1454
vn 0.1676 0.9825 -0.0807
vn 0.1860 0.9825 -0.0000
vn 0.1676 0.9826 0.0807
vn 0.1160 0.9825 0.1454
vn 0.0414 0.9825 0.1813
vn -0.0414 0.9825 0.1813
vn -0.1160 0.9825 0.1454
vn -0.1676 0.9825 0.0807
vn -0.1860 0.9825 -0.0000
vn -0.1676 0.9825 -0.0807
vn -0.1160 0.9825 -0.1454
vn -0.0414 0.9825 -0.1813
vn 0.0237 0.9950 -0.0966
vn 0.0639 0.9952 -0.0745
vn 0.0868 0.9955 -0.0389
vn 0.0922 0.9957 -0.0000
vn 0.0829 0.9959 0.0371
vn 0.0592 0.9959 0.0690
vn 0.0219 0.9958 0.0893
vn -0.0206 0.9957 0.0903
vn -0.0575 0.9957 0.0721
vn -0.0828 0.9958 0.0399
vn -0.0922 0.9957 -0.0000
vn -0.0846 0.9956 -0.0408
vn -0.0602 0.9953 -0.0755
vn -0.0220 0.9951 -0.0963
vn 0.9544 -0.2984 -0.0000
vn -0.9544 -0.2984 -0.0000
vn 0.8701 -0.3019 -0.3897
vn -0.8701 -0.3019 0.3897
vn 0.6188 -0.3103 -0.7217
vn -0.6188 -0.3103 0.7217
vn 0.9750 -0.0561 0.2148
vn 0.3978 -0.9103 0.1146
vn 0.2301 0.2608 -0.9376
vn -0.6295 0.2546 0.7341
vn 0.6295 0.2546 -0.7341
vn -0.8842 0.2475 0.3960
vn 0.8842 0.2475 -0.3960
vn -0.9696 0.2446 -0.0000
vn 0.2123 0.4543 -0.8652
vn 0.5829 0.4451 -0.6798
vn 0.8220 0.4344 -0.3682
vn 0.9029 0.4299 -0.0000
vn 0.8220 0.4344 0.3682
vn 0.5829 0.4451 0.6798
vn 0.9710 -0.1021 0.2162
vn -0.0269 0.9936 -0.1096
vn -0.5829 0.4451 0.6798
vn -0.8220 0.4344 0.3682
vn -0.9029 0.4299 -0.0000
vn -0.8220 0.4344 -0.3681
vn -0.5829 0.4451 -0.6798
vn -0.2123 0.4543 -0.8652
vn 0.2383 -0.0000 -0.9712
vn -0.2383 -0.0000 0.9712
vn 0.2383 -0.0000 0.9712
vn -0.2383 -0.0000 -0.9712
vn 0.6509 -0.0000 0.7591
vn -0.6509 -0.0000 -0.7591
vn -0.8701 -0.3019 -0.3897
vn 0.8700 -0.3019 0.3897
vn -0.6188 -0.3103 -0.7217
vn 0.6188 -0.3103 0.7217
vn -0.2260 -0.3175 -0.9209
vn 0.2260 -0.3176 0.9209
vn -0.2260 -0.3176 0.9209
vn 0.2260 -0.3175 -0.9209
vn -0.0000 1.0000 -0.0000
vn -0.6509 -0.0000 0.7592
vn 0.6509 -0.0000 -0.7591
vn -0.9126 -0.0000 0.4087
vn 0.9126 -0.0000 -0.4088
vn 1.0000 -0.0000 -0.0000
vn -0.9126 -0.0000 -0.4088
vn 0.9126 -0.0000 0.4088
vn 0.2041 0.5164 0.8317
vn -0.2089 0.4964 0.8426
vn 0.1439 0.2549 0.9562
vn -0.1385 0.2554 0.9569
vn 0.4207 0.5366 0.7315
vn -0.2267 0.3087 0.9238
vn 0.0558 0.4366 0.8979
vn -0.0534 0.4360 0.8983
vn 0.2504 0.2598 0.9326
vn -0.2505 0.2598 0.9326
vn 0.2336 0.4481 0.8629
vn -0.5344 0.3694 0.7603
vn 0.0297 0.9942 -0.1034
vn -0.9701 -0.1011 0.2207
vn -0.5578 -0.8013 0.2163
vn -0.9753 -0.0559 0.2137
vn -0.9009 -0.0145 0.4338
vn 0.9118 0.0489 -0.4078
vn 0.9049 -0.0025 -0.4256
vn -0.6231 0.0363 0.7813
vn -1.0000 -0.0054 -0.0000
vn -0.2104 0.9414 0.2638
vn -0.0751 0.9414 0.3290
vn 0.0751 0.9414 0.3290
vn 0.2104 0.9414 0.2638
vn 1.0000 -0.0054 -0.0000
vn 0.6176 0.0209 0.7862
vn -0.2657 0.0834 0.9604
vn -0.9009 -0.0081 -0.4339
vn 0.9118 -0.0301 0.4095
vn 0.0712 0.6527 0.7542
vn 0.1263 -0.3911 -0.9117
vn -0.9201 -0.3916 -0.0000
vn 0.6571 0.6936 0.2951
vn 0.5754 -0.2766 0.7697
vn 0.6950 -0.4031 -0.5954
vn -0.8321 -0.3930 0.3913
vn -0.7649 0.5307 0.3652
vn -0.5972 -0.3294 0.7313
vn 0.8321 -0.3930 -0.3913
vn -0.9007 0.0261 0.4337
vn 0.6253 -0.0103 -0.7803
vn 0.9997 0.0239 -0.0000
vn -0.9997 0.0239 -0.0000
vn 0.2225 -0.0239 -0.9746
vn 0.9047 0.0208 0.4255
vn -0.6323 0.0238 0.7743
vn -0.9005 0.0332 -0.4336
vn 0.7101 0.0279 0.7035
vn -0.1711 -0.0024 -0.9853
vn 0.2220 0.0670 0.9727
vn -0.6216 -0.0784 -0.7794
vn -0.0850 0.9956 0.0400
vn 0.2036 0.9468 -0.2493
vn -0.3750 0.9101 -0.1764
vn 0.4037 0.9149 -0.0000
vn -0.4016 -0.4065 0.8206
vn -0.7218 0.6921 -0.0000
vn 0.9199 -0.3922 -0.0000
vn -0.4177 -0.1978 0.8868
vn -0.6524 0.6930 -0.3068
vn 0.0449 0.7082 0.7046
vn 0.8694 -0.2682 0.4150
vn -0.3449 0.6741 -0.6532
vn 0.6827 0.6284 0.3728
vn -0.8386 -0.3936 0.3766
vn -0.1784 0.7012 -0.6903
vn 0.6524 0.6930 0.3068
vn 0.6220 -0.0000 -0.7830
vn -0.1645 -0.0000 -0.9864
vn 1.0000 -0.0000 -0.0001
vn 0.9049 -0.0000 -0.4256
vn 0.9184 -0.0000 -0.3956
vn -0.9184 -0.0000 -0.3956
vn 0.9024 -0.0000 0.4308
vn -1.0000 -0.0000 -0.0002
vn -0.9024 -0.0000 0.4308
vn 0.9049 -0.0000 0.4256
vn -0.6960 -0.0000 -0.7180
vn -0.3346 -0.0000 0.9423
vn -0.5988 -0.0000 0.8009
vn 0.3157 -0.0000 -0.9489
vn 0.7061 -0.0000 0.7081
vn -0.9049 -0.0000 -0.4256
vn -0.6205 -0.0000 0.7842
vn 0.5988 -0.0000 0.8009
vn 0.1579 -0.0000 0.9875
vn -1.0000 -0.0000 -0.0001
vn -0.9049 -0.0000 0.4256
vn 0.7224 0.6914 -0.0001
vn -0.8392 -0.3936 -0.3753
vn -0.6582 0.6916 0.2975
vn 0.6524 0.6930 -0.3068
vn 0.8671 -0.3295 -0.3735
vn -0.5026 0.5434 0.6724
vn -0.6524 0.6930 0.3068
vn 0.1665 0.6999 -0.6946
vn 0.9198 -0.3923 -0.0001
vn 0.4976 0.6173 0.6094
vn -0.7217 0.6922 -0.0001
vn 0.4822 0.6211 -0.6179
vn 0.8321 -0.3930 0.3913
vn -0.1243 -0.3428 -0.9311
vn -0.7225 0.6173 -0.3112
vn 0.5449 -0.3924 0.7410
vn -0.7256 -0.3709 -0.5797
vn 0.6576 0.6936 -0.2941
vn 0.1912 -0.3976 0.8974
vn -0.8321 -0.3930 -0.3913
vn 0.7225 0.6914 -0.0000
vn -0.9201 -0.3916 -0.0001
vn -0.3644 -0.9312 -0.0000
vn -0.6311 0.0833 -0.7712
vn -0.8714 0.1015 -0.4799
vn -0.9933 0.1157 0.0075
vn -0.8775 0.1275 0.4624
vn -0.7000 0.1017 0.7068
vn -0.1974 -0.0000 0.9803
vn 0.2214 -0.0000 0.9752
vn 0.6260 -0.0000 0.7798
vn 0.9188 -0.0000 0.3946
vn 0.9999 0.0074 -0.0152
vn 0.9246 -0.0000 -0.3811
vn 0.0014 0.7502 -0.6612
vn -0.4501 -0.7665 -0.4581
vn 0.1404 0.7756 -0.6153
vn -0.2699 -0.7543 -0.5984
vn 0.3935 0.7757 -0.4935
vn 0.1404 -0.7757 -0.6153
vn 0.5335 0.7810 -0.3247
vn 0.3935 -0.7757 -0.4935
vn 0.6312 0.7757 -0.0000
vn 0.6027 -0.7833 -0.1521
vn 0.5488 0.7674 0.3315
vn 0.6312 -0.7757 -0.0000
vn 0.5162 0.7825 0.3483
vn 0.6347 -0.7550 0.1648
vn -0.3799 -0.7929 -0.4764
vn 0.5490 -0.7929 0.2644
vn -0.5490 -0.7929 -0.2644
vn 0.6093 -0.7929 -0.0000
vn -0.6093 -0.7929 -0.0000
vn 0.5490 -0.7929 -0.2644
vn -0.2217 -0.0852 0.9714
vn 0.2217 -0.0852 -0.9714
vn -0.6212 -0.0852 0.7790
vn 0.6212 -0.0852 -0.7790
vn -0.8977 -0.0852 0.4323
vn 0.8977 -0.0852 -0.4323
vn -0.9964 -0.0852 -0.0000
vn 0.9964 -0.0852 -0.0000
vn -0.0000 -1.0000 -0.0000
vn 0.3799 -0.7929 0.4764
vn -0.1356 -0.7929 -0.5940
vn 0.1356 -0.7929 0.5940
vn -0.1356 -0.7929 0.5940
vn 0.1356 -0.7929 -0.5940
vn -0.3799 -0.7929 0.4764
vn 0.3799 -0.7929 -0.4764
vn -0.5490 -0.7929 0.2644
vn -0.1533 -0.7249 -0.6716
vn -0.4295 -0.7249 -0.5386
vn -0.6206 -0.7249 -0.2989
vn -0.6914 -0.7221 0.0231
vn -0.6624 -0.6779 0.3190
vn -0.4295 -0.7249 0.5386
vn -0.1533 -0.7249 0.6716
vn 0.1533 -0.7249 0.6716
vn 0.4295 -0.7249 0.5386
vn 0.6206 -0.7249 0.2989
vn 0.6889 -0.7249 -0.0000
vn 0.6206 -0.7249 -0.2989
vn 0.4295 -0.7249 -0.5386
vn 0.1533 -0.7249 -0.6716
vn -0.2093 -0.0000 -0.9778
vn -0.7569 -0.0000 -0.6535
vn -0.8791 -0.0000 -0.4767
vn -0.8791 -0.0000 0.4767
vn -0.7569 -0.0000 0.6535
vn -0.2093 -0.0000 0.9778
vn 0.2390 -0.0000 0.9710
vn 0.6164 -0.0000 0.7874
vn 0.9217 -0.0000 0.3879
vn 0.9217 -0.0000 -0.3879
vn -0.5228 -0.7820 -0.3394
vn -0.5330 0.7810 -0.3254
vn -0.6312 -0.7757 -0.0000
vn -0.5633 0.7736 -0.2902
vn -0.5429 -0.7646 0.3475
vn -0.6312 0.7757 -0.0000
vn -0.4371 -0.7811 0.4458
vn -0.5590 0.7774 0.2882
vn -0.2636 -0.7834 0.5628
vn -0.5696 0.7333 0.3713
vn 0.3077 -0.7454 0.5914
vn 0.0116 0.7834 0.6215
vn 0.2388 -0.7830 0.5744
vn -0.0199 0.7456 0.6661
vn -0.2684 -0.5286 -0.8053
vn -0.2249 -0.9081 -0.3534
vn -0.7515 -0.5166 -0.4103
vn -0.8532 -0.5215 -0.0000
vn -0.2909 -0.9335 0.2097
vn -0.6145 -0.5468 0.5687
vn -0.2690 -0.5116 0.8160
vn 0.3044 -0.5299 0.7915
vn 0.4428 -0.5063 0.7400
vn 0.8040 -0.5292 0.2712
vn 0.8532 -0.5215 -0.0000
vn 0.8156 -0.5080 -0.2770
vn 0.5320 -0.5215 -0.6671
vn 0.1899 -0.5215 -0.8318
vn -0.0846 0.5293 -0.8442
vn -0.7087 0.4832 -0.5141
vn -0.7307 0.5556 -0.3966
vn -0.8532 0.5215 -0.0000
vn -0.7536 0.5172 0.4058
vn -0.6791 0.5461 0.4905
vn -0.0894 0.5081 0.8566
vn 0.0982 0.5287 0.8431
vn 0.6408 0.3671 0.6742
vn 0.7597 0.5233 0.3861
vn 0.8532 0.5215 -0.0000
vn 0.7618 0.5196 -0.3869
vn 0.5320 0.5215 -0.6671
vn 0.1899 0.5215 -0.8319
vn -0.2087 -0.0000 -0.9780
vn -0.7854 0.0688 -0.6151
vn -0.8402 -0.2161 -0.4973
vn -0.9895 -0.1444 -0.0000
vn -0.8402 -0.2161 0.4973
vn -0.7854 0.0688 0.6151
vn -0.2087 -0.0000 0.9780
vn 0.2427 -0.0000 0.9701
vn 0.6149 -0.0000 0.7886
vn 0.9227 -0.0000 0.3856
vn 0.9977 -0.0672 -0.0000
vn 0.9227 -0.0000 -0.3856
vn 0.8887 0.1512 -0.4329
vn 0.9969 -0.0521 0.0586
vn 0.9052 0.0055 0.4251
vn 0.5379 -0.1110 0.8357
vn 0.2215 -0.0939 0.9706
vn 0.9696 0.2446 -0.0000
vn 0.8806 -0.3655 -0.3016
vn 0.9945 0.1047 -0.0101
vn 0.9006 0.0279 0.4337
vn 0.5776 -0.3766 0.7243
vn 0.2374 -0.1881 0.9530
vn -0.2061 -0.3766 0.9032
vn -0.5603 -0.4388 0.7026
vn -0.8667 -0.3696 0.3349
vn -0.9407 -0.3255 0.0956
vn -0.8408 -0.3594 -0.4049
vn -0.6221 -0.0657 -0.7801
vn 0.8072 0.4956 -0.3206
vn 0.8428 0.5383 -0.0000
vn 0.8323 0.2784 0.4793
vn 0.4892 0.6199 0.6135
vn 0.1763 0.6102 0.7723
vn 0.0819 0.9299 0.3586
vn -0.0819 0.9299 0.3587
vn 0.1676 0.9825 0.0807
vn -0.0414 0.9826 0.1813
vn -0.1676 0.9826 0.0807
vn 0.0220 0.9951 -0.0963
vn 0.0602 0.9953 -0.0755
vn 0.0846 0.9956 -0.0408
vn 0.0828 0.9958 0.0399
vn 0.0575 0.9957 0.0721
vn 0.0206 0.9957 0.0903
vn -0.0219 0.9958 0.0893
vn -0.0592 0.9959 0.0690
vn -0.0829 0.9959 0.0371
vn -0.0868 0.9955 -0.0389
vn -0.0639 0.9952 -0.0745
vn -0.0237 0.9950 -0.0966
vn 0.8700 -0.3019 -0.3897
vn 0.9753 -0.0559 0.2136
vn 0.5578 -0.8013 0.2163
vn -0.9696 0.2445 -0.0000
vn 0.9701 -0.1011 0.2208
vn -0.0297 0.9942 -0.1034
vn -0.8220 0.4344 0.3681
vn -0.8220 0.4344 -0.3682
vn 0.2089 0.4964 0.8426
vn -0.2041 0.5164 0.8316
vn 0.1385 0.2554 0.9569
vn -0.1439 0.2549 0.9562
vn 0.2267 0.3087 0.9238
vn -0.4207 0.5366 0.7315
vn 0.0534 0.4360 0.8983
vn -0.0558 0.4366 0.8979
vn 0.2505 0.2598 0.9326
vn -0.2504 0.2598 0.9326
vn 0.5344 0.3694 0.7603
vn -0.2336 0.4481 0.8629
vn 0.0269 0.9936 -0.1096
vn -0.9710 -0.1021 0.2162
vn -0.3978 -0.9103 0.1146
vn -0.9751 -0.0561 0.2148
vn -0.9118 -0.0301 0.4095
vn 0.9005 0.0332 -0.4336
vn 0.9009 -0.0081 -0.4339
vn -0.6311 0.0279 0.7752
vn 0.6323 0.0238 0.7743
vn -0.2223 0.0479 0.9738
vn -0.9049 -0.0025 -0.4256
vn 0.9009 -0.0145 0.4338
vn 0.1041 0.7051 0.7014
vn 0.1154 -0.4306 -0.8951
vn -0.9198 -0.3923 -0.0001
vn 0.7649 0.5307 0.3652
vn 0.5972 -0.3294 0.7313
vn 0.6973 -0.3774 -0.6093
vn -0.6571 0.6936 0.2951
vn -0.5754 -0.2766 0.7697
vn 0.8321 -0.3931 -0.3913
vn -0.9047 0.0208 0.4255
vn 0.6234 -0.0124 -0.7818
vn 0.2696 -0.0635 -0.9609
vn 0.9007 0.0261 0.4337
vn -0.6176 0.0209 0.7862
vn -0.9118 0.0489 -0.4078
vn 0.6202 0.1024 0.7777
vn -0.2223 -0.0451 -0.9739
vn 0.1658 0.0212 0.9859
vn -0.7002 -0.0100 -0.7139
vn -0.0968 0.9953 -0.0000
vn 0.2820 0.9502 -0.1327
vn -0.2784 0.8979 -0.3410
vn 0.3849 0.9050 0.1810
vn -0.4193 -0.3737 0.8274
vn -0.7224 0.6914 -0.0001
vn 0.9201 -0.3916 -0.0001
vn -0.4300 -0.4061 0.8063
vn 0.0489 0.6818 0.7299
vn 0.8386 -0.3936 0.3766
vn -0.3167 0.7073 -0.6320
vn 0.6454 0.6946 0.3179
vn -0.8694 -0.2682 0.4150
vn -0.1790 0.6975 -0.6939
vn -0.6961 -0.0000 -0.7180
vn 0.7218 0.6921 -0.0000
vn -0.8671 -0.3295 -0.3735
vn -0.6866 0.6265 0.3689
vn 0.8392 -0.3936 -0.3753
vn -0.4976 0.6173 0.6094
vn 0.2259 0.6359 -0.7380
vn 0.9201 -0.3916 -0.0000
vn 0.5026 0.5434 0.6724
vn -0.7225 0.6914 -0.0000
vn 0.4742 0.6933 -0.5426
vn -0.1230 -0.3907 -0.9123
vn -0.6575 0.6937 -0.2941
vn 0.5416 -0.4003 0.7392
vn -0.7183 -0.4032 -0.5670
vn 0.7225 0.6173 -0.3112
vn 0.1845 -0.4510 0.8732
vn 0.7217 0.6922 -0.0001
vn -0.9199 -0.3923 -0.0000
vn -0.5991 -0.7495 -0.2818
vn 0.8206 0.0054 0.5715
vn -0.3056 -0.9413 0.1437
vn 0.2613 -0.9106 0.3200
vn 0.3994 -0.8973 0.1878
vn 0.0838 -0.9957 -0.0394
vn -0.3492 -0.9226 -0.1642
vn 0.0961 -0.9954 -0.0000
vn -0.2121 -0.0077 -0.9772
vn -0.7748 -0.0281 -0.6316
vn -0.8617 0.1138 -0.4945
vn -0.9940 0.1094 -0.0000
vn -0.8630 0.0950 0.4961
vn -0.7784 0.0398 0.6265
vn -0.2088 0.0107 0.9779
vn 0.2372 0.0128 0.9714
vn 0.6175 0.0085 0.7865
vn 0.9223 0.0068 0.3864
vn 1.0000 -0.0038 -0.0000
vn 0.9228 -0.0035 -0.3852
vn 0.0116 0.7834 -0.6215
vn -0.4371 -0.7812 -0.4458
vn 0.1404 0.7757 -0.6153
vn -0.2636 -0.7834 -0.5628
vn 0.5488 0.7674 -0.3315
vn 0.6347 -0.7550 -0.1648
vn 0.5335 0.7810 0.3247
vn 0.5443 0.7420 0.3912
vn 0.6027 -0.7833 0.1521
vn -0.7636 -0.6457 -0.0000
vn -0.6289 -0.7231 0.2858
vn -0.5429 -0.7646 -0.3475
vn -0.5696 0.7333 -0.3713
vn -0.5590 0.7775 -0.2882
vn -0.5228 -0.7820 0.3394
vn -0.4501 -0.7665 0.4581
vn -0.5633 0.7736 0.2902
vn -0.2699 -0.7543 0.5984
vn -0.5330 0.7810 0.3254
vn 0.2990 -0.7830 0.5454
vn 0.0014 0.7502 0.6612
vn 0.2699 -0.7452 0.6098
vn -0.0349 0.7829 0.6211
vn -0.2690 -0.5116 -0.8160
vn -0.6145 -0.5468 -0.5687
vn -0.2909 -0.9335 -0.2097
vn -0.7515 -0.5166 0.4103
vn -0.2249 -0.9081 0.3534
vn -0.2684 -0.5286 0.8053
vn 0.3052 -0.5059 0.8068
vn 0.4314 -0.5298 0.7302
vn 0.8156 -0.5080 0.2770
vn 0.8040 -0.5292 -0.2712
vn 0.1899 -0.5215 -0.8319
vn -0.0894 0.5082 -0.8566
vn -0.6791 0.5461 -0.4905
vn -0.7536 0.5172 -0.4058
vn -0.7307 0.5556 0.3966
vn -0.7087 0.4832 0.5141
vn -0.0846 0.5293 0.8442
vn 0.1334 0.3882 0.9119
vn 0.6054 0.5292 0.5945
vn 0.7618 0.5196 0.3869
vn 0.7597 0.5233 -0.3861
vn 0.1899 0.5215 -0.8318
vn -0.2225 0.0195 -0.9747
vn -0.6156 -0.1583 -0.7720
vn -0.8933 -0.1304 -0.4302
vn -0.8933 -0.1304 0.4302
vn -0.6156 -0.1583 0.7720
vn -0.2225 0.0195 0.9747
vn 0.2991 0.0838 0.9505
vn 0.5469 0.1068 0.8304
vn 0.8993 -0.0606 0.4331
vn 0.9965 -0.0824 0.0130
vn 0.8283 -0.1911 -0.5267
vt 0.052181 0.124682
vt 0.070299 0.122747
vt 0.070299 0.124682
vt 0.052181 0.122747
vt 0.070447 0.121006
vt 0.088415 0.121012
vt 0.069696 0.122737
vt 0.087669 0.122737
vt 0.069661 0.124671
vt 0.088318 0.126432
vt 0.070345 0.126432
vt 0.071612 0.127669
vt 0.070254 0.120995
vt 0.087924 0.122720
vt 0.069845 0.122720
vt 0.069826 0.124654
vt 0.087906 0.124654
vt 0.070201 0.126415
vt 0.085505 0.121587
vt 0.071312 0.123347
vt 0.069074 0.121587
vt 0.087743 0.123347
vt 0.071201 0.125282
vt 0.087632 0.125282
vt 0.069744 0.127314
vt 0.059410 0.065043
vt 0.061132 0.062809
vt 0.060977 0.065032
vt 0.052606 0.127620
vt 0.070451 0.126421
vt 0.064243 0.119659
vt 0.056201 0.110256
vt 0.064583 0.109770
vt 0.055453 0.065271
vt 0.056158 0.062858
vt 0.056659 0.065128
vt 0.058343 0.065076
vt 0.059796 0.062819
vt 0.053740 0.065323
vt 0.055130 0.062980
vt 0.078946 0.060355
vt 0.080215 0.058835
vt 0.080629 0.060676
vt 0.052066 0.062980
vt 0.053669 0.063024
vt 0.077752 0.125611
vt 0.086282 0.135170
vt 0.077822 0.135580
vt 0.078331 0.102630
vt 0.087526 0.110422
vt 0.079242 0.109751
vt 0.086471 0.141840
vt 0.078016 0.142455
vt 0.087841 0.120223
vt 0.079568 0.119853
vt 0.066041 0.135171
vt 0.061644 0.127742
vt 0.067547 0.127824
vt 0.074689 0.113785
vt 0.073436 0.126441
vt 0.073516 0.113672
vt 0.074909 0.102450
vt 0.073740 0.102143
vt 0.084699 0.145493
vt 0.084636 0.134411
vt 0.085730 0.134323
vt 0.085011 0.121650
vt 0.086098 0.121777
vt 0.085730 0.110340
vt 0.084636 0.110017
vt 0.078779 0.127909
vt 0.084615 0.124768
vt 0.079624 0.127977
vt 0.051514 0.102970
vt 0.052254 0.114047
vt 0.051129 0.114166
vt 0.051129 0.126717
vt 0.052254 0.126813
vt 0.051514 0.138138
vt 0.052646 0.138430
vt 0.070603 0.119082
vt 0.069797 0.110401
vt 0.071531 0.119001
vt 0.071531 0.128469
vt 0.070603 0.128390
vt 0.068897 0.136708
vt 0.069797 0.136929
vt 0.065825 0.142388
vt 0.066671 0.142707
vt 0.074689 0.137625
vt 0.074611 0.126338
vt 0.070446 0.224083
vt 0.058230 0.225824
vt 0.059982 0.221696
vt 0.083095 0.225813
vt 0.070662 0.228660
vt 0.089301 0.214983
vt 0.080910 0.221687
vt 0.090094 0.215201
vt 0.098945 0.206253
vt 0.094008 0.218026
vt 0.093958 0.194552
vt 0.098598 0.206341
vt 0.093958 0.205299
vt 0.093065 0.182070
vt 0.098598 0.193572
vt 0.089301 0.184871
vt 0.083095 0.174113
vt 0.081252 0.177828
vt 0.070583 0.171322
vt 0.083139 0.173632
vt 0.059982 0.178182
vt 0.070662 0.171276
vt 0.070446 0.175786
vt 0.051591 0.184886
vt 0.058230 0.174123
vt 0.046934 0.194571
vt 0.048260 0.182088
vt 0.046934 0.205318
vt 0.042727 0.193595
vt 0.051591 0.214999
vt 0.042727 0.206364
vt 0.048260 0.217866
vt 0.070170 0.218652
vt 0.062190 0.216832
vt 0.078150 0.216825
vt 0.084550 0.211712
vt 0.088101 0.204326
vt 0.088101 0.196130
vt 0.084550 0.188748
vt 0.078150 0.183640
vt 0.080910 0.178173
vt 0.070170 0.181820
vt 0.062191 0.183647
vt 0.055791 0.188759
vt 0.052240 0.196145
vt 0.052240 0.204341
vt 0.055791 0.211724
vt 0.064926 0.210973
vt 0.070141 0.217003
vt 0.062873 0.215345
vt 0.075263 0.210969
vt 0.070094 0.212152
vt 0.079408 0.207657
vt 0.077408 0.215339
vt 0.081708 0.202874
vt 0.083236 0.210683
vt 0.081708 0.197565
vt 0.086470 0.203956
vt 0.079408 0.192783
vt 0.086470 0.196492
vt 0.075263 0.189475
vt 0.083236 0.189769
vt 0.070141 0.183460
vt 0.077408 0.185117
vt 0.064926 0.189479
vt 0.070094 0.188296
vt 0.057045 0.189780
vt 0.062873 0.185124
vt 0.060781 0.192791
vt 0.053811 0.196506
vt 0.058481 0.197575
vt 0.053811 0.203970
vt 0.058481 0.202883
vt 0.057045 0.210694
vt 0.060781 0.207665
vt 0.069827 0.204629
vt 0.068110 0.204266
vt 0.071567 0.204165
vt 0.072985 0.202966
vt 0.073801 0.201270
vt 0.073852 0.199412
vt 0.073130 0.197761
vt 0.071775 0.196644
vt 0.070058 0.196282
vt 0.068318 0.196746
vt 0.066900 0.197945
vt 0.066085 0.199641
vt 0.066033 0.201498
vt 0.066756 0.203149
vt 0.053391 0.059389
vt 0.052453 0.057163
vt 0.053607 0.057194
vt 0.077523 0.056132
vt 0.078494 0.053730
vt 0.078323 0.056132
vt 0.051879 0.059306
vt 0.052591 0.059367
vt 0.076797 0.056269
vt 0.077339 0.053730
vt 0.062311 0.059422
vt 0.063458 0.057111
vt 0.062991 0.059436
vt 0.068264 0.059471
vt 0.069136 0.057075
vt 0.068943 0.059372
vt 0.090294 0.041016
vt 0.089170 0.042796
vt 0.089421 0.040837
vt 0.058316 0.045039
vt 0.057996 0.045870
vt 0.057832 0.045004
vt 0.062734 0.065043
vt 0.062630 0.062819
vt 0.070912 0.064997
vt 0.068961 0.062975
vt 0.070322 0.062777
vt 0.064333 0.065076
vt 0.063994 0.062847
vt 0.077064 0.060355
vt 0.075719 0.058835
vt 0.077175 0.058562
vt 0.051859 0.065271
vt 0.050636 0.062858
vt 0.078780 0.058562
vt 0.061564 0.059417
vt 0.054119 0.059367
vt 0.054632 0.059306
vt 0.090015 0.037548
vt 0.089170 0.037348
vt 0.076579 0.047318
vt 0.076004 0.045987
vt 0.076910 0.045981
vt 0.071286 0.062583
vt 0.079038 0.056269
vt 0.060898 0.059422
vt 0.058887 0.062847
vt 0.060445 0.059436
vt 0.061398 0.057083
vt 0.062483 0.056021
vt 0.062477 0.057090
vt 0.067084 0.057333
vt 0.068041 0.056156
vt 0.068156 0.057217
vt 0.066133 0.057401
vt 0.066969 0.056273
vt 0.060437 0.057090
vt 0.061405 0.056014
vt 0.054658 0.057163
vt 0.055424 0.056014
vt 0.055398 0.057074
vt 0.059782 0.057111
vt 0.060444 0.056021
vt 0.079527 0.053927
vt 0.079527 0.056514
vt 0.080232 0.054282
vt 0.058316 0.043320
vt 0.057252 0.041577
vt 0.058316 0.041728
vt 0.067521 0.059551
vt 0.086578 0.074637
vt 0.086705 0.070594
vt 0.087690 0.070095
vt 0.088767 0.070095
vt 0.088609 0.075136
vt 0.087533 0.075136
vt 0.090365 0.071494
vt 0.089595 0.074637
vt 0.090295 0.073737
vt 0.085730 0.072615
vt 0.086005 0.071494
vt 0.069020 0.056014
vt 0.063465 0.056042
vt 0.076291 0.053927
vt 0.077331 0.052761
vt 0.051424 0.057074
vt 0.052479 0.056102
vt 0.078486 0.052761
vt 0.053633 0.056134
vt 0.079518 0.052958
vt 0.054684 0.056102
vt 0.066356 0.065395
vt 0.067568 0.065418
vt 0.066017 0.065529
vt 0.068942 0.065159
vt 0.067571 0.065308
vt 0.066149 0.063231
vt 0.066472 0.063350
vt 0.069315 0.065228
vt 0.067141 0.059943
vt 0.067511 0.059715
vt 0.067973 0.059867
vt 0.066862 0.059599
vt 0.068626 0.063154
vt 0.095677 0.088140
vt 0.096856 0.086187
vt 0.096717 0.088186
vt 0.097907 0.088186
vt 0.097818 0.086197
vt 0.097049 0.082819
vt 0.096014 0.086160
vt 0.097536 0.082829
vt 0.097273 0.082633
vt 0.076579 0.044645
vt 0.075695 0.044838
vt 0.057507 0.034397
vt 0.058087 0.037670
vt 0.057252 0.037943
vt 0.058141 0.033870
vt 0.058316 0.034107
vt 0.058316 0.039582
vt 0.057483 0.039893
vt 0.059726 0.188412
vt 0.073608 0.191781
vt 0.061227 0.191978
vt 0.085658 0.190891
vt 0.072177 0.193841
vt 0.072637 0.190760
vt 0.055976 0.194619
vt 0.069921 0.191020
vt 0.069476 0.194622
vt 0.057689 0.197494
vt 0.070969 0.200728
vt 0.057918 0.200747
vt 0.073608 0.195818
vt 0.061227 0.195904
vt 0.055994 0.198545
vt 0.069495 0.198659
vt 0.072508 0.190320
vt 0.086075 0.190389
vt 0.057918 0.204323
vt 0.070972 0.204376
vt 0.072101 0.199426
vt 0.059726 0.199413
vt 0.056469 0.202118
vt 0.069921 0.202078
vt 0.074408 0.200725
vt 0.073831 0.204311
vt 0.073828 0.200776
vt 0.065681 0.198715
vt 0.064497 0.194709
vt 0.065734 0.194767
vt 0.076798 0.200835
vt 0.078082 0.204512
vt 0.076752 0.204566
vt 0.073339 0.202070
vt 0.072307 0.198703
vt 0.072913 0.198651
vt 0.079855 0.206640
vt 0.079318 0.205666
vt 0.080560 0.206474
vt 0.065882 0.191194
vt 0.064649 0.191032
vt 0.079392 0.207798
vt 0.078104 0.207959
vt 0.079996 0.191818
vt 0.072984 0.190125
vt 0.080535 0.191767
vt 0.063358 0.199850
vt 0.065124 0.199262
vt 0.064637 0.199836
vt 0.070622 0.194556
vt 0.065054 0.204598
vt 0.066382 0.207850
vt 0.079504 0.191248
vt 0.085152 0.194077
vt 0.072076 0.197572
vt 0.065098 0.201023
vt 0.079309 0.198721
vt 0.079360 0.194794
vt 0.085055 0.197653
vt 0.072409 0.200969
vt 0.065143 0.206077
vt 0.066504 0.197831
vt 0.085384 0.200909
vt 0.073112 0.203359
vt 0.065734 0.202255
vt 0.070736 0.207622
vt 0.057689 0.207512
vt 0.079504 0.204686
vt 0.079360 0.202251
vt 0.053085 0.195621
vt 0.050054 0.199198
vt 0.051783 0.195342
vt 0.056919 0.192216
vt 0.057832 0.192731
vt 0.064444 0.190439
vt 0.064787 0.191089
vt 0.072868 0.190362
vt 0.072574 0.191018
vt 0.079123 0.192350
vt 0.079622 0.205514
vt 0.073522 0.207614
vt 0.073178 0.206964
vt 0.065097 0.207690
vt 0.065391 0.207034
vt 0.058316 0.205519
vt 0.057443 0.206050
vt 0.053353 0.202717
vt 0.052074 0.203020
vt 0.051486 0.199185
vt 0.070728 0.197399
vt 0.072152 0.200777
vt 0.070641 0.198707
vt 0.072155 0.204312
vt 0.064321 0.190204
vt 0.052042 0.199193
vt 0.071119 0.202329
vt 0.056579 0.192032
vt 0.058189 0.192941
vt 0.053590 0.195740
vt 0.072267 0.188367
vt 0.074938 0.191725
vt 0.049516 0.199216
vt 0.051295 0.195249
vt 0.068657 0.197555
vt 0.069588 0.200796
vt 0.068991 0.200952
vt 0.062818 0.194704
vt 0.062970 0.191027
vt 0.064443 0.198770
vt 0.062818 0.202408
vt 0.062764 0.198765
vt 0.070931 0.197513
vt 0.069364 0.193888
vt 0.071030 0.193897
vt 0.071079 0.190850
vt 0.072288 0.194552
vt 0.069827 0.190690
vt 0.071492 0.190699
vt 0.079392 0.197692
vt 0.079650 0.200892
vt 0.078127 0.200894
vt 0.072785 0.202325
vt 0.079605 0.204509
vt 0.073429 0.188109
vt 0.076461 0.191719
vt 0.071254 0.200804
vt 0.069265 0.197505
vt 0.064649 0.204914
vt 0.064497 0.202413
vt 0.063123 0.199280
vt 0.065143 0.198460
vt 0.070269 0.203111
vt 0.074937 0.195876
vt 0.074909 0.199582
vt 0.073386 0.199588
vt 0.071918 0.197553
vt 0.063011 0.198156
vt 0.064381 0.197410
vt 0.064381 0.198213
vt 0.073602 0.207455
vt 0.071926 0.207456
vt 0.076460 0.195870
vt 0.080915 0.207796
vt 0.072895 0.194614
vt 0.078063 0.197749
vt 0.073594 0.197551
vt 0.074167 0.197397
vt 0.073339 0.191012
vt 0.072745 0.190846
vt 0.063397 0.198202
vt 0.063142 0.198477
vt 0.058658 0.205329
vt 0.065513 0.206797
vt 0.057118 0.206266
vt 0.051594 0.203148
vt 0.079268 0.192610
vt 0.073061 0.206728
vt 0.079748 0.205277
vt 0.057945 0.205101
vt 0.053960 0.201999
vt 0.058475 0.204692
vt 0.070592 0.202124
vt 0.069385 0.201891
vt 0.069218 0.190743
vt 0.068759 0.193824
vt 0.051748 0.199029
vt 0.050332 0.198971
vt 0.052376 0.195560
vt 0.073516 0.137921
vt 0.055732 0.126328
vt 0.056036 0.145725
vt 0.073740 0.145838
vt 0.083437 0.128365
vt 0.081703 0.110298
vt 0.070312 0.138404
vt 0.069920 0.114021
vt 0.052646 0.102659
vt 0.067080 0.109550
vt 0.083587 0.101817
vt 0.067455 0.121182
vt 0.066031 0.145306
vt 0.083587 0.145773
vt 0.055812 0.113559
vt 0.540199 0.368550
vt 0.539399 0.365383
vt 0.540199 0.365424
vt 0.585258 0.366996
vt 0.579908 0.363159
vt 0.585870 0.366384
vt 0.544639 0.371512
vt 0.539399 0.368608
vt 0.579300 0.363989
vt 0.568022 0.364820
vt 0.567820 0.364069
vt 0.545277 0.371364
vt 0.554080 0.373519
vt 0.568552 0.371934
vt 0.557568 0.372114
vt 0.558027 0.371961
vt 0.554426 0.373310
vt 0.565853 0.374233
vt 0.547784 0.371141
vt 0.548545 0.371019
vt 0.577245 0.373302
vt 0.565836 0.374001
vt 0.541983 0.369292
vt 0.541012 0.369360
vt 0.586395 0.371351
vt 0.577626 0.373512
vt 0.539641 0.367123
vt 0.538596 0.367122
vt 0.592307 0.368591
vt 0.587067 0.371498
vt 0.541012 0.364871
vt 0.541983 0.364942
vt 0.057549 0.139739
vt 0.058813 0.134015
vt 0.060183 0.134871
vt 0.086235 0.189219
vt 0.088402 0.199586
vt 0.084396 0.190510
vt 0.060164 0.127426
vt 0.078426 0.181941
vt 0.077179 0.183783
vt 0.060164 0.120053
vt 0.061644 0.119765
vt 0.068689 0.178646
vt 0.068179 0.180737
vt 0.055870 0.130608
vt 0.055870 0.119851
vt 0.086282 0.114738
vt 0.086215 0.125497
vt 0.064243 0.130745
vt 0.056201 0.140396
vt 0.077822 0.114523
vt 0.086471 0.105024
vt 0.066041 0.112135
vt 0.060183 0.112519
vt 0.078331 0.140801
vt 0.087526 0.130975
vt 0.086641 0.140548
vt 0.067547 0.119603
vt 0.079242 0.130934
vt 0.051961 0.187254
vt 0.077179 0.222762
vt 0.047956 0.195525
vt 0.088402 0.209213
vt 0.084396 0.217484
vt 0.047956 0.205152
vt 0.059179 0.220955
vt 0.051961 0.214228
vt 0.090568 0.209454
vt 0.090568 0.199039
vt 0.051143 0.185696
vt 0.046809 0.194646
vt 0.078426 0.224114
vt 0.086235 0.218404
vt 0.059179 0.181976
vt 0.057549 0.107440
vt 0.058813 0.113356
vt 0.056379 0.108661
vt 0.058952 0.179986
vt 0.063327 0.140189
vt 0.063327 0.106900
vt 0.068897 0.110627
vt 0.067326 0.129243
vt 0.058911 0.130726
vt 0.057587 0.129848
vt 0.069937 0.130040
vt 0.075136 0.127360
vt 0.083686 0.124754
vt 0.079470 0.124573
vt 0.083686 0.121201
vt 0.075136 0.118566
vt 0.079470 0.121435
vt 0.067326 0.116535
vt 0.078779 0.117953
vt 0.057587 0.115743
vt 0.069937 0.115653
vt 0.580169 0.365527
vt 0.568124 0.366306
vt 0.568128 0.365611
vt 0.588468 0.365988
vt 0.588473 0.365292
vt 0.571255 0.360230
vt 0.580133 0.362517
vt 0.571259 0.360698
vt 0.561325 0.360230
vt 0.561329 0.360698
vt 0.552309 0.362517
vt 0.565783 0.365106
vt 0.553583 0.366015
vt 0.553593 0.365321
vt 0.579161 0.366015
vt 0.579172 0.365321
vt 0.591108 0.365924
vt 0.552833 0.365615
vt 0.544250 0.366026
vt 0.552851 0.364925
vt 0.565053 0.364532
vt 0.578419 0.365615
vt 0.578437 0.364925
vt 0.590336 0.366715
vt 0.590354 0.366026
vt 0.554731 0.366222
vt 0.542643 0.365292
vt 0.554735 0.365527
vt 0.571020 0.362136
vt 0.579480 0.363871
vt 0.544639 0.362475
vt 0.545277 0.362607
vt 0.561552 0.362136
vt 0.571178 0.361369
vt 0.554426 0.360655
vt 0.554080 0.360462
vt 0.552534 0.363159
vt 0.561408 0.361369
vt 0.565836 0.359956
vt 0.565853 0.359740
vt 0.546924 0.366996
vt 0.552952 0.363871
vt 0.577626 0.360454
vt 0.577245 0.360648
vt 0.568552 0.362159
vt 0.557568 0.362028
vt 0.568429 0.362000
vt 0.586395 0.362594
vt 0.587067 0.362462
vt 0.548545 0.363180
vt 0.558027 0.362187
vt 0.591473 0.365408
vt 0.592307 0.365366
vt 0.547784 0.363053
vt 0.591473 0.368533
vt 0.579868 0.364737
vt 0.586194 0.365795
vt 0.553900 0.364577
vt 0.565892 0.364365
vt 0.579064 0.364577
vt 0.590807 0.365170
vt 0.540338 0.364831
vt 0.537882 0.367119
vt 0.540338 0.369394
vt 0.547221 0.371205
vt 0.542950 0.364506
vt 0.554846 0.364737
vt 0.580164 0.366222
vt 0.568008 0.367070
vt 0.588023 0.366756
vt 0.579854 0.366987
vt 0.544308 0.362410
vt 0.571164 0.359856
vt 0.545430 0.367415
vt 0.545007 0.366618
vt 0.565773 0.365799
vt 0.553867 0.366822
vt 0.579031 0.366822
vt 0.565859 0.366610
vt 0.591098 0.366618
vt 0.544232 0.366715
vt 0.553107 0.366443
vt 0.544645 0.367526
vt 0.565034 0.365222
vt 0.565110 0.366057
vt 0.590002 0.367526
vt 0.578278 0.366443
vt 0.542935 0.366756
vt 0.542638 0.365988
vt 0.554832 0.366987
vt 0.088569 0.126422
vt 0.088418 0.124682
vt 0.088843 0.127621
vt 0.054769 0.125282
vt 0.052331 0.127007
vt 0.054880 0.123347
vt 0.052642 0.121587
vt 0.052121 0.126415
vt 0.051746 0.124654
vt 0.051765 0.122720
vt 0.052174 0.120995
vt 0.053639 0.127669
vt 0.052372 0.126432
vt 0.051688 0.124671
vt 0.051722 0.122737
vt 0.052469 0.121012
vt 0.088569 0.121001
vt 0.088418 0.122748
vt 0.052333 0.121000
vt 0.087634 0.124671
vt 0.089585 0.127669
vt 0.088333 0.120995
vt 0.088281 0.126415
vt 0.085194 0.127007
vt 0.052333 0.126421
vt 0.086641 0.103512
vt 0.093065 0.217848
vt 0.094249 0.205292
vt 0.070684 0.175884
vt 0.090040 0.043014
vt 0.058316 0.045917
vt 0.075355 0.060676
vt 0.050182 0.065128
vt 0.075695 0.047135
vt 0.069423 0.059275
vt 0.066017 0.056341
vt 0.059789 0.056042
vt 0.057579 0.043216
vt 0.085935 0.073737
vt 0.089722 0.070594
vt 0.090570 0.072615
vt 0.076283 0.052958
vt 0.051450 0.056014
vt 0.057288 0.034092
vt 0.056419 0.191116
vt 0.074411 0.204374
vt 0.078998 0.206129
vt 0.063639 0.206367
vt 0.086075 0.203200
vt 0.065882 0.204686
vt 0.080535 0.206030
vt 0.080915 0.197690
vt 0.074951 0.188102
vt 0.062970 0.204909
vt 0.071935 0.203119
vt 0.063011 0.197353
vt 0.064676 0.198189
vt 0.053286 0.202322
vt 0.072504 0.207131
vt 0.064457 0.207398
vt 0.057036 0.205541
vt 0.051995 0.202534
vt 0.073643 0.192067
vt 0.080560 0.193732
vt 0.079651 0.194171
vt 0.073296 0.192647
vt 0.072787 0.207737
vt 0.064805 0.206818
vt 0.065313 0.191728
vt 0.065596 0.192334
vt 0.057723 0.192975
vt 0.058580 0.193486
vt 0.053638 0.195876
vt 0.055812 0.137808
vt 0.081703 0.136826
vt 0.083437 0.118898
vt 0.069920 0.126787
vt 0.070312 0.102633
vt 0.066031 0.101349
vt 0.067080 0.133944
vt 0.056036 0.102030
vt 0.568429 0.372086
vt 0.056379 0.138514
vt 0.064583 0.140833
vt 0.078016 0.104511
vt 0.068179 0.224001
vt 0.065825 0.104701
vt 0.058911 0.114757
vt 0.580129 0.362050
vt 0.552305 0.362050
vt 0.546314 0.366384
vt 0.547221 0.362984
vt 0.553905 0.360363
vt 0.561395 0.359856
vt 0.590774 0.367415
s 0
usemtl Material
f 44/1/1 400/2/1 399/3/1
f 43/4/2 401/5/2 400/2/2
f 45/6/3 402/7/3 401/5/3
f 46/8/4 403/9/4 402/7/4
f 403/9/5 48/10/5 404/11/5
f 48/10/6 405/12/6 404/11/6
f 405/13/7 50/14/7 406/15/7
f 50/14/8 407/16/8 406/15/8
f 51/17/9 408/18/9 407/16/9
f 52/19/10 409/20/10 408/21/10
f 53/22/11 410/23/11 409/20/11
f 54/24/12 411/25/12 410/23/12
f 98/26/13 99/27/13 86/28/13
f 55/29/14 412/30/14 411/25/14
f 412/30/15 44/1/15 399/3/15
f 15/31/16 307/32/16 13/33/16
f 90/34/17 158/35/17 156/36/17
f 97/37/18 101/38/18 98/26/18
f 10/39/19 118/40/19 90/34/19
f 24/41/20 125/42/20 97/43/20
f 10/39/21 116/44/21 117/45/21
f 1/46/22 304/47/22 27/48/22
f 13/49/23 309/50/23 11/51/23
f 27/48/24 306/52/24 25/53/24
f 11/51/25 312/54/25 9/55/25
f 25/56/26 314/57/26 23/58/26
f 329/59/27 29/60/27 30/61/27
f 331/62/28 30/61/28 31/63/28
f 331/64/29 32/65/29 332/66/29
f 332/66/30 33/67/30 333/68/30
f 334/69/31 33/67/31 34/70/31
f 335/71/32 34/72/32 35/73/32
f 335/74/33 36/75/33 336/76/33
f 337/77/34 36/75/34 37/78/34
f 338/79/35 37/78/35 38/80/35
f 339/81/36 38/82/36 39/83/36
f 339/81/37 40/84/37 340/85/37
f 341/86/38 40/84/38 41/87/38
f 342/88/39 41/87/39 42/89/39
f 342/90/40 29/60/40 330/91/40
f 4/92/41 44/93/41 2/94/41
f 4/92/42 45/95/42 43/96/42
f 60/97/43 45/95/43 6/98/43
f 60/99/44 47/100/44 46/101/44
f 12/102/45 47/103/45 61/104/45
f 12/102/46 49/105/46 48/106/46
f 14/107/47 50/108/47 49/105/47
f 16/109/48 51/110/48 50/111/48
f 20/112/49 51/113/49 18/114/49
f 67/115/50 52/116/50 20/112/50
f 68/117/51 53/118/51 67/115/51
f 26/119/52 54/120/52 68/117/52
f 28/121/53 55/122/53 26/119/53
f 2/94/54 56/123/54 28/121/54
f 172/124/55 2/94/55 100/125/55
f 173/126/56 4/92/56 172/124/56
f 174/127/57 6/98/57 173/126/57
f 175/128/58 60/97/58 174/127/58
f 176/129/59 61/104/59 175/128/59
f 177/130/60 12/102/60 176/129/60
f 178/131/61 14/107/61 177/130/61
f 178/131/62 18/114/62 16/132/62
f 179/133/63 20/112/63 18/114/63
f 180/134/64 67/115/64 20/112/64
f 181/135/65 68/117/65 67/115/65
f 182/136/66 26/119/66 68/117/66
f 183/137/67 28/121/67 26/119/67
f 184/138/68 2/94/68 28/121/68
f 72/139/69 57/140/69 58/141/69
f 73/142/70 57/140/70 71/143/70
f 88/144/71 59/145/71 73/142/71
f 89/146/72 74/147/72 88/144/72
f 76/148/73 75/149/73 89/146/73
f 77/150/74 62/151/74 76/148/74
f 78/152/75 63/153/75 77/150/75
f 78/152/76 65/154/76 64/155/76
f 80/156/77 65/154/77 79/157/77
f 80/156/78 81/158/78 66/159/78
f 95/160/79 82/161/79 81/158/79
f 96/162/80 69/163/80 82/161/80
f 83/164/81 70/165/81 69/163/81
f 72/139/82 70/165/82 84/166/82
f 85/167/83 72/139/83 86/168/83
f 87/169/84 71/143/84 85/167/84
f 8/170/85 73/142/85 87/169/85
f 10/171/86 88/144/86 8/170/86
f 90/172/87 89/146/87 10/171/87
f 156/173/88 76/148/88 90/172/88
f 155/174/89 77/150/89 156/173/89
f 155/174/90 79/157/90 78/152/90
f 157/175/91 80/156/91 79/157/91
f 94/176/92 95/160/92 80/156/92
f 22/177/93 96/162/93 95/160/93
f 24/178/94 83/164/94 96/162/94
f 97/179/95 84/166/95 83/164/95
f 98/180/96 72/139/96 84/166/96
f 110/181/97 137/182/97 138/183/97
f 111/184/98 140/185/98 112/186/98
f 115/187/99 137/182/99 109/188/99
f 122/189/100 139/190/100 111/184/100
f 113/191/101 135/192/101 115/193/101
f 162/194/102 132/195/102 122/196/102
f 159/197/103 169/198/103 165/199/103
f 121/200/104 167/201/104 120/202/104
f 85/203/105 99/27/105 105/204/105
f 94/205/106 102/206/106 104/207/106
f 87/208/107 105/204/107 107/209/107
f 22/210/108 104/211/108 123/212/108
f 8/213/109 107/214/109 116/44/109
f 24/41/110 123/212/110 124/215/110
f 114/216/111 105/204/111 99/27/111
f 113/191/112 107/209/112 105/204/112
f 115/187/113 116/44/113 107/214/113
f 110/181/114 116/44/114 109/188/114
f 108/217/115 117/45/115 110/181/115
f 161/218/116 118/40/116 108/217/116
f 121/219/117 165/199/117 171/220/117
f 91/221/118 166/222/118 92/223/118
f 162/194/119 104/207/119 102/206/119
f 122/196/120 123/224/120 104/207/120
f 112/186/121 123/212/121 111/184/121
f 103/225/122 124/215/122 112/186/122
f 126/226/123 125/227/123 103/228/123
f 114/216/124 101/38/124 126/226/124
f 127/229/125 147/230/125 133/231/125
f 128/232/126 144/233/126 130/234/126
f 134/235/127 142/236/127 128/232/127
f 129/237/128 141/238/128 127/229/128
f 136/239/129 148/240/129 134/241/129
f 131/242/130 143/243/130 129/237/130
f 103/225/131 140/185/131 131/244/131
f 108/217/132 138/183/132 136/239/132
f 126/245/133 131/244/133 129/246/133
f 161/247/134 136/248/134 134/249/134
f 114/216/135 129/237/135 127/229/135
f 160/250/136 134/235/136 128/232/136
f 160/250/137 130/234/137 162/194/137
f 114/216/138 133/231/138 113/191/138
f 148/251/139 149/252/139 147/253/139
f 141/254/139 144/255/139 142/256/139
f 144/255/139 145/257/139 146/258/139
f 145/257/139 153/259/139 146/258/139
f 147/253/139 142/256/139 148/251/139
f 149/252/139 152/260/139 151/261/139
f 130/234/140 146/262/140 132/195/140
f 133/231/141 149/263/141 135/192/141
f 132/264/142 153/265/142 139/190/142
f 135/266/143 151/267/143 137/182/143
f 139/190/11 154/268/11 140/185/11
f 137/182/144 152/269/144 138/183/144
f 140/185/145 145/270/145 131/244/145
f 138/183/146 150/271/146 136/239/146
f 91/272/147 155/273/147 156/274/147
f 93/275/148 155/273/148 92/276/148
f 91/272/149 158/277/149 106/278/149
f 93/275/150 102/206/150 157/279/150
f 119/280/151 160/250/151 120/281/151
f 121/282/152 160/250/152 162/194/152
f 119/280/153 158/277/153 161/283/153
f 121/282/154 102/206/154 159/284/154
f 168/285/155 163/286/155 166/287/155
f 169/288/156 163/286/156 165/289/156
f 170/290/157 163/286/157 164/291/157
f 171/292/158 163/286/158 167/293/158
f 93/294/159 166/222/159 169/295/159
f 119/296/160 164/297/160 106/298/160
f 119/296/161 167/299/161 170/300/161
f 106/298/162 168/301/162 91/302/162
f 180/303/163 203/304/163 181/305/163
f 66/306/164 191/307/164 192/308/164
f 174/309/165 198/310/165 199/311/165
f 59/312/166 185/313/166 57/314/166
f 181/305/167 204/315/167 182/316/167
f 65/154/168 180/134/168 179/133/168
f 64/155/169 179/133/169 178/131/169
f 63/153/170 178/131/170 177/130/170
f 63/153/171 176/129/171 62/151/171
f 175/317/172 199/311/172 200/318/172
f 66/306/173 202/319/173 180/320/173
f 58/321/174 185/313/174 186/322/174
f 182/316/175 205/323/175 183/324/175
f 176/325/176 200/318/176 201/326/176
f 207/327/177 261/328/177 260/329/177
f 196/330/178 259/331/178 197/332/178
f 189/333/179 232/334/179 188/335/179
f 223/336/180 247/337/180 222/338/180
f 202/339/181 236/340/181 248/341/181
f 198/342/182 259/331/182 258/343/182
f 188/335/183 231/344/183 187/345/183
f 224/346/184 251/347/184 253/348/184
f 201/349/185 234/350/185 190/351/185
f 198/310/186 241/352/186 199/311/186
f 74/353/187 187/345/187 59/354/187
f 173/355/188 197/332/188 198/342/188
f 81/356/189 193/357/189 191/307/189
f 75/358/190 188/335/190 74/353/190
f 100/359/191 197/332/191 172/360/191
f 82/361/192 194/362/192 193/357/192
f 62/363/193 201/349/193 190/351/193
f 62/364/194 189/333/194 75/358/194
f 69/365/195 195/366/195 194/362/195
f 100/359/196 206/367/196 196/330/196
f 58/321/197 195/368/197 70/369/197
f 183/370/198 206/367/198 184/371/198
f 217/372/199 218/373/199 228/374/199
f 217/372/200 227/375/200 216/376/200
f 216/376/139 226/377/139 215/378/139
f 215/378/139 225/379/139 213/380/139
f 214/381/139 225/379/139 224/346/139
f 212/382/139 222/383/139 211/384/139
f 211/384/139 221/385/139 210/386/139
f 209/387/139 221/385/139 220/388/139
f 207/389/201 220/388/201 219/390/201
f 208/391/202 219/390/202 218/373/202
f 187/392/203 229/393/203 185/313/203
f 226/377/204 251/347/204 225/379/204
f 199/311/205 246/394/205 200/318/205
f 186/322/206 229/393/206 230/395/206
f 227/375/207 270/396/207 226/377/207
f 217/372/208 261/397/208 208/391/208
f 201/326/209 246/394/209 245/398/209
f 228/374/210 269/399/210 227/375/210
f 217/372/211 265/400/211 266/401/211
f 202/402/212 252/403/212 203/304/212
f 228/374/213 267/404/213 268/405/213
f 215/406/214 265/407/214 216/408/214
f 258/343/215 272/409/215 271/410/215
f 254/411/216 268/412/216 267/413/216
f 237/414/217 240/415/217 235/416/217
f 258/417/218 242/418/218 241/352/218
f 235/416/219 263/419/219 236/420/219
f 241/352/217 247/337/217 246/394/217
f 234/421/220 250/422/220 233/423/220
f 246/394/221 244/424/221 245/398/221
f 233/423/222 249/425/222 232/334/222
f 248/426/223 251/427/223 252/403/223
f 238/428/224 264/429/224 237/414/224
f 256/430/225 268/412/225 255/431/225
f 230/395/226 260/329/226 261/328/226
f 245/432/227 243/433/227 234/350/227
f 254/411/228 272/409/228 259/331/228
f 238/428/229 266/434/229 265/407/229
f 257/435/230 269/436/230 256/437/230
f 231/438/231 260/329/231 229/393/231
f 236/439/232 253/440/232 248/441/232
f 230/395/233 266/442/233 239/443/233
f 252/403/234 270/444/234 257/435/234
f 232/334/235 262/445/235 231/344/235
f 221/446/236 247/337/236 242/418/236
f 190/447/237 233/423/237 189/333/237
f 207/327/238 262/448/238 209/449/238
f 220/450/239 242/418/239 271/451/239
f 192/308/240 235/416/240 236/420/240
f 223/452/241 243/433/241 244/453/241
f 210/386/242 262/454/242 249/455/242
f 219/390/243 271/456/243 272/457/243
f 191/307/244 237/414/244 235/416/244
f 224/346/245 263/458/245 214/381/245
f 211/384/246 249/455/246 250/459/246
f 219/390/247 267/404/247 218/373/247
f 193/357/248 238/428/248 237/414/248
f 196/330/249 255/431/249 254/411/249
f 212/382/250 250/459/250 243/460/250
f 194/461/251 239/462/251 238/463/251
f 205/323/252 255/464/252 206/465/252
f 214/466/253 240/415/253 213/467/253
f 186/322/254 239/443/254 195/368/254
f 205/323/255 257/435/255 256/437/255
f 213/467/256 264/429/256 215/406/256
f 204/315/257 252/403/257 257/435/257
f 186/468/258 196/469/258 197/470/258
f 42/471/15 273/472/15 29/60/15
f 285/473/259 42/471/259 41/474/259
f 284/475/260 41/87/260 40/84/260
f 39/83/261 284/475/261 40/84/261
f 282/476/262 39/83/262 38/82/262
f 37/78/263 282/477/263 38/80/263
f 280/478/264 37/78/264 36/75/264
f 35/479/265 280/478/265 36/75/265
f 278/480/266 35/481/266 34/70/266
f 33/67/267 278/480/267 34/70/267
f 32/65/268 277/482/268 33/67/268
f 275/483/269 32/65/269 31/484/269
f 274/485/2 31/63/2 30/61/2
f 273/472/1 30/61/1 29/60/1
f 287/486/270 367/487/270 300/488/270
f 286/489/271 366/490/271 371/491/271
f 287/486/272 398/492/272 386/493/272
f 286/494/273 372/495/273 273/496/273
f 288/497/274 397/498/274 398/492/274
f 273/499/275 384/500/275 274/501/275
f 289/502/276 396/503/276 397/498/276
f 274/501/277 383/504/277 275/505/277
f 291/506/278 396/503/278 290/507/278
f 276/508/279 383/504/279 382/509/279
f 292/510/280 395/511/280 291/506/280
f 277/512/281 382/509/281 381/513/281
f 292/510/282 393/514/282 394/515/282
f 277/512/283 380/516/283 278/517/283
f 304/518/284 320/519/284 306/520/284
f 312/521/285 323/522/285 326/523/285
f 306/520/286 328/524/286 314/57/286
f 311/525/287 326/523/287 325/526/287
f 314/57/288 327/527/288 313/528/288
f 310/529/289 325/526/289 324/530/289
f 15/31/290 303/531/290 301/532/290
f 1/46/291 308/533/291 302/534/291
f 17/535/292 305/536/292 303/531/292
f 3/537/293 310/538/293 308/533/293
f 19/539/294 313/528/294 305/540/294
f 5/541/295 311/542/295 310/543/295
f 23/58/296 313/528/296 21/544/296
f 9/55/297 311/542/297 7/545/297
f 316/546/298 317/547/298 318/548/298
f 316/546/298 321/549/298 315/550/298
f 317/547/298 320/551/298 318/548/298
f 320/551/298 327/552/298 328/553/298
f 321/549/298 324/530/298 323/522/298
f 324/530/298 326/523/298 323/522/298
f 307/554/299 323/522/299 309/555/299
f 302/556/300 318/548/300 304/557/300
f 307/554/301 315/550/301 321/549/301
f 303/558/302 315/550/302 301/559/302
f 302/556/303 322/560/303 316/546/303
f 303/561/304 319/562/304 317/563/304
f 308/564/305 324/530/305 322/560/305
f 313/528/306 319/562/306 305/540/306
f 1/46/307 342/90/307 330/91/307
f 27/565/308 341/86/308 342/88/308
f 25/56/309 340/85/309 341/86/309
f 23/58/310 339/81/310 340/85/310
f 19/539/311 339/81/311 21/544/311
f 17/566/312 338/567/312 19/539/312
f 15/568/313 337/569/313 17/570/313
f 15/568/314 335/71/314 336/571/314
f 13/572/315 334/573/315 335/71/315
f 11/574/316 333/575/316 334/573/316
f 7/576/317 333/575/317 9/577/317
f 5/578/318 332/579/318 7/576/318
f 3/580/319 331/581/319 5/578/319
f 1/46/320 329/59/320 3/537/320
f 368/582/321 370/583/321 369/584/321
f 387/585/322 368/582/322 373/586/322
f 388/587/323 373/588/323 374/589/323
f 389/590/11 374/589/11 375/591/11
f 376/592/324 389/590/324 375/591/324
f 377/593/325 390/594/325 376/595/325
f 392/596/326 377/593/326 378/597/326
f 379/598/327 392/596/327 378/597/327
f 351/599/328 379/600/328 352/601/328
f 350/602/329 351/599/329 352/601/329
f 347/603/144 350/602/144 348/604/144
f 345/605/330 348/604/330 346/606/330
f 343/607/2 346/608/2 344/609/2
f 370/583/1 344/609/1 369/584/1
f 284/610/331 366/490/331 285/611/331
f 300/488/332 365/612/332 299/613/332
f 283/614/333 364/615/333 284/610/333
f 298/616/334 365/612/334 363/617/334
f 283/614/335 360/618/335 362/619/335
f 297/620/336 363/617/336 361/621/336
f 281/622/337 360/618/337 282/623/337
f 297/620/338 359/624/338 296/625/338
f 281/626/339 356/627/339 358/628/339
f 295/629/340 359/624/340 357/630/340
f 279/631/341 356/627/341 280/632/341
f 294/633/342 357/630/342 355/634/342
f 279/631/343 380/516/343 354/635/343
f 294/633/344 393/514/344 293/636/344
f 369/584/345 371/637/345 368/582/345
f 368/638/346 366/490/346 373/588/346
f 373/588/347 364/615/347 374/589/347
f 374/589/348 362/619/348 375/591/348
f 376/592/349 362/619/349 360/618/349
f 377/593/350 360/639/350 358/640/350
f 378/597/351 358/640/351 356/641/351
f 378/597/352 354/642/352 379/598/352
f 352/643/353 354/635/353 380/516/353
f 352/643/354 381/513/354 350/644/354
f 350/644/355 382/509/355 348/645/355
f 346/646/356 382/509/356 383/504/356
f 344/609/357 383/647/357 384/648/357
f 369/584/358 384/648/358 372/495/358
f 385/649/359 386/650/359 370/583/359
f 385/649/360 365/651/360 367/652/360
f 387/653/361 363/617/361 365/612/361
f 389/590/362 363/654/362 388/587/362
f 390/594/363 361/655/363 389/656/363
f 391/657/364 359/658/364 390/594/364
f 391/657/365 355/659/365 357/660/365
f 353/661/366 355/659/366 392/596/366
f 353/662/367 394/663/367 393/664/367
f 349/665/368 394/663/368 351/599/368
f 347/603/369 395/666/369 349/665/369
f 347/603/370 397/667/370 396/668/370
f 343/607/371 397/669/371 345/670/371
f 370/583/372 398/671/372 343/607/372
f 300/672/373 399/3/373 287/673/373
f 299/674/374 412/30/374 300/672/374
f 298/675/375 411/25/375 299/676/375
f 409/20/376 298/675/376 297/677/376
f 408/21/377 297/677/377 296/678/377
f 407/16/378 296/679/378 295/680/378
f 406/15/379 295/680/379 294/681/379
f 293/682/380 406/15/380 294/681/380
f 404/11/381 293/683/381 292/684/381
f 291/685/382 404/11/382 292/684/382
f 290/686/383 403/9/383 291/685/383
f 401/5/384 290/686/384 289/687/384
f 400/2/2 289/688/2 288/689/2
f 399/3/1 288/689/1 287/673/1
f 44/1/1 43/4/1 400/2/1
f 43/4/2 45/690/2 401/5/2
f 45/6/385 46/8/385 402/7/385
f 46/8/386 47/691/386 403/9/386
f 403/9/387 47/691/387 48/10/387
f 48/10/388 49/692/388 405/12/388
f 405/13/389 49/693/389 50/14/389
f 50/14/8 51/17/8 407/16/8
f 51/17/9 52/694/9 408/18/9
f 52/19/10 53/22/10 409/20/10
f 53/22/11 54/24/11 410/23/11
f 54/24/12 55/695/12 411/25/12
f 98/26/13 101/38/13 99/27/13
f 55/29/14 56/696/14 412/30/14
f 412/30/15 56/696/15 44/1/15
f 15/31/16 301/532/16 307/32/16
f 90/34/17 118/40/17 158/35/17
f 97/37/18 125/227/18 101/38/18
f 10/39/19 117/45/19 118/40/19
f 24/41/20 124/215/20 125/42/20
f 10/39/390 8/213/390 116/44/390
f 1/46/22 302/534/22 304/47/22
f 13/49/23 307/697/23 309/50/23
f 27/48/24 304/47/24 306/52/24
f 11/51/25 309/50/25 312/54/25
f 25/56/26 306/520/26 314/57/26
f 329/59/27 330/91/27 29/60/27
f 331/62/28 329/59/28 30/61/28
f 331/64/391 31/484/391 32/65/391
f 332/66/392 32/65/392 33/67/392
f 334/69/393 333/68/393 33/67/393
f 335/71/394 334/573/394 34/72/394
f 335/74/395 35/479/395 36/75/395
f 337/77/396 336/76/396 36/75/396
f 338/79/397 337/77/397 37/78/397
f 339/81/398 338/567/398 38/82/398
f 339/81/399 39/83/399 40/84/399
f 341/86/400 340/85/400 40/84/400
f 342/88/401 341/86/401 41/87/401
f 342/90/40 42/471/40 29/60/40
f 4/92/41 43/96/41 44/93/41
f 4/92/42 6/98/42 45/95/42
f 60/97/402 46/698/402 45/95/402
f 60/99/403 61/699/403 47/100/403
f 12/102/404 48/106/404 47/103/404
f 12/102/405 14/107/405 49/105/405
f 14/107/406 16/132/406 50/108/406
f 16/109/48 18/700/48 51/110/48
f 20/112/49 52/116/49 51/113/49
f 67/115/50 53/118/50 52/116/50
f 68/117/51 54/120/51 53/118/51
f 26/119/52 55/122/52 54/120/52
f 28/121/53 56/123/53 55/122/53
f 2/94/54 44/93/54 56/123/54
f 172/124/55 4/92/55 2/94/55
f 173/126/56 6/98/56 4/92/56
f 174/127/57 60/97/57 6/98/57
f 175/128/58 61/104/58 60/97/58
f 176/129/59 12/102/59 61/104/59
f 177/130/60 14/107/60 12/102/60
f 178/131/407 16/132/407 14/107/407
f 178/131/408 179/133/408 18/114/408
f 179/133/63 180/134/63 20/112/63
f 180/134/64 181/135/64 67/115/64
f 181/135/65 182/136/65 68/117/65
f 182/136/66 183/137/66 26/119/66
f 183/137/67 184/138/67 28/121/67
f 184/138/68 100/125/68 2/94/68
f 72/139/69 71/143/69 57/140/69
f 73/142/70 59/145/70 57/140/70
f 88/144/71 74/147/71 59/145/71
f 89/146/72 75/149/72 74/147/72
f 76/148/409 62/151/409 75/149/409
f 77/150/74 63/153/74 62/151/74
f 78/152/75 64/155/75 63/153/75
f 78/152/410 79/157/410 65/154/410
f 80/156/77 66/159/77 65/154/77
f 80/156/411 95/160/411 81/158/411
f 95/160/79 96/162/79 82/161/79
f 96/162/80 83/164/80 69/163/80
f 83/164/81 84/166/81 70/165/81
f 72/139/82 58/141/82 70/165/82
f 85/167/412 71/143/412 72/139/412
f 87/169/413 73/142/413 71/143/413
f 8/170/414 88/144/414 73/142/414
f 10/171/86 89/146/86 88/144/86
f 90/172/415 76/148/415 89/146/415
f 156/173/416 77/150/416 76/148/416
f 155/174/417 78/152/417 77/150/417
f 155/174/418 157/175/418 79/157/418
f 157/175/419 94/176/419 80/156/419
f 94/176/420 22/177/420 95/160/420
f 22/177/93 24/178/93 96/162/93
f 24/178/421 97/179/421 83/164/421
f 97/179/422 98/180/422 84/166/422
f 98/180/423 86/168/423 72/139/423
f 110/181/97 109/188/97 137/182/97
f 111/184/98 139/190/98 140/185/98
f 115/187/424 135/266/424 137/182/424
f 122/189/100 132/264/100 139/190/100
f 113/191/101 133/231/101 135/192/101
f 162/194/102 130/234/102 132/195/102
f 159/197/425 93/701/425 169/198/425
f 121/200/426 171/702/426 167/201/426
f 85/203/105 86/28/105 99/27/105
f 94/205/106 157/279/106 102/206/106
f 87/208/107 85/203/107 105/204/107
f 22/210/108 94/703/108 104/211/108
f 8/213/109 87/704/109 107/214/109
f 24/41/427 22/210/427 123/212/427
f 114/216/111 113/191/111 105/204/111
f 113/191/112 115/193/112 107/209/112
f 115/187/113 109/188/113 116/44/113
f 110/181/114 117/45/114 116/44/114
f 108/217/115 118/40/115 117/45/115
f 161/218/116 158/35/116 118/40/116
f 121/219/428 159/197/428 165/199/428
f 91/221/429 168/705/429 166/222/429
f 162/194/119 122/196/119 104/207/119
f 122/196/430 111/706/430 123/224/430
f 112/186/121 124/215/121 123/212/121
f 103/225/431 125/42/431 124/215/431
f 126/226/123 101/38/123 125/227/123
f 114/216/124 99/27/124 101/38/124
f 127/229/125 141/238/125 147/230/125
f 128/232/126 142/236/126 144/233/126
f 134/235/127 148/707/127 142/236/127
f 129/237/128 143/243/128 141/238/128
f 136/239/129 150/271/129 148/240/129
f 131/242/130 145/708/130 143/243/130
f 103/225/131 112/186/131 140/185/131
f 108/217/132 110/181/132 138/183/132
f 126/245/133 103/225/133 131/244/133
f 161/247/134 108/709/134 136/248/134
f 114/216/135 126/226/135 129/237/135
f 160/250/136 161/283/136 134/235/136
f 160/250/137 128/232/137 130/234/137
f 114/216/138 127/229/138 133/231/138
f 148/251/139 150/710/139 149/252/139
f 141/254/139 143/711/139 144/255/139
f 144/255/139 143/711/139 145/257/139
f 145/257/139 154/712/139 153/259/139
f 147/253/139 141/254/139 142/256/139
f 149/252/139 150/710/139 152/260/139
f 130/234/140 144/233/140 146/262/140
f 133/231/141 147/230/141 149/263/141
f 132/264/142 146/713/142 153/265/142
f 135/266/143 149/714/143 151/267/143
f 139/190/11 153/265/11 154/268/11
f 137/182/144 151/267/144 152/269/144
f 140/185/145 154/268/145 145/270/145
f 138/183/146 152/269/146 150/271/146
f 91/272/432 92/276/432 155/273/432
f 93/275/433 157/279/433 155/273/433
f 91/272/434 156/274/434 158/277/434
f 93/275/435 159/284/435 102/206/435
f 119/280/436 161/283/436 160/250/436
f 121/282/437 120/281/437 160/250/437
f 119/280/438 106/278/438 158/277/438
f 121/282/439 162/194/439 102/206/439
f 168/285/440 164/291/440 163/286/440
f 169/288/441 166/287/441 163/286/441
f 170/290/442 167/293/442 163/286/442
f 171/292/443 165/289/443 163/286/443
f 93/294/444 92/223/444 166/222/444
f 119/296/445 170/300/445 164/297/445
f 119/296/446 120/715/446 167/299/446
f 106/298/447 164/297/447 168/301/447
f 180/303/448 202/402/448 203/304/448
f 66/306/449 81/356/449 191/307/449
f 174/309/450 173/716/450 198/310/450
f 59/312/451 187/392/451 185/313/451
f 181/305/167 203/304/167 204/315/167
f 65/154/168 66/159/168 180/134/168
f 64/155/169 65/154/169 179/133/169
f 63/153/170 64/155/170 178/131/170
f 63/153/171 177/130/171 176/129/171
f 175/317/172 174/309/172 199/311/172
f 66/306/452 192/308/452 202/319/452
f 58/321/453 57/314/453 185/313/453
f 182/316/454 204/315/454 205/323/454
f 176/325/455 175/317/455 200/318/455
f 207/327/456 208/717/456 261/328/456
f 196/330/457 254/411/457 259/331/457
f 189/333/458 233/423/458 232/334/458
f 223/336/459 244/424/459 247/337/459
f 202/339/460 192/718/460 236/340/460
f 198/342/461 197/332/461 259/331/461
f 188/335/183 232/334/183 231/344/183
f 224/346/462 225/379/462 251/347/462
f 201/349/463 245/432/463 234/350/463
f 198/310/464 258/417/464 241/352/464
f 74/353/465 188/335/465 187/345/465
f 173/355/466 172/360/466 197/332/466
f 81/356/189 82/361/189 193/357/189
f 75/358/190 189/333/190 188/335/190
f 100/359/467 196/330/467 197/332/467
f 82/361/468 69/365/468 194/362/468
f 62/363/469 176/719/469 201/349/469
f 62/364/470 190/447/470 189/333/470
f 69/365/471 70/720/471 195/366/471
f 100/359/472 184/371/472 206/367/472
f 58/321/473 186/322/473 195/368/473
f 183/370/474 205/721/474 206/367/474
f 217/372/475 208/391/475 218/373/475
f 217/372/476 228/374/476 227/375/476
f 216/376/139 227/375/139 226/377/139
f 215/378/139 226/377/139 225/379/139
f 214/381/139 213/380/139 225/379/139
f 212/382/139 223/722/139 222/383/139
f 211/384/139 222/383/139 221/385/139
f 209/387/139 210/386/139 221/385/139
f 207/389/477 209/387/477 220/388/477
f 208/391/478 207/389/478 219/390/478
f 187/392/479 231/438/479 229/393/479
f 226/377/480 270/396/480 251/347/480
f 199/311/481 241/352/481 246/394/481
f 186/322/482 185/313/482 229/393/482
f 227/375/207 269/399/207 270/396/207
f 217/372/483 266/401/483 261/397/483
f 201/326/484 200/318/484 246/394/484
f 228/374/485 268/405/485 269/399/485
f 217/372/486 216/376/486 265/400/486
f 202/402/487 248/426/487 252/403/487
f 228/374/488 218/373/488 267/404/488
f 215/406/214 264/429/214 265/407/214
f 258/343/215 259/331/215 272/409/215
f 254/411/216 255/431/216 268/412/216
f 237/414/217 264/429/217 240/415/217
f 258/417/218 271/451/218 242/418/218
f 235/416/219 240/415/219 263/419/219
f 241/352/217 242/418/217 247/337/217
f 234/421/220 243/723/220 250/422/220
f 246/394/221 247/337/221 244/424/221
f 233/423/222 250/422/222 249/425/222
f 248/426/223 253/724/223 251/427/223
f 238/428/224 265/407/224 264/429/224
f 256/430/489 269/725/489 268/412/489
f 230/395/226 229/393/226 260/329/226
f 245/432/227 244/453/227 243/433/227
f 254/411/228 267/413/228 272/409/228
f 238/428/229 239/726/229 266/434/229
f 257/435/230 270/444/230 269/436/230
f 231/438/231 262/448/231 260/329/231
f 236/439/232 263/727/232 253/440/232
f 230/395/233 261/328/233 266/442/233
f 252/403/234 251/427/234 270/444/234
f 232/334/235 249/425/235 262/445/235
f 221/446/490 222/338/490 247/337/490
f 190/447/491 234/421/491 233/423/491
f 207/327/492 260/329/492 262/448/492
f 220/450/239 221/446/239 242/418/239
f 192/308/493 191/307/493 235/416/493
f 223/452/494 212/728/494 243/433/494
f 210/386/242 209/387/242 262/454/242
f 219/390/495 220/388/495 271/456/495
f 191/307/496 193/357/496 237/414/496
f 224/346/497 253/348/497 263/458/497
f 211/384/498 210/386/498 249/455/498
f 219/390/499 272/457/499 267/404/499
f 193/357/248 194/362/248 238/428/248
f 196/330/500 206/367/500 255/431/500
f 212/382/501 211/384/501 250/459/501
f 194/461/502 195/729/502 239/462/502
f 205/323/503 256/437/503 255/464/503
f 214/466/504 263/419/504 240/415/504
f 186/322/505 230/395/505 239/443/505
f 205/323/255 204/315/255 257/435/255
f 213/467/506 240/415/506 264/429/506
f 204/315/507 203/304/507 252/403/507
f 191/730/298 192/718/298 202/339/298
f 204/731/508 205/732/508 206/733/508
f 200/734/298 201/735/298 190/736/298
f 200/734/298 190/736/298 189/737/298
f 191/730/298 202/339/298 203/738/298
f 193/739/298 191/730/298 203/738/298
f 199/740/298 200/734/298 189/737/298
f 199/740/298 189/737/298 188/741/298
f 193/739/298 203/738/298 204/731/298
f 194/461/298 193/739/298 204/731/298
f 198/742/298 199/740/298 188/741/298
f 198/742/298 188/741/298 187/743/298
f 194/461/509 204/731/509 206/733/509
f 195/729/510 194/461/510 206/733/510
f 197/470/511 198/742/511 187/743/511
f 197/470/512 187/743/512 185/744/512
f 195/729/513 206/733/513 196/469/513
f 197/470/514 185/744/514 186/468/514
f 186/468/515 195/729/515 196/469/515
f 42/471/516 286/745/516 273/472/516
f 285/473/517 286/745/517 42/471/517
f 284/475/518 285/746/518 41/87/518
f 39/83/519 283/747/519 284/475/519
f 282/476/520 283/747/520 39/83/520
f 37/78/521 281/748/521 282/477/521
f 280/478/522 281/748/522 37/78/522
f 35/479/523 279/749/523 280/478/523
f 278/480/524 279/750/524 35/481/524
f 33/67/525 277/482/525 278/480/525
f 32/65/526 276/751/526 277/482/526
f 275/483/527 276/751/527 32/65/527
f 274/485/2 275/752/2 31/63/2
f 273/472/1 274/485/1 30/61/1
f 287/486/528 386/493/528 367/487/528
f 286/489/529 285/611/529 366/490/529
f 287/486/530 288/497/530 398/492/530
f 286/494/531 371/637/531 372/495/531
f 288/497/274 289/502/274 397/498/274
f 273/499/275 372/753/275 384/500/275
f 289/502/532 290/507/532 396/503/532
f 274/501/277 384/500/277 383/504/277
f 291/506/278 395/511/278 396/503/278
f 276/508/533 275/505/533 383/504/533
f 292/510/534 394/515/534 395/511/534
f 277/512/281 276/508/281 382/509/281
f 292/510/535 293/636/535 393/514/535
f 277/512/536 381/513/536 380/516/536
f 304/518/284 318/754/284 320/519/284
f 312/521/285 309/555/285 323/522/285
f 306/520/286 320/519/286 328/524/286
f 311/525/287 312/521/287 326/523/287
f 314/57/288 328/524/288 327/527/288
f 310/529/289 311/525/289 325/526/289
f 15/31/290 17/535/290 303/531/290
f 1/46/291 3/537/291 308/533/291
f 17/535/292 19/755/292 305/536/292
f 3/537/293 5/756/293 310/538/293
f 19/539/294 21/544/294 313/528/294
f 5/541/295 7/545/295 311/542/295
f 23/58/296 314/57/296 313/528/296
f 9/55/297 312/54/297 311/542/297
f 316/546/298 315/550/298 317/547/298
f 316/546/298 322/560/298 321/549/298
f 317/547/298 319/757/298 320/551/298
f 320/551/298 319/757/298 327/552/298
f 321/549/298 322/560/298 324/530/298
f 324/530/298 325/526/298 326/523/298
f 307/554/299 321/549/299 323/522/299
f 302/556/300 316/546/300 318/548/300
f 307/554/301 301/559/301 315/550/301
f 303/558/302 317/547/302 315/550/302
f 302/556/303 308/564/303 322/560/303
f 303/561/304 305/540/304 319/562/304
f 308/564/305 310/529/305 324/530/305
f 313/528/306 327/527/306 319/562/306
f 1/46/307 27/48/307 342/90/307
f 27/565/308 25/56/308 341/86/308
f 25/56/309 23/58/309 340/85/309
f 23/58/537 21/544/537 339/81/537
f 19/539/538 338/567/538 339/81/538
f 17/566/312 337/758/312 338/567/312
f 15/568/313 336/571/313 337/569/313
f 15/568/314 13/572/314 335/71/314
f 13/572/315 11/574/315 334/573/315
f 11/574/316 9/577/316 333/575/316
f 7/576/317 332/579/317 333/575/317
f 5/578/318 331/581/318 332/579/318
f 3/580/319 329/759/319 331/581/319
f 1/46/320 330/91/320 329/59/320
f 368/582/321 385/649/321 370/583/321
f 387/585/322 385/649/322 368/582/322
f 388/587/323 387/760/323 373/588/323
f 389/590/11 388/587/11 374/589/11
f 376/592/324 390/761/324 389/590/324
f 377/593/325 391/657/325 390/594/325
f 392/596/326 391/657/326 377/593/326
f 379/598/327 353/661/327 392/596/327
f 351/599/328 353/662/328 379/600/328
f 350/602/329 349/665/329 351/599/329
f 347/603/144 349/665/144 350/602/144
f 345/605/330 347/603/330 348/604/330
f 343/607/2 345/670/2 346/608/2
f 370/583/1 343/607/1 344/609/1
f 284/610/539 364/615/539 366/490/539
f 300/488/540 367/487/540 365/612/540
f 283/614/333 362/619/333 364/615/333
f 298/616/541 299/613/541 365/612/541
f 283/614/542 282/623/542 360/618/542
f 297/620/336 298/616/336 363/617/336
f 281/622/543 358/762/543 360/618/543
f 297/620/544 361/621/544 359/624/544
f 281/626/545 280/632/545 356/627/545
f 295/629/546 296/625/546 359/624/546
f 279/631/547 354/635/547 356/627/547
f 294/633/548 295/629/548 357/630/548
f 279/631/549 278/517/549 380/516/549
f 294/633/550 355/634/550 393/514/550
f 369/584/551 372/495/551 371/637/551
f 368/638/552 371/491/552 366/490/552
f 373/588/553 366/490/553 364/615/553
f 374/589/348 364/615/348 362/619/348
f 376/592/554 375/591/554 362/619/554
f 377/593/555 376/595/555 360/639/555
f 378/597/556 377/593/556 358/640/556
f 378/597/557 356/641/557 354/642/557
f 352/643/558 379/763/558 354/635/558
f 352/643/559 380/516/559 381/513/559
f 350/644/355 381/513/355 382/509/355
f 346/646/560 348/645/560 382/509/560
f 344/609/357 346/608/357 383/647/357
f 369/584/561 344/609/561 384/648/561
f 385/649/562 367/652/562 386/650/562
f 385/649/563 387/585/563 365/651/563
f 387/653/564 388/764/564 363/617/564
f 389/590/362 361/765/362 363/654/362
f 390/594/565 359/658/565 361/655/565
f 391/657/566 357/660/566 359/658/566
f 391/657/567 392/596/567 355/659/567
f 353/661/568 393/766/568 355/659/568
f 353/662/569 351/599/569 394/663/569
f 349/665/570 395/666/570 394/663/570
f 347/603/369 396/668/369 395/666/369
f 347/603/571 345/605/571 397/667/571
f 343/607/371 398/671/371 397/669/371
f 370/583/572 386/650/572 398/671/572
f 300/672/573 412/30/573 399/3/573
f 299/674/574 411/25/574 412/30/574
f 298/675/575 410/23/575 411/25/575
f 409/20/376 410/23/376 298/675/376
f 408/21/576 409/20/576 297/677/576
f 407/16/577 408/18/577 296/679/577
f 406/15/578 407/16/578 295/680/578
f 293/682/579 405/13/579 406/15/579
f 404/11/580 405/12/580 293/683/580
f 291/685/581 403/9/581 404/11/581
f 290/686/582 402/7/582 403/9/582
f 401/5/583 402/7/583 290/686/583
f 400/2/2 401/5/2 289/688/2
f 399/3/1 400/2/1 288/689/1
