# Blender 4.2.1 LTS
# www.blender.org
mtllib road_chunk_1.mtl
g road_chunk_1_Mesh
v 0.818297 0.044662 -0.828194
v -0.722802 0.044715 -1.343758
v 0.172195 0.044482 0.648046
v -1.050846 0.044576 -0.081925
v 0.770994 0.044702 -1.039979
v -0.049010 0.044761 -1.309340
v -0.152759 0.044775 -1.380481
v -0.778782 0.044510 0.417200
v -0.445181 0.044494 0.584790
v -0.053653 0.044484 0.638457
v 0.329422 0.044504 0.531276
v 0.373806 0.044547 0.305166
v 0.478505 0.044584 0.110131
v -1.076467 0.054711 -1.019003
v -1.004449 0.044635 -0.675759
v -0.868379 0.044608 -0.254331
v 0.037404 0.044590 0.073814
v 0.076769 0.044566 0.200554
v 0.002914 0.044551 0.279564
v -0.009467 0.044620 -0.085901
v -0.109519 0.044585 0.100461
v -0.183374 0.044570 0.179472
v -0.519711 0.000610 -0.527043
v -0.362129 0.073778 -0.164505
v -0.254965 0.044569 0.184539
v 0.904203 0.044632 -0.671707
v 0.669220 0.088028 0.091775
v 1.056102 0.044614 -0.180401
v 0.862400 0.044590 0.076323
v 0.423176 -0.008876 0.109368
v 0.849510 -0.008792 -0.859861
v -0.265610 -0.008682 -1.395745
v -0.699002 -0.008726 -1.443374
v -0.904403 -0.008850 -0.265781
v -1.073722 -0.008893 -0.034607
v -0.090301 -0.008989 0.704747
v 0.172195 -0.008978 0.646749
v 0.815393 -0.008755 -1.058004
v -0.049010 -0.008698 -1.310637
v -0.778782 -0.008949 0.415903
v -0.445181 -0.008966 0.583493
v 0.002914 -0.008908 0.278267
v -0.183374 -0.008889 0.178174
v -0.254965 -0.008890 0.183242
v 0.329422 -0.008956 0.529979
v 0.373806 -0.008912 0.303869
v -1.130354 -0.008756 -1.041406
v -1.004449 -0.008825 -0.677056
v 0.037404 -0.008870 0.072517
v 0.076769 -0.008893 0.199256
v -0.009467 -0.008839 -0.087198
v -0.109519 -0.008875 0.099164
v -0.522373 -0.008819 -0.528116
v -0.359697 -0.008871 -0.168060
v 0.690319 -0.008856 0.006692
v 0.904203 -0.008827 -0.673004
v 0.862400 -0.008870 0.075026
v 1.068307 -0.008846 -0.179331
v 0.615054 0.017867 0.133447
v 0.480073 0.018953 0.189038
v -0.050311 0.019146 -1.316487
v 0.820222 0.019090 -1.064043
v 0.334299 0.018886 0.538637
v 0.174827 0.018864 0.657396
v 1.077839 0.018998 -0.178873
v 0.867831 0.030673 0.087200
v -0.267915 0.019163 -1.403952
v 0.379414 0.018930 0.309018
v 0.911688 0.019017 -0.675577
v -0.787194 0.018893 0.421434
v -1.097965 0.018953 -0.046421
v -0.451504 0.018877 0.589803
v -0.735392 0.019114 -1.420544
v -1.138569 0.019088 -1.046889
v -0.092280 0.018853 0.716403
v -0.914673 0.018994 -0.265230
v -1.012738 0.019019 -0.680474
v 0.855442 0.019052 -0.864373
v 0.193733 0.044770 -1.352685
v -0.234214 0.044507 0.569202
v 0.012911 0.063369 -0.006976
v -0.016850 0.044576 0.150252
v -0.090705 0.044561 0.229263
v 0.193733 -0.008690 -1.353982
v -0.234214 -0.008953 0.567905
v 0.013849 -0.008854 -0.007748
v -0.016850 -0.008884 0.148955
v -0.090705 -0.008899 0.227965
v -0.238376 0.018889 0.576874
v 0.322096 0.019141 -1.286281
v 0.593026 0.044623 -0.361292
v -0.965181 0.049713 -1.061589
v 0.397419 0.044646 -0.702322
v -0.051840 0.044691 -0.600432
v -0.400651 0.022692 -0.857704
v 0.731337 0.066330 -0.292226
v 1.031577 0.044602 -0.115324
v 0.580968 -0.008834 -0.377507
v -0.980224 -0.008741 -1.122599
v 0.419618 -0.008812 -0.711983
v -0.051840 -0.008769 -0.601729
v -0.458407 -0.008751 -0.865872
v 0.741886 -0.008842 -0.335416
v 1.037680 -0.008858 -0.115438
v -1.002526 0.019101 -1.113926
v 1.045162 0.024835 -0.109122
v 0.214541 -0.008772 -0.915926
v 0.214072 0.054069 -0.914892
v -0.437781 0.044745 -1.362120
v -0.982620 0.044543 0.192500
v -0.798089 0.027661 -0.773023
v -0.736404 0.059206 -0.460815
v -0.561672 0.044589 -0.034896
v -0.482306 -0.008704 -1.419560
v -0.994058 -0.008921 0.215510
v -0.826363 -0.008788 -0.784761
v -0.735188 -0.008848 -0.463242
v -0.579684 -0.008870 -0.041270
v -0.501653 0.019138 -1.412248
v -1.010386 0.018923 0.212369
v -0.719315 -0.008746 -0.994236
v -0.682916 0.036203 -0.959647
vn -0.0000 1.0000 0.0001
vn -0.0000 1.0000 0.0002
vn -0.0926 0.9957 0.0078
vn 0.0735 0.9965 0.0397
vn -0.4083 0.9074 -0.0998
vn -0.0578 0.9925 0.1077
vn 0.0256 0.9978 0.0614
vn 0.0315 0.9938 -0.1066
vn -0.0346 0.9982 0.0485
vn -0.1179 0.9902 -0.0750
vn 0.0475 0.9980 0.0420
vn -0.0000 -1.0000 -0.0002
vn 0.0001 -1.0000 -0.0002
vn 0.0001 -1.0000 -0.0001
vn -0.0002 -1.0000 -0.0001
vn -0.0000 -1.0000 -0.0001
vn -0.0000 -1.0000 -0.0000
vn 0.1007 -0.9595 0.2632
vn 0.0354 0.8989 -0.4367
vn 0.5614 -0.3413 0.7538
vn 0.8626 -0.2716 0.4268
vn 0.3624 -0.2358 -0.9017
vn 0.9559 -0.2258 0.1878
vn 0.9034 -0.3043 -0.3022
vn -0.6514 -0.3035 0.6954
vn 0.7390 -0.2635 0.6200
vn 0.0962 -0.9609 0.2597
vn -0.4279 -0.2987 0.8530
vn 0.0267 0.6546 -0.7555
vn -0.4225 -0.2935 -0.8575
vn -0.6516 -0.3319 0.6821
vn -0.5585 -0.6848 -0.4680
vn -0.9247 -0.2103 0.3175
vn 0.2007 -0.3662 0.9086
vn -0.9416 -0.2530 0.2223
vn 0.9296 -0.2429 -0.2770
vn 0.9641 -0.2041 -0.1701
vn 0.4899 0.8649 -0.1093
vn 0.8328 0.3124 -0.4571
vn -0.5068 0.8464 0.1637
vn -0.0399 0.3390 0.9400
vn -0.9416 0.2669 0.2054
vn -0.3723 0.8404 -0.3938
vn -0.3392 0.3200 0.8846
vn -0.1255 0.8928 -0.4327
vn -0.0276 0.9040 -0.4266
vn -0.4316 0.2747 0.8592
vn 0.2049 0.6511 0.7308
vn 0.4863 0.8339 0.2612
vn -0.6981 0.3339 0.6334
vn 0.9089 0.3080 -0.2810
vn 0.9533 0.2368 0.1872
vn 0.5544 0.1974 -0.8085
vn 0.7472 0.6019 0.2817
vn 0.5637 0.3255 0.7591
vn -0.1691 0.2729 -0.9471
vn -0.0400 0.5329 0.8452
vn 0.4736 0.1069 -0.8742
vn 0.0708 0.2756 0.9587
vn 0.0592 -0.2078 0.9764
vn 0.3935 -0.2595 -0.8820
vn -0.0001 -1.0000 -0.0001
vn 0.2873 0.9485 0.1334
vn 0.0001 1.0000 0.0002
vn 0.0224 0.9994 0.0250
vn 0.6076 0.5858 0.5364
vn -0.3243 0.8990 -0.2945
vn -0.7002 -0.3708 -0.6101
vn 0.7046 -0.2954 0.6452
vn -0.0001 -1.0000 -0.0002
vn 0.0001 -1.0000 -0.0000
vn 0.0746 0.9969 -0.0230
vn 0.0001 1.0000 0.0001
vn 0.0013 0.9998 0.0220
vn -0.0038 0.9998 -0.0211
vn -0.0628 0.9980 -0.0002
vn 0.0027 0.9991 0.0435
vn -0.4141 0.9044 0.1031
vn -0.0412 0.7693 -0.6376
vn 0.0341 0.2759 -0.9606
vn -0.7801 -0.5672 0.2639
vn -0.0760 0.9914 0.1063
vn 0.1746 0.9477 -0.2672
vn 0.0289 0.9966 0.0769
vn -0.0884 0.9955 0.0347
vn 0.1354 0.9581 -0.2522
vn 0.0409 0.9966 0.0709
vn -0.0320 0.9995 0.0028
vn -0.2753 0.9500 -0.1476
vn 0.0605 0.9973 0.0412
vn 0.0871 0.9961 0.0110
vn -0.0732 0.9970 0.0237
vn -0.2268 0.9724 -0.0550
vn 0.2178 0.9758 -0.0199
vn 0.1009 -0.9597 0.2622
vn -0.1718 -0.2102 -0.9624
vn 0.5621 -0.3338 0.7567
vn 0.8599 -0.3012 0.4121
vn 0.3600 -0.1757 -0.9163
vn 0.9556 -0.2272 0.1875
vn 0.9128 -0.2734 -0.3034
vn -0.6429 -0.3314 0.6906
vn 0.3383 -0.9371 0.0857
vn -0.3593 -0.2292 0.9047
vn -0.4295 -0.2913 0.8548
vn 0.1035 0.3193 -0.9420
vn -0.4730 -0.1064 -0.8746
vn -0.6531 -0.3189 0.6868
vn -0.7757 -0.2749 -0.5682
vn -0.9188 -0.2346 0.3175
vn 0.2008 -0.3664 0.9085
vn -0.9133 -0.3413 0.2222
vn 0.9232 -0.2731 -0.2703
vn 0.9588 -0.2310 -0.1651
vn 0.4308 0.8993 -0.0758
vn 0.4668 0.8734 -0.1389
vn -0.9390 0.2630 0.2218
vn 0.0763 0.9354 0.3454
vn -0.5512 0.8126 0.1894
vn -0.6801 0.4614 -0.5697
vn -0.2035 0.9555 0.2134
vn -0.2483 0.8273 -0.5038
vn 0.0112 0.9480 -0.3179
vn -0.4300 0.2829 0.8574
vn 0.1424 0.4219 0.8954
vn 0.7406 0.2556 0.6214
vn -0.4154 0.7942 0.4436
vn 0.7457 0.6179 -0.2494
vn 0.9537 0.2354 0.1874
vn 0.2875 -0.6370 -0.7153
vn 0.7222 0.6299 0.2856
vn 0.5630 0.3338 0.7561
vn 0.0337 -0.9088 -0.4159
vn 0.1327 0.9434 0.3038
vn 0.2121 0.8540 -0.4751
vn 0.0596 0.1775 0.9823
vn 0.0704 -0.2963 0.9525
vn 0.4204 0.2089 -0.8830
vn 0.2207 0.9626 0.1568
vn 0.0503 0.9987 0.0009
vn 0.0119 0.9997 -0.0218
vn 0.5865 0.6283 0.5111
vn -0.2962 0.9196 -0.2580
vn -0.6877 -0.4045 -0.6029
vn 0.7067 -0.2788 0.6503
vn 0.0590 0.9980 0.0224
vn -0.1035 0.9892 -0.1037
vn 0.0414 0.9990 0.0178
vn -0.0353 0.9994 -0.0000
vn -0.0217 0.9993 0.0319
vn 0.0329 0.9986 0.0412
vn -0.5845 0.7869 0.1979
vn 0.0166 0.8817 -0.4716
vn 0.1051 -0.2731 -0.9562
vn -0.8438 -0.4645 0.2687
vn -0.0972 0.9925 0.0739
vn 0.2181 0.9657 -0.1407
vt 0.063535 0.914083
vt 0.064996 0.917244
vt 0.063427 0.917969
vt 0.059518 0.911868
vt 0.055616 0.912654
vt 0.055634 0.910732
vt 0.069201 0.915209
vt 0.066737 0.917457
vt 0.068270 0.914762
vt 0.061762 0.913365
vt 0.059686 0.917187
vt 0.061388 0.912768
vt 0.073353 0.910245
vt 0.072214 0.913126
vt 0.070301 0.912296
vt 0.802723 0.374699
vt 0.802593 0.377342
vt 0.801823 0.376569
vt 0.069401 0.914167
vt 0.069574 0.915807
vt 0.072447 0.909294
vt 0.069548 0.912570
vt 0.809782 0.377414
vt 0.809635 0.379011
vt 0.808705 0.378563
vt 0.061588 0.911726
vt 0.060458 0.912320
vt 0.060658 0.911278
vt 0.067970 0.897933
vt 0.069252 0.902593
vt 0.067090 0.900156
vt 0.799024 0.372812
vt 0.799952 0.375670
vt 0.798082 0.374770
vt 0.057847 0.909926
vt 0.078024 0.904261
vt 0.075516 0.904130
vt 0.076702 0.902437
vt 0.815750 0.368974
vt 0.815332 0.371521
vt 0.813113 0.370526
vt 0.072390 0.915936
vt 0.073121 0.917241
vt 0.071348 0.916524
vt 0.067482 0.908187
vt 0.065651 0.908780
vt 0.066137 0.907483
vt 0.063976 0.906316
vt 0.064350 0.905746
vt 0.071253 0.908983
vt 0.072322 0.905475
vt 0.073172 0.908156
vt 0.063186 0.910511
vt 0.067086 0.911304
vt 0.063200 0.912434
vt 0.066499 0.908156
vt 0.068959 0.910408
vt 0.068027 0.910854
vt 0.067264 0.905985
vt 0.069333 0.909811
vt 0.073101 0.915380
vt 0.071987 0.912485
vt 0.075033 0.914349
vt 0.070053 0.913323
vt 0.069928 0.910704
vt 0.069157 0.911451
vt 0.072187 0.916330
vt 0.069289 0.913048
vt 0.068225 0.911897
vt 0.067414 0.917420
vt 0.068516 0.912769
vt 0.069223 0.916862
vt 0.066667 0.914762
vt 0.067284 0.912347
vt 0.065412 0.913244
vt 0.075033 0.911084
vt 0.077852 0.911342
vt 0.076442 0.912846
vt 0.074371 0.908695
vt 0.078078 0.909682
vt 0.072150 0.909700
vt 0.065932 0.917474
vt 0.064045 0.919906
vt 0.066148 0.918451
vt 0.065368 0.916148
vt 0.065710 0.914756
vt 0.070598 0.911687
vt 0.069302 0.917669
vt 0.069141 0.908392
vt 0.071038 0.915129
vt 0.071194 0.919869
vt 0.070598 0.915095
vt 0.071755 0.914637
vt 0.071275 0.916093
vt 0.071275 0.914528
vt 0.078805 0.923327
vt 0.079923 0.919972
vt 0.080343 0.920017
vt 0.067078 0.913187
vt 0.066718 0.919001
vt 0.066718 0.912964
vt 0.072346 0.908450
vt 0.071956 0.912243
vt 0.071987 0.908392
vt 0.075748 0.912286
vt 0.076241 0.908392
vt 0.076241 0.912511
vt 0.065342 0.913263
vt 0.063594 0.919273
vt 0.070707 0.915551
vt 0.072110 0.910252
vt 0.071082 0.915713
vt 0.079685 0.915437
vt 0.078757 0.911940
vt 0.079027 0.910857
vt 0.078927 0.907131
vt 0.078410 0.903520
vt 0.078827 0.903405
vt 0.069903 0.913068
vt 0.070316 0.918554
vt 0.069907 0.918742
vt 0.067078 0.913131
vt 0.067664 0.919758
vt 0.067078 0.920016
vt 0.073574 0.921382
vt 0.073717 0.911837
vt 0.073958 0.921588
vt 0.071621 0.908542
vt 0.071192 0.908392
vt 0.073324 0.911677
vt 0.073958 0.908476
vt 0.072327 0.917050
vt 0.071968 0.917134
vt 0.072346 0.922014
vt 0.071986 0.922142
vt 0.068431 0.905465
vt 0.070315 0.905115
vt 0.068362 0.905963
vt 0.066608 0.906110
vt 0.066624 0.906186
vt 0.074610 0.916931
vt 0.073472 0.917552
vt 0.064810 0.916832
vt 0.063336 0.915135
vt 0.063429 0.915096
vt 0.077841 0.915643
vt 0.074692 0.916976
vt 0.072808 0.919685
vt 0.066697 0.917540
vt 0.078163 0.914516
vt 0.077536 0.914515
vt 0.078163 0.911220
vt 0.077230 0.913387
vt 0.077399 0.910997
vt 0.069671 0.921136
vt 0.067492 0.919714
vt 0.067498 0.919628
vt 0.063856 0.906339
vt 0.805894 0.377211
vt 0.806198 0.375703
vt 0.806836 0.375254
vt 0.071240 0.920411
vt 0.069683 0.921234
vt 0.071650 0.908592
vt 0.071621 0.912217
vt 0.066385 0.913187
vt 0.066385 0.919146
vt 0.069456 0.913563
vt 0.068140 0.916263
vt 0.069615 0.913509
vt 0.064220 0.905679
vt 0.064725 0.905175
vt 0.063357 0.913183
vt 0.063447 0.913173
vt 0.067887 0.907633
vt 0.066602 0.910410
vt 0.065624 0.909468
vt 0.074074 0.905389
vt 0.075346 0.906018
vt 0.072313 0.910005
vt 0.071125 0.904501
vt 0.071295 0.904287
vt 0.071726 0.910135
vt 0.069929 0.920955
vt 0.073810 0.920242
vt 0.069952 0.921033
vt 0.069711 0.906608
vt 0.069777 0.902794
vt 0.072676 0.906076
vt 0.068470 0.913719
vt 0.067330 0.914310
vt 0.067530 0.913267
vt 0.808998 0.377691
vt 0.807765 0.378111
vt 0.061727 0.906540
vt 0.061736 0.910129
vt 0.060951 0.910406
vt 0.067819 0.904056
vt 0.067225 0.907203
vt 0.065298 0.906578
vt 0.062503 0.902673
vt 0.064634 0.906853
vt 0.070417 0.910701
vt 0.075574 0.909358
vt 0.078583 0.907730
vt 0.071818 0.913217
vt 0.071275 0.912964
vt 0.064374 0.920519
vt 0.066364 0.919428
vt 0.068161 0.920077
vt 0.077625 0.913002
vt 0.078596 0.915282
vt 0.076149 0.917437
vt 0.075086 0.919612
vt 0.078078 0.916213
vt 0.077718 0.903133
vt 0.077887 0.900743
vt 0.068850 0.895709
vt 0.070027 0.898727
vt 0.076405 0.908194
vt 0.074891 0.910866
vt 0.075380 0.900612
vt 0.078057 0.898352
vt 0.072795 0.920270
vt 0.078417 0.909390
vt 0.077569 0.908606
vt 0.075687 0.916133
vt 0.076241 0.916629
vt 0.069440 0.904481
vt 0.070171 0.914940
vt 0.812937 0.367716
vt 0.810894 0.369530
vt 0.072702 0.902872
vt 0.061858 0.918695
vt 0.065309 0.914800
vt 0.056998 0.914391
vt 0.804636 0.375528
vt 0.810535 0.377140
vt 0.801185 0.375250
vt 0.059718 0.910826
vt 0.078330 0.905389
vt 0.818564 0.370233
vt 0.070881 0.904978
vt 0.064248 0.908095
vt 0.063716 0.919293
vt 0.069141 0.917634
vt 0.071621 0.919833
vt 0.071692 0.916057
vt 0.078410 0.923293
vt 0.067078 0.919146
vt 0.072315 0.912215
vt 0.075809 0.908438
vt 0.070316 0.912964
vt 0.067488 0.912964
vt 0.073524 0.908392
vt 0.070218 0.904591
vt 0.064412 0.917595
vt 0.078417 0.915983
vt 0.077908 0.913050
vt 0.805828 0.377195
vt 0.071239 0.920752
vt 0.067887 0.919172
vt 0.064584 0.905018
vt 0.069192 0.904287
vt 0.065964 0.910860
vt 0.070707 0.904417
vt 0.069005 0.902515
vt 0.068759 0.904508
vt 0.067533 0.903576
vt 0.070803 0.894861
s 0
usemtl Material.001
f 113/1/1 4/2/1 110/3/1
f 19/4/2 3/5/2 11/6/2
f 22/7/2 80/8/2 83/9/2
f 25/10/2 9/11/2 22/12/2
f 94/13/3 23/14/3 20/15/3
f 20/16/4 24/17/4 21/18/4
f 21/19/2 25/20/2 22/7/2
f 108/21/5 20/15/5 81/22/5
f 81/23/6 21/24/6 82/25/6
f 21/26/2 83/27/2 82/28/2
f 91/29/1 17/30/1 13/31/1
f 13/32/2 18/33/2 12/34/2
f 12/35/2 19/4/2 11/6/2
f 92/36/7 111/37/7 122/38/7
f 111/39/8 15/40/8 112/41/8
f 112/42/9 16/43/9 113/44/9
f 91/45/10 27/46/10 96/47/10
f 96/47/11 29/48/11 97/49/11
f 118/50/12 35/51/12 34/52/12
f 37/53/12 42/54/12 45/55/12
f 85/56/12 43/57/12 88/58/12
f 41/59/12 44/60/12 43/57/12
f 101/61/13 53/62/13 102/63/13
f 51/64/13 54/65/13 53/62/13
f 52/66/14 44/60/14 54/65/14
f 107/67/15 51/64/15 101/61/15
f 86/68/12 52/66/12 51/64/12
f 88/58/12 52/66/12 87/69/12
f 98/70/16 49/71/16 100/72/16
f 30/73/12 50/74/12 49/71/12
f 46/75/12 42/54/12 50/74/12
f 116/76/13 99/77/13 121/78/13
f 116/76/13 48/79/13 47/80/13
f 117/81/17 34/52/17 48/79/17
f 98/70/16 55/82/16 30/73/16
f 104/83/17 55/82/17 103/84/17
f 30/73/18 59/85/18 60/86/18
f 84/87/19 61/88/19 90/89/19
f 37/90/20 63/91/20 64/92/20
f 104/93/21 65/94/21 106/95/21
f 61/96/22 32/97/22 67/98/22
f 45/99/23 68/100/23 63/101/23
f 58/102/24 69/103/24 65/104/24
f 115/105/25 70/106/25 120/107/25
f 46/75/26 60/86/26 68/108/26
f 55/82/27 66/109/27 59/85/27
f 40/110/28 72/111/28 70/112/28
f 119/113/29 33/114/29 73/115/29
f 105/116/30 47/117/30 74/118/30
f 89/119/31 36/120/31 75/121/31
f 76/122/32 35/123/32 71/124/32
f 47/125/33 77/126/33 74/127/33
f 36/128/34 64/92/34 75/129/34
f 48/130/35 76/131/35 77/126/35
f 69/103/36 31/132/36 78/133/36
f 78/133/37 38/134/37 62/135/37
f 78/136/38 5/137/38 1/138/38
f 69/139/39 1/138/39 26/140/39
f 15/141/40 76/142/40 16/43/40
f 10/143/41 64/144/41 3/145/41
f 14/146/42 77/147/42 15/141/42
f 76/142/43 4/148/43 16/43/43
f 89/149/44 10/143/44 80/8/44
f 105/150/45 14/146/45 92/151/45
f 119/152/46 2/153/46 109/154/46
f 8/155/47 72/156/47 9/157/47
f 27/46/48 66/158/48 29/48/48
f 12/159/49 60/160/49 13/161/49
f 110/162/50 70/163/50 8/155/50
f 28/164/51 69/103/51 26/165/51
f 11/166/52 68/100/52 12/167/52
f 61/168/53 7/169/53 6/170/53
f 106/171/54 28/172/54 97/49/54
f 3/145/55 63/173/55 11/174/55
f 79/175/56 61/168/56 6/170/56
f 13/176/57 59/177/57 27/46/57
f 5/137/58 90/178/58 79/179/58
f 9/180/59 89/181/59 80/182/59
f 41/183/60 89/181/60 72/111/60
f 38/184/61 90/185/61 62/186/61
f 42/54/12 87/69/12 50/74/12
f 49/71/12 87/69/12 86/68/12
f 100/187/62 86/188/62 107/189/62
f 42/54/12 85/56/12 88/58/12
f 82/190/2 19/191/2 18/192/2
f 17/193/2 82/25/2 18/194/2
f 93/195/63 81/196/63 17/197/63
f 19/198/64 80/199/64 10/200/64
f 5/201/65 108/202/65 93/195/65
f 38/203/12 107/189/12 84/204/12
f 29/48/66 106/171/66 97/49/66
f 2/153/67 105/150/67 92/151/67
f 73/115/68 99/205/68 105/116/68
f 57/206/69 106/95/69 66/207/69
f 58/208/17 103/84/17 56/209/17
f 56/209/70 98/70/70 31/210/70
f 121/78/71 33/211/71 114/212/71
f 31/210/12 100/72/12 38/184/12
f 107/67/12 39/213/12 84/214/12
f 39/213/16 102/63/16 32/215/16
f 96/47/72 28/172/72 26/140/72
f 91/45/73 26/140/73 1/138/73
f 2/216/74 122/38/74 109/217/74
f 1/218/1 93/219/1 91/29/1
f 6/220/75 108/21/75 79/179/75
f 6/220/76 95/221/76 94/13/76
f 109/217/77 95/222/77 7/223/77
f 102/63/14 114/212/14 32/215/14
f 71/224/78 110/162/78 4/148/78
f 67/225/79 109/154/79 7/226/79
f 67/98/80 114/212/80 119/113/80
f 35/227/81 120/107/81 71/228/81
f 54/65/17 118/50/17 117/81/17
f 53/62/13 117/81/13 116/76/13
f 102/63/13 116/76/13 121/78/13
f 40/229/12 118/50/12 44/60/12
f 24/230/82 113/44/82 25/20/82
f 23/231/83 112/41/83 24/232/83
f 95/222/84 111/37/84 23/233/84
f 113/1/2 8/234/2 25/10/2
f 113/1/1 16/235/1 4/2/1
f 19/4/2 10/236/2 3/5/2
f 22/7/2 9/157/2 80/8/2
f 25/10/2 8/234/2 9/11/2
f 94/13/85 95/221/85 23/14/85
f 20/16/86 23/237/86 24/17/86
f 21/19/87 24/230/87 25/20/87
f 108/21/88 94/13/88 20/15/88
f 81/23/89 20/238/89 21/24/89
f 21/26/2 22/12/2 83/27/2
f 91/29/1 93/219/1 17/30/1
f 13/32/2 17/239/2 18/33/2
f 12/35/2 18/240/2 19/4/2
f 92/36/90 14/241/90 111/37/90
f 111/39/91 14/242/91 15/40/91
f 112/42/92 15/141/92 16/43/92
f 91/45/93 13/176/93 27/46/93
f 96/47/94 27/46/94 29/48/94
f 118/50/16 115/243/16 35/51/16
f 37/53/12 36/244/12 42/54/12
f 85/56/12 41/59/12 43/57/12
f 41/59/12 40/229/12 44/60/12
f 101/61/14 51/64/14 53/62/14
f 51/64/14 52/66/14 54/65/14
f 52/66/12 43/57/12 44/60/12
f 107/67/15 86/68/15 51/64/15
f 86/68/12 87/69/12 52/66/12
f 88/58/12 43/57/12 52/66/12
f 98/70/16 30/73/16 49/71/16
f 30/73/12 46/75/12 50/74/12
f 46/75/12 45/55/12 42/54/12
f 116/76/16 47/80/16 99/77/16
f 116/76/13 117/81/13 48/79/13
f 117/81/17 118/50/17 34/52/17
f 98/70/17 103/84/17 55/82/17
f 104/83/16 57/245/16 55/82/16
f 30/73/95 55/82/95 59/85/95
f 84/87/96 39/246/96 61/88/96
f 37/90/97 45/247/97 63/91/97
f 104/93/98 58/248/98 65/94/98
f 61/96/99 39/249/99 32/97/99
f 45/99/100 46/250/100 68/100/100
f 58/102/101 56/251/101 69/103/101
f 115/105/102 40/252/102 70/106/102
f 46/75/103 30/73/103 60/86/103
f 55/82/104 57/245/104 66/109/104
f 40/110/105 41/183/105 72/111/105
f 119/113/106 114/212/106 33/114/106
f 105/116/107 99/205/107 47/117/107
f 89/119/108 85/253/108 36/120/108
f 76/122/109 34/254/109 35/123/109
f 47/125/110 48/130/110 77/126/110
f 36/128/111 37/90/111 64/92/111
f 48/130/112 34/255/112 76/131/112
f 69/103/113 56/251/113 31/132/113
f 78/133/114 31/132/114 38/134/114
f 78/136/115 62/256/115 5/137/115
f 69/139/116 78/136/116 1/138/116
f 15/141/117 77/147/117 76/142/117
f 10/143/118 75/257/118 64/144/118
f 14/146/119 74/258/119 77/147/119
f 76/142/120 71/224/120 4/148/120
f 89/149/121 75/257/121 10/143/121
f 105/150/122 74/258/122 14/146/122
f 119/152/123 73/259/123 2/153/123
f 8/155/124 70/163/124 72/156/124
f 27/46/125 59/177/125 66/158/125
f 12/159/126 68/260/126 60/160/126
f 110/162/127 120/261/127 70/163/127
f 28/164/128 65/104/128 69/103/128
f 11/166/129 63/101/129 68/100/129
f 61/168/130 67/262/130 7/169/130
f 106/171/131 65/263/131 28/172/131
f 3/145/132 64/144/132 63/173/132
f 79/175/133 90/264/133 61/168/133
f 13/176/134 60/265/134 59/177/134
f 5/137/135 62/256/135 90/178/135
f 9/180/136 72/111/136 89/181/136
f 41/183/137 85/266/137 89/181/137
f 38/184/138 84/214/138 90/185/138
f 42/54/12 88/58/12 87/69/12
f 49/71/12 50/74/12 87/69/12
f 100/187/62 49/267/62 86/188/62
f 42/54/70 36/244/70 85/56/70
f 82/190/2 83/9/2 19/191/2
f 17/193/139 81/23/139 82/25/139
f 93/195/140 108/202/140 81/196/140
f 19/198/2 83/268/2 80/199/2
f 5/201/141 79/269/141 108/202/141
f 38/203/12 100/187/12 107/189/12
f 29/48/142 66/158/142 106/171/142
f 2/153/143 73/259/143 105/150/143
f 73/115/144 33/114/144 99/205/144
f 57/206/145 104/93/145 106/95/145
f 58/208/13 104/83/13 103/84/13
f 56/209/16 103/84/16 98/70/16
f 121/78/17 99/77/17 33/211/17
f 31/210/16 98/70/16 100/72/16
f 107/67/62 101/61/62 39/213/62
f 39/213/16 101/61/16 102/63/16
f 96/47/146 97/49/146 28/172/146
f 91/45/147 96/47/147 26/140/147
f 2/216/148 92/36/148 122/38/148
f 1/218/2 5/270/2 93/219/2
f 6/220/149 94/13/149 108/21/149
f 6/220/150 7/226/150 95/221/150
f 109/217/151 122/38/151 95/222/151
f 102/63/16 121/78/16 114/212/16
f 71/224/152 120/261/152 110/162/152
f 67/225/153 119/152/153 109/154/153
f 67/98/154 32/97/154 114/212/154
f 35/227/155 115/105/155 120/107/155
f 54/65/17 44/60/17 118/50/17
f 53/62/13 54/65/13 117/81/13
f 102/63/13 53/62/13 116/76/13
f 40/229/12 115/243/12 118/50/12
f 24/230/156 112/42/156 113/44/156
f 23/231/157 111/39/157 112/41/157
f 95/222/7 122/38/7 111/37/7
f 113/1/2 110/3/2 8/234/2
