# Blender 4.2.1 LTS
# www.blender.org
mtllib road_chunk_2.mtl
g road_chunk_2_Mesh
v 0.509500 0.040948 -0.291142
v -0.448465 0.040948 -0.334466
v 0.207266 0.040948 0.392356
v -0.536861 0.040948 0.172862
v 0.506841 0.040948 -0.403722
v 0.046181 0.040948 -0.610006
v -0.234221 0.040948 -0.598247
v -0.413739 0.040948 0.280332
v -0.305239 0.040948 0.379627
v 0.125544 0.040948 0.453415
v 0.297018 0.040948 0.359058
v 0.309917 0.040948 0.256835
v 0.370868 0.040948 0.143340
v -0.566754 0.050155 -0.238610
v -0.485938 0.040948 -0.120672
v -0.448829 0.040948 -0.038526
v 0.002257 0.040948 0.020868
v 0.025174 0.040948 0.094620
v -0.017821 0.040948 0.140598
v -0.153860 0.040948 -0.200905
v -0.083274 0.040948 0.036374
v -0.246060 0.040948 0.184061
v -0.343739 0.000458 -0.345018
v -0.278530 0.067791 -0.109161
v -0.341982 0.040948 0.076260
v 0.578169 0.040948 -0.237396
v 0.481893 0.080896 0.132045
v 0.653617 0.040948 0.113643
v 0.658826 0.040948 0.126297
v 0.338658 -0.008213 0.143651
v 0.527671 -0.008213 -0.308815
v -0.281836 -0.008213 -0.502406
v -0.434609 -0.008213 -0.391680
v -0.469801 -0.008213 -0.044434
v -0.550178 -0.008213 0.201152
v 0.104209 -0.008213 0.492745
v 0.207266 -0.008213 0.392356
v 0.532688 -0.008213 -0.413456
v 0.046181 -0.008213 -0.610006
v -0.413739 -0.008213 0.280332
v -0.305239 -0.008213 0.379627
v -0.017821 -0.008213 0.140598
v -0.246060 -0.008213 0.184061
v -0.341982 -0.008213 0.076260
v 0.297018 -0.008213 0.359058
v 0.309917 -0.008213 0.256835
v -0.598125 -0.008213 -0.250750
v -0.485938 -0.008213 -0.120672
v 0.002257 -0.008213 0.020868
v 0.025174 -0.008213 0.094620
v -0.153860 -0.008213 -0.200905
v -0.083274 -0.008213 0.036374
v -0.345289 -0.008213 -0.345509
v -0.277114 -0.008213 -0.110063
v 0.494176 -0.008213 0.083902
v 0.578169 -0.008213 -0.237396
v 0.658826 -0.008213 0.126297
v 0.660723 -0.008213 0.115020
v 0.450360 0.016383 0.157285
v 0.371781 0.017392 0.189619
v 0.045424 0.017392 -0.613804
v 0.535499 0.017392 -0.417363
v 0.299858 0.017392 0.363703
v 0.208797 0.017392 0.398159
v 0.666272 0.017392 0.114894
v 0.661988 0.028152 0.132823
v -0.283178 0.017392 -0.507575
v 0.313182 0.017392 0.259438
v 0.582526 0.017392 -0.239286
v -0.418636 0.017392 0.283157
v -0.564292 0.017392 0.193884
v -0.308921 0.017392 0.382906
v -0.455794 0.017392 -0.378787
v -0.602907 0.017392 -0.254334
v 0.103057 0.017392 0.499135
v -0.475779 0.017392 -0.044507
v -0.490763 0.017392 -0.123054
v 0.531124 0.017392 -0.311833
v 0.097755 0.040948 -0.506396
v -0.281151 0.040948 0.469139
v -0.012001 0.058203 -0.026411
v -0.029327 0.040948 0.065348
v -0.110745 0.040948 0.255979
v 0.097755 -0.008213 -0.506396
v -0.281151 -0.008213 0.469139
v -0.011455 -0.008213 -0.025840
v -0.029327 -0.008213 0.065348
v -0.110745 -0.008213 0.255979
v -0.283574 0.017392 0.473966
v 0.172482 0.017392 -0.467392
v 0.352036 0.040948 -0.125885
v -0.507609 0.045552 -0.286538
v 0.182223 0.040948 -0.308958
v 0.010576 0.040948 -0.341040
v -0.265248 0.020703 -0.437729
v 0.525510 0.060922 -0.027813
v 0.656222 0.040948 0.119970
v 0.345016 -0.008213 -0.134567
v -0.516367 -0.008213 -0.321215
v 0.195146 -0.008213 -0.313825
v 0.010576 -0.008213 -0.341040
v -0.405101 -0.008213 -0.399095
v 0.531652 -0.008213 -0.051885
v 0.659775 -0.008213 0.120659
v -0.529351 0.017392 -0.316561
v 0.664130 0.022772 0.123858
v 0.043150 -0.008213 -0.266118
v 0.042877 0.049576 -0.266403
vn -0.0000 1.0000 -0.0000
vn -0.0518 0.9968 -0.0608
vn 0.1737 0.9834 -0.0517
vn -0.0602 0.9970 -0.0496
vn -0.0900 0.9817 0.1676
vn 0.3910 0.7728 0.4998
vn -0.1111 0.9633 -0.2443
vn -0.1124 0.9881 0.1046
vn -0.1190 0.9929 0.0083
vn 0.2189 0.9738 -0.0620
vn -0.0000 -1.0000 -0.0000
vn 0.1512 -0.9059 0.3956
vn 0.4821 -0.7697 -0.4184
vn 0.3464 -0.2045 0.9155
vn 0.9326 -0.1643 0.3214
vn -0.3042 -0.1485 -0.9410
vn 0.9833 -0.1318 0.1257
vn 0.9520 -0.2074 -0.2251
vn -0.5220 -0.0460 0.8517
vn 0.7560 -0.1609 0.6345
vn 0.0938 -0.9258 0.3663
vn -0.6583 -0.2058 0.7241
vn -0.5955 -0.0908 -0.7982
vn -0.6298 -0.2218 -0.7444
vn -0.0638 -0.1907 0.9796
vn -0.9156 -0.2147 -0.3400
vn -0.7594 -0.0510 0.6487
vn 0.6830 -0.1478 0.7153
vn -0.9688 -0.1654 0.1848
vn 0.8028 -0.1786 -0.5688
vn 0.9938 -0.1028 0.0412
vn 0.7290 0.6843 -0.0172
vn 0.3836 0.7827 -0.4901
vn -0.6647 0.6842 0.3002
vn 0.5825 0.2299 0.7796
vn -0.8159 0.1097 0.5677
vn -0.6046 0.7557 -0.2518
vn 0.0180 0.8852 0.4649
vn -0.3423 0.7962 -0.4989
vn -0.4453 0.8191 -0.3617
vn -0.6610 0.2038 0.7222
vn 0.1358 0.4765 0.8686
vn 0.6344 0.6939 0.3407
vn -0.6413 0.2214 0.7347
vn 0.9591 0.1940 -0.2061
vn 0.9810 0.1496 0.1238
vn -0.0414 0.1603 -0.9862
vn 0.8805 0.3056 -0.3625
vn 0.3372 0.2458 0.9088
vn 0.8944 0.0430 -0.4452
vn -0.0437 0.3825 0.9229
vn 0.1870 -0.6404 -0.7450
vn -0.9492 0.1839 0.2554
vn -0.9538 -0.1403 0.2655
vn 0.1347 -0.1639 -0.9772
vn 0.3867 0.8977 0.2110
vn 0.8805 0.3056 -0.3624
vn -0.6347 -0.1855 -0.7502
vn 0.9417 -0.1370 0.3072
vn 0.2001 0.9788 -0.0430
vn 0.1971 0.9672 0.1601
vn -0.1193 0.9909 -0.0629
vn -0.2248 0.9742 0.0224
vn 0.0042 0.9613 -0.2756
vn 0.0233 0.9883 0.1510
vn -0.0715 0.9939 -0.0839
vn -0.1881 0.9806 0.0560
vn 0.3672 0.8529 0.3712
vn 0.1921 0.9798 -0.0551
vn -0.1314 0.9896 0.0593
vn -0.3498 0.9131 -0.2095
vn 0.2166 0.9722 -0.0892
vn 0.1515 -0.9064 0.3943
vn 0.8945 -0.0396 -0.4453
vn 0.3387 -0.2272 0.9130
vn 0.9645 -0.2082 0.1622
vn -0.3052 -0.2038 -0.9302
vn 0.9827 -0.1379 0.1240
vn 0.9578 -0.1796 -0.2244
vn -0.4930 -0.1880 0.8495
vn 0.4924 -0.8614 0.1250
vn -0.2465 -0.1504 0.9574
vn -0.6631 -0.1881 0.7245
vn -0.5761 -0.1907 -0.7948
vn -0.6410 -0.1898 -0.7437
vn -0.0593 -0.2442 0.9679
vn -0.8106 -0.5221 -0.2653
vn -0.7547 -0.0817 0.6509
vn 0.6837 -0.2000 0.7019
vn -0.9539 -0.2222 0.2019
vn 0.8038 -0.1754 -0.5684
vn 0.9906 -0.1280 0.0475
vn 0.6423 0.7660 0.0266
vn 0.8005 0.1936 -0.5672
vn -0.9664 0.1793 0.1843
vn 0.5540 0.5971 0.5801
vn -0.6726 0.4664 0.5745
vn -0.7388 0.6155 -0.2743
vn -0.0636 0.2066 0.9764
vn -0.4390 0.7335 -0.5189
vn -0.2853 -0.8789 -0.3824
vn -0.6558 0.2228 0.7213
vn 0.0908 0.3240 0.9417
vn 0.7542 0.1745 0.6330
vn -0.3082 0.8076 0.5028
vn 0.8667 0.4547 -0.2049
vn 0.9817 0.1431 0.1255
vn -0.0966 -0.9494 -0.2988
vn 0.8803 0.4691 -0.0712
vn 0.3451 0.2214 0.9121
vn 0.4581 0.7950 -0.3976
vn 0.1931 0.8759 0.4421
vn 0.1098 0.5947 -0.7964
vn -0.9521 0.1522 0.2650
vn -0.9517 -0.1696 0.2561
vn 0.1569 0.6605 -0.7342
vn 0.3299 0.9145 0.2343
vn 0.0547 0.9982 -0.0234
vn 0.9602 0.2712 0.0666
vn -0.3366 0.8534 -0.3979
vn -0.6448 -0.1568 -0.7481
vn 0.9744 -0.1539 0.1639
vn 0.2731 0.9554 -0.1124
vn -0.0533 0.9927 -0.1080
vn 0.1805 0.9751 0.1291
vn -0.1089 0.9886 0.1036
vt 0.068737 0.906504
vt 0.067068 0.902548
vt 0.069973 0.902624
vt 0.074370 0.900326
vt 0.078104 0.899329
vt 0.078634 0.901647
vt 0.072532 0.909846
vt 0.072552 0.907346
vt 0.074740 0.906628
vt 0.822172 0.378846
vt 0.822902 0.374060
vt 0.823529 0.377072
vt 0.816289 0.373739
vt 0.820831 0.372796
vt 0.816931 0.376676
vt 0.821218 0.368908
vt 0.822291 0.370111
vt 0.821802 0.380365
vt 0.821667 0.377939
vt 0.066482 0.916004
vt 0.069366 0.913324
vt 0.070496 0.912970
vt 0.070826 0.910638
vt 0.072162 0.911365
vt 0.073764 0.908149
vt 0.072156 0.902372
vt 0.075158 0.906117
vt 0.072716 0.914662
vt 0.071559 0.910390
vt 0.074245 0.911851
vt 0.076198 0.913560
vt 0.073882 0.910580
vt 0.078146 0.911901
vt 0.063191 0.898977
vt 0.067094 0.901723
vt 0.065312 0.904012
vt 0.064653 0.910267
vt 0.063971 0.905284
vt 0.067800 0.907726
vt 0.069754 0.909435
vt 0.068135 0.906646
vt 0.070690 0.908213
vt 0.073968 0.919123
vt 0.071322 0.916694
vt 0.075956 0.918825
vt 0.078068 0.922618
vt 0.067653 0.907981
vt 0.068878 0.903354
vt 0.070599 0.906036
vt 0.060742 0.909405
vt 0.064482 0.910373
vt 0.060231 0.911727
vt 0.065825 0.909628
vt 0.065785 0.907128
vt 0.067155 0.908891
vt 0.066387 0.904110
vt 0.072946 0.916932
vt 0.071786 0.911680
vt 0.074101 0.913341
vt 0.069018 0.913082
vt 0.068606 0.909242
vt 0.067537 0.910407
vt 0.070945 0.916604
vt 0.067870 0.912743
vt 0.066207 0.911144
vt 0.065426 0.918161
vt 0.066711 0.912402
vt 0.067757 0.917371
vt 0.064167 0.915493
vt 0.064864 0.911889
vt 0.062191 0.913371
vt 0.076488 0.909221
vt 0.072407 0.906724
vt 0.078710 0.905800
vt 0.063325 0.919544
vt 0.060332 0.922509
vt 0.063920 0.920234
vt 0.062370 0.917642
vt 0.062751 0.915566
vt 0.069751 0.907103
vt 0.070301 0.904287
vt 0.070424 0.909079
vt 0.075299 0.911950
vt 0.074831 0.909592
vt 0.075139 0.909539
vt 0.070135 0.920889
vt 0.070527 0.920882
vt 0.070515 0.920997
vt 0.073324 0.908455
vt 0.072346 0.914048
vt 0.072997 0.908392
vt 0.071821 0.914757
vt 0.072134 0.912964
vt 0.072134 0.914727
vt 0.070179 0.920808
vt 0.069964 0.916491
vt 0.068997 0.915422
vt 0.069572 0.912984
vt 0.069166 0.915715
vt 0.062081 0.913404
vt 0.060031 0.922391
vt 0.070644 0.916041
vt 0.070967 0.913078
vt 0.070970 0.916176
vt 0.073324 0.917001
vt 0.072936 0.917582
vt 0.070316 0.916261
vt 0.070644 0.919376
vt 0.070316 0.919419
vt 0.068997 0.915290
vt 0.068456 0.918994
vt 0.068774 0.915356
vt 0.068456 0.914321
vt 0.067664 0.917368
vt 0.068098 0.914331
vt 0.073958 0.916860
vt 0.074457 0.910753
vt 0.074207 0.916960
vt 0.075014 0.915183
vt 0.075329 0.915238
vt 0.068016 0.913015
vt 0.067664 0.912964
vt 0.069615 0.916468
vt 0.069999 0.914320
vt 0.070358 0.912596
vt 0.070707 0.912556
vt 0.071739 0.921169
vt 0.069506 0.921911
vt 0.071881 0.920434
vt 0.073932 0.921130
vt 0.074742 0.910613
vt 0.073958 0.908869
vt 0.074462 0.908392
vt 0.075687 0.914323
vt 0.075620 0.911918
vt 0.074831 0.916150
vt 0.067638 0.906172
vt 0.069021 0.904257
vt 0.078410 0.905969
vt 0.077772 0.907054
vt 0.061776 0.909192
vt 0.060293 0.906604
vt 0.062702 0.909231
vt 0.063042 0.916556
vt 0.064086 0.912313
vt 0.065112 0.911858
vt 0.071275 0.916036
vt 0.071275 0.912964
vt 0.066385 0.917203
vt 0.065511 0.912964
vt 0.065699 0.912987
vt 0.075637 0.915764
vt 0.074670 0.916371
vt 0.069903 0.915836
vt 0.069903 0.912964
vt 0.070707 0.920619
vt 0.070193 0.916428
vt 0.075461 0.909547
vt 0.075369 0.908392
vt 0.075687 0.908426
vt 0.061471 0.921124
vt 0.061566 0.921084
vt 0.078251 0.922733
vt 0.077901 0.922650
vt 0.064420 0.920746
vt 0.076035 0.917837
vt 0.066241 0.921772
vt 0.068770 0.913027
vt 0.068471 0.915246
vt 0.068456 0.912964
vt 0.060031 0.905902
vt 0.073512 0.912099
vt 0.071668 0.912626
vt 0.068634 0.915560
vt 0.068543 0.911261
vt 0.069715 0.910917
vt 0.070579 0.908137
vt 0.075819 0.905345
vt 0.071929 0.908871
vt 0.062467 0.919037
vt 0.067553 0.920202
vt 0.074020 0.920465
vt 0.068802 0.922341
vt 0.078234 0.922586
vt 0.070316 0.913102
vt 0.070533 0.916170
vt 0.070092 0.920971
vt 0.070504 0.921111
vt 0.060437 0.922604
vt 0.064516 0.920924
vt 0.066685 0.920829
vt 0.074265 0.912642
vt 0.076416 0.915002
vt 0.076875 0.920781
vt 0.071979 0.919421
vt 0.069928 0.918725
vt 0.065601 0.901605
vt 0.063531 0.906302
vt 0.072369 0.910180
vt 0.071075 0.907015
vt 0.065466 0.917204
vt 0.814507 0.376028
vt 0.813031 0.380556
vt 0.066182 0.904937
vt 0.078260 0.896800
vt 0.071196 0.909119
vt 0.818071 0.371449
vt 0.820730 0.379162
vt 0.060781 0.896350
vt 0.058340 0.904895
vt 0.065924 0.906993
vt 0.074003 0.917116
vt 0.063593 0.906428
vt 0.060228 0.922413
vt 0.069982 0.904387
vt 0.074990 0.911963
vt 0.072689 0.914128
vt 0.071818 0.913027
vt 0.069378 0.913018
vt 0.070644 0.912968
vt 0.068690 0.918880
vt 0.068148 0.917390
vt 0.074219 0.910680
vt 0.069650 0.914332
vt 0.069607 0.922696
vt 0.073946 0.921250
vt 0.069079 0.903405
vt 0.074801 0.906516
vt 0.059465 0.906072
vt 0.061848 0.915348
vt 0.065511 0.918145
vt 0.076290 0.913596
vt 0.078093 0.922900
vt 0.068982 0.913007
vt 0.072787 0.904920
vt 0.078410 0.922565
vt 0.070422 0.912964
vt 0.069994 0.911657
s 0
usemtl Material.001
f 25/1/1 4/2/1 8/3/1
f 19/4/1 3/5/1 11/6/1
f 83/7/1 9/8/1 80/9/1
f 22/10/1 8/11/1 9/12/1
f 95/13/2 20/14/2 94/15/2
f 20/14/3 24/16/3 21/17/3
f 21/18/1 25/19/1 22/10/1
f 108/20/4 20/21/4 81/22/4
f 81/22/5 21/23/5 82/24/5
f 21/23/1 83/7/1 82/24/1
f 91/25/1 17/26/1 13/27/1
f 13/28/1 18/29/1 12/30/1
f 12/31/1 19/32/1 11/33/1
f 92/34/6 23/35/6 95/36/6
f 23/37/7 15/38/7 24/39/7
f 24/40/8 16/41/8 25/42/8
f 13/28/9 96/43/9 91/44/9
f 27/45/10 97/46/10 96/43/10
f 44/47/11 35/48/11 34/49/11
f 37/50/11 42/51/11 45/52/11
f 88/53/11 41/54/11 43/55/11
f 43/55/11 40/56/11 44/47/11
f 101/57/11 53/58/11 102/59/11
f 51/60/11 54/61/11 53/58/11
f 52/62/11 44/47/11 54/61/11
f 107/63/11 51/60/11 101/57/11
f 86/64/11 52/62/11 51/60/11
f 88/53/11 52/62/11 87/65/11
f 98/66/11 49/67/11 100/68/11
f 30/69/11 50/70/11 49/67/11
f 46/71/11 42/51/11 50/70/11
f 53/58/11 99/72/11 102/59/11
f 53/58/11 48/73/11 47/74/11
f 54/61/11 34/49/11 48/73/11
f 98/66/11 55/75/11 30/69/11
f 104/76/11 55/75/11 103/77/11
f 30/69/12 59/78/12 60/79/12
f 84/80/13 61/81/13 90/82/13
f 64/83/14 45/84/14 63/85/14
f 104/86/15 65/87/15 106/88/15
f 39/89/16 67/90/16 61/91/16
f 45/92/17 68/93/17 63/94/17
f 58/95/18 69/96/18 65/87/18
f 35/97/19 70/98/19 71/99/19
f 46/71/20 60/79/20 68/100/20
f 55/75/21 66/101/21 59/78/21
f 40/102/22 72/103/22 70/104/22
f 67/90/23 33/105/23 73/106/23
f 105/107/24 47/108/24 74/109/24
f 85/110/25 75/111/25 89/112/25
f 34/113/26 71/114/26 76/115/26
f 47/116/27 77/117/27 74/118/27
f 36/119/28 64/83/28 75/120/28
f 48/121/29 76/115/29 77/122/29
f 56/123/30 78/124/30 69/96/30
f 78/124/31 38/125/31 62/126/31
f 78/127/32 5/128/32 1/129/32
f 26/130/33 78/127/33 1/129/33
f 15/131/34 76/132/34 16/133/34
f 10/134/35 64/83/35 3/135/35
f 14/136/36 77/117/36 15/131/36
f 76/137/37 4/138/37 16/41/37
f 80/9/38 75/139/38 10/140/38
f 105/141/39 14/142/39 92/143/39
f 7/144/40 73/145/40 2/146/40
f 8/147/41 72/103/41 9/148/41
f 27/149/42 66/150/42 29/151/42
f 12/31/43 60/152/43 13/153/43
f 4/154/44 70/98/44 8/155/44
f 28/156/45 69/96/45 26/157/45
f 11/158/46 68/159/46 12/160/46
f 61/161/47 7/144/47 6/162/47
f 106/163/48 28/164/48 97/46/48
f 64/83/49 11/158/49 3/135/49
f 79/165/50 61/161/50 6/162/50
f 13/153/51 59/166/51 27/45/51
f 5/128/52 90/167/52 79/165/52
f 72/168/53 80/169/53 9/170/53
f 72/168/54 85/110/54 89/112/54
f 38/125/55 90/82/55 62/126/55
f 42/51/11 87/65/11 50/70/11
f 49/67/11 87/65/11 86/64/11
f 100/68/11 86/64/11 107/63/11
f 36/171/11 88/53/11 42/51/11
f 82/24/1 19/32/1 18/172/1
f 17/173/1 82/24/1 18/172/1
f 93/174/56 81/175/56 17/176/56
f 83/177/1 10/178/1 19/179/1
f 79/180/1 93/174/1 5/181/1
f 100/68/11 84/182/11 38/183/11
f 29/184/57 106/163/57 97/46/57
f 2/146/39 105/141/39 92/143/39
f 73/185/58 99/186/58 105/107/58
f 57/187/59 106/88/59 66/188/59
f 58/189/11 103/77/11 56/190/11
f 56/190/11 98/66/11 31/191/11
f 102/59/11 33/192/11 32/193/11
f 31/191/11 100/68/11 38/183/11
f 84/182/11 101/57/11 39/194/11
f 101/57/11 32/193/11 39/194/11
f 96/43/60 28/164/60 26/130/60
f 91/44/1 26/195/1 1/196/1
f 2/197/61 95/36/61 7/198/61
f 1/199/1 93/200/1 91/25/1
f 79/165/62 94/201/62 108/20/62
f 7/202/1 94/15/1 6/203/1
f 25/1/1 16/204/1 4/2/1
f 19/4/1 10/205/1 3/5/1
f 83/7/1 22/206/1 9/8/1
f 22/10/1 25/19/1 8/11/1
f 95/13/63 23/207/63 20/14/63
f 20/14/64 23/207/64 24/16/64
f 21/18/65 24/208/65 25/19/65
f 108/20/66 94/201/66 20/21/66
f 81/22/67 20/21/67 21/23/67
f 21/23/1 22/206/1 83/7/1
f 91/25/1 93/200/1 17/26/1
f 13/28/1 17/176/1 18/29/1
f 12/31/1 18/172/1 19/32/1
f 92/34/68 14/209/68 23/35/68
f 23/37/69 14/210/69 15/38/69
f 24/40/70 15/211/70 16/41/70
f 13/28/71 27/212/71 96/43/71
f 27/45/72 29/184/72 97/46/72
f 44/47/11 40/56/11 35/48/11
f 37/50/11 36/171/11 42/51/11
f 88/53/11 85/213/11 41/54/11
f 43/55/11 41/54/11 40/56/11
f 101/57/11 51/60/11 53/58/11
f 51/60/11 52/62/11 54/61/11
f 52/62/11 43/55/11 44/47/11
f 107/63/11 86/64/11 51/60/11
f 86/64/11 87/65/11 52/62/11
f 88/53/11 43/55/11 52/62/11
f 98/66/11 30/69/11 49/67/11
f 30/69/11 46/71/11 50/70/11
f 46/71/11 45/52/11 42/51/11
f 53/58/11 47/74/11 99/72/11
f 53/58/11 54/61/11 48/73/11
f 54/61/11 44/47/11 34/49/11
f 98/66/11 103/77/11 55/75/11
f 104/76/11 57/214/11 55/75/11
f 30/69/73 55/75/73 59/78/73
f 84/80/74 39/215/74 61/81/74
f 64/83/75 37/216/75 45/84/75
f 104/86/76 58/95/76 65/87/76
f 39/89/77 32/217/77 67/90/77
f 45/92/78 46/218/78 68/93/78
f 58/95/79 56/123/79 69/96/79
f 35/97/80 40/219/80 70/98/80
f 46/71/81 30/69/81 60/79/81
f 55/75/82 57/214/82 66/101/82
f 40/102/83 41/220/83 72/103/83
f 67/90/84 32/217/84 33/105/84
f 105/107/85 99/186/85 47/108/85
f 85/110/86 36/221/86 75/111/86
f 34/113/87 35/222/87 71/114/87
f 47/116/88 48/223/88 77/117/88
f 36/119/89 37/216/89 64/83/89
f 48/121/90 34/113/90 76/115/90
f 56/123/91 31/224/91 78/124/91
f 78/124/92 31/224/92 38/125/92
f 78/127/93 62/225/93 5/128/93
f 26/130/94 69/226/94 78/127/94
f 15/131/95 77/117/95 76/132/95
f 10/134/96 75/120/96 64/83/96
f 14/136/97 74/118/97 77/117/97
f 76/137/98 71/227/98 4/138/98
f 80/9/99 89/228/99 75/139/99
f 105/141/100 74/229/100 14/142/100
f 7/144/101 67/230/101 73/145/101
f 8/147/102 70/104/102 72/103/102
f 27/149/103 59/231/103 66/150/103
f 12/31/104 68/232/104 60/152/104
f 4/154/105 71/99/105 70/98/105
f 28/156/106 65/87/106 69/96/106
f 11/158/107 63/85/107 68/159/107
f 61/161/108 67/230/108 7/144/108
f 106/163/109 65/233/109 28/164/109
f 64/83/110 63/85/110 11/158/110
f 79/165/111 90/167/111 61/161/111
f 13/153/112 60/152/112 59/166/112
f 5/128/113 62/225/113 90/167/113
f 72/168/114 89/112/114 80/169/114
f 72/168/115 41/234/115 85/110/115
f 38/125/116 84/80/116 90/82/116
f 42/51/11 88/53/11 87/65/11
f 49/67/11 50/70/11 87/65/11
f 100/68/11 49/67/11 86/64/11
f 36/171/11 85/213/11 88/53/11
f 82/24/1 83/7/1 19/32/1
f 17/173/117 81/22/117 82/24/117
f 93/174/118 108/20/118 81/175/118
f 83/177/1 80/235/1 10/178/1
f 79/180/118 108/20/118 93/174/118
f 100/68/11 107/63/11 84/182/11
f 29/184/119 66/236/119 106/163/119
f 2/146/120 73/145/120 105/141/120
f 73/185/121 33/237/121 99/186/121
f 57/187/122 104/86/122 106/88/122
f 58/189/11 104/76/11 103/77/11
f 56/190/11 103/77/11 98/66/11
f 102/59/11 99/72/11 33/192/11
f 31/191/11 98/66/11 100/68/11
f 84/182/11 107/63/11 101/57/11
f 101/57/11 102/59/11 32/193/11
f 96/43/123 97/46/123 28/164/123
f 91/44/124 96/43/124 26/195/124
f 2/197/125 92/34/125 95/36/125
f 1/199/1 5/238/1 93/200/1
f 79/165/1 6/162/1 94/201/1
f 7/202/126 95/13/126 94/15/126
