# Blender 4.2.1 LTS
# www.blender.org
mtllib shelf_2.mtl
g shelf_2_Mesh
v 0.651525 0.000000 0.289529
v 0.651525 1.838316 0.289529
v 0.608942 0.000000 0.289529
v 0.608942 1.838316 0.289529
v 0.651525 0.000000 -0.295279
v 0.651525 1.838316 -0.295279
v 0.608942 0.000000 -0.295279
v 0.608942 1.838316 -0.295279
v -0.546930 0.000000 0.289530
v -0.534500 1.840092 0.289530
v -0.504347 0.000000 0.289530
v -0.504347 1.838316 0.289530
v -0.546930 0.000000 -0.295278
v -0.534501 1.840092 -0.295278
v -0.504347 0.000000 -0.295278
v -0.504347 1.838316 -0.295278
v 0.646198 0.838355 0.289529
v 0.650638 1.481314 0.289529
v 0.608942 1.499959 0.289529
v 0.608942 0.887187 0.289529
v 0.608942 1.499959 -0.295279
v 0.608942 0.887187 -0.295279
v 0.639095 1.534585 -0.295279
v 0.647086 0.935131 -0.295279
v -0.546930 0.459579 0.289530
v -0.546930 0.919158 0.289530
v -0.542491 1.454205 0.289530
v -0.504347 1.378737 0.289530
v -0.504347 0.919158 0.289530
v -0.504347 0.459579 0.289530
v -0.504347 1.378737 -0.295278
v -0.504347 0.919158 -0.295278
v -0.504347 0.459579 -0.295278
v -0.534501 1.403597 -0.295278
v -0.546930 0.919158 -0.295278
v -0.546930 0.459579 -0.295278
v 0.608942 0.492487 0.289529
v 0.608942 0.492487 -0.295279
v 0.639095 0.480945 -0.295279
v 0.635544 0.528001 0.289529
v -0.535388 0.678516 0.289530
v -0.504347 0.703376 0.289530
v -0.504347 0.703376 -0.295278
v -0.538052 0.786834 -0.295278
v 0.608942 0.000000 -0.100343
v 0.608942 0.000000 0.094593
v 0.608942 1.838316 0.094593
v 0.608942 1.838316 -0.100343
v 0.651525 0.000000 0.094593
v 0.651525 0.000000 -0.100343
v 0.651525 1.838316 -0.100343
v 0.651525 1.838316 0.094593
v 0.646790 1.105389 -0.172451
v 0.646494 0.850669 -0.014336
v 0.642943 1.536773 -0.017495
v 0.646790 1.709259 0.155961
v 0.608942 0.887187 0.094593
v 0.608942 0.887187 -0.100343
v 0.608942 1.499959 0.094593
v 0.608942 1.499959 -0.100343
v 0.608942 0.492487 0.094593
v 0.608942 0.492487 -0.100343
v 0.637911 0.794267 -0.230751
v 0.636728 0.119557 0.131414
v -0.504347 0.000000 -0.100342
v -0.504347 0.000000 0.094594
v -0.504347 1.838316 0.094594
v -0.504347 1.838316 -0.100342
v -0.546930 0.000000 0.094594
v -0.546930 0.000000 -0.100342
v -0.534500 1.840092 -0.100342
v -0.534500 1.840092 0.094594
v -0.546930 0.103642 0.163634
v -0.546930 0.646753 -0.135629
v -0.546930 0.988198 0.140620
v -0.546930 1.198385 -0.144834
v -0.539827 1.672070 0.197386
v -0.537164 1.561614 0.106777
v -0.504347 0.459579 -0.100342
v -0.504347 0.459579 0.094594
v -0.504347 0.919158 -0.100342
v -0.504347 0.919158 0.094594
v -0.504347 1.378737 -0.100342
v -0.504347 1.378737 0.094594
v -0.504347 0.703376 -0.100342
v -0.504347 0.703376 0.094594
v -0.536276 0.714622 0.094594
v -0.537164 0.914889 -0.061987
v 0.617659 0.415408 0.270147
v 0.617659 0.459421 0.270147
v -0.512296 0.397198 0.266272
v -0.512296 0.441210 0.266272
v 0.617658 0.415408 -0.231561
v 0.617658 0.459421 -0.231561
v -0.513064 0.415408 -0.231560
v -0.513064 0.459421 -0.231560
v -0.512296 0.397198 0.207121
v -0.512296 0.441210 0.207121
v 0.617659 0.415408 0.210995
v 0.617659 0.459421 0.210995
v -0.458014 0.397198 0.266272
v 0.563376 0.415408 0.270147
v 0.563376 0.459421 0.270147
v -0.458014 0.441210 0.266272
v 0.537926 0.415408 -0.189834
v -0.433331 0.415408 -0.189833
v -0.422042 0.459752 -0.206983
v 0.527061 0.459421 -0.206445
v -0.429751 0.442206 0.185310
v 0.527061 0.459421 0.186532
v -0.432564 0.397198 0.225100
v 0.537926 0.415408 0.228975
v -0.461247 0.596938 0.270147
v -0.514913 0.602487 0.270148
v -0.514913 0.602487 0.210996
v -0.514914 0.602487 -0.231560
v 0.576139 0.597555 -0.231561
v 0.617658 0.597555 -0.231561
v 0.617659 0.597555 0.210995
v 0.617659 0.597555 0.270147
v 0.576139 0.597555 0.238558
v 0.563376 0.597555 0.270147
v -0.474010 0.596938 -0.231560
v -0.474010 0.596938 0.238559
v -0.513064 0.459421 -0.279704
v -0.513064 0.415408 -0.279704
v -0.458781 0.415408 -0.279704
v 0.563376 0.459421 -0.279705
v 0.617658 0.459421 -0.279705
v 0.617658 0.415408 -0.279705
v 0.563376 0.415408 -0.279705
v -0.458781 0.459421 -0.279704
v -0.474010 0.596938 -0.279704
v 0.576138 0.597555 -0.279705
v 0.617658 0.597555 -0.279705
v -0.514914 0.602487 -0.279704
v 0.563376 0.415408 -0.231561
v -0.458781 0.415408 -0.231560
v -0.458014 0.397198 0.236974
v 0.563376 0.415408 0.240849
v 0.522113 0.432394 -0.183016
v -0.417519 0.432394 -0.183015
v -0.416751 0.414183 0.218281
v 0.522114 0.432394 0.222156
v 0.617659 0.816130 0.270147
v 0.617659 0.860143 0.270147
v -0.513063 0.816130 0.270148
v -0.513063 0.860143 0.270148
v 0.617658 0.816130 -0.231561
v 0.617658 0.860143 -0.231561
v -0.513064 0.816130 -0.231560
v -0.513064 0.860143 -0.231560
v -0.513063 0.816130 0.210996
v -0.513063 0.860143 0.210996
v 0.617659 0.816130 0.210995
v 0.617659 0.860143 0.210995
v -0.458781 0.816130 0.270147
v 0.563376 0.816130 0.270147
v 0.563376 0.860143 0.270147
v -0.458781 0.860143 0.270147
v 0.537926 0.816130 -0.189834
v -0.433331 0.816130 -0.189833
v -0.422466 0.860143 -0.202770
v 0.527172 0.859989 -0.203255
v -0.422466 0.860143 0.186533
v 0.527946 0.859806 0.186718
v -0.433331 0.816130 0.228975
v 0.537926 0.816130 0.228975
v -0.460014 0.993344 0.270147
v -0.515530 0.977314 0.270148
v -0.515530 0.977314 0.210996
v -0.515530 0.977314 -0.231560
v 0.576139 0.998893 -0.231561
v 0.617658 0.998277 -0.231561
v 0.617659 0.998277 0.210995
v 0.617659 0.998277 0.270147
v 0.576139 0.998893 0.238558
v 0.551661 0.987179 0.270147
v -0.472777 0.993344 -0.231560
v -0.470311 0.984712 0.238559
v -0.513064 0.860143 -0.279704
v -0.513064 0.816130 -0.279704
v -0.458781 0.816130 -0.279704
v 0.563376 0.860143 -0.279705
v 0.617658 0.860143 -0.279705
v 0.617658 0.816130 -0.279705
v 0.563376 0.816130 -0.279705
v -0.458781 0.860143 -0.279704
v -0.472777 0.993344 -0.279704
v 0.576138 0.998893 -0.279705
v 0.617658 0.998277 -0.279705
v -0.515530 0.977314 -0.279704
v 0.563376 0.816130 -0.231561
v -0.458781 0.816130 -0.231560
v -0.458781 0.816130 0.240850
v 0.563376 0.816130 0.240849
v 0.522113 0.833116 -0.183016
v -0.417519 0.833116 -0.183015
v -0.417518 0.833116 0.222157
v 0.522114 0.833116 0.222156
v 0.617659 1.216852 0.270147
v 0.617659 1.260865 0.270147
v -0.513063 1.216852 0.270148
v -0.513063 1.260865 0.270148
v 0.617658 1.216852 -0.231561
v 0.617658 1.260865 -0.231561
v -0.513064 1.216852 -0.231560
v -0.513064 1.260865 -0.231560
v -0.513063 1.216852 0.210996
v -0.513063 1.260865 0.210996
v 0.617659 1.216852 0.210995
v 0.617659 1.260865 0.210995
v -0.458781 1.216852 0.270147
v 0.563376 1.216852 0.270147
v 0.563383 1.254957 0.269576
v -0.458781 1.260865 0.270147
v 0.537926 1.216852 -0.189834
v -0.433331 1.216852 -0.189833
v -0.422466 1.260865 -0.204830
v 0.527061 1.260865 -0.201129
v -0.422466 1.260865 0.186533
v 0.527067 1.254957 0.185961
v -0.433331 1.216852 0.228975
v 0.537926 1.216852 0.228975
v -0.458781 1.398999 0.270147
v -0.513063 1.398999 0.270148
v -0.513063 1.398999 0.210996
v -0.513064 1.398999 -0.231560
v 0.576139 1.398999 -0.231561
v 0.617658 1.398999 -0.231561
v 0.617659 1.398999 0.210995
v 0.617659 1.398999 0.270147
v 0.576139 1.398999 0.238558
v 0.563376 1.398999 0.270147
v -0.471544 1.398999 -0.231560
v -0.471544 1.398999 0.238559
v -0.513064 1.260865 -0.279704
v -0.513064 1.216852 -0.279704
v -0.458781 1.216852 -0.279704
v 0.563376 1.260865 -0.279705
v 0.617658 1.260865 -0.279705
v 0.617658 1.216852 -0.279705
v 0.563376 1.216852 -0.279705
v -0.458781 1.260865 -0.279704
v -0.471544 1.398999 -0.279704
v 0.576138 1.398999 -0.279705
v 0.617658 1.398999 -0.279705
v -0.513064 1.398999 -0.279704
v 0.563376 1.216852 -0.231561
v -0.458781 1.216852 -0.231560
v -0.458781 1.216852 0.240850
v 0.563376 1.216852 0.240849
v 0.522113 1.233838 -0.183016
v -0.417519 1.233838 -0.183015
v -0.417518 1.233838 0.222157
v 0.522114 1.233838 0.222156
v 0.617659 1.617574 0.270147
v 0.617659 1.661587 0.270147
v -0.513063 1.617574 0.270148
v -0.513063 1.661587 0.270148
v 0.617658 1.617574 -0.231561
v 0.617658 1.661587 -0.231561
v -0.515273 1.602584 -0.238198
v -0.515273 1.646597 -0.238198
v -0.513063 1.617574 0.210996
v -0.513063 1.661587 0.210996
v 0.617659 1.617574 0.210995
v 0.617659 1.661587 0.210995
v -0.458781 1.617574 0.270147
v 0.563376 1.617574 0.270147
v 0.561352 1.669358 0.273855
v -0.458781 1.661587 0.270147
v 0.537926 1.617574 -0.189834
v -0.433331 1.617574 -0.189833
v -0.422466 1.661587 -0.203026
v 0.527061 1.661587 -0.206445
v -0.422466 1.661587 0.186533
v 0.525037 1.669358 0.190240
v -0.433331 1.617574 0.228975
v 0.537926 1.617574 0.228975
v -0.458781 1.799721 0.270147
v -0.513063 1.799721 0.270148
v -0.513063 1.799721 0.210996
v -0.513064 1.799721 -0.231560
v 0.571105 1.786285 -0.237254
v 0.617658 1.799721 -0.231561
v 0.617659 1.799721 0.210995
v 0.617659 1.799721 0.270147
v 0.576139 1.799721 0.238558
v 0.534139 1.769819 0.263275
v -0.471544 1.799721 -0.231560
v -0.471544 1.799721 0.238559
v -0.515273 1.646597 -0.286342
v -0.515273 1.602584 -0.286342
v -0.460991 1.602584 -0.286342
v 0.566191 1.660543 -0.280417
v 0.617658 1.661587 -0.279705
v 0.617658 1.617574 -0.279705
v 0.586506 1.616516 -0.282129
v -0.460991 1.646597 -0.286342
v -0.471544 1.799721 -0.279704
v 0.580441 1.769301 -0.293914
v 0.617658 1.799721 -0.279705
v -0.513064 1.799721 -0.279704
v 0.563376 1.617574 -0.231561
v -0.462145 1.618090 -0.231043
v -0.458781 1.617574 0.240850
v 0.563376 1.617574 0.240849
v 0.522113 1.634560 -0.183016
v -0.417519 1.634560 -0.183015
v -0.417518 1.634560 0.222157
v 0.522114 1.634560 0.222156
v -0.278571 1.617574 0.270147
v -0.278571 1.661587 0.270147
v -0.295888 1.622878 -0.215323
v -0.295566 1.657975 -0.194916
v -0.278571 1.661587 0.186533
v -0.278571 1.617574 0.240849
v -0.278571 1.792618 0.270147
v -0.290385 1.780188 0.238559
v -0.279412 1.622878 -0.173596
v -0.262095 1.617574 0.228975
v -0.269175 1.639864 -0.166778
v -0.251858 1.634560 0.222157
v 0.303220 1.216852 0.277546
v 0.303220 1.260865 0.277546
v 0.309386 1.216852 -0.197650
v 0.312788 1.260865 -0.173619
v 0.305070 1.260865 0.186532
v 0.303220 1.216852 0.248248
v 0.299521 1.384941 0.277546
v 0.293389 1.384941 0.247002
v 0.296798 1.216852 -0.155923
v 0.290633 1.216852 0.236374
v 0.288978 1.233838 -0.149104
v 0.282812 1.233838 0.229555
v -0.288776 0.816130 0.270147
v 0.048860 0.816130 0.278162
v 0.048860 0.860143 0.278162
v -0.288776 0.860143 0.270147
v -0.043414 0.811680 -0.147275
v -0.310356 0.816130 -0.217379
v -0.312920 0.859912 -0.192706
v -0.042341 0.852111 -0.125861
v -0.287892 0.860450 0.186533
v 0.048205 0.860664 0.195216
v -0.288776 0.816130 0.240849
v 0.048860 0.816130 0.248864
v 0.015566 0.980396 0.278162
v -0.288776 0.998277 0.270147
v -0.297293 0.998277 0.238559
v 0.006925 0.973614 0.246574
v -0.091632 0.814334 -0.101472
v -0.293372 0.816130 -0.175652
v -0.271792 0.816130 0.228975
v 0.048878 0.816130 0.236990
v -0.091621 0.831319 -0.094654
v -0.282819 0.833116 -0.168834
v -0.261239 0.833116 0.222157
v 0.048889 0.833116 0.230172
v 0.245022 0.816130 0.277546
v 0.267991 0.826895 -0.179597
v 0.245321 0.860329 0.186387
v 0.245021 0.816130 0.248248
v 0.249880 0.981629 0.245957
v 0.237182 0.816130 0.228975
v 0.231162 0.833116 0.222156
v 0.245022 0.860143 0.277546
v 0.265006 0.796184 -0.203788
v 0.245022 0.998277 0.277546
v 0.241498 0.799137 -0.155922
v 0.235478 0.811011 -0.149104
v 0.067069 0.402421 0.257832
v 0.455476 0.415408 0.270147
v 0.455476 0.459421 0.270147
v 0.067069 0.446433 0.257832
v 0.455475 0.415408 -0.231561
v 0.147498 0.417247 -0.193819
v 0.147538 0.460930 -0.170270
v 0.453288 0.459273 -0.206445
v 0.067069 0.446874 0.174951
v 0.455476 0.459643 0.186532
v 0.067069 0.402421 0.228534
v 0.455476 0.415408 0.240849
v 0.441911 0.588923 0.270147
v 0.079613 0.589539 0.270147
v 0.102752 0.596938 0.238559
v 0.463078 0.595088 0.238559
v 0.435399 0.415408 -0.189834
v 0.144388 0.417247 -0.152093
v 0.063959 0.402421 0.216660
v 0.435399 0.415408 0.228975
v 0.427240 0.432394 -0.149104
v 0.142455 0.434233 -0.145274
v 0.062026 0.419406 0.209842
v 0.422925 0.432394 0.222156
v 0.147689 1.636380 0.278264
v 0.102111 1.641070 -0.225455
v 0.147689 1.680393 0.194649
v 0.147689 1.636380 0.248966
v 0.121568 1.781964 0.238559
v 0.143202 1.636380 0.237091
v 0.140414 1.653366 0.230273
v 0.147689 1.680393 0.278264
v 0.145090 1.602326 -0.239044
v 0.118430 1.774861 0.270147
v 0.140603 1.602326 -0.197318
v 0.139286 1.610404 -0.194891
v -0.513064 1.661587 -0.010282
v 0.617659 1.617574 -0.010283
v -0.513064 1.617574 -0.010282
v 0.617659 1.661587 -0.010283
v -0.422466 1.661587 -0.009956
v 0.527061 1.661587 -0.009957
v -0.458781 1.617574 0.004645
v 0.563376 1.617574 0.004644
v -0.513064 1.799721 -0.010282
v 0.617659 1.799721 -0.010283
v -0.471544 1.799721 0.003500
v 0.574057 1.779759 -0.005413
v -0.433331 1.617574 0.019571
v 0.537926 1.617574 0.019570
v -0.417519 1.634560 0.019571
v 0.522113 1.634560 0.019570
v -0.251859 1.634560 0.019571
v 0.136861 1.640728 0.022232
v 0.455475 0.459421 -0.231561
v 0.563376 0.459421 -0.231561
v 0.455476 0.459421 0.210996
v 0.563376 0.459421 0.210995
v -0.458014 0.441210 0.207121
v -0.458781 0.459421 -0.231560
v 0.265006 0.826950 -0.203788
v 0.563376 0.860143 -0.231561
v 0.246871 0.860143 0.210996
v 0.563376 0.860143 0.210995
v -0.458781 0.860143 0.210996
v -0.458781 0.860143 -0.231560
v 0.309386 1.260865 -0.197650
v 0.563376 1.260865 -0.231561
v 0.305070 1.260865 0.210996
v 0.563383 1.254957 0.210425
v -0.458781 1.260865 0.210996
v -0.458781 1.260865 -0.231560
v 0.100866 1.641070 -0.250571
v 0.563376 1.661587 -0.231561
v 0.147689 1.680393 0.219113
v 0.561352 1.669358 0.214703
v -0.458781 1.661587 -0.010282
v -0.460991 1.646597 -0.238198
v 0.563376 1.661587 -0.010283
v -0.293357 1.657975 -0.219594
v -0.458781 1.661587 0.210996
v -0.278571 1.661587 0.210996
v -0.310356 0.860143 -0.217379
v -0.043414 0.852475 -0.147275
v -0.288776 0.860143 0.210996
v 0.048860 0.860143 0.219011
v 0.147498 0.461260 -0.193819
v 0.067069 0.446433 0.198681
v -0.278572 1.656951 -0.009956
v -0.295566 1.653340 -0.194916
v 0.305070 1.256229 0.186532
v 0.312788 1.256229 -0.173619
v -0.244056 0.856236 0.178400
v -0.277203 0.855550 -0.199217
v 0.031007 0.856291 0.179612
v -0.042899 0.850922 -0.142252
v 0.200665 0.856073 0.184152
v 0.236277 0.823785 -0.180613
v 0.053630 0.442501 0.158573
v 0.137580 0.456543 -0.186704
v 0.416405 0.455331 0.179869
v 0.415554 0.454938 -0.212860
v 0.144136 1.663119 -0.007294
v 0.102111 1.636434 -0.225455
v -0.278571 1.656951 0.186533
v 0.147689 1.675757 0.194649
v -0.422466 1.656951 -0.009956
v 0.527061 1.656951 -0.009957
v 0.525647 0.454786 -0.206161
v 0.525648 0.454786 0.186817
v -0.414223 0.438266 0.170483
v -0.406514 0.455812 -0.221811
v 0.546086 0.855428 -0.199759
v 0.546860 0.855246 0.190214
v -0.421683 0.855507 0.186949
v -0.421683 0.855507 -0.202353
v 0.527061 1.256229 -0.201129
v 0.527067 1.250322 0.185961
v -0.422466 1.256229 0.186533
v -0.422466 1.256229 -0.204830
v 0.527061 1.656951 -0.206445
v 0.525037 1.664723 0.190240
v -0.422466 1.656951 -0.203026
v -0.422466 1.656951 0.186533
v -0.307200 1.276982 0.273172
v -0.302520 1.216852 -0.224662
v -0.225837 1.398361 0.266056
v -0.284808 1.216852 -0.182935
v -0.273803 1.233838 -0.176117
v -0.303774 1.216852 0.271652
v -0.302520 1.260865 -0.224662
v -0.306824 1.276982 0.212516
v -0.303774 1.216852 0.242354
v -0.237250 1.398361 0.234680
v -0.286062 1.216852 0.230480
v -0.275057 1.233838 0.223662
v -0.272900 1.260865 -0.198481
v -0.277896 1.276982 0.188052
v -0.272900 1.256229 -0.198481
v -0.277896 1.272347 0.188052
vn -0.0000 -0.0000 1.0000
vn -1.0000 -0.0000 -0.0000
vn -0.0000 -0.0000 -1.0000
vn 0.9995 -0.0025 -0.0330
vn -0.0000 -1.0000 -0.0000
vn -0.0000 1.0000 -0.0000
vn 1.0000 -0.0000 -0.0000
vn -0.9995 0.0317 -0.0000
vn 0.0588 0.9983 -0.0000
vn 0.9996 -0.0078 0.0277
vn 1.0000 -0.0069 0.0007
vn -0.9992 -0.0361 -0.0167
vn -0.9999 0.0107 -0.0036
vn 0.9924 0.1228 -0.0000
vn -0.9992 0.0132 -0.0373
vn 0.9997 0.0258 -0.0000
vn 0.9998 0.0133 -0.0161
vn 0.9999 0.0052 0.0103
vn 0.9945 -0.0175 0.1032
vn 0.9992 -0.0202 -0.0344
vn 0.9994 -0.0322 -0.0136
vn 0.9996 -0.0271 0.0048
vn -0.9991 0.0271 -0.0318
vn -0.9989 0.0258 0.0386
vn -0.9985 0.0256 -0.0476
vn -0.9998 0.0178 0.0131
vn -0.9969 -0.0669 0.0405
vn -0.9985 -0.0438 -0.0323
vn -1.0000 0.0096 -0.0000
vn -1.0000 -0.0000 0.0018
vn 0.1344 0.9909 -0.0000
vn -0.9958 0.0920 -0.0000
vn 0.1273 -0.0000 0.9919
vn 0.9948 0.1022 -0.0000
vn 0.0214 -0.9990 -0.0389
vn -0.7319 -0.6814 -0.0000
vn 0.0161 -0.0000 0.9999
vn -0.0218 0.9997 -0.0088
vn -0.9999 -0.0129 -0.0000
vn -0.0000 0.2561 -0.9666
vn -0.0025 -0.0241 0.9997
vn -0.9999 -0.0162 -0.0000
vn 0.9939 0.1101 -0.0000
vn 0.0032 -1.0000 0.0002
vn 0.0637 -0.9972 -0.0389
vn -0.0123 -0.3737 -0.9275
vn 0.7252 -0.6878 -0.0315
vn 0.1449 -0.9026 0.4054
vn -0.3511 0.9363 -0.0000
vn -0.9958 0.0916 -0.0000
vn -0.0376 -0.9966 0.0736
vn 0.9957 0.0929 -0.0035
vn 0.0148 0.9999 -0.0000
vn -0.0927 -0.0000 -0.9957
vn -0.1615 0.9869 -0.0000
vn -0.0429 0.9471 0.3180
vn -0.9998 -0.0210 -0.0000
vn -0.0000 0.1957 -0.9807
vn 0.0241 -0.0000 0.9997
vn 0.9945 0.1045 -0.0000
vn -0.0000 -0.9982 0.0594
vn -0.0000 -0.3725 -0.9280
vn 0.7319 -0.6814 -0.0000
vn 0.1389 -0.4393 0.8876
vn -0.9958 0.0920 0.0012
vn -0.2344 -0.9721 -0.0000
vn 0.9958 0.0920 -0.0000
vn -0.1323 -0.0000 -0.9912
vn -0.0000 0.0150 0.9999
vn -0.0097 -0.0000 1.0000
vn -0.0503 0.9985 -0.0203
vn -0.0101 -0.0040 0.9999
vn -0.0157 0.1883 -0.9820
vn 0.0306 0.0009 0.9995
vn 0.0098 -0.3780 -0.9258
vn 0.1367 -0.3142 0.9395
vn -1.0000 -0.0000 0.0097
vn -0.0452 -0.9990 -0.0000
vn -0.9958 0.0905 -0.0121
vn -0.0109 -0.8574 0.5145
vn 0.0006 -1.0000 -0.0022
vn -0.5221 0.7895 -0.3227
vn 0.0179 -0.0000 -0.9998
vn -0.4163 0.9092 -0.0000
vn -0.0257 0.6581 0.7525
vn -0.1084 0.0750 0.9913
vn -0.0000 0.2264 -0.9740
vn 0.0176 0.0910 0.9957
vn 0.0776 -0.0000 -0.9970
vn 0.3567 -0.0000 -0.9342
vn -0.0000 0.0433 -0.9991
vn 0.9992 -0.0405 -0.0000
vn -0.9999 0.0144 -0.0000
vn 0.9976 0.0688 -0.0000
vn -0.9907 0.1224 -0.0597
vn 0.2367 -0.9342 0.2669
vn 0.0340 -0.9994 -0.0000
vn -0.8458 -0.3755 -0.3790
vn 0.0359 -0.9993 -0.0142
vn -0.0472 -0.9987 0.0178
vn -0.0160 -0.9999 -0.0000
vn -0.0114 -0.2894 0.9571
vn -0.0900 -0.2977 0.9504
vn 0.0368 -0.3671 -0.9295
vn -0.0000 -0.9996 -0.0285
vn -0.0492 -0.9988 -0.0053
vn 0.0103 0.1906 -0.9816
vn 0.1071 0.9933 -0.0433
vn -0.0190 -0.0000 0.9998
vn 0.0983 -0.2460 -0.9643
vn -0.9999 -0.0000 -0.0101
vn -0.0435 -0.3478 0.9366
vn -0.0275 -0.3943 -0.9186
vn -0.0055 0.0622 0.9980
vn -0.0390 0.1949 -0.9801
vn 0.0255 0.9996 -0.0093
vn 0.0284 0.0150 0.9995
vn 0.0441 -0.0000 -0.9990
vn 0.9860 0.1666 -0.0000
vn -0.0964 -0.2922 0.9515
vn -0.3420 -0.1593 0.9261
vn -0.0393 -0.3842 -0.9224
vn 0.0240 -0.3724 -0.9277
vn -0.0001 -1.0000 0.0056
vn -0.0427 -0.9983 0.0406
vn -0.0218 -0.9992 0.0350
vn -0.0263 -0.0000 0.9997
vn -0.0389 0.2772 -0.9600
vn 0.0230 0.2440 -0.9695
vn -0.0759 0.9679 -0.2397
vn 0.0814 0.9964 -0.0219
vn 0.0031 -0.0000 1.0000
vn -0.0237 -0.0000 0.9997
vn 0.0951 -0.0000 -0.9955
vn 0.2540 -0.0000 -0.9672
vn -0.0026 -0.0000 -1.0000
vn 0.0232 -0.0000 0.9997
vn -0.0327 0.1976 -0.9797
vn 0.0706 -0.9966 0.0431
vn 0.1302 -0.3694 0.9201
vn 0.0026 -0.9982 0.0595
vn 0.0026 0.0007 1.0000
vn -0.0328 0.9790 -0.2012
vn -0.1802 -0.0000 -0.9836
vn 0.0174 0.3160 -0.9486
vn -0.0607 -0.3227 0.9446
vn 0.0101 -0.3715 0.9284
vn 0.0431 -0.3447 -0.9377
vn 0.0101 -0.9989 -0.0453
vn 0.0371 -0.9988 -0.0333
vn 0.0103 -0.9997 0.0221
vn 0.0352 -0.9993 -0.0092
vn -0.0063 -1.0000 -0.0031
vn 0.0163 -0.0245 0.9996
vn -0.0288 -0.0832 0.9961
vn -0.0043 0.1961 -0.9806
vn 0.0010 0.1990 -0.9800
vn -0.0000 0.9736 0.2281
vn 0.0050 0.9808 0.1948
vn -0.0317 -0.0000 0.9995
vn 0.0621 -0.0000 -0.9981
vn -0.1216 -0.0000 -0.9926
vn -0.0424 -0.0000 0.9991
vn 0.0190 -0.0000 -0.9998
vn 0.0099 -1.0000 -0.0000
vn 0.0334 -0.9994 -0.0000
vn 0.0163 -0.0708 0.9974
vn -0.0057 0.1806 -0.9835
vn 0.0360 -0.9991 0.0220
vn -0.0380 -0.4025 -0.9146
vn 0.0329 -0.3893 0.9205
vn 0.0148 -0.9903 0.1385
vn 0.0429 -0.9973 0.0595
vn -0.0040 0.9311 -0.3649
vn -0.0667 -0.3537 -0.9330
vn -0.0094 0.5835 0.8121
vn 0.0441 -0.9990 -0.0000
vn 0.0466 -0.9971 0.0598
vn 0.0766 -0.0000 0.9971
vn -0.0478 -0.9970 0.0614
vn -0.0151 -0.9999 -0.0020
vn -0.9999 0.0140 0.0088
vn -0.2806 0.9593 0.0306
vn -0.9565 0.2917 -0.0000
vn -0.9979 0.0625 0.0145
vn -0.0020 1.0000 0.0057
vn -0.0032 0.9991 0.0415
vn -0.1250 0.9920 0.0177
vn -0.0000 0.9999 -0.0139
vn -0.0043 1.0000 -0.0000
vn 0.0228 0.9992 -0.0338
vn 0.0112 0.9998 0.0134
vn -0.0483 0.9988 0.0024
vn 0.0262 0.9989 -0.0389
vn -0.0217 0.9281 -0.3717
vn -0.1086 0.9858 -0.1284
vn 0.0256 0.9996 0.0120
vn -0.0023 0.9999 0.0125
vn -0.0005 0.9998 0.0219
vn 0.0832 0.9965 0.0128
vn 0.0003 1.0000 0.0075
vn -0.0024 0.9999 -0.0099
vn 0.0071 0.9999 0.0140
vn -0.0090 0.9998 0.0186
vn -0.0337 0.9994 0.0091
vn 0.0428 0.9991 0.0038
vn -0.0441 0.9990 -0.0000
vn -0.0004 0.9992 -0.0388
vn 0.0014 1.0000 -0.0010
vn -0.1016 0.9948 0.0007
vn 0.0020 0.9999 0.0153
vn 0.0158 0.9991 -0.0386
vn 0.0018 0.9991 -0.0416
vn -0.0003 1.0000 -0.0000
vn 0.0206 0.9998 -0.0036
vn 0.0916 0.9951 -0.0376
vn -0.0039 0.9992 0.0397
vn 0.0057 1.0000 -0.0010
vn -0.0146 0.9999 -0.0000
vn 0.0407 0.9989 -0.0232
vn 0.0284 0.9996 -0.0000
vn -0.0429 0.9927 -0.1132
vn 0.0002 -0.0895 -0.9960
vn 0.0102 0.9092 -0.4163
vn 0.0527 -0.7519 0.6571
vn 0.0087 0.9603 -0.2787
vn -0.0447 -0.0000 0.9990
vn -0.0159 -0.9636 0.2669
vn -0.0117 -0.0000 -0.9999
vn -0.0001 0.0613 0.9981
vn 0.0405 -0.9221 0.3847
vn 0.0500 0.6790 -0.7324
vn -0.0147 0.9624 -0.2711
vn 0.2889 0.9561 0.0484
vn -0.0201 0.9699 -0.2425
vn -0.0638 -0.0000 0.9980
vn 0.0276 0.9996 -0.0000
vn 0.0105 -0.0000 -0.9999
vn 0.0027 1.0000 -0.0011
vn -0.0199 -0.0000 0.9998
vn -0.0437 -0.3369 0.9405
vn 0.0098 -0.3686 -0.9295
vn 0.0294 0.2811 -0.9592
vn 0.9993 -0.0367 -0.0000
vn -0.9996 0.0207 0.0200
vn 0.9994 -0.0343 -0.0004
vn 0.9998 0.0040 -0.0220
vn -0.9988 -0.0479 -0.0043
vn -1.0000 0.0083 0.0038
vn 0.9971 0.0302 -0.0705
vn -0.9985 0.0526 0.0143
vn 0.9993 0.0112 -0.0361
vn 0.9984 0.0254 0.0506
vn 0.9998 0.0139 -0.0140
vn 0.9996 0.0050 -0.0272
vn 0.9976 -0.0391 0.0566
vn 0.9992 -0.0222 -0.0338
vn 0.9992 -0.0409 -0.0000
vn -0.9990 0.0416 -0.0190
vn -0.9990 0.0219 0.0398
vn -0.9988 0.0432 -0.0236
vn -0.9988 0.0143 -0.0467
vn -0.9989 -0.0223 0.0414
vn -0.9988 -0.0328 -0.0363
vn -1.0000 0.0036 -0.0080
vn -0.9992 0.0079 -0.0389
vn 0.9939 0.1101 0.0028
vn -0.0000 -0.9991 -0.0415
vn 0.1028 0.9938 -0.0415
vn -0.0701 0.9869 0.1456
vn -0.9999 -0.0163 0.0011
vn -0.0177 0.1961 -0.9804
vn -0.0000 -0.0249 0.9997
vn 0.0032 -1.0000 -0.0019
vn -0.0204 -0.9988 -0.0438
vn -0.0120 -0.3629 -0.9318
vn 0.7379 -0.6741 -0.0320
vn -0.0000 -0.3725 0.9280
vn -0.0804 -0.9740 0.2116
vn -0.1614 0.9595 0.2308
vn -0.1727 0.9848 0.0190
vn -0.2734 0.9468 -0.1696
vn 0.0209 0.8858 -0.4636
vn -0.0168 0.2145 -0.9766
vn 0.0232 0.0021 0.9997
vn 0.0769 -0.9970 -0.0000
vn 0.1246 -0.2675 0.9555
vn -0.9961 0.0882 -0.0000
vn -0.0105 -0.0000 0.9999
vn -0.0172 -0.0262 0.9995
vn -0.0529 0.9985 0.0106
vn -0.0108 0.1947 -0.9808
vn 0.0282 -0.0040 0.9996
vn 0.0095 -0.3801 -0.9249
vn 0.1345 -0.2587 0.9565
vn -0.9936 0.1128 -0.0008
vn -0.0911 0.0739 0.9931
vn 0.9975 0.0694 -0.0142
vn 0.2721 -0.9604 0.0605
vn -0.2773 0.9608 -0.0000
vn 0.0502 -0.2317 -0.9715
vn 0.0560 -0.0691 0.9960
vn -0.3346 0.8335 0.4398
vn -0.0538 0.9953 -0.0810
vn 0.0155 0.9752 0.2208
vn 0.0657 -0.0000 0.9978
vn 0.0213 0.1975 -0.9801
vn 0.0135 0.1083 0.9940
vn 0.0129 0.0448 -0.9989
vn 0.0163 -0.1252 -0.9920
vn 0.9998 -0.0000 0.0209
vn -0.9827 0.0528 -0.1777
vn -0.0000 -0.9998 0.0209
vn -0.9983 -0.0000 -0.0575
vn 0.0321 -0.9989 -0.0349
vn -0.0432 -0.9948 0.0926
vn 0.0581 -0.9886 0.1387
vn -0.0031 -0.3750 0.9270
vn -0.0916 -0.3229 0.9420
vn 0.0366 -0.3912 -0.9196
vn 0.0357 -0.9994 -0.0000
vn -0.0456 -0.9988 0.0180
vn -0.0010 0.2263 -0.9741
vn 0.0365 0.9252 -0.3777
vn 0.1180 -0.1283 -0.9847
vn -0.0442 -0.3896 0.9199
vn -0.0285 -0.3837 -0.9230
vn -0.0219 -0.0007 0.9998
vn 0.0043 0.2791 -0.9603
vn 0.0256 0.9997 -0.0051
vn 0.0306 -0.0000 0.9995
vn -0.0993 -0.3169 0.9432
vn -0.3417 -0.3499 0.8722
vn -0.0408 -0.3722 -0.9273
vn 0.0231 -0.3848 -0.9227
vn -0.0096 -1.0000 0.0005
vn -0.0436 -0.9990 0.0120
vn -0.0187 -0.9998 0.0076
vn -0.0237 -0.0066 0.9997
vn -0.0101 0.2325 -0.9725
vn 0.0419 0.1980 -0.9793
vn -0.0288 0.9996 0.0078
vn 0.0631 0.9721 -0.2260
vn -0.0000 0.2766 -0.9610
vn 0.0678 -0.9932 0.0946
vn 0.1245 -0.4459 0.8864
vn -0.0569 -0.9979 0.0301
vn -0.0697 0.8781 -0.4735
vn -0.0002 -0.6089 -0.7933
vn -0.0610 -0.3778 0.9239
vn 0.0451 -0.9188 0.3922
vn 0.0449 -0.3677 -0.9288
vn 0.0060 -0.9992 -0.0404
vn -0.0065 -1.0000 -0.0001
vn 0.0105 -0.9999 -0.0027
vn 0.0352 -0.9976 -0.0596
vn -0.0064 -1.0000 -0.0005
vn -0.0012 -0.0856 0.9963
vn -0.0000 0.1991 -0.9800
vn 0.0223 0.2511 -0.9677
vn 0.0137 0.9999 -0.0055
vn 0.0017 0.9734 0.2292
vn 0.0107 -0.0000 0.9999
vn -0.0073 0.1862 -0.9825
vn 0.0383 -0.9993 0.0041
vn -0.0383 -0.3777 -0.9252
vn 0.0458 -0.2806 0.9587
vn -0.0734 -0.9971 -0.0216
vn 0.0467 -0.9988 -0.0176
vn -0.0224 0.0787 0.9966
vn 0.0436 0.9738 0.2233
vn -0.0827 -0.1145 -0.9900
vn 0.1023 -0.9672 -0.2323
vn 0.0159 -0.9999 -0.0000
vn -0.9959 0.0900 -0.0000
vn 0.0031 1.0000 0.0091
vn -0.0384 0.9983 0.0439
vn -0.1233 0.9806 -0.1523
vn 0.0018 1.0000 0.0074
vn -0.0098 1.0000 0.0005
vn 0.0266 0.9996 -0.0000
vn -0.0103 0.9998 0.0153
vn -0.0418 0.9973 -0.0604
vn 0.0292 0.9996 -0.0000
vn -0.3145 0.9474 -0.0593
vn 0.0283 0.9996 0.0025
vn -0.1027 0.9829 -0.1525
vn 0.0012 1.0000 0.0095
vn 0.0249 0.9996 0.0157
vn -0.0010 0.9999 0.0125
vn 0.0811 0.9967 -0.0077
vn 0.0027 0.9998 0.0218
vn -0.0030 0.9999 0.0140
vn 0.0068 1.0000 0.0065
vn -0.0094 0.9994 0.0335
vn -0.0334 0.9993 0.0186
vn 0.0427 0.9991 -0.0021
vn 0.0231 0.9991 -0.0343
vn 0.0050 1.0000 -0.0000
vn 0.0039 0.9961 -0.0878
vn 0.0266 0.9996 0.0006
vn 0.0284 0.9976 -0.0629
vn 0.0276 0.9996 0.0006
vn -0.0042 1.0000 -0.0015
vn -0.0001 0.9999 -0.0166
vn 0.0036 0.9961 -0.0878
vn -0.0079 0.9990 0.0445
vn -0.0372 0.9988 0.0316
vn -0.0428 0.9972 -0.0617
vn -0.0137 0.9928 -0.1188
vn -0.0000 0.9998 -0.0195
vn 0.0161 0.9999 -0.0000
vn -0.0317 0.8074 -0.5891
vn 0.0010 0.9626 -0.2708
vn -0.0863 -0.9934 0.0750
vn -0.0308 0.6988 -0.7147
vn -0.0137 -0.9698 0.2434
vn -0.0453 -0.6838 0.7283
vn 0.0177 -0.9686 0.2478
vn -0.0002 -0.0612 -0.9981
vn -0.0150 0.9691 -0.2464
vn -0.0144 0.8759 -0.4823
vn -0.1103 0.9930 -0.0428
vn 0.0264 0.9992 0.0312
vn 0.0027 1.0000 -0.0010
vn 0.0177 0.0467 0.9988
vn -0.0450 -0.3469 0.9368
vn 0.0095 -0.3778 -0.9258
vn 0.0023 0.1784 -0.9840
vn -0.0078 -0.0257 0.9996
vt 0.326306 0.088082
vt 0.326907 0.092857
vt 0.326319 0.093120
vt 0.320671 0.081642
vt 0.323422 0.086417
vt 0.320671 0.086417
vt 0.317390 0.082206
vt 0.317816 0.086493
vt 0.317390 0.086981
vt 0.322992 0.084692
vt 0.324877 0.082871
vt 0.324877 0.087909
vt 0.327748 0.084393
vt 0.328349 0.081642
vt 0.328349 0.084393
vt 0.326418 0.113457
vt 0.325817 0.110706
vt 0.326418 0.110706
vt 0.313888 0.090748
vt 0.313349 0.085326
vt 0.313775 0.085301
vt 0.318226 0.092493
vt 0.320977 0.086006
vt 0.320977 0.092493
vt 0.333253 0.097602
vt 0.333678 0.091466
vt 0.333678 0.097953
vt 0.327213 0.082075
vt 0.325913 0.079703
vt 0.328664 0.079703
vt 0.326922 0.101944
vt 0.327523 0.099193
vt 0.327523 0.101944
vt 0.326989 0.089897
vt 0.327415 0.092648
vt 0.326989 0.092648
vt 0.320589 0.096810
vt 0.324877 0.101364
vt 0.322645 0.107128
vt 0.324877 0.096984
vt 0.317390 0.095630
vt 0.317816 0.101363
vt 0.317390 0.101200
vt 0.317929 0.094953
vt 0.320671 0.095065
vt 0.323422 0.100636
vt 0.320671 0.100636
vt 0.323422 0.095065
vt 0.326532 0.106575
vt 0.326907 0.101506
vt 0.326907 0.107076
vt 0.326381 0.102195
vt 0.325913 0.105674
vt 0.327689 0.104211
vt 0.328664 0.105674
vt 0.328664 0.095588
vt 0.325912 0.092701
vt 0.328014 0.091727
vt 0.325912 0.085150
vt 0.333077 0.117411
vt 0.333678 0.110925
vt 0.333678 0.117411
vt 0.333203 0.106306
vt 0.333678 0.104439
vt 0.333678 0.107484
vt 0.333077 0.104439
vt 0.318226 0.111951
vt 0.320977 0.105465
vt 0.320977 0.111951
vt 0.318226 0.102024
vt 0.320977 0.098979
vt 0.320977 0.102024
vt 0.318226 0.098979
vt 0.313950 0.111271
vt 0.313349 0.104785
vt 0.313950 0.104785
vt 0.313349 0.101344
vt 0.313950 0.098299
vt 0.313787 0.101695
vt 0.313349 0.091813
vt 0.326306 0.114027
vt 0.326907 0.114027
vt 0.323422 0.107586
vt 0.320671 0.107586
vt 0.317390 0.108151
vt 0.317991 0.108151
vt 0.324877 0.108816
vt 0.322126 0.108816
vt 0.318226 0.105465
vt 0.333077 0.110925
vt 0.325912 0.099187
vt 0.316623 0.102028
vt 0.319375 0.108816
vt 0.316624 0.108816
vt 0.315169 0.100636
vt 0.317920 0.107586
vt 0.315169 0.107586
vt 0.317920 0.100636
vt 0.315169 0.086417
vt 0.317920 0.095065
vt 0.315169 0.095065
vt 0.317920 0.086417
vt 0.316623 0.087158
vt 0.318357 0.093215
vt 0.316624 0.095618
vt 0.320544 0.087127
vt 0.317534 0.097606
vt 0.326418 0.107955
vt 0.325817 0.105203
vt 0.326418 0.105203
vt 0.325817 0.107955
vt 0.327748 0.089895
vt 0.328349 0.087144
vt 0.328349 0.089895
vt 0.327748 0.087144
vt 0.319375 0.082871
vt 0.315169 0.081642
vt 0.317920 0.081642
vt 0.331913 0.096546
vt 0.334166 0.094568
vt 0.334166 0.099187
vt 0.330874 0.092761
vt 0.323728 0.105465
vt 0.326479 0.102024
vt 0.326479 0.105465
vt 0.323728 0.102024
vt 0.323728 0.098979
vt 0.326479 0.092493
vt 0.326479 0.098979
vt 0.323728 0.092493
vt 0.323728 0.111951
vt 0.326479 0.111951
vt 0.332043 0.088760
vt 0.334166 0.085864
vt 0.334166 0.092701
vt 0.328492 0.083634
vt 0.331415 0.105674
vt 0.334166 0.105674
vt 0.326989 0.084395
vt 0.327415 0.087146
vt 0.326989 0.087146
vt 0.327415 0.089897
vt 0.326922 0.107447
vt 0.327523 0.104696
vt 0.327523 0.107447
vt 0.326922 0.104696
vt 0.331415 0.079703
vt 0.334166 0.079703
vt 0.326479 0.086006
vt 0.323728 0.086006
vt 0.306039 0.122228
vt 0.306659 0.121462
vt 0.306659 0.122228
vt 0.309443 0.120363
vt 0.309078 0.126554
vt 0.308822 0.120363
vt 0.308527 0.132861
vt 0.309148 0.132182
vt 0.309148 0.132861
vt 0.309148 0.139107
vt 0.308527 0.139942
vt 0.308527 0.139107
vt 0.310001 0.129311
vt 0.316247 0.128545
vt 0.316668 0.129311
vt 0.311097 0.139107
vt 0.314339 0.135028
vt 0.315016 0.135604
vt 0.314336 0.135604
vt 0.317081 0.128545
vt 0.317081 0.129311
vt 0.309443 0.119528
vt 0.308822 0.119528
vt 0.317023 0.144493
vt 0.316609 0.143726
vt 0.317023 0.143726
vt 0.316668 0.130834
vt 0.317081 0.130834
vt 0.321471 0.129881
vt 0.323423 0.136128
vt 0.321471 0.136126
vt 0.297199 0.180690
vt 0.297290 0.183713
vt 0.297225 0.183713
vt 0.311097 0.139942
vt 0.309148 0.139942
vt 0.310398 0.136375
vt 0.312601 0.130183
vt 0.312601 0.136818
vt 0.316188 0.144493
vt 0.310001 0.143737
vt 0.310345 0.127642
vt 0.310580 0.121826
vt 0.310580 0.127544
vt 0.314339 0.120210
vt 0.315018 0.119623
vt 0.315018 0.120209
vt 0.321849 0.117578
vt 0.322470 0.116055
vt 0.322470 0.117578
vt 0.305779 0.137409
vt 0.306399 0.136643
vt 0.306399 0.137410
vt 0.306593 0.129638
vt 0.307706 0.120213
vt 0.307260 0.119627
vt 0.308095 0.119627
vt 0.314339 0.119624
vt 0.308093 0.135607
vt 0.307258 0.135607
vt 0.307706 0.135032
vt 0.307707 0.121809
vt 0.307260 0.120393
vt 0.309699 0.126554
vt 0.311718 0.120308
vt 0.311717 0.126554
vt 0.303834 0.136643
vt 0.305779 0.136643
vt 0.316675 0.125466
vt 0.314569 0.133098
vt 0.314574 0.124958
vt 0.306039 0.121462
vt 0.303843 0.122182
vt 0.303764 0.121425
vt 0.311097 0.132182
vt 0.311097 0.132861
vt 0.305779 0.135120
vt 0.303955 0.134929
vt 0.321726 0.128369
vt 0.322492 0.128990
vt 0.321726 0.128990
vt 0.322492 0.128369
vt 0.321906 0.126421
vt 0.322492 0.126421
vt 0.304200 0.114575
vt 0.304960 0.115203
vt 0.304194 0.115196
vt 0.304770 0.112641
vt 0.304966 0.114583
vt 0.310035 0.130183
vt 0.310656 0.129504
vt 0.310656 0.130183
vt 0.309078 0.127233
vt 0.309699 0.127233
vt 0.312601 0.129504
vt 0.321471 0.136806
vt 0.310001 0.144503
vt 0.309322 0.143737
vt 0.309322 0.128545
vt 0.310001 0.128545
vt 0.320850 0.136806
vt 0.320850 0.136127
vt 0.301289 0.197634
vt 0.301233 0.189437
vt 0.301822 0.189481
vt 0.316500 0.129670
vt 0.316500 0.131117
vt 0.310590 0.143378
vt 0.310590 0.129670
vt 0.301868 0.185489
vt 0.307107 0.184150
vt 0.307107 0.185550
vt 0.304317 0.132225
vt 0.304006 0.139004
vt 0.304073 0.132247
vt 0.310342 0.115870
vt 0.310572 0.121625
vt 0.310342 0.121731
vt 0.301289 0.185374
vt 0.301389 0.184150
vt 0.308855 0.120089
vt 0.309475 0.119323
vt 0.309475 0.120089
vt 0.318337 0.124550
vt 0.317716 0.130796
vt 0.317716 0.124550
vt 0.306354 0.130212
vt 0.306975 0.129532
vt 0.306975 0.130212
vt 0.306975 0.136458
vt 0.306354 0.137293
vt 0.306354 0.136458
vt 0.304306 0.131362
vt 0.310551 0.130596
vt 0.310973 0.131362
vt 0.308924 0.136458
vt 0.320734 0.147322
vt 0.321407 0.146715
vt 0.321413 0.147322
vt 0.311386 0.130596
vt 0.311386 0.131362
vt 0.318337 0.123715
vt 0.317716 0.123715
vt 0.311386 0.146554
vt 0.310973 0.145788
vt 0.311386 0.145788
vt 0.311077 0.135855
vt 0.311491 0.135855
vt 0.302085 0.130784
vt 0.304046 0.137031
vt 0.302085 0.137029
vt 0.304217 0.188110
vt 0.303300 0.191459
vt 0.303986 0.188126
vt 0.308924 0.137293
vt 0.306975 0.137293
vt 0.322327 0.139155
vt 0.324210 0.132909
vt 0.324088 0.139544
vt 0.310551 0.146554
vt 0.304306 0.145788
vt 0.317435 0.135398
vt 0.317670 0.129582
vt 0.317670 0.135300
vt 0.320734 0.131912
vt 0.321413 0.131326
vt 0.321413 0.131912
vt 0.296129 0.189118
vt 0.296267 0.184909
vt 0.296563 0.189118
vt 0.308855 0.135281
vt 0.309475 0.134515
vt 0.309475 0.135281
vt 0.308855 0.122488
vt 0.309475 0.122488
vt 0.314101 0.131912
vt 0.313656 0.131327
vt 0.314490 0.131327
vt 0.320734 0.131326
vt 0.314490 0.147322
vt 0.320728 0.146715
vt 0.313656 0.147322
vt 0.314099 0.146682
vt 0.314001 0.136521
vt 0.313660 0.132261
vt 0.319990 0.130795
vt 0.318337 0.130795
vt 0.307066 0.134349
vt 0.308855 0.134515
vt 0.319053 0.138607
vt 0.317121 0.136324
vt 0.319055 0.136208
vt 0.307205 0.119287
vt 0.308855 0.119322
vt 0.308924 0.129532
vt 0.308924 0.130212
vt 0.308848 0.130022
vt 0.306903 0.130021
vt 0.319990 0.124549
vt 0.314292 0.127174
vt 0.315059 0.127795
vt 0.314292 0.127795
vt 0.315059 0.127174
vt 0.314473 0.125217
vt 0.315059 0.125226
vt 0.305777 0.144581
vt 0.306534 0.145213
vt 0.305768 0.145202
vt 0.306543 0.144593
vt 0.305768 0.142928
vt 0.306374 0.142711
vt 0.321705 0.132909
vt 0.322327 0.132229
vt 0.322327 0.132909
vt 0.317716 0.131475
vt 0.318337 0.131475
vt 0.324210 0.132229
vt 0.304046 0.137710
vt 0.302085 0.137709
vt 0.304306 0.146554
vt 0.303627 0.145788
vt 0.303627 0.130596
vt 0.304306 0.130596
vt 0.301464 0.137709
vt 0.301464 0.137029
vt 0.304895 0.145429
vt 0.304506 0.143693
vt 0.305095 0.143453
vt 0.310805 0.131721
vt 0.310805 0.135965
vt 0.304895 0.131721
vt 0.297432 0.171562
vt 0.302676 0.167517
vt 0.302676 0.171623
vt 0.301459 0.133312
vt 0.301216 0.135370
vt 0.301216 0.133164
vt 0.312649 0.134993
vt 0.312884 0.140807
vt 0.312649 0.140904
vt 0.294918 0.184949
vt 0.294438 0.188905
vt 0.294745 0.184864
vt 0.309016 0.114409
vt 0.309636 0.113643
vt 0.309636 0.114410
vt 0.306578 0.133017
vt 0.305957 0.139262
vt 0.305957 0.133017
vt 0.309213 0.124793
vt 0.309834 0.124113
vt 0.309834 0.124793
vt 0.309834 0.131039
vt 0.309213 0.131874
vt 0.309213 0.131039
vt 0.304734 0.117010
vt 0.310979 0.116244
vt 0.311401 0.117010
vt 0.311783 0.131039
vt 0.309825 0.132989
vt 0.310504 0.133574
vt 0.309825 0.133574
vt 0.311814 0.116244
vt 0.311814 0.117010
vt 0.306578 0.132182
vt 0.305957 0.132182
vt 0.311814 0.132203
vt 0.311401 0.131437
vt 0.311814 0.131437
vt 0.311505 0.120682
vt 0.311919 0.120682
vt 0.307700 0.133066
vt 0.309736 0.139305
vt 0.307784 0.139303
vt 0.319766 0.141814
vt 0.319499 0.147269
vt 0.319499 0.141765
vt 0.311783 0.131874
vt 0.309834 0.131874
vt 0.310583 0.139332
vt 0.312536 0.133086
vt 0.312536 0.139721
vt 0.310979 0.132203
vt 0.304734 0.131436
vt 0.317435 0.135398
vt 0.317670 0.141211
vt 0.317435 0.141309
vt 0.309825 0.118205
vt 0.310504 0.117619
vt 0.310504 0.118205
vt 0.297331 0.173894
vt 0.297934 0.170312
vt 0.297952 0.173894
vt 0.309636 0.129602
vt 0.309100 0.128835
vt 0.309636 0.128836
vt 0.309634 0.116597
vt 0.303192 0.118208
vt 0.302747 0.117623
vt 0.303581 0.117622
vt 0.309825 0.117619
vt 0.303581 0.133578
vt 0.302747 0.133578
vt 0.303192 0.132992
vt 0.303079 0.122202
vt 0.302747 0.118389
vt 0.308527 0.139262
vt 0.306578 0.139262
vt 0.309016 0.129602
vt 0.307070 0.128835
vt 0.316286 0.126106
vt 0.314579 0.128429
vt 0.314586 0.125123
vt 0.307070 0.113643
vt 0.309016 0.113643
vt 0.311783 0.124113
vt 0.311783 0.124793
vt 0.307262 0.125112
vt 0.309009 0.125164
vt 0.308527 0.133016
vt 0.321726 0.130938
vt 0.322492 0.131559
vt 0.321726 0.131559
vt 0.322492 0.130938
vt 0.321906 0.128990
vt 0.322492 0.128990
vt 0.303060 0.142675
vt 0.303826 0.143296
vt 0.303060 0.143296
vt 0.303646 0.140727
vt 0.303826 0.142675
vt 0.309962 0.133086
vt 0.310583 0.132406
vt 0.310583 0.133086
vt 0.305957 0.139942
vt 0.306578 0.139942
vt 0.312536 0.132407
vt 0.309736 0.139984
vt 0.307784 0.139983
vt 0.304734 0.132202
vt 0.304055 0.131436
vt 0.304055 0.116244
vt 0.304734 0.116244
vt 0.307163 0.139983
vt 0.307163 0.139303
vt 0.296022 0.185334
vt 0.295530 0.183488
vt 0.296119 0.183238
vt 0.311233 0.117370
vt 0.311338 0.120860
vt 0.305323 0.131077
vt 0.305323 0.117370
vt 0.314098 0.183533
vt 0.319338 0.180243
vt 0.319442 0.183620
vt 0.310031 0.140214
vt 0.309787 0.142070
vt 0.309788 0.140059
vt 0.320307 0.138974
vt 0.320542 0.133159
vt 0.320542 0.138877
vt 0.305315 0.182612
vt 0.305101 0.185790
vt 0.305070 0.182501
vt 0.303409 0.115204
vt 0.304029 0.114438
vt 0.304029 0.115204
vt 0.311931 0.123431
vt 0.312340 0.126648
vt 0.311719 0.126648
vt 0.304644 0.123065
vt 0.305265 0.122386
vt 0.305265 0.123065
vt 0.305265 0.129311
vt 0.304644 0.130146
vt 0.304644 0.129311
vt 0.311025 0.125477
vt 0.314145 0.124698
vt 0.314359 0.125463
vt 0.307214 0.126188
vt 0.305265 0.126188
vt 0.307844 0.133820
vt 0.308523 0.134405
vt 0.307844 0.134406
vt 0.317692 0.125449
vt 0.318102 0.124681
vt 0.318105 0.125447
vt 0.304644 0.126188
vt 0.312552 0.119474
vt 0.311931 0.120308
vt 0.311931 0.119474
vt 0.318169 0.140639
vt 0.317753 0.139875
vt 0.318166 0.139873
vt 0.317835 0.131315
vt 0.318249 0.131313
vt 0.312330 0.133467
vt 0.314124 0.136446
vt 0.312464 0.136641
vt 0.314328 0.175555
vt 0.314260 0.177091
vt 0.314260 0.175052
vt 0.307214 0.130146
vt 0.305265 0.130146
vt 0.302691 0.126282
vt 0.304644 0.123159
vt 0.304644 0.126476
vt 0.314212 0.140656
vt 0.311094 0.139950
vt 0.314419 0.139889
vt 0.317435 0.126532
vt 0.317670 0.123671
vt 0.317670 0.126530
vt 0.307929 0.119111
vt 0.308523 0.118450
vt 0.308735 0.118983
vt 0.293779 0.178619
vt 0.292975 0.172711
vt 0.293596 0.172714
vt 0.303409 0.130396
vt 0.304029 0.129630
vt 0.304029 0.130396
vt 0.303409 0.117747
vt 0.304029 0.117747
vt 0.301211 0.119039
vt 0.300765 0.118454
vt 0.301600 0.118453
vt 0.304661 0.119072
vt 0.304722 0.118452
vt 0.301600 0.134409
vt 0.304527 0.133821
vt 0.304722 0.134407
vt 0.300765 0.134409
vt 0.301211 0.133823
vt 0.301218 0.125458
vt 0.300874 0.119640
vt 0.312552 0.120308
vt 0.314501 0.123431
vt 0.312552 0.123431
vt 0.303296 0.129601
vt 0.301464 0.130395
vt 0.301891 0.129216
vt 0.320561 0.132885
vt 0.318903 0.130506
vt 0.320561 0.130342
vt 0.301464 0.114437
vt 0.303409 0.114437
vt 0.307214 0.122386
vt 0.307214 0.123065
vt 0.303137 0.123763
vt 0.301814 0.123349
vt 0.314501 0.120308
vt 0.313975 0.143100
vt 0.314415 0.142466
vt 0.314415 0.143087
vt 0.313889 0.140939
vt 0.314415 0.140518
vt 0.318607 0.120201
vt 0.319373 0.120822
vt 0.318607 0.120822
vt 0.319225 0.118045
vt 0.319373 0.120201
vt 0.302078 0.123166
vt 0.302480 0.122386
vt 0.302480 0.123065
vt 0.311719 0.127327
vt 0.314501 0.127233
vt 0.312340 0.127327
vt 0.304644 0.122479
vt 0.312703 0.139755
vt 0.314290 0.140518
vt 0.312741 0.140444
vt 0.310993 0.140701
vt 0.310310 0.139938
vt 0.311022 0.124711
vt 0.310310 0.125153
vt 0.310343 0.124714
vt 0.312083 0.139803
vt 0.312129 0.140518
vt 0.302372 0.193798
vt 0.302006 0.191860
vt 0.302593 0.191625
vt 0.317526 0.125809
vt 0.317668 0.131379
vt 0.314629 0.139529
vt 0.311616 0.125834
vt 0.314571 0.125821
vt 0.310681 0.185679
vt 0.307783 0.180242
vt 0.310642 0.180242
vt 0.309811 0.137076
vt 0.309567 0.139270
vt 0.309567 0.136932
vt 0.307602 0.137901
vt 0.307837 0.135042
vt 0.307837 0.137901
vt 0.302708 0.192954
vt 0.302198 0.198335
vt 0.302592 0.192934
vt 0.302445 0.187025
vt 0.302304 0.185074
vt 0.302552 0.184852
vt 0.309550 0.131355
vt 0.309306 0.131395
vt 0.310643 0.193504
vt 0.308014 0.191410
vt 0.310643 0.191166
vt 0.317584 0.139516
vt 0.317742 0.137331
vt 0.301640 0.185638
vt 0.302229 0.185699
vt 0.301564 0.117746
vt 0.301464 0.115203
vt 0.318878 0.124692
vt 0.320300 0.124325
vt 0.300765 0.133643
vt 0.301218 0.131272
vt 0.303757 0.123763
vt 0.302416 0.132912
vt 0.302774 0.130582
vt 0.302822 0.132930
vt 0.305962 0.133940
vt 0.305950 0.131114
vt 0.306016 0.131113
vt 0.318155 0.137330
vt 0.305094 0.174557
vt 0.305340 0.174402
vt 0.310035 0.132075
vt 0.309787 0.128809
vt 0.310031 0.128585
vt 0.319359 0.191493
vt 0.311254 0.128999
vt 0.311422 0.129249
vt 0.296022 0.171626
vt 0.295912 0.174852
vt 0.295433 0.171267
vt 0.307083 0.117696
vt 0.308786 0.116549
vt 0.316595 0.113825
vt 0.314782 0.117633
vt 0.314579 0.113643
vt 0.302805 0.129525
vt 0.303247 0.129686
vt 0.309629 0.125164
vt 0.297937 0.182532
vt 0.323629 0.120789
vt 0.323564 0.115301
vt 0.323629 0.115295
vt 0.311835 0.129249
vt 0.294744 0.177398
vt 0.294523 0.175644
vt 0.294770 0.175422
vt 0.294684 0.180249
vt 0.294498 0.177546
vt 0.301464 0.128786
vt 0.301216 0.126215
vt 0.301459 0.126129
vt 0.301220 0.128786
vt 0.302676 0.180778
vt 0.297158 0.178877
vt 0.302676 0.178572
vt 0.298205 0.176178
vt 0.302789 0.174195
vt 0.310805 0.145429
vt 0.310973 0.143389
vt 0.310805 0.143149
vt 0.311086 0.138623
vt 0.296069 0.190162
vt 0.296194 0.194182
vt 0.295393 0.189830
vt 0.295794 0.197710
vt 0.296840 0.194863
vt 0.306979 0.120071
vt 0.307154 0.126783
vt 0.306910 0.122487
vt 0.319063 0.131442
vt 0.317365 0.128601
vt 0.319060 0.128648
vt 0.317476 0.132030
vt 0.313650 0.146535
vt 0.314095 0.144237
vt 0.313649 0.144117
vt 0.313993 0.139951
vt 0.309468 0.127254
vt 0.309468 0.130022
vt 0.308848 0.127253
vt 0.304947 0.145077
vt 0.305576 0.142982
vt 0.305568 0.145078
vt 0.296274 0.197239
vt 0.295799 0.193466
vt 0.296374 0.193466
vt 0.311741 0.124492
vt 0.311581 0.132719
vt 0.311516 0.132719
vt 0.307730 0.144261
vt 0.307665 0.141488
vt 0.307730 0.141488
vt 0.311386 0.143389
vt 0.311499 0.138623
vt 0.319063 0.124181
vt 0.317121 0.123997
vt 0.295594 0.185978
vt 0.295005 0.185618
vt 0.301216 0.122108
vt 0.301459 0.121885
vt 0.294438 0.180248
vt 0.310918 0.138623
vt 0.313545 0.139827
vt 0.321415 0.130544
vt 0.321354 0.134800
vt 0.321354 0.129914
vt 0.301100 0.173372
vt 0.301344 0.181302
vt 0.301100 0.181527
vt 0.301922 0.189508
vt 0.304253 0.126979
vt 0.304036 0.125751
vt 0.304284 0.125533
vt 0.304006 0.127150
vt 0.301389 0.197411
vt 0.306930 0.190643
vt 0.307048 0.197401
vt 0.316442 0.143367
vt 0.316491 0.136316
vt 0.316324 0.136360
vt 0.310001 0.130834
vt 0.300700 0.185090
vt 0.305973 0.129638
vt 0.303947 0.129815
vt 0.316503 0.118460
vt 0.314603 0.119872
vt 0.314569 0.118277
vt 0.316502 0.119983
vt 0.307263 0.127222
vt 0.307706 0.126893
vt 0.307264 0.122110
vt 0.306399 0.135121
vt 0.312548 0.184738
vt 0.313162 0.176179
vt 0.313168 0.184738
vt 0.312548 0.171835
vt 0.313168 0.171835
vt 0.297225 0.170312
vt 0.297285 0.172423
vt 0.297219 0.172423
vt 0.329367 0.142065
vt 0.329171 0.136049
vt 0.329433 0.142065
vt 0.316905 0.136316
vt 0.318627 0.118277
vt 0.320453 0.118487
vt 0.302314 0.180090
vt 0.301724 0.179734
vt 0.309567 0.126009
vt 0.309811 0.125785
vt 0.302198 0.187168
vt 0.307611 0.185646
vt 0.317573 0.137100
vt 0.300768 0.131102
vt 0.293472 0.184839
vt 0.293224 0.179241
vt 0.314311 0.198556
vt 0.314225 0.202688
vt 0.314225 0.198296
vt 0.329433 0.144096
vt 0.329368 0.144096
vt 0.313501 0.191166
vt 0.313620 0.185629
vt 0.315550 0.173422
vt 0.315752 0.179033
vt 0.315485 0.173422
vt 0.313501 0.193504
vt 0.307837 0.140760
vt 0.307602 0.140856
vt 0.313501 0.180242
vt 0.311674 0.139541
vt 0.314501 0.126554
vt 0.307844 0.118450
vt 0.317670 0.129389
vt 0.317435 0.129488
vt 0.317335 0.140643
vt 0.302691 0.129405
vt 0.304644 0.129794
vt 0.303110 0.112908
vt 0.303045 0.118450
vt 0.303045 0.112904
vt 0.314465 0.139701
vt 0.307214 0.129311
vt 0.317267 0.124684
vt 0.321947 0.118962
vt 0.322302 0.119972
vt 0.321948 0.120003
vt 0.316403 0.118965
vt 0.316058 0.119975
vt 0.316058 0.118453
vt 0.316427 0.132471
vt 0.322302 0.132873
vt 0.316120 0.132870
vt 0.322302 0.118450
vt 0.313709 0.176522
vt 0.313729 0.180230
vt 0.313387 0.180188
vt 0.317508 0.122257
vt 0.317165 0.126224
vt 0.317165 0.121757
vt 0.323003 0.135665
vt 0.317165 0.136181
vt 0.317510 0.135668
vt 0.323010 0.122265
vt 0.323409 0.121754
vt 0.312803 0.168791
vt 0.312754 0.171863
vt 0.312415 0.171815
vt 0.316646 0.114539
vt 0.316290 0.117670
vt 0.316301 0.114027
vt 0.322157 0.127933
vt 0.316290 0.128449
vt 0.316635 0.127936
vt 0.322105 0.114535
vt 0.322534 0.114022
vt 0.304830 0.176956
vt 0.305457 0.182975
vt 0.305103 0.182957
vt 0.308531 0.122725
vt 0.308117 0.128047
vt 0.308187 0.122213
vt 0.314076 0.136097
vt 0.311356 0.136610
vt 0.311352 0.136097
vt 0.314131 0.122699
vt 0.311364 0.122186
vt 0.314486 0.122186
vt 0.304775 0.190354
vt 0.305011 0.188533
vt 0.305276 0.190902
vt 0.308580 0.136097
vt 0.308236 0.134067
vt 0.308581 0.134067
vt 0.312766 0.180080
vt 0.313135 0.180497
vt 0.316263 0.126300
vt 0.316608 0.125892
vt 0.323209 0.134083
vt 0.323409 0.136178
vt 0.313560 0.188377
vt 0.312922 0.184576
vt 0.313908 0.188340
vt 0.317165 0.133782
vt 0.317510 0.133769
vt 0.317388 0.129027
vt 0.317052 0.129018
vt 0.312620 0.184561
vt 0.317512 0.126245
vt 0.312654 0.186612
vt 0.312467 0.178575
vt 0.313001 0.187130
vt 0.312646 0.174260
vt 0.312135 0.178574
vt 0.316237 0.125460
vt 0.316571 0.125459
vt 0.316403 0.119975
vt 0.304663 0.188564
vt 0.308462 0.128047
vt 0.308235 0.136610
vt 0.311359 0.122699
vt 0.307198 0.174785
vt 0.312644 0.173240
vt 0.312739 0.174794
vt 0.313403 0.180637
vt 0.308159 0.176248
vt 0.313661 0.176257
vt 0.311161 0.174944
vt 0.306092 0.171920
vt 0.311551 0.171920
vt 0.312397 0.172826
vt 0.309613 0.167450
vt 0.312440 0.167424
vt 0.309661 0.180823
vt 0.312434 0.178792
vt 0.312433 0.180823
vt 0.306045 0.183273
vt 0.311505 0.183208
vt 0.308205 0.189915
vt 0.313653 0.187874
vt 0.313697 0.189912
vt 0.308325 0.187409
vt 0.312851 0.184569
vt 0.308308 0.183527
vt 0.312864 0.186394
vt 0.307503 0.179907
vt 0.312369 0.178716
vt 0.309662 0.178792
vt 0.315485 0.173426
vt 0.315045 0.179033
vt 0.315157 0.180823
vt 0.315212 0.167424
vt 0.316831 0.121887
vt 0.316896 0.123776
vt 0.316831 0.123787
vt 0.311823 0.121359
vt 0.311806 0.124492
vt 0.317627 0.133152
vt 0.316896 0.121269
vt 0.316831 0.115746
vt 0.316896 0.115746
vt 0.303300 0.184209
vt 0.303300 0.183761
vt 0.305472 0.131207
vt 0.305537 0.125744
vt 0.305537 0.131208
vt 0.317546 0.126876
vt 0.317610 0.129270
vt 0.315790 0.167424
vt 0.315855 0.167424
vt 0.306154 0.180752
vt 0.305510 0.188579
vt 0.305922 0.180896
vt 0.329258 0.130723
vt 0.329105 0.136049
vt 0.294995 0.194530
vt 0.294929 0.193509
vt 0.294994 0.193489
vt 0.305510 0.176977
vt 0.305596 0.176443
vt 0.307665 0.138763
vt 0.307730 0.138763
vt 0.305559 0.117354
vt 0.305494 0.118345
vt 0.305500 0.116803
vt 0.316638 0.132253
vt 0.306016 0.136713
vt 0.305896 0.133942
vt 0.321955 0.132355
vt 0.322166 0.132137
vt 0.316499 0.120528
vt 0.316804 0.125650
vt 0.315818 0.179033
vt 0.315796 0.180825
vt 0.306071 0.185317
vt 0.311593 0.185319
vt 0.316635 0.117670
vt 0.312856 0.182190
vt 0.313233 0.182702
vt 0.297264 0.180690
vt 0.311743 0.134760
vt 0.311808 0.134760
vt 0.306614 0.130481
vt 0.307239 0.128275
vt 0.307235 0.130481
vt 0.302747 0.132812
vt 0.307070 0.114409
vt 0.311233 0.131077
vt 0.319338 0.193504
vt 0.313717 0.191475
vt 0.305101 0.172529
vt 0.305346 0.172305
vt 0.309791 0.132186
vt 0.296500 0.175029
vt 0.316512 0.117471
vt 0.326907 0.088082
vt 0.323422 0.081642
vt 0.317991 0.082206
vt 0.322126 0.082871
vt 0.327748 0.081642
vt 0.325817 0.113457
vt 0.318226 0.086006
vt 0.333253 0.091441
vt 0.326922 0.099193
vt 0.325913 0.096097
vt 0.313349 0.111271
vt 0.313349 0.098299
vt 0.316624 0.082871
vt 0.327415 0.084395
vt 0.308527 0.132182
vt 0.315018 0.135028
vt 0.323423 0.129493
vt 0.310345 0.121731
vt 0.321849 0.116055
vt 0.307260 0.134852
vt 0.303834 0.137409
vt 0.316749 0.132876
vt 0.311719 0.119473
vt 0.304194 0.112557
vt 0.310035 0.129504
vt 0.311717 0.127233
vt 0.323423 0.136807
vt 0.309322 0.144503
vt 0.309322 0.129311
vt 0.300700 0.197994
vt 0.304245 0.139232
vt 0.310580 0.115955
vt 0.301289 0.183927
vt 0.306354 0.129532
vt 0.304046 0.130396
vt 0.303410 0.191960
vt 0.295646 0.184908
vt 0.313549 0.136585
vt 0.306910 0.135280
vt 0.317311 0.138766
vt 0.319990 0.123714
vt 0.321705 0.132229
vt 0.319990 0.131474
vt 0.303627 0.146554
vt 0.303627 0.131362
vt 0.296958 0.167516
vt 0.301459 0.135592
vt 0.312884 0.135089
vt 0.294682 0.189130
vt 0.309213 0.124113
vt 0.310504 0.132988
vt 0.309736 0.132670
vt 0.319766 0.147317
vt 0.317670 0.135492
vt 0.297313 0.170312
vt 0.302648 0.122116
vt 0.307070 0.129601
vt 0.316512 0.128251
vt 0.303060 0.140727
vt 0.309962 0.132406
vt 0.308527 0.139942
vt 0.304055 0.132202
vt 0.304055 0.117010
vt 0.295433 0.185693
vt 0.313620 0.180242
vt 0.310031 0.142293
vt 0.320307 0.133063
vt 0.305346 0.186013
vt 0.304644 0.122386
vt 0.308523 0.133819
vt 0.314142 0.132992
vt 0.314325 0.177102
vt 0.317435 0.123577
vt 0.300775 0.125505
vt 0.318627 0.133063
vt 0.314501 0.119473
vt 0.313689 0.142480
vt 0.318639 0.118045
vt 0.301859 0.122386
vt 0.310313 0.140704
vt 0.301793 0.194207
vt 0.309811 0.139493
vt 0.307602 0.134946
vt 0.302442 0.198560
vt 0.307784 0.193504
vt 0.302277 0.130544
vt 0.297317 0.182532
vt 0.323564 0.120795
vt 0.296958 0.180778
vt 0.295205 0.197950
vt 0.304955 0.142982
vt 0.295654 0.197239
vt 0.307665 0.144261
vt 0.321420 0.134533
vt 0.301346 0.173397
vt 0.310590 0.131117
vt 0.312542 0.176179
vt 0.297290 0.170312
vt 0.292975 0.184801
vt 0.314225 0.202238
vt 0.303110 0.118454
vt 0.314108 0.176011
vt 0.313233 0.168279
vt 0.322534 0.128445
vt 0.305184 0.176443
vt 0.314578 0.136645
vt 0.322861 0.134120
vt 0.313001 0.174229
vt 0.307100 0.173243
vt 0.308244 0.181133
vt 0.306079 0.175051
vt 0.309544 0.172772
vt 0.307337 0.186510
vt 0.316887 0.121269
vt 0.311889 0.121359
vt 0.316831 0.121269
vt 0.305472 0.125743
vt 0.305723 0.188796
vt 0.329323 0.130723
vt 0.294929 0.195063
vt 0.305559 0.118365
vt 0.305950 0.136714
vt 0.315862 0.180825
vt 0.306618 0.128275
vt 0.313620 0.193504
s 0
usemtl Material
f 2/1/1 19/2/1 18/3/1
f 48/4/2 21/5/2 60/6/2
f 8/7/3 23/8/3 21/9/3
f 56/10/4 2/11/4 18/12/4
f 45/13/5 5/14/5 50/15/5
f 4/16/6 52/17/6 47/18/6
f 27/19/1 12/20/1 10/21/1
f 31/22/7 68/23/7 83/24/7
f 34/25/3 16/26/3 31/27/3
f 77/28/8 10/29/8 72/30/8
f 70/31/5 15/32/5 65/33/5
f 67/34/9 10/35/9 12/36/9
f 54/37/10 40/38/10 64/39/10
f 54/37/11 18/12/11 17/40/11
f 22/41/3 39/42/3 38/43/3
f 21/9/3 24/44/3 22/41/3
f 58/45/2 38/46/2 62/47/2
f 60/6/2 22/48/2 58/45/2
f 40/49/1 20/50/1 37/51/1
f 18/3/1 20/50/1 17/52/1
f 9/53/2 73/54/2 69/55/2
f 87/56/12 26/57/12 75/58/12
f 75/58/13 27/59/13 77/28/13
f 13/60/3 33/61/3 15/62/3
f 44/63/3 32/64/3 43/65/3
f 35/66/3 31/27/3 32/64/3
f 15/67/7 79/68/7 65/69/7
f 43/70/7 81/71/7 85/72/7
f 32/73/7 83/24/7 81/71/7
f 9/74/1 30/75/1 25/76/1
f 42/77/1 26/78/1 41/79/1
f 26/78/1 28/80/1 27/19/1
f 1/81/1 37/51/1 3/82/1
f 62/47/2 7/83/2 45/84/2
f 7/85/3 39/42/3 5/86/3
f 64/39/14 1/87/14 49/88/14
f 30/75/1 41/79/1 25/76/1
f 33/89/7 85/72/7 79/68/7
f 36/90/3 43/65/3 33/61/3
f 25/91/15 87/56/15 73/54/15
f 39/92/16 50/93/16 5/94/16
f 50/93/14 64/39/14 49/88/14
f 37/95/2 46/96/2 3/97/2
f 61/98/2 45/84/2 46/96/2
f 19/99/2 57/100/2 20/101/2
f 59/102/2 58/45/2 57/100/2
f 20/101/2 61/98/2 37/95/2
f 57/100/2 62/47/2 61/98/2
f 23/103/17 53/104/17 24/105/17
f 55/106/18 54/37/18 53/104/18
f 24/105/19 63/107/19 39/92/19
f 63/107/20 54/37/20 64/39/20
f 48/108/6 6/109/6 8/110/6
f 47/18/6 51/111/6 48/108/6
f 3/112/5 49/113/5 1/114/5
f 46/115/5 50/15/5 49/113/5
f 23/103/21 51/116/21 55/106/21
f 51/116/22 56/10/22 55/106/22
f 4/117/2 59/102/2 19/99/2
f 47/118/2 60/6/2 59/102/2
f 74/119/23 44/120/23 36/121/23
f 74/119/24 87/56/24 88/122/24
f 80/123/7 42/124/7 30/125/7
f 79/68/7 86/126/7 80/123/7
f 82/127/7 28/128/7 29/129/7
f 81/71/7 84/130/7 82/127/7
f 86/126/7 29/129/7 42/124/7
f 85/72/7 82/127/7 86/126/7
f 66/131/7 30/125/7 11/132/7
f 65/69/7 80/123/7 66/131/7
f 76/133/25 34/134/25 35/135/25
f 75/58/26 78/136/26 76/133/26
f 88/122/27 35/135/27 44/120/27
f 88/122/28 75/58/28 76/133/28
f 70/137/2 36/121/2 13/138/2
f 70/137/2 73/54/2 74/119/2
f 16/139/9 71/140/9 68/141/9
f 68/141/9 72/142/9 67/34/9
f 9/143/5 66/144/5 11/145/5
f 69/146/5 65/33/5 66/144/5
f 34/134/2 71/147/2 14/148/2
f 78/136/29 72/30/29 71/147/29
f 84/130/7 12/149/7 28/128/7
f 83/24/7 67/150/7 84/130/7
f 104/151/1 91/152/1 101/153/1
f 98/154/30 95/155/30 97/156/30
f 93/157/7 129/158/7 94/159/7
f 100/160/7 89/161/7 99/162/7
f 137/163/5 99/164/5 140/165/5
f 94/159/7 119/166/7 100/160/7
f 123/167/31 136/168/31 116/169/31
f 140/165/5 89/170/5 102/171/5
f 94/159/7 99/162/7 93/157/7
f 92/172/2 97/156/2 91/173/2
f 91/174/5 139/175/5 101/176/5
f 384/177/5 102/171/5 374/178/5
f 430/179/32 117/180/32 428/181/32
f 328/182/33 489/183/33 220/184/33
f 100/160/7 120/185/7 90/186/7
f 431/187/34 123/188/34 124/189/34
f 97/190/35 138/191/35 139/175/35
f 105/192/36 144/193/36 141/194/36
f 117/195/6 135/196/6 134/197/6
f 427/198/3 137/199/3 377/200/3
f 90/201/1 102/202/1 89/203/1
f 373/204/37 104/151/37 101/153/37
f 121/205/6 120/206/6 119/207/6
f 117/195/6 119/207/6 118/208/6
f 115/209/31 123/167/31 116/169/31
f 114/210/31 124/211/31 115/209/31
f 388/212/38 122/213/38 121/205/38
f 96/214/39 115/215/39 116/216/39
f 90/201/1 122/217/1 103/218/1
f 460/219/40 124/220/40 387/221/40
f 92/222/41 113/223/41 114/224/41
f 94/159/7 135/225/7 118/226/7
f 375/227/1 122/217/1 385/228/1
f 92/172/42 115/215/42 98/154/42
f 128/229/3 130/230/3 131/231/3
f 129/232/3 134/233/3 135/234/3
f 125/235/3 127/236/3 126/237/3
f 125/235/3 133/238/3 132/239/3
f 138/240/7 132/241/7 432/242/7
f 96/214/2 126/243/2 95/155/2
f 116/216/39 125/244/39 96/214/39
f 432/242/43 133/245/43 123/188/43
f 117/180/32 128/246/32 428/181/32
f 95/247/5 127/248/5 138/191/5
f 137/163/5 130/249/5 93/250/5
f 428/181/2 131/251/2 137/252/2
f 106/253/44 378/254/44 390/255/44
f 112/256/5 384/177/5 392/257/5
f 106/258/45 139/175/45 138/191/45
f 105/259/5 140/165/5 112/256/5
f 393/260/5 144/261/5 396/262/5
f 391/263/46 143/264/46 395/265/46
f 106/266/47 143/267/47 111/268/47
f 389/269/48 141/270/48 393/260/48
f 160/271/1 147/272/1 157/273/1
f 154/274/2 151/275/2 153/276/2
f 149/277/7 185/278/7 150/279/7
f 156/280/7 145/281/7 155/282/7
f 193/283/5 155/284/5 196/285/5
f 150/279/7 175/286/7 156/280/7
f 172/287/49 189/288/49 192/289/49
f 196/285/5 145/290/5 158/291/5
f 150/279/7 155/282/7 149/277/7
f 148/292/2 153/276/2 147/293/2
f 147/294/5 195/295/5 157/296/5
f 364/297/5 158/291/5 361/298/5
f 436/299/50 173/300/50 434/301/50
f 344/302/51 466/303/51 468/304/51
f 156/280/7 176/305/7 146/306/7
f 437/307/52 179/308/52 180/309/52
f 153/310/5 194/311/5 195/295/5
f 161/312/36 200/313/36 197/314/36
f 173/315/53 191/316/53 190/317/53
f 433/318/54 193/319/54 369/320/54
f 146/321/1 158/322/1 145/323/1
f 340/324/1 157/273/1 337/325/1
f 177/326/53 176/327/53 175/328/53
f 173/315/53 175/328/53 174/329/53
f 171/330/49 179/331/49 172/287/49
f 170/332/55 180/333/55 171/330/55
f 365/334/56 178/335/56 177/326/56
f 154/274/57 172/336/57 152/337/57
f 146/321/1 178/338/1 159/339/1
f 437/340/58 351/341/58 457/342/58
f 160/271/1 170/343/1 148/344/1
f 150/279/7 191/345/7 174/346/7
f 368/347/59 178/338/59 370/348/59
f 148/292/57 171/349/57 154/274/57
f 184/350/3 186/351/3 187/352/3
f 185/353/3 190/354/3 191/355/3
f 181/356/3 183/357/3 182/358/3
f 188/359/3 192/360/3 189/361/3
f 194/362/7 188/363/7 438/364/7
f 152/337/2 182/365/2 151/275/2
f 172/336/57 181/366/57 152/337/57
f 438/364/60 189/367/60 179/308/60
f 434/301/50 190/368/50 184/369/50
f 151/370/5 183/371/5 194/311/5
f 193/283/5 186/372/5 149/373/5
f 434/301/2 187/374/2 193/375/2
f 162/376/5 342/377/5 354/378/5
f 168/379/5 364/297/5 366/380/5
f 162/376/5 195/295/5 194/311/5
f 161/381/5 196/285/5 168/379/5
f 372/382/61 200/383/61 367/384/61
f 355/385/62 199/386/62 359/387/62
f 162/388/63 199/389/63 167/390/63
f 371/391/64 197/392/64 372/393/64
f 216/394/1 203/395/1 213/396/1
f 210/397/2 207/398/2 209/399/2
f 205/400/7 241/401/7 206/402/7
f 212/403/7 201/404/7 211/405/7
f 249/406/5 211/407/5 252/408/5
f 206/402/7 231/409/7 212/403/7
f 235/410/6 248/411/6 228/412/6
f 252/408/5 201/413/5 214/414/5
f 206/402/7 211/405/7 205/400/7
f 204/415/2 209/399/2 203/416/2
f 203/417/5 251/418/5 213/419/5
f 330/420/5 214/414/5 325/421/5
f 442/422/65 229/423/65 440/424/65
f 166/425/66 485/426/66 486/427/66
f 212/403/7 232/428/7 202/429/7
f 443/430/67 235/431/67 236/432/67
f 209/433/5 250/434/5 251/418/5
f 224/435/36 253/436/36 217/437/36
f 229/438/6 247/439/6 246/440/6
f 439/441/68 249/442/68 327/443/68
f 201/444/69 215/445/69 214/446/69
f 502/447/70 216/394/70 213/396/70
f 233/448/6 232/449/6 231/450/6
f 229/438/6 231/450/6 230/451/6
f 227/452/6 235/410/6 228/412/6
f 226/453/6 236/454/6 227/452/6
f 332/455/71 234/456/71 233/448/71
f 210/397/2 228/457/2 208/458/2
f 202/459/72 234/460/72 215/445/72
f 504/461/73 236/462/73 506/463/73
f 216/394/1 226/464/1 204/465/1
f 206/402/7 247/466/7 230/467/7
f 215/445/74 331/468/74 326/469/74
f 204/415/2 227/470/2 210/397/2
f 240/471/3 242/472/3 243/473/3
f 241/474/3 246/475/3 247/476/3
f 237/477/3 239/478/3 238/479/3
f 237/477/3 245/480/3 244/481/3
f 250/482/7 244/483/7 444/484/7
f 208/458/2 238/485/2 207/398/2
f 228/457/2 237/486/2 208/458/2
f 444/484/67 245/487/67 235/431/67
f 440/424/32 246/488/32 240/489/32
f 207/490/5 239/491/5 250/434/5
f 249/406/5 242/492/5 205/493/5
f 440/424/2 243/494/2 249/495/2
f 218/496/5 498/497/5 500/498/5
f 224/499/5 330/420/5 334/500/5
f 218/501/5 251/418/5 250/434/5
f 217/502/5 252/408/5 224/499/5
f 335/503/5 256/504/5 336/505/5
f 507/506/75 255/507/75 508/508/75
f 223/509/63 254/510/63 255/511/63
f 333/512/76 253/513/76 335/514/76
f 272/515/1 259/516/1 269/517/1
f 411/518/77 264/519/77 263/520/77
f 261/521/7 297/522/7 262/523/7
f 268/524/7 257/525/7 267/526/7
f 305/527/5 410/528/5 416/529/5
f 262/523/7 418/530/7 412/531/7
f 291/532/6 304/533/6 284/534/6
f 308/535/5 257/536/5 270/537/5
f 412/531/7 267/526/7 410/538/7
f 260/539/2 265/540/2 259/541/2
f 259/542/5 307/543/5 269/544/5
f 400/545/78 270/537/78 397/546/78
f 448/547/79 420/548/79 451/549/79
f 343/550/80 488/551/80 466/552/80
f 268/524/7 288/553/7 258/554/7
f 449/555/67 291/556/67 419/557/67
f 411/558/81 306/559/81 415/560/81
f 422/561/36 312/562/36 424/563/36
f 285/564/82 303/565/82 302/566/82
f 405/567/83 446/568/83 305/569/83
f 258/570/1 270/571/1 257/572/1
f 314/573/1 269/517/1 313/574/1
f 289/575/6 288/576/6 287/577/6
f 420/578/84 287/577/84 418/579/84
f 283/580/6 419/581/6 417/582/6
f 282/583/6 292/584/6 283/580/6
f 401/585/85 290/586/85 289/575/85
f 266/587/2 417/588/2 409/589/2
f 271/590/86 288/591/86 290/592/86
f 453/593/87 320/594/87 454/595/87
f 272/515/1 282/596/1 260/597/1
f 262/523/7 303/598/7 286/599/7
f 404/600/88 290/592/88 406/601/88
f 260/539/2 283/602/2 266/587/2
f 299/603/89 297/604/89 298/605/89
f 297/604/90 302/606/90 303/607/90
f 293/608/3 295/609/3 294/610/3
f 293/608/91 301/611/91 300/612/91
f 306/613/92 300/614/92 450/615/92
f 264/519/2 294/616/2 263/520/2
f 264/519/93 304/617/93 293/618/93
f 450/615/94 301/619/94 291/556/94
f 446/620/95 302/621/95 296/622/95
f 263/623/96 295/624/96 306/559/96
f 261/625/97 299/626/97 298/627/97
f 305/628/98 296/622/98 299/629/98
f 274/630/99 315/631/99 321/632/99
f 280/633/100 400/545/100 402/634/100
f 421/635/5 307/543/5 415/560/5
f 273/636/5 416/529/5 422/637/5
f 426/638/101 309/639/101 424/640/101
f 322/641/62 311/642/62 324/643/62
f 421/644/63 310/645/63 423/646/63
f 407/647/102 309/648/102 408/649/102
f 321/650/103 310/651/103 274/652/103
f 402/653/104 324/643/104 403/654/104
f 423/655/105 323/656/105 425/657/105
f 279/658/5 318/659/5 307/543/5
f 321/632/106 405/660/106 407/661/106
f 272/515/1 319/662/1 281/663/1
f 454/595/107 401/664/107 447/665/107
f 281/666/108 320/667/108 292/584/108
f 397/668/109 314/573/109 313/574/109
f 450/669/110 315/670/110 306/671/110
f 414/672/111 494/673/111 278/674/111
f 307/543/5 313/675/5 269/544/5
f 333/512/112 501/676/112 500/677/112
f 334/678/113 256/679/113 224/680/113
f 508/681/5 335/503/5 336/505/5
f 507/682/5 330/420/5 505/683/5
f 217/684/5 327/685/5 249/686/5
f 326/469/114 499/687/114 497/688/114
f 442/689/115 332/690/115 233/691/115
f 499/692/116 332/455/116 506/693/116
f 215/445/117 325/694/117 214/446/117
f 498/695/118 439/441/118 327/443/118
f 165/696/119 488/697/119 163/698/119
f 502/699/5 330/420/5 325/421/5
f 354/700/120 198/701/120 162/702/120
f 353/703/121 358/704/121 354/700/121
f 356/705/122 367/706/122 366/707/122
f 356/705/123 359/387/123 360/708/123
f 199/709/5 358/710/5 359/711/5
f 359/711/124 357/712/124 360/713/124
f 167/714/5 347/715/5 195/295/5
f 355/716/5 348/717/5 347/715/5
f 371/718/125 341/719/125 369/720/125
f 354/721/126 341/719/126 353/722/126
f 340/324/1 169/723/1 160/271/1
f 340/324/127 349/724/127 350/725/127
f 458/726/128 365/727/128 435/728/128
f 457/342/129 352/729/129 458/726/129
f 169/730/130 351/731/130 180/333/130
f 350/732/131 352/733/131 351/731/131
f 368/347/132 338/734/132 361/735/132
f 339/736/133 337/325/133 338/734/133
f 438/737/134 342/738/134 194/739/134
f 342/740/135 456/741/135 341/742/135
f 329/743/136 512/744/136 510/745/136
f 277/746/7 479/747/7 413/748/7
f 195/295/5 337/749/5 157/296/5
f 337/749/5 348/717/5 338/750/5
f 159/339/137 361/735/137 158/322/137
f 436/751/138 365/727/138 177/752/138
f 161/753/139 369/720/139 193/754/139
f 366/707/62 200/755/62 168/756/62
f 353/703/140 372/393/140 357/757/140
f 360/713/141 372/382/141 367/384/141
f 366/380/5 348/717/5 356/758/5
f 339/736/142 370/348/142 349/724/142
f 349/759/143 365/334/143 352/733/143
f 341/742/144 433/318/144 369/320/144
f 363/760/145 486/761/145 469/762/145
f 348/717/5 361/298/5 338/750/5
f 390/763/146 142/764/146 106/765/146
f 390/255/147 393/260/147 394/766/147
f 392/767/62 144/768/62 112/769/62
f 391/263/148 396/770/148 392/767/148
f 142/771/149 395/772/149 143/773/149
f 394/766/150 396/262/150 395/772/150
f 111/774/151 383/775/151 139/175/151
f 392/257/152 383/775/152 391/776/152
f 105/259/5 377/777/5 137/163/5
f 389/269/153 378/254/153 377/778/153
f 376/779/154 113/223/154 104/151/154
f 375/227/155 386/780/155 376/779/155
f 430/781/156 388/782/156 121/783/156
f 429/784/157 387/221/157 388/782/157
f 124/211/158 386/785/158 387/786/158
f 387/786/159 385/787/159 388/212/159
f 103/218/1 374/788/1 102/202/1
f 374/788/160 376/779/160 373/204/160
f 432/789/161 378/790/161 138/791/161
f 378/790/162 427/792/162 377/793/162
f 219/794/163 511/795/163 509/796/163
f 317/797/164 478/798/164 477/799/164
f 139/175/165 373/800/165 101/176/165
f 373/800/166 384/177/166 374/178/166
f 271/590/167 397/668/167 270/571/167
f 447/665/168 289/801/168 448/802/168
f 273/803/169 405/660/169 305/804/169
f 402/653/170 312/805/170 280/806/170
f 407/647/171 323/807/171 321/650/171
f 425/657/172 408/808/172 426/638/172
f 322/809/173 400/545/173 318/659/173
f 314/573/1 406/601/1 319/662/1
f 319/810/174 401/585/174 320/667/174
f 315/811/175 445/812/175 405/567/175
f 164/813/176 470/814/176 485/815/176
f 313/675/177 400/545/177 397/546/177
f 317/797/3 496/816/3 277/817/3
f 324/818/178 426/638/178 403/819/178
f 398/820/179 462/821/179 476/822/179
f 423/655/5 324/818/5 311/823/5
f 421/644/63 311/824/63 279/825/63
f 426/638/180 312/826/180 403/819/180
f 422/637/5 308/535/5 280/633/5
f 274/827/181 415/560/181 306/559/181
f 409/589/182 284/828/182 264/519/182
f 417/582/6 291/532/6 284/534/6
f 420/578/183 286/829/183 285/564/183
f 422/561/36 309/830/36 273/831/36
f 265/832/5 415/560/5 307/543/5
f 453/833/67 419/557/67 292/834/67
f 110/835/184 481/836/184 482/837/184
f 446/620/185 420/548/185 285/838/185
f 262/523/7 410/538/7 261/521/7
f 412/531/7 287/839/7 268/524/7
f 416/529/5 267/840/5 308/535/5
f 266/587/2 411/518/2 265/540/2
f 108/841/186 427/842/186 380/843/186
f 110/844/6 429/845/6 430/846/6
f 109/847/187 432/848/187 431/849/187
f 108/841/6 430/846/6 428/850/6
f 164/851/188 433/852/188 362/853/188
f 166/854/189 435/855/189 436/856/189
f 163/857/6 437/858/6 165/859/6
f 164/860/190 436/856/190 434/861/190
f 220/862/6 439/863/6 328/864/6
f 222/865/191 441/866/191 442/867/191
f 219/868/6 443/869/6 221/870/6
f 220/871/192 442/867/192 440/872/192
f 276/873/193 445/874/193 398/875/193
f 278/876/194 447/877/194 448/878/194
f 275/879/6 449/880/6 413/881/6
f 276/882/6 451/883/6 446/884/6
f 275/885/195 452/886/195 450/887/195
f 277/888/6 454/889/6 317/890/6
f 509/891/6 439/863/6 503/892/6
f 221/870/196 504/893/196 510/894/196
f 163/857/6 455/895/6 438/896/6
f 343/897/197 456/898/197 455/899/197
f 165/859/198 457/900/198 345/901/198
f 346/902/199 457/900/199 458/903/199
f 362/853/200 456/898/200 344/904/200
f 363/905/201 458/903/201 435/855/201
f 107/906/202 459/907/202 432/908/202
f 380/909/203 459/907/203 379/910/203
f 109/847/204 460/911/204 381/912/204
f 382/913/205 460/911/205 429/845/205
f 398/875/206 452/886/206 316/914/206
f 399/915/207 454/889/207 447/877/207
f 277/888/6 449/880/6 453/916/6
f 278/876/208 451/883/208 414/917/208
f 473/918/209 481/919/209 474/920/209
f 470/921/210 486/922/210 485/923/210
f 464/924/211 490/925/211 489/926/211
f 475/927/212 494/928/212 480/929/212
f 496/930/6 461/931/6 479/932/6
f 512/933/213 464/924/213 511/934/213
f 487/935/214 466/936/214 488/937/214
f 465/938/215 468/939/215 466/936/215
f 467/940/216 470/921/216 468/939/216
f 484/941/217 471/942/217 472/943/217
f 472/943/218 473/918/218 474/920/218
f 477/944/219 475/927/219 461/931/219
f 461/931/220 476/945/220 462/946/220
f 479/932/221 462/946/221 495/947/221
f 475/927/222 493/948/222 476/945/222
f 345/949/223 487/950/223 165/951/223
f 222/952/136 463/953/136 329/743/136
f 346/902/224 465/954/224 345/901/224
f 221/955/7 492/956/7 219/957/7
f 344/302/225 470/958/225 362/959/225
f 222/960/2 489/961/2 490/962/2
f 346/902/226 469/963/226 467/964/226
f 398/820/227 493/965/227 276/966/227
f 379/967/228 484/968/228 472/969/228
f 278/970/229 478/798/229 399/971/229
f 380/972/230 481/973/230 108/974/230
f 379/967/231 474/975/231 380/976/231
f 413/748/7 495/977/7 275/978/7
f 382/979/232 482/980/232 473/981/232
f 381/912/233 483/982/233 109/847/233
f 276/983/2 480/984/2 414/672/2
f 107/985/234 483/982/234 484/986/234
f 381/912/235 473/987/235 471/988/235
f 316/989/236 495/990/236 462/821/236
f 491/991/6 511/934/6 492/992/6
f 510/894/237 441/866/237 329/993/237
f 219/994/6 503/892/6 444/995/6
f 509/796/163 464/996/163 328/182/163
f 221/997/238 512/744/238 491/998/238
f 213/419/5 505/683/5 502/699/5
f 444/999/118 498/1000/118 250/1001/118
f 225/1002/239 506/693/239 236/454/239
f 497/688/240 225/1003/240 216/394/240
f 223/1004/5 505/683/5 251/418/5
f 255/1005/5 501/1006/5 508/681/5
f 500/677/241 254/1007/241 218/1008/241
f 334/678/242 508/508/242 336/1009/242
f 500/498/5 327/685/5 333/1010/5
f 441/1011/243 506/463/243 332/690/243
f 326/469/70 502/447/70 325/694/70
f 2/1/1 4/1012/1 19/2/1
f 48/4/2 8/1013/2 21/5/2
f 8/7/3 6/1014/3 23/8/3
f 56/10/244 52/1015/244 2/11/244
f 45/13/5 7/1016/5 5/14/5
f 4/16/6 2/1017/6 52/17/6
f 27/19/1 28/80/1 12/20/1
f 31/22/7 16/1018/7 68/23/7
f 34/25/3 14/1019/3 16/26/3
f 77/28/245 27/59/245 10/29/245
f 70/31/5 13/1020/5 15/32/5
f 67/34/9 72/142/9 10/35/9
f 54/37/246 17/40/246 40/38/246
f 54/37/247 56/10/247 18/12/247
f 22/41/3 24/44/3 39/42/3
f 21/9/3 23/8/3 24/44/3
f 58/45/2 22/48/2 38/46/2
f 60/6/2 21/5/2 22/48/2
f 40/49/1 17/52/1 20/50/1
f 18/3/1 19/2/1 20/50/1
f 9/53/2 25/91/2 73/54/2
f 87/56/248 41/1021/248 26/57/248
f 75/58/249 26/57/249 27/59/249
f 13/60/3 36/90/3 33/61/3
f 44/63/3 35/66/3 32/64/3
f 35/66/3 34/25/3 31/27/3
f 15/67/7 33/89/7 79/68/7
f 43/70/7 32/73/7 81/71/7
f 32/73/7 31/22/7 83/24/7
f 9/74/1 11/1022/1 30/75/1
f 42/77/1 29/1023/1 26/78/1
f 26/78/1 29/1023/1 28/80/1
f 1/81/1 40/49/1 37/51/1
f 62/47/2 38/46/2 7/83/2
f 7/85/3 38/43/3 39/42/3
f 64/39/250 40/38/250 1/87/250
f 30/75/1 42/77/1 41/79/1
f 33/89/7 43/70/7 85/72/7
f 36/90/3 44/63/3 43/65/3
f 25/91/251 41/1021/251 87/56/251
f 39/92/252 63/107/252 50/93/252
f 50/93/253 63/107/253 64/39/253
f 37/95/2 61/98/2 46/96/2
f 61/98/2 62/47/2 45/84/2
f 19/99/2 59/102/2 57/100/2
f 59/102/2 60/6/2 58/45/2
f 20/101/2 57/100/2 61/98/2
f 57/100/2 58/45/2 62/47/2
f 23/103/254 55/106/254 53/104/254
f 55/106/255 56/10/255 54/37/255
f 24/105/256 53/104/256 63/107/256
f 63/107/257 53/104/257 54/37/257
f 48/108/6 51/111/6 6/109/6
f 47/18/6 52/17/6 51/111/6
f 3/112/5 46/115/5 49/113/5
f 46/115/5 45/13/5 50/15/5
f 23/103/258 6/1024/258 51/116/258
f 51/116/244 52/1015/244 56/10/244
f 4/117/2 47/118/2 59/102/2
f 47/118/2 48/4/2 60/6/2
f 74/119/259 88/122/259 44/120/259
f 74/119/260 73/54/260 87/56/260
f 80/123/7 86/126/7 42/124/7
f 79/68/7 85/72/7 86/126/7
f 82/127/7 84/130/7 28/128/7
f 81/71/7 83/24/7 84/130/7
f 86/126/7 82/127/7 29/129/7
f 85/72/7 81/71/7 82/127/7
f 66/131/7 80/123/7 30/125/7
f 65/69/7 79/68/7 80/123/7
f 76/133/261 78/136/261 34/134/261
f 75/58/262 77/28/262 78/136/262
f 88/122/263 76/133/263 35/135/263
f 88/122/264 87/56/264 75/58/264
f 70/137/2 74/119/2 36/121/2
f 70/137/2 69/55/2 73/54/2
f 16/139/9 14/1025/9 71/140/9
f 68/141/9 71/140/9 72/142/9
f 9/143/5 69/146/5 66/144/5
f 69/146/5 70/31/5 65/33/5
f 34/134/265 78/136/265 71/147/265
f 78/136/266 77/28/266 72/30/266
f 84/130/7 67/150/7 12/149/7
f 83/24/7 68/23/7 67/150/7
f 104/151/1 92/222/1 91/152/1
f 98/154/30 96/214/30 95/155/30
f 93/157/7 130/1026/7 129/158/7
f 100/160/7 90/186/7 89/161/7
f 137/163/5 93/250/5 99/164/5
f 94/159/7 118/226/7 119/166/7
f 123/167/31 133/1027/31 136/168/31
f 140/165/5 99/164/5 89/170/5
f 94/159/7 100/160/7 99/162/7
f 92/172/2 98/154/2 97/156/2
f 91/174/5 97/190/5 139/175/5
f 384/177/5 140/165/5 102/171/5
f 430/179/32 121/1028/32 117/180/32
f 328/182/33 464/996/33 489/183/33
f 100/160/7 119/166/7 120/185/7
f 431/187/267 432/242/267 123/188/267
f 97/190/268 95/247/268 138/191/268
f 105/192/36 112/1029/36 144/193/36
f 117/195/6 118/208/6 135/196/6
f 427/198/3 428/1030/3 137/199/3
f 90/201/1 103/218/1 102/202/1
f 373/204/37 376/779/37 104/151/37
f 121/205/6 122/213/6 120/206/6
f 117/195/6 121/205/6 119/207/6
f 115/209/31 124/211/31 123/167/31
f 114/210/269 113/1031/269 124/211/269
f 388/212/270 385/787/270 122/213/270
f 96/214/271 98/154/271 115/215/271
f 90/201/1 120/1032/1 122/217/1
f 460/219/272 431/1033/272 124/220/272
f 92/222/273 104/151/273 113/223/273
f 94/159/7 129/158/7 135/225/7
f 375/227/1 103/218/1 122/217/1
f 92/172/42 114/1034/42 115/215/42
f 128/229/3 129/232/3 130/230/3
f 129/232/3 128/229/3 134/233/3
f 125/235/3 132/239/3 127/236/3
f 125/235/3 136/1035/3 133/238/3
f 138/240/7 127/1036/7 132/241/7
f 96/214/2 125/244/2 126/243/2
f 116/216/39 136/1037/39 125/244/39
f 432/242/43 132/241/43 133/245/43
f 117/180/32 134/1038/32 128/246/32
f 95/247/5 126/1039/5 127/248/5
f 137/163/5 131/1040/5 130/249/5
f 428/181/2 128/246/2 131/251/2
f 106/253/274 138/1041/274 378/254/274
f 112/256/5 140/165/5 384/177/5
f 106/258/275 111/774/275 139/175/275
f 105/259/5 137/163/5 140/165/5
f 393/260/5 141/270/5 144/261/5
f 391/263/276 111/1042/276 143/264/276
f 106/266/277 142/1043/277 143/267/277
f 389/269/278 105/1044/278 141/270/278
f 160/271/1 148/344/1 147/272/1
f 154/274/2 152/337/2 151/275/2
f 149/277/7 186/1045/7 185/278/7
f 156/280/7 146/306/7 145/281/7
f 193/283/5 149/373/5 155/284/5
f 150/279/7 174/346/7 175/286/7
f 172/287/49 179/331/49 189/288/49
f 196/285/5 155/284/5 145/290/5
f 150/279/7 156/280/7 155/282/7
f 148/292/2 154/274/2 153/276/2
f 147/294/5 153/310/5 195/295/5
f 364/297/5 196/285/5 158/291/5
f 436/299/50 177/1046/50 173/300/50
f 344/302/279 343/1047/279 466/303/279
f 156/280/7 175/286/7 176/305/7
f 437/307/60 438/364/60 179/308/60
f 153/310/5 151/370/5 194/311/5
f 161/312/36 168/831/36 200/313/36
f 173/315/53 174/329/53 191/316/53
f 433/318/54 434/1048/54 193/319/54
f 146/321/1 159/339/1 158/322/1
f 340/324/1 160/271/1 157/273/1
f 177/326/280 178/335/280 176/327/280
f 173/315/53 177/326/53 175/328/53
f 171/330/281 180/333/281 179/331/281
f 170/332/282 169/730/282 180/333/282
f 365/334/283 370/1049/283 178/335/283
f 154/274/57 171/349/57 172/336/57
f 146/321/1 176/1050/1 178/338/1
f 437/340/284 180/1051/284 351/341/284
f 160/271/1 169/723/1 170/343/1
f 150/279/7 185/278/7 191/345/7
f 368/347/285 159/339/285 178/338/285
f 148/292/57 170/1052/57 171/349/57
f 184/350/3 185/353/3 186/351/3
f 185/353/3 184/350/3 190/354/3
f 181/356/3 188/359/3 183/357/3
f 188/359/3 181/356/3 192/360/3
f 194/362/7 183/1053/7 188/363/7
f 152/337/2 181/366/2 182/365/2
f 172/336/57 192/1054/57 181/366/57
f 438/364/60 188/363/60 189/367/60
f 434/301/50 173/300/50 190/368/50
f 151/370/5 182/1055/5 183/371/5
f 193/283/5 187/1056/5 186/372/5
f 434/301/2 184/369/2 187/374/2
f 162/376/5 194/311/5 342/377/5
f 168/379/5 196/285/5 364/297/5
f 162/376/5 167/714/5 195/295/5
f 161/381/5 193/283/5 196/285/5
f 372/382/286 197/1057/286 200/383/286
f 355/385/62 167/1058/62 199/386/62
f 162/388/63 198/1059/63 199/389/63
f 371/391/287 161/1060/287 197/392/287
f 216/394/1 204/465/1 203/395/1
f 210/397/2 208/458/2 207/398/2
f 205/400/7 242/1061/7 241/401/7
f 212/403/7 202/429/7 201/404/7
f 249/406/5 205/493/5 211/407/5
f 206/402/7 230/467/7 231/409/7
f 235/410/6 245/1062/6 248/411/6
f 252/408/5 211/407/5 201/413/5
f 206/402/7 212/403/7 211/405/7
f 204/415/2 210/397/2 209/399/2
f 203/417/5 209/433/5 251/418/5
f 330/420/5 252/408/5 214/414/5
f 442/422/288 233/1063/288 229/423/288
f 166/425/66 164/1064/66 485/426/66
f 212/403/7 231/409/7 232/428/7
f 443/430/67 444/484/67 235/431/67
f 209/433/5 207/490/5 250/434/5
f 224/435/36 256/1065/36 253/436/36
f 229/438/6 230/451/6 247/439/6
f 439/441/68 440/1066/68 249/442/68
f 201/444/289 202/459/289 215/445/289
f 502/447/290 497/688/290 216/394/290
f 233/448/6 234/456/6 232/449/6
f 229/438/6 233/448/6 231/450/6
f 227/452/6 236/454/6 235/410/6
f 226/453/6 225/1002/6 236/454/6
f 332/455/291 331/1067/291 234/456/291
f 210/397/2 227/470/2 228/457/2
f 202/459/1 232/1068/1 234/460/1
f 504/461/292 443/1069/292 236/462/292
f 216/394/1 225/1003/1 226/464/1
f 206/402/7 241/401/7 247/466/7
f 215/445/293 234/460/293 331/468/293
f 204/415/2 226/1026/2 227/470/2
f 240/471/3 241/474/3 242/472/3
f 241/474/3 240/471/3 246/475/3
f 237/477/3 244/481/3 239/478/3
f 237/477/3 248/1070/3 245/480/3
f 250/482/7 239/1071/7 244/483/7
f 208/458/2 237/486/2 238/485/2
f 228/457/2 248/1072/2 237/486/2
f 444/484/67 244/483/67 245/487/67
f 440/424/32 229/423/32 246/488/32
f 207/490/5 238/1073/5 239/491/5
f 249/406/5 243/1074/5 242/492/5
f 440/424/2 240/489/2 243/494/2
f 218/496/5 250/1075/5 498/497/5
f 224/499/5 252/408/5 330/420/5
f 218/501/5 223/1004/5 251/418/5
f 217/502/5 249/406/5 252/408/5
f 335/503/5 253/1076/5 256/504/5
f 507/506/294 223/1077/294 255/507/294
f 223/509/63 218/1078/63 254/510/63
f 333/512/295 217/1079/295 253/513/295
f 272/515/1 260/597/1 259/516/1
f 411/518/77 409/589/77 264/519/77
f 261/521/7 298/1080/7 297/522/7
f 268/524/7 258/554/7 257/525/7
f 305/527/5 261/625/5 410/528/5
f 262/523/7 286/599/7 418/530/7
f 291/532/6 301/1081/6 304/533/6
f 308/535/5 267/840/5 257/536/5
f 412/531/7 268/524/7 267/526/7
f 260/539/2 266/587/2 265/540/2
f 259/542/5 265/832/5 307/543/5
f 400/545/78 308/535/78 270/537/78
f 448/547/296 289/1082/296 420/548/296
f 343/550/297 163/1083/297 488/551/297
f 268/524/7 287/839/7 288/553/7
f 449/555/298 450/615/298 291/556/298
f 411/558/299 263/623/299 306/559/299
f 422/561/36 280/1084/36 312/562/36
f 285/564/300 286/829/300 303/565/300
f 405/567/301 445/812/301 446/568/301
f 258/570/302 271/590/302 270/571/302
f 314/573/1 272/515/1 269/517/1
f 289/575/303 290/586/303 288/576/303
f 420/578/304 289/575/304 287/577/304
f 283/580/6 292/584/6 419/581/6
f 282/583/6 281/666/6 292/584/6
f 401/585/305 406/1085/305 290/586/305
f 266/587/2 283/602/2 417/588/2
f 271/590/306 258/570/306 288/591/306
f 453/593/307 292/1086/307 320/594/307
f 272/515/1 281/663/1 282/596/1
f 262/523/7 297/522/7 303/598/7
f 404/600/308 271/590/308 290/592/308
f 260/539/2 282/1087/2 283/602/2
f 299/603/309 296/1088/309 297/604/309
f 297/604/310 296/1088/310 302/606/310
f 293/608/3 300/612/3 295/609/3
f 293/608/91 304/1089/91 301/611/91
f 306/613/311 295/1090/311 300/614/311
f 264/519/2 293/618/2 294/616/2
f 264/519/93 284/828/93 304/617/93
f 450/615/94 300/614/94 301/619/94
f 446/620/312 285/838/312 302/621/312
f 263/623/5 294/1091/5 295/624/5
f 261/625/313 305/527/313 299/626/313
f 305/628/314 446/620/314 296/622/314
f 274/630/315 306/1092/315 315/631/315
f 280/633/316 308/535/316 400/545/316
f 421/635/5 279/658/5 307/543/5
f 273/636/5 305/527/5 416/529/5
f 426/638/317 408/808/317 309/639/317
f 322/641/62 279/1093/62 311/642/62
f 421/644/63 274/1094/63 310/645/63
f 407/647/318 273/1095/318 309/648/318
f 321/650/319 323/807/319 310/651/319
f 402/653/320 322/641/320 324/643/320
f 423/655/321 310/1096/321 323/656/321
f 279/658/5 322/809/5 318/659/5
f 321/632/322 315/631/322 405/660/322
f 272/515/1 314/573/1 319/662/1
f 454/595/323 320/594/323 401/664/323
f 281/666/324 319/810/324 320/667/324
f 397/668/109 404/600/109 314/573/109
f 450/669/325 452/1097/325 315/670/325
f 414/672/111 480/984/111 494/673/111
f 307/543/5 318/659/5 313/675/5
f 333/512/326 335/514/326 501/676/326
f 334/678/327 336/1009/327 256/679/327
f 508/681/5 501/1006/5 335/503/5
f 507/682/5 334/500/5 330/420/5
f 217/684/5 333/1010/5 327/685/5
f 326/469/328 331/468/328 499/687/328
f 442/689/329 441/1011/329 332/690/329
f 499/692/330 331/1067/330 332/455/330
f 215/445/331 326/469/331 325/694/331
f 498/695/118 503/1098/118 439/441/118
f 165/696/119 487/1099/119 488/697/119
f 502/699/5 505/683/5 330/420/5
f 354/700/332 358/704/332 198/701/332
f 353/703/333 357/757/333 358/704/333
f 356/705/334 360/708/334 367/706/334
f 356/705/335 355/385/335 359/387/335
f 199/709/5 198/1100/5 358/710/5
f 359/711/336 358/710/336 357/712/336
f 167/714/5 355/716/5 347/715/5
f 355/716/5 356/758/5 348/717/5
f 371/718/337 353/722/337 341/719/337
f 354/721/338 342/1101/338 341/719/338
f 340/324/1 350/725/1 169/723/1
f 340/324/339 339/736/339 349/724/339
f 458/726/340 352/729/340 365/727/340
f 457/342/341 351/341/341 352/729/341
f 169/730/342 350/732/342 351/731/342
f 350/732/343 349/759/343 352/733/343
f 368/347/132 339/736/132 338/734/132
f 339/736/133 340/324/133 337/325/133
f 438/737/134 455/1102/134 342/738/134
f 342/740/135 455/1103/135 456/741/135
f 329/743/136 463/953/136 512/744/136
f 277/746/7 496/1104/7 479/747/7
f 195/295/5 347/715/5 337/749/5
f 337/749/5 347/715/5 348/717/5
f 159/339/137 368/347/137 361/735/137
f 436/751/344 435/728/344 365/727/344
f 161/753/345 371/718/345 369/720/345
f 366/707/62 367/706/62 200/755/62
f 353/703/346 371/391/346 372/393/346
f 360/713/347 357/712/347 372/382/347
f 366/380/5 364/297/5 348/717/5
f 339/736/132 368/347/132 370/348/132
f 349/759/348 370/1049/348 365/334/348
f 341/742/144 456/741/144 433/318/144
f 363/760/349 166/1105/349 486/761/349
f 348/717/5 364/297/5 361/298/5
f 390/763/350 394/1106/350 142/764/350
f 390/255/351 389/269/351 393/260/351
f 392/767/62 396/770/62 144/768/62
f 391/263/352 395/265/352 396/770/352
f 142/771/353 394/766/353 395/772/353
f 394/766/354 393/260/354 396/262/354
f 111/774/355 391/776/355 383/775/355
f 392/257/356 384/177/356 383/775/356
f 105/259/5 389/1107/5 377/777/5
f 389/269/357 390/255/357 378/254/357
f 376/779/358 386/780/358 113/223/358
f 375/227/1 385/228/1 386/780/1
f 430/781/359 429/784/359 388/782/359
f 429/784/360 460/219/360 387/221/360
f 124/211/361 113/1031/361 386/785/361
f 387/786/362 386/785/362 385/787/362
f 103/218/1 375/227/1 374/788/1
f 374/788/160 375/227/160 376/779/160
f 432/789/161 459/1108/161 378/790/161
f 378/790/162 459/1108/162 427/792/162
f 219/794/163 492/1109/163 511/795/163
f 317/797/164 399/971/164 478/798/164
f 139/175/165 383/775/165 373/800/165
f 373/800/166 383/775/166 384/177/166
f 271/590/363 404/600/363 397/668/363
f 447/665/364 401/664/364 289/801/364
f 273/803/365 407/661/365 405/660/365
f 402/653/366 403/654/366 312/805/366
f 407/647/367 408/649/367 323/807/367
f 425/657/368 323/656/368 408/808/368
f 322/809/369 402/634/369 400/545/369
f 314/573/370 404/600/370 406/601/370
f 319/810/371 406/1085/371 401/585/371
f 315/811/372 452/1110/372 445/812/372
f 164/813/373 362/1111/373 470/814/373
f 313/675/177 318/659/177 400/545/177
f 317/797/3 477/799/3 496/816/3
f 324/818/374 425/657/374 426/638/374
f 398/820/179 316/989/179 462/821/179
f 423/655/5 425/657/5 324/818/5
f 421/644/63 423/646/63 311/824/63
f 426/638/101 424/640/101 312/826/101
f 422/637/5 416/529/5 308/535/5
f 274/827/5 421/635/5 415/560/5
f 409/589/2 417/588/2 284/828/2
f 417/582/6 419/581/6 291/532/6
f 420/578/84 418/579/84 286/829/84
f 422/561/36 424/563/36 309/830/36
f 265/832/5 411/558/5 415/560/5
f 453/833/67 449/555/67 419/557/67
f 110/835/184 108/1112/184 481/836/184
f 446/620/375 451/549/375 420/548/375
f 262/523/7 412/531/7 410/538/7
f 412/531/7 418/530/7 287/839/7
f 416/529/5 410/528/5 267/840/5
f 266/587/2 409/589/2 411/518/2
f 108/841/6 428/850/6 427/842/6
f 110/844/376 382/913/376 429/845/376
f 109/847/377 107/985/377 432/848/377
f 108/841/6 110/844/6 430/846/6
f 164/851/378 434/1113/378 433/852/378
f 166/854/379 363/905/379 435/855/379
f 163/857/6 438/896/6 437/858/6
f 164/860/380 166/854/380 436/856/380
f 220/862/6 440/1114/6 439/863/6
f 222/865/381 329/993/381 441/866/381
f 219/868/6 444/1115/6 443/869/6
f 220/871/382 222/865/382 442/867/382
f 276/873/383 446/1116/383 445/874/383
f 278/876/384 399/915/384 447/877/384
f 275/879/385 450/1117/385 449/880/385
f 276/882/6 414/917/6 451/883/6
f 275/885/386 316/914/386 452/886/386
f 277/888/6 453/916/6 454/889/6
f 509/891/6 328/864/6 439/863/6
f 221/870/387 443/869/387 504/893/387
f 163/857/388 343/1118/388 455/895/388
f 343/897/389 344/904/389 456/898/389
f 165/859/6 437/858/6 457/900/6
f 346/902/390 345/901/390 457/900/390
f 362/853/391 433/852/391 456/898/391
f 363/905/392 346/902/392 458/903/392
f 107/906/393 379/910/393 459/907/393
f 380/909/394 427/1119/394 459/907/394
f 109/847/395 431/849/395 460/911/395
f 382/913/396 381/912/396 460/911/396
f 398/875/397 445/874/397 452/886/397
f 399/915/207 317/890/207 454/889/207
f 277/888/6 413/881/6 449/880/6
f 278/876/398 448/878/398 451/883/398
f 473/918/399 482/1120/399 481/919/399
f 470/921/400 469/1121/400 486/922/400
f 464/924/401 463/1122/401 490/925/401
f 475/927/402 478/1123/402 494/928/402
f 496/930/6 477/944/6 461/931/6
f 512/933/403 463/1122/403 464/924/403
f 487/935/404 465/938/404 466/936/404
f 465/938/405 467/940/405 468/939/405
f 467/940/406 469/1121/406 470/921/406
f 484/941/407 483/1124/407 471/942/407
f 472/943/408 471/942/408 473/918/408
f 477/944/409 478/1123/409 475/927/409
f 461/931/410 475/927/410 476/945/410
f 479/932/411 461/931/411 462/946/411
f 475/927/412 480/929/412 493/948/412
f 345/949/413 465/1125/413 487/950/413
f 222/952/136 490/1126/136 463/953/136
f 346/902/414 467/964/414 465/954/414
f 221/955/7 491/1127/7 492/956/7
f 344/302/415 468/304/415 470/958/415
f 222/960/2 220/1128/2 489/961/2
f 346/902/416 363/905/416 469/963/416
f 398/820/227 476/822/227 493/965/227
f 379/967/417 107/1129/417 484/968/417
f 278/970/229 494/1130/229 478/798/229
f 380/972/418 474/1131/418 481/973/418
f 379/967/419 472/969/419 474/975/419
f 413/748/7 479/747/7 495/977/7
f 382/979/420 110/1132/420 482/980/420
f 381/912/421 471/988/421 483/982/421
f 276/983/2 493/1133/2 480/984/2
f 107/985/234 109/847/234 483/982/234
f 381/912/422 382/913/422 473/987/422
f 316/989/236 275/1134/236 495/990/236
f 491/991/423 512/933/423 511/934/423
f 510/894/424 504/893/424 441/866/424
f 219/994/6 509/891/6 503/892/6
f 509/796/163 511/795/163 464/996/163
f 221/997/238 510/745/238 512/744/238
f 213/419/5 251/418/5 505/683/5
f 444/999/118 503/1135/118 498/1000/118
f 225/1002/425 499/692/425 506/693/425
f 497/688/426 499/687/426 225/1003/426
f 223/1004/5 507/682/5 505/683/5
f 255/1005/5 254/1136/5 501/1006/5
f 500/677/427 501/676/427 254/1007/427
f 334/678/428 507/506/428 508/508/428
f 500/498/5 498/497/5 327/685/5
f 441/1011/429 504/461/429 506/463/429
f 326/469/430 497/688/430 502/447/430
