# Blender 4.2.1 LTS
# www.blender.org
mtllib shelf_1.mtl
g shelf_1_Mesh
v 0.509746 0.000000 0.275095
v 0.509746 1.397678 0.275095
v 0.470225 0.000000 0.275426
v 0.470225 1.397678 0.275426
v 0.504698 0.014915 -0.246477
v 0.515675 1.398337 -0.262244
v 0.465177 0.014915 -0.246146
v 0.473957 1.388352 -0.266670
v -0.602544 0.000000 0.284411
v -0.602544 1.397678 0.284411
v -0.563022 0.000000 0.284080
v -0.563022 1.397678 0.284080
v -0.607090 0.000000 -0.258351
v -0.606896 1.390765 -0.260796
v -0.567569 0.000000 -0.258682
v -0.556603 1.377971 -0.260504
v -0.602321 0.666165 0.274993
v -0.589616 1.154768 0.269012
v -0.562651 1.047844 0.268384
v -0.575356 0.344338 0.274365
v -0.567308 1.047844 -0.269669
v -0.580404 0.309012 -0.247207
v -0.594273 1.023509 -0.269041
v -0.607369 0.316077 -0.246579
v -0.566053 0.000000 -0.077761
v -0.564575 0.009420 0.104729
v -0.564538 1.397678 0.103159
v -0.566053 1.380951 -0.077761
v -0.604097 0.009420 0.105060
v -0.605575 0.000000 -0.077430
v -0.605899 1.365099 -0.083419
v -0.603768 1.395685 0.102902
v -0.606065 0.756566 0.188158
v -0.608269 0.306821 0.036329
v -0.593441 1.265528 0.185616
v -0.596389 1.143635 0.065171
v -0.578610 0.329423 -0.078058
v -0.577113 0.349048 0.103647
v -0.566220 1.029004 -0.070698
v -0.564538 1.061190 0.103159
v 0.509579 0.206678 0.282158
v 0.509876 0.500361 0.269601
v 0.500366 0.828585 0.273302
v 0.470262 0.881182 0.273856
v 0.470355 0.500361 0.269932
v 0.470057 0.206678 0.282489
v 0.465679 0.880397 -0.267336
v 0.465511 0.509781 -0.260273
v 0.465177 0.186268 -0.246146
v 0.497352 0.828585 -0.267853
v 0.505033 0.509781 -0.260604
v 0.504698 0.186268 -0.246477
v 0.509746 1.348325 0.275095
v 0.470225 1.348325 0.275426
v 0.465679 1.348325 -0.267336
v 0.505200 1.348325 -0.267667
v 0.467194 0.000000 -0.086415
v 0.468672 0.009420 0.096075
v 0.478229 1.387713 0.123809
v 0.472713 1.391461 -0.085972
v 0.508194 0.009420 0.095744
v 0.506716 0.000000 -0.086746
v 0.507198 1.390531 -0.067703
v 0.516212 1.395283 0.127126
v 0.506716 0.181558 -0.086746
v 0.508231 0.402895 0.094174
v 0.507949 0.376315 -0.138821
v 0.508231 0.530977 0.094174
v 0.493307 1.053395 -0.091225
v 0.498384 0.943943 0.178369
v 0.468709 0.181558 0.094505
v 0.467194 0.181558 -0.086415
v 0.468709 0.530977 0.094505
v 0.467194 0.530977 -0.086415
v 0.468709 0.880397 0.094505
v 0.467194 0.880397 -0.086415
v 0.506716 1.164876 -0.086746
v 0.506968 1.218767 0.147501
v 0.468709 1.348325 0.094505
v 0.467194 1.348325 -0.086415
v -0.561328 1.379461 -0.169132
v -0.606332 0.000000 -0.167891
v -0.606472 0.326283 -0.162005
v -0.596084 0.919987 -0.070130
v -0.566811 0.000000 -0.168222
v -0.606397 1.377932 -0.172108
v -0.579507 0.319218 -0.162633
v -0.566764 1.038424 -0.170183
v 0.478164 0.385555 0.257370
v 0.478164 0.426405 0.257370
v -0.571263 0.385555 0.266159
v -0.571263 0.426405 0.266159
v 0.474264 0.385555 -0.208267
v 0.474264 0.426405 -0.208267
v -0.575163 0.385555 -0.199477
v -0.575163 0.426405 -0.199477
v -0.571723 0.385555 0.211261
v -0.571723 0.426405 0.211261
v 0.477704 0.385555 0.202471
v 0.477704 0.426405 0.202471
v -0.520883 0.385555 0.265737
v 0.427784 0.385555 0.257792
v 0.427784 0.426405 0.257792
v -0.520883 0.426405 0.265737
v 0.400588 0.385555 -0.168920
v -0.500839 0.385555 -0.161370
v -0.494288 0.417904 -0.167228
v 0.392684 0.417904 -0.171843
v -0.490193 0.417904 0.176959
v 0.396778 0.417904 0.172344
v -0.497583 0.385555 0.227328
v 0.403844 0.385555 0.219777
v -0.520883 0.554612 0.265737
v -0.571263 0.554612 0.266159
v -0.571723 0.554612 0.211261
v -0.575163 0.554612 -0.199477
v 0.435729 0.554612 -0.207944
v 0.474264 0.554612 -0.208267
v 0.477704 0.554612 0.202471
v 0.478164 0.554612 0.257370
v 0.438904 0.539037 0.223541
v 0.427784 0.554612 0.257792
v -0.536629 0.554612 -0.199800
v -0.532974 0.554612 0.236519
v -0.575537 0.426405 -0.244160
v -0.575537 0.385555 -0.244160
v -0.525158 0.385555 -0.244582
v 0.423510 0.426405 -0.252528
v 0.473890 0.426405 -0.252950
v 0.473890 0.385555 -0.252950
v 0.423510 0.385555 -0.252528
v -0.525158 0.426405 -0.244582
v -0.538113 0.542682 -0.247947
v 0.435355 0.554612 -0.252627
v 0.473890 0.554612 -0.252950
v -0.575537 0.554612 -0.244160
v 0.423884 0.385555 -0.207845
v -0.524783 0.385555 -0.199899
v -0.521111 0.385555 0.238546
v 0.427556 0.385555 0.230600
v 0.385966 0.401320 -0.162469
v -0.486110 0.401320 -0.155165
v -0.482960 0.401320 0.220876
v 0.389115 0.401320 0.213572
v 0.478164 0.757480 0.257370
v 0.478164 0.798329 0.257370
v -0.571263 0.757480 0.266159
v -0.571263 0.798329 0.266159
v 0.474264 0.757480 -0.208267
v 0.474264 0.798329 -0.208267
v -0.575163 0.757480 -0.199477
v -0.575163 0.798329 -0.199477
v -0.571723 0.757480 0.211261
v -0.571723 0.798329 0.211261
v 0.477704 0.757480 0.202471
v 0.477704 0.798329 0.202471
v -0.520883 0.757480 0.265737
v 0.427784 0.757480 0.257792
v 0.427784 0.798329 0.257792
v -0.520883 0.798329 0.265737
v 0.400588 0.757480 -0.168920
v -0.500839 0.757480 -0.161370
v -0.494288 0.789828 -0.167228
v 0.392684 0.789828 -0.171843
v -0.490193 0.789828 0.176959
v 0.396778 0.789828 0.172344
v -0.497583 0.757480 0.227328
v 0.403844 0.757480 0.219777
v -0.491363 0.921085 0.266437
v -0.571263 0.926536 0.266159
v -0.571723 0.926536 0.211261
v -0.575163 0.926536 -0.199477
v 0.435729 0.926536 -0.207944
v 0.474264 0.926536 -0.208267
v 0.477704 0.926536 0.202471
v 0.478164 0.926536 0.257370
v 0.439384 0.926536 0.228375
v 0.427784 0.926536 0.257792
v -0.536629 0.926536 -0.199800
v -0.532974 0.926536 0.236519
v -0.575537 0.798329 -0.244160
v -0.575537 0.757480 -0.244160
v -0.525158 0.757480 -0.244582
v 0.423510 0.798329 -0.252528
v 0.473890 0.798329 -0.252950
v 0.473890 0.757480 -0.252950
v 0.423510 0.757480 -0.252528
v -0.525158 0.798329 -0.244582
v -0.536939 0.907451 -0.250615
v 0.436827 0.902997 -0.260637
v 0.473890 0.926536 -0.252950
v -0.575537 0.926536 -0.244160
v 0.423884 0.757480 -0.207845
v -0.524783 0.757480 -0.199899
v -0.521111 0.757480 0.238546
v 0.427556 0.757480 0.230600
v 0.385966 0.773245 -0.162469
v -0.486110 0.773245 -0.155165
v -0.482960 0.773245 0.220876
v 0.389115 0.773245 0.213572
v 0.478164 1.129404 0.257370
v 0.478164 1.170254 0.257370
v -0.571263 1.129404 0.266159
v -0.571263 1.170254 0.266159
v 0.474264 1.129404 -0.208267
v 0.474264 1.170254 -0.208267
v -0.575163 1.129404 -0.199477
v -0.575163 1.170254 -0.199477
v -0.571723 1.129404 0.211261
v -0.571723 1.170254 0.211261
v 0.477704 1.129404 0.202471
v 0.477704 1.170254 0.202471
v -0.520883 1.129404 0.265737
v 0.427784 1.129404 0.257792
v 0.427784 1.170254 0.257792
v -0.520883 1.170254 0.265737
v 0.400588 1.129404 -0.168920
v -0.500839 1.129404 -0.161370
v -0.494288 1.161752 -0.167228
v 0.392684 1.161752 -0.171843
v -0.490193 1.161752 0.176959
v 0.396778 1.161752 0.172344
v -0.497583 1.129404 0.227328
v 0.403844 1.129404 0.219777
v -0.520883 1.298461 0.265737
v -0.571263 1.298461 0.266159
v -0.571723 1.298461 0.211261
v -0.575163 1.298461 -0.199477
v 0.435729 1.298461 -0.207944
v 0.474264 1.298461 -0.208267
v 0.477704 1.298461 0.202471
v 0.478164 1.298461 0.257370
v 0.439384 1.298461 0.228375
v 0.427784 1.298461 0.257792
v -0.536629 1.298461 -0.199800
v -0.532974 1.298461 0.236519
v -0.575537 1.170254 -0.244160
v -0.575537 1.129404 -0.244160
v -0.525158 1.129404 -0.244582
v 0.423510 1.170254 -0.252528
v 0.473890 1.170254 -0.252950
v 0.473890 1.129404 -0.252950
v 0.423510 1.129404 -0.252528
v -0.525158 1.170254 -0.244582
v -0.537003 1.298461 -0.244483
v 0.435355 1.298461 -0.252627
v 0.473890 1.298461 -0.252950
v -0.575537 1.298461 -0.244160
v 0.423884 1.129404 -0.207845
v -0.524783 1.129404 -0.199899
v -0.521111 1.129404 0.238546
v 0.427556 1.129404 0.230600
v 0.385966 1.145169 -0.162469
v -0.486110 1.145169 -0.155165
v -0.482960 1.145169 0.220876
v 0.389115 1.145169 0.213572
v -0.383372 1.129404 0.264586
v -0.067149 1.114044 0.261937
v -0.067149 1.170254 0.261937
v -0.383372 1.170254 0.264586
v -0.451770 1.129404 -0.194854
v -0.366115 1.161752 -0.159549
v -0.383504 1.161752 0.176404
v -0.067305 1.146393 0.174759
v -0.383600 1.129404 0.237394
v -0.067377 1.114044 0.234745
v -0.070783 1.291192 0.261851
v -0.382463 1.292101 0.264607
v -0.388849 1.296643 0.235414
v -0.074722 1.286195 0.232463
v -0.375050 1.129404 -0.154855
v -0.366919 1.129404 0.226233
v -0.066444 1.114044 0.223716
v -0.364576 1.145169 -0.148614
v -0.356551 1.145169 0.219818
v -0.065859 1.129809 0.217383
v 0.120995 0.757480 0.260361
v 0.120995 0.798329 0.260361
v -0.080505 0.757480 -0.210587
v -0.047864 0.789828 -0.174937
v 0.120825 0.789828 0.173780
v 0.120767 0.757480 0.233169
v 0.132349 0.918359 0.260630
v 0.116212 0.912128 0.235714
v -0.055518 0.757480 -0.171009
v 0.112332 0.757480 0.222219
v -0.051589 0.773245 -0.164422
v 0.107095 0.773245 0.215934
v -0.293959 0.385555 0.263837
v -0.293959 0.426405 0.263837
v -0.362190 0.385555 -0.199688
v -0.347860 0.421258 -0.182439
v -0.294098 0.417904 0.175939
v -0.294187 0.385555 0.236645
v -0.310440 0.548332 0.263446
v -0.316864 0.548332 0.234181
v -0.319124 0.385555 -0.175997
v -0.281959 0.385555 0.225521
v -0.305668 0.401320 -0.162429
v -0.274357 0.401320 0.219129
v 0.275040 0.385555 0.259071
v 0.274149 0.417904 -0.160676
v 0.274858 0.417904 0.172978
v 0.274812 0.385555 0.231879
v 0.289735 0.548501 0.227509
v 0.258706 0.385555 0.220993
v 0.248703 0.401320 0.214748
v 0.275040 0.426405 0.259071
v 0.309057 0.388481 -0.204213
v 0.274255 0.547547 0.259052
v 0.258836 0.385555 -0.157173
v 0.252242 0.400293 -0.154758
v -0.135470 0.426405 0.262509
v -0.044014 0.547547 0.232825
v -0.119774 0.547547 0.262881
v -0.056266 0.385555 0.234652
v -0.137899 0.401320 -0.054719
v -0.135470 0.385555 0.262509
v -0.054387 0.436185 0.211738
v -0.135621 0.417904 0.175114
v -0.135698 0.385555 0.235317
v -0.122240 0.547547 0.233582
v -0.131362 0.385555 0.224260
v -0.128664 0.401320 0.217909
v -0.321733 0.798329 0.264069
v -0.321177 0.757480 -0.197826
v -0.341262 0.920176 0.263607
v -0.307149 0.757480 -0.159214
v -0.298582 0.773245 -0.152957
v -0.321733 0.757480 0.264069
v -0.321509 0.789828 -0.164363
v -0.321870 0.789828 0.176083
v -0.321960 0.757480 0.236878
v -0.349329 0.901093 0.228540
v -0.308350 0.757480 0.225742
v -0.299888 0.773245 0.219343
v -0.573443 1.170254 0.005892
v 0.475984 1.129404 -0.002898
v -0.573443 1.129404 0.005892
v 0.475984 1.170254 -0.002898
v -0.492240 1.155167 0.004866
v 0.394731 1.161752 0.000251
v -0.522947 1.117928 0.019323
v 0.425720 1.129404 0.011377
v -0.569751 1.281399 -0.007990
v 0.475984 1.298461 -0.002898
v -0.537384 1.291678 0.013307
v 0.415298 1.301619 0.043265
v -0.499211 1.117928 0.032979
v 0.402216 1.129404 0.025429
v -0.484535 1.133693 0.032856
v 0.387540 1.145169 0.025551
v -0.341591 1.133722 -0.130667
v -0.160317 1.144695 -0.153893
v -0.574062 0.798329 -0.068039
v 0.475365 0.757480 -0.076829
v -0.574062 0.757480 -0.068039
v 0.475365 0.798329 -0.076829
v -0.493033 0.789828 -0.061750
v 0.393042 0.789828 -0.129500
v -0.523608 0.757480 -0.059595
v 0.425059 0.757480 -0.067540
v -0.574062 0.912104 -0.068039
v 0.475365 0.926536 -0.076829
v -0.534843 0.904253 -0.086186
v 0.419141 0.908745 -0.068328
v -0.499797 0.757480 -0.036985
v 0.401630 0.757480 -0.044535
v -0.485102 0.773245 -0.034830
v 0.394371 0.773245 -0.131352
v 0.071480 0.773245 -0.031291
v -0.302030 0.773245 -0.036363
v -0.573007 0.426405 0.057926
v 0.476420 0.385555 0.049136
v -0.573007 0.385555 0.057926
v 0.476420 0.426405 0.049136
v -0.491682 0.417904 0.051751
v 0.395289 0.417904 0.047136
v -0.522482 0.385555 0.074867
v 0.426186 0.385555 0.066921
v -0.573007 0.554612 0.057926
v 0.476420 0.554612 0.049136
v -0.534338 0.554612 0.073634
v 0.434316 0.553703 0.066385
v -0.498799 0.385555 0.082220
v 0.402629 0.385555 0.074670
v -0.484136 0.401320 0.080494
v 0.387939 0.401320 0.073190
v -0.262303 0.390689 0.074639
v 0.255439 0.401320 0.047288
v -0.118565 0.399141 0.064939
v -0.572507 0.757480 0.117672
v 0.476920 0.798329 0.108883
v -0.521948 0.757480 0.138644
v 0.426720 0.757480 0.130698
v 0.476920 0.926536 0.108883
v -0.498325 0.757480 0.138761
v 0.403102 0.757480 0.131211
v -0.483678 0.773245 0.135194
v 0.388398 0.773245 0.127889
v 0.106378 0.773245 0.130251
v -0.300606 0.773245 0.133660
v -0.572507 0.798329 0.117672
v 0.476920 0.757480 0.108883
v -0.491042 0.789828 0.105585
v 0.395929 0.789828 0.100971
v -0.572507 0.926536 0.117672
v -0.533807 0.926536 0.137102
v 0.439574 0.918554 0.126074
v 0.310931 0.420570 -0.209289
v 0.428230 0.437760 -0.202840
v 0.275523 0.421862 0.201620
v 0.427324 0.426130 0.202893
v -0.522628 0.426130 0.057503
v -0.524783 0.426130 -0.199899
v 0.430305 0.429617 0.050223
v -0.080505 0.798054 -0.210587
v 0.423884 0.798054 -0.207845
v 0.120535 0.798054 0.205463
v 0.427324 0.798054 0.202893
v -0.523683 0.798054 -0.068461
v -0.524783 0.798054 -0.199899
v 0.424985 0.798054 -0.076407
v 0.423884 1.169979 -0.207845
v -0.067609 1.154619 0.207039
v 0.427324 1.169979 0.202893
v -0.523063 1.163393 0.005470
v -0.524783 1.169979 -0.199899
v 0.425604 1.169979 -0.002476
v -0.451770 1.169979 -0.194854
v -0.521343 1.169979 0.210839
v -0.383832 1.169979 0.209687
v -0.321177 0.798054 -0.197826
v -0.322192 0.798054 0.209171
v -0.362190 0.426130 -0.199688
v -0.521343 0.426130 0.210839
v -0.294419 0.426130 0.208938
v -0.056038 0.385555 0.261844
v -0.099403 0.432150 0.200526
v -0.521343 0.798054 0.210839
v -0.522127 0.798054 0.117250
v 0.426541 0.798054 0.109305
v -0.339993 1.155140 -0.134894
v -0.363834 1.154775 -0.150344
v -0.161081 1.155140 -0.153557
v 0.075845 0.783216 -0.031129
v -0.052146 0.784442 -0.163578
v -0.276678 0.404139 0.031711
v -0.326254 0.411687 -0.162452
v 0.281281 0.411292 0.020692
v 0.273915 0.411292 -0.150763
v -0.124979 0.411292 0.036560
v -0.146587 0.411292 -0.032474
v -0.324709 0.783216 -0.062626
v -0.321509 0.783216 -0.164363
v -0.383504 1.155140 0.176404
v -0.067305 1.139781 0.174759
v -0.492240 1.148555 0.004866
v 0.394731 1.155140 0.000251
v 0.119976 0.783216 0.102406
v -0.301440 0.783216 0.088854
v -0.493033 0.783216 -0.061750
v 0.393042 0.783216 -0.129500
v -0.294098 0.411292 0.175939
v 0.274858 0.411292 0.172978
v -0.135621 0.411292 0.175114
v -0.491682 0.411292 0.051751
v 0.395289 0.411292 0.047136
v 0.120825 0.783216 0.173780
v -0.321870 0.783216 0.176083
v -0.491042 0.783216 0.105585
v 0.395929 0.783216 0.100971
v 0.392684 0.411292 -0.171843
v 0.396778 0.411292 0.172344
v -0.494288 0.411292 -0.167228
v 0.389366 0.782239 -0.166172
v 0.396778 0.783216 0.172344
v -0.494288 0.783216 -0.167228
v 0.392684 1.155140 -0.171843
v 0.396778 1.155140 0.172344
v -0.494288 1.155140 -0.167228
v -0.490193 1.155140 0.176959
v -0.490193 0.411292 0.176959
v -0.490193 0.783216 0.176959
v 0.294152 1.129404 0.258911
v 0.293638 1.169979 -0.196194
v 0.293692 1.169979 0.204012
v 0.293924 1.129404 0.231719
v 0.288335 1.287558 0.229189
v 0.276866 1.129404 0.220841
v 0.266272 1.145169 0.214601
v 0.294152 1.170254 0.258911
v 0.293638 1.129404 -0.196194
v 0.294152 1.298461 0.258911
v 0.276997 1.129404 -0.157325
v 0.266508 1.145169 -0.150908
v 0.179948 1.136358 -0.113819
v 0.270767 1.161752 -0.160659
v 0.271476 1.161752 0.172996
v 0.191980 1.155140 -0.105903
v 0.266695 1.158150 -0.153582
v 0.271476 1.155140 0.172996
v 0.274390 0.757480 0.259076
v 0.273930 0.798054 0.204178
v 0.274162 0.757480 0.231885
v 0.287836 0.922448 0.229826
v 0.258088 0.757480 0.220998
v 0.248105 0.773245 0.214753
v 0.274390 0.798329 0.259076
v 0.280067 0.922448 0.259211
v 0.230854 0.773245 0.006142
v 0.247388 0.773245 0.129070
v 0.258802 0.789828 0.173062
v 0.232372 0.783216 0.007148
v 0.257952 0.783216 0.101688
v 0.258802 0.783216 0.173062
v -0.055886 0.385555 0.223628
v -0.055645 0.401320 0.217297
v -0.056038 0.426405 0.261844
v -0.043531 0.547547 0.262140
v -0.061173 0.401121 -0.126234
v -0.045506 0.401320 0.060912
v -0.056195 0.417904 0.174701
v -0.046370 0.411292 0.033490
v -0.063986 0.411292 -0.107520
v -0.056195 0.411292 0.174701
v -0.574085 0.426405 -0.070776
v 0.475342 0.385555 -0.079566
v -0.524101 0.434343 -0.066685
v 0.424863 0.416154 -0.084461
v -0.574085 0.554612 -0.070776
v -0.535483 0.554612 -0.063083
v 0.431801 0.536665 -0.075349
v -0.574085 0.385555 -0.070776
v 0.475342 0.426405 -0.079566
v -0.523633 0.385555 -0.062516
v 0.425035 0.385555 -0.070462
v 0.475342 0.554612 -0.079566
v -0.499819 0.385555 -0.039575
v 0.401608 0.385555 -0.047125
v -0.485123 0.401320 -0.037336
v 0.386953 0.401320 -0.044640
v -0.280532 0.392115 -0.046808
v 0.253841 0.400807 -0.053735
v -0.127804 0.401320 0.004731
v -0.492088 0.418637 -0.057599
v 0.393986 0.417904 -0.062353
v -0.300281 0.411489 -0.063788
v 0.277598 0.411292 -0.065035
v -0.135783 0.411292 0.002043
v -0.492088 0.412025 -0.057599
v 0.393986 0.411292 -0.062353
v -0.055178 0.411292 -0.037015
v -0.053340 0.401221 -0.032661
vn 0.0084 -0.0000 1.0000
vn -0.9793 0.2024 0.0082
vn -0.0084 0.0184 -0.9998
vn 0.9984 -0.0490 0.0281
vn -0.0008 -0.9957 -0.0930
vn -0.1933 0.9808 -0.0243
vn 0.0084 -0.0628 0.9980
vn 0.9998 -0.0159 -0.0070
vn 0.0128 0.0273 -0.9995
vn -0.9972 -0.0743 0.0075
vn -0.0000 -1.0000 -0.0000
vn -0.0000 1.0000 -0.0000
vn -0.9993 -0.0067 0.0362
vn -0.9966 0.0251 0.0791
vn -0.0084 0.0368 -0.9993
vn 0.0042 -0.0305 -0.9995
vn 0.9991 0.0400 -0.0154
vn 0.9998 -0.0178 -0.0085
vn 0.1878 0.0138 0.9821
vn 0.0650 0.0105 0.9978
vn 0.9998 -0.0181 -0.0108
vn 0.9998 -0.0177 -0.0064
vn 0.9993 0.0356 -0.0068
vn 0.9992 0.0369 -0.0122
vn -0.9998 0.0186 -0.0072
vn -0.9994 0.0152 -0.0307
vn -1.0000 -0.0006 0.0084
vn -0.9999 -0.0120 0.0087
vn -0.3653 0.9303 -0.0341
vn -0.0499 0.9946 -0.0915
vn -0.0004 -0.9986 -0.0524
vn 0.0004 -0.9987 0.0515
vn -0.9995 -0.0168 0.0256
vn -0.9994 -0.0318 0.0166
vn 0.9999 0.0016 -0.0113
vn 1.0000 -0.0000 -0.0084
vn 1.0000 0.0011 -0.0086
vn 1.0000 -0.0014 -0.0086
vn 0.9996 0.0290 -0.0043
vn -0.0084 -0.0000 -1.0000
vn -0.0084 -0.0436 -0.9990
vn -0.0084 -0.0229 -0.9997
vn -0.9999 -0.0000 0.0126
vn -0.9999 0.0016 0.0127
vn -1.0000 0.0006 0.0096
vn 0.0084 -0.0341 0.9994
vn 0.0084 0.0427 0.9991
vn 0.0084 -0.0110 0.9999
vn 0.9989 -0.0179 -0.0426
vn -0.0154 0.0006 -0.9999
vn -1.0000 -0.0000 0.0084
vn 0.0120 -0.0037 0.9999
vn -1.0000 -0.0000 0.0087
vn 0.9990 -0.0151 0.0421
vn 0.9988 -0.0349 -0.0330
vn -1.0000 -0.0003 0.0093
vn -1.0000 0.0013 0.0070
vn -1.0000 0.0003 0.0087
vn -1.0000 -0.0000 0.0081
vn 0.9997 0.0241 0.0025
vn 0.9996 0.0228 -0.0163
vn 0.9999 -0.0098 -0.0129
vn 1.0000 -0.0065 -0.0005
vn 0.9999 -0.0000 -0.0126
vn 1.0000 -0.0000 -0.0081
vn -0.2309 0.9728 -0.0183
vn 0.0177 0.9997 0.0174
vn 1.0000 -0.0013 -0.0097
vn 1.0000 -0.0021 -0.0006
vn -0.9733 0.2292 0.0082
vn -0.9919 0.1268 0.0083
vn -0.9994 -0.0344 0.0006
vn -0.0327 0.9993 -0.0180
vn -1.0000 -0.0012 0.0084
vn -0.9998 0.0185 0.0005
vn 0.9998 -0.0176 -0.0071
vn 0.9992 0.0381 -0.0152
vn 1.0000 -0.0006 -0.0055
vn -0.9992 0.0347 -0.0187
vn -0.0052 -0.0000 -1.0000
vn 0.9955 0.0945 -0.0083
vn -0.7319 -0.6814 0.0061
vn -0.0352 -0.1541 -0.9874
vn -0.3711 0.9286 0.0031
vn -0.0215 0.9998 0.0002
vn 0.0474 0.9150 -0.4007
vn -0.0082 0.2008 -0.9796
vn 0.0084 0.0002 1.0000
vn -0.0084 -0.0299 -0.9995
vn 0.9944 0.0917 -0.0534
vn -0.9931 0.0918 0.0734
vn 0.0039 -1.0000 -0.0000
vn -0.0078 -0.3725 -0.9280
vn 0.7319 -0.6814 -0.0061
vn 0.0581 -0.1360 0.9890
vn -0.9943 0.1064 0.0083
vn 0.9946 0.1031 -0.0083
vn -0.4408 0.8161 -0.3738
vn -0.8312 -0.2481 -0.4975
vn -0.2082 0.9781 0.0017
vn -0.0271 0.9996 -0.0107
vn -0.0082 0.1826 -0.9831
vn 0.0084 -0.0015 1.0000
vn 0.2031 -0.0000 -0.9792
vn -0.0084 -0.0561 -0.9984
vn 0.9950 0.0918 -0.0405
vn -0.9919 0.1269 0.0091
vn -0.6756 -0.2284 -0.7010
vn -0.9206 0.3818 0.0821
vn -0.9967 -0.0809 0.0083
vn -0.9999 -0.0000 0.0119
vn 0.9938 0.1112 -0.0048
vn -0.2088 -0.9767 -0.0494
vn -0.0891 -0.0000 -0.9960
vn 0.0516 0.9987 -0.0004
vn -0.2552 0.9638 -0.0773
vn -0.0721 0.9970 -0.0284
vn -0.9994 0.0318 -0.0115
vn -0.0082 0.1987 -0.9800
vn 0.9957 0.0920 -0.0083
vn -0.9957 0.0918 0.0089
vn -0.0302 -0.9982 0.0525
vn 0.0783 -0.9955 -0.0537
vn 0.7309 -0.6808 -0.0477
vn 0.0912 -0.3228 0.9421
vn -0.0489 -0.3259 0.9441
vn 0.0084 -0.3631 -0.9317
vn -0.0274 -0.3718 -0.9279
vn -0.2754 -0.9307 -0.2409
vn -0.0490 -0.9961 -0.0732
vn 0.0082 -0.0000 1.0000
vn 0.0088 -0.0002 1.0000
vn -0.0171 0.2086 -0.9779
vn 0.0010 0.1898 -0.9818
vn 0.0126 0.9999 -0.0052
vn 0.0343 0.9886 0.1464
vn 0.0689 -0.0000 -0.9976
vn 0.0938 -0.0000 0.9956
vn -0.0485 -0.9988 0.0004
vn 0.0431 -0.3887 0.9203
vn 0.8174 -0.2561 -0.5160
vn 0.0063 0.0048 1.0000
vn -0.0460 0.2067 -0.9773
vn -0.0135 0.8796 -0.4755
vn -0.0529 -0.0000 -0.9986
vn 0.9999 -0.0000 -0.0119
vn 0.0727 -0.4234 0.9030
vn -0.0480 -0.9965 -0.0689
vn 0.0387 0.9897 -0.1377
vn 0.0109 -0.0000 0.9999
vn -0.0497 0.2659 -0.9627
vn 0.0289 0.9995 -0.0120
vn 0.0013 -0.0000 -1.0000
vn -0.0773 0.7852 0.6144
vn -0.0146 0.1813 -0.9833
vn -0.0260 -0.9995 -0.0155
vn 0.2520 0.4986 -0.8294
vn -0.0013 -1.0000 0.0012
vn 0.0084 -0.0033 1.0000
vn -0.0024 0.9996 0.0291
vn 0.0001 -0.9999 0.0142
vn 0.0040 1.0000 -0.0009
vn 0.0030 0.0036 1.0000
vn 0.0638 -0.9979 -0.0108
vn 0.2117 0.9200 -0.3297
vn -0.0095 0.1869 -0.9823
vn -0.0166 -0.0000 0.9999
vn 0.0102 -0.0000 -0.9999
vn 0.1368 0.9905 -0.0098
vn 0.0084 -0.0077 0.9999
vn -0.0104 -0.3578 0.9337
vn -0.0081 0.2560 -0.9666
vn -0.0530 -0.9982 -0.0265
vn 0.0005 -0.9981 0.0609
vn 0.7396 -0.6723 0.0335
vn 0.0850 -0.9950 -0.0528
vn -0.9996 -0.0000 0.0283
vn 0.0007 0.9961 0.0887
vn -0.0283 -0.9982 0.0525
vn 0.9953 0.0946 -0.0225
vn -0.9957 0.0918 0.0083
vn -0.4602 0.7291 -0.5066
vn -0.8983 -0.2126 -0.3846
vn 0.0016 0.9813 0.1924
vn -0.6819 -0.7079 0.1842
vn 0.9956 0.0926 -0.0139
vn -0.9902 0.0912 -0.1060
vn 0.0006 -0.9973 0.0734
vn -0.9950 -0.0000 0.0998
vn 0.4697 0.2240 -0.8539
vn -0.3808 0.9246 0.0032
vn 0.9957 0.0918 -0.0083
vn -0.9979 0.0548 0.0348
vn 0.1609 0.9839 -0.0778
vn -0.3013 0.9535 0.0025
vn -0.8621 -0.5063 -0.0199
vn -0.9985 -0.0533 0.0084
vn 0.0056 0.9982 0.0590
vn -0.0253 0.9714 -0.2362
vn 0.4438 0.8960 -0.0149
vn -0.0144 0.9950 -0.0989
vn 0.9723 -0.2328 -0.0227
vn -0.0021 0.9670 -0.2546
vn 0.2598 0.9656 -0.0031
vn -0.2526 0.9676 0.0021
vn 0.0219 0.9708 0.2388
vn -0.0433 0.9729 -0.2270
vn 0.2583 0.9655 0.0339
vn -0.2527 0.9676 0.0021
vn -0.0180 0.9655 0.2599
vn -0.7176 -0.2067 -0.6650
vn -0.0012 0.9708 -0.2399
vn 0.0457 0.9681 -0.2463
vn 0.0127 0.9710 0.2388
vn -0.0013 0.9679 -0.2513
vn -0.0003 0.9697 0.2444
vn -0.0013 0.9703 -0.2419
vn 0.0806 0.1962 -0.9772
vn 0.0302 0.8957 -0.4436
vn -0.6708 0.2416 -0.7012
vn -0.0466 0.8982 -0.4371
vn -0.0025 0.9692 0.2464
vn -0.0013 0.9705 -0.2413
vn 0.2214 0.9746 -0.0331
vn -0.2572 0.9663 0.0031
vn 0.2551 0.9669 -0.0021
vn -0.2544 0.9671 0.0032
vn 0.2532 0.9674 -0.0021
vn -0.3175 0.9482 0.0038
vn -0.2603 0.9655 0.0031
vn -0.0496 0.9987 -0.0069
vn 0.0289 0.9985 -0.0460
vn -0.0470 0.9989 -0.0036
vn -0.5259 -0.1644 -0.8345
vn -0.0022 0.9993 0.0383
vn 0.0238 0.9997 -0.0003
vn -0.0046 1.0000 -0.0001
vn 0.7315 0.0874 -0.6762
vn -0.0327 0.9959 0.0847
vn 0.0030 1.0000 0.0067
vn 1.0000 -0.0000 -0.0037
vn -0.9999 -0.0000 0.0125
vn 0.0168 0.9010 0.4335
vn 0.2371 0.0618 -0.9695
vn -0.0147 0.8955 0.4448
vn 0.1269 0.3151 -0.9405
vn -0.0066 0.9988 0.0486
vn -0.0022 0.9661 -0.2580
vn 0.7762 -0.2952 -0.5570
vn 0.0914 -0.0000 0.9958
vn 0.0463 -0.9988 0.0146
vn -0.0194 0.1963 -0.9804
vn 0.4623 -0.0000 -0.8867
vn 0.5384 -0.2016 -0.8182
vn 0.0447 -0.9990 0.0038
vn 0.0080 0.0010 1.0000
vn -0.0052 0.9860 -0.1670
vn -0.1037 0.0244 -0.9943
vn 0.0425 -0.9991 -0.0004
vn -0.6426 0.0563 -0.7642
vn -0.0147 0.1958 -0.9805
vn 0.0084 -0.0030 1.0000
vn -0.0657 0.9772 -0.2018
vn -0.1083 0.5211 -0.8466
vn -0.0162 0.2020 -0.9793
vn 0.0084 -0.0042 1.0000
vn -0.0012 -1.0000 0.0002
vn 0.0276 -0.9988 -0.0404
vn 0.9998 -0.0000 -0.0201
vn -0.0022 1.0000 -0.0066
vn 0.0009 1.0000 0.0018
vn -0.3744 0.9140 0.1562
vn 0.2579 0.9662 0.0055
vn -0.9978 0.0631 -0.0210
vn 0.0556 -0.9975 -0.0446
vn -0.0000 -1.0000 0.0011
vn -0.0480 -0.9988 -0.0045
vn -0.9919 0.1270 -0.0090
vn 0.0837 0.0901 -0.9924
vn 0.9990 -0.0000 0.0437
vn -0.0005 0.9978 -0.0656
vn -0.1533 -0.0445 0.9872
vn 0.9981 -0.0338 0.0522
vn -0.0422 0.0210 -0.9989
vn -0.9984 -0.0517 -0.0229
vn -0.0507 0.9987 -0.0106
vn -1.0000 0.0005 0.0087
vn -0.9971 0.0268 0.0709
vn -0.0135 0.0372 -0.9992
vn -0.0314 -0.0311 -0.9990
vn 0.9991 0.0418 -0.0084
vn 0.9998 -0.0179 -0.0072
vn 0.0084 0.0285 0.9996
vn 0.1021 0.0066 0.9948
vn 0.9998 -0.0177 -0.0128
vn 0.9998 -0.0176 -0.0063
vn 0.9993 0.0369 -0.0093
vn 0.9992 0.0381 -0.0101
vn -0.9995 0.0151 -0.0273
vn -0.9997 0.0248 -0.0006
vn -0.9999 -0.0052 -0.0096
vn -0.9994 -0.0063 0.0333
vn -0.0430 0.9887 0.1433
vn -0.3474 0.9260 -0.1480
vn -0.9991 -0.0433 -0.0007
vn -0.9972 -0.0387 0.0636
vn 1.0000 -0.0007 -0.0096
vn 1.0000 -0.0001 -0.0073
vn 1.0000 -0.0000 -0.0094
vn 0.9997 0.0225 0.0065
vn -0.0474 -0.0190 -0.9987
vn -1.0000 -0.0000 0.0097
vn 0.0004 -0.0103 0.9999
vn 0.9995 -0.0302 0.0089
vn 0.0084 -0.0034 1.0000
vn -1.0000 -0.0001 0.0084
vn 0.9858 -0.1136 -0.1235
vn 0.9924 -0.1204 0.0266
vn -1.0000 -0.0000 0.0094
vn -1.0000 -0.0011 0.0073
vn -1.0000 0.0003 0.0084
vn 0.9997 0.0220 -0.0051
vn 0.9996 0.0256 -0.0085
vn 0.9997 -0.0022 -0.0263
vn 1.0000 -0.0000 -0.0012
vn 1.0000 -0.0001 -0.0082
vn 0.0056 0.9992 0.0403
vn -0.1942 0.9809 -0.0149
vn 0.9774 -0.2084 0.0342
vn 0.9973 -0.0574 -0.0447
vn -0.9986 -0.0000 -0.0527
vn -0.9764 0.2140 0.0295
vn -0.9993 -0.0277 -0.0235
vn 0.2434 0.9601 0.1376
vn -0.9999 -0.0006 0.0107
vn -0.9998 0.0162 0.0087
vn 0.9992 0.0399 -0.0084
vn 0.9985 -0.0161 0.0519
vn 0.2728 0.9318 -0.2393
vn -0.9947 0.0951 0.0379
vn 0.9957 0.0918 -0.0108
vn 0.0412 0.0920 -0.9949
vn -0.0035 0.9099 -0.4149
vn -0.3248 0.9408 0.0973
vn -0.0459 0.9989 0.0077
vn -0.0049 0.1956 -0.9807
vn -0.1007 -0.0000 -0.9949
vn 0.9938 0.1105 -0.0076
vn -0.9979 0.0644 0.0084
vn -0.9942 0.0754 0.0772
vn 0.0080 -1.0000 0.0050
vn 0.0784 -0.3144 0.9460
vn 0.3740 0.8674 -0.3281
vn -0.9954 0.0953 -0.0093
vn 0.9958 0.0918 0.0024
vn -0.7557 -0.0000 -0.6549
vn -0.0526 0.9956 -0.0778
vn 0.0675 0.9939 0.0872
vn -0.0277 0.9996 -0.0073
vn -0.0156 0.1946 -0.9808
vn -0.0038 -0.0048 1.0000
vn 0.0096 -0.0000 1.0000
vn -0.0083 -0.0762 -0.9971
vn -0.1649 -0.0000 -0.9863
vn 0.9942 0.1069 -0.0077
vn -0.9939 0.0916 -0.0616
vn -0.5266 -0.1457 -0.8375
vn -0.9506 -0.1744 0.2568
vn -0.9893 0.0671 0.1299
vn 0.9958 0.0918 0.0065
vn 0.0106 0.9998 0.0157
vn 0.0201 0.9993 -0.0308
vn -0.0029 0.9390 -0.3439
vn -0.0051 0.1956 -0.9807
vn 0.9957 0.0918 -0.0078
vn -0.9957 0.0920 0.0083
vn 0.0280 -0.9979 0.0587
vn 0.7389 -0.6723 -0.0459
vn 0.0889 -0.3054 0.9480
vn -0.0507 -0.3383 0.9397
vn 0.0095 -0.3731 -0.9278
vn -0.0263 -0.3619 -0.9318
vn 0.0033 -0.9981 -0.0609
vn -0.0511 -0.9987 -0.0043
vn 0.0084 -0.0002 1.0000
vn 0.0084 0.0010 1.0000
vn -0.0096 0.1892 -0.9819
vn -0.0026 0.1989 -0.9800
vn 0.0466 0.9885 0.1436
vn 0.0014 0.9858 -0.1678
vn 0.0983 0.8268 0.5538
vn 0.0426 -0.3942 0.9180
vn 0.7376 -0.0000 -0.6753
vn 0.0022 0.9698 -0.2439
vn 0.0300 -0.6666 0.7448
vn -0.0023 0.8968 -0.4425
vn 0.0084 0.0043 1.0000
vn -0.0022 0.2019 -0.9794
vn 0.0298 0.9995 -0.0065
vn -0.0598 -0.0000 0.9982
vn 0.0026 0.2000 -0.9798
vn -0.0056 -0.9977 -0.0681
vn 0.7027 0.4690 -0.5350
vn -0.0022 -1.0000 0.0051
vn 0.0097 0.0002 1.0000
vn 0.0299 -0.9996 0.0019
vn 0.0041 1.0000 -0.0003
vn 0.0590 -0.9940 -0.0920
vn 0.3828 0.7589 -0.5268
vn 0.2041 0.3067 -0.9297
vn -0.0037 0.8787 -0.4773
vn 0.0189 0.0068 0.9998
vn -0.0110 -0.3637 0.9314
vn 0.0107 0.1875 -0.9822
vn 0.0649 -0.9973 0.0353
vn 0.0394 -0.9986 0.0343
vn 0.7316 -0.6808 0.0354
vn 0.0297 -0.9994 0.0190
vn 0.0341 -0.9977 -0.0592
vn -0.9994 0.0342 0.0084
vn -0.3199 0.9470 0.0290
vn 0.0452 0.9989 -0.0089
vn -0.2221 -0.9750 0.0019
vn 0.9937 0.1117 -0.0119
vn -0.9955 -0.0500 -0.0803
vn -0.4440 0.7576 -0.4785
vn -0.8409 -0.0000 -0.5412
vn 0.2412 0.9649 0.1039
vn -0.2885 0.9535 0.0872
vn -0.9238 -0.3828 0.0077
vn 0.0599 -0.9980 0.0182
vn -0.9141 0.4054 0.0077
vn 0.7692 -0.0000 -0.6390
vn -0.0459 -0.9965 0.0695
vn -0.0697 0.9906 -0.1178
vn -0.9994 0.0305 0.0141
vn 0.0499 0.9938 -0.0994
vn -0.2204 0.9751 -0.0260
vn -0.9907 0.0933 0.0994
vn -0.1544 0.9028 0.4013
vn -0.0007 0.9906 -0.1369
vn 0.3193 0.9457 -0.0599
vn 0.9325 0.0192 0.3607
vn 0.2626 0.9649 -0.0022
vn -0.2527 0.9675 0.0021
vn 0.0215 0.9704 0.2404
vn -0.0452 0.9679 -0.2471
vn 0.2310 0.9725 0.0293
vn -0.2572 0.9664 0.0031
vn -0.0158 0.9647 0.2630
vn -0.8403 -0.0978 -0.5333
vn -0.0020 0.9713 -0.2377
vn 0.0451 0.9699 -0.2393
vn 0.0084 0.9760 0.2175
vn -0.0020 0.9705 -0.2413
vn 0.0057 0.9636 0.2674
vn -0.8586 0.4357 0.2703
vn -0.0025 0.8738 -0.4863
vn -0.7952 -0.0492 -0.6044
vn -0.0040 0.9711 0.2387
vn 0.2569 0.9656 -0.0400
vn -0.2621 0.9650 0.0022
vn -0.2601 0.9656 0.0022
vn 0.2564 0.9666 -0.0031
vn -0.2754 0.9612 0.0166
vn 0.2548 0.9670 -0.0030
vn -0.0002 0.9993 -0.0382
vn 0.0487 0.9983 0.0328
vn -0.0003 0.9988 -0.0496
vn -0.3750 0.5536 -0.7436
vn -0.0269 0.9995 0.0178
vn -0.0181 0.9992 0.0346
vn -0.0008 0.9999 0.0100
vn 0.6869 -0.2899 -0.6664
vn -0.0476 0.9988 0.0149
vn 0.0394 0.9970 0.0670
vn -0.0029 -0.0000 1.0000
vn 0.2278 -0.0840 -0.9701
vn 0.1033 -0.0000 0.9946
vn 0.1178 0.0405 -0.9922
vn -0.0452 0.9989 0.0129
vn -0.0013 0.9668 -0.2555
vn 0.9342 -0.1319 -0.3315
vn 0.0922 0.8649 0.4934
vn -0.0204 -0.9992 -0.0349
vn -0.0082 0.2090 -0.9779
vn 0.3521 -0.2289 -0.9075
vn 0.5360 -0.1896 -0.8226
vn 0.0418 -0.9970 -0.0656
vn -0.0215 0.9400 -0.3406
vn -0.1139 -0.1841 -0.9763
vn -0.6381 0.1729 -0.7503
vn -0.0013 0.9669 -0.2550
vn -0.0082 0.2028 -0.9792
vn 0.0096 -0.0015 1.0000
vn -0.0415 0.8752 -0.4819
vn -0.0220 0.1880 -0.9819
vn 0.0097 -0.0034 0.9999
vn -0.0015 -1.0000 0.0012
vn -0.0008 -1.0000 0.0011
vn 0.0028 1.0000 0.0013
vn 0.0014 1.0000 -0.0004
vn 0.0561 0.9984 -0.0007
vn 0.4273 0.9025 0.0546
vn -0.9981 0.0588 -0.0177
vn -0.3692 0.9224 0.1139
vn 0.0675 -0.9975 -0.0218
vn -0.0010 -1.0000 0.0051
vn -0.0449 -0.9990 0.0004
vn 0.0035 -1.0000 0.0050
vn 0.9955 0.0944 -0.0056
vt 0.319938 0.081173
vt 0.320495 0.081870
vt 0.319937 0.081869
vt 0.317581 0.095106
vt 0.320120 0.094525
vt 0.320134 0.095091
vt 0.325611 0.084090
vt 0.326056 0.084651
vt 0.325499 0.084656
vt 0.316022 0.085595
vt 0.318105 0.086270
vt 0.316294 0.088088
vt 0.314512 0.103026
vt 0.315064 0.100769
vt 0.315070 0.103026
vt 0.319232 0.105330
vt 0.319699 0.103196
vt 0.319776 0.105285
vt 0.336380 0.085936
vt 0.336009 0.082507
vt 0.336567 0.082507
vt 0.324877 0.087808
vt 0.326297 0.083128
vt 0.326281 0.087941
vt 0.314533 0.083949
vt 0.313971 0.079110
vt 0.314681 0.079290
vt 0.324869 0.086108
vt 0.323476 0.084245
vt 0.326038 0.084273
vt 0.311025 0.093942
vt 0.311583 0.092665
vt 0.311583 0.093942
vt 0.312711 0.100103
vt 0.312196 0.097541
vt 0.312752 0.097550
vt 0.326007 0.103837
vt 0.323609 0.094568
vt 0.324835 0.093293
vt 0.323692 0.087671
vt 0.313979 0.098738
vt 0.314352 0.094376
vt 0.314536 0.098737
vt 0.314153 0.084293
vt 0.326309 0.102597
vt 0.325193 0.098236
vt 0.326387 0.098092
vt 0.336567 0.102233
vt 0.336180 0.097374
vt 0.336561 0.092832
vt 0.335999 0.087445
vt 0.330145 0.097671
vt 0.332471 0.087808
vt 0.332555 0.097738
vt 0.327685 0.088074
vt 0.330139 0.087620
vt 0.330161 0.102464
vt 0.332693 0.102597
vt 0.327581 0.097948
vt 0.326978 0.099640
vt 0.328479 0.090985
vt 0.329776 0.099365
vt 0.326569 0.087829
vt 0.328583 0.103969
vt 0.329860 0.103969
vt 0.312703 0.103948
vt 0.312068 0.102734
vt 0.312649 0.102658
vt 0.312157 0.100103
vt 0.311025 0.100325
vt 0.311582 0.097792
vt 0.311583 0.100325
vt 0.311025 0.095219
vt 0.311583 0.095219
vt 0.329919 0.084524
vt 0.328667 0.084705
vt 0.332693 0.082871
vt 0.327586 0.083107
vt 0.330139 0.082871
vt 0.315462 0.105151
vt 0.318110 0.102383
vt 0.317993 0.105299
vt 0.315473 0.099598
vt 0.317957 0.098237
vt 0.315484 0.097790
vt 0.318036 0.093606
vt 0.325621 0.101055
vt 0.326198 0.103469
vt 0.325640 0.103473
vt 0.325590 0.096490
vt 0.326179 0.101050
vt 0.326004 0.091987
vt 0.326148 0.096485
vt 0.317678 0.111572
vt 0.319947 0.113910
vt 0.317694 0.114134
vt 0.320105 0.106925
vt 0.319932 0.111492
vt 0.317649 0.106641
vt 0.320173 0.101695
vt 0.319938 0.097981
vt 0.320490 0.100899
vt 0.319932 0.100899
vt 0.320489 0.093837
vt 0.320495 0.097982
vt 0.320067 0.089205
vt 0.319931 0.093837
vt 0.316706 0.091970
vt 0.325551 0.091259
vt 0.317620 0.101710
vt 0.320493 0.088463
vt 0.312535 0.101729
vt 0.315027 0.095122
vt 0.315066 0.101725
vt 0.310445 0.086225
vt 0.312910 0.090403
vt 0.310399 0.093561
vt 0.315096 0.106656
vt 0.312622 0.107103
vt 0.315125 0.111587
vt 0.312470 0.111248
vt 0.312587 0.114164
vt 0.315117 0.114016
vt 0.312182 0.099954
vt 0.310475 0.098060
vt 0.310647 0.102627
vt 0.312901 0.102707
vt 0.310633 0.105045
vt 0.312886 0.105269
vt 0.319143 0.108289
vt 0.319743 0.110780
vt 0.319143 0.110840
vt 0.319628 0.108034
vt 0.314506 0.108132
vt 0.315066 0.105600
vt 0.315064 0.108133
vt 0.314508 0.105599
vt 0.313271 0.085646
vt 0.312983 0.088829
vt 0.312474 0.095137
vt 0.314609 0.094566
vt 0.317570 0.094497
vt 0.331286 0.089523
vt 0.331171 0.084343
vt 0.312758 0.105238
vt 0.312068 0.103985
vt 0.330970 0.099509
vt 0.331136 0.103969
vt 0.327586 0.102597
vt 0.322402 0.131518
vt 0.321825 0.132229
vt 0.321825 0.131518
vt 0.306481 0.146658
vt 0.305904 0.148474
vt 0.305904 0.146658
vt 0.302064 0.131450
vt 0.302641 0.130820
vt 0.302641 0.131450
vt 0.302641 0.137248
vt 0.302064 0.138022
vt 0.302064 0.137248
vt 0.328009 0.134452
vt 0.326192 0.135163
vt 0.326070 0.134452
vt 0.304450 0.133267
vt 0.302641 0.133267
vt 0.307029 0.138219
vt 0.307659 0.138763
vt 0.307029 0.138763
vt 0.321820 0.134452
vt 0.321437 0.135163
vt 0.321437 0.134452
vt 0.302641 0.135083
vt 0.302064 0.135083
vt 0.306481 0.141902
vt 0.305904 0.142677
vt 0.305904 0.141902
vt 0.321437 0.120351
vt 0.321820 0.121062
vt 0.321437 0.121062
vt 0.321437 0.132296
vt 0.306144 0.113160
vt 0.307946 0.115086
vt 0.306194 0.115315
vt 0.321750 0.116055
vt 0.321843 0.117776
vt 0.321750 0.117776
vt 0.304450 0.138022
vt 0.302641 0.138022
vt 0.313266 0.141867
vt 0.314966 0.139987
vt 0.314966 0.141917
vt 0.326192 0.120351
vt 0.328009 0.121062
vt 0.326070 0.121062
vt 0.300957 0.121777
vt 0.301178 0.119818
vt 0.301178 0.121799
vt 0.307036 0.123951
vt 0.307666 0.124495
vt 0.307036 0.124495
vt 0.312232 0.117585
vt 0.311776 0.119191
vt 0.311776 0.117570
vt 0.322402 0.117418
vt 0.321825 0.118129
vt 0.321825 0.117418
vt 0.322402 0.128316
vt 0.321825 0.128316
vt 0.300960 0.124502
vt 0.300469 0.123950
vt 0.301244 0.123950
vt 0.303168 0.124547
vt 0.303406 0.123951
vt 0.301236 0.138761
vt 0.303173 0.138218
vt 0.303399 0.138762
vt 0.300462 0.138761
vt 0.300876 0.138217
vt 0.300915 0.126606
vt 0.300469 0.124661
vt 0.306481 0.142677
vt 0.308290 0.144841
vt 0.306481 0.144841
vt 0.324210 0.118129
vt 0.322402 0.118129
vt 0.317334 0.114667
vt 0.319065 0.117542
vt 0.317358 0.117869
vt 0.324210 0.132229
vt 0.322402 0.132229
vt 0.304450 0.130820
vt 0.304450 0.131450
vt 0.324111 0.120296
vt 0.322402 0.120285
vt 0.308290 0.142677
vt 0.322492 0.128229
vt 0.323203 0.128805
vt 0.322492 0.128805
vt 0.323203 0.128229
vt 0.322659 0.126421
vt 0.323203 0.126421
vt 0.312601 0.139511
vt 0.313312 0.140087
vt 0.312601 0.140087
vt 0.313129 0.137869
vt 0.313312 0.139511
vt 0.313150 0.139987
vt 0.312577 0.139357
vt 0.313154 0.139357
vt 0.306481 0.148474
vt 0.305904 0.149105
vt 0.308290 0.148474
vt 0.306481 0.149105
vt 0.314798 0.139308
vt 0.306309 0.118886
vt 0.307959 0.119588
vt 0.306148 0.119588
vt 0.328639 0.120351
vt 0.328639 0.121062
vt 0.328009 0.135163
vt 0.328639 0.134452
vt 0.328639 0.135163
vt 0.305572 0.118957
vt 0.305572 0.119588
vt 0.327462 0.121396
vt 0.327986 0.123357
vt 0.327647 0.123962
vt 0.321976 0.134118
vt 0.321820 0.132296
vt 0.321976 0.132070
vt 0.321976 0.121396
vt 0.324131 0.121062
vt 0.324024 0.121396
vt 0.327462 0.134118
vt 0.325743 0.134118
vt 0.305827 0.178167
vt 0.307346 0.180045
vt 0.305683 0.180045
vt 0.316939 0.140161
vt 0.316714 0.142997
vt 0.316714 0.140054
vt 0.300957 0.126934
vt 0.301176 0.125304
vt 0.301176 0.126967
vt 0.304231 0.139326
vt 0.304006 0.141120
vt 0.304022 0.139232
vt 0.308527 0.132834
vt 0.307951 0.133545
vt 0.307951 0.132834
vt 0.308866 0.146619
vt 0.308290 0.148474
vt 0.308290 0.146619
vt 0.304450 0.131450
vt 0.305026 0.130820
vt 0.305026 0.131450
vt 0.305026 0.137248
vt 0.304450 0.138022
vt 0.304450 0.137248
vt 0.322628 0.135077
vt 0.320773 0.135788
vt 0.320647 0.135077
vt 0.306836 0.133306
vt 0.305026 0.133306
vt 0.315312 0.132718
vt 0.315943 0.133261
vt 0.315313 0.133262
vt 0.316440 0.135077
vt 0.316056 0.135788
vt 0.316056 0.135077
vt 0.305026 0.135927
vt 0.304450 0.135927
vt 0.308866 0.141902
vt 0.308290 0.142677
vt 0.308290 0.141902
vt 0.316056 0.120976
vt 0.316440 0.121687
vt 0.316056 0.121687
vt 0.316056 0.132912
vt 0.307322 0.139594
vt 0.309024 0.140678
vt 0.307322 0.140915
vt 0.304983 0.116734
vt 0.304889 0.115228
vt 0.304982 0.115228
vt 0.306836 0.138022
vt 0.305026 0.138022
vt 0.310952 0.145461
vt 0.309517 0.143797
vt 0.311027 0.143608
vt 0.320773 0.120976
vt 0.322628 0.121687
vt 0.320647 0.121687
vt 0.318350 0.118781
vt 0.318571 0.117619
vt 0.318571 0.118829
vt 0.315302 0.118994
vt 0.315932 0.118450
vt 0.316058 0.118974
vt 0.307202 0.144885
vt 0.306750 0.145391
vt 0.306747 0.144844
vt 0.308527 0.118734
vt 0.307951 0.119445
vt 0.307951 0.118734
vt 0.308527 0.130023
vt 0.307951 0.130023
vt 0.309149 0.119001
vt 0.308735 0.118457
vt 0.309509 0.118456
vt 0.310596 0.118985
vt 0.310829 0.118455
vt 0.309520 0.133267
vt 0.310561 0.132722
vt 0.310840 0.133266
vt 0.308746 0.133268
vt 0.309159 0.132724
vt 0.309150 0.121140
vt 0.308735 0.119168
vt 0.308866 0.142677
vt 0.310676 0.143998
vt 0.308866 0.143998
vt 0.310336 0.119444
vt 0.308527 0.119445
vt 0.312577 0.132772
vt 0.311134 0.130343
vt 0.312577 0.129962
vt 0.310336 0.133545
vt 0.308527 0.133545
vt 0.306836 0.130820
vt 0.306836 0.131450
vt 0.310278 0.121529
vt 0.308527 0.121610
vt 0.310676 0.142677
vt 0.313247 0.142860
vt 0.313958 0.143436
vt 0.313247 0.143436
vt 0.313958 0.142860
vt 0.313435 0.141380
vt 0.313958 0.141052
vt 0.316012 0.143249
vt 0.316723 0.143825
vt 0.316012 0.143825
vt 0.316556 0.141707
vt 0.316723 0.143249
vt 0.311498 0.146115
vt 0.310922 0.146091
vt 0.308866 0.148474
vt 0.308290 0.149105
vt 0.310676 0.148474
vt 0.308866 0.149105
vt 0.309377 0.146115
vt 0.309137 0.145387
vt 0.307322 0.145391
vt 0.308805 0.146136
vt 0.307326 0.146022
vt 0.323258 0.120976
vt 0.323258 0.121687
vt 0.322628 0.135788
vt 0.323258 0.135077
vt 0.323258 0.135788
vt 0.306750 0.146022
vt 0.322081 0.122021
vt 0.322574 0.124561
vt 0.322028 0.124754
vt 0.316595 0.134743
vt 0.316440 0.132912
vt 0.316595 0.132686
vt 0.316595 0.122021
vt 0.317850 0.121687
vt 0.317845 0.122021
vt 0.322081 0.134743
vt 0.320326 0.134743
vt 0.310169 0.145233
vt 0.310098 0.144857
vt 0.310169 0.144761
vt 0.307366 0.126361
vt 0.307140 0.128826
vt 0.307140 0.126242
vt 0.307627 0.128964
vt 0.307846 0.127298
vt 0.307846 0.128996
vt 0.318571 0.122927
vt 0.318712 0.122461
vt 0.318698 0.122979
vt 0.308788 0.144356
vt 0.308212 0.145067
vt 0.308212 0.144356
vt 0.326754 0.129495
vt 0.326178 0.132394
vt 0.326178 0.129495
vt 0.309130 0.134530
vt 0.309707 0.133899
vt 0.309707 0.134530
vt 0.309707 0.140327
vt 0.309130 0.141102
vt 0.309130 0.140327
vt 0.316422 0.135855
vt 0.313523 0.136566
vt 0.313328 0.135855
vt 0.311516 0.137428
vt 0.309707 0.137428
vt 0.317663 0.137786
vt 0.318293 0.138330
vt 0.317663 0.138330
vt 0.310233 0.135855
vt 0.309850 0.136566
vt 0.309850 0.135855
vt 0.309130 0.137428
vt 0.326754 0.125822
vt 0.326178 0.126596
vt 0.326178 0.125822
vt 0.309850 0.121754
vt 0.310233 0.122465
vt 0.309850 0.122465
vt 0.309850 0.133969
vt 0.318298 0.136555
vt 0.320177 0.138790
vt 0.318327 0.139453
vt 0.302793 0.143734
vt 0.302700 0.141305
vt 0.302793 0.141305
vt 0.311516 0.141102
vt 0.309707 0.141102
vt 0.312400 0.137868
vt 0.314121 0.140875
vt 0.312307 0.140766
vt 0.313523 0.121754
vt 0.316422 0.122465
vt 0.313327 0.122465
vt 0.307627 0.124465
vt 0.307848 0.121811
vt 0.307848 0.124465
vt 0.317663 0.123519
vt 0.318293 0.124063
vt 0.317663 0.124063
vt 0.318815 0.118238
vt 0.319387 0.116402
vt 0.319387 0.118240
vt 0.308788 0.130256
vt 0.308212 0.130967
vt 0.308212 0.130256
vt 0.308788 0.142415
vt 0.308212 0.142415
vt 0.311510 0.124064
vt 0.311096 0.123521
vt 0.311871 0.123520
vt 0.314121 0.124381
vt 0.314767 0.123520
vt 0.311871 0.138332
vt 0.314662 0.137823
vt 0.314972 0.138279
vt 0.311096 0.138332
vt 0.311510 0.137788
vt 0.311522 0.126197
vt 0.311096 0.124232
vt 0.328563 0.126596
vt 0.328323 0.129691
vt 0.310597 0.130967
vt 0.308788 0.130967
vt 0.318556 0.143817
vt 0.316783 0.141944
vt 0.318556 0.141876
vt 0.310597 0.145067
vt 0.308788 0.145067
vt 0.311516 0.133899
vt 0.311516 0.134530
vt 0.310597 0.132853
vt 0.308788 0.132853
vt 0.326754 0.126596
vt 0.312536 0.142860
vt 0.313247 0.143436
vt 0.312536 0.143436
vt 0.313247 0.142860
vt 0.312704 0.141052
vt 0.313247 0.141052
vt 0.322492 0.130798
vt 0.323203 0.131374
vt 0.322492 0.131374
vt 0.323036 0.128990
vt 0.323203 0.130798
vt 0.311827 0.137237
vt 0.312404 0.137237
vt 0.326754 0.132393
vt 0.326178 0.133024
vt 0.328563 0.132393
vt 0.326754 0.133024
vt 0.314216 0.137868
vt 0.314216 0.137237
vt 0.320170 0.142334
vt 0.318366 0.142982
vt 0.318356 0.142352
vt 0.317052 0.121754
vt 0.317052 0.122465
vt 0.316422 0.136566
vt 0.317052 0.135855
vt 0.317052 0.136566
vt 0.317789 0.142988
vt 0.317783 0.142357
vt 0.315875 0.122799
vt 0.316342 0.123495
vt 0.315768 0.124573
vt 0.310389 0.135521
vt 0.310233 0.133969
vt 0.310389 0.133729
vt 0.313132 0.122799
vt 0.315875 0.135521
vt 0.313132 0.135521
vt 0.302269 0.183006
vt 0.299765 0.184693
vt 0.301756 0.181780
vt 0.302250 0.130283
vt 0.302024 0.131921
vt 0.302024 0.130137
vt 0.318806 0.120274
vt 0.319186 0.117620
vt 0.319024 0.120274
vt 0.319723 0.147467
vt 0.319499 0.149005
vt 0.319499 0.147317
vt 0.310421 0.131840
vt 0.310645 0.133407
vt 0.310421 0.133615
vt 0.302466 0.126043
vt 0.302024 0.121347
vt 0.302250 0.121198
vt 0.302240 0.126035
vt 0.299764 0.172385
vt 0.302312 0.174099
vt 0.302055 0.174421
vt 0.310389 0.122799
vt 0.310233 0.124406
vt 0.310389 0.124643
vt 0.310233 0.128869
vt 0.310507 0.142402
vt 0.310597 0.144356
vt 0.310494 0.138003
vt 0.318773 0.137413
vt 0.316911 0.132387
vt 0.318556 0.132314
vt 0.316931 0.137511
vt 0.311096 0.137621
vt 0.311509 0.135754
vt 0.311100 0.135668
vt 0.311520 0.131321
vt 0.308212 0.132853
vt 0.308788 0.137952
vt 0.307995 0.137952
vt 0.311152 0.141313
vt 0.310589 0.142350
vt 0.310580 0.141320
vt 0.306275 0.167223
vt 0.306365 0.168898
vt 0.306272 0.168897
vt 0.309850 0.124406
vt 0.309849 0.128869
vt 0.317183 0.124637
vt 0.316956 0.121204
vt 0.317181 0.121084
vt 0.307366 0.120424
vt 0.307140 0.118508
vt 0.307366 0.118367
vt 0.311463 0.171235
vt 0.313241 0.174785
vt 0.311348 0.176506
vt 0.316595 0.124691
vt 0.316440 0.130747
vt 0.316440 0.124498
vt 0.313121 0.141651
vt 0.313575 0.142152
vt 0.313121 0.142212
vt 0.310221 0.123614
vt 0.310246 0.130298
vt 0.312577 0.121549
vt 0.310985 0.123772
vt 0.310837 0.121350
vt 0.308756 0.130023
vt 0.309095 0.123564
vt 0.309262 0.130134
vt 0.307951 0.123775
vt 0.307951 0.121610
vt 0.307030 0.138342
vt 0.307599 0.134946
vt 0.307602 0.138342
vt 0.324421 0.128995
vt 0.324421 0.131424
vt 0.324328 0.128995
vt 0.316056 0.124498
vt 0.316056 0.130747
vt 0.301191 0.140540
vt 0.300964 0.138179
vt 0.301188 0.137973
vt 0.316939 0.138035
vt 0.316714 0.137997
vt 0.305683 0.167736
vt 0.307427 0.170284
vt 0.305792 0.170625
vt 0.321820 0.124265
vt 0.316894 0.119847
vt 0.316391 0.124498
vt 0.316488 0.119842
vt 0.324122 0.128548
vt 0.324210 0.131518
vt 0.319074 0.120289
vt 0.317466 0.120620
vt 0.300463 0.138050
vt 0.300888 0.135168
vt 0.321825 0.126079
vt 0.323529 0.119354
vt 0.322967 0.121651
vt 0.322957 0.119356
vt 0.289598 0.170298
vt 0.289503 0.172105
vt 0.289503 0.170267
vt 0.321437 0.124265
vt 0.321825 0.120285
vt 0.317432 0.128055
vt 0.319131 0.126103
vt 0.319015 0.128209
vt 0.327971 0.132831
vt 0.316939 0.132530
vt 0.316714 0.130690
vt 0.316939 0.130482
vt 0.322957 0.122260
vt 0.323318 0.122159
vt 0.323173 0.122450
vt 0.306888 0.173730
vt 0.305566 0.173830
vt 0.321820 0.127623
vt 0.321976 0.127630
vt 0.324111 0.124781
vt 0.322402 0.124958
vt 0.300878 0.131317
vt 0.300472 0.126829
vt 0.310074 0.179871
vt 0.309616 0.178615
vt 0.310612 0.178727
vt 0.321656 0.126197
vt 0.321750 0.128573
vt 0.321656 0.128573
vt 0.321437 0.127623
vt 0.321437 0.126502
vt 0.302793 0.146163
vt 0.302700 0.143734
vt 0.304196 0.172898
vt 0.302039 0.173767
vt 0.302039 0.172737
vt 0.300475 0.135081
vt 0.300876 0.132421
vt 0.324111 0.125857
vt 0.321976 0.124439
vt 0.321820 0.126502
vt 0.305888 0.172639
vt 0.305047 0.172774
vt 0.312426 0.182243
vt 0.310562 0.180018
vt 0.310880 0.179893
vt 0.321825 0.124958
vt 0.322402 0.126079
vt 0.317522 0.121256
vt 0.319082 0.121393
vt 0.309585 0.179725
vt 0.307626 0.178777
vt 0.316939 0.136970
vt 0.316714 0.136967
vt 0.301596 0.119453
vt 0.301502 0.117015
vt 0.301596 0.117015
vt 0.307026 0.141215
vt 0.307599 0.141216
vt 0.308735 0.132141
vt 0.310259 0.132417
vt 0.313162 0.168652
vt 0.311463 0.168652
vt 0.316958 0.118558
vt 0.317183 0.118351
vt 0.307140 0.120499
vt 0.322726 0.127959
vt 0.322165 0.128307
vt 0.312577 0.123714
vt 0.308527 0.123775
vt 0.324421 0.126566
vt 0.324514 0.126566
vt 0.321750 0.123569
vt 0.321843 0.125805
vt 0.321750 0.125805
vt 0.297111 0.174169
vt 0.302362 0.176982
vt 0.297110 0.178272
vt 0.297111 0.172384
vt 0.319186 0.122927
vt 0.318967 0.123017
vt 0.297111 0.182959
vt 0.297111 0.184693
vt 0.307848 0.127118
vt 0.307627 0.127208
vt 0.310625 0.121754
vt 0.312400 0.143665
vt 0.314216 0.144026
vt 0.304987 0.127746
vt 0.304893 0.125977
vt 0.304986 0.125977
vt 0.311516 0.140327
vt 0.310625 0.136566
vt 0.309064 0.168651
vt 0.309064 0.171235
vt 0.311607 0.178840
vt 0.299524 0.114186
vt 0.299980 0.113688
vt 0.299980 0.114235
vt 0.309064 0.176979
vt 0.307846 0.131396
vt 0.307627 0.131444
vt 0.310801 0.178751
vt 0.309064 0.180960
vt 0.309064 0.178970
vt 0.317850 0.135077
vt 0.317845 0.134743
vt 0.310472 0.146619
vt 0.313722 0.132710
vt 0.313448 0.118452
vt 0.315302 0.118450
vt 0.318350 0.123017
vt 0.318572 0.122487
vt 0.318151 0.120976
vt 0.311134 0.140989
vt 0.309331 0.140636
vt 0.321843 0.122448
vt 0.321750 0.122448
vt 0.308884 0.143423
vt 0.309137 0.145392
vt 0.304450 0.133306
vt 0.306836 0.135927
vt 0.318151 0.135788
vt 0.308290 0.143998
vt 0.304076 0.170868
vt 0.302039 0.170681
vt 0.318805 0.122461
vt 0.323462 0.121852
vt 0.304245 0.173929
vt 0.302039 0.178063
vt 0.318806 0.119208
vt 0.318712 0.118201
vt 0.318806 0.118201
vt 0.304020 0.167736
vt 0.302039 0.167736
vt 0.300957 0.128653
vt 0.301176 0.130612
vt 0.300957 0.130701
vt 0.304020 0.180045
vt 0.302039 0.180045
vt 0.324131 0.134452
vt 0.325743 0.121396
vt 0.308290 0.146658
vt 0.305101 0.138218
vt 0.305214 0.138762
vt 0.305177 0.124568
vt 0.305221 0.123951
vt 0.301178 0.123462
vt 0.300957 0.123496
vt 0.322211 0.120351
vt 0.313150 0.145784
vt 0.314966 0.143847
vt 0.314966 0.146146
vt 0.300600 0.129134
vt 0.300507 0.127646
vt 0.300600 0.127646
vt 0.307705 0.117087
vt 0.306003 0.117216
vt 0.302064 0.133267
vt 0.304450 0.137248
vt 0.322211 0.135163
vt 0.305904 0.144841
vt 0.316831 0.135788
vt 0.306836 0.137248
vt 0.311188 0.139669
vt 0.309388 0.139234
vt 0.316831 0.120976
vt 0.307854 0.178970
vt 0.307854 0.180960
vt 0.307846 0.132605
vt 0.307627 0.132694
vt 0.307854 0.176979
vt 0.307854 0.171235
vt 0.307854 0.168651
vt 0.321843 0.128573
vt 0.321750 0.128573
vt 0.300600 0.132504
vt 0.300507 0.131496
vt 0.300600 0.131496
vt 0.320326 0.122021
vt 0.313467 0.133265
vt 0.313345 0.119249
vt 0.318350 0.121261
vt 0.321656 0.116055
vt 0.321750 0.118002
vt 0.321656 0.118002
vt 0.307322 0.143536
vt 0.321738 0.118127
vt 0.322277 0.119275
vt 0.321599 0.119802
vt 0.316884 0.118127
vt 0.316443 0.117700
vt 0.321816 0.130645
vt 0.320394 0.131081
vt 0.320270 0.130632
vt 0.320194 0.118127
vt 0.318594 0.117632
vt 0.320501 0.117688
vt 0.313344 0.142303
vt 0.322979 0.116399
vt 0.322534 0.118353
vt 0.322534 0.116188
vt 0.327867 0.126985
vt 0.326473 0.127411
vt 0.326379 0.126981
vt 0.327230 0.114468
vt 0.328326 0.114022
vt 0.327827 0.114467
vt 0.328069 0.128990
vt 0.328419 0.130384
vt 0.327926 0.130712
vt 0.323220 0.130743
vt 0.322784 0.135533
vt 0.322776 0.130432
vt 0.328109 0.141508
vt 0.325676 0.141935
vt 0.325685 0.141501
vt 0.325672 0.128545
vt 0.328568 0.128545
vt 0.328488 0.140904
vt 0.328568 0.141934
vt 0.299758 0.114324
vt 0.323254 0.141492
vt 0.322776 0.139995
vt 0.323250 0.139987
vt 0.323244 0.135526
vt 0.327806 0.124547
vt 0.328425 0.121140
vt 0.328273 0.124538
vt 0.323005 0.124594
vt 0.322985 0.118346
vt 0.322248 0.128775
vt 0.322277 0.131069
vt 0.316962 0.130645
vt 0.316475 0.127886
vt 0.316945 0.127877
vt 0.299732 0.199104
vt 0.299732 0.199522
vt 0.299547 0.199392
vt 0.316924 0.124520
vt 0.316559 0.125132
vt 0.299980 0.114371
vt 0.300427 0.113785
vt 0.300434 0.114447
vt 0.316931 0.125640
vt 0.328326 0.127411
vt 0.323013 0.126970
vt 0.322534 0.124602
vt 0.322776 0.141935
vt 0.323215 0.128974
vt 0.325642 0.128982
vt 0.324019 0.126973
vt 0.323854 0.127412
vt 0.323980 0.114455
vt 0.326473 0.114022
vt 0.318647 0.131082
vt 0.316485 0.131089
vt 0.318649 0.118127
vt 0.322534 0.127413
vt 0.322973 0.114452
vt 0.323854 0.114023
vt 0.307597 0.174105
vt 0.309352 0.172384
vt 0.309743 0.173989
vt 0.302918 0.170578
vt 0.303925 0.168637
vt 0.303925 0.170584
vt 0.302789 0.169285
vt 0.305216 0.167532
vt 0.306728 0.170385
vt 0.305220 0.180051
vt 0.302789 0.178529
vt 0.307176 0.177891
vt 0.307426 0.175364
vt 0.304147 0.178478
vt 0.302918 0.172525
vt 0.303925 0.172532
vt 0.309431 0.184902
vt 0.307648 0.182135
vt 0.309683 0.181865
vt 0.307633 0.179898
vt 0.303925 0.181155
vt 0.302918 0.178773
vt 0.313426 0.168655
vt 0.313303 0.169703
vt 0.313241 0.168652
vt 0.307395 0.178226
vt 0.307643 0.180066
vt 0.307393 0.169327
vt 0.307643 0.167548
vt 0.307772 0.181180
vt 0.306285 0.178795
vt 0.307719 0.178742
vt 0.307688 0.174940
vt 0.304201 0.196570
vt 0.304033 0.198452
vt 0.304043 0.196560
vt 0.311029 0.182182
vt 0.310953 0.174027
vt 0.310972 0.184890
vt 0.310896 0.172385
vt 0.306285 0.181170
vt 0.305811 0.173144
vt 0.305260 0.170938
vt 0.307175 0.168660
vt 0.300507 0.129134
vt 0.304768 0.121196
vt 0.304890 0.116734
vt 0.315005 0.122564
vt 0.314922 0.121021
vt 0.315015 0.121021
vt 0.318712 0.119208
vt 0.301518 0.113214
vt 0.301590 0.113152
vt 0.323613 0.144039
vt 0.323519 0.142494
vt 0.323613 0.142494
vt 0.315005 0.124331
vt 0.314911 0.122564
vt 0.321656 0.119950
vt 0.321750 0.126197
vt 0.302774 0.185097
vt 0.302588 0.187285
vt 0.302634 0.185074
vt 0.323613 0.140948
vt 0.323519 0.139181
vt 0.323613 0.139181
vt 0.312704 0.182833
vt 0.312519 0.184903
vt 0.312424 0.182532
vt 0.313563 0.169875
vt 0.313250 0.174689
vt 0.302798 0.174068
vt 0.322776 0.128546
vt 0.313198 0.144761
vt 0.313317 0.145015
vt 0.313198 0.145220
vt 0.297729 0.176461
vt 0.297779 0.178185
vt 0.297686 0.178183
vt 0.304675 0.121196
vt 0.318556 0.130428
vt 0.316758 0.130256
vt 0.316273 0.134015
vt 0.302024 0.119614
vt 0.302250 0.119406
vt 0.311161 0.142344
vt 0.310580 0.143436
vt 0.313377 0.177561
vt 0.313246 0.177213
vt 0.313550 0.177237
vt 0.310388 0.128884
vt 0.311102 0.131269
vt 0.313397 0.174679
vt 0.302588 0.182814
vt 0.302727 0.182797
vt 0.322534 0.114023
vt 0.321750 0.119950
vt 0.312577 0.119384
vt 0.310779 0.119212
vt 0.307140 0.116518
vt 0.307366 0.116310
vt 0.316595 0.130629
vt 0.308738 0.123339
vt 0.321843 0.123569
vt 0.312228 0.174371
vt 0.312162 0.174064
vt 0.316714 0.132672
vt 0.317358 0.125913
vt 0.300462 0.132390
vt 0.321976 0.126564
vt 0.323519 0.140948
vt 0.315005 0.119473
vt 0.314911 0.119473
vt 0.312440 0.172385
vt 0.322158 0.117619
vt 0.318728 0.130645
vt 0.307959 0.118958
vt 0.301178 0.125125
vt 0.300957 0.125215
vt 0.304401 0.178178
vt 0.301176 0.128630
vt 0.324024 0.134118
vt 0.324376 0.120351
vt 0.313150 0.143620
vt 0.304450 0.135083
vt 0.324376 0.135163
vt 0.320495 0.081173
vt 0.326198 0.083944
vt 0.318110 0.085574
vt 0.314506 0.100768
vt 0.319143 0.103188
vt 0.325007 0.083148
vt 0.311025 0.092665
vt 0.323476 0.103969
vt 0.313971 0.094276
vt 0.325032 0.102597
vt 0.336009 0.102233
vt 0.311024 0.097792
vt 0.310527 0.085519
vt 0.312470 0.094440
vt 0.312068 0.105235
vt 0.302064 0.130820
vt 0.307715 0.138235
vt 0.307739 0.112868
vt 0.321843 0.116055
vt 0.328009 0.120351
vt 0.300957 0.119729
vt 0.307666 0.123952
vt 0.312511 0.119234
vt 0.324210 0.117418
vt 0.319131 0.114492
vt 0.308290 0.141902
vt 0.312601 0.137703
vt 0.312577 0.139987
vt 0.308290 0.149105
vt 0.307253 0.178157
vt 0.316939 0.143204
vt 0.300957 0.125215
vt 0.304231 0.141328
vt 0.304450 0.130820
vt 0.316040 0.132717
vt 0.309137 0.139234
vt 0.322628 0.120976
vt 0.318350 0.117531
vt 0.308737 0.121253
vt 0.310336 0.118733
vt 0.310779 0.132934
vt 0.310676 0.141902
vt 0.316012 0.141441
vt 0.311524 0.145484
vt 0.310676 0.149105
vt 0.310021 0.144971
vt 0.307366 0.129032
vt 0.307627 0.127208
vt 0.309130 0.133899
vt 0.318293 0.137786
vt 0.320109 0.136176
vt 0.316422 0.121754
vt 0.307627 0.121722
vt 0.318293 0.123519
vt 0.318815 0.116400
vt 0.311096 0.126118
vt 0.310597 0.130256
vt 0.316758 0.143978
vt 0.328563 0.125822
vt 0.322492 0.128990
vt 0.311827 0.137868
vt 0.328563 0.133024
vt 0.320177 0.142965
vt 0.302418 0.184693
vt 0.302250 0.132127
vt 0.318967 0.117531
vt 0.319723 0.149213
vt 0.310645 0.131693
vt 0.302418 0.172384
vt 0.306365 0.167218
vt 0.316958 0.124692
vt 0.313108 0.171298
vt 0.313694 0.141644
vt 0.307026 0.134946
vt 0.324514 0.131424
vt 0.300964 0.140727
vt 0.307346 0.167736
vt 0.323539 0.121648
vt 0.289596 0.172105
vt 0.327313 0.132116
vt 0.300464 0.131314
vt 0.302700 0.146163
vt 0.301502 0.119453
vt 0.304894 0.127746
vt 0.311877 0.178798
vt 0.299407 0.113686
vt 0.312722 0.181075
vt 0.318805 0.123058
vt 0.300507 0.132504
vt 0.321750 0.116055
vt 0.313502 0.142313
vt 0.327985 0.139700
vt 0.299575 0.114286
vt 0.327923 0.120684
vt 0.322005 0.128576
vt 0.299684 0.199018
vt 0.299980 0.113686
vt 0.307586 0.172384
vt 0.302918 0.168631
vt 0.302789 0.167516
vt 0.302789 0.180034
vt 0.307665 0.184902
vt 0.302918 0.181149
vt 0.304172 0.198453
vt 0.323519 0.144039
vt 0.314911 0.124331
vt 0.302727 0.187348
vt 0.312515 0.184902
vt 0.313313 0.144878
vt 0.297779 0.176404
vt 0.315726 0.133776
vt 0.311040 0.143556
vt 0.313241 0.177550
s 0
usemtl Material
f 2/1/1 54/2/1 53/3/1
f 80/4/2 8/5/2 55/6/2
f 8/7/3 56/8/3 55/9/3
f 64/10/4 53/11/4 78/12/4
f 57/13/5 5/14/5 62/15/5
f 59/16/6 2/17/6 64/18/6
f 18/19/7 12/20/7 10/21/7
f 21/22/8 81/23/8 88/24/8
f 21/25/9 14/26/9 16/27/9
f 35/28/10 10/29/10 32/30/10
f 82/31/11 15/32/11 85/33/11
f 27/34/12 10/35/12 12/36/12
f 29/37/13 17/38/13 33/39/13
f 33/39/14 18/40/14 35/28/14
f 13/41/15 22/42/15 15/43/15
f 22/42/16 23/44/16 21/25/16
f 85/45/17 22/46/17 87/47/17
f 22/46/18 88/24/18 87/47/18
f 9/48/19 20/49/19 17/50/19
f 17/50/20 19/51/20 18/19/20
f 38/52/21 19/53/21 20/54/21
f 38/52/22 39/55/22 40/56/22
f 26/57/23 20/54/23 11/58/23
f 26/57/24 37/59/24 38/52/24
f 34/60/25 84/61/25 83/62/25
f 33/39/26 36/63/26 34/60/26
f 30/64/27 83/62/27 82/65/27
f 29/37/28 34/60/28 30/64/28
f 81/66/29 31/67/29 28/68/29
f 28/68/30 32/69/30 27/34/30
f 9/70/31 26/71/31 11/72/31
f 26/71/32 30/73/32 25/74/32
f 36/63/33 86/75/33 84/61/33
f 36/63/34 32/30/34 31/76/34
f 40/56/35 12/77/35 19/53/35
f 40/56/36 28/78/36 27/79/36
f 61/80/37 41/81/37 1/82/37
f 66/83/38 42/84/38 41/81/38
f 68/85/39 43/86/39 42/84/39
f 49/87/40 5/88/40 7/89/40
f 48/90/41 52/91/41 49/87/41
f 48/90/42 50/92/42 51/93/42
f 72/94/43 7/95/43 57/96/43
f 72/94/44 48/97/44 49/98/44
f 74/99/45 47/100/45 48/97/45
f 41/101/46 3/102/46 1/103/46
f 41/101/47 45/104/47 46/105/47
f 43/106/48 45/104/48 42/107/48
f 70/108/49 53/11/49 43/86/49
f 47/109/50 56/8/50 50/92/50
f 80/4/51 47/100/51 76/110/51
f 53/3/52 44/111/52 43/106/52
f 44/112/53 79/113/53 75/114/53
f 79/113/51 76/110/51 75/114/51
f 56/115/54 69/116/54 50/117/54
f 69/116/55 78/12/55 70/108/55
f 44/112/56 73/118/56 45/119/56
f 75/114/51 74/99/51 73/118/51
f 45/119/57 71/120/57 46/121/57
f 73/118/51 72/94/51 71/120/51
f 3/122/58 71/120/58 58/123/58
f 58/123/59 72/94/59 57/96/59
f 50/117/60 67/124/60 51/125/60
f 69/116/61 68/85/61 67/124/61
f 52/126/62 67/124/62 65/127/62
f 67/124/63 66/83/63 65/127/63
f 5/128/64 65/127/64 62/129/64
f 65/127/65 61/80/65 62/129/65
f 60/130/66 6/131/66 8/132/66
f 59/16/67 63/133/67 60/130/67
f 3/134/31 61/135/31 1/136/31
f 57/13/32 61/135/32 58/137/32
f 56/115/68 63/138/68 77/139/68
f 63/138/69 78/12/69 77/139/69
f 54/140/70 59/141/70 79/113/70
f 79/113/71 60/142/71 80/4/71
f 23/143/72 86/75/72 14/144/72
f 16/145/73 86/146/73 81/66/73
f 82/65/74 24/147/74 13/148/74
f 24/147/75 84/61/75 23/143/75
f 37/59/76 88/24/76 39/55/76
f 25/149/77 87/47/77 37/59/77
f 30/73/11 85/33/11 25/74/11
f 88/24/78 28/78/78 39/55/78
f 104/150/1 91/151/1 101/152/1
f 527/153/51 95/154/51 534/155/51
f 93/156/36 129/157/36 94/158/36
f 100/159/36 89/160/36 99/161/36
f 137/162/11 528/163/11 537/164/11
f 94/158/36 538/165/36 535/166/36
f 123/167/12 136/168/12 116/169/12
f 140/170/11 89/171/11 102/172/11
f 376/173/36 99/161/36 374/174/36
f 92/175/51 97/176/51 91/177/51
f 91/178/11 139/179/11 101/180/11
f 301/181/11 140/170/11 102/172/11
f 413/182/79 384/183/79 416/184/79
f 110/185/80 465/186/80 303/187/80
f 100/159/36 120/188/36 90/189/36
f 529/190/81 123/191/81 532/192/81
f 534/193/11 138/194/11 536/195/11
f 386/196/82 144/197/82 388/198/82
f 118/199/12 134/200/12 117/201/12
f 410/202/83 137/203/83 309/204/83
f 90/205/1 102/206/1 89/207/1
f 290/208/1 101/152/1 289/209/1
f 121/210/84 120/211/84 119/212/84
f 384/213/85 119/212/85 382/214/85
f 115/215/12 383/216/12 381/217/12
f 114/218/12 124/219/12 115/215/12
f 305/220/86 122/221/86 121/210/86
f 98/222/51 381/223/51 373/224/51
f 90/205/1 122/225/1 103/226/1
f 436/227/87 296/228/87 437/229/87
f 104/150/1 114/230/1 92/231/1
f 94/158/36 135/232/36 118/233/36
f 103/226/88 310/234/88 308/235/88
f 92/175/51 115/236/51 98/222/51
f 128/237/40 130/238/40 131/239/40
f 129/240/40 134/241/40 135/242/40
f 125/243/40 127/244/40 126/245/40
f 125/243/89 133/246/89 132/247/89
f 415/248/36 127/249/36 132/250/36
f 96/251/51 126/252/51 95/154/51
f 116/253/51 125/254/51 96/251/51
f 415/248/90 133/255/90 123/191/90
f 411/256/91 134/257/91 128/258/91
f 138/194/11 126/259/11 127/260/11
f 93/261/11 131/262/11 130/263/11
f 137/264/51 128/258/51 131/265/51
f 106/266/11 291/267/11 297/268/11
f 112/269/11 304/270/11 306/271/11
f 111/272/11 379/273/11 385/274/11
f 105/275/11 537/164/11 540/276/11
f 544/277/92 141/278/92 542/279/92
f 298/280/93 143/281/93 300/282/93
f 539/283/94 142/284/94 541/285/94
f 311/286/95 141/287/95 312/288/95
f 160/289/1 147/290/1 157/291/1
f 355/292/51 151/293/51 357/294/51
f 149/295/36 185/296/36 150/297/36
f 156/298/36 145/299/36 155/300/36
f 193/301/11 356/302/11 362/303/11
f 150/297/36 364/304/36 358/305/36
f 179/306/12 192/307/12 172/308/12
f 196/309/11 145/310/11 158/311/11
f 393/312/36 155/300/36 404/313/36
f 148/314/51 153/315/51 147/316/51
f 147/317/11 195/318/11 157/319/11
f 503/320/11 196/309/11 158/311/11
f 420/321/96 409/322/96 442/323/96
f 263/324/80 482/325/80 221/326/80
f 156/298/36 176/327/36 146/328/36
f 422/329/97 365/330/97 421/331/97
f 357/332/11 194/333/11 361/334/11
f 398/335/82 200/336/82 400/337/82
f 173/338/98 191/339/98 190/340/98
f 164/341/99 193/342/99 161/343/99
f 146/344/1 158/345/1 145/346/1
f 325/347/1 157/291/1 330/348/1
f 177/349/12 176/350/12 175/351/12
f 409/352/100 175/351/100 396/353/100
f 171/354/12 408/355/12 407/356/12
f 170/357/12 180/358/12 171/354/12
f 506/359/101 178/360/101 177/349/101
f 154/361/51 407/362/51 403/363/51
f 146/344/1 178/364/1 159/365/1
f 440/366/102 334/367/102 434/368/102
f 160/289/1 170/369/1 148/370/1
f 150/297/36 191/371/36 174/372/36
f 159/365/103 510/373/103 509/374/103
f 148/314/51 171/375/51 154/361/51
f 184/376/40 186/377/40 187/378/40
f 185/379/104 190/380/104 191/381/104
f 181/382/40 183/383/40 182/384/40
f 181/382/105 189/385/105 188/386/105
f 422/329/36 183/387/36 188/388/36
f 152/389/51 182/390/51 151/293/51
f 172/391/51 181/392/51 152/389/51
f 422/329/106 189/393/106 179/394/106
f 418/395/107 190/396/107 184/397/107
f 194/333/11 182/398/11 183/399/11
f 149/400/11 187/401/11 186/402/11
f 418/395/51 187/403/51 193/342/51
f 162/404/11 326/405/11 328/406/11
f 168/407/11 505/408/11 507/409/11
f 167/410/11 394/411/11 397/412/11
f 161/413/11 362/303/11 368/414/11
f 161/415/108 476/416/108 164/417/108
f 335/418/93 199/419/93 336/420/93
f 367/421/94 198/422/94 369/423/94
f 197/424/109 463/425/109 476/426/109
f 216/427/1 203/428/1 213/429/1
f 337/430/51 207/431/51 339/432/51
f 205/433/36 241/434/36 206/435/36
f 212/436/36 201/437/36 211/438/36
f 249/439/11 338/440/11 344/441/11
f 206/435/36 346/442/36 340/443/36
f 235/444/12 248/445/12 228/446/12
f 252/447/11 201/448/11 214/449/11
f 340/443/36 211/438/36 338/450/36
f 204/451/51 209/452/51 203/453/51
f 203/454/11 251/455/11 213/456/11
f 485/457/11 252/447/11 214/449/11
f 426/458/110 348/459/110 429/460/110
f 342/461/111 480/462/111 222/463/111
f 212/436/36 232/464/36 202/465/36
f 428/466/112 347/467/112 427/468/112
f 339/469/113 250/470/113 343/471/113
f 350/472/82 256/473/82 352/474/82
f 230/475/12 246/476/12 229/477/12
f 486/478/114 249/479/114 493/480/114
f 202/481/1 214/482/1 201/483/1
f 260/484/1 213/429/1 257/485/1
f 233/486/12 232/487/12 231/488/12
f 348/489/115 231/488/115 346/490/115
f 227/491/116 347/492/116 345/493/116
f 226/494/12 236/495/12 227/491/12
f 489/496/117 234/497/117 233/486/117
f 337/430/118 227/498/118 345/499/118
f 202/481/1 234/500/1 215/501/1
f 431/502/119 269/503/119 432/504/119
f 216/427/1 226/505/1 204/506/1
f 206/435/36 247/507/36 230/508/36
f 215/501/1 494/509/1 492/510/1
f 204/451/51 227/498/51 210/511/51
f 240/512/40 242/513/40 243/514/40
f 241/515/40 246/516/40 247/517/40
f 237/518/40 239/519/40 238/520/40
f 237/518/40 245/521/40 244/522/40
f 428/466/36 239/523/36 244/524/36
f 208/525/51 238/526/51 207/431/51
f 228/527/51 237/528/51 208/525/51
f 235/529/120 244/524/120 245/530/120
f 229/531/121 240/532/121 424/533/121
f 250/470/11 238/534/11 239/535/11
f 205/536/11 243/537/11 242/538/11
f 424/533/51 243/539/51 249/540/51
f 218/541/11 261/542/11 271/543/11
f 224/544/11 488/545/11 490/546/11
f 349/547/122 251/455/122 343/471/122
f 217/548/11 344/441/11 350/549/11
f 496/550/123 352/551/123 497/552/123
f 272/553/93 255/554/93 275/555/93
f 349/556/124 254/557/124 351/558/124
f 495/559/125 253/560/125 496/561/125
f 271/562/126 254/563/126 218/564/126
f 273/565/127 491/566/127 490/567/127
f 273/565/128 275/555/128 276/568/128
f 351/569/129 274/570/129 353/571/129
f 223/572/11 265/573/11 251/455/11
f 272/574/130 266/575/130 265/573/130
f 216/427/131 268/576/131 225/577/131
f 260/484/132 267/578/132 268/576/132
f 425/579/133 489/580/133 487/581/133
f 432/504/134 270/582/134 425/579/134
f 225/583/135 269/584/135 236/495/135
f 268/585/136 270/586/136 269/584/136
f 485/587/1 259/588/1 258/589/1
f 259/588/1 257/485/1 258/589/1
f 428/590/137 261/591/137 250/592/137
f 302/593/138 473/594/138 108/595/138
f 213/456/11 265/573/11 257/596/11
f 257/596/139 266/575/139 258/597/139
f 285/598/140 329/599/140 328/600/140
f 286/601/93 508/602/93 507/603/93
f 372/604/11 287/605/11 371/606/11
f 335/607/11 282/608/11 333/609/11
f 279/610/141 280/611/141 285/612/141
f 325/347/142 283/613/142 327/614/142
f 504/615/143 284/616/143 506/617/143
f 327/618/144 284/619/144 334/620/144
f 509/374/1 277/621/1 503/622/1
f 433/623/145 279/624/145 326/625/145
f 341/626/146 482/627/146 458/628/146
f 330/629/11 282/608/11 277/630/11
f 297/631/147 142/632/147 106/633/147
f 323/634/93 300/282/93 324/635/93
f 541/636/148 299/637/148 543/638/148
f 111/272/11 294/639/11 139/179/11
f 303/640/149 319/641/149 412/642/149
f 104/150/150 295/643/150 113/644/150
f 437/229/151 322/645/151 439/646/151
f 113/647/152 296/648/152 124/219/152
f 318/649/1 290/208/1 289/209/1
f 415/650/153 291/651/153 138/652/153
f 262/653/154 481/654/154 444/655/154
f 101/180/11 294/639/11 289/656/11
f 103/226/1 301/657/1 102/206/1
f 413/658/155 305/659/155 121/660/155
f 105/275/156 309/661/156 137/162/156
f 306/662/93 144/663/93 112/664/93
f 297/665/157 449/666/157 299/667/157
f 521/668/158 544/277/158 554/669/158
f 306/271/11 316/670/11 517/671/11
f 308/235/159 520/672/159 519/673/159
f 314/674/160 310/675/160 305/220/160
f 550/676/12 524/677/12 553/678/12
f 332/679/80 484/680/80 165/681/80
f 316/670/11 301/181/11 438/682/11
f 294/639/11 318/683/11 289/656/11
f 220/684/111 459/685/111 342/461/111
f 391/686/161 518/687/161 324/688/161
f 295/689/162 322/690/162 296/648/162
f 290/208/163 315/691/163 295/643/163
f 298/692/11 321/693/11 294/639/11
f 543/638/164 317/694/164 545/695/164
f 299/696/165 453/697/165 317/698/165
f 438/699/1 313/700/1 318/649/1
f 319/701/166 322/645/166 314/702/166
f 452/703/12 526/704/12 524/677/12
f 517/705/93 324/635/93 518/706/93
f 157/319/11 333/609/11 330/629/11
f 163/707/167 455/708/167 331/709/167
f 422/710/168 326/625/168 194/711/168
f 169/712/169 334/620/169 180/358/169
f 325/347/170 169/713/170 160/289/170
f 167/410/11 333/609/11 195/318/11
f 198/714/11 372/604/11 369/715/11
f 328/600/171 198/716/171 162/717/171
f 286/601/93 336/420/93 288/718/93
f 328/406/11 279/719/11 285/720/11
f 434/368/172 284/616/172 419/721/172
f 278/722/1 330/348/1 277/621/1
f 341/626/146 481/723/146 219/724/146
f 320/725/80 464/726/80 293/727/80
f 275/728/173 354/729/173 276/730/173
f 351/569/174 275/728/174 255/731/174
f 349/556/175 255/732/175 223/733/175
f 491/734/11 352/551/11 256/735/11
f 350/549/11 252/447/11 224/544/11
f 218/541/176 343/471/176 250/470/176
f 208/525/177 345/499/177 228/527/177
f 345/493/178 235/444/178 228/446/178
f 229/477/12 346/490/12 230/475/12
f 350/472/82 253/736/82 217/737/82
f 209/738/179 343/471/179 251/455/179
f 431/739/180 347/467/180 236/740/180
f 222/741/80 502/742/80 499/743/80
f 429/460/181 229/531/181 424/533/181
f 206/435/36 338/450/36 205/433/36
f 340/443/36 231/744/36 212/436/36
f 344/441/11 211/745/11 252/447/11
f 210/511/51 339/432/51 209/452/51
f 399/746/11 372/604/11 402/747/11
f 525/748/182 317/698/182 453/697/182
f 498/749/183 493/750/183 495/751/183
f 402/747/11 371/606/11 401/752/11
f 367/421/94 399/753/94 397/754/94
f 511/755/11 400/756/11 512/757/11
f 368/414/11 395/758/11 398/759/11
f 162/404/11 361/334/11 194/333/11
f 152/389/51 363/760/51 172/391/51
f 172/308/184 365/761/184 179/306/184
f 173/338/12 364/762/12 174/763/12
f 161/764/185 370/765/185 197/424/185
f 392/766/11 361/334/11 394/411/11
f 441/767/186 365/330/186 408/768/186
f 303/187/80 526/769/80 523/770/80
f 418/395/187 366/771/187 173/772/187
f 150/297/36 356/773/36 149/295/36
f 358/305/36 396/774/36 393/312/36
f 362/303/11 404/775/11 395/758/11
f 403/363/51 357/294/51 392/776/51
f 389/777/188 324/688/188 300/778/188
f 360/779/189 476/426/189 463/425/189
f 291/651/190 292/780/190 297/665/190
f 522/781/11 307/782/11 518/687/11
f 406/783/111 477/784/111 166/785/111
f 387/786/11 300/778/11 143/787/11
f 385/788/94 143/789/94 111/790/94
f 307/782/11 388/791/11 144/792/11
f 112/269/11 380/793/11 140/170/11
f 539/794/11 379/273/11 536/195/11
f 373/224/51 531/795/51 527/153/51
f 381/217/12 532/796/12 531/797/12
f 533/798/191 382/214/191 538/799/191
f 386/196/82 542/800/82 540/801/82
f 97/802/11 379/273/11 139/179/11
f 436/803/192 383/804/192 124/805/192
f 359/806/146 478/807/146 163/808/146
f 416/184/193 533/809/193 530/810/193
f 535/166/36 374/174/36 528/811/36
f 376/173/36 119/812/36 100/159/36
f 380/793/11 99/813/11 140/170/11
f 98/222/51 375/814/51 97/176/51
f 154/361/51 392/776/51 153/315/51
f 395/758/11 155/815/11 196/309/11
f 393/312/36 175/816/36 156/298/36
f 440/817/192 408/768/192 180/818/192
f 153/819/11 394/411/11 195/318/11
f 168/407/11 395/758/11 196/309/11
f 508/820/11 400/756/11 200/821/11
f 397/754/94 199/822/94 167/823/94
f 402/747/11 288/824/11 336/825/11
f 399/746/11 336/825/11 199/826/11
f 293/727/80 483/827/80 109/828/80
f 165/829/146 471/830/146 405/831/146
f 367/832/11 394/411/11 361/334/11
f 403/363/51 363/760/51 355/292/51
f 407/356/194 365/761/194 363/833/194
f 366/834/195 396/353/195 364/762/195
f 368/835/196 400/337/196 370/765/196
f 166/836/80 516/837/80 513/838/80
f 442/323/197 366/771/197 423/839/197
f 358/305/36 404/313/36 356/773/36
f 108/840/198 410/841/198 302/842/198
f 110/843/199 412/642/199 413/844/199
f 107/845/200 529/846/200 546/847/200
f 547/848/201 416/849/201 530/850/201
f 280/611/202 287/851/202 285/612/202
f 513/852/203 419/853/203 504/854/203
f 163/855/204 421/856/204 359/857/204
f 360/858/205 418/859/205 164/860/205
f 220/861/206 486/862/206 498/863/206
f 499/864/207 425/865/207 487/866/207
f 219/867/208 427/868/208 341/869/208
f 220/861/209 429/870/209 424/871/209
f 219/867/210 430/872/210 428/873/210
f 496/874/211 498/749/211 495/751/211
f 221/875/212 432/876/212 263/877/212
f 263/877/213 425/865/213 264/878/213
f 331/879/214 417/880/214 433/881/214
f 332/882/215 419/853/215 281/883/215
f 107/845/216 435/884/216 415/885/216
f 109/886/217 437/887/217 293/888/217
f 451/889/218 311/890/218 312/891/218
f 523/892/219 439/893/219 319/641/219
f 302/894/220 309/895/220 311/896/220
f 320/897/221 437/887/221 439/893/221
f 163/855/222 433/881/222 422/898/222
f 165/899/223 434/900/223 332/882/223
f 221/875/224 427/868/224 431/901/224
f 222/902/225 429/870/225 342/903/225
f 405/904/226 421/856/226 441/905/226
f 406/906/227 423/907/227 360/858/227
f 109/886/228 414/908/228 436/909/228
f 110/843/229 416/849/229 378/910/229
f 165/899/228 441/905/228 440/911/228
f 166/912/230 442/913/230 406/906/230
f 465/914/12 468/915/12 450/916/12
f 516/917/12 472/918/12 515/919/12
f 502/920/12 459/921/12 500/922/12
f 458/923/231 456/924/231 443/925/231
f 456/924/12 445/926/12 443/925/12
f 461/927/12 469/928/12 460/929/12
f 467/930/232 464/931/232 448/932/232
f 524/677/12 465/914/12 450/916/12
f 448/932/233 466/933/233 452/703/233
f 471/934/12 470/935/12 461/927/12
f 496/936/234 500/937/234 501/938/234
f 458/923/235 444/939/235 481/940/235
f 501/941/236 459/921/236 479/942/236
f 478/943/12 454/944/12 455/945/12
f 454/944/237 447/946/237 455/945/237
f 447/947/238 371/948/238 287/949/238
f 448/932/239 550/676/239 548/950/239
f 524/677/12 549/951/12 553/678/12
f 467/930/240 548/950/240 551/952/240
f 450/916/12 552/953/12 549/951/12
f 471/934/12 454/944/12 462/954/12
f 461/927/12 446/955/12 454/944/12
f 514/956/12 472/918/12 463/957/12
f 405/831/146 462/958/146 359/806/146
f 264/959/80 456/960/80 263/324/80
f 377/961/241 551/962/241 546/963/241
f 360/779/242 472/964/242 406/783/242
f 331/709/243 447/965/243 280/966/243
f 108/967/111 552/968/111 547/969/111
f 109/970/146 467/971/146 377/961/146
f 281/972/80 470/973/80 332/679/80
f 511/974/244 446/975/244 514/976/244
f 378/977/111 474/978/111 110/979/111
f 292/980/245 475/981/245 449/982/245
f 497/983/246 445/984/246 500/937/246
f 457/985/247 500/922/247 445/926/247
f 222/902/248 487/866/248 426/986/248
f 262/987/249 274/988/249 271/989/249
f 498/990/250 479/991/250 220/992/250
f 264/959/80 502/742/80 457/993/80
f 276/730/251 497/552/251 491/734/251
f 215/501/1 485/587/1 214/482/1
f 426/994/252 489/580/252 233/995/252
f 217/548/11 493/996/11 249/439/11
f 490/567/93 256/997/93 224/998/93
f 430/999/253 271/1000/253 261/591/253
f 274/1001/254 443/1002/254 353/1003/254
f 490/546/255 266/575/255 273/1004/255
f 259/588/256 494/509/256 267/578/256
f 267/1005/257 489/496/257 270/586/257
f 354/1006/258 443/1002/258 445/984/258
f 266/575/259 485/457/259 258/597/259
f 511/974/260 463/1007/260 370/1008/260
f 460/929/12 514/956/12 446/955/12
f 469/928/12 515/919/12 460/929/12
f 166/912/248 504/854/248 420/1009/248
f 513/838/80 469/1010/80 281/972/80
f 401/752/11 508/820/11 288/824/11
f 401/752/11 511/755/11 512/757/11
f 159/365/1 503/622/1 158/345/1
f 420/1011/261 506/617/261 177/1012/261
f 507/603/93 200/1013/93 168/1014/93
f 507/409/11 282/608/11 286/1015/11
f 509/374/262 283/613/262 278/722/262
f 283/1016/263 506/359/263 284/619/263
f 277/630/11 505/408/11 503/320/11
f 523/770/80 466/1017/80 320/725/80
f 312/1018/264 525/748/264 451/1019/264
f 517/705/93 307/1020/93 306/662/93
f 412/1021/265 314/702/265 305/659/265
f 308/235/1 438/699/1 301/657/1
f 321/693/11 438/682/11 318/683/11
f 315/1022/12 314/674/12 322/690/12
f 519/673/266 315/691/266 313/700/266
f 323/1023/11 316/670/11 321/693/11
f 317/694/267 554/669/267 545/695/267
f 545/695/268 522/781/268 391/686/268
f 547/969/111 468/1024/111 378/977/111
f 107/1025/269 551/962/269 475/1026/269
f 451/1019/12 552/953/12 473/1027/12
f 551/952/270 449/982/270 475/981/270
f 525/748/12 549/951/12 451/1019/12
f 548/950/271 453/697/271 449/982/271
f 108/840/272 530/850/272 411/1028/272
f 546/847/273 414/908/273 377/1029/273
f 94/158/36 528/811/36 93/156/36
f 411/256/274 533/809/274 117/1030/274
f 540/801/82 141/1031/82 105/1032/82
f 117/201/12 538/799/12 118/199/12
f 531/797/12 123/167/12 116/169/12
f 527/153/51 116/253/51 96/251/51
f 106/266/11 536/195/11 138/194/11
f 389/777/275 545/695/275 391/686/275
f 453/697/12 553/678/12 525/748/12
f 554/669/276 390/1033/276 522/781/276
f 387/786/277 543/638/277 389/777/277
f 385/788/94 541/285/94 387/1034/94
f 390/1033/11 542/279/11 388/791/11
f 540/276/11 380/793/11 386/1035/11
f 375/1036/11 536/195/11 379/273/11
f 414/1037/192 532/192/192 383/804/192
f 535/166/36 382/1038/36 376/173/36
f 537/164/11 374/1039/11 380/793/11
f 373/224/51 534/155/51 375/814/51
f 2/1/1 4/1040/1 54/2/1
f 80/4/278 60/142/278 8/5/278
f 8/7/279 6/1041/279 56/8/279
f 64/10/280 2/1042/280 53/11/280
f 57/13/5 7/1043/5 5/14/5
f 59/16/281 4/1044/281 2/17/281
f 18/19/282 19/51/282 12/20/282
f 21/22/283 16/1045/283 81/23/283
f 21/25/284 23/44/284 14/26/284
f 35/28/285 18/40/285 10/29/285
f 82/31/11 13/1046/11 15/32/11
f 27/34/286 32/69/286 10/35/286
f 29/37/287 9/1047/287 17/38/287
f 33/39/288 17/38/288 18/40/288
f 13/41/289 24/1048/289 22/42/289
f 22/42/290 24/1048/290 23/44/290
f 85/45/291 15/1049/291 22/46/291
f 22/46/292 21/22/292 88/24/292
f 9/48/293 11/1050/293 20/49/293
f 17/50/294 20/49/294 19/51/294
f 38/52/295 40/56/295 19/53/295
f 38/52/296 37/59/296 39/55/296
f 26/57/297 38/52/297 20/54/297
f 26/57/298 25/149/298 37/59/298
f 34/60/299 36/63/299 84/61/299
f 33/39/300 35/28/300 36/63/300
f 30/64/301 34/60/301 83/62/301
f 29/37/302 33/39/302 34/60/302
f 81/66/303 86/146/303 31/67/303
f 28/68/304 31/67/304 32/69/304
f 9/70/31 29/1051/31 26/71/31
f 26/71/32 29/1051/32 30/73/32
f 36/63/305 31/76/305 86/75/305
f 36/63/306 35/28/306 32/30/306
f 40/56/36 27/79/36 12/77/36
f 40/56/307 39/55/307 28/78/307
f 61/80/308 66/83/308 41/81/308
f 66/83/309 68/85/309 42/84/309
f 68/85/310 70/108/310 43/86/310
f 49/87/40 52/91/40 5/88/40
f 48/90/41 51/93/41 52/91/41
f 48/90/311 47/109/311 50/92/311
f 72/94/43 49/98/43 7/95/43
f 72/94/312 74/99/312 48/97/312
f 74/99/51 76/110/51 47/100/51
f 41/101/46 46/105/46 3/102/46
f 41/101/47 42/107/47 45/104/47
f 43/106/313 44/111/313 45/104/313
f 70/108/314 78/12/314 53/11/314
f 47/109/40 55/9/40 56/8/40
f 80/4/51 55/6/51 47/100/51
f 53/3/315 54/2/315 44/111/315
f 44/112/316 54/140/316 79/113/316
f 79/113/51 80/4/51 76/110/51
f 56/115/317 77/139/317 69/116/317
f 69/116/318 77/139/318 78/12/318
f 44/112/53 75/114/53 73/118/53
f 75/114/51 76/110/51 74/99/51
f 45/119/319 73/118/319 71/120/319
f 73/118/51 74/99/51 72/94/51
f 3/122/320 46/121/320 71/120/320
f 58/123/321 71/120/321 72/94/321
f 50/117/322 69/116/322 67/124/322
f 69/116/323 70/108/323 68/85/323
f 52/126/324 51/125/324 67/124/324
f 67/124/325 68/85/325 66/83/325
f 5/128/64 52/126/64 65/127/64
f 65/127/326 66/83/326 61/80/326
f 60/130/327 63/133/327 6/131/327
f 59/16/328 64/18/328 63/133/328
f 3/134/31 58/137/31 61/135/31
f 57/13/32 62/15/32 61/135/32
f 56/115/329 6/1052/329 63/138/329
f 63/138/330 64/10/330 78/12/330
f 54/140/331 4/1053/331 59/141/331
f 79/113/332 59/141/332 60/142/332
f 23/143/333 84/61/333 86/75/333
f 16/145/334 14/1054/334 86/146/334
f 82/65/335 83/62/335 24/147/335
f 24/147/336 83/62/336 84/61/336
f 37/59/18 87/47/18 88/24/18
f 25/149/337 85/45/337 87/47/337
f 30/73/11 82/31/11 85/33/11
f 88/24/338 81/23/338 28/78/338
f 104/150/1 92/231/1 91/151/1
f 527/153/51 96/251/51 95/154/51
f 93/156/36 130/1055/36 129/157/36
f 100/159/36 90/189/36 89/160/36
f 137/162/11 93/261/11 528/163/11
f 94/158/36 118/233/36 538/165/36
f 123/167/339 133/1056/339 136/168/339
f 140/170/11 99/813/11 89/171/11
f 376/173/36 100/159/36 99/161/36
f 92/175/51 98/222/51 97/176/51
f 91/178/11 97/802/11 139/179/11
f 301/181/11 304/270/11 140/170/11
f 413/182/340 121/1057/340 384/183/340
f 110/185/80 474/1058/80 465/186/80
f 100/159/36 119/812/36 120/188/36
f 529/190/341 415/248/341 123/191/341
f 534/193/11 95/1059/11 138/194/11
f 386/196/82 112/1060/82 144/197/82
f 118/199/12 135/1061/12 134/200/12
f 410/202/342 411/1062/342 137/203/342
f 90/205/1 103/226/1 102/206/1
f 290/208/1 104/150/1 101/152/1
f 121/210/343 122/221/343 120/211/343
f 384/213/344 121/210/344 119/212/344
f 115/215/12 124/219/12 383/216/12
f 114/218/12 113/647/12 124/219/12
f 305/220/345 310/675/345 122/221/345
f 98/222/51 115/236/51 381/223/51
f 90/205/1 120/1063/1 122/225/1
f 436/227/346 124/1064/346 296/228/346
f 104/150/1 113/644/1 114/230/1
f 94/158/36 129/157/36 135/232/36
f 103/226/131 122/225/131 310/234/131
f 92/175/51 114/1065/51 115/236/51
f 128/237/40 129/240/40 130/238/40
f 129/240/40 128/237/40 134/241/40
f 125/243/40 132/247/40 127/244/40
f 125/243/347 136/1066/347 133/246/347
f 415/248/36 138/1067/36 127/249/36
f 96/251/51 125/254/51 126/252/51
f 116/253/51 136/1068/51 125/254/51
f 415/248/348 132/250/348 133/255/348
f 411/256/349 117/1030/349 134/257/349
f 138/194/11 95/1059/11 126/259/11
f 93/261/11 137/162/11 131/262/11
f 137/264/350 411/256/350 128/258/350
f 106/266/11 138/194/11 291/267/11
f 112/269/11 140/170/11 304/270/11
f 111/272/11 139/179/11 379/273/11
f 105/275/11 137/162/11 537/164/11
f 544/277/351 312/1069/351 141/278/351
f 298/280/93 111/1070/93 143/281/93
f 539/283/94 106/1071/94 142/284/94
f 311/286/352 105/1072/352 141/287/352
f 160/289/1 148/370/1 147/290/1
f 355/292/51 152/389/51 151/293/51
f 149/295/36 186/1073/36 185/296/36
f 156/298/36 146/328/36 145/299/36
f 193/301/11 149/400/11 356/302/11
f 150/297/36 174/372/36 364/304/36
f 179/306/353 189/1074/353 192/307/353
f 196/309/11 155/815/11 145/310/11
f 393/312/36 156/298/36 155/300/36
f 148/314/51 154/361/51 153/315/51
f 147/317/11 153/819/11 195/318/11
f 503/320/11 505/408/11 196/309/11
f 420/321/354 177/1075/354 409/322/354
f 263/324/80 456/960/80 482/325/80
f 156/298/36 175/816/36 176/327/36
f 422/329/355 179/394/355 365/330/355
f 357/332/11 151/1076/11 194/333/11
f 398/335/82 168/1077/82 200/336/82
f 173/338/12 174/763/12 191/339/12
f 164/341/356 418/395/356 193/342/356
f 146/344/1 159/365/1 158/345/1
f 325/347/1 160/289/1 157/291/1
f 177/349/12 178/360/12 176/350/12
f 409/352/357 177/349/357 175/351/357
f 171/354/12 180/358/12 408/355/12
f 170/357/358 169/712/358 180/358/358
f 506/359/359 510/1078/359 178/360/359
f 154/361/51 171/375/51 407/362/51
f 146/344/1 176/1079/1 178/364/1
f 440/366/360 180/1080/360 334/367/360
f 160/289/361 169/713/361 170/369/361
f 150/297/36 185/296/36 191/371/36
f 159/365/362 178/364/362 510/373/362
f 148/314/51 170/1081/51 171/375/51
f 184/376/40 185/379/40 186/377/40
f 185/379/363 184/376/363 190/380/363
f 181/382/40 188/386/40 183/383/40
f 181/382/364 192/1082/364 189/385/364
f 422/329/36 194/1083/36 183/387/36
f 152/389/51 181/392/51 182/390/51
f 172/391/51 192/1084/51 181/392/51
f 422/329/365 188/388/365 189/393/365
f 418/395/366 173/772/366 190/396/366
f 194/333/11 151/1076/11 182/398/11
f 149/400/11 193/301/11 187/401/11
f 418/395/51 184/397/51 187/403/51
f 162/404/11 194/333/11 326/405/11
f 168/407/11 196/309/11 505/408/11
f 167/410/11 195/318/11 394/411/11
f 161/413/11 193/301/11 362/303/11
f 161/415/367 197/1085/367 476/416/367
f 335/418/93 167/1086/93 199/419/93
f 367/421/94 162/1087/94 198/422/94
f 197/424/368 370/765/368 463/425/368
f 216/427/1 204/506/1 203/428/1
f 337/430/51 208/525/51 207/431/51
f 205/433/36 242/1088/36 241/434/36
f 212/436/36 202/465/36 201/437/36
f 249/439/11 205/536/11 338/440/11
f 206/435/36 230/508/36 346/442/36
f 235/444/12 245/1089/12 248/445/12
f 252/447/11 211/745/11 201/448/11
f 340/443/36 212/436/36 211/438/36
f 204/451/51 210/511/51 209/452/51
f 203/454/11 209/738/11 251/455/11
f 485/457/11 488/545/11 252/447/11
f 426/458/369 233/1090/369 348/459/369
f 342/461/111 459/685/111 480/462/111
f 212/436/36 231/744/36 232/464/36
f 428/466/370 235/529/370 347/467/370
f 339/469/11 207/1091/11 250/470/11
f 350/472/82 224/1092/82 256/473/82
f 230/475/12 247/1093/12 246/476/12
f 486/478/114 424/1094/114 249/479/114
f 202/481/1 215/501/1 214/482/1
f 260/484/1 216/427/1 213/429/1
f 233/486/12 234/497/12 232/487/12
f 348/489/371 233/486/371 231/488/371
f 227/491/372 236/495/372 347/492/372
f 226/494/12 225/583/12 236/495/12
f 489/496/373 494/1095/373 234/497/373
f 337/430/51 210/511/51 227/498/51
f 202/481/1 232/1096/1 234/500/1
f 431/502/374 236/1097/374 269/503/374
f 216/427/1 225/577/1 226/505/1
f 206/435/36 241/434/36 247/507/36
f 215/501/1 234/500/1 494/509/1
f 204/451/51 226/1098/51 227/498/51
f 240/512/40 241/515/40 242/513/40
f 241/515/40 240/512/40 246/516/40
f 237/518/40 244/522/40 239/519/40
f 237/518/40 248/1099/40 245/521/40
f 428/466/36 250/1100/36 239/523/36
f 208/525/51 237/528/51 238/526/51
f 228/527/51 248/1101/51 237/528/51
f 235/529/375 428/466/375 244/524/375
f 229/531/376 246/1102/376 240/532/376
f 250/470/11 207/1091/11 238/534/11
f 205/536/11 249/439/11 243/537/11
f 424/533/51 240/532/51 243/539/51
f 218/541/11 250/470/11 261/542/11
f 224/544/11 252/447/11 488/545/11
f 349/547/377 223/572/377 251/455/377
f 217/548/11 249/439/11 344/441/11
f 496/550/11 253/1103/11 352/551/11
f 272/553/93 223/1104/93 255/554/93
f 349/556/378 218/1105/378 254/557/378
f 495/559/379 217/1106/379 253/560/379
f 271/562/380 274/1107/380 254/563/380
f 273/565/381 276/568/381 491/566/381
f 273/565/382 272/553/382 275/555/382
f 351/569/383 254/1108/383 274/570/383
f 223/572/11 272/574/11 265/573/11
f 272/574/384 273/1004/384 266/575/384
f 216/427/385 260/484/385 268/576/385
f 260/484/386 259/588/386 267/578/386
f 425/579/387 270/582/387 489/580/387
f 432/504/388 269/503/388 270/582/388
f 225/583/389 268/585/389 269/584/389
f 268/585/390 267/1005/390 270/586/390
f 485/587/1 492/510/1 259/588/1
f 259/588/1 260/484/1 257/485/1
f 428/590/137 430/999/137 261/591/137
f 302/593/391 451/1109/391 473/594/391
f 213/456/11 251/455/11 265/573/11
f 257/596/139 265/573/139 266/575/139
f 285/598/392 287/1110/392 329/599/392
f 286/601/93 288/718/93 508/602/93
f 372/604/11 329/1111/11 287/605/11
f 335/607/11 286/1015/11 282/608/11
f 279/610/393 417/1112/393 280/611/393
f 325/347/262 278/722/262 283/613/262
f 504/615/172 419/721/172 284/616/172
f 327/618/394 283/1016/394 284/619/394
f 509/374/1 278/722/1 277/621/1
f 433/623/145 417/1113/145 279/624/145
f 341/626/146 221/1114/146 482/627/146
f 330/629/11 333/609/11 282/608/11
f 297/631/395 299/1115/395 142/632/395
f 323/634/93 298/280/93 300/282/93
f 541/636/11 142/1116/11 299/637/11
f 111/272/11 298/692/11 294/639/11
f 303/640/396 523/892/396 319/641/396
f 104/150/397 290/208/397 295/643/397
f 437/229/398 296/228/398 322/645/398
f 113/647/399 295/689/399 296/648/399
f 318/649/1 313/700/1 290/208/1
f 415/650/153 435/1117/153 291/651/153
f 262/653/400 219/1118/400 481/654/400
f 101/180/11 139/179/11 294/639/11
f 103/226/1 308/235/1 301/657/1
f 413/658/401 412/1021/401 305/659/401
f 105/275/402 311/1119/402 309/661/402
f 306/662/93 307/1020/93 144/663/93
f 297/665/403 292/780/403 449/666/403
f 521/668/404 312/1069/404 544/277/404
f 306/271/11 304/270/11 316/670/11
f 308/235/405 310/234/405 520/672/405
f 314/674/12 520/1120/12 310/675/12
f 550/676/12 452/703/12 524/677/12
f 332/679/80 470/973/80 484/680/80
f 316/670/11 304/270/11 301/181/11
f 294/639/11 321/693/11 318/683/11
f 220/684/111 479/1121/111 459/685/111
f 391/686/406 522/781/406 518/687/406
f 295/689/407 315/1022/407 322/690/407
f 290/208/266 313/700/266 315/691/266
f 298/692/11 323/1023/11 321/693/11
f 543/638/408 299/637/408 317/694/408
f 299/696/409 449/982/409 453/697/409
f 438/699/1 519/673/1 313/700/1
f 319/701/410 439/646/410 322/645/410
f 452/703/12 466/933/12 526/704/12
f 517/705/93 323/634/93 324/635/93
f 157/319/11 195/318/11 333/609/11
f 163/707/167 478/1122/167 455/708/167
f 422/710/168 433/623/168 326/625/168
f 169/712/411 327/618/411 334/620/411
f 325/347/412 327/614/412 169/713/412
f 167/410/11 335/607/11 333/609/11
f 198/714/11 329/1111/11 372/604/11
f 328/600/413 329/599/413 198/716/413
f 286/601/93 335/418/93 336/420/93
f 328/406/11 326/405/11 279/719/11
f 434/368/414 334/367/414 284/616/414
f 278/722/1 325/347/1 330/348/1
f 341/626/146 458/628/146 481/723/146
f 320/725/80 466/1017/80 464/726/80
f 275/728/415 353/571/415 354/729/415
f 351/569/416 353/571/416 275/728/416
f 349/556/417 351/558/417 255/732/417
f 491/734/418 497/552/418 352/551/418
f 350/549/11 344/441/11 252/447/11
f 218/541/419 349/547/419 343/471/419
f 208/525/420 337/430/420 345/499/420
f 345/493/421 347/492/421 235/444/421
f 229/477/422 348/489/422 346/490/422
f 350/472/82 352/474/82 253/736/82
f 209/738/423 339/469/423 343/471/423
f 431/739/424 427/468/424 347/467/424
f 222/741/80 480/1123/80 502/742/80
f 429/460/425 348/459/425 229/531/425
f 206/435/36 340/443/36 338/450/36
f 340/443/36 346/442/36 231/744/36
f 344/441/11 338/440/11 211/745/11
f 210/511/51 337/430/51 339/432/51
f 399/746/11 369/715/11 372/604/11
f 525/748/426 521/1124/426 317/698/426
f 498/749/427 486/1125/427 493/750/427
f 402/747/11 372/604/11 371/606/11
f 367/421/94 369/423/94 399/753/94
f 511/755/11 370/1126/11 400/756/11
f 368/414/11 362/303/11 395/758/11
f 162/404/11 367/832/11 361/334/11
f 152/389/51 355/292/51 363/760/51
f 172/308/428 363/833/428 365/761/428
f 173/338/429 366/834/429 364/762/429
f 161/764/430 368/835/430 370/765/430
f 392/766/11 357/332/11 361/334/11
f 441/767/97 421/331/97 365/330/97
f 303/187/80 465/186/80 526/769/80
f 418/395/197 423/839/197 366/771/197
f 150/297/36 358/305/36 356/773/36
f 358/305/36 364/304/36 396/774/36
f 362/303/11 356/302/11 404/775/11
f 403/363/51 355/292/51 357/294/51
f 389/777/431 391/686/431 324/688/431
f 360/779/432 164/1127/432 476/426/432
f 291/651/433 435/1117/433 292/780/433
f 522/781/11 390/1033/11 307/782/11
f 406/783/111 472/964/111 477/784/111
f 387/786/434 389/777/434 300/778/434
f 385/788/94 387/1034/94 143/789/94
f 307/782/11 390/1033/11 388/791/11
f 112/269/11 386/1035/11 380/793/11
f 539/794/11 385/274/11 379/273/11
f 373/224/51 381/223/51 531/795/51
f 381/217/12 383/216/12 532/796/12
f 533/798/435 384/213/435 382/214/435
f 386/196/82 388/198/82 542/800/82
f 97/802/11 375/1036/11 379/273/11
f 436/803/192 414/1037/192 383/804/192
f 359/806/146 462/958/146 478/807/146
f 416/184/436 384/183/436 533/809/436
f 535/166/36 376/173/36 374/174/36
f 376/173/36 382/1038/36 119/812/36
f 380/793/11 374/1039/11 99/813/11
f 98/222/51 373/224/51 375/814/51
f 154/361/51 403/363/51 392/776/51
f 395/758/11 404/775/11 155/815/11
f 393/312/36 396/774/36 175/816/36
f 440/817/192 441/767/192 408/768/192
f 153/819/11 392/766/11 394/411/11
f 168/407/11 398/759/11 395/758/11
f 508/820/11 512/757/11 400/756/11
f 397/754/94 399/753/94 199/822/94
f 402/747/11 401/752/11 288/824/11
f 399/746/11 402/747/11 336/825/11
f 293/727/80 464/726/80 483/827/80
f 165/829/146 484/1128/146 471/830/146
f 367/832/11 397/412/11 394/411/11
f 403/363/51 407/362/51 363/760/51
f 407/356/437 408/355/437 365/761/437
f 366/834/438 409/352/438 396/353/438
f 368/835/82 398/335/82 400/337/82
f 166/836/80 477/1129/80 516/837/80
f 442/323/439 409/322/439 366/771/439
f 358/305/36 393/312/36 404/313/36
f 108/840/440 411/1028/440 410/841/440
f 110/843/441 303/640/441 412/642/441
f 107/845/442 415/885/442 529/846/442
f 547/848/229 378/910/229 416/849/229
f 280/611/443 447/1130/443 287/851/443
f 513/852/215 281/883/215 419/853/215
f 163/855/444 422/898/444 421/856/444
f 360/858/445 423/907/445 418/859/445
f 220/861/446 424/871/446 486/862/446
f 499/864/447 264/878/447 425/865/447
f 219/867/448 428/873/448 427/868/448
f 220/861/449 342/903/449 429/870/449
f 219/867/450 262/1131/450 430/872/450
f 496/874/451 501/1132/451 498/749/451
f 221/875/452 431/901/452 432/876/452
f 263/877/453 432/876/453 425/865/453
f 331/879/454 280/1133/454 417/880/454
f 332/882/455 434/900/455 419/853/455
f 107/845/456 292/1134/456 435/884/456
f 109/886/452 436/909/452 437/887/452
f 451/889/457 302/1135/457 311/890/457
f 523/892/458 320/897/458 439/893/458
f 302/894/459 410/1136/459 309/895/459
f 320/897/217 293/888/217 437/887/217
f 163/855/460 331/879/460 433/881/460
f 165/899/452 440/911/452 434/900/452
f 221/875/461 341/869/461 427/868/461
f 222/902/462 426/986/462 429/870/462
f 405/904/204 359/857/204 421/856/204
f 406/906/463 442/913/463 423/907/463
f 109/886/464 377/1029/464 414/908/464
f 110/843/465 413/844/465 416/849/465
f 165/899/466 405/904/466 441/905/466
f 166/912/462 420/1009/462 442/913/462
f 465/914/12 474/1137/12 468/915/12
f 516/917/12 477/1138/12 472/918/12
f 502/920/12 480/1139/12 459/921/12
f 458/923/467 482/1140/467 456/924/467
f 456/924/468 457/985/468 445/926/468
f 461/927/12 470/935/12 469/928/12
f 467/930/12 483/1141/12 464/931/12
f 524/677/12 526/704/12 465/914/12
f 448/932/469 464/931/469 466/933/469
f 471/934/12 484/1142/12 470/935/12
f 496/936/470 497/983/470 500/937/470
f 458/923/471 443/925/471 444/939/471
f 501/941/472 500/922/472 459/921/472
f 478/943/12 462/954/12 454/944/12
f 454/944/473 446/955/473 447/946/473
f 447/947/474 446/1143/474 371/948/474
f 448/932/475 452/703/475 550/676/475
f 524/677/12 450/916/12 549/951/12
f 467/930/476 448/932/476 548/950/476
f 450/916/12 468/915/12 552/953/12
f 471/934/12 461/927/12 454/944/12
f 461/927/12 460/929/12 446/955/12
f 514/956/12 515/919/12 472/918/12
f 405/831/146 471/830/146 462/958/146
f 264/959/80 457/993/80 456/960/80
f 377/961/241 467/971/241 551/962/241
f 360/779/242 463/425/242 472/964/242
f 331/709/477 455/708/477 447/965/477
f 108/967/111 473/1144/111 552/968/111
f 109/970/146 483/1145/146 467/971/146
f 281/972/80 469/1010/80 470/973/80
f 511/974/478 371/1146/478 446/975/478
f 378/977/111 468/1024/111 474/978/111
f 292/980/479 107/1147/479 475/981/479
f 497/983/480 354/1006/480 445/984/480
f 457/985/481 502/920/481 500/922/481
f 222/902/482 499/864/482 487/866/482
f 262/987/483 444/1148/483 274/988/483
f 498/990/484 501/1149/484 479/991/484
f 264/959/80 499/743/80 502/742/80
f 276/730/485 354/729/485 497/552/485
f 215/501/1 492/510/1 485/587/1
f 426/994/486 487/581/486 489/580/486
f 217/548/11 495/1150/11 493/996/11
f 490/567/93 491/566/93 256/997/93
f 430/999/487 262/1151/487 271/1000/487
f 274/1001/488 444/1152/488 443/1002/488
f 490/546/489 488/545/489 266/575/489
f 259/588/1 492/510/1 494/509/1
f 267/1005/490 494/1095/490 489/496/490
f 354/1006/491 353/1003/491 443/1002/491
f 266/575/259 488/545/259 485/457/259
f 511/974/492 514/976/492 463/1007/492
f 460/929/12 515/919/12 514/956/12
f 469/928/12 516/917/12 515/919/12
f 166/912/493 513/852/493 504/854/493
f 513/838/80 516/837/80 469/1010/80
f 401/752/11 512/757/11 508/820/11
f 401/752/11 371/606/11 511/755/11
f 159/365/1 509/374/1 503/622/1
f 420/1011/494 504/615/494 506/617/494
f 507/603/93 508/602/93 200/1013/93
f 507/409/11 505/408/11 282/608/11
f 509/374/495 510/373/495 283/613/495
f 283/1016/359 510/1078/359 506/359/359
f 277/630/11 282/608/11 505/408/11
f 523/770/80 526/769/80 466/1017/80
f 312/1018/496 521/1124/496 525/748/496
f 517/705/93 518/706/93 307/1020/93
f 412/1021/497 319/701/497 314/702/497
f 308/235/1 519/673/1 438/699/1
f 321/693/11 316/670/11 438/682/11
f 315/1022/12 520/1120/12 314/674/12
f 519/673/498 520/672/498 315/691/498
f 323/1023/11 517/671/11 316/670/11
f 317/694/499 521/668/499 554/669/499
f 545/695/500 554/669/500 522/781/500
f 547/969/111 552/968/111 468/1024/111
f 107/1025/269 546/963/269 551/962/269
f 451/1019/12 549/951/12 552/953/12
f 551/952/501 548/950/501 449/982/501
f 525/748/12 553/678/12 549/951/12
f 548/950/502 550/676/502 453/697/502
f 108/840/503 547/848/503 530/850/503
f 546/847/504 529/846/504 414/908/504
f 94/158/36 535/166/36 528/811/36
f 411/256/505 530/810/505 533/809/505
f 540/801/82 542/800/82 141/1031/82
f 117/201/506 533/798/506 538/799/506
f 531/797/12 532/796/12 123/167/12
f 527/153/51 531/795/51 116/253/51
f 106/266/11 539/794/11 536/195/11
f 389/777/507 543/638/507 545/695/507
f 453/697/12 550/676/12 553/678/12
f 554/669/508 544/277/508 390/1033/508
f 387/786/509 541/636/509 543/638/509
f 385/788/94 539/283/94 541/285/94
f 390/1033/510 544/277/510 542/279/510
f 540/276/11 537/164/11 380/793/11
f 375/1036/11 534/193/11 536/195/11
f 414/1037/511 529/190/511 532/192/511
f 535/166/36 538/165/36 382/1038/36
f 537/164/11 528/163/11 374/1039/11
f 373/224/51 527/153/51 534/155/51
