# Blender 4.2.1 LTS
# www.blender.org
mtllib table_1.mtl
g table_1_Mesh
v -1.759205 0.570076 0.395174
v -1.759205 0.666901 0.395174
v -1.759205 0.570076 -0.395173
v -1.759205 0.666901 -0.395173
v 1.759204 0.570076 0.395174
v 1.759204 0.666901 0.395174
v 1.759204 0.570076 -0.395173
v 1.759204 0.666901 -0.395173
v 1.527330 0.570076 -0.395173
v 1.610112 0.570076 -0.395173
v 0.054601 0.570076 -0.395173
v 0.137382 0.570076 -0.395173
v -1.610113 0.570076 -0.395173
v -1.527331 0.570076 -0.395173
v -1.527331 0.666901 -0.395173
v -1.610113 0.666901 -0.395173
v 0.137383 0.666901 -0.395173
v 0.054601 0.666901 -0.395173
v 1.610112 0.666901 -0.395173
v 1.527330 0.666901 -0.395173
v -1.527331 0.570076 0.395174
v -1.610113 0.570076 0.395174
v 0.190427 0.570076 0.390873
v 0.107645 0.570076 0.390873
v 1.610112 0.570076 0.395174
v 1.527330 0.570076 0.395174
v 1.527330 0.666901 0.395174
v 1.610112 0.666901 0.395174
v 0.107644 0.666901 0.390873
v 0.190426 0.666901 0.390873
v -1.610113 0.666901 0.395174
v -1.527331 0.666901 0.395174
v -1.591835 0.514957 0.275654
v -1.591835 0.514957 0.320529
v -1.545610 0.514957 0.320529
v -1.545610 0.514957 0.275654
v -1.591835 0.514957 -0.022437
v -1.591835 0.514957 0.022438
v -1.545610 0.514957 0.022438
v -1.545610 0.514957 -0.022437
v -1.591835 0.514957 -0.320529
v -1.591835 0.514957 -0.275654
v -1.545610 0.514957 -0.275654
v -1.545610 0.514957 -0.320529
v 0.072880 0.514957 0.275654
v 0.072880 0.514957 0.320529
v 0.119104 0.514957 0.320529
v 0.119104 0.514957 0.275654
v 0.072880 0.514957 -0.022437
v 0.072880 0.514957 0.022438
v 0.119104 0.514957 0.022438
v 0.119104 0.514957 -0.022437
v 0.072880 0.514957 -0.320529
v 0.072880 0.514957 -0.275654
v 0.119104 0.514957 -0.275654
v 0.119104 0.514957 -0.320529
v 1.545609 0.514957 0.275654
v 1.545609 0.514957 0.320529
v 1.545609 0.514957 -0.022437
v 1.545609 0.514957 0.022438
v 1.545609 0.514957 -0.320529
v 1.545609 0.514957 -0.275654
v 1.591833 0.514957 0.275654
v 1.591833 0.514957 0.320529
v 1.591833 0.514957 -0.022437
v 1.591833 0.514957 0.022438
v 1.591833 0.514957 -0.320529
v 1.591833 0.514957 -0.275654
v 1.759204 0.666901 0.333210
v 1.759204 0.666901 0.262973
v 1.759204 0.666901 0.035119
v 1.759204 0.666901 -0.035119
v 1.759204 0.666901 -0.262972
v 1.759204 0.666901 -0.333210
v 1.759204 0.570076 -0.333210
v 1.759204 0.570076 -0.262972
v 1.759204 0.570076 -0.035119
v 1.759204 0.570076 0.035119
v 1.759204 0.570076 0.262972
v 1.759204 0.570076 0.333210
v -1.759205 0.666901 -0.333210
v -1.759205 0.666901 -0.262972
v -1.759205 0.666901 -0.035119
v -1.759205 0.666901 0.035119
v -1.759205 0.666901 0.262972
v -1.759205 0.666901 0.333210
v -1.759205 0.570076 0.333210
v -1.759205 0.570076 0.262973
v -1.759205 0.570076 0.035119
v -1.759205 0.570076 -0.035119
v -1.759205 0.570076 -0.262972
v -1.759205 0.570076 -0.333210
v 1.527330 0.666901 -0.333210
v 1.527330 0.666901 -0.262972
v 1.527330 0.666901 -0.035119
v 1.527330 0.666901 0.035119
v 1.527330 0.666901 0.262973
v 1.527330 0.666901 0.333210
v 1.610112 0.666901 0.333210
v 1.610112 0.666901 0.262972
v 1.610112 0.666901 0.035119
v 1.610112 0.666901 -0.035119
v 1.610112 0.666901 -0.262972
v 1.610112 0.666901 -0.333210
v 0.054601 0.666901 -0.333210
v 0.054601 0.666901 -0.262972
v 0.054601 0.666901 -0.035119
v 0.054601 0.666901 0.035119
v 0.054601 0.666901 0.262973
v 0.054601 0.666901 0.333210
v 0.137383 0.666901 0.333210
v 0.137383 0.666901 0.262972
v 0.137383 0.666901 0.035119
v 0.137383 0.666901 -0.035119
v 0.137383 0.666901 -0.262972
v 0.137383 0.666901 -0.333210
v -1.610113 0.666901 -0.333210
v -1.610113 0.666901 -0.262972
v -1.610113 0.666901 -0.035119
v -1.610113 0.666901 0.035119
v -1.610113 0.666901 0.262973
v -1.610113 0.666901 0.333210
v -1.527331 0.666901 0.333210
v -1.527331 0.666901 0.262972
v -1.527331 0.666901 0.035119
v -1.527331 0.666901 -0.035119
v -1.527331 0.666901 -0.262972
v -1.527331 0.666901 -0.333210
v -1.527331 0.570076 -0.333210
v -1.527331 0.570076 -0.262972
v -1.527331 0.570076 -0.035119
v -1.527331 0.570076 0.035119
v -1.527331 0.570076 0.262973
v -1.527331 0.570076 0.333210
v -1.610113 0.570076 0.333210
v -1.610113 0.570076 0.262972
v -1.610113 0.570076 0.035119
v -1.610113 0.570076 -0.035119
v -1.610113 0.570076 -0.262972
v -1.610113 0.570076 -0.333210
v 0.137383 0.570076 -0.333210
v 0.137383 0.570076 -0.262972
v 0.137383 0.570076 -0.035119
v 0.137383 0.570076 0.035119
v 0.137383 0.570076 0.262973
v 0.137383 0.570076 0.333210
v 0.054601 0.570076 0.333210
v 0.054601 0.570076 0.262972
v 0.054601 0.570076 0.035119
v 0.054601 0.570076 -0.035119
v 0.054601 0.570076 -0.262972
v 0.054601 0.570076 -0.333210
v 1.610112 0.570076 -0.262972
v 1.610112 0.570076 -0.333210
v 1.610112 0.570076 0.035119
v 1.610112 0.570076 -0.035119
v 1.610112 0.570076 0.333210
v 1.610112 0.570076 0.262973
v 1.527330 0.570076 0.333210
v 1.527330 0.570076 0.262972
v 1.527330 0.570076 0.035119
v 1.527330 0.570076 -0.035119
v 1.527330 0.570076 -0.262972
v 1.527330 0.570076 -0.333210
v -1.610113 0.514957 -0.035119
v -1.527331 0.514957 -0.035119
v -1.527331 0.514957 -0.262972
v -1.610113 0.514957 -0.262972
v 0.137383 0.514957 0.035119
v 0.054601 0.514957 0.035119
v 1.527330 0.514957 0.262972
v 1.610112 0.514957 0.262973
v 1.527330 0.514957 -0.333210
v 1.610112 0.514957 -0.333210
v 1.610112 0.514957 -0.262972
v -1.610113 0.514957 0.333210
v -1.610113 0.514957 0.262972
v -1.527331 0.514957 0.035119
v -1.610113 0.514957 -0.333210
v -1.527331 0.514957 -0.333210
v 0.054601 0.514957 0.262972
v 0.137383 0.514957 0.262973
v 0.137383 0.514957 0.333210
v 0.054601 0.514957 -0.262972
v 0.054601 0.514957 -0.333210
v 0.137383 0.514957 -0.262972
v 0.137383 0.514957 -0.333210
v 1.527330 0.514957 0.333210
v 1.610112 0.514957 0.333210
v 1.527330 0.514957 0.035119
v 1.527330 0.514957 -0.035119
v 1.527330 0.514957 -0.262972
v 1.610112 0.514957 0.035119
v 1.610112 0.514957 -0.035119
v 0.054601 0.514957 0.333210
v 0.054601 0.514957 -0.035119
v 0.137383 0.514957 -0.035119
v -1.527331 0.514957 0.333210
v -1.610113 0.514957 0.035119
v -1.527331 0.514957 0.262973
v -1.591835 0.000000 -0.022437
v -1.545610 0.000000 -0.022437
v -1.545610 0.000000 -0.275654
v -1.591835 0.000000 -0.275654
v 0.119104 0.000000 0.022438
v 0.072880 0.000000 0.022438
v 1.545609 0.000000 0.275654
v 1.591833 0.000000 0.275654
v 1.545609 0.000000 -0.320529
v 1.591833 0.000000 -0.320529
v 1.591833 0.000000 -0.275654
v -1.591835 0.000000 0.320529
v -1.591835 0.000000 0.275654
v -1.545610 0.000000 0.022438
v -1.591835 0.000000 -0.320529
v -1.545610 0.000000 -0.320529
v 0.072880 0.000000 0.275654
v 0.119104 0.000000 0.275654
v 0.119104 0.000000 0.320529
v 0.072880 0.000000 -0.275654
v 0.072880 0.000000 -0.320529
v 0.119104 0.000000 -0.275654
v 0.119104 0.000000 -0.320529
v 1.545609 0.000000 0.320529
v 1.591833 0.000000 0.320529
v 1.545609 0.000000 0.022438
v 1.545609 0.000000 -0.022437
v 1.545609 0.000000 -0.275654
v 1.591833 0.000000 0.022438
v 1.591833 0.000000 -0.022437
v 0.072880 0.000000 0.320529
v 0.072880 0.000000 -0.022437
v 0.119104 0.000000 -0.022437
v -1.545610 0.000000 0.320529
v -1.591835 0.000000 0.022438
v -1.545610 0.000000 0.275654
v -0.205297 0.570076 -0.395173
v -0.205297 0.666901 -0.395173
v -0.205297 0.570076 -0.262972
v -0.205297 0.570076 -0.333210
v -0.340318 0.570076 0.063997
v -0.205297 0.570076 -0.035119
v -0.205297 0.666901 -0.262972
v -0.205297 0.666901 -0.333210
v -0.307854 0.633667 0.072583
v -0.205297 0.666901 -0.035119
v -0.847925 0.570076 -0.395173
v -0.958031 0.570076 0.379813
v -0.847925 0.570076 -0.262972
v -0.847925 0.570076 0.035119
v -0.757078 0.582781 0.288321
v -0.847925 0.666901 -0.333210
v -0.847925 0.666901 -0.035119
v -0.738161 0.628750 0.235969
v -0.847925 0.666901 -0.395173
v -0.961702 0.646833 0.387702
v -0.847925 0.570076 -0.333210
v -0.847925 0.570076 -0.035119
v -0.740983 0.590717 0.219413
v -0.847925 0.666901 -0.262972
v -0.847925 0.666901 0.035119
v -0.821855 0.628498 0.311107
v -0.377992 0.666901 -0.395173
v -0.377992 0.570076 -0.333210
v -0.427017 0.570076 -0.083658
v -0.582013 0.603375 0.232442
v -0.377992 0.666901 -0.262972
v -0.417127 0.640839 0.034297
v -0.377992 0.570076 -0.395173
v -0.377992 0.570076 -0.262972
v -0.418068 0.583410 0.023505
v -0.377992 0.666901 -0.333210
v -0.427017 0.666901 -0.083657
v -0.583704 0.635987 0.246052
v 0.738222 0.570076 -0.395173
v 0.274906 0.570076 -0.395173
v 0.274906 0.666901 -0.395173
v 0.738222 0.666901 -0.395173
v 0.274906 0.570076 0.395174
v 0.274906 0.666901 0.395174
v 0.738222 0.570076 -0.262972
v 0.274906 0.570076 -0.262972
v 0.274906 0.570076 -0.333210
v 0.738222 0.570076 -0.333210
v 0.738222 0.570076 0.035119
v 0.274906 0.570076 0.035119
v 0.274906 0.570076 -0.035119
v 0.738222 0.570076 -0.035119
v 0.868398 0.561543 0.378759
v 0.274906 0.570076 0.333210
v 0.274906 0.570076 0.262972
v 0.738222 0.570076 0.262972
v 0.274906 0.666901 -0.262972
v 0.738222 0.666901 -0.262972
v 0.738222 0.666901 -0.333210
v 0.274906 0.666901 -0.333210
v 0.274906 0.666901 0.035119
v 0.736078 0.654536 0.038679
v 0.738222 0.666901 -0.035119
v 0.274906 0.666901 -0.035119
v 0.274906 0.666901 0.333210
v 0.886457 0.631144 0.384741
v 0.732034 0.649438 0.268257
v 0.274906 0.666901 0.262972
v 0.386290 0.570076 -0.395173
v 0.386290 0.666901 -0.395173
v 0.386290 0.570076 0.395174
v 0.384278 0.645556 0.401181
v 0.386290 0.570076 -0.262972
v 0.386290 0.570076 -0.333210
v 0.386290 0.570076 0.035119
v 0.386290 0.570076 -0.035119
v 0.638643 0.547203 0.293965
v 0.386290 0.570076 0.262972
v 0.386290 0.666901 -0.262972
v 0.386290 0.666901 -0.333210
v 0.386290 0.666901 0.035119
v 0.386290 0.666901 -0.035119
v 0.635317 0.595005 0.307656
v 0.386290 0.666901 0.262972
v 1.309001 0.666901 -0.395173
v 1.308788 0.649878 0.399851
v 1.309001 0.570076 -0.333210
v 1.309001 0.570076 -0.035119
v 1.309001 0.570076 0.262972
v 1.309001 0.666901 -0.262972
v 1.302598 0.653834 0.039218
v 1.198762 0.639612 0.358443
v 1.309001 0.570076 -0.395173
v 1.302016 0.591037 0.390004
v 1.309001 0.570076 -0.262972
v 1.309001 0.570076 0.035119
v 1.160635 0.578570 0.351752
v 1.309001 0.666901 -0.333210
v 1.309001 0.666901 -0.035119
v 1.309001 0.666901 0.262972
v 1.759204 0.570076 0.210974
v 1.759204 0.666901 0.210974
v 1.610112 0.666901 0.210974
v 1.610112 0.570076 0.210974
v -1.759205 0.570076 0.210974
v -1.759205 0.666901 0.210974
v -1.610113 0.666901 0.210974
v -1.610113 0.570076 0.210974
v 1.527330 0.666901 0.210974
v 0.137383 0.666901 0.210974
v 0.054601 0.666901 0.210974
v -1.527331 0.666901 0.210974
v -1.527331 0.570076 0.210974
v 0.054601 0.570076 0.210974
v 0.137383 0.570076 0.210974
v 1.527330 0.570076 0.210974
v -0.357435 0.602057 0.136238
v -0.314280 0.653074 0.145353
v -0.759518 0.570076 0.172266
v -0.759518 0.666901 0.172266
v -0.482497 0.653376 0.173782
v -0.465909 0.604331 0.164333
v 0.753634 0.655851 0.212744
v 0.274906 0.666901 0.210974
v 0.274906 0.570076 0.210974
v 0.738222 0.570076 0.210974
v 0.386290 0.570076 0.210974
v 0.386290 0.666901 0.210974
v 1.309001 0.666901 0.210974
v 1.309001 0.570076 0.210974
v -0.075348 0.666901 -0.395173
v -0.075348 0.570076 -0.333210
v -0.075348 0.570076 -0.035119
v -0.048022 0.570076 0.267273
v -0.075348 0.666901 -0.262972
v -0.075348 0.666901 0.035119
v -0.075348 0.570076 -0.395173
v -0.075348 0.570076 -0.262972
v -0.075348 0.570076 0.035119
v -0.075348 0.666901 -0.333210
v -0.075348 0.666901 -0.035119
v -0.048931 0.650922 0.273320
v -0.153306 0.666901 0.219575
v -0.164801 0.580390 0.217076
v -0.054890 0.584833 0.374057
v -0.039524 0.653563 0.382719
v -1.759205 0.618489 -0.395173
v -0.101012 0.645156 0.336458
v -0.119237 0.583905 0.325348
v -1.759205 0.618489 0.395174
v 1.759204 0.618489 -0.395173
v 1.759204 0.618489 0.395174
v 1.527330 0.618489 0.395174
v 1.610112 0.618489 0.395174
v 0.107645 0.618489 0.390873
v 0.190427 0.618489 0.390873
v -1.610113 0.618489 0.395174
v -1.527331 0.618489 0.395174
v -1.527331 0.618489 -0.395173
v -1.610113 0.618489 -0.395173
v 0.137383 0.618489 -0.395173
v 0.054601 0.618489 -0.395173
v 1.610112 0.618489 -0.395173
v 1.527330 0.618489 -0.395173
v 1.759204 0.618489 -0.262972
v 1.759204 0.618489 -0.333210
v 1.759204 0.618489 0.035119
v 1.759204 0.618489 -0.035119
v 1.759204 0.618489 0.333210
v 1.759204 0.618489 0.262972
v -1.759205 0.618489 0.262972
v -1.759205 0.618489 0.333210
v -1.759205 0.618489 -0.035119
v -1.759205 0.618489 0.035119
v -1.759205 0.618489 -0.333210
v -1.759205 0.618489 -0.262972
v -0.189209 0.608092 0.214656
v -0.368269 0.639811 0.143621
v -0.205297 0.618489 -0.395173
v -0.847925 0.618489 -0.395173
v -0.928208 0.625295 0.388497
v -0.377992 0.618489 -0.395173
v -0.373712 0.623955 0.074379
v -0.400434 0.610094 0.049665
v -0.447713 0.631066 0.196121
v 0.274906 0.618489 0.395174
v 0.274906 0.618489 -0.395173
v 0.738222 0.618489 -0.395173
v -0.721935 0.612398 0.248364
v 0.386290 0.618489 -0.395173
v 0.386290 0.618468 0.395174
v -0.579719 0.618489 0.265201
v 1.309001 0.618632 0.395174
v 1.309001 0.618489 -0.395173
v -1.759205 0.618489 0.210974
v 1.759204 0.618489 0.210974
v -0.085882 0.611354 0.272666
v -0.075348 0.618489 -0.395173
v -0.051920 0.618489 0.379199
v -0.728320 0.608322 0.296051
v -0.140827 0.618489 0.327601
v 0.863001 0.588912 0.401484
v 0.641992 0.589374 0.355407
v 1.103767 0.624909 0.370000
vn -0.0000 1.0000 -0.0000
vn -0.0000 -0.0000 -1.0000
vn 0.0105 0.0532 0.9985
vn -0.0000 -0.0000 1.0000
vn 1.0000 -0.0000 -0.0000
vn -0.0000 -1.0000 -0.0000
vn -0.0508 -0.0000 0.9987
vn 0.0492 0.9880 -0.1467
vn -0.0053 -0.9448 0.3276
vn 0.0589 0.8650 0.4983
vn -0.0493 -0.9947 -0.0898
vn -1.0000 -0.0000 -0.0000
vn 0.0200 -0.9938 -0.1098
vn -0.0542 0.9842 0.1683
vn -0.0655 0.9769 0.2036
vn -0.4825 0.2237 0.8468
vn -0.0119 0.9762 0.2167
vn -0.1482 0.9665 -0.2097
vn 0.0544 0.9985 -0.0000
vn 0.0141 -0.9924 0.1223
vn 0.0450 0.9551 0.2929
vn 0.0416 -0.9212 0.3869
vn 0.0604 0.9982 -0.0000
vn 0.0161 0.5674 0.8233
vn 0.0353 0.9994 -0.0000
vn -0.0000 -0.9955 0.0952
vn -0.0751 -0.9900 -0.1191
vn -0.0199 0.9998 -0.0000
vn -0.4556 0.4195 0.7851
vn -0.3982 -0.2744 0.8753
vn 0.1952 0.9807 -0.0061
vn -0.4752 -0.4412 0.7613
vn -0.0000 -0.2165 0.9763
vn 0.5186 0.8538 0.0452
vn 0.2851 -0.8778 0.3850
vn 0.0292 0.9916 0.1259
vn 0.1471 -0.9605 -0.2362
vn -0.0001 -0.1481 0.9890
vn -0.0777 0.9970 -0.0000
vn -0.0123 0.9852 0.1710
vn 0.0011 0.9862 0.1653
vn -0.0108 -0.9077 0.4195
vn 0.0301 0.9995 -0.0106
vn -0.0201 0.9970 -0.0751
vn 0.0305 -0.9993 -0.0196
vn 0.0490 0.9966 -0.0666
vn -0.1513 0.9864 -0.0639
vn -0.0460 -0.9984 0.0340
vn -0.2459 -0.9066 0.3431
vn -0.1525 0.9883 -0.0000
vn -0.1073 0.9742 0.1985
vn -0.0728 -0.0741 0.9946
vn -0.0947 0.9917 0.0871
vn -0.0845 -0.9879 0.1304
vn -0.1388 0.9900 -0.0241
vn -0.6777 -0.3822 -0.6282
vn 0.4202 0.6759 0.6055
vn 0.6938 -0.7158 0.0796
vn 0.6425 0.7514 0.1502
vn 0.4062 -0.3520 0.8433
vn -0.6401 0.6056 -0.4727
vn -0.1145 -0.1401 0.9835
vn -0.1118 0.7219 0.6829
vn -0.0388 -0.1745 0.9839
vn 0.3070 0.7335 0.6064
vn 0.6183 -0.7192 0.3169
vn -0.1143 0.8652 0.4882
vn -0.4246 0.1851 0.8863
vn -0.6015 -0.0685 0.7959
vn -0.8465 -0.5313 0.0346
vn -0.4545 -0.3282 0.8281
vn 0.0270 -0.0000 0.9996
vn -0.3192 0.4971 0.8068
vn 0.1036 -0.2518 0.9622
vn -0.3371 -0.1416 0.9308
vn 0.2263 0.9705 0.0828
vn -0.1566 -0.6490 0.7445
vn 0.0733 0.3321 0.9404
vn -0.2498 -0.1168 0.9612
vn 0.1480 -0.8191 0.5542
vn 0.0132 -0.0000 0.9999
vn 0.0355 0.9994 -0.0000
vn -0.0926 -0.9957 -0.0000
vn 0.0165 -0.9999 -0.0000
vn -0.3868 0.3471 0.8544
vn -0.0541 0.9675 0.2470
vn -0.2216 0.9372 -0.2695
vn 0.0096 -0.9931 -0.1169
vn 0.0455 -0.9216 0.3855
vn 0.0502 0.9970 0.0593
vn 0.0310 -0.9995 -0.0000
vn -0.0742 0.8444 0.5306
vn -0.2375 -0.9613 0.1394
vn 0.1188 -0.9748 0.1889
vn 0.0246 0.9766 0.2137
vn -0.2691 0.8308 0.4872
vn -0.0000 0.9863 0.1653
vn 0.0462 -0.9911 -0.1250
vn -0.0291 0.9942 0.1035
vn -0.6074 0.1361 0.7826
vn -0.3966 -0.2845 0.8728
vn 0.1915 0.9815 -0.0000
vn -0.4733 -0.4371 0.7648
vn -0.0548 -0.0000 0.9985
vn 0.7637 0.5680 0.3068
vn 0.3033 -0.8077 0.5057
vn -0.0524 -0.9942 0.0941
vn 0.0504 0.9987 -0.0000
vn -0.0000 -0.8046 -0.5938
vn 0.2071 0.9215 0.3284
vn 0.0214 -0.0000 0.9998
vn -0.0845 0.9962 -0.0225
vn -0.0200 -0.9979 0.0621
vn -0.0271 0.9690 0.2457
vn -0.0000 0.9849 0.1731
vn 0.0155 -0.8052 0.5928
vn -0.0592 0.9955 -0.0735
vn 0.0012 1.0000 -0.0077
vn 0.1188 -0.9755 0.1853
vn 0.0603 0.9974 -0.0388
vn 0.0344 0.9664 -0.2547
vn 0.0065 -0.9982 0.0598
vn 0.0110 0.9641 0.2653
vn -0.0553 -0.0000 0.9985
vn -0.1383 0.9904 0.0039
vn -0.0994 -0.9908 0.0915
vn -0.0845 -0.9877 0.1315
vn -0.6094 -0.4762 -0.6339
vn 0.2534 0.8875 0.3850
vn 0.6602 -0.7507 0.0242
vn 0.2449 0.9295 0.2759
vn 0.3036 -0.5724 0.7617
vn -0.4017 0.7663 -0.5013
vn -0.0730 -0.0000 0.9973
vn -0.0800 0.5505 0.8310
vn 0.1952 0.8290 0.5240
vn 0.5870 -0.7530 0.2973
vn -0.6786 -0.0013 0.7345
vn -0.1816 0.6422 0.7447
vn -0.4708 -0.3468 0.8112
vn -0.9436 -0.2987 0.1426
vn -0.3849 -0.4578 0.8014
vn 0.0128 -0.1621 0.9867
vn -0.0230 0.9925 0.1203
vn 0.1915 -0.6044 0.7734
vn -0.0497 0.7957 0.6037
vn 0.1275 -0.2057 0.9703
vn -0.1578 -0.8101 0.5646
vn 0.0730 0.2807 0.9570
vn -0.1209 -0.4887 0.8640
vn 0.1537 -0.0000 0.9881
vt 0.320685 0.072347
vt 0.328604 0.070568
vt 0.328604 0.072346
vt 0.334673 0.095312
vt 0.336694 0.094210
vt 0.336694 0.095312
vt 0.337157 0.112538
vt 0.338964 0.110759
vt 0.338964 0.112538
vt 0.319865 0.108829
vt 0.320650 0.102520
vt 0.320458 0.109203
vt 0.334673 0.083575
vt 0.336694 0.081724
vt 0.336694 0.083575
vt 0.328604 0.073334
vt 0.320685 0.073334
vt 0.319317 0.101596
vt 0.320654 0.099933
vt 0.320652 0.101596
vt 0.326046 0.080460
vt 0.327870 0.077898
vt 0.327870 0.080460
vt 0.328604 0.081438
vt 0.320685 0.081439
vt 0.341547 0.112408
vt 0.343701 0.110629
vt 0.343701 0.112408
vt 0.334673 0.109589
vt 0.336694 0.108325
vt 0.336694 0.109589
vt 0.334673 0.081022
vt 0.336694 0.079758
vt 0.336694 0.081022
vt 0.320818 0.072215
vt 0.328740 0.070436
vt 0.328740 0.072215
vt 0.333743 0.071123
vt 0.331979 0.076752
vt 0.331922 0.071142
vt 0.321989 0.091483
vt 0.323441 0.090568
vt 0.323322 0.091509
vt 0.337297 0.112408
vt 0.339104 0.110629
vt 0.339104 0.112408
vt 0.316221 0.073202
vt 0.318376 0.075807
vt 0.316221 0.075807
vt 0.318376 0.072215
vt 0.316221 0.072215
vt 0.341405 0.094831
vt 0.343409 0.093823
vt 0.343559 0.094831
vt 0.341405 0.073333
vt 0.343315 0.080081
vt 0.340668 0.081751
vt 0.316221 0.090771
vt 0.318376 0.092321
vt 0.316221 0.092321
vt 0.341547 0.073202
vt 0.343526 0.075890
vt 0.342193 0.077577
vt 0.462942 0.269340
vt 0.461012 0.290833
vt 0.461012 0.269341
vt 0.330190 0.079885
vt 0.332011 0.079866
vt 0.324887 0.089672
vt 0.323553 0.089645
vt 0.321986 0.101597
vt 0.338715 0.107623
vt 0.336694 0.107623
vt 0.338715 0.093509
vt 0.336694 0.093509
vt 0.338715 0.081022
vt 0.316091 0.070569
vt 0.318244 0.072347
vt 0.316091 0.072347
vt 0.337296 0.072215
vt 0.339104 0.070436
vt 0.339104 0.072215
vt 0.341547 0.070436
vt 0.343701 0.072215
vt 0.341547 0.072215
vt 0.328740 0.073202
vt 0.320818 0.073202
vt 0.339104 0.073202
vt 0.337296 0.073202
vt 0.343701 0.073202
vt 0.328740 0.075807
vt 0.320818 0.075807
vt 0.316221 0.089783
vt 0.318376 0.090771
vt 0.341547 0.089783
vt 0.343552 0.090138
vt 0.341547 0.090771
vt 0.320818 0.090771
vt 0.328740 0.092321
vt 0.320818 0.092321
vt 0.318376 0.109642
vt 0.316221 0.110629
vt 0.316221 0.109642
vt 0.341547 0.109642
vt 0.341547 0.110629
vt 0.337157 0.072345
vt 0.338964 0.073333
vt 0.337157 0.073333
vt 0.316091 0.073335
vt 0.341405 0.072345
vt 0.343559 0.073332
vt 0.335812 0.082492
vt 0.338057 0.082750
vt 0.318244 0.081439
vt 0.316091 0.081439
vt 0.343409 0.092836
vt 0.341405 0.093191
vt 0.341405 0.092203
vt 0.320685 0.093193
vt 0.328604 0.094832
vt 0.320685 0.094833
vt 0.318244 0.109773
vt 0.316091 0.110761
vt 0.316091 0.109774
vt 0.341405 0.109771
vt 0.343559 0.110759
vt 0.341405 0.110759
vt 0.320818 0.089783
vt 0.328740 0.090771
vt 0.339104 0.075807
vt 0.337296 0.075807
vt 0.337296 0.089783
vt 0.339104 0.090771
vt 0.337296 0.090771
vt 0.320818 0.109642
vt 0.328740 0.110629
vt 0.320818 0.110629
vt 0.339254 0.091995
vt 0.337511 0.093388
vt 0.337297 0.109642
vt 0.337296 0.110629
vt 0.316091 0.093193
vt 0.318244 0.094833
vt 0.316091 0.094834
vt 0.318376 0.112408
vt 0.316221 0.112408
vt 0.320818 0.112408
vt 0.328740 0.112408
vt 0.321986 0.094679
vt 0.320650 0.098004
vt 0.320650 0.094679
vt 0.321986 0.091088
vt 0.320650 0.093654
vt 0.320650 0.091088
vt 0.321986 0.088400
vt 0.320650 0.089304
vt 0.320650 0.088400
vt 0.320685 0.109773
vt 0.328604 0.110760
vt 0.320685 0.110761
vt 0.337157 0.094832
vt 0.338964 0.093191
vt 0.338964 0.094832
vt 0.337157 0.109772
vt 0.337157 0.110759
vt 0.316221 0.070436
vt 0.326046 0.110331
vt 0.327870 0.107278
vt 0.327870 0.110331
vt 0.326046 0.103816
vt 0.327870 0.092588
vt 0.327870 0.103816
vt 0.316091 0.092206
vt 0.318244 0.093193
vt 0.320685 0.092205
vt 0.328604 0.093192
vt 0.337157 0.092204
vt 0.337157 0.093191
vt 0.318244 0.112539
vt 0.316091 0.112540
vt 0.320685 0.112539
vt 0.328604 0.112539
vt 0.326046 0.074436
vt 0.327870 0.071383
vt 0.327870 0.074436
vt 0.343559 0.070566
vt 0.343559 0.072345
vt 0.338964 0.070567
vt 0.338964 0.072345
vt 0.321986 0.099029
vt 0.320650 0.099933
vt 0.320650 0.099029
vt 0.318376 0.070436
vt 0.320818 0.070436
vt 0.331182 0.070436
vt 0.474824 0.283032
vt 0.477124 0.286488
vt 0.474824 0.286488
vt 0.468106 0.263033
vt 0.470407 0.266489
vt 0.468106 0.266489
vt 0.474824 0.262295
vt 0.477125 0.265751
vt 0.474824 0.265751
vt 0.458740 0.292039
vt 0.460261 0.293064
vt 0.458740 0.293064
vt 0.477125 0.269207
vt 0.474824 0.269207
vt 0.467961 0.283839
vt 0.463735 0.280679
vt 0.467961 0.280679
vt 0.466398 0.274699
vt 0.468699 0.278155
vt 0.466398 0.278155
vt 0.460273 0.263411
vt 0.457972 0.259575
vt 0.460273 0.259575
vt 0.461023 0.285262
vt 0.462543 0.286185
vt 0.461023 0.286185
vt 0.331045 0.073333
vt 0.331045 0.072346
vt 0.318244 0.092205
vt 0.331045 0.093192
vt 0.328604 0.092204
vt 0.331045 0.092204
vt 0.338964 0.092204
vt 0.331045 0.110760
vt 0.328604 0.109772
vt 0.331045 0.109772
vt 0.338964 0.109772
vt 0.318376 0.088143
vt 0.320818 0.088143
vt 0.331182 0.088143
vt 0.328740 0.089783
vt 0.328740 0.088143
vt 0.341547 0.088143
vt 0.339104 0.089783
vt 0.339104 0.088143
vt 0.318376 0.101537
vt 0.320818 0.101537
vt 0.331182 0.101537
vt 0.328740 0.109642
vt 0.328740 0.101537
vt 0.339989 0.100453
vt 0.339104 0.109642
vt 0.337595 0.100261
vt 0.318376 0.110629
vt 0.331182 0.110629
vt 0.318244 0.070569
vt 0.320685 0.070568
vt 0.331045 0.070567
vt 0.341405 0.070567
vt 0.318244 0.107169
vt 0.320685 0.107169
vt 0.328604 0.107168
vt 0.331198 0.107092
vt 0.338964 0.107167
vt 0.342304 0.105854
vt 0.318244 0.110761
vt 0.318244 0.090655
vt 0.320685 0.090655
vt 0.328604 0.090654
vt 0.331045 0.090654
vt 0.321629 0.053327
vt 0.320288 0.052528
vt 0.321983 0.052177
vt 0.329694 0.103816
vt 0.329694 0.089126
vt 0.327870 0.089126
vt 0.329694 0.074436
vt 0.319315 0.090329
vt 0.320650 0.090329
vt 0.319315 0.094679
vt 0.319315 0.099029
vt 0.343559 0.112537
vt 0.341405 0.112537
vt 0.465466 0.291588
vt 0.464238 0.297731
vt 0.464238 0.291588
vt 0.456490 0.283862
vt 0.454871 0.289607
vt 0.454871 0.283862
vt 0.456490 0.289607
vt 0.454871 0.295351
vt 0.466844 0.290269
vt 0.465284 0.296412
vt 0.465284 0.290269
vt 0.453333 0.267887
vt 0.450883 0.289387
vt 0.450883 0.267887
vt 0.455061 0.285096
vt 0.453786 0.290840
vt 0.453786 0.285096
vt 0.470190 0.278674
vt 0.467739 0.300172
vt 0.467739 0.278674
vt 0.464872 0.269340
vt 0.462942 0.290833
vt 0.462942 0.269341
vt 0.460261 0.294089
vt 0.458740 0.294089
vt 0.465105 0.290577
vt 0.467407 0.294413
vt 0.465105 0.294413
vt 0.468699 0.270863
vt 0.466398 0.267027
vt 0.468699 0.267027
vt 0.460273 0.267247
vt 0.457972 0.263411
vt 0.461023 0.281568
vt 0.462543 0.282491
vt 0.461023 0.282491
vt 0.477125 0.272663
vt 0.474824 0.272663
vt 0.474824 0.258839
vt 0.477125 0.262295
vt 0.474824 0.262295
vt 0.460273 0.271083
vt 0.457972 0.267247
vt 0.460273 0.267247
vt 0.461024 0.287109
vt 0.462543 0.288033
vt 0.461024 0.288032
vt 0.477125 0.276120
vt 0.474824 0.276120
vt 0.468699 0.274699
vt 0.466398 0.270863
vt 0.467407 0.298249
vt 0.465105 0.298249
vt 0.472734 0.285724
vt 0.475035 0.289560
vt 0.472734 0.289560
vt 0.477125 0.279576
vt 0.474824 0.279576
vt 0.461023 0.283415
vt 0.462543 0.284338
vt 0.461023 0.284338
vt 0.475035 0.293396
vt 0.472734 0.293396
vt 0.460273 0.274919
vt 0.457972 0.271083
vt 0.460273 0.271083
vt 0.461024 0.286185
vt 0.462543 0.287109
vt 0.461024 0.287109
vt 0.468699 0.281611
vt 0.466398 0.281611
vt 0.460273 0.278755
vt 0.457972 0.274919
vt 0.460273 0.274919
vt 0.472734 0.293396
vt 0.475035 0.297231
vt 0.472734 0.297231
vt 0.469012 0.294399
vt 0.470478 0.295495
vt 0.469012 0.295495
vt 0.477125 0.283032
vt 0.474824 0.283032
vt 0.461024 0.284338
vt 0.462543 0.285262
vt 0.461024 0.285262
vt 0.470478 0.296591
vt 0.469012 0.296591
vt 0.461023 0.282491
vt 0.462543 0.283415
vt 0.461023 0.283415
vt 0.470478 0.297687
vt 0.470478 0.296591
vt 0.460519 0.285378
vt 0.458740 0.285563
vt 0.459244 0.285378
vt 0.460519 0.283698
vt 0.458740 0.283513
vt 0.461023 0.283513
vt 0.459244 0.289847
vt 0.461023 0.289662
vt 0.460519 0.289847
vt 0.460519 0.287427
vt 0.458740 0.287612
vt 0.459244 0.287427
vt 0.460519 0.282303
vt 0.458740 0.282488
vt 0.459244 0.282303
vt 0.458740 0.281463
vt 0.459244 0.281648
vt 0.460519 0.285748
vt 0.461023 0.286588
vt 0.460519 0.286402
vt 0.459244 0.284723
vt 0.458740 0.284538
vt 0.459244 0.284353
vt 0.461023 0.284538
vt 0.460519 0.284353
vt 0.459244 0.283698
vt 0.459244 0.289477
vt 0.458740 0.289662
vt 0.459244 0.288822
vt 0.458740 0.288637
vt 0.460519 0.287798
vt 0.461023 0.288637
vt 0.460519 0.288452
vt 0.459244 0.287798
vt 0.461023 0.287612
vt 0.459244 0.288452
vt 0.458740 0.287612
vt 0.460519 0.286773
vt 0.461023 0.287612
vt 0.458740 0.286588
vt 0.460519 0.283328
vt 0.461023 0.282488
vt 0.460519 0.281648
vt 0.461023 0.281463
vt 0.459244 0.286773
vt 0.459244 0.282673
vt 0.458740 0.282488
vt 0.459244 0.283328
vt 0.460519 0.282673
vt 0.460519 0.288822
vt 0.460519 0.289477
vt 0.459244 0.290502
vt 0.461023 0.290687
vt 0.458740 0.290687
vt 0.459244 0.285748
vt 0.461023 0.285563
vt 0.461023 0.284538
vt 0.460519 0.290502
vt 0.459244 0.286402
vt 0.460519 0.284723
vt 0.462298 0.289847
vt 0.461023 0.290502
vt 0.461024 0.289847
vt 0.470491 0.291859
vt 0.468561 0.294310
vt 0.468561 0.291859
vt 0.470491 0.294310
vt 0.468561 0.296761
vt 0.468561 0.294310
vt 0.462298 0.290502
vt 0.461023 0.291157
vt 0.461023 0.290502
vt 0.462298 0.293122
vt 0.461023 0.293776
vt 0.461023 0.293122
vt 0.462298 0.292467
vt 0.461024 0.292467
vt 0.462298 0.291157
vt 0.461023 0.291812
vt 0.462298 0.291812
vt 0.461023 0.292467
vt 0.470491 0.289409
vt 0.468561 0.291859
vt 0.468561 0.289409
vt 0.457465 0.281468
vt 0.456190 0.287213
vt 0.456190 0.281468
vt 0.453786 0.292956
vt 0.452167 0.298700
vt 0.452167 0.292956
vt 0.473297 0.268061
vt 0.471368 0.289553
vt 0.471368 0.268061
vt 0.452167 0.281468
vt 0.450548 0.287213
vt 0.450548 0.281468
vt 0.472354 0.278710
vt 0.469903 0.300208
vt 0.469903 0.278710
vt 0.461354 0.267887
vt 0.459424 0.289387
vt 0.459424 0.267887
vt 0.453786 0.281467
vt 0.452167 0.287211
vt 0.452167 0.281467
vt 0.452992 0.269347
vt 0.450541 0.290847
vt 0.450541 0.269347
vt 0.461012 0.269347
vt 0.459082 0.290847
vt 0.459082 0.269347
vt 0.458235 0.267887
vt 0.455784 0.289385
vt 0.455784 0.267887
vt 0.455061 0.290840
vt 0.453786 0.296585
vt 0.466914 0.279036
vt 0.464464 0.300536
vt 0.464464 0.279036
vt 0.477223 0.279274
vt 0.475293 0.300767
vt 0.475293 0.279274
vt 0.463283 0.267887
vt 0.461354 0.289380
vt 0.461354 0.267887
vt 0.458740 0.281463
vt 0.457465 0.287206
vt 0.457465 0.281463
vt 0.452167 0.287213
vt 0.450548 0.292958
vt 0.458740 0.287206
vt 0.457465 0.292949
vt 0.457465 0.287206
vt 0.455784 0.267887
vt 0.453333 0.289385
vt 0.457893 0.269345
vt 0.455442 0.290843
vt 0.455442 0.269345
vt 0.457465 0.287213
vt 0.456190 0.292958
vt 0.458740 0.292949
vt 0.457465 0.298692
vt 0.457465 0.292949
vt 0.465213 0.267887
vt 0.463283 0.289380
vt 0.463283 0.267887
vt 0.457465 0.292958
vt 0.456190 0.298703
vt 0.455442 0.269345
vt 0.452992 0.290843
vt 0.452992 0.269345
vt 0.453786 0.287211
vt 0.452167 0.292956
vt 0.452167 0.292958
vt 0.450548 0.298703
vt 0.474863 0.278211
vt 0.472933 0.299711
vt 0.472933 0.278211
vt 0.332374 0.087883
vt 0.326917 0.086459
vt 0.331038 0.086579
vt 0.320685 0.089105
vt 0.318244 0.087045
vt 0.320685 0.087045
vt 0.331182 0.092321
vt 0.328740 0.093871
vt 0.320818 0.093871
vt 0.316091 0.089105
vt 0.316091 0.090655
vt 0.334223 0.044098
vt 0.331759 0.044819
vt 0.331829 0.044034
vt 0.320818 0.095931
vt 0.327052 0.096516
vt 0.316221 0.093871
vt 0.318376 0.095931
vt 0.316221 0.095931
vt 0.334673 0.097878
vt 0.336694 0.096414
vt 0.336694 0.097878
vt 0.334673 0.107623
vt 0.336694 0.101863
vt 0.316221 0.101537
vt 0.343167 0.102851
vt 0.343701 0.109642
vt 0.335951 0.100483
vt 0.318244 0.073335
vt 0.330781 0.096409
vt 0.316091 0.087045
vt 0.338401 0.084592
vt 0.335876 0.085798
vt 0.328604 0.089104
vt 0.318244 0.089105
vt 0.318376 0.093871
vt 0.332186 0.095482
vt 0.334673 0.101863
vt 0.338050 0.098365
vt 0.331045 0.081438
vt 0.340575 0.099136
vt 0.339162 0.100286
vt 0.338964 0.096160
vt 0.331179 0.100334
vt 0.328604 0.096161
vt 0.331045 0.096161
vt 0.320685 0.096162
vt 0.318244 0.100360
vt 0.318244 0.096162
vt 0.339104 0.082616
vt 0.339104 0.086814
vt 0.340177 0.083804
vt 0.331182 0.075807
vt 0.328740 0.082616
vt 0.328740 0.086814
vt 0.331182 0.086814
vt 0.318376 0.082616
vt 0.318376 0.086814
vt 0.320818 0.086814
vt 0.337228 0.100543
vt 0.337157 0.107167
vt 0.337157 0.096160
vt 0.316091 0.100360
vt 0.316091 0.107169
vt 0.316091 0.096162
vt 0.337296 0.082616
vt 0.337296 0.086814
vt 0.320685 0.100360
vt 0.320818 0.082616
vt 0.343552 0.089151
vt 0.323166 0.044803
vt 0.322538 0.044238
vt 0.323335 0.043808
vt 0.322598 0.095240
vt 0.323178 0.093368
vt 0.323308 0.095535
vt 0.343785 0.096137
vt 0.316221 0.088143
vt 0.318376 0.089783
vt 0.316221 0.082616
vt 0.316221 0.086814
vt 0.328654 0.099933
vt 0.329480 0.100664
vt 0.328141 0.100205
vt 0.322423 0.092713
vt 0.323172 0.092750
vt 0.334673 0.093509
vt 0.336694 0.092343
vt 0.334673 0.091398
vt 0.336694 0.088414
vt 0.336694 0.091398
vt 0.334673 0.092343
vt 0.330982 0.043717
vt 0.335260 0.042734
vt 0.336055 0.043151
vt 0.336793 0.096762
vt 0.339193 0.098337
vt 0.343701 0.086814
vt 0.343701 0.088143
vt 0.328604 0.100359
vt 0.337296 0.088143
vt 0.331182 0.082616
vt 0.343128 0.081063
vt 0.331045 0.094832
vt 0.333281 0.088076
vt 0.332100 0.088082
vt 0.343735 0.107166
vt 0.343559 0.109771
vt 0.318376 0.073202
vt 0.331182 0.073202
vt 0.343225 0.102129
vt 0.338606 0.100034
vt 0.334673 0.088414
vt 0.331182 0.089783
vt 0.331182 0.109642
vt 0.337456 0.089724
vt 0.337157 0.070567
vt 0.321986 0.090329
vt 0.331182 0.090771
vt 0.331182 0.072215
vt 0.337296 0.070436
vt 0.331182 0.112408
vt 0.326046 0.089126
vt 0.331045 0.112538
vt 0.334705 0.095686
vt 0.339337 0.090970
vt 0.334673 0.096414
vt 0.322795 0.087986
vt 0.323781 0.087867
vt 0.343137 0.091081
vt 0.342970 0.092077
vt 0.341276 0.092844
vt 0.341536 0.090349
vt 0.329265 0.101470
vt 0.328318 0.100739
vt 0.329265 0.100664
vt 0.342745 0.037419
vt 0.340053 0.038687
vt 0.342700 0.037018
vt 0.337441 0.039686
vt 0.339546 0.039805
vt 0.337885 0.039881
vt 0.321720 0.111102
vt 0.321989 0.108870
vt 0.338731 0.047468
vt 0.340921 0.047285
vt 0.338722 0.047906
vt 0.324717 0.087852
vt 0.338715 0.095312
vt 0.338715 0.096414
vt 0.329694 0.080460
vt 0.319315 0.091088
vt 0.338715 0.083575
vt 0.338715 0.088414
vt 0.337786 0.041528
vt 0.338466 0.041577
vt 0.331058 0.088357
vt 0.331697 0.096198
vt 0.335682 0.096980
vt 0.338715 0.091398
vt 0.338715 0.092343
vt 0.324655 0.091536
vt 0.324504 0.092777
vt 0.330423 0.043515
vt 0.321064 0.050743
vt 0.324876 0.087131
vt 0.338715 0.097878
vt 0.338715 0.101863
vt 0.325858 0.102675
vt 0.327155 0.103451
vt 0.325858 0.103789
vt 0.321986 0.098004
vt 0.321986 0.093654
vt 0.321986 0.089304
vt 0.326046 0.077898
vt 0.326046 0.092588
vt 0.326046 0.107278
vt 0.322244 0.096391
vt 0.319315 0.099933
vt 0.329694 0.071383
vt 0.329694 0.092588
vt 0.329694 0.107278
vt 0.329694 0.110331
vt 0.319315 0.089304
vt 0.319315 0.088400
vt 0.319315 0.093654
vt 0.319315 0.098004
vt 0.334673 0.081724
vt 0.334673 0.094210
vt 0.334673 0.108325
vt 0.319315 0.102519
vt 0.322108 0.090541
vt 0.322220 0.089619
vt 0.333800 0.076733
vt 0.333832 0.079848
vt 0.324774 0.090594
vt 0.330158 0.076770
vt 0.330101 0.071160
vt 0.338715 0.079758
vt 0.338715 0.108325
vt 0.338715 0.109589
vt 0.329694 0.077898
vt 0.321989 0.099934
vt 0.338715 0.081724
vt 0.321985 0.102520
vt 0.338715 0.094210
vt 0.339960 0.056072
vt 0.343226 0.058789
vt 0.342610 0.059065
vt 0.332383 0.095810
vt 0.330101 0.104688
vt 0.330595 0.093694
vt 0.332270 0.049171
vt 0.331485 0.045018
vt 0.332666 0.045013
vt 0.343170 0.053074
vt 0.341624 0.056152
vt 0.342323 0.083764
vt 0.343925 0.081127
vt 0.331768 0.052747
vt 0.332104 0.060916
vt 0.330546 0.061809
vt 0.323663 0.095612
vt 0.324887 0.095593
vt 0.319319 0.099933
vt 0.334673 0.079758
vt 0.462942 0.290833
vt 0.343701 0.070436
vt 0.326046 0.071383
vt 0.321986 0.099933
vt 0.477124 0.283032
vt 0.470407 0.263033
vt 0.477125 0.262295
vt 0.460261 0.292039
vt 0.463735 0.283839
vt 0.468699 0.274699
vt 0.457972 0.263411
vt 0.462543 0.285262
vt 0.320466 0.053706
vt 0.465466 0.297731
vt 0.456490 0.295351
vt 0.466844 0.296412
vt 0.453333 0.289387
vt 0.470190 0.300172
vt 0.464872 0.290833
vt 0.467407 0.290577
vt 0.466398 0.270863
vt 0.457972 0.267247
vt 0.462543 0.281568
vt 0.477125 0.258839
vt 0.457972 0.271083
vt 0.462543 0.287109
vt 0.466398 0.274699
vt 0.475035 0.285724
vt 0.462543 0.283415
vt 0.462543 0.286186
vt 0.457972 0.278755
vt 0.475035 0.293396
vt 0.470478 0.294399
vt 0.462543 0.284338
vt 0.462543 0.282491
vt 0.469012 0.297687
vt 0.462298 0.290502
vt 0.470491 0.294310
vt 0.470491 0.296761
vt 0.462298 0.291157
vt 0.462298 0.293776
vt 0.462298 0.293122
vt 0.462298 0.292467
vt 0.470491 0.291859
vt 0.453786 0.298700
vt 0.473297 0.289553
vt 0.472354 0.300208
vt 0.461354 0.289387
vt 0.452992 0.290847
vt 0.461012 0.290847
vt 0.458235 0.289385
vt 0.455061 0.296585
vt 0.466914 0.300536
vt 0.477223 0.300766
vt 0.463283 0.289380
vt 0.458740 0.287206
vt 0.458740 0.292949
vt 0.455784 0.289385
vt 0.457893 0.290843
vt 0.457465 0.292958
vt 0.458740 0.298692
vt 0.465213 0.289380
vt 0.457465 0.298703
vt 0.455442 0.290843
vt 0.453786 0.292956
vt 0.452167 0.298703
vt 0.474863 0.299711
vt 0.334272 0.044741
vt 0.322180 0.044922
vt 0.322155 0.093217
vt 0.329480 0.099783
vt 0.334888 0.087805
vt 0.328141 0.101598
vt 0.340263 0.100110
vt 0.321008 0.111424
vt 0.340634 0.046812
vt 0.321540 0.050153
vt 0.323950 0.086872
vt 0.326761 0.102437
vt 0.323308 0.096846
vt 0.331161 0.104873
vt 0.342983 0.053100
s 0
usemtl Material.003
f 118/1/1 83/2/1 119/3/1
f 367/4/2 398/5/2 434/6/2
f 338/7/1 100/8/1 70/9/1
f 256/10/3 394/11/3 417/12/3
f 321/13/2 400/14/2 430/15/2
f 118/1/1 126/16/1 127/17/1
f 31/18/4 386/19/4 393/20/4
f 338/21/5 406/22/5 432/23/5
f 127/17/1 253/24/1 260/25/1
f 87/26/6 22/27/6 1/28/6
f 4/29/2 396/30/2 383/31/2
f 19/32/2 387/33/2 399/34/2
f 153/35/6 77/36/6 156/37/6
f 6/38/4 390/39/4 388/40/4
f 280/41/7 392/42/7 422/43/7
f 341/44/6 136/45/6 88/46/6
f 9/47/6 323/48/6 329/49/6
f 154/50/6 9/47/6 10/51/6
f 301/52/1 30/53/1 280/54/1
f 123/55/8 256/56/8 262/57/8
f 11/58/6 368/59/6 373/60/6
f 159/61/9 330/62/9 333/63/9
f 38/64/4 214/65/4 39/66/4
f 26/67/4 390/39/4 389/68/4
f 24/69/4 392/42/4 391/70/4
f 22/71/4 394/11/4 393/20/4
f 14/72/2 396/30/2 395/73/2
f 12/74/2 398/5/2 397/75/2
f 10/76/2 400/14/2 399/34/2
f 4/77/1 117/78/1 16/79/1
f 340/80/6 79/81/6 158/82/6
f 80/83/6 25/84/6 157/85/6
f 153/35/6 162/86/6 163/87/6
f 340/80/6 160/88/6 352/89/6
f 157/85/6 26/90/6 159/61/6
f 163/87/6 324/91/6 331/92/6
f 12/93/6 152/94/6 11/58/6
f 146/95/6 24/96/6 147/97/6
f 151/98/6 369/99/6 374/100/6
f 129/101/6 13/102/6 14/103/6
f 134/104/6 22/27/6 135/105/6
f 343/106/1 124/107/1 348/108/1
f 117/78/1 15/109/1 16/79/1
f 122/110/1 32/111/1 123/55/1
f 356/112/10 124/107/10 254/113/10
f 15/109/1 252/114/1 255/115/1
f 29/116/1 111/117/1 110/118/1
f 115/119/1 300/120/1 293/121/1
f 93/122/1 19/123/1 20/124/1
f 98/125/1 28/126/1 99/127/1
f 142/128/6 150/129/6 151/98/6
f 352/89/6 325/130/6 366/131/6
f 351/132/6 148/133/6 350/134/6
f 130/135/6 138/136/6 139/137/6
f 350/134/11 370/138/11 380/139/11
f 349/140/6 136/45/6 344/141/6
f 17/142/1 296/143/1 277/144/1
f 13/102/6 92/145/6 3/146/6
f 91/147/6 138/136/6 90/148/6
f 83/149/12 412/150/12 409/151/12
f 342/152/12 410/153/12 431/154/12
f 2/155/12 408/156/12 386/157/12
f 94/158/1 102/159/1 103/160/1
f 360/161/1 112/162/1 304/163/1
f 345/164/1 100/8/1 339/165/1
f 7/166/6 154/50/6 10/51/6
f 8/167/5 402/168/5 387/169/5
f 73/170/5 404/171/5 401/172/5
f 18/173/1 116/174/1 17/142/1
f 106/175/1 114/176/1 115/119/1
f 347/177/1 112/162/1 346/178/1
f 19/123/1 74/179/1 8/180/1
f 73/181/1 102/159/1 72/182/1
f 69/183/5 388/184/5 405/185/5
f 122/110/1 2/186/1 31/187/1
f 343/106/1 85/188/1 121/189/1
f 81/190/12 383/191/12 411/192/12
f 153/35/6 75/193/6 76/194/6
f 78/195/6 156/37/6 77/36/6
f 80/83/6 158/82/6 79/81/6
f 135/196/4 198/197/4 134/198/4
f 161/199/4 193/200/4 155/201/4
f 143/202/2 196/203/2 150/204/2
f 134/205/5 200/206/5 133/207/5
f 154/204/2 173/208/2 164/209/2
f 150/210/12 170/211/12 149/212/12
f 131/213/2 165/214/2 138/215/2
f 164/216/12 192/217/12 163/218/12
f 149/219/4 169/220/4 144/221/4
f 127/17/1 117/78/1 118/1/1
f 125/222/1 119/3/1 120/223/1
f 123/55/1 121/189/1 122/110/1
f 115/119/1 105/224/1 106/175/1
f 113/225/1 107/226/1 108/227/1
f 111/117/1 109/228/1 110/118/1
f 103/160/1 93/122/1 94/158/1
f 101/229/1 95/230/1 96/231/1
f 99/127/1 97/232/1 98/125/1
f 142/128/6 283/233/6 282/234/6
f 286/235/6 143/236/6 287/237/6
f 290/238/6 145/239/6 291/240/6
f 130/135/6 257/241/6 249/242/6
f 250/243/6 131/244/6 258/245/6
f 251/246/13 133/247/13 259/248/13
f 91/147/6 140/249/6 139/137/6
f 137/250/6 90/148/6 138/136/6
f 135/105/6 88/46/6 136/45/6
f 118/1/1 81/251/1 82/252/1
f 84/253/1 119/3/1 83/2/1
f 86/254/1 121/189/1 85/188/1
f 94/158/1 334/255/1 326/256/1
f 96/231/14 335/257/14 327/258/14
f 98/125/15 336/259/15 328/260/15
f 73/181/1 104/261/1 103/160/1
f 101/229/1 72/182/1 102/159/1
f 99/127/1 70/9/1 100/8/1
f 106/175/1 376/262/1 371/263/1
f 108/227/1 377/264/1 372/265/1
f 433/266/16 379/267/16 413/268/16
f 76/269/5 402/168/5 401/172/5
f 78/270/5 404/171/5 403/271/5
f 80/272/5 406/22/5 405/185/5
f 88/273/12 408/156/12 407/274/12
f 90/275/12 410/153/12 409/151/12
f 92/276/12 412/150/12 411/192/12
f 99/127/1 6/277/1 69/278/1
f 44/279/2 215/280/2 41/281/2
f 66/282/5 230/283/5 65/284/5
f 35/285/5 236/286/5 36/283/5
f 39/287/5 202/288/5 40/289/5
f 64/290/5 208/291/5 63/292/5
f 36/293/2 213/294/2 33/295/2
f 33/296/12 212/297/12 34/298/12
f 62/299/4 211/300/4 68/301/4
f 153/207/5 174/302/5 154/303/5
f 146/304/5 182/305/5 145/306/5
f 162/307/12 190/308/12 161/309/12
f 136/310/12 176/311/12 135/216/12
f 147/312/4 183/313/4 146/314/4
f 156/209/2 191/315/2 162/316/2
f 133/317/2 177/318/2 136/319/2
f 148/320/12 195/321/12 147/322/12
f 159/323/4 189/324/4 157/325/4
f 145/316/2 181/326/2 148/327/2
f 160/328/12 188/329/12 159/307/12
f 155/306/5 194/330/5 156/331/5
f 130/332/5 180/333/5 129/334/5
f 158/327/2 171/335/2 160/336/2
f 139/337/4 167/338/4 130/339/4
f 142/334/5 187/340/5 141/341/5
f 140/342/12 168/343/12 139/344/12
f 151/345/4 186/346/4 142/347/4
f 129/215/2 179/348/2 140/349/2
f 152/350/12 184/351/12 151/352/12
f 157/353/5 172/354/5 158/355/5
f 132/356/5 166/357/5 131/358/5
f 141/336/2 185/359/2 152/360/2
f 137/361/4 178/362/4 132/363/4
f 144/358/5 197/364/5 143/365/5
f 163/366/4 175/367/4 153/368/4
f 138/369/12 199/365/12 137/370/12
f 37/371/6 166/372/6 40/373/6
f 42/374/6 167/375/6 168/376/6
f 51/377/6 170/378/6 50/379/6
f 57/380/6 172/381/6 63/382/6
f 61/383/6 174/384/6 67/385/6
f 67/385/6 175/386/6 68/387/6
f 34/388/6 177/389/6 33/390/6
f 39/391/6 166/372/6 178/392/6
f 44/393/6 179/394/6 180/392/6
f 42/374/6 179/394/6 41/395/6
f 44/393/6 167/375/6 43/396/6
f 48/397/6 181/378/6 182/398/6
f 47/399/6 182/398/6 183/400/6
f 54/401/6 185/402/6 53/403/6
f 55/404/6 184/405/6 54/401/6
f 56/406/6 186/407/6 55/404/6
f 58/408/6 171/409/6 57/380/6
f 58/408/6 189/410/6 188/389/6
f 59/411/6 190/412/6 191/376/6
f 62/413/6 175/386/6 192/414/6
f 64/415/6 172/381/6 189/410/6
f 66/416/6 194/375/6 193/417/6
f 59/411/6 194/375/6 65/418/6
f 60/419/6 193/417/6 190/412/6
f 61/383/6 192/414/6 173/412/6
f 46/420/6 181/378/6 45/421/6
f 52/422/6 196/423/6 197/424/6
f 51/377/6 197/424/6 169/398/6
f 35/425/6 176/426/6 34/388/6
f 37/371/6 199/427/6 165/426/6
f 47/399/6 195/402/6 46/420/6
f 49/428/6 170/378/6 196/423/6
f 56/406/6 185/402/6 187/400/6
f 33/390/6 200/410/6 36/429/6
f 35/425/6 200/410/6 198/372/6
f 39/391/6 199/427/6 38/430/6
f 228/431/6 210/432/6 211/433/6
f 226/434/6 230/435/6 229/436/6
f 224/437/6 208/438/6 225/439/6
f 220/440/6 223/441/6 222/442/6
f 206/443/6 233/444/6 205/445/6
f 231/446/6 218/445/6 219/447/6
f 204/448/6 216/449/6 203/441/6
f 235/450/6 202/451/6 214/449/6
f 212/452/6 236/453/6 234/454/6
f 65/455/2 227/456/2 59/457/2
f 41/458/12 204/459/12 42/460/12
f 60/461/4 229/462/4 66/463/4
f 43/464/5 216/465/5 44/466/5
f 61/467/12 228/468/12 62/469/12
f 48/470/2 217/471/2 45/472/2
f 45/473/12 231/474/12 46/475/12
f 47/476/5 218/477/5 48/478/5
f 52/479/2 232/480/2 49/481/2
f 53/482/12 220/483/12 54/484/12
f 40/485/2 201/486/2 37/294/2
f 51/487/5 233/488/5 52/489/5
f 54/490/4 222/491/4 55/492/4
f 42/493/4 203/494/4 43/495/4
f 34/496/4 234/497/4 35/498/4
f 55/499/5 223/500/5 56/465/5
f 50/501/4 205/502/4 51/503/4
f 37/504/12 235/505/12 38/290/12
f 57/506/12 224/507/12 58/508/12
f 63/509/2 207/510/2 57/456/2
f 46/511/4 219/512/4 47/513/4
f 58/514/4 225/515/4 64/516/4
f 67/517/2 209/518/2 61/510/2
f 49/519/12 206/520/12 50/521/12
f 59/522/12 226/523/12 60/474/12
f 68/524/5 210/525/5 67/500/5
f 56/526/2 221/527/2 53/528/2
f 245/529/17 273/530/17 268/531/17
f 243/532/1 272/533/1 267/534/1
f 375/535/6 242/536/6 369/99/6
f 239/537/6 368/59/6 374/100/6
f 238/538/1 376/262/1 367/539/1
f 414/540/18 245/541/18 419/542/18
f 270/543/6 242/536/6 265/544/6
f 237/545/6 264/546/6 269/547/6
f 243/532/1 377/264/1 371/263/1
f 263/548/2 415/549/2 418/550/2
f 15/551/2 416/552/2 395/73/2
f 247/553/6 129/101/6 14/103/6
f 134/104/6 248/554/6 21/555/6
f 249/242/6 131/244/6 130/135/6
f 355/556/6 133/247/6 349/140/6
f 260/25/1 128/557/1 127/17/1
f 125/222/1 253/24/1 126/16/1
f 262/57/19 124/107/19 123/55/19
f 271/558/20 258/245/20 265/544/20
f 249/242/6 264/546/6 270/543/6
f 255/115/1 272/533/1 263/559/1
f 356/112/21 274/560/21 357/561/21
f 260/25/1 273/530/1 267/534/1
f 267/534/1 246/562/1 243/532/1
f 263/559/1 244/563/1 238/538/1
f 270/543/6 240/564/6 239/537/6
f 241/565/6 265/544/6 242/536/6
f 255/566/2 418/550/2 416/552/2
f 269/547/6 257/241/6 247/553/6
f 249/242/6 265/544/6 258/245/6
f 355/556/22 266/567/22 259/248/22
f 267/534/1 252/114/1 260/25/1
f 268/531/23 253/24/23 261/568/23
f 301/52/1 112/162/1 111/117/1
f 319/569/24 303/570/24 320/571/24
f 113/225/1 300/120/1 114/176/1
f 298/572/25 318/573/25 317/574/25
f 293/121/1 116/174/1 115/119/1
f 315/575/1 295/576/1 316/577/1
f 333/63/26 292/578/26 325/130/26
f 290/238/27 314/579/27 313/580/27
f 332/581/6 288/582/6 324/91/6
f 286/235/6 312/583/6 311/584/6
f 331/92/6 284/585/6 323/48/6
f 282/234/6 310/586/6 309/587/6
f 359/588/28 336/259/28 365/589/28
f 360/161/1 320/571/1 364/590/1
f 278/591/1 334/255/1 321/592/1
f 277/144/1 316/577/1 306/593/1
f 351/132/6 291/240/6 145/239/6
f 362/594/6 314/579/6 363/595/6
f 294/596/1 335/257/1 326/256/1
f 293/121/1 318/573/1 315/575/1
f 142/128/6 287/237/6 143/236/6
f 281/597/6 312/583/6 309/587/6
f 290/238/6 23/598/6 146/95/6
f 435/599/29 384/600/29 437/601/29
f 413/602/30 353/603/30 380/604/30
f 301/52/31 308/605/31 319/569/31
f 276/606/6 141/607/6 12/93/6
f 275/608/6 310/586/6 305/609/6
f 420/610/32 241/611/32 419/612/32
f 308/613/33 422/43/33 427/614/33
f 17/615/2 423/616/2 397/75/2
f 306/617/2 424/618/2 426/619/2
f 277/620/2 426/619/2 423/616/2
f 420/621/34 357/622/34 421/623/34
f 305/609/6 283/233/6 276/606/6
f 266/567/35 421/624/35 428/625/35
f 290/238/6 307/626/6 279/627/6
f 309/587/6 287/237/6 282/234/6
f 315/575/1 299/628/1 294/596/1
f 363/595/6 291/240/6 361/629/6
f 306/593/1 295/576/1 278/591/1
f 364/590/36 303/570/36 359/588/36
f 281/597/6 310/586/6 284/585/6
f 285/630/6 312/583/6 288/582/6
f 313/580/37 292/578/37 289/631/37
f 315/575/1 296/143/1 293/121/1
f 317/574/1 300/120/1 297/632/1
f 301/52/1 320/571/1 304/163/1
f 389/68/38 322/633/38 429/634/38
f 98/125/39 322/635/39 27/636/39
f 326/256/1 95/230/1 94/158/1
f 321/592/1 93/122/1 20/124/1
f 365/589/1 97/232/1 345/164/1
f 331/92/6 164/637/6 163/87/6
f 332/581/6 162/86/6 161/638/6
f 159/61/6 325/130/6 160/88/6
f 328/260/40 303/570/40 302/639/40
f 327/258/41 299/628/41 298/572/41
f 294/596/1 334/255/1 295/576/1
f 366/131/6 292/578/6 362/594/6
f 331/92/6 288/582/6 281/597/6
f 425/640/42 266/567/42 428/625/42
f 329/49/6 284/585/6 275/608/6
f 278/641/2 430/15/2 424/618/2
f 332/581/6 362/594/6 285/630/6
f 96/231/1 365/589/1 345/164/1
f 298/572/43 364/590/43 359/588/43
f 311/584/6 361/629/6 286/235/6
f 285/630/6 363/595/6 311/584/6
f 286/235/6 351/132/6 144/642/6
f 297/632/1 364/590/1 317/574/1
f 327/258/44 359/588/44 365/589/44
f 271/558/45 355/556/45 250/243/45
f 268/531/46 356/112/46 357/561/46
f 250/243/6 349/140/6 132/643/6
f 245/529/47 379/644/47 372/265/47
f 120/223/1 342/645/1 343/106/1
f 108/227/1 346/178/1 113/225/1
f 96/231/1 339/165/1 101/229/1
f 297/632/1 346/178/1 360/161/1
f 85/646/12 431/154/12 407/274/12
f 132/643/6 344/141/6 137/250/6
f 375/535/48 350/134/48 380/139/48
f 144/642/6 350/134/6 149/647/6
f 161/638/6 366/131/6 332/581/6
f 261/568/1 348/108/1 356/112/1
f 120/223/1 348/108/1 125/222/1
f 155/648/6 352/89/6 161/638/6
f 155/648/6 337/649/6 340/80/6
f 89/650/6 344/141/6 341/44/6
f 71/651/5 432/23/5 403/271/5
f 71/652/1 339/165/1 338/7/1
f 241/565/49 380/139/49 353/653/49
f 372/265/1 347/177/1 108/227/1
f 371/263/1 107/226/1 106/175/1
f 347/177/50 378/654/50 109/228/50
f 367/539/1 105/224/1 18/173/1
f 374/100/6 152/94/6 151/98/6
f 375/535/6 150/129/6 149/647/6
f 372/265/51 246/562/51 245/529/51
f 371/263/1 244/563/1 243/532/1
f 374/100/6 242/536/6 239/537/6
f 373/60/6 240/564/6 237/545/6
f 238/655/2 434/6/2 415/549/2
f 391/70/52 382/656/52 435/657/52
f 110/118/53 382/658/53 29/116/53
f 147/97/54 381/659/54 385/660/54
f 110/118/55 378/654/55 384/661/55
f 147/97/6 370/138/6 148/133/6
f 433/662/56 385/663/56 437/664/56
f 417/665/57 262/666/57 256/667/57
f 425/640/58 251/246/58 259/248/58
f 254/668/59 436/669/59 425/670/59
f 251/671/60 417/12/60 248/672/60
f 433/673/61 384/674/61 378/675/61
f 24/69/62 435/657/62 381/676/62
f 415/549/2 373/677/2 237/678/2
f 403/271/5 337/679/5 78/270/5
f 407/274/12 341/680/12 88/273/12
f 424/618/2 329/681/2 275/682/2
f 274/683/63 425/670/63 428/684/63
f 26/67/64 429/634/64 330/685/64
f 428/684/65 357/622/65 274/683/65
f 420/686/66 358/687/66 271/558/66
f 423/616/2 305/688/2 276/689/2
f 426/619/2 275/682/2 305/688/2
f 397/75/2 276/689/2 12/74/2
f 427/614/4 279/690/4 307/691/4
f 268/692/67 419/542/67 245/541/67
f 354/693/68 413/268/68 379/267/68
f 435/657/69 385/694/69 381/676/69
f 416/552/2 269/695/2 247/696/2
f 395/73/2 247/696/2 14/72/2
f 418/550/2 237/678/2 269/695/2
f 353/697/70 419/698/70 241/699/70
f 411/192/12 82/700/12 81/190/12
f 409/151/12 84/701/12 83/149/12
f 407/274/12 86/702/12 85/646/12
f 405/185/5 70/703/5 69/183/5
f 403/271/5 72/704/5 71/651/5
f 401/172/5 74/705/5 73/170/5
f 380/604/71 433/706/71 413/602/71
f 411/192/12 3/707/12 92/276/12
f 405/185/5 5/708/5 80/272/5
f 401/172/5 77/709/5 76/269/5
f 387/169/5 75/710/5 7/711/5
f 386/157/12 87/712/12 1/713/12
f 431/154/12 89/714/12 341/680/12
f 409/151/12 91/715/12 90/275/12
f 399/34/2 20/716/2 19/32/2
f 397/75/2 18/717/2 17/615/2
f 395/73/2 16/718/2 15/551/2
f 393/20/4 32/719/4 31/18/4
f 391/70/4 30/720/4 29/721/4
f 389/68/4 28/722/4 27/723/4
f 422/43/7 23/724/7 279/690/7
f 388/40/4 25/725/4 5/726/4
f 399/34/2 7/727/2 10/76/2
f 383/31/2 13/728/2 3/729/2
f 432/23/5 79/730/5 337/679/5
f 393/20/4 1/731/4 22/71/4
f 430/15/2 9/732/2 329/681/2
f 248/672/72 394/11/72 21/733/72
f 434/6/2 11/734/2 373/677/2
f 319/735/73 438/736/73 302/737/73
f 440/738/74 289/739/74 333/740/74
f 328/741/75 429/742/75 322/743/75
f 308/744/76 439/745/76 319/735/76
f 439/746/77 289/631/77 438/747/77
f 440/748/78 302/749/78 438/750/78
f 429/634/79 333/740/79 330/685/79
f 439/751/80 307/691/80 313/752/80
f 118/1/1 82/252/1 83/2/1
f 367/4/2 18/717/2 398/5/2
f 338/7/1 339/165/1 100/8/1
f 256/10/81 32/719/81 394/11/81
f 321/13/2 20/716/2 400/14/2
f 118/1/1 119/3/1 126/16/1
f 31/18/4 2/753/4 386/19/4
f 338/21/5 70/703/5 406/22/5
f 127/17/1 126/16/1 253/24/1
f 87/26/6 135/105/6 22/27/6
f 4/29/2 16/718/2 396/30/2
f 19/32/2 8/754/2 387/33/2
f 153/35/6 76/194/6 77/36/6
f 6/38/4 28/722/4 390/39/4
f 280/41/7 30/720/7 392/42/7
f 341/44/6 344/141/6 136/45/6
f 9/47/6 164/637/6 323/48/6
f 154/50/6 164/637/6 9/47/6
f 301/52/1 111/117/1 30/53/1
f 123/55/82 32/111/82 256/56/82
f 11/58/6 152/94/6 368/59/6
f 159/61/83 26/90/83 330/62/83
f 38/64/4 235/755/4 214/65/4
f 26/67/4 25/725/4 390/39/4
f 24/69/4 23/724/4 392/42/4
f 22/71/4 21/733/4 394/11/4
f 14/72/2 13/728/2 396/30/2
f 12/74/2 11/734/2 398/5/2
f 10/76/2 9/732/2 400/14/2
f 4/77/1 81/251/1 117/78/1
f 340/80/6 337/649/6 79/81/6
f 80/83/6 5/756/6 25/84/6
f 153/35/6 156/37/6 162/86/6
f 340/80/6 158/82/6 160/88/6
f 157/85/6 25/84/6 26/90/6
f 163/87/6 162/86/6 324/91/6
f 12/93/6 141/607/6 152/94/6
f 146/95/6 23/598/6 24/96/6
f 151/98/6 150/129/6 369/99/6
f 129/101/6 140/249/6 13/102/6
f 134/104/6 21/555/6 22/27/6
f 343/106/1 121/189/1 124/107/1
f 117/78/1 128/557/1 15/109/1
f 122/110/1 31/187/1 32/111/1
f 356/112/1 348/108/1 124/107/1
f 15/109/1 128/557/1 252/114/1
f 29/116/1 30/53/1 111/117/1
f 115/119/1 114/176/1 300/120/1
f 93/122/1 104/261/1 19/123/1
f 98/125/1 27/636/1 28/126/1
f 142/128/6 143/236/6 150/129/6
f 352/89/6 160/88/6 325/130/6
f 351/132/6 145/239/6 148/133/6
f 130/135/6 131/244/6 138/136/6
f 350/134/6 148/133/6 370/138/6
f 349/140/6 133/247/6 136/45/6
f 17/142/1 116/174/1 296/143/1
f 13/102/6 140/249/6 92/145/6
f 91/147/6 139/137/6 138/136/6
f 83/149/12 82/700/12 412/150/12
f 342/152/12 84/701/12 410/153/12
f 2/155/12 86/702/12 408/156/12
f 94/158/1 95/230/1 102/159/1
f 360/161/1 346/178/1 112/162/1
f 345/164/1 97/232/1 100/8/1
f 7/166/6 75/193/6 154/50/6
f 8/167/5 74/705/5 402/168/5
f 73/170/5 72/704/5 404/171/5
f 18/173/1 105/224/1 116/174/1
f 106/175/1 107/226/1 114/176/1
f 347/177/1 109/228/1 112/162/1
f 19/123/1 104/261/1 74/179/1
f 73/181/1 103/160/1 102/159/1
f 69/183/5 6/757/5 388/184/5
f 122/110/1 86/254/1 2/186/1
f 343/106/1 342/645/1 85/188/1
f 81/190/12 4/758/12 383/191/12
f 153/35/6 154/50/6 75/193/6
f 78/195/6 155/648/6 156/37/6
f 80/83/6 157/85/6 158/82/6
f 135/196/4 176/759/4 198/197/4
f 161/199/4 190/760/4 193/200/4
f 143/202/2 197/761/2 196/203/2
f 134/205/5 198/762/5 200/206/5
f 154/204/2 174/203/2 173/208/2
f 150/210/12 196/763/12 170/211/12
f 131/213/2 166/764/2 165/214/2
f 164/216/12 173/765/12 192/217/12
f 149/219/4 170/766/4 169/220/4
f 127/17/1 128/557/1 117/78/1
f 125/222/1 126/16/1 119/3/1
f 123/55/1 124/107/1 121/189/1
f 115/119/1 116/174/1 105/224/1
f 113/225/1 114/176/1 107/226/1
f 111/117/1 112/162/1 109/228/1
f 103/160/1 104/261/1 93/122/1
f 101/229/1 102/159/1 95/230/1
f 99/127/1 100/8/1 97/232/1
f 142/128/6 141/607/6 283/233/6
f 286/235/6 144/642/6 143/236/6
f 290/238/6 146/95/6 145/239/6
f 130/135/6 129/101/6 257/241/6
f 250/243/6 132/643/6 131/244/6
f 251/246/84 134/104/84 133/247/84
f 91/147/6 92/145/6 140/249/6
f 137/250/6 89/650/6 90/148/6
f 135/105/6 87/26/6 88/46/6
f 118/1/1 117/78/1 81/251/1
f 84/253/1 120/223/1 119/3/1
f 86/254/1 122/110/1 121/189/1
f 94/158/1 93/122/1 334/255/1
f 96/231/1 95/230/1 335/257/1
f 98/125/1 97/232/1 336/259/1
f 73/181/1 74/179/1 104/261/1
f 101/229/1 71/652/1 72/182/1
f 99/127/1 69/278/1 70/9/1
f 106/175/1 105/224/1 376/262/1
f 108/227/1 107/226/1 377/264/1
f 433/266/85 378/767/85 379/267/85
f 76/269/5 75/710/5 402/168/5
f 78/270/5 77/709/5 404/171/5
f 80/272/5 79/730/5 406/22/5
f 88/273/12 87/712/12 408/156/12
f 90/275/12 89/714/12 410/153/12
f 92/276/12 91/715/12 412/150/12
f 99/127/1 28/126/1 6/277/1
f 44/279/2 216/768/2 215/280/2
f 66/282/5 229/285/5 230/283/5
f 35/285/5 234/769/5 236/286/5
f 39/287/5 214/770/5 202/288/5
f 64/290/5 225/771/5 208/291/5
f 36/293/2 236/485/2 213/294/2
f 33/296/12 213/772/12 212/297/12
f 62/299/4 228/773/4 211/300/4
f 153/207/5 175/206/5 174/302/5
f 146/304/5 183/774/5 182/305/5
f 162/307/12 191/775/12 190/308/12
f 136/310/12 177/776/12 176/311/12
f 147/312/4 195/777/4 183/313/4
f 156/209/2 194/208/2 191/315/2
f 133/317/2 200/778/2 177/318/2
f 148/320/12 181/779/12 195/321/12
f 159/323/4 188/780/4 189/324/4
f 145/316/2 182/315/2 181/326/2
f 160/328/12 171/781/12 188/329/12
f 155/306/5 193/305/5 194/330/5
f 130/332/5 167/782/5 180/333/5
f 158/327/2 172/326/2 171/335/2
f 139/337/4 168/783/4 167/338/4
f 142/334/5 186/333/5 187/340/5
f 140/342/12 179/351/12 168/343/12
f 151/345/4 184/784/4 186/346/4
f 129/215/2 180/214/2 179/348/2
f 152/350/12 185/785/12 184/351/12
f 157/353/5 189/786/5 172/354/5
f 132/356/5 178/787/5 166/357/5
f 141/336/2 187/335/2 185/359/2
f 137/361/4 199/788/4 178/362/4
f 144/358/5 169/357/5 197/364/5
f 163/366/4 192/789/4 175/367/4
f 138/369/12 165/790/12 199/365/12
f 37/371/6 165/426/6 166/372/6
f 42/374/6 43/396/6 167/375/6
f 51/377/6 169/398/6 170/378/6
f 57/380/6 171/409/6 172/381/6
f 61/383/6 173/412/6 174/384/6
f 67/385/6 174/384/6 175/386/6
f 34/388/6 176/426/6 177/389/6
f 39/391/6 40/373/6 166/372/6
f 44/393/6 41/395/6 179/394/6
f 42/374/6 168/376/6 179/394/6
f 44/393/6 180/392/6 167/375/6
f 48/397/6 45/421/6 181/378/6
f 47/399/6 48/397/6 182/398/6
f 54/401/6 184/405/6 185/402/6
f 55/404/6 186/407/6 184/405/6
f 56/406/6 187/400/6 186/407/6
f 58/408/6 188/389/6 171/409/6
f 58/408/6 64/415/6 189/410/6
f 59/411/6 60/419/6 190/412/6
f 62/413/6 68/387/6 175/386/6
f 64/415/6 63/382/6 172/381/6
f 66/416/6 65/418/6 194/375/6
f 59/411/6 191/376/6 194/375/6
f 60/419/6 66/416/6 193/417/6
f 61/383/6 62/413/6 192/414/6
f 46/420/6 195/402/6 181/378/6
f 52/422/6 49/428/6 196/423/6
f 51/377/6 52/422/6 197/424/6
f 35/425/6 198/372/6 176/426/6
f 37/371/6 38/430/6 199/427/6
f 47/399/6 183/400/6 195/402/6
f 49/428/6 50/379/6 170/378/6
f 56/406/6 53/403/6 185/402/6
f 33/390/6 177/389/6 200/410/6
f 35/425/6 36/429/6 200/410/6
f 39/391/6 178/392/6 199/427/6
f 228/431/6 209/791/6 210/432/6
f 226/434/6 227/792/6 230/435/6
f 224/437/6 207/793/6 208/438/6
f 220/440/6 221/794/6 223/441/6
f 206/443/6 232/795/6 233/444/6
f 231/446/6 217/796/6 218/445/6
f 204/448/6 215/450/6 216/449/6
f 235/450/6 201/797/6 202/451/6
f 212/452/6 213/798/6 236/453/6
f 65/455/2 230/509/2 227/456/2
f 41/458/12 215/799/12 204/459/12
f 60/461/4 226/800/4 229/462/4
f 43/464/5 203/499/5 216/465/5
f 61/467/12 209/801/12 228/468/12
f 48/470/2 218/802/2 217/471/2
f 45/473/12 217/522/12 231/474/12
f 47/476/5 219/803/5 218/477/5
f 52/479/2 233/804/2 232/480/2
f 53/482/12 221/805/12 220/483/12
f 40/485/2 202/806/2 201/486/2
f 51/487/5 205/807/5 233/488/5
f 54/490/4 220/808/4 222/491/4
f 42/493/4 204/809/4 203/494/4
f 34/496/4 212/810/4 234/497/4
f 55/499/5 222/524/5 223/500/5
f 50/501/4 206/811/4 205/502/4
f 37/504/12 201/812/12 235/505/12
f 57/506/12 207/813/12 224/507/12
f 63/509/2 208/814/2 207/510/2
f 46/511/4 231/815/4 219/512/4
f 58/514/4 224/816/4 225/515/4
f 67/517/2 210/817/2 209/518/2
f 49/519/12 232/818/12 206/520/12
f 59/522/12 227/819/12 226/523/12
f 68/524/5 211/820/5 210/525/5
f 56/526/2 223/821/2 221/527/2
f 245/529/86 246/562/86 273/530/86
f 243/532/1 244/563/1 272/533/1
f 375/535/6 241/565/6 242/536/6
f 239/537/6 240/564/6 368/59/6
f 238/538/1 244/563/1 376/262/1
f 414/540/87 354/822/87 245/541/87
f 270/543/6 239/537/6 242/536/6
f 237/545/6 240/564/6 264/546/6
f 243/532/1 246/562/1 377/264/1
f 263/548/2 238/655/2 415/549/2
f 15/551/2 255/566/2 416/552/2
f 247/553/6 257/241/6 129/101/6
f 134/104/88 251/246/88 248/554/88
f 249/242/6 258/245/6 131/244/6
f 355/556/89 259/248/89 133/247/89
f 260/25/1 252/114/1 128/557/1
f 125/222/1 261/568/1 253/24/1
f 262/57/90 254/113/90 124/107/90
f 271/558/91 250/243/91 258/245/91
f 249/242/6 257/241/6 264/546/6
f 255/115/1 252/114/1 272/533/1
f 356/112/92 254/113/92 274/560/92
f 260/25/1 253/24/1 273/530/1
f 267/534/1 273/530/1 246/562/1
f 263/559/1 272/533/1 244/563/1
f 270/543/6 264/546/6 240/564/6
f 241/565/93 271/558/93 265/544/93
f 255/566/2 263/548/2 418/550/2
f 269/547/6 264/546/6 257/241/6
f 249/242/6 270/543/6 265/544/6
f 355/556/94 358/687/94 266/567/94
f 267/534/1 272/533/1 252/114/1
f 268/531/95 273/530/95 253/24/95
f 301/52/1 304/163/1 112/162/1
f 319/569/96 302/639/96 303/570/96
f 113/225/1 297/632/1 300/120/1
f 298/572/97 299/628/97 318/573/97
f 293/121/1 296/143/1 116/174/1
f 315/575/1 294/596/1 295/576/1
f 333/63/98 289/631/98 292/578/98
f 290/238/6 291/240/6 314/579/6
f 332/581/6 285/630/6 288/582/6
f 286/235/6 287/237/6 312/583/6
f 331/92/6 281/597/6 284/585/6
f 282/234/6 283/233/6 310/586/6
f 359/588/99 303/570/99 336/259/99
f 360/161/1 304/163/1 320/571/1
f 278/591/1 295/576/1 334/255/1
f 277/144/1 296/143/1 316/577/1
f 351/132/6 361/629/6 291/240/6
f 362/594/6 292/578/6 314/579/6
f 294/596/1 299/628/1 335/257/1
f 293/121/1 300/120/1 318/573/1
f 142/128/6 282/234/6 287/237/6
f 281/597/6 288/582/6 312/583/6
f 290/238/6 279/627/6 23/598/6
f 435/599/100 382/823/100 384/600/100
f 413/602/101 414/824/101 353/603/101
f 301/52/102 280/54/102 308/605/102
f 276/606/6 283/233/6 141/607/6
f 275/608/6 284/585/6 310/586/6
f 420/610/103 271/825/103 241/611/103
f 308/613/104 280/41/104 422/43/104
f 17/615/2 277/620/2 423/616/2
f 306/617/2 278/641/2 424/618/2
f 277/620/2 306/617/2 426/619/2
f 420/621/105 268/692/105 357/622/105
f 305/609/6 310/586/6 283/233/6
f 266/567/106 358/687/106 421/624/106
f 290/238/107 313/580/107 307/626/107
f 309/587/6 312/583/6 287/237/6
f 315/575/1 318/573/1 299/628/1
f 363/595/6 314/579/6 291/240/6
f 306/593/1 316/577/1 295/576/1
f 364/590/108 320/571/108 303/570/108
f 281/597/6 309/587/6 310/586/6
f 285/630/6 311/584/6 312/583/6
f 313/580/109 314/579/109 292/578/109
f 315/575/1 316/577/1 296/143/1
f 317/574/1 318/573/1 300/120/1
f 301/52/110 319/569/110 320/571/110
f 389/68/111 27/723/111 322/633/111
f 98/125/112 328/260/112 322/635/112
f 326/256/1 335/257/1 95/230/1
f 321/592/1 334/255/1 93/122/1
f 365/589/1 336/259/1 97/232/1
f 331/92/6 323/48/6 164/637/6
f 332/581/6 324/91/6 162/86/6
f 159/61/113 333/63/113 325/130/113
f 328/260/114 336/259/114 303/570/114
f 327/258/115 335/257/115 299/628/115
f 294/596/1 326/256/1 334/255/1
f 366/131/6 325/130/6 292/578/6
f 331/92/6 324/91/6 288/582/6
f 425/640/116 259/248/116 266/567/116
f 329/49/6 323/48/6 284/585/6
f 278/641/2 321/13/2 430/15/2
f 332/581/6 366/131/6 362/594/6
f 96/231/117 327/258/117 365/589/117
f 298/572/25 317/574/25 364/590/25
f 311/584/6 363/595/6 361/629/6
f 285/630/6 362/594/6 363/595/6
f 286/235/6 361/629/6 351/132/6
f 297/632/1 360/161/1 364/590/1
f 327/258/118 298/572/118 359/588/118
f 271/558/119 358/687/119 355/556/119
f 268/531/120 261/568/120 356/112/120
f 250/243/6 355/556/6 349/140/6
f 245/529/121 354/826/121 379/644/121
f 120/223/1 84/253/1 342/645/1
f 108/227/1 347/177/1 346/178/1
f 96/231/1 345/164/1 339/165/1
f 297/632/1 113/225/1 346/178/1
f 85/646/12 342/152/12 431/154/12
f 132/643/6 349/140/6 344/141/6
f 375/535/6 149/647/6 350/134/6
f 144/642/6 351/132/6 350/134/6
f 161/638/6 352/89/6 366/131/6
f 261/568/1 125/222/1 348/108/1
f 120/223/1 343/106/1 348/108/1
f 155/648/6 340/80/6 352/89/6
f 155/648/6 78/195/6 337/649/6
f 89/650/6 137/250/6 344/141/6
f 71/651/5 338/21/5 432/23/5
f 71/652/1 101/229/1 339/165/1
f 241/565/122 375/535/122 380/139/122
f 372/265/1 379/644/1 347/177/1
f 371/263/1 377/264/1 107/226/1
f 347/177/123 379/644/123 378/654/123
f 367/539/1 376/262/1 105/224/1
f 374/100/6 368/59/6 152/94/6
f 375/535/6 369/99/6 150/129/6
f 372/265/1 377/264/1 246/562/1
f 371/263/1 376/262/1 244/563/1
f 374/100/6 369/99/6 242/536/6
f 373/60/6 368/59/6 240/564/6
f 238/655/2 367/4/2 434/6/2
f 391/70/124 29/721/124 382/656/124
f 110/118/125 384/661/125 382/658/125
f 147/97/126 24/96/126 381/659/126
f 110/118/50 109/228/50 378/654/50
f 147/97/127 385/660/127 370/138/127
f 433/662/128 370/827/128 385/663/128
f 417/665/129 436/669/129 262/666/129
f 425/640/130 436/828/130 251/246/130
f 254/668/131 262/666/131 436/669/131
f 251/671/132 436/829/132 417/12/132
f 433/673/133 437/830/133 384/674/133
f 24/69/134 391/70/134 435/657/134
f 415/549/2 434/6/2 373/677/2
f 403/271/5 432/23/5 337/679/5
f 407/274/12 431/154/12 341/680/12
f 424/618/2 430/15/2 329/681/2
f 274/683/135 254/668/135 425/670/135
f 26/67/4 389/68/4 429/634/4
f 428/684/136 421/623/136 357/622/136
f 420/686/137 421/624/137 358/687/137
f 423/616/2 426/619/2 305/688/2
f 426/619/2 424/618/2 275/682/2
f 397/75/2 423/616/2 276/689/2
f 427/614/4 422/43/4 279/690/4
f 268/692/138 420/621/138 419/542/138
f 354/693/139 414/831/139 413/268/139
f 435/657/140 437/832/140 385/694/140
f 416/552/2 418/550/2 269/695/2
f 395/73/2 416/552/2 247/696/2
f 418/550/2 415/549/2 237/678/2
f 353/697/141 414/833/141 419/698/141
f 411/192/12 412/150/12 82/700/12
f 409/151/12 410/153/12 84/701/12
f 407/274/12 408/156/12 86/702/12
f 405/185/5 406/22/5 70/703/5
f 403/271/5 404/171/5 72/704/5
f 401/172/5 402/168/5 74/705/5
f 380/604/142 370/834/142 433/706/142
f 411/192/12 383/191/12 3/707/12
f 405/185/5 388/184/5 5/708/5
f 401/172/5 404/171/5 77/709/5
f 387/169/5 402/168/5 75/710/5
f 386/157/12 408/156/12 87/712/12
f 431/154/12 410/153/12 89/714/12
f 409/151/12 412/150/12 91/715/12
f 399/34/2 400/14/2 20/716/2
f 397/75/2 398/5/2 18/717/2
f 395/73/2 396/30/2 16/718/2
f 393/20/4 394/11/4 32/719/4
f 391/70/4 392/42/4 30/720/4
f 389/68/4 390/39/4 28/722/4
f 422/43/7 392/42/7 23/724/7
f 388/40/4 390/39/4 25/725/4
f 399/34/2 387/33/2 7/727/2
f 383/31/2 396/30/2 13/728/2
f 432/23/5 406/22/5 79/730/5
f 393/20/4 386/19/4 1/731/4
f 430/15/2 400/14/2 9/732/2
f 248/672/143 417/12/143 394/11/143
f 434/6/2 398/5/2 11/734/2
f 319/735/144 439/745/144 438/736/144
f 440/738/145 438/835/145 289/739/145
f 328/741/146 440/748/146 429/742/146
f 308/744/147 427/836/147 439/745/147
f 439/746/148 313/580/148 289/631/148
f 440/748/149 328/741/149 302/749/149
f 429/634/150 440/738/150 333/740/150
f 439/751/151 427/614/151 307/691/151
