# Blender 4.2.1 LTS
# www.blender.org
mtllib window_2.mtl
g window_bars_2.001_Mesh
v 1.000176 0.913503 -0.037218
v -1.042278 0.913503 -0.028053
v 1.000209 0.913503 0.129628
v -1.042246 0.913503 0.138793
v 1.000176 0.025626 -0.037215
v -1.042513 0.025611 -0.028424
v 1.000209 0.025621 0.129631
v -1.042481 0.025606 0.138422
v 0.567056 0.025618 0.131652
v -0.017621 0.025614 0.133975
v -0.588446 0.025610 0.136299
v -0.588477 0.025615 -0.030547
v -0.017653 0.025619 -0.032870
v 0.567025 0.025623 -0.035194
v 1.000176 0.348782 -0.037217
v 1.000209 0.348778 0.129628
v -1.042279 0.348716 -0.028052
v -1.042246 0.348712 0.138793
v -1.074273 0.913503 -0.027857
v -1.074241 0.913503 0.138989
v -0.610368 0.000004 0.136243
v -1.074521 0.000000 0.138548
v 0.591277 0.000015 -0.035213
v 1.027572 0.000018 -0.037518
v 1.027572 0.348782 -0.037518
v 1.027572 0.913503 -0.037518
v 1.027605 0.348778 0.129328
v 1.027605 0.000014 0.129328
v -1.074273 0.348771 -0.027856
v -1.074241 0.348768 0.138989
v 1.027605 0.913503 0.129327
v 0.591310 0.000010 0.131633
v -0.015468 0.000007 0.133938
v -1.074553 0.000004 -0.028297
v -0.610401 0.000008 -0.030602
v -0.015501 0.000012 -0.032907
v -1.021472 0.372178 -0.049820
v -1.021286 0.879409 -0.049515
v -1.021236 0.879395 0.082151
v -1.021422 0.372169 0.081846
v 0.979431 0.372235 0.072924
v 0.979431 0.879413 0.072912
v 0.587410 0.372233 0.074710
v 0.546875 0.372231 0.074980
v 0.979373 0.372239 -0.058742
v 0.587353 0.372237 -0.104885
v 0.979373 0.879419 -0.058754
v 0.546829 0.372237 -0.104615
v -0.037796 0.059426 -0.054456
v -0.568197 0.059423 -0.052300
v 0.546760 0.059429 -0.056781
v 0.002505 0.059425 -0.054641
v 0.546814 0.325324 -0.104648
v 0.979373 0.059431 -0.058747
v 0.587285 0.059428 -0.057040
v 0.587339 0.325323 -0.104887
v 0.979373 0.325325 -0.058758
v -0.037752 0.059415 0.077210
v -0.568152 0.059412 0.079366
v 0.546805 0.059420 0.074884
v 0.546860 0.325318 0.074947
v 0.002551 0.059417 0.077024
v 0.979430 0.059425 0.072919
v 0.979430 0.325321 0.072908
v 0.587395 0.325319 0.074708
v 0.587340 0.059422 0.074626
v -0.608681 0.059410 0.079562
v -1.021472 0.325255 0.081784
v -1.021658 0.059407 0.081479
v -0.608728 0.059424 -0.052104
v -1.021706 0.059420 -0.050187
v -1.021520 0.325265 -0.049882
v -1.042287 0.348719 -0.049746
v -1.042286 0.913503 -0.049746
v -1.042238 0.913503 0.081920
v 1.000221 0.913503 0.072754
v 0.567132 0.348775 0.074870
v 0.567081 0.348780 -0.104725
v 1.000164 0.913503 -0.058911
v -0.588483 0.025618 -0.052240
v -0.017660 0.025621 -0.054564
v 0.567013 0.025623 -0.056888
v 1.000164 0.025627 -0.058908
v 1.000164 0.348782 -0.058911
v -0.017615 0.025611 0.077102
v -0.588439 0.025607 0.079426
v 0.567063 0.025616 0.074778
v 1.000221 0.348778 0.072755
v 1.000221 0.025620 0.072757
v -1.042238 0.348709 0.081920
v -1.042473 0.025602 0.081548
v -1.042521 0.025615 -0.050118
v 1.000176 1.848682 -0.037221
v -1.042043 1.848667 -0.027681
v 1.000209 1.848677 0.129625
v -1.042011 1.848661 0.139164
v 0.567163 1.848678 -0.035012
v -0.017379 1.848674 -0.032505
v -0.588064 1.848670 -0.029997
v 0.567194 1.848673 0.131834
v -0.017347 1.848670 0.134341
v -0.588032 1.848665 0.136848
v 1.000176 1.396263 -0.037218
v 1.000209 1.396259 0.129627
v -1.042279 1.396196 -0.028053
v -1.042246 1.396193 0.138792
v -0.609971 1.874277 -0.029942
v -1.073993 1.874274 -0.027416
v -0.609938 1.874273 0.136904
v -1.073961 1.874269 0.139430
v 1.027573 1.396263 -0.037519
v 1.027573 1.874289 -0.037519
v 1.027605 1.396259 0.129327
v -1.074273 1.396252 -0.027857
v -1.074241 1.396249 0.138989
v 0.591421 1.874285 -0.034993
v -0.015216 1.874281 -0.032467
v 1.027605 1.874283 0.129327
v 0.591453 1.874280 0.131852
v -0.015183 1.874276 0.134378
v -1.021472 1.419659 -0.049821
v -1.021286 1.814867 -0.049516
v -0.608359 1.814870 -0.051617
v -0.608310 1.814857 0.080048
v -1.021236 1.814852 0.082150
v -1.021422 1.419650 0.081845
v 0.979431 1.419715 0.072923
v 0.979431 1.814871 0.072911
v 0.587464 1.814868 0.074792
v 0.546929 1.814866 0.075042
v 0.002797 1.814863 0.077358
v -0.037506 1.814862 0.077531
v -0.567782 1.814858 0.079864
v 0.979373 1.419720 -0.058743
v 0.587408 1.814874 -0.056875
v 0.979373 1.814877 -0.058755
v 0.002751 1.814872 -0.054308
v 0.546883 1.814875 -0.056625
v -0.567827 1.814869 -0.051802
v -0.037551 1.814872 -0.054135
v 0.979373 0.947606 -0.058748
v 0.979373 1.372807 -0.058759
v 0.979430 0.947600 0.072918
v 0.979430 1.372802 0.072906
v -1.021472 1.372736 0.081783
v -1.021658 0.947583 0.081478
v -1.021706 0.947596 -0.050188
v -1.021520 1.372746 -0.049883
v -1.042287 1.396199 -0.049747
v -1.042052 1.848671 -0.049375
v -0.588024 1.848661 0.079975
v -1.042002 1.848657 0.082291
v 1.000221 1.848676 0.072752
v 0.567201 1.848671 0.074960
v -0.017341 1.848666 0.077468
v 1.000163 1.848682 -0.058914
v 0.567155 1.848680 -0.056705
v -0.588070 1.848674 -0.051691
v -0.017386 1.848678 -0.054198
v 1.000164 1.396263 -0.058912
v 1.000221 1.396259 0.072754
v -1.042238 1.396190 0.081919
v -0.017409 1.686231 0.077376
v 0.002742 1.681058 0.077281
v -0.037560 1.681057 0.077463
v 0.009756 1.662388 -0.102315
v -0.037605 1.681066 -0.102132
v -0.017454 1.649416 -0.102220
v -0.782651 1.395607 0.051030
v -0.780412 1.411471 -0.070324
v -0.791310 1.411465 0.051099
v -0.791340 1.379746 0.051052
v -0.777318 1.379753 -0.070372
v -0.782682 1.387695 -0.070393
v -0.613468 1.644868 -0.099651
v -0.608392 1.681051 0.079945
v -0.567864 1.681054 0.079750
v -0.567909 1.681063 -0.099846
v -0.588174 1.634331 -0.099758
v -0.588128 1.686227 0.079837
v -0.858872 0.913502 0.080635
v -0.839577 0.879411 -0.098660
v -0.839529 0.879397 0.080935
v -0.836807 0.913502 -0.098960
v -0.859427 0.947585 0.080369
v -0.859475 0.931673 -0.099227
v 0.783363 1.419719 -0.105779
v 0.783356 1.372805 -0.105788
v 0.783622 1.396262 -0.105784
v 0.660581 0.879411 0.074442
v 0.660524 0.879416 -0.105154
v 0.647919 0.913503 0.074475
v 0.647869 0.913503 -0.105121
v 0.660424 0.947604 -0.105289
v 0.660480 0.947598 0.074306
v 0.567132 0.431296 0.074870
v 0.587428 0.434992 0.074739
v 0.546893 0.434991 0.075001
v 0.587372 0.434997 -0.104857
v 0.546847 0.434998 -0.104594
v 0.567082 0.431299 -0.104726
v 0.475012 0.372237 -0.104322
v 0.474996 0.325324 -0.104353
v 0.489931 0.348780 -0.104407
v -0.017558 0.266789 -0.102357
v -0.037715 0.257861 -0.102284
v 0.002586 0.257860 -0.102455
v -0.037671 0.257852 0.077311
v 0.002632 0.257854 0.077140
v -0.017513 0.266781 0.077239
v -0.588308 0.300303 -0.099936
v -0.568058 0.285435 -0.100037
v -0.568013 0.285427 0.079559
v -0.608542 0.285423 0.079739
v -0.608589 0.285434 -0.099857
v -0.588262 0.300293 0.079660
v -0.848617 0.348734 0.080974
v -0.845361 0.372201 -0.098604
v -0.845312 0.372191 0.080991
v -0.845359 0.325278 0.080925
v -0.845407 0.325287 -0.098671
v -0.848665 0.348743 -0.098622
v 0.567149 1.603030 0.074891
v 0.587423 1.612523 0.074729
v 0.546888 1.612521 0.074994
v 0.587366 1.612527 -0.104866
v 0.546842 1.612528 -0.104601
v 0.567099 1.603036 -0.104704
v 0.494093 0.372231 0.074980
v 0.494079 0.325318 0.074947
v 0.514351 0.348775 0.074870
v 0.780265 1.419715 0.072923
v 0.780265 1.372802 0.072906
v 0.801056 1.396259 0.072754
vn -1.0000 0.0008 0.0002
vn 1.0000 -0.0000 -0.0002
vn -0.0000 -1.0000 -0.0000
vn -1.0000 -0.0000 0.0002
vn 0.0047 -0.0062 1.0000
vn -0.0047 -0.0037 -1.0000
vn -0.0110 -0.0000 -0.9999
vn 0.0110 -0.0000 0.9999
vn -0.0061 -0.0000 -1.0000
vn 0.0061 -0.0000 1.0000
vn 0.0053 -0.0062 1.0000
vn 0.0038 0.0029 1.0000
vn 0.0041 -0.0011 1.0000
vn -0.0050 0.0013 -1.0000
vn -0.0039 0.0055 -1.0000
vn -0.0040 0.0011 -1.0000
vn -0.0111 -0.0000 -0.9999
vn -0.0061 0.0012 -1.0000
vn 0.0050 -0.0013 1.0000
vn -1.0000 -0.0000 0.0004
vn 1.0000 -0.0000 0.0001
vn -1.0000 -0.0000 -0.0002
vn 1.0000 -0.0000 -0.0006
vn -0.0000 -1.0000 -0.0001
vn -0.0000 1.0000 -0.0001
vn -0.0000 1.0000 -0.0000
vn 1.0000 -0.0007 0.0001
vn -0.0000 -1.0000 -0.0002
vn -1.0000 0.0007 0.0004
vn 1.0000 -0.0004 -0.0004
vn 0.0110 -0.0000 -0.9999
vn -0.2611 0.0127 -0.9652
vn 0.0042 -0.0006 1.0000
vn 0.0049 -0.0014 1.0000
vn 0.0076 -0.0000 1.0000
vn 0.0048 0.0008 1.0000
vn 0.0049 -0.0029 1.0000
vn 0.0064 -0.0003 1.0000
vn 0.1162 0.1071 -0.9874
vn -0.0066 0.0005 -1.0000
vn -0.0082 -0.0000 -1.0000
vn -0.0041 0.0010 -1.0000
vn -0.0041 0.0007 -1.0000
vn -0.1546 -0.2041 -0.9667
vn -0.0039 0.0001 -1.0000
vn -0.1079 -0.2328 -0.9665
vn -0.2421 -0.1420 -0.9598
vn -0.0044 -0.0019 -1.0000
vn -0.2082 -0.1732 -0.9626
vn -0.0078 -0.0000 -1.0000
vn 0.0038 -0.0005 1.0000
vn 0.0041 -0.0008 1.0000
vn 0.0041 -0.0002 1.0000
vn 0.0040 -0.0008 1.0000
vn 0.0073 -0.0000 1.0000
vn 0.0046 -0.0029 1.0000
vn 0.0080 -0.0003 1.0000
vn 0.0047 -0.0019 1.0000
vn 0.0045 -0.0008 1.0000
vn 0.0052 -0.0012 1.0000
vn 0.0046 -0.0013 1.0000
vn -0.0047 0.0008 -1.0000
vn -0.0053 0.0012 -1.0000
vn -0.2668 -0.0351 -0.9631
vn -0.0000 1.0000 0.0001
vn -1.0000 0.0005 0.0002
vn -1.0000 0.0003 0.0003
vn 1.0000 -0.0003 -0.0003
vn 1.0000 -0.0002 -0.0004
vn -0.0001 1.0000 0.0001
vn -1.0000 0.0007 0.0003
vn 1.0000 -0.0007 -0.0004
vn -1.0000 0.0006 0.0002
vn -0.0051 -0.0022 -1.0000
vn 0.0054 -0.0036 1.0000
vn -0.0076 0.0009 -1.0000
vn 0.0061 -0.0008 1.0000
vn -0.0058 -0.0054 -1.0000
vn -0.0042 0.0047 -1.0000
vn -0.0044 0.0018 -1.0000
vn 0.0051 -0.0056 1.0000
vn 0.0043 -0.0018 1.0000
vn 0.0042 0.0014 1.0000
vn 0.0109 -0.0000 0.9999
vn -1.0000 0.0005 0.0004
vn -0.0000 1.0000 0.0002
vn -0.0000 -1.0000 0.0001
vn 1.0000 -0.0005 0.0002
vn 1.0000 -0.0005 -0.0004
vn -0.0054 0.0008 -1.0000
vn -0.0051 0.0009 -1.0000
vn 0.1073 0.2673 -0.9576
vn 0.0051 -0.0010 1.0000
vn 0.0044 -0.0008 1.0000
vn 0.1345 0.0692 0.9885
vn 0.0077 -0.0000 1.0000
vn 0.0048 -0.0021 1.0000
vn 0.0081 -0.0003 1.0000
vn 0.0043 -0.0007 1.0000
vn 0.0046 -0.0006 1.0000
vn 0.0044 -0.0007 1.0000
vn 0.0041 -0.0009 1.0000
vn 0.2333 0.0028 -0.9724
vn -0.0051 -0.0016 -1.0000
vn -0.0043 0.0002 -1.0000
vn 0.1026 0.2295 -0.9679
vn -0.0044 0.0007 -1.0000
vn 0.4655 0.2987 -0.8331
vn 0.1442 -0.0580 -0.9879
vn -0.0079 -0.0000 -1.0000
vn 0.9999 0.0163 -0.0017
vn 0.0214 -0.0000 0.9998
vn 0.0068 0.0079 0.9999
vn -0.0057 0.0007 -1.0000
vn -0.0818 -0.0580 -0.9950
vn -1.0000 0.0001 0.0003
vn -1.0000 0.0003 0.0002
vn 0.0342 0.9994 0.0031
vn 0.9955 -0.0951 0.0059
vn 1.0000 -0.0004 -0.0003
vn 0.3616 0.2183 -0.9064
vn 0.0041 -0.0006 1.0000
vn 0.0304 -0.9995 -0.0001
vn 0.1178 0.0986 0.9881
vn -0.0770 0.0652 -0.9949
vn 1.0000 -0.0006 -0.0003
vn 0.4877 0.2948 -0.8217
vn 0.0050 -0.0009 1.0000
vn -1.0000 0.0006 0.0004
vn -0.2723 0.1521 -0.9501
vn 0.0070 0.0111 0.9999
vn -0.2474 -0.9689 -0.0000
vn 0.2487 -0.9686 -0.0001
vn 0.9967 -0.0810 -0.0003
vn 0.8248 0.5574 0.0953
vn -0.2430 -0.9503 0.1949
vn -0.3706 -0.8923 0.2579
vn 0.2077 -0.1903 -0.9595
vn 0.0049 -0.0018 1.0000
vn 0.1296 -0.0836 -0.9880
vn -0.0054 -0.0000 -1.0000
vn 0.0079 -0.0000 1.0000
vn -0.0041 0.0003 -1.0000
vn 0.0048 -0.0006 1.0000
vn -0.3146 -0.1844 -0.9312
vn -0.2803 -0.1640 -0.9458
vn 0.0044 -0.0009 1.0000
vn 0.0001 -1.0000 -0.0001
vn 0.0049 -0.0015 1.0000
vn -0.2394 0.2094 -0.9481
vn 0.2977 0.1830 -0.9370
vn 0.0045 -0.0003 1.0000
vn 0.1796 0.9837 -0.0000
vn -0.1792 0.9838 0.0001
vn -0.9384 0.3455 0.0003
vn -0.9375 -0.3480 0.0003
vn -0.0000 0.0033 1.0000
vn -0.0000 -0.0047 1.0000
vn -0.8401 0.5351 0.0894
vn -0.8403 -0.5347 0.0894
vn -0.4050 0.9143 0.0001
vn 0.4052 0.9142 -0.0001
vn -0.0000 -0.0072 1.0000
vn -0.0000 0.0065 1.0000
vn -0.9998 -0.0111 -0.0173
vn -0.9998 0.0113 -0.0173
vn -0.5913 0.8064 0.0002
vn 0.5918 0.8061 -0.0001
vn 0.9902 -0.1395 -0.0003
vn 0.9905 0.1376 -0.0003
vn -0.4242 -0.9056 0.0001
vn 0.4241 -0.9056 -0.0002
vn 0.1162 -0.1072 -0.9874
vn -0.0053 0.0062 -1.0000
vn 0.0047 0.0037 1.0000
vn 0.0040 -0.0011 1.0000
vn 0.0039 -0.0055 1.0000
vn -0.0047 0.0062 -1.0000
vn -0.0041 0.0011 -1.0000
vn -0.0038 -0.0029 -1.0000
vn 0.0061 -0.0012 1.0000
vn -0.0042 0.0006 -1.0000
vn -0.2303 -0.1484 -0.9617
vn -0.0110 -0.0000 0.9999
vn 0.0049 -0.0012 1.0000
vn 0.0082 -0.0000 1.0000
vn 0.0049 0.0016 1.0000
vn 0.0046 0.0029 1.0000
vn 0.0054 -0.0000 1.0000
vn 0.1047 -0.0992 -0.9895
vn -0.0076 -0.0000 -1.0000
vn -0.0041 0.0008 -1.0000
vn 0.2718 -0.1648 -0.9481
vn -0.0040 0.0008 -1.0000
vn 0.3068 -0.1851 -0.9336
vn 0.1974 -0.1737 -0.9648
vn -0.0047 0.0019 -1.0000
vn 0.2304 -0.1425 -0.9626
vn -0.0073 -0.0000 -1.0000
vn 0.0044 -0.0006 1.0000
vn 0.0041 -0.0007 1.0000
vn 0.0048 -0.0003 1.0000
vn 0.0039 -0.0000 1.0000
vn 0.0078 -0.0000 1.0000
vn 0.0049 0.0022 1.0000
vn 0.0076 -0.0003 1.0000
vn 0.0044 0.0019 1.0000
vn 0.0053 -0.0009 1.0000
vn 0.0053 -0.0011 1.0000
vn 0.0047 -0.0008 1.0000
vn -0.0046 0.0013 -1.0000
vn -0.0052 0.0012 -1.0000
vn -0.2395 -0.2065 -0.9487
vn -1.0000 0.0004 0.0003
vn -1.0000 0.0002 0.0003
vn -0.0054 0.0036 -1.0000
vn 0.0051 0.0022 1.0000
vn -0.0109 -0.0000 -0.9999
vn -0.0061 0.0008 -1.0000
vn 0.0076 -0.0009 1.0000
vn -0.0051 0.0056 -1.0000
vn -0.0043 0.0018 -1.0000
vn -0.0042 -0.0015 -1.0000
vn 0.0058 0.0054 1.0000
vn 0.0042 -0.0047 1.0000
vn 0.0044 -0.0018 1.0000
vn 1.0000 -0.0005 0.0001
vn -0.0044 0.0008 -1.0000
vn -0.0051 0.0010 -1.0000
vn -0.3457 0.2055 -0.9156
vn 0.0051 -0.0009 1.0000
vn 0.0054 -0.0008 1.0000
vn 0.1173 -0.1010 0.9879
vn 0.0051 0.0016 1.0000
vn 0.0079 -0.0003 1.0000
vn 0.0043 -0.0002 1.0000
vn 0.0045 -0.0006 1.0000
vn 0.2077 0.1910 -0.9594
vn -0.0048 0.0021 -1.0000
vn -0.0077 -0.0000 -1.0000
vn -0.0043 0.0007 -1.0000
vn -0.3081 0.1825 -0.9337
vn -0.3682 0.2179 -0.9038
vn 0.1296 0.0837 -0.9880
vn 0.6231 0.7784 0.0765
vn 0.0057 -0.0007 1.0000
vn 0.0070 0.0087 0.9999
vn -0.0215 -0.0000 -0.9998
vn -0.0813 -0.0662 -0.9945
vn -1.0000 0.0002 0.0004
vn 0.0356 0.9994 0.0001
vn 0.8751 0.4775 0.0786
vn 0.9988 0.0347 0.0354
vn -0.1422 0.2913 -0.9460
vn 0.0045 -0.0005 1.0000
vn 0.0290 -0.9996 0.0033
vn 0.1342 -0.0722 0.9883
vn -0.0844 0.0109 -0.9964
vn 1.0000 -0.0005 -0.0003
vn -0.4539 0.1952 -0.8694
vn 0.0055 -0.0008 1.0000
vn -0.9994 0.0234 0.0235
vn 0.0709 0.9936 -0.0881
vn -0.2228 -0.2916 -0.9302
vn 0.0067 0.0126 0.9999
vn 0.9116 -0.3951 0.1139
vn -0.8383 -0.5340 0.1097
vn 0.8645 0.4912 0.1062
vn 0.8766 -0.4802 0.0311
vn 0.4280 -0.8971 0.1100
vn 0.2441 -0.9520 0.1849
vn 0.2333 -0.0025 -0.9724
vn 0.0044 0.0033 1.0000
vn 0.1438 0.0543 -0.9881
vn -0.0064 0.0003 -1.0000
vn 0.0065 -0.0005 1.0000
vn 0.0998 -0.2332 -0.9673
vn 1.0000 -0.0007 -0.0002
vn 0.1462 -0.2046 -0.9679
vn -0.2668 0.0383 -0.9630
vn 1.0000 -0.0001 -0.0003
vn -0.1151 0.2293 -0.9665
vn 0.0050 -0.0002 1.0000
vn 0.1798 0.9837 -0.0000
vn -0.1793 0.9838 0.0001
vn -0.9384 0.3457 0.0003
vn -0.9374 -0.3481 0.0003
vn -0.7524 0.6506 0.1025
vn -0.7526 -0.6504 0.1025
vn -0.7461 -0.6618 0.0728
vn -0.7461 0.6618 0.0729
vn -0.5913 0.8065 0.0002
vn -0.4243 -0.9055 0.0001
vn 0.4240 -0.9056 -0.0001
vn 0.1047 0.0999 -0.9895
vt 0.697138 0.112240
vt 0.693744 0.115526
vt 0.693737 0.112240
vt 0.700545 0.101151
vt 0.697145 0.106471
vt 0.697145 0.101151
vt 0.704702 0.098878
vt 0.705904 0.094330
vt 0.705908 0.098879
vt 0.704701 0.116246
vt 0.705904 0.111407
vt 0.705907 0.116246
vt 0.704699 0.111407
vt 0.705906 0.105205
vt 0.704700 0.105204
vt 0.700545 0.097866
vt 0.697145 0.097865
vt 0.693741 0.106918
vt 0.697142 0.106919
vt 0.689607 0.116647
vt 0.689350 0.112141
vt 0.689607 0.111913
vt 0.708590 0.095123
vt 0.708846 0.099387
vt 0.708590 0.099639
vt 0.699697 0.095123
vt 0.705353 0.094838
vt 0.705353 0.095123
vt 0.689607 0.095349
vt 0.692844 0.095063
vt 0.692844 0.095349
vt 0.699696 0.116418
vt 0.705353 0.116752
vt 0.699696 0.116752
vt 0.698500 0.116644
vt 0.692844 0.116978
vt 0.692843 0.116644
vt 0.689350 0.099612
vt 0.689350 0.095063
vt 0.689607 0.099865
vt 0.689350 0.105939
vt 0.689607 0.105961
vt 0.708590 0.116421
vt 0.708846 0.111916
vt 0.708846 0.116755
vt 0.708590 0.111687
vt 0.708846 0.105713
vt 0.708590 0.105735
vt 0.708846 0.094838
vt 0.698500 0.095063
vt 0.698500 0.095349
vt 0.705353 0.116418
vt 0.689350 0.116981
vt 0.703954 0.106000
vt 0.704086 0.110800
vt 0.703953 0.110800
vt 0.703254 0.100798
vt 0.703604 0.105597
vt 0.703255 0.105597
vt 0.703953 0.106000
vt 0.703604 0.110800
vt 0.703604 0.106000
vt 0.704221 0.100798
vt 0.704088 0.105597
vt 0.704088 0.100798
vt 0.706891 0.110892
vt 0.707049 0.104941
vt 0.707048 0.110892
vt 0.706892 0.104941
vt 0.707050 0.098846
vt 0.706893 0.098846
vt 0.707048 0.094330
vt 0.704221 0.098052
vt 0.704088 0.098052
vt 0.705909 0.104942
vt 0.706320 0.110894
vt 0.705909 0.110894
vt 0.705908 0.098846
vt 0.706320 0.104942
vt 0.703953 0.110800
vt 0.703604 0.113547
vt 0.705909 0.094330
vt 0.706319 0.098846
vt 0.703256 0.098052
vt 0.703603 0.100798
vt 0.706319 0.115627
vt 0.705908 0.115628
vt 0.706893 0.115626
vt 0.707050 0.115626
vt 0.703955 0.113547
vt 0.701721 0.103994
vt 0.700914 0.099684
vt 0.701721 0.099684
vt 0.697705 0.116196
vt 0.703021 0.116415
vt 0.697364 0.116415
vt 0.697365 0.114272
vt 0.697706 0.114301
vt 0.696219 0.116817
vt 0.690903 0.117036
vt 0.691138 0.116819
vt 0.690903 0.115017
vt 0.691138 0.114982
vt 0.696219 0.095957
vt 0.690904 0.095740
vt 0.696560 0.095740
vt 0.696560 0.099414
vt 0.696219 0.099282
vt 0.691139 0.095957
vt 0.690904 0.100256
vt 0.691139 0.100467
vt 0.691730 0.100256
vt 0.691767 0.100467
vt 0.703021 0.099635
vt 0.703255 0.095337
vt 0.703256 0.099423
vt 0.702786 0.099423
vt 0.702195 0.099635
vt 0.702158 0.099423
vt 0.697705 0.095337
vt 0.703020 0.095120
vt 0.702785 0.095337
vt 0.702786 0.099846
vt 0.703021 0.100439
vt 0.702786 0.100595
vt 0.705918 0.111472
vt 0.706257 0.105732
vt 0.706257 0.111683
vt 0.703507 0.111681
vt 0.703656 0.111470
vt 0.705918 0.099847
vt 0.705918 0.105522
vt 0.703842 0.105730
vt 0.703932 0.105520
vt 0.706257 0.099636
vt 0.705918 0.095337
vt 0.705918 0.099425
vt 0.706257 0.095120
vt 0.688005 0.106563
vt 0.690082 0.106352
vt 0.689993 0.106562
vt 0.688005 0.112093
vt 0.687667 0.106353
vt 0.688005 0.100468
vt 0.690669 0.100467
vt 0.687667 0.100257
vt 0.688005 0.095957
vt 0.690669 0.095957
vt 0.690669 0.100045
vt 0.688005 0.100045
vt 0.687667 0.095740
vt 0.688005 0.112515
vt 0.690418 0.112302
vt 0.690269 0.112514
vt 0.688005 0.116821
vt 0.687667 0.117038
vt 0.687667 0.112304
vt 0.705918 0.116200
vt 0.706257 0.116417
vt 0.703256 0.116198
vt 0.703022 0.114396
vt 0.703256 0.114362
vt 0.697015 0.108060
vt 0.696207 0.098052
vt 0.697015 0.098052
vt 0.694287 0.107532
vt 0.692195 0.103165
vt 0.695047 0.103165
vt 0.700878 0.116277
vt 0.698194 0.097542
vt 0.700878 0.097542
vt 0.700106 0.099684
vt 0.700914 0.103995
vt 0.700106 0.103995
vt 0.693995 0.101229
vt 0.693187 0.098969
vt 0.694289 0.098969
vt 0.694005 0.105449
vt 0.694813 0.098052
vt 0.695106 0.105448
vt 0.700495 0.101426
vt 0.701028 0.100324
vt 0.701028 0.101426
vt 0.695096 0.098969
vt 0.694289 0.101229
vt 0.694289 0.098969
vt 0.702447 0.105450
vt 0.701639 0.098052
vt 0.702447 0.098052
vt 0.705380 0.101229
vt 0.704573 0.098969
vt 0.705380 0.098969
vt 0.695400 0.098052
vt 0.696207 0.105449
vt 0.695106 0.105448
vt 0.698711 0.103007
vt 0.697904 0.099685
vt 0.699005 0.099684
vt 0.705697 0.108139
vt 0.703604 0.103165
vt 0.706456 0.103165
vt 0.700024 0.098052
vt 0.700832 0.105844
vt 0.700024 0.105844
vt 0.704573 0.101228
vt 0.703765 0.098969
vt 0.704573 0.098969
vt 0.693744 0.102370
vt 0.697145 0.102370
vt 0.704696 0.116241
vt 0.703493 0.111404
vt 0.704699 0.111403
vt 0.700545 0.111020
vt 0.697145 0.115522
vt 0.697145 0.111019
vt 0.704695 0.098877
vt 0.703493 0.094330
vt 0.704699 0.094330
vt 0.704697 0.105202
vt 0.703489 0.098878
vt 0.703491 0.105203
vt 0.700545 0.106472
vt 0.697139 0.097866
vt 0.693738 0.097865
vt 0.690330 0.116416
vt 0.690073 0.111911
vt 0.690330 0.111683
vt 0.707867 0.116642
vt 0.708124 0.112137
vt 0.708124 0.116975
vt 0.690329 0.095123
vt 0.694861 0.094838
vt 0.694861 0.095123
vt 0.703336 0.095063
vt 0.703336 0.095349
vt 0.694861 0.116752
vt 0.690073 0.116749
vt 0.703336 0.116978
vt 0.703335 0.116644
vt 0.690073 0.099385
vt 0.690073 0.094838
vt 0.690330 0.099638
vt 0.690073 0.105710
vt 0.690330 0.105733
vt 0.707867 0.095349
vt 0.708124 0.099611
vt 0.707867 0.099864
vt 0.708124 0.105936
vt 0.707867 0.105958
vt 0.707867 0.111908
vt 0.699697 0.094838
vt 0.708124 0.095063
vt 0.694862 0.116418
vt 0.698500 0.116978
vt 0.704087 0.098052
vt 0.703955 0.101898
vt 0.703953 0.098052
vt 0.706735 0.110889
vt 0.706890 0.115622
vt 0.706733 0.115622
vt 0.706322 0.115621
vt 0.706731 0.110888
vt 0.706733 0.115621
vt 0.703256 0.109699
vt 0.703603 0.113543
vt 0.703254 0.113543
vt 0.703953 0.098052
vt 0.703604 0.101897
vt 0.703604 0.098052
vt 0.706322 0.098844
vt 0.706731 0.094330
vt 0.706733 0.098845
vt 0.706321 0.104938
vt 0.706732 0.104939
vt 0.706320 0.110888
vt 0.706735 0.094330
vt 0.706890 0.098844
vt 0.706733 0.098845
vt 0.704221 0.109699
vt 0.704088 0.113544
vt 0.704088 0.109699
vt 0.706891 0.104939
vt 0.706734 0.104939
vt 0.706891 0.110889
vt 0.704221 0.105597
vt 0.703953 0.101897
vt 0.703604 0.109699
vt 0.704087 0.106000
vt 0.700832 0.105843
vt 0.701639 0.098052
vt 0.701639 0.105843
vt 0.697422 0.114315
vt 0.694739 0.103155
vt 0.697422 0.103155
vt 0.688335 0.116196
vt 0.692529 0.116415
vt 0.687997 0.116412
vt 0.687997 0.111679
vt 0.688335 0.111891
vt 0.690145 0.111680
vt 0.690039 0.111943
vt 0.705588 0.116817
vt 0.705927 0.112300
vt 0.705927 0.117033
vt 0.701395 0.117036
vt 0.701630 0.116819
vt 0.701389 0.114329
vt 0.701548 0.114419
vt 0.705588 0.095957
vt 0.701396 0.095740
vt 0.705927 0.095740
vt 0.705927 0.100255
vt 0.705588 0.100044
vt 0.703467 0.100256
vt 0.703562 0.100044
vt 0.705588 0.100467
vt 0.705927 0.106350
vt 0.705588 0.106140
vt 0.704300 0.106350
vt 0.704248 0.106140
vt 0.705588 0.112089
vt 0.704300 0.112301
vt 0.704248 0.112090
vt 0.692293 0.095337
vt 0.692529 0.097377
vt 0.692294 0.097380
vt 0.688335 0.095337
vt 0.687997 0.099634
vt 0.687997 0.095120
vt 0.692528 0.095120
vt 0.688335 0.099846
vt 0.687997 0.105729
vt 0.690458 0.099634
vt 0.690363 0.099846
vt 0.688335 0.111468
vt 0.688335 0.105939
vt 0.689994 0.105729
vt 0.689677 0.105939
vt 0.697022 0.095337
vt 0.697365 0.098792
vt 0.697023 0.098661
vt 0.697364 0.095120
vt 0.696902 0.095957
vt 0.701161 0.095957
vt 0.699654 0.101377
vt 0.699815 0.100275
vt 0.699944 0.101377
vt 0.696902 0.116821
vt 0.696560 0.117036
vt 0.696560 0.115124
vt 0.696902 0.115130
vt 0.697022 0.116200
vt 0.692764 0.116198
vt 0.692614 0.113708
vt 0.692694 0.113652
vt 0.703254 0.098052
vt 0.702447 0.105447
vt 0.702447 0.098052
vt 0.704438 0.099684
vt 0.705246 0.103042
vt 0.704438 0.103043
vt 0.694005 0.098052
vt 0.693198 0.108318
vt 0.693198 0.098052
vt 0.697899 0.107618
vt 0.699990 0.103165
vt 0.700752 0.107618
vt 0.703631 0.103298
vt 0.702823 0.099684
vt 0.703631 0.099684
vt 0.697822 0.098052
vt 0.697015 0.108057
vt 0.698256 0.100106
vt 0.699063 0.098969
vt 0.699357 0.100107
vt 0.697904 0.104234
vt 0.697165 0.099910
vt 0.697904 0.099684
vt 0.704438 0.103297
vt 0.704438 0.099684
vt 0.698256 0.100109
vt 0.698118 0.100853
vt 0.698054 0.100108
vt 0.699357 0.099131
vt 0.700165 0.100268
vt 0.699357 0.100268
vt 0.688335 0.105519
vt 0.705588 0.106560
vt 0.696289 0.104292
vt 0.697026 0.099968
vt 0.697096 0.104313
vt 0.701160 0.116819
vt 0.692294 0.116198
vt 0.697154 0.098969
vt 0.697962 0.100106
vt 0.697154 0.100106
vt 0.689677 0.111468
vt 0.705588 0.112511
vt 0.703471 0.098970
vt 0.702663 0.100106
vt 0.702663 0.098969
vt 0.701721 0.099686
vt 0.702529 0.102746
vt 0.701721 0.102747
vt 0.697183 0.114508
vt 0.695482 0.103113
vt 0.696289 0.099685
vt 0.696289 0.103113
vt 0.695790 0.098969
vt 0.695403 0.100070
vt 0.695408 0.098969
vt 0.696259 0.098980
vt 0.696643 0.100081
vt 0.696263 0.100081
vt 0.699652 0.100268
vt 0.699357 0.101370
vt 0.699363 0.100269
vt 0.697986 0.100856
vt 0.697985 0.100106
vt 0.696642 0.098969
vt 0.697023 0.100078
vt 0.696259 0.100084
vt 0.695781 0.100086
vt 0.692763 0.095337
vt 0.698632 0.098052
vt 0.697822 0.104070
vt 0.697825 0.098052
vt 0.700024 0.104068
vt 0.699217 0.098052
vt 0.700024 0.098052
vt 0.701028 0.100324
vt 0.701562 0.101426
vt 0.701028 0.101426
vt 0.691139 0.100045
vt 0.703256 0.099846
vt 0.691434 0.103165
vt 0.689343 0.107531
vt 0.689343 0.103165
vt 0.688005 0.106142
vt 0.705918 0.105942
vt 0.702843 0.103165
vt 0.700752 0.108138
vt 0.700752 0.103165
vt 0.705918 0.111894
vt 0.699299 0.103007
vt 0.700106 0.099684
vt 0.700106 0.103007
vt 0.690668 0.116819
vt 0.702786 0.116198
vt 0.697139 0.107617
vt 0.695048 0.107617
vt 0.688335 0.099423
vt 0.695785 0.100086
vt 0.695403 0.101187
vt 0.695403 0.100086
vt 0.696168 0.100087
vt 0.695785 0.101188
vt 0.701851 0.101426
vt 0.702141 0.100325
vt 0.702141 0.101427
vt 0.701562 0.100324
vt 0.690904 0.100806
vt 0.690669 0.101018
vt 0.701563 0.099966
vt 0.702663 0.100324
vt 0.700461 0.098969
vt 0.701561 0.099965
vt 0.700461 0.100324
vt 0.702141 0.100472
vt 0.702494 0.101517
vt 0.702234 0.101625
vt 0.699944 0.101459
vt 0.700301 0.100409
vt 0.700208 0.101562
vt 0.698256 0.101208
vt 0.698636 0.100107
vt 0.698636 0.101208
vt 0.699016 0.100107
vt 0.699016 0.101209
vt 0.701630 0.095957
vt 0.701396 0.097817
vt 0.701161 0.098034
vt 0.692995 0.103436
vt 0.694002 0.099728
vt 0.694093 0.103436
vt 0.703369 0.101516
vt 0.703457 0.100415
vt 0.703376 0.101509
vt 0.696168 0.100086
vt 0.696367 0.101182
vt 0.696168 0.101182
vt 0.695189 0.103442
vt 0.694381 0.099685
vt 0.695189 0.099684
vt 0.697537 0.100106
vt 0.697154 0.101208
vt 0.697154 0.100107
vt 0.697919 0.100107
vt 0.697537 0.101208
vt 0.703062 0.100415
vt 0.702864 0.101517
vt 0.702864 0.100416
vt 0.702663 0.101516
vt 0.702663 0.100415
vt 0.697154 0.101182
vt 0.696771 0.100084
vt 0.697154 0.100081
vt 0.696389 0.100082
vt 0.696771 0.101185
vt 0.696389 0.101183
vt 0.697145 0.115526
vt 0.706892 0.094330
vt 0.703953 0.113547
vt 0.706320 0.094330
vt 0.704088 0.113547
vt 0.700914 0.103994
vt 0.696207 0.108060
vt 0.692196 0.107532
vt 0.698194 0.116277
vt 0.693187 0.101229
vt 0.694006 0.098052
vt 0.700495 0.100324
vt 0.695390 0.101229
vt 0.701639 0.105450
vt 0.704573 0.101229
vt 0.696207 0.098052
vt 0.697904 0.103008
vt 0.703606 0.108139
vt 0.700832 0.098052
vt 0.703765 0.101228
vt 0.703490 0.116242
vt 0.700545 0.115523
vt 0.704088 0.101898
vt 0.706320 0.094330
vt 0.706891 0.094330
vt 0.704221 0.113544
vt 0.694739 0.114315
vt 0.703254 0.105447
vt 0.705246 0.099684
vt 0.694005 0.108318
vt 0.697899 0.103165
vt 0.702823 0.103298
vt 0.697822 0.108057
vt 0.698256 0.098969
vt 0.697096 0.104255
vt 0.703631 0.103297
vt 0.698256 0.100857
vt 0.689864 0.105445
vt 0.704248 0.106561
vt 0.696289 0.099684
vt 0.701230 0.114419
vt 0.692376 0.113684
vt 0.698256 0.098969
vt 0.704248 0.112512
vt 0.703765 0.100415
vt 0.702823 0.099684
vt 0.696219 0.114922
vt 0.697154 0.098971
vt 0.696172 0.098972
vt 0.692764 0.097380
vt 0.698924 0.104070
vt 0.696902 0.099283
vt 0.698924 0.104068
vt 0.697706 0.098660
vt 0.702158 0.099846
vt 0.691767 0.100044
vt 0.703256 0.100595
vt 0.692195 0.107531
vt 0.689993 0.106142
vt 0.703932 0.105940
vt 0.703604 0.108138
vt 0.703656 0.111892
vt 0.690269 0.112091
vt 0.690668 0.114983
vt 0.702787 0.114361
vt 0.690363 0.099423
vt 0.703562 0.100467
vt 0.696168 0.101188
vt 0.701851 0.100325
vt 0.691139 0.101017
vt 0.701562 0.098970
vt 0.701562 0.098969
vt 0.702494 0.100324
vt 0.699944 0.100268
vt 0.698256 0.100107
vt 0.701630 0.098034
vt 0.693196 0.099684
vt 0.703062 0.100415
vt 0.696368 0.100086
vt 0.694093 0.103384
vt 0.697919 0.101209
vt 0.703062 0.101516
s 0
usemtl Material
f 29/1/1 22/2/1 30/3/1
f 25/4/2 31/5/2 27/6/2
f 23/7/3 28/8/3 32/9/3
f 34/10/3 21/11/3 22/12/3
f 35/13/3 33/14/3 21/11/3
f 36/15/3 32/9/3 33/14/3
f 24/16/2 27/6/2 28/17/2
f 29/1/4 20/18/4 19/19/4
f 8/20/5 21/21/5 11/22/5
f 5/23/6 23/24/6 14/25/6
f 1/26/7 25/27/7 15/28/7
f 7/29/8 27/30/8 16/31/8
f 2/32/9 29/33/9 19/34/9
f 4/35/10 30/36/10 18/37/10
f 7/29/11 32/38/11 28/39/11
f 9/40/12 33/41/12 32/38/12
f 11/22/13 33/41/13 10/42/13
f 6/43/14 35/44/14 34/45/14
f 12/46/15 36/47/15 35/44/15
f 14/25/16 36/47/16 13/48/16
f 5/23/17 25/27/17 24/49/17
f 16/31/8 31/50/8 3/51/8
f 6/43/18 29/33/18 17/52/18
f 8/20/19 30/36/19 22/53/19
f 2/54/20 73/55/20 17/56/20
f 18/57/21 75/58/21 4/59/21
f 76/60/22 16/61/22 3/62/22
f 84/63/23 1/64/23 15/65/23
f 80/66/24 13/67/24 12/68/24
f 81/69/24 14/70/24 13/67/24
f 82/71/3 5/72/3 14/70/3
f 83/73/23 15/65/23 5/74/23
f 10/75/25 86/76/25 11/77/25
f 9/78/25 85/79/25 10/75/25
f 88/80/22 7/81/22 16/61/22
f 7/82/26 87/83/26 9/78/26
f 8/84/27 90/85/27 18/57/27
f 11/77/25 91/86/25 8/87/25
f 92/88/28 12/68/28 6/89/28
f 73/55/29 6/90/29 17/56/29
f 38/91/30 40/92/30 37/93/30
f 38/94/31 73/95/31 74/96/31
f 38/94/32 184/97/32 182/98/32
f 39/99/33 90/100/33 40/101/33
f 40/101/34 217/102/34 219/103/34
f 42/104/35 88/105/35 76/106/35
f 42/104/36 192/107/36 190/108/36
f 41/109/37 77/110/37 88/105/37
f 44/111/38 196/112/38 198/113/38
f 78/114/39 57/115/39 56/116/39
f 46/117/40 201/118/40 199/119/40
f 47/120/41 84/121/41 45/122/41
f 48/123/42 204/124/42 202/125/42
f 50/126/43 81/127/43 80/128/43
f 50/126/44 211/129/44 212/130/44
f 51/131/45 81/127/45 52/132/45
f 52/132/46 205/133/46 207/134/46
f 51/131/47 78/114/47 82/135/47
f 54/136/48 82/135/48 55/137/48
f 55/137/49 78/114/49 56/116/49
f 54/136/50 84/121/50 83/138/50
f 58/139/51 210/140/51 208/141/51
f 59/142/52 85/143/52 58/139/52
f 60/144/53 77/110/53 61/145/53
f 60/144/54 85/143/54 87/146/54
f 63/147/55 88/105/55 64/148/55
f 64/148/56 77/110/56 65/149/56
f 66/150/57 77/110/57 87/146/57
f 63/147/58 87/146/58 89/151/58
f 67/152/59 216/153/59 214/154/59
f 69/155/60 90/100/60 91/156/60
f 69/155/61 86/157/61 67/152/61
f 71/158/62 80/128/62 92/159/62
f 71/158/63 73/95/63 72/160/63
f 72/160/64 222/161/64 221/162/64
f 50/163/65 58/164/65 49/165/65
f 49/166/66 208/167/66 206/168/66
f 52/169/65 60/170/65 51/171/65
f 42/172/20 45/173/20 41/174/20
f 51/175/67 61/176/67 53/177/67
f 43/178/26 45/179/26 46/180/26
f 43/181/68 199/182/68 197/183/68
f 55/184/69 65/185/69 66/186/69
f 55/187/26 63/188/26 54/189/26
f 54/190/20 64/191/20 57/192/20
f 57/193/3 65/194/3 56/195/3
f 37/196/70 219/197/70 218/198/70
f 70/199/71 214/200/71 215/201/71
f 67/202/65 71/203/65 69/204/65
f 72/205/72 69/206/72 71/207/72
f 19/19/4 115/208/4 114/209/4
f 108/210/26 109/211/26 107/212/26
f 111/213/2 118/214/2 113/215/2
f 116/216/26 118/217/26 112/218/26
f 117/219/26 119/220/26 116/216/26
f 107/212/26 120/221/26 117/219/26
f 26/222/2 113/215/2 31/5/2
f 108/223/73 115/208/73 110/224/73
f 94/225/74 107/226/74 99/227/74
f 96/228/75 109/229/75 110/230/75
f 93/231/7 111/232/7 103/233/7
f 3/51/8 113/234/8 104/235/8
f 94/225/76 114/236/76 108/237/76
f 96/228/77 115/238/77 106/239/77
f 93/231/78 116/240/78 112/241/78
f 97/242/79 117/243/79 116/240/79
f 99/227/80 117/243/80 98/244/80
f 95/245/81 119/246/81 100/247/81
f 100/247/82 120/248/82 101/249/82
f 102/250/83 120/248/83 109/229/83
f 103/233/7 26/251/7 1/26/7
f 95/245/84 113/234/84 118/252/84
f 105/253/9 19/34/9 114/236/9
f 106/239/10 20/254/10 4/35/10
f 150/255/85 105/256/85 94/257/85
f 99/258/86 150/259/86 94/260/86
f 152/261/87 102/262/87 96/263/87
f 106/264/88 152/265/88 96/266/88
f 153/267/22 104/268/22 95/269/22
f 154/270/3 95/271/3 100/272/3
f 155/273/87 100/272/87 101/274/87
f 151/275/87 101/274/87 102/262/87
f 93/276/65 157/277/65 97/278/65
f 160/279/23 93/280/23 103/281/23
f 97/278/86 159/282/86 98/283/86
f 98/283/86 158/284/86 99/258/86
f 79/285/23 103/281/23 1/64/23
f 161/286/22 3/62/22 104/268/22
f 4/59/21 162/287/21 106/264/21
f 105/256/20 74/288/20 2/54/20
f 122/289/24 124/290/24 125/291/24
f 122/292/89 126/293/89 121/294/89
f 122/295/90 149/296/90 150/297/90
f 122/295/91 158/298/91 123/299/91
f 123/299/92 179/300/92 175/301/92
f 125/302/93 151/303/93 152/304/93
f 125/302/94 162/305/94 126/306/94
f 126/306/95 169/307/95 171/308/95
f 128/309/96 161/310/96 153/311/96
f 128/309/97 154/312/97 129/313/97
f 129/313/98 223/314/98 224/315/98
f 130/316/99 155/317/99 131/318/99
f 131/318/100 163/319/100 164/320/100
f 133/321/101 155/317/101 151/303/101
f 133/321/102 180/322/102 177/323/102
f 134/324/103 189/325/103 187/326/103
f 136/327/104 157/328/104 156/329/104
f 136/327/41 160/330/41 134/324/41
f 138/331/105 159/332/105 157/328/105
f 138/331/106 228/333/106 227/334/106
f 139/335/107 159/332/107 140/336/107
f 140/336/108 168/337/108 167/338/108
f 141/339/109 193/340/109 194/341/109
f 141/339/110 160/330/110 79/342/110
f 143/343/55 161/310/55 144/344/55
f 181/345/111 186/346/111 185/347/111
f 146/348/112 162/305/112 75/349/112
f 146/348/113 181/350/113 185/351/113
f 147/352/114 149/296/114 148/353/114
f 148/353/115 174/354/115 173/355/115
f 128/356/3 135/357/3 136/358/3
f 128/359/20 134/360/20 127/361/20
f 130/362/24 137/363/24 138/364/24
f 225/365/116 138/366/116 227/367/116
f 141/368/20 144/369/20 142/370/20
f 132/371/24 139/372/24 140/165/24
f 165/373/117 140/374/117 167/375/117
f 121/376/118 171/377/118 170/378/118
f 148/379/30 146/370/30 147/380/30
f 170/381/119 169/382/119 174/383/119
f 164/384/120 137/385/120 131/386/120
f 137/387/121 168/337/121 159/332/121
f 132/388/122 163/319/122 155/317/122
f 148/389/123 172/390/123 145/391/123
f 145/392/124 169/307/124 162/305/124
f 121/393/125 174/354/125 149/296/125
f 177/394/126 139/395/126 133/396/126
f 178/397/127 158/298/127 139/335/127
f 124/398/128 180/322/128 151/303/128
f 123/399/129 176/400/129 124/401/129
f 185/402/65 147/403/65 146/404/65
f 186/405/130 74/96/130 147/352/130
f 39/99/131 181/350/131 75/349/131
f 38/406/24 183/407/24 39/408/24
f 180/409/132 178/410/132 177/411/132
f 167/412/133 163/413/133 165/414/133
f 184/415/134 183/416/134 182/417/134
f 174/383/135 172/418/135 173/419/135
f 168/420/136 164/421/136 163/413/136
f 180/409/137 175/422/137 179/423/137
f 142/424/138 189/325/138 160/330/138
f 141/425/26 195/426/26 143/427/26
f 143/343/139 192/107/139 76/106/139
f 190/428/3 47/429/3 42/430/3
f 47/120/140 193/340/140 79/342/140
f 44/431/67 200/432/67 48/433/67
f 48/123/141 201/118/141 78/114/141
f 43/434/142 196/112/142 77/110/142
f 53/435/143 204/124/143 78/114/143
f 52/436/120 209/437/120 62/438/120
f 62/439/144 210/140/144 85/143/144
f 49/440/145 205/133/145 81/127/145
f 50/441/126 213/442/126 59/443/126
f 70/444/146 211/129/146 80/128/146
f 59/142/147 216/153/147 86/157/147
f 72/445/148 220/446/148 68/447/148
f 68/448/149 217/102/149 90/100/149
f 37/449/150 222/161/150 73/95/150
f 224/168/69 135/450/69 129/451/69
f 135/452/151 228/333/151 157/328/151
f 130/316/152 223/314/152 154/312/152
f 196/453/153 200/454/153 198/455/153
f 197/456/154 201/457/154 196/453/154
f 193/458/155 195/459/155 194/460/155
f 190/461/156 193/458/156 191/432/156
f 61/145/157 231/462/157 230/463/157
f 44/111/158 231/462/158 77/110/158
f 229/464/26 48/401/26 202/465/26
f 53/466/3 230/467/3 203/468/3
f 230/469/159 204/470/159 203/471/159
f 204/472/160 229/473/160 202/474/160
f 206/475/161 210/476/161 205/477/161
f 205/477/162 209/478/162 207/479/162
f 127/480/163 234/481/163 161/310/163
f 144/344/164 234/481/164 233/482/164
f 232/483/26 134/484/26 187/485/26
f 189/486/165 232/487/165 187/488/165
f 233/489/166 189/490/166 188/491/166
f 233/492/3 142/493/3 144/494/3
f 216/495/167 215/496/167 214/497/167
f 213/498/168 211/499/168 216/495/168
f 218/500/169 217/501/169 222/502/169
f 222/502/170 220/503/170 221/504/170
f 227/505/171 223/506/171 225/507/171
f 224/508/172 228/509/172 226/510/172
f 45/122/173 78/114/173 46/117/173
f 29/1/1 34/511/1 22/2/1
f 25/4/2 26/222/2 31/5/2
f 23/7/3 24/218/3 28/8/3
f 34/10/3 35/13/3 21/11/3
f 35/13/3 36/15/3 33/14/3
f 36/15/3 23/7/3 32/9/3
f 24/16/2 25/4/2 27/6/2
f 29/1/4 30/3/4 20/18/4
f 8/20/19 22/53/19 21/21/19
f 5/23/174 24/49/174 23/24/174
f 1/26/7 26/251/7 25/27/7
f 7/29/8 28/39/8 27/30/8
f 2/32/9 17/52/9 29/33/9
f 4/35/10 20/254/10 30/36/10
f 7/29/175 9/40/175 32/38/175
f 9/40/176 10/42/176 33/41/176
f 11/22/177 21/21/177 33/41/177
f 6/43/178 12/46/178 35/44/178
f 12/46/179 13/48/179 36/47/179
f 14/25/180 23/24/180 36/47/180
f 5/23/7 15/28/7 25/27/7
f 16/31/8 27/30/8 31/50/8
f 6/43/14 34/45/14 29/33/14
f 8/20/181 18/37/181 30/36/181
f 2/54/20 74/288/20 73/55/20
f 18/57/21 90/85/21 75/58/21
f 76/60/22 88/80/22 16/61/22
f 84/63/23 79/285/23 1/64/23
f 80/66/24 81/69/24 13/67/24
f 81/69/3 82/71/3 14/70/3
f 82/71/3 83/512/3 5/72/3
f 83/73/23 84/63/23 15/65/23
f 10/75/25 85/79/25 86/76/25
f 9/78/26 87/83/26 85/79/26
f 88/80/22 89/513/22 7/81/22
f 7/82/26 89/514/26 87/83/26
f 8/84/27 91/269/27 90/85/27
f 11/77/25 86/76/25 91/86/25
f 92/88/24 80/66/24 12/68/24
f 73/55/29 92/515/29 6/90/29
f 38/91/30 39/516/30 40/92/30
f 38/94/182 37/449/182 73/95/182
f 38/94/183 74/96/183 184/97/183
f 39/99/184 75/349/184 90/100/184
f 40/101/185 90/100/185 217/102/185
f 42/104/186 41/109/186 88/105/186
f 42/104/187 76/106/187 192/107/187
f 41/109/188 43/434/188 77/110/188
f 44/111/189 77/110/189 196/112/189
f 78/114/190 84/121/190 57/115/190
f 46/117/110 78/114/110 201/118/110
f 47/120/191 79/342/191 84/121/191
f 48/123/179 78/114/179 204/124/179
f 50/126/192 49/440/192 81/127/192
f 50/126/193 80/128/193 211/129/193
f 51/131/194 82/135/194 81/127/194
f 52/132/195 81/127/195 205/133/195
f 51/131/196 53/435/196 78/114/196
f 54/136/197 83/138/197 82/135/197
f 55/137/198 82/135/198 78/114/198
f 54/136/199 57/115/199 84/121/199
f 58/139/200 85/143/200 210/140/200
f 59/142/201 86/157/201 85/143/201
f 60/144/202 87/146/202 77/110/202
f 60/144/203 62/439/203 85/143/203
f 63/147/204 89/151/204 88/105/204
f 64/148/205 88/105/205 77/110/205
f 66/150/206 65/149/206 77/110/206
f 63/147/207 66/150/207 87/146/207
f 67/152/208 86/157/208 216/153/208
f 69/155/209 68/448/209 90/100/209
f 69/155/210 91/156/210 86/157/210
f 71/158/211 70/444/211 80/128/211
f 71/158/212 92/159/212 73/95/212
f 72/160/213 73/95/213 222/161/213
f 50/163/65 59/517/65 58/164/65
f 49/166/214 58/518/214 208/167/214
f 52/169/65 62/519/65 60/170/65
f 42/172/20 47/92/20 45/173/20
f 51/175/215 60/520/215 61/176/215
f 43/178/26 41/521/26 45/179/26
f 43/181/68 46/522/68 199/182/68
f 55/184/68 56/523/68 65/185/68
f 55/187/26 66/524/26 63/188/26
f 54/190/20 63/525/20 64/191/20
f 57/193/3 64/526/3 65/194/3
f 37/196/70 40/527/70 219/197/70
f 70/199/129 67/528/129 214/200/129
f 67/202/65 70/529/65 71/203/65
f 72/205/72 68/530/72 69/206/72
f 19/19/4 20/18/4 115/208/4
f 108/210/26 110/531/26 109/211/26
f 111/213/2 112/532/2 118/214/2
f 116/216/26 119/220/26 118/217/26
f 117/219/26 120/221/26 119/220/26
f 107/212/26 109/211/26 120/221/26
f 26/222/2 111/213/2 113/215/2
f 108/223/73 114/209/73 115/208/73
f 94/225/216 108/237/216 107/226/216
f 96/228/217 102/250/217 109/229/217
f 93/231/218 112/241/218 111/232/218
f 3/51/8 31/50/8 113/234/8
f 94/225/219 105/253/219 114/236/219
f 96/228/220 110/230/220 115/238/220
f 93/231/221 97/242/221 116/240/221
f 97/242/222 98/244/222 117/243/222
f 99/227/223 107/226/223 117/243/223
f 95/245/224 118/252/224 119/246/224
f 100/247/225 119/246/225 120/248/225
f 102/250/226 101/249/226 120/248/226
f 103/233/7 111/232/7 26/251/7
f 95/245/8 104/235/8 113/234/8
f 105/253/9 2/32/9 19/34/9
f 106/239/10 115/238/10 20/254/10
f 150/255/85 149/533/85 105/256/85
f 99/258/86 158/284/86 150/259/86
f 152/261/87 151/275/87 102/262/87
f 106/264/227 162/287/227 152/265/227
f 153/267/22 161/286/22 104/268/22
f 154/270/3 153/534/3 95/271/3
f 155/273/3 154/270/3 100/272/3
f 151/275/87 155/273/87 101/274/87
f 93/276/26 156/535/26 157/277/26
f 160/279/23 156/536/23 93/280/23
f 97/278/65 157/277/65 159/282/65
f 98/283/86 159/282/86 158/284/86
f 79/285/23 160/279/23 103/281/23
f 161/286/22 76/60/22 3/62/22
f 4/59/21 75/58/21 162/287/21
f 105/256/20 149/533/20 74/288/20
f 122/289/24 123/529/24 124/290/24
f 122/292/89 125/537/89 126/293/89
f 122/295/228 121/393/228 149/296/228
f 122/295/229 150/297/229 158/298/229
f 123/299/230 158/298/230 179/300/230
f 125/302/231 124/398/231 151/303/231
f 125/302/232 152/304/232 162/305/232
f 126/306/233 162/305/233 169/307/233
f 128/309/186 127/480/186 161/310/186
f 128/309/234 153/311/234 154/312/234
f 129/313/235 154/312/235 223/314/235
f 130/316/236 154/312/236 155/317/236
f 131/318/237 155/317/237 163/319/237
f 133/321/101 132/388/101 155/317/101
f 133/321/52 151/303/52 180/322/52
f 134/324/238 160/330/238 189/325/238
f 136/327/239 135/452/239 157/328/239
f 136/327/240 156/329/240 160/330/240
f 138/331/241 137/387/241 159/332/241
f 138/331/242 157/328/242 228/333/242
f 139/335/107 158/298/107 159/332/107
f 140/336/243 159/332/243 168/337/243
f 141/339/244 79/342/244 193/340/244
f 141/339/199 142/424/199 160/330/199
f 143/343/142 76/106/142 161/310/142
f 181/345/245 184/415/245 186/346/245
f 146/348/246 145/392/246 162/305/246
f 146/348/247 75/349/247 181/350/247
f 147/352/248 74/96/248 149/296/248
f 148/353/249 149/296/249 174/354/249
f 128/356/3 129/538/3 135/357/3
f 128/359/20 136/539/20 134/360/20
f 130/362/24 131/540/24 137/363/24
f 225/365/250 130/541/250 138/366/250
f 141/368/20 143/542/20 144/369/20
f 132/371/24 133/543/24 139/372/24
f 165/373/214 132/544/214 140/374/214
f 121/376/251 126/545/251 171/377/251
f 148/379/30 145/546/30 146/370/30
f 170/381/252 171/547/252 169/382/252
f 164/384/253 166/466/253 137/385/253
f 137/387/254 166/548/254 168/337/254
f 132/388/255 165/549/255 163/319/255
f 148/389/256 173/550/256 172/390/256
f 145/392/257 172/551/257 169/307/257
f 121/393/258 170/552/258 174/354/258
f 177/394/259 178/553/259 139/395/259
f 178/397/260 179/300/260 158/298/260
f 124/398/261 176/554/261 180/322/261
f 123/399/262 175/555/262 176/400/262
f 185/402/263 186/556/263 147/403/263
f 186/405/264 184/97/264 74/96/264
f 39/99/265 183/557/265 181/350/265
f 38/406/24 182/494/24 183/407/24
f 180/409/266 179/423/266 178/410/266
f 167/412/267 168/420/267 163/413/267
f 184/415/268 181/345/268 183/416/268
f 174/383/269 169/382/269 172/418/269
f 168/420/270 166/558/270 164/421/270
f 180/409/271 176/559/271 175/422/271
f 142/424/272 188/560/272 189/325/272
f 141/425/26 194/561/26 195/426/26
f 143/343/273 195/562/273 192/107/273
f 190/428/3 191/563/3 47/429/3
f 47/120/274 191/564/274 193/340/274
f 44/431/67 198/461/67 200/432/67
f 48/123/275 200/565/275 201/118/275
f 43/434/276 197/566/276 196/112/276
f 53/435/143 203/567/143 204/124/143
f 52/436/259 207/568/259 209/437/259
f 62/439/100 209/569/100 210/140/100
f 49/440/277 206/570/277 205/133/277
f 50/441/278 212/571/278 213/442/278
f 70/444/279 215/572/279 211/129/279
f 59/142/147 213/573/147 216/153/147
f 72/445/148 221/198/148 220/446/148
f 68/448/34 220/574/34 217/102/34
f 37/449/280 218/575/280 222/161/280
f 224/168/281 226/541/281 135/450/281
f 135/452/282 226/576/282 228/333/282
f 130/316/283 225/577/283 223/314/283
f 196/453/284 201/457/284 200/454/284
f 197/456/285 199/578/285 201/457/285
f 193/458/286 192/579/286 195/459/286
f 190/461/287 192/579/287 193/458/287
f 61/145/157 77/110/157 231/462/157
f 44/111/158 229/580/158 231/462/158
f 229/464/26 44/581/26 48/401/26
f 53/466/3 61/582/3 230/467/3
f 230/469/288 231/583/288 204/470/288
f 204/472/289 231/584/289 229/473/289
f 206/475/161 208/585/161 210/476/161
f 205/477/162 210/476/162 209/478/162
f 127/480/163 232/586/163 234/481/163
f 144/344/164 161/310/164 234/481/164
f 232/483/26 127/587/26 134/484/26
f 189/486/290 234/588/290 232/487/290
f 233/489/291 234/589/291 189/490/291
f 233/492/3 188/590/3 142/493/3
f 216/495/292 211/499/292 215/496/292
f 213/498/168 212/591/168 211/499/168
f 218/500/169 219/592/169 217/501/169
f 222/502/170 217/501/170 220/503/170
f 227/505/293 228/509/293 223/506/293
f 224/508/294 223/506/294 228/509/294
f 45/122/295 84/121/295 78/114/295
g window_panel_2.001_Mesh
v -0.059773 1.609723 -0.085299
v -0.403157 1.713377 -0.021325
v -0.509409 1.556028 -0.085299
v 0.803748 1.713961 0.005583
v -0.518442 0.391062 0.003248
v 0.803748 0.160199 0.039096
v 0.803748 1.713961 0.065935
v -0.450473 1.673339 -0.085299
v 0.803748 0.160199 0.050522
v -0.101456 1.726153 -0.021325
v -0.520378 0.449570 0.028887
v -0.510629 1.497135 -0.052496
v 0.175498 1.630930 -0.085299
v 0.390212 1.614809 -0.110379
v -0.363749 0.553560 -0.058123
v -0.274976 0.661769 -0.046513
v -0.229397 0.632236 -0.046513
v 0.060072 0.248743 -0.021325
v 0.234141 0.331820 -0.085299
v 0.439688 0.210345 -0.021325
v -0.454048 1.620811 -0.073873
v -0.367515 1.695033 0.003881
v -0.134458 1.714918 0.025144
v -0.043086 1.605234 -0.035563
v 0.223783 1.595327 -0.073873
v 0.403381 1.598466 -0.070022
v -0.378086 0.566126 -0.000834
v -0.283912 0.704959 -0.035087
v -0.220130 0.646827 -0.035087
v 0.023704 0.243898 0.000064
v 0.246796 0.322749 -0.063357
v 0.386866 0.175221 0.001816
v 0.803748 1.631767 0.039096
v 0.904604 0.686961 0.039096
v 0.803748 0.428783 0.039096
v 0.803748 0.242393 0.039096
v -0.765537 1.598823 -0.021325
v -0.914964 0.994926 0.021991
v -0.759326 0.686156 -0.046513
v -0.518039 0.663913 -0.046513
v 0.803748 1.631767 0.050522
v 0.904604 0.686961 0.050522
v 0.803748 0.428783 0.050522
v 0.803748 0.242393 0.050522
v -0.736046 1.605827 -0.009899
v -0.914228 0.998265 0.050932
v -0.704365 0.664561 -0.035087
v -0.532785 0.616054 -0.035087
v 0.474547 1.264690 -0.070756
v 0.735169 0.834185 0.021428
v 0.601606 0.593267 -0.073873
v 0.521165 0.368011 -0.073873
v 0.693830 0.864973 0.015715
v 0.553560 0.575816 -0.079586
v 0.567987 0.387856 -0.085299
v 0.601606 0.593267 -0.085299
v 0.710782 0.846442 0.010002
v 0.433532 1.288912 -0.102330
v 0.382417 1.266009 -0.096617
v 0.471985 0.385113 -0.079586
v 0.381002 0.250536 -0.015612
v 0.196817 0.367029 -0.072562
v 0.027756 0.353686 -0.015612
v -0.220623 0.679871 -0.040800
v -0.273673 0.759413 -0.040800
v -0.368007 0.652874 -0.036577
v -0.489184 0.498958 0.007044
v -0.487879 0.692245 -0.040800
v -0.651108 0.710385 -0.040800
v -0.861688 0.988965 0.045219
v -0.725452 1.552494 -0.015612
v -0.469771 1.475122 -0.079586
v -0.343071 1.582792 -0.079586
v -0.349065 1.666055 -0.015612
v -0.167217 1.669357 -0.008680
v -0.056641 1.511416 -0.079586
v 0.204713 1.559602 -0.079586
v 0.367409 1.565862 -0.104666
v -0.526435 1.818156 0.039096
v -0.362942 1.818156 0.039096
v 0.980837 0.242393 0.039096
v 0.980837 0.056003 0.039096
v -0.216643 1.818156 0.039096
v -0.038187 1.818156 0.039096
v -1.023874 0.242393 0.039095
v -1.023874 0.056003 0.039095
v 0.318726 1.818156 0.026229
v 0.980837 1.818156 0.026229
v 0.318726 0.056003 0.039096
v -1.023874 1.818156 0.039095
v 0.980837 0.242393 0.050522
v 0.980837 0.056003 0.050522
v -1.023874 0.242393 0.050522
v -1.023874 0.056003 0.050522
v 0.318726 1.818156 0.068250
v 0.980837 1.818156 0.068250
v 0.318726 0.056003 0.050522
v 0.140270 1.818156 0.039096
v -0.526435 0.056003 0.039095
v -0.362942 0.056003 0.039095
v -0.216643 0.056003 0.039095
v -0.038187 0.056003 0.039096
v 0.140270 0.056003 0.039096
v -1.023874 1.818156 0.050522
v -0.526435 1.818156 0.050522
v -0.362942 1.818156 0.050522
v -0.216643 1.818156 0.050522
v -0.038187 1.818156 0.050522
v 0.140270 1.818156 0.050522
v -0.526435 0.056003 0.050522
v -0.362942 0.056003 0.050522
v -0.202775 0.050574 0.060484
v -0.024319 0.050574 0.060484
v 0.140270 0.056003 0.050522
v 0.980837 1.631767 0.039096
v 0.980837 0.684541 0.039096
v 0.980837 0.428783 0.039096
v -1.023874 1.631767 0.039095
v -1.019273 0.683008 0.025217
v -1.023874 0.428783 0.039095
v 0.980837 1.631767 0.050522
v 0.980837 0.684541 0.050522
v 0.980837 0.428783 0.050522
v -1.023874 1.631767 0.050522
v -1.023874 0.684541 0.050522
v -1.023874 0.428783 0.050522
vn -1.0000 -0.0000 -0.0000
vn -0.0000 1.0000 -0.0000
vn -0.0000 -1.0000 -0.0000
vn 1.0000 -0.0000 -0.0000
vn -0.0000 -0.9693 -0.2460
vn -0.4029 -0.0000 0.9152
vn 0.1846 -0.4486 -0.8745
vn -0.1517 -0.0446 -0.9874
vn -0.0020 -0.7272 0.6864
vn 0.1303 -0.2240 0.9658
vn -0.0218 -0.4221 0.9063
vn -0.0241 -0.5847 0.8109
vn -0.1599 -0.6190 0.7689
vn 0.0366 -0.0431 0.9984
vn -0.1371 -0.8598 0.4918
vn 0.3882 -0.0216 0.9213
vn 0.0693 -0.2079 0.9757
vn 0.0264 0.0934 0.9953
vn -0.2762 0.2327 0.9325
vn -0.2583 0.5225 0.8126
vn -0.2594 0.3935 0.8820
vn 0.1214 0.0810 0.9893
vn 0.1252 0.1708 0.9773
vn 0.3305 -0.3563 -0.8740
vn 0.3637 -0.0086 -0.9315
vn 0.3140 0.2129 -0.9252
vn 0.4758 -0.0779 -0.8761
vn 0.3080 0.1233 0.9433
vn 0.5424 0.8188 -0.1881
vn 0.1980 0.2356 0.9515
vn -0.1352 0.0483 0.9896
vn 0.0377 0.2310 0.9722
vn -0.2863 -0.2110 0.9346
vn -0.2701 0.0123 0.9628
vn -0.1202 -0.0597 -0.9910
vn 0.0137 -0.0743 -0.9971
vn -0.6032 -0.0654 -0.7949
vn 0.0097 -0.2279 -0.9736
vn 0.5137 0.5033 -0.6949
vn 0.0373 -0.0188 -0.9991
vn -0.2969 -0.2112 -0.9312
vn 0.0462 -0.0828 -0.9955
vn 0.4045 0.3877 -0.8283
vn 0.0152 0.1647 -0.9862
vn 0.3809 -0.2246 -0.8969
vn -0.5111 0.1683 -0.8429
vn -0.1233 0.2053 -0.9709
vn -0.2702 -0.1775 0.9463
vn -0.1859 -0.0198 0.9824
vn -0.4174 0.1631 0.8940
vn -0.9998 0.0181 -0.0000
vn -0.9839 -0.0022 -0.1788
vn 0.0856 0.0571 -0.9947
vn 0.2035 0.0796 -0.9758
vn -0.3157 -0.0456 -0.9478
vn -0.4867 -0.3864 0.7835
vn -0.2682 -0.2597 -0.9277
vn -0.0601 0.0257 -0.9979
vn 0.0098 -0.2626 -0.9648
vn -0.2536 0.4115 -0.8754
vn -0.0000 0.4995 -0.8663
vn -0.0000 -0.0000 -1.0000
vn 0.0881 0.5037 -0.8593
vn -0.0170 -0.1794 -0.9836
vn -0.0000 0.1944 -0.9809
vn 0.0911 -0.4241 -0.9010
vn -0.6107 0.3068 -0.7301
vn -0.0000 -0.0000 1.0000
vn -0.0224 0.5290 -0.8483
vn 0.0429 -0.0000 0.9991
vn -0.1166 -0.5608 0.8197
vn -0.0571 0.5428 -0.8379
vn -0.0000 0.5534 -0.8329
vn -0.0000 -0.1064 -0.9943
vn -0.0000 -0.1918 -0.9814
vn -0.0827 -0.1277 -0.9884
vn -0.1112 -0.1484 -0.9827
vn -0.0000 -0.2991 -0.9542
vn -0.0000 -0.4111 -0.9116
vn -0.0000 -0.3056 0.9522
vn -0.2147 -0.5760 0.7888
vn -0.0000 -0.3542 0.9352
vn -0.0000 -0.2387 0.9711
vn -0.0000 -0.3748 0.9271
vn -0.0850 -0.5098 0.8561
vn 0.1635 0.0516 0.9852
vn 0.2009 0.1040 0.9741
vn -0.0560 0.1564 0.9861
vn -0.0000 0.2983 0.9545
vn 0.1444 0.3392 0.9296
vn -0.0000 0.3782 0.9257
vn -0.0000 -0.3775 -0.9260
vn -0.2458 -0.0226 -0.9691
vn -0.2293 -0.0131 -0.9733
vn -0.2661 0.0790 -0.9607
vn -0.3079 -0.0000 -0.9514
vn 0.0427 -0.0946 0.9946
vn 0.2054 -0.0000 0.9787
vn -0.0037 -0.0000 1.0000
vn 0.2588 -0.0000 0.9659
vn 0.0465 0.1646 0.9853
vn -0.0183 -0.9719 -0.2348
vn 0.0330 -0.9995 -0.0000
vn -0.0905 0.4180 0.9039
vn 0.1637 -0.0000 -0.9865
vn -0.0970 -0.0316 -0.9948
vn 0.1569 -0.2371 0.9587
vn 0.0798 -0.4329 0.8979
vn -0.1013 -0.5450 0.8323
vn -0.0211 -0.5672 0.8233
vn -0.1684 -0.6082 0.7757
vn 0.5166 -0.0891 0.8516
vn 0.1497 -0.0759 0.9858
vn 0.1213 0.0775 0.9896
vn 0.2184 -0.1334 0.9667
vn 0.0078 0.0702 0.9975
vn 0.0763 0.3626 0.9288
vn -0.1731 0.3923 0.9034
vn -0.0925 0.1211 0.9883
vn 0.1554 0.1705 0.9730
vn 0.0854 0.1377 0.9868
vn 0.3391 0.0218 -0.9405
vn 0.1624 0.0173 -0.9866
vn 0.4174 -0.1631 -0.8940
vn 0.4667 -0.0000 -0.8844
vn 0.1396 0.3501 0.9263
vn 0.5756 0.7378 -0.3526
vn 0.0363 0.4089 0.9118
vn -0.1005 0.0430 0.9940
vn -0.2690 0.0604 0.9613
vn 0.0009 -0.3134 0.9496
vn -0.6216 -0.1342 0.7718
vn -0.1457 -0.1381 -0.9796
vn 0.0052 -0.0578 -0.9983
vn -0.4314 0.3109 -0.8469
vn 0.0393 -0.0753 -0.9964
vn 0.4994 0.5502 -0.6692
vn 0.0423 -0.0497 -0.9979
vn -0.2819 -0.3539 -0.8918
vn 0.3747 -0.1886 -0.9078
vn -0.0134 0.2858 -0.9582
vn 0.0197 0.1774 -0.9839
vn 0.6215 -0.1414 -0.7705
vn -0.5094 0.1615 -0.8452
vn -0.1116 0.0595 -0.9920
vn -0.2830 -0.0624 0.9571
vn -0.3408 -0.0050 0.9401
vn -0.3227 -0.1881 0.9276
vn -0.4254 0.1519 0.8922
vn -0.9839 -0.0000 -0.1789
vn 0.0689 0.1063 -0.9919
vn 0.2573 0.1314 -0.9574
vn -0.3376 -0.0174 -0.9411
vn -0.2298 0.2024 0.9520
vn -0.0477 -0.3079 -0.9502
vn -0.1254 0.0205 -0.9919
vn -0.7381 -0.5586 -0.3784
vn 0.0477 0.3338 -0.9414
vn 0.2814 0.7059 -0.6500
vn -0.0000 0.5489 -0.8359
vn -0.0707 -0.0000 -0.9975
vn 0.0894 0.5769 -0.8119
vn -0.0000 0.4287 -0.9034
vn -0.1040 0.3500 0.9310
vn -0.0000 -0.0222 0.9998
vn -0.0903 0.4205 0.9028
vn -0.0603 0.5445 -0.8366
vn -0.0465 0.5155 -0.8556
vn -0.2787 -0.0956 -0.9556
vn 0.3399 -0.1798 -0.9231
vn -0.0000 -0.1470 -0.9891
vn -0.1671 -0.3575 -0.9188
vn 0.0500 -0.3978 -0.9161
vn 0.6849 -0.1918 0.7029
vn -0.0629 -0.2852 0.9564
vn 0.1593 -0.3732 0.9140
vn 0.1102 -0.4527 0.8848
vn -0.0088 -0.5351 0.8448
vn -0.0000 0.0549 0.9985
vn -0.0000 0.1002 0.9950
vn 0.1068 0.1172 0.9873
vn 0.1242 0.1606 0.9792
vn 0.0484 0.2870 0.9567
vn -0.0101 0.3960 0.9182
vn 0.1549 -0.0680 -0.9856
vn -0.2277 -0.0000 -0.9737
vn -0.0734 0.0142 -0.9972
vn -0.2652 -0.0478 -0.9630
vn -0.0166 -0.1799 -0.9836
vn -0.0000 -0.1843 0.9829
vn 0.1473 -0.0808 0.9858
vn 0.2085 0.0367 0.9773
vn 0.2525 -0.0895 0.9634
vt 0.509324 0.996343
vt 0.509344 0.996005
vt 0.509344 0.996343
vt 0.510473 0.984848
vt 0.510453 0.983945
vt 0.510473 0.983945
vt 0.530222 0.962545
vt 0.530202 0.961642
vt 0.530222 0.961642
vt 0.530222 0.963107
vt 0.530202 0.962841
vt 0.530222 0.962841
vt 0.530222 0.965280
vt 0.530202 0.964078
vt 0.530222 0.964078
vt 0.530202 0.962545
vt 0.510497 0.981210
vt 0.510541 0.981548
vt 0.510520 0.981548
vt 0.530222 0.963431
vt 0.530183 0.963132
vt 0.530222 0.963754
vt 0.530183 0.963456
vt 0.530202 0.963754
vt 0.510497 0.982412
vt 0.510420 0.981210
vt 0.510453 0.982735
vt 0.510420 0.982412
vt 0.510473 0.983059
vt 0.510473 0.982735
vt 0.510473 0.983383
vt 0.510453 0.983059
vt 0.510473 0.983649
vt 0.510453 0.983383
vt 0.510453 0.983649
vt 0.514317 0.978082
vt 0.513935 0.977565
vt 0.514084 0.977565
vt 0.540061 0.973885
vt 0.540111 0.974549
vt 0.539782 0.974320
vt 0.538149 0.974561
vt 0.537647 0.974680
vt 0.537558 0.974639
vt 0.516543 0.978621
vt 0.516491 0.978362
vt 0.516549 0.978295
vt 0.516559 0.979104
vt 0.516478 0.978656
vt 0.516674 0.979328
vt 0.516391 0.979130
vt 0.516720 0.979691
vt 0.516756 0.979268
vt 0.516589 0.979851
vt 0.516668 0.979659
vt 0.516325 0.979880
vt 0.516520 0.979650
vt 0.516363 0.979953
vt 0.516462 0.980342
vt 0.515454 0.980682
vt 0.516559 0.980361
vt 0.514852 0.980304
vt 0.515437 0.980587
vt 0.514764 0.979993
vt 0.514935 0.980207
vt 0.514550 0.979912
vt 0.514903 0.979911
vt 0.514672 0.979711
vt 0.514459 0.979968
vt 0.514926 0.979541
vt 0.514831 0.979694
vt 0.514880 0.979426
vt 0.515025 0.979523
vt 0.514820 0.979425
vt 0.514288 0.978975
vt 0.537545 0.973878
vt 0.537392 0.973880
vt 0.538963 0.974052
vt 0.539256 0.973699
vt 0.539410 0.974258
vt 0.539723 0.973884
vt 0.514088 0.978982
vt 0.514314 0.978670
vt 0.521153 0.989566
vt 0.521111 0.989274
vt 0.521152 0.989175
vt 0.514101 0.978334
vt 0.513964 0.978323
vt 0.514694 0.978023
vt 0.514725 0.977936
vt 0.515943 0.978166
vt 0.515215 0.977765
vt 0.515159 0.977690
vt 0.515947 0.978334
vt 0.537531 0.975026
vt 0.537748 0.975447
vt 0.537661 0.974973
vt 0.537471 0.975642
vt 0.537570 0.975453
vt 0.537390 0.976070
vt 0.537367 0.975523
vt 0.537476 0.975972
vt 0.537455 0.976161
vt 0.537619 0.975966
vt 0.537667 0.976268
vt 0.537682 0.976655
vt 0.537814 0.976197
vt 0.538696 0.976999
vt 0.537597 0.976728
vt 0.538710 0.976900
vt 0.539247 0.976723
vt 0.539204 0.976526
vt 0.539287 0.976286
vt 0.539592 0.976230
vt 0.539236 0.976230
vt 0.539485 0.976007
vt 0.539787 0.976284
vt 0.539308 0.976013
vt 0.539291 0.975845
vt 0.516604 0.977565
vt 0.516753 0.977564
vt 0.514890 0.977382
vt 0.514422 0.977565
vt 0.510520 0.984070
vt 0.510541 0.984408
vt 0.510520 0.984408
vt 0.510520 0.983731
vt 0.510541 0.984070
vt 0.510520 0.983267
vt 0.510541 0.983731
vt 0.510541 0.983267
vt 0.509324 0.999202
vt 0.509344 0.998864
vt 0.509344 0.999202
vt 0.509324 0.998864
vt 0.509344 0.998526
vt 0.509324 0.998526
vt 0.509370 0.998065
vt 0.509324 0.998062
vt 0.539259 0.975746
vt 0.539115 0.975842
vt 0.539852 0.975295
vt 0.539344 0.975762
vt 0.539822 0.974993
vt 0.540042 0.975237
vt 0.514234 0.978579
vt 0.539788 0.974494
vt 0.540039 0.974655
vt 0.539443 0.974345
vt 0.538931 0.974083
vt 0.538191 0.974653
vt 0.537207 0.976289
vt 0.537207 0.975992
vt 0.540209 0.973885
vt 0.540061 0.973563
vt 0.540398 0.973564
vt 0.537207 0.975404
vt 0.540061 0.977199
vt 0.537206 0.974757
vt 0.537206 0.973557
vt 0.540398 0.974765
vt 0.514084 0.977243
vt 0.537207 0.975727
vt 0.514082 0.980881
vt 0.513744 0.980881
vt 0.516941 0.978444
vt 0.513745 0.978445
vt 0.513746 0.977243
vt 0.537207 0.975080
vt 0.540398 0.976297
vt 0.540398 0.977199
vt 0.540398 0.976001
vt 0.540398 0.975736
vt 0.540398 0.975089
vt 0.540398 0.975412
vt 0.539884 0.974926
vt 0.516942 0.979978
vt 0.516941 0.980881
vt 0.516942 0.979416
vt 0.516942 0.979682
vt 0.516942 0.979092
vt 0.516942 0.978768
vt 0.513745 0.979978
vt 0.513745 0.979682
vt 0.513735 0.979391
vt 0.513735 0.979067
vt 0.513745 0.978768
vt 0.537545 0.973557
vt 0.539260 0.973561
vt 0.539723 0.973563
vt 0.537207 0.977191
vt 0.537545 0.977192
vt 0.539261 0.977189
vt 0.539723 0.977198
vt 0.516605 0.977243
vt 0.516942 0.977243
vt 0.514422 0.977243
vt 0.514886 0.977243
vt 0.516603 0.980881
vt 0.514885 0.980881
vt 0.514421 0.980881
vt 0.509324 0.996005
vt 0.510453 0.984848
vt 0.530202 0.965280
vt 0.510573 0.981210
vt 0.521111 0.989624
vt 0.514348 0.978171
s 0
usemtl Material
f 358/593/296 324/594/296 352/595/296
f 324/596/297 339/597/297 313/598/297
f 333/599/298 328/600/298 320/601/298
f 335/602/298 345/603/298 334/604/298
f 316/605/298 331/606/298 323/607/298
f 334/604/298 344/608/298 333/599/298
f 322/609/299 355/610/299 349/611/299
f 336/612/300 346/613/300 335/602/300
f 337/614/300 347/615/300 336/612/300
f 323/607/298 348/616/298 337/614/298
f 321/617/297 330/618/297 322/609/297
f 321/617/297 343/619/297 329/620/297
f 318/621/297 343/619/297 332/622/297
f 317/623/297 342/624/297 318/621/297
f 314/625/297 341/626/297 317/623/297
f 313/598/297 340/627/297 314/625/297
f 286/628/301 243/629/301 278/630/301
f 270/631/302 254/632/302 289/633/302
f 292/634/303 312/635/303 248/636/303
f 259/637/304 312/638/304 260/639/304
f 258/640/305 311/641/305 259/637/305
f 258/640/306 309/642/306 310/643/306
f 256/644/307 309/642/307 257/645/307
f 255/646/308 308/647/308 256/644/308
f 255/646/309 306/648/309 307/649/309
f 246/650/310 305/651/310 306/648/310
f 280/652/311 305/651/311 279/653/311
f 281/654/312 304/655/312 280/652/312
f 282/656/313 303/657/313 281/654/313
f 282/656/314 301/658/314 302/659/314
f 261/660/315 301/658/315 245/661/315
f 262/662/316 300/663/316 261/660/316
f 262/662/317 298/664/317 299/665/317
f 263/666/318 297/667/318 298/664/318
f 267/668/319 248/636/319 238/669/319
f 267/668/320 291/670/320 292/634/320
f 268/671/321 290/672/321 291/670/321
f 269/673/322 289/633/322 290/672/322
f 264/674/323 296/675/323 297/667/323
f 253/676/324 295/677/324 254/678/324
f 286/628/325 295/679/325 266/680/325
f 288/681/326 286/628/326 285/682/326
f 283/683/327 287/684/327 284/685/327
f 287/684/328 285/682/328 284/685/328
f 283/683/329 312/638/329 293/686/329
f 312/635/330 247/687/330 248/636/330
f 310/688/331 247/687/331 311/689/331
f 309/690/332 235/691/332 310/688/332
f 309/690/333 236/692/333 244/693/333
f 308/694/334 242/695/334 236/692/334
f 307/696/335 237/697/335 242/695/335
f 305/698/336 237/697/336 306/699/336
f 305/698/337 272/700/337 271/701/337
f 304/702/338 273/703/338 272/700/338
f 303/704/339 274/705/339 273/703/339
f 301/706/340 274/705/340 302/707/340
f 301/706/341 249/708/341 239/709/341
f 300/710/342 250/711/342 249/708/342
f 260/639/343 275/712/343 241/713/343
f 275/712/344 284/685/344 276/714/344
f 276/714/345 285/682/345 277/715/345
f 277/715/301 286/628/301 278/630/301
f 315/716/299 326/717/299 316/718/299
f 351/719/299 325/720/299 315/716/299
f 350/721/299 357/722/299 351/719/299
f 349/611/299 356/723/299 350/721/299
f 328/724/296 319/725/296 320/726/296
f 327/727/296 354/728/296 319/725/296
f 360/729/346 353/730/346 354/728/346
f 359/731/347 352/595/347 353/730/347
f 298/732/348 250/711/348 299/733/348
f 297/734/349 251/735/349 298/732/349
f 296/736/350 252/737/350 297/734/350
f 265/738/351 295/679/351 296/675/351
f 294/739/352 254/632/352 295/740/352
f 288/741/353 289/633/353 294/739/353
f 292/634/354 287/742/354 293/743/354
f 287/742/355 290/672/355 288/741/355
f 236/692/356 313/744/356 314/745/356
f 240/746/357 315/747/357 316/748/357
f 244/693/358 318/749/358 235/691/358
f 239/709/359 319/750/359 274/705/359
f 238/669/360 321/751/360 322/752/360
f 240/746/361 323/753/361 254/632/361
f 237/697/362 313/744/362 242/695/362
f 243/629/363 325/754/363 278/630/363
f 236/692/364 317/755/364 244/693/364
f 245/661/365 327/756/365 328/757/365
f 241/713/366 329/758/366 260/639/366
f 243/629/363 331/759/363 326/760/363
f 247/687/367 321/751/367 248/636/367
f 247/687/368 318/749/368 332/761/368
f 239/709/369 333/762/369 320/763/369
f 249/708/370 334/764/370 333/762/370
f 251/735/371 334/764/371 250/711/371
f 252/737/372 335/765/372 251/735/372
f 252/737/373 337/766/373 336/767/373
f 253/768/374 323/753/374 337/766/374
f 246/650/375 339/769/375 338/770/375
f 256/644/376 339/769/376 255/646/376
f 256/644/377 341/771/377 340/772/377
f 257/645/378 342/773/378 341/771/378
f 258/640/379 343/774/379 342/773/379
f 259/637/380 329/758/380 343/774/380
f 245/661/381 344/775/381 261/660/381
f 261/660/382 345/776/382 262/662/382
f 263/666/383 345/776/383 346/777/383
f 264/674/384 346/777/384 347/778/384
f 264/674/385 348/779/385 265/738/385
f 266/680/386 348/779/386 331/759/386
f 238/669/387 349/780/387 267/668/387
f 268/671/357 349/780/357 350/781/357
f 268/671/357 351/782/357 269/673/357
f 269/673/357 315/747/357 270/631/357
f 271/701/388 324/783/388 237/697/388
f 272/700/389 352/784/389 271/701/389
f 273/703/390 353/785/390 272/700/390
f 273/703/391 319/750/391 354/786/391
f 241/713/392 355/787/392 330/788/392
f 276/714/363 355/787/363 275/712/363
f 276/714/363 357/789/363 356/790/363
f 278/630/363 357/789/363 277/715/363
f 279/653/393 338/770/393 358/791/393
f 280/652/394 358/791/394 359/792/394
f 281/654/395 359/792/395 360/793/395
f 281/654/396 327/756/396 282/656/396
f 358/593/296 338/794/296 324/594/296
f 324/596/297 338/795/297 339/597/297
f 333/599/298 344/608/298 328/600/298
f 335/602/397 346/613/397 345/603/397
f 316/605/298 326/796/298 331/606/298
f 334/604/298 345/603/298 344/608/298
f 322/609/299 330/797/299 355/610/299
f 336/612/300 347/615/300 346/613/300
f 337/614/398 348/616/398 347/615/398
f 323/607/298 331/606/298 348/616/298
f 321/617/297 329/620/297 330/618/297
f 321/617/297 332/622/297 343/619/297
f 318/621/297 342/624/297 343/619/297
f 317/623/297 341/626/297 342/624/297
f 314/625/297 340/627/297 341/626/297
f 313/598/297 339/597/297 340/627/297
f 286/628/399 266/680/399 243/629/399
f 270/631/400 240/746/400 254/632/400
f 292/634/401 293/743/401 312/635/401
f 259/637/402 311/641/402 312/638/402
f 258/640/403 310/643/403 311/641/403
f 258/640/404 257/645/404 309/642/404
f 256/644/405 308/647/405 309/642/405
f 255/646/406 307/649/406 308/647/406
f 255/646/407 246/650/407 306/648/407
f 246/650/408 279/653/408 305/651/408
f 280/652/409 304/655/409 305/651/409
f 281/654/410 303/657/410 304/655/410
f 282/656/411 302/659/411 303/657/411
f 282/656/412 245/661/412 301/658/412
f 261/660/413 300/663/413 301/658/413
f 262/662/414 299/665/414 300/663/414
f 262/662/415 263/666/415 298/664/415
f 263/666/416 264/674/416 297/667/416
f 267/668/417 292/634/417 248/636/417
f 267/668/418 268/671/418 291/670/418
f 268/671/419 269/673/419 290/672/419
f 269/673/420 270/631/420 289/633/420
f 264/674/421 265/738/421 296/675/421
f 253/676/422 296/798/422 295/677/422
f 286/628/423 294/799/423 295/679/423
f 288/681/424 294/799/424 286/628/424
f 283/683/425 293/686/425 287/684/425
f 287/684/426 288/681/426 285/682/426
f 283/683/427 260/639/427 312/638/427
f 312/635/428 311/689/428 247/687/428
f 310/688/429 235/691/429 247/687/429
f 309/690/430 244/693/430 235/691/430
f 309/690/431 308/694/431 236/692/431
f 308/694/432 307/696/432 242/695/432
f 307/696/433 306/699/433 237/697/433
f 305/698/434 271/701/434 237/697/434
f 305/698/435 304/702/435 272/700/435
f 304/702/436 303/704/436 273/703/436
f 303/704/437 302/707/437 274/705/437
f 301/706/438 239/709/438 274/705/438
f 301/706/439 300/710/439 249/708/439
f 300/710/440 299/733/440 250/711/440
f 260/639/441 283/683/441 275/712/441
f 275/712/442 283/683/442 284/685/442
f 276/714/443 284/685/443 285/682/443
f 277/715/444 285/682/444 286/628/444
f 315/716/299 325/720/299 326/717/299
f 351/719/299 357/722/299 325/720/299
f 350/721/299 356/723/299 357/722/299
f 349/611/299 355/610/299 356/723/299
f 328/724/296 327/727/296 319/725/296
f 327/727/296 360/729/296 354/728/296
f 360/729/445 359/731/445 353/730/445
f 359/731/296 358/593/296 352/595/296
f 298/732/446 251/735/446 250/711/446
f 297/734/447 252/737/447 251/735/447
f 296/736/448 253/768/448 252/737/448
f 265/738/449 266/680/449 295/679/449
f 294/739/450 289/633/450 254/632/450
f 288/741/451 290/672/451 289/633/451
f 292/634/452 291/670/452 287/742/452
f 287/742/453 291/670/453 290/672/453
f 236/692/454 242/695/454 313/744/454
f 240/746/357 270/631/357 315/747/357
f 244/693/455 317/755/455 318/749/455
f 239/709/456 320/763/456 319/750/456
f 238/669/457 248/636/457 321/751/457
f 240/746/357 316/748/357 323/753/357
f 237/697/458 324/783/458 313/744/458
f 243/629/363 326/760/363 325/754/363
f 236/692/356 314/745/356 317/755/356
f 245/661/459 282/656/459 327/756/459
f 241/713/460 330/788/460 329/758/460
f 243/629/461 266/680/461 331/759/461
f 247/687/462 332/761/462 321/751/462
f 247/687/463 235/691/463 318/749/463
f 239/709/464 249/708/464 333/762/464
f 249/708/465 250/711/465 334/764/465
f 251/735/466 335/765/466 334/764/466
f 252/737/373 336/767/373 335/765/373
f 252/737/467 253/768/467 337/766/467
f 253/768/468 254/632/468 323/753/468
f 246/650/469 255/646/469 339/769/469
f 256/644/377 340/772/377 339/769/377
f 256/644/470 257/645/470 341/771/470
f 257/645/471 258/640/471 342/773/471
f 258/640/472 259/637/472 343/774/472
f 259/637/473 260/639/473 329/758/473
f 245/661/474 328/757/474 344/775/474
f 261/660/475 344/775/475 345/776/475
f 263/666/476 262/662/476 345/776/476
f 264/674/477 263/666/477 346/777/477
f 264/674/478 347/778/478 348/779/478
f 266/680/479 265/738/479 348/779/479
f 238/669/480 322/752/480 349/780/480
f 268/671/357 267/668/357 349/780/357
f 268/671/357 350/781/357 351/782/357
f 269/673/357 351/782/357 315/747/357
f 271/701/481 352/784/481 324/783/481
f 272/700/482 353/785/482 352/784/482
f 273/703/483 354/786/483 353/785/483
f 273/703/484 274/705/484 319/750/484
f 241/713/485 275/712/485 355/787/485
f 276/714/363 356/790/363 355/787/363
f 276/714/363 277/715/363 357/789/363
f 278/630/363 325/754/363 357/789/363
f 279/653/486 246/650/486 338/770/486
f 280/652/487 279/653/487 358/791/487
f 281/654/488 280/652/488 359/792/488
f 281/654/395 360/793/395 327/756/395
