# Blender 4.2.1 LTS
# www.blender.org
mtllib window_1.mtl
g window_bars_1.001_Mesh
v 1.000767 0.913483 -0.037218
v -1.041687 0.913483 -0.028053
v 1.000800 0.913483 0.129628
v -1.041655 0.913483 0.138793
v 1.000767 0.025606 -0.037215
v -1.041922 0.025592 -0.028424
v 1.000800 0.025601 0.129631
v -1.041890 0.025587 0.138422
v 0.567647 0.025598 0.131652
v -0.017030 0.025594 0.133975
v -0.587855 0.025590 0.136299
v -0.587886 0.025596 -0.030547
v -0.017062 0.025599 -0.032870
v 0.567616 0.025603 -0.035194
v 1.000767 0.348763 -0.037217
v 1.000800 0.348759 0.129628
v -1.041687 0.348696 -0.028052
v -1.041655 0.348693 0.138793
v -1.073682 0.913483 -0.027857
v -1.073650 0.913483 0.138989
v -0.609777 -0.000016 0.136243
v -1.073929 -0.000019 0.138548
v 0.591868 -0.000004 -0.035213
v 1.028164 -0.000001 -0.037518
v 1.028164 0.348763 -0.037518
v 1.028164 0.913483 -0.037518
v 1.028196 0.348759 0.129328
v 1.028196 -0.000006 0.129328
v -1.073682 0.348752 -0.027856
v -1.073650 0.348748 0.138989
v 1.028196 0.913483 0.129327
v 0.591901 -0.000009 0.131633
v -0.014877 -0.000012 0.133938
v -1.073961 -0.000015 -0.028297
v -0.609810 -0.000011 -0.030602
v -0.014910 -0.000008 -0.032907
v -0.607931 0.372212 -0.099754
v -1.020881 0.372159 -0.049820
v -1.020694 0.879389 -0.049515
v -0.607883 0.372202 0.079842
v -1.020645 0.879376 0.082151
v -1.020831 0.372149 0.081846
v 0.980022 0.372215 0.072924
v 0.980022 0.879393 0.072912
v 0.588055 0.879391 0.074792
v 0.588001 0.372213 0.074710
v 0.547466 0.372212 0.074980
v 0.547521 0.879389 0.075043
v 0.003279 0.372209 0.077204
v -0.037023 0.372209 0.077397
v -0.567355 0.372206 0.079637
v 0.979964 0.372220 -0.058742
v 0.587944 0.372218 -0.104885
v 0.587999 0.879397 -0.104803
v 0.979964 0.879399 -0.058754
v 0.547420 0.372218 -0.104615
v 0.003233 0.372216 -0.102391
v 0.547474 0.879398 -0.104553
v -0.037068 0.372216 -0.102199
v -0.567400 0.372214 -0.099959
v -0.037205 0.059407 -0.054456
v -0.567606 0.059403 -0.052300
v -0.567442 0.325300 -0.100002
v -0.037096 0.325303 -0.102250
v 0.547351 0.059410 -0.056781
v 0.003096 0.059406 -0.054641
v 0.003205 0.325302 -0.102416
v 0.547406 0.325305 -0.104648
v 0.979964 0.059412 -0.058747
v 0.587876 0.059409 -0.057040
v 0.587930 0.325304 -0.104887
v 0.979964 0.325306 -0.058758
v -0.037161 0.059396 0.077210
v -0.037052 0.325295 0.077346
v -0.567398 0.325293 0.079593
v -0.567561 0.059392 0.079366
v 0.547397 0.059401 0.074884
v 0.547451 0.325298 0.074947
v 0.003250 0.325296 0.077179
v 0.003142 0.059397 0.077024
v 0.980021 0.059405 0.072919
v 0.980021 0.325302 0.072908
v 0.587986 0.325300 0.074708
v 0.587931 0.059403 0.074626
v -0.608090 0.059391 0.079562
v -0.607926 0.325289 0.079770
v -1.020880 0.325236 0.081784
v -1.021067 0.059387 0.081479
v -0.608137 0.059405 -0.052104
v -1.021115 0.059401 -0.050187
v -1.020929 0.325245 -0.049882
v -0.607974 0.325298 -0.099826
v -1.041696 0.348699 -0.049746
v -1.041695 0.913483 -0.049746
v -1.041647 0.913483 0.081920
v 1.000812 0.913483 0.072754
v 0.567723 0.913483 0.074869
v 0.567723 0.348755 0.074870
v -0.016887 0.348752 0.077285
v 0.567672 0.348761 -0.104725
v 1.000755 0.913483 -0.058911
v 0.567675 0.913483 -0.104726
v -0.587892 0.025598 -0.052240
v -0.587686 0.348757 -0.099895
v -0.017069 0.025601 -0.054564
v -0.016932 0.348759 -0.102310
v 0.567604 0.025604 -0.056888
v 1.000755 0.025607 -0.058908
v 1.000755 0.348763 -0.058911
v -0.017024 0.025591 0.077102
v -0.587848 0.025587 0.079426
v 0.567654 0.025596 0.074778
v 1.000812 0.348759 0.072755
v 1.000812 0.025601 0.072757
v -0.587640 0.348748 0.079701
v -1.041647 0.348690 0.081920
v -1.041882 0.025582 0.081548
v -1.041930 0.025596 -0.050118
v -1.020856 0.372154 0.047064
v 0.587973 0.372215 -0.008002
v 0.003256 0.372213 -0.005508
v -0.567377 0.372210 0.044855
v -0.037074 0.325299 -0.005366
v 0.547428 0.325301 -0.007764
v 0.979993 0.325304 0.038125
v 1.000767 1.848663 -0.037221
v -1.041452 1.848647 -0.027681
v 1.000800 1.848657 0.129625
v -1.041420 1.848642 0.139164
v 0.567754 1.848659 -0.035012
v -0.016788 1.848655 -0.032505
v -0.587473 1.848651 -0.029997
v 0.567785 1.848654 0.131834
v -0.016756 1.848650 0.134341
v -0.587441 1.848646 0.136848
v 1.000767 1.396243 -0.037218
v 1.000800 1.396240 0.129627
v -1.041687 1.396177 -0.028053
v -1.041655 1.396174 0.138792
v -0.609380 1.874258 -0.029942
v -1.073402 1.874254 -0.027416
v -0.609347 1.874254 0.136904
v -1.073370 1.874250 0.139430
v 1.028164 1.396243 -0.037519
v 1.028164 1.874269 -0.037519
v 1.028196 1.396240 0.129327
v -1.073682 1.396233 -0.027857
v -1.073650 1.396229 0.138989
v 0.592012 1.874265 -0.034993
v -0.014625 1.874262 -0.032467
v 1.028196 1.874264 0.129327
v 0.592045 1.874261 0.131852
v -0.014592 1.874257 0.134378
v -1.020881 1.419640 -0.049821
v -1.020694 1.814847 -0.049516
v -0.607767 1.814851 -0.051617
v -0.607719 1.814837 0.080048
v -1.020645 1.814833 0.082150
v -1.020831 1.419630 0.081845
v 0.980022 1.419696 0.072923
v 0.980022 1.814852 0.072911
v 0.588055 1.814849 0.074792
v 0.588001 1.419694 0.074709
v 0.547466 1.419693 0.074979
v 0.547521 1.814847 0.075042
v 0.003388 1.814843 0.077358
v -0.036915 1.814842 0.077531
v -0.567191 1.814839 0.079864
v 0.979964 1.419701 -0.058743
v 0.587944 1.419698 -0.104886
v 0.587999 1.814855 -0.056875
v 0.979964 1.814858 -0.058755
v 0.547420 1.419699 -0.104617
v 0.003342 1.814852 -0.054308
v 0.547474 1.814856 -0.056625
v -0.567236 1.814850 -0.051802
v -0.036960 1.814853 -0.054135
v 0.547351 0.947585 -0.104712
v 0.547406 1.372785 -0.104649
v 0.979964 0.947587 -0.058748
v 0.587876 0.947584 -0.104971
v 0.587930 1.372785 -0.104888
v 0.979964 1.372787 -0.058759
v 0.547397 0.947576 0.074883
v 0.547451 1.372779 0.074946
v 0.980021 0.947581 0.072918
v 0.980022 1.372783 0.072906
v 0.587986 1.372781 0.074707
v 0.587931 0.947578 0.074625
v -1.020880 1.372716 0.081783
v -1.021067 0.947563 0.081478
v -1.021115 0.947576 -0.050188
v -1.020929 1.372726 -0.049883
v -1.041696 1.396180 -0.049747
v -1.041461 1.848652 -0.049375
v -0.587433 1.848642 0.079975
v -1.041411 1.848638 0.082291
v 1.000813 1.848656 0.072752
v 0.567793 1.848652 0.074960
v 0.567724 1.396236 0.074869
v -0.016750 1.848647 0.077468
v 0.567672 1.396241 -0.104726
v 1.000754 1.848663 -0.058914
v 0.567746 1.848661 -0.056705
v -0.587479 1.848655 -0.051691
v -0.016794 1.848658 -0.054198
v 1.000755 1.396244 -0.058912
v 1.000812 1.396240 0.072754
v -1.041647 1.396171 0.081919
v -1.020856 1.419635 0.047063
v 0.587973 1.419696 -0.008003
v 0.547428 1.372782 -0.007766
v 0.979993 1.372785 0.038124
v -0.016818 1.686212 0.077376
v 0.003333 1.681039 0.077281
v -0.036969 1.681038 0.077463
v 0.010347 1.662368 -0.102315
v -0.037014 1.681047 -0.102132
v -0.016863 1.649397 -0.102220
v -0.669861 1.396219 0.080102
v -0.666550 1.419683 -0.099392
v -0.682668 1.419674 0.080204
v -0.682713 1.372760 0.080134
v -0.661973 1.372770 -0.099462
v -0.669907 1.384516 -0.099494
v -0.612877 1.644849 -0.099651
v -0.607801 1.681032 0.079945
v -0.567273 1.681035 0.079750
v -0.567318 1.681044 -0.099846
v -0.587582 1.634311 -0.099758
v -0.587536 1.686208 0.079837
v 0.413520 1.419697 -0.102768
v 0.413494 1.370344 -0.102794
v 0.400502 1.407951 -0.102720
v 0.425024 0.879386 0.077149
v 0.448134 0.893221 -0.102447
v 0.431750 0.913483 0.077065
v 0.408548 0.931655 -0.102530
v 0.424743 0.947581 -0.102766
v 0.447945 0.947573 0.076829
v -0.016887 0.455382 0.077285
v 0.003314 0.510456 0.077254
v -0.036988 0.460219 0.077441
v 0.003268 0.460227 -0.102341
v -0.037033 0.510463 -0.102155
v -0.016932 0.505622 -0.102310
v -0.623140 0.561483 -0.099609
v -0.607769 0.561471 0.079986
v -0.567241 0.561473 0.079795
v -0.567286 0.594387 -0.099800
v -0.587686 0.616942 -0.099895
v -0.587640 0.578061 0.079700
v -0.121521 0.372216 -0.101873
v -0.121552 0.325302 -0.101923
v -0.107528 0.348758 -0.101959
v -0.529160 0.325300 -0.100164
v -0.529119 0.372214 -0.100120
v -0.546621 0.348757 -0.100068
v -0.781551 0.913483 0.080635
v -0.762257 0.879391 -0.098660
v -0.762208 0.879378 0.080935
v -0.759486 0.913483 -0.098960
v -0.782106 0.947565 0.080369
v -0.782154 0.931653 -0.099227
v 0.402549 1.419691 0.076587
v 0.402524 1.372777 0.076560
v 0.394102 1.396233 0.076615
vn -1.0000 0.0008 0.0002
vn 1.0000 -0.0000 -0.0002
vn -0.0000 -1.0000 -0.0000
vn -1.0000 -0.0000 0.0002
vn 0.0047 -0.0062 1.0000
vn -0.0047 -0.0037 -1.0000
vn -0.0110 -0.0000 -0.9999
vn 0.0110 -0.0000 0.9999
vn -0.0061 -0.0000 -1.0000
vn 0.0061 -0.0000 1.0000
vn 0.0053 -0.0062 1.0000
vn 0.0038 0.0029 1.0000
vn 0.0041 -0.0011 1.0000
vn -0.0050 0.0013 -1.0000
vn -0.0039 0.0055 -1.0000
vn -0.0040 0.0011 -1.0000
vn -0.0111 -0.0000 -0.9999
vn -0.0061 0.0012 -1.0000
vn 0.0050 -0.0013 1.0000
vn -1.0000 -0.0000 0.0004
vn 1.0000 -0.0000 0.0001
vn -1.0000 -0.0000 -0.0002
vn 1.0000 -0.0000 -0.0006
vn -0.0000 -1.0000 -0.0001
vn -0.0000 1.0000 -0.0001
vn -0.0000 1.0000 -0.0000
vn 1.0000 -0.0007 0.0001
vn -0.0000 -1.0000 -0.0002
vn -1.0000 0.0007 0.0004
vn -0.9932 -0.0799 0.0850
vn 1.0000 -0.0005 -0.0007
vn -0.1093 0.0939 -0.9896
vn 0.0110 -0.0000 -0.9999
vn -0.1868 0.0065 -0.9824
vn 0.0148 -0.0008 0.9999
vn 0.0042 -0.0006 1.0000
vn 0.0049 -0.0018 1.0000
vn 0.0076 -0.0000 1.0000
vn 0.0048 0.0006 1.0000
vn 0.0081 -0.0002 1.0000
vn 0.0049 -0.0029 1.0000
vn 0.0086 -0.0000 1.0000
vn 0.0172 -0.0010 0.9999
vn 0.0076 -0.0005 1.0000
vn 0.0042 -0.0011 1.0000
vn 0.1162 -0.1072 -0.9874
vn -0.0038 -0.0000 -1.0000
vn 0.1050 -0.0686 -0.9921
vn -0.0082 -0.0000 -1.0000
vn -0.0041 0.0001 -1.0000
vn -0.0015 -0.0000 -1.0000
vn -0.0053 0.0001 -1.0000
vn -0.0039 0.0014 -1.0000
vn 0.0054 0.0007 -1.0000
vn -0.0041 0.0007 -1.0000
vn -0.2052 -0.1727 -0.9634
vn -0.0042 0.0009 -1.0000
vn -0.2430 -0.1417 -0.9596
vn -0.0039 0.0001 -1.0000
vn -0.2065 -0.1729 -0.9630
vn -0.0041 0.0003 -1.0000
vn -0.2421 -0.1420 -0.9598
vn -0.0044 -0.0019 -1.0000
vn -0.2082 -0.1732 -0.9626
vn 0.1047 -0.0992 -0.9895
vn -0.0078 -0.0000 -1.0000
vn 0.0036 -0.0005 1.0000
vn 0.0042 -0.0010 1.0000
vn 0.0044 -0.0009 1.0000
vn 0.0041 -0.0008 1.0000
vn 0.0041 -0.0002 1.0000
vn 0.0041 -0.0010 1.0000
vn 0.0048 -0.0006 1.0000
vn 0.0040 -0.0008 1.0000
vn 0.0073 -0.0000 1.0000
vn 0.0046 -0.0029 1.0000
vn 0.0080 -0.0003 1.0000
vn 0.0047 -0.0019 1.0000
vn 0.0043 -0.0008 1.0000
vn 0.0049 -0.0015 1.0000
vn 0.0052 -0.0012 1.0000
vn 0.0046 -0.0013 1.0000
vn -0.0047 0.0008 -1.0000
vn -0.0053 0.0012 -1.0000
vn -0.1195 0.1004 -0.9877
vn -0.2425 -0.1414 -0.9598
vn -0.0000 1.0000 0.0001
vn 1.0000 -0.0006 -0.0003
vn -1.0000 0.0004 0.0003
vn 1.0000 -0.0004 -0.0003
vn -1.0000 0.0002 0.0003
vn 1.0000 -0.0001 -0.0003
vn 1.0000 -0.0002 -0.0004
vn -1.0000 0.0001 0.0003
vn -1.0000 -0.0002 0.0008
vn 1.0000 -0.0008 -0.0006
vn -0.0001 1.0000 0.0001
vn -1.0000 0.0007 0.0003
vn 1.0000 -0.0007 -0.0004
vn 0.0001 -1.0000 -0.0001
vn -1.0000 0.0006 0.0002
vn -0.0051 -0.0022 -1.0000
vn 0.0054 -0.0036 1.0000
vn -0.0076 0.0009 -1.0000
vn 0.0061 -0.0008 1.0000
vn -0.0058 -0.0054 -1.0000
vn -0.0042 0.0047 -1.0000
vn -0.0044 0.0018 -1.0000
vn 0.0051 -0.0056 1.0000
vn 0.0043 -0.0018 1.0000
vn 0.0042 0.0014 1.0000
vn 0.0109 -0.0000 0.9999
vn -1.0000 0.0005 0.0004
vn -0.0000 1.0000 0.0002
vn -0.0000 -1.0000 0.0001
vn 1.0000 -0.0005 0.0001
vn 1.0000 -0.0006 -0.0007
vn -0.0054 0.0008 -1.0000
vn -0.0051 0.0009 -1.0000
vn 0.1073 0.2673 -0.9576
vn 0.0051 -0.0010 1.0000
vn 0.0044 -0.0008 1.0000
vn 0.0049 -0.0017 1.0000
vn 0.0077 -0.0000 1.0000
vn 0.0048 -0.0021 1.0000
vn 0.0043 -0.0002 1.0000
vn 0.0043 -0.0007 1.0000
vn 0.0046 -0.0006 1.0000
vn 0.0044 -0.0007 1.0000
vn 0.0041 -0.0009 1.0000
vn 0.1655 0.1041 -0.9807
vn -0.0051 -0.0016 -1.0000
vn -0.0114 0.0085 -0.9999
vn -0.0043 0.0002 -1.0000
vn 0.1330 0.1195 -0.9839
vn -0.0044 0.0007 -1.0000
vn 0.4655 0.2987 -0.8331
vn -0.0139 -0.0007 -0.9999
vn -0.0007 -0.0000 -1.0000
vn 0.1167 -0.0763 -0.9902
vn -0.0078 0.0002 -1.0000
vn -0.0079 -0.0000 -1.0000
vn 0.0040 -0.0001 1.0000
vn 0.0111 0.0016 0.9999
vn 0.0121 -0.0000 0.9999
vn 0.9999 0.0163 -0.0017
vn 0.0214 -0.0000 0.9998
vn 0.0046 0.0079 1.0000
vn -0.0057 0.0007 -1.0000
vn -0.1362 -0.0947 -0.9861
vn -1.0000 -0.0001 0.0008
vn -1.0000 0.0003 0.0002
vn 1.0000 -0.0004 -0.0004
vn 0.9955 -0.0951 0.0059
vn 0.3616 0.2183 -0.9064
vn 0.0041 -0.0006 1.0000
vn 0.6242 0.7685 0.1407
vn -0.1284 0.1108 -0.9855
vn 0.4877 0.2948 -0.8217
vn 0.0050 -0.0009 1.0000
vn -1.0000 0.0006 0.0004
vn -0.0115 0.0067 -0.9999
vn 0.0161 0.0092 0.9998
vn -0.1378 -0.9905 -0.0000
vn -0.0202 0.0069 -0.9998
vn -1.0000 0.0004 0.0002
vn -0.0055 -0.0000 -1.0000
vn 0.0040 -0.0000 1.0000
vn 0.0031 -0.0000 1.0000
vn -0.0067 0.0002 -1.0000
vn -0.0039 0.0008 -1.0000
vn -0.0043 0.0010 -1.0000
vn -0.1933 0.1040 -0.9756
vn 0.0049 0.0098 0.9999
vn -0.2473 -0.9689 -0.0000
vn 0.0101 0.0040 0.9999
vn 0.0182 -0.9998 -0.0000
vn 0.2487 -0.9686 -0.0001
vn -0.6694 0.7418 -0.0409
vn -0.8969 0.4269 0.1159
vn 0.2279 0.9377 0.2623
vn 0.9077 0.4040 -0.1132
vn -0.6346 0.7709 0.0544
vn 0.9967 -0.0810 -0.0003
vn -0.6965 -0.7173 0.0174
vn -0.9438 -0.3260 -0.0550
vn 0.8248 0.5574 0.0953
vn -0.2430 -0.9502 0.1949
vn -0.3706 -0.8923 0.2579
vn -0.0053 0.0062 -1.0000
vn 0.0047 0.0037 1.0000
vn 0.0040 -0.0011 1.0000
vn 0.0039 -0.0055 1.0000
vn -0.0047 0.0062 -1.0000
vn -0.0041 0.0011 -1.0000
vn -0.0038 -0.0029 -1.0000
vn 0.0061 -0.0012 1.0000
vn -1.0000 0.0006 0.0003
vn -0.1195 -0.0972 -0.9881
vn -0.0042 0.0006 -1.0000
vn -0.1707 -0.1118 -0.9790
vn 0.0070 -0.0000 1.0000
vn -0.0110 -0.0000 0.9999
vn 0.0049 -0.0012 1.0000
vn 0.0082 -0.0000 1.0000
vn 0.0049 0.0016 1.0000
vn 0.0038 -0.0000 1.0000
vn 0.0046 0.0029 1.0000
vn 0.0053 -0.0001 1.0000
vn 0.0161 -0.0045 0.9999
vn 0.0041 -0.0001 1.0000
vn 0.0055 -0.0000 1.0000
vn 0.0042 -0.0009 1.0000
vn 0.1047 0.0999 -0.9895
vn -0.0081 0.0002 -1.0000
vn 0.1164 0.0716 -0.9906
vn -0.0076 -0.0000 -1.0000
vn -0.0047 0.0006 -1.0000
vn -0.0086 -0.0000 -1.0000
vn -0.0031 -0.0000 -1.0000
vn -0.0041 0.0008 -1.0000
vn 0.2338 -0.1420 -0.9619
vn 0.1989 -0.1735 -0.9646
vn -0.0040 0.0008 -1.0000
vn 0.2347 -0.1422 -0.9616
vn -0.0041 0.0010 -1.0000
vn 0.1974 -0.1737 -0.9648
vn -0.0047 0.0019 -1.0000
vn 0.2304 -0.1425 -0.9626
vn 0.1162 0.1071 -0.9874
vn -0.0073 -0.0000 -1.0000
vn 0.0044 -0.0006 1.0000
vn 0.0043 -0.0009 1.0000
vn 0.0041 -0.0007 1.0000
vn 0.0048 -0.0003 1.0000
vn 0.0041 -0.0003 1.0000
vn 0.0039 -0.0001 1.0000
vn 0.0078 -0.0000 1.0000
vn 0.0049 0.0022 1.0000
vn 0.0076 -0.0003 1.0000
vn 0.0044 0.0019 1.0000
vn 0.0053 -0.0009 1.0000
vn 0.0049 -0.0013 1.0000
vn 0.0053 -0.0011 1.0000
vn 0.0047 -0.0008 1.0000
vn -0.0046 0.0013 -1.0000
vn -0.0052 0.0012 -1.0000
vn -0.1093 -0.0910 -0.9898
vn 0.1971 -0.1733 -0.9649
vn 1.0000 -0.0007 -0.0002
vn -0.0000 -1.0000 0.0022
vn 1.0000 -0.0005 -0.0003
vn -1.0000 0.0002 0.0002
vn 1.0000 -0.0003 -0.0003
vn -1.0000 -0.0000 0.0003
vn 1.0000 -0.0003 -0.0002
vn 1.0000 -0.0004 -0.0002
vn 1.0000 -0.0006 -0.0004
vn 1.0000 -0.0005 -0.0002
vn 0.1833 0.9831 -0.0000
vn -0.0054 0.0036 -1.0000
vn 0.0051 0.0022 1.0000
vn -0.0109 -0.0000 -0.9999
vn -0.0061 0.0008 -1.0000
vn 0.0076 -0.0009 1.0000
vn -0.0051 0.0056 -1.0000
vn -0.0043 0.0018 -1.0000
vn -0.0042 -0.0015 -1.0000
vn 0.0058 0.0054 1.0000
vn 0.0042 -0.0047 1.0000
vn 0.0044 -0.0018 1.0000
vn 1.0000 -0.0005 -0.0004
vn -0.0044 0.0008 -1.0000
vn -0.0051 0.0010 -1.0000
vn -0.3457 0.2055 -0.9156
vn 0.0051 -0.0009 1.0000
vn 0.0054 -0.0008 1.0000
vn 0.0051 0.0016 1.0000
vn 0.0080 -0.0002 1.0000
vn 0.0052 -0.0002 1.0000
vn 0.0045 -0.0006 1.0000
vn -0.1458 0.1193 -0.9821
vn -0.0048 0.0021 -1.0000
vn -0.0077 -0.0000 -1.0000
vn -0.0138 -0.0072 -0.9999
vn -0.0043 0.0007 -1.0000
vn -0.1772 0.1039 -0.9787
vn -0.3682 0.2179 -0.9038
vn -0.0159 -0.0090 -0.9998
vn -0.0040 0.0001 -1.0000
vn 0.1050 0.0687 -0.9921
vn -0.0121 -0.0000 -0.9999
vn 0.0007 -0.0000 1.0000
vn 0.0101 -0.0054 0.9999
vn 0.0079 -0.0000 1.0000
vn 0.0078 -0.0002 1.0000
vn 0.0044 0.0046 1.0000
vn 0.6231 0.7784 0.0765
vn 0.0057 -0.0007 1.0000
vn 0.0049 0.0100 0.9999
vn -0.0215 -0.0000 -0.9998
vn -0.1353 -0.1141 -0.9842
vn -1.0000 0.0001 0.0002
vn 1.0000 -0.0001 -0.0004
vn -1.0000 0.0001 0.0004
vn -0.0001 1.0000 -0.0000
vn 0.1900 0.9818 -0.0000
vn 0.8751 0.4775 0.0786
vn 0.9988 0.0347 0.0354
vn -0.1422 0.2913 -0.9460
vn 0.0045 -0.0005 1.0000
vn 0.0001 -1.0000 -0.0000
vn 0.7337 0.6642 0.1436
vn -0.1385 0.0161 -0.9902
vn -0.4539 0.1952 -0.8694
vn 0.0055 -0.0008 1.0000
vn -0.9994 0.0234 0.0235
vn -0.0138 -0.0028 -0.9999
vn 0.0196 -0.0024 0.9998
vn -0.0013 -0.9970 -0.0770
vn -0.0159 -0.0185 -0.9997
vn -1.0000 0.0003 0.0003
vn -0.0076 0.0003 -1.0000
vn 0.0025 -0.0004 1.0000
vn -0.0053 -0.0008 1.0000
vn -0.0081 -0.0000 -1.0000
vn -0.0043 0.0011 -1.0000
vn -0.0043 0.0009 -1.0000
vn 0.0482 0.9949 -0.0882
vn -0.1675 -0.2230 -0.9603
vn 0.0047 0.0114 0.9999
vn 0.9116 -0.3951 0.1139
vn 0.0111 -0.0028 0.9999
vn 0.0002 -0.9999 0.0136
vn -0.8383 -0.5340 0.1097
vn -0.9408 0.3388 -0.0114
vn -0.6909 0.7049 0.1606
vn 0.2277 0.9378 0.2623
vn -0.9345 0.3428 0.0961
vn -0.8366 0.5354 0.1161
vn 0.8645 0.4912 0.1062
vn -0.9751 0.1921 -0.1107
vn -0.9399 -0.3373 -0.0529
vn 0.8766 -0.4802 0.0311
vn 0.4280 -0.8971 0.1100
vn 0.2441 -0.9520 0.1849
vt 0.705838 0.101016
vt 0.706859 0.098052
vt 0.706861 0.101016
vt 0.707885 0.101016
vt 0.706861 0.105814
vt 0.706861 0.101016
vt 0.704702 0.098879
vt 0.705904 0.094330
vt 0.705908 0.098879
vt 0.704701 0.116247
vt 0.705904 0.111408
vt 0.705907 0.116247
vt 0.704699 0.111408
vt 0.705906 0.105206
vt 0.704700 0.105205
vt 0.707885 0.098052
vt 0.706861 0.098052
vt 0.706860 0.105816
vt 0.705837 0.105816
vt 0.689607 0.116647
vt 0.689350 0.112141
vt 0.689607 0.111913
vt 0.708590 0.095123
vt 0.708846 0.099387
vt 0.708590 0.099639
vt 0.699697 0.095123
vt 0.705353 0.094838
vt 0.705353 0.095123
vt 0.689607 0.095349
vt 0.692844 0.095063
vt 0.692844 0.095349
vt 0.699696 0.116418
vt 0.705353 0.116752
vt 0.699696 0.116752
vt 0.698500 0.116644
vt 0.692844 0.116978
vt 0.692843 0.116644
vt 0.689350 0.099612
vt 0.689350 0.095063
vt 0.689607 0.099865
vt 0.689350 0.105939
vt 0.689607 0.105961
vt 0.708590 0.116421
vt 0.708846 0.111916
vt 0.708846 0.116755
vt 0.708590 0.111687
vt 0.708846 0.105713
vt 0.708590 0.105735
vt 0.708846 0.094838
vt 0.698500 0.095063
vt 0.698500 0.095349
vt 0.705353 0.116418
vt 0.689350 0.116981
vt 0.708718 0.105598
vt 0.708586 0.100798
vt 0.708719 0.100798
vt 0.707885 0.100797
vt 0.708234 0.105597
vt 0.707886 0.105597
vt 0.708235 0.105598
vt 0.708584 0.100798
vt 0.708584 0.105598
vt 0.708852 0.100798
vt 0.708719 0.105597
vt 0.708719 0.100798
vt 0.706891 0.110893
vt 0.707049 0.104942
vt 0.707048 0.110893
vt 0.706892 0.104942
vt 0.707050 0.098846
vt 0.706893 0.098846
vt 0.707048 0.094330
vt 0.708852 0.098052
vt 0.708719 0.098052
vt 0.706321 0.104942
vt 0.706733 0.110893
vt 0.706322 0.110894
vt 0.706320 0.098846
vt 0.706732 0.104942
vt 0.708235 0.100798
vt 0.708584 0.098052
vt 0.706322 0.094330
vt 0.706731 0.098846
vt 0.707886 0.098052
vt 0.708233 0.100797
vt 0.706731 0.115627
vt 0.706320 0.115628
vt 0.706893 0.115627
vt 0.707050 0.115627
vt 0.708717 0.098052
vt 0.699423 0.101229
vt 0.700525 0.102838
vt 0.699421 0.102838
vt 0.704365 0.114326
vt 0.702274 0.103165
vt 0.702826 0.103165
vt 0.702786 0.116198
vt 0.703021 0.111681
vt 0.703021 0.116415
vt 0.697705 0.116196
vt 0.697364 0.116415
vt 0.697364 0.113472
vt 0.697706 0.113501
vt 0.691139 0.112513
vt 0.693201 0.112302
vt 0.693034 0.112512
vt 0.696219 0.116817
vt 0.690903 0.117036
vt 0.691138 0.116819
vt 0.690904 0.112302
vt 0.696219 0.095957
vt 0.690904 0.095740
vt 0.696560 0.095740
vt 0.696560 0.100256
vt 0.696219 0.100044
vt 0.690904 0.100256
vt 0.691139 0.100045
vt 0.691139 0.095957
vt 0.696219 0.100467
vt 0.696560 0.101674
vt 0.696219 0.101744
vt 0.691139 0.100467
vt 0.690904 0.106351
vt 0.691139 0.106561
vt 0.691972 0.106351
vt 0.692020 0.106561
vt 0.691139 0.112091
vt 0.702785 0.095337
vt 0.703021 0.099635
vt 0.702786 0.099423
vt 0.697706 0.099423
vt 0.697364 0.099635
vt 0.697705 0.095337
vt 0.697364 0.095120
vt 0.703020 0.095120
vt 0.702786 0.099846
vt 0.703021 0.105730
vt 0.702786 0.105520
vt 0.701904 0.105519
vt 0.701450 0.105730
vt 0.697706 0.099845
vt 0.702786 0.105940
vt 0.703021 0.106674
vt 0.702786 0.106820
vt 0.702786 0.111469
vt 0.700335 0.111681
vt 0.700561 0.111468
vt 0.705918 0.111472
vt 0.706257 0.105732
vt 0.706257 0.111683
vt 0.703256 0.111470
vt 0.703021 0.111253
vt 0.703256 0.111071
vt 0.705918 0.105942
vt 0.705918 0.099847
vt 0.705918 0.105522
vt 0.703256 0.105520
vt 0.703256 0.099846
vt 0.706257 0.099636
vt 0.705918 0.095337
vt 0.705918 0.099425
vt 0.703256 0.099424
vt 0.703255 0.095337
vt 0.706257 0.095120
vt 0.688005 0.106563
vt 0.690669 0.106561
vt 0.690669 0.112091
vt 0.688005 0.112093
vt 0.687667 0.112304
vt 0.687667 0.106353
vt 0.688005 0.100468
vt 0.690669 0.100467
vt 0.690669 0.106141
vt 0.688005 0.106142
vt 0.687667 0.100257
vt 0.688005 0.095957
vt 0.690669 0.095957
vt 0.690669 0.100045
vt 0.688005 0.100045
vt 0.687667 0.095740
vt 0.688005 0.112515
vt 0.690669 0.112514
vt 0.690668 0.116819
vt 0.688005 0.116821
vt 0.687667 0.117038
vt 0.705918 0.116200
vt 0.706257 0.116417
vt 0.703256 0.116198
vt 0.703256 0.111892
vt 0.705918 0.111894
vt 0.693803 0.109692
vt 0.692995 0.099684
vt 0.693803 0.099684
vt 0.696927 0.098969
vt 0.696119 0.101229
vt 0.696119 0.098969
vt 0.693646 0.107336
vt 0.694240 0.098053
vt 0.694747 0.108059
vt 0.701920 0.098969
vt 0.702728 0.101229
vt 0.702221 0.101229
vt 0.697757 0.108321
vt 0.696949 0.098052
vt 0.697757 0.098052
vt 0.698028 0.098969
vt 0.697220 0.101229
vt 0.697220 0.098969
vt 0.705171 0.105448
vt 0.704359 0.098052
vt 0.705166 0.098052
vt 0.706456 0.114327
vt 0.704365 0.103165
vt 0.706456 0.103165
vt 0.699717 0.098969
vt 0.700525 0.101229
vt 0.700017 0.101229
vt 0.700767 0.098052
vt 0.701868 0.105448
vt 0.701274 0.105449
vt 0.695046 0.097542
vt 0.697020 0.097542
vt 0.698705 0.116276
vt 0.703309 0.099684
vt 0.703816 0.099684
vt 0.704410 0.103994
vt 0.699129 0.098969
vt 0.698322 0.101229
vt 0.698322 0.098969
vt 0.699201 0.107082
vt 0.698394 0.099684
vt 0.699201 0.099684
vt 0.703309 0.099684
vt 0.702207 0.103995
vt 0.702207 0.099684
vt 0.697514 0.101229
vt 0.698322 0.103489
vt 0.698108 0.103489
vt 0.691386 0.097542
vt 0.695045 0.116274
vt 0.693071 0.116275
vt 0.703258 0.098052
vt 0.703852 0.098052
vt 0.704070 0.105449
vt 0.696569 0.110670
vt 0.697883 0.110670
vt 0.699421 0.112607
vt 0.696119 0.101229
vt 0.696332 0.101229
vt 0.697220 0.103117
vt 0.692544 0.098053
vt 0.693645 0.107336
vt 0.692757 0.108059
vt 0.695554 0.105844
vt 0.694747 0.105844
vt 0.694747 0.098053
vt 0.700818 0.098969
vt 0.701626 0.101229
vt 0.700525 0.101229
vt 0.696779 0.099684
vt 0.697586 0.107476
vt 0.696779 0.107476
vt 0.699129 0.103488
vt 0.698322 0.101229
vt 0.699129 0.101229
vt 0.696142 0.105844
vt 0.696949 0.098053
vt 0.696949 0.105845
vt 0.706859 0.109919
vt 0.705836 0.109919
vt 0.704696 0.116241
vt 0.703493 0.111404
vt 0.704699 0.111403
vt 0.707885 0.109917
vt 0.706861 0.113979
vt 0.706861 0.109917
vt 0.704695 0.098877
vt 0.703493 0.094330
vt 0.704699 0.094330
vt 0.704697 0.105202
vt 0.703489 0.098878
vt 0.703491 0.105203
vt 0.707885 0.105815
vt 0.705838 0.113982
vt 0.706861 0.113982
vt 0.690330 0.116416
vt 0.690073 0.111911
vt 0.690330 0.111683
vt 0.707867 0.116642
vt 0.708124 0.112137
vt 0.708124 0.116975
vt 0.690330 0.095123
vt 0.694861 0.094838
vt 0.694861 0.095123
vt 0.703336 0.095063
vt 0.703336 0.095349
vt 0.694861 0.116752
vt 0.690073 0.116749
vt 0.703336 0.116978
vt 0.703335 0.116644
vt 0.690073 0.099385
vt 0.690073 0.094838
vt 0.690330 0.099638
vt 0.690073 0.105710
vt 0.690330 0.105733
vt 0.707867 0.095349
vt 0.708124 0.099611
vt 0.707867 0.099864
vt 0.708124 0.105936
vt 0.707867 0.105958
vt 0.707867 0.111908
vt 0.699697 0.094838
vt 0.708124 0.095063
vt 0.694862 0.116418
vt 0.698500 0.116978
vt 0.708586 0.113546
vt 0.708717 0.109701
vt 0.708719 0.113546
vt 0.706735 0.110889
vt 0.706890 0.115622
vt 0.706733 0.115622
vt 0.705909 0.115622
vt 0.706318 0.110889
vt 0.706320 0.115623
vt 0.707886 0.109699
vt 0.708234 0.113544
vt 0.707885 0.113544
vt 0.708235 0.113546
vt 0.708584 0.109701
vt 0.708584 0.113546
vt 0.705909 0.098845
vt 0.706319 0.094330
vt 0.706320 0.098845
vt 0.705908 0.104939
vt 0.706319 0.104939
vt 0.705908 0.110889
vt 0.706735 0.094330
vt 0.706890 0.098844
vt 0.706733 0.098844
vt 0.708852 0.109699
vt 0.708719 0.113544
vt 0.708719 0.109699
vt 0.706891 0.104939
vt 0.706734 0.104939
vt 0.706891 0.110889
vt 0.708852 0.105597
vt 0.708235 0.109701
vt 0.708235 0.109699
vt 0.708585 0.105598
vt 0.697586 0.107475
vt 0.698394 0.099685
vt 0.698394 0.107476
vt 0.704636 0.102328
vt 0.703829 0.098969
vt 0.704042 0.098969
vt 0.688335 0.116196
vt 0.692529 0.116415
vt 0.687997 0.116412
vt 0.687997 0.111679
vt 0.688335 0.111891
vt 0.690144 0.111680
vt 0.690039 0.111943
vt 0.705588 0.116817
vt 0.705927 0.112300
vt 0.705927 0.117033
vt 0.701395 0.117036
vt 0.701630 0.116819
vt 0.701396 0.113159
vt 0.701630 0.113293
vt 0.705588 0.095957
vt 0.701396 0.095740
vt 0.705927 0.095740
vt 0.705927 0.100255
vt 0.705588 0.100044
vt 0.701396 0.100256
vt 0.701630 0.100045
vt 0.701630 0.095957
vt 0.705588 0.100467
vt 0.705927 0.106350
vt 0.705588 0.106140
vt 0.704300 0.106350
vt 0.704248 0.106140
vt 0.705588 0.112089
vt 0.704300 0.112301
vt 0.704248 0.112090
vt 0.692293 0.095337
vt 0.692529 0.099635
vt 0.692294 0.099423
vt 0.688335 0.099423
vt 0.687997 0.099634
vt 0.688335 0.095337
vt 0.687997 0.095120
vt 0.692528 0.095120
vt 0.692294 0.101242
vt 0.692412 0.101378
vt 0.688335 0.099846
vt 0.687997 0.105729
vt 0.692294 0.099846
vt 0.688335 0.111468
vt 0.688335 0.105939
vt 0.689993 0.105729
vt 0.689676 0.105939
vt 0.697023 0.101125
vt 0.697182 0.101294
vt 0.697023 0.099847
vt 0.697022 0.095337
vt 0.697023 0.099424
vt 0.692764 0.099423
vt 0.692763 0.095337
vt 0.696902 0.100468
vt 0.701161 0.100467
vt 0.701396 0.102066
vt 0.701161 0.101978
vt 0.696902 0.095957
vt 0.701161 0.095957
vt 0.701161 0.100045
vt 0.696902 0.100045
vt 0.704933 0.103437
vt 0.705094 0.102334
vt 0.705223 0.103437
vt 0.696902 0.116821
vt 0.696560 0.117036
vt 0.696560 0.114324
vt 0.696902 0.114330
vt 0.697022 0.116200
vt 0.692764 0.116198
vt 0.692646 0.112538
vt 0.692764 0.112455
vt 0.700008 0.099684
vt 0.699201 0.107080
vt 0.705444 0.102328
vt 0.704636 0.098969
vt 0.705444 0.098969
vt 0.704410 0.099684
vt 0.705512 0.103298
vt 0.705005 0.103298
vt 0.699668 0.098052
vt 0.700766 0.105449
vt 0.700172 0.105449
vt 0.694849 0.098969
vt 0.695950 0.098969
vt 0.695657 0.102327
vt 0.693747 0.102583
vt 0.692646 0.098969
vt 0.693747 0.098970
vt 0.698564 0.098052
vt 0.697757 0.108319
vt 0.699374 0.098052
vt 0.698564 0.105450
vt 0.698567 0.098052
vt 0.694849 0.098969
vt 0.694041 0.102328
vt 0.693747 0.098969
vt 0.694475 0.103165
vt 0.696566 0.112523
vt 0.696014 0.112523
vt 0.702160 0.098052
vt 0.702754 0.098052
vt 0.702969 0.105449
vt 0.694610 0.099684
vt 0.693803 0.109689
vt 0.695951 0.102327
vt 0.695143 0.103464
vt 0.694849 0.102327
vt 0.696779 0.106376
vt 0.695972 0.106412
vt 0.695693 0.100038
vt 0.694475 0.112520
vt 0.692384 0.103165
vt 0.694475 0.103165
vt 0.703128 0.102402
vt 0.702924 0.103502
vt 0.702831 0.102401
vt 0.689508 0.110365
vt 0.691599 0.113309
vt 0.689508 0.113309
vt 0.688335 0.105519
vt 0.705588 0.106560
vt 0.694610 0.106464
vt 0.695693 0.100124
vt 0.695417 0.106499
vt 0.701626 0.102337
vt 0.701240 0.101234
vt 0.701624 0.101229
vt 0.701160 0.116819
vt 0.692294 0.116198
vt 0.703535 0.102328
vt 0.704343 0.103465
vt 0.703535 0.103465
vt 0.689676 0.111468
vt 0.705588 0.112511
vt 0.701920 0.102674
vt 0.702728 0.101537
vt 0.702728 0.102674
vt 0.692764 0.099846
vt 0.692384 0.103165
vt 0.689526 0.108036
vt 0.689532 0.103177
vt 0.703829 0.098975
vt 0.702734 0.100843
vt 0.702728 0.098969
vt 0.697567 0.100881
vt 0.702274 0.112607
vt 0.699421 0.110670
vt 0.702274 0.110670
vt 0.691139 0.106141
vt 0.700890 0.112050
vt 0.702786 0.111892
vt 0.703256 0.105940
vt 0.702786 0.111070
vt 0.703256 0.106821
vt 0.701110 0.099684
vt 0.701917 0.104193
vt 0.701110 0.104193
vt 0.697182 0.113708
vt 0.700302 0.104561
vt 0.701110 0.099685
vt 0.701110 0.104561
vt 0.701151 0.102343
vt 0.700765 0.103444
vt 0.700769 0.102343
vt 0.701630 0.100467
vt 0.702274 0.109707
vt 0.699422 0.103175
vt 0.696570 0.109707
vt 0.698104 0.103169
vt 0.699417 0.103173
vt 0.693747 0.102336
vt 0.694130 0.103437
vt 0.693750 0.103437
vt 0.702270 0.110344
vt 0.699429 0.110255
vt 0.692384 0.109155
vt 0.689508 0.108830
vt 0.703490 0.102398
vt 0.703110 0.101286
vt 0.703489 0.101286
vt 0.702728 0.102386
vt 0.702731 0.101295
vt 0.700571 0.102331
vt 0.700859 0.101229
vt 0.704931 0.102328
vt 0.704636 0.103430
vt 0.704643 0.102329
vt 0.703164 0.103502
vt 0.703452 0.102428
vt 0.703490 0.103543
vt 0.692384 0.115364
vt 0.692943 0.112520
vt 0.693213 0.115364
vt 0.702729 0.103506
vt 0.702728 0.102398
vt 0.694126 0.102328
vt 0.694510 0.103435
vt 0.701626 0.103455
vt 0.701149 0.103456
vt 0.705836 0.098052
vt 0.706892 0.094330
vt 0.708235 0.098052
vt 0.706733 0.094330
vt 0.700525 0.101230
vt 0.702274 0.114326
vt 0.692995 0.109692
vt 0.693646 0.108059
vt 0.693645 0.099646
vt 0.693646 0.098052
vt 0.694747 0.098053
vt 0.701626 0.101229
vt 0.702727 0.098969
vt 0.696949 0.108321
vt 0.704070 0.105448
vt 0.704365 0.114327
vt 0.699423 0.101229
vt 0.700525 0.098969
vt 0.700766 0.105449
vt 0.701574 0.098052
vt 0.695046 0.116275
vt 0.698705 0.097543
vt 0.703309 0.103994
vt 0.704410 0.099684
vt 0.699423 0.101229
vt 0.698394 0.107082
vt 0.703309 0.103995
vt 0.697514 0.103489
vt 0.691386 0.116275
vt 0.695045 0.097542
vt 0.704065 0.098052
vt 0.696569 0.113712
vt 0.699421 0.110670
vt 0.696119 0.102837
vt 0.692544 0.108059
vt 0.693645 0.098052
vt 0.693645 0.108058
vt 0.695848 0.098052
vt 0.694960 0.105844
vt 0.701625 0.098969
vt 0.697586 0.099684
vt 0.698322 0.103488
vt 0.703490 0.116242
vt 0.707885 0.113979
vt 0.708584 0.109701
vt 0.705908 0.094330
vt 0.706891 0.094330
vt 0.708852 0.113544
vt 0.704636 0.098969
vt 0.703829 0.102328
vt 0.700008 0.107080
vt 0.704636 0.102328
vt 0.704410 0.103298
vt 0.705512 0.099684
vt 0.699665 0.105449
vt 0.700475 0.098052
vt 0.694850 0.102327
vt 0.695356 0.098969
vt 0.692646 0.102582
vt 0.698564 0.108319
vt 0.699665 0.105450
vt 0.694849 0.102328
vt 0.694475 0.112523
vt 0.696566 0.103165
vt 0.701868 0.105449
vt 0.702967 0.098052
vt 0.694610 0.109690
vt 0.695951 0.103465
vt 0.696779 0.099684
vt 0.696185 0.106403
vt 0.692384 0.112520
vt 0.703128 0.103508
vt 0.692366 0.109948
vt 0.689863 0.105446
vt 0.704248 0.106561
vt 0.694610 0.099684
vt 0.701241 0.102343
vt 0.701161 0.113293
vt 0.692294 0.112503
vt 0.704248 0.112512
vt 0.701626 0.101229
vt 0.692788 0.101242
vt 0.696902 0.101505
vt 0.703829 0.101286
vt 0.699421 0.113712
vt 0.701401 0.105940
vt 0.692523 0.106141
vt 0.693034 0.112089
vt 0.696219 0.114122
vt 0.700008 0.099684
vt 0.701630 0.101978
vt 0.699417 0.110254
vt 0.699417 0.110670
vt 0.692376 0.109948
vt 0.703111 0.102398
vt 0.703164 0.102398
vt 0.692426 0.112520
vt 0.694640 0.102329
vt 0.701534 0.102345
s 0
usemtl Material
f 29/1/1 22/2/1 30/3/1
f 25/4/2 31/5/2 27/6/2
f 23/7/3 28/8/3 32/9/3
f 34/10/3 21/11/3 22/12/3
f 35/13/3 33/14/3 21/11/3
f 36/15/3 32/9/3 33/14/3
f 24/16/2 27/6/2 28/17/2
f 29/1/4 20/18/4 19/19/4
f 8/20/5 21/21/5 11/22/5
f 5/23/6 23/24/6 14/25/6
f 1/26/7 25/27/7 15/28/7
f 7/29/8 27/30/8 16/31/8
f 2/32/9 29/33/9 19/34/9
f 4/35/10 30/36/10 18/37/10
f 7/29/11 32/38/11 28/39/11
f 9/40/12 33/41/12 32/38/12
f 11/22/13 33/41/13 10/42/13
f 6/43/14 35/44/14 34/45/14
f 12/46/15 36/47/15 35/44/15
f 14/25/16 36/47/16 13/48/16
f 5/23/17 25/27/17 24/49/17
f 16/31/8 31/50/8 3/51/8
f 6/43/18 29/33/18 17/52/18
f 8/20/19 30/36/19 22/53/19
f 2/54/20 93/55/20 17/56/20
f 18/57/21 95/58/21 4/59/21
f 96/60/22 16/61/22 3/62/22
f 109/63/23 1/64/23 15/65/23
f 103/66/24 13/67/24 12/68/24
f 105/69/24 14/70/24 13/67/24
f 107/71/3 5/72/3 14/70/3
f 108/73/23 15/65/23 5/74/23
f 10/75/25 111/76/25 11/77/25
f 9/78/25 110/79/25 10/75/25
f 113/80/22 7/81/22 16/61/22
f 7/82/26 112/83/26 9/78/26
f 8/84/27 116/85/27 18/57/27
f 11/77/25 117/86/25 8/87/25
f 118/88/28 12/68/28 6/89/28
f 93/55/29 6/90/29 17/56/29
f 37/91/30 248/92/30 247/93/30
f 39/94/31 42/95/31 119/96/31
f 38/97/32 104/98/32 93/99/32
f 39/100/33 93/99/33 94/101/33
f 39/100/34 262/102/34 260/103/34
f 40/104/35 252/105/35 248/106/35
f 41/107/36 116/108/36 42/109/36
f 42/109/37 115/110/37 40/104/37
f 44/111/38 113/112/38 96/113/38
f 44/111/39 97/114/39 45/115/39
f 45/115/40 98/116/40 46/117/40
f 43/118/41 98/116/41 113/112/41
f 48/119/42 98/116/42 97/114/42
f 48/119/43 237/120/43 235/121/43
f 47/122/13 99/123/13 98/116/13
f 50/124/44 241/125/44 243/126/44
f 51/127/45 99/123/45 50/124/45
f 52/128/46 100/129/46 53/130/46
f 54/131/47 100/129/47 102/132/47
f 55/133/48 102/132/48 101/134/48
f 55/133/49 109/135/49 52/128/49
f 56/136/50 106/137/50 57/138/50
f 244/139/51 106/137/51 246/140/51
f 58/141/52 100/129/52 56/136/52
f 59/142/53 255/143/53 253/144/53
f 60/145/54 251/146/54 250/147/54
f 62/148/55 105/149/55 103/150/55
f 62/148/56 104/98/56 63/151/56
f 63/151/57 258/152/57 256/153/57
f 61/154/58 106/137/58 105/149/58
f 65/155/59 105/149/59 66/156/59
f 66/156/60 106/137/60 67/157/60
f 68/158/61 106/137/61 100/129/61
f 65/155/62 100/129/62 107/159/62
f 69/160/63 107/159/63 70/161/63
f 70/161/64 100/129/64 71/162/64
f 72/163/65 100/129/65 109/135/65
f 69/160/66 109/135/66 108/164/66
f 73/165/67 99/123/67 74/166/67
f 75/167/68 99/123/68 115/110/68
f 76/168/69 115/110/69 111/169/69
f 76/168/70 110/170/70 73/165/70
f 77/171/71 98/116/71 78/172/71
f 78/172/72 99/123/72 79/173/72
f 80/174/73 99/123/73 110/170/73
f 77/171/74 110/170/74 112/175/74
f 81/176/75 113/112/75 82/177/75
f 82/177/76 98/116/76 83/178/76
f 84/179/77 98/116/77 112/175/77
f 81/176/78 112/175/78 114/180/78
f 85/181/79 115/110/79 86/182/79
f 87/183/80 115/110/80 116/108/80
f 88/184/81 116/108/81 117/185/81
f 88/184/82 111/169/82 85/181/82
f 90/186/83 103/150/83 118/187/83
f 90/186/84 93/99/84 91/188/84
f 91/188/85 104/98/85 92/189/85
f 89/190/86 104/98/86 103/150/86
f 62/191/87 73/192/87 61/193/87
f 62/194/88 75/195/88 76/196/88
f 256/197/3 123/198/3 75/199/3
f 61/200/89 74/201/89 123/202/89
f 66/203/87 77/204/87 65/205/87
f 66/206/90 79/207/90 80/208/90
f 45/209/3 55/210/3 44/211/3
f 44/212/20 52/213/20 43/214/20
f 65/215/91 78/216/91 124/217/91
f 43/218/26 53/219/26 120/220/26
f 68/221/3 124/222/3 79/223/3
f 46/224/92 120/225/92 54/226/92
f 70/227/93 83/228/93 84/229/93
f 70/230/26 81/231/26 69/232/26
f 47/233/94 58/234/94 56/235/94
f 69/236/95 82/237/95 125/238/95
f 47/239/26 57/240/26 121/241/26
f 72/242/3 125/243/3 83/244/3
f 49/245/90 121/246/90 244/247/90
f 51/248/96 122/249/96 250/250/96
f 50/251/26 257/252/26 122/253/26
f 38/254/97 42/255/97 40/256/97
f 89/257/98 86/258/98 92/259/98
f 85/260/87 90/261/87 88/262/87
f 91/263/99 88/264/99 90/265/99
f 91/266/100 86/267/100 87/268/100
f 19/19/4 148/269/4 147/270/4
f 141/271/26 142/272/26 140/273/26
f 144/274/2 151/275/2 146/276/2
f 149/277/26 151/278/26 145/279/26
f 150/280/26 152/281/26 149/277/26
f 140/273/26 153/282/26 150/280/26
f 26/283/2 146/276/2 31/5/2
f 141/284/101 148/269/101 143/285/101
f 127/286/102 140/287/102 132/288/102
f 129/289/103 142/290/103 143/291/103
f 126/292/7 144/293/7 136/294/7
f 3/51/8 146/295/8 137/296/8
f 127/286/104 147/297/104 141/298/104
f 129/289/105 148/299/105 139/300/105
f 126/292/106 149/301/106 145/302/106
f 130/303/107 150/304/107 149/301/107
f 132/288/108 150/304/108 131/305/108
f 128/306/109 152/307/109 133/308/109
f 133/308/110 153/309/110 134/310/110
f 135/311/111 153/309/111 142/290/111
f 136/294/7 26/312/7 1/26/7
f 128/306/112 146/295/112 151/313/112
f 138/314/9 19/34/9 147/297/9
f 139/300/10 20/315/10 4/35/10
f 195/316/113 138/317/113 127/318/113
f 132/319/114 195/320/114 127/321/114
f 197/322/115 135/323/115 129/324/115
f 139/325/116 197/326/116 129/327/116
f 198/328/22 137/329/22 128/330/22
f 199/331/3 128/332/3 133/333/3
f 201/334/115 133/333/115 134/335/115
f 196/336/115 134/335/115 135/323/115
f 126/337/87 204/338/87 130/339/87
f 207/340/23 126/341/23 136/342/23
f 130/339/114 206/343/114 131/344/114
f 131/344/114 205/345/114 132/319/114
f 101/346/23 136/342/23 1/64/23
f 208/347/22 3/62/22 137/329/22
f 4/59/21 209/348/21 139/325/21
f 138/317/20 94/349/20 2/54/20
f 155/350/24 157/351/24 158/352/24
f 155/353/117 159/354/117 210/355/117
f 155/356/118 194/357/118 195/358/118
f 155/356/119 205/359/119 156/360/119
f 156/360/120 230/361/120 226/362/120
f 158/363/121 196/364/121 197/365/121
f 158/363/122 209/366/122 159/367/122
f 159/367/123 220/368/123 222/369/123
f 161/370/124 208/371/124 198/372/124
f 161/370/125 199/373/125 162/374/125
f 162/374/40 200/375/40 163/376/40
f 160/377/41 200/375/41 208/371/41
f 165/378/126 200/375/126 199/373/126
f 165/378/127 201/379/127 166/380/127
f 166/380/128 214/381/128 215/382/128
f 168/383/129 201/379/129 196/364/129
f 168/383/130 231/384/130 228/385/130
f 169/386/46 202/387/46 170/388/46
f 171/389/131 202/387/131 204/390/131
f 172/391/132 204/390/132 203/392/132
f 172/391/49 207/393/49 169/386/49
f 232/394/133 202/387/133 234/395/133
f 175/396/134 206/397/134 204/390/134
f 175/396/135 202/387/135 173/398/135
f 176/399/136 206/397/136 177/400/136
f 177/400/137 219/401/137 218/402/137
f 239/403/138 102/132/138 238/404/138
f 178/405/139 202/387/139 102/132/139
f 180/406/140 102/132/140 181/407/140
f 181/407/141 202/387/141 182/408/141
f 183/409/65 202/387/65 207/393/65
f 180/406/142 207/393/142 101/134/142
f 184/410/143 200/375/143 185/411/143
f 185/411/144 267/412/144 266/413/144
f 186/414/75 208/371/75 187/415/75
f 187/415/76 200/375/76 188/416/76
f 189/417/145 200/375/145 97/114/145
f 186/414/37 97/114/37 96/113/37
f 259/418/146 264/419/146 263/420/146
f 191/421/147 209/366/147 95/422/147
f 191/421/148 259/423/148 263/424/148
f 192/425/149 194/357/149 193/426/149
f 193/426/150 225/427/150 224/428/150
f 161/429/3 171/430/3 172/232/3
f 161/431/20 169/432/20 160/433/20
f 178/434/94 185/435/94 212/436/94
f 160/437/26 170/438/26 211/439/26
f 163/440/92 170/441/92 171/442/92
f 182/443/92 189/444/92 181/445/92
f 165/446/24 174/447/24 175/205/24
f 180/448/26 189/449/26 186/450/26
f 164/451/94 175/452/94 173/453/94
f 180/454/151 187/455/151 213/456/151
f 183/457/3 213/458/3 188/459/3
f 167/460/24 176/461/24 177/193/24
f 216/462/152 177/463/152 218/464/152
f 154/465/97 159/466/97 222/467/97
f 193/468/153 191/469/153 192/470/153
f 221/471/154 220/472/154 225/473/154
f 215/474/90 174/475/90 166/476/90
f 174/477/155 219/401/155 206/397/155
f 167/478/156 214/381/156 201/379/156
f 193/479/100 223/480/100 190/481/100
f 250/482/157 252/483/157 249/484/157
f 190/485/80 220/368/80 209/366/80
f 154/486/158 225/427/158 194/357/158
f 228/487/88 176/488/88 168/489/88
f 229/490/159 205/359/159 176/399/159
f 157/491/160 231/384/160 196/364/160
f 156/492/161 227/493/161 157/494/161
f 179/495/162 234/395/162 202/387/162
f 178/496/26 240/497/26 184/498/26
f 184/410/163 237/120/163 97/114/163
f 48/499/164 236/500/164 58/501/164
f 236/502/165 102/132/165 58/141/165
f 243/503/166 59/504/166 50/505/166
f 59/142/167 246/140/167 106/137/167
f 49/506/168 241/125/168 99/123/168
f 51/127/169 252/105/169 115/110/169
f 247/507/170 104/98/170 37/508/170
f 64/509/171 255/143/171 106/137/171
f 257/510/172 255/143/172 258/152/172
f 60/145/57 258/152/57 104/98/57
f 256/153/172 255/143/172 254/511/172
f 263/512/87 192/513/87 191/514/87
f 264/515/173 94/101/173 192/425/173
f 41/107/174 259/423/174 95/422/174
f 39/516/24 261/517/24 41/518/24
f 231/519/175 229/520/175 228/521/175
f 164/522/176 267/412/176 200/375/176
f 232/523/26 164/524/26 173/95/26
f 233/525/177 212/526/177 185/527/177
f 218/528/178 214/529/178 216/530/178
f 234/531/179 265/532/179 232/523/179
f 239/533/180 237/534/180 240/497/180
f 243/535/181 246/536/181 245/537/181
f 246/536/182 242/538/182 244/539/182
f 252/483/183 247/540/183 248/541/183
f 262/542/184 261/543/184 260/544/184
f 236/545/185 237/546/185 238/547/185
f 233/548/186 267/549/186 234/550/186
f 225/473/187 223/551/187 224/552/187
f 219/553/188 215/554/188 214/529/188
f 231/519/189 226/555/189 230/556/189
f 29/1/1 34/557/1 22/2/1
f 25/4/2 26/283/2 31/5/2
f 23/7/3 24/279/3 28/8/3
f 34/10/3 35/13/3 21/11/3
f 35/13/3 36/15/3 33/14/3
f 36/15/3 23/7/3 32/9/3
f 24/16/2 25/4/2 27/6/2
f 29/1/4 30/3/4 20/18/4
f 8/20/19 22/53/19 21/21/19
f 5/23/190 24/49/190 23/24/190
f 1/26/7 26/312/7 25/27/7
f 7/29/8 28/39/8 27/30/8
f 2/32/9 17/52/9 29/33/9
f 4/35/10 20/315/10 30/36/10
f 7/29/191 9/40/191 32/38/191
f 9/40/192 10/42/192 33/41/192
f 11/22/193 21/21/193 33/41/193
f 6/43/194 12/46/194 35/44/194
f 12/46/195 13/48/195 36/47/195
f 14/25/196 23/24/196 36/47/196
f 5/23/7 15/28/7 25/27/7
f 16/31/8 27/30/8 31/50/8
f 6/43/14 34/45/14 29/33/14
f 8/20/197 18/37/197 30/36/197
f 2/54/20 94/349/20 93/55/20
f 18/57/21 116/85/21 95/58/21
f 96/60/22 113/80/22 16/61/22
f 109/63/23 101/346/23 1/64/23
f 103/66/24 105/69/24 13/67/24
f 105/69/3 107/71/3 14/70/3
f 107/71/3 108/558/3 5/72/3
f 108/73/23 109/63/23 15/65/23
f 10/75/25 110/79/25 111/76/25
f 9/78/26 112/83/26 110/79/26
f 113/80/22 114/559/22 7/81/22
f 7/82/26 114/560/26 112/83/26
f 8/84/27 117/559/27 116/85/27
f 11/77/25 111/76/25 117/86/25
f 118/88/24 103/66/24 12/68/24
f 93/55/29 118/81/29 6/90/29
f 37/91/198 40/561/198 248/92/198
f 119/96/90 38/213/90 39/94/90
f 39/94/153 41/562/153 42/95/153
f 38/97/199 37/508/199 104/98/199
f 39/100/200 38/97/200 93/99/200
f 39/100/201 94/101/201 262/102/201
f 40/104/202 115/110/202 252/105/202
f 41/107/203 95/422/203 116/108/203
f 42/109/204 116/108/204 115/110/204
f 44/111/205 43/118/205 113/112/205
f 44/111/206 96/113/206 97/114/206
f 45/115/207 97/114/207 98/116/207
f 43/118/208 46/117/208 98/116/208
f 48/119/209 47/122/209 98/116/209
f 48/119/210 97/114/210 237/120/210
f 47/122/211 49/506/211 99/123/211
f 50/124/212 99/123/212 241/125/212
f 51/127/213 115/110/213 99/123/213
f 52/128/214 109/135/214 100/129/214
f 54/131/215 53/130/215 100/129/215
f 55/133/216 54/131/216 102/132/216
f 55/133/217 101/134/217 109/135/217
f 56/136/195 100/129/195 106/137/195
f 244/139/218 57/138/218 106/137/218
f 58/141/219 102/132/219 100/129/219
f 59/142/53 106/137/53 255/143/53
f 60/145/220 104/98/220 251/146/220
f 62/148/221 61/154/221 105/149/221
f 62/148/222 103/150/222 104/98/222
f 63/151/57 104/98/57 258/152/57
f 61/154/223 64/509/223 106/137/223
f 65/155/224 107/159/224 105/149/224
f 66/156/225 105/149/225 106/137/225
f 68/158/226 67/157/226 106/137/226
f 65/155/227 68/158/227 100/129/227
f 69/160/228 108/164/228 107/159/228
f 70/161/229 107/159/229 100/129/229
f 72/163/230 71/162/230 100/129/230
f 69/160/231 72/163/231 109/135/231
f 73/165/232 110/170/232 99/123/232
f 75/167/45 74/166/45 99/123/45
f 76/168/233 75/167/233 115/110/233
f 76/168/234 111/169/234 110/170/234
f 77/171/235 112/175/235 98/116/235
f 78/172/236 98/116/236 99/123/236
f 80/174/128 79/173/128 99/123/128
f 77/171/237 80/174/237 110/170/237
f 81/176/238 114/180/238 113/112/238
f 82/177/239 113/112/239 98/116/239
f 84/179/240 83/178/240 98/116/240
f 81/176/241 84/179/241 112/175/241
f 85/181/242 111/169/242 115/110/242
f 87/183/243 86/182/243 115/110/243
f 88/184/244 87/183/244 116/108/244
f 88/184/245 117/185/245 111/169/245
f 90/186/246 89/190/246 103/150/246
f 90/186/247 118/187/247 93/99/247
f 91/188/248 93/99/248 104/98/248
f 89/190/249 92/189/249 104/98/249
f 62/191/87 76/563/87 73/192/87
f 62/194/250 63/207/250 75/195/250
f 75/199/3 63/564/3 256/197/3
f 256/197/251 254/565/251 64/566/251
f 123/198/3 74/567/3 75/199/3
f 256/197/3 64/566/3 123/198/3
f 123/202/166 64/568/166 61/200/166
f 61/200/89 73/569/89 74/201/89
f 66/203/87 80/570/87 77/204/87
f 66/206/252 67/228/252 79/207/252
f 45/209/3 54/571/3 55/210/3
f 44/212/20 55/572/20 52/213/20
f 124/217/253 68/573/253 65/215/253
f 65/215/91 77/574/91 78/216/91
f 120/220/26 46/575/26 43/218/26
f 43/218/26 52/576/26 53/219/26
f 79/223/3 67/577/3 68/221/3
f 124/222/3 78/578/3 79/223/3
f 54/226/92 45/579/92 46/224/92
f 120/225/92 53/580/92 54/226/92
f 70/227/254 71/581/254 83/228/254
f 70/230/26 84/582/26 81/231/26
f 47/233/94 48/583/94 58/234/94
f 125/238/255 72/584/255 69/236/255
f 69/236/20 81/228/20 82/237/20
f 121/241/26 49/585/26 47/239/26
f 47/239/26 56/586/26 57/240/26
f 83/244/3 71/459/3 72/242/3
f 125/243/24 82/587/24 83/244/24
f 244/247/256 242/588/256 49/245/256
f 121/246/257 57/589/257 244/247/257
f 250/250/258 249/590/258 51/248/258
f 122/249/259 60/207/259 250/250/259
f 122/253/87 51/591/87 50/251/87
f 50/251/26 59/592/26 253/565/26
f 257/252/26 60/593/26 122/253/26
f 50/251/26 253/565/26 257/252/26
f 40/256/97 37/594/97 38/254/97
f 38/254/260 119/595/260 42/255/260
f 89/257/161 85/596/161 86/258/161
f 85/260/87 89/597/87 90/261/87
f 91/263/99 87/598/99 88/264/99
f 91/266/100 92/594/100 86/267/100
f 19/19/4 20/18/4 148/269/4
f 141/271/26 143/599/26 142/272/26
f 144/274/2 145/600/2 151/275/2
f 149/277/26 152/281/26 151/278/26
f 150/280/26 153/282/26 152/281/26
f 140/273/26 142/272/26 153/282/26
f 26/283/2 144/274/2 146/276/2
f 141/284/101 147/270/101 148/269/101
f 127/286/261 141/298/261 140/287/261
f 129/289/262 135/311/262 142/290/262
f 126/292/263 145/302/263 144/293/263
f 3/51/8 31/50/8 146/295/8
f 127/286/264 138/314/264 147/297/264
f 129/289/265 143/291/265 148/299/265
f 126/292/266 130/303/266 149/301/266
f 130/303/267 131/305/267 150/304/267
f 132/288/268 140/287/268 150/304/268
f 128/306/269 151/313/269 152/307/269
f 133/308/270 152/307/270 153/309/270
f 135/311/271 134/310/271 153/309/271
f 136/294/7 144/293/7 26/312/7
f 128/306/8 137/296/8 146/295/8
f 138/314/9 2/32/9 19/34/9
f 139/300/10 148/299/10 20/315/10
f 195/316/113 194/601/113 138/317/113
f 132/319/114 205/345/114 195/320/114
f 197/322/115 196/336/115 135/323/115
f 139/325/116 209/348/116 197/326/116
f 198/328/22 208/347/22 137/329/22
f 199/331/3 198/602/3 128/332/3
f 201/334/3 199/331/3 133/333/3
f 196/336/115 201/334/115 134/335/115
f 126/337/26 203/603/26 204/338/26
f 207/340/23 203/604/23 126/341/23
f 130/339/87 204/338/87 206/343/87
f 131/344/114 206/343/114 205/345/114
f 101/346/23 207/340/23 136/342/23
f 208/347/22 96/60/22 3/62/22
f 4/59/21 95/58/21 209/348/21
f 138/317/20 194/601/20 94/349/20
f 155/350/24 156/597/24 157/351/24
f 210/355/252 154/605/252 155/353/252
f 155/353/272 158/606/272 159/354/272
f 155/356/273 154/486/273 194/357/273
f 155/356/274 195/358/274 205/359/274
f 156/360/275 205/359/275 230/361/275
f 158/363/276 157/491/276 196/364/276
f 158/363/277 197/365/277 209/366/277
f 159/367/204 209/366/204 220/368/204
f 161/370/205 160/377/205 208/371/205
f 161/370/278 198/372/278 199/373/278
f 162/374/279 199/373/279 200/375/279
f 160/377/208 163/376/208 200/375/208
f 165/378/280 164/522/280 200/375/280
f 165/378/126 199/373/126 201/379/126
f 166/380/281 201/379/281 214/381/281
f 168/383/129 167/478/129 201/379/129
f 168/383/70 196/364/70 231/384/70
f 169/386/214 207/393/214 202/387/214
f 171/389/282 170/388/282 202/387/282
f 172/391/283 171/389/283 204/390/283
f 172/391/284 203/392/284 207/393/284
f 232/394/285 173/398/285 202/387/285
f 175/396/286 174/477/286 206/397/286
f 175/396/287 204/390/287 202/387/287
f 176/399/136 205/359/136 206/397/136
f 177/400/288 206/397/288 219/401/288
f 239/403/289 178/405/289 102/132/289
f 178/405/290 179/495/290 202/387/290
f 180/406/291 101/134/291 102/132/291
f 181/407/292 102/132/292 202/387/292
f 183/409/230 182/408/230 202/387/230
f 180/406/231 183/409/231 207/393/231
f 184/410/293 97/114/293 200/375/293
f 185/411/294 200/375/294 267/412/294
f 186/414/295 96/113/295 208/371/295
f 187/415/239 208/371/239 200/375/239
f 189/417/296 188/416/296 200/375/296
f 186/414/297 189/417/297 97/114/297
f 259/418/298 262/542/298 264/419/298
f 191/421/299 190/485/299 209/366/299
f 191/421/300 95/422/300 259/423/300
f 192/425/301 94/101/301 194/357/301
f 193/426/302 194/357/302 225/427/302
f 161/429/3 162/607/3 171/430/3
f 161/431/20 172/608/20 169/432/20
f 212/436/303 179/609/303 178/434/303
f 178/434/94 184/610/94 185/435/94
f 211/439/26 163/611/26 160/437/26
f 160/437/26 169/612/26 170/438/26
f 171/442/304 162/613/304 163/440/304
f 163/440/3 211/614/3 170/441/3
f 182/443/92 188/615/92 189/444/92
f 165/446/24 166/616/24 174/447/24
f 180/448/26 181/617/26 189/449/26
f 164/451/305 165/618/305 175/452/305
f 213/456/255 183/619/255 180/454/255
f 180/454/20 186/620/20 187/455/20
f 188/459/3 182/621/3 183/457/3
f 213/458/24 187/622/24 188/459/24
f 167/460/24 168/623/24 176/461/24
f 216/462/89 167/624/89 177/463/89
f 222/467/306 221/625/306 154/465/306
f 154/465/307 210/626/307 159/466/307
f 193/468/153 190/627/153 191/469/153
f 221/471/308 222/628/308 220/472/308
f 215/474/309 217/629/309 174/475/309
f 174/477/310 217/630/310 219/401/310
f 167/478/311 216/631/311 214/381/311
f 193/479/312 224/632/312 223/480/312
f 250/482/313 251/633/313 252/483/313
f 190/485/243 223/634/243 220/368/243
f 154/486/314 221/635/314 225/427/314
f 228/487/252 229/353/252 176/488/252
f 229/490/315 230/361/315 205/359/315
f 157/491/316 227/636/316 231/384/316
f 156/492/317 226/637/317 227/493/317
f 179/495/318 233/638/318 234/395/318
f 178/496/26 239/533/26 240/497/26
f 184/410/319 240/639/319 237/120/319
f 48/499/320 235/640/320 236/500/320
f 236/502/321 238/404/321 102/132/321
f 243/503/322 245/641/322 59/504/322
f 59/142/323 245/642/323 246/140/323
f 49/506/324 242/643/324 241/125/324
f 51/127/325 249/644/325 252/105/325
f 247/507/326 251/146/326 104/98/326
f 64/509/171 254/511/171 255/143/171
f 257/510/327 253/144/327 255/143/327
f 60/145/57 257/510/57 258/152/57
f 256/153/328 258/152/328 255/143/328
f 263/512/329 264/235/329 192/513/329
f 264/515/330 262/102/330 94/101/330
f 41/107/331 261/645/331 259/423/331
f 39/516/24 260/646/24 261/517/24
f 231/519/332 230/556/332 229/520/332
f 164/522/333 265/647/333 267/412/333
f 232/523/26 265/532/26 164/524/26
f 185/527/334 266/648/334 233/525/334
f 233/525/177 179/620/177 212/526/177
f 218/528/335 219/553/335 214/529/335
f 234/531/336 267/649/336 265/532/336
f 239/533/337 238/650/337 237/534/337
f 243/535/338 241/651/338 246/536/338
f 246/536/339 241/651/339 242/538/339
f 252/483/340 251/633/340 247/540/340
f 262/542/341 259/418/341 261/543/341
f 236/545/342 235/652/342 237/546/342
f 233/548/343 266/653/343 267/549/343
f 225/473/344 220/472/344 223/551/344
f 219/553/345 217/654/345 215/554/345
f 231/519/346 227/655/346 226/555/346
g window_panel_1.001_Mesh
v -0.310919 1.582270 -0.085299
v -0.402566 1.713358 -0.021325
v -0.536250 1.647989 -0.085299
v 0.804339 1.713941 0.039096
v -0.520352 0.328791 -0.021325
v 0.804339 0.160180 0.039096
v 0.805641 1.718733 0.068078
v -0.449882 1.673320 -0.085299
v 0.804339 0.160180 0.050522
v -0.254973 1.702735 -0.021325
v -0.534650 0.388907 -0.009899
v -0.548762 1.586123 -0.073873
v -0.204744 1.664798 -0.085299
v 0.038091 1.628090 -0.050715
v -0.422665 0.303133 -0.034097
v -0.348954 0.443770 -0.085299
v -0.303375 0.414237 -0.085299
v -0.119159 0.369233 -0.021325
v -0.049174 0.532188 -0.085299
v 0.091825 0.487364 -0.021325
v -0.453457 1.620791 -0.073873
v -0.365537 1.706748 0.000312
v -0.309111 1.681724 -0.009899
v -0.285167 1.562298 -0.025213
v -0.153972 1.584807 -0.042653
v -0.011754 1.624557 0.022864
v -0.460793 0.357390 -0.009899
v -0.357891 0.486960 -0.073873
v -0.294108 0.428828 -0.073873
v -0.155076 0.370016 0.011590
v -0.049174 0.532188 -0.073873
v 0.053782 0.451761 0.023093
v 0.804339 1.631747 0.039096
v 0.804339 0.684522 0.039096
v 0.804339 0.428763 0.039096
v 0.804339 0.242374 0.039096
v -0.555165 1.321732 -0.085299
v -0.698349 0.786808 -0.025496
v -0.581568 0.633561 -0.085299
v -0.508913 0.530633 -0.021325
v 0.804339 1.631747 0.050522
v 0.804339 0.684522 0.050522
v 0.804339 0.428763 0.050522
v 0.804339 0.242374 0.050522
v -0.525674 1.328736 -0.073873
v -0.696504 0.786477 -0.009899
v -0.545807 0.605707 -0.030106
v -0.523658 0.482774 -0.009899
v 0.102329 1.437824 -0.030641
v 0.415318 0.923736 -0.073873
v 0.115506 0.929101 -0.049047
v 0.118860 0.756196 -0.039948
v 0.373979 0.954524 -0.079586
v 0.070089 0.928199 -0.054128
v 0.165682 0.776040 -0.085299
v 0.122877 0.934918 -0.071466
v 0.390931 0.935992 -0.085299
v 0.066479 1.470671 -0.085299
v 0.015364 1.447767 -0.079586
v 0.069681 0.773297 -0.079586
v 0.022768 0.531023 -0.032856
v -0.087593 0.565936 -0.079586
v -0.149645 0.454063 -0.035564
v -0.294602 0.461872 -0.079586
v -0.347651 0.541413 -0.079586
v -0.452184 0.413268 -0.018725
v -0.497216 0.427688 -0.015612
v -0.478752 0.558965 -0.015612
v -0.473349 0.657790 -0.079586
v -0.641566 0.787647 -0.024654
v -0.515081 1.275403 -0.079586
v -0.496612 1.567084 -0.079586
v -0.342480 1.582772 -0.079586
v -0.343454 1.669547 -0.040067
v -0.306239 1.638449 -0.015612
v -0.307787 1.483964 -0.079586
v -0.175529 1.593471 -0.079586
v -0.074843 1.574880 -0.015611
v -0.525844 1.818137 0.039096
v -0.362351 1.818137 0.039096
v 0.981428 0.242374 0.039096
v 0.981428 0.055984 0.039096
v -0.216052 1.818137 0.039096
v -0.037596 1.818137 0.039096
v -1.023283 0.242374 0.039095
v -1.023283 0.055984 0.039095
v 0.319317 1.818137 0.039096
v 0.981428 1.818137 0.039096
v 0.319317 0.055984 0.039096
v -1.023283 1.818137 0.039095
v 0.981428 0.242374 0.050522
v 0.981428 0.055984 0.050522
v -1.023283 0.242374 0.050522
v -1.023283 0.055984 0.050522
v 0.306429 1.811316 0.053840
v 0.981428 1.818137 0.050522
v 0.319317 0.055984 0.050522
v 0.140861 1.818137 0.039096
v -0.525844 0.055984 0.039095
v -0.362351 0.055984 0.039095
v -0.216052 0.055984 0.039095
v -0.028859 0.055984 0.024252
v 0.149597 0.055984 0.024252
v -1.023283 1.818137 0.050522
v -0.525844 1.818137 0.050522
v -0.362351 1.818137 0.050522
v -0.216052 1.818137 0.050522
v -0.037596 1.818137 0.050522
v 0.140861 1.818137 0.050522
v -0.525844 0.055984 0.050522
v -0.362351 0.055984 0.050522
v -0.216052 0.055984 0.050522
v -0.037596 0.055984 0.050522
v 0.140861 0.055984 0.050522
v 0.981428 1.631747 0.039096
v 0.981428 0.684522 0.039096
v 0.981428 0.428763 0.039096
v -1.023283 1.631747 0.039095
v -1.023283 0.684522 0.039095
v -1.023283 0.428763 0.039095
v 0.981428 1.631747 0.050522
v 0.981428 0.684522 0.050522
v 0.981428 0.428763 0.050522
v -1.023283 1.631747 0.050522
v -1.023283 0.684522 0.050522
v -1.023283 0.428763 0.050522
v -1.023283 1.158134 0.039095
v -1.023283 1.158134 0.050522
v -0.725325 0.929165 -0.015612
v -0.771638 0.956979 -0.021325
v -0.756892 0.960481 -0.009899
v 0.981428 1.158134 0.039096
v 0.981428 1.158134 0.050522
v 0.708052 1.306385 0.014813
v 0.676779 1.327019 -0.021325
v 0.642745 1.324833 -0.015611
v 0.804339 1.158134 0.039096
v 0.804339 1.158134 0.050522
vn -1.0000 -0.0000 -0.0000
vn -0.0000 1.0000 -0.0000
vn -0.0000 -1.0000 -0.0000
vn 1.0000 -0.0000 -0.0000
vn -0.0000 0.9076 0.4198
vn -0.0365 -0.0000 0.9993
vn 0.0077 -0.2182 -0.9759
vn -0.1879 0.1783 -0.9659
vn -0.3414 -0.2649 0.9018
vn 0.1235 -0.9477 -0.2944
vn -0.6816 -0.2741 0.6785
vn -0.6241 -0.1428 0.7682
vn 0.0966 -0.7051 0.7025
vn 0.0117 -0.1151 0.9933
vn 0.1125 0.0101 0.9936
vn 0.2649 0.0919 0.9599
vn 0.2558 0.1058 0.9609
vn 0.1878 0.5265 0.8292
vn 0.1648 -0.0232 0.9861
vn 0.0442 0.1037 0.9936
vn 0.4635 0.0682 0.8835
vn 0.1214 0.0810 0.9893
vn -0.2790 0.1596 0.9469
vn 0.1164 -0.0000 -0.9932
vn 0.3297 -0.0873 -0.9400
vn 0.2881 -0.0000 -0.9576
vn 0.2696 0.1554 -0.9504
vn -0.0503 0.4911 0.8696
vn 0.4815 0.5907 -0.6475
vn -0.6100 0.2836 0.7399
vn -0.6211 0.0292 0.7832
vn -0.3986 0.0935 0.9123
vn 0.0841 0.2899 0.9534
vn -0.1166 -0.5113 0.8514
vn 0.0261 -0.5885 -0.8081
vn 0.0471 -0.0606 -0.9971
vn -0.9957 -0.0266 0.0883
vn 0.3119 -0.3280 -0.8917
vn 0.3035 0.6905 -0.6566
vn 0.0057 -0.0562 -0.9984
vn 0.1278 -0.0074 -0.9918
vn 0.1821 0.1024 -0.9779
vn 0.0083 0.3690 -0.9294
vn 0.1649 -0.5423 -0.8238
vn 0.2132 -0.0300 -0.9766
vn -0.0470 0.0686 -0.9965
vn -0.5364 -0.0260 -0.8436
vn -0.0588 -0.1966 0.9787
vn -0.3046 -0.0000 0.9525
vn -0.1308 -0.0000 0.9914
vn 0.0856 0.0571 -0.9947
vn 0.2930 0.0605 -0.9542
vn -0.2652 -0.2515 -0.9308
vn -0.4609 -0.3897 0.7973
vn -0.0533 -0.1792 -0.9824
vn -0.3260 0.1542 -0.9327
vn -0.0802 0.2259 -0.9708
vn -0.0715 0.9840 0.1635
vn -0.0000 0.4995 -0.8663
vn -0.0000 -0.0000 -1.0000
vn -0.0047 0.4707 -0.8823
vn -0.1204 0.0068 -0.9927
vn 0.0268 -0.1248 -0.9918
vn -0.1725 0.5882 -0.7901
vn -0.0000 -0.0000 1.0000
vn -0.0000 0.4638 -0.8859
vn 0.1227 -0.0000 0.9924
vn -0.0448 -0.0887 0.9951
vn -0.0000 0.4273 -0.9041
vn -0.0000 0.6300 -0.7766
vn -0.0000 -0.2162 -0.9763
vn -0.0000 -0.2840 -0.9588
vn -0.1904 -0.2939 -0.9367
vn 0.2596 -0.2597 -0.9301
vn -0.0000 -0.1440 -0.9896
vn 0.4015 -0.0429 -0.9149
vn -0.0000 -0.4725 0.8813
vn -0.1364 -0.5636 0.8147
vn -0.0171 -0.4105 0.9117
vn -0.0000 -0.4050 0.9143
vn 0.1926 -0.4453 0.8744
vn -0.4609 0.2413 0.8540
vn 0.0768 0.1800 0.9807
vn 0.2440 0.2666 0.9324
vn -0.0000 0.3165 0.9486
vn -0.0000 0.1230 0.9924
vn 0.2311 0.3312 0.9148
vn -0.0000 0.0691 0.9976
vn -0.2475 -0.0000 -0.9689
vn -0.2335 -0.0000 -0.9724
vn -0.2468 0.1832 -0.9516
vn 0.0042 -0.5257 -0.8506
vn 0.0994 -0.0000 0.9950
vn 0.2556 0.0229 0.9665
vn 0.2358 0.0208 0.9716
vn 0.1586 0.0219 0.9871
vn 0.1201 -0.0000 0.9928
vn 0.1643 0.0570 0.9848
vn -0.2568 -0.0000 -0.9665
vn -0.0353 -0.1523 -0.9877
vn 0.3215 -0.0375 0.9462
vn 0.0350 -0.3148 -0.9485
vn -0.3477 -0.0000 0.9376
vn -0.1976 -0.9668 -0.1620
vn 0.1353 0.1379 -0.9812
vn -0.0072 0.9099 0.4147
vn 0.0412 0.9992 -0.0000
vn 0.0196 0.1987 0.9799
vn 0.0845 -0.0000 -0.9964
vn -0.3728 0.1923 -0.9078
vn -0.0554 -0.9788 -0.1973
vn 0.4873 -0.5885 0.6451
vn -0.0280 -0.1327 0.9908
vn -0.2383 -0.7757 0.5844
vn -0.0950 -0.4135 0.9055
vn 0.0540 -0.1484 0.9874
vn 0.3784 -0.0240 0.9253
vn 0.2565 0.0903 0.9623
vn 0.4451 0.2082 0.8709
vn -0.1142 0.1411 0.9834
vn 0.1711 -0.0200 0.9851
vn 0.1123 0.1381 0.9840
vn 0.5078 -0.0051 0.8614
vn 0.1554 0.1706 0.9730
vn -0.3023 0.4812 0.8229
vn 0.1121 0.2325 -0.9661
vn -0.0485 -0.2750 -0.9602
vn 0.1912 -0.0000 -0.9816
vn 0.1251 0.3024 0.9449
vn 0.4630 0.6323 -0.6212
vn -0.5497 0.2596 0.7940
vn -0.1066 -0.1610 0.9812
vn -0.1705 -0.0463 0.9843
vn -0.0548 0.9450 0.3224
vn -0.4683 -0.4957 0.7314
vn 0.5502 0.1597 -0.8196
vn 0.0468 -0.0565 -0.9973
vn -0.7351 0.5511 -0.3949
vn 0.0308 0.4280 -0.9033
vn 0.3721 0.3882 -0.8431
vn 0.0181 -0.0616 -0.9979
vn 0.1316 -0.0083 -0.9913
vn 0.0137 0.0719 -0.9973
vn -0.0304 0.3558 -0.9341
vn 0.4075 -0.2570 -0.8763
vn 0.3098 -0.0176 -0.9506
vn -0.1001 0.1112 -0.9887
vn -0.5528 0.0560 -0.8315
vn -0.0200 -0.2866 0.9578
vn -0.3168 0.0226 0.9482
vn 0.0840 0.3045 0.9488
vn -0.1071 0.0502 0.9930
vn 0.0689 0.1063 -0.9919
vn 0.3180 -0.0447 -0.9470
vn -0.3094 -0.1947 -0.9308
vn -0.4513 0.3900 0.8026
vn 0.0225 -0.2218 -0.9748
vn -0.0613 0.0702 -0.9957
vn -0.1764 0.2832 -0.9427
vn -0.0509 0.2514 -0.9665
vn 0.2814 0.7059 -0.6500
vn -0.1193 -0.0000 -0.9929
vn 0.0723 0.3367 -0.9388
vn -0.0000 0.5902 -0.8073
vn 0.0352 0.4891 -0.8715
vn 0.1271 -0.0149 0.9918
vn 0.0031 0.1685 0.9857
vn -0.0130 0.0605 0.9981
vn 0.1825 0.3377 -0.9234
vn -0.6070 0.7810 -0.1470
vn -0.1806 -0.2092 -0.9610
vn -0.0840 -0.3017 -0.9497
vn -0.0000 -0.3280 -0.9447
vn -0.0780 -0.1655 -0.9831
vn -0.1803 -0.2914 -0.9395
vn 0.0867 -0.0932 -0.9919
vn 0.1741 -0.4786 0.8606
vn -0.0000 -0.4109 0.9117
vn -0.1405 -0.1536 0.9781
vn -0.0000 -0.3709 0.9287
vn -0.0249 -0.1221 0.9922
vn -0.0000 0.1786 0.9839
vn -0.0000 0.1966 0.9805
vn 0.2430 0.2667 0.9326
vn -0.4521 0.1957 0.8702
vn -0.7265 -0.1129 0.6778
vn -0.2479 0.0144 -0.9687
vn -0.1787 -0.0529 -0.9825
vn -0.2711 -0.0000 -0.9626
vn -0.1167 -0.0000 -0.9932
vn -0.0000 -0.1978 0.9802
vn 0.2536 -0.0000 0.9673
vn 0.2425 -0.0000 0.9701
vn 0.1818 -0.0000 0.9833
vn 0.0991 0.1788 0.9789
vn 0.2212 -0.0000 0.9752
vn -0.2497 -0.0216 -0.9681
vn 0.0089 -0.1869 -0.9823
vn 0.2214 0.0455 0.9741
vn -0.0806 -0.6709 -0.7371
vn -0.0922 -0.0816 0.9924
vn -0.2062 -0.9635 0.1706
vn 0.4281 -0.0000 -0.9037
vt 0.527134 0.982708
vt 0.527155 0.982370
vt 0.527155 0.982708
vt 0.521325 0.983590
vt 0.521343 0.984493
vt 0.521322 0.984493
vt 0.527058 0.986470
vt 0.527037 0.985568
vt 0.527058 0.985568
vt 0.527058 0.987032
vt 0.527037 0.986767
vt 0.527058 0.986767
vt 0.527058 0.989204
vt 0.527037 0.988003
vt 0.527058 0.988003
vt 0.527037 0.986470
vt 0.522414 0.975778
vt 0.522434 0.976116
vt 0.522414 0.976116
vt 0.527037 0.987356
vt 0.527037 0.987032
vt 0.527085 0.987372
vt 0.527037 0.987679
vt 0.527085 0.987695
vt 0.521318 0.986027
vt 0.521335 0.987229
vt 0.521315 0.987228
vt 0.521319 0.985703
vt 0.521346 0.986004
vt 0.521320 0.985379
vt 0.521340 0.985703
vt 0.521321 0.985055
vt 0.521341 0.985379
vt 0.521322 0.984790
vt 0.521342 0.985055
vt 0.521342 0.984790
vt 0.531668 0.972907
vt 0.531287 0.971548
vt 0.531817 0.972907
vt 0.519313 0.965052
vt 0.518866 0.966345
vt 0.518341 0.966211
vt 0.517122 0.966484
vt 0.516796 0.966443
vt 0.517080 0.966391
vt 0.529227 0.971174
vt 0.529247 0.971315
vt 0.529160 0.971426
vt 0.531487 0.984298
vt 0.531559 0.984506
vt 0.531487 0.984537
vt 0.529269 0.970935
vt 0.529132 0.970896
vt 0.529408 0.970899
vt 0.529054 0.970890
vt 0.529074 0.970830
vt 0.529160 0.970634
vt 0.529009 0.970786
vt 0.529257 0.970557
vt 0.529229 0.970836
vt 0.529690 0.970505
vt 0.529223 0.970462
vt 0.530677 0.970191
vt 0.530418 0.970139
vt 0.530362 0.970081
vt 0.531004 0.970466
vt 0.530674 0.970292
vt 0.531090 0.970587
vt 0.530906 0.970602
vt 0.531228 0.970505
vt 0.531328 0.970554
vt 0.531456 0.970619
vt 0.531399 0.970485
vt 0.531217 0.970811
vt 0.531354 0.970636
vt 0.531262 0.970927
vt 0.531118 0.970830
vt 0.531322 0.970927
vt 0.531279 0.971185
vt 0.524409 0.980221
vt 0.524412 0.981611
vt 0.524260 0.980221
vt 0.525268 0.980221
vt 0.525667 0.980971
vt 0.524960 0.980452
vt 0.518975 0.965052
vt 0.518050 0.965803
vt 0.518511 0.965052
vt 0.518053 0.966289
vt 0.531135 0.971371
vt 0.531434 0.971171
vt 0.518783 0.966601
vt 0.518787 0.966471
vt 0.530731 0.971671
vt 0.531139 0.971497
vt 0.530416 0.971666
vt 0.530697 0.971586
vt 0.529701 0.972616
vt 0.530424 0.972211
vt 0.529736 0.972732
vt 0.530368 0.972137
vt 0.529474 0.971485
vt 0.516893 0.966648
vt 0.516728 0.966884
vt 0.516858 0.966830
vt 0.516878 0.967076
vt 0.521111 0.988609
vt 0.521189 0.988752
vt 0.521111 0.988912
vt 0.516721 0.967135
vt 0.516661 0.966974
vt 0.516778 0.967067
vt 0.516712 0.967328
vt 0.516642 0.967242
vt 0.516905 0.967413
vt 0.516877 0.967133
vt 0.517350 0.967519
vt 0.516758 0.967485
vt 0.518065 0.967828
vt 0.518323 0.967779
vt 0.518014 0.967912
vt 0.525938 0.982845
vt 0.526216 0.982736
vt 0.525940 0.982948
vt 0.518737 0.967381
vt 0.518599 0.967567
vt 0.518555 0.967371
vt 0.518975 0.967414
vt 0.518788 0.967435
vt 0.519001 0.967332
vt 0.519154 0.967456
vt 0.518943 0.967145
vt 0.519200 0.967279
vt 0.528992 0.972902
vt 0.529495 0.971638
vt 0.529148 0.972902
vt 0.530007 0.972904
vt 0.530866 0.972905
vt 0.531330 0.972906
vt 0.522414 0.978638
vt 0.522434 0.978976
vt 0.522414 0.978976
vt 0.522414 0.978299
vt 0.522434 0.978638
vt 0.522414 0.977835
vt 0.522434 0.978299
vt 0.522434 0.976976
vt 0.522414 0.976976
vt 0.527134 0.985565
vt 0.527155 0.985227
vt 0.527155 0.985565
vt 0.527134 0.985227
vt 0.527155 0.984889
vt 0.527134 0.984889
vt 0.527155 0.984425
vt 0.527134 0.983567
vt 0.527155 0.983567
vt 0.518911 0.967047
vt 0.518766 0.967143
vt 0.526543 0.981952
vt 0.526614 0.982231
vt 0.526528 0.982215
vt 0.518926 0.966783
vt 0.519081 0.966728
vt 0.531073 0.971302
vt 0.518346 0.966386
vt 0.518065 0.966385
vt 0.517347 0.965345
vt 0.518017 0.965833
vt 0.521153 0.989207
vt 0.521177 0.989662
vt 0.521153 0.989760
vt 0.516454 0.967466
vt 0.516454 0.967169
vt 0.519462 0.965052
vt 0.519313 0.964731
vt 0.519651 0.964731
vt 0.516454 0.966580
vt 0.519313 0.968369
vt 0.524071 0.981101
vt 0.524071 0.979899
vt 0.519651 0.965932
vt 0.531668 0.973228
vt 0.516454 0.966904
vt 0.531668 0.969594
vt 0.532006 0.969595
vt 0.528823 0.971999
vt 0.532006 0.972028
vt 0.532006 0.973228
vt 0.516454 0.966256
vt 0.516454 0.965932
vt 0.521116 0.985076
vt 0.526771 0.982625
vt 0.527268 0.982635
vt 0.527268 0.983537
vt 0.519651 0.967169
vt 0.519651 0.967466
vt 0.527268 0.982338
vt 0.526560 0.982314
vt 0.519651 0.966904
vt 0.518997 0.967063
vt 0.519651 0.966240
vt 0.519651 0.966564
vt 0.528810 0.970491
vt 0.528810 0.969589
vt 0.528810 0.970787
vt 0.528810 0.971376
vt 0.528810 0.971052
vt 0.528810 0.971699
vt 0.532006 0.970497
vt 0.532006 0.970793
vt 0.532006 0.971058
vt 0.532006 0.971381
vt 0.532006 0.971705
vt 0.516643 0.965052
vt 0.516792 0.964731
vt 0.516792 0.965052
vt 0.517651 0.964731
vt 0.517651 0.965052
vt 0.518975 0.964731
vt 0.516792 0.968369
vt 0.516454 0.968369
vt 0.518511 0.968369
vt 0.517651 0.968369
vt 0.518975 0.968369
vt 0.529148 0.973223
vt 0.528810 0.973222
vt 0.530007 0.973225
vt 0.530866 0.973226
vt 0.531330 0.973227
vt 0.529148 0.969590
vt 0.530007 0.969591
vt 0.531330 0.969594
vt 0.530866 0.969593
vt 0.527134 0.984425
vt 0.517435 0.967447
vt 0.529786 0.970525
vt 0.518511 0.964731
vt 0.522434 0.977835
vt 0.521111 0.987395
vt 0.521184 0.988378
vt 0.521141 0.988503
vt 0.517343 0.965284
vt 0.527134 0.982370
vt 0.521346 0.983590
vt 0.527037 0.989204
vt 0.522434 0.975778
vt 0.529209 0.971139
vt 0.531591 0.984274
vt 0.524697 0.981560
vt 0.526128 0.980221
vt 0.518722 0.966671
vt 0.530418 0.971584
vt 0.517056 0.967071
vt 0.521169 0.988503
vt 0.518321 0.967676
vt 0.526172 0.982540
vt 0.526698 0.981897
vt 0.521158 0.989175
vt 0.519651 0.968369
vt 0.521128 0.984883
vt 0.526817 0.982448
vt 0.527268 0.982072
vt 0.516454 0.964731
vt 0.521184 0.987229
s 0
usemtl Material
f 391/656/347 357/657/347 385/658/347
f 357/659/348 372/660/348 346/661/348
f 366/662/349 361/663/349 353/664/349
f 368/665/349 378/666/349 367/667/349
f 349/668/349 364/669/349 356/670/349
f 367/667/349 377/671/349 366/662/349
f 355/672/350 388/673/350 382/674/350
f 368/665/349 380/675/349 379/676/349
f 369/677/349 381/678/349 380/675/349
f 370/679/349 364/669/349 381/678/349
f 354/680/348 363/681/348 355/682/348
f 365/683/351 362/684/351 354/680/351
f 351/685/348 376/686/348 365/683/348
f 350/687/348 375/688/348 351/685/348
f 347/689/348 374/690/348 350/687/348
f 346/661/348 373/691/348 347/689/348
f 311/692/352 299/693/352 276/694/352
f 303/695/353 287/696/353 322/697/353
f 326/698/354 281/699/354 325/700/354
f 292/701/355 345/702/355 293/703/355
f 291/704/356 344/705/356 292/706/356
f 291/707/357 342/708/357 343/709/357
f 290/710/358 341/711/358 342/708/358
f 288/712/359 341/711/359 289/713/359
f 288/712/360 339/714/360 340/715/360
f 312/716/361 339/714/361 279/717/361
f 313/718/362 396/719/362 398/720/362
f 314/721/363 337/722/363 313/718/363
f 314/721/364 335/723/364 336/724/364
f 315/725/365 334/726/365 335/723/365
f 294/727/366 334/726/366 278/728/366
f 295/729/367 333/730/367 294/727/367
f 295/729/368 331/731/368 332/732/368
f 296/733/369 330/734/369 331/731/369
f 300/735/370 281/736/370 271/737/370
f 404/738/371 324/739/371 402/740/371
f 302/741/372 324/742/372 301/743/372
f 302/741/373 322/697/373 323/744/373
f 298/745/374 330/734/374 297/746/374
f 286/747/375 328/748/375 287/696/375
f 319/749/376 328/750/376 299/693/376
f 318/751/377 327/752/377 319/749/377
f 403/753/378 317/754/378 401/755/378
f 320/756/379 318/751/379 317/754/379
f 326/757/380 293/703/380 345/702/380
f 345/758/381 280/759/381 281/699/381
f 344/760/382 268/761/382 280/759/382
f 342/762/383 268/763/383 343/764/383
f 341/765/384 277/766/384 342/767/384
f 341/765/385 275/768/385 269/769/385
f 339/770/386 275/768/386 340/771/386
f 339/770/387 304/772/387 270/773/387
f 396/774/388 305/775/388 397/776/388
f 337/777/389 306/778/389 305/779/389
f 335/780/390 306/781/390 336/782/390
f 334/783/391 307/784/391 335/780/391
f 333/785/392 272/786/392 334/783/392
f 333/785/393 283/787/393 282/788/393
f 274/789/394 316/790/394 308/791/394
f 405/792/395 317/754/395 309/793/395
f 317/754/395 310/794/395 309/793/395
f 310/794/396 319/749/396 311/692/396
f 348/795/350 359/796/350 349/797/350
f 384/798/350 358/799/350 348/795/350
f 383/800/350 390/801/350 384/798/350
f 382/674/350 400/802/350 399/803/350
f 361/804/347 352/805/347 353/806/347
f 360/807/347 387/808/347 352/805/347
f 393/809/347 386/810/347 387/808/347
f 395/811/347 385/658/347 394/812/347
f 331/813/397 283/787/397 332/814/397
f 330/815/398 284/816/398 331/817/398
f 330/818/399 286/747/399 285/819/399
f 298/745/400 328/750/400 329/820/400
f 322/697/401 328/748/401 327/821/401
f 323/744/402 327/821/402 321/822/402
f 403/823/403 324/742/403 320/824/403
f 320/825/404 323/826/404 321/827/404
f 269/769/405 346/828/405 347/829/405
f 273/830/406 348/831/406 349/832/406
f 277/766/407 351/833/407 268/761/407
f 272/786/408 352/834/408 307/784/408
f 271/737/406 354/835/406 355/836/406
f 273/830/409 356/837/409 287/696/409
f 270/773/410 346/828/410 275/768/410
f 276/694/411 358/838/411 311/692/411
f 277/766/412 347/829/412 350/839/412
f 278/728/413 360/840/413 361/841/413
f 274/789/414 362/842/414 293/703/414
f 276/694/411 364/843/411 359/844/411
f 281/699/415 365/845/415 354/846/415
f 280/847/416 351/685/416 365/683/416
f 272/848/417 366/849/417 353/850/417
f 282/788/418 367/851/418 366/852/418
f 284/816/419 367/853/419 283/854/419
f 285/819/420 368/855/420 284/856/420
f 285/819/421 370/857/421 369/858/421
f 287/696/422 370/857/422 286/747/422
f 279/717/423 372/859/423 371/860/423
f 289/713/424 372/859/424 288/712/424
f 290/710/425 373/861/425 289/713/425
f 290/710/426 375/862/426 374/863/426
f 292/701/427 375/862/427 291/707/427
f 293/703/428 376/864/428 292/701/428
f 278/728/429 377/865/429 294/727/429
f 294/727/430 378/866/430 295/729/430
f 296/733/431 378/866/431 379/867/431
f 297/746/432 379/867/432 380/868/432
f 297/746/433 381/869/433 298/745/433
f 299/693/434 381/869/434 364/843/434
f 271/870/406 382/871/406 300/872/406
f 300/872/406 399/873/406 404/874/406
f 301/743/406 384/875/406 302/741/406
f 302/741/406 348/831/406 303/695/406
f 270/773/435 385/876/435 357/877/435
f 397/776/436 386/878/436 394/879/436
f 306/781/437 386/878/437 305/775/437
f 307/784/438 387/880/438 306/781/438
f 274/789/439 388/881/439 363/882/439
f 309/793/411 400/883/411 405/792/411
f 310/794/411 389/884/411 309/793/411
f 311/692/411 390/885/411 310/794/411
f 279/717/440 391/886/440 312/716/440
f 312/716/441 395/887/441 398/720/441
f 313/718/442 393/888/442 314/721/442
f 315/725/443 393/888/443 360/840/443
f 398/720/444 392/889/444 313/718/444
f 304/772/445 394/879/445 385/876/445
f 392/890/347 394/812/347 386/810/347
f 338/891/446 397/776/446 304/772/446
f 398/720/447 338/892/447 312/716/447
f 405/792/411 388/881/411 308/791/411
f 404/874/406 383/893/406 301/743/406
f 325/700/448 403/823/448 326/698/448
f 399/803/350 389/894/350 383/800/350
f 308/791/449 401/755/449 405/792/449
f 316/895/450 403/896/450 401/897/450
f 300/872/451 402/898/451 325/700/451
f 391/656/347 371/899/347 357/657/347
f 357/659/348 371/900/348 372/660/348
f 366/662/349 377/671/349 361/663/349
f 368/665/349 379/676/349 378/666/349
f 349/668/349 359/901/349 364/669/349
f 367/667/349 378/666/349 377/671/349
f 355/672/350 363/902/350 388/673/350
f 368/665/349 369/677/349 380/675/349
f 369/677/349 370/679/349 381/678/349
f 370/679/349 356/670/349 364/669/349
f 354/680/452 362/684/452 363/681/452
f 365/683/453 376/686/453 362/684/453
f 351/685/348 375/688/348 376/686/348
f 350/687/348 374/690/348 375/688/348
f 347/689/348 373/691/348 374/690/348
f 346/661/348 372/660/348 373/691/348
f 311/692/454 319/749/454 299/693/454
f 303/695/455 273/830/455 287/696/455
f 326/698/456 345/758/456 281/699/456
f 292/701/457 344/903/457 345/702/457
f 291/704/458 343/904/458 344/705/458
f 291/707/459 290/710/459 342/708/459
f 290/710/460 289/713/460 341/711/460
f 288/712/461 340/715/461 341/711/461
f 288/712/462 279/717/462 339/714/462
f 312/716/463 338/892/463 339/714/463
f 313/718/464 337/722/464 396/719/464
f 314/721/465 336/724/465 337/722/465
f 314/721/466 315/725/466 335/723/466
f 315/725/467 278/728/467 334/726/467
f 294/727/468 333/730/468 334/726/468
f 295/729/469 332/732/469 333/730/469
f 295/729/470 296/733/470 331/731/470
f 296/733/471 297/746/471 330/734/471
f 300/735/472 325/905/472 281/736/472
f 404/738/372 301/906/372 324/739/372
f 302/741/473 323/744/473 324/742/473
f 302/741/474 303/695/474 322/697/474
f 298/745/475 329/820/475 330/734/475
f 286/747/476 329/907/476 328/748/476
f 319/749/477 327/752/477 328/750/477
f 318/751/478 321/908/478 327/752/478
f 403/753/479 320/756/479 317/754/479
f 320/756/480 321/908/480 318/751/480
f 326/757/481 316/790/481 293/703/481
f 345/758/482 344/760/482 280/759/482
f 344/760/483 343/909/483 268/761/483
f 342/762/484 277/910/484 268/763/484
f 341/765/485 269/769/485 277/766/485
f 341/765/486 340/771/486 275/768/486
f 339/770/487 270/773/487 275/768/487
f 339/770/488 338/891/488 304/772/488
f 396/774/489 337/911/489 305/775/489
f 337/777/490 336/912/490 306/778/490
f 335/780/491 307/784/491 306/781/491
f 334/783/492 272/786/492 307/784/492
f 333/785/493 282/788/493 272/786/493
f 333/785/494 332/814/494 283/787/494
f 274/789/495 293/703/495 316/790/495
f 405/792/496 401/755/496 317/754/496
f 317/754/497 318/751/497 310/794/497
f 310/794/498 318/751/498 319/749/498
f 348/795/350 358/799/350 359/796/350
f 384/798/350 390/801/350 358/799/350
f 383/800/350 389/894/350 390/801/350
f 382/674/350 388/673/350 400/802/350
f 361/804/347 360/807/347 352/805/347
f 360/807/347 393/809/347 387/808/347
f 393/809/347 392/890/347 386/810/347
f 395/811/347 391/656/347 385/658/347
f 331/813/499 284/856/499 283/787/499
f 330/815/500 285/913/500 284/816/500
f 330/818/501 329/907/501 286/747/501
f 298/745/502 299/693/502 328/750/502
f 322/697/503 287/696/503 328/748/503
f 323/744/504 322/697/504 327/821/504
f 403/823/505 402/898/505 324/742/505
f 320/825/506 324/914/506 323/826/506
f 269/769/507 275/768/507 346/828/507
f 273/830/406 303/695/406 348/831/406
f 277/766/412 350/839/412 351/833/412
f 272/786/508 353/915/508 352/834/508
f 271/737/509 281/736/509 354/835/509
f 273/830/406 349/832/406 356/837/406
f 270/773/510 357/877/510 346/828/510
f 276/694/411 359/844/411 358/838/411
f 277/766/511 269/769/511 347/829/511
f 278/728/512 315/725/512 360/840/512
f 274/789/513 363/882/513 362/842/513
f 276/694/514 299/693/514 364/843/514
f 281/699/515 280/759/515 365/845/515
f 280/847/516 268/916/516 351/685/516
f 272/848/517 282/917/517 366/849/517
f 282/788/518 283/787/518 367/851/518
f 284/816/519 368/918/519 367/853/519
f 285/819/520 369/858/520 368/855/520
f 285/819/521 286/747/521 370/857/521
f 287/696/522 356/837/522 370/857/522
f 279/717/523 288/712/523 372/859/523
f 289/713/524 373/861/524 372/859/524
f 290/710/426 374/863/426 373/861/426
f 290/710/525 291/707/525 375/862/525
f 292/701/526 376/864/526 375/862/526
f 293/703/527 362/842/527 376/864/527
f 278/728/528 361/841/528 377/865/528
f 294/727/529 377/865/529 378/866/529
f 296/733/530 295/729/530 378/866/530
f 297/746/531 296/733/531 379/867/531
f 297/746/432 380/868/432 381/869/432
f 299/693/532 298/745/532 381/869/532
f 271/870/406 355/919/406 382/871/406
f 300/872/406 382/871/406 399/873/406
f 301/743/406 383/893/406 384/875/406
f 302/741/406 384/875/406 348/831/406
f 270/773/533 304/772/533 385/876/533
f 397/776/534 305/775/534 386/878/534
f 306/781/535 387/880/535 386/878/535
f 307/784/536 352/834/536 387/880/536
f 274/789/537 308/791/537 388/881/537
f 309/793/411 389/884/411 400/883/411
f 310/794/411 390/885/411 389/884/411
f 311/692/411 358/838/411 390/885/411
f 279/717/538 371/860/538 391/886/538
f 312/716/539 391/886/539 395/887/539
f 313/718/540 392/889/540 393/888/540
f 315/725/541 314/721/541 393/888/541
f 398/720/542 395/887/542 392/889/542
f 304/772/543 397/776/543 394/879/543
f 392/890/347 395/811/347 394/812/347
f 338/891/544 396/774/544 397/776/544
f 398/720/545 396/719/545 338/892/545
f 405/792/411 400/883/411 388/881/411
f 404/874/406 399/873/406 383/893/406
f 325/700/546 402/898/546 403/823/546
f 399/803/350 400/802/350 389/894/350
f 308/791/547 316/790/547 401/755/547
f 316/895/548 326/920/548 403/896/548
f 300/872/549 404/874/549 402/898/549
