# Blender 4.2.1 LTS
# www.blender.org
mtllib book_1.mtl
g book_1_Mesh
v 0.071617 0.040777 0.106300
v 0.071617 0.040777 -0.106200
v -0.059490 0.035988 0.106300
v -0.059490 0.035988 -0.106200
v 0.071617 0.007137 0.106300
v 0.071617 0.007137 -0.106200
v -0.061086 0.007137 0.106300
v -0.061086 0.007137 -0.106200
v -0.066990 0.043126 0.100940
v 0.066257 0.047914 0.100940
v 0.066257 0.047914 -0.100840
v -0.066990 0.043126 -0.100840
v -0.068586 -0.000000 0.100940
v -0.068586 -0.000000 -0.100840
v 0.066257 -0.000000 0.100940
v 0.066257 -0.000000 -0.100840
v 0.066572 0.040777 0.101255
v 0.066572 0.007137 0.101255
v 0.066572 0.007137 -0.101155
v 0.066572 0.040777 -0.101155
v -0.059490 0.035988 0.099165
v -0.059490 0.035988 -0.099065
v -0.061086 0.007137 0.099165
v -0.061086 0.007137 -0.099065
v -0.065768 0.042266 0.106300
v 0.071617 0.047055 0.106300
v 0.071617 0.047055 -0.106200
v -0.065768 0.042267 -0.106200
v -0.067364 0.000859 0.106300
v -0.067364 0.000859 -0.106200
v 0.071617 0.000859 0.106300
v 0.071617 0.000859 -0.106200
v -0.067364 0.012408 0.106300
v -0.067364 0.023957 0.106300
v -0.067542 0.030718 0.106300
v -0.067542 0.030718 -0.106200
v -0.067364 0.023957 -0.106200
v -0.067364 0.012408 -0.106200
v -0.061086 0.015547 0.106300
v -0.061086 0.023957 0.106300
v -0.061263 0.027578 0.106300
v -0.061263 0.027578 -0.106200
v -0.061086 0.023957 -0.106200
v -0.061086 0.015547 -0.106200
v 0.066766 0.036118 0.099106
v 0.068744 0.025102 0.098020
v 0.062041 0.017944 0.101432
v 0.066248 0.016064 -0.102222
v 0.067341 0.022233 -0.099258
v 0.066744 0.032989 -0.099420
v -0.060363 0.012548 0.098413
v -0.060486 0.024507 0.097241
v -0.059928 0.026755 0.095761
v -0.060106 0.027607 -0.097316
v -0.060746 0.022480 -0.099065
v -0.059577 0.015533 -0.096802
v -0.068586 0.011978 0.100940
v -0.068586 0.023957 0.100940
v -0.068764 0.031147 0.100940
v -0.068764 0.031147 -0.100840
v -0.068586 0.023957 -0.100840
v -0.068586 0.011978 -0.100840
v -0.009933 0.047232 0.106300
v -0.009933 0.047232 -0.106200
v 0.002126 0.000859 0.106300
v 0.002064 0.005727 -0.105510
v 0.005266 0.040777 0.106300
v 0.005266 0.040777 -0.106200
v 0.005266 0.007137 0.106300
v 0.005203 0.012005 -0.105510
v 0.002743 0.040777 0.100210
v 0.002743 0.040777 -0.100110
v 0.003788 0.006414 0.097577
v 0.002681 0.012005 -0.099420
v -0.013224 0.048091 0.100940
v -0.013224 0.048091 -0.100840
v -0.001165 -0.000000 0.100940
v -0.001227 0.004868 -0.100150
v 0.038450 0.015806 -0.100643
v 0.002301 0.023762 -0.100173
v 0.002829 0.032678 -0.099243
v 0.039147 0.033461 0.097950
v -0.011321 0.023957 0.100210
v 0.050887 0.015547 0.100210
v 0.071617 0.047055 0.035467
v 0.071617 0.047055 -0.035367
v -0.066990 0.043126 -0.033580
v -0.069937 0.045299 0.033680
v -0.068586 -0.000000 -0.033580
v -0.068586 -0.000000 0.033680
v 0.068009 0.004349 -0.041887
v 0.071378 0.004787 0.034738
v 0.071617 0.040777 0.035467
v 0.071617 0.040777 -0.035367
v 0.070527 0.009031 -0.038153
v 0.071378 0.011065 0.034738
v 0.062784 0.040777 0.033785
v 0.066572 0.040777 -0.033685
v 0.065481 0.009031 -0.036472
v 0.062545 0.011065 0.033056
v 0.065725 0.047914 0.033857
v 0.062001 0.047914 -0.034467
v 0.062649 0.003490 -0.040100
v 0.066018 0.003928 0.032951
v 0.060252 0.016691 -0.034337
v 0.059655 0.017317 0.033548
v 0.067809 0.023190 -0.033499
v 0.064489 0.024146 0.032261
v 0.066751 0.034032 -0.033245
v 0.062970 0.035075 0.032931
v -0.068764 0.031147 -0.033580
v -0.068764 0.031147 0.033680
v -0.068586 0.023957 -0.033580
v -0.068586 0.023957 0.033680
v -0.068586 0.011978 -0.033580
v -0.068586 0.011978 0.033680
v 0.017533 -0.000000 -0.033580
v -0.023787 -0.000000 0.033680
v 0.001496 0.048091 -0.066922
v -0.015707 0.048091 0.007255
v 0.036900 0.047055 0.106300
v 0.036900 0.000859 -0.106200
v 0.038468 0.040777 0.106300
v 0.038468 0.007137 -0.106200
v 0.034683 0.040777 0.100733
v 0.034683 0.007137 -0.100633
v 0.032574 0.047914 0.100940
v 0.032574 -0.000000 -0.100840
v 0.052361 0.015935 -0.101433
v 0.034848 0.022997 -0.099715
v 0.034812 0.032833 -0.099331
v 0.052968 0.034790 0.098529
v 0.028744 0.024530 0.099114
v 0.056468 0.016746 0.100822
v 0.036900 0.047055 -0.106200
v 0.036900 0.000859 0.106300
v 0.038468 0.040777 -0.106200
v 0.038468 0.007137 0.106300
v 0.034683 0.040777 -0.100633
v 0.035206 0.006776 0.099418
v 0.032574 0.047914 -0.100840
v 0.032574 -0.000000 0.100940
v 0.040022 0.047914 0.061346
v 0.033106 0.047914 0.006146
v 0.047246 0.000737 0.077664
v 0.042964 0.005545 -0.066458
v -0.045311 0.043583 -0.106200
v -0.032812 0.000859 0.106300
v -0.026760 0.040675 -0.106200
v -0.028095 0.007137 0.106300
v -0.028015 0.040675 -0.099585
v -0.028829 0.006778 0.098376
v -0.047562 0.044442 -0.100840
v -0.035063 -0.000000 0.100940
v -0.045311 0.043583 0.106300
v -0.032843 0.003280 -0.105857
v -0.026760 0.040675 0.106300
v -0.028126 0.009558 -0.105857
v -0.028015 0.040675 0.099684
v -0.029380 0.009558 -0.099242
v -0.047562 0.044442 0.100940
v -0.035094 0.002420 -0.100497
v -0.010836 0.015669 -0.098712
v -0.029398 0.023117 -0.099616
v -0.028814 0.030128 -0.098274
v -0.010666 0.030089 0.096850
v -0.036040 0.024233 0.098717
v -0.005048 0.014039 0.099307
v -0.035063 -0.000000 0.001786
v -0.015808 -0.000000 -0.048534
v -0.032146 0.046022 0.054962
v -0.050931 0.044442 0.001712
vn -0.0763 0.9971 -0.0025
vn -1.0000 -0.0000 -0.0000
vn -0.1655 -0.9851 0.0468
vn -0.0731 0.9972 -0.0139
vn -0.0000 -1.0000 -0.0000
vn 0.9958 -0.0000 0.0913
vn -0.0000 -0.0000 1.0000
vn 1.0000 -0.0000 -0.0000
vn -0.0000 -0.0000 -1.0000
vn 1.0000 -0.0000 -0.0033
vn 0.9996 0.0265 -0.0005
vn -0.0967 -0.0569 0.9937
vn -0.0017 -0.2175 -0.9761
vn 0.9868 -0.0993 -0.1282
vn 0.1417 -0.9895 -0.0269
vn -0.0098 0.9995 -0.0294
vn -0.0087 0.9988 -0.0483
vn -0.0631 0.9809 0.1837
vn 0.1446 0.9895 -0.0011
vn -0.0000 0.9874 -0.1583
vn -0.9750 -0.0000 0.2223
vn -0.9617 0.1477 -0.2311
vn -0.0000 -0.9874 0.1583
vn 0.0706 -0.9891 -0.1289
vn 0.1797 -0.9814 0.0671
vn -0.9750 -0.0000 -0.2223
vn -0.9747 -0.0256 -0.2222
vn -0.9599 0.1421 0.2416
vn -0.9751 -0.0241 0.2204
vn 0.9810 0.1138 -0.1573
vn 0.9981 0.0489 -0.0374
vn -0.0163 -0.0580 -0.9982
vn -0.0550 0.4403 -0.8962
vn 0.0137 -0.0143 -0.9998
vn -0.0151 -0.3858 0.9225
vn -0.0316 -0.1037 0.9941
vn 0.0221 0.2886 0.9572
vn 0.8327 0.5494 0.0685
vn 0.6516 -0.7585 0.0064
vn 0.9953 0.0972 -0.0016
vn 0.9785 -0.2063 -0.0000
vn 0.9788 -0.1531 0.1359
vn 0.9978 -0.0000 0.0661
vn -0.9892 0.1465 -0.0000
vn -0.9997 -0.0247 -0.0000
vn -0.0612 -0.1289 0.9898
vn -0.0521 0.4842 0.8734
vn -0.0154 -0.2822 0.9592
vn -0.0211 0.1897 -0.9816
vn -0.0386 -0.1166 -0.9924
vn -0.0157 0.1335 -0.9909
vn -0.1386 -0.9543 -0.2648
vn -0.1035 0.9744 -0.1997
vn 0.0037 0.9879 0.1553
vn 0.0100 0.9989 -0.0462
vn 0.0033 -1.0000 0.0006
vn -0.0206 -0.1218 -0.9923
vn -0.0095 -0.2316 0.9728
vn 0.0105 -0.0079 -0.9999
vn 0.1461 0.9843 0.0993
vn 0.0374 -0.9958 -0.0834
vn 0.0057 1.0000 -0.0000
vn 0.0039 1.0000 0.0007
vn 0.0036 1.0000 -0.0005
vn -0.9957 -0.0826 -0.0410
vn 0.9815 0.1821 -0.0592
vn 0.9895 0.1341 0.0544
vn 0.7252 -0.6882 -0.0191
vn 0.8173 -0.5761 0.0125
vn 0.9214 0.3869 -0.0359
vn 0.9079 0.4193 0.0041
vn 0.2107 -0.9760 -0.0543
vn 0.1587 -0.9873 -0.0013
vn 0.1583 0.9874 -0.0000
vn 0.0885 0.9961 -0.0048
vn -0.0549 0.9970 0.0549
vn 0.0055 0.9996 -0.0290
vn 0.9962 0.0672 -0.0559
vn 0.9981 0.0243 0.0560
vn 0.9984 -0.0000 0.0560
vn 0.8920 -0.4505 -0.0366
vn -0.0000 -0.9995 -0.0317
vn 0.0842 -0.9958 -0.0357
vn -0.0676 0.9976 0.0116
vn -0.0030 0.9996 -0.0286
vn 0.0075 -1.0000 0.0046
vn -0.0000 1.0000 -0.0000
vn -0.0000 0.9874 0.1583
vn -0.0000 -0.9874 -0.1583
vn 0.0243 0.1799 0.9834
vn -0.0599 0.1973 0.9785
vn -0.0152 -0.3636 0.9314
vn 0.0164 0.1029 -0.9946
vn -0.0573 0.0995 -0.9934
vn -0.0357 0.0143 -0.9993
vn 0.0038 0.9878 -0.1560
vn -0.0067 0.9967 -0.0815
vn -0.0020 -0.1617 -0.9868
vn -0.1429 0.1673 0.9755
vn -0.0185 0.0093 -0.9998
vn 0.0897 -0.9912 -0.0978
vn -0.1042 0.9945 0.0073
vn -0.1057 0.9944 -0.0013
vn -0.0119 -0.9990 -0.0421
vn 0.0107 -0.0107 -0.9999
vn -0.0139 -0.0823 0.9965
vn -0.0136 -0.2033 -0.9790
vn 0.1473 -0.9891 -0.0000
vn 0.0111 0.9999 -0.0000
vn -0.0666 0.9827 -0.1727
vn -0.0256 0.2644 -0.9641
vn -0.0377 -0.2124 -0.9765
vn -0.0232 0.3255 -0.9453
vn 0.0362 -0.3472 0.9371
vn -0.0532 0.5054 0.8613
vn -0.0589 0.0968 0.9936
vn 0.0706 -0.9908 -0.1154
vn -0.1002 0.9710 0.2171
vn 0.0032 -1.0000 -0.0013
vn -0.0729 0.9969 -0.0302
vn -0.0725 0.9974 -0.0024
vn -0.0676 0.9977 -0.0000
vn -0.0000 -0.9872 0.1592
vn -0.0761 0.9971 -0.0000
vn 0.9912 -0.1324 -0.0000
vn 0.9998 0.0221 -0.0000
vn -0.0583 -0.0163 0.9982
vn -0.0162 -0.1619 -0.9867
vn -0.0283 0.9992 -0.0283
vn -0.0666 0.9827 0.1727
vn -0.9599 0.1421 -0.2416
vn 0.0728 -0.9872 -0.1416
vn 0.2212 -0.9731 0.0652
vn -0.9751 -0.0241 -0.2204
vn -0.9617 0.1477 0.2311
vn -0.9747 -0.0256 0.2222
vn 0.9785 -0.1335 -0.1573
vn 0.9989 -0.0000 -0.0476
vn 0.9885 -0.0796 -0.1285
vn -0.0552 -0.1205 -0.9912
vn 0.0202 0.2833 -0.9588
vn -0.0030 0.0390 -0.9992
vn 0.0023 -0.4188 0.9081
vn 0.0275 -0.0078 0.9996
vn -0.2101 0.5740 0.7914
vn 0.9992 0.0381 0.0157
vn 0.9727 -0.2146 0.0879
vn 0.9984 0.0554 -0.0079
vn 0.9866 -0.0957 0.1324
vn 0.9964 0.0488 0.0690
vn 0.9963 0.0185 0.0843
vn -0.0134 -0.0991 0.9950
vn -0.0474 0.4839 0.8738
vn -0.0009 -0.2990 0.9543
vn -0.0390 0.1060 -0.9936
vn -0.0142 -0.1553 -0.9878
vn -0.0392 0.0481 -0.9981
vn -0.1432 -0.9597 -0.2417
vn -0.1002 0.9710 -0.2171
vn 0.0038 0.9878 0.1560
vn -0.0000 0.9966 -0.0826
vn 0.0032 -1.0000 0.0013
vn -0.0166 -0.1067 -0.9942
vn 0.0218 -0.1970 0.9802
vn 0.0108 -0.0054 -0.9999
vn 0.1524 0.9863 0.0631
vn 0.0726 -0.9947 -0.0733
vn 0.0039 1.0000 -0.0017
vn 0.0033 1.0000 -0.0001
vn 0.0037 1.0000 0.0008
vn -0.9957 -0.0826 0.0410
vn 0.9878 0.1413 -0.0660
vn 0.9942 0.0959 0.0488
vn 0.8115 -0.5827 -0.0440
vn 0.6486 -0.7599 0.0438
vn 0.9065 0.4213 -0.0293
vn 0.8281 0.5602 0.0186
vn 0.1766 -0.9826 -0.0574
vn 0.1578 -0.9875 -0.0014
vn 0.0895 0.9960 0.0057
vn 0.1443 0.9895 -0.0000
vn -0.0111 0.9982 0.0581
vn -0.0093 0.9996 -0.0278
vn 0.9975 0.0413 -0.0579
vn 0.9979 0.0302 0.0565
vn 0.8710 -0.4905 0.0276
vn 0.9999 -0.0000 -0.0117
vn 0.0320 -0.9978 -0.0578
vn -0.1190 -0.9928 0.0114
vn -0.0382 0.9987 0.0339
vn -0.0100 0.9994 -0.0327
vn 0.1660 -0.9854 -0.0378
vn 0.0131 -0.9999 -0.0044
vn -0.0880 -0.0960 0.9915
vn 0.0258 0.0995 0.9947
vn -0.0046 -0.3579 0.9337
vn 0.0171 0.1365 -0.9905
vn -0.0569 0.0235 -0.9981
vn 0.0037 0.9879 -0.1553
vn -0.0000 0.9986 -0.0524
vn -0.0163 -0.1067 -0.9942
vn -0.0586 0.0147 0.9982
vn -0.0200 0.0050 -0.9998
vn -0.1358 -0.9708 0.1976
vn -0.0994 0.9948 -0.0231
vn -0.1161 0.9932 0.0031
vn 0.0721 -0.9974 -0.0000
vn 0.0110 -0.0083 -0.9999
vn 0.0257 0.1342 0.9906
vn 0.0020 -0.1235 -0.9923
vn 0.1417 -0.9895 0.0269
vn -0.0000 0.9990 -0.0453
vn -0.0631 0.9809 -0.1837
vn -0.0389 0.2028 -0.9784
vn -0.0104 -0.3113 -0.9503
vn -0.0454 0.1915 -0.9804
vn -0.0034 -0.2640 0.9645
vn -0.0439 0.5569 0.8294
vn -0.0164 0.0081 0.9998
vn 0.0728 -0.9891 -0.1280
vn -0.1035 0.9744 0.1997
vn 0.0033 -1.0000 -0.0006
vn -0.0762 0.9970 -0.0144
vn -0.1056 0.9934 0.0458
vt 0.346719 0.112502
vt 0.345737 0.109106
vt 0.346548 0.107323
vt 0.347579 0.113834
vt 0.346974 0.110438
vt 0.347579 0.110438
vt 0.352075 0.107726
vt 0.353243 0.105991
vt 0.353066 0.109058
vt 0.347453 0.115554
vt 0.349055 0.115202
vt 0.349118 0.115536
vt 0.352603 0.110523
vt 0.352348 0.113845
vt 0.352157 0.110438
vt 0.348985 0.105905
vt 0.348587 0.105633
vt 0.348985 0.105480
vt 0.348088 0.108198
vt 0.347771 0.109872
vt 0.347771 0.108119
vt 0.351867 0.113622
vt 0.351550 0.110044
vt 0.351867 0.110044
vt 0.345391 0.112483
vt 0.345007 0.111767
vt 0.345154 0.110830
vt 0.348330 0.103251
vt 0.348596 0.102845
vt 0.348755 0.103162
vt 0.346847 0.112563
vt 0.346581 0.112880
vt 0.346423 0.112563
vt 0.349787 0.103171
vt 0.350104 0.104599
vt 0.349787 0.104837
vt 0.346847 0.107536
vt 0.347164 0.105862
vt 0.347164 0.107616
vt 0.345990 0.102143
vt 0.346108 0.105757
vt 0.345791 0.105757
vt 0.826031 0.457029
vt 0.825638 0.453709
vt 0.825979 0.453687
vt 0.820591 0.446676
vt 0.820105 0.446166
vt 0.820651 0.446395
vt 0.822173 0.450793
vt 0.822574 0.452397
vt 0.822181 0.452405
vt 0.347438 0.104873
vt 0.347798 0.104452
vt 0.347887 0.104874
vt 0.350930 0.103369
vt 0.352348 0.103624
vt 0.350739 0.103650
vt 0.345978 0.114100
vt 0.347574 0.113765
vt 0.347637 0.114100
vt 0.354100 0.112117
vt 0.353899 0.115299
vt 0.353845 0.112032
vt 0.352480 0.104823
vt 0.353899 0.105078
vt 0.352315 0.105170
vt 0.346719 0.102312
vt 0.345798 0.102042
vt 0.346832 0.102042
vt 0.352468 0.102312
vt 0.352738 0.105619
vt 0.352441 0.105700
vt 0.352468 0.112502
vt 0.350985 0.112773
vt 0.350767 0.112502
vt 0.347579 0.103644
vt 0.347019 0.103374
vt 0.347602 0.103374
vt 0.348547 0.113834
vt 0.349111 0.114105
vt 0.348526 0.114105
vt 0.353243 0.116181
vt 0.351763 0.116451
vt 0.351543 0.116181
vt 0.348131 0.106008
vt 0.346499 0.105720
vt 0.348246 0.105737
vt 0.353338 0.108968
vt 0.347019 0.114105
vt 0.346974 0.113834
vt 0.348184 0.113834
vt 0.347602 0.114105
vt 0.348185 0.114105
vt 0.348547 0.103644
vt 0.349111 0.103374
vt 0.349153 0.103644
vt 0.348184 0.103644
vt 0.348526 0.103374
vt 0.348185 0.103374
vt 0.347438 0.105481
vt 0.347798 0.105905
vt 0.347438 0.105905
vt 0.347798 0.105131
vt 0.347913 0.105484
vt 0.347438 0.105056
vt 0.821319 0.451680
vt 0.820875 0.452398
vt 0.820875 0.450787
vt 0.821638 0.452435
vt 0.821326 0.452382
vt 0.821676 0.450795
vt 0.821501 0.446854
vt 0.821804 0.446166
vt 0.821804 0.447776
vt 0.821012 0.446058
vt 0.821569 0.446157
vt 0.820984 0.448077
vt 0.827238 0.453850
vt 0.826885 0.457170
vt 0.826842 0.453742
vt 0.826575 0.457020
vt 0.826528 0.453699
vt 0.345657 0.112889
vt 0.345073 0.112800
vt 0.345815 0.112572
vt 0.345998 0.112880
vt 0.345998 0.112563
vt 0.349521 0.102854
vt 0.350104 0.102854
vt 0.349363 0.103171
vt 0.348938 0.102854
vt 0.348938 0.103171
vt 0.348985 0.104873
vt 0.348625 0.104452
vt 0.348985 0.104452
vt 0.348527 0.105029
vt 0.348453 0.104917
vt 0.348985 0.105056
vt 0.349153 0.113834
vt 0.348547 0.110438
vt 0.349153 0.110438
vt 0.348184 0.110438
vt 0.820454 0.449784
vt 0.820955 0.450100
vt 0.820969 0.451349
vt 0.821264 0.450069
vt 0.821434 0.447553
vt 0.821804 0.449390
vt 0.821799 0.450943
vt 0.822037 0.447579
vt 0.821715 0.449152
vt 0.821682 0.447551
vt 0.821307 0.448487
vt 0.821313 0.450977
vt 0.821121 0.449170
vt 0.820998 0.447551
vt 0.351543 0.105991
vt 0.350011 0.105754
vt 0.351763 0.105720
vt 0.349840 0.116181
vt 0.348244 0.116451
vt 0.348129 0.116180
vt 0.348455 0.112502
vt 0.346832 0.112773
vt 0.350767 0.102312
vt 0.348620 0.102041
vt 0.350985 0.102041
vt 0.349119 0.104823
vt 0.350728 0.105263
vt 0.349081 0.105223
vt 0.349254 0.114100
vt 0.350739 0.113819
vt 0.350930 0.114100
vt 0.347637 0.103368
vt 0.349126 0.103676
vt 0.347574 0.103703
vt 0.822569 0.447620
vt 0.822165 0.449178
vt 0.820068 0.449338
vt 0.820530 0.446959
vt 0.346725 0.110899
vt 0.346918 0.109375
vt 0.347042 0.111137
vt 0.349787 0.106521
vt 0.350104 0.108119
vt 0.349787 0.108198
vt 0.345149 0.109213
vt 0.344832 0.107615
vt 0.345149 0.107536
vt 0.348094 0.104904
vt 0.347762 0.105754
vt 0.347947 0.103967
vt 0.350803 0.115518
vt 0.352289 0.115273
vt 0.352480 0.115554
vt 0.349101 0.108632
vt 0.349844 0.106025
vt 0.350784 0.109388
vt 0.349198 0.110789
vt 0.350794 0.107099
vt 0.351143 0.104311
vt 0.348455 0.102312
vt 0.348329 0.107043
vt 0.348698 0.112784
vt 0.348129 0.111173
vt 0.348184 0.107041
vt 0.347579 0.107041
vt 0.348547 0.107041
vt 0.349260 0.107041
vt 0.826433 0.447058
vt 0.825919 0.450345
vt 0.825873 0.447003
vt 0.826473 0.450379
vt 0.826809 0.450314
vt 0.826782 0.446886
vt 0.827336 0.446895
vt 0.827130 0.450339
vt 0.353509 0.112837
vt 0.353515 0.116451
vt 0.353237 0.112747
vt 0.352738 0.109196
vt 0.352738 0.112773
vt 0.352253 0.109150
vt 0.354144 0.108436
vt 0.354154 0.104823
vt 0.353698 0.108521
vt 0.825631 0.450302
vt 0.825638 0.446895
vt 0.345990 0.112874
vt 0.346124 0.109626
vt 0.346307 0.112874
vt 0.345892 0.109438
vt 0.351867 0.106467
vt 0.351550 0.102890
vt 0.351867 0.102890
vt 0.351550 0.106467
vt 0.352603 0.106946
vt 0.352603 0.103369
vt 0.352348 0.107031
vt 0.352285 0.115005
vt 0.346974 0.103644
vt 0.346974 0.107041
vt 0.347498 0.104634
vt 0.345737 0.102313
vt 0.345589 0.105709
vt 0.354154 0.115554
vt 0.344832 0.105862
vt 0.345149 0.105862
vt 0.350104 0.109872
vt 0.349787 0.109872
vt 0.352603 0.114100
vt 0.352738 0.102042
vt 0.353515 0.105720
vt 0.350007 0.116451
vt 0.348620 0.112772
vt 0.350803 0.104823
vt 0.349254 0.103369
vt 0.822574 0.450787
vt 0.820087 0.447751
vt 0.346601 0.109216
vt 0.348088 0.106521
vt 0.346437 0.109387
vt 0.346437 0.112784
vt 0.346437 0.116180
vt 0.348013 0.102934
vt 0.347164 0.112881
vt 0.820379 0.452577
vt 0.820087 0.450985
vt 0.822332 0.446031
vt 0.821910 0.445999
vt 0.345978 0.103369
vt 0.345978 0.103729
vt 0.347453 0.104822
vt 0.347453 0.105183
vt 0.345798 0.112773
vt 0.345737 0.112502
vt 0.346499 0.116451
vt 0.821300 0.446025
vt 0.820875 0.445950
vt 0.821650 0.445967
vt 0.821096 0.452557
vt 0.821562 0.452533
vt 0.820982 0.452584
vt 0.349126 0.113792
vt 0.350104 0.106363
vt 0.344823 0.109980
vt 0.350675 0.115210
vt 0.347453 0.115193
vt 0.348625 0.105905
vt 0.348088 0.109872
vt 0.351550 0.113622
vt 0.346847 0.105862
vt 0.346307 0.102143
vt 0.825638 0.457116
vt 0.347438 0.104452
vt 0.345978 0.113740
vt 0.346437 0.105990
vt 0.827336 0.457116
vt 0.822574 0.449174
vt 0.820105 0.452613
s 0
g book_1_Material
usemtl Material
f 153/1/1 87/2/1 172/3/1
f 62/4/2 89/5/2 115/6/2
f 146/7/3 16/8/3 103/9/3
f 8/10/4 160/11/4 158/12/4
f 93/13/5 17/14/5 97/15/5
f 7/16/6 51/17/6 39/18/6
f 123/19/7 26/20/7 121/21/7
f 2/22/8 86/23/8 94/24/8
f 4/25/9 147/26/9 149/27/9
f 3/28/7 35/29/7 41/30/7
f 8/31/9 38/32/9 44/33/9
f 7/34/7 148/35/7 150/36/7
f 124/37/9 32/38/9 122/39/9
f 5/40/10 92/41/10 96/42/10
f 50/43/11 98/44/11 109/45/11
f 134/46/12 18/47/12 47/48/12
f 131/49/13 20/50/13 50/51/13
f 42/52/14 22/53/14 54/54/14
f 137/55/5 20/56/5 139/57/5
f 3/58/15 159/59/15 157/60/15
f 95/61/16 19/62/16 99/63/16
f 138/64/17 18/65/17 140/66/17
f 161/67/18 25/68/18 155/69/18
f 10/70/19 85/71/19 101/72/19
f 11/73/20 135/74/20 141/75/20
f 57/76/21 29/77/21 33/78/21
f 60/79/22 28/80/22 36/81/22
f 15/82/23 136/83/23 142/84/23
f 162/85/24 30/86/24 156/87/24
f 16/8/25 91/88/25 103/9/25
f 62/4/26 30/89/26 14/90/26
f 61/91/26 38/92/26 62/4/26
f 61/91/27 36/81/27 37/93/27
f 59/94/28 25/95/28 9/96/28
f 58/97/29 35/98/29 59/94/29
f 58/97/21 33/78/21 34/99/21
f 44/100/8 24/101/8 8/102/8
f 44/100/30 55/103/30 56/104/30
f 42/52/31 55/103/31 43/105/31
f 129/106/32 19/107/32 126/108/32
f 129/106/33 49/109/33 48/110/33
f 130/111/34 50/51/34 49/109/34
f 132/112/35 17/113/35 125/114/35
f 132/112/36 46/115/36 45/116/36
f 134/46/37 46/115/37 133/117/37
f 99/118/38 48/119/38 105/120/38
f 105/120/39 49/121/39 107/122/39
f 107/122/40 50/43/40 109/45/40
f 4/25/9 36/123/9 28/124/9
f 42/125/9 37/126/9 36/123/9
f 44/33/9 37/126/9 43/127/9
f 7/34/7 33/128/7 29/129/7
f 39/130/7 34/131/7 33/128/7
f 41/30/7 34/131/7 40/132/7
f 41/133/41 21/134/41 3/135/41
f 41/133/42 52/136/42 53/137/42
f 39/18/43 52/136/43 40/138/43
f 12/139/44 111/140/44 87/141/44
f 60/79/45 113/142/45 111/140/45
f 61/91/2 115/6/2 113/142/2
f 168/143/46 83/144/46 167/145/46
f 166/146/47 83/144/47 82/147/47
f 166/146/48 71/148/48 159/149/48
f 165/150/49 80/151/49 164/152/49
f 163/153/50 80/151/50 79/154/50
f 163/153/51 74/155/51 160/156/51
f 128/157/52 66/158/52 122/159/52
f 77/160/23 148/161/23 154/162/23
f 76/163/53 147/164/53 153/1/53
f 127/165/54 63/166/54 121/167/54
f 150/168/55 73/169/55 152/170/55
f 67/171/5 125/172/5 123/173/5
f 149/174/56 72/175/56 151/176/56
f 151/177/57 81/178/57 165/150/57
f 168/143/58 73/179/58 84/180/58
f 158/181/59 66/182/59 156/183/59
f 69/184/7 136/185/7 138/186/7
f 68/187/9 135/188/9 137/189/9
f 157/190/7 63/191/7 155/192/7
f 70/193/60 126/194/60 124/195/60
f 170/196/61 78/197/61 117/198/61
f 141/75/62 119/199/62 144/200/62
f 143/201/63 75/202/63 127/165/63
f 144/200/64 120/203/64 143/201/64
f 154/162/5 118/204/5 77/160/5
f 169/205/5 117/198/5 118/204/5
f 114/206/2 57/76/2 58/97/2
f 113/142/2 116/207/2 114/206/2
f 112/208/45 58/97/45 59/94/45
f 111/140/45 114/206/45 112/208/45
f 9/96/44 112/208/44 59/94/44
f 87/141/65 112/208/65 88/209/65
f 46/210/66 110/211/66 45/212/66
f 108/213/67 109/45/67 110/211/67
f 106/214/68 46/210/68 47/215/68
f 105/120/69 108/213/69 106/214/69
f 18/216/70 106/214/70 47/215/70
f 100/217/71 105/120/71 106/214/71
f 15/82/72 92/218/72 31/219/72
f 104/220/73 91/88/73 92/218/73
f 11/73/74 86/221/74 27/222/74
f 101/72/75 86/221/75 102/223/75
f 96/224/76 18/65/76 5/225/76
f 96/224/77 99/63/77 100/226/77
f 45/212/78 97/227/78 17/228/78
f 110/211/79 98/44/79 97/227/79
f 6/229/80 91/230/80 32/231/80
f 95/232/81 92/41/81 91/230/81
f 93/233/8 26/234/8 1/235/8
f 94/24/8 85/236/8 93/233/8
f 94/237/5 20/56/5 2/238/5
f 93/13/5 98/239/5 94/237/5
f 145/240/82 15/82/82 142/84/82
f 146/7/83 104/220/83 145/240/83
f 116/207/2 13/241/2 57/76/2
f 115/6/2 90/242/2 116/207/2
f 171/243/84 9/244/84 161/67/84
f 172/3/85 88/245/85 171/243/85
f 117/198/86 145/240/86 118/204/86
f 77/160/82 145/240/82 142/84/82
f 101/72/87 144/200/87 143/201/87
f 10/70/87 143/201/87 127/165/87
f 102/223/87 141/75/87 144/200/87
f 124/195/87 19/62/87 6/246/87
f 137/189/9 27/247/9 2/248/9
f 138/186/7 31/249/7 5/250/7
f 123/173/5 17/14/5 1/251/5
f 10/70/88 121/167/88 26/252/88
f 16/8/89 122/159/89 32/253/89
f 84/180/90 133/117/90 83/144/90
f 82/147/91 133/117/91 132/112/91
f 82/147/92 125/114/92 71/148/92
f 81/178/93 130/111/93 80/151/93
f 79/154/94 130/111/94 129/106/94
f 79/154/95 126/108/95 74/155/95
f 142/84/23 65/254/23 77/160/23
f 141/75/96 64/255/96 76/163/96
f 69/256/97 140/66/97 73/169/97
f 68/257/5 139/57/5 72/175/5
f 81/178/98 139/258/98 131/49/98
f 84/180/99 140/259/99 134/46/99
f 70/260/100 122/39/100 66/182/100
f 67/261/7 121/21/7 63/191/7
f 78/197/101 146/7/101 117/198/101
f 120/203/102 172/3/102 171/243/102
f 75/202/103 171/243/103 161/67/103
f 89/262/5 169/205/5 90/263/5
f 90/263/5 154/162/5 13/264/5
f 89/262/104 162/85/104 170/196/104
f 3/28/7 155/192/7 25/265/7
f 8/31/105 156/183/105 30/266/105
f 51/267/106 152/268/106 168/143/106
f 22/269/107 165/150/107 54/270/107
f 4/271/108 151/176/108 22/272/108
f 7/273/109 152/170/109 23/274/109
f 153/1/110 28/275/110 12/276/110
f 154/162/23 29/277/23 13/264/23
f 56/278/111 160/156/111 24/279/111
f 56/278/112 164/152/112 163/153/112
f 54/270/113 164/152/113 55/280/113
f 53/281/114 159/149/114 21/282/114
f 53/281/115 167/145/115 166/146/115
f 51/267/116 167/145/116 52/283/116
f 78/197/117 156/87/117 66/158/117
f 75/202/118 155/69/118 63/166/118
f 157/60/119 71/284/119 67/171/119
f 150/36/7 65/285/7 69/184/7
f 149/27/9 64/286/9 68/187/9
f 158/12/120 74/287/120 70/193/120
f 119/199/121 153/1/121 172/3/121
f 153/1/122 12/276/122 87/2/122
f 62/4/2 14/90/2 89/5/2
f 146/7/123 128/157/123 16/8/123
f 8/10/124 24/288/124 160/11/124
f 93/13/5 1/251/5 17/14/5
f 7/16/125 23/289/125 51/17/125
f 123/19/7 1/290/7 26/20/7
f 2/22/8 27/291/8 86/23/8
f 4/25/9 28/124/9 147/26/9
f 3/28/7 25/265/7 35/29/7
f 8/31/9 30/266/9 38/32/9
f 7/34/7 29/129/7 148/35/7
f 124/37/9 6/292/9 32/38/9
f 5/40/10 31/293/10 92/41/10
f 50/43/126 20/294/126 98/44/126
f 134/46/127 140/259/127 18/47/127
f 131/49/128 139/258/128 20/50/128
f 42/52/41 4/295/41 22/53/41
f 137/55/5 2/238/5 20/56/5
f 3/58/108 21/296/108 159/59/108
f 95/61/129 6/246/129 19/62/129
f 138/64/87 5/225/87 18/65/87
f 161/67/130 9/244/130 25/68/130
f 10/70/74 26/252/74 85/71/74
f 11/73/20 27/222/20 135/74/20
f 57/76/21 13/241/21 29/77/21
f 60/79/131 12/139/131 28/80/131
f 15/82/23 31/219/23 136/83/23
f 162/85/132 14/297/132 30/86/132
f 16/8/133 32/253/133 91/88/133
f 62/4/26 38/92/26 30/89/26
f 61/91/26 37/93/26 38/92/26
f 61/91/134 60/79/134 36/81/134
f 59/94/135 35/98/135 25/95/135
f 58/97/136 34/99/136 35/98/136
f 58/97/21 57/76/21 33/78/21
f 44/100/137 56/104/137 24/101/137
f 44/100/138 43/105/138 55/103/138
f 42/52/139 54/54/139 55/103/139
f 129/106/140 48/110/140 19/107/140
f 129/106/141 130/111/141 49/109/141
f 130/111/142 131/49/142 50/51/142
f 132/112/143 45/116/143 17/113/143
f 132/112/144 133/117/144 46/115/144
f 134/46/145 47/48/145 46/115/145
f 99/118/146 19/298/146 48/119/146
f 105/120/147 48/119/147 49/121/147
f 107/122/148 49/121/148 50/43/148
f 4/25/9 42/125/9 36/123/9
f 42/125/9 43/127/9 37/126/9
f 44/33/9 38/32/9 37/126/9
f 7/34/7 39/130/7 33/128/7
f 39/130/7 40/132/7 34/131/7
f 41/30/7 35/29/7 34/131/7
f 41/133/149 53/137/149 21/134/149
f 41/133/150 40/138/150 52/136/150
f 39/18/151 51/17/151 52/136/151
f 12/139/44 60/79/44 111/140/44
f 60/79/45 61/91/45 113/142/45
f 61/91/2 62/4/2 115/6/2
f 168/143/152 84/180/152 83/144/152
f 166/146/153 167/145/153 83/144/153
f 166/146/154 82/147/154 71/148/154
f 165/150/155 81/178/155 80/151/155
f 163/153/156 164/152/156 80/151/156
f 163/153/157 79/154/157 74/155/157
f 128/157/158 78/197/158 66/158/158
f 77/160/23 65/254/23 148/161/23
f 76/163/159 64/255/159 147/164/159
f 127/165/160 75/202/160 63/166/160
f 150/168/161 69/256/161 73/169/161
f 67/171/5 71/284/5 125/172/5
f 149/174/162 68/257/162 72/175/162
f 151/177/163 72/299/163 81/178/163
f 168/143/164 152/268/164 73/179/164
f 158/181/165 70/260/165 66/182/165
f 69/184/7 65/285/7 136/185/7
f 68/187/9 64/286/9 135/188/9
f 157/190/7 67/261/7 63/191/7
f 70/193/166 74/287/166 126/194/166
f 170/196/167 162/85/167 78/197/167
f 141/75/168 76/163/168 119/199/168
f 143/201/169 120/203/169 75/202/169
f 144/200/170 119/199/170 120/203/170
f 154/162/5 169/205/5 118/204/5
f 169/205/5 170/196/5 117/198/5
f 114/206/2 116/207/2 57/76/2
f 113/142/2 115/6/2 116/207/2
f 112/208/45 114/206/45 58/97/45
f 111/140/45 113/142/45 114/206/45
f 9/96/171 88/209/171 112/208/171
f 87/141/44 111/140/44 112/208/44
f 46/210/172 108/213/172 110/211/172
f 108/213/173 107/122/173 109/45/173
f 106/214/174 108/213/174 46/210/174
f 105/120/175 107/122/175 108/213/175
f 18/216/176 100/217/176 106/214/176
f 100/217/177 99/118/177 105/120/177
f 15/82/178 104/220/178 92/218/178
f 104/220/179 103/9/179 91/88/179
f 11/73/180 102/223/180 86/221/180
f 101/72/181 85/71/181 86/221/181
f 96/224/182 100/226/182 18/65/182
f 96/224/183 95/61/183 99/63/183
f 45/212/184 110/211/184 97/227/184
f 110/211/185 109/45/185 98/44/185
f 6/229/186 95/232/186 91/230/186
f 95/232/187 96/42/187 92/41/187
f 93/233/8 85/236/8 26/234/8
f 94/24/8 86/23/8 85/236/8
f 94/237/5 98/239/5 20/56/5
f 93/13/5 97/15/5 98/239/5
f 145/240/188 104/220/188 15/82/188
f 146/7/189 103/9/189 104/220/189
f 116/207/2 90/242/2 13/241/2
f 115/6/2 89/5/2 90/242/2
f 171/243/190 88/245/190 9/244/190
f 172/3/191 87/2/191 88/245/191
f 117/198/192 146/7/192 145/240/192
f 77/160/193 118/204/193 145/240/193
f 101/72/87 102/223/87 144/200/87
f 10/70/87 101/72/87 143/201/87
f 102/223/87 11/73/87 141/75/87
f 124/195/87 126/194/87 19/62/87
f 137/189/9 135/188/9 27/247/9
f 138/186/7 136/185/7 31/249/7
f 123/173/5 125/172/5 17/14/5
f 10/70/88 127/165/88 121/167/88
f 16/8/89 128/157/89 122/159/89
f 84/180/194 134/46/194 133/117/194
f 82/147/195 83/144/195 133/117/195
f 82/147/196 132/112/196 125/114/196
f 81/178/142 131/49/142 130/111/142
f 79/154/197 80/151/197 130/111/197
f 79/154/198 129/106/198 126/108/198
f 142/84/23 136/83/23 65/254/23
f 141/75/199 135/74/199 64/255/199
f 69/256/200 138/64/200 140/66/200
f 68/257/5 137/55/5 139/57/5
f 81/178/201 72/299/201 139/258/201
f 84/180/202 73/179/202 140/259/202
f 70/260/203 124/37/203 122/39/203
f 67/261/7 123/19/7 121/21/7
f 78/197/204 128/157/204 146/7/204
f 120/203/205 119/199/205 172/3/205
f 75/202/206 120/203/206 171/243/206
f 89/262/5 170/196/5 169/205/5
f 90/263/5 169/205/5 154/162/5
f 89/262/207 14/297/207 162/85/207
f 3/28/7 157/190/7 155/192/7
f 8/31/208 158/181/208 156/183/208
f 51/267/209 23/300/209 152/268/209
f 22/269/210 151/177/210 165/150/210
f 4/271/211 149/174/211 151/176/211
f 7/273/212 150/168/212 152/170/212
f 153/1/213 147/164/213 28/275/213
f 154/162/23 148/161/23 29/277/23
f 56/278/214 163/153/214 160/156/214
f 56/278/215 55/280/215 164/152/215
f 54/270/216 165/150/216 164/152/216
f 53/281/217 166/146/217 159/149/217
f 53/281/218 52/283/218 167/145/218
f 51/267/219 168/143/219 167/145/219
f 78/197/220 162/85/220 156/87/220
f 75/202/221 161/67/221 155/69/221
f 157/60/222 159/59/222 71/284/222
f 150/36/7 148/35/7 65/285/7
f 149/27/9 147/26/9 64/286/9
f 158/12/223 160/11/223 74/287/223
f 119/199/224 76/163/224 153/1/224
