# Blender 4.2.1 LTS
# www.blender.org
mtllib clipboard.mtl
g clipboard_Mesh
v 0.087047 0.009147 0.142935
v 0.081151 0.009147 -0.104262
v -0.089718 0.007205 0.145910
v -0.083974 0.007205 -0.109881
v 0.087047 0.000947 0.142935
v 0.081151 0.000947 -0.104262
v -0.089718 -0.000995 0.145910
v -0.083974 -0.000995 -0.109881
v 0.087047 0.009147 0.080467
v 0.089573 0.009147 0.019165
v 0.084648 0.009147 -0.043543
v -0.088094 0.007205 -0.039863
v -0.084772 0.007205 0.002578
v -0.090690 0.007205 0.080722
v -0.088094 -0.000995 -0.039863
v -0.084772 -0.000995 0.002578
v -0.090690 -0.000995 0.080722
v 0.084648 0.000947 -0.043543
v 0.089573 0.000947 0.019165
v 0.087047 0.000947 0.080467
v -0.029935 0.006592 0.146433
v 0.001458 0.006184 0.142935
v 0.044048 0.012212 0.142935
v 0.029238 0.012001 -0.101056
v 0.000207 0.009138 -0.103519
v -0.036013 0.006815 -0.102427
v 0.044048 0.004012 0.142935
v 0.001458 -0.002016 0.142935
v -0.029935 -0.001608 0.146433
v -0.040621 -0.001608 -0.106937
v 0.001458 -0.002016 -0.109851
v 0.030303 0.004012 -0.106984
v -0.031572 0.000947 0.073449
v 0.011018 0.001049 0.104267
v 0.056458 0.000947 0.100910
v -0.027301 0.000947 -0.004885
v 0.001458 -0.002016 0.017999
v 0.057068 0.000947 0.020135
v -0.056345 0.000314 -0.067404
v -0.019290 0.000947 -0.030738
v 0.050559 0.000947 -0.079965
v 0.051271 0.009147 0.067652
v 0.014374 0.009249 0.062770
v -0.058112 0.012008 0.090841
v 0.034895 0.012212 -0.007326
v 0.001458 0.006184 0.017999
v -0.051806 0.012008 0.033611
v 0.034284 0.012212 -0.049046
v 0.010184 0.008075 -0.030893
v -0.033403 0.009147 -0.054843
v 0.082629 0.009147 -0.078605
v -0.085715 0.007205 -0.080294
v -0.085715 -0.000995 -0.080294
v 0.082629 0.000947 -0.078605
v -0.047265 -0.000796 -0.090232
v -0.007309 -0.000764 -0.076421
v 0.038862 0.002717 -0.095567
v 0.029707 0.012032 -0.085540
v 0.004235 0.008697 -0.080060
v -0.035787 0.007724 -0.089098
v 0.030377 0.012212 -0.105276
v 0.000053 0.009147 -0.108078
v -0.040621 0.006592 -0.106937
v 0.032028 0.012212 -0.081515
v -0.037571 0.007672 -0.084924
v 0.004334 0.008694 -0.075463
v 0.000207 0.018284 -0.098813
v 0.004235 0.021077 -0.077328
v 0.029238 0.021147 -0.096350
v -0.036013 0.015962 -0.097721
v 0.029707 0.024412 -0.082809
v -0.035787 0.020105 -0.086366
v 0.029238 0.015402 -0.101056
v 0.029707 0.018666 -0.082809
v 0.000207 0.012539 -0.103519
v 0.004235 0.015332 -0.077328
v -0.035787 0.014359 -0.086366
v -0.036013 0.010216 -0.102427
v 0.003779 0.020789 -0.070320
v -0.031628 0.019951 -0.078179
v 0.026173 0.023663 -0.075106
v -0.031628 0.014999 -0.078179
v 0.026173 0.018711 -0.075106
v 0.003162 0.015838 -0.070338
vn -0.0142 0.9988 -0.0470
vn -0.9983 -0.0000 -0.0587
vn -0.0413 -0.9991 0.0024
vn 0.9983 -0.0000 -0.0575
vn -0.0000 -0.0000 1.0000
vn 0.0534 -0.0000 -0.9986
vn 1.0000 -0.0000 -0.0000
vn 0.9992 -0.0000 0.0412
vn 0.9969 -0.0000 -0.0783
vn -0.0710 -0.9961 0.0517
vn -0.0000 -1.0000 -0.0000
vn -0.9999 -0.0000 0.0149
vn -0.9971 -0.0000 -0.0755
vn -0.9970 -0.0000 0.0780
vn 0.0094 0.9957 0.0922
vn -0.1411 0.9899 -0.0155
vn -0.0958 0.9940 -0.0521
vn 0.0582 0.9983 -0.0046
vn -0.1720 0.9851 0.0074
vn 0.1058 0.9943 -0.0102
vn -0.0000 1.0000 -0.0000
vn 0.0123 0.9973 -0.0718
vn 0.0397 0.9992 0.0044
vn 0.0711 0.9975 -0.0000
vn -0.1401 0.9900 0.0153
vn 0.0225 0.9961 0.0856
vn 0.0334 -0.9994 -0.0026
vn -0.0824 -0.9963 -0.0255
vn 0.0563 -0.9948 -0.0844
vn 0.0331 -0.9994 0.0025
vn -0.0253 -0.9989 0.0383
vn -0.0023 -1.0000 -0.0000
vn -0.0103 -0.9999 0.0002
vn -0.0224 -0.9962 -0.0845
vn 0.1400 -0.9892 -0.0438
vn 0.0678 -0.0000 -0.9977
vn -0.0669 0.1483 -0.9867
vn 0.0635 0.1644 -0.9844
vn -0.0087 -0.0000 1.0000
vn 0.1107 -0.0000 0.9939
vn 0.0052 -1.0000 0.0003
vn -0.0141 -0.9990 0.0430
vn 0.0214 -0.9915 -0.1286
vn 0.0607 0.9982 -0.0035
vn 0.0031 0.6336 -0.7736
vn 0.9994 -0.0000 -0.0346
vn 0.0183 0.9998 0.0115
vn -0.1451 0.9889 0.0328
vn 0.0611 0.9981 -0.0035
vn 0.0323 -0.9984 0.0459
vn -0.0158 -0.9993 0.0333
vn 0.0434 -0.9991 0.0026
vn -0.0361 0.9993 -0.0021
vn -0.0986 0.9951 0.0053
vn -0.0623 0.9980 0.0143
vn -0.1463 0.9892 0.0102
vn -0.1081 0.9936 -0.0337
vn -0.0247 0.9997 0.0012
vn -0.1206 0.9924 0.0250
vn -0.1739 0.9587 -0.2251
vn 0.0052 0.9915 -0.1299
vn 0.9089 -0.0000 0.4171
vn -0.9997 -0.0145 0.0178
vn -0.0638 0.6323 -0.7721
vn -0.1210 0.9918 0.0409
vn -0.1957 -0.3734 0.9068
vn -0.0301 -0.0000 -0.9995
vn -0.9999 -0.0000 0.0169
vn 0.2414 -0.3695 0.8973
vn 0.9995 0.0114 -0.0278
vn 0.0845 -0.0000 -0.9964
vn 0.2063 -0.0292 0.9780
vn -0.2199 -0.0000 0.9755
vn 0.0075 -0.9972 0.0742
vn -0.0323 0.9987 0.0390
vn 0.1424 -0.9854 0.0932
vn -0.8915 -0.0000 0.4530
vn 0.0141 0.9999 0.0008
vn -0.0562 -0.9959 -0.0708
vn 0.0318 0.2035 -0.9786
vn -0.1465 0.9892 0.0022
vn -0.1347 0.9908 -0.0102
vn -0.0347 0.9994 0.0027
vn 0.0609 0.9981 -0.0009
vn -0.1674 0.9859 0.0024
vn 0.0030 0.9992 0.0392
vn 0.0405 0.9987 0.0320
vn -0.1268 0.9896 0.0682
vn 0.0817 0.9924 -0.0915
vn 0.0141 0.9991 -0.0393
vn 0.0080 0.9992 -0.0399
vn 0.0562 0.9973 0.0472
vn 0.0356 -0.9993 -0.0064
vn 0.0131 -0.9999 0.0041
vn 0.0340 -0.9994 0.0019
vn -0.0983 -0.9951 -0.0054
vn 0.0521 -0.9982 0.0297
vn 0.0284 -0.9990 -0.0356
vn 0.0282 -0.9990 -0.0356
vn 0.0032 -0.9973 0.0737
vn -0.0280 -0.0000 -0.9996
vn 0.0698 0.2028 -0.9767
vn -0.0170 -0.9990 0.0418
vn -0.0072 -0.9993 0.0355
vn 0.1954 -0.9768 0.0878
vn 0.0603 0.9982 -0.0042
vn 0.9992 0.0247 -0.0301
vn -0.0137 0.9988 -0.0471
vn -0.1242 0.9922 0.0086
vn 0.0607 0.9981 -0.0042
vn 0.0197 -0.9982 0.0564
vn 0.0049 -0.9932 -0.1164
vn -0.1026 0.9945 0.0222
vn -0.0639 0.9979 0.0041
vn -0.0784 0.9969 0.0004
vn 0.0187 0.9975 -0.0683
vn -0.0247 0.9997 0.0020
vn -0.1291 0.9916 0.0035
vn -0.0881 0.9898 -0.1122
vn -0.0704 0.9376 -0.3406
vn -0.9998 -0.0000 0.0198
vn -0.1203 0.9922 0.0330
vn -0.9999 -0.0065 0.0157
vn 0.9995 -0.0000 -0.0302
vn 0.2090 -0.0000 0.9779
vn -0.2172 0.0236 0.9759
vn 0.0075 -0.9973 0.0733
vn -0.0322 0.9989 0.0351
vn 0.1447 -0.9868 0.0722
vt 0.071057 0.154730
vt 0.069051 0.153486
vt 0.071216 0.153740
vt 0.073953 0.149018
vt 0.073583 0.150347
vt 0.073583 0.149019
vt 0.070811 0.155022
vt 0.068914 0.155454
vt 0.068824 0.154299
vt 0.073583 0.150347
vt 0.073953 0.151502
vt 0.073583 0.151502
vt 0.071784 0.153431
vt 0.071948 0.151485
vt 0.072153 0.153418
vt 0.070815 0.153094
vt 0.070672 0.150791
vt 0.071041 0.150806
vt 0.073583 0.158667
vt 0.073953 0.161482
vt 0.073583 0.161482
vt 0.073583 0.155901
vt 0.073953 0.158667
vt 0.073583 0.153080
vt 0.073952 0.155901
vt 0.069839 0.146182
vt 0.068421 0.144316
vt 0.070357 0.144275
vt 0.069886 0.149824
vt 0.068479 0.147132
vt 0.068701 0.152720
vt 0.068421 0.149898
vt 0.073952 0.138840
vt 0.073583 0.141778
vt 0.073583 0.138841
vt 0.073952 0.145284
vt 0.073953 0.141778
vt 0.073953 0.147203
vt 0.073583 0.145284
vt 0.070460 0.145796
vt 0.069078 0.143286
vt 0.071771 0.143318
vt 0.070691 0.148381
vt 0.068975 0.146223
vt 0.071434 0.152387
vt 0.069170 0.149751
vt 0.076762 0.151988
vt 0.074560 0.150308
vt 0.077042 0.149166
vt 0.073418 0.151349
vt 0.073066 0.149137
vt 0.075361 0.146945
vt 0.076984 0.146400
vt 0.073694 0.147130
vt 0.075110 0.143543
vt 0.077042 0.143585
vt 0.073181 0.143506
vt 0.076485 0.152395
vt 0.073711 0.150874
vt 0.076296 0.150485
vt 0.073374 0.152047
vt 0.072396 0.149870
vt 0.073832 0.147339
vt 0.076491 0.146957
vt 0.071884 0.145989
vt 0.073693 0.144051
vt 0.076387 0.144019
vt 0.072281 0.144238
vt 0.070835 0.158253
vt 0.070567 0.156283
vt 0.070936 0.156298
vt 0.070531 0.154449
vt 0.071041 0.154408
vt 0.071774 0.159463
vt 0.072024 0.156757
vt 0.072143 0.159450
vt 0.071655 0.156770
vt 0.071948 0.155346
vt 0.076364 0.155555
vt 0.074691 0.154703
vt 0.076415 0.154220
vt 0.074407 0.155463
vt 0.072877 0.154118
vt 0.071207 0.155528
vt 0.076549 0.154722
vt 0.074362 0.153649
vt 0.076639 0.153567
vt 0.558037 0.433890
vt 0.557871 0.434782
vt 0.557850 0.433871
vt 0.554220 0.430561
vt 0.554047 0.430953
vt 0.554047 0.430519
vt 0.073114 0.153352
vt 0.074494 0.152188
vt 0.070271 0.154330
vt 0.075078 0.153665
vt 0.073953 0.153080
vt 0.073583 0.147203
vt 0.068981 0.151661
vt 0.074218 0.154528
vt 0.072892 0.154818
vt 0.072903 0.154613
vt 0.071269 0.154531
vt 0.074266 0.154719
vt 0.071293 0.153930
vt 0.073106 0.153559
vt 0.074254 0.153829
vt 0.556981 0.425011
vt 0.556412 0.425807
vt 0.556558 0.425005
vt 0.557085 0.425915
vt 0.556730 0.427044
vt 0.554126 0.430289
vt 0.554276 0.430325
vt 0.553247 0.431864
vt 0.553415 0.432179
vt 0.553298 0.432378
vt 0.558057 0.434801
vt 0.557850 0.435910
vt 0.556322 0.425123
vt 0.555153 0.434111
vt 0.555404 0.435346
vt 0.555193 0.435361
vt 0.558163 0.434809
vt 0.558037 0.435929
vt 0.553082 0.432015
vt 0.553198 0.432414
vt 0.555193 0.433316
vt 0.555364 0.434095
vt 0.554401 0.430693
vt 0.554186 0.431137
vt 0.558142 0.433899
vt 0.553852 0.433899
vt 0.553972 0.434588
vt 0.553819 0.434617
vt 0.554006 0.435694
vt 0.553852 0.435704
vt 0.073249 0.153510
vt 0.073299 0.155126
vt 0.072941 0.155334
vt 0.556472 0.426922
vt 0.556195 0.425828
vt 0.073296 0.152514
vt 0.073567 0.153540
vt 0.553415 0.431803
vt 0.553176 0.431612
vt 0.553321 0.431559
vt 0.069102 0.154821
vt 0.073952 0.150347
vt 0.073953 0.150347
vt 0.071579 0.151498
vt 0.070442 0.153074
vt 0.070467 0.158238
vt 0.071579 0.155359
vt 0.072514 0.155633
vt 0.557085 0.427045
vt 0.558142 0.435937
vt 0.555404 0.433300
vt 0.554289 0.431162
vt 0.554006 0.433889
vt 0.072941 0.152374
s 0
g clipboard_Material
usemtl Material
f 63/1/1 52/2/1 65/3/1
f 52/4/2 8/5/2 53/6/2
f 57/7/3 6/8/3 54/9/3
f 6/10/4 51/11/4 54/12/4
f 27/13/5 1/14/5 23/15/5
f 32/16/6 2/17/6 6/18/6
f 20/19/7 1/20/7 5/21/7
f 19/22/8 9/23/8 20/19/8
f 18/24/9 10/25/9 19/22/9
f 35/26/10 5/27/10 27/28/10
f 38/29/11 20/30/11 35/26/11
f 38/29/11 18/31/11 19/32/11
f 3/33/12 17/34/12 7/35/12
f 13/36/13 17/34/13 14/37/13
f 12/38/14 16/39/14 13/36/14
f 44/40/15 3/41/15 21/42/15
f 47/43/16 14/44/16 44/40/16
f 50/45/17 13/46/17 47/43/17
f 11/47/18 45/48/18 10/49/18
f 45/48/19 49/50/19 46/51/19
f 46/51/20 50/45/20 47/43/20
f 10/49/21 42/52/21 9/53/21
f 42/52/22 46/51/22 43/54/22
f 43/54/23 47/43/23 44/40/23
f 9/53/24 23/55/24 1/56/24
f 23/55/25 43/54/25 22/57/25
f 22/57/26 44/40/26 21/42/26
f 15/58/27 36/59/27 16/60/27
f 36/59/28 40/61/28 37/62/28
f 40/61/29 38/29/29 37/62/29
f 16/60/30 33/63/30 17/64/30
f 33/63/31 37/62/31 34/65/31
f 34/65/32 38/29/32 35/26/32
f 17/64/33 29/66/33 7/67/33
f 29/66/34 34/65/34 28/68/34
f 34/65/35 27/28/35 28/68/35
f 8/69/36 63/70/36 30/71/36
f 30/71/37 62/72/37 31/73/37
f 62/72/38 32/16/38 31/73/38
f 7/74/39 21/75/39 3/76/39
f 29/77/40 22/78/40 21/75/40
f 22/78/5 27/13/5 23/15/5
f 8/79/41 55/80/41 53/81/41
f 30/82/42 56/83/42 55/80/42
f 56/83/43 32/84/43 57/7/43
f 2/85/44 64/86/44 51/87/44
f 73/88/45 67/89/45 69/90/45
f 74/91/46 69/92/46 71/93/46
f 66/94/47 50/45/47 49/50/47
f 48/95/48 66/94/48 49/50/48
f 51/87/49 48/95/49 11/47/49
f 56/83/50 41/96/50 40/61/50
f 39/97/51 56/83/51 40/61/51
f 53/81/52 39/97/52 15/58/52
f 54/12/4 11/98/4 18/24/4
f 41/96/11 54/9/11 18/31/11
f 52/4/2 15/99/2 12/38/2
f 50/45/53 52/2/53 12/100/53
f 24/101/54 62/102/54 25/103/54
f 26/104/55 62/102/55 63/1/55
f 24/101/56 64/86/56 61/105/56
f 60/106/57 63/1/57 65/3/57
f 59/107/58 65/3/58 66/94/58
f 58/108/59 66/94/59 64/86/59
f 69/109/60 68/110/60 71/111/60
f 67/112/61 72/113/61 68/110/61
f 74/91/62 81/114/62 83/115/62
f 77/116/63 70/117/63 78/118/63
f 75/119/64 70/120/64 67/89/64
f 68/110/65 81/121/65 71/111/65
f 59/122/66 77/123/66 60/124/66
f 25/125/67 78/126/67 75/119/67
f 60/127/68 78/118/68 26/128/68
f 58/129/69 76/130/69 59/122/69
f 58/131/70 73/132/70 74/91/70
f 24/133/71 75/119/71 73/88/71
f 83/134/72 79/135/72 84/136/72
f 84/136/73 80/137/73 82/138/73
f 76/139/74 82/140/74 77/141/74
f 68/110/75 80/142/75 79/143/75
f 76/139/76 83/144/76 84/145/76
f 72/146/77 82/147/77 80/148/77
f 63/1/78 4/149/78 52/2/78
f 52/4/2 4/150/2 8/5/2
f 57/7/79 32/84/79 6/8/79
f 6/10/4 2/151/4 51/11/4
f 27/13/5 5/152/5 1/14/5
f 32/16/80 61/153/80 2/17/80
f 20/19/7 9/23/7 1/20/7
f 19/22/8 10/25/8 9/23/8
f 18/24/9 11/98/9 10/25/9
f 35/26/11 20/30/11 5/27/11
f 38/29/11 19/32/11 20/30/11
f 38/29/11 41/96/11 18/31/11
f 3/33/12 14/37/12 17/34/12
f 13/36/13 16/39/13 17/34/13
f 12/38/14 15/99/14 16/39/14
f 44/40/81 14/44/81 3/41/81
f 47/43/82 13/46/82 14/44/82
f 50/45/83 12/100/83 13/46/83
f 11/47/84 48/95/84 45/48/84
f 45/48/85 48/95/85 49/50/85
f 46/51/86 49/50/86 50/45/86
f 10/49/87 45/48/87 42/52/87
f 42/52/88 45/48/88 46/51/88
f 43/54/89 46/51/89 47/43/89
f 9/53/90 42/52/90 23/55/90
f 23/55/91 42/52/91 43/54/91
f 22/57/92 43/54/92 44/40/92
f 15/58/93 39/97/93 36/59/93
f 36/59/94 39/97/94 40/61/94
f 40/61/11 41/96/11 38/29/11
f 16/60/95 36/59/95 33/63/95
f 33/63/96 36/59/96 37/62/96
f 34/65/97 37/62/97 38/29/97
f 17/64/98 33/63/98 29/66/98
f 29/66/99 33/63/99 34/65/99
f 34/65/100 35/26/100 27/28/100
f 8/69/36 4/154/36 63/70/36
f 30/71/101 63/70/101 62/72/101
f 62/72/102 61/153/102 32/16/102
f 7/74/39 29/77/39 21/75/39
f 29/77/40 28/155/40 22/78/40
f 22/78/5 28/155/5 27/13/5
f 8/79/103 30/82/103 55/80/103
f 30/82/104 31/156/104 56/83/104
f 56/83/105 31/156/105 32/84/105
f 2/85/106 61/105/106 64/86/106
f 73/88/45 75/119/45 67/89/45
f 74/91/107 73/132/107 69/92/107
f 66/94/108 65/3/108 50/45/108
f 48/95/109 64/86/109 66/94/109
f 51/87/110 64/86/110 48/95/110
f 56/83/43 57/7/43 41/96/43
f 39/97/42 55/80/42 56/83/42
f 53/81/111 55/80/111 39/97/111
f 54/12/4 51/11/4 11/98/4
f 41/96/112 57/7/112 54/9/112
f 52/4/2 53/6/2 15/99/2
f 50/45/1 65/3/1 52/2/1
f 24/101/113 61/105/113 62/102/113
f 26/104/114 25/103/114 62/102/114
f 24/101/115 58/108/115 64/86/115
f 60/106/116 26/104/116 63/1/116
f 59/107/117 60/106/117 65/3/117
f 58/108/118 59/107/118 66/94/118
f 69/109/119 67/112/119 68/110/119
f 67/112/120 70/157/120 72/113/120
f 74/91/62 71/93/62 81/114/62
f 77/116/121 72/146/121 70/117/121
f 75/119/64 78/126/64 70/120/64
f 68/110/122 79/143/122 81/121/122
f 59/122/66 76/130/66 77/123/66
f 25/125/67 26/158/67 78/126/67
f 60/127/123 77/116/123 78/118/123
f 58/129/69 74/159/69 76/130/69
f 58/131/124 24/160/124 73/132/124
f 24/133/71 25/125/71 75/119/71
f 83/134/125 81/161/125 79/135/125
f 84/136/126 79/135/126 80/137/126
f 76/139/127 84/145/127 82/140/127
f 68/110/128 72/113/128 80/142/128
f 76/139/129 74/162/129 83/144/129
f 72/146/77 77/116/77 82/147/77
g paper_Mesh
v 0.075167 0.013138 0.134552
v 0.066359 0.013138 -0.082719
v -0.078753 0.011457 0.134772
v -0.070078 0.011457 -0.085229
v 0.075167 0.010979 0.134552
v 0.066359 0.010979 -0.082719
v -0.078753 0.009298 0.134772
v -0.070078 0.009298 -0.085229
v 0.075167 0.013138 0.080454
v 0.075167 0.013138 0.026357
v 0.066359 0.013138 -0.028621
v -0.067083 0.011457 -0.025098
v -0.062019 0.011457 0.011824
v -0.078753 0.011457 0.080674
v -0.067083 0.009298 -0.025098
v -0.062019 0.009298 0.011824
v -0.078753 0.009298 0.080674
v 0.066359 0.010979 -0.028621
v 0.075167 0.010979 0.026357
v 0.075167 0.010979 0.080454
v -0.035394 0.010926 0.134552
v 0.001046 0.010572 0.134552
v 0.037930 0.015793 0.134552
v 0.021547 0.015793 -0.076025
v -0.012958 0.013138 -0.077610
v -0.035394 0.010926 -0.081838
v 0.037930 0.013634 0.134552
v 0.001046 0.008413 0.134552
v -0.035394 0.008767 0.134552
v -0.035394 0.008767 -0.081838
v 0.001046 0.008413 -0.081838
v 0.021987 0.013634 -0.080869
v -0.027558 0.010979 0.074377
v 0.009325 0.011068 0.101065
v 0.048676 0.010979 0.098158
v -0.023859 0.010979 0.006539
v 0.001046 0.008413 0.026357
v 0.049204 0.010979 0.028207
v -0.049011 0.010431 -0.047602
v -0.016922 0.010979 -0.015850
v 0.043567 0.010979 -0.058480
v 0.044184 0.013138 0.069356
v 0.012232 0.013226 0.065129
v -0.050542 0.015616 0.089438
v 0.030002 0.015793 0.004425
v 0.001046 0.010572 0.026357
v -0.045081 0.015616 0.039877
v 0.029474 0.015793 -0.031704
v 0.008603 0.012209 -0.015983
v -0.029144 0.013138 -0.036724
vn -0.0436 0.9990 0.0022
vn -0.9988 -0.0000 0.0497
vn -0.0000 -1.0000 -0.0000
vn 1.0000 -0.0000 -0.0000
vn -0.0000 -0.0000 1.0000
vn -0.0416 -0.0000 -0.9991
vn 0.9874 -0.0000 -0.1582
vn -0.0710 -0.9961 0.0517
vn -1.0000 -0.0000 -0.0000
vn -0.9717 -0.0000 -0.2362
vn -0.9907 -0.0000 0.1359
vn 0.0127 0.9950 0.0992
vn -0.1411 0.9899 -0.0155
vn -0.1411 0.9881 -0.0613
vn 0.0636 0.9979 -0.0102
vn -0.1720 0.9851 0.0074
vn 0.1058 0.9943 -0.0102
vn -0.0000 1.0000 -0.0000
vn 0.0123 0.9973 -0.0718
vn 0.0397 0.9992 0.0044
vn 0.0711 0.9975 -0.0000
vn -0.1401 0.9900 0.0153
vn 0.0097 0.9949 0.1002
vn 0.0432 -0.9990 -0.0059
vn -0.0824 -0.9963 -0.0255
vn 0.0563 -0.9948 -0.0844
vn 0.0338 -0.9994 0.0082
vn -0.0253 -0.9989 0.0383
vn -0.0023 -1.0000 -0.0000
vn -0.0122 -0.9999 -0.0000
vn -0.0097 -0.9966 -0.0814
vn 0.1400 -0.9892 -0.0438
vn 0.0973 -0.0000 -0.9953
vn 0.0066 0.6775 -0.7355
vn -0.2021 0.8876 -0.4139
vn 0.0051 -0.0000 1.0000
vn 0.0589 -0.9983 -0.0029
vn -0.0168 -0.9993 0.0343
vn 0.0339 -0.9983 0.0480
vn 0.0718 0.9974 -0.0000
vn -0.1257 0.9903 0.0589
vn 0.0202 0.9998 0.0080
vn 0.0203 0.9985 -0.0518
vn -0.0620 -0.9964 -0.0583
vn -0.0068 0.9132 -0.4076
vn -0.1458 0.9893 -0.0000
vn -0.1723 0.9842 -0.0419
vn -0.0425 0.9991 0.0058
vn 0.0719 0.9974 -0.0011
vn -0.1674 0.9859 0.0024
vn 0.0030 0.9992 0.0392
vn 0.0435 0.9986 0.0313
vn -0.1268 0.9896 0.0682
vn 0.0817 0.9924 -0.0915
vn 0.0141 0.9991 -0.0393
vn 0.0080 0.9992 -0.0399
vn 0.0562 0.9973 0.0472
vn 0.0476 -0.9988 -0.0120
vn 0.0131 -0.9999 0.0041
vn 0.0444 -0.9990 0.0024
vn -0.0983 -0.9951 -0.0054
vn 0.0521 -0.9982 0.0297
vn 0.0288 -0.9990 -0.0330
vn 0.0265 -0.9991 -0.0333
vn 0.0032 -0.9973 0.0737
vn 0.1852 -0.0000 -0.9827
vn -0.0143 0.6429 -0.7658
vn -0.0193 -0.9990 0.0409
vn -0.0097 -0.9990 0.0447
vn 0.2422 -0.9083 -0.3412
vn 0.0576 0.9983 -0.0103
vn -0.0773 0.9969 0.0138
vn -0.0913 0.9952 -0.0361
vt 0.789977 0.195805
vt 0.791047 0.194219
vt 0.791152 0.196030
vt 0.788923 0.201247
vt 0.788858 0.199436
vt 0.788923 0.199436
vt 0.786361 0.204863
vt 0.785674 0.205593
vt 0.785674 0.203963
vt 0.790085 0.198813
vt 0.790150 0.200442
vt 0.790085 0.200442
vt 0.789381 0.201965
vt 0.789396 0.203087
vt 0.789316 0.201965
vt 0.788302 0.194648
vt 0.786967 0.194736
vt 0.786969 0.194736
vt 0.790085 0.203737
vt 0.790150 0.205366
vt 0.790085 0.205366
vt 0.790085 0.202108
vt 0.790150 0.203737
vt 0.790150 0.202108
vt 0.786207 0.200142
vt 0.785409 0.199045
vt 0.786530 0.199045
vt 0.786191 0.202250
vt 0.785409 0.200675
vt 0.785409 0.202306
vt 0.788923 0.196243
vt 0.788858 0.194613
vt 0.788923 0.194613
vt 0.788923 0.198325
vt 0.788858 0.196243
vt 0.788858 0.198325
vt 0.791025 0.199516
vt 0.792020 0.200783
vt 0.790721 0.200917
vt 0.790701 0.198049
vt 0.791845 0.199162
vt 0.791120 0.197153
vt 0.787142 0.196357
vt 0.788336 0.197230
vt 0.787057 0.198033
vt 0.788914 0.196549
vt 0.789279 0.197793
vt 0.788124 0.199221
vt 0.787232 0.199654
vt 0.789067 0.198991
vt 0.788521 0.201155
vt 0.787407 0.201275
vt 0.789629 0.201035
vt 0.789696 0.203857
vt 0.788393 0.202903
vt 0.789544 0.202744
vt 0.788184 0.203578
vt 0.787643 0.202306
vt 0.788505 0.200858
vt 0.790048 0.200669
vt 0.787393 0.200054
vt 0.788742 0.199045
vt 0.790048 0.199038
vt 0.787643 0.199045
vt 0.788028 0.193906
vt 0.788087 0.194956
vt 0.788022 0.194957
vt 0.788160 0.195641
vt 0.788022 0.196050
vt 0.788930 0.194551
vt 0.788329 0.194792
vt 0.789512 0.198448
vt 0.789463 0.199755
vt 0.789446 0.198448
vt 0.789528 0.199755
vt 0.789473 0.200854
vt 0.789787 0.205669
vt 0.789152 0.204535
vt 0.787643 0.205567
vt 0.788235 0.196145
vt 0.789360 0.194632
vt 0.790020 0.194433
vt 0.788858 0.201247
vt 0.787011 0.205537
vt 0.790150 0.198813
vt 0.789461 0.203087
vt 0.788093 0.193906
vt 0.789538 0.200854
vt 0.788742 0.205567
s 0
g paper_Material
usemtl Material
f 134/163/130 88/164/130 96/165/130
f 88/166/131 99/167/131 96/168/131
f 125/169/132 90/170/132 102/171/132
f 90/172/133 95/173/133 102/174/133
f 111/175/134 85/176/134 107/177/134
f 116/178/135 86/179/135 90/180/135
f 104/181/133 85/182/133 89/183/133
f 103/184/133 93/185/133 104/181/133
f 102/174/136 94/186/136 103/184/136
f 119/187/137 89/188/137 111/189/137
f 122/190/132 104/191/132 119/187/132
f 122/190/132 102/171/132 103/192/132
f 98/193/138 91/194/138 87/195/138
f 97/196/139 101/197/139 98/193/139
f 96/168/140 100/198/140 97/196/140
f 128/199/141 87/200/141 105/201/141
f 131/202/142 98/203/142 128/199/142
f 134/163/143 97/204/143 131/202/143
f 95/205/144 129/206/144 94/207/144
f 129/206/145 133/208/145 130/209/145
f 130/209/146 134/163/146 131/202/146
f 94/207/147 126/210/147 93/211/147
f 126/210/148 130/209/148 127/212/148
f 127/212/149 131/202/149 128/199/149
f 93/211/150 107/213/150 85/214/150
f 107/213/151 127/212/151 106/215/151
f 106/215/152 128/199/152 105/201/152
f 99/216/153 120/217/153 100/218/153
f 120/217/154 124/219/154 121/220/154
f 124/219/155 122/190/155 121/220/155
f 100/218/156 117/221/156 101/222/156
f 117/221/157 121/220/157 118/223/157
f 118/223/158 122/190/158 119/187/158
f 101/222/159 113/224/159 91/225/159
f 113/224/160 118/223/160 112/226/160
f 118/223/161 111/189/161 112/226/161
f 92/227/162 110/228/162 114/229/162
f 114/229/163 109/230/163 115/231/163
f 115/232/164 108/233/164 116/178/164
f 91/234/165 105/235/165 87/236/165
f 113/237/134 106/238/134 105/235/134
f 106/238/134 111/175/134 107/177/134
f 92/239/166 123/240/166 99/216/166
f 123/240/167 115/241/167 124/219/167
f 115/241/168 125/169/168 124/219/168
f 86/179/169 132/242/169 95/205/169
f 132/242/170 109/243/170 133/208/170
f 109/243/171 134/163/171 133/208/171
f 134/163/172 110/244/172 88/164/172
f 88/166/131 92/245/131 99/167/131
f 125/169/173 116/246/173 90/170/173
f 90/172/133 86/247/133 95/173/133
f 111/175/134 89/248/134 85/176/134
f 116/178/174 108/233/174 86/179/174
f 104/181/133 93/185/133 85/182/133
f 103/184/133 94/186/133 93/185/133
f 102/174/136 95/173/136 94/186/136
f 119/187/132 104/191/132 89/188/132
f 122/190/132 103/192/132 104/191/132
f 122/190/132 125/169/132 102/171/132
f 98/193/138 101/197/138 91/194/138
f 97/196/139 100/198/139 101/197/139
f 96/168/140 99/167/140 100/198/140
f 128/199/175 98/203/175 87/200/175
f 131/202/176 97/204/176 98/203/176
f 134/163/177 96/165/177 97/204/177
f 95/205/178 132/242/178 129/206/178
f 129/206/179 132/242/179 133/208/179
f 130/209/180 133/208/180 134/163/180
f 94/207/181 129/206/181 126/210/181
f 126/210/182 129/206/182 130/209/182
f 127/212/183 130/209/183 131/202/183
f 93/211/184 126/210/184 107/213/184
f 107/213/185 126/210/185 127/212/185
f 106/215/186 127/212/186 128/199/186
f 99/216/187 123/240/187 120/217/187
f 120/217/188 123/240/188 124/219/188
f 124/219/132 125/169/132 122/190/132
f 100/218/189 120/217/189 117/221/189
f 117/221/190 120/217/190 121/220/190
f 118/223/191 121/220/191 122/190/191
f 101/222/192 117/221/192 113/224/192
f 113/224/193 117/221/193 118/223/193
f 118/223/194 119/187/194 111/189/194
f 92/227/162 88/249/162 110/228/162
f 114/229/195 110/228/195 109/230/195
f 115/232/196 109/243/196 108/233/196
f 91/234/165 113/237/165 105/235/165
f 113/237/134 112/250/134 106/238/134
f 106/238/134 112/250/134 111/175/134
f 92/239/197 114/251/197 123/240/197
f 123/240/198 114/251/198 115/241/198
f 115/241/199 116/246/199 125/169/199
f 86/179/200 108/233/200 132/242/200
f 132/242/201 108/233/201 109/243/201
f 109/243/202 110/244/202 134/163/202
