# Blender 4.2.1 LTS
# www.blender.org
mtllib crutch.mtl
g crutch_Mesh
v 0.012606 0.308981 0.009327
v 0.012606 0.324010 0.009327
v -0.012607 0.308981 0.009327
v -0.012607 0.324010 0.009327
v 0.012606 0.308981 -0.009327
v 0.012606 0.324010 -0.009327
v -0.012607 0.308981 -0.009327
v -0.012607 0.324010 -0.009327
v 0.012606 0.037972 0.009327
v -0.012607 0.037972 0.009327
v 0.012606 0.037972 -0.009327
v -0.012607 0.037972 -0.009327
v 0.015208 -0.000000 0.011252
v -0.015208 -0.000000 0.011252
v 0.015208 -0.000000 -0.011252
v -0.015208 -0.000000 -0.011252
v -0.016216 0.034899 0.011346
v 0.016216 0.034899 0.011346
v -0.016216 0.034899 -0.011346
v 0.016216 0.034899 -0.011346
v -0.021105 -0.000000 0.014767
v 0.021105 -0.000000 0.014767
v -0.021105 -0.000000 -0.014767
v 0.021105 -0.000000 -0.014767
v 0.046854 0.972069 0.104675
v 0.047425 1.048061 0.126820
v -0.046853 0.972069 0.104675
v -0.047423 1.048061 0.126820
v 0.046854 0.972069 -0.104675
v 0.047425 1.048061 -0.126820
v -0.046853 0.972069 -0.104675
v -0.047423 1.048061 -0.126820
v 0.049791 1.032533 0.129945
v -0.049789 1.032533 0.129945
v -0.049789 1.032533 -0.129944
v 0.049791 1.032533 -0.129944
v -0.046853 0.980603 -0.056667
v -0.046853 0.984778 0.000000
v -0.046853 0.980603 0.056667
v -0.046853 1.052073 0.076630
v -0.046853 1.054352 0.000000
v -0.046853 1.052073 -0.076630
v 0.046854 0.980603 0.056667
v 0.046854 0.984778 0.000000
v 0.046854 0.980603 -0.056667
v 0.046854 1.052073 -0.076630
v 0.046854 1.054352 0.000000
v 0.046854 1.052073 0.076630
v 0.049791 1.032533 -0.078518
v 0.049791 1.032533 0.000000
v 0.049791 1.032533 0.078518
v -0.049789 1.032533 0.078518
v -0.049789 1.032533 0.000000
v -0.049789 1.032533 -0.078518
v -0.015125 0.965705 0.083499
v 0.015127 0.965705 0.083499
v 0.028496 1.051453 0.126820
v -0.028495 1.051453 0.126820
v 0.015127 0.965705 -0.083499
v -0.015125 0.965705 -0.083499
v -0.028495 1.051453 -0.126820
v 0.028496 1.051453 -0.126820
v -0.030281 1.035925 -0.129944
v 0.030282 1.035925 -0.129944
v 0.030282 1.035925 0.129945
v -0.030281 1.035925 0.129945
v -0.028495 1.055465 -0.076630
v 0.028496 1.055465 -0.076630
v -0.028495 1.057743 0.000000
v 0.028496 1.057743 0.000000
v -0.028495 1.055465 0.076630
v 0.028496 1.055465 0.076630
v -0.015125 0.967558 0.063322
v 0.015127 0.967558 0.063322
v -0.028495 0.976487 0.000000
v 0.028496 0.976487 0.000000
v -0.015125 0.967558 -0.063322
v 0.015127 0.967558 -0.063322
v 0.000001 0.962896 0.091754
v 0.000001 1.054217 0.126820
v 0.000001 0.962896 -0.091754
v 0.000001 1.054217 -0.126820
v 0.000001 1.038689 -0.129944
v 0.000001 1.038689 0.129945
v 0.000001 1.058228 -0.076630
v 0.000001 1.060507 0.000000
v 0.000001 1.058228 0.076630
v 0.000001 0.967166 0.055926
v 0.000001 0.973473 0.000000
v 0.000001 0.967166 -0.055926
v 0.000001 0.960764 0.104675
v 0.028496 0.963778 0.104675
v 0.000001 0.960764 -0.104675
v -0.028495 0.963778 -0.104675
v 0.000001 0.969298 0.048030
v 0.028496 0.972313 0.048030
v 0.000001 0.969298 -0.048030
v 0.028496 0.972313 -0.048030
v -0.028495 0.972313 0.048030
v -0.028495 0.963778 0.104675
v -0.028495 0.972313 -0.048030
v 0.028496 0.963778 -0.104675
v 0.000001 0.964090 0.083497
v 0.021018 0.965129 0.091756
v 0.000001 0.964090 -0.083497
v -0.021017 0.965129 -0.091756
v 0.000001 0.965972 0.063324
v 0.021018 0.969380 0.055925
v 0.000001 0.965972 -0.063324
v 0.021018 0.969380 -0.055925
v -0.021017 0.969380 0.055925
v -0.021017 0.965129 0.091756
v -0.021017 0.969380 -0.055925
v 0.021018 0.965129 -0.091756
v 0.000001 0.839547 -0.073438
v 0.000001 0.839547 -0.054895
v 0.000001 0.839547 0.054895
v 0.000001 0.839547 0.073438
v 0.009567 0.839547 0.073462
v -0.009566 0.839547 -0.073462
v 0.009567 0.839547 0.054914
v 0.009567 0.839547 -0.054913
v -0.009566 0.839547 0.054914
v -0.009566 0.839547 0.073462
v -0.009566 0.839547 -0.054913
v 0.009567 0.839547 -0.073462
v 0.000001 0.722073 -0.062644
v 0.000001 0.723282 -0.045485
v 0.000001 0.725975 0.045765
v 0.000001 0.722073 0.062644
v 0.006999 0.722073 0.062659
v -0.006998 0.722073 -0.062659
v 0.006506 0.723282 0.045497
v 0.006506 0.723282 -0.045497
v -0.006505 0.723282 0.045497
v -0.006998 0.722073 0.062659
v -0.006505 0.723282 -0.045497
v 0.006999 0.722073 -0.062659
v 0.000001 0.709540 -0.060843
v 0.000001 0.708331 -0.043929
v 0.000001 0.705638 0.043649
v 0.000001 0.709540 0.060843
v 0.006727 0.709540 0.060857
v -0.006725 0.709540 -0.060857
v 0.006235 0.708331 0.043941
v 0.006235 0.708331 -0.043941
v -0.006233 0.708331 0.043941
v -0.006725 0.709540 0.060857
v -0.006233 0.708331 -0.043941
v 0.006727 0.709540 -0.060857
v -0.009123 0.705638 0.043663
v -0.009566 0.725975 0.045781
v 0.000001 0.723282 0.045485
v 0.009567 0.725975 0.045781
v 0.000001 0.725975 -0.045765
v 0.009567 0.725975 -0.045780
v -0.009566 0.725975 -0.045780
v 0.000001 0.708331 0.043929
v 0.009125 0.705638 0.043663
v 0.000001 0.705638 -0.043649
v 0.009125 0.705638 -0.043663
v -0.009123 0.705638 -0.043663
v 0.000001 0.723176 0.000000
v 0.000001 0.708225 0.000000
v -0.006285 0.708225 0.000000
v -0.006556 0.723176 0.000000
v 0.006557 0.723176 0.000000
v 0.006286 0.708225 0.000000
v 0.000001 0.725975 0.063205
v 0.009567 0.725975 0.063226
v 0.000001 0.725975 -0.063205
v -0.009566 0.725975 -0.063225
v -0.009566 0.725975 0.063226
v 0.009567 0.725975 -0.063225
v 0.000001 0.705638 0.060282
v 0.009125 0.705638 0.060301
v 0.000001 0.705638 -0.060282
v -0.009123 0.705638 -0.060301
v -0.009123 0.705638 0.060301
v 0.009125 0.705638 -0.060301
v 0.000001 0.722176 0.069779
v 0.000001 0.709642 0.067977
v 0.000001 0.722176 -0.069779
v 0.000001 0.709642 -0.067977
v 0.006992 0.722176 0.069794
v -0.006990 0.722176 -0.069794
v -0.006990 0.722176 0.069794
v 0.006992 0.722176 -0.069794
v 0.006719 0.709642 0.067991
v -0.006717 0.709642 -0.067991
v -0.006717 0.709642 0.067991
v 0.006719 0.709642 -0.067991
v 0.000001 0.525507 -0.020755
v 0.000001 0.525507 -0.008838
v 0.000001 0.525507 0.008838
v 0.000001 0.525507 0.020755
v 0.009125 0.525507 0.020762
v -0.009123 0.525507 -0.020762
v 0.009125 0.525507 0.008841
v 0.009125 0.525507 -0.008841
v -0.009123 0.525507 0.008841
v -0.009123 0.525507 0.020762
v -0.009123 0.525507 -0.008841
v 0.009125 0.525507 -0.020762
v 0.000001 0.294765 -0.020755
v 0.000001 0.294765 -0.008838
v 0.000001 0.294765 0.008838
v 0.000001 0.294765 0.020755
v 0.009125 0.294765 0.020762
v -0.009123 0.294765 -0.020762
v 0.009125 0.294765 0.008841
v 0.009125 0.294765 -0.008841
v -0.009123 0.294765 0.008841
v -0.009123 0.294765 0.020762
v -0.009123 0.294765 -0.008841
v 0.009125 0.294765 -0.020762
v 0.000001 0.317669 0.008838
v 0.000001 0.305286 0.008838
v 0.009125 0.305286 0.008841
v 0.009125 0.317669 0.008841
v -0.009123 0.317669 0.008841
v -0.009123 0.305286 0.008841
v 0.000001 0.307547 0.020755
v 0.000001 0.317669 0.020755
v 0.003907 0.314098 0.020760
v 0.003907 0.308858 0.020760
v -0.003905 0.314098 0.020760
v -0.003905 0.308858 0.020760
v 0.003907 0.308858 -0.020760
v 0.003907 0.314098 -0.020760
v 0.000001 0.317669 -0.020755
v 0.000001 0.305286 -0.020755
v -0.003905 0.308858 -0.020760
v -0.003905 0.314098 -0.020760
v -0.009123 0.317669 -0.008841
v -0.009123 0.305286 -0.008841
v 0.000001 0.305286 -0.008838
v 0.000001 0.317669 -0.008838
v 0.009125 0.317669 -0.008841
v 0.009125 0.305286 -0.008841
v 0.009125 0.317669 0.020762
v 0.009125 0.305286 0.020762
v -0.009123 0.317669 0.020762
v -0.009123 0.305286 0.020762
v 0.000001 0.305286 0.020755
v 0.000001 0.315408 0.020755
v 0.000001 0.307547 -0.020755
v -0.009123 0.305286 -0.020762
v -0.009123 0.317669 -0.020762
v 0.000001 0.315408 -0.020755
v 0.009125 0.305286 -0.020762
v 0.009125 0.317669 -0.020762
v -0.009123 0.311478 -0.020762
v -0.009123 0.311478 -0.008841
v 0.000001 0.311478 -0.008838
v 0.009125 0.311478 -0.008841
v 0.009125 0.311478 -0.020762
v -0.004661 0.311478 -0.020760
v 0.004663 0.311478 -0.020760
v 0.009125 0.311477 0.020762
v 0.009125 0.311477 0.008841
v -0.009123 0.311477 0.020762
v -0.009123 0.311477 0.008841
v 0.000001 0.311477 0.008838
v 0.004663 0.311477 0.020760
v -0.004661 0.311477 0.020760
v 0.000001 0.311477 0.022393
v 0.000001 0.315408 0.022393
v 0.000001 0.311478 -0.022393
v 0.000001 0.307547 -0.022393
v 0.004662 0.311477 0.022398
v 0.003906 0.308858 0.022398
v -0.004660 0.311477 0.022398
v -0.003904 0.308858 0.022398
v 0.000001 0.307547 0.022393
v -0.003904 0.314098 0.022398
v 0.003906 0.314098 0.022398
v -0.003904 0.308858 -0.022398
v -0.004660 0.311478 -0.022398
v -0.003904 0.314098 -0.022398
v 0.000001 0.315408 -0.022393
v 0.004662 0.311478 -0.022398
v 0.003906 0.314098 -0.022398
v 0.003906 0.308858 -0.022398
vn -0.0000 -0.0000 1.0000
vn -1.0000 -0.0000 -0.0000
vn -0.0000 -0.0000 -1.0000
vn 1.0000 -0.0000 -0.0000
vn -0.0000 1.0000 -0.0000
vn -0.0000 -1.0000 -0.0000
vn -0.6482 0.7615 -0.0000
vn 0.6482 0.7615 -0.0000
vn 0.9903 0.1387 -0.0000
vn -0.9903 0.1387 -0.0000
vn -0.0000 0.0975 -0.9952
vn -0.0000 0.0975 0.9952
vn -0.0000 0.5492 -0.8357
vn -0.0000 0.5492 0.8357
vn -0.0352 0.2023 0.9787
vn -0.9886 0.1506 -0.0000
vn 0.0352 0.2023 -0.9787
vn 0.9886 0.1506 -0.0000
vn 0.4590 -0.8785 0.1324
vn 0.1811 0.9803 0.0784
vn 0.9986 -0.0525 -0.0093
vn 0.1491 -0.3302 -0.9321
vn -0.9986 -0.0525 0.0093
vn -0.1491 -0.3301 0.9321
vn -0.9986 -0.0525 -0.0093
vn -0.9981 -0.0614 -0.0045
vn -0.9981 -0.0614 0.0045
vn 0.9986 -0.0525 0.0093
vn 0.9981 -0.0614 0.0045
vn 0.9981 -0.0614 -0.0045
vn 0.1759 0.9814 -0.0765
vn 0.1816 0.9829 -0.0292
vn 0.1816 0.9829 0.0292
vn 0.4063 -0.8996 -0.1599
vn 0.4363 -0.8974 -0.0661
vn 0.4103 -0.9085 0.0790
vn 0.9889 0.1486 -0.0000
vn -0.9889 0.1486 -0.0000
vn -0.4103 -0.9085 0.0790
vn 0.1048 -0.9908 0.0861
vn -0.4363 -0.8974 -0.0661
vn 0.1048 -0.9908 -0.0861
vn -0.4063 -0.8996 -0.1599
vn 0.0070 0.0658 -0.9978
vn -0.1816 0.9829 0.0292
vn 0.0965 0.9949 0.0296
vn -0.1816 0.9829 -0.0292
vn 0.0965 0.9949 -0.0296
vn -0.1759 0.9814 -0.0765
vn 0.0962 0.9922 -0.0793
vn 0.1491 -0.3302 0.9321
vn -0.0326 -0.3083 0.9507
vn -0.1491 -0.3302 -0.9321
vn 0.0326 -0.3083 -0.9507
vn -0.1811 0.9803 0.0784
vn 0.0962 0.9922 0.0793
vn -0.4590 -0.8785 0.1324
vn -0.0070 0.0658 0.9978
vn -0.0352 0.2023 -0.9787
vn 0.0182 0.1992 -0.9798
vn 0.0352 0.2023 0.9787
vn -0.0182 0.1992 0.9798
vn 0.0182 0.1992 0.9798
vn -0.0182 0.1992 -0.9798
vn -0.9991 -0.0434 -0.0000
vn -0.0962 0.9922 0.0793
vn -0.0326 -0.3083 -0.9507
vn 0.0326 -0.3083 0.9507
vn -0.0962 0.9922 -0.0793
vn -0.0965 0.9949 -0.0296
vn -0.0965 0.9949 0.0296
vn -0.0025 -0.0805 -0.9968
vn -0.1048 -0.9908 -0.0861
vn -0.1048 -0.9908 0.0861
vn 0.1043 -0.9813 -0.1620
vn -0.1043 -0.9813 0.1620
vn 0.1016 -0.9601 -0.2605
vn 0.1012 -0.9604 0.2594
vn -0.2562 -0.9599 -0.1139
vn 0.0786 -0.9858 -0.1485
vn -0.0786 -0.9858 0.1485
vn 0.2562 -0.9599 0.1139
vn -0.1038 -0.9812 -0.1627
vn 0.1038 -0.9812 0.1627
vn -0.1012 -0.9604 -0.2594
vn -0.1016 -0.9601 0.2605
vn 0.1051 -0.9842 -0.1423
vn -0.1051 -0.9842 0.1423
vn 0.1034 -0.9818 -0.1595
vn 0.1029 -0.9820 0.1585
vn -0.1897 -0.9777 -0.0898
vn 0.0679 -0.9907 -0.1175
vn -0.0679 -0.9907 0.1175
vn 0.1897 -0.9777 0.0898
vn -0.1046 -0.9841 -0.1432
vn 0.1046 -0.9841 0.1432
vn -0.1029 -0.9820 -0.1585
vn -0.1034 -0.9818 0.1595
vn -0.0016 0.0801 0.9968
vn -0.0025 -0.0898 0.9960
vn 0.0084 -0.0797 0.9968
vn 0.9990 -0.0437 0.0040
vn -0.9990 -0.0437 -0.0040
vn -0.0019 0.0665 0.9978
vn -0.0084 -0.0797 -0.9968
vn 0.0025 -0.0805 0.9968
vn 0.9991 -0.0434 -0.0000
vn 0.0019 0.0665 -0.9978
vn -0.9998 -0.0218 -0.0000
vn 0.9998 -0.0218 -0.0000
vn -0.0000 0.9999 -0.0144
vn -0.0000 -1.0000 -0.0024
vn 0.0025 -0.0898 -0.9960
vn 0.0021 -0.0897 0.9960
vn 0.0016 0.0801 -0.9968
vn -0.0021 -0.0897 -0.9960
vn 0.0019 0.0802 0.9968
vn -0.0019 0.0802 -0.9968
vn 0.0015 0.1898 0.9818
vn -0.0007 -0.2143 -0.9768
vn 0.0003 0.1897 -0.9818
vn 0.9998 -0.0181 -0.0012
vn -0.0000 -0.9999 -0.0144
vn 0.9998 -0.0219 0.0014
vn -0.0000 1.0000 0.0023
vn -0.0000 0.9999 0.0144
vn -0.0000 -1.0000 0.0024
vn -0.0009 0.1035 -0.9946
vn 0.0016 0.1028 -0.9947
vn 0.0019 0.1035 0.9946
vn -0.0019 0.1035 -0.9946
vn -0.0016 0.1028 0.9947
vn 0.0019 0.1036 -0.9946
vn 0.0016 0.1043 0.9945
vn -0.0016 0.1043 -0.9945
vn -0.0019 0.1035 0.9946
vn 0.0009 0.1035 0.9946
vn -0.0009 0.1035 0.9946
vn 0.0009 0.1035 -0.9946
vn -0.0000 1.0000 -0.0023
vn -0.9998 -0.0183 -0.0012
vn -0.9998 -0.0181 0.0012
vn 0.9998 -0.0183 0.0012
vn -0.0021 -0.1423 0.9898
vn 0.0021 -0.1423 -0.9898
vn 0.0021 -0.1423 0.9898
vn -0.0021 -0.1423 -0.9898
vn 0.9998 -0.0220 -0.0014
vn -0.0000 -0.9999 0.0144
vn 0.0001 0.9999 0.0144
vn -0.9998 -0.0220 0.0014
vn -0.9998 -0.0219 -0.0014
vn 0.0003 -0.0000 1.0000
vn -0.0015 0.1898 -0.9818
vn -0.0021 -0.2144 0.9767
vn -0.0003 0.1897 0.9818
vn 0.0021 -0.2144 -0.9767
vn 0.0007 -0.2143 0.9768
vn -0.0003 -0.0000 -1.0000
vn 0.0007 -0.0000 1.0000
vn -0.0007 -0.0000 -1.0000
vn -0.0007 -0.0000 1.0000
vn 0.0003 -0.0000 -1.0000
vn 0.0007 -0.0000 -1.0000
vn -0.0003 -0.0000 1.0000
vn 0.9608 0.2772 -0.0006
vn 0.9608 0.2772 0.0006
vn 0.9608 -0.2772 -0.0006
vn -0.9608 -0.2773 0.0006
vn -0.0004 0.0001 1.0000
vn 0.0004 -0.0001 1.0000
vn 0.0013 -0.0000 1.0000
vn 0.0007 0.0006 1.0000
vn -0.0007 -0.0006 1.0000
vn -0.0013 -0.0000 1.0000
vn 0.0007 -0.0006 -1.0000
vn 0.0004 0.0001 -1.0000
vn 0.0013 -0.0000 -1.0000
vn -0.0004 -0.0001 -1.0000
vn -0.0013 -0.0000 -1.0000
vn -0.0007 0.0006 -1.0000
vn -0.3181 0.9481 -0.0003
vn -0.9608 -0.2772 -0.0006
vn 0.9608 -0.2773 0.0006
vn -0.9608 0.2772 -0.0006
vn 0.0011 -0.0003 1.0000
vn -0.0011 -0.0003 -1.0000
vn -0.0011 0.0003 -1.0000
vn 0.0011 0.0003 1.0000
vn -0.3181 -0.9480 0.0004
vn -0.9608 0.2772 0.0006
vn 0.3181 -0.9480 -0.0004
vn -0.3180 0.9481 0.0001
vn 0.3180 0.9481 -0.0001
vn 0.3181 -0.9481 0.0002
vn 0.3181 0.9481 0.0003
vn -0.3181 -0.9481 -0.0002
vn -0.0360 0.2011 0.9789
vn -0.9889 0.1487 -0.0006
vn 0.0360 0.2011 -0.9789
vn 0.9889 0.1487 0.0006
vn 0.4063 -0.8996 0.1599
vn 0.1759 0.9814 0.0765
vn 0.9988 -0.0485 -0.0000
vn -0.0664 -0.3820 -0.9218
vn -0.9988 -0.0485 -0.0000
vn 0.0664 -0.3820 0.9218
vn -0.9984 -0.0565 -0.0000
vn 0.9984 -0.0565 -0.0000
vn 0.1811 0.9803 -0.0784
vn 0.4590 -0.8785 -0.1324
vn 0.4103 -0.9085 -0.0790
vn 0.4363 -0.8974 0.0661
vn 0.9889 0.1487 -0.0006
vn 0.9911 0.1334 -0.0040
vn 0.9911 0.1334 0.0040
vn -0.9889 0.1487 0.0006
vn -0.9911 0.1334 0.0040
vn -0.9911 0.1334 -0.0040
vn -0.4363 -0.8974 0.0661
vn -0.4103 -0.9085 -0.0790
vn -0.4590 -0.8785 -0.1324
vn -0.0019 0.0665 -0.9978
vn -0.1811 0.9803 -0.0784
vn -0.0664 -0.3820 0.9218
vn 0.0301 -0.3297 0.9436
vn 0.0664 -0.3820 -0.9218
vn -0.0301 -0.3297 -0.9436
vn -0.1759 0.9814 0.0765
vn -0.4063 -0.8996 0.1599
vn 0.0019 0.0665 0.9978
vn -0.0360 0.2011 -0.9789
vn 0.0191 0.1972 -0.9802
vn 0.0360 0.2011 0.9789
vn -0.0191 0.1972 0.9802
vn 0.0191 0.1972 0.9802
vn -0.0191 0.1972 -0.9802
vn -0.9990 -0.0437 0.0040
vn 0.0301 -0.3297 -0.9436
vn -0.0301 -0.3297 0.9436
vn 0.0084 -0.0797 -0.9968
vn 0.1038 -0.9812 -0.1627
vn -0.1038 -0.9812 0.1627
vn 0.1012 -0.9604 -0.2594
vn 0.1016 -0.9601 0.2605
vn -0.0786 -0.9858 -0.1485
vn 0.2562 -0.9599 -0.1139
vn -0.2562 -0.9599 0.1139
vn 0.0786 -0.9858 0.1485
vn -0.1043 -0.9813 -0.1620
vn 0.1043 -0.9813 0.1620
vn -0.1016 -0.9601 -0.2605
vn -0.1012 -0.9604 0.2594
vn 0.1046 -0.9841 -0.1432
vn -0.1046 -0.9841 0.1432
vn 0.1029 -0.9820 -0.1585
vn 0.1034 -0.9818 0.1595
vn -0.0679 -0.9907 -0.1175
vn 0.1897 -0.9777 -0.0898
vn -0.1897 -0.9777 0.0898
vn 0.0679 -0.9907 0.1175
vn -0.1051 -0.9842 -0.1423
vn 0.1051 -0.9842 0.1423
vn -0.1034 -0.9818 -0.1595
vn -0.1029 -0.9820 0.1585
vn -0.0019 0.0802 0.9968
vn -0.0021 -0.0897 0.9960
vn -0.0025 -0.0805 0.9968
vn 0.0070 0.0658 0.9978
vn 0.0025 -0.0805 -0.9968
vn -0.0084 -0.0797 0.9968
vn 0.9990 -0.0437 -0.0040
vn -0.0070 0.0658 -0.9978
vn 0.0021 -0.0897 -0.9960
vn 0.0025 -0.0898 0.9960
vn 0.0019 0.0802 -0.9968
vn -0.0025 -0.0898 -0.9960
vn 0.0016 0.0801 0.9968
vn -0.0016 0.0801 -0.9968
vn 0.0003 0.1897 0.9818
vn -0.0021 -0.2144 -0.9767
vn 0.0015 0.1898 -0.9818
vn 0.9998 -0.0183 -0.0012
vn 0.9998 -0.0220 0.0014
vn -0.0001 0.9999 0.0144
vn 0.0019 0.1035 -0.9946
vn 0.0016 0.1028 0.9947
vn -0.0016 0.1028 -0.9947
vn 0.0016 0.1043 -0.9945
vn 0.0019 0.1036 0.9946
vn -0.0019 0.1036 -0.9946
vn -0.0016 0.1043 0.9945
vn -0.9998 -0.0181 -0.0012
vn -0.9998 -0.0183 0.0012
vn 0.9998 -0.0181 0.0012
vn 0.9998 -0.0219 -0.0014
vn -0.9998 -0.0219 0.0014
vn -0.9998 -0.0220 -0.0014
vn -0.0003 0.1897 -0.9818
vn -0.0007 -0.2143 0.9768
vn -0.0015 0.1898 0.9818
vn 0.0007 -0.2143 -0.9768
vn 0.0021 -0.2144 0.9767
vn 0.0007 -0.0006 1.0000
vn -0.0007 0.0006 1.0000
vn 0.0007 0.0006 -1.0000
vn -0.0007 -0.0006 -1.0000
vn -0.0004 0.0001 -1.0000
vn 0.0004 -0.0001 -1.0000
vn -0.3180 0.9481 -0.0001
vn 0.0004 0.0001 1.0000
vn -0.0004 -0.0001 1.0000
vn -0.0011 -0.0003 1.0000
vn 0.0011 -0.0003 -1.0000
vn 0.0011 0.0003 -1.0000
vn -0.0011 0.0003 1.0000
vn -0.3181 -0.9481 0.0002
vn 0.3181 -0.9481 -0.0002
vn -0.3181 0.9481 0.0003
vn 0.3181 0.9481 -0.0003
vn 0.3181 -0.9480 0.0004
vn 0.3180 0.9481 0.0001
vn -0.3181 -0.9480 -0.0004
vt 0.435146 0.132266
vt 0.438156 0.134059
vt 0.435146 0.134059
vt 0.432820 0.132645
vt 0.435047 0.134437
vt 0.432820 0.134437
vt 0.423200 0.133747
vt 0.426209 0.135539
vt 0.423200 0.135539
vt 0.435047 0.132645
vt 0.437273 0.134437
vt 0.432820 0.166749
vt 0.428724 0.141794
vt 0.430950 0.138785
vt 0.430950 0.141794
vt 0.538207 0.268388
vt 0.538326 0.269615
vt 0.538207 0.269415
vt 0.435146 0.166389
vt 0.423200 0.167869
vt 0.435047 0.166749
vt 0.537447 0.269415
vt 0.537447 0.268388
vt 0.537328 0.269615
vt 0.537328 0.268189
vt 0.538326 0.268711
vt 0.538447 0.269410
vt 0.538326 0.269341
vt 0.537971 0.272444
vt 0.537849 0.271746
vt 0.537971 0.271814
vt 0.541055 0.270951
vt 0.540172 0.272136
vt 0.540288 0.270951
vt 0.541055 0.272136
vt 0.540172 0.273322
vt 0.540288 0.272136
vt 0.537163 0.277953
vt 0.535902 0.279135
vt 0.536067 0.277953
vt 0.540544 0.277534
vt 0.539283 0.278716
vt 0.539448 0.277534
vt 0.537041 0.277847
vt 0.536189 0.277847
vt 0.538326 0.268189
vt 0.540422 0.277428
vt 0.539570 0.277428
vt 0.550325 0.265343
vt 0.550882 0.266058
vt 0.550219 0.266193
vt 0.547506 0.269705
vt 0.548178 0.271793
vt 0.547506 0.271928
vt 0.547979 0.274201
vt 0.548536 0.274916
vt 0.547873 0.275050
vt 0.547928 0.269876
vt 0.548600 0.271964
vt 0.547928 0.272099
vt 0.545443 0.270750
vt 0.544649 0.268675
vt 0.545443 0.268302
vt 0.545281 0.272171
vt 0.544487 0.270001
vt 0.545281 0.270001
vt 0.545315 0.271007
vt 0.545684 0.268931
vt 0.545235 0.275050
vt 0.544839 0.274275
vt 0.544893 0.270836
vt 0.545262 0.268760
vt 0.547581 0.266193
vt 0.547185 0.265417
vt 0.544893 0.261786
vt 0.547506 0.262916
vt 0.545262 0.263861
vt 0.547506 0.266311
vt 0.545442 0.266311
vt 0.545315 0.261957
vt 0.547928 0.263087
vt 0.545684 0.264032
vt 0.547928 0.266482
vt 0.545864 0.266482
vt 0.545281 0.261206
vt 0.544487 0.263376
vt 0.544462 0.261206
vt 0.545281 0.263376
vt 0.544487 0.266688
vt 0.545281 0.266688
vt 0.545443 0.261700
vt 0.544649 0.263776
vt 0.544649 0.261700
vt 0.545443 0.264149
vt 0.544649 0.266225
vt 0.545443 0.266225
vt 0.548600 0.260999
vt 0.547928 0.260864
vt 0.548774 0.263169
vt 0.548774 0.269794
vt 0.548178 0.260828
vt 0.547506 0.260693
vt 0.548351 0.262998
vt 0.548351 0.269623
vt 0.548700 0.266225
vt 0.547907 0.268302
vt 0.547907 0.266225
vt 0.546675 0.266225
vt 0.547907 0.264149
vt 0.548700 0.263776
vt 0.546675 0.264149
vt 0.547907 0.261700
vt 0.548700 0.261700
vt 0.427167 0.135164
vt 0.426025 0.140986
vt 0.425361 0.135091
vt 0.548538 0.266688
vt 0.547744 0.270001
vt 0.547744 0.266688
vt 0.546512 0.270001
vt 0.546512 0.266688
vt 0.547744 0.263376
vt 0.548538 0.263376
vt 0.546512 0.263376
vt 0.547744 0.261206
vt 0.548562 0.261206
vt 0.546512 0.261206
vt 0.547386 0.262147
vt 0.550199 0.262728
vt 0.547066 0.262957
vt 0.550381 0.264030
vt 0.546995 0.264193
vt 0.545040 0.271004
vt 0.547853 0.271586
vt 0.544720 0.271814
vt 0.548035 0.272887
vt 0.544649 0.273050
vt 0.548538 0.270001
vt 0.547744 0.272171
vt 0.546512 0.272171
vt 0.548700 0.268675
vt 0.547907 0.270750
vt 0.430778 0.135164
vt 0.429636 0.140986
vt 0.428972 0.135091
vt 0.548339 0.270820
vt 0.547666 0.270750
vt 0.548643 0.274091
vt 0.550685 0.261963
vt 0.550012 0.261893
vt 0.550989 0.265234
vt 0.550871 0.262773
vt 0.548524 0.271631
vt 0.434078 0.135401
vt 0.436780 0.141230
vt 0.434576 0.141314
vt 0.435358 0.134923
vt 0.436499 0.140675
vt 0.435358 0.140675
vt 0.545766 0.262259
vt 0.546675 0.261700
vt 0.546675 0.262259
vt 0.547583 0.270192
vt 0.546675 0.270750
vt 0.546675 0.270192
vt 0.545766 0.263808
vt 0.545766 0.268643
vt 0.546675 0.268302
vt 0.546675 0.268643
vt 0.547583 0.262259
vt 0.547583 0.263808
vt 0.545766 0.270192
vt 0.546675 0.263808
vt 0.547583 0.268643
vt 0.546021 0.262616
vt 0.546675 0.262616
vt 0.547329 0.269835
vt 0.546675 0.269835
vt 0.546021 0.263488
vt 0.546021 0.268963
vt 0.546675 0.268963
vt 0.547329 0.262616
vt 0.547329 0.263488
vt 0.546021 0.269835
vt 0.546675 0.263488
vt 0.547329 0.268963
vt 0.430778 0.140986
vt 0.431920 0.146214
vt 0.430778 0.146214
vt 0.426863 0.141314
vt 0.424547 0.146489
vt 0.424660 0.141230
vt 0.422748 0.141314
vt 0.420432 0.146489
vt 0.420545 0.141230
vt 0.431747 0.140675
vt 0.430605 0.145921
vt 0.430605 0.140675
vt 0.431747 0.134923
vt 0.429941 0.134848
vt 0.423246 0.135401
vt 0.420828 0.135395
vt 0.427361 0.135401
vt 0.424943 0.135395
vt 0.431920 0.140986
vt 0.434216 0.140675
vt 0.433552 0.134848
vt 0.432889 0.140675
vt 0.429963 0.135401
vt 0.432665 0.141230
vt 0.430461 0.141314
vt 0.428309 0.140986
vt 0.427167 0.140986
vt 0.426619 0.146568
vt 0.424657 0.147435
vt 0.422504 0.146568
vt 0.420541 0.147435
vt 0.536120 0.273488
vt 0.535744 0.273118
vt 0.536121 0.273118
vt 0.427974 0.138786
vt 0.428724 0.144029
vt 0.427974 0.144029
vt 0.434216 0.145921
vt 0.432889 0.145921
vt 0.431747 0.145921
vt 0.432777 0.146489
vt 0.430705 0.146568
vt 0.428309 0.146214
vt 0.427167 0.146214
vt 0.436499 0.145921
vt 0.435358 0.145921
vt 0.436892 0.146489
vt 0.434820 0.146568
vt 0.429636 0.146214
vt 0.426025 0.146214
vt 0.430778 0.147150
vt 0.429689 0.155423
vt 0.429689 0.147150
vt 0.434806 0.147510
vt 0.434193 0.155881
vt 0.432777 0.155935
vt 0.435358 0.146862
vt 0.436447 0.155205
vt 0.435358 0.155205
vt 0.427167 0.147150
vt 0.428256 0.155423
vt 0.427167 0.155423
vt 0.439058 0.143320
vt 0.437286 0.138076
vt 0.439071 0.138076
vt 0.536613 0.267891
vt 0.536237 0.267536
vt 0.536614 0.267536
vt 0.535717 0.273248
vt 0.536090 0.273859
vt 0.535717 0.273918
vt 0.432668 0.147435
vt 0.430691 0.147510
vt 0.429849 0.144134
vt 0.430631 0.138705
vt 0.430625 0.144135
vt 0.535340 0.273929
vt 0.535716 0.273559
vt 0.535717 0.273929
vt 0.436783 0.147435
vt 0.427974 0.149273
vt 0.428718 0.149274
vt 0.426390 0.146338
vt 0.426078 0.147150
vt 0.427943 0.146338
vt 0.430001 0.146338
vt 0.430778 0.146338
vt 0.427167 0.146338
vt 0.431554 0.146338
vt 0.427911 0.147026
vt 0.427167 0.147026
vt 0.430034 0.147026
vt 0.426423 0.147026
vt 0.431522 0.147026
vt 0.430778 0.147026
vt 0.431867 0.147150
vt 0.428256 0.147150
vt 0.429849 0.133276
vt 0.429066 0.138705
vt 0.429072 0.133275
vt 0.440855 0.132831
vt 0.439083 0.138076
vt 0.439071 0.132645
vt 0.440855 0.143320
vt 0.440868 0.138076
vt 0.427223 0.144029
vt 0.429849 0.138705
vt 0.439058 0.132831
vt 0.437273 0.132645
vt 0.427230 0.138785
vt 0.430911 0.146102
vt 0.431747 0.146102
vt 0.434522 0.146102
vt 0.435358 0.146102
vt 0.432582 0.146102
vt 0.436193 0.146102
vt 0.430944 0.146681
vt 0.431747 0.146862
vt 0.430658 0.146862
vt 0.434555 0.146681
vt 0.434269 0.146862
vt 0.432550 0.146681
vt 0.431747 0.146681
vt 0.436160 0.146681
vt 0.435358 0.146681
vt 0.436447 0.146862
vt 0.432836 0.146862
vt 0.535339 0.272819
vt 0.536004 0.273175
vt 0.535339 0.273189
vt 0.535339 0.272080
vt 0.536004 0.272435
vt 0.535339 0.272450
vt 0.536004 0.272464
vt 0.536004 0.272819
vt 0.536004 0.271725
vt 0.536004 0.272080
vt 0.536342 0.271041
vt 0.535969 0.271651
vt 0.535969 0.270982
vt 0.536090 0.273901
vt 0.536467 0.273545
vt 0.536468 0.273900
vt 0.535340 0.273189
vt 0.535339 0.273559
vt 0.536376 0.271769
vt 0.536004 0.272380
vt 0.536004 0.271710
vt 0.536120 0.272748
vt 0.535743 0.272748
vt 0.536613 0.267180
vt 0.536236 0.267180
vt 0.536090 0.273189
vt 0.536090 0.273545
vt 0.536004 0.272498
vt 0.536376 0.273109
vt 0.536004 0.273168
vt 0.430778 0.155423
vt 0.429689 0.165007
vt 0.435208 0.165475
vt 0.424547 0.155935
vt 0.420700 0.165421
vt 0.423131 0.155881
vt 0.432654 0.165989
vt 0.431361 0.166526
vt 0.431238 0.166043
vt 0.426078 0.155423
vt 0.430658 0.155205
vt 0.422518 0.147510
vt 0.426633 0.147510
vt 0.427246 0.155881
vt 0.431867 0.155423
vt 0.434269 0.155205
vt 0.432836 0.155205
vt 0.431747 0.155205
vt 0.430078 0.155881
vt 0.428662 0.155935
vt 0.430488 0.145225
vt 0.429066 0.144135
vt 0.430489 0.144136
vt 0.428725 0.142883
vt 0.430147 0.141794
vt 0.430147 0.142883
vt 0.430147 0.143972
vt 0.429066 0.146314
vt 0.430489 0.146314
vt 0.426078 0.165007
vt 0.431747 0.164788
vt 0.435358 0.164788
vt 0.432836 0.165359
vt 0.431747 0.165844
vt 0.431747 0.165359
vt 0.430778 0.165578
vt 0.429689 0.166063
vt 0.429689 0.165578
vt 0.436769 0.165989
vt 0.435476 0.166526
vt 0.435353 0.166043
vt 0.430658 0.164788
vt 0.431093 0.165475
vt 0.424815 0.165421
vt 0.421971 0.166043
vt 0.420432 0.166472
vt 0.420555 0.165989
vt 0.426086 0.166043
vt 0.424547 0.166472
vt 0.424670 0.165989
vt 0.430658 0.165844
vt 0.430658 0.165359
vt 0.428256 0.165578
vt 0.427167 0.166063
vt 0.427167 0.165578
vt 0.426078 0.166063
vt 0.426078 0.165578
vt 0.435358 0.165359
vt 0.434269 0.165844
vt 0.434269 0.165359
vt 0.431867 0.165578
vt 0.430778 0.166063
vt 0.434269 0.164788
vt 0.436447 0.165359
vt 0.435358 0.165844
vt 0.430778 0.165007
vt 0.431166 0.165759
vt 0.432509 0.165421
vt 0.432582 0.165705
vt 0.422172 0.137476
vt 0.421977 0.137790
vt 0.421977 0.137476
vt 0.424743 0.165705
vt 0.426231 0.165475
vt 0.426159 0.165759
vt 0.421977 0.138102
vt 0.422172 0.138415
vt 0.421977 0.138415
vt 0.426078 0.165293
vt 0.427167 0.165007
vt 0.427167 0.165293
vt 0.428256 0.165007
vt 0.428256 0.165293
vt 0.422172 0.138102
vt 0.422172 0.137790
vt 0.430778 0.165292
vt 0.431867 0.165007
vt 0.431867 0.165292
vt 0.420628 0.165705
vt 0.422116 0.165475
vt 0.422044 0.165759
vt 0.422172 0.139353
vt 0.421977 0.139041
vt 0.422172 0.139041
vt 0.435281 0.165759
vt 0.436624 0.165421
vt 0.436697 0.165705
vt 0.429689 0.165292
vt 0.431281 0.165194
vt 0.430658 0.165074
vt 0.431190 0.165074
vt 0.432213 0.164953
vt 0.432836 0.165074
vt 0.432303 0.165074
vt 0.432213 0.165194
vt 0.431747 0.165255
vt 0.432836 0.164788
vt 0.431281 0.164953
vt 0.431747 0.164892
vt 0.434891 0.165194
vt 0.434269 0.165073
vt 0.434801 0.165073
vt 0.434891 0.164953
vt 0.435358 0.164892
vt 0.435824 0.164953
vt 0.436447 0.165073
vt 0.435914 0.165073
vt 0.435824 0.165194
vt 0.435358 0.165255
vt 0.436447 0.164788
vt 0.421977 0.136544
vt 0.422172 0.136078
vt 0.422173 0.136544
vt 0.421977 0.139978
vt 0.422172 0.139666
vt 0.422172 0.139978
vt 0.421977 0.138727
vt 0.422172 0.138727
vt 0.421977 0.139353
vt 0.421977 0.139666
vt 0.430081 0.148526
vt 0.430525 0.148868
vt 0.430257 0.149053
vt 0.430229 0.147984
vt 0.430525 0.148376
vt 0.431395 0.139326
vt 0.430950 0.139668
vt 0.430950 0.139177
vt 0.431247 0.138785
vt 0.431572 0.138799
vt 0.431840 0.138983
vt 0.431543 0.139867
vt 0.431840 0.139475
vt 0.429636 0.148183
vt 0.429636 0.148675
vt 0.429932 0.149067
vt 0.421977 0.134679
vt 0.422172 0.134213
vt 0.422173 0.134679
vt 0.421977 0.138727
vt 0.422172 0.136544
vt 0.421977 0.137010
vt 0.421977 0.136544
vt 0.422172 0.135612
vt 0.421977 0.135145
vt 0.422173 0.135145
vt 0.421977 0.135612
vt 0.421977 0.136078
vt 0.421977 0.133747
vt 0.421977 0.134213
vt 0.422172 0.134679
vt 0.421977 0.134679
vt 0.422173 0.137010
vt 0.438156 0.132266
vt 0.426209 0.133747
vt 0.428724 0.138785
vt 0.438156 0.166389
vt 0.426209 0.167869
vt 0.437273 0.166749
vt 0.538447 0.268643
vt 0.537849 0.272512
vt 0.541170 0.272136
vt 0.541170 0.273322
vt 0.537328 0.279135
vt 0.540709 0.278716
vt 0.544649 0.270750
vt 0.544462 0.272171
vt 0.548872 0.266482
vt 0.548450 0.266311
vt 0.548562 0.272171
vt 0.548700 0.270750
vt 0.548703 0.272855
vt 0.551049 0.263998
vt 0.436496 0.135395
vt 0.437163 0.134848
vt 0.432583 0.135091
vt 0.432381 0.135395
vt 0.535743 0.273488
vt 0.428718 0.138785
vt 0.437273 0.143506
vt 0.536236 0.267891
vt 0.536090 0.273189
vt 0.439071 0.143506
vt 0.427230 0.149274
vt 0.429072 0.144135
vt 0.430625 0.133275
vt 0.535339 0.271710
vt 0.536342 0.271710
vt 0.535717 0.273190
vt 0.536376 0.272439
vt 0.536468 0.273190
vt 0.536376 0.272439
vt 0.432777 0.166472
vt 0.429066 0.145225
vt 0.428724 0.143972
vt 0.432836 0.165844
vt 0.436892 0.166472
vt 0.421848 0.166526
vt 0.425963 0.166526
vt 0.428256 0.166063
vt 0.431867 0.166063
vt 0.436447 0.165844
vt 0.421977 0.138102
vt 0.422172 0.139353
vt 0.429904 0.147998
vt 0.431218 0.139853
vt 0.421977 0.135611
vt 0.422173 0.135612
vt 0.422173 0.133747
vt 0.421977 0.137476
s 0
g crutch_Material
usemtl Material
f 2/1/1 3/2/1 1/3/1
f 4/4/2 7/5/2 3/6/2
f 8/7/3 5/8/3 7/9/3
f 6/10/4 1/11/4 5/5/4
f 7/5/2 10/12/2 3/6/2
f 4/13/5 6/14/5 8/15/5
f 13/16/6 21/17/6 14/18/6
f 3/2/1 9/19/1 1/3/1
f 5/8/3 12/20/3 7/9/3
f 1/11/4 11/21/4 5/5/4
f 16/22/6 13/16/6 14/18/6
f 15/23/6 23/24/6 24/25/6
f 12/26/7 17/27/7 10/28/7
f 9/29/8 20/30/8 11/31/8
f 18/32/9 24/33/9 20/34/9
f 19/35/10 21/36/10 17/37/10
f 20/38/11 23/39/11 19/40/11
f 17/41/12 22/42/12 18/43/12
f 11/44/13 19/40/13 12/45/13
f 15/23/6 22/46/6 13/16/6
f 10/47/14 18/43/14 9/48/14
f 16/22/6 21/17/6 23/24/6
f 66/49/15 28/50/15 34/51/15
f 54/52/16 32/53/16 35/54/16
f 64/55/17 30/56/17 36/57/17
f 51/58/18 26/59/18 33/60/18
f 102/61/19 45/62/19 98/63/19
f 57/64/20 48/65/20 72/66/20
f 51/58/21 25/67/21 43/68/21
f 64/55/22 29/69/22 102/70/22
f 54/52/23 31/71/23 37/72/23
f 66/49/24 27/73/24 100/74/24
f 27/75/25 52/76/25 39/77/25
f 39/77/26 53/78/26 38/79/26
f 53/78/27 37/72/27 38/79/27
f 29/80/28 49/81/28 45/82/28
f 45/82/29 50/83/29 44/84/29
f 50/83/30 43/68/30 44/84/30
f 62/85/31 46/86/31 30/87/31
f 68/88/32 47/89/32 46/86/32
f 72/66/33 47/89/33 70/90/33
f 92/91/34 43/92/34 25/93/34
f 96/94/35 44/95/35 43/92/35
f 98/63/36 44/95/36 76/96/36
f 30/97/18 49/81/18 36/98/18
f 46/99/37 50/83/37 49/81/37
f 50/83/37 48/100/37 51/58/37
f 28/101/16 52/76/16 34/102/16
f 40/103/38 53/78/38 52/76/38
f 53/78/38 42/104/38 54/52/38
f 38/105/39 101/106/39 75/107/39
f 89/108/40 98/63/40 76/96/40
f 38/105/41 99/109/41 39/110/41
f 89/108/42 96/94/42 95/111/42
f 39/110/43 100/112/43 27/113/43
f 107/114/44 123/115/44 73/116/44
f 41/117/45 71/118/45 69/119/45
f 87/120/46 70/90/46 86/121/46
f 41/117/47 67/122/47 42/123/47
f 85/124/48 70/90/48 68/88/48
f 42/123/49 61/125/49 32/126/49
f 82/127/50 68/88/50 62/85/50
f 25/128/51 65/129/51 92/130/51
f 84/131/52 100/74/52 91/132/52
f 31/133/53 63/134/53 94/135/53
f 83/136/54 102/70/54 93/137/54
f 40/138/55 58/139/55 71/118/55
f 80/140/56 72/66/56 87/120/56
f 37/141/57 94/142/57 101/106/57
f 109/143/58 122/144/58 78/145/58
f 32/146/59 63/134/59 35/147/59
f 83/136/60 62/148/60 64/55/60
f 26/149/61 65/129/61 33/150/61
f 84/131/62 58/151/62 66/49/62
f 57/152/63 84/131/63 65/129/63
f 61/153/64 83/136/64 63/134/64
f 77/154/65 120/155/65 125/156/65
f 71/118/66 80/140/66 87/120/66
f 94/135/67 83/136/67 93/137/67
f 92/130/68 84/131/68 91/132/68
f 67/122/69 82/127/69 61/125/69
f 69/119/70 85/124/70 67/122/70
f 69/119/71 87/120/71 86/121/71
f 105/157/72 126/158/72 115/159/72
f 99/109/73 89/108/73 95/111/73
f 101/106/74 89/108/74 75/107/74
f 104/160/75 91/161/75 79/162/75
f 106/163/76 93/164/76 81/165/76
f 108/166/77 95/111/77 96/94/77
f 110/167/78 97/168/78 90/169/78
f 112/170/79 99/109/79 111/171/79
f 104/160/80 96/94/80 92/91/80
f 106/163/81 101/106/81 94/142/81
f 114/172/82 98/63/82 110/167/82
f 112/170/83 91/161/83 100/112/83
f 114/172/84 93/164/84 102/61/84
f 111/171/85 95/111/85 88/173/85
f 113/174/86 97/168/86 101/106/86
f 56/175/87 79/162/87 103/176/87
f 60/177/88 81/165/88 105/178/88
f 74/179/89 88/173/89 108/166/89
f 78/180/90 90/169/90 109/181/90
f 55/182/91 111/171/91 73/183/91
f 56/175/92 108/166/92 104/160/92
f 60/177/93 113/174/93 106/163/93
f 59/184/94 110/167/94 78/180/94
f 55/182/95 79/162/95 112/170/95
f 59/184/96 81/165/96 114/172/96
f 73/183/97 88/173/97 107/185/97
f 77/186/98 90/169/98 113/174/98
f 116/187/99 157/188/99 155/189/99
f 123/190/2 173/191/2 124/192/2
f 122/193/4 174/194/4 126/195/4
f 118/196/100 170/197/100 119/198/100
f 103/199/101 119/198/101 56/200/101
f 78/201/102 126/195/102 59/202/102
f 73/203/103 124/192/103 55/204/103
f 109/143/104 125/205/104 116/187/104
f 105/157/105 120/206/105 60/207/105
f 103/199/106 124/208/106 118/196/106
f 74/209/107 119/210/107 121/211/107
f 107/114/108 121/212/108 117/213/108
f 152/214/109 179/215/109 173/191/109
f 156/216/110 180/217/110 174/194/110
f 136/218/111 181/219/111 130/220/111
f 140/221/112 168/222/112 164/223/112
f 115/159/113 172/224/113 120/206/113
f 118/196/114 173/225/114 169/226/114
f 121/211/4 170/227/4 154/228/4
f 117/213/115 154/229/115 129/230/115
f 115/159/116 174/231/116 171/232/116
f 125/156/2 172/233/2 157/234/2
f 116/187/117 156/235/117 122/144/117
f 117/213/118 152/236/118 123/115/118
f 160/237/119 200/238/119 161/239/119
f 162/240/2 198/241/2 203/242/2
f 177/243/120 204/244/120 193/245/120
f 141/246/121 199/247/121 195/248/121
f 146/249/122 167/250/122 168/251/122
f 144/252/123 184/253/123 139/254/123
f 131/255/124 189/256/124 143/257/124
f 154/228/110 176/258/110 159/259/110
f 128/260/125 167/261/125 134/262/125
f 132/263/126 183/264/126 186/265/126
f 157/234/109 178/266/109 162/240/109
f 158/267/127 168/222/127 145/268/127
f 135/269/128 151/270/128 152/236/128
f 133/271/129 129/230/129 154/229/129
f 134/272/130 155/189/130 128/273/130
f 135/269/131 129/230/131 153/274/131
f 137/275/132 155/189/132 157/188/132
f 145/276/133 141/246/133 158/277/133
f 146/278/134 160/237/134 161/239/134
f 147/279/135 141/246/135 151/270/135
f 149/280/136 160/237/136 140/281/136
f 134/272/137 161/239/137 156/235/137
f 137/275/138 162/282/138 149/280/138
f 133/271/139 159/283/139 145/276/139
f 153/284/140 166/285/140 135/286/140
f 149/287/141 166/288/141 137/289/141
f 147/290/142 166/288/142 165/291/142
f 158/267/127 165/292/127 164/223/127
f 128/260/125 166/285/125 163/293/125
f 145/294/143 167/250/143 133/295/143
f 153/284/140 167/261/140 163/293/140
f 140/221/112 165/292/112 149/296/112
f 131/297/144 169/226/144 130/298/144
f 132/299/145 171/232/145 127/300/145
f 136/301/146 169/226/146 173/225/146
f 138/302/147 171/232/147 174/231/147
f 143/303/144 175/304/144 176/305/144
f 144/306/145 177/243/145 178/307/145
f 148/308/146 175/304/146 142/309/146
f 150/310/147 177/243/147 139/311/147
f 131/297/144 176/305/144 170/197/144
f 138/302/147 180/312/147 150/310/147
f 136/301/146 179/313/146 148/308/146
f 132/299/145 178/307/145 172/224/145
f 181/314/144 189/315/144 185/316/144
f 183/317/145 190/318/145 186/319/145
f 181/314/146 191/320/146 182/321/146
f 183/317/147 192/322/147 184/323/147
f 138/324/148 192/325/148 188/326/148
f 148/327/149 182/328/149 191/329/149
f 138/330/150 183/264/150 127/331/150
f 136/332/151 191/333/151 187/334/151
f 131/335/111 181/219/111 185/336/111
f 150/337/123 184/253/123 192/338/123
f 143/339/149 182/328/149 142/340/149
f 132/341/152 190/342/152 144/343/152
f 194/344/153 239/345/153 200/238/153
f 198/241/2 235/346/2 203/242/2
f 200/347/4 252/348/4 204/349/4
f 242/350/4 211/351/4 219/352/4
f 141/246/154 201/353/154 151/270/154
f 175/304/155 197/354/155 176/305/155
f 161/355/4 204/349/4 180/217/4
f 151/356/2 202/357/2 179/215/2
f 160/237/156 203/358/156 194/344/156
f 177/243/157 198/359/157 178/307/157
f 175/304/158 202/360/158 196/361/158
f 159/259/4 197/362/4 199/363/4
f 208/364/6 211/365/6 209/366/6
f 205/367/6 212/368/6 206/369/6
f 215/370/6 205/367/6 206/369/6
f 213/371/6 208/364/6 214/372/6
f 195/248/159 221/373/159 201/353/159
f 202/360/160 224/374/160 196/361/160
f 204/244/161 231/375/161 193/245/161
f 244/376/160 208/377/160 245/378/160
f 237/379/153 212/380/153 240/381/153
f 248/382/2 215/383/2 236/384/2
f 196/361/162 241/385/162 197/354/162
f 197/362/4 220/386/4 199/363/4
f 201/363/2 243/387/2 202/357/2
f 240/388/4 216/389/4 251/390/4
f 222/391/2 214/392/2 244/393/2
f 245/378/162 209/394/162 242/395/162
f 219/396/163 207/397/163 218/398/163
f 218/398/159 213/399/159 222/400/159
f 232/401/164 210/402/164 248/403/164
f 236/404/165 206/405/165 237/379/165
f 193/245/164 249/406/164 198/359/164
f 251/407/161 205/408/161 232/401/161
f 203/358/165 238/409/165 194/344/165
f 261/410/4 241/411/4 260/412/4
f 230/413/166 282/414/166 283/415/166
f 262/416/2 221/417/2 263/418/2
f 225/419/167 271/420/167 265/421/167
f 263/422/159 217/423/159 264/424/159
f 264/424/163 220/425/163 261/426/163
f 229/427/168 282/414/168 259/428/168
f 255/429/165 235/430/165 254/431/165
f 257/432/4 239/433/4 256/434/4
f 228/435/169 273/436/169 266/437/169
f 254/438/2 249/439/2 253/440/2
f 256/441/153 238/409/153 255/429/153
f 199/247/163 217/423/163 195/248/163
f 226/442/170 260/443/170 265/444/170
f 227/445/171 262/446/171 266/447/171
f 228/448/172 245/378/172 223/449/172
f 227/445/173 224/374/173 243/450/173
f 226/442/174 245/378/174 242/395/174
f 225/451/175 224/374/175 246/452/175
f 233/453/176 232/401/176 248/403/176
f 233/453/177 253/454/177 258/455/177
f 234/456/178 231/375/178 250/457/178
f 230/458/179 257/459/179 259/460/179
f 229/461/180 232/401/180 247/462/180
f 230/458/181 231/375/181 252/463/181
f 229/461/159 257/459/159 251/407/159
f 234/456/163 253/454/163 249/406/163
f 240/381/153 255/429/153 237/379/153
f 236/384/2 253/440/2 248/382/2
f 234/464/182 281/465/182 280/466/182
f 251/390/4 256/434/4 240/388/4
f 237/379/165 254/431/165 236/404/165
f 233/467/183 279/468/183 278/469/183
f 228/448/153 262/446/153 244/376/153
f 225/451/165 260/443/165 241/385/165
f 218/398/163 261/426/163 219/396/163
f 222/400/159 264/424/159 218/398/159
f 226/470/184 271/420/184 272/471/184
f 244/393/2 263/418/2 222/391/2
f 234/472/185 279/468/185 258/473/185
f 219/352/4 260/412/4 242/350/4
f 267/474/186 276/475/186 273/476/186
f 267/474/175 277/477/175 268/478/175
f 269/479/178 280/480/178 281/481/178
f 269/479/187 283/482/187 282/483/187
f 284/484/188 269/479/188 282/483/188
f 278/485/178 269/479/178 270/486/178
f 272/487/175 267/474/175 275/488/175
f 274/489/189 267/474/189 273/476/189
f 228/490/190 275/491/190 274/492/190
f 227/471/191 273/436/191 276/493/191
f 229/494/192 270/495/192 284/496/192
f 227/497/193 268/498/193 246/499/193
f 230/500/194 281/465/194 250/501/194
f 226/502/195 275/491/195 223/503/195
f 225/504/196 268/498/196 277/505/196
f 233/413/197 270/495/197 247/506/197
f 2/1/1 4/507/1 3/2/1
f 4/4/2 8/10/2 7/5/2
f 8/7/3 6/508/3 5/8/3
f 6/10/4 2/295/4 1/11/4
f 7/5/2 12/21/2 10/12/2
f 4/13/5 2/509/5 6/14/5
f 13/16/6 22/46/6 21/17/6
f 3/2/1 10/510/1 9/19/1
f 5/8/3 11/511/3 12/20/3
f 1/11/4 9/512/4 11/21/4
f 16/22/6 15/23/6 13/16/6
f 15/23/6 16/22/6 23/24/6
f 12/26/7 19/513/7 17/27/7
f 9/29/8 18/514/8 20/30/8
f 18/32/9 22/515/9 24/33/9
f 19/35/10 23/516/10 21/36/10
f 20/38/11 24/517/11 23/39/11
f 17/41/12 21/518/12 22/42/12
f 11/44/13 20/38/13 19/40/13
f 15/23/6 24/25/6 22/46/6
f 10/47/14 17/41/14 18/43/14
f 16/22/6 14/18/6 21/17/6
f 66/49/198 58/151/198 28/50/198
f 54/52/199 42/104/199 32/53/199
f 64/55/200 62/148/200 30/56/200
f 51/58/201 48/100/201 26/59/201
f 102/61/202 29/519/202 45/62/202
f 57/64/203 26/520/203 48/65/203
f 51/58/204 33/60/204 25/67/204
f 64/55/205 36/57/205 29/69/205
f 54/52/206 35/54/206 31/71/206
f 66/49/207 34/51/207 27/73/207
f 27/75/206 34/102/206 52/76/206
f 39/77/208 52/76/208 53/78/208
f 53/78/208 54/52/208 37/72/208
f 29/80/204 36/98/204 49/81/204
f 45/82/209 49/81/209 50/83/209
f 50/83/209 51/58/209 43/68/209
f 62/85/210 68/88/210 46/86/210
f 68/88/32 70/90/32 47/89/32
f 72/66/33 48/65/33 47/89/33
f 92/91/211 96/94/211 43/92/211
f 96/94/212 76/96/212 44/95/212
f 98/63/213 45/62/213 44/95/213
f 30/97/214 46/99/214 49/81/214
f 46/99/215 47/521/215 50/83/215
f 50/83/216 47/521/216 48/100/216
f 28/101/217 40/103/217 52/76/217
f 40/103/218 41/522/218 53/78/218
f 53/78/219 41/522/219 42/104/219
f 38/105/220 37/141/220 101/106/220
f 89/108/40 97/168/40 98/63/40
f 38/105/221 75/107/221 99/109/221
f 89/108/42 76/96/42 96/94/42
f 39/110/222 99/109/222 100/112/222
f 107/114/223 117/213/223 123/115/223
f 41/117/45 40/138/45 71/118/45
f 87/120/46 72/66/46 70/90/46
f 41/117/47 69/119/47 67/122/47
f 85/124/48 86/121/48 70/90/48
f 42/123/224 67/122/224 61/125/224
f 82/127/50 85/124/50 68/88/50
f 25/128/225 33/150/225 65/129/225
f 84/131/226 66/49/226 100/74/226
f 31/133/227 35/147/227 63/134/227
f 83/136/228 64/55/228 102/70/228
f 40/138/229 28/523/229 58/139/229
f 80/140/56 57/64/56 72/66/56
f 37/141/230 31/524/230 94/142/230
f 109/143/231 116/187/231 122/144/231
f 32/146/232 61/153/232 63/134/232
f 83/136/233 82/525/233 62/148/233
f 26/149/234 57/152/234 65/129/234
f 84/131/235 80/526/235 58/151/235
f 57/152/236 80/526/236 84/131/236
f 61/153/237 82/525/237 83/136/237
f 77/154/238 60/527/238 120/155/238
f 71/118/66 58/139/66 80/140/66
f 94/135/239 63/134/239 83/136/239
f 92/130/240 65/129/240 84/131/240
f 67/122/69 85/124/69 82/127/69
f 69/119/70 86/121/70 85/124/70
f 69/119/71 71/118/71 87/120/71
f 105/157/241 59/528/241 126/158/241
f 99/109/73 75/107/73 89/108/73
f 101/106/74 97/168/74 89/108/74
f 104/160/242 92/91/242 91/161/242
f 106/163/243 94/142/243 93/164/243
f 108/166/244 88/173/244 95/111/244
f 110/167/245 98/63/245 97/168/245
f 112/170/246 100/112/246 99/109/246
f 104/160/247 108/166/247 96/94/247
f 106/163/248 113/174/248 101/106/248
f 114/172/249 102/61/249 98/63/249
f 112/170/250 79/162/250 91/161/250
f 114/172/251 81/165/251 93/164/251
f 111/171/252 99/109/252 95/111/252
f 113/174/253 90/169/253 97/168/253
f 56/175/254 104/160/254 79/162/254
f 60/177/255 106/163/255 81/165/255
f 74/179/256 107/185/256 88/173/256
f 78/180/257 110/167/257 90/169/257
f 55/182/258 112/170/258 111/171/258
f 56/175/259 74/179/259 108/166/259
f 60/177/260 77/186/260 113/174/260
f 59/184/261 114/172/261 110/167/261
f 55/182/262 103/176/262 79/162/262
f 59/184/263 105/178/263 81/165/263
f 73/183/264 111/171/264 88/173/264
f 77/186/265 109/181/265 90/169/265
f 116/187/266 125/205/266 157/188/266
f 123/190/2 152/214/2 173/191/2
f 122/193/4 156/216/4 174/194/4
f 118/196/267 169/226/267 170/197/267
f 103/199/268 118/196/268 119/198/268
f 78/201/107 122/193/107 126/195/107
f 73/203/65 123/190/65 124/192/65
f 109/143/269 77/529/269 125/205/269
f 105/157/270 115/159/270 120/206/270
f 103/199/271 55/207/271 124/208/271
f 74/209/272 56/530/272 119/210/272
f 107/114/273 74/145/273 121/212/273
f 152/214/109 151/356/109 179/215/109
f 156/216/110 161/355/110 180/217/110
f 136/218/111 187/531/111 181/219/111
f 140/221/112 146/532/112 168/222/112
f 115/159/274 171/232/274 172/224/274
f 118/196/275 124/208/275 173/225/275
f 121/211/4 119/210/4 170/227/4
f 117/213/276 121/212/276 154/229/276
f 115/159/277 126/158/277 174/231/277
f 125/156/2 120/155/2 172/233/2
f 116/187/278 155/189/278 156/235/278
f 117/213/279 129/230/279 152/236/279
f 160/237/280 194/344/280 200/238/280
f 162/240/2 178/266/2 198/241/2
f 177/243/281 180/312/281 204/244/281
f 141/246/282 159/283/282 199/247/282
f 146/249/283 134/533/283 167/250/283
f 144/252/123 190/534/123 184/253/123
f 131/255/284 185/535/284 189/256/284
f 154/228/110 170/227/110 176/258/110
f 128/260/125 163/293/125 167/261/125
f 132/263/285 127/331/285 183/264/285
f 157/234/109 172/233/109 178/266/109
f 158/267/127 164/223/127 168/222/127
f 135/269/128 147/279/128 151/270/128
f 133/271/286 153/274/286 129/230/286
f 134/272/287 156/235/287 155/189/287
f 135/269/288 152/236/288 129/230/288
f 137/275/136 128/273/136 155/189/136
f 145/276/289 159/283/289 141/246/289
f 146/278/290 140/281/290 160/237/290
f 147/279/291 158/277/291 141/246/291
f 149/280/292 162/282/292 160/237/292
f 134/272/137 146/278/137 161/239/137
f 137/275/138 157/188/138 162/282/138
f 133/271/139 154/229/139 159/283/139
f 153/284/140 163/293/140 166/285/140
f 149/287/293 165/291/293 166/288/293
f 147/290/294 135/536/294 166/288/294
f 158/267/127 147/537/127 165/292/127
f 128/260/125 137/538/125 166/285/125
f 145/294/295 168/251/295 167/250/295
f 153/284/140 133/539/140 167/261/140
f 140/221/112 164/223/112 165/292/112
f 131/297/144 170/197/144 169/226/144
f 132/299/145 172/224/145 171/232/145
f 136/301/146 130/298/146 169/226/146
f 138/302/147 127/300/147 171/232/147
f 143/303/144 142/309/144 175/304/144
f 144/306/145 139/311/145 177/243/145
f 148/308/146 179/313/146 175/304/146
f 150/310/147 180/312/147 177/243/147
f 131/297/144 143/303/144 176/305/144
f 138/302/147 174/231/147 180/312/147
f 136/301/146 173/225/146 179/313/146
f 132/299/145 144/306/145 178/307/145
f 181/314/144 182/321/144 189/315/144
f 183/317/145 184/323/145 190/318/145
f 181/314/146 187/319/146 191/320/146
f 183/317/147 188/540/147 192/322/147
f 138/324/296 150/541/296 192/325/296
f 148/327/149 142/340/149 182/328/149
f 138/330/126 188/542/126 183/264/126
f 136/332/297 148/543/297 191/333/297
f 131/335/111 130/220/111 181/219/111
f 150/337/123 139/254/123 184/253/123
f 143/339/149 189/544/149 182/328/149
f 132/341/298 186/545/298 190/342/298
f 194/344/153 238/409/153 239/345/153
f 198/241/2 249/439/2 235/346/2
f 200/347/4 239/433/4 252/348/4
f 242/350/4 209/546/4 211/351/4
f 141/246/299 195/248/299 201/353/299
f 175/304/300 196/361/300 197/354/300
f 161/355/4 200/347/4 204/349/4
f 151/356/2 201/363/2 202/357/2
f 160/237/301 162/282/301 203/358/301
f 177/243/302 193/245/302 198/359/302
f 175/304/303 179/313/303 202/360/303
f 159/259/4 176/258/4 197/362/4
f 208/364/6 207/547/6 211/365/6
f 205/367/6 216/13/6 212/368/6
f 215/370/6 210/548/6 205/367/6
f 213/371/6 207/547/6 208/364/6
f 195/248/159 217/423/159 221/373/159
f 202/360/160 243/450/160 224/374/160
f 204/244/161 252/463/161 231/375/161
f 244/376/160 214/549/160 208/377/160
f 237/379/153 206/405/153 212/380/153
f 248/382/2 210/550/2 215/383/2
f 196/361/162 224/374/162 241/385/162
f 197/362/4 241/411/4 220/386/4
f 201/363/2 221/417/2 243/387/2
f 240/388/4 212/551/4 216/389/4
f 222/391/2 213/552/2 214/392/2
f 245/378/162 208/377/162 209/394/162
f 219/396/163 211/553/163 207/397/163
f 218/398/159 207/397/159 213/399/159
f 232/401/164 205/408/164 210/402/164
f 236/404/165 215/554/165 206/405/165
f 193/245/164 231/375/164 249/406/164
f 251/407/161 216/555/161 205/408/161
f 203/358/165 235/430/165 238/409/165
f 261/410/4 220/386/4 241/411/4
f 230/413/166 259/428/166 282/414/166
f 262/416/2 243/387/2 221/417/2
f 225/419/167 277/427/167 271/420/167
f 263/422/159 221/373/159 217/423/159
f 264/424/163 217/423/163 220/425/163
f 229/427/168 284/556/168 282/414/168
f 255/429/165 238/409/165 235/430/165
f 257/432/4 252/348/4 239/433/4
f 228/435/169 274/472/169 273/436/169
f 254/438/2 235/346/2 249/439/2
f 256/441/153 239/345/153 238/409/153
f 199/247/163 220/425/163 217/423/163
f 226/442/165 242/395/165 260/443/165
f 227/445/153 243/450/153 262/446/153
f 228/448/304 244/376/304 245/378/304
f 227/445/172 246/452/172 224/374/172
f 226/442/175 223/449/175 245/378/175
f 225/451/305 241/385/305 224/374/305
f 233/453/178 247/462/178 232/401/178
f 233/453/163 248/403/163 253/454/163
f 234/456/306 249/406/306 231/375/306
f 230/458/159 252/463/159 257/459/159
f 229/461/307 251/407/307 232/401/307
f 230/458/180 250/457/180 231/375/180
f 229/461/308 259/460/308 257/459/308
f 234/456/309 258/455/309 253/454/309
f 240/381/153 256/441/153 255/429/153
f 236/384/2 254/438/2 253/440/2
f 234/464/310 250/501/310 281/465/310
f 251/390/4 257/432/4 256/434/4
f 237/379/165 255/429/165 254/431/165
f 233/467/183 258/473/183 279/468/183
f 228/448/311 266/447/311 262/446/311
f 225/451/312 265/444/312 260/443/312
f 218/398/163 264/424/163 261/426/163
f 222/400/159 263/422/159 264/424/159
f 226/470/184 265/421/184 271/420/184
f 244/393/2 262/416/2 263/418/2
f 234/472/185 280/557/185 279/468/185
f 219/352/4 261/410/4 260/412/4
f 267/474/172 268/478/172 276/475/172
f 267/474/313 271/558/313 277/477/313
f 269/479/314 279/559/314 280/480/314
f 269/479/180 281/481/180 283/482/180
f 284/484/180 270/486/180 269/479/180
f 278/485/315 279/559/315 269/479/315
f 272/487/316 271/558/316 267/474/316
f 274/489/172 275/488/172 267/474/172
f 228/490/317 223/503/317 275/491/317
f 227/471/191 266/437/191 273/436/191
f 229/494/318 247/506/318 270/495/318
f 227/497/319 276/560/319 268/498/319
f 230/500/320 283/561/320 281/465/320
f 226/502/321 272/562/321 275/491/321
f 225/504/322 246/499/322 268/498/322
f 233/413/323 278/563/323 270/495/323
