# Blender 4.2.1 LTS
# www.blender.org
mtllib desk_1.mtl
g desk_1_Mesh
v -1.890038 0.254483 0.355574
v -1.890038 0.774866 0.186320
v -1.958437 0.107730 -0.403322
v -1.958437 0.858610 -0.403322
v 1.890038 0.254483 0.355574
v 1.403034 0.254483 0.301104
v 1.958437 0.107730 -0.403322
v 1.403034 0.774866 -0.003713
v -1.958437 0.902334 0.159082
v -1.958437 0.902334 -0.403322
v 1.403034 0.774866 0.186320
v 1.404437 0.897889 0.320522
v 1.459261 0.858610 0.304571
v -1.958437 0.858610 0.304571
v 1.036319 0.899356 0.208102
v -1.958437 0.902334 0.304571
v -1.958437 0.107730 0.403322
v -1.958437 0.858610 0.159082
v 1.476777 0.865069 0.151131
v 1.958437 0.107730 0.403322
v -1.890038 0.254483 0.165541
v -1.890038 0.774866 -0.003713
v 1.459261 0.107730 -0.403322
v 1.890038 0.254483 0.165541
v 1.958437 0.000000 0.403322
v 1.958437 0.000000 -0.403322
v -1.958437 0.000000 0.403322
v -1.958437 0.000000 -0.403322
v 1.890038 0.616956 0.173295
v 1.911343 0.651553 0.155683
v 1.890038 0.508130 0.208690
v 1.890038 0.548225 0.195650
v 1.890038 0.399313 0.244084
v 1.890038 0.440837 0.230578
v -1.890038 0.471320 0.230578
v -1.890038 0.429796 0.244084
v -1.895966 0.548807 0.200943
v -1.895966 0.508712 0.213984
v -1.890038 0.686088 0.160725
v -1.890038 0.647439 0.173295
v -1.890038 0.363083 0.265781
v -1.890038 0.321827 0.279200
v 1.890038 0.321827 0.279200
v 1.890038 0.332600 0.265781
v 1.459261 0.000000 -0.403322
v -1.890038 0.774866 0.131851
v -1.890038 0.254483 0.301104
v 1.890038 0.254483 0.301104
v -1.958437 0.187679 0.377295
v -1.958437 0.146141 0.390805
v -1.958437 0.146242 -0.403322
v -1.958437 0.187578 -0.403322
v 1.958437 0.146242 -0.403322
v 1.958437 0.187578 -0.403322
v 1.958437 0.146141 0.390805
v 1.958437 0.187679 0.377295
v -1.890038 0.363120 0.320240
v -1.890038 0.321790 0.333683
v 1.890038 0.321790 0.333683
v 1.890038 0.332637 0.320240
v -1.890038 0.321919 0.143608
v -1.890038 0.362991 0.130249
v 1.890038 0.332508 0.130249
v 1.890038 0.321919 0.143608
v -1.958437 0.360696 0.321023
v -1.958437 0.318974 0.334592
v -1.958437 0.532853 0.265030
v -1.958437 0.492666 0.278101
v -1.958437 0.705032 0.209032
v -1.958437 0.666338 0.221616
v -1.890038 0.471360 0.285035
v -1.890038 0.429756 0.298566
v -1.895966 0.548831 0.255405
v -1.895966 0.508688 0.268462
v -1.890038 0.686096 0.215192
v -1.890038 0.647432 0.227767
v -1.890038 0.429895 0.108489
v -1.890038 0.471221 0.095047
v -1.890038 0.538672 0.073108
v -1.890038 0.578649 0.060107
v -1.890038 0.647457 0.037726
v -1.890038 0.686070 0.025168
v -1.958437 0.666333 -0.403322
v -1.958437 0.705036 -0.403322
v -1.958437 0.492717 -0.403322
v -1.958437 0.532803 -0.403322
v -1.958437 0.319082 -0.403322
v -1.958437 0.360588 -0.403322
v 1.948871 0.443366 -0.419112
v 1.962369 0.507824 -0.396636
v 1.958437 0.368673 -0.403322
v 1.958437 0.408759 -0.403322
v 1.958437 0.319082 -0.403322
v 1.958437 0.330105 -0.403322
v 1.958437 0.563739 0.221616
v 1.958437 0.602433 0.209032
v 1.958437 0.462183 0.278101
v 1.958437 0.502370 0.265030
v 1.958437 0.318974 0.334592
v 1.958437 0.330213 0.321023
v 1.914218 0.611870 0.208199
v 1.890038 0.571452 0.227767
v 1.890038 0.548249 0.250112
v 1.890038 0.508107 0.263168
v 1.890038 0.440877 0.285035
v 1.890038 0.399273 0.298566
v 1.879216 0.645073 0.030245
v 1.890038 0.616974 0.037726
v 1.890038 0.548166 0.060107
v 1.890038 0.508189 0.073108
v 1.890038 0.440738 0.095047
v 1.890038 0.399412 0.108489
v 1.645340 0.000000 -0.403322
v 1.645340 0.107730 -0.403322
v 1.570223 0.788326 -0.349807
v 1.645339 0.107730 0.403322
v 1.565298 0.822173 0.207597
v 1.565601 0.863286 0.150371
v 1.584576 0.254483 0.355574
v 1.460734 0.777263 0.229923
v 1.584576 0.254483 0.165541
v 1.600906 0.725958 0.001592
v 1.584576 0.254483 0.301104
v 1.560551 0.774057 0.138612
v 1.645339 0.000000 0.403322
v 1.614764 0.332731 0.259603
v 1.614764 0.373987 0.246184
v 1.584576 0.362991 0.130249
v 1.584576 0.321919 0.143608
v 1.645339 0.187578 -0.403322
v 1.645340 0.146242 -0.403322
v 1.584576 0.429796 0.244084
v 1.602599 0.468169 0.220750
v 1.584576 0.538613 0.208690
v 1.584576 0.578708 0.195650
v 1.584576 0.647439 0.173295
v 1.584576 0.686088 0.160725
v 1.584576 0.471221 0.095047
v 1.584576 0.429895 0.108489
v 1.584576 0.578649 0.060107
v 1.584576 0.538672 0.073108
v 1.584576 0.686070 0.025168
v 1.584576 0.647457 0.037726
v 1.645339 0.360588 -0.403322
v 1.645340 0.319082 -0.403322
v 1.645339 0.532803 -0.403322
v 1.645340 0.492717 -0.403322
v 1.727720 0.688707 -0.355161
v 1.645340 0.666333 -0.403322
v 1.396923 0.346205 0.273657
v 1.403034 0.362991 0.130249
v 1.459261 0.146242 -0.403322
v 1.403034 0.429796 0.244084
v 1.402299 0.505314 0.215243
v 1.403034 0.647439 0.173295
v 1.403034 0.471221 0.095047
v 1.402299 0.545350 0.066659
v 1.403034 0.686070 0.025168
v 1.459261 0.319082 -0.403322
v 1.459261 0.492717 -0.403322
v 1.459261 0.666333 -0.403322
v 1.389270 0.827721 -0.366765
v 1.459261 0.107730 0.403322
v 1.300670 0.849694 -0.204621
v 1.403034 0.254483 0.355574
v 1.396923 0.278862 0.159998
v 1.403034 0.774866 0.131851
v 1.459261 0.000000 0.403322
v 1.396923 0.387461 0.260238
v 1.403034 0.321919 0.143608
v 1.459261 0.187578 -0.403322
v 1.403034 0.471320 0.230578
v 1.402299 0.545409 0.202202
v 1.403034 0.686088 0.160725
v 1.403034 0.429895 0.108489
v 1.403034 0.538672 0.073108
v 1.403034 0.647457 0.037726
v 1.459261 0.360588 -0.403322
v 1.459261 0.532803 -0.403322
v 1.459261 0.705036 -0.403322
v 1.804761 0.107730 0.403322
v 1.740109 0.254483 0.355574
v 1.740109 0.231285 0.165541
v 1.804761 0.000000 0.403322
v 1.708565 0.366315 0.278927
v 1.740109 0.298720 0.143608
v 1.804761 0.187578 -0.403322
v 1.740109 0.471320 0.230578
v 1.740109 0.578708 0.195650
v 1.750957 0.661287 0.158157
v 1.740109 0.429895 0.108489
v 1.740109 0.538672 0.073108
v 1.740109 0.624720 0.037726
v 1.804761 0.360588 -0.403322
v 1.804761 0.510065 -0.403322
v 1.830698 0.606421 -0.403857
v 1.804761 0.000000 -0.403322
v 1.804761 0.107730 -0.403322
v 1.740109 0.254483 0.301104
v 1.708565 0.325059 0.292346
v 1.740109 0.339792 0.130249
v 1.804761 0.146242 -0.403322
v 1.740109 0.429796 0.244084
v 1.740109 0.538613 0.208690
v 1.740109 0.624701 0.173295
v 1.740109 0.471221 0.095047
v 1.740109 0.578649 0.060107
v 1.734598 0.657979 0.027753
v 1.804761 0.319082 -0.403322
v 1.804761 0.469979 -0.403322
v 1.808852 0.554720 -0.395766
v -1.134986 0.000000 -0.403322
v -1.134986 0.107730 -0.403322
v -1.182966 0.889651 -0.386261
v -1.134986 0.107730 0.403322
v -1.130765 0.860166 0.157166
v -1.151849 0.851167 -0.394514
v -1.518089 0.901616 -0.139167
v -1.134986 0.858610 0.304571
v -1.148194 0.901263 0.308414
v -1.096613 0.774866 0.186320
v -1.096613 0.774866 -0.003713
v -1.111307 0.215145 0.307294
v -1.124715 0.325685 0.275280
v -1.117744 0.348819 0.130702
v -1.134986 0.146242 -0.403322
v -1.278009 0.404097 0.228858
v -1.239908 0.538613 0.189368
v -1.363307 0.628589 0.179858
v -1.096613 0.471221 0.095047
v -1.239908 0.578649 0.040783
v -1.363307 0.667220 0.031730
v -1.134986 0.319082 -0.403322
v -1.134986 0.492717 -0.403322
v -1.134986 0.666333 -0.403322
v -1.111307 0.215145 0.361763
v -1.111307 0.215145 0.171731
v -1.096613 0.774866 0.131851
v -1.134986 0.000000 0.403322
v -1.117744 0.348910 0.266235
v -1.096613 0.321919 0.143608
v -1.134986 0.187578 -0.403322
v -1.278009 0.445621 0.215352
v -1.239908 0.578708 0.176327
v -1.363307 0.667238 0.167287
v -1.096613 0.429895 0.108489
v -1.239908 0.538672 0.053786
v -1.363307 0.628607 0.044289
v -1.134986 0.360588 -0.403322
v -1.134986 0.532803 -0.403322
v -1.134986 0.705036 -0.403322
v -0.341674 0.875892 -0.367754
v -0.241639 0.107730 0.403322
v -0.276798 0.843094 -0.384959
v -0.235843 0.254483 0.355574
v -0.235843 0.254483 0.165541
v -0.235843 0.774866 0.131851
v -0.241639 0.000000 0.403322
v -0.235843 0.363083 0.265781
v -0.235843 0.321919 0.143608
v -0.241639 0.187578 -0.403322
v -0.235843 0.471320 0.230578
v -0.235843 0.578708 0.195650
v -0.235843 0.686088 0.160725
v -0.235843 0.429895 0.108489
v -0.235843 0.538672 0.073108
v -0.235843 0.647457 0.037726
v -0.241639 0.360588 -0.403322
v -0.241639 0.532803 -0.403322
v -0.241639 0.705036 -0.403322
v -0.241639 0.000000 -0.403322
v -0.241639 0.107730 -0.403322
v -0.232841 0.861854 0.155088
v -0.556401 0.900838 -0.118551
v -0.241639 0.858610 0.304571
v -0.269179 0.900101 0.312583
v -0.235843 0.774866 0.186320
v -0.235843 0.774866 -0.003713
v -0.235843 0.254483 0.301104
v -0.235843 0.321827 0.279200
v -0.235843 0.362991 0.130249
v -0.241639 0.146242 -0.403322
v -0.235843 0.429796 0.244084
v -0.235843 0.538613 0.208690
v -0.235843 0.647439 0.173295
v -0.235843 0.471221 0.095047
v -0.235843 0.578649 0.060107
v -0.235843 0.686070 0.025168
v -0.241639 0.319082 -0.403322
v -0.241639 0.492717 -0.403322
v -0.241639 0.666333 -0.403322
v 0.521398 0.861776 -0.348768
v 0.674835 0.107730 0.403322
v 0.620908 0.834811 -0.375156
v 0.646583 0.226012 0.361176
v 0.646583 0.226012 0.171143
v 0.647212 0.774866 0.131851
v 0.674835 0.000000 0.403322
v 0.647212 0.363083 0.265781
v 0.647212 0.321919 0.143608
v 0.674835 0.187578 -0.403322
v 0.560066 0.441065 0.226831
v 0.840890 0.566183 0.219870
v 0.647212 0.686088 0.160725
v 0.647212 0.429895 0.108489
v 0.647212 0.538672 0.073108
v 0.647212 0.647457 0.037726
v 0.674835 0.360588 -0.403322
v 0.674835 0.532803 -0.403322
v 0.674835 0.705036 -0.403322
v 0.674835 0.000000 -0.403322
v 0.674835 0.107730 -0.403322
v 0.688330 0.863587 0.152956
v 0.765203 0.900039 -0.091295
v 0.671517 0.824127 0.311069
v 0.629277 0.864426 0.323359
v 0.643895 0.740384 0.192818
v 0.647212 0.774866 -0.003713
v 0.646583 0.226012 0.306707
v 0.647212 0.321827 0.279200
v 0.647212 0.362991 0.130249
v 0.674835 0.146242 -0.403322
v 0.563438 0.429796 0.234686
v 0.840890 0.526089 0.232912
v 0.647212 0.647439 0.173295
v 0.681610 0.469323 0.099284
v 0.647212 0.578649 0.060107
v 0.647212 0.686070 0.025168
v 0.674835 0.319082 -0.403322
v 0.674835 0.492717 -0.403322
v 0.674835 0.666333 -0.403322
v -0.576550 0.000000 -0.403322
v -0.576550 0.107730 -0.403322
v -0.569468 0.861221 0.155867
v -1.147650 0.901129 0.041874
v -0.576550 0.858610 0.304571
v -0.598717 0.900537 0.311020
v -0.558541 0.774866 0.186320
v -0.558541 0.774866 -0.003713
v -0.558541 0.254483 0.301104
v -0.558541 0.321827 0.279200
v -0.558541 0.362991 0.130249
v -0.576550 0.146242 -0.403322
v -0.558541 0.429796 0.244084
v -0.826213 0.530934 0.221510
v -0.558541 0.647439 0.173295
v -0.565565 0.453182 0.095448
v -0.830691 0.557040 0.073374
v -0.558541 0.686070 0.025168
v -0.576550 0.319082 -0.403322
v -0.576550 0.492717 -0.403322
v -0.576550 0.666333 -0.403322
v -0.657070 0.881050 -0.374692
v -0.576551 0.107730 0.403322
v -0.604850 0.846120 -0.388541
v -0.558541 0.254483 0.355574
v -0.556743 0.255362 0.165568
v -0.558541 0.774866 0.131851
v -0.576551 0.000000 0.403322
v -0.558541 0.363083 0.265781
v -0.558541 0.321919 0.143608
v -0.576551 0.187578 -0.403322
v -0.565565 0.453281 0.230979
v -0.830691 0.557099 0.208917
v -0.558541 0.686088 0.160725
v -0.558541 0.429895 0.108489
v -0.819188 0.549032 0.085527
v -0.558541 0.647457 0.037726
v -0.576551 0.360588 -0.403322
v -0.576551 0.532803 -0.403322
v -0.576551 0.705036 -0.403322
vn 0.9989 0.0147 0.0452
vn -0.3058 -0.4639 -0.8314
vn 1.0000 -0.0000 -0.0000
vn -0.1508 0.9744 -0.1667
vn -0.0000 -0.0000 -1.0000
vn -0.0026 1.0000 -0.0007
vn 0.0169 0.9995 -0.0255
vn -1.0000 -0.0000 -0.0000
vn -0.0000 0.9827 -0.1850
vn 0.0127 0.2194 -0.9755
vn -0.0030 0.3093 0.9510
vn 0.0013 1.0000 -0.0003
vn -0.1365 0.3064 0.9421
vn 0.0107 0.3588 0.9334
vn -0.0240 0.5668 0.8235
vn -0.0000 0.3093 0.9510
vn -0.0000 -1.0000 -0.0000
vn 0.0051 0.3093 0.9510
vn -0.0001 0.3093 0.9510
vn 0.1416 0.6867 0.7130
vn -0.0000 0.5218 0.8530
vn 0.0081 0.3093 0.9509
vn -0.6071 0.6098 0.5094
vn 0.0297 0.0032 0.9996
vn -0.0008 0.3093 0.9510
vn 0.0001 0.3093 0.9510
vn -0.0010 0.3098 0.9508
vn 0.0673 0.3086 0.9488
vn 0.0195 0.3773 0.9259
vn 0.0216 0.3092 0.9507
vn 0.0628 0.3087 0.9491
vn 0.7476 0.5169 0.4171
vn 0.1246 0.3710 0.9202
vn 0.1254 0.3069 0.9435
vn -0.0000 -0.9996 0.0286
vn 0.0485 0.9988 -0.0007
vn -0.0000 -0.9778 -0.2096
vn 0.1992 0.9800 -0.0007
vn -0.0000 -1.0000 -0.0004
vn 0.1992 0.9800 -0.0004
vn -0.0358 -0.9994 -0.0001
vn 0.0895 0.9953 -0.0365
vn 0.9766 -0.2134 0.0255
vn -0.0469 -0.1351 -0.9897
vn 0.9982 -0.0600 -0.0000
vn -0.0000 0.2856 -0.9584
vn -0.0000 1.0000 -0.0000
vn 0.9877 0.1566 0.0001
vn -0.0000 -0.0000 1.0000
vn -0.0059 0.3098 0.9508
vn -0.0000 1.0000 -0.0001
vn -0.1447 -0.9895 -0.0001
vn -0.1797 0.9837 -0.0004
vn -0.0000 1.0000 -0.0007
vn -0.0000 -1.0000 -0.0007
vn -0.1463 -0.9807 0.1295
vn 0.0802 0.3083 0.9479
vn 0.0405 -0.9704 -0.2379
vn -0.0000 0.4370 0.8995
vn 0.0461 0.3090 0.9500
vn 0.0350 0.2346 0.9715
vn 0.0155 -0.2768 0.9608
vn 0.1860 0.3436 -0.9205
vn -0.4839 0.6318 0.6056
vn -0.0000 0.3094 0.9509
vn 0.8168 0.5263 -0.2364
vn 0.9455 -0.0946 0.3117
vn -0.0703 0.9975 -0.0000
vn 0.1223 0.9789 0.1638
vn 0.0438 0.9987 0.0248
vn -0.0376 0.9993 -0.0000
vn -0.0063 -0.9996 0.0282
vn -0.0000 -1.0000 -0.0001
vn -0.0000 -0.9830 0.1836
vn -0.0223 0.3092 0.9507
vn -0.0152 0.2727 0.9620
vn 0.0183 0.3534 0.9353
vn -0.2383 -0.9362 0.2584
vn 0.2211 0.9693 -0.1073
vn 0.0675 0.9948 -0.0764
vn 0.0550 0.9844 -0.1672
vn 0.5342 0.8391 0.1023
vn 0.9981 -0.0522 -0.0322
vn 0.0213 0.8119 0.5834
vn 0.1823 0.9804 0.0754
vn 0.0901 0.9911 -0.0983
vn 0.0150 0.3093 0.9509
vn -0.0478 0.3090 0.9499
vn 0.1529 -0.9882 -0.0007
vn -0.1992 -0.9800 -0.0007
vn -0.1992 -0.9800 -0.0004
vn -0.0516 -0.9987 -0.0001
vn 0.3517 0.4600 -0.8153
vn 0.1840 0.9829 -0.0001
vn -0.0000 1.0000 -0.0004
vn -0.0000 0.9997 0.0243
vn 0.1463 0.9805 -0.1311
vn -0.2932 0.2957 0.9092
vn -0.0000 0.5196 0.8544
vn 0.0607 0.3087 0.9492
vn 0.0235 0.1647 -0.9861
vn 0.0505 0.9987 -0.0000
vn 0.0358 0.9994 -0.0001
vn -0.0047 -0.0000 1.0000
vn 0.0016 0.3105 0.9506
vn -0.0000 0.0602 -0.9982
vn 0.0234 -0.9997 -0.0001
vn 0.0246 -0.9997 -0.0004
vn -0.0623 0.4242 0.9034
vn 0.0004 0.3117 0.9502
vn -0.0445 0.4794 0.8764
vn -0.0078 0.2557 0.9667
vn 0.0030 0.1108 0.9938
vn -0.0060 0.2657 0.9640
vn 0.0366 0.3091 0.9503
vn -0.0115 0.3106 0.9505
vn 0.0013 1.0000 -0.0005
vn 0.0033 0.3093 0.9510
vn 0.0136 0.3861 -0.9224
vn 0.0183 0.9998 -0.0007
vn 0.0170 0.9995 -0.0282
vn -0.0000 0.9781 0.2081
vn 0.0037 0.9886 -0.1504
vn 0.0142 0.7256 -0.6879
vn 0.0383 0.9945 0.0980
vn -0.0000 0.3356 0.9420
vn -0.0036 0.3516 0.9362
vn 0.0028 0.2759 0.9612
vn -0.0178 0.3093 0.9508
vn -0.0000 -1.0000 -0.0008
vn -0.0000 -0.8704 -0.4923
vn -0.0363 0.9993 -0.0004
vn -0.0000 1.0000 0.0065
vn -0.0049 -0.1546 0.9880
vn -0.0000 -0.9998 -0.0176
vn 0.0016 0.3327 0.9430
vn -0.0000 0.1318 -0.9913
vn -0.0253 0.4813 0.8762
vn -0.0546 0.9985 -0.0007
vn -0.0000 -0.9969 -0.0785
vn 0.0413 0.3090 0.9502
vn 0.0037 0.2726 0.9621
vn -0.0052 0.2760 0.9611
vn 0.0048 0.3093 0.9510
vn -0.0421 0.9877 0.1507
vn 0.0106 0.9916 -0.1286
vn 0.0789 0.9945 -0.0691
vn 0.0322 0.9995 -0.0000
vn -0.0198 -0.2022 0.9791
vn -0.0376 -0.9990 -0.0239
vn 0.0063 0.3377 0.9412
vn -0.0000 0.2121 -0.9772
vn 0.0162 0.3093 0.9508
vn 0.0010 0.9761 0.2172
vn 0.0339 0.9994 -0.0007
vn -0.0253 0.9997 -0.0007
vn -0.0040 0.3639 0.9314
vn -0.0242 0.3092 0.9507
vn 0.0005 0.3093 0.9510
vn -0.0000 0.1042 -0.9946
vn 0.0016 0.3240 0.9461
vn -0.0000 -0.9999 -0.0106
vn -0.0048 -0.0912 0.9958
vn -0.0710 0.9975 -0.0000
vn 0.0528 0.9986 -0.0004
vn -0.0234 0.9997 -0.0001
vn 0.0181 0.9963 -0.0841
vn 0.0140 0.4861 -0.8738
vn 0.0013 1.0000 0.0008
vn -0.0158 0.3093 0.9508
vn 0.0009 0.3093 0.9510
vn 0.0084 0.3448 0.9387
vn 0.0166 0.3093 0.9508
vn -0.0178 -0.9998 -0.0004
vn 0.9877 0.1565 -0.0001
vn -0.0295 0.1694 -0.9851
vn 0.9688 0.2406 -0.0597
vn -0.0361 0.9824 0.1833
vn 0.0016 1.0000 -0.0000
vn -0.0325 0.9995 -0.0007
vn 0.0220 -0.0000 -0.9998
vn -0.0106 0.3093 0.9509
vn -0.0000 0.2642 0.9645
vn 0.2049 0.5653 0.7991
vn 0.0283 0.3092 0.9506
vn 0.9982 -0.0513 0.0312
vn -0.0000 0.2547 0.9670
vn -0.5967 0.6242 0.5043
vn -0.0000 0.3127 0.9498
vn 0.0010 0.3098 0.9508
vn 0.0354 0.4102 0.9113
vn -0.0118 0.2705 0.9626
vn 0.0402 0.4335 0.9002
vn 0.0480 0.3089 0.9499
vn 0.4940 0.6696 0.5546
vn 0.0591 0.7784 0.6249
vn 0.0050 -1.0000 -0.0007
vn 0.1713 0.9756 -0.1377
vn -0.0420 -0.9991 -0.0007
vn 0.0368 -0.9778 -0.2064
vn 0.0594 0.9960 -0.0667
vn 1.0000 0.0020 0.0062
vn 0.0897 0.3111 -0.9461
vn 0.0127 0.2171 -0.9761
vn 0.9876 0.1568 -0.0001
vn 0.0015 0.3624 0.9320
vn 0.1588 0.7633 -0.6262
vn 0.0169 0.9996 0.0218
vn 0.0544 0.9926 -0.1083
vn -0.1311 -0.9806 0.1458
vn 0.0505 0.5015 0.8637
vn 0.0018 -0.9991 -0.0419
vn 0.0452 0.3090 0.9500
vn 0.0230 -0.3485 0.9370
vn 0.1657 0.3673 -0.9152
vn -0.1352 0.6753 0.7250
vn 0.1579 0.7920 0.5898
vn 0.6556 0.7467 -0.1124
vn 0.9586 0.2828 -0.0335
vn -0.0358 0.9845 0.1716
vn 0.0370 0.9993 -0.0004
vn 0.0415 -0.9991 -0.0000
vn 0.1673 -0.9600 -0.2244
vn -0.0545 -0.9928 0.1067
vn 0.0946 0.4775 0.8735
vn -0.0051 -1.0000 -0.0000
vn 0.0186 0.9888 -0.1480
vn 0.0879 0.9924 -0.0864
vn 0.5988 0.7944 0.1018
vn 0.9222 -0.1731 0.3459
vn 0.4299 -0.7541 0.4964
vn 0.6378 0.7685 0.0502
vn 0.5985 0.7893 -0.1372
vn 0.0477 0.2345 0.9709
vn 0.0226 0.4369 0.8993
vn -0.0050 -0.9848 0.1733
vn -0.4079 0.0296 -0.9125
vn 0.1466 0.9882 -0.0435
vn -0.0229 0.9997 -0.0007
vn 0.1315 0.9804 -0.1470
vn -0.0748 0.3084 0.9483
vn 0.0538 0.3681 0.9282
vn 0.1455 0.9752 -0.1669
vn 0.0462 -0.0000 -0.9989
vn -0.0369 0.9779 0.2057
vn -0.0000 -0.0897 0.9960
vn 0.0019 -0.9999 -0.0105
vn -0.0000 0.3234 0.9463
vn 0.0109 -0.0000 -0.9999
vn -0.0081 -0.9912 -0.1323
vn 0.0385 -0.9874 -0.1536
vn -0.0070 -0.9996 0.0271
vn -0.0593 0.3088 0.9493
vn 0.0093 -0.0472 0.9988
vn -0.0000 0.3133 0.9496
vn -0.0788 0.3930 0.9161
vn -0.0000 0.3608 0.9326
vn 0.0016 1.0000 -0.0005
vn 0.0061 0.3613 0.9324
vn 0.0252 0.2290 -0.9731
vn 0.0150 0.9995 -0.0280
vn 0.0419 0.9991 -0.0007
vn 0.0272 0.5061 -0.8621
vn 0.0006 1.0000 0.0013
vn 0.0039 0.3093 0.9510
vn -0.0178 0.3092 0.9508
vn -0.0101 -0.9977 -0.0663
vn -0.0392 -0.9992 -0.0000
vn 0.0027 1.0000 -0.0000
vn -0.0000 -0.1896 0.9819
vn 0.0018 -0.9998 -0.0216
vn -0.0000 0.3379 0.9412
vn 0.0118 0.1065 -0.9942
vn 0.0354 -0.8707 -0.4905
vn -0.0432 -0.9726 -0.2285
vn 0.0325 -0.9995 -0.0007
vn 0.0413 0.3091 0.9501
vn -0.0000 0.3558 0.9346
vn -0.0000 0.3531 0.9356
vn -0.0056 0.3345 0.9424
vn -0.0675 0.9957 0.0634
vn 0.1042 0.8650 -0.4909
vn 0.0511 0.9797 -0.1939
vn 0.0101 0.9978 0.0656
vn -0.0184 -0.3093 0.9508
vn 0.0013 -0.9703 -0.2420
vn 0.0016 0.3073 0.9516
vn 0.0121 0.1349 -0.9908
vn 0.0096 0.5738 0.8190
vn 0.0380 0.9993 -0.0007
vn -0.0147 0.9823 0.1869
vn -0.0071 0.3093 0.9509
vn -0.0357 0.4788 0.8772
vn 0.0115 0.0615 -0.9980
vn -0.0000 0.3326 0.9431
vn 0.0018 -0.9998 -0.0175
vn -0.0000 -0.1520 0.9884
vn -0.0723 0.9974 0.0055
vn -0.0184 0.9974 -0.0698
vn 0.0267 0.4027 -0.9150
vn 0.0007 1.0000 0.0008
vn 0.0239 0.1654 0.9859
vn 0.0043 0.4343 0.9008
vn 0.0100 -0.9913 -0.1314
vt 0.849989 0.391116
vt 0.848181 0.391111
vt 0.848181 0.390788
vt 0.844727 0.389681
vt 0.843753 0.390336
vt 0.843260 0.390380
vt 0.839794 0.392017
vt 0.837872 0.389151
vt 0.838783 0.388964
vt 0.850233 0.388976
vt 0.848272 0.389659
vt 0.848267 0.388981
vt 0.838900 0.390380
vt 0.837340 0.389681
vt 0.838900 0.389681
vt 0.846705 0.467014
vt 0.848608 0.470293
vt 0.846644 0.470293
vt 0.214396 0.196108
vt 0.224816 0.200721
vt 0.214557 0.200646
vt 0.192908 0.239827
vt 0.203392 0.239571
vt 0.203392 0.239827
vt 0.835997 0.466857
vt 0.837883 0.470262
vt 0.835998 0.470293
vt 0.206139 0.217152
vt 0.206728 0.221690
vt 0.206006 0.221872
vt 0.847467 0.470409
vt 0.847202 0.466999
vt 0.847830 0.466999
vt 0.205073 0.203252
vt 0.207849 0.198684
vt 0.207757 0.203423
vt 0.840057 0.388109
vt 0.839458 0.384541
vt 0.840057 0.384541
vt 0.190196 0.239571
vt 0.192908 0.239571
vt 0.839490 0.390189
vt 0.847640 0.390888
vt 0.838766 0.390888
vt 0.837426 0.390249
vt 0.837674 0.390560
vt 0.836411 0.390249
vt 0.838657 0.373053
vt 0.840892 0.376488
vt 0.839229 0.376596
vt 0.846430 0.466618
vt 0.845802 0.470437
vt 0.846242 0.466603
vt 0.830190 0.470885
vt 0.829601 0.467447
vt 0.830190 0.467447
vt 0.850049 0.391500
vt 0.848181 0.391629
vt 0.848181 0.391309
vt 0.845597 0.372480
vt 0.847710 0.376081
vt 0.845746 0.376088
vt 0.852553 0.390728
vt 0.854437 0.390843
vt 0.852594 0.391056
vt 0.852683 0.391768
vt 0.854565 0.391874
vt 0.852722 0.392087
vt 0.852594 0.392154
vt 0.854477 0.392263
vt 0.852634 0.392476
vt 0.846914 0.376122
vt 0.845754 0.372607
vt 0.846773 0.372608
vt 0.850049 0.392016
vt 0.848181 0.392148
vt 0.848181 0.391825
vt 0.837002 0.373053
vt 0.837674 0.372742
vt 0.839674 0.372742
vt 0.842997 0.392053
vt 0.841475 0.388677
vt 0.843398 0.388504
vt 0.841961 0.389681
vt 0.840057 0.390380
vt 0.840057 0.389681
vt 0.836946 0.392644
vt 0.847640 0.393242
vt 0.836327 0.393242
vt 0.834142 0.390249
vt 0.833812 0.390561
vt 0.833729 0.390250
vt 0.835778 0.390249
vt 0.835453 0.390560
vt 0.834754 0.390249
vt 0.844476 0.384541
vt 0.842562 0.388109
vt 0.842562 0.384541
vt 0.844171 0.375565
vt 0.845322 0.372608
vt 0.845266 0.376217
vt 0.850049 0.389849
vt 0.848181 0.390083
vt 0.848181 0.389659
vt 0.850049 0.390459
vt 0.848181 0.390597
vt 0.848181 0.390268
vt 0.852474 0.376014
vt 0.850875 0.372472
vt 0.851902 0.372472
vt 0.833088 0.390360
vt 0.832877 0.390251
vt 0.852618 0.391248
vt 0.854501 0.391357
vt 0.852658 0.391570
vt 0.837765 0.391854
vt 0.847640 0.392455
vt 0.837143 0.392455
vt 0.841150 0.375003
vt 0.841910 0.372607
vt 0.841832 0.375565
vt 0.844041 0.375003
vt 0.842399 0.372607
vt 0.843752 0.372607
vt 0.839458 0.389681
vt 0.838583 0.391064
vt 0.847640 0.391672
vt 0.837954 0.391671
vt 0.830731 0.373054
vt 0.831795 0.372743
vt 0.832083 0.373054
vt 0.838656 0.390248
vt 0.840307 0.390559
vt 0.837631 0.390248
vt 0.838900 0.388110
vt 0.838900 0.384541
vt 0.840933 0.392030
vt 0.839372 0.388911
vt 0.841305 0.388737
vt 0.844153 0.392066
vt 0.844006 0.388450
vt 0.844569 0.388399
vt 0.841961 0.384541
vt 0.842562 0.389681
vt 0.842679 0.390380
vt 0.842121 0.390380
vt 0.840307 0.372742
vt 0.840892 0.372742
vt 0.835353 0.373053
vt 0.835029 0.372742
vt 0.837039 0.372742
vt 0.834156 0.373027
vt 0.832384 0.372742
vt 0.834417 0.372742
vt 0.830614 0.473101
vt 0.829936 0.472468
vt 0.830506 0.472419
vt 0.845177 0.455457
vt 0.845262 0.458442
vt 0.844652 0.458442
vt 0.846420 0.471971
vt 0.846206 0.472653
vt 0.845788 0.471970
vt 0.839674 0.390559
vt 0.837631 0.373053
vt 0.843596 0.392060
vt 0.847640 0.393430
vt 0.836132 0.393431
vt 0.834841 0.390560
vt 0.837463 0.390560
vt 0.847836 0.471826
vt 0.847624 0.472653
vt 0.847208 0.471826
vt 0.838400 0.458803
vt 0.840307 0.455322
vt 0.840307 0.458931
vt 0.835996 0.471829
vt 0.837960 0.472512
vt 0.835996 0.472512
vt 0.844886 0.458107
vt 0.846636 0.455322
vt 0.846637 0.458931
vt 0.846644 0.471826
vt 0.848607 0.472512
vt 0.846643 0.472512
vt 0.834032 0.458304
vt 0.835656 0.455343
vt 0.835996 0.458300
vt 0.831194 0.471844
vt 0.833144 0.472534
vt 0.831179 0.472530
vt 0.844571 0.457719
vt 0.842707 0.455322
vt 0.844671 0.455322
vt 0.841849 0.471885
vt 0.839971 0.472464
vt 0.839962 0.471804
vt 0.835987 0.373053
vt 0.834767 0.373027
vt 0.832672 0.373054
vt 0.841093 0.392032
vt 0.840375 0.392024
vt 0.838364 0.391971
vt 0.839283 0.392083
vt 0.844147 0.389681
vt 0.844698 0.390398
vt 0.845378 0.389700
vt 0.846122 0.389799
vt 0.847640 0.392644
vt 0.847640 0.391854
vt 0.847640 0.391064
vt 0.847640 0.393605
vt 0.835950 0.393605
vt 0.851853 0.391142
vt 0.851877 0.391334
vt 0.851917 0.391655
vt 0.851942 0.391854
vt 0.850800 0.391378
vt 0.850800 0.391577
vt 0.850739 0.391001
vt 0.850739 0.391193
vt 0.850800 0.390351
vt 0.850800 0.390536
vt 0.850800 0.391896
vt 0.850800 0.392093
vt 0.851982 0.392173
vt 0.851853 0.392240
vt 0.849989 0.390924
vt 0.850800 0.389926
vt 0.850049 0.390274
vt 0.847551 0.384541
vt 0.849346 0.387791
vt 0.847551 0.388109
vt 0.850049 0.392339
vt 0.851893 0.392562
vt 0.852041 0.391008
vt 0.844808 0.372483
vt 0.844957 0.376092
vt 0.850049 0.391819
vt 0.851026 0.389657
vt 0.851022 0.388976
vt 0.850049 0.391301
vt 0.854079 0.390559
vt 0.842391 0.389859
vt 0.854079 0.389860
vt 0.835950 0.394095
vt 0.845713 0.392083
vt 0.842391 0.376489
vt 0.840892 0.389135
vt 0.842391 0.389861
vt 0.840892 0.389860
vt 0.854079 0.389135
vt 0.842391 0.388288
vt 0.854079 0.388289
vt 0.851019 0.388269
vt 0.850225 0.387444
vt 0.851014 0.387443
vt 0.830731 0.388034
vt 0.829361 0.384783
vt 0.831237 0.384581
vt 0.846990 0.388956
vt 0.846990 0.388109
vt 0.845056 0.388956
vt 0.844476 0.388109
vt 0.845056 0.388109
vt 0.842562 0.388956
vt 0.841961 0.388109
vt 0.841951 0.470300
vt 0.839953 0.471117
vt 0.839986 0.470292
vt 0.844665 0.471836
vt 0.842707 0.471127
vt 0.844671 0.471127
vt 0.831318 0.470313
vt 0.833172 0.471141
vt 0.831208 0.471137
vt 0.834025 0.471859
vt 0.835976 0.471148
vt 0.835990 0.471855
vt 0.846644 0.471119
vt 0.844678 0.471834
vt 0.846642 0.471127
vt 0.846643 0.471834
vt 0.835998 0.471119
vt 0.840301 0.471836
vt 0.838629 0.471263
vt 0.840307 0.471127
vt 0.846969 0.471401
vt 0.846839 0.470409
vt 0.840057 0.388956
vt 0.839458 0.388110
vt 0.846427 0.471263
vt 0.846434 0.470437
vt 0.844685 0.471289
vt 0.845293 0.471997
vt 0.844682 0.471997
vt 0.830190 0.471711
vt 0.829601 0.470885
vt 0.838900 0.388956
vt 0.209446 0.219363
vt 0.206585 0.223872
vt 0.206487 0.219265
vt 0.841178 0.389120
vt 0.841910 0.388413
vt 0.841910 0.389120
vt 0.851197 0.388985
vt 0.851902 0.388278
vt 0.852225 0.388985
vt 0.844041 0.389120
vt 0.845079 0.388414
vt 0.845068 0.389121
vt 0.845482 0.389120
vt 0.846512 0.388414
vt 0.846824 0.389122
vt 0.207862 0.232601
vt 0.206555 0.236887
vt 0.207206 0.232352
vt 0.848784 0.388615
vt 0.847338 0.389331
vt 0.830873 0.388295
vt 0.829333 0.388369
vt 0.838656 0.389566
vt 0.844808 0.389991
vt 0.842234 0.389613
vt 0.844046 0.389766
vt 0.837340 0.384541
vt 0.835096 0.390749
vt 0.833442 0.389986
vt 0.834694 0.390099
vt 0.850286 0.384009
vt 0.848181 0.387413
vt 0.848322 0.384010
vt 0.846990 0.384541
vt 0.845056 0.384541
vt 0.837340 0.388110
vt 0.848265 0.388270
vt 0.833589 0.467762
vt 0.831292 0.466875
vt 0.842087 0.466864
vt 0.840123 0.466856
vt 0.851076 0.384009
vt 0.842391 0.384720
vt 0.854079 0.384721
vt 0.840892 0.388289
vt 0.842391 0.389136
vt 0.844808 0.387726
vt 0.846217 0.387458
vt 0.846149 0.388174
vt 0.844671 0.470301
vt 0.834011 0.471152
vt 0.835959 0.470322
vt 0.844678 0.471127
vt 0.846642 0.470301
vt 0.838428 0.470272
vt 0.840307 0.470301
vt 0.845177 0.470461
vt 0.845295 0.471290
vt 0.843752 0.388413
vt 0.842399 0.387587
vt 0.843752 0.387587
vt 0.840862 0.387587
vt 0.842399 0.387584
vt 0.850875 0.387452
vt 0.851540 0.387424
vt 0.844052 0.388412
vt 0.845092 0.387588
vt 0.845493 0.388412
vt 0.846526 0.387588
vt 0.848181 0.387450
vt 0.848130 0.388353
vt 0.838656 0.388859
vt 0.224037 0.216239
vt 0.214675 0.216769
vt 0.214398 0.215702
vt 0.204295 0.218770
vt 0.195322 0.217475
vt 0.204872 0.217672
vt 0.227211 0.215820
vt 0.224614 0.215140
vt 0.841874 0.388334
vt 0.836679 0.388896
vt 0.836791 0.388165
vt 0.834154 0.389756
vt 0.844775 0.388391
vt 0.844800 0.387987
vt 0.845602 0.388399
vt 0.842225 0.388954
vt 0.842216 0.388267
vt 0.835950 0.389374
vt 0.840892 0.390559
vt 0.845895 0.389803
vt 0.846914 0.389804
vt 0.844455 0.389803
vt 0.845482 0.389804
vt 0.851902 0.389667
vt 0.841286 0.389802
vt 0.842334 0.389802
vt 0.845104 0.472679
vt 0.845715 0.472680
vt 0.838342 0.472516
vt 0.840307 0.472516
vt 0.846636 0.472518
vt 0.835996 0.472539
vt 0.844663 0.472518
vt 0.842701 0.471836
vt 0.842391 0.390560
vt 0.842391 0.389134
vt 0.850229 0.388269
vt 0.844476 0.388956
vt 0.841961 0.388956
vt 0.841918 0.471125
vt 0.848466 0.471201
vt 0.837678 0.471254
vt 0.847598 0.471401
vt 0.839458 0.388956
vt 0.845798 0.471345
vt 0.829601 0.471711
vt 0.837340 0.388956
vt 0.854079 0.376488
vt 0.842391 0.372742
vt 0.854079 0.372743
vt 0.850935 0.372472
vt 0.850252 0.376019
vt 0.850146 0.372472
vt 0.847551 0.376308
vt 0.846990 0.372562
vt 0.847551 0.372562
vt 0.845056 0.376308
vt 0.844476 0.372562
vt 0.845056 0.372562
vt 0.842562 0.376308
vt 0.841961 0.372562
vt 0.842562 0.372562
vt 0.842545 0.455330
vt 0.840580 0.457720
vt 0.840581 0.455322
vt 0.831517 0.455340
vt 0.833144 0.458299
vt 0.831179 0.458295
vt 0.848288 0.376020
vt 0.848181 0.372473
vt 0.838900 0.376308
vt 0.837340 0.372563
vt 0.838900 0.372562
vt 0.207337 0.217211
vt 0.206555 0.221951
vt 0.206555 0.217210
vt 0.209446 0.203877
vt 0.206698 0.208693
vt 0.206734 0.203874
vt 0.829426 0.376508
vt 0.829455 0.372743
vt 0.842391 0.379029
vt 0.840892 0.379028
vt 0.845848 0.378536
vt 0.845058 0.378539
vt 0.849672 0.376231
vt 0.842707 0.461378
vt 0.844671 0.461379
vt 0.835577 0.460214
vt 0.844674 0.461378
vt 0.846638 0.461379
vt 0.838342 0.461378
vt 0.840307 0.461379
vt 0.845077 0.460302
vt 0.845492 0.460323
vt 0.840057 0.376308
vt 0.840057 0.372562
vt 0.839458 0.372562
vt 0.843752 0.378664
vt 0.842399 0.376216
vt 0.840862 0.378664
vt 0.842264 0.377425
vt 0.851890 0.378537
vt 0.850875 0.376081
vt 0.844125 0.377477
vt 0.845482 0.378634
vt 0.846673 0.378665
vt 0.845694 0.376216
vt 0.847812 0.378528
vt 0.830190 0.455905
vt 0.829890 0.458302
vt 0.829601 0.455906
vt 0.846567 0.455457
vt 0.846206 0.458242
vt 0.845935 0.455457
vt 0.838657 0.379110
vt 0.224772 0.203825
vt 0.227500 0.200891
vt 0.227438 0.204105
vt 0.847765 0.458938
vt 0.847208 0.455457
vt 0.847836 0.455457
vt 0.206575 0.224768
vt 0.205915 0.225073
vt 0.837960 0.455322
vt 0.836002 0.458835
vt 0.835996 0.455322
vt 0.214667 0.203724
vt 0.846643 0.455322
vt 0.848385 0.458109
vt 0.846643 0.458929
vt 0.214911 0.210621
vt 0.224746 0.205686
vt 0.224675 0.210780
vt 0.205861 0.226993
vt 0.206233 0.231665
vt 0.205713 0.232246
vt 0.227401 0.206032
vt 0.227418 0.211294
vt 0.839075 0.384592
vt 0.840892 0.380551
vt 0.840892 0.384720
vt 0.845908 0.380003
vt 0.848039 0.384012
vt 0.846075 0.384020
vt 0.845564 0.384148
vt 0.846649 0.380133
vt 0.846583 0.384150
vt 0.844117 0.384148
vt 0.845206 0.380133
vt 0.845185 0.384306
vt 0.850875 0.384014
vt 0.851902 0.379997
vt 0.852321 0.384011
vt 0.840862 0.384149
vt 0.841910 0.380132
vt 0.841910 0.384149
vt 0.842399 0.384149
vt 0.843752 0.380132
vt 0.843752 0.384149
vt 0.844968 0.467906
vt 0.845324 0.463009
vt 0.845579 0.467906
vt 0.838342 0.466863
vt 0.840307 0.462846
vt 0.840307 0.466863
vt 0.844812 0.466482
vt 0.846639 0.462846
vt 0.846641 0.466863
vt 0.835889 0.466884
vt 0.833844 0.462871
vt 0.835808 0.462867
vt 0.842707 0.466863
vt 0.844671 0.462846
vt 0.844671 0.466863
vt 0.845182 0.384010
vt 0.842391 0.384721
vt 0.854079 0.379028
vt 0.842391 0.380551
vt 0.842391 0.379028
vt 0.850975 0.379992
vt 0.850178 0.378526
vt 0.850967 0.378525
vt 0.847551 0.380372
vt 0.846990 0.378848
vt 0.847551 0.378848
vt 0.845056 0.380372
vt 0.844476 0.378848
vt 0.845056 0.378848
vt 0.842562 0.380372
vt 0.841961 0.378848
vt 0.842562 0.378848
vt 0.842305 0.461383
vt 0.840282 0.462842
vt 0.840341 0.461375
vt 0.831614 0.460160
vt 0.833334 0.462864
vt 0.831370 0.462861
vt 0.850185 0.379993
vt 0.848214 0.378535
vt 0.838900 0.380372
vt 0.837340 0.378849
vt 0.838900 0.378849
vt 0.207271 0.225297
vt 0.206555 0.227094
vt 0.206555 0.225166
vt 0.209446 0.212004
vt 0.206659 0.213920
vt 0.206674 0.211960
vt 0.830731 0.379111
vt 0.829394 0.380592
vt 0.829406 0.379061
vt 0.849559 0.380212
vt 0.840057 0.380372
vt 0.840057 0.378849
vt 0.839458 0.378849
vt 0.830190 0.463430
vt 0.829601 0.461962
vt 0.830190 0.461962
vt 0.846513 0.461514
vt 0.845868 0.462982
vt 0.846134 0.461482
vt 0.847832 0.462982
vt 0.847205 0.461514
vt 0.847833 0.461514
vt 0.837961 0.461375
vt 0.835997 0.462842
vt 0.835997 0.461375
vt 0.846648 0.461346
vt 0.848607 0.462843
vt 0.846643 0.462842
vt 0.842391 0.388290
vt 0.845428 0.387461
vt 0.842707 0.470301
vt 0.833589 0.467770
vt 0.844677 0.470301
vt 0.845788 0.470461
vt 0.844064 0.387587
vt 0.845507 0.387587
vt 0.838656 0.388033
vt 0.194655 0.213738
vt 0.194656 0.218233
vt 0.204933 0.213311
vt 0.854079 0.380552
vt 0.846990 0.380372
vt 0.844476 0.380372
vt 0.841961 0.380372
vt 0.842247 0.462850
vt 0.848221 0.379994
vt 0.837340 0.380372
vt 0.207255 0.227257
vt 0.209446 0.213973
vt 0.830731 0.380579
vt 0.849444 0.384296
vt 0.839458 0.380372
vt 0.829601 0.463430
vt 0.846500 0.462982
vt 0.847204 0.462982
vt 0.837961 0.462843
vt 0.848552 0.466466
vt 0.848612 0.461346
vt 0.847405 0.458970
vt 0.839458 0.376308
vt 0.846839 0.458243
vt 0.830479 0.458302
vt 0.844476 0.376308
vt 0.841961 0.376308
vt 0.849602 0.378720
vt 0.830731 0.376663
vt 0.209446 0.208719
vt 0.207298 0.222029
vt 0.837340 0.376308
vt 0.846990 0.376308
vt 0.851041 0.376018
vt 0.842391 0.376487
vt 0.214732 0.205570
vt 0.206483 0.226614
vt 0.838657 0.380578
vt 0.847872 0.379996
vt 0.845630 0.380132
vt 0.844179 0.380132
vt 0.850875 0.379997
vt 0.842399 0.380132
vt 0.844713 0.463008
vt 0.844674 0.462846
vt 0.842707 0.462846
vt 0.845119 0.380007
vt 0.842391 0.380552
vt 0.850237 0.389658
vt 0.837340 0.390380
vt 0.224879 0.196144
vt 0.837961 0.466857
vt 0.206953 0.217152
vt 0.205137 0.198675
vt 0.190196 0.239827
vt 0.847640 0.390189
vt 0.847561 0.372472
vt 0.854396 0.390514
vt 0.854526 0.391554
vt 0.854437 0.391940
vt 0.841961 0.390380
vt 0.844294 0.372607
vt 0.832324 0.390348
vt 0.854461 0.391034
vt 0.840862 0.372607
vt 0.839458 0.390380
vt 0.830062 0.473198
vt 0.845788 0.455457
vt 0.846839 0.472653
vt 0.833223 0.390561
vt 0.847828 0.472652
vt 0.838342 0.455322
vt 0.838152 0.471682
vt 0.844671 0.455322
vt 0.848608 0.471826
vt 0.833607 0.455322
vt 0.833158 0.471848
vt 0.842607 0.457719
vt 0.841784 0.472616
vt 0.837305 0.389202
vt 0.850800 0.392415
vt 0.842391 0.390558
vt 0.847640 0.394095
vt 0.846129 0.388416
vt 0.842391 0.372743
vt 0.833282 0.470317
vt 0.838152 0.471691
vt 0.209446 0.223976
vt 0.840862 0.388413
vt 0.850875 0.388278
vt 0.207173 0.237210
vt 0.830158 0.388771
vt 0.844804 0.389788
vt 0.836025 0.389989
vt 0.833442 0.392287
vt 0.833891 0.470325
vt 0.843102 0.388487
vt 0.224005 0.216759
vt 0.226900 0.216148
vt 0.834827 0.389684
vt 0.850875 0.389667
vt 0.844671 0.472518
vt 0.834032 0.472543
vt 0.842699 0.472518
vt 0.842544 0.457728
vt 0.833557 0.455322
vt 0.849775 0.372562
vt 0.833602 0.460187
vt 0.842399 0.378664
vt 0.850875 0.378529
vt 0.845654 0.378664
vt 0.837966 0.458835
vt 0.848607 0.455322
vt 0.840862 0.380132
vt 0.838342 0.462846
vt 0.833578 0.460164
vt 0.195169 0.213152
s 0
g desk_1_Material
usemtl Material
f 38/1/1 78/2/1 79/3/1
f 195/4/2 89/5/2 92/6/2
f 92/7/3 95/8/3 98/9/3
f 199/10/4 24/11/4 183/12/4
f 7/13/5 197/14/5 198/15/5
f 326/16/6 172/17/6 156/18/6
f 10/19/7 218/20/7 214/21/7
f 18/22/8 10/23/8 4/24/8
f 321/25/9 169/26/9 151/27/9
f 4/28/10 214/29/10 217/30/10
f 150/31/11 299/32/11 320/33/11
f 218/34/12 16/35/12 220/36/12
f 171/37/5 322/38/5 301/39/5
f 18/22/8 16/40/8 9/41/8
f 18/42/8 84/43/8 69/44/8
f 60/45/13 99/46/13 106/47/13
f 1/48/14 215/49/14 236/50/14
f 323/51/15 172/52/15 302/53/15
f 155/54/16 304/55/16 325/56/16
f 36/57/3 62/58/3 77/59/3
f 46/60/17 222/61/17 238/62/17
f 29/63/8 109/64/8 32/65/8
f 33/66/8 63/67/8 44/68/8
f 43/69/8 24/70/8 48/71/8
f 225/72/18 77/73/18 62/74/18
f 42/75/3 21/76/3 61/77/3
f 57/78/19 66/79/19 49/80/19
f 54/81/3 99/82/3 56/83/3
f 209/84/5 54/85/5 187/86/5
f 66/87/8 52/88/8 49/89/8
f 103/90/20 95/91/20 102/92/20
f 105/93/16 97/94/16 104/95/16
f 330/96/5 178/97/5 308/98/5
f 247/99/21 78/100/21 230/101/21
f 46/102/3 82/103/3 22/104/3
f 40/105/3 80/106/3 81/107/3
f 237/108/22 61/109/22 21/110/22
f 101/111/23 29/112/23 102/92/23
f 31/113/8 111/114/8 34/115/8
f 68/116/8 88/117/8 65/118/8
f 248/119/24 80/120/24 231/121/24
f 232/122/25 22/123/25 82/124/25
f 202/125/5 7/13/5 198/15/5
f 70/126/8 86/127/8 67/128/8
f 2/129/16 69/130/16 75/131/16
f 5/132/26 55/133/26 59/134/26
f 322/38/5 23/135/5 312/136/5
f 94/137/3 97/138/3 100/139/3
f 7/140/3 55/141/3 20/142/3
f 329/143/5 171/37/5 301/39/5
f 194/144/5 91/145/5 94/146/5
f 1/48/27 50/147/27 17/148/27
f 71/149/16 68/150/16 65/151/16
f 73/152/28 70/153/28 67/154/28
f 29/155/29 190/156/29 205/157/29
f 37/158/30 228/159/30 244/160/30
f 203/161/31 34/162/31 188/163/31
f 59/134/32 56/164/32 60/45/32
f 49/80/19 58/165/19 57/78/19
f 56/83/3 53/166/3 54/81/3
f 54/85/5 202/125/5 187/86/5
f 49/89/8 51/167/8 50/168/8
f 95/91/33 101/111/33 102/92/33
f 104/95/16 98/169/16 103/90/16
f 106/47/26 100/170/26 105/93/26
f 200/171/34 44/172/34 185/173/34
f 224/174/35 61/175/35 241/176/35
f 201/177/36 44/178/36 63/179/36
f 227/180/37 77/181/37 246/182/37
f 206/183/38 34/184/38 111/185/38
f 228/186/39 79/187/39 247/188/39
f 207/189/40 32/190/40 109/191/40
f 248/192/41 40/193/41 81/194/41
f 190/195/42 107/196/42 208/197/42
f 65/151/19 72/198/19 71/149/19
f 67/154/28 74/199/28 73/152/28
f 75/131/16 70/153/16 76/200/16
f 100/139/3 93/201/3 94/137/3
f 98/9/3 91/202/3 92/7/3
f 90/203/43 95/8/43 89/204/43
f 94/146/5 209/84/5 194/144/5
f 92/6/5 210/205/5 195/4/5
f 90/206/44 211/207/44 196/208/44
f 65/118/8 87/209/8 66/87/8
f 67/128/8 85/210/8 68/116/8
f 69/44/8 83/211/8 70/126/8
f 50/168/8 3/212/8 17/213/8
f 103/214/8 31/113/8 104/215/8
f 105/216/8 33/66/8 106/217/8
f 36/57/3 71/218/3 72/219/3
f 38/1/3 73/220/3 74/221/3
f 40/105/3 75/222/3 76/223/3
f 42/75/3 57/224/3 58/225/3
f 60/226/8 43/69/8 59/227/8
f 104/215/8 34/115/8 105/216/8
f 76/223/45 37/228/45 40/105/45
f 2/229/3 39/230/3 46/102/3
f 310/231/46 162/232/46 180/233/46
f 58/225/3 47/234/3 42/75/3
f 59/227/8 48/71/8 5/235/8
f 106/217/8 44/68/8 60/226/8
f 102/236/8 32/65/8 103/214/8
f 2/237/17 238/62/17 221/238/17
f 72/219/3 41/239/3 36/57/3
f 5/240/47 199/10/47 182/241/47
f 74/221/48 35/242/48 38/1/48
f 26/243/17 184/244/17 197/245/17
f 3/212/8 27/246/8 17/213/8
f 20/142/3 26/247/3 7/140/3
f 17/148/49 239/248/49 215/49/49
f 116/249/49 184/250/49 181/251/49
f 113/252/17 168/253/17 45/254/17
f 119/255/47 6/256/47 165/257/47
f 11/258/50 313/259/50 317/260/50
f 180/233/5 149/261/5 161/262/5
f 146/263/5 160/264/5 179/265/5
f 144/266/5 159/267/5 178/97/5
f 174/268/51 142/269/51 158/270/51
f 193/271/52 136/272/52 143/273/52
f 157/274/53 135/275/53 140/276/53
f 204/277/39 141/278/39 192/279/39
f 172/17/54 138/280/54 156/18/54
f 203/281/55 139/282/55 191/283/55
f 169/26/9 128/284/9 151/27/9
f 186/285/56 126/286/56 129/287/56
f 150/31/57 127/288/57 169/289/57
f 130/290/5 152/291/5 171/37/5
f 132/292/16 172/52/16 153/293/16
f 135/294/16 204/295/16 189/296/16
f 136/297/16 174/298/16 155/54/16
f 160/264/5 144/266/5 178/97/5
f 152/291/5 114/299/5 23/135/5
f 313/300/58 13/301/58 315/302/58
f 193/303/59 140/304/59 207/305/59
f 186/306/60 121/307/60 183/308/60
f 192/309/16 138/310/16 206/311/16
f 159/267/5 130/290/5 171/37/5
f 191/312/61 128/313/61 201/314/61
f 315/315/62 12/316/62 316/317/62
f 180/233/63 115/318/63 148/319/63
f 120/320/64 19/321/64 11/258/64
f 182/322/65 116/249/65 181/251/65
f 96/323/66 107/324/66 30/325/66
f 23/135/5 311/326/5 312/136/5
f 122/327/67 118/328/67 124/329/67
f 319/330/68 166/331/68 296/332/68
f 331/333/5 179/265/5 309/334/5
f 114/299/5 45/335/5 23/135/5
f 6/256/69 121/336/69 166/331/69
f 161/262/5 146/263/5 179/265/5
f 303/337/70 157/274/70 327/338/70
f 304/339/51 158/270/51 328/340/51
f 178/97/5 329/143/5 308/98/5
f 179/265/5 330/96/5 309/334/5
f 180/233/5 331/333/5 310/231/5
f 165/257/71 319/330/71 295/341/71
f 45/254/17 298/342/17 311/343/17
f 163/344/49 125/345/49 116/249/49
f 120/346/72 167/347/72 124/348/72
f 136/272/73 177/349/73 143/273/73
f 134/350/39 176/351/39 141/278/39
f 132/352/55 175/353/55 139/282/55
f 129/287/74 150/354/74 170/355/74
f 173/356/75 134/357/75 135/294/75
f 142/358/16 8/359/16 158/360/16
f 140/304/76 177/361/76 157/362/76
f 121/307/77 170/363/77 166/364/77
f 141/365/16 156/366/16 138/310/16
f 139/367/16 151/368/16 128/313/16
f 124/348/78 8/369/78 122/370/78
f 119/371/65 163/344/65 116/249/65
f 19/372/79 115/373/79 162/374/79
f 19/375/80 164/376/80 15/377/80
f 12/378/81 19/372/81 15/379/81
f 122/380/82 148/381/82 115/382/82
f 117/383/83 124/329/83 118/328/83
f 118/384/84 19/385/84 117/386/84
f 208/387/85 148/381/85 142/388/85
f 107/324/86 196/389/86 208/387/86
f 5/132/65 181/251/65 20/390/65
f 112/391/87 201/314/87 63/392/87
f 110/393/31 206/311/31 111/394/31
f 24/395/88 186/306/88 183/308/88
f 108/396/31 207/305/31 109/397/31
f 32/398/31 204/295/31 31/399/31
f 43/400/89 186/285/89 64/401/89
f 112/402/90 203/281/90 191/283/90
f 110/403/91 204/277/91 192/279/91
f 108/404/92 205/405/92 193/271/92
f 181/251/49 25/406/49 20/390/49
f 197/245/17 125/407/17 113/252/17
f 182/241/47 123/408/47 119/255/47
f 148/319/93 211/207/93 149/261/93
f 195/4/5 147/409/5 146/263/5
f 194/144/5 145/410/5 144/266/5
f 137/411/94 208/197/94 142/269/94
f 135/275/95 207/189/95 140/276/95
f 133/412/96 206/183/96 138/280/96
f 127/413/97 201/177/97 128/284/97
f 126/414/98 185/173/98 127/288/98
f 187/86/5 131/415/5 130/290/5
f 203/161/99 133/416/99 132/292/99
f 136/297/100 190/156/100 137/417/100
f 144/266/5 210/205/5 194/144/5
f 131/415/5 198/15/5 114/299/5
f 145/410/5 187/86/5 130/290/5
f 198/15/5 113/418/5 114/299/5
f 199/10/47 121/336/47 123/408/47
f 146/263/101 211/207/101 195/4/101
f 212/419/17 27/420/17 28/421/17
f 1/422/102 223/423/102 47/424/102
f 251/425/5 83/426/5 84/427/5
f 250/428/5 85/429/5 86/430/5
f 249/431/5 87/432/5 88/433/5
f 39/434/103 232/435/103 82/436/103
f 80/437/95 244/438/95 231/439/95
f 83/426/5 250/428/5 86/430/5
f 47/424/102 237/440/102 21/441/102
f 213/442/5 28/443/5 3/444/5
f 14/445/104 220/446/104 16/447/104
f 18/448/17 219/449/17 14/450/17
f 2/129/105 216/451/105 18/452/105
f 215/49/49 359/453/49 354/454/49
f 221/238/17 358/455/17 338/456/17
f 84/427/106 217/457/106 251/425/106
f 346/458/107 248/192/107 368/459/107
f 367/460/108 228/186/108 247/188/108
f 344/461/55 246/182/55 366/462/55
f 341/463/55 241/176/55 361/464/55
f 364/465/109 228/159/109 345/466/109
f 87/432/5 242/467/5 52/468/5
f 51/469/5 213/442/5 3/444/5
f 349/470/110 222/471/110 232/122/110
f 368/472/111 231/121/111 348/473/111
f 357/474/112 241/475/112 237/108/112
f 367/476/113 230/101/113 347/477/113
f 85/429/5 249/431/5 88/433/5
f 342/478/114 246/479/114 225/72/114
f 238/62/17 339/480/17 358/455/17
f 40/481/25 245/482/25 39/483/25
f 36/484/115 243/485/115 35/486/115
f 236/50/116 354/454/116 356/487/116
f 242/467/5 51/469/5 52/468/5
f 335/488/117 220/489/117 337/490/117
f 224/491/118 41/492/118 42/493/118
f 217/30/119 353/494/119 355/495/119
f 41/496/120 225/497/120 62/498/120
f 214/21/121 335/488/121 353/499/121
f 78/500/122 243/501/122 230/502/122
f 292/503/123 274/504/123 314/505/123
f 254/506/124 292/507/124 294/508/124
f 314/505/125 276/509/125 316/510/125
f 295/511/126 253/512/126 293/513/126
f 257/514/17 318/515/17 297/516/17
f 305/517/16 281/518/16 321/519/16
f 306/520/127 286/521/127 326/522/127
f 300/523/128 256/524/128 296/525/128
f 307/526/16 287/527/16 327/528/16
f 318/529/16 288/530/16 328/531/16
f 303/532/129 284/533/129 324/534/129
f 320/535/55 260/536/55 300/537/55
f 323/538/130 265/539/130 305/540/130
f 306/541/39 284/542/39 266/543/39
f 325/544/73 267/545/73 307/546/73
f 317/547/131 257/514/131 297/516/131
f 253/512/49 298/548/49 293/513/49
f 332/549/17 258/550/17 359/551/17
f 255/552/47 340/553/47 356/554/47
f 270/555/5 352/556/5 371/557/5
f 269/558/5 351/559/5 370/560/5
f 268/561/5 350/562/5 369/563/5
f 365/564/51 288/565/51 349/566/51
f 348/567/132 263/568/132 287/569/132
f 352/556/5 269/558/5 370/560/5
f 279/570/133 357/571/133 340/553/133
f 272/572/5 332/573/5 333/574/5
f 336/575/134 276/576/134 337/577/134
f 334/578/135 275/579/135 336/580/135
f 338/581/136 273/582/136 334/583/136
f 371/557/137 254/584/137 270/555/137
f 350/562/5 261/585/5 362/586/5
f 343/587/5 272/572/5 333/574/5
f 351/559/5 268/561/5 369/563/5
f 285/588/16 365/589/16 346/590/16
f 344/591/138 262/592/138 363/593/138
f 261/585/5 343/587/5 362/586/5
f 280/594/16 360/595/16 341/596/16
f 360/597/54 281/598/54 342/599/54
f 347/600/139 262/601/139 286/602/139
f 293/513/49 168/603/49 163/344/49
f 11/604/17 297/516/17 167/347/17
f 155/605/73 307/546/73 177/349/73
f 176/351/140 324/606/140 306/541/140
f 153/607/55 305/540/55 175/353/55
f 150/354/74 300/537/74 170/355/74
f 173/356/141 324/534/141 154/608/141
f 8/359/16 328/531/16 158/360/16
f 177/361/142 327/528/142 157/362/142
f 166/364/143 300/523/143 296/525/143
f 176/609/144 326/522/144 156/366/144
f 175/610/16 321/519/16 151/368/16
f 297/516/17 8/369/17 167/347/17
f 165/611/65 293/513/65 163/344/65
f 15/379/145 316/510/145 12/378/145
f 294/612/146 164/376/146 162/613/146
f 164/376/147 314/614/147 15/377/147
f 311/343/17 258/550/17 271/615/17
f 255/552/148 319/330/148 279/570/148
f 310/231/5 291/616/5 270/555/5
f 309/334/5 290/617/5 269/558/5
f 308/98/5 289/618/5 268/561/5
f 264/619/51 328/340/51 288/565/51
f 263/568/95 327/338/95 287/569/95
f 291/616/5 309/334/5 269/558/5
f 279/570/148 296/332/148 256/620/148
f 312/136/5 271/621/5 272/572/5
f 275/622/149 316/317/149 276/576/149
f 273/623/150 315/302/150 275/579/150
f 317/260/151 273/582/151 277/624/151
f 270/555/152 294/625/152 310/231/152
f 289/618/5 301/39/5 261/585/5
f 282/626/5 312/136/5 272/572/5
f 290/617/5 308/98/5 268/561/5
f 325/56/16 264/627/16 285/588/16
f 283/628/153 302/53/153 262/592/153
f 301/39/5 282/626/5 261/585/5
f 320/33/16 259/629/16 280/594/16
f 259/630/54 321/25/54 281/598/54
f 286/602/154 302/631/154 326/16/154
f 230/502/155 363/632/155 347/600/155
f 225/497/156 360/597/156 342/599/156
f 341/596/157 240/633/157 224/491/157
f 362/586/5 226/634/5 242/467/5
f 227/635/158 363/593/158 243/485/158
f 346/590/159 245/482/159 229/636/159
f 234/637/5 369/563/5 249/431/5
f 226/634/5 333/574/5 213/442/5
f 233/638/5 362/586/5 242/467/5
f 251/425/160 355/639/160 371/557/160
f 221/640/161 334/583/161 216/451/161
f 216/641/162 336/580/162 219/449/162
f 219/642/163 337/577/163 220/446/163
f 333/574/5 212/643/5 213/442/5
f 340/553/164 237/440/164 223/423/164
f 235/644/5 370/560/5 250/428/5
f 244/438/165 348/567/165 231/439/165
f 232/435/166 365/564/166 349/566/166
f 369/563/5 233/638/5 249/431/5
f 370/560/5 234/637/5 250/428/5
f 371/557/5 235/644/5 251/425/5
f 356/554/164 223/423/164 236/645/164
f 212/419/17 359/551/17 239/646/17
f 353/499/167 274/504/167 252/647/167
f 355/495/168 252/648/168 254/506/168
f 274/504/169 337/490/169 276/509/169
f 356/487/65 253/512/65 255/649/65
f 358/455/17 278/650/17 257/514/17
f 265/651/16 342/478/16 281/518/16
f 266/652/170 347/477/170 286/521/170
f 260/653/171 357/474/171 256/524/171
f 287/527/172 368/472/172 348/473/172
f 278/654/16 349/470/16 288/530/16
f 263/655/173 345/466/173 284/533/173
f 260/536/55 341/463/55 361/464/55
f 283/656/55 366/462/55 265/539/55
f 284/542/174 367/460/174 266/543/174
f 285/657/73 368/459/73 267/545/73
f 338/456/17 257/514/17 277/658/17
f 354/454/49 258/659/49 253/512/49
f 38/1/175 35/242/175 78/2/175
f 195/4/176 211/207/176 89/5/176
f 92/7/177 89/204/177 95/8/177
f 199/10/47 48/660/47 24/11/47
f 7/13/5 26/661/5 197/14/5
f 326/16/178 302/631/178 172/17/178
f 10/19/179 9/662/179 218/20/179
f 18/22/8 9/41/8 10/23/8
f 321/25/180 299/663/180 169/26/180
f 4/28/181 10/664/181 214/29/181
f 150/31/11 169/289/11 299/32/11
f 218/34/179 9/665/179 16/35/179
f 171/37/5 152/291/5 322/38/5
f 18/22/8 14/666/8 16/40/8
f 18/42/8 4/667/8 84/43/8
f 60/45/13 56/164/13 99/46/13
f 1/48/65 17/148/65 215/49/65
f 323/51/182 153/293/182 172/52/182
f 155/54/16 174/298/16 304/55/16
f 36/57/3 41/239/3 62/58/3
f 46/60/17 22/668/17 222/61/17
f 29/63/8 108/669/8 109/64/8
f 33/66/8 112/670/8 63/67/8
f 43/69/8 64/671/8 24/70/8
f 225/72/183 246/479/183 77/73/183
f 42/75/3 47/234/3 21/76/3
f 57/78/19 72/198/19 66/79/19
f 54/81/3 93/201/3 99/82/3
f 209/84/5 93/672/5 54/85/5
f 66/87/8 87/209/8 52/88/8
f 103/90/184 98/169/184 95/91/184
f 105/93/16 100/170/16 97/94/16
f 330/96/5 160/264/5 178/97/5
f 247/99/185 79/673/185 78/100/185
f 46/102/3 39/230/3 82/103/3
f 40/105/186 37/228/186 80/106/186
f 237/108/187 241/475/187 61/109/187
f 101/111/188 30/674/188 29/112/188
f 31/113/8 110/675/8 111/114/8
f 68/116/8 85/210/8 88/117/8
f 248/119/25 81/676/25 80/120/25
f 232/122/189 222/471/189 22/123/189
f 202/125/5 53/677/5 7/13/5
f 70/126/8 83/211/8 86/127/8
f 2/129/16 18/452/16 69/130/16
f 5/132/190 20/390/190 55/133/190
f 322/38/5 152/291/5 23/135/5
f 94/137/3 91/202/3 97/138/3
f 7/140/3 53/166/3 55/141/3
f 329/143/5 159/267/5 171/37/5
f 194/144/5 210/205/5 91/145/5
f 1/48/19 58/165/19 50/147/19
f 71/149/191 74/199/191 68/150/191
f 73/152/192 76/200/192 70/153/192
f 29/155/193 30/678/193 190/156/193
f 37/158/30 38/679/30 228/159/30
f 203/161/31 33/680/31 34/162/31
f 59/134/26 55/133/26 56/164/26
f 49/80/19 50/147/19 58/165/19
f 56/83/3 55/141/3 53/166/3
f 54/85/5 53/677/5 202/125/5
f 49/89/8 52/88/8 51/167/8
f 95/91/194 96/681/194 101/111/194
f 104/95/16 97/94/16 98/169/16
f 106/47/195 99/46/195 100/170/195
f 200/171/196 43/682/196 44/172/196
f 224/174/197 42/683/197 61/175/197
f 201/177/198 185/684/198 44/178/198
f 227/180/199 36/685/199 77/181/199
f 206/183/38 188/686/38 34/184/38
f 228/186/200 38/687/200 79/187/200
f 207/189/40 189/688/40 32/190/40
f 248/192/41 229/689/41 40/193/41
f 190/195/201 30/690/201 107/196/201
f 65/151/16 66/79/16 72/198/16
f 67/154/28 68/150/28 74/199/28
f 75/131/16 69/130/16 70/153/16
f 100/139/3 99/82/3 93/201/3
f 98/9/3 97/138/3 91/202/3
f 90/203/202 96/691/202 95/8/202
f 94/146/5 93/672/5 209/84/5
f 92/6/5 91/145/5 210/205/5
f 90/206/203 89/5/203 211/207/203
f 65/118/8 88/117/8 87/209/8
f 67/128/8 86/127/8 85/210/8
f 69/44/8 84/43/8 83/211/8
f 50/168/8 51/167/8 3/212/8
f 103/214/8 32/65/8 31/113/8
f 105/216/8 34/115/8 33/66/8
f 36/57/3 35/242/3 71/218/3
f 38/1/3 37/228/3 73/220/3
f 40/105/3 39/230/3 75/222/3
f 42/75/3 41/239/3 57/224/3
f 60/226/8 44/68/8 43/69/8
f 104/215/8 31/113/8 34/115/8
f 76/223/45 73/220/45 37/228/45
f 2/229/3 75/222/3 39/230/3
f 310/231/204 294/625/204 162/232/204
f 58/225/3 1/692/3 47/234/3
f 59/227/8 43/69/8 48/71/8
f 106/217/8 33/66/8 44/68/8
f 102/236/8 29/63/8 32/65/8
f 2/237/17 46/60/17 238/62/17
f 72/219/3 57/224/3 41/239/3
f 5/240/47 48/660/47 199/10/47
f 74/221/205 71/218/205 35/242/205
f 26/243/17 25/693/17 184/244/17
f 3/212/8 28/694/8 27/246/8
f 20/142/3 25/695/3 26/247/3
f 17/148/49 27/696/49 239/248/49
f 116/249/49 125/345/49 184/250/49
f 113/252/17 125/407/17 168/253/17
f 119/255/47 123/408/47 6/256/47
f 11/258/206 19/321/206 313/259/206
f 180/233/207 148/319/207 149/261/207
f 146/263/5 147/409/5 160/264/5
f 144/266/5 145/410/5 159/267/5
f 174/268/51 137/411/51 142/269/51
f 193/271/52 205/405/52 136/272/52
f 157/274/53 173/697/53 135/275/53
f 204/277/39 134/350/39 141/278/39
f 172/17/208 133/412/208 138/280/208
f 203/281/55 132/352/55 139/282/55
f 169/26/209 127/413/209 128/284/209
f 186/285/210 200/698/210 126/286/210
f 150/31/57 126/414/57 127/288/57
f 130/290/5 131/415/5 152/291/5
f 132/292/211 133/416/211 172/52/211
f 135/294/16 134/357/16 204/295/16
f 136/297/16 137/417/16 174/298/16
f 160/264/5 147/409/5 144/266/5
f 152/291/5 131/415/5 114/299/5
f 313/300/212 19/699/212 13/301/212
f 193/303/213 143/700/213 140/304/213
f 186/306/60 129/701/60 121/307/60
f 192/309/16 141/365/16 138/310/16
f 159/267/5 145/410/5 130/290/5
f 191/312/16 139/367/16 128/313/16
f 315/315/214 13/702/214 12/316/214
f 180/233/215 162/232/215 115/318/215
f 120/320/216 117/703/216 19/321/216
f 182/322/65 119/371/65 116/249/65
f 30/325/217 101/704/217 96/323/217
f 96/323/218 90/705/218 107/324/218
f 23/135/5 45/335/5 311/326/5
f 122/327/219 115/706/219 118/328/219
f 319/330/220 6/256/220 166/331/220
f 331/333/5 161/262/5 179/265/5
f 114/299/5 113/418/5 45/335/5
f 6/256/47 123/408/47 121/336/47
f 161/262/5 149/261/5 146/263/5
f 303/337/221 173/697/221 157/274/221
f 304/339/51 174/268/51 158/270/51
f 178/97/5 159/267/5 329/143/5
f 179/265/5 160/264/5 330/96/5
f 180/233/5 161/262/5 331/333/5
f 165/257/71 6/256/71 319/330/71
f 45/254/17 168/253/17 298/342/17
f 163/344/49 168/603/49 125/345/49
f 120/346/222 11/604/222 167/347/222
f 136/272/73 155/605/73 177/349/73
f 134/350/223 154/707/223 176/351/223
f 132/352/55 153/607/55 175/353/55
f 129/287/224 126/286/224 150/354/224
f 173/356/75 154/608/75 134/357/75
f 142/358/225 122/708/225 8/359/225
f 140/304/16 143/700/16 177/361/16
f 121/307/16 129/701/16 170/363/16
f 141/365/16 176/609/16 156/366/16
f 139/367/16 175/610/16 151/368/16
f 124/348/226 167/347/226 8/369/226
f 119/371/65 165/611/65 163/344/65
f 19/372/227 118/709/227 115/373/227
f 19/375/228 162/613/228 164/376/228
f 12/378/229 13/710/229 19/372/229
f 122/380/230 142/388/230 148/381/230
f 117/383/231 120/711/231 124/329/231
f 208/387/232 196/389/232 148/381/232
f 107/324/233 90/705/233 196/389/233
f 5/132/65 182/322/65 181/251/65
f 112/391/234 191/312/234 201/314/234
f 110/393/31 192/309/31 206/311/31
f 24/395/88 64/712/88 186/306/88
f 108/396/235 193/303/235 207/305/235
f 32/398/31 189/296/31 204/295/31
f 43/400/236 200/698/236 186/285/236
f 112/402/90 33/713/90 203/281/90
f 110/403/91 31/714/91 204/277/91
f 108/404/92 29/715/92 205/405/92
f 181/251/49 184/250/49 25/406/49
f 197/245/17 184/244/17 125/407/17
f 182/241/47 199/10/47 123/408/47
f 148/319/237 196/208/237 211/207/237
f 195/4/5 210/205/5 147/409/5
f 194/144/5 209/84/5 145/410/5
f 137/411/238 190/195/238 208/197/238
f 135/275/95 189/688/95 207/189/95
f 133/412/239 188/686/239 206/183/239
f 127/413/240 185/684/240 201/177/240
f 126/414/98 200/171/98 185/173/98
f 187/86/5 202/125/5 131/415/5
f 203/161/241 188/163/241 133/416/241
f 136/297/242 205/157/242 190/156/242
f 144/266/5 147/409/5 210/205/5
f 131/415/5 202/125/5 198/15/5
f 145/410/5 209/84/5 187/86/5
f 198/15/5 197/14/5 113/418/5
f 199/10/243 183/12/243 121/336/243
f 146/263/244 149/261/244 211/207/244
f 212/419/17 239/646/17 27/420/17
f 1/422/102 236/645/102 223/423/102
f 251/425/5 235/644/5 83/426/5
f 250/428/5 234/637/5 85/429/5
f 249/431/5 233/638/5 87/432/5
f 39/434/103 245/716/103 232/435/103
f 80/437/245 37/717/245 244/438/245
f 83/426/5 235/644/5 250/428/5
f 47/424/102 223/423/102 237/440/102
f 213/442/5 212/643/5 28/443/5
f 14/445/246 219/642/246 220/446/246
f 18/448/247 216/641/247 219/449/247
f 2/129/248 221/640/248 216/451/248
f 215/49/49 239/248/49 359/453/49
f 221/238/17 238/62/17 358/455/17
f 84/427/249 4/718/249 217/457/249
f 346/458/107 229/689/107 248/192/107
f 367/460/250 345/719/250 228/186/250
f 344/461/251 227/180/251 246/182/251
f 341/463/252 224/174/252 241/176/252
f 364/465/253 244/160/253 228/159/253
f 87/432/5 233/638/5 242/467/5
f 51/469/5 226/634/5 213/442/5
f 349/470/16 339/720/16 222/471/16
f 368/472/254 248/119/254 231/121/254
f 357/474/255 361/721/255 241/475/255
f 367/476/256 247/99/256 230/101/256
f 85/429/5 234/637/5 249/431/5
f 342/478/16 366/722/16 246/479/16
f 238/62/17 222/61/17 339/480/17
f 40/481/25 229/636/25 245/482/25
f 36/484/115 227/635/115 243/485/115
f 236/50/257 215/49/257 354/454/257
f 242/467/5 226/634/5 51/469/5
f 335/488/258 218/20/258 220/489/258
f 224/491/259 240/633/259 41/492/259
f 217/30/260 214/29/260 353/494/260
f 41/496/120 240/723/120 225/497/120
f 214/21/261 218/20/261 335/488/261
f 78/500/262 35/724/262 243/501/262
f 292/503/167 252/647/167 274/504/167
f 254/506/263 252/648/263 292/507/263
f 314/505/264 274/504/264 276/509/264
f 295/511/265 255/649/265 253/512/265
f 257/514/17 278/650/17 318/515/17
f 305/517/16 265/651/16 281/518/16
f 306/520/16 266/652/16 286/521/16
f 300/523/16 260/653/16 256/524/16
f 307/526/16 267/725/16 287/527/16
f 318/529/16 278/654/16 288/530/16
f 303/532/266 263/655/266 284/533/266
f 320/535/55 280/726/55 260/536/55
f 323/538/55 283/656/55 265/539/55
f 306/541/267 324/606/267 284/542/267
f 325/544/73 285/657/73 267/545/73
f 317/547/268 277/658/268 257/514/268
f 253/512/49 258/659/49 298/548/49
f 332/549/17 271/615/17 258/550/17
f 255/552/47 279/570/47 340/553/47
f 270/555/5 291/616/5 352/556/5
f 269/558/5 290/617/5 351/559/5
f 268/561/5 289/618/5 350/562/5
f 365/564/51 264/619/51 288/565/51
f 348/567/132 364/727/132 263/568/132
f 352/556/5 291/616/5 269/558/5
f 279/570/269 256/620/269 357/571/269
f 272/572/5 271/621/5 332/573/5
f 336/575/270 275/622/270 276/576/270
f 334/578/271 273/623/271 275/579/271
f 338/581/272 277/624/272 273/582/272
f 371/557/273 355/639/273 254/584/273
f 350/562/5 289/618/5 261/585/5
f 343/587/5 282/626/5 272/572/5
f 351/559/5 290/617/5 268/561/5
f 285/588/16 264/627/16 365/589/16
f 344/591/16 283/628/16 262/592/16
f 261/585/5 282/626/5 343/587/5
f 280/594/16 259/629/16 360/595/16
f 360/597/54 259/630/54 281/598/54
f 347/600/139 363/632/139 262/601/139
f 293/513/49 298/548/49 168/603/49
f 11/604/274 317/547/274 297/516/274
f 155/605/73 325/544/73 307/546/73
f 176/351/275 154/707/275 324/606/275
f 153/607/130 323/538/130 305/540/130
f 150/354/276 320/535/276 300/537/276
f 173/356/277 303/532/277 324/534/277
f 8/359/16 318/529/16 328/531/16
f 177/361/16 307/526/16 327/528/16
f 166/364/278 170/363/278 300/523/278
f 176/609/279 306/520/279 326/522/279
f 175/610/16 305/517/16 321/519/16
f 297/516/17 318/515/17 8/369/17
f 165/611/280 295/511/280 293/513/280
f 15/379/281 314/505/281 316/510/281
f 294/612/282 292/728/282 164/376/282
f 164/376/283 292/728/283 314/614/283
f 311/343/17 298/342/17 258/550/17
f 255/552/148 295/341/148 319/330/148
f 310/231/5 331/333/5 291/616/5
f 309/334/5 330/96/5 290/617/5
f 308/98/5 329/143/5 289/618/5
f 264/619/51 304/339/51 328/340/51
f 263/568/284 303/337/284 327/338/284
f 291/616/5 331/333/5 309/334/5
f 279/570/148 319/330/148 296/332/148
f 312/136/5 311/326/5 271/621/5
f 275/622/285 315/315/285 316/317/285
f 273/623/286 313/300/286 315/302/286
f 317/260/287 313/259/287 273/582/287
f 270/555/288 254/584/288 294/625/288
f 289/618/5 329/143/5 301/39/5
f 282/626/5 322/38/5 312/136/5
f 290/617/5 330/96/5 308/98/5
f 325/56/16 304/55/16 264/627/16
f 283/628/289 323/51/289 302/53/289
f 301/39/5 322/38/5 282/626/5
f 320/33/16 299/32/16 259/629/16
f 259/630/54 299/663/54 321/25/54
f 286/602/290 262/601/290 302/631/290
f 230/502/291 243/501/291 363/632/291
f 225/497/156 240/723/156 360/597/156
f 341/596/292 360/595/292 240/633/292
f 362/586/5 343/587/5 226/634/5
f 227/635/293 344/591/293 363/593/293
f 346/590/159 365/589/159 245/482/159
f 234/637/5 351/559/5 369/563/5
f 226/634/5 343/587/5 333/574/5
f 233/638/5 350/562/5 362/586/5
f 251/425/294 217/457/294 355/639/294
f 221/640/295 338/581/295 334/583/295
f 216/641/296 334/578/296 336/580/296
f 219/642/297 336/575/297 337/577/297
f 333/574/5 332/573/5 212/643/5
f 340/553/298 357/571/298 237/440/298
f 235/644/5 352/556/5 370/560/5
f 244/438/165 364/727/165 348/567/165
f 232/435/166 245/716/166 365/564/166
f 369/563/5 350/562/5 233/638/5
f 370/560/5 351/559/5 234/637/5
f 371/557/5 352/556/5 235/644/5
f 356/554/164 340/553/164 223/423/164
f 212/419/17 332/549/17 359/551/17
f 353/499/299 335/488/299 274/504/299
f 355/495/300 353/494/300 252/648/300
f 274/504/301 335/488/301 337/490/301
f 356/487/65 354/454/65 253/512/65
f 358/455/17 339/480/17 278/650/17
f 265/651/16 366/722/16 342/478/16
f 266/652/302 367/476/302 347/477/302
f 260/653/255 361/721/255 357/474/255
f 287/527/16 267/725/16 368/472/16
f 278/654/16 339/720/16 349/470/16
f 263/655/303 364/465/303 345/466/303
f 260/536/55 280/726/55 341/463/55
f 283/656/55 344/461/55 366/462/55
f 284/542/304 345/719/304 367/460/304
f 285/657/73 346/458/73 368/459/73
f 338/456/17 358/455/17 257/514/17
f 354/454/49 359/453/49 258/659/49
