# Blender 4.2.1 LTS
# www.blender.org
mtllib door_1.mtl
g door_1_Mesh
v 0.877945 0.203215 0.049873
v 0.125302 0.203215 0.049874
v 0.125302 0.203211 0.000000
v 0.877945 0.203211 0.000000
v 0.125304 1.471335 0.049874
v 0.877944 1.471335 0.049873
v 0.125302 1.471335 0.000000
v 0.877945 1.471335 0.000000
v 1.003247 0.000000 0.049873
v 0.000000 0.000000 0.049874
v 0.000000 0.000000 0.000000
v 1.003247 0.000000 0.000000
v 0.000000 1.580300 0.000000
v 1.003247 1.580300 0.000000
v 1.003245 1.580300 0.049873
v 0.000003 1.580300 0.049874
v 0.149069 0.365986 0.029479
v 0.149069 0.501664 0.029479
v 0.877945 0.203215 0.041124
v 0.125302 0.203215 0.041124
v 0.125302 0.203211 0.008750
v 0.877945 0.203211 0.008750
v 0.125302 1.471335 0.008750
v 0.877945 1.471335 0.008750
v 0.877944 1.471335 0.041124
v 0.125304 1.471335 0.041124
v 0.854179 1.076308 0.020392
v 0.854179 1.225950 0.020392
v 0.854179 0.710241 0.020392
v 0.854179 0.823522 0.020392
v 0.854179 0.365986 0.020392
v 0.854179 0.501664 0.020392
v 0.501623 1.076308 0.020392
v 0.501623 0.501664 0.020392
v 0.501623 0.229670 0.020392
v 0.501623 0.365986 0.020392
v 0.501623 0.365986 0.029479
v 0.501623 0.229674 0.029479
v 0.501623 0.501664 0.029479
v 0.501623 1.225950 0.020392
v 0.501623 1.444875 0.020392
v 0.501623 1.076308 0.029479
v 0.501623 1.225950 0.029479
v 0.501623 1.444875 0.029479
v 0.501623 0.203211 0.000000
v 0.501623 0.203215 0.049873
v 0.501623 1.580300 0.000000
v 0.501623 1.580300 0.049873
v 0.501623 0.000000 0.000000
v 0.501623 0.000000 0.049873
v 0.501623 0.474022 0.041124
v 0.501623 0.393628 0.041124
v 0.501623 0.203215 0.041124
v 0.501623 1.471335 0.041124
v 0.501623 0.203211 0.008750
v 0.501623 1.471335 0.008750
v 0.501623 1.471335 0.000000
v 0.501623 1.471335 0.049873
v 0.501623 1.198307 0.041124
v 0.501623 1.103951 0.041124
v 0.501623 0.393628 0.008750
v 0.501623 0.474022 0.008750
v 0.501623 1.198307 0.008750
v 0.501623 1.103951 0.008750
v 0.000000 1.198307 0.000000
v 0.000000 1.103951 0.000000
v 0.000000 0.823522 0.000000
v 0.000000 0.710241 0.000000
v 0.000000 0.474022 0.000000
v 0.000000 0.393628 0.000000
v 1.003247 1.198307 0.000000
v 1.003247 1.103951 0.000000
v 1.003247 0.823522 0.000000
v 1.003247 0.710241 0.000000
v 1.003247 0.474022 0.000000
v 1.003247 0.393628 0.000000
v 1.003246 0.393628 0.049873
v 1.003246 0.474022 0.049873
v 1.003246 0.710241 0.049873
v 1.003246 0.823522 0.049873
v 1.003245 1.103951 0.049873
v 1.003245 1.198307 0.049873
v 0.000002 1.103951 0.049874
v 0.000002 1.198307 0.049874
v 0.000001 0.710241 0.049874
v 0.000001 0.823522 0.049874
v 0.000001 0.393628 0.049874
v 0.000001 0.474022 0.049874
v 0.125302 1.103951 0.000000
v 0.125302 1.198307 0.000000
v 0.125302 0.710241 0.000000
v 0.125302 0.823522 0.000000
v 0.125302 0.393628 0.000000
v 0.125302 0.474022 0.000000
v 0.877945 1.198307 0.000000
v 0.877945 1.103951 0.000000
v 0.877945 0.823522 0.000000
v 0.877945 0.710241 0.000000
v 0.877945 0.474022 0.000000
v 0.877945 0.393628 0.000000
v 0.877945 0.393628 0.049873
v 0.877945 0.474022 0.049873
v 0.877945 0.710241 0.049873
v 0.877944 0.823522 0.049873
v 0.877944 1.103951 0.049873
v 0.877944 1.198307 0.049873
v 0.125303 1.103951 0.049874
v 0.125303 1.198307 0.049874
v 0.125303 0.710241 0.049874
v 0.125303 0.823522 0.049874
v 0.125302 0.393628 0.049874
v 0.125302 0.474022 0.049874
v 0.125302 1.198307 0.008750
v 0.125302 1.103951 0.008750
v 0.125302 0.823522 0.008750
v 0.125302 0.710241 0.008750
v 0.125302 0.474022 0.008750
v 0.125302 0.393628 0.008750
v 0.877945 1.198307 0.008750
v 0.877945 1.103951 0.008750
v 0.877945 0.823522 0.008750
v 0.877945 0.710241 0.008750
v 0.877945 0.474022 0.008750
v 0.877945 0.393628 0.008750
v 0.877945 0.474022 0.041124
v 0.877945 0.393628 0.041124
v 0.877944 0.823522 0.041124
v 0.877945 0.710241 0.041124
v 0.877944 1.198307 0.041124
v 0.877944 1.103951 0.041124
v 0.125303 1.198307 0.041124
v 0.125303 1.103951 0.041124
v 0.125303 0.823522 0.041124
v 0.125303 0.710241 0.041124
v 0.125302 0.474022 0.041124
v 0.125302 0.393628 0.041124
v 0.149069 0.823522 0.029479
v 0.149069 0.710241 0.029479
v 0.149070 1.225950 0.029479
v 0.149070 1.076308 0.029479
v 0.149068 0.501664 0.020392
v 0.149068 0.365986 0.020392
v 0.149068 0.823522 0.020392
v 0.149068 0.710241 0.020392
v 0.149068 1.225950 0.020392
v 0.149068 1.076308 0.020392
v 0.854178 0.501664 0.029479
v 0.854178 0.365986 0.029479
v 0.854178 0.823522 0.029479
v 0.854178 0.710241 0.029479
v 0.854177 1.225950 0.029479
v 0.854178 1.076308 0.029479
v 0.854179 0.229670 0.020392
v 0.149068 0.229670 0.020392
v 0.149068 0.229674 0.029479
v 0.854179 0.229674 0.029479
v 0.149070 1.444875 0.029479
v 0.854177 1.444875 0.029479
v 0.854179 1.444875 0.020392
v 0.149068 1.444875 0.020392
v 0.501623 0.393628 0.064054
v 0.501623 0.474022 0.064054
v 0.501623 1.103951 0.064054
v 0.501623 1.198307 0.064054
v 0.501623 0.393628 -0.014186
v 0.501623 0.474022 -0.014186
v 0.501623 1.103951 -0.014186
v 0.501623 1.198307 -0.014186
v 0.877945 0.474022 -0.014186
v 0.877945 0.393628 -0.014186
v 0.877945 1.198307 -0.014186
v 0.877945 1.103951 -0.014186
v 0.125302 0.474022 0.064054
v 0.125302 0.393628 0.064054
v 0.125303 1.198307 0.064054
v 0.125303 1.103951 0.064054
v 0.125302 0.474022 -0.014186
v 0.125302 0.393628 -0.014186
v 0.125302 1.198307 -0.014186
v 0.125302 1.103951 -0.014186
v 0.877944 1.198307 0.064054
v 0.877944 1.103951 0.064054
v 0.877945 0.474022 0.064054
v 0.877945 0.393628 0.064054
v 0.000001 0.393628 0.064054
v 0.000001 0.474022 0.064054
v 0.000000 0.474022 -0.014186
v 0.000000 0.393628 -0.014186
v 0.000002 1.103951 0.064054
v 0.000002 1.198307 0.064054
v 0.000000 1.198307 -0.014186
v 0.000000 1.103951 -0.014186
v 1.003247 0.474022 -0.014186
v 1.003247 0.393628 -0.014186
v 1.003247 1.198307 -0.014186
v 1.003247 1.103951 -0.014186
v 1.003245 1.103951 0.064054
v 1.003245 1.198307 0.064054
v 1.003246 0.393628 0.064054
v 1.003246 0.474022 0.064054
v 0.877945 0.474022 0.020392
v 0.877945 0.710241 0.020392
v 0.125302 0.823522 0.020392
v 0.125302 1.103951 0.020392
v 0.877945 0.203215 0.029479
v 0.877945 0.393628 0.029479
v 0.877945 0.710241 0.029479
v 0.501623 0.393628 0.020392
v 0.125302 0.393628 0.020392
v 0.501623 1.198307 0.020392
v 0.877945 1.198307 0.020392
v 0.501623 0.474022 0.020392
v 0.501623 1.103951 0.029479
v 0.501623 1.471335 0.020392
v 0.501623 1.198307 0.029479
v 0.501623 1.471335 0.029479
v 0.125303 0.710241 0.029479
v 0.125302 0.474022 0.029479
v 0.125302 1.471335 0.020392
v 0.877945 0.393628 0.020392
v 0.877945 0.203211 0.020392
v 0.877944 1.198307 0.029479
v 0.877944 1.471335 0.029479
v 0.125304 1.471335 0.029479
v 0.501623 0.203215 0.029479
v 0.125302 0.203215 0.029479
v 0.877945 0.474022 0.029479
v 0.501623 0.474022 0.029479
v 0.501623 1.103951 0.020392
v 0.125302 0.710241 0.020392
v 0.125303 1.198307 0.029479
v 0.125302 0.393628 0.029479
v 0.501623 0.393628 0.029479
v 0.877945 0.823522 0.020392
v 0.501623 0.203211 0.020392
v 0.877945 1.103951 0.020392
v 0.125302 0.474022 0.020392
v 0.125303 1.103951 0.029479
v 0.125303 0.823522 0.029479
v 0.877944 0.823522 0.029479
v 0.877944 1.103951 0.029479
v 0.877945 1.471335 0.020392
v 0.125302 1.198307 0.020392
v 0.125302 0.203211 0.020392
v 0.854179 0.501664 0.023426
v 0.854179 0.710241 0.023426
v 0.149068 0.823522 0.023426
v 0.149068 1.076308 0.023426
v 0.854179 0.229674 0.026445
v 0.854178 0.365986 0.026445
v 0.854178 0.710241 0.026445
v 0.501623 0.365986 0.023426
v 0.149068 0.365986 0.023426
v 0.501623 1.225950 0.023426
v 0.854179 1.225950 0.023426
v 0.501623 0.501664 0.023426
v 0.501623 1.076308 0.026445
v 0.501623 1.444875 0.023426
v 0.501623 1.225950 0.026445
v 0.501623 1.444875 0.026445
v 0.149069 0.710241 0.026445
v 0.149069 0.501664 0.026445
v 0.149068 1.444875 0.023426
v 0.854179 0.365986 0.023426
v 0.854179 0.229670 0.023426
v 0.854177 1.225950 0.026445
v 0.854177 1.444875 0.026445
v 0.149070 1.444875 0.026445
v 0.501623 0.229674 0.026445
v 0.149068 0.229674 0.026445
v 0.854178 0.501664 0.026445
v 0.501623 0.501664 0.026445
v 0.501617 1.076308 0.023426
v 0.149068 0.710241 0.023426
v 0.149070 1.225950 0.026445
v 0.149069 0.365986 0.026445
v 0.501623 0.365986 0.026445
v 0.854179 0.823522 0.023426
v 0.501623 0.229670 0.023426
v 0.854179 1.076308 0.023426
v 0.149068 0.501664 0.023426
v 0.149070 1.076308 0.026445
v 0.149069 0.823522 0.026445
v 0.854178 0.823522 0.026445
v 0.854178 1.076308 0.026445
v 0.854179 1.444875 0.023426
v 0.149068 1.225950 0.023426
v 0.149068 0.229670 0.023426
v 0.501619 0.710241 0.026445
v 0.501561 0.823522 0.023426
v 0.501567 0.710241 0.023426
v 0.501619 0.823522 0.026445
v 0.961413 0.737724 0.060893
v 0.900669 0.737724 0.060893
v 0.900668 0.737724 -0.011619
v 0.961413 0.737724 -0.011619
v 0.900668 0.792467 -0.011619
v 0.961413 0.792467 -0.011619
v 0.961412 0.792467 0.060893
v 0.900669 0.792467 0.060893
v 0.957065 0.741633 0.069152
v 0.905017 0.741633 0.069152
v 0.905016 0.741652 -0.019879
v 0.957065 0.741652 -0.019879
v 0.905016 0.788558 -0.019879
v 0.957065 0.788558 -0.019879
v 0.957064 0.788539 0.069152
v 0.905017 0.788539 0.069152
v 0.931041 0.726895 0.060893
v 0.931041 0.726895 -0.011619
v 0.931041 0.803296 0.060893
v 0.931041 0.803296 -0.011619
v 0.931041 0.732351 0.069152
v 0.931041 0.732377 -0.019879
v 0.931041 0.797814 0.069152
v 0.931041 0.797841 -0.019879
v 0.894303 0.765095 -0.011619
v 0.967779 0.765095 -0.011619
v 0.967778 0.765096 0.060893
v 0.894304 0.765096 0.060893
v 0.899562 0.765105 -0.019879
v 0.962519 0.765105 -0.019879
v 0.962518 0.765086 0.069152
v 0.899563 0.765086 0.069152
v 0.901971 0.738886 0.109088
v 0.931041 0.728518 0.109088
v 0.931041 0.720141 0.096298
v 0.895314 0.732884 0.096298
v 0.931041 0.720177 -0.047022
v 0.966769 0.732910 -0.047022
v 0.887825 0.765109 -0.047022
v 0.895313 0.732910 -0.047022
v 0.974257 0.765109 -0.047022
v 0.974257 0.765082 0.096298
v 0.966769 0.797281 0.096298
v 0.887825 0.765082 0.096298
v 0.931041 0.810014 0.096298
v 0.895314 0.797281 0.096298
v 0.931041 0.810051 -0.047022
v 0.966769 0.797307 -0.047022
v 0.966769 0.732884 0.096298
v 0.895313 0.797307 -0.047022
v 0.931041 0.728547 -0.059811
v 0.960112 0.738908 -0.059811
v 0.895878 0.765106 -0.059811
v 0.901971 0.738908 -0.059811
v 0.966204 0.765106 -0.059811
v 0.966204 0.765085 0.109088
v 0.960111 0.791283 0.109088
v 0.895879 0.765085 0.109088
v 0.931041 0.801644 0.109088
v 0.901972 0.791283 0.109088
v 0.931041 0.801673 -0.059811
v 0.960112 0.791305 -0.059811
v 0.960111 0.738886 0.109088
v 0.901971 0.791305 -0.059811
v 0.931041 0.765085 0.109088
v 0.931041 0.765106 -0.059811
vn -0.0000 -0.0000 -1.0000
vn -1.0000 -0.0000 -0.0000
vn -0.0000 -0.0000 1.0000
vn 1.0000 -0.0000 -0.0000
vn -0.0000 -1.0000 -0.0000
vn -0.0000 1.0000 -0.0000
vn -0.2847 -0.7987 -0.5301
vn 0.8276 -0.1925 -0.5272
vn -0.3093 -0.8673 -0.3901
vn 0.8976 -0.2087 -0.3882
vn -0.2847 0.7987 0.5302
vn 0.8276 0.1925 0.5273
vn -0.8278 0.1925 -0.5269
vn 0.2852 -0.7997 0.5283
vn 0.2853 0.7998 -0.5282
vn -0.8278 -0.1925 0.5269
vn -0.2851 0.7997 -0.5284
vn -0.2851 -0.7996 0.5285
vn 0.2848 0.7988 0.5299
vn 0.3093 0.8672 0.3901
vn 0.8976 0.2087 0.3882
vn 0.2848 -0.7988 -0.5298
vn -0.3092 0.8674 -0.3898
vn -0.8976 0.2087 0.3882
vn -0.8276 0.1925 0.5272
vn -0.8277 -0.1925 -0.5272
vn 0.8278 -0.1925 0.5269
vn -0.3093 0.8672 0.3901
vn -0.8976 -0.2087 -0.3882
vn 0.8279 0.1925 -0.5269
vn -0.2859 0.8016 -0.5251
vn 0.8303 -0.1931 -0.5228
vn 0.2858 0.8018 0.5248
vn -0.8303 0.1931 0.5228
vn -0.8303 -0.1931 -0.5228
vn -0.2858 -0.8018 -0.5248
vn 0.8303 -0.1931 0.5228
vn 0.2858 -0.8018 -0.5248
vn -0.8977 0.2088 -0.3881
vn 0.3091 -0.8674 0.3899
vn -0.8977 -0.2088 0.3881
vn 0.3093 -0.8673 -0.3901
vn 0.8976 -0.2087 0.3882
vn -0.3091 -0.8674 0.3899
vn 0.8976 0.2088 -0.3881
vn 0.3091 0.8674 -0.3899
vn 0.8303 0.1931 0.5228
vn -0.8303 -0.1931 0.5228
vn -0.2858 0.8018 0.5248
vn -0.8303 0.1931 -0.5229
vn 0.2859 0.8016 -0.5251
vn -0.2859 -0.8016 0.5250
vn 0.8303 0.1931 -0.5228
vn 0.2859 -0.8016 0.5250
vn -1.0000 -0.0000 0.0001
vn 1.0000 -0.0000 0.0001
vn -0.2848 -0.7989 -0.5298
vn -0.2848 0.7988 0.5299
vn -0.8279 0.1925 -0.5268
vn 0.2851 -0.7996 0.5285
vn 0.2851 0.7997 -0.5285
vn -0.2853 0.7998 -0.5282
vn -0.2853 -0.7997 0.5283
vn 0.2846 0.7987 0.5302
vn 0.2847 -0.7987 -0.5301
vn -0.8976 0.2088 0.3882
vn -0.8276 -0.1925 -0.5272
vn 0.8278 -0.1925 0.5270
vn -0.3093 0.8673 0.3901
vn -0.8976 -0.2088 -0.3881
vn 0.8278 0.1925 -0.5269
vn -0.8976 -0.2087 0.3881
vn 0.3092 0.8674 -0.3899
vn -0.8303 0.1931 -0.5228
vt 0.586297 0.165109
vt 0.586830 0.170135
vt 0.586297 0.170148
vt 0.579969 0.174458
vt 0.576514 0.171722
vt 0.579969 0.171722
vt 0.574871 0.175741
vt 0.574339 0.170715
vt 0.574871 0.170702
vt 0.580109 0.171621
vt 0.576811 0.171140
vt 0.580109 0.171140
vt 0.577539 0.173697
vt 0.575182 0.173217
vt 0.577539 0.173217
vt 0.576450 0.174665
vt 0.579905 0.171929
vt 0.579905 0.174665
vt 0.580109 0.172566
vt 0.576811 0.172086
vt 0.580109 0.172086
vt 0.586401 0.170148
vt 0.586934 0.164856
vt 0.586933 0.170135
vt 0.574235 0.170135
vt 0.574767 0.165110
vt 0.574767 0.170148
vt 0.580667 0.172307
vt 0.583024 0.172307
vt 0.580471 0.173032
vt 0.583769 0.173512
vt 0.580471 0.173512
vt 0.576811 0.174457
vt 0.580109 0.173977
vt 0.580109 0.174457
vt 0.583447 0.173947
vt 0.580840 0.171209
vt 0.583447 0.171209
vt 0.582729 0.172271
vt 0.580372 0.172751
vt 0.580372 0.172271
vt 0.583426 0.171193
vt 0.580820 0.173931
vt 0.580820 0.171193
vt 0.586401 0.159241
vt 0.582952 0.158708
vt 0.586934 0.158708
vt 0.575477 0.172307
vt 0.577834 0.172787
vt 0.575477 0.172787
vt 0.574932 0.164450
vt 0.578533 0.164450
vt 0.582729 0.173697
vt 0.580372 0.173217
vt 0.582729 0.173217
vt 0.577834 0.172307
vt 0.577539 0.172271
vt 0.575182 0.172751
vt 0.575182 0.172271
vt 0.586297 0.181610
vt 0.582848 0.182142
vt 0.582696 0.181609
vt 0.577788 0.173931
vt 0.575182 0.171193
vt 0.577788 0.171193
vt 0.574871 0.159241
vt 0.578321 0.158708
vt 0.578472 0.159241
vt 0.578163 0.165442
vt 0.575302 0.165442
vt 0.576438 0.172566
vt 0.572969 0.172566
vt 0.575202 0.173947
vt 0.577809 0.171209
vt 0.577809 0.173947
vt 0.580372 0.171805
vt 0.582729 0.171325
vt 0.582729 0.171805
vt 0.574767 0.159241
vt 0.578217 0.158708
vt 0.578368 0.159241
vt 0.583024 0.172787
vt 0.580667 0.172787
vt 0.578321 0.182142
vt 0.574871 0.181609
vt 0.578472 0.181609
vt 0.586401 0.181609
vt 0.582952 0.182142
vt 0.582800 0.181609
vt 0.586297 0.159241
vt 0.582848 0.158708
vt 0.586830 0.158708
vt 0.578217 0.182142
vt 0.574767 0.181610
vt 0.578368 0.181610
vt 0.578533 0.165019
vt 0.574932 0.165019
vt 0.575182 0.171805
vt 0.577539 0.171325
vt 0.577539 0.171805
vt 0.580372 0.171325
vt 0.576160 0.174458
vt 0.572490 0.171722
vt 0.576161 0.171722
vt 0.572969 0.172086
vt 0.576438 0.172086
vt 0.584141 0.174457
vt 0.587610 0.173977
vt 0.587610 0.174457
vt 0.580471 0.174457
vt 0.583769 0.173977
vt 0.583769 0.174457
vt 0.576438 0.171140
vt 0.572969 0.171621
vt 0.572969 0.171140
vt 0.572969 0.173032
vt 0.576438 0.173512
vt 0.572969 0.173512
vt 0.576811 0.173032
vt 0.580109 0.173512
vt 0.576810 0.173512
vt 0.584141 0.173977
vt 0.587610 0.172566
vt 0.584141 0.172566
vt 0.586830 0.164317
vt 0.586297 0.164540
vt 0.574235 0.176533
vt 0.574767 0.176310
vt 0.574235 0.175994
vt 0.574767 0.170702
vt 0.574767 0.175741
vt 0.572969 0.174457
vt 0.576438 0.173977
vt 0.576438 0.174457
vt 0.586934 0.176533
vt 0.586934 0.182142
vt 0.586401 0.175741
vt 0.586933 0.170715
vt 0.586934 0.175994
vt 0.584141 0.173032
vt 0.587610 0.173512
vt 0.584141 0.173512
vt 0.584141 0.172086
vt 0.587610 0.172086
vt 0.583769 0.172566
vt 0.580471 0.172086
vt 0.583769 0.172086
vt 0.574339 0.176533
vt 0.574871 0.176310
vt 0.584093 0.174665
vt 0.587764 0.171929
vt 0.587764 0.174665
vt 0.580284 0.174665
vt 0.583739 0.171929
vt 0.583740 0.174665
vt 0.582860 0.175650
vt 0.586461 0.175650
vt 0.587610 0.171140
vt 0.584141 0.171621
vt 0.584141 0.171140
vt 0.583769 0.171621
vt 0.580471 0.171140
vt 0.583769 0.171140
vt 0.586934 0.164317
vt 0.586401 0.164540
vt 0.574339 0.164317
vt 0.574339 0.158708
vt 0.574871 0.170148
vt 0.574339 0.164856
vt 0.574871 0.165110
vt 0.587828 0.174458
vt 0.584157 0.171722
vt 0.587828 0.171722
vt 0.583803 0.174458
vt 0.580348 0.171722
vt 0.583804 0.171722
vt 0.574235 0.164317
vt 0.574767 0.164540
vt 0.586830 0.176533
vt 0.586830 0.182142
vt 0.586297 0.170702
vt 0.586830 0.175994
vt 0.586297 0.175741
vt 0.572425 0.174665
vt 0.576096 0.171929
vt 0.576097 0.174665
vt 0.574883 0.176168
vt 0.578484 0.176168
vt 0.582811 0.176168
vt 0.586412 0.176168
vt 0.578484 0.175599
vt 0.574883 0.175599
vt 0.574235 0.164856
vt 0.586412 0.175599
vt 0.582811 0.175599
vt 0.586297 0.176310
vt 0.578533 0.175650
vt 0.574932 0.175650
vt 0.574932 0.176219
vt 0.578533 0.176219
vt 0.574871 0.164540
vt 0.575253 0.169584
vt 0.575253 0.170983
vt 0.576438 0.173032
vt 0.580109 0.173032
vt 0.583769 0.173032
vt 0.584156 0.174458
vt 0.580348 0.174458
vt 0.576513 0.174458
vt 0.580471 0.172566
vt 0.576810 0.172566
vt 0.575302 0.171034
vt 0.575302 0.169635
vt 0.576811 0.171621
vt 0.576438 0.171621
vt 0.586091 0.159597
vt 0.583230 0.159597
vt 0.575253 0.163952
vt 0.578114 0.163952
vt 0.586042 0.176615
vt 0.583181 0.176615
vt 0.586042 0.159546
vt 0.583181 0.159546
vt 0.575253 0.175176
vt 0.578114 0.175176
vt 0.586091 0.175227
vt 0.586091 0.171034
vt 0.583181 0.163952
vt 0.586042 0.163952
vt 0.575302 0.175227
vt 0.575182 0.171325
vt 0.572969 0.173977
vt 0.580471 0.171621
vt 0.580471 0.173977
vt 0.576810 0.173977
vt 0.574883 0.164399
vt 0.578484 0.164399
vt 0.587610 0.173032
vt 0.577539 0.172751
vt 0.582811 0.164399
vt 0.586412 0.164399
vt 0.578484 0.164968
vt 0.574883 0.164968
vt 0.587610 0.171621
vt 0.586461 0.165019
vt 0.582860 0.165019
vt 0.586412 0.164968
vt 0.582811 0.164968
vt 0.582860 0.164450
vt 0.586461 0.164450
vt 0.580372 0.173697
vt 0.582729 0.172751
vt 0.575182 0.173697
vt 0.586461 0.176219
vt 0.582860 0.176219
vt 0.586401 0.165110
vt 0.586401 0.176310
vt 0.586830 0.164856
vt 0.574932 0.170058
vt 0.576449 0.171929
vt 0.586401 0.170702
vt 0.584092 0.171929
vt 0.574339 0.175994
vt 0.586042 0.175176
vt 0.586412 0.170560
vt 0.575253 0.165391
vt 0.574883 0.170007
vt 0.586091 0.164003
vt 0.586461 0.159150
vt 0.575253 0.176615
vt 0.578114 0.176615
vt 0.575253 0.159546
vt 0.578484 0.159099
vt 0.578114 0.159546
vt 0.586412 0.181468
vt 0.586042 0.181021
vt 0.586091 0.176666
vt 0.586461 0.181519
vt 0.586091 0.181072
vt 0.575302 0.181072
vt 0.578533 0.181519
vt 0.574932 0.181519
vt 0.575302 0.159597
vt 0.578533 0.159150
vt 0.578163 0.159597
vt 0.586091 0.165442
vt 0.578114 0.165391
vt 0.575302 0.176666
vt 0.578163 0.176666
vt 0.575302 0.164003
vt 0.586042 0.165391
vt 0.586412 0.170007
vt 0.586042 0.169584
vt 0.574883 0.170560
vt 0.574932 0.170611
vt 0.586461 0.170611
vt 0.582811 0.159099
vt 0.586412 0.159099
vt 0.583181 0.175176
vt 0.574883 0.159099
vt 0.574883 0.181468
vt 0.586461 0.170058
vt 0.586091 0.169635
vt 0.582860 0.181519
vt 0.583230 0.181072
vt 0.583230 0.175227
vt 0.575253 0.181021
vt 0.578484 0.181468
vt 0.582860 0.159150
vt 0.574932 0.159150
vt 0.583230 0.164003
vt 0.582811 0.181468
vt 0.583181 0.181021
vt 0.677957 0.874908
vt 0.680818 0.879314
vt 0.677957 0.879314
vt 0.672889 0.874908
vt 0.670028 0.879314
vt 0.670028 0.874908
vt 0.672889 0.857839
vt 0.670028 0.862245
vt 0.670028 0.857839
vt 0.669979 0.879263
vt 0.672840 0.874857
vt 0.672840 0.879263
vt 0.669979 0.862194
vt 0.672840 0.857788
vt 0.672840 0.862194
vt 0.677908 0.862194
vt 0.680769 0.857788
vt 0.680769 0.862194
vt 0.677957 0.857839
vt 0.680818 0.862246
vt 0.677957 0.862245
vt 0.677908 0.879263
vt 0.680769 0.874857
vt 0.680769 0.879263
vt 0.574339 0.170135
vt 0.583230 0.176666
vt 0.578163 0.181072
vt 0.583230 0.165442
vt 0.578163 0.175227
vt 0.586830 0.170715
vt 0.574235 0.170715
vt 0.586042 0.170983
vt 0.583181 0.165391
vt 0.578163 0.164003
vt 0.578114 0.181021
vt 0.680769 0.869225
vt 0.672840 0.873418
vt 0.675373 0.869225
vt 0.680769 0.867826
vt 0.669979 0.863633
vt 0.675373 0.867826
vt 0.669979 0.867826
vt 0.670028 0.873470
vt 0.675423 0.869276
vt 0.672889 0.873470
vt 0.675423 0.867877
vt 0.670028 0.869276
vt 0.670028 0.867877
vt 0.677957 0.863684
vt 0.680817 0.867877
vt 0.675374 0.863633
vt 0.669979 0.873418
vt 0.669979 0.869225
vt 0.680818 0.869276
vt 0.670028 0.863684
vt 0.680818 0.873470
vt 0.568381 0.091108
vt 0.567030 0.094353
vt 0.567030 0.091108
vt 0.583064 0.090279
vt 0.581757 0.093220
vt 0.581735 0.090287
vt 0.586101 0.094353
vt 0.588657 0.091108
vt 0.588657 0.095563
vt 0.556873 0.093608
vt 0.559357 0.090656
vt 0.559388 0.094682
vt 0.583003 0.091108
vt 0.581651 0.094353
vt 0.581651 0.091108
vt 0.555478 0.090666
vt 0.556873 0.087760
vt 0.556850 0.090675
vt 0.584863 0.090279
vt 0.586170 0.087371
vt 0.586192 0.090287
vt 0.584750 0.091108
vt 0.586101 0.087863
vt 0.586101 0.091108
vt 0.570128 0.091108
vt 0.571480 0.087863
vt 0.571480 0.091108
vt 0.575763 0.090279
vt 0.574368 0.093221
vt 0.574391 0.090288
vt 0.571480 0.094353
vt 0.570128 0.094895
vt 0.584750 0.094895
vt 0.581651 0.087863
vt 0.583003 0.087321
vt 0.574036 0.091108
vt 0.581757 0.087371
vt 0.579132 0.090269
vt 0.579163 0.086266
vt 0.567030 0.087863
vt 0.568381 0.087321
vt 0.579095 0.091108
vt 0.588795 0.090269
vt 0.574368 0.087373
vt 0.575737 0.086877
vt 0.586170 0.093220
vt 0.584837 0.093702
vt 0.555505 0.094089
vt 0.574036 0.095563
vt 0.571884 0.090269
vt 0.583090 0.086877
vt 0.575692 0.094733
vt 0.577535 0.093559
vt 0.577510 0.090283
vt 0.577439 0.087483
vt 0.579095 0.086653
vt 0.570171 0.087024
vt 0.571853 0.086266
vt 0.590392 0.093559
vt 0.588764 0.094295
vt 0.564474 0.091108
vt 0.562818 0.094733
vt 0.562818 0.091108
vt 0.561071 0.093944
vt 0.562818 0.087483
vt 0.564474 0.086653
vt 0.472373 0.424236
vt 0.468103 0.426597
vt 0.468103 0.423243
vt 0.462085 0.424235
vt 0.464876 0.428238
vt 0.461053 0.428676
vt 0.457815 0.426596
vt 0.457815 0.423242
vt 0.475164 0.428239
vt 0.476644 0.425229
vt 0.476644 0.421875
vt 0.473406 0.419795
vt 0.459295 0.420232
vt 0.466356 0.421874
vt 0.463118 0.419795
vt 0.469583 0.420233
vt 0.561071 0.087411
vt 0.561046 0.090668
vt 0.570171 0.093557
vt 0.570196 0.090281
vt 0.577439 0.094733
vt 0.577439 0.091108
vt 0.590392 0.087026
vt 0.590417 0.090283
vt 0.575692 0.087483
vt 0.575692 0.091108
vt 0.590313 0.094733
vt 0.577535 0.087026
vt 0.590313 0.087484
vt 0.590313 0.091108
vt 0.580840 0.173947
vt 0.583426 0.173931
vt 0.582800 0.159241
vt 0.575182 0.173931
vt 0.575202 0.171209
vt 0.574235 0.158708
vt 0.574339 0.182142
vt 0.582696 0.159241
vt 0.574235 0.182142
vt 0.572489 0.174458
vt 0.580284 0.171929
vt 0.572425 0.171929
vt 0.680818 0.874908
vt 0.672889 0.879314
vt 0.672889 0.862245
vt 0.669979 0.874857
vt 0.669979 0.857788
vt 0.677908 0.857788
vt 0.680818 0.857839
vt 0.677908 0.874857
vt 0.680769 0.873418
vt 0.680818 0.863684
vt 0.680769 0.863633
vt 0.568381 0.094895
vt 0.583090 0.093702
vt 0.583003 0.094895
vt 0.555505 0.087264
vt 0.584837 0.086877
vt 0.584750 0.087321
vt 0.570128 0.087321
vt 0.575737 0.093702
vt 0.574036 0.086653
vt 0.579095 0.095563
vt 0.588764 0.086266
vt 0.571853 0.094295
vt 0.579163 0.094295
vt 0.564474 0.095563
vt 0.588657 0.086653
vt 0.559388 0.086653
vt 0.471341 0.428676
vt 0.466356 0.425228
s 0
g door_1_Material
usemtl Material
f 96/1/1 73/2/1 97/3/1
f 86/4/2 66/5/2 67/6/2
f 102/7/3 79/8/3 103/9/3
f 133/10/4 107/11/4 110/12/4
f 54/13/5 6/14/5 58/15/5
f 72/16/4 80/17/4 73/18/4
f 121/19/2 96/20/2 97/21/2
f 110/22/3 83/23/3 86/24/3
f 67/25/1 89/26/1 92/27/1
f 56/28/5 219/29/5 23/29/5
f 128/30/2 102/31/2 103/32/2
f 89/33/4 115/34/4 92/35/4
f 16/36/6 47/37/6 13/38/6
f 3/39/6 55/40/6 45/41/6
f 10/42/5 49/43/5 50/44/5
f 5/45/3 48/46/3 16/47/3
f 24/48/5 57/49/5 8/50/5
f 136/51/5 233/52/5 52/52/5
f 26/53/5 58/54/5 5/55/5
f 24/48/5 214/56/5 56/56/5
f 45/57/6 22/58/6 4/59/6
f 4/60/1 49/61/1 45/62/1
f 49/63/5 9/64/5 50/65/5
f 6/66/3 48/67/3 58/68/3
f 39/69/6 262/70/6 18/70/6
f 119/71/2 242/72/2 24/72/2
f 15/73/6 47/74/6 48/75/6
f 46/76/6 20/77/6 2/78/6
f 7/79/1 47/80/1 57/81/1
f 56/28/5 7/82/5 57/83/5
f 50/84/3 1/85/3 46/86/3
f 2/87/3 50/88/3 46/89/3
f 8/90/1 47/91/1 14/92/1
f 49/93/1 3/94/1 45/95/1
f 51/96/6 218/97/6 135/97/6
f 1/98/6 53/99/6 46/100/6
f 53/101/6 226/77/6 20/77/6
f 84/102/2 13/103/2 65/104/2
f 119/71/2 8/105/2 95/106/2
f 93/107/4 21/108/4 3/109/4
f 91/110/4 117/111/4 94/112/4
f 108/113/4 26/114/4 5/115/4
f 25/116/2 106/117/2 6/118/2
f 130/119/2 104/120/2 105/121/2
f 118/122/4 244/108/4 21/108/4
f 22/123/2 220/124/2 124/124/2
f 8/90/1 71/125/1 95/126/1
f 3/94/1 70/127/1 93/128/1
f 69/129/1 91/130/1 94/131/1
f 7/132/4 113/133/4 90/134/4
f 2/87/3 87/135/3 10/136/3
f 112/137/3 85/138/3 88/139/3
f 126/140/2 1/141/2 101/142/2
f 22/123/2 100/143/2 4/144/2
f 123/145/2 98/146/2 99/147/2
f 1/85/3 77/148/3 101/149/3
f 76/150/4 9/151/4 12/152/4
f 74/153/4 78/154/4 75/155/4
f 60/156/5 241/157/5 130/157/5
f 2/158/4 136/159/4 111/160/4
f 135/161/4 109/162/4 112/163/4
f 5/45/3 84/164/3 108/165/3
f 6/66/3 82/166/3 15/167/3
f 104/168/3 81/169/3 105/170/3
f 10/171/2 70/172/2 11/173/2
f 88/174/2 68/175/2 69/176/2
f 65/177/1 7/79/1 90/178/1
f 4/60/1 76/179/1 12/180/1
f 98/181/1 75/182/1 99/183/1
f 14/184/4 82/185/4 71/186/4
f 118/187/5 165/188/5 61/188/5
f 61/189/5 170/190/5 124/190/5
f 62/191/6 177/192/6 117/192/6
f 179/178/1 192/193/1 191/177/1
f 123/194/6 166/195/6 62/195/6
f 100/196/5 194/179/5 76/179/5
f 177/131/1 188/127/1 187/129/1
f 90/178/6 191/177/6 65/177/6
f 60/197/5 176/198/5 132/198/5
f 76/150/4 193/155/4 75/155/4
f 199/148/3 183/7/3 184/149/3
f 131/199/6 164/200/6 59/200/6
f 182/170/3 198/166/3 181/201/3
f 195/125/1 172/1/1 171/126/1
f 52/52/5 174/51/5 136/51/5
f 117/111/4 93/107/4 94/112/4
f 143/202/4 274/203/4 144/203/4
f 113/133/4 89/33/4 90/134/4
f 105/121/2 129/204/2 130/119/2
f 103/32/2 127/205/2 128/30/2
f 101/142/2 125/206/2 126/140/2
f 193/182/1 170/196/1 169/183/1
f 135/97/6 162/96/6 51/96/6
f 69/176/2 87/207/2 88/174/2
f 67/6/2 85/208/2 86/4/2
f 65/104/2 83/209/2 84/102/2
f 105/121/2 181/117/2 106/117/2
f 99/147/2 124/124/2 123/145/2
f 97/21/2 122/210/2 121/19/2
f 95/106/2 120/211/2 119/71/2
f 75/182/6 169/183/6 99/183/6
f 112/163/4 136/159/4 135/161/4
f 137/212/4 261/213/4 283/212/4
f 108/113/4 132/214/4 131/215/4
f 70/127/5 178/128/5 93/128/5
f 69/176/2 188/172/2 70/172/2
f 95/106/2 172/20/2 96/20/2
f 94/131/6 187/129/6 69/129/6
f 78/154/4 76/150/4 75/155/4
f 80/17/4 74/153/4 73/18/4
f 82/185/4 72/16/4 71/186/4
f 156/216/6 269/217/6 38/217/6
f 145/218/6 254/219/6 40/219/6
f 31/220/5 252/221/5 36/221/5
f 159/222/5 258/223/5 41/223/5
f 141/224/6 256/225/6 34/225/6
f 152/226/2 284/227/2 149/227/2
f 40/228/6 255/229/6 28/229/6
f 137/212/4 282/230/4 140/230/4
f 19/231/6 225/99/6 53/99/6
f 23/232/4 243/133/4 113/133/4
f 130/119/2 240/205/2 127/205/2
f 135/161/4 217/233/4 134/233/4
f 59/200/6 231/199/6 131/199/6
f 133/10/4 238/214/4 132/214/4
f 116/234/4 237/111/4 117/111/4
f 132/198/5 213/197/5 60/197/5
f 114/235/4 203/34/4 115/34/4
f 62/195/6 201/194/6 123/194/6
f 117/192/6 212/191/6 62/191/6
f 124/190/5 208/189/5 61/189/5
f 61/188/5 209/187/5 118/187/5
f 121/19/2 236/211/2 120/211/2
f 128/30/2 227/206/2 125/206/2
f 123/145/2 202/210/2 122/210/2
f 113/236/6 210/237/6 63/237/6
f 126/140/2 205/238/2 19/238/2
f 55/239/6 221/58/6 22/58/6
f 63/240/6 211/241/6 119/241/6
f 64/242/5 204/243/5 114/243/5
f 20/244/4 232/159/4 136/159/4
f 125/245/6 228/246/6 51/246/6
f 120/247/5 229/248/5 64/248/5
f 52/249/5 206/250/5 126/250/5
f 26/53/5 216/251/5 54/251/5
f 21/252/6 235/40/6 55/40/6
f 131/215/4 224/114/4 26/114/4
f 54/13/5 223/253/5 25/253/5
f 129/254/6 215/255/6 59/255/6
f 25/116/2 222/204/2 129/204/2
f 169/194/1 165/189/1 166/195/1
f 171/241/1 167/248/1 168/240/1
f 173/97/3 161/52/3 162/96/3
f 175/199/3 163/197/3 164/200/3
f 166/191/1 178/187/1 177/192/1
f 168/237/1 180/243/1 179/236/1
f 162/246/3 184/250/3 183/245/3
f 181/254/3 163/156/3 182/157/3
f 190/164/3 176/256/3 175/165/3
f 186/139/3 174/257/3 173/137/3
f 63/237/6 179/236/6 113/236/6
f 119/241/6 168/240/6 63/240/6
f 114/243/5 167/242/5 64/242/5
f 51/246/6 183/245/6 125/245/6
f 64/248/5 172/247/5 120/247/5
f 126/250/5 161/249/5 52/249/5
f 59/255/6 181/254/6 129/254/6
f 130/157/5 163/156/5 60/156/5
f 66/193/5 180/26/5 89/26/5
f 110/22/4 134/233/4 133/10/4
f 83/209/2 190/102/2 84/102/2
f 202/210/2 121/19/2 122/210/2
f 71/125/6 171/126/6 95/126/6
f 65/104/2 192/5/2 66/5/2
f 72/16/4 195/186/4 71/186/4
f 96/1/5 196/258/5 72/258/5
f 112/163/4 174/160/4 111/160/4
f 101/142/2 183/31/2 102/31/2
f 88/139/6 173/137/6 112/137/6
f 111/257/5 185/135/5 87/135/5
f 137/212/3 217/259/3 138/213/3
f 93/107/4 177/112/4 94/112/4
f 108/113/4 176/11/4 107/11/4
f 81/169/5 182/170/5 105/170/5
f 84/164/6 175/165/6 108/165/6
f 82/185/4 197/260/4 81/260/4
f 107/256/5 189/23/5 83/23/5
f 133/10/4 217/233/4 239/10/4
f 106/201/6 198/166/6 82/166/6
f 99/147/2 170/143/2 100/143/2
f 89/33/4 179/134/4 90/134/4
f 77/148/5 184/149/5 101/149/5
f 109/261/3 86/24/3 85/138/3
f 78/154/4 199/262/4 77/262/4
f 87/207/2 186/174/2 88/174/2
f 102/7/6 200/263/6 78/263/6
f 32/264/1 202/265/1 201/194/1
f 146/266/1 203/267/1 204/243/1
f 148/268/3 205/269/3 206/250/3
f 142/270/1 208/188/1 36/271/1
f 28/229/1 210/240/1 40/228/1
f 18/70/3 217/259/3 218/97/3
f 160/272/1 214/273/1 41/274/1
f 31/220/1 221/275/1 153/276/1
f 151/277/3 223/278/3 158/279/3
f 157/280/3 216/281/3 224/282/3
f 155/283/3 225/284/3 38/285/3
f 147/286/3 228/246/3 227/245/3
f 146/266/1 229/242/1 33/287/1
f 139/288/3 215/200/3 43/289/3
f 17/290/3 233/52/3 232/51/3
f 31/220/1 208/189/1 220/190/1
f 27/291/1 234/292/1 30/293/1
f 141/224/1 230/294/1 144/203/1
f 140/230/3 239/295/3 137/212/3
f 152/226/3 240/296/3 241/157/3
f 159/222/1 214/297/1 242/298/1
f 18/70/3 228/96/3 39/69/3
f 32/264/1 212/195/1 34/299/1
f 145/218/1 219/300/1 160/272/1
f 28/229/1 242/298/1 211/241/1
f 142/270/1 244/301/1 209/187/1
f 147/286/3 207/302/3 150/303/3
f 158/279/3 216/304/3 44/305/3
f 140/230/3 213/197/3 238/198/3
f 27/291/1 229/248/1 236/247/1
f 152/226/3 213/156/3 42/306/3
f 154/307/1 235/308/1 244/301/1
f 141/224/1 212/191/1 237/192/1
f 145/218/1 210/237/1 243/236/1
f 156/216/3 225/309/3 205/269/3
f 17/290/3 226/310/3 155/283/3
f 139/288/3 224/282/3 231/199/3
f 148/268/3 233/249/3 37/311/3
f 151/277/3 215/255/3 222/254/3
f 153/276/1 235/312/1 35/313/1
f 259/314/3 267/315/3 260/316/3
f 259/317/3 268/318/3 275/319/3
f 269/320/3 276/321/3 270/322/3
f 288/323/1 252/324/1 279/325/1
f 287/326/1 258/327/1 254/328/1
f 254/329/1 286/330/1 255/331/1
f 269/332/3 250/333/3 277/334/3
f 279/335/1 264/336/1 265/337/1
f 155/283/4 276/290/4 17/290/4
f 80/338/3 103/32/3 79/8/3
f 139/288/4 268/280/4 157/280/4
f 18/70/4 261/213/4 138/213/4
f 37/311/5 250/268/5 148/268/5
f 41/274/5 263/272/5 160/272/5
f 151/277/6 259/339/6 43/339/6
f 34/299/6 245/264/6 32/264/6
f 153/276/2 264/220/2 31/220/2
f 35/313/6 265/276/6 153/276/6
f 160/272/4 287/218/4 145/218/4
f 158/279/2 266/277/2 151/277/2
f 28/229/2 286/222/2 159/222/2
f 157/280/5 260/340/5 44/340/5
f 142/270/4 288/307/4 154/307/4
f 38/285/6 270/283/6 155/283/6
f 150/303/2 271/286/2 147/286/2
f 44/305/5 267/279/5 158/279/5
f 147/286/6 272/341/6 39/341/6
f 140/230/5 257/342/5 42/342/5
f 146/266/5 273/287/5 248/266/5
f 97/3/1 74/343/1 98/181/1
f 67/25/1 91/130/1 68/344/1
f 32/264/2 246/345/2 29/345/2
f 33/346/5 280/291/5 273/346/5
f 146/266/4 247/202/4 143/202/4
f 43/289/6 275/288/6 139/288/6
f 148/268/2 249/216/2 156/216/2
f 115/34/4 91/110/4 92/35/4
f 230/294/4 115/34/4 203/267/4
f 230/294/1 143/202/1 144/203/1
f 42/306/5 285/226/5 152/226/5
f 17/290/5 277/347/5 37/347/5
f 36/271/5 253/270/5 142/270/5
f 154/307/6 279/348/6 35/348/6
f 30/293/2 280/291/2 27/291/2
f 144/203/4 281/224/4 141/224/4
f 30/293/1 202/265/1 29/345/1
f 30/293/2 246/345/2 278/293/2
f 240/296/3 150/303/3 207/302/3
f 251/303/2 149/227/2 284/227/2
f 207/302/2 127/205/2 240/296/2
f 246/349/1 256/350/1 291/351/1
f 291/351/1 278/352/1 246/349/1
f 248/353/1 290/354/1 247/355/1
f 282/356/3 292/357/3 257/358/3
f 289/359/3 283/360/3 261/361/3
f 272/362/3 251/363/3 289/359/3
f 273/364/1 278/352/1 290/354/1
f 291/351/1 281/365/1 274/366/1
f 290/354/1 274/366/1 247/355/1
f 292/357/3 251/363/3 284/367/3
f 289/359/3 262/368/3 272/362/3
f 257/358/3 284/367/3 285/369/3
f 310/370/7 303/371/7 314/372/7
f 318/373/8 304/374/8 322/375/8
f 302/376/9 327/377/9 328/378/9
f 301/379/10 334/380/10 341/381/10
f 311/382/11 308/383/11 315/384/11
f 319/385/12 307/386/12 323/387/12
f 317/388/13 305/389/13 321/390/13
f 309/391/14 301/392/14 313/393/14
f 312/394/15 306/395/15 316/396/15
f 320/397/16 302/398/16 324/399/16
f 312/394/17 305/400/17 297/401/17
f 309/391/18 302/376/18 294/402/18
f 311/382/19 307/403/19 299/404/19
f 306/395/20 339/405/20 316/396/20
f 306/406/21 333/407/21 340/408/21
f 310/370/22 304/409/22 296/410/22
f 308/383/23 337/411/23 315/384/23
f 305/389/24 331/412/24 321/390/24
f 320/397/25 308/413/25 300/414/25
f 317/388/26 303/415/26 295/416/26
f 319/385/27 301/379/27 293/417/27
f 305/400/28 339/405/28 342/418/28
f 302/398/29 336/419/29 324/399/29
f 318/373/30 306/406/30 298/420/30
f 339/405/31 356/421/31 342/418/31
f 333/407/32 344/422/32 347/423/32
f 337/411/33 349/424/33 335/425/33
f 336/419/34 352/426/34 338/427/34
f 331/412/35 346/428/35 332/429/35
f 329/430/36 346/431/36 343/432/36
f 334/380/37 355/433/37 341/381/37
f 329/430/38 344/434/38 330/435/38
f 308/413/39 336/419/39 338/427/39
f 304/409/40 329/430/40 330/435/40
f 303/415/41 331/412/41 332/429/41
f 301/392/42 327/377/42 313/393/42
f 304/374/43 333/407/43 322/375/43
f 303/371/44 329/430/44 314/372/44
f 307/386/45 334/380/45 323/387/45
f 307/403/46 337/411/46 335/425/46
f 358/436/1 346/437/1 345/438/1
f 357/439/3 325/440/3 326/441/3
f 357/439/3 355/442/3 348/443/3
f 344/444/1 358/436/1 347/445/1
f 354/446/1 358/436/1 353/447/1
f 349/448/3 357/439/3 348/443/3
f 352/449/3 357/439/3 351/450/3
f 358/436/1 356/451/1 353/447/1
f 334/380/47 349/452/47 348/453/47
f 336/419/48 325/454/48 350/455/48
f 337/411/49 352/456/49 351/457/49
f 331/412/50 356/458/50 345/459/50
f 339/405/51 354/460/51 353/461/51
f 327/377/52 325/462/52 328/378/52
f 333/407/53 354/463/53 340/408/53
f 327/377/54 355/464/54 326/465/54
f 96/1/1 72/258/1 73/2/1
f 86/4/2 83/209/2 66/5/2
f 102/7/3 78/263/3 79/8/3
f 133/10/4 132/214/4 107/11/4
f 54/13/5 25/253/5 6/14/5
f 72/16/4 81/260/4 80/17/4
f 121/19/2 120/211/2 96/20/2
f 110/22/3 107/256/3 83/23/3
f 67/25/1 66/193/1 89/26/1
f 56/28/5 214/28/5 219/29/5
f 128/30/2 125/206/2 102/31/2
f 89/33/4 114/235/4 115/34/4
f 16/36/6 48/466/6 47/37/6
f 3/39/6 21/252/6 55/40/6
f 10/42/5 11/467/5 49/43/5
f 5/45/3 58/468/3 48/46/3
f 24/48/5 56/56/5 57/49/5
f 136/51/5 232/51/5 233/52/5
f 26/53/5 54/251/5 58/54/5
f 24/48/5 242/48/5 214/56/5
f 45/57/6 55/239/6 22/58/6
f 4/60/1 12/180/1 49/61/1
f 49/63/5 12/469/5 9/64/5
f 6/66/3 15/167/3 48/67/3
f 39/69/6 272/69/6 262/70/6
f 119/71/2 211/71/2 242/72/2
f 15/73/6 14/470/6 47/74/6
f 46/76/6 53/101/6 20/77/6
f 7/79/1 13/471/1 47/80/1
f 56/28/5 23/29/5 7/82/5
f 50/84/3 9/472/3 1/85/3
f 2/87/3 10/136/3 50/88/3
f 8/90/1 57/473/1 47/91/1
f 49/93/1 11/474/1 3/94/1
f 51/96/6 228/96/6 218/97/6
f 1/98/6 19/231/6 53/99/6
f 53/101/6 225/101/6 226/77/6
f 84/102/55 16/475/55 13/103/55
f 119/71/2 24/72/2 8/105/2
f 93/107/4 118/122/4 21/108/4
f 91/110/4 116/234/4 117/111/4
f 108/113/4 131/215/4 26/114/4
f 25/116/2 129/204/2 106/117/2
f 130/119/2 127/205/2 104/120/2
f 118/122/4 209/122/4 244/108/4
f 22/123/2 221/123/2 220/124/2
f 8/90/1 14/92/1 71/125/1
f 3/94/1 11/474/1 70/127/1
f 69/129/1 68/344/1 91/130/1
f 7/132/4 23/232/4 113/133/4
f 2/87/3 111/257/3 87/135/3
f 112/137/3 109/261/3 85/138/3
f 126/140/2 19/238/2 1/141/2
f 22/123/2 124/124/2 100/143/2
f 123/145/2 122/210/2 98/146/2
f 1/85/3 9/472/3 77/148/3
f 76/150/4 77/262/4 9/151/4
f 74/153/4 79/476/4 78/154/4
f 60/156/5 213/156/5 241/157/5
f 2/158/4 20/244/4 136/159/4
f 135/161/4 134/233/4 109/162/4
f 5/45/3 16/47/3 84/164/3
f 6/66/3 106/201/3 82/166/3
f 104/168/3 80/338/3 81/169/3
f 10/171/2 87/207/2 70/172/2
f 88/174/2 85/208/2 68/175/2
f 65/177/1 13/471/1 7/79/1
f 4/60/1 100/196/1 76/179/1
f 98/181/1 74/343/1 75/182/1
f 14/184/56 15/477/56 82/185/56
f 118/187/5 178/187/5 165/188/5
f 61/189/5 165/189/5 170/190/5
f 62/191/6 166/191/6 177/192/6
f 179/178/1 180/26/1 192/193/1
f 123/194/6 169/194/6 166/195/6
f 100/196/5 170/196/5 194/179/5
f 177/131/1 178/128/1 188/127/1
f 90/178/6 179/178/6 191/177/6
f 60/197/5 163/197/5 176/198/5
f 76/150/4 194/150/4 193/155/4
f 199/148/3 200/263/3 183/7/3
f 131/199/6 175/199/6 164/200/6
f 182/170/3 197/169/3 198/166/3
f 195/125/1 196/258/1 172/1/1
f 52/52/5 161/52/5 174/51/5
f 117/111/4 118/122/4 93/107/4
f 143/202/4 247/202/4 274/203/4
f 113/133/4 114/235/4 89/33/4
f 105/121/2 106/117/2 129/204/2
f 103/32/2 104/120/2 127/205/2
f 101/142/2 102/31/2 125/206/2
f 193/182/1 194/179/1 170/196/1
f 135/97/6 173/97/6 162/96/6
f 69/176/2 70/172/2 87/207/2
f 67/6/2 68/175/2 85/208/2
f 65/104/2 66/5/2 83/209/2
f 105/121/2 182/121/2 181/117/2
f 99/147/2 100/143/2 124/124/2
f 97/21/2 98/146/2 122/210/2
f 95/106/2 96/20/2 120/211/2
f 75/182/6 193/182/6 169/183/6
f 112/163/4 111/160/4 136/159/4
f 137/212/4 138/213/4 261/213/4
f 108/113/4 107/11/4 132/214/4
f 70/127/5 188/127/5 178/128/5
f 69/176/2 187/176/2 188/172/2
f 95/106/2 171/106/2 172/20/2
f 94/131/6 177/131/6 187/129/6
f 78/154/4 77/262/4 76/150/4
f 80/17/4 79/476/4 74/153/4
f 82/185/4 81/260/4 72/16/4
f 156/216/6 249/216/6 269/217/6
f 145/218/6 287/218/6 254/219/6
f 31/220/5 264/220/5 252/221/5
f 159/222/5 286/222/5 258/223/5
f 141/224/6 281/224/6 256/225/6
f 152/226/2 285/226/2 284/227/2
f 40/228/6 254/228/6 255/229/6
f 137/212/4 283/212/4 282/230/4
f 19/231/6 205/231/6 225/99/6
f 23/232/4 219/232/4 243/133/4
f 130/119/2 241/119/2 240/205/2
f 135/161/4 218/161/4 217/233/4
f 59/200/6 215/200/6 231/199/6
f 133/10/4 239/10/4 238/214/4
f 116/234/4 230/234/4 237/111/4
f 132/198/5 238/198/5 213/197/5
f 114/235/4 204/235/4 203/34/4
f 62/195/6 212/195/6 201/194/6
f 117/192/6 237/192/6 212/191/6
f 124/190/5 220/190/5 208/189/5
f 61/188/5 208/188/5 209/187/5
f 121/19/2 234/19/2 236/211/2
f 128/30/2 207/30/2 227/206/2
f 123/145/2 201/145/2 202/210/2
f 113/236/6 243/236/6 210/237/6
f 126/140/2 206/140/2 205/238/2
f 55/239/6 235/239/6 221/58/6
f 63/240/6 210/240/6 211/241/6
f 64/242/5 229/242/5 204/243/5
f 20/244/4 226/244/4 232/159/4
f 125/245/6 227/245/6 228/246/6
f 120/247/5 236/247/5 229/248/5
f 52/249/5 233/249/5 206/250/5
f 26/53/5 224/53/5 216/251/5
f 21/252/6 244/252/6 235/40/6
f 131/215/4 231/215/4 224/114/4
f 54/13/5 216/13/5 223/253/5
f 129/254/6 222/254/6 215/255/6
f 25/116/2 223/116/2 222/204/2
f 169/194/1 170/190/1 165/189/1
f 171/241/1 172/247/1 167/248/1
f 173/97/3 174/51/3 161/52/3
f 175/199/3 176/198/3 163/197/3
f 166/191/1 165/188/1 178/187/1
f 168/237/1 167/242/1 180/243/1
f 162/246/3 161/249/3 184/250/3
f 181/254/3 164/255/3 163/156/3
f 190/164/3 189/23/3 176/256/3
f 186/139/3 185/135/3 174/257/3
f 63/237/6 168/237/6 179/236/6
f 119/241/6 171/241/6 168/240/6
f 114/243/5 180/243/5 167/242/5
f 51/246/6 162/246/6 183/245/6
f 64/248/5 167/248/5 172/247/5
f 126/250/5 184/250/5 161/249/5
f 59/255/6 164/255/6 181/254/6
f 130/157/5 182/157/5 163/156/5
f 66/193/5 192/193/5 180/26/5
f 110/22/4 109/162/4 134/233/4
f 83/209/2 189/209/2 190/102/2
f 202/210/2 234/19/2 121/19/2
f 71/125/6 195/125/6 171/126/6
f 65/104/2 191/104/2 192/5/2
f 72/16/4 196/16/4 195/186/4
f 96/1/5 172/1/5 196/258/5
f 112/163/4 173/163/4 174/160/4
f 101/142/2 184/142/2 183/31/2
f 88/139/6 186/139/6 173/137/6
f 111/257/5 174/257/5 185/135/5
f 137/212/3 239/10/3 217/259/3
f 93/107/4 178/107/4 177/112/4
f 108/113/4 175/113/4 176/11/4
f 81/169/5 197/169/5 182/170/5
f 84/164/6 190/164/6 175/165/6
f 82/185/4 198/185/4 197/260/4
f 107/256/5 176/256/5 189/23/5
f 133/10/4 134/233/4 217/233/4
f 106/201/6 181/201/6 198/166/6
f 99/147/2 169/147/2 170/143/2
f 89/33/4 180/33/4 179/134/4
f 77/148/5 199/148/5 184/149/5
f 109/261/3 110/22/3 86/24/3
f 78/154/4 200/154/4 199/262/4
f 87/207/2 185/207/2 186/174/2
f 102/7/6 183/7/6 200/263/6
f 32/264/1 29/345/1 202/265/1
f 146/266/1 143/202/1 203/267/1
f 148/268/3 156/216/3 205/269/3
f 142/270/1 209/187/1 208/188/1
f 28/229/1 211/241/1 210/240/1
f 18/70/3 138/213/3 217/259/3
f 160/272/1 219/300/1 214/273/1
f 31/220/1 220/190/1 221/275/1
f 151/277/3 222/254/3 223/278/3
f 157/280/3 44/340/3 216/281/3
f 155/283/3 226/310/3 225/284/3
f 147/286/3 39/341/3 228/246/3
f 146/266/1 204/243/1 229/242/1
f 139/288/3 231/199/3 215/200/3
f 17/290/3 37/347/3 233/52/3
f 31/220/1 36/221/1 208/189/1
f 27/291/1 236/247/1 234/292/1
f 141/224/1 237/192/1 230/294/1
f 140/230/3 238/198/3 239/295/3
f 152/226/3 149/227/3 240/296/3
f 159/222/1 41/223/1 214/297/1
f 18/70/3 218/97/3 228/96/3
f 32/264/1 201/194/1 212/195/1
f 145/218/1 243/236/1 219/300/1
f 28/229/1 159/222/1 242/298/1
f 142/270/1 154/307/1 244/301/1
f 147/286/3 227/245/3 207/302/3
f 158/279/3 223/278/3 216/304/3
f 140/230/3 42/342/3 213/197/3
f 27/291/1 33/346/1 229/248/1
f 152/226/3 241/157/3 213/156/3
f 154/307/1 35/348/1 235/308/1
f 141/224/1 34/225/1 212/191/1
f 145/218/1 40/219/1 210/237/1
f 156/216/3 38/217/3 225/309/3
f 17/290/3 232/51/3 226/310/3
f 139/288/3 157/280/3 224/282/3
f 148/268/3 206/250/3 233/249/3
f 151/277/3 43/339/3 215/255/3
f 153/276/1 221/275/1 235/312/1
f 259/314/3 266/478/3 267/315/3
f 259/317/3 260/479/3 268/318/3
f 269/320/3 277/480/3 276/321/3
f 288/323/1 253/481/1 252/324/1
f 287/326/1 263/482/1 258/327/1
f 254/329/1 258/483/1 286/330/1
f 269/332/3 249/484/3 250/333/3
f 279/335/1 252/485/1 264/336/1
f 155/283/4 270/283/4 276/290/4
f 80/338/3 104/168/3 103/32/3
f 139/288/4 275/288/4 268/280/4
f 18/70/4 262/70/4 261/213/4
f 37/311/5 277/311/5 250/268/5
f 41/274/5 258/274/5 263/272/5
f 151/277/6 266/277/6 259/339/6
f 34/299/6 256/299/6 245/264/6
f 153/276/2 265/276/2 264/220/2
f 35/313/6 279/313/6 265/276/6
f 160/272/4 263/272/4 287/218/4
f 158/279/2 267/279/2 266/277/2
f 28/229/2 255/229/2 286/222/2
f 157/280/5 268/280/5 260/340/5
f 142/270/4 253/270/4 288/307/4
f 38/285/6 269/285/6 270/283/6
f 150/303/2 251/303/2 271/286/2
f 44/305/5 260/305/5 267/279/5
f 147/286/6 271/286/6 272/341/6
f 140/230/5 282/230/5 257/342/5
f 146/266/5 33/287/5 273/287/5
f 97/3/1 73/18/1 74/343/1
f 67/25/1 92/35/1 91/130/1
f 32/264/2 245/264/2 246/345/2
f 33/346/5 27/291/5 280/291/5
f 146/266/4 248/266/4 247/202/4
f 43/289/6 259/289/6 275/288/6
f 148/268/2 250/268/2 249/216/2
f 115/34/4 116/234/4 91/110/4
f 230/294/4 116/234/4 115/34/4
f 230/294/1 203/267/1 143/202/1
f 42/306/5 257/306/5 285/226/5
f 17/290/5 276/290/5 277/347/5
f 36/271/5 252/271/5 253/270/5
f 154/307/6 288/307/6 279/348/6
f 30/293/2 278/293/2 280/291/2
f 144/203/4 274/203/4 281/224/4
f 30/293/1 234/19/1 202/265/1
f 30/293/2 29/345/2 246/345/2
f 240/296/3 149/227/3 150/303/3
f 251/303/2 150/303/2 149/227/2
f 207/302/2 128/30/2 127/205/2
f 246/349/1 245/486/1 256/350/1
f 291/351/1 290/354/1 278/352/1
f 248/353/1 273/364/1 290/354/1
f 282/356/3 283/360/3 292/357/3
f 289/359/3 292/357/3 283/360/3
f 272/362/3 271/487/3 251/363/3
f 273/364/1 280/488/1 278/352/1
f 291/351/1 256/350/1 281/365/1
f 290/354/1 291/351/1 274/366/1
f 292/357/3 289/359/3 251/363/3
f 289/359/3 261/361/3 262/368/3
f 257/358/3 292/357/3 284/367/3
f 310/370/57 295/489/57 303/371/57
f 318/373/8 296/490/8 304/374/8
f 302/376/9 313/393/9 327/377/9
f 301/379/10 323/387/10 334/380/10
f 311/382/58 300/491/58 308/383/58
f 319/385/12 299/492/12 307/386/12
f 317/388/59 297/493/59 305/389/59
f 309/391/60 293/494/60 301/392/60
f 312/394/61 298/495/61 306/395/61
f 320/397/16 294/496/16 302/398/16
f 312/394/62 316/396/62 305/400/62
f 309/391/63 313/393/63 302/376/63
f 311/382/64 315/384/64 307/403/64
f 306/395/20 340/497/20 339/405/20
f 306/406/21 322/375/21 333/407/21
f 310/370/65 314/372/65 304/409/65
f 308/383/23 338/498/23 337/411/23
f 305/389/66 342/499/66 331/412/66
f 320/397/25 324/399/25 308/413/25
f 317/388/67 321/390/67 303/415/67
f 319/385/68 323/387/68 301/379/68
f 305/400/69 316/396/69 339/405/69
f 302/398/70 328/500/70 336/419/70
f 318/373/71 322/375/71 306/406/71
f 339/405/31 353/461/31 356/421/31
f 333/407/32 330/501/32 344/422/32
f 337/411/33 351/457/33 349/424/33
f 336/419/34 350/455/34 352/426/34
f 331/412/35 345/459/35 346/428/35
f 329/430/36 332/502/36 346/431/36
f 334/380/37 348/453/37 355/433/37
f 329/430/38 343/432/38 344/434/38
f 308/413/39 324/399/39 336/419/39
f 304/409/40 314/372/40 329/430/40
f 303/415/72 321/390/72 331/412/72
f 301/392/42 341/503/42 327/377/42
f 304/374/43 330/501/43 333/407/43
f 303/371/44 332/502/44 329/430/44
f 307/386/45 335/504/45 334/380/45
f 307/403/73 315/384/73 337/411/73
f 358/436/1 343/505/1 346/437/1
f 357/439/3 350/506/3 325/440/3
f 357/439/3 326/441/3 355/442/3
f 344/444/1 343/505/1 358/436/1
f 354/446/1 347/445/1 358/436/1
f 349/448/3 351/450/3 357/439/3
f 352/449/3 350/506/3 357/439/3
f 358/436/1 345/438/1 356/451/1
f 334/380/47 335/504/47 349/452/47
f 336/419/48 328/500/48 325/454/48
f 337/411/49 338/498/49 352/456/49
f 331/412/74 342/499/74 356/458/74
f 339/405/51 340/497/51 354/460/51
f 327/377/52 326/465/52 325/462/52
f 333/407/53 347/423/53 354/463/53
f 327/377/54 341/503/54 355/464/54
