# Blender 4.2.1 LTS
# www.blender.org
mtllib face_mask_3.mtl
g face_mask_3_Mesh
v -0.083487 -0.006855 -0.028875
v -0.075149 0.000150 -0.025617
v 0.066644 -0.006855 0.051726
v 0.058306 0.000150 0.048467
v 0.066644 -0.006855 -0.028875
v 0.058306 0.000150 -0.025617
v 0.029190 -0.002338 -0.040082
v -0.008421 0.000095 -0.046597
v -0.046032 -0.002338 -0.040082
v -0.044809 0.005087 -0.033682
v -0.008421 0.007445 -0.039986
v 0.027966 0.005087 -0.033682
v -0.036254 0.000095 0.064919
v 0.029190 -0.002338 0.062933
v 0.027966 0.005087 0.056533
v -0.024890 0.007445 0.059378
v -0.081693 -0.001356 -0.014423
v -0.074633 0.004649 -0.014893
v 0.059663 -0.001356 0.031345
v 0.059663 -0.001356 -0.008495
v 0.052603 0.004649 -0.008964
v 0.052603 0.004649 0.031815
v 0.029190 0.009761 -0.011562
v 0.029190 0.009761 0.034413
v -0.009014 0.012194 -0.020201
v -0.003728 0.010620 0.042343
v -0.046032 0.009761 -0.011562
v -0.068349 0.000449 -0.000020
v -0.067576 0.006476 -0.000998
v 0.049201 0.000449 0.011425
v 0.048633 0.006476 0.011425
v 0.029190 0.011309 0.011425
v 0.001987 0.013743 0.002433
v -0.029415 0.011309 -0.004994
v -0.082030 0.001629 -0.014537
v -0.083844 -0.003886 -0.029048
v 0.029548 0.003576 -0.040574
v 0.067001 -0.003886 -0.029048
v 0.060000 0.001629 0.031459
v 0.067001 -0.003886 0.051899
v -0.046391 0.003576 -0.040574
v -0.008421 0.006033 -0.047151
v 0.029548 0.003576 0.063424
v -0.036254 0.006033 0.065472
v -0.076577 0.005084 -0.001866
v 0.060000 0.001629 -0.008608
v 0.055917 0.005047 0.011425
v -0.081306 0.004987 -0.013185
v -0.083988 -0.001228 -0.030336
v 0.029432 0.005073 -0.040404
v 0.067145 -0.001228 -0.030336
v 0.059275 0.004987 0.030107
v 0.067145 -0.001228 0.053187
v -0.046275 0.005073 -0.040404
v -0.008421 0.007524 -0.046930
v 0.029432 0.005073 0.063254
v -0.036254 0.007524 0.065252
v -0.076706 0.006661 -0.002391
v 0.059275 0.004987 -0.007256
v 0.055628 0.006550 0.011425
v -0.074973 0.006162 -0.015069
v -0.075493 0.001643 -0.025912
v 0.028209 0.006595 -0.034004
v 0.058650 0.001643 -0.025912
v 0.052942 0.006162 0.031990
v 0.058650 0.001643 0.048762
v -0.045052 0.006595 -0.034004
v -0.008421 0.008969 -0.040319
v 0.028209 0.006595 0.056854
v -0.024890 0.008969 0.059711
v -0.071455 0.008082 -0.004116
v 0.052942 0.006162 -0.009140
v 0.048952 0.008004 0.011425
v -0.083780 -0.005564 -0.029019
v 0.066938 -0.005564 -0.029019
v 0.066938 -0.005564 0.051870
v 0.029498 0.000623 0.063355
v -0.036254 0.003076 0.065395
v -0.046341 0.000623 -0.040505
v -0.008421 0.003076 -0.047073
v 0.029498 0.000623 -0.040505
v 0.059976 0.000436 -0.008594
v 0.059976 0.000436 0.031445
v -0.082007 0.000436 -0.014523
v -0.075957 0.001883 -0.001160
v 0.055832 0.002092 0.011425
v -0.081608 0.003484 -0.013186
v -0.084361 -0.002770 -0.030437
v -0.084260 -0.005715 -0.030381
v -0.083644 -0.008625 -0.030041
v 0.067418 -0.005715 -0.030381
v 0.066801 -0.008625 -0.030041
v 0.053142 -0.001352 -0.008805
v 0.059578 0.003484 0.030108
v 0.067518 -0.002770 0.053287
v 0.067418 -0.005715 0.053232
v 0.066801 -0.008625 0.052892
v -0.075172 -0.001352 -0.014734
v 0.053142 -0.001352 0.031656
v 0.067518 -0.002770 -0.030437
v 0.059578 0.003484 -0.007257
v 0.059488 0.000530 -0.007232
v 0.059488 0.000530 0.030083
v -0.081519 0.000530 -0.013161
v 0.066516 -0.001981 0.050362
v 0.028120 0.005677 0.053742
v -0.024890 0.008044 0.056159
v -0.024890 0.002190 0.055895
v 0.028139 -0.000173 0.053463
v 0.058012 -0.005187 0.045873
v 0.057586 0.000718 0.046366
v 0.066152 -0.000443 0.050275
v 0.057930 0.002213 0.046646
v 0.066059 -0.004807 0.049293
v 0.066118 -0.003190 0.049320
v 0.065763 -0.006161 0.049154
v -0.083523 -0.002110 -0.027990
v 0.058178 -0.005320 -0.023509
v -0.075021 -0.005320 -0.023509
v 0.066680 -0.002110 -0.027990
v 0.028095 0.005580 -0.031348
v -0.008421 0.007946 -0.037293
v -0.044938 0.005580 -0.031348
v -0.046032 -0.001685 -0.037073
v -0.008421 0.000749 -0.043207
v 0.029190 -0.001685 -0.037073
v -0.074547 0.000625 -0.023859
v 0.057704 0.000625 -0.023859
v -0.083157 -0.000572 -0.027901
v 0.066315 -0.000572 -0.027901
v -0.074891 0.002120 -0.024142
v 0.058048 0.002120 -0.024142
v 0.066203 -0.004931 -0.026864
v -0.083046 -0.004931 -0.026864
v -0.083105 -0.003304 -0.026891
v 0.065907 -0.006275 -0.026725
v -0.082750 -0.006275 -0.026725
v 0.066263 -0.003304 -0.026891
v 0.093352 -0.007608 0.030468
v 0.096651 -0.007986 0.030908
v -0.107805 -0.007651 -0.015295
v -0.110203 -0.007988 -0.016676
v -0.121846 -0.008714 0.012455
v -0.124326 -0.008939 0.013568
v -0.125130 -0.007986 0.013411
v -0.125761 -0.006767 0.013474
v -0.109012 -0.006579 -0.015478
v -0.110801 -0.006768 -0.016891
v -0.109383 -0.008942 -0.016633
v 0.095714 -0.007988 -0.003951
v 0.095108 -0.008942 -0.004504
v 0.092852 -0.008754 -0.004785
v 0.094581 -0.006541 0.030390
v 0.097276 -0.006767 0.030800
v 0.095918 -0.008939 0.031275
v 0.096288 -0.006768 -0.003676
v -0.122040 -0.007608 0.012297
v -0.123274 -0.006541 0.012358
v 0.093230 -0.008714 0.030866
v 0.092839 -0.007651 -0.004173
v -0.107599 -0.008754 -0.015224
v 0.094025 -0.006579 -0.003958
v 0.085886 -0.007899 -0.018476
v 0.086366 -0.006776 -0.018788
v 0.085150 -0.007514 -0.016326
v 0.085007 -0.006291 -0.016677
v 0.085852 -0.004941 -0.016899
v 0.086591 -0.005327 -0.019055
v 0.085922 -0.005326 0.042388
v 0.085588 -0.006775 0.042290
v 0.083761 -0.004865 0.040726
v 0.085016 -0.007897 0.042294
v 0.082841 -0.006208 0.040642
v 0.082861 -0.007437 0.040637
v -0.093176 -0.006291 -0.018335
v -0.093246 -0.007514 -0.018063
v -0.094288 -0.007899 -0.020083
v -0.094024 -0.004941 -0.018528
v -0.095070 -0.005327 -0.020554
v -0.094809 -0.006776 -0.020322
v 0.097209 -0.007658 0.015468
v 0.099909 -0.007943 0.015545
v -0.116482 -0.007640 -0.006505
v -0.119158 -0.007971 -0.006727
v -0.116350 -0.008667 -0.006413
v -0.118383 -0.008858 -0.006647
v -0.119746 -0.006837 -0.006793
v -0.117706 -0.006645 -0.006558
v 0.099357 -0.008705 0.015521
v 0.097319 -0.008540 0.015440
v 0.098360 -0.006803 0.015485
v 0.100403 -0.006968 0.015566
v -0.082814 -0.007971 -0.027618
v -0.080966 -0.002430 -0.013009
v -0.074458 -0.000881 -0.000020
v 0.065808 -0.007843 0.049995
v 0.058936 -0.002430 0.029931
v 0.055309 -0.000881 0.011425
v 0.058936 -0.002430 -0.007081
v 0.029190 -0.001557 0.059334
v -0.030325 0.000877 0.062183
v 0.065971 -0.007971 -0.027618
v 0.028128 -0.000300 -0.031204
v -0.044970 -0.000300 -0.031204
v -0.008421 0.002064 -0.037165
v -0.042339 0.001196 -0.028184
v -0.043329 0.005044 -0.009968
v -0.030397 0.006486 0.002771
v -0.008421 0.003391 -0.033682
v -0.009014 0.007305 -0.018387
v -0.006116 0.008746 0.009934
v -0.003728 0.007305 0.040512
v 0.025496 0.001196 -0.028184
v 0.026487 0.005044 -0.009968
v 0.026482 0.006486 0.011417
v 0.026487 0.005044 0.032801
v -0.070716 0.000218 -0.013360
v 0.048686 0.000218 -0.007432
v 0.048686 0.000219 0.030265
v 0.045055 0.001891 0.011417
v -0.064203 0.001891 -0.000029
v -0.020279 0.003508 0.052199
v 0.025507 0.001312 0.050472
v -0.070170 -0.003457 -0.021087
v 0.053174 -0.003334 0.043471
v 0.053328 -0.003457 -0.021087
v 0.028282 0.007535 -0.031998
v 0.027538 0.010485 -0.014007
v 0.026293 0.013281 0.014260
v 0.028811 0.010036 0.032424
v -0.007341 0.009911 -0.035986
v -0.009904 0.012932 -0.023677
v -0.005035 0.015724 0.011855
v -0.005169 0.012479 0.041130
v -0.044970 0.007535 -0.031792
v -0.045719 0.010485 -0.014522
v 0.052604 0.005362 -0.010537
v 0.052819 0.004909 0.030903
v -0.074840 0.005362 -0.016003
v 0.047769 0.008433 0.012146
v 0.057911 0.002565 -0.024049
v -0.074754 0.002565 -0.024049
v -0.064838 -0.005482 -0.035062
v -0.065376 0.000403 -0.035505
v -0.060333 0.007205 -0.013228
v -0.057710 0.008893 -0.003927
v -0.059979 0.002618 -0.029650
v -0.065132 0.001923 -0.035370
v -0.060272 0.004119 -0.029958
v -0.065301 -0.002546 -0.035443
v -0.059742 0.003102 -0.027604
v -0.064423 -0.004828 -0.032346
v -0.059996 -0.002810 -0.027357
v -0.057023 0.002631 -0.011664
v -0.055329 0.004189 -0.001882
v -0.056255 -0.001131 -0.024635
v -0.060280 0.007924 -0.015262
v -0.059862 0.005050 -0.027920
vn 0.2537 -0.0268 -0.9669
vn -0.6863 -0.0080 -0.7273
vn -0.2149 -0.9544 -0.2073
vn 0.2086 0.9598 0.1879
vn 0.0531 0.9764 0.2092
vn -0.0457 -0.9301 -0.3646
vn 0.2537 -0.0268 0.9669
vn 0.0301 -0.0238 0.9993
vn -0.2537 -0.0268 -0.9669
vn -0.1690 -0.0258 -0.9853
vn 0.1690 -0.0258 -0.9853
vn -0.0590 -0.9138 -0.4019
vn 0.1180 -0.9269 0.3562
vn 0.2252 -0.9366 0.2684
vn -0.3286 -0.9443 -0.0205
vn -0.2249 -0.9368 0.2679
vn 0.2126 0.8906 -0.4021
vn -0.2028 0.9249 0.3215
vn 0.0946 0.3805 -0.9199
vn 0.2221 0.9707 0.0920
vn -0.9943 -0.1036 0.0253
vn -1.0000 -0.0000 -0.0000
vn -0.1260 0.5965 -0.7926
vn 0.3283 -0.9436 -0.0420
vn -0.2845 -0.9456 0.1577
vn 0.9435 -0.0288 0.3301
vn 0.9805 -0.0282 -0.1945
vn -0.9009 -0.0802 0.4265
vn 0.9805 -0.0282 0.1945
vn -0.3267 -0.9449 0.0205
vn -0.2645 0.9592 -0.0995
vn 0.2178 0.9749 -0.0450
vn 0.1108 0.9916 -0.0668
vn -0.0691 0.9970 -0.0346
vn -0.2254 -0.9365 -0.2685
vn -0.2840 -0.9457 -0.1579
vn 0.6053 0.6893 -0.3981
vn -0.9078 0.1825 0.3777
vn 0.9672 0.1858 0.1733
vn -0.0429 0.2148 -0.9757
vn -0.2135 0.2366 -0.9479
vn 0.0355 0.1461 0.9886
vn -0.1528 0.2108 0.9655
vn 0.9412 0.2076 -0.2664
vn 0.2759 0.1294 0.9524
vn 0.1517 0.2293 0.9615
vn -0.2298 0.9565 -0.1795
vn 0.2063 0.9601 -0.1888
vn 0.2298 0.9565 0.1795
vn -0.2126 0.9570 -0.1974
vn -0.0996 0.9722 -0.2120
vn 0.0996 0.9721 -0.2125
vn 0.2147 0.9545 0.2070
vn 0.0554 0.9737 0.2208
vn -0.2838 0.9558 -0.0764
vn 0.2300 0.9566 -0.1791
vn 0.2125 0.9761 0.0462
vn 0.1948 0.9798 -0.0440
vn -0.9233 0.1452 -0.3555
vn -0.2758 0.1290 -0.9525
vn -0.9582 0.2000 0.2045
vn 0.9415 0.2082 0.2650
vn -0.9727 0.2288 0.0393
vn 0.9233 0.1452 -0.3555
vn -0.1772 0.1439 -0.9736
vn 0.9656 0.1942 -0.1730
vn -0.2135 0.2364 0.9479
vn 0.1772 0.1245 -0.9763
vn -0.9601 0.1920 -0.2035
vn -0.9233 0.1456 0.3555
vn 0.2758 0.1286 -0.9526
vn 0.2135 0.2365 0.9479
vn 0.9644 -0.1695 0.2032
vn -0.8472 -0.2713 0.4569
vn 0.9644 -0.1695 -0.2032
vn 0.9186 -0.1651 0.3592
vn 0.1588 -0.1556 -0.9750
vn -0.1588 -0.1556 -0.9750
vn -0.2294 -0.1608 -0.9600
vn 0.0241 -0.1575 0.9872
vn 0.2294 -0.1608 0.9600
vn 0.6790 -0.2577 0.6874
vn 0.2294 -0.1608 -0.9600
vn 0.1850 0.0981 0.9778
vn -0.9684 -0.1909 0.1605
vn -0.9214 -0.1536 0.3570
vn 0.9231 -0.1717 0.3442
vn 0.9214 -0.1536 0.3570
vn 0.9436 -0.0259 -0.3302
vn 0.9214 -0.1536 -0.3571
vn -0.9214 -0.1536 0.3571
vn 0.9436 -0.0259 0.3302
vn 0.9284 -0.1433 -0.3427
vn -0.9285 -0.1433 0.3427
vn -0.9417 -0.0299 0.3350
vn 0.9417 -0.0299 -0.3351
vn 0.9409 -0.0146 0.3383
vn -0.9436 -0.0259 0.3302
vn 0.9214 -0.1536 -0.3570
vn 0.9187 -0.1644 -0.3590
vn 0.1839 0.9824 0.0333
vn -0.9193 0.1650 0.3573
vn 0.2307 0.9564 0.1792
vn 0.9409 0.2102 -0.2656
vn -0.2717 -0.9592 0.0783
vn -0.1174 -0.9280 0.3537
vn 0.0761 0.9747 0.2101
vn 0.1780 -0.8837 0.4329
vn 0.9435 -0.0286 -0.3300
vn 0.9436 -0.0260 0.3302
vn -0.9163 -0.3384 0.2140
vn -0.9436 -0.0260 0.3302
vn -0.9672 -0.1962 0.1615
vn 0.6677 -0.2813 0.6892
vn 0.9743 0.2090 -0.0843
vn -0.9409 0.2102 0.2656
vn 0.9438 0.1898 0.2707
vn -0.9245 0.1434 -0.3532
vn 0.2299 0.9566 -0.1792
vn -0.2794 0.8761 -0.3928
vn 0.7277 -0.4540 -0.5142
vn -0.2149 -0.9544 0.2073
vn -0.2111 0.9564 -0.2019
vn 0.2082 0.9598 -0.1880
vn 0.0974 0.9727 -0.2109
vn -0.0950 0.9787 -0.1822
vn 0.2143 -0.9566 0.1975
vn 0.0974 -0.9726 0.2112
vn -0.0959 -0.9774 0.1885
vn -0.9945 -0.0347 0.0988
vn -0.4559 0.0316 -0.8895
vn -0.1177 -0.9857 -0.1203
vn -0.1335 -0.9825 0.1299
vn 0.4574 -0.2005 -0.8664
vn -0.3940 0.3836 0.8352
vn -0.4569 0.1905 0.8689
vn 0.1733 0.9642 -0.2008
vn 0.4424 -0.2284 -0.8672
vn -0.6351 0.6069 0.4779
vn -0.8435 0.0553 0.5343
vn 0.0771 -0.9964 0.0357
vn 0.1752 0.2460 0.9533
vn 0.0777 0.9960 0.0443
vn -0.1318 0.9841 -0.1192
vn -0.5908 0.4468 -0.6718
vn -0.1959 -0.2626 -0.9448
vn -0.0851 -0.9963 0.0100
vn -0.2081 -0.2222 -0.9525
vn 0.8160 -0.2247 -0.5325
vn 0.4335 -0.1603 0.8868
vn 0.1868 0.9627 0.1958
vn 0.4347 -0.2180 0.8738
vn -0.4461 -0.0033 -0.8950
vn -0.5378 -0.4064 -0.7386
vn -0.6000 -0.0367 -0.7991
vn -0.2067 0.9752 -0.0789
vn 0.6408 0.0365 0.7669
vn 0.2363 -0.9555 0.1769
vn 0.6210 0.1360 0.7719
vn -0.8528 -0.4566 -0.2533
vn 0.9486 0.1471 0.2802
vn -0.6874 -0.3918 -0.6115
vn -0.5916 0.7938 0.1411
vn -0.0628 0.9966 -0.0538
vn 0.6479 0.7385 0.1866
vn 0.9040 -0.3811 -0.1936
vn 0.5237 0.6778 0.5161
vn -0.6066 -0.5789 -0.5450
vn -0.6525 0.7384 -0.1702
vn 0.8747 -0.4477 0.1855
vn 0.8740 -0.4514 -0.1801
vn -0.0869 -0.9958 0.0297
vn 0.0837 -0.9930 0.0838
vn -0.1060 0.9938 -0.0349
vn 0.0830 0.9965 0.0035
vn 0.0810 0.9967 -0.0069
vn -0.0794 -0.9963 -0.0321
vn 0.7958 -0.5821 0.1671
vn 0.6994 0.1753 0.6929
vn 0.0908 -0.9956 0.0240
vn -0.9666 0.0147 -0.2560
vn -0.7257 -0.6532 -0.2159
vn -0.9681 -0.1278 0.2154
vn 0.1399 -0.9315 0.3356
vn -0.2313 -0.9563 -0.1788
vn -0.2125 -0.9761 0.0455
vn 0.1892 -0.9817 0.0222
vn -0.1954 -0.9798 -0.0437
vn -0.0514 -0.9678 -0.2465
vn -0.2090 -0.9595 -0.1887
vn -0.2311 -0.9563 0.1789
vn -0.2161 -0.9544 0.2060
vn 0.2110 -0.9568 0.1998
vn 0.0974 -0.9725 0.2116
vn -0.0974 -0.9724 0.2119
vn -0.1018 -0.9647 0.2429
vn -0.0848 -0.9956 -0.0403
vn 0.1158 -0.9705 0.2114
vn 0.1323 -0.9499 0.2833
vn -0.2137 -0.9534 0.2131
vn -0.2396 -0.9687 -0.0652
vn -0.2396 -0.9687 0.0652
vn 0.1566 -0.9792 0.1287
vn 0.0747 -0.9965 0.0369
vn -0.0773 -0.9953 0.0585
vn -0.0586 -0.9220 -0.3826
vn -0.2141 -0.9533 -0.2132
vn -0.0892 0.9629 -0.2549
vn 0.1046 0.9821 -0.1567
vn 0.0639 0.9839 0.1669
vn 0.1964 0.9726 -0.1242
vn 0.2147 0.9687 0.1242
vn -0.2166 0.9505 -0.2229
vn -0.0086 0.9715 0.2370
vn -0.7642 -0.6407 -0.0745
vn -0.2213 -0.1698 -0.9603
vn 0.8877 0.4191 0.1908
vn 0.0111 0.9787 0.2048
vn 0.2248 -0.1183 -0.9672
vn 0.1839 -0.9559 -0.2291
vn 0.2320 0.6512 0.7226
vn 0.0841 -0.3217 -0.9431
vn 0.1748 0.9699 0.1695
vn -0.4497 0.1905 -0.8726
vn -0.5039 0.1361 -0.8529
vn -0.5532 0.1525 -0.8190
vn -0.4136 -0.0460 -0.9093
vn -0.9962 -0.0419 0.0758
vn -0.1674 0.8943 0.4149
vn 0.0005 0.3988 0.9170
vn -0.0358 0.1645 0.9857
vn 0.3449 0.2670 0.8999
vn -0.1781 0.7669 0.6166
vn -0.1235 0.1910 0.9738
vn 0.1915 0.3358 0.9223
vn -0.2109 -0.2199 -0.9524
vn -0.2058 0.9631 -0.1735
vn 0.1684 -0.9848 0.0413
vn 0.1041 -0.8953 0.4332
vn 0.2086 -0.9596 0.1887
vn 0.2103 -0.9596 0.1869
vn -0.2119 0.9537 -0.2132
vn 0.2135 0.2366 0.9479
vn -0.2759 0.1294 -0.9524
vn -0.2147 0.9545 -0.2070
vn -0.0858 0.9962 -0.0179
vn -0.1714 0.8139 0.5552
vn 0.2253 -0.9364 0.2690
vn -0.6968 -0.1734 -0.6960
vn -0.2122 -0.9593 -0.1862
vn 0.2119 0.9537 0.2132
vn 0.0536 0.9817 0.1827
vn -0.0501 -0.9760 -0.2120
vn 0.0301 -0.0262 0.9992
vn -0.0591 -0.9147 -0.3998
vn 0.1174 -0.9280 0.3537
vn 0.2249 -0.9368 0.2679
vn -0.3267 -0.9449 -0.0205
vn -0.2253 -0.9364 0.2690
vn 0.0878 0.9860 -0.1419
vn -0.1798 0.9597 0.2160
vn 0.1535 0.8778 -0.4537
vn 0.2173 0.9239 0.3149
vn -0.9818 -0.1765 0.0698
vn -0.6311 0.0349 -0.7749
vn -0.1427 -0.2216 -0.9646
vn 0.3444 -0.9378 -0.0449
vn -0.2847 -0.9456 0.1577
vn 0.9447 -0.0148 0.3276
vn -0.9122 -0.0243 0.4089
vn -0.3286 -0.9442 0.0205
vn -0.1710 0.9844 -0.0426
vn 0.2407 0.9684 -0.0652
vn 0.0881 0.9900 -0.1105
vn -0.0756 0.9962 -0.0435
vn -0.2250 -0.9370 -0.2673
vn -0.2838 -0.9458 -0.1579
vn 0.9291 0.1705 -0.3283
vn -0.9216 0.0523 0.3846
vn 0.9656 0.1942 0.1730
vn -0.0430 0.2131 -0.9761
vn -0.2135 0.2364 -0.9479
vn 0.0352 0.1153 0.9927
vn -0.1517 0.2293 0.9615
vn 0.9438 0.1898 -0.2707
vn 0.2758 0.1286 0.9526
vn 0.1528 0.2108 0.9655
vn -0.2299 0.9566 -0.1792
vn 0.2147 0.9545 -0.2070
vn 0.2299 0.9566 0.1792
vn -0.2063 0.9601 -0.1888
vn -0.0996 0.9721 -0.2125
vn 0.0996 0.9722 -0.2120
vn 0.2063 0.9601 0.1888
vn 0.0454 0.9400 0.3382
vn -0.2009 0.9774 -0.0660
vn 0.2307 0.9564 -0.1792
vn 0.1948 0.9798 0.0440
vn 0.2125 0.9761 -0.0462
vn -0.9193 0.1650 -0.3573
vn -0.2758 0.1286 -0.9526
vn -0.9601 0.1920 0.2035
vn 0.9409 0.2102 0.2656
vn -0.9792 0.1970 0.0488
vn 0.9245 0.1434 -0.3533
vn -0.1772 0.1245 -0.9763
vn 0.9672 0.1858 -0.1733
vn -0.2135 0.2366 0.9479
vn 0.1772 0.1439 -0.9736
vn -0.9582 0.2000 -0.2045
vn -0.9245 0.1434 0.3533
vn 0.2759 0.1294 -0.9524
vn 0.2135 0.2364 0.9479
vn -0.8915 -0.1443 0.4294
vn 0.9235 -0.1417 0.3564
vn 0.0253 -0.1437 0.9893
vn 0.6550 -0.3310 0.6793
vn 0.1810 0.2036 0.9622
vn -0.9818 0.1805 0.0588
vn -0.9231 -0.1717 0.3442
vn 0.9214 -0.1536 0.3571
vn 0.9436 -0.0260 -0.3302
vn 0.9231 -0.1717 -0.3442
vn 0.9284 -0.1433 0.3427
vn 0.9417 -0.0299 0.3351
vn 0.9409 -0.0146 -0.3383
vn -0.9409 -0.0146 0.3383
vn 0.9235 -0.1417 -0.3564
vn 0.0890 0.9954 -0.0365
vn -0.9232 0.1456 0.3555
vn 0.2300 0.9566 0.1791
vn 0.9416 0.2078 -0.2651
vn -0.0806 -0.9965 -0.0212
vn -0.1180 -0.9269 0.3562
vn 0.0550 0.9630 0.2638
vn 0.2309 0.9493 0.2133
vn 0.1414 -0.9011 0.4099
vn 0.9447 -0.0148 -0.3276
vn -0.9897 -0.0361 0.1388
vn -0.9749 -0.1620 0.1526
vn 0.6906 -0.2064 0.6932
vn 0.9745 0.2082 -0.0841
vn -0.9415 0.2082 0.2650
vn 0.9412 0.2080 0.2663
vn 0.2298 0.9565 -0.1795
vn -0.1519 0.9308 -0.3325
vn 0.8190 -0.2117 -0.5333
vn -0.2119 -0.9594 0.1863
vn -0.2064 0.9601 -0.1887
vn 0.2119 0.9537 -0.2132
vn 0.0950 0.9787 -0.1822
vn -0.0974 0.9727 -0.2109
vn 0.2149 -0.9544 0.2073
vn 0.0959 -0.9774 0.1885
vn -0.0974 -0.9726 0.2112
vn -0.9954 -0.0186 0.0941
vn -0.3899 0.3210 -0.8631
vn -0.1722 -0.9643 -0.2012
vn -0.1629 -0.9652 0.2046
vn 0.4069 -0.4020 -0.8203
vn -0.4743 0.0323 0.8798
vn -0.4564 0.1963 0.8679
vn 0.1460 0.9813 -0.1254
vn 0.4523 -0.0327 -0.8913
vn -0.6984 0.5182 0.4937
vn -0.8098 -0.2916 0.5091
vn 0.1109 -0.9853 0.1303
vn 0.1532 0.3314 0.9310
vn 0.2983 0.9520 -0.0680
vn -0.0944 0.9954 -0.0137
vn -0.5262 0.5585 -0.6413
vn -0.2119 -0.1912 -0.9584
vn -0.1700 -0.9841 -0.0519
vn -0.1943 -0.2895 -0.9373
vn 0.8059 -0.2588 -0.5324
vn 0.4550 -0.0328 0.8899
vn 0.1285 0.9860 0.1063
vn 0.4388 -0.1974 0.8766
vn -0.4379 0.1855 -0.8797
vn -0.6024 -0.2224 -0.7665
vn -0.5870 -0.2298 -0.7763
vn -0.2516 0.9526 -0.1709
vn 0.5088 0.4265 0.7478
vn 0.1887 -0.9780 0.0887
vn 0.6123 0.2135 0.7613
vn -0.8640 -0.4341 -0.2550
vn 0.9397 0.2045 0.2742
vn -0.6699 -0.4344 -0.6021
vn -0.6778 0.7196 0.1511
vn -0.0855 0.9940 -0.0689
vn 0.6155 0.7672 0.1806
vn 0.8768 -0.4407 -0.1921
vn 0.5259 0.6750 0.5176
vn -0.6191 -0.5572 -0.5533
vn -0.5867 0.7932 -0.1627
vn 0.8810 -0.4352 0.1856
vn 0.8005 -0.5745 -0.1709
vn -0.0818 -0.9962 0.0292
vn 0.0546 -0.9964 0.0641
vn -0.0899 0.9954 -0.0320
vn 0.0806 0.9967 0.0033
vn 0.0842 0.9964 -0.0073
vn -0.0787 -0.9964 -0.0321
vn 0.8116 -0.5593 0.1689
vn 0.7035 0.1525 0.6942
vn 0.1020 -0.9944 0.0260
vn -0.9625 -0.1122 -0.2471
vn -0.7282 -0.6503 -0.2164
vn -0.9678 -0.1303 0.2152
vn 0.2812 -0.8726 0.3994
vn -0.2312 -0.9563 -0.1788
vn -0.1953 -0.9798 0.0437
vn 0.2127 -0.9769 0.0209
vn -0.2125 -0.9761 -0.0455
vn -0.0535 -0.9740 -0.2200
vn -0.2163 -0.9544 -0.2058
vn -0.2310 -0.9564 0.1789
vn -0.2086 -0.9596 0.1887
vn 0.2161 -0.9544 0.2060
vn 0.0974 -0.9724 0.2119
vn -0.0974 -0.9725 0.2116
vn -0.1119 -0.9710 0.2112
vn -0.0660 -0.9956 -0.0671
vn 0.1029 -0.9627 0.2503
vn 0.2137 -0.9534 0.2131
vn -0.2286 -0.9568 0.1798
vn -0.2171 -0.9751 -0.0447
vn -0.2171 -0.9751 0.0447
vn 0.0873 -0.9959 0.0241
vn 0.0802 -0.9959 0.0425
vn -0.0721 -0.9951 0.0670
vn -0.1265 -0.9691 -0.2117
vn -0.2285 -0.9568 -0.1798
vn -0.1108 0.9788 -0.1720
vn 0.0894 0.9714 -0.2198
vn 0.0993 0.9889 0.1101
vn 0.2178 0.9645 -0.1492
vn 0.2311 0.9628 0.1400
vn -0.1477 0.9337 -0.3261
vn -0.0129 0.9775 0.2106
vn -0.4284 -0.8940 -0.1313
vn -0.2248 -0.1183 -0.9672
vn 0.9246 -0.0620 0.3760
vn -0.0038 0.9581 0.2865
vn 0.1935 -0.3262 -0.9253
vn 0.8875 0.4412 -0.1332
vn 0.0563 0.9904 0.1263
vn 0.1712 0.4787 -0.8611
vn 0.1512 0.9002 0.4084
vn -0.4560 -0.1301 -0.8804
vn -0.4747 0.0230 -0.8798
vn -0.5891 0.3908 -0.7073
vn -0.7393 0.3721 -0.5613
vn -0.5315 0.8470 -0.0098
vn -0.2239 0.8403 0.4937
vn -0.1720 0.8464 0.5041
vn -0.0560 0.1668 0.9844
vn 0.3866 0.1965 0.9011
vn 0.3544 0.3610 0.8626
vn -0.5255 -0.3130 0.7911
vn 0.2147 0.3244 0.9212
vn -0.1777 0.2911 0.9400
vn 0.0766 0.4298 0.8997
vn -0.2149 -0.1696 -0.9618
vn -0.1578 0.9618 -0.2236
vn 0.2698 -0.9571 0.1056
vn 0.2280 -0.9314 0.2836
vn 0.2141 -0.9567 0.1970
vn -0.2759 0.1290 -0.9525
vn -0.2090 0.9571 -0.2007
vn -0.1594 0.9783 -0.1326
vn 0.2251 -0.9366 0.2686
vt 0.189073 0.174189
vt 0.188505 0.179943
vt 0.188022 0.179925
vt 0.446413 0.487146
vt 0.446153 0.489441
vt 0.446186 0.487169
vt 0.183726 0.175575
vt 0.184792 0.182740
vt 0.183061 0.175562
vt 0.200221 0.174380
vt 0.199512 0.180138
vt 0.199113 0.180020
vt 0.200139 0.164386
vt 0.200741 0.174326
vt 0.183528 0.164356
vt 0.183061 0.163235
vt 0.199187 0.177228
vt 0.199309 0.169824
vt 0.199734 0.177262
vt 0.198762 0.169780
vt 0.199732 0.157589
vt 0.189031 0.158797
vt 0.189073 0.162023
vt 0.188547 0.158807
vt 0.189557 0.162016
vt 0.189482 0.168331
vt 0.189557 0.174199
vt 0.184817 0.175397
vt 0.185306 0.166276
vt 0.185376 0.174906
vt 0.202019 0.169014
vt 0.200554 0.162600
vt 0.201155 0.162136
vt 0.200003 0.159987
vt 0.200558 0.159314
vt 0.192567 0.179583
vt 0.189038 0.179383
vt 0.192576 0.178791
vt 0.200705 0.175868
vt 0.198691 0.180574
vt 0.200136 0.175343
vt 0.190363 0.169941
vt 0.192834 0.174387
vt 0.192320 0.174973
vt 0.187214 0.161093
vt 0.186361 0.158468
vt 0.186738 0.158442
vt 0.192631 0.178473
vt 0.192493 0.178656
vt 0.196352 0.179206
vt 0.196251 0.174697
vt 0.196627 0.174750
vt 0.194257 0.176805
vt 0.194468 0.175163
vt 0.194606 0.176691
vt 0.189154 0.174141
vt 0.190255 0.174131
vt 0.189271 0.174268
vt 0.196325 0.166674
vt 0.196252 0.160621
vt 0.196646 0.166802
vt 0.195439 0.157563
vt 0.197959 0.157195
vt 0.195397 0.158329
vt 0.196361 0.180452
vt 0.199139 0.181515
vt 0.197115 0.172578
vt 0.196434 0.169085
vt 0.197421 0.172572
vt 0.196137 0.165287
vt 0.195862 0.161806
vt 0.196418 0.161811
vt 0.195171 0.163918
vt 0.194891 0.166362
vt 0.194547 0.163905
vt 0.195862 0.168830
vt 0.196418 0.168825
vt 0.196111 0.179593
vt 0.143305 0.205668
vt 0.145522 0.204188
vt 0.145089 0.206055
vt 0.144562 0.222443
vt 0.149061 0.225882
vt 0.145262 0.226847
vt 0.146931 0.217167
vt 0.148887 0.222199
vt 0.142558 0.215341
vt 0.145196 0.211362
vt 0.186577 0.180185
vt 0.186120 0.181097
vt 0.188769 0.180226
vt 0.197363 0.174538
vt 0.197243 0.172437
vt 0.197664 0.171976
vt 0.195703 0.166153
vt 0.195433 0.166238
vt 0.195581 0.165287
vt 0.195580 0.168827
vt 0.195299 0.165284
vt 0.189728 0.164432
vt 0.188984 0.174281
vt 0.189444 0.164400
vt 0.190376 0.158481
vt 0.190657 0.158532
vt 0.199185 0.157536
vt 0.198481 0.169738
vt 0.198902 0.157517
vt 0.196218 0.168129
vt 0.196528 0.174694
vt 0.195926 0.168133
vt 0.196577 0.158071
vt 0.196865 0.158058
vt 0.198903 0.177135
vt 0.196528 0.161154
vt 0.196817 0.161195
vt 0.184853 0.155921
vt 0.184420 0.154506
vt 0.185192 0.156021
vt 0.185650 0.181134
vt 0.182773 0.175703
vt 0.183978 0.175426
vt 0.199686 0.180706
vt 0.200002 0.182121
vt 0.199287 0.180579
vt 0.184198 0.158789
vt 0.182323 0.161473
vt 0.183138 0.157921
vt 0.182588 0.168562
vt 0.183543 0.161656
vt 0.181336 0.168609
vt 0.202257 0.175109
vt 0.200551 0.182296
vt 0.201292 0.164893
vt 0.201056 0.174905
vt 0.186921 0.155927
vt 0.189297 0.155525
vt 0.189013 0.156513
vt 0.185982 0.181007
vt 0.189180 0.181123
vt 0.185308 0.182600
vt 0.196527 0.179700
vt 0.192680 0.180320
vt 0.192649 0.179055
vt 0.188796 0.179935
vt 0.200302 0.163943
vt 0.200777 0.161521
vt 0.201059 0.161552
vt 0.188758 0.155633
vt 0.189280 0.158831
vt 0.200302 0.171270
vt 0.199671 0.167402
vt 0.199958 0.167385
vt 0.196889 0.172788
vt 0.196721 0.173232
vt 0.196601 0.172767
vt 0.195346 0.169071
vt 0.195073 0.169176
vt 0.197664 0.176701
vt 0.197376 0.176339
vt 0.197659 0.176363
vt 0.189967 0.168334
vt 0.189803 0.162029
vt 0.190212 0.168326
vt 0.195580 0.161804
vt 0.196817 0.174645
vt 0.197655 0.180061
vt 0.189803 0.174174
vt 0.200017 0.163931
vt 0.201148 0.174580
vt 0.200760 0.174232
vt 0.201041 0.174163
vt 0.188758 0.179879
vt 0.197091 0.158211
vt 0.197379 0.158262
vt 0.196699 0.165283
vt 0.196977 0.168792
vt 0.194336 0.166439
vt 0.193973 0.163750
vt 0.196977 0.161835
vt 0.196772 0.169064
vt 0.197675 0.172544
vt 0.188993 0.168316
vt 0.188586 0.174126
vt 0.188586 0.162058
vt 0.188065 0.158869
vt 0.199851 0.169833
vt 0.200273 0.157657
vt 0.200273 0.177210
vt 0.445915 0.487509
vt 0.446066 0.489778
vt 0.445883 0.489922
vt 0.187544 0.179816
vt 0.448277 0.485413
vt 0.448619 0.488140
vt 0.448411 0.488133
vt 0.195158 0.166580
vt 0.194803 0.169015
vt 0.194244 0.169542
vt 0.194528 0.169796
vt 0.193973 0.169834
vt 0.197782 0.172954
vt 0.197564 0.173244
vt 0.197538 0.172984
vt 0.197994 0.172713
vt 0.196209 0.161556
vt 0.197094 0.158251
vt 0.197782 0.157804
vt 0.197564 0.157527
vt 0.198114 0.157586
vt 0.193977 0.169337
vt 0.194248 0.169101
vt 0.197971 0.158122
vt 0.197654 0.158280
vt 0.197222 0.172989
vt 0.196772 0.161575
vt 0.196434 0.161559
vt 0.194603 0.166676
vt 0.194939 0.166630
vt 0.194799 0.169458
vt 0.194490 0.169525
vt 0.197010 0.173254
vt 0.197222 0.157774
vt 0.197538 0.157779
vt 0.196209 0.169088
vt 0.197010 0.157517
vt 0.197398 0.158256
vt 0.451727 0.481039
vt 0.453335 0.483272
vt 0.451323 0.481344
vt 0.200017 0.171320
vt 0.196203 0.180908
vt 0.196721 0.157532
vt 0.452437 0.480777
vt 0.453695 0.483323
vt 0.452291 0.481177
vt 0.201349 0.168982
vt 0.154348 0.215709
vt 0.156789 0.221606
vt 0.153195 0.221976
vt 0.152920 0.226432
vt 0.155681 0.227247
vt 0.198264 0.156380
vt 0.199452 0.157374
vt 0.198114 0.173175
vt 0.195069 0.169678
vt 0.194503 0.169081
vt 0.445652 0.487562
vt 0.445658 0.490037
vt 0.197081 0.174494
vt 0.195342 0.169571
vt 0.201148 0.161270
vt 0.200867 0.161237
vt 0.184851 0.182775
vt 0.187231 0.154733
vt 0.452146 0.482739
vt 0.451840 0.485321
vt 0.451937 0.482806
vt 0.200353 0.183201
vt 0.201817 0.176112
vt 0.202390 0.176135
vt 0.193361 0.158001
vt 0.194437 0.155275
vt 0.193748 0.158043
vt 0.194104 0.180261
vt 0.193060 0.174544
vt 0.194437 0.180145
vt 0.192618 0.174522
vt 0.191956 0.167661
vt 0.192618 0.160837
vt 0.191447 0.167664
vt 0.202067 0.158471
vt 0.202280 0.161981
vt 0.201546 0.158528
vt 0.202853 0.162004
vt 0.203169 0.169059
vt 0.203813 0.169084
vt 0.446674 0.483741
vt 0.446375 0.483757
vt 0.448661 0.493711
vt 0.451702 0.491709
vt 0.452100 0.492017
vt 0.448746 0.479202
vt 0.450143 0.484480
vt 0.449966 0.487534
vt 0.449900 0.484442
vt 0.451660 0.484890
vt 0.451936 0.488058
vt 0.451660 0.488168
vt 0.452212 0.484926
vt 0.451956 0.484936
vt 0.448045 0.493866
vt 0.451829 0.492429
vt 0.448185 0.494269
vt 0.450455 0.487641
vt 0.450182 0.487614
vt 0.447713 0.483151
vt 0.448067 0.485813
vt 0.447862 0.485905
vt 0.448186 0.483240
vt 0.447964 0.483157
vt 0.449679 0.489812
vt 0.450791 0.487449
vt 0.451210 0.487402
vt 0.448777 0.485472
vt 0.448503 0.485360
vt 0.453220 0.489639
vt 0.453641 0.489589
vt 0.451241 0.489108
vt 0.450070 0.486632
vt 0.451644 0.488975
vt 0.446674 0.487288
vt 0.446361 0.489461
vt 0.450341 0.485547
vt 0.450613 0.488471
vt 0.450379 0.488554
vt 0.453662 0.489921
vt 0.454161 0.490003
vt 0.450612 0.485529
vt 0.450801 0.488338
vt 0.452414 0.482681
vt 0.452021 0.485414
vt 0.445580 0.483782
vt 0.448215 0.479265
vt 0.448045 0.479738
vt 0.445887 0.483776
vt 0.446121 0.487407
vt 0.446121 0.483730
vt 0.450559 0.483180
vt 0.450826 0.485460
vt 0.450248 0.483167
vt 0.451987 0.491486
vt 0.448921 0.483151
vt 0.448622 0.483181
vt 0.449031 0.492165
vt 0.449412 0.492358
vt 0.448366 0.483166
vt 0.451633 0.490025
vt 0.451423 0.486743
vt 0.451633 0.486788
vt 0.451185 0.488419
vt 0.450981 0.484907
vt 0.451171 0.484890
vt 0.450466 0.490477
vt 0.450248 0.490564
vt 0.453824 0.486045
vt 0.454032 0.486037
vt 0.449650 0.486586
vt 0.450092 0.484325
vt 0.451987 0.481289
vt 0.451832 0.481111
vt 0.452250 0.485455
vt 0.452134 0.488990
vt 0.448852 0.488324
vt 0.448703 0.490034
vt 0.450640 0.490352
vt 0.453114 0.483264
vt 0.452414 0.491832
vt 0.452316 0.488986
vt 0.451991 0.488994
vt 0.454114 0.483381
vt 0.454462 0.487083
vt 0.450784 0.485152
vt 0.451082 0.484919
vt 0.449793 0.484091
vt 0.451651 0.480642
vt 0.453837 0.483198
vt 0.454412 0.486024
vt 0.454841 0.487103
vt 0.452186 0.491863
vt 0.448510 0.490039
vt 0.449031 0.481970
vt 0.447713 0.491966
vt 0.448023 0.489537
vt 0.447915 0.492041
vt 0.449211 0.481503
vt 0.451191 0.484815
vt 0.447859 0.489527
vt 0.199960 0.156493
vt 0.197990 0.155291
vt 0.200812 0.155075
vt 0.189071 0.181334
vt 0.185332 0.182562
vt 0.192546 0.180742
vt 0.195493 0.156428
vt 0.184658 0.165401
vt 0.196015 0.181540
vt 0.199895 0.183026
vt 0.198433 0.168751
vt 0.193083 0.169125
vt 0.188638 0.175155
vt 0.187349 0.169416
vt 0.197093 0.162278
vt 0.197526 0.159736
vt 0.196663 0.175393
vt 0.192632 0.175260
vt 0.195661 0.159986
vt 0.194605 0.164623
vt 0.139981 0.208739
vt 0.141900 0.215205
vt 0.139597 0.215831
vt 0.140702 0.222495
vt 0.144090 0.222153
vt 0.148639 0.215739
vt 0.152819 0.221923
vt 0.149401 0.221613
vt 0.144971 0.226858
vt 0.142472 0.228011
vt 0.149198 0.225699
vt 0.152752 0.226481
vt 0.141097 0.203101
vt 0.142928 0.205694
vt 0.140539 0.205920
vt 0.185990 0.168115
vt 0.186666 0.161177
vt 0.187589 0.177539
vt 0.186514 0.171976
vt 0.186827 0.172139
vt 0.195520 0.158108
vt 0.195428 0.155577
vt 0.195840 0.158099
vt 0.193537 0.176666
vt 0.193333 0.173980
vt 0.193537 0.173728
vt 0.187522 0.174927
vt 0.185332 0.167979
vt 0.195930 0.172328
vt 0.195428 0.176860
vt 0.195109 0.176821
vt 0.184002 0.167454
vt 0.184378 0.163752
vt 0.184037 0.167277
vt 0.197780 0.168483
vt 0.197548 0.168212
vt 0.196252 0.172380
vt 0.187994 0.175217
vt 0.188403 0.179632
vt 0.189259 0.176591
vt 0.190096 0.176596
vt 0.190657 0.176578
vt 0.188660 0.169702
vt 0.190005 0.173137
vt 0.190508 0.175379
vt 0.188655 0.178852
vt 0.189516 0.172948
vt 0.189305 0.178578
vt 0.188629 0.164136
vt 0.191658 0.168376
vt 0.191169 0.168777
vt 0.191775 0.163750
vt 0.192148 0.169014
vt 0.190828 0.171319
vt 0.191938 0.170987
vt 0.190764 0.172467
vt 0.451772 0.486957
vt 0.451997 0.487655
vt 0.451562 0.487445
vt 0.192410 0.171534
vt 0.191964 0.172631
vt 0.191341 0.172626
vt 0.190972 0.170525
vt 0.195930 0.160611
vt 0.143233 0.208403
vt 0.201280 0.154939
vt 0.193060 0.160810
vt 0.188022 0.155592
vt 0.187544 0.155680
vt 0.197655 0.155268
vt 0.197941 0.155329
vt 0.183953 0.154368
vt 0.143782 0.208319
vt 0.186262 0.155791
vt 0.186055 0.155758
vt 0.188505 0.155577
vt 0.200741 0.164357
vt 0.192071 0.168513
vt 0.196184 0.179255
vt 0.194257 0.175030
vt 0.142829 0.203017
vt 0.195483 0.163946
vt 0.202257 0.162735
vt 0.197380 0.176679
vt 0.197941 0.179994
vt 0.200867 0.174653
vt 0.156707 0.211612
vt 0.194104 0.155165
vt 0.448499 0.493241
vt 0.448893 0.478799
vt 0.452163 0.488116
vt 0.451690 0.492027
vt 0.450455 0.484464
vt 0.448277 0.485717
vt 0.449277 0.489679
vt 0.446577 0.489669
vt 0.450801 0.483151
vt 0.451608 0.491678
vt 0.451407 0.490001
vt 0.450981 0.488448
vt 0.453007 0.489685
vt 0.450261 0.484486
vt 0.448921 0.490228
vt 0.452009 0.491942
vt 0.449335 0.481404
vt 0.154116 0.215438
vt 0.142623 0.202984
vt 0.186514 0.179498
vt 0.195109 0.155604
vt 0.193174 0.176609
vt 0.184002 0.163641
vt 0.188694 0.179621
vt 0.189540 0.176599
vt 0.189282 0.169630
vt 0.188655 0.171976
vt 0.190048 0.163905
vt 0.190764 0.164350
vt 0.451562 0.486951
vt 0.451997 0.487160
vt 0.451760 0.487565
vt 0.192270 0.172595
s 0
g face_mask_3_Material
usemtl Material
f 81/1/1 100/2/1 91/3/1
f 173/4/2 159/5/2 174/6/2
f 200/7/3 97/8/3 14/9/3
f 106/10/4 4/11/4 111/12/4
f 107/13/5 15/14/5 106/10/5
f 201/15/6 14/9/6 13/16/6
f 95/17/7 77/18/7 96/19/7
f 43/20/8 78/21/8 77/18/8
f 244/22/9 79/23/9 250/24/9
f 41/25/10 80/26/10 79/23/10
f 80/26/11 37/27/11 81/1/11
f 109/28/12 222/29/12 223/30/12
f 205/31/13 206/32/13 204/33/13
f 204/33/14 256/34/14 253/35/14
f 30/36/15 219/37/15 220/38/15
f 203/39/16 226/40/16 213/41/16
f 33/42/17 229/43/17 32/44/17
f 27/45/18 257/46/18 245/47/18
f 32/44/19 240/48/19 31/49/19
f 22/50/20 230/51/20 24/52/20
f 127/53/21 239/54/21 242/55/21
f 107/56/22 108/57/22 16/58/22
f 122/59/23 235/60/23 231/61/23
f 28/62/24 217/63/24 221/64/24
f 93/65/25 226/40/25 118/66/25
f 138/67/26 82/68/26 133/69/26
f 86/70/27 94/71/27 103/72/27
f 45/73/28 104/74/28 85/75/28
f 101/76/29 86/70/29 102/77/29
f 30/36/30 218/78/30 93/65/30
f 245/79/31 29/80/31 246/81/31
f 23/82/32 31/83/32 21/84/32
f 23/82/33 33/85/33 32/86/33
f 25/87/34 34/88/34 33/85/34
f 109/28/35 225/89/35 110/90/35
f 99/91/36 225/89/36 219/37/36
f 18/92/37 71/93/37 29/94/37
f 45/73/38 48/95/38 87/96/38
f 47/97/39 59/98/39 60/99/39
f 15/100/40 70/101/40 69/102/40
f 15/100/41 66/103/41 4/104/41
f 44/105/42 56/106/42 57/107/42
f 11/108/43 63/109/43 68/110/43
f 94/71/44 112/111/44 105/112/44
f 43/20/45 53/113/45 56/106/45
f 11/108/46 67/114/46 10/115/46
f 62/116/47 129/117/47 131/118/47
f 64/119/48 50/120/48 63/121/48
f 66/122/49 112/123/49 113/124/49
f 249/125/50 54/126/50 248/127/50
f 68/128/51 54/126/51 67/129/51
f 68/128/52 50/120/52 55/130/52
f 66/122/53 56/131/53 53/132/53
f 70/133/54 56/131/54 69/134/54
f 61/135/55 58/136/55 71/137/55
f 132/138/56 59/139/56 130/140/56
f 65/141/57 60/142/57 73/143/57
f 72/144/58 60/142/58 59/139/58
f 21/145/59 132/146/59 128/147/59
f 244/22/60 49/148/60 248/149/60
f 22/150/61 73/151/61 31/152/61
f 120/153/62 51/154/62 130/155/62
f 87/96/63 129/156/63 117/157/63
f 2/158/64 131/159/64 127/160/64
f 42/161/65 54/162/65 55/163/65
f 47/97/66 52/164/66 94/71/66
f 12/165/67 64/166/67 63/109/67
f 42/161/68 50/167/68 37/27/68
f 21/145/69 73/151/69 72/168/69
f 4/169/70 113/170/70 111/171/70
f 37/27/71 51/172/71 100/2/71
f 10/115/72 249/173/72 247/174/72
f 102/77/73 198/175/73 199/176/73
f 85/75/74 194/177/74 195/178/74
f 198/175/75 103/72/75 197/179/75
f 133/69/76 20/180/76 136/181/76
f 8/182/77 81/1/77 7/183/77
f 79/23/78 8/182/78 9/184/78
f 250/24/79 9/184/79 243/185/79
f 14/186/80 78/21/80 13/187/80
f 96/19/81 14/186/81 97/188/81
f 170/189/82 155/190/82 140/191/82
f 7/183/83 91/3/83 92/192/83
f 176/193/84 141/194/84 161/195/84
f 35/196/85 117/157/85 135/197/85
f 1/198/86 89/199/86 90/200/86
f 5/201/87 91/202/87 75/203/87
f 20/180/88 202/204/88 136/181/88
f 39/205/89 105/112/89 115/206/89
f 3/207/90 96/208/90 97/209/90
f 1/198/91 193/210/91 137/211/91
f 3/207/90 196/212/90 116/213/90
f 38/214/92 120/153/92 138/67/92
f 20/180/88 102/77/88 199/176/88
f 19/215/93 103/72/93 83/216/93
f 17/217/94 104/74/94 84/218/94
f 36/219/95 89/199/95 74/220/95
f 38/214/92 91/202/92 100/221/92
f 40/222/96 96/208/96 76/223/96
f 46/224/97 102/77/97 82/68/97
f 39/205/89 103/72/89 94/71/89
f 35/196/98 104/74/98 87/96/98
f 19/215/99 196/212/99 197/179/99
f 40/222/89 105/112/89 95/225/89
f 19/215/100 114/226/100 116/213/100
f 169/227/101 153/228/101 171/229/101
f 22/150/102 113/170/102 65/230/102
f 113/124/103 52/231/103 65/141/103
f 105/112/104 53/232/104 95/225/104
f 163/233/105 152/234/105 165/235/105
f 205/31/106 213/41/106 209/236/106
f 26/237/107 106/238/107 24/239/107
f 22/240/4 106/238/4 111/241/4
f 98/242/108 224/243/108 217/63/108
f 83/216/109 115/206/109 114/226/109
f 46/224/110 120/153/110 101/76/110
f 137/211/111 194/177/111 17/217/111
f 5/201/88 202/204/88 92/244/88
f 36/219/112 117/157/112 88/245/112
f 17/217/113 134/246/113 137/211/113
f 169/247/114 140/191/114 154/248/114
f 18/92/115 131/159/115 61/249/115
f 117/157/116 49/250/116 88/245/116
f 101/76/117 130/155/117 59/98/117
f 6/251/118 132/146/118 64/252/118
f 64/119/119 130/140/119 51/253/119
f 131/118/120 48/254/120 61/135/120
f 164/255/121 151/256/121 163/257/121
f 92/258/122 126/259/122 7/260/122
f 247/261/123 127/262/123 251/263/123
f 6/264/124 121/265/124 128/266/124
f 12/267/125 122/268/125 121/265/125
f 10/269/126 122/268/126 11/270/126
f 243/271/127 124/272/127 252/273/127
f 9/274/128 125/275/128 124/272/128
f 7/260/129 125/275/129 8/276/129
f 84/218/130 135/197/130 134/246/130
f 115/277/131 173/4/131 114/278/131
f 3/279/132 174/280/132 172/281/132
f 136/282/133 163/233/133 165/235/133
f 75/283/134 163/284/134 5/285/134
f 138/286/135 166/287/135 167/288/135
f 136/289/136 166/287/136 133/290/136
f 138/291/137 168/292/137 38/293/137
f 75/283/138 168/294/138 164/295/138
f 167/296/139 160/297/139 162/298/139
f 165/299/140 160/297/140 166/300/140
f 177/301/141 161/302/141 149/303/141
f 178/304/142 141/194/142 175/305/142
f 168/292/143 162/306/143 156/307/143
f 179/308/144 147/309/144 178/310/144
f 171/311/145 139/312/145 173/4/145
f 179/313/146 142/314/146 148/315/146
f 172/281/147 159/316/147 155/317/147
f 180/318/148 149/319/148 142/314/148
f 168/320/149 150/321/149 164/255/149
f 40/322/150 170/189/150 169/247/150
f 40/323/151 171/229/151 115/324/151
f 76/325/152 172/326/152 170/189/152
f 116/327/153 173/4/153 174/6/153
f 74/328/154 177/329/154 180/318/154
f 74/328/155 179/313/155 36/330/155
f 135/331/156 179/308/156 178/310/156
f 135/332/157 175/305/157 134/333/157
f 137/334/158 177/301/158 1/335/158
f 137/336/159 175/305/159 176/193/159
f 145/337/160 187/338/160 184/339/160
f 157/340/161 185/341/161 183/342/161
f 148/315/162 184/343/162 187/344/162
f 162/306/163 181/345/163 191/346/163
f 148/347/164 188/348/164 147/309/164
f 157/349/165 188/348/165 158/350/165
f 156/351/166 182/352/166 150/321/166
f 147/353/167 183/354/167 141/194/167
f 142/314/168 186/355/168 184/343/168
f 153/228/169 181/345/169 139/356/169
f 154/357/170 182/352/170 192/358/170
f 150/321/171 189/359/171 151/256/171
f 151/360/172 190/361/172 152/234/172
f 149/303/173 185/362/173 186/363/173
f 158/350/174 187/364/174 146/365/174
f 154/366/175 191/346/175 153/228/175
f 156/307/176 191/346/176 192/367/176
f 155/317/177 190/361/177 189/368/177
f 140/369/178 189/359/178 182/352/178
f 141/194/179 185/370/179 161/195/179
f 143/371/180 186/363/180 185/362/180
f 139/372/181 190/373/181 159/374/181
f 144/375/182 184/376/182 186/363/182
f 160/297/183 190/373/183 181/377/183
f 119/378/184 194/379/184 193/380/184
f 110/90/185 197/381/185 196/382/185
f 93/65/186 198/383/186 30/36/186
f 98/242/187 195/384/187 194/379/187
f 99/91/188 198/383/188 197/381/188
f 108/385/189 200/7/189 201/15/189
f 110/90/190 200/7/190 109/28/190
f 118/66/191 199/386/191 93/65/191
f 118/66/192 126/259/192 202/387/192
f 119/378/193 252/273/193 253/35/193
f 205/31/194 124/272/194 125/275/194
f 205/31/195 126/259/195 203/39/195
f 213/41/196 210/388/196 209/236/196
f 211/389/197 216/390/197 212/391/197
f 206/32/198 210/388/198 207/392/198
f 256/34/199 207/392/199 254/393/199
f 226/40/200 214/394/200 213/41/200
f 220/38/201 216/390/201 215/395/201
f 214/394/202 220/38/202 215/395/202
f 207/392/203 255/396/203 254/393/203
f 210/388/204 208/397/204 207/392/204
f 214/394/205 211/389/205 210/388/205
f 212/391/206 223/30/206 222/29/206
f 216/390/207 225/89/207 223/30/207
f 235/398/208 232/399/208 231/400/208
f 227/401/209 232/399/209 228/402/209
f 233/403/210 230/404/210 229/405/210
f 227/401/211 237/406/211 241/407/211
f 240/408/212 230/404/212 238/409/212
f 242/410/213 257/411/213 258/412/213
f 25/413/214 236/414/214 27/45/214
f 233/415/215 26/416/215 234/417/215
f 251/418/216 242/419/216 258/420/216
f 128/421/217 237/422/217 21/423/217
f 25/413/218 228/424/218 232/425/218
f 121/426/219 241/427/219 128/428/219
f 22/429/220 240/430/220 238/431/220
f 26/432/221 230/51/221 234/433/221
f 121/426/222 231/61/222 227/434/222
f 23/435/223 237/436/223 228/424/223
f 16/58/224 57/437/224 70/101/224
f 78/438/225 16/58/225 13/439/225
f 26/440/226 222/441/226 107/56/226
f 16/58/227 201/442/227 13/439/227
f 26/443/228 211/444/228 212/445/228
f 34/446/229 211/447/229 33/42/229
f 255/448/230 34/449/230 246/450/230
f 28/451/231 29/452/231 195/453/231
f 157/454/232 146/455/232 144/456/232
f 71/457/233 45/458/233 29/452/233
f 85/459/234 29/452/234 45/458/234
f 221/460/235 246/450/235 29/452/235
f 123/461/236 258/420/236 235/60/236
f 258/412/237 236/462/237 235/398/237
f 254/393/238 221/64/238 217/63/238
f 224/243/239 254/393/239 217/63/239
f 253/35/240 124/272/240 204/33/240
f 243/271/241 193/380/241 90/463/241
f 247/261/242 123/464/242 10/269/242
f 89/465/79 243/185/79 90/466/79
f 247/174/243 62/467/243 2/468/243
f 41/25/244 248/149/244 54/162/244
f 62/116/245 248/127/245 49/469/245
f 27/470/246 246/81/246 34/88/246
f 18/471/247 257/46/247 239/472/247
f 253/35/248 224/243/248 119/378/248
f 88/473/9 250/24/9 89/465/9
f 81/1/1 37/27/1 100/2/1
f 173/4/249 139/312/249 159/5/249
f 200/7/250 196/382/250 97/8/250
f 106/10/251 15/14/251 4/11/251
f 107/13/252 16/474/252 15/14/252
f 201/15/253 200/7/253 14/9/253
f 95/17/7 43/20/7 77/18/7
f 43/20/254 44/105/254 78/21/254
f 244/22/9 41/25/9 79/23/9
f 41/25/10 42/161/10 80/26/10
f 80/26/11 42/161/11 37/27/11
f 109/28/255 108/385/255 222/29/255
f 205/31/256 209/236/256 206/32/256
f 204/33/257 206/32/257 256/34/257
f 30/36/258 99/91/258 219/37/258
f 203/39/259 118/66/259 226/40/259
f 33/42/260 233/475/260 229/43/260
f 27/45/261 236/414/261 257/46/261
f 32/44/262 229/43/262 240/48/262
f 22/50/263 238/476/263 230/51/263
f 127/53/264 18/477/264 239/54/264
f 107/56/265 222/441/265 108/57/265
f 122/59/266 123/461/266 235/60/266
f 28/62/267 98/242/267 217/63/267
f 93/65/268 218/78/268 226/40/268
f 138/67/269 46/224/269 82/68/269
f 86/70/27 47/97/27 94/71/27
f 45/73/270 87/96/270 104/74/270
f 101/76/29 47/97/29 86/70/29
f 30/36/271 220/38/271 218/78/271
f 245/79/272 18/478/272 29/80/272
f 23/82/273 32/86/273 31/83/273
f 23/82/274 25/87/274 33/85/274
f 25/87/275 27/470/275 34/88/275
f 109/28/276 223/30/276 225/89/276
f 99/91/277 110/90/277 225/89/277
f 18/92/278 61/249/278 71/93/278
f 45/73/279 58/479/279 48/95/279
f 47/97/280 101/76/280 59/98/280
f 15/100/281 16/58/281 70/101/281
f 15/100/282 69/102/282 66/103/282
f 44/105/283 43/20/283 56/106/283
f 11/108/284 12/165/284 63/109/284
f 94/71/285 52/164/285 112/111/285
f 43/20/286 95/17/286 53/113/286
f 11/108/287 68/110/287 67/114/287
f 62/116/288 49/469/288 129/117/288
f 64/119/289 51/253/289 50/120/289
f 66/122/290 53/132/290 112/123/290
f 249/125/291 67/129/291 54/126/291
f 68/128/292 55/130/292 54/126/292
f 68/128/293 63/121/293 50/120/293
f 66/122/294 69/134/294 56/131/294
f 70/133/295 57/480/295 56/131/295
f 61/135/296 48/254/296 58/136/296
f 132/138/297 72/144/297 59/139/297
f 65/141/298 52/231/298 60/142/298
f 72/144/299 73/143/299 60/142/299
f 21/145/300 72/168/300 132/146/300
f 244/22/301 88/473/301 49/148/301
f 22/150/302 65/230/302 73/151/302
f 120/153/303 100/221/303 51/154/303
f 87/96/304 48/95/304 129/156/304
f 2/158/305 62/481/305 131/159/305
f 42/161/306 41/25/306 54/162/306
f 47/97/307 60/99/307 52/164/307
f 12/165/308 6/482/308 64/166/308
f 42/161/309 55/163/309 50/167/309
f 21/145/310 31/152/310 73/151/310
f 4/169/311 66/483/311 113/170/311
f 37/27/312 50/167/312 51/172/312
f 10/115/313 67/114/313 249/173/313
f 102/77/73 86/70/73 198/175/73
f 85/75/314 104/74/314 194/177/314
f 198/175/75 86/70/75 103/72/75
f 133/69/315 82/68/315 20/180/315
f 8/182/77 80/26/77 81/1/77
f 79/23/78 80/26/78 8/182/78
f 250/24/79 79/23/79 9/184/79
f 14/186/316 77/18/316 78/21/316
f 96/19/81 77/18/81 14/186/81
f 170/189/317 172/326/317 155/190/317
f 7/183/83 81/1/83 91/3/83
f 176/193/318 175/305/318 141/194/318
f 35/196/319 87/96/319 117/157/319
f 1/198/320 74/220/320 89/199/320
f 5/201/321 92/244/321 91/202/321
f 20/180/88 199/176/88 202/204/88
f 39/205/322 94/71/322 105/112/322
f 3/207/323 76/223/323 96/208/323
f 1/198/91 90/200/91 193/210/91
f 3/207/90 97/209/90 196/212/90
f 38/214/92 100/221/92 120/153/92
f 20/180/324 82/68/324 102/77/324
f 19/215/99 197/179/99 103/72/99
f 17/217/86 194/177/86 104/74/86
f 36/219/98 88/245/98 89/199/98
f 38/214/325 75/203/325 91/202/325
f 40/222/89 95/225/89 96/208/89
f 46/224/92 101/76/92 102/77/92
f 39/205/326 83/216/326 103/72/326
f 35/196/327 84/218/327 104/74/327
f 19/215/99 116/213/99 196/212/99
f 40/222/89 115/206/89 105/112/89
f 19/215/328 83/216/328 114/226/328
f 169/227/329 154/366/329 153/228/329
f 22/150/330 111/171/330 113/170/330
f 113/124/331 112/123/331 52/231/331
f 105/112/332 112/111/332 53/232/332
f 163/233/333 151/360/333 152/234/333
f 205/31/334 203/39/334 213/41/334
f 26/237/335 107/484/335 106/238/335
f 22/240/336 24/239/336 106/238/336
f 98/242/337 119/378/337 224/243/337
f 83/216/338 39/205/338 115/206/338
f 46/224/92 138/67/92 120/153/92
f 137/211/339 193/210/339 194/177/339
f 5/201/321 136/181/321 202/204/321
f 36/219/98 135/197/98 117/157/98
f 17/217/340 84/218/340 134/246/340
f 169/247/341 170/189/341 140/191/341
f 18/92/342 127/160/342 131/159/342
f 117/157/343 129/156/343 49/250/343
f 101/76/344 120/153/344 130/155/344
f 6/251/59 128/147/59 132/146/59
f 64/119/345 132/138/345 130/140/345
f 131/118/346 129/117/346 48/254/346
f 164/255/347 150/321/347 151/256/347
f 92/258/348 202/387/348 126/259/348
f 247/261/349 2/485/349 127/262/349
f 6/264/350 12/267/350 121/265/350
f 12/267/351 11/270/351 122/268/351
f 10/269/352 123/464/352 122/268/352
f 243/271/353 9/274/353 124/272/353
f 9/274/354 8/276/354 125/275/354
f 7/260/355 126/259/355 125/275/355
f 84/218/356 35/196/356 135/197/356
f 115/277/357 171/311/357 173/4/357
f 3/279/358 116/486/358 174/280/358
f 136/282/359 5/487/359 163/233/359
f 75/283/360 164/295/360 163/284/360
f 138/286/361 133/290/361 166/287/361
f 136/289/362 165/488/362 166/287/362
f 138/291/363 167/489/363 168/292/363
f 75/283/364 38/490/364 168/294/364
f 167/296/365 166/300/365 160/297/365
f 165/299/366 152/491/366 160/297/366
f 177/301/367 176/492/367 161/302/367
f 178/304/368 147/353/368 141/194/368
f 168/292/369 167/489/369 162/306/369
f 179/308/370 148/347/370 147/309/370
f 171/311/371 153/493/371 139/312/371
f 179/313/372 180/318/372 142/314/372
f 172/281/373 174/280/373 159/316/373
f 180/318/374 177/329/374 149/319/374
f 168/320/375 156/351/375 150/321/375
f 40/322/376 76/325/376 170/189/376
f 40/323/377 169/227/377 171/229/377
f 76/325/378 3/327/378 172/326/378
f 116/327/379 114/278/379 173/4/379
f 74/328/380 1/494/380 177/329/380
f 74/328/381 180/318/381 179/313/381
f 135/331/382 36/495/382 179/308/382
f 135/332/383 178/304/383 175/305/383
f 137/334/384 176/492/384 177/301/384
f 137/336/385 134/333/385 175/305/385
f 145/337/386 146/496/386 187/338/386
f 157/340/387 143/497/387 185/341/387
f 148/315/388 142/314/388 184/343/388
f 162/306/389 160/498/389 181/345/389
f 148/347/390 187/364/390 188/348/390
f 157/349/391 183/499/391 188/348/391
f 156/351/392 192/358/392 182/352/392
f 147/353/393 188/500/393 183/354/393
f 142/314/394 149/319/394 186/355/394
f 153/228/395 191/346/395 181/345/395
f 154/357/396 140/369/396 182/352/396
f 150/321/397 182/352/397 189/359/397
f 151/360/398 189/368/398 190/361/398
f 149/303/399 161/302/399 185/362/399
f 158/350/400 188/348/400 187/364/400
f 154/366/401 192/367/401 191/346/401
f 156/307/402 162/306/402 191/346/402
f 155/317/403 159/316/403 190/361/403
f 140/369/404 155/501/404 189/359/404
f 141/194/405 183/354/405 185/370/405
f 143/371/406 144/375/406 186/363/406
f 139/372/407 181/377/407 190/373/407
f 144/375/408 145/502/408 184/376/408
f 160/297/409 152/491/409 190/373/409
f 119/378/410 98/242/410 194/379/410
f 110/90/411 99/91/411 197/381/411
f 93/65/412 199/386/412 198/383/412
f 98/242/413 28/62/413 195/384/413
f 99/91/414 30/36/414 198/383/414
f 108/385/415 109/28/415 200/7/415
f 110/90/416 196/382/416 200/7/416
f 118/66/417 202/387/417 199/386/417
f 118/66/418 203/39/418 126/259/418
f 119/378/419 193/380/419 252/273/419
f 205/31/420 204/33/420 124/272/420
f 205/31/421 125/275/421 126/259/421
f 213/41/422 214/394/422 210/388/422
f 211/389/423 215/395/423 216/390/423
f 206/32/424 209/236/424 210/388/424
f 256/34/425 206/32/425 207/392/425
f 226/40/426 218/78/426 214/394/426
f 220/38/427 219/37/427 216/390/427
f 214/394/428 218/78/428 220/38/428
f 207/392/429 208/397/429 255/396/429
f 210/388/430 211/389/430 208/397/430
f 214/394/431 215/395/431 211/389/431
f 212/391/432 216/390/432 223/30/432
f 216/390/433 219/37/433 225/89/433
f 235/398/434 236/462/434 232/399/434
f 227/401/435 231/400/435 232/399/435
f 233/403/436 234/503/436 230/404/436
f 227/401/437 228/402/437 237/406/437
f 240/408/438 229/405/438 230/404/438
f 242/410/439 239/504/439 257/411/439
f 25/413/440 232/425/440 236/414/440
f 233/415/441 33/505/441 26/416/441
f 251/418/442 127/506/442 242/419/442
f 128/421/443 241/507/443 237/422/443
f 25/413/444 23/435/444 228/424/444
f 121/426/445 227/434/445 241/427/445
f 22/429/446 31/508/446 240/430/446
f 26/432/447 24/52/447 230/51/447
f 121/426/448 122/59/448 231/61/448
f 23/435/449 21/509/449 237/436/449
f 16/58/450 44/510/450 57/437/450
f 78/438/451 44/510/451 16/58/451
f 26/440/452 212/511/452 222/441/452
f 16/58/453 108/57/453 201/442/453
f 26/443/454 33/512/454 211/444/454
f 34/446/455 208/513/455 211/447/455
f 255/448/456 208/514/456 34/449/456
f 28/451/457 221/460/457 29/452/457
f 144/456/458 143/515/458 157/454/458
f 157/454/459 158/516/459 146/455/459
f 146/455/460 145/517/460 144/456/460
f 71/457/461 58/518/461 45/458/461
f 85/459/462 195/453/462 29/452/462
f 221/460/463 255/448/463 246/450/463
f 123/461/464 251/418/464 258/420/464
f 258/412/465 257/411/465 236/462/465
f 254/393/466 255/396/466 221/64/466
f 224/243/467 256/34/467 254/393/467
f 253/35/468 252/273/468 124/272/468
f 243/271/127 252/273/127 193/380/127
f 247/261/123 251/263/123 123/464/123
f 89/465/79 250/24/79 243/185/79
f 247/174/72 249/173/72 62/467/72
f 41/25/469 244/22/469 248/149/469
f 62/116/470 249/125/470 248/127/470
f 27/470/471 245/79/471 246/81/471
f 18/471/18 245/47/18 257/46/18
f 253/35/472 256/34/472 224/243/472
f 88/473/9 244/22/9 250/24/9
