# Blender 4.2.1 LTS
# www.blender.org
mtllib leaflet_holder_1.mtl
g leaflet_holder_1_Mesh
v 0.281059 0.054631 -0.092572
v -0.270774 0.054631 -0.095756
v 0.279458 0.058045 0.184983
v -0.272375 0.058045 0.181800
v 0.280745 0.055769 -0.038136
v -0.271088 0.055769 -0.041319
v 0.226303 0.054631 -0.092888
v -0.216018 0.054631 -0.095439
v -0.217619 0.058045 0.182116
v 0.224702 0.058045 0.184668
v -0.216332 0.055769 -0.041002
v 0.225989 0.055769 -0.038451
v -0.215930 0.000000 -0.110632
v -0.287586 0.000000 -0.111045
v 0.298046 0.000000 -0.107667
v 0.224702 0.000000 0.184668
v 0.296357 0.000000 0.185081
v -0.289274 0.000000 0.181703
v 0.226391 0.000000 -0.108080
v -0.217619 0.000000 0.182116
v -0.287586 0.324416 -0.111045
v 0.298046 0.324416 -0.107667
v 0.297117 0.324416 0.053342
v -0.288514 0.324416 0.049964
v -0.268003 0.324416 -0.094032
v 0.278269 0.324416 -0.090880
v 0.277438 0.324416 0.053228
v -0.268835 0.324416 0.050077
v -0.268308 0.324416 -0.041303
v 0.277965 0.324416 -0.038152
v 0.277759 0.324416 -0.002492
v 0.297439 0.324416 -0.002378
v -0.216028 0.324416 -0.093732
v 0.226293 0.324416 -0.091181
v -0.215930 0.324416 -0.110632
v 0.226391 0.324416 -0.108080
v -0.289120 0.000000 0.155008
v -0.272221 0.057476 0.155106
v 0.296511 0.000000 0.158386
v 0.279612 0.057476 0.158289
v 0.224856 0.057476 0.157973
v -0.217465 0.057476 0.155421
v 0.224856 0.000000 0.157973
v -0.217465 0.000000 0.155421
v -0.288351 0.324416 0.021717
v -0.268672 0.324416 0.021831
v 0.277600 0.324416 0.024981
v 0.297280 0.324416 0.025095
v 0.297665 0.000000 -0.041595
v -0.287967 0.000000 -0.044972
v -0.216311 0.000000 -0.044601
v 0.226010 0.000000 -0.042049
v -0.287967 0.324416 -0.044968
v 0.297665 0.324416 -0.041590
v 0.296148 0.229458 0.060849
v 0.277858 0.229458 0.060744
v 0.295469 0.268646 0.040598
v 0.277179 0.268646 0.040492
v 0.296357 0.145883 0.185081
v 0.278861 0.145883 0.184980
v 0.296335 0.143100 0.147161
v 0.279027 0.145883 0.156281
v 0.298046 0.237206 -0.107667
v 0.298046 0.223927 -0.107667
v -0.288559 0.222880 0.057633
v -0.288514 0.237271 0.049964
v 0.279703 0.223848 -0.091750
v 0.279550 0.237205 -0.091658
v -0.270110 0.237271 0.050070
v -0.270315 0.222879 0.057741
v 0.294322 0.206325 0.026363
v 0.296471 0.192469 0.037949
v -0.215930 0.237244 -0.110632
v -0.215930 0.223121 -0.110632
v 0.226391 0.223450 -0.108080
v 0.226391 0.237228 -0.108080
v -0.287586 0.222911 -0.111045
v -0.287586 0.237256 -0.111045
v -0.269435 0.222883 -0.094922
v -0.269275 0.237255 -0.094823
v -0.269389 0.237263 -0.075043
v -0.269540 0.222787 -0.076826
v 0.279596 0.224483 -0.073974
v 0.279437 0.237175 -0.071911
v 0.278382 0.192469 0.037845
v 0.275857 0.206335 0.026244
v -0.216023 0.223079 -0.094613
v -0.216023 0.237243 -0.094516
v 0.226298 0.237227 -0.091965
v 0.226299 0.223393 -0.092060
v -0.270162 0.222786 0.031031
v -0.269956 0.237268 0.023243
v -0.288360 0.237268 0.023137
v -0.288405 0.222796 0.030914
v -0.287772 0.237264 -0.078703
v -0.287762 0.222806 -0.080489
v 0.297872 0.224588 -0.077442
v 0.297860 0.237177 -0.075358
v 0.298046 0.108759 -0.107667
v 0.298046 0.123939 -0.107667
v -0.289227 0.123577 0.173423
v -0.289274 0.109077 0.181703
v 0.280407 0.123993 -0.092177
v 0.280506 0.111766 -0.092237
v -0.271852 0.109216 0.181803
v -0.271681 0.123578 0.173523
v 0.303276 0.170256 0.087966
v 0.301790 0.178678 0.068660
v -0.215930 0.108800 -0.110632
v -0.215930 0.123951 -0.110632
v 0.226391 0.123959 -0.108080
v 0.226391 0.108774 -0.108080
v -0.289061 0.123732 0.144670
v -0.289110 0.108972 0.153199
v -0.287885 0.108895 -0.059194
v -0.287868 0.123841 -0.062113
v -0.287586 0.123912 -0.111045
v -0.287586 0.108840 -0.111045
v -0.270127 0.123932 -0.095353
v -0.270242 0.109980 -0.095425
v -0.270478 0.109651 -0.055316
v -0.270341 0.123854 -0.058459
v 0.280195 0.123962 -0.055303
v 0.280200 0.112785 -0.040639
v 0.284163 0.178674 0.068566
v 0.284869 0.170653 0.088495
v -0.216020 0.123979 -0.095040
v -0.216020 0.110417 -0.095109
v 0.226301 0.110997 -0.092554
v 0.226301 0.123999 -0.092489
v -0.271514 0.123739 0.144764
v -0.271686 0.109403 0.153344
v 0.297764 0.123889 -0.058743
v 0.297747 0.108691 -0.055773
v 0.279076 0.223087 -0.022861
v 0.278922 0.236444 -0.022768
v 0.191953 0.219546 0.015821
v 0.191954 0.205712 0.015724
v -0.270063 0.222134 0.014115
v -0.269903 0.236506 0.014215
v -0.202101 0.215808 0.024053
v -0.173519 0.236664 0.030244
v 0.225672 0.110453 0.107746
v 0.225672 0.123455 0.107811
v -0.218442 0.113591 0.111017
v -0.218442 0.100029 0.110950
v -0.277608 0.115282 0.108623
v -0.277723 0.101330 0.108551
v 0.279778 0.123452 0.108124
v 0.279876 0.111225 0.108064
v 0.005230 0.000000 -0.109356
v 0.003541 0.000000 0.183392
v 0.005143 0.054631 -0.094164
v 0.003541 0.058045 0.183392
v 0.004829 0.055769 -0.039727
v 0.005230 0.324416 -0.109356
v 0.005133 0.324416 -0.092457
v 0.003695 0.000000 0.156697
v 0.003695 0.057476 0.156697
v 0.004849 0.000000 -0.043325
v 0.006099 0.230383 -0.088382
v 0.005138 0.223236 -0.093337
v 0.005230 0.237236 -0.109356
v 0.005230 0.223285 -0.109356
v 0.005230 0.123955 -0.109356
v 0.005230 0.108787 -0.109356
v 0.005140 0.123989 -0.093765
v 0.005141 0.110707 -0.093831
v 0.029304 0.224717 0.032634
v 0.021584 0.211024 0.029501
v 0.022684 0.123730 0.109956
v 0.022684 0.110448 0.109889
v -0.057673 0.000000 -0.109718
v -0.057761 0.054631 -0.094526
v -0.057771 0.324416 -0.092819
v -0.059208 0.000000 0.156334
v -0.057766 0.237238 -0.093603
v -0.057673 0.223239 -0.109718
v -0.057673 0.108791 -0.109718
v -0.057763 0.123986 -0.094128
v -0.078633 0.238807 0.078954
v -0.089828 0.110697 0.107865
v -0.059362 0.000000 0.183029
v -0.059362 0.058045 0.183029
v -0.058075 0.055769 -0.040090
v -0.057673 0.324416 -0.109718
v -0.059208 0.057476 0.156334
v -0.058054 0.000000 -0.043688
v -0.057766 0.223191 -0.093699
v -0.057673 0.237239 -0.109718
v -0.057673 0.123954 -0.109718
v -0.057763 0.110624 -0.094194
v -0.058394 0.222438 0.087814
v -0.089828 0.097335 0.107798
v 0.225987 0.110725 0.007596
v 0.280191 0.111495 0.007914
v -0.216335 0.110143 0.005041
v 0.280092 0.123723 0.007974
v -0.270442 0.123657 0.004797
v -0.216043 0.117312 0.009139
v -0.270556 0.109705 0.004725
v 0.225986 0.123727 0.007661
v 0.035446 0.114313 0.018290
v 0.013912 0.110577 0.008029
v -0.073795 0.103979 0.006802
v -0.073796 0.117341 0.006868
vn 0.0001 0.9998 -0.0213
vn -0.0058 -0.0000 1.0000
vn 0.0001 0.9998 -0.0209
vn 0.0001 1.0000 -0.0087
vn -1.0000 -0.0000 -0.0058
vn -0.9985 0.0538 0.0120
vn -0.0000 -1.0000 -0.0000
vn 0.9926 0.0107 0.1213
vn 0.0058 -0.0000 -1.0000
vn -0.0058 -0.0043 1.0000
vn 0.9999 -0.0146 0.0058
vn -0.9999 -0.0084 -0.0133
vn -1.0000 -0.0070 -0.0058
vn -0.9999 -0.0146 -0.0058
vn -0.0038 0.7591 0.6510
vn -1.0000 0.0060 -0.0058
vn 0.9979 -0.0152 -0.0628
vn 1.0000 -0.0000 0.0058
vn 0.0149 0.0434 0.9989
vn 1.0000 -0.0070 0.0058
vn 0.9993 -0.0373 0.0058
vn 0.3253 0.8788 0.3492
vn -0.0056 -0.2226 0.9749
vn 0.1209 0.9900 -0.0727
vn 0.0051 -0.4590 -0.8884
vn -0.0023 0.9121 0.4100
vn -0.0058 -0.0090 0.9999
vn -0.9999 -0.0098 -0.0057
vn -0.9998 0.0187 0.0108
vn -0.0057 0.0789 0.9969
vn -0.0000 1.0000 -0.0000
vn 0.9999 -0.0098 0.0060
vn 0.9999 -0.0101 0.0059
vn 0.9999 -0.0102 0.0060
vn -0.0058 -0.0059 1.0000
vn -0.9999 -0.0096 -0.0056
vn -1.0000 -0.0067 -0.0058
vn 0.9996 -0.0223 0.0169
vn 0.9999 0.0012 0.0125
vn 0.9994 -0.0046 0.0334
vn 0.9999 -0.0111 0.0058
vn 1.0000 0.0080 0.0032
vn 0.9999 -0.0112 0.0058
vn -0.0051 0.4704 0.8824
vn -0.9999 -0.0117 -0.0058
vn -0.9667 -0.2430 -0.0801
vn 0.9999 0.0114 0.0092
vn 0.0007 -1.0000 -0.0013
vn -0.0046 0.6412 0.7674
vn -0.0022 0.9277 0.3734
vn -0.0386 -0.9948 -0.0937
vn -0.0169 0.9998 -0.0111
vn -0.9994 0.0009 0.0358
vn -1.0000 -0.0080 -0.0058
vn 0.9999 -0.0084 0.0058
vn -0.0050 0.4995 0.8663
vn 0.9999 -0.0082 0.0058
vn 0.0142 -0.9999 -0.0027
vn 0.9999 -0.0086 0.0058
vn 0.9974 0.0444 -0.0574
vn 0.4059 -0.0017 0.9139
vn -0.1636 -0.0680 0.9842
vn -0.4538 -0.0806 0.8875
vn 0.0244 -0.0051 0.9997
vn -0.0405 -0.0050 0.9992
vn -0.0058 -0.0050 1.0000
vn 0.0270 0.9989 0.0371
vn 0.0004 0.9999 0.0111
vn -0.9976 0.0085 -0.0682
vn -0.0186 -0.9965 -0.0817
vn 0.1451 -0.9827 -0.1150
vn -0.9999 0.0112 -0.0057
vn -0.0026 1.0000 0.0055
vn -0.0000 1.0000 0.0027
vn 0.0037 -1.0000 -0.0068
vn 0.0008 0.9978 0.0658
vn -0.0492 0.9988 0.0026
vn 0.0106 -0.0050 0.9999
vn 0.1026 -0.0069 0.9947
vn -0.0282 0.9878 0.1530
vn -0.1446 -0.9895 -0.0046
vn 0.1165 -0.9921 -0.0468
vn -0.0232 -0.9952 -0.0955
vn 0.0011 -0.9981 -0.0613
vn 0.0377 0.9946 -0.0969
vn -0.0180 -0.0050 0.9998
vn 0.4850 -0.4456 0.7524
vn 0.1045 0.9942 0.0265
vn 0.0192 0.9965 0.0809
vn -0.0432 -0.9991 -0.0029
vn 0.0756 -0.9957 -0.0535
vn -0.0004 0.9978 0.0656
vn 0.0001 1.0000 0.0027
vn 0.0081 -1.0000 -0.0027
vn -1.0000 0.0082 -0.0031
vn 0.1106 0.9918 0.0635
vn 0.0013 -1.0000 -0.0014
vn -0.0057 -0.0000 1.0000
vn -0.9960 -0.0086 -0.0890
vn -0.9793 -0.1717 0.1072
vn -0.9994 0.0078 -0.0340
vn -0.9996 -0.0021 0.0295
vn 0.9995 -0.0309 0.0058
vn 0.9993 -0.0055 -0.0361
vn 0.0316 0.9070 0.4198
vn -0.0064 -0.2228 0.9748
vn 0.9994 -0.0193 0.0289
vn -0.0024 0.9121 0.4100
vn -1.0000 0.0059 -0.0058
vn 0.9999 -0.0096 0.0058
vn 0.9999 -0.0098 0.0058
vn 0.9999 -0.0101 0.0058
vn -1.0000 -0.0068 -0.0056
vn 1.0000 0.0012 -0.0007
vn 0.9824 0.1583 -0.0991
vn 0.9752 0.2100 0.0703
vn -0.0052 0.4703 0.8825
vn -0.9999 -0.0114 -0.0056
vn -0.9992 -0.0063 -0.0384
vn -0.0000 -1.0000 -0.0027
vn -0.0044 0.6410 0.7675
vn 0.0312 0.9170 0.3976
vn 0.0016 -0.9869 -0.1614
vn -0.0000 1.0000 0.0046
vn -0.9994 0.0263 0.0204
vn 0.9999 -0.0085 0.0058
vn -0.0090 0.4959 0.8683
vn 0.0143 -0.9999 -0.0027
vn 0.9996 -0.0067 -0.0287
vn 0.4060 -0.0063 0.9139
vn -0.1452 -0.0052 0.9894
vn -0.3994 0.2890 0.8700
vn 0.0244 -0.0050 0.9997
vn -0.0406 -0.0048 0.9992
vn 0.1085 0.9902 0.0874
vn -0.1392 0.9833 0.1170
vn 0.0086 -0.9955 -0.0949
vn 0.0086 -0.9999 -0.0110
vn 0.0002 1.0000 0.0069
vn -0.0852 -0.9951 -0.0510
vn 0.0234 0.9990 0.0370
vn 0.0003 0.9948 -0.1022
vn 0.0698 -0.2597 0.9632
vn 0.0359 0.9986 0.0399
vn 0.0013 -0.9951 -0.0991
vn 0.0751 -0.9971 -0.0077
vn -0.0769 0.0424 0.9961
vn -0.0422 -0.9965 -0.0723
vn 0.0478 -0.9988 -0.0040
vn -0.1158 0.9922 0.0469
vn -0.0180 -0.0051 0.9998
vn 0.3447 0.7393 0.5784
vn 0.1324 0.9912 0.0070
vn 0.0017 -0.9979 -0.0654
vn -0.0005 0.9963 0.0862
vn 0.0008 0.9980 0.0639
vn -0.0009 1.0000 0.0027
vn 0.0007 -1.0000 -0.0027
vt 0.320958 0.036978
vt 0.320097 0.035202
vt 0.320958 0.035202
vt 0.328460 0.024309
vt 0.328350 0.023983
vt 0.328460 0.023883
vt 0.328003 0.027364
vt 0.328350 0.027264
vt 0.328460 0.027364
vt 0.329058 0.035202
vt 0.327302 0.036978
vt 0.327302 0.035202
vt 0.320958 0.030067
vt 0.327302 0.030067
vt 0.324354 0.026348
vt 0.325225 0.029176
vt 0.324354 0.029176
vt 0.323930 0.027257
vt 0.324083 0.026906
vt 0.325113 0.026928
vt 0.327302 0.020850
vt 0.320958 0.019073
vt 0.327302 0.019073
vt 0.329058 0.020850
vt 0.329058 0.019073
vt 0.329501 0.029931
vt 0.328460 0.026938
vt 0.328350 0.025250
vt 0.328460 0.025250
vt 0.320958 0.020850
vt 0.320097 0.019073
vt 0.320097 0.030067
vt 0.321542 0.025382
vt 0.320675 0.020247
vt 0.321542 0.020247
vt 0.323613 0.023883
vt 0.323462 0.023424
vt 0.323601 0.023425
vt 0.328587 0.029645
vt 0.329578 0.032854
vt 0.327991 0.032856
vt 0.328030 0.017922
vt 0.328031 0.020247
vt 0.328529 0.029176
vt 0.329578 0.026348
vt 0.329578 0.029176
vt 0.327267 0.025876
vt 0.328748 0.022577
vt 0.328748 0.025876
vt 0.328047 0.034821
vt 0.324831 0.027645
vt 0.328047 0.027645
vt 0.323627 0.030677
vt 0.321532 0.027849
vt 0.323581 0.027849
vt 0.325200 0.026862
vt 0.324682 0.026405
vt 0.325311 0.026264
vt 0.325419 0.026862
vt 0.325417 0.026268
vt 0.330009 0.022577
vt 0.328975 0.021508
vt 0.330009 0.021508
vt 0.325299 0.026189
vt 0.324886 0.025670
vt 0.325098 0.025670
vt 0.323311 0.024068
vt 0.323880 0.020044
vt 0.323880 0.024068
vt 0.328048 0.020470
vt 0.324842 0.018737
vt 0.328049 0.018714
vt 0.328047 0.036577
vt 0.324826 0.034821
vt 0.324713 0.026235
vt 0.324555 0.025670
vt 0.324723 0.025670
vt 0.322830 0.022753
vt 0.322989 0.022189
vt 0.322989 0.022753
vt 0.322031 0.023380
vt 0.322211 0.022782
vt 0.322322 0.023381
vt 0.327058 0.030243
vt 0.325758 0.029174
vt 0.327059 0.029174
vt 0.324377 0.034821
vt 0.321552 0.027645
vt 0.324377 0.027645
vt 0.327570 0.034361
vt 0.324746 0.031144
vt 0.328503 0.034366
vt 0.324105 0.029643
vt 0.321281 0.032859
vt 0.320348 0.032865
vt 0.330174 0.017922
vt 0.330174 0.020247
vt 0.322424 0.023883
vt 0.330174 0.036924
vt 0.328031 0.034599
vt 0.330174 0.034599
vt 0.328031 0.025382
vt 0.328031 0.027423
vt 0.321542 0.017922
vt 0.320675 0.017922
vt 0.330174 0.025382
vt 0.324083 0.026906
vt 0.323942 0.026906
vt 0.322682 0.022749
vt 0.325811 0.022752
vt 0.326408 0.019927
vt 0.326408 0.022752
vt 0.322657 0.022189
vt 0.322223 0.022707
vt 0.322424 0.022189
vt 0.330009 0.030243
vt 0.328974 0.029174
vt 0.330009 0.029174
vt 0.323772 0.023425
vt 0.322031 0.022189
vt 0.322031 0.022707
vt 0.324555 0.026235
vt 0.324234 0.026794
vt 0.322862 0.022923
vt 0.325411 0.025670
vt 0.325416 0.026189
vt 0.324377 0.020470
vt 0.321552 0.018783
vt 0.324377 0.018742
vt 0.324377 0.034821
vt 0.321552 0.036508
vt 0.321552 0.034821
vt 0.325098 0.027267
vt 0.323627 0.030677
vt 0.324497 0.027849
vt 0.324497 0.030677
vt 0.324859 0.026235
vt 0.319779 0.034354
vt 0.320380 0.031147
vt 0.320976 0.034357
vt 0.327434 0.026348
vt 0.325225 0.029176
vt 0.325271 0.026348
vt 0.327059 0.025876
vt 0.325758 0.022577
vt 0.327059 0.022577
vt 0.327272 0.030243
vt 0.328748 0.029174
vt 0.328749 0.030243
vt 0.320438 0.030677
vt 0.319821 0.027849
vt 0.327264 0.022577
vt 0.328748 0.021508
vt 0.322414 0.028019
vt 0.322297 0.028583
vt 0.322297 0.028019
vt 0.325758 0.030243
vt 0.324972 0.029645
vt 0.322821 0.022189
vt 0.320080 0.033335
vt 0.320946 0.035594
vt 0.320080 0.035594
vt 0.319766 0.036603
vt 0.321078 0.034818
vt 0.321532 0.036566
vt 0.327434 0.035594
vt 0.321005 0.033338
vt 0.327896 0.033341
vt 0.330009 0.025876
vt 0.328975 0.022577
vt 0.327848 0.034826
vt 0.327905 0.036511
vt 0.328772 0.034832
vt 0.328772 0.036492
vt 0.330295 0.036598
vt 0.328468 0.034821
vt 0.330295 0.034821
vt 0.330295 0.020470
vt 0.328501 0.018710
vt 0.330295 0.018693
vt 0.325420 0.026934
vt 0.325422 0.027274
vt 0.323772 0.026906
vt 0.323772 0.023883
vt 0.322031 0.023883
vt 0.322340 0.023471
vt 0.320675 0.036924
vt 0.321542 0.034599
vt 0.321542 0.036924
vt 0.328047 0.023883
vt 0.322685 0.022753
vt 0.329578 0.035594
vt 0.325770 0.019927
vt 0.323879 0.031147
vt 0.328478 0.027645
vt 0.329677 0.027836
vt 0.325758 0.025876
vt 0.322683 0.022714
vt 0.327059 0.022577
vt 0.327257 0.021508
vt 0.325420 0.026934
vt 0.319796 0.030677
vt 0.319793 0.031144
vt 0.325816 0.023005
vt 0.324861 0.026195
vt 0.328478 0.027645
vt 0.327269 0.029174
vt 0.322031 0.022786
vt 0.324876 0.026263
vt 0.323309 0.023313
vt 0.322031 0.023471
vt 0.329578 0.033343
vt 0.328974 0.025876
vt 0.328974 0.030243
vt 0.324826 0.034821
vt 0.324377 0.025604
vt 0.324377 0.025604
vt 0.325113 0.026928
vt 0.321078 0.034818
vt 0.328003 0.023883
vt 0.328046 0.023986
vt 0.328003 0.023987
vt 0.319777 0.034807
vt 0.328443 0.036580
vt 0.323309 0.023313
vt 0.323495 0.023445
vt 0.325758 0.021508
vt 0.327059 0.021508
vt 0.324811 0.036554
vt 0.324378 0.036549
vt 0.324836 0.020470
vt 0.324832 0.025604
vt 0.328047 0.025604
vt 0.328487 0.020470
vt 0.328480 0.025604
vt 0.328048 0.020470
vt 0.328974 0.026814
vt 0.328748 0.026814
vt 0.327059 0.026814
vt 0.327267 0.026814
vt 0.328480 0.025604
vt 0.325758 0.026814
vt 0.321552 0.025604
vt 0.328480 0.025604
vt 0.329852 0.025741
vt 0.330009 0.026814
vt 0.328030 0.036924
vt 0.330174 0.027423
vt 0.328047 0.025604
vt 0.320675 0.027423
vt 0.321542 0.027423
vt 0.320097 0.028026
vt 0.320097 0.020850
vt 0.328350 0.026938
vt 0.328460 0.025623
vt 0.327302 0.028026
vt 0.320958 0.028026
vt 0.328748 0.029174
vt 0.321552 0.020470
vt 0.328047 0.027645
vt 0.320675 0.025382
vt 0.328350 0.025623
vt 0.320097 0.036978
vt 0.328350 0.024309
vt 0.328003 0.027260
vt 0.329058 0.036978
vt 0.329578 0.029642
vt 0.323288 0.020044
vt 0.323429 0.023237
vt 0.328529 0.029176
vt 0.322406 0.028583
vt 0.323772 0.027254
vt 0.320675 0.034599
vt 0.326408 0.023005
s 0
g leaflet_holder_1_Material
usemtl Material
f 38/1/1 9/2/1 42/3/1
f 20/4/2 4/5/2 18/6/2
f 59/7/2 3/8/2 17/9/2
f 8/10/3 6/11/3 11/12/3
f 11/12/4 187/13/4 185/14/4
f 24/15/5 93/16/5 66/17/5
f 40/18/6 126/19/6 124/20/6
f 12/21/4 40/22/4 5/23/4
f 7/24/3 5/23/3 1/25/3
f 8/10/3 185/14/3 174/26/3
f 3/8/2 16/27/2 17/9/2
f 184/28/2 20/4/2 183/29/2
f 41/30/1 3/31/1 40/22/1
f 187/13/1 9/2/1 184/32/1
f 176/33/7 20/34/7 44/35/7
f 39/36/8 107/37/8 61/38/8
f 96/39/5 117/40/5 116/41/5
f 44/35/7 50/42/7 51/43/7
f 95/44/5 21/45/5 78/46/5
f 164/47/9 111/48/9 165/49/9
f 130/50/10 162/51/10 167/52/10
f 92/53/11 29/54/11 46/55/11
f 123/56/12 85/57/12 83/58/12
f 103/59/13 83/58/13 67/60/13
f 19/61/9 99/62/9 15/63/9
f 84/64/14 31/65/14 30/66/14
f 106/67/15 65/68/15 101/69/15
f 127/70/10 79/71/10 119/72/10
f 103/73/10 90/74/10 130/50/10
f 58/75/16 27/76/16 47/77/16
f 57/78/17 23/79/17 55/80/17
f 100/81/18 97/82/18 133/83/18
f 78/84/9 35/85/9 73/86/9
f 89/87/19 157/88/19 161/89/19
f 131/90/20 70/91/20 106/92/20
f 65/93/5 113/94/5 101/95/5
f 51/43/7 14/96/7 13/97/7
f 49/98/21 107/37/21 39/36/21
f 15/99/7 52/100/7 19/101/7
f 188/102/7 44/35/7 51/43/7
f 160/103/7 176/33/7 188/102/7
f 37/104/7 20/34/7 18/105/7
f 173/106/7 51/43/7 13/97/7
f 61/38/22 126/107/22 62/108/22
f 58/75/23 71/109/23 57/78/23
f 69/110/2 24/111/2 66/112/2
f 32/113/18 98/114/18 54/115/18
f 14/116/9 109/117/9 13/118/9
f 62/108/24 59/119/24 61/38/24
f 22/120/18 98/114/18 63/121/18
f 57/78/25 56/122/25 58/75/25
f 125/123/26 72/124/26 85/57/26
f 84/64/14 26/125/14 68/126/14
f 88/127/27 25/128/27 80/129/27
f 89/130/27 26/131/27 34/132/27
f 5/133/28 40/18/28 124/20/28
f 92/134/11 28/135/11 69/136/11
f 58/75/29 31/65/29 86/137/29
f 119/138/20 82/139/20 122/140/20
f 53/141/5 93/142/5 45/143/5
f 163/144/9 36/145/9 76/146/9
f 77/147/9 110/148/9 117/149/9
f 81/150/11 25/151/11 29/54/11
f 75/152/9 100/153/9 111/48/9
f 27/154/30 55/155/30 23/156/30
f 21/157/31 29/54/31 25/151/31
f 94/158/5 116/41/5 113/94/5
f 29/54/31 45/143/31 46/55/31
f 30/66/31 32/113/31 54/115/31
f 47/77/31 23/156/31 48/159/31
f 102/160/5 37/161/5 18/162/5
f 2/163/32 121/164/32 6/165/32
f 50/166/5 114/167/5 115/168/5
f 151/169/9 112/170/9 19/61/9
f 6/165/33 132/171/33 38/172/33
f 38/172/34 105/173/34 4/174/34
f 11/12/4 38/1/4 42/3/4
f 1/175/35 129/176/35 7/177/35
f 8/178/35 120/179/35 2/180/35
f 5/133/36 104/181/36 1/182/36
f 40/18/37 60/183/37 62/108/37
f 39/36/18 59/119/18 17/184/18
f 15/185/18 134/186/18 49/98/18
f 17/187/7 43/188/7 39/189/7
f 4/5/2 102/190/2 18/6/2
f 32/113/38 57/78/38 71/191/38
f 115/168/5 14/192/5 50/166/5
f 72/124/39 133/83/39 97/82/39
f 31/65/31 48/159/31 32/113/31
f 45/143/31 28/193/31 46/55/31
f 122/140/20 91/194/20 131/90/20
f 7/177/35 168/195/35 153/196/35
f 26/131/31 54/115/31 22/120/31
f 34/132/31 156/197/31 157/88/31
f 71/198/40 97/82/40 98/114/40
f 66/17/5 94/158/5 65/93/5
f 69/136/41 91/194/41 92/134/41
f 76/199/9 64/200/9 75/152/9
f 198/59/42 150/181/42 196/201/42
f 80/202/43 82/139/43 79/203/43
f 66/112/44 70/204/44 69/110/44
f 92/53/41 82/139/41 81/150/41
f 68/126/45 83/58/45 84/64/45
f 86/205/46 83/58/46 85/57/46
f 67/60/47 136/126/47 135/60/47
f 195/176/48 172/206/48 204/206/48
f 78/84/9 74/207/9 77/147/9
f 163/144/9 75/152/9 164/47/9
f 93/142/5 96/39/5 94/158/5
f 78/46/5 96/39/5 95/44/5
f 63/121/18 97/82/18 64/208/18
f 85/57/49 71/109/49 86/209/49
f 126/107/50 108/210/50 125/123/50
f 133/83/18 99/211/18 100/81/18
f 116/41/5 118/212/5 115/168/5
f 111/48/9 166/213/9 165/49/9
f 110/148/9 118/214/9 117/149/9
f 162/51/51 138/215/51 170/51/51
f 177/216/52 142/127/52 181/217/52
f 125/123/53 124/20/53 126/19/53
f 123/56/54 104/181/54 124/218/54
f 131/90/55 121/219/55 122/140/55
f 101/220/56 105/221/56 106/222/56
f 122/140/57 120/223/57 119/138/57
f 196/224/58 143/176/58 195/176/58
f 100/153/9 112/170/9 111/48/9
f 106/92/59 132/171/59 131/90/59
f 101/95/5 114/167/5 102/160/5
f 134/186/60 108/225/60 107/226/60
f 115/168/5 113/94/5 116/41/5
f 76/199/9 22/227/9 63/228/9
f 137/130/61 135/229/61 136/230/61
f 140/129/62 141/231/62 142/127/62
f 142/127/63 193/232/63 181/217/63
f 182/233/64 146/234/64 194/235/64
f 145/70/65 148/179/65 146/234/65
f 144/50/66 150/224/66 149/73/66
f 200/236/67 147/72/67 145/70/67
f 89/130/68 136/230/68 68/230/68
f 201/223/69 147/138/69 199/138/69
f 201/179/70 146/234/70 148/179/70
f 90/74/71 135/229/71 138/74/71
f 79/203/72 140/202/72 80/202/72
f 88/127/73 140/129/73 142/127/73
f 198/73/74 144/50/74 149/73/74
f 87/231/75 139/71/75 79/71/75
f 200/236/76 182/233/76 206/233/76
f 203/52/77 144/50/77 202/50/77
f 144/50/78 172/206/78 143/176/78
f 169/89/79 138/215/79 137/87/79
f 161/89/80 137/87/80 89/87/80
f 189/232/81 170/51/81 193/232/81
f 165/49/9 179/237/9 191/238/9
f 190/239/9 164/47/9 178/240/9
f 205/241/82 172/206/82 194/235/82
f 157/88/31 186/242/31 175/243/31
f 153/196/35 192/244/35 174/245/35
f 173/246/9 166/213/9 151/169/9
f 190/239/9 156/197/9 163/144/9
f 49/247/7 43/188/7 52/100/7
f 19/101/7 160/103/7 151/248/7
f 177/216/27 157/88/27 175/243/27
f 167/52/10 189/232/10 180/249/10
f 178/240/9 165/49/9 191/238/9
f 43/188/7 152/250/7 158/251/7
f 41/30/1 154/252/1 10/253/1
f 10/254/2 152/255/2 16/27/2
f 7/24/3 155/256/3 12/21/3
f 12/21/4 159/257/4 41/30/4
f 74/207/9 191/238/9 110/258/9
f 180/249/10 87/231/10 127/70/10
f 88/127/27 175/243/27 33/259/27
f 73/86/9 186/242/9 190/239/9
f 13/118/9 179/237/9 173/246/9
f 174/245/35 128/234/35 8/178/35
f 175/243/31 35/85/31 33/259/31
f 197/234/83 194/235/83 146/234/83
f 73/86/9 178/240/9 74/207/9
f 191/238/9 109/117/9 110/258/9
f 189/232/84 141/231/84 87/231/84
f 206/233/85 171/260/85 203/52/85
f 182/233/86 172/206/86 171/260/86
f 169/89/87 193/232/87 170/51/87
f 177/216/88 169/89/88 161/89/88
f 52/100/7 158/251/7 160/103/7
f 160/103/7 173/106/7 151/248/7
f 158/251/7 183/261/7 176/33/7
f 187/13/1 154/252/1 159/257/1
f 154/262/2 183/29/2 152/255/2
f 174/26/3 155/256/3 153/196/3
f 185/14/4 159/257/4 155/256/4
f 167/52/89 206/233/89 203/52/89
f 128/234/90 205/241/90 197/234/90
f 192/244/91 204/206/91 205/241/91
f 130/50/77 203/52/77 202/50/77
f 127/70/92 206/233/92 180/249/92
f 103/73/93 202/50/93 198/73/93
f 128/234/94 201/179/94 120/179/94
f 119/138/95 201/223/95 199/138/95
f 127/70/96 199/72/96 200/236/96
f 104/224/58 195/176/58 129/176/58
f 129/176/97 204/206/97 168/195/97
f 103/59/42 196/201/42 104/181/42
f 38/1/1 4/263/1 9/2/1
f 20/4/2 9/264/2 4/5/2
f 59/7/98 60/265/98 3/8/98
f 8/10/3 2/266/3 6/11/3
f 11/12/4 42/3/4 187/13/4
f 24/15/5 45/143/5 93/16/5
f 40/18/99 62/108/99 126/19/99
f 12/21/4 41/30/4 40/22/4
f 7/24/3 12/21/3 5/23/3
f 8/10/3 11/12/3 185/14/3
f 3/8/2 10/254/2 16/27/2
f 184/28/2 9/264/2 20/4/2
f 41/30/1 10/253/1 3/31/1
f 187/13/1 42/3/1 9/2/1
f 176/33/7 183/261/7 20/34/7
f 96/39/5 77/267/5 117/40/5
f 44/35/7 37/104/7 50/42/7
f 95/44/5 53/141/5 21/45/5
f 164/47/9 75/152/9 111/48/9
f 130/50/10 90/215/10 162/51/10
f 92/53/11 81/150/11 29/54/11
f 123/56/100 125/123/100 85/57/100
f 103/59/13 123/56/13 83/58/13
f 19/61/9 112/170/9 99/62/9
f 84/64/101 86/205/101 31/65/101
f 106/67/15 70/268/15 65/68/15
f 127/70/10 87/231/10 79/71/10
f 103/73/10 67/229/10 90/74/10
f 58/75/102 56/122/102 27/76/102
f 57/78/103 48/159/103 23/79/103
f 100/81/18 64/208/18 97/82/18
f 78/84/9 21/157/9 35/85/9
f 89/87/27 34/132/27 157/88/27
f 131/90/20 91/194/20 70/91/20
f 65/93/5 94/158/5 113/94/5
f 51/43/7 50/42/7 14/96/7
f 49/98/104 134/186/104 107/37/104
f 15/99/7 49/247/7 52/100/7
f 188/102/7 176/33/7 44/35/7
f 160/103/7 158/251/7 176/33/7
f 37/104/7 44/35/7 20/34/7
f 173/106/7 188/102/7 51/43/7
f 61/38/105 107/269/105 126/107/105
f 58/75/106 86/209/106 71/109/106
f 69/110/2 28/193/2 24/111/2
f 32/113/107 71/198/107 98/114/107
f 14/116/9 118/214/9 109/117/9
f 62/108/31 60/265/31 59/119/31
f 22/120/18 54/115/18 98/114/18
f 57/78/25 55/155/25 56/122/25
f 125/123/108 108/210/108 72/124/108
f 84/64/14 30/66/14 26/125/14
f 88/127/27 33/259/27 25/128/27
f 89/130/27 68/230/27 26/131/27
f 92/134/11 46/55/11 28/135/11
f 58/75/109 47/77/109 31/65/109
f 119/138/20 79/203/20 82/139/20
f 53/141/5 95/270/5 93/142/5
f 163/144/9 156/197/9 36/145/9
f 77/147/9 74/207/9 110/148/9
f 81/150/11 80/202/11 25/151/11
f 75/152/9 64/200/9 100/153/9
f 27/154/30 56/271/30 55/155/30
f 33/259/31 35/85/31 21/157/31
f 21/157/31 53/141/31 29/54/31
f 25/151/31 33/259/31 21/157/31
f 94/158/5 96/39/5 116/41/5
f 29/54/31 53/141/31 45/143/31
f 30/66/31 31/65/31 32/113/31
f 47/77/31 27/76/31 23/156/31
f 102/160/5 114/167/5 37/161/5
f 2/163/110 120/223/110 121/164/110
f 50/166/5 37/161/5 114/167/5
f 151/169/9 166/213/9 112/170/9
f 6/165/111 121/219/111 132/171/111
f 38/172/112 132/171/112 105/173/112
f 11/12/4 6/11/4 38/1/4
f 1/175/35 104/224/35 129/176/35
f 8/178/35 128/234/35 120/179/35
f 5/133/28 124/218/28 104/181/28
f 40/18/113 3/272/113 60/183/113
f 39/36/114 61/38/114 59/119/114
f 15/185/18 99/211/18 134/186/18
f 17/187/7 16/273/7 43/188/7
f 4/5/98 105/221/98 102/190/98
f 32/113/103 48/159/103 57/78/103
f 115/168/5 118/212/5 14/192/5
f 72/124/115 108/225/115 133/83/115
f 31/65/31 47/77/31 48/159/31
f 45/143/31 24/15/31 28/193/31
f 122/140/20 82/139/20 91/194/20
f 7/177/35 129/176/35 168/195/35
f 22/120/31 36/145/31 34/132/31
f 26/131/31 30/66/31 54/115/31
f 22/120/31 34/132/31 26/131/31
f 34/132/31 36/145/31 156/197/31
f 71/198/116 72/124/116 97/82/116
f 66/17/5 93/16/5 94/158/5
f 69/136/41 70/91/41 91/194/41
f 76/199/9 63/228/9 64/200/9
f 198/59/42 149/59/42 150/181/42
f 80/202/41 81/150/41 82/139/41
f 66/112/117 65/274/117 70/204/117
f 92/53/41 91/194/41 82/139/41
f 68/126/118 67/60/118 83/58/118
f 86/205/119 84/64/119 83/58/119
f 67/60/47 68/126/47 136/126/47
f 195/176/120 143/176/120 172/206/120
f 78/84/9 73/86/9 74/207/9
f 163/144/9 76/146/9 75/152/9
f 93/142/5 95/270/5 96/39/5
f 78/46/5 77/267/5 96/39/5
f 63/121/18 98/114/18 97/82/18
f 85/57/121 72/124/121 71/109/121
f 126/107/122 107/269/122 108/210/122
f 133/83/18 134/186/18 99/211/18
f 116/41/5 117/40/5 118/212/5
f 111/48/9 112/170/9 166/213/9
f 110/148/9 109/117/9 118/214/9
f 162/51/123 90/215/123 138/215/123
f 177/216/124 88/127/124 142/127/124
f 125/123/125 123/56/125 124/20/125
f 123/56/54 103/59/54 104/181/54
f 131/90/126 132/171/126 121/219/126
f 101/220/127 102/190/127 105/221/127
f 122/140/55 121/164/55 120/223/55
f 196/224/128 150/224/128 143/176/128
f 100/153/9 99/62/9 112/170/9
f 106/92/59 105/173/59 132/171/59
f 101/95/5 113/94/5 114/167/5
f 134/186/129 133/83/129 108/225/129
f 115/168/5 114/167/5 113/94/5
f 76/199/9 36/145/9 22/227/9
f 137/130/130 138/74/130 135/229/130
f 140/129/131 139/71/131 141/231/131
f 142/127/132 141/231/132 193/232/132
f 182/233/133 145/70/133 146/234/133
f 145/70/134 147/72/134 148/179/134
f 144/50/66 143/176/66 150/224/66
f 200/236/135 199/72/135 147/72/135
f 89/130/136 137/130/136 136/230/136
f 201/223/69 148/223/69 147/138/69
f 201/179/137 197/234/137 146/234/137
f 90/74/138 67/229/138 135/229/138
f 79/203/72 139/203/72 140/202/72
f 88/127/139 80/129/139 140/129/139
f 198/73/93 202/50/93 144/50/93
f 87/231/140 141/231/140 139/71/140
f 200/236/141 145/70/141 182/233/141
f 203/52/142 171/260/142 144/50/142
f 144/50/78 171/260/78 172/206/78
f 169/89/143 170/51/143 138/215/143
f 161/89/144 169/89/144 137/87/144
f 189/232/145 162/51/145 170/51/145
f 165/49/9 166/213/9 179/237/9
f 190/239/9 163/144/9 164/47/9
f 205/241/146 204/206/146 172/206/146
f 157/88/31 156/197/31 186/242/31
f 153/196/35 168/195/35 192/244/35
f 173/246/9 179/237/9 166/213/9
f 190/239/9 186/242/9 156/197/9
f 49/247/7 39/189/7 43/188/7
f 19/101/7 52/100/7 160/103/7
f 177/216/147 161/89/147 157/88/147
f 167/52/10 162/51/10 189/232/10
f 178/240/9 164/47/9 165/49/9
f 43/188/7 16/273/7 152/250/7
f 41/30/1 159/257/1 154/252/1
f 10/254/2 154/262/2 152/255/2
f 7/24/3 153/196/3 155/256/3
f 12/21/4 155/256/4 159/257/4
f 74/207/9 178/240/9 191/238/9
f 180/249/10 189/232/10 87/231/10
f 88/127/27 177/216/27 175/243/27
f 73/86/9 35/85/9 186/242/9
f 13/118/9 109/117/9 179/237/9
f 174/245/35 192/244/35 128/234/35
f 175/243/31 186/242/31 35/85/31
f 197/234/148 205/241/148 194/235/148
f 73/86/9 190/239/9 178/240/9
f 191/238/9 179/237/9 109/117/9
f 189/232/149 193/232/149 141/231/149
f 206/233/150 182/233/150 171/260/150
f 182/233/151 194/235/151 172/206/151
f 169/89/152 181/217/152 193/232/152
f 177/216/153 181/217/153 169/89/153
f 52/100/7 43/188/7 158/251/7
f 160/103/7 188/102/7 173/106/7
f 158/251/7 152/250/7 183/261/7
f 187/13/1 184/32/1 154/252/1
f 154/262/2 184/28/2 183/29/2
f 174/26/3 185/14/3 155/256/3
f 185/14/4 187/13/4 159/257/4
f 167/52/92 180/249/92 206/233/92
f 128/234/154 192/244/154 205/241/154
f 192/244/97 168/195/97 204/206/97
f 130/50/155 167/52/155 203/52/155
f 127/70/156 200/236/156 206/233/156
f 103/73/93 130/50/93 202/50/93
f 128/234/94 197/234/94 201/179/94
f 119/138/95 120/223/95 201/223/95
f 127/70/157 119/72/157 199/72/157
f 104/224/58 196/224/58 195/176/58
f 129/176/158 195/176/158 204/206/158
f 103/59/42 198/59/42 196/201/42
