# Blender 4.2.1 LTS
# www.blender.org
mtllib medication_bottle.mtl
g medication_bottle_Mesh
v 0.018369 0.001198 -0.012375
v 0.018369 0.064790 -0.012375
v 0.012375 0.001198 0.018369
v 0.012375 0.064790 0.018369
v -0.012376 0.001198 -0.018369
v -0.012376 0.064790 -0.018369
v -0.018369 0.001198 0.012376
v -0.018369 0.064790 0.012376
v -0.010694 0.001198 0.018928
v 0.002801 0.001198 0.021559
v 0.002801 0.064790 0.021559
v -0.010694 0.064790 0.018928
v 0.010694 0.001198 -0.018928
v -0.002801 0.001198 -0.021558
v -0.002801 0.064790 -0.021558
v 0.010694 0.064790 -0.018928
v 0.018928 0.001198 0.010694
v 0.021559 0.001198 -0.002801
v 0.021559 0.064790 -0.002801
v 0.018928 0.064790 0.010694
v -0.018928 0.001198 -0.010694
v -0.021559 0.001198 0.002801
v -0.021559 0.064790 0.002801
v -0.018928 0.064790 -0.010694
v -0.020655 0.066486 0.013915
v -0.012025 0.066486 0.021283
v 0.013915 0.066486 0.020654
v 0.021282 0.066486 0.012025
v 0.019832 0.000000 -0.002577
v 0.016898 0.000000 -0.011385
v 0.002577 0.000000 0.019832
v 0.011384 0.000000 0.016898
v -0.019832 0.000000 0.002577
v -0.016898 0.000000 0.011384
v -0.002577 0.000000 -0.019832
v -0.011385 0.000000 -0.016898
v -0.009838 0.000000 0.017411
v 0.009838 0.000000 -0.017412
v 0.007417 0.000000 -0.004997
v -0.004998 0.000000 -0.007417
v 0.017411 0.000000 0.009838
v -0.017412 0.000000 -0.009837
v 0.004997 0.000000 0.007418
v -0.007418 0.000000 0.004997
v -0.021283 0.066486 -0.012024
v -0.013915 0.066486 -0.020655
v 0.012024 0.066486 -0.021283
v 0.020654 0.066486 -0.013915
v 0.003150 0.066486 0.024241
v -0.003150 0.066486 -0.024241
v 0.024240 0.066486 -0.003150
v -0.024241 0.066486 0.003151
v 0.024643 0.067423 0.013806
v 0.016065 0.067423 0.023845
v -0.013806 0.067423 0.024642
v -0.023845 0.067423 0.016064
v -0.024643 0.067423 -0.013806
v -0.016065 0.067423 -0.023845
v 0.013806 0.067423 -0.024643
v 0.023845 0.067423 -0.016065
v 0.003539 0.067423 0.028024
v -0.003539 0.067423 -0.028024
v -0.023668 0.080416 0.015945
v -0.013713 0.080418 0.024449
v 0.028024 0.067423 -0.003539
v -0.028024 0.067423 0.003539
v 0.003525 0.080418 0.027809
v 0.015945 0.080416 0.023667
v 0.024449 0.080418 0.013712
v 0.027809 0.080418 -0.003526
v 0.023668 0.080416 -0.015946
v 0.013713 0.080418 -0.024449
v -0.024449 0.080418 -0.013713
v -0.027810 0.080418 0.003525
v -0.003526 0.080418 -0.027810
v -0.015945 0.080416 -0.023668
v -0.006666 0.083569 -0.009895
v -0.003127 0.083521 -0.021642
v 0.009894 0.083569 -0.006666
v 0.011027 0.083521 -0.018882
v -0.011027 0.083521 0.018882
v -0.009895 0.083569 0.006666
v 0.003127 0.083521 0.021641
v 0.006666 0.083569 0.009894
v -0.021642 0.083521 0.003126
v -0.018883 0.083521 -0.011027
v 0.018882 0.083521 0.011026
v 0.021642 0.083521 -0.003127
v 0.012481 0.083521 0.018525
v -0.018525 0.083521 0.012481
v -0.012481 0.083521 -0.018526
v 0.018525 0.083521 -0.012481
v 0.018596 0.013250 -0.012528
v 0.012528 0.013250 0.018597
v -0.018597 0.013250 0.012529
v -0.012529 0.013250 -0.018596
v -0.002836 0.013250 -0.021826
v 0.010826 0.013250 -0.019162
v 0.002836 0.013250 0.021826
v -0.010827 0.013250 0.019163
v -0.021826 0.013250 0.002837
v -0.019163 0.013250 -0.010826
v 0.021826 0.013250 -0.002836
v 0.019162 0.013250 0.010827
v 0.018443 0.054265 -0.012426
v 0.012425 0.054265 0.018444
v -0.018444 0.054265 0.012426
v -0.012426 0.054265 -0.018444
v -0.002813 0.054265 -0.021646
v 0.010737 0.054265 -0.019004
v 0.002813 0.054265 0.021646
v -0.010738 0.054265 0.019004
v -0.021646 0.054265 0.002813
v -0.019005 0.054265 -0.010737
v 0.021646 0.054265 -0.002813
v 0.019004 0.054265 0.010738
vn 0.7605 0.0082 0.6493
vn -0.6493 0.0082 0.7605
vn -0.7605 0.0083 -0.6493
vn 0.6492 0.0082 -0.7606
vn 0.1123 -0.8095 -0.5763
vn 0.1701 -0.8428 0.5107
vn 0.5412 -0.8342 0.1055
vn -0.5107 -0.8428 0.1701
vn 0.5446 -0.8189 -0.1814
vn -0.1815 -0.8188 -0.5447
vn -0.3160 0.0083 -0.9487
vn 0.1913 0.0079 -0.9815
vn 0.3160 0.0082 0.9487
vn -0.1913 0.0079 0.9815
vn -0.1123 -0.8096 0.5761
vn 0.3727 -0.8188 -0.4366
vn -0.5763 -0.8095 -0.1123
vn -0.3726 -0.8189 0.4365
vn 0.5108 -0.8427 -0.1702
vn 0.1055 -0.8343 -0.5412
vn 0.4095 -0.8427 0.3496
vn -0.3496 -0.8427 0.4094
vn -0.1055 -0.8343 0.5412
vn -0.4094 -0.8428 -0.3495
vn 0.5762 -0.8096 0.1123
vn -0.4366 -0.8189 -0.3727
vn -0.9487 0.0082 0.3161
vn -0.9815 0.0080 -0.1913
vn 0.9487 0.0082 -0.3161
vn 0.9815 0.0079 0.1913
vn -0.0000 -1.0000 -0.0000
vn -0.5446 -0.8188 0.1814
vn 0.1814 -0.8189 0.5445
vn 0.4365 -0.8189 0.3727
vn 0.3495 -0.8427 -0.4094
vn -0.5412 -0.8342 -0.1055
vn -0.1701 -0.8428 -0.5107
vn -0.1592 -0.9695 0.1864
vn 0.2448 -0.9684 0.0477
vn 0.0774 -0.9696 0.2323
vn 0.0477 -0.9684 -0.2448
vn 0.1863 -0.9695 0.1592
vn 0.2322 -0.9696 -0.0773
vn 0.1592 -0.9695 -0.1863
vn -0.2448 -0.9684 -0.0477
vn -0.0774 -0.9696 -0.2322
vn -0.1863 -0.9695 -0.1592
vn -0.2323 -0.9696 0.0774
vn -0.0477 -0.9684 0.2448
vn -0.6496 0.0158 0.7601
vn 0.9814 0.0160 0.1913
vn 0.3163 0.0160 0.9485
vn 0.1913 0.0160 -0.9814
vn 0.7602 0.0158 0.6495
vn 0.9485 0.0160 -0.3163
vn 0.6495 0.0158 -0.7602
vn -0.9814 0.0160 -0.1913
vn -0.3163 0.0160 -0.9485
vn 0.0031 1.0000 -0.0036
vn -0.0036 1.0000 -0.0031
vn 0.0007 1.0000 -0.0038
vn -0.0007 1.0000 0.0038
vn -0.0000 1.0000 -0.0000
vn -0.0045 1.0000 0.0016
vn -0.0038 1.0000 -0.0007
vn 0.0016 1.0000 0.0045
vn 0.0038 1.0000 0.0007
vn -0.1913 0.0160 0.9814
vn -0.9485 0.0160 0.3163
vn -0.7602 0.0158 -0.6495
vn 0.3504 0.8875 0.2992
vn -0.2992 0.8875 0.3504
vn -0.3504 0.8875 -0.2992
vn 0.2992 0.8875 -0.3504
vn 0.1460 0.8873 0.4374
vn -0.0882 0.8875 0.4522
vn -0.1460 0.8874 -0.4374
vn 0.0882 0.8875 -0.4522
vn 0.4374 0.8874 -0.1460
vn 0.4522 0.8875 0.0882
vn -0.4374 0.8873 0.1460
vn -0.4522 0.8875 -0.0882
vn 0.9813 -0.0212 0.1913
vn 0.9485 -0.0219 -0.3160
vn -0.9813 -0.0212 -0.1913
vn -0.9485 -0.0220 0.3160
vn -0.1913 -0.0212 0.9813
vn 0.3160 -0.0219 0.9485
vn 0.1913 -0.0212 -0.9813
vn -0.3160 -0.0219 -0.9485
vn 0.6491 -0.0219 -0.7604
vn -0.7604 -0.0219 -0.6491
vn -0.6491 -0.0219 0.7604
vn 0.7604 -0.0220 0.6491
vn 0.9815 0.0042 0.1913
vn 0.9487 0.0043 -0.3161
vn -0.9815 0.0042 -0.1913
vn -0.9487 0.0043 0.3161
vn -0.1913 0.0042 0.9815
vn 0.3161 0.0043 0.9487
vn 0.1913 0.0042 -0.9815
vn -0.3161 0.0043 -0.9487
vn 0.6493 0.0043 -0.7605
vn -0.7605 0.0043 -0.6493
vn -0.6493 0.0043 0.7605
vn 0.7605 0.0043 0.6493
vn 0.7605 0.0082 0.6492
vn -0.7605 0.0082 -0.6493
vn 0.6493 0.0082 -0.7605
vn 0.1702 -0.8427 0.5108
vn -0.5107 -0.8427 0.1702
vn 0.5445 -0.8189 -0.1814
vn -0.1814 -0.8188 -0.5446
vn -0.3161 0.0082 -0.9487
vn 0.3161 0.0082 0.9487
vn -0.3727 -0.8189 0.4365
vn 0.5108 -0.8427 -0.1701
vn 0.4094 -0.8427 0.3495
vn -0.3495 -0.8428 0.4094
vn -0.4094 -0.8427 -0.3496
vn -0.4366 -0.8188 -0.3728
vn -0.9487 0.0083 0.3160
vn 0.4365 -0.8189 0.3726
vn 0.3495 -0.8428 -0.4094
vn -0.5412 -0.8343 -0.1055
vn -0.1590 -0.9696 0.1862
vn 0.0776 -0.9695 0.2325
vn 0.1862 -0.9696 0.1589
vn 0.2325 -0.9695 -0.0776
vn 0.1589 -0.9696 -0.1862
vn -0.0776 -0.9695 -0.2325
vn -0.1862 -0.9696 -0.1589
vn -0.2325 -0.9695 0.0776
vn -0.6495 0.0160 0.7602
vn 0.3165 0.0158 0.9485
vn 0.7603 0.0160 0.6494
vn 0.9485 0.0158 -0.3164
vn 0.6494 0.0160 -0.7603
vn -0.3164 0.0158 -0.9485
vn 0.0045 1.0000 -0.0016
vn -0.0016 1.0000 -0.0045
vn -0.0031 1.0000 0.0036
vn 0.0036 1.0000 0.0031
vn -0.9485 0.0158 0.3165
vn -0.7602 0.0160 -0.6494
vn 0.3505 0.8873 0.2996
vn -0.2996 0.8873 0.3505
vn -0.3505 0.8873 -0.2996
vn 0.2996 0.8874 -0.3505
vn 0.1456 0.8875 0.4371
vn -0.1456 0.8875 -0.4371
vn 0.4371 0.8875 -0.1457
vn -0.4371 0.8875 0.1457
vn -0.9485 -0.0219 0.3160
vn 0.6492 -0.0219 -0.7603
vn -0.6491 -0.0220 0.7604
vn 0.7604 -0.0219 0.6491
vn -0.3160 0.0043 -0.9487
vn 0.6492 0.0043 -0.7606
vt 0.300243 0.992498
vt 0.285600 0.994966
vt 0.285416 0.992832
vt 0.300318 0.992883
vt 0.285674 0.995351
vt 0.285490 0.993217
vt 0.300280 0.992498
vt 0.285637 0.994966
vt 0.285453 0.992832
vt 0.300510 0.992562
vt 0.285867 0.995030
vt 0.285683 0.992896
vt 0.301364 0.986760
vt 0.302275 0.979482
vt 0.302275 0.986456
vt 0.321245 0.989352
vt 0.320866 0.983469
vt 0.323982 0.984507
vt 0.316400 0.992089
vt 0.309857 0.988973
vt 0.315361 0.988973
vt 0.321245 0.972080
vt 0.315361 0.972459
vt 0.316400 0.969344
vt 0.308946 0.971597
vt 0.304793 0.975025
vt 0.304101 0.974333
vt 0.304793 0.990914
vt 0.304101 0.991605
vt 0.338356 0.995030
vt 0.323712 0.992562
vt 0.338540 0.992896
vt 0.323631 0.994699
vt 0.338163 0.995351
vt 0.323520 0.992883
vt 0.338347 0.993217
vt 0.300399 0.995020
vt 0.324109 0.986760
vt 0.323198 0.979482
vt 0.324109 0.979178
vt 0.301364 0.979178
vt 0.316528 0.994342
vt 0.309250 0.993431
vt 0.316224 0.993431
vt 0.320681 0.990914
vt 0.323198 0.986456
vt 0.303973 0.989352
vt 0.308818 0.992089
vt 0.301237 0.976925
vt 0.304352 0.983469
vt 0.301237 0.984507
vt 0.318879 0.986986
vt 0.320866 0.977964
vt 0.318879 0.974446
vt 0.323982 0.976925
vt 0.303973 0.972080
vt 0.309857 0.972459
vt 0.306339 0.974446
vt 0.316528 0.971597
vt 0.309250 0.972508
vt 0.308946 0.994342
vt 0.338126 0.994966
vt 0.323482 0.992498
vt 0.338310 0.992832
vt 0.323402 0.994635
vt 0.338089 0.994966
vt 0.323445 0.992498
vt 0.338272 0.992832
vt 0.300324 0.994635
vt 0.309250 0.986456
vt 0.309250 0.979482
vt 0.316224 0.979482
vt 0.320681 0.975025
vt 0.316224 0.972508
vt 0.316224 0.986456
vt 0.321373 0.991605
vt 0.321373 0.974333
vt 0.306339 0.986986
vt 0.308818 0.969344
vt 0.304352 0.977964
vt 0.435325 0.496481
vt 0.437899 0.498368
vt 0.435049 0.496757
vt 0.446365 0.489625
vt 0.446742 0.493907
vt 0.446365 0.493808
vt 0.444855 0.496481
vt 0.442281 0.498368
vt 0.442181 0.497991
vt 0.442181 0.485442
vt 0.437899 0.485065
vt 0.442281 0.485065
vt 0.445130 0.496757
vt 0.444855 0.486952
vt 0.446742 0.489526
vt 0.445130 0.486676
vt 0.433815 0.489625
vt 0.433438 0.493907
vt 0.433438 0.489526
vt 0.435325 0.486952
vt 0.437998 0.485442
vt 0.435049 0.486676
vt 0.433815 0.493808
vt 0.437998 0.497991
vt 0.443723 0.489587
vt 0.440438 0.486775
vt 0.443659 0.486737
vt 0.443353 0.494319
vt 0.440132 0.489951
vt 0.443353 0.489938
vt 0.443723 0.493969
vt 0.440438 0.496781
vt 0.440501 0.493955
vt 0.440121 0.493969
vt 0.436899 0.489601
vt 0.440121 0.489587
vt 0.440069 0.487125
vt 0.443289 0.487088
vt 0.440069 0.497132
vt 0.440132 0.494306
vt 0.436836 0.486775
vt 0.440056 0.486737
vt 0.439751 0.489938
vt 0.436530 0.494306
vt 0.436530 0.489951
vt 0.436836 0.496781
vt 0.436899 0.493955
vt 0.435523 0.466210
vt 0.433699 0.468035
vt 0.432496 0.465906
vt 0.435523 0.462027
vt 0.433699 0.460202
vt 0.435827 0.459000
vt 0.432496 0.462331
vt 0.442733 0.462331
vt 0.439706 0.466210
vt 0.439706 0.462027
vt 0.441531 0.460202
vt 0.439402 0.459000
vt 0.441531 0.468035
vt 0.442733 0.465906
vt 0.439402 0.469237
vt 0.440501 0.489601
vt 0.439751 0.494319
vt 0.436466 0.497132
vt 0.436466 0.487125
vt 0.439687 0.487088
vt 0.443991 0.495718
vt 0.442252 0.498403
vt 0.441863 0.496921
vt 0.443991 0.487886
vt 0.446676 0.489625
vt 0.445194 0.490015
vt 0.436159 0.487886
vt 0.437898 0.485202
vt 0.438288 0.486684
vt 0.436159 0.495718
vt 0.433475 0.493979
vt 0.434957 0.493590
vt 0.446676 0.493979
vt 0.445078 0.496805
vt 0.445194 0.493590
vt 0.433475 0.489625
vt 0.435072 0.486799
vt 0.434957 0.490015
vt 0.437898 0.498403
vt 0.435072 0.496805
vt 0.438288 0.496921
vt 0.442252 0.485202
vt 0.445078 0.486799
vt 0.441863 0.486684
vt 0.323984 0.978253
vt 0.300324 0.894042
vt 0.323364 0.894042
vt 0.338089 0.894373
vt 0.323402 0.894042
vt 0.299742 0.978253
vt 0.300361 0.894042
vt 0.338126 0.894373
vt 0.324021 0.978253
vt 0.324058 0.978638
vt 0.300399 0.894427
vt 0.323439 0.894427
vt 0.338163 0.894759
vt 0.324251 0.978317
vt 0.300591 0.894106
vt 0.323631 0.894106
vt 0.338356 0.894438
vt 0.299972 0.978317
vt 0.285867 0.894438
vt 0.285637 0.894373
vt 0.299779 0.978638
vt 0.285674 0.894759
vt 0.299705 0.978253
vt 0.285600 0.894373
vt 0.324599 0.977023
vt 0.300858 0.991268
vt 0.300320 0.977023
vt 0.338888 0.991601
vt 0.340115 0.977372
vt 0.448982 0.476349
vt 0.425242 0.462104
vt 0.449521 0.462104
vt 0.463810 0.476683
vt 0.465037 0.462453
vt 0.449020 0.476734
vt 0.425279 0.462489
vt 0.449558 0.462489
vt 0.338962 0.991987
vt 0.324673 0.977408
vt 0.340189 0.977757
vt 0.449751 0.462168
vt 0.426010 0.476413
vt 0.425472 0.462168
vt 0.464040 0.476747
vt 0.465266 0.462517
vt 0.411183 0.476747
vt 0.409956 0.462517
vt 0.410953 0.476683
vt 0.409726 0.462453
vt 0.410990 0.477068
vt 0.409764 0.462838
vt 0.286031 0.991601
vt 0.284804 0.977372
vt 0.300361 0.994635
vt 0.300591 0.994699
vt 0.323439 0.995020
vt 0.323364 0.994635
vt 0.443659 0.496819
vt 0.443289 0.497169
vt 0.440056 0.496819
vt 0.435827 0.469237
vt 0.439687 0.497169
vt 0.339499 0.978602
vt 0.339537 0.978602
vt 0.339574 0.978988
vt 0.339766 0.978667
vt 0.284456 0.978667
vt 0.284226 0.978602
vt 0.284264 0.978988
vt 0.284189 0.978602
vt 0.324060 0.991268
vt 0.425780 0.476349
vt 0.425818 0.476734
vt 0.324135 0.991653
vt 0.449212 0.476413
s 0
g medication_bottle_Material
usemtl Material
f 116/1/1 4/2/1 106/3/1
f 112/4/2 8/5/2 107/6/2
f 114/7/3 6/8/3 108/9/3
f 110/10/4 2/11/4 105/12/4
f 14/13/5 38/14/5 35/15/5
f 4/16/6 49/17/6 11/18/6
f 20/19/7 51/20/7 28/21/7
f 8/22/8 52/23/8 23/24/8
f 18/25/9 30/26/9 1/27/9
f 14/13/10 36/28/10 5/29/10
f 6/30/11 109/31/11 108/32/11
f 15/33/12 110/10/12 109/31/12
f 4/34/13 111/35/13 106/36/13
f 111/35/14 12/37/14 112/4/14
f 9/38/15 31/39/15 10/40/15
f 13/41/16 30/26/16 38/14/16
f 22/42/17 42/43/17 33/44/17
f 9/38/18 34/45/18 37/46/18
f 2/47/19 51/20/19 19/48/19
f 15/49/20 47/50/20 16/51/20
f 4/16/21 28/21/21 27/52/21
f 8/22/22 26/53/22 25/54/22
f 12/55/23 49/17/23 26/53/23
f 6/56/24 45/57/24 46/58/24
f 17/59/25 29/60/25 18/25/25
f 21/61/26 36/28/26 42/43/26
f 8/62/27 113/63/27 107/64/27
f 23/65/28 114/7/28 113/63/28
f 2/66/29 115/67/29 105/68/29
f 115/67/30 20/69/30 116/1/30
f 40/70/31 36/28/31 35/15/31
f 39/71/31 30/26/31 29/60/31
f 40/70/31 38/14/31 39/71/31
f 37/46/31 43/72/31 31/39/31
f 43/72/31 40/70/31 39/71/31
f 32/73/31 43/72/31 41/74/31
f 41/74/31 39/71/31 29/60/31
f 34/45/31 44/75/31 37/46/31
f 44/75/31 42/43/31 40/70/31
f 22/42/32 34/45/32 7/76/32
f 10/40/33 32/73/33 3/77/33
f 17/59/34 32/73/34 41/74/34
f 2/47/35 47/50/35 48/78/35
f 23/24/36 45/57/36 24/79/36
f 6/56/37 50/80/37 15/49/37
f 25/81/38 55/82/38 56/83/38
f 51/84/39 53/85/39 28/86/39
f 27/87/40 61/88/40 49/89/40
f 47/90/41 62/91/41 59/92/41
f 27/87/42 53/85/42 54/93/42
f 48/94/43 65/95/43 51/84/43
f 48/94/44 59/92/44 60/96/44
f 45/97/45 66/98/45 57/99/45
f 46/100/46 62/91/46 50/101/46
f 46/100/47 57/99/47 58/102/47
f 25/81/48 66/98/48 52/103/48
f 26/104/49 61/88/49 55/82/49
f 55/105/50 63/106/50 56/107/50
f 65/108/51 69/109/51 53/110/51
f 61/111/52 68/112/52 67/113/52
f 62/114/53 72/115/53 59/116/53
f 53/110/54 68/117/54 54/118/54
f 65/108/55 71/119/55 70/120/55
f 59/116/56 71/121/56 60/122/56
f 57/123/57 74/124/57 73/125/57
f 62/114/58 76/126/58 75/127/58
f 79/128/59 92/129/59 80/130/59
f 77/131/60 91/132/60 86/133/60
f 79/128/61 78/134/61 77/131/61
f 81/135/62 84/136/62 82/137/62
f 84/136/63 77/131/63 82/137/63
f 90/138/64 82/137/64 85/139/64
f 85/139/65 77/131/65 86/133/65
f 89/140/66 84/136/66 83/141/66
f 87/142/67 79/128/67 84/136/67
f 55/105/68 67/113/68 64/143/68
f 66/144/69 63/145/69 74/124/69
f 57/123/70 76/146/70 58/147/70
f 89/148/71 69/149/71 87/150/71
f 90/151/72 64/152/72 81/153/72
f 91/154/73 73/155/73 86/156/73
f 92/157/74 72/158/74 80/159/74
f 89/148/75 67/160/75 68/161/75
f 81/153/76 67/160/76 83/162/76
f 91/154/77 75/163/77 76/164/77
f 78/165/78 72/158/78 75/163/78
f 92/157/79 70/166/79 71/167/79
f 88/168/80 69/149/80 70/166/80
f 90/151/81 74/169/81 63/170/81
f 86/156/82 74/169/82 85/171/82
f 103/172/83 17/173/83 18/174/83
f 1/175/84 103/172/84 18/174/84
f 22/176/85 102/177/85 21/178/85
f 7/179/86 101/180/86 22/176/86
f 99/181/87 9/182/87 10/183/87
f 3/184/88 99/181/88 10/183/88
f 97/185/89 13/186/89 14/187/89
f 5/188/90 97/185/90 14/187/90
f 98/189/91 1/190/91 13/186/91
f 102/177/92 5/191/92 21/178/92
f 100/192/93 7/193/93 9/182/93
f 104/194/94 3/195/94 17/173/94
f 103/196/95 116/197/95 104/198/95
f 105/199/96 103/196/96 93/200/96
f 113/201/97 102/202/97 101/203/97
f 107/204/98 101/203/98 95/205/98
f 111/206/99 100/207/99 99/208/99
f 106/209/100 99/210/100 94/211/100
f 97/212/101 110/213/101 98/214/101
f 108/215/102 97/212/102 96/216/102
f 98/214/103 105/217/103 93/218/103
f 102/202/104 108/219/104 96/220/104
f 100/207/105 107/221/105 95/222/105
f 104/198/106 106/223/106 94/224/106
f 116/1/107 20/69/107 4/2/107
f 112/4/2 12/37/2 8/5/2
f 114/7/108 24/225/108 6/8/108
f 110/10/109 16/226/109 2/11/109
f 14/13/5 13/41/5 38/14/5
f 4/16/110 27/52/110 49/17/110
f 20/19/7 19/48/7 51/20/7
f 8/22/111 25/54/111 52/23/111
f 18/25/112 29/60/112 30/26/112
f 14/13/113 35/15/113 36/28/113
f 6/30/114 15/33/114 109/31/114
f 15/33/12 16/226/12 110/10/12
f 4/34/115 11/227/115 111/35/115
f 111/35/14 11/227/14 12/37/14
f 9/38/15 37/46/15 31/39/15
f 13/41/16 1/27/16 30/26/16
f 22/42/17 21/61/17 42/43/17
f 9/38/116 7/76/116 34/45/116
f 2/47/117 48/78/117 51/20/117
f 15/49/20 50/80/20 47/50/20
f 4/16/118 20/19/118 28/21/118
f 8/22/119 12/55/119 26/53/119
f 12/55/23 11/18/23 49/17/23
f 6/56/120 24/79/120 45/57/120
f 17/59/25 41/74/25 29/60/25
f 21/61/121 5/29/121 36/28/121
f 8/62/122 23/65/122 113/63/122
f 23/65/28 24/225/28 114/7/28
f 2/66/29 19/228/29 115/67/29
f 115/67/30 19/228/30 20/69/30
f 40/70/31 42/43/31 36/28/31
f 39/71/31 38/14/31 30/26/31
f 40/70/31 35/15/31 38/14/31
f 37/46/31 44/75/31 43/72/31
f 43/72/31 44/75/31 40/70/31
f 32/73/31 31/39/31 43/72/31
f 41/74/31 43/72/31 39/71/31
f 34/45/31 33/44/31 44/75/31
f 44/75/31 33/44/31 42/43/31
f 22/42/32 33/44/32 34/45/32
f 10/40/33 31/39/33 32/73/33
f 17/59/123 3/77/123 32/73/123
f 2/47/124 16/51/124 47/50/124
f 23/24/125 52/23/125 45/57/125
f 6/56/37 46/58/37 50/80/37
f 25/81/126 26/104/126 55/82/126
f 51/84/39 65/95/39 53/85/39
f 27/87/127 54/93/127 61/88/127
f 47/90/41 50/101/41 62/91/41
f 27/87/128 28/86/128 53/85/128
f 48/94/129 60/96/129 65/95/129
f 48/94/130 47/90/130 59/92/130
f 45/97/45 52/103/45 66/98/45
f 46/100/131 58/102/131 62/91/131
f 46/100/132 45/97/132 57/99/132
f 25/81/133 56/83/133 66/98/133
f 26/104/49 49/89/49 61/88/49
f 55/105/134 64/143/134 63/106/134
f 65/108/51 70/120/51 69/109/51
f 61/111/135 54/229/135 68/112/135
f 62/114/53 75/127/53 72/115/53
f 53/110/136 69/109/136 68/117/136
f 65/108/137 60/230/137 71/119/137
f 59/116/138 72/115/138 71/121/138
f 57/123/57 66/144/57 74/124/57
f 62/114/139 58/231/139 76/126/139
f 79/128/140 88/232/140 92/129/140
f 77/131/141 78/134/141 91/132/141
f 79/128/61 80/130/61 78/134/61
f 81/135/62 83/141/62 84/136/62
f 84/136/63 79/128/63 77/131/63
f 90/138/142 81/135/142 82/137/142
f 85/139/65 82/137/65 77/131/65
f 89/140/143 87/142/143 84/136/143
f 87/142/67 88/232/67 79/128/67
f 55/105/68 61/111/68 67/113/68
f 66/144/144 56/233/144 63/145/144
f 57/123/145 73/125/145 76/146/145
f 89/148/146 68/161/146 69/149/146
f 90/151/147 63/170/147 64/152/147
f 91/154/148 76/164/148 73/155/148
f 92/157/149 71/167/149 72/158/149
f 89/148/150 83/162/150 67/160/150
f 81/153/76 64/152/76 67/160/76
f 91/154/151 78/165/151 75/163/151
f 78/165/78 80/159/78 72/158/78
f 92/157/152 88/168/152 70/166/152
f 88/168/80 87/150/80 69/149/80
f 90/151/153 85/171/153 74/169/153
f 86/156/82 73/155/82 74/169/82
f 103/172/83 104/194/83 17/173/83
f 1/175/84 93/234/84 103/172/84
f 22/176/85 101/180/85 102/177/85
f 7/179/154 95/235/154 101/180/154
f 99/181/87 100/192/87 9/182/87
f 3/184/88 94/236/88 99/181/88
f 97/185/89 98/189/89 13/186/89
f 5/188/90 96/237/90 97/185/90
f 98/189/155 93/238/155 1/190/155
f 102/177/92 96/239/92 5/191/92
f 100/192/156 95/240/156 7/193/156
f 104/194/157 94/241/157 3/195/157
f 103/196/95 115/242/95 116/197/95
f 105/199/96 115/242/96 103/196/96
f 113/201/97 114/243/97 102/202/97
f 107/204/98 113/201/98 101/203/98
f 111/206/99 112/244/99 100/207/99
f 106/209/100 111/245/100 99/210/100
f 97/212/101 109/246/101 110/213/101
f 108/215/158 109/246/158 97/212/158
f 98/214/159 110/213/159 105/217/159
f 102/202/104 114/243/104 108/219/104
f 100/207/105 112/244/105 107/221/105
f 104/198/106 116/197/106 106/223/106
