# Blender 4.2.1 LTS
# www.blender.org
mtllib pressure_gauge.mtl
g bag_Mesh
v 0.073145 0.007830 0.088561
v 0.073145 0.029858 0.088561
v -0.091654 0.007830 0.075859
v -0.091654 0.029858 0.075859
v 0.084694 0.007830 -0.081478
v 0.084694 0.029858 -0.081478
v -0.069430 0.007830 -0.099693
v -0.069430 0.029858 -0.099693
v -0.075907 0.007830 0.084661
v 0.055385 0.007830 0.093131
v 0.055385 0.029858 0.093131
v -0.075907 0.029858 0.084661
v 0.068070 0.007830 -0.083692
v -0.056486 0.007830 -0.102823
v -0.056486 0.029858 -0.102823
v 0.068070 0.029858 -0.083692
v -0.075679 0.007830 -0.085750
v -0.095158 0.007830 0.055301
v -0.095158 0.029858 0.055301
v -0.075679 0.029858 -0.085750
v 0.075713 0.007830 0.069273
v 0.096314 0.007830 -0.062844
v 0.096314 0.029858 -0.062844
v 0.075713 0.029858 0.069273
v -0.067189 0.038768 0.071278
v -0.059054 0.038768 -0.083536
v 0.057954 0.038768 0.073843
v 0.066773 0.038768 -0.063542
v -0.059054 -0.001079 -0.083536
v -0.067189 -0.001079 0.071278
v 0.066773 -0.001079 -0.063542
v 0.057954 -0.001079 0.073843
v -0.018784 0.007830 0.089957
v 0.032159 0.007830 0.096741
v 0.032159 0.029858 0.096741
v -0.018784 0.029858 0.089957
v 0.046069 0.007830 -0.087547
v 0.005998 0.007830 -0.096120
v 0.005998 0.029858 -0.096120
v 0.046069 0.029858 -0.087547
v -0.016215 -0.001079 0.070669
v 0.034727 -0.001079 0.077454
v 0.003430 -0.001079 -0.076833
v 0.040138 -0.001079 -0.067320
v 0.003430 0.038768 -0.076833
v 0.040138 0.038768 -0.067320
v -0.016215 0.038768 0.070669
v 0.034727 0.038768 0.077454
v -0.048569 0.029858 0.094081
v -0.018185 0.007830 -0.099341
v -0.048569 0.007830 0.094081
v -0.018185 0.029858 -0.099341
v -0.046000 -0.001079 0.074794
v -0.020754 -0.001079 -0.080053
v -0.020754 0.038768 -0.080053
v -0.046000 0.038768 0.074794
v -0.094846 0.007830 -0.009535
v -0.100259 0.007830 0.032848
v -0.100259 0.029858 0.032848
v -0.094846 0.029858 -0.009535
v 0.077958 0.007830 0.052423
v 0.093397 0.007830 0.018079
v 0.093397 0.029858 0.018079
v 0.077958 0.029858 0.052423
v -0.082603 0.038768 0.044678
v -0.082250 0.038768 -0.015255
v 0.060198 0.038768 0.056993
v 0.076772 0.038768 0.015865
v -0.082250 -0.001079 -0.015255
v -0.082603 -0.001079 0.044678
v 0.076772 -0.001079 0.015865
v 0.060198 -0.001079 0.056993
v -0.013971 0.038768 0.053819
v -0.007422 0.038768 0.004651
v 0.036972 0.038768 0.060603
v 0.043520 0.038768 0.011436
v -0.007422 -0.001079 0.004651
v -0.013971 -0.001079 0.053819
v 0.043520 -0.001079 0.011436
v 0.036972 -0.001079 0.060603
v -0.031606 -0.001079 0.001431
v -0.043756 -0.001079 0.057943
v -0.043756 0.038768 0.057943
v -0.031606 0.038768 0.001431
v -0.084257 0.029858 -0.069948
v 0.102183 0.007830 -0.047892
v -0.061482 0.038768 -0.054894
v 0.072642 0.038768 -0.048590
v 0.001364 0.038768 -0.061319
v 0.038072 0.038768 -0.051807
v -0.022820 0.038768 -0.064540
v -0.084257 0.007830 -0.069948
v 0.102183 0.029858 -0.047892
v -0.061482 -0.001079 -0.054894
v 0.072642 -0.001079 -0.048590
v 0.001364 -0.001079 -0.061319
v 0.038072 -0.001079 -0.051807
v -0.022820 -0.001079 -0.064540
v 0.073145 0.015173 0.088561
v 0.073145 0.022516 0.088561
v -0.091654 0.022516 0.075859
v -0.091654 0.015173 0.075859
v -0.069430 0.022516 -0.099693
v -0.069430 0.015173 -0.099693
v 0.084694 0.022516 -0.081478
v 0.084694 0.015173 -0.081478
v -0.056486 0.022516 -0.102823
v -0.056486 0.015173 -0.102823
v 0.068070 0.022516 -0.083692
v 0.068070 0.015173 -0.083692
v 0.055385 0.022516 0.093131
v 0.055385 0.015173 0.093131
v -0.075907 0.022516 0.084661
v -0.075907 0.015173 0.084661
v 0.096314 0.022516 -0.062844
v 0.096314 0.015173 -0.062844
v 0.075713 0.022516 0.069273
v 0.075713 0.015173 0.069273
v -0.095158 0.022516 0.055301
v -0.095158 0.015173 0.055301
v -0.075679 0.022516 -0.085750
v -0.075679 0.015173 -0.085750
v 0.032159 0.022516 0.096741
v 0.032159 0.015173 0.096741
v -0.018784 0.022516 0.089957
v -0.018784 0.015173 0.089957
v 0.005998 0.022516 -0.096120
v 0.005998 0.015173 -0.096120
v 0.046069 0.022516 -0.087547
v 0.046069 0.015173 -0.087547
v -0.018185 0.022516 -0.099341
v -0.018185 0.015173 -0.099341
v -0.048569 0.022516 0.094081
v -0.048569 0.015173 0.094081
v -0.100259 0.022516 0.032848
v -0.100259 0.015173 0.032848
v -0.094846 0.022516 -0.009535
v -0.094846 0.015173 -0.009535
v 0.093397 0.022516 0.018079
v 0.093397 0.015173 0.018079
v 0.077958 0.022516 0.052423
v 0.077958 0.015173 0.052423
v 0.102183 0.022516 -0.047892
v 0.102183 0.015173 -0.047892
v -0.084257 0.022516 -0.069948
v -0.084257 0.015173 -0.069948
v 0.069937 0.015173 0.085715
v 0.069937 0.022516 0.085715
v -0.088152 0.022516 0.073386
v -0.088152 0.015173 0.073386
v -0.066690 0.022516 -0.096395
v -0.066690 0.015173 -0.096395
v 0.082370 0.022516 -0.077874
v 0.082370 0.015173 -0.077874
v -0.056172 0.022516 -0.098547
v -0.056172 0.015173 -0.098547
v 0.067416 0.022516 -0.079454
v 0.067416 0.015173 -0.079454
v 0.054520 0.022516 0.088931
v 0.054520 0.015173 0.088931
v -0.074156 0.022516 0.080747
v -0.074156 0.015173 0.080747
v 0.092483 0.022516 -0.060918
v 0.092483 0.015173 -0.060918
v 0.071463 0.022516 0.068707
v 0.071463 0.015173 0.068707
v -0.090953 0.022516 0.054465
v -0.090953 0.015173 0.054465
v -0.071836 0.022516 -0.083849
v -0.071836 0.015173 -0.083849
v 0.031500 0.022516 0.092504
v 0.031500 0.015173 0.092504
v 0.005266 0.022516 -0.091895
v 0.005266 0.015173 -0.091895
v 0.045250 0.022516 -0.083338
v 0.045250 0.015173 -0.083338
v -0.018662 0.022516 -0.095079
v -0.018662 0.015173 -0.095079
v -0.047172 0.022516 0.090027
v -0.047172 0.015173 0.090027
v -0.095976 0.022516 0.032642
v -0.095976 0.015173 0.032642
v -0.090606 0.022516 -0.008893
v -0.090606 0.015173 -0.008893
v 0.089273 0.022516 0.016904
v 0.089273 0.015173 0.016904
v 0.073834 0.022516 0.051248
v 0.073834 0.015173 0.051248
v 0.097926 0.022516 -0.047375
v 0.097926 0.015173 -0.047375
v -0.080208 0.022516 -0.068537
v -0.080208 0.015173 -0.068537
vn -0.4879 -0.0000 0.8729
vn -0.9125 -0.0000 -0.4090
vn 0.1320 -0.0000 -0.9912
vn 0.9912 -0.0000 0.1320
vn 0.2880 -0.9407 -0.1796
vn 0.4601 0.8857 0.0613
vn -0.3323 0.9415 0.0566
vn 0.0662 0.9024 0.4257
vn -0.4424 -0.8746 -0.1983
vn 0.0552 -0.9196 -0.3889
vn -0.2351 -0.0000 -0.9720
vn 0.1726 -0.0000 -0.9850
vn 0.2492 -0.0000 0.9684
vn -0.3258 -0.0000 0.9454
vn 0.0662 -0.9024 0.4257
vn -0.0000 -1.0000 -0.0000
vn -0.2381 -0.8728 0.4260
vn -0.3472 -0.9373 -0.0294
vn 0.0700 0.9140 -0.3996
vn -0.0000 1.0000 -0.0000
vn -0.1036 0.8976 -0.4285
vn -0.5081 0.8535 0.1154
vn 0.0534 0.9145 -0.4010
vn 0.1104 -0.8966 0.4289
vn 0.2893 -0.9505 -0.1136
vn 0.8485 -0.0000 -0.5291
vn -0.9858 -0.0000 0.1680
vn -0.8789 -0.0000 -0.4771
vn 0.0550 0.9092 -0.4127
vn 0.0873 0.9087 -0.4082
vn 0.0589 -0.9032 0.4251
vn -0.0550 -0.9092 0.4127
vn 0.1536 -0.0000 0.9881
vn -0.1320 -0.0000 0.9912
vn 0.2092 -0.0000 -0.9779
vn 0.0550 -0.9092 -0.4127
vn 0.0977 -0.9210 -0.3771
vn 0.0589 0.9032 0.4251
vn -0.0550 0.9092 0.4127
vn -0.0682 0.9091 0.4109
vn 0.0377 -0.9091 -0.4149
vn 0.0906 -0.0000 -0.9959
vn -0.1624 -0.8669 0.4713
vn 0.0377 0.9091 -0.4149
vn 0.1372 -0.0000 0.9905
vn -0.9752 -0.0000 0.2215
vn -0.9919 -0.0000 -0.1267
vn 0.9121 -0.0000 0.4100
vn 0.4601 -0.8857 0.0613
vn 0.4792 -0.8562 0.1931
vn 0.2891 0.9571 -0.0185
vn 0.4422 0.8746 0.1988
vn -0.2761 0.9502 -0.1447
vn -0.5987 0.7973 -0.0765
vn -0.4172 -0.8761 0.2417
vn -0.4491 -0.8935 -0.0026
vn -0.4345 0.8693 -0.2358
vn 0.2893 0.9505 -0.1136
vn 0.9309 -0.0000 -0.3654
vn -0.9850 -0.0000 -0.1726
vn 0.4650 -0.8831 0.0619
vn -0.6059 -0.7884 -0.1062
vn 0.2492 -0.0000 0.9685
vn 0.9881 -0.0000 -0.1536
vn -0.9851 -0.0000 -0.1717
vn 0.9279 -0.0000 -0.3729
vn 0.9911 -0.0000 0.1334
vn -0.9917 -0.0000 -0.1282
vn -0.9745 -0.0000 0.2243
vn 0.0921 -0.0000 -0.9958
vn 0.2093 -0.0000 -0.9779
vn 0.1319 -0.0000 -0.9913
vn 0.1534 -0.0000 0.9882
vn -0.8774 -0.0000 -0.4797
vn -0.9892 -0.0000 0.1464
vn 0.9909 -0.0000 0.1345
vn 0.8589 -0.0000 -0.5122
vn -0.3252 -0.0000 0.9456
vn 0.2042 -0.0000 0.9789
vn -0.2005 -0.0000 -0.9797
vn 0.9960 -0.0000 0.0894
vn 0.1051 -0.0000 -0.9945
vn -0.9252 -0.0000 -0.3795
vn -0.4655 -0.0000 0.8851
vn -0.9454 -0.0000 -0.3258
vn 0.0534 -0.9145 -0.4010
vn 0.1104 0.8966 0.4289
vn -0.2381 0.8728 0.4260
vn -0.1036 -0.8976 -0.4285
vn 0.0700 -0.9140 -0.3996
vn -0.3323 -0.9415 0.0566
vn -0.4345 -0.8693 -0.2358
vn 0.0552 0.9196 -0.3889
vn -0.4424 0.8746 -0.1983
vn -0.4172 0.8761 0.2417
vn 0.2880 0.9407 -0.1796
vn 0.0977 0.9210 -0.3771
vn 0.0873 -0.9087 -0.4082
vn -0.1624 0.8669 0.4713
vn -0.0682 -0.9091 0.4109
vn 0.4422 -0.8746 0.1988
vn 0.4650 0.8831 0.0619
vn 0.4792 0.8562 0.1931
vn -0.6059 0.7884 -0.1062
vn -0.4491 0.8935 -0.0026
vn -0.5081 -0.8535 0.1154
vn -0.5987 -0.7973 -0.0765
vn -0.3472 0.9373 -0.0294
vn 0.2891 -0.9571 -0.0185
vn -0.2761 -0.9502 -0.1447
vt 0.532827 0.193983
vt 0.533642 0.192342
vt 0.533642 0.193983
vt 0.542583 0.202119
vt 0.542487 0.201412
vt 0.542842 0.201948
vt 0.543611 0.207005
vt 0.543664 0.206523
vt 0.543870 0.206834
vt 0.540275 0.201967
vt 0.540147 0.201211
vt 0.540534 0.201795
vt 0.535067 0.214366
vt 0.533360 0.216599
vt 0.531810 0.214720
vt 0.538935 0.209882
vt 0.537050 0.211279
vt 0.537050 0.209121
vt 0.555356 0.212296
vt 0.552732 0.211433
vt 0.556042 0.210087
vt 0.541436 0.210619
vt 0.538936 0.212042
vt 0.550573 0.216345
vt 0.549194 0.214722
vt 0.551055 0.214720
vt 0.537696 0.216701
vt 0.538050 0.214391
vt 0.542228 0.201584
vt 0.542327 0.201170
vt 0.543903 0.207446
vt 0.544162 0.207274
vt 0.532827 0.210392
vt 0.533642 0.208381
vt 0.533642 0.210392
vt 0.532827 0.196897
vt 0.533642 0.196897
vt 0.536525 0.198394
vt 0.534026 0.196972
vt 0.536527 0.196235
vt 0.538050 0.212655
vt 0.534202 0.212808
vt 0.550445 0.196718
vt 0.547821 0.197581
vt 0.548585 0.195981
vt 0.551767 0.212857
vt 0.549041 0.211537
vt 0.542606 0.192313
vt 0.539977 0.194648
vt 0.540131 0.192414
vt 0.541436 0.208734
vt 0.538935 0.207997
vt 0.555483 0.192669
vt 0.554104 0.194292
vt 0.554106 0.192135
vt 0.554816 0.208734
vt 0.556932 0.207693
vt 0.538270 0.192414
vt 0.537050 0.207235
vt 0.534024 0.199131
vt 0.532140 0.197734
vt 0.530945 0.213162
vt 0.543405 0.206695
vt 0.543156 0.205756
vt 0.540613 0.202477
vt 0.540872 0.202306
vt 0.546296 0.207728
vt 0.546121 0.206902
vt 0.546555 0.207557
vt 0.542995 0.202742
vt 0.543254 0.202570
vt 0.550351 0.209623
vt 0.547136 0.210619
vt 0.547136 0.208734
vt 0.549842 0.194114
vt 0.547137 0.191957
vt 0.549843 0.191957
vt 0.547136 0.194114
vt 0.544932 0.214899
vt 0.542226 0.213164
vt 0.544932 0.213164
vt 0.545440 0.197504
vt 0.542227 0.196235
vt 0.545441 0.195345
vt 0.542226 0.198394
vt 0.532827 0.208381
vt 0.533642 0.205778
vt 0.532827 0.205778
vt 0.533642 0.200230
vt 0.544766 0.208750
vt 0.544726 0.208127
vt 0.545025 0.208579
vt 0.544467 0.208299
vt 0.542227 0.217057
vt 0.542226 0.214899
vt 0.550351 0.211509
vt 0.547137 0.212779
vt 0.550352 0.213668
vt 0.549195 0.216879
vt 0.545205 0.209414
vt 0.545464 0.209242
vt 0.532827 0.200230
vt 0.553952 0.197477
vt 0.549842 0.203232
vt 0.549842 0.195850
vt 0.555655 0.202139
vt 0.545440 0.199390
vt 0.549906 0.200280
vt 0.544932 0.205781
vt 0.536525 0.200280
vt 0.542226 0.200280
vt 0.536525 0.205781
vt 0.547136 0.203232
vt 0.542961 0.196358
vt 0.547136 0.195850
vt 0.541436 0.203232
vt 0.545862 0.207073
vt 0.545657 0.206200
vt 0.545398 0.206371
vt 0.544674 0.204716
vt 0.542522 0.205361
vt 0.541458 0.203190
vt 0.542781 0.205189
vt 0.541199 0.203362
vt 0.534024 0.201017
vt 0.532140 0.199893
vt 0.532804 0.205781
vt 0.532140 0.201778
vt 0.537715 0.203232
vt 0.535856 0.195851
vt 0.539113 0.196206
vt 0.535856 0.203233
vt 0.556678 0.196156
vt 0.556957 0.202954
vt 0.551132 0.198927
vt 0.552021 0.201321
vt 0.550744 0.206874
vt 0.542961 0.194622
vt 0.555966 0.194293
vt 0.536720 0.194293
vt 0.542897 0.205927
vt 0.542226 0.205781
vt 0.544415 0.204887
vt 0.530945 0.205780
vt 0.552047 0.206060
vt 0.531857 0.202581
vt 0.532671 0.195836
vt 0.532671 0.202581
vt 0.538252 0.191691
vt 0.535908 0.192877
vt 0.535752 0.192428
vt 0.544530 0.206042
vt 0.544414 0.205304
vt 0.544789 0.205870
vt 0.540038 0.192239
vt 0.542542 0.192612
vt 0.540048 0.192715
vt 0.542831 0.203476
vt 0.542505 0.202420
vt 0.543090 0.203305
vt 0.553773 0.201516
vt 0.553279 0.196862
vt 0.553747 0.196776
vt 0.544155 0.205476
vt 0.541344 0.212604
vt 0.539000 0.211417
vt 0.541479 0.212147
vt 0.531857 0.207246
vt 0.532671 0.207246
vt 0.534260 0.193456
vt 0.533866 0.193190
vt 0.531857 0.209452
vt 0.532671 0.209452
vt 0.556865 0.202778
vt 0.556371 0.207432
vt 0.556389 0.202787
vt 0.534456 0.200230
vt 0.535271 0.196897
vt 0.535271 0.200230
vt 0.534456 0.196897
vt 0.546838 0.209528
vt 0.546658 0.208693
vt 0.547097 0.209357
vt 0.538844 0.211866
vt 0.537352 0.210838
vt 0.546099 0.208413
vt 0.545794 0.207389
vt 0.546359 0.208242
vt 0.532671 0.201236
vt 0.533132 0.208499
vt 0.532671 0.208618
vt 0.546398 0.208865
vt 0.550311 0.191436
vt 0.551822 0.192497
vt 0.550176 0.191892
vt 0.534456 0.205778
vt 0.535271 0.205778
vt 0.534456 0.208381
vt 0.535271 0.208381
vt 0.547167 0.190801
vt 0.547073 0.191267
vt 0.531857 0.195836
vt 0.532671 0.193878
vt 0.535763 0.203058
vt 0.536224 0.195795
vt 0.536234 0.202989
vt 0.531857 0.211510
vt 0.532671 0.211510
vt 0.553403 0.212858
vt 0.554914 0.211797
vt 0.555263 0.212121
vt 0.542246 0.202592
vt 0.542167 0.201910
vt 0.546659 0.212512
vt 0.543971 0.212037
vt 0.546649 0.212037
vt 0.545038 0.206809
vt 0.545297 0.206638
vt 0.550259 0.213493
vt 0.553268 0.212402
vt 0.535271 0.193983
vt 0.533866 0.197234
vt 0.533142 0.201305
vt 0.534456 0.210392
vt 0.535271 0.210392
vt 0.552781 0.210176
vt 0.551949 0.211478
vt 0.552331 0.210023
vt 0.545535 0.207561
vt 0.545502 0.206948
vt 0.549751 0.191782
vt 0.547063 0.192257
vt 0.547045 0.191782
vt 0.531857 0.192195
vt 0.532671 0.191433
vt 0.532671 0.192195
vt 0.533535 0.210176
vt 0.535289 0.211625
vt 0.535086 0.212055
vt 0.541908 0.202081
vt 0.541780 0.201325
vt 0.536958 0.207060
vt 0.537428 0.206991
vt 0.545243 0.207120
vt 0.545722 0.206999
vt 0.545404 0.206836
vt 0.545550 0.206739
vt 0.531857 0.193878
vt 0.555873 0.194118
vt 0.555041 0.192816
vt 0.555390 0.192493
vt 0.534456 0.193983
vt 0.535271 0.192342
vt 0.539422 0.212157
vt 0.543953 0.212512
vt 0.546716 0.208565
vt 0.545573 0.206276
vt 0.546975 0.208394
vt 0.542259 0.201832
vt 0.542177 0.201146
vt 0.542518 0.201660
vt 0.540629 0.199370
vt 0.540303 0.198314
vt 0.540888 0.199199
vt 0.541918 0.201317
vt 0.547679 0.210020
vt 0.547939 0.209849
vt 0.548131 0.210701
vt 0.548390 0.210530
vt 0.544477 0.205183
vt 0.544305 0.204360
vt 0.544736 0.205011
vt 0.543750 0.204085
vt 0.543446 0.203062
vt 0.544009 0.203913
vt 0.544046 0.204531
vt 0.544072 0.208656
vt 0.543788 0.207663
vt 0.544331 0.208484
vt 0.545314 0.206447
vt 0.545174 0.205672
vt 0.548533 0.211309
vt 0.548792 0.211137
vt 0.540044 0.198486
vt 0.539953 0.197786
vt 0.542717 0.202524
vt 0.542976 0.202352
vt 0.539730 0.202949
vt 0.539384 0.201862
vt 0.539990 0.202777
vt 0.544438 0.209208
vt 0.544697 0.209037
vt 0.543187 0.203234
vt 0.543152 0.202618
vt 0.544599 0.205366
vt 0.544736 0.205011
vt 0.544858 0.205195
vt 0.539694 0.197957
vt 0.539605 0.197260
vt 0.542893 0.202790
vt 0.544914 0.205843
vt 0.539125 0.202034
vt 0.539075 0.201396
vt 0.555950 0.209912
vt 0.556839 0.207518
vt 0.536946 0.212055
vt 0.539450 0.211682
vt 0.556119 0.196077
vt 0.555423 0.194271
vt 0.552858 0.194382
vt 0.552407 0.194536
vt 0.554013 0.191960
vt 0.553916 0.192425
vt 0.553027 0.208217
vt 0.553493 0.208313
vt 0.550921 0.212334
vt 0.552298 0.211801
vt 0.555499 0.209758
vt 0.536958 0.208946
vt 0.536958 0.211104
vt 0.556585 0.195981
vt 0.552171 0.192173
vt 0.544357 0.207595
vt 0.544679 0.207754
vt 0.544528 0.207854
vt 0.549741 0.192257
vt 0.533866 0.195348
vt 0.534341 0.195348
vt 0.553297 0.201507
vt 0.537433 0.208946
vt 0.550824 0.211869
vt 0.538381 0.192669
vt 0.538178 0.192239
vt 0.536627 0.194118
vt 0.535763 0.195676
vt 0.534336 0.197303
vt 0.542514 0.192138
vt 0.536956 0.211579
vt 0.533928 0.209908
vt 0.537020 0.194386
vt 0.532827 0.192342
vt 0.539888 0.201382
vt 0.535220 0.216599
vt 0.553496 0.213033
vt 0.541437 0.212779
vt 0.542068 0.201341
vt 0.544933 0.217057
vt 0.538387 0.192147
vt 0.550165 0.213027
vt 0.531857 0.191433
vt 0.541521 0.201497
vt 0.545576 0.207095
vt 0.534456 0.192342
vt 0.543528 0.207835
vt 0.539346 0.197431
vt 0.538816 0.201568
vt 0.544508 0.207495
s 0
g bag_Material
usemtl Material
f 12/1/1 101/2/1 113/3/1
f 20/4/2 103/5/2 121/6/2
f 16/7/3 105/8/3 109/9/3
f 24/10/4 100/11/4 117/12/4
f 31/13/5 5/14/5 22/15/5
f 27/16/6 2/17/6 24/18/6
f 4/19/7 25/20/7 19/21/7
f 48/22/8 11/23/8 27/16/8
f 7/24/9 29/25/9 17/26/9
f 37/27/10 31/13/10 44/28/10
f 8/29/11 107/30/11 103/5/11
f 40/31/12 109/9/12 129/32/12
f 2/33/13 111/34/13 100/35/13
f 49/36/14 113/3/14 133/37/14
f 42/38/15 10/39/15 34/40/15
f 97/41/16 31/13/16 95/42/16
f 3/43/17 30/44/17 9/45/17
f 92/46/18 29/25/18 94/47/18
f 40/48/19 28/49/19 16/50/19
f 75/51/20 27/16/20 67/52/20
f 8/53/21 26/54/21 15/55/21
f 19/21/22 65/56/22 59/57/22
f 28/49/23 6/58/23 16/50/23
f 67/52/6 24/18/6 64/59/6
f 32/60/24 1/61/24 10/39/24
f 95/42/25 22/15/25 86/62/25
f 6/63/26 115/64/26 105/8/26
f 64/65/4 117/12/4 141/66/4
f 4/67/27 119/68/27 101/69/27
f 85/70/28 121/6/28 145/71/28
f 83/72/20 47/73/20 73/74/20
f 73/74/20 48/22/20 75/51/20
f 55/75/29 39/76/29 52/77/29
f 45/78/30 40/48/30 39/76/30
f 54/79/16 96/80/16 98/81/16
f 96/80/16 44/28/16 97/41/16
f 53/82/31 33/83/31 51/84/31
f 41/85/32 34/40/32 33/83/32
f 11/86/33 123/87/33 111/34/33
f 35/88/34 125/89/34 123/87/34
f 52/90/3 127/91/3 131/92/3
f 39/93/35 129/32/35 127/91/35
f 54/79/36 38/94/36 43/95/36
f 43/95/37 37/27/37 44/28/37
f 56/96/38 36/97/38 47/73/38
f 36/97/39 48/22/39 47/73/39
f 25/20/40 49/98/40 56/96/40
f 14/99/41 54/79/41 29/25/41
f 15/100/42 131/92/42 107/101/42
f 30/44/43 51/84/43 9/45/43
f 29/25/16 98/81/16 94/47/16
f 15/55/44 55/75/44 52/77/44
f 25/20/20 83/72/20 65/56/20
f 36/102/45 133/37/45 125/89/45
f 87/103/20 84/104/20 91/105/20
f 65/56/20 84/104/20 66/106/20
f 30/44/16 82/107/16 53/82/16
f 70/108/16 81/109/16 82/107/16
f 41/85/16 80/110/16 42/38/16
f 78/111/16 79/112/16 80/110/16
f 82/107/16 41/85/16 53/82/16
f 81/109/16 78/111/16 82/107/16
f 74/113/20 90/114/20 89/115/20
f 73/74/20 76/116/20 74/113/20
f 91/105/20 74/113/20 89/115/20
f 84/104/20 73/74/20 74/113/20
f 19/117/46 135/118/46 119/68/46
f 59/119/47 137/120/47 135/118/47
f 93/121/4 139/122/4 143/123/4
f 63/124/48 141/66/48 139/122/48
f 72/125/49 21/126/49 32/60/49
f 71/127/50 61/128/50 72/125/50
f 68/129/51 93/130/51 88/131/51
f 68/129/52 64/59/52 63/132/52
f 85/133/53 66/106/53 87/103/53
f 59/57/54 66/106/54 60/134/54
f 76/116/20 88/131/20 90/114/20
f 76/116/20 67/52/20 68/129/20
f 18/135/55 70/108/55 30/44/55
f 58/136/56 69/137/56 70/108/56
f 80/110/16 32/60/16 42/38/16
f 79/112/16 72/125/16 80/110/16
f 90/114/20 28/49/20 46/138/20
f 85/133/57 26/54/57 20/139/57
f 88/131/58 23/140/58 28/49/58
f 23/141/59 143/123/59 115/64/59
f 91/105/20 45/78/20 55/75/20
f 89/115/20 46/138/20 45/78/20
f 26/54/20 91/105/20 55/75/20
f 94/47/16 81/109/16 69/137/16
f 77/142/16 97/41/16 79/112/16
f 98/81/16 77/142/16 81/109/16
f 60/143/60 145/71/60 137/120/60
f 71/127/61 86/62/61 62/144/61
f 92/46/62 69/137/62 57/145/62
f 79/112/16 95/42/16 71/127/16
f 138/146/60 92/147/60 57/148/60
f 123/149/16 159/150/16 111/151/16
f 116/152/59 86/153/59 22/154/59
f 110/155/20 176/156/20 158/157/20
f 140/158/48 61/159/48 62/160/48
f 137/161/16 181/162/16 135/163/16
f 144/164/4 62/160/4 86/153/4
f 124/165/20 160/166/20 172/167/20
f 136/168/47 57/148/47 58/169/47
f 111/151/16 148/170/16 100/171/16
f 120/172/46 58/169/46 18/173/46
f 138/174/20 182/175/20 184/176/20
f 126/177/45 51/178/45 33/179/45
f 125/89/45 134/180/45 126/177/45
f 108/181/42 50/182/42 14/183/42
f 112/184/20 147/185/20 160/166/20
f 128/186/35 37/187/35 38/188/35
f 139/189/16 189/190/16 143/191/16
f 132/192/3 38/188/3 50/182/3
f 113/193/16 149/194/16 161/195/16
f 124/196/34 33/179/34 34/197/34
f 123/87/34 126/177/34 124/196/34
f 112/198/33 34/197/33 10/199/33
f 133/200/16 161/195/16 179/201/16
f 146/202/28 17/203/28 92/147/28
f 140/204/20 190/205/20 186/206/20
f 102/207/27 18/173/27 3/208/27
f 114/209/20 150/210/20 102/211/20
f 142/212/4 21/213/4 61/159/4
f 131/214/16 173/215/16 177/216/16
f 106/217/26 22/154/26 5/218/26
f 134/219/20 162/220/20 114/209/20
f 134/180/14 9/221/14 51/178/14
f 141/222/16 185/223/16 139/189/16
f 99/224/63 10/199/63 1/225/63
f 121/226/16 151/227/16 169/228/16
f 130/229/12 13/230/12 37/187/12
f 132/231/20 174/232/20 128/233/20
f 104/234/11 14/235/11 7/236/11
f 115/237/16 153/238/16 105/239/16
f 118/240/4 1/241/4 21/213/4
f 142/242/20 186/206/20 188/243/20
f 110/244/3 5/218/3 13/230/3
f 124/245/64 171/246/64 123/247/64
f 122/248/2 7/236/2 17/203/2
f 122/249/20 152/250/20 104/251/20
f 114/252/1 3/253/1 9/221/1
f 129/254/16 173/215/16 127/255/16
f 183/256/65 192/257/65 184/258/65
f 163/259/66 190/260/66 164/261/66
f 185/262/48 188/263/48 186/264/48
f 189/265/67 186/264/67 190/260/67
f 181/266/68 184/258/68 182/267/68
f 167/268/69 182/267/69 168/269/69
f 155/270/70 178/271/70 156/272/70
f 173/273/71 176/274/71 174/275/71
f 177/276/72 174/275/72 178/271/72
f 159/277/73 172/278/73 160/279/73
f 191/280/74 170/281/74 192/257/74
f 149/282/75 168/269/75 150/283/75
f 187/284/76 166/285/76 188/263/76
f 153/286/77 164/261/77 154/287/77
f 179/288/78 162/289/78 180/290/78
f 148/291/79 160/279/79 147/292/79
f 175/293/12 158/294/12 176/274/12
f 151/295/80 156/296/80 152/297/80
f 165/298/81 147/299/81 166/285/81
f 157/300/82 154/287/82 158/294/82
f 169/301/83 152/297/83 170/281/83
f 161/302/84 150/303/84 162/289/84
f 120/304/20 182/175/20 136/305/20
f 109/306/16 175/307/16 129/254/16
f 122/249/20 192/308/20 170/309/20
f 119/310/16 181/162/16 167/311/16
f 108/312/20 152/250/20 156/313/20
f 121/226/16 191/314/16 145/315/16
f 107/316/16 151/227/16 103/317/16
f 120/304/20 150/210/20 168/318/20
f 118/319/20 147/185/20 99/320/20
f 138/174/20 192/308/20 146/321/20
f 119/310/16 149/194/16 101/322/16
f 133/323/85 180/324/85 134/325/85
f 132/231/20 156/313/20 178/326/20
f 117/327/16 148/170/16 165/328/16
f 137/161/16 191/314/16 183/329/16
f 142/242/20 166/330/20 118/319/20
f 131/214/16 155/331/16 107/316/16
f 110/155/20 154/332/20 106/333/20
f 116/334/20 190/205/20 144/335/20
f 141/222/16 165/328/16 187/336/16
f 130/337/20 174/232/20 176/156/20
f 109/306/16 153/238/16 157/338/16
f 115/237/16 189/190/16 163/339/16
f 116/334/20 154/332/20 164/340/20
f 12/1/1 4/341/1 101/2/1
f 20/4/2 8/29/2 103/5/2
f 16/7/3 6/63/3 105/8/3
f 24/10/4 2/342/4 100/11/4
f 31/13/86 13/343/86 5/14/86
f 27/16/87 11/23/87 2/17/87
f 4/19/88 12/344/88 25/20/88
f 48/22/8 35/345/8 11/23/8
f 7/24/89 14/99/89 29/25/89
f 37/27/90 13/343/90 31/13/90
f 8/29/11 15/346/11 107/30/11
f 40/31/12 16/7/12 109/9/12
f 2/33/63 11/86/63 111/34/63
f 49/36/14 12/1/14 113/3/14
f 42/38/15 32/60/15 10/39/15
f 97/41/16 44/28/16 31/13/16
f 3/43/91 18/135/91 30/44/91
f 92/46/92 17/26/92 29/25/92
f 40/48/93 46/138/93 28/49/93
f 75/51/20 48/22/20 27/16/20
f 8/53/94 20/139/94 26/54/94
f 19/21/95 25/20/95 65/56/95
f 28/49/96 23/140/96 6/58/96
f 67/52/6 27/16/6 24/18/6
f 32/60/49 21/126/49 1/61/49
f 95/42/25 31/13/25 22/15/25
f 6/63/26 23/141/26 115/64/26
f 64/65/4 24/10/4 117/12/4
f 4/67/27 19/117/27 119/68/27
f 85/70/28 20/4/28 121/6/28
f 83/72/20 56/96/20 47/73/20
f 73/74/20 47/73/20 48/22/20
f 55/75/29 45/78/29 39/76/29
f 45/78/97 46/138/97 40/48/97
f 54/79/16 43/95/16 96/80/16
f 96/80/16 43/95/16 44/28/16
f 53/82/31 41/85/31 33/83/31
f 41/85/32 42/38/32 34/40/32
f 11/86/33 35/88/33 123/87/33
f 35/88/34 36/102/34 125/89/34
f 52/90/3 39/93/3 127/91/3
f 39/93/35 40/31/35 129/32/35
f 54/79/36 50/347/36 38/94/36
f 43/95/98 38/94/98 37/27/98
f 56/96/38 49/98/38 36/97/38
f 36/97/39 35/345/39 48/22/39
f 25/20/99 12/344/99 49/98/99
f 14/99/41 50/347/41 54/79/41
f 15/100/42 52/90/42 131/92/42
f 30/44/100 53/82/100 51/84/100
f 29/25/16 54/79/16 98/81/16
f 15/55/44 26/54/44 55/75/44
f 25/20/20 56/96/20 83/72/20
f 36/102/45 49/36/45 133/37/45
f 87/103/20 66/106/20 84/104/20
f 65/56/20 83/72/20 84/104/20
f 30/44/16 70/108/16 82/107/16
f 70/108/16 69/137/16 81/109/16
f 41/85/16 78/111/16 80/110/16
f 78/111/16 77/142/16 79/112/16
f 82/107/16 78/111/16 41/85/16
f 81/109/16 77/142/16 78/111/16
f 74/113/20 76/116/20 90/114/20
f 73/74/20 75/51/20 76/116/20
f 91/105/20 84/104/20 74/113/20
f 84/104/20 83/72/20 73/74/20
f 19/117/46 59/119/46 135/118/46
f 59/119/47 60/143/47 137/120/47
f 93/121/4 63/124/4 139/122/4
f 63/124/48 64/65/48 141/66/48
f 72/125/49 61/128/49 21/126/49
f 71/127/101 62/144/101 61/128/101
f 68/129/102 63/132/102 93/130/102
f 68/129/103 67/52/103 64/59/103
f 85/133/104 60/134/104 66/106/104
f 59/57/105 65/56/105 66/106/105
f 76/116/20 68/129/20 88/131/20
f 76/116/20 75/51/20 67/52/20
f 18/135/106 58/136/106 70/108/106
f 58/136/107 57/145/107 69/137/107
f 80/110/16 72/125/16 32/60/16
f 79/112/16 71/127/16 72/125/16
f 90/114/20 88/131/20 28/49/20
f 85/133/108 87/103/108 26/54/108
f 88/131/58 93/130/58 23/140/58
f 23/141/59 93/121/59 143/123/59
f 91/105/20 89/115/20 45/78/20
f 89/115/20 90/114/20 46/138/20
f 26/54/20 87/103/20 91/105/20
f 94/47/16 98/81/16 81/109/16
f 77/142/16 96/80/16 97/41/16
f 98/81/16 96/80/16 77/142/16
f 60/143/60 85/70/60 145/71/60
f 71/127/109 95/42/109 86/62/109
f 92/46/110 94/47/110 69/137/110
f 79/112/16 97/41/16 95/42/16
f 138/146/60 146/202/60 92/147/60
f 123/149/16 171/348/16 159/150/16
f 116/152/59 144/164/59 86/153/59
f 110/155/20 130/337/20 176/156/20
f 140/158/48 142/212/48 61/159/48
f 137/161/16 183/329/16 181/162/16
f 144/164/4 140/158/4 62/160/4
f 124/165/20 112/184/20 160/166/20
f 136/168/47 138/146/47 57/148/47
f 111/151/16 159/150/16 148/170/16
f 120/172/46 136/168/46 58/169/46
f 138/174/20 136/305/20 182/175/20
f 126/177/45 134/180/45 51/178/45
f 125/89/45 133/37/45 134/180/45
f 108/181/42 132/192/42 50/182/42
f 112/184/20 99/320/20 147/185/20
f 128/186/35 130/229/35 37/187/35
f 139/189/16 185/223/16 189/190/16
f 132/192/3 128/186/3 38/188/3
f 113/193/16 101/322/16 149/194/16
f 124/196/34 126/177/34 33/179/34
f 123/87/34 125/89/34 126/177/34
f 112/198/33 124/196/33 34/197/33
f 133/200/16 113/193/16 161/195/16
f 146/202/28 122/248/28 17/203/28
f 140/204/20 144/335/20 190/205/20
f 102/207/27 120/172/27 18/173/27
f 114/209/20 162/220/20 150/210/20
f 142/212/4 118/240/4 21/213/4
f 131/214/16 127/255/16 173/215/16
f 106/217/26 116/152/26 22/154/26
f 134/219/20 180/349/20 162/220/20
f 134/180/14 114/252/14 9/221/14
f 141/222/16 187/336/16 185/223/16
f 99/224/63 112/198/63 10/199/63
f 121/226/16 103/317/16 151/227/16
f 130/229/12 110/244/12 13/230/12
f 132/231/20 178/326/20 174/232/20
f 104/234/11 108/350/11 14/235/11
f 115/237/16 163/339/16 153/238/16
f 118/240/4 99/351/4 1/241/4
f 142/242/20 140/204/20 186/206/20
f 110/244/3 106/217/3 5/218/3
f 124/245/64 172/352/64 171/246/64
f 122/248/2 104/234/2 7/236/2
f 122/249/20 170/309/20 152/250/20
f 114/252/1 102/353/1 3/253/1
f 129/254/16 175/307/16 173/215/16
f 183/256/65 191/280/65 192/257/65
f 163/259/66 189/265/66 190/260/66
f 185/262/48 187/284/48 188/263/48
f 189/265/67 185/262/67 186/264/67
f 181/266/68 183/256/68 184/258/68
f 167/268/69 181/266/69 182/267/69
f 155/270/70 177/276/70 178/271/70
f 173/273/71 175/293/71 176/274/71
f 177/276/72 173/273/72 174/275/72
f 159/277/73 171/354/73 172/278/73
f 191/280/74 169/301/74 170/281/74
f 149/282/75 167/268/75 168/269/75
f 187/284/76 165/298/76 166/285/76
f 153/286/77 163/259/77 164/261/77
f 179/288/78 161/302/78 162/289/78
f 148/291/79 159/277/79 160/279/79
f 175/293/12 157/300/12 158/294/12
f 151/295/80 155/270/80 156/296/80
f 165/298/81 148/355/81 147/299/81
f 157/300/82 153/286/82 154/287/82
f 169/301/83 151/295/83 152/297/83
f 161/302/84 149/356/84 150/303/84
f 120/304/20 168/318/20 182/175/20
f 109/306/16 157/338/16 175/307/16
f 122/249/20 146/321/20 192/308/20
f 119/310/16 135/163/16 181/162/16
f 108/312/20 104/251/20 152/250/20
f 121/226/16 169/228/16 191/314/16
f 107/316/16 155/331/16 151/227/16
f 120/304/20 102/211/20 150/210/20
f 118/319/20 166/330/20 147/185/20
f 138/174/20 184/176/20 192/308/20
f 119/310/16 167/311/16 149/194/16
f 133/323/85 179/357/85 180/324/85
f 132/231/20 108/312/20 156/313/20
f 117/327/16 100/171/16 148/170/16
f 137/161/16 145/315/16 191/314/16
f 142/242/20 188/243/20 166/330/20
f 131/214/16 177/216/16 155/331/16
f 110/155/20 158/157/20 154/332/20
f 116/334/20 164/340/20 190/205/20
f 141/222/16 117/327/16 165/328/16
f 130/337/20 128/233/20 174/232/20
f 109/306/16 105/239/16 153/238/16
f 115/237/16 143/191/16 189/190/16
f 116/334/20 106/333/20 154/332/20
g gauge_Mesh
v 0.127418 0.010918 0.227039
v 0.127418 0.025472 0.227039
v 0.129914 0.014286 0.282114
v 0.129914 0.022251 0.282114
v 0.095300 0.010918 0.233816
v 0.095300 0.025472 0.233816
v 0.115268 0.014286 0.285204
v 0.115268 0.022251 0.285204
v 0.131695 0.004809 0.265204
v 0.130684 0.004367 0.242884
v 0.130684 0.032023 0.242884
v 0.131695 0.031581 0.265204
v 0.098714 0.004367 0.249630
v 0.106807 0.004809 0.270456
v 0.106807 0.031581 0.270456
v 0.098714 0.032023 0.249630
v 0.120150 0.009319 0.284174
v 0.125032 0.009319 0.283144
v 0.125032 0.027071 0.283144
v 0.120150 0.027071 0.284174
v 0.115884 0.009641 0.225376
v 0.105178 0.009641 0.227635
v 0.105178 0.026749 0.227635
v 0.115884 0.026749 0.225376
v 0.123399 0.033929 0.266955
v 0.115103 0.033929 0.268705
v 0.120027 0.034448 0.245132
v 0.109371 0.034448 0.247381
v 0.115103 0.002461 0.268705
v 0.123399 0.002461 0.266955
v 0.109371 0.001942 0.247381
v 0.120027 0.001942 0.245132
v 0.131446 0.014286 0.289371
v 0.131446 0.022251 0.289371
v 0.116799 0.014286 0.292461
v 0.116799 0.022251 0.292461
v 0.121682 0.010644 0.291431
v 0.126564 0.010644 0.290401
v 0.126564 0.025746 0.290401
v 0.121682 0.025746 0.291431
v 0.139308 0.021851 0.280132
v 0.139308 0.014670 0.280132
v 0.105874 0.021851 0.287187
v 0.105874 0.014670 0.287187
v 0.140840 0.021851 0.287389
v 0.140840 0.014670 0.287389
v 0.107405 0.021851 0.294444
v 0.107405 0.014670 0.294444
v 0.123152 0.012885 0.297372
v 0.128034 0.012885 0.296342
v 0.128133 0.023585 0.298524
v 0.124077 0.023585 0.299379
v 0.125410 0.012885 0.309102
v 0.130292 0.012885 0.308072
v 0.134042 0.023585 0.299223
v 0.135188 0.012885 0.297188
v 0.118646 0.023585 0.303554
v 0.116766 0.012885 0.302281
v 0.139357 0.023585 0.306027
v 0.141603 0.012885 0.305402
v 0.116565 0.023585 0.310917
v 0.114228 0.012885 0.311261
v 0.128242 0.012885 0.320937
v 0.133124 0.012885 0.319907
v 0.132207 0.023585 0.317897
v 0.128242 0.023585 0.320937
v 0.138503 0.023585 0.313129
v 0.140533 0.012885 0.314294
v 0.120501 0.023585 0.317083
v 0.119170 0.012885 0.319003
v 0.122289 0.021164 0.294662
v 0.122283 0.015639 0.294664
v 0.127440 0.015639 0.293576
v 0.127438 0.021164 0.293575
v 0.127706 0.015601 0.223927
v 0.127698 0.021111 0.224017
v 0.130434 0.016451 0.282101
v 0.130427 0.020387 0.282101
v 0.114795 0.020387 0.285400
v 0.114788 0.016451 0.285403
v 0.093779 0.015601 0.231086
v 0.093823 0.021111 0.231165
v 0.105702 0.015735 0.269611
v 0.105714 0.021255 0.269621
v 0.097036 0.021264 0.247306
v 0.097018 0.015747 0.247281
v 0.131286 0.015747 0.240050
v 0.131280 0.021264 0.240080
v 0.132358 0.021255 0.263999
v 0.132365 0.015735 0.263985
v 0.104130 0.015625 0.224290
v 0.104154 0.021147 0.224366
v 0.115500 0.021147 0.221972
v 0.115492 0.015625 0.221893
v 0.132061 0.020388 0.289847
v 0.132069 0.016450 0.289853
v 0.116424 0.016450 0.293155
v 0.116429 0.020388 0.293145
v 0.126850 0.021211 0.290946
v 0.126854 0.015687 0.290954
v 0.121639 0.015687 0.292054
v 0.121640 0.021211 0.292046
v 0.140453 0.019206 0.279986
v 0.140469 0.017474 0.279984
v 0.104753 0.017474 0.287520
v 0.104768 0.019206 0.287515
v 0.142105 0.017474 0.287736
v 0.142087 0.019207 0.287731
v 0.106403 0.019207 0.295261
v 0.106389 0.017474 0.295272
v 0.128025 0.015591 0.296197
v 0.128026 0.021116 0.296204
v 0.122938 0.021116 0.297278
v 0.122927 0.015591 0.297273
v 0.135470 0.021116 0.296990
v 0.135484 0.015591 0.296980
v 0.116261 0.021116 0.302248
v 0.116236 0.015592 0.302246
v 0.141976 0.015591 0.305559
v 0.141959 0.021117 0.305552
v 0.113796 0.021117 0.311578
v 0.113775 0.015591 0.311593
v 0.133255 0.021117 0.320428
v 0.133261 0.015591 0.320453
v 0.128163 0.015591 0.321529
v 0.128167 0.021117 0.321502
v 0.140955 0.021116 0.314755
v 0.140975 0.015592 0.314777
v 0.118786 0.015592 0.319660
v 0.118804 0.021115 0.319629
v 0.128034 0.023585 0.296342
v 0.123152 0.023585 0.297372
v 0.114228 0.023585 0.311261
v 0.119170 0.023585 0.319003
v 0.116766 0.023585 0.302281
v 0.141603 0.023585 0.305402
v 0.135188 0.023585 0.297188
v 0.133124 0.023585 0.319907
v 0.128244 0.023585 0.318733
v 0.140533 0.023585 0.314294
v 0.130099 0.021691 0.308106
v 0.125628 0.021691 0.309049
v 0.128224 0.020820 0.317870
v 0.125300 0.021691 0.302083
v 0.128216 0.021691 0.301468
v 0.138402 0.020820 0.306233
v 0.119784 0.021691 0.310378
v 0.130967 0.021691 0.315164
v 0.122418 0.021691 0.314504
v 0.121248 0.021691 0.305198
v 0.132427 0.021691 0.301966
v 0.135658 0.021691 0.311611
v 0.128121 0.020820 0.299360
v 0.124407 0.020820 0.300144
v 0.117526 0.020820 0.310711
v 0.121132 0.020820 0.316359
v 0.119432 0.020820 0.303968
v 0.136232 0.021691 0.306837
v 0.133534 0.020820 0.300001
v 0.131853 0.020820 0.317105
v 0.128226 0.021691 0.315742
v 0.137619 0.020820 0.312737
vn -0.8534 -0.0462 0.5193
vn -0.6480 0.7134 0.2669
vn -0.9296 -0.0660 0.3626
vn 0.9904 -0.0462 0.1302
vn -0.2994 -0.9087 -0.2908
vn 0.1564 0.9087 -0.3869
vn 0.3220 0.8830 0.3416
vn 0.2687 0.9631 -0.0186
vn -0.1565 -0.8830 0.4426
vn -0.2533 -0.9631 0.0915
vn -0.2041 -0.0507 -0.9776
vn 0.9969 -0.0660 -0.0439
vn 0.1786 -0.5521 -0.8144
vn -0.1784 -0.5036 -0.8453
vn 0.2238 -0.9746 0.0091
vn 0.0049 -0.9997 0.0230
vn 0.6922 -0.5960 0.4070
vn 0.0806 -0.9207 0.3819
vn -0.2010 0.9746 0.0988
vn 0.0049 0.9997 0.0230
vn -0.4614 0.6059 0.6480
vn 0.0806 0.9207 0.3819
vn -0.2736 0.9081 -0.3171
vn -0.0736 0.9343 -0.3487
vn 0.1222 -0.9081 -0.4006
vn -0.0736 -0.9343 -0.3487
vn -0.4924 -0.5521 -0.6729
vn 0.2904 -0.1208 0.9492
vn 0.0363 -0.9844 0.1720
vn 0.0363 0.9844 0.1720
vn 0.2050 -0.1183 0.9716
vn 0.2090 0.3062 0.9287
vn 0.0407 0.9991 -0.0086
vn 0.5614 0.8190 -0.1185
vn -0.5769 -0.8077 0.1217
vn -0.0391 -0.9992 0.0083
vn 0.7108 -0.7031 -0.0216
vn -0.9034 -0.3840 0.1906
vn -0.8973 0.3988 0.1893
vn 0.2433 0.3146 0.9175
vn -0.2080 0.0442 -0.9771
vn 0.0391 -0.9992 -0.0083
vn 0.1882 -0.2700 0.9443
vn -0.0407 0.9991 0.0086
vn -0.8300 0.2624 0.4921
vn -0.6073 0.0828 -0.7901
vn -0.0000 -1.0000 -0.0000
vn 0.5850 0.2801 0.7611
vn 0.1995 0.2906 -0.9358
vn -0.9435 0.1966 -0.2667
vn -0.9589 -0.1294 -0.2525
vn 0.7997 0.3160 -0.5105
vn -0.1126 0.2881 0.9510
vn 0.1174 -0.0525 -0.9917
vn -0.5774 0.2924 -0.7623
vn 0.5855 0.2441 0.7730
vn 0.2017 0.2127 0.9561
vn -0.8244 -0.2412 0.5121
vn -0.8238 0.2114 0.5259
vn 0.1980 0.2830 0.9385
vn 0.2021 -0.2038 0.9579
vn 0.9766 0.1866 0.1066
vn -0.1890 0.2678 0.9448
vn -0.2036 -0.2151 0.9551
vn 0.5820 -0.1893 0.7909
vn -0.2062 0.0551 -0.9770
vn 0.7946 0.0780 -0.6021
vn 0.9827 -0.1424 0.1182
vn 0.7812 -0.1325 -0.6101
vn -0.9799 -0.1120 0.1652
vn 0.1481 0.3147 0.9376
vn 0.9581 0.2625 0.1148
vn 0.1178 -0.1208 0.9857
vn -0.2062 -0.0528 -0.9771
vn 0.8973 0.3988 -0.1893
vn 0.2228 -0.2182 0.9501
vn 0.1750 0.2296 0.9574
vn -0.1764 0.5200 -0.8358
vn -0.9593 0.2100 0.1890
vn 0.9967 0.0669 -0.0449
vn 0.1440 0.5067 -0.8500
vn -0.9299 0.0669 0.3617
vn -0.2029 0.0353 -0.9786
vn 0.9631 -0.1120 -0.2448
vn -0.4752 0.5067 -0.7194
vn -0.2105 -0.0372 -0.9769
vn 0.1045 0.0917 -0.9903
vn -0.5918 -0.1259 -0.7962
vn 0.2047 0.1296 0.9702
vn 0.9034 -0.3840 -0.1906
vn -0.8492 0.0047 0.5281
vn 0.9941 0.0033 0.1084
vn -0.1961 0.0050 0.9806
vn 0.5927 0.0044 0.8054
vn 0.2065 0.0047 0.9784
vn 0.1049 0.0012 -0.9945
vn 0.7970 0.0030 -0.6040
vn -0.9668 0.0044 -0.2554
vn -0.5971 0.0018 -0.8022
vn -0.2064 -0.0003 -0.9785
vn 0.2062 0.0021 0.9785
vn -0.2065 -0.0004 -0.9784
vn 0.2067 0.0021 0.9784
vn -0.9784 0.0094 0.2065
vn 0.9784 0.0094 -0.2064
vn 0.2062 0.0015 0.9785
vn -0.2064 0.0142 -0.9784
vn -0.5497 0.0162 -0.8352
vn 0.9990 0.0014 -0.0450
vn 0.9762 0.0050 -0.2168
vn -0.9320 0.0015 0.3624
vn -0.8668 0.0018 0.4987
vn 0.1643 0.0137 -0.9863
vn -0.9808 0.0024 0.1952
vn 0.9944 0.0011 0.1061
vn 0.0036 0.9998 0.0173
vn -0.0037 -0.9998 -0.0174
vn 0.9538 0.2100 -0.2147
vn -0.9706 0.0005 0.2408
vn 0.0036 0.9998 0.0172
vn 0.9759 0.0003 -0.2182
vn 0.9760 0.0003 -0.2180
vn -0.0037 -0.9998 -0.0175
vn -0.9708 0.0016 0.2397
vn -0.0000 1.0000 -0.0000
vn 0.9180 0.2998 0.2595
vn -0.9417 0.3168 -0.1133
vn -0.1974 0.2934 -0.9354
vn -0.7511 0.3030 0.5866
vn -0.0797 0.9225 -0.3778
vn -0.3254 0.9225 0.2077
vn -0.3715 0.9225 -0.1050
vn 0.3043 0.9225 -0.2377
vn 0.0454 0.9225 -0.3834
vn -0.2353 0.9225 -0.3061
vn 0.0797 0.9225 0.3778
vn 0.2331 0.9225 0.3078
vn -0.0805 0.9225 0.3776
vn 0.3833 0.9225 0.0461
vn -0.8387 -0.2312 0.4931
vn -0.5614 0.8190 0.1185
vn -0.9301 -0.0640 0.3617
vn 0.9664 -0.2312 0.1122
vn -0.2736 -0.9081 -0.3171
vn 0.1222 0.9081 -0.4006
vn 0.6839 0.6059 0.4064
vn 0.2238 0.9746 0.0091
vn -0.4688 -0.5960 0.6519
vn -0.2010 -0.9746 0.0988
vn -0.2021 -0.0372 -0.9787
vn 0.9969 -0.0640 -0.0450
vn 0.1422 -0.4909 -0.8595
vn 0.2687 -0.9631 -0.0186
vn 0.3220 -0.8830 0.3416
vn -0.2533 0.9631 0.0915
vn -0.1565 0.8830 0.4426
vn -0.2994 0.9087 -0.2908
vn 0.1564 -0.9087 -0.3869
vn -0.4774 -0.4909 -0.7288
vn 0.2369 -0.2761 0.9315
vn 0.2268 0.2296 0.9465
vn 0.7006 0.7134 -0.0176
vn -0.6589 -0.7031 0.2674
vn 0.5769 -0.8077 -0.1217
vn 0.2945 0.1324 0.9464
vn -0.2098 0.0353 -0.9771
vn 0.1801 -0.2182 0.9591
vn -0.8529 0.0482 0.5198
vn -0.5919 0.1317 -0.7952
vn 0.1995 0.2905 -0.9358
vn -0.9580 0.1350 -0.2531
vn -0.9451 -0.1883 -0.2671
vn 0.1039 -0.0877 -0.9907
vn 0.5815 0.1976 0.7892
vn -0.8254 -0.2026 0.5269
vn -0.8219 0.2516 0.5111
vn 0.9818 0.1488 0.1181
vn -0.2032 0.2244 0.9531
vn -0.1890 -0.2568 0.9478
vn 0.5870 -0.2341 0.7750
vn -0.2061 0.0551 -0.9770
vn 0.7805 0.1384 -0.6096
vn 0.9782 -0.1787 0.1062
vn 0.7952 -0.0747 -0.6018
vn -0.9607 -0.1989 0.1939
vn 0.1130 0.1324 0.9847
vn 0.9902 0.0482 0.1309
vn 0.1596 -0.2761 0.9478
vn -0.2062 -0.0527 -0.9771
vn 0.2093 -0.2700 0.9398
vn 0.1840 0.3062 0.9340
vn -0.9796 0.1176 0.1628
vn 0.9967 0.0690 -0.0438
vn 0.1787 0.5682 -0.8033
vn -0.9294 0.0690 0.3626
vn -0.2045 0.0442 -0.9779
vn 0.9571 -0.1989 -0.2107
vn -0.4881 0.5682 -0.6626
vn -0.2083 -0.0507 -0.9768
vn 0.1174 0.0548 -0.9916
vn -0.6075 -0.0793 -0.7903
vn -0.8495 0.0056 0.5276
vn 0.9941 0.0041 0.1079
vn -0.1955 0.0060 0.9807
vn 0.5932 0.0055 0.8051
vn 0.1043 0.0020 -0.9945
vn 0.7974 0.0017 -0.6034
vn -0.9670 0.0030 -0.2546
vn -0.5965 0.0029 -0.8026
vn -0.2065 -0.0008 -0.9784
vn 0.2069 0.0048 0.9783
vn -0.2064 -0.0007 -0.9785
vn 0.2060 0.0048 0.9785
vn 0.2067 0.0015 0.9784
vn 0.2068 0.0021 0.9784
vn -0.5488 0.0137 -0.8358
vn 0.9990 0.0015 -0.0450
vn 0.9760 0.0024 -0.2177
vn -0.9320 0.0014 0.3624
vn -0.8667 0.0011 0.4988
vn 0.1654 0.0162 -0.9861
vn -0.9806 0.0050 0.1961
vn 0.9944 0.0018 0.1059
vn 0.9619 0.1176 -0.2469
vn -0.9708 0.0011 0.2397
vn 0.9760 0.0002 -0.2180
vn 0.9759 0.0004 -0.2182
vn -0.9706 0.0011 0.2409
vn -0.7511 0.3029 0.5866
vn 0.3043 0.9225 -0.2376
vt 0.561833 0.372357
vt 0.561716 0.370301
vt 0.562988 0.370450
vt 0.558873 0.375203
vt 0.559456 0.374331
vt 0.559456 0.375196
vt 0.563089 0.367853
vt 0.555295 0.370104
vt 0.555167 0.372209
vt 0.554022 0.370263
vt 0.552610 0.379761
vt 0.553892 0.381572
vt 0.552613 0.382051
vt 0.560385 0.379655
vt 0.561667 0.381559
vt 0.560388 0.382026
vt 0.560040 0.375196
vt 0.561236 0.377081
vt 0.560244 0.377078
vt 0.552265 0.375241
vt 0.553460 0.377166
vt 0.552469 0.377185
vt 0.549296 0.375791
vt 0.549463 0.374728
vt 0.549514 0.375850
vt 0.553928 0.367652
vt 0.556745 0.370049
vt 0.556073 0.368656
vt 0.556665 0.368757
vt 0.555994 0.371376
vt 0.556745 0.371328
vt 0.550486 0.377166
vt 0.551336 0.379761
vt 0.550063 0.379741
vt 0.551477 0.377185
vt 0.551682 0.375241
vt 0.551098 0.375199
vt 0.558261 0.377081
vt 0.559112 0.379655
vt 0.557838 0.379658
vt 0.559253 0.377078
vt 0.557829 0.381559
vt 0.559108 0.382026
vt 0.550054 0.381572
vt 0.551333 0.382051
vt 0.556073 0.372709
vt 0.556665 0.372594
vt 0.559221 0.375272
vt 0.559060 0.374708
vt 0.559646 0.374689
vt 0.552265 0.374365
vt 0.560040 0.374331
vt 0.559646 0.374106
vt 0.559060 0.374085
vt 0.558510 0.375330
vt 0.558337 0.376395
vt 0.558290 0.375272
vt 0.560623 0.374336
vt 0.561745 0.375204
vt 0.560623 0.375203
vt 0.552848 0.375199
vt 0.552848 0.374334
vt 0.553971 0.375196
vt 0.551682 0.374365
vt 0.557935 0.379257
vt 0.558258 0.380120
vt 0.557935 0.380182
vt 0.557733 0.379256
vt 0.557419 0.380119
vt 0.557419 0.379253
vt 0.558414 0.374708
vt 0.548343 0.375790
vt 0.548543 0.374728
vt 0.548592 0.375850
vt 0.549976 0.374331
vt 0.551098 0.374334
vt 0.558971 0.373462
vt 0.559176 0.372399
vt 0.559221 0.373522
vt 0.557750 0.374336
vt 0.558873 0.374336
vt 0.560903 0.372342
vt 0.561071 0.370292
vt 0.561122 0.372353
vt 0.557930 0.361989
vt 0.557698 0.362801
vt 0.557647 0.361962
vt 0.561839 0.361822
vt 0.560539 0.362340
vt 0.560539 0.361254
vt 0.557384 0.373045
vt 0.557046 0.373691
vt 0.557057 0.373027
vt 0.561801 0.379853
vt 0.562056 0.380623
vt 0.561745 0.380709
vt 0.563337 0.361909
vt 0.562087 0.361294
vt 0.553207 0.367775
vt 0.552931 0.368727
vt 0.552916 0.367793
vt 0.553852 0.367776
vt 0.554182 0.368733
vt 0.553867 0.368755
vt 0.563331 0.360968
vt 0.553921 0.367710
vt 0.553603 0.366949
vt 0.553929 0.366967
vt 0.562507 0.363045
vt 0.561291 0.363066
vt 0.557383 0.372561
vt 0.557046 0.371981
vt 0.557372 0.371903
vt 0.558575 0.361389
vt 0.558936 0.360591
vt 0.558890 0.361395
vt 0.561801 0.379380
vt 0.562056 0.378650
vt 0.562107 0.379405
vt 0.558669 0.377621
vt 0.558397 0.376598
vt 0.558688 0.376635
vt 0.558379 0.377619
vt 0.558670 0.378204
vt 0.558379 0.378227
vt 0.554167 0.369758
vt 0.553852 0.369819
vt 0.560787 0.360726
vt 0.553221 0.368751
vt 0.552916 0.369753
vt 0.561606 0.360015
vt 0.562674 0.360099
vt 0.557056 0.372583
vt 0.557733 0.377619
vt 0.557419 0.378204
vt 0.557419 0.377621
vt 0.559345 0.375722
vt 0.559643 0.376732
vt 0.559354 0.376790
vt 0.558688 0.379193
vt 0.558397 0.379250
vt 0.557733 0.378228
vt 0.557437 0.379193
vt 0.557751 0.376596
vt 0.557936 0.361381
vt 0.559354 0.374683
vt 0.559634 0.375700
vt 0.558699 0.375726
vt 0.558392 0.376739
vt 0.558383 0.375707
vt 0.558708 0.374685
vt 0.558392 0.374710
vt 0.561769 0.367515
vt 0.562350 0.365952
vt 0.558414 0.374085
vt 0.558290 0.373522
vt 0.558510 0.373462
vt 0.555940 0.370096
vt 0.556098 0.372194
vt 0.555879 0.372199
vt 0.558885 0.361978
vt 0.561973 0.379719
vt 0.562285 0.380585
vt 0.561973 0.380634
vt 0.558971 0.375331
vt 0.559176 0.376395
vt 0.558851 0.376531
vt 0.558337 0.372399
vt 0.558649 0.372264
vt 0.554766 0.371320
vt 0.555356 0.370017
vt 0.555356 0.371372
vt 0.561124 0.367508
vt 0.560650 0.365925
vt 0.561167 0.365589
vt 0.557160 0.367600
vt 0.555896 0.367296
vt 0.554766 0.370042
vt 0.555437 0.368657
vt 0.559858 0.367802
vt 0.548841 0.375790
vt 0.548632 0.374728
vt 0.548954 0.374592
vt 0.554669 0.365770
vt 0.555251 0.367303
vt 0.555437 0.372703
vt 0.547888 0.375791
vt 0.547712 0.374728
vt 0.548019 0.374593
vt 0.557698 0.360575
vt 0.557982 0.360542
vt 0.558569 0.361998
vt 0.558936 0.362817
vt 0.558620 0.362873
vt 0.557882 0.374688
vt 0.557882 0.374105
vt 0.561770 0.379720
vt 0.561445 0.380588
vt 0.561445 0.379731
vt 0.553207 0.369813
vt 0.557981 0.362862
vt 0.549155 0.374593
vt 0.558649 0.376529
vt 0.557733 0.380180
vt 0.555994 0.370018
vt 0.555854 0.365400
vt 0.555210 0.365400
vt 0.561582 0.372360
vt 0.556360 0.364899
vt 0.556607 0.365024
vt 0.556357 0.365027
vt 0.550437 0.376012
vt 0.551053 0.375707
vt 0.551060 0.376020
vt 0.556370 0.365743
vt 0.557018 0.365158
vt 0.556891 0.364898
vt 0.557019 0.364896
vt 0.556607 0.365152
vt 0.556354 0.364901
vt 0.556228 0.365161
vt 0.556228 0.364899
vt 0.556103 0.365158
vt 0.551046 0.375394
vt 0.550437 0.375699
vt 0.550437 0.375387
vt 0.556763 0.364901
vt 0.556890 0.365161
vt 0.556763 0.365163
vt 0.563244 0.362392
vt 0.563240 0.362975
vt 0.562992 0.362448
vt 0.563789 0.360877
vt 0.564727 0.360549
vt 0.564642 0.360809
vt 0.562998 0.361506
vt 0.563656 0.360635
vt 0.563933 0.363332
vt 0.565043 0.363601
vt 0.563824 0.363582
vt 0.563451 0.362831
vt 0.563250 0.361591
vt 0.565544 0.361843
vt 0.565547 0.361259
vt 0.565796 0.361786
vt 0.565544 0.362766
vt 0.565796 0.362873
vt 0.565342 0.361414
vt 0.564942 0.363347
vt 0.557568 0.373478
vt 0.558468 0.373500
vt 0.557716 0.373793
vt 0.558060 0.374150
vt 0.559047 0.372786
vt 0.559187 0.373082
vt 0.558240 0.373016
vt 0.557572 0.372880
vt 0.557952 0.372378
vt 0.558522 0.372332
vt 0.559187 0.373770
vt 0.558783 0.374161
vt 0.553921 0.366119
vt 0.553596 0.366173
vt 0.565672 0.362920
vt 0.565356 0.363702
vt 0.565346 0.362992
vt 0.562106 0.379839
vt 0.565672 0.364626
vt 0.565683 0.363695
vt 0.557512 0.373933
vt 0.557323 0.373532
vt 0.558603 0.372082
vt 0.557328 0.372798
vt 0.557822 0.372144
vt 0.558878 0.374406
vt 0.557954 0.374393
vt 0.559245 0.372636
vt 0.559429 0.373028
vt 0.559429 0.373874
vt 0.555419 0.372207
vt 0.553883 0.379741
vt 0.561659 0.379658
vt 0.561745 0.374336
vt 0.553971 0.374331
vt 0.558258 0.379254
vt 0.548220 0.374592
vt 0.549976 0.375196
vt 0.558851 0.372262
vt 0.557750 0.375204
vt 0.559859 0.370401
vt 0.557372 0.373770
vt 0.563089 0.362437
vt 0.554167 0.367798
vt 0.553596 0.367630
vt 0.558621 0.360548
vt 0.561745 0.378555
vt 0.557751 0.379253
vt 0.557437 0.376635
vt 0.557652 0.361379
vt 0.559643 0.374703
vt 0.558708 0.376796
vt 0.561811 0.365589
vt 0.557151 0.370213
vt 0.562285 0.379729
vt 0.554981 0.368751
vt 0.548592 0.375850
vt 0.554981 0.372587
vt 0.547671 0.375850
vt 0.561770 0.380635
vt 0.556607 0.364896
vt 0.556354 0.365155
vt 0.556354 0.365164
vt 0.556102 0.364896
vt 0.565346 0.364555
s 0
g gauge_Material
usemtl Material
f 199/358/111 275/359/111 206/360/111
f 200/361/112 232/362/112 212/363/112
f 275/359/113 205/364/113 206/360/113
f 282/365/114 195/366/114 201/367/114
f 223/368/115 197/369/115 214/370/115
f 219/371/116 194/372/116 216/373/116
f 211/374/117 204/375/117 217/376/117
f 204/375/118 219/371/118 217/376/118
f 209/377/119 206/378/119 221/379/119
f 206/378/120 223/368/120 221/379/120
f 271/380/121 235/381/121 200/382/121
f 202/383/122 282/365/122 201/367/122
f 213/384/123 267/385/123 193/386/123
f 283/387/124 213/384/124 214/388/124
f 201/389/125 224/390/125 202/391/125
f 222/392/126 223/368/126 224/390/126
f 210/393/127 201/389/127 195/394/127
f 209/377/128 222/392/128 210/393/128
f 207/395/129 220/396/129 208/397/129
f 217/376/130 220/396/130 218/398/130
f 212/363/131 207/395/131 200/361/131
f 212/363/132 217/376/132 218/398/132
f 220/396/133 198/399/133 208/397/133
f 219/371/134 215/400/134 220/396/134
f 224/390/135 193/401/135 202/391/135
f 224/390/136 214/370/136 213/402/136
f 273/403/137 214/388/137 197/404/137
f 225/405/138 292/406/138 230/407/138
f 210/393/139 229/408/139 209/377/139
f 211/374/140 232/362/140 231/409/140
f 229/410/141 292/406/141 293/411/141
f 287/412/142 237/413/142 226/414/142
f 226/415/143 233/416/143 196/417/143
f 196/417/144 231/409/144 226/415/144
f 199/418/145 229/408/145 227/419/145
f 227/419/146 236/420/146 199/418/146
f 195/394/147 230/421/147 210/393/147
f 297/422/148 240/423/148 302/424/148
f 298/425/149 239/426/149 235/427/149
f 226/414/150 291/428/150 287/412/150
f 269/429/151 234/430/151 195/431/151
f 195/394/152 238/432/152 225/433/152
f 289/434/153 240/435/153 227/436/153
f 200/361/154 239/437/154 228/438/154
f 200/439/155 276/440/155 271/441/155
f 305/442/156 327/443/156 324/444/156
f 246/445/157 260/446/157 256/447/157
f 244/448/158 349/449/158 346/450/158
f 331/451/159 348/452/159 261/453/159
f 241/454/157 246/445/157 245/455/157
f 309/456/160 325/457/160 327/458/160
f 310/459/161 254/460/161 314/461/161
f 245/455/157 250/462/157 241/454/157
f 261/463/162 347/464/162 253/465/162
f 246/445/157 248/466/157 252/467/157
f 243/468/163 351/469/163 247/470/163
f 303/471/164 248/472/164 242/473/164
f 257/474/165 354/475/165 352/476/165
f 330/477/166 319/478/166 332/479/166
f 315/480/167 258/481/167 318/482/167
f 314/461/168 262/483/168 321/484/168
f 246/445/157 255/485/157 245/455/157
f 313/486/169 326/487/169 325/457/169
f 245/455/157 262/488/157 254/489/157
f 244/448/170 345/490/170 243/468/170
f 316/491/171 255/492/171 256/493/171
f 312/494/172 332/495/172 319/496/172
f 318/482/173 326/497/173 322/498/173
f 317/499/174 262/500/174 255/492/174
f 256/493/175 320/501/175 316/491/175
f 324/444/176 304/502/176 305/442/176
f 307/503/177 328/504/177 312/494/177
f 311/505/178 260/506/178 252/507/178
f 308/508/179 252/507/179 248/509/179
f 278/510/180 197/511/180 205/364/180
f 294/512/181 228/513/181 290/514/181
f 281/515/182 196/516/182 270/517/182
f 293/411/183 227/436/183 229/410/183
f 241/518/184 303/471/184 242/473/184
f 295/519/185 237/520/185 300/521/185
f 288/522/186 238/523/186 299/524/186
f 290/514/187 239/525/187 301/526/187
f 215/527/188 285/528/188 284/529/188
f 277/530/189 198/531/189 274/532/189
f 203/533/190 281/515/190 280/534/190
f 216/535/191 268/536/191 285/528/191
f 276/440/192 208/537/192 277/530/192
f 272/538/193 236/539/193 297/540/193
f 193/541/194 279/542/194 202/383/194
f 274/543/195 215/527/195 284/529/195
f 270/544/196 233/545/196 295/546/196
f 304/502/197 329/547/197 307/548/197
f 306/549/198 250/550/198 310/551/198
f 294/512/199 231/552/199 232/553/199
f 296/554/200 238/555/200 234/556/200
f 314/461/201 322/557/201 313/486/201
f 319/496/202 311/505/202 312/494/202
f 322/498/203 317/499/203 318/482/203
f 320/501/204 315/480/204 316/491/204
f 318/482/205 316/491/205 315/480/205
f 307/548/206 303/471/206 304/502/206
f 312/494/207 308/508/207 307/503/207
f 310/459/208 313/486/208 309/456/208
f 306/549/209 309/558/209 305/442/209
f 272/538/210 298/559/210 271/380/210
f 301/526/211 289/434/211 290/514/211
f 295/546/212 269/429/212 270/544/212
f 288/522/213 300/560/213 287/412/213
f 297/422/214 301/561/214 298/425/214
f 300/521/215 296/554/215 295/519/215
f 287/412/211 292/406/211 288/522/211
f 290/514/216 293/411/216 294/512/216
f 284/529/217 286/562/217 283/387/217
f 284/529/218 273/403/218 274/543/218
f 280/534/219 282/365/219 279/542/219
f 268/563/220 279/542/220 267/564/220
f 277/530/221 275/359/221 276/440/221
f 271/441/222 275/359/222 272/565/222
f 285/528/223 267/385/223 286/562/223
f 274/532/224 278/510/224 277/530/224
f 270/517/225 282/365/225 281/515/225
f 305/566/226 266/567/226 263/568/226
f 292/569/227 264/570/227 293/571/227
f 194/572/228 280/534/228 268/563/228
f 293/573/229 263/574/229 294/575/229
f 291/576/230 263/568/230 266/567/230
f 304/577/231 265/578/231 266/579/231
f 292/580/232 266/579/232 265/578/232
f 306/581/233 265/582/233 303/583/233
f 305/584/234 264/585/234 306/586/234
f 244/587/235 323/588/235 324/589/235
f 253/590/235 326/591/235 261/592/235
f 253/590/235 327/593/235 325/594/235
f 247/595/235 328/596/235 329/597/235
f 247/595/235 323/588/235 243/598/235
f 249/599/235 324/589/235 327/593/235
f 257/600/235 258/601/235 330/602/235
f 259/603/235 330/602/235 332/604/235
f 261/592/235 258/601/235 331/605/235
f 259/603/235 328/596/235 251/606/235
f 336/607/235 333/608/235 337/609/235
f 333/608/235 343/610/235 337/609/235
f 333/608/235 353/611/235 340/612/235
f 334/613/235 342/614/235 339/615/235
f 334/613/235 341/616/235 353/611/235
f 333/608/235 344/617/235 350/618/235
f 249/619/236 347/464/236 349/620/236
f 259/621/237 338/622/237 354/623/237
f 331/451/238 352/476/238 335/624/238
f 247/625/239 338/622/239 251/626/239
f 336/607/240 345/627/240 346/628/240
f 339/615/241 348/629/241 341/616/241
f 339/615/242 349/630/242 347/631/242
f 343/610/243 338/632/243 351/633/243
f 343/610/244 345/627/244 337/609/244
f 342/614/245 346/628/245 349/630/245
f 340/612/246 335/634/246 352/635/246
f 344/617/247 352/635/247 354/636/247
f 341/616/248 335/634/248 353/611/248
f 344/617/249 338/632/249 350/618/249
f 199/358/250 272/565/250 275/359/250
f 200/361/251 228/438/251 232/362/251
f 275/359/252 278/510/252 205/364/252
f 282/365/253 269/637/253 195/366/253
f 223/368/254 205/638/254 197/369/254
f 219/371/255 203/639/255 194/372/255
f 211/374/256 196/417/256 204/375/256
f 204/375/257 203/639/257 219/371/257
f 209/377/258 199/418/258 206/378/258
f 206/378/259 205/638/259 223/368/259
f 271/380/260 298/559/260 235/381/260
f 202/383/261 279/542/261 282/365/261
f 213/384/262 286/562/262 267/385/262
f 283/387/124 286/562/124 213/384/124
f 201/389/263 222/392/263 224/390/263
f 222/392/126 221/379/126 223/368/126
f 210/393/264 222/392/264 201/389/264
f 209/377/128 221/379/128 222/392/128
f 207/395/265 218/398/265 220/396/265
f 217/376/130 219/371/130 220/396/130
f 212/363/266 218/398/266 207/395/266
f 212/363/132 211/374/132 217/376/132
f 220/396/267 215/400/267 198/399/267
f 219/371/134 216/373/134 215/400/134
f 224/390/268 213/402/268 193/401/268
f 224/390/136 223/368/136 214/370/136
f 273/403/269 283/387/269 214/388/269
f 225/405/270 288/522/270 292/406/270
f 210/393/139 230/421/139 229/408/139
f 211/374/140 212/363/140 232/362/140
f 229/410/141 230/407/141 292/406/141
f 287/412/271 300/560/271 237/413/271
f 226/415/143 237/640/143 233/416/143
f 196/417/272 211/374/272 231/409/272
f 199/418/273 209/377/273 229/408/273
f 227/419/146 240/641/146 236/420/146
f 195/394/274 225/433/274 230/421/274
f 297/422/148 236/642/148 240/423/148
f 298/425/149 301/561/149 239/426/149
f 226/414/275 231/552/275 291/428/275
f 269/429/276 296/643/276 234/430/276
f 195/394/152 234/644/152 238/432/152
f 289/434/277 302/645/277 240/435/277
f 200/361/154 235/646/154 239/437/154
f 200/439/278 207/647/278 276/440/278
f 305/442/279 309/558/279 327/443/279
f 246/445/157 252/467/157 260/446/157
f 244/448/158 249/648/158 349/449/158
f 331/451/280 335/624/280 348/452/280
f 241/454/157 242/649/157 246/445/157
f 309/456/281 313/486/281 325/457/281
f 310/459/282 250/650/282 254/460/282
f 245/455/157 254/489/157 250/462/157
f 261/463/162 348/651/162 347/464/162
f 246/445/157 242/649/157 248/466/157
f 243/468/163 345/490/163 351/469/163
f 303/471/283 308/652/283 248/472/283
f 257/474/165 259/653/165 354/475/165
f 330/477/284 315/480/284 319/478/284
f 315/480/167 330/477/167 258/481/167
f 314/461/285 254/460/285 262/483/285
f 246/445/157 256/447/157 255/485/157
f 313/486/286 322/557/286 326/487/286
f 245/455/157 255/485/157 262/488/157
f 244/448/170 346/450/170 345/490/170
f 316/491/171 317/499/171 255/492/171
f 312/494/287 328/504/287 332/495/287
f 318/482/288 258/481/288 326/497/288
f 317/499/289 321/654/289 262/500/289
f 256/493/290 260/655/290 320/501/290
f 324/444/291 323/656/291 304/502/291
f 307/503/292 329/657/292 328/504/292
f 311/505/293 320/658/293 260/506/293
f 308/508/294 311/505/294 252/507/294
f 278/510/295 273/659/295 197/511/295
f 294/512/296 232/553/296 228/513/296
f 281/515/297 204/660/297 196/516/297
f 293/411/298 289/434/298 227/436/298
f 241/518/299 306/549/299 303/471/299
f 295/519/185 233/661/185 237/520/185
f 288/522/300 225/405/300 238/523/300
f 290/514/301 228/513/301 239/525/301
f 215/527/188 216/535/188 285/528/188
f 277/530/302 208/537/302 198/531/302
f 203/533/303 204/660/303 281/515/303
f 216/535/304 194/662/304 268/536/304
f 276/440/305 207/647/305 208/537/305
f 272/538/306 199/663/306 236/539/306
f 193/541/307 267/564/307 279/542/307
f 274/543/308 198/664/308 215/527/308
f 270/544/309 196/665/309 233/545/309
f 304/502/310 323/656/310 329/547/310
f 306/549/311 241/518/311 250/550/311
f 294/512/199 291/428/199 231/552/199
f 296/554/200 299/666/200 238/555/200
f 314/461/312 321/484/312 322/557/312
f 319/496/313 320/658/313 311/505/313
f 322/498/314 321/654/314 317/499/314
f 320/501/315 319/478/315 315/480/315
f 318/482/205 317/499/205 316/491/205
f 307/548/316 308/652/316 303/471/316
f 312/494/317 311/505/317 308/508/317
f 310/459/318 314/461/318 313/486/318
f 306/549/319 310/551/319 309/558/319
f 272/538/320 297/540/320 298/559/320
f 301/526/321 302/645/321 289/434/321
f 295/546/322 296/643/322 269/429/322
f 288/522/323 299/524/323 300/560/323
f 297/422/214 302/424/214 301/561/214
f 300/521/215 299/666/215 296/554/215
f 287/412/324 291/428/324 292/406/324
f 290/514/325 289/434/325 293/411/325
f 284/529/217 285/528/217 286/562/217
f 284/529/326 283/387/326 273/403/326
f 280/534/327 281/515/327 282/365/327
f 268/563/328 280/534/328 279/542/328
f 277/530/329 278/510/329 275/359/329
f 271/441/330 276/440/330 275/359/330
f 285/528/331 268/536/331 267/385/331
f 274/532/332 273/659/332 278/510/332
f 270/517/333 269/637/333 282/365/333
f 305/566/226 304/667/226 266/567/226
f 292/569/227 265/582/227 264/570/227
f 194/572/334 203/533/334 280/534/334
f 293/573/335 264/585/335 263/574/335
f 291/576/230 294/668/230 263/568/230
f 304/577/336 303/669/336 265/578/336
f 292/580/337 291/670/337 266/579/337
f 306/581/233 264/570/233 265/582/233
f 305/584/338 263/574/338 264/585/338
f 244/587/235 243/598/235 323/588/235
f 253/590/235 325/594/235 326/591/235
f 253/590/235 249/599/235 327/593/235
f 247/595/235 251/606/235 328/596/235
f 247/595/235 329/597/235 323/588/235
f 249/599/235 244/587/235 324/589/235
f 257/600/235 331/605/235 258/601/235
f 259/603/235 257/600/235 330/602/235
f 261/592/235 326/591/235 258/601/235
f 259/603/235 332/604/235 328/596/235
f 336/607/235 334/613/235 333/608/235
f 333/608/235 350/618/235 343/610/235
f 333/608/235 334/613/235 353/611/235
f 334/613/235 336/607/235 342/614/235
f 334/613/235 339/615/235 341/616/235
f 333/608/235 340/612/235 344/617/235
f 249/619/236 253/465/236 347/464/236
f 259/621/237 251/626/237 338/622/237
f 331/451/238 257/474/238 352/476/238
f 247/625/339 351/671/339 338/622/339
f 336/607/240 337/609/240 345/627/240
f 339/615/241 347/631/241 348/629/241
f 339/615/242 342/614/242 349/630/242
f 343/610/340 350/618/340 338/632/340
f 343/610/244 351/633/244 345/627/244
f 342/614/245 336/607/245 346/628/245
f 340/612/246 353/611/246 335/634/246
f 344/617/247 340/612/247 352/635/247
f 341/616/248 348/629/248 335/634/248
f 344/617/249 354/636/249 338/632/249
g hose_Mesh
v 0.106840 0.016365 0.287539
v 0.074349 0.013974 0.285598
v 0.106909 0.020984 0.288484
v 0.074514 0.024941 0.287841
v 0.074988 0.011725 0.296546
v 0.075153 0.022692 0.298789
v 0.074859 0.025539 0.293667
v 0.074643 0.011127 0.290719
v 0.074331 0.019811 0.285000
v 0.075171 0.016855 0.299387
v 0.002671 0.014220 0.254390
v 0.107009 0.018201 0.290317
v 0.107109 0.015418 0.292150
v 0.106963 0.015166 0.289696
v 0.106832 0.018824 0.287287
v 0.107178 0.020037 0.293095
v 0.107055 0.021236 0.290938
v 0.107186 0.017579 0.293347
v 0.106596 0.011047 0.288822
v 0.106942 0.011645 0.294648
v 0.107107 0.022612 0.296892
v 0.106813 0.025459 0.291770
v 0.106285 0.019731 0.283102
v 0.106302 0.013895 0.283700
v 0.107125 0.016775 0.297490
v 0.106467 0.024861 0.285944
v 0.080300 0.010906 0.296777
v 0.093827 0.010962 0.295905
v 0.093446 0.010250 0.289485
v 0.079919 0.010193 0.290357
v 0.079573 0.019812 0.284021
v 0.093100 0.019869 0.283149
v 0.093305 0.025501 0.286330
v 0.079778 0.025444 0.287202
v 0.093164 0.013873 0.284522
v 0.079636 0.013816 0.285394
v 0.079801 0.024783 0.287637
v 0.093329 0.024840 0.286765
v 0.080441 0.022534 0.298585
v 0.093968 0.022590 0.297713
v 0.093803 0.011624 0.295470
v 0.080276 0.011567 0.296342
v 0.079930 0.010969 0.290515
v 0.093457 0.011026 0.289643
v 0.093674 0.025438 0.292592
v 0.080147 0.025381 0.293464
v 0.093986 0.016754 0.298311
v 0.080459 0.016697 0.299183
v 0.093146 0.019710 0.283924
v 0.079618 0.019653 0.284796
v 0.080481 0.022970 0.299245
v 0.094008 0.023026 0.298373
v 0.093686 0.026214 0.292750
v 0.080159 0.026157 0.293622
v 0.094031 0.016594 0.299086
v 0.080504 0.016538 0.299958
v 0.093123 0.013437 0.283862
v 0.079596 0.013380 0.284734
v 0.108177 0.012667 0.289062
v 0.108445 0.013130 0.293575
v 0.108572 0.021625 0.295313
v 0.108345 0.023830 0.291346
v 0.107935 0.019393 0.284632
v 0.107949 0.014873 0.285095
v 0.108586 0.017104 0.295776
v 0.108077 0.023367 0.286833
v 0.030919 0.014116 0.275216
v 0.029610 0.025083 0.277046
v 0.024405 0.011867 0.284039
v 0.023097 0.022833 0.285869
v 0.026148 0.025681 0.281745
v 0.027868 0.011269 0.279340
v 0.031287 0.019953 0.274745
v 0.022728 0.016997 0.286340
v -0.023956 0.014360 0.208751
v 0.001363 0.025187 0.256220
v -0.003842 0.011971 0.263214
v -0.005150 0.022937 0.265043
v -0.002099 0.025785 0.260919
v -0.000380 0.011373 0.258515
v 0.003040 0.020057 0.253919
v -0.005519 0.017101 0.265514
v -0.026058 0.025327 0.209553
v -0.034262 0.012111 0.212503
v -0.036364 0.023078 0.213304
v -0.031541 0.025925 0.211554
v -0.028779 0.011513 0.210501
v -0.023389 0.020197 0.208563
v -0.036931 0.017241 0.213493
v 0.010758 0.014842 0.070870
v -0.029468 0.014531 0.155086
v -0.031666 0.025498 0.154605
v -0.040145 0.012282 0.152578
v -0.042342 0.023249 0.152097
v -0.037349 0.026096 0.153275
v -0.034461 0.011684 0.153908
v -0.028890 0.020368 0.155239
v -0.042920 0.017412 0.151944
v 0.009264 0.025809 0.069188
v 0.003599 0.012593 0.062563
v 0.002105 0.023560 0.060881
v 0.005450 0.026407 0.064770
v 0.007413 0.011995 0.066980
v 0.011136 0.020679 0.071334
v 0.001727 0.017723 0.060417
v 0.006431 0.019201 0.065875
vn 0.0288 0.8744 0.4844
vn 0.0080 -0.9948 0.1016
vn -0.0619 -0.1019 -0.9929
vn -0.0554 0.4853 -0.8726
vn 0.2094 0.4563 -0.8648
vn 0.1138 -0.8656 -0.4877
vn -0.0257 -0.9943 0.1036
vn 0.0414 0.1019 0.9939
vn -0.1221 0.8567 0.5012
vn 0.0192 -0.4850 0.8743
vn 0.0257 0.9943 -0.1036
vn -0.2401 0.0932 0.9663
vn 0.9983 -0.0030 -0.0589
vn 0.7132 -0.7003 0.0296
vn 0.7330 0.6116 0.2979
vn 0.6697 -0.0736 -0.7389
vn 0.7462 -0.3427 0.5707
vn 0.7524 0.0694 0.6550
vn 0.6759 0.3385 -0.6546
vn 0.7089 0.6961 -0.1135
vn 0.6892 -0.6158 -0.3819
vn -0.0080 0.9948 -0.1016
vn -0.0580 0.4925 -0.8684
vn 0.0619 0.1019 0.9929
vn 0.0554 -0.4853 0.8726
vn -0.0288 -0.8744 -0.4844
vn -0.0414 -0.1019 -0.9939
vn 0.0447 0.8742 0.4834
vn -0.0192 0.4850 -0.8743
vn -0.9983 0.0030 0.0589
vn -0.0447 -0.8742 -0.4834
vn 0.0112 -0.9939 0.1097
vn 0.0281 0.8703 0.4917
vn 0.0580 -0.4925 0.8684
vn -0.0635 -0.1101 -0.9919
vn -0.0281 -0.8703 -0.4917
vn 0.0635 0.1101 0.9919
vn -0.0112 0.9939 -0.1097
vn -0.9983 0.0029 0.0589
vn 0.9028 0.3957 0.1682
vn 0.8958 -0.4443 -0.0075
vn 0.9170 -0.2178 0.3343
vn 0.8611 -0.0492 -0.5060
vn 0.8630 0.2209 -0.4543
vn 0.9193 0.0429 0.3912
vn 0.8785 -0.3944 -0.2697
vn 0.8850 0.4549 -0.0992
vn -0.5200 -0.4853 0.7029
vn 0.0629 0.9948 -0.0803
vn -0.2859 0.8744 0.3921
vn -0.5901 0.1019 0.8009
vn -0.2134 -0.4675 0.8578
vn 0.2303 -0.0985 -0.9681
vn 0.0287 0.9940 -0.1054
vn -0.0282 -0.9942 0.1037
vn -0.8520 0.0954 0.5147
vn 0.4235 -0.8708 -0.2498
vn 0.7690 0.4535 -0.4505
vn -0.0901 -0.9947 0.0504
vn 0.5901 -0.1019 -0.8009
vn -0.0629 -0.9948 0.0803
vn 0.5200 0.4853 -0.7029
vn 0.2859 -0.8744 -0.3921
vn 0.8806 0.4655 -0.0884
vn -0.1057 -0.9944 0.0076
vn 0.9897 -0.0996 -0.1024
vn -0.8771 -0.4728 0.0848
vn -0.4392 0.8577 0.2673
vn 0.0970 0.9938 -0.0550
vn -0.7533 -0.4790 0.4506
vn 0.8596 -0.0998 -0.5012
vn -0.0933 -0.9945 -0.0485
vn 0.8982 -0.1002 0.4281
vn -0.7906 -0.4755 -0.3858
vn 0.0973 0.9940 0.0505
vn 0.4932 -0.8682 -0.0534
vn -0.9907 0.0956 0.0967
vn -0.5039 0.8622 0.0516
vn 0.1064 0.9943 -0.0077
vn 0.7571 0.0030 -0.6533
vn 0.8027 0.4544 0.3863
vn 0.4464 -0.8698 0.2100
vn -0.8950 0.0926 -0.4363
vn -0.4669 0.8553 -0.2246
vn 0.2062 0.4685 -0.8591
vn 0.1197 -0.8562 -0.5026
vn 0.0414 0.1020 0.9939
vn -0.1169 0.8652 0.4877
vn -0.2395 0.0982 0.9659
vn -0.0414 -0.1020 -0.9939
vn 0.9983 -0.0029 -0.0589
vn 0.9983 -0.0030 -0.0590
vn -0.2158 -0.4575 0.8626
vn 0.2312 -0.0928 -0.9685
vn 0.0281 0.9942 -0.1037
vn -0.0288 -0.9940 0.1053
vn -0.8519 0.0995 0.5142
vn 0.4425 -0.8569 -0.2642
vn 0.7587 0.4798 -0.4406
vn -0.0967 -0.9938 0.0552
vn 0.8764 0.4733 -0.0889
vn -0.1064 -0.9943 0.0076
vn 0.9902 -0.0954 -0.1020
vn -0.8807 -0.4661 0.0844
vn -0.4217 0.8704 0.2540
vn 0.0902 0.9947 -0.0500
vn -0.7627 -0.4554 0.4593
vn 0.8597 -0.0948 -0.5019
vn -0.0972 -0.9940 -0.0506
vn 0.8986 -0.0922 0.4289
vn -0.7995 -0.4555 -0.3916
vn 0.0933 0.9945 0.0483
vn 0.5041 -0.8620 -0.0532
vn -0.9903 0.0995 0.0970
vn -0.4937 0.8681 0.0518
vn 0.1056 0.9944 -0.0077
vn 0.7930 0.4761 0.3801
vn 0.4687 -0.8548 0.2227
vn -0.8946 0.1001 -0.4356
vn -0.4457 0.8696 -0.2125
vt 0.464568 0.333560
vt 0.465142 0.335075
vt 0.464568 0.335098
vt 0.459450 0.346939
vt 0.460136 0.345403
vt 0.460136 0.346940
vt 0.465170 0.344408
vt 0.465856 0.342877
vt 0.465856 0.344411
vt 0.464608 0.344376
vt 0.465170 0.342873
vt 0.458686 0.344865
vt 0.458030 0.339811
vt 0.458589 0.339594
vt 0.459211 0.335590
vt 0.460957 0.336904
vt 0.459145 0.335814
vt 0.458969 0.335524
vt 0.459279 0.335320
vt 0.459928 0.347615
vt 0.459231 0.348200
vt 0.459243 0.347582
vt 0.456556 0.333737
vt 0.455090 0.334830
vt 0.454939 0.334733
vt 0.460491 0.347611
vt 0.459916 0.348233
vt 0.456605 0.333904
vt 0.456837 0.334056
vt 0.456656 0.334106
vt 0.459344 0.341467
vt 0.460030 0.341454
vt 0.456726 0.337397
vt 0.456380 0.337577
vt 0.456380 0.337288
vt 0.456906 0.337743
vt 0.457071 0.337506
vt 0.456545 0.337051
vt 0.457071 0.337217
vt 0.456834 0.337051
vt 0.460035 0.345211
vt 0.459450 0.345402
vt 0.459504 0.345210
vt 0.456389 0.336765
vt 0.455898 0.337143
vt 0.456291 0.336580
vt 0.465761 0.342681
vt 0.465230 0.342678
vt 0.457356 0.337069
vt 0.456977 0.336580
vt 0.457539 0.336973
vt 0.456920 0.336765
vt 0.456085 0.337732
vt 0.456461 0.338222
vt 0.455898 0.337829
vt 0.456085 0.337201
vt 0.457052 0.338036
vt 0.457539 0.337659
vt 0.457147 0.338222
vt 0.465142 0.333537
vt 0.465828 0.335074
vt 0.458827 0.338283
vt 0.458211 0.339825
vt 0.458211 0.338245
vt 0.468969 0.334116
vt 0.469655 0.335647
vt 0.468969 0.335650
vt 0.468407 0.334149
vt 0.468407 0.335683
vt 0.458876 0.346916
vt 0.458135 0.345481
vt 0.457438 0.344897
vt 0.458123 0.344863
vt 0.456786 0.333855
vt 0.458698 0.345483
vt 0.462734 0.343146
vt 0.463219 0.342615
vt 0.462776 0.343228
vt 0.455751 0.334242
vt 0.455833 0.334957
vt 0.455745 0.334928
vt 0.455349 0.335488
vt 0.455391 0.335570
vt 0.461891 0.341498
vt 0.461406 0.342029
vt 0.461849 0.341415
vt 0.461489 0.342743
vt 0.462020 0.343228
vt 0.461406 0.342785
vt 0.455221 0.333757
vt 0.455833 0.334200
vt 0.462048 0.343140
vt 0.461494 0.342057
vt 0.458904 0.335748
vt 0.460522 0.349235
vt 0.459766 0.350816
vt 0.459766 0.349233
vt 0.467021 0.334100
vt 0.467651 0.335656
vt 0.467021 0.335683
vt 0.464766 0.342944
vt 0.465382 0.344485
vt 0.464766 0.344523
vt 0.459584 0.338288
vt 0.458827 0.339863
vt 0.459137 0.350789
vt 0.459137 0.349206
vt 0.465382 0.342905
vt 0.466139 0.344479
vt 0.467651 0.334073
vt 0.468407 0.335654
vt 0.454507 0.333840
vt 0.455192 0.333845
vt 0.454635 0.335570
vt 0.454664 0.335482
vt 0.463137 0.341900
vt 0.462606 0.341415
vt 0.463219 0.341858
vt 0.463131 0.342586
vt 0.462577 0.341503
vt 0.454023 0.334371
vt 0.454465 0.333757
vt 0.454105 0.335085
vt 0.454111 0.334399
vt 0.454023 0.335128
vt 0.457356 0.337600
vt 0.456521 0.338036
vt 0.456617 0.337743
vt 0.460477 0.338314
vt 0.460590 0.341670
vt 0.454531 0.335959
vt 0.454363 0.335836
vt 0.454212 0.335739
vt 0.459231 0.338112
vt 0.459917 0.338099
vt 0.455258 0.334953
vt 0.461159 0.336773
vt 0.454288 0.343112
vt 0.454522 0.341267
vt 0.454495 0.343129
vt 0.461931 0.338247
vt 0.462720 0.340688
vt 0.462472 0.340687
vt 0.455577 0.342503
vt 0.455761 0.340866
vt 0.455760 0.342580
vt 0.462133 0.338116
vt 0.462996 0.340674
vt 0.457453 0.336449
vt 0.458139 0.336461
vt 0.461383 0.336608
vt 0.458698 0.336244
vt 0.455574 0.338936
vt 0.455757 0.338906
vt 0.462156 0.343321
vt 0.455371 0.340844
vt 0.455578 0.340838
vt 0.454709 0.339104
vt 0.454702 0.341234
vt 0.453722 0.337818
vt 0.453907 0.337817
vt 0.454677 0.343049
vt 0.462393 0.343460
vt 0.459003 0.346640
vt 0.455367 0.338930
vt 0.455558 0.336050
vt 0.454529 0.339079
vt 0.454676 0.335928
vt 0.454346 0.339843
vt 0.456837 0.342176
vt 0.456757 0.342364
vt 0.461943 0.343185
vt 0.454321 0.339084
vt 0.454187 0.339945
vt 0.454523 0.339739
vt 0.455505 0.335847
vt 0.455660 0.335659
vt 0.455761 0.335804
vt 0.455351 0.336034
vt 0.455270 0.335724
vt 0.455249 0.335889
vt 0.455740 0.335969
vt 0.458904 0.346405
vt 0.454288 0.335866
vt 0.454496 0.335850
vt 0.456683 0.342540
vt 0.464608 0.342841
vt 0.459037 0.335254
vt 0.460479 0.348229
vt 0.465828 0.333536
vt 0.469655 0.334112
vt 0.458876 0.345379
vt 0.457450 0.345515
vt 0.456736 0.333687
vt 0.460522 0.350818
vt 0.459584 0.339868
vt 0.466139 0.342900
vt 0.468407 0.334071
vt 0.457344 0.339799
vt 0.454315 0.341260
vt 0.462357 0.337952
vt 0.454113 0.337827
vt 0.455370 0.342520
vt 0.459110 0.346891
vt 0.455453 0.335643
s 0
g hose_Material
usemtl Material
f 375/672/341 399/673/341 394/674/341
f 398/675/342 374/676/342 395/677/342
f 403/678/343 378/679/343 389/680/343
f 392/681/344 377/682/344 403/678/344
f 358/683/345 427/684/345 422/685/345
f 362/686/346 421/687/346 356/688/346
f 397/689/347 359/690/347 362/686/347
f 364/691/348 393/692/348 360/693/348
f 360/694/349 425/695/349 424/696/349
f 359/697/350 402/698/350 364/691/350
f 361/699/351 391/700/351 358/701/351
f 364/691/352 424/702/352 428/703/352
f 366/704/353 357/705/353 371/706/353
f 355/707/353 366/704/353 368/708/353
f 370/709/353 366/704/353 371/706/353
f 367/710/353 366/704/353 372/711/353
f 414/712/354 373/713/354 413/714/354
f 415/715/355 376/716/355 375/717/355
f 418/718/356 377/682/356 417/719/356
f 414/720/357 379/721/357 374/722/357
f 415/715/358 379/721/358 419/723/358
f 420/724/359 377/725/359 380/726/359
f 420/724/360 376/716/360 416/727/360
f 418/728/361 373/729/361 378/730/361
f 376/731/362 392/732/362 399/673/362
f 386/733/363 388/734/363 387/735/363
f 379/736/364 394/737/364 401/738/364
f 374/739/365 401/738/365 395/740/365
f 389/741/366 373/713/366 398/675/366
f 404/742/367 356/743/367 363/744/367
f 360/694/368 400/745/368 361/699/368
f 391/746/369 363/744/369 358/683/369
f 389/747/353 383/748/353 411/749/353
f 391/750/370 385/751/370 404/752/370
f 390/753/370 385/751/370 412/754/370
f 394/755/353 407/756/353 406/757/353
f 392/758/353 386/759/353 387/760/353
f 391/750/370 408/761/370 388/762/370
f 389/747/353 386/759/353 403/763/353
f 392/758/353 407/756/353 399/764/353
f 390/765/371 362/686/371 356/688/371
f 382/766/372 384/767/372 383/768/372
f 406/769/373 408/770/373 405/771/373
f 382/772/374 410/773/374 381/774/374
f 411/775/375 385/776/375 386/733/375
f 383/768/376 412/777/376 411/778/376
f 409/779/377 405/780/377 410/773/377
f 407/781/378 388/782/378 408/770/378
f 393/783/379 408/761/379 400/784/379
f 390/753/370 384/785/370 397/786/370
f 395/787/353 409/788/353 382/789/353
f 395/787/353 383/748/353 398/790/353
f 394/755/353 409/788/353 401/791/353
f 393/783/370 410/792/370 405/793/370
f 396/794/370 410/792/370 402/795/370
f 396/794/370 384/785/370 381/796/370
f 355/707/380 413/797/380 418/728/380
f 357/705/381 416/727/381 371/706/381
f 357/705/382 417/798/382 420/724/382
f 370/709/383 419/723/383 372/711/383
f 367/710/384 419/723/384 414/720/384
f 355/707/385 417/798/385 369/799/385
f 370/709/386 416/727/386 415/715/386
f 367/710/387 413/797/387 368/708/387
f 428/703/388 431/800/388 423/801/388
f 425/695/389 430/802/389 433/803/389
f 424/696/390 433/803/390 432/804/390
f 428/703/391 432/805/391 436/806/391
f 364/691/392 423/801/392 359/697/392
f 356/743/393 427/684/393 363/744/393
f 361/699/394 422/807/394 425/695/394
f 359/690/395 426/808/395 362/686/395
f 432/809/396 443/810/396 436/811/396
f 365/812/397 441/813/397 429/814/397
f 435/815/398 437/816/398 430/817/398
f 434/818/399 438/819/399 441/813/399
f 427/684/400 365/820/400 435/821/400
f 423/822/401 434/818/401 426/808/401
f 427/684/402 430/823/402 422/685/402
f 426/808/403 365/812/403 421/687/403
f 437/816/404 451/824/404 446/825/404
f 438/819/405 450/826/405 441/813/405
f 429/827/406 451/824/406 442/828/406
f 443/810/407 447/829/407 438/830/407
f 433/803/408 439/831/408 432/804/408
f 430/802/409 440/832/409 433/803/409
f 431/833/410 443/810/410 438/830/410
f 435/815/411 429/827/411 442/828/411
f 447/834/412 457/835/412 450/826/412
f 445/836/413 458/837/413 451/824/413
f 452/838/414 454/839/414 447/829/414
f 449/840/415 453/841/415 456/842/415
f 441/813/416 445/843/416 429/814/416
f 443/810/417 448/844/417 452/838/417
f 439/831/418 449/840/418 448/845/418
f 440/832/419 446/846/419 449/840/419
f 460/847/420 455/848/420 456/849/420
f 444/850/420 460/847/420 458/837/420
f 454/851/420 460/847/420 457/852/420
f 453/853/420 460/847/420 456/849/420
f 446/825/421 458/837/421 453/853/421
f 450/826/422 444/854/422 445/843/422
f 452/838/423 455/855/423 459/856/423
f 448/845/424 456/842/424 455/857/424
f 375/672/341 376/731/341 399/673/341
f 398/675/342 373/713/342 374/676/342
f 403/678/343 377/682/343 378/679/343
f 392/681/344 380/858/344 377/682/344
f 358/683/425 363/744/425 427/684/425
f 362/686/426 426/808/426 421/687/426
f 397/689/347 396/859/347 359/690/347
f 364/691/427 402/698/427 393/692/427
f 360/694/428 361/699/428 425/695/428
f 359/697/350 396/860/350 402/698/350
f 361/699/351 400/745/351 391/700/351
f 364/691/429 360/693/429 424/702/429
f 366/704/353 369/799/353 357/705/353
f 355/707/353 369/799/353 366/704/353
f 370/709/353 372/711/353 366/704/353
f 367/710/353 368/708/353 366/704/353
f 414/712/354 374/676/354 373/713/354
f 415/715/355 416/727/355 376/716/355
f 418/718/356 378/679/356 377/682/356
f 414/720/357 419/723/357 379/721/357
f 415/715/358 375/717/358 379/721/358
f 420/724/359 417/798/359 377/725/359
f 420/724/360 380/726/360 376/716/360
f 418/728/361 413/797/361 373/729/361
f 376/731/362 380/861/362 392/732/362
f 386/733/363 385/776/363 388/734/363
f 379/736/364 375/862/364 394/737/364
f 374/739/365 379/736/365 401/738/365
f 389/741/366 378/863/366 373/713/366
f 404/742/430 390/864/430 356/743/430
f 360/694/368 393/865/368 400/745/368
f 391/746/369 404/742/369 363/744/369
f 389/747/353 398/790/353 383/748/353
f 391/750/370 388/762/370 385/751/370
f 390/753/370 404/752/370 385/751/370
f 394/755/353 399/764/353 407/756/353
f 392/758/353 403/763/353 386/759/353
f 391/750/379 400/784/379 408/761/379
f 389/747/353 411/749/353 386/759/353
f 392/758/353 387/760/353 407/756/353
f 390/765/371 397/689/371 362/686/371
f 382/766/372 381/866/372 384/767/372
f 406/769/373 407/781/373 408/770/373
f 382/772/374 409/779/374 410/773/374
f 411/775/375 412/867/375 385/776/375
f 383/768/376 384/767/376 412/777/376
f 409/779/377 406/868/377 405/780/377
f 407/781/378 387/869/378 388/782/378
f 393/783/370 405/793/370 408/761/370
f 390/753/370 412/754/370 384/785/370
f 395/787/353 401/791/353 409/788/353
f 395/787/431 382/789/431 383/748/431
f 394/755/432 406/757/432 409/788/432
f 393/783/370 402/795/370 410/792/370
f 396/794/370 381/796/370 410/792/370
f 396/794/370 397/786/370 384/785/370
f 355/707/380 368/708/380 413/797/380
f 357/705/381 420/724/381 416/727/381
f 357/705/382 369/799/382 417/798/382
f 370/709/383 415/715/383 419/723/383
f 367/710/384 372/711/384 419/723/384
f 355/707/385 418/728/385 417/798/385
f 370/709/386 371/706/386 416/727/386
f 367/710/387 414/720/387 413/797/387
f 428/703/388 436/806/388 431/800/388
f 425/695/389 422/807/389 430/802/389
f 424/696/390 425/695/390 433/803/390
f 428/703/391 424/702/391 432/805/391
f 364/691/433 428/703/433 423/801/433
f 356/743/434 421/870/434 427/684/434
f 361/699/435 358/701/435 422/807/435
f 359/690/436 423/822/436 426/808/436
f 432/809/437 439/871/437 443/810/437
f 365/812/438 434/818/438 441/813/438
f 435/815/439 442/828/439 437/816/439
f 434/818/440 431/872/440 438/819/440
f 427/684/400 421/870/400 365/820/400
f 423/822/401 431/872/401 434/818/401
f 427/684/402 435/821/402 430/823/402
f 426/808/403 434/818/403 365/812/403
f 437/816/441 442/828/441 451/824/441
f 438/819/442 447/834/442 450/826/442
f 429/827/443 445/836/443 451/824/443
f 443/810/444 452/838/444 447/829/444
f 433/803/445 440/832/445 439/831/445
f 430/802/446 437/873/446 440/832/446
f 431/833/447 436/811/447 443/810/447
f 435/815/448 365/874/448 429/827/448
f 447/834/449 454/875/449 457/835/449
f 445/836/450 444/850/450 458/837/450
f 452/838/451 459/856/451 454/839/451
f 449/840/452 446/846/452 453/841/452
f 441/813/453 450/826/453 445/843/453
f 443/810/454 439/871/454 448/844/454
f 439/831/455 440/832/455 449/840/455
f 440/832/456 437/873/456 446/846/456
f 460/847/420 459/876/420 455/848/420
f 444/850/420 457/852/420 460/847/420
f 454/851/420 459/876/420 460/847/420
f 453/853/420 458/837/420 460/847/420
f 446/825/457 451/824/457 458/837/457
f 450/826/458 457/835/458 444/854/458
f 452/838/459 448/844/459 455/855/459
f 448/845/460 449/840/460 456/842/460
