# Blender 4.2.1 LTS
# www.blender.org
mtllib rubble_2.mtl
g rubble_2_Mesh
v 0.696508 0.047463 -0.769119
v -0.750439 -0.131013 -1.320951
v -0.076194 0.062760 0.707481
v -1.464219 -0.003659 0.288712
v 0.499563 -0.003969 -0.753059
v -0.184782 -0.074456 -1.144241
v -0.338301 -0.096460 -1.314408
v -1.346786 0.020635 0.487433
v -1.171600 0.072440 0.380441
v -0.330902 0.061374 0.675003
v 0.102197 0.059939 0.685720
v 0.231453 -0.051907 0.603144
v 0.490635 0.037727 0.397605
v -1.235621 -0.073663 -0.499872
v -1.457473 -0.094768 -0.376971
v -1.529129 -0.055581 0.094158
v 0.231768 0.029623 0.039959
v 0.203412 -0.020383 0.210759
v -0.214764 0.047195 0.479142
v -0.553492 0.006629 -0.338262
v -0.799179 -0.043364 -0.169318
v -1.074382 0.058737 0.110046
v -0.836617 -0.021554 -0.447712
v -1.160961 -0.004128 -0.266040
v -1.275103 0.053584 0.103589
v 1.096831 0.003873 -0.547823
v 0.933349 0.079031 0.138249
v 1.276064 0.042321 -0.296006
v 1.154033 0.051061 0.020967
v 0.474570 -0.025050 0.416451
v 0.720178 -0.016307 -0.791920
v -0.332615 -0.161131 -1.335801
v -0.732390 -0.197416 -1.395590
v -1.556447 -0.118569 0.086780
v -1.481566 -0.064370 0.326168
v -0.301061 0.000116 0.691453
v -0.076194 0.000166 0.707849
v 0.533232 -0.067211 -0.765452
v -0.179116 -0.158730 -1.146935
v -1.346786 -0.041960 0.487802
v -1.171717 0.002345 0.380892
v -0.214764 -0.015400 0.479510
v -1.074498 -0.011358 0.110497
v -1.275103 -0.009010 0.103957
v 0.102197 -0.002655 0.686089
v 0.231453 -0.114502 0.603513
v -1.276486 -0.148789 -0.515351
v -1.457473 -0.157362 -0.376603
v 0.231768 -0.032971 0.040327
v 0.187493 -0.123730 0.206383
v -0.553492 -0.055965 -0.337894
v -0.799295 -0.113459 -0.168867
v -0.838636 -0.032626 -0.448291
v -1.159116 -0.100960 -0.266653
v 0.916953 -0.032724 0.158948
v 1.096710 -0.058723 -0.547704
v 1.153912 -0.011534 0.021086
v 1.285343 -0.020213 -0.296637
v 0.943212 0.020055 0.239925
v 0.469018 -0.047566 0.451656
v -0.180102 -0.126382 -1.152105
v 0.536894 -0.034870 -0.770767
v 0.105895 0.030255 0.691986
v -0.074198 0.033153 0.715265
v 1.292324 0.012364 -0.298804
v 1.160271 0.035154 0.028132
v -0.334362 -0.128873 -1.342769
v 0.235706 -0.081727 0.606734
v 1.101572 -0.026249 -0.551680
v -1.353165 -0.009170 0.491314
v -1.499951 -0.032253 0.316448
v -1.176512 0.035164 0.384999
v -0.759986 -0.163956 -1.378880
v -1.282715 -0.116426 -0.520241
v -0.302561 0.033142 0.699639
v -1.564235 -0.085973 0.086493
v -1.463759 -0.124919 -0.379918
v 0.724676 0.016093 -0.796069
v 0.352081 -0.067555 -1.103390
v -0.506188 0.065345 0.619947
v 0.009791 0.051773 -0.006042
v -0.051387 -0.055722 0.102760
v -0.483881 0.055602 0.421121
v 0.352081 -0.130149 -1.103022
v -0.506304 -0.004750 0.620397
v 0.010502 -0.032753 -0.004797
v -0.051503 -0.125817 0.103210
v -0.483997 -0.014493 0.421571
v -0.509460 0.028173 0.626533
v 0.408418 -0.099267 -1.135595
v 0.588165 0.070131 -0.456069
v -1.017068 -0.112099 -1.260966
v 0.488047 0.062272 -0.512316
v -0.172154 0.012726 -0.527238
v -0.489292 -0.043891 -0.591975
v 0.975051 0.043508 -0.073742
v 1.158582 0.048724 -0.031861
v 0.579021 0.006959 -0.467081
v -1.028476 -0.182863 -1.306024
v 0.504882 -0.000646 -0.518328
v -0.172154 -0.049869 -0.526870
v -0.523870 -0.050273 -0.576932
v 0.966792 -0.043667 -0.063333
v 1.163161 -0.013841 -0.032117
v -1.045389 -0.149952 -1.300115
v 1.169831 0.025791 -0.029678
v 0.273781 -0.054546 -0.516087
v 0.273425 0.019015 -0.516893
v 0.847347 0.088717 -0.814140
v 0.751924 0.057872 0.278071
v 0.859181 0.025534 -0.825357
v 0.720398 -0.029282 0.286476
v 0.864269 0.057972 -0.828766
v 0.744884 0.005333 0.355602
v 0.725546 -0.042051 -0.074214
v 0.735392 0.033117 -0.072808
v 0.052542 -0.063173 -1.056792
v 0.052542 -0.125767 -1.056424
v -0.900482 0.012591 0.658198
v -0.896390 0.049815 0.652626
v -0.277575 0.012299 -0.198009
v -0.465480 -0.058691 0.135687
v -0.710622 -0.003139 0.211863
v -0.896507 -0.020280 0.653076
v -0.277220 -0.061262 -0.197202
v -0.465596 -0.128786 0.136137
v -0.687933 -0.014854 0.219109
v 0.147023 -0.100695 -1.090273
v 0.050813 -0.052207 -0.521478
v 0.054458 -0.032207 -0.528355
v -1.137668 -0.073670 -0.730066
v 0.334030 0.020951 -0.133476
v -0.354013 0.022429 -0.425062
v -0.658344 -0.017361 -0.509606
v -1.163804 -0.146615 -0.760335
v 0.342447 -0.041806 -0.136299
v -0.354013 -0.040165 -0.424694
v -0.681253 -0.041449 -0.512612
v 1.165051 0.030473 -0.000773
v 0.141608 0.035394 -0.261468
v 0.530811 0.027860 0.000081
v 0.954200 0.061269 0.032253
v 1.156308 0.049893 -0.005447
v 0.518206 -0.035115 0.003998
v 0.941873 -0.038196 0.047807
v 1.158537 -0.012687 -0.005515
v -1.175376 -0.113978 -0.759825
v 0.142142 -0.043650 -0.260442
v 0.718633 -0.035743 0.093033
v 0.739319 0.045418 0.089532
v -0.105936 -0.041907 -0.342568
v -0.106203 0.028911 -0.343265
vn -0.2583 0.9654 0.0346
vn 0.0070 0.9974 -0.0722
vn 0.1402 0.9883 -0.0596
vn -0.0237 0.9980 -0.0591
vn -0.1097 0.9914 -0.0717
vn -0.1351 0.9862 0.0954
vn 0.1579 0.9674 -0.1980
vn -0.0459 0.9971 0.0599
vn -0.0984 0.9832 0.1538
vn 0.1760 0.9738 -0.1437
vn 0.0026 0.9997 -0.0245
vn -0.2568 0.9617 0.0956
vn 0.3231 0.7747 -0.5435
vn -0.0634 0.9913 -0.1154
vn -0.0921 0.9621 -0.2567
vn -0.3738 0.8919 -0.2547
vn -0.1218 0.9747 -0.1873
vn 0.0487 0.9980 -0.0400
vn 0.3558 -0.9293 0.0991
vn -0.0070 -0.9974 0.0722
vn -0.0211 -0.9989 0.0430
vn -0.0132 -0.9989 0.0459
vn 0.0325 -0.9938 -0.1063
vn 0.0306 -0.9590 -0.2817
vn -0.1018 -0.9625 0.2515
vn 0.0265 -0.9945 -0.1012
vn 0.0642 -0.9845 -0.1631
vn -0.3342 -0.8861 0.3211
vn -0.0012 -0.9988 0.0492
vn 0.5027 -0.8079 -0.3075
vn -0.2292 -0.9722 0.0480
vn 0.0626 -0.9567 0.2843
vn 0.2458 -0.9668 0.0699
vn 0.0841 -0.9607 0.2647
vn 0.0041 -0.9994 0.0333
vn 0.1341 -0.9878 0.0787
vn 0.2719 -0.8956 0.3522
vn 0.1342 -0.9378 -0.3202
vn 0.1229 -0.1884 0.9744
vn 0.8947 -0.1641 0.4154
vn 0.7746 -0.0932 -0.6255
vn 0.4074 -0.2053 0.8899
vn 0.7959 -0.2083 -0.5685
vn -0.7317 -0.2240 0.6438
vn -0.2484 -0.7978 -0.5494
vn 0.4353 -0.8123 0.3882
vn 0.5210 -0.0306 0.8530
vn 0.0361 0.4701 -0.8819
vn -0.8870 -0.2312 -0.3998
vn -0.3181 -0.2417 0.9167
vn -0.9254 -0.2184 0.3097
vn -0.5951 -0.1950 -0.7796
vn -0.0667 -0.2150 0.9743
vn -0.9552 -0.2299 -0.1866
vn -0.2075 -0.0700 -0.9757
vn -0.1027 -0.1123 -0.9884
vn -0.1631 0.3348 -0.9281
vn -0.3608 0.3998 -0.8426
vn -0.6262 0.7634 -0.1587
vn -0.1051 0.5918 0.7992
vn -0.3917 0.7101 -0.5851
vn -0.6248 0.7808 0.0001
vn -0.2901 0.1917 0.9376
vn -0.5891 0.7682 -0.2507
vn -0.0429 0.6549 -0.7545
vn 0.5128 0.0373 0.8577
vn 0.4536 0.5078 0.7324
vn 0.4941 0.3726 0.7855
vn -0.8479 0.2428 0.4713
vn 0.7015 0.4336 -0.5655
vn 0.6587 0.2331 0.7154
vn 0.7213 0.1668 -0.6723
vn 0.8250 0.4386 0.3563
vn 0.1210 0.2600 0.9580
vn 0.3335 0.1705 -0.9272
vn 0.2601 0.8460 0.4655
vn 0.4922 0.7962 -0.3517
vn 0.0757 0.1675 0.9830
vn 0.0856 -0.1433 0.9860
vn 0.9400 -0.1563 -0.3034
vn -0.0959 -0.9656 0.2417
vn 0.0926 -0.8839 -0.4584
vn -0.0157 -0.9991 0.0401
vn -0.0136 -0.9988 0.0474
vn -0.0185 0.9623 -0.2712
vn 0.0362 0.9574 0.2863
vn 0.0776 0.9970 -0.0041
vn 0.0415 0.9980 -0.0477
vn -0.1848 0.9453 -0.2689
vn 0.0849 -0.9867 0.1384
vn 0.8942 0.4441 0.0574
vn -0.0479 0.8716 -0.4878
vn -0.2641 0.0373 -0.9638
vn 0.9681 -0.1667 0.1871
vn 0.1189 -0.9909 0.0627
vn -0.2008 -0.9719 -0.1232
vn 0.0654 -0.9849 0.1604
vn 0.2889 -0.9156 0.2798
vn 0.0727 -0.9825 0.1717
vn -0.1235 -0.9859 0.1129
vn -0.0708 0.9924 -0.1011
vn 0.2173 0.9704 0.1056
vn -0.0818 0.9926 -0.0893
vn -0.0315 0.9960 -0.0830
vn 0.1939 0.9793 -0.0581
vn -0.1473 0.9798 -0.1354
vn -0.3078 0.9353 -0.1743
vn 0.3275 -0.9216 0.2083
vn 0.1953 0.8036 0.5623
vn 0.6765 0.5851 -0.4473
vn 0.7185 -0.1832 -0.6710
vn -0.0275 -0.8401 -0.5417
vn -0.0046 -0.9997 0.0239
vn -0.0573 0.9964 -0.0620
vn -0.0084 0.9891 -0.1471
vn 0.0055 -0.9917 0.1285
vn -0.6986 -0.1884 0.6903
vn -0.6847 0.1767 0.7070
vn -0.1302 0.4572 -0.8798
vn -0.1345 -0.5925 -0.7943
vn 0.0363 -0.9269 0.3735
vn 0.3887 -0.7965 -0.4632
vn -0.0180 -0.9993 0.0333
vn 0.0096 -0.9999 -0.0079
vn -0.0363 0.9269 -0.3735
vn -0.4352 0.7507 0.4970
vn -0.0043 0.9978 -0.0662
vn -0.0442 0.9976 -0.0538
vn -0.2157 0.9610 -0.1730
vn -0.0114 -0.9993 0.0367
vn 0.0076 0.9956 0.0932
vn -0.0701 -0.9927 -0.0977
vn 0.9694 -0.1601 0.1862
vn 0.9048 0.4216 0.0593
vn -0.1981 0.9798 0.0264
vn 0.2270 -0.9738 -0.0084
vn -0.6382 0.7438 -0.1988
vn -0.9243 -0.3246 -0.2008
vn 0.1357 -0.9876 0.0791
vn -0.0034 -0.9993 0.0376
vn 0.1213 -0.9880 0.0957
vn 0.1354 -0.9896 -0.0490
vn -0.0116 -0.9988 0.0473
vn -0.0098 -0.9970 0.0772
vn -0.0179 0.9988 -0.0457
vn -0.0433 0.9839 -0.1734
vn 0.0151 0.9604 -0.2782
vn -0.0896 0.9927 0.0807
vn 0.1914 0.9694 -0.1539
vn -0.1110 0.9512 -0.2880
vn -0.3887 0.9143 -0.1143
vn 0.0035 0.9975 -0.0701
vn 0.1651 0.9862 0.0094
vn -0.2647 0.9638 0.0333
vn -0.0591 0.9929 -0.1029
vn 0.0902 0.9938 0.0657
vn -0.0202 0.9869 -0.1603
vn -0.0520 0.9967 0.0620
vn -0.0948 0.9836 0.1532
vn 0.2065 0.9669 -0.1500
vn -0.0008 0.9987 -0.0504
vn -0.3263 0.9204 0.2153
vn 0.1993 0.9778 0.0643
vn -0.1226 0.9911 -0.0522
vn -0.2105 0.9534 -0.2163
vn -0.2497 0.9611 -0.1179
vn -0.1571 0.9861 -0.0546
vn 0.0415 0.9867 -0.1572
vn 0.2146 -0.9757 -0.0437
vn -0.0050 -0.9975 0.0710
vn -0.0473 -0.9983 -0.0352
vn 0.2207 -0.9744 -0.0424
vn -0.0691 -0.9971 -0.0323
vn 0.0437 -0.9580 -0.2833
vn -0.0190 -0.9718 0.2351
vn 0.0337 -0.9941 -0.1036
vn 0.1114 -0.9790 -0.1710
vn -0.0840 -0.9597 0.2680
vn -0.0044 -0.9997 0.0239
vn 0.3350 -0.9421 -0.0152
vn -0.3231 -0.7747 0.5435
vn 0.2405 -0.9653 0.1020
vn 0.1405 -0.9825 0.1226
vn 0.3506 -0.9241 0.1522
vn -0.0011 -0.9988 0.0489
vn 0.1327 -0.9890 0.0659
vn 0.2823 -0.8430 0.4579
vn 0.3772 -0.1349 -0.9163
vn 0.1145 -0.2245 0.9677
vn 0.8921 -0.1758 0.4163
vn 0.7742 -0.0768 -0.6283
vn 0.4410 -0.1443 0.8858
vn 0.7987 -0.1895 -0.5710
vn -0.7359 -0.2120 0.6430
vn 0.6379 -0.1569 0.7540
vn 0.5062 -0.1957 0.8399
vn 0.5194 0.0095 0.8545
vn 0.1626 -0.1999 -0.9662
vn -0.8655 -0.3006 -0.4007
vn -0.3160 -0.2030 0.9268
vn -0.8539 -0.3818 0.3536
vn -0.5852 -0.2301 -0.7776
vn -0.0705 -0.2430 0.9675
vn -0.9605 -0.2053 -0.1880
vn -0.2053 -0.0962 -0.9740
vn -0.0983 -0.1505 -0.9837
vn -0.2465 0.4946 -0.8334
vn -0.2962 0.2725 -0.9154
vn -0.9497 0.2198 -0.2229
vn -0.0661 0.2495 0.9661
vn -0.6059 0.2015 -0.7696
vn -0.6553 0.7553 0.0068
vn -0.3101 0.4291 0.8484
vn -0.6010 0.7553 -0.2615
vn -0.0302 0.8710 -0.4903
vn 0.5154 0.0013 0.8569
vn 0.3711 0.8184 0.4387
vn 0.5271 0.1753 0.8316
vn -0.4610 0.8435 0.2757
vn 0.7676 0.1988 -0.6094
vn 0.6443 0.1813 0.7429
vn 0.6487 0.5443 -0.5319
vn 0.8340 0.4192 0.3587
vn 0.1285 0.2201 0.9670
vn 0.0653 0.7508 -0.6573
vn 0.2666 0.7865 0.5571
vn 0.3446 0.8961 -0.2795
vn 0.0744 0.1396 0.9874
vn 0.0891 -0.1742 0.9807
vn 0.4465 -0.8918 -0.0733
vn -0.0587 -0.9645 0.2576
vn 0.2439 -0.7995 -0.5489
vn -0.0087 -0.9992 0.0381
vn -0.0014 -0.9974 0.0724
vn 0.0800 0.9698 -0.2305
vn -0.3410 0.7575 0.5567
vn 0.1016 0.9948 -0.0114
vn 0.0367 0.9983 -0.0448
vn -0.0602 0.9863 -0.1537
vn 0.2208 -0.9351 0.2772
vn 0.9015 0.4252 0.0802
vn -0.1380 0.7600 -0.6351
vn -0.2699 0.2427 -0.9318
vn 0.9689 -0.1739 0.1760
vn 0.1361 -0.9869 0.0866
vn -0.0080 -0.9995 0.0289
vn 0.0048 -0.9844 0.1757
vn 0.0406 -0.9952 0.0889
vn -0.0137 -0.9906 0.1362
vn -0.0235 -0.9846 0.1731
vn -0.0208 0.9992 -0.0335
vn -0.0435 0.9946 -0.0943
vn 0.0404 0.9903 -0.1328
vn -0.2638 0.9267 -0.2676
vn 0.0045 0.9901 -0.1400
vn -0.0506 0.9953 -0.0830
vn 0.0402 0.9959 0.0808
vn -0.0627 -0.9930 -0.1005
vn 0.2024 0.4871 0.8496
vn 0.7734 0.1988 -0.6019
vn 0.7170 -0.1895 -0.6709
vn 0.1883 -0.9032 0.3856
vn -0.0180 -0.9993 0.0335
vn -0.0923 0.9952 -0.0340
vn -0.2246 0.9728 -0.0562
vn -0.6980 -0.1919 0.6899
vn -0.6843 0.1810 0.7064
vn -0.1436 0.5679 -0.8105
vn -0.1334 -0.5812 -0.8028
vn -0.3288 -0.8839 0.3327
vn -0.0092 -0.9790 -0.2035
vn 0.1046 -0.9945 -0.0091
vn 0.0442 -0.9976 0.0538
vn 0.0966 0.9261 -0.3646
vn 0.0100 0.9769 0.2134
vn -0.1187 0.9926 -0.0265
vn -0.1047 0.9812 -0.1620
vn 0.0620 0.9625 -0.2640
vn -0.0202 -0.9990 0.0398
vn -0.0520 0.9959 -0.0742
vn -0.0195 -0.9991 0.0369
vn 0.9703 -0.1658 0.1759
vn 0.9136 0.3973 0.0867
vn 0.0873 0.9960 -0.0188
vn -0.0130 -0.9993 0.0359
vn -0.6676 0.7148 -0.2082
vn -0.8865 -0.4211 -0.1919
vn 0.1394 -0.9880 0.0671
vn -0.0088 -0.9988 0.0472
vn 0.0984 -0.9922 -0.0759
vn -0.0242 -0.9984 0.0518
vn -0.0198 -0.9959 0.0882
vn 0.0256 0.9867 -0.1603
vn -0.0927 0.9930 -0.0730
vn -0.0290 0.9965 -0.0787
vn -0.1128 0.9917 0.0623
vn 0.0033 0.9960 -0.0888
vn -0.0246 0.9357 -0.3519
vt 0.409240 0.365465
vt 0.412473 0.369343
vt 0.409336 0.370794
vt 0.406996 0.363968
vt 0.403094 0.364754
vt 0.403112 0.362832
vt 0.416213 0.367085
vt 0.414976 0.371728
vt 0.414595 0.370642
vt 0.407164 0.369287
vt 0.408866 0.364868
vt 0.404429 0.368002
vt 0.401177 0.368302
vt 0.402703 0.367277
vt 0.411879 0.362784
vt 0.409066 0.363825
vt 0.409966 0.361955
vt 0.417649 0.367040
vt 0.416679 0.367309
vt 0.416879 0.366266
vt 0.419305 0.363370
vt 0.417402 0.364533
vt 0.418890 0.363201
vt 0.417779 0.364396
vt 0.416413 0.366043
vt 0.408401 0.364644
vt 0.408601 0.363601
vt 0.415008 0.351144
vt 0.416729 0.354693
vt 0.414568 0.352256
vt 0.406267 0.360068
vt 0.407196 0.362925
vt 0.405325 0.362026
vt 0.409053 0.360831
vt 0.403578 0.358878
vt 0.404917 0.357748
vt 0.425807 0.357488
vt 0.418137 0.356786
vt 0.420180 0.354972
vt 0.420599 0.369341
vt 0.417052 0.367906
vt 0.413946 0.360815
vt 0.413129 0.360880
vt 0.413372 0.360231
vt 0.411454 0.358416
vt 0.411641 0.358131
vt 0.417788 0.306246
vt 0.420776 0.301910
vt 0.421626 0.304591
vt 0.411641 0.306947
vt 0.415541 0.307740
vt 0.411655 0.308869
vt 0.416947 0.307066
vt 0.415719 0.302420
vt 0.417413 0.306843
vt 0.418508 0.309759
vt 0.421964 0.309853
vt 0.420031 0.310787
vt 0.417611 0.307886
vt 0.420441 0.308921
vt 0.418383 0.307140
vt 0.418125 0.309621
vt 0.419612 0.310956
vt 0.417145 0.308109
vt 0.415495 0.312526
vt 0.416971 0.309205
vt 0.417324 0.311251
vt 0.415121 0.311197
vt 0.415739 0.308783
vt 0.413866 0.309679
vt 0.426419 0.306948
vt 0.426533 0.306118
vt 0.422825 0.305130
vt 0.414995 0.313462
vt 0.414387 0.313909
vt 0.414754 0.312553
vt 0.414495 0.314398
vt 0.412171 0.315729
vt 0.413822 0.312583
vt 0.413993 0.311887
vt 0.418324 0.311096
vt 0.417756 0.314104
vt 0.417676 0.309466
vt 0.419053 0.311530
vt 0.420076 0.316269
vt 0.419648 0.316305
vt 0.419730 0.310964
vt 0.420146 0.312492
vt 0.419730 0.312528
vt 0.427260 0.319762
vt 0.428377 0.316408
vt 0.428797 0.316453
vt 0.415533 0.309623
vt 0.415172 0.315437
vt 0.415172 0.309399
vt 0.420800 0.304886
vt 0.420410 0.308679
vt 0.420441 0.304827
vt 0.424141 0.312569
vt 0.424695 0.304827
vt 0.424695 0.313065
vt 0.413797 0.309699
vt 0.414164 0.311192
vt 0.412048 0.315708
vt 0.419536 0.312148
vt 0.420180 0.306571
vt 0.420564 0.306688
vt 0.427211 0.308376
vt 0.427482 0.307293
vt 0.427331 0.301704
vt 0.426864 0.299956
vt 0.427281 0.299841
vt 0.417381 0.365167
vt 0.417794 0.370654
vt 0.417385 0.370841
vt 0.415942 0.309399
vt 0.415533 0.316451
vt 0.415533 0.309566
vt 0.422412 0.318024
vt 0.421779 0.308113
vt 0.422172 0.308272
vt 0.419647 0.304827
vt 0.419492 0.311564
vt 0.421978 0.304827
vt 0.422412 0.304912
vt 0.420775 0.311068
vt 0.420423 0.313570
vt 0.420416 0.311124
vt 0.420782 0.313485
vt 0.420441 0.318578
vt 0.416816 0.302399
vt 0.418673 0.301027
vt 0.418769 0.301550
vt 0.415947 0.302510
vt 0.416885 0.301901
vt 0.423064 0.313367
vt 0.421926 0.313987
vt 0.421576 0.313677
vt 0.411889 0.369695
vt 0.410907 0.367195
vt 0.412288 0.368932
vt 0.426871 0.312418
vt 0.426296 0.312078
vt 0.421250 0.316706
vt 0.421262 0.316121
vt 0.414175 0.369640
vt 0.414215 0.369556
vt 0.426143 0.311514
vt 0.426871 0.305826
vt 0.425684 0.309823
vt 0.426023 0.305042
vt 0.418125 0.317572
vt 0.415946 0.316149
vt 0.415953 0.316064
vt 0.411334 0.358439
vt 0.413138 0.364467
vt 0.413441 0.362959
vt 0.414080 0.362510
vt 0.418137 0.317669
vt 0.420076 0.308653
vt 0.420104 0.305027
vt 0.414839 0.315582
vt 0.414839 0.309623
vt 0.417910 0.309998
vt 0.416594 0.312698
vt 0.418069 0.309944
vt 0.412675 0.302114
vt 0.413179 0.301611
vt 0.412805 0.302181
vt 0.411791 0.311570
vt 0.411901 0.309609
vt 0.411883 0.311531
vt 0.417205 0.307006
vt 0.413604 0.361695
vt 0.413102 0.361567
vt 0.423800 0.302453
vt 0.420258 0.303581
vt 0.419579 0.300936
vt 0.419749 0.300722
vt 0.419671 0.303712
vt 0.420071 0.303812
vt 0.418383 0.317390
vt 0.422264 0.316677
vt 0.418407 0.317468
vt 0.416680 0.308332
vt 0.417743 0.309483
vt 0.417459 0.298951
vt 0.419681 0.300870
vt 0.417812 0.300997
vt 0.414564 0.363404
vt 0.413977 0.360255
vt 0.415505 0.362953
vt 0.415948 0.365819
vt 0.414808 0.366409
vt 0.415008 0.365367
vt 0.417026 0.364670
vt 0.416241 0.364947
vt 0.410663 0.360590
vt 0.408429 0.362505
vt 0.408816 0.360572
vt 0.416236 0.356607
vt 0.412776 0.358678
vt 0.415296 0.356155
vt 0.410957 0.299109
vt 0.413089 0.303288
vt 0.410181 0.302975
vt 0.418871 0.307136
vt 0.421130 0.302511
vt 0.424028 0.305793
vt 0.412617 0.302466
vt 0.426363 0.309485
vt 0.425990 0.310950
vt 0.427038 0.304166
vt 0.427381 0.303567
vt 0.420241 0.310362
vt 0.419730 0.310181
vt 0.412828 0.316954
vt 0.414602 0.314886
vt 0.414818 0.315864
vt 0.415235 0.314371
vt 0.415717 0.316188
vt 0.423487 0.310785
vt 0.426079 0.309438
vt 0.426533 0.312649
vt 0.416616 0.316513
vt 0.417677 0.313298
vt 0.424072 0.314960
vt 0.421555 0.311815
vt 0.424603 0.313872
vt 0.414592 0.303918
vt 0.415078 0.302621
vt 0.415264 0.304270
vt 0.426172 0.299569
vt 0.423834 0.297048
vt 0.426511 0.294788
vt 0.417304 0.292145
vt 0.418482 0.295163
vt 0.416424 0.294368
vt 0.424330 0.303541
vt 0.421807 0.306681
vt 0.421354 0.306205
vt 0.424859 0.304630
vt 0.423346 0.307302
vt 0.415936 0.304622
vt 0.415868 0.313855
vt 0.413272 0.362263
vt 0.415974 0.302223
vt 0.414520 0.361398
vt 0.420901 0.305730
vt 0.420642 0.312765
vt 0.423540 0.316047
vt 0.420768 0.306440
vt 0.416341 0.304069
vt 0.417778 0.305360
vt 0.419053 0.308123
vt 0.417595 0.304827
vt 0.416482 0.307289
vt 0.419192 0.311124
vt 0.415336 0.303506
vt 0.407936 0.364420
vt 0.408136 0.363378
vt 0.418475 0.363032
vt 0.415748 0.366861
vt 0.419452 0.307368
vt 0.421099 0.312290
vt 0.415496 0.305734
vt 0.420272 0.309652
vt 0.419730 0.309399
vt 0.412430 0.302752
vt 0.412493 0.302444
vt 0.409793 0.304908
vt 0.418165 0.303044
vt 0.426744 0.311685
vt 0.426951 0.302061
vt 0.412335 0.316035
vt 0.426306 0.307778
vt 0.414349 0.304567
vt 0.426631 0.301260
vt 0.422495 0.298178
vt 0.418094 0.297096
vt 0.415984 0.295480
vt 0.419867 0.307537
vt 0.420281 0.307706
vt 0.412787 0.366899
vt 0.404475 0.366490
vt 0.403090 0.369132
vt 0.409837 0.364598
vt 0.417117 0.352760
vt 0.409206 0.361395
vt 0.422576 0.358777
vt 0.422087 0.369031
vt 0.417894 0.300916
vt 0.412702 0.304531
vt 0.417595 0.314070
vt 0.420209 0.311072
vt 0.426864 0.319729
vt 0.415533 0.315582
vt 0.420769 0.308651
vt 0.424264 0.304873
vt 0.419161 0.311987
vt 0.417794 0.365063
vt 0.416119 0.316194
vt 0.422029 0.317817
vt 0.420076 0.304977
vt 0.420800 0.318449
vt 0.423146 0.313412
vt 0.410814 0.367234
vt 0.413071 0.364451
vt 0.416341 0.315608
vt 0.413038 0.301453
vt 0.411811 0.309619
vt 0.422528 0.301825
vt 0.419161 0.300853
vt 0.418231 0.299229
vt 0.411726 0.360195
vt 0.409213 0.362228
vt 0.414703 0.359302
vt 0.415988 0.300012
vt 0.426617 0.310952
vt 0.412499 0.316341
vt 0.426478 0.300697
vt 0.419258 0.291296
vt 0.415062 0.302546
vt 0.417646 0.300722
vt 0.414953 0.304591
vt 0.414922 0.305150
vt 0.412311 0.302775
vt 0.411639 0.304926
vt 0.422007 0.308431
s 0
g rubble_2_Material
usemtl Material
f 25/1/1 4/2/1 8/3/1
f 19/4/2 3/5/2 11/6/2
f 123/7/3 9/8/3 120/9/3
f 25/1/4 9/10/4 22/11/4
f 134/12/5 20/13/5 133/14/5
f 23/15/6 21/16/6 20/17/6
f 24/18/7 22/19/7 21/20/7
f 133/21/8 121/22/8 152/23/8
f 20/24/9 122/25/9 121/22/9
f 21/16/10 123/26/10 122/27/10
f 141/28/11 17/29/11 13/30/11
f 13/31/12 18/32/12 12/33/12
f 12/33/13 19/4/13 11/6/13
f 131/34/14 23/35/14 134/36/14
f 14/37/15 24/38/15 23/39/15
f 24/18/16 16/40/16 25/41/16
f 150/42/17 27/43/17 142/44/17
f 142/44/18 29/45/18 143/46/18
f 44/47/19 35/48/19 34/49/19
f 37/50/20 42/51/20 45/52/20
f 127/53/21 41/54/21 43/55/21
f 41/54/22 44/47/22 43/55/22
f 51/56/23 138/57/23 137/58/23
f 52/59/24 53/60/24 51/56/24
f 43/55/25 54/61/25 52/59/25
f 125/62/26 137/58/26 151/63/26
f 126/64/27 51/56/27 125/62/27
f 127/53/28 52/59/28 126/64/28
f 144/65/29 49/66/29 136/67/29
f 30/68/30 50/69/30 49/66/30
f 46/70/31 42/51/31 50/69/31
f 53/60/32 135/71/32 138/57/32
f 54/61/33 47/72/33 53/60/33
f 44/47/34 48/73/34 54/61/34
f 149/74/35 55/75/35 112/76/35
f 145/77/36 57/78/36 55/75/36
f 112/76/37 59/79/37 114/80/37
f 118/81/38 61/82/38 128/83/38
f 64/84/39 45/85/39 63/86/39
f 106/87/40 58/88/40 65/89/40
f 61/90/41 32/91/41 67/92/41
f 45/93/42 68/94/42 63/95/42
f 58/96/43 69/97/43 65/98/43
f 35/99/44 70/100/44 71/101/44
f 68/102/45 30/68/45 60/103/45
f 55/75/46 66/104/46 59/79/46
f 70/105/47 41/106/47 72/107/47
f 67/92/48 33/108/48 73/109/48
f 147/110/49 47/111/49 74/112/49
f 89/113/50 36/114/50 75/115/50
f 34/116/51 71/117/51 76/118/51
f 74/119/52 48/120/52 77/121/52
f 75/122/53 37/123/53 64/84/53
f 77/121/54 34/124/54 76/125/54
f 111/126/55 78/127/55 113/128/55
f 31/129/56 62/130/56 78/127/56
f 1/131/57 62/132/57 5/133/57
f 109/134/58 78/135/58 1/131/58
f 15/136/59 76/137/59 16/138/59
f 75/139/60 3/140/60 10/141/60
f 74/142/61 15/136/61 14/143/61
f 16/138/62 71/144/62 4/145/62
f 89/146/63 10/141/63 80/147/63
f 131/148/64 74/142/64 14/143/64
f 67/149/65 2/150/65 7/151/65
f 8/152/66 72/153/66 9/154/66
f 27/43/67 66/155/67 29/45/67
f 12/156/68 60/157/68 13/158/68
f 4/145/69 70/159/69 8/152/69
f 65/98/70 26/160/70 28/161/70
f 63/95/71 12/162/71 11/163/71
f 61/164/72 7/165/72 6/166/72
f 106/167/73 28/168/73 97/169/73
f 64/170/74 11/171/74 3/172/74
f 117/173/75 61/164/75 6/166/75
f 110/174/76 59/175/76 27/43/76
f 62/132/77 79/176/77 5/133/77
f 120/177/78 89/178/78 80/179/78
f 124/180/79 89/178/79 119/181/79
f 38/182/80 90/183/80 62/184/80
f 42/51/81 87/185/81 50/69/81
f 50/69/82 86/186/82 49/66/82
f 49/187/83 148/188/83 136/189/83
f 42/190/84 85/191/84 88/192/84
f 82/193/85 19/194/85 18/195/85
f 81/196/86 18/195/86 17/197/86
f 140/198/87 17/199/87 132/200/87
f 83/201/88 10/202/88 19/203/88
f 5/204/89 108/205/89 93/206/89
f 38/207/90 107/208/90 84/209/90
f 143/210/91 106/167/91 97/169/91
f 73/211/92 92/212/92 2/150/92
f 73/109/93 99/213/93 105/214/93
f 146/215/94 106/87/94 139/216/94
f 58/217/95 103/218/95 56/219/95
f 56/219/96 115/220/96 111/221/96
f 102/222/97 33/223/97 32/224/97
f 31/225/98 100/226/98 38/182/98
f 118/227/99 101/228/99 39/229/99
f 39/229/100 102/222/100 32/224/100
f 96/230/101 28/168/101 26/231/101
f 116/232/102 26/231/102 109/134/102
f 2/233/103 95/234/103 7/235/103
f 1/236/104 93/237/104 91/238/104
f 117/239/105 94/240/105 130/241/105
f 6/242/106 95/243/106 94/240/106
f 91/244/107 109/134/107 1/131/107
f 111/221/108 98/245/108 31/225/108
f 13/158/109 114/246/109 110/174/109
f 26/231/110 113/247/110 109/134/110
f 69/97/111 111/126/111 113/128/111
f 30/68/112 114/80/112 60/103/112
f 144/65/113 112/76/113 30/68/113
f 141/248/114 110/174/114 150/42/114
f 117/239/115 108/249/115 79/176/115
f 107/250/116 118/227/116 84/251/116
f 41/106/117 119/181/117 72/107/117
f 72/107/118 120/177/118 9/252/118
f 79/253/119 128/254/119 117/173/119
f 84/255/120 128/83/120 90/256/120
f 88/257/121 126/64/121 87/185/121
f 87/185/122 125/62/122 86/186/122
f 86/186/123 151/63/123 148/258/123
f 88/257/124 124/259/124 127/53/124
f 122/27/125 83/260/125 82/261/125
f 121/22/126 82/193/126 81/196/126
f 152/23/127 81/196/127 140/262/127
f 83/263/128 120/9/128 80/147/128
f 130/241/129 140/264/129 108/249/129
f 148/258/130 129/265/130 107/250/130
f 141/266/131 116/232/131 91/244/131
f 115/220/132 144/65/132 98/245/132
f 57/267/133 139/216/133 66/268/133
f 29/269/134 139/270/134 143/210/134
f 108/205/135 132/271/135 93/206/135
f 136/189/136 107/208/136 100/272/136
f 92/212/137 147/273/137 131/148/137
f 105/214/138 135/274/138 147/110/138
f 103/218/139 146/275/139 145/77/139
f 115/220/140 145/77/140 149/74/140
f 102/222/141 135/71/141 99/276/141
f 98/245/142 136/67/142 100/226/142
f 151/63/143 101/228/143 129/265/143
f 137/58/144 102/222/144 101/228/144
f 96/230/145 143/210/145 97/169/145
f 116/232/146 142/277/146 96/230/146
f 95/234/147 131/278/147 134/279/147
f 91/238/148 132/280/148 141/281/148
f 94/240/149 152/282/149 130/241/149
f 95/243/150 133/283/150 94/240/150
f 25/1/151 16/284/151 4/2/151
f 19/4/152 10/285/152 3/5/152
f 123/7/153 22/19/153 9/8/153
f 25/1/154 8/3/154 9/10/154
f 134/12/155 23/286/155 20/13/155
f 23/15/156 24/287/156 21/16/156
f 24/18/157 25/41/157 22/19/157
f 133/21/158 20/24/158 121/22/158
f 20/24/159 21/20/159 122/25/159
f 21/16/160 22/11/160 123/26/160
f 141/28/161 132/288/161 17/29/161
f 13/31/162 17/199/162 18/32/162
f 12/33/163 18/32/163 19/4/163
f 131/34/164 14/289/164 23/35/164
f 14/37/165 15/290/165 24/38/165
f 24/18/166 15/291/166 16/40/166
f 150/42/167 110/174/167 27/43/167
f 142/44/168 27/43/168 29/45/168
f 44/47/169 40/292/169 35/48/169
f 37/50/170 36/293/170 42/51/170
f 127/53/171 124/259/171 41/54/171
f 41/54/172 40/292/172 44/47/172
f 51/56/173 53/60/173 138/57/173
f 52/59/174 54/61/174 53/60/174
f 43/55/175 44/47/175 54/61/175
f 125/62/176 51/56/176 137/58/176
f 126/64/177 52/59/177 51/56/177
f 127/53/178 43/55/178 52/59/178
f 144/65/179 30/68/179 49/66/179
f 30/68/180 46/70/180 50/69/180
f 46/70/181 45/52/181 42/51/181
f 53/60/182 47/72/182 135/71/182
f 54/61/183 48/73/183 47/72/183
f 44/47/184 34/49/184 48/73/184
f 149/74/185 145/77/185 55/75/185
f 145/77/186 146/275/186 57/78/186
f 112/76/187 55/75/187 59/79/187
f 118/81/188 39/294/188 61/82/188
f 64/84/189 37/123/189 45/85/189
f 106/87/190 104/295/190 58/88/190
f 61/90/191 39/296/191 32/91/191
f 45/93/192 46/297/192 68/94/192
f 58/96/193 56/298/193 69/97/193
f 35/99/194 40/299/194 70/100/194
f 68/102/195 46/70/195 30/68/195
f 55/75/196 57/78/196 66/104/196
f 70/105/197 40/300/197 41/106/197
f 67/92/198 32/91/198 33/108/198
f 147/110/199 135/274/199 47/111/199
f 89/113/200 85/301/200 36/114/200
f 34/116/201 35/302/201 71/117/201
f 74/119/202 47/303/202 48/120/202
f 75/122/203 36/304/203 37/123/203
f 77/121/204 48/120/204 34/124/204
f 111/126/205 31/129/205 78/127/205
f 31/129/206 38/305/206 62/130/206
f 1/131/207 78/135/207 62/132/207
f 109/134/208 113/247/208 78/135/208
f 15/136/209 77/306/209 76/137/209
f 75/139/210 64/307/210 3/140/210
f 74/142/211 77/306/211 15/136/211
f 16/138/212 76/137/212 71/144/212
f 89/146/213 75/139/213 10/141/213
f 131/148/214 147/273/214 74/142/214
f 67/149/215 73/211/215 2/150/215
f 8/152/216 70/159/216 72/153/216
f 27/43/217 59/175/217 66/155/217
f 12/156/218 68/308/218 60/157/218
f 4/145/219 71/144/219 70/159/219
f 65/98/220 69/97/220 26/160/220
f 63/95/221 68/94/221 12/162/221
f 61/164/222 67/309/222 7/165/222
f 106/167/223 65/310/223 28/168/223
f 64/170/224 63/311/224 11/171/224
f 117/173/225 128/254/225 61/164/225
f 110/174/226 114/246/226 59/175/226
f 62/132/227 90/312/227 79/176/227
f 120/177/228 119/181/228 89/178/228
f 124/180/229 85/313/229 89/178/229
f 38/182/230 84/251/230 90/183/230
f 42/51/231 88/257/231 87/185/231
f 50/69/232 87/185/232 86/186/232
f 49/187/233 86/314/233 148/188/233
f 42/190/234 36/315/234 85/191/234
f 82/193/235 83/263/235 19/194/235
f 81/196/236 82/193/236 18/195/236
f 140/198/237 81/316/237 17/199/237
f 83/201/238 80/317/238 10/202/238
f 5/204/239 79/318/239 108/205/239
f 38/207/240 100/272/240 107/208/240
f 143/210/241 139/270/241 106/167/241
f 73/211/242 105/319/242 92/212/242
f 73/109/243 33/108/243 99/213/243
f 146/215/244 104/295/244 106/87/244
f 58/217/245 104/320/245 103/218/245
f 56/219/246 103/218/246 115/220/246
f 102/222/247 99/276/247 33/223/247
f 31/225/248 98/245/248 100/226/248
f 118/227/249 129/265/249 101/228/249
f 39/229/250 101/228/250 102/222/250
f 96/230/251 97/169/251 28/168/251
f 116/232/252 96/230/252 26/231/252
f 2/233/253 92/321/253 95/234/253
f 1/236/254 5/322/254 93/237/254
f 117/239/255 6/242/255 94/240/255
f 6/242/256 7/151/256 95/243/256
f 91/244/257 116/232/257 109/134/257
f 111/221/258 115/220/258 98/245/258
f 13/158/259 60/157/259 114/246/259
f 26/231/260 69/323/260 113/247/260
f 69/97/261 56/298/261 111/126/261
f 30/68/262 112/76/262 114/80/262
f 144/65/263 149/74/263 112/76/263
f 141/248/264 13/158/264 110/174/264
f 117/239/265 130/241/265 108/249/265
f 107/250/249 129/265/249 118/227/249
f 41/106/266 124/180/266 119/181/266
f 72/107/267 119/181/267 120/177/267
f 79/253/268 90/324/268 128/254/268
f 84/255/269 118/81/269 128/83/269
f 88/257/270 127/53/270 126/64/270
f 87/185/271 126/64/271 125/62/271
f 86/186/272 125/62/272 151/63/272
f 88/257/273 85/325/273 124/259/273
f 122/27/274 123/26/274 83/260/274
f 121/22/275 122/25/275 82/193/275
f 152/23/276 121/22/276 81/196/276
f 83/263/277 123/7/277 120/9/277
f 130/241/278 152/282/278 140/264/278
f 148/258/279 151/63/279 129/265/279
f 141/266/280 150/326/280 116/232/280
f 115/220/281 149/74/281 144/65/281
f 57/267/282 146/215/282 139/216/282
f 29/269/283 66/327/283 139/270/283
f 108/205/284 140/328/284 132/271/284
f 136/189/285 148/188/285 107/208/285
f 92/212/286 105/319/286 147/273/286
f 105/214/287 99/213/287 135/274/287
f 103/218/288 104/320/288 146/275/288
f 115/220/289 103/218/289 145/77/289
f 102/222/32 138/57/32 135/71/32
f 98/245/290 144/65/290 136/67/290
f 151/63/291 137/58/291 101/228/291
f 137/58/292 138/57/292 102/222/292
f 96/230/293 142/277/293 143/210/293
f 116/232/294 150/326/294 142/277/294
f 95/234/295 92/321/295 131/278/295
f 91/238/296 93/237/296 132/280/296
f 94/240/297 133/283/297 152/282/297
f 95/243/298 134/329/298 133/283/298
