# Blender 4.2.1 LTS
# www.blender.org
mtllib rubble_1.mtl
g rubble_1_Mesh
v 0.654011 0.011919 0.675799
v 0.727098 0.002532 -0.809617
v -0.723763 0.079887 0.343248
v -0.292824 0.049938 -0.771590
v 0.944450 -0.004411 0.630123
v 0.866150 -0.003108 -0.187278
v 0.922220 -0.006937 -0.307692
v -0.641782 0.068529 -0.639001
v -0.689402 0.073292 -0.358885
v -0.676470 0.076180 0.057433
v -0.652476 0.075967 0.582604
v -0.412060 0.061815 0.532928
v -0.189742 0.051318 0.607120
v 0.397700 0.030681 -0.841342
v 0.055864 0.033061 -0.703848
v -0.080449 0.040658 -0.612582
v -0.070226 0.045790 0.051898
v -0.272846 0.055802 0.164732
v -0.291365 0.056864 0.052554
v 0.088452 0.037194 -0.025128
v -0.123981 0.047224 -0.096030
v -0.219587 0.051477 -0.158753
v 0.168563 -0.040255 -0.233815
v -0.125314 0.093803 -0.213618
v -0.237506 0.051749 -0.232238
v 0.485706 0.017220 1.012566
v -0.087829 0.117760 0.835654
v 0.186394 0.035856 1.185146
v 0.041705 0.042861 1.157266
v -0.200559 -0.035641 0.549813
v 0.690753 -0.076703 0.702928
v 0.916418 -0.094676 -0.427336
v 0.833557 -0.089747 -0.802240
v -0.076691 -0.046876 -0.651727
v -0.348176 -0.034433 -0.786649
v -0.754081 -0.007170 0.031428
v -0.724267 -0.007101 0.343334
v 0.969258 -0.092299 0.673373
v 0.865646 -0.090095 -0.187192
v -0.642287 -0.018458 -0.638915
v -0.689906 -0.013696 -0.358800
v -0.291870 -0.030124 0.052640
v -0.220091 -0.035511 -0.158667
v -0.238010 -0.035238 -0.232152
v -0.652980 -0.011020 0.582690
v -0.412564 -0.025173 0.533013
v 0.409408 -0.073720 -0.900929
v 0.055359 -0.053927 -0.703763
v -0.070730 -0.041198 0.051984
v -0.273351 -0.031186 0.164818
v 0.087948 -0.049794 -0.025042
v -0.124486 -0.039763 -0.095945
v 0.168886 -0.055642 -0.236716
v -0.124045 -0.040764 -0.211234
v -0.114704 -0.037516 0.810481
v 0.485202 -0.069767 1.012652
v 0.041201 -0.044127 1.157352
v 0.185567 -0.051005 1.198332
v -0.220463 0.009135 0.836637
v -0.272834 0.013917 0.622895
v 0.872501 -0.045141 -0.189746
v 0.977391 -0.047355 0.677155
v -0.660201 0.034715 0.589129
v -0.733964 0.038742 0.347792
v 0.187738 -0.005710 1.208153
v 0.030810 0.020822 1.164921
v 0.925560 -0.049848 -0.431351
v -0.415989 0.020374 0.539589
v 0.490180 -0.024636 1.019808
v -0.648582 0.027109 -0.646839
v -0.339133 0.010200 -0.814099
v -0.696647 0.031913 -0.364415
v 0.804248 -0.043249 -0.836165
v 0.414660 -0.028746 -0.910601
v -0.765645 0.038727 0.031276
v -0.078109 -0.001576 -0.662464
v 0.058439 -0.008841 -0.713146
v 0.697484 -0.031676 0.708127
v 0.954253 -0.005441 0.057247
v -0.579187 0.069655 -0.137584
v 0.010555 0.071948 0.012010
v -0.159687 0.049904 0.009084
v -0.255294 0.054157 -0.053638
v 0.953748 -0.092428 0.057333
v -0.579691 -0.017333 -0.137498
v 0.009013 -0.045517 0.013274
v -0.160192 -0.037083 0.009170
v -0.255798 -0.032831 -0.053552
v -0.588832 0.028420 -0.140396
v 0.906583 -0.043515 0.202546
vn 0.0500 0.9987 -0.0085
vn 0.0535 0.9986 0.0004
vn -0.0259 0.9339 -0.3566
vn -0.0790 0.9265 0.3679
vn -0.1976 0.9106 0.3629
vn 0.0943 0.8179 -0.5676
vn -0.1270 0.9895 -0.0684
vn 0.0466 0.9989 0.0001
vn 0.0467 0.9989 0.0013
vn 0.0601 0.9982 0.0064
vn -0.0407 0.9986 0.0347
vn 0.4170 0.9079 0.0416
vn -0.3230 0.9327 -0.1606
vn 0.1539 0.9862 0.0614
vn 0.1336 0.9831 0.1256
vn -0.0500 -0.9987 0.0085
vn -0.0535 -0.9986 -0.0004
vn -0.0549 -0.9984 0.0097
vn -0.0505 -0.9987 -0.0020
vn -0.0601 -0.9982 -0.0064
vn -0.0366 -0.9993 -0.0051
vn -0.0510 -0.9987 0.0087
vn -0.0475 -0.9988 0.0084
vn -0.0557 -0.9984 0.0060
vn -0.3870 -0.9191 0.0743
vn 0.6275 0.7765 -0.0577
vn -0.9401 -0.1884 0.2842
vn -0.2868 -0.1560 0.9452
vn 0.9606 -0.1767 0.2144
vn 0.1916 -0.1071 0.9756
vn 0.5080 -0.2057 0.8364
vn -0.4528 -0.3987 -0.7975
vn -0.5018 -0.1604 0.8499
vn -0.3277 -0.9014 0.2829
vn -0.9731 -0.1628 -0.1628
vn 0.8911 0.3713 -0.2610
vn 0.1747 -0.2265 -0.9582
vn -0.6909 -0.1764 -0.7010
vn 0.4055 -0.5371 -0.7397
vn -0.4863 -0.1291 -0.8642
vn -0.9718 -0.2150 0.0973
vn -0.3509 -0.1678 -0.9213
vn 0.8176 -0.1770 0.5478
vn 0.1038 -0.1020 0.9894
vn 0.1509 0.6815 0.7161
vn 0.5720 0.7733 0.2737
vn -0.3697 0.7005 -0.6104
vn -0.9618 0.2206 -0.1620
vn -0.3660 0.1801 -0.9130
vn 0.4523 0.6910 -0.5638
vn -0.8671 0.2328 -0.4403
vn 0.1261 0.7679 -0.6280
vn 0.6420 0.7295 -0.2358
vn -0.9670 0.1917 -0.1677
vn -0.7467 0.5153 0.4207
vn -0.1920 0.7116 0.6759
vn -0.1721 0.8062 -0.5661
vn 0.4988 0.1992 0.8435
vn 0.2081 0.1360 0.9686
vn 0.9022 0.1118 0.4165
vn -0.1442 0.4756 0.8677
vn -0.9243 0.2600 0.2795
vn 0.9292 0.1599 -0.3333
vn -0.6323 0.7726 0.0574
vn 0.6469 -0.7625 0.0124
vn -0.8800 0.1757 0.4412
vn -0.8987 -0.0797 0.4313
vn 0.9754 -0.1641 -0.1469
vn -0.0530 -0.9986 -0.0007
vn -0.0497 -0.9988 0.0015
vn 0.0530 0.9986 0.0007
vn 0.0475 0.9989 -0.0033
vn -0.1406 0.9342 0.3279
vn 0.0500 0.9987 -0.0047
vn -0.0495 0.9973 -0.0547
vn 0.3978 0.8994 -0.1811
vn -0.3628 0.9273 0.0919
vn 0.1864 0.8815 -0.4339
vn 0.0547 0.9985 -0.0093
vn 0.0498 0.9988 0.0008
vn 0.0537 0.9986 0.0006
vn 0.0707 0.9873 0.1420
vn 0.0628 0.9883 0.1391
vn -0.0358 0.9901 -0.1359
vn 0.0693 0.9492 -0.3069
vn 0.0037 0.9743 0.2254
vn -0.0498 -0.9987 0.0050
vn -0.0459 -0.9989 -0.0008
vn -0.0491 -0.9988 -0.0023
vn -0.0537 -0.9986 -0.0006
vn -0.0498 -0.9987 0.0091
vn -0.0500 -0.9987 -0.0108
vn -0.0523 -0.9985 0.0166
vn -0.4564 -0.8780 0.1440
vn 0.9281 -0.1606 -0.3359
vn -0.9349 -0.2245 0.2748
vn -0.2765 -0.1910 0.9419
vn 0.9688 -0.1359 0.2074
vn 0.1936 -0.1259 0.9730
vn 0.5086 -0.1893 0.8399
vn -0.4478 -0.2129 -0.8684
vn -0.0823 -0.8608 0.5023
vn -0.8968 -0.1900 0.3995
vn -0.9730 -0.1638 -0.1626
vn 0.9533 -0.2135 -0.2135
vn 0.1775 -0.5046 -0.8449
vn -0.6896 -0.1822 -0.7009
vn 0.4293 -0.1956 -0.8818
vn -0.4875 -0.1458 -0.8608
vn -0.9656 -0.2430 0.0924
vn -0.3676 -0.2254 -0.9023
vn 0.8169 -0.1852 0.5463
vn 0.0975 -0.1285 0.9869
vn 0.1125 0.7718 0.6259
vn 0.8207 0.1814 0.5418
vn -0.3333 0.1847 -0.9245
vn -0.3968 0.9170 0.0397
vn -0.3282 0.6757 -0.6601
vn 0.4886 0.3050 -0.8174
vn -0.2777 0.8985 -0.3399
vn 0.1613 0.6843 -0.7111
vn 0.4733 0.8716 -0.1276
vn -0.9672 0.1905 -0.1679
vn -0.5747 0.7055 0.4148
vn -0.4882 0.1834 0.8532
vn -0.4519 0.2369 -0.8600
vn 0.4959 0.4328 0.7529
vn 0.2040 0.1156 0.9721
vn 0.8454 -0.4971 0.1953
vn -0.1797 0.4009 0.8983
vn -0.9318 0.2201 0.2885
vn 0.5394 -0.8409 -0.0434
vn -0.3893 0.9138 0.1158
vn 0.8476 0.5163 -0.1223
vn -0.8960 0.0991 0.4328
vn -0.8861 -0.1492 0.4388
vn 0.6931 0.7206 -0.0176
vn -0.0475 -0.9989 0.0033
vn -0.0518 -0.9986 0.0046
vn -0.1261 0.9272 0.3526
vn 0.0818 0.9967 -0.0004
vt 0.410216 0.309801
vt 0.413450 0.313679
vt 0.410313 0.315130
vt 0.573011 0.160843
vt 0.569110 0.161629
vt 0.569128 0.159707
vt 0.417655 0.311645
vt 0.415191 0.313892
vt 0.416725 0.311197
vt 0.408140 0.313622
vt 0.409843 0.309204
vt 0.557671 0.183536
vt 0.553481 0.188468
vt 0.551568 0.187638
vt 0.410943 0.306290
vt 0.410813 0.308934
vt 0.410043 0.308161
vt 0.418626 0.311375
vt 0.417855 0.310602
vt 0.556613 0.181360
vt 0.550815 0.187912
vt 0.418002 0.309006
vt 0.416925 0.310155
vt 0.408912 0.308756
vt 0.409112 0.307713
vt 0.417304 0.292145
vt 0.417706 0.299029
vt 0.415545 0.296592
vt 0.572283 0.156943
vt 0.573211 0.159800
vt 0.571341 0.158901
vt 0.591211 0.152108
vt 0.586196 0.151847
vt 0.591550 0.147327
vt 0.588591 0.155652
vt 0.584153 0.153661
vt 0.421576 0.313677
vt 0.418029 0.312242
vt 0.416816 0.302399
vt 0.414106 0.305216
vt 0.415078 0.302621
vt 0.413179 0.301611
vt 0.417788 0.306246
vt 0.420776 0.301910
vt 0.421626 0.304591
vt 0.411641 0.306947
vt 0.415541 0.307740
vt 0.411655 0.308869
vt 0.414953 0.304591
vt 0.417413 0.306843
vt 0.416482 0.307289
vt 0.415719 0.302420
vt 0.424603 0.313872
vt 0.420441 0.308921
vt 0.426533 0.312649
vt 0.418508 0.309759
vt 0.418383 0.307140
vt 0.417611 0.307886
vt 0.423540 0.316047
vt 0.417743 0.309483
vt 0.416680 0.308332
vt 0.416616 0.316513
vt 0.416971 0.309205
vt 0.418383 0.317390
vt 0.415121 0.311197
vt 0.415739 0.308783
vt 0.413866 0.309679
vt 0.426533 0.306118
vt 0.426079 0.309438
vt 0.422825 0.305130
vt 0.414387 0.313909
vt 0.414818 0.315864
vt 0.412171 0.315729
vt 0.414164 0.311192
vt 0.413822 0.312583
vt 0.419053 0.308123
vt 0.417756 0.314104
vt 0.417595 0.304827
vt 0.419053 0.311530
vt 0.420076 0.316269
vt 0.419648 0.316305
vt 0.420272 0.309652
vt 0.419730 0.312528
vt 0.419730 0.309399
vt 0.427260 0.319762
vt 0.428377 0.316408
vt 0.428797 0.316453
vt 0.580572 0.162162
vt 0.580212 0.167976
vt 0.580211 0.161938
vt 0.420800 0.304886
vt 0.420410 0.308679
vt 0.420441 0.304827
vt 0.424141 0.312569
vt 0.424695 0.304827
vt 0.424695 0.313065
vt 0.413797 0.309699
vt 0.412048 0.315708
vt 0.419161 0.311987
vt 0.420564 0.306688
vt 0.419536 0.312148
vt 0.427211 0.308376
vt 0.427482 0.307293
vt 0.426864 0.299956
vt 0.427281 0.299841
vt 0.418358 0.309503
vt 0.418771 0.314990
vt 0.418361 0.315177
vt 0.415533 0.309566
vt 0.416119 0.316194
vt 0.415533 0.316451
vt 0.422029 0.317817
vt 0.422172 0.308272
vt 0.422412 0.318024
vt 0.419647 0.304827
vt 0.419492 0.311564
vt 0.421779 0.308113
vt 0.422412 0.304912
vt 0.420769 0.308651
vt 0.420423 0.313570
vt 0.420800 0.318449
vt 0.420441 0.318578
vt 0.416885 0.301901
vt 0.418769 0.301550
vt 0.423064 0.313367
vt 0.421926 0.313987
vt 0.413264 0.313268
vt 0.411791 0.311570
vt 0.411883 0.311531
vt 0.426296 0.312078
vt 0.423146 0.313412
vt 0.421262 0.316121
vt 0.415151 0.313976
vt 0.425684 0.309823
vt 0.426871 0.312418
vt 0.426871 0.305826
vt 0.426023 0.305042
vt 0.418125 0.317572
vt 0.415946 0.316149
vt 0.415953 0.316064
vt 0.412311 0.302775
vt 0.412430 0.302752
vt 0.414114 0.308803
vt 0.414418 0.307295
vt 0.415056 0.306845
vt 0.421250 0.316706
vt 0.420104 0.305027
vt 0.420076 0.308653
vt 0.579878 0.162162
vt 0.579878 0.168121
vt 0.417910 0.309998
vt 0.416594 0.312698
vt 0.418069 0.309944
vt 0.413038 0.301453
vt 0.411901 0.309609
vt 0.416341 0.304069
vt 0.414079 0.305903
vt 0.422528 0.301825
vt 0.423800 0.302453
vt 0.420768 0.306440
vt 0.419579 0.300936
vt 0.419749 0.300722
vt 0.420180 0.306571
vt 0.422264 0.316677
vt 0.418407 0.317468
vt 0.418871 0.307136
vt 0.418231 0.299229
vt 0.424028 0.305793
vt 0.415785 0.310745
vt 0.415985 0.309703
vt 0.417218 0.309283
vt 0.575996 0.151648
vt 0.575229 0.159103
vt 0.574444 0.159380
vt 0.416273 0.300491
vt 0.415680 0.303638
vt 0.413753 0.303014
vt 0.413763 0.311235
vt 0.570491 0.163365
vt 0.558835 0.183948
vt 0.412856 0.307120
vt 0.418755 0.308732
vt 0.419258 0.291296
vt 0.591823 0.154363
vt 0.417894 0.300916
vt 0.412702 0.304531
vt 0.412828 0.316954
vt 0.417595 0.314070
vt 0.420146 0.312492
vt 0.426864 0.319729
vt 0.580572 0.168121
vt 0.424264 0.304873
vt 0.418771 0.309399
vt 0.415942 0.309399
vt 0.420076 0.304977
vt 0.421978 0.304827
vt 0.420782 0.313485
vt 0.418673 0.301027
vt 0.415062 0.302546
vt 0.412866 0.314031
vt 0.426363 0.309485
vt 0.418137 0.317669
vt 0.414048 0.308787
vt 0.416341 0.315608
vt 0.411811 0.309619
vt 0.417646 0.300722
vt 0.419161 0.300853
vt 0.417459 0.298951
vt 0.581027 0.152551
vt 0.417213 0.300943
s 0
g rubble_1_Material
usemtl Material
f 25/1/1 4/2/1 8/3/1
f 19/4/2 3/5/2 11/6/2
f 22/7/1 80/8/1 83/9/1
f 25/1/1 9/10/1 22/11/1
f 6/12/3 23/13/3 20/14/3
f 20/15/4 24/16/4 21/17/4
f 24/18/5 22/7/5 21/19/5
f 79/20/6 20/14/6 81/21/6
f 81/22/7 21/19/7 82/23/7
f 21/17/1 83/24/1 82/25/1
f 1/26/8 17/27/8 13/28/8
f 13/29/9 18/30/9 12/31/9
f 18/30/10 11/6/10 12/31/10
f 2/32/11 23/33/11 7/34/11
f 23/33/12 15/35/12 24/36/12
f 24/18/13 16/37/13 25/38/13
f 1/39/14 27/40/14 26/41/14
f 27/40/15 28/42/15 26/41/15
f 44/43/16 35/44/16 34/45/16
f 37/46/17 42/47/17 45/48/17
f 85/49/16 43/50/16 88/51/16
f 41/52/16 44/43/16 43/50/16
f 39/53/16 53/54/16 32/55/16
f 51/56/16 54/57/16 53/54/16
f 43/50/16 54/57/16 52/58/16
f 84/59/16 51/56/16 39/53/16
f 86/60/16 52/58/16 51/56/16
f 88/51/16 52/58/16 87/61/16
f 31/62/18 49/63/18 38/64/18
f 30/65/19 50/66/19 49/63/19
f 45/48/20 50/66/20 46/67/20
f 32/55/21 47/68/21 33/69/21
f 53/54/22 48/70/22 47/68/22
f 54/57/16 34/45/16 48/70/16
f 31/62/23 55/71/23 30/65/23
f 56/72/24 57/73/24 55/71/24
f 60/74/25 55/71/25 59/75/25
f 84/76/26 61/77/26 90/78/26
f 64/79/27 45/80/27 63/81/27
f 57/82/28 65/83/28 66/84/28
f 61/85/29 32/86/29 67/87/29
f 45/88/30 68/89/30 63/90/30
f 58/91/31 69/92/31 65/93/31
f 35/94/32 70/95/32 71/96/32
f 46/67/33 60/74/33 68/97/33
f 55/71/34 66/98/34 59/75/34
f 40/99/35 72/100/35 70/101/35
f 67/87/36 33/102/36 73/103/36
f 73/103/37 47/104/37 74/105/37
f 89/106/38 36/107/38 75/108/38
f 76/109/39 35/110/39 71/111/39
f 47/112/40 77/113/40 74/114/40
f 75/115/41 37/116/41 64/79/41
f 48/117/42 76/118/42 77/113/42
f 56/119/43 78/120/43 69/92/43
f 78/120/44 38/121/44 62/122/44
f 78/123/45 5/124/45 1/39/45
f 26/41/46 78/123/46 1/39/46
f 15/125/47 76/126/47 16/37/47
f 10/127/48 64/128/48 3/129/48
f 14/130/49 77/131/49 15/125/49
f 76/126/50 4/132/50 16/37/50
f 89/133/51 10/127/51 80/8/51
f 2/134/52 74/135/52 14/130/52
f 67/136/53 2/134/53 7/137/53
f 8/138/54 72/139/54 9/140/54
f 27/40/55 66/141/55 29/142/55
f 12/143/56 60/144/56 13/145/56
f 71/146/57 8/138/57 4/132/57
f 28/147/58 69/92/58 26/148/58
f 11/149/59 68/89/59 12/150/59
f 61/151/60 7/152/60 6/153/60
f 29/142/61 65/154/61 28/42/61
f 64/128/62 11/155/62 3/129/62
f 79/156/63 61/151/63 6/153/63
f 13/145/64 59/157/64 27/40/64
f 5/124/65 90/158/65 79/159/65
f 9/160/66 89/161/66 80/162/66
f 41/163/67 89/161/67 72/100/67
f 38/64/68 90/164/68 62/165/68
f 42/47/69 87/61/69 50/66/69
f 49/63/16 87/61/16 86/60/16
f 38/166/70 86/167/70 84/168/70
f 42/47/16 85/49/16 88/51/16
f 82/23/71 19/169/71 18/170/71
f 17/171/72 82/23/72 18/170/72
f 5/172/73 81/173/73 17/174/73
f 19/175/1 80/176/1 10/177/1
f 25/1/1 16/178/1 4/2/1
f 19/4/74 10/179/74 3/5/74
f 22/7/1 9/140/1 80/8/1
f 25/1/1 8/3/1 9/10/1
f 6/12/75 7/180/75 23/13/75
f 20/15/76 23/181/76 24/16/76
f 24/18/77 25/38/77 22/7/77
f 79/20/1 6/12/1 20/14/1
f 81/22/78 20/182/78 21/19/78
f 21/17/1 22/11/1 83/24/1
f 1/26/79 5/183/79 17/27/79
f 13/29/80 17/174/80 18/30/80
f 18/30/81 19/4/81 11/6/81
f 2/32/82 14/184/82 23/33/82
f 23/33/83 14/184/83 15/35/83
f 24/18/84 15/125/84 16/37/84
f 1/39/85 13/145/85 27/40/85
f 27/40/86 29/142/86 28/42/86
f 44/43/16 40/185/16 35/44/16
f 37/46/87 36/186/87 42/47/87
f 85/49/16 41/52/16 43/50/16
f 41/52/16 40/185/16 44/43/16
f 39/53/16 51/56/16 53/54/16
f 51/56/16 52/58/16 54/57/16
f 43/50/16 44/43/16 54/57/16
f 84/59/16 86/60/16 51/56/16
f 86/60/16 87/61/16 52/58/16
f 88/51/16 43/50/16 52/58/16
f 31/62/88 30/65/88 49/63/88
f 30/65/89 46/67/89 50/66/89
f 45/48/90 42/47/90 50/66/90
f 32/55/91 53/54/91 47/68/91
f 53/54/16 54/57/16 48/70/16
f 54/57/16 44/43/16 34/45/16
f 31/62/92 56/72/92 55/71/92
f 56/72/93 58/187/93 57/73/93
f 60/74/94 30/65/94 55/71/94
f 84/76/95 39/188/95 61/77/95
f 64/79/96 37/116/96 45/80/96
f 57/82/97 58/189/97 65/83/97
f 61/85/98 39/190/98 32/86/98
f 45/88/99 46/191/99 68/89/99
f 58/91/100 56/119/100 69/92/100
f 35/94/101 40/192/101 70/95/101
f 46/67/102 30/65/102 60/74/102
f 55/71/103 57/73/103 66/98/103
f 40/99/104 41/163/104 72/100/104
f 67/87/105 32/86/105 33/102/105
f 73/103/106 33/102/106 47/104/106
f 89/106/107 85/193/107 36/107/107
f 76/109/108 34/194/108 35/110/108
f 47/112/109 48/117/109 77/113/109
f 75/115/110 36/195/110 37/116/110
f 48/117/111 34/196/111 76/118/111
f 56/119/112 31/197/112 78/120/112
f 78/120/113 31/197/113 38/121/113
f 78/123/114 62/198/114 5/124/114
f 26/41/115 69/199/115 78/123/115
f 15/125/116 77/131/116 76/126/116
f 10/127/117 75/200/117 64/128/117
f 14/130/118 74/135/118 77/131/118
f 76/126/119 71/146/119 4/132/119
f 89/133/120 75/200/120 10/127/120
f 2/134/121 73/201/121 74/135/121
f 67/136/122 73/201/122 2/134/122
f 8/138/123 70/202/123 72/139/123
f 27/40/124 59/157/124 66/141/124
f 12/143/125 68/203/125 60/144/125
f 71/146/126 70/202/126 8/138/126
f 28/147/127 65/93/127 69/92/127
f 11/149/128 63/90/128 68/89/128
f 61/151/129 67/204/129 7/152/129
f 29/142/130 66/141/130 65/154/130
f 64/128/131 63/205/131 11/155/131
f 79/156/132 90/206/132 61/151/132
f 13/145/133 60/144/133 59/157/133
f 5/124/134 62/198/134 90/158/134
f 9/160/135 72/100/135 89/161/135
f 41/163/136 85/207/136 89/161/136
f 38/64/137 84/59/137 90/164/137
f 42/47/16 88/51/16 87/61/16
f 49/63/138 50/66/138 87/61/138
f 38/166/139 49/208/139 86/167/139
f 42/47/16 36/186/16 85/49/16
f 82/23/1 83/9/1 19/169/1
f 17/171/140 81/22/140 82/23/140
f 5/172/141 79/209/141 81/173/141
f 19/175/1 83/210/1 80/176/1
