# Blender 4.2.1 LTS
# www.blender.org
mtllib shelf_3_B.mtl
g shelf_3_B_Mesh
v 0.371720 0.017866 -0.219593
v 0.376020 0.449566 -0.172815
v -0.375393 0.017866 -0.212033
v -0.378280 0.451452 -0.170501
v 0.360614 0.033571 0.159226
v 0.360614 0.480555 0.159226
v -0.356624 0.033571 0.166484
v -0.360190 0.482262 0.160538
v -0.001836 0.017866 -0.215813
v -0.001870 0.486863 -0.219120
v 0.020240 0.033571 0.162670
v 0.027389 0.478200 0.163383
v -0.009101 0.478201 0.163752
v 0.378409 0.451452 0.114539
v 0.375520 0.017866 0.156071
v -0.016250 0.033571 0.163039
v -0.391773 0.453158 0.116220
v -0.371591 0.017866 0.163630
v 0.001965 0.017866 0.159851
v 0.009147 0.493905 0.163872
v 0.017981 0.485071 0.163782
v 0.370028 0.487426 0.159434
v 0.370028 0.026700 0.159434
v 0.010832 0.026700 0.163069
v -0.382486 0.489132 0.160937
v -0.366032 0.026700 0.166882
v -0.006835 0.026700 0.163248
v 0.000314 0.485071 0.163961
v -0.001870 0.017866 -0.219120
v 0.375447 0.062674 -0.178128
v -0.375319 0.062674 0.122166
v -0.378280 0.062674 -0.170501
v 0.001998 0.017866 0.163159
v 0.378409 0.062674 0.114539
v 0.001965 0.000000 0.159851
v -0.001836 0.000000 -0.215813
v 0.371720 0.000000 -0.219593
v -0.371591 0.000000 0.163630
v -0.375393 0.000000 -0.212033
v 0.375520 0.000000 0.156071
v -0.190302 0.496260 -0.217214
v -0.186434 0.017866 0.165065
v -0.190302 0.017866 -0.217214
v -0.186434 0.496260 0.165065
v -0.186434 0.026700 0.165065
v -0.186434 0.487426 0.165065
v -0.186437 0.033571 0.164762
v -0.186437 0.480555 0.164762
v -0.184814 0.017866 0.161740
v -0.188615 0.017866 -0.213923
v -0.184814 0.000000 0.161740
v -0.188615 0.000000 -0.213923
v 0.186562 0.017866 -0.221027
v 0.190430 0.496260 0.161252
v 0.188356 0.477148 -0.214744
v 0.190430 0.017866 0.161252
v 0.190430 0.487426 0.161252
v 0.190430 0.026700 0.161252
v 0.190427 0.480555 0.160949
v 0.190427 0.033571 0.160949
v 0.184942 0.017866 -0.217703
v 0.188742 0.017866 0.157961
v 0.184942 0.000000 -0.217703
v 0.188742 0.000000 0.157961
v 0.375447 0.257063 -0.178128
v -0.378280 0.257063 -0.170501
v -0.375319 0.257063 0.122166
v 0.378409 0.257063 0.114539
v -0.001870 0.257063 -0.219120
v 0.370028 0.257063 0.159434
v -0.366032 0.257063 0.166882
v 0.360614 0.257063 0.159226
v -0.343736 0.257063 0.166484
v -0.190302 0.257063 -0.217214
v 0.186562 0.257063 -0.221027
v 0.001998 0.257063 0.163159
v 0.010832 0.257063 0.163069
v -0.006835 0.257063 0.163248
v 0.020240 0.257063 0.162670
v -0.016250 0.257063 0.163039
v 0.374994 0.257063 -0.222933
v 0.360146 0.483572 -0.215129
v -0.378734 0.257063 -0.215307
v -0.378734 0.017866 -0.215307
v -0.374866 0.017866 0.166971
v -0.378734 0.496260 -0.215307
v -0.391320 0.497966 0.161026
v -0.374866 0.257063 0.166971
v 0.378862 0.257063 0.159345
v 0.378862 0.017866 0.159345
v 0.374994 0.017866 -0.222933
v 0.378862 0.496260 0.159345
v 0.365899 0.257063 0.114666
v 0.362938 0.257063 -0.178001
v -0.365771 0.257063 -0.170628
v -0.362810 0.257063 0.122039
v 0.362938 0.451452 -0.178001
v -0.365771 0.062674 -0.170628
v -0.362810 0.062674 0.122039
v -0.365771 0.451452 -0.170628
v -0.362810 0.451452 0.122039
v 0.365899 0.062674 0.114666
v 0.362938 0.062674 -0.178001
v 0.365899 0.451452 0.114666
v 0.187195 0.451572 -0.158508
v 0.357381 0.480555 -0.160230
v 0.357381 0.257063 -0.160230
v 0.357381 0.033571 -0.160230
v 0.187195 0.033571 -0.158508
v 0.017008 0.033571 -0.156786
v 0.017008 0.257063 -0.156786
v -0.346968 0.257063 -0.152973
v -0.359856 0.033571 -0.152973
v -0.189669 0.033571 -0.154695
v -0.189669 0.480555 -0.154695
v -0.019482 0.480555 -0.156417
v -0.019482 0.257063 -0.156417
v -0.019482 0.033571 -0.156417
v 0.187226 0.257063 -0.158509
v -0.346968 0.480555 -0.152973
v 0.017008 0.480555 -0.156786
v -0.189669 0.257063 -0.154695
v 0.359881 0.033571 0.159207
v 0.359881 0.480554 0.159207
v -0.357357 0.033571 0.166465
v -0.357357 0.480555 0.166465
v 0.019507 0.033571 0.162652
v 0.019507 0.480554 0.162652
v -0.016982 0.480555 0.163021
v -0.016982 0.033571 0.163021
v 0.019714 0.480554 0.183056
v 0.360087 0.480554 0.179611
v 0.360087 0.033571 0.179611
v 0.019714 0.033571 0.183056
v -0.357150 0.480555 0.186868
v -0.357150 0.033571 0.186868
v -0.016776 0.033571 0.183425
v -0.016776 0.480555 0.183425
v 0.096094 0.167904 0.181978
v 0.096094 0.139308 0.181978
v 0.069831 0.167904 0.182245
v 0.069831 0.139308 0.182245
v -0.093175 0.167904 0.183894
v -0.093175 0.139308 0.183894
v -0.064822 0.167904 0.183607
v -0.064822 0.139308 0.183607
v -0.187170 0.033571 0.164743
v -0.187170 0.480555 0.164743
v -0.186963 0.033571 0.185146
v -0.186963 0.480555 0.185146
v -0.080037 0.134737 0.183761
v -0.080037 0.171367 0.183761
v 0.189694 0.480554 0.160930
v 0.189694 0.033571 0.160930
v 0.189901 0.480554 0.181333
v 0.189901 0.033571 0.181333
v 0.081923 0.171367 0.182122
v 0.081923 0.134737 0.182122
v 0.359881 0.257063 0.159207
v -0.357357 0.257063 0.166465
v 0.360087 0.257063 0.179611
v -0.357150 0.257063 0.186868
v 0.100942 0.153606 0.181930
v -0.098947 0.153606 0.183953
v 0.019507 0.257063 0.162652
v -0.016982 0.257063 0.163021
v 0.019714 0.257063 0.183056
v -0.016776 0.257063 0.183425
v 0.064059 0.153606 0.182304
v -0.059974 0.153606 0.183558
v 0.082302 0.171367 0.219499
v 0.096472 0.167904 0.219355
v 0.101320 0.153606 0.219306
v 0.096472 0.139308 0.219355
v 0.082302 0.134737 0.219499
v 0.070209 0.139308 0.219620
v 0.064438 0.153606 0.219679
v -0.098568 0.153606 0.221328
v -0.092797 0.139308 0.221271
v -0.079659 0.134737 0.221138
v -0.079659 0.171367 0.221138
v -0.064444 0.167904 0.220983
v -0.059596 0.153606 0.220935
v -0.064444 0.139308 0.220983
v -0.092797 0.167904 0.221271
v 0.070209 0.167904 0.219620
v -0.079659 0.153606 0.221138
v 0.082302 0.153606 0.219499
v 0.064183 0.153606 0.194478
v 0.082047 0.134737 0.194297
v 0.069954 0.139308 0.194419
v 0.096217 0.167904 0.194154
v 0.101065 0.153606 0.194104
v 0.069954 0.167904 0.194419
v 0.082047 0.171367 0.194297
v 0.096217 0.139308 0.194154
v -0.093052 0.139308 0.196069
v -0.098823 0.153606 0.196127
v -0.093052 0.167904 0.196069
v -0.079914 0.134737 0.195936
v -0.064698 0.139308 0.195781
v -0.059851 0.153606 0.195733
v -0.064698 0.167904 0.195781
v -0.079914 0.171367 0.195936
v 0.058945 0.153606 0.194530
v 0.059087 0.153606 0.208687
v -0.096562 0.171793 0.196104
v -0.096418 0.171793 0.210260
v 0.066329 0.135526 0.194456
v 0.066472 0.135526 0.208612
v 0.106303 0.153606 0.194052
v 0.106446 0.153606 0.208207
v 0.082190 0.176605 0.208452
v 0.099963 0.171707 0.208273
v 0.100061 0.135600 0.208272
v 0.082190 0.129498 0.208452
v -0.103919 0.153606 0.210336
v -0.096514 0.135507 0.210261
v -0.079771 0.129498 0.210091
v -0.079771 0.176605 0.210091
v -0.060968 0.171721 0.209902
v -0.054469 0.153606 0.209836
v -0.060874 0.135581 0.209900
v 0.066572 0.171779 0.208611
v 0.066429 0.171779 0.194455
v -0.054612 0.153606 0.195680
v 0.082047 0.176605 0.194297
v 0.082047 0.129498 0.194297
v 0.099820 0.171707 0.194117
v 0.099918 0.135600 0.194116
v -0.096657 0.135507 0.196105
v -0.104062 0.153606 0.196180
v -0.079914 0.129498 0.195936
v -0.061017 0.135581 0.195744
v -0.061111 0.171721 0.195745
v -0.079914 0.176605 0.195936
v -0.323405 0.454313 0.187601
v -0.315983 0.068444 0.186300
v -0.039991 0.068444 0.183507
v -0.037660 0.453279 0.183669
v -0.127393 0.454860 0.182507
v -0.133978 0.057482 0.184338
v -0.315983 0.205334 0.186300
v -0.039991 0.205334 0.183507
v 0.319229 0.422945 0.180062
v 0.043811 0.441136 0.182660
v 0.331317 0.065594 0.176416
v 0.038348 0.059655 0.184340
v 0.134306 0.058586 0.182348
v 0.137436 0.431006 0.181478
v 0.329333 0.201680 0.176984
v 0.050517 0.216294 0.180594
v 0.081787 0.171374 0.168611
v 0.095962 0.167908 0.168468
v 0.100814 0.153606 0.168418
v 0.095961 0.139290 0.168467
v 0.081786 0.134707 0.168611
v 0.069641 0.139294 0.168734
v 0.063838 0.153603 0.168793
v -0.099093 0.153606 0.170441
v -0.093316 0.139290 0.170383
v -0.080173 0.134707 0.170250
v -0.080174 0.171374 0.170250
v -0.064906 0.167907 0.170096
v -0.060022 0.153604 0.170046
v -0.064903 0.139294 0.170096
v 0.319096 0.422950 0.166551
v 0.331188 0.065588 0.162904
v 0.038191 0.059631 0.170829
v -0.323545 0.454317 0.174090
v -0.093317 0.167908 0.170383
v -0.037792 0.453286 0.170158
v 0.069644 0.167908 0.168734
v -0.316127 0.068438 0.172789
v -0.040107 0.068419 0.169997
v -0.127530 0.454867 0.168996
v -0.134116 0.057453 0.170827
v -0.301790 0.214930 0.170136
v -0.040046 0.205335 0.169996
v 0.043669 0.441143 0.169149
v 0.134169 0.058557 0.168837
v 0.137299 0.431014 0.167967
v 0.329206 0.201680 0.163473
v 0.050303 0.216295 0.167084
v -0.187170 0.257068 0.164743
v 0.189694 0.257070 0.160930
vn -0.0101 -0.0000 -0.9999
vn 0.1962 -0.0133 -0.9805
vn 0.0001 -1.0000 0.0060
vn 0.0101 -0.0000 0.9999
vn -0.0000 1.0000 -0.0000
vn -0.0101 0.0286 -0.9995
vn 0.0147 -0.0000 0.9999
vn -0.0211 -0.0000 0.9998
vn 0.0101 -0.0034 0.9999
vn 0.0156 -0.0441 0.9989
vn -0.0221 -0.0000 0.9998
vn 0.0101 0.0441 0.9990
vn 0.0424 -0.0000 0.9991
vn 0.0179 -0.0010 0.9998
vn -0.0247 -0.0441 0.9987
vn -0.0222 -0.0025 0.9998
vn -0.0000 -1.0000 -0.0000
vn 0.9999 -0.0000 -0.0101
vn -0.9999 -0.0000 0.0101
vn 0.0051 -0.0441 0.9990
vn 0.0059 -0.0000 1.0000
vn 0.0101 -0.0441 0.9990
vn -0.0101 0.0338 -0.9994
vn 0.0178 0.0277 0.9995
vn 0.0101 0.0263 0.9996
vn 0.0102 -0.0000 0.9999
vn -0.0222 -0.0000 0.9998
vn 0.0424 -0.0046 0.9991
vn 0.9999 -0.0027 -0.0101
vn -0.9973 -0.0567 -0.0466
vn 1.0000 -0.0018 -0.0083
vn -0.9965 -0.0833 0.0101
vn 0.0101 -0.0276 0.9996
vn 0.0001 -1.0000 0.0066
vn -0.0102 -0.0000 -0.9999
vn -0.0374 0.9980 -0.0505
vn 0.0498 0.9988 -0.0005
vn 0.0084 1.0000 -0.0043
vn 0.0515 0.9985 -0.0198
vn -0.9994 0.0323 0.0101
vn 0.9995 -0.0000 -0.0324
vn 0.9991 -0.0000 0.0421
vn -0.0133 -0.9999 -0.0069
vn 0.0101 -0.0006 0.9999
vn 0.0109 -0.0000 0.9999
vn 0.9983 -0.0576 -0.0101
vn 0.0157 -0.9958 0.0902
vn 0.0124 -0.0025 0.9999
vn -0.0557 -0.0164 0.9983
vn 0.0292 0.0244 0.9993
vn 0.1006 0.0160 0.9948
vn 0.0138 -0.0000 0.9999
vn 0.0085 0.0033 1.0000
vn 0.0261 -0.0421 0.9988
vn 0.0051 -0.0007 1.0000
vn -0.0126 0.0186 0.9997
vn 0.0113 0.0087 0.9999
vn 0.0200 -0.0634 0.9978
vn 0.0076 -0.0051 1.0000
vn 0.0075 -0.0050 1.0000
vn -0.1168 -0.0058 0.9931
vn 0.0036 -0.0000 1.0000
vn 0.0704 -0.0071 0.9975
vn -0.0102 0.0001 -0.9999
vn -0.3191 -0.8551 0.4087
vn 0.8680 0.2930 0.4009
vn 0.8680 -0.2929 0.4009
vn -0.8447 0.3427 0.4111
vn 0.2198 0.8823 0.4162
vn -0.0100 -0.0000 -0.9999
vn -0.8447 0.3426 0.4111
vn 0.8680 0.2929 0.4009
vn 0.2840 -0.8675 0.4085
vn -0.2463 0.8747 0.4173
vn -0.2274 0.8790 0.4192
vn 0.9470 -0.3211 -0.0096
vn 0.3070 -0.9517 -0.0031
vn 0.2374 0.9714 -0.0024
vn -0.2753 0.9614 0.0028
vn 0.9470 0.3211 -0.0096
vn -0.3536 -0.9354 0.0036
vn -0.9272 -0.3743 0.0094
vn -0.9272 0.3743 0.0094
vn -0.2549 0.9670 0.0026
vn 0.2219 0.9751 -0.0022
vn -0.9273 0.3743 0.0094
vn -0.9273 -0.3743 0.0094
vn -0.3286 -0.9445 0.0033
vn 0.2877 -0.9577 -0.0029
vn 0.3064 -0.9519 -0.0031
vn -0.3378 -0.9412 0.0034
vn -0.9246 0.3808 0.0094
vn -0.9255 -0.3787 0.0094
vn -0.9257 -0.3781 0.0093
vn -0.9244 0.3813 0.0094
vn -0.3581 -0.9337 0.0036
vn 0.9414 0.3372 -0.0095
vn 0.9412 0.3377 -0.0095
vn 0.2514 0.9679 -0.0025
vn -0.2777 0.9607 0.0028
vn 0.9422 -0.3348 -0.0095
vn -0.2952 0.9554 0.0030
vn 0.2657 0.9641 -0.0027
vn 0.3231 -0.9464 -0.0033
vn 0.9424 -0.3342 -0.0095
vn -0.8447 -0.3427 0.4111
vn -0.8447 -0.3426 0.4111
vn -0.2957 -0.8620 0.4118
vn -0.0102 -0.0001 -0.9999
vn -0.0100 0.0001 -0.9999
vn 0.2057 0.8850 0.4176
vn -0.0100 -0.0001 -0.9999
vn 0.8680 -0.2930 0.4009
vn 0.2661 -0.8720 0.4108
vn 0.0028 -1.0000 -0.0003
vn -0.3535 -0.9354 0.0056
vn -0.0443 -0.9990 0.0001
vn 0.3070 -0.9517 -0.0018
vn -0.9999 0.0094 0.0098
vn 0.9470 -0.3211 -0.0089
vn -0.9998 -0.0146 0.0094
vn -0.2753 0.9614 0.0033
vn -0.0176 -0.9998 -0.0004
vn 0.2374 0.9714 -0.0019
vn 0.9995 0.0299 -0.0105
vn 0.0601 0.9982 -0.0011
vn 0.7457 0.0188 0.6660
vn -0.2548 0.9670 0.0031
vn -1.0000 -0.0000 0.0041
vn 0.2877 -0.9577 -0.0008
vn 0.0070 0.0011 1.0000
vn -0.0002 0.0042 1.0000
vn 0.0102 0.0003 0.9999
vn 0.0098 -0.0012 1.0000
vn 0.0061 -0.0014 1.0000
vn 0.0086 0.0059 0.9999
vn 0.0095 0.0019 1.0000
vn 0.0107 0.0002 0.9999
vn -0.0372 0.0192 0.9991
vn 0.0223 -0.0041 0.9997
vn 0.0175 0.0194 0.9997
vn 0.0380 0.0113 0.9992
vn 0.0075 0.0081 0.9999
vn 0.0209 0.0036 0.9998
vn 0.0103 -0.0005 0.9999
vn 0.0111 0.9999 -0.0019
vn -0.9272 -0.3743 0.0135
vn -0.1158 0.9933 -0.0008
vn 0.9969 -0.0777 -0.0115
vn -0.9272 0.3743 0.0130
vn -0.9272 -0.3743 0.0100
vn 0.9999 -0.0000 -0.0107
vn -0.0356 0.9994 -0.0018
vn 0.9470 0.3211 -0.0058
vn -0.3286 -0.9445 0.0047
vn -0.9989 -0.0458 0.0098
vn 0.9470 0.3211 -0.0092
vn 0.2219 0.9751 -0.0017
vn -0.1076 -0.9942 0.0006
vn -0.9272 0.3743 0.0098
vn 0.9470 -0.3211 -0.0054
vn -0.0589 -0.9983 0.0006
vn 0.0230 -0.0000 -0.9997
vn 0.0144 0.0043 0.9999
vn -0.0200 -0.0300 0.9994
vn 0.0136 -0.0034 0.9999
vn 0.0152 -0.0373 0.9992
vn 0.0423 -0.0000 0.9991
vn 0.0101 0.0442 0.9990
vn -0.0220 -0.1290 0.9914
vn -0.0204 -0.0025 0.9998
vn 0.0054 -0.0378 0.9993
vn 0.0101 0.0440 0.9990
vn 0.0061 0.0040 1.0000
vn -0.0033 0.0286 -0.9996
vn 0.0263 0.0275 0.9993
vn 0.0372 0.0272 0.9989
vn 0.0392 -0.0044 0.9992
vn 0.0069 -0.0032 1.0000
vn 0.9516 0.0727 -0.2986
vn -0.9985 0.0437 -0.0336
vn 0.9306 0.3613 -0.0588
vn -0.9949 -0.0661 0.0761
vn -0.3685 -0.0000 0.9296
vn -0.1433 -0.9897 0.0014
vn -0.0003 0.9994 -0.0338
vn 0.0119 0.9998 -0.0187
vn -0.0137 0.9986 -0.0507
vn -0.9995 -0.0000 0.0324
vn 0.1681 -0.9819 0.0874
vn 0.9994 -0.0323 -0.0101
vn 0.9973 0.0726 -0.0101
vn -0.1679 -0.9858 -0.0018
vn -0.0099 -0.9999 0.0050
vn 0.0101 -0.0078 0.9999
vn 0.0110 -0.0000 0.9999
vn 0.0101 0.1082 0.9941
vn -0.0688 -0.0000 0.9976
vn 0.0101 0.0114 0.9999
vn 0.0101 0.0409 0.9991
vn 0.0117 -0.0000 0.9999
vn 0.0101 -0.0790 0.9968
vn 0.0101 0.0043 0.9999
vn 0.0101 -0.0181 0.9998
vn 0.0101 0.0007 0.9999
vn -0.0217 -0.0000 0.9998
vn -0.0851 -0.0000 0.9964
vn 0.0164 -0.0000 0.9999
vn -0.3240 -0.8555 0.4039
vn 0.8710 0.3111 0.3803
vn 0.8704 -0.3073 0.3846
vn -0.8458 0.3500 0.4026
vn 0.2490 0.8893 0.3836
vn -0.8459 0.3505 0.4020
vn 0.8709 0.3105 0.3809
vn 0.3012 -0.8707 0.3888
vn -0.2673 0.8779 0.3973
vn -0.2514 0.8837 0.3948
vn -0.9246 0.3808 0.0093
vn -0.9257 -0.3782 0.0094
vn 0.9424 -0.3343 -0.0095
vn -0.8454 -0.3470 0.4062
vn -0.8455 -0.3476 0.4054
vn -0.0101 0.0001 -0.9999
vn -0.0101 -0.0001 -0.9999
vn -0.3058 -0.8634 0.4013
vn 0.2360 0.8936 0.3818
vn 0.8705 -0.3079 0.3839
vn -0.0100 0.0001 -1.0000
vn 0.2861 -0.8766 0.3869
vn 0.0028 -1.0000 -0.0006
vn -0.3532 -0.9355 0.0059
vn -0.0443 -0.9990 -0.0001
vn 0.3076 -0.9515 -0.0010
vn -1.0000 0.0091 0.0041
vn -0.9998 -0.0146 0.0096
vn -0.2745 0.9616 0.0041
vn 0.2375 0.9714 -0.0020
vn 0.9994 0.0296 -0.0158
vn 0.0602 0.9982 -0.0028
vn 0.9958 0.0907 -0.0104
vn -0.2550 0.9669 0.0029
vn -1.0000 0.0004 0.0086
vn 0.0025 -0.0000 1.0000
vn -0.0050 -0.0170 0.9998
vn 0.0108 -0.0000 0.9999
vn -0.0129 0.0023 0.9999
vn 0.0260 0.0079 0.9996
vn 0.0087 0.0014 1.0000
vn 0.0039 0.0177 0.9998
vn -0.1161 -0.0125 0.9932
vn 0.0225 -0.0039 0.9997
vn 0.0078 0.0007 1.0000
vn 0.0209 0.0174 0.9996
vn -0.0114 0.0248 0.9996
vn 0.0294 0.0185 0.9994
vn 0.0233 -0.0128 0.9996
vn 0.0126 -0.0002 0.9999
vn 0.0111 0.9999 -0.0023
vn -0.9266 -0.3758 0.0153
vn -0.1159 0.9933 -0.0010
vn 0.9969 -0.0775 -0.0158
vn -0.9265 0.3761 0.0151
vn -0.9273 -0.3742 0.0101
vn 0.7683 -0.0637 0.6369
vn -0.0357 0.9994 -0.0001
vn 0.9463 0.3231 -0.0034
vn -0.3292 -0.9442 0.0054
vn -0.9989 -0.0458 0.0094
vn 0.9469 0.3213 -0.0089
vn 0.2214 0.9752 -0.0011
vn -0.1075 -0.9942 0.0005
vn -0.9272 0.3745 0.0100
vn 0.9464 -0.3228 -0.0033
vt 0.316796 0.117448
vt 0.325663 0.123972
vt 0.325663 0.117448
vt 0.326414 0.118980
vt 0.335561 0.118980
vt 0.326414 0.123979
vt 0.343206 0.117028
vt 0.334417 0.117515
vt 0.343156 0.117460
vt 0.325813 0.114409
vt 0.317024 0.114896
vt 0.325813 0.114896
vt 0.334455 0.106135
vt 0.326829 0.106135
vt 0.334529 0.117448
vt 0.343396 0.123972
vt 0.343396 0.117448
vt 0.325873 0.123992
vt 0.334324 0.123751
vt 0.325873 0.123751
vt 0.317007 0.117468
vt 0.317422 0.123751
vt 0.317422 0.117468
vt 0.325873 0.110943
vt 0.317422 0.111184
vt 0.325873 0.111184
vt 0.334740 0.117468
vt 0.334324 0.111184
vt 0.334324 0.117468
vt 0.352473 0.117468
vt 0.352057 0.111184
vt 0.352057 0.117468
vt 0.343606 0.110943
vt 0.335156 0.111184
vt 0.343606 0.111184
vt 0.343606 0.123992
vt 0.352057 0.123751
vt 0.343606 0.123751
vt 0.335156 0.123751
vt 0.335156 0.117468
vt 0.326829 0.118224
vt 0.334455 0.117746
vt 0.326829 0.117746
vt 0.318378 0.111941
vt 0.319203 0.117746
vt 0.319203 0.111941
vt 0.326829 0.105657
vt 0.319203 0.106135
vt 0.335280 0.111941
vt 0.334455 0.111941
vt 0.353013 0.111941
vt 0.352188 0.106135
vt 0.352188 0.111941
vt 0.344562 0.105657
vt 0.336936 0.106135
vt 0.344562 0.106135
vt 0.344562 0.118224
vt 0.352188 0.117746
vt 0.344562 0.117746
vt 0.336111 0.111941
vt 0.336936 0.117746
vt 0.336936 0.111941
vt 0.325452 0.110965
vt 0.316741 0.111055
vt 0.325529 0.111055
vt 0.352051 0.117494
vt 0.351896 0.111055
vt 0.351896 0.117404
vt 0.343185 0.117494
vt 0.316585 0.117494
vt 0.316741 0.117404
vt 0.343107 0.111055
vt 0.334318 0.110965
vt 0.334318 0.111055
vt 0.325579 0.117460
vt 0.334318 0.117494
vt 0.334318 0.117404
vt 0.326137 0.118132
vt 0.317348 0.124481
vt 0.326137 0.124481
vt 0.334925 0.118132
vt 0.343714 0.124481
vt 0.343714 0.118132
vt 0.343391 0.114409
vt 0.334602 0.114896
vt 0.343391 0.114896
vt 0.325628 0.117028
vt 0.316840 0.117515
vt 0.334098 0.120031
vt 0.323146 0.120519
vt 0.334098 0.120519
vt 0.334098 0.119250
vt 0.323146 0.119737
vt 0.334098 0.119737
vt 0.352503 0.118132
vt 0.352503 0.124481
vt 0.343185 0.110965
vt 0.334602 0.114409
vt 0.351994 0.117028
vt 0.351994 0.117515
vt 0.334529 0.123972
vt 0.334417 0.117028
vt 0.352179 0.114409
vt 0.352179 0.114896
vt 0.334925 0.124481
vt 0.325452 0.117494
vt 0.352262 0.123972
vt 0.352262 0.117448
vt 0.343396 0.110923
vt 0.352262 0.110923
vt 0.325663 0.110923
vt 0.334529 0.110923
vt 0.344707 0.112156
vt 0.344707 0.117155
vt 0.335561 0.123979
vt 0.316796 0.110923
vt 0.335561 0.111390
vt 0.326414 0.112156
vt 0.335561 0.112156
vt 0.335561 0.124744
vt 0.344707 0.123979
vt 0.346815 0.118214
vt 0.344707 0.118980
vt 0.324306 0.124744
vt 0.335561 0.118214
vt 0.335561 0.117920
vt 0.335561 0.117155
vt 0.346815 0.117920
vt 0.324306 0.117920
vt 0.326414 0.117155
vt 0.325452 0.117789
vt 0.316585 0.124319
vt 0.325452 0.124319
vt 0.343185 0.117789
vt 0.334318 0.124319
vt 0.343185 0.124319
vt 0.352051 0.124319
vt 0.352051 0.117789
vt 0.334318 0.117789
vt 0.326828 0.111941
vt 0.331742 0.122465
vt 0.344562 0.111941
vt 0.322902 0.086885
vt 0.312888 0.087216
vt 0.322902 0.087216
vt 0.324408 0.083777
vt 0.334423 0.083447
vt 0.324408 0.083447
vt 0.321471 0.090284
vt 0.313844 0.090615
vt 0.321471 0.090615
vt 0.323745 0.087826
vt 0.313730 0.088156
vt 0.323745 0.088156
vt 0.321471 0.089659
vt 0.329097 0.089990
vt 0.329097 0.089659
vt 0.321471 0.089365
vt 0.313844 0.089034
vt 0.313844 0.089365
vt 0.324701 0.086701
vt 0.334716 0.086370
vt 0.324701 0.086370
vt 0.315775 0.083351
vt 0.310870 0.085395
vt 0.315775 0.085055
vt 0.318272 0.078859
vt 0.315775 0.081646
vt 0.320553 0.081646
vt 0.325674 0.082127
vt 0.325331 0.081646
vt 0.325331 0.083351
vt 0.318272 0.085395
vt 0.325331 0.085055
vt 0.320553 0.085055
vt 0.320553 0.089360
vt 0.325674 0.092148
vt 0.325331 0.089360
vt 0.325331 0.087656
vt 0.325674 0.085612
vt 0.325331 0.085952
vt 0.310870 0.088880
vt 0.315775 0.089360
vt 0.315775 0.087656
vt 0.318272 0.085612
vt 0.315775 0.085952
vt 0.320553 0.085952
vt 0.310870 0.085612
vt 0.325674 0.088880
vt 0.329097 0.090284
vt 0.329097 0.090615
vt 0.317987 0.080840
vt 0.325613 0.081171
vt 0.325613 0.080840
vt 0.325674 0.085395
vt 0.310870 0.082127
vt 0.329097 0.089034
vt 0.329097 0.089365
vt 0.313844 0.089990
vt 0.313844 0.089659
vt 0.318272 0.092148
vt 0.325674 0.078859
vt 0.333759 0.087826
vt 0.333759 0.088156
vt 0.314394 0.083777
vt 0.314394 0.083447
vt 0.314687 0.086701
vt 0.314687 0.086370
vt 0.332916 0.086885
vt 0.332916 0.087216
vt 0.322834 0.086291
vt 0.324987 0.086291
vt 0.324987 0.084715
vt 0.324987 0.084575
vt 0.324987 0.086573
vt 0.322834 0.086432
vt 0.322834 0.086573
vt 0.320680 0.084575
vt 0.320680 0.084434
vt 0.320680 0.086291
vt 0.324987 0.084434
vt 0.322834 0.084434
vt 0.320680 0.084715
vt 0.322834 0.084715
vt 0.322834 0.084575
vt 0.324987 0.086432
vt 0.320680 0.086573
vt 0.320680 0.086432
vt 0.321471 0.089512
vt 0.323542 0.085728
vt 0.316796 0.123972
vt 0.317024 0.114409
vt 0.334740 0.123992
vt 0.317007 0.123992
vt 0.317007 0.110943
vt 0.334740 0.110943
vt 0.352473 0.110943
vt 0.352473 0.123992
vt 0.335280 0.118224
vt 0.318378 0.118224
vt 0.318378 0.105657
vt 0.335280 0.105657
vt 0.353013 0.105657
vt 0.336111 0.105657
vt 0.353013 0.118224
vt 0.336111 0.118224
vt 0.316585 0.110965
vt 0.352051 0.110965
vt 0.317348 0.118132
vt 0.316840 0.117028
vt 0.323146 0.120031
vt 0.323146 0.119250
vt 0.324306 0.111390
vt 0.346815 0.124744
vt 0.324306 0.118214
vt 0.346815 0.111390
vt 0.316585 0.117789
vt 0.312888 0.086885
vt 0.334423 0.083777
vt 0.313844 0.090284
vt 0.313730 0.087826
vt 0.321471 0.089990
vt 0.321471 0.089034
vt 0.334716 0.086701
vt 0.310870 0.078859
vt 0.310870 0.092148
vt 0.317987 0.081171
s 0
g shelf_3_B_Material
usemtl Material
f 83/1/1 41/2/1 74/3/1
f 101/4/2 67/5/2 17/4/2
f 100/6/3 17/4/3 4/6/3
f 51/7/4 19/8/4 49/9/4
f 52/10/1 3/11/1 50/12/1
f 11/13/5 109/14/5 110/13/5
f 69/15/6 55/16/6 75/17/6
f 54/18/7 21/19/7 57/20/7
f 89/21/4 22/22/4 70/23/4
f 56/24/4 23/25/4 58/26/4
f 76/27/4 24/28/4 77/29/4
f 88/30/4 26/31/4 71/32/4
f 42/33/4 27/34/4 45/35/4
f 44/36/8 25/37/8 46/38/8
f 76/27/9 28/39/9 78/40/9
f 57/41/10 12/42/10 59/43/10
f 70/44/11 6/45/11 72/46/11
f 58/47/12 5/48/12 60/14/12
f 77/49/13 11/13/13 79/50/13
f 71/51/14 7/52/14 73/53/14
f 45/54/12 16/55/12 47/56/12
f 46/57/15 8/58/15 48/59/15
f 78/60/16 13/61/16 80/62/16
f 53/63/17 1/64/17 61/65/17
f 85/66/17 3/67/17 18/68/17
f 42/69/17 18/68/17 49/9/17
f 1/64/17 90/70/17 15/71/17
f 50/72/17 29/73/17 9/74/17
f 62/75/17 33/76/17 19/77/17
f 63/78/17 40/79/17 64/80/17
f 36/81/17 51/82/17 52/83/17
f 63/84/1 9/85/1 61/86/1
f 64/87/4 15/88/4 62/75/4
f 40/89/18 1/90/18 15/91/18
f 39/92/19 18/93/19 3/94/19
f 39/95/17 51/82/17 38/96/17
f 3/67/17 43/97/17 50/72/17
f 33/76/17 49/9/17 19/77/17
f 13/61/20 46/57/20 48/59/20
f 7/52/12 45/54/12 47/56/12
f 28/39/21 44/36/21 46/38/21
f 26/31/4 42/33/4 45/35/4
f 36/98/1 50/12/1 9/85/1
f 38/99/4 49/9/4 18/100/4
f 74/3/1 10/101/1 69/15/1
f 35/102/4 62/75/4 19/8/4
f 37/103/1 61/86/1 1/104/1
f 36/81/17 64/80/17 35/105/17
f 15/71/17 56/106/17 62/75/17
f 29/73/17 61/65/17 9/74/17
f 11/13/12 58/47/12 60/14/12
f 6/45/22 57/41/22 59/43/22
f 24/28/4 56/24/4 58/26/4
f 22/22/4 54/18/4 57/20/4
f 75/17/23 82/107/23 81/108/23
f 53/109/1 81/108/1 91/110/1
f 43/111/1 69/15/1 29/112/1
f 8/58/24 71/51/24 73/53/24
f 5/48/11 70/44/11 72/46/11
f 25/37/25 88/30/25 71/32/25
f 23/25/4 89/21/4 70/23/4
f 29/112/1 75/17/1 53/109/1
f 30/113/5 102/114/5 34/114/5
f 95/115/26 4/6/26 66/115/26
f 84/116/1 74/3/1 43/111/1
f 16/55/27 78/60/27 80/62/27
f 12/42/28 77/49/28 79/50/28
f 27/34/4 76/27/4 78/40/4
f 21/19/9 76/27/9 77/29/9
f 81/117/29 2/118/29 65/119/29
f 83/120/19 32/121/19 66/115/19
f 32/121/19 85/122/19 31/123/19
f 17/4/30 86/124/30 4/6/30
f 31/123/19 88/125/19 67/5/19
f 89/126/18 34/114/18 68/127/18
f 90/128/18 30/113/18 34/114/18
f 2/118/31 92/129/31 14/130/31
f 30/113/18 81/117/18 65/119/18
f 4/6/19 83/120/19 66/115/19
f 88/125/32 17/4/32 67/5/32
f 14/130/18 89/126/18 68/127/18
f 96/5/19 100/6/19 95/115/19
f 94/119/18 104/130/18 93/127/18
f 103/113/18 93/127/18 102/114/18
f 99/123/19 95/115/19 98/121/19
f 2/118/33 94/119/33 65/119/33
f 104/130/34 2/118/34 14/130/34
f 96/5/35 31/123/35 67/5/35
f 93/127/1 14/130/1 68/127/1
f 98/121/26 66/115/26 32/121/26
f 94/119/4 30/113/4 65/119/4
f 102/114/1 68/127/1 34/114/1
f 99/123/5 32/121/5 31/123/5
f 54/131/36 82/132/36 55/133/36
f 44/134/37 10/135/37 41/136/37
f 44/134/38 86/137/38 87/138/38
f 20/139/39 55/133/39 10/135/39
f 72/46/19 108/48/19 5/48/19
f 13/61/40 117/62/40 80/62/40
f 59/43/17 106/45/17 6/45/17
f 12/42/41 111/50/41 121/42/41
f 80/62/19 118/55/19 16/55/19
f 8/58/42 112/53/42 120/58/42
f 48/59/43 116/61/43 13/61/43
f 119/140/4 108/48/4 107/46/4
f 115/59/4 117/62/4 116/61/4
f 122/141/4 118/141/4 117/141/4
f 105/43/4 111/50/4 119/140/4
f 109/14/4 111/50/4 110/13/4
f 107/46/4 105/43/4 119/140/4
f 114/141/44 112/141/44 113/141/44
f 115/59/45 112/53/45 122/142/45
f 11/13/18 111/50/18 79/50/18
f 16/55/5 114/56/5 47/56/5
f 7/52/46 112/53/46 73/53/46
f 12/42/47 105/43/47 59/43/47
f 48/59/17 120/58/17 115/59/17
f 47/56/5 113/52/5 7/52/5
f 6/45/19 107/46/19 72/46/19
f 5/48/5 109/14/5 60/14/5
f 167/143/19 128/144/19 165/145/19
f 161/146/18 123/147/18 159/148/18
f 150/149/5 129/150/5 148/151/5
f 162/152/19 126/153/19 160/154/19
f 154/155/17 134/156/17 127/157/17
f 153/158/5 132/159/5 124/160/5
f 168/161/18 130/162/18 166/163/18
f 250/164/48 131/165/48 246/166/48
f 161/167/49 245/168/49 251/169/49
f 156/170/50 247/171/50 249/172/50
f 167/173/51 248/174/51 252/175/51
f 243/176/52 136/177/52 238/178/52
f 242/179/53 137/180/53 239/181/53
f 150/182/54 237/183/54 241/184/54
f 168/185/55 240/186/55 244/187/55
f 138/188/56 241/184/56 240/186/56
f 238/178/57 149/189/57 242/179/57
f 135/190/5 148/151/5 126/191/5
f 130/192/17 149/193/17 147/194/17
f 134/195/58 249/172/58 248/174/58
f 245/168/59 155/196/59 250/164/59
f 131/197/5 153/158/5 128/198/5
f 133/199/17 154/155/17 123/200/17
f 237/183/60 162/201/60 243/176/60
f 133/202/61 251/169/61 247/171/61
f 136/203/19 160/154/19 125/204/19
f 132/205/18 159/148/18 124/206/18
f 137/180/62 244/187/62 239/181/62
f 246/166/63 167/173/63 252/175/63
f 138/207/18 166/163/18 129/208/18
f 134/209/19 165/145/19 127/210/19
f 226/211/64 201/212/64 202/211/64
f 176/213/65 216/214/65 175/214/65
f 179/215/4 187/216/4 178/217/4
f 227/218/1 192/219/1 195/218/1
f 222/211/66 182/220/66 183/211/66
f 174/221/67 212/222/67 173/222/67
f 196/221/1 228/214/1 190/214/1
f 186/223/68 206/224/68 177/224/68
f 172/219/69 213/218/69 171/218/69
f 186/223/4 188/225/4 171/218/4
f 182/220/4 187/216/4 183/211/4
f 184/212/26 187/216/26 180/226/26
f 185/227/4 187/216/4 181/228/4
f 174/221/4 188/225/4 175/214/4
f 176/213/4 188/225/4 177/224/4
f 172/219/4 188/225/4 173/222/4
f 211/222/70 196/221/70 193/222/70
f 185/227/71 217/217/71 178/217/71
f 212/222/72 172/219/72 173/222/72
f 216/214/73 174/221/73 175/214/73
f 213/218/74 186/223/74 171/218/74
f 201/212/35 233/226/35 200/226/35
f 220/228/75 185/227/75 181/228/75
f 233/226/1 197/215/1 200/226/1
f 163/222/76 196/221/76 140/221/76
f 196/221/77 158/214/77 140/221/77
f 157/218/78 192/219/78 139/219/78
f 194/223/79 157/218/79 141/223/79
f 192/219/80 163/222/80 139/219/80
f 158/214/81 191/213/81 142/213/81
f 191/213/82 169/224/82 142/213/82
f 169/224/83 194/223/83 141/223/83
f 170/211/76 201/212/76 146/212/76
f 199/227/84 152/228/84 143/227/84
f 152/228/85 203/220/85 145/220/85
f 203/220/80 170/211/80 145/220/80
f 198/217/86 143/227/86 164/217/86
f 144/215/87 198/217/87 164/217/87
f 151/226/88 197/215/88 144/215/88
f 201/212/89 151/226/89 146/212/89
f 223/212/90 233/226/90 234/212/90
f 233/226/91 218/215/91 231/215/91
f 205/224/92 224/223/92 225/223/92
f 231/215/93 217/217/93 232/217/93
f 209/213/94 206/224/94 205/224/94
f 217/217/95 207/227/95 232/217/95
f 216/214/96 209/213/96 228/214/96
f 229/219/97 212/222/97 211/222/97
f 235/220/98 222/211/98 226/211/98
f 220/228/99 235/220/99 236/228/99
f 207/227/100 220/228/100 236/228/100
f 226/211/101 223/212/101 234/212/101
f 224/223/102 227/218/102 225/223/102
f 213/218/103 229/219/103 227/218/103
f 215/221/104 228/214/104 230/221/104
f 211/222/105 215/221/105 230/221/105
f 194/223/1 227/218/1 195/218/1
f 206/224/106 176/213/106 177/224/106
f 199/227/1 236/228/1 204/228/1
f 192/219/70 211/222/70 193/222/70
f 217/217/107 179/215/107 178/217/107
f 236/228/35 203/220/35 204/228/35
f 228/214/1 191/213/1 190/214/1
f 179/215/108 219/226/108 180/226/108
f 203/220/109 226/211/109 202/211/109
f 191/213/110 205/224/110 189/224/110
f 182/220/111 220/228/111 181/228/111
f 232/217/70 199/227/70 198/217/70
f 205/224/112 194/223/112 189/224/112
f 184/212/113 222/211/113 183/211/113
f 197/215/70 232/217/70 198/217/70
f 219/226/114 184/212/114 180/226/114
f 270/183/115 241/184/115 237/183/115
f 142/213/116 257/214/116 158/214/116
f 250/164/117 267/168/117 245/168/117
f 158/214/118 256/221/118 140/221/118
f 272/186/119 244/187/119 240/186/119
f 140/221/120 255/222/120 163/222/120
f 283/169/121 247/171/121 251/169/121
f 253/218/122 141/223/122 157/218/122
f 241/184/123 272/186/123 240/186/123
f 139/219/124 253/218/124 157/218/124
f 252/175/125 280/166/125 246/166/125
f 242/179/126 274/178/126 238/178/126
f 278/176/127 237/183/127 243/176/127
f 263/228/128 143/227/128 152/228/128
f 279/187/129 239/181/129 244/187/129
f 262/226/130 146/212/130 151/226/130
f 275/181/131 265/211/131 266/212/131
f 271/227/132 278/176/132 260/217/132
f 261/215/133 277/179/133 262/226/133
f 272/186/134 263/228/134 264/220/134
f 279/187/135 264/220/135 265/211/135
f 276/184/136 271/227/136 263/228/136
f 262/226/137 275/181/137 266/212/137
f 260/217/138 274/178/138 261/215/138
f 273/223/139 284/175/139 259/224/139
f 268/171/140 255/222/140 256/221/140
f 254/219/133 282/164/133 253/218/133
f 269/174/141 257/214/141 258/213/141
f 259/224/142 269/174/142 258/213/142
f 281/172/143 256/221/143 257/214/143
f 283/169/144 254/219/144 255/222/144
f 253/218/145 280/166/145 273/223/145
f 249/172/146 269/174/146 248/174/146
f 169/224/147 258/213/147 142/213/147
f 275/181/148 242/179/148 239/181/148
f 269/174/149 252/175/149 248/174/149
f 273/223/150 169/224/150 141/223/150
f 260/217/151 144/215/151 164/217/151
f 274/178/152 243/176/152 238/178/152
f 247/171/153 281/172/153 249/172/153
f 170/211/154 264/220/154 145/220/154
f 261/215/155 151/226/155 144/215/155
f 267/168/156 251/169/156 245/168/156
f 163/222/157 254/219/157 139/219/157
f 145/220/158 263/228/158 152/228/158
f 280/166/159 250/164/159 246/166/159
f 271/227/160 164/217/160 143/227/160
f 266/212/161 170/211/161 146/212/161
f 136/203/17 147/194/17 149/193/17
f 286/229/1 128/198/1 153/158/1
f 160/154/1 147/194/1 125/204/1
f 147/194/1 166/163/1 130/192/1
f 285/230/1 126/191/1 148/151/1
f 285/230/1 129/208/1 166/163/1
f 154/155/1 159/148/1 123/200/1
f 286/229/1 124/206/1 159/148/1
f 165/145/1 154/155/1 127/210/1
f 83/1/1 86/231/1 41/2/1
f 101/4/35 96/5/35 67/5/35
f 100/6/162 101/4/162 17/4/162
f 51/7/4 35/102/4 19/8/4
f 52/10/1 39/232/1 3/11/1
f 11/13/5 60/14/5 109/14/5
f 69/15/163 10/101/163 55/16/163
f 54/18/164 20/233/164 21/19/164
f 89/21/4 92/234/4 22/22/4
f 56/24/4 90/235/4 23/25/4
f 76/27/4 33/236/4 24/28/4
f 88/30/4 85/237/4 26/31/4
f 42/33/4 33/236/4 27/34/4
f 44/36/165 87/238/165 25/37/165
f 76/27/166 20/233/166 28/39/166
f 57/41/167 21/239/167 12/42/167
f 70/44/11 22/240/11 6/45/11
f 58/47/12 23/241/12 5/48/12
f 77/49/13 24/242/13 11/13/13
f 71/51/168 26/243/168 7/52/168
f 45/54/169 27/244/169 16/55/169
f 46/57/170 25/245/170 8/58/170
f 78/60/171 28/246/171 13/61/171
f 53/63/17 91/247/17 1/64/17
f 85/66/17 84/248/17 3/67/17
f 42/69/17 85/66/17 18/68/17
f 1/64/17 91/247/17 90/70/17
f 50/72/17 43/97/17 29/73/17
f 62/75/17 56/106/17 33/76/17
f 63/78/17 37/249/17 40/79/17
f 36/81/17 35/105/17 51/82/17
f 63/84/1 36/98/1 9/85/1
f 64/87/4 40/250/4 15/88/4
f 40/89/18 37/251/18 1/90/18
f 39/92/19 38/252/19 18/93/19
f 39/95/17 52/83/17 51/82/17
f 3/67/17 84/248/17 43/97/17
f 33/76/17 42/69/17 49/9/17
f 13/61/172 28/246/172 46/57/172
f 7/52/173 26/243/173 45/54/173
f 28/39/174 20/233/174 44/36/174
f 26/31/4 85/237/4 42/33/4
f 36/98/1 52/10/1 50/12/1
f 38/99/4 51/7/4 49/9/4
f 74/3/1 41/2/1 10/101/1
f 35/102/4 64/87/4 62/75/4
f 37/103/1 63/84/1 61/86/1
f 36/81/17 63/78/17 64/80/17
f 15/71/17 90/70/17 56/106/17
f 29/73/17 53/63/17 61/65/17
f 11/13/169 24/242/169 58/47/169
f 6/45/22 22/240/22 57/41/22
f 24/28/4 33/236/4 56/24/4
f 22/22/4 92/234/4 54/18/4
f 75/17/175 55/16/175 82/107/175
f 53/109/1 75/17/1 81/108/1
f 43/111/1 74/3/1 69/15/1
f 8/58/176 25/245/176 71/51/176
f 5/48/11 23/241/11 70/44/11
f 25/37/177 87/238/177 88/30/177
f 23/25/4 90/235/4 89/21/4
f 29/112/1 69/15/1 75/17/1
f 30/113/5 103/113/5 102/114/5
f 95/115/26 100/6/26 4/6/26
f 84/116/1 83/1/1 74/3/1
f 16/55/27 27/244/27 78/60/27
f 12/42/178 21/239/178 77/49/178
f 27/34/4 33/236/4 76/27/4
f 21/19/179 20/233/179 76/27/179
f 81/117/180 82/253/180 2/118/180
f 83/120/19 84/254/19 32/121/19
f 32/121/19 84/254/19 85/122/19
f 17/4/181 87/255/181 86/124/181
f 31/123/19 85/122/19 88/125/19
f 89/126/18 90/128/18 34/114/18
f 90/128/18 91/256/18 30/113/18
f 2/118/182 82/253/182 92/129/182
f 30/113/18 91/256/18 81/117/18
f 4/6/19 86/124/19 83/120/19
f 88/125/183 87/255/183 17/4/183
f 14/130/18 92/129/18 89/126/18
f 96/5/19 101/4/19 100/6/19
f 94/119/18 97/118/18 104/130/18
f 103/113/18 94/119/18 93/127/18
f 99/123/19 96/5/19 95/115/19
f 2/118/184 97/118/184 94/119/184
f 104/130/185 97/118/185 2/118/185
f 96/5/35 99/123/35 31/123/35
f 93/127/1 104/130/1 14/130/1
f 98/121/26 95/115/26 66/115/26
f 94/119/4 103/113/4 30/113/4
f 102/114/1 93/127/1 68/127/1
f 99/123/5 98/121/5 32/121/5
f 54/131/186 92/257/186 82/132/186
f 44/134/187 20/139/187 10/135/187
f 44/134/5 41/136/5 86/137/5
f 20/139/188 54/131/188 55/133/188
f 72/46/19 107/46/19 108/48/19
f 13/61/189 116/61/189 117/62/189
f 59/43/190 105/43/190 106/45/190
f 12/42/191 79/50/191 111/50/191
f 80/62/19 117/62/19 118/55/19
f 8/58/192 73/53/192 112/53/192
f 48/59/17 115/59/17 116/61/17
f 119/140/4 109/14/4 108/48/4
f 115/59/4 122/142/4 117/62/4
f 122/141/4 114/141/4 118/141/4
f 105/43/4 121/42/4 111/50/4
f 109/14/4 119/140/4 111/50/4
f 107/46/4 106/45/4 105/43/4
f 114/141/45 122/141/45 112/141/45
f 115/59/45 120/58/45 112/53/45
f 11/13/18 110/13/18 111/50/18
f 16/55/5 118/55/5 114/56/5
f 7/52/46 113/52/46 112/53/46
f 12/42/193 121/42/193 105/43/193
f 48/59/194 8/58/194 120/58/194
f 47/56/5 114/56/5 113/52/5
f 6/45/19 106/45/19 107/46/19
f 5/48/5 108/48/5 109/14/5
f 167/143/19 131/258/19 128/144/19
f 161/146/18 133/259/18 123/147/18
f 150/149/5 138/260/5 129/150/5
f 162/152/19 135/261/19 126/153/19
f 154/155/17 156/262/17 134/156/17
f 153/158/5 155/263/5 132/159/5
f 168/161/18 137/264/18 130/162/18
f 250/164/195 155/196/195 131/165/195
f 161/167/196 132/265/196 245/168/196
f 156/170/197 133/202/197 247/171/197
f 167/173/198 134/195/198 248/174/198
f 243/176/52 162/201/52 136/177/52
f 242/179/199 149/189/199 137/180/199
f 150/182/200 135/266/200 237/183/200
f 168/185/201 138/188/201 240/186/201
f 138/188/202 150/182/202 241/184/202
f 238/178/203 136/177/203 149/189/203
f 135/190/5 150/149/5 148/151/5
f 130/192/17 137/267/17 149/193/17
f 134/195/204 156/170/204 249/172/204
f 245/168/205 132/265/205 155/196/205
f 131/197/5 155/263/5 153/158/5
f 133/199/17 156/262/17 154/155/17
f 237/183/206 135/266/206 162/201/206
f 133/202/207 161/167/207 251/169/207
f 136/203/19 162/152/19 160/154/19
f 132/205/18 161/146/18 159/148/18
f 137/180/62 168/185/62 244/187/62
f 246/166/208 131/165/208 167/173/208
f 138/207/18 168/161/18 166/163/18
f 134/209/19 167/143/19 165/145/19
f 226/211/35 234/212/35 201/212/35
f 176/213/209 210/213/209 216/214/209
f 179/215/4 180/226/4 187/216/4
f 227/218/1 229/219/1 192/219/1
f 222/211/210 221/220/210 182/220/210
f 174/221/211 215/221/211 212/222/211
f 196/221/64 230/221/64 228/214/64
f 186/223/212 224/223/212 206/224/212
f 172/219/213 214/219/213 213/218/213
f 186/223/4 177/224/4 188/225/4
f 182/220/26 181/228/26 187/216/26
f 184/212/4 183/211/4 187/216/4
f 185/227/4 178/217/4 187/216/4
f 174/221/4 173/222/4 188/225/4
f 176/213/4 175/214/4 188/225/4
f 172/219/4 171/218/4 188/225/4
f 211/222/64 230/221/64 196/221/64
f 185/227/214 208/227/214 217/217/214
f 212/222/215 214/219/215 172/219/215
f 216/214/216 215/221/216 174/221/216
f 213/218/217 224/223/217 186/223/217
f 201/212/35 234/212/35 233/226/35
f 220/228/218 208/227/218 185/227/218
f 233/226/110 231/215/110 197/215/110
f 163/222/76 193/222/76 196/221/76
f 196/221/77 190/214/77 158/214/77
f 157/218/78 195/218/78 192/219/78
f 194/223/79 195/218/79 157/218/79
f 192/219/80 193/222/80 163/222/80
f 158/214/81 190/214/81 191/213/81
f 191/213/87 189/224/87 169/224/87
f 169/224/86 189/224/86 194/223/86
f 170/211/76 202/211/76 201/212/76
f 199/227/84 204/228/84 152/228/84
f 152/228/85 204/228/85 203/220/85
f 203/220/80 202/211/80 170/211/80
f 198/217/86 199/227/86 143/227/86
f 144/215/87 197/215/87 198/217/87
f 151/226/88 200/226/88 197/215/88
f 201/212/89 200/226/89 151/226/89
f 223/212/90 219/226/90 233/226/90
f 233/226/91 219/226/91 218/215/91
f 205/224/219 206/224/219 224/223/219
f 231/215/93 218/215/93 217/217/93
f 209/213/220 210/213/220 206/224/220
f 217/217/95 208/227/95 207/227/95
f 216/214/96 210/213/96 209/213/96
f 229/219/97 214/219/97 212/222/97
f 235/220/98 221/220/98 222/211/98
f 220/228/99 221/220/99 235/220/99
f 207/227/100 208/227/100 220/228/100
f 226/211/101 222/211/101 223/212/101
f 224/223/102 213/218/102 227/218/102
f 213/218/103 214/219/103 229/219/103
f 215/221/104 216/214/104 228/214/104
f 211/222/221 212/222/221 215/221/221
f 194/223/1 225/223/1 227/218/1
f 206/224/222 210/213/222 176/213/222
f 199/227/1 207/227/1 236/228/1
f 192/219/1 229/219/1 211/222/1
f 217/217/223 218/215/223 179/215/223
f 236/228/224 235/220/224 203/220/224
f 228/214/225 209/213/225 191/213/225
f 179/215/226 218/215/226 219/226/226
f 203/220/1 235/220/1 226/211/1
f 191/213/35 209/213/35 205/224/35
f 182/220/227 221/220/227 220/228/227
f 232/217/70 207/227/70 199/227/70
f 205/224/1 225/223/1 194/223/1
f 184/212/228 223/212/228 222/211/228
f 197/215/229 231/215/229 232/217/229
f 219/226/230 223/212/230 184/212/230
f 270/183/231 276/184/231 241/184/231
f 142/213/232 258/213/232 257/214/232
f 250/164/233 282/164/233 267/168/233
f 158/214/234 257/214/234 256/221/234
f 272/186/235 279/187/235 244/187/235
f 140/221/120 256/221/120 255/222/120
f 283/169/236 268/171/236 247/171/236
f 253/218/237 273/223/237 141/223/237
f 241/184/123 276/184/123 272/186/123
f 139/219/238 254/219/238 253/218/238
f 252/175/239 284/175/239 280/166/239
f 242/179/240 277/179/240 274/178/240
f 278/176/241 270/183/241 237/183/241
f 263/228/242 271/227/242 143/227/242
f 279/187/243 275/181/243 239/181/243
f 262/226/130 266/212/130 146/212/130
f 275/181/244 279/187/244 265/211/244
f 271/227/245 270/183/245 278/176/245
f 261/215/246 274/178/246 277/179/246
f 272/186/247 276/184/247 263/228/247
f 279/187/55 272/186/55 264/220/55
f 276/184/248 270/183/248 271/227/248
f 262/226/249 277/179/249 275/181/249
f 260/217/250 278/176/250 274/178/250
f 273/223/251 280/166/251 284/175/251
f 268/171/252 283/169/252 255/222/252
f 254/219/253 267/168/253 282/164/253
f 269/174/254 281/172/254 257/214/254
f 259/224/255 284/175/255 269/174/255
f 281/172/256 268/171/256 256/221/256
f 283/169/257 267/168/257 254/219/257
f 253/218/258 282/164/258 280/166/258
f 249/172/259 281/172/259 269/174/259
f 169/224/260 259/224/260 258/213/260
f 275/181/261 277/179/261 242/179/261
f 269/174/262 284/175/262 252/175/262
f 273/223/263 259/224/263 169/224/263
f 260/217/264 261/215/264 144/215/264
f 274/178/265 278/176/265 243/176/265
f 247/171/266 268/171/266 281/172/266
f 170/211/267 265/211/267 264/220/267
f 261/215/268 262/226/268 151/226/268
f 267/168/269 283/169/269 251/169/269
f 163/222/270 255/222/270 254/219/270
f 145/220/271 264/220/271 263/228/271
f 280/166/272 282/164/272 250/164/272
f 271/227/273 260/217/273 164/217/273
f 266/212/274 265/211/274 170/211/274
f 136/203/17 125/204/17 147/194/17
f 286/229/1 165/145/1 128/198/1
f 160/154/1 285/230/1 147/194/1
f 147/194/1 285/230/1 166/163/1
f 285/230/1 160/154/1 126/191/1
f 285/230/1 148/151/1 129/208/1
f 154/155/1 286/229/1 159/148/1
f 286/229/1 153/158/1 124/206/1
f 165/145/1 286/229/1 154/155/1
