# Blender 4.2.1 LTS
# www.blender.org
mtllib shelf_1_B.mtl
g shelf_1_B_Mesh
v 0.441470 0.087267 -0.215149
v 0.441470 1.513180 -0.215149
v 0.394118 0.132109 0.215149
v 0.394118 1.468338 0.215149
v -0.441470 0.087267 -0.215149
v -0.441470 1.513180 -0.215149
v -0.394118 0.132109 0.215149
v -0.394118 1.468338 0.215149
v 0.441470 1.513180 0.215149
v 0.441471 0.087267 0.215149
v -0.441470 0.087267 0.215149
v -0.441470 1.513180 0.215149
v 0.394118 1.468338 -0.122249
v 0.394118 0.132109 -0.122249
v -0.394118 0.132109 -0.122248
v -0.394118 1.468338 -0.122248
v -0.455004 0.950361 0.215149
v -0.455004 1.212185 0.215149
v -0.487235 1.604408 0.255335
v -0.487235 1.576873 0.255335
v 0.456481 0.407888 0.215149
v 0.487236 1.604408 0.255334
v 0.456481 0.950361 0.215149
v 0.487236 1.576873 0.255334
v 0.473934 0.087267 0.245892
v 0.473934 0.087267 -0.245892
v 0.460676 1.535060 -0.231024
v 0.460676 1.535060 0.231024
v -0.473934 0.087267 0.245892
v -0.460676 1.535060 0.231024
v -0.473934 0.087267 -0.245892
v -0.460677 1.535060 -0.231024
v 0.504196 0.027442 0.261592
v 0.504195 0.027442 -0.261593
v 0.460676 1.558522 -0.231024
v 0.460676 1.558522 0.231024
v -0.504196 0.027442 0.261593
v -0.460676 1.558522 0.231024
v -0.504196 0.027442 -0.261592
v -0.460677 1.558522 -0.231024
v 0.487235 1.576873 -0.255335
v -0.487236 1.576873 -0.255334
v 0.487235 1.604408 -0.255335
v -0.487236 1.604408 -0.255334
v 0.473934 0.064959 -0.245892
v -0.473934 0.064959 -0.245892
v -0.473934 0.064959 0.245892
v 0.473934 0.064959 0.245892
v 0.456481 1.125274 -0.215149
v 0.456481 0.407888 -0.215149
v 0.456481 1.125274 0.215149
v 0.456481 0.950361 -0.215149
v 0.504196 0.000000 0.261592
v 0.504195 0.000000 -0.261593
v -0.504196 0.000000 0.261593
v -0.504196 0.000000 -0.261592
v -0.455004 0.353605 0.215149
v -0.455004 1.212185 -0.215149
v -0.455004 0.950361 -0.215149
v -0.455004 0.353605 -0.215149
v 0.411639 1.125274 0.215149
v 0.411639 0.950361 0.215149
v 0.411639 0.407888 0.215149
v -0.410162 1.212185 0.215149
v -0.410162 0.950361 0.215149
v -0.410162 0.353605 0.215149
v 0.411639 1.125274 -0.122249
v 0.411639 0.950361 -0.122249
v 0.411639 0.407888 -0.122249
v -0.410162 1.212185 -0.122248
v -0.410162 0.950361 -0.122248
v -0.410162 0.353605 -0.122248
v 0.456481 1.170600 -0.215149
v -0.455004 1.257511 -0.215149
v -0.455004 1.257511 0.215149
v 0.456481 1.170600 0.215149
v 0.411639 1.170600 0.215149
v -0.410162 1.257511 0.215149
v 0.395227 1.167121 -0.120119
v -0.410162 1.257511 -0.122248
v -0.455004 0.995642 -0.215149
v 0.456481 0.995642 0.215149
v -0.455004 0.995642 0.215149
v 0.456481 0.995642 -0.215149
v 0.411639 0.995642 0.215149
v -0.410162 0.995642 0.215149
v 0.408635 0.980170 -0.121426
v -0.410162 0.995642 -0.122248
v -0.455004 0.396020 -0.215149
v -0.455004 0.396020 0.215149
v 0.456481 0.450303 -0.215149
v 0.456481 0.450303 0.215149
v 0.411639 0.450303 0.215149
v -0.410162 0.396020 0.215149
v 0.411639 0.450303 -0.122249
v -0.416528 0.379746 -0.125509
v 0.394118 1.468338 0.163377
v 0.394118 0.132109 0.163377
v -0.394118 0.132109 0.163378
v -0.394118 1.468338 0.163378
v -0.410162 1.212185 0.163378
v -0.410162 0.950361 0.163378
v -0.410162 0.353605 0.163378
v 0.411639 0.407888 0.163377
v 0.408635 0.934890 0.164201
v 0.411639 1.125274 0.163377
v -0.410162 1.257511 0.163378
v 0.411639 1.170600 0.163377
v 0.408689 0.964826 0.164539
v -0.410162 0.995642 0.163378
v 0.411639 0.450303 0.163377
v -0.407934 0.378006 0.158518
v 0.456481 0.634567 -0.215149
v 0.456481 0.681612 -0.215149
v -0.455004 0.707084 -0.215149
v -0.455004 0.653129 -0.215149
v -0.455004 0.707084 0.215149
v -0.455004 0.653129 0.215149
v 0.456481 0.681612 0.215149
v 0.456481 0.634567 0.215149
v 0.411639 0.681612 0.215149
v 0.411639 0.634567 0.215149
v -0.410162 0.707084 0.215149
v -0.410162 0.653129 0.215149
v 0.411639 0.681612 -0.122249
v 0.411639 0.634567 -0.122249
v -0.410162 0.707084 -0.122248
v -0.410162 0.653129 -0.122248
v -0.410162 0.653129 0.163378
v -0.410162 0.707084 0.163378
v 0.410608 0.671464 0.160948
v 0.411639 0.634567 0.163377
v 0.035175 0.087267 0.215149
v 0.329489 0.087267 0.215149
v 0.329488 1.513180 0.215149
v 0.035175 1.513180 0.215149
v 0.329488 0.087267 -0.215149
v 0.035175 0.087267 -0.215149
v 0.035175 1.513180 -0.215149
v 0.329488 1.513180 -0.215149
v 0.031401 0.132109 0.215149
v 0.294146 0.132109 0.215149
v 0.294147 1.468338 0.215149
v 0.031402 1.468338 0.215149
v 0.031401 0.132109 -0.122249
v 0.294146 0.132109 -0.122249
v 0.294147 1.468338 -0.122249
v 0.058284 1.453906 -0.126453
v 0.363644 1.576873 0.255334
v 0.038821 1.576873 0.255334
v 0.037762 0.087267 0.245892
v 0.353718 0.087267 0.245892
v 0.343823 1.535060 0.231024
v 0.036705 1.535060 0.231024
v 0.353717 0.087267 -0.245892
v 0.037761 0.087267 -0.245892
v 0.036704 1.535060 -0.231024
v 0.343823 1.535060 -0.231024
v 0.040172 0.027442 0.261593
v 0.376302 0.027442 0.261592
v 0.343823 1.558522 0.231024
v 0.036705 1.558522 0.231024
v 0.376303 0.027442 -0.261593
v 0.040172 0.027442 -0.261593
v 0.036704 1.558522 -0.231024
v 0.343823 1.558522 -0.231024
v 0.038820 1.576873 -0.255334
v 0.363644 1.576873 -0.255335
v 0.363644 1.604408 0.255334
v 0.038821 1.604408 0.255334
v 0.038820 1.604408 -0.255334
v 0.363644 1.604408 -0.255335
v 0.037762 0.064959 0.245892
v 0.353718 0.064959 0.245892
v 0.353717 0.064959 -0.245892
v 0.037761 0.064959 -0.245892
v 0.040172 0.000000 0.261593
v 0.376302 0.000000 0.261592
v 0.376303 0.000000 -0.261593
v 0.040172 0.000000 -0.261593
v 0.037050 0.382909 -0.215149
v 0.340879 0.401003 -0.215149
v 0.037050 0.950361 -0.215149
v 0.340879 0.950361 -0.215149
v 0.037050 1.165267 -0.215149
v 0.340879 1.136297 -0.215149
v 0.037050 1.210593 -0.215149
v 0.340879 1.181623 -0.215149
v 0.037050 0.995642 -0.215149
v 0.340879 0.995642 -0.215149
v 0.037050 0.425324 -0.215149
v 0.340879 0.443419 -0.215149
v 0.031401 1.468338 0.163378
v 0.294146 1.468338 0.163377
v 0.294147 0.132109 0.163377
v 0.031402 0.132109 0.163378
v 0.037050 0.643109 -0.215149
v 0.340879 0.636922 -0.215149
v 0.037050 0.693333 -0.215149
v 0.340879 0.684843 -0.215149
v -0.037516 1.513180 0.215149
v -0.037516 0.087267 -0.215149
v -0.033492 1.468338 0.215149
v -0.033492 1.468338 -0.122249
v -0.041404 1.576873 0.255335
v -0.039147 1.535060 0.231024
v -0.040274 0.087267 -0.245892
v -0.039147 1.558522 0.231024
v -0.042846 0.027442 -0.261593
v -0.041404 1.604408 0.255335
v -0.040274 0.064959 -0.245892
v -0.042846 0.000000 -0.261593
v -0.033492 0.132109 0.163378
v -0.037516 0.087267 0.215149
v -0.037516 1.513180 -0.215149
v -0.033493 0.132109 0.215149
v -0.033493 0.132109 -0.122249
v -0.040274 0.087267 0.245892
v -0.039148 1.535060 -0.231024
v -0.042847 0.027442 0.261593
v -0.039148 1.558522 -0.231024
v -0.041405 1.576873 -0.255334
v -0.041405 1.604408 -0.255334
v -0.040274 0.064959 0.245892
v -0.042847 0.000000 0.261593
v -0.037991 0.378440 -0.215149
v -0.037991 0.950361 -0.215149
v -0.037991 1.172423 -0.215149
v -0.037991 1.217748 -0.215149
v -0.037991 0.995642 -0.215149
v -0.037991 0.420855 -0.215149
v -0.033493 1.468338 0.163378
v -0.037991 0.644637 -0.215149
v -0.037991 0.695430 -0.215149
v 0.170468 1.165345 0.151344
v -0.021943 0.995642 -0.122249
v 0.142018 1.191555 -0.130720
v 0.132972 0.928548 0.154837
v 0.187598 0.954872 -0.132459
v 0.037466 0.402248 0.162328
v 0.037335 0.425579 -0.122249
v 0.036614 0.359777 0.162328
v 0.052362 1.163270 -0.122249
v 0.264766 0.654413 -0.158062
v -0.024731 1.216749 -0.122249
v 0.175374 1.153179 0.149678
v 0.149479 0.667693 0.140661
v 0.104129 0.956478 0.159920
v 0.149993 0.642074 0.146651
v -0.042737 0.412949 -0.123020
v -0.033548 0.950361 -0.122249
v -0.040273 0.620866 0.168413
v -0.123706 0.379023 0.167022
v -0.033521 1.172353 -0.122249
v -0.122903 0.360840 0.173045
v -0.073337 0.930361 0.170618
v -0.033531 0.644622 -0.122249
v -0.280522 1.209021 0.192669
v -0.281361 1.186625 0.192282
v -0.045254 0.650622 0.163788
v -0.061223 0.955069 0.169173
v 0.141537 0.973828 -0.130790
v 0.169551 0.691605 -0.138975
v -0.010514 0.665075 -0.118593
v 0.372329 0.408394 -0.172759
v -0.113412 0.367350 -0.113679
v 0.266708 1.142392 0.154973
v 0.294936 0.686429 -0.130312
v 0.251695 0.369468 0.158021
v 0.294428 0.977459 -0.125430
v 0.267222 0.669393 0.149808
v 0.251713 0.411884 0.158021
v 0.294126 0.442541 -0.122249
v 0.294128 1.137702 -0.122249
v 0.266592 1.167439 0.156140
v 0.265982 0.960914 0.162375
v 0.266793 0.638723 0.154118
v 0.266256 0.931615 0.159364
v 0.393141 0.408126 -0.146018
v 0.349982 0.642899 -0.137283
v 0.332141 0.951962 -0.125872
v 0.299083 1.176399 -0.124145
vn 0.9990 0.0438 -0.0000
vn -0.9983 -0.0033 0.0578
vn -0.9986 0.0529 -0.0000
vn -0.0000 -0.0000 -1.0000
vn 1.0000 -0.0000 -0.0000
vn -0.0000 -0.5873 0.8094
vn -0.0000 -0.0000 1.0000
vn -0.0412 0.0069 0.9991
vn 0.9974 0.0722 -0.0000
vn -0.0000 1.0000 -0.0000
vn -0.0000 -1.0000 -0.0000
vn -0.5685 -0.8227 -0.0000
vn -0.0000 -0.5873 -0.8094
vn -0.0000 -0.7981 -0.6025
vn -1.0000 -0.0000 -0.0000
vn -0.0000 0.3861 -0.9225
vn -0.0000 0.3860 0.9225
vn 0.7784 0.6278 -0.0000
vn -0.7784 0.6278 -0.0000
vn -0.7515 -0.6597 -0.0000
vn 0.7515 -0.6597 -0.0000
vn -0.0000 -0.7981 0.6025
vn 0.5684 -0.8227 -0.0000
vn -0.0000 0.0858 0.9963
vn 0.9720 0.2332 -0.0280
vn -0.0692 -0.0070 0.9976
vn -0.0352 0.0064 0.9994
vn -0.9987 -0.0508 -0.0000
vn -0.9980 0.0634 -0.0000
vn -1.0000 -0.0074 -0.0039
vn -0.9998 0.0184 0.0012
vn 0.9989 -0.0468 -0.0000
vn 0.9971 -0.0759 -0.0000
vn 0.0231 0.2188 0.9755
vn -0.9310 -0.3651 -0.0000
vn -0.9999 0.0019 -0.0104
vn 0.0133 -0.0557 0.9984
vn -0.0272 0.2574 0.9659
vn 1.0000 0.0081 -0.0000
vn -0.9983 0.0011 0.0585
vn -0.9987 0.0187 0.0468
vn -0.9998 -0.0077 0.0205
vn 0.9992 -0.0000 0.0393
vn -0.9983 -0.0587 -0.0000
vn -0.0212 0.9997 -0.0110
vn -0.1947 -0.9809 -0.0000
vn -0.0282 0.9981 0.0546
vn -0.0593 -0.9982 -0.0000
vn -0.2352 0.9694 0.0704
vn 0.2336 -0.9723 -0.0000
vn -0.0093 0.0629 0.9980
vn -0.0335 -0.0000 0.9994
vn -0.9996 -0.0280 -0.0000
vn -0.0050 0.0762 0.9971
vn 0.0235 -0.9117 0.4102
vn -0.0172 0.9992 0.0357
vn -0.0287 -0.9996 -0.0000
vn -0.0011 -0.0000 1.0000
vn -0.0000 0.3861 0.9225
vn -0.0000 0.3860 -0.9225
vn 0.0611 -0.9981 -0.0000
vn -0.1537 -0.9875 0.0349
vn -0.2204 -0.0000 0.9754
vn 0.1058 0.9883 0.1102
vn 0.0893 -0.0205 0.9958
vn 0.0258 -0.9959 -0.0863
vn -0.0787 0.2255 0.9711
vn -0.1400 0.9872 0.0764
vn -0.0459 -0.1537 0.9871
vn -0.0097 -0.1888 0.9820
vn 0.0657 0.3164 0.9464
vn -0.0092 -0.0030 1.0000
vn 0.0293 -0.9991 -0.0294
vn -0.0056 -0.0118 0.9999
vn -0.0141 -0.9974 -0.0700
vn 0.0950 0.2285 0.9689
vn -0.0225 -0.9964 -0.0820
vn 0.0556 0.0311 0.9980
vn -0.0038 1.0000 0.0062
vn -0.0743 -0.9972 -0.0133
vn -0.0380 0.1985 0.9794
vn 0.0507 -0.0001 0.9987
vn 0.3503 0.9366 -0.0000
vn 0.1155 0.9933 -0.0000
vn -0.0007 0.9905 0.1378
vn 0.0493 -0.0218 0.9985
vn -0.1176 -0.9930 0.0052
vn -0.0824 0.9958 0.0408
vn 0.1093 0.0216 0.9938
vn 0.1529 0.9882 -0.0000
vn -0.0079 0.0122 0.9999
vn -0.0000 -0.0364 0.9993
vn 0.0757 -0.9948 -0.0685
vn 0.0463 -0.9989 -0.0000
vn -0.0431 0.9957 0.0817
vn -0.0346 -0.0199 0.9992
vn -0.0787 0.1398 0.9870
vn 0.0200 -0.0004 0.9998
vn -0.0488 -0.0467 0.9977
vn -0.0149 -0.0113 0.9998
vn -0.0209 0.9963 0.0837
vn -0.0282 0.9980 0.0559
vn 0.0935 -0.9922 -0.0827
vn -0.1220 -0.9913 -0.0490
vn 0.0252 -0.9975 -0.0653
vn -0.0697 -0.0199 0.9974
vn -0.0425 -0.0072 0.9991
vn -0.0232 0.9993 0.0292
vn -0.0109 0.1652 0.9862
vn -0.0000 0.1798 0.9837
vn -0.0000 -0.5872 0.8094
vn -0.0000 -0.0065 1.0000
vn 0.5685 -0.8227 -0.0000
vn -0.7879 0.0501 0.6137
vn 0.9959 -0.0909 -0.0000
vn -0.0455 -0.0000 0.9990
vn -0.0021 -0.0198 0.9998
vn -0.9999 -0.0000 -0.0105
vn -0.9998 0.0207 -0.0000
vn -0.0056 -0.0530 0.9986
vn -0.0787 -0.7439 0.6637
vn -0.0803 -0.7879 0.6106
vn -0.0366 0.0536 0.9979
vn 0.0322 0.1423 0.9893
vn -0.9983 -0.0000 0.0578
vn -0.9950 -0.1001 -0.0052
vn -0.0461 -0.0322 0.9984
vn -0.0334 -0.0667 0.9972
vn -0.0000 0.9147 0.4041
vn -0.0471 -0.0869 0.9951
vn -0.0000 -0.3646 0.9312
vn -0.0307 -0.1616 0.9864
vn 0.0171 -0.0000 0.9999
vn -0.7892 -0.0000 0.6142
vn 0.0069 -0.1045 0.9945
vn 0.0331 -0.5017 0.8644
vn 0.0757 -0.9948 -0.0689
vn -0.0340 0.1155 0.9927
vn 0.0849 -0.9722 0.2183
vn 0.0893 -0.3791 0.9210
vn 0.9993 -0.0229 -0.0304
vn 0.9993 0.0074 0.0369
vn -0.9983 -0.0000 0.0582
vn -0.9983 -0.0000 0.0589
vn 0.0942 0.9946 0.0427
vn -0.1051 -0.9937 -0.0377
vn -0.0256 0.9982 0.0536
vn -0.0000 -0.9977 -0.0681
vn -0.0659 0.9978 -0.0000
vn -0.0215 -0.0000 0.9998
vn -0.9998 -0.0000 0.0190
vn -1.0000 -0.0000 -0.0036
vn -0.2369 -0.0000 0.9715
vn 0.0416 -0.9978 -0.0520
vn -0.0091 -0.0000 1.0000
vn -0.0210 0.6948 0.7189
vn 0.0205 0.9078 0.4190
vn 0.0382 -0.8650 0.5002
vn 0.0367 0.9973 0.0643
vn -0.0001 0.1536 0.9881
vn -0.0000 -0.9988 0.0497
vn -0.2206 -0.0086 0.9753
vn 0.1527 0.9853 0.0762
vn 0.0850 -0.1015 0.9912
vn -0.0167 -0.9970 -0.0750
vn -0.0592 0.1397 0.9884
vn -0.1561 0.9844 0.0808
vn -0.0633 -0.0467 0.9969
vn -0.0314 -0.1025 0.9942
vn 0.0292 -0.0006 0.9996
vn 0.1179 0.0381 0.9923
vn 0.1015 -0.9917 -0.0787
vn -0.0001 -0.0033 1.0000
vn 0.0162 -0.9960 -0.0882
vn 0.0935 0.1682 0.9813
vn -0.0869 -0.9962 -0.0000
vn 0.0750 -0.1031 0.9918
vn -0.0887 0.9919 0.0913
vn -0.1052 -0.9944 0.0107
vn -0.0295 0.3131 0.9492
vn 0.0460 0.0016 0.9989
vn 0.1045 0.9885 0.1092
vn -0.0000 0.9904 0.1379
vn 0.1358 0.9878 0.0764
vn -0.1371 0.9877 0.0746
vn 0.0467 -0.0279 0.9985
vn 0.1038 0.9926 0.0636
vn 0.1176 0.0363 0.9924
vn -0.0082 -0.9997 -0.0230
vn 0.0259 -0.9994 -0.0218
vn -0.0288 -0.0021 0.9996
vn -0.0656 0.9930 0.0987
vn -0.0050 -0.0474 0.9989
vn -0.0618 0.0638 0.9960
vn 0.0201 -0.0000 0.9998
vn -0.1052 -0.9945 -0.0000
vn -0.0579 -0.0000 0.9983
vn -0.0256 0.9982 0.0548
vn 0.0428 -0.9939 -0.1014
vn -0.0254 -0.9984 -0.0500
vn -0.0176 -0.9984 -0.0541
vn -0.0457 -0.0103 0.9989
vn -0.0165 -0.0215 0.9996
vn 0.0923 0.9923 0.0829
vn -0.2177 0.1333 0.9669
vn -0.7466 0.3181 0.5843
vt 0.312361 0.089699
vt 0.312721 0.089986
vt 0.312361 0.089986
vt 0.312878 0.089910
vt 0.313117 0.089661
vt 0.313117 0.089910
vt 0.314879 0.087148
vt 0.315239 0.087362
vt 0.314879 0.087362
vt 0.313866 0.088756
vt 0.313975 0.088479
vt 0.313955 0.088766
vt 0.311729 0.093488
vt 0.311706 0.093061
vt 0.311729 0.093061
vt 0.312364 0.087148
vt 0.312445 0.087129
vt 0.312457 0.087148
vt 0.312403 0.088304
vt 0.312383 0.088073
vt 0.312421 0.088073
vt 0.313063 0.088304
vt 0.312765 0.088341
vt 0.312761 0.088304
vt 0.312403 0.087185
vt 0.312487 0.087185
vt 0.313063 0.087185
vt 0.313083 0.087362
vt 0.313046 0.087362
vt 0.311476 0.088442
vt 0.311594 0.088679
vt 0.311493 0.088691
vt 0.314922 0.091424
vt 0.314683 0.091238
vt 0.314922 0.091238
vt 0.312587 0.092382
vt 0.312347 0.092466
vt 0.312347 0.092382
vt 0.312774 0.092108
vt 0.313013 0.091806
vt 0.313013 0.092108
vt 0.315066 0.090304
vt 0.315504 0.089917
vt 0.315504 0.090304
vt 0.316011 0.088995
vt 0.315604 0.088973
vt 0.316031 0.088973
vt 0.314699 0.092946
vt 0.314722 0.093384
vt 0.314699 0.093384
vt 0.316589 0.090889
vt 0.316615 0.091225
vt 0.316589 0.091227
vt 0.313235 0.088479
vt 0.313572 0.088461
vt 0.313573 0.088479
vt 0.316031 0.089346
vt 0.316011 0.089348
vt 0.316229 0.091628
vt 0.316203 0.091555
vt 0.316229 0.091535
vt 0.313576 0.093163
vt 0.313553 0.092776
vt 0.313576 0.092776
vt 0.314866 0.087129
vt 0.315253 0.087110
vt 0.315253 0.087129
vt 0.314449 0.092151
vt 0.314481 0.092233
vt 0.314449 0.092252
vt 0.313608 0.093137
vt 0.313608 0.092774
vt 0.312347 0.089681
vt 0.312734 0.089661
vt 0.312734 0.089681
vt 0.313219 0.088461
vt 0.313572 0.088441
vt 0.314668 0.093371
vt 0.314841 0.093371
vt 0.314873 0.092946
vt 0.314873 0.093384
vt 0.312347 0.087129
vt 0.312445 0.087110
vt 0.314896 0.093384
vt 0.316229 0.090889
vt 0.316615 0.090862
vt 0.316589 0.091628
vt 0.316203 0.091655
vt 0.314481 0.092126
vt 0.314504 0.092233
vt 0.315239 0.087148
vt 0.312721 0.089699
vt 0.313647 0.091378
vt 0.313219 0.091481
vt 0.313219 0.091378
vt 0.317716 0.090733
vt 0.317693 0.090630
vt 0.317716 0.090630
vt 0.314454 0.093498
vt 0.314431 0.093070
vt 0.314454 0.093070
vt 0.317721 0.091655
vt 0.317698 0.091282
vt 0.317721 0.091282
vt 0.315624 0.089766
vt 0.315604 0.089685
vt 0.315624 0.089669
vt 0.316011 0.089766
vt 0.315604 0.089788
vt 0.314823 0.092960
vt 0.314823 0.093371
vt 0.314649 0.092960
vt 0.314649 0.093371
vt 0.313627 0.093137
vt 0.313627 0.092774
vt 0.314431 0.092151
vt 0.314431 0.092252
vt 0.311476 0.089561
vt 0.311629 0.089339
vt 0.311559 0.089561
vt 0.314922 0.090519
vt 0.314683 0.090481
vt 0.314922 0.090481
vt 0.314922 0.091203
vt 0.314683 0.091203
vt 0.314922 0.090739
vt 0.314683 0.090701
vt 0.314922 0.090701
vt 0.311493 0.089100
vt 0.311591 0.088875
vt 0.311621 0.089096
vt 0.311493 0.088729
vt 0.311608 0.088838
vt 0.311493 0.088838
vt 0.313083 0.088118
vt 0.313103 0.088341
vt 0.313046 0.087619
vt 0.313083 0.087822
vt 0.313046 0.087822
vt 0.313046 0.087400
vt 0.313083 0.087581
vt 0.313046 0.087581
vt 0.312421 0.087472
vt 0.312383 0.087434
vt 0.312421 0.087434
vt 0.312421 0.087619
vt 0.312383 0.087581
vt 0.312421 0.087581
vt 0.312383 0.088037
vt 0.312421 0.088037
vt 0.313866 0.089410
vt 0.313975 0.089672
vt 0.313881 0.089672
vt 0.313866 0.089172
vt 0.313955 0.088950
vt 0.313955 0.089175
vt 0.313866 0.088912
vt 0.313955 0.088804
vt 0.313955 0.088912
vt 0.314879 0.088119
vt 0.315239 0.088342
vt 0.314879 0.088342
vt 0.314879 0.087619
vt 0.315239 0.087823
vt 0.314879 0.087823
vt 0.314879 0.087400
vt 0.315239 0.087581
vt 0.314879 0.087581
vt 0.312878 0.090549
vt 0.313117 0.090780
vt 0.312878 0.090780
vt 0.312878 0.090095
vt 0.313117 0.090320
vt 0.312878 0.090320
vt 0.312878 0.089948
vt 0.313117 0.090057
vt 0.312878 0.090057
vt 0.312361 0.090893
vt 0.312721 0.090624
vt 0.312721 0.090893
vt 0.312361 0.090395
vt 0.312721 0.090170
vt 0.312721 0.090395
vt 0.312361 0.090024
vt 0.312721 0.090132
vt 0.312361 0.090132
vt 0.314683 0.090305
vt 0.314922 0.090305
vt 0.311759 0.088660
vt 0.311832 0.088690
vt 0.311582 0.088719
vt 0.313083 0.087400
vt 0.313866 0.088794
vt 0.315239 0.087400
vt 0.313117 0.089948
vt 0.312721 0.090024
vt 0.312361 0.090170
vt 0.313117 0.090095
vt 0.315239 0.087619
vt 0.313866 0.088950
vt 0.312383 0.087472
vt 0.313083 0.087619
vt 0.311762 0.088838
vt 0.312118 0.088838
vt 0.311770 0.088875
vt 0.314683 0.090519
vt 0.312361 0.090589
vt 0.312361 0.090624
vt 0.312878 0.090513
vt 0.313117 0.090549
vt 0.314879 0.088083
vt 0.315239 0.088119
vt 0.313866 0.089374
vt 0.313955 0.089404
vt 0.312383 0.087883
vt 0.312421 0.087883
vt 0.313046 0.088083
vt 0.313046 0.088118
vt 0.311582 0.089301
vt 0.312118 0.089340
vt 0.311835 0.089355
vt 0.314683 0.090987
vt 0.314922 0.090987
vt 0.314965 0.091203
vt 0.314965 0.090987
vt 0.312835 0.090513
vt 0.312835 0.090549
vt 0.314965 0.090701
vt 0.314965 0.090519
vt 0.312835 0.090095
vt 0.312835 0.089910
vt 0.312835 0.089948
vt 0.314965 0.090481
vt 0.314965 0.090305
vt 0.312835 0.090057
vt 0.312835 0.090320
vt 0.312835 0.090780
vt 0.314965 0.090739
vt 0.314965 0.091238
vt 0.312730 0.091806
vt 0.312730 0.092108
vt 0.312630 0.092466
vt 0.312630 0.092382
vt 0.314965 0.091424
vt 0.312835 0.089661
vt 0.312644 0.121156
vt 0.313972 0.120250
vt 0.313972 0.121156
vt 0.312950 0.120434
vt 0.311623 0.122077
vt 0.311623 0.120434
vt 0.314587 0.121428
vt 0.313260 0.120791
vt 0.314587 0.120715
vt 0.315058 0.117745
vt 0.313731 0.119386
vt 0.313731 0.117745
vt 0.316047 0.122898
vt 0.314720 0.122403
vt 0.316047 0.122283
vt 0.316546 0.120933
vt 0.317873 0.121548
vt 0.316546 0.121548
vt 0.315121 0.121563
vt 0.315332 0.123204
vt 0.315121 0.123204
vt 0.313479 0.119814
vt 0.313283 0.119211
vt 0.313479 0.119197
vt 0.312835 0.090359
vt 0.312878 0.090359
vt 0.314965 0.090942
vt 0.314922 0.090942
vt 0.314683 0.090739
vt 0.314683 0.090942
vt 0.312421 0.087844
vt 0.312383 0.087619
vt 0.312383 0.087844
vt 0.312361 0.090434
vt 0.312721 0.090589
vt 0.312721 0.090434
vt 0.313117 0.090513
vt 0.313117 0.090359
vt 0.314879 0.087868
vt 0.315239 0.088083
vt 0.315239 0.087868
vt 0.313866 0.089212
vt 0.313955 0.089368
vt 0.313955 0.089214
vt 0.313046 0.087868
vt 0.313083 0.088083
vt 0.313083 0.087868
vt 0.311493 0.089294
vt 0.311611 0.089137
vt 0.311800 0.089090
vt 0.312118 0.089124
vt 0.311774 0.089133
vt 0.311846 0.121215
vt 0.313173 0.120365
vt 0.313173 0.121215
vt 0.312628 0.122002
vt 0.313955 0.122861
vt 0.312628 0.122861
vt 0.318277 0.119398
vt 0.318041 0.121034
vt 0.318026 0.119392
vt 0.313575 0.089206
vt 0.313633 0.089165
vt 0.313633 0.089207
vt 0.313633 0.089389
vt 0.313575 0.089393
vt 0.312630 0.092162
vt 0.312587 0.092108
vt 0.312630 0.092108
vt 0.312587 0.092162
vt 0.312730 0.092382
vt 0.312774 0.092466
vt 0.312730 0.092466
vt 0.312730 0.092162
vt 0.312774 0.092382
vt 0.313633 0.089425
vt 0.313575 0.089429
vt 0.313575 0.088912
vt 0.313633 0.088950
vt 0.313575 0.088950
vt 0.313633 0.088912
vt 0.313575 0.088764
vt 0.313633 0.088732
vt 0.313633 0.088770
vt 0.313575 0.089163
vt 0.313634 0.089672
vt 0.313573 0.089672
vt 0.314431 0.092516
vt 0.314449 0.092581
vt 0.314431 0.092581
vt 0.314449 0.092516
vt 0.313627 0.092444
vt 0.313608 0.092344
vt 0.313627 0.092344
vt 0.313627 0.092709
vt 0.313608 0.092444
vt 0.315624 0.089348
vt 0.315604 0.089413
vt 0.315604 0.089346
vt 0.315624 0.089411
vt 0.317721 0.090943
vt 0.317698 0.090840
vt 0.317721 0.090840
vt 0.317721 0.091215
vt 0.317698 0.090943
vt 0.317716 0.090358
vt 0.317693 0.090291
vt 0.317716 0.090291
vt 0.317693 0.090358
vt 0.313647 0.091106
vt 0.313219 0.091039
vt 0.313647 0.091039
vt 0.313219 0.091106
vt 0.314481 0.092514
vt 0.314504 0.092584
vt 0.314481 0.092584
vt 0.314504 0.092514
vt 0.312702 0.087129
vt 0.312766 0.087110
vt 0.312766 0.087129
vt 0.312702 0.087110
vt 0.313893 0.088461
vt 0.313991 0.088441
vt 0.313991 0.088461
vt 0.313636 0.088461
vt 0.313893 0.088441
vt 0.313576 0.092426
vt 0.313576 0.092319
vt 0.313576 0.092707
vt 0.313553 0.092319
vt 0.313553 0.092426
vt 0.316229 0.091227
vt 0.316203 0.091290
vt 0.316203 0.091225
vt 0.316229 0.091288
vt 0.316031 0.089685
vt 0.316031 0.089788
vt 0.316011 0.089669
vt 0.316031 0.089413
vt 0.313881 0.088479
vt 0.316615 0.091555
vt 0.316615 0.091655
vt 0.316589 0.091535
vt 0.316615 0.091290
vt 0.315066 0.090762
vt 0.315504 0.090654
vt 0.315504 0.090762
vt 0.315066 0.090654
vt 0.315504 0.090373
vt 0.313013 0.092382
vt 0.313013 0.092466
vt 0.313013 0.092162
vt 0.312347 0.092162
vt 0.312347 0.092108
vt 0.312761 0.087185
vt 0.312704 0.087148
vt 0.312765 0.087148
vt 0.312707 0.087185
vt 0.312457 0.088341
vt 0.312364 0.088341
vt 0.312487 0.088304
vt 0.312704 0.088341
vt 0.313575 0.088726
vt 0.313634 0.088479
vt 0.313255 0.088693
vt 0.313103 0.087148
vt 0.313119 0.087129
vt 0.312587 0.091806
vt 0.312347 0.091806
vt 0.316203 0.090862
vt 0.314449 0.092945
vt 0.314481 0.092970
vt 0.313119 0.087110
vt 0.314504 0.092970
vt 0.313647 0.090666
vt 0.313219 0.090666
vt 0.317693 0.089917
vt 0.317716 0.089917
vt 0.315624 0.088995
vt 0.314431 0.092945
vt 0.313255 0.089449
vt 0.313235 0.089672
vt 0.313255 0.089154
vt 0.313255 0.088912
vt 0.313255 0.088731
vt 0.313255 0.088950
vt 0.313255 0.089414
vt 0.312630 0.091806
vt 0.313255 0.089199
vt 0.312774 0.092162
vt 0.313608 0.092709
vt 0.317698 0.091215
vt 0.313636 0.088441
vt 0.313553 0.092707
vt 0.316011 0.089411
vt 0.316589 0.091288
vt 0.315066 0.090373
vt 0.312707 0.088304
vt 0.314881 0.117856
vt 0.314672 0.119483
vt 0.314672 0.117831
vt 0.313972 0.119420
vt 0.312644 0.119312
vt 0.313972 0.119326
vt 0.314881 0.119508
vt 0.314672 0.119577
vt 0.315058 0.119679
vt 0.313731 0.120426
vt 0.313731 0.119688
vt 0.318277 0.121315
vt 0.318050 0.122012
vt 0.318044 0.121313
vt 0.316047 0.121328
vt 0.314720 0.121020
vt 0.316047 0.121071
vt 0.314881 0.119863
vt 0.314672 0.120413
vt 0.314672 0.119809
vt 0.315332 0.123506
vt 0.315121 0.124319
vt 0.315121 0.123510
vt 0.313283 0.120790
vt 0.313479 0.121030
vt 0.313283 0.121044
vt 0.311778 0.089315
vt 0.311832 0.089131
vt 0.311832 0.089319
vt 0.312628 0.121308
vt 0.313955 0.120982
vt 0.313955 0.121300
vt 0.315058 0.119335
vt 0.312628 0.121033
vt 0.313955 0.119392
vt 0.314720 0.119431
vt 0.316047 0.119431
vt 0.312950 0.122026
vt 0.311623 0.122397
vt 0.313479 0.122675
vt 0.313283 0.122689
vt 0.311779 0.088442
vt 0.311825 0.088652
vt 0.311834 0.088442
vt 0.312118 0.088618
vt 0.312644 0.117684
vt 0.313972 0.117684
vt 0.314587 0.119600
vt 0.313260 0.117959
vt 0.314587 0.117959
vt 0.314587 0.119906
vt 0.313260 0.119598
vt 0.311766 0.088697
vt 0.311823 0.088838
vt 0.311623 0.122431
vt 0.312950 0.123410
vt 0.311623 0.123001
vt 0.313173 0.119666
vt 0.311846 0.119513
vt 0.313173 0.119387
vt 0.311758 0.089091
vt 0.311832 0.088875
vt 0.311846 0.117745
vt 0.313173 0.117745
vt 0.312118 0.089079
vt 0.311779 0.089561
vt 0.311834 0.089561
vt 0.316546 0.119974
vt 0.317873 0.119650
vt 0.317873 0.119949
vt 0.316546 0.118081
vt 0.317873 0.118081
vt 0.312136 0.089561
vt 0.314720 0.121319
vt 0.318277 0.122008
vt 0.318058 0.122863
vt 0.313283 0.119828
vt 0.313479 0.120772
vt 0.311623 0.123907
vt 0.314881 0.120437
vt 0.314672 0.121324
vt 0.315332 0.125032
vt 0.315121 0.125032
vt 0.311846 0.119745
vt 0.313260 0.119938
vt 0.317873 0.120796
vt 0.313955 0.122206
vt 0.315058 0.120670
vt 0.313731 0.121214
vt 0.311559 0.088442
vt 0.312644 0.120596
vt 0.313972 0.119650
vt 0.311781 0.089351
vt 0.312878 0.089661
vt 0.311706 0.093488
vt 0.314683 0.091424
vt 0.312587 0.092466
vt 0.312774 0.091806
vt 0.315066 0.089917
vt 0.314722 0.092946
vt 0.313553 0.093163
vt 0.314866 0.087110
vt 0.312347 0.089661
vt 0.313219 0.088441
vt 0.314668 0.092960
vt 0.314841 0.092960
vt 0.312347 0.087110
vt 0.314896 0.092946
vt 0.314504 0.092126
vt 0.313647 0.091481
vt 0.317693 0.090733
vt 0.314431 0.093498
vt 0.317698 0.091655
vt 0.311493 0.089330
vt 0.311493 0.088875
vt 0.312118 0.088656
vt 0.312118 0.088875
vt 0.312118 0.089375
vt 0.313260 0.121428
vt 0.314720 0.122898
vt 0.315332 0.121563
vt 0.311493 0.089140
vt 0.311846 0.120506
vt 0.318277 0.121039
vt 0.312644 0.119681
vt 0.314881 0.119830
vt 0.315332 0.124244
vt 0.312628 0.119392
vt 0.312950 0.122389
vt 0.312136 0.088442
vt 0.316546 0.119721
vt 0.318277 0.122868
vt 0.312950 0.123907
vt 0.314881 0.121348
vt 0.315058 0.121214
s 0
g shelf_1_B_Material
usemtl Material
f 2/1/1 76/2/1 73/3/1
f 108/4/2 13/5/2 79/6/2
f 12/7/3 74/8/3 75/9/3
f 188/10/4 2/11/4 73/12/4
f 41/13/5 22/14/5 24/15/5
f 9/16/6 153/17/6 135/18/6
f 3/19/7 21/20/7 63/21/7
f 7/22/7 214/23/7 216/24/7
f 4/25/7 135/18/7 143/26/7
f 8/27/7 75/28/7 78/29/7
f 13/30/8 282/31/8 79/32/8
f 99/33/9 72/34/9 103/35/9
f 195/36/10 14/37/10 146/38/10
f 232/39/11 16/40/11 204/41/11
f 225/42/11 56/43/11 212/44/11
f 40/45/12 20/46/12 42/47/12
f 33/48/5 54/49/5 34/50/5
f 11/51/10 218/52/10 214/53/10
f 6/54/13 219/55/13 215/56/13
f 40/45/14 222/57/14 221/58/14
f 1/59/10 155/60/10 137/61/10
f 37/62/7 225/63/7 220/64/7
f 30/65/15 40/66/15 32/67/15
f 45/68/16 163/69/16 175/70/16
f 47/71/17 220/64/17 224/72/17
f 27/73/5 36/74/5 28/75/5
f 32/76/4 221/77/4 219/55/4
f 45/78/18 33/48/18 34/50/18
f 47/79/19 39/80/19 37/81/19
f 28/82/7 161/83/7 153/17/7
f 39/80/15 55/84/15 37/81/15
f 5/85/10 29/86/10 11/51/10
f 10/87/10 26/88/10 1/59/10
f 34/89/4 179/90/4 163/69/4
f 12/7/20 32/67/20 6/91/20
f 2/1/21 28/75/21 9/92/21
f 169/93/10 43/94/10 172/95/10
f 24/96/7 169/97/7 149/98/7
f 20/99/15 44/100/15 42/101/15
f 42/102/4 223/103/4 222/104/4
f 36/105/22 149/106/22 161/107/22
f 35/108/23 24/109/23 36/105/23
f 31/110/15 47/79/15 29/111/15
f 25/112/5 45/78/5 26/113/5
f 29/114/7 224/72/7 218/115/7
f 26/116/4 175/70/4 155/117/4
f 14/118/24 279/119/24 146/120/24
f 101/121/5 80/122/5 107/123/5
f 112/124/25 72/34/25 96/125/25
f 102/126/5 88/127/5 110/128/5
f 125/129/26 281/130/26 268/131/26
f 67/132/27 270/133/27 87/134/27
f 7/22/7 57/135/7 11/136/7
f 65/137/7 117/138/7 123/139/7
f 64/140/7 83/141/7 86/142/7
f 61/143/7 76/144/7 77/145/7
f 62/146/7 82/147/7 85/148/7
f 63/21/7 92/149/7 93/150/7
f 182/151/4 1/152/4 137/153/4
f 200/154/4 52/155/4 114/156/4
f 190/157/4 49/158/4 84/159/4
f 57/160/28 5/161/28 11/162/28
f 17/163/15 115/164/15 117/165/15
f 18/166/15 81/167/15 83/168/15
f 104/169/29 14/170/29 98/171/29
f 105/172/30 125/173/30 131/174/30
f 106/175/31 87/176/31 109/177/31
f 1/178/32 21/179/32 10/180/32
f 114/181/5 23/182/5 119/183/5
f 49/184/5 82/185/5 84/186/5
f 4/25/7 76/144/7 9/16/7
f 107/123/33 16/187/33 100/188/33
f 237/189/34 254/190/34 274/191/34
f 78/29/7 18/192/7 64/140/7
f 186/193/4 73/12/4 49/158/4
f 75/9/15 58/194/15 18/166/15
f 106/175/35 79/6/35 67/195/35
f 73/3/5 51/196/5 49/184/5
f 52/197/5 82/185/5 23/182/5
f 109/177/36 68/198/36 105/172/36
f 83/168/15 59/199/15 17/163/15
f 190/157/4 52/155/4 184/200/4
f 85/148/7 51/201/7 61/143/7
f 86/142/7 17/202/7 65/137/7
f 262/203/37 88/204/37 239/205/37
f 110/128/5 70/206/5 101/121/5
f 91/207/5 21/179/5 50/208/5
f 111/209/15 69/210/15 104/169/15
f 90/211/15 60/212/15 57/160/15
f 192/213/4 50/214/4 182/151/4
f 93/150/7 120/215/7 122/216/7
f 94/217/7 57/135/7 66/218/7
f 273/219/38 96/220/38 266/221/38
f 112/124/39 128/222/39 129/223/39
f 94/224/5 129/223/5 124/225/5
f 93/226/15 104/169/15 63/227/15
f 86/228/5 101/121/5 64/229/5
f 62/230/40 109/177/40 105/172/40
f 77/231/15 106/175/15 61/232/15
f 78/233/33 100/188/33 8/234/33
f 85/235/41 106/175/41 109/177/41
f 121/236/42 105/172/42 131/174/42
f 63/227/29 98/171/29 3/237/29
f 65/238/5 110/128/5 86/228/5
f 66/239/43 112/124/43 94/224/43
f 64/229/5 107/123/5 78/233/5
f 8/240/11 232/39/11 203/241/11
f 3/242/10 195/36/10 142/243/10
f 7/244/9 103/35/9 66/239/9
f 4/245/44 108/4/44 77/231/44
f 79/246/45 275/247/45 108/248/45
f 70/249/46 259/250/46 101/251/46
f 109/252/47 270/253/47 276/254/47
f 71/255/48 256/256/48 102/257/48
f 111/258/49 273/259/49 272/260/49
f 269/261/50 69/262/50 104/263/50
f 110/264/51 256/265/51 261/266/51
f 272/267/52 104/268/52 111/269/52
f 122/270/15 111/209/15 93/226/15
f 122/270/53 131/174/53 132/271/53
f 123/272/5 102/126/5 65/238/5
f 124/225/5 130/273/5 123/272/5
f 130/273/5 71/274/5 102/126/5
f 129/223/5 127/275/5 130/273/5
f 121/276/7 23/277/7 62/146/7
f 122/216/7 119/278/7 121/276/7
f 113/279/5 92/280/5 91/207/5
f 114/181/5 120/281/5 113/279/5
f 132/271/15 95/282/15 111/209/15
f 131/174/53 126/283/53 132/271/53
f 118/284/15 89/285/15 90/211/15
f 117/165/15 116/286/15 118/284/15
f 198/287/4 91/288/4 192/213/4
f 198/287/4 114/156/4 113/289/4
f 124/290/7 90/291/7 94/217/7
f 123/139/7 118/292/7 124/290/7
f 95/293/54 280/294/54 273/219/54
f 264/295/55 128/296/55 244/297/55
f 125/298/56 271/299/56 131/300/56
f 277/301/57 126/302/57 132/303/57
f 129/304/58 260/305/58 130/306/58
f 233/307/4 199/308/4 197/309/4
f 197/309/4 200/154/4 198/287/4
f 233/307/4 191/310/4 231/311/4
f 197/309/4 192/213/4 191/310/4
f 141/312/10 213/313/10 216/314/10
f 142/243/10 196/315/10 141/312/10
f 143/316/11 97/317/11 4/318/11
f 144/319/11 194/320/11 143/316/11
f 231/311/4 181/321/4 226/322/4
f 191/310/4 182/151/4 181/321/4
f 230/323/4 183/324/4 227/325/4
f 189/326/4 184/200/4 183/324/4
f 228/327/4 187/328/4 185/329/4
f 185/329/4 188/10/4 186/193/4
f 230/323/4 185/329/4 189/326/4
f 189/326/4 186/193/4 190/157/4
f 234/330/4 183/324/4 199/308/4
f 199/308/4 184/200/4 200/154/4
f 226/322/4 138/331/4 202/332/4
f 181/321/4 137/153/4 138/331/4
f 156/333/4 211/334/4 207/335/4
f 155/117/4 176/336/4 156/333/4
f 152/337/7 48/338/7 25/339/7
f 151/340/7 174/341/7 152/337/7
f 208/342/22 150/343/22 205/344/22
f 161/107/22 150/343/22 162/345/22
f 168/346/4 43/347/4 41/348/4
f 167/349/4 172/350/4 168/346/4
f 150/351/7 210/352/7 205/353/7
f 149/98/7 170/354/7 150/351/7
f 170/355/10 223/356/10 210/357/10
f 169/93/10 171/358/10 170/355/10
f 164/359/4 212/360/4 209/361/4
f 163/69/4 180/362/4 164/359/4
f 154/363/7 208/364/7 206/365/7
f 153/17/7 162/366/7 154/363/7
f 158/367/4 35/368/4 27/369/4
f 157/370/4 166/371/4 158/367/4
f 48/338/17 160/372/17 33/373/17
f 174/341/59 159/374/59 160/372/59
f 211/334/16 164/359/16 209/361/16
f 175/70/60 164/359/60 176/336/60
f 160/372/7 53/375/7 33/373/7
f 159/374/7 178/376/7 160/372/7
f 202/377/10 156/378/10 207/379/10
f 137/61/10 156/378/10 138/380/10
f 35/108/14 168/381/14 41/382/14
f 166/383/14 167/384/14 168/381/14
f 2/11/13 158/367/13 27/369/13
f 140/385/13 157/370/13 158/367/13
f 10/87/10 152/386/10 25/387/10
f 134/388/10 151/389/10 152/386/10
f 53/390/11 179/391/11 54/392/11
f 178/393/11 180/394/11 179/391/11
f 97/317/11 147/395/11 13/396/11
f 194/320/61 148/397/61 147/395/61
f 213/313/10 145/398/10 217/399/10
f 196/315/10 146/38/10 145/398/10
f 203/400/7 136/401/7 201/402/7
f 143/26/7 136/401/7 144/403/7
f 3/19/7 134/404/7 10/405/7
f 142/406/7 133/407/7 134/404/7
f 201/402/6 154/363/6 206/365/6
f 135/18/6 154/363/6 136/401/6
f 229/408/4 139/409/4 187/328/4
f 187/328/4 140/385/4 188/10/4
f 74/410/4 215/56/4 229/408/4
f 12/411/6 206/365/6 30/412/6
f 8/27/7 201/402/7 12/411/7
f 99/413/10 217/399/10 15/414/10
f 5/85/10 207/379/10 31/415/10
f 46/416/60 209/361/60 39/417/60
f 206/365/7 38/418/7 30/412/7
f 209/361/4 56/419/4 39/417/4
f 19/420/10 223/356/10 44/421/10
f 205/353/7 19/422/7 20/423/7
f 38/424/22 205/344/22 20/46/22
f 207/335/4 46/416/4 31/425/4
f 60/426/4 202/332/4 5/427/4
f 115/428/4 227/325/4 234/330/4
f 81/429/4 228/327/4 230/323/4
f 58/430/4 229/408/4 228/327/4
f 81/429/4 227/325/4 59/431/4
f 89/432/4 226/322/4 60/426/4
f 216/314/10 99/413/10 7/433/10
f 116/434/4 231/311/4 89/432/4
f 116/434/4 234/330/4 233/307/4
f 203/241/11 193/435/11 144/319/11
f 218/115/7 173/436/7 151/340/7
f 222/104/4 171/437/4 167/349/4
f 219/55/4 165/438/4 157/370/4
f 224/72/17 159/374/17 173/436/17
f 220/64/7 177/439/7 159/374/7
f 221/58/14 167/384/14 165/440/14
f 215/56/13 157/370/13 139/409/13
f 214/53/10 151/389/10 133/441/10
f 177/442/11 212/44/11 180/394/11
f 193/435/62 204/41/62 148/397/62
f 216/24/7 133/407/7 141/443/7
f 101/444/63 258/445/63 107/446/63
f 235/447/64 245/448/64 258/449/64
f 259/450/65 235/451/65 258/445/65
f 239/452/66 278/453/66 238/454/66
f 249/455/67 271/456/67 247/457/67
f 240/458/68 250/459/68 253/460/68
f 246/461/69 275/462/69 235/463/69
f 238/464/70 276/465/70 248/466/70
f 242/467/71 253/468/71 255/469/71
f 241/470/72 257/471/72 250/472/72
f 249/473/73 257/474/73 244/475/73
f 250/472/74 128/296/74 96/220/74
f 251/476/75 238/454/75 256/256/75
f 260/305/76 249/455/76 247/457/76
f 252/477/77 128/478/77 257/474/77
f 256/265/78 248/466/78 261/266/78
f 253/460/79 96/479/79 112/480/79
f 254/481/80 246/482/80 259/250/80
f 255/469/81 112/483/81 103/484/81
f 148/485/82 245/486/82 237/189/82
f 204/487/7 80/488/7 245/486/7
f 258/449/83 80/489/83 107/490/83
f 261/491/84 88/492/84 110/493/84
f 248/494/85 236/495/85 261/491/85
f 243/496/86 236/497/86 262/203/86
f 246/498/87 274/499/87 267/500/87
f 254/190/7 88/204/7 236/497/7
f 247/501/88 264/502/88 260/503/88
f 263/504/89 251/505/89 264/295/89
f 260/503/90 127/506/90 130/507/90
f 251/505/91 127/508/91 264/295/91
f 145/509/92 266/221/92 217/510/92
f 242/511/93 266/512/93 265/513/93
f 266/512/94 103/514/94 72/515/94
f 266/221/92 15/516/92 217/510/92
f 272/260/95 241/517/95 240/458/95
f 274/191/96 262/203/96 270/133/96
f 277/518/97 131/519/97 271/456/97
f 269/520/98 240/521/98 242/467/98
f 274/499/87 106/522/87 267/500/87
f 267/523/99 108/524/99 275/462/99
f 276/465/100 105/525/100 109/526/100
f 271/299/101 263/527/101 247/501/101
f 276/254/102 262/528/102 248/494/102
f 269/261/103 265/513/103 279/529/103
f 277/301/104 244/475/104 280/530/104
f 281/531/105 105/532/105 278/453/105
f 268/131/106 239/205/106 263/504/106
f 147/533/107 237/189/107 282/31/107
f 282/534/108 235/535/108 275/247/108
f 273/219/109 244/297/109 241/470/109
f 146/120/110 265/536/110 145/509/110
f 2/1/1 9/92/1 76/2/1
f 108/4/44 97/537/44 13/5/44
f 12/7/3 6/91/3 74/8/3
f 188/10/4 140/385/4 2/11/4
f 41/13/5 43/538/5 22/14/5
f 9/16/111 28/82/111 153/17/111
f 3/19/7 10/405/7 21/20/7
f 7/22/7 11/136/7 214/23/7
f 4/25/7 9/16/7 135/18/7
f 8/27/7 12/411/7 75/28/7
f 13/30/112 147/533/112 282/31/112
f 99/33/9 15/539/9 72/34/9
f 195/36/10 98/540/10 14/37/10
f 232/39/11 100/541/11 16/40/11
f 225/42/11 55/542/11 56/43/11
f 40/45/12 38/424/12 20/46/12
f 33/48/5 53/543/5 54/49/5
f 11/51/10 29/86/10 218/52/10
f 6/54/13 32/76/13 219/55/13
f 40/45/14 42/47/14 222/57/14
f 1/59/10 26/88/10 155/60/10
f 37/62/7 55/544/7 225/63/7
f 30/65/15 38/545/15 40/66/15
f 45/68/60 34/89/60 163/69/60
f 47/71/59 37/62/59 220/64/59
f 27/73/5 35/546/5 36/74/5
f 32/76/4 40/547/4 221/77/4
f 45/78/18 48/548/18 33/48/18
f 47/79/19 46/549/19 39/80/19
f 28/82/7 36/550/7 161/83/7
f 39/80/15 56/551/15 55/84/15
f 5/85/10 31/415/10 29/86/10
f 10/87/10 25/387/10 26/88/10
f 34/89/4 54/552/4 179/90/4
f 12/7/20 30/65/20 32/67/20
f 2/1/21 27/73/21 28/75/21
f 169/93/10 22/553/10 43/94/10
f 24/96/7 22/554/7 169/97/7
f 20/99/15 19/555/15 44/100/15
f 42/102/4 44/556/4 223/103/4
f 36/105/22 24/109/22 149/106/22
f 35/108/113 41/382/113 24/109/113
f 31/110/15 46/549/15 47/79/15
f 25/112/5 48/548/5 45/78/5
f 29/114/7 47/71/7 224/72/7
f 26/116/4 45/68/4 175/70/4
f 14/118/114 69/557/114 279/119/114
f 101/121/5 70/206/5 80/122/5
f 112/124/115 103/35/115 72/34/115
f 102/126/5 71/274/5 88/127/5
f 125/129/116 68/558/116 281/130/116
f 67/132/117 274/191/117 270/133/117
f 7/22/7 66/218/7 57/135/7
f 65/137/7 17/202/7 117/138/7
f 64/140/7 18/192/7 83/141/7
f 61/143/7 51/201/7 76/144/7
f 62/146/7 23/277/7 82/147/7
f 63/21/7 21/20/7 92/149/7
f 182/151/4 50/214/4 1/152/4
f 200/154/4 184/200/4 52/155/4
f 190/157/4 186/193/4 49/158/4
f 57/160/28 60/212/28 5/161/28
f 17/163/15 59/199/15 115/164/15
f 18/166/15 58/194/15 81/167/15
f 104/169/29 69/210/29 14/170/29
f 105/172/118 68/198/118 125/173/118
f 106/175/119 67/195/119 87/176/119
f 1/178/32 50/208/32 21/179/32
f 114/181/5 52/197/5 23/182/5
f 49/184/5 51/196/5 82/185/5
f 4/25/7 77/145/7 76/144/7
f 107/123/33 80/122/33 16/187/33
f 274/191/120 67/132/120 79/32/120
f 79/32/4 282/31/4 237/189/4
f 237/189/121 245/486/121 80/488/121
f 80/488/7 70/559/7 254/190/7
f 254/190/122 243/496/122 274/191/122
f 274/191/123 79/32/123 237/189/123
f 237/189/124 80/488/124 254/190/124
f 78/29/7 75/28/7 18/192/7
f 186/193/4 188/10/4 73/12/4
f 75/9/15 74/8/15 58/194/15
f 106/175/125 108/4/125 79/6/125
f 73/3/5 76/2/5 51/196/5
f 52/197/5 84/186/5 82/185/5
f 109/177/126 87/176/126 68/198/126
f 83/168/15 81/167/15 59/199/15
f 190/157/4 84/159/4 52/155/4
f 85/148/7 82/147/7 51/201/7
f 86/142/7 83/141/7 17/202/7
f 281/130/127 68/558/127 87/134/127
f 281/130/128 87/134/128 270/133/128
f 71/560/129 251/505/129 239/205/129
f 239/205/130 281/130/130 270/133/130
f 262/203/131 236/497/131 88/204/131
f 239/205/132 270/133/132 262/203/132
f 88/204/133 71/560/133 239/205/133
f 110/128/5 88/127/5 70/206/5
f 91/207/5 92/280/5 21/179/5
f 111/209/15 95/282/15 69/210/15
f 90/211/15 89/285/15 60/212/15
f 192/213/4 91/288/4 50/214/4
f 93/150/7 92/149/7 120/215/7
f 94/217/7 90/291/7 57/135/7
f 279/119/134 69/557/134 95/293/134
f 273/219/135 241/470/135 250/472/135
f 279/119/136 95/293/136 273/219/136
f 266/221/137 265/536/137 279/119/137
f 96/220/138 72/561/138 266/221/138
f 273/219/139 250/472/139 96/220/139
f 266/221/140 279/119/140 273/219/140
f 112/124/141 96/125/141 128/222/141
f 94/224/142 112/124/142 129/223/142
f 93/226/15 111/209/15 104/169/15
f 86/228/5 110/128/5 101/121/5
f 62/230/143 85/235/143 109/177/143
f 77/231/15 108/4/15 106/175/15
f 78/233/33 107/123/33 100/188/33
f 85/235/15 61/232/15 106/175/15
f 121/236/144 62/230/144 105/172/144
f 63/227/29 104/169/29 98/171/29
f 65/238/5 102/126/5 110/128/5
f 66/239/115 103/35/115 112/124/115
f 64/229/5 101/121/5 107/123/5
f 8/240/11 100/541/11 232/39/11
f 3/242/10 98/540/10 195/36/10
f 7/244/9 99/33/9 103/35/9
f 4/245/44 97/537/44 108/4/44
f 79/246/145 282/534/145 275/247/145
f 70/249/146 254/481/146 259/250/146
f 109/252/147 87/562/147 270/253/147
f 71/255/148 251/476/148 256/256/148
f 111/258/149 95/563/149 273/259/149
f 269/261/103 279/529/103 69/262/103
f 110/264/150 102/564/150 256/265/150
f 272/267/52 269/520/52 104/268/52
f 122/270/15 132/271/15 111/209/15
f 122/270/151 121/236/151 131/174/151
f 123/272/5 130/273/5 102/126/5
f 124/225/5 129/223/5 130/273/5
f 130/273/5 127/275/5 71/274/5
f 129/223/5 128/222/5 127/275/5
f 121/276/7 119/278/7 23/277/7
f 122/216/7 120/215/7 119/278/7
f 113/279/5 120/281/5 92/280/5
f 114/181/5 119/183/5 120/281/5
f 132/271/15 126/283/15 95/282/15
f 131/174/152 125/173/152 126/283/152
f 118/284/15 116/286/15 89/285/15
f 117/165/15 115/164/15 116/286/15
f 198/287/4 113/289/4 91/288/4
f 198/287/4 200/154/4 114/156/4
f 124/290/7 118/292/7 90/291/7
f 123/139/7 117/138/7 118/292/7
f 95/293/153 126/565/153 280/294/153
f 280/294/153 126/565/153 125/129/153
f 125/129/154 268/131/154 263/504/154
f 264/295/155 127/508/155 128/296/155
f 125/129/156 263/504/156 264/295/156
f 244/297/153 280/294/153 125/129/153
f 128/296/157 257/471/157 244/297/157
f 244/297/158 125/129/158 264/295/158
f 125/298/159 268/566/159 271/299/159
f 277/301/104 280/530/104 126/302/104
f 129/304/160 252/567/160 260/305/160
f 233/307/4 234/330/4 199/308/4
f 197/309/4 199/308/4 200/154/4
f 233/307/4 197/309/4 191/310/4
f 197/309/4 198/287/4 192/213/4
f 141/312/10 196/315/10 213/313/10
f 142/243/10 195/36/10 196/315/10
f 143/316/11 194/320/11 97/317/11
f 144/319/11 193/435/11 194/320/11
f 231/311/4 191/310/4 181/321/4
f 191/310/4 192/213/4 182/151/4
f 230/323/4 189/326/4 183/324/4
f 189/326/4 190/157/4 184/200/4
f 228/327/4 229/408/4 187/328/4
f 185/329/4 187/328/4 188/10/4
f 230/323/4 228/327/4 185/329/4
f 189/326/4 185/329/4 186/193/4
f 234/330/4 227/325/4 183/324/4
f 199/308/4 183/324/4 184/200/4
f 226/322/4 181/321/4 138/331/4
f 181/321/4 182/151/4 137/153/4
f 156/333/4 176/336/4 211/334/4
f 155/117/4 175/70/4 176/336/4
f 152/337/7 174/341/7 48/338/7
f 151/340/7 173/436/7 174/341/7
f 208/342/22 162/345/22 150/343/22
f 161/107/22 149/106/22 150/343/22
f 168/346/4 172/350/4 43/347/4
f 167/349/4 171/437/4 172/350/4
f 150/351/7 170/354/7 210/352/7
f 149/98/7 169/97/7 170/354/7
f 170/355/10 171/358/10 223/356/10
f 169/93/10 172/95/10 171/358/10
f 164/359/4 180/362/4 212/360/4
f 163/69/4 179/90/4 180/362/4
f 154/363/7 162/366/7 208/364/7
f 153/17/7 161/83/7 162/366/7
f 158/367/4 166/371/4 35/368/4
f 157/370/4 165/438/4 166/371/4
f 48/338/59 174/341/59 160/372/59
f 174/341/17 173/436/17 159/374/17
f 211/334/60 176/336/60 164/359/60
f 175/70/16 163/69/16 164/359/16
f 160/372/7 178/376/7 53/375/7
f 159/374/7 177/439/7 178/376/7
f 202/377/10 138/380/10 156/378/10
f 137/61/10 155/60/10 156/378/10
f 35/108/14 166/383/14 168/381/14
f 166/383/14 165/440/14 167/384/14
f 2/11/13 140/385/13 158/367/13
f 140/385/13 139/409/13 157/370/13
f 10/87/10 134/388/10 152/386/10
f 134/388/10 133/441/10 151/389/10
f 53/390/11 178/393/11 179/391/11
f 178/393/11 177/442/11 180/394/11
f 97/317/11 194/320/11 147/395/11
f 194/320/161 193/435/161 148/397/161
f 213/313/10 196/315/10 145/398/10
f 196/315/10 195/36/10 146/38/10
f 203/400/7 144/403/7 136/401/7
f 143/26/7 135/18/7 136/401/7
f 3/19/7 142/406/7 134/404/7
f 142/406/7 141/443/7 133/407/7
f 201/402/6 136/401/6 154/363/6
f 135/18/6 153/17/6 154/363/6
f 229/408/4 215/56/4 139/409/4
f 187/328/4 139/409/4 140/385/4
f 74/410/4 6/54/4 215/56/4
f 12/411/6 201/402/6 206/365/6
f 8/27/7 203/400/7 201/402/7
f 99/413/10 213/313/10 217/399/10
f 5/85/10 202/377/10 207/379/10
f 46/416/16 211/334/16 209/361/16
f 206/365/7 208/364/7 38/418/7
f 209/361/4 212/360/4 56/419/4
f 19/420/10 210/357/10 223/356/10
f 205/353/7 210/352/7 19/422/7
f 38/424/22 208/342/22 205/344/22
f 207/335/4 211/334/4 46/416/4
f 60/426/4 226/322/4 202/332/4
f 115/428/4 59/431/4 227/325/4
f 81/429/4 58/430/4 228/327/4
f 58/430/4 74/410/4 229/408/4
f 81/429/4 230/323/4 227/325/4
f 89/432/4 231/311/4 226/322/4
f 216/314/10 213/313/10 99/413/10
f 116/434/4 233/307/4 231/311/4
f 116/434/4 115/428/4 234/330/4
f 203/241/11 232/39/11 193/435/11
f 218/115/7 224/72/7 173/436/7
f 222/104/4 223/103/4 171/437/4
f 219/55/4 221/77/4 165/438/4
f 224/72/17 220/64/17 159/374/17
f 220/64/7 225/63/7 177/439/7
f 221/58/14 222/57/14 167/384/14
f 215/56/13 219/55/13 157/370/13
f 214/53/10 218/52/10 151/389/10
f 177/442/11 225/42/11 212/44/11
f 193/435/11 232/39/11 204/41/11
f 216/24/7 214/23/7 133/407/7
f 101/444/162 259/450/162 258/445/162
f 235/447/163 237/568/163 245/448/163
f 259/450/164 246/569/164 235/451/164
f 239/452/165 281/531/165 278/453/165
f 249/455/166 277/518/166 271/456/166
f 240/458/167 241/517/167 250/459/167
f 246/461/168 267/523/168 275/462/168
f 238/464/169 278/570/169 276/465/169
f 242/467/170 240/521/170 253/468/170
f 241/470/171 244/297/171 257/471/171
f 249/473/172 252/477/172 257/474/172
f 250/472/173 257/471/173 128/296/173
f 251/476/174 239/452/174 238/454/174
f 260/305/175 252/567/175 249/455/175
f 252/477/176 129/571/176 128/478/176
f 256/265/177 238/464/177 248/466/177
f 253/460/178 250/459/178 96/479/178
f 254/481/179 243/572/179 246/482/179
f 255/469/180 253/468/180 112/483/180
f 148/485/181 204/487/181 245/486/181
f 204/487/7 16/573/7 80/488/7
f 258/449/182 245/448/182 80/489/182
f 261/491/183 236/495/183 88/492/183
f 248/494/184 262/528/184 236/495/184
f 243/496/7 254/190/7 236/497/7
f 246/498/179 243/572/179 274/499/179
f 254/190/7 70/559/7 88/204/7
f 247/501/185 263/527/185 264/502/185
f 263/504/186 239/205/186 251/505/186
f 260/503/187 264/502/187 127/506/187
f 251/505/7 71/560/7 127/508/7
f 145/509/188 265/536/188 266/221/188
f 242/511/189 255/574/189 266/512/189
f 266/512/190 255/574/190 103/514/190
f 266/221/191 72/561/191 15/516/191
f 272/260/192 273/259/192 241/517/192
f 274/191/193 243/496/193 262/203/193
f 277/518/194 132/575/194 131/519/194
f 269/520/195 272/267/195 240/521/195
f 274/499/196 67/576/196 106/522/196
f 267/523/197 106/577/197 108/524/197
f 276/465/169 278/570/169 105/525/169
f 271/299/159 268/566/159 263/527/159
f 276/254/198 270/253/198 262/528/198
f 269/261/199 242/511/199 265/513/199
f 277/301/200 249/473/200 244/475/200
f 281/531/201 68/578/201 105/532/201
f 268/131/202 281/130/202 239/205/202
f 147/533/203 148/485/203 237/189/203
f 282/534/204 237/568/204 235/535/204
f 273/219/205 280/294/205 244/297/205
f 146/120/206 279/119/206 265/536/206
