# Blender 4.2.0
# www.blender.org
mtllib axe_b.mtl
g axe_b_Mesh
v 0.013596 0.018817 -0.062627
v -0.016031 0.018817 -0.062627
v 0.013596 0.119861 -0.062627
v -0.016031 0.119861 -0.062627
v 0.006387 -0.053338 0.106943
v -0.008822 -0.053338 0.106943
v 0.013596 0.119861 0.116412
v 0.013596 0.119861 0.056676
v 0.013596 0.119861 0.010647
v 0.013596 0.119861 -0.040500
v -0.016031 0.108960 -0.040500
v -0.016031 0.119861 0.010647
v -0.009171 0.109680 0.056676
v 0.013596 0.029653 -0.040500
v 0.013596 0.033528 0.010438
v 0.013596 0.021329 0.060639
v -0.016031 0.021329 0.060639
v -0.016031 0.033528 0.010438
v -0.016031 0.029653 -0.040500
v 0.013596 0.029962 -0.089163
v -0.016031 0.023376 -0.089163
v 0.013596 0.119861 -0.089163
v -0.016031 0.098774 -0.089163
v 0.013596 0.094670 -0.062627
v 0.013596 0.066782 -0.062627
v 0.013596 0.046705 -0.062627
v -0.016031 0.046705 -0.062627
v -0.016031 0.066782 -0.062627
v -0.016031 0.094670 -0.062627
v 0.001475 -0.021568 0.115913
v 0.003750 0.038741 0.125125
v 0.013596 0.083278 0.123387
v -0.009171 0.083278 0.123387
v -0.006185 0.038741 0.125125
v -0.003910 -0.021568 0.115913
v -0.008926 0.096575 0.064691
v -0.016031 0.064509 0.060556
v -0.016031 0.053421 0.060347
v -0.001218 0.000224 0.012371
v -0.016031 0.000224 0.008996
v 0.013596 0.000224 0.008996
v 0.013596 -0.004869 -0.046648
v -0.016031 -0.004869 -0.046648
v -0.001218 -0.004869 -0.054928
v -0.001218 0.124210 0.010647
v -0.001218 0.124210 -0.040500
v -0.016031 0.124210 0.010647
v -0.016031 0.113309 -0.040500
v 0.013596 0.124210 -0.040500
v 0.013596 0.124210 0.010647
v 0.013596 0.090675 0.061182
v 0.013596 0.064509 0.060556
v 0.013596 0.053421 0.060347
v 0.013596 0.092395 -0.089163
v 0.013596 0.075208 -0.089163
v 0.013596 0.054418 -0.089163
v -0.016031 0.054418 -0.089163
v -0.016031 0.075208 -0.089163
v -0.016031 0.092395 -0.089163
v 0.013596 -0.011990 0.090078
v 0.013596 0.119861 0.082775
v -0.016031 -0.011990 0.090078
v -0.009171 0.073314 0.088814
v -0.005010 0.019430 0.113435
v -0.006441 0.004296 0.115779
v 0.013596 0.086958 0.088814
v 0.002574 0.019430 0.113435
v 0.004006 0.004296 0.115779
v -0.001218 0.018817 -0.062627
v -0.001218 0.119861 -0.062627
v 0.004353 0.108069 0.127784
v -0.001218 -0.073524 0.118941
v -0.001218 0.021329 0.060639
v -0.001218 0.033528 0.014115
v -0.001218 0.029653 -0.040500
v -0.001218 0.119861 -0.040500
v -0.001218 0.119861 0.010647
v 0.008636 0.119861 0.056676
v -0.001218 0.029962 -0.089163
v -0.001218 0.110927 -0.089163
v -0.001218 0.054418 -0.089163
v -0.001218 0.075208 -0.089163
v -0.001218 0.092395 -0.089163
v 0.003221 0.089907 0.135802
v 0.002684 0.071618 0.141087
v -0.001218 -0.030099 0.127702
v -0.001218 -0.011990 0.090078
v 0.008636 0.119861 0.082775
v 0.013596 0.119861 -0.047418
v -0.016031 0.027479 -0.049220
v -0.016031 0.108960 -0.047418
v 0.013596 0.027479 -0.049220
v 0.013596 0.098015 -0.047057
v 0.013596 0.071669 -0.047057
v 0.013596 0.052383 -0.047057
v -0.016031 0.098015 -0.047057
v -0.016031 0.071669 -0.047057
v -0.016031 0.052383 -0.047057
v -0.001218 0.119861 -0.047418
v -0.001218 0.027479 -0.049220
v 0.013596 0.119861 0.017603
v -0.016031 0.119861 0.017603
v 0.013596 0.032351 0.017797
v -0.016031 0.032351 0.017797
v 0.013596 0.096203 0.018038
v 0.013596 0.070400 0.017977
v 0.013596 0.058726 0.017769
v -0.016031 0.096203 0.018038
v -0.016031 0.070400 0.017977
v -0.016031 0.058726 0.017769
v -0.001218 0.119861 0.017603
v -0.001218 0.032351 0.023015
v 0.027013 -0.445990 -0.021245
v 0.032706 -0.416929 0.017172
v -0.010411 -0.430977 0.036895
v -0.009326 -0.434926 -0.005207
v 0.013905 -0.407775 0.025835
v -0.002001 -0.461204 -0.023185
v 0.019354 0.119861 0.012818
v 0.019354 0.119861 0.007032
v 0.019354 0.119861 -0.036882
v -0.021789 0.108960 -0.042636
v -0.021789 0.108960 -0.036882
v -0.021789 0.119861 0.007032
v 0.019354 0.027479 -0.044134
v 0.019354 0.029653 -0.036882
v 0.019354 0.033528 0.006860
v -0.021789 0.032351 0.012979
v -0.021789 0.033528 0.006860
v -0.021789 0.029653 -0.036882
v -0.027018 0.059292 0.003901
v -0.027018 0.042915 -0.034406
v 0.023711 0.054456 -0.034406
v 0.023711 0.059292 0.003901
v -0.027018 0.096794 0.004052
v -0.021789 0.071029 0.007032
v -0.027018 0.097754 -0.034406
v -0.027018 0.061409 -0.034406
v 0.023711 0.097754 -0.034406
v 0.023711 0.072951 -0.034406
v 0.023711 0.096794 0.004052
v 0.023711 0.071029 0.004052
v 0.019354 0.096203 0.013180
v 0.019354 0.070400 0.013129
v 0.019354 0.058726 0.012956
v -0.021789 0.098015 -0.042336
v -0.021789 0.060127 -0.042336
v -0.021789 0.040841 -0.042336
v 0.019354 0.119861 -0.042636
v -0.021789 0.027479 -0.044134
v 0.019354 0.098015 -0.042336
v 0.019354 0.071669 -0.042336
v 0.019354 0.052383 -0.042336
v -0.021789 0.119861 0.012818
v 0.019354 0.032351 0.012979
v -0.021789 0.096203 0.013180
v -0.021789 0.070400 0.013129
v -0.021789 0.058726 0.012956
v -0.001218 -0.157887 -0.044331
v -0.001218 -0.301823 -0.064904
v -0.001218 -0.386412 -0.058500
v 0.013596 -0.157887 -0.037887
v 0.013596 -0.301823 -0.054898
v 0.020714 -0.388445 -0.054149
v 0.019287 -0.150044 0.001955
v 0.010205 -0.275232 -0.005752
v 0.024643 -0.369907 -0.004171
v -0.016031 -0.154012 0.013322
v -0.016031 -0.297948 -0.003780
v -0.009030 -0.383518 0.003689
v -0.013756 -0.385315 -0.027619
v -0.016031 -0.301823 -0.054898
v -0.016031 -0.157887 -0.037887
v -0.001218 -0.382536 0.003216
v -0.005364 -0.301935 0.002287
v -0.001218 -0.154012 0.018997
v 0.024714 -0.454726 -0.007427
v 0.030873 -0.429284 0.028051
v -0.001322 -0.440075 0.040075
v -0.009287 -0.451780 0.012362
v 0.005494 -0.448951 0.040749
v -0.000029 -0.462980 0.003481
v -0.016031 0.022415 -0.045660
v -0.001218 0.026899 0.013453
v -0.001218 0.022415 -0.053732
v 0.013596 0.022415 -0.045660
v 0.013596 0.026899 0.009891
v -0.016031 0.026899 0.009891
v -0.001514 0.090653 0.113681
v -0.001514 0.088528 0.078026
v -0.001514 0.090541 0.098288
vn -1.0000 -0.0000 -0.0000
vn -0.9006 -0.0860 0.4261
vn -0.0000 -0.8399 0.5427
vn 0.9139 -0.0874 0.3964
vn -0.9526 0.2013 0.2279
vn -0.6417 0.0008 0.7669
vn 0.6413 0.0007 0.7673
vn 0.6341 -0.0106 -0.7732
vn 0.6341 -0.0000 -0.7733
vn 1.0000 -0.0000 -0.0000
vn -0.0000 -0.6621 -0.7494
vn 0.0461 -0.9903 -0.1310
vn 0.2746 -0.4129 -0.8684
vn -0.5927 0.8054 -0.0000
vn -0.0000 -0.0000 -1.0000
vn -0.4925 0.8614 0.1242
vn -0.4962 0.8228 -0.2770
vn 0.3793 -0.8531 -0.3583
vn 0.0548 -0.9946 0.0881
vn -0.1775 -0.9427 0.2825
vn 0.6391 0.0117 0.7691
vn -0.6387 -0.0253 -0.7691
vn 0.6449 -0.0018 0.7643
vn -0.6341 -0.0000 -0.7733
vn 0.2089 -0.9489 0.2365
vn 0.1495 0.9596 -0.2382
vn 0.6441 -0.0137 0.7649
vn -0.0000 1.0000 -0.0000
vn -0.9734 0.0287 0.2274
vn -0.9498 0.1336 0.2827
vn 0.9869 -0.1231 0.1041
vn -0.5797 0.8007 0.1511
vn -0.7453 0.2052 0.6343
vn 0.9796 -0.0038 0.2009
vn -0.9976 -0.0661 0.0191
vn 0.2884 -0.4066 -0.8669
vn -0.9026 0.0181 0.4302
vn 0.9851 0.0016 0.1718
vn -0.0000 -0.3777 -0.9259
vn 0.8858 -0.1791 0.4281
vn 0.6961 0.1345 0.7052
vn -0.0000 -0.9220 -0.3872
vn -0.5404 0.6587 -0.5235
vn -0.9019 -0.2421 -0.3576
vn -0.0392 -0.9867 -0.1579
vn 0.9598 0.0719 0.2712
vn -0.0000 -0.9703 0.2418
vn -0.6448 0.0140 0.7642
vn -0.1311 -0.9789 -0.1566
vn -0.0874 -0.9648 -0.2482
vn -0.9697 0.1960 0.1461
vn -0.9860 0.0731 0.1496
vn -0.6441 -0.0015 0.7649
vn -0.6412 -0.0113 0.7672
vn -0.0000 -0.9597 -0.2811
vn 0.9750 -0.2209 0.0226
vn 0.5516 0.5036 0.6649
vn 0.9871 0.0170 -0.1592
vn -0.0366 0.6547 0.7550
vn 0.5409 0.4228 0.7271
vn -0.9996 0.0104 -0.0267
vn -0.9786 -0.1893 0.0809
vn 0.9845 -0.1745 0.0155
vn 0.9811 0.1934 -0.0000
vn 0.8764 -0.0000 -0.4816
vn -0.9721 0.2277 -0.0565
vn -0.9799 -0.1995 -0.0050
vn -0.9154 0.4019 0.0222
vn -0.8348 -0.0000 -0.5505
vn -0.8097 0.2617 -0.5253
vn -0.8382 -0.2390 -0.4902
vn 0.9016 -0.0056 0.4325
vn 0.9024 -0.0000 0.4308
vn 0.8938 0.1128 0.4340
vn 0.8988 -0.1031 0.4261
vn 0.1166 -0.9753 -0.1876
vn 0.6606 0.0650 -0.7479
vn 0.0476 -0.9960 0.0758
vn -0.7037 0.0615 -0.7078
vn -0.0000 -0.0000 1.0000
vn 0.2220 -0.0327 0.9745
vn -0.2336 -0.0394 0.9715
vn -0.4782 0.0318 -0.8777
vn 0.4875 0.0382 -0.8723
vn -0.9860 -0.0673 0.1527
vn 0.2220 -0.0372 0.9743
vn 0.6470 -0.0935 0.7567
vn 0.3597 0.0704 0.9304
vn -0.3575 0.0401 0.9331
vn -0.5156 -0.0819 0.8529
vn 0.0586 0.0145 0.9982
vn 0.9901 -0.0080 -0.1399
vn 0.9973 -0.0087 0.0735
vn 0.9909 0.0805 -0.1078
vn -0.3984 -0.0524 -0.9157
vn -0.3966 0.1077 -0.9117
vn -0.9185 -0.1452 -0.3678
vn 0.4870 -0.0603 -0.8713
vn 0.5559 0.1176 -0.8229
vn 0.5587 -0.0626 -0.8270
vn -0.5556 -0.7477 0.3638
vn 0.4576 -0.7583 0.4643
vn -0.8383 -0.3944 -0.3765
vn 0.2816 -0.9558 -0.0845
vn -0.7080 -0.5543 0.4376
vn 0.2713 0.2783 0.9214
vn 0.2530 0.8488 -0.4643
vn -0.0000 0.5805 -0.8142
vn -0.2398 -0.0964 0.9660
vn 0.2330 -0.0799 0.9692
vn -0.0000 -0.4368 0.8996
vn -0.0000 -0.5178 0.8555
vn -0.0000 0.1530 0.9882
vn -0.0000 0.0052 1.0000
vn -0.9471 0.3209 -0.0023
vn -0.0000 0.8101 0.5863
vn -0.9495 0.3123 -0.0310
vn -0.4183 0.6560 0.6283
vn -0.7872 0.5926 -0.1708
vn -0.2838 0.4964 0.8204
vn -0.9598 0.0719 0.2712
vn 0.9026 0.0181 0.4302
vn -0.9851 0.0016 0.1718
vn -0.6413 0.0007 0.7673
vn 0.6417 0.0008 0.7669
vn 0.6388 -0.0127 -0.7692
vn 0.0392 -0.9867 -0.1579
vn 0.1273 -0.4818 -0.8670
vn -0.0000 0.9677 0.2521
vn -0.0000 -0.9856 -0.1694
vn -0.0476 -0.9960 0.0758
vn -0.2089 -0.9489 0.2365
vn 0.6448 0.0140 0.7642
vn -0.6340 -0.0212 -0.7731
vn 0.6441 -0.0015 0.7649
vn 0.1775 -0.9427 0.2825
vn -0.1299 0.9697 -0.2067
vn 0.6412 -0.0113 0.7672
vn -0.9658 0.1915 0.1748
vn -0.9796 -0.0038 0.2009
vn 0.9760 -0.2167 -0.0231
vn -0.9652 0.1537 0.2118
vn -0.8410 -0.0353 0.5400
vn 0.9498 0.1336 0.2827
vn 0.9872 -0.1249 0.0993
vn -0.9974 -0.0700 0.0154
vn -0.9139 -0.0874 0.3964
vn 0.9526 0.2013 0.2279
vn -0.2884 -0.4066 -0.8669
vn 0.7961 0.1463 0.5872
vn 0.8016 0.1989 0.5637
vn -0.0000 0.9477 -0.3191
vn -0.9649 -0.1038 -0.2413
vn -0.0461 -0.9903 -0.1310
vn 0.9006 -0.0860 0.4261
vn -0.7295 0.6755 0.1076
vn -0.6391 0.0117 0.7691
vn -0.1166 -0.9753 -0.1876
vn -0.5133 0.6975 0.4999
vn -0.9848 0.0032 0.1737
vn -0.6449 -0.0018 0.7643
vn -0.6441 -0.0137 0.7649
vn 0.0874 -0.9648 -0.2482
vn 0.9826 -0.1814 -0.0405
vn 0.2419 0.2864 0.9271
vn 0.9861 0.1146 -0.1200
vn -0.1760 0.5678 0.8041
vn -0.0903 0.6341 0.7679
vn -0.9884 -0.0203 0.1504
vn -0.8631 -0.1188 0.4909
vn -0.9277 -0.3719 0.0330
vn 0.8829 -0.1095 -0.4565
vn 0.9862 -0.1644 0.0208
vn 0.9827 0.1850 0.0046
vn 0.8719 0.1186 -0.4752
vn -0.9052 0.4248 0.0106
vn -0.9921 -0.0000 0.1252
vn -0.8567 0.1297 0.4992
vn -0.8648 -0.1191 0.4878
vn -0.8343 0.2392 0.4967
vn 0.9012 -0.0064 0.4333
vn 0.9015 -0.0008 0.4327
vn 0.1311 -0.9789 -0.1566
vn 0.6331 0.0558 -0.7720
vn -0.0548 -0.9946 0.0881
vn -0.6587 0.1004 -0.7457
vn -0.5841 0.7938 -0.1692
vn 0.2336 -0.0394 0.9715
vn -0.2220 -0.0327 0.9745
vn -0.4875 0.0382 -0.8723
vn 0.4782 0.0318 -0.8777
vn -0.9996 -0.0266 0.0020
vn 0.6350 0.0332 0.7718
vn 0.5945 -0.1067 0.7970
vn 0.2634 0.0247 0.9644
vn -0.2221 0.0273 0.9746
vn -0.3556 -0.1103 0.9281
vn -0.4836 0.0368 0.8745
vn 0.9993 0.0380 -0.0035
vn 0.9896 -0.0639 -0.1288
vn 0.9885 0.1505 -0.0132
vn -0.4870 -0.0603 -0.8713
vn -0.5559 0.1176 -0.8229
vn -0.5587 -0.0626 -0.8270
vn 0.3984 -0.0524 -0.9157
vn 0.3966 0.1077 -0.9117
vn 0.1952 0.0076 -0.9807
vn -0.7305 -0.5281 0.4330
vn 0.6569 -0.7325 0.1784
vn -0.9526 -0.3000 0.0505
vn 0.4424 -0.7895 -0.4255
vn -0.9994 -0.0265 -0.0233
vn 0.0574 0.3800 0.9232
vn -0.2530 0.8488 -0.4643
vn -0.2330 -0.0799 0.9692
vn 0.2398 -0.0964 0.9660
vn -0.9458 0.3248 -0.0049
vn -0.9513 0.3082 -0.0000
vn -0.9042 0.4251 -0.0422
vn -0.9132 0.4075 -0.0030
vn -0.4968 0.5928 0.6338
vt 0.557364 0.322496
vt 0.572873 0.320064
vt 0.572873 0.323797
vt 0.556076 0.353647
vt 0.560060 0.358036
vt 0.557735 0.361785
vt 0.563301 0.343406
vt 0.556167 0.350017
vt 0.556038 0.343388
vt 0.574705 0.352055
vt 0.568082 0.349620
vt 0.574650 0.345527
vt 0.557364 0.350564
vt 0.549528 0.361830
vt 0.548264 0.347259
vt 0.558354 0.347218
vt 0.568783 0.344039
vt 0.563282 0.350312
vt 0.541433 0.346568
vt 0.544778 0.352130
vt 0.541433 0.352108
vt 0.588403 0.355147
vt 0.583244 0.363463
vt 0.583244 0.355178
vt 0.563855 0.337638
vt 0.567324 0.333105
vt 0.567337 0.337691
vt 0.567347 0.343218
vt 0.563864 0.343164
vt 0.560592 0.333121
vt 0.549864 0.338435
vt 0.549859 0.331783
vt 0.555156 0.334210
vt 0.560268 0.322267
vt 0.560268 0.334335
vt 0.559045 0.344397
vt 0.548059 0.345353
vt 0.548109 0.343014
vt 0.296790 0.137568
vt 0.303480 0.152750
vt 0.296301 0.156216
vt 0.563025 0.338945
vt 0.555384 0.340150
vt 0.555384 0.338943
vt 0.320412 0.076954
vt 0.322990 0.080065
vt 0.320428 0.080065
vt 0.560886 0.321484
vt 0.563713 0.334197
vt 0.557690 0.334194
vt 0.555484 0.329605
vt 0.550371 0.327414
vt 0.555484 0.323215
vt 0.565132 0.347483
vt 0.549606 0.357289
vt 0.549606 0.342971
vt 0.558217 0.358594
vt 0.550974 0.345585
vt 0.558544 0.345590
vt 0.563313 0.363026
vt 0.555937 0.362968
vt 0.565132 0.319400
vt 0.549606 0.304655
vt 0.565132 0.304651
vt 0.549606 0.330798
vt 0.549606 0.320736
vt 0.565132 0.335728
vt 0.555484 0.351133
vt 0.550371 0.342709
vt 0.555484 0.342700
vt 0.555484 0.335531
vt 0.550371 0.335540
vt 0.559670 0.316362
vt 0.549929 0.322329
vt 0.549820 0.316362
vt 0.560804 0.323724
vt 0.549912 0.328838
vt 0.560645 0.330324
vt 0.537103 0.346311
vt 0.532843 0.358777
vt 0.532840 0.347249
vt 0.567354 0.347263
vt 0.563871 0.347210
vt 0.537091 0.359734
vt 0.532884 0.360694
vt 0.588402 0.335944
vt 0.583249 0.343404
vt 0.583244 0.335975
vt 0.574854 0.333434
vt 0.569890 0.330083
vt 0.574839 0.329994
vt 0.588407 0.351479
vt 0.588408 0.343373
vt 0.574867 0.341699
vt 0.569904 0.333522
vt 0.558987 0.359754
vt 0.563290 0.360721
vt 0.559024 0.362056
vt 0.562626 0.349078
vt 0.565840 0.340784
vt 0.565441 0.348447
vt 0.583248 0.351510
vt 0.574877 0.347749
vt 0.569923 0.345407
vt 0.548142 0.340151
vt 0.545327 0.339778
vt 0.548142 0.338943
vt 0.563407 0.334268
vt 0.568781 0.335940
vt 0.558770 0.344369
vt 0.568825 0.338020
vt 0.548475 0.314151
vt 0.548264 0.320557
vt 0.548264 0.335974
vt 0.557364 0.338815
vt 0.574728 0.316362
vt 0.567769 0.324661
vt 0.566249 0.316362
vt 0.577010 0.336839
vt 0.574073 0.341712
vt 0.553844 0.430778
vt 0.558040 0.430650
vt 0.556311 0.432088
vt 0.552867 0.434216
vt 0.572873 0.364184
vt 0.557364 0.366883
vt 0.572873 0.346020
vt 0.572873 0.333854
vt 0.562792 0.433930
vt 0.555970 0.440425
vt 0.557444 0.348857
vt 0.560009 0.356116
vt 0.558311 0.352054
vt 0.560663 0.341215
vt 0.556081 0.342683
vt 0.556081 0.334194
vt 0.562693 0.348984
vt 0.565380 0.334459
vt 0.576484 0.325590
vt 0.581045 0.328548
vt 0.577679 0.319351
vt 0.560598 0.329596
vt 0.560598 0.335522
vt 0.560598 0.342691
vt 0.560598 0.351124
vt 0.548673 0.362950
vt 0.548903 0.349998
vt 0.565459 0.358593
vt 0.566231 0.345597
vt 0.560598 0.320125
vt 0.556081 0.321485
vt 0.316537 0.073843
vt 0.322975 0.076954
vt 0.316398 0.136452
vt 0.304824 0.148654
vt 0.309365 0.136760
vt 0.537150 0.344377
vt 0.565380 0.322392
vt 0.548774 0.343369
vt 0.577701 0.354212
vt 0.572397 0.360061
vt 0.557075 0.442345
vt 0.555466 0.453286
vt 0.555466 0.442345
vt 0.548039 0.359744
vt 0.537128 0.362037
vt 0.550974 0.358595
vt 0.558217 0.366051
vt 0.550974 0.366051
vt 0.563025 0.340153
vt 0.565840 0.339780
vt 0.541433 0.333726
vt 0.544782 0.338716
vt 0.541437 0.338694
vt 0.532884 0.345642
vt 0.574242 0.344156
vt 0.574242 0.332865
vt 0.574242 0.317440
vt 0.572977 0.358737
vt 0.565132 0.363811
vt 0.548142 0.349078
vt 0.545327 0.340782
vt 0.548076 0.362047
vt 0.551845 0.321831
vt 0.558086 0.338200
vt 0.551621 0.340459
vt 0.555384 0.349078
vt 0.548142 0.350293
vt 0.576799 0.336991
vt 0.576733 0.329962
vt 0.567914 0.329885
vt 0.569412 0.327422
vt 0.541436 0.344115
vt 0.544781 0.344136
vt 0.565441 0.349457
vt 0.562626 0.350292
vt 0.544778 0.346589
vt 0.555384 0.350292
vt 0.564761 0.321864
vt 0.558303 0.321847
vt 0.545327 0.349458
vt 0.545327 0.348448
vt 0.576805 0.341938
vt 0.318714 0.145803
vt 0.312954 0.154093
vt 0.309911 0.152017
vt 0.306031 0.142953
vt 0.302311 0.148044
vt 0.301739 0.145265
vt 0.303061 0.138854
vt 0.311023 0.137278
vt 0.309211 0.137119
vt 0.303112 0.134462
vt 0.301973 0.136793
vt 0.294968 0.148391
vt 0.542989 0.359232
vt 0.548273 0.367149
vt 0.542877 0.367514
vt 0.584931 0.364281
vt 0.551242 0.359114
vt 0.538382 0.365760
vt 0.543271 0.372895
vt 0.536882 0.373587
vt 0.545229 0.365090
vt 0.581833 0.371620
vt 0.581685 0.344495
vt 0.545078 0.351486
vt 0.542958 0.344553
vt 0.578998 0.351738
vt 0.545164 0.359279
vt 0.578995 0.363520
vt 0.538224 0.351424
vt 0.537883 0.344560
vt 0.538315 0.359701
vt 0.587067 0.343488
vt 0.551239 0.347338
vt 0.548420 0.340038
vt 0.585121 0.347060
vt 0.548250 0.355372
vt 0.584995 0.358473
vt 0.542922 0.347463
vt 0.543323 0.340035
vt 0.542877 0.355566
vt 0.591702 0.358826
vt 0.591834 0.346929
vt 0.591635 0.364882
vt 0.586792 0.368392
vt 0.587234 0.360027
vt 0.579087 0.359833
vt 0.587189 0.351920
vt 0.587122 0.363695
vt 0.558999 0.346331
vt 0.563290 0.345670
vt 0.563246 0.347277
vt 0.567330 0.352466
vt 0.563841 0.352409
vt 0.563250 0.358805
vt 0.574830 0.355522
vt 0.569933 0.351457
vt 0.305070 0.081508
vt 0.318106 0.097577
vt 0.305070 0.097577
vt 0.292033 0.097578
vt 0.292033 0.081508
vt 0.298247 0.098245
vt 0.302000 0.114358
vt 0.298247 0.114641
vt 0.335309 0.087805
vt 0.331471 0.071745
vt 0.335309 0.071745
vt 0.310941 0.102002
vt 0.314778 0.106655
vt 0.310941 0.106655
vt 0.310941 0.097348
vt 0.314778 0.102001
vt 0.307474 0.041344
vt 0.295069 0.047369
vt 0.294460 0.041157
vt 0.302343 0.042818
vt 0.305995 0.048831
vt 0.302566 0.048972
vt 0.309174 0.042569
vt 0.305773 0.042676
vt 0.308401 0.046796
vt 0.320468 0.052219
vt 0.307955 0.052907
vt 0.299822 0.038367
vt 0.296071 0.044988
vt 0.296278 0.038377
vt 0.303273 0.045193
vt 0.299613 0.044975
vt 0.308114 0.047696
vt 0.296379 0.083430
vt 0.308372 0.083542
vt 0.302528 0.116755
vt 0.302503 0.083698
vt 0.307333 0.084356
vt 0.305629 0.112521
vt 0.309479 0.118507
vt 0.310726 0.084260
vt 0.311879 0.117528
vt 0.317608 0.085851
vt 0.308660 0.087294
vt 0.314924 0.113878
vt 0.303663 0.119434
vt 0.314382 0.135098
vt 0.298566 0.082277
vt 0.295011 0.082265
vt 0.293834 0.116977
vt 0.314500 0.116869
vt 0.301037 0.117182
vt 0.297365 0.116940
vt 0.320641 0.033560
vt 0.331471 0.059706
vt 0.322972 0.066935
vt 0.296759 0.042466
vt 0.300130 0.074470
vt 0.303087 0.155272
vt 0.300982 0.152859
vt 0.322548 0.090503
vt 0.294233 0.150502
vt 0.309874 0.150202
vt 0.308381 0.152302
vt 0.315818 0.066650
vt 0.320364 0.054091
vt 0.327487 0.067128
vt 0.320364 0.080163
vt 0.315818 0.079686
vt 0.309617 0.045215
vt 0.320888 0.046244
vt 0.309120 0.041037
vt 0.305719 0.041144
vt 0.302289 0.041287
vt 0.569695 0.360626
vt 0.557993 0.362048
vt 0.557766 0.360509
vt 0.553546 0.330566
vt 0.557034 0.343417
vt 0.553177 0.343463
vt 0.553644 0.351049
vt 0.556588 0.351014
vt 0.557233 0.356863
vt 0.553177 0.356911
vt 0.556375 0.366913
vt 0.555325 0.427358
vt 0.560924 0.430659
vt 0.564221 0.334186
vt 0.559553 0.334997
vt 0.559553 0.324428
vt 0.564320 0.325423
vt 0.565336 0.331359
vt 0.561539 0.330997
vt 0.560169 0.363271
vt 0.551970 0.338914
vt 0.563937 0.352495
vt 0.557364 0.307755
vt 0.563430 0.350035
vt 0.588402 0.363432
vt 0.563841 0.333051
vt 0.555156 0.322143
vt 0.302137 0.138274
vt 0.565691 0.321484
vt 0.550371 0.329614
vt 0.550371 0.353412
vt 0.558155 0.444031
vt 0.557690 0.342683
vt 0.579709 0.323934
vt 0.313974 0.073843
vt 0.309303 0.154458
vt 0.575490 0.365165
vt 0.558751 0.456990
vt 0.544778 0.333748
vt 0.574031 0.304649
vt 0.565858 0.366057
vt 0.576755 0.334801
vt 0.576805 0.325524
vt 0.564537 0.340492
vt 0.321065 0.148666
vt 0.311879 0.148043
vt 0.592136 0.343492
vt 0.593174 0.369079
vt 0.586788 0.344488
vt 0.587234 0.371982
vt 0.569890 0.355617
vt 0.318824 0.081511
vt 0.302000 0.097962
vt 0.331471 0.087804
vt 0.314778 0.097348
vt 0.309397 0.048723
vt 0.303480 0.038582
vt 0.316619 0.116613
vt 0.302213 0.082470
vt 0.326311 0.034568
vt 0.296759 0.086318
vt 0.315818 0.053614
vt 0.321065 0.044762
vt 0.571007 0.362235
vt 0.554285 0.366938
vt 0.563705 0.425084
vt 0.569209 0.325402
vt 0.551970 0.367715
s 0
g axe_b_Material
usemtl Material
f 29/1/1 23/2/1 59/3/1
f 86/4/2 6/5/2 72/6/2
f 90/7/3 69/8/3 100/9/3
f 30/10/4 60/11/4 68/12/4
f 27/13/1 90/14/1 98/15/1
f 65/16/5 17/17/5 62/18/5
f 110/19/6 128/20/6 104/21/6
f 107/22/7 155/23/7 145/24/7
f 93/25/8 149/26/8 151/27/8
f 93/25/9 152/28/9 94/29/9
f 53/30/10 103/31/10 107/32/10
f 62/33/11 73/34/11 87/35/11
f 104/36/12 74/37/12 112/38/12
f 161/39/13 113/40/13 118/41/13
f 91/42/14 76/43/14 99/44/14
f 76/45/15 49/46/15 10/47/15
f 111/48/16 13/49/16 78/50/16
f 83/51/15 23/52/15 80/53/15
f 26/54/10 20/55/10 56/56/10
f 70/57/17 22/58/17 80/59/17
f 69/8/18 21/60/18 79/61/18
f 24/62/10 22/63/10 3/64/10
f 24/62/10 55/65/10 54/66/10
f 25/67/10 56/56/10 55/65/10
f 79/68/15 57/69/15 81/70/15
f 57/69/15 82/71/15 81/70/15
f 58/72/15 83/51/15 82/71/15
f 8/73/10 105/74/10 101/75/10
f 51/76/10 106/77/10 105/74/10
f 52/78/10 107/32/10 106/77/10
f 15/79/19 126/80/19 127/81/19
f 94/29/9 153/82/9 95/83/9
f 14/84/20 125/85/20 126/80/20
f 101/86/21 143/87/21 119/88/21
f 96/89/22 122/90/22 91/91/22
f 106/92/23 143/87/23 105/93/23
f 97/94/24 146/95/24 96/89/24
f 19/96/25 150/97/25 90/98/25
f 12/99/26 123/100/26 124/101/26
f 107/22/27 144/102/27 106/92/27
f 98/103/24 147/104/24 97/94/24
f 10/105/28 149/106/28 89/107/28
f 63/108/29 37/109/29 64/110/29
f 64/110/30 38/111/30 65/16/30
f 91/112/1 29/1/1 96/113/1
f 29/1/1 97/114/1 96/113/1
f 28/115/1 98/15/1 97/114/1
f 7/116/10 66/117/10 61/118/10
f 66/117/31 31/119/31 67/120/31
f 84/121/32 189/122/32 33/123/32
f 33/123/33 85/124/33 84/121/33
f 27/13/1 21/125/1 2/126/1
f 28/115/1 57/127/1 27/13/1
f 29/1/1 58/128/1 28/115/1
f 67/120/34 53/30/34 52/78/34
f 66/117/10 52/78/10 51/76/10
f 61/118/10 51/76/10 8/73/10
f 63/129/35 34/130/35 33/123/35
f 6/131/36 87/35/36 72/132/36
f 35/133/37 62/18/37 6/5/37
f 68/12/38 16/134/38 53/30/38
f 78/50/28 61/135/28 8/136/28
f 5/137/39 87/35/39 60/138/39
f 32/139/40 85/140/40 31/119/40
f 71/141/41 32/139/41 7/116/41
f 82/71/15 54/142/15 55/143/15
f 81/70/15 55/143/15 56/144/15
f 79/68/15 56/144/15 20/145/15
f 69/8/42 20/146/42 1/147/42
f 4/148/43 80/59/43 23/149/43
f 54/142/15 80/53/15 22/150/15
f 101/151/28 78/50/28 8/136/28
f 76/45/15 48/152/15 46/153/15
f 99/44/28 10/105/28 89/107/28
f 161/154/44 116/155/44 171/156/44
f 103/157/45 74/37/45 15/79/45
f 87/35/11 16/158/11 60/138/11
f 100/9/3 1/147/3 92/159/3
f 86/160/46 5/161/46 30/10/46
f 88/162/28 7/163/28 61/164/28
f 75/165/47 92/166/47 14/84/47
f 3/167/28 99/168/28 89/169/28
f 11/170/28 122/171/28 123/100/28
f 102/172/48 156/173/48 108/174/48
f 15/79/49 155/175/49 103/157/49
f 25/67/10 95/176/10 26/54/10
f 24/62/10 94/177/10 25/67/10
f 3/64/10 93/178/10 24/62/10
f 4/148/28 99/168/28 70/57/28
f 26/54/10 92/179/10 1/180/10
f 9/181/28 121/182/28 10/105/28
f 19/96/47 100/183/47 75/165/47
f 16/184/50 112/185/50 103/186/50
f 77/187/28 101/188/28 9/181/28
f 37/109/1 110/189/1 38/111/1
f 108/190/51 37/109/51 36/191/51
f 13/192/52 108/190/52 36/191/52
f 109/193/53 156/173/53 157/194/53
f 12/99/28 154/195/28 102/196/28
f 110/19/54 157/194/54 158/197/54
f 12/99/28 111/198/28 77/187/28
f 17/199/55 112/185/55 73/200/55
f 9/181/28 119/201/28 120/202/28
f 38/111/1 104/203/1 17/17/1
f 114/204/56 177/205/56 113/206/56
f 117/207/57 178/208/57 114/209/57
f 164/210/58 114/204/58 113/206/58
f 170/211/59 117/207/59 174/212/59
f 167/213/60 117/207/60 114/209/60
f 170/214/61 116/155/61 115/215/61
f 158/216/1 129/217/1 128/218/1
f 132/219/62 129/217/62 131/220/62
f 153/221/10 126/222/10 125/223/10
f 133/224/63 127/225/63 126/222/63
f 120/226/64 139/227/64 121/228/64
f 141/229/10 140/230/10 139/227/10
f 140/230/10 134/231/10 133/224/10
f 121/228/10 151/232/10 149/233/10
f 151/232/65 140/230/65 152/234/65
f 152/234/65 133/224/65 153/221/65
f 123/235/66 135/236/66 124/237/66
f 137/238/67 136/239/67 135/236/67
f 138/240/68 131/220/68 136/239/68
f 124/237/1 156/241/1 154/242/1
f 156/241/1 136/239/1 157/243/1
f 136/239/1 158/216/1 157/243/1
f 147/244/69 132/219/69 138/240/69
f 146/245/69 138/240/69 137/238/69
f 123/235/70 146/245/70 137/238/70
f 148/246/71 130/247/71 132/219/71
f 144/248/72 134/231/72 142/249/72
f 143/250/73 142/249/73 141/229/73
f 120/226/74 143/250/74 141/229/74
f 145/251/75 127/225/75 134/231/75
f 18/252/76 128/253/76 129/254/76
f 95/83/77 125/255/77 92/256/77
f 18/252/78 130/257/78 19/96/78
f 90/258/79 148/259/79 98/103/79
f 46/260/28 47/261/28 45/262/28
f 46/260/28 50/263/28 49/264/28
f 12/265/1 48/266/1 11/267/1
f 10/268/10 50/269/10 9/270/10
f 77/271/80 47/272/80 12/273/80
f 9/274/80 45/275/80 77/271/80
f 183/276/1 40/277/1 188/278/1
f 187/279/81 39/280/81 41/281/81
f 188/282/82 39/280/82 184/283/82
f 186/284/10 41/285/10 42/286/10
f 185/287/83 43/288/83 183/289/83
f 185/287/84 42/290/84 44/291/84
f 43/292/1 168/293/1 40/277/1
f 173/294/1 169/295/1 168/293/1
f 169/295/85 171/156/85 170/214/85
f 39/280/86 165/296/86 41/281/86
f 176/297/87 166/298/87 165/296/87
f 175/299/88 167/213/88 166/298/88
f 39/280/89 168/300/89 176/297/89
f 176/297/90 169/301/90 175/299/90
f 175/299/91 170/211/91 174/212/91
f 42/286/92 165/302/92 162/303/92
f 162/303/93 166/304/93 163/305/93
f 163/305/94 167/306/94 164/210/94
f 43/288/95 159/307/95 173/308/95
f 159/307/96 172/309/96 173/308/96
f 172/310/97 161/154/97 171/156/97
f 42/290/98 159/307/98 44/291/98
f 159/307/99 163/311/99 160/312/99
f 163/311/100 161/39/100 160/312/100
f 181/313/101 180/314/101 182/315/101
f 178/316/102 182/315/102 177/317/102
f 116/155/103 182/318/103 180/319/103
f 118/320/104 177/317/104 182/315/104
f 115/215/105 180/319/105 179/321/105
f 117/207/106 179/322/106 181/323/106
f 75/324/107 186/325/107 185/326/107
f 75/324/108 183/327/108 19/328/108
f 14/329/10 187/330/10 186/284/10
f 18/331/109 184/283/109 74/332/109
f 15/333/110 184/283/110 187/279/110
f 19/334/1 188/335/1 18/336/1
f 85/337/111 34/338/111 31/339/111
f 67/340/112 34/338/112 64/341/112
f 67/340/113 65/342/113 68/343/113
f 35/344/114 68/343/114 65/342/114
f 71/345/115 191/346/115 189/122/115
f 30/347/116 35/348/116 86/349/116
f 88/350/117 190/351/117 191/352/117
f 63/108/118 190/351/118 36/191/118
f 189/122/119 63/129/119 33/123/119
f 36/353/120 78/354/120 13/355/120
f 29/1/1 4/356/1 23/2/1
f 86/4/121 35/133/121 6/5/121
f 90/7/3 2/357/3 69/8/3
f 30/10/122 5/161/122 60/11/122
f 27/13/1 2/126/1 90/14/1
f 65/16/123 38/111/123 17/17/123
f 110/19/124 158/197/124 128/20/124
f 107/22/125 103/358/125 155/23/125
f 93/25/126 89/359/126 149/26/126
f 93/25/9 151/27/9 152/28/9
f 53/30/10 16/134/10 103/31/10
f 62/33/11 17/360/11 73/34/11
f 104/36/127 18/252/127 74/37/127
f 161/39/128 164/361/128 113/40/128
f 91/42/14 11/170/14 76/43/14
f 76/45/15 46/153/15 49/46/15
f 111/48/129 102/362/129 13/49/129
f 83/51/15 59/363/15 23/52/15
f 26/54/10 1/180/10 20/55/10
f 70/57/28 3/167/28 22/58/28
f 69/8/130 2/357/130 21/60/130
f 24/62/10 54/66/10 22/63/10
f 24/62/10 25/67/10 55/65/10
f 25/67/10 26/54/10 56/56/10
f 79/68/15 21/364/15 57/69/15
f 57/69/15 58/72/15 82/71/15
f 58/72/15 59/363/15 83/51/15
f 8/73/10 51/76/10 105/74/10
f 51/76/10 52/78/10 106/77/10
f 52/78/10 53/30/10 107/32/10
f 15/79/131 14/84/131 126/80/131
f 94/29/9 152/28/9 153/82/9
f 14/84/132 92/166/132 125/85/132
f 101/86/133 105/93/133 143/87/133
f 96/89/134 146/95/134 122/90/134
f 106/92/135 144/102/135 143/87/135
f 97/94/24 147/104/24 146/95/24
f 19/96/136 130/257/136 150/97/136
f 12/99/137 11/170/137 123/100/137
f 107/22/138 145/24/138 144/102/138
f 98/103/24 148/259/24 147/104/24
f 10/105/28 121/182/28 149/106/28
f 63/108/139 36/191/139 37/109/139
f 64/110/140 37/109/140 38/111/140
f 91/112/1 4/356/1 29/1/1
f 29/1/1 28/115/1 97/114/1
f 28/115/1 27/13/1 98/15/1
f 7/116/10 32/139/10 66/117/10
f 66/117/141 32/139/141 31/119/141
f 84/121/142 71/345/142 189/122/142
f 33/123/143 34/130/143 85/124/143
f 27/13/1 57/127/1 21/125/1
f 28/115/1 58/128/1 57/127/1
f 29/1/1 59/3/1 58/128/1
f 67/120/144 68/12/144 53/30/144
f 66/117/145 67/120/145 52/78/145
f 61/118/10 66/117/10 51/76/10
f 63/129/146 64/365/146 34/130/146
f 6/131/39 62/33/39 87/35/39
f 35/133/147 65/16/147 62/18/147
f 68/12/148 60/11/148 16/134/148
f 78/50/28 88/366/28 61/135/28
f 5/137/149 72/132/149 87/35/149
f 32/139/150 84/367/150 85/140/150
f 71/141/151 84/367/151 32/139/151
f 82/71/15 83/51/15 54/142/15
f 81/70/15 82/71/15 55/143/15
f 79/68/15 81/70/15 56/144/15
f 69/8/42 79/61/42 20/146/42
f 4/148/152 70/57/152 80/59/152
f 54/142/15 83/51/15 80/53/15
f 101/151/28 111/48/28 78/50/28
f 76/45/15 11/368/15 48/152/15
f 99/44/28 76/43/28 10/105/28
f 161/154/153 118/369/153 116/155/153
f 103/157/154 112/38/154 74/37/154
f 87/35/11 73/34/11 16/158/11
f 100/9/3 69/8/3 1/147/3
f 86/160/155 72/370/155 5/161/155
f 88/162/156 71/371/156 7/163/156
f 75/165/47 100/183/47 92/166/47
f 3/167/28 70/57/28 99/168/28
f 11/170/28 91/42/28 122/171/28
f 102/172/157 154/372/157 156/173/157
f 15/79/158 127/81/158 155/175/158
f 25/67/10 94/177/10 95/176/10
f 24/62/10 93/178/10 94/177/10
f 3/64/10 89/373/10 93/178/10
f 4/148/159 91/374/159 99/168/159
f 26/54/10 95/176/10 92/179/10
f 9/181/28 120/202/28 121/182/28
f 19/96/47 90/98/47 100/183/47
f 16/184/55 73/200/55 112/185/55
f 77/187/28 111/198/28 101/188/28
f 37/109/1 109/375/1 110/189/1
f 108/190/1 109/375/1 37/109/1
f 13/192/160 102/376/160 108/190/160
f 109/193/161 108/174/161 156/173/161
f 12/99/28 124/101/28 154/195/28
f 110/19/162 109/193/162 157/194/162
f 12/99/28 102/196/28 111/198/28
f 17/199/163 104/377/163 112/185/163
f 9/181/28 101/188/28 119/201/28
f 38/111/1 110/189/1 104/203/1
f 114/204/164 178/378/164 177/205/164
f 117/207/165 181/323/165 178/208/165
f 164/210/166 167/306/166 114/204/166
f 170/211/167 115/379/167 117/207/167
f 167/213/168 174/212/168 117/207/168
f 170/214/169 171/156/169 116/155/169
f 158/216/170 131/220/170 129/217/170
f 132/219/171 130/247/171 129/217/171
f 153/221/172 133/224/172 126/222/172
f 133/224/173 134/231/173 127/225/173
f 120/226/174 141/229/174 139/227/174
f 141/229/10 142/249/10 140/230/10
f 140/230/10 142/249/10 134/231/10
f 121/228/175 139/227/175 151/232/175
f 151/232/65 139/227/65 140/230/65
f 152/234/65 140/230/65 133/224/65
f 123/235/176 137/238/176 135/236/176
f 137/238/177 138/240/177 136/239/177
f 138/240/1 132/219/1 131/220/1
f 124/237/178 135/236/178 156/241/178
f 156/241/179 135/236/179 136/239/179
f 136/239/180 131/220/180 158/216/180
f 147/244/69 148/246/69 132/219/69
f 146/245/69 147/244/69 138/240/69
f 123/235/1 122/380/1 146/245/1
f 148/246/1 150/381/1 130/247/1
f 144/248/181 145/251/181 134/231/181
f 143/250/182 144/248/182 142/249/182
f 120/226/10 119/382/10 143/250/10
f 145/251/10 155/383/10 127/225/10
f 18/252/183 104/36/183 128/253/183
f 95/83/184 153/82/184 125/255/184
f 18/252/185 129/254/185 130/257/185
f 90/258/186 150/384/186 148/259/186
f 46/260/187 48/385/187 47/261/187
f 46/260/28 45/262/28 50/263/28
f 12/265/1 47/386/1 48/266/1
f 10/268/10 49/387/10 50/269/10
f 77/271/80 45/275/80 47/272/80
f 9/274/80 50/388/80 45/275/80
f 183/276/1 43/292/1 40/277/1
f 187/279/188 184/283/188 39/280/188
f 188/282/189 40/389/189 39/280/189
f 186/284/10 187/330/10 41/285/10
f 185/287/190 44/291/190 43/288/190
f 185/287/191 186/390/191 42/290/191
f 43/292/1 173/294/1 168/293/1
f 173/294/1 172/310/1 169/295/1
f 169/295/192 172/310/192 171/156/192
f 39/280/193 176/297/193 165/296/193
f 176/297/194 175/299/194 166/298/194
f 175/299/195 174/212/195 167/213/195
f 39/280/196 40/389/196 168/300/196
f 176/297/197 168/300/197 169/301/197
f 175/299/198 169/301/198 170/211/198
f 42/286/199 41/285/199 165/302/199
f 162/303/200 165/302/200 166/304/200
f 163/305/201 166/304/201 167/306/201
f 43/288/202 44/291/202 159/307/202
f 159/307/203 160/312/203 172/309/203
f 172/310/204 160/391/204 161/154/204
f 42/290/205 162/392/205 159/307/205
f 159/307/206 162/392/206 163/311/206
f 163/311/207 164/361/207 161/39/207
f 181/313/208 179/393/208 180/314/208
f 178/316/209 181/313/209 182/315/209
f 116/155/210 118/369/210 182/318/210
f 118/320/211 113/394/211 177/317/211
f 115/215/212 116/155/212 180/319/212
f 117/207/213 115/379/213 179/322/213
f 75/324/108 14/395/108 186/325/108
f 75/324/214 185/326/214 183/327/214
f 14/329/10 15/396/10 187/330/10
f 18/331/215 188/282/215 184/283/215
f 15/333/216 74/332/216 184/283/216
f 19/334/1 183/397/1 188/335/1
f 67/340/112 31/339/112 34/338/112
f 67/340/113 64/341/113 65/342/113
f 35/344/114 30/398/114 68/343/114
f 71/345/217 88/399/217 191/346/217
f 88/350/218 78/400/218 190/351/218
f 63/108/219 191/352/219 190/351/219
f 189/122/220 191/346/220 63/129/220
f 36/353/221 190/401/221 78/354/221
