# Blender 4.2.0
# www.blender.org
mtllib axe_a.mtl
g axe_a_Mesh
v 0.018047 0.031502 -0.070367
v -0.018718 0.019608 -0.070367
v 0.018047 0.122992 -0.070367
v -0.018718 0.122992 -0.070367
v 0.004536 -0.069931 0.140058
v -0.001466 -0.069931 0.140058
v 0.018047 0.144997 0.077680
v 0.018047 0.144997 0.020561
v 0.018047 0.144997 -0.042908
v -0.018718 0.139588 -0.042908
v -0.018718 0.144997 0.020561
v -0.018718 0.144997 0.077680
v 0.018047 0.033055 -0.032148
v 0.018047 0.037864 0.009024
v 0.018047 0.041840 0.082598
v -0.018718 0.022726 0.082598
v -0.018718 0.037864 0.009024
v -0.018718 0.033055 -0.032148
v 0.018047 0.044748 -0.087694
v -0.018718 0.033439 -0.098944
v 0.005272 0.133803 -0.096287
v -0.018718 0.112465 -0.098944
v 0.018047 0.113737 -0.070367
v 0.018047 0.079130 -0.070367
v 0.018047 0.054215 -0.070367
v -0.018718 0.054215 -0.070367
v -0.018718 0.079130 -0.070367
v -0.018718 0.113737 -0.070367
v 0.007543 -0.030293 0.153741
v 0.010663 0.050831 0.148274
v -0.009150 0.049980 0.153904
v -0.004647 -0.030293 0.153741
v -0.018718 0.108780 0.083272
v -0.018718 0.076309 0.082496
v -0.018718 0.062549 0.082236
v -0.000335 -0.003465 0.022701
v -0.018718 -0.003465 0.007858
v 0.018047 -0.003465 0.007858
v 0.018047 -0.009784 -0.037118
v -0.018718 -0.009784 -0.037118
v -0.000335 -0.009784 -0.060813
v -0.000335 0.150394 0.020561
v -0.000335 0.144985 -0.042908
v -0.018718 0.150394 0.020561
v -0.018718 0.144985 -0.042908
v 0.018047 0.150394 -0.042908
v 0.018047 0.150394 0.020561
v 0.018047 0.108780 0.083272
v 0.018047 0.076309 0.082496
v 0.018047 0.062549 0.082236
v 0.018047 0.110913 -0.096287
v 0.018047 0.089586 -0.096287
v 0.018047 0.071095 -0.096287
v -0.018718 0.063786 -0.098944
v -0.018718 0.089586 -0.098944
v -0.018718 0.102041 -0.098944
v -0.012634 0.139661 0.121770
v 0.012343 -0.008758 0.121514
v 0.008100 0.139661 0.121770
v -0.018718 -0.018621 0.119130
v -0.014005 0.115010 0.112033
v -0.006617 0.079035 0.115936
v -0.018718 0.027273 0.124135
v 0.006730 0.115010 0.112033
v 0.005075 0.079035 0.115936
v 0.012343 0.027273 0.124135
v -0.000335 0.019608 -0.070367
v -0.000335 0.122992 -0.070367
v -0.003777 0.115010 0.119499
v 0.001535 -0.094980 0.154947
v -0.000335 0.022726 0.082598
v -0.000335 0.037864 0.024865
v -0.000335 0.033055 -0.042908
v -0.000335 0.139588 -0.042908
v -0.000335 0.144997 0.020561
v -0.000335 0.144997 0.077680
v -0.000335 0.033439 -0.103296
v -0.000335 0.121337 -0.103296
v -0.000335 0.063786 -0.103296
v -0.000335 0.089586 -0.103296
v -0.000335 0.110913 -0.103296
v -0.001632 0.079035 0.123402
v 0.003907 0.069898 0.158126
v -0.000031 -0.033988 0.159821
v -0.000335 -0.018621 0.119130
v -0.002267 0.139661 0.129237
v 0.018047 0.144997 -0.051493
v -0.018718 0.030357 -0.053730
v -0.018718 0.126143 -0.051493
v 0.018047 0.030357 -0.053730
v 0.018047 0.117887 -0.051046
v 0.018047 0.085194 -0.051046
v 0.018047 0.061261 -0.051046
v -0.018718 0.104443 -0.051046
v -0.018718 0.085194 -0.051046
v -0.018718 0.061261 -0.051046
v -0.000335 0.137630 -0.051493
v -0.000335 0.030357 -0.053730
v 0.018047 0.144997 0.029193
v -0.018718 0.144997 0.029193
v 0.018047 0.036403 0.029435
v -0.018718 0.036403 0.029435
v 0.018047 0.115639 0.029733
v 0.018047 0.083620 0.029658
v 0.018047 0.069132 0.029399
v -0.018718 0.115639 0.029733
v -0.018718 0.083620 0.029658
v -0.018718 0.069133 0.029399
v -0.000335 0.144997 0.029193
v -0.000335 0.036403 0.035909
v -0.000335 -0.254398 0.023582
v 0.003459 -0.321024 0.022206
v -0.018718 -0.259208 -0.037158
v -0.018718 -0.318746 -0.044279
v 0.025192 0.144997 0.023256
v 0.029710 0.144997 0.016076
v 0.029710 0.144997 -0.038418
v -0.025863 0.126143 -0.045559
v -0.030381 0.139588 -0.038418
v -0.030381 0.144997 0.016076
v 0.025192 0.030357 -0.047418
v 0.029710 0.033055 -0.038418
v 0.029710 0.037864 0.015862
v -0.025863 0.036403 0.023456
v -0.030381 0.037864 0.015862
v -0.030381 0.033055 -0.038418
v -0.030381 0.069836 0.015862
v -0.030381 0.063834 -0.038418
v 0.029710 0.063834 -0.038418
v 0.029710 0.069836 0.015862
v -0.030381 0.116372 0.016076
v -0.030381 0.084401 0.016076
v -0.030381 0.104120 -0.038418
v -0.030381 0.086785 -0.038418
v 0.029710 0.117564 -0.038418
v 0.029710 0.086785 -0.038418
v 0.029710 0.116372 0.016076
v 0.029710 0.084401 0.016076
v 0.025192 0.115639 0.023704
v 0.025192 0.083620 0.023642
v 0.025192 0.069132 0.023427
v -0.025863 0.104443 -0.045186
v -0.025863 0.085194 -0.045186
v -0.025863 0.061261 -0.045186
v 0.025192 0.144997 -0.045559
v -0.025863 0.030357 -0.047418
v 0.025192 0.117887 -0.045186
v 0.025192 0.085194 -0.045186
v 0.025192 0.061261 -0.045186
v -0.025863 0.144997 0.023256
v 0.025192 0.036403 0.023456
v -0.025863 0.115639 0.023704
v -0.025863 0.083620 0.023642
v -0.025863 0.069133 0.023427
v -0.000335 -0.199669 -0.047662
v 0.002306 -0.400507 -0.054922
v -0.018718 -0.305031 0.002140
v 0.018047 -0.199669 -0.030036
v 0.006017 -0.400789 -0.049672
v -0.018718 -0.254398 0.006747
v 0.018047 -0.194860 0.011355
v 0.005774 -0.397551 -0.046725
v 0.018047 -0.313937 0.002140
v -0.018718 -0.194860 0.011355
v -0.011156 -0.337786 -0.009146
v -0.010488 -0.363373 -0.046375
v -0.018718 -0.199670 -0.030036
v 0.018047 -0.254398 0.006747
v 0.001613 -0.396338 -0.045330
v -0.000335 -0.194860 0.030923
v 0.018047 -0.318746 -0.044279
v 0.018047 -0.259208 -0.037158
v -0.000335 -0.318746 -0.064682
v -0.000335 -0.259208 -0.056172
v -0.018718 0.024073 -0.036319
v -0.000335 0.029637 0.024044
v -0.000335 0.024073 -0.059329
v 0.018047 0.024073 -0.036319
v 0.018047 0.029637 0.008582
v -0.018718 0.029637 0.008582
v 0.018047 0.066672 -0.070367
v -0.018718 0.066672 -0.070367
v 0.013791 0.021726 0.153814
v -0.001367 0.025272 0.151146
v -0.018718 0.069429 0.082366
v 0.018047 0.069429 0.082366
v 0.018047 0.080341 -0.096287
v -0.018718 0.076686 -0.098944
v 0.008709 0.053154 0.120036
v -0.012668 0.053154 0.120036
v 0.002200 0.046392 0.174012
v -0.000335 0.076686 -0.103296
v -0.018718 0.073228 -0.051046
v 0.018047 0.073228 -0.051046
v -0.018718 0.076376 0.029529
v 0.018047 0.076376 0.029529
v -0.030381 0.077118 0.015969
v -0.030381 0.075310 -0.038418
v 0.029710 0.075310 -0.038418
v 0.029710 0.077118 0.015969
v -0.025863 0.073228 -0.045186
v 0.025192 0.073228 -0.045186
v -0.025863 0.076376 0.023535
v 0.025192 0.076376 0.023535
v 0.018047 0.060444 -0.070367
v -0.005773 -0.005177 0.145182
v -0.018718 0.065989 0.082301
v 0.018047 0.065989 0.082301
v 0.018047 0.075718 -0.096287
v 0.010526 0.040214 0.122085
v -0.015693 0.040214 0.122085
v -0.018718 0.067244 -0.051046
v 0.018047 0.067244 -0.051046
v -0.018718 0.072754 0.029464
v 0.018047 0.072754 0.029464
v -0.030381 0.073477 0.015915
v -0.030381 0.069572 -0.038418
v 0.029710 0.069572 -0.038418
v 0.029710 0.073477 0.015915
v -0.025863 0.067244 -0.045186
v 0.025192 0.067244 -0.045186
v -0.025863 0.072754 0.023481
v 0.025192 0.072754 0.023481
v -0.018718 0.060444 -0.070367
v 0.007703 -0.003814 0.145182
v -0.018718 0.070236 -0.098944
v -0.000335 0.070236 -0.103296
v -0.014238 -0.335686 -0.047275
v -0.016144 -0.315161 0.000610
v 0.007283 -0.367544 -0.002109
v 0.010201 -0.367040 -0.004323
v 0.018047 -0.354715 -0.051401
v 0.005462 -0.356781 -0.068787
v 0.001935 -0.357246 -0.060791
v 0.005755 -0.368608 -0.005866
v 0.008356 -0.368881 -0.006036
v 0.008586 -0.377835 -0.047958
v -0.001080 -0.387916 -0.057852
v 0.001409 -0.382651 -0.043883
v 0.009951 -0.377563 -0.034644
v 0.007062 -0.386649 -0.047908
v -0.000335 -0.326721 0.008901
v 0.020346 -0.326817 -0.005113
v -0.008457 -0.353252 -0.009284
v 0.008939 -0.349149 -0.012346
v 0.004515 -0.342669 0.002676
v 0.011848 -0.342543 -0.002366
v 0.004446 -0.356408 -0.008487
v -0.001768 -0.357598 -0.007483
vn -1.0000 -0.0000 -0.0000
vn -0.9897 -0.0365 0.1382
vn -0.0000 -0.8399 0.5427
vn 0.9900 -0.0102 0.1406
vn -0.6417 0.0008 0.7669
vn 0.6413 0.0007 0.7673
vn 0.6341 -0.0106 -0.7732
vn 0.6341 -0.0000 -0.7733
vn 1.0000 -0.0000 -0.0000
vn -0.0000 -0.6621 -0.7494
vn 0.0461 -0.9903 -0.1310
vn -0.7263 -0.0841 0.6822
vn -0.0000 0.9750 -0.2224
vn -0.0000 -0.0000 -1.0000
vn -0.0000 1.0000 -0.0000
vn -0.2304 -0.0000 -0.9731
vn -0.9073 0.4200 -0.0211
vn -0.0913 -0.9181 -0.3856
vn 0.8515 0.4752 -0.2215
vn -0.0517 -0.9948 0.0881
vn 0.1225 -0.9659 0.2280
vn 0.6391 0.0117 0.7691
vn -0.6388 -0.0159 -0.7692
vn 0.6449 -0.0018 0.7643
vn -0.6341 -0.0000 -0.7733
vn 0.1089 -0.9864 0.1233
vn 0.0380 0.9944 -0.0987
vn 0.6419 -0.0137 0.7666
vn -0.9906 0.0010 0.1368
vn -0.9645 -0.1768 0.1963
vn -0.9431 0.2544 0.2142
vn 0.8561 0.1959 0.4782
vn -0.8316 0.0107 0.5553
vn -0.5668 -0.2752 0.7765
vn -0.0000 0.8546 0.5194
vn 0.9830 -0.0035 0.1836
vn 0.9320 -0.0087 0.3622
vn 0.9331 0.0549 0.3553
vn -0.6396 0.2221 0.7359
vn -0.8317 0.4898 0.2615
vn 0.7695 -0.2557 -0.5852
vn -0.9307 -0.1839 0.3163
vn 0.9906 0.0024 0.1369
vn -0.0720 0.9924 0.1000
vn -0.0000 0.9928 0.1202
vn 0.4045 -0.3122 -0.8596
vn -0.0311 0.3076 0.9510
vn 0.5492 0.6745 0.4934
vn 0.7389 0.1161 0.6638
vn 0.3563 -0.0000 -0.9344
vn 0.4370 -0.2789 -0.8552
vn 0.4572 -0.7066 -0.5401
vn -0.0000 0.9384 -0.3457
vn 0.4701 0.2624 -0.8427
vn -0.2823 0.9593 -0.0000
vn -0.0614 -0.9956 -0.0713
vn 0.5640 -0.5424 -0.6226
vn -0.0000 -0.9976 -0.0687
vn 0.6807 -0.2847 0.6750
vn 0.5460 -0.3339 0.7684
vn -0.0724 -0.9897 0.1237
vn -0.2525 0.6299 -0.7345
vn -0.3364 0.3511 -0.8738
vn -0.6448 0.0140 0.7642
vn -0.0596 -0.9957 -0.0713
vn -0.4427 0.7085 -0.5495
vn -0.0000 -0.9703 0.2418
vn 0.0358 -0.9942 0.1017
vn -0.6441 -0.0015 0.7649
vn -0.6427 -0.0113 0.7661
vn -0.0000 -0.9597 -0.2811
vn -0.7165 0.0829 -0.6927
vn -0.8594 0.0004 0.5114
vn 0.8892 0.0330 -0.4563
vn 0.8450 -0.0074 -0.5347
vn 0.8317 -0.0000 -0.5552
vn -0.8600 0.0078 0.5102
vn -0.8586 -0.0010 0.5127
vn -0.8588 -0.0076 0.5122
vn -0.8317 -0.0000 -0.5552
vn -0.8450 -0.0000 -0.5347
vn 0.8588 -0.0075 0.5122
vn 0.8604 -0.0000 0.5096
vn 0.8464 -0.0000 0.5326
vn 0.8586 -0.0000 0.5127
vn -0.0825 -0.9866 -0.1407
vn 0.6606 0.0650 -0.7479
vn -0.0623 -0.9913 0.1158
vn -0.6331 0.0558 -0.7720
vn -0.0000 0.9964 -0.0849
vn -0.0000 -0.0000 1.0000
vn 0.6281 -0.0170 0.7779
vn -0.6434 -0.0310 0.7649
vn -0.7812 0.0147 -0.6241
vn 0.7898 0.0269 -0.6127
vn -0.9636 -0.2563 0.0757
vn 0.6282 0.0142 0.7780
vn 0.5256 -0.3443 0.7780
vn -0.6895 0.0860 -0.7191
vn -0.7285 0.0294 0.6844
vn -0.6688 -0.5951 0.4456
vn 0.9984 0.0111 -0.0563
vn 0.7396 0.0952 -0.6663
vn -0.6918 -0.0269 -0.7215
vn -0.7407 -0.0779 -0.6673
vn 0.7894 -0.0424 -0.6124
vn 0.7858 0.1835 -0.5906
vn 0.0530 -0.6700 0.7405
vn 0.7154 0.0989 -0.6917
vn 0.6743 -0.0570 0.7363
vn -0.9800 -0.1719 0.1006
vn -0.6912 -0.0543 0.7206
vn 0.5149 0.7521 -0.4114
vn -0.4689 0.3720 -0.8011
vn -0.6510 -0.0754 0.7554
vn 0.6432 -0.0411 0.7646
vn 0.8589 -0.0075 0.5121
vn -0.6420 -0.0113 0.7667
vn 0.9285 0.1633 0.3335
vn -0.9492 -0.3068 0.0698
vn 0.9321 -0.0068 0.3621
vn -0.7675 0.3963 0.5039
vn 0.9899 0.1298 -0.0578
vn -0.9300 0.2588 0.2612
vn 0.6441 -0.0137 0.7649
vn -0.2786 -0.6835 0.6747
vn -0.6412 -0.0113 0.7672
vn 0.8589 -0.0075 0.5122
vn -0.2266 -0.2630 0.9378
vn -0.8882 0.0388 0.4578
vn 0.9711 -0.0045 0.2388
vn 0.9905 0.1354 -0.0230
vn -0.9369 0.2566 0.2375
vn 0.6426 -0.0137 0.7660
vn -0.9886 -0.1316 0.0727
vn -0.0800 -0.9501 0.3017
vn -0.6426 -0.4184 0.6419
vn 0.8218 -0.5051 0.2636
vn -0.8370 -0.3825 -0.3914
vn 0.5136 -0.3282 -0.7928
vn -0.9849 0.1097 0.1342
vn -0.1914 -0.7742 0.6033
vn 0.9878 0.1165 -0.1036
vn 0.7749 -0.1375 -0.6169
vn 0.8168 0.0116 -0.5768
vn 0.9836 -0.1298 -0.1253
vn 0.2910 -0.0963 0.9519
vn -0.9672 -0.2510 0.0392
vn 0.5622 -0.1467 0.8139
vn -0.0531 -0.4429 -0.8950
vn -0.4545 -0.3624 0.8137
vn 0.8824 -0.4677 0.0524
vn 0.6124 0.0220 -0.7903
vn -0.7691 -0.4604 0.4433
vn -0.0861 -0.2180 -0.9721
vn 0.5652 -0.0948 0.8195
vn -0.8377 -0.2370 0.4919
vn 0.9916 -0.1025 0.0792
vn -0.6413 0.0007 0.7673
vn 0.6417 0.0008 0.7669
vn 0.6388 -0.0127 -0.7692
vn 0.0614 -0.9956 -0.0713
vn -0.6743 -0.0570 0.7363
vn -0.3187 0.5101 -0.7989
vn -0.0000 0.9229 0.3849
vn -0.0000 -0.9001 -0.4356
vn 0.0623 -0.9913 0.1158
vn -0.1089 -0.9864 0.1233
vn 0.6448 0.0140 0.7642
vn -0.6340 -0.0133 -0.7732
vn 0.6441 -0.0015 0.7649
vn -0.1225 -0.9659 0.2280
vn -0.0327 0.9959 -0.0849
vn 0.6412 -0.0113 0.7672
vn -0.9874 0.0242 0.1566
vn -0.9401 -0.0081 0.3408
vn -0.9972 -0.0014 0.0749
vn 0.9208 0.1149 0.3728
vn -0.5893 -0.0334 0.8073
vn -0.5621 -0.2739 0.7804
vn 0.9445 0.1765 0.2772
vn 0.9303 -0.0030 0.3667
vn 0.9700 -0.1340 0.2026
vn -0.5915 0.2592 0.7635
vn -0.6500 0.6238 0.4340
vn -0.0000 -0.3777 -0.9259
vn -0.9302 -0.0398 0.3648
vn 0.9911 -0.0097 0.1327
vn 0.0760 0.9915 0.1055
vn -0.6149 -0.3472 -0.7081
vn -0.0000 0.3226 0.9465
vn 0.9320 0.3583 -0.0544
vn 0.5782 0.0617 0.8136
vn 0.6471 -0.0000 -0.7624
vn 0.6673 -0.6867 -0.2884
vn -0.4428 0.8955 -0.0450
vn -0.3640 0.9081 -0.2072
vn -0.0461 -0.9903 -0.1310
vn 0.5485 -0.5536 -0.6266
vn 0.4775 -0.7380 0.4768
vn 0.9775 0.0082 0.2109
vn 0.5505 -0.3357 0.7644
vn -0.0000 0.7902 -0.6128
vn -0.5734 0.4409 -0.6905
vn -0.6391 0.0117 0.7691
vn 0.0825 -0.9866 -0.1407
vn -0.0000 0.9863 -0.1647
vn 0.0724 -0.9897 0.1237
vn 0.7063 -0.6793 -0.1990
vn -0.6449 -0.0018 0.7643
vn -0.6441 -0.0137 0.7649
vn 0.0874 -0.9648 -0.2482
vn -0.7396 0.0952 -0.6663
vn -0.8585 -0.0000 0.5127
vn -0.8464 -0.0000 0.5326
vn -0.8604 -0.0000 0.5096
vn -0.8588 -0.0075 0.5122
vn -0.8314 -0.0095 -0.5555
vn -0.8892 0.0330 -0.4563
vn 0.8588 -0.0076 0.5122
vn 0.8586 -0.0010 0.5127
vn 0.8601 0.0078 0.5101
vn 0.8594 0.0004 0.5114
vn 0.0596 -0.9957 -0.0713
vn 0.6331 0.0558 -0.7720
vn 0.0517 -0.9948 0.0881
vn -0.6606 0.0650 -0.7479
vn -0.2813 0.9561 -0.0815
vn 0.6434 -0.0310 0.7649
vn -0.6281 -0.0170 0.7779
vn -0.7898 0.0269 -0.6127
vn 0.7812 0.0147 -0.6241
vn -0.9605 -0.2675 0.0765
vn 0.7285 0.0294 0.6844
vn 0.6029 -0.7811 0.1625
vn -0.7154 0.0989 -0.6917
vn -0.6282 0.0142 0.7780
vn -0.7474 -0.2809 0.6021
vn 0.9823 0.1862 -0.0193
vn 0.7165 0.0829 -0.6927
vn -0.7894 -0.0424 -0.6124
vn -0.7585 -0.0455 -0.6501
vn 0.6918 -0.0269 -0.7215
vn 0.7365 0.1314 -0.6636
vn -0.5043 -0.8047 0.3133
vn 0.6895 0.0860 -0.7191
vn 0.8028 0.0334 0.5954
vn 0.5958 -0.7825 0.1809
vn 0.7263 -0.0841 0.6822
vn -0.6739 -0.0670 0.7358
vn 0.4689 0.3720 -0.8011
vn -0.5149 0.7521 -0.4114
vn -0.6432 -0.0411 0.7646
vn 0.6510 -0.0754 0.7554
vn 0.8589 -0.0076 0.5122
vn -0.8589 -0.0075 0.5121
vn -0.6426 -0.0137 0.7660
vn 0.9297 0.1574 0.3328
vn -0.9619 0.2443 0.1228
vn 0.9338 0.1801 0.3093
vn -0.8495 -0.3149 0.4233
vn 0.9936 0.0952 -0.0609
vn -0.9401 -0.0064 0.3407
vn 0.6427 -0.0113 0.7661
vn -0.6419 -0.0137 0.7666
vn 0.0197 -0.1949 0.9806
vn -0.8004 0.2718 0.5343
vn 0.9393 0.1783 0.2931
vn 0.9668 -0.1645 -0.1953
vn -0.9875 -0.0030 0.1573
vn 0.6420 -0.0113 0.7667
vn -0.9682 -0.2414 0.0650
vn 0.4391 -0.8071 0.3948
vn -0.8065 -0.1459 0.5730
vn 0.9069 -0.3325 0.2589
vn -0.7261 -0.1204 -0.6769
vn 0.1502 -0.9886 0.0087
vn -0.9763 -0.1054 -0.1888
vn 0.2727 -0.5879 0.7616
vn 0.9806 -0.1701 -0.0971
vn 0.7741 -0.1354 -0.6184
vn 0.7687 0.0586 -0.6369
vn 0.9780 -0.0954 0.1857
vn -0.6034 -0.3163 0.7320
vn -0.9816 -0.0345 0.1879
vn 0.5536 -0.1562 0.8180
vn -0.0564 -0.4551 -0.8887
vn -0.3919 -0.4355 0.8104
vn 0.8654 -0.4954 0.0758
vn 0.6496 0.0546 -0.7583
vn -0.6606 -0.2120 0.7201
vn -0.1143 -0.2203 -0.9687
vn 0.6125 -0.1038 0.7836
vt 0.560209 0.320515
vt 0.573630 0.321120
vt 0.573630 0.326038
vt 0.549401 0.351359
vt 0.553510 0.358777
vt 0.550400 0.363960
vt 0.559321 0.347686
vt 0.566400 0.354492
vt 0.559387 0.354497
vt 0.573568 0.352401
vt 0.568733 0.349152
vt 0.569141 0.343704
vt 0.560209 0.348598
vt 0.552396 0.359851
vt 0.551136 0.345270
vt 0.557083 0.338673
vt 0.565627 0.339597
vt 0.558133 0.348153
vt 0.542648 0.363141
vt 0.546373 0.368738
vt 0.542650 0.368701
vt 0.561228 0.347877
vt 0.556682 0.356230
vt 0.556679 0.347952
vt 0.546730 0.349855
vt 0.551376 0.343344
vt 0.551358 0.350129
vt 0.551368 0.358293
vt 0.546740 0.358019
vt 0.562855 0.338377
vt 0.554867 0.342319
vt 0.554872 0.337370
vt 0.555281 0.334069
vt 0.559836 0.318359
vt 0.561038 0.333238
vt 0.563609 0.347300
vt 0.553019 0.348194
vt 0.553045 0.345988
vt 0.298970 0.117800
vt 0.293087 0.135254
vt 0.292892 0.117559
vt 0.564230 0.364035
vt 0.554812 0.362474
vt 0.564264 0.362457
vt 0.343746 0.081356
vt 0.341874 0.085938
vt 0.339992 0.081184
vt 0.548978 0.362984
vt 0.558282 0.337958
vt 0.558431 0.362934
vt 0.558629 0.331385
vt 0.550772 0.330913
vt 0.558629 0.327073
vt 0.573267 0.357621
vt 0.575813 0.362360
vt 0.568617 0.364643
vt 0.566495 0.353598
vt 0.568681 0.362405
vt 0.566528 0.364858
vt 0.566283 0.364650
vt 0.559268 0.366303
vt 0.554526 0.357473
vt 0.557767 0.364558
vt 0.551463 0.364643
vt 0.557048 0.357493
vt 0.563578 0.364603
vt 0.571570 0.357607
vt 0.567357 0.364633
vt 0.550772 0.363607
vt 0.558629 0.350882
vt 0.558629 0.363437
vt 0.550772 0.345715
vt 0.558629 0.340208
vt 0.558629 0.345545
vt 0.550772 0.335226
vt 0.562194 0.325910
vt 0.554938 0.330338
vt 0.554867 0.325899
vt 0.563027 0.331387
vt 0.554916 0.335179
vt 0.562866 0.337857
vt 0.554883 0.336822
vt 0.542433 0.351415
vt 0.535733 0.361178
vt 0.535733 0.350027
vt 0.551372 0.361281
vt 0.546744 0.361007
vt 0.542446 0.359902
vt 0.538352 0.363074
vt 0.561231 0.328689
vt 0.556647 0.336184
vt 0.556679 0.328763
vt 0.550309 0.336946
vt 0.546904 0.333098
vt 0.550895 0.333013
vt 0.561204 0.344210
vt 0.561192 0.336109
vt 0.549811 0.340423
vt 0.546322 0.337029
vt 0.563586 0.359897
vt 0.567709 0.363067
vt 0.563595 0.364350
vt 0.554784 0.350824
vt 0.548801 0.361662
vt 0.548801 0.351658
vt 0.556673 0.347035
vt 0.561222 0.346960
vt 0.549193 0.344747
vt 0.545360 0.343748
vt 0.549347 0.343666
vt 0.573883 0.362428
vt 0.577566 0.362907
vt 0.573910 0.364002
vt 0.566583 0.314333
vt 0.559438 0.320546
vt 0.557397 0.315457
vt 0.565449 0.321818
vt 0.558505 0.327986
vt 0.557439 0.336001
vt 0.565683 0.331369
vt 0.551346 0.314658
vt 0.551136 0.324896
vt 0.560209 0.336843
vt 0.551136 0.333978
vt 0.560209 0.345659
vt 0.551136 0.342447
vt 0.572284 0.348396
vt 0.568825 0.341742
vt 0.563773 0.337796
vt 0.564519 0.363546
vt 0.560397 0.363086
vt 0.570895 0.320580
vt 0.571592 0.338461
vt 0.554581 0.320371
vt 0.554581 0.313363
vt 0.559885 0.320200
vt 0.573630 0.358405
vt 0.560209 0.364926
vt 0.573630 0.338000
vt 0.560209 0.342720
vt 0.573630 0.331914
vt 0.567877 0.335855
vt 0.562899 0.336297
vt 0.567309 0.330419
vt 0.557420 0.356436
vt 0.564006 0.346176
vt 0.555669 0.364877
vt 0.556255 0.427655
vt 0.550146 0.433663
vt 0.549009 0.429560
vt 0.562755 0.350365
vt 0.564596 0.358832
vt 0.550741 0.350590
vt 0.562903 0.341509
vt 0.551659 0.315311
vt 0.556967 0.311437
vt 0.562321 0.315254
vt 0.567735 0.337908
vt 0.564635 0.350094
vt 0.564457 0.329746
vt 0.551492 0.364399
vt 0.552859 0.355438
vt 0.568966 0.335837
vt 0.572787 0.340143
vt 0.556274 0.363089
vt 0.565999 0.332000
vt 0.565999 0.340823
vt 0.565999 0.344648
vt 0.565630 0.359966
vt 0.565999 0.348473
vt 0.552184 0.359862
vt 0.552289 0.353934
vt 0.560066 0.363437
vt 0.560223 0.353631
vt 0.560668 0.322439
vt 0.567883 0.362884
vt 0.343746 0.090692
vt 0.345627 0.086111
vt 0.542468 0.347306
vt 0.564635 0.311610
vt 0.552308 0.347690
vt 0.574441 0.352940
vt 0.571469 0.358383
vt 0.556274 0.319768
vt 0.556971 0.337649
vt 0.553006 0.362085
vt 0.542454 0.364356
vt 0.572766 0.353565
vt 0.566755 0.347093
vt 0.573177 0.347032
vt 0.550754 0.330835
vt 0.544534 0.330821
vt 0.542652 0.350254
vt 0.546351 0.355275
vt 0.542625 0.355237
vt 0.538354 0.348521
vt 0.571384 0.352344
vt 0.564863 0.352293
vt 0.566478 0.357567
vt 0.555955 0.352222
vt 0.560249 0.347170
vt 0.579800 0.353141
vt 0.579455 0.357669
vt 0.573689 0.350788
vt 0.579867 0.361593
vt 0.553024 0.364353
vt 0.549907 0.334820
vt 0.560492 0.361845
vt 0.549915 0.365547
vt 0.564237 0.350806
vt 0.573663 0.349205
vt 0.565668 0.330658
vt 0.576546 0.329989
vt 0.576486 0.326996
vt 0.565624 0.328526
vt 0.576456 0.320381
vt 0.542632 0.360678
vt 0.546358 0.360715
vt 0.551102 0.350336
vt 0.554758 0.349241
vt 0.542640 0.361909
vt 0.546364 0.361946
vt 0.564211 0.349223
vt 0.571254 0.336180
vt 0.560683 0.336187
vt 0.577355 0.350287
vt 0.579701 0.351599
vt 0.576554 0.336751
vt 0.305127 0.117532
vt 0.316394 0.132508
vt 0.303516 0.134143
vt 0.306737 0.100920
vt 0.317306 0.115912
vt 0.310268 0.123114
vt 0.303668 0.142270
vt 0.303790 0.123889
vt 0.536159 0.364591
vt 0.541736 0.372512
vt 0.536047 0.372877
vt 0.580230 0.365995
vt 0.541825 0.364417
vt 0.571281 0.365956
vt 0.582921 0.364974
vt 0.583967 0.366318
vt 0.570280 0.364938
vt 0.581105 0.357036
vt 0.537106 0.356881
vt 0.548213 0.364877
vt 0.536946 0.364845
vt 0.548862 0.356914
vt 0.560854 0.364912
vt 0.567924 0.364932
vt 0.567974 0.356999
vt 0.548025 0.365891
vt 0.536890 0.365914
vt 0.561452 0.365929
vt 0.568824 0.365949
vt 0.580441 0.346815
vt 0.541803 0.352634
vt 0.541883 0.345386
vt 0.580343 0.355795
vt 0.541714 0.360729
vt 0.580246 0.364542
vt 0.541798 0.363495
vt 0.536492 0.345383
vt 0.536092 0.352815
vt 0.536047 0.360922
vt 0.536131 0.363674
vt 0.584721 0.365143
vt 0.584825 0.355725
vt 0.580294 0.360184
vt 0.585149 0.350231
vt 0.584705 0.366658
vt 0.580145 0.373788
vt 0.566762 0.355908
vt 0.566479 0.356987
vt 0.549150 0.355826
vt 0.561993 0.356951
vt 0.537091 0.355857
vt 0.568250 0.355920
vt 0.563574 0.351410
vt 0.567712 0.348514
vt 0.570287 0.350019
vt 0.571207 0.366853
vt 0.583892 0.367281
vt 0.570287 0.361169
vt 0.544534 0.350347
vt 0.545205 0.344829
vt 0.302835 0.095830
vt 0.289987 0.079746
vt 0.303036 0.079746
vt 0.316114 0.095815
vt 0.316085 0.079746
vt 0.327292 0.074460
vt 0.330061 0.086005
vt 0.327292 0.086090
vt 0.308355 0.109475
vt 0.304518 0.093417
vt 0.308355 0.093418
vt 0.314775 0.111285
vt 0.310941 0.106655
vt 0.314775 0.106662
vt 0.314775 0.115907
vt 0.310941 0.111278
vt 0.311324 0.034250
vt 0.299075 0.041559
vt 0.299070 0.032455
vt 0.288481 0.051488
vt 0.293363 0.061083
vt 0.288474 0.061283
vt 0.299285 0.051469
vt 0.293348 0.051280
vt 0.303601 0.038707
vt 0.316057 0.046086
vt 0.303589 0.048132
vt 0.317134 0.034396
vt 0.311345 0.043563
vt 0.297002 0.038762
vt 0.296800 0.048192
vt 0.296999 0.094156
vt 0.311498 0.128543
vt 0.299168 0.127293
vt 0.298877 0.124498
vt 0.319983 0.045898
vt 0.318217 0.099317
vt 0.312041 0.053377
vt 0.317551 0.046024
vt 0.313829 0.057290
vt 0.310343 0.104806
vt 0.303912 0.105509
vt 0.292705 0.128787
vt 0.296413 0.130430
vt 0.314482 0.136150
vt 0.301759 0.144197
vt 0.299638 0.117561
vt 0.297642 0.134181
vt 0.305305 0.045341
vt 0.310193 0.141423
vt 0.305089 0.147501
vt 0.309898 0.112133
vt 0.297912 0.110551
vt 0.301635 0.100941
vt 0.296800 0.144820
vt 0.311894 0.049648
vt 0.309040 0.053295
vt 0.309025 0.050924
vt 0.308297 0.095723
vt 0.321786 0.115712
vt 0.317588 0.078811
vt 0.310735 0.052578
vt 0.312124 0.050794
vt 0.299182 0.150487
vt 0.291955 0.154969
vt 0.306705 0.091997
vt 0.302088 0.079333
vt 0.318450 0.092372
vt 0.302088 0.105431
vt 0.299053 0.105051
vt 0.304706 0.036181
vt 0.316053 0.036871
vt 0.299278 0.049031
vt 0.293328 0.048838
vt 0.288474 0.049051
vt 0.310235 0.031757
vt 0.298997 0.030191
vt 0.562300 0.355872
vt 0.564984 0.356975
vt 0.584771 0.360598
vt 0.580262 0.363090
vt 0.541770 0.362573
vt 0.536103 0.362756
vt 0.565567 0.364925
vt 0.566366 0.365942
vt 0.542644 0.362525
vt 0.546368 0.362562
vt 0.576516 0.328492
vt 0.565654 0.329948
vt 0.568124 0.352318
vt 0.569872 0.357594
vt 0.565999 0.346561
vt 0.576626 0.340795
vt 0.573633 0.344554
vt 0.557179 0.432991
vt 0.550569 0.438773
vt 0.562877 0.337337
vt 0.573630 0.341044
vt 0.545786 0.434421
vt 0.568509 0.339779
vt 0.551136 0.339624
vt 0.557794 0.333330
vt 0.549502 0.342585
vt 0.545824 0.340506
vt 0.561216 0.346043
vt 0.556658 0.344285
vt 0.551374 0.362775
vt 0.546746 0.362501
vt 0.554894 0.336275
vt 0.550772 0.348383
vt 0.558629 0.348214
vt 0.566098 0.364623
vt 0.561639 0.345147
vt 0.567127 0.327726
vt 0.572479 0.345147
vt 0.550772 0.351052
vt 0.551376 0.364269
vt 0.546748 0.363995
vt 0.573630 0.344087
vt 0.546371 0.363178
vt 0.565275 0.355896
vt 0.584738 0.363628
vt 0.576531 0.329241
vt 0.569754 0.352331
vt 0.556936 0.345655
vt 0.551492 0.346230
vt 0.556823 0.435663
vt 0.551897 0.445058
vt 0.545515 0.342668
vt 0.556668 0.346118
vt 0.301573 0.133573
vt 0.312100 0.133220
vt 0.311593 0.140828
vt 0.304678 0.045959
vt 0.306222 0.044693
vt 0.305733 0.046608
vt 0.312485 0.142352
vt 0.315244 0.139235
vt 0.317342 0.139156
vt 0.328599 0.046194
vt 0.336718 0.042340
vt 0.336718 0.057345
vt 0.307440 0.136010
vt 0.326402 0.146452
vt 0.304520 0.146336
vt 0.300312 0.057260
vt 0.305408 0.042184
vt 0.305408 0.060802
vt 0.306472 0.150406
vt 0.302757 0.150560
vt 0.299962 0.153380
vt 0.302808 0.153004
vt 0.300892 0.156881
vt 0.302394 0.156945
vt 0.303191 0.156024
vt 0.311281 0.126864
vt 0.316831 0.117296
vt 0.314246 0.126717
vt 0.297818 0.137800
vt 0.295401 0.144758
vt 0.303876 0.133672
vt 0.314125 0.124240
vt 0.308516 0.134734
vt 0.305043 0.128372
vt 0.297861 0.122310
vt 0.310496 0.124858
vt 0.316479 0.144793
vt 0.311010 0.146582
vt 0.315251 0.140465
vt 0.305074 0.137227
vt 0.313151 0.122310
vt 0.302698 0.151660
vt 0.303840 0.152836
vt 0.301959 0.136731
vt 0.303553 0.137697
vt 0.560209 0.316148
vt 0.566334 0.347681
vt 0.561231 0.356156
vt 0.546753 0.343067
vt 0.554079 0.319190
vt 0.299072 0.135460
vt 0.554424 0.364076
vt 0.548830 0.338008
vt 0.550772 0.340378
vt 0.562978 0.319909
vt 0.568797 0.326698
vt 0.563582 0.341639
vt 0.557890 0.427648
vt 0.574243 0.337242
vt 0.339992 0.090520
vt 0.573693 0.362165
vt 0.546373 0.350291
vt 0.548567 0.352286
vt 0.576554 0.314315
vt 0.571056 0.365532
vt 0.586198 0.374485
vt 0.581692 0.355953
vt 0.548547 0.350251
vt 0.289786 0.095830
vt 0.330061 0.074375
vt 0.304518 0.109474
vt 0.310941 0.115900
vt 0.299278 0.061264
vt 0.317342 0.043712
vt 0.323458 0.099099
vt 0.312041 0.041925
vt 0.311941 0.044323
vt 0.311941 0.153255
vt 0.311894 0.056800
vt 0.321859 0.134277
vt 0.310735 0.090018
vt 0.299053 0.078952
vt 0.316124 0.034579
vt 0.304497 0.044693
vt 0.301449 0.137827
vt 0.330579 0.044253
vt 0.326402 0.110588
vt 0.297628 0.045345
vt 0.298988 0.144880
vt 0.311281 0.111782
vt 0.300945 0.121547
vt 0.300622 0.127280
vt 0.313554 0.144324
vt 0.300945 0.150934
s 0
g axe_a_Material
usemtl Material
f 28/1/1 22/2/1 56/3/1
f 84/4/2 6/5/2 70/6/2
f 98/7/3 2/8/3 67/9/3
f 29/10/4 58/11/4 66/12/4
f 26/13/1 88/14/1 96/15/1
f 63/16/1 16/17/1 60/18/1
f 108/19/5 124/20/5 102/21/5
f 105/22/6 151/23/6 141/24/6
f 91/25/7 145/26/7 147/27/7
f 91/25/8 148/28/8 92/29/8
f 50/30/9 101/31/9 105/32/9
f 60/33/10 71/34/10 85/35/10
f 102/36/11 72/37/11 110/38/11
f 164/39/12 111/40/12 170/41/12
f 97/42/13 10/43/13 74/44/13
f 9/45/14 43/46/14 46/47/14
f 100/48/15 76/49/15 109/50/15
f 81/51/16 22/52/16 78/53/16
f 25/54/9 19/55/9 53/56/9
f 68/57/17 21/58/17 78/59/17
f 67/9/18 20/60/18 77/61/18
f 3/62/19 51/63/19 21/64/19
f 23/65/9 52/66/9 51/63/9
f 205/67/9 53/56/9 209/68/9
f 20/69/16 79/70/16 77/71/16
f 188/72/16 80/73/16 192/74/16
f 80/73/16 56/75/16 81/51/16
f 7/76/9 103/77/9 99/78/9
f 48/79/9 104/80/9 103/77/9
f 208/81/9 105/32/9 215/82/9
f 14/83/20 122/84/20 123/85/20
f 92/29/8 202/86/8 194/87/8
f 13/88/21 121/89/21 122/84/21
f 99/90/22 139/91/22 115/92/22
f 94/93/23 118/94/23 89/95/23
f 104/96/24 139/91/24 103/97/24
f 95/98/25 142/99/25 94/93/25
f 18/100/26 146/101/26 88/102/26
f 11/103/27 119/104/27 120/105/27
f 105/22/28 223/106/28 215/107/28
f 96/108/25 220/109/25 212/110/25
f 9/111/15 145/112/15 87/113/15
f 12/114/29 61/115/29 57/116/29
f 33/117/30 62/118/30 61/115/30
f 211/119/31 35/120/31 63/16/31
f 89/121/1 28/1/1 94/122/1
f 94/122/1 27/123/1 95/124/1
f 224/125/1 96/15/1 212/126/1
f 225/127/32 66/12/32 210/128/32
f 69/129/33 62/130/33 82/131/33
f 69/129/34 57/132/34 61/133/34
f 84/134/35 29/135/35 32/136/35
f 26/13/1 20/137/1 2/138/1
f 27/123/1 188/139/1 182/140/1
f 27/123/1 56/3/1 55/141/1
f 210/128/36 50/30/36 208/81/36
f 48/79/37 65/142/37 49/143/37
f 7/76/38 64/144/38 48/79/38
f 206/145/39 63/146/39 32/147/39
f 82/148/40 31/149/40 83/150/40
f 6/151/41 85/35/41 70/152/41
f 32/153/42 60/18/42 6/5/42
f 66/12/43 15/154/43 50/30/43
f 76/49/44 57/155/44 86/156/44
f 76/49/45 59/157/45 7/158/45
f 5/159/46 85/35/46 58/160/46
f 206/145/47 29/161/47 225/162/47
f 82/163/48 30/164/48 65/142/48
f 65/165/49 69/129/49 82/131/49
f 80/73/50 51/166/50 52/167/50
f 187/168/50 80/73/50 52/167/50
f 19/169/51 79/70/51 53/170/51
f 67/9/52 19/171/52 1/172/52
f 68/57/53 22/173/53 4/174/53
f 51/166/54 78/53/54 21/175/54
f 109/50/15 7/158/15 99/176/15
f 10/177/14 43/46/14 74/178/14
f 87/113/55 74/44/55 9/111/55
f 101/179/56 72/37/56 14/83/56
f 58/160/57 71/34/57 15/180/57
f 98/7/58 1/172/58 90/181/58
f 84/182/59 5/183/59 29/10/59
f 59/184/60 69/129/60 64/185/60
f 73/186/61 90/187/61 13/88/61
f 3/188/62 97/189/62 87/190/62
f 10/191/63 118/94/63 119/192/63
f 100/193/64 152/194/64 106/195/64
f 14/83/65 151/196/65 101/179/65
f 205/67/9 93/197/9 25/54/9
f 23/65/9 92/198/9 24/199/9
f 3/62/9 91/200/9 23/65/9
f 68/57/66 89/201/66 97/189/66
f 25/54/9 90/202/9 1/203/9
f 8/204/15 117/205/15 9/111/15
f 73/186/67 88/102/67 98/206/67
f 15/207/68 110/208/68 101/209/68
f 75/210/15 99/211/15 8/204/15
f 207/212/1 108/213/1 35/120/1
f 33/117/1 107/214/1 34/215/1
f 12/114/1 106/216/1 33/117/1
f 107/217/69 152/194/69 153/218/69
f 11/103/15 150/219/15 100/220/15
f 195/221/70 153/218/70 203/222/70
f 11/103/15 109/223/15 75/210/15
f 16/224/71 110/208/71 71/225/71
f 8/204/15 115/226/15 116/227/15
f 35/120/1 102/228/1 16/17/1
f 172/229/9 163/230/9 171/231/9
f 158/232/9 168/233/9 172/229/9
f 174/234/72 114/235/72 113/236/72
f 154/237/73 125/238/73 124/239/73
f 128/240/1 125/238/1 127/241/1
f 149/242/74 122/243/74 121/244/74
f 129/245/9 123/246/9 122/243/9
f 116/247/9 135/248/9 117/249/9
f 137/250/9 136/251/9 135/248/9
f 218/252/9 130/253/9 129/245/9
f 117/249/75 147/254/75 145/255/75
f 147/254/76 136/251/76 148/256/76
f 221/257/76 129/245/76 149/242/76
f 119/258/1 131/259/1 120/260/1
f 133/261/1 132/262/1 131/259/1
f 217/263/1 127/241/1 216/264/1
f 150/265/77 131/259/77 152/266/77
f 152/266/78 132/262/78 153/267/78
f 222/268/79 127/241/79 154/237/79
f 220/269/80 128/240/80 217/263/80
f 142/270/80 134/271/80 133/261/80
f 118/272/81 133/261/81 119/258/81
f 144/273/80 126/274/80 128/240/80
f 223/275/82 130/253/82 219/276/82
f 139/277/83 138/278/83 137/250/83
f 115/279/84 137/250/84 116/247/84
f 141/280/85 123/246/85 130/253/85
f 17/281/86 124/282/86 125/283/86
f 93/284/87 121/244/87 90/285/87
f 17/281/88 126/286/88 18/100/88
f 96/108/89 146/287/89 144/288/89
f 43/289/90 44/290/90 42/291/90
f 46/292/15 42/291/15 47/293/15
f 11/294/1 45/295/1 10/296/1
f 9/297/9 47/298/9 8/299/9
f 75/300/91 44/301/91 11/302/91
f 8/303/91 42/304/91 75/300/91
f 175/305/1 37/306/1 180/307/1
f 179/308/92 36/309/92 38/310/92
f 180/311/93 36/309/93 176/312/93
f 178/313/9 38/314/9 39/315/9
f 177/316/94 40/317/94 175/305/94
f 177/318/95 39/315/95 41/319/95
f 40/317/1 164/320/1 37/306/1
f 114/321/96 229/322/96 157/323/96
f 36/324/97 161/325/97 38/314/97
f 163/326/98 242/327/98 243/328/98
f 155/329/99 113/236/99 167/330/99
f 36/309/100 164/39/100 170/41/100
f 112/331/101 229/322/101 242/332/101
f 39/315/9 161/325/9 158/232/9
f 171/231/102 243/333/102 232/334/102
f 174/335/103 171/231/103 173/336/103
f 40/337/104 155/329/104 167/330/104
f 173/338/105 228/339/105 114/235/105
f 113/340/1 157/323/1 160/341/1
f 39/315/106 155/342/106 41/319/106
f 173/336/107 232/334/107 233/343/107
f 169/344/108 159/345/108 162/346/108
f 167/347/1 160/341/1 164/320/1
f 155/342/109 172/229/109 174/335/109
f 111/348/110 163/230/110 168/233/110
f 166/349/111 244/350/111 165/351/111
f 161/325/110 111/348/110 168/233/110
f 111/40/112 157/352/112 112/353/112
f 73/354/113 178/355/113 177/356/113
f 73/354/114 175/357/114 18/358/114
f 13/359/9 179/360/9 178/313/9
f 17/361/115 176/312/115 72/362/115
f 14/363/116 176/312/116 179/308/116
f 18/364/1 180/307/1 17/365/1
f 140/366/117 200/367/117 138/278/117
f 143/368/80 198/369/80 134/271/80
f 153/267/79 197/370/79 203/371/79
f 134/271/1 197/370/1 132/262/1
f 148/256/76 199/372/76 202/373/76
f 136/251/9 200/367/9 199/372/9
f 214/374/118 203/222/118 222/375/118
f 34/215/1 195/376/1 185/377/1
f 24/199/9 194/378/9 181/379/9
f 209/380/50 192/74/50 187/168/50
f 30/164/119 191/381/119 183/382/119
f 31/149/120 190/383/120 184/384/120
f 65/142/121 186/385/121 49/143/121
f 182/140/1 226/386/1 224/125/1
f 31/149/122 191/387/122 83/150/122
f 30/164/123 189/388/123 65/142/123
f 27/123/1 193/389/1 95/124/1
f 62/118/124 185/377/124 190/390/124
f 193/391/25 143/392/25 95/98/25
f 196/393/125 140/394/125 104/96/125
f 194/87/8 221/395/8 213/396/8
f 49/143/9 196/397/9 104/80/9
f 226/398/16 192/74/16 227/399/16
f 24/199/9 187/400/9 52/66/9
f 183/401/126 191/402/126 184/403/126
f 54/404/16 227/399/16 79/70/16
f 213/396/8 149/405/8 93/406/8
f 224/125/1 54/407/1 26/13/1
f 53/170/50 227/399/50 209/380/50
f 108/19/127 222/375/127 154/408/127
f 204/409/128 219/276/128 200/367/128
f 201/410/80 217/263/80 198/369/80
f 203/371/79 216/264/79 222/268/79
f 198/369/1 216/264/1 197/370/1
f 202/373/76 218/252/76 221/257/76
f 199/372/9 219/276/9 218/252/9
f 185/377/1 214/411/1 207/212/1
f 181/379/9 213/412/9 205/67/9
f 184/413/129 225/162/129 183/414/129
f 184/384/130 211/415/130 206/416/130
f 189/388/131 208/81/131 186/385/131
f 183/382/132 210/128/132 189/388/132
f 182/140/1 212/126/1 193/389/1
f 190/390/133 207/212/133 211/119/133
f 212/110/25 201/417/25 193/391/25
f 215/107/134 204/418/134 196/393/134
f 186/385/9 215/82/9 196/397/9
f 181/379/9 209/68/9 187/400/9
f 165/419/135 228/420/135 166/421/135
f 236/422/136 230/423/136 235/424/136
f 165/419/137 242/332/137 229/322/137
f 245/425/138 232/334/138 243/333/138
f 234/426/139 228/420/139 233/427/139
f 234/428/140 232/429/140 237/430/140
f 239/431/141 234/432/141 238/433/141
f 240/434/142 244/435/142 239/436/142
f 240/437/143 237/438/143 245/425/143
f 238/439/144 237/438/144 241/440/144
f 156/441/145 241/440/145 159/442/145
f 162/443/146 241/440/146 240/437/146
f 162/444/147 239/445/147 169/446/147
f 169/447/148 238/433/148 156/448/148
f 247/449/149 242/450/149 246/451/149
f 248/452/150 244/453/150 245/454/150
f 246/451/151 244/455/151 249/456/151
f 247/457/152 245/425/152 243/333/152
f 231/458/153 248/452/153 247/459/153
f 230/460/154 249/456/154 235/461/154
f 235/462/155 248/452/155 236/463/155
f 230/460/156 247/449/156 246/451/156
f 28/1/1 4/464/1 22/2/1
f 84/4/157 32/153/157 6/5/157
f 98/7/3 88/465/3 2/8/3
f 29/10/158 5/183/158 58/11/158
f 26/13/1 2/138/1 88/14/1
f 63/16/1 35/120/1 16/17/1
f 108/19/159 154/408/159 124/20/159
f 105/22/160 101/466/160 151/23/160
f 91/25/161 87/467/161 145/26/161
f 91/25/8 147/27/8 148/28/8
f 50/30/9 15/154/9 101/31/9
f 60/33/10 16/468/10 71/34/10
f 102/36/162 17/281/162 72/37/162
f 164/39/163 160/469/163 111/40/163
f 97/42/164 89/470/164 10/43/164
f 9/45/14 74/178/14 43/46/14
f 100/48/15 12/471/15 76/49/15
f 81/51/16 56/75/16 22/52/16
f 25/54/9 1/203/9 19/55/9
f 68/57/165 3/188/165 21/58/165
f 67/9/166 2/8/166 20/60/166
f 3/62/9 23/65/9 51/63/9
f 23/65/9 24/199/9 52/66/9
f 205/67/9 25/54/9 53/56/9
f 20/69/16 54/404/16 79/70/16
f 188/72/16 55/472/16 80/73/16
f 80/73/16 55/472/16 56/75/16
f 7/76/9 48/79/9 103/77/9
f 48/79/9 49/143/9 104/80/9
f 208/81/9 50/30/9 105/32/9
f 14/83/167 13/88/167 122/84/167
f 92/29/8 148/28/8 202/86/8
f 13/88/168 90/187/168 121/89/168
f 99/90/169 103/97/169 139/91/169
f 94/93/170 142/99/170 118/94/170
f 104/96/171 140/394/171 139/91/171
f 95/98/25 143/392/25 142/99/25
f 18/100/172 126/286/172 146/101/172
f 11/103/173 10/43/173 119/104/173
f 105/22/174 141/24/174 223/106/174
f 96/108/25 144/288/25 220/109/25
f 9/111/15 117/205/15 145/112/15
f 12/114/175 33/117/175 61/115/175
f 33/117/176 34/215/176 62/118/176
f 211/119/177 207/212/177 35/120/177
f 89/121/1 4/464/1 28/1/1
f 94/122/1 28/1/1 27/123/1
f 224/125/1 26/13/1 96/15/1
f 225/127/178 29/10/178 66/12/178
f 69/129/179 61/133/179 62/130/179
f 69/129/180 86/473/180 57/132/180
f 26/13/1 54/407/1 20/137/1
f 27/123/1 55/141/1 188/139/1
f 27/123/1 28/1/1 56/3/1
f 210/128/181 66/12/181 50/30/181
f 48/79/182 64/144/182 65/142/182
f 7/76/183 59/474/183 64/144/183
f 206/145/184 211/475/184 63/146/184
f 82/148/185 62/476/185 31/149/185
f 6/151/186 60/33/186 85/35/186
f 32/153/187 63/16/187 60/18/187
f 66/12/188 58/11/188 15/154/188
f 76/49/45 12/471/45 57/155/45
f 76/49/189 86/156/189 59/157/189
f 5/159/190 70/152/190 85/35/190
f 206/145/191 32/147/191 29/161/191
f 82/163/192 83/477/192 30/164/192
f 65/165/193 64/185/193 69/129/193
f 80/73/50 81/51/50 51/166/50
f 187/168/50 192/74/50 80/73/50
f 19/169/194 77/71/194 79/70/194
f 67/9/195 77/61/195 19/171/195
f 68/57/196 78/59/196 22/173/196
f 51/166/50 81/51/50 78/53/50
f 109/50/15 76/49/15 7/158/15
f 10/177/14 45/478/14 43/46/14
f 87/113/197 97/42/197 74/44/197
f 101/179/198 110/38/198 72/37/198
f 58/160/199 85/35/199 71/34/199
f 98/7/200 67/9/200 1/172/200
f 84/182/201 70/479/201 5/183/201
f 59/184/202 86/473/202 69/129/202
f 73/186/67 98/206/67 90/187/67
f 3/188/203 68/57/203 97/189/203
f 10/191/204 89/95/204 118/94/204
f 100/193/205 150/480/205 152/194/205
f 14/83/206 123/85/206 151/196/206
f 205/67/9 213/412/9 93/197/9
f 23/65/9 91/200/9 92/198/9
f 3/62/9 87/481/9 91/200/9
f 68/57/207 4/174/207 89/201/207
f 25/54/9 93/197/9 90/202/9
f 8/204/15 116/227/15 117/205/15
f 73/186/208 18/100/208 88/102/208
f 15/207/209 71/225/209 110/208/209
f 75/210/15 109/223/15 99/211/15
f 207/212/1 214/411/1 108/213/1
f 33/117/1 106/216/1 107/214/1
f 12/114/1 100/482/1 106/216/1
f 107/217/210 106/195/210 152/194/210
f 11/103/15 120/105/15 150/219/15
f 195/221/211 107/217/211 153/218/211
f 11/103/15 100/220/15 109/223/15
f 16/224/212 102/483/212 110/208/212
f 8/204/15 99/211/15 115/226/15
f 35/120/1 108/213/1 102/228/1
f 172/229/9 168/233/9 163/230/9
f 158/232/9 161/325/9 168/233/9
f 174/234/213 173/338/213 114/235/213
f 154/237/214 127/241/214 125/238/214
f 128/240/1 126/274/1 125/238/1
f 149/242/76 129/245/76 122/243/76
f 129/245/9 130/253/9 123/246/9
f 116/247/9 137/250/9 135/248/9
f 137/250/9 138/278/9 136/251/9
f 218/252/9 219/276/9 130/253/9
f 117/249/76 135/248/76 147/254/76
f 147/254/76 135/248/76 136/251/76
f 221/257/76 218/252/76 129/245/76
f 119/258/1 133/261/1 131/259/1
f 133/261/1 134/271/1 132/262/1
f 217/263/1 128/240/1 127/241/1
f 150/265/215 120/260/215 131/259/215
f 152/266/216 131/259/216 132/262/216
f 222/268/217 216/264/217 127/241/217
f 220/269/80 144/273/80 128/240/80
f 142/270/80 143/368/80 134/271/80
f 118/272/218 142/270/218 133/261/218
f 144/273/219 146/484/219 126/274/219
f 223/275/220 141/280/220 130/253/220
f 139/277/221 140/366/221 138/278/221
f 115/279/222 139/277/222 137/250/222
f 141/280/223 151/485/223 123/246/223
f 17/281/224 102/36/224 124/282/224
f 93/284/225 149/242/225 121/244/225
f 17/281/226 125/283/226 126/286/226
f 96/108/227 88/486/227 146/287/227
f 43/289/90 45/487/90 44/290/90
f 46/292/228 43/289/228 42/291/228
f 11/294/1 44/488/1 45/295/1
f 9/297/9 46/489/9 47/298/9
f 75/300/91 42/304/91 44/301/91
f 8/303/91 47/490/91 42/304/91
f 175/305/1 40/317/1 37/306/1
f 179/308/229 176/312/229 36/309/229
f 180/311/230 37/491/230 36/309/230
f 178/313/9 179/360/9 38/314/9
f 177/316/231 41/492/231 40/317/231
f 177/318/232 178/313/232 39/315/232
f 40/317/1 167/347/1 164/320/1
f 114/321/233 228/420/233 229/322/233
f 36/324/234 170/493/234 161/325/234
f 163/326/235 112/494/235 242/327/235
f 155/329/236 174/234/236 113/236/236
f 36/309/237 37/491/237 164/39/237
f 112/331/238 157/323/238 229/322/238
f 39/315/9 38/314/9 161/325/9
f 171/231/239 163/230/239 243/333/239
f 174/335/240 172/229/240 171/231/240
f 40/337/241 41/495/241 155/329/241
f 173/338/242 233/496/242 228/339/242
f 113/340/1 114/321/1 157/323/1
f 39/315/243 158/232/243 155/342/243
f 173/336/244 171/231/244 232/334/244
f 169/344/245 156/497/245 159/345/245
f 167/347/1 113/340/1 160/341/1
f 155/342/246 158/232/246 172/229/246
f 111/348/247 112/498/247 163/230/247
f 166/349/248 234/499/248 244/350/248
f 161/325/249 170/493/249 111/348/249
f 111/40/250 160/469/250 157/352/250
f 73/354/251 13/500/251 178/355/251
f 73/354/252 177/356/252 175/357/252
f 13/359/9 14/501/9 179/360/9
f 17/361/253 180/311/253 176/312/253
f 14/363/254 72/362/254 176/312/254
f 18/364/1 175/305/1 180/307/1
f 140/366/255 204/409/255 200/367/255
f 143/368/80 201/410/80 198/369/80
f 153/267/256 132/262/256 197/370/256
f 134/271/1 198/369/1 197/370/1
f 148/256/76 136/251/76 199/372/76
f 136/251/9 138/278/9 200/367/9
f 214/374/257 195/221/257 203/222/257
f 34/215/1 107/214/1 195/376/1
f 24/199/9 92/198/9 194/378/9
f 209/380/50 227/399/50 192/74/50
f 30/164/258 83/477/258 191/381/258
f 31/149/259 62/476/259 190/383/259
f 65/142/260 189/388/260 186/385/260
f 182/140/1 188/139/1 226/386/1
f 31/149/261 184/384/261 191/387/261
f 30/164/262 183/382/262 189/388/262
f 27/123/1 182/140/1 193/389/1
f 62/118/263 34/215/263 185/377/263
f 193/391/25 201/417/25 143/392/25
f 196/393/264 204/418/264 140/394/264
f 194/87/8 202/86/8 221/395/8
f 49/143/9 186/385/9 196/397/9
f 226/398/16 188/72/16 192/74/16
f 24/199/9 181/379/9 187/400/9
f 54/404/16 226/398/16 227/399/16
f 213/396/8 221/395/8 149/405/8
f 224/125/1 226/386/1 54/407/1
f 53/170/50 79/70/50 227/399/50
f 108/19/265 214/374/265 222/375/265
f 204/409/220 223/275/220 219/276/220
f 201/410/80 220/269/80 217/263/80
f 203/371/217 197/370/217 216/264/217
f 198/369/1 217/263/1 216/264/1
f 202/373/76 199/372/76 218/252/76
f 199/372/9 200/367/9 219/276/9
f 185/377/1 195/376/1 214/411/1
f 181/379/9 194/378/9 213/412/9
f 184/413/266 206/145/266 225/162/266
f 184/384/267 190/383/267 211/415/267
f 189/388/268 210/128/268 208/81/268
f 183/382/269 225/127/269 210/128/269
f 182/140/1 224/125/1 212/126/1
f 190/390/270 185/377/270 207/212/270
f 212/110/25 220/109/25 201/417/25
f 215/107/271 223/106/271 204/418/271
f 186/385/9 208/81/9 215/82/9
f 181/379/9 205/67/9 209/68/9
f 165/419/272 229/322/272 228/420/272
f 236/422/273 231/502/273 230/423/273
f 165/419/274 244/503/274 242/332/274
f 245/425/275 237/438/275 232/334/275
f 234/426/276 166/421/276 228/420/276
f 234/428/277 233/504/277 232/429/277
f 239/431/278 244/505/278 234/432/278
f 240/434/279 245/506/279 244/435/279
f 240/437/280 241/440/280 237/438/280
f 238/439/281 234/507/281 237/438/281
f 156/441/282 238/439/282 241/440/282
f 162/443/283 159/442/283 241/440/283
f 162/444/284 240/508/284 239/445/284
f 169/447/285 239/431/285 238/433/285
f 247/449/286 243/509/286 242/450/286
f 248/452/287 249/510/287 244/453/287
f 246/451/288 242/450/288 244/455/288
f 247/457/289 248/511/289 245/425/289
f 231/458/290 236/463/290 248/452/290
f 230/460/291 246/451/291 249/456/291
f 235/462/292 249/510/292 248/452/292
f 230/460/293 231/512/293 247/449/293
