# Blender 4.2.0
# www.blender.org
mtllib car_tire.mtl
g car_tire_Mesh
v 0.011614 0.133726 -0.395881
v 0.011189 0.209518 -0.390092
v 0.009582 0.250552 -0.341695
v 0.007952 0.236390 -0.286578
v 0.007007 0.190622 -0.250554
v 0.092469 0.094186 -0.232726
v 0.008625 0.028888 -0.286302
v 0.010347 0.014590 -0.341380
v 0.011689 0.055504 -0.389887
v -0.124450 0.133311 -0.376134
v -0.122849 0.209109 -0.370639
v -0.116159 0.230961 -0.324659
v -0.098844 0.216856 -0.272292
v -0.079061 0.190360 -0.238064
v 0.166429 0.094487 -0.186972
v -0.089808 0.028588 -0.272016
v -0.107031 0.023430 -0.324345
v -0.122350 0.055096 -0.370434
v -0.245555 0.133005 -0.311041
v -0.242152 0.208808 -0.306514
v -0.209762 0.234041 -0.268506
v -0.178092 0.235868 -0.225202
v -0.155666 0.190166 -0.196889
v -0.177419 0.028366 -0.224926
v -0.218195 0.034874 -0.268191
v -0.241653 0.054794 -0.306309
v -0.337094 0.132844 -0.208453
v -0.332328 0.208650 -0.205454
v -0.288729 0.233903 -0.180006
v -0.244314 0.227938 -0.150987
v -0.213568 0.190065 -0.131997
v -0.250331 0.049157 -0.150710
v -0.290473 0.013830 -0.179691
v -0.331829 0.054636 -0.205248
v -0.388025 0.132849 -0.080744
v -0.382502 0.208655 -0.079646
v -0.332666 0.233908 -0.069835
v -0.281159 0.227942 -0.058598
v -0.245784 0.190068 -0.051215
v -0.280486 0.028254 -0.058321
v -0.334409 0.013834 -0.069521
v -0.382002 0.054641 -0.079440
v -0.392206 0.133019 0.056683
v -0.386620 0.208822 0.055735
v -0.336273 0.234054 0.048719
v -0.284184 0.228065 0.040820
v -0.248429 0.190175 0.035714
v 0.212665 0.095062 0.131621
v -0.283511 0.028377 0.041097
v -0.338016 0.013980 0.049033
v -0.386121 0.054808 0.055941
v -0.349132 0.133333 0.187252
v -0.344187 0.209131 0.184360
v -0.299114 0.234325 0.161356
v -0.253023 0.228291 0.135278
v -0.221183 0.190374 0.118305
v 0.154763 0.094960 0.196513
v -0.259040 0.049510 0.135554
v -0.300858 0.014251 0.161671
v -0.343688 0.055117 0.184566
v -0.263999 0.133753 0.295214
v -0.260321 0.209545 0.290715
v -0.225672 0.234687 0.254492
v -0.191435 0.236409 0.213381
v -0.167332 0.190639 0.186596
v 0.078157 0.094767 0.237688
v -0.190762 0.028908 0.213658
v -0.234106 0.035519 0.254807
v -0.259822 0.055531 0.290921
v -0.147075 0.134228 0.367547
v -0.145138 0.210013 0.361973
v -0.131495 0.244296 0.316892
v -0.115211 0.217520 0.265709
v -0.093372 0.190940 0.232351
v -0.007909 0.094504 0.250179
v -0.106176 0.038450 0.265986
v -0.126549 0.024222 0.317206
v -0.144639 0.056000 0.362178
v -0.012463 0.134702 0.395528
v -0.012529 0.210480 0.389537
v -0.011188 0.251395 0.341030
v -0.009466 0.237096 0.285952
v -0.008223 0.191240 0.250050
v -0.093058 0.094204 0.232479
v -0.008793 0.029594 0.286228
v -0.010423 0.015432 0.341345
v -0.012030 0.056466 0.389742
v 0.123602 0.135117 0.375781
v 0.121509 0.210889 0.370084
v 0.106190 0.251752 0.323995
v 0.088967 0.237397 0.271666
v 0.077845 0.191503 0.237559
v -0.167018 0.093904 0.186725
v 0.089640 0.029895 0.271942
v 0.106956 0.015790 0.324309
v 0.122009 0.056875 0.370289
v 0.244706 0.135423 0.310688
v 0.240812 0.211190 0.305960
v 0.210664 0.252017 0.267841
v 0.176578 0.237618 0.224576
v 0.154449 0.191696 0.196385
v -0.220869 0.093638 0.118434
v 0.177251 0.030116 0.224852
v 0.213102 0.026089 0.268156
v 0.241311 0.057177 0.306165
v 0.336245 0.135583 0.208100
v 0.330988 0.211348 0.204898
v 0.289632 0.252155 0.179341
v 0.242800 0.237734 0.150360
v 0.212351 0.191797 0.131493
v -0.248115 0.093439 0.035843
v 0.243473 0.030232 0.150637
v 0.290397 0.016192 0.179656
v 0.331487 0.057334 0.205104
v -0.245470 0.093332 -0.051086
v -0.213254 0.093329 -0.131868
v -0.155352 0.093430 -0.196760
v 0.263150 0.134675 -0.295567
v 0.258981 0.210453 -0.291271
v 0.226575 0.251371 -0.255157
v 0.189921 0.237077 -0.214008
v 0.166116 0.191223 -0.187101
v -0.078746 0.093624 -0.237934
v 0.190594 0.029575 -0.213731
v 0.227340 0.015409 -0.254842
v 0.259481 0.056440 -0.291065
v 0.146226 0.134200 -0.367901
v 0.143798 0.209985 -0.362528
v 0.125708 0.250961 -0.317556
v 0.105335 0.236733 -0.266336
v 0.092156 0.190922 -0.232855
v 0.007320 0.093886 -0.250426
v 0.106008 0.029231 -0.266059
v 0.126473 0.014999 -0.317242
v 0.144298 0.055971 -0.362323
v 0.007075 0.169519 -0.250526
v 0.092400 0.115290 -0.232754
v -0.078993 0.169256 -0.238035
v 0.166361 0.115591 -0.187000
v -0.155597 0.169063 -0.196861
v -0.213499 0.168961 -0.131969
v -0.245716 0.168964 -0.051187
v -0.248360 0.169072 0.035742
v 0.212597 0.116165 0.131593
v -0.221114 0.169270 0.118333
v 0.154694 0.116064 0.196485
v -0.167264 0.169536 0.186625
v 0.078089 0.115870 0.237659
v -0.093304 0.169837 0.232379
v -0.007978 0.115608 0.250151
v -0.008155 0.170136 0.250078
v -0.093126 0.115308 0.232451
v 0.077913 0.170399 0.237587
v -0.167087 0.115007 0.186697
v 0.154517 0.170592 0.196413
v -0.220937 0.114742 0.118406
v 0.212420 0.170694 0.131521
v -0.248183 0.114543 0.035815
v -0.245539 0.114436 -0.051114
v -0.213323 0.114433 -0.131896
v -0.155420 0.114534 -0.196788
v 0.166184 0.170119 -0.187073
v -0.078815 0.114728 -0.237962
v 0.092224 0.169818 -0.232827
v 0.007252 0.114990 -0.250454
v -0.001816 0.110384 -0.406330
v 0.011573 0.216013 -0.403407
v 0.012115 0.048992 -0.403192
v -0.082053 0.121302 -0.399756
v -0.088222 0.195956 0.219391
v -0.007815 0.196239 0.236105
v -0.096465 0.229522 -0.264974
v -0.074708 0.195408 -0.224827
v 0.148708 0.216496 -0.374902
v -0.108239 0.009152 -0.328126
v -0.126503 0.057768 -0.383075
v -0.212285 0.248299 -0.271667
v -0.173350 0.248540 -0.219154
v -0.172028 0.016355 -0.218121
v -0.220626 0.020592 -0.271314
v -0.343671 0.215115 -0.212466
v -0.292178 0.248159 -0.182130
v -0.250416 0.215279 -0.316977
v 0.229193 0.265645 -0.258161
v -0.392675 0.148066 -0.125100
v -0.389700 0.057429 -0.127759
v -0.407045 0.134662 0.094557
v -0.274072 0.232661 0.039695
v -0.234645 0.195234 0.033705
v 0.256043 0.133519 0.320116
v 0.260511 0.037980 0.301570
v -0.341930 -0.000301 0.049627
v -0.393255 0.029488 0.069163
v -0.302685 0.248585 0.163232
v -0.243752 0.232882 0.131604
v -0.251387 0.037491 0.131478
v -0.184968 0.016880 0.207224
v -0.304335 -0.000028 0.163584
v -0.149552 0.049505 0.374559
v -0.012414 0.049987 0.403065
v -0.282267 0.214046 0.293009
v -0.228383 0.248952 0.257459
v -0.236724 0.021245 0.257811
v -0.126629 0.113931 0.388187
v -0.271984 0.016246 -0.056546
v -0.274917 0.016365 0.039871
v -0.009272 0.249735 0.278214
v -0.010498 0.001168 0.345363
v 0.184878 0.017527 -0.207265
v 0.095899 0.265090 0.311187
v 0.086507 0.250027 0.264314
v 0.086971 0.017837 0.263749
v 0.108256 0.001530 0.328128
v 0.006566 0.195656 -0.236622
v 0.251918 0.204067 0.323202
v 0.208425 0.272818 0.249662
v 0.267823 0.216980 -0.301213
v 0.145798 0.196670 0.185428
v 0.200476 0.196766 0.124149
v 0.348848 0.135652 0.215896
v 0.342288 0.217906 0.211894
v 0.209892 -0.000295 -0.242773
v -0.186333 0.249066 0.207601
v -0.133024 0.258565 0.320589
v -0.399816 0.215293 0.057639
v -0.355935 0.215613 0.190655
v 0.256363 0.124709 -0.315402
v 0.259135 0.038138 -0.304553
v 0.151716 0.134217 -0.381666
v -0.336629 0.248163 -0.070668
v -0.340279 0.248311 0.049275
v 0.102433 0.249381 -0.259178
v 0.086973 0.195939 -0.219909
v 0.341879 0.033664 0.209833
v 0.128002 0.000729 -0.320940
v 0.149253 0.049475 -0.374687
v 0.236191 0.250355 0.146280
v -0.102935 0.017214 0.257973
v -0.201725 0.195129 -0.124667
v -0.232148 0.195132 -0.048384
v -0.359349 0.144806 0.178256
v -0.136472 0.231284 0.381462
v -0.012955 0.217008 0.402834
v -0.282267 0.110297 0.306616
v -0.343135 0.048095 -0.212248
v 0.009657 0.264817 -0.345713
v 0.293846 0.001937 0.181780
v -0.127042 0.215590 -0.383290
v -0.254732 0.132977 -0.322678
v -0.147047 0.195225 -0.185946
v -0.249879 0.048258 -0.316760
v 0.127144 0.265230 -0.321292
v -0.235278 0.232538 -0.146940
v -0.242941 0.037149 -0.146146
v -0.293829 -0.000454 -0.181778
v -0.395556 0.215120 -0.082363
v -0.007462 0.090675 0.235869
v -0.008491 0.017546 0.277604
v 0.184738 0.249716 -0.208261
v -0.208916 0.195421 0.111696
v -0.355400 0.048592 0.190881
v -0.012913 0.134738 0.410341
v -0.074248 0.089845 -0.224329
v -0.087061 0.016570 -0.263791
v 0.008401 0.016861 -0.277645
v 0.102845 0.017193 -0.258014
v -0.268670 0.049020 0.300868
v 0.073683 0.090922 0.224093
v 0.128245 0.135169 0.389855
v -0.327827 -0.000449 -0.073219
v 0.126204 0.050410 0.382947
v 0.171754 0.250242 0.218494
v 0.171938 0.018052 0.218080
v 0.215626 0.011832 0.271317
v 0.156907 0.090659 -0.176281
v -0.208242 0.089858 0.111659
v -0.146472 0.089662 -0.185509
v 0.073459 0.196487 0.224310
v -0.112391 0.230168 0.258518
v -0.201063 0.089567 -0.124328
v 0.145907 0.091105 0.185273
v 0.200498 0.091200 0.124092
v 0.236161 0.018164 0.146105
v -0.158064 0.195672 0.176185
v -0.127985 0.009953 0.320942
v -0.157471 0.090109 0.176044
v -0.087740 0.090392 0.219182
v -0.271129 0.232542 -0.057043
v -0.011356 0.265669 0.345010
v 0.007676 0.249047 -0.278875
v 0.010515 0.000315 -0.345360
v -0.117459 0.245221 -0.328478
v 0.087176 0.090375 -0.219418
v -0.349697 0.132811 -0.216250
v 0.006897 0.090092 -0.236105
v -0.231436 0.089570 -0.048166
v 0.156815 0.196223 -0.176702
v 0.292988 0.266438 0.181428
v -0.233930 0.089671 0.033791
v 0.103482 0.198164 0.389592
v -0.087814 0.169836 0.218614
v -0.007704 0.170118 0.235265
v 0.006624 0.169537 -0.235714
v -0.074350 0.169290 -0.223962
v 0.145341 0.170547 0.184776
v 0.199816 0.170642 0.123724
v -0.200896 0.169012 -0.124172
v -0.231207 0.169015 -0.048171
v 0.073270 0.170365 0.223514
v -0.208060 0.169303 0.111317
v -0.157397 0.169553 0.175567
v -0.146421 0.169108 -0.185224
v -0.233695 0.169116 0.033614
v 0.156317 0.170102 -0.176015
v 0.086734 0.169819 -0.219061
v 0.199993 0.116114 0.123796
v -0.074172 0.114762 -0.223889
v -0.146244 0.114579 -0.185151
v -0.007527 0.115590 0.235338
v 0.073446 0.115837 0.223586
v -0.200719 0.114484 -0.124099
v -0.231029 0.114487 -0.048098
v 0.145518 0.116019 0.184848
v 0.006801 0.115009 -0.235640
v -0.087637 0.115308 0.218686
v 0.156494 0.115574 -0.175942
v 0.086911 0.115291 -0.218989
v -0.233517 0.114588 0.033686
v -0.207884 0.114775 0.111389
v -0.157220 0.115025 0.175639
v -0.392529 0.123611 -0.094888
v -0.395628 0.077137 -0.080312
v -0.395932 0.115873 0.044627
v 0.267611 0.138847 0.289470
v 0.271094 0.055692 0.280633
v 0.228744 0.221064 0.303790
v 0.210754 0.260462 0.266580
v 0.312625 0.046392 0.234059
v 0.105056 0.260195 0.323391
v -0.400447 0.072559 0.017362
v 0.321312 0.111129 0.237673
v -0.253905 0.130848 0.304177
v -0.247824 0.197197 0.305647
v -0.148546 0.133575 0.374820
v 0.123318 0.211595 0.378333
v -0.146071 0.215853 0.367837
v -0.317924 0.231637 -0.197298
v -0.248794 0.232496 0.279049
v 0.242781 0.247801 0.289302
v 0.248508 0.241313 -0.279687
v 0.010615 0.240415 -0.374560
v -0.366093 0.231642 -0.076516
v -0.141557 0.237545 0.347459
v -0.122250 0.230406 -0.355884
v -0.370047 0.231802 0.053457
v -0.012156 0.241338 0.373922
v 0.317638 0.242172 0.196661
v 0.137926 0.240863 -0.348097
v -0.231351 0.231789 -0.294322
v -0.329310 0.232099 0.176943
v 0.067794 0.237713 0.348966
v 0.221621 0.245844 0.287875
v 0.101952 0.233545 0.356184
v 0.158555 0.251885 0.295849
v 0.133553 0.030006 0.248340
v 0.132880 0.237507 0.248063
v 0.160159 0.020952 0.296164
v 0.184302 0.135271 0.343155
v 0.116240 0.191600 0.216921
v 0.181806 0.057026 0.338148
v 0.116554 0.094864 0.217050
v 0.181306 0.211040 0.337943
v 0.116309 0.170496 0.216950
v 0.116485 0.115967 0.217022
v 0.144902 0.269207 0.267886
v 0.129559 0.017945 0.240859
v 0.129235 0.250135 0.241348
v 0.162072 0.006693 0.299653
v 0.191217 0.135328 0.356007
v 0.109717 0.196579 0.204821
v 0.188043 0.050566 0.349709
v 0.109884 0.091014 0.204635
v 0.198382 0.189480 0.356575
v 0.109394 0.170456 0.204097
v 0.109570 0.115928 0.204169
v 0.167497 0.267755 0.291536
v 0.191895 0.218421 0.343908
v 0.162133 0.224676 0.337822
v 0.065047 0.174446 -0.400417
v 0.345568 0.176779 0.213895
v 0.252241 0.172730 -0.315128
v -0.359060 0.174465 0.192461
v -0.128068 0.174442 -0.386749
v -0.403344 0.174143 0.058225
v -0.012934 0.175873 0.406588
v 0.150212 0.175356 -0.378284
v -0.399046 0.173968 -0.083062
v -0.252574 0.174128 -0.319828
v 0.115863 0.166666 0.389723
v -0.346684 0.173963 -0.214358
v -0.297514 0.170260 0.290226
v 0.252900 0.169777 0.322763
v -0.095827 0.158670 0.406959
v -0.264698 0.180502 0.295620
v -0.138463 0.173280 0.376678
v 0.194800 0.162404 0.356291
v -0.178584 0.239491 0.285692
v -0.148469 0.033679 0.239822
v -0.153323 0.226965 0.239545
v -0.180327 0.029871 0.286006
v -0.130352 0.190790 0.209474
v -0.202230 0.055765 0.326549
v -0.205537 0.133991 0.331381
v -0.130038 0.094054 0.209602
v -0.202730 0.209779 0.326344
v -0.130284 0.169686 0.209502
v -0.130107 0.115158 0.209574
v -0.180703 0.253759 0.289024
v -0.143951 0.017047 0.232598
v -0.149362 0.239617 0.233060
v -0.182354 0.015599 0.289376
v -0.123143 0.195814 0.197788
v -0.209111 0.049262 0.337714
v -0.165005 0.087088 0.372467
v -0.122606 0.090250 0.197613
v -0.227264 0.225384 0.326425
v -0.122605 0.169695 0.197090
v -0.122429 0.115166 0.197162
v -0.231433 0.146075 0.320647
v -0.222716 0.198177 0.321972
v -0.195176 0.235021 0.313255
v -0.200005 0.174286 0.337255
v -0.390115 0.132934 -0.012031
v -0.281998 0.028315 -0.008612
v -0.334469 0.233981 -0.010558
v -0.336213 0.013907 -0.010244
v -0.282671 0.228003 -0.008889
v -0.247106 0.190122 -0.007750
v -0.384061 0.054725 -0.011750
v -0.384561 0.208738 -0.011955
v -0.246793 0.093386 -0.007621
v -0.247038 0.169018 -0.007722
v -0.246861 0.114490 -0.007650
v -0.395164 0.180776 -0.019436
v -0.273451 0.016306 -0.008337
v -0.338454 0.248237 -0.010697
v -0.340105 -0.000375 -0.010344
v -0.272601 0.232602 -0.008674
v -0.233396 0.195183 -0.007340
v -0.389829 0.037268 -0.038022
v -0.397686 0.215207 -0.012362
v -0.232683 0.089620 -0.007187
v -0.232451 0.169066 -0.007279
v -0.232273 0.114538 -0.007206
v -0.404525 0.129792 -0.003356
v -0.398038 0.074848 -0.031475
v -0.368070 0.231722 -0.011530
v -0.395042 0.196106 -0.020941
v 0.012090 0.091553 -0.406961
v -0.397983 0.108383 -0.129490
v 0.253260 0.080475 0.320713
v -0.138038 0.081866 0.381405
v 0.286214 0.081039 -0.291305
v -0.127804 0.095705 -0.386658
v -0.400182 0.082317 0.081918
v -0.012665 0.092557 0.406720
v 0.150490 0.092040 -0.378192
v 0.356757 0.084014 0.193445
v -0.252317 0.090812 -0.319733
v -0.358808 0.091149 0.192582
v 0.127229 0.092984 0.386417
v -0.346431 0.090647 -0.214258
v -0.275500 0.079799 0.303755
v -0.394072 0.100480 -0.087633
v 0.259912 0.115666 0.293571
v -0.398179 0.094316 0.031057
v 0.326293 0.094013 0.224460
v 0.189637 0.093142 0.352873
v -0.186957 0.068262 0.355170
v -0.401296 0.102446 -0.017351
v 0.183400 0.191747 0.163939
v 0.286399 0.057256 0.255634
v 0.285900 0.211269 0.255429
v 0.250148 0.252086 0.223591
v 0.210362 0.030174 0.187744
v 0.183714 0.095011 0.164067
v 0.209689 0.237676 0.187468
v 0.290476 0.135503 0.259394
v 0.251750 0.021141 0.223906
v 0.183469 0.170643 0.163967
v 0.183645 0.116115 0.164039
v 0.173137 0.196718 0.154789
v 0.298961 0.030698 0.259682
v 0.297103 0.210986 0.267548
v 0.250706 0.269628 0.215545
v 0.204050 0.018108 0.182093
v 0.173203 0.091153 0.154682
v 0.203973 0.250299 0.182387
v 0.287119 0.159136 0.281115
v 0.254736 0.006884 0.226548
v 0.172579 0.170595 0.154250
v 0.172756 0.116066 0.154322
v 0.291267 0.063917 0.259988
v 0.307916 0.127718 0.246176
v 0.280209 0.244987 0.242981
v 0.299234 0.173278 0.268329
v 0.293094 0.093955 0.261665
vn 0.1434 -0.0746 0.9868
vn 0.0960 -0.7576 0.6456
vn 0.1170 -0.9627 -0.2439
vn 0.0570 -0.7733 -0.6315
vn -0.0165 0.9956 -0.0927
vn 0.1496 0.7537 0.6399
vn 0.1430 0.0758 0.9868
vn 0.4723 -0.0737 0.8784
vn 0.2139 -0.8940 0.3937
vn -0.1567 -0.9654 -0.2082
vn -0.5054 -0.6199 -0.6003
vn -0.0469 0.9955 -0.0827
vn 0.2554 0.9125 0.3197
vn 0.4719 0.0767 0.8783
vn 0.7442 -0.0731 0.6639
vn 0.3398 -0.8908 0.3018
vn 0.0269 -0.9994 0.0225
vn -0.5528 -0.6177 -0.5593
vn -0.3129 0.7892 -0.5285
vn 0.4168 0.7469 0.5180
vn 0.7439 0.0773 0.6639
vn 0.9264 -0.0729 0.3695
vn 0.4192 -0.8923 0.1672
vn -0.1059 -0.9935 -0.0422
vn -0.6769 -0.6848 -0.2699
vn -0.6447 0.7635 -0.0377
vn 0.6025 0.7611 0.2403
vn 0.9261 0.0775 0.3693
vn 0.9969 -0.0731 0.0304
vn 0.4496 -0.8931 0.0148
vn -0.1146 -0.9934 -0.0023
vn -0.7286 -0.6846 -0.0213
vn -0.2566 0.9665 -0.0090
vn 0.6485 0.7609 0.0188
vn 0.9966 0.0773 0.0302
vn 0.9471 -0.0737 -0.3123
vn 0.4281 -0.8930 -0.1391
vn -0.1084 -0.9934 0.0382
vn -0.6921 -0.6841 0.2300
vn -0.6459 0.7634 -0.0035
vn 0.6161 0.7605 -0.2051
vn 0.9468 0.0766 -0.3125
vn 0.7832 -0.0746 -0.6173
vn 0.3567 -0.8919 -0.2778
vn 0.0282 -0.9994 -0.0184
vn -0.5859 -0.6164 0.5261
vn -0.3457 0.7877 0.5100
vn 0.4488 0.7460 -0.4920
vn 0.7828 0.0757 -0.6176
vn 0.5248 -0.0758 -0.8478
vn 0.3191 -0.7984 -0.5106
vn -0.1806 -0.8939 0.4102
vn -0.5059 -0.7183 0.4776
vn -0.1141 0.9935 0.0032
vn 0.3143 0.8679 -0.3846
vn 0.5244 0.0746 -0.8482
vn 0.2032 -0.0770 -0.9761
vn 0.1350 -0.7592 -0.6367
vn 0.0067 -0.9678 0.2515
vn 0.0224 -0.7747 0.6320
vn 0.0294 0.9600 0.2784
vn 0.1882 0.7522 -0.6315
vn 0.2027 0.0733 -0.9765
vn -0.1430 -0.0781 -0.9866
vn -0.0911 -0.7600 -0.6435
vn 0.0396 -0.9669 0.2522
vn 0.1156 -0.6104 0.7836
vn -0.4172 0.4765 -0.7739
vn 0.0333 0.9678 0.2497
vn -0.0960 0.7576 -0.6456
vn -0.1435 0.0722 -0.9870
vn -0.4718 -0.0791 -0.8782
vn -0.3059 -0.7606 -0.5727
vn 0.1232 -0.9666 0.2246
vn 0.3765 -0.6096 0.6976
vn -0.5919 0.4835 0.6449
vn 0.4603 0.4794 -0.7472
vn 0.0754 0.9866 0.1448
vn -0.3435 0.7925 -0.5039
vn -0.4724 0.0713 -0.8785
vn -0.7437 -0.0797 -0.6637
vn -0.4835 -0.7610 -0.4326
vn 0.1923 -0.9665 0.1701
vn 0.5922 -0.6092 0.5275
vn 0.1245 0.4805 0.8681
vn -0.1360 0.4824 0.8653
vn 0.1203 0.9868 0.1089
vn -0.4135 0.7917 -0.4497
vn -0.7443 0.0707 -0.6641
vn -0.8595 0.4815 -0.1716
vn -0.1276 0.4773 -0.8694
vn 0.4141 0.4813 0.7726
vn -0.8684 0.4819 0.1172
vn -0.5538 0.4818 -0.6791
vn 0.6535 0.4818 0.5838
vn -0.5243 -0.0769 0.8480
vn -0.3402 -0.7592 0.5549
vn 0.1365 -0.9672 -0.2144
vn 0.4181 -0.6113 -0.6719
vn -0.4998 0.4810 0.7202
vn 0.1303 0.9675 -0.2169
vn -0.3451 0.7584 0.5529
vn -0.5249 0.0734 0.8480
vn -0.2027 -0.0757 0.9763
vn -0.1301 -0.7584 0.6387
vn 0.0547 -0.9675 -0.2470
vn 0.1630 -0.6123 -0.7736
vn 0.1771 0.4783 -0.8601
vn -0.8790 0.4760 -0.0273
vn 0.0485 0.9671 -0.2496
vn -0.1350 0.7592 0.6367
vn -0.2032 0.0746 0.9763
vn 0.7461 0.0033 0.6658
vn 0.1436 0.0018 0.9896
vn -0.7852 -0.0017 0.6192
vn -0.9497 -0.0027 0.3133
vn 0.2035 -0.0006 -0.9791
vn -0.1436 -0.0018 -0.9896
vn 0.4734 0.0027 0.8808
vn 0.5261 0.0006 -0.8504
vn -0.2035 0.0006 0.9791
vn -0.9995 -0.0033 -0.0304
vn -0.5261 -0.0006 0.8504
vn -0.7461 -0.0033 -0.6658
vn -0.9289 -0.0035 -0.3704
vn -0.4734 -0.0027 -0.8808
vn -0.0697 -0.1605 -0.9846
vn -0.2011 0.7446 -0.6365
vn -0.1186 0.9672 0.2247
vn 0.1114 0.6153 0.7804
vn -0.0380 -0.9710 0.2361
vn -0.1489 -0.7545 -0.6392
vn -0.0857 -0.0299 -0.9959
vn -0.4719 0.0855 -0.8775
vn -0.2321 0.8721 -0.4309
vn 0.1463 0.9705 0.1916
vn 0.2818 0.8011 0.5280
vn 0.0545 -0.9938 0.0967
vn -0.2585 -0.7645 -0.5905
vn -0.3839 0.2284 -0.8947
vn -0.7435 0.0849 -0.6633
vn -0.3670 0.8712 -0.3261
vn -0.0038 1.0000 -0.0018
vn 0.5213 0.6215 0.5848
vn 0.0883 -0.9833 -0.1590
vn -0.3492 -0.8833 -0.3129
vn -0.7431 -0.0889 -0.6632
vn -0.9255 0.0847 -0.3691
vn -0.4535 0.8727 -0.1809
vn 0.2143 0.9730 0.0854
vn 0.6394 0.7253 0.2550
vn 0.5116 -0.8442 0.1602
vn -0.5987 -0.7623 -0.2458
vn -0.8592 -0.0903 -0.5036
vn -0.9888 -0.0803 -0.1260
vn -0.4866 0.8735 -0.0159
vn 0.2308 0.9730 0.0058
vn 0.6899 0.7236 0.0201
vn 0.2425 -0.9701 0.0086
vn -0.5740 -0.8152 -0.0775
vn 0.9302 0.0971 0.3539
vn -0.9462 0.0856 0.3120
vn -0.4632 0.8734 0.1507
vn 0.2192 0.9728 -0.0746
vn 0.6544 0.7242 -0.2176
vn 0.2306 -0.9703 -0.0737
vn -0.4525 -0.8788 0.1514
vn -0.9112 -0.2057 0.3571
vn -0.8413 0.0873 0.5334
vn -0.3854 0.8724 0.3005
vn 0.1033 0.9541 -0.2812
vn 0.5378 0.7270 -0.4269
vn 0.5004 -0.8494 -0.1673
vn -0.4488 -0.7469 0.4907
vn -0.8330 0.1349 0.5365
vn 0.3851 0.4411 0.8106
vn -0.3642 0.8293 0.4238
vn 0.2953 0.9524 -0.0753
vn 0.5164 0.7029 -0.4891
vn 0.0140 -0.9998 -0.0160
vn -0.3272 -0.8507 0.4114
vn -0.3561 -0.3722 0.8571
vn -0.1354 0.2599 0.9561
vn -0.1424 0.8010 0.5814
vn -0.0861 0.8948 -0.4380
vn -0.0152 0.7480 -0.6635
vn 0.0252 -0.9942 -0.1046
vn -0.1135 -0.8208 0.5598
vn -0.1845 -0.1401 0.9728
vn 0.1269 0.0902 0.9878
vn 0.2304 0.7414 0.6303
vn -0.0684 0.9699 -0.2335
vn -0.1154 0.6125 -0.7820
vn 0.4146 -0.4866 0.7690
vn -0.0312 -0.9713 -0.2357
vn 0.0959 -0.7583 0.6448
vn 0.1434 -0.0838 0.9861
vn 0.5056 -0.0759 0.8594
vn -0.1986 0.1244 0.9722
vn -0.2509 0.8502 -0.4629
vn -0.3757 0.6117 -0.6962
vn 0.5829 -0.4937 -0.6454
vn -0.4573 -0.4895 0.7425
vn -0.0763 -0.9863 -0.1466
vn 0.3457 -0.7872 0.5106
vn 0.4809 -0.0829 0.8728
vn 0.7585 0.0563 0.6492
vn 0.3654 0.8528 0.3731
vn -0.2405 0.9470 -0.2131
vn -0.5910 0.6113 -0.5264
vn -0.1237 -0.4905 -0.8626
vn 0.1791 -0.4895 -0.8534
vn -0.1218 -0.9864 -0.1102
vn 0.2515 -0.9132 0.3206
vn -0.9810 0.1367 -0.1378
vn 0.8555 -0.4917 0.1626
vn 0.1269 -0.4874 0.8639
vn -0.4114 -0.4914 -0.7677
vn 0.7061 -0.6693 -0.2313
vn 0.5625 -0.6578 0.5009
vn -0.6493 -0.4919 -0.5801
vn 0.5241 0.0820 -0.8477
vn 0.3397 0.7599 -0.5542
vn -0.1263 0.9721 0.1978
vn -0.4173 0.6134 0.6705
vn 0.4605 -0.4885 -0.7412
vn -0.1974 -0.9248 0.3251
vn 0.2967 -0.8988 -0.3226
vn 0.5305 -0.1017 -0.8416
vn 0.2497 0.0884 -0.9643
vn 0.1299 0.7591 -0.6378
vn -0.0508 0.9724 0.2279
vn -0.1626 0.6144 0.7721
vn -0.1759 -0.4884 0.8547
vn 0.8735 -0.4861 0.0272
vn -0.0456 -0.9707 0.2358
vn 0.1349 -0.7599 -0.6359
vn 0.2030 -0.0862 -0.9754
vn -0.7458 0.0297 -0.6655
vn -0.1435 -0.0215 -0.9894
vn 0.7851 -0.0180 -0.6190
vn 0.9490 0.0356 -0.3132
vn -0.1436 0.0312 -0.9891
vn 0.9495 -0.0171 -0.3132
vn -0.2034 -0.0190 0.9789
vn 0.1437 -0.0179 0.9895
vn -0.4733 -0.0224 -0.8806
vn -0.4733 0.0303 -0.8804
vn -0.5259 0.0324 0.8499
vn 0.2035 -0.0204 -0.9789
vn 0.9994 -0.0164 0.0304
vn 0.5261 -0.0191 -0.8502
vn 0.7847 0.0347 -0.6189
vn 0.7456 0.0363 0.6654
vn 0.7461 -0.0164 0.6657
vn 0.9287 -0.0162 0.3704
vn 0.4734 -0.0170 0.8807
vn 0.2033 0.0323 -0.9786
vn 0.1434 0.0347 0.9890
vn 0.9282 0.0365 0.3702
vn -0.2035 0.0336 0.9785
vn 0.4731 0.0356 0.8803
vn 0.9989 0.0362 0.0303
vn 0.5257 0.0335 -0.8500
vn -0.5259 -0.0203 0.8503
vn -0.7459 -0.0230 -0.6656
vn -0.0032 1.0000 -0.0013
vn 0.0032 -1.0000 0.0013
vn -0.9897 -0.1376 0.0406
vn -0.5212 0.0495 0.8520
vn 0.3184 0.6752 0.6654
vn 0.6121 0.0917 0.7855
vn 0.8161 0.1840 0.5479
vn -0.5261 0.1439 0.8382
vn -0.5889 -0.0463 0.8069
vn -0.1137 0.7911 0.6011
vn -0.9937 0.1116 -0.0128
vn 0.6444 -0.3369 0.6865
vn -0.0702 0.6832 0.7268
vn -0.5254 -0.2222 0.8213
vn -0.0598 0.9912 0.1180
vn -0.9774 -0.2034 -0.0578
vn 0.6625 -0.2110 0.7188
vn -0.9855 -0.1581 0.0622
vn -0.1854 0.8561 0.4824
vn -0.2510 0.5597 0.7897
vn 0.0870 0.8758 0.4748
vn 0.5473 0.6515 0.5253
vn -0.0677 0.9794 0.1904
vn -0.1919 0.9540 0.2304
vn -0.3894 0.8730 0.2936
vn -0.2336 0.8719 -0.4305
vn -0.0959 0.7584 -0.6447
vn 0.2790 0.8030 0.5266
vn 0.4158 0.7608 0.4984
vn 0.2961 0.7273 0.6191
vn -0.4733 0.0302 -0.8804
vn 0.4720 -0.0829 0.8777
vn 0.3104 -0.7577 0.5740
vn -0.0315 -0.9713 -0.2356
vn -0.2897 0.9266 -0.2397
vn 0.3366 0.1362 0.9317
vn 0.3384 0.2586 0.9048
vn 0.3923 0.1580 0.9062
vn -0.5206 0.0002 0.8538
vn -0.5337 0.1002 0.8397
vn 0.5376 0.0509 -0.8417
vn 0.7262 -0.0005 0.6875
vn -0.4004 -0.1392 0.9057
vn 0.4815 -0.0729 0.8734
vn 0.1356 0.0901 0.9867
vn -0.1273 -0.3079 0.9428
vn -0.8268 -0.2364 0.5104
vn -0.8890 0.3524 0.2924
vn -0.9945 -0.0024 -0.1050
vn -0.8956 0.0856 -0.4366
vn -0.4115 -0.1357 -0.9013
vn -0.0599 0.1536 -0.9863
vn -0.5951 0.0091 0.8036
vn -0.3628 0.8831 0.2974
vn -0.4514 -0.4161 0.7893
vn -0.3269 0.5430 0.7735
vn -0.5458 0.0493 0.8365
vn -0.5114 -0.1920 0.8376
vn -0.2402 -0.8871 0.3941
vn -0.0961 -0.9953 -0.0125
vn 0.5462 0.6204 -0.5629
vn -0.0654 0.9965 -0.0529
vn -0.2905 0.8734 0.3910
vn -0.4883 0.5311 0.6925
vn -0.5432 -0.6184 0.5680
vn 0.0833 -0.9961 0.0276
vn 0.2424 -0.8901 -0.3860
vn -0.9185 -0.3834 0.0971
vn -0.9809 -0.1893 -0.0439
vn -0.9941 0.0339 -0.1031
vn -0.9757 -0.1479 -0.1615
vn -0.5834 -0.7922 -0.1788
vn 0.2712 -0.9610 0.0541
vn -0.9959 0.0839 0.0343
vn -0.9976 0.0519 -0.0468
vn -0.5157 -0.1927 0.8348
vn -0.9874 0.1207 0.1025
vn 0.6312 -0.0249 0.7752
vn -0.9904 -0.1358 0.0246
vn 0.7437 -0.0823 0.6635
vn -0.9945 -0.0901 -0.0533
vn 0.5332 -0.0764 -0.8425
vn 0.4364 -0.0829 0.8959
vn -0.2012 -0.1337 0.9704
vn -0.5183 -0.1664 0.8389
vn -0.8014 -0.0878 0.5916
vn -0.9266 -0.1986 0.3193
vn 0.9191 -0.2516 0.3032
vn -0.8764 -0.0902 -0.4730
vn -0.4681 -0.0990 -0.8781
vn -0.1485 -0.0873 -0.9851
vn 0.6824 -0.0303 0.7303
vn 0.7751 0.0211 0.6315
vn 0.6063 0.5624 0.5622
vn 0.5862 0.0592 0.8080
vn 0.7289 0.2948 0.6178
vn 0.6602 -0.0873 0.7460
vn 0.2855 -0.8929 0.3481
vn -0.1330 -0.9911 -0.0067
vn -0.5910 0.6112 -0.5264
vn -0.3176 0.9053 -0.2820
vn 0.3103 0.9020 0.3003
vn 0.7610 0.0135 0.6486
vn 0.7976 -0.4177 0.4351
vn 0.9296 0.0818 -0.3593
vn 0.8338 0.3230 -0.4476
vn 0.4882 -0.5237 0.6982
vn 0.7155 -0.6834 0.1451
vn 0.8014 -0.0608 0.5951
vn 0.7462 0.0033 0.6658
vn 0.9242 0.0721 -0.3751
vn -0.0458 0.0595 0.9972
vn 0.8584 -0.3148 0.4051
vn 0.6850 -0.2297 0.6914
vn 0.5261 0.0005 -0.8504
vn 0.4942 0.0435 -0.8683
vn -0.4716 0.0624 -0.8796
vn 0.5071 -0.0057 -0.8618
vn -0.1628 -0.2615 -0.9514
vn 0.4780 0.4108 -0.7764
vn 0.1936 -0.8967 0.3980
vn 0.1329 -0.9451 -0.2985
vn -0.1116 -0.6132 -0.7820
vn 0.0366 0.9675 -0.2500
vn 0.0769 0.8335 0.5471
vn 0.2147 -0.8880 0.4066
vn -0.1465 -0.9780 0.1484
vn -0.2621 -0.8305 -0.4915
vn 0.1203 0.9921 0.0359
vn 0.2595 0.8341 0.4868
vn -0.0403 -0.9891 -0.1416
vn -0.5433 -0.6847 -0.4858
vn -0.0487 0.9799 0.1933
vn 0.3135 0.9070 0.2811
vn 0.4193 -0.8923 0.1672
vn -0.2387 0.9664 -0.0952
vn 0.4281 -0.8929 -0.1391
vn -0.2439 0.9666 0.0782
vn -0.0493 -0.9887 0.1416
vn -0.5720 -0.6834 0.4537
vn -0.0375 0.9797 -0.1969
vn 0.3319 0.9052 -0.2653
vn 0.3545 -0.8426 -0.4053
vn -0.2996 -0.9494 0.0937
vn -0.2895 -0.8319 0.4734
vn -0.0441 0.9670 0.2511
vn 0.2888 0.8328 -0.4723
vn 0.5244 0.0745 -0.8482
vn 0.1613 -0.8085 -0.5660
vn 0.0701 -0.8746 0.4798
vn -0.1590 -0.6113 0.7753
vn 0.0214 0.9682 0.2494
vn 0.1101 0.8321 -0.5437
vn -0.5791 0.6771 0.4540
vn -0.0330 0.9923 0.1196
vn -0.2634 0.8333 -0.4861
vn 0.1245 0.4804 0.8681
vn -0.1735 0.5370 0.8256
vn 0.2316 0.9683 0.0940
vn -0.4884 0.7567 -0.4346
vn -0.6776 0.6840 -0.2702
vn -0.6915 0.6860 0.2265
vn -0.5522 0.6733 -0.4917
vn -0.4553 0.5058 0.7327
vn -0.1433 0.0864 -0.9859
vn -0.1302 0.8815 -0.4538
vn -0.1405 0.9493 0.2811
vn -0.0516 0.7471 0.6628
vn 0.0188 -0.9939 0.1084
vn -0.1398 -0.7642 -0.6297
vn -0.1465 -0.2305 -0.9620
vn -0.2334 0.8688 -0.4367
vn 0.1659 0.9779 -0.1275
vn 0.5087 0.6218 0.5954
vn -0.0967 -0.9953 0.0091
vn -0.2749 -0.8896 -0.3646
vn -0.4689 -0.0882 -0.8788
vn 0.0858 0.9547 0.2851
vn 0.5101 0.7291 0.4563
vn 0.2626 -0.8268 0.4975
vn -0.4170 -0.7478 -0.5167
vn 0.3164 -0.9414 -0.1171
vn -0.5814 -0.7930 -0.1820
vn -0.8808 0.1669 -0.4432
vn -0.9959 0.0850 -0.0304
vn -0.5060 -0.8624 -0.0143
vn 0.9042 -0.0374 0.4254
vn 0.5914 -0.8057 0.0339
vn -0.5701 -0.7658 0.2975
vn -0.8688 0.1196 0.4806
vn -0.7866 0.2377 0.5698
vn -0.0038 1.0000 -0.0009
vn 0.5568 0.6200 -0.5527
vn -0.1844 -0.9773 -0.1043
vn -0.3693 -0.8814 0.2946
vn -0.7901 -0.2287 0.5687
vn 0.3334 0.8698 0.3636
vn -0.3575 0.7873 0.5023
vn 0.1519 0.9169 -0.3690
vn 0.3116 0.8023 -0.5090
vn -0.0297 -0.9916 -0.1262
vn -0.2975 -0.8215 0.4863
vn -0.3279 -0.0824 0.9411
vn -0.0144 0.0909 0.9958
vn -0.1709 0.7562 0.6316
vn -0.0102 0.9726 -0.2323
vn 0.1587 0.6134 -0.7737
vn -0.0237 -0.9716 -0.2355
vn -0.1874 -0.7530 0.6308
vn -0.1755 -0.0852 0.9808
vn 0.1336 0.0567 0.9894
vn 0.2161 0.7071 0.6732
vn -0.0460 0.9537 -0.2973
vn 0.5282 0.0043 0.8491
vn -0.0914 0.2409 0.9662
vn -0.1748 0.8836 -0.4343
vn 0.5902 -0.6614 -0.4628
vn 0.0236 -0.9906 -0.1351
vn 0.1729 -0.8575 0.4845
vn 0.4489 -0.0135 0.8935
vn 0.7674 0.0921 0.6345
vn 0.5221 0.7659 0.3753
vn -0.1227 0.9625 -0.2421
vn -0.2206 -0.9716 -0.0853
vn 0.4014 -0.8675 0.2939
vn -0.9996 -0.0253 -0.0157
vn 0.6917 -0.6674 0.2759
vn -0.4114 -0.4913 -0.7677
vn 0.8638 -0.4920 -0.1084
vn 0.5449 -0.4920 0.6790
vn 0.5259 0.0888 -0.8459
vn -0.1835 -0.9665 0.1795
vn 0.2899 -0.7632 -0.5775
vn 0.5275 -0.0850 -0.8453
vn 0.1993 0.1872 -0.9619
vn 0.1348 -0.7599 -0.6359
vn 0.1369 0.1339 -0.9815
vn 0.7851 -0.0180 -0.6191
vn 0.9495 -0.0170 -0.3132
vn 0.1434 0.0347 0.9891
vn 0.4731 0.0357 0.8803
vn -0.9847 -0.0071 0.1743
vn -0.5368 0.0785 0.8400
vn 0.3680 0.8435 0.3913
vn 0.7156 -0.2843 0.6381
vn 0.6813 0.4037 0.6106
vn -0.4426 0.1117 0.8898
vn -0.8059 -0.0211 0.5917
vn -0.1083 0.7956 0.5960
vn -0.9789 -0.0833 -0.1865
vn 0.7443 -0.6462 0.1686
vn -0.0507 0.6845 0.7272
vn -0.4520 -0.2917 0.8430
vn 0.1547 0.9516 0.2656
vn -0.9745 -0.2193 -0.0471
vn 0.7333 -0.2688 0.6246
vn -0.9907 0.0241 -0.1338
vn -0.0379 0.7772 0.6281
vn -0.1051 0.5159 0.8502
vn 0.5979 0.5478 0.5852
vn 0.1939 0.7826 0.5915
vn -0.0229 0.7652 0.6433
vn -0.1866 0.9608 0.2048
vn -0.3680 0.8845 0.2867
vn -0.2348 0.8690 -0.4356
vn 0.1097 0.9103 0.3991
vn -0.0307 0.9954 0.0904
vn 0.2600 0.6916 0.6738
vn 0.3865 -0.0608 0.9203
vn 0.3673 0.4408 0.8190
vn -0.3108 0.7570 -0.5747
vn 0.0375 0.9680 0.2483
vn 0.4724 -0.0717 0.8785
vn -0.5527 0.1016 0.8272
vn -0.5358 0.0968 0.8388
vn 0.1713 -0.0883 -0.9813
vn 0.7554 0.0918 0.6489
vn -0.1601 -0.0070 0.9871
vn 0.5016 -0.0197 0.8649
vn 0.1432 0.0604 0.9879
vn -0.8641 -0.0841 0.4963
vn -0.8326 -0.2327 0.5027
vn -0.9945 -0.0034 -0.1050
vn -0.8703 0.3493 -0.3471
vn -0.0695 0.1800 -0.9812
vn -0.5320 0.0975 0.8411
vn -0.4636 -0.2181 0.8588
vn -0.6015 0.0241 0.7985
vn -0.5392 0.0258 0.8418
vn -0.5085 -0.1806 0.8419
vn 0.3700 0.7069 -0.6028
vn 0.2142 0.9110 -0.3523
vn 0.1221 0.9920 -0.0308
vn -0.3624 -0.7210 0.5906
vn -0.9981 0.0138 0.0594
vn -0.9906 -0.0523 -0.1263
vn -0.9385 0.2480 0.2400
vn -0.5609 -0.8207 -0.1086
vn -0.9918 -0.1238 -0.0300
vn -0.9928 -0.0659 -0.1002
vn -0.5114 -0.1765 0.8410
vn -0.9886 0.1009 0.1114
vn 0.7158 0.0157 0.6981
vn 0.7426 -0.0791 0.6651
vn -0.9956 0.0574 0.0737
vn 0.5298 -0.0849 -0.8438
vn 0.4955 -0.2851 0.8205
vn -0.1902 -0.0851 0.9780
vn -0.4681 -0.0203 0.8834
vn -0.7645 -0.2262 0.6037
vn -0.9306 -0.0887 0.3550
vn 0.9830 -0.0496 0.1767
vn -0.8581 -0.1561 -0.4892
vn -0.4663 -0.0882 -0.8802
vn -0.1458 -0.0980 -0.9845
vn 0.7290 -0.0823 0.6795
vn 0.7618 -0.0705 0.6439
vn 0.6170 0.6387 0.4597
vn 0.5955 -0.3880 0.7034
vn 0.6766 0.1501 0.7209
vn 0.7309 -0.0078 0.6824
vn 0.2194 -0.9071 0.3591
vn -0.1732 0.9373 -0.3023
vn 0.4331 0.8506 0.2983
vn 0.7716 0.0567 0.6335
vn -0.4163 0.8304 -0.3702
vn 0.1195 0.9928 -0.0066
vt 0.056382 0.838088
vt 0.051679 0.829540
vt 0.056382 0.829476
vt 0.050065 0.846940
vt 0.054775 0.852912
vt 0.048310 0.849185
vt 0.052005 0.844698
vt 0.055726 0.850203
vt 0.066452 0.827522
vt 0.070399 0.835382
vt 0.066339 0.835849
vt 0.052247 0.844507
vt 0.046046 0.841835
vt 0.048737 0.840299
vt 0.061296 0.838024
vt 0.064091 0.830068
vt 0.064091 0.837497
vt 0.061296 0.829540
vt 0.051909 0.821568
vt 0.056616 0.821383
vt 0.062126 0.854214
vt 0.056752 0.847435
vt 0.062163 0.851343
vt 0.070498 0.842226
vt 0.066452 0.843677
vt 0.046869 0.835145
vt 0.041399 0.836072
vt 0.043819 0.835689
vt 0.061526 0.821568
vt 0.057054 0.814786
vt 0.068600 0.850223
vt 0.069477 0.852934
vt 0.062150 0.848391
vt 0.066779 0.850062
vt 0.043819 0.829154
vt 0.046869 0.829665
vt 0.041399 0.828610
vt 0.061958 0.815069
vt 0.062042 0.815306
vt 0.057637 0.821621
vt 0.057317 0.815023
vt 0.074261 0.846977
vt 0.075941 0.849228
vt 0.067548 0.847452
vt 0.067188 0.848698
vt 0.071575 0.844626
vt 0.071162 0.851006
vt 0.048737 0.824521
vt 0.043942 0.821606
vt 0.046046 0.823021
vt 0.052411 0.815306
vt 0.052726 0.821805
vt 0.057722 0.825667
vt 0.062525 0.829777
vt 0.057807 0.829713
vt 0.078340 0.846384
vt 0.078463 0.841997
vt 0.080739 0.843541
vt 0.076362 0.844487
vt 0.075819 0.840553
vt 0.072871 0.841677
vt 0.067742 0.836277
vt 0.071795 0.836800
vt 0.048139 0.820524
vt 0.052247 0.820334
vt 0.050492 0.822428
vt 0.046332 0.818755
vt 0.050232 0.818027
vt 0.052894 0.829777
vt 0.052810 0.825791
vt 0.062525 0.838261
vt 0.057807 0.838325
vt 0.083292 0.836560
vt 0.077694 0.835427
vt 0.080699 0.835884
vt 0.071795 0.828472
vt 0.055871 0.814777
vt 0.056976 0.817608
vt 0.048722 0.815904
vt 0.052894 0.838261
vt 0.062358 0.846234
vt 0.057637 0.846418
vt 0.083292 0.829127
vt 0.077694 0.829968
vt 0.080699 0.829375
vt 0.067549 0.822153
vt 0.071575 0.820646
vt 0.062354 0.816672
vt 0.055161 0.812192
vt 0.062284 0.813660
vt 0.052726 0.846234
vt 0.057305 0.849111
vt 0.052589 0.845022
vt 0.057347 0.845207
vt 0.082016 0.825633
vt 0.078463 0.823255
vt 0.080739 0.822138
vt 0.079581 0.826315
vt 0.075819 0.824836
vt 0.067369 0.819364
vt 0.071162 0.814267
vt 0.071368 0.817457
vt 0.065490 0.814237
vt 0.067731 0.817639
vt 0.065042 0.817155
vt 0.066146 0.811576
vt 0.068697 0.814814
vt 0.052411 0.852733
vt 0.052569 0.849483
vt 0.052813 0.837050
vt 0.057574 0.837114
vt 0.074261 0.818262
vt 0.075941 0.816437
vt 0.072296 0.820649
vt 0.069742 0.821316
vt 0.066351 0.827635
vt 0.066125 0.819810
vt 0.072460 0.820392
vt 0.076247 0.815983
vt 0.074336 0.818097
vt 0.062432 0.837050
vt 0.062208 0.845022
vt 0.052813 0.828566
vt 0.057574 0.828502
vt 0.050023 0.836523
vt 0.068600 0.814999
vt 0.069939 0.828158
vt 0.066351 0.835963
vt 0.070973 0.844533
vt 0.065674 0.836111
vt 0.070860 0.836705
vt 0.078522 0.823114
vt 0.075970 0.824600
vt 0.081027 0.821713
vt 0.062432 0.828566
vt 0.057460 0.824446
vt 0.052589 0.820594
vt 0.057347 0.820409
vt 0.065792 0.812058
vt 0.062163 0.813858
vt 0.062126 0.811408
vt 0.065374 0.814427
vt 0.062150 0.816957
vt 0.066238 0.839886
vt 0.069742 0.842283
vt 0.066125 0.843789
vt 0.070874 0.819477
vt 0.065960 0.825864
vt 0.065633 0.818042
vt 0.070800 0.816708
vt 0.064949 0.820780
vt 0.065259 0.814400
vt 0.079638 0.826195
vt 0.077838 0.829754
vt 0.076906 0.827183
vt 0.082301 0.825231
vt 0.080749 0.829261
vt 0.062208 0.820594
vt 0.062319 0.824570
vt 0.057133 0.817111
vt 0.052168 0.814094
vt 0.056919 0.813812
vt 0.058450 0.812048
vt 0.055726 0.814979
vt 0.054775 0.812688
vt 0.058944 0.814419
vt 0.056752 0.817896
vt 0.059451 0.817426
vt 0.057388 0.819988
vt 0.069154 0.829616
vt 0.063608 0.837499
vt 0.063491 0.829172
vt 0.069256 0.836897
vt 0.063942 0.845321
vt 0.080749 0.832528
vt 0.077838 0.835234
vt 0.077838 0.832494
vt 0.083570 0.832463
vt 0.080749 0.835795
vt 0.061786 0.814094
vt 0.061997 0.817344
vt 0.071160 0.840442
vt 0.065633 0.848404
vt 0.065960 0.842019
vt 0.070973 0.828378
vt 0.063550 0.825248
vt 0.071259 0.833597
vt 0.066074 0.834191
vt 0.071300 0.850918
vt 0.065774 0.842956
vt 0.063775 0.818151
vt 0.069256 0.822771
vt 0.063608 0.821344
vt 0.057078 0.820998
vt 0.051899 0.814684
vt 0.056650 0.814401
vt 0.043627 0.835827
vt 0.043512 0.843484
vt 0.040959 0.836495
vt 0.046606 0.835379
vt 0.045863 0.841947
vt 0.067280 0.813327
vt 0.070784 0.821261
vt 0.066779 0.819700
vt 0.064199 0.848507
vt 0.069998 0.849309
vt 0.064456 0.851694
vt 0.062353 0.848227
vt 0.055871 0.850136
vt 0.056976 0.847260
vt 0.062284 0.851289
vt 0.055161 0.852570
vt 0.057054 0.852778
vt 0.061526 0.845997
vt 0.061958 0.852496
vt 0.056616 0.846181
vt 0.051679 0.838024
vt 0.070498 0.828100
vt 0.066059 0.821991
vt 0.071300 0.820556
vt 0.066017 0.838105
vt 0.048722 0.848821
vt 0.050232 0.846853
vt 0.071318 0.845072
vt 0.069371 0.847861
vt 0.069557 0.845072
vt 0.070916 0.829591
vt 0.072636 0.819453
vt 0.071160 0.826316
vt 0.065980 0.836277
vt 0.067742 0.828995
vt 0.071701 0.835440
vt 0.069939 0.835440
vt 0.073020 0.833573
vt 0.064012 0.828806
vt 0.065774 0.828830
vt 0.063913 0.836087
vt 0.070967 0.826161
vt 0.069205 0.826185
vt 0.071602 0.838870
vt 0.069841 0.838870
vt 0.065088 0.822494
vt 0.067123 0.816915
vt 0.066852 0.822494
vt 0.071017 0.836872
vt 0.069549 0.843736
vt 0.072971 0.836996
vt 0.071209 0.837020
vt 0.070655 0.816690
vt 0.065980 0.828995
vt 0.072260 0.842250
vt 0.070784 0.847809
vt 0.064298 0.848515
vt 0.066059 0.848539
vt 0.072636 0.846001
vt 0.070874 0.846024
vt 0.071504 0.821316
vt 0.072260 0.828124
vt 0.065426 0.848698
vt 0.067549 0.843120
vt 0.072546 0.821285
vt 0.072161 0.835405
vt 0.067646 0.839698
vt 0.065426 0.816575
vt 0.067188 0.816575
vt 0.072564 0.816708
vt 0.070529 0.822287
vt 0.071164 0.819955
vt 0.069403 0.819980
vt 0.053961 0.837157
vt 0.051410 0.828343
vt 0.053961 0.828303
vt 0.061381 0.868498
vt 0.054939 0.867466
vt 0.061445 0.867887
vt 0.061404 0.866591
vt 0.071449 0.829525
vt 0.066712 0.837015
vt 0.066712 0.830139
vt 0.075469 0.840222
vt 0.081028 0.835875
vt 0.078776 0.842090
vt 0.065160 0.836488
vt 0.061841 0.828343
vt 0.065160 0.828972
vt 0.059164 0.828302
vt 0.056513 0.837197
vt 0.056513 0.828262
vt 0.051642 0.845361
vt 0.051410 0.837117
vt 0.048131 0.866747
vt 0.054331 0.868042
vt 0.049217 0.866272
vt 0.056156 0.866252
vt 0.071449 0.837628
vt 0.066526 0.843477
vt 0.077280 0.829909
vt 0.077280 0.835226
vt 0.083897 0.828708
vt 0.083897 0.836428
vt 0.059165 0.837157
vt 0.056749 0.845593
vt 0.054195 0.845477
vt 0.052078 0.852082
vt 0.044970 0.864448
vt 0.051541 0.865288
vt 0.070816 0.851451
vt 0.071229 0.845243
vt 0.078776 0.823045
vt 0.081028 0.829261
vt 0.081268 0.821453
vt 0.059838 0.852261
vt 0.059398 0.845478
vt 0.059160 0.853049
vt 0.062153 0.846150
vt 0.061717 0.852871
vt 0.043529 0.864771
vt 0.042711 0.862215
vt 0.048116 0.863817
vt 0.065354 0.845590
vt 0.070253 0.849091
vt 0.065655 0.851798
vt 0.075470 0.824913
vt 0.074543 0.817979
vt 0.076328 0.815538
vt 0.054397 0.846267
vt 0.056602 0.853226
vt 0.053957 0.853050
vt 0.059834 0.837946
vt 0.062269 0.842028
vt 0.059717 0.842106
vt 0.041081 0.861066
vt 0.042711 0.859842
vt 0.042711 0.861028
vt 0.046294 0.860102
vt 0.046294 0.861059
vt 0.065274 0.841783
vt 0.069862 0.837362
vt 0.069930 0.840593
vt 0.067483 0.818182
vt 0.071692 0.816325
vt 0.069775 0.819511
vt 0.069671 0.811678
vt 0.073000 0.813608
vt 0.059361 0.845740
vt 0.062004 0.845623
vt 0.059363 0.845740
vt 0.062385 0.829132
vt 0.062385 0.837906
vt 0.043529 0.857367
vt 0.041081 0.859780
vt 0.048116 0.858306
vt 0.065194 0.837976
vt 0.069862 0.830486
vt 0.062356 0.813523
vt 0.068841 0.814672
vt 0.054630 0.829092
vt 0.057282 0.837987
vt 0.054632 0.837946
vt 0.059600 0.820772
vt 0.059834 0.829092
vt 0.048131 0.855404
vt 0.044970 0.857615
vt 0.051542 0.856845
vt 0.065194 0.829872
vt 0.069998 0.824024
vt 0.062271 0.817258
vt 0.055872 0.814672
vt 0.062102 0.810337
vt 0.057046 0.820656
vt 0.057282 0.829052
vt 0.051575 0.845623
vt 0.051693 0.841511
vt 0.051693 0.841511
vt 0.051231 0.854765
vt 0.054939 0.854625
vt 0.052078 0.855214
vt 0.056156 0.855895
vt 0.053849 0.856370
vt 0.057125 0.817901
vt 0.055822 0.821444
vt 0.054818 0.819221
vt 0.052474 0.820840
vt 0.053021 0.816325
vt 0.054766 0.819511
vt 0.050169 0.817979
vt 0.051205 0.813608
vt 0.053957 0.813989
vt 0.056824 0.817234
vt 0.054174 0.817378
vt 0.054159 0.820245
vt 0.051812 0.828605
vt 0.051575 0.820360
vt 0.061381 0.853690
vt 0.054331 0.854127
vt 0.061404 0.855570
vt 0.070863 0.830142
vt 0.066852 0.824294
vt 0.071077 0.822527
vt 0.049072 0.824913
vt 0.042937 0.821453
vt 0.047877 0.815538
vt 0.059602 0.828564
vt 0.056744 0.820129
vt 0.059363 0.820245
vt 0.054399 0.828565
vt 0.051812 0.837379
vt 0.049181 0.862793
vt 0.047518 0.859974
vt 0.049181 0.859861
vt 0.067951 0.854643
vt 0.061445 0.854222
vt 0.066671 0.837632
vt 0.066671 0.830756
vt 0.064305 0.834418
vt 0.070036 0.840184
vt 0.064192 0.842010
vt 0.043685 0.829261
vt 0.045937 0.823045
vt 0.056986 0.837459
vt 0.056986 0.828525
vt 0.054159 0.845739
vt 0.054279 0.841589
vt 0.059600 0.820772
vt 0.070819 0.855242
vt 0.071266 0.856873
vt 0.068964 0.856392
vt 0.070971 0.842062
vt 0.066852 0.844094
vt 0.066762 0.840871
vt 0.071811 0.827917
vt 0.066088 0.822013
vt 0.072048 0.820329
vt 0.064524 0.851302
vt 0.070465 0.843371
vt 0.070806 0.848630
vt 0.047261 0.835226
vt 0.043685 0.832576
vt 0.047261 0.832574
vt 0.043685 0.835875
vt 0.040308 0.832577
vt 0.059481 0.841589
vt 0.056744 0.845855
vt 0.056865 0.841667
vt 0.053709 0.852521
vt 0.051351 0.848984
vt 0.053934 0.849130
vt 0.076933 0.856429
vt 0.077920 0.857661
vt 0.075796 0.856749
vt 0.074691 0.858344
vt 0.072978 0.857608
vt 0.073947 0.822661
vt 0.073508 0.826096
vt 0.072055 0.824363
vt 0.072607 0.838561
vt 0.066233 0.831090
vt 0.072607 0.830484
vt 0.066052 0.844406
vt 0.066233 0.837955
vt 0.049072 0.840222
vt 0.044811 0.838982
vt 0.048166 0.837724
vt 0.045937 0.842090
vt 0.041622 0.840055
vt 0.057164 0.842184
vt 0.057046 0.846382
vt 0.057164 0.842184
vt 0.072048 0.849774
vt 0.065886 0.841779
vt 0.071811 0.843584
vt 0.064192 0.826342
vt 0.070132 0.833731
vt 0.072500 0.826680
vt 0.066142 0.827856
vt 0.065816 0.835327
vt 0.065886 0.828462
vt 0.063867 0.848202
vt 0.069760 0.845448
vt 0.072193 0.819801
vt 0.066052 0.824638
vt 0.065881 0.822009
vt 0.054464 0.845074
vt 0.051554 0.851679
vt 0.051879 0.844958
vt 0.074632 0.866785
vt 0.067951 0.867484
vt 0.073673 0.866306
vt 0.071266 0.865316
vt 0.071229 0.821910
vt 0.066176 0.818410
vt 0.070816 0.815703
vt 0.072193 0.849244
vt 0.065710 0.849666
vt 0.065881 0.847036
vt 0.072067 0.844295
vt 0.068841 0.850464
vt 0.067483 0.846954
vt 0.074543 0.847157
vt 0.069671 0.853457
vt 0.059399 0.819982
vt 0.057193 0.813022
vt 0.059838 0.813199
vt 0.051642 0.820098
vt 0.054195 0.819983
vt 0.068432 0.868062
vt 0.066651 0.866266
vt 0.066526 0.823677
vt 0.069760 0.820418
vt 0.070036 0.826866
vt 0.071770 0.839788
vt 0.065851 0.838553
vt 0.081268 0.843683
vt 0.076328 0.849597
vt 0.056749 0.819867
vt 0.067023 0.846727
vt 0.065017 0.849305
vt 0.064847 0.846681
vt 0.064150 0.831097
vt 0.063806 0.828448
vt 0.064007 0.822012
vt 0.072050 0.837349
vt 0.064496 0.830768
vt 0.072112 0.826845
vt 0.072208 0.833695
vt 0.064059 0.827870
vt 0.064677 0.844057
vt 0.064587 0.840846
vt 0.064341 0.823714
vt 0.063992 0.818466
vt 0.064150 0.837948
vt 0.063806 0.841737
vt 0.063771 0.838518
vt 0.063629 0.849634
vt 0.063799 0.847010
vt 0.072050 0.830498
vt 0.063992 0.848688
vt 0.064341 0.843440
vt 0.071837 0.845387
vt 0.066088 0.847041
vt 0.072112 0.840135
vt 0.064677 0.824331
vt 0.064526 0.830151
vt 0.072185 0.843787
vt 0.072439 0.849035
vt 0.064526 0.837002
vt 0.072117 0.840568
vt 0.070126 0.821390
vt 0.072439 0.818813
vt 0.070947 0.822132
vt 0.072888 0.848598
vt 0.063969 0.824659
vt 0.063799 0.822035
vt 0.073255 0.823451
vt 0.074082 0.825690
vt 0.072640 0.823964
vt 0.054017 0.842636
vt 0.051649 0.838553
vt 0.054540 0.842014
vt 0.072057 0.844393
vt 0.074428 0.840317
vt 0.075135 0.840721
vt 0.067574 0.819196
vt 0.071191 0.822229
vt 0.067295 0.819961
vt 0.063195 0.820133
vt 0.067631 0.821710
vt 0.063195 0.820947
vt 0.050944 0.838957
vt 0.050111 0.834316
vt 0.063195 0.847646
vt 0.067631 0.846034
vt 0.067910 0.846798
vt 0.049308 0.829669
vt 0.049308 0.834454
vt 0.052794 0.825222
vt 0.054857 0.824007
vt 0.053409 0.825735
vt 0.062866 0.845899
vt 0.058436 0.844282
vt 0.062866 0.845083
vt 0.069984 0.822131
vt 0.071532 0.823943
vt 0.075969 0.836087
vt 0.076772 0.836225
vt 0.060511 0.818749
vt 0.062866 0.819160
vt 0.060651 0.819541
vt 0.075605 0.827537
vt 0.075620 0.829927
vt 0.074851 0.827808
vt 0.058157 0.845047
vt 0.058758 0.821745
vt 0.058479 0.820981
vt 0.050126 0.827425
vt 0.051649 0.825591
vt 0.050880 0.827703
vt 0.056401 0.822186
vt 0.056803 0.822879
vt 0.072057 0.823317
vt 0.074428 0.827375
vt 0.058157 0.819154
vt 0.054540 0.822155
vt 0.054017 0.821528
vt 0.062866 0.818344
vt 0.071532 0.843771
vt 0.076772 0.831448
vt 0.075135 0.826965
vt 0.067574 0.845089
vt 0.067295 0.844321
vt 0.054332 0.844462
vt 0.058758 0.846068
vt 0.058479 0.846835
vt 0.050944 0.825180
vt 0.076772 0.833837
vt 0.075969 0.833840
vt 0.063195 0.846832
vt 0.054629 0.837946
vt 0.054514 0.842106
vt 0.053934 0.816853
vt 0.051351 0.817000
vt 0.074632 0.855441
vt 0.070819 0.855242
vt 0.071539 0.854795
vt 0.059137 0.849131
vt 0.056289 0.852699
vt 0.056517 0.849277
vt 0.042937 0.843683
vt 0.056602 0.813812
vt 0.056670 0.816970
vt 0.054159 0.820245
vt 0.074632 0.855441
vt 0.073673 0.855838
vt 0.056517 0.849277
vt 0.050844 0.862906
vt 0.049181 0.862793
vt 0.050384 0.854316
vt 0.047045 0.855004
vt 0.050384 0.854316
vt 0.073000 0.813608
vt 0.056716 0.812619
vt 0.059346 0.812796
vt 0.059344 0.812796
vt 0.051723 0.846151
vt 0.054395 0.846267
vt 0.047518 0.862680
vt 0.075591 0.855044
vt 0.072260 0.854349
vt 0.061318 0.869109
vt 0.068912 0.868639
vt 0.075591 0.867263
vt 0.080548 0.857173
vt 0.078069 0.856108
vt 0.050844 0.859748
vt 0.053723 0.853629
vt 0.042088 0.857119
vt 0.039450 0.859718
vt 0.039450 0.861103
vt 0.042088 0.865095
vt 0.041081 0.862351
vt 0.047045 0.867223
vt 0.053723 0.868618
vt 0.068912 0.853650
vt 0.068432 0.854146
vt 0.054332 0.823386
vt 0.071714 0.821607
vt 0.064496 0.837619
vt 0.072394 0.822895
vt 0.059602 0.837419
vt 0.040308 0.828707
vt 0.047261 0.829909
vt 0.070863 0.838246
vt 0.066651 0.855909
vt 0.054399 0.837419
vt 0.071017 0.822747
vt 0.067548 0.817913
vt 0.069477 0.812710
vt 0.056716 0.852034
vt 0.057048 0.845190
vt 0.062153 0.820888
vt 0.054635 0.852260
vt 0.053709 0.813462
vt 0.056289 0.813284
vt 0.051128 0.813640
vt 0.058436 0.819922
vt 0.067910 0.820944
vt 0.072185 0.824061
vt 0.063969 0.844386
vt 0.072394 0.846150
vt 0.054396 0.820772
vt 0.054533 0.811678
vt 0.057058 0.818182
vt 0.053864 0.822564
vt 0.052510 0.820541
vt 0.049217 0.855803
vt 0.065788 0.822153
vt 0.072198 0.813880
vt 0.070436 0.813904
vt 0.052168 0.851521
vt 0.056919 0.851804
vt 0.059600 0.846266
vt 0.039450 0.862488
vt 0.075969 0.831592
vt 0.050111 0.829814
vt 0.069998 0.843824
vt 0.063736 0.835299
vt 0.071728 0.835993
vt 0.072067 0.820840
vt 0.046294 0.862016
vt 0.065788 0.843120
vt 0.072296 0.844729
vt 0.062358 0.821805
vt 0.051839 0.842028
vt 0.051505 0.817527
vt 0.051723 0.820888
vt 0.062242 0.837379
vt 0.061998 0.812974
vt 0.051955 0.837906
vt 0.061780 0.848984
vt 0.058911 0.852522
vt 0.062072 0.820098
vt 0.062508 0.813377
vt 0.062122 0.841511
vt 0.062242 0.828605
vt 0.062004 0.820360
vt 0.051287 0.814167
vt 0.051955 0.829132
vt 0.051287 0.852872
vt 0.062508 0.852082
vt 0.062072 0.845361
vt 0.061841 0.837117
vt 0.040308 0.836428
vt 0.074788 0.825285
vt 0.051961 0.827462
vt 0.051255 0.827058
vt 0.063629 0.819411
vt 0.065710 0.819379
vt 0.071993 0.816708
vt 0.070602 0.822629
vt 0.072235 0.820618
vt 0.071310 0.817164
vt 0.069549 0.817188
vt 0.071504 0.842283
vt 0.063942 0.814959
vt 0.062108 0.819166
vt 0.071222 0.815688
vt 0.052320 0.821183
vt 0.062484 0.853887
vt 0.072548 0.843350
vt 0.072293 0.822287
vt 0.083570 0.836194
vt 0.079234 0.857417
vt 0.067194 0.849361
vt 0.051128 0.852344
vt 0.071133 0.847861
vt 0.043942 0.843091
vt 0.052341 0.815069
vt 0.062441 0.825791
vt 0.062484 0.810917
vt 0.052378 0.848272
vt 0.076757 0.827402
vt 0.069807 0.812234
vt 0.057317 0.853016
vt 0.050023 0.829093
vt 0.052701 0.824570
vt 0.064843 0.817433
vt 0.083570 0.828732
vt 0.052378 0.817344
vt 0.059748 0.819577
vt 0.048481 0.840511
vt 0.069773 0.846522
vt 0.051909 0.845997
vt 0.072921 0.826292
vt 0.071701 0.828158
vt 0.064298 0.821967
vt 0.065358 0.816915
vt 0.071310 0.843711
vt 0.072921 0.840418
vt 0.072417 0.816667
vt 0.072546 0.847833
vt 0.064012 0.842932
vt 0.065884 0.839698
vt 0.065607 0.819364
vt 0.066176 0.848744
vt 0.057193 0.852437
vt 0.065354 0.822257
vt 0.057780 0.820323
vt 0.071077 0.845860
vt 0.064123 0.845115
vt 0.075660 0.824704
vt 0.054135 0.851856
vt 0.071993 0.852337
vt 0.063867 0.818757
vt 0.071837 0.820410
vt 0.064007 0.846988
vt 0.070253 0.818757
vt 0.076423 0.829789
vt 0.054857 0.843836
vt 0.061318 0.853158
vt 0.061557 0.852344
s 0
g car_tire_Material
usemtl Material
f 1/1/1 11/2/1 10/3/1
f 3/4/2 11/5/2 2/6/2
f 4/7/3 12/8/3 3/4/3
f 4/9/4 14/10/4 13/11/4
f 7/12/5 17/13/5 16/14/5
f 9/15/6 17/16/6 8/17/6
f 1/1/7 18/18/7 9/15/7
f 10/3/8 20/19/8 19/20/8
f 12/8/9 20/21/9 11/5/9
f 13/22/10 21/23/10 12/8/10
f 13/11/11 23/24/11 22/25/11
f 17/13/12 24/26/12 16/14/12
f 17/13/13 26/27/13 25/28/13
f 10/3/14 26/29/14 18/18/14
f 20/19/15 27/30/15 19/20/15
f 20/21/16 29/31/16 28/32/16
f 22/33/17 29/31/17 21/23/17
f 23/24/18 30/34/18 22/25/18
f 24/26/19 33/35/19 32/36/19
f 25/28/20 34/37/20 33/35/20
f 26/29/21 27/30/21 34/38/21
f 28/39/22 35/40/22 27/41/22
f 28/32/23 37/42/23 36/43/23
f 30/44/24 37/42/24 29/31/24
f 31/45/25 38/46/25 30/47/25
f 33/35/26 40/48/26 32/36/26
f 33/35/27 42/49/27 41/50/27
f 34/51/28 35/40/28 42/52/28
f 433/53/29 44/54/29 43/55/29
f 440/56/30 45/57/30 44/58/30
f 435/59/31 46/60/31 45/57/31
f 437/61/32 47/62/32 46/63/32
f 436/64/33 49/65/33 434/66/33
f 439/67/34 50/68/34 436/64/34
f 433/53/35 51/69/35 439/70/35
f 43/55/36 53/71/36 52/72/36
f 45/57/37 53/73/37 44/58/37
f 45/57/38 55/74/38 54/75/38
f 47/62/39 55/76/39 46/63/39
f 49/65/40 59/77/40 58/78/40
f 51/79/41 59/77/41 50/68/41
f 43/55/42 60/80/42 51/69/42
f 52/72/43 62/81/43 61/82/43
f 54/75/44 62/83/44 53/73/44
f 54/75/45 64/84/45 63/85/45
f 55/76/46 65/86/46 64/87/46
f 59/77/47 67/88/47 58/78/47
f 60/89/48 68/90/48 59/77/48
f 52/72/49 69/91/49 60/80/49
f 413/92/50 71/93/50 70/94/50
f 415/95/51 72/96/51 71/97/51
f 407/98/52 73/99/52 72/96/52
f 411/100/53 73/101/53 409/102/53
f 410/103/54 76/104/54 408/105/54
f 412/106/55 77/107/55 410/103/55
f 413/92/56 78/108/56 412/109/56
f 70/94/57 80/110/57 79/111/57
f 71/97/58 81/112/58 80/113/58
f 72/96/59 82/114/59 81/112/59
f 74/115/60 82/116/60 73/117/60
f 77/107/61 85/118/61 76/104/61
f 77/107/62 87/119/62 86/120/62
f 70/94/63 87/121/63 78/122/63
f 79/111/64 89/123/64 88/124/64
f 81/125/65 89/123/65 80/110/65
f 82/114/66 90/126/66 81/112/66
f 83/127/67 91/128/67 82/116/67
f 24/129/68 123/130/68 16/131/68
f 85/118/69 95/132/69 94/133/69
f 86/120/70 96/134/70 95/132/70
f 79/111/71 96/135/71 87/121/71
f 368/136/72 98/137/72 97/138/72
f 372/139/73 99/140/73 98/141/73
f 364/142/74 100/143/74 99/140/74
f 366/144/75 101/145/75 100/146/75
f 93/147/76 58/148/76 67/149/76
f 6/150/77 124/151/77 133/152/77
f 367/153/78 103/154/78 365/155/78
f 370/156/79 104/157/79 367/153/79
f 368/136/80 105/158/80 370/159/80
f 488/160/81 107/161/81 106/162/81
f 483/163/82 108/164/82 107/165/82
f 484/166/83 109/167/83 108/164/83
f 487/168/84 110/169/84 109/167/84
f 66/170/85 85/171/85 94/172/85
f 75/173/86 76/174/86 85/171/86
f 489/175/87 112/176/87 485/177/87
f 482/178/88 113/179/88 489/175/88
f 488/160/89 114/180/89 482/181/89
f 115/182/90 32/183/90 40/184/90
f 123/130/91 7/185/91 16/131/91
f 365/186/92 66/170/92 94/172/92
f 58/148/93 111/187/93 49/188/93
f 32/189/94 117/190/94 24/129/94
f 485/191/95 57/192/95 103/193/95
f 118/194/96 128/195/96 127/196/96
f 120/197/97 128/198/97 119/199/97
f 121/200/98 129/201/98 120/197/98
f 121/202/99 131/203/99 130/204/99
f 408/205/100 93/206/100 67/207/100
f 124/208/101 134/209/101 133/210/101
f 125/211/102 135/212/102 134/209/102
f 118/213/103 135/214/103 126/215/103
f 127/216/104 2/217/104 1/1/104
f 129/201/105 2/6/105 128/198/105
f 129/201/106 4/7/106 3/4/106
f 130/204/107 5/218/107 4/9/107
f 7/185/108 6/219/108 133/220/108
f 434/221/109 115/182/109 40/184/109
f 134/209/110 7/12/110 133/210/110
f 134/209/111 9/222/111 8/223/111
f 127/216/112 9/15/112 135/214/112
f 490/224/113 110/225/113 481/226/113
f 148/227/114 75/173/114 66/170/114
f 154/228/115 102/229/115 93/147/115
f 143/230/116 56/231/116 47/62/116
f 83/127/114 153/232/114 92/233/114
f 102/229/116 158/234/116 111/187/116
f 165/235/117 6/219/117 132/236/117
f 163/237/118 132/236/118 123/130/118
f 374/238/119 66/170/119 371/239/119
f 373/240/119 101/145/119 369/241/119
f 162/242/120 131/243/120 122/244/120
f 150/245/121 84/246/121 75/173/121
f 443/247/122 115/182/122 441/248/122
f 414/249/123 154/228/123 93/147/123
f 145/250/115 65/86/115 56/231/115
f 140/251/124 31/252/124 23/24/124
f 160/253/124 117/190/124 116/254/124
f 115/182/125 160/255/125 116/256/125
f 117/190/126 163/237/126 123/130/126
f 149/257/121 83/127/121 74/115/121
f 136/258/118 14/10/118 5/218/118
f 141/259/125 39/260/125 31/45/125
f 164/261/117 5/218/117 131/203/117
f 138/262/126 23/24/126 14/10/126
f 438/263/122 143/230/122 47/62/122
f 411/100/123 149/264/123 74/265/123
f 137/266/120 15/267/120 6/150/120
f 491/268/113 57/192/113 486/269/113
f 393/270/127 167/271/127 389/272/127
f 351/273/128 292/274/128 246/275/128
f 292/274/129 290/276/129 246/275/129
f 290/277/130 173/278/130 214/279/130
f 265/280/131 175/281/131 291/282/131
f 175/283/132 168/284/132 291/285/132
f 459/286/133 169/287/133 166/288/133
f 393/270/134 183/289/134 248/290/134
f 359/291/135 292/274/135 354/292/135
f 177/293/136 172/294/136 292/274/136
f 172/295/137 250/296/137 173/278/137
f 179/297/138 175/281/138 264/298/138
f 175/281/139 251/299/139 176/300/139
f 464/301/140 249/302/140 169/287/140
f 398/303/141 181/304/141 183/289/141
f 359/291/142 182/305/142 177/293/142
f 182/305/143 178/306/143 177/293/143
f 253/307/144 250/296/144 178/308/144
f 179/297/145 255/309/145 180/310/145
f 180/310/146 245/311/146 251/299/146
f 472/312/147 249/302/147 469/313/147
f 400/314/148 256/315/148 181/316/148
f 347/317/149 230/318/149 182/305/149
f 230/318/150 253/319/150 182/305/150
f 288/320/151 239/321/151 253/322/151
f 254/323/152 270/324/152 255/309/152
f 255/309/153 186/325/153 245/311/153
f 460/326/154 294/327/154 472/328/154
f 394/329/155 451/330/155 458/331/155
f 457/332/156 231/333/156 446/334/156
f 446/334/157 188/335/157 448/336/157
f 448/337/158 189/338/158 449/339/158
f 206/340/159 447/341/159 445/342/159
f 447/341/160 193/343/160 450/344/160
f 461/345/161 335/346/161 475/347/161
f 394/329/162 226/348/162 225/349/162
f 360/350/163 231/333/163 355/351/163
f 231/333/164 195/352/164 188/335/164
f 188/353/165 260/354/165 189/338/165
f 206/340/166 198/355/166 192/356/166
f 198/355/167 193/343/167 192/356/167
f 470/357/168 187/358/168 465/359/168
f 401/360/169 226/348/169 392/361/169
f 348/362/170 194/363/170 360/350/170
f 194/363/171 223/364/171 195/352/171
f 195/365/172 284/366/172 260/354/172
f 196/367/173 203/368/173 198/355/173
f 203/368/174 261/369/174 198/355/174
f 470/357/175 244/370/175 241/371/175
f 215/372/176 387/373/176 383/374/176
f 431/375/177 224/376/177 418/377/177
f 418/377/178 279/378/178 420/379/178
f 279/380/179 422/381/179 420/382/179
f 238/383/180 421/384/180 419/385/180
f 285/386/181 423/387/181 421/384/181
f 462/388/182 424/389/182 479/390/182
f 403/391/183 243/392/183 242/393/183
f 356/394/184 224/376/184 353/395/184
f 224/376/185 207/396/185 279/378/185
f 207/397/186 170/398/186 279/399/186
f 258/400/187 285/386/187 238/383/187
f 285/386/188 200/401/188 199/402/188
f 466/403/189 204/404/189 462/405/189
f 395/406/190 300/407/190 243/392/190
f 361/408/191 289/409/191 356/410/191
f 210/411/192 207/396/192 289/412/192
f 207/397/193 278/413/193 171/414/193
f 264/415/194 277/416/194 179/417/194
f 258/400/195 213/418/195 208/419/195
f 213/418/196 200/401/196 208/419/196
f 466/403/197 269/420/197 262/421/197
f 402/422/198 383/374/198 406/423/198
f 401/360/199 342/370/199 404/424/199
f 375/425/200 272/426/200 377/427/200
f 377/428/201 218/429/201 380/430/201
f 196/431/202 286/432/202 197/433/202
f 266/434/203 275/435/203 293/436/203
f 273/437/204 378/438/204 376/439/204
f 274/440/205 381/441/205 378/438/205
f 478/442/206 190/443/206 379/444/206
f 390/445/207 494/446/207 506/447/207
f 505/448/208 298/449/208 495/450/208
f 495/450/209 237/451/209 498/452/209
f 498/453/210 219/454/210 492/455/210
f 258/456/211 268/457/211 212/458/211
f 258/456/212 287/459/212 257/460/212
f 283/461/213 500/462/213 496/463/213
f 247/464/214 493/465/214 500/462/214
f 444/466/215 331/467/215 455/468/215
f 254/469/216 296/470/216 205/471/216
f 265/472/217 263/473/217 264/415/217
f 376/474/218 268/457/218 382/475/218
f 196/431/219 299/476/219 276/477/219
f 254/478/220 277/416/220 280/479/220
f 496/480/221 281/481/221 497/482/221
f 391/483/222 174/484/222 217/485/222
f 350/486/223 252/487/223 184/488/223
f 252/487/224 259/489/224 184/488/224
f 232/490/225 297/491/225 259/492/225
f 419/493/226 286/494/226 425/495/226
f 266/496/227 222/497/227 209/498/227
f 235/499/228 228/500/228 222/497/228
f 467/501/229 227/502/229 463/503/229
f 389/272/230 174/504/230 396/505/230
f 351/273/231 252/487/231 358/506/231
f 246/275/232 232/507/232 252/487/232
f 290/277/233 233/508/233 232/490/233
f 265/472/234 293/509/234 295/510/234
f 445/511/235 296/470/235 452/512/235
f 265/280/236 235/499/236 266/496/236
f 235/499/237 168/513/237 236/514/237
f 459/286/238 229/515/238 467/501/238
f 492/516/239 306/517/239 501/518/239
f 257/460/240 320/519/240 268/457/240
f 286/432/241 329/520/241 330/521/241
f 260/354/242 313/522/242 189/338/242
f 278/413/243 302/523/243 171/414/243
f 299/476/244 329/520/244 276/477/244
f 293/509/245 324/524/245 295/510/245
f 295/510/246 317/525/246 263/473/246
f 382/475/247 320/519/247 385/526/247
f 380/430/248 305/527/248 384/528/248
f 297/491/249 315/529/249 314/530/249
f 287/459/250 319/531/250 257/460/250
f 452/512/251 322/532/251 454/533/251
f 425/495/252 330/534/252 428/535/252
f 284/366/253 310/536/253 260/354/253
f 250/296/254 307/537/254 312/538/254
f 277/416/255 321/539/255 280/479/255
f 280/540/256 322/532/256 296/470/256
f 263/473/257 318/541/257 277/416/257
f 170/398/258 302/523/258 301/542/258
f 173/278/259 303/543/259 214/279/259
f 239/321/260 308/544/260 307/545/260
f 233/508/261 303/543/261 315/529/261
f 250/296/262 304/546/262 173/278/262
f 449/339/263 313/522/263 453/547/263
f 422/548/264 301/549/264 427/550/264
f 275/435/265 327/551/265 293/436/265
f 497/482/266 323/552/266 502/553/266
f 374/554/267 323/555/267 385/556/267
f 163/557/267 318/558/267 317/559/267
f 140/560/268 307/561/268 141/562/268
f 150/563/267 320/564/267 319/565/267
f 151/566/268 301/567/268 302/568/268
f 161/569/267 321/570/267 318/558/267
f 136/571/268 304/572/268 138/573/268
f 159/574/267 321/570/267 160/575/267
f 490/576/268 305/577/268 501/578/268
f 137/579/267 324/580/267 327/581/267
f 416/582/268 311/583/268 427/550/268
f 141/562/268 308/584/268 142/585/268
f 417/586/267 325/587/267 428/588/267
f 491/589/267 316/590/267 502/591/267
f 165/592/267 317/559/267 324/580/267
f 151/566/268 309/593/268 153/594/268
f 443/595/267 328/596/267 454/597/267
f 373/598/268 309/593/268 384/599/268
f 147/600/268 310/601/268 311/583/268
f 154/602/267 329/603/267 156/604/267
f 152/605/267 319/565/267 325/587/267
f 140/560/268 304/572/268 312/606/268
f 143/607/268 310/601/268 145/608/268
f 139/609/267 327/581/267 326/610/267
f 162/611/268 315/612/268 164/613/268
f 158/614/267 329/603/267 328/596/267
f 442/615/268 308/584/268 453/616/268
f 164/613/268 303/617/268 136/571/268
f 476/618/269 455/468/269 480/619/269
f 432/620/270 346/393/270 430/621/270
f 362/622/271 386/623/271 388/624/271
f 507/625/272 341/626/272 504/627/272
f 493/465/273 338/628/273 503/465/273
f 424/389/274 344/629/274 429/630/274
f 242/393/275 405/631/275 403/391/275
f 349/632/276 337/633/276 362/622/276
f 465/359/277 333/358/277 476/618/277
f 499/634/278 334/443/278 504/627/278
f 300/635/279 363/636/279 361/408/279
f 426/637/280 343/638/280 430/639/280
f 375/425/281 339/411/281 386/623/281
f 450/344/282 340/343/282 456/640/282
f 220/641/283 477/642/283 468/643/283
f 186/644/284 474/645/284 460/326/284
f 361/408/285 339/646/285 210/646/285
f 349/632/286 336/647/286 215/647/286
f 387/648/287 362/622/287 388/624/287
f 167/649/231 358/506/231 174/650/231
f 217/651/223 358/506/223 350/486/223
f 221/652/288 505/448/288 494/653/288
f 243/654/191 361/408/191 356/410/191
f 242/655/289 356/394/289 353/395/289
f 426/637/290 353/395/290 431/375/290
f 201/638/291 360/350/291 226/656/291
f 226/656/163 355/351/163 225/657/163
f 451/658/156 355/351/156 457/332/156
f 181/659/149 352/660/149 347/317/149
f 183/661/142 347/317/142 359/291/142
f 183/661/292 354/292/292 248/662/292
f 248/662/293 351/273/293 167/649/293
f 345/663/294 388/624/294 363/664/294
f 216/633/295 386/623/295 337/633/295
f 388/624/296 339/411/296 363/664/296
f 373/598/268 305/577/268 155/665/268
f 374/554/267 320/564/267 148/666/267
f 380/430/297 309/667/297 278/413/297
f 382/475/247 323/552/247 281/481/247
f 376/474/218 281/481/218 273/668/218
f 471/669/298 379/444/298 269/420/298
f 213/418/299 381/441/299 271/670/299
f 212/671/300 378/438/300 213/418/300
f 377/428/201 278/413/201 211/672/201
f 375/425/301 211/673/301 210/411/301
f 399/674/302 383/374/302 300/407/302
f 383/374/303 345/407/303 300/407/303
f 92/233/119 373/240/119 369/241/119
f 146/675/119 371/239/119 57/192/119
f 57/192/92 365/186/92 103/193/92
f 96/135/80 368/136/80 370/159/80
f 95/132/79 370/156/79 367/153/79
f 94/133/78 367/153/78 365/155/78
f 92/233/75 366/144/75 91/128/75
f 91/676/74 364/142/74 90/126/74
f 90/126/73 372/139/73 89/677/73
f 89/123/72 368/136/72 88/124/72
f 269/420/304 406/423/304 399/674/304
f 403/391/305 344/404/305 204/404/305
f 344/404/306 432/620/306 429/630/306
f 229/515/230 389/272/230 396/505/230
f 229/678/307 391/483/307 227/679/307
f 220/626/308 506/447/308 499/634/308
f 201/680/309 404/424/309 343/680/309
f 190/443/310 406/423/310 379/444/310
f 262/421/311 399/674/311 395/406/311
f 262/421/312 403/391/312 204/404/312
f 241/371/313 401/360/313 392/361/313
f 187/358/314 392/361/314 394/329/314
f 444/466/315 394/329/315 458/331/315
f 185/467/316 400/314/316 294/327/316
f 249/302/141 400/681/141 398/303/141
f 249/302/317 393/270/317 169/287/317
f 169/287/318 389/272/318 166/288/318
f 429/630/319 404/682/319 342/683/319
f 426/637/320 348/362/320 201/638/320
f 426/637/321 346/655/321 242/655/321
f 424/389/322 342/370/322 244/370/322
f 404/682/323 430/621/323 343/684/323
f 417/586/267 330/685/267 154/602/267
f 416/582/268 301/567/268 149/686/268
f 422/548/264 311/687/264 284/366/264
f 425/495/252 325/688/252 287/459/252
f 419/493/226 287/459/226 238/689/226
f 479/390/324 244/370/324 473/690/324
f 203/368/325 423/387/325 267/691/325
f 197/692/326 421/384/326 203/368/326
f 420/382/327 284/693/327 223/694/327
f 418/377/328 223/364/328 202/695/328
f 431/375/329 202/695/329 348/362/329
f 147/696/123 411/100/123 65/86/123
f 152/697/123 414/249/123 84/698/123
f 84/246/330 408/205/330 76/174/330
f 69/91/56 413/92/56 412/109/56
f 68/90/55 412/106/55 410/103/55
f 67/88/54 410/103/54 408/105/54
f 65/86/331 409/102/331 64/87/331
f 64/84/332 407/98/332 63/85/332
f 63/85/333 415/95/333 62/83/333
f 62/699/50 413/92/50 61/700/50
f 444/466/334 397/701/334 185/467/334
f 451/658/156 352/660/156 256/702/156
f 450/344/335 332/325/335 186/325/335
f 480/619/336 331/467/336 474/645/336
f 442/615/268 313/703/268 143/607/268
f 443/595/267 322/704/267 159/574/267
f 449/339/263 308/544/263 240/705/263
f 452/512/251 328/706/251 299/476/251
f 445/511/235 299/476/235 206/707/235
f 444/466/337 333/358/337 187/358/337
f 270/324/338 450/344/338 186/325/338
f 205/708/339 447/341/339 270/324/339
f 448/337/158 240/705/158 288/320/158
f 446/334/157 288/709/157 230/318/157
f 457/332/156 230/318/156 352/660/156
f 458/331/340 256/315/340 397/701/340
f 142/710/122 438/263/122 39/260/122
f 158/234/122 441/248/122 111/187/122
f 111/187/109 434/221/109 49/188/109
f 42/52/35 433/53/35 439/70/35
f 41/50/34 439/67/34 436/64/34
f 40/48/33 436/64/33 434/66/33
f 39/260/32 437/61/32 38/46/32
f 38/711/31 435/59/31 37/42/31
f 37/42/30 440/56/30 36/43/30
f 36/712/29 433/53/29 35/40/29
f 456/713/341 474/645/341 332/644/341
f 423/714/342 473/690/342 267/715/342
f 271/716/298 478/442/298 471/669/298
f 460/326/343 331/467/343 185/467/343
f 234/717/344 477/642/344 338/717/344
f 465/359/345 340/718/345 193/718/345
f 503/719/346 477/720/346 507/625/346
f 340/718/347 480/619/347 456/713/347
f 168/284/238 467/501/238 236/721/238
f 228/722/348 467/501/348 463/503/348
f 381/723/349 461/345/349 478/442/349
f 200/724/197 471/669/197 466/403/197
f 200/724/350 462/405/350 199/725/350
f 199/726/351 479/390/351 423/714/351
f 261/727/352 473/690/352 470/357/352
f 261/727/353 465/359/353 193/718/353
f 190/443/354 475/347/354 334/443/354
f 186/644/355 472/328/355 245/728/355
f 245/729/147 469/313/147 251/730/147
f 176/731/356 469/313/356 464/301/356
f 176/731/357 459/286/357 168/284/357
f 335/346/358 507/625/358 475/347/358
f 499/634/359 402/422/359 190/443/359
f 494/653/360 349/632/360 215/647/360
f 220/626/361 504/627/361 341/626/361
f 493/465/362 335/732/362 191/732/362
f 507/625/363 334/443/363 475/347/363
f 491/589/267 323/555/267 146/733/267
f 490/576/268 306/734/268 157/735/268
f 497/482/266 316/736/266 282/737/266
f 492/516/239 305/527/239 218/429/239
f 496/480/221 282/737/221 283/738/221
f 500/462/364 191/732/364 274/440/364
f 273/437/365 500/462/365 274/440/365
f 498/453/366 218/739/366 272/740/366
f 216/633/367 498/452/367 272/426/367
f 349/632/368 495/450/368 216/633/368
f 506/447/369 215/372/369 402/422/369
f 144/741/113 486/269/113 48/742/113
f 155/743/113 481/226/113 101/145/113
f 48/742/95 485/191/95 112/744/95
f 105/158/89 488/160/89 482/181/89
f 104/157/88 482/178/88 489/175/88
f 103/154/87 489/175/87 485/177/87
f 101/745/84 487/168/84 100/143/84
f 100/143/83 484/166/83 99/140/83
f 99/140/82 483/163/82 98/141/82
f 98/137/81 488/160/81 97/138/81
f 122/244/113 314/530/113 162/242/113
f 122/746/113 121/202/113 297/491/113
f 121/202/113 259/492/113 297/491/113
f 119/199/113 350/486/113 120/197/113
f 119/747/370 391/483/370 217/485/370
f 118/194/371 227/679/371 391/483/371
f 118/213/372 463/503/372 227/502/372
f 126/748/373 228/722/373 463/503/373
f 125/211/374 222/497/374 228/500/374
f 124/151/375 209/498/375 222/497/375
f 209/498/376 124/151/376 275/435/376
f 15/267/113 326/749/113 275/435/113
f 122/244/113 297/491/113 314/530/113
f 121/200/113 120/197/113 259/489/113
f 120/197/113 350/486/113 184/488/113
f 119/199/376 217/651/376 350/486/376
f 119/747/377 118/194/377 391/483/377
f 118/213/378 126/215/378 463/503/378
f 126/748/379 125/211/379 228/722/379
f 125/211/380 124/208/380 222/497/380
f 120/197/113 184/488/113 259/489/113
f 15/267/113 139/750/113 326/749/113
f 124/151/113 15/267/113 275/435/113
f 48/742/120 316/736/120 144/741/120
f 48/742/120 112/744/120 282/737/120
f 109/167/381 110/225/381 219/454/381
f 112/744/120 283/738/120 282/737/120
f 114/751/382 234/717/382 113/179/382
f 106/162/383 468/643/383 114/180/383
f 106/162/120 390/445/120 220/626/120
f 107/161/120 390/445/120 106/162/120
f 107/165/120 357/752/120 221/652/120
f 108/164/120 298/449/120 357/752/120
f 113/179/381 247/464/381 283/461/381
f 237/451/120 109/167/120 219/454/120
f 110/225/120 306/517/120 219/753/120
f 48/742/120 282/737/120 316/736/120
f 112/176/120 113/179/120 283/461/120
f 113/179/384 234/628/384 247/464/384
f 114/751/385 468/643/385 234/717/385
f 106/162/386 220/641/386 468/643/386
f 107/161/120 221/754/120 390/445/120
f 107/165/120 108/164/120 357/752/120
f 109/167/120 237/451/120 108/164/120
f 110/225/120 157/755/120 306/517/120
f 237/451/120 298/449/120 108/164/120
f 1/1/1 2/217/1 11/2/1
f 3/4/387 12/8/387 11/5/387
f 4/7/388 13/22/388 12/8/388
f 4/9/389 5/218/389 14/10/389
f 7/12/390 8/223/390 17/13/390
f 9/15/391 18/18/391 17/16/391
f 1/1/7 10/3/7 18/18/7
f 10/3/8 11/2/8 20/19/8
f 12/8/392 21/23/392 20/21/392
f 13/22/393 22/33/393 21/23/393
f 13/11/394 14/10/394 23/24/394
f 17/13/395 25/28/395 24/26/395
f 17/13/396 18/756/396 26/27/396
f 10/3/14 19/20/14 26/29/14
f 20/19/15 28/757/15 27/30/15
f 20/21/16 21/23/16 29/31/16
f 22/33/397 30/44/397 29/31/397
f 23/24/398 31/252/398 30/34/398
f 24/26/399 25/28/399 33/35/399
f 25/28/400 26/27/400 34/37/400
f 26/29/21 19/20/21 27/30/21
f 28/39/22 36/712/22 35/40/22
f 28/32/401 29/31/401 37/42/401
f 30/44/24 38/711/24 37/42/24
f 31/45/25 39/260/25 38/46/25
f 33/35/402 41/50/402 40/48/402
f 33/35/27 34/37/27 42/49/27
f 34/51/28 27/41/28 35/40/28
f 433/53/29 440/758/29 44/54/29
f 440/56/30 435/59/30 45/57/30
f 435/59/31 437/61/31 46/60/31
f 437/61/32 438/263/32 47/62/32
f 436/64/33 50/68/33 49/65/33
f 439/67/34 51/79/34 50/68/34
f 433/53/35 43/55/35 51/69/35
f 43/55/36 44/54/36 53/71/36
f 45/57/403 54/75/403 53/73/403
f 45/57/38 46/60/38 55/74/38
f 47/62/39 56/231/39 55/76/39
f 49/65/404 50/68/404 59/77/404
f 51/79/41 60/89/41 59/77/41
f 43/55/42 52/72/42 60/80/42
f 52/72/43 53/71/43 62/81/43
f 54/75/44 63/85/44 62/83/44
f 54/75/405 55/74/405 64/84/405
f 55/76/406 56/231/406 65/86/406
f 59/77/407 68/90/407 67/88/407
f 60/89/408 69/759/408 68/90/408
f 52/72/49 61/82/49 69/91/49
f 413/92/50 415/760/50 71/93/50
f 415/95/409 407/98/409 72/96/409
f 407/98/410 409/761/410 73/99/410
f 411/100/411 74/265/411 73/101/411
f 410/103/412 77/107/412 76/104/412
f 412/106/413 78/762/413 77/107/413
f 413/92/414 70/763/414 78/108/414
f 70/94/57 71/93/57 80/110/57
f 71/97/415 72/96/415 81/112/415
f 72/96/416 73/99/416 82/114/416
f 74/115/417 83/127/417 82/116/417
f 77/107/418 86/120/418 85/118/418
f 77/107/419 78/762/419 87/119/419
f 70/94/63 79/111/63 87/121/63
f 79/111/64 80/110/64 89/123/64
f 81/125/65 90/764/65 89/123/65
f 82/114/66 91/676/66 90/126/66
f 83/127/67 92/233/67 91/128/67
f 24/129/68 117/190/68 123/130/68
f 85/118/69 86/120/69 95/132/69
f 86/120/70 87/119/70 96/134/70
f 79/111/71 88/124/71 96/135/71
f 368/136/72 372/765/72 98/137/72
f 372/139/73 364/142/73 99/140/73
f 364/142/74 366/766/74 100/143/74
f 366/144/75 369/241/75 101/145/75
f 93/147/420 102/229/420 58/148/420
f 6/150/77 15/267/77 124/151/77
f 367/153/421 104/157/421 103/154/421
f 370/156/422 105/767/422 104/157/422
f 368/136/80 97/138/80 105/158/80
f 488/160/81 483/768/81 107/161/81
f 483/163/82 484/166/82 108/164/82
f 484/166/83 487/168/83 109/167/83
f 487/168/84 481/769/84 110/169/84
f 66/170/423 75/173/423 85/171/423
f 75/173/424 84/246/424 76/174/424
f 489/175/425 113/179/425 112/176/425
f 482/178/426 114/751/426 113/179/426
f 488/160/89 106/162/89 114/180/89
f 115/182/427 116/256/427 32/183/427
f 123/130/91 132/236/91 7/185/91
f 365/186/92 371/239/92 66/170/92
f 58/148/428 102/229/428 111/187/428
f 32/189/429 116/254/429 117/190/429
f 485/191/95 486/269/95 57/192/95
f 118/194/96 119/747/96 128/195/96
f 120/197/97 129/201/97 128/198/97
f 121/200/98 130/770/98 129/201/98
f 121/202/99 122/746/99 131/203/99
f 408/205/430 414/771/430 93/206/430
f 124/208/101 125/211/101 134/209/101
f 125/211/102 126/748/102 135/212/102
f 118/213/103 127/216/103 135/214/103
f 127/216/104 128/772/104 2/217/104
f 129/201/105 3/4/105 2/6/105
f 129/201/106 130/770/106 4/7/106
f 130/204/107 131/203/107 5/218/107
f 7/185/108 132/236/108 6/219/108
f 434/221/109 441/248/109 115/182/109
f 134/209/110 8/223/110 7/12/110
f 134/209/111 135/212/111 9/222/111
f 127/216/112 1/1/112 9/15/112
f 490/224/113 157/755/113 110/225/113
f 148/227/114 150/245/114 75/173/114
f 154/228/115 156/773/115 102/229/115
f 143/230/116 145/250/116 56/231/116
f 83/127/114 151/774/114 153/232/114
f 102/229/116 156/773/116 158/234/116
f 165/235/117 137/775/117 6/219/117
f 163/237/118 165/235/118 132/236/118
f 374/238/119 148/227/119 66/170/119
f 373/240/119 155/743/119 101/145/119
f 162/242/120 164/776/120 131/243/120
f 150/245/121 152/777/121 84/246/121
f 443/247/122 159/778/122 115/182/122
f 414/249/123 417/779/123 154/228/123
f 145/250/115 147/696/115 65/86/115
f 140/251/124 141/780/124 31/252/124
f 160/253/124 161/781/124 117/190/124
f 115/182/125 159/778/125 160/255/125
f 117/190/126 161/781/126 163/237/126
f 149/257/121 151/774/121 83/127/121
f 136/258/118 138/262/118 14/10/118
f 141/259/125 142/710/125 39/260/125
f 164/261/117 136/258/117 5/218/117
f 138/262/126 140/251/126 23/24/126
f 438/263/122 442/782/122 143/230/122
f 411/100/123 416/783/123 149/264/123
f 137/266/120 139/750/120 15/267/120
f 491/268/113 146/675/113 57/192/113
f 393/270/431 248/290/431 167/271/431
f 351/273/432 354/292/432 292/274/432
f 292/274/433 172/294/433 290/276/433
f 290/277/434 172/295/434 173/278/434
f 265/280/435 264/298/435 175/281/435
f 175/283/436 176/731/436 168/284/436
f 459/286/437 464/301/437 169/287/437
f 393/270/134 398/303/134 183/289/134
f 359/291/438 177/293/438 292/274/438
f 177/293/439 178/306/439 172/294/439
f 172/295/440 178/308/440 250/296/440
f 179/297/441 180/310/441 175/281/441
f 175/281/442 180/310/442 251/299/442
f 464/301/443 469/313/443 249/302/443
f 398/303/141 400/681/141 181/304/141
f 359/291/142 347/317/142 182/305/142
f 182/305/444 253/319/444 178/306/444
f 253/307/445 239/784/445 250/296/445
f 179/297/446 254/323/446 255/309/446
f 180/310/447 255/309/447 245/311/447
f 472/312/147 294/785/147 249/302/147
f 400/314/148 397/701/148 256/315/148
f 347/317/149 352/660/149 230/318/149
f 230/318/150 288/709/150 253/319/150
f 288/320/151 240/705/151 239/321/151
f 254/323/448 205/708/448 270/324/448
f 255/309/449 270/324/449 186/325/449
f 460/326/450 185/467/450 294/327/450
f 394/329/451 225/349/451 451/330/451
f 457/332/156 355/351/156 231/333/156
f 446/334/157 231/333/157 188/335/157
f 448/337/158 188/353/158 189/338/158
f 206/340/159 192/356/159 447/341/159
f 447/341/452 192/356/452 193/343/452
f 461/345/453 191/346/453 335/346/453
f 394/329/162 392/361/162 226/348/162
f 360/350/163 194/363/163 231/333/163
f 231/333/164 194/363/164 195/352/164
f 188/353/165 195/365/165 260/354/165
f 206/340/454 196/367/454 198/355/454
f 198/355/455 261/369/455 193/343/455
f 470/357/456 241/371/456 187/358/456
f 401/360/457 201/680/457 226/348/457
f 348/362/170 202/695/170 194/363/170
f 194/363/458 202/695/458 223/364/458
f 195/365/459 223/786/459 284/366/459
f 196/367/460 197/692/460 203/368/460
f 203/368/461 267/691/461 261/369/461
f 470/357/462 473/690/462 244/370/462
f 215/372/463 336/372/463 387/373/463
f 431/375/464 353/395/464 224/376/464
f 418/377/465 224/376/465 279/378/465
f 279/380/466 170/787/466 422/381/466
f 238/383/467 285/386/467 421/384/467
f 285/386/468 199/402/468 423/387/468
f 462/388/469 204/629/469 424/389/469
f 403/391/470 395/406/470 243/392/470
f 356/394/471 289/412/471 224/376/471
f 224/376/472 289/412/472 207/396/472
f 207/397/473 171/414/473 170/398/473
f 258/400/474 208/419/474 285/386/474
f 285/386/475 208/419/475 200/401/475
f 466/403/476 262/421/476 204/404/476
f 395/406/477 399/674/477 300/407/477
f 361/408/478 210/646/478 289/409/478
f 210/411/479 211/673/479 207/396/479
f 207/397/193 211/672/193 278/413/193
f 264/415/194 263/473/194 277/416/194
f 258/400/195 212/671/195 213/418/195
f 213/418/196 271/670/196 200/401/196
f 466/403/197 471/669/197 269/420/197
f 402/422/480 215/372/480 383/374/480
f 401/360/481 244/370/481 342/370/481
f 375/425/482 216/633/482 272/426/482
f 377/428/201 272/788/201 218/429/201
f 196/431/483 276/477/483 286/432/483
f 266/434/203 209/789/203 275/435/203
f 273/437/484 274/440/484 378/438/484
f 274/440/485 191/732/485 381/441/485
f 478/442/486 461/345/486 190/443/486
f 390/445/487 221/754/487 494/446/487
f 505/448/488 357/752/488 298/449/488
f 495/450/489 298/449/489 237/451/489
f 498/453/210 237/790/210 219/454/210
f 258/456/211 257/460/211 268/457/211
f 258/456/212 238/689/212 287/459/212
f 283/461/490 247/464/490 500/462/490
f 247/464/491 234/628/491 493/465/491
f 444/466/492 185/467/492 331/467/492
f 254/469/493 280/540/493 296/470/493
f 265/472/217 295/510/217 263/473/217
f 376/474/494 212/458/494 268/457/494
f 196/431/495 206/707/495 299/476/495
f 254/478/496 179/417/496 277/416/496
f 496/480/221 273/668/221 281/481/221
f 391/483/497 396/791/497 174/484/497
f 350/486/223 358/506/223 252/487/223
f 252/487/224 232/507/224 259/489/224
f 232/490/225 233/508/225 297/491/225
f 419/493/226 197/792/226 286/494/226
f 266/496/498 235/499/498 222/497/498
f 235/499/499 236/514/499 228/500/499
f 467/501/500 229/515/500 227/502/500
f 389/272/501 167/271/501 174/504/501
f 351/273/231 246/275/231 252/487/231
f 246/275/232 290/276/232 232/507/232
f 290/277/233 214/279/233 233/508/233
f 265/472/234 266/793/234 293/509/234
f 445/511/235 205/471/235 296/470/235
f 265/280/236 291/282/236 235/499/236
f 235/499/502 291/282/502 168/513/502
f 459/286/503 166/288/503 229/515/503
f 492/516/239 219/753/239 306/517/239
f 257/460/240 319/531/240 320/519/240
f 286/432/504 276/477/504 329/520/504
f 260/354/242 310/536/242 313/522/242
f 278/413/243 309/667/243 302/523/243
f 299/476/505 328/706/505 329/520/505
f 293/509/245 327/794/245 324/524/245
f 295/510/246 324/524/246 317/525/246
f 382/475/247 268/457/247 320/519/247
f 380/430/248 218/429/248 305/527/248
f 297/491/249 233/508/249 315/529/249
f 287/459/250 325/688/250 319/531/250
f 452/512/251 296/470/251 322/532/251
f 425/495/252 286/494/252 330/534/252
f 284/366/253 311/687/253 310/536/253
f 250/296/254 239/784/254 307/537/254
f 277/416/255 318/541/255 321/539/255
f 280/540/256 321/795/256 322/532/256
f 263/473/257 317/525/257 318/541/257
f 170/398/258 171/414/258 302/523/258
f 173/278/506 304/546/506 303/543/506
f 239/321/260 240/705/260 308/544/260
f 233/508/261 214/279/261 303/543/261
f 250/296/507 312/538/507 304/546/507
f 449/339/263 189/338/263 313/522/263
f 422/548/264 170/796/264 301/549/264
f 275/435/265 326/749/265 327/551/265
f 497/482/266 281/481/266 323/552/266
f 374/554/267 146/733/267 323/555/267
f 163/557/267 161/569/267 318/558/267
f 140/560/268 312/606/268 307/561/268
f 150/563/267 148/666/267 320/564/267
f 151/566/268 149/686/268 301/567/268
f 161/569/267 160/575/267 321/570/267
f 136/571/268 303/617/268 304/572/268
f 159/574/267 322/704/267 321/570/267
f 490/576/268 155/665/268 305/577/268
f 137/579/267 165/592/267 324/580/267
f 416/582/268 147/600/268 311/583/268
f 141/562/268 307/561/268 308/584/268
f 417/586/267 152/605/267 325/587/267
f 491/589/267 144/797/267 316/590/267
f 165/592/267 163/557/267 317/559/267
f 151/566/268 302/568/268 309/593/268
f 443/595/267 158/614/267 328/596/267
f 373/598/268 153/594/268 309/593/268
f 147/600/268 145/608/268 310/601/268
f 154/602/267 330/685/267 329/603/267
f 152/605/267 150/563/267 319/565/267
f 140/560/268 138/573/268 304/572/268
f 143/607/268 313/703/268 310/601/268
f 139/609/267 137/579/267 327/581/267
f 162/611/268 314/798/268 315/612/268
f 158/614/267 156/604/267 329/603/267
f 442/615/268 142/585/268 308/584/268
f 164/613/268 315/612/268 303/617/268
f 476/618/508 333/358/508 455/468/508
f 432/620/509 405/631/509 346/393/509
f 362/622/510 337/633/510 386/623/510
f 507/625/511 477/720/511 341/626/511
f 493/465/512 234/628/512 338/628/512
f 424/389/513 204/629/513 344/629/513
f 242/393/514 346/393/514 405/631/514
f 349/632/515 216/633/515 337/633/515
f 465/359/516 187/358/516 333/358/516
f 499/634/517 190/443/517 334/443/517
f 300/635/518 345/635/518 363/636/518
f 426/637/519 201/638/519 343/638/519
f 375/425/520 210/411/520 339/411/520
f 450/344/521 193/343/521 340/343/521
f 220/641/522 341/641/522 477/642/522
f 186/644/523 332/644/523 474/645/523
f 361/408/524 363/636/524 339/646/524
f 349/632/525 362/622/525 336/647/525
f 387/648/526 336/647/526 362/622/526
f 167/649/231 351/273/231 358/506/231
f 217/651/223 174/650/223 358/506/223
f 221/652/488 357/752/488 505/448/488
f 243/654/527 300/635/527 361/408/527
f 242/655/528 243/799/528 356/394/528
f 426/637/529 242/655/529 353/395/529
f 201/638/530 348/362/530 360/350/530
f 226/656/163 360/350/163 355/351/163
f 451/658/156 225/657/156 355/351/156
f 181/659/149 256/702/149 352/660/149
f 183/661/142 181/659/142 347/317/142
f 183/661/531 359/291/531 354/292/531
f 248/662/432 354/292/432 351/273/432
f 345/663/532 387/648/532 388/624/532
f 216/633/533 375/425/533 386/623/533
f 388/624/534 386/623/534 339/411/534
f 373/598/268 384/599/268 305/577/268
f 374/554/267 385/556/267 320/564/267
f 380/430/248 384/528/248 309/667/248
f 382/475/247 385/526/247 323/552/247
f 376/474/218 382/475/218 281/481/218
f 471/669/298 478/442/298 379/444/298
f 213/418/205 378/438/205 381/441/205
f 212/671/204 376/439/204 378/438/204
f 377/428/201 380/430/201 278/413/201
f 375/425/200 377/427/200 211/673/200
f 399/674/535 406/423/535 383/374/535
f 383/374/536 387/373/536 345/407/536
f 92/233/119 153/232/119 373/240/119
f 146/675/119 374/238/119 371/239/119
f 57/192/92 371/239/92 365/186/92
f 96/135/80 88/124/80 368/136/80
f 95/132/537 96/134/537 370/156/537
f 94/133/538 95/132/538 367/153/538
f 92/233/75 369/241/75 366/144/75
f 91/676/74 366/766/74 364/142/74
f 90/126/73 364/142/73 372/139/73
f 89/123/72 372/765/72 368/136/72
f 269/420/539 379/444/539 406/423/539
f 403/391/540 405/631/540 344/404/540
f 344/404/541 405/631/541 432/620/541
f 229/515/542 166/288/542 389/272/542
f 229/678/497 396/791/497 391/483/497
f 220/626/543 390/445/543 506/447/543
f 201/680/544 401/360/544 404/424/544
f 190/443/545 402/422/545 406/423/545
f 262/421/546 269/420/546 399/674/546
f 262/421/470 395/406/470 403/391/470
f 241/371/547 244/370/547 401/360/547
f 187/358/548 241/371/548 392/361/548
f 444/466/549 187/358/549 394/329/549
f 185/467/550 397/701/550 400/314/550
f 249/302/141 294/785/141 400/681/141
f 249/302/134 398/303/134 393/270/134
f 169/287/551 393/270/551 389/272/551
f 429/630/552 432/620/552 404/682/552
f 426/637/290 431/375/290 348/362/290
f 426/637/553 430/639/553 346/655/553
f 424/389/554 429/630/554 342/370/554
f 404/682/555 432/620/555 430/621/555
f 417/586/267 428/588/267 330/685/267
f 416/582/268 427/550/268 301/567/268
f 422/548/264 427/550/264 311/687/264
f 425/495/252 428/535/252 325/688/252
f 419/493/226 425/495/226 287/459/226
f 479/390/556 424/389/556 244/370/556
f 203/368/181 421/384/181 423/387/181
f 197/692/180 419/385/180 421/384/180
f 420/382/557 422/381/557 284/693/557
f 418/377/178 420/379/178 223/364/178
f 431/375/177 418/377/177 202/695/177
f 147/696/123 416/783/123 411/100/123
f 152/697/123 417/779/123 414/249/123
f 84/246/430 414/771/430 408/205/430
f 69/91/56 61/82/56 413/92/56
f 68/90/558 69/759/558 412/106/558
f 67/88/559 68/90/559 410/103/559
f 65/86/560 411/100/560 409/102/560
f 64/84/410 409/761/410 407/98/410
f 63/85/409 407/98/409 415/95/409
f 62/699/50 415/760/50 413/92/50
f 444/466/561 458/331/561 397/701/561
f 451/658/156 457/332/156 352/660/156
f 450/344/282 456/640/282 332/325/282
f 480/619/562 455/468/562 331/467/562
f 442/615/268 453/616/268 313/703/268
f 443/595/267 454/597/267 322/704/267
f 449/339/263 453/547/263 308/544/263
f 452/512/251 454/533/251 328/706/251
f 445/511/235 452/512/235 299/476/235
f 444/466/563 455/468/563 333/358/563
f 270/324/564 447/341/564 450/344/564
f 205/708/159 445/342/159 447/341/159
f 448/337/158 449/339/158 240/705/158
f 446/334/157 448/336/157 288/709/157
f 457/332/156 446/334/156 230/318/156
f 458/331/565 451/330/565 256/315/565
f 142/710/122 442/782/122 438/263/122
f 158/234/122 443/247/122 441/248/122
f 111/187/109 441/248/109 434/221/109
f 42/52/35 35/40/35 433/53/35
f 41/50/34 42/49/34 439/67/34
f 40/48/33 41/50/33 436/64/33
f 39/260/32 438/263/32 437/61/32
f 38/711/31 437/61/31 435/59/31
f 37/42/30 435/59/30 440/56/30
f 36/712/29 440/758/29 433/53/29
f 456/713/566 480/619/566 474/645/566
f 423/714/567 479/390/567 473/690/567
f 271/716/298 381/723/298 478/442/298
f 460/326/568 474/645/568 331/467/568
f 234/717/569 468/643/569 477/642/569
f 465/359/277 476/618/277 340/718/277
f 503/719/570 338/800/570 477/720/570
f 340/718/571 476/618/571 480/619/571
f 168/284/238 459/286/238 467/501/238
f 228/722/572 236/721/572 467/501/572
f 381/723/573 191/346/573 461/345/573
f 200/724/197 271/716/197 471/669/197
f 200/724/574 466/403/574 462/405/574
f 199/726/575 462/388/575 479/390/575
f 261/727/576 267/715/576 473/690/576
f 261/727/577 470/357/577 465/359/577
f 190/443/578 461/345/578 475/347/578
f 186/644/579 460/326/579 472/328/579
f 245/729/147 472/312/147 469/313/147
f 176/731/580 251/730/580 469/313/580
f 176/731/581 464/301/581 459/286/581
f 335/346/582 503/719/582 507/625/582
f 499/634/583 506/447/583 402/422/583
f 494/653/584 505/448/584 349/632/584
f 220/626/585 499/634/585 504/627/585
f 493/465/586 503/465/586 335/732/586
f 507/625/587 504/627/587 334/443/587
f 491/589/267 502/591/267 323/555/267
f 490/576/268 501/578/268 306/734/268
f 497/482/266 502/553/266 316/736/266
f 492/516/239 501/518/239 305/527/239
f 496/480/221 497/482/221 282/737/221
f 500/462/588 493/465/588 191/732/588
f 273/437/213 496/463/213 500/462/213
f 498/453/210 492/455/210 218/739/210
f 216/633/589 495/450/589 498/452/589
f 349/632/590 505/448/590 495/450/590
f 506/447/591 494/446/591 215/372/591
f 144/741/113 491/268/113 486/269/113
f 155/743/113 490/224/113 481/226/113
f 48/742/95 486/269/95 485/191/95
f 105/158/89 97/138/89 488/160/89
f 104/157/592 105/767/592 482/178/592
f 103/154/593 104/157/593 489/175/593
f 101/745/84 481/769/84 487/168/84
f 100/143/83 487/168/83 484/166/83
f 99/140/82 484/166/82 483/163/82
f 98/137/81 483/768/81 488/160/81
