# Blender 4.2.0
# www.blender.org
mtllib closed_can_with_food.mtl
g closed_can_with_food_Mesh
v -0.000198 0.000065 -0.051553
v -0.000198 0.151746 -0.047467
v 0.028789 0.000065 -0.041803
v 0.028789 0.151746 -0.038048
v 0.046703 0.000065 -0.016278
v 0.046703 0.151746 -0.013391
v 0.046703 0.000065 0.015274
v 0.046703 0.151746 0.017087
v 0.028789 0.000065 0.040799
v 0.028789 0.151746 0.041744
v -0.000198 0.000065 0.050549
v -0.000198 0.151746 0.051162
v -0.029184 0.000065 0.040799
v -0.029184 0.151746 0.041744
v -0.047099 0.000065 0.015274
v -0.047099 0.151746 0.017087
v -0.047099 0.000065 -0.016278
v -0.047099 0.151746 -0.013391
v -0.029184 0.000065 -0.041803
v -0.029184 0.151746 -0.038048
v -0.000198 0.000065 -0.055941
v 0.031280 0.000065 -0.045353
v 0.031280 0.151746 -0.041477
v -0.000198 0.151746 -0.051705
v 0.050734 0.000065 -0.017634
v 0.050734 0.151746 -0.014701
v 0.050734 0.000065 0.016629
v 0.050734 0.151746 0.018397
v 0.031280 0.000065 0.044349
v 0.031280 0.151746 0.045173
v -0.000198 0.000065 0.054937
v -0.000198 0.151746 0.055401
v -0.031676 0.000065 0.044349
v -0.031676 0.151746 0.045173
v -0.051130 0.000065 0.016629
v -0.051130 0.151746 0.018397
v -0.051130 0.000065 -0.017634
v -0.051130 0.151746 -0.014701
v -0.031676 0.000065 -0.045353
v -0.031676 0.151746 -0.041477
v -0.000198 0.001972 0.050549
v -0.000198 0.001972 -0.051553
v 0.028789 0.001972 0.040799
v 0.028789 0.001972 -0.041803
v -0.029184 0.001972 0.040799
v -0.029184 0.001972 -0.041803
v 0.046703 0.001972 -0.016278
v 0.046703 0.001972 0.015274
v -0.047099 0.001972 0.015274
v -0.047099 0.001972 -0.016278
v -0.000198 0.044128 -0.048737
v -0.003414 0.063035 -0.040506
v 0.002770 0.086727 -0.041145
v -0.000198 0.108133 -0.045616
v 0.026469 0.105608 -0.036285
v 0.030172 0.089021 -0.033242
v 0.030172 0.065704 -0.031047
v 0.033877 0.042939 -0.036159
v 0.050154 0.108133 -0.013276
v 0.048941 0.086235 -0.011645
v 0.048941 0.065704 -0.011645
v 0.050734 0.044128 -0.014701
v 0.050154 0.108133 0.019445
v 0.048941 0.086235 0.020287
v 0.048941 0.065704 0.020287
v 0.050734 0.044128 0.018397
v 0.026469 0.105608 0.045917
v 0.030172 0.086235 0.047289
v 0.030172 0.065704 0.047289
v 0.033877 0.045951 0.045173
v -0.000198 0.108133 0.056028
v 0.002770 0.086727 0.058266
v -0.003414 0.063035 0.058266
v -0.000198 0.044128 0.055401
v -0.025010 0.109352 0.045917
v -0.030567 0.086235 0.048399
v -0.030567 0.065704 0.048399
v -0.026605 0.042305 0.045173
v -0.050550 0.108133 0.019445
v -0.049337 0.086235 0.020287
v -0.049337 0.065704 0.020287
v -0.051130 0.044128 0.018397
v -0.050550 0.108133 -0.013276
v -0.049337 0.086235 -0.011645
v -0.049337 0.065704 -0.011645
v -0.051130 0.044128 -0.014701
v -0.025010 0.109352 -0.036285
v -0.030567 0.089021 -0.035153
v -0.030567 0.065704 -0.031047
v -0.026605 0.039292 -0.036159
v 0.000135 0.104450 -0.045115
v 0.026884 0.102597 -0.035944
v 0.050018 0.104395 -0.013093
v 0.050018 0.104395 0.019539
v 0.026884 0.102285 0.046070
v 0.000135 0.104450 0.056279
v -0.025632 0.105413 0.046195
v -0.050414 0.104395 0.019539
v -0.050414 0.104395 -0.013093
v -0.025632 0.105725 -0.036158
v 0.002152 0.083100 -0.041081
v 0.030172 0.085405 -0.033023
v 0.048941 0.082930 -0.011645
v 0.048941 0.082930 0.020287
v 0.030172 0.082930 0.047289
v 0.002152 0.083100 0.058266
v -0.030567 0.082930 0.048399
v -0.049337 0.082930 0.020287
v -0.049337 0.082930 -0.011645
v -0.030567 0.085405 -0.034743
v -0.003075 0.059491 -0.041372
v 0.030561 0.061707 -0.031585
v 0.049130 0.061832 -0.011966
v 0.049130 0.061832 0.020089
v 0.030561 0.062024 0.047066
v -0.003075 0.059491 0.057965
v -0.030151 0.061640 0.048059
v -0.049525 0.061832 0.020089
v -0.049525 0.061832 -0.011966
v -0.030151 0.061324 -0.031585
v 0.033621 0.039156 -0.037065
v 0.050734 0.040333 -0.014990
v 0.050734 0.040333 0.018223
v 0.033621 0.042139 0.045092
v -0.000198 0.040333 0.055355
v -0.027104 0.038528 0.045092
v -0.051130 0.040333 0.018223
v -0.051130 0.040333 -0.014990
v -0.027104 0.035545 -0.037065
v -0.000198 0.040333 -0.049446
v 0.031589 0.003450 -0.044260
v 0.050734 0.003670 -0.017285
v 0.050734 0.003670 0.016839
v 0.031589 0.004008 0.044447
v -0.000198 0.003670 0.054992
v -0.031073 0.003332 0.044447
v -0.051130 0.003670 0.016839
v -0.051130 0.003670 -0.017285
v -0.031073 0.002774 -0.044260
v -0.000198 0.003670 -0.055085
v -0.000198 0.146773 -0.050707
v 0.030491 0.146185 -0.040626
v 0.050639 0.146773 -0.014467
v 0.050639 0.146773 0.018569
v 0.030491 0.146185 0.045295
v -0.000198 0.146773 0.055504
v -0.030583 0.147057 0.045295
v -0.051035 0.146773 0.018569
v -0.051035 0.146773 -0.014467
v -0.030583 0.147057 -0.040626
v -0.000199 0.000473 -0.057288
v 0.032053 0.000325 -0.046500
v 0.032096 0.151515 -0.042601
v -0.000199 0.151451 -0.053082
v -0.000196 0.146478 -0.052084
v 0.032477 0.003673 -0.045329
v 0.052067 0.000130 -0.018082
v 0.052063 0.151635 -0.015152
v 0.052083 0.003728 -0.017686
v 0.052081 0.000025 0.017037
v 0.052074 0.151695 0.018826
v 0.052071 0.003627 0.017277
v 0.032111 -0.000000 0.045483
v 0.032132 0.151704 0.046293
v 0.032441 0.003942 0.045565
v -0.000201 0.000047 0.056344
v -0.000199 0.151734 0.056809
v -0.000198 0.003652 0.056399
v -0.032550 0.000107 0.045451
v -0.032541 0.151671 0.046281
v -0.031875 0.003368 0.045603
v -0.052475 0.000098 0.017045
v -0.052468 0.151674 0.018829
v -0.052466 0.003705 0.017282
v -0.052453 0.000228 -0.018085
v -0.052456 0.151608 -0.015154
v -0.052472 0.003814 -0.017686
v -0.032475 0.000447 -0.046447
v -0.032498 0.151471 -0.042586
v -0.031897 0.003150 -0.045338
v -0.000196 0.004078 -0.056432
v 0.031296 0.145952 -0.041757
v 0.051975 0.146665 -0.014900
v 0.051971 0.146721 0.019021
v 0.031287 0.146148 0.046456
v -0.000195 0.146761 0.056911
v -0.031361 0.146994 0.046466
v -0.052366 0.146699 0.019020
v -0.052368 0.146640 -0.014898
v -0.031371 0.146779 -0.041759
v -0.000087 0.040940 -0.049130
v -0.000149 0.043047 -0.048402
v -0.003100 0.059998 -0.040883
v -0.003383 0.061988 -0.040003
v 0.002150 0.083827 -0.040561
v 0.002702 0.086228 -0.040629
v 0.000104 0.105088 -0.044666
v -0.000128 0.107462 -0.045177
v -0.026222 0.037760 -0.035819
v -0.030213 0.064950 -0.030584
v -0.030295 0.088655 -0.034703
v -0.024663 0.108633 -0.035856
v -0.050547 0.043211 -0.014559
v -0.048724 0.064987 -0.011456
v -0.048716 0.085670 -0.011472
v -0.049980 0.107393 -0.013043
v -0.050537 0.043296 0.018148
v -0.048696 0.065055 0.020144
v -0.048689 0.085650 0.020167
v -0.049952 0.107360 0.019212
v -0.026220 0.041290 0.044758
v -0.030112 0.065141 0.048135
v -0.030168 0.085636 0.048082
v -0.024600 0.108522 0.045523
v -0.000182 0.043324 0.054948
v -0.003395 0.062262 0.057871
v 0.002696 0.086179 0.057867
v -0.000143 0.107293 0.055594
v 0.033487 0.045358 0.044821
v 0.029772 0.065051 0.046945
v 0.029727 0.085667 0.046980
v 0.026057 0.104783 0.045532
v 0.050101 0.043341 0.018234
v 0.048293 0.065000 0.020139
v 0.048286 0.085650 0.020155
v 0.049531 0.107376 0.019250
v 0.050103 0.043272 -0.014643
v 0.048319 0.064946 -0.011466
v 0.048319 0.085661 -0.011447
v 0.049553 0.107416 -0.013091
v 0.033477 0.041861 -0.035854
v 0.029877 0.064863 -0.030562
v 0.029842 0.088653 -0.032786
v 0.026137 0.104918 -0.035857
v 0.026490 0.103090 -0.035551
v 0.049421 0.104982 -0.012894
v 0.049412 0.104937 0.019296
v 0.026447 0.102634 0.045709
v 0.000077 0.104916 0.055849
v -0.025204 0.105951 0.045825
v -0.049817 0.104925 0.019299
v -0.049826 0.104961 -0.012895
v -0.025244 0.106385 -0.035757
v 0.029824 0.086296 -0.032574
v 0.048303 0.083600 -0.011488
v 0.048286 0.083590 0.020155
v 0.029724 0.083607 0.046982
v 0.002168 0.083773 0.057863
v -0.030165 0.083576 0.048084
v -0.048689 0.083590 0.020167
v -0.048703 0.083609 -0.011509
v -0.030256 0.086299 -0.034308
v 0.030288 0.062438 -0.031100
v 0.048527 0.062656 -0.011752
v 0.048472 0.062713 0.019974
v 0.030127 0.062972 0.046748
v -0.003121 0.060272 0.057562
v -0.029730 0.062649 0.047758
v -0.048877 0.062763 0.019976
v -0.048933 0.062701 -0.011738
v -0.029867 0.062093 -0.031086
v 0.033313 0.039865 -0.036712
v 0.050126 0.041161 -0.014872
v 0.050088 0.041234 0.018102
v 0.033248 0.043056 0.044723
v -0.000133 0.041218 0.054904
v -0.026670 0.039381 0.044714
v -0.050534 0.041192 0.017979
v -0.050614 0.041080 -0.014719
v -0.026730 0.036178 -0.036738
v 0.018847 0.149839 -0.003566
v 0.010764 0.149839 0.011701
v -0.000198 0.149839 0.016617
v -0.011160 0.149839 0.011701
v -0.019242 0.149839 -0.003566
v 0.046703 0.149839 0.017087
v 0.028789 0.149839 0.041744
v -0.000198 0.149839 0.051162
v -0.029184 0.149839 0.041744
v -0.047099 0.149839 0.017087
v 0.028789 0.149839 -0.038048
v -0.000198 0.149839 -0.047467
v 0.046703 0.149839 -0.013391
v -0.029184 0.149839 -0.038048
v -0.047099 0.149839 -0.013391
v -0.011200 0.153707 -0.006051
v -0.011013 0.153707 -0.000993
v 0.010618 0.153707 -0.000993
v 0.010805 0.153707 -0.006051
v -0.003691 0.153707 -0.022296
v -0.006603 0.153707 0.005465
v 0.023047 0.149839 -0.005058
v 0.016538 0.149839 0.019692
v -0.000198 0.149839 0.025173
v -0.016933 0.149839 0.019692
v -0.023442 0.149839 -0.005058
v -0.000198 0.153707 -0.019623
v -0.000198 0.153707 0.007669
v 0.006207 0.153707 0.005465
v 0.003296 0.153707 -0.022296
v 0.007646 0.152134 -0.032345
v 0.010309 0.152134 0.009304
v -0.000198 0.152134 0.014220
v -0.000198 0.152134 -0.037261
v -0.010704 0.152134 0.009304
v -0.008041 0.152134 -0.032345
v 0.009659 0.152134 -0.025419
v 0.016802 0.152134 -0.003566
v -0.017197 0.152134 -0.003566
v -0.010054 0.152134 -0.025419
v -0.000198 0.153707 -0.029784
v -0.003784 0.153707 -0.027554
v -0.008467 0.153707 -0.025419
v -0.014459 0.153707 -0.003566
v -0.009012 0.153707 0.006842
v -0.000198 0.153707 0.011758
v 0.008616 0.153707 0.006842
v 0.014064 0.153707 -0.003566
v 0.008071 0.153707 -0.025419
v 0.003389 0.153707 -0.027554
v -0.005704 0.151654 0.004147
v -0.005372 0.151654 -0.012570
v -0.000198 0.151654 0.006042
v -0.000198 0.151654 -0.014155
v 0.004976 0.151654 -0.012570
v 0.005309 0.151654 0.004147
v -0.009656 0.151654 -0.005753
v -0.009495 0.151654 -0.001405
v 0.009100 0.151654 -0.001405
v 0.009261 0.151654 -0.005753
v -0.000198 0.153707 -0.034448
v -0.006778 0.153707 -0.029533
v 0.006382 0.153707 -0.029533
v -0.000198 0.153707 -0.015825
v -0.006216 0.153707 -0.013980
v 0.005821 0.153707 -0.013980
v -0.000198 0.152125 -0.020594
v -0.000198 0.152125 -0.028868
v -0.003118 0.152125 -0.027052
v 0.002723 0.152125 -0.027052
v -0.003043 0.152125 -0.022771
v 0.002647 0.152125 -0.022770
v -0.008636 0.149358 -0.034369
v -0.000198 0.149358 -0.039285
v 0.008240 0.149358 -0.034369
v 0.023651 0.149719 -0.036281
v 0.013377 0.149478 -0.035859
v -0.000198 0.149478 -0.041900
v -0.000198 0.149719 -0.044573
v -0.024047 0.149719 -0.036281
v -0.013773 0.149478 -0.035859
v 0.011901 0.149839 -0.023856
v 0.010957 0.149782 -0.028006
v 0.010874 0.150462 -0.025419
v -0.011353 0.149782 -0.028006
v -0.012297 0.149839 -0.023856
v -0.011269 0.150462 -0.025419
v 0.030695 0.149839 -0.009521
v 0.035547 0.149839 -0.009791
v 0.037251 0.149839 0.010833
v 0.032136 0.149839 0.009776
v 0.025703 0.149839 0.034073
v 0.022818 0.149839 0.028433
v -0.000198 0.149839 0.043467
v -0.000198 0.149839 0.037188
v -0.026098 0.149839 0.034073
v -0.023213 0.149839 0.028433
v -0.037647 0.149839 0.010833
v -0.032532 0.149839 0.009776
v -0.035942 0.149839 -0.009791
v -0.031091 0.149839 -0.009521
v 0.020301 0.149839 -0.020895
v 0.019547 0.149808 -0.025608
v -0.020697 0.149839 -0.020895
v -0.019943 0.149808 -0.025608
v 0.012947 0.149614 -0.024375
v 0.012143 0.149556 -0.026484
v -0.012538 0.149556 -0.026484
v -0.013342 0.149614 -0.024375
v -0.020695 0.149614 -0.021804
v -0.019941 0.149582 -0.023933
v -0.033491 0.149614 -0.009790
v -0.032431 0.149614 -0.009520
v -0.035080 0.149614 0.010833
v -0.033936 0.149614 0.009776
v -0.025034 0.149614 0.031666
v -0.024213 0.149614 0.030002
v -0.000198 0.149614 0.041059
v -0.000198 0.149614 0.039097
v 0.024638 0.149614 0.031666
v 0.023818 0.149614 0.030002
v 0.034684 0.149614 0.010833
v 0.033541 0.149614 0.009776
v 0.033096 0.149614 -0.009790
v 0.032036 0.149614 -0.009520
v 0.020299 0.149614 -0.021804
v 0.019546 0.149582 -0.023933
vn 0.0302 0.9995 -0.0101
vn -0.0115 -0.9995 0.0285
vn -0.0693 -0.9857 0.1536
vn 0.0268 0.9996 0.0031
vn -0.0630 0.9786 -0.1958
vn -0.0574 -0.9959 0.0706
vn 0.0931 0.9946 0.0454
vn -0.0960 -0.9528 -0.2881
vn -0.8090 -0.0000 0.5878
vn 0.0679 0.9756 -0.2090
vn 0.0106 0.9995 0.0299
vn 0.3188 -0.0000 -0.9478
vn 0.8090 -0.0000 0.5878
vn -0.8185 -0.0000 0.5745
vn -0.3090 -0.0000 -0.9511
vn 0.8185 -0.0000 0.5745
vn -0.3090 -0.0000 0.9511
vn -0.3188 -0.0000 -0.9478
vn -0.0000 -1.0000 -0.0000
vn -0.0000 1.0000 -0.0000
vn 0.3188 -0.0000 0.9478
vn 0.3090 -0.0000 -0.9511
vn -1.0000 -0.0000 -0.0000
vn 0.3090 -0.0000 0.9511
vn 0.8185 -0.0000 -0.5745
vn 0.8090 -0.0000 -0.5878
vn -0.8185 -0.0000 -0.5745
vn 1.0000 -0.0000 -0.0000
vn -0.8090 -0.0000 -0.5878
vn -0.3188 -0.0000 0.9478
vn -0.3151 -0.5998 -0.7354
vn 0.7195 0.4939 0.4882
vn 0.6091 -0.6274 0.4852
vn -0.4392 0.4776 -0.7609
vn -0.3682 -0.2883 -0.8839
vn 0.8014 0.5981 0.0003
vn 0.5669 -0.7234 0.3941
vn -0.4676 0.6072 -0.6424
vn 0.5907 0.5783 -0.5627
vn 0.6176 -0.6589 0.4293
vn -0.8230 0.5681 -0.0000
vn 0.1868 0.5907 -0.7850
vn 0.6475 -0.6141 0.4512
vn -0.5922 0.5716 0.5679
vn 0.2646 -0.5127 0.8168
vn -0.3349 0.5187 0.7867
vn 0.2823 -0.6197 0.7323
vn 0.2417 0.4267 0.8715
vn 0.2943 -0.5802 0.7594
vn 0.7537 0.4849 0.4436
vn 0.2571 -0.6125 0.7474
vn 0.8124 0.5831 -0.0003
vn -0.2501 0.5491 -0.7975
vn -0.3597 -0.4470 0.8190
vn 0.6458 0.5496 -0.5299
vn -0.5397 0.6459 -0.5400
vn -0.2293 -0.5533 0.8008
vn 0.3108 0.5283 -0.7902
vn -0.6938 0.7202 0.0010
vn -0.3494 -0.4336 0.8306
vn -0.4957 0.7534 0.4321
vn -0.2895 -0.4735 0.8319
vn -0.2478 0.6752 0.6948
vn -0.5817 -0.5647 0.5854
vn 0.3177 0.6642 0.6767
vn -0.6357 -0.6468 0.4214
vn 0.3590 0.8496 0.3863
vn -0.1157 0.5784 -0.8075
vn -0.6083 -0.6820 0.4060
vn 0.2396 -0.5139 -0.8237
vn 0.2844 -0.1204 -0.9511
vn 0.7450 -0.0968 -0.6600
vn 0.9982 -0.0592 -0.0000
vn 0.8033 0.2070 0.5584
vn 0.3702 0.1455 0.9175
vn -0.2816 0.1808 0.9424
vn -0.8314 -0.0264 0.5551
vn -0.9982 -0.0592 -0.0000
vn -0.7723 -0.0959 -0.6280
vn -0.1774 -0.0068 -0.9841
vn 0.2773 -0.1043 -0.9551
vn 0.7187 -0.0000 -0.6953
vn 0.8211 -0.0000 0.5708
vn 0.3158 -0.0876 0.9448
vn -0.3415 -0.0000 0.9399
vn -0.8317 -0.0000 0.5553
vn -0.7187 -0.0000 -0.6953
vn -0.3391 -0.1734 -0.9246
vn 0.3411 0.2790 -0.8977
vn 0.7476 0.2790 -0.6027
vn 0.9959 0.0903 -0.0000
vn 0.8468 0.0260 0.5313
vn 0.2897 -0.0528 0.9557
vn -0.3396 -0.2164 0.9153
vn -0.7374 0.0023 0.6755
vn -0.9959 0.0903 -0.0000
vn -0.6517 0.0522 -0.7566
vn -0.4545 0.3144 -0.8334
vn 0.3199 0.1440 -0.9364
vn 0.8132 0.0701 -0.5777
vn 0.8214 -0.0215 0.5699
vn 0.3149 -0.0094 0.9491
vn -0.3233 0.0191 0.9461
vn -0.8090 -0.0222 0.5874
vn -0.7787 0.2231 -0.5864
vn -0.3274 0.2403 -0.9138
vn -0.0399 -0.9992 0.0016
vn 0.0705 0.9573 0.2803
vn 0.0609 -0.9816 -0.1811
vn -0.0059 -0.9999 -0.0133
vn -0.0077 -0.9996 -0.0267
vn -0.0832 0.9947 -0.0604
vn -0.0223 -0.9997 -0.0086
vn -0.2278 -0.9591 -0.1678
vn 0.0311 0.9993 0.0223
vn 0.0071 -0.9988 -0.0490
vn 0.3032 -0.1873 -0.9343
vn 0.7921 -0.0449 -0.6087
vn 0.9998 -0.0206 0.0001
vn 0.7952 -0.1034 0.5974
vn 0.3155 0.0198 0.9487
vn -0.3176 0.0193 0.9480
vn -0.7812 -0.1733 0.5997
vn -0.9998 -0.0205 0.0001
vn -0.7869 -0.0455 -0.6154
vn -0.3104 -0.1873 -0.9320
vn -0.2899 0.4156 -0.8621
vn -0.7577 0.3798 -0.5308
vn -1.0000 -0.0050 -0.0006
vn -0.8182 -0.0357 0.5739
vn -0.3190 0.0219 0.9475
vn 0.3186 -0.0147 0.9478
vn 0.8179 -0.0360 0.5742
vn 1.0000 -0.0043 -0.0004
vn 0.8140 0.0972 -0.5726
vn 0.3104 0.2194 -0.9249
vn -0.0028 1.0000 0.0087
vn 0.0391 -0.9989 -0.0274
vn -0.0135 0.9998 0.0134
vn 0.1367 0.9852 -0.1037
vn 0.0086 0.9986 0.0528
vn -0.0197 -0.9997 0.0141
vn 0.0298 0.9995 0.0084
vn -0.0449 0.9985 0.0326
vn 0.0598 -0.9761 0.2091
vn -0.0301 -0.9995 -0.0000
vn -0.0426 0.9991 -0.0000
vn 0.1698 -0.9779 0.1222
vn 0.0826 0.9966 -0.0018
vn -0.1388 0.9862 0.0905
vn -0.1205 -0.9927 -0.0037
vn 0.0994 -0.9951 -0.0000
vn -0.0914 0.9533 0.2879
vn -0.0541 0.9985 -0.0000
vn 0.0472 -0.9986 -0.0255
vn -0.0395 -0.9988 -0.0286
vn -0.4306 0.5531 -0.7132
vn -0.2976 0.3506 -0.8880
vn -0.1990 -0.1650 -0.9660
vn -0.3293 0.0434 -0.9432
vn -0.5025 0.5496 -0.6674
vn -0.7112 0.0371 -0.7020
vn -0.7777 0.0062 -0.6286
vn -0.6757 -0.0873 -0.7320
vn -0.9995 0.0314 0.0023
vn -0.9959 0.0908 0.0016
vn -1.0000 -0.0065 0.0004
vn -0.9985 -0.0550 0.0002
vn -0.7468 -0.0543 0.6629
vn -0.8231 0.0231 0.5674
vn -0.8332 -0.0007 0.5529
vn -0.7326 -0.0161 0.6804
vn -0.3616 0.0638 0.9302
vn -0.3543 -0.1908 0.9155
vn -0.2895 0.0008 0.9572
vn -0.3655 0.0658 0.9285
vn 0.2924 -0.0134 0.9562
vn 0.3118 -0.0367 0.9494
vn 0.3656 -0.0819 0.9272
vn 0.3659 0.1422 0.9197
vn 0.8433 -0.0390 0.5361
vn 0.8248 0.0238 0.5649
vn 0.8223 -0.0005 0.5690
vn 0.7332 0.1870 0.6538
vn 0.9999 0.0105 0.0011
vn 0.9959 0.0902 0.0016
vn 1.0000 -0.0077 0.0005
vn 0.9988 -0.0485 0.0002
vn 0.7712 0.1967 -0.6054
vn 0.7000 0.2656 -0.6629
vn 0.7525 0.0073 -0.6585
vn 0.7036 -0.0953 -0.7042
vn 0.3395 0.3160 -0.8859
vn 0.2266 0.4208 -0.8784
vn 0.2837 -0.0925 -0.9544
vn 0.3185 -0.0964 -0.9430
vn 0.8053 -0.5929 0.0013
vn 0.2415 0.4564 0.8564
vn -0.1571 -0.8112 -0.5633
vn 0.7732 -0.6341 -0.0000
vn -0.2891 0.3826 0.8775
vn -0.3089 -0.5926 -0.7439
vn 0.6776 -0.7354 -0.0000
vn -0.6906 0.5392 0.4820
vn -0.6262 -0.4919 -0.6049
vn 0.1983 0.5014 -0.8422
vn 0.7661 -0.6428 -0.0000
vn -0.8266 0.5627 -0.0000
vn -0.5619 -0.6235 -0.5436
vn 0.5944 0.6703 -0.4443
vn 0.7266 -0.4231 -0.5414
vn -0.5685 0.5849 -0.5786
vn -0.5067 -0.7074 -0.4927
vn 0.7095 0.7047 0.0006
vn 0.6035 -0.5466 -0.5805
vn -0.2105 0.6737 -0.7084
vn -0.5222 -0.5948 -0.6111
vn 0.6414 0.6261 0.4434
vn 0.3562 -0.8360 -0.4174
vn -0.8147 -0.5798 -0.0000
vn 0.3245 0.4812 0.8144
vn 0.5839 -0.6119 -0.5335
vn -0.7119 -0.7023 0.0021
vn -0.2450 0.5435 0.8029
vn 0.3288 -0.2659 -0.9062
vn -0.6706 -0.7419 0.0001
vn -0.6126 0.6764 0.4090
vn 0.2686 0.7221 -0.6375
vn 0.2817 -0.4090 -0.8680
vn -0.7906 -0.6124 0.0001
vn -0.7305 0.6829 -0.0000
vn 0.4869 0.6814 -0.5465
vn 0.2529 -0.7120 -0.6550
vn -0.6636 -0.4847 0.5699
vn -0.7035 0.4940 -0.5109
vn 0.6667 0.7454 -0.0000
vn -0.2604 0.5997 -0.7567
vn -0.6891 0.5810 0.4331
vn 0.6891 0.5810 0.4331
vn 0.2604 0.5997 -0.7567
vn 0.2962 0.6898 0.6606
vn 0.7362 0.5532 0.3898
vn 0.0072 0.9993 -0.0365
vn 0.0045 1.0000 -0.0066
vn -0.0399 0.9952 0.0897
vn 0.7724 0.5828 -0.2525
vn -0.7022 0.6938 -0.1598
vn -0.6986 0.6226 0.3525
vn -0.0145 0.9990 0.0416
vn 0.0399 0.9952 0.0897
vn -0.2952 0.7175 0.6309
vn 0.0268 0.9986 0.0460
vn -0.4820 0.8391 0.2523
vn -0.2926 0.8346 -0.4668
vn 0.4916 0.8558 -0.1607
vn -0.2277 0.8840 0.4083
vn 0.4596 0.8573 0.2319
vn 0.2773 0.8862 -0.3711
vn -0.6911 0.6975 -0.1895
vn 0.2443 0.8172 0.5221
vn 0.6762 0.6825 -0.2776
vn -0.5940 0.7857 -0.1727
vn 0.5463 0.4380 -0.7140
vn 0.9234 0.3834 -0.0164
vn 0.8010 0.5980 -0.0296
vn -0.2313 0.6138 0.7548
vn -0.6691 0.5862 -0.4569
vn 0.6690 0.5862 -0.4569
vn 0.2313 0.6138 0.7548
vn -0.8010 0.5980 -0.0296
vn 0.4739 0.4411 0.7622
vn -0.9234 0.3834 -0.0164
vn -0.5463 0.4380 -0.7140
vn -0.4738 0.4411 0.7622
vn -0.4286 0.5904 -0.6839
vn 0.4259 0.5331 -0.7311
vn 0.0380 0.9980 -0.0503
vn 0.0145 0.9990 0.0416
vn -0.7724 0.5828 -0.2525
vn -0.0268 0.9986 0.0460
vn -0.0045 1.0000 -0.0066
vn 0.6369 0.7020 -0.3187
vn 0.6827 0.7118 -0.1652
vn -0.6827 0.7118 -0.1652
vn 0.1325 0.9823 0.1320
vn 0.0437 0.9924 0.1148
vn 0.0864 0.9656 -0.2452
vn 0.0874 0.9953 -0.0421
vn 0.1658 0.9861 -0.0124
vn -0.1585 0.9873 -0.0124
vn -0.0912 0.9922 0.0852
vn -0.0338 0.9951 -0.0932
vn -0.1667 0.9818 -0.0904
vn 0.2448 0.9410 -0.2338
vn -0.0209 0.9995 -0.0223
vn 0.0068 0.9995 -0.0299
vn -0.0068 0.9995 -0.0299
vn 0.0209 0.9995 -0.0223
vn -0.0991 0.9939 -0.0492
vn -0.1272 0.9900 0.0612
vn -0.0494 0.9899 0.1331
vn 0.2809 0.9566 -0.0772
vn 0.0302 0.9963 -0.0799
vn 0.0556 0.9805 0.1885
vn -0.1641 0.9750 -0.1500
vn 0.1580 0.9843 0.0789
vn -0.0839 0.9671 -0.2400
vn 0.0915 0.9958 0.0071
vn -0.0875 0.9961 0.0072
vn -0.0444 0.9921 0.1171
vn 0.9999 -0.0125 -0.0000
vn 0.7467 -0.0639 0.6620
vn -0.9999 -0.0125 -0.0000
vn 0.6974 -0.1442 -0.7021
vn 0.3075 -0.1243 -0.9434
vn 0.3528 -0.0206 0.9355
vn -0.6682 -0.0313 -0.7433
vn -0.7143 -0.0941 0.6935
vn -0.3768 0.0126 0.9262
vn -0.3546 -0.1221 -0.9270
vn 0.0241 0.9997 -0.0052
vn 0.0045 -0.9999 -0.0133
vn -0.0846 -0.9744 0.2084
vn 0.1067 0.9943 -0.0000
vn -0.0679 0.9756 -0.2089
vn -0.1220 -0.9857 0.1161
vn 0.2430 0.9585 0.1488
vn -0.0902 -0.9591 -0.2683
vn 0.0517 0.9849 -0.1653
vn 0.0028 1.0000 0.0087
vn -0.3418 -0.4154 -0.8430
vn 0.6799 0.5678 0.4640
vn 0.6431 -0.5632 0.5188
vn -0.4202 0.5993 -0.6813
vn -0.3677 -0.2901 -0.8835
vn 0.8070 0.5905 -0.0000
vn 0.5948 -0.6903 0.4120
vn -0.4883 0.5753 -0.6562
vn 0.5848 0.5889 -0.5579
vn 0.6407 -0.6265 0.4439
vn -0.8219 0.5697 0.0001
vn 0.1600 0.6898 -0.7061
vn 0.6145 -0.6602 0.4318
vn -0.5996 0.5587 0.5731
vn 0.2854 -0.4252 0.8589
vn -0.3476 0.4462 0.8247
vn 0.2922 -0.5892 0.7533
vn 0.2389 0.4438 0.8637
vn 0.3152 -0.4263 0.8479
vn 0.7117 0.5666 0.4152
vn 0.2805 -0.4663 0.8390
vn 0.8059 0.5920 -0.0000
vn -0.2370 0.6027 -0.7620
vn -0.3413 -0.5350 0.7729
vn 0.6478 0.5462 -0.5311
vn -0.5057 0.7009 -0.5030
vn -0.2257 -0.5691 0.7907
vn 0.3286 0.3889 -0.8607
vn -0.6643 0.7475 -0.0000
vn -0.3241 -0.6034 0.7286
vn -0.5188 0.7248 0.4534
vn -0.2935 -0.4552 0.8406
vn -0.2602 0.6370 0.7257
vn -0.5594 -0.6042 0.5675
vn 0.2557 0.8312 0.4937
vn -0.5780 -0.7190 0.3859
vn 0.4744 0.7426 0.4728
vn -0.1324 0.4706 -0.8723
vn -0.6053 -0.6857 0.4042
vn 0.2192 -0.5884 -0.7783
vn 0.3098 -0.1637 -0.9366
vn 0.7013 0.0281 -0.7123
vn 0.7543 -0.0177 0.6563
vn 0.3632 0.1570 0.9184
vn -0.3623 0.0505 0.9307
vn -0.7124 0.2583 0.6525
vn -0.6774 0.1569 -0.7187
vn -0.3288 -0.2527 -0.9099
vn 0.2824 -0.0957 -0.9545
vn 0.7460 -0.0665 -0.6626
vn 0.3648 -0.0000 0.9311
vn -0.2882 0.0799 0.9542
vn -0.7643 -0.1189 -0.6338
vn -0.1885 0.0242 -0.9818
vn 0.2210 0.4549 -0.8627
vn 0.7152 0.1695 -0.6780
vn 0.8197 0.1027 0.5635
vn 0.3135 -0.0989 0.9444
vn -0.3506 -0.2008 0.9147
vn -0.8009 -0.2294 0.5532
vn -0.6989 0.1706 -0.6946
vn -0.3281 0.1411 -0.9340
vn 0.3441 0.1666 -0.9240
vn 0.7888 0.0384 -0.6135
vn 0.8406 -0.0539 0.5390
vn 0.2918 -0.0317 0.9560
vn -0.3558 -0.0093 0.9345
vn -0.7412 0.0713 0.6675
vn -0.6708 0.0463 -0.7402
vn -0.4341 0.1369 -0.8904
vn -0.0804 -0.9968 -0.0000
vn 0.0731 0.9547 0.2886
vn 0.0921 -0.9531 -0.2883
vn -0.0155 -0.9988 -0.0462
vn -0.0254 -0.9988 -0.0411
vn -0.1619 0.9792 -0.1226
vn -0.0242 -0.9996 -0.0153
vn -0.0983 -0.9928 -0.0690
vn 0.0255 0.9995 0.0185
vn -0.0046 -1.0000 -0.0086
vn 0.3037 -0.1854 -0.9346
vn 0.7925 -0.2013 -0.5756
vn 0.9998 -0.0179 -0.0003
vn 0.8092 0.0063 0.5875
vn 0.3092 -0.0192 0.9508
vn -0.3092 -0.0404 0.9501
vn -0.8093 0.0060 0.5874
vn -0.9998 -0.0176 -0.0003
vn -0.7756 -0.2856 -0.5629
vn -0.3005 -0.2351 -0.9243
vn -0.3280 0.2185 -0.9191
vn -0.8000 0.0624 -0.5967
vn -1.0000 0.0025 0.0002
vn -0.8003 0.1384 0.5835
vn -0.3225 -0.0142 0.9465
vn 0.3151 -0.0460 0.9479
vn 0.8185 -0.0803 0.5689
vn 1.0000 0.0027 0.0003
vn 0.8142 0.0601 -0.5775
vn 0.3121 0.2782 -0.9084
vn -0.0191 0.9984 0.0527
vn 0.1562 -0.9808 -0.1167
vn -0.0003 0.9995 -0.0312
vn 0.0667 0.9966 -0.0485
vn -0.0062 0.9999 0.0134
vn -0.0252 -0.9995 0.0177
vn 0.0484 0.9986 0.0225
vn -0.0438 0.9985 0.0319
vn 0.0574 -0.9780 0.2004
vn 0.0473 -0.9989 -0.0030
vn 0.0315 0.9995 0.0029
vn 0.0807 -0.9951 0.0579
vn 0.0382 0.9993 -0.0000
vn -0.0357 0.9991 0.0233
vn -0.0240 -0.9997 -0.0000
vn 0.0565 -0.9984 0.0017
vn -0.0450 0.9847 0.1682
vn -0.1032 0.9947 -0.0020
vn 0.0452 -0.9987 -0.0238
vn -0.0248 -0.9995 -0.0174
vn -0.4626 0.2770 -0.8421
vn -0.3161 0.1267 -0.9402
vn -0.1759 0.0123 -0.9843
vn -0.3552 -0.2297 -0.9061
vn -0.6462 0.0775 -0.7592
vn -0.7103 0.1498 -0.6877
vn -0.7707 -0.1176 -0.6263
vn -0.6666 0.1399 -0.7322
vn -1.0000 -0.0015 0.0003
vn -0.9969 0.0785 0.0007
vn -1.0000 -0.0000 0.0008
vn -0.9980 -0.0633 0.0008
vn -0.7234 0.1551 0.6728
vn -0.8148 -0.2067 0.5416
vn -0.8333 -0.0000 0.5529
vn -0.7038 0.2434 0.6674
vn -0.3624 -0.0282 0.9316
vn -0.3542 -0.1926 0.9151
vn -0.2858 0.0611 0.9564
vn -0.3653 0.1925 0.9108
vn 0.2912 -0.0707 0.9540
vn 0.3190 -0.1024 0.9422
vn 0.3736 0.0007 0.9276
vn 0.3664 0.1325 0.9210
vn 0.8391 -0.1099 0.5327
vn 0.8197 0.0864 0.5662
vn 0.8223 -0.0000 0.5690
vn 0.7468 -0.0238 0.6646
vn 1.0000 -0.0063 0.0001
vn 0.9969 0.0781 0.0007
vn 1.0000 -0.0000 0.0010
vn 0.9985 -0.0543 0.0006
vn 0.7823 0.0755 -0.6183
vn 0.7108 0.1504 -0.6871
vn 0.7499 -0.0648 -0.6584
vn 0.6962 0.0141 -0.7177
vn 0.3385 0.3478 -0.8743
vn 0.2444 0.2494 -0.9371
vn 0.2838 -0.0880 -0.9548
vn 0.3149 -0.1703 -0.9337
vn 0.7792 -0.6267 -0.0000
vn 0.2530 0.4103 0.8761
vn -0.1762 -0.6960 -0.6961
vn 0.7356 -0.6775 0.0018
vn -0.2806 0.4272 0.8595
vn -0.3209 -0.5420 -0.7767
vn 0.6664 -0.7456 0.0004
vn -0.7318 0.4563 0.5062
vn -0.6635 -0.3163 -0.6780
vn 0.1826 0.5732 -0.7988
vn 0.7715 -0.6362 -0.0002
vn -0.8206 0.5714 0.0003
vn -0.5713 -0.6076 -0.5517
vn 0.6722 0.5251 -0.5219
vn 0.6789 -0.5341 -0.5038
vn -0.5852 0.5538 -0.5923
vn -0.4023 -0.8147 -0.4177
vn 0.7240 0.6898 -0.0000
vn 0.5741 -0.6016 -0.5554
vn -0.2368 0.5887 -0.7729
vn -0.5145 -0.6085 -0.6041
vn 0.6012 0.6810 0.4179
vn 0.4846 -0.7046 -0.5183
vn -0.8440 -0.5363 0.0016
vn 0.3066 0.5540 0.7740
vn 0.5788 -0.6218 -0.5276
vn -0.7603 -0.6496 -0.0000
vn -0.2532 0.5018 0.8271
vn 0.3113 -0.3639 -0.8779
vn -0.6728 -0.7398 -0.0000
vn -0.6541 0.6192 0.4343
vn 0.3085 0.5574 -0.7708
vn 0.2666 -0.5503 -0.7913
vn -0.7921 -0.6104 -0.0000
vn -0.7134 0.7007 0.0007
vn 0.4348 0.7473 -0.5024
vn 0.2175 -0.8303 -0.5131
vn -0.6137 -0.5927 0.5217
vn -0.6154 0.6611 -0.4293
vn 0.7008 0.7134 0.0012
vn -0.2603 0.5997 -0.7567
vn 0.2952 0.7175 0.6309
vn 0.6986 0.6226 0.3525
vn -0.0380 0.9980 -0.0503
vn -0.0242 0.9996 -0.0176
vn -0.0209 0.9980 0.0602
vn -0.0217 0.9998 0.0052
vn 0.7233 0.6446 -0.2476
vn 0.7754 0.5635 -0.2852
vn -0.7875 0.5723 -0.2289
vn -0.8111 0.4480 -0.3762
vn -0.7362 0.5532 0.3898
vn -0.0114 0.9993 0.0350
vn 0.0209 0.9980 0.0602
vn -0.2962 0.6898 0.6606
vn 0.0142 0.9994 0.0319
vn -0.4596 0.8573 0.2319
vn -0.2773 0.8862 -0.3711
vn 0.6911 0.6975 -0.1895
vn -0.2443 0.8172 0.5221
vn 0.4820 0.8391 0.2523
vn 0.2926 0.8346 -0.4668
vn -0.4916 0.8558 -0.1607
vn 0.2277 0.8840 0.4083
vn 0.5940 0.7857 -0.1727
vn -0.6762 0.6824 -0.2776
vn -0.6690 0.5862 -0.4569
vn 0.6691 0.5862 -0.4569
vn -0.8009 0.5980 -0.0296
vn -0.4739 0.4411 0.7622
vn -0.4259 0.5331 -0.7311
vn 0.4286 0.5904 -0.6839
vn -0.0072 0.9993 -0.0365
vn 0.0114 0.9993 0.0350
vn -0.7754 0.5635 -0.2852
vn -0.7233 0.6446 -0.2476
vn -0.0142 0.9994 0.0319
vn 0.0217 0.9998 0.0052
vn 0.0242 0.9996 -0.0176
vn 0.8887 0.3787 -0.2583
vn 0.8024 0.5831 -0.1275
vn 0.0912 0.9922 0.0852
vn 0.0443 0.9921 0.1171
vn 0.0839 0.9671 -0.2400
vn 0.0991 0.9939 -0.0492
vn 0.1584 0.9873 -0.0124
vn -0.1658 0.9861 -0.0124
vn -0.1325 0.9824 0.1320
vn -0.0302 0.9963 -0.0799
vn -0.2809 0.9566 -0.0772
vn 0.1641 0.9750 -0.1500
vn 0.0059 0.9998 -0.0170
vn -0.0059 0.9998 -0.0170
vn -0.0874 0.9953 -0.0421
vn -0.1580 0.9843 0.0789
vn -0.0556 0.9805 0.1885
vn 0.1668 0.9818 -0.0904
vn 0.0338 0.9951 -0.0932
vn 0.0493 0.9899 0.1331
vn -0.2448 0.9410 -0.2338
vn 0.1272 0.9900 0.0612
vn -0.0864 0.9656 -0.2452
vn 0.0875 0.9961 0.0072
vn -0.0916 0.9958 0.0071
vn -0.0437 0.9924 0.1148
vn 0.7985 0.0037 0.6020
vn 0.7922 -0.0287 -0.6095
vn 0.3163 -0.1319 -0.9395
vn 0.3158 0.0129 0.9487
vn -0.7734 -0.1842 -0.6066
vn -0.7942 0.0038 0.6077
vn -0.3186 -0.0315 0.9474
vn -0.3124 -0.1541 -0.9374
vt 0.567247 0.389028
vt 0.567276 0.388448
vt 0.567269 0.389036
vt 0.556848 0.382391
vt 0.556361 0.382983
vt 0.556830 0.382365
vt 0.557632 0.385880
vt 0.558076 0.386479
vt 0.558045 0.386488
vt 0.567254 0.388455
vt 0.566936 0.387969
vt 0.565447 0.386620
vt 0.565477 0.385857
vt 0.565477 0.386630
vt 0.558046 0.387239
vt 0.558076 0.387250
vt 0.566922 0.387987
vt 0.566386 0.387790
vt 0.558782 0.383798
vt 0.558812 0.383033
vt 0.558811 0.383807
vt 0.573739 0.386179
vt 0.573783 0.386872
vt 0.573739 0.386872
vt 0.565004 0.385257
vt 0.565447 0.385867
vt 0.563129 0.385867
vt 0.563099 0.386630
vt 0.563099 0.385856
vt 0.566028 0.369080
vt 0.565987 0.368786
vt 0.566014 0.368787
vt 0.569909 0.361689
vt 0.569960 0.362266
vt 0.569917 0.362266
vt 0.566091 0.368765
vt 0.566064 0.368331
vt 0.566091 0.368331
vt 0.561598 0.381782
vt 0.561642 0.382465
vt 0.561598 0.382465
vt 0.566752 0.369504
vt 0.566785 0.369868
vt 0.566758 0.369868
vt 0.573755 0.385609
vt 0.573783 0.386179
vt 0.565987 0.368365
vt 0.566014 0.368366
vt 0.558688 0.383766
vt 0.558326 0.384400
vt 0.558267 0.384320
vt 0.564948 0.385335
vt 0.565355 0.385896
vt 0.557587 0.384618
vt 0.557587 0.384522
vt 0.564288 0.385121
vt 0.556848 0.384370
vt 0.556906 0.384293
vt 0.563629 0.385335
vt 0.564288 0.385025
vt 0.556486 0.383721
vt 0.556391 0.383749
vt 0.563221 0.385896
vt 0.563572 0.385257
vt 0.556486 0.383025
vt 0.556391 0.382994
vt 0.563129 0.386620
vt 0.556906 0.382471
vt 0.563629 0.387151
vt 0.563221 0.386590
vt 0.557586 0.382173
vt 0.557586 0.382270
vt 0.564288 0.387462
vt 0.563572 0.387229
vt 0.558267 0.382498
vt 0.558325 0.382421
vt 0.564948 0.387151
vt 0.564288 0.387365
vt 0.558688 0.383070
vt 0.558782 0.383042
vt 0.565004 0.387229
vt 0.565355 0.386590
vt 0.568542 0.386278
vt 0.567883 0.384177
vt 0.568542 0.383955
vt 0.569202 0.386056
vt 0.569609 0.384757
vt 0.569609 0.385475
vt 0.567883 0.386056
vt 0.567475 0.384758
vt 0.571646 0.364713
vt 0.571689 0.365408
vt 0.571646 0.365408
vt 0.561665 0.382947
vt 0.561621 0.382946
vt 0.566101 0.369116
vt 0.566064 0.368765
vt 0.569953 0.362959
vt 0.569909 0.362959
vt 0.566758 0.370308
vt 0.566779 0.370655
vt 0.566752 0.370655
vt 0.573798 0.387424
vt 0.573755 0.387424
vt 0.570101 0.362928
vt 0.570062 0.362382
vt 0.570106 0.362382
vt 0.566002 0.367977
vt 0.566028 0.367978
vt 0.566785 0.370308
vt 0.561621 0.381158
vt 0.561642 0.381782
vt 0.566074 0.367977
vt 0.566101 0.367978
vt 0.570057 0.361689
vt 0.570101 0.361689
vt 0.435490 0.627150
vt 0.434847 0.627088
vt 0.434846 0.627071
vt 0.442059 0.627656
vt 0.442042 0.627026
vt 0.442080 0.627648
vt 0.570992 0.319430
vt 0.570958 0.320132
vt 0.570941 0.320144
vt 0.572350 0.319085
vt 0.571678 0.319157
vt 0.572349 0.319071
vt 0.571677 0.319085
vt 0.572342 0.319022
vt 0.571679 0.319120
vt 0.442021 0.627029
vt 0.442014 0.626305
vt 0.433691 0.628055
vt 0.434408 0.628247
vt 0.434410 0.628262
vt 0.571673 0.319172
vt 0.570967 0.319009
vt 0.433236 0.623232
vt 0.433428 0.623809
vt 0.433417 0.623819
vt 0.429987 0.628684
vt 0.429387 0.628726
vt 0.429374 0.628709
vt 0.573157 0.319453
vt 0.573747 0.319441
vt 0.573759 0.319458
vt 0.433428 0.622461
vt 0.433249 0.623232
vt 0.571861 0.317702
vt 0.572437 0.317649
vt 0.571874 0.317720
vt 0.572339 0.319461
vt 0.573154 0.319433
vt 0.570960 0.318785
vt 0.571012 0.319424
vt 0.571784 0.319386
vt 0.572340 0.319441
vt 0.430650 0.628194
vt 0.429986 0.628231
vt 0.429979 0.628217
vt 0.572438 0.317722
vt 0.573236 0.317731
vt 0.573241 0.317750
vt 0.430792 0.628732
vt 0.429993 0.628699
vt 0.578322 0.319032
vt 0.578270 0.318407
vt 0.578343 0.319024
vt 0.573240 0.317664
vt 0.572432 0.317635
vt 0.578249 0.318410
vt 0.578240 0.317658
vt 0.569113 0.314672
vt 0.569124 0.314064
vt 0.569139 0.314059
vt 0.576743 0.318561
vt 0.576746 0.318034
vt 0.576762 0.318554
vt 0.578185 0.317168
vt 0.578221 0.317655
vt 0.569117 0.315407
vt 0.569097 0.314668
vt 0.431273 0.628224
vt 0.430649 0.628206
vt 0.572896 0.319098
vt 0.572887 0.319081
vt 0.570765 0.314822
vt 0.571257 0.315371
vt 0.570759 0.314835
vt 0.435076 0.627467
vt 0.435629 0.627453
vt 0.435083 0.627485
vt 0.571271 0.316194
vt 0.571271 0.315366
vt 0.572334 0.319375
vt 0.571794 0.319318
vt 0.571787 0.319300
vt 0.570992 0.316754
vt 0.571258 0.316195
vt 0.576728 0.318036
vt 0.576777 0.317208
vt 0.570998 0.316762
vt 0.570396 0.316993
vt 0.435648 0.626974
vt 0.436408 0.627014
vt 0.435648 0.626987
vt 0.570394 0.317006
vt 0.569604 0.316909
vt 0.434901 0.626629
vt 0.435619 0.626678
vt 0.435624 0.626696
vt 0.435631 0.627441
vt 0.436391 0.627482
vt 0.569088 0.313624
vt 0.569070 0.314063
vt 0.569056 0.314060
vt 0.421190 0.691239
vt 0.420811 0.690810
vt 0.421114 0.690773
vt 0.432086 0.670341
vt 0.432425 0.670783
vt 0.432012 0.670817
vt 0.432425 0.671525
vt 0.432012 0.671544
vt 0.425490 0.697808
vt 0.426158 0.697418
vt 0.426104 0.697782
vt 0.426775 0.697759
vt 0.431136 0.696487
vt 0.431761 0.696098
vt 0.431773 0.696539
vt 0.432584 0.696155
vt 0.432540 0.696566
vt 0.433118 0.696571
vt 0.420785 0.692606
vt 0.421149 0.691973
vt 0.421195 0.692601
vt 0.420768 0.691862
vt 0.420316 0.696067
vt 0.420758 0.696450
vt 0.420181 0.696521
vt 0.438201 0.695443
vt 0.438599 0.695854
vt 0.438207 0.695869
vt 0.438234 0.696595
vt 0.438626 0.696580
vt 0.438268 0.697223
vt 0.426112 0.698249
vt 0.426789 0.697841
vt 0.426916 0.698297
vt 0.431201 0.697032
vt 0.431770 0.696614
vt 0.431755 0.697006
vt 0.432522 0.697033
vt 0.432537 0.696641
vt 0.433101 0.697038
vt 0.418968 0.696020
vt 0.419537 0.696442
vt 0.418954 0.696411
vt 0.419593 0.696001
vt 0.420318 0.696963
vt 0.420768 0.696542
vt 0.420868 0.696975
vt 0.438109 0.695434
vt 0.437713 0.695817
vt 0.437677 0.695344
vt 0.438119 0.695865
vt 0.437741 0.696569
vt 0.438146 0.696594
vt 0.437815 0.697190
vt 0.426103 0.698333
vt 0.426833 0.698730
vt 0.426024 0.698701
vt 0.431199 0.697113
vt 0.431739 0.697533
vt 0.431193 0.697459
vt 0.432525 0.697121
vt 0.432563 0.697526
vt 0.433106 0.697126
vt 0.433162 0.697531
vt 0.418932 0.696905
vt 0.419548 0.696543
vt 0.419650 0.697050
vt 0.420195 0.696603
vt 0.557041 0.388456
vt 0.557594 0.389290
vt 0.557071 0.389297
vt 0.574309 0.386733
vt 0.573510 0.387200
vt 0.573493 0.386602
vt 0.574345 0.387220
vt 0.573539 0.387975
vt 0.574374 0.387975
vt 0.573581 0.388618
vt 0.562803 0.391061
vt 0.563553 0.390222
vt 0.563564 0.391056
vt 0.567884 0.389784
vt 0.568463 0.389026
vt 0.568499 0.389831
vt 0.569282 0.389018
vt 0.569275 0.389851
vt 0.569883 0.389023
vt 0.569893 0.389857
vt 0.555645 0.389234
vt 0.556365 0.388543
vt 0.556335 0.389297
vt 0.557587 0.387835
vt 0.557605 0.387862
vt 0.565856 0.387964
vt 0.566385 0.387813
vt 0.558345 0.384425
vt 0.556361 0.383759
vt 0.556853 0.388037
vt 0.556851 0.388069
vt 0.565024 0.387254
vt 0.556158 0.387795
vt 0.556138 0.387821
vt 0.558345 0.382396
vt 0.563553 0.385231
vt 0.555721 0.387200
vt 0.555752 0.387189
vt 0.562338 0.383498
vt 0.562436 0.382988
vt 0.562450 0.383510
vt 0.563587 0.368632
vt 0.563662 0.368993
vt 0.563592 0.368996
vt 0.563664 0.369466
vt 0.563595 0.369469
vt 0.563510 0.369486
vt 0.563432 0.369094
vt 0.563510 0.369082
vt 0.563433 0.368620
vt 0.563502 0.368620
vt 0.561598 0.383422
vt 0.561475 0.384039
vt 0.561485 0.383420
vt 0.561580 0.384058
vt 0.561468 0.384825
vt 0.561581 0.384830
vt 0.561485 0.385439
vt 0.562311 0.384953
vt 0.562444 0.384247
vt 0.562423 0.384955
vt 0.577192 0.373378
vt 0.577253 0.372614
vt 0.577255 0.373378
vt 0.577234 0.374083
vt 0.562776 0.359992
vt 0.562676 0.359363
vt 0.562757 0.359356
vt 0.562775 0.360781
vt 0.562694 0.359996
vt 0.562758 0.361424
vt 0.562700 0.360793
vt 0.570725 0.364321
vt 0.570811 0.365096
vt 0.570729 0.365096
vt 0.577173 0.374746
vt 0.577247 0.374089
vt 0.577255 0.374752
vt 0.577168 0.375541
vt 0.577250 0.375550
vt 0.577157 0.376154
vt 0.577233 0.376180
vt 0.577170 0.372623
vt 0.577230 0.372082
vt 0.557587 0.384650
vt 0.566926 0.389473
vt 0.566940 0.389492
vt 0.564288 0.384993
vt 0.565023 0.385232
vt 0.566388 0.389637
vt 0.566387 0.389661
vt 0.557587 0.382141
vt 0.565843 0.389464
vt 0.565858 0.389445
vt 0.563554 0.387255
vt 0.556946 0.385609
vt 0.557651 0.385856
vt 0.556829 0.384396
vt 0.565503 0.388985
vt 0.565526 0.388977
vt 0.556212 0.385828
vt 0.556944 0.385640
vt 0.565503 0.388416
vt 0.565526 0.388422
vt 0.555754 0.386424
vt 0.556194 0.385802
vt 0.565843 0.387946
vt 0.564288 0.387494
vt 0.555724 0.386413
vt 0.434857 0.627153
vt 0.435484 0.627173
vt 0.435497 0.627219
vt 0.434909 0.626556
vt 0.434904 0.626608
vt 0.569046 0.314655
vt 0.434268 0.627108
vt 0.434289 0.626586
vt 0.434288 0.626633
vt 0.569062 0.315408
vt 0.573745 0.319392
vt 0.436395 0.627534
vt 0.436964 0.627488
vt 0.436970 0.627541
vt 0.436406 0.627061
vt 0.436982 0.627018
vt 0.436980 0.627065
vt 0.576815 0.316629
vt 0.576832 0.317212
vt 0.573153 0.319385
vt 0.435628 0.627509
vt 0.435646 0.627034
vt 0.576805 0.318031
vt 0.571792 0.319366
vt 0.572335 0.319397
vt 0.435083 0.627530
vt 0.435025 0.626989
vt 0.576816 0.318561
vt 0.572443 0.317701
vt 0.573237 0.317683
vt 0.430781 0.628795
vt 0.429985 0.628747
vt 0.429987 0.628277
vt 0.430661 0.628261
vt 0.571014 0.318788
vt 0.571060 0.319432
vt 0.578318 0.318408
vt 0.442094 0.627028
vt 0.442517 0.627012
vt 0.442597 0.627634
vt 0.442550 0.627636
vt 0.571014 0.320130
vt 0.578288 0.317661
vt 0.442066 0.626310
vt 0.442537 0.626292
vt 0.442490 0.626293
vt 0.575953 0.319513
vt 0.575916 0.318781
vt 0.575972 0.318781
vt 0.578247 0.317193
vt 0.578201 0.317176
vt 0.442058 0.625890
vt 0.442002 0.625880
vt 0.442543 0.625826
vt 0.575972 0.320010
vt 0.575898 0.319516
vt 0.436066 0.627153
vt 0.435633 0.626624
vt 0.436092 0.626614
vt 0.569103 0.313635
vt 0.569144 0.313632
vt 0.578307 0.317659
vt 0.430784 0.628813
vt 0.435396 0.626818
vt 0.435015 0.626152
vt 0.435023 0.626143
vt 0.442110 0.627030
vt 0.442083 0.626304
vt 0.435628 0.627533
vt 0.569031 0.314658
vt 0.435089 0.628017
vt 0.435098 0.628029
vt 0.436401 0.627556
vt 0.570969 0.318961
vt 0.570959 0.318940
vt 0.436103 0.626635
vt 0.575900 0.318776
vt 0.575882 0.319520
vt 0.436981 0.627561
vt 0.434272 0.627055
vt 0.434262 0.627039
vt 0.442523 0.625816
vt 0.442474 0.626289
vt 0.578271 0.317185
vt 0.434856 0.627171
vt 0.434379 0.625911
vt 0.434379 0.625926
vt 0.442501 0.627015
vt 0.430117 0.620707
vt 0.430104 0.621315
vt 0.430104 0.620711
vt 0.435503 0.627231
vt 0.569045 0.315417
vt 0.433179 0.628435
vt 0.433193 0.627693
vt 0.433191 0.628435
vt 0.435414 0.627462
vt 0.435426 0.627466
vt 0.573757 0.319372
vt 0.573157 0.319367
vt 0.430665 0.628276
vt 0.566836 0.311363
vt 0.566823 0.312107
vt 0.566823 0.311364
vt 0.433179 0.625490
vt 0.433193 0.624768
vt 0.433194 0.625487
vt 0.435017 0.627005
vt 0.435645 0.627049
vt 0.572345 0.318998
vt 0.572883 0.319034
vt 0.433691 0.626145
vt 0.433698 0.626158
vt 0.436413 0.627076
vt 0.569427 0.315072
vt 0.569136 0.315640
vt 0.569123 0.315640
vt 0.436054 0.627097
vt 0.566797 0.311285
vt 0.566810 0.310546
vt 0.566811 0.311280
vt 0.433800 0.630092
vt 0.433786 0.629368
vt 0.433800 0.629366
vt 0.569105 0.316373
vt 0.569092 0.316379
vt 0.435384 0.626820
vt 0.569597 0.316922
vt 0.560994 0.333503
vt 0.560943 0.333368
vt 0.560991 0.333350
vt 0.565816 0.333567
vt 0.565863 0.333368
vt 0.565864 0.333551
vt 0.566109 0.333399
vt 0.566059 0.333246
vt 0.566106 0.333214
vt 0.565830 0.337428
vt 0.565684 0.337442
vt 0.565810 0.337398
vt 0.565435 0.337570
vt 0.565684 0.337628
vt 0.565684 0.337682
vt 0.568501 0.331464
vt 0.568447 0.331165
vt 0.568500 0.331111
vt 0.570841 0.388357
vt 0.571015 0.388459
vt 0.570808 0.388796
vt 0.571163 0.389022
vt 0.571020 0.389221
vt 0.571544 0.389147
vt 0.572067 0.389221
vt 0.571924 0.389022
vt 0.572279 0.388796
vt 0.572073 0.388459
vt 0.572246 0.388357
vt 0.572010 0.388098
vt 0.571235 0.387758
vt 0.571290 0.387936
vt 0.571094 0.387991
vt 0.572133 0.389349
vt 0.572611 0.388963
vt 0.572203 0.389524
vt 0.571001 0.387748
vt 0.570730 0.388351
vt 0.571544 0.387560
vt 0.571544 0.387620
vt 0.570884 0.387708
vt 0.570476 0.388269
vt 0.568494 0.331920
vt 0.568440 0.331954
vt 0.568448 0.331462
vt 0.571110 0.388493
vt 0.571544 0.388952
vt 0.571294 0.388840
vt 0.571977 0.388493
vt 0.571793 0.388840
vt 0.565638 0.333376
vt 0.565585 0.333265
vt 0.565602 0.333238
vt 0.565974 0.333238
vt 0.565920 0.333588
vt 0.565920 0.333266
vt 0.570691 0.388820
vt 0.571544 0.387494
vt 0.571544 0.389563
vt 0.571544 0.389738
vt 0.571852 0.387758
vt 0.565934 0.337570
vt 0.565923 0.337516
vt 0.571736 0.387792
vt 0.571544 0.387680
vt 0.566071 0.337223
vt 0.565885 0.337460
vt 0.566009 0.337223
vt 0.565863 0.336568
vt 0.565684 0.336520
vt 0.565684 0.336456
vt 0.565460 0.336726
vt 0.565360 0.337223
vt 0.565297 0.337223
vt 0.565684 0.337571
vt 0.565484 0.337460
vt 0.565445 0.337516
vt 0.565506 0.336568
vt 0.565535 0.336632
vt 0.565909 0.336726
vt 0.565872 0.336725
vt 0.565496 0.336725
vt 0.565834 0.336632
vt 0.559111 0.333590
vt 0.559073 0.333626
vt 0.559074 0.333579
vt 0.565821 0.336986
vt 0.565935 0.337166
vt 0.565930 0.337281
vt 0.565684 0.337478
vt 0.565539 0.337428
vt 0.565438 0.337281
vt 0.565434 0.337166
vt 0.565547 0.336986
vt 0.559073 0.333482
vt 0.559109 0.333470
vt 0.571544 0.388251
vt 0.571418 0.388668
vt 0.571426 0.388288
vt 0.571669 0.388668
vt 0.571759 0.388443
vt 0.571755 0.388542
vt 0.571328 0.388443
vt 0.571332 0.388542
vt 0.571661 0.388288
vt 0.566061 0.333503
vt 0.566061 0.333404
vt 0.565815 0.333354
vt 0.565866 0.333268
vt 0.560991 0.333660
vt 0.560946 0.333499
vt 0.566109 0.333514
vt 0.566059 0.333626
vt 0.572811 0.335666
vt 0.572766 0.335537
vt 0.572811 0.335523
vt 0.565866 0.333627
vt 0.565819 0.333656
vt 0.565684 0.336626
vt 0.565766 0.336677
vt 0.565684 0.336857
vt 0.565684 0.336944
vt 0.565605 0.336796
vt 0.565764 0.336796
vt 0.565603 0.336677
vt 0.574470 0.368838
vt 0.574403 0.368701
vt 0.574470 0.368741
vt 0.574341 0.368840
vt 0.574407 0.368889
vt 0.573045 0.335523
vt 0.573080 0.335610
vt 0.573045 0.335617
vt 0.559150 0.333648
vt 0.559185 0.333554
vt 0.559186 0.333631
vt 0.573010 0.335622
vt 0.572973 0.335534
vt 0.573010 0.335523
vt 0.559148 0.333554
vt 0.559186 0.333481
vt 0.565642 0.333586
vt 0.565572 0.333387
vt 0.565492 0.336522
vt 0.565684 0.336410
vt 0.571797 0.387937
vt 0.572086 0.387748
vt 0.565960 0.336761
vt 0.570954 0.389349
vt 0.570476 0.388963
vt 0.571352 0.387792
vt 0.572357 0.388351
vt 0.572203 0.387708
vt 0.572611 0.388269
vt 0.570884 0.389524
vt 0.571993 0.387991
vt 0.568494 0.332014
vt 0.568501 0.332156
vt 0.572396 0.388820
vt 0.565409 0.336761
vt 0.565430 0.336667
vt 0.565432 0.336726
vt 0.565938 0.336667
vt 0.565936 0.336726
vt 0.574798 0.344894
vt 0.574434 0.344572
vt 0.574434 0.344534
vt 0.573985 0.345963
vt 0.573439 0.345799
vt 0.573461 0.345764
vt 0.573519 0.344641
vt 0.573686 0.344562
vt 0.573710 0.344574
vt 0.574837 0.345363
vt 0.574550 0.345837
vt 0.574779 0.345363
vt 0.573249 0.345339
vt 0.573252 0.344900
vt 0.573282 0.344900
vt 0.574721 0.345339
vt 0.574718 0.344900
vt 0.574753 0.345339
vt 0.573172 0.344894
vt 0.573536 0.344572
vt 0.573227 0.344894
vt 0.573396 0.345892
vt 0.573985 0.346051
vt 0.573985 0.346106
vt 0.574260 0.344574
vt 0.574266 0.344514
vt 0.574284 0.344562
vt 0.573519 0.344621
vt 0.571077 0.388098
vt 0.571268 0.388031
vt 0.574743 0.344894
vt 0.574451 0.344621
vt 0.574531 0.345799
vt 0.573985 0.346006
vt 0.573420 0.345837
vt 0.573191 0.345363
vt 0.573217 0.345339
vt 0.573704 0.344514
vt 0.573133 0.345363
vt 0.574509 0.345764
vt 0.573536 0.344534
vt 0.573731 0.344479
vt 0.574574 0.345892
vt 0.574239 0.344479
vt 0.574451 0.344641
vt 0.574688 0.344900
vt 0.574138 0.367964
vt 0.573277 0.367220
vt 0.574156 0.367220
vt 0.569197 0.368588
vt 0.568324 0.367956
vt 0.569248 0.367874
vt 0.572006 0.386746
vt 0.572868 0.386177
vt 0.572884 0.386769
vt 0.573248 0.368550
vt 0.574171 0.368469
vt 0.556543 0.382090
vt 0.557429 0.382656
vt 0.556557 0.382599
vt 0.569197 0.367224
vt 0.556543 0.384007
vt 0.557404 0.383254
vt 0.557419 0.384013
vt 0.571998 0.387512
vt 0.572852 0.387601
vt 0.571989 0.388116
vt 0.572868 0.388126
vt 0.566002 0.369079
vt 0.569953 0.361689
vt 0.566779 0.369504
vt 0.573798 0.385609
vt 0.569202 0.384177
vt 0.567475 0.385475
vt 0.571689 0.364712
vt 0.566074 0.369116
vt 0.570057 0.362928
vt 0.561665 0.381159
vt 0.441994 0.626300
vt 0.433694 0.628044
vt 0.570959 0.319026
vt 0.433418 0.622456
vt 0.570941 0.318781
vt 0.430789 0.628750
vt 0.569130 0.315416
vt 0.431284 0.628210
vt 0.576760 0.317204
vt 0.436415 0.627001
vt 0.436398 0.627468
vt 0.420793 0.691248
vt 0.432396 0.670282
vt 0.425454 0.697396
vt 0.426808 0.697357
vt 0.431223 0.696087
vt 0.433175 0.696160
vt 0.420795 0.696006
vt 0.438647 0.695381
vt 0.438659 0.697208
vt 0.426105 0.697858
vt 0.431141 0.696570
vt 0.433115 0.696646
vt 0.438183 0.697221
vt 0.426908 0.698378
vt 0.431752 0.697098
vt 0.418950 0.696499
vt 0.557588 0.388469
vt 0.574447 0.388597
vt 0.562749 0.390194
vt 0.567909 0.388951
vt 0.555651 0.388398
vt 0.562311 0.382962
vt 0.563664 0.368620
vt 0.563440 0.369488
vt 0.561598 0.385445
vt 0.562339 0.384259
vt 0.577152 0.374087
vt 0.562676 0.361425
vt 0.570815 0.364314
vt 0.577157 0.374087
vt 0.577152 0.372085
vt 0.576760 0.316624
vt 0.435019 0.626934
vt 0.578395 0.319024
vt 0.442128 0.627651
vt 0.442563 0.627010
vt 0.442597 0.625819
vt 0.575931 0.320016
vt 0.436097 0.626561
vt 0.578335 0.318411
vt 0.429979 0.628768
vt 0.435074 0.627547
vt 0.434258 0.627128
vt 0.430117 0.621321
vt 0.433179 0.627687
vt 0.429980 0.628293
vt 0.566836 0.312113
vt 0.433179 0.624763
vt 0.572895 0.319010
vt 0.569434 0.315079
vt 0.436066 0.627079
vt 0.566797 0.310541
vt 0.433785 0.630089
vt 0.434276 0.626648
vt 0.571544 0.389420
vt 0.568479 0.331955
vt 0.565642 0.333262
vt 0.565974 0.333626
vt 0.559109 0.333648
vt 0.571544 0.388711
vt 0.565819 0.333238
vt 0.560943 0.333635
vt 0.566106 0.333657
vt 0.572766 0.335659
vt 0.574337 0.368743
vt 0.573080 0.335534
vt 0.572973 0.335614
vt 0.559150 0.333464
vt 0.565577 0.333610
vt 0.571819 0.388031
vt 0.566118 0.337223
vt 0.568438 0.332109
vt 0.573259 0.367971
vt 0.568319 0.368597
vt 0.571989 0.386148
vt 0.557462 0.382220
vt 0.568319 0.367220
vt 0.556555 0.383317
s 0
g closed_can_with_food_Material
usemtl Material
f 136/1/1 174/2/1 171/3/1
f 33/4/2 166/5/2 169/6/2
f 141/7/3 182/8/3 142/9/3
f 137/10/4 177/11/4 174/2/4
f 40/12/5 154/13/5 179/14/5
f 143/15/6 182/8/6 183/16/6
f 138/17/7 180/18/7 177/11/7
f 21/19/8 178/20/8 151/21/8
f 4/22/9 283/23/9 6/24/9
f 23/25/10 154/13/10 24/26/10
f 30/27/11 167/28/11 164/29/11
f 13/30/12 41/31/12 11/32/12
f 18/33/13 284/34/13 20/35/13
f 5/36/14 44/37/14 3/38/14
f 10/39/15 278/40/15 12/41/15
f 19/42/16 50/43/16 17/44/16
f 2/45/17 281/46/17 4/22/17
f 11/32/18 43/47/18 9/48/18
f 1/49/19 22/50/19 3/51/19
f 4/52/20 24/26/20 2/53/20
f 3/51/19 25/54/19 5/55/19
f 6/56/20 23/25/20 4/52/20
f 5/55/19 27/57/19 7/58/19
f 8/59/20 26/60/20 6/56/20
f 9/61/19 27/57/19 29/62/19
f 10/63/20 28/64/20 8/59/20
f 11/65/19 29/62/19 31/66/19
f 10/63/20 32/67/20 30/27/20
f 11/65/19 33/4/19 13/68/19
f 14/69/20 32/67/20 12/70/20
f 13/68/19 35/71/19 15/72/19
f 14/69/20 36/73/20 34/74/20
f 17/75/19 35/71/19 37/76/19
f 18/77/20 36/73/20 16/78/20
f 19/79/19 37/76/19 39/80/19
f 18/77/20 40/12/20 38/81/20
f 1/49/19 39/80/19 21/19/19
f 20/82/20 24/26/20 40/12/20
f 41/83/19 46/84/19 42/85/19
f 42/85/19 43/86/19 41/83/19
f 43/86/19 47/87/19 48/88/19
f 45/89/19 50/90/19 46/84/19
f 1/91/21 46/92/21 19/93/21
f 12/41/22 279/94/22 14/95/22
f 7/96/23 47/97/23 5/36/23
f 20/35/24 282/98/24 2/99/24
f 15/100/25 45/101/25 13/102/25
f 6/24/23 276/103/23 8/104/23
f 14/105/26 280/106/26 16/107/26
f 9/48/27 48/108/27 7/109/27
f 17/44/28 49/110/28 15/100/28
f 8/111/29 277/112/29 10/39/29
f 3/38/30 42/113/30 1/114/30
f 16/107/28 285/115/28 18/116/28
f 52/117/31 200/118/31 89/119/31
f 115/120/32 255/121/32 256/122/32
f 67/123/33 226/124/33 63/125/33
f 130/126/34 270/127/34 191/128/34
f 90/129/35 192/130/35 199/131/35
f 114/132/36 254/133/36 255/121/36
f 68/134/37 225/135/37 64/136/37
f 129/137/38 269/138/38 270/127/38
f 112/139/39 254/140/39 113/141/39
f 69/142/40 224/143/40 65/144/40
f 127/145/41 269/146/41 128/147/41
f 112/139/42 193/148/42 253/149/42
f 66/150/43 219/151/43 223/152/43
f 126/153/44 268/154/44 127/145/44
f 67/123/45 218/155/45 222/156/45
f 125/157/46 267/158/46 126/153/46
f 72/159/47 221/160/47 68/161/47
f 124/162/48 266/163/48 125/164/48
f 73/165/49 220/166/49 69/142/49
f 124/167/50 264/168/50 265/169/50
f 74/170/51 219/151/51 70/171/51
f 123/172/52 263/173/52 264/168/52
f 100/174/53 197/175/53 91/176/53
f 71/177/54 214/178/54 218/179/54
f 121/180/55 263/173/55 122/181/55
f 100/174/56 242/182/56 243/183/56
f 72/159/57 213/184/57 217/185/57
f 121/186/58 191/128/58 262/187/58
f 99/188/59 241/189/59 242/190/59
f 73/191/60 212/192/60 216/193/60
f 97/194/61 241/189/61 98/195/61
f 78/196/62 215/197/62 74/198/62
f 97/194/63 239/199/63 240/200/63
f 75/201/64 210/202/64 214/178/64
f 96/203/65 238/204/65 239/199/65
f 76/205/66 209/206/66 213/207/66
f 95/208/67 237/209/67 238/204/67
f 110/210/68 195/211/68 101/212/68
f 77/213/69 208/214/69 212/192/69
f 55/215/70 198/216/70 54/217/70
f 53/218/71 92/219/71 56/220/71
f 56/221/72 93/222/72 60/223/72
f 60/223/73 94/224/73 64/225/73
f 64/226/74 95/227/74 68/228/74
f 95/227/75 72/229/75 68/228/75
f 72/230/76 97/231/76 76/232/76
f 76/232/77 98/233/77 80/234/77
f 98/233/78 84/235/78 80/234/78
f 99/236/79 88/237/79 84/238/79
f 100/239/80 53/218/80 88/237/80
f 101/240/81 57/241/81 52/242/81
f 57/243/82 103/244/82 61/245/82
f 103/244/28 65/246/28 61/245/28
f 104/247/83 69/248/83 65/246/83
f 69/249/84 106/250/84 73/251/84
f 73/252/85 107/253/85 77/254/85
f 107/253/86 81/255/86 77/254/86
f 108/256/23 85/257/23 81/255/23
f 109/258/87 89/259/87 85/260/87
f 110/261/88 52/242/88 89/259/88
f 51/262/89 112/263/89 58/264/89
f 112/265/90 62/266/90 58/267/90
f 113/268/91 66/269/91 62/266/91
f 114/270/92 70/271/92 66/269/92
f 115/272/93 74/273/93 70/274/93
f 116/275/94 78/276/94 74/277/94
f 78/276/95 118/278/95 82/279/95
f 82/279/96 119/280/96 86/281/96
f 86/282/97 120/283/97 90/284/97
f 90/284/98 111/285/98 51/262/98
f 130/286/99 131/287/99 140/288/99
f 121/289/100 132/290/100 131/291/100
f 122/292/28 133/293/28 132/290/28
f 123/294/101 134/295/101 133/293/101
f 134/296/102 125/297/102 135/298/102
f 135/299/103 126/300/103 136/301/103
f 136/301/104 127/302/104 137/303/104
f 137/303/23 128/304/23 138/305/23
f 138/306/105 129/307/105 139/308/105
f 129/307/106 140/288/106 139/308/106
f 144/309/107 183/16/107 184/310/107
f 140/311/108 180/18/108 139/312/108
f 21/19/109 152/313/109 22/50/109
f 31/66/110 163/314/110 166/5/110
f 145/315/111 184/310/111 185/316/111
f 40/12/112 176/317/112 38/81/112
f 146/318/113 185/316/113 186/319/113
f 39/80/114 175/320/114 178/20/114
f 28/64/115 164/29/115 161/321/115
f 146/318/116 187/322/116 147/323/116
f 154/324/117 182/325/117 155/326/117
f 182/327/118 158/328/118 183/329/118
f 183/329/119 161/330/119 184/331/119
f 184/332/120 164/333/120 185/334/120
f 185/334/121 167/335/121 186/336/121
f 167/337/122 187/338/122 186/339/122
f 170/340/123 188/341/123 187/338/123
f 173/342/124 189/343/124 188/341/124
f 176/344/125 190/345/125 189/346/125
f 190/345/126 154/324/126 155/326/126
f 180/347/127 151/348/127 178/349/127
f 175/350/128 180/347/128 178/349/128
f 172/351/129 177/352/129 175/353/129
f 169/354/130 174/355/130 172/351/130
f 166/356/131 171/357/131 169/354/131
f 163/358/132 168/359/132 166/360/132
f 162/361/133 163/362/133 160/363/133
f 159/364/134 160/363/134 157/365/134
f 156/366/135 157/365/135 152/367/135
f 181/368/136 152/369/136 151/348/136
f 34/74/137 167/28/137 32/67/137
f 22/50/138 157/370/138 25/54/138
f 135/371/139 171/3/139 168/372/139
f 23/25/140 158/373/140 153/374/140
f 134/375/141 168/372/141 165/376/141
f 35/71/142 169/6/142 172/377/142
f 134/375/143 162/378/143 133/379/143
f 36/73/144 170/380/144 34/74/144
f 141/7/145 190/381/145 155/382/145
f 25/54/146 160/383/146 27/57/146
f 133/379/147 159/384/147 132/385/147
f 149/386/148 190/381/148 150/387/148
f 26/60/149 161/321/149 158/373/149
f 132/385/150 156/388/150 131/389/150
f 37/76/151 172/377/151 175/320/151
f 148/390/152 189/391/152 149/386/152
f 131/389/153 181/392/153 140/311/153
f 38/81/154 173/393/154 36/73/154
f 147/323/155 188/394/155 148/390/155
f 29/62/156 160/383/156 163/314/156
f 199/131/157 191/128/157 270/127/157
f 261/395/158 194/396/158 193/397/158
f 201/398/159 195/211/159 252/399/159
f 202/400/160 197/175/160 243/183/160
f 269/138/161 199/131/161 270/127/161
f 260/401/162 200/118/162 261/395/162
f 205/402/163 252/399/163 251/403/163
f 206/404/164 243/183/164 242/182/164
f 268/154/165 203/405/165 269/146/165
f 259/406/166 204/407/166 260/408/166
f 250/409/167 205/410/167 251/411/167
f 210/202/168 242/412/168 241/413/168
f 267/158/169 207/414/169 268/154/169
f 258/415/170 208/214/170 259/406/170
f 213/207/171 250/409/171 249/416/171
f 240/417/172 210/202/172 241/413/172
f 266/418/173 211/419/173 267/158/173
f 216/193/174 258/415/174 257/420/174
f 248/421/175 213/207/175 249/416/175
f 218/179/176 240/417/176 239/422/176
f 265/423/177 215/424/177 266/163/177
f 220/166/178 257/425/178 256/426/178
f 247/427/179 217/185/179 248/428/179
f 222/156/180 239/429/180 238/430/180
f 223/431/181 265/169/181 264/168/181
f 224/432/182 256/122/182 255/121/182
f 246/433/183 221/434/183 247/435/183
f 237/436/184 222/156/184 238/430/184
f 227/437/185 264/168/185 263/173/185
f 228/438/186 255/121/186 254/133/186
f 229/439/187 246/433/187 245/440/187
f 236/441/188 226/442/188 237/443/188
f 231/444/189 263/173/189 262/445/189
f 232/446/190 254/133/190 253/447/190
f 244/448/191 229/439/191 245/440/191
f 235/449/192 230/450/192 236/441/192
f 192/130/193 262/187/193 191/128/193
f 194/396/194 253/451/194 193/397/194
f 196/452/195 244/453/195 195/211/195
f 197/175/196 234/454/196 235/455/196
f 62/456/197 223/431/197 227/437/197
f 116/457/198 256/426/198 257/425/198
f 53/458/199 201/459/199 88/460/199
f 65/461/200 228/438/200 61/462/200
f 117/463/201 257/420/201 258/415/201
f 54/217/202 202/400/202 87/464/202
f 64/136/203 229/465/203 60/466/203
f 117/463/204 259/406/204 118/467/204
f 90/129/205 203/468/205 86/469/205
f 102/470/206 195/211/206 244/453/206
f 63/471/207 230/450/207 59/472/207
f 118/467/208 260/408/208 119/473/208
f 89/119/209 204/474/209 85/475/209
f 102/476/210 245/440/210 103/477/210
f 58/478/211 227/437/211 231/444/211
f 120/479/212 260/401/212 261/395/212
f 84/480/213 201/459/213 205/481/213
f 104/482/214 245/440/214 246/433/214
f 57/483/215 228/484/215 232/485/215
f 120/479/216 193/397/216 111/486/216
f 87/464/217 206/404/217 83/487/217
f 105/488/218 246/489/218 247/490/218
f 60/466/219 233/491/219 56/492/219
f 86/493/220 207/414/220 82/494/220
f 106/495/221 247/427/221 248/428/221
f 55/496/222 230/497/222 234/498/222
f 81/499/223 204/500/223 208/501/223
f 106/502/224 249/416/224 107/503/224
f 51/504/225 231/505/225 192/130/225
f 80/506/226 205/481/226 209/507/226
f 107/503/227 250/409/227 108/508/227
f 91/509/228 235/510/228 92/511/228
f 52/117/229 232/512/229 194/396/229
f 79/513/230 206/514/230 210/515/230
f 108/516/231 251/517/231 109/518/231
f 92/511/232 236/519/232 93/520/232
f 53/458/233 233/491/233 196/521/233
f 78/196/234 207/414/234 211/419/234
f 110/210/235 251/403/235 252/399/235
f 93/520/236 237/209/236 94/522/236
f 299/523/237 323/524/237 298/525/237
f 289/526/238 325/527/238 330/528/238
f 286/529/239 322/530/239 335/531/239
f 291/532/240 323/533/240 321/534/240
f 272/535/241 303/536/241 273/537/241
f 271/538/242 302/539/242 272/540/242
f 358/541/20 292/542/20 361/543/20
f 361/543/20 293/544/20 363/545/20
f 294/546/20 363/545/20 293/544/20
f 367/547/20 294/546/20 295/548/20
f 369/549/20 295/548/20 296/550/20
f 371/551/20 296/550/20 374/552/20
f 347/553/243 353/554/243 373/555/243
f 366/556/20 280/557/20 279/558/20
f 346/559/244 373/555/244 359/560/244
f 347/553/245 349/561/245 348/562/245
f 281/563/20 359/560/20 283/564/20
f 352/565/246 307/566/246 308/567/246
f 271/568/20 293/544/20 292/542/20
f 273/569/20 293/544/20 272/570/20
f 273/569/20 295/548/20 294/546/20
f 275/571/20 295/548/20 274/572/20
f 306/573/247 355/574/247 357/575/247
f 275/576/248 305/577/248 309/578/248
f 360/579/20 283/564/20 359/560/20
f 346/559/249 282/580/249 349/561/249
f 364/581/20 279/558/20 278/582/20
f 349/561/250 351/583/250 348/562/250
f 274/584/251 303/536/251 305/585/251
f 348/562/252 343/586/252 344/587/252
f 309/588/253 315/589/253 314/590/253
f 306/591/254 331/592/254 304/593/254
f 307/594/255 318/595/255 308/596/255
f 305/585/256 316/597/256 315/589/256
f 308/596/257 317/598/257 302/599/257
f 301/600/258 331/592/258 333/601/258
f 310/602/259 314/590/259 313/603/259
f 302/599/260 316/597/260 303/536/260
f 307/594/261 333/601/261 319/604/261
f 310/602/262 332/605/262 306/591/262
f 290/606/263 337/607/263 341/608/263
f 335/609/20 313/603/20 286/610/20
f 286/610/20 314/590/20 287/611/20
f 287/611/20 315/589/20 291/532/20
f 291/532/20 316/597/20 298/612/20
f 299/613/20 316/597/20 317/598/20
f 288/614/20 317/598/20 318/595/20
f 289/615/20 318/595/20 319/604/20
f 336/616/20 319/604/20 333/601/20
f 290/606/264 339/617/264 312/618/264
f 324/619/20 326/620/20 325/621/20
f 321/622/20 327/623/20 328/624/20
f 330/625/20 326/620/20 329/626/20
f 321/622/20 324/619/20 322/627/20
f 286/529/265 328/628/265 327/629/265
f 336/630/266 324/631/266 325/527/266
f 288/632/267 326/633/267 299/523/267
f 287/634/268 321/635/268 328/628/268
f 335/636/269 324/637/269 334/638/269
f 289/526/270 329/639/270 288/640/270
f 311/641/20 332/605/20 312/642/20
f 311/641/20 333/601/20 331/592/20
f 297/643/20 335/609/20 334/644/20
f 297/643/20 336/616/20 300/645/20
f 290/646/20 332/605/20 335/609/20
f 300/645/20 333/601/20 320/647/20
f 341/648/20 338/649/20 339/650/20
f 342/651/20 338/649/20 337/652/20
f 312/653/271 338/654/271 311/655/271
f 300/656/272 340/657/272 342/658/272
f 300/659/273 337/660/273 297/661/273
f 320/662/274 338/663/274 340/657/274
f 304/664/275 343/665/275 306/573/275
f 304/593/276 345/666/276 344/667/276
f 351/583/277 355/668/277 343/586/277
f 275/571/20 374/552/20 296/550/20
f 282/580/278 350/669/278 349/561/278
f 356/670/279 309/588/279 310/602/279
f 362/671/20 276/672/20 360/579/20
f 345/673/280 348/562/280 344/587/280
f 370/674/20 284/675/20 285/676/20
f 364/581/20 277/677/20 362/671/20
f 375/678/281 350/669/281 370/674/281
f 307/566/282 353/679/282 345/680/282
f 368/681/20 285/676/20 280/557/20
f 352/682/283 353/683/283 354/684/283
f 355/685/284 356/670/284 357/686/284
f 370/687/285 381/688/285 375/689/285
f 365/690/286 391/691/286 363/692/286
f 372/693/287 376/694/287 352/695/287
f 368/696/288 386/697/288 384/698/288
f 361/699/289 395/700/289 358/701/289
f 369/702/290 383/703/290 385/704/290
f 359/705/291 397/706/291 394/707/291
f 362/708/292 388/709/292 364/710/292
f 356/711/293 378/712/293 379/713/293
f 372/693/294 395/700/294 396/714/294
f 271/568/20 372/715/20 352/716/20
f 382/717/295 380/718/295 381/688/295
f 382/717/20 385/704/20 383/703/20
f 384/698/20 387/719/20 385/704/20
f 386/697/20 389/720/20 387/719/20
f 390/721/20 389/720/20 388/709/20
f 392/722/20 391/691/20 390/721/20
f 394/707/20 393/723/20 392/722/20
f 376/694/296 397/706/296 377/724/296
f 381/688/297 379/713/297 378/712/297
f 396/714/298 394/707/298 397/706/298
f 360/725/299 390/721/299 362/708/299
f 367/726/300 385/704/300 387/719/300
f 373/727/301 377/724/301 397/706/301
f 352/695/302 377/724/302 353/728/302
f 366/729/303 388/709/303 386/697/303
f 375/689/304 378/712/304 355/730/304
f 374/731/305 383/703/305 371/732/305
f 363/692/306 393/723/306 361/699/306
f 374/731/307 379/713/307 380/718/307
f 370/687/308 384/698/308 382/717/308
f 359/705/309 392/722/309 360/725/309
f 365/690/310 387/719/310 389/720/310
f 59/733/311 144/734/311 63/735/311
f 63/736/312 145/737/312 67/738/312
f 148/739/313 83/740/313 79/741/313
f 142/742/314 59/733/314 55/743/314
f 142/744/315 54/745/315 141/746/315
f 145/737/316 71/747/316 67/738/316
f 149/748/317 87/749/317 83/750/317
f 147/751/318 79/741/318 75/752/318
f 146/753/319 75/752/319 71/754/319
f 87/749/320 141/746/320 54/745/320
f 136/1/321 137/10/321 174/2/321
f 33/4/322 31/66/322 166/5/322
f 141/7/323 155/382/323 182/8/323
f 137/10/324 138/17/324 177/11/324
f 40/12/325 24/26/325 154/13/325
f 143/15/326 142/9/326 182/8/326
f 138/17/327 139/312/327 180/18/327
f 21/19/328 39/80/328 178/20/328
f 4/22/9 281/46/9 283/23/9
f 23/25/329 153/374/329 154/13/329
f 30/27/330 32/67/330 167/28/330
f 13/30/12 45/755/12 41/31/12
f 18/33/13 285/756/13 284/34/13
f 5/36/14 47/97/14 44/37/14
f 10/39/15 277/112/15 278/40/15
f 19/42/16 46/757/16 50/43/16
f 2/45/17 282/758/17 281/46/17
f 11/32/18 41/31/18 43/47/18
f 1/49/19 21/19/19 22/50/19
f 4/52/20 23/25/20 24/26/20
f 3/51/19 22/50/19 25/54/19
f 6/56/20 26/60/20 23/25/20
f 5/55/19 25/54/19 27/57/19
f 8/59/20 28/64/20 26/60/20
f 9/61/19 7/58/19 27/57/19
f 10/63/20 30/27/20 28/64/20
f 11/65/19 9/61/19 29/62/19
f 10/63/20 12/70/20 32/67/20
f 11/65/19 31/66/19 33/4/19
f 14/69/20 34/74/20 32/67/20
f 13/68/19 33/4/19 35/71/19
f 14/69/20 16/78/20 36/73/20
f 17/75/19 15/72/19 35/71/19
f 18/77/20 38/81/20 36/73/20
f 19/79/19 17/75/19 37/76/19
f 18/77/20 20/82/20 40/12/20
f 1/49/19 19/79/19 39/80/19
f 20/82/20 2/53/20 24/26/20
f 41/83/19 45/89/19 46/84/19
f 42/85/19 44/759/19 43/86/19
f 43/86/19 44/759/19 47/87/19
f 45/89/19 49/760/19 50/90/19
f 1/91/21 42/761/21 46/92/21
f 12/41/22 278/40/22 279/94/22
f 7/96/23 48/762/23 47/97/23
f 20/35/24 284/34/24 282/98/24
f 15/100/25 49/110/25 45/101/25
f 6/24/23 283/23/23 276/103/23
f 14/105/26 279/763/26 280/106/26
f 9/48/27 43/47/27 48/108/27
f 17/44/28 50/43/28 49/110/28
f 8/111/29 276/764/29 277/112/29
f 3/38/30 44/37/30 42/113/30
f 16/107/28 280/106/28 285/115/28
f 52/117/331 194/396/331 200/118/331
f 115/120/332 114/132/332 255/121/332
f 67/123/333 222/156/333 226/124/333
f 130/126/334 129/137/334 270/127/334
f 90/129/335 51/504/335 192/130/335
f 114/132/336 113/765/336 254/133/336
f 68/134/337 221/766/337 225/135/337
f 129/137/338 128/767/338 269/138/338
f 112/139/339 253/149/339 254/140/339
f 69/142/340 220/166/340 224/143/340
f 127/145/341 268/154/341 269/146/341
f 112/139/342 111/768/342 193/148/342
f 66/150/343 70/171/343 219/151/343
f 126/153/344 267/158/344 268/154/344
f 67/123/345 71/769/345 218/155/345
f 125/157/346 266/418/346 267/158/346
f 72/159/347 217/185/347 221/160/347
f 124/162/348 265/423/348 266/163/348
f 73/165/349 216/770/349 220/166/349
f 124/167/350 123/172/350 264/168/350
f 74/170/351 215/424/351 219/151/351
f 123/172/352 122/181/352 263/173/352
f 100/174/353 243/183/353 197/175/353
f 71/177/354 75/201/354 214/178/354
f 121/180/355 262/445/355 263/173/355
f 100/174/356 99/771/356 242/182/356
f 72/159/357 76/772/357 213/184/357
f 121/186/358 130/126/358 191/128/358
f 99/188/359 98/195/359 241/189/359
f 73/191/360 77/213/360 212/192/360
f 97/194/361 240/200/361 241/189/361
f 78/196/362 211/419/362 215/197/362
f 97/194/363 96/203/363 239/199/363
f 75/201/364 79/773/364 210/202/364
f 96/203/365 95/208/365 238/204/365
f 76/205/366 80/774/366 209/206/366
f 95/208/367 94/522/367 237/209/367
f 110/210/368 252/399/368 195/211/368
f 77/213/369 81/775/369 208/214/369
f 55/215/370 234/454/370 198/216/370
f 53/218/371 91/776/371 92/219/371
f 56/221/372 92/777/372 93/222/372
f 60/223/73 93/222/73 94/224/73
f 64/226/373 94/778/373 95/227/373
f 95/227/374 96/779/374 72/229/374
f 72/230/375 96/780/375 97/231/375
f 76/232/376 97/231/376 98/233/376
f 98/233/78 99/781/78 84/235/78
f 99/236/377 100/239/377 88/237/377
f 100/239/378 91/776/378 53/218/378
f 101/240/379 102/782/379 57/241/379
f 57/243/380 102/783/380 103/244/380
f 103/244/28 104/247/28 65/246/28
f 104/247/83 105/784/83 69/248/83
f 69/249/381 105/785/381 106/250/381
f 73/252/382 106/786/382 107/253/382
f 107/253/86 108/256/86 81/255/86
f 108/256/23 109/787/23 85/257/23
f 109/258/383 110/261/383 89/259/383
f 110/261/384 101/240/384 52/242/384
f 51/262/385 111/285/385 112/263/385
f 112/265/386 113/268/386 62/266/386
f 113/268/91 114/270/91 66/269/91
f 114/270/387 115/788/387 70/271/387
f 115/272/388 116/789/388 74/273/388
f 116/275/389 117/790/389 78/276/389
f 78/276/390 117/790/390 118/278/390
f 82/279/96 118/278/96 119/280/96
f 86/282/391 119/791/391 120/283/391
f 90/284/392 120/283/392 111/285/392
f 130/286/393 121/792/393 131/287/393
f 121/289/394 122/292/394 132/290/394
f 122/292/28 123/294/28 133/293/28
f 123/294/395 124/793/395 134/295/395
f 134/296/396 124/794/396 125/297/396
f 135/299/397 125/795/397 126/300/397
f 136/301/398 126/300/398 127/302/398
f 137/303/23 127/302/23 128/304/23
f 138/306/399 128/796/399 129/307/399
f 129/307/400 130/286/400 140/288/400
f 144/309/401 143/15/401 183/16/401
f 140/311/402 181/392/402 180/18/402
f 21/19/403 151/21/403 152/313/403
f 31/66/404 29/62/404 163/314/404
f 145/315/405 144/309/405 184/310/405
f 40/12/406 179/14/406 176/317/406
f 146/318/407 145/315/407 185/316/407
f 39/80/408 37/76/408 175/320/408
f 28/64/409 30/27/409 164/29/409
f 146/318/410 186/319/410 187/322/410
f 154/324/411 153/797/411 182/325/411
f 182/327/412 153/798/412 158/328/412
f 183/329/413 158/328/413 161/330/413
f 184/332/414 161/799/414 164/333/414
f 185/334/415 164/333/415 167/335/415
f 167/337/416 170/340/416 187/338/416
f 170/340/417 173/342/417 188/341/417
f 173/342/418 176/800/418 189/343/418
f 176/344/419 179/801/419 190/345/419
f 190/345/420 179/801/420 154/324/420
f 180/347/421 181/368/421 151/348/421
f 175/350/422 177/802/422 180/347/422
f 172/351/423 174/355/423 177/352/423
f 169/354/424 171/357/424 174/355/424
f 166/356/425 168/803/425 171/357/425
f 163/358/426 165/804/426 168/359/426
f 162/361/427 165/805/427 163/362/427
f 159/364/428 162/361/428 160/363/428
f 156/366/429 159/364/429 157/365/429
f 181/368/430 156/806/430 152/369/430
f 34/74/431 170/380/431 167/28/431
f 22/50/432 152/313/432 157/370/432
f 135/371/433 136/1/433 171/3/433
f 23/25/434 26/60/434 158/373/434
f 134/375/435 135/371/435 168/372/435
f 35/71/436 33/4/436 169/6/436
f 134/375/437 165/376/437 162/378/437
f 36/73/438 173/393/438 170/380/438
f 141/7/439 150/387/439 190/381/439
f 25/54/440 157/370/440 160/383/440
f 133/379/441 162/378/441 159/384/441
f 149/386/442 189/391/442 190/381/442
f 26/60/443 28/64/443 161/321/443
f 132/385/444 159/384/444 156/388/444
f 37/76/445 35/71/445 172/377/445
f 148/390/446 188/394/446 189/391/446
f 131/389/447 156/388/447 181/392/447
f 38/81/448 176/317/448 173/393/448
f 147/323/449 187/322/449 188/394/449
f 29/62/450 27/57/450 160/383/450
f 199/131/451 192/130/451 191/128/451
f 261/395/452 200/118/452 194/396/452
f 201/398/453 196/452/453 195/211/453
f 202/400/454 198/216/454 197/175/454
f 269/138/455 203/468/455 199/131/455
f 260/401/456 204/474/456 200/118/456
f 205/402/457 201/398/457 252/399/457
f 206/404/458 202/400/458 243/183/458
f 268/154/459 207/414/459 203/405/459
f 259/406/460 208/214/460 204/407/460
f 250/409/461 209/206/461 205/410/461
f 210/202/462 206/807/462 242/412/462
f 267/158/463 211/419/463 207/414/463
f 258/415/464 212/192/464 208/214/464
f 213/207/465 209/206/465 250/409/465
f 240/417/466 214/178/466 210/202/466
f 266/418/467 215/197/467 211/419/467
f 216/193/468 212/192/468 258/415/468
f 248/421/469 217/808/469 213/207/469
f 218/179/470 214/178/470 240/417/470
f 265/423/471 219/151/471 215/424/471
f 220/166/472 216/770/472 257/425/472
f 247/427/473 221/160/473 217/185/473
f 222/156/474 218/155/474 239/429/474
f 223/431/475 219/809/475 265/169/475
f 224/432/476 220/810/476 256/122/476
f 246/433/477 225/811/477 221/434/477
f 237/436/478 226/124/478 222/156/478
f 227/437/479 223/431/479 264/168/479
f 228/438/480 224/432/480 255/121/480
f 229/439/481 225/811/481 246/433/481
f 236/441/482 230/450/482 226/442/482
f 231/444/483 227/437/483 263/173/483
f 232/446/484 228/438/484 254/133/484
f 244/448/485 233/812/485 229/439/485
f 235/449/486 234/813/486 230/450/486
f 192/130/487 231/505/487 262/187/487
f 194/396/488 232/512/488 253/451/488
f 196/452/489 233/814/489 244/453/489
f 197/175/490 198/216/490 234/454/490
f 62/456/491 66/815/491 223/431/491
f 116/457/492 115/816/492 256/426/492
f 53/458/493 196/521/493 201/459/493
f 65/461/494 224/432/494 228/438/494
f 117/463/495 116/817/495 257/420/495
f 54/217/496 198/216/496 202/400/496
f 64/136/497 225/135/497 229/465/497
f 117/463/498 258/415/498 259/406/498
f 90/129/499 199/131/499 203/468/499
f 102/470/500 101/212/500 195/211/500
f 63/471/501 226/442/501 230/450/501
f 118/467/502 259/406/502 260/408/502
f 89/119/503 200/118/503 204/474/503
f 102/476/504 244/448/504 245/440/504
f 58/478/505 62/456/505 227/437/505
f 120/479/506 119/818/506 260/401/506
f 84/480/507 88/460/507 201/459/507
f 104/482/508 103/477/508 245/440/508
f 57/483/509 61/819/509 228/484/509
f 120/479/510 261/395/510 193/397/510
f 87/464/511 202/400/511 206/404/511
f 105/488/512 104/820/512 246/489/512
f 60/466/513 229/465/513 233/491/513
f 86/493/514 203/405/514 207/414/514
f 106/495/515 105/821/515 247/427/515
f 55/496/516 59/822/516 230/497/516
f 81/499/517 85/823/517 204/500/517
f 106/502/518 248/421/518 249/416/518
f 51/504/519 58/824/519 231/505/519
f 80/506/520 84/480/520 205/481/520
f 107/503/521 249/416/521 250/409/521
f 91/509/522 197/825/522 235/510/522
f 52/117/523 57/826/523 232/512/523
f 79/513/524 83/827/524 206/514/524
f 108/516/525 250/828/525 251/517/525
f 92/511/526 235/510/526 236/519/526
f 53/458/527 56/492/527 233/491/527
f 78/196/528 82/494/528 207/414/528
f 110/210/529 109/829/529 251/403/529
f 93/520/530 236/519/530 237/209/530
f 299/523/531 326/633/531 323/524/531
f 289/526/238 336/630/238 325/527/238
f 286/529/239 327/629/239 322/530/239
f 291/532/240 298/612/240 323/533/240
f 272/535/532 302/599/532 303/536/532
f 271/538/533 308/567/533 302/539/533
f 358/541/20 372/715/20 292/542/20
f 361/543/20 292/542/20 293/544/20
f 294/546/20 365/830/20 363/545/20
f 367/547/20 365/830/20 294/546/20
f 369/549/20 367/547/20 295/548/20
f 371/551/20 369/549/20 296/550/20
f 347/553/534 345/673/534 353/554/534
f 366/556/20 368/681/20 280/557/20
f 346/559/535 347/553/535 373/555/535
f 347/553/536 346/559/536 349/561/536
f 281/563/537 346/559/537 359/560/537
f 308/567/538 271/538/538 352/565/538
f 352/565/539 354/831/539 307/566/539
f 271/568/20 272/570/20 293/544/20
f 273/569/20 294/546/20 293/544/20
f 273/569/20 274/572/20 295/548/20
f 275/571/20 296/550/20 295/548/20
f 357/575/540 310/832/540 306/573/540
f 306/573/541 343/665/541 355/574/541
f 275/576/542 274/833/542 305/577/542
f 360/579/20 276/672/20 283/564/20
f 346/559/543 281/563/543 282/580/543
f 364/581/20 366/556/20 279/558/20
f 349/561/544 350/669/544 351/583/544
f 274/584/545 273/537/545 303/536/545
f 348/562/546 351/583/546 343/586/546
f 309/588/547 305/585/547 315/589/547
f 306/591/548 332/605/548 331/592/548
f 307/594/549 319/604/549 318/595/549
f 305/585/550 303/536/550 316/597/550
f 308/596/551 318/595/551 317/598/551
f 301/600/552 304/593/552 331/592/552
f 310/602/553 309/588/553 314/590/553
f 302/599/554 317/598/554 316/597/554
f 307/594/555 301/600/555 333/601/555
f 310/602/556 313/603/556 332/605/556
f 290/606/263 297/834/263 337/607/263
f 335/609/20 332/605/20 313/603/20
f 286/610/20 313/603/20 314/590/20
f 287/611/20 314/590/20 315/589/20
f 291/532/20 315/589/20 316/597/20
f 299/613/20 298/612/20 316/597/20
f 288/614/20 299/613/20 317/598/20
f 289/615/20 288/614/20 318/595/20
f 336/616/20 289/615/20 319/604/20
f 290/606/264 341/608/264 339/617/264
f 324/619/20 323/835/20 326/620/20
f 321/622/20 322/627/20 327/623/20
f 330/625/20 325/621/20 326/620/20
f 321/622/20 323/835/20 324/619/20
f 286/529/265 287/634/265 328/628/265
f 336/630/266 334/836/266 324/631/266
f 288/632/557 329/837/557 326/633/557
f 287/634/558 291/838/558 321/635/558
f 335/636/269 322/839/269 324/637/269
f 289/526/559 330/528/559 329/639/559
f 311/641/20 331/592/20 332/605/20
f 311/641/20 320/647/20 333/601/20
f 297/643/20 290/646/20 335/609/20
f 297/643/20 334/644/20 336/616/20
f 290/646/20 312/642/20 332/605/20
f 300/645/20 336/616/20 333/601/20
f 341/648/20 337/652/20 338/649/20
f 342/651/20 340/840/20 338/649/20
f 312/653/271 339/841/271 338/654/271
f 300/656/272 320/662/272 340/657/272
f 300/659/273 342/842/273 337/660/273
f 320/662/560 311/843/560 338/663/560
f 304/664/561 344/844/561 343/665/561
f 304/593/562 301/600/562 345/666/562
f 351/583/563 375/678/563 355/668/563
f 275/571/20 356/845/20 374/552/20
f 282/580/564 284/675/564 350/669/564
f 310/602/565 357/686/565 356/670/565
f 356/670/566 275/846/566 309/588/566
f 362/671/20 277/677/20 276/672/20
f 345/673/567 347/553/567 348/562/567
f 370/674/568 350/669/568 284/675/568
f 364/581/20 278/582/20 277/677/20
f 375/678/569 351/583/569 350/669/569
f 345/680/570 301/847/570 307/566/570
f 307/566/571 354/831/571 353/679/571
f 368/681/20 370/674/20 285/676/20
f 370/687/572 382/717/572 381/688/572
f 365/690/573 389/720/573 391/691/573
f 372/693/574 396/714/574 376/694/574
f 368/696/575 366/729/575 386/697/575
f 361/699/576 393/723/576 395/700/576
f 369/702/577 371/732/577 383/703/577
f 359/705/578 373/727/578 397/706/578
f 362/708/579 390/721/579 388/709/579
f 356/711/580 355/730/580 378/712/580
f 372/693/581 358/701/581 395/700/581
f 271/568/20 292/542/20 372/715/20
f 382/717/20 383/703/20 380/718/20
f 382/717/20 384/698/20 385/704/20
f 384/698/20 386/697/20 387/719/20
f 386/697/20 388/709/20 389/720/20
f 390/721/20 391/691/20 389/720/20
f 392/722/20 393/723/20 391/691/20
f 394/707/20 395/700/20 393/723/20
f 376/694/582 396/714/582 397/706/582
f 381/688/583 380/718/583 379/713/583
f 396/714/20 395/700/20 394/707/20
f 360/725/584 392/722/584 390/721/584
f 367/726/585 369/702/585 385/704/585
f 373/727/586 353/728/586 377/724/586
f 352/695/587 376/694/587 377/724/587
f 366/729/588 364/710/588 388/709/588
f 375/689/589 381/688/589 378/712/589
f 374/731/590 380/718/590 383/703/590
f 363/692/591 391/691/591 393/723/591
f 374/731/592 356/711/592 379/713/592
f 370/687/593 368/696/593 384/698/593
f 359/705/594 394/707/594 392/722/594
f 365/690/595 367/726/595 387/719/595
f 59/733/311 143/848/311 144/734/311
f 63/736/596 144/849/596 145/737/596
f 148/739/313 149/850/313 83/740/313
f 142/742/597 143/848/597 59/733/597
f 142/744/598 55/851/598 54/745/598
f 145/737/599 146/852/599 71/747/599
f 149/748/600 150/853/600 87/749/600
f 147/751/601 148/739/601 79/741/601
f 146/753/602 147/751/602 75/752/602
f 87/749/603 150/853/603 141/746/603
