# Blender 4.2.0
# www.blender.org
mtllib cooking_pot_shotdamaged.mtl
g cooking_pot_shotdamaged_Mesh
v 0.000288 -0.000000 -0.124724
v 0.041082 0.189226 -0.170522
v 0.075114 -0.000000 -0.100412
v 0.101767 0.190778 -0.137096
v 0.121359 -0.000000 -0.036761
v 0.164484 0.190778 -0.050774
v 0.121359 -0.000000 0.041915
v 0.167003 0.200715 0.059492
v 0.075114 -0.000000 0.105566
v -0.062544 0.026480 0.142506
v 0.000288 -0.000000 0.129878
v -0.009929 0.189375 0.172487
v -0.074537 -0.000000 0.105566
v -0.108594 0.194185 0.130199
v -0.120782 -0.000000 0.041915
v -0.158949 0.192401 0.059118
v -0.120782 -0.000000 -0.036761
v -0.163907 0.190778 -0.050774
v -0.074537 -0.000000 -0.100412
v -0.094230 0.183662 -0.143695
v 0.000288 0.026480 -0.157767
v 0.094536 0.026480 -0.127144
v 0.152785 0.026480 -0.046972
v 0.152785 0.026480 0.052126
v 0.094536 0.026480 0.132298
v 0.000288 0.026480 0.162921
v -0.093959 0.026480 0.132298
v -0.152208 0.026480 0.052126
v -0.152208 0.026480 -0.046972
v -0.093959 0.026480 -0.127144
v 0.000288 0.101656 -0.175399
v 0.003949 0.114266 -0.172817
v 0.103382 0.139594 -0.139319
v 0.104900 0.101656 -0.141408
v 0.167097 0.139594 -0.051623
v 0.169553 0.101656 -0.052421
v 0.167097 0.139594 0.056776
v 0.169553 0.101656 0.057574
v 0.114756 0.138592 0.127553
v 0.104900 0.129752 0.146562
v 0.000288 0.145710 0.177970
v 0.012844 0.143743 0.180552
v -0.102805 0.139594 0.144473
v -0.104323 0.101656 0.146562
v -0.166521 0.139594 0.056776
v -0.168976 0.101656 0.057574
v -0.166521 0.139594 -0.051623
v -0.168976 0.101656 -0.052421
v -0.080348 0.130809 -0.159255
v -0.104323 0.101656 -0.141408
v 0.107988 0.190778 -0.145659
v 0.039532 0.189219 -0.180991
v 0.173447 0.183915 -0.007880
v 0.173447 0.183915 0.013034
v -0.031128 0.026480 0.152713
v -0.009929 0.189375 0.183071
v -0.114814 0.194185 0.138761
v -0.172870 0.183915 0.013034
v -0.172870 0.183915 -0.007880
v -0.104708 0.185761 -0.148288
v 0.000288 0.035406 -0.132479
v 0.000288 0.035406 0.137633
v -0.079095 0.035406 -0.106686
v -0.079095 0.035406 0.111839
v 0.079672 0.035406 -0.106686
v 0.079672 0.035406 0.111839
v 0.128734 0.035406 -0.039158
v 0.128734 0.035406 0.044311
v -0.128157 0.035406 0.044311
v -0.128157 0.035406 -0.039158
v 0.002355 0.149076 -0.175773
v 0.105120 0.161915 -0.141712
v 0.171013 0.168778 -0.007701
v 0.171013 0.168778 0.012856
v 0.125827 0.161915 0.125100
v -0.007901 0.165597 0.180927
v -0.104543 0.161915 0.146865
v -0.170436 0.168778 0.012856
v -0.170436 0.168778 -0.007701
v -0.102300 0.148639 -0.152315
v -0.066348 0.122815 -0.139985
v 0.144444 0.131601 0.049416
v 0.144444 0.131601 -0.044262
v 0.003949 0.106272 -0.148998
v -0.088805 0.131601 0.125203
v -0.143868 0.131601 0.049416
v 0.100756 0.130599 0.108283
v 0.089382 0.131601 -0.120049
v -0.143868 0.131601 -0.044262
v 0.000288 0.147938 0.154151
v 0.103102 0.064068 -0.138934
v 0.166645 0.064068 -0.051476
v 0.166645 0.064068 0.056629
v 0.103102 0.064068 0.144088
v 0.000288 0.064068 0.177494
v -0.102525 0.064068 0.144088
v -0.166068 0.064068 0.056629
v -0.166068 0.064068 -0.051476
v -0.102525 0.064068 -0.138934
v 0.000288 0.064068 -0.172341
v 0.177069 0.200715 0.062763
v 0.174550 0.190778 -0.054044
v -0.173973 0.190778 -0.054044
v -0.169015 0.192401 0.062389
v 0.169910 0.161915 -0.052536
v 0.169910 0.161915 0.057690
v -0.169333 0.161915 0.057690
v -0.169333 0.161915 -0.052536
v 0.152785 0.026480 0.002577
v 0.174550 0.190778 0.002577
v -0.152208 0.026480 0.002577
v -0.173973 0.190778 0.002577
v 0.000288 -0.000000 0.002577
v -0.074537 -0.000000 0.002577
v 0.075114 -0.000000 0.002577
v 0.121359 -0.000000 0.002577
v -0.120782 -0.000000 0.002577
v -0.168976 0.101656 0.002577
v -0.166521 0.139594 0.002577
v 0.169553 0.101656 0.002577
v 0.167097 0.139594 0.002577
v 0.164484 0.190778 0.002577
v -0.163907 0.190778 0.002577
v 0.000288 0.035406 0.002577
v -0.079095 0.035406 0.002577
v 0.079672 0.035406 0.002577
v 0.128734 0.035406 0.002577
v -0.128157 0.035406 0.002577
v -0.169333 0.161915 0.002577
v 0.169910 0.161915 0.002577
v -0.143868 0.131601 0.002577
v 0.144444 0.131601 0.002577
v 0.166645 0.064068 0.002577
v -0.166068 0.064068 0.002577
v 0.173447 0.185300 0.002577
v -0.172870 0.185300 0.002577
v -0.170436 0.167394 0.002577
v 0.171013 0.167394 0.002577
v 0.024360 0.165841 -0.172157
v 0.106554 0.176347 -0.143685
v 0.172230 0.176347 -0.053290
v 0.172230 0.179589 0.079361
v 0.127261 0.176347 0.127074
v -0.004742 0.180028 0.183367
v -0.122756 0.173906 0.129208
v -0.170496 0.173097 0.062407
v -0.171653 0.176347 -0.053290
v -0.094369 0.168065 -0.159598
v 0.172230 0.176347 -0.011147
v 0.172230 0.176347 0.016301
v -0.171653 0.176347 0.016301
v -0.171653 0.176347 -0.011147
v 0.189766 0.184550 0.002577
v 0.189811 0.183582 -0.004585
v -0.189189 0.184550 0.002577
v -0.189234 0.183582 0.009739
v 0.188780 0.177330 -0.007433
v 0.187750 0.171099 -0.004748
v 0.188780 0.177330 0.012587
v 0.187750 0.171099 0.009902
v -0.188203 0.177330 0.012587
v -0.187173 0.171099 0.009902
v -0.188203 0.177330 -0.007433
v -0.187173 0.171099 -0.004748
v -0.187220 0.170126 0.002577
v 0.187796 0.170126 0.002577
v 0.189811 0.183582 0.009739
v -0.189234 0.183582 -0.004585
v -0.188204 0.177339 0.002577
v 0.188781 0.177339 0.002577
v 0.182984 0.186293 0.002577
v 0.182983 0.184908 -0.007698
v -0.182407 0.186293 0.002577
v -0.182406 0.184908 0.012852
v 0.181767 0.177339 -0.011147
v 0.180549 0.169771 -0.007885
v 0.181767 0.177339 0.016301
v 0.180549 0.169771 0.013039
v -0.181190 0.177339 0.016301
v -0.179973 0.169771 0.013039
v -0.181190 0.177339 -0.011147
v -0.179973 0.169771 -0.007885
v -0.179973 0.168386 0.002577
v 0.180550 0.168386 0.002577
v 0.182983 0.184908 0.012852
v -0.182406 0.184908 -0.007698
v -0.083950 0.083503 -0.113368
v 0.136589 0.083503 -0.041710
v -0.083950 0.083503 0.118521
v 0.136589 0.083503 0.046864
v 0.000288 0.083503 -0.140738
v -0.136012 0.083503 0.046864
v 0.084527 0.119325 0.118521
v 0.084527 0.083503 -0.113368
v -0.136012 0.083503 -0.041710
v 0.012844 0.140367 0.145892
v -0.136012 0.083503 0.002577
v 0.136589 0.083503 0.002577
v 0.151124 0.151327 0.051586
v 0.157804 0.174294 0.074674
v 0.003949 0.146081 -0.156021
v 0.024954 0.160819 -0.156908
v 0.114217 0.151327 0.109121
v 0.118345 0.171052 0.114803
v 0.093510 0.151327 -0.125732
v 0.097639 0.171052 -0.131414
v 0.157804 0.171052 -0.048603
v 0.151124 0.151327 -0.046433
v 0.157804 0.171052 0.002577
v 0.151124 0.151327 0.002577
v -0.150548 0.151327 0.051586
v -0.156071 0.167803 0.057720
v -0.150548 0.151327 -0.046433
v -0.157228 0.171052 -0.048603
v -0.007901 0.155008 0.161175
v -0.004742 0.174734 0.168199
v -0.085454 0.162771 -0.147327
v -0.090690 0.138051 -0.136335
v -0.113841 0.168612 0.116937
v -0.092933 0.151327 0.130886
v -0.157228 0.171052 0.002577
v -0.150548 0.151327 0.002577
v -0.071511 0.190778 0.162477
v -0.035611 0.190778 0.174142
v -0.062544 0.026480 -0.137352
v -0.031128 0.026480 -0.147560
v -0.024653 -0.000000 0.121774
v -0.049595 -0.000000 0.113670
v -0.049595 -0.000000 -0.108516
v -0.024653 -0.000000 -0.116620
v -0.069453 0.101656 -0.152738
v -0.034582 0.101656 -0.164069
v -0.061402 0.127207 -0.155270
v -0.034076 0.137340 -0.161651
v -0.034582 0.101656 0.169222
v -0.069453 0.101656 0.157892
v -0.034076 0.139594 0.166805
v -0.068441 0.139594 0.155639
v -0.067364 0.190778 0.153241
v -0.033538 0.190778 0.164232
v -0.052634 0.035406 0.120437
v -0.026173 0.035406 0.129035
v -0.026173 0.035406 -0.123881
v -0.052634 0.035406 -0.115284
v -0.034655 0.161915 0.169573
v -0.069599 0.161915 0.158219
v -0.029409 0.131601 0.144502
v -0.059107 0.131601 0.134853
v -0.052068 0.119213 -0.134483
v -0.029409 0.129347 -0.139348
v -0.033983 0.064068 0.166359
v -0.068254 0.064068 0.155223
v -0.068254 0.064068 -0.150070
v -0.033983 0.064068 -0.161205
v -0.026173 0.035406 0.002577
v -0.052634 0.035406 0.002577
v -0.024653 -0.000000 0.002577
v -0.049595 -0.000000 0.002577
v -0.035133 0.176347 0.171857
v -0.070555 0.176347 0.160348
v -0.027791 0.083503 0.136769
v -0.055871 0.083503 0.127645
v -0.055871 0.083503 -0.122491
v -0.027791 0.083503 -0.131615
v -0.032162 0.171052 0.157655
v -0.064612 0.171052 0.147112
v -0.030786 0.151327 0.151079
v -0.061859 0.151327 0.140982
v -0.113376 0.026480 0.105574
v -0.132792 0.026480 0.078850
v -0.132792 0.026480 -0.073696
v -0.113376 0.026480 -0.100420
v -0.129598 0.190778 -0.115121
v -0.151786 0.190778 -0.084582
v -0.089952 -0.000000 0.084349
v -0.105367 -0.000000 0.063132
v -0.105367 -0.000000 -0.057978
v -0.089952 -0.000000 -0.079195
v -0.147425 0.101656 -0.082083
v -0.125874 0.101656 -0.111746
v -0.145282 0.139594 -0.080855
v -0.124044 0.139594 -0.110087
v -0.125874 0.101656 0.116900
v -0.147425 0.101656 0.087237
v -0.124044 0.139594 0.115241
v -0.145282 0.139594 0.086009
v -0.122096 0.190778 -0.108322
v -0.143002 0.190778 -0.079548
v -0.111803 0.035406 0.066821
v -0.095449 0.035406 0.089330
v -0.095449 0.035406 -0.084176
v -0.111803 0.035406 -0.061667
v -0.147736 0.161915 -0.082261
v -0.126140 0.161915 -0.111987
v -0.136916 0.161320 0.104852
v -0.148183 0.153519 0.091268
v -0.125513 0.131601 -0.069525
v -0.107159 0.131601 -0.094787
v -0.107159 0.131601 0.099941
v -0.125513 0.131601 0.074678
v -0.123706 0.064068 0.114935
v -0.144887 0.064068 0.085782
v -0.144887 0.064068 -0.080628
v -0.123706 0.064068 -0.109781
v -0.095449 0.035406 0.002577
v -0.111803 0.035406 0.002577
v -0.089952 -0.000000 0.002577
v -0.105367 -0.000000 0.002577
v -0.149761 0.176347 -0.083422
v -0.127869 0.176347 -0.113554
v -0.138646 0.175752 0.106419
v -0.150207 0.167950 0.092428
v -0.118658 0.083503 -0.065596
v -0.101304 0.083503 -0.089482
v -0.101304 0.083503 0.094635
v -0.118658 0.083503 0.070750
v -0.127893 0.170458 0.096676
v -0.137619 0.162656 0.085213
v -0.122915 0.150732 0.092164
v -0.131789 0.142930 0.081872
v -0.137172 0.171052 -0.076207
v -0.117117 0.171052 -0.103810
v -0.131343 0.151327 -0.072866
v -0.112138 0.151327 -0.099299
v 0.031704 0.026480 -0.147560
v 0.063120 0.026480 -0.137352
v 0.072088 0.190778 -0.157323
v 0.055233 0.188058 -0.168988
v 0.063120 0.026480 0.142506
v 0.031704 0.026480 0.152713
v 0.025230 -0.000000 -0.116620
v 0.050172 -0.000000 -0.108516
v 0.050172 -0.000000 0.113670
v 0.025230 -0.000000 0.121774
v 0.070029 0.143189 0.157892
v 0.035159 0.123507 0.169222
v 0.035159 0.101656 -0.164069
v 0.070029 0.101656 -0.152738
v 0.034653 0.139594 -0.161651
v 0.069017 0.139594 -0.150485
v 0.067941 0.190778 -0.148087
v 0.053159 0.188058 -0.159078
v 0.053211 0.035406 -0.115284
v 0.026750 0.035406 -0.123881
v 0.026750 0.035406 0.129035
v 0.053211 0.035406 0.120437
v 0.035232 0.151464 -0.164419
v 0.070176 0.161915 -0.153066
v 0.029986 0.131601 -0.139348
v 0.059684 0.131601 -0.129699
v 0.034560 0.064068 -0.161205
v 0.068831 0.064068 -0.150070
v 0.068831 0.064068 0.155223
v 0.034560 0.064068 0.166359
v 0.053211 0.035406 0.002577
v 0.026750 0.035406 0.002577
v 0.025230 -0.000000 0.002577
v 0.050172 -0.000000 0.002577
v 0.052185 0.171510 -0.166704
v 0.071132 0.176347 -0.155194
v 0.056447 0.132762 0.127645
v 0.028368 0.105355 0.136769
v 0.028368 0.083503 -0.131615
v 0.056447 0.083503 -0.122491
v 0.049213 0.166216 -0.152501
v 0.065189 0.171052 -0.141958
v 0.031362 0.151327 -0.145925
v 0.062436 0.151327 -0.135828
v 0.113974 0.026480 -0.100391
v 0.133390 0.026480 -0.073667
v 0.152387 0.190778 -0.084549
v 0.130200 0.190778 -0.115087
v 0.133390 0.026480 0.078821
v 0.113974 0.026480 0.105545
v 0.090546 -0.000000 -0.079172
v 0.105961 -0.000000 -0.057955
v 0.105961 -0.000000 0.063109
v 0.090546 -0.000000 0.084325
v 0.148026 0.101656 0.087204
v 0.126475 0.101656 0.116867
v 0.145882 0.139594 0.085977
v 0.124644 0.139594 0.115209
v 0.126475 0.101656 -0.111713
v 0.148026 0.101656 -0.082051
v 0.124644 0.139594 -0.110055
v 0.145882 0.139594 -0.080823
v 0.143602 0.190778 -0.079516
v 0.122696 0.190778 -0.108291
v 0.112398 0.035406 -0.061642
v 0.096044 0.035406 -0.084152
v 0.096044 0.035406 0.089305
v 0.112398 0.035406 0.066796
v 0.148337 0.148456 0.087383
v 0.134310 0.175903 0.108568
v 0.126740 0.161915 -0.111954
v 0.148337 0.161915 -0.082229
v 0.107756 0.131601 -0.094759
v 0.126110 0.131601 -0.069497
v 0.126110 0.131601 0.074651
v 0.115162 0.131601 0.093867
v 0.124306 0.064068 -0.109749
v 0.145487 0.064068 -0.080596
v 0.145487 0.064068 0.085750
v 0.124306 0.064068 0.114903
v 0.096044 0.035406 0.002577
v 0.112398 0.035406 0.002577
v 0.090546 -0.000000 0.002577
v 0.105961 -0.000000 0.002577
v 0.150362 0.162888 0.088543
v 0.135876 0.185100 0.112628
v 0.128470 0.176347 -0.113520
v 0.150362 0.176347 -0.083389
v 0.101900 0.083503 -0.089455
v 0.119254 0.083503 -0.065570
v 0.119254 0.083503 0.070723
v 0.101900 0.083503 0.094609
v 0.137771 0.157593 0.081330
v 0.125122 0.179805 0.102888
v 0.131941 0.137867 0.077990
v 0.120142 0.166629 0.098378
v 0.117716 0.171052 -0.103780
v 0.137771 0.171052 -0.076176
v 0.112736 0.151327 -0.099270
v 0.131941 0.151327 -0.072837
v 0.031328 0.182078 -0.175333
v 0.161144 0.186806 0.056804
v 0.032400 0.179570 -0.162474
v 0.099703 0.180915 -0.134255
v 0.107271 0.183562 -0.144672
v 0.173390 0.183562 -0.053667
v 0.173390 0.189453 0.060783
v 0.172838 0.180131 -0.009513
v 0.172838 0.180131 0.014668
v 0.182375 0.181124 -0.009422
v 0.182375 0.181124 0.014577
v 0.189273 0.180945 0.002577
v 0.189296 0.180456 -0.006009
v 0.189296 0.180456 0.011163
v 0.161144 0.180915 -0.049688
v 0.161144 0.180915 0.002577
v 0.066565 0.180915 -0.145023
v 0.049901 0.176079 -0.155790
v 0.052424 0.178726 -0.167846
v 0.071610 0.183562 -0.156259
v 0.140686 0.180915 -0.077846
v 0.120206 0.180915 -0.106035
v 0.129335 0.183562 -0.114304
v 0.151374 0.183562 -0.083969
v -0.004578 0.180915 0.171711
v -0.004578 0.183562 0.184586
v -0.117278 0.183162 0.136583
v -0.109709 0.180515 0.126166
v -0.065988 0.180915 0.150176
v -0.032850 0.180915 0.160944
v -0.035372 0.183562 0.173000
v -0.071033 0.183562 0.161413
v -0.160567 0.180915 0.054842
v -0.160568 0.180915 -0.049688
v -0.172813 0.183562 0.058821
v -0.172813 0.183562 -0.053667
v -0.105182 0.175858 -0.151361
v -0.172261 0.180131 0.014668
v -0.172261 0.180131 -0.009513
v -0.181798 0.181124 0.014577
v -0.181798 0.181124 -0.009422
v -0.188697 0.180945 0.002577
v -0.188719 0.180456 0.011163
v -0.188719 0.180456 -0.006009
v -0.093230 0.173684 -0.142767
v -0.160568 0.180915 0.002577
v -0.119607 0.180915 -0.106066
v -0.140087 0.180915 -0.077877
v -0.150773 0.183562 -0.084002
v -0.128734 0.183562 -0.114337
v 0.120022 0.156621 0.117111
v -0.007901 0.160303 0.171051
v 0.165017 0.179695 0.077018
v 0.107756 0.134595 0.117918
v 0.000288 0.177381 0.175783
v 0.040307 0.189223 -0.175756
v 0.104877 0.190778 -0.141378
v 0.169517 0.190778 -0.052409
v 0.172036 0.200715 0.066327
v 0.094713 0.137506 0.132542
v -0.009929 0.192698 0.177779
v -0.111704 0.194185 0.134480
v -0.163982 0.192401 0.060753
v -0.168940 0.190778 -0.052409
v -0.096139 0.191128 -0.146785
v 0.012844 0.154321 0.163222
v 0.122803 0.175898 0.131631
v -0.168940 0.190778 0.002577
v 0.169517 0.190778 0.002577
v 0.000288 0.156812 0.166061
v -0.118299 0.174393 0.123072
v -0.159819 0.175864 0.060542
v -0.073348 0.135846 -0.149620
v 0.000288 0.119303 -0.160907
v -0.089224 0.150041 -0.144325
v -0.085817 0.165418 -0.153463
v 0.024657 0.169995 -0.164532
v -0.006410 0.155183 -0.163198
v -0.031743 0.142377 -0.150500
v -0.056735 0.132244 -0.144877
v -0.034575 0.190778 0.169187
v -0.069438 0.190778 0.157859
v -0.143913 0.168436 0.088821
v -0.132863 0.178933 0.099751
v -0.147394 0.190778 -0.082065
v -0.125847 0.190778 -0.111721
v 0.031763 0.114431 0.152995
v 0.063238 0.150943 0.142769
v 0.054196 0.188058 -0.164033
v 0.070014 0.190778 -0.152705
v 0.144066 0.167024 0.084936
v 0.130499 0.187460 0.107758
v 0.126448 0.190778 -0.111689
v 0.147994 0.190778 -0.082033
v 0.031864 0.180824 -0.168903
v 0.167267 0.188130 0.063993
v -0.116010 0.182049 0.129602
v 0.000288 0.182239 0.178149
v -0.097014 0.175008 -0.147976
v -0.164830 0.182914 0.059898
vn 0.3051 -0.1587 -0.9390
vn 0.7988 -0.1587 -0.5803
vn -0.1001 -0.9864 -0.1306
vn -0.1260 0.9454 -0.3006
vn -0.2650 0.3322 0.9052
vn -0.4715 -0.0684 0.8792
vn 0.5882 0.5916 0.5514
vn -0.0350 0.4190 0.9073
vn -0.7984 0.1612 -0.5801
vn -0.8043 0.2109 -0.5555
vn -0.9869 0.1612 -0.0000
vn -0.0000 -1.0000 -0.0000
vn 0.7984 0.1612 -0.5801
vn 0.3050 0.1612 0.9386
vn 0.1991 -0.7647 -0.6128
vn 0.5213 -0.7647 -0.3787
vn 0.6444 -0.7647 -0.0000
vn 0.5213 -0.7647 0.3787
vn 0.1991 -0.7647 0.6128
vn -0.1991 -0.7647 0.6128
vn -0.5213 -0.7647 0.3787
vn -0.6444 -0.7647 -0.0000
vn -0.5213 -0.7647 -0.3787
vn -0.1991 -0.7647 -0.6128
vn -0.3081 -0.0771 -0.9482
vn -0.2972 0.2736 -0.9148
vn -0.8066 -0.0771 -0.5860
vn -0.8073 0.0646 -0.5866
vn -0.9970 -0.0771 -0.0000
vn -0.9979 0.0646 -0.0000
vn -0.8066 -0.0771 0.5860
vn -0.8073 0.0646 0.5866
vn -0.3081 -0.0771 0.9482
vn -0.3084 0.0646 0.9491
vn 0.3086 -0.0489 0.9499
vn -0.5561 -0.4474 0.7005
vn 0.8066 -0.0771 0.5860
vn 0.8555 0.1261 0.5022
vn 0.9970 -0.0771 -0.0000
vn 0.9979 0.0646 -0.0000
vn 0.8066 -0.0771 -0.5860
vn 0.8073 0.0646 -0.5866
vn 0.3081 -0.0771 -0.9482
vn 0.3084 0.0646 -0.9491
vn -0.0000 1.0000 -0.0000
vn -0.0000 0.9866 -0.1629
vn 0.0201 0.6349 -0.7723
vn -0.4726 0.1554 0.8675
vn 0.0644 0.9975 0.0289
vn 0.8426 -0.2758 -0.4626
vn 0.0810 0.9927 -0.0894
vn 0.9869 0.1612 -0.0000
vn -0.3050 0.1612 0.9386
vn -0.2732 0.0801 -0.9586
vn -0.7984 0.1612 0.5801
vn 0.7984 0.1612 0.5801
vn 0.3050 0.1612 -0.9386
vn -0.8410 0.4333 0.3239
vn -0.6426 -0.6114 -0.4618
vn -0.9922 -0.1250 -0.0000
vn -0.7536 -0.3638 0.5475
vn -0.3066 -0.1250 0.9436
vn 0.7567 -0.2980 0.5819
vn 0.9922 -0.1250 -0.0000
vn 0.8027 -0.1250 -0.5832
vn 0.3066 -0.1250 -0.9436
vn 0.1279 0.3217 -0.9382
vn 0.7663 0.3207 0.5567
vn -0.7663 0.3208 0.5567
vn 0.9472 0.3208 -0.0000
vn -0.3806 0.3163 0.8690
vn -0.9472 0.3208 -0.0000
vn -0.0005 0.1587 -0.9873
vn 0.7318 0.3700 -0.5723
vn -0.5535 0.7293 -0.4022
vn 0.2899 -0.3460 -0.8923
vn 0.7591 -0.3460 -0.5515
vn 0.9382 -0.3460 -0.0000
vn 0.7591 -0.3460 0.5515
vn 0.2899 -0.3460 0.8923
vn -0.2899 -0.3460 0.8923
vn -0.7591 -0.3460 0.5515
vn -0.9382 -0.3460 -0.0000
vn -0.7591 -0.3460 -0.5515
vn -0.2899 -0.3460 -0.8923
vn 0.9800 -0.1974 0.0261
vn -0.9800 -0.1974 -0.0261
vn 0.9873 -0.1587 -0.0000
vn 0.9884 -0.1508 0.0187
vn -0.9937 -0.1106 0.0171
vn -0.9873 -0.1587 -0.0000
vn -0.9800 -0.1974 -0.0266
vn 0.9800 -0.1974 0.0266
vn 0.9842 -0.1766 -0.0120
vn -0.9472 0.3207 -0.0000
vn 0.9472 0.3207 -0.0000
vn -0.0086 0.9996 -0.0264
vn -0.1026 0.9858 0.1328
vn -0.0417 -0.4011 -0.9151
vn -0.0329 0.4005 -0.9157
vn -0.0260 -0.4176 0.9082
vn -0.8719 -0.1549 -0.4645
vn 0.0417 -0.4011 0.9151
vn -0.8528 -0.1596 0.4972
vn -0.3051 -0.1587 0.9390
vn 0.9241 -0.1404 0.3554
vn 0.0260 -0.4176 -0.9082
vn 0.9857 -0.1681 -0.0121
vn -0.9857 -0.1681 0.0121
vn -0.9857 -0.1681 -0.0121
vn 0.9857 -0.1681 0.0121
vn 0.9905 -0.1352 -0.0242
vn -0.9905 -0.1352 0.0242
vn -0.9905 -0.1352 -0.0242
vn 0.9905 -0.1352 0.0242
vn 0.1026 0.9858 -0.1328
vn 0.0329 0.4005 0.9157
vn -0.1026 -0.9858 0.1328
vn 0.1001 -0.9864 0.1306
vn -0.1002 0.9864 -0.1306
vn 0.0350 0.4190 -0.9073
vn 0.1026 -0.9858 -0.1328
vn 0.1002 0.9864 0.1306
vn 0.2468 0.9605 -0.1283
vn -0.2468 0.9605 0.1283
vn 0.4251 -0.4165 -0.8036
vn 0.4266 -0.4150 0.8036
vn -0.4251 -0.4165 0.8036
vn -0.4266 -0.4150 -0.8036
vn -0.2315 -0.9642 -0.1295
vn 0.2315 -0.9642 0.1295
vn 0.2456 0.9607 0.1295
vn -0.2456 0.9607 -0.1295
vn -0.2334 -0.9640 0.1276
vn 0.2334 -0.9640 -0.1276
vn 0.4445 0.3096 -0.8406
vn 0.4444 0.3113 0.8400
vn -0.4445 0.3096 0.8406
vn -0.4444 0.3113 -0.8400
vn -0.9699 0.2433 -0.0109
vn -0.9565 0.2914 -0.0131
vn 0.0240 0.8016 -0.5973
vn -0.8364 0.3223 -0.4434
vn -0.2813 0.3211 0.9043
vn -0.2731 0.6433 0.7153
vn -0.7663 0.3207 0.5567
vn 0.6632 0.6338 -0.3980
vn 0.7921 0.3190 -0.5204
vn 0.3022 0.3204 -0.8978
vn 0.3392 0.3187 -0.8851
vn -0.0620 0.8696 0.4899
vn 0.4933 -0.3358 0.8024
vn -0.7429 0.6269 -0.2348
vn 0.6998 0.5677 -0.4337
vn 0.1245 0.1776 0.9762
vn -0.1617 0.5793 0.7989
vn 0.5022 0.6721 0.5441
vn 0.2738 0.8519 -0.4465
vn 0.8715 -0.3412 -0.3522
vn -0.7834 0.5945 0.1813
vn -0.2598 0.6121 0.7469
vn -0.6048 -0.0622 0.7940
vn 0.5841 0.6309 0.5107
vn -0.0870 0.6387 0.7645
vn 0.5238 -0.0526 -0.8502
vn 0.2927 0.3207 -0.9008
vn 0.4524 0.4431 -0.7739
vn 0.2927 0.3208 -0.9008
vn -0.3674 -0.1573 0.9167
vn -0.2597 -0.2458 0.9339
vn -0.1373 0.8389 0.5267
vn -0.2060 -0.0311 0.9781
vn -0.2936 -0.3117 -0.9037
vn -0.3090 0.0031 -0.9511
vn -0.3510 -0.0799 0.9329
vn 0.2964 0.2832 0.9121
vn 0.1339 0.1694 0.9764
vn 0.8084 0.4900 -0.3260
vn 0.2458 0.6916 -0.6792
vn 0.8133 0.0838 0.5758
vn 0.7880 0.3497 0.5068
vn 0.7850 0.4294 -0.4465
vn 0.5966 0.3022 -0.7435
vn -0.7573 -0.2850 0.5876
vn -0.7148 -0.1551 0.6819
vn -0.7988 -0.1587 -0.5803
vn 0.8404 0.3318 -0.4286
vn 0.2934 0.6230 -0.7252
vn 0.7482 0.1082 0.6546
vn 0.5356 0.7761 0.3328
vn -0.8027 -0.1250 0.5832
vn -0.7936 -0.1945 0.5766
vn -0.8027 -0.1250 -0.5832
vn -0.2927 0.3207 0.9008
vn -0.5874 0.3138 0.7460
vn -0.2927 0.3208 0.9008
vn -0.5779 0.3146 0.7530
vn 0.3324 -0.2395 -0.9122
vn 0.3921 -0.4246 -0.8160
vn 0.3849 -0.0606 -0.9210
vn 0.3007 -0.2305 -0.9254
vn -0.3055 0.1110 -0.9457
vn -0.3071 0.1116 -0.9451
vn 0.7934 0.4742 -0.3818
vn -0.7170 0.6614 -0.2199
vn 0.0837 0.9964 -0.0130
vn -0.1396 0.9898 -0.0292
vn 0.3073 0.1045 -0.9459
vn 0.3087 -0.0442 0.9501
vn 0.1347 -0.7058 -0.6955
vn 0.5464 -0.2618 -0.7955
vn -0.2191 0.6745 0.7050
vn 0.6344 0.7197 -0.2821
vn -0.9533 0.2489 -0.1713
vn -0.4955 0.4430 -0.7472
vn -0.6201 0.2048 -0.7573
vn -0.7911 0.2093 -0.5748
vn 0.8316 -0.1595 0.5319
vn 0.7191 -0.1553 0.6773
vn -0.6484 0.4460 -0.6170
vn -0.7112 0.1883 -0.6773
vn 0.7711 -0.3025 0.5603
vn 0.8073 0.0646 0.5866
vn -0.7313 0.0961 -0.6752
vn 0.5409 -0.1489 -0.8278
vn 0.2399 -0.2845 -0.9282
vn -0.6032 0.3122 0.7340
vn -0.6610 0.7440 0.0974
vn -0.1559 0.8412 0.5178
vn -0.6231 0.3600 0.6943
vn -0.9193 0.3926 -0.0279
vn 0.4451 0.3111 0.8397
vn 0.4436 0.3099 -0.8409
vn 0.9867 -0.1628 -0.0000
vn -0.0418 0.4016 -0.9149
vn 0.9943 -0.1066 0.0055
vn -0.0262 0.4180 0.9081
vn -0.3329 -0.1582 0.9296
vn 0.4686 0.2145 -0.8569
vn -0.7756 0.2846 -0.5635
vn 0.3297 0.3192 -0.8885
vn 0.7307 0.2989 -0.6138
vn -0.4637 -0.3678 0.8061
vn 0.7663 0.3208 0.5567
vn 0.8170 0.1340 0.5608
vn 0.1322 0.0659 -0.9890
vn 0.3071 -0.1126 0.9450
vn -0.4451 0.3111 -0.8397
vn -0.4436 0.3099 0.8409
vn 0.0262 0.4180 -0.9081
vn 0.0418 0.4016 0.9149
vn -0.9867 -0.1628 -0.0000
vn -0.9194 0.3934 0.0042
vn -0.7195 -0.5495 -0.4246
vn 0.6462 -0.3446 0.6809
vn 0.8439 -0.0062 -0.5365
vn 0.7478 -0.2474 0.6161
vn -0.7168 0.4637 -0.5208
vn -0.5994 0.7040 0.3809
vn -0.6174 0.7813 0.0909
vn -0.3630 0.5342 -0.7634
vn -0.5557 0.8145 -0.1668
vn -0.1479 0.9885 -0.0309
vn 0.0960 0.9953 -0.0148
vn -0.7694 0.6124 -0.1815
vn 0.7203 0.5920 0.3614
vn -0.2474 0.9187 -0.3079
vn -0.1922 0.9374 0.2906
vn 0.1186 0.8409 -0.5280
vn -0.4157 0.8583 -0.3007
vn 0.4568 0.8610 -0.2238
vn -0.8463 -0.1898 -0.4977
vn -0.4043 0.8097 -0.4254
vn -0.8963 0.4151 0.1557
vn 0.4844 -0.5238 -0.7008
vn 0.5724 0.7913 -0.2148
vn 0.3883 0.6702 -0.6325
vn 0.3210 0.7877 -0.5259
vn 0.9136 0.3563 0.1957
vn -0.1778 0.9391 0.2939
vn -0.2227 0.6703 -0.7079
vn -0.7636 0.2032 0.6129
vn -0.8092 0.5869 -0.0291
vn 0.6436 0.6827 0.3461
vn 0.2867 0.7008 0.6532
vn -0.0088 0.9996 -0.0271
vn -0.8315 0.4737 0.2902
vn 0.1051 0.9877 -0.1159
vn 0.7578 -0.2665 0.5956
vn 0.0659 0.9974 0.0296
vn 0.4463 0.8617 0.2414
vn -0.0000 0.9851 -0.1720
vn -0.8090 -0.0000 0.5878
vn 0.1770 0.7892 -0.5881
vn 0.0631 0.8920 0.4475
vn -0.1026 -0.9858 -0.1328
vn -0.6737 0.6494 -0.3527
vn 0.2758 0.4512 0.8487
vn -0.4838 -0.1590 0.8606
vn 0.8917 0.3990 -0.2139
vn -0.0418 0.4016 0.9149
vn -0.8011 -0.1587 -0.5772
vn -0.2423 0.0690 -0.9677
vn -0.7190 0.1804 -0.6712
vn 0.3806 -0.0953 0.9198
vn 0.7132 -0.1641 0.6815
vn 0.7876 -0.0447 0.6145
vn 0.7763 0.0649 0.6271
vn -0.1056 0.9832 -0.1491
vn 0.0278 0.6006 -0.7991
vn -0.2874 0.3671 0.8847
vn 0.0561 0.9976 0.0408
vn 0.9757 -0.1931 0.1035
vn -0.4458 0.8153 -0.3696
vn -0.3077 0.0932 -0.9469
vn 0.1359 0.0616 -0.9888
vn -0.7984 0.4589 0.3897
vn -0.8715 -0.1223 -0.4749
vn -0.8533 -0.1282 0.5054
vn 0.9294 -0.1895 0.3165
vn 0.1453 0.7769 -0.6126
vn -0.4710 0.1533 0.8687
vn -0.1089 0.6448 -0.7566
vn 0.7663 0.3207 -0.5567
vn -0.8356 0.3312 -0.4383
vn -0.9960 -0.0330 0.0835
vn 0.9479 -0.3163 0.0378
vn 0.9800 -0.1974 -0.0266
vn -0.9800 -0.1974 0.0266
vn -0.9800 -0.1974 0.0261
vn 0.9800 -0.1974 -0.0261
vn -0.0000 0.9996 -0.0279
vn -0.1002 0.9864 0.1306
vn -0.0260 -0.4176 -0.9082
vn -0.0262 0.4180 -0.9081
vn -0.0417 -0.4011 0.9151
vn -0.9770 -0.2130 0.0095
vn 0.9903 -0.1387 0.0071
vn -0.7958 0.1010 -0.5971
vn 0.0260 -0.4176 0.9082
vn -0.8143 -0.2955 0.4996
vn -0.4814 0.4098 0.7748
vn 0.8879 -0.3037 0.3455
vn 0.0417 -0.4011 -0.9151
vn 0.9905 -0.1352 -0.0246
vn -0.9905 -0.1352 0.0246
vn -0.9905 -0.1352 -0.0246
vn 0.9905 -0.1352 0.0246
vn 0.9866 -0.1630 -0.0000
vn -0.9866 -0.1630 -0.0000
vn 0.1002 0.9864 -0.1306
vn 0.0262 0.4180 0.9081
vn -0.1001 -0.9864 0.1306
vn 0.1026 -0.9858 0.1328
vn -0.1026 0.9858 -0.1328
vn 0.0418 0.4016 -0.9149
vn 0.1001 -0.9864 -0.1306
vn 0.1026 0.9858 0.1328
vn 0.2456 0.9607 -0.1295
vn -0.2456 0.9607 0.1295
vn 0.4267 -0.4150 -0.8036
vn 0.4251 -0.4165 0.8036
vn -0.4266 -0.4150 0.8036
vn -0.4251 -0.4165 -0.8036
vn -0.2334 -0.9640 -0.1276
vn 0.2334 -0.9640 0.1276
vn 0.2468 0.9605 0.1283
vn -0.2468 0.9605 -0.1283
vn -0.2315 -0.9642 0.1295
vn 0.2315 -0.9642 -0.1295
vn 0.4451 0.3111 -0.8397
vn 0.4436 0.3099 0.8409
vn -0.4451 0.3111 0.8397
vn -0.4436 0.3099 -0.8409
vn -0.9466 0.3206 -0.0348
vn 0.0570 0.7776 -0.6261
vn -0.6586 0.6201 -0.4263
vn -0.2442 0.3638 0.8989
vn -0.3769 0.5806 0.7217
vn 0.6555 0.4690 -0.5919
vn 0.7167 0.4139 -0.5613
vn 0.9460 0.3242 -0.0007
vn 0.9480 0.3182 -0.0011
vn 0.3156 0.4624 -0.8286
vn 0.3130 0.2737 -0.9095
vn 0.4385 0.7452 0.5023
vn 0.5485 -0.3153 0.7744
vn -0.6783 0.5836 -0.4466
vn 0.6241 0.7418 -0.2454
vn -0.1034 0.3018 0.9477
vn -0.1173 0.5489 0.8276
vn 0.5895 0.3968 0.7036
vn 0.5004 0.7887 -0.3572
vn 0.9274 -0.3203 -0.1932
vn -0.6983 0.4440 0.5615
vn -0.2495 0.4084 0.8780
vn -0.9327 0.0627 0.3552
vn 0.5978 0.5803 0.5531
vn -0.0973 0.5991 0.7948
vn 0.4535 0.3216 -0.8312
vn -0.3442 -0.0828 0.9353
vn -0.3732 -0.1237 0.9195
vn -0.0724 0.9973 -0.0152
vn -0.3187 0.0645 0.9456
vn -0.2317 -0.0008 0.9728
vn 0.1758 -0.1517 -0.9727
vn -0.2510 0.0690 -0.9655
vn -0.3320 -0.1582 0.9299
vn 0.3788 0.1669 0.9103
vn 0.2971 0.2754 0.9143
vn 0.5776 0.7798 -0.2417
vn 0.3338 0.4883 -0.8063
vn 0.8670 0.3084 0.3915
vn 0.7984 0.3184 0.5111
vn 0.8422 0.3221 -0.4323
vn 0.6042 0.3195 -0.7300
vn -0.8159 -0.1582 0.5561
vn -0.7154 -0.1596 0.6802
vn 0.6252 0.6347 -0.4542
vn 0.7439 0.3930 -0.5405
vn -0.7789 -0.1733 0.6027
vn -0.5860 -0.3903 0.7101
vn -0.2424 0.6202 0.7461
vn -0.5869 0.2926 0.7549
vn 0.2433 -0.3105 -0.9189
vn 0.5418 -0.1577 -0.8256
vn 0.3326 -0.2296 -0.9147
vn 0.3403 -0.1254 -0.9319
vn -0.3785 0.0808 -0.9221
vn 0.7842 0.4571 -0.4197
vn -0.7583 0.5604 -0.3332
vn 0.0711 0.9974 0.0149
vn -0.1288 0.9900 -0.0579
vn 0.2935 0.0647 -0.9538
vn 0.2960 -0.0367 0.9545
vn 0.3275 -0.0368 0.9441
vn 0.5727 -0.2672 -0.7750
vn 0.5790 -0.1564 -0.8002
vn -0.0620 0.6006 0.7971
vn 0.6006 0.7392 -0.3048
vn -0.8896 0.4071 -0.2069
vn -0.5794 0.2996 -0.7580
vn -0.7017 0.1829 -0.6886
vn -0.8574 0.1621 -0.4885
vn 0.6548 -0.6186 0.4344
vn 0.5610 -0.4124 0.7177
vn -0.9451 0.1703 -0.2788
vn -0.5926 0.7313 -0.3376
vn 0.8289 -0.1267 0.5448
vn 0.7723 -0.0906 0.6287
vn 0.5393 -0.1577 -0.8272
vn 0.3077 -0.1587 -0.9381
vn -0.5778 0.3584 0.7332
vn -0.6411 0.7415 0.1981
vn 0.0566 0.8803 0.4710
vn -0.1284 0.7005 0.7020
vn 0.4445 0.3096 0.8406
vn 0.4444 0.3113 -0.8400
vn 0.9908 -0.1352 0.0103
vn 0.9908 -0.1352 -0.0103
vn -0.0350 0.4190 -0.9073
vn -0.0329 0.4005 0.9157
vn -0.3367 -0.2932 0.8948
vn 0.4822 0.3206 -0.8153
vn -0.8861 0.4050 -0.2254
vn 0.3399 0.2969 -0.8924
vn 0.7339 0.3207 -0.5987
vn -0.4659 -0.1593 0.8704
vn 0.7744 0.3203 0.5456
vn 0.3928 0.2554 -0.8835
vn -0.1519 -0.3131 0.9375
vn 0.9906 -0.1084 -0.0838
vn -0.4445 0.3096 -0.8406
vn -0.4444 0.3113 0.8400
vn 0.0329 0.4005 -0.9157
vn 0.0350 0.4190 0.9073
vn -0.9908 -0.1352 -0.0103
vn -0.9908 -0.1352 0.0103
vn -0.8478 -0.1566 -0.5067
vn 0.8120 0.0271 -0.5831
vn 0.7474 -0.2909 0.5973
vn -0.4031 0.2890 -0.8683
vn -0.6319 0.6958 0.3414
vn -0.6042 0.7712 0.2008
vn -0.2549 0.6401 -0.7248
vn -0.6558 0.6086 -0.4467
vn -0.1364 0.9888 -0.0613
vn 0.0804 0.9966 0.0168
vn -0.2773 0.7987 0.5340
vn 0.7700 0.4746 -0.4266
vn -0.6012 0.7855 -0.1466
vn 0.0539 0.9728 0.2252
vn 0.0553 0.9984 0.0116
vn -0.3880 0.8857 -0.2550
vn 0.4237 0.7889 -0.4450
vn -0.9613 -0.0667 -0.2672
vn -0.4120 0.6732 -0.6141
vn -0.8506 0.4750 -0.2257
vn 0.4174 -0.4635 -0.7817
vn 0.8349 0.5216 0.1755
vn 0.3338 0.6693 -0.6637
vn 0.2690 0.7594 -0.5925
vn 0.7309 0.5556 0.3964
vn 0.0012 0.9968 0.0799
vn -0.1900 0.6420 -0.7428
vn -0.7903 0.1915 0.5820
vn -0.7955 0.6049 0.0365
vn 0.6466 0.6460 0.4056
vn 0.0266 0.8533 0.5208
vn -0.0000 0.9996 -0.0287
vn -0.7872 0.4964 0.3660
vn 0.6902 0.4203 0.5890
vn 0.8427 -0.4745 0.2544
vn 0.0574 0.9975 0.0417
vn 0.4076 0.8917 0.1970
vn 0.2155 0.9635 -0.1587
vn -0.9594 -0.0677 0.2736
vn 0.0874 0.8780 -0.4707
vt 0.572937 0.879120
vt 0.572785 0.879704
vt 0.572746 0.879108
vt 0.565744 0.878967
vt 0.566004 0.878380
vt 0.565933 0.878962
vt 0.565858 0.802056
vt 0.565933 0.801975
vt 0.565933 0.802057
vt 0.562676 0.862673
vt 0.562295 0.862545
vt 0.562482 0.862524
vt 0.570741 0.868305
vt 0.570631 0.869359
vt 0.570508 0.868402
vt 0.566755 0.876634
vt 0.567038 0.877323
vt 0.566742 0.877358
vt 0.569548 0.878180
vt 0.569731 0.878571
vt 0.569478 0.878305
vt 0.565109 0.800393
vt 0.565040 0.800417
vt 0.565037 0.800373
vt 0.567126 0.877362
vt 0.565802 0.877656
vt 0.565831 0.877265
vt 0.572707 0.875310
vt 0.572722 0.875888
vt 0.572452 0.875894
vt 0.559972 0.865675
vt 0.560825 0.866812
vt 0.560045 0.866924
vt 0.565464 0.869654
vt 0.563552 0.869191
vt 0.565464 0.869191
vt 0.569767 0.865670
vt 0.571105 0.865339
vt 0.571060 0.865772
vt 0.571123 0.870648
vt 0.570608 0.870649
vt 0.560854 0.868067
vt 0.560119 0.868173
vt 0.565464 0.871506
vt 0.567376 0.871969
vt 0.565464 0.871969
vt 0.565464 0.868618
vt 0.564733 0.868332
vt 0.565464 0.868332
vt 0.565464 0.872541
vt 0.566194 0.872827
vt 0.565464 0.872827
vt 0.567827 0.870580
vt 0.568251 0.871163
vt 0.567676 0.871043
vt 0.567375 0.872690
vt 0.566981 0.872255
vt 0.570738 0.878248
vt 0.570135 0.877470
vt 0.570752 0.877519
vt 0.564733 0.872827
vt 0.564048 0.873051
vt 0.564340 0.872541
vt 0.561825 0.873757
vt 0.562538 0.874135
vt 0.561826 0.874242
vt 0.561827 0.875213
vt 0.562539 0.875880
vt 0.561826 0.875627
vt 0.563552 0.868470
vt 0.563946 0.868904
vt 0.565464 0.867749
vt 0.566194 0.868332
vt 0.566880 0.868109
vt 0.566588 0.868618
vt 0.567857 0.876269
vt 0.568509 0.876637
vt 0.567857 0.876755
vt 0.570487 0.877240
vt 0.569488 0.877913
vt 0.569488 0.877247
vt 0.570830 0.877971
vt 0.570487 0.877918
vt 0.570525 0.875368
vt 0.569488 0.875913
vt 0.569526 0.875407
vt 0.571542 0.875386
vt 0.570487 0.875883
vt 0.567530 0.866867
vt 0.568465 0.867673
vt 0.567511 0.867785
vt 0.568476 0.865793
vt 0.568501 0.866753
vt 0.565911 0.866901
vt 0.566556 0.867897
vt 0.565920 0.867819
vt 0.566561 0.866018
vt 0.566558 0.866981
vt 0.564557 0.876592
vt 0.563547 0.877128
vt 0.563548 0.876559
vt 0.565574 0.877133
vt 0.564556 0.877171
vt 0.565144 0.874755
vt 0.563549 0.875422
vt 0.563549 0.874755
vt 0.566093 0.871400
vt 0.566167 0.871023
vt 0.566167 0.871541
vt 0.564554 0.872878
vt 0.563547 0.873421
vt 0.563545 0.872909
vt 0.568109 0.875322
vt 0.567101 0.875109
vt 0.567315 0.874772
vt 0.568187 0.877400
vt 0.569195 0.876428
vt 0.569176 0.877430
vt 0.567193 0.876371
vt 0.568206 0.876381
vt 0.568098 0.878989
vt 0.569157 0.878432
vt 0.569089 0.878991
vt 0.567154 0.878380
vt 0.568167 0.878420
vt 0.570563 0.879082
vt 0.569601 0.879629
vt 0.569563 0.879057
vt 0.571617 0.879620
vt 0.570601 0.879664
vt 0.566477 0.872308
vt 0.566869 0.871756
vt 0.566944 0.871813
vt 0.566217 0.874332
vt 0.566210 0.873656
vt 0.566304 0.873658
vt 0.566707 0.875228
vt 0.567122 0.876273
vt 0.566625 0.875273
vt 0.568659 0.876644
vt 0.568503 0.875975
vt 0.569018 0.876029
vt 0.569434 0.868752
vt 0.569072 0.869362
vt 0.569006 0.868072
vt 0.561355 0.857870
vt 0.561538 0.858762
vt 0.561445 0.858763
vt 0.569456 0.877815
vt 0.569594 0.877740
vt 0.572339 0.861834
vt 0.572130 0.862838
vt 0.572041 0.862811
vt 0.571895 0.860548
vt 0.571716 0.859784
vt 0.571980 0.860508
vt 0.568375 0.867408
vt 0.569673 0.866589
vt 0.569673 0.867410
vt 0.559866 0.937098
vt 0.560004 0.937628
vt 0.559705 0.937215
vt 0.561498 0.935912
vt 0.560975 0.934642
vt 0.561760 0.935722
vt 0.562083 0.935487
vt 0.561945 0.934957
vt 0.562245 0.935370
vt 0.559805 0.935232
vt 0.560975 0.936292
vt 0.560713 0.936483
vt 0.569578 0.870652
vt 0.569138 0.870652
vt 0.570971 0.866639
vt 0.570971 0.867413
vt 0.568144 0.876524
vt 0.565888 0.875968
vt 0.561870 0.866914
vt 0.562331 0.868211
vt 0.561838 0.868163
vt 0.569720 0.868657
vt 0.570971 0.868186
vt 0.571015 0.868587
vt 0.567156 0.874424
vt 0.565888 0.874938
vt 0.565859 0.874497
vt 0.562503 0.861891
vt 0.562289 0.862374
vt 0.562348 0.861718
vt 0.571725 0.875956
vt 0.571249 0.876386
vt 0.567536 0.865368
vt 0.567518 0.865906
vt 0.565848 0.865622
vt 0.565923 0.865939
vt 0.566174 0.876595
vt 0.565574 0.876563
vt 0.561901 0.865664
vt 0.562393 0.866965
vt 0.567097 0.875328
vt 0.566511 0.875127
vt 0.566589 0.877357
vt 0.567174 0.877375
vt 0.566500 0.878949
vt 0.567086 0.878941
vt 0.572172 0.879073
vt 0.571580 0.879046
vt 0.568990 0.874295
vt 0.568922 0.874844
vt 0.568453 0.874352
vt 0.567885 0.868790
vt 0.568375 0.868276
vt 0.568425 0.868726
vt 0.561940 0.865130
vt 0.562454 0.865718
vt 0.569673 0.868231
vt 0.567833 0.867410
vt 0.568375 0.866540
vt 0.569401 0.867684
vt 0.568951 0.867543
vt 0.559921 0.865141
vt 0.560796 0.865557
vt 0.568713 0.875108
vt 0.567990 0.864975
vt 0.568475 0.865567
vt 0.567924 0.865722
vt 0.558714 0.865790
vt 0.559147 0.865794
vt 0.558811 0.865975
vt 0.568612 0.879433
vt 0.568577 0.878908
vt 0.570118 0.878389
vt 0.570055 0.878901
vt 0.570153 0.876552
vt 0.562538 0.873524
vt 0.562536 0.873055
vt 0.562540 0.875358
vt 0.562539 0.874747
vt 0.562538 0.876923
vt 0.562538 0.876401
vt 0.566554 0.868734
vt 0.565971 0.868662
vt 0.568304 0.868528
vt 0.567429 0.868631
vt 0.568509 0.876026
vt 0.568543 0.875562
vt 0.568509 0.877859
vt 0.568509 0.877248
vt 0.566011 0.877531
vt 0.565836 0.877332
vt 0.565978 0.877337
vt 0.567373 0.864864
vt 0.567564 0.864679
vt 0.567558 0.864808
vt 0.566208 0.877598
vt 0.566570 0.878378
vt 0.566193 0.878380
vt 0.566019 0.877144
vt 0.565889 0.876255
vt 0.566118 0.877117
vt 0.567308 0.865052
vt 0.566562 0.865482
vt 0.566487 0.865221
vt 0.567768 0.864908
vt 0.568565 0.864561
vt 0.568551 0.864734
vt 0.567724 0.865183
vt 0.567543 0.865238
vt 0.566414 0.877160
vt 0.566447 0.877352
vt 0.566406 0.877541
vt 0.567361 0.865225
vt 0.567742 0.864821
vt 0.565601 0.876207
vt 0.559058 0.865265
vt 0.567833 0.868319
vt 0.561621 0.937733
vt 0.561945 0.937628
vt 0.562545 0.935783
vt 0.562545 0.936123
vt 0.562545 0.936803
vt 0.562345 0.937078
vt 0.559405 0.936802
vt 0.559405 0.936463
vt 0.571638 0.863816
vt 0.571719 0.863873
vt 0.566121 0.874351
vt 0.566384 0.867749
vt 0.570766 0.876790
vt 0.563552 0.871969
vt 0.563401 0.871506
vt 0.559384 0.868278
vt 0.559266 0.867036
vt 0.567376 0.869191
vt 0.567526 0.869654
vt 0.564721 0.802068
vt 0.564646 0.802150
vt 0.564646 0.802068
vt 0.566323 0.803682
vt 0.566245 0.803748
vt 0.566251 0.803664
vt 0.564084 0.800795
vt 0.564159 0.800818
vt 0.564087 0.800839
vt 0.562172 0.802593
vt 0.562237 0.802662
vt 0.562165 0.802681
vt 0.567793 0.864995
vt 0.568509 0.865253
vt 0.566564 0.864968
vt 0.567340 0.864958
vt 0.566217 0.877090
vt 0.566609 0.876335
vt 0.566109 0.877565
vt 0.572516 0.875324
vt 0.572134 0.875351
vt 0.565112 0.800436
vt 0.565034 0.800503
vt 0.565840 0.865278
vt 0.566561 0.876621
vt 0.566173 0.877175
vt 0.566158 0.875415
vt 0.566133 0.875079
vt 0.564090 0.800883
vt 0.564156 0.800948
vt 0.564084 0.800969
vt 0.566122 0.878958
vt 0.572555 0.879097
vt 0.572211 0.879657
vt 0.561193 0.802348
vt 0.561254 0.802330
vt 0.561258 0.802366
vt 0.564339 0.801017
vt 0.564378 0.801068
vt 0.564349 0.801081
vt 0.564353 0.800963
vt 0.564319 0.800955
vt 0.561143 0.802309
vt 0.561125 0.802340
vt 0.561113 0.802444
vt 0.561184 0.802387
vt 0.561168 0.802466
vt 0.564226 0.800971
vt 0.564302 0.801021
vt 0.564229 0.801027
vt 0.564252 0.801079
vt 0.561227 0.802466
vt 0.560478 0.801598
vt 0.560553 0.801516
vt 0.560553 0.801598
vt 0.562165 0.802507
vt 0.562240 0.802531
vt 0.562168 0.802550
vt 0.565858 0.801893
vt 0.565858 0.801975
vt 0.560901 0.801322
vt 0.560826 0.801404
vt 0.560826 0.801321
vt 0.564646 0.801987
vt 0.564721 0.801986
vt 0.566320 0.803638
vt 0.566248 0.803620
vt 0.560901 0.801485
vt 0.560901 0.801404
vt 0.560553 0.801679
vt 0.560478 0.801681
vt 0.564592 0.802012
vt 0.564592 0.802068
vt 0.560607 0.801655
vt 0.560607 0.801598
vt 0.564204 0.800924
vt 0.564162 0.800862
vt 0.564209 0.800853
vt 0.564974 0.800481
vt 0.562285 0.802641
vt 0.562243 0.802574
vt 0.562290 0.802569
vt 0.566186 0.803725
vt 0.565990 0.802033
vt 0.565991 0.801975
vt 0.560769 0.801346
vt 0.560768 0.801404
vt 0.564592 0.802125
vt 0.560607 0.801541
vt 0.565990 0.801917
vt 0.565933 0.801892
vt 0.560769 0.801462
vt 0.560826 0.801486
vt 0.564206 0.800817
vt 0.564977 0.800374
vt 0.565034 0.800329
vt 0.564284 0.800947
vt 0.564337 0.800910
vt 0.566188 0.803619
vt 0.566245 0.803575
vt 0.569815 0.865210
vt 0.568421 0.877459
vt 0.567095 0.877777
vt 0.558887 0.864330
vt 0.559871 0.864607
vt 0.558599 0.864708
vt 0.569115 0.875031
vt 0.569179 0.874792
vt 0.558610 0.865270
vt 0.559845 0.864340
vt 0.560772 0.864477
vt 0.560784 0.865017
vt 0.562782 0.864055
vt 0.562427 0.864318
vt 0.562481 0.864058
vt 0.563663 0.865914
vt 0.563474 0.866169
vt 0.563400 0.865672
vt 0.561998 0.864327
vt 0.562583 0.864654
vt 0.561979 0.864595
vt 0.562519 0.865186
vt 0.567020 0.867414
vt 0.567291 0.868361
vt 0.567020 0.868383
vt 0.567291 0.867413
vt 0.569623 0.877607
vt 0.569484 0.877405
vt 0.569571 0.877306
vt 0.567474 0.865251
vt 0.567387 0.865640
vt 0.567020 0.866445
vt 0.567833 0.866502
vt 0.567076 0.868885
vt 0.567346 0.868853
vt 0.569796 0.874209
vt 0.569659 0.874688
vt 0.569528 0.874238
vt 0.569118 0.874665
vt 0.561961 0.873956
vt 0.561907 0.874317
vt 0.561837 0.874012
vt 0.563895 0.880412
vt 0.564009 0.880128
vt 0.564009 0.880474
vt 0.561458 0.867516
vt 0.561396 0.867758
vt 0.561355 0.867462
vt 0.567149 0.865586
vt 0.572440 0.882094
vt 0.572544 0.882361
vt 0.572346 0.882280
vt 0.570545 0.868053
vt 0.570824 0.867956
vt 0.571195 0.867896
vt 0.563394 0.875161
vt 0.563253 0.875331
vt 0.563253 0.875077
vt 0.568034 0.870073
vt 0.567707 0.870122
vt 0.568349 0.869929
vt 0.563755 0.865651
vt 0.563626 0.865385
vt 0.563733 0.865323
vt 0.568788 0.866074
vt 0.568603 0.865547
vt 0.568788 0.865383
vt 0.562808 0.868465
vt 0.562618 0.867802
vt 0.562782 0.867607
vt 0.569447 0.868403
vt 0.570077 0.868131
vt 0.570069 0.867782
vt 0.569492 0.873696
vt 0.568923 0.873258
vt 0.569349 0.872935
vt 0.568956 0.873776
vt 0.569685 0.872968
vt 0.569760 0.873656
vt 0.566274 0.875582
vt 0.566562 0.876033
vt 0.566174 0.876015
vt 0.565464 0.870580
vt 0.567676 0.870117
vt 0.565464 0.870117
vt 0.562145 0.937353
vt 0.561236 0.936102
vt 0.569488 0.876580
vt 0.563549 0.875991
vt 0.568421 0.873856
vt 0.567095 0.873487
vt 0.568388 0.873360
vt 0.567126 0.873956
vt 0.565575 0.875993
vt 0.565740 0.875422
vt 0.565802 0.873613
vt 0.565831 0.874055
vt 0.560328 0.934852
vt 0.560651 0.934747
vt 0.561349 0.859923
vt 0.561475 0.859459
vt 0.561439 0.859963
vt 0.561383 0.859441
vt 0.564557 0.876013
vt 0.565687 0.875207
vt 0.570487 0.876562
vt 0.571170 0.876712
vt 0.567857 0.877725
vt 0.567857 0.877240
vt 0.561825 0.876455
vt 0.561826 0.876041
vt 0.570085 0.869360
vt 0.569538 0.869362
vt 0.570093 0.870650
vt 0.563251 0.870117
vt 0.563401 0.869654
vt 0.566912 0.875628
vt 0.566755 0.876042
vt 0.566756 0.875538
vt 0.566948 0.876647
vt 0.567397 0.865801
vt 0.567381 0.866390
vt 0.567156 0.866340
vt 0.558969 0.866681
vt 0.559165 0.866499
vt 0.559156 0.866764
vt 0.567401 0.869345
vt 0.567938 0.869261
vt 0.567396 0.870043
vt 0.567132 0.869387
vt 0.567568 0.865863
vt 0.568107 0.865924
vt 0.568425 0.866053
vt 0.569720 0.866130
vt 0.565034 0.865026
vt 0.565544 0.865382
vt 0.564617 0.865242
vt 0.572211 0.874318
vt 0.572555 0.874800
vt 0.572172 0.874835
vt 0.566982 0.868904
vt 0.565464 0.868904
vt 0.562545 0.936463
vt 0.561921 0.935605
vt 0.568612 0.874633
vt 0.569563 0.874900
vt 0.568577 0.875098
vt 0.564805 0.868518
vt 0.565284 0.867740
vt 0.565388 0.868590
vt 0.571676 0.868065
vt 0.571178 0.869358
vt 0.568475 0.869177
vt 0.569767 0.869083
vt 0.568819 0.869976
vt 0.565286 0.865861
vt 0.564648 0.865782
vt 0.571617 0.874370
vt 0.571580 0.874878
vt 0.571105 0.869390
vt 0.569815 0.869508
vt 0.571060 0.868989
vt 0.561298 0.934747
vt 0.561621 0.934852
vt 0.572209 0.861170
vt 0.572437 0.861832
vt 0.572117 0.861191
vt 0.565264 0.866822
vt 0.564617 0.866742
vt 0.564648 0.867662
vt 0.570563 0.874853
vt 0.570601 0.874337
vt 0.569601 0.874394
vt 0.567376 0.868470
vt 0.567872 0.868830
vt 0.564048 0.868109
vt 0.564544 0.867749
vt 0.564340 0.868618
vt 0.571015 0.866206
vt 0.572785 0.874256
vt 0.572937 0.874765
vt 0.572746 0.874783
vt 0.568358 0.867014
vt 0.567920 0.867543
vt 0.567819 0.867014
vt 0.563091 0.866052
vt 0.563091 0.865521
vt 0.568319 0.866750
vt 0.567769 0.866750
vt 0.563408 0.865409
vt 0.563091 0.865256
vt 0.572220 0.878326
vt 0.571855 0.878492
vt 0.571754 0.877947
vt 0.572396 0.878804
vt 0.563251 0.871043
vt 0.563100 0.870580
vt 0.565464 0.871043
vt 0.560975 0.937943
vt 0.560451 0.936673
vt 0.561298 0.937838
vt 0.563548 0.874088
vt 0.569526 0.878485
vt 0.568543 0.878384
vt 0.568435 0.867543
vt 0.568020 0.868072
vt 0.568513 0.868072
vt 0.571542 0.878473
vt 0.567771 0.875435
vt 0.565888 0.875453
vt 0.568606 0.869362
vt 0.568260 0.870652
vt 0.568140 0.869362
vt 0.568699 0.870652
vt 0.559405 0.935782
vt 0.560190 0.936863
vt 0.559605 0.935507
vt 0.572088 0.865036
vt 0.571723 0.864376
vt 0.571919 0.863924
vt 0.562416 0.864306
vt 0.562722 0.863633
vt 0.562722 0.864520
vt 0.567223 0.871173
vt 0.567040 0.871417
vt 0.567189 0.871081
vt 0.567101 0.871488
vt 0.570525 0.878500
vt 0.565310 0.873398
vt 0.561826 0.874728
vt 0.568061 0.871746
vt 0.567872 0.872329
vt 0.567526 0.871506
vt 0.572838 0.878632
vt 0.572587 0.878812
vt 0.572652 0.878462
vt 0.572836 0.878865
vt 0.572737 0.878276
vt 0.572608 0.878810
vt 0.572656 0.878188
vt 0.571072 0.861434
vt 0.571203 0.860732
vt 0.571203 0.861498
vt 0.561375 0.864536
vt 0.561361 0.865073
vt 0.561381 0.864267
vt 0.560765 0.864207
vt 0.562595 0.861546
vt 0.562865 0.861642
vt 0.562657 0.862063
vt 0.569133 0.877636
vt 0.569393 0.877243
vt 0.569755 0.877311
vt 0.568437 0.876858
vt 0.567156 0.876947
vt 0.568447 0.877180
vt 0.566360 0.880091
vt 0.566051 0.879537
vt 0.566430 0.879520
vt 0.566540 0.875781
vt 0.566917 0.875815
vt 0.568277 0.882361
vt 0.568710 0.882081
vt 0.568241 0.882748
vt 0.563946 0.872255
vt 0.565464 0.872255
vt 0.559405 0.936123
vt 0.560028 0.936980
vt 0.562532 0.872119
vt 0.563543 0.872399
vt 0.562534 0.872587
vt 0.569929 0.879929
vt 0.569020 0.879552
vt 0.569992 0.879415
vt 0.562865 0.862545
vt 0.568597 0.877549
vt 0.561348 0.865611
vt 0.566948 0.880065
vt 0.567017 0.879503
vt 0.567145 0.875849
vt 0.568742 0.883075
vt 0.568238 0.882989
vt 0.561347 0.866863
vt 0.561346 0.868115
vt 0.560651 0.937838
vt 0.560328 0.937733
vt 0.566299 0.872961
vt 0.566389 0.872266
vt 0.566391 0.872983
vt 0.568028 0.879559
vt 0.567958 0.880129
vt 0.568951 0.880112
vt 0.568158 0.875852
vt 0.563541 0.871889
vt 0.564552 0.872358
vt 0.563552 0.872690
vt 0.563056 0.872329
vt 0.566879 0.873051
vt 0.566384 0.873411
vt 0.566587 0.872541
vt 0.565888 0.876482
vt 0.565859 0.876874
vt 0.565790 0.880129
vt 0.565672 0.879554
vt 0.565862 0.879545
vt 0.565980 0.880116
vt 0.562017 0.864060
vt 0.561388 0.863999
vt 0.560759 0.863938
vt 0.563390 0.865081
vt 0.563091 0.864990
vt 0.568280 0.866485
vt 0.567718 0.866485
vt 0.563662 0.865059
vt 0.563756 0.865036
vt 0.562110 0.872514
vt 0.562219 0.872233
vt 0.562246 0.872478
vt 0.562615 0.864387
vt 0.559820 0.864072
vt 0.558798 0.863953
vt 0.564980 0.800410
vt 0.564155 0.800774
vt 0.564203 0.800780
vt 0.561107 0.802372
vt 0.561262 0.802403
vt 0.565816 0.878381
vt 0.566154 0.875919
vt 0.565106 0.800349
vt 0.572594 0.879688
vt 0.566661 0.875536
vt 0.570028 0.873616
vt 0.570058 0.872968
vt 0.561494 0.867178
vt 0.561429 0.867181
vt 0.570054 0.874573
vt 0.570065 0.874181
vt 0.569502 0.877644
vt 0.566493 0.877425
vt 0.572594 0.874277
vt 0.566863 0.869430
vt 0.567128 0.870059
vt 0.572439 0.876028
vt 0.572873 0.876035
vt 0.572535 0.881842
vt 0.572437 0.881839
vt 0.566806 0.868917
vt 0.566749 0.867415
vt 0.566749 0.868404
vt 0.566190 0.803656
vt 0.564378 0.800919
vt 0.566317 0.803593
vt 0.564320 0.801094
vt 0.566480 0.864730
vt 0.568537 0.864907
vt 0.572236 0.876126
vt 0.572339 0.881836
vt 0.572339 0.882144
vt 0.567351 0.870143
vt 0.566925 0.870117
vt 0.566720 0.875422
vt 0.569728 0.872839
vt 0.570063 0.872894
vt 0.558724 0.864276
vt 0.563841 0.865262
vt 0.563850 0.865013
vt 0.566398 0.873660
vt 0.566482 0.873005
vt 0.566566 0.872350
vt 0.569394 0.877732
vt 0.558504 0.865003
vt 0.558513 0.864533
vt 0.567162 0.871560
vt 0.567257 0.871265
vt 0.562110 0.864092
vt 0.562415 0.863168
vt 0.572308 0.864722
vt 0.572308 0.864094
vt 0.571810 0.860588
vt 0.572025 0.861212
vt 0.572241 0.861836
vt 0.567525 0.861349
vt 0.567420 0.861027
vt 0.567554 0.861016
vt 0.567367 0.860424
vt 0.567549 0.860342
vt 0.561291 0.859422
vt 0.561259 0.859886
vt 0.570827 0.876027
vt 0.571070 0.875564
vt 0.571037 0.876036
vt 0.570944 0.876659
vt 0.570738 0.876762
vt 0.562961 0.867653
vt 0.571934 0.877734
vt 0.572344 0.878298
vt 0.563904 0.865715
vt 0.572180 0.876255
vt 0.571783 0.876158
vt 0.567636 0.870236
vt 0.571404 0.876471
vt 0.570867 0.875510
vt 0.570934 0.875272
vt 0.567388 0.861818
vt 0.567367 0.861307
vt 0.569512 0.872827
vt 0.562710 0.861053
vt 0.562800 0.861281
vt 0.569678 0.877381
vt 0.569731 0.877545
vt 0.565970 0.875130
vt 0.566037 0.875369
vt 0.566314 0.874314
vt 0.571558 0.863760
vt 0.566853 0.869496
vt 0.571952 0.862783
vt 0.569714 0.878018
vt 0.569719 0.877640
vt 0.561259 0.857892
vt 0.561351 0.858765
vt 0.565595 0.874068
vt 0.565406 0.874697
vt 0.565286 0.874092
vt 0.567257 0.876130
vt 0.566789 0.875183
vt 0.567019 0.871869
vt 0.560256 0.867272
vt 0.560104 0.867361
vt 0.560104 0.867142
vt 0.565504 0.875068
vt 0.565727 0.874738
vt 0.572976 0.879719
vt 0.562540 0.863068
vt 0.572898 0.875296
vt 0.568440 0.870580
vt 0.564544 0.873411
vt 0.563056 0.868830
vt 0.571445 0.877231
vt 0.566066 0.871013
vt 0.567235 0.876286
vt 0.561450 0.857848
vt 0.569383 0.878342
vt 0.571558 0.859764
vt 0.560004 0.934957
vt 0.568525 0.865080
vt 0.564721 0.802151
vt 0.566316 0.803766
vt 0.565105 0.800523
vt 0.565919 0.875332
vt 0.561201 0.802309
vt 0.564376 0.801014
vt 0.560478 0.801515
vt 0.562237 0.802488
vt 0.564974 0.800338
vt 0.564295 0.800900
vt 0.566186 0.803582
vt 0.568388 0.877897
vt 0.562782 0.864583
vt 0.563854 0.866395
vt 0.569830 0.874675
vt 0.561961 0.874422
vt 0.563905 0.880105
vt 0.561494 0.867744
vt 0.567309 0.865140
vt 0.572580 0.882081
vt 0.571132 0.867574
vt 0.563440 0.875390
vt 0.568500 0.866088
vt 0.562618 0.868817
vt 0.566949 0.876051
vt 0.558969 0.866341
vt 0.565527 0.865037
vt 0.571597 0.869355
vt 0.572976 0.874235
vt 0.571867 0.865350
vt 0.565671 0.874076
vt 0.572756 0.878810
vt 0.571081 0.860722
vt 0.568742 0.881836
vt 0.564550 0.871839
vt 0.565601 0.880141
vt 0.562110 0.872167
vt 0.562648 0.864121
vt 0.566720 0.866362
vt 0.566590 0.875412
vt 0.569971 0.877386
vt 0.562110 0.863349
vt 0.563005 0.868518
vt 0.570738 0.875173
vt 0.566956 0.866355
vt 0.567521 0.861865
vt 0.558648 0.863938
vt 0.562289 0.861393
vt 0.560256 0.867455
vt 0.565286 0.875041
s 0
g cooking_pot_shotdamaged_Material
usemtl Material
f 327/1/1 429/2/1 444/3/1
f 371/4/2 430/5/2 448/6/2
f 79/7/3 183/8/3 182/9/3
f 87/10/4 484/11/4 478/12/4
f 81/13/5 263/14/5 249/15/5
f 456/16/6 57/17/6 451/18/6
f 476/19/7 41/20/7 494/21/7
f 433/22/8 177/23/8 435/24/8
f 415/25/9 68/26/9 392/27/9
f 474/28/10 60/29/10 461/30/10
f 132/31/11 188/32/11 198/33/11
f 258/34/12 13/35/12 114/36/12
f 315/37/13 64/38/13 290/39/13
f 263/14/14 63/40/14 244/41/14
f 198/33/11 67/42/11 127/43/11
f 358/44/12 3/45/12 115/46/12
f 308/47/12 15/48/12 117/49/12
f 408/50/12 5/51/12 116/52/12
f 1/53/15 325/54/15 331/55/15
f 3/45/16 369/56/16 375/57/16
f 5/58/17 109/59/17 116/60/17
f 7/61/18 373/62/18 377/63/18
f 9/64/19 329/65/19 333/66/19
f 11/67/20 55/68/20 227/69/20
f 13/35/21 269/70/21 275/71/21
f 15/48/22 111/72/22 117/49/22
f 17/73/23 271/74/23 277/75/23
f 19/76/24 225/77/24 229/78/24
f 232/79/25 100/80/25 254/81/25
f 232/79/26 32/82/26 31/83/26
f 280/84/27 99/85/27 304/86/27
f 282/87/28 50/88/28 280/84/28
f 118/89/29 98/90/29 134/91/29
f 118/89/30 47/92/30 48/93/30
f 284/94/31 97/95/31 302/96/31
f 284/94/32 45/97/32 46/98/32
f 236/99/33 96/100/33 252/101/33
f 236/99/34 43/102/34 44/103/34
f 336/104/35 95/105/35 354/106/35
f 75/107/36 491/108/36 475/109/36
f 380/110/37 94/111/37 404/112/37
f 380/113/38 39/114/38 40/115/38
f 120/116/39 93/117/39 133/118/39
f 120/116/40 37/119/40 38/120/40
f 384/121/41 92/122/41 402/123/41
f 384/121/42 35/124/42 36/125/42
f 338/126/43 91/127/43 352/128/43
f 338/126/44 33/129/44 34/130/44
f 481/131/45 327/132/45 514/133/45
f 482/134/45 371/135/45 518/136/45
f 493/137/46 101/138/46 110/139/46
f 484/140/47 361/141/47 512/142/47
f 84/143/48 363/144/48 349/145/48
f 486/146/49 223/147/49 506/148/49
f 476/19/50 216/149/50 479/150/50
f 488/151/45 112/152/45 492/153/45
f 510/154/51 60/155/51 273/156/51
f 131/157/52 192/158/52 197/159/52
f 406/160/45 68/161/45 127/162/45
f 256/163/45 63/164/45 125/165/45
f 306/166/45 70/167/45 128/168/45
f 344/169/45 124/170/45 356/171/45
f 363/144/53 61/172/53 344/173/53
f 197/159/52 69/174/52 128/175/52
f 193/176/54 346/177/54 361/141/54
f 413/178/55 65/179/55 390/180/55
f 313/181/56 70/182/56 292/183/56
f 261/184/57 62/185/57 242/186/57
f 475/187/58 39/188/58 75/189/58
f 282/87/59 80/190/59 49/191/59
f 129/192/60 47/92/60 119/193/60
f 296/194/61 45/97/61 286/195/61
f 246/196/62 43/102/62 238/197/62
f 397/198/55 194/199/55 413/178/55
f 382/200/63 75/201/63 39/114/63
f 130/202/64 37/119/64 121/203/64
f 396/204/65 35/124/65 386/205/65
f 348/206/66 33/129/66 340/207/66
f 267/208/67 90/209/67 247/210/67
f 323/211/68 89/212/68 297/213/68
f 423/214/69 88/215/69 397/198/69
f 297/213/56 195/216/56 313/181/56
f 222/217/70 86/218/70 131/157/70
f 201/219/71 349/145/71 367/220/71
f 210/221/72 83/222/72 132/31/72
f 247/210/73 196/223/73 261/184/73
f 220/224/74 299/225/74 319/226/74
f 419/227/75 82/228/75 399/229/75
f 352/128/76 22/230/76 326/231/76
f 402/123/77 23/232/77 370/233/77
f 133/118/78 24/234/78 109/59/78
f 404/112/79 25/235/79 374/236/79
f 354/106/80 26/237/80 330/238/80
f 252/101/81 27/239/81 10/240/81
f 302/96/82 28/241/82 270/242/82
f 134/91/83 29/243/83 111/244/83
f 304/86/84 30/245/84 272/246/84
f 254/81/85 21/247/85 226/248/85
f 53/249/86 110/250/86 135/251/86
f 58/252/87 112/253/87 136/254/87
f 149/255/88 105/256/88 141/257/88
f 54/258/89 431/259/89 433/260/89
f 151/261/90 107/262/90 146/263/90
f 463/264/91 103/265/91 460/266/91
f 79/267/92 129/192/92 137/268/92
f 74/269/93 130/202/93 138/270/93
f 73/271/88 130/202/88 105/256/88
f 78/272/91 129/192/91 107/262/91
f 59/273/91 112/253/91 103/265/91
f 54/258/94 110/250/94 101/274/94
f 28/241/83 134/91/83 111/244/83
f 23/232/78 133/118/78 109/59/78
f 210/221/95 82/228/95 199/275/95
f 222/217/96 89/212/96 213/276/96
f 35/124/64 130/202/64 121/203/64
f 45/97/60 129/192/60 119/193/60
f 197/159/52 70/182/52 195/216/52
f 345/277/45 124/170/45 62/278/45
f 306/166/45 69/279/45 289/280/45
f 256/163/45 64/281/45 241/282/45
f 406/160/45 67/283/45 389/284/45
f 487/285/97 112/152/97 104/286/97
f 482/134/45 110/139/45 102/287/45
f 35/124/40 120/116/40 36/125/40
f 92/122/39 120/116/39 133/118/39
f 45/97/30 118/89/30 46/98/30
f 97/95/29 118/89/29 134/91/29
f 17/73/22 111/72/22 29/288/22
f 7/289/17 109/59/17 24/234/17
f 408/50/12 7/61/12 377/63/12
f 308/47/12 17/73/12 277/75/12
f 358/44/12 9/290/12 333/291/12
f 198/33/11 68/292/11 190/293/11
f 258/34/12 19/294/12 229/295/12
f 135/296/98 185/297/98 171/298/98
f 152/299/99 182/300/99 181/301/99
f 53/302/100 434/303/100 432/304/100
f 151/305/101 180/306/101 78/307/101
f 152/308/91 108/309/91 79/267/91
f 151/261/91 459/310/91 462/311/91
f 150/312/88 106/313/88 74/269/88
f 149/255/88 430/5/88 432/314/88
f 131/157/52 195/216/52 89/212/52
f 310/315/102 80/190/102 294/316/102
f 150/317/103 178/318/103 177/23/103
f 312/319/104 107/262/104 296/194/104
f 260/320/105 77/321/105 246/196/105
f 132/31/11 190/293/11 82/228/11
f 394/322/106 143/323/106 75/201/106
f 149/324/107 176/325/107 73/326/107
f 412/327/2 105/256/2 396/204/2
f 360/328/1 72/329/1 348/206/1
f 436/330/108 167/331/108 438/332/108
f 466/333/109 168/334/109 468/335/109
f 156/336/110 466/333/110 467/337/110
f 154/338/111 436/330/111 437/339/111
f 158/340/112 170/341/112 166/342/112
f 162/343/113 169/344/113 165/345/113
f 169/344/114 164/346/114 165/345/114
f 170/341/115 160/347/115 166/342/115
f 136/348/116 186/349/116 173/350/116
f 58/351/117 464/352/117 462/353/117
f 78/354/118 183/8/118 137/355/118
f 74/356/119 184/357/119 178/358/119
f 135/296/120 172/359/120 53/360/120
f 463/361/121 181/301/121 465/362/121
f 73/363/122 184/357/122 138/364/122
f 136/348/123 174/365/123 58/366/123
f 154/367/124 171/298/124 153/368/124
f 156/369/125 173/350/125 155/370/125
f 158/371/126 175/372/126 157/373/126
f 160/374/127 177/23/127 178/318/127
f 162/375/128 179/376/128 161/377/128
f 164/378/129 181/301/129 182/300/129
f 164/379/130 183/8/130 165/380/130
f 160/381/131 184/357/131 166/382/131
f 167/383/132 171/298/132 185/297/132
f 168/384/133 173/350/133 186/349/133
f 162/385/134 183/8/134 180/386/134
f 158/387/135 184/357/135 176/388/135
f 157/373/136 434/303/136 437/389/136
f 438/390/137 185/391/137 435/24/137
f 161/392/138 464/393/138 467/337/138
f 468/394/139 186/395/139 465/362/139
f 299/225/13 189/396/13 315/37/13
f 399/397/9 190/398/9 415/25/9
f 426/399/140 209/400/140 200/401/140
f 209/400/141 199/275/141 200/401/141
f 490/402/142 90/209/142 494/403/142
f 417/404/143 199/275/143 419/227/143
f 440/405/72 207/406/72 209/400/72
f 209/400/95 208/407/95 210/221/95
f 427/408/144 365/409/144 442/410/144
f 202/411/145 367/412/145 365/413/145
f 446/414/69 206/415/69 421/416/69
f 421/416/146 205/417/146 423/214/146
f 470/418/96 214/419/96 458/420/96
f 221/421/96 213/276/96 214/419/96
f 522/422/147 12/423/147 485/424/147
f 219/425/148 319/226/148 317/426/148
f 457/427/70 221/421/70 470/418/70
f 221/421/96 211/428/96 222/217/96
f 472/429/68 214/419/68 321/430/68
f 321/430/68 213/276/68 323/211/68
f 454/431/149 216/432/149 265/433/149
f 265/433/150 215/434/150 267/208/150
f 516/435/151 143/436/151 410/437/151
f 431/438/152 483/439/152 520/440/152
f 521/441/153 145/442/153 451/443/153
f 508/444/154 219/425/154 317/426/154
f 524/445/155 146/446/155 496/447/155
f 504/448/156 81/13/156 249/15/156
f 497/449/157 218/450/157 81/13/157
f 523/451/158 148/452/158 461/453/158
f 499/454/159 217/455/159 218/456/159
f 501/457/160 427/458/160 519/459/160
f 502/460/161 202/461/161 501/462/161
f 498/463/162 201/464/162 502/465/162
f 498/466/163 250/467/163 84/143/163
f 504/448/164 250/467/164 503/468/164
f 266/469/165 220/470/165 219/471/165
f 266/469/166 267/208/166 268/472/166
f 452/473/167 266/469/167 219/471/167
f 453/474/168 265/433/168 266/469/168
f 76/475/169 259/476/169 245/477/169
f 259/476/105 246/196/105 245/477/105
f 113/478/12 230/479/12 1/53/12
f 257/480/12 229/295/12 230/479/12
f 124/170/45 242/481/45 62/278/45
f 255/482/45 241/282/45 242/481/45
f 30/245/85 253/483/85 225/77/85
f 225/77/85 254/81/85 226/248/85
f 26/237/81 251/484/81 55/68/81
f 251/484/81 10/240/81 55/68/81
f 248/485/57 189/486/57 85/487/57
f 247/210/57 262/488/57 248/485/57
f 268/472/166 85/487/166 220/470/166
f 267/208/166 248/485/166 268/472/166
f 76/475/170 237/489/170 41/490/170
f 237/489/62 246/196/62 238/197/62
f 262/488/57 64/491/57 189/486/57
f 261/184/57 241/492/57 262/488/57
f 124/170/45 243/493/45 255/482/45
f 255/482/45 244/494/45 256/163/45
f 485/495/171 224/496/171 56/497/171
f 505/498/45 223/147/45 224/496/45
f 41/490/172 235/499/172 42/500/172
f 237/489/34 236/99/34 235/499/34
f 95/105/33 235/499/33 251/484/33
f 251/484/33 236/99/33 252/101/33
f 49/191/173 231/501/173 50/88/173
f 233/502/174 232/79/174 231/501/174
f 99/85/25 231/501/25 253/483/25
f 231/501/25 254/81/25 253/483/25
f 1/503/24 226/248/24 21/247/24
f 230/504/24 225/77/24 226/248/24
f 13/505/20 10/240/20 27/239/20
f 227/69/20 10/240/20 228/506/20
f 264/507/14 61/172/14 191/508/14
f 264/507/14 244/41/14 243/509/14
f 113/478/12 227/510/12 257/480/12
f 257/480/12 228/511/12 258/34/12
f 56/512/175 455/513/175 450/514/175
f 455/513/105 223/515/105 456/16/105
f 84/143/176 264/507/176 191/508/176
f 249/15/177 264/507/177 250/467/177
f 507/516/178 212/517/178 496/518/178
f 507/519/179 317/520/179 318/521/179
f 322/522/180 218/456/180 217/455/180
f 321/430/68 324/523/68 322/522/68
f 469/524/181 322/522/181 217/455/181
f 471/525/68 321/430/68 322/522/68
f 318/526/182 211/428/182 212/517/182
f 318/526/183 319/226/183 320/527/183
f 300/528/13 192/158/13 86/218/13
f 299/225/13 316/529/13 300/528/13
f 145/530/184 295/531/184 77/532/184
f 295/531/185 312/319/185 296/194/185
f 108/533/186 309/534/186 293/535/186
f 293/535/186 310/315/186 294/316/186
f 114/36/12 278/536/12 19/294/12
f 307/537/12 277/75/12 278/536/12
f 125/165/45 290/538/45 64/281/45
f 305/539/45 289/280/45 290/538/45
f 29/540/84 303/541/84 271/542/84
f 271/542/84 304/86/84 272/246/84
f 27/543/82 301/544/82 269/545/82
f 301/544/82 270/242/82 269/545/82
f 320/527/187 86/218/187 211/428/187
f 319/226/188 300/528/188 320/527/188
f 298/546/189 187/547/189 81/13/189
f 298/548/56 313/181/56 314/549/56
f 218/456/190 298/548/190 81/550/190
f 324/523/68 297/213/68 298/548/68
f 77/532/191 285/551/191 43/552/191
f 295/531/192 286/195/192 285/551/192
f 47/553/193 293/535/193 281/554/193
f 293/535/193 282/87/193 281/554/193
f 314/549/56 63/555/56 187/556/56
f 313/181/56 291/557/56 314/549/56
f 125/165/45 291/558/45 305/539/45
f 305/539/45 292/559/45 306/166/45
f 488/151/45 274/560/45 103/561/45
f 510/154/45 274/560/45 509/562/45
f 43/552/32 283/563/32 44/564/32
f 285/551/32 284/94/32 283/563/32
f 96/565/31 283/563/31 301/544/31
f 301/544/31 284/94/31 302/96/31
f 47/553/28 279/566/28 48/567/28
f 279/566/28 282/87/28 280/84/28
f 98/568/27 279/566/27 303/541/27
f 279/566/27 304/86/27 303/541/27
f 19/294/23 272/569/23 30/570/23
f 278/536/23 271/74/23 272/569/23
f 15/48/21 270/571/21 28/572/21
f 275/71/21 270/571/21 276/573/21
f 114/36/12 275/71/12 307/537/12
f 307/537/12 276/573/12 308/47/12
f 316/529/13 69/174/13 192/158/13
f 315/37/13 289/574/13 316/529/13
f 460/575/186 274/576/186 473/577/186
f 274/576/186 474/28/186 473/577/186
f 366/578/194 205/579/194 206/580/194
f 365/413/195 368/581/195 366/582/195
f 441/583/196 206/580/196 428/584/196
f 442/585/197 366/582/197 441/586/197
f 139/587/198 347/588/198 71/589/198
f 359/590/199 348/206/199 347/588/199
f 113/478/12 334/591/12 11/592/12
f 357/593/12 333/291/12 334/591/12
f 66/594/45 355/595/45 346/596/45
f 346/596/45 356/171/45 345/277/45
f 25/235/80 353/597/80 329/65/80
f 353/597/80 330/238/80 329/65/80
f 21/247/76 351/598/76 325/599/76
f 325/599/76 352/128/76 326/231/76
f 368/600/194 88/601/194 205/579/194
f 367/220/194 350/602/194 368/600/194
f 71/589/200 339/603/200 32/82/200
f 347/588/201 340/207/201 339/603/201
f 362/604/202 62/185/202 196/223/202
f 362/604/203 346/177/203 345/605/203
f 364/606/53 65/607/53 194/608/53
f 364/606/53 344/173/53 343/609/53
f 65/610/45 355/595/45 126/611/45
f 343/612/45 356/171/45 355/595/45
f 350/602/53 194/608/53 88/601/53
f 350/602/53 363/144/53 364/606/53
f 511/613/204 196/614/204 490/615/204
f 511/616/205 361/617/205 362/618/205
f 480/619/206 328/620/206 52/621/206
f 513/622/207 327/132/207 328/620/207
f 32/82/208 337/623/208 31/83/208
f 337/623/44 340/207/44 338/126/44
f 100/80/43 337/623/43 351/598/43
f 337/623/43 352/128/43 351/598/43
f 40/624/209 353/597/209 94/111/209
f 353/597/35 336/104/35 354/106/35
f 11/67/19 330/238/19 26/237/19
f 333/66/19 330/238/19 334/625/19
f 3/45/15 326/626/15 22/627/15
f 331/55/15 326/626/15 332/628/15
f 113/478/12 331/55/12 357/593/12
f 357/593/12 332/628/12 358/44/12
f 52/629/210 443/630/210 425/631/210
f 328/632/211 444/3/211 443/630/211
f 477/633/212 409/634/212 142/635/212
f 515/636/213 410/637/213 409/638/213
f 422/639/69 208/407/69 207/406/69
f 421/416/69 424/640/69 422/639/69
f 445/641/69 207/406/69 439/642/69
f 446/414/146 422/639/146 445/641/146
f 204/643/214 420/644/214 203/645/214
f 417/646/215 420/647/215 418/648/215
f 87/649/216 416/650/216 193/176/216
f 400/651/217 415/25/217 416/650/217
f 72/652/2 411/653/2 395/654/2
f 411/653/2 396/204/2 395/654/2
f 106/313/218 409/655/218 393/656/218
f 409/657/219 394/658/219 393/659/219
f 115/46/12 378/660/12 9/290/12
f 407/661/12 377/63/12 378/660/12
f 126/611/45 390/662/45 65/610/45
f 405/663/45 389/284/45 390/662/45
f 24/664/79 403/665/79 373/666/79
f 373/666/79 404/112/79 374/236/79
f 22/667/77 401/668/77 369/669/77
f 401/668/77 370/233/77 369/669/77
f 203/645/220 400/670/220 87/10/220
f 419/671/221 400/651/221 420/647/221
f 424/640/146 83/222/146 208/407/146
f 423/214/146 398/672/146 424/640/146
f 33/673/65 395/654/65 385/674/65
f 395/654/65 386/205/65 385/674/65
f 37/119/222 393/656/222 381/675/222
f 393/659/222 382/676/222 381/677/222
f 398/672/55 188/32/55 83/222/55
f 397/198/55 414/678/55 398/672/55
f 414/678/55 67/42/55 188/32/55
f 413/178/55 389/679/55 414/678/55
f 126/611/45 391/680/45 405/663/45
f 405/663/45 392/681/45 406/160/45
f 481/131/45 372/682/45 51/683/45
f 518/136/45 372/682/45 517/684/45
f 33/673/42 383/685/42 34/686/42
f 383/685/42 386/205/42 384/121/42
f 91/687/41 383/685/41 401/668/41
f 383/685/41 402/123/41 401/668/41
f 37/119/223 379/688/223 38/120/223
f 381/675/223 380/113/223 379/688/223
f 93/689/37 379/690/37 403/665/37
f 403/665/37 380/110/37 404/112/37
f 9/290/18 374/691/18 25/692/18
f 377/63/18 374/691/18 378/660/18
f 5/51/16 370/693/16 23/694/16
f 376/695/16 369/56/16 370/693/16
f 115/46/12 375/57/12 407/661/12
f 407/661/12 376/695/12 408/50/12
f 416/650/224 66/696/224 193/176/224
f 416/650/9 392/27/9 391/697/9
f 429/698/2 372/699/2 447/700/2
f 372/699/2 448/6/2 447/700/2
f 447/700/2 412/327/2 411/653/2
f 140/701/2 447/700/2 411/653/2
f 388/702/146 445/641/146 387/703/146
f 387/703/146 439/642/146 6/704/146
f 443/630/225 360/328/225 359/590/225
f 425/631/226 359/590/226 139/587/226
f 342/705/227 441/586/227 341/706/227
f 341/707/194 428/584/194 4/708/194
f 519/459/228 2/709/228 480/710/228
f 142/711/229 520/712/229 477/713/229
f 388/702/146 428/714/146 446/414/146
f 2/709/230 442/585/230 342/705/230
f 122/715/95 439/642/95 440/405/95
f 122/715/231 426/399/231 8/716/231
f 159/717/232 435/24/232 177/23/232
f 437/389/233 172/718/233 154/719/233
f 437/339/234 170/341/234 157/720/234
f 170/341/234 438/332/234 159/721/234
f 432/314/88 102/722/88 53/249/88
f 432/304/235 175/372/235 149/324/235
f 150/312/236 431/259/236 142/723/236
f 54/724/237 435/24/237 185/391/237
f 448/6/2 141/257/2 412/327/2
f 444/3/1 140/725/1 360/328/1
f 455/513/105 260/320/105 259/476/105
f 144/726/238 455/513/238 259/476/238
f 239/727/168 454/431/168 453/474/168
f 14/728/239 453/474/239 452/473/239
f 486/729/240 451/443/240 57/730/240
f 12/731/241 454/431/241 240/732/241
f 479/150/242 449/733/242 522/422/242
f 260/320/243 451/18/243 145/734/243
f 473/577/186 310/315/186 309/534/186
f 147/735/186 473/577/186 309/534/186
f 287/736/244 472/429/244 471/525/244
f 20/737/245 471/525/245 469/524/245
f 523/738/246 60/29/246 489/739/246
f 104/740/247 524/445/247 487/741/247
f 288/742/68 458/420/68 472/429/68
f 123/743/96 457/427/96 470/418/96
f 123/743/96 458/420/96 18/744/96
f 163/745/248 465/362/248 181/301/248
f 467/337/249 174/746/249 156/336/249
f 59/747/250 465/362/250 186/395/250
f 462/353/251 179/376/251 151/305/251
f 467/337/252 169/344/252 161/392/252
f 169/344/252 468/335/252 163/748/252
f 58/252/253 459/310/253 104/749/253
f 152/308/91 460/266/91 147/750/91
f 310/315/254 461/30/254 148/751/254
f 16/752/255 524/445/255 457/753/255
f 20/737/256 523/754/256 489/755/256
f 144/726/257 522/756/257 450/514/257
f 14/728/258 521/757/258 486/758/258
f 200/401/259 520/759/259 426/399/259
f 425/760/260 480/710/260 52/761/260
f 387/762/45 517/684/45 388/763/45
f 4/764/45 517/684/45 481/131/45
f 418/648/261 515/765/261 417/646/261
f 200/401/262 515/766/262 477/767/262
f 342/768/263 514/133/263 513/622/263
f 2/769/264 513/622/264 480/619/264
f 336/770/265 512/771/265 511/616/265
f 336/772/266 490/615/266 42/773/266
f 287/774/45 509/562/45 288/775/45
f 18/776/45 509/562/45 488/151/45
f 311/777/267 507/778/267 312/779/267
f 312/779/268 496/780/268 146/781/268
f 240/782/45 506/148/45 505/498/45
f 12/783/269 505/498/269 485/495/269
f 234/784/270 504/785/270 503/786/270
f 234/784/271 498/787/271 32/788/271
f 71/789/272 498/463/272 502/465/272
f 139/587/273 502/790/273 501/791/273
f 139/792/274 519/459/274 425/760/274
f 80/190/275 500/793/275 499/794/275
f 469/524/276 500/795/276 523/754/276
f 49/191/277 499/794/277 497/796/277
f 233/797/278 497/798/278 504/785/278
f 457/427/279 496/518/279 212/517/279
f 311/777/280 495/799/280 508/800/280
f 452/473/281 495/801/281 521/757/281
f 520/759/282 8/716/282 426/399/282
f 204/643/283 516/802/283 418/803/283
f 522/422/284 56/804/284 450/805/284
f 41/490/285 490/806/285 494/807/285
f 6/808/45 493/137/45 482/134/45
f 16/809/286 492/153/286 487/285/286
f 203/645/287 478/12/287 475/187/287
f 20/737/288 510/810/288 287/736/288
f 18/776/45 492/153/45 123/811/45
f 76/812/289 479/150/289 144/813/289
f 14/814/290 506/148/290 239/815/290
f 335/816/291 484/817/291 512/818/291
f 8/819/292 493/137/292 122/820/292
f 6/808/45 518/136/45 387/762/45
f 4/764/45 514/133/45 341/821/45
f 475/187/293 204/643/293 203/645/293
f 215/822/294 494/823/294 90/824/294
f 39/825/295 484/817/295 40/826/295
f 327/1/1 51/827/1 429/2/1
f 371/4/2 102/722/2 430/5/2
f 79/7/296 137/355/296 183/8/296
f 87/10/297 193/828/297 484/11/297
f 81/13/298 187/547/298 263/14/298
f 456/16/299 223/515/299 57/17/299
f 476/19/300 76/812/300 41/20/300
f 433/22/301 150/317/301 177/23/301
f 415/25/9 190/398/9 68/26/9
f 474/28/302 273/829/302 60/29/302
f 132/31/11 83/222/11 188/32/11
f 258/34/12 228/511/12 13/35/12
f 315/37/13 189/396/13 64/38/13
f 263/14/14 187/547/14 63/40/14
f 198/33/11 188/32/11 67/42/11
f 358/44/12 332/628/12 3/45/12
f 308/47/12 276/573/12 15/48/12
f 408/50/12 376/695/12 5/51/12
f 1/53/15 21/830/15 325/54/15
f 3/45/16 22/627/16 369/56/16
f 5/58/17 23/232/17 109/59/17
f 7/61/18 24/831/18 373/62/18
f 9/64/19 25/235/19 329/65/19
f 11/67/20 26/237/20 55/68/20
f 13/35/21 27/832/21 269/70/21
f 15/48/22 28/572/22 111/72/22
f 17/73/23 29/288/23 271/74/23
f 19/76/24 30/245/24 225/77/24
f 232/79/25 31/83/25 100/80/25
f 232/79/303 234/833/303 32/82/303
f 280/84/27 50/88/27 99/85/27
f 282/87/304 49/191/304 50/88/304
f 118/89/29 48/93/29 98/90/29
f 118/89/30 119/193/30 47/92/30
f 284/94/31 46/98/31 97/95/31
f 284/94/32 286/195/32 45/97/32
f 236/99/33 44/103/33 96/100/33
f 236/99/34 238/197/34 43/102/34
f 336/104/305 42/500/305 95/105/305
f 75/107/306 143/834/306 491/108/306
f 380/110/307 40/624/307 94/111/307
f 380/113/308 382/200/308 39/114/308
f 120/116/39 38/120/39 93/117/39
f 120/116/40 121/203/40 37/119/40
f 384/121/41 36/125/41 92/122/41
f 384/121/42 386/205/42 35/124/42
f 338/126/43 34/130/43 91/127/43
f 338/126/44 340/207/44 33/129/44
f 481/131/45 51/683/45 327/132/45
f 482/134/45 102/287/45 371/135/45
f 493/137/309 483/835/309 101/138/309
f 484/140/310 193/176/310 361/141/310
f 84/143/311 191/508/311 363/144/311
f 486/146/312 57/836/312 223/147/312
f 476/19/313 215/837/313 216/149/313
f 488/151/45 103/561/45 112/152/45
f 510/154/314 489/838/314 60/155/314
f 131/157/52 86/218/52 192/158/52
f 406/160/45 392/681/45 68/161/45
f 256/163/45 244/494/45 63/164/45
f 306/166/45 292/559/45 70/167/45
f 344/169/45 61/839/45 124/170/45
f 363/144/53 191/508/53 61/172/53
f 197/159/52 192/158/52 69/174/52
f 193/176/315 66/696/315 346/177/315
f 413/178/55 194/199/55 65/179/55
f 313/181/56 195/216/56 70/182/56
f 261/184/316 196/223/316 62/185/316
f 475/187/317 478/12/317 39/188/317
f 282/87/318 294/316/318 80/190/318
f 129/192/60 108/309/60 47/92/60
f 296/194/319 107/262/319 45/97/319
f 246/196/62 77/321/62 43/102/62
f 397/198/55 88/215/55 194/199/55
f 382/200/320 394/322/320 75/201/320
f 130/202/64 106/313/64 37/119/64
f 396/204/65 105/256/65 35/124/65
f 348/206/66 72/329/66 33/129/66
f 267/208/321 215/434/321 90/209/321
f 323/211/68 213/276/68 89/212/68
f 423/214/146 205/417/146 88/215/146
f 297/213/56 89/212/56 195/216/56
f 222/217/96 211/428/96 86/218/96
f 201/219/322 84/143/322 349/145/322
f 210/221/95 208/407/95 83/222/95
f 247/210/323 90/209/323 196/223/323
f 220/224/324 85/840/324 299/225/324
f 419/227/325 199/275/325 82/228/325
f 352/128/76 91/127/76 22/230/76
f 402/123/77 92/122/77 23/232/77
f 133/118/78 93/117/78 24/234/78
f 404/112/79 94/111/79 25/235/79
f 354/106/80 95/105/80 26/237/80
f 252/101/81 96/100/81 27/239/81
f 302/96/82 97/95/82 28/241/82
f 134/91/83 98/90/83 29/243/83
f 304/86/84 99/85/84 30/245/84
f 254/81/85 100/80/85 21/247/85
f 53/249/88 102/722/88 110/250/88
f 58/252/326 104/749/326 112/253/326
f 149/255/88 73/271/88 105/256/88
f 54/258/327 101/274/327 431/259/327
f 151/261/91 78/272/91 107/262/91
f 463/264/91 59/273/91 103/265/91
f 79/267/91 108/309/91 129/192/91
f 74/269/88 106/313/88 130/202/88
f 73/271/328 138/270/328 130/202/328
f 78/272/329 137/268/329 129/192/329
f 59/273/330 136/254/330 112/253/330
f 54/258/331 135/251/331 110/250/331
f 28/241/83 97/95/83 134/91/83
f 23/232/78 92/122/78 133/118/78
f 210/221/72 132/31/72 82/228/72
f 222/217/70 131/157/70 89/212/70
f 35/124/64 105/256/64 130/202/64
f 45/97/60 107/262/60 129/192/60
f 197/159/52 128/175/52 70/182/52
f 345/277/45 356/171/45 124/170/45
f 306/166/45 128/168/45 69/279/45
f 256/163/45 125/165/45 64/281/45
f 406/160/45 127/162/45 67/283/45
f 487/285/332 492/153/332 112/152/332
f 482/134/45 493/137/45 110/139/45
f 35/124/40 121/203/40 120/116/40
f 92/122/39 36/125/39 120/116/39
f 45/97/30 119/193/30 118/89/30
f 97/95/29 46/98/29 118/89/29
f 17/73/22 117/49/22 111/72/22
f 7/289/17 116/60/17 109/59/17
f 408/50/12 116/52/12 7/61/12
f 308/47/12 117/49/12 17/73/12
f 358/44/12 115/46/12 9/290/12
f 198/33/11 127/43/11 68/292/11
f 258/34/12 114/36/12 19/294/12
f 135/296/333 54/841/333 185/297/333
f 152/299/334 79/842/334 182/300/334
f 53/302/335 172/718/335 434/303/335
f 151/305/336 179/376/336 180/306/336
f 152/308/91 147/750/91 108/309/91
f 151/261/337 146/263/337 459/310/337
f 150/312/338 142/723/338 106/313/338
f 149/255/88 141/257/88 430/5/88
f 131/157/52 197/159/52 195/216/52
f 310/315/339 148/751/339 80/190/339
f 150/317/340 74/843/340 178/318/340
f 312/319/341 146/263/341 107/262/341
f 260/320/342 145/734/342 77/321/342
f 132/31/11 198/33/11 190/293/11
f 394/322/343 410/844/343 143/323/343
f 149/324/344 175/372/344 176/325/344
f 412/327/2 141/257/2 105/256/2
f 360/328/1 140/725/1 72/329/1
f 436/330/345 153/845/345 167/331/345
f 466/333/346 155/846/346 168/334/346
f 156/336/347 155/846/347 466/333/347
f 154/338/348 153/845/348 436/330/348
f 158/340/349 157/720/349 170/341/349
f 162/343/350 161/392/350 169/344/350
f 169/344/350 163/748/350 164/346/350
f 170/341/349 159/721/349 160/347/349
f 136/348/351 59/847/351 186/349/351
f 58/351/352 174/848/352 464/352/352
f 78/354/353 180/386/353 183/8/353
f 74/356/354 138/364/354 184/357/354
f 135/296/355 171/298/355 172/359/355
f 463/361/356 152/299/356 181/301/356
f 73/363/357 176/388/357 184/357/357
f 136/348/358 173/350/358 174/365/358
f 154/367/359 172/359/359 171/298/359
f 156/369/360 174/365/360 173/350/360
f 158/371/361 176/325/361 175/372/361
f 160/374/362 159/717/362 177/23/362
f 162/375/363 180/306/363 179/376/363
f 164/378/364 163/745/364 181/301/364
f 164/379/365 182/9/365 183/8/365
f 160/381/366 178/358/366 184/357/366
f 167/383/367 153/368/367 171/298/367
f 168/384/368 155/370/368 173/350/368
f 162/385/369 165/380/369 183/8/369
f 158/387/370 166/382/370 184/357/370
f 157/373/371 175/372/371 434/303/371
f 438/390/372 167/849/372 185/391/372
f 161/392/373 179/850/373 464/393/373
f 468/394/374 168/851/374 186/395/374
f 299/225/13 85/840/13 189/396/13
f 399/397/9 82/852/9 190/398/9
f 426/399/375 440/405/375 209/400/375
f 209/400/95 210/221/95 199/275/95
f 490/402/376 196/223/376 90/209/376
f 417/404/377 200/401/377 199/275/377
f 440/405/72 439/642/72 207/406/72
f 209/400/95 207/406/95 208/407/95
f 427/408/378 202/853/378 365/409/378
f 202/411/379 201/854/379 367/412/379
f 446/414/146 428/714/146 206/415/146
f 421/416/69 206/415/69 205/417/69
f 470/418/70 221/421/70 214/419/70
f 221/421/96 222/217/96 213/276/96
f 522/422/380 449/733/380 12/423/380
f 219/425/381 220/224/381 319/226/381
f 457/427/382 212/517/382 221/421/382
f 221/421/383 212/517/383 211/428/383
f 472/429/68 458/420/68 214/419/68
f 321/430/68 214/419/68 213/276/68
f 454/431/384 449/855/384 216/432/384
f 265/433/385 216/432/385 215/434/385
f 516/435/386 491/856/386 143/436/386
f 431/438/387 101/857/387 483/439/387
f 521/441/388 495/858/388 145/442/388
f 508/444/389 495/859/389 219/425/389
f 524/445/390 459/860/390 146/446/390
f 504/448/391 497/449/391 81/13/391
f 497/449/392 499/861/392 218/450/392
f 523/451/393 500/862/393 148/452/393
f 499/454/394 500/795/394 217/455/394
f 501/457/395 202/411/395 427/458/395
f 502/460/396 201/863/396 202/461/396
f 498/463/397 84/864/397 201/464/397
f 498/466/398 503/468/398 250/467/398
f 504/448/399 249/15/399 250/467/399
f 266/469/166 268/472/166 220/470/166
f 266/469/166 265/433/166 267/208/166
f 452/473/400 453/474/400 266/469/400
f 453/474/166 454/431/166 265/433/166
f 76/475/401 144/726/401 259/476/401
f 259/476/105 260/320/105 246/196/105
f 113/478/12 257/480/12 230/479/12
f 257/480/12 258/34/12 229/295/12
f 124/170/45 255/482/45 242/481/45
f 255/482/45 256/163/45 241/282/45
f 30/245/85 99/85/85 253/483/85
f 225/77/85 253/483/85 254/81/85
f 26/237/81 95/105/81 251/484/81
f 251/484/81 252/101/81 10/240/81
f 248/485/57 262/488/57 189/486/57
f 247/210/57 261/184/57 262/488/57
f 268/472/166 248/485/166 85/487/166
f 267/208/166 247/210/166 248/485/166
f 76/475/402 245/477/402 237/489/402
f 237/489/62 245/477/62 246/196/62
f 262/488/57 241/492/57 64/491/57
f 261/184/57 242/186/57 241/492/57
f 124/170/45 61/839/45 243/493/45
f 255/482/45 243/493/45 244/494/45
f 485/495/403 505/498/403 224/496/403
f 505/498/45 506/148/45 223/147/45
f 41/490/404 237/489/404 235/499/404
f 237/489/34 238/197/34 236/99/34
f 95/105/405 42/500/405 235/499/405
f 251/484/33 235/499/33 236/99/33
f 49/191/406 233/502/406 231/501/406
f 233/502/407 234/833/407 232/79/407
f 99/85/25 50/88/25 231/501/25
f 231/501/25 232/79/25 254/81/25
f 1/503/24 230/504/24 226/248/24
f 230/504/24 229/78/24 225/77/24
f 13/505/20 228/506/20 10/240/20
f 227/69/20 55/68/20 10/240/20
f 264/507/14 243/509/14 61/172/14
f 264/507/14 263/14/14 244/41/14
f 113/478/12 11/592/12 227/510/12
f 257/480/12 227/510/12 228/511/12
f 56/512/408 224/865/408 455/513/408
f 455/513/105 224/865/105 223/515/105
f 84/143/409 250/467/409 264/507/409
f 249/15/410 263/14/410 264/507/410
f 507/516/411 318/526/411 212/517/411
f 507/519/412 508/866/412 317/520/412
f 322/522/413 324/523/413 218/456/413
f 321/430/68 323/211/68 324/523/68
f 469/524/414 471/525/414 322/522/414
f 471/525/68 472/429/68 321/430/68
f 318/526/415 320/527/415 211/428/415
f 318/526/416 317/426/416 319/226/416
f 300/528/13 316/529/13 192/158/13
f 299/225/13 315/37/13 316/529/13
f 145/530/417 311/867/417 295/531/417
f 295/531/418 311/867/418 312/319/418
f 108/533/186 147/735/186 309/534/186
f 293/535/186 309/534/186 310/315/186
f 114/36/12 307/537/12 278/536/12
f 307/537/12 308/47/12 277/75/12
f 125/165/45 305/539/45 290/538/45
f 305/539/45 306/166/45 289/280/45
f 29/540/84 98/568/84 303/541/84
f 271/542/84 303/541/84 304/86/84
f 27/543/82 96/565/82 301/544/82
f 301/544/82 302/96/82 270/242/82
f 320/527/419 300/528/419 86/218/419
f 319/226/420 299/225/420 300/528/420
f 298/546/56 314/868/56 187/547/56
f 298/548/56 297/213/56 313/181/56
f 218/456/413 324/523/413 298/548/413
f 324/523/68 323/211/68 297/213/68
f 77/532/421 295/531/421 285/551/421
f 295/531/422 296/194/422 286/195/422
f 47/553/193 108/533/193 293/535/193
f 293/535/193 294/316/193 282/87/193
f 314/549/56 291/557/56 63/555/56
f 313/181/56 292/183/56 291/557/56
f 125/165/45 63/164/45 291/558/45
f 305/539/45 291/558/45 292/559/45
f 488/151/45 509/562/45 274/560/45
f 510/154/45 273/156/45 274/560/45
f 43/552/32 285/551/32 283/563/32
f 285/551/32 286/195/32 284/94/32
f 96/565/31 44/564/31 283/563/31
f 301/544/31 283/563/31 284/94/31
f 47/553/28 281/554/28 279/566/28
f 279/566/28 281/554/28 282/87/28
f 98/568/27 48/567/27 279/566/27
f 279/566/27 280/84/27 304/86/27
f 19/294/23 278/536/23 272/569/23
f 278/536/23 277/75/23 271/74/23
f 15/48/21 276/573/21 270/571/21
f 275/71/21 269/70/21 270/571/21
f 114/36/12 13/35/12 275/71/12
f 307/537/12 275/71/12 276/573/12
f 316/529/13 289/574/13 69/174/13
f 315/37/13 290/39/13 289/574/13
f 460/575/186 103/869/186 274/576/186
f 274/576/186 273/829/186 474/28/186
f 366/578/194 368/600/194 205/579/194
f 365/413/423 367/412/423 368/581/423
f 441/583/196 366/578/196 206/580/196
f 442/585/424 365/413/424 366/582/424
f 139/587/425 359/590/425 347/588/425
f 359/590/426 360/328/426 348/206/426
f 113/478/12 357/593/12 334/591/12
f 357/593/12 358/44/12 333/291/12
f 66/594/45 126/611/45 355/595/45
f 346/596/45 355/595/45 356/171/45
f 25/235/80 94/111/80 353/597/80
f 353/597/80 354/106/80 330/238/80
f 21/247/76 100/80/76 351/598/76
f 325/599/76 351/598/76 352/128/76
f 368/600/194 350/602/194 88/601/194
f 367/220/194 349/145/194 350/602/194
f 71/589/427 347/588/427 339/603/427
f 347/588/428 348/206/428 340/207/428
f 362/604/203 345/605/203 62/185/203
f 362/604/429 361/141/429 346/177/429
f 364/606/53 343/609/53 65/607/53
f 364/606/53 363/144/53 344/173/53
f 65/610/45 343/612/45 355/595/45
f 343/612/45 344/169/45 356/171/45
f 350/602/53 364/606/53 194/608/53
f 350/602/53 349/145/53 363/144/53
f 511/613/430 362/870/430 196/614/430
f 511/616/431 512/771/431 361/617/431
f 480/619/432 513/622/432 328/620/432
f 513/622/433 514/133/433 327/132/433
f 32/82/434 339/603/434 337/623/434
f 337/623/44 339/603/44 340/207/44
f 100/80/43 31/83/43 337/623/43
f 337/623/43 338/126/43 352/128/43
f 40/624/435 335/871/435 353/597/435
f 353/597/436 335/871/436 336/104/436
f 11/67/19 334/625/19 330/238/19
f 333/66/19 329/65/19 330/238/19
f 3/45/15 332/628/15 326/626/15
f 331/55/15 325/54/15 326/626/15
f 113/478/12 1/53/12 331/55/12
f 357/593/12 331/55/12 332/628/12
f 52/629/437 328/632/437 443/630/437
f 328/632/438 327/1/438 444/3/438
f 477/633/439 515/872/439 409/634/439
f 515/636/440 516/873/440 410/637/440
f 422/639/69 424/640/69 208/407/69
f 421/416/69 423/214/69 424/640/69
f 445/641/146 422/639/146 207/406/146
f 446/414/69 421/416/69 422/639/69
f 204/643/441 418/803/441 420/644/441
f 417/646/442 419/671/442 420/647/442
f 87/649/443 400/651/443 416/650/443
f 400/651/444 399/397/444 415/25/444
f 72/652/2 140/701/2 411/653/2
f 411/653/2 412/327/2 396/204/2
f 106/313/445 142/723/445 409/655/445
f 409/657/446 410/874/446 394/658/446
f 115/46/12 407/661/12 378/660/12
f 407/661/12 408/50/12 377/63/12
f 126/611/45 405/663/45 390/662/45
f 405/663/45 406/160/45 389/284/45
f 24/664/79 93/689/79 403/665/79
f 373/666/79 403/665/79 404/112/79
f 22/667/77 91/687/77 401/668/77
f 401/668/77 402/123/77 370/233/77
f 203/645/447 420/644/447 400/670/447
f 419/671/448 399/397/448 400/651/448
f 424/640/146 398/672/146 83/222/146
f 423/214/69 397/198/69 398/672/69
f 33/673/65 72/652/65 395/654/65
f 395/654/65 396/204/65 386/205/65
f 37/119/449 106/313/449 393/656/449
f 393/659/450 394/658/450 382/676/450
f 398/672/55 414/678/55 188/32/55
f 397/198/55 413/178/55 414/678/55
f 414/678/55 389/679/55 67/42/55
f 413/178/55 390/180/55 389/679/55
f 126/611/45 66/594/45 391/680/45
f 405/663/45 391/680/45 392/681/45
f 481/131/45 517/684/45 372/682/45
f 518/136/45 371/135/45 372/682/45
f 33/673/42 385/674/42 383/685/42
f 383/685/42 385/674/42 386/205/42
f 91/687/41 34/686/41 383/685/41
f 383/685/41 384/121/41 402/123/41
f 37/119/223 381/675/223 379/688/223
f 381/675/223 382/200/223 380/113/223
f 93/689/37 38/875/37 379/690/37
f 403/665/37 379/690/37 380/110/37
f 9/290/18 378/660/18 374/691/18
f 377/63/18 373/62/18 374/691/18
f 5/51/16 376/695/16 370/693/16
f 376/695/16 375/57/16 369/56/16
f 115/46/12 3/45/12 375/57/12
f 407/661/12 375/57/12 376/695/12
f 416/650/9 391/697/9 66/696/9
f 416/650/9 415/25/9 392/27/9
f 429/698/2 51/876/2 372/699/2
f 372/699/2 371/4/2 448/6/2
f 447/700/2 448/6/2 412/327/2
f 140/701/2 429/698/2 447/700/2
f 388/702/69 446/414/69 445/641/69
f 387/703/146 445/641/146 439/642/146
f 443/630/451 444/3/451 360/328/451
f 425/631/452 443/630/452 359/590/452
f 342/705/453 442/585/453 441/586/453
f 341/707/194 441/583/194 428/584/194
f 519/459/454 427/458/454 2/709/454
f 142/711/455 431/877/455 520/712/455
f 388/702/146 4/878/146 428/714/146
f 2/709/456 427/458/456 442/585/456
f 122/715/95 6/704/95 439/642/95
f 122/715/375 440/405/375 426/399/375
f 159/717/457 438/390/457 435/24/457
f 437/389/458 434/303/458 172/718/458
f 437/339/459 436/330/459 170/341/459
f 170/341/460 436/330/460 438/332/460
f 432/314/88 430/5/88 102/722/88
f 432/304/461 434/303/461 175/372/461
f 150/312/89 433/260/89 431/259/89
f 54/724/462 433/22/462 435/24/462
f 448/6/2 430/5/2 141/257/2
f 444/3/1 429/2/1 140/725/1
f 455/513/105 456/16/105 260/320/105
f 144/726/463 450/514/463 455/513/463
f 239/727/166 240/732/166 454/431/166
f 14/728/464 239/727/464 453/474/464
f 486/729/465 521/441/465 451/443/465
f 12/731/466 449/855/466 454/431/466
f 479/150/467 216/149/467 449/733/467
f 260/320/468 456/16/468 451/18/468
f 473/577/186 474/28/186 310/315/186
f 147/735/186 460/575/186 473/577/186
f 287/736/68 288/742/68 472/429/68
f 20/737/469 287/736/469 471/525/469
f 523/738/470 461/30/470 60/29/470
f 104/740/471 459/860/471 524/445/471
f 288/742/68 18/744/68 458/420/68
f 123/743/472 16/879/472 457/427/472
f 123/743/96 470/418/96 458/420/96
f 163/745/473 468/394/473 465/362/473
f 467/337/474 464/393/474 174/746/474
f 59/747/475 463/361/475 465/362/475
f 462/353/476 464/352/476 179/376/476
f 467/337/477 466/333/477 169/344/477
f 169/344/478 466/333/478 468/335/478
f 58/252/91 462/311/91 459/310/91
f 152/308/91 463/264/91 460/266/91
f 310/315/479 474/28/479 461/30/479
f 16/752/247 487/741/247 524/445/247
f 20/737/480 469/524/480 523/754/480
f 144/726/481 479/880/481 522/756/481
f 14/728/482 452/473/482 521/757/482
f 200/401/483 477/767/483 520/759/483
f 425/760/484 519/459/484 480/710/484
f 387/762/45 518/136/45 517/684/45
f 4/764/45 388/763/45 517/684/45
f 418/648/485 516/881/485 515/765/485
f 200/401/486 417/404/486 515/766/486
f 342/768/487 341/821/487 514/133/487
f 2/769/488 342/768/488 513/622/488
f 336/770/489 335/882/489 512/771/489
f 336/772/490 511/613/490 490/615/490
f 287/774/45 510/154/45 509/562/45
f 18/776/45 288/775/45 509/562/45
f 311/777/491 508/800/491 507/778/491
f 312/779/492 507/778/492 496/780/492
f 240/782/45 239/815/45 506/148/45
f 12/783/493 240/782/493 505/498/493
f 234/784/494 233/797/494 504/785/494
f 234/784/495 503/786/495 498/787/495
f 71/789/496 32/883/496 498/463/496
f 139/587/497 71/589/497 502/790/497
f 139/792/498 501/457/498 519/459/498
f 80/190/499 148/751/499 500/793/499
f 469/524/500 217/455/500 500/795/500
f 49/191/501 80/190/501 499/794/501
f 233/797/502 49/884/502 497/798/502
f 457/427/503 524/885/503 496/518/503
f 311/777/504 145/886/504 495/799/504
f 452/473/505 219/471/505 495/801/505
f 520/759/506 483/887/506 8/716/506
f 204/643/507 491/888/507 516/802/507
f 522/422/508 485/424/508 56/804/508
f 41/490/509 42/500/509 490/806/509
f 6/808/45 122/820/45 493/137/45
f 16/809/510 123/811/510 492/153/510
f 203/645/511 87/10/511 478/12/511
f 20/737/512 489/755/512 510/810/512
f 18/776/45 488/151/45 492/153/45
f 76/812/513 476/19/513 479/150/513
f 14/814/514 486/146/514 506/148/514
f 335/816/515 40/826/515 484/817/515
f 8/819/516 483/835/516 493/137/516
f 6/808/45 482/134/45 518/136/45
f 4/764/45 481/131/45 514/133/45
f 475/187/517 491/888/517 204/643/517
f 215/822/518 476/889/518 494/823/518
f 39/825/4 478/890/4 484/817/4
g cooking_pot_shotdamaged_handle_Mesh
v 0.185713 0.197242 0.002577
v 0.183010 0.197242 0.006511
v 0.179968 0.197242 0.008482
v 0.177821 0.197242 0.005742
v 0.177821 0.197242 -0.000587
v 0.179968 0.197242 -0.003327
v 0.183010 0.197242 -0.001357
v 0.164975 0.261952 0.002577
v 0.162574 0.259791 0.006511
v 0.159873 0.258176 0.008482
v 0.157966 0.256528 0.005742
v 0.157966 0.256528 -0.000587
v 0.159873 0.258176 -0.003327
v 0.162574 0.259791 -0.001357
v 0.113489 0.315923 0.002577
v 0.111839 0.312748 0.006511
v 0.109982 0.309755 0.008482
v 0.108671 0.307099 0.005742
v 0.108671 0.307099 -0.000587
v 0.109982 0.309755 -0.003327
v 0.111839 0.312748 -0.001357
v -0.112912 0.315923 0.002577
v -0.111262 0.312748 0.006511
v -0.109405 0.309755 0.008482
v -0.108094 0.307099 0.005742
v -0.108094 0.307099 -0.000587
v -0.109405 0.309755 -0.003327
v -0.111262 0.312748 -0.001357
v -0.164398 0.261952 0.002577
v -0.161997 0.259791 0.006511
v -0.159296 0.258176 0.008482
v -0.157389 0.256528 0.005742
v -0.157389 0.256528 -0.000587
v -0.159296 0.258176 -0.003327
v -0.161997 0.259791 -0.001357
v -0.185136 0.197242 0.002577
v -0.182433 0.197242 0.006511
v -0.179391 0.197242 0.008482
v -0.177244 0.197242 0.005742
v -0.177244 0.197242 -0.000587
v -0.179391 0.197242 -0.003327
v -0.182433 0.197242 -0.001357
v 0.032876 0.343643 0.002577
v -0.032299 0.343643 0.002577
v -0.032872 0.340234 0.006511
v 0.033449 0.340234 0.006511
v -0.033273 0.337159 0.008482
v 0.033850 0.337159 0.008482
v -0.034590 0.334472 0.005742
v 0.035167 0.334472 0.005742
v -0.034590 0.334472 -0.000587
v 0.035167 0.334472 -0.000587
v -0.033273 0.337159 -0.003327
v 0.033850 0.337159 -0.003327
v -0.032872 0.340234 -0.001357
v 0.033449 0.340234 -0.001357
v 0.185713 0.178785 0.002577
v 0.183010 0.178785 0.006511
v 0.179968 0.178785 0.008482
v 0.177821 0.178785 0.005742
v 0.177821 0.178785 -0.000587
v 0.179968 0.178785 -0.003327
v 0.183010 0.178785 -0.001357
v -0.185136 0.178785 0.002577
v -0.182433 0.178785 0.006511
v -0.179391 0.178785 0.008482
v -0.177244 0.178785 0.005742
v -0.177244 0.178785 -0.000587
v -0.179391 0.178785 -0.003327
v -0.182433 0.178785 -0.001357
vn 0.7959 0.2600 0.5468
vn 0.5353 0.1749 0.8263
vn -0.7611 -0.2549 0.5965
vn -0.9482 -0.3176 -0.0000
vn -0.7611 -0.2549 -0.5965
vn 0.5353 0.1749 -0.8263
vn 0.7959 0.2600 -0.5468
vn 0.5582 0.5348 0.6344
vn 0.3888 0.3761 0.8411
vn -0.5274 -0.5141 0.6764
vn -0.7161 -0.6980 -0.0000
vn -0.5274 -0.5141 -0.6764
vn 0.3888 0.3761 -0.8411
vn 0.5582 0.5348 -0.6344
vn -0.2574 0.7486 -0.6111
vn -0.1918 0.5470 0.8148
vn 0.2696 -0.7491 0.6051
vn 0.3490 -0.9371 -0.0000
vn 0.2696 -0.7491 -0.6051
vn -0.1918 0.5470 -0.8148
vn 0.2459 0.7012 0.6692
vn 0.1681 0.4671 0.8681
vn -0.2376 -0.6382 0.7323
vn -0.3490 -0.9371 -0.0000
vn -0.2376 -0.6382 -0.7323
vn 0.1681 0.4671 -0.8681
vn -0.2574 0.7486 0.6111
vn -0.5484 0.5232 0.6523
vn -0.3611 0.3460 0.8659
vn 0.5037 -0.4872 0.7133
vn 0.7161 -0.6980 -0.0000
vn 0.5037 -0.4872 -0.7133
vn -0.3611 0.3460 -0.8659
vn -0.5484 0.5232 -0.6523
vn -0.7623 0.2443 0.5993
vn -0.5128 0.1691 0.8417
vn 0.7238 -0.2387 0.6474
vn 0.9482 -0.3176 -0.0000
vn 0.7238 -0.2387 -0.6474
vn -0.5128 0.1691 -0.8417
vn -0.7623 0.2443 -0.5993
vn -0.0000 0.7558 0.6548
vn -0.0000 0.5395 0.8420
vn -0.0000 -0.7139 0.7002
vn -0.0000 -1.0000 -0.0000
vn -0.0000 -0.7139 -0.7002
vn -0.0000 0.5395 -0.8420
vn -0.0000 0.7558 -0.6548
vn 0.2459 0.7012 -0.6692
vn -0.5437 -0.0000 -0.8393
vn 0.5437 -0.0000 -0.8393
vn 0.7871 -0.0000 0.6169
vn -0.8242 -0.0000 -0.5663
vn -1.0000 -0.0000 -0.0000
vn 1.0000 -0.0000 -0.0000
vn 0.5437 -0.0000 0.8393
vn 0.8242 -0.0000 -0.5663
vn -0.8242 -0.0000 0.5663
vn -0.7871 -0.0000 -0.6169
vn 0.7871 -0.0000 -0.6169
vn -0.7871 -0.0000 0.6169
vn -0.5437 -0.0000 0.8393
vn 0.8242 -0.0000 0.5663
vn 0.7623 0.2443 0.5993
vn 0.5128 0.1691 0.8417
vn -0.7238 -0.2387 0.6474
vn -0.7238 -0.2387 -0.6474
vn 0.5128 0.1691 -0.8417
vn 0.7623 0.2443 -0.5993
vn 0.5484 0.5232 0.6523
vn 0.3611 0.3460 0.8659
vn -0.5037 -0.4872 0.7133
vn -0.5037 -0.4872 -0.7133
vn 0.3611 0.3460 -0.8659
vn 0.5484 0.5232 -0.6523
vn -0.2459 0.7012 -0.6692
vn -0.1681 0.4671 0.8681
vn 0.2376 -0.6382 0.7323
vn 0.2376 -0.6382 -0.7323
vn -0.1681 0.4671 -0.8681
vn 0.2574 0.7486 0.6111
vn 0.1918 0.5470 0.8148
vn -0.2696 -0.7491 0.6051
vn -0.2696 -0.7491 -0.6051
vn 0.1918 0.5470 -0.8148
vn -0.2459 0.7012 0.6692
vn -0.5582 0.5348 0.6344
vn -0.3888 0.3761 0.8411
vn 0.5274 -0.5141 0.6764
vn 0.5274 -0.5141 -0.6764
vn -0.3888 0.3761 -0.8411
vn -0.5582 0.5348 -0.6344
vn -0.7959 0.2600 0.5468
vn -0.5353 0.1749 0.8263
vn 0.7611 -0.2549 0.5965
vn 0.7611 -0.2549 -0.5965
vn -0.5353 0.1749 -0.8263
vn -0.7959 0.2600 -0.5468
vn 0.2574 0.7486 -0.6111
vt 0.296541 0.154744
vt 0.295988 0.152572
vt 0.296677 0.154667
vt 0.296778 0.154602
vt 0.302665 0.144707
vt 0.302573 0.146832
vt 0.302573 0.144733
vt 0.302360 0.144733
vt 0.302360 0.146832
vt 0.302268 0.144707
vt 0.297387 0.153702
vt 0.296995 0.155811
vt 0.297276 0.153661
vt 0.297127 0.153607
vt 0.295821 0.152583
vt 0.296054 0.150278
vt 0.296184 0.150316
vt 0.296111 0.152558
vt 0.302665 0.146861
vt 0.302573 0.149010
vt 0.302360 0.149010
vt 0.302268 0.146861
vt 0.297601 0.157861
vt 0.297117 0.155799
vt 0.297481 0.157924
vt 0.296828 0.155828
vt 0.298583 0.146822
vt 0.298214 0.149598
vt 0.298426 0.146751
vt 0.297228 0.163513
vt 0.296915 0.160882
vt 0.297025 0.160830
vt 0.302264 0.138671
vt 0.302172 0.136029
vt 0.302264 0.135954
vt 0.302172 0.138663
vt 0.301959 0.136029
vt 0.301867 0.138671
vt 0.301867 0.135954
vt 0.298694 0.146876
vt 0.298390 0.149596
vt 0.295883 0.150248
vt 0.297098 0.148275
vt 0.294672 0.157230
vt 0.296146 0.158992
vt 0.294580 0.157322
vt 0.302264 0.131836
vt 0.302172 0.133856
vt 0.302172 0.131910
vt 0.301959 0.133856
vt 0.301959 0.131910
vt 0.301867 0.131836
vt 0.299430 0.144761
vt 0.300835 0.142568
vt 0.300928 0.142667
vt 0.297401 0.163528
vt 0.297179 0.160779
vt 0.296625 0.165912
vt 0.296468 0.165857
vt 0.297093 0.163500
vt 0.310824 0.128072
vt 0.311474 0.129946
vt 0.311354 0.129986
vt 0.302172 0.140836
vt 0.301959 0.138663
vt 0.296872 0.134776
vt 0.296201 0.136706
vt 0.296752 0.134724
vt 0.298523 0.149578
vt 0.299116 0.151781
vt 0.298957 0.151818
vt 0.295224 0.167615
vt 0.295047 0.167417
vt 0.296359 0.165797
vt 0.311130 0.126070
vt 0.310945 0.128067
vt 0.296671 0.138688
vt 0.296324 0.136722
vt 0.296467 0.136668
vt 0.296418 0.138780
vt 0.300481 0.153030
vt 0.299225 0.151721
vt 0.300296 0.153189
vt 0.296433 0.158943
vt 0.296266 0.158962
vt 0.302264 0.133863
vt 0.299310 0.144733
vt 0.299140 0.144698
vt 0.300695 0.142466
vt 0.300854 0.153323
vt 0.300407 0.153118
vt 0.297601 0.153120
vt 0.311474 0.125552
vt 0.311235 0.126118
vt 0.295452 0.134485
vt 0.295584 0.133938
vt 0.295584 0.134517
vt 0.302573 0.144153
vt 0.296528 0.138742
vt 0.296872 0.139274
vt 0.296729 0.139328
vt 0.296997 0.155191
vt 0.297490 0.153079
vt 0.294652 0.167834
vt 0.295119 0.167515
vt 0.302360 0.144153
vt 0.296619 0.139367
vt 0.294142 0.128350
vt 0.294248 0.127764
vt 0.294248 0.128330
vt 0.294580 0.167736
vt 0.296861 0.155268
vt 0.302665 0.149078
vt 0.302268 0.149078
vt 0.297318 0.157980
vt 0.296967 0.148205
vt 0.301867 0.133863
vt 0.301959 0.140836
vt 0.300928 0.153234
vt 0.311368 0.125504
vt 0.295452 0.133905
vt 0.297098 0.155126
vt 0.297341 0.153025
vt 0.294757 0.167934
vt 0.302268 0.144128
vt 0.294142 0.127784
s 0
g cooking_pot_shotdamaged_handle_Material
usemtl Material
f 525/891/519 533/892/519 526/893/519
f 533/892/520 527/894/520 526/893/520
f 527/895/521 535/896/521 528/897/521
f 535/896/522 529/898/522 528/897/522
f 536/899/523 530/900/523 529/898/523
f 530/901/524 538/902/524 531/903/524
f 538/902/525 525/904/525 531/903/525
f 532/905/526 540/906/526 533/892/526
f 533/892/527 541/907/527 534/908/527
f 534/909/528 542/910/528 535/896/528
f 542/910/529 536/899/529 535/896/529
f 543/911/530 537/912/530 536/899/530
f 544/913/531 538/902/531 537/914/531
f 545/915/532 532/916/532 538/902/532
f 579/917/533 546/918/533 568/919/533
f 547/920/534 571/921/534 569/922/534
f 548/923/535 573/924/535 571/925/535
f 549/926/536 575/927/536 573/924/536
f 575/927/537 551/928/537 577/929/537
f 577/930/538 552/931/538 579/917/538
f 539/932/539 570/933/539 540/906/539
f 540/934/540 572/935/540 541/936/540
f 541/937/541 574/938/541 542/939/541
f 542/939/542 576/940/542 543/941/542
f 576/940/543 544/942/543 543/941/543
f 578/943/544 545/944/544 544/945/544
f 546/946/545 569/922/545 568/947/545
f 553/948/546 547/920/546 546/946/546
f 554/949/547 548/950/547 547/920/547
f 555/951/548 549/952/548 548/953/548
f 556/954/549 550/955/549 549/926/549
f 550/956/550 558/957/550 551/958/550
f 551/959/551 559/960/551 552/931/551
f 552/931/552 553/961/552 546/918/552
f 560/962/553 554/949/553 553/948/553
f 554/949/554 562/963/554 555/964/554
f 562/965/555 556/966/555 555/951/555
f 563/967/556 557/968/556 556/969/556
f 557/968/557 565/970/557 558/957/557
f 565/971/558 559/960/558 558/972/558
f 559/960/559 560/973/559 553/961/559
f 569/922/560 567/974/560 568/947/560
f 571/921/561 570/975/561 569/922/561
f 571/925/562 574/938/562 572/976/562
f 573/924/563 576/940/563 574/938/563
f 577/929/564 576/940/564 575/927/564
f 577/930/565 580/977/565 578/943/565
f 580/977/566 568/919/566 567/978/566
f 580/977/567 539/979/567 545/944/567
f 565/971/568 594/980/568 566/981/568
f 531/903/569 586/982/569 530/901/569
f 562/965/570 591/983/570 563/984/570
f 566/985/571 588/986/571 560/987/571
f 529/898/572 584/988/572 528/897/572
f 564/989/573 591/990/573 592/991/573
f 527/894/574 582/992/574 526/893/574
f 525/904/575 587/993/575 531/903/575
f 560/962/576 589/994/576 561/995/576
f 530/900/577 585/996/577 529/898/577
f 564/989/578 593/997/578 565/970/578
f 528/998/579 583/999/579 527/1000/579
f 561/995/580 590/1001/580 562/963/580
f 526/893/581 581/1002/581 525/891/581
f 525/891/582 532/905/582 533/892/582
f 533/892/583 534/908/583 527/894/583
f 527/895/584 534/909/584 535/896/584
f 535/896/522 536/899/522 529/898/522
f 536/899/585 537/912/585 530/900/585
f 530/901/586 537/914/586 538/902/586
f 538/902/587 532/916/587 525/904/587
f 532/905/588 539/932/588 540/906/588
f 533/892/589 540/906/589 541/907/589
f 534/909/590 541/1003/590 542/910/590
f 542/910/529 543/911/529 536/899/529
f 543/911/591 544/1004/591 537/912/591
f 544/913/592 545/915/592 538/902/592
f 545/915/593 539/1005/593 532/916/593
f 579/917/594 552/931/594 546/918/594
f 547/920/595 548/950/595 571/921/595
f 548/923/596 549/926/596 573/924/596
f 549/926/536 550/955/536 575/927/536
f 575/927/597 550/955/597 551/928/597
f 577/930/598 551/959/598 552/931/598
f 539/932/599 567/1006/599 570/933/599
f 540/934/600 570/975/600 572/935/600
f 541/937/601 572/976/601 574/938/601
f 542/939/542 574/938/542 576/940/542
f 576/940/602 578/1007/602 544/942/602
f 578/943/603 580/977/603 545/944/603
f 546/946/604 547/920/604 569/922/604
f 553/948/605 554/949/605 547/920/605
f 554/949/606 555/964/606 548/950/606
f 555/951/607 556/966/607 549/952/607
f 556/954/549 557/1008/549 550/955/549
f 550/956/608 557/968/608 558/957/608
f 551/959/609 558/972/609 559/960/609
f 552/931/610 559/960/610 553/961/610
f 560/962/611 561/995/611 554/949/611
f 554/949/612 561/995/612 562/963/612
f 562/965/613 563/984/613 556/966/613
f 563/967/556 564/989/556 557/968/556
f 557/968/614 564/989/614 565/970/614
f 565/971/615 566/981/615 559/960/615
f 559/960/616 566/981/616 560/973/616
f 569/922/560 570/975/560 567/974/560
f 571/921/561 572/935/561 570/975/561
f 571/925/562 573/924/562 574/938/562
f 573/924/563 575/927/563 576/940/563
f 577/929/564 578/1007/564 576/940/564
f 577/930/565 579/917/565 580/977/565
f 580/977/566 579/917/566 568/919/566
f 580/977/617 567/978/617 539/979/617
f 565/971/568 593/1009/568 594/980/568
f 531/903/569 587/993/569 586/982/569
f 562/965/570 590/1010/570 591/983/570
f 566/985/571 594/1011/571 588/986/571
f 529/898/572 585/996/572 584/988/572
f 564/989/573 563/967/573 591/990/573
f 527/894/574 583/1012/574 582/992/574
f 525/904/575 581/1013/575 587/993/575
f 560/962/576 588/1014/576 589/994/576
f 530/900/577 586/1015/577 585/996/577
f 564/989/578 592/991/578 593/997/578
f 528/998/579 584/1016/579 583/999/579
f 561/995/580 589/994/580 590/1001/580
f 526/893/581 582/992/581 581/1002/581
