# Blender 4.2.0
# www.blender.org
mtllib cooking_pot.mtl
g cooking_pot_Mesh
v 0.000000 0.000000 -0.127301
v 0.000000 0.190778 -0.172646
v 0.074826 0.000000 -0.102989
v 0.101479 0.190778 -0.139674
v 0.121071 0.000000 -0.039338
v 0.164196 0.190778 -0.053351
v 0.121071 0.000000 0.039338
v 0.164196 0.190778 0.053350
v 0.074826 0.000000 0.102989
v 0.101479 0.190778 0.139673
v 0.000000 0.000000 0.127301
v 0.000000 0.190778 0.172646
v -0.074826 0.000000 0.102989
v -0.101479 0.190778 0.139673
v -0.121071 0.000000 0.039338
v -0.164196 0.190778 0.053350
v -0.121071 0.000000 -0.039338
v -0.164196 0.190778 -0.053351
v -0.074826 0.000000 -0.102989
v -0.101479 0.190778 -0.139674
v 0.000000 0.026480 -0.160344
v 0.094248 0.026480 -0.129721
v 0.152496 0.026480 -0.049549
v 0.152496 0.026480 0.049549
v 0.094248 0.026480 0.129721
v 0.000000 0.026480 0.160344
v -0.094248 0.026480 0.129721
v -0.152496 0.026480 0.049549
v -0.152496 0.026480 -0.049549
v -0.094248 0.026480 -0.129721
v 0.000000 0.101656 -0.177976
v -0.000000 0.139594 -0.175394
v 0.103094 0.139594 -0.141896
v 0.104611 0.101656 -0.143985
v 0.166809 0.139594 -0.054200
v 0.169265 0.101656 -0.054998
v 0.166809 0.139594 0.054199
v 0.169265 0.101656 0.054997
v 0.103094 0.139594 0.141896
v 0.104611 0.101656 0.143985
v -0.000000 0.139594 0.175393
v 0.000000 0.101656 0.177975
v -0.103094 0.139594 0.141896
v -0.104611 0.101656 0.143985
v -0.166809 0.139594 0.054199
v -0.169265 0.101656 0.054997
v -0.166809 0.139594 -0.054200
v -0.169265 0.101656 -0.054998
v -0.103094 0.139594 -0.141896
v -0.104611 0.101656 -0.143985
v 0.107700 0.190778 -0.148236
v 0.000000 0.190778 -0.183230
v 0.173158 0.183915 -0.010457
v 0.173158 0.183915 0.010457
v 0.107700 0.190778 0.148235
v 0.000000 0.190778 0.183229
v -0.107700 0.190778 0.148235
v -0.173158 0.183915 0.010457
v -0.173158 0.183915 -0.010457
v -0.107700 0.190778 -0.148236
v 0.000000 0.035406 -0.135056
v 0.000000 0.035406 0.135056
v -0.079384 0.035406 -0.109263
v -0.079384 0.035406 0.109262
v 0.079384 0.035406 -0.109263
v 0.079384 0.035406 0.109262
v 0.128446 0.035406 -0.041735
v 0.128446 0.035406 0.041734
v -0.128446 0.035406 0.041734
v -0.128446 0.035406 -0.041735
v 0.000000 0.161915 -0.178351
v 0.104832 0.161915 -0.144289
v 0.170725 0.168778 -0.010279
v 0.170725 0.168778 0.010279
v 0.104832 0.161915 0.144288
v 0.000000 0.161915 0.178350
v -0.104832 0.161915 0.144288
v -0.170725 0.168778 0.010279
v -0.170725 0.168778 -0.010279
v -0.104832 0.161915 -0.144289
v -0.089093 0.131601 -0.122627
v 0.144156 0.131601 0.046839
v 0.144156 0.131601 -0.046839
v -0.000000 0.131601 -0.151575
v -0.089093 0.131601 0.122626
v -0.144156 0.131601 0.046839
v 0.089093 0.131601 0.122626
v 0.089093 0.131601 -0.122627
v -0.144156 0.131601 -0.046839
v -0.000000 0.131601 0.151574
v 0.102814 0.064068 -0.141511
v 0.166356 0.064068 -0.054053
v 0.166356 0.064068 0.054052
v 0.102814 0.064068 0.141511
v -0.000000 0.064068 0.174917
v -0.102814 0.064068 0.141511
v -0.166356 0.064068 0.054052
v -0.166356 0.064068 -0.054053
v -0.102814 0.064068 -0.141511
v -0.000000 0.064068 -0.174918
v 0.174261 0.190778 0.056621
v 0.174261 0.190778 -0.056621
v -0.174261 0.190778 -0.056621
v -0.174261 0.190778 0.056621
v 0.169621 0.161915 -0.055114
v 0.169621 0.161915 0.055113
v -0.169621 0.161915 0.055113
v -0.169621 0.161915 -0.055114
v 0.152496 0.026480 -0.000000
v 0.174261 0.190778 -0.000000
v -0.152496 0.026480 -0.000000
v -0.174261 0.190778 -0.000000
v 0.000000 0.000000 -0.000000
v -0.074826 0.000000 -0.000000
v 0.074826 0.000000 -0.000000
v 0.121071 0.000000 -0.000000
v -0.121071 0.000000 -0.000000
v -0.169265 0.101656 -0.000000
v -0.166809 0.139594 -0.000000
v 0.169265 0.101656 -0.000000
v 0.166809 0.139594 -0.000000
v 0.164196 0.190778 -0.000000
v -0.164196 0.190778 -0.000000
v 0.000000 0.035406 -0.000000
v -0.079384 0.035406 -0.000000
v 0.079384 0.035406 -0.000000
v 0.128446 0.035406 -0.000000
v -0.128446 0.035406 -0.000000
v -0.169621 0.161915 -0.000000
v 0.169621 0.161915 -0.000000
v -0.144156 0.131601 -0.000000
v 0.144156 0.131601 -0.000000
v 0.166356 0.064068 -0.000000
v -0.166356 0.064068 -0.000000
v 0.173158 0.185300 -0.000000
v -0.173158 0.185300 -0.000000
v -0.170725 0.167394 -0.000000
v 0.170725 0.167394 -0.000000
v 0.000000 0.176347 -0.180790
v 0.106266 0.176347 -0.146262
v 0.171941 0.176347 -0.055867
v 0.171941 0.176347 0.055867
v 0.106266 0.176347 0.146262
v 0.000000 0.176347 0.180790
v -0.106266 0.176347 0.146262
v -0.171941 0.176347 0.055867
v -0.171941 0.176347 -0.055867
v -0.106266 0.176347 -0.146262
v 0.171941 0.176347 -0.013724
v 0.171941 0.176347 0.013724
v -0.171941 0.176347 0.013724
v -0.171941 0.176347 -0.013724
v 0.189477 0.184550 -0.000000
v 0.189523 0.183582 -0.007162
v -0.189477 0.184550 -0.000000
v -0.189523 0.183582 0.007162
v 0.188491 0.177330 -0.010010
v 0.187462 0.171099 -0.007325
v 0.188491 0.177330 0.010010
v 0.187462 0.171099 0.007325
v -0.188491 0.177330 0.010010
v -0.187462 0.171099 0.007325
v -0.188491 0.177330 -0.010010
v -0.187462 0.171099 -0.007325
v -0.187508 0.170126 -0.000000
v 0.187508 0.170126 -0.000000
v 0.189523 0.183582 0.007162
v -0.189523 0.183582 -0.007162
v -0.188493 0.177339 -0.000000
v 0.188493 0.177339 -0.000000
v 0.182695 0.186293 -0.000000
v 0.182695 0.184908 -0.010275
v -0.182695 0.186293 -0.000000
v -0.182695 0.184908 0.010275
v 0.181479 0.177339 -0.013724
v 0.180261 0.169771 -0.010462
v 0.181479 0.177339 0.013724
v 0.180261 0.169771 0.010462
v -0.181479 0.177339 0.013724
v -0.180261 0.169771 0.010462
v -0.181479 0.177339 -0.013724
v -0.180261 0.169771 -0.010462
v -0.180262 0.168386 -0.000000
v 0.180262 0.168386 -0.000000
v 0.182695 0.184908 0.010275
v -0.182695 0.184908 -0.010275
vn 0.3051 -0.1587 -0.9390
vn 0.7988 -0.1587 -0.5803
vn -0.1001 -0.9864 -0.1306
vn 0.7988 -0.1587 0.5803
vn 0.3051 -0.1587 0.9390
vn -0.3051 -0.1587 0.9390
vn -0.7988 -0.1587 0.5803
vn -0.0262 0.4180 0.9081
vn -0.7984 0.1612 -0.5801
vn -0.7988 -0.1587 -0.5803
vn -0.3051 -0.1587 -0.9390
vn -0.0000 -1.0000 -0.0000
vn 0.7984 0.1612 -0.5801
vn 0.3050 0.1612 0.9386
vn -0.9869 0.1612 -0.0000
vn 0.1991 -0.7647 -0.6128
vn 0.5213 -0.7647 -0.3787
vn 0.6444 -0.7647 -0.0000
vn 0.5213 -0.7647 0.3787
vn 0.1991 -0.7647 0.6128
vn -0.1991 -0.7647 0.6128
vn -0.5213 -0.7647 0.3787
vn -0.6444 -0.7647 -0.0000
vn -0.5213 -0.7647 -0.3787
vn -0.1991 -0.7647 -0.6128
vn -0.3081 -0.0771 -0.9482
vn -0.3084 0.0646 -0.9491
vn -0.8066 -0.0771 -0.5860
vn -0.8073 0.0646 -0.5866
vn -0.9970 -0.0771 -0.0000
vn -0.9979 0.0646 -0.0000
vn -0.8066 -0.0771 0.5860
vn -0.8073 0.0646 0.5866
vn -0.3081 -0.0771 0.9482
vn -0.3084 0.0646 0.9491
vn 0.3081 -0.0771 0.9482
vn 0.3084 0.0646 0.9491
vn 0.8066 -0.0771 0.5860
vn 0.8073 0.0646 0.5866
vn 0.9970 -0.0771 -0.0000
vn 0.9979 0.0646 -0.0000
vn 0.8066 -0.0771 -0.5860
vn 0.8073 0.0646 -0.5866
vn 0.3081 -0.0771 -0.9482
vn 0.3084 0.0646 -0.9491
vn -0.0000 1.0000 -0.0000
vn -0.3050 0.1612 0.9386
vn 0.9869 0.1612 -0.0000
vn -0.3050 0.1612 -0.9386
vn -0.7984 0.1612 0.5801
vn 0.7984 0.1612 0.5801
vn 0.3050 0.1612 -0.9386
vn -0.3066 -0.1250 -0.9436
vn -0.8027 -0.1250 -0.5832
vn -0.9922 -0.1250 -0.0000
vn -0.8027 -0.1250 0.5832
vn -0.3066 -0.1250 0.9436
vn 0.3066 -0.1250 0.9436
vn 0.8027 -0.1250 0.5832
vn 0.9922 -0.1250 -0.0000
vn 0.8027 -0.1250 -0.5832
vn 0.3066 -0.1250 -0.9436
vn 0.2927 0.3207 -0.9008
vn 0.7663 0.3207 0.5567
vn -0.7663 0.3207 0.5567
vn -0.2927 0.3207 -0.9008
vn 0.9472 0.3207 -0.0000
vn -0.2927 0.3207 0.9008
vn -0.9472 0.3207 -0.0000
vn 0.2927 0.3207 0.9008
vn 0.7663 0.3207 -0.5567
vn -0.7663 0.3207 -0.5567
vn 0.2899 -0.3460 -0.8923
vn 0.7591 -0.3460 -0.5515
vn 0.9382 -0.3460 -0.0000
vn 0.7591 -0.3460 0.5515
vn 0.2899 -0.3460 0.8923
vn -0.2899 -0.3460 0.8923
vn -0.7591 -0.3460 0.5515
vn -0.9382 -0.3460 -0.0000
vn -0.7591 -0.3460 -0.5515
vn -0.2899 -0.3460 -0.8923
vn 0.9800 -0.1974 0.0261
vn -0.9800 -0.1974 -0.0261
vn 0.9873 -0.1587 -0.0000
vn -0.9873 -0.1587 -0.0000
vn -0.9800 -0.1974 -0.0266
vn 0.9800 -0.1974 0.0266
vn -0.1026 0.9858 0.1328
vn -0.0417 -0.4011 -0.9151
vn -0.0418 0.4016 -0.9149
vn -0.0260 -0.4176 0.9082
vn 0.0417 -0.4011 0.9151
vn 0.0260 -0.4176 -0.9082
vn 0.9867 -0.1628 -0.0000
vn -0.9867 -0.1628 -0.0000
vn 0.9905 -0.1352 -0.0242
vn -0.9905 -0.1352 0.0242
vn -0.9905 -0.1352 -0.0242
vn 0.9905 -0.1352 0.0242
vn 0.1026 0.9858 -0.1328
vn 0.0418 0.4016 0.9149
vn -0.1026 -0.9858 0.1328
vn 0.1001 -0.9864 0.1306
vn -0.1002 0.9864 -0.1306
vn 0.0262 0.4180 -0.9081
vn 0.1026 -0.9858 -0.1328
vn 0.1002 0.9864 0.1306
vn 0.2468 0.9605 -0.1283
vn -0.2468 0.9605 0.1283
vn 0.4251 -0.4165 -0.8036
vn 0.4267 -0.4150 0.8036
vn -0.4251 -0.4165 0.8036
vn -0.4266 -0.4150 -0.8036
vn -0.2315 -0.9642 -0.1295
vn 0.2315 -0.9642 0.1295
vn 0.2456 0.9607 0.1295
vn -0.2456 0.9607 -0.1295
vn -0.2334 -0.9640 0.1276
vn 0.2334 -0.9640 -0.1276
vn 0.4436 0.3099 -0.8409
vn 0.4451 0.3111 0.8397
vn -0.4436 0.3099 0.8409
vn -0.4451 0.3111 -0.8397
vn -0.1026 -0.9858 -0.1328
vn -0.0418 0.4016 0.9149
vn 0.9800 -0.1974 -0.0266
vn -0.9800 -0.1974 0.0266
vn -0.9800 -0.1974 0.0261
vn 0.9800 -0.1974 -0.0261
vn -0.1002 0.9864 0.1306
vn -0.0260 -0.4176 -0.9082
vn -0.0262 0.4180 -0.9081
vn -0.0417 -0.4011 0.9151
vn 0.0260 -0.4176 0.9082
vn 0.0417 -0.4011 -0.9151
vn 0.9905 -0.1352 -0.0246
vn -0.9905 -0.1352 0.0246
vn -0.9905 -0.1352 -0.0246
vn 0.9905 -0.1352 0.0246
vn 0.9866 -0.1630 -0.0000
vn -0.9866 -0.1630 -0.0000
vn 0.1002 0.9864 -0.1306
vn 0.0262 0.4180 0.9081
vn -0.1001 -0.9864 0.1306
vn 0.1026 -0.9858 0.1328
vn -0.1026 0.9858 -0.1328
vn 0.0418 0.4016 -0.9149
vn 0.1001 -0.9864 -0.1306
vn 0.1026 0.9858 0.1328
vn 0.2456 0.9607 -0.1295
vn -0.2456 0.9607 0.1295
vn 0.4267 -0.4150 -0.8036
vn 0.4251 -0.4165 0.8036
vn -0.4266 -0.4150 0.8036
vn -0.4251 -0.4165 -0.8036
vn -0.2334 -0.9640 -0.1276
vn 0.2334 -0.9640 0.1276
vn 0.2468 0.9605 0.1283
vn -0.2468 0.9605 -0.1283
vn -0.2315 -0.9642 0.1295
vn 0.2315 -0.9642 -0.1295
vn 0.4451 0.3111 -0.8397
vn 0.4436 0.3099 0.8409
vn -0.4451 0.3111 0.8397
vn -0.4436 0.3099 -0.8409
vt 0.571199 0.361407
vt 0.573246 0.361805
vt 0.571221 0.361793
vt 0.573251 0.361418
vt 0.575148 0.361793
vt 0.572792 0.271142
vt 0.572717 0.271223
vt 0.572717 0.271140
vt 0.569009 0.376831
vt 0.568641 0.378917
vt 0.568621 0.376851
vt 0.569030 0.378925
vt 0.568621 0.380696
vt 0.570972 0.372668
vt 0.573019 0.373066
vt 0.570994 0.373055
vt 0.574952 0.372668
vt 0.574921 0.373055
vt 0.573145 0.271238
vt 0.573068 0.271306
vt 0.573082 0.271219
vt 0.570992 0.371525
vt 0.573573 0.373182
vt 0.570992 0.373262
vt 0.577332 0.381269
vt 0.577720 0.383352
vt 0.577333 0.383341
vt 0.577332 0.385076
vt 0.574058 0.366237
vt 0.576305 0.366967
vt 0.574487 0.367558
vt 0.574309 0.373930
vt 0.572913 0.376524
vt 0.572714 0.373939
vt 0.567311 0.379803
vt 0.569914 0.378250
vt 0.569886 0.379579
vt 0.570992 0.370848
vt 0.573573 0.370427
vt 0.573573 0.371031
vt 0.571811 0.365508
vt 0.573629 0.364916
vt 0.575447 0.368148
vt 0.574752 0.368374
vt 0.572669 0.364326
vt 0.573363 0.364100
vt 0.571717 0.366510
vt 0.573203 0.365819
vt 0.573143 0.366518
vt 0.574890 0.365808
vt 0.574482 0.366510
vt 0.573170 0.363533
vt 0.563865 0.377274
vt 0.564610 0.378861
vt 0.563880 0.378729
vt 0.564591 0.380439
vt 0.563865 0.379981
vt 0.572916 0.377780
vt 0.571180 0.377070
vt 0.572976 0.377080
vt 0.574663 0.377070
vt 0.574255 0.377772
vt 0.574919 0.368917
vt 0.572600 0.381622
vt 0.573311 0.383241
vt 0.572600 0.383081
vt 0.572600 0.384303
vt 0.573311 0.384781
vt 0.575328 0.383327
vt 0.574320 0.384991
vt 0.574320 0.383312
vt 0.576346 0.384998
vt 0.575328 0.385036
vt 0.575328 0.381287
vt 0.574320 0.381308
vt 0.576346 0.383314
vt 0.575328 0.380492
vt 0.574319 0.380526
vt 0.576346 0.381304
vt 0.573004 0.376077
vt 0.574883 0.375058
vt 0.574844 0.376066
vt 0.573008 0.374050
vt 0.573011 0.375069
vt 0.571044 0.376066
vt 0.571043 0.374039
vt 0.571017 0.375058
vt 0.565627 0.378915
vt 0.566616 0.380671
vt 0.565607 0.380636
vt 0.567652 0.378902
vt 0.566637 0.378920
vt 0.565607 0.376916
vt 0.567632 0.376898
vt 0.566616 0.376886
vt 0.566590 0.376116
vt 0.565580 0.376159
vt 0.573238 0.363807
vt 0.575071 0.364804
vt 0.573231 0.364815
vt 0.575080 0.362778
vt 0.575110 0.363796
vt 0.571244 0.363796
vt 0.571271 0.364804
vt 0.573235 0.362789
vt 0.574138 0.385118
vt 0.574325 0.387160
vt 0.574138 0.387099
vt 0.573089 0.383357
vt 0.574325 0.385057
vt 0.571090 0.382903
vt 0.572090 0.383032
vt 0.572032 0.383209
vt 0.569206 0.383515
vt 0.571090 0.382707
vt 0.568042 0.385117
vt 0.569091 0.383356
vt 0.568042 0.387098
vt 0.567855 0.385057
vt 0.569091 0.388860
vt 0.567855 0.387159
vt 0.568847 0.378912
vt 0.568421 0.378857
vt 0.568446 0.378781
vt 0.572974 0.388701
vt 0.571090 0.389509
vt 0.571090 0.389313
vt 0.573089 0.388860
vt 0.566426 0.278100
vt 0.565755 0.277687
vt 0.566240 0.277530
vt 0.566725 0.279022
vt 0.568295 0.279532
vt 0.567025 0.279945
vt 0.567696 0.280358
vt 0.567211 0.280515
vt 0.567696 0.277687
vt 0.570839 0.371516
vt 0.572377 0.374111
vt 0.570864 0.374102
vt 0.567328 0.375924
vt 0.569886 0.375538
vt 0.569900 0.376122
vt 0.573573 0.374479
vt 0.570992 0.374718
vt 0.569244 0.371526
vt 0.569443 0.374111
vt 0.567344 0.378312
vt 0.569914 0.376707
vt 0.576007 0.373939
vt 0.574334 0.376516
vt 0.576945 0.383329
vt 0.576945 0.381285
vt 0.576945 0.380487
vt 0.576346 0.380520
vt 0.574891 0.373441
vt 0.574853 0.374039
vt 0.573014 0.373453
vt 0.568232 0.380665
vt 0.567632 0.380628
vt 0.568253 0.378910
vt 0.568206 0.376100
vt 0.567606 0.376139
vt 0.573241 0.362191
vt 0.571243 0.362180
vt 0.571270 0.362778
vt 0.576208 0.372346
vt 0.574274 0.372335
vt 0.565768 0.376422
vt 0.565768 0.378395
vt 0.570804 0.369921
vt 0.568988 0.369932
vt 0.569404 0.375022
vt 0.565750 0.375675
vt 0.567311 0.375268
vt 0.572738 0.369932
vt 0.568128 0.370937
vt 0.568805 0.370747
vt 0.568806 0.371036
vt 0.565732 0.380094
vt 0.572457 0.372346
vt 0.569404 0.373365
vt 0.571407 0.365808
vt 0.564591 0.377029
vt 0.564568 0.376335
vt 0.573311 0.381404
vt 0.573311 0.380687
vt 0.567867 0.373194
vt 0.567948 0.373250
vt 0.567885 0.373256
vt 0.574057 0.381218
vt 0.574136 0.381277
vt 0.574073 0.381282
vt 0.568587 0.375877
vt 0.568179 0.375329
vt 0.568567 0.375287
vt 0.568600 0.376261
vt 0.577332 0.380262
vt 0.576945 0.379690
vt 0.577332 0.379652
vt 0.577332 0.380659
vt 0.577720 0.381253
vt 0.573884 0.381358
vt 0.573805 0.381300
vt 0.573868 0.381294
vt 0.567698 0.373332
vt 0.567617 0.373277
vt 0.567680 0.373270
vt 0.567694 0.373209
vt 0.567606 0.372947
vt 0.573884 0.381231
vt 0.573805 0.380960
vt 0.574057 0.381347
vt 0.574136 0.381626
vt 0.567872 0.373319
vt 0.567960 0.373588
vt 0.573310 0.379970
vt 0.564544 0.375641
vt 0.569404 0.370615
vt 0.569404 0.371387
vt 0.566570 0.373095
vt 0.567250 0.373481
vt 0.566578 0.373414
vt 0.567580 0.375380
vt 0.576346 0.379736
vt 0.567344 0.376580
vt 0.565156 0.278512
vt 0.565156 0.279532
vt 0.566725 0.280673
vt 0.565755 0.280358
vt 0.566725 0.277372
vt 0.569206 0.388701
vt 0.570091 0.389185
vt 0.569651 0.376439
vt 0.569274 0.376233
vt 0.569700 0.376372
vt 0.566563 0.375346
vt 0.565554 0.375402
vt 0.575328 0.379696
vt 0.574319 0.379744
vt 0.574058 0.368600
vt 0.574045 0.369201
vt 0.574058 0.363874
vt 0.574045 0.363249
vt 0.575447 0.364325
vt 0.572669 0.368149
vt 0.576305 0.365506
vt 0.573573 0.371634
vt 0.571811 0.366968
vt 0.577737 0.266508
vt 0.577662 0.266590
vt 0.577662 0.266508
vt 0.573590 0.271370
vt 0.573539 0.271440
vt 0.573527 0.271352
vt 0.576688 0.271369
vt 0.576739 0.271440
vt 0.576675 0.271457
vt 0.577762 0.272619
vt 0.577840 0.272687
vt 0.577777 0.272704
vt 0.577129 0.380623
vt 0.577719 0.379614
vt 0.577535 0.380295
vt 0.568232 0.376872
vt 0.568395 0.376229
vt 0.568954 0.375245
vt 0.568792 0.375906
vt 0.576945 0.385041
vt 0.573132 0.271324
vt 0.573081 0.271393
vt 0.571017 0.373441
vt 0.576752 0.271525
vt 0.576690 0.271542
vt 0.575118 0.362180
vt 0.573182 0.267565
vt 0.573256 0.267599
vt 0.573186 0.267624
vt 0.574807 0.270283
vt 0.574880 0.270319
vt 0.574810 0.270344
vt 0.574877 0.270231
vt 0.574805 0.270221
vt 0.573251 0.267514
vt 0.573178 0.267505
vt 0.573108 0.267529
vt 0.573100 0.267573
vt 0.574734 0.270246
vt 0.574725 0.270291
vt 0.574738 0.270336
vt 0.573114 0.267616
vt 0.573694 0.272348
vt 0.573769 0.272267
vt 0.573769 0.272348
vt 0.577775 0.272530
vt 0.577826 0.272601
vt 0.572792 0.271305
vt 0.572792 0.271224
vt 0.574727 0.271138
vt 0.574802 0.271057
vt 0.574802 0.271139
vt 0.577662 0.266427
vt 0.577738 0.266425
vt 0.573604 0.271284
vt 0.573541 0.271266
vt 0.574726 0.270975
vt 0.574726 0.271057
vt 0.573769 0.272429
vt 0.573694 0.272431
vt 0.577608 0.266452
vt 0.577608 0.266508
vt 0.573824 0.272405
vt 0.573823 0.272348
vt 0.576812 0.271504
vt 0.576801 0.271434
vt 0.573188 0.267683
vt 0.573100 0.267673
vt 0.577900 0.272665
vt 0.577889 0.272595
vt 0.574812 0.270402
vt 0.574725 0.270392
vt 0.572660 0.271165
vt 0.572660 0.271223
vt 0.574860 0.271114
vt 0.574860 0.271056
vt 0.577608 0.266565
vt 0.573824 0.272291
vt 0.572660 0.271281
vt 0.572717 0.271306
vt 0.574859 0.270998
vt 0.574802 0.270974
vt 0.576752 0.271351
vt 0.576812 0.271360
vt 0.573273 0.267653
vt 0.577839 0.272513
vt 0.577900 0.272522
vt 0.574897 0.270371
vt 0.575179 0.361407
vt 0.569009 0.380727
vt 0.573024 0.372680
vt 0.577720 0.385111
vt 0.570992 0.370170
vt 0.572295 0.363818
vt 0.571490 0.377772
vt 0.575794 0.368632
vt 0.572974 0.383516
vt 0.568847 0.378996
vt 0.568295 0.278512
vt 0.572537 0.371526
vt 0.575846 0.376524
vt 0.565732 0.374928
vt 0.568128 0.370608
vt 0.567936 0.372912
vt 0.574135 0.380927
vt 0.568385 0.375941
vt 0.568802 0.376199
vt 0.577129 0.380326
vt 0.577535 0.380598
vt 0.573805 0.381640
vt 0.567629 0.373606
vt 0.567243 0.373201
vt 0.570148 0.389007
vt 0.569249 0.376309
vt 0.577738 0.266591
vt 0.573604 0.271458
vt 0.573145 0.271412
vt 0.573265 0.267556
vt 0.574889 0.270275
vt 0.573694 0.272265
s 0
g cooking_pot_Material
usemtl Material
f 52/1/1 140/2/1 139/3/1
f 51/4/2 141/5/2 140/2/2
f 79/6/3 183/7/3 182/8/3
f 101/9/4 143/10/4 142/11/4
f 55/12/5 144/13/5 143/10/5
f 56/14/6 145/15/6 144/16/6
f 145/15/7 104/17/7 146/18/7
f 54/19/8 177/20/8 185/21/8
f 82/22/9 66/23/9 87/24/9
f 147/25/10 60/26/10 148/27/10
f 60/26/11 139/28/11 148/27/11
f 113/29/12 13/30/12 114/31/12
f 85/32/13 69/33/13 86/34/13
f 84/35/14 63/36/14 61/37/14
f 132/38/15 67/39/15 127/40/15
f 113/29/12 3/41/12 115/42/12
f 114/31/12 15/43/12 117/44/12
f 115/42/12 5/45/12 116/46/12
f 1/47/16 22/48/16 3/49/16
f 3/49/17 23/50/17 5/51/17
f 5/45/18 109/52/18 116/46/18
f 7/53/19 25/54/19 9/55/19
f 9/55/20 26/56/20 11/57/20
f 13/58/21 26/59/21 27/60/21
f 13/58/22 28/61/22 15/62/22
f 15/43/23 111/63/23 117/44/23
f 17/64/24 30/65/24 19/66/24
f 1/67/25 30/65/25 21/68/25
f 50/69/26 100/70/26 99/71/26
f 50/69/27 32/72/27 31/73/27
f 48/74/28 99/71/28 98/75/28
f 48/74/29 49/76/29 50/69/29
f 118/77/30 98/75/30 134/78/30
f 118/77/31 47/79/31 48/74/31
f 96/80/32 46/81/32 97/82/32
f 43/83/33 46/81/33 44/84/33
f 95/85/34 44/84/34 96/80/34
f 41/86/35 44/84/35 42/87/35
f 94/88/36 42/89/36 95/90/36
f 39/91/37 42/89/37 40/92/37
f 93/93/38 40/92/38 94/88/38
f 37/94/39 40/92/39 38/95/39
f 120/96/40 93/93/40 133/97/40
f 120/96/41 37/94/41 38/95/41
f 34/98/42 92/99/42 91/100/42
f 34/98/43 35/101/43 36/102/43
f 31/103/44 91/100/44 100/104/44
f 31/103/45 33/105/45 34/98/45
f 4/106/46 52/107/46 2/108/46
f 4/106/46 102/109/46 51/110/46
f 8/111/46 110/112/46 122/113/46
f 10/114/46 101/115/46 8/111/46
f 12/116/46 55/117/46 10/114/46
f 14/118/46 56/119/46 12/116/46
f 14/118/46 104/120/46 57/121/46
f 18/122/46 112/123/46 123/124/46
f 20/125/46 103/126/46 18/127/46
f 2/108/46 60/128/46 20/125/46
f 126/129/46 68/130/46 127/131/46
f 124/132/46 63/133/46 125/134/46
f 125/134/46 70/135/46 128/136/46
f 65/137/46 124/132/46 126/129/46
f 88/138/47 61/139/47 65/140/47
f 131/141/48 69/142/48 128/143/48
f 87/24/49 62/144/49 90/145/49
f 83/146/50 65/140/50 67/147/50
f 81/148/51 70/149/51 63/36/51
f 90/150/52 64/151/52 85/32/52
f 80/152/53 32/72/53 49/76/53
f 108/153/54 49/76/54 47/79/54
f 129/154/55 47/79/55 119/155/55
f 43/83/56 107/156/56 45/157/56
f 41/86/57 77/158/57 43/83/57
f 39/91/58 76/159/58 41/160/58
f 37/94/59 75/161/59 39/91/59
f 130/162/60 37/94/60 121/163/60
f 72/164/61 35/101/61 33/105/61
f 71/165/62 33/105/62 32/166/62
f 12/167/63 85/32/63 14/168/63
f 18/169/64 81/148/64 20/170/64
f 4/171/65 83/146/65 6/172/65
f 12/173/66 87/24/66 90/145/66
f 123/174/67 86/175/67 131/141/67
f 2/176/68 88/138/68 4/171/68
f 122/177/69 83/178/69 132/179/69
f 20/170/70 84/35/70 2/180/70
f 14/168/71 86/34/71 16/181/71
f 10/182/72 82/22/72 87/24/72
f 21/183/73 91/100/73 22/48/73
f 91/100/74 23/50/74 22/48/74
f 133/97/75 24/184/75 109/185/75
f 93/93/76 25/54/76 24/184/76
f 94/88/77 26/56/77 25/54/77
f 95/85/78 27/60/78 26/59/78
f 96/80/79 28/61/79 27/60/79
f 134/78/80 29/186/80 111/187/80
f 29/186/81 99/71/81 30/65/81
f 30/65/82 100/70/82 21/68/82
f 53/188/83 110/189/83 135/190/83
f 58/191/84 112/192/84 136/193/84
f 149/194/85 105/195/85 141/196/85
f 150/197/85 101/9/85 142/11/85
f 151/198/86 107/199/86 146/200/86
f 152/201/86 103/202/86 147/25/86
f 79/203/87 129/204/87 137/205/87
f 74/206/88 130/207/88 138/208/88
f 73/209/85 130/207/85 105/210/85
f 78/211/86 129/204/86 107/212/86
f 59/213/86 112/192/86 103/214/86
f 54/215/85 110/189/85 101/216/85
f 28/217/80 134/78/80 111/187/80
f 23/218/75 133/97/75 109/185/75
f 122/219/69 82/22/69 8/220/69
f 123/221/67 89/222/67 18/223/67
f 35/224/60 130/162/60 121/163/60
f 45/225/55 129/154/55 119/155/55
f 131/141/48 70/149/48 89/226/48
f 66/227/46 124/132/46 62/228/46
f 125/134/46 69/229/46 64/230/46
f 124/132/46 64/230/46 62/228/46
f 126/129/46 67/231/46 65/137/46
f 16/232/46 112/233/46 104/120/46
f 6/234/46 110/235/46 102/236/46
f 35/224/41 120/96/41 36/237/41
f 92/238/40 120/96/40 133/97/40
f 45/225/31 118/77/31 46/239/31
f 97/240/30 118/77/30 134/78/30
f 17/241/23 111/63/23 29/242/23
f 7/243/18 109/52/18 24/244/18
f 115/42/12 7/243/12 9/245/12
f 114/31/12 17/241/12 19/246/12
f 113/29/12 9/245/12 11/247/12
f 132/38/15 68/248/15 82/22/15
f 113/29/12 19/246/12 1/249/12
f 135/250/89 185/251/89 171/252/89
f 152/253/90 182/254/90 181/255/90
f 53/256/91 175/257/91 149/258/91
f 151/259/92 180/260/92 78/261/92
f 152/201/86 108/153/86 79/262/86
f 151/198/86 104/263/86 58/264/86
f 150/197/85 106/265/85 74/266/85
f 149/194/85 102/267/85 53/268/85
f 80/152/11 139/28/11 71/269/11
f 147/25/10 80/152/10 108/153/10
f 150/270/93 178/271/93 177/20/93
f 145/15/7 107/156/7 77/158/7
f 144/16/6 77/158/6 76/272/6
f 143/10/5 76/159/5 75/161/5
f 142/11/4 75/161/4 106/265/4
f 149/258/94 176/273/94 73/274/94
f 72/164/2 141/5/2 105/275/2
f 139/3/1 72/164/1 71/165/1
f 170/276/95 167/277/95 159/278/95
f 169/279/96 168/280/96 163/281/96
f 156/282/96 169/279/96 161/283/96
f 154/284/95 170/276/95 157/285/95
f 158/286/97 170/276/97 166/287/97
f 162/288/98 169/279/98 165/289/98
f 169/279/99 164/290/99 165/289/99
f 170/276/100 160/291/100 166/287/100
f 136/292/101 186/293/101 173/294/101
f 58/295/102 179/296/102 151/259/102
f 78/297/103 183/7/103 137/298/103
f 74/299/104 184/300/104 178/301/104
f 135/250/105 172/302/105 53/303/105
f 59/304/106 181/255/106 186/305/106
f 73/306/107 184/300/107 138/307/107
f 136/292/108 174/308/108 58/309/108
f 154/310/109 171/252/109 153/311/109
f 156/312/110 173/294/110 155/313/110
f 158/314/111 175/257/111 157/315/111
f 160/291/112 177/316/112 178/317/112
f 162/318/113 179/296/113 161/319/113
f 164/290/114 181/320/114 182/321/114
f 164/322/115 183/7/115 165/323/115
f 160/324/116 184/300/116 166/325/116
f 167/326/117 171/252/117 185/251/117
f 168/327/118 173/294/118 186/293/118
f 162/328/119 183/7/119 180/329/119
f 158/330/120 184/300/120 176/331/120
f 157/315/121 172/332/121 154/333/121
f 159/278/122 185/334/122 177/316/122
f 161/319/123 174/335/123 156/336/123
f 163/281/124 186/337/124 181/320/124
f 52/1/1 51/4/1 140/2/1
f 51/4/2 102/338/2 141/5/2
f 79/6/125 137/298/125 183/7/125
f 101/9/4 55/12/4 143/10/4
f 55/12/5 56/339/5 144/13/5
f 56/14/6 57/340/6 145/15/6
f 145/15/7 57/340/7 104/17/7
f 54/19/126 150/270/126 177/20/126
f 82/22/9 68/248/9 66/23/9
f 147/25/10 103/202/10 60/26/10
f 60/26/11 52/341/11 139/28/11
f 113/29/12 11/247/12 13/30/12
f 85/32/13 64/151/13 69/33/13
f 84/35/14 81/148/14 63/36/14
f 132/38/15 83/342/15 67/39/15
f 113/29/12 1/249/12 3/41/12
f 114/31/12 13/30/12 15/43/12
f 115/42/12 3/41/12 5/45/12
f 1/47/16 21/183/16 22/48/16
f 3/49/17 22/48/17 23/50/17
f 5/45/18 23/343/18 109/52/18
f 7/53/19 24/184/19 25/54/19
f 9/55/20 25/54/20 26/56/20
f 13/58/21 11/344/21 26/59/21
f 13/58/22 27/60/22 28/61/22
f 15/43/23 28/345/23 111/63/23
f 17/64/24 29/186/24 30/65/24
f 1/67/25 19/66/25 30/65/25
f 50/69/26 31/73/26 100/70/26
f 50/69/27 49/76/27 32/72/27
f 48/74/28 50/69/28 99/71/28
f 48/74/29 47/79/29 49/76/29
f 118/77/30 48/74/30 98/75/30
f 118/77/31 119/155/31 47/79/31
f 96/80/32 44/84/32 46/81/32
f 43/83/33 45/157/33 46/81/33
f 95/85/34 42/87/34 44/84/34
f 41/86/35 43/83/35 44/84/35
f 94/88/36 40/92/36 42/89/36
f 39/91/37 41/160/37 42/89/37
f 93/93/38 38/95/38 40/92/38
f 37/94/39 39/91/39 40/92/39
f 120/96/40 38/95/40 93/93/40
f 120/96/41 121/163/41 37/94/41
f 34/98/42 36/102/42 92/99/42
f 34/98/43 33/105/43 35/101/43
f 31/103/44 34/98/44 91/100/44
f 31/103/45 32/166/45 33/105/45
f 4/106/46 51/110/46 52/107/46
f 4/106/46 6/346/46 102/109/46
f 8/111/46 101/115/46 110/112/46
f 10/114/46 55/117/46 101/115/46
f 12/116/46 56/119/46 55/117/46
f 14/118/46 57/121/46 56/119/46
f 14/118/46 16/232/46 104/120/46
f 18/122/46 103/347/46 112/123/46
f 20/125/46 60/128/46 103/126/46
f 2/108/46 52/107/46 60/128/46
f 126/129/46 66/227/46 68/130/46
f 124/132/46 61/348/46 63/133/46
f 125/134/46 63/133/46 70/135/46
f 65/137/46 61/348/46 124/132/46
f 88/138/47 84/349/47 61/139/47
f 131/141/48 86/175/48 69/142/48
f 87/24/49 66/23/49 62/144/49
f 83/146/50 88/138/50 65/140/50
f 81/148/51 89/226/51 70/149/51
f 90/150/52 62/350/52 64/151/52
f 80/152/53 71/269/53 32/72/53
f 108/153/54 80/152/54 49/76/54
f 129/154/55 108/153/55 47/79/55
f 43/83/56 77/158/56 107/156/56
f 41/86/57 76/272/57 77/158/57
f 39/91/58 75/161/58 76/159/58
f 37/94/59 106/265/59 75/161/59
f 130/162/60 106/265/60 37/94/60
f 72/164/61 105/275/61 35/101/61
f 71/165/62 72/164/62 33/105/62
f 12/167/63 90/150/63 85/32/63
f 18/169/64 89/226/64 81/148/64
f 4/171/65 88/138/65 83/146/65
f 12/173/66 10/182/66 87/24/66
f 123/174/67 16/351/67 86/175/67
f 2/176/68 84/349/68 88/138/68
f 122/177/69 6/352/69 83/178/69
f 20/170/70 81/148/70 84/35/70
f 14/168/71 85/32/71 86/34/71
f 10/182/72 8/220/72 82/22/72
f 21/183/73 100/104/73 91/100/73
f 91/100/74 92/99/74 23/50/74
f 133/97/75 93/93/75 24/184/75
f 93/93/76 94/88/76 25/54/76
f 94/88/77 95/90/77 26/56/77
f 95/85/78 96/80/78 27/60/78
f 96/80/79 97/82/79 28/61/79
f 134/78/80 98/75/80 29/186/80
f 29/186/81 98/75/81 99/71/81
f 30/65/82 99/71/82 100/70/82
f 53/188/85 102/353/85 110/189/85
f 58/191/86 104/354/86 112/192/86
f 149/194/85 73/355/85 105/195/85
f 150/197/85 54/356/85 101/9/85
f 151/198/86 78/357/86 107/199/86
f 152/201/86 59/358/86 103/202/86
f 79/203/86 108/359/86 129/204/86
f 74/206/85 106/360/85 130/207/85
f 73/209/127 138/208/127 130/207/127
f 78/211/128 137/205/128 129/204/128
f 59/213/129 136/193/129 112/192/129
f 54/215/130 135/190/130 110/189/130
f 28/217/80 97/240/80 134/78/80
f 23/218/75 92/238/75 133/97/75
f 122/219/69 132/38/69 82/22/69
f 123/221/67 131/361/67 89/222/67
f 35/224/60 105/195/60 130/162/60
f 45/225/55 107/199/55 129/154/55
f 131/141/48 128/143/48 70/149/48
f 66/227/46 126/129/46 124/132/46
f 125/134/46 128/136/46 69/229/46
f 124/132/46 125/134/46 64/230/46
f 126/129/46 127/131/46 67/231/46
f 16/232/46 123/362/46 112/233/46
f 6/234/46 122/363/46 110/235/46
f 35/224/41 121/163/41 120/96/41
f 92/238/40 36/237/40 120/96/40
f 45/225/31 119/155/31 118/77/31
f 97/240/30 46/239/30 118/77/30
f 17/241/23 117/44/23 111/63/23
f 7/243/18 116/46/18 109/52/18
f 115/42/12 116/46/12 7/243/12
f 114/31/12 117/44/12 17/241/12
f 113/29/12 115/42/12 9/245/12
f 132/38/15 127/40/15 68/248/15
f 113/29/12 114/31/12 19/246/12
f 135/250/131 54/364/131 185/251/131
f 152/253/132 79/365/132 182/254/132
f 53/256/133 172/332/133 175/257/133
f 151/259/134 179/296/134 180/260/134
f 152/201/86 147/25/86 108/153/86
f 151/198/86 146/200/86 104/263/86
f 150/197/85 142/11/85 106/265/85
f 149/194/85 141/196/85 102/267/85
f 80/152/11 148/27/11 139/28/11
f 147/25/10 148/27/10 80/152/10
f 150/270/135 74/366/135 178/271/135
f 145/15/7 146/18/7 107/156/7
f 144/16/6 145/15/6 77/158/6
f 143/10/5 144/13/5 76/159/5
f 142/11/4 143/10/4 75/161/4
f 149/258/136 175/257/136 176/273/136
f 72/164/2 140/2/2 141/5/2
f 139/3/1 140/2/1 72/164/1
f 170/276/137 153/367/137 167/277/137
f 169/279/138 155/368/138 168/280/138
f 156/282/139 155/368/139 169/279/139
f 154/284/140 153/367/140 170/276/140
f 158/286/141 157/285/141 170/276/141
f 162/288/142 161/283/142 169/279/142
f 169/279/142 163/281/142 164/290/142
f 170/276/141 159/278/141 160/291/141
f 136/292/143 59/369/143 186/293/143
f 58/295/144 174/335/144 179/296/144
f 78/297/145 180/329/145 183/7/145
f 74/299/146 138/307/146 184/300/146
f 135/250/147 171/252/147 172/302/147
f 59/304/148 152/253/148 181/255/148
f 73/306/149 176/331/149 184/300/149
f 136/292/150 173/294/150 174/308/150
f 154/310/151 172/302/151 171/252/151
f 156/312/152 174/308/152 173/294/152
f 158/314/153 176/273/153 175/257/153
f 160/291/154 159/278/154 177/316/154
f 162/318/155 180/260/155 179/296/155
f 164/290/156 163/281/156 181/320/156
f 164/322/157 182/8/157 183/7/157
f 160/324/158 178/301/158 184/300/158
f 167/326/159 153/311/159 171/252/159
f 168/327/160 155/313/160 173/294/160
f 162/328/161 165/323/161 183/7/161
f 158/330/162 166/325/162 184/300/162
f 157/315/163 175/257/163 172/332/163
f 159/278/164 167/277/164 185/334/164
f 161/319/165 179/296/165 174/335/165
f 163/281/166 168/280/166 186/337/166
g cooking_handle_Mesh
v 0.185424 0.202225 0.000000
v 0.182721 0.202225 0.003934
v 0.179680 0.202225 0.005905
v 0.177533 0.202225 0.003165
v 0.177533 0.202225 -0.003164
v 0.179680 0.202225 -0.005904
v 0.182721 0.202225 -0.003934
v 0.164686 0.284405 0.000000
v 0.162286 0.281661 0.003934
v 0.159585 0.279611 0.005905
v 0.157677 0.277517 0.003165
v 0.157677 0.277517 -0.003164
v 0.159585 0.279611 -0.005904
v 0.162286 0.281661 -0.003934
v 0.113200 0.352949 0.000000
v 0.111550 0.348916 0.003934
v 0.109693 0.345115 0.005905
v 0.108383 0.341742 0.003165
v 0.108383 0.341742 -0.003164
v 0.109693 0.345115 -0.005904
v 0.111550 0.348916 -0.003934
v -0.113200 0.352949 0.000000
v -0.111550 0.348916 0.003934
v -0.109693 0.345115 0.005905
v -0.108383 0.341742 0.003165
v -0.108383 0.341742 -0.003164
v -0.109693 0.345115 -0.005904
v -0.111550 0.348916 -0.003934
v -0.164686 0.284405 0.000000
v -0.162286 0.281661 0.003934
v -0.159585 0.279611 0.005905
v -0.157677 0.277517 0.003165
v -0.157677 0.277517 -0.003164
v -0.159585 0.279611 -0.005904
v -0.162286 0.281661 -0.003934
v -0.185424 0.202225 0.000000
v -0.182721 0.202225 0.003934
v -0.179680 0.202225 0.005905
v -0.177533 0.202225 0.003165
v -0.177533 0.202225 -0.003164
v -0.179680 0.202225 -0.005904
v -0.182721 0.202225 -0.003934
v 0.032587 0.388152 0.000000
v -0.032587 0.388152 0.000000
v -0.033160 0.383823 0.003934
v 0.033160 0.383823 0.003934
v -0.033561 0.379917 0.005905
v 0.033561 0.379917 0.005905
v -0.034878 0.376505 0.003165
v 0.034878 0.376505 0.003165
v -0.034878 0.376505 -0.003164
v 0.034878 0.376505 -0.003164
v -0.033561 0.379917 -0.005904
v 0.033561 0.379917 -0.005904
v -0.033160 0.383823 -0.003934
v 0.033160 0.383823 -0.003934
v 0.185424 0.178785 0.000000
v 0.182721 0.178785 0.003934
v 0.179680 0.178785 0.005905
v 0.177533 0.178785 0.003165
v 0.177533 0.178785 -0.003164
v 0.179680 0.178785 -0.005904
v 0.182721 0.178785 -0.003934
v -0.185424 0.178785 0.000000
v -0.182721 0.178785 0.003934
v -0.179680 0.178785 0.005905
v -0.177533 0.178785 0.003165
v -0.177533 0.178785 -0.003164
v -0.179680 0.178785 -0.005904
v -0.182721 0.178785 -0.003934
vn 0.8063 0.2074 0.5539
vn 0.5384 0.1398 0.8310
vn -0.7707 -0.2032 0.6040
vn -0.9669 -0.2550 -0.0000
vn -0.7707 -0.2032 -0.6040
vn 0.5384 0.1398 -0.8310
vn 0.8063 0.2074 -0.5539
vn 0.5912 0.4460 0.6719
vn 0.3997 0.3044 0.8646
vn -0.5560 -0.4268 0.7132
vn -0.7933 -0.6089 -0.0000
vn -0.5560 -0.4268 -0.7132
vn 0.3997 0.3044 -0.8646
vn 0.5912 0.4460 -0.6719
vn -0.2901 0.6644 -0.6888
vn -0.2037 0.4575 0.8655
vn 0.3040 -0.6650 0.6822
vn 0.4275 -0.9040 -0.0000
vn 0.3040 -0.6650 -0.6822
vn -0.2037 0.4575 -0.8655
vn 0.2727 0.6123 0.7421
vn 0.1756 0.3841 0.9064
vn -0.2585 -0.5466 0.7965
vn -0.4275 -0.9040 -0.0000
vn -0.2585 -0.5466 -0.7965
vn 0.1756 0.3841 -0.9065
vn -0.2901 0.6644 0.6888
vn -0.5794 0.4352 0.6891
vn -0.3697 0.2789 0.8863
vn 0.5281 -0.4022 0.7479
vn 0.7933 -0.6089 -0.0000
vn 0.5281 -0.4022 -0.7479
vn -0.3696 0.2789 -0.8863
vn -0.5794 0.4352 -0.6891
vn -0.7711 0.1946 0.6063
vn -0.5163 0.1328 0.8460
vn 0.7317 -0.1900 0.6546
vn 0.9669 -0.2550 -0.0000
vn 0.7317 -0.1900 -0.6546
vn -0.5163 0.1328 -0.8460
vn -0.7711 0.1946 -0.6063
vn -0.0000 0.6726 0.7400
vn -0.0000 0.4504 0.8928
vn -0.0000 -0.6260 0.7798
vn -0.0000 -1.0000 -0.0000
vn -0.0000 -0.6260 -0.7798
vn -0.0000 0.4504 -0.8928
vn -0.0000 0.6726 -0.7400
vn 0.2727 0.6123 -0.7421
vn -0.5437 -0.0000 -0.8393
vn 0.5437 -0.0000 -0.8393
vn 0.7871 -0.0000 0.6169
vn -0.8242 -0.0000 -0.5663
vn -1.0000 -0.0000 -0.0000
vn 1.0000 -0.0000 -0.0000
vn 0.5437 -0.0000 0.8393
vn 0.8242 -0.0000 -0.5663
vn -0.8242 -0.0000 0.5663
vn -0.7871 -0.0000 -0.6169
vn 0.7871 -0.0000 -0.6169
vn -0.7871 -0.0000 0.6169
vn -0.5437 -0.0000 0.8393
vn 0.8242 -0.0000 0.5663
vn 0.7711 0.1946 0.6063
vn 0.5163 0.1328 0.8460
vn -0.7317 -0.1900 0.6546
vn -0.7317 -0.1900 -0.6546
vn 0.5163 0.1328 -0.8460
vn 0.7711 0.1946 -0.6063
vn 0.5794 0.4352 0.6891
vn 0.3697 0.2789 0.8863
vn -0.5281 -0.4022 0.7479
vn -0.5281 -0.4022 -0.7479
vn 0.3697 0.2789 -0.8863
vn 0.5794 0.4352 -0.6891
vn -0.2727 0.6123 -0.7421
vn -0.1756 0.3841 0.9065
vn 0.2585 -0.5466 0.7965
vn 0.2585 -0.5466 -0.7965
vn -0.1756 0.3841 -0.9065
vn 0.2901 0.6644 0.6888
vn 0.2037 0.4575 0.8655
vn -0.3040 -0.6650 0.6822
vn -0.3040 -0.6650 -0.6822
vn 0.2037 0.4575 -0.8655
vn -0.2727 0.6123 0.7421
vn -0.5912 0.4460 0.6719
vn -0.3997 0.3044 0.8646
vn 0.5560 -0.4268 0.7132
vn 0.5560 -0.4268 -0.7132
vn -0.3997 0.3044 -0.8646
vn -0.5912 0.4460 -0.6719
vn -0.8063 0.2074 0.5539
vn -0.5384 0.1398 0.8310
vn 0.7707 -0.2032 0.6040
vn 0.7707 -0.2032 -0.6040
vn -0.5384 0.1398 -0.8310
vn -0.8063 0.2074 -0.5539
vn 0.2901 0.6644 -0.6888
vn -0.7871 -0.0000 -0.6168
vt 0.579930 0.317192
vt 0.579377 0.315020
vt 0.580066 0.317114
vt 0.579500 0.315006
vt 0.580167 0.317049
vt 0.571293 0.304102
vt 0.571201 0.306227
vt 0.571201 0.304127
vt 0.570988 0.306227
vt 0.570988 0.304127
vt 0.570896 0.304102
vt 0.567125 0.319543
vt 0.567284 0.317405
vt 0.567396 0.317447
vt 0.567003 0.319556
vt 0.567136 0.317351
vt 0.579210 0.315031
vt 0.579443 0.312725
vt 0.579573 0.312764
vt 0.571293 0.306256
vt 0.571201 0.308404
vt 0.570988 0.308404
vt 0.570896 0.306256
vt 0.567609 0.321605
vt 0.567489 0.321668
vt 0.566836 0.319573
vt 0.571794 0.298656
vt 0.571424 0.301432
vt 0.571637 0.298586
vt 0.569294 0.304644
vt 0.568981 0.302013
vt 0.569092 0.301961
vt 0.578423 0.331672
vt 0.578331 0.329030
vt 0.578423 0.328955
vt 0.578118 0.331665
vt 0.578118 0.329030
vt 0.578026 0.331672
vt 0.578026 0.328955
vt 0.571904 0.298710
vt 0.571600 0.301430
vt 0.579272 0.312696
vt 0.580487 0.310723
vt 0.566738 0.298361
vt 0.568212 0.300123
vt 0.566646 0.298453
vt 0.578423 0.324837
vt 0.578331 0.326857
vt 0.578331 0.324912
vt 0.578118 0.324912
vt 0.578118 0.326857
vt 0.578026 0.324837
vt 0.572640 0.296596
vt 0.574045 0.294402
vt 0.574138 0.294501
vt 0.569468 0.304659
vt 0.569246 0.301910
vt 0.568691 0.307042
vt 0.568535 0.306988
vt 0.569160 0.304631
vt 0.567652 0.298929
vt 0.568301 0.300803
vt 0.568182 0.300843
vt 0.578331 0.331665
vt 0.578118 0.333838
vt 0.570470 0.326334
vt 0.569799 0.328264
vt 0.570350 0.326282
vt 0.571733 0.301412
vt 0.572327 0.303615
vt 0.572167 0.303652
vt 0.567291 0.308745
vt 0.567185 0.308645
vt 0.568426 0.306928
vt 0.567958 0.296927
vt 0.567773 0.298924
vt 0.570269 0.330246
vt 0.569922 0.328279
vt 0.570065 0.328226
vt 0.570016 0.330338
vt 0.572436 0.303556
vt 0.573617 0.304953
vt 0.573507 0.305023
vt 0.568499 0.300074
vt 0.568332 0.300093
vt 0.578423 0.326864
vt 0.572521 0.296567
vt 0.572351 0.296532
vt 0.573906 0.294300
vt 0.573691 0.304864
vt 0.574064 0.305157
vt 0.567609 0.316865
vt 0.568301 0.296409
vt 0.568063 0.296975
vt 0.568983 0.310269
vt 0.569116 0.309722
vt 0.569116 0.310302
vt 0.571201 0.303548
vt 0.570327 0.330886
vt 0.570126 0.330299
vt 0.580386 0.317638
vt 0.567498 0.316823
vt 0.566718 0.308964
vt 0.570988 0.303548
vt 0.570217 0.330924
vt 0.563737 0.312303
vt 0.563844 0.311718
vt 0.563844 0.312284
vt 0.566646 0.308867
vt 0.567113 0.308548
vt 0.580250 0.317716
vt 0.571293 0.308472
vt 0.570896 0.308472
vt 0.567326 0.321724
vt 0.580355 0.310652
vt 0.578026 0.326864
vt 0.578331 0.333838
vt 0.574138 0.305069
vt 0.568196 0.296361
vt 0.568983 0.309690
vt 0.570470 0.330832
vt 0.580487 0.317573
vt 0.567349 0.316769
vt 0.566824 0.309064
vt 0.570896 0.303522
vt 0.563737 0.311737
s 0
g cooking_handle_Material
usemtl Material
f 187/370/167 195/371/167 188/372/167
f 188/372/168 196/373/168 189/374/168
f 189/375/169 197/376/169 190/377/169
f 190/377/170 198/378/170 191/379/170
f 198/378/171 192/380/171 191/379/171
f 199/381/172 193/382/172 192/383/172
f 200/384/173 187/385/173 193/382/173
f 194/386/174 202/387/174 195/371/174
f 195/371/175 203/388/175 196/373/175
f 196/389/176 204/390/176 197/376/176
f 204/390/177 198/378/177 197/376/177
f 205/391/178 199/392/178 198/378/178
f 206/393/179 200/384/179 199/381/179
f 207/394/180 194/395/180 200/384/180
f 241/396/181 208/397/181 230/398/181
f 209/399/182 233/400/182 231/401/182
f 210/402/183 235/403/183 233/404/183
f 235/403/184 212/405/184 237/406/184
f 237/406/185 213/407/185 239/408/185
f 239/409/186 214/410/186 241/396/186
f 201/411/187 232/412/187 202/387/187
f 202/413/188 234/414/188 203/415/188
f 203/416/189 236/417/189 204/418/189
f 236/417/190 205/419/190 204/418/190
f 238/420/191 206/421/191 205/419/191
f 240/422/192 207/423/192 206/424/192
f 208/425/193 231/401/193 230/426/193
f 215/427/194 209/399/194 208/425/194
f 216/428/195 210/429/195 209/399/195
f 217/430/196 211/431/196 210/432/196
f 211/433/197 219/434/197 212/405/197
f 212/435/198 220/436/198 213/437/198
f 213/438/199 221/439/199 214/410/199
f 214/410/200 215/440/200 208/397/200
f 222/441/201 216/428/201 215/427/201
f 223/442/202 217/443/202 216/428/202
f 224/444/203 218/445/203 217/430/203
f 225/446/204 219/447/204 218/448/204
f 219/447/205 227/449/205 220/436/205
f 220/450/206 228/451/206 221/439/206
f 221/439/207 222/452/207 215/440/207
f 231/401/208 229/453/208 230/426/208
f 233/400/209 232/454/209 231/401/209
f 233/404/210 236/417/210 234/455/210
f 235/403/211 238/420/211 236/417/211
f 239/408/212 238/420/212 237/406/212
f 239/409/213 242/456/213 240/422/213
f 242/456/214 230/398/214 229/457/214
f 242/456/215 201/458/215 207/423/215
f 227/459/216 256/460/216 228/451/216
f 193/382/217 248/461/217 192/383/217
f 224/444/218 253/462/218 225/463/218
f 228/464/219 250/465/219 222/466/219
f 191/379/220 246/467/220 190/377/220
f 225/446/221 254/468/221 226/469/221
f 189/374/222 244/470/222 188/372/222
f 187/385/223 249/471/223 193/382/223
f 222/441/224 251/472/224 223/442/224
f 192/380/225 247/473/225 191/379/225
f 226/469/226 255/474/226 227/449/226
f 190/475/227 245/476/227 189/477/227
f 223/442/228 252/478/228 224/479/228
f 188/372/229 243/480/229 187/370/229
f 187/370/230 194/386/230 195/371/230
f 188/372/231 195/371/231 196/373/231
f 189/375/232 196/389/232 197/376/232
f 190/377/170 197/376/170 198/378/170
f 198/378/233 199/392/233 192/380/233
f 199/381/234 200/384/234 193/382/234
f 200/384/235 194/395/235 187/385/235
f 194/386/236 201/411/236 202/387/236
f 195/371/237 202/387/237 203/388/237
f 196/389/238 203/481/238 204/390/238
f 204/390/177 205/391/177 198/378/177
f 205/391/239 206/482/239 199/392/239
f 206/393/240 207/394/240 200/384/240
f 207/394/241 201/483/241 194/395/241
f 241/396/242 214/410/242 208/397/242
f 209/399/243 210/429/243 233/400/243
f 210/402/244 211/433/244 235/403/244
f 235/403/184 211/433/184 212/405/184
f 237/406/245 212/405/245 213/407/245
f 239/409/246 213/438/246 214/410/246
f 201/411/247 229/484/247 232/412/247
f 202/413/248 232/454/248 234/414/248
f 203/416/249 234/455/249 236/417/249
f 236/417/190 238/420/190 205/419/190
f 238/420/250 240/485/250 206/421/250
f 240/422/251 242/456/251 207/423/251
f 208/425/252 209/399/252 231/401/252
f 215/427/253 216/428/253 209/399/253
f 216/428/254 217/443/254 210/429/254
f 217/430/255 218/445/255 211/431/255
f 211/433/197 218/486/197 219/434/197
f 212/435/256 219/447/256 220/436/256
f 213/438/257 220/450/257 221/439/257
f 214/410/258 221/439/258 215/440/258
f 222/441/259 223/442/259 216/428/259
f 223/442/260 224/479/260 217/443/260
f 224/444/261 225/463/261 218/445/261
f 225/446/204 226/469/204 219/447/204
f 219/447/262 226/469/262 227/449/262
f 220/450/263 227/459/263 228/451/263
f 221/439/264 228/451/264 222/452/264
f 231/401/208 232/454/208 229/453/208
f 233/400/209 234/414/209 232/454/209
f 233/404/210 235/403/210 236/417/210
f 235/403/211 237/406/211 238/420/211
f 239/408/212 240/485/212 238/420/212
f 239/409/213 241/396/213 242/456/213
f 242/456/214 241/396/214 230/398/214
f 242/456/265 229/457/265 201/458/265
f 227/459/216 255/487/216 256/460/216
f 193/382/217 249/471/217 248/461/217
f 224/444/218 252/488/218 253/462/218
f 228/464/219 256/489/219 250/465/219
f 191/379/220 247/473/220 246/467/220
f 225/446/221 253/490/221 254/468/221
f 189/374/222 245/491/222 244/470/222
f 187/385/223 243/492/223 249/471/223
f 222/441/224 250/493/224 251/472/224
f 192/380/266 248/494/266 247/473/266
f 226/469/226 254/468/226 255/474/226
f 190/475/227 246/495/227 245/476/227
f 223/442/228 251/472/228 252/478/228
f 188/372/229 244/470/229 243/480/229
