# Blender 4.2.0
# www.blender.org
mtllib flower_petal_1_b.mtl
g flower_petal_1_b_Mesh
v -0.007528 -0.009305 0.045572
v -0.019197 0.008193 0.015035
v -0.019141 -0.000646 0.033361
v 0.034263 0.003744 0.026186
v 0.021539 0.011917 0.008720
v -0.000103 0.013271 0.002089
v -0.023183 0.006675 0.011460
v -0.025923 -0.003586 0.034840
v 0.038521 0.000084 0.023536
v 0.026437 0.007248 0.004443
v -0.001262 0.009730 -0.003535
v -0.023181 0.005322 0.007213
v -0.030286 -0.004634 0.037892
v 0.042337 -0.002002 0.019207
v 0.026293 0.005230 0.002108
v -0.004607 0.008944 -0.007232
v -0.013229 -0.005445 0.031463
v 0.022955 -0.004753 0.023313
v 0.015062 -0.000480 0.012594
v 0.001575 0.000934 0.009941
v -0.087043 -0.001211 -0.019564
v -0.026015 0.003774 0.007543
v -0.032844 -0.006106 0.035650
v 0.043537 -0.003090 0.017925
v 0.028866 0.003844 -0.000222
v -0.004752 0.007892 -0.008028
v -0.057192 0.005076 -0.013245
v -0.059174 -0.006188 0.022254
v -0.023426 0.005976 -0.030905
v -0.059458 -0.007778 0.021813
v -0.025146 0.004073 -0.029840
v 0.050919 0.002332 -0.026795
v 0.021061 0.008092 -0.039936
v 0.058776 -0.006973 0.000466
v 0.020974 0.006569 -0.040403
v 0.058219 -0.008505 -0.002303
v -0.048179 -0.008145 0.023303
v -0.034528 -0.007281 0.026642
v -0.036567 -0.007365 0.030367
v -0.048499 -0.007501 0.026521
v -0.009633 0.004648 -0.008952
v -0.016969 0.003642 -0.020014
v -0.047003 0.003951 -0.006220
v -0.036815 0.002827 0.000805
v -0.011311 0.002310 -0.004796
v -0.019236 0.003165 -0.017095
v 0.012856 0.007326 -0.028755
v 0.001124 0.004271 -0.009543
v 0.036730 0.004126 -0.013590
v 0.043825 0.003229 -0.020193
v 0.015139 0.005700 -0.027848
v 0.003989 0.002654 -0.008138
v 0.045206 -0.008224 0.007367
v 0.036868 -0.006366 0.012601
v 0.041032 -0.005146 0.013990
v 0.047073 -0.007428 0.010199
v -0.009606 0.011304 0.008249
v -0.012241 0.007816 0.003834
v -0.014241 0.006080 0.000303
v -0.014520 0.005004 -0.000402
v 0.027373 -0.006887 0.028598
v -0.002117 -0.000526 0.015336
v -0.047503 0.006588 -0.021713
v -0.023321 0.004817 -0.006537
v -0.032897 0.003753 -0.011608
v -0.022551 0.004938 0.022746
v -0.025679 0.002556 0.023519
v -0.028310 0.000451 0.023258
v -0.029375 -0.000326 0.022242
v -0.012640 -0.002088 0.024121
v -0.061250 0.000062 0.003527
v -0.038616 -0.001807 0.015605
v -0.047617 -0.001236 0.009470
v 0.009913 0.012346 0.006613
v -0.017023 -0.003586 0.043973
v 0.010897 0.009216 0.000707
v 0.010636 0.007383 -0.004432
v 0.010652 0.006314 -0.005198
v -0.088232 0.005103 -0.035444
v 0.009334 0.000815 0.009615
v -0.009148 -0.007521 0.037367
v 0.036032 0.005743 -0.034734
v 0.022604 0.006739 -0.019342
v 0.028668 0.005618 -0.025118
v -0.069434 0.007066 -0.045288
v 0.000610 -0.009272 0.049228
v 0.028031 0.008755 0.018053
v 0.032462 0.003043 0.011544
v 0.036002 0.000105 0.011647
v 0.035420 -0.000328 0.008212
v 0.002737 -0.009647 0.044468
v 0.019285 -0.002567 0.018293
v 0.056590 -0.003029 -0.011452
v 0.040258 -0.000794 0.000651
v 0.046321 -0.001915 -0.005125
v -0.076164 -0.001386 0.004859
v -0.088251 0.000804 -0.017939
v -0.022630 -0.006820 0.033231
v 0.033391 -0.005179 0.022360
v -0.000234 0.002880 0.000808
v -0.004946 -0.009614 0.042964
v -0.008530 -0.001478 0.018863
v -0.074891 -0.006047 0.002636
v -0.070106 0.004452 -0.044317
v -0.086895 0.002823 -0.035022
v -0.050129 0.004912 -0.033966
v -0.050141 0.007533 -0.035674
v 0.055646 0.014279 -0.054632
v 0.037042 0.009854 -0.047435
v 0.078344 0.007850 -0.038699
v 0.072239 0.015366 -0.052401
v 0.057191 0.011700 -0.054959
v 0.038039 0.006851 -0.046663
v 0.079305 0.006239 -0.040718
v 0.071763 0.012764 -0.052773
v 0.072774 -0.006316 -0.012484
v 0.074579 -0.004228 -0.010732
v -0.051812 -0.007368 0.025538
v -0.018830 0.004152 -0.022420
v -0.020757 0.002205 -0.020968
v -0.051922 -0.007215 0.022580
v -0.054576 0.004787 -0.011442
v -0.042828 0.005515 -0.018485
v -0.057751 -0.000271 0.005052
v -0.036882 -0.007582 0.026250
v -0.038990 -0.007431 0.029607
v -0.010681 0.004380 -0.010282
v -0.043477 0.003562 -0.003789
v -0.012655 0.002455 -0.007749
v -0.029858 0.003536 -0.009485
v -0.044578 -0.001452 0.011594
v -0.025434 -0.007054 0.028078
v -0.033790 0.002989 0.003029
v -0.033267 -0.006182 0.032336
v -0.006403 0.005582 -0.006158
v -0.006031 0.001377 0.001109
v -0.020535 0.004876 -0.004595
v -0.035830 -0.001748 0.017547
v 0.048896 0.002588 -0.024912
v 0.048923 -0.008106 0.009476
v 0.015105 0.008182 -0.031903
v 0.016887 0.006360 -0.030902
v 0.046989 -0.008866 0.006963
v 0.033932 0.005707 -0.031992
v 0.053661 -0.002712 -0.009648
v 0.002338 0.004040 -0.010242
v 0.040937 0.003594 -0.017505
v 0.004648 0.002461 -0.009991
v 0.039068 -0.006496 0.010573
v 0.042168 -0.005422 0.012958
v 0.026199 0.006074 -0.022767
v 0.043852 -0.001459 -0.002774
v -0.000679 0.005117 -0.008872
v 0.004569 0.001664 0.000097
v 0.031748 -0.005692 0.016852
v 0.034131 0.004454 -0.011172
v 0.041350 -0.004389 0.015695
v 0.020383 0.007149 -0.017226
v 0.038036 -0.000383 0.002767
v 0.025383 0.006476 -0.040784
v 0.024488 0.008696 -0.042043
v 0.041099 0.006771 -0.038639
v 0.057632 0.004968 -0.035788
v 0.061648 -0.007938 -0.005104
v 0.063028 -0.001258 -0.017789
v 0.062819 -0.006186 -0.002571
v -0.060827 -0.006997 0.018844
v -0.061925 -0.005731 0.020844
v -0.027462 0.004834 -0.030849
v -0.026352 0.007016 -0.032152
v -0.069430 0.000762 -0.003322
v -0.054728 0.005842 -0.026659
v -0.067042 0.002842 -0.020815
v -0.074574 -0.004356 0.007551
v -0.046350 0.005723 -0.032800
v -0.079130 0.000025 -0.011015
v -0.064727 0.004841 -0.032192
v -0.072625 -0.005840 0.006061
v -0.046130 0.008217 -0.034599
v -0.078174 0.003215 -0.028691
v 0.034667 0.009196 -0.046000
v 0.065481 0.009779 -0.045029
v 0.072066 0.003221 -0.030775
v 0.072501 -0.005184 -0.007523
v 0.035815 0.006366 -0.045118
v 0.048610 0.009865 -0.047240
v 0.070651 -0.007042 -0.009391
v -0.070147 0.004975 -0.046294
v -0.088900 0.003083 -0.036395
v -0.088970 -0.001289 -0.018938
v -0.076468 -0.006130 0.003855
v -0.025738 -0.007423 0.030136
v -0.018934 -0.006445 0.032324
v -0.018862 0.002167 -0.021869
v -0.023637 0.004352 -0.031407
v 0.024395 0.007117 -0.042529
v 0.022440 0.005992 -0.038963
v 0.002507 0.002227 -0.000031
v 0.000406 0.002008 0.003622
v 0.032966 -0.006038 0.018536
v 0.030650 -0.004834 0.022776
v -0.051478 -0.008971 0.024556
v -0.048567 -0.008727 0.025279
v -0.037577 -0.008185 0.028138
v -0.035104 -0.007925 0.028569
v -0.004413 0.001967 -0.000102
v -0.009550 0.002596 -0.005926
v -0.010821 0.002691 -0.008739
v -0.016777 0.003275 -0.017920
v 0.015128 0.006810 -0.031954
v 0.013361 0.006153 -0.028857
v 0.002663 0.002743 -0.010597
v 0.001904 0.002939 -0.008468
v 0.047352 -0.009609 0.008894
v 0.045456 -0.008912 0.009330
v 0.040165 -0.007164 0.012236
v 0.038079 -0.007029 0.014168
v -0.062166 -0.007316 0.020477
v -0.058722 -0.007225 0.019914
v 0.062650 -0.008573 -0.003376
v 0.058612 -0.009290 -0.000319
v 0.003016 -0.009100 0.042441
v -0.008707 -0.002233 0.026045
v -0.011602 -0.004798 0.031550
v 0.020806 -0.006319 0.032025
v 0.020508 -0.004734 0.026608
v 0.008594 0.000367 0.012941
v 0.003101 0.001175 0.011956
v -0.007790 -0.006730 0.036661
v -0.004012 -0.008614 0.041858
v 0.016967 -0.002679 0.020841
v 0.012595 -0.001167 0.017056
v 0.000420 -0.000833 0.017750
v -0.004674 -0.001692 0.021185
v 0.016572 -0.007385 0.036175
v 0.056606 0.012668 -0.056652
v 0.036920 0.007693 -0.048108
v 0.077308 0.005987 -0.040883
v 0.073141 0.013799 -0.054319
v -0.049714 0.005495 -0.035827
v 0.074444 -0.006376 -0.011441
v -0.045713 0.006203 -0.034751
v 0.034551 0.007063 -0.046665
v 0.072367 -0.007303 -0.008227
v -0.074184 -0.006077 0.007419
v -0.026566 0.005344 -0.032672
v 0.000133 -0.012096 0.048941
v -0.015853 -0.003613 0.024036
v -0.015743 -0.006049 0.031855
v 0.027452 -0.004718 0.023085
v 0.009551 0.000747 0.007230
v 0.001026 0.001385 0.006746
v -0.012594 -0.008824 0.039204
v -0.007341 -0.011363 0.046137
v 0.023584 -0.002823 0.015850
v 0.018348 -0.000237 0.008947
v -0.006494 0.000431 0.010568
v -0.013847 -0.000872 0.015638
v -0.061649 -0.001383 0.003010
v -0.057953 -0.006378 0.018530
v -0.047762 0.005160 -0.022320
v -0.057478 0.003698 -0.013773
v -0.022930 -0.000184 0.009582
v 0.036068 0.004130 -0.035430
v 0.023743 0.006062 -0.037904
v 0.056731 -0.004695 -0.012015
v 0.050955 0.000779 -0.027411
v 0.047387 0.000984 -0.024184
v -0.053273 0.003105 -0.010904
v -0.040567 0.001272 -0.002243
v -0.035967 0.000494 0.000865
v -0.027185 0.000138 0.006739
v -0.017088 0.001336 0.001621
v -0.012195 0.002574 -0.004035
v -0.027581 0.001188 -0.007538
v -0.020080 0.001578 -0.016076
v -0.028038 -0.003415 0.017513
v -0.040486 -0.003270 0.010989
v 0.022909 0.000212 0.001713
v 0.025570 0.000472 -0.002508
v 0.033811 0.001577 -0.011973
v 0.037951 0.001476 -0.015666
v 0.014461 0.001334 -0.003492
v 0.025125 0.003429 -0.019646
v 0.031050 -0.002892 0.006731
v 0.036423 -0.005665 0.011916
v 0.039926 -0.002895 -0.002889
v 0.044829 -0.007434 0.006410
v -0.026249 0.004267 -0.028470
v -0.024035 0.001945 -0.004382
v -0.013702 0.001042 0.004523
v -0.041987 0.003785 -0.017792
v -0.034133 -0.006473 0.025611
v -0.047620 -0.007258 0.022006
v -0.036184 -0.003319 0.013240
v -0.024097 -0.003468 0.019602
v -0.056465 -0.001833 0.005045
v 0.005254 0.002942 -0.007834
v 0.016360 0.005826 -0.026986
v 0.022017 0.003483 -0.015986
v 0.012671 0.001112 0.000515
v 0.033018 0.003955 -0.031111
v -0.066605 0.001346 -0.020853
v -0.078793 -0.001572 -0.011305
v -0.084995 -0.000799 -0.019052
v 0.059157 -0.007139 -0.005099
v 0.035963 -0.002480 -0.000167
v 0.028262 -0.002855 0.010091
v 0.052096 -0.004208 -0.009440
v 0.072351 0.001743 -0.031980
v 0.075723 0.005750 -0.040109
v 0.002232 -0.009172 0.046921
v -0.013556 -0.001781 0.024165
v -0.014246 -0.005321 0.031727
v 0.023989 -0.004626 0.022301
v 0.009380 0.001377 0.008899
v 0.000688 0.001613 0.008993
v -0.009951 -0.007320 0.037800
v -0.005288 -0.009395 0.043610
v 0.020881 -0.002462 0.018734
v 0.017274 -0.000169 0.012588
v -0.002466 0.000029 0.014712
v -0.009100 -0.000972 0.018623
v 0.049029 0.008345 -0.048340
v 0.056831 0.011112 -0.053317
v 0.057430 0.003291 -0.036177
v -0.054348 0.004274 -0.026775
v -0.021769 0.002458 -0.019871
v -0.051292 -0.006380 0.021256
v -0.013599 0.002700 -0.006950
v -0.036482 -0.006760 0.025164
v -0.006770 0.001673 0.001776
v -0.025173 -0.006337 0.027344
v 0.046558 -0.008065 0.005996
v 0.018157 0.006467 -0.029992
v 0.038586 -0.005788 0.009875
v 0.005911 0.002745 -0.009675
v 0.031396 -0.005021 0.016268
v 0.005525 0.002011 0.000336
v 0.062878 -0.002984 -0.018283
v 0.040950 0.005059 -0.039174
v 0.066124 0.008556 -0.046434
v 0.026507 0.006473 -0.039395
v 0.061221 -0.006971 -0.006395
v -0.078611 0.001707 -0.029356
v -0.069054 -0.000808 -0.003432
v -0.064523 0.003203 -0.032306
v -0.028484 0.004936 -0.029166
v -0.059763 -0.006163 0.017458
v -0.085326 0.003071 -0.033810
v -0.069039 0.004542 -0.042431
v -0.047746 0.005742 -0.030098
v -0.071626 -0.004276 0.005076
v 0.070785 0.012343 -0.051552
v 0.036872 0.006537 -0.044239
v 0.069660 -0.006184 -0.010270
v -0.073702 -0.005231 0.001391
v 0.039003 0.006859 -0.045395
v -0.051030 0.005053 -0.032308
v 0.071470 -0.005489 -0.013341
v 0.004741 -0.007912 0.039632
v -0.005018 -0.005529 0.032649
v 0.000101 -0.006863 0.035892
v 0.010547 -0.002313 0.020780
v 0.016564 -0.003283 0.022713
v 0.007247 -0.000217 0.014892
v 0.005517 -0.004506 0.028056
v 0.012309 -0.004399 0.035364
v 0.000369 -0.003196 0.024849
v 0.010048 -0.006056 0.035948
v -0.003197 -0.004741 0.030012
v 0.001694 -0.006169 0.033587
v 0.008993 -0.002993 0.023026
v 0.003826 -0.001698 0.019844
v 0.013143 -0.004764 0.027665
v 0.006159 0.007545 0.031934
v -0.011930 0.009667 0.020377
v 0.019452 0.000207 0.036190
v 0.013381 -0.000471 0.037522
v -0.003019 0.008269 0.025964
v 0.034546 0.004511 0.026899
v 0.039630 0.000395 0.023023
v 0.030458 -0.005447 0.022180
v 0.026354 -0.006022 0.020978
v 0.023781 -0.005251 0.021702
v 0.022528 -0.005451 0.022802
v 0.024840 -0.006772 0.030321
v 0.033557 -0.005707 0.021579
v 0.001434 -0.010567 0.044042
v -0.001186 -0.010930 0.045366
v 0.000889 -0.009782 0.040751
v -0.001190 -0.012858 0.047493
v 0.013109 -0.006286 0.033194
v 0.014787 0.003351 0.036955
v 0.003687 -0.008571 0.037325
v 0.005158 -0.007898 0.036297
v -0.000808 -0.009140 0.052064
vn 0.1144 0.8855 -0.4503
vn 0.6310 0.7431 -0.2226
vn -0.4234 0.8166 -0.3924
vn -0.4188 0.8861 -0.1986
vn -0.5736 0.8042 0.1559
vn -0.6312 0.7723 0.0711
vn 0.6269 0.7476 -0.2191
vn 0.2646 0.9039 -0.3360
vn -0.6273 0.7675 0.1323
vn -0.6126 0.5386 -0.5784
vn 0.5146 0.8356 -0.1924
vn 0.3863 0.5414 -0.7467
vn 0.8817 0.0314 -0.4709
vn 0.0959 0.9778 0.1861
vn 0.1457 0.9815 0.1244
vn -0.3446 -0.1931 0.9187
vn -0.1297 0.8439 0.5206
vn 0.9200 0.3662 -0.1393
vn -0.0340 0.9573 0.2870
vn -0.0077 0.9138 0.4060
vn -0.7999 0.2170 -0.5596
vn 0.2609 0.9297 0.2598
vn 0.6649 -0.2817 0.6917
vn -0.2124 0.9374 0.2760
vn -0.1408 0.9442 0.2977
vn -0.0234 -0.9029 0.4292
vn -0.0613 -0.9108 0.4083
vn 0.0056 0.9992 -0.0385
vn 0.0345 0.9980 0.0523
vn 0.5918 -0.6595 -0.4635
vn 0.4054 -0.8933 -0.1942
vn 0.5303 -0.8071 0.2597
vn 0.1697 -0.6290 0.7587
vn 0.4104 0.8737 0.2612
vn 0.4312 0.8555 0.2866
vn -0.6428 -0.7658 -0.0187
vn -0.7982 -0.2982 -0.5234
vn 0.1890 0.9819 0.0079
vn 0.1703 0.9853 -0.0125
vn 0.0482 0.9948 0.0894
vn -0.1067 0.9916 0.0727
vn -0.0070 0.9858 0.1680
vn -0.4506 0.7092 -0.5421
vn -0.2970 0.9098 -0.2899
vn -0.2166 0.9619 -0.1669
vn -0.1190 0.9307 0.3458
vn -0.4859 0.8105 0.3272
vn 0.0063 0.9454 0.3257
vn 0.0029 0.9445 0.3286
vn -0.6076 0.7721 0.1863
vn -0.2688 0.8490 0.4549
vn 0.0111 0.9834 0.1809
vn -0.3651 -0.0402 -0.9301
vn -0.0573 0.8802 0.4711
vn 0.1302 0.9878 0.0856
vn 0.2045 0.5728 -0.7938
vn 0.1573 0.9273 -0.3397
vn 0.2265 0.8026 -0.5519
vn 0.3476 0.9035 0.2509
vn 0.3326 0.9138 0.2333
vn 0.3115 0.9270 0.2088
vn 0.5009 0.8647 0.0385
vn 0.7977 0.4311 -0.4216
vn 0.6059 0.7798 -0.1573
vn -0.4744 -0.7518 -0.4580
vn -0.2610 -0.8836 -0.3887
vn -0.1903 -0.8013 -0.5672
vn -0.2049 -0.7852 -0.5844
vn -0.0084 -1.0000 0.0051
vn 0.1780 -0.8832 -0.4339
vn -0.8691 0.0644 0.4904
vn -0.4408 0.5069 -0.7408
vn -0.4426 0.5864 -0.6784
vn 0.8238 0.5639 -0.0578
vn 0.4373 0.1582 -0.8853
vn -0.9563 0.2845 0.0674
vn 0.0344 0.7818 -0.6226
vn 0.9913 -0.0931 0.0932
vn 0.0229 0.9711 0.2374
vn -0.3040 -0.9445 -0.1248
vn -0.0380 -0.7852 -0.6181
vn 0.7079 -0.2699 0.6528
vn -0.1285 0.9691 0.2108
vn -0.3076 -0.8558 -0.4160
vn -0.2101 0.9075 0.3637
vn -0.0488 0.9834 0.1748
vn -0.2613 -0.8120 -0.5218
vn -0.0637 0.9378 0.3413
vn 0.0180 0.9910 0.1325
vn -0.4860 -0.7489 -0.4505
vn 0.1611 -0.8791 -0.4485
vn -0.0456 0.9490 0.3120
vn 0.3646 -0.9237 -0.1173
vn 0.0789 0.9871 0.1391
vn -0.1399 0.9201 0.3658
vn -0.4673 -0.7613 -0.4494
vn -0.4533 -0.7667 -0.4546
vn 0.0426 0.9943 0.0974
vn -0.0542 0.9542 -0.2944
vn -0.3914 -0.7870 -0.4770
vn -0.1328 0.9504 0.2814
vn 0.2297 -0.9724 -0.0414
vn -0.7590 0.6459 0.0821
vn 0.1804 -0.9696 0.1655
vn -0.3895 -0.7693 -0.5065
vn -0.1208 0.9920 0.0356
vn 0.3486 -0.7275 -0.5909
vn -0.0459 0.9983 0.0354
vn 0.1750 -0.9790 -0.1041
vn -0.0188 -0.9777 0.2092
vn -0.3355 0.9245 0.1812
vn 0.0314 -0.9968 0.0733
vn 0.3209 0.9213 0.2197
vn 0.0375 0.9572 0.2869
vn -0.0489 -0.9320 0.3591
vn 0.2987 0.8966 0.3269
vn 0.1400 -0.7326 -0.6661
vn 0.1212 0.9870 0.1057
vn 0.3415 0.9077 0.2437
vn 0.6105 -0.6316 -0.4778
vn -0.2124 -0.9760 0.0487
vn -0.4228 0.3323 -0.8431
vn 0.1819 0.9833 0.0001
vn -0.2323 -0.9704 0.0665
vn 0.4125 0.8719 0.2638
vn 0.0090 -0.5124 0.8587
vn 0.1915 -0.8151 -0.5468
vn 0.3488 0.9113 0.2185
vn 0.2040 -0.8071 -0.5541
vn 0.1874 -0.8687 -0.4586
vn 0.2051 0.5477 -0.8112
vn 0.0941 0.9850 0.1446
vn -0.2855 -0.9366 -0.2033
vn -0.0739 -0.8081 -0.5844
vn 0.3918 0.9024 0.1792
vn 0.3222 -0.9207 0.2204
vn 0.0126 -0.9717 0.2359
vn -0.3986 -0.7121 -0.5780
vn -0.1106 -0.9787 -0.1732
vn 0.1102 -0.9836 0.1431
vn 0.2835 -0.1799 0.9419
vn 0.1151 -0.9904 -0.0769
vn -0.0614 -0.9122 -0.4050
vn 0.0420 0.9504 0.3083
vn -0.2606 -0.9626 -0.0737
vn 0.0497 0.9481 0.3141
vn 0.0346 0.9444 0.3270
vn 0.0479 0.9483 0.3137
vn 0.1005 -0.9840 -0.1472
vn 0.1225 -0.9425 -0.3108
vn 0.2626 -0.9027 -0.3408
vn 0.2507 -0.9350 -0.2509
vn 0.1216 -0.9915 0.0459
vn -0.0025 -0.9988 0.0492
vn -0.1313 0.9581 0.2547
vn -0.0548 0.9960 -0.0702
vn -0.2308 0.9729 0.0132
vn -0.0050 0.9484 0.3171
vn -0.1581 -0.8878 -0.4322
vn -0.3059 -0.8737 -0.3781
vn 0.1888 -0.9813 -0.0364
vn 0.1760 -0.9761 -0.1278
vn -0.1511 0.9838 0.0964
vn -0.1627 0.9797 0.1168
vn 0.6463 -0.6572 -0.3878
vn -0.0781 0.9845 0.1571
vn -0.0411 -0.9991 -0.0142
vn -0.7286 -0.2155 0.6501
vn 0.1282 0.1009 -0.9866
vn -0.2365 0.9174 0.3199
vn 0.4584 -0.3059 0.8344
vn 0.0218 0.9403 0.3395
vn -0.2945 -0.8231 -0.4855
vn -0.3874 -0.9160 0.1042
vn 0.0380 0.9293 0.3674
vn -0.3590 0.2959 -0.8852
vn 0.0567 0.9619 0.2673
vn -0.0416 0.9003 0.4334
vn -0.1694 -0.9654 -0.1980
vn -0.2573 -0.9613 -0.0982
vn 0.1118 -0.8083 -0.5780
vn 0.2730 -0.9023 -0.3337
vn 0.4705 -0.6853 0.5558
vn 0.6102 -0.2914 0.7367
vn 0.2374 0.1222 -0.9637
vn -0.4568 -0.1340 0.8794
vn 0.7284 -0.4939 -0.4749
vn 0.8478 -0.2136 0.4855
vn -0.5382 0.2767 -0.7961
vn -0.4499 -0.7054 -0.5477
vn -0.8000 -0.2993 -0.5200
vn -0.5525 0.2756 -0.7867
vn -0.8185 -0.2265 0.5280
vn -0.1600 -0.5397 0.8265
vn 0.7578 -0.1861 -0.6254
vn 0.4462 0.2129 -0.8692
vn -0.2155 -0.8521 -0.4770
vn -0.0370 -0.9663 -0.2547
vn -0.0240 -0.9805 -0.1951
vn 0.3062 -0.9439 -0.1237
vn -0.0956 -0.9826 -0.1595
vn -0.0444 -0.9455 -0.3225
vn 0.1638 -0.1679 0.9721
vn -0.2465 -0.9486 -0.1986
vn -0.0602 -0.9910 0.1193
vn -0.0605 -0.7529 -0.6554
vn 0.1445 -0.9569 -0.2520
vn 0.1632 -0.9552 -0.2471
vn 0.0691 -0.9918 -0.1079
vn -0.0923 -0.9621 -0.2567
vn -0.1550 -0.9867 0.0481
vn -0.3789 -0.8874 -0.2627
vn -0.2516 -0.9457 -0.2056
vn -0.0515 -0.9714 -0.2318
vn -0.0987 -0.9320 -0.3489
vn 0.3607 -0.8588 -0.3637
vn -0.3981 -0.9165 -0.0387
vn -0.0098 -0.9919 0.1263
vn 0.2716 -0.8167 -0.5091
vn -0.1573 -0.9592 -0.2348
vn 0.0503 -0.9835 -0.1740
vn 0.2088 -0.4026 0.8913
vn 0.1384 -0.9538 -0.2665
vn 0.0142 -0.9945 -0.1042
vn -0.1366 -0.9773 -0.1622
vn 0.2337 -0.8390 -0.4914
vn -0.2667 -0.9465 -0.1817
vn -0.3238 -0.8854 -0.3334
vn 0.0034 -0.8676 -0.4973
vn 0.1491 -0.8276 -0.5412
vn 0.1581 -0.9518 -0.2627
vn 0.0401 -0.9693 -0.2426
vn 0.1263 -0.8726 -0.4718
vn 0.1929 -0.9124 -0.3611
vn 0.2153 -0.9622 -0.1668
vn 0.1143 -0.9706 0.2119
vn 0.0970 -0.9650 -0.2437
vn 0.1150 -0.9588 -0.2599
vn 0.1001 -0.9905 -0.0943
vn 0.0993 -0.9523 -0.2886
vn 0.2709 -0.9003 -0.3406
vn -0.2408 -0.9606 -0.1392
vn -0.2290 -0.9222 -0.3118
vn -0.1099 -0.9646 -0.2395
vn -0.3720 -0.9199 -0.1242
vn -0.1231 -0.9896 -0.0747
vn -0.2225 -0.9741 -0.0394
vn -0.1388 -0.9404 -0.3104
vn -0.0561 -0.9472 -0.3157
vn 0.0403 -0.9911 -0.1269
vn -0.1717 -0.9280 -0.3306
vn -0.0132 -0.9612 -0.2756
vn 0.0654 -0.9977 0.0171
vn -0.1081 -0.8933 -0.4363
vn 0.0291 -0.9653 -0.2597
vn 0.0414 -0.9482 -0.3150
vn -0.0687 -0.9756 -0.2088
vn 0.1390 -0.8524 -0.5041
vn -0.2394 -0.9372 -0.2536
vn -0.1280 -0.9832 -0.1302
vn 0.0466 -0.9869 -0.1542
vn 0.1500 -0.9863 0.0683
vn 0.1589 -0.9328 -0.3236
vn 0.1272 -0.9562 -0.2638
vn -0.1214 -0.9866 -0.1090
vn -0.1633 -0.9787 -0.1245
vn -0.2440 -0.9506 -0.1921
vn -0.2794 -0.9226 -0.2661
vn 0.0869 -0.9944 0.0606
vn 0.0213 -0.9848 -0.1725
vn -0.0814 -0.9830 -0.1643
vn 0.0594 -0.9441 -0.3244
vn 0.1299 -0.9447 -0.3012
vn 0.0538 -0.9594 -0.2770
vn -0.1178 -0.9875 -0.1051
vn -0.0678 -0.9923 -0.1039
vn -0.1595 -0.9806 -0.1138
vn -0.3553 -0.9114 -0.2074
vn -0.2822 -0.9410 -0.1867
vn -0.1996 -0.9314 -0.3044
vn -0.0287 -0.9670 -0.2530
vn -0.2666 -0.8942 -0.3596
vn 0.6065 -0.7399 -0.2910
vn -0.0895 -0.9349 0.3435
vn 0.2251 -0.8462 -0.4829
vn -0.3061 -0.9367 -0.1698
vn 0.0587 -0.9865 -0.1529
vn 0.1881 -0.9739 0.1272
vn 0.0466 -0.9931 -0.1074
vn -0.1768 -0.9837 -0.0340
vn 0.3564 -0.8133 -0.4599
vn -0.0236 -0.7793 -0.6262
vn -0.3576 -0.8668 -0.3475
vn -0.0241 -0.8573 -0.5143
vn 0.3917 -0.8303 -0.3964
vn 0.0230 -0.9004 -0.4344
vn 0.0707 -0.9843 -0.1617
vn 0.1350 -0.9851 0.1067
vn 0.0562 -0.9569 -0.2850
vn -0.1373 -0.9766 -0.1654
vn -0.0688 -0.9858 -0.1530
vn 0.0157 -0.9614 -0.2747
vn 0.1546 -0.9450 -0.2884
vn 0.1284 -0.9862 -0.1047
vn 0.1277 -0.9558 -0.2649
vn 0.0419 -0.9880 -0.1487
vn 0.1254 -0.9470 -0.2958
vn 0.0536 -0.9885 -0.1413
vn 0.1578 -0.9329 -0.3238
vn 0.0581 -0.9839 -0.1687
vn -0.3826 -0.8937 -0.2344
vn -0.1502 -0.9825 -0.1097
vn -0.1765 -0.9702 -0.1660
vn -0.2500 -0.9273 -0.2786
vn -0.2661 -0.9372 -0.2254
vn -0.0918 -0.9767 -0.1940
vn -0.2218 -0.9511 -0.2148
vn -0.0278 -0.9822 -0.1857
vn -0.2239 -0.8766 -0.4259
vn -0.0745 -0.9913 -0.1084
vn -0.2314 -0.9556 -0.1825
vn -0.1214 -0.9865 -0.1100
vn 0.3556 -0.9142 0.1945
vn -0.0577 -0.9473 -0.3151
vn -0.0863 -0.9348 -0.3445
vn -0.1091 -0.9486 -0.2970
vn -0.0462 -0.9507 -0.3067
vn -0.1497 -0.9078 -0.3919
vn 0.1401 -0.9901 -0.0101
vn 0.2176 -0.9178 -0.3320
vn 0.3029 -0.9501 -0.0749
vn -0.0168 -0.9018 -0.4319
vn 0.1719 -0.9769 -0.1272
vn 0.2989 -0.9119 -0.2813
vn 0.0959 -0.9795 -0.1770
vn -0.0053 -0.9441 -0.3295
vn 0.0376 -0.9507 -0.3077
vn -0.0613 -0.9437 -0.3250
vn 0.0577 -0.9072 -0.4168
vn -0.4662 0.7537 0.4634
vn -0.0387 -0.9485 -0.3144
vn -0.0781 -0.9390 -0.3349
vn -0.0519 -0.9463 -0.3190
vn 0.0057 -0.8399 -0.5428
vn -0.0420 -0.9489 -0.3129
vn -0.0467 -0.9477 -0.3158
vn -0.0635 -0.9335 -0.3529
vn -0.0509 -0.9472 -0.3165
vn -0.0410 -0.9491 -0.3123
vn -0.0431 -0.9486 -0.3136
vn -0.0462 -0.9630 -0.2654
vn -0.7730 -0.6341 -0.0214
vn -0.1311 -0.9674 -0.2166
vn -0.0451 -0.9481 -0.3148
vn -0.0276 -0.9005 -0.4340
vn -0.0463 -0.9478 -0.3155
vn 0.5467 -0.5128 0.6619
vn 0.0395 -0.9246 -0.3788
vn -0.0493 -0.9470 -0.3174
vn -0.0444 -0.9631 -0.2654
vn -0.0531 -0.9474 -0.3157
vn -0.0441 -0.9483 -0.3142
vn -0.0942 -0.9197 0.3811
vn 0.2942 0.6771 0.6745
vn -0.0828 -0.3497 0.9332
vn 0.0063 0.9034 0.4288
vn -0.3451 0.8845 0.3139
vn -0.2512 0.8210 0.5126
vn 0.1065 0.9619 0.2517
vn 0.0232 0.9779 0.2077
vn -0.2551 0.9635 0.0812
vn -0.0399 0.9828 0.1804
vn -0.3115 -0.7243 0.6151
vn -0.7749 0.1008 0.6240
vn 0.4096 -0.4701 0.7818
vn -0.1000 -0.6573 0.7469
vn 0.0430 -0.7037 0.7092
vn 0.5490 -0.6663 0.5046
vn 0.8933 -0.3067 -0.3286
vn 0.0404 -0.8236 0.5658
vn -0.1519 -0.8032 0.5760
vn 0.5489 -0.1700 0.8184
vn 0.4659 -0.6144 0.6367
vn 0.0015 -0.9924 -0.1234
vn -0.0691 -0.9280 -0.3661
vn 0.4976 -0.8267 0.2627
vn 0.4865 -0.8282 -0.2781
vn 0.5606 -0.7038 -0.4364
vn 0.9023 -0.2838 0.3246
vn 0.4479 -0.8927 0.0504
vn 0.3547 -0.9341 0.0403
vn 0.5496 -0.5194 0.6543
vn -0.2559 -0.7394 0.6228
vn 0.7784 -0.4741 0.4115
vn 0.2989 -0.9309 -0.2101
vn 0.8067 -0.1930 0.5586
vn 0.7535 -0.4127 0.5118
vn 0.5575 -0.2384 0.7952
vn 0.2380 0.7799 -0.5788
vn 0.6003 0.7975 -0.0595
vn -0.4216 0.8040 -0.4193
vn -0.1935 0.9805 -0.0336
vn -0.4733 0.8663 0.1599
vn -0.4656 0.8772 0.1175
vn 0.4973 0.8486 -0.1803
vn 0.2464 0.7258 -0.6423
vn -0.8804 0.4518 -0.1442
vn -0.6140 0.5282 -0.5865
vn 0.5245 0.8252 -0.2096
vn 0.2118 0.9247 -0.3163
vn 0.8712 -0.1445 -0.4692
vn 0.0831 0.9826 0.1662
vn 0.1878 0.9798 0.0687
vn -0.4140 -0.5367 0.7352
vn -0.0879 0.8889 0.4496
vn 0.0207 0.9962 0.0847
vn -0.0788 0.9602 0.2680
vn -0.0094 0.8624 0.5061
vn -0.8032 0.0085 -0.5956
vn 0.1730 0.9359 0.3068
vn 0.4655 -0.6975 0.5447
vn -0.2434 0.9337 0.2627
vn -0.1082 0.9451 0.3082
vn 0.1070 -0.9212 0.3741
vn -0.2194 -0.6882 0.6916
vn -0.0746 0.9685 -0.2375
vn -0.0458 0.9979 -0.0460
vn 0.5514 -0.6240 -0.5537
vn 0.7078 -0.5074 -0.4914
vn 0.3399 -0.7495 0.5680
vn 0.2316 -0.5878 0.7751
vn 0.9711 0.0898 -0.2211
vn 0.4880 0.8326 0.2620
vn -0.5133 -0.7006 -0.4958
vn -0.8607 -0.0785 -0.5030
vn 0.1647 0.9854 0.0432
vn 0.1478 0.9887 0.0246
vn 0.0278 0.9977 0.0619
vn -0.0869 0.9917 0.0944
vn 0.0715 0.9729 0.2199
vn -0.5374 0.5558 -0.6343
vn -0.2952 0.9129 -0.2818
vn -0.4970 0.8003 -0.3356
vn -0.1663 0.9283 0.3325
vn -0.2782 0.8856 0.3720
vn -0.0500 0.9457 0.3212
vn -0.6025 0.7069 0.3706
vn -0.6682 0.7303 0.1420
vn -0.4297 0.7349 0.5246
vn 0.1218 0.9905 -0.0644
vn -0.3170 0.8119 -0.4903
vn -0.1256 0.8427 0.5235
vn 0.1189 0.9875 0.1039
vn 0.2045 0.5725 -0.7940
vn 0.1575 0.9275 -0.3390
vn 0.2681 0.8690 -0.4159
vn 0.3848 0.8938 0.2304
vn 0.3684 0.9054 0.2110
vn 0.2530 0.9357 0.2459
vn 0.6035 0.7720 -0.1994
vn 0.6247 0.7444 -0.2359
vn 0.6841 0.7118 -0.1590
vn -0.3113 -0.8722 -0.3774
vn -0.3910 -0.7852 -0.4802
vn -0.1774 -0.8149 -0.5517
vn -0.3023 -0.6649 -0.6830
vn 0.0615 -0.9910 0.1185
vn 0.1248 -0.8982 -0.4215
vn -0.8844 -0.0417 0.4649
vn -0.4436 0.4976 -0.7453
vn -0.4048 0.2929 -0.8662
vn 0.8279 0.5570 -0.0656
vn 0.4341 0.2659 -0.8607
vn -0.9533 0.2935 0.0710
vn 0.0310 0.7884 -0.6143
vn 0.9369 0.2365 0.2574
vn -0.0687 0.9792 0.1910
vn -0.4618 -0.8853 0.0544
vn -0.0286 -0.8250 -0.5643
vn -0.1752 0.9842 0.0269
vn -0.2187 -0.8759 -0.4300
vn 0.0892 0.9372 0.3372
vn 0.0222 0.9709 0.2385
vn -0.2663 -0.8278 -0.4938
vn -0.0599 0.9377 0.3422
vn 0.0712 0.9861 0.1500
vn -0.5076 -0.7015 -0.5002
vn 0.1266 -0.8898 -0.4385
vn -0.0854 0.9570 0.2771
vn 0.2498 -0.9591 -0.1329
vn 0.0831 0.9860 0.1446
vn -0.1890 0.9130 0.3617
vn -0.4709 -0.7511 -0.4627
vn -0.4557 -0.7628 -0.4588
vn -0.1712 0.9841 -0.0479
vn -0.0200 0.9830 -0.1825
vn -0.4002 -0.7778 -0.4847
vn -0.1033 0.9478 0.3016
vn 0.1583 -0.9842 -0.0796
vn -0.4238 0.8448 0.3267
vn 0.1771 -0.9700 0.1666
vn -0.3756 -0.7892 -0.4859
vn -0.0641 0.9960 0.0615
vn 0.2914 -0.7762 -0.5591
vn -0.5474 -0.2541 -0.7974
vn 0.1661 -0.9792 -0.1167
vn -0.1505 -0.9877 0.0418
vn -0.2498 0.9303 0.2685
vn 0.0103 -0.9986 0.0527
vn 0.2675 0.9246 0.2713
vn 0.1300 0.9851 0.1124
vn 0.1003 -0.9717 -0.2137
vn 0.4264 0.8576 0.2876
vn 0.1125 -0.8027 -0.5857
vn 0.1776 0.9824 0.0574
vn 0.3747 0.9010 0.2185
vn -0.0950 -0.9776 0.1877
vn -0.2304 -0.9707 0.0688
vn -0.3323 0.7975 -0.5036
vn 0.1547 0.9874 0.0321
vn -0.2862 -0.9523 0.1055
vn 0.4403 0.8608 0.2553
vn 0.1539 -0.4926 0.8566
vn 0.1736 -0.8462 -0.5038
vn 0.3672 0.9150 0.1672
vn 0.1953 -0.8151 -0.5454
vn 0.1744 -0.8801 -0.4416
vn -0.1010 0.9948 -0.0126
vn 0.1391 0.9828 0.1217
vn -0.5782 -0.8004 -0.1583
vn -0.0953 -0.8209 -0.5630
vn 0.7437 -0.1244 -0.6568
vn 0.2136 -0.9748 0.0644
vn 0.6497 -0.6242 -0.4338
vn 0.1170 -0.9904 0.0738
vn 0.2354 -0.9004 0.3658
vn 0.1792 -0.9788 0.0996
vn 0.2507 -0.1616 0.9545
vn 0.1022 -0.9912 -0.0843
vn -0.2818 -0.8679 -0.4092
vn 0.0450 0.9508 0.3064
vn -0.2920 -0.9552 -0.0487
vn 0.0491 0.9480 0.3145
vn 0.0465 0.9495 0.3103
vn 0.4266 -0.7181 -0.5499
vn 0.1072 -0.9634 -0.2457
vn 0.2667 -0.9010 -0.3422
vn 0.3272 -0.9151 -0.2357
vn 0.0886 -0.9961 -0.0025
vn -0.0147 -0.9970 0.0764
vn -0.2759 0.9582 0.0763
vn 0.1657 0.9129 0.3731
vn -0.1254 0.9915 0.0336
vn -0.1763 0.9355 0.3061
vn -0.0958 -0.8798 -0.4656
vn -0.3414 -0.8357 -0.4303
vn 0.1085 -0.9912 -0.0763
vn 0.1021 -0.9434 -0.3156
vn -0.0890 0.9810 0.1722
vn 0.0199 0.9518 0.3062
vn 0.5148 -0.8546 -0.0684
vn -0.1730 0.9755 0.1362
vn -0.0501 -0.9983 0.0299
vn -0.7261 -0.0482 0.6859
vn 0.1161 0.2811 -0.9526
vn -0.2974 0.9103 0.2878
vn 0.4566 -0.3130 0.8328
vn 0.0595 0.9494 0.3083
vn 0.2240 -0.7400 -0.6343
vn -0.0710 -0.9173 -0.3918
vn -0.0513 0.9030 0.4266
vn -0.3588 0.2937 -0.8860
vn -0.0164 0.9453 0.3258
vn 0.0009 0.9451 0.3267
vn -0.3031 -0.9450 -0.1228
vn -0.2765 -0.9570 -0.0874
vn 0.1378 -0.7837 -0.6057
vn 0.4850 -0.6664 -0.5662
vn 0.3843 -0.6942 0.6086
vn 0.6096 -0.2930 0.7366
vn 0.2377 0.1218 -0.9637
vn -0.4711 -0.1566 0.8681
vn 0.7764 -0.5115 -0.3682
vn 0.8474 -0.2146 0.4856
vn -0.5390 0.2745 -0.7963
vn -0.9358 -0.1474 -0.3202
vn -0.8146 0.0077 -0.5799
vn -0.5520 0.2764 -0.7867
vn -0.8805 -0.0435 0.4720
vn -0.2321 -0.6857 0.6899
vn 0.7103 -0.6792 -0.1847
vn 0.4467 0.2110 -0.8695
vn -0.3025 -0.8379 -0.4544
vn -0.0044 -0.9836 -0.1803
vn -0.0801 -0.9822 -0.1701
vn 0.0989 -0.9951 -0.0086
vn -0.0341 -0.9778 -0.2069
vn -0.0511 -0.9441 -0.3258
vn -0.2900 -0.9308 -0.2225
vn -0.2521 -0.9676 -0.0166
vn 0.1431 -0.9566 -0.2538
vn 0.1662 -0.9491 -0.2675
vn 0.0379 -0.9813 -0.1889
vn 0.0154 -0.9961 -0.0865
vn -0.0957 -0.9602 -0.2625
vn -0.1413 -0.9891 0.0406
vn -0.3860 -0.8830 -0.2672
vn -0.2520 -0.9440 -0.2130
vn 0.0322 -0.9628 -0.2681
vn -0.0869 -0.9503 -0.2990
vn 0.1403 -0.9237 -0.3566
vn -0.2168 -0.9401 -0.2631
vn -0.1160 -0.9806 -0.1581
vn 0.2414 -0.8429 -0.4810
vn -0.1665 -0.9668 -0.1938
vn 0.0478 -0.9834 -0.1750
vn 0.0882 -0.3998 0.9123
vn 0.2605 -0.9620 -0.0821
vn 0.0078 -0.9945 -0.1044
vn -0.1383 -0.9645 -0.2251
vn 0.3406 -0.7881 -0.5127
vn 0.0021 -0.7426 -0.6697
vn -0.4289 -0.9015 -0.0579
vn 0.0006 -0.8640 -0.5035
vn 0.0726 -0.8574 -0.5095
vn 0.1552 -0.9543 -0.2555
vn -0.0433 -0.9666 -0.2527
vn 0.1403 -0.8379 -0.5275
vn 0.1464 -0.9160 -0.3735
vn 0.2718 -0.9340 -0.2317
vn 0.0802 -0.9744 0.2100
vn 0.1230 -0.7280 -0.6745
vn 0.1162 -0.9579 -0.2627
vn 0.0880 -0.9934 -0.0734
vn 0.0511 -0.9843 -0.1687
vn 0.1813 -0.9576 -0.2240
vn -0.1956 -0.9765 -0.0902
vn -0.2324 -0.9194 -0.3174
vn -0.0702 -0.9723 -0.2227
vn -0.3855 -0.8850 -0.2610
vn -0.2564 -0.9616 -0.0976
vn -0.2774 -0.9429 -0.1845
vn -0.1199 -0.9519 -0.2821
vn 0.0104 -0.9723 -0.2336
vn 0.0569 -0.9876 -0.1461
vn -0.1580 -0.9280 -0.3375
vn -0.0202 -0.9692 -0.2455
vn 0.1052 -0.9931 -0.0528
vn -0.0053 -0.9133 -0.4072
vn 0.0761 -0.9811 -0.1780
vn 0.1243 -0.9443 -0.3046
vn -0.0134 -0.9829 -0.1834
vn 0.0574 -0.9081 -0.4147
vn -0.2649 -0.9356 -0.2332
vn -0.1714 -0.9827 -0.0707
vn 0.0344 -0.9860 -0.1630
vn -0.0669 -0.9867 -0.1482
vn 0.0732 -0.9499 -0.3037
vn 0.1199 -0.9546 -0.2725
vn -0.1212 -0.9867 -0.1084
vn -0.0308 -0.9807 -0.1931
vn -0.2348 -0.9498 -0.2066
vn -0.2675 -0.9236 -0.2746
vn 0.1409 -0.9869 0.0786
vn 0.0570 -0.9845 -0.1661
vn -0.0921 -0.9793 -0.1800
vn 0.1406 -0.9469 -0.2892
vn 0.1426 -0.9453 -0.2932
vn 0.0308 -0.9565 -0.2900
vn -0.1276 -0.9874 -0.0940
vn -0.0769 -0.9930 -0.0894
vn -0.1370 -0.9811 -0.1365
vn -0.2942 -0.9109 -0.2895
vn -0.2740 -0.9369 -0.2171
vn -0.2370 -0.9391 -0.2488
vn 0.0990 -0.9792 -0.1769
vn 0.2585 -0.9047 -0.3388
vn 0.4010 -0.8730 -0.2776
vn -0.0260 -0.9949 0.0970
vn 0.2230 -0.8486 -0.4798
vn -0.3483 -0.9335 -0.0856
vn 0.0725 -0.9863 -0.1484
vn 0.1148 -0.9718 -0.2060
vn 0.6237 -0.7747 -0.1038
vn -0.1687 -0.9278 0.3328
vn 0.2453 -0.8559 -0.4553
vn -0.0320 -0.7404 -0.6714
vn -0.4592 -0.8259 -0.3272
vn 0.1431 -0.9896 -0.0121
vn 0.8689 -0.2577 -0.4227
vn 0.1028 -0.8421 -0.5295
vn -0.0387 -0.9703 -0.2388
vn 0.1333 -0.9731 -0.1881
vn 0.0358 -0.9452 -0.3246
vn -0.0790 -0.9871 -0.1390
vn -0.0359 -0.9871 -0.1562
vn -0.1316 -0.9018 -0.4117
vn 0.1459 -0.9429 -0.2993
vn 0.0365 -0.9891 -0.1426
vn 0.1671 -0.9484 -0.2696
vn 0.0566 -0.9879 -0.1445
vn 0.1331 -0.9511 -0.2786
vn 0.0342 -0.9894 -0.1408
vn 0.1700 -0.9402 -0.2953
vn 0.0381 -0.9849 -0.1691
vn -0.2722 -0.9060 -0.3241
vn -0.1122 -0.9861 -0.1224
vn -0.0612 -0.9681 -0.2430
vn -0.2678 -0.9324 -0.2428
vn -0.2591 -0.9354 -0.2405
vn -0.0579 -0.9775 -0.2031
vn -0.2019 -0.9370 -0.2852
vn -0.1888 -0.9813 0.0372
vn -0.2553 -0.9455 -0.2020
vn -0.0920 -0.9911 -0.0966
vn -0.2281 -0.9523 -0.2029
vn -0.0658 -0.9876 -0.1426
vn 0.2052 -0.2604 0.9434
vn -0.0582 -0.9475 -0.3145
vn -0.0681 -0.9221 -0.3809
vn -0.0699 -0.9428 -0.3259
vn -0.0511 -0.9517 -0.3029
vn 0.0383 -0.9894 0.1403
vn 0.2389 -0.9709 0.0145
vn 0.0788 -0.9433 -0.3224
vn 0.1461 -0.9563 -0.2532
vn 0.1628 -0.9805 -0.1098
vn 0.0741 -0.9864 -0.1465
vn 0.1879 -0.9281 -0.3215
vn 0.1574 -0.9825 -0.0994
vn 0.0295 -0.8992 -0.4366
vn -0.0921 -0.9734 -0.2099
vn -0.0331 -0.9375 -0.3464
vn -0.0338 -0.9310 -0.3635
vn 0.0024 0.7695 0.6387
vn -0.2429 -0.8698 -0.4295
vn -0.0412 -0.9483 -0.3146
vn -0.0462 -0.9494 -0.3105
vn -0.0508 -0.9463 -0.3192
vn -0.0361 -0.9597 -0.2787
vn -0.0427 -0.9477 -0.3163
vn -0.0484 -0.9468 -0.3182
vn -0.8197 -0.5550 0.1416
vn -0.1465 -0.9154 -0.3750
vn -0.0455 -0.9475 -0.3164
vn -0.0460 -0.9474 -0.3167
vn 0.6012 -0.5279 0.6000
vn -0.1559 -0.9110 -0.3817
vn -0.0494 -0.9460 -0.3204
vn -0.0488 -0.9543 -0.2949
vn -0.0445 -0.9478 -0.3158
vn 0.0420 -0.9437 0.3282
vn -0.3246 0.7402 0.5888
vn -0.5941 0.2238 0.7726
vn 0.5260 0.6459 0.5532
vn -0.2072 0.8188 0.5353
vn -0.3527 0.9071 0.2296
vn 0.2032 0.8946 0.3981
vn -0.0021 0.9788 0.2048
vn -0.1344 0.9851 0.1072
vn 0.0025 0.9824 0.1866
vn -0.6904 0.1324 0.7112
vn -0.5251 -0.7714 0.3595
vn 0.4334 -0.5922 0.6793
vn 0.4610 -0.2360 0.8554
vn -0.0408 -0.8401 0.5409
vn 0.5503 -0.6860 0.4759
vn -0.1948 -0.9552 -0.2228
vn 0.0201 -0.7005 0.7134
vn -0.0036 -0.6911 0.7227
vn 0.7657 -0.5660 0.3054
vn 0.5343 -0.6432 0.5484
vn -0.0113 -0.9304 -0.3663
vn 0.8299 -0.4694 0.3016
vn 0.2990 -0.8886 0.3478
vn 0.5999 -0.7894 -0.1305
vn 0.7578 -0.4840 -0.4375
vn 0.5612 -0.5109 0.6512
vn 0.3999 -0.9062 -0.1376
vn 0.4456 -0.8937 0.0518
vn 0.3428 -0.8246 0.4500
vn 0.8739 -0.1929 0.4462
vn 0.7266 -0.1685 0.6660
vn 0.6524 -0.7579 -0.0015
vn 0.7240 -0.6339 0.2720
vn 0.2984 -0.4688 0.8314
vt 0.185303 0.180673
vt 0.184663 0.179081
vt 0.185272 0.179140
vt 0.204257 0.158710
vt 0.205248 0.160125
vt 0.203636 0.159324
vt 0.201791 0.155237
vt 0.202028 0.153613
vt 0.202523 0.153928
vt 0.200675 0.154725
vt 0.201606 0.153380
vt 0.204398 0.152064
vt 0.202908 0.152106
vt 0.204527 0.151637
vt 0.204523 0.151287
vt 0.202459 0.151763
vt 0.204403 0.151155
vt 0.203770 0.159768
vt 0.201849 0.156661
vt 0.202308 0.158629
vt 0.201243 0.156671
vt 0.209768 0.160362
vt 0.210039 0.161941
vt 0.209895 0.161966
vt 0.204740 0.160667
vt 0.203339 0.159725
vt 0.201176 0.156675
vt 0.210897 0.151246
vt 0.210663 0.150291
vt 0.210882 0.150334
vt 0.198916 0.149852
vt 0.197539 0.152504
vt 0.198424 0.149282
vt 0.199197 0.161832
vt 0.197718 0.160276
vt 0.198045 0.159974
vt 0.194811 0.175376
vt 0.194505 0.174450
vt 0.194719 0.174408
vt 0.196625 0.164232
vt 0.197625 0.165830
vt 0.195608 0.165214
vt 0.199614 0.145026
vt 0.201704 0.145242
vt 0.202146 0.145406
vt 0.199701 0.148248
vt 0.201660 0.147202
vt 0.201902 0.147640
vt 0.196154 0.162060
vt 0.196002 0.160558
vt 0.196176 0.160231
vt 0.208980 0.159388
vt 0.208973 0.158082
vt 0.209174 0.158068
vt 0.201336 0.162268
vt 0.202797 0.162808
vt 0.201148 0.162666
vt 0.193739 0.173643
vt 0.193420 0.171871
vt 0.193736 0.171896
vt 0.201821 0.150794
vt 0.203498 0.150013
vt 0.203774 0.150356
vt 0.200831 0.149607
vt 0.202603 0.148908
vt 0.202912 0.149281
vt 0.197862 0.172571
vt 0.198302 0.172376
vt 0.198006 0.173575
vt 0.198235 0.171859
vt 0.198855 0.170665
vt 0.198378 0.172059
vt 0.200946 0.152606
vt 0.200520 0.154067
vt 0.200670 0.152263
vt 0.200258 0.151436
vt 0.199060 0.153221
vt 0.199949 0.151064
vt 0.202759 0.176552
vt 0.202672 0.176136
vt 0.203120 0.176165
vt 0.203292 0.176045
vt 0.204292 0.175345
vt 0.204570 0.175346
vt 0.194255 0.174857
vt 0.193779 0.175054
vt 0.194078 0.174740
vt 0.194029 0.174545
vt 0.193539 0.173959
vt 0.193801 0.173870
vt 0.202677 0.160121
vt 0.204269 0.160371
vt 0.202444 0.160429
vt 0.202067 0.160929
vt 0.203917 0.161184
vt 0.201808 0.161271
vt 0.203016 0.177329
vt 0.202863 0.177656
vt 0.201770 0.177630
vt 0.209122 0.162606
vt 0.208850 0.159886
vt 0.209010 0.159852
vt 0.200728 0.159780
vt 0.199499 0.158377
vt 0.199732 0.158068
vt 0.200022 0.160726
vt 0.198863 0.159219
vt 0.199122 0.158876
vt 0.200472 0.149175
vt 0.201509 0.150422
vt 0.199435 0.147928
vt 0.209768 0.163408
vt 0.209922 0.163708
vt 0.202406 0.152143
vt 0.203365 0.152595
vt 0.204934 0.148587
vt 0.205429 0.149792
vt 0.205551 0.150100
vt 0.205805 0.150515
vt 0.204237 0.147249
vt 0.204768 0.148167
vt 0.206133 0.151458
vt 0.206502 0.150854
vt 0.206229 0.150537
vt 0.205939 0.152370
vt 0.198178 0.157208
vt 0.200505 0.155634
vt 0.208840 0.160391
vt 0.208894 0.162815
vt 0.208755 0.163019
vt 0.195171 0.163074
vt 0.196826 0.158394
vt 0.197779 0.157537
vt 0.193272 0.177445
vt 0.193110 0.179462
vt 0.193110 0.177417
vt 0.201161 0.155126
vt 0.185215 0.177714
vt 0.184564 0.177402
vt 0.199723 0.161127
vt 0.200459 0.160142
vt 0.198987 0.162113
vt 0.202079 0.158980
vt 0.192401 0.177951
vt 0.192675 0.179063
vt 0.192327 0.179042
vt 0.202551 0.158634
vt 0.202911 0.157977
vt 0.559972 0.147455
vt 0.560656 0.147984
vt 0.560603 0.148055
vt 0.561680 0.149481
vt 0.561100 0.148896
vt 0.561832 0.149379
vt 0.201355 0.185364
vt 0.201964 0.186471
vt 0.201813 0.186588
vt 0.560999 0.148933
vt 0.207172 0.182519
vt 0.206569 0.181239
vt 0.206758 0.181110
vt 0.560298 0.151675
vt 0.561119 0.151487
vt 0.560227 0.151877
vt 0.194887 0.171179
vt 0.194449 0.167938
vt 0.194740 0.167812
vt 0.209647 0.150578
vt 0.209374 0.153177
vt 0.209374 0.150592
vt 0.209308 0.155949
vt 0.208755 0.153623
vt 0.208997 0.153370
vt 0.197424 0.165967
vt 0.210895 0.146870
vt 0.210953 0.144040
vt 0.211160 0.146820
vt 0.194255 0.166163
vt 0.194535 0.166046
vt 0.189581 0.177434
vt 0.189852 0.179553
vt 0.189581 0.179583
vt 0.193699 0.169357
vt 0.194255 0.166297
vt 0.193991 0.169380
vt 0.197290 0.145347
vt 0.195171 0.146674
vt 0.196268 0.144118
vt 0.557261 0.148213
vt 0.558047 0.147629
vt 0.558085 0.147738
vt 0.561730 0.150509
vt 0.561622 0.150493
vt 0.552349 0.147684
vt 0.552464 0.148462
vt 0.551466 0.148256
vt 0.196949 0.147140
vt 0.196594 0.149087
vt 0.558946 0.147283
vt 0.559987 0.147336
vt 0.198691 0.164909
vt 0.201473 0.164992
vt 0.198612 0.143914
vt 0.201411 0.185041
vt 0.201554 0.185326
vt 0.199481 0.181928
vt 0.199130 0.181174
vt 0.199595 0.181880
vt 0.199704 0.169413
vt 0.200060 0.169310
vt 0.199896 0.169531
vt 0.201711 0.177896
vt 0.202742 0.178084
vt 0.201680 0.178017
vt 0.198719 0.153006
vt 0.199705 0.182239
vt 0.199822 0.182186
vt 0.200128 0.183037
vt 0.199977 0.183073
vt 0.200346 0.153943
vt 0.200138 0.183266
vt 0.199986 0.183309
vt 0.205230 0.179618
vt 0.202959 0.178192
vt 0.203005 0.178031
vt 0.202786 0.177923
vt 0.201026 0.184883
vt 0.201719 0.177265
vt 0.203049 0.176793
vt 0.201542 0.153346
vt 0.200885 0.154463
vt 0.205487 0.180038
vt 0.205110 0.179767
vt 0.197442 0.172585
vt 0.197598 0.173941
vt 0.205614 0.179884
vt 0.206402 0.180861
vt 0.201329 0.177312
vt 0.201639 0.176401
vt 0.201704 0.176505
vt 0.203864 0.161429
vt 0.198274 0.173640
vt 0.198710 0.172540
vt 0.198386 0.173684
vt 0.202935 0.175754
vt 0.204046 0.174890
vt 0.204215 0.175015
vt 0.202542 0.175893
vt 0.202854 0.175622
vt 0.208944 0.160002
vt 0.208946 0.162648
vt 0.202466 0.175769
vt 0.204158 0.160528
vt 0.193489 0.173754
vt 0.198627 0.172174
vt 0.199303 0.170830
vt 0.198785 0.172240
vt 0.198558 0.172475
vt 0.199285 0.170264
vt 0.199471 0.170364
vt 0.200616 0.155233
vt 0.200602 0.154709
vt 0.199118 0.170741
vt 0.204468 0.160399
vt 0.198412 0.181389
vt 0.199100 0.182476
vt 0.198835 0.182735
vt 0.204573 0.174719
vt 0.204690 0.174863
vt 0.199030 0.181212
vt 0.198566 0.180460
vt 0.200908 0.177353
vt 0.206774 0.171209
vt 0.206285 0.171473
vt 0.206581 0.171072
vt 0.187573 0.178519
vt 0.186903 0.179159
vt 0.187096 0.178252
vt 0.206549 0.180704
vt 0.202200 0.186903
vt 0.206032 0.187643
vt 0.206118 0.187859
vt 0.202434 0.163369
vt 0.200365 0.163577
vt 0.205769 0.174244
vt 0.205921 0.174404
vt 0.197250 0.160980
vt 0.196580 0.158864
vt 0.197845 0.163092
vt 0.197679 0.174433
vt 0.197712 0.174855
vt 0.208321 0.185425
vt 0.207747 0.187152
vt 0.208100 0.185358
vt 0.202115 0.167525
vt 0.205139 0.166486
vt 0.202283 0.167696
vt 0.205215 0.166225
vt 0.207126 0.166630
vt 0.208307 0.168739
vt 0.207290 0.166440
vt 0.208059 0.168855
vt 0.200679 0.146212
vt 0.197320 0.152142
vt 0.197736 0.148389
vt 0.198425 0.146713
vt 0.204014 0.146908
vt 0.207902 0.187294
vt 0.202351 0.186745
vt 0.207355 0.182827
vt 0.207054 0.182645
vt 0.207184 0.182937
vt 0.196756 0.149601
vt 0.201825 0.167922
vt 0.201663 0.167778
vt 0.206607 0.171687
vt 0.205905 0.173964
vt 0.194689 0.174040
vt 0.194581 0.171673
vt 0.194806 0.171721
vt 0.210997 0.149919
vt 0.210984 0.147410
vt 0.211246 0.147360
vt 0.193803 0.171235
vt 0.193678 0.169855
vt 0.193966 0.169878
vt 0.201884 0.164684
vt 0.559598 0.152037
vt 0.559727 0.152214
vt 0.556870 0.148670
vt 0.557191 0.148161
vt 0.209168 0.157561
vt 0.209063 0.156321
vt 0.209345 0.156300
vt 0.558929 0.147148
vt 0.206101 0.174117
vt 0.561135 0.151199
vt 0.199871 0.169153
vt 0.193733 0.174687
vt 0.193478 0.171210
vt 0.194477 0.174071
vt 0.203045 0.176005
vt 0.208960 0.157576
vt 0.209064 0.162877
vt 0.194763 0.175691
vt 0.194585 0.175417
vt 0.204779 0.175121
vt 0.204913 0.175134
vt 0.210771 0.149875
vt 0.557463 0.148998
vt 0.558179 0.148960
vt 0.557899 0.149406
vt 0.207496 0.166197
vt 0.208573 0.168759
vt 0.201978 0.167305
vt 0.205157 0.165967
vt 0.207010 0.181004
vt 0.187608 0.179318
vt 0.187608 0.178958
vt 0.198383 0.180979
vt 0.198792 0.181349
vt 0.198974 0.170295
vt 0.201856 0.176731
vt 0.205393 0.179400
vt 0.205783 0.179669
vt 0.203115 0.177781
vt 0.199705 0.183081
vt 0.199460 0.182360
vt 0.199247 0.182066
vt 0.199456 0.169293
vt 0.199672 0.168959
vt 0.201105 0.185472
vt 0.200746 0.184909
vt 0.558936 0.147495
vt 0.558580 0.152243
vt 0.559167 0.151729
vt 0.561416 0.149655
vt 0.557422 0.148349
vt 0.560582 0.150823
vt 0.560256 0.148527
vt 0.551601 0.150609
vt 0.552865 0.150481
vt 0.552155 0.151084
vt 0.560654 0.149233
vt 0.559676 0.147943
vt 0.561198 0.150356
vt 0.558183 0.147925
vt 0.557017 0.149027
vt 0.560002 0.151343
vt 0.207578 0.182701
vt 0.208573 0.185372
vt 0.206081 0.188117
vt 0.207022 0.171287
vt 0.208113 0.187494
vt 0.202046 0.187107
vt 0.206860 0.171795
vt 0.206767 0.180532
vt 0.199714 0.183332
vt 0.207405 0.182374
vt 0.201503 0.167559
vt 0.206336 0.174256
vt 0.206109 0.174620
vt 0.201637 0.186796
vt 0.562918 0.141993
vt 0.561092 0.141628
vt 0.563252 0.141345
vt 0.565047 0.142611
vt 0.566483 0.143471
vt 0.565798 0.144164
vt 0.568233 0.158574
vt 0.569296 0.157454
vt 0.568943 0.159248
vt 0.565416 0.155854
vt 0.563586 0.156911
vt 0.563334 0.156278
vt 0.566561 0.154076
vt 0.567598 0.152957
vt 0.567073 0.154526
vt 0.561990 0.146299
vt 0.562969 0.147158
vt 0.562553 0.147562
vt 0.563268 0.144712
vt 0.564246 0.145907
vt 0.563830 0.146330
vt 0.559582 0.145780
vt 0.560949 0.145533
vt 0.560636 0.146019
vt 0.561590 0.144527
vt 0.560499 0.142927
vt 0.561927 0.143995
vt 0.562876 0.150114
vt 0.563226 0.151321
vt 0.562737 0.151039
vt 0.564776 0.152460
vt 0.566306 0.151863
vt 0.565197 0.152909
vt 0.562431 0.152354
vt 0.561599 0.153346
vt 0.561212 0.152942
vt 0.564065 0.153941
vt 0.562701 0.154617
vt 0.562421 0.154070
vt 0.565242 0.146987
vt 0.564050 0.147719
vt 0.563661 0.147865
vt 0.562834 0.148498
vt 0.566964 0.146341
vt 0.565768 0.146815
vt 0.563741 0.144154
vt 0.562410 0.145781
vt 0.565478 0.142101
vt 0.564476 0.154524
vt 0.562938 0.152752
vt 0.565772 0.156357
vt 0.561324 0.155134
vt 0.561017 0.154282
vt 0.560791 0.153976
vt 0.560325 0.153271
vt 0.562606 0.157138
vt 0.561334 0.155363
vt 0.567635 0.139542
vt 0.566335 0.138582
vt 0.568322 0.138726
vt 0.204921 0.187099
vt 0.559972 0.147036
vt 0.562104 0.149450
vt 0.561918 0.150551
vt 0.557854 0.147266
vt 0.560545 0.152264
vt 0.561684 0.148424
vt 0.561094 0.147404
vt 0.561562 0.151672
vt 0.558908 0.146951
vt 0.556835 0.147860
vt 0.559762 0.152556
vt 0.207480 0.184278
vt 0.565258 0.139292
vt 0.563479 0.139793
vt 0.567228 0.159740
vt 0.566116 0.159196
vt 0.569255 0.140951
vt 0.567882 0.141412
vt 0.567777 0.143168
vt 0.567481 0.143569
vt 0.560667 0.142460
vt 0.559905 0.144637
vt 0.566683 0.152134
vt 0.564155 0.150288
vt 0.187291 0.177402
vt 0.186976 0.177559
vt 0.564355 0.157789
vt 0.567765 0.153335
vt 0.567514 0.155207
vt 0.562750 0.157422
vt 0.566878 0.157310
vt 0.567101 0.146060
vt 0.567096 0.142668
vt 0.561256 0.141406
vt 0.564173 0.140463
vt 0.566405 0.140998
vt 0.563021 0.140019
vt 0.568250 0.154742
vt 0.568675 0.156375
vt 0.563160 0.158568
vt 0.208755 0.154520
vt 0.205812 0.155717
vt 0.207860 0.153711
vt 0.559752 0.151266
vt 0.560950 0.150156
vt 0.558693 0.148336
vt 0.558472 0.149196
vt 0.558033 0.149610
vt 0.560101 0.150509
vt 0.559123 0.150759
vt 0.560321 0.149648
vt 0.559175 0.149763
vt 0.558378 0.150684
vt 0.547165 0.153091
vt 0.546499 0.151674
vt 0.547255 0.151821
vt 0.559685 0.149135
vt 0.559028 0.148606
vt 0.554959 0.150847
vt 0.555636 0.150311
vt 0.555528 0.150662
vt 0.559815 0.150279
vt 0.558430 0.151699
vt 0.198112 0.172164
vt 0.204931 0.154588
vt 0.207393 0.152522
vt 0.549791 0.149498
vt 0.550399 0.150487
vt 0.549975 0.150854
vt 0.206703 0.157365
vt 0.205571 0.159445
vt 0.204084 0.153493
vt 0.202502 0.156489
vt 0.547167 0.149498
vt 0.546548 0.150496
vt 0.546523 0.149797
vt 0.546776 0.150648
vt 0.552643 0.151712
vt 0.552974 0.150538
vt 0.552840 0.151886
vt 0.551466 0.150609
vt 0.191615 0.177777
vt 0.191733 0.178108
vt 0.191624 0.178103
vt 0.552876 0.149609
vt 0.552948 0.149397
vt 0.552987 0.149612
vt 0.559551 0.152088
vt 0.191670 0.178384
vt 0.191779 0.178442
vt 0.553102 0.149886
vt 0.552810 0.149874
vt 0.552596 0.148966
vt 0.552701 0.149341
vt 0.552145 0.151243
vt 0.559525 0.152675
vt 0.559670 0.152234
vt 0.552820 0.150199
vt 0.555044 0.148642
vt 0.555405 0.148680
vt 0.555288 0.148829
vt 0.557246 0.149255
vt 0.556366 0.148796
vt 0.556690 0.149098
vt 0.555901 0.150776
vt 0.554615 0.151242
vt 0.557617 0.149515
vt 0.558076 0.150253
vt 0.555175 0.148136
vt 0.554615 0.148007
vt 0.555355 0.148063
vt 0.554861 0.148326
vt 0.556977 0.149193
vt 0.184564 0.181179
vt 0.204859 0.160504
vt 0.209913 0.160317
vt 0.210666 0.151267
vt 0.208801 0.159372
vt 0.198738 0.170661
vt 0.193955 0.175910
vt 0.203051 0.177570
vt 0.193273 0.179469
vt 0.192675 0.177417
vt 0.194255 0.171227
vt 0.209638 0.153164
vt 0.209022 0.155970
vt 0.195418 0.165343
vt 0.210663 0.143914
vt 0.189862 0.177402
vt 0.193997 0.166046
vt 0.209111 0.159373
vt 0.194579 0.175798
vt 0.559981 0.144337
vt 0.563938 0.150180
vt 0.556540 0.148641
vt 0.206662 0.156766
vt 0.546499 0.152724
vt 0.555498 0.149448
vt 0.557925 0.151096
vt 0.550400 0.149498
vt 0.191906 0.177789
vt 0.552833 0.149424
vt 0.558762 0.152594
vt 0.555317 0.148319
vt 0.555758 0.149714
vt 0.558018 0.150675
s 0
g flower_petal_1_b_Material
usemtl Material
f 5/1/1 76/2/1 74/3/1
f 87/4/2 382/5/2 88/6/2
f 6/7/3 58/8/3 57/9/3
f 58/8/4 16/10/4 59/11/4
f 66/12/5 7/13/5 67/14/5
f 68/15/6 22/16/6 69/17/6
f 382/5/7 89/18/7 88/6/7
f 76/19/8 15/20/8 77/21/8
f 7/13/9 68/15/9 67/14/9
f 16/22/10 60/23/10 59/24/10
f 89/18/11 24/25/11 90/26/11
f 15/20/12 78/27/12 77/21/12
f 119/28/13 195/29/13 29/30/13
f 123/31/14 29/32/14 63/33/14
f 139/34/15 82/35/15 144/36/15
f 202/37/16 28/38/16 30/39/16
f 182/40/17 110/41/17 111/42/17
f 176/43/18 96/44/18 174/45/18
f 122/46/19 71/47/19 124/48/19
f 186/49/20 109/50/20 181/51/20
f 210/52/21 33/53/21 35/54/21
f 145/55/22 34/56/22 93/57/22
f 140/58/23 221/59/23 34/60/23
f 133/61/24 72/62/24 138/63/24
f 128/64/25 73/65/25 131/66/25
f 134/67/26 205/68/26 192/69/26
f 126/70/27 203/71/27 204/72/27
f 137/73/28 41/74/28 64/75/28
f 130/76/29 42/77/29 65/78/29
f 135/79/30 207/80/30 41/81/30
f 127/82/31 209/83/31 42/84/31
f 157/85/32 217/86/32 55/87/32
f 150/88/33 215/89/33 56/90/33
f 159/91/34 55/92/34 94/93/34
f 152/94/35 56/95/35 95/96/35
f 153/97/36 213/98/36 198/99/36
f 212/100/37 47/101/37 211/102/37
f 156/103/38 83/104/38 158/105/38
f 147/106/39 84/107/39 151/108/39
f 128/64/40 65/78/40 43/109/40
f 133/61/41 64/75/41 44/110/41
f 122/46/42 63/33/42 27/111/42
f 12/112/43 60/23/43 22/113/43
f 58/8/44 12/114/44 7/13/44
f 2/115/45 58/8/45 7/13/45
f 131/66/46 40/116/46 126/117/46
f 138/63/47 39/118/47 134/119/47
f 124/48/48 28/120/48 118/121/48
f 8/122/49 68/15/49 13/123/49
f 68/15/50 23/124/50 13/123/50
f 3/125/51 67/14/51 8/122/51
f 151/108/52 47/126/52 146/127/52
f 158/128/53 48/129/53 153/130/53
f 182/40/54 108/131/54 186/49/54
f 144/36/55 33/132/55 141/133/55
f 16/134/56 78/135/56 26/136/56
f 11/137/57 77/21/57 16/10/57
f 6/138/58 76/2/58 11/139/58
f 147/106/59 95/96/59 50/140/59
f 156/103/60 94/93/60 49/141/60
f 139/34/61 93/57/61 32/142/61
f 15/20/62 90/26/62 25/143/62
f 88/144/63 15/145/63 10/146/63
f 87/4/64 10/147/64 5/148/64
f 70/149/65 323/150/65 102/151/65
f 20/152/66 322/153/66 317/154/66
f 164/155/67 356/156/67 187/157/67
f 102/151/68 322/153/68 62/158/68
f 185/159/69 343/160/69 160/161/69
f 92/162/70 321/163/70 320/164/70
f 191/165/71 97/166/71 190/167/71
f 188/168/72 79/169/72 85/170/72
f 237/171/73 108/172/73 236/173/73
f 114/174/74 111/42/74 110/41/74
f 240/175/75 85/176/75 107/177/75
f 190/167/76 79/178/76 189/179/76
f 236/180/77 111/181/77 239/182/77
f 241/183/78 110/184/78 117/185/78
f 180/186/79 85/187/79 79/188/79
f 101/189/80 318/190/80 81/191/80
f 20/152/81 316/192/81 80/193/81
f 235/194/82 225/195/82 378/196/82
f 177/197/83 107/198/83 85/187/83
f 17/199/84 313/200/84 70/149/84
f 183/201/85 117/202/85 110/41/85
f 180/186/86 97/203/86 176/43/86
f 164/155/87 306/204/87 344/205/87
f 73/65/88 118/121/88 40/116/88
f 43/109/89 123/31/89 122/46/89
f 54/206/90 338/207/90 286/208/90
f 219/209/91 349/210/91 260/211/91
f 43/109/92 124/48/92 73/65/92
f 154/212/93 298/213/93 339/214/93
f 65/78/94 119/215/94 123/31/94
f 72/62/95 126/117/95 39/118/95
f 149/216/96 286/208/96 336/217/96
f 149/216/97 288/218/97 53/219/97
f 44/110/98 130/76/98 128/64/98
f 64/75/99 127/220/99 130/76/99
f 53/219/100 334/221/100 143/222/100
f 44/110/101 131/66/101 72/62/101
f 51/223/102 337/224/102 148/225/102
f 69/17/103 134/119/103 23/124/103
f 148/225/104 298/213/104 52/226/104
f 36/227/105 334/221/105 306/204/105
f 22/16/106 137/73/106 133/61/106
f 100/228/107 135/79/107 26/229/107
f 60/230/108 135/231/108 137/73/108
f 51/223/109 335/232/109 299/233/109
f 23/234/110 192/69/110 98/235/110
f 22/16/111 138/63/111 69/17/111
f 142/236/112 265/237/112 335/232/112
f 50/140/113 145/55/113 139/34/113
f 84/107/114 141/133/114 47/126/114
f 199/238/115 332/239/115 136/240/115
f 95/96/116 140/241/116 145/55/116
f 132/242/117 293/243/117 333/244/117
f 50/140/118 144/36/118 84/107/118
f 49/141/119 152/94/119 147/106/119
f 129/245/120 276/246/120 46/247/120
f 45/248/121 330/249/121 129/245/121
f 83/250/122 146/251/122 48/129/122
f 49/141/123 151/108/123 83/104/123
f 45/248/124 332/239/124 274/252/124
f 94/93/125 150/253/125 152/94/125
f 214/254/126 56/90/126 215/89/126
f 125/255/127 294/256/127 331/257/127
f 25/143/128 159/91/128 156/103/128
f 38/258/129 331/257/129 293/243/129
f 121/259/130 260/211/130 329/260/130
f 78/27/131 153/261/131 26/262/131
f 25/143/132 158/105/132 78/27/132
f 100/228/133 153/97/133 198/99/133
f 37/263/134 329/260/134 294/256/134
f 90/26/135 157/264/135 159/91/135
f 388/265/136 157/266/136 24/267/136
f 46/247/137 328/268/137 120/269/137
f 155/270/138 384/271/138 338/207/138
f 199/238/139 339/214/139 252/272/139
f 106/273/140 352/274/140 359/275/140
f 98/276/141 3/277/141 8/278/141
f 160/161/142 265/237/142 197/279/142
f 116/280/143 311/281/143 238/282/143
f 93/57/144 166/283/144 165/284/144
f 120/269/145 289/285/145 31/286/145
f 32/142/146 162/287/146 82/35/146
f 82/35/147 161/288/147 33/132/147
f 32/142/148 165/284/148 163/289/148
f 193/290/149 333/244/149 249/291/149
f 112/292/150 354/293/150 325/294/150
f 103/295/151 305/296/151 357/297/151
f 21/298/152 350/299/152 305/296/152
f 104/300/153 350/299/153 105/301/153
f 106/273/154 351/302/154 104/300/154
f 27/111/155 171/303/155 71/47/155
f 63/33/156 170/304/156 172/305/156
f 27/111/157 172/305/157 173/306/157
f 71/47/158 168/307/158 28/120/158
f 238/282/159 354/293/159 115/308/159
f 116/280/160 356/156/160 360/309/160
f 113/310/161 355/311/161 185/159/161
f 113/310/162 325/294/162 358/312/162
f 173/306/163 176/43/163 171/303/163
f 172/305/164 179/313/164 177/197/164
f 103/295/165 353/314/165 178/315/165
f 173/306/166 177/197/166 180/186/166
f 175/316/167 348/317/167 352/274/167
f 218/318/168 174/319/168 245/320/168
f 170/321/169 242/322/169 179/323/169
f 171/303/170 174/45/170 168/307/170
f 166/324/171 244/325/171 184/326/171
f 165/284/172 184/327/172 183/201/172
f 386/328/173 320/164/173 385/329/173
f 101/189/174 390/330/174 319/331/174
f 163/289/175 186/49/175 162/287/175
f 196/332/176 181/333/176 243/334/176
f 162/287/177 181/51/177 161/288/177
f 163/289/178 183/201/178 182/40/178
f 17/199/179 318/190/179 314/335/179
f 169/336/180 289/285/180 348/317/180
f 19/337/181 316/192/181 321/163/181
f 178/315/182 349/210/182 167/338/182
f 216/339/183 55/87/183 217/86/183
f 34/60/184 220/340/184 166/324/184
f 179/323/185 240/175/185 107/177/185
f 30/39/186 168/341/186 218/318/186
f 41/81/187 208/342/187 127/82/187
f 184/326/188 241/183/188 117/185/188
f 196/332/189 33/53/189 161/343/189
f 146/251/190 213/344/190 48/129/190
f 47/101/191 210/52/191 211/102/191
f 181/333/192 237/171/192 243/334/192
f 174/319/193 191/165/193 245/320/193
f 203/345/194 118/346/194 202/37/194
f 42/84/195 194/347/195 119/348/195
f 29/30/196 246/349/196 170/321/196
f 391/350/197 363/351/197 395/352/197
f 104/300/198 189/353/198 188/354/198
f 21/298/199 191/355/199 190/356/199
f 132/242/200 98/235/200 192/69/200
f 31/286/201 194/347/201 120/269/201
f 197/279/202 196/357/202 160/161/202
f 249/358/203 3/277/203 193/359/203
f 199/238/204 198/99/204 154/212/204
f 383/360/205 200/361/205 388/265/205
f 37/263/206 202/362/206 121/259/206
f 125/255/207 205/68/207 204/72/207
f 136/240/208 207/80/208 206/363/208
f 129/245/209 209/83/209 208/342/209
f 142/236/210 211/364/210 210/365/210
f 52/226/211 212/366/211 148/225/211
f 143/222/212 215/367/212 53/219/212
f 54/206/213 216/368/213 217/369/213
f 167/338/214 30/370/214 218/371/214
f 36/227/215 220/372/215 221/373/215
f 70/149/216 224/374/216 17/199/216
f 387/375/217 226/376/217 386/328/217
f 80/193/218 228/377/218 20/152/218
f 81/191/219 230/378/219 101/189/219
f 92/162/220 232/379/220 19/337/220
f 62/158/221 234/380/221 102/151/221
f 4/381/222 99/382/222 9/383/222
f 62/158/223 228/377/223 233/384/223
f 102/151/224 223/385/224 70/149/224
f 19/337/225 227/386/225 80/193/225
f 81/191/226 224/374/226 229/387/226
f 389/388/227 230/378/227 391/350/227
f 386/328/228 231/389/228 92/162/228
f 112/292/229 237/390/229 236/391/229
f 115/308/230 114/392/230 238/282/230
f 104/300/231 240/393/231 106/273/231
f 105/301/232 190/356/232 189/353/232
f 115/308/233 236/391/233 239/394/233
f 116/280/234 114/392/234 241/395/234
f 175/316/235 240/393/235 242/396/235
f 46/247/236 194/347/236 209/83/236
f 121/259/237 30/370/237 219/209/237
f 37/263/238 204/72/238 203/71/238
f 129/245/239 207/80/239 45/248/239
f 38/258/240 192/69/240 205/68/240
f 199/238/241 206/363/241 100/228/241
f 197/279/242 210/365/242 35/397/242
f 143/222/243 221/373/243 214/398/243
f 148/225/244 211/364/244 51/223/244
f 149/216/245 215/367/245 216/368/245
f 52/226/246 198/99/246 213/98/246
f 155/270/247 217/369/247 200/361/247
f 160/161/248 243/399/248 185/159/248
f 187/157/249 220/372/249 164/155/249
f 167/338/250 245/400/250 178/315/250
f 31/286/251 246/401/251 195/402/251
f 169/336/252 242/396/252 246/401/252
f 178/315/253 191/355/253 103/295/253
f 185/159/254 237/390/254 113/310/254
f 187/157/255 241/395/255 244/403/255
f 297/404/256 260/405/256 259/406/256
f 269/407/257 261/408/257 292/409/257
f 342/410/258 325/411/258 354/412/258
f 268/413/259 266/414/259 309/415/259
f 302/416/260 265/417/260 264/418/260
f 263/419/261 273/420/261 291/421/261
f 271/422/262 275/423/262 290/424/262
f 333/425/263 277/426/263 296/427/263
f 295/428/264 294/429/264 278/430/264
f 339/431/265 283/432/265 301/433/265
f 300/434/266 299/435/266 284/436/266
f 279/437/267 285/438/267 308/439/267
f 281/440/268 287/441/268 307/442/268
f 290/424/269 276/443/269 330/444/269
f 291/421/270 274/445/270 332/446/270
f 292/409/271 289/447/271 328/448/271
f 271/422/272 278/430/272 270/449/272
f 263/419/273 277/426/273 272/450/273
f 269/407/274 259/406/274 262/451/274
f 281/440/275 284/436/275 282/452/275
f 279/437/276 283/432/276 280/453/276
f 268/413/277 264/418/277 267/454/277
f 307/442/278 288/455/278 336/456/278
f 308/439/279 286/457/279 338/458/279
f 309/415/280 306/459/280 334/460/280
f 345/461/281 305/462/281 350/463/281
f 310/464/282 360/309/282 356/156/282
f 314/335/283 248/465/283 313/200/283
f 316/192/284 252/466/284 251/467/284
f 319/331/285 253/468/285 318/190/285
f 321/163/286 255/469/286 320/164/286
f 323/150/287 257/470/287 322/153/287
f 317/154/288 257/470/288 252/466/288
f 313/200/289 258/471/289 323/150/289
f 316/192/290 256/472/290 321/163/290
f 314/335/291 253/468/291 249/473/291
f 390/330/292 254/474/292 319/331/292
f 385/329/293 255/469/293 384/475/293
f 324/476/294 358/312/294 325/294/294
f 304/477/295 357/478/295 305/462/295
f 342/410/296 311/479/296 310/480/296
f 345/461/297 351/481/297 347/482/297
f 347/482/298 359/483/298 352/484/298
f 270/449/299 297/404/299 269/407/299
f 275/423/300 328/448/300 276/443/300
f 270/449/301 292/409/301 275/423/301
f 278/430/302 329/485/302 297/404/302
f 272/450/303 295/428/303 271/422/303
f 273/420/304 330/444/304 274/445/304
f 293/486/305 295/428/305 277/426/305
f 272/450/306 290/424/306 273/420/306
f 258/471/307 296/427/307 263/419/307
f 257/470/308 332/446/308 252/466/308
f 248/465/309 333/425/309 296/427/309
f 258/471/310 291/421/310 257/470/310
f 287/441/311 334/460/311 288/455/311
f 282/452/312 302/416/312 268/413/312
f 284/436/313 335/487/313 302/416/313
f 282/452/314 309/415/314 287/441/314
f 285/438/315 336/456/315 286/457/315
f 280/453/316 300/434/316 281/440/316
f 280/453/317 307/442/317 285/438/317
f 283/432/318 337/488/318 300/434/318
f 255/469/319 338/458/319 384/475/319
f 256/472/320 301/433/320 279/437/320
f 256/472/321 308/439/321 255/469/321
f 251/467/322 339/431/322 301/433/322
f 23/489/323 8/278/323 13/490/323
f 267/454/324 340/491/324 266/414/324
f 264/418/325 343/492/325 341/493/325
f 266/414/326 344/494/326 306/459/326
f 267/454/327 341/493/327 326/495/327
f 261/408/328 348/496/328 289/447/328
f 262/451/329 327/497/329 261/408/329
f 259/406/330 349/498/330 346/499/330
f 262/451/331 346/499/331 303/500/331
f 327/497/332 352/484/332 348/496/332
f 303/500/333 347/482/333 327/497/333
f 346/499/334 353/501/334 304/477/334
f 303/500/335 304/477/335 345/461/335
f 326/495/336 310/480/336 340/491/336
f 341/493/337 355/502/337 324/503/337
f 340/491/338 356/504/338 344/494/338
f 326/495/339 324/503/339 342/410/339
f 397/505/340 376/506/340 1/507/340
f 231/389/341 226/376/341 365/508/341
f 227/386/342 366/509/342 228/377/342
f 224/374/343 362/510/343 229/387/343
f 395/352/344 372/511/344 396/512/344
f 232/379/345 366/509/345 227/386/345
f 363/351/346 229/387/346 362/510/346
f 366/509/347 233/384/347 228/377/347
f 364/513/348 231/389/348 365/508/348
f 226/376/349 375/514/349 365/508/349
f 364/513/350 374/515/350 366/509/350
f 367/516/351 375/514/351 393/517/351
f 3/518/352 253/519/352 75/520/352
f 369/521/353 223/385/353 234/380/353
f 367/516/354 371/522/354 369/521/354
f 223/385/355 362/510/355 224/374/355
f 372/511/356 362/510/356 371/522/356
f 379/523/357 370/524/357 368/525/357
f 396/512/358 367/516/358 393/517/358
f 373/526/359 365/508/359 375/514/359
f 225/527/360 393/517/360 375/514/360
f 233/384/361 369/521/361 234/380/361
f 373/526/362 369/521/362 374/515/362
f 204/72/363 39/528/363 126/70/363
f 1/507/364 380/529/364 75/530/364
f 393/531/365 378/532/365 394/533/365
f 87/4/366 378/534/366 381/535/366
f 380/529/367 3/125/367 75/530/367
f 377/536/368 66/12/368 3/125/368
f 376/506/369 87/4/369 5/148/369
f 380/529/370 6/7/370 377/536/370
f 377/536/371 57/9/371 2/115/371
f 376/506/372 74/537/372 380/529/372
f 397/538/373 254/539/373 392/540/373
f 1/541/374 253/519/374 254/539/374
f 14/542/375 388/543/375 24/544/375
f 9/383/376 381/545/376 4/381/376
f 250/546/377 383/547/377 201/548/377
f 315/549/378 386/550/378 385/551/378
f 18/552/379 387/375/379 386/328/379
f 99/553/380 383/547/380 388/554/380
f 315/549/381 384/555/381 250/556/381
f 4/381/382 387/557/382 61/558/382
f 9/383/383 388/543/383 382/559/383
f 250/560/384 18/552/384 315/561/384
f 201/562/385 61/558/385 250/556/385
f 312/563/386 389/564/386 91/565/386
f 222/566/387 389/388/387 391/350/387
f 247/567/388 390/330/388 312/568/388
f 379/523/389 393/569/389 394/570/389
f 361/571/390 391/350/390 395/352/390
f 361/571/391 396/512/391 370/572/391
f 370/524/392 393/569/392 368/525/392
f 247/573/393 397/574/393 392/575/393
f 86/576/394 394/570/394 397/574/394
f 361/571/395 91/577/395 222/566/395
f 312/563/396 86/576/396 247/573/396
f 312/563/397 379/523/397 86/576/397
f 378/196/398 387/557/398 381/545/398
f 5/1/399 10/578/399 76/2/399
f 87/4/400 381/535/400 382/5/400
f 6/7/401 11/137/401 58/8/401
f 58/8/402 11/137/402 16/10/402
f 66/12/403 2/115/403 7/13/403
f 68/15/404 12/114/404 22/16/404
f 382/5/405 14/579/405 89/18/405
f 76/19/406 10/147/406 15/20/406
f 7/13/407 12/114/407 68/15/407
f 16/22/408 26/580/408 60/23/408
f 89/18/409 14/579/409 24/25/409
f 15/20/410 25/143/410 78/27/410
f 119/28/411 194/581/411 195/29/411
f 123/31/412 119/215/412 29/32/412
f 139/34/413 32/142/413 82/35/413
f 202/37/414 118/346/414 28/38/414
f 182/40/415 183/201/415 110/41/415
f 176/43/416 97/203/416 96/44/416
f 122/46/417 27/111/417 71/47/417
f 186/49/418 108/131/418 109/50/418
f 210/52/419 141/582/419 33/53/419
f 145/55/420 140/241/420 34/56/420
f 140/58/421 214/254/421 221/59/421
f 133/61/422 44/110/422 72/62/422
f 128/64/423 43/109/423 73/65/423
f 134/67/424 39/528/424 205/68/424
f 126/70/425 40/583/425 203/71/425
f 137/73/426 135/231/426 41/74/426
f 130/76/427 127/220/427 42/77/427
f 135/79/428 206/363/428 207/80/428
f 127/82/429 208/342/429 209/83/429
f 157/85/430 200/584/430 217/86/430
f 150/88/431 216/339/431 215/89/431
f 159/91/432 157/264/432 55/92/432
f 152/94/433 150/253/433 56/95/433
f 153/97/434 48/585/434 213/98/434
f 212/100/435 146/251/435 47/101/435
f 156/103/436 49/141/436 83/104/436
f 147/106/437 50/140/437 84/107/437
f 128/64/438 130/76/438 65/78/438
f 133/61/439 137/73/439 64/75/439
f 122/46/440 123/31/440 63/33/440
f 12/112/441 59/24/441 60/23/441
f 58/8/442 59/11/442 12/114/442
f 2/115/443 57/9/443 58/8/443
f 131/66/444 73/65/444 40/116/444
f 138/63/445 72/62/445 39/118/445
f 124/48/446 71/47/446 28/120/446
f 8/122/447 67/14/447 68/15/447
f 68/15/448 69/17/448 23/124/448
f 3/125/449 66/12/449 67/14/449
f 151/108/450 84/107/450 47/126/450
f 158/128/451 83/250/451 48/129/451
f 182/40/452 111/42/452 108/131/452
f 144/36/453 82/35/453 33/132/453
f 16/134/454 77/586/454 78/135/454
f 11/137/455 76/19/455 77/21/455
f 6/138/456 74/3/456 76/2/456
f 147/106/457 152/94/457 95/96/457
f 156/103/458 159/91/458 94/93/458
f 139/34/459 145/55/459 93/57/459
f 15/20/460 89/18/460 90/26/460
f 88/144/461 89/587/461 15/145/461
f 87/4/462 88/6/462 10/147/462
f 70/149/463 313/200/463 323/150/463
f 20/152/464 62/158/464 322/153/464
f 164/155/465 344/205/465 356/156/465
f 102/151/466 323/150/466 322/153/466
f 185/159/467 355/311/467 343/160/467
f 92/162/468 19/337/468 321/163/468
f 191/165/469 96/588/469 97/166/469
f 188/168/470 189/589/470 79/169/470
f 237/171/471 109/590/471 108/172/471
f 114/174/472 239/591/472 111/42/472
f 240/175/473 188/592/473 85/176/473
f 190/167/474 97/166/474 79/178/474
f 236/180/475 108/593/475 111/181/475
f 241/183/476 114/594/476 110/184/476
f 180/186/477 177/197/477 85/187/477
f 101/189/478 319/331/478 318/190/478
f 20/152/479 317/154/479 316/192/479
f 177/197/480 179/313/480 107/198/480
f 17/199/481 314/335/481 313/200/481
f 183/201/482 184/327/482 117/202/482
f 180/186/483 79/188/483 97/203/483
f 164/155/484 36/227/484 306/204/484
f 73/65/485 124/48/485 118/121/485
f 43/109/486 65/78/486 123/31/486
f 54/206/487 155/270/487 338/207/487
f 219/209/488 167/338/488 349/210/488
f 43/109/489 122/46/489 124/48/489
f 154/212/490 52/226/490 298/213/490
f 65/78/491 42/77/491 119/215/491
f 72/62/492 131/66/492 126/117/492
f 149/216/493 54/206/493 286/208/493
f 149/216/494 336/217/494 288/218/494
f 44/110/495 64/75/495 130/76/495
f 64/75/496 41/74/496 127/220/496
f 53/219/497 288/218/497 334/221/497
f 44/110/498 128/64/498 131/66/498
f 51/223/499 299/233/499 337/224/499
f 69/17/500 138/63/500 134/119/500
f 148/225/501 337/224/501 298/213/501
f 36/227/502 143/222/502 334/221/502
f 22/16/503 60/230/503 137/73/503
f 100/228/504 206/363/504 135/79/504
f 60/230/505 26/262/505 135/231/505
f 51/223/506 142/236/506 335/232/506
f 23/234/507 134/67/507 192/69/507
f 22/16/508 133/61/508 138/63/508
f 142/236/509 197/279/509 265/237/509
f 50/140/510 95/96/510 145/55/510
f 84/107/511 144/36/511 141/133/511
f 199/238/512 252/272/512 332/239/512
f 95/96/513 56/95/513 140/241/513
f 132/242/514 38/258/514 293/243/514
f 50/140/515 139/34/515 144/36/515
f 49/141/516 94/93/516 152/94/516
f 129/245/517 330/249/517 276/246/517
f 45/248/518 274/252/518 330/249/518
f 83/250/519 151/595/519 146/251/519
f 49/141/520 147/106/520 151/108/520
f 45/248/521 136/240/521 332/239/521
f 94/93/522 55/92/522 150/253/522
f 214/254/523 140/58/523 56/90/523
f 125/255/524 37/263/524 294/256/524
f 25/143/525 90/26/525 159/91/525
f 38/258/526 125/255/526 331/257/526
f 121/259/527 219/209/527 260/211/527
f 78/27/528 158/105/528 153/261/528
f 25/143/529 156/103/529 158/105/529
f 100/228/530 26/229/530 153/97/530
f 37/263/531 121/259/531 329/260/531
f 90/26/532 24/25/532 157/264/532
f 388/265/533 200/361/533 157/266/533
f 46/247/534 276/246/534 328/268/534
f 155/270/535 383/360/535 384/271/535
f 199/238/536 154/212/536 339/214/536
f 106/273/537 175/316/537 352/274/537
f 98/276/538 193/359/538 3/277/538
f 160/161/539 343/160/539 265/237/539
f 116/280/540 360/309/540 311/281/540
f 93/57/541 34/56/541 166/283/541
f 120/269/542 328/268/542 289/285/542
f 32/142/543 163/289/543 162/287/543
f 82/35/544 162/287/544 161/288/544
f 32/142/148 93/57/148 165/284/148
f 193/290/545 132/242/545 333/244/545
f 112/292/546 115/308/546 354/293/546
f 103/295/547 21/298/547 305/296/547
f 21/298/548 105/301/548 350/299/548
f 104/300/549 351/302/549 350/299/549
f 106/273/550 359/275/550 351/302/550
f 27/111/551 173/306/551 171/303/551
f 63/33/552 29/32/552 170/304/552
f 27/111/553 63/33/553 172/305/553
f 71/47/554 171/303/554 168/307/554
f 238/282/555 311/281/555 354/293/555
f 116/280/556 187/157/556 356/156/556
f 113/310/557 358/312/557 355/311/557
f 113/310/558 112/292/558 325/294/558
f 173/306/559 180/186/559 176/43/559
f 172/305/560 170/304/560 179/313/560
f 103/295/561 357/297/561 353/314/561
f 173/306/562 172/305/562 177/197/562
f 175/316/563 169/336/563 348/317/563
f 218/318/564 168/341/564 174/319/564
f 170/321/565 246/349/565 242/322/565
f 171/303/566 176/43/566 174/45/566
f 166/324/567 220/340/567 244/325/567
f 165/284/568 166/283/568 184/327/568
f 386/328/569 92/162/569 320/164/569
f 101/189/570 389/388/570 390/330/570
f 163/289/571 182/40/571 186/49/571
f 196/332/572 161/343/572 181/333/572
f 162/287/573 186/49/573 181/51/573
f 163/289/574 165/284/574 183/201/574
f 17/199/575 81/191/575 318/190/575
f 169/336/576 31/286/576 289/285/576
f 19/337/577 80/193/577 316/192/577
f 178/315/578 353/314/578 349/210/578
f 216/339/579 150/88/579 55/87/579
f 34/60/580 221/59/580 220/340/580
f 179/323/581 242/322/581 240/175/581
f 30/39/582 28/38/582 168/341/582
f 41/81/583 207/80/583 208/342/583
f 184/326/584 244/325/584 241/183/584
f 196/332/585 35/54/585 33/53/585
f 146/251/586 212/100/586 213/344/586
f 47/101/587 141/582/587 210/52/587
f 181/333/588 109/590/588 237/171/588
f 174/319/589 96/588/589 191/165/589
f 203/345/590 40/596/590 118/346/590
f 42/84/591 209/83/591 194/347/591
f 29/30/592 195/29/592 246/349/592
f 391/350/593 230/378/593 363/351/593
f 104/300/594 105/301/594 189/353/594
f 21/298/595 103/295/595 191/355/595
f 132/242/596 193/290/596 98/235/596
f 31/286/597 195/402/597 194/347/597
f 197/279/598 35/397/598 196/357/598
f 199/238/599 100/228/599 198/99/599
f 383/360/600 155/270/600 200/361/600
f 37/263/601 203/71/601 202/362/601
f 125/255/602 38/258/602 205/68/602
f 136/240/603 45/248/603 207/80/603
f 129/245/604 46/247/604 209/83/604
f 142/236/605 51/223/605 211/364/605
f 52/226/606 213/98/606 212/366/606
f 143/222/607 214/398/607 215/367/607
f 54/206/608 149/216/608 216/368/608
f 167/338/609 219/209/609 30/370/609
f 36/227/610 164/155/610 220/372/610
f 70/149/611 223/385/611 224/374/611
f 387/375/612 225/527/612 226/376/612
f 80/193/613 227/386/613 228/377/613
f 81/191/614 229/387/614 230/378/614
f 92/162/615 231/389/615 232/379/615
f 62/158/616 233/384/616 234/380/616
f 4/381/617 201/562/617 99/382/617
f 62/158/618 20/152/618 228/377/618
f 102/151/619 234/380/619 223/385/619
f 19/337/620 232/379/620 227/386/620
f 81/191/621 17/199/621 224/374/621
f 389/388/622 101/189/622 230/378/622
f 386/328/623 226/376/623 231/389/623
f 112/292/624 113/310/624 237/390/624
f 115/308/625 239/394/625 114/392/625
f 104/300/626 188/354/626 240/393/626
f 105/301/627 21/298/627 190/356/627
f 115/308/628 112/292/628 236/391/628
f 116/280/629 238/282/629 114/392/629
f 175/316/630 106/273/630 240/393/630
f 46/247/631 120/269/631 194/347/631
f 121/259/632 202/362/632 30/370/632
f 37/263/633 125/255/633 204/72/633
f 129/245/634 208/342/634 207/80/634
f 38/258/635 132/242/635 192/69/635
f 199/238/636 136/240/636 206/363/636
f 197/279/637 142/236/637 210/365/637
f 143/222/638 36/227/638 221/373/638
f 148/225/639 212/366/639 211/364/639
f 149/216/640 53/219/640 215/367/640
f 52/226/641 154/212/641 198/99/641
f 155/270/642 54/206/642 217/369/642
f 160/161/643 196/357/643 243/399/643
f 187/157/644 244/403/644 220/372/644
f 167/338/645 218/371/645 245/400/645
f 31/286/646 169/336/646 246/401/646
f 169/336/647 175/316/647 242/396/647
f 178/315/648 245/400/648 191/355/648
f 185/159/649 243/399/649 237/390/649
f 187/157/650 116/280/650 241/395/650
f 297/404/651 329/485/651 260/405/651
f 269/407/652 262/451/652 261/408/652
f 342/410/653 324/503/653 325/411/653
f 268/413/654 267/454/654 266/414/654
f 302/416/655 335/487/655 265/417/655
f 263/419/656 272/450/656 273/420/656
f 271/422/657 270/449/657 275/423/657
f 333/425/658 293/486/658 277/426/658
f 295/428/659 331/597/659 294/429/659
f 339/431/660 298/598/660 283/432/660
f 300/434/661 337/488/661 299/435/661
f 279/437/662 280/453/662 285/438/662
f 281/440/663 282/452/663 287/441/663
f 290/424/664 275/423/664 276/443/664
f 291/421/665 273/420/665 274/445/665
f 292/409/666 261/408/666 289/447/666
f 271/422/667 295/428/667 278/430/667
f 263/419/668 296/427/668 277/426/668
f 269/407/669 297/404/669 259/406/669
f 281/440/670 300/434/670 284/436/670
f 279/437/671 301/433/671 283/432/671
f 268/413/672 302/416/672 264/418/672
f 307/442/673 287/441/673 288/455/673
f 308/439/674 285/438/674 286/457/674
f 309/415/675 266/414/675 306/459/675
f 345/461/676 304/477/676 305/462/676
f 310/464/677 311/281/677 360/309/677
f 314/335/678 249/473/678 248/465/678
f 316/192/679 317/154/679 252/466/679
f 319/331/680 254/474/680 253/468/680
f 321/163/681 256/472/681 255/469/681
f 323/150/682 258/471/682 257/470/682
f 317/154/683 322/153/683 257/470/683
f 313/200/684 248/465/684 258/471/684
f 316/192/685 251/467/685 256/472/685
f 314/335/686 318/190/686 253/468/686
f 390/330/687 392/599/687 254/474/687
f 385/329/688 320/164/688 255/469/688
f 324/476/689 355/311/689 358/312/689
f 304/477/690 353/501/690 357/478/690
f 342/410/691 354/412/691 311/479/691
f 345/461/692 350/463/692 351/481/692
f 347/482/693 351/481/693 359/483/693
f 270/449/694 278/430/694 297/404/694
f 275/423/695 292/409/695 328/448/695
f 270/449/696 269/407/696 292/409/696
f 278/430/697 294/429/697 329/485/697
f 272/450/698 277/426/698 295/428/698
f 273/420/699 290/424/699 330/444/699
f 293/486/700 331/597/700 295/428/700
f 272/450/701 271/422/701 290/424/701
f 258/471/702 248/465/702 296/427/702
f 257/470/703 291/421/703 332/446/703
f 248/465/704 249/473/704 333/425/704
f 258/471/705 263/419/705 291/421/705
f 287/441/706 309/415/706 334/460/706
f 282/452/707 284/436/707 302/416/707
f 284/436/708 299/435/708 335/487/708
f 282/452/709 268/413/709 309/415/709
f 285/438/710 307/442/710 336/456/710
f 280/453/711 283/432/711 300/434/711
f 280/453/712 281/440/712 307/442/712
f 283/432/713 298/598/713 337/488/713
f 255/469/714 308/439/714 338/458/714
f 256/472/715 251/467/715 301/433/715
f 256/472/716 279/437/716 308/439/716
f 251/467/717 252/466/717 339/431/717
f 23/489/718 98/276/718 8/278/718
f 267/454/719 326/495/719 340/491/719
f 264/418/720 265/417/720 343/492/720
f 266/414/721 340/491/721 344/494/721
f 267/454/722 264/418/722 341/493/722
f 261/408/723 327/497/723 348/496/723
f 262/451/724 303/500/724 327/497/724
f 259/406/725 260/405/725 349/498/725
f 262/451/726 259/406/726 346/499/726
f 327/497/727 347/482/727 352/484/727
f 303/500/728 345/461/728 347/482/728
f 346/499/729 349/498/729 353/501/729
f 303/500/730 346/499/730 304/477/730
f 326/495/731 342/410/731 310/480/731
f 341/493/732 343/492/732 355/502/732
f 340/491/733 310/480/733 356/504/733
f 326/495/734 341/493/734 324/503/734
f 397/505/735 394/600/735 376/506/735
f 395/352/736 363/351/736 372/511/736
f 232/379/737 364/513/737 366/509/737
f 363/351/738 230/378/738 229/387/738
f 366/509/346 374/515/346 233/384/346
f 364/513/739 232/379/739 231/389/739
f 226/376/740 225/527/740 375/514/740
f 364/513/741 373/526/741 374/515/741
f 367/516/742 373/526/742 375/514/742
f 3/518/743 249/601/743 253/519/743
f 369/521/744 371/522/744 223/385/744
f 367/516/745 372/511/745 371/522/745
f 223/385/744 371/522/744 362/510/744
f 372/511/746 363/351/746 362/510/746
f 379/523/747 361/602/747 370/524/747
f 396/512/748 372/511/748 367/516/748
f 373/526/749 364/513/749 365/508/749
f 225/527/750 235/603/750 393/517/750
f 233/384/346 374/515/346 369/521/346
f 373/526/751 367/516/751 369/521/751
f 204/72/752 205/68/752 39/528/752
f 1/507/753 376/506/753 380/529/753
f 393/531/754 235/604/754 378/532/754
f 87/4/755 394/600/755 378/534/755
f 380/529/756 377/536/756 3/125/756
f 377/536/757 2/115/757 66/12/757
f 376/506/758 394/600/758 87/4/758
f 380/529/759 74/537/759 6/7/759
f 377/536/760 6/7/760 57/9/760
f 376/506/761 5/148/761 74/537/761
f 397/538/762 1/541/762 254/539/762
f 1/541/763 75/520/763 253/519/763
f 14/542/764 382/559/764 388/543/764
f 9/383/765 382/559/765 381/545/765
f 250/546/766 384/605/766 383/547/766
f 315/549/767 18/606/767 386/550/767
f 18/552/768 61/607/768 387/375/768
f 99/553/769 201/548/769 383/547/769
f 315/549/770 385/551/770 384/555/770
f 4/381/771 381/545/771 387/557/771
f 9/383/772 99/382/772 388/543/772
f 250/560/773 61/607/773 18/552/773
f 201/562/774 4/381/774 61/558/774
f 312/563/775 390/608/775 389/564/775
f 222/566/776 91/577/776 389/388/776
f 247/567/777 392/599/777 390/330/777
f 379/523/778 368/525/778 393/569/778
f 361/571/779 222/566/779 391/350/779
f 361/571/780 395/352/780 396/512/780
f 370/524/781 396/609/781 393/569/781
f 247/573/782 86/576/782 397/574/782
f 86/576/783 379/523/783 394/570/783
f 361/571/784 379/610/784 91/577/784
f 312/563/785 91/565/785 379/523/785
f 378/196/786 225/195/786 387/557/786
