# Blender 4.2.0
# www.blender.org
mtllib lantern.mtl
g lantern_Mesh
v -0.046357 -0.002106 0.046270
v -0.054790 0.158107 0.054703
v -0.046357 -0.002106 -0.046177
v -0.054790 0.158107 -0.054609
v 0.046090 -0.002106 0.046270
v 0.054523 0.158107 0.054703
v 0.046090 -0.002106 -0.046177
v 0.054523 0.158107 -0.054609
v -0.062209 -0.002106 0.000047
v -0.073533 0.158107 0.000047
v 0.061942 -0.002106 0.000047
v 0.073267 0.158107 0.000047
v -0.000133 -0.002106 -0.062029
v -0.000133 0.158107 -0.073353
v -0.000133 -0.002106 0.062122
v -0.000133 0.158107 0.073447
v -0.036944 0.239696 0.036857
v -0.059155 -0.028969 0.059068
v -0.069322 0.045176 0.069235
v -0.069322 0.045176 -0.069141
v 0.069055 0.045176 -0.069141
v 0.069055 0.045176 0.069235
v 0.092782 0.045176 0.000047
v -0.093049 0.045176 0.000047
v -0.000133 0.045176 0.092962
v -0.000133 0.045176 -0.092869
v -0.067061 0.083502 0.066974
v -0.067061 0.083502 -0.066881
v 0.066794 0.083502 -0.066881
v 0.066794 0.083502 0.066974
v 0.089747 0.083502 0.000047
v -0.090014 0.083502 0.000047
v -0.000133 0.083502 0.089927
v -0.000133 0.083502 -0.089833
v -0.029906 0.233546 0.029820
v -0.029906 0.233546 -0.029726
v 0.029639 0.233546 0.029820
v 0.029639 0.233546 -0.029726
v -0.040117 0.233546 0.000047
v 0.039850 0.233546 0.000047
v -0.000133 0.233546 -0.039937
v -0.000133 0.233546 0.040030
v -0.036835 0.256844 0.036749
v -0.036944 0.239696 -0.036764
v 0.036677 0.239696 0.036857
v 0.036677 0.239696 -0.036764
v -0.050661 0.244028 0.000047
v 0.050394 0.244028 0.000047
v -0.000133 0.239696 -0.049388
v -0.000133 0.239696 0.049481
v -0.030926 0.265951 0.030839
v -0.036835 0.256844 -0.036655
v 0.036568 0.256844 0.036749
v 0.036568 0.256844 -0.036655
v -0.049422 0.256844 0.000047
v 0.050312 0.252512 0.000047
v -0.000133 0.256844 -0.049242
v -0.000133 0.256844 0.049335
v -0.030926 0.265951 -0.030746
v 0.030659 0.265951 0.030839
v 0.030659 0.265951 -0.030746
v -0.041486 0.265951 0.000047
v 0.041219 0.265951 0.000047
v -0.000133 0.265951 -0.041306
v -0.000133 0.265951 0.041400
v -0.037952 0.278981 0.037866
v -0.024197 0.273360 0.024111
v -0.024197 0.273360 -0.024017
v 0.023930 0.273360 0.024111
v 0.023930 0.273360 -0.024017
v -0.032450 0.273360 0.000047
v 0.032183 0.273360 0.000047
v -0.000133 0.273360 -0.032270
v -0.000133 0.273360 0.032363
v -0.022516 0.295646 0.022430
v -0.037952 0.278981 -0.037772
v 0.037685 0.278981 0.037866
v 0.037685 0.278981 -0.037772
v -0.050922 0.278981 0.000047
v 0.050655 0.278981 0.000047
v -0.000134 0.278981 -0.050742
v -0.000134 0.278981 0.050835
v -0.022516 0.295646 -0.022336
v 0.022249 0.295646 0.022430
v 0.022249 0.295646 -0.022336
v -0.030193 0.295646 0.000047
v 0.029925 0.295646 0.000047
v -0.000134 0.295646 -0.030012
v -0.000134 0.295646 0.030106
v -0.000134 0.295646 0.000047
v -0.050922 0.289626 0.000047
v -0.037952 0.289626 -0.037772
v -0.000134 0.289626 -0.050742
v 0.037685 0.289626 -0.037772
v 0.050655 0.289626 0.000047
v 0.037685 0.289626 0.037866
v -0.000134 0.289626 0.050835
v -0.037952 0.289626 0.037866
v -0.054904 -0.016862 0.054817
v -0.054904 -0.016862 -0.054724
v 0.054637 -0.016862 0.054817
v 0.054637 -0.016862 -0.054724
v -0.073160 -0.016685 0.000047
v 0.072893 -0.016685 0.000047
v -0.000133 -0.016862 -0.073507
v -0.000133 -0.016862 0.073601
v -0.059155 -0.049778 0.059068
v -0.059155 -0.028969 -0.058975
v 0.058888 -0.028969 0.059068
v 0.058888 -0.028969 -0.058975
v -0.079904 0.209403 0.000047
v 0.103514 0.057327 0.000047
v -0.000133 -0.028969 -0.079216
v -0.000133 -0.028969 0.079310
v -0.074942 -0.061506 0.074855
v -0.059155 -0.049778 -0.058975
v 0.058888 -0.049778 0.059068
v 0.058888 -0.049778 -0.058975
v -0.081203 -0.045445 0.000047
v 0.080936 -0.045445 0.000047
v -0.000133 -0.049778 -0.079216
v -0.000133 -0.049778 0.079310
v -0.074942 -0.071911 0.074855
v -0.074942 -0.061506 -0.074761
v 0.074674 -0.061506 0.074855
v 0.074674 -0.061506 -0.074761
v -0.100596 -0.061506 0.000047
v 0.100330 -0.061506 0.000047
v -0.000133 -0.061506 -0.100416
v -0.000133 -0.061506 0.100510
v -0.060090 0.016141 -0.059910
v -0.074942 -0.071911 -0.074761
v 0.074674 -0.071911 0.074855
v 0.074674 -0.071911 -0.074761
v -0.100596 -0.071911 0.000047
v 0.100330 -0.071911 0.000047
v -0.000133 -0.071911 -0.100416
v -0.000133 -0.071911 0.100510
v -0.000133 -0.071911 0.000047
v 0.059823 0.016141 -0.059910
v 0.059823 0.016141 0.060003
v 0.080385 0.016141 0.000047
v -0.080652 0.016141 0.000047
v -0.000133 0.016141 0.080565
v -0.000133 0.016141 -0.080472
v -0.060090 0.016141 0.060003
v -0.054283 -0.002106 0.023158
v 0.063895 0.158107 0.027375
v -0.064162 0.158107 0.027375
v 0.054016 -0.002106 0.023158
v -0.081185 0.045176 0.034641
v 0.080918 0.045176 0.034641
v -0.078537 0.083502 0.033511
v 0.078270 0.083502 0.033511
v 0.034745 0.233546 0.014933
v -0.035012 0.233546 0.014933
v 0.045376 0.244028 0.011064
v -0.045643 0.244028 0.011064
v 0.045312 0.252512 0.011044
v -0.045579 0.252512 0.011044
v 0.035939 0.265951 0.015443
v -0.036206 0.265951 0.015443
v 0.028057 0.273360 0.012079
v -0.028324 0.273360 0.012079
v 0.044170 0.278981 0.018956
v -0.044437 0.278981 0.018956
v 0.044170 0.289626 0.018956
v -0.044437 0.289626 0.018956
v -0.000134 0.295646 0.015076
v 0.026087 0.295646 0.011238
v -0.026354 0.295646 0.011238
v -0.068860 -0.020818 0.018531
v 0.068593 -0.020818 0.018531
v -0.072314 -0.029028 0.019642
v 0.069009 -0.028969 0.029558
v -0.072289 -0.045445 0.019635
v 0.072022 -0.045445 0.019635
v -0.087769 -0.061506 0.037451
v 0.087502 -0.061506 0.037451
v -0.087769 -0.071911 0.037451
v 0.087502 -0.071911 0.037451
v -0.000133 -0.071911 0.050278
v 0.070104 0.016141 0.030025
v -0.070371 0.016141 0.030025
v -0.064162 0.158107 -0.027281
v 0.054016 -0.002106 -0.023065
v -0.054283 -0.002106 -0.023065
v 0.063895 0.158107 -0.027281
v 0.080918 0.045176 -0.034547
v -0.081185 0.045176 -0.034547
v 0.078270 0.083502 -0.033417
v -0.078537 0.083502 -0.033417
v -0.035012 0.233546 -0.014840
v 0.034745 0.233546 -0.014840
v -0.045643 0.244028 -0.010971
v 0.045376 0.244028 -0.010971
v -0.045579 0.252512 -0.010950
v 0.045312 0.252512 -0.010950
v -0.036206 0.265951 -0.015350
v 0.035939 0.265951 -0.015350
v -0.028324 0.273360 -0.011985
v 0.028057 0.273360 -0.011985
v -0.044437 0.278981 -0.018863
v 0.044170 0.278981 -0.018863
v -0.044437 0.289626 -0.018863
v 0.044170 0.289626 -0.018863
v -0.000134 0.295646 -0.014983
v -0.026354 0.295646 -0.011145
v 0.026087 0.295646 -0.011145
v 0.068593 -0.020818 -0.018437
v -0.068860 -0.020818 -0.018437
v 0.072047 -0.029028 -0.019548
v -0.069276 -0.028969 -0.029464
v 0.072022 -0.045445 -0.019542
v -0.072289 -0.045445 -0.019542
v 0.087502 -0.061506 -0.037357
v -0.087769 -0.061506 -0.037357
v 0.087502 -0.071911 -0.037357
v -0.087769 -0.071911 -0.037357
v -0.000133 -0.071911 -0.050185
v -0.070371 0.016141 -0.029932
v 0.070104 0.016141 -0.029932
v -0.043256 0.239696 0.018452
v -0.049568 0.239696 0.000047
v 0.042989 0.239696 -0.018359
v 0.049301 0.239696 0.000047
v -0.043129 0.256844 0.018398
v -0.050579 0.252512 0.000047
v 0.042862 0.256844 -0.018304
v 0.049155 0.256844 0.000047
v -0.064296 -0.016862 -0.027339
v -0.073687 -0.016862 0.000047
v 0.064029 -0.016862 0.027432
v 0.073420 -0.016862 0.000047
v -0.069276 -0.049778 -0.029464
v -0.079396 -0.049778 0.000047
v 0.069009 -0.049778 0.029558
v 0.079129 -0.049778 0.000047
v 0.042989 0.239696 0.018452
v 0.042862 0.256844 0.018398
v -0.064296 -0.016862 0.027432
v -0.069276 -0.049778 0.029558
v 0.072047 -0.029028 0.019642
v -0.069276 -0.028969 0.029558
v -0.043256 0.239696 -0.018359
v -0.043129 0.256844 -0.018304
v 0.064029 -0.016862 -0.027339
v 0.069009 -0.049778 -0.029464
v -0.072314 -0.029028 -0.019548
v 0.069009 -0.028969 -0.029464
v -0.085909 0.237277 0.000047
v -0.063961 0.233995 0.000047
v 0.063694 0.233995 0.000047
v 0.085642 0.237277 0.000047
v 0.096588 0.006408 0.000047
v 0.091004 0.133980 0.000047
v -0.096855 0.006408 0.000047
v -0.113370 -0.003074 -0.013798
v 0.113103 -0.003074 0.013891
v -0.126001 -0.010880 0.000047
v 0.125733 -0.010880 0.000047
v -0.113370 -0.003074 0.013891
v 0.113103 -0.003074 -0.013798
v -0.066878 0.233944 0.010163
v 0.066611 0.233944 -0.010069
v -0.083081 0.237227 0.010157
v 0.082814 0.237227 -0.010063
v -0.101275 0.006601 -0.008927
v 0.101008 0.006601 0.009021
v -0.121851 -0.010875 -0.009695
v 0.121584 -0.010875 0.009789
v 0.066611 0.233944 0.010163
v 0.082814 0.237227 0.010157
v -0.101275 0.006601 0.009021
v -0.121851 -0.010875 0.009789
v -0.066878 0.233944 -0.010069
v -0.083081 0.237227 -0.010063
v 0.101008 0.006601 -0.008927
v 0.121584 -0.010875 -0.009695
v -0.099687 0.212685 0.000047
v -0.103781 0.057327 0.000047
v -0.118910 0.061087 -0.013798
v 0.118643 0.061087 0.013891
v -0.131335 0.067848 0.000047
v 0.131068 0.067848 0.000047
v -0.118910 0.061087 0.013891
v 0.118643 0.061087 -0.013798
v -0.108517 0.057520 -0.008927
v 0.108250 0.057520 0.009021
v -0.127009 0.067852 -0.009695
v 0.126742 0.067852 0.009789
v -0.108517 0.057520 0.009021
v -0.127009 0.067852 0.009789
v 0.108250 0.057520 -0.008927
v 0.126742 0.067852 -0.009695
v -0.091271 0.133980 0.000047
v -0.103678 0.136655 -0.014171
v 0.103411 0.136655 0.014265
v -0.115559 0.140881 0.000047
v 0.115292 0.140881 0.000047
v -0.103678 0.136655 0.014265
v 0.103411 0.136655 -0.014171
v -0.095436 0.134051 -0.009498
v 0.095169 0.134051 0.009592
v -0.111754 0.140858 -0.009879
v 0.111486 0.140858 0.009973
v -0.095436 0.134051 0.009592
v -0.111754 0.140858 0.009973
v 0.095169 0.134051 -0.009498
v 0.111486 0.140858 -0.009879
v 0.079637 0.209403 0.000047
v 0.099420 0.212685 0.000047
v -0.083549 0.209352 0.010163
v 0.083282 0.209352 -0.010069
v -0.096405 0.212634 0.010157
v 0.096138 0.212634 -0.010063
v 0.083282 0.209352 0.010163
v 0.096138 0.212634 0.010157
v -0.083549 0.209352 -0.010069
v -0.096405 0.212634 -0.010063
v -0.036890 0.248270 0.036803
v -0.000133 0.248270 0.049408
v 0.036623 0.248270 0.036803
v -0.036890 0.248270 -0.036710
v -0.000133 0.248270 -0.049315
v 0.036623 0.248270 -0.036710
v -0.043192 0.248270 0.018425
v 0.042925 0.248270 0.018425
v 0.042925 0.248270 -0.018331
v -0.043192 0.248270 -0.018331
v -0.045611 0.248270 0.011054
v 0.045344 0.248270 0.011054
v 0.045344 0.248270 -0.010961
v -0.045611 0.248270 -0.010961
v -0.074980 0.235586 0.014638
v 0.074713 0.235586 0.014638
v 0.074713 0.235586 -0.014544
v -0.074980 0.235586 -0.014544
v -0.089977 0.210993 0.014638
v 0.089710 0.210993 0.014638
v 0.089710 0.210993 -0.014544
v -0.089977 0.210993 -0.014544
v -0.060870 0.238986 0.010613
v -0.062007 0.239011 0.000047
v -0.060870 0.238986 -0.010520
v -0.069602 0.244870 -0.010507
v -0.073838 0.244895 0.000047
v -0.069602 0.244870 0.010600
v -0.065236 0.241928 0.012846
v -0.065236 0.241928 -0.012752
v 0.069335 0.244870 -0.010507
v 0.060603 0.238986 -0.010520
v 0.061740 0.239011 0.000047
v 0.073571 0.244895 0.000047
v 0.060603 0.238986 0.010614
v 0.069335 0.244870 0.010600
v 0.064969 0.241928 0.012846
v 0.064969 0.241928 -0.012752
vn -0.9259 0.2045 -0.3175
vn 0.3175 0.2045 -0.9259
vn 0.9259 0.2045 0.3175
vn -0.3175 0.2045 0.9259
vn 0.7619 0.5927 -0.2613
vn 0.2992 0.3865 -0.8724
vn -0.2992 0.3865 0.8724
vn 0.2613 0.5927 -0.7619
vn 0.9259 0.2045 -0.3175
vn -0.9259 0.2045 0.3175
vn -0.7619 0.5927 0.2613
vn -0.8724 0.3865 -0.2992
vn -0.8724 0.3865 0.2992
vn -0.2613 0.5927 0.7619
vn 0.3175 0.2045 0.9259
vn -0.3175 0.2045 -0.9259
vn -0.3008 -0.3745 -0.8771
vn 0.3008 -0.3745 0.8771
vn -0.8771 -0.3745 0.3008
vn 0.8771 -0.3745 -0.3008
vn -0.3008 -0.3745 0.8771
vn 0.8771 -0.3745 0.3008
vn 0.3008 -0.3745 -0.8771
vn -0.8771 -0.3745 -0.3008
vn -0.3235 0.0747 -0.9433
vn 0.3235 0.0747 0.9433
vn -0.9433 0.0747 0.3235
vn 0.9433 0.0747 -0.3235
vn -0.3235 0.0747 0.9433
vn 0.9433 0.0747 0.3235
vn 0.3235 0.0747 -0.9433
vn -0.9433 0.0747 -0.3235
vn -0.1838 -0.8239 -0.5361
vn -0.5361 -0.8239 -0.1838
vn 0.5361 -0.8239 0.1838
vn -0.5361 -0.8239 0.1838
vn 0.2992 0.3865 0.8724
vn -0.2992 0.3865 -0.8724
vn 0.8724 0.3865 0.2992
vn 0.8724 0.3865 -0.2992
vn -0.0425 0.1515 0.9875
vn -0.9270 -0.3612 0.1006
vn -0.9459 0.0080 0.3244
vn 0.3244 0.0080 0.9459
vn 0.5361 -0.8239 -0.1838
vn -0.1838 -0.8239 0.5361
vn 0.1838 -0.8239 -0.5361
vn 0.1838 -0.8239 0.5361
vn 0.2503 0.6361 0.7299
vn 0.2503 0.6361 -0.7299
vn -0.2503 0.6361 0.7299
vn 0.7299 0.6361 -0.2503
vn -0.3244 0.0081 -0.9459
vn 0.9459 0.0080 -0.3244
vn -0.3244 0.0080 0.9459
vn 0.3244 0.0081 -0.9459
vn 0.2125 0.7556 -0.6196
vn -0.2125 0.7556 0.6196
vn 0.6196 0.7556 -0.2125
vn -0.2125 0.7556 -0.6196
vn -0.7299 0.6361 0.2503
vn 0.7299 0.6361 0.2503
vn -0.7299 0.6361 -0.2503
vn -0.2503 0.6361 -0.7299
vn 0.2897 -0.9520 -0.0993
vn -0.0993 -0.9520 -0.2897
vn -0.2897 -0.9520 -0.0993
vn 0.2897 -0.9520 0.0993
vn 0.2125 0.7556 0.6196
vn -0.6196 0.7556 0.2125
vn 0.6196 0.7556 0.2125
vn -0.6196 0.7556 -0.2125
vn -0.9459 -0.0000 -0.3244
vn 0.9459 -0.0000 0.3244
vn -0.9459 -0.0000 0.3244
vn 0.3244 -0.0000 0.9459
vn -0.0993 -0.9520 0.2897
vn 0.0993 -0.9520 -0.2897
vn 0.0993 -0.9520 0.2897
vn -0.2897 -0.9520 0.0993
vn -0.0000 1.0000 -0.0000
vn -0.3244 -0.0000 -0.9459
vn 0.9459 -0.0000 -0.3244
vn -0.3244 -0.0000 0.9459
vn 0.3244 -0.0000 -0.9459
vn -0.2777 0.9560 -0.0952
vn 0.0952 0.9560 -0.2776
vn 0.2777 0.9560 0.0952
vn -0.0952 0.9560 0.2776
vn -0.2777 0.9560 0.0952
vn 0.2777 0.9560 -0.0952
vn -0.0952 0.9560 -0.2776
vn 0.0952 0.9560 0.2776
vn 0.2963 0.4074 -0.8639
vn -0.0592 0.3889 0.9194
vn 0.3926 -0.3646 -0.8444
vn -0.8639 0.4074 -0.2963
vn 0.7619 0.5927 0.2613
vn -0.7619 0.5927 -0.2613
vn 0.2613 0.5927 0.7619
vn -0.2613 0.5927 -0.7619
vn 0.9270 -0.3612 -0.1006
vn 0.8639 0.4074 0.2963
vn 0.2963 0.4074 0.8639
vn -0.2963 0.4074 -0.8639
vn -0.2963 0.4074 0.8639
vn -0.1638 0.8632 -0.4776
vn 0.1638 0.8632 0.4776
vn 0.4776 0.8632 0.1638
vn 0.1638 0.8632 -0.4776
vn -0.1953 -0.0007 0.9807
vn -0.1638 0.8632 0.4776
vn -0.4776 0.8632 -0.1638
vn 0.4776 0.8632 -0.1638
vn -0.4776 0.8632 0.1638
vn -0.0000 -1.0000 -0.0000
vn -0.6837 -0.6910 -0.2345
vn 0.2345 -0.6910 -0.6837
vn 0.6837 -0.6910 0.2345
vn -0.2345 -0.6910 0.6837
vn 0.6837 -0.6910 -0.2345
vn -0.6837 -0.6910 0.2345
vn 0.2345 -0.6910 0.6837
vn -0.2345 -0.6910 -0.6837
vn 0.1395 0.4617 -0.8760
vn 0.2637 -0.2086 0.9418
vn -0.8639 0.4074 0.2963
vn -0.2776 0.9560 0.0952
vn 0.2776 0.9560 0.0952
vn 0.0425 0.1515 -0.9875
vn 0.9459 0.0080 0.3244
vn -0.5911 -0.7661 0.2522
vn 0.0592 0.3889 -0.9194
vn 0.8639 0.4074 -0.2963
vn 0.2776 0.9560 -0.0952
vn -0.2776 0.9560 -0.0952
vn 0.6419 0.7665 0.0221
vn -0.9459 0.0081 -0.3244
vn -0.9454 0.0320 0.3242
vn 0.9454 0.0320 -0.3242
vn -0.8846 0.2362 0.4022
vn 0.8846 0.2362 -0.4022
vn -0.8896 0.3400 -0.3051
vn 0.8896 0.3400 0.3051
vn -0.8510 -0.3548 -0.3872
vn 0.8510 -0.3548 0.3872
vn 0.8870 -0.2237 0.4039
vn 0.9458 -0.0157 0.3244
vn 0.3163 -0.9424 -0.1085
vn -0.9425 0.0848 0.3232
vn 0.9569 -0.0000 0.2906
vn -0.9561 -0.0016 0.2930
vn 0.8752 0.4042 0.2658
vn -0.8737 0.4063 0.2674
vn -0.9501 0.0080 0.3118
vn 0.9501 0.0080 0.3118
vn -0.8870 -0.2237 -0.4039
vn -0.9458 -0.0157 -0.3244
vn -0.3163 -0.9424 0.1085
vn 0.9425 0.0848 -0.3232
vn -0.9569 -0.0000 -0.2905
vn 0.9561 -0.0016 -0.2930
vn -0.8752 0.4042 -0.2658
vn 0.8737 0.4063 -0.2674
vn 0.9501 0.0080 -0.3118
vn -0.9501 0.0080 -0.3118
vn 0.8161 -0.5290 0.2327
vn -0.4922 -0.3002 0.8171
vn 0.4721 -0.0309 -0.8810
vn 0.3523 0.0304 0.9354
vn -0.4087 -0.0353 -0.9120
vn 0.9183 -0.0602 0.3912
vn -0.4411 0.0627 0.8952
vn 0.9122 -0.0618 -0.4051
vn 0.4922 -0.3002 -0.8171
vn -0.9183 -0.0602 -0.3912
vn -0.4721 -0.0309 0.8810
vn 0.8533 0.4623 -0.2410
vn -0.4884 0.8498 0.1981
vn -0.1395 0.4617 0.8760
vn 0.4884 0.8498 -0.1981
vn -0.3926 -0.3646 0.8444
vn 0.6631 0.6804 -0.3120
vn 0.6249 -0.7605 -0.1764
vn -0.6631 0.6804 0.3120
vn -0.5275 0.8359 -0.1517
vn -0.5865 -0.7648 -0.2669
vn -0.6419 0.7665 -0.0221
vn 0.5865 -0.7648 0.2669
vn 0.5911 -0.7661 -0.2522
vn -0.6249 -0.7605 0.1764
vn -0.2637 -0.2086 -0.9418
vn 0.5275 0.8359 0.1517
vn 0.1953 -0.0007 -0.9807
vn -0.4314 0.0879 0.8979
vn 0.4018 -0.0755 -0.9126
vn 0.3993 0.0760 0.9137
vn 0.4314 0.0879 -0.8979
vn -0.8967 0.1937 0.3981
vn -0.3993 0.0760 -0.9137
vn 0.8727 -0.1526 0.4639
vn 0.8967 0.1937 -0.3981
vn 0.4411 0.0627 -0.8952
vn 0.8785 0.1250 0.4610
vn -0.3523 0.0304 -0.9354
vn -0.9122 -0.0618 0.4051
vn 0.8915 0.1213 -0.4365
vn 0.4087 -0.0353 0.9120
vn -0.8915 0.1213 0.4365
vn -0.8785 0.1250 -0.4610
vn 0.9061 -0.1479 -0.3965
vn -0.4671 -0.0985 -0.8787
vn -0.4018 -0.0755 0.9126
vn -0.9061 -0.1479 0.3965
vn 0.4671 -0.0985 0.8787
vn -0.9165 0.1906 -0.3518
vn -0.8727 -0.1526 -0.4639
vn 0.9165 0.1906 0.3518
vn 0.5499 -0.1055 -0.8285
vn 0.9317 -0.1404 0.3350
vn 0.5481 0.1151 0.8284
vn -0.4721 -0.0812 -0.8778
vn -0.8161 -0.5290 -0.2327
vn 0.7938 -0.5381 -0.2834
vn -0.7938 -0.5381 0.2834
vn -0.8389 0.4700 -0.2747
vn -0.8533 0.4623 0.2410
vn 0.4265 0.2601 -0.8663
vn 0.8389 0.4700 0.2747
vn -0.4265 0.2601 0.8663
vn 0.4189 -0.2840 0.8625
vn -0.4189 -0.2840 -0.8625
vn -0.4368 0.0760 0.8963
vn -0.5499 -0.1055 0.8285
vn 0.4721 -0.0812 0.8778
vn 0.9143 0.2021 0.3510
vn 0.3260 0.5294 0.7832
vn 0.2272 -0.3519 0.9080
vn -0.5025 0.2723 -0.8206
vn 0.5025 0.2723 0.8206
vn -0.9501 0.0080 -0.3117
vn 0.9501 0.0080 0.3117
vn -0.9459 0.0080 -0.3244
vn -0.2272 -0.3519 -0.9080
vn -0.3260 0.5294 -0.7832
vn -0.3244 0.0080 -0.9459
vn -0.9459 0.0081 0.3244
vn 0.9063 -0.1461 -0.3966
vn -0.9317 -0.1404 -0.3350
vn -0.9143 0.2021 -0.3510
vn -0.9319 0.1985 0.3035
vn 0.4368 0.0760 -0.8963
vn 0.9319 0.1985 -0.3035
vn -0.5481 0.1151 -0.8284
vn -0.9063 -0.1461 0.3965
vn -0.1568 0.4416 -0.8834
vn -0.0305 0.0027 0.9995
vn -0.3088 0.9427 -0.1262
vn 0.3149 -0.9382 0.1434
vn 0.0904 0.0017 0.9959
vn -0.3026 0.9431 0.1376
vn 0.4039 -0.9136 -0.0456
vn 0.2052 -0.3800 -0.9020
vn 0.0305 0.0027 -0.9995
vn 0.1568 0.4416 0.8834
vn 0.3088 0.9427 0.1262
vn -0.3149 -0.9382 -0.1434
vn -0.2052 -0.3800 0.9020
vn 0.3026 0.9431 -0.1376
vn -0.0904 0.0017 -0.9959
vn -0.4039 -0.9136 0.0456
vn 0.0592 0.3889 0.9194
vn -0.6249 -0.7605 -0.1764
vn 0.9459 0.0081 -0.3244
vn 0.3244 0.0080 -0.9459
vn 0.0425 0.1515 0.9875
vn 0.2272 -0.3519 -0.9080
vn 0.6249 -0.7605 0.1764
vn -0.2637 -0.2086 0.9418
vn 0.3260 0.5294 -0.7832
vn 0.1953 -0.0007 0.9807
vn -0.0592 0.3889 -0.9194
vn -0.5865 -0.7648 0.2669
vn -0.0425 0.1515 -0.9875
vn 0.6631 0.6804 0.3120
vn -0.8870 -0.2237 0.4039
vn 0.8870 -0.2237 -0.4040
vn -0.9458 -0.0157 0.3244
vn 0.9458 -0.0157 -0.3244
vn 0.3059 -0.9115 0.2750
vn -0.3060 -0.9115 -0.2750
vn -0.9425 0.0848 -0.3232
vn 0.9425 0.0848 0.3232
vn 0.9454 0.0320 0.3242
vn 0.8846 0.2362 0.4022
vn -0.8830 0.3703 0.2882
vn -0.8510 -0.3548 0.3872
vn 0.9561 -0.0016 0.2930
vn -0.9569 -0.0000 0.2906
vn 0.8737 0.4063 0.2674
vn -0.8752 0.4042 0.2658
vn -0.9501 0.0080 0.3117
vn -0.9454 0.0320 -0.3242
vn -0.8846 0.2362 -0.4022
vn 0.8830 0.3703 -0.2882
vn 0.8510 -0.3548 -0.3872
vn -0.9561 -0.0016 -0.2930
vn 0.9569 -0.0000 -0.2905
vn -0.8737 0.4063 -0.2674
vn 0.8752 0.4042 -0.2658
vn 0.9501 0.0080 -0.3117
vn 0.7938 -0.5381 0.2834
vn -0.4189 -0.2840 0.8625
vn 0.4087 -0.0353 -0.9120
vn 0.4411 0.0627 0.8952
vn -0.4721 -0.0309 -0.8810
vn 0.9122 -0.0618 0.4051
vn -0.3523 0.0304 0.9354
vn 0.9183 -0.0602 -0.3912
vn 0.4189 -0.2840 -0.8625
vn -0.9122 -0.0618 -0.4051
vn -0.4087 -0.0353 0.9120
vn 0.8389 0.4700 -0.2747
vn -0.5275 0.8359 0.1517
vn -0.3260 0.5294 0.7832
vn 0.5275 0.8359 -0.1517
vn -0.2272 -0.3519 0.9080
vn 0.6419 0.7665 -0.0221
vn 0.9270 -0.3612 0.1006
vn -0.6419 0.7665 0.0221
vn -0.4884 0.8498 -0.1981
vn -0.5911 -0.7661 -0.2522
vn -0.6631 0.6804 -0.3120
vn 0.5911 -0.7661 0.2522
vn 0.5865 -0.7648 -0.2669
vn -0.9270 -0.3612 -0.1006
vn -0.1953 -0.0007 -0.9807
vn 0.4884 0.8498 0.1981
vn 0.2637 -0.2086 -0.9418
vn -0.3993 0.0760 0.9137
vn 0.4671 -0.0985 -0.8787
vn 0.4314 0.0879 0.8979
vn 0.3993 0.0760 -0.9137
vn -0.9165 0.1906 0.3518
vn -0.4314 0.0879 -0.8979
vn 0.9061 -0.1479 0.3965
vn 0.9165 0.1906 -0.3518
vn 0.3523 0.0304 -0.9354
vn 0.8915 0.1213 0.4365
vn -0.4411 0.0627 -0.8952
vn -0.9183 -0.0602 0.3912
vn 0.8785 0.1250 -0.4610
vn 0.4721 -0.0309 0.8810
vn -0.8785 0.1250 0.4610
vn -0.8915 0.1213 -0.4365
vn 0.8727 -0.1526 -0.4639
vn -0.4018 -0.0755 -0.9126
vn -0.4671 -0.0985 0.8787
vn -0.8727 -0.1526 0.4639
vn 0.4018 -0.0755 0.9126
vn -0.8967 0.1937 -0.3981
vn -0.9061 -0.1479 -0.3965
vn 0.8967 0.1937 0.3981
vn 0.4721 -0.0812 -0.8778
vn 0.9063 -0.1461 0.3966
vn 0.4368 0.0760 0.8963
vn -0.5499 -0.1055 -0.8285
vn -0.7938 -0.5381 -0.2834
vn 0.8161 -0.5290 -0.2327
vn -0.8161 -0.5290 0.2327
vn -0.8533 0.4623 -0.2410
vn -0.8389 0.4700 0.2747
vn 0.5025 0.2723 -0.8206
vn 0.8533 0.4623 0.2410
vn -0.5025 0.2723 0.8206
vn 0.4922 -0.3002 0.8171
vn -0.4922 -0.3002 -0.8171
vn -0.5481 0.1151 0.8284
vn -0.4721 -0.0812 0.8778
vn 0.5499 -0.1055 0.8285
vn 0.9319 0.1985 0.3035
vn 0.1395 0.4617 0.8760
vn 0.3926 -0.3646 0.8444
vn -0.4265 0.2601 -0.8663
vn 0.4265 0.2601 0.8663
vn -0.3926 -0.3646 -0.8444
vn -0.1395 0.4617 -0.8760
vn -0.3244 0.0081 0.9459
vn 0.9317 -0.1404 -0.3350
vn -0.9063 -0.1461 -0.3965
vn -0.9319 0.1985 -0.3035
vn -0.9143 0.2021 0.3510
vn 0.5481 0.1151 -0.8284
vn 0.9143 0.2021 -0.3510
vn -0.4368 0.0760 -0.8963
vn -0.9317 -0.1404 0.3350
vn 0.0904 0.0017 -0.9959
vn 0.2052 -0.3800 0.9020
vn -0.3026 0.9431 -0.1376
vn 0.4039 -0.9136 0.0456
vn -0.1568 0.4416 0.8834
vn -0.3088 0.9427 0.1262
vn 0.3149 -0.9382 -0.1434
vn -0.0305 0.0027 -0.9995
vn -0.2052 -0.3800 -0.9020
vn -0.0904 0.0017 0.9959
vn 0.3026 0.9431 0.1376
vn -0.4039 -0.9136 -0.0456
vn 0.0305 0.0027 0.9995
vn 0.3088 0.9427 -0.1262
vn 0.1568 0.4416 -0.8834
vn -0.3149 -0.9382 0.1434
vt 0.063132 0.896777
vt 0.064903 0.889945
vt 0.066440 0.897614
vt 0.055500 0.899871
vt 0.059906 0.892123
vt 0.061072 0.899527
vt 0.064246 0.906651
vt 0.067752 0.896116
vt 0.069459 0.905300
vt 0.057730 0.898265
vt 0.061638 0.892078
vt 0.062776 0.898210
vt 0.307302 0.136534
vt 0.306653 0.135084
vt 0.307578 0.135288
vt 0.055355 0.892404
vt 0.057196 0.884450
vt 0.057518 0.892122
vt 0.059298 0.885847
vt 0.305930 0.140682
vt 0.304717 0.141304
vt 0.304626 0.140762
vt 0.053749 0.906651
vt 0.059236 0.898323
vt 0.059032 0.908001
vt 0.055817 0.895940
vt 0.059501 0.888578
vt 0.059824 0.895940
vt 0.308595 0.140389
vt 0.309046 0.141873
vt 0.308219 0.141625
vt 0.061553 0.897336
vt 0.052872 0.901206
vt 0.052157 0.898890
vt 0.061553 0.905903
vt 0.051441 0.905905
vt 0.052157 0.903556
vt 0.306818 0.139890
vt 0.305693 0.140321
vt 0.305637 0.139903
vt 0.052840 0.892078
vt 0.052003 0.898210
vt 0.049704 0.892123
vt 0.048581 0.899527
vt 0.048721 0.905942
vt 0.055415 0.903625
vt 0.054920 0.906250
vt 0.052431 0.903705
vt 0.057759 0.901407
vt 0.057562 0.903753
vt 0.055683 0.899920
vt 0.059378 0.903471
vt 0.055788 0.903471
vt 0.051229 0.898105
vt 0.055473 0.893646
vt 0.055163 0.898572
vt 0.062083 0.903705
vt 0.054877 0.887898
vt 0.061175 0.885809
vt 0.058324 0.889727
vt 0.059911 0.905942
vt 0.063245 0.900785
vt 0.065304 0.904971
vt 0.062341 0.904221
vt 0.048262 0.903270
vt 0.051838 0.901351
vt 0.059825 0.899920
vt 0.053450 0.910938
vt 0.058911 0.912334
vt 0.062975 0.901351
vt 0.064300 0.910938
vt 0.069690 0.909541
vt 0.061176 0.903270
vt 0.066664 0.901651
vt 0.313867 0.114431
vt 0.308449 0.115794
vt 0.309485 0.114481
vt 0.305889 0.112866
vt 0.303079 0.114281
vt 0.303710 0.112799
vt 0.306543 0.106315
vt 0.306630 0.103197
vt 0.308014 0.104292
vt 0.310892 0.111763
vt 0.308867 0.113683
vt 0.308390 0.112315
vt 0.054506 0.885847
vt 0.057054 0.885871
vt 0.051639 0.884450
vt 0.054717 0.884603
vt 0.063494 0.897220
vt 0.059393 0.886564
vt 0.061712 0.885963
vt 0.054922 0.897220
vt 0.054693 0.885362
vt 0.057043 0.885963
vt 0.321668 0.197386
vt 0.328212 0.195305
vt 0.322086 0.198640
vt 0.320350 0.173291
vt 0.319109 0.173973
vt 0.319109 0.173337
vt 0.309119 0.114970
vt 0.312454 0.115577
vt 0.309371 0.116257
vt 0.300169 0.110964
vt 0.301567 0.104698
vt 0.301567 0.110956
vt 0.306222 0.111399
vt 0.304613 0.108841
vt 0.306382 0.108857
vt 0.315102 0.110564
vt 0.311959 0.113000
vt 0.304415 0.111984
vt 0.309485 0.102270
vt 0.313867 0.100635
vt 0.313867 0.102220
vt 0.311118 0.140299
vt 0.311886 0.137521
vt 0.311886 0.140176
vt 0.311554 0.140021
vt 0.312627 0.141968
vt 0.311840 0.142583
vt 0.311384 0.136101
vt 0.310146 0.138289
vt 0.309244 0.138087
vt 0.308805 0.141314
vt 0.308192 0.140391
vt 0.309038 0.140702
vt 0.301044 0.110415
vt 0.302429 0.104082
vt 0.302429 0.110407
vt 0.306133 0.087757
vt 0.304226 0.086393
vt 0.306221 0.087126
vt 0.301679 0.116468
vt 0.300281 0.116484
vt 0.302995 0.115474
vt 0.301611 0.115489
vt 0.307698 0.139032
vt 0.308627 0.139872
vt 0.311942 0.136622
vt 0.311067 0.138547
vt 0.309289 0.140115
vt 0.312387 0.139818
vt 0.313094 0.137490
vt 0.313094 0.139588
vt 0.309349 0.139675
vt 0.310234 0.139621
vt 0.310863 0.141523
vt 0.309884 0.141013
vt 0.310765 0.140878
vt 0.310419 0.142503
vt 0.310322 0.140954
vt 0.311132 0.141993
vt 0.312387 0.137134
vt 0.305867 0.104800
vt 0.302960 0.103034
vt 0.305867 0.102741
vt 0.312188 0.106857
vt 0.307343 0.109915
vt 0.308656 0.107120
vt 0.314356 0.103444
vt 0.314598 0.106821
vt 0.313272 0.105150
vt 0.305867 0.100682
vt 0.304664 0.097117
vt 0.306951 0.098976
vt 0.312336 0.139504
vt 0.311326 0.140147
vt 0.311866 0.139178
vt 0.311136 0.139589
vt 0.309950 0.140357
vt 0.310638 0.140252
vt 0.311205 0.140630
vt 0.311838 0.141443
vt 0.299442 0.103548
vt 0.300698 0.106144
vt 0.299072 0.106293
vt 0.309910 0.097202
vt 0.307969 0.094103
vt 0.309116 0.094140
vt 0.298702 0.097083
vt 0.300698 0.100166
vt 0.299072 0.100315
vt 0.304841 0.109072
vt 0.303167 0.102614
vt 0.304902 0.102624
vt 0.314356 0.099326
vt 0.311918 0.094022
vt 0.316301 0.097668
vt 0.302960 0.106270
vt 0.308035 0.097270
vt 0.311567 0.097007
vt 0.316301 0.100903
vt 0.314356 0.101385
vt 0.310354 0.141426
vt 0.312003 0.141993
vt 0.310354 0.142664
vt 0.312286 0.139221
vt 0.310354 0.140188
vt 0.310354 0.138950
vt 0.308421 0.139311
vt 0.308138 0.140240
vt 0.308704 0.142070
vt 0.308421 0.141155
vt 0.302783 0.108767
vt 0.301391 0.102177
vt 0.303106 0.102257
vt 0.308323 0.103407
vt 0.307969 0.100267
vt 0.309116 0.100305
vt 0.303106 0.096934
vt 0.304841 0.096943
vt 0.301068 0.096934
vt 0.302783 0.097014
vt 0.310176 0.136689
vt 0.312014 0.136958
vt 0.310459 0.137604
vt 0.306876 0.136766
vt 0.308749 0.134408
vt 0.308526 0.136095
vt 0.305900 0.134645
vt 0.307584 0.134908
vt 0.306137 0.135562
vt 0.310176 0.140377
vt 0.308749 0.142776
vt 0.308526 0.141048
vt 0.310742 0.138520
vt 0.312014 0.140074
vt 0.310459 0.139448
vt 0.306375 0.136478
vt 0.307584 0.138025
vt 0.306137 0.137407
vt 0.311536 0.135412
vt 0.306876 0.140454
vt 0.305961 0.141773
vt 0.306262 0.141209
vt 0.304756 0.141730
vt 0.309995 0.200278
vt 0.303258 0.198226
vt 0.304752 0.196651
vt 0.315336 0.149526
vt 0.315028 0.150849
vt 0.313941 0.150821
vt 0.308600 0.137521
vt 0.309571 0.138873
vt 0.309046 0.138965
vt 0.308014 0.138952
vt 0.306748 0.137993
vt 0.307658 0.137743
vt 0.307842 0.137952
vt 0.308219 0.139171
vt 0.304297 0.139890
vt 0.304105 0.140306
vt 0.303007 0.140682
vt 0.302799 0.141209
vt 0.306889 0.154914
vt 0.304386 0.156115
vt 0.304366 0.155085
vt 0.316093 0.115008
vt 0.313700 0.116567
vt 0.313525 0.114662
vt 0.314679 0.109070
vt 0.310045 0.110889
vt 0.310054 0.109120
vt 0.307096 0.112400
vt 0.300656 0.114178
vt 0.300754 0.112085
vt 0.307170 0.139426
vt 0.306128 0.138118
vt 0.305720 0.140661
vt 0.304009 0.140645
vt 0.302688 0.141628
vt 0.307092 0.140306
vt 0.309774 0.139668
vt 0.308850 0.138328
vt 0.310374 0.139409
vt 0.308052 0.140817
vt 0.309267 0.142063
vt 0.307440 0.141345
vt 0.307092 0.140163
vt 0.307778 0.139884
vt 0.307928 0.137030
vt 0.309055 0.135617
vt 0.309327 0.136298
vt 0.329224 0.196528
vt 0.321862 0.201049
vt 0.312203 0.112085
vt 0.306998 0.114493
vt 0.312699 0.106052
vt 0.309061 0.101317
vt 0.311305 0.101317
vt 0.304795 0.110840
vt 0.304804 0.109070
vt 0.307345 0.108737
vt 0.304456 0.102735
vt 0.305578 0.102735
vt 0.312295 0.082248
vt 0.314611 0.092697
vt 0.312935 0.092618
vt 0.309545 0.106008
vt 0.307224 0.099761
vt 0.308814 0.099615
vt 0.303811 0.096733
vt 0.304056 0.090548
vt 0.305179 0.090548
vt 0.308943 0.142654
vt 0.307436 0.143412
vt 0.307455 0.142826
vt 0.310403 0.140429
vt 0.309797 0.140473
vt 0.307503 0.138952
vt 0.307013 0.137763
vt 0.307716 0.137991
vt 0.309819 0.141278
vt 0.309877 0.142322
vt 0.309381 0.141966
vt 0.314217 0.103176
vt 0.309174 0.099102
vt 0.315526 0.098630
vt 0.305276 0.108941
vt 0.312908 0.107722
vt 0.311600 0.112268
vt 0.318592 0.113274
vt 0.320541 0.110205
vt 0.320541 0.102801
vt 0.320541 0.106503
vt 0.312281 0.103641
vt 0.313856 0.116405
vt 0.312160 0.116396
vt 0.313972 0.105575
vt 0.312295 0.105496
vt 0.312160 0.092405
vt 0.313977 0.103650
vt 0.308082 0.116869
vt 0.307224 0.111585
vt 0.308814 0.111439
vt 0.063341 0.907248
vt 0.061057 0.906670
vt 0.061175 0.909469
vt 0.058752 0.902534
vt 0.063627 0.907137
vt 0.063627 0.888896
vt 0.061429 0.891917
vt 0.048124 0.905401
vt 0.053237 0.906091
vt 0.050096 0.907579
vt 0.059231 0.894938
vt 0.058992 0.898736
vt 0.058772 0.906091
vt 0.056005 0.906091
vt 0.053325 0.905165
vt 0.057281 0.905203
vt 0.049517 0.907502
vt 0.054296 0.907740
vt 0.307225 0.102171
vt 0.309321 0.143194
vt 0.306492 0.093367
vt 0.308082 0.093221
vt 0.302689 0.096733
vt 0.312509 0.159487
vt 0.313337 0.161015
vt 0.311936 0.159955
vt 0.307935 0.114662
vt 0.305087 0.116913
vt 0.304913 0.115008
vt 0.306744 0.138981
vt 0.309625 0.201523
vt 0.302021 0.199464
vt 0.306326 0.136561
vt 0.308600 0.143338
vt 0.309571 0.142007
vt 0.309090 0.143586
vt 0.311536 0.141642
vt 0.307986 0.136456
vt 0.312286 0.141065
vt 0.316301 0.104139
vt 0.301068 0.103398
vt 0.307175 0.091041
vt 0.308323 0.091078
vt 0.311645 0.140743
vt 0.306367 0.094435
vt 0.311912 0.141362
vt 0.309454 0.141263
vt 0.309049 0.199483
vt 0.315534 0.197003
vt 0.309484 0.200763
vt 0.310208 0.088172
vt 0.312365 0.087222
vt 0.312286 0.087853
vt 0.064032 0.885362
vt 0.305774 0.114365
vt 0.308449 0.100696
vt 0.051810 0.895940
vt 0.051540 0.899920
vt 0.052198 0.903471
vt 0.062867 0.901589
vt 0.307842 0.142861
vt 0.052956 0.888578
vt 0.307956 0.106154
vt 0.316642 0.116342
vt 0.305276 0.112643
vt 0.310291 0.116815
vt 0.307283 0.136545
vt 0.310432 0.141450
vt 0.305424 0.084363
vt 0.306546 0.084363
vt 0.313308 0.200403
vt 0.312873 0.193759
vt 0.314355 0.193553
vt 0.310990 0.091702
vt 0.309824 0.086822
vt 0.312068 0.086822
vt 0.309492 0.140409
vt 0.318376 0.193933
vt 0.310719 0.191734
vt 0.312286 0.189771
vt 0.306979 0.133608
vt 0.306025 0.134983
vt 0.306377 0.133392
vt 0.305900 0.138336
vt 0.307183 0.139594
vt 0.312492 0.138505
vt 0.308762 0.097165
vt 0.308704 0.138383
vt 0.312003 0.138306
vt 0.310354 0.137712
vt 0.300328 0.108889
vt 0.298702 0.109038
vt 0.312470 0.142255
vt 0.311942 0.143033
vt 0.312894 0.109502
vt 0.302960 0.099798
vt 0.311384 0.143742
vt 0.308944 0.194572
vt 0.311070 0.185891
vt 0.313338 0.195990
vt 0.309813 0.141684
vt 0.304811 0.105698
vt 0.303340 0.115568
vt 0.300914 0.116771
vt 0.300649 0.115485
vt 0.301530 0.112732
vt 0.300384 0.114198
vt 0.048467 0.905300
vt 0.047989 0.909541
vt 0.054852 0.903498
vt 0.051441 0.896573
vt 0.060238 0.893084
vt 0.050609 0.896116
vt 0.307853 0.134042
vt 0.307759 0.114599
vt 0.306892 0.088355
vt 0.308046 0.089123
vt 0.306045 0.088389
vt 0.308009 0.115873
vt 0.306288 0.116937
vt 0.306123 0.116355
vt 0.306978 0.087730
vt 0.308216 0.087858
vt 0.308166 0.088271
vt 0.305102 0.137921
vt 0.305347 0.137141
vt 0.305198 0.138250
vt 0.306412 0.137531
vt 0.312792 0.116068
vt 0.311133 0.116221
vt 0.311137 0.115763
vt 0.320988 0.099144
vt 0.317865 0.098539
vt 0.317841 0.097913
vt 0.309335 0.088603
vt 0.308082 0.088898
vt 0.309417 0.087978
vt 0.310291 0.087540
vt 0.305346 0.137135
vt 0.305198 0.135836
vt 0.309081 0.116068
vt 0.308110 0.116567
vt 0.309107 0.099722
vt 0.308943 0.114564
vt 0.305988 0.137598
vt 0.309357 0.141404
vt 0.307884 0.115236
vt 0.309376 0.088291
vt 0.304294 0.114958
vt 0.305868 0.115083
vt 0.304551 0.116231
vt 0.303601 0.116854
vt 0.306354 0.136559
vt 0.314609 0.099144
vt 0.313012 0.099936
vt 0.308897 0.093340
vt 0.310665 0.093339
vt 0.309357 0.139441
vt 0.309717 0.139397
vt 0.306347 0.135568
vt 0.306935 0.088042
vt 0.304423 0.115594
vt 0.306756 0.156760
vt 0.304410 0.162442
vt 0.305972 0.162846
vt 0.304930 0.166780
vt 0.304106 0.166629
vt 0.316470 0.198125
vt 0.317230 0.187429
vt 0.318315 0.186366
vt 0.326466 0.193703
vt 0.329872 0.185959
vt 0.309228 0.193134
vt 0.309015 0.181044
vt 0.301162 0.199498
vt 0.300346 0.188014
vt 0.301701 0.188911
vt 0.303107 0.189294
vt 0.304482 0.197562
vt 0.304030 0.189128
vt 0.305566 0.189815
vt 0.312648 0.155317
vt 0.311831 0.155256
vt 0.314769 0.182988
vt 0.315565 0.193759
vt 0.331024 0.185040
vt 0.308427 0.166218
vt 0.306339 0.169957
vt 0.306816 0.165712
vt 0.307450 0.181324
vt 0.305017 0.184108
vt 0.304920 0.180426
vt 0.325127 0.158357
vt 0.325885 0.159812
vt 0.324516 0.158749
vt 0.308648 0.163936
vt 0.306980 0.163249
vt 0.307250 0.161794
vt 0.307036 0.162976
vt 0.306802 0.185891
vt 0.308955 0.186711
vt 0.301869 0.154806
vt 0.301951 0.156657
vt 0.303911 0.189554
vt 0.301869 0.181091
vt 0.304022 0.182052
vt 0.309822 0.184107
vt 0.307434 0.184703
vt 0.315723 0.200848
vt 0.306134 0.181091
vt 0.308284 0.190910
vt 0.323089 0.174361
vt 0.325304 0.161796
vt 0.327681 0.176156
vt 0.320676 0.161796
vt 0.323019 0.160961
vt 0.317931 0.173296
vt 0.317872 0.174102
vt 0.317982 0.195405
vt 0.310087 0.166045
vt 0.309251 0.203222
vt 0.328694 0.174683
vt 0.329804 0.174139
vt 0.311650 0.168215
vt 0.310474 0.181343
vt 0.303007 0.177670
vt 0.316096 0.176017
vt 0.317133 0.175332
vt 0.312077 0.182988
vt 0.312152 0.173806
vt 0.313565 0.182773
vt 0.307401 0.179985
vt 0.310539 0.168031
vt 0.327272 0.186232
vt 0.327346 0.174932
vt 0.328195 0.186321
vt 0.306764 0.180107
vt 0.309186 0.177465
vt 0.311300 0.176589
vt 0.313701 0.195350
vt 0.319433 0.200673
vt 0.319865 0.195163
vt 0.320582 0.200509
vt 0.314373 0.187541
vt 0.315460 0.187771
vt 0.305398 0.186539
vt 0.302591 0.175078
vt 0.304905 0.174298
vt 0.314659 0.176234
vt 0.304097 0.177940
vt 0.318201 0.186333
vt 0.319408 0.186167
vt 0.313399 0.173998
vt 0.320387 0.186329
vt 0.320762 0.195336
vt 0.307182 0.189449
vt 0.308404 0.179809
vt 0.306772 0.163234
vt 0.301680 0.177147
vt 0.303042 0.166460
vt 0.314013 0.164889
vt 0.320188 0.174097
vt 0.318932 0.177353
vt 0.301967 0.163131
vt 0.317676 0.177512
vt 0.309645 0.189565
vt 0.307259 0.190257
vt 0.304840 0.189565
vt 0.314334 0.160710
vt 0.315165 0.164799
vt 0.309610 0.170290
vt 0.307945 0.170517
vt 0.326960 0.159643
vt 0.327722 0.163607
vt 0.326654 0.163739
vt 0.324576 0.159923
vt 0.311943 0.161094
vt 0.306527 0.161413
vt 0.304667 0.162698
vt 0.323787 0.159112
vt 0.312371 0.150616
vt 0.310532 0.155019
vt 0.310126 0.088804
vt 0.312207 0.088485
vt 0.311163 0.160310
vt 0.314474 0.149072
vt 0.299660 0.110422
vt 0.300227 0.115503
vt 0.298771 0.110972
vt 0.298883 0.116501
vt 0.304135 0.087024
vt 0.301044 0.104080
vt 0.300169 0.104697
vt 0.312207 0.114289
vt 0.319992 0.177507
vt 0.310751 0.165008
vt 0.310656 0.173998
vt 0.309247 0.165178
vt 0.305193 0.179482
vt 0.308951 0.167399
vt 0.318278 0.147321
vt 0.321719 0.157563
vt 0.321668 0.158186
vt 0.307410 0.175565
vt 0.309937 0.180426
vt 0.304452 0.152166
vt 0.301891 0.151101
vt 0.321771 0.156940
vt 0.304771 0.174502
vt 0.318327 0.148035
vt 0.315958 0.149891
vt 0.309103 0.158829
vt 0.309049 0.159465
vt 0.309903 0.159998
vt 0.308973 0.160292
vt 0.310394 0.163597
vt 0.319365 0.172313
vt 0.318239 0.172108
vt 0.309949 0.160619
vt 0.307852 0.162165
vt 0.307241 0.159502
vt 0.309158 0.158193
vt 0.062202 0.889261
vt 0.056228 0.888578
vt 0.060238 0.910216
vt 0.051588 0.892421
vt 0.058167 0.883376
vt 0.313867 0.115732
vt 0.313434 0.109792
vt 0.311118 0.137134
vt 0.307796 0.140944
vt 0.308242 0.138809
vt 0.312470 0.137245
vt 0.311554 0.136822
vt 0.300328 0.096934
vt 0.303106 0.109063
vt 0.312569 0.140136
vt 0.301068 0.108687
vt 0.307175 0.103369
vt 0.305961 0.135542
vt 0.307183 0.133359
vt 0.306421 0.141628
vt 0.309090 0.137318
vt 0.316268 0.116913
vt 0.314669 0.110840
vt 0.306582 0.139661
vt 0.307228 0.140645
vt 0.308571 0.138815
vt 0.309494 0.141383
vt 0.312105 0.114178
vt 0.310455 0.106052
vt 0.306223 0.108737
vt 0.313972 0.082326
vt 0.305276 0.105239
vt 0.313856 0.092414
vt 0.306492 0.117015
vt 0.309823 0.203924
vt 0.310309 0.200848
vt 0.308745 0.091702
vt 0.050871 0.903790
vt 0.322622 0.099936
vt 0.305102 0.136292
vt 0.310875 0.099723
vt 0.309717 0.141478
vt 0.312655 0.114564
vt 0.305919 0.135517
vt 0.299462 0.188049
vt 0.302944 0.196896
vt 0.304546 0.195990
vt 0.299499 0.190910
vt 0.318374 0.176156
vt 0.318193 0.198168
vt 0.326493 0.174829
vt 0.307032 0.176589
vt 0.318707 0.195340
vt 0.312660 0.195123
vt 0.303212 0.187422
vt 0.307125 0.175175
vt 0.315920 0.164483
vt 0.328554 0.163417
vt 0.304044 0.087655
vt 0.299660 0.104078
vt 0.298771 0.104696
vt 0.312041 0.165178
vt 0.309998 0.174502
vt 0.307125 0.151213
vt 0.318376 0.148750
vt 0.310798 0.159864
vt 0.309995 0.161240
vt 0.320762 0.172103
s 0
g lantern_Material
usemtl Material
f 192/1/1 4/2/1 28/3/1
f 34/4/2 8/5/2 29/6/2
f 154/7/3 6/8/3 30/9/3
f 33/10/4 2/11/4 27/12/4
f 11/13/5 247/14/5 186/15/5
f 14/16/6 38/17/6 8/5/6
f 16/18/7 35/19/7 2/11/7
f 7/20/8 105/21/8 13/22/8
f 191/23/9 12/24/9 31/25/9
f 153/26/10 10/27/10 32/28/10
f 9/29/11 241/30/11 147/31/11
f 185/32/12 39/33/12 193/34/12
f 149/35/13 35/36/13 156/37/13
f 1/38/14 106/39/14 15/40/14
f 6/41/15 33/10/15 30/42/15
f 4/43/16 34/4/16 28/44/16
f 131/45/17 26/46/17 145/47/17
f 141/48/18 25/49/18 144/50/18
f 151/51/19 143/52/19 184/53/19
f 189/54/20 142/55/20 222/56/20
f 25/49/21 146/57/21 144/50/21
f 152/58/22 141/59/22 183/60/22
f 26/46/23 140/61/23 145/47/23
f 190/62/24 131/63/24 221/64/24
f 28/44/25 26/46/25 20/65/25
f 30/42/26 25/49/26 22/66/26
f 151/51/27 32/28/27 24/67/27
f 189/68/28 31/25/28 23/69/28
f 25/49/29 27/12/29 19/70/29
f 152/71/30 30/9/30 22/72/30
f 26/46/31 29/6/31 21/73/31
f 190/62/32 28/3/32 20/74/32
f 36/75/33 49/76/33 41/77/33
f 39/78/34 245/79/34 193/80/34
f 40/81/35 239/82/35 155/83/35
f 35/84/36 223/85/36 156/86/36
f 16/18/37 37/87/37 42/88/37
f 14/16/38 36/89/38 41/90/38
f 148/91/39 40/92/39 155/93/39
f 188/94/40 38/95/40 194/96/40
f 172/97/41 262/98/41 174/99/41
f 352/100/42 253/101/42 353/102/42
f 327/103/43 43/104/43 227/105/43
f 322/106/44 53/107/44 58/108/44
f 38/109/45 225/110/45 194/111/45
f 35/84/46 50/112/46 17/113/46
f 38/109/47 49/76/47 46/114/47
f 37/115/48 50/116/48 42/117/48
f 58/118/49 60/119/49 65/120/49
f 57/121/50 61/122/50 54/123/50
f 58/124/51 51/125/51 43/126/51
f 229/127/52 61/128/52 200/129/52
f 325/130/53 52/131/53 57/132/53
f 329/133/54 54/134/54 229/135/54
f 322/106/55 43/136/55 321/137/55
f 325/130/56 54/138/56 326/139/56
f 64/140/57 70/141/57 61/128/57
f 65/142/58 67/143/58 51/125/58
f 200/129/59 70/141/59 202/144/59
f 64/145/60 68/146/60 73/147/60
f 227/148/61 51/125/61 162/149/61
f 240/150/62 63/151/62 161/152/62
f 246/153/63 62/154/63 199/155/63
f 57/121/64 59/156/64 64/145/64
f 70/157/65 204/158/65 202/159/65
f 68/160/66 81/161/66 73/162/66
f 71/163/67 203/164/67 201/165/67
f 72/166/68 165/167/68 163/168/68
f 65/169/69 69/170/69 74/171/69
f 162/149/70 67/143/70 164/172/70
f 161/152/71 72/173/71 163/174/71
f 199/155/72 71/175/72 201/176/72
f 79/177/73 205/178/73 203/179/73
f 80/180/74 167/181/74 165/182/74
f 66/183/75 168/184/75 166/185/75
f 77/186/76 97/187/76 82/188/76
f 67/189/77 82/190/77 66/191/77
f 70/157/78 81/161/78 78/192/78
f 69/193/79 82/190/79 74/194/79
f 67/189/80 166/195/80 164/196/80
f 169/197/81 75/198/81 89/199/81
f 208/200/81 90/201/81 207/202/81
f 209/203/81 90/201/81 87/204/81
f 169/197/81 84/205/81 170/206/81
f 76/207/82 93/208/82 81/209/82
f 78/210/83 206/211/83 204/212/83
f 82/188/84 98/213/84 66/214/84
f 81/209/85 94/215/85 78/216/85
f 83/217/86 205/218/86 208/219/86
f 85/220/87 93/221/87 88/222/87
f 84/223/88 167/224/88 170/225/88
f 75/226/89 97/227/89 89/228/89
f 86/229/90 168/230/90 171/231/90
f 87/232/91 206/233/91 209/234/91
f 83/217/92 93/221/92 92/235/92
f 84/236/93 97/227/93 96/237/93
f 102/238/94 113/239/94 105/21/94
f 173/240/95 259/241/95 269/242/95
f 350/243/96 276/244/96 338/245/96
f 100/246/97 213/247/97 231/248/97
f 5/249/98 233/250/98 150/251/98
f 3/252/99 231/248/99 187/253/99
f 5/254/100 106/39/100 101/255/100
f 3/256/101 105/21/101 100/257/101
f 343/258/102 252/259/102 344/260/102
f 108/261/73 235/262/73 213/263/73
f 18/264/84 122/265/84 114/266/84
f 113/267/82 116/268/82 108/269/82
f 101/270/103 175/271/103 233/250/103
f 101/255/104 114/272/104 109/273/104
f 100/257/105 113/239/105 108/274/105
f 99/275/106 114/272/106 106/39/106
f 116/276/107 129/277/107 124/278/107
f 117/279/108 130/280/108 125/281/108
f 117/279/109 179/282/109 237/283/109
f 118/284/110 129/285/110 121/286/110
f 174/99/111 275/287/111 176/288/111
f 110/289/85 121/290/85 113/267/85
f 109/291/74 237/292/74 175/293/74
f 114/266/76 117/294/76 109/295/76
f 125/296/74 181/297/74 179/298/74
f 126/299/85 137/300/85 129/301/85
f 127/302/75 180/303/75 178/304/75
f 128/305/83 218/306/83 216/307/83
f 107/308/112 130/309/112 122/310/112
f 116/276/113 217/311/113 235/312/113
f 238/313/114 216/314/114 248/315/114
f 236/316/115 178/317/115 242/318/115
f 182/319/116 133/320/116 138/321/116
f 218/322/116 139/323/116 220/324/116
f 219/325/116 139/323/116 135/326/116
f 182/319/116 123/327/116 180/328/116
f 130/329/76 133/330/76 125/331/76
f 129/301/82 132/332/82 124/333/82
f 115/334/84 138/335/84 130/329/84
f 124/336/73 219/337/73 217/338/73
f 221/64/117 3/339/117 187/340/117
f 145/341/118 7/342/118 13/343/118
f 183/60/119 5/344/119 150/345/119
f 144/346/120 1/347/120 15/348/120
f 222/56/121 11/349/121 186/350/121
f 184/53/122 9/351/122 147/352/122
f 5/353/123 144/50/123 15/354/123
f 3/355/124 145/47/124 13/356/124
f 1/347/122 184/53/122 147/352/122
f 11/349/119 183/60/119 150/345/119
f 139/323/116 180/328/116 135/326/116
f 139/323/116 181/357/116 182/319/116
f 107/308/115 178/317/115 115/358/115
f 178/304/75 123/359/75 115/360/75
f 179/298/74 136/361/74 128/305/74
f 351/362/125 337/363/125 358/364/125
f 244/365/75 107/366/75 18/367/75
f 238/313/109 179/282/109 128/368/109
f 243/369/126 271/370/126 259/241/126
f 11/13/98 233/250/98 234/371/98
f 99/372/127 244/373/127 18/374/127
f 75/226/128 168/230/128 98/375/128
f 87/232/129 167/224/129 95/376/129
f 90/201/81 170/206/81 87/204/81
f 90/201/81 171/377/81 169/197/81
f 71/163/80 166/195/80 79/378/80
f 166/185/75 91/379/75 79/177/75
f 165/182/74 96/380/74 77/381/74
f 161/152/71 69/170/71 60/382/71
f 162/149/70 71/175/70 62/154/70
f 69/193/68 165/167/68 77/383/68
f 240/150/62 60/382/62 53/384/62
f 227/148/61 62/154/61 55/385/61
f 210/386/130 263/387/130 212/388/130
f 328/389/131 53/390/131 323/391/131
f 148/91/39 37/392/39 6/8/39
f 39/78/36 223/85/36 224/393/36
f 37/115/35 239/82/35 45/394/35
f 31/25/30 152/71/30 23/69/30
f 27/395/27 151/51/27 19/396/27
f 142/55/22 152/58/22 183/60/22
f 146/397/19 151/51/19 184/53/19
f 149/35/13 39/33/13 10/398/13
f 1/399/11 241/30/11 99/372/11
f 2/400/10 153/26/10 27/395/10
f 12/24/3 154/7/3 31/25/3
f 7/342/121 222/56/121 186/350/121
f 9/351/117 221/64/117 187/340/117
f 217/338/73 135/401/73 127/302/73
f 132/402/116 220/324/116 219/325/116
f 134/403/116 220/324/116 137/404/116
f 118/284/114 216/314/114 126/405/114
f 236/316/113 217/311/113 127/406/113
f 216/307/83 134/407/83 126/408/83
f 119/409/132 275/410/132 260/411/132
f 250/412/83 118/413/83 110/414/83
f 9/29/99 231/248/99 232/415/99
f 211/416/133 258/417/133 268/418/133
f 102/419/134 250/420/134 110/421/134
f 85/422/135 206/233/135 94/423/135
f 86/229/136 205/218/136 91/424/136
f 204/212/83 95/425/83 80/180/83
f 85/426/81 207/202/81 209/203/81
f 83/427/81 207/202/81 88/428/81
f 203/179/73 92/429/73 76/430/73
f 199/155/72 68/431/72 59/432/72
f 68/160/67 203/164/67 76/433/67
f 72/166/65 204/158/65 80/434/65
f 246/153/63 59/432/63 52/435/63
f 200/129/59 72/173/59 63/151/59
f 103/436/137 274/437/137 172/438/137
f 229/127/52 63/151/52 230/439/52
f 40/81/45 225/110/45 226/440/45
f 330/441/138 52/442/138 324/443/138
f 188/94/40 40/92/40 12/24/40
f 36/444/34 245/79/34 44/445/34
f 32/28/32 190/62/32 24/67/32
f 29/446/28 189/68/28 21/447/28
f 143/52/24 190/62/24 221/64/24
f 140/448/20 189/54/20 222/56/20
f 185/32/12 36/449/12 4/450/12
f 8/451/9 191/23/9 29/446/9
f 7/452/5 247/14/5 102/419/5
f 10/27/1 192/1/1 32/28/1
f 158/453/139 224/393/139 223/85/139
f 196/454/140 226/455/140 225/456/140
f 160/457/141 55/458/141 228/459/141
f 198/460/142 230/461/142 56/462/142
f 211/463/143 232/464/143 231/465/143
f 173/466/144 234/371/144 233/250/144
f 215/467/145 236/468/145 119/469/145
f 177/470/146 238/471/146 120/472/146
f 157/473/147 226/455/147 48/474/147
f 159/475/148 230/461/148 240/476/148
f 103/477/149 241/478/149 232/464/149
f 176/479/150 236/468/150 242/480/150
f 177/481/151 175/293/151 237/292/151
f 176/479/152 244/365/152 174/482/152
f 173/466/153 175/271/153 243/483/153
f 172/484/154 244/373/154 241/30/154
f 158/453/155 327/103/155 331/485/155
f 159/475/156 328/389/156 332/486/156
f 195/487/157 224/393/157 47/488/157
f 197/489/158 55/458/158 246/490/158
f 104/491/159 247/14/159 234/371/159
f 214/492/160 238/471/160 248/493/160
f 215/467/161 213/263/161 235/262/161
f 214/494/162 250/412/162 212/495/162
f 211/496/163 213/247/163 249/497/163
f 210/498/164 250/420/164 247/14/164
f 196/454/165 329/133/165 333/499/165
f 197/489/166 330/441/166 334/500/166
f 264/501/167 111/502/167 252/259/167
f 336/503/168 317/504/168 340/505/168
f 279/506/169 287/507/169 295/508/169
f 274/509/170 286/510/170 262/98/170
f 270/511/171 282/512/171 258/417/171
f 261/513/172 291/514/172 271/370/172
f 269/242/173 283/515/173 289/516/173
f 261/517/174 295/518/174 285/519/174
f 338/245/175 319/520/175 342/521/175
f 260/411/176 290/522/176 270/523/176
f 275/287/177 286/510/177 293/524/177
f 254/525/178 316/526/178 267/527/178
f 347/528/179 266/529/179 348/530/179
f 348/531/180 335/532/180 349/533/180
f 354/534/181 267/527/181 351/535/181
f 357/536/182 272/537/182 336/503/182
f 103/436/183 268/538/183 257/539/183
f 345/540/184 252/259/184 276/541/184
f 104/542/185 269/543/185 255/544/185
f 347/528/186 277/545/186 251/546/186
f 119/409/187 270/523/187 215/547/187
f 104/542/188 278/548/188 210/549/188
f 120/550/189 271/551/189 177/552/189
f 120/550/190 279/553/190 261/554/190
f 355/555/191 253/101/191 272/556/191
f 249/557/192 270/511/192 258/417/192
f 354/534/193 273/558/193 254/525/193
f 212/388/194 279/506/194 214/559/194
f 293/524/195 301/560/195 308/561/195
f 282/512/196 303/562/196 288/563/196
f 291/514/197 298/564/197 283/515/197
f 295/508/198 302/565/198 310/566/198
f 293/567/199 299/568/199 284/569/199
f 290/570/200 297/571/200 282/512/200
f 281/572/201 307/573/201 292/574/201
f 295/518/202 300/575/202 285/519/202
f 268/418/203 282/512/203 288/563/203
f 274/437/204 281/576/204 292/577/204
f 278/578/205 287/507/205 263/387/205
f 260/411/206 293/567/206 284/569/206
f 268/538/207 281/576/207 257/539/207
f 271/370/208 283/515/208 259/241/208
f 269/579/209 112/580/209 255/581/209
f 278/578/210 112/582/210 294/583/210
f 281/584/211 303/585/211 296/586/211
f 287/507/212 309/587/212 302/565/212
f 283/515/213 304/588/213 289/516/213
f 112/580/214 304/589/214 256/590/214
f 286/510/215 307/573/215 301/560/215
f 290/522/216 299/568/216 305/591/216
f 112/580/217 309/592/217 294/593/217
f 291/594/218 300/575/218 306/595/218
f 319/520/219 297/571/219 342/521/219
f 313/596/220 296/586/220 111/502/220
f 340/505/221 306/597/221 318/598/221
f 314/599/222 302/565/222 309/587/222
f 265/600/223 311/601/223 253/101/223
f 276/541/224 111/502/224 319/602/224
f 272/556/225 311/601/225 317/603/225
f 251/546/226 320/604/226 280/605/226
f 251/546/227 315/606/227 266/529/227
f 267/607/228 341/608/228 337/363/228
f 254/525/229 318/609/229 312/610/229
f 266/611/230 339/612/230 335/532/230
f 335/532/231 313/613/231 264/614/231
f 337/363/232 314/599/232 265/615/232
f 339/612/233 308/561/233 301/560/233
f 317/504/234 298/564/234 340/505/234
f 313/613/235 301/560/235 307/573/235
f 312/610/236 306/595/236 300/575/236
f 356/616/237 336/503/237 273/617/237
f 349/533/238 264/614/238 343/618/238
f 277/619/239 342/521/239 320/620/239
f 273/617/240 340/505/240 318/598/240
f 195/487/241 330/441/241 245/79/241
f 198/460/165 329/133/165 229/135/165
f 157/473/242 328/389/242 239/621/242
f 160/457/155 327/103/155 227/105/155
f 245/79/243 324/443/243 44/445/243
f 239/621/131 323/391/131 45/622/131
f 358/364/244 265/615/244 352/623/244
f 346/624/245 338/245/245 277/619/245
f 49/625/56 326/139/56 46/626/56
f 50/627/55 321/137/55 17/628/55
f 225/456/54 326/629/54 329/133/54
f 49/625/246 324/630/246 325/130/246
f 50/627/44 323/631/44 322/106/44
f 223/85/247 321/632/247 327/103/247
f 319/602/248 296/586/248 303/585/248
f 314/633/249 256/590/249 311/601/249
f 280/634/250 305/591/250 299/568/250
f 280/634/251 308/635/251 315/636/251
f 341/608/252 310/566/252 302/565/252
f 312/610/253 310/637/253 316/526/253
f 342/521/254 305/638/254 320/620/254
f 317/603/255 256/590/255 304/589/255
f 197/639/256 350/243/256 346/624/256
f 331/640/257 343/618/257 158/641/257
f 228/642/258 346/643/258 347/528/258
f 47/644/259 345/540/259 195/645/259
f 160/646/260 349/533/260 331/640/260
f 228/642/261 348/530/261 160/647/261
f 47/644/262 343/258/262 344/260/262
f 334/648/263 345/649/263 350/243/263
f 333/650/264 352/623/264 196/651/264
f 159/652/265 357/536/265 356/616/265
f 56/653/266 356/654/266 354/534/266
f 48/655/267 355/555/267 157/656/267
f 332/657/268 355/658/268 357/536/268
f 56/653/269 351/535/269 198/659/269
f 198/660/270 358/364/270 333/650/270
f 48/655/271 352/100/271 353/102/271
f 192/1/1 185/661/1 4/2/1
f 34/4/2 14/16/2 8/5/2
f 154/7/3 148/91/3 6/8/3
f 33/10/4 16/18/4 2/11/4
f 11/13/5 234/371/5 247/14/5
f 14/16/6 41/90/6 38/17/6
f 16/18/7 42/88/7 35/19/7
f 7/20/8 102/238/8 105/21/8
f 191/23/9 188/94/9 12/24/9
f 153/26/10 149/662/10 10/27/10
f 9/29/11 232/415/11 241/30/11
f 185/32/12 10/398/12 39/33/12
f 149/35/13 2/663/13 35/36/13
f 1/38/14 99/275/14 106/39/14
f 6/41/15 16/18/15 33/10/15
f 4/43/16 14/16/16 34/4/16
f 131/45/17 20/65/17 26/46/17
f 141/48/18 22/66/18 25/49/18
f 151/51/19 24/67/19 143/52/19
f 189/54/20 23/664/20 142/55/20
f 25/49/21 19/70/21 146/57/21
f 152/58/22 22/665/22 141/59/22
f 26/46/23 21/73/23 140/61/23
f 190/62/24 20/74/24 131/63/24
f 28/44/25 34/4/25 26/46/25
f 30/42/26 33/10/26 25/49/26
f 151/51/27 153/26/27 32/28/27
f 189/68/28 191/23/28 31/25/28
f 25/49/29 33/10/29 27/12/29
f 152/71/30 154/7/30 30/9/30
f 26/46/31 34/4/31 29/6/31
f 190/62/32 192/1/32 28/3/32
f 36/75/33 44/666/33 49/76/33
f 39/78/34 224/393/34 245/79/34
f 40/81/35 226/440/35 239/82/35
f 35/84/36 17/113/36 223/85/36
f 16/18/37 6/41/37 37/87/37
f 14/16/38 4/43/38 36/89/38
f 148/91/39 12/24/39 40/92/39
f 188/94/40 8/451/40 38/95/40
f 172/97/272 274/509/272 262/98/272
f 352/100/273 265/600/273 253/101/273
f 327/103/43 321/632/43 43/104/43
f 322/106/44 323/631/44 53/107/44
f 38/109/45 46/114/45 225/110/45
f 35/84/46 42/667/46 50/112/46
f 38/109/47 41/77/47 49/76/47
f 37/115/48 45/394/48 50/116/48
f 58/118/49 53/668/49 60/119/49
f 57/121/50 64/145/50 61/122/50
f 58/124/51 65/142/51 51/125/51
f 229/127/52 54/669/52 61/128/52
f 325/130/53 324/630/53 52/131/53
f 329/133/274 326/629/274 54/134/274
f 322/106/55 58/108/55 43/136/55
f 325/130/275 57/132/275 54/138/275
f 64/140/57 73/670/57 70/141/57
f 65/142/58 74/671/58 67/143/58
f 200/129/59 61/128/59 70/141/59
f 64/145/60 59/156/60 68/146/60
f 227/148/61 43/126/61 51/125/61
f 240/150/62 230/439/62 63/151/62
f 246/153/63 55/385/63 62/154/63
f 57/121/64 52/672/64 59/156/64
f 70/157/65 78/192/65 204/158/65
f 68/160/66 76/433/66 81/161/66
f 71/163/67 79/378/67 203/164/67
f 72/166/68 80/434/68 165/167/68
f 65/169/69 60/382/69 69/170/69
f 162/149/70 51/125/70 67/143/70
f 161/152/71 63/151/71 72/173/71
f 199/155/72 62/154/72 71/175/72
f 79/177/73 91/379/73 205/178/73
f 80/180/74 95/425/74 167/181/74
f 66/183/75 98/673/75 168/184/75
f 77/186/76 96/674/76 97/187/76
f 67/189/77 74/194/77 82/190/77
f 70/157/78 73/162/78 81/161/78
f 69/193/79 77/383/79 82/190/79
f 67/189/80 66/191/80 166/195/80
f 169/197/81 171/377/81 75/198/81
f 208/200/81 86/675/81 90/201/81
f 209/203/81 207/202/81 90/201/81
f 169/197/81 89/199/81 84/205/81
f 76/207/82 92/676/82 93/208/82
f 78/210/83 94/677/83 206/211/83
f 82/188/84 97/187/84 98/213/84
f 81/209/85 93/208/85 94/215/85
f 83/217/136 92/235/136 205/218/136
f 85/220/87 94/678/87 93/221/87
f 84/223/129 96/679/129 167/224/129
f 75/226/89 98/375/89 97/227/89
f 86/229/128 91/424/128 168/230/128
f 87/232/135 95/376/135 206/233/135
f 83/217/92 88/222/92 93/221/92
f 84/236/93 89/228/93 97/227/93
f 102/238/94 110/680/94 113/239/94
f 173/240/276 243/369/276 259/241/276
f 350/243/277 345/649/277 276/244/277
f 100/246/97 108/681/97 213/247/97
f 5/249/98 101/270/98 233/250/98
f 3/252/99 100/246/99 231/248/99
f 5/254/100 15/40/100 106/39/100
f 3/256/101 13/22/101 105/21/101
f 343/258/278 264/501/278 252/259/278
f 108/261/73 116/682/73 235/262/73
f 18/264/84 107/683/84 122/265/84
f 113/267/82 121/290/82 116/268/82
f 101/270/103 109/684/103 175/271/103
f 101/255/104 106/39/104 114/272/104
f 100/257/105 105/21/105 113/239/105
f 99/275/106 18/685/106 114/272/106
f 116/276/107 121/686/107 129/277/107
f 117/279/108 122/687/108 130/280/108
f 117/279/109 125/281/109 179/282/109
f 118/284/110 126/405/110 129/285/110
f 174/99/279 262/98/279 275/287/279
f 110/289/85 118/688/85 121/290/85
f 109/291/74 117/689/74 237/292/74
f 114/266/76 122/265/76 117/294/76
f 125/296/74 133/690/74 181/297/74
f 126/299/85 134/691/85 137/300/85
f 127/302/75 135/401/75 180/303/75
f 128/305/83 136/361/83 218/306/83
f 107/308/112 115/358/112 130/309/112
f 116/276/113 124/278/113 217/311/113
f 238/313/114 128/368/114 216/314/114
f 236/316/115 127/406/115 178/317/115
f 182/319/116 181/357/116 133/320/116
f 218/322/116 136/692/116 139/323/116
f 219/325/116 220/324/116 139/323/116
f 182/319/116 138/321/116 123/327/116
f 130/329/76 138/335/76 133/330/76
f 129/301/82 137/300/82 132/332/82
f 115/334/84 123/693/84 138/335/84
f 124/336/73 132/694/73 219/337/73
f 221/64/117 131/63/117 3/339/117
f 145/341/118 140/448/118 7/342/118
f 183/60/119 141/59/119 5/344/119
f 144/346/120 146/397/120 1/347/120
f 222/56/121 142/55/121 11/349/121
f 184/53/122 143/52/122 9/351/122
f 5/353/123 141/48/123 144/50/123
f 3/355/124 131/45/124 145/47/124
f 1/347/122 146/397/122 184/53/122
f 11/349/119 142/55/119 183/60/119
f 139/323/116 182/319/116 180/328/116
f 139/323/116 136/692/116 181/357/116
f 107/308/115 242/318/115 178/317/115
f 178/304/75 180/303/75 123/359/75
f 179/298/74 181/297/74 136/361/74
f 351/362/280 267/607/280 337/363/280
f 244/365/75 242/480/75 107/366/75
f 238/313/109 237/283/109 179/282/109
f 243/369/281 177/695/281 271/370/281
f 11/13/98 150/251/98 233/250/98
f 99/372/127 241/30/127 244/373/127
f 75/226/128 171/231/128 168/230/128
f 87/232/88 170/225/88 167/224/88
f 90/201/81 169/197/81 170/206/81
f 90/201/81 86/675/81 171/377/81
f 71/163/80 164/196/80 166/195/80
f 166/185/75 168/184/75 91/379/75
f 165/182/74 167/181/74 96/380/74
f 161/152/71 163/174/71 69/170/71
f 162/149/70 164/172/70 71/175/70
f 69/193/68 163/168/68 165/167/68
f 240/150/62 161/152/62 60/382/62
f 227/148/61 162/149/61 62/154/61
f 210/386/282 278/578/282 263/387/282
f 328/389/131 240/476/131 53/390/131
f 148/91/39 155/93/39 37/392/39
f 39/78/36 156/86/36 223/85/36
f 37/115/35 155/83/35 239/82/35
f 31/25/30 154/7/30 152/71/30
f 27/395/27 153/26/27 151/51/27
f 142/55/22 23/664/22 152/58/22
f 146/397/19 19/396/19 151/51/19
f 149/35/13 156/37/13 39/33/13
f 1/399/11 147/31/11 241/30/11
f 2/400/10 149/662/10 153/26/10
f 12/24/3 148/91/3 154/7/3
f 7/342/121 140/448/121 222/56/121
f 9/351/117 143/52/117 221/64/117
f 217/338/73 219/337/73 135/401/73
f 132/402/116 137/404/116 220/324/116
f 134/403/116 218/322/116 220/324/116
f 118/284/114 248/315/114 216/314/114
f 236/316/113 235/312/113 217/311/113
f 216/307/83 218/306/83 134/407/83
f 119/409/283 176/696/283 275/410/283
f 250/412/83 248/697/83 118/413/83
f 9/29/99 187/253/99 231/248/99
f 211/416/284 249/557/284 258/417/284
f 102/419/134 247/14/134 250/420/134
f 85/422/91 209/234/91 206/233/91
f 86/229/136 208/219/136 205/218/136
f 204/212/83 206/211/83 95/425/83
f 85/426/81 88/428/81 207/202/81
f 83/427/81 208/200/81 207/202/81
f 203/179/73 205/178/73 92/429/73
f 199/155/72 201/176/72 68/431/72
f 68/160/67 201/165/67 203/164/67
f 72/166/65 202/159/65 204/158/65
f 246/153/63 199/155/63 59/432/63
f 200/129/59 202/144/59 72/173/59
f 103/436/285 257/539/285 274/437/285
f 229/127/52 200/129/52 63/151/52
f 40/81/45 194/111/45 225/110/45
f 330/441/243 246/490/243 52/442/243
f 188/94/40 194/96/40 40/92/40
f 36/444/34 193/80/34 245/79/34
f 32/28/32 192/1/32 190/62/32
f 29/446/28 191/23/28 189/68/28
f 143/52/24 24/67/24 190/62/24
f 140/448/20 21/698/20 189/54/20
f 185/32/12 193/34/12 36/449/12
f 8/451/9 188/94/9 191/23/9
f 7/452/5 186/15/5 247/14/5
f 10/27/1 185/661/1 192/1/1
f 158/453/286 47/488/286 224/393/286
f 196/454/287 48/474/287 226/455/287
f 160/457/288 227/105/288 55/458/288
f 198/460/289 229/135/289 230/461/289
f 211/463/290 103/477/290 232/464/290
f 173/466/291 104/491/291 234/371/291
f 215/467/292 235/262/292 236/468/292
f 177/470/293 237/699/293 238/471/293
f 157/473/294 239/621/294 226/455/294
f 159/475/295 56/462/295 230/461/295
f 103/477/296 172/700/296 241/478/296
f 176/479/297 119/469/297 236/468/297
f 177/481/298 243/701/298 175/293/298
f 176/479/299 242/480/299 244/365/299
f 173/466/300 233/250/300 175/271/300
f 172/484/301 174/702/301 244/373/301
f 158/453/302 223/85/302 327/103/302
f 159/475/156 240/476/156 328/389/156
f 195/487/303 245/79/303 224/393/303
f 197/489/304 228/459/304 55/458/304
f 104/491/305 210/498/305 247/14/305
f 214/492/306 120/472/306 238/471/306
f 215/467/307 249/703/307 213/263/307
f 214/494/308 248/697/308 250/412/308
f 211/496/309 231/248/309 213/247/309
f 210/498/310 212/704/310 250/420/310
f 196/454/311 225/456/311 329/133/311
f 197/489/166 246/490/166 330/441/166
f 264/501/312 313/596/312 111/502/312
f 336/503/313 272/537/313 317/504/313
f 279/506/314 263/387/314 287/507/314
f 274/509/315 292/574/315 286/510/315
f 270/511/316 290/570/316 282/512/316
f 261/513/317 285/705/317 291/514/317
f 269/242/318 259/241/318 283/515/318
f 261/517/319 279/706/319 295/518/319
f 338/245/320 276/244/320 319/520/320
f 260/411/321 284/569/321 290/522/321
f 275/287/322 262/98/322 286/510/322
f 254/525/323 312/610/323 316/526/323
f 347/528/324 251/546/324 266/529/324
f 348/531/325 266/611/325 335/532/325
f 354/534/326 254/525/326 267/527/326
f 357/536/327 355/658/327 272/537/327
f 103/436/328 211/707/328 268/538/328
f 345/540/329 344/260/329 252/259/329
f 104/542/330 173/708/330 269/543/330
f 347/528/331 346/643/331 277/545/331
f 119/409/332 260/411/332 270/523/332
f 104/542/333 255/544/333 278/548/333
f 120/550/334 261/554/334 271/551/334
f 120/550/335 214/709/335 279/553/335
f 355/555/336 353/102/336 253/101/336
f 249/557/337 215/710/337 270/511/337
f 354/534/338 356/654/338 273/558/338
f 212/388/339 263/387/339 279/506/339
f 293/524/340 286/510/340 301/560/340
f 282/512/341 297/571/341 303/562/341
f 291/514/342 306/597/342 298/564/342
f 295/508/343 287/507/343 302/565/343
f 293/567/344 308/635/344 299/568/344
f 290/570/345 305/638/345 297/571/345
f 281/572/346 296/711/346 307/573/346
f 295/518/347 310/637/347 300/575/347
f 268/418/348 258/417/348 282/512/348
f 274/437/349 257/539/349 281/576/349
f 278/578/350 294/583/350 287/507/350
f 260/411/351 275/410/351 293/567/351
f 268/538/352 288/712/352 281/576/352
f 271/370/353 291/514/353 283/515/353
f 269/579/354 289/713/354 112/580/354
f 278/578/355 255/714/355 112/582/355
f 281/584/356 288/715/356 303/585/356
f 287/507/357 294/583/357 309/587/357
f 283/515/358 298/564/358 304/588/358
f 112/580/359 289/713/359 304/589/359
f 286/510/360 292/574/360 307/573/360
f 290/522/361 284/569/361 299/568/361
f 112/580/362 256/590/362 309/592/362
f 291/594/363 285/519/363 300/575/363
f 319/520/364 303/562/364 297/571/364
f 313/596/365 307/716/365 296/586/365
f 340/505/366 298/564/366 306/597/366
f 314/599/367 341/608/367 302/565/367
f 265/600/368 314/633/368 311/601/368
f 276/541/369 252/259/369 111/502/369
f 272/556/370 253/101/370 311/601/370
f 251/546/371 277/545/371 320/604/371
f 251/546/372 280/605/372 315/606/372
f 267/607/373 316/717/373 341/608/373
f 254/525/374 273/558/374 318/609/374
f 266/611/375 315/718/375 339/612/375
f 335/532/376 339/612/376 313/613/376
f 337/363/377 341/608/377 314/599/377
f 339/612/378 315/718/378 308/561/378
f 317/504/379 304/588/379 298/564/379
f 313/613/380 339/612/380 301/560/380
f 312/610/381 318/609/381 306/595/381
f 356/616/382 357/536/382 336/503/382
f 349/533/383 335/532/383 264/614/383
f 277/619/384 338/245/384 342/521/384
f 273/617/385 336/503/385 340/505/385
f 195/487/166 334/500/166 330/441/166
f 198/460/165 333/499/165 329/133/165
f 157/473/156 332/486/156 328/389/156
f 160/457/155 331/485/155 327/103/155
f 245/79/138 330/441/138 324/443/138
f 239/621/131 328/389/131 323/391/131
f 358/364/386 337/363/386 265/615/386
f 346/624/387 350/243/387 338/245/387
f 49/625/56 325/130/56 326/139/56
f 50/627/388 322/106/388 321/137/388
f 225/456/54 46/719/54 326/629/54
f 49/625/53 44/720/53 324/630/53
f 50/627/44 45/721/44 323/631/44
f 223/85/43 17/113/43 321/632/43
f 319/602/389 111/502/389 296/586/389
f 314/633/390 309/592/390 256/590/390
f 280/634/391 320/722/391 305/591/391
f 280/634/392 299/568/392 308/635/392
f 341/608/393 316/717/393 310/566/393
f 312/610/394 300/575/394 310/637/394
f 342/521/395 297/571/395 305/638/395
f 317/603/396 311/601/396 256/590/396
f 197/639/397 334/648/397 350/243/397
f 331/640/398 349/533/398 343/618/398
f 228/642/399 197/723/399 346/643/399
f 47/644/400 344/260/400 345/540/400
f 160/646/401 348/531/401 349/533/401
f 228/642/402 347/528/402 348/530/402
f 47/644/403 158/724/403 343/258/403
f 334/648/404 195/725/404 345/649/404
f 333/650/405 358/364/405 352/623/405
f 159/652/406 332/657/406 357/536/406
f 56/653/407 159/726/407 356/654/407
f 48/655/408 353/102/408 355/555/408
f 332/657/409 157/727/409 355/658/409
f 56/653/410 354/534/410 351/535/410
f 198/660/411 351/362/411 358/364/411
f 48/655/412 196/728/412 352/100/412
g lantern_handle_Mesh
v 0.101510 0.298633 -0.000046
v 0.096927 0.299541 0.006294
v 0.091508 0.300289 0.009090
v 0.088019 0.300742 0.004721
v 0.088019 0.300742 -0.004813
v 0.091508 0.300289 -0.009182
v 0.096927 0.299541 -0.006386
v 0.090172 0.341125 -0.000046
v 0.086086 0.339397 0.006294
v 0.081273 0.337566 0.009090
v 0.078174 0.336050 0.004721
v 0.078174 0.336050 -0.004813
v 0.081273 0.337566 -0.009182
v 0.086086 0.339397 -0.006386
v 0.062023 0.396002 -0.000046
v 0.059169 0.392001 0.006294
v 0.055861 0.387227 0.009090
v 0.053731 0.383795 0.004721
v 0.053731 0.383795 -0.004813
v 0.055861 0.387227 -0.009182
v 0.059169 0.392001 -0.006386
v -0.061756 0.396002 -0.000046
v -0.059192 0.392001 0.006294
v -0.055884 0.387227 0.009090
v -0.053754 0.383795 0.004721
v -0.053754 0.383795 -0.004813
v -0.055884 0.387227 -0.009182
v -0.059192 0.392001 -0.006386
v -0.089905 0.341125 -0.000046
v -0.086109 0.339397 0.006294
v -0.081296 0.337566 0.009090
v -0.078197 0.336050 0.004721
v -0.078197 0.336050 -0.004813
v -0.081296 0.337566 -0.009182
v -0.086109 0.339397 -0.006386
v -0.101243 0.298633 -0.000046
v -0.096951 0.299541 0.006294
v -0.091532 0.300289 0.009090
v -0.088042 0.300742 0.004721
v -0.088042 0.300742 -0.004813
v -0.091532 0.300289 -0.009182
v -0.096951 0.299541 -0.006386
v 0.022462 0.425241 -0.000046
v -0.022195 0.425241 -0.000046
v -0.022060 0.419676 0.007900
v 0.022037 0.419676 0.007900
v -0.021436 0.413270 0.011403
v 0.021412 0.413270 0.011403
v -0.021687 0.408724 0.005928
v 0.021663 0.408724 0.005928
v -0.021687 0.408724 -0.006020
v 0.021663 0.408724 -0.006020
v -0.021436 0.413270 -0.011496
v 0.021412 0.413270 -0.011496
v -0.022060 0.419676 -0.007992
v 0.022037 0.419676 -0.007992
v 0.092148 0.236626 -0.000046
v 0.088467 0.239009 0.005032
v 0.084127 0.241740 0.007271
v 0.081332 0.243460 0.003772
v 0.081332 0.243460 -0.003864
v 0.084127 0.241740 -0.007363
v 0.088467 0.239009 -0.005124
v -0.091756 0.236726 -0.000046
v -0.090582 0.236726 0.005146
v -0.084050 0.241799 0.007214
v -0.081277 0.243505 0.003742
v -0.081277 0.243505 -0.003834
v -0.084050 0.241799 -0.007305
v -0.090582 0.236726 -0.005237
v 0.088059 0.226084 -0.000046
v 0.086935 0.226084 0.004924
v 0.082687 0.226084 0.007115
v 0.079952 0.226084 0.003691
v 0.079952 0.226084 -0.003782
v 0.082687 0.226084 -0.007207
v 0.086935 0.226084 -0.005015
v -0.087699 0.228555 -0.000046
v -0.084476 0.228555 0.004738
v -0.080387 0.228555 0.006848
v -0.077754 0.228555 0.003551
v -0.077754 0.228555 -0.003643
v -0.080387 0.228555 -0.006939
v -0.084476 0.228555 -0.004830
vn 0.8059 0.2150 0.5517
vn 0.4686 0.1275 0.8742
vn -0.7741 -0.2126 0.5963
vn -0.9633 -0.2686 -0.0000
vn -0.7741 -0.2126 -0.5963
vn 0.4686 0.1275 -0.8742
vn 0.8059 0.2150 -0.5517
vn 0.7300 0.3735 0.5723
vn 0.4267 0.2184 0.8776
vn -0.6986 -0.3577 0.6197
vn -0.8901 -0.4557 -0.0000
vn -0.6986 -0.3577 -0.6197
vn 0.4267 0.2184 -0.8776
vn 0.7300 0.3735 -0.5723
vn -0.5156 0.6977 -0.4974
vn -0.3512 0.4227 0.8355
vn 0.4813 -0.6852 0.5468
vn 0.6138 -0.7895 -0.0000
vn 0.4812 -0.6852 -0.5468
vn -0.3512 0.4227 -0.8355
vn 0.4894 0.6211 0.6122
vn 0.3008 0.3180 0.8991
vn -0.4352 -0.5927 0.6778
vn -0.6137 -0.7895 -0.0000
vn -0.4352 -0.5927 -0.6778
vn 0.3008 0.3180 -0.8991
vn -0.5156 0.6977 0.4974
vn -0.7468 0.3831 0.5437
vn -0.4266 0.2183 0.8777
vn 0.6979 -0.3571 0.6208
vn 0.8901 -0.4557 -0.0000
vn 0.6979 -0.3571 -0.6208
vn -0.4266 0.2183 -0.8777
vn -0.7468 0.3831 -0.5437
vn -0.8093 0.2201 0.5446
vn -0.4617 0.1268 0.8779
vn 0.7608 -0.2121 0.6133
vn 0.9633 -0.2686 -0.0000
vn 0.7608 -0.2121 -0.6133
vn -0.4617 0.1268 -0.8779
vn -0.8093 0.2201 -0.5446
vn -0.0000 0.8191 0.5737
vn -0.0000 0.4799 0.8773
vn -0.0000 -0.7694 0.6388
vn -0.0000 -1.0000 -0.0000
vn -0.0000 -0.7694 -0.6388
vn -0.0000 0.4798 -0.8774
vn -0.0000 0.8191 -0.5737
vn 0.4894 0.6211 -0.6122
vn -0.2696 -0.0449 -0.9619
vn 0.4477 -0.0841 -0.8902
vn 0.7747 0.0808 0.6271
vn -0.9647 -0.1478 -0.2182
vn -0.9933 0.1159 -0.0000
vn 0.9931 0.1174 -0.0000
vn 0.4183 -0.0773 0.9050
vn 0.7958 -0.1236 -0.5929
vn -0.8182 -0.0933 0.5673
vn -0.7748 0.0801 -0.6271
vn 0.7604 0.0766 -0.6450
vn -0.7606 0.0759 0.6448
vn -0.4474 -0.0858 0.8902
vn 0.7771 -0.1173 0.6183
vn -0.6962 -0.5435 0.4690
vn 0.9123 -0.3539 0.2063
vn -0.4533 -0.1496 0.8787
vn 0.4576 -0.0617 0.8870
vn 0.7301 0.1636 0.6635
vn -0.7797 0.0655 0.6227
vn 0.9733 0.2293 -0.0000
vn -0.9969 0.0792 -0.0000
vn 0.7664 0.1950 -0.6121
vn -0.7660 0.0578 -0.6402
vn -0.1704 -0.1757 -0.9696
vn 0.4335 -0.0489 -0.8998
vn -0.8779 -0.4358 -0.1985
vn 0.7834 -0.0980 -0.6138
vn 0.7929 0.2157 0.5698
vn 0.4617 0.1268 0.8779
vn -0.7608 -0.2121 0.6133
vn -0.7608 -0.2121 -0.6133
vn 0.4617 0.1268 -0.8779
vn 0.7929 0.2157 -0.5698
vn 0.7329 0.3759 0.5671
vn 0.4266 0.2183 0.8777
vn -0.6979 -0.3571 0.6208
vn -0.6979 -0.3571 -0.6208
vn 0.4266 0.2183 -0.8777
vn 0.7329 0.3759 -0.5671
vn -0.4955 0.6301 -0.5979
vn -0.3008 0.3180 0.8991
vn 0.4352 -0.5927 0.6778
vn 0.4352 -0.5927 -0.6778
vn -0.3008 0.3180 -0.8991
vn 0.5108 0.6911 0.5114
vn 0.3512 0.4227 0.8355
vn -0.4813 -0.6852 0.5468
vn -0.4812 -0.6852 -0.5468
vn 0.3512 0.4227 -0.8355
vn -0.4955 0.6301 0.5979
vn -0.7440 0.3807 0.5492
vn -0.4267 0.2184 0.8776
vn 0.6986 -0.3577 0.6197
vn 0.6986 -0.3577 -0.6197
vn -0.4267 0.2184 -0.8776
vn -0.7440 0.3807 -0.5492
vn -0.8222 0.2194 0.5252
vn -0.4686 0.1275 0.8742
vn 0.7741 -0.2126 0.5963
vn 0.7741 -0.2126 -0.5963
vn -0.4686 0.1275 -0.8742
vn -0.8222 0.2194 -0.5252
vn 0.5108 0.6911 -0.5114
vn -0.4474 -0.0858 -0.8902
vn 0.4182 -0.0773 -0.9050
vn 0.7604 0.0766 0.6450
vn -0.8182 -0.0933 -0.5673
vn 0.4477 -0.0841 0.8902
vn 0.7771 -0.1173 -0.6183
vn -0.9647 -0.1478 0.2182
vn -0.7606 0.0759 -0.6448
vn 0.7747 0.0808 -0.6271
vn -0.7748 0.0801 0.6271
vn -0.2696 -0.0449 0.9619
vn 0.7958 -0.1236 0.5929
vn -0.8779 -0.4358 0.1985
vn 0.7834 -0.0980 0.6138
vn -0.1704 -0.1757 0.9696
vn 0.4335 -0.0488 0.8998
vn 0.7664 0.1950 0.6121
vn -0.7660 0.0578 0.6402
vn 0.7301 0.1636 -0.6635
vn -0.7797 0.0655 -0.6227
vn -0.4533 -0.1496 -0.8787
vn 0.4576 -0.0617 -0.8870
vn -0.6962 -0.5435 -0.4690
vn 0.9123 -0.3539 -0.2063
vt 0.324936 0.216596
vt 0.325785 0.219592
vt 0.325142 0.219834
vt 0.325604 0.216550
vt 0.326252 0.219387
vt 0.327464 0.215664
vt 0.327327 0.213150
vt 0.327777 0.213005
vt 0.327468 0.214126
vt 0.328357 0.216840
vt 0.327590 0.216812
vt 0.328706 0.214095
vt 0.328828 0.216929
vt 0.331541 0.211051
vt 0.331269 0.213865
vt 0.331046 0.210935
vt 0.330605 0.213884
vt 0.330380 0.210762
vt 0.326068 0.212263
vt 0.326526 0.212492
vt 0.326088 0.216540
vt 0.325772 0.219102
vt 0.327020 0.215669
vt 0.326912 0.210358
vt 0.328235 0.214154
vt 0.327679 0.210387
vt 0.332754 0.217489
vt 0.331756 0.213791
vt 0.332326 0.217782
vt 0.318957 0.217863
vt 0.318848 0.221408
vt 0.318168 0.217725
vt 0.328908 0.210471
vt 0.327115 0.207405
vt 0.327546 0.207061
vt 0.324487 0.204022
vt 0.324766 0.207038
vt 0.324283 0.207060
vt 0.325714 0.204210
vt 0.325820 0.207038
vt 0.327416 0.207853
vt 0.325874 0.209743
vt 0.327064 0.207621
vt 0.319494 0.217909
vt 0.319498 0.221301
vt 0.325424 0.212122
vt 0.327699 0.209489
vt 0.328084 0.209883
vt 0.324487 0.213877
vt 0.324766 0.210861
vt 0.324873 0.213689
vt 0.325714 0.213689
vt 0.325820 0.210861
vt 0.326099 0.213877
vt 0.320202 0.214198
vt 0.321453 0.211048
vt 0.321804 0.211412
vt 0.329514 0.210390
vt 0.328140 0.206788
vt 0.329321 0.215097
vt 0.328719 0.214980
vt 0.328406 0.210599
vt 0.322209 0.213162
vt 0.323872 0.216549
vt 0.323444 0.216756
vt 0.326279 0.213096
vt 0.326267 0.209879
vt 0.326785 0.209793
vt 0.325348 0.213178
vt 0.319958 0.221092
vt 0.321453 0.224094
vt 0.330603 0.221424
vt 0.332008 0.217870
vt 0.331222 0.221675
vt 0.328001 0.217972
vt 0.327562 0.217658
vt 0.328228 0.214856
vt 0.322299 0.210530
vt 0.322684 0.213094
vt 0.326310 0.215405
vt 0.325760 0.213181
vt 0.325791 0.215490
vt 0.331153 0.214990
vt 0.331354 0.217776
vt 0.330945 0.217635
vt 0.331572 0.214947
vt 0.324895 0.205098
vt 0.325455 0.204799
vt 0.324283 0.210839
vt 0.326303 0.207060
vt 0.319685 0.214043
vt 0.318905 0.213856
vt 0.320892 0.210685
vt 0.330767 0.210663
vt 0.331149 0.210319
vt 0.332507 0.206816
vt 0.321812 0.210455
vt 0.323099 0.206361
vt 0.332233 0.214853
vt 0.331608 0.210280
vt 0.327679 0.220919
vt 0.327065 0.220897
vt 0.323587 0.206440
vt 0.322913 0.210630
vt 0.327704 0.223372
vt 0.327373 0.223687
vt 0.332133 0.206569
vt 0.328542 0.218277
vt 0.325517 0.221652
vt 0.325388 0.215614
vt 0.327014 0.218858
vt 0.326713 0.219038
vt 0.326090 0.209140
vt 0.326433 0.208928
vt 0.325196 0.221023
vt 0.326889 0.223997
vt 0.331980 0.210226
vt 0.331423 0.209658
vt 0.331687 0.209593
vt 0.327707 0.224565
vt 0.327326 0.224651
vt 0.324889 0.221898
vt 0.324539 0.221697
vt 0.328084 0.224446
vt 0.322720 0.206203
vt 0.323409 0.205269
vt 0.325772 0.207917
vt 0.326128 0.207829
vt 0.323872 0.205344
vt 0.327513 0.222165
vt 0.326912 0.222143
vt 0.327416 0.219709
vt 0.327107 0.219782
vt 0.328048 0.221089
vt 0.330922 0.209679
vt 0.332754 0.205686
vt 0.331617 0.206310
vt 0.332359 0.205638
vt 0.326167 0.219236
vt 0.328127 0.210176
vt 0.331712 0.217971
vt 0.324873 0.204210
vt 0.327056 0.209205
vt 0.326303 0.210839
vt 0.321804 0.223729
vt 0.324539 0.205497
vt 0.325845 0.221751
vt 0.323039 0.205237
vt 0.327885 0.222209
vt 0.330603 0.209670
vt 0.331979 0.205563
s 0
g lantern_handle_Material
usemtl Material
f 366/729/413 360/730/413 359/731/413
f 367/732/414 361/733/414 360/730/414
f 368/734/415 362/735/415 361/736/415
f 369/737/416 363/738/416 362/739/416
f 363/738/417 371/740/417 364/741/417
f 364/742/418 372/743/418 365/744/418
f 365/744/419 366/745/419 359/746/419
f 366/729/420 374/747/420 367/732/420
f 367/732/421 375/748/421 368/749/421
f 368/734/422 376/750/422 369/751/422
f 376/752/423 370/753/423 369/737/423
f 377/754/424 371/740/424 370/753/424
f 378/755/425 372/743/425 371/756/425
f 379/757/426 366/745/426 372/743/426
f 413/758/427 380/759/427 402/760/427
f 381/761/428 405/762/428 403/763/428
f 382/764/429 407/765/429 405/766/429
f 407/765/430 384/767/430 409/768/430
f 409/769/431 385/770/431 411/771/431
f 411/772/432 386/773/432 413/758/432
f 373/774/433 404/775/433 374/747/433
f 374/747/434 406/776/434 375/748/434
f 375/777/435 408/778/435 376/779/435
f 408/778/436 377/780/436 376/779/436
f 410/781/437 378/782/437 377/780/437
f 412/783/438 379/784/438 378/785/438
f 380/786/439 403/763/439 402/787/439
f 387/788/440 381/761/440 380/786/440
f 388/789/441 382/790/441 381/761/441
f 389/791/442 383/792/442 382/793/442
f 390/794/443 384/795/443 383/796/443
f 384/795/444 392/797/444 385/770/444
f 385/798/445 393/799/445 386/773/445
f 386/800/446 387/801/446 380/802/446
f 387/788/447 395/803/447 388/789/447
f 388/789/448 396/804/448 389/805/448
f 389/791/449 397/806/449 390/807/449
f 397/808/450 391/809/450 390/794/450
f 398/810/451 392/797/451 391/809/451
f 399/811/452 393/812/452 392/813/452
f 400/814/453 387/801/453 393/812/453
f 402/787/454 404/815/454 401/816/454
f 405/762/455 404/815/455 403/763/455
f 405/766/456 408/778/456 406/817/456
f 409/768/457 408/778/457 407/765/457
f 411/818/458 410/781/458 409/768/458
f 413/758/459 412/783/459 411/772/459
f 414/819/460 402/760/460 401/820/460
f 414/819/461 373/821/461 379/784/461
f 400/814/462 427/822/462 428/823/462
f 365/744/463 420/824/463 364/742/463
f 396/825/464 425/826/464 397/806/464
f 394/827/465 428/823/465 422/828/465
f 362/739/466 419/829/466 418/830/466
f 397/806/467 426/831/467 398/832/467
f 360/730/468 417/833/468 416/834/468
f 359/746/469 421/835/469 365/744/469
f 394/836/470 423/837/470 395/803/470
f 364/741/471 419/829/471 363/738/471
f 399/838/472 426/839/472 427/840/472
f 361/736/473 418/841/473 417/842/473
f 395/803/474 424/843/474 396/804/474
f 359/731/475 416/834/475 415/844/475
f 423/845/476 436/846/476 437/847/476
f 415/844/477 430/848/477 429/849/477
f 424/843/478 437/850/478 438/851/478
f 416/834/479 431/852/479 430/848/479
f 424/853/480 439/854/480 425/826/480
f 417/842/481 432/855/481 431/856/481
f 425/826/482 440/857/482 426/831/482
f 418/830/483 433/858/483 432/859/483
f 427/840/484 440/860/484 441/861/484
f 420/862/485 433/858/485 419/829/485
f 427/822/486 442/863/486 428/823/486
f 421/835/487 434/864/487 420/824/487
f 428/823/488 436/846/488 422/828/488
f 415/865/489 435/866/489 421/835/489
f 366/729/490 367/732/490 360/730/490
f 367/732/491 368/749/491 361/733/491
f 368/734/492 369/751/492 362/735/492
f 369/737/416 370/753/416 363/738/416
f 363/738/493 370/753/493 371/740/493
f 364/742/494 371/756/494 372/743/494
f 365/744/495 372/743/495 366/745/495
f 366/729/496 373/774/496 374/747/496
f 367/732/497 374/747/497 375/748/497
f 368/734/498 375/867/498 376/750/498
f 376/752/423 377/754/423 370/753/423
f 377/754/499 378/868/499 371/740/499
f 378/755/500 379/757/500 372/743/500
f 379/757/501 373/869/501 366/745/501
f 413/758/502 386/773/502 380/759/502
f 381/761/503 382/790/503 405/762/503
f 382/764/504 383/870/504 407/765/504
f 407/765/430 383/870/430 384/767/430
f 409/769/505 384/795/505 385/770/505
f 411/772/506 385/798/506 386/773/506
f 373/774/507 401/871/507 404/775/507
f 374/747/508 404/775/508 406/776/508
f 375/777/509 406/817/509 408/778/509
f 408/778/436 410/781/436 377/780/436
f 410/781/510 412/872/510 378/782/510
f 412/783/511 414/819/511 379/784/511
f 380/786/512 381/761/512 403/763/512
f 387/788/513 388/789/513 381/761/513
f 388/789/514 389/805/514 382/790/514
f 389/791/515 390/807/515 383/792/515
f 390/794/443 391/809/443 384/795/443
f 384/795/516 391/809/516 392/797/516
f 385/798/517 392/873/517 393/799/517
f 386/800/518 393/812/518 387/801/518
f 387/788/519 394/836/519 395/803/519
f 388/789/520 395/803/520 396/804/520
f 389/791/521 396/825/521 397/806/521
f 397/808/450 398/810/450 391/809/450
f 398/810/522 399/838/522 392/797/522
f 399/811/523 400/814/523 393/812/523
f 400/814/524 394/827/524 387/801/524
f 402/787/454 403/763/454 404/815/454
f 405/762/455 406/874/455 404/815/455
f 405/766/456 407/765/456 408/778/456
f 409/768/457 410/781/457 408/778/457
f 411/818/458 412/872/458 410/781/458
f 413/758/459 414/819/459 412/783/459
f 414/819/460 413/758/460 402/760/460
f 414/819/525 401/820/525 373/821/525
f 400/814/526 399/811/526 427/822/526
f 365/744/527 421/835/527 420/824/527
f 396/825/528 424/853/528 425/826/528
f 394/827/529 400/814/529 428/823/529
f 362/739/466 363/738/466 419/829/466
f 397/806/467 425/826/467 426/831/467
f 360/730/530 361/733/530 417/833/530
f 359/746/531 415/865/531 421/835/531
f 394/836/532 422/875/532 423/837/532
f 364/741/533 420/862/533 419/829/533
f 399/838/534 398/810/534 426/839/534
f 361/736/535 362/735/535 418/841/535
f 395/803/536 423/837/536 424/843/536
f 359/731/537 360/730/537 416/834/537
f 423/845/538 422/828/538 436/846/538
f 415/844/539 416/834/539 430/848/539
f 424/843/540 423/837/540 437/850/540
f 416/834/541 417/833/541 431/852/541
f 424/853/542 438/876/542 439/854/542
f 417/842/543 418/841/543 432/855/543
f 425/826/482 439/854/482 440/857/482
f 418/830/483 419/829/483 433/858/483
f 427/840/544 426/839/544 440/860/544
f 420/862/545 434/877/545 433/858/545
f 427/822/546 441/878/546 442/863/546
f 421/835/547 435/866/547 434/864/547
f 428/823/548 442/863/548 436/846/548
f 415/865/549 429/879/549 435/866/549
