# Blender 4.2.0
# www.blender.org
mtllib leaf_1.mtl
g leaf_1_Mesh
v -0.033749 -0.075739 0.148899
v 0.025889 -0.068444 0.156839
v -0.110975 -0.018403 -0.123014
v -0.140880 -0.023030 -0.068918
v 0.152041 -0.029189 -0.066444
v 0.107687 -0.017567 -0.127163
v 0.084967 -0.012366 -0.161814
v -0.072874 -0.013965 -0.161658
v -0.022302 -0.081383 0.162650
v 0.016277 -0.071536 0.167502
v 0.052022 -0.006486 -0.060231
v -0.047565 -0.005198 -0.059217
v 0.038113 -0.002435 -0.125069
v -0.031628 -0.003040 -0.123827
v 0.033650 -0.001765 -0.170758
v -0.031383 -0.003040 -0.165141
v -0.000953 -0.088553 0.197982
v -0.011316 -0.088552 0.189905
v -0.006950 0.006868 -0.334879
v 0.008154 0.006868 -0.334879
v -0.004881 -0.000337 -0.058643
v 0.006718 -0.000337 -0.058643
v -0.001360 0.001855 -0.126501
v 0.010077 0.001855 -0.126501
v 0.009771 0.001855 -0.176773
v -0.007635 0.001855 -0.176773
v -0.132771 -0.027818 -0.020325
v 0.144542 -0.033072 -0.019455
v -0.047088 -0.009345 -0.024106
v 0.050635 -0.010474 -0.025126
v 0.001519 -0.004484 -0.025383
v -0.009966 -0.004484 -0.025383
v -0.122417 -0.031051 0.017323
v -0.004265 -0.011080 0.032316
v 0.132452 -0.034776 0.018062
v -0.038381 -0.015941 0.031742
v 0.040098 -0.015639 0.030632
v 0.005638 -0.011080 0.032316
v -0.074163 -0.055154 0.099083
v -0.005630 -0.043974 0.112203
v 0.073023 -0.051204 0.100565
v -0.021641 -0.048317 0.109946
v 0.014692 -0.044275 0.110043
v 0.000130 -0.043974 0.112203
v 0.101196 -0.046921 0.073376
v -0.031717 -0.032477 0.072370
v 0.032467 -0.030909 0.071524
v 0.005124 -0.027868 0.074016
v -0.096291 -0.047167 0.072909
v -0.003751 -0.027868 0.074016
v -0.051403 -0.065009 0.123794
v -0.004993 -0.061299 0.145540
v 0.052090 -0.057010 0.122006
v -0.015360 -0.065017 0.142080
v 0.007536 -0.060042 0.142464
v -0.000507 -0.061299 0.145540
v -0.126996 -0.020269 -0.117082
v -0.176373 -0.037441 0.017853
v 0.183994 -0.046831 0.020216
v 0.121869 -0.020790 -0.127711
v 0.126757 -0.021891 -0.137741
v -0.131412 -0.020784 -0.126725
v -0.166527 -0.035976 0.015224
v 0.173049 -0.043545 0.013664
v -0.162475 -0.057381 0.075388
v 0.166567 -0.061189 0.069141
v -0.087997 -0.077917 0.139389
v 0.077494 -0.069081 0.132676
v 0.162379 -0.060729 0.070680
v -0.156514 -0.056135 0.080360
v -0.085876 -0.078188 0.140446
v 0.075469 -0.069049 0.133611
v -0.122294 -0.019721 -0.099091
v 0.131381 -0.022984 -0.097989
v -0.043142 -0.003040 -0.096060
v 0.048499 -0.003912 -0.097019
v 0.007284 0.001855 -0.096060
v -0.005447 0.001855 -0.096060
v 0.133654 -0.033303 0.003398
v -0.044916 -0.012735 0.004600
v 0.047736 -0.013485 0.003558
v 0.001200 -0.007875 0.003760
v -0.125180 -0.028949 -0.003217
v -0.009908 -0.007875 0.005700
v -0.086868 -0.049824 0.083611
v -0.002985 -0.034617 0.092913
v 0.080012 -0.046027 0.085155
v -0.024843 -0.039226 0.091267
v 0.025142 -0.036653 0.090583
v 0.004358 -0.034617 0.092913
v -0.037947 -0.072763 0.142114
v -0.004675 -0.069962 0.162208
v 0.030969 -0.063856 0.145535
v -0.012220 -0.073367 0.158147
v 0.003958 -0.067926 0.158674
v -0.000825 -0.069962 0.162208
v -0.129174 -0.046779 0.062023
v -0.143933 -0.039894 0.034457
v -0.145570 -0.030453 -0.010729
v -0.163935 -0.030855 -0.025559
v 0.174749 -0.039612 -0.022598
v 0.151844 -0.035536 -0.012805
v 0.148107 -0.043737 0.032878
v 0.128460 -0.048758 0.060129
v -0.137947 -0.021545 -0.109646
v -0.142227 -0.022043 -0.109885
v 0.133525 -0.023447 -0.121150
v 0.140932 -0.025127 -0.124510
v -0.034537 -0.085980 0.168407
v 0.026645 -0.076195 0.171344
v -0.031257 -0.087657 0.172463
v 0.025410 -0.076827 0.173164
v -0.071061 -0.072053 0.132382
v -0.084069 -0.068391 0.122052
v 0.077939 -0.060186 0.115385
v 0.066087 -0.062865 0.126357
v 0.003275 0.004976 -0.258311
v -0.009003 0.004976 -0.239576
v 0.003816 0.005487 -0.273007
v -0.006077 0.005894 -0.280079
v -0.004702 0.008054 -0.341414
v 0.005907 0.008054 -0.341414
v -0.007985 0.004218 -0.197903
v 0.003098 0.004218 -0.196743
v -0.041451 -0.067729 0.148520
v -0.037279 -0.070924 0.155618
v 0.017065 -0.065282 0.172724
v 0.026983 -0.061970 0.161507
v -0.075379 -0.006785 -0.162195
v -0.112929 -0.011114 -0.123378
v -0.124706 -0.012511 -0.099266
v -0.143108 -0.015825 -0.067908
v 0.147281 -0.026017 -0.018019
v 0.154791 -0.022104 -0.065310
v 0.134105 -0.015844 -0.097637
v 0.110353 -0.010409 -0.127220
v -0.049526 0.002059 -0.058270
v -0.033885 0.004196 -0.124229
v 0.087542 -0.005188 -0.161801
v -0.033821 0.004165 -0.165354
v -0.026147 -0.076113 0.168469
v 0.054268 0.000714 -0.059195
v 0.040231 0.004833 -0.125084
v 0.035713 0.005512 -0.170719
v -0.045195 0.004239 -0.096162
v 0.050737 0.003331 -0.096749
v -0.049056 -0.002151 -0.022568
v 0.052871 -0.003315 -0.023681
v -0.002368 0.009265 -0.126584
v 0.010911 0.009278 -0.126489
v 0.010334 0.009294 -0.176755
v -0.008266 0.009291 -0.176755
v -0.005598 0.007048 -0.057585
v 0.007559 0.007038 -0.057565
v 0.008136 0.009272 -0.095702
v -0.006288 0.009276 -0.095826
v -0.010839 -0.081852 0.198322
v -0.003419 -0.082795 0.203683
v 0.002367 0.002854 -0.023947
v -0.008459 -0.064494 0.167714
v 0.004203 0.009230 -0.272460
v 0.008191 0.010533 -0.333140
v -0.006912 0.010536 -0.333177
v -0.007985 0.007974 -0.197903
v -0.134814 -0.020635 -0.018796
v 0.136379 -0.026257 0.004929
v -0.046953 -0.005569 0.006262
v 0.049971 -0.006333 0.005056
v 0.002289 -0.000538 0.005034
v -0.010678 0.002861 -0.023934
v -0.127692 -0.021885 -0.001470
v -0.124616 -0.024221 0.020487
v -0.010404 -0.000539 0.007307
v -0.005135 -0.004060 0.035418
v 0.103856 -0.040515 0.077550
v 0.135165 -0.028020 0.021096
v -0.034041 -0.026194 0.077043
v -0.040534 -0.009132 0.035010
v 0.034607 -0.024419 0.075771
v 0.042289 -0.008765 0.033634
v 0.005959 -0.021241 0.078353
v 0.006479 -0.004041 0.035354
v -0.089348 -0.043746 0.088670
v -0.076456 -0.049374 0.104817
v -0.004268 -0.028226 0.097731
v -0.007554 -0.038012 0.117729
v 0.054190 -0.050997 0.127367
v 0.075346 -0.045194 0.105839
v -0.019469 -0.059919 0.148012
v -0.024795 -0.042742 0.115643
v 0.008538 -0.053839 0.147756
v 0.016283 -0.038172 0.115396
v -0.000344 -0.055198 0.151127
v 0.000635 -0.037829 0.117682
v 0.082394 -0.039627 0.089510
v -0.027428 -0.033164 0.096307
v 0.027084 -0.030279 0.095214
v 0.005143 -0.028151 0.097661
v -0.098598 -0.040817 0.077428
v -0.004824 -0.021314 0.078492
v -0.053887 -0.059449 0.129840
v -0.007651 -0.055602 0.151268
v 0.032038 -0.057427 0.150314
v -0.017524 -0.068649 0.163742
v 0.004047 -0.061660 0.163931
v -0.001903 -0.063950 0.167867
v -0.132828 -0.013414 -0.126725
v -0.128412 -0.012899 -0.117082
v 0.175762 -0.036481 0.015076
v 0.186706 -0.039768 0.021628
v 0.124582 -0.013643 -0.127699
v 0.129469 -0.014743 -0.137729
v -0.177789 -0.030155 0.019279
v -0.167943 -0.028690 0.016650
v 0.165092 -0.054281 0.074705
v 0.169279 -0.054741 0.073167
v 0.078182 -0.063252 0.139126
v 0.080206 -0.063284 0.138190
v -0.164757 -0.050649 0.078838
v -0.158797 -0.049403 0.083810
v -0.089413 -0.071917 0.144995
v -0.087292 -0.072188 0.146051
v -0.130919 -0.040027 0.065710
v -0.145591 -0.033141 0.038181
v 0.080652 -0.054389 0.120899
v 0.068800 -0.057068 0.131871
v 0.150802 -0.037278 0.036884
v 0.131154 -0.042298 0.064134
v -0.072476 -0.066052 0.137988
v -0.085484 -0.062391 0.127657
v -0.146986 -0.023167 -0.009303
v -0.165351 -0.023569 -0.024133
v 0.177462 -0.032549 -0.021186
v 0.154557 -0.028472 -0.011392
v -0.143643 -0.014673 -0.109885
v -0.139363 -0.014175 -0.109646
v 0.136237 -0.016299 -0.121138
v 0.143644 -0.017979 -0.124498
v 0.028123 -0.071030 0.178679
v 0.029357 -0.070398 0.176858
v -0.035953 -0.079980 0.174013
v -0.032673 -0.081657 0.178068
v 0.003098 0.007974 -0.196743
v 0.003723 0.008722 -0.257932
v -0.005859 0.009637 -0.279444
v -0.008911 0.008732 -0.239497
v 0.005907 0.011554 -0.338524
v -0.004702 0.011554 -0.338524
v 0.137205 -0.029687 0.004410
v 0.135978 -0.031331 0.020075
v -0.036091 -0.073945 0.154907
v -0.040344 -0.070809 0.147852
v -0.134264 -0.016799 -0.128603
v -0.075330 -0.009967 -0.164375
v -0.024619 -0.079449 0.168424
v -0.032485 -0.085454 0.178287
v -0.002223 -0.086487 0.204268
v -0.013523 -0.086667 0.195954
v -0.099027 -0.044129 0.076566
v -0.132157 -0.043531 0.065081
v -0.035818 -0.083750 0.174165
v -0.166271 -0.054315 0.078542
v -0.147112 -0.036533 0.037086
v 0.026863 -0.065688 0.161933
v 0.028454 -0.073909 0.177103
v -0.144299 -0.019166 -0.069345
v -0.125505 -0.015801 -0.100610
v 0.075387 -0.048404 0.105054
v 0.080580 -0.057640 0.120237
v 0.027199 -0.074551 0.178954
v 0.016940 -0.068942 0.173050
v 0.008307 0.009066 -0.337995
v 0.004076 0.007703 -0.276225
v -0.128488 -0.025253 -0.002203
v -0.135964 -0.024043 -0.019699
v 0.078070 -0.066647 0.138759
v 0.068536 -0.060363 0.131387
v -0.072934 -0.069596 0.137556
v -0.087990 -0.075831 0.145751
v 0.110787 -0.013638 -0.129077
v 0.134895 -0.019152 -0.099221
v 0.151878 -0.040588 0.035625
v -0.086153 -0.065875 0.127058
v -0.076533 -0.052536 0.103782
v -0.008081 0.006240 -0.179454
v -0.008109 0.006432 -0.200492
v 0.166390 -0.057861 0.074050
v 0.131912 -0.045690 0.063317
v -0.160215 -0.053048 0.083595
v -0.053501 -0.062662 0.129052
v 0.080128 -0.066679 0.137808
v -0.125522 -0.027507 0.019390
v -0.090145 -0.075556 0.144677
v 0.054001 -0.054303 0.126887
v 0.032013 -0.061049 0.150502
v -0.033132 0.001148 -0.167750
v 0.087652 -0.008343 -0.164255
v 0.130190 -0.018038 -0.139791
v -0.148652 -0.026668 -0.010001
v -0.169949 -0.032281 0.016374
v 0.125223 -0.016919 -0.129599
v 0.003557 0.007185 -0.261376
v 0.003154 0.006432 -0.199314
v -0.089539 -0.046968 0.087716
v 0.010214 0.006241 -0.179454
v 0.035243 0.002480 -0.173330
v -0.167316 -0.027077 -0.025071
v -0.009101 0.007190 -0.242489
v -0.006063 0.008117 -0.283367
v -0.179955 -0.033770 0.019046
v 0.178961 -0.036089 -0.022069
v 0.188355 -0.043425 0.021440
v 0.082519 -0.042945 0.088927
v 0.155904 -0.025486 -0.066768
v 0.155684 -0.031947 -0.012117
v 0.148277 -0.029447 -0.018863
v 0.177233 -0.040086 0.014782
v -0.007042 0.009069 -0.338014
v -0.113769 -0.014421 -0.125017
v 0.170646 -0.058328 0.072486
v -0.004777 0.010188 -0.344051
v 0.006004 0.010188 -0.344051
v 0.104188 -0.043851 0.076865
v -0.140906 -0.017573 -0.111246
v -0.145255 -0.018080 -0.111490
v -0.129777 -0.016277 -0.118803
v 0.144595 -0.021326 -0.126346
v 0.137067 -0.019619 -0.122931
v -0.000402 -0.002915 -0.126501
v 0.007941 -0.002915 -0.126501
v 0.006828 -0.002915 -0.176773
v -0.005870 -0.002915 -0.176773
v -0.001970 -0.005088 -0.059062
v 0.002709 -0.005088 -0.059062
v 0.002589 -0.002913 -0.096200
v -0.001849 -0.002913 -0.096200
v -0.006729 -0.093228 0.190875
v -0.002621 -0.093295 0.196141
v -0.002889 -0.009221 -0.025943
v -0.003221 -0.074123 0.159976
v 0.002383 0.003089 -0.273220
v 0.005647 0.004500 -0.335557
v -0.005371 0.004498 -0.335543
v -0.006183 0.001814 -0.197903
v -0.000939 -0.012611 0.003565
v -0.006655 -0.009221 -0.025943
v -0.009042 -0.012611 0.004981
v -0.003412 -0.015703 0.031141
v 0.001801 -0.032326 0.072321
v 0.003813 -0.015704 0.031144
v -0.002478 -0.039012 0.091061
v -0.003740 -0.048236 0.110061
v -0.000670 -0.065531 0.143340
v -0.000873 -0.048238 0.110065
v 0.002879 -0.039023 0.091086
v -0.001400 -0.032326 0.072321
v -0.003943 -0.065531 0.143340
v -0.000440 -0.074129 0.159976
v 0.001902 0.001814 -0.196743
v 0.001971 0.002576 -0.258459
v -0.004787 0.003495 -0.280327
v -0.006885 0.002572 -0.239606
v 0.004018 0.006043 -0.343575
v -0.003721 0.006042 -0.343573
v -0.001139 0.011792 -0.126584
v 0.008548 0.011806 -0.126488
v 0.007238 0.011821 -0.176753
v -0.006331 0.011818 -0.176753
v -0.002020 0.009554 -0.057162
v 0.002853 0.009549 -0.057152
v 0.002934 0.011798 -0.095594
v -0.002186 0.011800 -0.095655
v -0.008791 -0.080691 0.200900
v -0.006682 -0.081213 0.205353
v -0.002105 0.004477 -0.023385
v -0.007053 -0.062598 0.169947
v 0.002884 0.011629 -0.272248
v 0.005696 0.012900 -0.332457
v -0.005321 0.012905 -0.332504
v -0.006182 0.010378 -0.197902
v -0.001933 0.001082 0.006362
v -0.007336 0.004481 -0.023377
v -0.007089 0.001082 0.007294
v -0.004047 -0.001682 0.036602
v 0.002536 -0.019038 0.080073
v 0.004425 -0.001661 0.036529
v -0.003438 -0.026075 0.099587
v -0.004336 -0.035947 0.119860
v -0.000702 -0.053220 0.153338
v -0.001444 -0.035856 0.119833
v 0.003429 -0.025987 0.099487
v -0.002322 -0.019083 0.080157
v -0.006038 -0.053625 0.153480
v -0.002224 -0.062042 0.170100
v 0.001903 0.010378 -0.196742
v 0.002550 0.011122 -0.257785
v -0.004501 0.012036 -0.279201
v -0.006763 0.011136 -0.239467
v 0.004018 0.013958 -0.338540
v -0.003721 0.013958 -0.338542
v -0.003525 -0.089402 0.207338
v -0.011774 -0.089566 0.199033
v -0.003775 0.010834 -0.347852
v 0.004089 0.010835 -0.347851
vn -0.2255 -0.9670 -0.1188
vn -0.2242 -0.9745 0.0012
vn -0.2127 -0.9771 -0.0072
vn 0.1903 -0.9788 0.0752
vn 0.1597 -0.9872 0.0009
vn 0.2045 -0.9779 0.0429
vn -0.1513 -0.9885 0.0003
vn 0.1286 -0.9903 0.0533
vn 0.2043 -0.9718 -0.1176
vn -0.1191 -0.9828 -0.1412
vn -0.1386 -0.9903 -0.0008
vn -0.8989 0.4371 -0.0305
vn -0.5759 0.8169 0.0320
vn 0.9414 -0.3343 0.0442
vn -0.7457 0.6657 0.0287
vn 0.1249 -0.9851 -0.1181
vn 0.1400 -0.9843 -0.1076
vn 0.9785 -0.1900 -0.0800
vn -0.1194 -0.9860 -0.1160
vn 0.2085 -0.9693 -0.1303
vn -0.2232 -0.9668 -0.1241
vn -0.2007 -0.9049 -0.3754
vn 0.2004 -0.8955 -0.3974
vn -0.1360 -0.9185 -0.3714
vn 0.4737 0.8791 0.0524
vn 0.1723 -0.9130 -0.3697
vn 0.4277 -0.7987 -0.4233
vn 0.3844 0.9175 0.1025
vn -0.0379 -0.8864 -0.4614
vn 0.2456 -0.8397 -0.4844
vn -0.1512 -0.8754 -0.4591
vn 0.2185 -0.9161 -0.3361
vn -0.9118 0.3706 -0.1770
vn -0.1292 -0.9322 -0.3382
vn 0.2018 -0.8968 -0.3937
vn -0.1913 -0.9170 -0.3499
vn -0.0855 -0.8884 -0.4509
vn 0.2830 -0.8273 -0.4853
vn 0.0375 -0.8870 -0.4603
vn 0.7793 0.6114 -0.1373
vn 0.5460 -0.7391 -0.3945
vn 0.1157 -0.9933 -0.0000
vn 0.1673 -0.9317 -0.3223
vn -0.2217 -0.8648 -0.4506
vn -0.2217 -0.9180 -0.3289
vn 0.1157 -0.8814 -0.4580
vn -0.2217 -0.9751 -0.0010
vn 0.1157 -0.9864 -0.1165
vn -0.2217 -0.9683 -0.1154
vn -0.8803 -0.4743 0.0056
vn -0.1362 -0.9891 -0.0562
vn 0.1136 -0.9925 -0.0445
vn 0.1869 -0.9823 0.0074
vn -0.2238 -0.9736 -0.0449
vn -0.2190 -0.9658 -0.1386
vn 0.2016 -0.9659 -0.1626
vn -0.1349 -0.9868 -0.0898
vn 0.6610 0.7371 -0.1407
vn 0.1419 -0.9788 -0.1480
vn -0.1760 -0.8808 -0.4395
vn 0.2071 -0.8652 -0.4566
vn -0.0851 -0.8890 -0.4499
vn -0.9469 -0.2625 -0.1855
vn 0.2918 -0.8757 -0.3848
vn 0.4909 -0.7733 -0.4013
vn 0.8582 -0.5133 0.0061
vn 0.0609 -0.8858 -0.4601
vn 0.3314 -0.7434 -0.5810
vn -0.0490 -0.9466 -0.3187
vn 0.0941 -0.9435 -0.3178
vn -0.2205 -0.9191 -0.3264
vn 0.7770 -0.4255 -0.4640
vn 0.8138 0.4220 0.3996
vn -0.8725 0.4648 -0.1509
vn -0.9934 -0.1144 -0.0006
vn 0.2254 0.9670 0.1186
vn 0.2115 0.9770 -0.0267
vn 0.2031 0.9791 -0.0055
vn -0.1904 0.9788 -0.0750
vn -0.1589 0.9873 -0.0010
vn -0.2043 0.9780 -0.0431
vn 0.1477 0.9890 -0.0014
vn -0.1278 0.9904 -0.0530
vn -0.1989 0.9715 0.1287
vn 0.1193 0.9828 0.1408
vn 0.1493 0.9887 0.0137
vn 0.9906 0.1290 0.0449
vn -0.9241 -0.2783 -0.2617
vn -0.7489 -0.6590 -0.0690
vn 0.9993 -0.0247 -0.0266
vn -0.1245 0.9852 0.1178
vn -0.1240 0.9843 0.1258
vn -0.8333 0.5523 0.0256
vn 0.1198 0.9860 0.1157
vn -0.2018 0.9674 0.1528
vn 0.2231 0.9669 0.1240
vn 0.2010 0.9058 0.3731
vn -0.2253 0.9029 0.3661
vn 0.1353 0.9194 0.3694
vn 0.8788 -0.4772 -0.0049
vn -0.1350 0.9107 0.3905
vn -0.2854 0.8263 0.4855
vn 0.8987 0.4371 0.0361
vn 0.0395 0.8863 0.4614
vn -0.2158 0.8227 0.5259
vn 0.1509 0.8751 0.4598
vn -0.1705 0.9064 0.3865
vn -0.7316 0.6345 0.2491
vn 0.1282 0.9320 0.3390
vn -0.2004 0.8952 0.3982
vn 0.1911 0.9169 0.3503
vn 0.0862 0.8873 0.4530
vn -0.2717 0.7997 0.5354
vn -0.0369 0.8870 0.4603
vn -0.9375 0.3477 0.0161
vn -0.4146 0.7729 0.4802
vn -0.1147 0.9934 -0.0004
vn -0.2693 0.9595 0.0823
vn 0.2217 0.8648 0.4506
vn 0.2217 0.9180 0.3289
vn -0.1157 0.8814 0.4580
vn 0.2216 0.9751 0.0010
vn -0.1157 0.9864 0.1165
vn 0.2217 0.9683 0.1154
vn -0.8680 0.4950 -0.0382
vn 0.1393 0.9884 0.0600
vn -0.1134 0.9926 0.0441
vn -0.1871 0.9823 -0.0060
vn 0.2244 0.9734 0.0467
vn 0.2192 0.9654 0.1411
vn -0.2085 0.9690 0.1323
vn 0.1347 0.9863 0.0954
vn 0.9932 0.0381 0.1102
vn -0.1390 0.9785 0.1523
vn 0.1758 0.8813 0.4387
vn -0.2045 0.8620 0.4638
vn 0.0851 0.8894 0.4491
vn -0.9766 -0.1884 -0.1039
vn -0.2863 0.8425 0.4563
vn -0.5087 0.7958 0.3285
vn 0.8953 0.4451 0.0149
vn -0.0565 0.8846 0.4630
vn -0.3109 0.7848 0.5361
vn 0.0467 0.9461 0.3206
vn -0.0919 0.9439 0.3171
vn -0.1150 0.9866 0.1157
vn 0.2216 0.9683 0.1153
vn 0.2163 0.9205 0.3255
vn -0.1157 0.9933 -0.0000
vn 0.2217 0.9751 0.0010
vn -0.0980 0.8892 0.4470
vn 0.2125 0.8701 0.4448
vn -0.1137 0.8827 0.4560
vn 0.2209 0.8651 0.4503
vn -0.9359 -0.3464 -0.0637
vn -0.9840 -0.1772 -0.0175
vn 0.9333 -0.3370 -0.1242
vn -0.6586 0.6672 0.3480
vn 0.9731 0.2093 0.0959
vn -0.8615 -0.3820 0.3344
vn -0.4939 0.4862 -0.7209
vn 0.7569 0.0749 0.6492
vn 0.6838 -0.7294 0.0193
vn -0.3279 -0.0535 0.9432
vn -0.9338 -0.3432 -0.1016
vn -0.8647 0.4557 -0.2113
vn 0.9365 -0.2576 -0.2378
vn -0.8106 0.3790 -0.4465
vn 0.9527 0.0405 -0.3012
vn -0.4334 0.0947 0.8962
vn 0.9722 -0.2265 0.0590
vn -0.8965 0.1974 0.3967
vn -0.6359 -0.0622 0.7693
vn 0.5243 -0.1694 0.8345
vn 0.7423 0.4252 -0.5179
vn 0.7462 0.4344 -0.5044
vn -0.9449 0.1224 -0.3037
vn -0.9970 0.0768 0.0021
vn -0.3777 -0.2956 0.8775
vn -0.8795 -0.4063 0.2479
vn 0.5928 -0.2752 0.7569
vn 0.4441 -0.1646 0.8807
vn 0.9996 -0.0246 0.0131
vn -0.6848 0.3934 -0.6134
vn -0.9728 0.2052 -0.1077
vn 0.7271 0.0308 0.6858
vn -0.3364 -0.1163 0.9345
vn 0.7111 0.3289 0.6214
vn -0.2121 0.5777 -0.7882
vn 0.5092 0.5340 -0.6750
vn 0.7388 -0.4513 0.5005
vn -0.0859 -0.5052 0.8587
vn 0.9998 0.0187 0.0104
vn -0.7963 -0.1278 0.5912
vn 0.2685 0.6044 -0.7501
vn -0.8286 0.4427 -0.3427
vn -0.7682 -0.0663 0.6368
vn 0.6040 -0.4221 0.6760
vn -0.9536 0.2941 -0.0642
vn -0.4385 0.5803 -0.6862
vn -0.8416 0.5149 -0.1630
vn 0.9020 0.4131 -0.1251
vn 0.9214 -0.0812 0.3800
vn 0.2551 0.5991 -0.7590
vn 0.8376 0.4366 -0.3285
vn 0.9857 -0.1662 0.0267
vn -0.6921 -0.3555 0.6282
vn -0.7783 -0.3598 0.5146
vn -0.9994 0.0278 0.0184
vn -0.8347 0.3997 -0.3788
vn 0.8837 0.3866 -0.2639
vn 0.8924 0.1504 0.4255
vn 0.7920 0.4420 -0.4212
vn -0.8060 0.1504 0.5725
vn 0.4293 -0.1404 0.8922
vn 0.7266 0.6623 -0.1827
vn -0.5542 -0.2901 0.7802
vn -0.7350 0.6606 -0.1532
vn -0.0011 -0.4257 0.9049
vn -0.9969 0.0747 0.0249
vn -0.7245 0.5429 -0.4247
vn 0.2828 -0.2297 0.9313
vn 0.9000 0.2683 -0.3435
vn 0.5134 -0.5452 0.6627
vn 0.3398 -0.0487 0.9392
vn 0.4781 -0.1343 0.8680
vn 0.3046 -0.3926 0.8678
vn -0.8542 -0.2184 0.4719
vn 0.4154 -0.1112 0.9028
vn -0.5080 -0.5043 0.6983
vn -0.6518 0.2105 0.7286
vn 0.6490 0.5006 -0.5729
vn 0.9087 0.0185 0.4169
vn -0.4447 0.0113 0.8956
vn 0.8421 -0.1812 0.5079
vn 0.3589 -0.5349 0.7649
vn -0.7780 -0.0023 0.6283
vn -0.9686 0.1956 0.1535
vn -0.7405 -0.6714 0.0309
vn -0.6047 -0.7787 0.1671
vn 0.2539 0.5266 0.8113
vn 0.5952 -0.7934 0.1279
vn -0.2666 -0.9157 0.3006
vn 0.8191 -0.5553 0.1437
vn 0.4077 -0.6847 -0.6042
vn -0.2483 -0.8267 0.5049
vn -0.2808 0.6061 0.7442
vn 0.1497 -0.9228 0.3550
vn -0.6050 -0.7885 0.1107
vn 0.4193 0.0340 0.9072
vn 0.2481 -0.8244 0.5087
vn 0.1158 -0.8203 0.5602
vn 0.4074 0.5858 0.7006
vn 0.8953 -0.2946 -0.3340
vn 0.2651 -0.0540 0.9627
vn -0.6160 -0.6505 -0.4443
vn -0.9996 -0.0133 0.0234
vn -0.0895 0.3142 0.9451
vn -0.7752 -0.5016 -0.3839
vn -0.4397 0.2535 0.8616
vn 0.7470 -0.5599 -0.3586
vn 0.2074 -0.8157 0.5400
vn 0.8962 -0.3966 -0.1989
vn 0.5773 -0.6458 -0.4997
vn 0.6384 -0.7101 0.2970
vn 0.7317 -0.3889 -0.5597
vn -0.6696 -0.6504 -0.3587
vn -0.9997 -0.0168 0.0176
vn -0.5892 0.5103 0.6264
vn -0.5277 0.4235 0.7364
vn 0.9962 -0.0803 0.0338
vn 0.6018 -0.6497 -0.4645
vn 0.0355 -0.5355 -0.8438
vn 0.7029 -0.7077 0.0713
vn 0.6386 -0.7243 -0.2600
vn -0.7295 -0.6137 -0.3021
vn -0.2717 -0.5219 -0.8086
vn -0.9914 -0.1063 -0.0761
vn 0.5426 0.2901 0.7883
vn -0.5320 -0.8029 0.2691
vn -0.6422 -0.6183 -0.4531
vn 0.1253 -0.5481 -0.8270
vn -0.5668 -0.8018 0.1893
vn 0.9998 -0.0221 0.0026
vn 0.1173 0.3586 0.9261
vn 0.6610 0.4185 0.6228
vn 0.2740 -0.6305 -0.7262
vn 0.0619 -0.5089 -0.8586
vn 0.8642 -0.3996 0.3059
vn -0.4617 -0.6866 0.5615
vn 0.5680 -0.7619 0.3113
vn -0.9371 -0.1691 -0.3052
vn -0.6046 -0.0668 -0.7937
vn 0.8553 -0.4693 -0.2194
vn 0.4786 -0.7133 0.5120
vn 0.5790 -0.1465 0.8021
vn -0.5964 -0.8022 0.0294
vn -0.3990 -0.4058 0.8223
vn -0.9985 -0.0550 0.0008
vn -0.9041 -0.0582 -0.4234
vn 0.6530 -0.1313 -0.7459
vn 0.5238 -0.6555 -0.5440
vn 0.5515 -0.6584 0.5123
vn -0.7122 -0.4254 0.5584
vn -0.7153 -0.6483 0.2608
vn 0.9974 -0.0160 0.0696
vn -0.6305 -0.6716 0.3892
vn 0.8998 -0.1607 -0.4055
vn -0.6015 -0.6645 -0.4434
vn 0.9532 -0.2125 -0.2151
vn -0.7883 -0.3495 -0.5064
vn -0.8947 -0.3796 -0.2355
vn -0.2219 -0.7686 0.6000
vn -0.5765 -0.6641 -0.4761
vn 0.8051 -0.4784 0.3507
vn -0.3267 -0.6603 -0.6763
vn -0.6007 -0.7992 0.0212
vn 0.7043 -0.7096 -0.0193
vn -0.0000 -1.0000 -0.0000
vn -0.0000 -1.0000 0.0001
vn -0.0000 -0.9923 -0.1238
vn -0.0326 -0.9992 -0.0243
vn -0.0000 -0.9935 -0.1141
vn -0.0000 -0.9273 -0.3743
vn -0.0000 -0.8873 -0.4612
vn -0.0003 -0.9418 -0.3361
vn -0.0019 -0.8884 -0.4591
vn -0.0000 -0.9983 -0.0585
vn -0.0001 -0.9938 -0.1114
vn 0.0003 -0.8996 -0.4367
vn 0.4834 -0.7852 -0.3870
vn -0.0259 -0.9996 -0.0124
vn -0.0217 -0.9991 -0.0353
vn -0.0001 -0.9820 -0.1888
vn -0.0000 -0.9731 -0.2304
vn -0.0014 1.0000 0.0003
vn 0.0004 1.0000 -0.0002
vn 0.0009 0.9889 0.1487
vn 0.0337 0.9992 0.0227
vn 0.0198 0.9937 0.1100
vn -0.0022 0.9286 0.3711
vn -0.0548 0.8849 0.4625
vn -0.0072 0.9410 0.3382
vn -0.1156 0.8752 0.4698
vn 0.0009 0.9983 0.0584
vn -0.0017 0.9959 0.0909
vn -0.0241 0.8992 0.4368
vn -0.5433 0.7645 0.3470
vn -0.0026 0.9998 0.0183
vn 0.0517 0.9983 0.0256
vn -0.0000 0.9851 0.1717
vn -0.0002 0.9974 -0.0719
vn -0.8757 0.2021 0.4385
vn -0.0001 0.9481 -0.3180
vn 0.0002 -0.6658 -0.7461
vn -0.3052 -0.9250 0.2265
vn 0.6087 0.7461 -0.2696
vn 0.7304 0.6829 -0.0082
vn 0.8282 -0.4946 -0.2635
vn -0.8193 -0.4442 -0.3624
vn 0.7343 -0.6751 -0.0705
vn 0.7126 -0.7009 -0.0303
vn -0.8595 0.4661 0.2098
vn -0.7906 0.6051 0.0933
vn -0.8001 -0.5999 0.0026
vn -0.8148 -0.5468 -0.1927
vn -0.7951 -0.5970 -0.1068
vn 0.8446 -0.4201 -0.3319
vn 0.8509 -0.5250 -0.0188
vn 0.8331 0.5318 0.1520
vn 0.4368 0.8961 0.0796
vn -0.5250 0.8491 0.0589
vn -0.9555 -0.2688 -0.1214
vn -0.9252 0.3500 0.1469
vn -0.9749 -0.1958 0.1060
vn -0.4305 0.8821 0.1912
vn 0.5651 0.6927 0.4482
vn 0.3560 0.9150 0.1897
vn 0.8201 -0.5224 -0.2335
vn 0.9095 -0.4073 0.0834
vn -0.8798 0.4395 0.1808
vn 0.7308 0.6763 -0.0925
vn -0.8535 -0.5201 -0.0332
vn 0.8770 0.4777 0.0510
vn -0.8965 -0.4243 -0.1275
vn -0.9589 -0.2220 0.1766
vn 0.6380 0.4048 0.6550
vn 0.9967 0.0705 0.0402
vn 0.6202 0.7189 0.3138
vn -0.4475 0.8886 0.1006
vn -0.7975 -0.5939 -0.1060
vn 0.7620 -0.6464 0.0385
vn 0.8939 -0.3961 0.2098
vn -0.7991 0.5993 -0.0479
vn -0.2267 -0.9670 -0.1161
vn -0.2117 -0.9770 0.0269
vn -0.2032 -0.9791 0.0055
vn 0.2548 -0.9670 0.0015
vn 0.1906 -0.9814 -0.0238
vn 0.1903 -0.9786 0.0789
vn -0.1501 -0.9887 0.0009
vn 0.1615 -0.9866 0.0217
vn 0.1990 -0.9715 -0.1289
vn -0.1376 -0.9835 -0.1172
vn -0.1505 -0.9885 -0.0138
vn -0.5209 0.8510 -0.0667
vn -0.4418 0.8960 0.0448
vn 0.9637 -0.2591 0.0647
vn -0.7998 0.5998 0.0221
vn 0.1139 -0.9878 -0.1058
vn 0.1245 -0.9842 -0.1257
vn 0.9994 -0.0278 -0.0206
vn -0.1197 -0.9861 -0.1156
vn 0.2018 -0.9673 -0.1534
vn -0.2256 -0.9671 -0.1173
vn -0.2346 -0.9133 -0.3331
vn 0.2253 -0.9023 -0.3675
vn -0.1396 -0.9188 -0.3692
vn 0.4370 0.8975 0.0592
vn 0.1362 -0.9096 -0.3925
vn 0.2920 -0.8241 -0.4854
vn 0.3514 0.9298 0.1098
vn -0.0853 -0.8885 -0.4509
vn 0.2160 -0.8221 -0.5268
vn -0.1731 -0.8949 -0.4114
vn 0.1721 -0.9062 -0.3863
vn -0.7823 0.5857 -0.2120
vn -0.1341 -0.9334 -0.3329
vn 0.2003 -0.8950 -0.3985
vn -0.2084 -0.9295 -0.3042
vn -0.1033 -0.9263 -0.3622
vn 0.2727 -0.7976 -0.5380
vn -0.0291 -0.8964 -0.4423
vn 0.6846 0.6926 -0.2270
vn 0.4338 -0.7620 -0.4808
vn 0.2712 -0.9588 -0.0848
vn -0.8325 -0.5541 -0.0012
vn -0.1397 -0.9884 -0.0600
vn 0.1285 -0.9899 -0.0599
vn 0.2073 -0.9777 -0.0324
vn -0.2245 -0.9734 -0.0466
vn -0.2235 -0.9678 -0.1155
vn 0.2083 -0.9698 -0.1273
vn -0.1194 -0.9865 -0.1122
vn 0.7820 0.6137 -0.1091
vn 0.1406 -0.9787 -0.1494
vn -0.1924 -0.9006 -0.3898
vn 0.2046 -0.8615 -0.4647
vn -0.1352 -0.8958 -0.4235
vn -0.9197 -0.2674 -0.2877
vn 0.2164 -0.8628 -0.4570
vn 0.5167 -0.8084 -0.2820
vn 0.8781 -0.4781 0.0157
vn 0.0544 -0.8953 -0.4421
vn 0.3173 -0.7805 -0.5386
vn -0.0548 -0.9164 -0.3965
vn 0.1399 -0.9405 -0.3098
vn -0.2176 -0.9198 -0.3264
vn 0.8381 -0.4387 -0.3241
vn 0.8545 0.3655 0.3691
vn -0.9232 0.3759 -0.0804
vn -0.8962 -0.3990 -0.1939
vn 0.2266 0.9671 0.1160
vn 0.2241 0.9746 -0.0009
vn 0.2126 0.9771 0.0073
vn -0.2549 0.9670 -0.0011
vn -0.1869 0.9821 0.0225
vn -0.1904 0.9786 -0.0782
vn 0.1499 0.9887 -0.0001
vn -0.1603 0.9869 -0.0208
vn -0.2043 0.9719 0.1173
vn 0.1373 0.9836 0.1170
vn 0.1382 0.9904 0.0013
vn 0.8003 0.5222 0.2946
vn -0.9923 -0.0720 -0.1009
vn -0.8816 -0.4686 -0.0561
vn 0.9966 0.0641 0.0523
vn -0.1138 0.9879 0.1057
vn -0.1386 0.9844 0.1083
vn -0.8711 0.4907 0.0214
vn 0.1198 0.9860 0.1156
vn -0.2084 0.9694 0.1301
vn 0.2255 0.9672 0.1173
vn 0.2343 0.9137 0.3321
vn -0.2007 0.8965 0.3949
vn 0.1390 0.9198 0.3670
vn 0.8954 -0.4453 -0.0029
vn -0.1709 0.9142 0.3674
vn -0.4114 0.8077 0.4224
vn 0.8771 0.4782 0.0457
vn 0.0853 0.8886 0.4506
vn -0.2449 0.8392 0.4856
vn 0.1729 0.8950 0.4112
vn -0.2161 0.9169 0.3357
vn -0.9474 0.3146 0.0588
vn 0.1336 0.9334 0.3330
vn -0.2018 0.8968 0.3938
vn 0.2082 0.9294 0.3046
vn 0.1026 0.9277 0.3589
vn -0.2813 0.8239 0.4920
vn 0.0306 0.8965 0.4420
vn -0.6502 0.6941 0.3092
vn -0.5189 0.7624 0.3867
vn -0.1148 0.9934 -0.0002
vn -0.1674 0.9317 0.3223
vn -0.7449 0.6659 -0.0418
vn 0.1359 0.9891 0.0562
vn -0.1287 0.9899 0.0600
vn -0.2072 0.9777 0.0326
vn 0.2237 0.9736 0.0453
vn 0.2232 0.9671 0.1222
vn -0.2017 0.9655 0.1647
vn 0.1198 0.9860 0.1161
vn 0.9919 0.0481 0.1175
vn -0.1419 0.9786 0.1492
vn 0.1924 0.9005 0.3900
vn -0.2068 0.8652 0.4567
vn 0.1341 0.8965 0.4223
vn -0.9296 -0.3340 -0.1558
vn -0.2145 0.8908 0.4006
vn -0.4910 0.7736 0.4005
vn 0.8987 0.4384 0.0145
vn -0.0508 0.8947 0.4437
vn -0.3253 0.7449 0.5825
vn 0.0543 0.9164 0.3965
vn -0.1390 0.9407 0.3094
vn -0.1151 0.9866 0.1161
vn 0.2201 0.9196 0.3256
vn -0.0993 0.8899 0.4453
vn 0.2120 0.8697 0.4458
vn -0.1137 0.8819 0.4576
vn 0.2209 0.8654 0.4499
vn -0.7990 -0.5990 -0.0538
vn -0.8201 -0.5586 -0.1246
vn 0.8202 -0.5432 -0.1792
vn -0.8581 0.4712 0.2043
vn 0.9707 0.2188 0.0990
vn -0.8498 -0.4116 0.3294
vn -0.4776 0.5723 -0.6666
vn 0.6940 0.3090 0.6503
vn 0.8555 -0.5155 0.0485
vn -0.3385 -0.1957 0.9204
vn -0.9993 -0.0359 -0.0041
vn -0.8890 0.3870 -0.2449
vn 0.9822 -0.0523 -0.1806
vn -0.7869 0.4582 -0.4133
vn 0.9547 0.0820 -0.2862
vn -0.4155 0.1786 0.8919
vn 0.9886 -0.1362 0.0647
vn -0.9134 0.1322 0.3850
vn -0.6359 -0.0623 0.7693
vn 0.7467 0.4041 -0.5283
vn 0.7599 0.3545 -0.5448
vn -0.9392 0.2249 -0.2593
vn -0.9986 -0.0517 -0.0100
vn -0.3779 -0.2976 0.8767
vn -0.8456 0.2358 0.4789
vn 0.5899 -0.3401 0.7324
vn 0.4440 -0.1625 0.8812
vn -0.6671 0.4822 -0.5679
vn 0.7316 -0.1387 0.6674
vn -0.3357 -0.1107 0.9354
vn 0.8281 0.0218 0.5602
vn -0.2096 0.5504 -0.8081
vn 0.5088 0.5395 -0.6709
vn -0.0855 -0.5122 0.8546
vn 0.9930 -0.1183 0.0050
vn -0.7940 -0.1716 0.5832
vn 0.2725 0.6312 -0.7262
vn -0.7892 0.5265 -0.3162
vn -0.7821 -0.1338 0.6086
vn 0.6154 -0.3894 0.6853
vn -0.9655 0.2512 -0.0681
vn -0.4347 0.4972 -0.7509
vn 0.9217 -0.0331 0.3865
vn 0.2549 0.6080 -0.7519
vn 0.8434 0.4212 -0.3336
vn 0.9876 -0.1540 0.0291
vn -0.9965 0.0803 0.0209
vn -0.8448 0.3648 -0.3915
vn 0.8835 0.3873 -0.2635
vn 0.8916 0.1542 0.4258
vn 0.8023 0.4026 -0.4408
vn -0.7920 0.1505 0.5916
vn 0.4295 -0.1196 0.8951
vn 0.7272 0.6693 -0.1526
vn -0.7344 0.6547 -0.1790
vn -0.9989 0.0418 0.0230
vn 0.8151 0.5044 -0.2849
vn 0.4780 -0.1307 0.8686
vn -0.8260 -0.3858 0.4109
vn 0.9089 0.0155 0.4168
vn 0.3767 -0.4863 0.7884
vn -0.7780 -0.0024 0.6283
vn -0.9642 0.2130 0.1577
vn -0.7424 -0.6692 0.0321
vn 0.2292 0.5609 0.7955
vn 0.8188 -0.5562 0.1423
vn 0.1496 -0.9228 0.3550
vn -0.5688 -0.8214 0.0421
vn 0.2496 -0.8230 0.5102
vn 0.8686 -0.3846 -0.3125
vn -0.9993 -0.0281 0.0239
vn -0.7582 -0.5440 -0.3595
vn 0.7668 -0.5126 -0.3865
vn 0.2137 -0.8092 0.5472
vn 0.9296 -0.3212 -0.1805
vn 0.5551 -0.6684 -0.4950
vn 0.6402 -0.7083 0.2973
vn 0.7321 -0.3884 -0.5596
vn -0.6552 -0.6711 -0.3470
vn -0.9994 0.0306 0.0164
vn -0.5277 0.4235 0.7363
vn 0.9970 -0.0700 0.0324
vn 0.5927 -0.6587 -0.4635
vn 0.0387 -0.5284 -0.8481
vn 0.7149 -0.6932 0.0913
vn -0.2559 -0.5859 -0.7689
vn -0.9871 -0.1416 -0.0745
vn 0.5269 0.3150 0.7894
vn -0.5201 -0.8216 0.2334
vn -0.6908 -0.5587 -0.4590
vn 0.1266 -0.5265 -0.8407
vn -0.5585 -0.8118 0.1708
vn 0.9928 -0.1198 0.0050
vn 0.1140 0.3538 0.9283
vn 0.2768 -0.6266 -0.7285
vn 0.0720 -0.5300 -0.8450
vn 0.8212 -0.5482 0.1581
vn -0.4603 -0.6849 0.5649
vn 0.5322 -0.8114 0.2417
vn -0.6349 0.0039 -0.7726
vn 0.4789 -0.7146 0.5100
vn 0.5913 -0.1938 0.7828
vn -0.5982 -0.8007 0.0312
vn -0.3994 -0.4069 0.8215
vn -0.9952 -0.0978 0.0056
vn -0.9236 -0.0026 -0.3833
vn 0.6174 -0.1853 -0.7645
vn 0.5125 -0.6676 -0.5401
vn -0.6835 -0.6827 0.2582
vn 0.9972 0.0287 0.0689
vn -0.6131 -0.6521 0.4459
vn 0.9098 -0.1442 -0.3891
vn -0.6424 -0.6184 -0.4527
vn 0.9846 -0.1275 -0.1194
vn -0.7548 -0.3996 -0.5202
vn -0.9604 -0.2535 -0.1155
vn -0.1885 -0.8201 0.5403
vn -0.9333 -0.1516 -0.3255
vn 0.7885 -0.4137 0.4550
vn -0.3643 -0.5975 -0.7143
vn -0.5992 -0.8005 0.0054
vn 0.7150 -0.6990 -0.0116
vn 0.0001 -0.9998 -0.0182
vn -0.0193 -0.9937 -0.1104
vn 0.0001 -0.9273 -0.3743
vn -0.0000 -0.9418 -0.3360
vn -0.0000 -0.8885 -0.4589
vn -0.0198 -0.9934 -0.1131
vn -0.0000 -0.8996 -0.4367
vn -0.0018 -0.8504 -0.5261
vn 0.0026 -0.9998 -0.0182
vn -0.0536 -0.9982 -0.0254
vn -0.0000 -0.9820 -0.1890
vn 0.0314 -0.9753 -0.2187
vn -0.0002 1.0000 0.0005
vn -0.0014 1.0000 -0.0000
vn 0.0007 0.9889 0.1487
vn 0.0004 0.9999 0.0163
vn 0.0009 0.9936 0.1134
vn 0.0009 0.9288 0.3707
vn -0.0235 0.8874 0.4604
vn -0.0029 0.9415 0.3371
vn -0.0549 0.8856 0.4612
vn -0.0003 0.9983 0.0582
vn 0.0166 0.9956 0.0922
vn -0.0052 0.9002 0.4354
vn -0.1147 0.8604 0.4965
vn 0.0260 0.9996 0.0125
vn 0.0216 0.9991 0.0355
vn -0.0003 0.9852 0.1713
vn 0.0097 0.9976 -0.0678
vn -0.7048 -0.1015 0.7021
vn 0.0001 0.9481 -0.3181
vn -0.0001 -0.6660 -0.7459
vn -0.2790 -0.9138 0.2952
vn 0.8642 0.4297 -0.2617
vn 0.6322 0.7746 -0.0162
vn 0.6913 -0.6309 -0.3523
vn -0.9489 -0.2100 -0.2354
vn 0.9078 -0.4056 -0.1066
vn 0.7654 -0.6423 -0.0401
vn -0.8806 0.4367 0.1837
vn -0.8954 0.4354 0.0929
vn -0.7502 -0.6611 0.0063
vn -0.8454 -0.5020 -0.1822
vn -0.9794 -0.1967 -0.0468
vn 0.8071 -0.4981 -0.3170
vn 0.9127 -0.4087 -0.0056
vn 0.6164 0.7328 0.2883
vn 0.7289 0.6815 0.0658
vn -0.5769 0.8153 0.0501
vn -0.9759 -0.2083 -0.0652
vn -0.7355 0.6186 0.2763
vn -0.9315 -0.3447 0.1163
vn -0.9246 0.3583 0.1298
vn 0.9941 0.0730 0.0805
vn 0.4753 0.8611 0.1806
vn 0.9539 -0.2929 -0.0659
vn 0.7051 -0.6981 0.1246
vn -0.7342 0.6033 0.3114
vn 0.3729 0.9262 0.0555
vn -0.7983 -0.6018 -0.0232
vn 0.6959 0.7156 0.0611
vn -0.9843 -0.1677 -0.0554
vn -0.9618 -0.2036 0.1830
vn 0.5459 0.3009 0.7819
vn 0.9501 -0.2958 -0.0994
vn 0.7903 0.5655 0.2358
vn -0.4366 0.8938 0.1026
vn -0.6975 -0.7076 -0.1136
vn 0.7292 -0.6832 0.0380
vn 0.9546 -0.1660 0.2474
vn -0.7932 0.6072 -0.0469
vt 0.202312 0.385995
vt 0.203262 0.388093
vt 0.201795 0.386584
vt 0.202761 0.385315
vt 0.204147 0.385696
vt 0.204140 0.386543
vt 0.202968 0.384690
vt 0.204244 0.384770
vt 0.201501 0.382554
vt 0.201741 0.383730
vt 0.200299 0.382686
vt 0.202308 0.383037
vt 0.202227 0.384091
vt 0.201164 0.384036
vt 0.199772 0.382935
vt 0.202425 0.384252
vt 0.203516 0.383854
vt 0.201835 0.384548
vt 0.198489 0.384148
vt 0.200578 0.384603
vt 0.200093 0.385219
vt 0.201528 0.385359
vt 0.201034 0.385967
vt 0.202055 0.384727
vt 0.196747 0.385205
vt 0.197132 0.385676
vt 0.197635 0.386350
vt 0.198120 0.386977
vt 0.198928 0.388321
vt 0.199298 0.388018
vt 0.202545 0.382973
vt 0.202570 0.382370
vt 0.200835 0.385805
vt 0.199727 0.385747
vt 0.200434 0.386304
vt 0.198399 0.388943
vt 0.201344 0.387039
vt 0.200629 0.386463
vt 0.198383 0.384548
vt 0.202761 0.388326
vt 0.200835 0.387396
vt 0.201196 0.389103
vt 0.200090 0.388039
vt 0.197780 0.386312
vt 0.199459 0.386310
vt 0.198960 0.387155
vt 0.200232 0.386921
vt 0.199593 0.387683
vt 0.197403 0.386530
vt 0.196879 0.385876
vt 0.200060 0.386781
vt 0.199439 0.387558
vt 0.198175 0.388690
vt 0.198828 0.388240
vt 0.198321 0.388880
vt 0.198283 0.387659
vt 0.197889 0.387154
vt 0.198585 0.389000
vt 0.197799 0.387874
vt 0.198565 0.387994
vt 0.199208 0.388491
vt 0.199646 0.389271
vt 0.198797 0.387597
vt 0.199171 0.387915
vt 0.202521 0.380524
vt 0.202560 0.380670
vt 0.199682 0.388280
vt 0.197788 0.386636
vt 0.200672 0.388999
vt 0.198935 0.389397
vt 0.198273 0.389254
vt 0.197755 0.388403
vt 0.197980 0.389039
vt 0.198134 0.389255
vt 0.197018 0.387280
vt 0.197085 0.387423
vt 0.198068 0.389200
vt 0.199986 0.382345
vt 0.197360 0.385663
vt 0.196562 0.385461
vt 0.197505 0.384963
vt 0.199897 0.389857
vt 0.199808 0.389565
vt 0.200172 0.389536
vt 0.202572 0.389069
vt 0.202242 0.389975
vt 0.201842 0.389271
vt 0.196927 0.387721
vt 0.197245 0.387397
vt 0.197316 0.387770
vt 0.204605 0.385803
vt 0.197390 0.384304
vt 0.198009 0.383633
vt 0.198126 0.384140
vt 0.203804 0.388492
vt 0.203266 0.389096
vt 0.203289 0.388318
vt 0.202724 0.380631
vt 0.202741 0.381280
vt 0.201327 0.385195
vt 0.199027 0.383195
vt 0.204046 0.387391
vt 0.202535 0.388562
vt 0.198144 0.384942
vt 0.197043 0.387580
vt 0.200322 0.389181
vt 0.197778 0.387097
vt 0.202587 0.380377
vt 0.202679 0.380452
vt 0.197714 0.389005
vt 0.197507 0.389648
vt 0.196858 0.388335
vt 0.196853 0.388721
vt 0.198353 0.389591
vt 0.197577 0.389930
vt 0.197724 0.388589
vt 0.198676 0.389535
vt 0.199638 0.382544
vt 0.199933 0.382568
vt 0.204491 0.386185
vt 0.204388 0.385899
vt 0.197407 0.388948
vt 0.198463 0.389821
vt 0.196927 0.387352
vt 0.199995 0.389634
vt 0.199620 0.389309
vt 0.195561 0.389262
vt 0.196575 0.387168
vt 0.197085 0.387774
vt 0.196130 0.386466
vt 0.194713 0.386821
vt 0.195934 0.385831
vt 0.194640 0.385895
vt 0.195404 0.384986
vt 0.197257 0.384837
vt 0.197519 0.383671
vt 0.198713 0.383841
vt 0.196709 0.384135
vt 0.197831 0.385162
vt 0.199246 0.384099
vt 0.196513 0.385388
vt 0.195761 0.384520
vt 0.200521 0.385373
vt 0.198418 0.385761
vt 0.199999 0.384399
vt 0.200511 0.390270
vt 0.202736 0.382374
vt 0.198898 0.386397
vt 0.199255 0.386934
vt 0.202574 0.381290
vt 0.197528 0.388240
vt 0.200629 0.385772
vt 0.196060 0.389507
vt 0.197645 0.390369
vt 0.198051 0.388635
vt 0.198796 0.389321
vt 0.201223 0.387604
vt 0.199535 0.387529
vt 0.200874 0.386200
vt 0.198693 0.388154
vt 0.199327 0.388959
vt 0.196901 0.389839
vt 0.200032 0.388413
vt 0.198899 0.387996
vt 0.200822 0.389977
vt 0.200141 0.389524
vt 0.200433 0.389274
vt 0.197018 0.388728
vt 0.197024 0.388347
vt 0.200305 0.390328
vt 0.201187 0.389195
vt 0.201222 0.388413
vt 0.199218 0.390590
vt 0.199689 0.389810
vt 0.200193 0.388864
vt 0.199520 0.388815
vt 0.199787 0.389182
vt 0.199206 0.389577
vt 0.201218 0.387936
vt 0.198181 0.390276
vt 0.199935 0.390709
vt 0.200624 0.390578
vt 0.201242 0.389721
vt 0.200788 0.390575
vt 0.201024 0.390312
vt 0.200643 0.390175
vt 0.199027 0.383523
vt 0.199076 0.383745
vt 0.201636 0.386959
vt 0.202442 0.386769
vt 0.202399 0.386930
vt 0.199038 0.390894
vt 0.198940 0.391185
vt 0.198675 0.390856
vt 0.196264 0.390300
vt 0.196567 0.391218
vt 0.196474 0.391251
vt 0.201726 0.388739
vt 0.202033 0.389073
vt 0.201645 0.389110
vt 0.194248 0.386922
vt 0.200999 0.384878
vt 0.201603 0.385563
vt 0.200870 0.385381
vt 0.195005 0.389650
vt 0.195530 0.390264
vt 0.195434 0.390541
vt 0.194703 0.387675
vt 0.196302 0.389775
vt 0.198512 0.387484
vt 0.198540 0.390484
vt 0.201262 0.390309
vt 0.200904 0.390485
vt 0.197067 0.389834
vt 0.200522 0.390923
vt 0.201350 0.391251
vt 0.201272 0.389914
vt 0.200187 0.390852
vt 0.194787 0.388539
vt 0.196989 0.390520
vt 0.199372 0.383729
vt 0.194354 0.387305
vt 0.194183 0.387356
vt 0.201521 0.390287
vt 0.201522 0.390409
vt 0.200375 0.391184
vt 0.202687 0.383586
vt 0.202711 0.382980
vt 0.197369 0.389801
vt 0.197362 0.389454
vt 0.197446 0.389794
vt 0.197196 0.388667
vt 0.197124 0.388825
vt 0.197127 0.388651
vt 0.198052 0.386317
vt 0.198117 0.384842
vt 0.198203 0.384830
vt 0.202205 0.384912
vt 0.202281 0.385157
vt 0.202205 0.385185
vt 0.196879 0.387539
vt 0.199058 0.391155
vt 0.199142 0.391688
vt 0.199067 0.391725
vt 0.197192 0.388840
vt 0.197129 0.389283
vt 0.194297 0.385107
vt 0.194280 0.386091
vt 0.194217 0.385105
vt 0.197220 0.391005
vt 0.197274 0.391355
vt 0.197205 0.391389
vt 0.198886 0.387363
vt 0.198849 0.386679
vt 0.198926 0.386661
vt 0.194542 0.381619
vt 0.194602 0.382009
vt 0.194531 0.382031
vt 0.194695 0.388784
vt 0.194665 0.388615
vt 0.194769 0.388760
vt 0.196952 0.388249
vt 0.203251 0.384781
vt 0.203179 0.384403
vt 0.203257 0.384390
vt 0.198597 0.381162
vt 0.198534 0.381335
vt 0.198534 0.381122
vt 0.192895 0.385824
vt 0.192963 0.386192
vt 0.192889 0.386228
vt 0.196775 0.382034
vt 0.196844 0.381279
vt 0.196855 0.382049
vt 0.197377 0.390261
vt 0.197298 0.390265
vt 0.192560 0.387000
vt 0.192500 0.387574
vt 0.192487 0.386987
vt 0.202591 0.383522
vt 0.202616 0.382906
vt 0.199516 0.385475
vt 0.199505 0.386036
vt 0.199443 0.385444
vt 0.196909 0.393542
vt 0.196792 0.392894
vt 0.196866 0.392907
vt 0.199141 0.392446
vt 0.199067 0.392491
vt 0.192895 0.385326
vt 0.192969 0.385795
vt 0.194613 0.382432
vt 0.194543 0.382461
vt 0.194762 0.388702
vt 0.194686 0.389250
vt 0.194686 0.388688
vt 0.192575 0.387599
vt 0.192503 0.388016
vt 0.203184 0.385381
vt 0.203187 0.386049
vt 0.203109 0.386052
vt 0.203184 0.385131
vt 0.203259 0.385381
vt 0.194669 0.389515
vt 0.194593 0.389514
vt 0.197912 0.383896
vt 0.197829 0.383924
vt 0.196572 0.385585
vt 0.196608 0.386384
vt 0.196485 0.385595
vt 0.201004 0.388916
vt 0.201106 0.389555
vt 0.201026 0.389600
vt 0.199882 0.392176
vt 0.199818 0.392436
vt 0.199806 0.392142
vt 0.196996 0.389768
vt 0.192619 0.386625
vt 0.192546 0.386609
vt 0.196581 0.387449
vt 0.196485 0.387951
vt 0.196493 0.387436
vt 0.198819 0.388376
vt 0.198807 0.387382
vt 0.192606 0.386357
vt 0.192680 0.386375
vt 0.201011 0.388565
vt 0.201084 0.388882
vt 0.202641 0.382292
vt 0.202646 0.381187
vt 0.197803 0.383303
vt 0.197892 0.383284
vt 0.198899 0.388368
vt 0.198807 0.389357
vt 0.196745 0.383968
vt 0.196860 0.384955
vt 0.196779 0.384975
vt 0.194485 0.381287
vt 0.194613 0.381599
vt 0.196697 0.386385
vt 0.196779 0.382856
vt 0.196826 0.383964
vt 0.196947 0.388638
vt 0.203665 0.383956
vt 0.203590 0.384106
vt 0.203586 0.383948
vt 0.203669 0.384116
vt 0.203568 0.384723
vt 0.202630 0.380542
vt 0.198905 0.386142
vt 0.198984 0.386117
vt 0.197290 0.391223
vt 0.197210 0.391242
vt 0.197287 0.389473
vt 0.197201 0.389033
vt 0.196860 0.382867
vt 0.196834 0.393515
vt 0.199549 0.384785
vt 0.199475 0.384764
vt 0.196973 0.387454
vt 0.203646 0.384744
vt 0.203590 0.384886
vt 0.193659 0.385840
vt 0.193735 0.385893
vt 0.193655 0.385928
vt 0.197890 0.386657
vt 0.197963 0.386295
vt 0.201084 0.389782
vt 0.201004 0.389831
vt 0.197014 0.390367
vt 0.197085 0.390425
vt 0.193611 0.385546
vt 0.193738 0.385807
vt 0.199579 0.386077
vt 0.199502 0.386135
vt 0.199579 0.384232
vt 0.199506 0.384217
vt 0.199874 0.392647
vt 0.199818 0.392791
vt 0.199799 0.392606
vt 0.197212 0.388209
vt 0.197139 0.388194
vt 0.196832 0.387071
vt 0.196782 0.386997
vt 0.196832 0.386995
vt 0.199894 0.392474
vt 0.194296 0.386210
vt 0.194359 0.386113
vt 0.201682 0.386135
vt 0.201764 0.385787
vt 0.201764 0.386152
vt 0.197207 0.390761
vt 0.197291 0.390961
vt 0.192969 0.386225
vt 0.192895 0.386261
vt 0.194593 0.388610
vt 0.194595 0.388654
vt 0.193576 0.385163
vt 0.193692 0.385518
vt 0.197203 0.389322
vt 0.197124 0.389381
vt 0.203259 0.385266
vt 0.203174 0.384791
vt 0.203342 0.385227
vt 0.203335 0.384766
vt 0.197402 0.389069
vt 0.197315 0.389018
vt 0.196357 0.387932
vt 0.196405 0.387577
vt 0.196438 0.387962
vt 0.198414 0.389837
vt 0.198424 0.389934
vt 0.198375 0.389950
vt 0.196805 0.387722
vt 0.196905 0.387672
vt 0.197114 0.390928
vt 0.204659 0.386239
vt 0.204707 0.385802
vt 0.204761 0.386245
vt 0.196506 0.385614
vt 0.196465 0.385449
vt 0.199368 0.392793
vt 0.199276 0.392521
vt 0.199368 0.392489
vt 0.199833 0.389958
vt 0.199849 0.389844
vt 0.197700 0.387924
vt 0.199983 0.392751
vt 0.199964 0.392566
vt 0.199642 0.384769
vt 0.199672 0.384228
vt 0.199669 0.386137
vt 0.199672 0.386038
vt 0.196318 0.388227
vt 0.196399 0.388261
vt 0.196919 0.390427
vt 0.200920 0.389754
vt 0.199549 0.382396
vt 0.199977 0.382257
vt 0.193576 0.385899
vt 0.199533 0.387737
vt 0.199438 0.387646
vt 0.199533 0.387579
vt 0.199611 0.385446
vt 0.204232 0.386557
vt 0.204131 0.387425
vt 0.198498 0.384374
vt 0.198396 0.383970
vt 0.198498 0.383926
vt 0.197123 0.391175
vt 0.199752 0.382849
vt 0.200292 0.382597
vt 0.197056 0.391295
vt 0.196962 0.390567
vt 0.197030 0.390517
vt 0.196988 0.390339
vt 0.197056 0.390292
vt 0.203883 0.388547
vt 0.203594 0.383816
vt 0.204338 0.384751
vt 0.200676 0.389086
vt 0.200312 0.389279
vt 0.203354 0.389373
vt 0.203426 0.389442
vt 0.198973 0.389352
vt 0.198985 0.388370
vt 0.202896 0.383156
vt 0.202328 0.382951
vt 0.202940 0.383087
vt 0.200920 0.388854
vt 0.197694 0.386323
vt 0.198988 0.383124
vt 0.203197 0.383401
vt 0.197696 0.386656
vt 0.199983 0.392396
vt 0.199971 0.392103
vt 0.200942 0.389528
vt 0.193787 0.389310
vt 0.193901 0.388702
vt 0.193897 0.389397
vt 0.199623 0.389369
vt 0.198896 0.389485
vt 0.192680 0.387969
vt 0.192677 0.387527
vt 0.194850 0.389195
vt 0.194843 0.388625
vt 0.194437 0.382377
vt 0.192797 0.385764
vt 0.198970 0.392405
vt 0.197603 0.389062
vt 0.192662 0.386935
vt 0.197210 0.390214
vt 0.204241 0.385691
vt 0.192791 0.386161
vt 0.198712 0.381327
vt 0.198712 0.381113
vt 0.203342 0.384383
vt 0.199373 0.383786
vt 0.199247 0.383662
vt 0.199374 0.383613
vt 0.194426 0.381954
vt 0.197101 0.391291
vt 0.194448 0.386069
vt 0.194388 0.385077
vt 0.197304 0.389228
vt 0.197286 0.388736
vt 0.197279 0.385660
vt 0.202107 0.385136
vt 0.201510 0.382457
vt 0.197642 0.388459
vt 0.202822 0.388379
vt 0.202582 0.388632
vt 0.204316 0.381414
vt 0.205016 0.381160
vt 0.204404 0.381730
vt 0.203452 0.382889
vt 0.203582 0.382197
vt 0.204147 0.382024
vt 0.204863 0.380798
vt 0.204699 0.380903
vt 0.194022 0.382275
vt 0.194696 0.382524
vt 0.194596 0.382838
vt 0.201450 0.390949
vt 0.195526 0.383996
vt 0.195409 0.383307
vt 0.195744 0.383789
vt 0.194843 0.383135
vt 0.194344 0.382025
vt 0.193978 0.382117
vt 0.194205 0.381942
vt 0.196090 0.384266
vt 0.196792 0.393695
vt 0.201331 0.383562
vt 0.201192 0.383300
vt 0.201331 0.383279
vt 0.205085 0.380979
vt 0.204920 0.380726
vt 0.205146 0.380910
vt 0.197393 0.389711
vt 0.202521 0.383580
vt 0.196602 0.385624
vt 0.202334 0.390010
vt 0.197178 0.384216
vt 0.199565 0.382481
vt 0.201508 0.386257
vt 0.198988 0.391174
vt 0.202055 0.389025
vt 0.194465 0.387022
vt 0.201817 0.385481
vt 0.195528 0.389486
vt 0.199446 0.383669
vt 0.200423 0.391201
vt 0.202280 0.384916
vt 0.199133 0.391136
vt 0.198597 0.381379
vt 0.196765 0.381256
vt 0.192969 0.385319
vt 0.194766 0.389278
vt 0.192578 0.388048
vt 0.203109 0.385132
vt 0.196575 0.387956
vt 0.201090 0.388543
vt 0.198887 0.389365
vt 0.194556 0.381261
vt 0.197123 0.389046
vt 0.203669 0.384909
vt 0.197803 0.386630
vt 0.199576 0.386178
vt 0.199894 0.392834
vt 0.196781 0.387072
vt 0.194217 0.386187
vt 0.201682 0.385764
vt 0.197278 0.390722
vt 0.194663 0.388572
vt 0.193656 0.385144
vt 0.197198 0.389422
vt 0.203184 0.385284
vt 0.197310 0.389141
vt 0.196318 0.387550
vt 0.196827 0.387771
vt 0.197101 0.390686
vt 0.199276 0.392830
vt 0.199881 0.389971
vt 0.193580 0.385812
vt 0.199438 0.387806
vt 0.198396 0.384425
vt 0.196988 0.391358
vt 0.200927 0.388502
vt 0.197957 0.383578
vt 0.203257 0.383345
vt 0.197682 0.387132
vt 0.193787 0.388626
vt 0.199791 0.389674
vt 0.192798 0.385260
vt 0.198970 0.391657
vt 0.197280 0.389768
vt 0.199247 0.383844
vt 0.194436 0.381553
vt 0.202107 0.384841
vt 0.197608 0.388650
vt 0.203239 0.382676
vt 0.196871 0.393723
vt 0.201192 0.383579
vt 0.197477 0.390010
s 0
g leaf_1_Material
usemtl Material
f 11/1/1 28/2/1 30/3/1
f 76/4/2 6/5/2 74/6/2
f 13/7/3 7/8/3 6/5/3
f 8/9/4 14/10/4 3/11/4
f 16/12/5 23/13/5 14/10/5
f 3/11/6 75/14/6 73/15/6
f 24/16/7 15/17/7 13/7/7
f 14/10/8 78/18/8 75/14/8
f 27/19/9 12/20/9 29/21/9
f 22/22/10 30/3/10 31/23/10
f 77/24/11 13/7/11 76/4/11
f 149/25/12 372/26/12 365/25/12
f 153/27/13 382/28/13 369/27/13
f 44/29/14 355/30/14 90/30/14
f 164/31/15 398/32/15 246/32/15
f 12/20/16 32/33/16 29/21/16
f 80/34/17 32/33/17 84/35/17
f 56/36/18 354/29/18 44/29/18
f 31/23/19 81/37/19 82/38/19
f 83/39/20 29/21/20 80/34/20
f 30/3/21 79/40/21 81/37/21
f 37/41/22 45/42/22 47/43/22
f 49/44/23 36/45/23 46/46/23
f 38/47/24 47/43/24 48/48/24
f 154/49/25 371/50/25 370/49/25
f 46/46/26 34/51/26 50/52/26
f 54/53/27 40/54/27 52/55/27
f 169/56/28 375/57/28 381/56/28
f 44/29/29 55/58/29 56/36/29
f 51/59/30 42/60/30 54/53/30
f 43/61/31 53/62/31 55/58/31
f 88/63/32 50/52/32 86/64/32
f 248/65/33 379/66/33 400/65/33
f 48/48/34 89/67/34 90/30/34
f 85/68/35 46/46/35 88/63/35
f 47/43/36 87/69/36 89/67/36
f 55/58/37 93/70/37 95/71/37
f 91/72/38 54/53/38 94/73/38
f 56/36/39 95/71/39 96/74/39
f 322/75/40 399/76/40 247/76/40
f 94/73/41 52/55/41 92/77/41
f 3/11/42 62/78/42 8/9/42
f 97/79/43 65/80/43 98/81/43
f 68/82/44 116/83/44 115/84/44
f 103/85/45 69/86/45 104/87/45
f 71/88/46 114/89/46 113/90/46
f 61/91/47 6/5/47 7/8/47
f 63/92/48 100/93/48 99/94/48
f 101/95/49 64/96/49 102/97/49
f 19/98/50 361/99/50 120/99/50
f 22/22/51 76/4/51 11/1/51
f 75/14/52 21/100/52 12/20/52
f 73/15/53 12/20/53 4/101/53
f 11/1/54 74/6/54 5/102/54
f 81/37/55 35/103/55 37/41/55
f 33/104/56 80/34/56 36/45/56
f 82/38/57 37/41/57 38/47/57
f 247/76/58 378/105/58 162/105/58
f 36/45/59 84/35/59 34/51/59
f 89/67/60 41/106/60 43/61/60
f 39/107/61 88/63/61 42/60/61
f 90/30/62 43/61/62 44/29/62
f 321/108/63 364/109/63 121/109/63
f 42/60/64 86/64/64 40/54/64
f 9/110/65 92/77/65 18/111/65
f 119/112/66 360/113/66 341/112/66
f 96/74/67 10/114/67 17/115/67
f 1/116/68 94/73/68 9/110/68
f 95/71/69 2/117/69 10/114/69
f 97/79/70 33/104/70 49/44/70
f 27/19/48 100/93/48 4/101/48
f 101/95/49 28/2/49 5/102/49
f 35/103/71 104/87/71 45/42/71
f 105/118/42 62/78/42 57/119/42
f 61/91/47 107/120/47 60/121/47
f 9/110/46 109/122/46 1/116/46
f 110/123/44 10/114/44 2/117/44
f 51/59/46 114/89/46 39/107/46
f 115/84/44 53/62/44 41/106/44
f 322/75/72 363/124/72 404/75/72
f 194/125/73 391/126/73 390/125/73
f 321/108/74 400/65/74 403/108/74
f 50/52/75 351/64/75 86/64/75
f 133/127/76 142/128/76 148/129/76
f 146/130/77 136/131/77 143/132/77
f 143/132/78 139/133/78 144/134/78
f 138/135/79 129/136/79 130/137/79
f 149/25/80 140/138/80 138/135/80
f 145/139/81 130/137/81 131/140/81
f 150/141/82 144/134/82 151/142/82
f 156/26/83 138/135/83 145/139/83
f 165/143/84 137/144/84 132/145/84
f 148/129/85 154/49/85 159/57/85
f 155/50/86 143/132/86 150/141/86
f 193/146/87 390/125/87 389/146/87
f 86/64/88 352/54/88 40/54/88
f 120/99/89 362/147/89 118/147/89
f 56/36/90 358/74/90 353/36/90
f 170/28/91 137/144/91 147/148/91
f 167/149/92 170/28/92 147/148/92
f 245/150/93 379/66/93 163/66/93
f 168/151/94 159/57/94 169/56/94
f 171/152/95 147/148/95 165/143/95
f 166/153/96 148/129/96 168/151/96
f 175/154/97 180/155/97 179/156/97
f 199/157/98 178/158/98 172/159/98
f 179/156/99 182/160/99 181/161/99
f 117/113/100 359/162/100 360/113/100
f 177/163/101 174/164/101 178/158/101
f 189/165/102 186/166/102 190/167/102
f 244/168/103 377/169/103 396/168/103
f 191/170/104 194/125/104 193/146/104
f 201/171/105 190/167/105 184/172/105
f 187/173/106 192/174/106 191/170/106
f 196/175/107 200/176/107 177/163/107
f 185/177/108 392/176/108 200/176/108
f 197/178/109 181/161/109 198/126/109
f 183/179/110 177/163/110 199/157/110
f 195/180/111 179/156/111 197/178/111
f 203/181/112 191/170/112 205/182/112
f 125/183/113 189/165/113 201/171/113
f 205/182/114 193/146/114 206/184/114
f 186/166/115 387/177/115 185/177/115
f 204/185/116 202/186/116 189/165/116
f 130/137/117 207/187/117 208/188/117
f 223/189/118 219/190/118 220/191/118
f 226/192/119 218/193/119 225/194/119
f 227/195/120 215/196/120 216/197/120
f 230/198/121 222/199/121 229/200/121
f 136/131/122 212/201/122 139/133/122
f 232/202/123 214/203/123 231/204/123
f 233/205/124 209/206/124 210/207/124
f 245/150/125 398/32/125 397/150/125
f 154/49/126 146/130/126 155/50/126
f 153/27/127 145/139/127 137/144/127
f 137/144/128 131/140/128 132/145/128
f 142/128/129 135/208/129 146/130/129
f 176/209/130 168/151/130 180/155/130
f 172/159/131 167/149/131 171/152/131
f 180/155/132 169/56/132 182/160/132
f 206/184/133 389/146/133 394/184/133
f 178/158/134 173/210/134 167/149/134
f 188/211/135 197/178/135 192/174/135
f 184/172/136 196/175/136 183/179/136
f 192/174/137 198/126/137 194/125/137
f 52/55/138 352/54/138 357/55/138
f 186/166/139 196/175/139 190/167/139
f 141/212/140 160/213/140 204/185/140
f 243/214/141 396/168/141 395/214/141
f 127/215/142 206/184/142 158/216/142
f 126/217/143 204/185/143 125/183/143
f 128/218/144 205/182/144 127/215/144
f 172/159/145 223/189/145 199/157/145
f 165/143/146 232/202/146 231/204/146
f 133/127/147 233/205/147 134/219/147
f 176/209/148 228/220/148 227/195/148
f 207/187/149 236/221/149 208/188/149
f 212/201/150 237/222/150 238/223/150
f 141/212/151 241/224/151 242/225/151
f 127/215/152 240/226/152 128/218/152
f 201/171/153 230/198/153 229/200/153
f 187/173/154 225/194/154 188/211/154
f 26/227/155 344/228/155 332/227/155
f 32/33/156 347/35/156 84/35/156
f 48/48/157 350/47/157 38/47/157
f 202/186/158 388/166/158 186/166/158
f 250/229/159 166/230/159 176/231/159
f 252/232/160 126/233/160 125/234/160
f 253/235/161 129/236/161 254/237/161
f 255/238/162 242/239/162 256/240/162
f 20/241/163 341/112/163 342/241/163
f 259/242/164 223/243/164 260/244/164
f 251/245/165 241/246/165 126/233/165
f 263/247/166 219/248/166 224/249/166
f 264/250/167 240/251/167 265/252/167
f 266/253/168 131/254/168 267/255/168
f 268/256/169 225/257/169 269/258/169
f 271/259/170 239/260/170 127/261/170
f 273/262/171 162/105/171 161/169/171
f 274/263/172 165/264/172 275/265/172
f 277/266/173 217/267/173 226/268/173
f 278/269/174 222/270/174 279/271/174
f 281/272/175 136/273/175 135/274/175
f 250/229/176 227/275/176 282/276/176
f 284/277/177 230/278/177 184/279/177
f 285/280/178 164/31/178 286/281/178
f 288/282/179 215/283/179 228/284/179
f 258/285/180 141/286/180 255/287/180
f 260/244/181 220/288/181 289/289/181
f 290/290/182 229/291/182 278/269/182
f 269/258/183 218/292/183 291/293/183
f 292/294/184 224/295/184 172/296/184
f 283/297/185 221/298/185 230/278/185
f 294/299/186 203/300/186 295/301/186
f 294/299/187 226/302/187 187/303/187
f 271/259/188 158/304/188 257/305/188
f 296/306/189 129/236/189 140/307/189
f 298/308/190 139/309/190 212/310/190
f 299/311/191 214/312/191 300/313/191
f 280/314/192 211/315/192 136/316/192
f 303/317/193 244/168/193 243/214/193
f 304/318/194 184/279/194 183/319/194
f 306/320/195 151/321/195 144/322/195
f 266/253/196 232/323/196 132/324/196
f 304/318/197 199/325/197 259/326/197
f 275/327/198 231/328/198 299/311/198
f 308/329/199 245/150/199 309/330/199
f 296/306/200 152/331/200 285/332/200
f 307/333/201 213/334/201 232/323/201
f 311/335/202 210/336/202 312/337/202
f 313/338/203 188/339/203 268/256/203
f 306/320/204 139/309/204 297/340/204
f 314/341/205 233/342/205 311/335/205
f 302/343/206 161/169/206 244/168/206
f 316/344/207 234/345/207 133/346/207
f 315/347/208 209/348/208 234/345/208
f 309/330/209 163/66/209 318/349/209
f 267/255/210 130/350/210 319/351/210
f 282/276/211 216/352/211 320/353/211
f 249/354/212 133/355/212 166/230/212
f 314/341/213 135/274/213 134/356/213
f 157/357/214 402/285/214 373/357/214
f 323/358/215 228/284/215 175/359/215
f 272/360/216 247/76/216 162/105/216
f 317/361/217 210/362/217 209/348/217
f 318/349/218 248/65/218 321/108/218
f 324/363/219 235/364/219 325/365/219
f 286/281/220 246/32/220 308/329/220
f 325/366/221 207/367/221 253/235/221
f 300/313/222 213/368/222 310/369/222
f 305/370/223 243/214/223 151/371/223
f 326/372/224 236/373/224 324/363/224
f 287/374/225 216/375/225 215/283/225
f 313/376/226 175/359/226 195/377/226
f 328/378/227 238/379/227 237/380/227
f 290/381/228 125/234/228 201/382/228
f 276/383/229 218/384/229 217/385/229
f 301/386/230 237/380/230 211/315/230
f 289/387/231 219/248/231 262/388/231
f 327/389/232 212/390/232 238/391/232
f 295/392/233 128/393/233 264/250/233
f 279/271/234 221/394/234 293/395/234
f 265/396/235 239/260/235 270/397/235
f 319/398/236 208/399/236 326/372/236
f 261/400/237 242/401/237 241/246/237
f 292/402/238 171/403/238 274/263/238
f 33/404/239 274/263/239 83/405/239
f 111/406/240 261/407/240 109/122/240
f 57/408/241 319/409/241 326/410/241
f 112/411/242 265/412/242 270/413/242
f 71/88/243 293/414/243 67/415/243
f 2/416/244 295/392/244 264/250/244
f 108/417/245 298/418/245 327/419/245
f 65/80/246 289/420/246 262/421/246
f 107/422/247 301/423/247 60/424/247
f 68/82/248 276/425/248 72/426/248
f 91/72/249 290/427/249 51/59/249
f 108/428/250 328/378/250 107/429/250
f 45/430/251 313/376/251 87/431/251
f 66/432/252 287/374/252 69/433/252
f 105/434/253 326/410/253 324/435/253
f 124/162/254 305/370/254 25/436/254
f 58/437/255 300/313/255 310/369/255
f 62/78/256 325/438/256 253/439/256
f 118/147/257 286/281/257 308/329/257
f 106/440/258 324/363/258 325/365/258
f 121/109/259 318/349/259 321/108/259
f 59/441/260 317/442/260 64/443/260
f 122/124/261 272/360/261 20/241/261
f 104/444/262 323/358/262 45/430/262
f 82/38/263 350/47/263 345/38/263
f 5/102/264 281/445/264 314/446/264
f 28/447/265 249/448/265 79/449/265
f 66/450/266 282/276/266 320/353/266
f 3/11/267 267/451/267 319/452/267
f 19/98/268 309/330/268 318/349/268
f 64/453/269 315/454/269 102/455/269
f 102/455/270 316/456/270 28/457/270
f 119/112/271 302/343/271 117/113/271
f 101/95/272 314/446/272 311/458/272
f 7/8/273 306/459/273 297/460/273
f 41/106/274 313/461/274 268/462/274
f 59/463/275 311/458/275 312/464/275
f 58/465/276 307/333/276 100/466/276
f 26/467/277 296/468/277 285/469/277
f 120/99/278 308/329/278 309/330/278
f 99/470/279 275/327/279 299/311/279
f 85/68/280 259/471/280 49/44/280
f 100/93/281 266/472/281 4/101/281
f 25/473/282 306/459/282 15/17/282
f 39/107/283 304/474/283 85/68/283
f 117/113/284 303/317/284 124/162/284
f 60/475/285 280/314/285 6/476/285
f 63/477/286 299/311/286 300/313/286
f 61/91/287 297/460/287 298/418/287
f 8/9/288 296/468/288 16/12/288
f 17/478/289 271/479/289 257/480/289
f 116/83/290 294/481/290 53/62/290
f 93/70/291 294/481/291 295/482/291
f 67/483/292 283/297/292 114/484/292
f 98/485/293 292/294/293 33/486/293
f 68/487/294 269/258/294 291/293/294
f 113/488/295 290/290/295 278/269/295
f 70/489/296 260/244/296 289/289/296
f 18/111/297 255/490/297 9/110/297
f 69/433/298 288/282/298 104/444/298
f 123/228/299 285/280/299 286/281/299
f 114/484/300 284/277/300 39/491/300
f 103/492/301 250/229/301 282/276/301
f 74/6/302 280/493/302 281/445/302
f 71/494/303 278/269/303 279/271/303
f 72/495/304 277/266/304 116/496/304
f 27/497/305 274/263/305 275/265/305
f 20/241/306 273/262/306 119/112/306
f 112/498/307 271/499/307 10/500/307
f 115/501/308 268/256/308 269/258/308
f 4/101/309 267/451/309 73/15/309
f 110/502/310 264/250/310 265/252/310
f 65/503/311 263/247/311 98/504/311
f 109/505/312 251/245/312 1/506/312
f 97/79/313 259/471/313 260/507/313
f 18/111/314 340/77/314 337/111/314
f 111/508/315 255/238/315 256/240/315
f 62/78/316 254/509/316 8/9/316
f 1/116/317 252/510/317 91/72/317
f 35/103/318 249/511/318 250/512/318
f 329/13/319 331/473/319 330/16/319
f 335/24/320 329/13/320 330/16/320
f 339/23/321 333/100/321 334/22/321
f 361/513/322 342/514/322 341/515/322
f 345/38/323 346/33/323 339/23/323
f 356/52/324 350/47/324 349/48/324
f 357/55/325 354/29/325 353/36/325
f 351/64/326 349/48/326 355/30/326
f 340/77/327 353/36/327 358/74/327
f 333/100/328 335/24/328 334/22/328
f 348/51/329 345/38/329 350/47/329
f 354/29/330 351/64/330 355/30/330
f 337/111/331 358/74/331 338/115/331
f 359/516/332 362/517/332 360/518/332
f 360/518/333 361/513/333 341/515/333
f 364/519/334 342/514/334 343/520/334
f 332/467/335 359/516/335 331/473/335
f 367/142/336 365/25/336 366/141/336
f 371/50/337 365/25/337 372/26/337
f 375/57/338 369/27/338 382/28/338
f 378/521/339 397/522/339 377/523/339
f 381/56/340 382/28/340 383/210/340
f 385/161/341 384/164/341 392/176/341
f 389/146/342 388/166/342 393/186/342
f 391/126/343 392/176/343 387/177/343
f 394/184/344 393/186/344 376/213/344
f 371/50/345 369/27/345 370/49/345
f 381/56/346 384/164/346 386/160/346
f 390/125/347 387/177/347 388/166/347
f 394/184/348 373/524/348 374/216/348
f 395/525/349 398/526/349 380/527/349
f 396/528/350 397/522/350 398/526/350
f 379/529/351 399/530/351 400/531/351
f 395/525/352 368/532/352 367/142/352
f 402/285/353 374/533/353 373/357/353
f 403/534/354 399/535/354 404/536/354
f 363/537/355 403/538/355 404/539/355
f 338/115/356 402/540/356 337/111/356
f 243/214/357 367/371/357 151/371/357
f 151/142/358 366/141/358 150/141/358
f 122/124/359 342/241/359 363/124/359
f 121/109/360 343/98/360 19/98/360
f 82/38/361 339/23/361 31/23/361
f 22/22/362 335/24/362 77/24/362
f 160/213/363 393/186/363 202/186/363
f 149/25/364 368/532/364 152/532/364
f 123/228/365 362/147/365 344/228/365
f 21/100/366 346/33/366 32/33/366
f 23/13/367 336/18/367 78/18/367
f 25/436/368 359/162/368 124/162/368
f 25/473/369 330/16/369 331/473/369
f 198/126/370 385/161/370 391/126/370
f 155/50/371 366/141/371 371/50/371
f 153/27/372 372/26/372 156/26/372
f 52/55/373 340/77/373 92/77/373
f 200/176/374 384/164/374 174/164/374
f 23/13/375 332/467/375 329/13/375
f 174/164/376 383/210/376 173/210/376
f 158/216/377 394/184/377 374/216/377
f 159/57/378 370/49/378 375/57/378
f 48/48/379 355/30/379 349/48/379
f 77/24/380 330/16/380 24/16/380
f 157/524/381 376/213/381 160/213/381
f 182/160/382 381/56/382 386/160/382
f 21/100/383 336/18/383 333/100/383
f 161/169/384 378/105/384 377/169/384
f 50/52/385 348/51/385 356/52/385
f 84/35/386 348/51/386 34/51/386
f 257/305/387 374/304/387 401/305/387
f 17/115/388 358/74/388 96/74/388
f 181/161/389 386/160/389 385/161/389
f 173/210/390 382/28/390 170/28/390
f 18/111/391 402/540/391 258/540/391
f 31/23/392 334/22/392 22/22/392
f 17/478/393 401/480/393 338/478/393
f 152/541/394 380/31/394 164/31/394
f 11/1/395 5/102/395 28/2/395
f 76/4/396 13/7/396 6/5/396
f 13/7/397 15/17/397 7/8/397
f 8/9/398 16/12/398 14/10/398
f 16/12/399 26/467/399 23/13/399
f 3/11/400 14/10/400 75/14/400
f 24/16/401 25/473/401 15/17/401
f 14/10/402 23/13/402 78/18/402
f 27/19/403 4/101/403 12/20/403
f 22/22/404 11/1/404 30/3/404
f 77/24/405 24/16/405 13/7/405
f 149/25/406 156/26/406 372/26/406
f 153/27/407 170/28/407 382/28/407
f 44/29/408 354/29/408 355/30/408
f 164/31/409 380/31/409 398/32/409
f 12/20/410 21/100/410 32/33/410
f 80/34/411 29/21/411 32/33/411
f 56/36/412 353/36/412 354/29/412
f 31/23/413 30/3/413 81/37/413
f 83/39/414 27/19/414 29/21/414
f 30/3/415 28/2/415 79/40/415
f 37/41/416 35/103/416 45/42/416
f 49/44/417 33/104/417 36/45/417
f 38/47/418 37/41/418 47/43/418
f 154/49/419 155/50/419 371/50/419
f 46/46/420 36/45/420 34/51/420
f 54/53/421 42/60/421 40/54/421
f 169/56/422 159/57/422 375/57/422
f 44/29/423 43/61/423 55/58/423
f 51/59/424 39/107/424 42/60/424
f 43/61/425 41/106/425 53/62/425
f 88/63/426 46/46/426 50/52/426
f 248/65/427 163/66/427 379/66/427
f 48/48/428 47/43/428 89/67/428
f 85/68/429 49/44/429 46/46/429
f 47/43/430 45/42/430 87/69/430
f 55/58/431 53/62/431 93/70/431
f 91/72/432 51/59/432 54/53/432
f 56/36/433 55/58/433 95/71/433
f 322/75/434 404/75/434 399/76/434
f 94/73/435 54/53/435 52/55/435
f 3/11/42 57/119/42 62/78/42
f 97/79/436 70/542/436 65/80/436
f 68/82/44 72/426/44 116/83/44
f 103/85/45 66/543/45 69/86/45
f 71/88/46 67/415/46 114/89/46
f 61/91/47 60/121/47 6/5/47
f 63/92/48 58/544/48 100/93/48
f 101/95/49 59/463/49 64/96/49
f 19/98/437 343/98/437 361/99/437
f 22/22/438 77/24/438 76/4/438
f 75/14/439 78/18/439 21/100/439
f 73/15/440 75/14/440 12/20/440
f 11/1/441 76/4/441 74/6/441
f 81/37/442 79/40/442 35/103/442
f 33/104/443 83/39/443 80/34/443
f 82/38/444 81/37/444 37/41/444
f 247/76/445 399/76/445 378/105/445
f 36/45/446 80/34/446 84/35/446
f 89/67/447 87/69/447 41/106/447
f 39/107/448 85/68/448 88/63/448
f 90/30/449 89/67/449 43/61/449
f 321/108/450 403/108/450 364/109/450
f 42/60/451 88/63/451 86/64/451
f 9/110/452 94/73/452 92/77/452
f 119/112/453 117/113/453 360/113/453
f 96/74/454 95/71/454 10/114/454
f 1/116/455 91/72/455 94/73/455
f 95/71/456 93/70/456 2/117/456
f 97/79/457 98/81/457 33/104/457
f 27/19/48 99/94/48 100/93/48
f 101/95/49 102/97/49 28/2/49
f 35/103/458 103/85/458 104/87/458
f 105/118/42 106/545/42 62/78/42
f 61/91/47 108/417/47 107/120/47
f 9/110/46 111/406/46 109/122/46
f 110/123/44 112/411/44 10/114/44
f 51/59/46 113/90/46 114/89/46
f 115/84/44 116/83/44 53/62/44
f 322/75/459 122/124/459 363/124/459
f 194/125/460 198/126/460 391/126/460
f 321/108/461 248/65/461 400/65/461
f 50/52/462 356/52/462 351/64/462
f 133/127/463 134/219/463 142/128/463
f 146/130/464 135/208/464 136/131/464
f 143/132/465 136/131/465 139/133/465
f 138/135/466 140/138/466 129/136/466
f 149/25/467 152/532/467 140/138/467
f 145/139/468 138/135/468 130/137/468
f 150/141/469 143/132/469 144/134/469
f 156/26/470 149/25/470 138/135/470
f 165/143/471 147/148/471 137/144/471
f 148/129/472 142/128/472 154/49/472
f 155/50/473 146/130/473 143/132/473
f 193/146/474 194/125/474 390/125/474
f 86/64/475 351/64/475 352/54/475
f 120/99/476 361/99/476 362/147/476
f 56/36/477 96/74/477 358/74/477
f 170/28/478 153/27/478 137/144/478
f 167/149/479 173/210/479 170/28/479
f 245/150/480 397/150/480 379/66/480
f 168/151/481 148/129/481 159/57/481
f 171/152/482 167/149/482 147/148/482
f 166/153/483 133/127/483 148/129/483
f 175/154/484 176/209/484 180/155/484
f 199/157/485 177/163/485 178/158/485
f 179/156/486 180/155/486 182/160/486
f 117/113/487 124/162/487 359/162/487
f 177/163/488 200/176/488 174/164/488
f 189/165/489 202/186/489 186/166/489
f 244/168/490 161/169/490 377/169/490
f 191/170/491 192/174/491 194/125/491
f 201/171/492 189/165/492 190/167/492
f 187/173/493 188/211/493 192/174/493
f 196/175/494 185/177/494 200/176/494
f 185/177/495 387/177/495 392/176/495
f 197/178/496 179/156/496 181/161/496
f 183/179/497 196/175/497 177/163/497
f 195/180/498 175/154/498 179/156/498
f 203/181/499 187/173/499 191/170/499
f 125/183/500 204/185/500 189/165/500
f 205/182/501 191/170/501 193/146/501
f 186/166/502 388/166/502 387/177/502
f 204/185/503 160/213/503 202/186/503
f 130/137/504 129/136/504 207/187/504
f 223/189/505 224/546/505 219/190/505
f 226/192/119 217/547/119 218/193/119
f 227/195/120 228/220/120 215/196/120
f 230/198/121 221/548/121 222/199/121
f 136/131/122 211/549/122 212/201/122
f 232/202/123 213/550/123 214/203/123
f 233/205/124 234/551/124 209/206/124
f 245/150/506 246/32/506 398/32/506
f 154/49/507 142/128/507 146/130/507
f 153/27/508 156/26/508 145/139/508
f 137/144/509 145/139/509 131/140/509
f 142/128/510 134/219/510 135/208/510
f 176/209/511 166/153/511 168/151/511
f 172/159/512 178/158/512 167/149/512
f 180/155/513 168/151/513 169/56/513
f 206/184/514 193/146/514 389/146/514
f 178/158/515 174/164/515 173/210/515
f 188/211/516 195/180/516 197/178/516
f 184/172/517 190/167/517 196/175/517
f 192/174/518 197/178/518 198/126/518
f 52/55/519 40/54/519 352/54/519
f 186/166/520 185/177/520 196/175/520
f 141/212/521 157/524/521 160/213/521
f 243/214/522 244/168/522 396/168/522
f 127/215/523 205/182/523 206/184/523
f 126/217/524 141/212/524 204/185/524
f 128/218/525 203/181/525 205/182/525
f 172/159/526 224/546/526 223/189/526
f 165/143/527 132/145/527 232/202/527
f 133/127/124 234/551/124 233/205/124
f 176/209/528 175/154/528 228/220/528
f 207/187/149 235/552/149 236/221/149
f 212/201/150 211/549/150 237/222/150
f 141/212/529 126/217/529 241/224/529
f 127/215/530 239/553/530 240/226/530
f 201/171/531 184/172/531 230/198/531
f 187/173/532 226/192/532 225/194/532
f 26/227/533 123/228/533 344/228/533
f 32/33/534 346/33/534 347/35/534
f 48/48/535 349/48/535 350/47/535
f 202/186/536 393/186/536 388/166/536
f 250/229/537 249/354/537 166/230/537
f 252/232/538 251/245/538 126/233/538
f 253/235/539 207/367/539 129/236/539
f 255/238/540 141/554/540 242/239/540
f 20/241/541 119/112/541 341/112/541
f 259/242/542 199/555/542 223/243/542
f 251/245/543 261/400/543 241/246/543
f 263/247/544 262/388/544 219/248/544
f 264/250/545 128/393/545 240/251/545
f 266/253/546 132/324/546 131/254/546
f 268/256/547 188/339/547 225/257/547
f 271/259/548 270/397/548 239/260/548
f 273/262/549 272/360/549 162/105/549
f 274/263/550 171/403/550 165/264/550
f 277/266/551 276/556/551 217/267/551
f 278/269/174 229/291/174 222/270/174
f 281/272/552 280/557/552 136/273/552
f 250/229/553 176/231/553 227/275/553
f 284/277/554 283/297/554 230/278/554
f 285/280/555 152/541/555 164/31/555
f 288/282/556 287/374/556 215/283/556
f 258/285/557 157/357/557 141/286/557
f 260/244/558 223/243/558 220/288/558
f 290/290/559 201/558/559 229/291/559
f 269/258/183 225/257/183 218/292/183
f 292/294/560 263/559/560 224/295/560
f 283/297/185 293/560/185 221/298/185
f 294/299/561 187/303/561 203/300/561
f 294/299/562 277/561/562 226/302/562
f 271/259/563 127/261/563 158/304/563
f 296/306/564 254/237/564 129/236/564
f 298/308/565 297/340/565 139/309/565
f 299/311/191 231/328/191 214/312/191
f 280/314/566 301/386/566 211/315/566
f 303/317/567 302/343/567 244/168/567
f 304/318/568 284/277/568 184/279/568
f 306/320/569 305/562/569 151/321/569
f 266/253/570 307/333/570 232/323/570
f 304/318/571 183/319/571 199/325/571
f 275/327/572 165/563/572 231/328/572
f 308/329/573 246/32/573 245/150/573
f 296/306/574 140/307/574 152/331/574
f 307/333/201 310/564/201 213/334/201
f 311/335/202 233/342/202 210/336/202
f 313/338/575 195/565/575 188/339/575
f 306/320/576 144/322/576 139/309/576
f 314/341/577 134/356/577 233/342/577
f 302/343/578 273/262/578 161/169/578
f 316/344/207 315/347/207 234/345/207
f 315/347/208 317/361/208 209/348/208
f 309/330/579 245/150/579 163/66/579
f 267/255/580 131/254/580 130/350/580
f 282/276/581 227/275/581 216/352/581
f 249/354/582 316/566/582 133/355/582
f 314/341/583 281/272/583 135/274/583
f 157/357/584 258/285/584 402/285/584
f 323/358/585 288/282/585 228/284/585
f 272/360/586 322/75/586 247/76/586
f 317/361/217 312/567/217 210/362/217
f 318/349/587 163/66/587 248/65/587
f 324/363/219 236/373/219 235/364/219
f 286/281/588 164/31/588 246/32/588
f 325/366/221 235/568/221 207/367/221
f 300/313/222 214/312/222 213/368/222
f 305/370/589 303/317/589 243/214/589
f 326/372/224 208/399/224 236/373/224
f 287/374/225 320/569/225 216/375/225
f 313/376/590 323/358/590 175/359/590
f 328/378/227 327/570/227 238/379/227
f 290/381/591 252/232/591 125/234/591
f 276/383/229 291/571/229 218/384/229
f 301/386/230 328/378/230 237/380/230
f 289/387/231 220/572/231 219/248/231
f 327/389/232 298/573/232 212/390/232
f 295/392/592 203/574/592 128/393/592
f 279/271/234 222/270/234 221/394/234
f 265/396/235 240/575/235 239/260/235
f 319/398/593 130/576/593 208/399/593
f 261/400/594 256/577/594 242/401/594
f 292/402/595 172/578/595 171/403/595
f 33/404/596 292/402/596 274/263/596
f 111/406/240 256/579/240 261/407/240
f 57/408/597 3/580/597 319/409/597
f 112/411/242 110/123/242 265/412/242
f 71/88/243 279/581/243 293/414/243
f 2/416/598 93/582/598 295/392/598
f 108/417/245 61/91/245 298/418/245
f 65/80/246 70/542/246 289/420/246
f 107/422/247 328/583/247 301/423/247
f 68/82/599 291/584/599 276/425/599
f 91/72/600 252/510/600 290/427/600
f 108/428/250 327/570/250 328/378/250
f 45/430/601 323/358/601 313/376/601
f 66/432/252 320/569/252 287/374/252
f 105/434/253 57/408/253 326/410/253
f 124/162/602 303/317/602 305/370/602
f 58/437/255 63/477/255 300/313/255
f 62/78/256 106/545/256 325/438/256
f 118/147/603 123/228/603 286/281/603
f 106/440/258 105/585/258 324/363/258
f 121/109/604 19/98/604 318/349/604
f 59/441/260 312/586/260 317/442/260
f 122/124/605 322/75/605 272/360/605
f 104/444/606 288/282/606 323/358/606
f 82/38/607 38/47/607 350/47/607
f 5/102/608 74/6/608 281/445/608
f 28/447/609 316/587/609 249/448/609
f 66/450/610 103/492/610 282/276/610
f 3/11/611 73/15/611 267/451/611
f 19/98/612 120/99/612 309/330/612
f 64/453/269 317/588/269 315/454/269
f 102/455/613 315/454/613 316/456/613
f 119/112/614 273/262/614 302/343/614
f 101/95/615 5/102/615 314/446/615
f 7/8/616 15/17/616 306/459/616
f 41/106/617 87/69/617 313/461/617
f 59/463/275 101/95/275 311/458/275
f 58/465/276 310/564/276 307/333/276
f 26/467/618 16/12/618 296/468/618
f 120/99/619 118/147/619 308/329/619
f 99/470/620 27/589/620 275/327/620
f 85/68/621 304/474/621 259/471/621
f 100/93/622 307/590/622 266/472/622
f 25/473/623 305/591/623 306/459/623
f 39/107/624 284/592/624 304/474/624
f 117/113/625 302/343/625 303/317/625
f 60/475/626 301/386/626 280/314/626
f 63/477/286 99/470/286 299/311/286
f 61/91/627 7/8/627 297/460/627
f 8/9/628 254/509/628 296/468/628
f 17/478/629 10/593/629 271/479/629
f 116/83/630 277/594/630 294/481/630
f 93/70/631 53/62/631 294/481/631
f 67/483/292 293/560/292 283/297/292
f 98/485/632 263/559/632 292/294/632
f 68/487/294 115/501/294 269/258/294
f 113/488/633 51/595/633 290/290/633
f 70/489/634 97/596/634 260/244/634
f 18/111/635 258/540/635 255/490/635
f 69/433/636 287/374/636 288/282/636
f 123/228/637 26/227/637 285/280/637
f 114/484/638 283/297/638 284/277/638
f 103/492/639 35/597/639 250/229/639
f 74/6/640 6/5/640 280/493/640
f 71/494/303 113/488/303 278/269/303
f 72/495/304 276/556/304 277/266/304
f 27/497/641 83/405/641 274/263/641
f 20/241/642 272/360/642 273/262/642
f 112/498/643 270/598/643 271/499/643
f 115/501/644 41/599/644 268/256/644
f 4/101/645 266/472/645 267/451/645
f 110/502/646 2/416/646 264/250/646
f 65/503/647 262/388/647 263/247/647
f 109/505/648 261/400/648 251/245/648
f 97/79/649 49/44/649 259/471/649
f 18/111/650 92/77/650 340/77/650
f 111/508/651 9/600/651 255/238/651
f 62/78/652 253/439/652 254/509/652
f 1/116/653 251/601/653 252/510/653
f 35/103/654 79/40/654 249/511/654
f 329/13/319 332/467/319 331/473/319
f 335/24/320 336/18/320 329/13/320
f 339/23/321 346/33/321 333/100/321
f 361/513/655 343/520/655 342/514/655
f 345/38/656 347/35/656 346/33/656
f 356/52/657 348/51/657 350/47/657
f 357/55/325 352/54/325 354/29/325
f 351/64/658 356/52/658 349/48/658
f 340/77/659 357/55/659 353/36/659
f 333/100/328 336/18/328 335/24/328
f 348/51/660 347/35/660 345/38/660
f 354/29/661 352/54/661 351/64/661
f 337/111/662 340/77/662 358/74/662
f 359/516/663 344/602/663 362/517/663
f 360/518/664 362/517/664 361/513/664
f 364/519/665 363/537/665 342/514/665
f 332/467/666 344/602/666 359/516/666
f 367/142/667 368/532/667 365/25/667
f 371/50/668 366/141/668 365/25/668
f 375/57/669 370/49/669 369/27/669
f 378/521/670 379/529/670 397/522/670
f 381/56/671 375/57/671 382/28/671
f 385/161/672 386/160/672 384/164/672
f 389/146/673 390/125/673 388/166/673
f 391/126/674 385/161/674 392/176/674
f 394/184/675 389/146/675 393/186/675
f 371/50/676 372/26/676 369/27/676
f 381/56/677 383/210/677 384/164/677
f 390/125/678 391/126/678 387/177/678
f 394/184/679 376/213/679 373/524/679
f 395/525/680 396/528/680 398/526/680
f 396/528/681 377/523/681 397/522/681
f 379/529/682 378/521/682 399/530/682
f 395/525/683 380/527/683 368/532/683
f 402/285/684 401/603/684 374/533/684
f 403/534/685 400/604/685 399/535/685
f 363/537/686 364/519/686 403/538/686
f 338/115/687 401/605/687 402/540/687
f 243/214/688 395/214/688 367/371/688
f 151/142/689 367/142/689 366/141/689
f 122/124/690 20/241/690 342/241/690
f 121/109/691 364/109/691 343/98/691
f 82/38/692 345/38/692 339/23/692
f 22/22/693 334/22/693 335/24/693
f 160/213/694 376/213/694 393/186/694
f 149/25/695 365/25/695 368/532/695
f 123/228/696 118/147/696 362/147/696
f 21/100/697 333/100/697 346/33/697
f 23/13/698 329/13/698 336/18/698
f 25/436/699 331/436/699 359/162/699
f 25/473/700 24/16/700 330/16/700
f 198/126/701 181/161/701 385/161/701
f 155/50/702 150/141/702 366/141/702
f 153/27/703 369/27/703 372/26/703
f 52/55/704 357/55/704 340/77/704
f 200/176/705 392/176/705 384/164/705
f 23/13/706 26/467/706 332/467/706
f 174/164/707 384/164/707 383/210/707
f 158/216/708 206/184/708 394/184/708
f 159/57/709 154/49/709 370/49/709
f 48/48/710 90/30/710 355/30/710
f 77/24/711 335/24/711 330/16/711
f 157/524/712 373/524/712 376/213/712
f 182/160/713 169/56/713 381/56/713
f 21/100/714 78/18/714 336/18/714
f 161/169/715 162/105/715 378/105/715
f 50/52/716 34/51/716 348/51/716
f 84/35/717 347/35/717 348/51/717
f 257/305/718 158/304/718 374/304/718
f 17/115/719 338/115/719 358/74/719
f 181/161/720 182/160/720 386/160/720
f 173/210/721 383/210/721 382/28/721
f 18/111/722 337/111/722 402/540/722
f 31/23/723 339/23/723 334/22/723
f 17/478/724 257/480/724 401/480/724
f 152/541/725 368/541/725 380/31/725
