# Blender 4.2.0
# www.blender.org
mtllib log_10.mtl
g log_10_log_10_mesh
v -0.018452 0.017720 0.471282
v -0.033751 0.008783 0.468368
v -0.043931 -0.004625 0.471282
v -0.044951 -0.020183 0.471282
v -0.034770 -0.034643 0.471282
v -0.019157 -0.039014 0.471282
v -0.002135 -0.034643 0.468368
v 0.005485 -0.020183 0.471282
v 0.006819 -0.002210 0.471282
v -0.002135 0.012249 0.471282
v -0.009526 0.024128 0.220717
v -0.021356 0.017812 0.191526
v -0.041525 -0.002379 -0.294290
v -0.039280 -0.003392 0.206630
v -0.041525 -0.014849 -0.310663
v -0.041525 -0.017309 0.188487
v -0.034286 -0.028777 -0.333177
v -0.017610 -0.034693 0.141847
v -0.003055 -0.042442 -0.308382
v -0.009770 -0.042769 0.189953
v 0.006481 -0.040182 -0.337902
v 0.011592 -0.036369 0.200905
v 0.022472 -0.022873 -0.312657
v 0.020290 -0.023369 0.232302
v 0.022472 0.005025 -0.298220
v 0.022472 0.007345 0.183512
v 0.011592 0.017620 -0.296509
v 0.010250 0.017746 0.227118
v -0.018452 0.023521 0.468368
v -0.037055 0.016554 0.471282
v -0.049277 -0.000805 0.471282
v -0.050451 -0.021925 0.463401
v -0.038229 -0.039284 0.463401
v -0.018112 -0.045801 0.471282
v 0.001324 -0.039284 0.471282
v 0.013546 -0.021925 0.471282
v 0.013546 -0.000468 0.471282
v 0.001324 0.016891 0.471282
v -0.033365 0.008243 0.461885
v -0.034384 -0.034102 0.461885
v -0.002502 0.011710 0.461885
v -0.002502 -0.034102 0.461886
v -0.018443 0.017055 0.461885
v -0.043311 -0.004831 0.461885
v -0.044331 -0.019975 0.461885
v -0.019131 -0.038341 0.461885
v 0.004884 -0.019975 0.461885
v 0.006218 -0.002416 0.461885
v -0.041028 -0.002603 -0.271440
v -0.041525 -0.015394 -0.288205
v -0.019877 -0.036058 -0.224142
v -0.004541 -0.042514 -0.259730
v 0.007613 -0.039338 -0.243109
v 0.021989 -0.022982 -0.286466
v 0.022472 0.005539 -0.279618
v 0.011295 0.017648 -0.276486
v -0.015741 0.023973 -0.286110
v -0.018508 0.023928 -0.301435
v -0.038386 0.008980 -0.315601
v -0.032423 0.014041 -0.216184
v -0.011521 0.017981 -0.392017
v -0.028874 0.011597 -0.394866
v -0.033514 0.000097 -0.392013
v -0.033514 -0.014041 -0.392012
v -0.023349 -0.032156 -0.394868
v -0.005509 -0.037412 -0.392013
v 0.002744 -0.031872 -0.394869
v 0.015244 -0.020150 -0.392015
v 0.015471 0.003401 -0.392017
v 0.008265 0.010337 -0.394874
v -0.032057 0.015654 -0.392011
v -0.011479 0.023224 -0.392017
v -0.041525 0.001595 -0.392013
v -0.041525 -0.015646 -0.392013
v -0.026327 -0.036394 -0.394868
v -0.005443 -0.042547 -0.392013
v 0.007458 -0.038385 -0.394869
v 0.022472 -0.024304 -0.392014
v 0.020224 0.005637 -0.392017
v 0.010956 0.014558 -0.394874
v -0.006009 -0.034048 -0.382672
v -0.011293 0.014632 -0.382675
v -0.021688 -0.029429 -0.382671
v -0.026543 0.009022 -0.382670
v 0.003142 -0.031096 -0.382673
v 0.006096 0.007915 -0.382677
v -0.033350 -0.001085 -0.382671
v -0.033350 -0.013510 -0.382671
v 0.014125 -0.020794 -0.382673
v 0.012427 0.001819 -0.382675
v -0.026890 0.015927 -0.010320
v -0.040154 -0.007230 0.040228
v -0.041525 -0.016351 -0.014601
v -0.028767 -0.035375 0.046091
v -0.014904 -0.042641 -0.013463
v 0.001854 -0.037853 -0.006046
v 0.009262 -0.017125 0.010263
v 0.014724 0.006442 -0.013441
v 0.003024 0.017697 -0.007810
v -0.012634 0.024050 0.058894
v -0.007345 0.024044 -0.023003
v -0.027307 0.015784 -0.067645
v -0.040220 -0.002967 -0.076512
v -0.041525 -0.016279 -0.035237
v -0.028580 -0.035427 -0.036083
v -0.016391 -0.041400 -0.107814
v 0.001704 -0.037965 -0.026925
v 0.018547 -0.014992 -0.099954
v 0.014724 0.006374 -0.033566
v 0.003063 0.017693 -0.028124
v -0.028432 0.014617 0.310816
v -0.039498 -0.002864 0.261239
v -0.039361 -0.023913 0.248188
v -0.030857 -0.035628 0.237322
v -0.021469 -0.043387 0.327369
v 0.011318 -0.036963 0.256680
v 0.022979 -0.009753 0.277842
v 0.022472 0.005753 0.242831
v 0.010250 0.017572 0.249304
v -0.009526 0.024004 0.243614
v -0.010932 0.039531 0.240460
v -0.010932 0.039619 0.224238
v 0.003079 0.035097 0.228772
v 0.028977 0.000263 -0.304581
v 0.028977 0.014871 -0.297022
v 0.030762 0.003191 -0.289041
v 0.030813 0.013325 -0.287085
v 0.018610 0.027346 -0.029220
v 0.018581 0.032224 -0.015339
v 0.011206 0.031421 -0.024739
v 0.013969 0.033537 -0.013241
v 0.003079 0.034974 0.244491
v 0.011117 0.054942 0.237764
v 0.009712 0.056109 0.230271
v 0.016105 0.059337 0.231806
v 0.017480 0.058194 0.239063
v 0.044401 0.009546 -0.299546
v 0.044174 0.014873 -0.294615
v 0.038249 0.007400 -0.291151
v 0.037933 0.013059 -0.287496
v 0.019526 0.049673 -0.023939
v 0.020762 0.042751 -0.016169
v 0.016287 0.050134 -0.019859
v 0.020330 0.042767 -0.014097
v 0.028724 0.000205 -0.290867
v 0.028977 0.015140 -0.287282
v 0.019689 0.025594 -0.018176
v 0.012281 0.029614 -0.013597
v 0.045342 0.008000 -0.293767
v 0.044903 0.013918 -0.290484
v 0.022454 0.047779 -0.018883
v 0.019239 0.048200 -0.014761
v 0.021895 0.056211 -0.020657
v 0.023478 0.055186 -0.017923
v 0.020143 0.056460 -0.018451
v 0.021740 0.055414 -0.015694
v 0.028265 0.048658 -0.003737
v 0.021868 0.048866 -0.003078
v 0.025284 0.050371 -0.009511
v 0.022356 0.051861 -0.006284
v 0.041702 0.004711 -0.275651
v 0.042685 0.010714 -0.275039
v 0.043102 0.007204 -0.280042
v 0.044806 0.010556 -0.278693
v 0.054107 0.011788 -0.298935
v 0.053965 0.015116 -0.295854
v 0.054695 0.010821 -0.295324
v 0.054421 0.014519 -0.293273
v -0.021226 0.004975 0.093904
v -0.029385 -0.003194 0.104742
v -0.031731 -0.012005 0.151099
v -0.019680 -0.035034 0.081265
v -0.008463 -0.042705 0.041229
v 0.010597 -0.037111 0.097752
v 0.020715 -0.023272 0.113002
v 0.022472 0.006893 0.143693
v 0.010511 0.017722 0.068102
v -0.011080 0.024089 0.109938
v -0.030850 0.021189 0.420177
v -0.038520 -0.001835 0.364587
v -0.050451 -0.020088 0.414287
v -0.028675 -0.037456 0.348687
v -0.018345 -0.044594 0.357947
v 0.001858 -0.038124 0.395382
v 0.012677 -0.022500 0.374807
v 0.013037 0.011611 0.422411
v 0.001324 0.017231 0.358619
v -0.018452 0.023763 0.354317
v -0.014304 0.024008 -0.154234
v -0.019983 0.014913 -0.090274
v -0.040624 -0.002785 -0.144637
v -0.046690 -0.015836 -0.161721
v -0.034132 -0.027284 -0.191513
v -0.005750 -0.042573 -0.125540
v 0.013685 -0.037575 -0.123136
v 0.021596 -0.023072 -0.156948
v 0.022472 0.005956 -0.156269
v 0.011053 0.017670 -0.207201
vn 0.4993 -0.8629 0.0779
vn -0.8488 -0.5248 0.0645
vn 0.9754 -0.2156 -0.0454
vn 0.2201 0.9753 -0.0174
vn -0.8977 0.4405 -0.0057
vn 0.6900 0.7237 0.0157
vn 0.7456 0.6664 -0.0036
vn 0.9975 -0.0683 -0.0177
vn 0.3677 0.2377 -0.8991
vn 0.7303 0.6828 -0.0197
vn 0.8676 -0.4955 0.0430
vn 0.7426 -0.6698 0.0001
vn 0.9990 0.0421 -0.0132
vn 0.2396 -0.9708 0.0088
vn 0.2463 -0.9692 0.0058
vn 0.7100 -0.7042 0.0032
vn -0.4216 -0.9053 -0.0512
vn -0.3986 -0.9171 -0.0101
vn 0.2561 -0.9665 -0.0142
vn -0.7451 -0.6615 -0.0854
vn -0.7960 -0.6031 0.0513
vn -0.3714 -0.9278 0.0351
vn -0.9989 0.0430 0.0193
vn -0.9999 0.0052 0.0111
vn -0.8446 -0.5351 -0.0155
vn -0.7898 0.6129 -0.0237
vn -0.9363 0.3495 0.0356
vn -1.0000 -0.0000 -0.0000
vn -0.4569 0.8895 -0.0020
vn 0.2745 0.9615 -0.0099
vn 0.0033 0.2483 0.9687
vn -0.2407 0.9674 0.0791
vn -0.9952 0.0747 0.0637
vn -0.0000 -0.0000 1.0000
vn 0.2279 -0.0740 0.9709
vn -0.5992 -0.1338 0.7893
vn -0.6705 -0.4721 0.5723
vn -0.3273 -0.4886 0.8088
vn -0.2199 0.0479 0.9743
vn 0.0111 0.2653 0.9641
vn -0.8860 0.4574 0.0756
vn -0.3172 -0.9460 0.0667
vn 0.7978 -0.5977 0.0786
vn 0.9956 -0.0661 0.0657
vn 0.8158 0.5744 0.0666
vn 0.2681 0.9610 0.0680
vn -0.5503 0.8345 0.0267
vn -0.8203 0.5705 0.0401
vn -0.9634 0.2676 -0.0175
vn -0.6614 -0.7489 -0.0415
vn -0.4482 -0.8939 0.0051
vn 0.2495 -0.9684 0.0017
vn 0.7937 -0.6082 -0.0140
vn 0.9997 -0.0238 0.0016
vn 0.7262 0.6875 -0.0007
vn 0.2336 0.9723 -0.0017
vn -0.5569 0.8305 0.0054
vn -0.4843 0.8748 -0.0075
vn 0.8261 0.5426 -0.1521
vn -0.6821 0.7308 -0.0273
vn -0.3649 -0.8906 -0.2715
vn 0.9998 -0.0000 -0.0176
vn -0.0324 0.2833 -0.9585
vn -0.2366 0.0223 -0.9713
vn 0.0001 -0.0000 -1.0000
vn -0.0575 0.1083 -0.9925
vn 0.1337 -0.0416 -0.9901
vn -0.2206 -0.0906 -0.9711
vn 0.1001 0.1120 -0.9887
vn 0.0001 -0.0001 -1.0000
vn 0.1595 -0.1838 -0.9699
vn -0.1208 0.0348 -0.9921
vn -0.0001 -0.0001 -1.0000
vn -0.0002 -0.0000 -1.0000
vn 0.3527 -0.8907 -0.2869
vn -0.9748 -0.0311 -0.2209
vn 0.2932 0.9157 -0.2748
vn 0.8585 -0.4790 -0.1831
vn -0.6323 -0.7197 -0.2869
vn -0.4546 0.8743 -0.1702
vn 0.2710 0.9624 -0.0198
vn 0.7577 0.6507 -0.0509
vn 0.9895 -0.1231 -0.0758
vn 0.9213 -0.3759 -0.0999
vn 0.3222 -0.9463 -0.0268
vn -0.3264 -0.9434 0.0593
vn -0.8488 -0.5207 0.0919
vn -0.9829 0.1651 0.0818
vn -0.7211 0.6858 0.0983
vn -0.8493 0.5224 0.0762
vn 0.4943 0.8689 0.0257
vn -0.8334 0.5525 -0.0153
vn 0.9924 -0.1018 0.0691
vn 0.9022 -0.4276 0.0563
vn 0.2611 -0.9652 -0.0132
vn -0.4633 -0.8862 -0.0026
vn -0.8283 -0.5603 -0.0016
vn -0.9932 0.1160 0.0041
vn -0.8412 0.5405 0.0151
vn -0.3916 0.9200 -0.0147
vn -0.5418 0.8389 -0.0521
vn -0.8836 0.4676 -0.0227
vn -0.9668 0.2521 -0.0408
vn -0.7158 -0.6981 -0.0180
vn -0.6237 -0.7816 0.0066
vn 0.2335 -0.9723 -0.0049
vn 0.8842 -0.4647 0.0467
vn 0.9974 -0.0150 0.0708
vn 0.5577 0.8298 0.0196
vn 0.3051 0.9519 0.0273
vn -0.6006 0.7957 0.0777
vn 0.0403 0.9981 0.0472
vn -0.5283 0.2760 -0.8030
vn 0.9243 0.3817 0.0030
vn -0.2460 0.2912 -0.9245
vn 0.5069 0.0592 0.8600
vn -0.2192 0.1751 0.9598
vn -0.8234 0.5643 0.0595
vn -0.4697 0.4057 -0.7841
vn 0.8352 -0.1417 0.5314
vn 0.9610 -0.2760 0.0166
vn -0.9959 -0.0903 -0.0005
vn -0.4805 0.8481 0.2233
vn -0.2101 0.3870 0.8978
vn 0.2838 -0.0213 -0.9586
vn 0.8614 -0.5018 -0.0792
vn 0.2772 -0.4503 0.8488
vn 0.0448 0.5308 -0.8463
vn 0.8615 0.1386 -0.4885
vn 0.4731 -0.8765 -0.0888
vn -0.6409 0.5170 -0.5673
vn -0.9189 0.2677 0.2896
vn 0.8777 -0.1818 -0.4433
vn 0.9661 -0.0540 -0.2526
vn -0.4079 -0.1923 0.8925
vn 0.3643 -0.2879 0.8857
vn 0.3695 -0.4598 0.8075
vn 0.1608 0.6127 0.7738
vn 0.4135 -0.5180 0.7488
vn 0.8597 0.1116 0.4984
vn -0.2470 0.1873 0.9507
vn 0.8743 -0.1100 0.4727
vn 0.3301 0.9304 0.1596
vn -0.7548 0.3347 0.5641
vn 0.7654 -0.1857 0.6162
vn 0.8557 -0.0516 -0.5148
vn 0.3138 0.8740 0.3711
vn -0.5319 0.6637 -0.5259
vn 0.1141 -0.6038 0.7889
vn -0.8827 0.4523 -0.1271
vn 0.8983 -0.3209 0.3000
vn -0.7444 -0.0581 0.6652
vn 0.1084 0.9837 0.1438
vn 0.4595 -0.8522 -0.2502
vn 0.9803 0.1510 -0.1271
vn 0.2326 -0.9294 -0.2867
vn 0.0042 0.9745 0.2245
vn -0.1094 0.6728 -0.7317
vn -0.7219 0.6910 -0.0378
vn -0.7789 0.6222 -0.0786
vn -0.9899 0.0276 -0.1388
vn -0.8619 -0.4985 -0.0932
vn -0.6379 -0.7701 0.0033
vn 0.2800 -0.9600 0.0029
vn 0.8192 -0.5735 -0.0004
vn 0.9980 -0.0637 0.0028
vn 0.6604 0.7509 -0.0009
vn 0.2933 0.9560 -0.0016
vn 0.3154 0.9490 0.0024
vn 0.6048 0.7942 0.0592
vn 1.0000 0.0015 -0.0094
vn 0.8187 -0.5742 -0.0035
vn 0.3210 -0.9470 -0.0113
vn -0.3957 -0.9179 -0.0284
vn -0.7668 -0.6392 -0.0590
vn -0.9655 0.2519 -0.0654
vn -0.8469 0.5259 -0.0790
vn -0.2555 0.9666 0.0189
vn 0.3357 0.9420 0.0009
vn 0.6717 0.7401 0.0339
vn 0.9979 -0.0229 0.0610
vn 0.9431 -0.3142 0.1083
vn 0.1438 -0.9890 0.0353
vn -0.4691 -0.8818 -0.0493
vn -0.7635 -0.6458 0.0094
vn -0.9556 0.2932 0.0283
vn -0.6827 0.7284 -0.0576
vn -0.5637 0.8259 -0.0062
vt 0.299315 0.078915
vt 0.299221 0.079273
vt 0.299010 0.079289
vt 0.299010 0.078936
vt 0.307705 0.075858
vt 0.307711 0.075378
vt 0.308016 0.075374
vt 0.308009 0.075842
vt 0.303101 0.074167
vt 0.303100 0.073840
vt 0.303446 0.073911
vt 0.303421 0.074090
vt 0.300016 0.063970
vt 0.300017 0.063490
vt 0.300752 0.063388
vt 0.300683 0.063753
vt 0.299846 0.070741
vt 0.299753 0.069794
vt 0.299955 0.069796
vt 0.299989 0.071006
vt 0.299453 0.076408
vt 0.299490 0.074986
vt 0.299828 0.076030
vt 0.299817 0.076561
vt 0.299673 0.063897
vt 0.299677 0.063452
vt 0.302858 0.078906
vt 0.302633 0.078165
vt 0.303133 0.077371
vt 0.303107 0.078336
vt 0.313009 0.076492
vt 0.312344 0.076392
vt 0.312229 0.075894
vt 0.312700 0.075964
vt 0.299772 0.061207
vt 0.300051 0.061138
vt 0.302393 0.078561
vt 0.302404 0.077654
vt 0.302348 0.070431
vt 0.302332 0.068889
vt 0.302648 0.069300
vt 0.302645 0.069726
vt 0.302625 0.068009
vt 0.303102 0.068009
vt 0.303097 0.069535
vt 0.299864 0.079170
vt 0.300096 0.075872
vt 0.300472 0.076120
vt 0.300476 0.077457
vt 0.300179 0.065096
vt 0.300207 0.063929
vt 0.300380 0.063216
vt 0.300400 0.065486
vt 0.302363 0.067962
vt 0.299573 0.077011
vt 0.299836 0.074717
vt 0.299785 0.065951
vt 0.299392 0.063340
vt 0.300154 0.061927
vt 0.300377 0.061850
vt 0.299260 0.077267
vt 0.299135 0.075833
vt 0.299088 0.064411
vt 0.299081 0.063872
vt 0.299644 0.061864
vt 0.299910 0.077879
vt 0.299922 0.077203
vt 0.300097 0.076980
vt 0.300158 0.077720
vt 0.299986 0.071288
vt 0.300137 0.070805
vt 0.300140 0.071083
vt 0.299086 0.061924
vt 0.299654 0.078489
vt 0.299605 0.077012
vt 0.299749 0.071969
vt 0.300158 0.069798
vt 0.299479 0.077655
vt 0.299480 0.077372
vt 0.300625 0.061215
vt 0.309579 0.067530
vt 0.309425 0.067691
vt 0.309031 0.067155
vt 0.309210 0.067094
vt 0.308269 0.079849
vt 0.308161 0.080331
vt 0.307950 0.080314
vt 0.307964 0.079843
vt 0.302202 0.081322
vt 0.302202 0.080755
vt 0.302507 0.080767
vt 0.302507 0.081322
vt 0.310861 0.066533
vt 0.310621 0.066012
vt 0.310730 0.065856
vt 0.311093 0.066390
vt 0.310880 0.067081
vt 0.311093 0.067079
vt 0.310616 0.067513
vt 0.310732 0.067657
vt 0.299491 0.082618
vt 0.299111 0.082612
vt 0.299015 0.082427
vt 0.299472 0.082434
vt 0.310076 0.067706
vt 0.310083 0.067889
vt 0.309277 0.066570
vt 0.309031 0.066466
vt 0.309578 0.066068
vt 0.309432 0.065896
vt 0.310086 0.065852
vt 0.310081 0.065664
vt 0.302297 0.081845
vt 0.302507 0.081833
vt 0.308399 0.156663
vt 0.308735 0.155329
vt 0.308932 0.155825
vt 0.308833 0.156307
vt 0.307800 0.154953
vt 0.307401 0.156385
vt 0.307293 0.155879
vt 0.307404 0.155319
vt 0.308345 0.154924
vt 0.307885 0.156663
vt 0.307705 0.074828
vt 0.308009 0.074836
vt 0.299315 0.079751
vt 0.299010 0.079755
vt 0.299315 0.080256
vt 0.299010 0.080246
vt 0.308256 0.078864
vt 0.308271 0.079323
vt 0.307965 0.079330
vt 0.307950 0.078881
vt 0.299553 0.072734
vt 0.299577 0.071102
vt 0.299673 0.073526
vt 0.299969 0.072857
vt 0.300148 0.072648
vt 0.298991 0.067444
vt 0.299386 0.066733
vt 0.300162 0.068311
vt 0.300513 0.068356
vt 0.302390 0.072383
vt 0.302642 0.071833
vt 0.303105 0.069837
vt 0.303111 0.071844
vt 0.299624 0.066850
vt 0.299992 0.065629
vt 0.300595 0.066910
vt 0.299590 0.070913
vt 0.299583 0.069792
vt 0.300250 0.079646
vt 0.300315 0.079282
vt 0.300538 0.079289
vt 0.300538 0.079673
vt 0.304004 0.081801
vt 0.304096 0.082291
vt 0.303700 0.082263
vt 0.303700 0.081832
vt 0.312546 0.079583
vt 0.312634 0.080267
vt 0.312235 0.080238
vt 0.312239 0.079638
vt 0.305583 0.064239
vt 0.305610 0.063786
vt 0.305910 0.063840
vt 0.305887 0.064239
vt 0.312146 0.065833
vt 0.311567 0.066003
vt 0.311476 0.065858
vt 0.312160 0.065664
vt 0.311391 0.066356
vt 0.311135 0.066288
vt 0.311356 0.066813
vt 0.311093 0.066845
vt 0.311640 0.067429
vt 0.311533 0.067559
vt 0.312206 0.067636
vt 0.312196 0.067802
vt 0.312485 0.067485
vt 0.312622 0.067706
vt 0.312920 0.067130
vt 0.313144 0.067282
vt 0.312984 0.066370
vt 0.313144 0.066310
vt 0.312767 0.066135
vt 0.312864 0.066006
vt 0.305461 0.073559
vt 0.305524 0.074812
vt 0.305186 0.074270
vt 0.305216 0.073868
vt 0.306021 0.075000
vt 0.305968 0.073415
vt 0.306515 0.073675
vt 0.306324 0.074927
vt 0.306705 0.073887
vt 0.306705 0.074622
vt 0.312627 0.079189
vt 0.312229 0.079291
vt 0.304003 0.081074
vt 0.303700 0.081154
vt 0.300303 0.080094
vt 0.300525 0.080065
vt 0.305540 0.063390
vt 0.305931 0.063485
vt 0.312535 0.080579
vt 0.312229 0.080513
vt 0.304003 0.082547
vt 0.303700 0.082448
vt 0.299889 0.072222
vt 0.300091 0.070410
vt 0.300467 0.072013
vt 0.300410 0.073234
vt 0.299504 0.074033
vt 0.299744 0.070276
vt 0.302636 0.076224
vt 0.302709 0.074553
vt 0.303126 0.076724
vt 0.302390 0.075976
vt 0.302358 0.074287
vt 0.300115 0.072308
vt 0.299976 0.071001
vt 0.300274 0.071167
vt 0.300455 0.073649
vt 0.299793 0.073267
vt 0.299604 0.072429
vt 0.299278 0.074929
vt 0.299114 0.070966
vt 0.299895 0.075942
vt 0.299994 0.075145
vt 0.300114 0.074468
vt 0.300001 0.076517
vt 0.299769 0.075806
vt 0.299677 0.074516
vt 0.299502 0.076002
vt 0.299516 0.075370
vt 0.300099 0.069923
vt 0.300381 0.070048
vt 0.306861 0.065042
vt 0.306861 0.065646
vt 0.306492 0.065407
vt 0.306492 0.065090
vt 0.302765 0.072760
vt 0.302355 0.073948
vt 0.299925 0.068740
vt 0.300271 0.070667
vt 0.299604 0.070460
vt 0.299112 0.070472
vt 0.299960 0.073700
vt 0.300116 0.074212
vt 0.299688 0.073807
vt 0.300794 0.069000
vt 0.300761 0.070373
vt 0.299502 0.079026
vt 0.299571 0.079841
vt 0.299879 0.079157
vt 0.300134 0.079775
vt 0.298991 0.081249
vt 0.299646 0.079680
vt 0.299945 0.079902
vt 0.300298 0.080785
vt 0.302352 0.080818
vt 0.302629 0.080483
vt 0.303179 0.081257
vt 0.299636 0.080710
vt 0.299972 0.079186
vt 0.300318 0.076434
vt 0.300473 0.079092
vt 0.299304 0.077414
vt 0.299303 0.077615
vt 0.299035 0.077578
vt 0.299028 0.077485
vt 0.306217 0.063390
vt 0.306533 0.063390
vt 0.306419 0.063893
vt 0.306284 0.063860
vt 0.302437 0.082112
vt 0.302177 0.082015
vt 0.302228 0.081378
vt 0.302335 0.081383
vt 0.310540 0.078501
vt 0.309819 0.078501
vt 0.309869 0.077976
vt 0.310379 0.077976
vt 0.302437 0.082813
vt 0.301998 0.082508
vt 0.310350 0.074620
vt 0.309877 0.074847
vt 0.309914 0.074203
vt 0.310183 0.074155
vt 0.310488 0.075587
vt 0.309819 0.075684
vt 0.310148 0.075165
vt 0.310621 0.075097
vt 0.310358 0.078782
vt 0.309699 0.078782
vt 0.309887 0.078320
vt 0.310249 0.078276
vt 0.312907 0.071802
vt 0.312285 0.071100
vt 0.312229 0.070719
vt 0.312554 0.071087
vt 0.303034 0.069655
vt 0.303275 0.069713
vt 0.303035 0.069431
vt 0.298972 0.077593
vt 0.298965 0.077503
vt 0.309819 0.074338
vt 0.310004 0.074477
vt 0.312818 0.075257
vt 0.313009 0.075121
vt 0.309961 0.077136
vt 0.310197 0.077165
vt 0.304124 0.079865
vt 0.304264 0.079878
vt 0.304192 0.080101
vt 0.304105 0.080093
vt 0.312594 0.070386
vt 0.312721 0.070519
vt 0.307042 0.065042
vt 0.307191 0.065198
vt 0.307080 0.065466
vt 0.306977 0.065397
vt 0.303221 0.069514
vt 0.303198 0.069608
vt 0.310223 0.077628
vt 0.310091 0.077647
vt 0.310045 0.077412
vt 0.310117 0.077402
vt 0.309925 0.077676
vt 0.303525 0.074137
vt 0.303699 0.074123
vt 0.303833 0.074231
vt 0.303812 0.074325
vt 0.303808 0.073997
vt 0.303784 0.074079
vt 0.304388 0.079530
vt 0.304146 0.079527
vt 0.304103 0.079482
vt 0.304459 0.079482
vt 0.310014 0.074011
vt 0.310170 0.074018
vt 0.304149 0.079698
vt 0.304283 0.079708
vt 0.303699 0.074157
vt 0.303784 0.074146
vt 0.310065 0.073669
vt 0.310152 0.073511
vt 0.298410 0.065637
vt 0.298410 0.065529
vt 0.298497 0.065558
vt 0.298497 0.065666
vt 0.309956 0.077428
vt 0.303906 0.074095
vt 0.303906 0.074131
vt 0.303919 0.074050
vt 0.301726 0.065632
vt 0.301541 0.065711
vt 0.301541 0.065494
vt 0.301684 0.065531
vt 0.307454 0.065461
vt 0.307394 0.065430
vt 0.307330 0.065042
vt 0.307413 0.065109
vt 0.309877 0.073415
vt 0.310077 0.073473
vt 0.307191 0.065716
vt 0.307191 0.065072
vt 0.307049 0.065580
vt 0.306861 0.065517
vt 0.299542 0.065298
vt 0.299846 0.065201
vt 0.299734 0.065650
vt 0.299542 0.065691
vt 0.308022 0.065189
vt 0.308190 0.065042
vt 0.308190 0.065595
vt 0.308058 0.065558
vt 0.306861 0.065070
vt 0.298208 0.065675
vt 0.298092 0.065708
vt 0.298126 0.065566
vt 0.298208 0.065540
vt 0.301346 0.065495
vt 0.301468 0.065724
vt 0.301346 0.065725
vt 0.306321 0.064180
vt 0.306237 0.064159
vt 0.312827 0.070171
vt 0.312907 0.070254
vt 0.300328 0.075886
vt 0.299921 0.081884
vt 0.300423 0.081823
vt 0.299514 0.081890
vt 0.302640 0.082052
vt 0.302985 0.082052
vt 0.302332 0.082052
vt 0.299970 0.082618
vt 0.300304 0.082604
vt 0.299895 0.080478
vt 0.300148 0.080383
vt 0.299643 0.080475
vt 0.300708 0.080680
vt 0.300794 0.081912
vt 0.299752 0.069794
vt 0.299507 0.074357
s 0
g log_10_Material
usemtl Material
f 1/1/1 2/2/1 39/3/1 43/4/1
f 9/5/2 10/6/2 41/7/2 48/8/2
f 98/9/3 109/10/3 128/11/3 147/12/3
f 56/13/4 27/14/4 58/15/4 57/16/4
f 59/17/5 71/18/5 73/19/5 13/20/5
f 118/21/6 26/22/6 28/23/6 119/24/6
f 55/25/7 25/26/7 27/14/7 56/13/7
f 117/27/8 24/28/8 26/29/8 118/30/8
f 28/31/9 11/32/9 122/33/9 123/34/9
f 25/26/10 79/35/10 80/36/10 27/14/10
f 116/37/11 22/38/11 24/28/11 117/27/11
f 53/39/12 21/40/12 23/41/12 54/42/12
f 23/41/13 78/43/13 79/44/13 25/45/13
f 115/46/14 20/47/14 22/48/14 116/49/14
f 52/50/15 19/51/15 21/52/15 53/53/15
f 21/40/16 77/54/16 78/43/16 23/41/16
f 114/55/17 18/56/17 20/47/17 115/46/17
f 51/57/18 17/58/18 19/51/18 52/50/18
f 19/51/19 76/59/19 77/60/19 21/52/19
f 113/61/20 16/62/20 18/56/20 114/55/20
f 50/63/21 15/64/21 17/58/21 51/57/21
f 17/58/22 75/65/22 76/59/22 19/51/22
f 112/66/23 14/67/23 16/68/23 113/69/23
f 49/70/24 13/20/24 15/71/24 50/72/24
f 15/64/25 74/73/25 75/65/25 17/58/25
f 111/74/26 12/75/26 14/67/26 112/66/26
f 60/76/27 59/17/27 13/20/27 49/70/27
f 13/20/28 73/19/28 74/77/28 15/71/28
f 120/78/29 11/79/29 12/75/29 111/74/29
f 27/14/30 80/36/30 72/80/30 58/15/30
f 6/81/31 34/82/31 35/83/31 7/84/31
f 6/85/32 7/86/32 42/87/32 46/88/32
f 8/89/33 9/90/33 48/91/33 47/92/33
f 2/93/34 1/94/34 29/95/34 30/96/34
f 3/97/35 2/93/35 30/96/35 31/98/35
f 4/99/36 3/97/36 31/98/36 32/100/36
f 5/101/37 4/102/37 32/103/37 33/104/37
f 6/81/38 5/105/38 33/106/38 34/82/38
f 8/107/39 7/84/39 35/83/39 36/108/39
f 9/109/34 8/107/34 36/108/34 37/110/34
f 10/111/34 9/109/34 37/110/34 38/112/34
f 1/94/40 10/111/40 38/112/40 29/95/40
f 7/113/41 8/89/41 47/92/41 42/114/41
f 40/115/34 39/116/34 44/117/34 45/118/34
f 41/119/34 42/120/34 47/121/34 48/122/34
f 43/123/34 46/124/34 42/120/34 41/119/34
f 40/115/34 46/124/34 43/123/34 39/116/34
f 10/6/42 1/125/42 43/126/42 41/7/42
f 2/2/43 3/127/43 44/128/43 39/3/43
f 3/127/44 4/129/44 45/130/44 44/128/44
f 4/131/45 5/132/45 40/133/45 45/134/45
f 5/132/46 6/85/46 46/88/46 40/133/46
f 189/135/47 57/136/47 60/76/47 190/137/47
f 190/137/48 60/76/48 49/70/48 191/138/48
f 191/138/49 49/70/49 50/72/49 192/139/49
f 192/140/50 50/63/50 51/57/50 193/141/50
f 193/141/51 51/57/51 52/50/51 194/142/51
f 194/142/52 52/50/52 53/53/52 195/143/52
f 195/144/53 53/39/53 54/42/53 196/145/53
f 196/145/54 54/42/54 55/146/54 197/147/54
f 197/148/55 55/25/55 56/13/55 198/149/55
f 198/149/56 56/13/56 57/16/56 189/150/56
f 57/136/57 58/151/57 59/17/57 60/76/57
f 58/151/58 72/152/58 71/18/58 59/17/58
f 65/153/59 64/154/59 88/155/59 83/156/59
f 68/157/60 67/158/60 85/159/60 89/160/60
f 61/161/61 70/162/61 86/163/61 82/164/61
f 64/165/62 63/166/62 87/167/62 88/168/62
f 61/169/63 62/170/63 71/171/63 72/172/63
f 62/170/64 63/173/64 73/174/64 71/171/64
f 63/173/65 64/175/65 74/176/65 73/174/65
f 64/175/66 65/177/66 75/178/66 74/176/66
f 65/177/67 66/179/67 76/180/67 75/178/67
f 66/179/68 67/181/68 77/182/68 76/180/68
f 67/181/69 68/183/69 78/184/69 77/182/69
f 68/183/70 69/185/70 79/186/70 78/184/70
f 69/185/71 70/187/71 80/188/71 79/186/71
f 70/187/72 61/169/72 72/172/72 80/188/72
f 84/189/65 83/190/65 88/191/65 87/192/65
f 81/193/73 82/194/73 86/195/73 85/196/73
f 83/190/74 84/189/74 82/194/74 81/193/74
f 85/196/70 86/195/70 90/197/70 89/198/70
f 62/199/75 61/161/75 82/164/75 84/200/75
f 69/201/76 68/157/76 89/160/76 90/202/76
f 66/203/77 65/153/77 83/156/77 81/204/77
f 63/166/78 62/205/78 84/206/78 87/167/78
f 70/162/79 69/207/79 90/208/79 86/163/79
f 67/158/80 66/209/80 81/210/80 85/159/80
f 177/211/81 99/212/81 100/213/81 178/214/81
f 176/215/82 98/216/82 99/212/82 177/211/82
f 175/217/83 97/218/83 98/9/83 176/219/83
f 174/220/84 96/221/84 97/218/84 175/217/84
f 173/222/85 95/223/85 96/224/85 174/225/85
f 172/226/86 94/227/86 95/223/86 173/222/86
f 171/228/87 93/229/87 94/227/87 172/226/87
f 170/230/88 92/231/88 93/232/88 171/233/88
f 169/234/89 91/235/89 92/231/89 170/230/89
f 178/236/90 100/237/90 91/235/90 169/234/90
f 99/212/91 110/238/91 101/239/91 100/213/91
f 25/240/92 55/241/92 146/242/92 125/243/92
f 97/218/93 108/244/93 109/10/93 98/9/93
f 96/221/94 107/245/94 108/244/94 97/218/94
f 95/223/95 106/246/95 107/247/95 96/224/95
f 94/227/96 105/248/96 106/246/96 95/223/96
f 93/229/97 104/249/97 105/248/97 94/227/97
f 92/231/98 103/250/98 104/251/98 93/232/98
f 91/235/99 102/252/99 103/250/99 92/231/99
f 100/213/100 101/239/100 102/253/100 91/254/100
f 188/255/101 120/78/101 111/74/101 179/256/101
f 179/256/102 111/74/102 112/66/102 180/257/102
f 180/257/103 112/66/103 113/69/103 181/258/103
f 181/259/104 113/61/104 114/55/104 182/260/104
f 182/260/105 114/55/105 115/46/105 183/261/105
f 183/261/106 115/46/106 116/49/106 184/262/106
f 184/263/107 116/37/107 117/27/107 185/264/107
f 185/264/108 117/27/108 118/30/108 186/265/108
f 186/266/109 118/21/109 119/24/109 187/267/109
f 187/267/110 119/24/110 120/268/110 188/269/110
f 122/270/111 121/271/111 133/272/111 134/273/111
f 125/274/112 146/275/112 150/276/112 138/277/112
f 128/278/113 130/279/113 143/280/113 141/281/113
f 119/282/114 28/283/114 123/284/114 132/285/114
f 109/286/115 110/287/115 130/279/115 128/278/115
f 99/288/116 98/289/116 147/290/116 148/291/116
f 120/292/117 119/293/117 132/294/117 121/295/117
f 110/296/118 99/297/118 148/298/118 130/299/118
f 23/300/119 25/301/119 125/302/119 124/303/119
f 55/146/120 54/42/120 145/304/120 146/305/120
f 54/42/121 23/41/121 124/306/121 145/304/121
f 11/79/122 120/78/122 121/271/122 122/270/122
f 136/307/123 135/308/123 134/273/123 133/272/123
f 121/295/124 132/294/124 136/309/124 133/310/124
f 123/34/125 122/33/125 134/311/125 135/312/125
f 132/285/126 123/284/126 135/313/126 136/314/126
f 150/315/127 149/316/127 167/317/127 168/318/127
f 124/303/128 125/302/128 138/319/128 137/320/128
f 139/321/129 140/322/129 164/323/129 163/324/129
f 145/304/130 124/306/130 137/325/130 149/326/130
f 141/327/131 143/328/131 155/329/131 153/330/131
f 130/299/132 148/298/132 152/331/132 143/328/132
f 129/332/133 142/333/133 159/334/133 157/335/133
f 147/12/134 128/11/134 141/336/134 151/337/134
f 126/338/135 127/339/135 146/340/135 145/341/135
f 129/342/136 131/343/136 148/291/136 147/290/136
f 140/344/137 139/345/137 149/316/137 150/315/137
f 127/339/138 140/344/138 150/315/138 146/340/138
f 139/345/139 126/338/139 145/341/139 149/316/139
f 144/346/140 142/333/140 151/337/140 152/347/140
f 131/343/141 144/348/141 152/349/141 148/291/141
f 142/333/142 129/332/142 147/12/142 151/337/142
f 154/350/143 153/351/143 155/352/143 156/353/143
f 143/328/144 152/331/144 156/354/144 155/329/144
f 152/347/145 151/337/145 154/355/145 156/356/145
f 151/337/146 141/336/146 153/357/146 154/355/146
f 158/358/147 157/359/147 159/360/147 160/361/147
f 142/362/148 144/363/148 160/364/148 159/365/148
f 131/343/149 129/342/149 157/366/149 158/367/149
f 144/363/150 131/368/150 158/369/150 160/364/150
f 162/370/151 161/371/151 163/324/151 164/323/151
f 127/372/152 126/373/152 161/374/152 162/375/152
f 140/376/153 127/377/153 162/378/153 164/379/153
f 126/380/154 139/321/154 163/324/154 161/371/154
f 167/381/155 165/382/155 166/383/155 168/384/155
f 149/385/156 137/360/156 165/386/156 167/387/156
f 138/277/157 150/276/157 168/388/157 166/389/157
f 137/320/158 138/319/158 166/390/158 165/391/158
f 11/79/159 178/236/159 169/234/159 12/75/159
f 12/75/160 169/234/160 170/230/160 14/67/160
f 14/67/161 170/230/161 171/233/161 16/68/161
f 16/62/162 171/228/162 172/226/162 18/56/162
f 18/56/163 172/226/163 173/222/163 20/47/163
f 20/47/164 173/222/164 174/225/164 22/48/164
f 22/38/165 174/220/165 175/217/165 24/28/165
f 24/28/166 175/217/166 176/219/166 26/29/166
f 26/22/167 176/215/167 177/211/167 28/23/167
f 28/23/168 177/211/168 178/214/168 11/392/168
f 38/393/169 187/267/169 188/269/169 29/394/169
f 37/395/170 186/266/170 187/267/170 38/393/170
f 36/396/171 185/264/171 186/265/171 37/397/171
f 35/398/172 184/263/172 185/264/172 36/396/172
f 34/399/173 183/261/173 184/262/173 35/400/173
f 33/104/174 182/260/174 183/261/174 34/399/174
f 32/103/175 181/259/175 182/260/175 33/104/175
f 31/401/176 180/257/176 181/258/176 32/402/176
f 30/403/177 179/256/177 180/257/177 31/401/177
f 29/394/178 188/269/178 179/404/178 30/405/178
f 110/238/179 198/149/179 189/150/179 101/239/179
f 109/406/180 197/148/180 198/149/180 110/238/180
f 108/244/181 196/145/181 197/147/181 109/10/181
f 107/245/182 195/144/182 196/145/182 108/244/182
f 106/246/183 194/142/183 195/143/183 107/247/183
f 105/248/184 193/141/184 194/142/184 106/246/184
f 104/249/185 192/140/185 193/141/185 105/248/185
f 103/250/186 191/138/186 192/139/186 104/251/186
f 102/252/187 190/137/187 191/138/187 103/250/187
f 101/407/188 189/135/188 190/137/188 102/252/188
