# Blender 4.2.0
# www.blender.org
mtllib log_5.mtl
g log_5_Mesh
v 0.003563 0.059505 0.309886
v -0.034787 0.037100 0.302582
v -0.060308 0.003490 0.309886
v -0.062863 -0.035512 0.309886
v -0.037342 -0.071760 0.309886
v 0.001798 -0.082717 0.309886
v 0.044468 -0.071760 0.302582
v 0.063570 -0.035512 0.309886
v 0.066914 0.009543 0.309886
v 0.044468 0.045791 0.309886
v 0.003563 0.075568 0.089500
v -0.021635 0.112457 -0.112408
v -0.041002 0.103755 -0.107791
v -0.026093 0.059735 0.105258
v -0.076652 0.009121 -0.115604
v -0.071023 0.006581 0.143121
v -0.076652 -0.022141 -0.156649
v -0.076652 -0.028307 0.097639
v -0.034889 -0.076280 -0.127329
v -0.050906 -0.071885 0.072877
v 0.019787 -0.091310 -0.150931
v 0.002951 -0.092130 0.101314
v 0.043692 -0.085646 -0.146239
v 0.056502 -0.076086 0.128768
v 0.083777 -0.042254 -0.161646
v 0.078307 -0.043498 0.134906
v 0.083777 0.027681 -0.125457
v 0.083777 0.033495 0.085168
v 0.056502 0.059253 -0.121166
v 0.053138 0.059570 0.105545
v 0.003563 0.074047 0.302582
v -0.043070 0.056582 0.309886
v -0.073709 0.013066 0.309886
v -0.076651 -0.039879 0.290129
v -0.046012 -0.083395 0.290129
v 0.004416 -0.099731 0.309886
v 0.053138 -0.083396 0.309886
v 0.083777 -0.039879 0.309886
v 0.083777 0.013910 0.309886
v 0.053138 0.057426 0.309886
v -0.033821 0.035748 0.286331
v -0.036376 -0.070403 0.286331
v 0.043548 0.044439 0.286331
v 0.043548 -0.070403 0.286331
v 0.003586 0.057837 0.286331
v -0.058754 0.002974 0.286331
v -0.061309 -0.034990 0.286331
v 0.001862 -0.081030 0.286331
v 0.062062 -0.034990 0.286331
v 0.065407 0.009026 0.286331
v -0.016130 0.112288 -0.095642
v -0.039839 0.103756 -0.090892
v -0.075405 0.008559 -0.058323
v -0.076652 -0.023506 -0.100350
v -0.038435 -0.075307 -0.083004
v 0.016059 -0.091492 -0.095085
v 0.046528 -0.083529 -0.085353
v 0.082566 -0.042529 -0.095990
v 0.083777 0.028968 -0.078825
v 0.055757 0.059323 -0.070973
v -0.012016 0.075179 -0.095098
v -0.018953 0.075068 -0.133514
v -0.055548 0.050589 -0.124684
v -0.053834 0.050283 -0.086505
v -0.040623 0.130400 -0.096427
v -0.043592 0.130491 -0.105471
v -0.053442 0.125797 -0.102980
v -0.052814 0.125798 -0.093865
v -0.001438 0.060158 -0.240992
v -0.044938 0.044156 -0.248134
v -0.056571 0.015327 -0.240982
v -0.056571 -0.020116 -0.240981
v -0.031089 -0.065526 -0.248139
v 0.013634 -0.078702 -0.240983
v 0.034324 -0.064813 -0.248142
v 0.065657 -0.035429 -0.240988
v 0.066227 0.023610 -0.240993
v 0.048164 0.040998 -0.248154
v -0.052918 0.054326 -0.240977
v -0.001332 0.073303 -0.240993
v -0.076652 0.019082 -0.240983
v -0.076652 -0.024138 -0.240982
v -0.038554 -0.076149 -0.248139
v 0.013798 -0.091573 -0.240982
v 0.046139 -0.081140 -0.248141
v 0.083777 -0.045843 -0.240986
v 0.078141 0.029214 -0.240992
v 0.054908 0.051578 -0.248155
v 0.012381 -0.070269 -0.217565
v -0.000865 0.051763 -0.217573
v -0.026923 -0.058690 -0.217564
v -0.039094 0.037699 -0.217560
v 0.035319 -0.062868 -0.217568
v 0.042724 0.034925 -0.217579
v -0.056159 0.012363 -0.217564
v -0.056159 -0.018784 -0.217563
v 0.062852 -0.037044 -0.217569
v 0.058595 0.019645 -0.217574
vn 0.4947 -0.8669 0.0619
vn -0.8491 -0.5241 0.0658
vn 0.3166 0.9485 0.0100
vn 0.2271 0.9739 0.0020
vn -0.8874 0.4596 0.0365
vn 0.8176 0.5757 0.0060
vn 0.7361 0.6768 0.0100
vn 0.9995 -0.0000 -0.0312
vn 0.9999 -0.0170 0.0005
vn 0.7545 0.6557 -0.0281
vn 0.8176 -0.5756 -0.0137
vn 0.7495 -0.6619 -0.0119
vn 0.9985 0.0250 -0.0484
vn 0.3177 -0.9476 -0.0323
vn 0.2461 -0.9690 0.0222
vn 0.7323 -0.6809 -0.0125
vn -0.2964 -0.9545 -0.0327
vn -0.2851 -0.9585 -0.0018
vn 0.2373 -0.9707 -0.0372
vn -0.8172 -0.5754 -0.0346
vn -0.7955 -0.6038 -0.0504
vn -0.2623 -0.9650 0.0069
vn -0.9979 0.0623 -0.0185
vn -0.9997 0.0102 0.0218
vn -0.7977 -0.6026 0.0235
vn -0.8171 0.5753 -0.0355
vn -0.8814 0.4718 0.0238
vn -1.0000 -0.0000 -0.0000
vn -0.3527 0.9356 -0.0149
vn 0.5881 0.7873 -0.1852
vn 0.2024 0.9791 0.0171
vn 0.1624 0.0250 0.9864
vn -0.2371 0.9691 0.0688
vn -0.9950 0.0756 0.0653
vn 0.0215 -0.3429 0.9391
vn 0.0992 0.1388 0.9853
vn -0.8244 0.0540 0.5634
vn -0.6705 -0.4721 0.5723
vn -0.3805 -0.0586 0.9229
vn -0.0000 -0.0000 1.0000
vn 0.0188 0.4487 0.8935
vn -0.8827 0.4615 0.0885
vn -0.3172 -0.9460 0.0667
vn 0.7921 -0.6026 0.0972
vn 0.9955 -0.0670 0.0671
vn 0.8158 0.5744 0.0666
vn 0.2690 0.9609 0.0664
vn -0.4613 0.8869 0.0230
vn -0.7554 0.6548 0.0229
vn -0.9912 0.1301 0.0228
vn -0.8639 -0.5035 -0.0122
vn -0.3398 -0.9401 -0.0257
vn 0.2773 -0.9606 0.0205
vn 0.8299 -0.5577 0.0130
vn 0.9981 -0.0592 0.0182
vn 0.6514 0.7587 0.0086
vn 0.3062 0.9520 0.0032
vn 0.9699 0.1687 -0.1756
vn -0.4492 0.3799 -0.8087
vn -0.9639 0.2577 0.0664
vn 0.1842 0.0348 0.9823
vn -0.3487 0.9369 0.0239
vn 0.1264 0.2053 0.9705
vn -0.2565 0.0589 -0.9648
vn -0.8637 -0.5004 0.0595
vn -0.5536 0.8327 0.0142
vn 0.8338 0.5036 -0.2262
vn -0.6838 0.7290 -0.0316
vn -0.3427 -0.8870 -0.3096
vn 0.9998 -0.0000 -0.0176
vn -0.0003 -0.0000 -1.0000
vn -0.4171 0.2810 -0.8644
vn -0.0000 -0.0000 -1.0000
vn -0.0280 0.1403 -0.9897
vn 0.1122 -0.0788 -0.9906
vn -0.2153 -0.0028 -0.9766
vn 0.1342 0.0970 -0.9862
vn 0.0001 -0.0001 -1.0000
vn 0.0985 -0.2092 -0.9729
vn -0.1148 0.0731 -0.9907
vn 0.0003 -0.0000 -1.0000
vn -0.0001 -0.0001 -1.0000
vn -0.0000 -0.0001 -1.0000
vn 0.3706 -0.8919 -0.2592
vn -0.9512 0.0092 -0.3084
vn 0.2683 0.9108 -0.3136
vn 0.8264 -0.5566 -0.0850
vn -0.6152 -0.7451 -0.2574
vn -0.5651 0.8243 -0.0341
vn 0.5059 -0.8566 0.1013
vn -0.8485 -0.5254 0.0633
vn 0.3051 0.9523 0.0068
vn 0.2114 0.9765 -0.0410
vn -0.8295 0.5586 -0.0008
vn 0.6712 0.7384 0.0644
vn 0.7554 0.6550 -0.0181
vn 0.9972 -0.0751 -0.0065
vn 0.9998 -0.0095 0.0184
vn 0.7008 0.7115 -0.0518
vn 0.8317 -0.5552 -0.0070
vn 0.7364 -0.6765 0.0107
vn 0.9972 0.0749 -0.0034
vn 0.3041 -0.9519 -0.0368
vn 0.2283 -0.9735 0.0121
vn 0.6803 -0.7322 0.0331
vn -0.3318 -0.9424 -0.0425
vn -0.2736 -0.9616 -0.0214
vn 0.3035 -0.9527 -0.0174
vn -0.8628 -0.5055 -0.0074
vn -0.7878 -0.6158 -0.0149
vn -0.2853 -0.9582 0.0218
vn -0.9890 0.1480 0.0089
vn -0.8057 -0.5921 0.0140
vn -0.7816 0.6213 -0.0553
vn -0.8865 0.4607 0.0435
vn -0.4684 0.8835 0.0063
vn 0.3529 0.9337 -0.0609
vn -0.1488 0.4438 0.8837
vn -0.2459 0.9647 0.0945
vn -0.9953 0.0739 0.0621
vn -0.0281 0.4487 0.8933
vn 0.3076 -0.2166 0.9265
vn -0.2346 -0.3284 0.9149
vn -0.2224 -0.7943 0.5654
vn -0.5422 0.1181 0.8319
vn -0.8882 0.4546 0.0669
vn 0.8015 -0.5943 0.0659
vn 0.9958 -0.0652 0.0643
vn 0.2671 0.9611 0.0696
vn -0.5049 0.8622 0.0408
vn -0.8552 0.5088 0.0986
vn -0.9993 0.0376 0.0009
vn 0.2488 -0.9685 0.0135
vn 0.7323 0.6808 -0.0188
vn 0.2351 0.9717 -0.0219
vn 0.9456 0.1003 -0.3095
vn -0.3881 0.4318 -0.8142
vn -0.9671 0.2502 0.0454
vn 0.1823 0.0329 0.9827
vn -0.3970 0.9071 0.1395
vn 0.1207 0.2053 0.9712
vn -0.2703 0.0572 -0.9611
vn -0.3444 0.9361 -0.0718
vn 0.8058 0.5903 -0.0477
vn -0.6809 0.7320 -0.0244
vn -0.3799 -0.8920 -0.2448
vn -0.0616 0.5416 -0.8384
vn -0.0419 -0.2246 -0.9736
vn 0.0001 -0.0000 -1.0000
vn -0.0952 0.0669 -0.9932
vn 0.1585 0.0020 -0.9873
vn -0.2238 -0.1620 -0.9611
vn 0.0716 0.1243 -0.9897
vn 0.2358 -0.1504 -0.9601
vn -0.1260 0.0010 -0.9920
vn -0.0002 -0.0001 -1.0000
vn 0.0002 -0.0001 -1.0000
vn 0.3263 -0.8873 -0.3261
vn -0.9895 -0.0743 -0.1237
vn 0.3100 0.9180 -0.2475
vn 0.8732 -0.4155 -0.2547
vn -0.6550 -0.6804 -0.3287
vn -0.2890 0.8957 -0.3380
vt 0.309887 0.077032
vt 0.310216 0.077314
vt 0.309789 0.077313
vt 0.313152 0.074097
vt 0.313582 0.073869
vt 0.313581 0.074104
vt 0.293410 0.078896
vt 0.294431 0.080527
vt 0.293483 0.080598
vt 0.293255 0.077008
vt 0.294541 0.077210
vt 0.293289 0.077426
vt 0.312167 0.070436
vt 0.312883 0.069475
vt 0.312992 0.070523
vt 0.292708 0.080595
vt 0.292630 0.077361
vt 0.308161 0.075383
vt 0.309187 0.076844
vt 0.308215 0.076843
vt 0.308219 0.073461
vt 0.309494 0.073217
vt 0.309511 0.073605
vt 0.292661 0.076008
vt 0.292603 0.076972
vt 0.307363 0.076831
vt 0.307363 0.073027
vt 0.307400 0.073535
vt 0.308235 0.072914
vt 0.309525 0.072252
vt 0.310657 0.075557
vt 0.311547 0.074038
vt 0.311474 0.075549
vt 0.310918 0.072181
vt 0.311403 0.071752
vt 0.311435 0.072258
vt 0.307464 0.072178
vt 0.309704 0.075384
vt 0.310647 0.073816
vt 0.309963 0.071905
vt 0.309887 0.072273
vt 0.310995 0.071716
vt 0.311453 0.070901
vt 0.309013 0.073755
vt 0.309013 0.075363
vt 0.309036 0.072104
vt 0.309921 0.070899
vt 0.312874 0.072680
vt 0.313639 0.073917
vt 0.312688 0.074069
vt 0.313555 0.070658
vt 0.312966 0.071000
vt 0.309043 0.071634
vt 0.311775 0.074058
vt 0.312144 0.070755
vt 0.313561 0.070188
vt 0.294781 0.078871
vt 0.295142 0.080570
vt 0.310131 0.073769
vt 0.310409 0.073566
vt 0.310441 0.073806
vt 0.294284 0.075997
vt 0.294644 0.076888
vt 0.321088 0.086671
vt 0.320787 0.086285
vt 0.321306 0.086568
vt 0.315376 0.071604
vt 0.315055 0.071292
vt 0.315482 0.071293
vt 0.313152 0.074466
vt 0.313581 0.074465
vt 0.322769 0.085591
vt 0.323432 0.085835
vt 0.323106 0.085924
vt 0.323432 0.086278
vt 0.323132 0.086279
vt 0.322925 0.086642
vt 0.322762 0.086557
vt 0.309817 0.075543
vt 0.322014 0.086791
vt 0.320881 0.085950
vt 0.320535 0.086326
vt 0.320535 0.085883
vt 0.321303 0.085627
vt 0.321098 0.085517
vt 0.322017 0.085488
vt 0.322010 0.085368
vt 0.322923 0.085489
vt 0.313286 0.074800
vt 0.313582 0.074791
vt 0.335381 0.192182
vt 0.336131 0.191644
vt 0.335990 0.191954
vt 0.334540 0.191083
vt 0.333828 0.191679
vt 0.333984 0.191318
vt 0.334659 0.192182
vt 0.335306 0.191064
vt 0.335854 0.191325
vt 0.309789 0.077669
vt 0.310216 0.077662
vt 0.309811 0.073123
vt 0.309498 0.073429
vt 0.309517 0.073133
vt 0.309925 0.073427
vt 0.309498 0.073746
vt 0.315482 0.070658
vt 0.315044 0.070961
vt 0.315055 0.070672
vt 0.315471 0.070954
vt 0.311328 0.072214
vt 0.311743 0.072350
vt 0.313537 0.072309
vt 0.309622 0.073570
vt 0.307527 0.075323
vt 0.309571 0.074972
vt 0.292724 0.078728
vt 0.294351 0.078752
vt 0.309846 0.074015
vt 0.309184 0.074157
vt 0.309185 0.073834
vt 0.323567 0.072658
vt 0.323994 0.072898
vt 0.323331 0.073106
vt 0.311156 0.070564
vt 0.311141 0.070705
vt 0.322990 0.070527
vt 0.322474 0.070760
vt 0.322559 0.070451
vt 0.310275 0.073479
vt 0.310441 0.073480
vt 0.323010 0.070303
vt 0.323231 0.070344
vt 0.323510 0.072435
vt 0.323919 0.072583
vt 0.310828 0.070599
vt 0.295069 0.075977
vt 0.295142 0.076944
vt 0.313419 0.071015
vt 0.313828 0.071349
vt 0.313266 0.071335
vt 0.304787 0.071132
vt 0.304316 0.071405
vt 0.304359 0.071137
vt 0.306817 0.076123
vt 0.306375 0.076524
vt 0.306383 0.076141
vt 0.325516 0.076157
vt 0.325973 0.075899
vt 0.325943 0.076157
vt 0.303315 0.083839
vt 0.302563 0.083579
vt 0.303481 0.083760
vt 0.302542 0.083688
vt 0.301808 0.083656
vt 0.301582 0.084008
vt 0.302026 0.083794
vt 0.301351 0.084431
vt 0.301267 0.083917
vt 0.301616 0.084844
vt 0.301120 0.084453
vt 0.301775 0.084765
vt 0.302175 0.084968
vt 0.303003 0.084802
vt 0.302224 0.084802
vt 0.303978 0.084482
vt 0.303112 0.084968
vt 0.303750 0.084448
vt 0.303953 0.084216
vt 0.303731 0.084241
vt 0.281283 0.085415
vt 0.280897 0.085874
vt 0.280939 0.085615
vt 0.282070 0.086345
vt 0.282763 0.085489
vt 0.282496 0.086298
vt 0.281373 0.086224
vt 0.281996 0.085322
vt 0.283030 0.085626
vt 0.283030 0.086100
vt 0.306362 0.075848
vt 0.306923 0.075791
vt 0.304435 0.070692
vt 0.304868 0.070658
vt 0.313402 0.071723
vt 0.313833 0.071690
vt 0.325550 0.075864
vt 0.326013 0.075673
vt 0.306793 0.076734
vt 0.306937 0.076559
vt 0.313845 0.071853
vt 0.313288 0.071852
vt 0.310181 0.077041
vt 0.313153 0.073856
vt 0.312149 0.069466
vt 0.293186 0.075948
vt 0.308181 0.072253
vt 0.310907 0.070966
vt 0.309066 0.070933
vt 0.313639 0.069485
vt 0.310242 0.073545
vt 0.315081 0.071595
vt 0.309241 0.075526
vt 0.322003 0.086681
vt 0.333980 0.192004
vt 0.309925 0.073752
vt 0.311507 0.070676
vt 0.309846 0.074157
vt 0.323231 0.070976
vt 0.323331 0.072475
vt 0.310820 0.070675
vt 0.313845 0.071014
vt 0.304868 0.071442
vt 0.325459 0.075611
vt 0.306362 0.076677
s 0
g log_5_Material
usemtl Material
f 2/1/1 45/2/1 1/3/1
f 9/4/2 43/5/2 50/6/2
f 30/7/3 31/8/3 40/9/3
f 29/10/4 61/11/4 60/12/4
f 63/13/5 81/14/5 15/15/5
f 39/16/6 30/7/6 40/9/6
f 59/17/7 29/10/7 60/12/7
f 26/18/8 39/19/8 38/20/8
f 58/21/9 27/22/9 59/23/9
f 87/24/10 29/10/10 27/25/10
f 37/26/11 26/18/11 38/20/11
f 23/27/12 58/21/12 57/28/12
f 25/29/13 87/30/13 27/22/13
f 36/31/14 24/32/14 37/33/14
f 56/34/15 23/35/15 57/36/15
f 85/37/16 25/29/16 23/27/16
f 35/38/17 22/39/17 36/31/17
f 19/40/18 56/34/18 55/41/18
f 21/42/19 85/43/19 23/35/19
f 18/44/20 35/38/20 34/45/20
f 54/46/21 19/40/21 55/41/21
f 83/47/22 21/42/22 19/40/22
f 16/48/23 34/49/23 33/50/23
f 15/15/24 54/51/24 53/52/24
f 17/53/25 83/47/25 19/40/25
f 32/54/26 16/48/26 33/50/26
f 64/55/27 15/15/27 53/52/27
f 81/14/28 17/56/28 15/15/28
f 31/8/29 14/57/29 32/58/29
f 12/59/30 65/60/30 51/61/30
f 29/10/31 80/62/31 62/63/31
f 36/64/32 7/65/32 6/66/32
f 7/67/33 48/68/33 6/69/33
f 8/70/34 50/6/34 49/71/34
f 1/72/35 32/73/35 2/74/35
f 2/74/36 33/75/36 3/76/36
f 3/76/37 34/77/37 4/78/37
f 5/79/38 34/45/38 35/38/38
f 6/66/39 35/80/39 36/64/39
f 8/81/40 37/82/40 38/83/40
f 9/84/40 38/83/40 39/85/40
f 10/86/40 39/85/40 40/87/40
f 1/72/41 40/87/41 31/88/41
f 7/89/42 49/71/42 44/90/42
f 42/91/40 46/92/40 47/93/40
f 43/94/40 49/95/40 50/96/40
f 48/97/40 43/94/40 45/98/40
f 48/97/40 41/99/40 42/91/40
f 10/100/43 45/2/43 43/101/43
f 2/102/44 46/103/44 41/104/44
f 3/105/45 47/106/45 46/103/45
f 4/107/46 42/108/46 47/109/46
f 6/69/47 42/108/47 5/110/47
f 11/111/48 64/55/48 14/112/48
f 14/112/49 53/52/49 16/48/49
f 53/52/50 18/113/50 16/48/50
f 54/46/51 20/114/51 18/44/51
f 20/114/52 56/34/52 22/39/52
f 22/39/53 57/36/53 24/32/53
f 24/115/54 58/21/54 26/18/54
f 58/21/55 28/116/55 26/18/55
f 28/117/56 60/12/56 30/7/56
f 60/12/57 11/118/57 30/7/57
f 12/119/58 61/120/58 62/121/58
f 13/122/59 62/123/59 63/124/59
f 13/125/60 64/55/60 52/126/60
f 52/127/61 61/128/61 51/129/61
f 65/60/62 67/130/62 68/131/62
f 52/127/63 65/132/63 68/133/63
f 13/122/64 66/134/64 12/135/64
f 52/126/65 67/136/65 13/125/65
f 62/63/66 79/137/66 63/138/66
f 72/139/67 91/140/67 73/141/67
f 76/142/68 93/143/68 97/144/68
f 69/145/69 94/146/69 90/147/69
f 72/148/70 95/149/70 96/150/70
f 69/151/71 79/152/71 80/153/71
f 70/154/72 81/155/72 79/152/72
f 72/156/73 81/155/73 71/157/73
f 73/158/74 82/159/74 72/156/74
f 73/158/75 84/160/75 83/161/75
f 74/162/76 85/163/76 84/160/76
f 76/164/77 85/163/77 75/165/77
f 76/164/78 87/166/78 86/167/78
f 77/168/79 88/169/79 87/166/79
f 69/151/80 88/169/80 78/170/80
f 92/171/81 96/172/81 95/173/81
f 89/174/82 94/175/82 93/176/82
f 91/177/83 90/178/83 89/174/83
f 93/176/83 98/179/83 97/180/83
f 69/145/84 92/181/84 70/182/84
f 76/142/85 98/183/85 77/184/85
f 74/185/86 91/140/86 89/186/86
f 71/187/87 92/188/87 95/149/87
f 77/189/88 94/146/88 78/190/88
f 74/185/89 93/191/89 75/192/89
f 2/1/90 41/193/90 45/2/90
f 9/4/91 10/194/91 43/5/91
f 30/7/92 11/118/92 31/8/92
f 29/10/93 62/63/93 61/11/93
f 63/13/94 79/195/94 81/14/94
f 39/16/95 28/117/95 30/7/95
f 59/17/96 27/25/96 29/10/96
f 26/18/97 28/116/97 39/19/97
f 58/21/98 25/29/98 27/22/98
f 87/24/99 88/196/99 29/10/99
f 37/26/100 24/115/100 26/18/100
f 23/27/101 25/29/101 58/21/101
f 25/29/102 86/197/102 87/30/102
f 36/31/103 22/39/103 24/32/103
f 56/34/104 21/42/104 23/35/104
f 85/37/105 86/197/105 25/29/105
f 35/38/106 20/114/106 22/39/106
f 19/40/107 21/42/107 56/34/107
f 21/42/108 84/198/108 85/43/108
f 18/44/109 20/114/109 35/38/109
f 54/46/110 17/53/110 19/40/110
f 83/47/111 84/198/111 21/42/111
f 16/48/112 18/113/112 34/49/112
f 15/15/28 17/56/28 54/51/28
f 17/53/113 82/199/113 83/47/113
f 32/54/114 14/112/114 16/48/114
f 64/55/115 63/13/115 15/15/115
f 81/14/28 82/200/28 17/56/28
f 31/8/116 11/118/116 14/57/116
f 12/59/30 66/201/30 65/60/30
f 29/10/117 88/196/117 80/62/117
f 36/64/118 37/82/118 7/65/118
f 7/67/119 44/202/119 48/68/119
f 8/70/120 9/4/120 50/6/120
f 1/72/121 31/88/121 32/73/121
f 2/74/122 32/73/122 33/75/122
f 3/76/123 33/75/123 34/77/123
f 5/79/38 4/203/38 34/45/38
f 6/66/124 5/204/124 35/80/124
f 8/81/125 7/65/125 37/82/125
f 9/84/40 8/81/40 38/83/40
f 10/86/40 9/84/40 39/85/40
f 1/72/40 10/86/40 40/87/40
f 7/89/126 8/70/126 49/71/126
f 42/91/40 41/99/40 46/92/40
f 43/94/40 44/205/40 49/95/40
f 48/97/40 44/205/40 43/94/40
f 48/97/40 45/98/40 41/99/40
f 10/100/43 1/3/43 45/2/43
f 2/102/127 3/105/127 46/103/127
f 3/105/128 4/206/128 47/106/128
f 4/107/46 5/110/46 42/108/46
f 6/69/129 48/68/129 42/108/129
f 11/111/130 61/207/130 64/55/130
f 14/112/131 64/55/131 53/52/131
f 53/52/132 54/51/132 18/113/132
f 54/46/21 55/41/21 20/114/21
f 20/114/18 55/41/18 56/34/18
f 22/39/133 56/34/133 57/36/133
f 24/115/12 57/28/12 58/21/12
f 58/21/9 59/23/9 28/116/9
f 28/117/134 59/17/134 60/12/134
f 60/12/135 61/11/135 11/118/135
f 12/119/136 51/208/136 61/120/136
f 13/122/137 12/135/137 62/123/137
f 13/125/138 63/13/138 64/55/138
f 52/127/139 64/209/139 61/128/139
f 65/60/140 66/201/140 67/130/140
f 52/127/141 51/129/141 65/132/141
f 13/122/142 67/210/142 66/134/142
f 52/126/65 68/211/65 67/136/65
f 62/63/143 80/62/143 79/137/143
f 72/139/144 96/212/144 91/140/144
f 76/142/145 75/213/145 93/143/145
f 69/145/146 78/190/146 94/146/146
f 72/148/70 71/187/70 95/149/70
f 69/151/147 70/154/147 79/152/147
f 70/154/148 71/157/148 81/155/148
f 72/156/149 82/159/149 81/155/149
f 73/158/150 83/161/150 82/159/150
f 73/158/151 74/162/151 84/160/151
f 74/162/152 75/165/152 85/163/152
f 76/164/153 86/167/153 85/163/153
f 76/164/78 77/168/78 87/166/78
f 77/168/154 78/170/154 88/169/154
f 69/151/155 80/153/155 88/169/155
f 92/171/73 91/177/73 96/172/73
f 89/174/156 90/178/156 94/175/156
f 91/177/71 92/171/71 90/178/71
f 93/176/157 94/175/157 98/179/157
f 69/145/158 90/147/158 92/181/158
f 76/142/159 97/144/159 98/183/159
f 74/185/160 73/141/160 91/140/160
f 71/187/161 70/214/161 92/188/161
f 77/189/162 98/215/162 94/146/162
f 74/185/163 89/186/163 93/191/163
