# Blender 4.2.0
# www.blender.org
mtllib log_4.mtl
g log_4_Mesh
v -0.068555 0.013889 -0.050744
v -0.013418 0.032521 -0.089383
v -0.091622 -0.016460 -0.046566
v -0.108242 -0.057852 -0.109840
v -0.071021 -0.111118 -0.101507
v -0.022688 -0.126819 -0.098107
v 0.021436 -0.111108 -0.091920
v 0.050461 -0.073893 -0.095649
v 0.049887 -0.016799 -0.053715
v 0.025644 0.021934 -0.098264
v -0.053357 -0.001186 -0.298297
v -0.083340 -0.032203 -0.298297
v -0.085638 -0.063960 -0.313786
v -0.066178 -0.091796 -0.298297
v -0.019114 -0.111166 -0.298297
v 0.013110 -0.088989 -0.311842
v 0.029845 -0.067191 -0.298297
v 0.036813 -0.029995 -0.298297
v 0.012555 0.000714 -0.298297
v -0.020691 0.007748 -0.298297
v 0.005981 0.032429 0.073120
v -0.070691 0.022890 0.029457
v -0.102903 -0.005503 0.083849
v -0.102903 -0.062052 0.118327
v -0.059651 -0.111603 0.161422
v -0.007507 -0.127475 0.120511
v 0.022678 -0.111603 0.111586
v 0.057526 -0.085633 0.144748
v 0.045607 -0.004677 0.082414
v 0.022592 0.011010 0.075921
v -0.020837 0.025994 -0.298297
v 0.020654 0.012286 -0.298297
v 0.050297 -0.025239 -0.298297
v 0.050745 -0.071728 -0.298297
v 0.021550 -0.109751 -0.311842
v -0.019755 -0.125949 -0.298297
v -0.075806 -0.102121 -0.298297
v -0.093782 -0.066099 -0.313786
v -0.090771 -0.028595 -0.298297
v -0.074525 0.009862 -0.298297
v -0.020715 0.006362 -0.273764
v -0.019174 -0.109721 -0.273764
v 0.011765 -0.000420 -0.273764
v 0.012308 -0.087836 -0.273764
v -0.052540 -0.002276 -0.273764
v -0.065338 -0.090798 -0.273764
v 0.035465 -0.030421 -0.273764
v 0.028488 -0.066760 -0.273764
v -0.081690 -0.062905 -0.273764
v -0.081187 -0.032578 -0.273764
v 0.001302 0.030763 0.031959
v -0.070067 0.020261 0.006029
v -0.099607 -0.008704 0.045752
v -0.104462 -0.060825 0.051674
v -0.062972 -0.111461 0.084615
v -0.011942 -0.127284 0.056648
v 0.022315 -0.111458 0.052137
v 0.055462 -0.082204 0.074522
v 0.046857 -0.008218 0.042648
v 0.023142 0.015458 0.032057
v 0.029346 0.009402 0.022892
v 0.029786 0.004272 0.086196
v -0.000303 0.038551 0.081476
v -0.005792 0.037418 0.022697
v 0.055679 0.055015 0.055891
v 0.061907 0.060147 0.083819
v 0.042624 0.078960 0.075572
v 0.034904 0.073822 0.060854
v 0.078753 0.106597 0.035844
v 0.079556 0.104727 0.055762
v 0.068136 0.109319 0.054490
v 0.066684 0.107594 0.035799
v 0.085575 0.126982 0.028375
v 0.086038 0.125904 0.039855
v 0.079456 0.128551 0.039122
v 0.078619 0.127557 0.028349
v 0.050366 0.091375 0.064719
v 0.046080 0.087824 0.051768
v 0.067330 0.081062 0.045769
v 0.070819 0.082657 0.069652
v 0.048227 0.071563 0.081519
v 0.039867 0.062613 0.057082
v 0.053408 0.085326 0.046335
v 0.058280 0.090628 0.067871
v 0.020234 0.158881 0.071765
v 0.018674 0.159331 0.069434
v 0.021517 0.159257 0.067799
v 0.022514 0.159089 0.069867
v 0.030842 0.098382 0.073114
v 0.026881 0.095745 0.065563
v 0.032615 0.102929 0.060902
v 0.034814 0.104751 0.067546
v 0.016701 0.123007 0.073304
v 0.019492 0.124682 0.063674
v 0.012947 0.123256 0.067573
v 0.021817 0.124777 0.068748
v 0.090628 0.160016 0.030890
v 0.090865 0.159465 0.036760
v 0.087499 0.160818 0.036385
v 0.087071 0.160309 0.030877
v -0.010919 0.025122 0.213282
v -0.071107 -0.000037 0.202038
v -0.089500 -0.020095 0.202044
v -0.088659 -0.055547 0.202042
v -0.051505 -0.101085 0.202037
v -0.009515 -0.114217 0.213280
v 0.007615 -0.097644 0.202035
v 0.036239 -0.069411 0.202047
v 0.039223 -0.011934 0.202044
v 0.021898 0.003662 0.202049
v -0.009645 0.038985 0.213284
v -0.078345 0.010269 0.202039
v -0.101914 -0.015434 0.202047
v -0.100855 -0.060055 0.202045
v -0.058701 -0.111723 0.202038
v -0.009163 -0.127214 0.213280
v 0.020622 -0.116095 0.202036
v 0.055039 -0.082147 0.202048
v 0.051253 -0.006214 0.202046
v 0.029423 0.013438 0.202051
v -0.010287 -0.109328 0.178617
v -0.011591 0.020071 0.178619
v 0.011419 -0.101224 0.178617
v 0.018887 0.000143 0.178630
v -0.049286 -0.097134 0.178619
v -0.067490 -0.003293 0.178619
v -0.084574 -0.021921 0.178625
v -0.083793 -0.054844 0.178623
v 0.038000 -0.075005 0.178628
v 0.034975 -0.014340 0.178626
vn -0.2284 0.9668 -0.1146
vn -0.7722 0.6241 -0.1192
vn -0.9923 0.0819 -0.0927
vn -0.7834 -0.6206 0.0327
vn -0.2907 -0.9567 0.0108
vn 0.4188 -0.9080 -0.0048
vn 0.6816 -0.7296 -0.0557
vn 0.9921 0.1241 0.0201
vn 0.7297 0.6827 -0.0378
vn 0.6219 0.7794 -0.0764
vn -0.2041 -0.9774 -0.0554
vn -0.2877 0.9575 -0.0197
vn -0.9211 0.3891 0.0159
vn -0.9154 0.4019 -0.0225
vn -0.8862 -0.4612 -0.0442
vn -0.3910 -0.9198 -0.0325
vn 0.3353 -0.9421 0.0008
vn 0.7937 -0.6083 -0.0033
vn 1.0000 0.0096 0.0015
vn 0.8559 0.5169 -0.0164
vn 0.3133 0.9482 -0.0535
vn 0.9949 -0.0245 -0.0975
vn 0.8616 0.5051 -0.0500
vn -0.0000 -0.0000 -1.0000
vn 0.2883 0.1172 -0.9503
vn -0.3164 0.0137 -0.9485
vn 0.1110 -0.4228 -0.8994
vn 0.1765 0.3636 -0.9147
vn 0.7170 -0.6931 -0.0735
vn -0.7836 -0.6190 -0.0538
vn 0.2635 -0.9633 -0.0516
vn -0.9816 0.1839 -0.0508
vn -0.7920 0.6081 -0.0545
vn -0.5770 0.8159 -0.0369
vn 0.3801 0.9234 -0.0534
vn 0.1373 0.4259 -0.8943
vn 0.4800 0.8750 -0.0628
vn 0.9915 0.1284 -0.0229
vn 0.6305 -0.7741 -0.0563
vn 0.4571 -0.8887 -0.0344
vn -0.2836 -0.9589 0.0105
vn -0.7666 -0.6413 0.0320
vn -0.9996 0.0144 0.0237
vn -0.7623 0.6361 -0.1194
vn -0.2183 0.9759 0.0016
vn 0.7517 0.6551 0.0759
vn 0.7545 0.6481 -0.1033
vn 0.6212 0.7769 -0.1021
vn 0.6209 0.7793 0.0844
vn -0.8549 0.5185 0.0186
vn -0.1797 -0.0172 0.9836
vn -0.6529 0.7562 0.0436
vn 0.7841 -0.6175 -0.0614
vn -0.8551 0.5182 0.0186
vn 0.9008 -0.4217 -0.1034
vn -0.0256 -0.3522 -0.9356
vn 0.1218 0.5345 0.8363
vn -0.9679 0.2457 0.0525
vn 0.9380 -0.3395 -0.0697
vn -0.0243 -0.3368 -0.9413
vn 0.1378 0.5675 0.8117
vn 0.1978 0.4995 0.8434
vn -0.1324 -0.3070 -0.9424
vn 0.8947 -0.4301 -0.1205
vn -0.8179 0.1006 0.5665
vn -0.8550 -0.3186 0.4092
vn -0.6218 -0.0118 -0.7831
vn -0.2004 0.7127 0.6723
vn 0.1049 0.9497 -0.2952
vn 0.0569 0.9969 0.0538
vn 0.9006 -0.0041 -0.4346
vn -0.4918 0.1315 -0.8607
vn 0.6713 -0.0343 0.7404
vn 0.4783 0.3897 0.7870
vn -0.5952 -0.0455 -0.8023
vn 0.5601 0.7328 -0.3863
vn -0.7527 -0.3895 0.5308
vn 0.5623 0.3170 0.7637
vn -0.4751 -0.1768 -0.8620
vn 0.7602 0.5170 -0.3934
vn -0.7662 -0.4234 0.4835
vn 0.3651 0.9281 0.0724
vn 0.9877 -0.1470 -0.0536
vn 0.0098 0.0744 -0.9972
vn -0.0697 0.1015 0.9924
vn 0.5543 0.8315 0.0365
vn -0.7356 0.6745 0.0628
vn -0.9994 -0.0237 0.0250
vn -0.7747 -0.6321 0.0163
vn -0.2993 -0.9541 0.0042
vn 0.3527 -0.9357 0.0089
vn 0.7003 -0.7100 0.0736
vn 0.9979 0.0498 0.0403
vn 0.6680 0.7420 -0.0566
vn -0.3813 0.9240 -0.0301
vn -0.9968 -0.0497 -0.0631
vn 0.3621 -0.9234 0.1275
vn 0.7626 0.6222 0.1771
vn -0.6854 0.6949 -0.2176
vn -0.1422 -0.1000 0.9848
vn 0.0002 0.0001 1.0000
vn 0.0002 -0.0001 1.0000
vn 0.0002 -0.0000 1.0000
vn -0.2231 -0.0060 0.9748
vn 0.3522 0.2483 0.9024
vn -0.0002 -0.0002 1.0000
vn -0.0002 0.0001 1.0000
vn 0.0001 -0.0002 1.0000
vn 0.2616 -0.0241 0.9649
vn -0.0004 -0.0000 1.0000
vn 0.0001 -0.0000 1.0000
vn 0.0003 0.0001 1.0000
vn 0.2932 0.9378 0.1860
vn 0.7216 -0.6617 0.2035
vn -0.6563 -0.7291 0.1940
vn -0.6483 0.7518 0.1205
vn 0.9787 0.0232 0.2041
vn -0.5371 -0.8213 0.1925
vn -0.3318 0.9432 -0.0186
vn -0.7989 0.5950 -0.0881
vn -0.9418 0.3350 0.0282
vn -0.8203 -0.5718 0.0087
vn -0.3101 -0.9505 0.0187
vn 0.3386 -0.9406 -0.0263
vn 0.7882 -0.6154 -0.0063
vn 0.9991 0.0305 -0.0279
vn 0.8301 0.5566 0.0322
vn 0.2796 0.9559 0.0903
vn -0.2067 -0.9770 -0.0518
vn -0.3249 0.9457 -0.0075
vn -0.7978 0.6020 -0.0317
vn -0.9911 0.1104 -0.0747
vn -0.8192 -0.5734 -0.0063
vn -0.3084 -0.9512 -0.0087
vn 0.3635 -0.9316 -0.0056
vn 0.7883 -0.6153 -0.0055
vn 1.0000 0.0090 0.0014
vn 0.7837 0.6191 -0.0494
vn 0.2531 0.9666 -0.0392
vn 0.9960 -0.0165 -0.0876
vn 0.8402 0.5335 -0.0970
vn 0.1015 0.4677 -0.8781
vn -0.3096 -0.1258 -0.9425
vn 0.2778 -0.2591 -0.9250
vn -0.1161 0.4422 -0.8894
vn 0.7256 -0.6860 -0.0546
vn 0.2615 -0.9637 -0.0542
vn -0.9804 0.1882 -0.0575
vn -0.7820 0.6223 -0.0353
vn -0.5701 0.8201 -0.0497
vn 0.3788 0.9241 -0.0506
vn 0.2674 0.3760 -0.8872
vn 0.6769 0.7341 0.0548
vn 0.6639 -0.7478 -0.0059
vn -0.2875 -0.9576 0.0171
vn -0.7756 -0.6312 0.0065
vn -0.7578 0.6458 -0.0927
vn 0.6371 0.7686 0.0578
vn 0.7752 0.6182 0.1300
vn 0.7366 0.6714 -0.0817
vn 0.5678 0.8093 -0.1505
vn -0.8606 0.5043 0.0705
vn -0.1819 -0.0125 0.9832
vn -0.6749 0.7369 -0.0390
vn 0.7865 -0.6153 -0.0525
vn 0.8987 -0.4318 -0.0768
vn -0.1452 -0.3511 -0.9250
vn 0.1779 0.4727 0.8631
vn 0.2314 0.4509 0.8620
vn -0.2178 -0.3083 -0.9260
vn 0.8929 -0.4387 -0.1011
vn -0.8297 0.1052 0.5481
vn -0.6927 -0.4860 0.5330
vn -0.6000 -0.0207 -0.7997
vn -0.0547 0.6002 0.7980
vn 0.1989 0.9402 -0.2765
vn 0.0441 0.9860 0.1610
vn 0.9091 -0.0035 -0.4165
vn -0.5280 0.1271 -0.8397
vn 0.6415 -0.0380 0.7662
vn 0.5654 0.3213 0.7597
vn -0.4764 -0.1784 -0.8609
vn 0.7758 0.5146 -0.3652
vn -0.7323 -0.4246 0.5323
vn 0.0822 0.9918 -0.0979
vn 0.7540 0.6550 -0.0495
vn -0.6335 0.7732 0.0284
vn -0.9999 0.0054 0.0088
vn -0.7674 -0.6402 0.0340
vn -0.2930 -0.9561 -0.0025
vn 0.4573 -0.8887 -0.0337
vn 0.6127 -0.7899 -0.0253
vn 0.9928 0.1112 -0.0454
vn 0.4902 0.8715 -0.0119
vn -0.2582 0.9643 0.0591
vn -0.9836 0.0511 0.1732
vn 0.3790 -0.9068 0.1846
vn 0.7625 0.6222 0.1773
vn -0.6854 0.6949 -0.2175
vn -0.1677 0.0153 0.9857
vn -0.2135 0.1445 0.9662
vn 0.3501 0.0095 0.9367
vn -0.0003 -0.0002 1.0000
vn -0.0000 -0.0000 1.0000
vn -0.0000 -0.0003 1.0000
vn 0.2188 -0.1686 0.9611
vn -0.0000 -0.0001 1.0000
vn -0.0003 -0.0001 1.0000
vn 0.0004 -0.0000 1.0000
vn 0.2644 0.9558 0.1289
vn 0.7217 -0.6617 0.2034
vn -0.6564 -0.7291 0.1939
vn -0.3429 0.9186 -0.1962
vn -0.5099 -0.8498 0.1337
vt 0.321317 0.076163
vt 0.322550 0.075558
vt 0.322521 0.076034
vt 0.323147 0.075588
vt 0.323210 0.076362
vt 0.323137 0.070803
vt 0.323667 0.071535
vt 0.322909 0.071544
vt 0.324816 0.070307
vt 0.324836 0.071828
vt 0.325579 0.071678
vt 0.313660 0.072511
vt 0.314321 0.071270
vt 0.314341 0.072472
vt 0.315127 0.071238
vt 0.315135 0.072657
vt 0.323058 0.077954
vt 0.324034 0.076919
vt 0.324179 0.077722
vt 0.324632 0.077558
vt 0.325470 0.076614
vt 0.325436 0.077552
vt 0.310326 0.074749
vt 0.310772 0.074555
vt 0.310773 0.074755
vt 0.322726 0.073496
vt 0.321501 0.075230
vt 0.321711 0.073489
vt 0.323265 0.073487
vt 0.323418 0.068755
vt 0.323639 0.070223
vt 0.324698 0.068714
vt 0.323974 0.068590
vt 0.325603 0.068791
vt 0.313529 0.069550
vt 0.313488 0.071220
vt 0.315139 0.069548
vt 0.314322 0.069436
vt 0.323934 0.074883
vt 0.323247 0.076541
vt 0.323291 0.074859
vt 0.324859 0.076556
vt 0.325487 0.074871
vt 0.324803 0.074886
vt 0.305288 0.088270
vt 0.305704 0.088471
vt 0.304972 0.088457
vt 0.305249 0.088739
vt 0.305696 0.088736
vt 0.325906 0.068726
vt 0.326094 0.068388
vt 0.326157 0.068751
vt 0.325563 0.069012
vt 0.325738 0.069100
vt 0.324962 0.069255
vt 0.324890 0.069079
vt 0.324414 0.069026
vt 0.324126 0.069158
vt 0.323808 0.068846
vt 0.323555 0.068889
vt 0.323800 0.068422
vt 0.323559 0.068381
vt 0.324045 0.068131
vt 0.324138 0.068187
vt 0.324678 0.068097
vt 0.324686 0.068028
vt 0.325445 0.068028
vt 0.325409 0.068226
vt 0.325789 0.068448
vt 0.337258 0.190768
vt 0.335347 0.190431
vt 0.335583 0.190178
vt 0.337300 0.190449
vt 0.336045 0.190001
vt 0.337181 0.190234
vt 0.335885 0.190935
vt 0.335457 0.190775
vt 0.310327 0.075020
vt 0.310772 0.075355
vt 0.310326 0.075369
vt 0.305591 0.077042
vt 0.305092 0.077347
vt 0.305163 0.077032
vt 0.310773 0.075019
vt 0.305591 0.077601
vt 0.305518 0.077365
vt 0.308979 0.070636
vt 0.308537 0.070833
vt 0.308532 0.070641
vt 0.308979 0.071153
vt 0.309230 0.070836
vt 0.305735 0.089108
vt 0.305289 0.089118
vt 0.319058 0.072252
vt 0.319212 0.071847
vt 0.319518 0.071890
vt 0.324551 0.078081
vt 0.324239 0.078054
vt 0.322980 0.078536
vt 0.314349 0.072968
vt 0.315139 0.073243
vt 0.313731 0.073043
vt 0.325603 0.072203
vt 0.324844 0.072456
vt 0.323678 0.072076
vt 0.322816 0.071849
vt 0.322509 0.076230
vt 0.323236 0.076681
vt 0.321206 0.076652
vt 0.324730 0.077996
vt 0.324788 0.077634
vt 0.325381 0.078044
vt 0.325259 0.077629
vt 0.325223 0.077975
vt 0.318127 0.075598
vt 0.317744 0.075495
vt 0.318034 0.075412
vt 0.316151 0.073058
vt 0.315328 0.072872
vt 0.315568 0.072774
vt 0.315360 0.074033
vt 0.314745 0.074287
vt 0.314745 0.073834
vt 0.318497 0.089080
vt 0.318163 0.088646
vt 0.318676 0.088587
vt 0.317755 0.075303
vt 0.317922 0.075255
vt 0.317994 0.088446
vt 0.318189 0.088258
vt 0.318430 0.088421
vt 0.319665 0.071659
vt 0.319590 0.071439
vt 0.319809 0.071433
vt 0.315348 0.072588
vt 0.314938 0.072446
vt 0.315132 0.072406
vt 0.305454 0.072251
vt 0.305553 0.072065
vt 0.305647 0.072266
vt 0.317827 0.088250
vt 0.317910 0.088115
vt 0.319756 0.071259
vt 0.319883 0.071255
vt 0.314768 0.072237
vt 0.314880 0.072214
vt 0.315131 0.072657
vt 0.319403 0.071641
vt 0.309398 0.074782
vt 0.309307 0.074551
vt 0.309356 0.074545
vt 0.309072 0.075206
vt 0.309398 0.075339
vt 0.308934 0.075272
vt 0.319260 0.071630
vt 0.319090 0.071761
vt 0.315639 0.072700
vt 0.315463 0.072573
vt 0.317865 0.075698
vt 0.318111 0.075666
vt 0.321777 0.077058
vt 0.321737 0.077035
vt 0.321777 0.077032
vt 0.324711 0.075469
vt 0.324607 0.075255
vt 0.324648 0.075257
vt 0.318674 0.071361
vt 0.318562 0.071077
vt 0.318614 0.071074
vt 0.316037 0.072317
vt 0.316151 0.072056
vt 0.316150 0.072343
vt 0.315861 0.072538
vt 0.318883 0.071591
vt 0.318971 0.071524
vt 0.324844 0.075832
vt 0.324673 0.075677
vt 0.324794 0.075663
vt 0.309341 0.075038
vt 0.309366 0.075234
vt 0.315770 0.072474
vt 0.318557 0.071382
vt 0.309278 0.074790
vt 0.320939 0.077032
vt 0.320986 0.077078
vt 0.320939 0.077081
vt 0.307357 0.072241
vt 0.307511 0.072057
vt 0.307565 0.072241
vt 0.319818 0.070978
vt 0.319883 0.070976
vt 0.314733 0.071964
vt 0.314790 0.071952
vt 0.324671 0.079048
vt 0.325487 0.079134
vt 0.322691 0.077665
vt 0.323265 0.077662
vt 0.322939 0.072799
vt 0.323639 0.072760
vt 0.324842 0.072787
vt 0.325552 0.072951
vt 0.314280 0.073722
vt 0.313714 0.073817
vt 0.315138 0.073721
vt 0.324140 0.079050
vt 0.323053 0.079013
vt 0.321334 0.077752
vt 0.318291 0.072225
vt 0.318598 0.071832
vt 0.318709 0.072276
vt 0.312561 0.072979
vt 0.312001 0.072497
vt 0.312619 0.072435
vt 0.303017 0.087844
vt 0.302695 0.087361
vt 0.303116 0.087356
vt 0.320994 0.075921
vt 0.321410 0.075614
vt 0.321424 0.075902
vt 0.306549 0.083182
vt 0.307373 0.082880
vt 0.307412 0.082984
vt 0.307849 0.082995
vt 0.307933 0.082895
vt 0.308438 0.083166
vt 0.308250 0.083210
vt 0.308568 0.083719
vt 0.308365 0.083698
vt 0.308148 0.084016
vt 0.308294 0.084095
vt 0.307739 0.084208
vt 0.307669 0.084023
vt 0.307024 0.084023
vt 0.306963 0.084208
vt 0.306126 0.083736
vt 0.306325 0.083700
vt 0.306140 0.083492
vt 0.306337 0.083506
vt 0.306374 0.083107
vt 0.320404 0.179154
vt 0.318812 0.178676
vt 0.318920 0.178380
vt 0.320696 0.178854
vt 0.319471 0.179233
vt 0.318802 0.178856
vt 0.319811 0.178191
vt 0.320589 0.178401
vt 0.302582 0.088105
vt 0.302604 0.087814
vt 0.312189 0.073194
vt 0.312135 0.072992
vt 0.318199 0.071644
vt 0.318163 0.071830
vt 0.321424 0.076096
vt 0.320798 0.076105
vt 0.302770 0.087152
vt 0.303196 0.087131
vt 0.318709 0.071384
vt 0.318631 0.071659
vt 0.325521 0.070406
vt 0.310326 0.074545
vt 0.305735 0.088283
vt 0.336468 0.190972
vt 0.336741 0.190001
vt 0.305164 0.077576
vt 0.308532 0.071145
vt 0.318624 0.072152
vt 0.317744 0.075667
vt 0.315846 0.073236
vt 0.315044 0.074466
vt 0.317701 0.089044
vt 0.305454 0.072057
vt 0.317701 0.088110
vt 0.321729 0.077059
vt 0.324612 0.075468
vt 0.316101 0.072049
vt 0.324607 0.075859
vt 0.309190 0.075023
vt 0.320997 0.077032
vt 0.307404 0.072057
vt 0.320979 0.075611
vt 0.320070 0.179233
vt 0.320216 0.178202
vt 0.303196 0.088165
vt 0.312619 0.073197
vt 0.318084 0.071346
s 0
g log_4_Material
usemtl Material
f 64/1/1 1/2/1 52/3/1
f 52/3/2 3/4/2 53/5/2
f 3/6/3 54/7/3 53/8/3
f 54/7/4 5/9/4 55/10/4
f 5/9/5 56/11/5 55/10/5
f 56/12/6 7/13/6 57/14/6
f 57/14/7 8/15/7 58/16/7
f 58/17/8 9/18/8 59/19/8
f 9/18/9 61/20/9 59/19/9
f 61/20/10 2/21/10 64/22/10
f 20/23/11 43/24/11 41/25/11
f 40/26/12 2/27/12 31/28/12
f 39/29/13 1/2/13 40/26/13
f 39/30/14 4/31/14 3/6/14
f 37/32/15 4/31/15 38/33/15
f 36/34/16 5/9/16 37/32/16
f 36/35/17 7/13/17 6/36/17
f 34/37/18 7/13/18 35/38/18
f 33/39/19 8/40/19 34/41/19
f 33/39/20 10/42/20 9/18/20
f 31/43/21 10/42/21 32/44/21
f 12/45/22 49/46/22 13/47/22
f 14/48/23 49/46/23 46/49/23
f 19/50/24 31/51/24 32/52/24
f 18/53/24 32/52/24 33/54/24
f 18/53/24 34/55/24 17/56/24
f 16/57/25 34/55/25 35/58/25
f 15/59/26 35/58/26 36/60/26
f 14/61/24 36/60/24 37/62/24
f 14/61/27 38/63/27 13/64/27
f 12/65/28 38/63/28 39/66/28
f 12/65/24 40/67/24 11/68/24
f 11/68/24 31/51/24 20/69/24
f 42/70/24 45/71/24 41/72/24
f 41/72/24 44/73/24 42/70/24
f 43/74/24 48/75/24 44/73/24
f 45/71/24 49/76/24 50/77/24
f 11/78/29 50/79/29 12/80/29
f 19/81/30 47/82/30 43/83/30
f 20/23/31 45/84/31 11/78/31
f 17/85/32 47/82/32 18/86/32
f 17/87/33 44/88/33 48/89/33
f 15/90/34 44/88/34 16/91/34
f 14/48/35 42/92/35 15/93/35
f 60/94/36 82/95/36 65/96/36
f 59/19/37 62/97/37 29/98/37
f 58/17/38 29/98/38 28/99/38
f 27/100/39 58/16/39 28/101/39
f 56/12/40 27/100/40 26/102/40
f 55/10/41 26/103/41 25/104/41
f 24/105/42 55/10/42 25/104/42
f 23/106/43 54/7/43 24/105/43
f 22/107/44 53/5/44 23/108/44
f 64/1/45 22/107/45 63/109/45
f 30/110/46 61/20/46 60/111/46
f 30/110/47 63/112/47 62/97/47
f 51/113/48 63/112/48 21/114/48
f 51/113/49 61/20/49 64/22/49
f 83/115/50 71/116/50 72/117/50
f 21/118/51 66/119/51 81/120/51
f 21/121/52 82/122/52 51/123/52
f 30/124/53 65/125/53 66/126/53
f 72/117/54 75/127/54 76/128/54
f 79/129/55 70/130/55 80/131/55
f 79/132/56 72/133/56 69/134/56
f 84/135/57 70/136/57 71/137/57
f 75/138/58 100/139/58 76/140/58
f 69/141/59 74/142/59 70/130/59
f 69/134/60 76/143/60 73/144/60
f 71/137/61 74/145/61 75/146/61
f 81/120/62 80/147/62 84/135/62
f 65/96/63 83/148/63 79/132/63
f 65/125/64 80/131/64 66/126/64
f 95/149/65 85/150/65 86/151/65
f 67/152/66 82/153/66 81/154/66
f 78/155/67 82/95/67 68/156/67
f 67/157/68 84/135/68 77/158/68
f 77/159/69 83/115/69 78/160/69
f 86/161/70 88/162/70 87/163/70
f 96/164/71 87/165/71 88/166/71
f 94/167/72 86/168/72 87/169/72
f 96/170/73 85/171/73 93/172/73
f 77/158/74 89/173/74 67/157/74
f 78/155/75 90/174/75 91/175/75
f 77/176/76 91/177/76 92/178/76
f 67/152/77 90/179/77 68/180/77
f 92/181/78 93/172/78 89/173/78
f 91/175/79 95/182/79 94/167/79
f 91/177/80 96/164/80 92/178/80
f 90/179/81 93/183/81 95/149/81
f 97/184/82 99/185/82 98/186/82
f 73/187/83 98/188/83 74/189/83
f 73/144/84 100/190/84 97/191/84
f 75/146/85 98/192/85 99/193/85
f 120/194/86 63/112/86 111/195/86
f 112/196/87 23/108/87 113/197/87
f 113/198/88 24/105/88 114/199/88
f 114/199/89 25/104/89 115/200/89
f 25/104/90 116/201/90 115/200/90
f 26/102/91 117/202/91 116/203/91
f 117/202/92 28/101/92 118/204/92
f 28/99/93 119/205/93 118/206/93
f 119/205/94 62/97/94 120/194/94
f 63/109/95 112/196/95 111/207/95
f 108/208/96 130/209/96 129/210/96
f 102/211/97 122/212/97 101/213/97
f 105/214/98 128/215/98 104/216/98
f 107/217/99 129/218/99 123/219/99
f 101/220/100 112/221/100 102/222/100
f 103/223/101 112/221/101 113/224/101
f 103/223/102 114/225/102 104/226/102
f 104/226/103 115/227/103 105/228/103
f 106/229/104 115/227/104 116/230/104
f 106/229/105 117/231/105 107/232/105
f 108/233/106 117/231/106 118/234/106
f 108/233/107 119/235/107 109/236/107
f 109/236/108 120/237/108 110/238/108
f 101/220/109 120/237/109 111/239/109
f 121/240/110 124/241/110 122/242/110
f 122/242/111 125/243/111 121/240/111
f 124/241/112 129/244/112 130/245/112
f 126/246/103 128/247/103 125/243/103
f 105/214/113 121/248/113 125/249/113
f 102/211/114 127/250/114 126/251/114
f 110/252/115 130/209/115 109/253/115
f 107/217/116 121/254/116 106/255/116
f 104/216/117 127/256/117 103/257/117
f 110/252/118 122/258/118 124/259/118
f 64/1/119 2/27/119 1/2/119
f 52/3/120 1/2/120 3/4/120
f 3/6/121 4/31/121 54/7/121
f 54/7/122 4/31/122 5/9/122
f 5/9/123 6/260/123 56/11/123
f 56/12/124 6/36/124 7/13/124
f 57/14/125 7/13/125 8/15/125
f 58/17/126 8/40/126 9/18/126
f 9/18/127 10/42/127 61/20/127
f 61/20/128 10/42/128 2/21/128
f 20/23/129 19/261/129 43/24/129
f 40/26/130 1/2/130 2/27/130
f 39/29/131 3/4/131 1/2/131
f 39/30/132 38/33/132 4/31/132
f 37/32/133 5/9/133 4/31/133
f 36/34/134 6/260/134 5/9/134
f 36/35/135 35/38/135 7/13/135
f 34/37/136 8/15/136 7/13/136
f 33/39/137 9/18/137 8/40/137
f 33/39/138 32/44/138 10/42/138
f 31/43/139 2/21/139 10/42/139
f 12/45/140 50/262/140 49/46/140
f 14/48/141 13/47/141 49/46/141
f 19/50/24 20/69/24 31/51/24
f 18/53/24 19/50/24 32/52/24
f 18/53/24 33/54/24 34/55/24
f 16/57/142 17/56/142 34/55/142
f 15/59/143 16/57/143 35/58/143
f 14/61/24 15/59/24 36/60/24
f 14/61/144 37/62/144 38/63/144
f 12/65/145 13/64/145 38/63/145
f 12/65/24 39/66/24 40/67/24
f 11/68/24 40/67/24 31/51/24
f 42/70/24 46/263/24 45/71/24
f 41/72/24 43/74/24 44/73/24
f 43/74/24 47/264/24 48/75/24
f 45/71/24 46/263/24 49/76/24
f 11/78/146 45/84/146 50/79/146
f 19/81/30 18/86/30 47/82/30
f 20/23/147 41/25/147 45/84/147
f 17/85/148 48/265/148 47/82/148
f 17/87/149 16/91/149 44/88/149
f 15/90/150 42/266/150 44/88/150
f 14/48/151 46/49/151 42/92/151
f 60/94/152 51/267/152 82/95/152
f 59/19/153 61/20/153 62/97/153
f 58/17/8 59/19/8 29/98/8
f 27/100/154 57/14/154 58/16/154
f 56/12/6 57/14/6 27/100/6
f 55/10/155 56/11/155 26/103/155
f 24/105/156 54/7/156 55/10/156
f 23/106/3 53/8/3 54/7/3
f 22/107/157 52/3/157 53/5/157
f 64/1/1 52/3/1 22/107/1
f 30/110/158 62/97/158 61/20/158
f 30/110/159 21/114/159 63/112/159
f 51/113/160 64/22/160 63/112/160
f 51/113/161 60/111/161 61/20/161
f 83/115/162 84/268/162 71/116/162
f 21/118/163 30/269/163 66/119/163
f 21/121/164 81/270/164 82/122/164
f 30/124/165 60/271/165 65/125/165
f 72/117/54 71/116/54 75/127/54
f 79/129/166 69/141/166 70/130/166
f 79/132/167 83/148/167 72/133/167
f 84/135/168 80/147/168 70/136/168
f 75/138/58 99/272/58 100/139/58
f 69/141/59 73/273/59 74/142/59
f 69/134/60 72/133/60 76/143/60
f 71/137/61 70/136/61 74/145/61
f 81/120/169 66/119/169 80/147/169
f 65/96/170 82/95/170 83/148/170
f 65/125/171 79/129/171 80/131/171
f 95/149/172 93/183/172 85/150/172
f 67/152/173 68/180/173 82/153/173
f 78/155/174 83/148/174 82/95/174
f 67/157/175 81/120/175 84/135/175
f 77/159/176 84/268/176 83/115/176
f 86/161/177 85/274/177 88/162/177
f 96/164/178 94/275/178 87/165/178
f 94/167/179 95/182/179 86/168/179
f 96/170/180 88/276/180 85/171/180
f 77/158/74 92/181/74 89/173/74
f 78/155/75 68/156/75 90/174/75
f 77/176/76 78/277/76 91/177/76
f 67/152/77 89/278/77 90/179/77
f 92/181/181 96/170/181 93/172/181
f 91/175/182 90/174/182 95/182/182
f 91/177/183 94/275/183 96/164/183
f 90/179/184 89/278/184 93/183/184
f 97/184/185 100/279/185 99/185/185
f 73/187/83 97/280/83 98/188/83
f 73/144/84 76/143/84 100/190/84
f 75/146/85 74/145/85 98/192/85
f 120/194/186 62/97/186 63/112/186
f 112/196/187 22/107/187 23/108/187
f 113/198/188 23/106/188 24/105/188
f 114/199/189 24/105/189 25/104/189
f 25/104/190 26/103/190 116/201/190
f 26/102/191 27/100/191 117/202/191
f 117/202/192 27/100/192 28/101/192
f 28/99/193 29/98/193 119/205/193
f 119/205/194 29/98/194 62/97/194
f 63/109/195 22/107/195 112/196/195
f 108/208/196 109/253/196 130/209/196
f 102/211/197 126/251/197 122/212/197
f 105/214/198 125/249/198 128/215/198
f 107/217/199 108/281/199 129/218/199
f 101/220/200 111/239/200 112/221/200
f 103/223/112 102/222/112 112/221/112
f 103/223/103 113/224/103 114/225/103
f 104/226/103 114/225/103 115/227/103
f 106/229/201 105/228/201 115/227/201
f 106/229/202 116/230/202 117/231/202
f 108/233/203 107/232/203 117/231/203
f 108/233/204 118/234/204 119/235/204
f 109/236/205 119/235/205 120/237/205
f 101/220/206 110/238/206 120/237/206
f 121/240/207 123/282/207 124/241/207
f 122/242/204 126/246/204 125/243/204
f 124/241/208 123/282/208 129/244/208
f 126/246/209 127/283/209 128/247/209
f 105/214/210 106/284/210 121/248/210
f 102/211/211 103/285/211 127/250/211
f 110/252/212 124/259/212 130/209/212
f 107/217/213 123/219/213 121/254/213
f 104/216/117 128/215/117 127/256/117
f 110/252/214 101/286/214 122/258/214
