# Blender 4.2.0
# www.blender.org
mtllib log_7.mtl
g log_7_Mesh
v -0.004800 0.017513 0.384096
v -0.021117 0.012042 0.384096
v -0.031298 -0.002417 0.384096
v -0.031364 -0.020390 0.391947
v -0.021117 -0.035714 0.384096
v -0.005504 -0.040557 0.384096
v 0.011517 -0.034850 0.384096
v 0.021698 -0.020390 0.384096
v 0.021698 -0.002417 0.384096
v 0.011517 0.012042 0.378865
v -0.004800 0.023921 0.094707
v -0.003734 0.023721 -0.385491
v -0.030291 0.006652 -0.449456
v -0.018352 0.017605 0.038992
v -0.035966 -0.002586 -0.369574
v -0.034553 -0.003599 0.116097
v -0.035036 -0.015056 -0.425462
v -0.036798 -0.017516 0.084152
v -0.018663 -0.036653 -0.380719
v -0.020742 -0.035871 0.147611
v -0.000173 -0.042649 -0.403219
v 0.006277 -0.042976 0.157864
v 0.011536 -0.040389 -0.406419
v 0.009597 -0.036576 0.110372
v 0.024985 -0.023079 -0.395718
v 0.025016 -0.023576 0.057654
v 0.027198 0.004818 -0.450335
v 0.027936 0.007138 0.067155
v 0.015826 0.017413 -0.371055
v 0.020992 0.011459 0.105954
v -0.004800 0.023314 0.378865
v -0.024576 0.016684 0.384096
v -0.036798 -0.000675 0.384096
v -0.035296 -0.022132 0.391947
v -0.024576 -0.039491 0.384096
v -0.004460 -0.046008 0.384096
v 0.014976 -0.039491 0.384096
v 0.027198 -0.022132 0.384096
v 0.027198 -0.000675 0.384096
v 0.014976 0.016684 0.384096
v -0.020732 0.011503 0.374700
v -0.020732 -0.030587 0.374700
v 0.011151 0.011503 0.374700
v 0.011151 -0.034309 0.374700
v -0.004791 0.016848 0.374700
v -0.030678 -0.002623 0.374700
v -0.027619 -0.020182 0.374700
v -0.005478 -0.039884 0.374700
v 0.021097 -0.020182 0.374700
v 0.021097 -0.002623 0.374700
v -0.000392 0.018025 -0.482547
v -0.024305 0.007594 -0.482548
v -0.031389 -0.000355 -0.482547
v -0.030881 -0.013929 -0.482553
v -0.016161 -0.032372 -0.485395
v 0.000443 -0.037595 -0.482539
v 0.009541 -0.034565 -0.482552
v 0.020998 -0.022568 -0.485407
v 0.019057 0.000141 -0.485406
v 0.011937 0.006702 -0.482551
v -0.027253 0.011661 -0.482549
v -0.000002 0.023548 -0.482548
v -0.036366 0.001436 -0.482550
v -0.035724 -0.015727 -0.482556
v -0.019062 -0.036603 -0.485396
v 0.000486 -0.042752 -0.482539
v 0.012247 -0.038835 -0.482552
v 0.025972 -0.024463 -0.482554
v 0.024950 0.005430 -0.482552
v 0.015973 0.013701 -0.482552
v 0.000048 -0.035092 -0.473198
v -0.000711 0.015433 -0.473205
v -0.022438 0.005958 -0.473206
v -0.015040 -0.030347 -0.473199
v 0.008314 -0.032340 -0.473210
v 0.011453 0.007936 -0.473208
v -0.028876 -0.001264 -0.473205
v -0.028415 -0.013595 -0.473211
v 0.018718 -0.021443 -0.473211
v 0.017918 0.001976 -0.473209
v -0.004267 0.023821 -0.190339
v -0.031716 0.003567 -0.090435
v -0.035259 -0.003092 -0.091480
v -0.035917 -0.016286 -0.128496
v -0.021243 -0.035776 -0.209046
v -0.011089 -0.042812 -0.143719
v 0.008761 -0.038482 -0.121420
v 0.019835 -0.032137 -0.141923
v 0.018552 0.013920 -0.096592
v 0.009744 0.017476 -0.111767
v -0.022623 0.016973 0.301127
v -0.036094 -0.001593 0.300002
v -0.035768 -0.020684 0.299696
v -0.015821 -0.038050 0.310204
v -0.004643 -0.045056 0.350898
v 0.015397 -0.038576 0.298205
v 0.026514 -0.022585 0.356598
v 0.027430 0.001776 0.284644
v 0.022385 0.029894 0.290896
v -0.004800 0.023505 0.289700
v -0.004800 0.023567 0.260610
v -0.021986 0.017067 0.274059
v -0.035864 -0.001892 0.272566
v -0.035921 -0.020211 0.269599
v -0.023276 -0.026052 0.280513
v -0.004703 -0.044746 0.265626
v 0.015535 -0.038278 0.270184
v 0.018122 -0.028617 0.239987
v 0.027506 0.002576 0.252199
v 0.022321 0.029922 0.276188
v 0.016374 0.040519 0.281310
v 0.016410 0.040503 0.289657
v -0.001136 0.043494 0.290371
v -0.001136 0.043529 0.273692
v -0.003793 0.023733 -0.354952
v -0.019297 0.007259 -0.301099
v -0.025556 -0.002642 -0.338732
v -0.024802 -0.015192 -0.352239
v -0.018949 -0.036556 -0.355721
v -0.000443 -0.042667 -0.374439
v 0.011801 -0.040178 -0.390201
v 0.024987 -0.023107 -0.382960
v 0.020007 -0.009046 -0.303895
v 0.015725 0.017420 -0.342299
v 0.020041 -0.049326 -0.389623
v 0.026553 -0.040944 -0.384441
v 0.020169 -0.049224 -0.381769
v 0.026554 -0.040958 -0.378263
v 0.011200 0.060554 0.277790
v 0.016535 0.057731 0.288993
v 0.008548 0.060262 0.289544
v 0.006024 0.061688 0.277933
v 0.009362 0.070402 0.279207
v 0.012272 0.075389 0.287874
v 0.007537 0.076890 0.288201
v 0.006670 0.070757 0.279252
v 0.027993 -0.052690 -0.387142
v 0.031825 -0.047757 -0.384092
v 0.028068 -0.052629 -0.382520
v 0.031826 -0.047765 -0.380456
v 0.014567 0.017040 0.268345
v 0.014668 0.016952 0.296819
v 0.009968 0.039787 0.278127
v 0.010026 0.039737 0.294453
v 0.012020 0.052525 0.278964
v 0.003972 0.055046 0.279283
v 0.009596 0.075409 0.281929
v 0.004824 0.076904 0.282117
v 0.035184 0.048198 0.269092
v 0.036777 0.047243 0.276770
v 0.030767 0.051835 0.273266
v 0.031671 0.051293 0.277624
v 0.010308 0.080750 0.265284
v 0.006690 0.081026 0.266392
v 0.008470 0.081316 0.267826
v 0.007336 0.081403 0.268174
v 0.011284 0.092860 0.282809
v 0.012321 0.092852 0.285113
v 0.010486 0.093434 0.285240
v 0.009434 0.093439 0.282882
v -0.021336 0.014867 -0.028196
v -0.034906 -0.003345 0.012308
v -0.036358 -0.016901 -0.015271
v -0.022533 -0.035338 -0.014468
v -0.003826 -0.042894 -0.022150
v 0.015123 -0.037529 -0.005524
v 0.025009 -0.008671 -0.040200
v 0.027752 0.006558 -0.014719
v 0.014451 0.017508 -0.002906
v 0.001925 0.023871 0.023774
v 0.005531 0.023744 0.177659
v -0.009837 0.017336 0.196872
v -0.035208 -0.002745 0.141677
v -0.036360 -0.018864 0.183777
v -0.013712 -0.036240 0.170659
v 0.005458 -0.043861 0.178874
v 0.015926 -0.037427 0.206944
v 0.025653 -0.023154 0.192011
v 0.027721 -0.011659 0.214451
v 0.014280 0.017290 0.187150
v -0.017922 0.020313 -0.220789
v -0.035573 -0.002867 -0.215106
v -0.019471 -0.027434 -0.329905
v -0.009308 -0.038301 -0.255521
v -0.001526 -0.042739 -0.259079
v 0.023961 -0.038209 -0.314431
v 0.024994 -0.023217 -0.262442
v 0.027403 -0.007260 -0.226472
v 0.015317 0.017448 -0.227033
v -0.004030 0.023777 -0.232543
vn 0.3172 -0.9460 0.0673
vn -0.8269 -0.5586 0.0652
vn 0.5992 0.8005 -0.0079
vn 0.3072 0.9516 0.0009
vn -0.7314 0.6815 0.0268
vn 0.8908 0.4524 0.0412
vn 0.9864 0.1646 0.0034
vn 0.9893 -0.1447 -0.0170
vn 0.9973 0.0508 0.0538
vn 0.6619 0.7492 -0.0241
vn 0.7960 -0.6026 -0.0575
vn -0.7435 -0.6684 0.0209
vn 0.9984 -0.0553 0.0122
vn 0.5500 -0.8350 -0.0137
vn 0.2008 -0.9796 0.0013
vn 0.7839 -0.6207 0.0188
vn -0.3492 -0.9355 -0.0530
vn -0.3135 -0.9496 0.0001
vn 0.1902 -0.9817 0.0029
vn -0.5443 -0.8248 0.1528
vn -0.9648 -0.2627 -0.0100
vn -0.3077 -0.9515 0.0007
vn -0.9963 0.0857 0.0055
vn -0.8798 -0.3717 0.2963
vn -0.7996 -0.6005 0.0028
vn -0.5624 0.8258 -0.0420
vn -0.9399 0.3346 0.0683
vn -0.9970 -0.0778 0.0008
vn -0.3371 0.9404 0.0440
vn -0.6498 0.7588 0.0450
vn 0.3275 0.9444 -0.0310
vn -0.0000 -0.0000 1.0000
vn -0.3172 0.9460 0.0669
vn -0.9980 -0.0000 0.0639
vn 0.2046 0.1525 0.9669
vn -0.1466 0.3308 0.9322
vn 0.2739 -0.2508 0.9285
vn -0.6948 -0.2445 0.6764
vn 0.0281 0.6694 0.7424
vn -0.8159 0.5745 0.0649
vn -0.3143 -0.9375 0.1490
vn 0.8159 -0.5744 0.0664
vn 0.9833 0.1713 0.0611
vn 0.8584 0.4756 0.1921
vn 0.4679 0.7676 0.4380
vn -0.5044 0.8632 -0.0209
vn -0.3056 0.9164 -0.2584
vn -0.6765 -0.7338 0.0619
vn 0.7215 -0.6431 -0.2567
vn 0.2915 0.9270 -0.2361
vn 0.0002 -0.0003 -1.0000
vn 0.0007 0.0004 -1.0000
vn -0.0382 0.1047 -0.9938
vn 0.1395 -0.0954 -0.9856
vn -0.0011 -0.0000 -1.0000
vn -0.1476 -0.0934 -0.9846
vn 0.5096 0.0436 -0.8593
vn 0.0426 0.4373 -0.8983
vn -0.0003 -0.0000 -1.0000
vn -0.0006 0.0004 -1.0000
vn -0.0014 0.0001 -1.0000
vn -0.0000 -0.0001 -1.0000
vn -0.0002 -0.0000 -1.0000
vn 0.9659 0.0363 -0.2563
vn -0.6596 -0.7182 -0.2217
vn -0.7320 0.6522 -0.1970
vn 0.7564 0.6305 -0.1742
vn 0.3887 -0.8912 -0.2338
vn -0.9955 -0.0340 -0.0879
vn -0.3819 0.9241 0.0108
vn -0.7974 0.6034 0.0042
vn -0.9951 0.0992 0.0036
vn -0.7999 -0.6001 -0.0064
vn -0.3669 -0.9300 0.0213
vn 0.2784 -0.9604 -0.0074
vn 0.9260 -0.3746 -0.0477
vn 0.9938 0.0068 -0.1111
vn 0.6346 0.7728 -0.0018
vn 0.4213 0.9067 -0.0185
vn -0.3189 0.9478 -0.0042
vn -0.8175 0.5756 -0.0172
vn -0.9977 -0.0684 0.0040
vn -0.8516 -0.5242 -0.0039
vn -0.3081 -0.9510 -0.0256
vn 0.3178 -0.9477 -0.0289
vn 0.8176 -0.5757 -0.0109
vn 0.9997 -0.0000 -0.0249
vn 0.8177 0.5757 -0.0011
vn 0.3175 0.9483 0.0018
vn -0.3469 0.9379 -0.0049
vn -0.8088 0.5879 -0.0170
vn -0.9998 -0.0169 -0.0082
vn -0.5955 -0.7856 -0.1679
vn -0.5239 -0.8518 -0.0027
vn 0.2989 -0.9543 -0.0037
vn 0.8818 -0.4700 -0.0391
vn 0.9755 -0.2117 -0.0593
vn 0.7651 0.6440 -0.0007
vn -0.6193 0.1356 -0.7734
vn -0.0180 0.0685 -0.9975
vn -0.3345 0.0297 0.9419
vn 0.4559 0.4278 -0.7805
vn -0.9836 0.1803 0.0004
vn -0.3526 0.9246 -0.1442
vn -0.8025 0.5909 -0.0823
vn -0.9614 -0.2639 -0.0784
vn -0.9505 -0.2984 0.0863
vn -0.4843 -0.8743 0.0314
vn 0.1772 -0.9842 0.0010
vn 0.9977 -0.0683 -0.0001
vn 0.9931 0.0674 -0.0964
vn 0.8950 0.4357 -0.0955
vn 0.3107 0.9505 0.0009
vn -0.3944 -0.9188 0.0184
vn 0.7904 -0.2759 -0.5470
vn 0.9962 0.0875 0.0001
vn -0.6172 0.1491 0.7725
vn -0.9096 -0.0183 0.4150
vn -0.2746 0.2049 0.9395
vn -0.9143 0.4051 0.0009
vn 0.8992 -0.3872 -0.2038
vn 0.1168 0.1548 0.9810
vn 0.8954 0.1907 -0.4025
vn 0.7481 0.5073 0.4278
vn 0.0957 0.0859 0.9917
vn 0.7917 -0.6109 -0.0014
vn 0.7908 0.6121 0.0012
vn 0.3836 0.2513 -0.8886
vn -0.0616 -0.3490 0.9351
vn 0.8580 -0.5137 -0.0046
vn -0.1167 0.9932 0.0035
vn 0.3197 0.5518 -0.7703
vn 0.3982 0.1746 0.9005
vn -0.0663 -0.1789 -0.9816
vn 0.0481 0.4752 -0.8785
vn -0.6456 0.1547 -0.7478
vn 0.9945 0.1036 0.0134
vn 0.6180 0.7856 -0.0305
vn 0.7678 -0.6406 -0.0045
vn 0.4164 0.3478 0.8400
vn -0.5281 0.8223 0.2119
vn 0.0102 0.9776 -0.2101
vn 0.1058 0.7138 0.6923
vn -0.9967 0.0638 0.0494
vn -0.1383 -0.5258 -0.8393
vn 0.2915 0.9479 -0.1281
vn -0.8887 0.2295 0.3969
vn 0.9097 -0.0673 -0.4098
vn -0.0230 0.0526 -0.9984
vn 0.4208 0.9063 0.0393
vn 0.5725 0.8198 0.0112
vn 0.9956 -0.0942 -0.0016
vn 0.7205 -0.6923 0.0401
vn 0.7286 -0.6837 -0.0412
vn -0.2593 -0.9657 0.0141
vn -0.7634 -0.6459 0.0063
vn -0.9885 0.1509 0.0037
vn -0.7872 0.6167 0.0042
vn -0.3160 0.9483 -0.0306
vn -0.3930 0.9177 -0.0586
vn -0.7961 0.5925 -0.1232
vn -1.0000 0.0023 0.0051
vn -0.4497 -0.8921 0.0436
vn -0.7078 -0.7064 0.0039
vn 0.3066 -0.9518 -0.0109
vn 0.9680 -0.2510 0.0026
vn 0.9341 -0.3321 0.1306
vn 0.7450 0.6671 -0.0006
vn 0.3187 0.9478 0.0018
vn 0.3365 0.9416 0.0160
vn 0.5196 0.8482 -0.1029
vn 0.9961 -0.0465 0.0755
vn 0.4275 -0.9027 -0.0485
vn 0.1963 -0.9804 0.0157
vn -0.4095 -0.9116 -0.0345
vn -0.8795 -0.4737 -0.0456
vn -0.9991 0.0425 0.0026
vn -0.8830 0.4693 0.0031
vn -0.4013 0.9129 0.0748
vn -0.8090 -0.5696 0.1450
vn 0.4536 0.8895 -0.0546
vn 0.3068 0.9518 0.0002
vn -0.7462 0.6650 0.0322
vn 0.8004 0.5945 0.0770
vn 0.9343 0.3476 0.0788
vn 0.9956 -0.0933 -0.0044
vn 0.9968 -0.0797 -0.0003
vn 0.6772 0.7350 -0.0333
vn 0.6433 -0.7656 -0.0006
vn 0.9970 0.0341 -0.0689
vn 0.6801 -0.7313 -0.0510
vn 0.1920 -0.9813 0.0097
vn 0.7232 -0.6906 -0.0073
vn -0.2783 -0.9580 0.0695
vn -0.3123 -0.9500 -0.0035
vn 0.3160 -0.9486 -0.0164
vn -0.7426 -0.6697 -0.0058
vn -0.8978 -0.4223 0.1247
vn -0.2999 -0.9540 -0.0012
vn -0.9722 0.2318 -0.0326
vn -0.8159 -0.5671 0.1130
vn -0.7804 -0.6251 0.0168
vn -0.7186 0.6943 0.0399
vn -0.2672 0.9592 0.0919
vn -0.9992 -0.0374 0.0125
vn -0.5192 0.8542 0.0295
vn -0.5384 0.8427 -0.0013
vn 0.5246 0.8511 0.0186
vn -0.2191 0.6534 0.7246
vn 0.1257 0.3967 0.9093
vn 0.1607 -0.3628 0.9179
vn -0.0309 -0.7374 0.6747
vn -0.2978 -0.9523 0.0671
vn 0.9731 0.0892 0.2123
vn 0.7906 0.5233 0.3179
vn 0.2956 0.9528 0.0690
vn -0.3978 0.9119 0.1015
vn -0.3055 0.9164 -0.2585
vn -0.6659 -0.7444 0.0497
vn 0.7214 -0.6431 -0.2568
vn 0.3236 0.9282 -0.1838
vn 0.0005 -0.0004 -1.0000
vn 0.0005 0.0004 -1.0000
vn -0.1029 0.0708 -0.9922
vn 0.1450 0.0012 -0.9894
vn -0.0012 -0.0006 -1.0000
vn 0.3635 -0.3473 -0.8644
vn 0.4252 0.0146 -0.9050
vn -0.0001 -0.0001 -1.0000
vn -0.0004 -0.0003 -1.0000
vn 0.0008 -0.0000 -1.0000
vn -0.0004 -0.0001 -1.0000
vn 0.0001 -0.0002 -1.0000
vn -0.0001 0.0001 -1.0000
vn -0.5228 -0.8482 0.0849
vn -0.7001 0.6684 -0.2511
vn 0.7619 0.6082 -0.2229
vn 0.3887 -0.8912 -0.2339
vn -0.9809 -0.0838 -0.1756
vn -0.6563 0.7540 -0.0274
vn -0.8851 0.4609 0.0639
vn -0.9982 0.0597 -0.0036
vn -0.8068 -0.5908 -0.0040
vn -0.5614 -0.8275 -0.0019
vn 0.2284 -0.9735 -0.0143
vn 0.6685 -0.7314 0.1347
vn 0.9923 0.1000 -0.0735
vn 0.4001 0.9163 -0.0176
vn 0.4765 0.8790 -0.0140
vn -0.3430 0.9393 0.0020
vn -0.8089 0.5878 -0.0132
vn -0.6268 -0.7740 -0.0894
vn -0.3613 -0.9305 -0.0609
vn 0.2866 -0.9580 -0.0088
vn 0.8245 -0.5659 -0.0020
vn 0.9994 -0.0331 0.0015
vn 0.7721 0.6353 0.0175
vn 0.3183 0.9480 0.0020
vn -0.3524 0.9359 0.0020
vn -0.8063 0.5913 -0.0132
vn -0.4106 -0.9117 -0.0122
vn -0.7396 -0.6678 -0.0842
vn 0.3062 -0.9519 -0.0086
vn 0.9675 -0.2527 0.0021
vn 0.9581 -0.2863 -0.0048
vn 0.7550 0.6554 0.0179
vn -0.5432 0.0982 -0.8338
vn 0.4276 0.2342 -0.8731
vn -0.7309 0.6825 -0.0017
vn -0.7297 0.6813 -0.0579
vn -0.9729 -0.1940 0.1259
vn -0.9582 -0.2752 0.0779
vn -0.3168 -0.9485 -0.0036
vn 0.1925 -0.9813 -0.0054
vn 0.8091 -0.5763 -0.1149
vn 0.9431 0.3326 0.0002
vn 0.3076 0.9515 0.0003
vn -0.9131 -0.0226 0.4071
vn 0.1423 0.2399 0.9603
vn -0.8562 0.5007 0.1273
vn 0.9873 -0.1588 -0.0040
vn 0.8689 0.1530 -0.4707
vn 0.9711 0.1551 0.1813
vn 0.7911 -0.6116 -0.0050
vn -0.1146 0.9934 0.0023
vn 0.1969 0.4207 -0.8856
vn 0.5246 0.3841 0.7598
vn -0.0868 -0.1528 -0.9844
vn 0.1045 0.4458 -0.8890
vn -0.7718 0.1113 -0.6261
vn 0.8410 0.2276 -0.4909
vn 0.7505 -0.6185 -0.2327
vn 0.4218 0.3359 0.8422
vn -0.5752 0.8180 0.0040
vn 0.2558 0.7077 0.6586
vn -0.9083 0.3276 0.2602
vn -0.2899 -0.4831 -0.8262
vn 0.2918 0.9479 -0.1279
vn 0.4854 0.8741 0.0194
vn 0.6319 0.7750 -0.0069
vn 0.9896 -0.1420 -0.0217
vn 0.9206 -0.3861 -0.0589
vn 0.2560 -0.9665 0.0202
vn -0.3741 -0.9274 0.0011
vn -0.7999 -0.6001 -0.0073
vn -0.9935 0.1139 -0.0037
vn -0.7908 0.6119 0.0102
vn -0.3121 0.9497 -0.0248
vn -0.4399 0.8965 -0.0529
vn -0.6095 0.7927 -0.0082
vn -0.9983 0.0573 -0.0054
vn -0.6121 -0.7908 -0.0093
vn -0.3502 -0.9353 -0.0506
vn 0.4386 -0.8977 0.0422
vn 0.8597 -0.5048 0.0775
vn 0.9242 -0.3677 0.1032
vn 0.9384 0.3251 -0.1173
vn 0.5425 0.8372 0.0693
vn 0.3107 0.9505 0.0007
vn 0.8971 0.4398 0.0433
vn 0.9779 -0.2074 0.0265
vn 0.9441 -0.3213 0.0739
vn 0.2062 -0.9784 0.0149
vn -0.5237 -0.8473 -0.0884
vn -0.4529 -0.8890 -0.0680
vn -0.9365 -0.3460 -0.0573
vn -0.7963 0.6048 -0.0066
vn -0.2439 0.9698 -0.0024
vt 0.315034 0.076655
vt 0.314610 0.076330
vt 0.315038 0.076321
vt 0.318397 0.070979
vt 0.318587 0.071338
vt 0.318158 0.071344
vt 0.313244 0.080749
vt 0.314134 0.082249
vt 0.313640 0.082447
vt 0.313652 0.070777
vt 0.314503 0.071118
vt 0.313653 0.071378
vt 0.311101 0.067576
vt 0.311409 0.066879
vt 0.311693 0.069236
vt 0.312290 0.083021
vt 0.312685 0.072187
vt 0.304425 0.078359
vt 0.305423 0.075743
vt 0.304833 0.078827
vt 0.312091 0.070536
vt 0.312890 0.069119
vt 0.313544 0.068447
vt 0.303485 0.076651
vt 0.303662 0.078672
vt 0.311272 0.070870
vt 0.311639 0.071065
vt 0.311380 0.071178
vt 0.304520 0.064257
vt 0.305423 0.064925
vt 0.304511 0.066072
vt 0.303172 0.077644
vt 0.303113 0.078083
vt 0.303060 0.065912
vt 0.303546 0.066187
vt 0.303045 0.066513
vt 0.303533 0.065848
vt 0.303515 0.081397
vt 0.304374 0.081130
vt 0.304376 0.081570
vt 0.303405 0.069868
vt 0.304183 0.070000
vt 0.303391 0.070391
vt 0.303094 0.064254
vt 0.302225 0.081670
vt 0.303280 0.080915
vt 0.302509 0.070463
vt 0.303397 0.067679
vt 0.304193 0.069398
vt 0.312533 0.079918
vt 0.312893 0.078705
vt 0.313081 0.080786
vt 0.301743 0.070100
vt 0.302076 0.070746
vt 0.302182 0.068932
vt 0.311153 0.081097
vt 0.312489 0.079383
vt 0.311364 0.069885
vt 0.310931 0.070681
vt 0.301607 0.067738
vt 0.310618 0.078969
vt 0.310383 0.080706
vt 0.309826 0.069575
vt 0.314504 0.070480
vt 0.311606 0.084224
vt 0.311846 0.083833
vt 0.311856 0.084207
vt 0.323307 0.075961
vt 0.323731 0.076310
vt 0.323303 0.076319
vt 0.318588 0.071600
vt 0.318159 0.071612
vt 0.314353 0.084157
vt 0.314604 0.083752
vt 0.314604 0.084194
vt 0.314041 0.084553
vt 0.313883 0.084456
vt 0.313094 0.084590
vt 0.313078 0.084679
vt 0.312298 0.084482
vt 0.312188 0.084576
vt 0.312158 0.083437
vt 0.312316 0.083533
vt 0.313081 0.083291
vt 0.313089 0.083411
vt 0.314011 0.083413
vt 0.313875 0.083507
vt 0.314344 0.083798
vt 0.323303 0.075611
vt 0.323735 0.075961
vt 0.335623 0.186668
vt 0.335048 0.187290
vt 0.334518 0.187385
vt 0.333231 0.187066
vt 0.333692 0.186406
vt 0.334434 0.186285
vt 0.335169 0.186385
vt 0.318588 0.070668
vt 0.318587 0.070982
vt 0.315038 0.077013
vt 0.314606 0.076656
vt 0.316065 0.087582
vt 0.315643 0.087890
vt 0.315637 0.087594
vt 0.316075 0.088211
vt 0.316433 0.087837
vt 0.315637 0.088510
vt 0.315644 0.088144
vt 0.309476 0.066910
vt 0.309773 0.068937
vt 0.314440 0.078278
vt 0.313969 0.078104
vt 0.314396 0.078089
vt 0.321789 0.070653
vt 0.321362 0.070810
vt 0.321362 0.070627
vt 0.319938 0.076133
vt 0.320368 0.076325
vt 0.319940 0.076353
vt 0.306146 0.073285
vt 0.306570 0.072943
vt 0.306570 0.073242
vt 0.323473 0.082484
vt 0.322424 0.082170
vt 0.323667 0.082410
vt 0.321900 0.082281
vt 0.322382 0.082273
vt 0.321259 0.082437
vt 0.321803 0.082179
vt 0.321469 0.082484
vt 0.321081 0.082990
vt 0.321672 0.083300
vt 0.321311 0.082972
vt 0.322001 0.083496
vt 0.321504 0.083375
vt 0.322796 0.083393
vt 0.322056 0.083393
vt 0.323481 0.083035
vt 0.322902 0.083496
vt 0.323487 0.082834
vt 0.323852 0.083049
vt 0.323843 0.082794
vt 0.307826 0.086730
vt 0.306996 0.086921
vt 0.307387 0.086736
vt 0.307181 0.087662
vt 0.308951 0.087214
vt 0.307530 0.087747
vt 0.306864 0.087366
vt 0.308817 0.086921
vt 0.308213 0.087747
vt 0.306132 0.072469
vt 0.306546 0.072318
vt 0.306557 0.072500
vt 0.321364 0.070337
vt 0.321790 0.070303
vt 0.313891 0.077796
vt 0.314440 0.077743
vt 0.306016 0.072957
vt 0.320368 0.075650
vt 0.320366 0.076125
vt 0.321918 0.070855
vt 0.321362 0.071171
vt 0.310119 0.073014
vt 0.311262 0.076388
vt 0.310252 0.077490
vt 0.312151 0.075046
vt 0.312320 0.077215
vt 0.301765 0.075915
vt 0.302174 0.077508
vt 0.301778 0.078085
vt 0.302175 0.075141
vt 0.303215 0.077526
vt 0.303832 0.074824
vt 0.304060 0.077366
vt 0.302856 0.073878
vt 0.303442 0.071805
vt 0.303670 0.074229
vt 0.304873 0.073501
vt 0.312501 0.077698
vt 0.313423 0.076515
vt 0.312878 0.078225
vt 0.313662 0.078473
vt 0.313830 0.076199
vt 0.314275 0.079034
vt 0.311114 0.084905
vt 0.311809 0.083269
vt 0.312028 0.085001
vt 0.312945 0.084984
vt 0.301607 0.085859
vt 0.302296 0.084094
vt 0.302352 0.086023
vt 0.303260 0.085859
vt 0.304080 0.085166
vt 0.304115 0.085860
vt 0.302696 0.081677
vt 0.303535 0.082375
vt 0.302668 0.082371
vt 0.304441 0.081800
vt 0.304473 0.082375
vt 0.305109 0.082371
vt 0.312630 0.086565
vt 0.313605 0.084739
vt 0.313577 0.086564
vt 0.314445 0.086459
vt 0.310958 0.083043
vt 0.311737 0.082704
vt 0.312802 0.083226
vt 0.301683 0.083527
vt 0.301665 0.084101
vt 0.302871 0.083694
vt 0.303498 0.084315
vt 0.304074 0.083383
vt 0.302719 0.079894
vt 0.303593 0.080580
vt 0.303993 0.079361
vt 0.305207 0.080291
vt 0.312709 0.084485
vt 0.313614 0.084144
vt 0.311328 0.090650
vt 0.311493 0.090173
vt 0.311711 0.090236
vt 0.310692 0.090496
vt 0.310287 0.090207
vt 0.310668 0.090226
vt 0.306310 0.087864
vt 0.305826 0.087471
vt 0.306357 0.087442
vt 0.310131 0.090917
vt 0.311077 0.090958
vt 0.310257 0.082724
vt 0.310907 0.082435
vt 0.310040 0.072132
vt 0.310664 0.072369
vt 0.311947 0.072464
vt 0.303076 0.070930
vt 0.301755 0.073330
vt 0.303750 0.072486
vt 0.304143 0.072412
vt 0.304012 0.067774
vt 0.302984 0.068925
vt 0.304508 0.066338
vt 0.304483 0.068858
vt 0.312075 0.073056
vt 0.312485 0.073803
vt 0.313655 0.073788
vt 0.314499 0.073677
vt 0.311808 0.071222
vt 0.311655 0.071288
vt 0.304034 0.066312
vt 0.303561 0.066203
vt 0.311486 0.070510
vt 0.312094 0.070270
vt 0.318119 0.072873
vt 0.317561 0.072716
vt 0.318119 0.072435
vt 0.323391 0.075523
vt 0.323847 0.075255
vt 0.323847 0.075574
vt 0.306101 0.087054
vt 0.310286 0.083072
vt 0.309768 0.082851
vt 0.313260 0.073471
vt 0.312548 0.073266
vt 0.313005 0.073123
vt 0.306318 0.086719
vt 0.306269 0.086368
vt 0.306357 0.086365
vt 0.319433 0.073067
vt 0.319604 0.072687
vt 0.319774 0.072791
vt 0.319421 0.072711
vt 0.319055 0.072435
vt 0.319196 0.072435
vt 0.306092 0.086727
vt 0.312661 0.072190
vt 0.312504 0.072082
vt 0.312661 0.072057
vt 0.311098 0.070593
vt 0.311099 0.070517
vt 0.312896 0.075255
vt 0.313278 0.075434
vt 0.312896 0.075487
vt 0.317561 0.072928
vt 0.317182 0.072757
vt 0.307043 0.083496
vt 0.307987 0.083794
vt 0.306689 0.083794
vt 0.311614 0.072567
vt 0.312190 0.072526
vt 0.311579 0.072720
vt 0.310980 0.090450
vt 0.305171 0.087607
vt 0.305385 0.087916
vt 0.310554 0.090067
vt 0.310314 0.090065
vt 0.310263 0.089875
vt 0.310358 0.089764
vt 0.310386 0.089871
vt 0.310133 0.089752
vt 0.319164 0.072834
vt 0.319055 0.072954
vt 0.308681 0.076131
vt 0.308978 0.076023
vt 0.308978 0.076117
vt 0.307068 0.083031
vt 0.307714 0.083495
vt 0.305546 0.087418
vt 0.304698 0.087166
vt 0.304968 0.087109
vt 0.311927 0.072467
vt 0.311579 0.072102
vt 0.311752 0.072057
vt 0.315679 0.073537
vt 0.315582 0.073533
vt 0.315631 0.073479
vt 0.314702 0.072298
vt 0.314826 0.072058
vt 0.314826 0.072296
vt 0.315448 0.073812
vt 0.315679 0.073881
vt 0.310291 0.089679
vt 0.319530 0.077042
vt 0.319607 0.077084
vt 0.319529 0.077092
vt 0.312862 0.076938
vt 0.312975 0.076683
vt 0.313154 0.076954
vt 0.315003 0.076932
vt 0.315290 0.076677
vt 0.315290 0.076922
vt 0.310276 0.089399
vt 0.314494 0.080519
vt 0.312881 0.079937
vt 0.304414 0.075550
vt 0.305415 0.074032
vt 0.302173 0.079587
vt 0.311192 0.077795
vt 0.312756 0.082653
vt 0.302277 0.083465
vt 0.303612 0.079994
vt 0.305240 0.079613
vt 0.312735 0.083806
vt 0.314465 0.083987
vt 0.314504 0.074560
vt 0.304018 0.071378
vt 0.305032 0.069608
vt 0.305328 0.072316
vt 0.302629 0.071334
vt 0.303283 0.073457
vt 0.311843 0.075075
vt 0.310798 0.066890
vt 0.312987 0.068446
vt 0.311808 0.070636
vt 0.305369 0.064251
vt 0.303618 0.064256
vt 0.304222 0.067740
vt 0.302185 0.067738
vt 0.314384 0.068450
vt 0.311595 0.083796
vt 0.323731 0.075618
vt 0.335623 0.187028
vt 0.333231 0.186705
vt 0.333705 0.187360
vt 0.318159 0.070658
vt 0.314610 0.077006
vt 0.316065 0.088520
vt 0.314009 0.078276
vt 0.308958 0.087397
vt 0.306120 0.072268
vt 0.319940 0.075611
vt 0.321918 0.071222
vt 0.311958 0.075579
vt 0.314460 0.084595
vt 0.310149 0.090473
vt 0.311485 0.070639
vt 0.323558 0.075271
vt 0.305719 0.087067
vt 0.309476 0.083071
vt 0.312515 0.073471
vt 0.312463 0.072223
vt 0.313278 0.075298
vt 0.317182 0.072882
vt 0.308681 0.075966
vt 0.306716 0.083043
vt 0.315597 0.073551
vt 0.314774 0.072057
vt 0.310131 0.089687
vt 0.319607 0.077032
vt 0.312862 0.076677
vt 0.315179 0.076680
vt 0.310188 0.089394
vt 0.312692 0.076628
vt 0.301740 0.080790
s 0
g log_7_Material
usemtl Material
f 2/1/1 45/2/1 1/3/1
f 10/4/2 50/5/2 9/6/2
f 30/7/3 171/8/3 180/9/3
f 29/10/4 115/11/4 124/12/4
f 13/13/5 63/14/5 15/15/5
f 179/16/6 30/7/6 180/9/6
f 123/17/7 29/10/7 124/12/7
f 178/18/8 28/19/8 179/20/8
f 122/21/9 27/22/9 123/17/9
f 27/22/10 70/23/10 29/10/10
f 24/24/11 178/18/11 177/25/11
f 121/26/12 125/27/12 127/28/12
f 68/29/13 27/30/13 25/31/13
f 22/32/14 177/25/14 176/33/14
f 21/34/15 121/35/15 120/36/15
f 23/37/16 68/29/16 25/31/16
f 175/38/17 22/39/17 176/40/17
f 19/41/18 120/42/18 119/43/18
f 66/44/19 23/37/19 21/34/19
f 174/45/20 20/46/20 175/38/20
f 118/47/21 19/41/21 119/43/21
f 65/48/22 21/49/22 19/41/22
f 173/50/23 18/51/23 174/52/23
f 15/53/24 118/47/24 117/54/24
f 17/55/25 65/48/25 19/41/25
f 172/56/26 16/57/26 173/50/26
f 13/13/27 117/58/27 116/59/27
f 63/60/28 17/55/28 15/53/28
f 11/61/29 172/56/29 171/62/29
f 115/63/30 13/13/30 116/59/30
f 70/23/31 12/64/31 29/10/31
f 36/65/32 7/66/32 6/67/32
f 7/68/33 48/69/33 6/70/33
f 9/6/34 49/71/34 8/72/34
f 2/73/35 31/74/35 32/75/35
f 2/73/32 33/76/32 3/77/32
f 4/78/36 33/76/36 34/79/36
f 5/80/37 34/79/37 35/81/37
f 6/67/32 35/81/32 36/65/32
f 7/66/32 38/82/32 8/83/32
f 8/83/32 39/84/32 9/85/32
f 9/85/38 40/86/38 10/87/38
f 1/88/39 40/86/39 31/74/39
f 8/89/40 44/90/40 7/68/40
f 41/91/32 47/92/32 42/93/32
f 44/94/32 50/95/32 43/96/32
f 45/97/32 44/94/32 43/96/32
f 42/93/32 45/97/32 41/91/32
f 10/4/41 45/98/41 43/99/41
f 3/100/42 41/101/42 2/1/42
f 3/102/43 47/103/43 46/104/43
f 5/105/44 47/103/44 4/106/44
f 5/105/45 48/107/45 42/108/45
f 62/109/46 13/13/46 12/110/46
f 56/111/47 75/112/47 57/113/47
f 60/114/48 80/115/48 76/116/48
f 52/117/49 77/118/49 53/119/49
f 56/120/50 74/121/50 71/122/50
f 51/123/51 61/124/51 62/125/51
f 53/126/51 61/124/51 52/127/51
f 53/126/52 64/128/52 63/129/52
f 54/130/53 65/131/53 64/128/53
f 56/132/54 65/131/54 55/133/54
f 56/132/55 67/134/55 66/135/55
f 58/136/56 67/134/56 57/137/56
f 59/138/57 68/139/57 58/136/57
f 60/140/58 69/141/58 59/138/58
f 51/123/59 70/142/59 60/140/59
f 73/143/60 78/144/60 77/145/60
f 71/146/61 76/147/61 75/148/61
f 74/149/62 72/150/62 71/146/62
f 76/147/63 79/151/63 75/148/63
f 54/152/64 77/153/64 78/154/64
f 60/114/65 72/155/65 51/156/65
f 57/113/66 79/157/66 58/158/66
f 54/152/67 74/121/67 55/159/67
f 52/117/68 72/160/68 73/161/68
f 59/162/69 79/163/69 80/115/69
f 81/164/70 161/165/70 170/166/70
f 161/165/71 83/167/71 162/168/71
f 83/169/72 163/170/72 162/171/72
f 84/172/73 164/173/73 163/170/73
f 164/173/74 86/174/74 165/175/74
f 165/176/75 87/177/75 166/178/75
f 87/177/76 167/179/76 166/178/76
f 167/180/77 89/181/77 168/182/77
f 89/181/78 169/183/78 168/182/78
f 90/184/79 170/185/79 169/183/79
f 31/186/80 91/187/80 32/188/80
f 91/187/81 33/189/81 32/188/81
f 33/190/82 93/191/82 34/192/82
f 93/191/83 35/193/83 34/192/83
f 35/193/84 95/194/84 36/195/84
f 95/196/85 37/197/85 36/198/85
f 37/197/86 97/199/86 38/200/86
f 97/199/87 39/201/87 38/200/87
f 39/202/88 142/203/88 40/204/88
f 142/203/89 31/205/89 40/204/89
f 100/206/90 102/207/90 91/187/90
f 102/207/91 92/208/91 91/187/91
f 103/209/92 93/191/92 92/210/92
f 93/191/93 105/211/93 94/212/93
f 94/212/94 106/213/94 95/194/94
f 106/214/95 96/215/95 95/196/95
f 96/215/96 108/216/96 97/199/96
f 108/216/97 98/217/97 97/199/97
f 98/218/98 141/219/98 142/203/98
f 110/220/99 151/221/99 149/222/99
f 143/223/100 146/224/100 145/225/100
f 100/226/101 144/227/101 113/228/101
f 101/229/102 143/223/102 141/230/102
f 100/206/103 114/231/103 101/232/103
f 190/233/104 116/59/104 181/234/104
f 116/59/105 182/235/105 181/234/105
f 117/54/106 183/236/106 182/237/106
f 183/236/107 119/43/107 184/238/107
f 119/43/108 185/239/108 184/238/108
f 120/36/109 186/240/109 185/241/109
f 186/240/110 122/242/110 187/243/110
f 187/244/111 123/17/111 188/245/111
f 123/17/112 189/246/112 188/245/112
f 124/12/113 190/247/113 189/246/113
f 127/28/114 137/248/114 139/249/114
f 23/37/115 126/250/115 125/251/115
f 122/21/116 126/252/116 25/253/116
f 121/254/117 128/255/117 122/256/117
f 131/257/118 148/258/118 146/259/118
f 144/227/119 131/260/119 113/228/119
f 113/261/120 146/262/120 114/231/120
f 144/263/121 145/264/121 130/265/121
f 135/266/122 158/267/122 159/268/122
f 130/269/123 147/270/123 134/271/123
f 133/272/124 153/273/124 155/274/124
f 131/260/125 134/275/125 135/266/125
f 139/276/126 138/277/126 140/278/126
f 126/252/127 140/279/127 138/280/127
f 126/281/128 137/282/128 125/283/128
f 127/284/129 140/285/129 128/255/129
f 110/286/130 142/287/130 141/288/130
f 112/289/131 143/290/131 144/291/131
f 110/220/132 143/223/132 111/292/132
f 99/293/133 144/227/133 142/294/133
f 129/295/134 146/224/134 132/296/134
f 136/297/135 147/298/135 133/299/135
f 132/296/136 148/300/136 136/297/136
f 129/301/137 147/270/137 145/302/137
f 150/303/138 151/304/138 152/305/138
f 110/286/139 150/306/139 99/307/139
f 112/308/140 150/309/140 152/310/140
f 111/311/141 152/312/141 151/313/141
f 154/314/142 155/315/142 153/316/142
f 133/317/143 156/318/143 136/319/143
f 136/320/144 154/314/144 132/321/144
f 132/296/145 153/322/145 129/295/145
f 157/323/146 159/324/146 158/325/146
f 135/326/147 160/327/147 148/328/147
f 147/329/148 158/330/148 134/331/148
f 148/300/149 157/332/149 147/298/149
f 30/7/150 170/185/150 11/333/150
f 28/334/151 169/183/151 30/7/151
f 26/335/152 168/336/152 28/19/152
f 166/178/153 26/335/153 24/24/153
f 165/176/154 24/24/154 22/32/154
f 20/46/155 165/175/155 22/39/155
f 18/337/156 164/173/156 20/46/156
f 162/168/157 18/51/157 16/57/157
f 14/338/158 162/168/158 16/57/158
f 170/166/159 14/338/159 11/61/159
f 101/232/160 172/56/160 102/207/160
f 172/56/161 103/339/161 102/207/161
f 103/209/162 174/45/162 104/340/162
f 104/340/163 175/38/163 105/211/163
f 175/38/164 106/213/164 105/211/164
f 106/214/165 177/25/165 107/341/165
f 177/25/166 108/216/166 107/341/166
f 108/216/167 179/20/167 109/342/167
f 109/343/168 180/9/168 141/219/168
f 180/9/169 101/344/169 141/219/169
f 189/246/170 81/345/170 90/184/170
f 188/245/171 90/184/171 89/181/171
f 88/346/172 188/347/172 89/348/172
f 87/177/173 187/243/173 88/346/173
f 185/241/174 87/177/174 86/349/174
f 85/350/175 185/239/175 86/174/175
f 183/236/176 85/350/176 84/172/176
f 182/237/177 84/172/177 83/169/177
f 82/351/178 182/235/178 83/167/178
f 81/164/179 181/234/179 82/351/179
f 2/1/1 41/101/1 45/2/1
f 10/4/180 43/99/180 50/5/180
f 30/7/181 11/333/181 171/8/181
f 29/10/182 12/64/182 115/11/182
f 13/13/183 61/352/183 63/14/183
f 179/16/184 28/334/184 30/7/184
f 123/17/185 27/22/185 29/10/185
f 178/18/186 26/335/186 28/19/186
f 122/21/187 25/253/187 27/22/187
f 27/22/188 69/353/188 70/23/188
f 24/24/189 26/335/189 178/18/189
f 121/26/12 23/354/12 125/27/12
f 68/29/190 69/355/190 27/30/190
f 22/32/191 24/24/191 177/25/191
f 21/34/192 23/37/192 121/35/192
f 23/37/193 67/356/193 68/29/193
f 175/38/194 20/46/194 22/39/194
f 19/41/195 21/49/195 120/42/195
f 66/44/196 67/356/196 23/37/196
f 174/45/197 18/337/197 20/46/197
f 118/47/198 17/55/198 19/41/198
f 65/48/199 66/357/199 21/49/199
f 173/50/200 16/57/200 18/51/200
f 15/53/201 17/55/201 118/47/201
f 17/55/202 64/358/202 65/48/202
f 172/56/203 14/338/203 16/57/203
f 13/13/204 15/15/204 117/58/204
f 63/60/205 64/358/205 17/55/205
f 11/61/206 14/338/206 172/56/206
f 115/63/207 12/110/207 13/13/207
f 70/23/208 62/359/208 12/64/208
f 36/65/32 37/360/32 7/66/32
f 7/68/33 44/90/33 48/69/33
f 9/6/34 50/5/34 49/71/34
f 2/73/209 1/88/209 31/74/209
f 2/73/32 32/75/32 33/76/32
f 4/78/210 3/77/210 33/76/210
f 5/80/211 4/78/211 34/79/211
f 6/67/32 5/80/32 35/81/32
f 7/66/32 37/360/32 38/82/32
f 8/83/32 38/82/32 39/84/32
f 9/85/32 39/84/32 40/86/32
f 1/88/212 10/87/212 40/86/212
f 8/89/40 49/361/40 44/90/40
f 41/91/32 46/362/32 47/92/32
f 44/94/32 49/363/32 50/95/32
f 45/97/32 48/364/32 44/94/32
f 42/93/32 48/364/32 45/97/32
f 10/4/213 1/365/213 45/98/213
f 3/100/42 46/366/42 41/101/42
f 3/102/214 4/106/214 47/103/214
f 5/105/215 42/108/215 47/103/215
f 5/105/216 6/367/216 48/107/216
f 62/109/217 61/352/217 13/13/217
f 56/111/218 71/368/218 75/112/218
f 60/114/219 59/162/219 80/115/219
f 52/117/220 73/161/220 77/118/220
f 56/120/221 55/159/221 74/121/221
f 51/123/51 52/127/51 61/124/51
f 53/126/222 63/129/222 61/124/222
f 53/126/223 54/130/223 64/128/223
f 54/130/224 55/133/224 65/131/224
f 56/132/225 66/135/225 65/131/225
f 56/132/226 57/137/226 67/134/226
f 58/136/227 68/139/227 67/134/227
f 59/138/228 69/141/228 68/139/228
f 60/140/229 70/142/229 69/141/229
f 51/123/230 62/125/230 70/142/230
f 73/143/231 74/149/231 78/144/231
f 71/146/232 72/150/232 76/147/232
f 74/149/233 73/143/233 72/150/233
f 76/147/234 80/369/234 79/151/234
f 54/152/64 53/370/64 77/153/64
f 60/114/235 76/116/235 72/155/235
f 57/113/236 75/112/236 79/157/236
f 54/152/237 78/154/237 74/121/237
f 52/117/238 51/371/238 72/160/238
f 59/162/239 58/372/239 79/163/239
f 81/164/240 82/351/240 161/165/240
f 161/165/241 82/351/241 83/167/241
f 83/169/242 84/172/242 163/170/242
f 84/172/243 85/350/243 164/173/243
f 164/173/244 85/350/244 86/174/244
f 165/176/245 86/349/245 87/177/245
f 87/177/246 88/346/246 167/179/246
f 167/180/247 88/373/247 89/181/247
f 89/181/248 90/184/248 169/183/248
f 90/184/249 81/345/249 170/185/249
f 31/186/250 100/206/250 91/187/250
f 91/187/251 92/208/251 33/189/251
f 33/190/92 92/210/92 93/191/92
f 93/191/252 94/212/252 35/193/252
f 35/193/253 94/212/253 95/194/253
f 95/196/254 96/215/254 37/197/254
f 37/197/255 96/215/255 97/199/255
f 97/199/256 98/217/256 39/201/256
f 39/202/257 98/218/257 142/203/257
f 142/203/258 100/374/258 31/205/258
f 100/206/259 101/232/259 102/207/259
f 102/207/260 103/339/260 92/208/260
f 103/209/162 104/340/162 93/191/162
f 93/191/261 104/340/261 105/211/261
f 94/212/262 105/211/262 106/213/262
f 106/214/263 107/341/263 96/215/263
f 96/215/264 107/341/264 108/216/264
f 108/216/265 109/342/265 98/217/265
f 98/218/266 109/343/266 141/219/266
f 110/220/267 111/292/267 151/221/267
f 143/223/268 114/375/268 146/224/268
f 100/226/101 142/294/101 144/227/101
f 101/229/102 114/375/102 143/223/102
f 100/206/103 113/261/103 114/231/103
f 190/233/269 115/63/269 116/59/269
f 116/59/270 117/58/270 182/235/270
f 117/54/271 118/47/271 183/236/271
f 183/236/272 118/47/272 119/43/272
f 119/43/273 120/42/273 185/239/273
f 120/36/274 121/35/274 186/240/274
f 186/240/275 121/35/275 122/242/275
f 187/244/276 122/21/276 123/17/276
f 123/17/7 124/12/7 189/246/7
f 124/12/277 115/11/277 190/247/277
f 127/28/114 125/27/114 137/248/114
f 23/37/115 25/31/115 126/250/115
f 122/21/116 128/376/116 126/252/116
f 121/254/117 127/284/117 128/255/117
f 131/257/278 135/377/278 148/258/278
f 144/227/279 130/378/279 131/260/279
f 113/261/280 131/379/280 146/262/280
f 144/263/281 143/380/281 145/264/281
f 135/266/122 134/275/122 158/267/122
f 130/269/282 145/302/282 147/270/282
f 133/272/283 129/301/283 153/273/283
f 131/260/125 130/378/125 134/275/125
f 139/276/284 137/381/284 138/277/284
f 126/252/127 128/376/127 140/279/127
f 126/281/128 138/382/128 137/282/128
f 127/284/129 139/383/129 140/285/129
f 110/286/130 99/307/130 142/287/130
f 112/289/285 111/311/285 143/290/285
f 110/220/286 141/230/286 143/223/286
f 99/293/287 112/308/287 144/227/287
f 129/295/288 145/225/288 146/224/288
f 136/297/289 148/300/289 147/298/289
f 132/296/290 146/224/290 148/300/290
f 129/301/291 133/272/291 147/270/291
f 150/303/138 149/384/138 151/304/138
f 110/286/292 149/385/292 150/306/292
f 112/308/293 99/293/293 150/309/293
f 111/311/294 112/289/294 152/312/294
f 154/314/142 156/386/142 155/315/142
f 133/317/295 155/387/295 156/318/295
f 136/320/296 156/386/296 154/314/296
f 132/296/297 154/388/297 153/322/297
f 157/323/298 160/389/298 159/324/298
f 135/326/147 159/390/147 160/327/147
f 147/329/148 157/391/148 158/330/148
f 148/300/149 160/392/149 157/332/149
f 30/7/299 169/183/299 170/185/299
f 28/334/300 168/182/300 169/183/300
f 26/335/301 167/179/301 168/336/301
f 166/178/302 167/179/302 26/335/302
f 165/176/303 166/178/303 24/24/303
f 20/46/304 164/173/304 165/175/304
f 18/337/305 163/170/305 164/173/305
f 162/168/306 163/393/306 18/51/306
f 14/338/307 161/165/307 162/168/307
f 170/166/308 161/165/308 14/338/308
f 101/232/309 171/62/309 172/56/309
f 172/56/310 173/50/310 103/339/310
f 103/209/311 173/394/311 174/45/311
f 104/340/312 174/45/312 175/38/312
f 175/38/313 176/40/313 106/213/313
f 106/214/314 176/33/314 177/25/314
f 177/25/315 178/18/315 108/216/315
f 108/216/316 178/18/316 179/20/316
f 109/343/317 179/16/317 180/9/317
f 180/9/318 171/8/318 101/344/318
f 189/246/319 190/247/319 81/345/319
f 188/245/320 189/246/320 90/184/320
f 88/346/321 187/243/321 188/347/321
f 87/177/322 186/240/322 187/243/322
f 185/241/323 186/240/323 87/177/323
f 85/350/324 184/238/324 185/239/324
f 183/236/325 184/238/325 85/350/325
f 182/237/326 183/236/326 84/172/326
f 82/351/327 181/234/327 182/235/327
f 81/164/328 190/233/328 181/234/328
