# Blender 4.2.0
# www.blender.org
mtllib log_3.mtl
g log_3_Mesh
v -0.006652 0.065827 -0.029053
v 0.050951 0.084459 -0.026384
v -0.027253 0.035477 0.016432
v -0.065048 -0.012758 -0.061831
v -0.054024 -0.050178 -0.055797
v 0.041680 -0.074882 -0.035108
v 0.085804 -0.059171 -0.028921
v 0.114829 -0.021956 -0.032651
v 0.114256 0.035139 0.009284
v 0.090013 0.073871 -0.035265
v 0.008657 0.048874 -0.251502
v -0.007872 0.019095 -0.234972
v -0.004597 -0.010710 -0.234972
v 0.007704 -0.038123 -0.234972
v 0.045196 -0.056720 -0.234972
v 0.071258 -0.044587 -0.251502
v 0.099237 -0.014499 -0.234972
v 0.094016 0.021214 -0.234972
v 0.064903 0.050698 -0.234972
v 0.043681 0.057164 -0.234972
v 0.056580 0.087657 0.130904
v -0.011871 0.074828 0.157809
v -0.038534 0.046435 0.146848
v -0.038534 -0.010114 0.181326
v -0.004530 -0.059666 0.174584
v 0.045045 -0.075538 0.178886
v 0.087047 -0.059666 0.174584
v 0.121895 -0.033696 0.207746
v 0.109975 0.047260 0.145413
v 0.091256 0.059391 0.143427
v 0.043541 0.074970 -0.234972
v 0.083378 0.061809 -0.234972
v 0.111839 0.025781 -0.234972
v 0.112269 -0.018855 -0.234972
v 0.084238 -0.055361 -0.251502
v 0.044580 -0.070914 -0.234972
v -0.001541 -0.048036 -0.234972
v -0.021414 -0.014137 -0.234972
v -0.020806 0.022558 -0.234972
v -0.000310 0.059482 -0.251502
v 0.043659 0.055833 -0.211417
v 0.045138 -0.055333 -0.211417
v 0.064145 0.049610 -0.211417
v 0.070488 -0.043480 -0.211417
v 0.009442 0.047828 -0.211417
v 0.008510 -0.037164 -0.211417
v 0.092721 0.020805 -0.211417
v 0.097934 -0.014085 -0.211417
v -0.003421 -0.010383 -0.211417
v -0.006707 0.018734 -0.211417
v -0.005005 0.064179 -0.086832
v -0.025578 0.032122 -0.048867
v -0.064875 -0.014023 -0.073025
v -0.052818 -0.048536 -0.068478
v 0.042433 -0.073851 -0.087020
v 0.085398 -0.058181 -0.086734
v 0.114164 -0.021150 -0.085201
v 0.113628 0.032708 -0.054159
v 0.088290 0.070738 -0.087137
v 0.049026 0.081994 -0.080563
v -0.006653 -0.059181 -0.038508
v -0.027226 -0.011234 -0.049307
v -0.025717 -0.013370 -0.087477
v -0.005325 -0.056286 -0.079483
v -0.095977 -0.021011 -0.041067
v -0.102007 -0.001740 -0.040775
v -0.107808 -0.002347 -0.050412
v -0.101728 -0.020222 -0.051572
v -0.148577 -0.025267 -0.031626
v -0.153248 -0.010340 -0.031399
v -0.157741 -0.010811 -0.038864
v -0.153032 -0.024656 -0.039763
v -0.116315 -0.022656 -0.037417
v -0.121564 -0.021937 -0.047006
v -0.121819 -0.005065 -0.037150
v -0.127114 -0.005620 -0.045947
v -0.136245 -0.017470 -0.084812
v -0.138244 -0.006857 -0.081729
v -0.142432 -0.018488 -0.074430
v -0.144257 -0.008799 -0.071615
v -0.172411 -0.015300 -0.101104
v -0.173242 -0.010891 -0.099823
v -0.174981 -0.015723 -0.096791
v -0.175739 -0.011698 -0.095622
v -0.197800 -0.036685 -0.007578
v -0.199529 -0.031159 -0.007494
v -0.201192 -0.031333 -0.010258
v -0.199449 -0.036459 -0.010591
v 0.038356 0.076297 0.265042
v -0.006682 0.060787 0.265032
v -0.026234 0.032650 0.265037
v -0.026234 -0.004115 0.279433
v 0.006582 -0.049195 0.276282
v 0.050822 -0.057282 0.265036
v 0.078260 -0.048200 0.265039
v 0.109138 -0.020088 0.265042
v 0.103754 0.039990 0.265046
v 0.086076 0.056564 0.265051
v 0.038754 0.089443 0.265042
v -0.014488 0.071107 0.265032
v -0.038534 0.036504 0.276283
v -0.038534 -0.008117 0.276281
v -0.000916 -0.059795 0.265037
v 0.051014 -0.075276 0.265036
v 0.084607 -0.064158 0.265038
v 0.121895 -0.030210 0.265041
v 0.115622 0.045724 0.265046
v 0.092851 0.067072 0.265052
v 0.049809 -0.054896 0.241618
v 0.038685 0.068866 0.241623
v 0.010327 -0.043127 0.241618
v -0.001510 0.055023 0.241614
v 0.074295 -0.046791 0.241620
v 0.081270 0.051256 0.241632
v -0.018961 0.029913 0.241619
v -0.018961 -0.002897 0.241617
v 0.101848 -0.021702 0.241624
v 0.097043 0.036466 0.241627
vn -0.2040 0.9776 -0.0528
vn -0.7002 0.7038 -0.1197
vn -0.9954 -0.0499 -0.0819
vn -0.8241 -0.5664 0.0069
vn -0.3051 -0.9523 0.0019
vn 0.3531 -0.9356 -0.0044
vn 0.6305 -0.7741 -0.0563
vn 0.9872 0.1584 0.0169
vn 0.5472 0.8350 -0.0571
vn 0.6178 0.7841 0.0592
vn -0.2902 -0.9554 -0.0543
vn -0.3062 0.9514 -0.0324
vn -0.8613 0.5066 -0.0390
vn -0.9989 0.0382 -0.0276
vn -0.4863 -0.1091 -0.8669
vn -0.3031 -0.9498 -0.0769
vn 0.3427 -0.9393 -0.0137
vn 0.7876 -0.6159 -0.0161
vn 0.9998 0.0171 -0.0124
vn 0.8615 0.5070 -0.0280
vn 0.2646 0.9620 -0.0669
vn 0.9924 0.1120 -0.0511
vn 0.9113 0.4089 -0.0478
vn -0.0000 -0.0000 -1.0000
vn 0.2387 0.2876 -0.9275
vn -0.5433 0.0236 -0.8392
vn -0.2949 -0.2493 -0.9224
vn 0.4262 0.0034 -0.9046
vn 0.8732 -0.4847 -0.0506
vn -0.7088 -0.7032 -0.0553
vn 0.2436 -0.9694 -0.0301
vn -0.9874 -0.1475 -0.0568
vn -0.7299 0.6815 -0.0524
vn -0.4391 0.8978 -0.0332
vn 0.4438 0.8946 -0.0516
vn 0.3130 0.9473 -0.0676
vn 0.8432 0.5368 -0.0289
vn 0.9999 0.0096 -0.0125
vn 0.7965 -0.6044 -0.0159
vn -0.3527 -0.9339 -0.0581
vn -0.8625 -0.5056 -0.0225
vn -0.9993 0.0259 -0.0270
vn -0.8809 0.4717 -0.0386
vn -0.3096 0.9503 -0.0322
vn -0.3159 0.0596 0.9469
vn -0.0378 0.9976 -0.0573
vn -0.1598 -0.9843 -0.0747
vn -0.2611 -0.2953 -0.9190
vn 0.0609 -0.9923 -0.1078
vn 0.1887 0.9664 -0.1745
vn -0.5351 -0.8298 -0.1583
vn 0.4837 0.2764 0.8304
vn -0.5070 -0.1170 -0.8540
vn 0.1734 0.0393 0.9841
vn -0.2233 -0.0127 -0.9747
vn -0.1594 0.9866 0.0337
vn -0.2426 0.9692 0.0420
vn -0.1613 0.9825 0.0929
vn 0.0538 -0.9890 -0.1377
vn 0.6553 0.3220 -0.6833
vn -0.7769 -0.3002 0.5534
vn -0.8584 -0.0127 -0.5128
vn 0.4046 0.3246 -0.8549
vn -0.5539 -0.3268 0.7658
vn -0.0124 -0.9944 -0.1049
vn -0.8067 -0.3071 0.5049
vn -0.3416 0.9283 0.1471
vn 0.1504 -0.9763 -0.1556
vn 0.4142 0.1159 0.9028
vn 0.3814 0.9223 -0.0632
vn -0.8135 0.5798 0.0445
vn -1.0000 -0.0000 -0.0000
vn -0.8071 -0.5902 0.0124
vn -0.2856 -0.9581 0.0227
vn 0.3141 -0.9492 -0.0189
vn 0.6725 -0.7387 0.0449
vn 0.9966 0.0823 -0.0050
vn 0.6838 0.7293 -0.0229
vn -0.3255 0.9452 0.0249
vn -0.6650 0.7303 0.1565
vn -0.3673 -0.8880 0.2766
vn 0.9550 -0.0000 0.2966
vn -0.3124 0.9436 0.1096
vn -0.0002 -0.0001 1.0000
vn 0.5542 -0.3850 0.7380
vn -0.2482 -0.0000 0.9687
vn -0.4427 -0.4862 0.7534
vn -0.0000 -0.0000 1.0000
vn -0.0001 -0.0001 1.0000
vn -0.0000 -0.0001 1.0000
vn 0.0001 -0.0001 1.0000
vn 0.0001 -0.0002 1.0000
vn -0.0002 -0.0000 1.0000
vn 0.0002 -0.0001 1.0000
vn 0.8020 0.5718 0.1727
vn 0.3114 -0.9045 0.2914
vn -0.9503 -0.0785 0.3012
vn 0.2234 0.9558 0.1914
vn 0.7817 -0.5432 0.3063
vn -0.6540 -0.6977 0.2924
vn -0.3074 0.9515 -0.0084
vn -0.8587 0.5101 -0.0486
vn -0.9964 0.0687 -0.0492
vn -0.9146 -0.4021 -0.0429
vn -0.3090 -0.9511 0.0009
vn 0.3364 -0.9417 -0.0082
vn 0.7882 -0.6154 -0.0063
vn 0.9991 0.0305 -0.0279
vn 0.8257 0.5627 0.0399
vn 0.2554 0.9664 -0.0288
vn -0.2910 -0.9552 -0.0535
vn -0.3092 0.9503 -0.0359
vn -0.8585 0.5105 -0.0482
vn -0.9984 0.0384 -0.0416
vn -0.4502 -0.2694 -0.8513
vn -0.3484 -0.9371 -0.0237
vn 0.3377 -0.9411 -0.0185
vn 0.7900 -0.6129 -0.0194
vn 0.9998 0.0178 -0.0106
vn 0.8538 0.5172 -0.0596
vn 0.2500 0.9668 -0.0529
vn 0.9929 0.1091 -0.0475
vn 0.9123 0.4064 -0.0512
vn 0.1126 0.3368 -0.9348
vn -0.2588 -0.3118 -0.9142
vn -0.1157 -0.4322 -0.8943
vn 0.2713 0.2294 -0.9347
vn 0.8668 -0.4978 -0.0300
vn -0.7106 -0.7017 -0.0513
vn 0.2275 -0.9723 -0.0547
vn -0.9881 -0.1445 -0.0521
vn -0.7228 0.6902 -0.0330
vn -0.4230 0.9045 -0.0543
vn 0.2669 0.9622 -0.0533
vn 0.7831 0.6186 -0.0634
vn 0.9998 0.0160 -0.0105
vn 0.3583 -0.9334 -0.0185
vn -0.4442 -0.8956 -0.0242
vn -0.8990 -0.4356 -0.0450
vn -0.9994 0.0166 -0.0292
vn -0.8654 0.4988 -0.0478
vn -0.3207 0.9465 -0.0361
vn -0.3302 0.0703 0.9413
vn -0.0028 0.9937 -0.1124
vn -0.1918 -0.9708 -0.1439
vn -0.3329 -0.2366 -0.9128
vn 0.2082 0.9722 -0.1067
vn -0.5058 -0.8357 0.2142
vn 0.5229 0.1509 0.8389
vn -0.1633 0.9864 0.0167
vn -0.0203 -0.9938 -0.1095
vn 0.6782 0.2749 -0.6815
vn -0.7735 -0.3068 0.5546
vn -0.8522 -0.2734 0.4460
vn 0.6146 0.7856 0.0712
vn -0.7301 0.6833 0.0059
vn -0.8221 -0.5685 0.0320
vn -0.3058 -0.9520 0.0109
vn 0.3499 -0.9360 -0.0370
vn 0.6113 -0.7911 -0.0228
vn 0.9928 0.1112 -0.0454
vn 0.5473 0.8348 -0.0599
vn -0.1991 0.9792 -0.0395
vn -0.6649 0.7303 0.1566
vn 0.9788 0.0747 0.1906
vn -0.3123 0.9436 0.1097
vn 0.2157 0.1631 0.9627
vn 0.6946 0.2623 0.6698
vn -0.1818 -0.1996 0.9629
vn 0.0359 -0.7390 0.6727
vn 0.0003 -0.0001 1.0000
vn 0.7942 0.5782 0.1870
vn -0.9543 -0.0855 0.2863
vn 0.2846 0.9549 0.0850
vn 0.7818 -0.5432 0.3063
vn -0.6541 -0.6976 0.2923
vt 0.306118 0.073340
vt 0.307352 0.072014
vt 0.307378 0.073572
vt 0.307799 0.072400
vt 0.307941 0.073487
vt 0.315054 0.075845
vt 0.315817 0.077228
vt 0.314808 0.076934
vt 0.316820 0.075390
vt 0.316815 0.077165
vt 0.308500 0.074788
vt 0.309364 0.073054
vt 0.309356 0.074838
vt 0.310195 0.073109
vt 0.310152 0.074805
vt 0.310806 0.073072
vt 0.310831 0.075080
vt 0.312584 0.091924
vt 0.313743 0.090254
vt 0.314036 0.091387
vt 0.314335 0.091369
vt 0.305593 0.071954
vt 0.305573 0.073446
vt 0.312639 0.070805
vt 0.313073 0.070643
vt 0.313068 0.070806
vt 0.306316 0.071578
vt 0.306263 0.072029
vt 0.315126 0.075300
vt 0.314582 0.075455
vt 0.314622 0.074973
vt 0.315896 0.075302
vt 0.315249 0.091998
vt 0.315022 0.091692
vt 0.315326 0.091619
vt 0.308573 0.072670
vt 0.308530 0.073012
vt 0.310208 0.072626
vt 0.309396 0.072621
vt 0.313675 0.089726
vt 0.312717 0.089918
vt 0.312711 0.089479
vt 0.314517 0.089876
vt 0.305645 0.071522
vt 0.318012 0.070758
vt 0.318447 0.070519
vt 0.318440 0.070761
vt 0.318430 0.071002
vt 0.318002 0.071005
vt 0.317778 0.085598
vt 0.317221 0.085511
vt 0.317967 0.085441
vt 0.318504 0.085690
vt 0.318743 0.085583
vt 0.318911 0.085926
vt 0.319155 0.085904
vt 0.319059 0.086277
vt 0.318757 0.086253
vt 0.318563 0.086561
vt 0.318444 0.086456
vt 0.317629 0.086587
vt 0.317685 0.086477
vt 0.317008 0.086425
vt 0.317242 0.086330
vt 0.316919 0.086128
vt 0.316684 0.086157
vt 0.316922 0.085838
vt 0.316684 0.085798
vt 0.317385 0.085639
vt 0.337522 0.187812
vt 0.335850 0.188127
vt 0.336992 0.187649
vt 0.336533 0.188540
vt 0.336062 0.188453
vt 0.337663 0.188310
vt 0.337263 0.188540
vt 0.336059 0.187902
vt 0.336405 0.187716
vt 0.318019 0.070510
vt 0.318447 0.070318
vt 0.314434 0.073123
vt 0.314015 0.073407
vt 0.314005 0.073128
vt 0.313073 0.071097
vt 0.312343 0.071104
vt 0.314444 0.073409
vt 0.314005 0.073701
vt 0.304996 0.081692
vt 0.304568 0.081970
vt 0.304568 0.081705
vt 0.305000 0.082193
vt 0.305296 0.081961
vt 0.305015 0.082477
vt 0.304572 0.082194
vt 0.306469 0.070292
vt 0.305791 0.070291
vt 0.313482 0.088220
vt 0.314447 0.089444
vt 0.312694 0.088230
vt 0.310831 0.071385
vt 0.310245 0.071252
vt 0.309488 0.071387
vt 0.308710 0.071372
vt 0.316657 0.073750
vt 0.315943 0.074984
vt 0.315985 0.073753
vt 0.315330 0.073749
vt 0.314738 0.073600
vt 0.307340 0.071533
vt 0.307913 0.073276
vt 0.307149 0.073456
vt 0.307263 0.073150
vt 0.324850 0.076943
vt 0.324269 0.076684
vt 0.324939 0.076600
vt 0.307701 0.072857
vt 0.314660 0.092140
vt 0.315378 0.092326
vt 0.314660 0.092546
vt 0.306546 0.072910
vt 0.306046 0.073034
vt 0.305970 0.072965
vt 0.324652 0.076964
vt 0.324628 0.077315
vt 0.324432 0.077287
vt 0.306909 0.072875
vt 0.307731 0.072751
vt 0.307472 0.072894
vt 0.305484 0.074117
vt 0.305805 0.074513
vt 0.305707 0.074520
vt 0.307239 0.072663
vt 0.307661 0.072459
vt 0.307545 0.072726
vt 0.305494 0.073855
vt 0.305747 0.074099
vt 0.324632 0.077483
vt 0.324488 0.077726
vt 0.324454 0.077457
vt 0.325313 0.077503
vt 0.325160 0.077574
vt 0.307137 0.072825
vt 0.306636 0.072991
vt 0.325720 0.077783
vt 0.306304 0.072591
vt 0.313635 0.073753
vt 0.313434 0.073479
vt 0.313635 0.073494
vt 0.325380 0.075480
vt 0.325595 0.075255
vt 0.325691 0.075480
vt 0.319915 0.077039
vt 0.319837 0.077067
vt 0.319837 0.077032
vt 0.306490 0.075975
vt 0.306571 0.076255
vt 0.306490 0.076258
vt 0.309565 0.075966
vt 0.309745 0.076227
vt 0.309670 0.076224
vt 0.306186 0.072676
vt 0.305661 0.072448
vt 0.321166 0.077077
vt 0.321115 0.077032
vt 0.321164 0.077032
vt 0.324639 0.077748
vt 0.324269 0.078171
vt 0.305096 0.073203
vt 0.307870 0.072033
vt 0.307966 0.072053
vt 0.306403 0.074460
vt 0.305496 0.074459
vt 0.307413 0.074467
vt 0.307941 0.074568
vt 0.314973 0.078014
vt 0.315772 0.078019
vt 0.316820 0.077917
vt 0.308536 0.075543
vt 0.309437 0.075557
vt 0.310069 0.075560
vt 0.310821 0.075557
vt 0.314036 0.092384
vt 0.312671 0.092401
vt 0.314517 0.092381
vt 0.320536 0.074434
vt 0.320912 0.074185
vt 0.320967 0.074444
vt 0.313282 0.070658
vt 0.312841 0.071037
vt 0.312859 0.070703
vt 0.306923 0.071014
vt 0.306499 0.071316
vt 0.306495 0.071051
vt 0.320591 0.074671
vt 0.321016 0.074655
vt 0.311443 0.086910
vt 0.312408 0.086917
vt 0.312282 0.087008
vt 0.312905 0.087185
vt 0.312679 0.087229
vt 0.312746 0.087531
vt 0.312972 0.087556
vt 0.312216 0.087928
vt 0.312358 0.088014
vt 0.311417 0.088028
vt 0.311441 0.088178
vt 0.310816 0.088108
vt 0.310907 0.087971
vt 0.310089 0.087851
vt 0.310305 0.087758
vt 0.310089 0.087216
vt 0.310313 0.087255
vt 0.310470 0.087023
vt 0.310608 0.087106
vt 0.311416 0.086801
vt 0.321491 0.164077
vt 0.320762 0.163217
vt 0.321507 0.163041
vt 0.322188 0.163953
vt 0.322256 0.163129
vt 0.322658 0.163599
vt 0.321035 0.164027
vt 0.320498 0.163350
vt 0.307127 0.071743
vt 0.307189 0.071310
vt 0.313262 0.071032
vt 0.312845 0.071384
vt 0.316388 0.078406
vt 0.316818 0.077925
vt 0.316808 0.078410
vt 0.321094 0.074962
vt 0.320474 0.075032
vt 0.313266 0.071421
vt 0.312859 0.071555
vt 0.316388 0.077743
vt 0.316398 0.077905
vt 0.312644 0.070636
vt 0.310813 0.072634
vt 0.337692 0.187972
vt 0.317719 0.070303
vt 0.314434 0.073709
vt 0.304586 0.082472
vt 0.314247 0.088214
vt 0.316777 0.075048
vt 0.307305 0.070160
vt 0.307966 0.073670
vt 0.307008 0.072963
vt 0.307401 0.072406
vt 0.305805 0.073834
vt 0.325783 0.077754
vt 0.313292 0.073760
vt 0.325412 0.075273
vt 0.319915 0.077078
vt 0.306686 0.075966
vt 0.309745 0.075973
vt 0.305612 0.072483
vt 0.321113 0.077080
vt 0.324325 0.078179
vt 0.305124 0.073229
vt 0.320474 0.074144
vt 0.322609 0.163326
vt 0.320498 0.163837
vt 0.306495 0.071703
vt 0.313282 0.071613
vt 0.316809 0.077780
s 0
g log_3_Material
usemtl Material
f 21/1/1 1/2/1 22/3/1
f 22/3/2 3/4/2 23/5/2
f 3/6/3 24/7/3 23/8/3
f 24/7/4 61/9/4 25/10/4
f 25/11/5 6/12/5 26/13/5
f 26/13/6 7/14/6 27/15/6
f 27/15/7 8/16/7 28/17/7
f 28/18/8 9/19/8 29/20/8
f 9/19/9 30/21/9 29/20/9
f 10/22/10 21/1/10 30/23/10
f 20/24/11 43/25/11 41/26/11
f 60/27/12 1/2/12 2/28/12
f 52/29/13 1/30/13 51/31/13
f 52/29/14 62/32/14 3/6/14
f 53/33/15 68/34/15 67/35/15
f 64/36/16 6/12/16 61/37/16
f 56/38/17 6/12/17 55/39/17
f 56/38/18 8/16/18 7/14/18
f 58/40/19 8/41/19 57/42/19
f 58/40/20 10/43/20 9/19/20
f 60/27/21 10/22/21 59/44/21
f 13/45/22 50/46/22 49/47/22
f 13/45/23 46/48/23 14/49/23
f 19/50/24 31/51/24 32/52/24
f 18/53/24 32/52/24 33/54/24
f 17/55/24 33/54/24 34/56/24
f 17/55/25 35/57/25 16/58/25
f 16/58/26 36/59/26 15/60/26
f 15/60/24 37/61/24 14/62/24
f 14/62/24 38/63/24 13/64/24
f 12/65/24 38/63/24 39/66/24
f 11/67/27 39/66/27 40/68/27
f 11/67/28 31/51/28 20/69/28
f 41/70/24 46/71/24 45/72/24
f 41/70/24 44/73/24 42/74/24
f 44/73/24 47/75/24 48/76/24
f 45/72/24 49/77/24 50/78/24
f 12/79/29 45/80/29 50/46/29
f 19/81/30 47/82/30 43/83/30
f 20/24/31 45/84/31 11/85/31
f 18/86/32 48/87/32 47/82/32
f 17/88/33 44/89/33 48/90/33
f 15/91/34 44/89/34 16/92/34
f 14/93/35 42/94/35 15/91/35
f 31/95/36 59/44/36 32/96/36
f 33/97/37 59/98/37 58/40/37
f 33/97/38 57/42/38 34/99/38
f 34/100/39 56/38/39 35/101/39
f 36/102/17 56/38/17 55/39/17
f 37/103/40 55/39/40 64/36/40
f 37/104/41 63/105/41 38/106/41
f 39/107/42 63/105/42 52/29/42
f 39/107/43 51/31/43 40/108/43
f 31/95/44 51/109/44 60/27/44
f 5/110/45 62/111/45 4/112/45
f 53/113/46 62/114/46 63/115/46
f 5/116/47 64/36/47 61/37/47
f 54/117/48 63/118/48 64/119/48
f 74/120/49 69/121/49 72/122/49
f 4/123/50 67/124/50 66/125/50
f 5/116/51 68/126/51 54/127/51
f 4/112/52 65/128/52 5/110/52
f 71/129/53 88/130/53 87/131/53
f 75/132/54 69/133/54 73/134/54
f 76/135/55 72/136/55 71/129/55
f 76/137/56 70/138/56 75/139/56
f 67/124/56 75/139/56 66/125/56
f 76/137/57 78/140/57 80/141/57
f 66/142/54 73/134/54 65/128/54
f 68/126/49 73/143/49 74/120/49
f 78/140/58 84/144/58 80/141/58
f 74/120/59 77/145/59 68/126/59
f 67/146/60 77/147/60 78/148/60
f 76/149/61 79/150/61 74/151/61
f 82/152/62 83/153/62 84/154/62
f 78/155/63 81/156/63 82/157/63
f 79/158/64 84/159/64 83/160/64
f 79/161/65 81/162/65 77/145/65
f 88/163/66 86/164/66 87/165/66
f 71/166/67 86/167/67 70/138/67
f 69/121/68 88/168/68 72/122/68
f 69/133/69 86/169/69 85/170/69
f 30/23/70 99/171/70 108/172/70
f 100/173/71 23/5/71 101/174/71
f 101/175/72 24/7/72 102/176/72
f 24/7/73 103/177/73 102/176/73
f 103/178/74 26/13/74 104/179/74
f 26/13/75 105/180/75 104/179/75
f 105/180/76 28/17/76 106/181/76
f 28/18/77 107/182/77 106/183/77
f 29/20/78 108/184/78 107/182/78
f 99/171/79 22/3/79 100/173/79
f 95/185/80 117/186/80 113/187/80
f 98/188/81 110/189/81 114/190/81
f 91/191/82 116/192/82 115/193/82
f 94/194/83 113/187/83 109/195/83
f 89/196/84 100/197/84 90/198/84
f 90/198/85 101/199/85 91/200/85
f 92/201/86 101/199/86 102/202/86
f 93/203/87 102/202/87 103/204/87
f 94/205/88 103/204/88 104/206/88
f 94/205/89 105/207/89 95/208/89
f 95/208/90 106/209/90 96/210/90
f 96/210/91 107/211/91 97/212/91
f 97/212/92 108/213/92 98/214/92
f 89/196/93 108/213/93 99/215/93
f 109/216/84 114/217/84 110/218/84
f 110/218/88 111/219/88 109/216/88
f 112/220/88 116/221/88 111/219/88
f 113/222/94 118/223/94 114/217/94
f 93/224/95 116/192/95 92/225/95
f 89/226/96 112/227/96 110/189/96
f 96/228/97 118/229/97 117/230/97
f 94/194/98 111/231/98 93/232/98
f 90/233/99 115/234/99 112/227/99
f 98/235/100 118/229/100 97/236/100
f 21/1/101 2/28/101 1/2/101
f 22/3/102 1/2/102 3/4/102
f 3/6/103 62/32/103 24/7/103
f 24/7/104 62/32/104 61/9/104
f 25/11/105 61/37/105 6/12/105
f 26/13/106 6/12/106 7/14/106
f 27/15/107 7/14/107 8/16/107
f 28/18/108 8/41/108 9/19/108
f 9/19/109 10/43/109 30/21/109
f 10/22/110 2/28/110 21/1/110
f 20/24/111 19/237/111 43/25/111
f 60/27/112 51/109/112 1/2/112
f 52/29/113 3/6/113 1/30/113
f 52/29/114 63/105/114 62/32/114
f 53/33/115 54/117/115 68/34/115
f 64/36/116 55/39/116 6/12/116
f 56/38/117 7/14/117 6/12/117
f 56/38/118 57/238/118 8/16/118
f 58/40/119 9/19/119 8/41/119
f 58/40/120 59/98/120 10/43/120
f 60/27/121 2/28/121 10/22/121
f 13/45/122 12/79/122 50/46/122
f 13/45/123 49/47/123 46/48/123
f 19/50/24 20/69/24 31/51/24
f 18/53/24 19/50/24 32/52/24
f 17/55/24 18/53/24 33/54/24
f 17/55/124 34/56/124 35/57/124
f 16/58/125 35/57/125 36/59/125
f 15/60/24 36/59/24 37/61/24
f 14/62/24 37/61/24 38/63/24
f 12/65/24 13/64/24 38/63/24
f 11/67/126 12/65/126 39/66/126
f 11/67/127 40/68/127 31/51/127
f 41/70/24 42/74/24 46/71/24
f 41/70/24 43/239/24 44/73/24
f 44/73/24 43/239/24 47/75/24
f 45/72/24 46/71/24 49/77/24
f 12/79/128 11/240/128 45/80/128
f 19/81/129 18/86/129 47/82/129
f 20/24/130 41/26/130 45/84/130
f 18/86/131 17/241/131 48/87/131
f 17/88/132 16/92/132 44/89/132
f 15/91/133 42/94/133 44/89/133
f 14/93/35 46/242/35 42/94/35
f 31/95/134 60/27/134 59/44/134
f 33/97/135 32/243/135 59/98/135
f 33/97/136 58/40/136 57/42/136
f 34/100/118 57/238/118 56/38/118
f 36/102/137 35/101/137 56/38/137
f 37/103/138 36/102/138 55/39/138
f 37/104/139 64/244/139 63/105/139
f 39/107/140 38/106/140 63/105/140
f 39/107/141 52/29/141 51/31/141
f 31/95/142 40/245/142 51/109/142
f 5/110/143 61/246/143 62/111/143
f 53/113/144 4/123/144 62/114/144
f 5/116/145 54/127/145 64/36/145
f 54/117/146 53/33/146 63/118/146
f 74/120/49 73/143/49 69/121/49
f 4/123/147 53/113/147 67/124/147
f 5/116/148 65/247/148 68/126/148
f 4/112/149 66/142/149 65/128/149
f 71/129/53 72/136/53 88/130/53
f 75/132/54 70/248/54 69/133/54
f 76/135/55 74/249/55 72/136/55
f 76/137/56 71/166/56 70/138/56
f 67/124/56 76/137/56 75/139/56
f 76/137/150 67/124/150 78/140/150
f 66/142/54 75/132/54 73/134/54
f 68/126/49 65/247/49 73/143/49
f 78/140/58 82/250/58 84/144/58
f 74/120/151 79/161/151 77/145/151
f 67/146/152 68/251/152 77/147/152
f 76/149/153 80/252/153 79/150/153
f 82/152/62 81/253/62 83/153/62
f 78/155/63 77/254/63 81/156/63
f 79/158/64 80/255/64 84/159/64
f 79/161/65 83/256/65 81/162/65
f 88/163/154 85/257/154 86/164/154
f 71/166/67 87/258/67 86/167/67
f 69/121/68 85/259/68 88/168/68
f 69/133/69 70/248/69 86/169/69
f 30/23/155 21/1/155 99/171/155
f 100/173/156 22/3/156 23/5/156
f 101/175/72 23/8/72 24/7/72
f 24/7/157 25/10/157 103/177/157
f 103/178/158 25/11/158 26/13/158
f 26/13/159 27/15/159 105/180/159
f 105/180/160 27/15/160 28/17/160
f 28/18/161 29/20/161 107/182/161
f 29/20/162 30/21/162 108/184/162
f 99/171/163 21/1/163 22/3/163
f 95/185/164 96/260/164 117/186/164
f 98/188/81 89/226/81 110/189/81
f 91/191/165 92/225/165 116/192/165
f 94/194/166 95/185/166 113/187/166
f 89/196/93 99/215/93 100/197/93
f 90/198/167 100/197/167 101/199/167
f 92/201/168 91/200/168 101/199/168
f 93/203/169 92/201/169 102/202/169
f 94/205/170 93/203/170 103/204/170
f 94/205/88 104/206/88 105/207/88
f 95/208/90 105/207/90 106/209/90
f 96/210/91 106/209/91 107/211/91
f 97/212/92 107/211/92 108/213/92
f 89/196/93 98/214/93 108/213/93
f 109/216/90 113/222/90 114/217/90
f 110/218/93 112/220/93 111/219/93
f 112/220/171 115/261/171 116/221/171
f 113/222/89 117/262/89 118/223/89
f 93/224/172 111/263/172 116/192/172
f 89/226/96 90/233/96 112/227/96
f 96/228/173 97/236/173 118/229/173
f 94/194/174 109/195/174 111/231/174
f 90/233/175 91/264/175 115/234/175
f 98/235/176 114/265/176 118/229/176
