# Blender 4.2.0
# www.blender.org
mtllib log_9.mtl
g log_9_Mesh
v -0.016654 0.013784 -0.223037
v 0.005371 0.026134 -0.285344
v -0.025856 0.001677 -0.221370
v -0.029257 -0.014835 -0.247257
v -0.014409 -0.036083 -0.243933
v -0.004814 -0.042346 -0.169351
v 0.018408 -0.036079 -0.242045
v 0.025011 -0.021234 -0.243533
v 0.025180 -0.008891 -0.225544
v 0.011144 0.024569 -0.286656
v -0.017048 0.007770 -0.372080
v -0.029009 -0.004603 -0.372080
v -0.029926 -0.017271 -0.378258
v -0.022163 -0.028375 -0.372080
v -0.003388 -0.036102 -0.372080
v 0.009466 -0.027256 -0.377483
v 0.016142 -0.018560 -0.372080
v 0.018922 -0.003722 -0.372080
v 0.009245 0.008528 -0.372080
v -0.004017 0.011334 -0.372080
v -0.029774 0.017374 0.312168
v -0.042624 0.006048 0.295016
v -0.042624 -0.016510 0.242765
v -0.025370 -0.036277 0.295940
v -0.013446 -0.042608 0.301932
v 0.007472 -0.036277 0.313718
v 0.021373 -0.025917 0.253304
v 0.016618 0.006377 0.282044
v -0.004076 0.018613 -0.372080
v 0.012476 0.013144 -0.372080
v 0.024300 -0.001825 -0.372080
v 0.024479 -0.020370 -0.372080
v 0.012833 -0.035538 -0.377483
v -0.003644 -0.041999 -0.372080
v -0.026004 -0.032494 -0.372080
v -0.033174 -0.018124 -0.378258
v -0.031973 -0.003164 -0.372080
v -0.025492 0.012178 -0.372080
v -0.004027 0.010781 -0.362293
v -0.003412 -0.035526 -0.362293
v 0.008930 0.008076 -0.362293
v 0.009146 -0.026795 -0.362293
v -0.016722 0.007335 -0.362293
v -0.021827 -0.027977 -0.362293
v 0.018384 -0.003892 -0.362293
v 0.015601 -0.018388 -0.362293
v -0.028351 -0.016850 -0.362293
v -0.028150 -0.004752 -0.362293
v -0.034691 0.016326 0.185054
v -0.035498 0.004771 0.210585
v -0.037435 -0.016020 0.212948
v -0.020884 -0.036220 0.226088
v -0.002353 -0.042532 0.139493
v 0.005166 -0.036219 0.204093
v 0.014093 -0.024549 0.213022
v 0.011952 -0.009521 0.124549
v -0.003237 0.017874 0.153229
v 0.010307 0.009948 0.283552
v -0.001696 0.023622 0.269229
v -0.021914 0.023170 0.120776
v -0.000119 0.018265 0.478890
v -0.024129 0.008229 0.474404
v -0.031466 0.000227 0.474407
v -0.031131 -0.013915 0.474406
v -0.016310 -0.032081 0.474404
v 0.000441 -0.037319 0.478889
v 0.007274 -0.030708 0.474403
v 0.018693 -0.019445 0.474408
v 0.019883 0.003483 0.474407
v 0.012972 0.009704 0.474409
v 0.000389 0.023795 0.478890
v -0.027016 0.012340 0.474404
v -0.036418 0.002086 0.474408
v -0.035996 -0.015713 0.474407
v -0.019180 -0.036324 0.474404
v 0.000581 -0.042504 0.478889
v 0.012463 -0.038068 0.474403
v 0.026192 -0.024526 0.474408
v 0.024682 0.005765 0.474407
v 0.015974 0.013604 0.474409
v 0.000133 -0.035369 0.465061
v -0.000387 0.016250 0.465062
v 0.008792 -0.032136 0.465061
v 0.011771 0.008300 0.465066
v -0.015424 -0.030504 0.465062
v -0.022686 0.006930 0.465062
v -0.029501 -0.000501 0.465065
v -0.029189 -0.013635 0.465064
v 0.019395 -0.021677 0.465066
v 0.018188 0.002523 0.465065
v 0.000405 0.022193 0.029771
v -0.023412 0.015055 0.019818
v -0.033905 0.003224 0.042910
v -0.038189 -0.015427 0.031470
v -0.022489 -0.036152 0.025367
v -0.008138 -0.042439 -0.040320
v 0.012963 -0.036149 -0.025650
v 0.025363 -0.022891 0.024523
v 0.023533 -0.007703 -0.018985
v 0.024130 0.026141 0.011769
v -0.023449 0.015209 0.041009
v -0.034098 0.003412 0.063223
v -0.038097 -0.015499 0.053456
v -0.022295 -0.036160 0.049684
v -0.008950 -0.042450 0.093127
v 0.012984 -0.036157 0.056701
v 0.025484 -0.023092 0.048454
v 0.023459 0.003461 0.061276
v 0.024272 0.026075 0.022521
v 0.000589 0.022311 0.043411
v -0.012598 0.016907 -0.297664
v -0.034068 -0.005619 -0.299031
v -0.036058 -0.016479 -0.313726
v -0.025049 -0.034289 -0.308975
v -0.004229 -0.042173 -0.328516
v 0.005776 -0.035808 -0.309764
v 0.023399 -0.016092 -0.281789
v 0.020990 -0.000141 -0.300734
v 0.008810 0.040282 -0.285770
v 0.009470 0.040076 -0.285728
v 0.009845 0.032380 -0.288883
v 0.011915 0.031819 -0.289353
v 0.007318 0.039520 -0.283693
v 0.011053 0.036604 0.033104
v 0.010968 0.036549 0.021365
v 0.019724 0.032384 0.011851
v 0.019773 0.032341 0.021395
v 0.009159 0.038946 -0.283573
v 0.024284 0.052680 0.032654
v 0.024055 0.054556 0.029985
v 0.026249 0.055156 0.027137
v 0.026483 0.053046 0.030019
v 0.015694 0.050743 -0.304336
v 0.014989 0.050059 -0.306201
v 0.014828 0.049748 -0.309907
v 0.015454 0.050533 -0.308328
v 0.015205 0.014493 0.013703
v 0.015294 0.014191 0.036450
v 0.017841 0.032973 0.013903
v 0.017882 0.032833 0.033702
v 0.032611 0.033513 0.004771
v 0.033266 0.035017 0.011021
v 0.029679 0.037006 0.004229
v 0.030214 0.038347 0.009779
v -0.001116 0.021216 -0.281912
v 0.014466 0.016993 -0.285455
v -0.002596 0.019914 -0.306557
v 0.013471 0.015069 -0.308328
v 0.009486 0.036015 -0.290298
v 0.016293 0.034171 -0.291845
v 0.008840 0.035447 -0.301063
v 0.015858 0.033330 -0.301837
v 0.008404 0.048352 -0.283570
v 0.009074 0.048695 -0.284504
v 0.009231 0.048094 -0.283516
v 0.009371 0.048602 -0.284485
v -0.003348 0.024256 -0.137763
v -0.004683 0.016585 -0.111449
v -0.026337 0.004646 -0.106552
v -0.031463 -0.015131 -0.109507
v -0.016189 -0.036117 -0.110897
v -0.003742 -0.042393 -0.071888
v 0.016007 -0.036114 -0.104100
v 0.031967 -0.022062 -0.110151
v 0.029779 0.004280 -0.090591
v 0.025265 0.008305 -0.134739
v 0.005192 0.023708 0.372445
v -0.025490 0.014857 0.391672
v 0.010235 0.011776 0.334611
v -0.036615 0.004067 0.383098
v -0.042215 -0.016112 0.360200
v -0.012942 -0.036300 0.395070
v 0.000912 -0.042556 0.359648
v 0.007062 -0.037172 0.358854
v 0.026688 -0.025222 0.362242
v 0.022406 -0.005068 0.348790
vn -0.8916 0.4449 0.0845
vn -0.4869 0.8731 -0.0246
vn -0.9676 0.2523 -0.0106
vn -0.8088 -0.5879 -0.0110
vn -0.4618 -0.8870 0.0047
vn 0.2975 -0.9547 -0.0037
vn 0.6632 -0.7484 0.0114
vn 0.9922 0.1159 -0.0451
vn 0.9386 0.3389 -0.0651
vn 0.4878 0.8729 -0.0109
vn -0.2041 -0.9774 -0.0554
vn -0.3133 0.9491 -0.0313
vn -0.7972 0.6034 -0.0181
vn -0.9938 0.0469 0.1007
vn -0.8581 -0.5037 0.1003
vn -0.3308 -0.9433 0.0281
vn 0.2603 -0.9655 -0.0001
vn 0.8371 -0.5237 -0.1582
vn 0.9985 0.0399 -0.0367
vn 0.9316 0.3633 -0.0096
vn -0.8081 0.5888 0.0174
vn 0.9949 -0.0245 -0.0975
vn 0.8616 0.5051 -0.0500
vn -0.0000 -0.0000 -1.0000
vn 0.2883 0.1172 -0.9503
vn -0.3164 0.0137 -0.9485
vn 0.1110 -0.4228 -0.8994
vn 0.1765 0.3636 -0.9147
vn 0.7170 -0.6931 -0.0735
vn -0.7836 -0.6190 -0.0538
vn 0.2635 -0.9633 -0.0516
vn -0.9816 0.1839 -0.0508
vn -0.7920 0.6080 -0.0545
vn -0.5770 0.8159 -0.0369
vn 0.3801 0.9234 -0.0534
vn 0.4927 0.8702 0.0017
vn 0.9455 0.2827 -0.1613
vn 0.5627 -0.8266 -0.0123
vn 0.2931 -0.9560 -0.0067
vn -0.4569 -0.8890 -0.0301
vn -0.6897 -0.7227 -0.0449
vn -0.9765 0.1978 -0.0854
vn -0.6109 0.7892 -0.0635
vn -0.2167 0.9762 0.0003
vn 0.7721 0.6341 -0.0417
vn 0.8425 0.5357 -0.0567
vn -0.7186 0.6928 0.0607
vn -0.9790 0.1910 0.0711
vn -0.6277 -0.7745 0.0785
vn -0.3237 -0.9453 0.0404
vn 0.6580 -0.7530 -0.0090
vn 0.5216 -0.8531 -0.0122
vn 0.9831 0.1761 -0.0491
vn 0.7960 0.6043 0.0346
vn -0.2513 0.9669 0.0442
vn -0.9968 -0.0497 -0.0631
vn 0.3621 -0.9234 0.1275
vn 0.7626 0.6222 0.1771
vn -0.6854 0.6949 -0.2176
vn -0.1422 -0.1000 0.9848
vn 0.0003 0.0001 1.0000
vn 0.0002 -0.0000 1.0000
vn 0.0001 -0.0000 1.0000
vn -0.2231 -0.0061 0.9748
vn 0.3522 0.2483 0.9024
vn -0.0002 -0.0002 1.0000
vn -0.0002 0.0001 1.0000
vn 0.0001 -0.0003 1.0000
vn 0.2616 -0.0241 0.9649
vn -0.0004 -0.0000 1.0000
vn 0.2932 0.9378 0.1860
vn 0.7216 -0.6617 0.2035
vn -0.6563 -0.7291 0.1940
vn -0.6483 0.7518 0.1205
vn 0.9787 0.0232 0.2041
vn -0.5371 -0.8213 0.1925
vn -0.8046 0.5938 0.0031
vn 0.8640 0.4988 -0.0686
vn 0.9969 0.0781 -0.0044
vn 0.7195 -0.6944 -0.0095
vn 0.2782 -0.9605 0.0016
vn -0.4348 -0.9005 0.0032
vn -0.7942 -0.6077 0.0013
vn -0.9771 0.2124 -0.0112
vn -0.7545 0.6562 -0.0132
vn -0.2829 0.9591 -0.0045
vn -0.6861 0.7251 -0.0592
vn -0.9988 0.0478 -0.0099
vn -0.9957 0.0916 -0.0103
vn -0.7754 -0.6314 0.0060
vn -0.2050 -0.9784 0.0274
vn 0.5010 -0.8650 0.0262
vn 0.7753 -0.6298 0.0481
vn 0.8632 0.5008 0.0642
vn 0.9329 0.2796 0.2270
vn 0.2563 0.9665 0.0102
vn 0.3135 0.9490 -0.0335
vn 0.8899 0.4552 0.0305
vn 0.9880 0.1545 0.0045
vn 0.7770 -0.6246 0.0785
vn 0.3654 -0.9308 0.0012
vn -0.3711 -0.9284 -0.0208
vn -0.8895 -0.4560 -0.0281
vn -0.9780 0.2077 -0.0211
vn -0.7239 0.6850 0.0819
vn -0.2877 0.9576 -0.0125
vn 0.9981 0.0396 -0.0468
vn -0.0494 0.0685 0.9964
vn 0.9221 0.0449 0.3843
vn -0.7049 0.1081 -0.7011
vn 0.9925 -0.1179 -0.0333
vn -0.0978 -0.1078 0.9894
vn 0.1896 0.4792 0.8570
vn -0.3374 -0.4143 -0.8453
vn 0.4569 0.7457 0.4850
vn -0.4439 0.5772 -0.6854
vn 0.9198 -0.3923 -0.0047
vn -0.8269 0.4243 0.3691
vn 0.7602 -0.6494 0.0216
vn -0.9095 0.4145 0.0327
vn 0.8567 -0.4960 -0.1416
vn -0.9410 0.0999 0.3234
vn 0.7925 -0.6097 -0.0142
vn 0.2894 0.9572 0.0062
vn -0.7071 -0.4924 -0.5076
vn 0.8560 -0.0429 0.5151
vn 0.7587 0.6109 -0.2264
vn 0.6962 -0.7177 -0.0136
vn 0.3985 0.6179 0.6777
vn -0.5111 0.8454 -0.1549
vn 0.2824 0.2698 0.9206
vn 0.2332 0.8470 0.4777
vn 0.3004 0.3716 0.8784
vn -0.8260 0.1092 -0.5530
vn 0.1973 0.3725 0.9068
vn -0.1085 0.3726 -0.9216
vn 0.3487 0.2940 0.8899
vn -0.8260 0.1095 -0.5529
vn -0.0028 0.3352 -0.9421
vn -0.0665 -0.0057 0.9978
vn 0.1090 0.1446 -0.9835
vn 0.9904 -0.0087 0.1383
vn 0.4620 0.8869 0.0006
vn 0.9742 0.1928 0.1173
vn 0.9653 0.2565 0.0489
vn 0.6739 -0.7382 0.0285
vn 0.2629 -0.9642 0.0352
vn -0.4866 -0.8733 -0.0227
vn -0.8021 -0.5959 -0.0395
vn -0.9670 0.2506 -0.0466
vn -0.7793 0.6258 -0.0335
vn -0.2761 0.9607 -0.0282
vn -0.3885 0.9212 0.0209
vn 0.6671 0.7411 -0.0760
vn 0.9988 0.0498 0.0041
vn 0.7022 -0.7119 0.0075
vn 0.3502 -0.9367 0.0014
vn -0.2936 -0.9557 -0.0234
vn -0.7734 -0.6310 -0.0610
vn -0.9997 -0.0237 0.0016
vn -0.7370 0.6758 0.0070
vn 0.5520 0.8335 0.0242
vn -0.5099 0.8598 -0.0260
vn -0.7896 0.6097 0.0694
vn -0.9744 0.2244 -0.0151
vn -0.8186 -0.5742 -0.0143
vn -0.5078 -0.8615 -0.0070
vn 0.2737 -0.9618 0.0045
vn 0.9107 -0.4101 -0.0500
vn 0.9968 0.0616 -0.0516
vn 0.9600 0.2748 -0.0529
vn 0.2691 0.9624 0.0362
vn -0.2067 -0.9770 -0.0518
vn -0.3735 0.9274 0.0185
vn -0.7242 0.6895 0.0118
vn -0.9939 0.0461 0.1006
vn -0.8225 -0.5561 0.1192
vn -0.5308 -0.8475 -0.0029
vn 0.6972 -0.7045 -0.1329
vn 0.9061 -0.4125 -0.0936
vn 0.9942 0.0978 -0.0440
vn 0.9082 0.4119 -0.0742
vn 0.9960 -0.0165 -0.0876
vn 0.8402 0.5335 -0.0970
vn 0.1015 0.4677 -0.8780
vn -0.3096 -0.1258 -0.9425
vn 0.2778 -0.2591 -0.9250
vn -0.1161 0.4422 -0.8894
vn 0.7256 -0.6860 -0.0546
vn 0.2615 -0.9637 -0.0542
vn -0.9804 0.1882 -0.0575
vn -0.7820 0.6223 -0.0353
vn -0.5701 0.8201 -0.0497
vn 0.3788 0.9241 -0.0506
vn 0.8340 0.5460 -0.0798
vn 0.9994 -0.0200 -0.0276
vn 0.8411 -0.5137 -0.1695
vn 0.4692 -0.8825 0.0316
vn -0.4495 -0.8928 -0.0311
vn -0.7208 -0.6795 -0.1366
vn -0.9828 0.0722 -0.1699
vn -0.9879 0.1507 0.0370
vn -0.3105 0.9497 0.0394
vn 0.3534 0.9341 -0.0510
vn 0.7627 0.6464 -0.0221
vn -0.7066 0.7047 0.0640
vn -1.0000 -0.0081 0.0035
vn -0.7598 -0.6502 0.0048
vn -0.5148 -0.8476 0.1288
vn 0.3305 -0.9403 -0.0814
vn 0.5376 -0.8430 -0.0208
vn 0.9802 0.1908 -0.0523
vn 0.4866 0.8731 -0.0306
vn -0.1990 0.9799 0.0125
vn -0.9836 0.0511 0.1732
vn 0.3790 -0.9068 0.1846
vn 0.7625 0.6222 0.1773
vn -0.6854 0.6949 -0.2175
vn -0.1677 0.0153 0.9857
vn -0.2135 0.1445 0.9662
vn 0.3501 0.0095 0.9367
vn -0.0003 -0.0002 1.0000
vn -0.0000 -0.0000 1.0000
vn -0.0000 -0.0003 1.0000
vn 0.2188 -0.1686 0.9611
vn -0.0000 -0.0001 1.0000
vn -0.0003 -0.0001 1.0000
vn 0.0004 -0.0000 1.0000
vn 0.2644 0.9558 0.1289
vn 0.7217 -0.6617 0.2034
vn -0.6564 -0.7291 0.1939
vn -0.3429 0.9186 -0.1962
vn -0.5099 -0.8498 0.1337
vn -0.8049 0.5934 0.0057
vn 0.9367 0.3500 0.0010
vn 0.9961 0.0877 -0.0113
vn 0.7308 -0.6826 -0.0003
vn 0.2858 -0.9583 -0.0002
vn -0.4112 -0.9116 -0.0026
vn -0.7962 -0.6050 0.0062
vn -0.9753 0.2210 0.0048
vn -0.7540 0.6569 -0.0061
vn -0.2842 0.9587 -0.0075
vn -0.2739 0.9575 -0.0903
vn -0.8002 0.5960 -0.0671
vn -0.9788 0.2045 0.0047
vn 0.2237 -0.9741 -0.0335
vn 0.7341 -0.6779 0.0387
vn 0.9842 -0.0104 0.1769
vn 0.6866 0.7219 0.0862
vn 0.5300 0.8355 0.1449
vn 0.2861 0.9579 -0.0255
vn 0.7843 0.6196 -0.0309
vn 0.9989 0.0096 0.0461
vn 0.7149 -0.6980 0.0416
vn 0.4736 -0.8795 0.0458
vn -0.3912 -0.9203 -0.0089
vn -0.8503 -0.5262 -0.0021
vn -0.9940 0.0992 -0.0469
vn -0.9211 0.3891 -0.0133
vn -0.2957 0.9552 -0.0095
vn 0.7644 -0.2145 0.6080
vn 0.9556 0.1808 0.2326
vn -0.7049 0.1081 -0.7010
vn 0.1702 -0.1841 0.9681
vn 0.4570 0.0673 0.8869
vn -0.4753 -0.3247 -0.8177
vn 0.4514 0.7372 0.5028
vn -0.6586 0.6555 -0.3694
vn 0.9469 -0.2179 -0.2364
vn -0.7721 0.6355 0.0027
vn 0.7031 -0.7111 -0.0047
vn 0.3315 0.6473 0.6863
vn -0.2062 -0.3497 -0.9139
vn 0.7915 -0.6111 -0.0112
vn 0.3012 0.9535 0.0028
vn -0.2725 0.0493 -0.9609
vn 0.7998 0.5921 0.0992
vn 0.7637 0.6069 -0.2202
vn 0.6976 -0.7098 0.0977
vn 0.4754 0.4745 0.7408
vn -0.4931 0.8699 0.0065
vn 0.1777 0.3807 -0.9075
vn -0.7568 0.1874 -0.6262
vn 0.1089 0.1446 -0.9835
vn 0.4872 0.8733 -0.0034
vn 0.6157 0.7880 0.0089
vn 0.9958 0.0162 0.0896
vn 0.6660 -0.7455 0.0255
vn 0.3207 -0.9471 0.0120
vn -0.3281 -0.9435 -0.0471
vn -0.8092 -0.5864 -0.0376
vn -0.9653 0.2570 -0.0455
vn -0.4923 0.8683 -0.0601
vn -0.9671 0.2532 0.0248
vn -0.2850 0.9584 -0.0136
vn 0.8260 0.5621 -0.0413
vn 0.9820 0.1861 -0.0338
vn 0.5237 -0.8513 -0.0311
vn 0.6556 -0.7543 -0.0365
vn -0.4131 -0.9107 -0.0007
vn -0.5955 -0.8026 0.0352
vn -0.9760 0.2114 0.0524
vn -0.7028 0.7112 0.0169
vn 0.8655 0.4991 -0.0421
vt 0.306431 0.075776
vt 0.307217 0.073998
vt 0.306728 0.076326
vt 0.307909 0.074035
vt 0.307780 0.076435
vt 0.308620 0.076373
vt 0.300617 0.070877
vt 0.301824 0.068065
vt 0.301757 0.070846
vt 0.302342 0.069625
vt 0.302379 0.071663
vt 0.289507 0.103831
vt 0.290466 0.105190
vt 0.289591 0.105869
vt 0.290489 0.102306
vt 0.291431 0.105059
vt 0.311532 0.077928
vt 0.312186 0.075515
vt 0.312416 0.078330
vt 0.312699 0.077408
vt 0.314008 0.074337
vt 0.314152 0.077351
vt 0.316651 0.073123
vt 0.316201 0.073378
vt 0.316205 0.073131
vt 0.307015 0.072436
vt 0.306521 0.072762
vt 0.306619 0.072247
vt 0.308433 0.072413
vt 0.308593 0.073493
vt 0.301394 0.066703
vt 0.300692 0.067998
vt 0.300497 0.066606
vt 0.302363 0.066297
vt 0.289457 0.100503
vt 0.291202 0.101473
vt 0.290005 0.100893
vt 0.312033 0.074342
vt 0.311814 0.075142
vt 0.312610 0.073942
vt 0.313355 0.074259
vt 0.305739 0.072359
vt 0.313432 0.087673
vt 0.313877 0.087861
vt 0.313151 0.087835
vt 0.313421 0.088114
vt 0.313866 0.088119
vt 0.312326 0.086409
vt 0.312512 0.086071
vt 0.312577 0.086434
vt 0.311985 0.086695
vt 0.312160 0.086783
vt 0.311386 0.086938
vt 0.311313 0.086762
vt 0.310816 0.086708
vt 0.310529 0.086840
vt 0.310231 0.086529
vt 0.309979 0.086572
vt 0.310220 0.086105
vt 0.309979 0.086064
vt 0.310438 0.085813
vt 0.310532 0.085869
vt 0.311095 0.085780
vt 0.311103 0.085711
vt 0.311861 0.085711
vt 0.311827 0.085909
vt 0.312208 0.086131
vt 0.336520 0.191745
vt 0.334614 0.191408
vt 0.334850 0.191155
vt 0.336564 0.191426
vt 0.335313 0.190978
vt 0.336446 0.191211
vt 0.335148 0.191912
vt 0.334722 0.191752
vt 0.308449 0.077294
vt 0.308894 0.077637
vt 0.308448 0.077650
vt 0.316647 0.073377
vt 0.316205 0.073688
vt 0.308448 0.077032
vt 0.308895 0.077294
vt 0.309133 0.069404
vt 0.308681 0.069139
vt 0.309128 0.069130
vt 0.308686 0.069629
vt 0.308686 0.069408
vt 0.309128 0.069948
vt 0.309379 0.069633
vt 0.313838 0.088509
vt 0.313391 0.088513
vt 0.312859 0.086124
vt 0.313903 0.083435
vt 0.313181 0.086157
vt 0.312001 0.084691
vt 0.311708 0.085531
vt 0.290216 0.111637
vt 0.291112 0.112661
vt 0.290350 0.113928
vt 0.289409 0.113687
vt 0.301583 0.077890
vt 0.302027 0.079476
vt 0.301422 0.079350
vt 0.300247 0.078239
vt 0.307935 0.083069
vt 0.308874 0.083742
vt 0.308071 0.084837
vt 0.307292 0.085192
vt 0.306262 0.084284
vt 0.307518 0.082536
vt 0.314009 0.085858
vt 0.313231 0.087224
vt 0.313763 0.088013
vt 0.307932 0.086676
vt 0.307226 0.086852
vt 0.308807 0.086197
vt 0.300247 0.080694
vt 0.301864 0.081425
vt 0.302538 0.080686
vt 0.289961 0.114890
vt 0.290332 0.114872
vt 0.291376 0.114938
vt 0.312300 0.087520
vt 0.311532 0.087806
vt 0.306019 0.086439
vt 0.320567 0.069108
vt 0.320906 0.068748
vt 0.320998 0.069115
vt 0.314412 0.072969
vt 0.313857 0.072499
vt 0.314475 0.072435
vt 0.304888 0.075387
vt 0.304554 0.074911
vt 0.304985 0.074904
vt 0.320637 0.069440
vt 0.321063 0.069424
vt 0.303723 0.084594
vt 0.304755 0.084289
vt 0.304793 0.084393
vt 0.305285 0.084404
vt 0.305385 0.084304
vt 0.305939 0.084575
vt 0.305725 0.084620
vt 0.306055 0.085129
vt 0.305827 0.085108
vt 0.305478 0.085430
vt 0.305638 0.085509
vt 0.305091 0.085619
vt 0.305024 0.085434
vt 0.304297 0.085434
vt 0.304217 0.085619
vt 0.303300 0.085146
vt 0.303527 0.085110
vt 0.303330 0.084902
vt 0.303551 0.084916
vt 0.303530 0.084520
vt 0.329989 0.168981
vt 0.328221 0.168502
vt 0.328359 0.168205
vt 0.330335 0.168680
vt 0.328932 0.169060
vt 0.328199 0.168682
vt 0.329374 0.168016
vt 0.330240 0.168227
vt 0.304394 0.075667
vt 0.304464 0.075360
vt 0.314040 0.073191
vt 0.313986 0.072985
vt 0.318382 0.070962
vt 0.318810 0.071140
vt 0.318383 0.071156
vt 0.321095 0.069592
vt 0.320474 0.069647
vt 0.304583 0.074721
vt 0.305016 0.074699
vt 0.318810 0.070657
vt 0.318810 0.070960
vt 0.306333 0.079277
vt 0.305517 0.079344
vt 0.305525 0.079099
vt 0.312243 0.079833
vt 0.313186 0.080988
vt 0.312577 0.081507
vt 0.311706 0.080746
vt 0.311691 0.081246
vt 0.290432 0.108553
vt 0.291232 0.107877
vt 0.291242 0.108377
vt 0.289444 0.106530
vt 0.289478 0.109320
vt 0.301529 0.073693
vt 0.302190 0.075111
vt 0.301536 0.074202
vt 0.300381 0.073823
vt 0.300386 0.074282
vt 0.308001 0.079563
vt 0.308772 0.079783
vt 0.307993 0.079988
vt 0.307276 0.079520
vt 0.306319 0.079562
vt 0.306926 0.081188
vt 0.308715 0.083116
vt 0.300420 0.077617
vt 0.302427 0.076082
vt 0.289738 0.110288
vt 0.290866 0.111821
vt 0.312552 0.082838
vt 0.314699 0.082762
vt 0.314042 0.072454
vt 0.313333 0.073781
vt 0.313318 0.072450
vt 0.312459 0.072450
vt 0.311880 0.072455
vt 0.291080 0.099585
vt 0.290237 0.099475
vt 0.289462 0.099592
vt 0.301311 0.065384
vt 0.300648 0.065257
vt 0.308311 0.070886
vt 0.308874 0.072106
vt 0.307586 0.070885
vt 0.306731 0.070877
vt 0.312591 0.074084
vt 0.313027 0.073906
vt 0.312761 0.074277
vt 0.310352 0.088137
vt 0.310497 0.087705
vt 0.310706 0.088129
vt 0.304326 0.076274
vt 0.304500 0.076105
vt 0.304500 0.076347
vt 0.323631 0.090727
vt 0.322784 0.090448
vt 0.323139 0.090409
vt 0.308376 0.073603
vt 0.308937 0.073283
vt 0.308937 0.073492
vt 0.320998 0.072896
vt 0.320982 0.072621
vt 0.321069 0.072619
vt 0.310862 0.088513
vt 0.323566 0.090424
vt 0.323426 0.090187
vt 0.323631 0.090197
vt 0.320100 0.072127
vt 0.320213 0.072099
vt 0.320213 0.072163
vt 0.304425 0.079216
vt 0.305449 0.078940
vt 0.304811 0.074965
vt 0.305546 0.074567
vt 0.305714 0.074965
vt 0.304567 0.079332
vt 0.304510 0.079276
vt 0.319722 0.077067
vt 0.319684 0.077110
vt 0.319684 0.077032
vt 0.305006 0.072290
vt 0.305022 0.072206
vt 0.313054 0.074263
vt 0.313054 0.073942
vt 0.311393 0.069462
vt 0.311152 0.069130
vt 0.311137 0.069151
vt 0.302343 0.086928
vt 0.301605 0.087017
vt 0.301984 0.086775
vt 0.318363 0.073322
vt 0.318413 0.073163
vt 0.318497 0.073575
vt 0.323225 0.090393
vt 0.318025 0.073362
vt 0.318025 0.073661
vt 0.315685 0.072060
vt 0.315892 0.072173
vt 0.315683 0.072190
vt 0.302356 0.086572
vt 0.312342 0.073765
vt 0.312093 0.073479
vt 0.312297 0.073488
vt 0.307413 0.073739
vt 0.307110 0.073542
vt 0.307331 0.073479
vt 0.320493 0.073035
vt 0.320721 0.072896
vt 0.304426 0.075982
vt 0.304376 0.075976
vt 0.304415 0.075966
vt 0.320760 0.072741
vt 0.320912 0.072667
vt 0.320860 0.072741
vt 0.314147 0.075396
vt 0.314084 0.075267
vt 0.314131 0.075255
vt 0.321239 0.073035
vt 0.313390 0.072402
vt 0.313426 0.072238
vt 0.313480 0.072421
vt 0.320586 0.072667
vt 0.314254 0.075517
vt 0.314042 0.075421
vt 0.311540 0.069849
vt 0.311058 0.069462
vt 0.321083 0.072436
vt 0.321122 0.072435
vt 0.313398 0.072232
vt 0.313480 0.072060
vt 0.304398 0.076106
vt 0.313203 0.080513
vt 0.313934 0.080852
vt 0.290392 0.106831
vt 0.302222 0.072322
vt 0.308780 0.079323
vt 0.307288 0.079077
vt 0.306121 0.088666
vt 0.307329 0.088582
vt 0.313072 0.090143
vt 0.312537 0.090142
vt 0.311551 0.090151
vt 0.290559 0.117287
vt 0.291431 0.117283
vt 0.290007 0.117383
vt 0.302521 0.083178
vt 0.301640 0.083082
vt 0.300455 0.083084
vt 0.308570 0.088582
vt 0.307963 0.088584
vt 0.313909 0.090240
vt 0.291137 0.102272
vt 0.305697 0.072584
vt 0.313877 0.087693
vt 0.335729 0.191949
vt 0.336008 0.190978
vt 0.316651 0.073695
vt 0.308894 0.077039
vt 0.308681 0.069938
vt 0.320474 0.068729
vt 0.329607 0.169060
vt 0.329831 0.168027
vt 0.305016 0.075726
vt 0.314470 0.073191
vt 0.318178 0.070636
vt 0.313930 0.081137
vt 0.314022 0.073823
vt 0.302380 0.065387
vt 0.308869 0.070755
vt 0.312964 0.073834
vt 0.310409 0.087673
vt 0.322865 0.090810
vt 0.308376 0.073123
vt 0.310081 0.088513
vt 0.320102 0.072057
vt 0.305415 0.074545
vt 0.319721 0.077150
vt 0.302356 0.087346
vt 0.318322 0.073123
vt 0.315892 0.072057
vt 0.302104 0.086504
vt 0.311990 0.073765
vt 0.307110 0.073883
vt 0.304380 0.075982
vt 0.314042 0.075664
vt 0.310773 0.069849
vt 0.313467 0.072057
s 0
g log_9_Material
usemtl Material
f 157/1/1 1/2/1 158/3/1
f 158/3/2 3/4/2 159/5/2
f 3/4/3 160/6/3 159/5/3
f 160/7/4 5/8/4 161/9/4
f 161/9/5 6/10/5 162/11/5
f 6/12/6 163/13/6 162/14/6
f 7/15/7 164/16/7 163/13/7
f 164/17/8 9/18/8 165/19/8
f 9/18/9 166/20/9 165/19/9
f 166/20/10 145/21/10 157/22/10
f 20/23/11 41/24/11 39/25/11
f 111/26/12 145/27/12 147/28/12
f 111/26/13 3/4/13 1/2/13
f 112/29/14 4/30/14 3/4/14
f 114/31/15 4/32/15 113/33/15
f 115/34/16 5/8/16 114/31/16
f 115/35/17 7/15/17 6/12/17
f 117/36/18 7/15/18 116/37/18
f 117/38/19 9/18/19 8/39/19
f 118/40/20 146/41/20 9/18/20
f 145/27/21 151/42/21 147/28/21
f 12/43/22 47/44/22 13/45/22
f 14/46/23 47/44/23 44/47/23
f 19/48/24 29/49/24 30/50/24
f 18/51/24 30/50/24 31/52/24
f 18/51/24 32/53/24 17/54/24
f 16/55/25 32/53/25 33/56/25
f 15/57/26 33/56/26 34/58/26
f 14/59/24 34/58/24 35/60/24
f 14/59/27 36/61/27 13/62/27
f 12/63/28 36/61/28 37/64/28
f 12/63/24 38/65/24 11/66/24
f 11/66/24 29/49/24 20/67/24
f 40/68/24 43/69/24 39/70/24
f 39/70/24 42/71/24 40/68/24
f 41/72/24 46/73/24 42/71/24
f 43/69/24 47/74/24 48/75/24
f 11/76/29 48/77/29 12/78/29
f 19/79/30 45/80/30 41/24/30
f 20/81/31 43/82/31 11/76/31
f 17/83/32 45/84/32 18/85/32
f 17/83/33 42/86/33 46/87/33
f 15/88/34 42/86/34 16/89/34
f 14/46/35 40/90/35 15/91/35
f 28/92/36 57/93/36 58/94/36
f 55/95/37 28/92/37 27/96/37
f 54/97/38 27/98/38 26/99/38
f 25/100/39 54/97/39 26/99/39
f 52/101/40 25/102/40 24/103/40
f 23/104/41 52/101/41 24/103/41
f 50/105/42 23/106/42 22/107/42
f 21/108/43 50/105/43 22/107/43
f 59/109/44 49/110/44 21/108/44
f 57/93/45 59/111/45 58/94/45
f 169/112/46 59/111/46 167/113/46
f 21/108/47 170/114/47 168/115/47
f 22/107/48 171/116/48 170/114/48
f 171/117/49 24/103/49 172/118/49
f 24/103/50 173/119/50 172/118/50
f 173/120/51 26/99/51 174/121/51
f 26/99/52 175/122/52 174/121/52
f 27/96/53 176/123/53 175/124/53
f 28/92/54 169/112/54 176/123/54
f 167/125/55 21/108/55 168/115/55
f 68/126/56 90/127/56 89/128/56
f 62/129/57 82/130/57 61/131/57
f 65/132/58 88/133/58 64/134/58
f 67/135/59 89/128/59 83/136/59
f 61/137/60 72/138/60 62/139/60
f 63/140/61 72/138/61 73/141/61
f 63/140/62 74/142/62 64/143/62
f 64/143/63 75/144/63 65/145/63
f 66/146/64 75/144/64 76/147/64
f 66/146/65 77/148/65 67/149/65
f 68/150/66 77/148/66 78/151/66
f 68/150/67 79/152/67 69/153/67
f 69/153/68 80/154/68 70/155/68
f 61/137/69 80/154/69 71/156/69
f 81/157/70 84/158/70 82/159/70
f 82/159/63 85/160/63 81/157/63
f 84/158/61 89/161/61 90/162/61
f 86/163/62 88/164/62 85/160/62
f 65/132/71 81/165/71 85/166/71
f 62/129/72 87/167/72 86/168/72
f 70/169/73 90/170/73 69/171/73
f 67/135/74 81/172/74 66/173/74
f 64/134/75 87/174/75 63/175/75
f 70/169/76 82/176/76 84/177/76
f 91/178/77 124/179/77 125/180/77
f 99/181/78 138/182/78 108/183/78
f 98/184/79 108/183/79 107/185/79
f 106/186/80 98/187/80 107/188/80
f 96/189/81 106/186/81 105/190/81
f 95/191/82 105/192/82 104/193/82
f 94/194/83 104/193/83 103/195/83
f 93/196/84 103/197/84 102/198/84
f 101/199/85 93/196/85 102/198/85
f 91/178/86 101/199/86 110/200/86
f 60/201/87 101/199/87 49/110/87
f 49/110/88 102/198/88 50/105/88
f 102/198/89 51/202/89 50/105/89
f 51/203/90 104/193/90 52/101/90
f 52/101/91 105/192/91 53/204/91
f 53/205/92 106/186/92 54/97/92
f 54/97/93 107/188/93 55/206/93
f 107/185/94 56/207/94 55/95/94
f 108/183/95 57/93/95 56/207/95
f 138/182/96 60/208/96 57/93/96
f 29/209/97 148/210/97 30/211/97
f 31/212/98 148/210/98 118/40/98
f 32/213/99 118/40/99 117/38/99
f 32/214/100 116/37/100 33/215/100
f 33/215/101 115/35/101 34/216/101
f 35/217/102 115/34/102 114/31/102
f 35/217/103 113/33/103 36/218/103
f 37/219/104 113/220/104 112/29/104
f 38/221/105 112/29/105 111/26/105
f 38/221/106 147/28/106 29/222/106
f 152/223/107 134/224/107 150/225/107
f 140/226/108 129/227/108 124/228/108
f 122/229/109 128/230/109 10/231/109
f 137/232/110 125/233/110 139/234/110
f 146/235/111 152/236/111 150/237/111
f 2/238/112 128/239/112 123/240/112
f 110/241/113 140/226/113 124/228/113
f 100/242/114 143/243/114 141/244/114
f 132/245/115 130/246/115 129/247/115
f 125/180/116 131/248/116 139/249/116
f 139/250/117 132/251/117 140/252/117
f 125/180/118 129/253/118 130/254/118
f 136/255/119 134/256/119 135/257/119
f 151/42/120 133/258/120 136/259/120
f 149/260/121 134/224/121 133/261/121
f 152/262/122 136/263/122 135/264/122
f 109/265/123 137/266/123 100/267/123
f 127/268/124 139/269/124 140/270/124
f 100/242/125 139/234/125 126/271/125
f 109/272/126 140/270/126 138/273/126
f 141/274/127 144/275/127 142/276/127
f 100/267/128 142/277/128 109/265/128
f 127/278/129 142/279/129 144/280/129
f 126/281/130 144/282/130 143/283/130
f 2/238/131 146/284/131 10/285/131
f 155/286/132 154/287/132 153/288/132
f 122/289/133 149/290/133 121/291/133
f 119/292/134 153/293/134 154/294/134
f 2/238/135 149/290/135 145/295/135
f 121/296/136 120/297/136 122/298/136
f 10/285/137 150/299/137 122/289/137
f 121/300/138 123/301/138 119/292/138
f 148/302/139 151/303/139 152/262/139
f 123/240/140 155/304/140 153/305/140
f 119/306/141 156/307/141 120/297/141
f 120/308/142 155/286/142 128/230/142
f 137/309/143 157/22/143 91/310/143
f 165/19/144 137/309/144 99/181/144
f 164/17/145 99/181/145 98/184/145
f 97/311/146 164/16/146 98/187/146
f 162/14/147 97/311/147 96/189/147
f 161/9/148 96/312/148 95/191/148
f 160/7/149 95/191/149 94/194/149
f 159/5/150 94/313/150 93/196/150
f 92/314/151 159/5/151 93/196/151
f 91/178/152 158/3/152 92/314/152
f 71/315/153 168/115/153 72/316/153
f 176/123/154 80/317/154 79/318/154
f 175/124/155 79/318/155 78/319/155
f 77/320/156 175/122/156 78/321/156
f 173/120/157 77/320/157 76/322/157
f 172/118/158 76/323/158 75/324/158
f 74/325/159 172/118/159 75/324/159
f 170/114/160 74/326/160 73/327/160
f 168/115/161 73/327/161 72/316/161
f 80/317/162 167/113/162 71/328/162
f 157/1/163 145/27/163 1/2/163
f 158/3/164 1/2/164 3/4/164
f 3/4/165 4/30/165 160/6/165
f 160/7/166 4/32/166 5/8/166
f 161/9/167 5/8/167 6/10/167
f 6/12/168 7/15/168 163/13/168
f 7/15/169 8/329/169 164/16/169
f 164/17/170 8/39/170 9/18/170
f 9/18/171 146/41/171 166/20/171
f 166/20/172 146/41/172 145/21/172
f 20/23/173 19/79/173 41/24/173
f 111/26/174 1/2/174 145/27/174
f 111/26/175 112/29/175 3/4/175
f 112/29/176 113/220/176 4/30/176
f 114/31/177 5/8/177 4/32/177
f 115/34/178 6/10/178 5/8/178
f 115/35/179 116/37/179 7/15/179
f 117/36/180 8/329/180 7/15/180
f 117/38/181 118/40/181 9/18/181
f 118/40/182 148/210/182 146/41/182
f 145/27/21 149/330/21 151/42/21
f 12/43/183 48/331/183 47/44/183
f 14/46/184 13/45/184 47/44/184
f 19/48/24 20/67/24 29/49/24
f 18/51/24 19/48/24 30/50/24
f 18/51/24 31/52/24 32/53/24
f 16/55/185 17/54/185 32/53/185
f 15/57/186 16/55/186 33/56/186
f 14/59/24 15/57/24 34/58/24
f 14/59/187 35/60/187 36/61/187
f 12/63/188 13/62/188 36/61/188
f 12/63/24 37/64/24 38/65/24
f 11/66/24 38/65/24 29/49/24
f 40/68/24 44/332/24 43/69/24
f 39/70/24 41/72/24 42/71/24
f 41/72/24 45/333/24 46/73/24
f 43/69/24 44/332/24 47/74/24
f 11/76/189 43/82/189 48/77/189
f 19/79/30 18/334/30 45/80/30
f 20/81/190 39/335/190 43/82/190
f 17/83/191 46/87/191 45/84/191
f 17/83/192 16/89/192 42/86/192
f 15/88/193 40/336/193 42/86/193
f 14/46/194 44/47/194 40/90/194
f 28/92/195 56/207/195 57/93/195
f 55/95/196 56/207/196 28/92/196
f 54/97/197 55/206/197 27/98/197
f 25/100/198 53/205/198 54/97/198
f 52/101/199 53/204/199 25/102/199
f 23/104/200 51/203/200 52/101/200
f 50/105/201 51/202/201 23/106/201
f 21/108/202 49/110/202 50/105/202
f 59/109/203 60/201/203 49/110/203
f 57/93/204 60/208/204 59/111/204
f 169/112/205 58/94/205 59/111/205
f 21/108/206 22/107/206 170/114/206
f 22/107/207 23/106/207 171/116/207
f 171/117/208 23/104/208 24/103/208
f 24/103/209 25/102/209 173/119/209
f 173/120/210 25/100/210 26/99/210
f 26/99/211 27/98/211 175/122/211
f 27/96/212 28/92/212 176/123/212
f 28/92/213 58/94/213 169/112/213
f 167/125/214 59/109/214 21/108/214
f 68/126/215 69/337/215 90/127/215
f 62/129/216 86/168/216 82/130/216
f 65/132/217 85/166/217 88/133/217
f 67/135/218 68/126/218 89/128/218
f 61/137/219 71/156/219 72/138/219
f 63/140/61 62/139/61 72/138/61
f 63/140/62 73/141/62 74/142/62
f 64/143/62 74/142/62 75/144/62
f 66/146/220 65/145/220 75/144/220
f 66/146/221 76/147/221 77/148/221
f 68/150/222 67/149/222 77/148/222
f 68/150/223 78/151/223 79/152/223
f 69/153/224 79/152/224 80/154/224
f 61/137/225 70/155/225 80/154/225
f 81/157/226 83/338/226 84/158/226
f 82/159/223 86/163/223 85/160/223
f 84/158/227 83/338/227 89/161/227
f 86/163/228 87/339/228 88/164/228
f 65/132/229 66/340/229 81/165/229
f 62/129/230 63/341/230 87/167/230
f 70/169/231 84/177/231 90/170/231
f 67/135/232 83/136/232 81/172/232
f 64/134/75 88/133/75 87/174/75
f 70/169/233 61/342/233 82/176/233
f 91/178/234 110/200/234 124/179/234
f 99/181/235 137/309/235 138/182/235
f 98/184/236 99/181/236 108/183/236
f 106/186/237 97/311/237 98/187/237
f 96/189/238 97/311/238 106/186/238
f 95/191/239 96/312/239 105/192/239
f 94/194/240 95/191/240 104/193/240
f 93/196/241 94/313/241 103/197/241
f 101/199/242 92/314/242 93/196/242
f 91/178/243 92/314/243 101/199/243
f 60/201/244 110/200/244 101/199/244
f 49/110/245 101/199/245 102/198/245
f 102/198/246 103/197/246 51/202/246
f 51/203/83 103/195/83 104/193/83
f 52/101/82 104/193/82 105/192/82
f 53/205/247 105/190/247 106/186/247
f 54/97/248 106/186/248 107/188/248
f 107/185/249 108/183/249 56/207/249
f 108/183/250 138/182/250 57/93/250
f 138/182/251 110/343/251 60/208/251
f 29/209/252 147/344/252 148/210/252
f 31/212/253 30/211/253 148/210/253
f 32/213/254 31/212/254 118/40/254
f 32/214/255 117/36/255 116/37/255
f 33/215/256 116/37/256 115/35/256
f 35/217/257 34/345/257 115/34/257
f 35/217/258 114/31/258 113/33/258
f 37/219/259 36/346/259 113/220/259
f 38/221/260 37/219/260 112/29/260
f 38/221/261 111/26/261 147/28/261
f 152/223/107 135/347/107 134/224/107
f 140/226/262 132/348/262 129/227/262
f 122/229/263 120/308/263 128/230/263
f 137/232/264 91/349/264 125/233/264
f 146/235/111 148/350/111 152/236/111
f 2/238/265 10/285/265 128/239/265
f 110/241/266 138/351/266 140/226/266
f 100/242/267 126/271/267 143/243/267
f 132/245/268 131/352/268 130/246/268
f 125/180/269 130/254/269 131/248/269
f 139/250/270 131/353/270 132/251/270
f 125/180/271 124/179/271 129/253/271
f 136/255/272 133/354/272 134/256/272
f 151/42/120 149/330/120 133/258/120
f 149/260/273 150/225/273 134/224/273
f 152/262/274 151/303/274 136/263/274
f 109/265/275 138/355/275 137/266/275
f 127/268/276 126/356/276 139/269/276
f 100/242/277 137/232/277 139/234/277
f 109/272/278 127/268/278 140/270/278
f 141/274/279 143/357/279 144/275/279
f 100/267/280 141/358/280 142/277/280
f 127/278/281 109/359/281 142/279/281
f 126/281/282 127/360/282 144/282/282
f 2/238/131 145/295/131 146/284/131
f 155/286/132 156/361/132 154/287/132
f 122/289/133 150/299/133 149/290/133
f 119/292/134 123/301/134 153/293/134
f 2/238/135 121/291/135 149/290/135
f 121/296/283 119/306/283 120/297/283
f 10/285/137 146/284/137 150/299/137
f 121/300/284 2/362/284 123/301/284
f 148/302/139 147/363/139 151/303/139
f 123/240/140 128/239/140 155/304/140
f 119/306/285 154/364/285 156/307/285
f 120/308/142 156/361/142 155/286/142
f 137/309/286 166/20/286 157/22/286
f 165/19/287 166/20/287 137/309/287
f 164/17/288 165/19/288 99/181/288
f 97/311/289 163/13/289 164/16/289
f 162/14/290 163/13/290 97/311/290
f 161/9/291 162/11/291 96/312/291
f 160/7/292 161/9/292 95/191/292
f 159/5/293 160/6/293 94/313/293
f 92/314/294 158/3/294 159/5/294
f 91/178/295 157/1/295 158/3/295
f 71/315/296 167/125/296 168/115/296
f 176/123/297 169/112/297 80/317/297
f 175/124/298 176/123/298 79/318/298
f 77/320/299 174/121/299 175/122/299
f 173/120/300 174/121/300 77/320/300
f 172/118/301 173/119/301 76/323/301
f 74/325/302 171/117/302 172/118/302
f 170/114/303 171/116/303 74/326/303
f 168/115/304 170/114/304 73/327/304
f 80/317/305 169/112/305 167/113/305
