# Blender 4.2.0
# www.blender.org
mtllib log_2.mtl
g log_2_Mesh
v -0.019526 0.030572 0.595904
v -0.060431 0.016858 0.595904
v -0.085953 -0.019390 0.595904
v -0.086117 -0.064445 0.615584
v -0.060431 -0.102858 0.595904
v -0.021291 -0.114999 0.595904
v 0.021378 -0.100693 0.595904
v 0.046900 -0.064445 0.595904
v 0.046900 -0.019390 0.595904
v 0.021378 0.016858 0.582791
v -0.065393 0.020558 -0.221025
v -0.010256 0.039189 -0.259664
v -0.088460 -0.009792 -0.216847
v -0.105080 -0.051184 -0.280121
v -0.067859 -0.104450 -0.271788
v -0.019527 -0.120151 -0.268387
v 0.024597 -0.104440 -0.262200
v 0.053622 -0.067225 -0.265930
v 0.053049 -0.010130 -0.223996
v 0.028806 0.028602 -0.268545
v -0.050195 0.005482 -0.468578
v -0.080178 -0.025534 -0.468578
v -0.082476 -0.057292 -0.484066
v -0.063016 -0.085128 -0.468578
v -0.015952 -0.104498 -0.468578
v 0.016272 -0.082321 -0.482123
v 0.033007 -0.060523 -0.468578
v 0.039975 -0.023327 -0.468578
v 0.015717 0.007382 -0.468578
v -0.017529 0.014416 -0.468578
v -0.019526 0.046635 0.375518
v -0.016854 0.046135 0.168741
v 0.009142 0.039097 -0.097161
v -0.067529 0.029558 -0.140824
v -0.083427 0.003345 0.196543
v -0.053498 0.030802 0.438134
v -0.099741 0.001165 -0.086432
v -0.097654 -0.019812 0.208640
v -0.094112 -0.022351 0.429139
v -0.099741 -0.055384 -0.051954
v -0.095322 -0.051073 0.068538
v -0.099741 -0.057240 0.383658
v -0.056489 -0.104935 -0.008858
v -0.054279 -0.105213 0.108134
v -0.067213 -0.100817 0.345332
v -0.004345 -0.120807 -0.049769
v -0.007927 -0.120243 0.124298
v -0.020138 -0.121063 0.387333
v 0.025840 -0.104935 -0.058695
v 0.021424 -0.114579 0.072886
v 0.033413 -0.105019 0.414787
v 0.060688 -0.078965 -0.025533
v 0.055139 -0.071187 0.099711
v 0.055218 -0.072430 0.420925
v 0.048769 0.001991 -0.087867
v 0.060688 -0.001252 0.160561
v 0.062537 0.004563 0.306450
v 0.025753 0.017678 -0.094360
v 0.032180 0.030320 0.204927
v 0.027583 0.030637 0.331143
v -0.019526 0.045115 0.582791
v -0.069101 0.028493 0.595904
v -0.099740 -0.015023 0.595904
v -0.095975 -0.068812 0.615584
v -0.069101 -0.112328 0.595904
v -0.018673 -0.128664 0.595904
v 0.030049 -0.112328 0.595904
v 0.060688 -0.068812 0.595904
v 0.060688 -0.015023 0.595904
v 0.030049 0.028493 0.595904
v -0.017675 0.032662 -0.468578
v 0.023816 0.018954 -0.468578
v 0.053458 -0.018571 -0.468578
v 0.053906 -0.065060 -0.468578
v 0.024712 -0.103083 -0.482123
v -0.016594 -0.119281 -0.468578
v -0.072645 -0.095453 -0.468578
v -0.090620 -0.059431 -0.484066
v -0.087610 -0.021927 -0.468578
v -0.071363 0.016531 -0.468578
v -0.059465 0.015506 0.572349
v -0.059465 -0.090007 0.572349
v 0.020459 0.015506 0.572349
v 0.020459 -0.099336 0.572349
v -0.017553 0.013030 -0.444045
v -0.016012 -0.103053 -0.444045
v 0.014927 0.006248 -0.444045
v 0.015469 -0.081168 -0.444045
v -0.049378 0.004392 -0.444045
v -0.062176 -0.084130 -0.444045
v -0.019503 0.028905 0.572349
v -0.084398 -0.019906 0.572349
v -0.076731 -0.063923 0.572349
v -0.021227 -0.113312 0.572349
v 0.045393 -0.063923 0.572349
v 0.045393 -0.019906 0.572349
v 0.038626 -0.023753 -0.444045
v 0.031650 -0.060092 -0.444044
v -0.078528 -0.056237 -0.444044
v -0.078025 -0.025909 -0.444045
v 0.004464 0.037431 -0.138322
v -0.066905 0.026929 -0.164252
v -0.096445 -0.002035 -0.124529
v -0.101300 -0.054157 -0.118607
v -0.059811 -0.104793 -0.085666
v -0.008780 -0.120616 -0.113633
v 0.025477 -0.104790 -0.118144
v 0.058624 -0.075536 -0.095759
v 0.050019 -0.001550 -0.127633
v 0.026304 0.022127 -0.138223
v 0.032508 0.016070 -0.147389
v 0.032948 0.010940 -0.084085
v 0.002859 0.045219 -0.088805
v -0.002630 0.044086 -0.147584
v 0.058841 0.061684 -0.114389
v 0.065069 0.066815 -0.086461
v 0.045786 0.085629 -0.094708
v 0.038066 0.080490 -0.109427
v 0.081914 0.113266 -0.134437
v 0.082718 0.111395 -0.114519
v 0.071298 0.115987 -0.115791
v 0.069846 0.114262 -0.134481
v 0.088737 0.133651 -0.141906
v 0.089200 0.132573 -0.130426
v 0.082618 0.135219 -0.131159
v 0.081780 0.134225 -0.141932
v 0.053528 0.098044 -0.105561
v 0.049242 0.094492 -0.118512
v 0.070492 0.087730 -0.124512
v 0.073980 0.089326 -0.100629
v 0.051388 0.078231 -0.088761
v 0.043028 0.069281 -0.113199
v 0.056570 0.091994 -0.123945
v 0.061442 0.097296 -0.102410
v 0.023395 0.165549 -0.098515
v 0.021836 0.165999 -0.100847
v 0.024678 0.165925 -0.102482
v 0.025675 0.165757 -0.100414
v 0.034004 0.105050 -0.097166
v 0.030043 0.102413 -0.104718
v 0.035777 0.109597 -0.109379
v 0.037976 0.111419 -0.102734
v 0.019863 0.129675 -0.096977
v 0.022654 0.131350 -0.106607
v 0.016109 0.129924 -0.102707
v 0.024979 0.131445 -0.101533
v 0.093790 0.166684 -0.139390
v 0.094027 0.166133 -0.133521
v 0.090661 0.167486 -0.133896
v 0.090233 0.166977 -0.139404
vn -0.2284 0.9668 -0.1146
vn -0.7722 0.6241 -0.1192
vn -0.9923 0.0819 -0.0927
vn -0.7834 -0.6206 0.0327
vn -0.2907 -0.9567 0.0108
vn 0.4188 -0.9080 -0.0048
vn 0.6816 -0.7296 -0.0557
vn 0.9921 0.1241 0.0201
vn 0.7297 0.6827 -0.0378
vn 0.6219 0.7794 -0.0764
vn 0.3172 -0.9460 0.0673
vn -0.2041 -0.9774 -0.0554
vn -0.8269 -0.5586 0.0652
vn -0.2877 0.9575 -0.0197
vn -0.9211 0.3891 0.0159
vn -0.9154 0.4019 -0.0225
vn -0.8862 -0.4612 -0.0442
vn -0.3910 -0.9198 -0.0325
vn 0.3353 -0.9421 0.0008
vn 0.7937 -0.6083 -0.0033
vn 1.0000 0.0096 0.0015
vn 0.8559 0.5169 -0.0164
vn 0.3133 0.9482 -0.0535
vn 0.3162 0.9487 0.0070
vn 0.3232 0.9463 0.0019
vn 0.3474 0.9357 -0.0618
vn 0.8177 0.5757 -0.0030
vn 0.6069 0.7945 0.0201
vn 0.7089 0.7038 -0.0453
vn 0.9995 -0.0000 -0.0312
vn 0.9954 -0.0955 -0.0006
vn 0.9981 -0.0371 -0.0484
vn 0.8176 -0.5756 -0.0137
vn 0.8313 -0.5558 -0.0024
vn 0.7650 -0.6399 0.0736
vn 0.3177 -0.9476 -0.0323
vn 0.2822 -0.9593 0.0101
vn 0.2018 -0.9794 0.0073
vn -0.3080 -0.9508 -0.0325
vn -0.3795 -0.9250 -0.0205
vn -0.3096 -0.9509 0.0036
vn -0.8532 -0.5214 -0.0122
vn -0.8107 -0.5850 -0.0228
vn -0.8016 -0.5977 0.0137
vn -0.9963 -0.0807 -0.0301
vn -0.9904 0.1370 0.0175
vn -0.9968 -0.0803 0.0013
vn -0.8155 0.5742 -0.0723
vn -0.7960 0.6049 0.0198
vn -0.8407 0.5397 0.0443
vn -0.3221 0.9465 -0.0180
vn -0.4815 0.8755 -0.0399
vn -0.5535 0.8316 -0.0453
vn 0.9949 -0.0245 -0.0975
vn -0.0000 -0.0000 1.0000
vn -0.3172 0.9460 0.0669
vn -0.9980 -0.0000 0.0639
vn 0.8616 0.5051 -0.0500
vn 0.2046 0.1525 0.9669
vn -0.1465 0.3308 0.9322
vn 0.2739 -0.2508 0.9285
vn -0.6948 -0.2445 0.6764
vn 0.0281 0.6694 0.7424
vn -0.8159 0.5745 0.0649
vn -0.0000 -0.0000 -1.0000
vn 0.2883 0.1172 -0.9503
vn -0.3164 0.0137 -0.9485
vn 0.1110 -0.4228 -0.8994
vn 0.1765 0.3636 -0.9147
vn 0.7170 -0.6931 -0.0735
vn -0.3143 -0.9375 0.1490
vn -0.7836 -0.6190 -0.0538
vn 0.8159 -0.5744 0.0664
vn 0.2635 -0.9633 -0.0516
vn -0.9816 0.1839 -0.0508
vn 0.9833 0.1713 0.0611
vn -0.7920 0.6081 -0.0545
vn 0.8584 0.4756 0.1921
vn -0.5770 0.8159 -0.0369
vn 0.4679 0.7676 0.4380
vn 0.3801 0.9234 -0.0534
vn 0.1373 0.4259 -0.8943
vn 0.4800 0.8750 -0.0628
vn 0.9915 0.1284 -0.0229
vn 0.6305 -0.7741 -0.0563
vn 0.4571 -0.8887 -0.0344
vn -0.2836 -0.9589 0.0105
vn -0.7666 -0.6413 0.0320
vn -0.9996 0.0144 0.0237
vn -0.7623 0.6361 -0.1194
vn -0.2183 0.9759 0.0016
vn 0.7517 0.6551 0.0759
vn 0.7545 0.6481 -0.1033
vn 0.6212 0.7769 -0.1021
vn 0.6209 0.7793 0.0844
vn -0.8549 0.5185 0.0186
vn -0.1797 -0.0172 0.9836
vn -0.6529 0.7562 0.0436
vn 0.7841 -0.6175 -0.0614
vn -0.8551 0.5182 0.0186
vn 0.9008 -0.4217 -0.1034
vn -0.0256 -0.3522 -0.9356
vn 0.1218 0.5345 0.8363
vn -0.9679 0.2457 0.0525
vn 0.9380 -0.3395 -0.0697
vn -0.0243 -0.3368 -0.9413
vn 0.1378 0.5675 0.8117
vn 0.1977 0.4995 0.8434
vn -0.1324 -0.3070 -0.9424
vn 0.8947 -0.4301 -0.1205
vn -0.8179 0.1006 0.5665
vn -0.8550 -0.3186 0.4092
vn -0.6218 -0.0118 -0.7831
vn -0.2004 0.7127 0.6723
vn 0.1049 0.9497 -0.2952
vn 0.0569 0.9969 0.0538
vn 0.9006 -0.0041 -0.4346
vn -0.4918 0.1315 -0.8607
vn 0.6713 -0.0343 0.7404
vn 0.4783 0.3897 0.7870
vn -0.5952 -0.0455 -0.8023
vn 0.5601 0.7328 -0.3863
vn -0.7527 -0.3895 0.5308
vn 0.5623 0.3170 0.7637
vn -0.4751 -0.1768 -0.8620
vn 0.7602 0.5170 -0.3934
vn -0.7662 -0.4234 0.4835
vn 0.3651 0.9281 0.0724
vn 0.9877 -0.1470 -0.0536
vn 0.0098 0.0744 -0.9972
vn -0.0697 0.1015 0.9924
vn -0.3318 0.9432 -0.0186
vn -0.7989 0.5950 -0.0881
vn -0.9418 0.3350 0.0282
vn -0.8203 -0.5718 0.0087
vn -0.3101 -0.9505 0.0187
vn 0.3386 -0.9406 -0.0263
vn 0.7882 -0.6154 -0.0063
vn 0.9991 0.0305 -0.0279
vn 0.8301 0.5566 0.0322
vn 0.2796 0.9559 0.0903
vn -0.2067 -0.9770 -0.0518
vn -0.8090 -0.5696 0.1450
vn -0.3249 0.9457 -0.0075
vn -0.7978 0.6020 -0.0317
vn -0.9911 0.1104 -0.0747
vn -0.8192 -0.5734 -0.0063
vn -0.3084 -0.9512 -0.0087
vn 0.3635 -0.9316 -0.0056
vn 0.7883 -0.6153 -0.0055
vn 1.0000 0.0090 0.0014
vn 0.7837 0.6191 -0.0494
vn 0.2531 0.9666 -0.0392
vn 0.3255 0.9455 0.0046
vn 0.3012 0.9535 0.0086
vn 0.7467 0.6629 0.0548
vn 0.6224 0.7806 0.0568
vn 0.7154 0.6978 -0.0369
vn 0.4901 0.8716 -0.0121
vn 0.9955 -0.0947 -0.0000
vn 0.9975 -0.0706 -0.0098
vn 0.9848 0.1704 0.0330
vn 0.8317 -0.5552 -0.0070
vn 0.7928 -0.6094 -0.0108
vn 0.6194 -0.7842 -0.0367
vn 0.3041 -0.9519 -0.0368
vn 0.2222 -0.9748 0.0195
vn 0.4532 -0.8900 -0.0500
vn -0.3601 -0.9318 -0.0455
vn -0.3087 -0.9512 0.0008
vn -0.2933 -0.9560 -0.0029
vn -0.8145 -0.5792 -0.0327
vn -0.7853 -0.6183 -0.0314
vn -0.7739 -0.6312 0.0510
vn -0.9912 0.1304 0.0226
vn -0.9998 -0.0108 -0.0142
vn -0.9991 0.0219 0.0359
vn -0.7891 0.6120 -0.0535
vn -0.8411 0.5392 0.0429
vn -0.6315 0.7748 0.0304
vn -0.4123 0.9110 0.0067
vn -0.5433 0.8395 -0.0091
vn -0.2606 0.9634 0.0626
vn 0.9960 -0.0165 -0.0876
vn 0.8402 0.5335 -0.0970
vn -0.2191 0.6534 0.7246
vn 0.1257 0.3967 0.9093
vn 0.1607 -0.3628 0.9179
vn -0.0309 -0.7374 0.6747
vn 0.1015 0.4677 -0.8780
vn -0.3096 -0.1259 -0.9425
vn 0.2778 -0.2591 -0.9250
vn -0.1161 0.4422 -0.8894
vn 0.7256 -0.6860 -0.0546
vn -0.2978 -0.9523 0.0671
vn 0.2615 -0.9637 -0.0542
vn -0.9804 0.1882 -0.0575
vn 0.9731 0.0892 0.2123
vn -0.7820 0.6223 -0.0353
vn 0.7906 0.5233 0.3179
vn -0.5701 0.8201 -0.0497
vn 0.2956 0.9528 0.0690
vn 0.3788 0.9241 -0.0506
vn 0.2674 0.3760 -0.8872
vn 0.6769 0.7341 0.0548
vn 0.6639 -0.7478 -0.0059
vn -0.2875 -0.9576 0.0171
vn -0.7756 -0.6312 0.0065
vn -0.7578 0.6458 -0.0927
vn 0.6371 0.7686 0.0578
vn 0.7752 0.6182 0.1300
vn 0.7366 0.6714 -0.0817
vn 0.5678 0.8093 -0.1505
vn -0.8606 0.5043 0.0705
vn -0.1819 -0.0125 0.9832
vn -0.6749 0.7369 -0.0390
vn 0.7865 -0.6153 -0.0525
vn 0.8987 -0.4318 -0.0768
vn -0.1452 -0.3511 -0.9250
vn 0.1779 0.4727 0.8631
vn 0.2314 0.4509 0.8620
vn -0.2178 -0.3083 -0.9260
vn 0.8929 -0.4387 -0.1011
vn -0.8297 0.1052 0.5481
vn -0.6927 -0.4860 0.5330
vn -0.6000 -0.0207 -0.7997
vn -0.0547 0.6002 0.7980
vn 0.1989 0.9402 -0.2765
vn 0.0441 0.9860 0.1610
vn 0.9091 -0.0035 -0.4166
vn -0.5280 0.1271 -0.8397
vn 0.6415 -0.0380 0.7662
vn 0.5654 0.3213 0.7597
vn -0.4764 -0.1784 -0.8609
vn 0.7758 0.5146 -0.3652
vn -0.7323 -0.4246 0.5323
vn 0.0822 0.9918 -0.0979
vt 0.307953 0.069170
vt 0.309095 0.068542
vt 0.309086 0.069016
vt 0.309754 0.068566
vt 0.309850 0.069336
vt 0.310458 0.069373
vt 0.292244 0.082387
vt 0.293383 0.081116
vt 0.293424 0.082670
vt 0.294262 0.082454
vt 0.322349 0.077195
vt 0.322989 0.075957
vt 0.323012 0.077158
vt 0.323828 0.075921
vt 0.323818 0.077342
vt 0.310242 0.076497
vt 0.311229 0.075438
vt 0.311360 0.076243
vt 0.311816 0.076081
vt 0.312672 0.075147
vt 0.312622 0.076083
vt 0.313733 0.076656
vt 0.313311 0.076330
vt 0.313739 0.076321
vt 0.320292 0.073123
vt 0.319837 0.073356
vt 0.319847 0.073134
vt 0.306761 0.070970
vt 0.306952 0.071333
vt 0.306523 0.071337
vt 0.309079 0.066476
vt 0.308052 0.068234
vt 0.308106 0.066489
vt 0.309716 0.066465
vt 0.310389 0.068026
vt 0.293266 0.079476
vt 0.292211 0.081040
vt 0.292563 0.079345
vt 0.294265 0.079494
vt 0.322220 0.074235
vt 0.322189 0.075904
vt 0.323837 0.074231
vt 0.322984 0.074123
vt 0.311163 0.073397
vt 0.310454 0.075079
vt 0.310525 0.073390
vt 0.312058 0.075072
vt 0.312719 0.073403
vt 0.312032 0.073403
vt 0.311850 0.082281
vt 0.312744 0.080445
vt 0.312677 0.082173
vt 0.311967 0.080074
vt 0.312751 0.078720
vt 0.311727 0.076608
vt 0.311936 0.079021
vt 0.310887 0.082275
vt 0.311196 0.079865
vt 0.311172 0.078647
vt 0.310211 0.080806
vt 0.310155 0.082266
vt 0.323840 0.078971
vt 0.324850 0.080682
vt 0.323859 0.081650
vt 0.310300 0.078128
vt 0.311415 0.076575
vt 0.323060 0.083114
vt 0.323995 0.083109
vt 0.323174 0.081603
vt 0.322860 0.078752
vt 0.323814 0.077929
vt 0.322189 0.083112
vt 0.322390 0.079179
vt 0.322237 0.081372
vt 0.322416 0.077728
vt 0.293194 0.088344
vt 0.293969 0.086624
vt 0.294023 0.088361
vt 0.293141 0.086259
vt 0.294190 0.084437
vt 0.293441 0.083311
vt 0.293433 0.084287
vt 0.292143 0.086571
vt 0.292271 0.088504
vt 0.292213 0.083949
vt 0.291718 0.086957
vt 0.291497 0.088345
vt 0.291713 0.085119
vt 0.291497 0.082663
vt 0.309201 0.074041
vt 0.310458 0.075338
vt 0.309553 0.075353
vt 0.310246 0.072109
vt 0.310349 0.073947
vt 0.309789 0.072016
vt 0.309889 0.069653
vt 0.308629 0.075256
vt 0.308491 0.073529
vt 0.307894 0.069662
vt 0.308334 0.071805
vt 0.301893 0.088187
vt 0.302334 0.088388
vt 0.301605 0.088373
vt 0.304012 0.085157
vt 0.304245 0.084764
vt 0.304261 0.085139
vt 0.324169 0.075956
vt 0.324595 0.076310
vt 0.324167 0.076318
vt 0.306973 0.071609
vt 0.306544 0.071619
vt 0.301886 0.088654
vt 0.302333 0.088652
vt 0.306752 0.085079
vt 0.307004 0.084676
vt 0.307004 0.085114
vt 0.306448 0.085476
vt 0.306289 0.085380
vt 0.305492 0.085511
vt 0.305478 0.085601
vt 0.304707 0.085413
vt 0.304599 0.085508
vt 0.304549 0.084366
vt 0.304708 0.084462
vt 0.305478 0.084336
vt 0.305468 0.084216
vt 0.306398 0.084335
vt 0.306271 0.084433
vt 0.306736 0.084719
vt 0.324167 0.075611
vt 0.324597 0.075957
vt 0.314778 0.070148
vt 0.314966 0.069809
vt 0.315029 0.070172
vt 0.314435 0.070434
vt 0.314609 0.070522
vt 0.313833 0.070676
vt 0.313762 0.070501
vt 0.313286 0.070447
vt 0.312998 0.070579
vt 0.312679 0.070267
vt 0.312427 0.070310
vt 0.312672 0.069843
vt 0.312431 0.069803
vt 0.312916 0.069552
vt 0.313010 0.069608
vt 0.313549 0.069518
vt 0.313557 0.069449
vt 0.314317 0.069449
vt 0.314281 0.069648
vt 0.314661 0.069870
vt 0.335820 0.189848
vt 0.335246 0.190470
vt 0.334716 0.190564
vt 0.333431 0.190243
vt 0.333892 0.189583
vt 0.334633 0.189463
vt 0.335367 0.189564
vt 0.334759 0.190627
vt 0.332848 0.190291
vt 0.333083 0.190038
vt 0.334801 0.190308
vt 0.333546 0.189860
vt 0.334682 0.190094
vt 0.333385 0.190794
vt 0.332958 0.190634
vt 0.307094 0.077289
vt 0.307545 0.077634
vt 0.307098 0.077646
vt 0.306973 0.070670
vt 0.306952 0.070974
vt 0.320281 0.073351
vt 0.319847 0.073674
vt 0.313739 0.077014
vt 0.313305 0.076658
vt 0.307098 0.077032
vt 0.307541 0.077289
vt 0.312634 0.089316
vt 0.312185 0.089105
vt 0.312631 0.089094
vt 0.319578 0.072753
vt 0.319150 0.073084
vt 0.319150 0.072766
vt 0.312187 0.089533
vt 0.312188 0.089323
vt 0.319582 0.073415
vt 0.319933 0.073031
vt 0.312631 0.089860
vt 0.312880 0.089534
vt 0.319166 0.073699
vt 0.319155 0.073342
vt 0.302340 0.089026
vt 0.301893 0.089035
vt 0.314262 0.077282
vt 0.314417 0.076877
vt 0.314723 0.076920
vt 0.310155 0.077082
vt 0.323021 0.077654
vt 0.294297 0.082988
vt 0.292258 0.082943
vt 0.309083 0.069212
vt 0.311908 0.076523
vt 0.311971 0.076158
vt 0.312558 0.076573
vt 0.312443 0.076159
vt 0.312400 0.076503
vt 0.323660 0.073702
vt 0.323320 0.073540
vt 0.323643 0.073488
vt 0.324815 0.074750
vt 0.323857 0.074476
vt 0.324128 0.074393
vt 0.315141 0.072891
vt 0.315770 0.072616
vt 0.315770 0.073081
vt 0.322004 0.072225
vt 0.321674 0.071771
vt 0.322187 0.071713
vt 0.323409 0.073333
vt 0.323595 0.073303
vt 0.321503 0.071553
vt 0.321698 0.071352
vt 0.321940 0.071531
vt 0.314870 0.076689
vt 0.314794 0.076469
vt 0.315014 0.076462
vt 0.323989 0.074216
vt 0.323636 0.074072
vt 0.323852 0.074044
vt 0.323347 0.073123
vt 0.321335 0.071340
vt 0.321417 0.071192
vt 0.314961 0.076288
vt 0.315087 0.076285
vt 0.323566 0.073880
vt 0.323691 0.073864
vt 0.323746 0.074272
vt 0.314607 0.076671
vt 0.320267 0.070829
vt 0.320148 0.070648
vt 0.320190 0.070636
vt 0.320173 0.071272
vt 0.320529 0.071352
vt 0.320074 0.071352
vt 0.314465 0.076660
vt 0.314295 0.076791
vt 0.324246 0.074333
vt 0.324134 0.074216
vt 0.321924 0.073692
vt 0.321635 0.073787
vt 0.321695 0.073721
vt 0.321917 0.077056
vt 0.321879 0.077037
vt 0.321917 0.077032
vt 0.321775 0.073331
vt 0.321635 0.073123
vt 0.321675 0.073125
vt 0.313879 0.076391
vt 0.313766 0.076107
vt 0.313819 0.076104
vt 0.324717 0.073969
vt 0.324815 0.073691
vt 0.324805 0.073992
vt 0.324499 0.074182
vt 0.314088 0.076621
vt 0.314175 0.076554
vt 0.321753 0.073537
vt 0.321871 0.073523
vt 0.320336 0.071077
vt 0.320447 0.071256
vt 0.324442 0.074122
vt 0.313762 0.076412
vt 0.320163 0.070853
vt 0.320622 0.077032
vt 0.320669 0.077078
vt 0.320610 0.077081
vt 0.321208 0.071185
vt 0.321369 0.070980
vt 0.315022 0.076008
vt 0.315087 0.076006
vt 0.323548 0.073596
vt 0.323612 0.073588
vt 0.294177 0.081161
vt 0.310135 0.066327
vt 0.324741 0.079466
vt 0.302340 0.088201
vt 0.303993 0.084728
vt 0.324595 0.075619
vt 0.335820 0.190208
vt 0.333431 0.189882
vt 0.333905 0.190538
vt 0.333968 0.190831
vt 0.334241 0.189860
vt 0.306544 0.070658
vt 0.320292 0.073676
vt 0.313311 0.077007
vt 0.307545 0.077039
vt 0.312185 0.089853
vt 0.319595 0.073707
vt 0.313828 0.077182
vt 0.291592 0.082346
vt 0.323252 0.073729
vt 0.324470 0.074913
vt 0.315471 0.072435
vt 0.321208 0.072183
vt 0.323252 0.073139
vt 0.322010 0.073731
vt 0.321872 0.077060
vt 0.321678 0.073330
vt 0.324774 0.073686
vt 0.320195 0.071085
vt 0.320669 0.077032
vt 0.321262 0.070976
s 0
g log_2_Material
usemtl Material
f 114/1/1 11/2/1 102/3/1
f 102/3/2 13/4/2 103/5/2
f 13/4/3 104/6/3 103/5/3
f 104/7/4 15/8/4 105/9/4
f 15/8/5 106/10/5 105/9/5
f 106/11/6 17/12/6 107/13/6
f 107/13/7 18/14/7 108/15/7
f 108/16/8 19/17/8 109/18/8
f 19/17/9 111/19/9 109/18/9
f 111/19/10 12/20/10 114/21/10
f 2/22/11 91/23/11 1/24/11
f 30/25/12 87/26/12 85/27/12
f 10/28/13 96/29/13 9/30/13
f 80/31/14 12/32/14 71/33/14
f 79/34/15 11/2/15 80/31/15
f 79/34/16 14/35/16 13/4/16
f 77/36/17 14/37/17 78/38/17
f 76/39/18 15/8/18 77/36/18
f 76/40/19 17/12/19 16/41/19
f 74/42/20 17/12/20 75/43/20
f 73/44/21 18/45/21 74/46/21
f 73/44/22 20/47/22 19/17/22
f 71/48/23 20/47/23 72/49/23
f 70/50/24 31/51/24 61/52/24
f 60/53/25 32/54/25 31/51/25
f 112/55/26 32/54/26 59/56/26
f 69/57/27 60/53/27 70/50/27
f 57/58/28 59/56/28 60/53/28
f 56/59/29 112/55/29 59/56/29
f 54/60/30 69/57/30 68/61/30
f 53/62/31 57/63/31 54/64/31
f 53/65/32 55/66/32 56/59/32
f 67/67/33 54/64/33 68/68/33
f 51/69/34 53/62/34 54/64/34
f 50/70/35 52/71/35 53/62/35
f 66/72/36 51/69/36 67/67/36
f 47/73/37 51/69/37 48/74/37
f 46/75/38 50/70/38 47/73/38
f 65/76/39 48/77/39 66/78/39
f 45/79/40 47/80/40 48/77/40
f 43/81/41 47/80/41 44/82/41
f 42/83/42 65/76/42 64/84/42
f 41/85/43 45/79/43 42/83/43
f 41/85/44 43/81/44 44/82/44
f 39/86/45 64/84/45 63/87/45
f 38/88/46 42/83/46 39/86/46
f 37/89/47 41/85/47 38/88/47
f 36/90/48 63/91/48 62/92/48
f 36/90/49 38/93/49 39/94/49
f 35/95/50 37/96/50 38/93/50
f 61/97/51 36/90/51 62/92/51
f 31/98/52 35/95/52 36/90/52
f 113/99/53 35/95/53 32/100/53
f 22/101/54 99/102/54 23/103/54
f 66/104/55 7/105/55 6/106/55
f 7/107/56 94/108/56 6/109/56
f 9/30/57 95/110/57 8/111/57
f 24/112/58 99/102/58 90/113/58
f 2/114/59 61/115/59 62/116/59
f 2/114/55 63/117/55 3/118/55
f 4/119/60 63/117/60 64/120/60
f 5/121/61 64/120/61 65/122/61
f 6/106/55 65/122/55 66/104/55
f 7/105/55 68/123/55 8/124/55
f 9/125/55 68/123/55 69/126/55
f 9/125/62 70/127/62 10/128/62
f 1/129/63 70/127/63 61/115/63
f 8/130/64 84/131/64 7/107/64
f 29/132/65 71/133/65 72/134/65
f 28/135/65 72/134/65 73/136/65
f 28/135/65 74/137/65 27/138/65
f 26/139/66 74/137/66 75/140/66
f 25/141/67 75/140/67 76/142/67
f 24/143/65 76/142/65 77/144/65
f 24/143/68 78/145/68 23/146/68
f 22/147/69 78/145/69 79/148/69
f 22/147/65 80/149/65 21/150/65
f 21/150/65 71/133/65 30/151/65
f 81/152/55 93/153/55 82/154/55
f 84/155/55 96/156/55 83/157/55
f 91/158/55 84/155/55 83/157/55
f 86/159/65 89/160/65 85/161/65
f 85/161/65 88/162/65 86/159/65
f 87/163/65 98/164/65 88/162/65
f 89/160/65 99/165/65 100/166/65
f 82/154/55 91/158/55 81/152/55
f 21/167/70 100/168/70 22/169/70
f 10/28/71 91/170/71 83/171/71
f 29/172/72 97/173/72 87/26/72
f 3/174/73 81/175/73 2/22/73
f 30/176/74 89/177/74 21/167/74
f 27/178/75 97/179/75 28/180/75
f 3/181/76 93/182/76 92/183/76
f 27/178/77 88/184/77 98/185/77
f 5/186/78 93/182/78 4/187/78
f 25/188/79 88/184/79 26/189/79
f 5/186/80 94/190/80 82/191/80
f 24/112/81 86/192/81 25/193/81
f 110/194/82 132/195/82 115/196/82
f 109/18/83 112/55/83 55/66/83
f 108/16/84 55/66/84 52/197/84
f 49/198/85 108/15/85 52/71/85
f 106/11/86 49/198/86 46/75/86
f 105/9/87 46/199/87 43/81/87
f 40/200/88 105/9/88 43/81/88
f 37/89/89 104/7/89 40/200/89
f 34/201/90 103/5/90 37/96/90
f 114/1/91 34/201/91 113/99/91
f 58/202/92 111/19/92 110/203/92
f 58/202/93 113/204/93 112/55/93
f 101/205/94 113/204/94 33/206/94
f 101/205/95 111/19/95 114/21/95
f 133/207/96 121/208/96 122/209/96
f 33/210/97 116/211/97 131/212/97
f 33/213/98 132/214/98 101/215/98
f 58/216/99 115/217/99 116/218/99
f 122/209/100 125/219/100 126/220/100
f 129/221/101 120/222/101 130/223/101
f 129/224/102 122/225/102 119/226/102
f 134/227/103 120/228/103 121/229/103
f 125/219/104 150/230/104 126/220/104
f 119/231/105 124/232/105 120/222/105
f 119/226/106 126/233/106 123/234/106
f 121/229/107 124/235/107 125/236/107
f 131/212/108 130/237/108 134/227/108
f 115/196/109 133/238/109 129/224/109
f 115/217/110 130/223/110 116/218/110
f 145/239/111 135/240/111 136/241/111
f 117/242/112 132/243/112 131/244/112
f 128/245/113 132/195/113 118/246/113
f 117/247/114 134/227/114 127/248/114
f 127/249/115 133/250/115 128/251/115
f 136/252/116 138/253/116 137/254/116
f 146/255/117 137/256/117 138/257/117
f 144/258/118 136/259/118 137/260/118
f 146/261/119 135/262/119 143/263/119
f 127/248/120 139/264/120 117/247/120
f 128/245/121 140/265/121 141/266/121
f 127/249/122 141/267/122 142/268/122
f 117/242/123 140/269/123 118/270/123
f 142/271/124 143/263/124 139/264/124
f 141/266/125 145/272/125 144/258/125
f 141/267/126 146/255/126 142/268/126
f 140/269/127 143/273/127 145/239/127
f 147/274/128 149/275/128 148/276/128
f 123/277/129 148/278/129 124/232/129
f 123/234/130 150/279/130 147/280/130
f 125/236/131 148/281/131 149/282/131
f 114/1/132 12/32/132 11/2/132
f 102/3/133 11/2/133 13/4/133
f 13/4/134 14/35/134 104/6/134
f 104/7/135 14/37/135 15/8/135
f 15/8/136 16/283/136 106/10/136
f 106/11/137 16/41/137 17/12/137
f 107/13/138 17/12/138 18/14/138
f 108/16/139 18/45/139 19/17/139
f 19/17/140 20/47/140 111/19/140
f 111/19/141 20/47/141 12/20/141
f 2/22/11 81/175/11 91/23/11
f 30/25/142 29/172/142 87/26/142
f 10/28/143 83/171/143 96/29/143
f 80/31/144 11/2/144 12/32/144
f 79/34/145 13/4/145 11/2/145
f 79/34/146 78/284/146 14/35/146
f 77/36/147 15/8/147 14/37/147
f 76/39/148 16/283/148 15/8/148
f 76/40/149 75/43/149 17/12/149
f 74/42/150 18/14/150 17/12/150
f 73/44/151 19/17/151 18/45/151
f 73/44/152 72/49/152 20/47/152
f 71/48/153 12/20/153 20/47/153
f 70/50/154 60/53/154 31/51/154
f 60/53/155 59/56/155 32/54/155
f 112/55/156 113/204/156 32/54/156
f 69/57/157 57/58/157 60/53/157
f 57/58/158 56/59/158 59/56/158
f 56/59/159 55/66/159 112/55/159
f 54/60/160 57/58/160 69/57/160
f 53/62/161 56/285/161 57/63/161
f 53/65/162 52/197/162 55/66/162
f 67/67/163 51/69/163 54/64/163
f 51/69/164 50/70/164 53/62/164
f 50/70/165 49/198/165 52/71/165
f 66/72/166 48/74/166 51/69/166
f 47/73/167 50/70/167 51/69/167
f 46/75/168 49/198/168 50/70/168
f 65/76/169 45/79/169 48/77/169
f 45/79/170 44/82/170 47/80/170
f 43/81/171 46/199/171 47/80/171
f 42/83/172 45/79/172 65/76/172
f 41/85/173 44/82/173 45/79/173
f 41/85/174 40/200/174 43/81/174
f 39/86/175 42/83/175 64/84/175
f 38/88/176 41/85/176 42/83/176
f 37/89/177 40/200/177 41/85/177
f 36/90/178 39/94/178 63/91/178
f 36/90/179 35/95/179 38/93/179
f 35/95/180 34/201/180 37/96/180
f 61/97/181 31/98/181 36/90/181
f 31/98/182 32/100/182 35/95/182
f 113/99/183 34/201/183 35/95/183
f 22/101/184 100/286/184 99/102/184
f 66/104/55 67/287/55 7/105/55
f 7/107/56 84/131/56 94/108/56
f 9/30/57 96/29/57 95/110/57
f 24/112/185 23/103/185 99/102/185
f 2/114/186 1/129/186 61/115/186
f 2/114/55 62/116/55 63/117/55
f 4/119/187 3/118/187 63/117/187
f 5/121/188 4/119/188 64/120/188
f 6/106/55 5/121/55 65/122/55
f 7/105/55 67/287/55 68/123/55
f 9/125/55 8/124/55 68/123/55
f 9/125/55 69/126/55 70/127/55
f 1/129/189 10/128/189 70/127/189
f 8/130/64 95/288/64 84/131/64
f 29/132/65 30/151/65 71/133/65
f 28/135/65 29/132/65 72/134/65
f 28/135/65 73/136/65 74/137/65
f 26/139/190 27/138/190 74/137/190
f 25/141/191 26/139/191 75/140/191
f 24/143/65 25/141/65 76/142/65
f 24/143/192 77/144/192 78/145/192
f 22/147/193 23/146/193 78/145/193
f 22/147/65 79/148/65 80/149/65
f 21/150/65 80/149/65 71/133/65
f 81/152/55 92/289/55 93/153/55
f 84/155/55 95/290/55 96/156/55
f 91/158/55 94/291/55 84/155/55
f 86/159/65 90/292/65 89/160/65
f 85/161/65 87/163/65 88/162/65
f 87/163/65 97/293/65 98/164/65
f 89/160/65 90/292/65 99/165/65
f 82/154/55 94/291/55 91/158/55
f 21/167/194 89/177/194 100/168/194
f 10/28/195 1/294/195 91/170/195
f 29/172/72 28/295/72 97/173/72
f 3/174/73 92/296/73 81/175/73
f 30/176/196 85/297/196 89/177/196
f 27/178/197 98/185/197 97/179/197
f 3/181/198 4/187/198 93/182/198
f 27/178/199 26/189/199 88/184/199
f 5/186/200 82/191/200 93/182/200
f 25/188/201 86/298/201 88/184/201
f 5/186/202 6/299/202 94/190/202
f 24/112/203 90/113/203 86/192/203
f 110/194/204 101/300/204 132/195/204
f 109/18/205 111/19/205 112/55/205
f 108/16/8 109/18/8 55/66/8
f 49/198/206 107/13/206 108/15/206
f 106/11/6 107/13/6 49/198/6
f 105/9/207 106/10/207 46/199/207
f 40/200/208 104/7/208 105/9/208
f 37/89/3 103/301/3 104/7/3
f 34/201/209 102/3/209 103/5/209
f 114/1/1 102/3/1 34/201/1
f 58/202/210 112/55/210 111/19/210
f 58/202/211 33/206/211 113/204/211
f 101/205/212 114/21/212 113/204/212
f 101/205/213 110/203/213 111/19/213
f 133/207/214 134/302/214 121/208/214
f 33/210/215 58/303/215 116/211/215
f 33/213/216 131/304/216 132/214/216
f 58/216/217 110/305/217 115/217/217
f 122/209/100 121/208/100 125/219/100
f 129/221/218 119/231/218 120/222/218
f 129/224/219 133/238/219 122/225/219
f 134/227/220 130/237/220 120/228/220
f 125/219/104 149/306/104 150/230/104
f 119/231/105 123/277/105 124/232/105
f 119/226/106 122/225/106 126/233/106
f 121/229/107 120/228/107 124/235/107
f 131/212/221 116/211/221 130/237/221
f 115/196/222 132/195/222 133/238/222
f 115/217/223 129/221/223 130/223/223
f 145/239/224 143/273/224 135/240/224
f 117/242/225 118/270/225 132/243/225
f 128/245/226 133/238/226 132/195/226
f 117/247/227 131/212/227 134/227/227
f 127/249/228 134/307/228 133/250/228
f 136/252/229 135/308/229 138/253/229
f 146/255/230 144/309/230 137/256/230
f 144/258/231 145/272/231 136/259/231
f 146/261/232 138/310/232 135/262/232
f 127/248/120 142/271/120 139/264/120
f 128/245/121 118/246/121 140/265/121
f 127/249/122 128/251/122 141/267/122
f 117/242/123 139/311/123 140/269/123
f 142/271/233 146/261/233 143/263/233
f 141/266/234 140/265/234 145/272/234
f 141/267/235 144/309/235 146/255/235
f 140/269/236 139/311/236 143/273/236
f 147/274/237 150/312/237 149/275/237
f 123/277/129 147/313/129 148/278/129
f 123/234/130 126/233/130 150/279/130
f 125/236/131 124/235/131 148/281/131
