# Blender 4.2.0
# www.blender.org
mtllib log_8.mtl
g log_8_Mesh
v -0.013419 0.011720 -0.312103
v 0.002989 0.019152 -0.311038
v -0.028207 -0.003948 -0.293958
v 0.006937 -0.042090 -0.321779
v 0.016893 -0.038143 -0.312050
v 0.028471 -0.023298 -0.313538
v 0.019986 -0.000522 -0.296810
v 0.011009 0.013968 -0.282029
v -0.013882 0.004957 -0.448549
v -0.020476 -0.006922 -0.441955
v -0.019170 -0.018812 -0.441955
v -0.014262 -0.029747 -0.441955
v 0.000693 -0.037166 -0.441955
v 0.011090 -0.032326 -0.448549
v 0.022251 -0.020323 -0.441955
v 0.020169 -0.006077 -0.441955
v 0.008555 0.005685 -0.441955
v 0.000089 0.008264 -0.441955
v 0.020994 0.026529 0.150611
v -0.014583 0.012303 0.192327
v -0.024959 0.003984 0.247831
v -0.024959 -0.018574 0.167982
v -0.011395 -0.038341 0.166491
v 0.008382 -0.044672 0.171786
v 0.025137 -0.038341 0.170070
v 0.039038 -0.027981 0.183299
v 0.034283 0.007505 0.190604
v 0.025334 0.022991 0.152178
v 0.000033 0.015367 -0.441955
v 0.015925 0.010117 -0.441955
v 0.027278 -0.004255 -0.441955
v 0.027450 -0.022061 -0.441955
v 0.016268 -0.036624 -0.448549
v 0.000448 -0.042828 -0.441955
v -0.017950 -0.033701 -0.441955
v -0.025878 -0.020179 -0.441955
v -0.025635 -0.005541 -0.441955
v -0.017460 0.009189 -0.448549
v 0.000080 0.007733 -0.432558
v 0.000670 -0.036612 -0.432558
v 0.008252 0.005251 -0.432558
v 0.010783 -0.031884 -0.432558
v -0.013569 0.004540 -0.432558
v -0.013941 -0.029365 -0.432558
v 0.019652 -0.006240 -0.432558
v 0.021731 -0.020158 -0.432558
v -0.018700 -0.018681 -0.432558
v -0.020011 -0.007066 -0.432558
v -0.019698 0.014516 -0.334377
v -0.021007 0.004354 -0.389877
v -0.000409 -0.043999 -0.408434
v 0.018392 -0.031025 -0.363799
v 0.028206 -0.022976 -0.334501
v 0.028700 0.001054 -0.367632
v 0.022685 0.013679 -0.342621
v 0.002221 0.018169 -0.332651
v -0.014493 -0.045386 -0.282266
v -0.028197 -0.019021 -0.320183
v -0.027594 -0.019873 -0.335409
v -0.021110 -0.031695 -0.355927
v -0.002035 0.015896 0.404401
v -0.020001 0.009709 0.404397
v -0.027801 -0.001515 0.404399
v -0.027801 -0.016181 0.410142
v -0.014710 -0.034164 0.408885
v 0.002938 -0.037390 0.404399
v 0.013883 -0.033767 0.404400
v 0.026201 -0.022553 0.404401
v 0.024053 0.001413 0.404403
v 0.017001 0.008025 0.404405
v -0.001876 0.021140 0.404401
v -0.023115 0.013826 0.404397
v -0.032707 0.000023 0.408885
v -0.032707 -0.017777 0.408885
v -0.017701 -0.038392 0.404399
v 0.003015 -0.044568 0.404399
v 0.016415 -0.040133 0.404399
v 0.031289 -0.026590 0.404401
v 0.028787 0.003701 0.404403
v 0.019704 0.012217 0.404405
v 0.002534 -0.036438 0.395057
v -0.001904 0.012932 0.395059
v -0.013216 -0.031743 0.395057
v -0.017938 0.007410 0.395056
v 0.012302 -0.033205 0.395058
v 0.015084 0.005907 0.395063
v -0.024900 -0.002607 0.395057
v -0.024900 -0.015695 0.395057
v 0.023293 -0.023197 0.395059
v 0.021376 0.000008 0.395061
v -0.006865 0.019790 -0.045552
v -0.032007 0.013515 0.017554
v -0.030457 0.007853 0.058199
v -0.041429 -0.018797 -0.025732
v -0.040335 -0.033002 -0.050730
v 0.001462 -0.044814 -0.017540
v 0.006164 -0.038242 -0.037346
v 0.018903 -0.025639 -0.031476
v 0.016412 0.001896 -0.035544
v 0.007843 0.012041 -0.030491
v -0.028247 0.032032 -0.329772
v -0.023032 0.031700 -0.340197
v -0.028381 0.057951 -0.327698
v -0.025576 0.057772 -0.333303
v -0.014160 0.015030 0.156464
v -0.024608 0.003643 0.129418
v -0.024607 -0.018609 0.151084
v -0.011461 -0.038325 0.148655
v -0.005169 -0.036811 0.102632
v 0.025098 -0.038325 0.138207
v 0.038818 -0.027616 0.150288
v 0.034416 -0.020402 0.128667
v 0.026777 0.009603 0.128788
v 0.012808 0.020329 0.122221
v -0.040323 -0.026012 0.149702
v -0.039555 -0.026428 0.159047
v -0.031679 -0.033585 0.148141
v -0.030599 -0.033853 0.157849
v -0.061421 -0.038654 0.163064
v -0.059541 -0.036707 0.167061
v -0.057077 -0.042729 0.162364
v -0.054987 -0.040658 0.166564
v 0.029664 0.037901 0.141809
v 0.026398 0.029660 0.148948
v 0.024446 0.031252 0.148243
v 0.022887 0.034048 0.130568
v 0.028615 0.041794 0.143821
v 0.028620 0.041766 0.148044
v 0.020312 0.050950 0.151733
v 0.020266 0.050924 0.143720
v 0.026816 0.009153 0.157641
v 0.012983 0.020428 0.152646
v -0.017942 0.035789 -0.324385
v -0.013686 0.035293 -0.334455
v -0.022840 0.059971 -0.324802
v -0.020551 0.059704 -0.330216
v 0.029877 0.028682 0.133854
v 0.022975 0.034098 0.145791
v 0.029896 0.028456 0.148291
v 0.029677 0.037836 0.146775
v 0.026978 0.048099 0.145450
v 0.026988 0.047980 0.153049
v 0.035335 0.048872 0.148406
v 0.035389 0.048833 0.150713
v 0.034825 0.049712 0.147987
v 0.034848 0.049696 0.151625
v 0.032093 0.044702 0.149265
v 0.032076 0.044714 0.145471
v 0.035844 0.042471 0.143727
v 0.035884 0.042442 0.147670
v 0.025023 0.030669 0.158154
v 0.023094 0.031642 0.156736
v 0.025496 0.032438 0.155376
v 0.024628 0.032876 0.154738
v 0.022874 0.038147 0.160640
v 0.021625 0.038777 0.159721
v 0.023181 0.039293 0.158840
v 0.022619 0.039576 0.158427
v 0.022947 0.060284 0.147291
v 0.023088 0.059588 0.150122
v 0.020281 0.059982 0.149815
v 0.020137 0.060659 0.146817
v -0.006224 0.014447 -0.178295
v -0.017582 0.012617 -0.248961
v -0.029332 0.000706 -0.163895
v -0.029324 -0.018909 -0.172957
v -0.017947 -0.034219 -0.194218
v -0.009666 -0.051513 -0.141745
v 0.017017 -0.038192 -0.174698
v 0.029176 -0.024469 -0.172507
v 0.027815 0.000687 -0.213735
v 0.024282 0.013485 -0.156008
v 0.018573 0.017112 0.231511
v -0.022593 0.014568 0.296748
v 0.023572 0.012945 0.250478
v -0.032707 -0.009117 0.282331
v -0.032707 -0.018176 0.286819
v -0.023016 -0.044315 0.308044
v 0.009643 -0.033750 0.242350
v 0.016902 -0.039237 0.285621
v 0.031289 -0.027286 0.292236
v 0.027661 -0.011358 0.339604
vn -0.2575 0.9661 0.0164
vn -0.8049 0.5928 -0.0282
vn -1.0000 0.0036 -0.0088
vn -0.8064 -0.5913 -0.0057
vn -0.7386 -0.6662 -0.1030
vn 0.4403 -0.8978 -0.0064
vn 0.7492 -0.6623 -0.0092
vn 0.9989 0.0465 -0.0046
vn 0.8017 0.5920 -0.0822
vn 0.0311 0.9995 0.0006
vn -0.2902 -0.9554 -0.0543
vn 0.0831 -0.0278 -0.9962
vn -0.5400 0.8027 0.2530
vn -0.9899 0.1268 -0.0633
vn -0.1577 -0.9733 -0.1667
vn 0.6235 -0.7810 -0.0356
vn 0.7479 -0.6602 -0.0691
vn 0.9355 0.3532 -0.0064
vn 0.9685 0.2158 0.1240
vn 0.3635 0.9293 0.0656
vn 0.9924 0.1120 -0.0511
vn 0.9113 0.4089 -0.0478
vn -0.0000 -0.0000 -1.0000
vn 0.2387 0.2876 -0.9275
vn -0.5433 0.0236 -0.8392
vn -0.2949 -0.2493 -0.9224
vn 0.4262 0.0034 -0.9046
vn 0.8732 -0.4847 -0.0506
vn -0.7088 -0.7032 -0.0553
vn 0.2436 -0.9694 -0.0301
vn -0.9874 -0.1475 -0.0568
vn -0.7299 0.6815 -0.0524
vn -0.4391 0.8978 -0.0332
vn 0.4438 0.8946 -0.0516
vn 0.3132 0.9481 -0.0553
vn 0.7833 0.6188 -0.0592
vn 0.9995 -0.0306 -0.0073
vn 0.7884 -0.6148 0.0208
vn 0.3565 -0.9340 -0.0235
vn -0.5083 -0.8612 0.0014
vn -0.8860 -0.4635 -0.0129
vn -0.9962 0.0165 0.0854
vn -0.9529 0.3016 -0.0328
vn -0.1627 0.9864 -0.0220
vn 0.6575 0.7534 -0.0078
vn -0.9083 0.4159 -0.0461
vn -0.9555 -0.1310 -0.2643
vn -0.9071 -0.4109 -0.0918
vn 0.2747 -0.9614 -0.0180
vn -0.4455 -0.8945 -0.0387
vn 0.6246 -0.7794 0.0494
vn 0.9962 0.0692 0.0530
vn 0.8460 0.5230 0.1038
vn -0.1088 0.9936 -0.0299
vn -0.6650 0.7303 0.1565
vn -0.3673 -0.8880 0.2766
vn 0.9550 -0.0000 0.2966
vn -0.3124 0.9436 0.1096
vn -0.0002 -0.0002 1.0000
vn 0.5542 -0.3850 0.7380
vn -0.2482 -0.0000 0.9687
vn -0.4427 -0.4862 0.7534
vn -0.0000 -0.0000 1.0000
vn -0.0001 -0.0001 1.0000
vn -0.0000 -0.0001 1.0000
vn 0.0001 -0.0001 1.0000
vn 0.0001 -0.0002 1.0000
vn -0.0002 -0.0000 1.0000
vn -0.0002 -0.0001 1.0000
vn 0.0002 -0.0001 1.0000
vn 0.8020 0.5718 0.1727
vn 0.3114 -0.9045 0.2914
vn -0.9503 -0.0785 0.3012
vn 0.2234 0.9558 0.1914
vn 0.7817 -0.5432 0.3063
vn -0.6540 -0.6977 0.2924
vn 0.6261 0.7772 -0.0625
vn 0.9630 0.2456 -0.1107
vn 0.9551 0.2782 -0.1016
vn 0.6562 -0.7503 -0.0801
vn -0.1194 -0.9911 0.0594
vn 0.0221 -0.9993 -0.0299
vn -0.8249 -0.5597 0.0791
vn -0.9927 0.0842 0.0865
vn -0.8405 0.5324 0.1005
vn -0.1779 0.9840 0.0121
vn -0.8824 -0.4704 -0.0082
vn -0.5263 0.3059 0.7934
vn -0.8549 -0.3074 -0.4179
vn 0.6434 0.7633 -0.0576
vn -0.2640 0.9514 -0.1585
vn -0.4408 -0.0739 0.8946
vn 0.4266 0.2699 -0.8632
vn -0.8935 0.0313 -0.4480
vn -0.1847 0.9801 0.0724
vn -0.6388 0.7694 -0.0041
vn -0.9999 0.0106 -0.0030
vn -0.2282 -0.9736 -0.0015
vn -0.3050 -0.9524 0.0003
vn 0.3534 -0.9355 -0.0009
vn 0.6053 -0.7959 -0.0128
vn 0.9910 0.1338 -0.0051
vn 0.8943 0.4086 -0.1822
vn 0.9872 -0.1594 -0.0038
vn -0.5047 0.8455 -0.1744
vn -0.4518 -0.3712 0.8112
vn -0.4683 0.8835 -0.0116
vn -0.0058 0.1955 -0.9807
vn -0.5080 -0.6558 0.5584
vn -0.3946 -0.2699 -0.8783
vn 0.3080 -0.9495 -0.0604
vn 0.2830 0.1897 0.9402
vn -0.3319 -0.3599 0.8719
vn 0.5087 0.1428 -0.8490
vn -0.6188 -0.4856 0.6175
vn -0.8067 0.5910 0.0027
vn -0.0774 0.2068 0.9753
vn -0.9874 -0.1582 0.0062
vn -0.8774 0.4798 0.0054
vn 0.6421 0.4615 -0.6122
vn -0.0401 0.3632 0.9309
vn 0.9997 0.0239 -0.0010
vn 0.3581 0.7087 0.6079
vn 0.2950 0.3780 0.8775
vn -0.2287 0.5648 0.7929
vn 0.9677 0.2520 0.0026
vn 0.8881 0.0935 0.4501
vn 0.9039 0.3106 -0.2942
vn 0.8455 0.5340 -0.0030
vn 0.9959 0.0876 -0.0222
vn 0.3692 -0.5557 0.7449
vn -0.0234 0.5889 -0.8079
vn -0.0536 0.4472 -0.8928
vn 0.0889 -0.4703 0.8780
vn 0.5970 -0.8022 -0.0120
vn -0.6464 0.7630 0.0058
vn 0.9444 0.1799 0.2753
vn 0.9897 -0.0609 0.1297
vn -0.8284 0.5484 -0.1139
vn 0.5779 0.7756 -0.2541
vn 0.0269 0.8411 0.5402
vn -0.6653 -0.4006 0.6301
vn -0.8126 0.0745 -0.5781
vn 0.6620 0.5040 -0.5547
vn 0.1104 0.9664 0.2323
vn -0.9988 -0.0265 0.0419
vn 0.9476 0.3193 0.0037
vn 0.3386 0.2491 -0.9074
vn 0.9076 0.1903 0.3742
vn 0.4127 0.9086 0.0645
vn 0.7856 0.6088 0.1099
vn 0.9922 0.1006 0.0731
vn 0.6922 -0.7204 0.0444
vn 0.7624 -0.6462 -0.0334
vn -0.3296 -0.9407 0.0803
vn -0.9944 0.0674 -0.0818
vn -0.9028 0.4296 -0.0184
vn -0.9697 -0.2442 0.0029
vn -0.3342 0.9417 -0.0395
vn -0.3256 0.9455 0.0049
vn 0.6729 0.7178 -0.1785
vn 0.9959 0.0823 -0.0364
vn 0.6732 -0.7394 0.0046
vn 0.3142 -0.9493 -0.0059
vn -0.2849 -0.9557 0.0745
vn -0.7974 -0.5980 0.0807
vn -1.0000 -0.0000 -0.0000
vn -0.8212 0.5706 -0.0000
vn 0.3821 0.9240 0.0140
vn -0.4101 0.9111 -0.0400
vn -0.7593 0.6480 -0.0593
vn -0.9999 0.0126 -0.0077
vn -0.8988 -0.4380 0.0203
vn 0.3823 -0.9147 0.1310
vn 0.3691 -0.9294 -0.0007
vn 0.7885 -0.6151 -0.0009
vn 0.9093 0.4060 -0.0916
vn 0.8061 0.5857 -0.0845
vn 0.3821 0.9222 0.0592
vn -0.2910 -0.9552 -0.0535
vn 0.5617 -0.1656 -0.8106
vn -0.9384 0.3433 -0.0407
vn -0.9962 0.0752 -0.0436
vn -0.4046 -0.9129 0.0544
vn 0.4560 -0.8834 -0.1083
vn 0.7874 -0.6161 -0.0194
vn 0.9807 0.1508 0.1240
vn 0.9065 0.3853 0.1728
vn 0.1901 0.9804 -0.0514
vn 0.9929 0.1091 -0.0475
vn 0.9123 0.4064 -0.0512
vn 0.1126 0.3368 -0.9348
vn -0.2588 -0.3118 -0.9142
vn -0.1157 -0.4322 -0.8943
vn 0.2713 0.2294 -0.9348
vn 0.8668 -0.4978 -0.0300
vn -0.7106 -0.7017 -0.0513
vn 0.2275 -0.9722 -0.0547
vn -0.9881 -0.1445 -0.0521
vn -0.7228 0.6902 -0.0330
vn -0.4230 0.9045 -0.0543
vn 0.2007 0.9792 -0.0291
vn 0.8329 0.5481 -0.0763
vn 0.9998 0.0096 -0.0198
vn 0.6536 -0.7567 -0.0110
vn 0.4927 -0.8690 0.0451
vn -0.4440 -0.8950 -0.0426
vn -0.8625 -0.5056 -0.0199
vn -0.9735 0.2280 -0.0163
vn -0.8768 0.4807 -0.0134
vn -0.3157 0.9475 -0.0504
vn 0.6345 0.7728 -0.0125
vn -0.8389 0.5390 -0.0760
vn -0.9718 0.2270 -0.0641
vn -0.8252 -0.5624 -0.0519
vn -0.3377 -0.9293 0.1499
vn 0.3624 -0.9220 0.1362
vn 0.5758 -0.8169 0.0347
vn 0.9905 0.1184 0.0697
vn 0.3280 0.9443 -0.0271
vn -0.2076 0.9766 0.0558
vn -0.6649 0.7303 0.1566
vn 0.9788 0.0747 0.1906
vn -0.3123 0.9436 0.1097
vn 0.2157 0.1631 0.9627
vn 0.6946 0.2623 0.6698
vn -0.1818 -0.1996 0.9629
vn 0.0359 -0.7390 0.6727
vn 0.0003 -0.0001 1.0000
vn 0.7942 0.5782 0.1870
vn -0.9543 -0.0855 0.2863
vn 0.2846 0.9549 0.0850
vn 0.7818 -0.5432 0.3063
vn -0.6541 -0.6976 0.2923
vn 0.5151 0.8548 -0.0631
vn 0.7648 0.6442 0.0036
vn 0.9923 0.0752 -0.0986
vn 0.7190 -0.6906 -0.0779
vn 0.6905 -0.7195 -0.0748
vn -0.3056 -0.9510 0.0465
vn -0.9453 -0.2996 0.1289
vn -0.9893 0.1112 0.0940
vn -0.8523 0.5126 0.1039
vn -0.1952 0.9806 0.0197
vn -0.8830 -0.4693 -0.0087
vn -0.2406 0.4049 0.8821
vn -0.8633 -0.4698 0.1844
vn 0.6936 0.6718 0.2600
vn -0.2652 0.9503 -0.1630
vn -0.1953 0.9807 -0.0021
vn -0.7800 0.6246 0.0383
vn -0.9996 -0.0203 -0.0208
vn -0.2276 -0.9738 -0.0000
vn -0.2355 -0.9698 -0.0641
vn 0.1070 -0.9853 -0.1330
vn 0.6159 -0.7878 -0.0011
vn 0.9612 0.2522 -0.1116
vn 0.9691 0.2467 0.0026
vn -0.4756 0.8762 0.0781
vn -0.2693 -0.4612 0.8454
vn -0.4303 0.8995 0.0755
vn 0.0634 0.1636 -0.9845
vn -0.5108 -0.6427 0.5710
vn -0.3948 -0.2696 -0.8783
vn 0.3471 -0.8981 0.2701
vn 0.2749 0.1988 0.9407
vn -0.5167 -0.2746 0.8109
vn -0.6640 -0.4758 0.5768
vn -0.0971 0.2126 0.9723
vn -0.8771 0.4802 0.0076
vn 0.4262 0.5963 -0.6802
vn 0.9997 0.0230 -0.0023
vn 0.9679 0.2511 0.0004
vn 0.9755 0.0972 0.1974
vn 0.7226 0.4611 -0.5151
vn 0.8575 0.5143 -0.0118
vn 0.9962 0.0862 -0.0093
vn 0.1290 -0.4181 0.8992
vn 0.6549 0.0201 -0.7554
vn -0.0621 0.5456 -0.8358
vn 0.0759 -0.2877 0.9547
vn 0.5969 -0.8022 -0.0121
vn -0.6466 0.7628 0.0053
vn 0.9826 -0.0744 0.1701
vn -0.7733 0.5915 -0.2286
vn 0.6614 0.7231 -0.1994
vn 0.0932 0.9722 0.2149
vn -1.0000 -0.0022 0.0058
vn 0.9503 0.3099 0.0291
vn 0.1974 0.2995 -0.9335
vn 0.0606 0.9974 -0.0399
vn 0.9979 -0.0130 0.0639
vn 0.9860 0.1550 0.0620
vn 0.7426 -0.6672 0.0584
vn 0.4834 -0.8746 0.0379
vn -0.7286 -0.6764 -0.1079
vn -0.8748 -0.4660 -0.1325
vn -0.9959 0.0374 -0.0819
vn -0.8618 0.5049 -0.0483
vn -0.1042 0.9945 -0.0090
vn -0.1205 0.9920 -0.0374
vn 0.9663 0.2561 0.0255
vn 0.9741 0.2261 -0.0014
vn 0.6398 -0.7685 -0.0032
vn -0.2757 -0.9583 -0.0752
vn 0.2016 -0.9778 -0.0570
vn -0.9379 -0.3468 0.0011
vn -0.9127 0.4076 -0.0294
vn 0.5363 0.8429 0.0438
vt 0.305215 0.070555
vt 0.306222 0.071850
vt 0.305728 0.073329
vt 0.306835 0.070913
vt 0.306897 0.073629
vt 0.305970 0.072317
vt 0.306301 0.074862
vt 0.305394 0.075025
vt 0.306721 0.071789
vt 0.307129 0.074435
vt 0.318505 0.070153
vt 0.319524 0.067486
vt 0.318652 0.071249
vt 0.319992 0.070562
vt 0.320698 0.067662
vt 0.320692 0.070610
vt 0.318826 0.076850
vt 0.319955 0.078925
vt 0.318855 0.079797
vt 0.320690 0.077502
vt 0.320597 0.080127
vt 0.304920 0.071166
vt 0.304387 0.073805
vt 0.317021 0.070792
vt 0.317448 0.070644
vt 0.317449 0.070795
vt 0.317701 0.087959
vt 0.318370 0.087639
vt 0.318655 0.088110
vt 0.305312 0.071447
vt 0.305421 0.071914
vt 0.306805 0.071473
vt 0.305913 0.070303
vt 0.318423 0.066772
vt 0.318536 0.068311
vt 0.320169 0.066609
vt 0.319192 0.065674
vt 0.320693 0.067223
vt 0.320009 0.067690
vt 0.318830 0.076412
vt 0.319939 0.077194
vt 0.320506 0.076229
vt 0.319864 0.075708
vt 0.304376 0.069903
vt 0.306343 0.074878
vt 0.306784 0.074642
vt 0.306771 0.074883
vt 0.306752 0.075124
vt 0.306324 0.075125
vt 0.312906 0.084191
vt 0.313124 0.083941
vt 0.313229 0.084285
vt 0.312666 0.084519
vt 0.312880 0.084632
vt 0.312138 0.084694
vt 0.312172 0.084807
vt 0.311306 0.084728
vt 0.311375 0.084591
vt 0.310807 0.084508
vt 0.311038 0.084458
vt 0.310807 0.084081
vt 0.311038 0.084111
vt 0.311190 0.083804
vt 0.311378 0.083915
vt 0.311827 0.083777
vt 0.311780 0.083668
vt 0.312369 0.083771
vt 0.312467 0.083664
vt 0.312841 0.084010
vt 0.334474 0.190987
vt 0.332839 0.191302
vt 0.333959 0.190824
vt 0.333500 0.191716
vt 0.333042 0.191629
vt 0.334605 0.191486
vt 0.334213 0.191716
vt 0.333045 0.191077
vt 0.333386 0.190892
vt 0.306357 0.074630
vt 0.306784 0.074440
vt 0.319398 0.073123
vt 0.318974 0.073404
vt 0.318969 0.073130
vt 0.317449 0.071088
vt 0.316720 0.071092
vt 0.319403 0.073404
vt 0.318969 0.073698
vt 0.302812 0.081692
vt 0.302384 0.081980
vt 0.302384 0.081705
vt 0.302817 0.082207
vt 0.303112 0.081971
vt 0.302837 0.082480
vt 0.302389 0.082208
vt 0.305326 0.067819
vt 0.304668 0.067826
vt 0.320363 0.074159
vt 0.319599 0.074158
vt 0.318811 0.074166
vt 0.320688 0.064977
vt 0.320021 0.064837
vt 0.319249 0.064973
vt 0.318551 0.064973
vt 0.307125 0.069249
vt 0.307439 0.071059
vt 0.306469 0.069230
vt 0.305883 0.069071
vt 0.306261 0.070063
vt 0.305249 0.070104
vt 0.320576 0.086682
vt 0.321068 0.088227
vt 0.320839 0.088622
vt 0.303546 0.084617
vt 0.304140 0.083611
vt 0.304579 0.084350
vt 0.304974 0.084455
vt 0.306365 0.081966
vt 0.306160 0.084930
vt 0.318686 0.077695
vt 0.319655 0.079283
vt 0.318080 0.080654
vt 0.320292 0.077771
vt 0.319901 0.080187
vt 0.321027 0.078050
vt 0.320677 0.080327
vt 0.319001 0.089508
vt 0.320439 0.087367
vt 0.319775 0.090493
vt 0.304774 0.081902
vt 0.306282 0.081075
vt 0.306662 0.083254
vt 0.320536 0.072659
vt 0.320912 0.072400
vt 0.320967 0.072668
vt 0.317727 0.070658
vt 0.317303 0.071012
vt 0.317300 0.070709
vt 0.326591 0.070303
vt 0.326169 0.070606
vt 0.326162 0.070341
vt 0.320590 0.072897
vt 0.321016 0.072881
vt 0.305195 0.072249
vt 0.306161 0.072256
vt 0.306035 0.072347
vt 0.306647 0.072525
vt 0.306431 0.072567
vt 0.306484 0.072871
vt 0.306714 0.072896
vt 0.305957 0.073269
vt 0.306111 0.073353
vt 0.305169 0.073368
vt 0.305192 0.073518
vt 0.304567 0.073448
vt 0.304658 0.073311
vt 0.303840 0.073192
vt 0.304056 0.073099
vt 0.303840 0.072556
vt 0.304064 0.072596
vt 0.304221 0.072363
vt 0.304359 0.072446
vt 0.305168 0.072140
vt 0.315004 0.164078
vt 0.314275 0.163217
vt 0.315021 0.163041
vt 0.315703 0.163953
vt 0.315770 0.163129
vt 0.316173 0.163598
vt 0.314548 0.164027
vt 0.314011 0.163351
vt 0.326796 0.071032
vt 0.326861 0.070599
vt 0.317729 0.070998
vt 0.317302 0.071366
vt 0.303809 0.077693
vt 0.304237 0.077212
vt 0.304232 0.077698
vt 0.321094 0.073180
vt 0.320474 0.073252
vt 0.317729 0.071395
vt 0.317300 0.071562
vt 0.303809 0.077032
vt 0.303814 0.077191
vt 0.320800 0.082761
vt 0.321206 0.085945
vt 0.320578 0.086079
vt 0.319166 0.086086
vt 0.319010 0.082750
vt 0.318811 0.086538
vt 0.320296 0.077105
vt 0.320204 0.073559
vt 0.321027 0.077360
vt 0.319202 0.073847
vt 0.318989 0.076360
vt 0.317513 0.073152
vt 0.318686 0.077322
vt 0.305804 0.077936
vt 0.306413 0.081594
vt 0.305426 0.081622
vt 0.304451 0.079650
vt 0.304485 0.081140
vt 0.303973 0.081687
vt 0.304953 0.079614
vt 0.306971 0.077416
vt 0.306221 0.080324
vt 0.307899 0.072612
vt 0.309787 0.072759
vt 0.309379 0.072287
vt 0.309871 0.072238
vt 0.304451 0.071522
vt 0.304532 0.071304
vt 0.303262 0.072650
vt 0.303730 0.072202
vt 0.304245 0.072665
vt 0.306452 0.072185
vt 0.306717 0.072058
vt 0.306717 0.072194
vt 0.309238 0.071780
vt 0.318386 0.087106
vt 0.318655 0.087118
vt 0.303322 0.071414
vt 0.304958 0.080250
vt 0.306785 0.079761
vt 0.306848 0.082236
vt 0.305375 0.081974
vt 0.317898 0.077514
vt 0.317855 0.077311
vt 0.319478 0.077806
vt 0.318813 0.087228
vt 0.321387 0.086476
vt 0.308839 0.088009
vt 0.308629 0.088509
vt 0.308450 0.088460
vt 0.313583 0.085857
vt 0.312893 0.085994
vt 0.312649 0.085596
vt 0.309221 0.087673
vt 0.308450 0.087673
vt 0.310887 0.067093
vt 0.310211 0.066928
vt 0.310584 0.066761
vt 0.316618 0.072104
vt 0.316444 0.072154
vt 0.316452 0.072057
vt 0.309950 0.066455
vt 0.310149 0.066371
vt 0.316625 0.077606
vt 0.313254 0.086172
vt 0.312649 0.086509
vt 0.316058 0.075800
vt 0.315778 0.075524
vt 0.316058 0.075441
vt 0.307014 0.090656
vt 0.307772 0.090383
vt 0.307772 0.090800
vt 0.314505 0.077048
vt 0.314539 0.076839
vt 0.314662 0.076990
vt 0.304376 0.079786
vt 0.315874 0.075272
vt 0.315997 0.075255
vt 0.317077 0.072565
vt 0.317561 0.072283
vt 0.317670 0.072731
vt 0.317166 0.072163
vt 0.317319 0.072093
vt 0.317319 0.072200
vt 0.307393 0.090311
vt 0.307548 0.089958
vt 0.312682 0.077926
vt 0.313126 0.077758
vt 0.313126 0.078131
vt 0.321803 0.086337
vt 0.321388 0.086174
vt 0.320613 0.072096
vt 0.320526 0.072186
vt 0.320526 0.072057
vt 0.312361 0.077929
vt 0.312417 0.077856
vt 0.312682 0.077809
vt 0.312361 0.077743
vt 0.321989 0.086466
vt 0.322286 0.086410
vt 0.322285 0.086569
vt 0.321803 0.086441
vt 0.321988 0.086378
vt 0.311417 0.072084
vt 0.311287 0.072095
vt 0.311431 0.072057
vt 0.311444 0.072230
vt 0.311325 0.072108
vt 0.305707 0.076085
vt 0.305705 0.075974
vt 0.305749 0.075966
vt 0.303897 0.076092
vt 0.303898 0.075971
vt 0.304090 0.076088
vt 0.303855 0.076191
vt 0.304000 0.076249
vt 0.305749 0.076178
vt 0.305507 0.076074
vt 0.308521 0.072209
vt 0.308343 0.072068
vt 0.308521 0.072057
vt 0.317654 0.072145
vt 0.317472 0.072091
vt 0.317654 0.072057
vt 0.303443 0.073649
vt 0.303458 0.073479
vt 0.303588 0.073639
vt 0.303588 0.073839
vt 0.312235 0.072061
vt 0.312121 0.072182
vt 0.312006 0.072057
vt 0.303295 0.073780
vt 0.303403 0.073646
vt 0.321513 0.077068
vt 0.321483 0.077032
vt 0.321513 0.077032
vt 0.314541 0.076681
vt 0.314596 0.076677
vt 0.314662 0.076680
vt 0.314641 0.076844
vt 0.303364 0.073485
vt 0.318677 0.077042
vt 0.318799 0.077095
vt 0.318677 0.077102
vt 0.317537 0.072057
vt 0.317670 0.072077
vt 0.322841 0.086504
vt 0.307214 0.089930
vt 0.307273 0.089718
vt 0.303536 0.071696
vt 0.303788 0.071687
vt 0.305763 0.076102
vt 0.305188 0.076424
vt 0.320251 0.082655
vt 0.319492 0.073434
vt 0.306519 0.077433
vt 0.304298 0.078795
vt 0.305722 0.085508
vt 0.306739 0.085505
vt 0.320948 0.091841
vt 0.320469 0.091840
vt 0.319102 0.091852
vt 0.319850 0.082670
vt 0.320668 0.082673
vt 0.319207 0.082669
vt 0.318371 0.082669
vt 0.304619 0.087002
vt 0.305665 0.086932
vt 0.303819 0.086978
vt 0.303279 0.086864
vt 0.304600 0.082301
vt 0.304846 0.085518
vt 0.306017 0.070531
vt 0.317020 0.070636
vt 0.317870 0.087616
vt 0.334638 0.191148
vt 0.306057 0.074420
vt 0.319398 0.073705
vt 0.302408 0.082475
vt 0.307790 0.069265
vt 0.306163 0.067679
vt 0.321228 0.086581
vt 0.303993 0.082439
vt 0.320474 0.072359
vt 0.316124 0.163326
vt 0.314011 0.163838
vt 0.326162 0.070992
vt 0.317727 0.071614
vt 0.304233 0.077070
vt 0.321300 0.082451
vt 0.308974 0.072812
vt 0.303262 0.072219
vt 0.306434 0.072057
vt 0.308974 0.071806
vt 0.303279 0.071531
vt 0.309265 0.088027
vt 0.309950 0.067342
vt 0.316618 0.072204
vt 0.316741 0.077694
vt 0.312841 0.086600
vt 0.315785 0.075938
vt 0.314455 0.076846
vt 0.304378 0.080104
vt 0.317249 0.072196
vt 0.317172 0.072057
vt 0.320613 0.072132
vt 0.312417 0.077804
vt 0.311287 0.072271
vt 0.303855 0.075966
vt 0.305600 0.076230
vt 0.308296 0.072222
vt 0.317471 0.072170
vt 0.312235 0.072203
vt 0.303214 0.073755
vt 0.321448 0.077068
vt 0.303338 0.073483
vt 0.318799 0.077032
vt 0.322871 0.086445
vt 0.307142 0.089722
vt 0.305176 0.073231
s 0
g log_8_Material
usemtl Material
f 2/1/1 164/2/1 163/3/1
f 164/2/2 3/4/2 165/5/2
f 3/6/3 166/7/3 165/8/3
f 58/9/4 167/10/4 166/7/4
f 167/11/5 4/12/5 168/13/5
f 4/12/6 169/14/6 168/13/6
f 169/14/7 6/15/7 170/16/7
f 6/17/8 171/18/8 170/19/8
f 171/18/9 8/20/9 172/21/9
f 8/22/10 163/3/10 172/23/10
f 18/24/11 41/25/11 39/26/11
f 49/27/12 134/28/12 56/29/12
f 49/30/13 3/6/13 1/31/13
f 59/32/14 3/6/14 50/33/14
f 60/34/15 4/12/15 57/35/15
f 52/36/16 4/12/16 51/37/16
f 53/38/17 5/39/17 52/36/17
f 53/40/18 7/41/18 6/17/18
f 55/42/19 7/41/19 54/43/19
f 55/44/20 2/1/20 8/22/20
f 11/45/21 48/46/21 47/47/21
f 11/45/22 44/48/22 12/49/22
f 17/50/23 29/51/23 30/52/23
f 16/53/23 30/52/23 31/54/23
f 15/55/23 31/54/23 32/56/23
f 15/55/24 33/57/24 14/58/24
f 14/58/25 34/59/25 13/60/25
f 13/60/23 35/61/23 12/62/23
f 12/62/23 36/63/23 11/64/23
f 10/65/23 36/63/23 37/66/23
f 9/67/26 37/66/26 38/68/26
f 9/67/27 29/51/27 18/69/27
f 39/70/23 44/71/23 43/72/23
f 39/70/23 42/73/23 40/74/23
f 42/73/23 45/75/23 46/76/23
f 43/72/23 47/77/23 48/78/23
f 10/79/28 43/80/28 48/46/28
f 17/81/29 45/82/29 41/83/29
f 18/24/30 43/84/30 9/85/30
f 16/86/31 46/87/31 45/82/31
f 15/88/32 42/89/32 46/90/32
f 13/91/33 42/89/33 14/92/33
f 12/93/34 40/94/34 13/91/34
f 29/95/35 55/44/35 30/96/35
f 30/97/36 54/43/36 31/98/36
f 32/99/37 54/43/37 53/40/37
f 32/100/38 52/36/38 33/101/38
f 33/101/39 51/37/39 34/102/39
f 35/103/40 51/37/40 60/34/40
f 36/104/41 60/105/41 59/32/41
f 36/104/42 50/33/42 37/106/42
f 38/107/43 50/33/43 49/30/43
f 29/95/44 49/108/44 56/109/44
f 131/110/45 173/111/45 175/112/45
f 174/113/46 21/114/46 176/115/46
f 21/114/47 177/116/47 176/115/47
f 177/116/48 23/117/48 178/118/48
f 23/119/49 179/120/49 178/121/49
f 179/120/50 25/122/50 180/123/50
f 180/123/51 26/124/51 181/125/51
f 181/126/52 27/127/52 182/128/52
f 27/127/53 175/112/53 182/128/53
f 173/129/54 20/130/54 174/131/54
f 67/132/55 89/133/55 85/134/55
f 70/135/56 82/136/56 86/137/56
f 63/138/57 88/139/57 87/140/57
f 66/141/58 85/134/58 81/142/58
f 61/143/59 72/144/59 62/145/59
f 62/145/60 73/146/60 63/147/60
f 64/148/61 73/146/61 74/149/61
f 65/150/62 74/149/62 75/151/62
f 66/152/63 75/151/63 76/153/63
f 66/152/64 77/154/64 67/155/64
f 67/155/65 78/156/65 68/157/65
f 68/157/66 79/158/66 69/159/66
f 69/159/67 80/160/67 70/161/67
f 61/143/68 80/160/68 71/162/68
f 81/163/69 86/164/69 82/165/69
f 82/165/63 83/166/63 81/163/63
f 84/167/63 88/168/63 83/166/63
f 85/169/70 90/170/70 86/164/70
f 65/171/71 88/139/71 64/172/71
f 61/173/72 84/174/72 82/136/72
f 68/175/73 90/176/73 89/177/73
f 66/141/74 83/178/74 65/179/74
f 62/180/75 87/181/75 84/174/75
f 70/182/76 90/176/76 69/183/76
f 100/184/77 114/185/77 113/186/77
f 112/187/78 100/184/78 113/186/78
f 98/188/79 112/187/79 111/189/79
f 110/190/80 98/191/80 111/192/80
f 96/193/81 110/190/81 109/194/81
f 95/195/82 109/194/82 108/196/82
f 94/197/83 108/198/83 107/199/83
f 93/200/84 107/199/84 106/201/84
f 105/202/85 93/200/85 106/201/85
f 114/203/86 92/204/86 105/205/86
f 58/9/87 60/105/87 57/206/87
f 1/207/88 133/208/88 101/209/88
f 49/30/89 101/210/89 102/211/89
f 56/212/90 133/213/90 2/214/90
f 136/215/91 103/216/91 135/217/91
f 133/208/92 103/218/92 101/209/92
f 134/28/93 104/219/93 136/220/93
f 101/210/94 104/221/94 102/211/94
f 132/222/95 105/205/95 20/130/95
f 20/130/96 106/223/96 21/224/96
f 106/201/97 22/225/97 21/114/97
f 108/196/98 118/226/98 117/227/98
f 108/196/99 24/228/99 23/119/99
f 24/228/100 110/190/100 25/122/100
f 25/122/101 111/192/101 26/124/101
f 111/189/102 27/127/102 26/229/102
f 112/187/103 131/110/103 27/127/103
f 113/186/104 139/230/104 131/110/104
f 116/231/105 119/232/105 120/233/105
f 22/234/106 118/235/106 23/236/106
f 107/237/107 116/231/107 22/238/107
f 107/239/108 117/240/108 115/241/108
f 119/242/109 122/243/109 120/244/109
f 115/241/110 121/245/110 119/246/110
f 118/226/111 121/247/111 117/227/111
f 116/248/112 122/249/112 118/235/112
f 138/250/113 142/251/113 129/252/113
f 114/253/114 137/254/114 113/255/114
f 28/256/115 152/257/115 19/258/115
f 132/222/116 126/259/116 114/203/116
f 129/252/117 160/260/117 161/261/117
f 138/262/118 130/263/118 126/264/118
f 147/265/119 145/266/119 148/267/119
f 126/268/120 141/269/120 137/254/120
f 28/270/121 132/271/121 131/272/121
f 123/273/122 139/230/122 137/274/122
f 125/275/123 139/276/123 138/277/123
f 28/270/124 139/278/124 124/279/124
f 19/280/125 138/281/125 132/271/125
f 128/282/126 141/283/126 142/284/126
f 128/282/127 139/230/127 140/285/127
f 127/286/128 137/274/128 141/283/128
f 144/287/129 145/288/129 146/289/129
f 150/290/130 143/291/130 144/287/130
f 147/292/131 144/293/131 146/294/131
f 148/295/132 143/296/132 149/297/132
f 127/298/133 149/297/133 123/299/133
f 128/300/134 150/301/134 147/292/134
f 140/302/135 149/303/135 150/304/135
f 128/305/136 148/306/136 127/307/136
f 153/308/137 155/309/137 151/310/137
f 28/311/138 153/308/138 151/310/138
f 19/312/139 154/313/139 125/314/139
f 124/315/140 154/316/140 153/308/140
f 156/317/141 157/318/141 158/319/141
f 152/257/142 155/320/142 156/321/142
f 152/257/143 158/322/143 154/323/143
f 154/316/144 157/324/144 153/308/144
f 159/325/145 161/326/145 160/327/145
f 130/263/146 161/328/146 162/329/146
f 141/283/147 160/330/147 142/284/147
f 130/331/148 159/332/148 141/269/148
f 133/213/149 136/333/149 135/334/149
f 172/23/150 91/335/150 100/336/150
f 99/337/151 172/21/151 100/184/151
f 170/19/152 99/337/152 98/188/152
f 97/338/153 170/16/153 98/191/153
f 168/13/154 97/338/154 96/193/154
f 95/195/155 168/13/155 96/193/155
f 166/7/156 95/339/156 94/197/156
f 165/8/157 94/197/157 93/200/157
f 92/340/158 165/8/158 93/200/158
f 163/3/159 92/204/159 91/335/159
f 71/341/160 174/131/160 72/342/160
f 182/128/161 80/343/161 79/344/161
f 78/345/162 182/128/162 79/344/162
f 77/346/163 181/125/163 78/347/163
f 76/348/164 180/123/164 77/346/164
f 178/121/165 76/348/165 75/349/165
f 74/350/166 178/118/166 75/351/166
f 73/352/167 177/116/167 74/350/167
f 174/113/168 73/352/168 72/353/168
f 175/354/169 71/341/169 80/355/169
f 2/1/170 1/356/170 164/2/170
f 164/2/171 1/356/171 3/4/171
f 3/6/172 58/9/172 166/7/172
f 58/9/173 57/206/173 167/10/173
f 167/11/174 57/35/174 4/12/174
f 4/12/175 5/39/175 169/14/175
f 169/14/176 5/39/176 6/15/176
f 6/17/177 7/41/177 171/18/177
f 171/18/178 7/41/178 8/20/178
f 8/22/179 2/1/179 163/3/179
f 18/24/180 17/357/180 41/25/180
f 49/27/181 102/358/181 134/28/181
f 49/30/182 50/33/182 3/6/182
f 59/32/183 58/9/183 3/6/183
f 60/34/184 51/37/184 4/12/184
f 52/36/185 5/39/185 4/12/185
f 53/38/186 6/15/186 5/39/186
f 53/40/187 54/43/187 7/41/187
f 55/42/188 8/20/188 7/41/188
f 55/44/189 56/109/189 2/1/189
f 11/45/190 10/79/190 48/46/190
f 11/45/191 47/47/191 44/48/191
f 17/50/23 18/69/23 29/51/23
f 16/53/23 17/50/23 30/52/23
f 15/55/23 16/53/23 31/54/23
f 15/55/192 32/56/192 33/57/192
f 14/58/193 33/57/193 34/59/193
f 13/60/23 34/59/23 35/61/23
f 12/62/23 35/61/23 36/63/23
f 10/65/23 11/64/23 36/63/23
f 9/67/194 10/65/194 37/66/194
f 9/67/195 38/68/195 29/51/195
f 39/70/23 40/74/23 44/71/23
f 39/70/23 41/359/23 42/73/23
f 42/73/23 41/359/23 45/75/23
f 43/72/23 44/71/23 47/77/23
f 10/79/196 9/360/196 43/80/196
f 17/81/197 16/86/197 45/82/197
f 18/24/198 39/26/198 43/84/198
f 16/86/199 15/361/199 46/87/199
f 15/88/200 14/92/200 42/89/200
f 13/91/201 40/94/201 42/89/201
f 12/93/34 44/362/34 40/94/34
f 29/95/202 56/109/202 55/44/202
f 30/97/203 55/42/203 54/43/203
f 32/99/204 31/98/204 54/43/204
f 32/100/205 53/38/205 52/36/205
f 33/101/206 52/36/206 51/37/206
f 35/103/207 34/102/207 51/37/207
f 36/104/208 35/363/208 60/105/208
f 36/104/209 59/32/209 50/33/209
f 38/107/210 37/106/210 50/33/210
f 29/95/211 38/364/211 49/108/211
f 131/110/212 132/365/212 173/111/212
f 174/113/213 20/366/213 21/114/213
f 21/114/214 22/225/214 177/116/214
f 177/116/215 22/225/215 23/117/215
f 23/119/216 24/228/216 179/120/216
f 179/120/217 24/228/217 25/122/217
f 180/123/218 25/122/218 26/124/218
f 181/126/219 26/229/219 27/127/219
f 27/127/220 131/110/220 175/112/220
f 173/129/221 132/222/221 20/130/221
f 67/132/222 68/367/222 89/133/222
f 70/135/56 61/173/56 82/136/56
f 63/138/223 64/172/223 88/139/223
f 66/141/224 67/132/224 85/134/224
f 61/143/68 71/162/68 72/144/68
f 62/145/225 72/144/225 73/146/225
f 64/148/226 63/147/226 73/146/226
f 65/150/227 64/148/227 74/149/227
f 66/152/228 65/150/228 75/151/228
f 66/152/63 76/153/63 77/154/63
f 67/155/65 77/154/65 78/156/65
f 68/157/66 78/156/66 79/158/66
f 69/159/67 79/158/67 80/160/67
f 61/143/68 70/161/68 80/160/68
f 81/163/65 85/169/65 86/164/65
f 82/165/68 84/167/68 83/166/68
f 84/167/229 87/368/229 88/168/229
f 85/169/64 89/369/64 90/170/64
f 65/171/230 83/370/230 88/139/230
f 61/173/72 62/180/72 84/174/72
f 68/175/231 69/183/231 90/176/231
f 66/141/232 81/142/232 83/178/232
f 62/180/233 63/371/233 87/181/233
f 70/182/234 86/372/234 90/176/234
f 100/184/235 91/373/235 114/185/235
f 112/187/236 99/337/236 100/184/236
f 98/188/237 99/337/237 112/187/237
f 110/190/238 97/338/238 98/191/238
f 96/193/239 97/338/239 110/190/239
f 95/195/240 96/193/240 109/194/240
f 94/197/241 95/339/241 108/198/241
f 93/200/242 94/197/242 107/199/242
f 105/202/243 92/340/243 93/200/243
f 114/203/244 91/335/244 92/204/244
f 58/9/245 59/32/245 60/105/245
f 1/207/246 2/374/246 133/208/246
f 49/30/247 1/31/247 101/210/247
f 56/212/248 134/375/248 133/213/248
f 136/215/249 104/376/249 103/216/249
f 133/208/92 135/377/92 103/218/92
f 134/28/93 102/358/93 104/219/93
f 101/210/94 103/378/94 104/221/94
f 132/222/250 114/203/250 105/205/250
f 20/130/251 105/205/251 106/223/251
f 106/201/252 107/199/252 22/225/252
f 108/196/253 23/119/253 118/226/253
f 108/196/254 109/194/254 24/228/254
f 24/228/255 109/194/255 110/190/255
f 25/122/256 110/190/256 111/192/256
f 111/189/257 112/187/257 27/127/257
f 112/187/258 113/186/258 131/110/258
f 113/186/104 137/274/104 139/230/104
f 116/231/259 115/379/259 119/232/259
f 22/234/260 116/248/260 118/235/260
f 107/237/261 115/379/261 116/231/261
f 107/239/262 108/380/262 117/240/262
f 119/242/263 121/381/263 122/243/263
f 115/241/264 117/240/264 121/245/264
f 118/226/265 122/382/265 121/247/265
f 116/248/266 120/383/266 122/249/266
f 138/250/267 139/384/267 142/251/267
f 114/253/114 126/268/114 137/254/114
f 28/256/268 151/385/268 152/257/268
f 132/222/116 138/386/116 126/259/116
f 129/252/269 142/251/269 160/260/269
f 138/262/118 129/387/118 130/263/118
f 147/265/270 146/388/270 145/266/270
f 126/268/271 130/331/271 141/269/271
f 28/270/121 19/280/121 132/271/121
f 123/273/272 140/285/272 139/230/272
f 125/275/123 124/389/123 139/276/123
f 28/270/124 131/272/124 139/278/124
f 19/280/125 125/390/125 138/281/125
f 128/282/273 127/286/273 141/283/273
f 128/282/274 142/284/274 139/230/274
f 127/286/275 123/273/275 137/274/275
f 144/287/276 143/291/276 145/288/276
f 150/290/277 149/391/277 143/291/277
f 147/292/278 150/301/278 144/293/278
f 148/295/279 145/392/279 143/296/279
f 127/298/280 148/295/280 149/297/280
f 128/300/281 140/393/281 150/301/281
f 140/302/282 123/394/282 149/303/282
f 128/305/283 147/395/283 148/306/283
f 153/308/137 157/324/137 155/309/137
f 28/311/284 124/315/284 153/308/284
f 19/312/285 152/396/285 154/313/285
f 124/315/286 125/397/286 154/316/286
f 156/317/141 155/398/141 157/318/141
f 152/257/142 151/385/142 155/320/142
f 152/257/143 156/321/143 158/322/143
f 154/316/144 158/399/144 157/324/144
f 159/325/287 162/400/287 161/326/287
f 130/263/288 129/387/288 161/328/288
f 141/283/289 159/401/289 160/330/289
f 130/331/290 162/402/290 159/332/290
f 133/213/149 134/375/149 136/333/149
f 172/23/291 163/3/291 91/335/291
f 99/337/292 171/18/292 172/21/292
f 170/19/293 171/18/293 99/337/293
f 97/338/294 169/14/294 170/16/294
f 168/13/295 169/14/295 97/338/295
f 95/195/296 167/11/296 168/13/296
f 166/7/297 167/10/297 95/339/297
f 165/8/298 166/7/298 94/197/298
f 92/340/299 164/403/299 165/8/299
f 163/3/300 164/2/300 92/204/300
f 71/341/301 173/129/301 174/131/301
f 182/128/302 175/112/302 80/343/302
f 78/345/303 181/126/303 182/128/303
f 77/346/304 180/123/304 181/125/304
f 76/348/305 179/120/305 180/123/305
f 178/121/306 179/120/306 76/348/306
f 74/350/307 177/116/307 178/118/307
f 73/352/167 176/115/167 177/116/167
f 174/113/308 176/115/308 73/352/308
f 175/354/309 173/129/309 71/341/309
