# Blender 4.2.0
# www.blender.org
mtllib log_6.mtl
g log_6_Mesh
v -0.001258 0.070683 0.290197
v -0.042163 0.056969 0.290197
v -0.067684 0.020721 0.290197
v -0.067849 -0.024334 0.309877
v -0.042163 -0.062747 0.290197
v -0.003023 -0.074888 0.290197
v 0.039646 -0.060582 0.290197
v 0.065168 -0.024334 0.290197
v 0.065168 0.020721 0.290197
v 0.039646 0.056969 0.277084
v -0.001258 0.086746 0.069812
v 0.001414 0.086246 -0.136966
v -0.065159 0.043456 -0.109164
v -0.035230 0.070913 0.132427
v -0.079385 0.020299 -0.097067
v -0.075844 0.017760 0.123432
v -0.077054 -0.010962 -0.237169
v -0.081473 -0.017129 0.077951
v -0.036011 -0.065102 -0.197573
v -0.048945 -0.060706 0.039625
v 0.010341 -0.080132 -0.181409
v -0.001870 -0.080952 0.081626
v 0.039693 -0.074468 -0.232821
v 0.051681 -0.064908 0.109080
v 0.073407 -0.031076 -0.205996
v 0.073486 -0.032319 0.115218
v 0.078956 0.038859 -0.145145
v 0.080806 0.044674 0.000743
v 0.050448 0.070431 -0.100780
v 0.045851 0.070748 0.025436
v -0.001258 0.085226 0.277084
v -0.050833 0.068604 0.290197
v -0.081472 0.025088 0.290197
v -0.077707 -0.028701 0.309877
v -0.050833 -0.072217 0.290197
v -0.000405 -0.088553 0.290197
v 0.048317 -0.072217 0.290197
v 0.078956 -0.028701 0.290197
v 0.078956 0.025088 0.290197
v 0.048317 0.068604 0.290197
v -0.041197 0.055617 0.266642
v -0.041197 -0.049896 0.266642
v 0.038727 0.055617 0.266642
v 0.038727 -0.059225 0.266642
v -0.001235 0.069016 0.266642
v -0.066130 0.020205 0.266642
v -0.058463 -0.023812 0.266642
v -0.002959 -0.073201 0.266642
v 0.063661 -0.023812 0.266642
v 0.063661 0.020204 0.266642
v 0.009791 0.071966 -0.260673
v -0.050154 0.045817 -0.260676
v -0.067912 0.025892 -0.260674
v -0.066639 -0.008137 -0.260688
v -0.029739 -0.054370 -0.267814
v 0.011885 -0.067464 -0.260654
v 0.034691 -0.059868 -0.260686
v 0.063412 -0.029793 -0.267844
v 0.058548 0.027135 -0.267840
v 0.040699 0.043582 -0.260682
v -0.057543 0.056013 -0.260680
v 0.010769 0.085811 -0.260677
v -0.080388 0.030379 -0.260681
v -0.078779 -0.012644 -0.260696
v -0.037011 -0.064976 -0.267816
v 0.011994 -0.080392 -0.260654
v 0.041476 -0.070572 -0.260687
v 0.075882 -0.034545 -0.260691
v 0.073320 0.040392 -0.260686
v 0.050817 0.061127 -0.260685
v 0.010895 -0.061189 -0.237237
v 0.008991 0.065469 -0.237255
v -0.045475 0.041715 -0.237257
v -0.026928 -0.049294 -0.237239
v 0.031617 -0.054291 -0.237266
v 0.039486 0.046675 -0.237263
v -0.061613 0.023612 -0.237255
v -0.060457 -0.007300 -0.237269
v 0.057698 -0.026972 -0.237270
v 0.055691 0.031734 -0.237266
vn 0.3172 -0.9460 0.0673
vn -0.8269 -0.5586 0.0652
vn 0.3162 0.9487 0.0070
vn 0.3232 0.9463 0.0019
vn -0.8424 0.5375 0.0383
vn 0.8177 0.5757 -0.0030
vn 0.6069 0.7945 0.0201
vn 0.9995 -0.0000 -0.0312
vn 0.9954 -0.0955 -0.0006
vn 0.7137 0.6993 -0.0390
vn 0.8176 -0.5756 -0.0137
vn 0.8313 -0.5558 -0.0024
vn 0.9981 -0.0364 -0.0492
vn 0.3177 -0.9476 -0.0323
vn 0.2822 -0.9593 0.0101
vn 0.7644 -0.6404 0.0752
vn -0.3080 -0.9508 -0.0325
vn -0.3795 -0.9250 -0.0205
vn 0.2020 -0.9794 0.0074
vn -0.8532 -0.5214 -0.0122
vn -0.8107 -0.5850 -0.0228
vn -0.3074 -0.9516 -0.0033
vn -0.9963 -0.0807 -0.0301
vn -0.9904 0.1370 0.0175
vn -0.8005 -0.5993 0.0103
vn -0.8155 0.5742 -0.0723
vn -0.7960 0.6049 0.0198
vn -0.9968 -0.0797 0.0012
vn -0.3221 0.9465 -0.0180
vn -0.4815 0.8755 -0.0399
vn 0.3423 0.9381 -0.0538
vn -0.0000 -0.0000 1.0000
vn -0.3172 0.9460 0.0669
vn -0.9980 -0.0000 0.0639
vn 0.2046 0.1525 0.9669
vn -0.1466 0.3308 0.9322
vn 0.2739 -0.2508 0.9285
vn -0.6948 -0.2445 0.6764
vn 0.0281 0.6694 0.7424
vn -0.8159 0.5745 0.0649
vn -0.3143 -0.9375 0.1490
vn 0.8159 -0.5744 0.0664
vn 0.9833 0.1713 0.0611
vn 0.8584 0.4756 0.1921
vn 0.4679 0.7676 0.4380
vn -0.5272 0.8486 0.0438
vn -0.3056 0.9164 -0.2584
vn -0.6766 -0.7338 0.0619
vn 0.7215 -0.6431 -0.2567
vn 0.2915 0.9270 -0.2361
vn 0.0002 -0.0003 -1.0000
vn 0.0007 0.0004 -1.0000
vn -0.0382 0.1047 -0.9938
vn 0.1395 -0.0954 -0.9856
vn -0.0011 -0.0000 -1.0000
vn -0.1476 -0.0934 -0.9846
vn 0.5096 0.0436 -0.8593
vn 0.0426 0.4373 -0.8983
vn -0.0003 -0.0000 -1.0000
vn -0.0006 0.0004 -1.0000
vn -0.0014 0.0001 -1.0000
vn -0.0000 -0.0001 -1.0000
vn -0.0002 -0.0000 -1.0000
vn 0.9659 0.0363 -0.2563
vn -0.6596 -0.7182 -0.2217
vn -0.7320 0.6522 -0.1970
vn 0.7564 0.6305 -0.1742
vn 0.3887 -0.8912 -0.2338
vn -0.9955 -0.0340 -0.0879
vn -0.8090 -0.5696 0.1450
vn 0.3255 0.9455 0.0046
vn 0.3012 0.9535 0.0086
vn -0.7464 0.6652 0.0176
vn 0.6224 0.7806 0.0568
vn 0.7154 0.6978 -0.0369
vn 0.9955 -0.0947 -0.0000
vn 0.9975 -0.0706 -0.0098
vn 0.6774 0.7352 -0.0233
vn 0.8317 -0.5552 -0.0070
vn 0.7928 -0.6094 -0.0108
vn 0.9985 0.0341 0.0430
vn 0.3041 -0.9519 -0.0368
vn 0.2222 -0.9748 0.0195
vn 0.7223 -0.6898 -0.0502
vn -0.3601 -0.9318 -0.0455
vn -0.3087 -0.9512 0.0008
vn 0.3139 -0.9429 -0.1117
vn -0.8145 -0.5792 -0.0327
vn -0.7853 -0.6183 -0.0314
vn -0.3004 -0.9538 0.0026
vn -0.9912 0.1304 0.0226
vn -0.9998 -0.0108 -0.0142
vn -0.7708 -0.6290 0.1015
vn -0.7891 0.6120 -0.0535
vn -0.8411 0.5392 0.0429
vn -0.9964 -0.0373 0.0757
vn -0.4123 0.9110 0.0067
vn -0.5433 0.8395 -0.0091
vn 0.5244 0.8507 0.0367
vn -0.2191 0.6534 0.7246
vn 0.1257 0.3967 0.9093
vn 0.1607 -0.3628 0.9179
vn -0.0309 -0.7374 0.6747
vn -0.2978 -0.9523 0.0671
vn 0.9731 0.0892 0.2123
vn 0.7906 0.5233 0.3179
vn 0.2956 0.9528 0.0690
vn -0.3996 0.9161 -0.0334
vn -0.3055 0.9164 -0.2585
vn -0.6659 -0.7444 0.0497
vn 0.7214 -0.6431 -0.2568
vn 0.3236 0.9282 -0.1838
vn 0.0005 -0.0004 -1.0000
vn 0.0005 0.0005 -1.0000
vn -0.1029 0.0708 -0.9922
vn 0.1450 0.0012 -0.9894
vn -0.0012 -0.0006 -1.0000
vn 0.3635 -0.3473 -0.8644
vn 0.4252 0.0146 -0.9050
vn -0.0001 -0.0001 -1.0000
vn -0.0004 -0.0003 -1.0000
vn 0.0008 -0.0000 -1.0000
vn -0.0004 -0.0001 -1.0000
vn 0.0001 -0.0002 -1.0000
vn -0.0001 0.0001 -1.0000
vn -0.5228 -0.8482 0.0849
vn -0.7001 0.6684 -0.2511
vn 0.7619 0.6082 -0.2229
vn 0.3887 -0.8912 -0.2339
vn -0.9809 -0.0838 -0.1756
vt 0.312802 0.072057
vt 0.313231 0.072358
vt 0.312802 0.072354
vt 0.313041 0.072713
vt 0.313231 0.072990
vt 0.312802 0.073001
vt 0.324848 0.077946
vt 0.325789 0.076108
vt 0.325780 0.077837
vt 0.324900 0.075738
vt 0.325738 0.074383
vt 0.308304 0.076843
vt 0.308660 0.075582
vt 0.308756 0.076949
vt 0.323970 0.077948
vt 0.324112 0.075532
vt 0.324822 0.074685
vt 0.314655 0.079162
vt 0.315669 0.080624
vt 0.314717 0.080622
vt 0.314723 0.076483
vt 0.316066 0.078211
vt 0.324085 0.074316
vt 0.324728 0.073352
vt 0.313818 0.080617
vt 0.313988 0.079107
vt 0.315996 0.076030
vt 0.315976 0.076994
vt 0.318406 0.077735
vt 0.319272 0.076232
vt 0.319176 0.077742
vt 0.318743 0.073803
vt 0.318427 0.075995
vt 0.313818 0.076254
vt 0.314680 0.076027
vt 0.317442 0.077725
vt 0.317519 0.075635
vt 0.318805 0.073143
vt 0.319249 0.073380
vt 0.316717 0.075947
vt 0.316746 0.077882
vt 0.316891 0.073319
vt 0.317864 0.073660
vt 0.308681 0.078788
vt 0.309427 0.080353
vt 0.308483 0.080177
vt 0.309347 0.078417
vt 0.317874 0.073074
vt 0.307602 0.078851
vt 0.307611 0.080167
vt 0.309380 0.075788
vt 0.326184 0.076631
vt 0.326413 0.077948
vt 0.307248 0.078325
vt 0.305281 0.081242
vt 0.305525 0.080850
vt 0.305531 0.081225
vt 0.315410 0.086806
vt 0.314894 0.086588
vt 0.315318 0.086560
vt 0.304423 0.076321
vt 0.304851 0.076690
vt 0.304422 0.076692
vt 0.308030 0.081176
vt 0.308282 0.080777
vt 0.308282 0.081213
vt 0.307714 0.081573
vt 0.307558 0.081476
vt 0.306773 0.081598
vt 0.306756 0.081688
vt 0.305971 0.081501
vt 0.305860 0.081595
vt 0.305841 0.080453
vt 0.305998 0.080550
vt 0.306766 0.080307
vt 0.306772 0.080428
vt 0.307696 0.080431
vt 0.307554 0.080531
vt 0.308024 0.080816
vt 0.304852 0.077015
vt 0.304423 0.077025
vt 0.337820 0.188934
vt 0.337245 0.189558
vt 0.336716 0.189653
vt 0.335429 0.189333
vt 0.335890 0.188671
vt 0.336632 0.188550
vt 0.337366 0.188650
vt 0.313231 0.072709
vt 0.308639 0.082035
vt 0.308218 0.081700
vt 0.308646 0.081692
vt 0.308211 0.082378
vt 0.308211 0.082036
vt 0.315192 0.086232
vt 0.314660 0.085991
vt 0.315410 0.085863
vt 0.314751 0.086221
vt 0.307352 0.076601
vt 0.308132 0.075577
vt 0.306492 0.082236
vt 0.306916 0.082324
vt 0.306490 0.082370
vt 0.310960 0.071746
vt 0.310514 0.071880
vt 0.310537 0.071716
vt 0.315015 0.073834
vt 0.315441 0.074036
vt 0.315013 0.074030
vt 0.306918 0.081880
vt 0.306918 0.082203
vt 0.317850 0.083893
vt 0.316795 0.083579
vt 0.318044 0.083819
vt 0.316269 0.083690
vt 0.316754 0.083682
vt 0.315625 0.083846
vt 0.316171 0.083589
vt 0.315837 0.083893
vt 0.315455 0.084397
vt 0.316040 0.084708
vt 0.315686 0.084380
vt 0.316370 0.084904
vt 0.315871 0.084783
vt 0.317177 0.084800
vt 0.316426 0.084802
vt 0.317866 0.084443
vt 0.317276 0.084904
vt 0.317863 0.084243
vt 0.318231 0.084458
vt 0.318221 0.084203
vt 0.308262 0.090524
vt 0.307429 0.090715
vt 0.307821 0.090531
vt 0.307614 0.091456
vt 0.309393 0.091007
vt 0.307965 0.091541
vt 0.307296 0.091159
vt 0.309258 0.090715
vt 0.308651 0.091541
vt 0.315015 0.074303
vt 0.315443 0.074285
vt 0.310578 0.071429
vt 0.311004 0.071433
vt 0.326666 0.073217
vt 0.326238 0.072915
vt 0.326794 0.072930
vt 0.306488 0.081422
vt 0.306362 0.081881
vt 0.311064 0.071014
vt 0.310632 0.071048
vt 0.326794 0.072469
vt 0.326237 0.072435
vt 0.313231 0.072068
vt 0.324185 0.073352
vt 0.313899 0.076021
vt 0.319272 0.073147
vt 0.316879 0.073123
vt 0.309427 0.075592
vt 0.325584 0.073351
vt 0.305274 0.080813
vt 0.314983 0.086828
vt 0.304852 0.076328
vt 0.337820 0.189295
vt 0.335429 0.188971
vt 0.335903 0.189628
vt 0.308996 0.082402
vt 0.307393 0.075570
vt 0.311064 0.071930
vt 0.315443 0.073858
vt 0.309399 0.091191
vt 0.326240 0.073176
vt 0.306914 0.081463
s 0
g log_6_Material
usemtl Material
f 2/1/1 45/2/1 1/3/1
f 10/4/2 50/5/2 9/6/2
f 40/7/3 11/8/3 31/9/3
f 30/10/4 12/11/4 11/8/4
f 13/12/5 63/13/5 15/14/5
f 39/15/6 30/10/6 40/7/6
f 28/16/7 29/17/7 30/10/7
f 26/18/8 39/19/8 38/20/8
f 25/21/9 28/22/9 26/18/9
f 27/23/10 70/24/10 29/17/10
f 37/25/11 26/18/11 38/20/11
f 24/26/12 25/21/12 26/18/12
f 25/21/13 69/27/13 27/28/13
f 36/29/14 24/30/14 37/31/14
f 21/32/15 24/30/15 22/33/15
f 23/34/16 68/35/16 25/21/16
f 35/36/17 22/33/17 36/29/17
f 20/37/18 21/32/18 22/33/18
f 66/38/19 23/39/19 21/32/19
f 18/40/20 35/36/20 34/41/20
f 17/42/21 20/37/21 18/40/21
f 19/43/22 66/38/22 21/32/22
f 16/44/23 34/45/23 33/46/23
f 15/14/24 18/47/24 16/44/24
f 17/42/25 65/48/25 19/43/25
f 14/49/26 33/46/26 32/50/26
f 14/49/27 15/14/27 16/44/27
f 63/13/28 17/51/28 15/14/28
f 31/9/29 14/52/29 32/53/29
f 11/54/30 13/12/30 14/49/30
f 70/24/31 12/11/31 29/17/31
f 36/55/32 7/56/32 6/57/32
f 7/58/33 48/59/33 6/60/33
f 9/61/34 49/62/34 8/63/34
f 2/64/35 31/65/35 32/66/35
f 2/64/32 33/67/32 3/68/32
f 4/69/36 33/67/36 34/70/36
f 5/71/37 34/70/37 35/72/37
f 6/57/32 35/72/32 36/55/32
f 7/56/32 38/73/32 8/74/32
f 8/74/32 39/75/32 9/76/32
f 9/76/38 40/77/38 10/78/38
f 1/79/39 40/77/39 31/65/39
f 8/63/40 44/80/40 7/81/40
f 41/82/32 47/83/32 42/84/32
f 44/85/32 50/86/32 43/87/32
f 45/88/32 44/85/32 43/87/32
f 42/84/32 45/88/32 41/82/32
f 10/4/41 45/2/41 43/89/41
f 3/90/42 41/91/42 2/92/42
f 3/90/43 47/93/43 46/94/43
f 5/95/44 47/96/44 4/97/44
f 5/95/45 48/59/45 42/98/45
f 12/99/46 61/100/46 13/12/46
f 56/101/47 75/102/47 57/103/47
f 60/104/48 80/105/48 76/106/48
f 52/107/49 77/108/49 53/109/49
f 56/101/50 74/110/50 71/111/50
f 51/112/51 61/113/51 62/114/51
f 53/115/51 61/113/51 52/116/51
f 53/115/52 64/117/52 63/118/52
f 54/119/53 65/120/53 64/117/53
f 56/121/54 65/120/54 55/122/54
f 56/121/55 67/123/55 66/124/55
f 58/125/56 67/123/56 57/126/56
f 59/127/57 68/128/57 58/125/57
f 60/129/58 69/130/58 59/127/58
f 51/112/59 70/131/59 60/129/59
f 73/132/60 78/133/60 77/134/60
f 71/135/61 76/136/61 75/137/61
f 74/138/62 72/139/62 71/135/62
f 76/136/63 79/140/63 75/137/63
f 54/141/64 77/108/64 78/142/64
f 60/104/65 72/143/65 51/144/65
f 57/145/66 79/146/66 58/147/66
f 54/148/67 74/110/67 55/149/67
f 52/150/68 72/143/68 73/151/68
f 59/152/69 79/146/69 80/153/69
f 2/1/1 41/154/1 45/2/1
f 10/4/70 43/89/70 50/5/70
f 40/7/71 30/10/71 11/8/71
f 30/10/72 29/17/72 12/11/72
f 13/12/73 61/100/73 63/13/73
f 39/15/74 28/16/74 30/10/74
f 28/16/75 27/23/75 29/17/75
f 26/18/76 28/22/76 39/19/76
f 25/21/77 27/28/77 28/22/77
f 27/23/78 69/155/78 70/24/78
f 37/25/79 24/26/79 26/18/79
f 24/26/80 23/34/80 25/21/80
f 25/21/81 68/35/81 69/27/81
f 36/29/82 22/33/82 24/30/82
f 21/32/83 23/39/83 24/30/83
f 23/34/84 67/156/84 68/35/84
f 35/36/85 20/37/85 22/33/85
f 20/37/86 19/43/86 21/32/86
f 66/38/87 67/157/87 23/39/87
f 18/40/88 20/37/88 35/36/88
f 17/42/89 19/43/89 20/37/89
f 19/43/90 65/48/90 66/38/90
f 16/44/91 18/47/91 34/45/91
f 15/14/92 17/51/92 18/47/92
f 17/42/93 64/158/93 65/48/93
f 14/49/94 16/44/94 33/46/94
f 14/49/95 13/12/95 15/14/95
f 63/13/96 64/159/96 17/51/96
f 31/9/97 11/8/97 14/52/97
f 11/54/98 12/99/98 13/12/98
f 70/24/99 62/160/99 12/11/99
f 36/55/32 37/161/32 7/56/32
f 7/58/33 44/162/33 48/59/33
f 9/61/34 50/163/34 49/62/34
f 2/64/100 1/79/100 31/65/100
f 2/64/32 32/66/32 33/67/32
f 4/69/101 3/68/101 33/67/101
f 5/71/102 4/69/102 34/70/102
f 6/57/32 5/71/32 35/72/32
f 7/56/32 37/161/32 38/73/32
f 8/74/32 38/73/32 39/75/32
f 9/76/32 39/75/32 40/77/32
f 1/79/103 10/78/103 40/77/103
f 8/63/40 49/62/40 44/80/40
f 41/82/32 46/164/32 47/83/32
f 44/85/32 49/165/32 50/86/32
f 45/88/32 48/166/32 44/85/32
f 42/84/32 48/166/32 45/88/32
f 10/4/104 1/3/104 45/2/104
f 3/90/42 46/94/42 41/91/42
f 3/90/105 4/167/105 47/93/105
f 5/95/106 42/98/106 47/96/106
f 5/95/107 6/60/107 48/59/107
f 12/99/108 62/168/108 61/100/108
f 56/101/109 71/111/109 75/102/109
f 60/104/110 59/169/110 80/105/110
f 52/107/111 73/170/111 77/108/111
f 56/101/112 55/149/112 74/110/112
f 51/112/51 52/116/51 61/113/51
f 53/115/113 63/118/113 61/113/113
f 53/115/114 54/119/114 64/117/114
f 54/119/115 55/122/115 65/120/115
f 56/121/116 66/124/116 65/120/116
f 56/121/117 57/126/117 67/123/117
f 58/125/118 68/128/118 67/123/118
f 59/127/119 69/130/119 68/128/119
f 60/129/120 70/131/120 69/130/120
f 51/112/121 62/114/121 70/131/121
f 73/132/122 74/138/122 78/133/122
f 71/135/123 72/139/123 76/136/123
f 74/138/124 73/132/124 72/139/124
f 76/136/125 80/171/125 79/140/125
f 54/141/64 53/109/64 77/108/64
f 60/104/126 76/106/126 72/143/126
f 57/145/127 75/172/127 79/146/127
f 54/148/128 78/173/128 74/110/128
f 52/150/129 51/144/129 72/143/129
f 59/152/130 58/147/130 79/146/130
