# Blender 4.2.0
# www.blender.org
mtllib log_1.mtl
g log_1_Mesh
v 0.033659 0.068521 0.607436
v -0.004690 0.046116 0.600132
v -0.030212 0.012506 0.607436
v -0.032767 -0.026496 0.607436
v -0.007245 -0.062744 0.607436
v 0.031894 -0.073701 0.607436
v 0.074564 -0.062744 0.600132
v 0.093666 -0.026496 0.607436
v 0.097011 0.018559 0.607436
v 0.074564 0.054807 0.607436
v -0.014673 0.058506 -0.250801
v 0.042930 0.077138 -0.248132
v -0.035274 0.028157 -0.205315
v -0.073069 -0.020079 -0.283578
v -0.062045 -0.057499 -0.277544
v 0.033659 -0.082202 -0.256855
v 0.077783 -0.066491 -0.250668
v 0.106808 -0.029276 -0.254398
v 0.106235 0.027818 -0.212464
v 0.081992 0.066551 -0.257013
v 0.000636 0.041554 -0.473250
v -0.015894 0.011774 -0.456720
v -0.012619 -0.018031 -0.456720
v -0.000317 -0.045443 -0.456720
v 0.037174 -0.064041 -0.456720
v 0.063237 -0.051908 -0.473250
v 0.091216 -0.021819 -0.456720
v 0.085995 0.013894 -0.456720
v 0.056882 0.043378 -0.456720
v 0.035660 0.049843 -0.456720
v 0.033659 0.084584 0.387050
v 0.008462 0.121473 0.185142
v 0.048558 0.080337 -0.090844
v -0.019892 0.067507 -0.063939
v -0.010906 0.112771 0.189760
v 0.004003 0.068751 0.402809
v -0.046555 0.039114 -0.074900
v -0.046555 0.018137 0.181947
v -0.040927 0.015598 0.440671
v -0.046555 -0.017435 -0.040422
v -0.046555 -0.013124 0.140902
v -0.046555 -0.019291 0.395189
v -0.012552 -0.066986 -0.047163
v -0.004793 -0.067264 0.170222
v -0.020810 -0.062869 0.370428
v 0.037024 -0.082859 -0.042862
v 0.049883 -0.082294 0.146619
v 0.033047 -0.083114 0.398865
v 0.079026 -0.066986 -0.047163
v 0.073788 -0.076630 0.151312
v 0.086599 -0.067070 0.426319
v 0.113873 -0.041017 -0.014001
v 0.113873 -0.033238 0.135905
v 0.108403 -0.034482 0.432457
v 0.101954 0.039939 -0.076335
v 0.113873 0.036697 0.172093
v 0.113873 0.042511 0.382718
v 0.083234 0.052071 -0.078321
v 0.086599 0.068269 0.176384
v 0.083234 0.068586 0.403096
v 0.033659 0.083063 0.600132
v -0.012974 0.065598 0.607436
v -0.043613 0.022082 0.607436
v -0.046555 -0.030863 0.587679
v -0.015916 -0.074379 0.587679
v 0.034512 -0.090715 0.607436
v 0.083234 -0.074379 0.607436
v 0.113873 -0.030863 0.607436
v 0.113873 0.022926 0.607436
v 0.083234 0.066442 0.607436
v 0.035520 0.067650 -0.456720
v 0.075357 0.054488 -0.456720
v 0.103817 0.018460 -0.456720
v 0.104247 -0.026175 -0.456720
v 0.076217 -0.062682 -0.473250
v 0.036558 -0.078235 -0.456720
v -0.009562 -0.055357 -0.456720
v -0.029435 -0.021457 -0.456720
v -0.028827 0.015237 -0.456720
v -0.008332 0.052162 -0.473250
v -0.003724 0.044765 0.583881
v -0.006279 -0.061387 0.583881
v 0.073645 0.053455 0.583881
v 0.073645 -0.061387 0.583881
v 0.035637 0.048512 -0.433165
v 0.037117 -0.062654 -0.433165
v 0.056123 0.042289 -0.433165
v 0.062466 -0.050800 -0.433165
v 0.001420 0.040507 -0.433165
v 0.000489 -0.044485 -0.433165
v 0.033683 0.066854 0.583881
v -0.028658 0.011990 0.583881
v -0.031213 -0.025974 0.583881
v 0.031958 -0.072014 0.583881
v 0.092159 -0.025974 0.583881
v 0.095503 0.018042 0.583881
v 0.084700 0.013485 -0.433165
v 0.089913 -0.021405 -0.433165
v -0.011442 -0.017704 -0.433165
v -0.014728 0.011414 -0.433165
v 0.013966 0.121304 0.201908
v -0.009743 0.112772 0.206658
v -0.045309 0.017575 0.239228
v -0.046555 -0.014490 0.197201
v -0.008339 -0.066291 0.214547
v 0.046156 -0.082475 0.202466
v 0.076624 -0.074513 0.212198
v 0.112662 -0.033513 0.201560
v 0.113873 0.037984 0.218725
v 0.085854 0.068339 0.226578
v 0.018081 0.084195 0.202453
v 0.011143 0.084084 0.164036
v -0.025451 0.059605 0.172866
v -0.023737 0.059299 0.211045
v -0.010527 0.139416 0.201123
v -0.013496 0.139507 0.192080
v -0.023345 0.134813 0.194570
v -0.022718 0.134814 0.203685
v -0.013026 0.056858 -0.308579
v -0.033600 0.024801 -0.270614
v -0.072896 -0.021344 -0.294772
v -0.060840 -0.055857 -0.290225
v 0.034412 -0.081172 -0.308768
v 0.077376 -0.065502 -0.308481
v 0.106143 -0.028471 -0.306949
v 0.105607 0.025388 -0.275906
v 0.080268 0.063418 -0.308884
v 0.041005 0.074674 -0.302310
v -0.014674 -0.066501 -0.260256
v -0.035248 -0.018555 -0.271055
v -0.033738 -0.020690 -0.309225
v -0.013346 -0.063607 -0.301230
v -0.103998 -0.028332 -0.262814
v -0.110028 -0.009060 -0.262522
v -0.115829 -0.009668 -0.272159
v -0.109749 -0.027543 -0.273319
v -0.156599 -0.032587 -0.253373
v -0.161269 -0.017660 -0.253147
v -0.165762 -0.018131 -0.260612
v -0.161053 -0.031977 -0.261510
v -0.124336 -0.029977 -0.259164
v -0.129586 -0.029257 -0.268753
v -0.129840 -0.012386 -0.258897
v -0.135135 -0.012940 -0.267695
v -0.144267 -0.024790 -0.306560
v -0.146266 -0.014177 -0.303476
v -0.150453 -0.025808 -0.296177
v -0.152278 -0.016120 -0.293362
v -0.180432 -0.022620 -0.322852
v -0.181263 -0.018211 -0.321571
v -0.183003 -0.023043 -0.318539
v -0.183761 -0.019018 -0.317369
v -0.205821 -0.044006 -0.229326
v -0.207550 -0.038480 -0.229242
v -0.209213 -0.038654 -0.232005
v -0.207470 -0.043780 -0.232338
vn -0.2040 0.9776 -0.0528
vn -0.7002 0.7038 -0.1197
vn -0.9954 -0.0499 -0.0819
vn -0.8241 -0.5664 0.0069
vn -0.3051 -0.9523 0.0019
vn 0.3531 -0.9356 -0.0044
vn 0.6305 -0.7741 -0.0563
vn 0.9872 0.1584 0.0169
vn 0.5472 0.8350 -0.0571
vn 0.6178 0.7841 0.0592
vn 0.4947 -0.8669 0.0619
vn -0.2902 -0.9554 -0.0543
vn -0.8491 -0.5241 0.0658
vn -0.3062 0.9514 -0.0324
vn -0.8613 0.5066 -0.0390
vn -0.9989 0.0382 -0.0276
vn -0.4863 -0.1091 -0.8669
vn -0.3031 -0.9498 -0.0769
vn 0.3427 -0.9393 -0.0137
vn 0.7876 -0.6159 -0.0161
vn 0.9998 0.0171 -0.0124
vn 0.8615 0.5070 -0.0280
vn 0.2646 0.9620 -0.0669
vn 0.3166 0.9485 0.0100
vn 0.2271 0.9739 0.0020
vn 0.2149 0.9745 -0.0648
vn 0.8176 0.5757 0.0060
vn 0.7361 0.6768 0.0100
vn 0.7546 0.6556 -0.0276
vn 0.9995 -0.0000 -0.0312
vn 0.9999 -0.0170 0.0005
vn 1.0000 -0.0000 -0.0000
vn 0.8176 -0.5756 -0.0137
vn 0.7495 -0.6619 -0.0119
vn 0.7402 -0.6714 0.0348
vn 0.3177 -0.9476 -0.0323
vn 0.2461 -0.9690 0.0222
vn 0.2380 -0.9704 -0.0409
vn -0.2964 -0.9545 -0.0327
vn -0.2851 -0.9585 -0.0018
vn -0.2618 -0.9651 0.0081
vn -0.8172 -0.5754 -0.0346
vn -0.7955 -0.6038 -0.0504
vn -0.7987 -0.6011 0.0277
vn -0.9979 0.0623 -0.0185
vn -0.9997 0.0102 0.0218
vn -1.0000 -0.0000 -0.0000
vn -0.8171 0.5753 -0.0355
vn -0.8814 0.4718 0.0238
vn -0.8873 0.4598 0.0375
vn -0.3527 0.9356 -0.0149
vn 0.5881 0.7873 -0.1852
vn -0.5535 0.8327 0.0148
vn 0.9924 0.1120 -0.0511
vn 0.1624 0.0250 0.9864
vn -0.2371 0.9691 0.0688
vn -0.9950 0.0756 0.0653
vn 0.9113 0.4089 -0.0478
vn 0.0215 -0.3429 0.9391
vn 0.0992 0.1388 0.9853
vn -0.8244 0.0540 0.5634
vn -0.6705 -0.4721 0.5723
vn -0.3805 -0.0586 0.9229
vn -0.0000 -0.0000 1.0000
vn 0.0188 0.4487 0.8935
vn -0.8827 0.4615 0.0885
vn -0.0000 -0.0000 -1.0000
vn 0.2387 0.2876 -0.9275
vn -0.5433 0.0236 -0.8392
vn -0.2949 -0.2493 -0.9224
vn 0.4262 0.0033 -0.9046
vn 0.8732 -0.4847 -0.0506
vn -0.3172 -0.9460 0.0667
vn -0.7088 -0.7032 -0.0553
vn 0.7921 -0.6026 0.0972
vn 0.2436 -0.9694 -0.0301
vn -0.9874 -0.1475 -0.0568
vn 0.9955 -0.0670 0.0671
vn -0.7299 0.6815 -0.0524
vn 0.8158 0.5744 0.0666
vn -0.4391 0.8978 -0.0332
vn 0.2690 0.9609 0.0664
vn 0.4438 0.8946 -0.0516
vn -0.4613 0.8869 0.0230
vn -0.7554 0.6548 0.0229
vn -0.9912 0.1301 0.0228
vn -0.8639 -0.5035 -0.0122
vn -0.3398 -0.9401 -0.0257
vn 0.2773 -0.9606 0.0205
vn 0.8299 -0.5577 0.0130
vn 0.9981 -0.0592 0.0182
vn 0.6514 0.7587 0.0086
vn 0.3062 0.9520 0.0032
vn 0.9699 0.1687 -0.1756
vn -0.4492 0.3799 -0.8087
vn -0.9639 0.2577 0.0664
vn 0.1842 0.0348 0.9823
vn -0.3487 0.9369 0.0239
vn 0.1264 0.2053 0.9705
vn -0.2565 0.0589 -0.9648
vn -0.8637 -0.5004 0.0595
vn 0.3130 0.9473 -0.0676
vn 0.8432 0.5368 -0.0289
vn 0.9999 0.0096 -0.0125
vn 0.7965 -0.6044 -0.0159
vn -0.3527 -0.9339 -0.0581
vn -0.8625 -0.5056 -0.0225
vn -0.9993 0.0259 -0.0270
vn -0.8809 0.4717 -0.0386
vn -0.3096 0.9503 -0.0322
vn -0.3159 0.0596 0.9469
vn -0.0378 0.9976 -0.0573
vn -0.1598 -0.9843 -0.0747
vn -0.2611 -0.2953 -0.9190
vn 0.0609 -0.9923 -0.1078
vn 0.1887 0.9664 -0.1745
vn -0.5351 -0.8298 -0.1583
vn 0.4837 0.2764 0.8304
vn -0.5070 -0.1170 -0.8540
vn 0.1734 0.0393 0.9841
vn -0.2233 -0.0127 -0.9747
vn -0.1594 0.9866 0.0337
vn -0.2426 0.9692 0.0420
vn -0.1613 0.9825 0.0929
vn 0.0538 -0.9890 -0.1377
vn 0.6553 0.3220 -0.6833
vn -0.7769 -0.3002 0.5534
vn -0.8584 -0.0127 -0.5128
vn 0.4046 0.3246 -0.8549
vn -0.5539 -0.3268 0.7658
vn -0.0124 -0.9944 -0.1049
vn -0.8067 -0.3071 0.5049
vn -0.3416 0.9283 0.1471
vn 0.1504 -0.9763 -0.1556
vn 0.4142 0.1159 0.9028
vn -0.3074 0.9515 -0.0084
vn -0.8587 0.5101 -0.0486
vn -0.9964 0.0687 -0.0492
vn -0.9146 -0.4021 -0.0429
vn -0.3090 -0.9511 0.0009
vn 0.3364 -0.9417 -0.0082
vn 0.7882 -0.6154 -0.0063
vn 0.9991 0.0305 -0.0279
vn 0.8257 0.5627 0.0399
vn 0.2554 0.9664 -0.0288
vn 0.5059 -0.8566 0.1013
vn -0.2910 -0.9552 -0.0535
vn -0.8485 -0.5254 0.0633
vn -0.3092 0.9503 -0.0359
vn -0.8585 0.5105 -0.0482
vn -0.9984 0.0384 -0.0416
vn -0.4502 -0.2694 -0.8513
vn -0.3484 -0.9371 -0.0237
vn 0.3377 -0.9411 -0.0185
vn 0.7900 -0.6129 -0.0194
vn 0.9998 0.0178 -0.0106
vn 0.8538 0.5172 -0.0596
vn 0.2500 0.9668 -0.0529
vn 0.3051 0.9523 0.0068
vn 0.2114 0.9765 -0.0410
vn 0.6127 0.7864 0.0784
vn 0.6712 0.7384 0.0644
vn 0.7554 0.6550 -0.0181
vn 0.5473 0.8347 -0.0603
vn 0.9972 -0.0751 -0.0065
vn 0.9998 -0.0095 0.0184
vn 0.9928 0.1106 -0.0462
vn 0.8317 -0.5552 -0.0070
vn 0.7364 -0.6765 0.0107
vn 0.6110 -0.7913 -0.0223
vn 0.3041 -0.9519 -0.0368
vn 0.2283 -0.9735 0.0121
vn 0.3515 -0.9359 -0.0211
vn -0.3318 -0.9424 -0.0425
vn -0.2736 -0.9616 -0.0214
vn -0.3067 -0.9515 0.0237
vn -0.8628 -0.5055 -0.0074
vn -0.7878 -0.6158 -0.0149
vn -0.8236 -0.5670 0.0135
vn -0.9890 0.1480 0.0089
vn -0.7816 0.6213 -0.0553
vn -0.8865 0.4607 0.0435
vn -0.7300 0.6834 0.0057
vn -0.4684 0.8835 0.0063
vn -0.2007 0.9787 -0.0438
vn 0.9929 0.1091 -0.0475
vn -0.1488 0.4438 0.8837
vn -0.2459 0.9647 0.0945
vn -0.9953 0.0739 0.0621
vn 0.9123 0.4064 -0.0512
vn -0.0281 0.4486 0.8933
vn 0.3076 -0.2166 0.9265
vn -0.2346 -0.3284 0.9149
vn -0.2224 -0.7943 0.5654
vn -0.5422 0.1181 0.8319
vn -0.8882 0.4546 0.0669
vn 0.1126 0.3368 -0.9348
vn -0.2588 -0.3118 -0.9142
vn -0.1157 -0.4322 -0.8943
vn 0.2713 0.2294 -0.9348
vn 0.8668 -0.4978 -0.0300
vn -0.7106 -0.7017 -0.0513
vn 0.8015 -0.5943 0.0659
vn 0.2275 -0.9723 -0.0547
vn -0.9881 -0.1444 -0.0521
vn 0.9958 -0.0652 0.0643
vn -0.7228 0.6902 -0.0330
vn -0.4230 0.9045 -0.0543
vn 0.2671 0.9611 0.0696
vn -0.5049 0.8622 0.0408
vn -0.8552 0.5088 0.0986
vn -0.9993 0.0376 0.0009
vn 0.2488 -0.9685 0.0135
vn 0.7323 0.6808 -0.0188
vn 0.2351 0.9717 -0.0219
vn 0.9456 0.1003 -0.3095
vn -0.3881 0.4318 -0.8142
vn -0.9671 0.2502 0.0454
vn 0.1823 0.0329 0.9827
vn -0.3970 0.9071 0.1395
vn 0.1207 0.2053 0.9712
vn -0.2703 0.0572 -0.9611
vn 0.2669 0.9622 -0.0533
vn 0.7831 0.6186 -0.0634
vn 0.9998 0.0160 -0.0105
vn 0.3583 -0.9334 -0.0185
vn -0.4442 -0.8956 -0.0242
vn -0.8990 -0.4356 -0.0450
vn -0.9994 0.0166 -0.0292
vn -0.8654 0.4988 -0.0478
vn -0.3207 0.9465 -0.0361
vn -0.3302 0.0703 0.9413
vn -0.0028 0.9937 -0.1124
vn -0.1918 -0.9708 -0.1439
vn -0.3329 -0.2366 -0.9128
vn 0.2082 0.9722 -0.1067
vn -0.5058 -0.8357 0.2142
vn 0.5229 0.1509 0.8389
vn -0.1633 0.9864 0.0167
vn -0.0203 -0.9938 -0.1095
vn 0.6782 0.2749 -0.6815
vn -0.7735 -0.3068 0.5546
vn -0.8522 -0.2734 0.4460
vt 0.317420 0.070914
vt 0.318349 0.069571
vt 0.318519 0.071130
vt 0.314061 0.070316
vt 0.314729 0.069125
vt 0.314691 0.070215
vt 0.315696 0.070484
vt 0.316222 0.068637
vt 0.316367 0.070413
vt 0.329664 0.073289
vt 0.330588 0.071550
vt 0.330603 0.073333
vt 0.331321 0.071596
vt 0.331299 0.073292
vt 0.318151 0.076244
vt 0.318787 0.074513
vt 0.318682 0.076521
vt 0.319839 0.074851
vt 0.320109 0.075983
vt 0.316095 0.069900
vt 0.316655 0.071019
vt 0.316261 0.071036
vt 0.316741 0.069530
vt 0.316101 0.075255
vt 0.316436 0.075533
vt 0.316009 0.075535
vt 0.311172 0.089368
vt 0.310743 0.089549
vt 0.310742 0.089372
vt 0.316009 0.076133
vt 0.316450 0.075881
vt 0.316435 0.076117
vt 0.317487 0.069149
vt 0.317476 0.069601
vt 0.314732 0.068579
vt 0.314059 0.068756
vt 0.314038 0.068274
vt 0.315493 0.068562
vt 0.307836 0.067127
vt 0.307610 0.066820
vt 0.307913 0.066746
vt 0.329694 0.071171
vt 0.329672 0.071514
vt 0.331323 0.071114
vt 0.330610 0.071117
vt 0.318068 0.074065
vt 0.318075 0.074547
vt 0.319768 0.074323
vt 0.318779 0.074075
vt 0.320491 0.074468
vt 0.316744 0.069097
vt 0.316822 0.075036
vt 0.317787 0.076675
vt 0.316837 0.076740
vt 0.316731 0.073145
vt 0.318006 0.073357
vt 0.316751 0.073564
vt 0.318119 0.073036
vt 0.316046 0.076738
vt 0.316085 0.073498
vt 0.316070 0.073109
vt 0.318976 0.080241
vt 0.320097 0.081689
vt 0.319121 0.081700
vt 0.318905 0.078316
vt 0.320168 0.078057
vt 0.320210 0.078445
vt 0.318884 0.077769
vt 0.318291 0.081704
vt 0.318050 0.077900
vt 0.318117 0.078408
vt 0.330440 0.078754
vt 0.331329 0.077236
vt 0.331254 0.078748
vt 0.330710 0.075377
vt 0.331195 0.074949
vt 0.331225 0.075455
vt 0.330788 0.074912
vt 0.329487 0.078581
vt 0.330434 0.077013
vt 0.329755 0.075101
vt 0.329678 0.075469
vt 0.328793 0.076954
vt 0.328790 0.078562
vt 0.328821 0.075303
vt 0.328829 0.074833
vt 0.315428 0.074505
vt 0.316367 0.075715
vt 0.315446 0.075896
vt 0.315234 0.072349
vt 0.315811 0.072465
vt 0.315277 0.072826
vt 0.315748 0.071997
vt 0.314525 0.075912
vt 0.314416 0.072605
vt 0.314393 0.072287
vt 0.318181 0.075025
vt 0.318480 0.076729
vt 0.311371 0.073769
vt 0.311645 0.073564
vt 0.311681 0.073806
vt 0.318598 0.073103
vt 0.310393 0.078832
vt 0.310821 0.078589
vt 0.310822 0.078829
vt 0.301673 0.083469
vt 0.301365 0.083082
vt 0.301890 0.083366
vt 0.313728 0.073380
vt 0.313422 0.073072
vt 0.313851 0.073075
vt 0.308291 0.076688
vt 0.308719 0.076329
vt 0.308719 0.076688
vt 0.310826 0.079045
vt 0.310398 0.079053
vt 0.303353 0.082391
vt 0.304015 0.082632
vt 0.303683 0.082718
vt 0.304015 0.083073
vt 0.303716 0.083074
vt 0.303491 0.083428
vt 0.303346 0.083352
vt 0.329598 0.078741
vt 0.302580 0.083579
vt 0.301466 0.082752
vt 0.301120 0.083127
vt 0.301120 0.082686
vt 0.301888 0.082430
vt 0.301683 0.082320
vt 0.302601 0.082290
vt 0.302594 0.082170
vt 0.303500 0.082285
vt 0.308422 0.077025
vt 0.308718 0.077016
vt 0.306874 0.086309
vt 0.306317 0.086223
vt 0.307063 0.086152
vt 0.307601 0.086400
vt 0.307839 0.086293
vt 0.308010 0.086635
vt 0.308254 0.086612
vt 0.308165 0.086985
vt 0.307863 0.086962
vt 0.307669 0.087270
vt 0.307548 0.087165
vt 0.306736 0.087298
vt 0.306790 0.087188
vt 0.306113 0.087137
vt 0.306346 0.087042
vt 0.306022 0.086841
vt 0.305787 0.086870
vt 0.306025 0.086550
vt 0.305787 0.086511
vt 0.306482 0.086351
vt 0.332558 0.192158
vt 0.333314 0.191620
vt 0.333170 0.191930
vt 0.331735 0.191061
vt 0.331017 0.191655
vt 0.331178 0.191296
vt 0.331838 0.192158
vt 0.332499 0.191043
vt 0.335804 0.189699
vt 0.334132 0.190014
vt 0.335275 0.189536
vt 0.334814 0.190427
vt 0.334343 0.190340
vt 0.335944 0.190197
vt 0.335544 0.190427
vt 0.334341 0.189789
vt 0.334688 0.189603
vt 0.333042 0.191303
vt 0.310392 0.078586
vt 0.310826 0.078337
vt 0.316023 0.075892
vt 0.311172 0.089552
vt 0.310727 0.089829
vt 0.311510 0.073123
vt 0.311206 0.073422
vt 0.311215 0.073134
vt 0.310727 0.089104
vt 0.311456 0.089094
vt 0.310025 0.070658
vt 0.309598 0.070930
vt 0.309596 0.070665
vt 0.311634 0.073418
vt 0.311206 0.073739
vt 0.310026 0.070930
vt 0.309596 0.071232
vt 0.313851 0.072435
vt 0.313418 0.072742
vt 0.313422 0.072447
vt 0.306913 0.074891
vt 0.307346 0.075054
vt 0.306617 0.075062
vt 0.313846 0.072737
vt 0.306918 0.074545
vt 0.307342 0.074888
vt 0.313789 0.074083
vt 0.314236 0.074208
vt 0.316032 0.074114
vt 0.329409 0.076766
vt 0.318354 0.080193
vt 0.320360 0.079812
vt 0.316135 0.074866
vt 0.317767 0.074898
vt 0.308136 0.074014
vt 0.307467 0.074155
vt 0.307467 0.073834
vt 0.322220 0.072657
vt 0.322658 0.072892
vt 0.321985 0.073099
vt 0.313404 0.072446
vt 0.313409 0.072587
vt 0.305056 0.074645
vt 0.304533 0.074876
vt 0.304622 0.074568
vt 0.311515 0.073479
vt 0.311681 0.073480
vt 0.305072 0.074420
vt 0.305295 0.074461
vt 0.322167 0.072435
vt 0.322577 0.072583
vt 0.313092 0.072492
vt 0.317517 0.067860
vt 0.316754 0.067863
vt 0.316046 0.067862
vt 0.316082 0.069371
vt 0.319566 0.072816
vt 0.318757 0.072825
vt 0.318050 0.072691
vt 0.330671 0.069883
vt 0.329768 0.069873
vt 0.315863 0.067004
vt 0.315496 0.068243
vt 0.315383 0.067014
vt 0.314743 0.067025
vt 0.313979 0.066900
vt 0.318303 0.069089
vt 0.319912 0.072366
vt 0.319168 0.072546
vt 0.319249 0.072245
vt 0.304955 0.070631
vt 0.305331 0.070937
vt 0.304635 0.070925
vt 0.328798 0.071365
vt 0.307247 0.067269
vt 0.307965 0.067457
vt 0.307247 0.067676
vt 0.327492 0.071425
vt 0.327018 0.071554
vt 0.326938 0.071486
vt 0.305160 0.070635
vt 0.305439 0.070281
vt 0.305606 0.070332
vt 0.327842 0.071387
vt 0.328817 0.071259
vt 0.319486 0.071982
vt 0.304843 0.074118
vt 0.305164 0.074516
vt 0.305066 0.074522
vt 0.319253 0.071751
vt 0.319676 0.071544
vt 0.319559 0.071813
vt 0.304853 0.073855
vt 0.305107 0.074100
vt 0.305547 0.070142
vt 0.305845 0.069962
vt 0.305698 0.070189
vt 0.304914 0.070030
vt 0.305105 0.069997
vt 0.319150 0.071914
vt 0.327586 0.071505
vt 0.304715 0.069740
vt 0.327223 0.071108
vt 0.317300 0.073769
vt 0.316984 0.073479
vt 0.317174 0.073503
vt 0.305991 0.076217
vt 0.306241 0.075966
vt 0.306241 0.076195
vt 0.320787 0.077032
vt 0.320859 0.077069
vt 0.320790 0.077069
vt 0.307466 0.075975
vt 0.307547 0.076253
vt 0.307466 0.076257
vt 0.304583 0.072324
vt 0.304515 0.072057
vt 0.304583 0.072069
vt 0.327114 0.071195
vt 0.326573 0.070970
vt 0.321633 0.077075
vt 0.321579 0.077032
vt 0.321629 0.077038
vt 0.305716 0.069922
vt 0.306330 0.069676
vt 0.326143 0.071732
vt 0.319913 0.071112
vt 0.320009 0.071131
vt 0.316396 0.075262
vt 0.320411 0.074036
vt 0.328884 0.073324
vt 0.311478 0.073544
vt 0.313433 0.073370
vt 0.308291 0.076321
vt 0.329017 0.078725
vt 0.302587 0.083477
vt 0.331164 0.191980
vt 0.335974 0.189859
vt 0.310097 0.078328
vt 0.311155 0.089838
vt 0.311634 0.073744
vt 0.310325 0.071239
vt 0.307346 0.074549
vt 0.313752 0.072544
vt 0.308135 0.074155
vt 0.305295 0.075094
vt 0.321985 0.072475
vt 0.313095 0.072568
vt 0.331329 0.069740
vt 0.316136 0.068297
vt 0.318171 0.067716
vt 0.320009 0.072753
vt 0.327945 0.071475
vt 0.319416 0.071492
vt 0.305164 0.073834
vt 0.304635 0.069754
vt 0.316984 0.073762
vt 0.306089 0.075997
vt 0.320863 0.077032
vt 0.307661 0.075966
vt 0.304418 0.072296
vt 0.326528 0.071006
vt 0.321579 0.077072
vt 0.306282 0.069661
vt 0.326173 0.071758
s 0
g log_1_Material
usemtl Material
f 33/1/1 11/2/1 34/3/1
f 34/4/2 13/5/2 37/6/2
f 13/5/3 40/7/3 37/6/3
f 40/7/4 129/8/4 43/9/4
f 43/10/5 16/11/5 46/12/5
f 46/12/6 17/13/6 49/14/6
f 49/15/7 18/16/7 52/17/7
f 52/17/8 19/18/8 55/19/8
f 19/20/9 58/21/9 55/22/9
f 20/23/10 33/1/10 58/21/10
f 2/24/11 91/25/11 1/26/11
f 30/27/12 87/28/12 85/29/12
f 9/30/13 83/31/13 96/32/13
f 128/33/14 11/2/14 12/34/14
f 120/35/15 11/36/15 119/37/15
f 120/35/16 130/38/16 13/5/16
f 121/39/17 136/40/17 135/41/17
f 132/42/18 16/11/18 129/43/18
f 124/44/19 16/11/19 123/45/19
f 124/46/20 18/16/20 17/47/20
f 126/48/21 18/16/21 125/49/21
f 126/48/22 20/50/22 19/18/22
f 128/33/23 20/23/23 127/51/23
f 60/52/24 61/53/24 70/54/24
f 59/55/25 111/56/25 110/57/25
f 58/21/26 112/58/26 59/55/26
f 69/59/27 60/52/27 70/54/27
f 109/60/28 59/55/28 110/57/28
f 55/22/29 59/55/29 56/61/29
f 54/62/30 69/63/30 68/64/30
f 108/65/31 56/66/31 109/67/31
f 52/17/32 56/66/32 53/68/32
f 67/69/33 54/62/33 68/64/33
f 50/70/34 108/65/34 107/71/34
f 50/70/35 52/17/35 53/68/35
f 66/72/36 51/73/36 67/74/36
f 106/75/37 50/76/37 107/77/37
f 47/78/38 49/14/38 50/76/38
f 65/79/39 48/80/39 66/72/39
f 44/81/40 106/75/40 105/82/40
f 43/10/41 47/78/41 44/81/41
f 42/83/42 65/79/42 64/84/42
f 104/85/43 44/81/43 105/82/43
f 41/86/44 43/10/44 44/81/44
f 39/87/45 64/88/45 63/89/45
f 38/90/46 104/91/46 103/92/46
f 37/6/47 41/93/47 38/90/47
f 62/94/48 39/87/48 63/89/48
f 114/95/49 38/90/49 103/92/49
f 113/96/50 37/6/50 38/90/50
f 61/53/51 36/97/51 62/98/51
f 32/99/52 115/100/52 101/101/52
f 112/58/53 34/3/53 113/102/53
f 23/103/54 100/104/54 99/105/54
f 66/106/55 7/107/55 6/108/55
f 7/109/56 94/110/56 6/111/56
f 8/112/57 96/113/57 95/114/57
f 23/103/58 90/115/58 24/116/58
f 1/117/59 62/118/59 2/119/59
f 2/119/60 63/120/60 3/121/60
f 3/121/61 64/122/61 4/123/61
f 5/124/62 64/84/62 65/79/62
f 6/108/63 65/125/63 66/106/63
f 8/126/64 67/127/64 68/128/64
f 9/129/64 68/128/64 69/130/64
f 10/131/64 69/130/64 70/132/64
f 1/117/65 70/132/65 61/133/65
f 7/134/66 95/114/66 84/135/66
f 29/136/67 71/137/67 72/138/67
f 28/139/67 72/138/67 73/140/67
f 27/141/67 73/140/67 74/142/67
f 27/141/68 75/143/68 26/144/68
f 26/144/69 76/145/69 25/146/69
f 25/146/67 77/147/67 24/148/67
f 24/148/67 78/149/67 23/150/67
f 22/151/67 78/149/67 79/152/67
f 21/153/70 79/152/70 80/154/70
f 21/153/71 71/137/71 30/155/71
f 82/156/64 92/157/64 93/158/64
f 83/159/64 95/160/64 96/161/64
f 94/162/64 83/159/64 91/163/64
f 85/164/67 90/165/67 89/166/67
f 85/164/67 88/167/67 86/168/67
f 88/167/67 97/169/67 98/170/67
f 89/166/67 99/171/67 100/172/67
f 94/162/64 81/173/64 82/156/64
f 22/174/72 89/175/72 100/104/72
f 10/176/73 91/25/73 83/31/73
f 29/177/74 97/178/74 87/28/74
f 2/179/75 92/180/75 81/181/75
f 30/27/76 89/182/76 21/183/76
f 28/184/77 98/185/77 97/186/77
f 3/187/78 93/188/78 92/180/78
f 27/189/79 88/190/79 98/185/79
f 4/191/80 82/192/80 93/193/80
f 25/194/81 88/195/81 26/196/81
f 6/111/82 82/192/82 5/197/82
f 24/198/83 86/199/83 25/194/83
f 31/200/84 114/95/84 36/201/84
f 36/201/85 103/92/85 39/87/85
f 103/92/86 42/202/86 39/87/86
f 104/85/87 45/203/87 42/83/87
f 45/203/88 106/75/88 48/80/88
f 48/80/89 107/77/89 51/73/89
f 51/204/90 108/65/90 54/62/90
f 108/65/91 57/205/91 54/62/91
f 57/206/92 110/57/92 60/52/92
f 110/57/93 31/207/93 60/52/93
f 32/208/94 111/209/94 112/210/94
f 35/211/95 112/212/95 113/213/95
f 35/214/96 114/95/96 102/215/96
f 102/216/97 111/217/97 101/218/97
f 115/100/98 117/219/98 118/220/98
f 102/216/99 115/221/99 118/222/99
f 35/211/100 116/223/100 32/224/100
f 102/215/101 117/225/101 35/214/101
f 71/226/102 127/51/102 72/227/102
f 73/228/103 127/51/103 126/229/103
f 73/230/104 125/49/104 74/231/104
f 74/231/105 124/46/105 75/232/105
f 76/233/19 124/44/19 123/45/19
f 77/234/106 123/45/106 132/42/106
f 77/235/107 131/236/107 78/237/107
f 79/238/108 131/236/108 120/35/108
f 79/238/109 119/37/109 80/239/109
f 71/226/110 119/240/110 128/33/110
f 15/241/111 130/242/111 14/243/111
f 121/244/112 130/245/112 131/246/112
f 15/247/113 132/42/113 129/43/113
f 122/248/114 131/249/114 132/250/114
f 142/251/115 137/252/115 140/253/115
f 14/254/116 135/255/116 134/256/116
f 15/247/117 136/257/117 122/258/117
f 14/243/118 133/259/118 15/241/118
f 139/260/119 156/261/119 155/262/119
f 143/263/120 137/264/120 141/265/120
f 144/266/121 140/267/121 139/260/121
f 144/268/122 138/269/122 143/270/122
f 135/255/122 143/270/122 134/256/122
f 144/268/123 146/271/123 148/272/123
f 134/273/120 141/265/120 133/259/120
f 136/257/115 141/274/115 142/251/115
f 146/271/124 152/275/124 148/272/124
f 142/251/125 145/276/125 136/257/125
f 135/277/126 145/278/126 146/279/126
f 144/280/127 147/281/127 142/282/127
f 150/283/128 151/284/128 152/285/128
f 146/286/129 149/287/129 150/288/129
f 147/289/130 152/290/130 151/291/130
f 147/292/131 149/293/131 145/276/131
f 156/294/132 154/295/132 155/296/132
f 139/297/133 154/298/133 138/269/133
f 137/252/134 156/299/134 140/253/134
f 137/264/135 154/300/135 153/301/135
f 33/1/136 12/34/136 11/2/136
f 34/4/137 11/36/137 13/5/137
f 13/5/138 130/38/138 40/7/138
f 40/7/139 130/38/139 129/8/139
f 43/10/140 129/43/140 16/11/140
f 46/12/141 16/11/141 17/13/141
f 49/15/142 17/47/142 18/16/142
f 52/17/143 18/16/143 19/18/143
f 19/20/144 20/23/144 58/21/144
f 20/23/145 12/34/145 33/1/145
f 2/24/146 81/302/146 91/25/146
f 30/27/147 29/177/147 87/28/147
f 9/30/148 10/176/148 83/31/148
f 128/33/149 119/240/149 11/2/149
f 120/35/150 13/5/150 11/36/150
f 120/35/151 131/236/151 130/38/151
f 121/39/152 122/248/152 136/40/152
f 132/42/153 123/45/153 16/11/153
f 124/44/154 17/13/154 16/11/154
f 124/46/155 125/49/155 18/16/155
f 126/48/156 19/18/156 18/16/156
f 126/48/157 127/303/157 20/50/157
f 128/33/158 12/34/158 20/23/158
f 60/52/159 31/207/159 61/53/159
f 59/55/160 112/58/160 111/56/160
f 58/21/161 33/1/161 112/58/161
f 69/59/162 57/206/162 60/52/162
f 109/60/163 56/61/163 59/55/163
f 55/22/164 58/21/164 59/55/164
f 54/62/165 57/205/165 69/63/165
f 108/65/166 53/68/166 56/66/166
f 52/17/167 55/19/167 56/66/167
f 67/69/168 51/204/168 54/62/168
f 50/70/169 53/68/169 108/65/169
f 50/70/170 49/15/170 52/17/170
f 66/72/171 48/80/171 51/73/171
f 106/75/172 47/78/172 50/76/172
f 47/78/173 46/12/173 49/14/173
f 65/79/174 45/203/174 48/80/174
f 44/81/175 47/78/175 106/75/175
f 43/10/176 46/12/176 47/78/176
f 42/83/177 45/203/177 65/79/177
f 104/85/178 41/86/178 44/81/178
f 41/86/179 40/304/179 43/10/179
f 39/87/180 42/202/180 64/88/180
f 38/90/47 41/93/47 104/91/47
f 37/6/47 40/7/47 41/93/47
f 62/94/181 36/201/181 39/87/181
f 114/95/182 113/96/182 38/90/182
f 113/96/183 34/4/183 37/6/183
f 61/53/184 31/207/184 36/97/184
f 32/99/52 116/305/52 115/100/52
f 112/58/185 33/1/185 34/3/185
f 23/103/186 22/174/186 100/104/186
f 66/106/187 67/127/187 7/107/187
f 7/109/188 84/306/188 94/110/188
f 8/112/189 9/307/189 96/113/189
f 23/103/190 99/105/190 90/115/190
f 1/117/191 61/133/191 62/118/191
f 2/119/192 62/118/192 63/120/192
f 3/121/193 63/120/193 64/122/193
f 5/124/62 4/308/62 64/84/62
f 6/108/194 5/309/194 65/125/194
f 8/126/195 7/107/195 67/127/195
f 9/129/64 8/126/64 68/128/64
f 10/131/64 9/129/64 69/130/64
f 1/117/64 10/131/64 70/132/64
f 7/134/196 8/112/196 95/114/196
f 29/136/67 30/155/67 71/137/67
f 28/139/67 29/136/67 72/138/67
f 27/141/67 28/139/67 73/140/67
f 27/141/197 74/142/197 75/143/197
f 26/144/198 75/143/198 76/145/198
f 25/146/67 76/145/67 77/147/67
f 24/148/67 77/147/67 78/149/67
f 22/151/67 23/150/67 78/149/67
f 21/153/199 22/151/199 79/152/199
f 21/153/200 80/154/200 71/137/200
f 82/156/64 81/173/64 92/157/64
f 83/159/64 84/310/64 95/160/64
f 94/162/64 84/310/64 83/159/64
f 85/164/67 86/168/67 90/165/67
f 85/164/67 87/311/67 88/167/67
f 88/167/67 87/311/67 97/169/67
f 89/166/67 90/165/67 99/171/67
f 94/162/64 91/163/64 81/173/64
f 22/174/201 21/312/201 89/175/201
f 10/176/73 1/26/73 91/25/73
f 29/177/202 28/313/202 97/178/202
f 2/179/203 3/187/203 92/180/203
f 30/27/204 85/29/204 89/182/204
f 28/184/205 27/189/205 98/185/205
f 3/187/206 4/314/206 93/188/206
f 27/189/207 26/315/207 88/190/207
f 4/191/80 5/197/80 82/192/80
f 25/194/208 86/199/208 88/195/208
f 6/111/209 94/110/209 82/192/209
f 24/198/83 90/316/83 86/199/83
f 31/200/210 111/317/210 114/95/210
f 36/201/211 114/95/211 103/92/211
f 103/92/212 104/91/212 42/202/212
f 104/85/43 105/82/43 45/203/43
f 45/203/40 105/82/40 106/75/40
f 48/80/213 106/75/213 107/77/213
f 51/204/34 107/71/34 108/65/34
f 108/65/31 109/67/31 57/205/31
f 57/206/214 109/60/214 110/57/214
f 110/57/215 111/56/215 31/207/215
f 32/208/216 101/318/216 111/209/216
f 35/211/217 32/224/217 112/212/217
f 35/214/218 113/96/218 114/95/218
f 102/216/219 114/319/219 111/217/219
f 115/100/220 116/305/220 117/219/220
f 102/216/221 101/218/221 115/221/221
f 35/211/222 117/320/222 116/223/222
f 102/215/101 118/321/101 117/225/101
f 71/226/223 128/33/223 127/51/223
f 73/228/224 72/227/224 127/51/224
f 73/230/225 126/48/225 125/49/225
f 74/231/155 125/49/155 124/46/155
f 76/233/226 75/322/226 124/44/226
f 77/234/227 76/233/227 123/45/227
f 77/235/228 132/323/228 131/236/228
f 79/238/229 78/237/229 131/236/229
f 79/238/230 120/35/230 119/37/230
f 71/226/231 80/324/231 119/240/231
f 15/241/232 129/325/232 130/242/232
f 121/244/233 14/254/233 130/245/233
f 15/247/234 122/258/234 132/42/234
f 122/248/235 121/39/235 131/249/235
f 142/251/115 141/274/115 137/252/115
f 14/254/236 121/244/236 135/255/236
f 15/247/237 133/326/237 136/257/237
f 14/243/238 134/273/238 133/259/238
f 139/260/119 140/267/119 156/261/119
f 143/263/120 138/327/120 137/264/120
f 144/266/121 142/328/121 140/267/121
f 144/268/122 139/297/122 138/269/122
f 135/255/122 144/268/122 143/270/122
f 144/268/239 135/255/239 146/271/239
f 134/273/120 143/263/120 141/265/120
f 136/257/115 133/326/115 141/274/115
f 146/271/124 150/329/124 152/275/124
f 142/251/240 147/292/240 145/276/240
f 135/277/241 136/330/241 145/278/241
f 144/280/242 148/331/242 147/281/242
f 150/283/128 149/332/128 151/284/128
f 146/286/129 145/333/129 149/287/129
f 147/289/130 148/334/130 152/290/130
f 147/292/131 151/335/131 149/293/131
f 156/294/243 153/336/243 154/295/243
f 139/297/133 155/337/133 154/298/133
f 137/252/134 153/338/134 156/299/134
f 137/264/135 138/327/135 154/300/135
