# Blender 4.2.0
# www.blender.org
mtllib mushroom.mtl
g mushroom_Mesh
v -0.017214 0.024122 0.011849
v -0.068603 0.109702 0.068773
v -0.017214 0.024122 -0.022431
v -0.068603 0.124020 -0.067535
v 0.017066 0.024122 0.011849
v 0.068455 0.103321 0.068103
v 0.017066 0.024122 -0.022431
v 0.068455 0.117639 -0.068205
v -0.025043 0.024122 -0.005291
v -0.099904 0.110480 -0.000051
v 0.024895 0.024122 -0.005291
v 0.099756 0.119505 0.000897
v -0.000074 0.024122 -0.030260
v -0.000074 0.120909 -0.099335
v -0.000074 0.024122 0.019678
v -0.000074 0.100052 0.099233
v -0.016791 0.000000 0.011426
v -0.089543 0.126649 0.002316
v -0.064670 0.139778 -0.061457
v -0.006340 0.152336 -0.024859
v 0.003921 0.159602 0.003514
v 0.091006 0.135673 0.003465
v 0.003921 0.159105 0.011459
v -0.000050 0.147241 0.032839
v -0.068093 0.126282 0.055751
v -0.000074 0.159354 0.007487
v -0.021632 0.107291 0.000532
v -0.014873 0.108837 -0.014186
v -0.000074 0.109543 -0.020909
v 0.014725 0.108837 -0.014186
v 0.021484 0.107291 0.000532
v 0.014725 0.105745 0.015250
v -0.000074 0.105038 0.021972
v -0.014873 0.105745 0.015250
v -0.035903 0.149781 -0.003237
v -0.004069 0.159602 0.003514
v -0.000678 0.136479 -0.089256
v 0.060897 0.133397 -0.057698
v 0.026896 0.149796 0.001551
v 0.064522 0.119901 0.066357
v 0.005527 0.119997 0.091513
v -0.004069 0.159105 0.011459
v -0.054271 0.140271 0.004408
v -0.041470 0.141920 -0.046838
v 0.012867 0.142658 -0.054515
v 0.037167 0.141883 -0.032670
v 0.054123 0.140217 0.004513
v 0.052037 0.138348 0.039483
v -0.000084 0.137609 0.054006
v -0.033489 0.138605 0.052062
v -0.091851 0.106040 -0.000518
v -0.063075 0.119002 -0.062504
v -0.000074 0.115628 -0.091792
v 0.062927 0.115265 -0.062896
v 0.091703 0.115064 0.000430
v 0.062927 0.099459 0.062139
v -0.000074 0.096453 0.090757
v -0.063075 0.105839 0.062809
v -0.023310 0.109150 -0.022637
v 0.023162 0.109150 -0.022637
v 0.023162 0.104295 0.023581
v -0.023310 0.104295 0.023581
v -0.033923 0.106722 0.000472
v -0.000074 0.110258 -0.033192
v 0.033775 0.106722 0.000472
v -0.000074 0.103186 0.034136
v -0.047506 0.119217 0.001785
v -0.059320 0.117762 0.001632
v -0.000074 0.124172 -0.045387
v -0.000074 0.123951 -0.057290
v 0.047358 0.114152 0.001253
v 0.059172 0.117762 0.001632
v -0.000074 0.114262 0.048957
v -0.000074 0.111573 0.060554
v 0.040616 0.113510 0.042099
v -0.040764 0.122012 -0.038836
v 0.040616 0.122012 -0.038836
v -0.040764 0.113510 0.042099
v -0.032668 0.122620 -0.030631
v 0.032520 0.122620 -0.030631
v 0.032520 0.115810 0.034200
v -0.032668 0.115810 0.034200
v -0.000074 0.108892 0.040233
v -0.039391 0.113000 0.001132
v -0.027086 0.110177 0.027995
v 0.039243 0.113000 0.001132
v 0.026937 0.110177 0.027995
v -0.000074 0.117107 -0.037970
v 0.026937 0.115821 -0.025732
v -0.027086 0.115821 -0.025732
v 0.059378 0.123262 -0.058488
v 0.086506 0.123433 0.001309
v 0.059378 0.110841 0.059766
v -0.000074 0.108007 0.086745
v -0.059526 0.117221 0.060436
v -0.000074 0.126097 -0.085467
v -0.059526 0.129643 -0.057817
v -0.086654 0.117052 0.000639
v -0.013146 0.051058 0.006349
v -0.011572 0.090373 0.010316
v -0.011572 0.092775 -0.012554
v -0.013146 0.051058 -0.019795
v 0.011424 0.092775 -0.012554
v 0.012998 0.051058 -0.019795
v 0.011424 0.090373 0.010316
v 0.012998 0.051058 0.006349
v 0.016676 0.091574 -0.001119
v 0.018969 0.051058 -0.006723
v -0.016824 0.091574 -0.001119
v -0.019117 0.051058 -0.006723
v -0.000074 0.089824 0.015539
v -0.000074 0.051058 0.012320
v -0.000074 0.093324 -0.017778
v -0.000074 0.051058 -0.025766
v -0.018131 0.014894 0.012766
v -0.018131 0.014894 -0.023348
v 0.017983 0.014894 0.012766
v 0.017983 0.014894 -0.023348
v -0.026379 0.014894 -0.005291
v 0.026231 0.014894 -0.005291
v -0.000074 0.014894 -0.031596
v -0.000074 0.014894 0.021014
v -0.016791 0.000000 -0.022008
v 0.016643 0.000000 0.011426
v 0.016643 0.000000 -0.022008
v -0.024426 0.000000 -0.005291
v 0.024278 0.000000 -0.005291
v -0.000074 0.000000 -0.029643
v -0.000074 0.000000 0.019061
v -0.000074 0.000000 -0.005291
v -0.015420 0.156085 0.006954
v -0.018880 0.151532 -0.012742
v -0.000073 0.157041 -0.008309
v 0.018700 0.151543 -0.017807
v 0.015274 0.156085 0.006954
v 0.018733 0.148045 0.024346
v -0.000049 0.153900 0.023197
v -0.018847 0.148034 0.024377
v -0.005893 0.159354 0.007487
v -0.010608 0.156741 -0.003523
v -0.000074 0.159716 0.001699
v 0.010462 0.156741 -0.003523
v 0.005745 0.159354 0.007487
v 0.010487 0.154200 0.018412
v -0.000074 0.158991 0.013274
v -0.010584 0.154200 0.018412
v -0.012359 0.069920 0.006264
v -0.012359 0.071121 -0.018244
v 0.012211 0.071121 -0.018244
v 0.012211 0.069920 0.006264
v 0.017822 0.070520 -0.005990
v -0.017970 0.070520 -0.005990
v -0.000074 0.069645 0.011861
v -0.000074 0.071395 -0.023841
v -0.000093 0.111828 0.100189
v 0.068934 0.113473 0.069656
v 0.068934 0.127891 -0.067606
v -0.000074 0.131184 -0.098953
v -0.069082 0.134507 -0.066911
v 0.100454 0.130038 0.002008
v -0.069082 0.120088 0.070350
v -0.100602 0.120682 0.001025
vn -0.8767 -0.2234 -0.4261
vn 0.4004 -0.1737 -0.8997
vn 0.8767 -0.3071 0.3704
vn -0.4004 -0.3569 0.8440
vn -0.4119 0.1305 -0.9018
vn 0.6279 0.6504 0.4275
vn -0.1815 0.8583 -0.4800
vn 0.4119 0.1305 0.9018
vn 0.8767 -0.2234 -0.4261
vn -0.8767 -0.3071 0.3704
vn -0.9018 0.1305 -0.4119
vn 0.3184 0.5786 0.7509
vn 0.2170 0.9173 -0.3338
vn 0.9018 0.1305 0.4119
vn 0.4004 -0.3569 0.8440
vn -0.4004 -0.1737 -0.8997
vn -0.0000 0.9980 0.0625
vn 0.4647 0.8464 -0.2602
vn -0.4832 0.8524 0.1998
vn -0.6937 0.7094 -0.1245
vn -0.1073 0.9179 0.3821
vn 0.0464 -0.9954 -0.0832
vn -0.0212 -0.9981 -0.0582
vn -0.0464 -0.9910 -0.1254
vn 0.0212 -0.9884 -0.1505
vn 0.0464 -0.9910 -0.1254
vn -0.0464 -0.9954 -0.0832
vn 0.0212 -0.9981 -0.0582
vn -0.0212 -0.9884 -0.1505
vn -0.0968 0.9953 0.0078
vn 0.1765 0.9709 -0.1619
vn 0.4082 0.8300 0.3801
vn -0.2166 0.7828 0.5834
vn -0.3639 0.9189 0.1524
vn 0.1190 0.9883 -0.0954
vn -0.0362 0.9862 -0.1613
vn 0.1710 0.9014 0.3977
vn -0.4883 0.8676 -0.0941
vn 0.1007 0.9632 -0.2491
vn 0.3086 0.9336 0.1822
vn 0.0030 0.9102 0.4142
vn -0.2979 0.9406 0.1628
vn 0.4044 0.9102 -0.0891
vn -0.1990 0.9697 -0.1416
vn 0.0936 0.9191 0.3828
vn 0.2162 -0.8987 0.3816
vn -0.2742 -0.8146 -0.5112
vn 0.2822 -0.9504 -0.1312
vn -0.4233 -0.8874 0.1825
vn -0.2966 -0.8790 0.3733
vn 0.4822 -0.8760 0.0137
vn 0.2162 -0.7998 -0.5600
vn -0.4631 -0.7997 -0.3822
vn 0.2676 -0.6981 -0.6641
vn 0.0326 -0.9801 -0.1960
vn 0.5875 -0.7875 0.1864
vn -0.0131 -0.9970 -0.0759
vn -0.2676 -0.8209 0.5045
vn 0.2004 -0.9728 -0.1165
vn -0.5880 -0.7871 0.1864
vn -0.0935 -0.9865 -0.1343
vn -0.0560 -0.9726 -0.2258
vn 0.0560 -0.9983 0.0188
vn -0.2252 -0.9626 -0.1509
vn 0.1230 -0.9796 -0.1592
vn 0.0560 -0.9726 -0.2255
vn 0.2911 -0.9561 0.0330
vn -0.0560 -0.9983 0.0185
vn 0.1227 -0.9913 -0.0479
vn -0.0140 -0.9908 -0.1349
vn -0.5875 -0.7316 -0.3459
vn -0.0885 -0.9514 -0.2950
vn 0.2676 -0.8205 0.5050
vn -0.0292 -0.9954 -0.0912
vn -0.2676 -0.6977 -0.6645
vn -0.2031 -0.9791 -0.0097
vn 0.1381 -0.9394 -0.3138
vn 0.7147 -0.5817 -0.3884
vn -0.3256 -0.5410 -0.7754
vn 0.3256 -0.6904 0.6461
vn -0.7128 -0.5838 -0.3887
vn -0.7147 -0.6497 0.2591
vn -0.3256 -0.6923 0.6440
vn 0.7128 -0.6518 0.2589
vn 0.3256 -0.5433 -0.7738
vn 0.8544 -0.3470 -0.3866
vn -0.7704 -0.5340 0.3484
vn 0.3483 -0.4727 0.8095
vn -0.3821 -0.3013 -0.8736
vn 0.3472 -0.3076 -0.8859
vn -0.7773 -0.4350 -0.4544
vn -0.3678 -0.4809 0.7959
vn 0.8489 -0.4326 0.3037
vn -0.4108 0.1500 -0.8993
vn -0.4066 0.2435 -0.8806
vn 0.4032 0.2412 0.8828
vn 0.4121 -0.1618 0.8967
vn -0.8879 0.2169 0.4056
vn -0.9091 -0.0463 0.4140
vn 0.8955 0.1753 -0.4090
vn 0.9029 0.1396 -0.4066
vn -0.4032 0.2412 0.8828
vn -0.4121 -0.1618 0.8967
vn 0.8879 0.2169 0.4056
vn 0.9091 -0.0463 0.4140
vn 0.4108 0.1500 -0.8993
vn 0.4066 0.2435 -0.8806
vn -0.8955 0.1753 -0.4090
vn -0.9029 0.1396 -0.4066
vn -0.9032 -0.1184 0.4125
vn 0.9032 -0.1184 -0.4125
vn -0.9032 -0.1184 -0.4125
vn -0.4125 -0.1184 0.9032
vn -0.4119 0.1305 0.9018
vn -0.9018 0.1305 0.4119
vn 0.4119 0.1305 -0.9018
vn 0.9018 0.1305 -0.4119
vn -0.0000 -1.0000 -0.0000
vn 0.4125 -0.1184 -0.9032
vn 0.9032 -0.1184 0.4125
vn 0.4125 -0.1184 0.9032
vn -0.4125 -0.1184 -0.9032
vn -0.2030 0.9612 -0.1865
vn 0.1179 0.9426 -0.3126
vn 0.5498 0.7945 0.2579
vn -0.2285 0.8010 0.5533
vn -0.4114 0.8555 0.3144
vn 0.4117 0.9066 -0.0925
vn -0.1858 0.9175 -0.3516
vn 0.2121 0.8105 0.5459
vn -0.3189 0.9437 -0.0874
vn 0.1433 0.9561 -0.2556
vn 0.3278 0.9215 0.2083
vn -0.1792 0.8752 0.4494
vn -0.3533 0.8877 0.2952
vn 0.3189 0.9438 -0.0873
vn -0.1433 0.9561 -0.2556
vn 0.1789 0.8756 0.4487
vn -0.9075 0.0677 -0.4145
vn 0.4139 0.0858 -0.9063
vn 0.9090 0.0379 0.4152
vn -0.4154 0.0214 0.9094
vn 0.9075 0.0677 -0.4145
vn -0.9090 0.0379 0.4152
vn 0.4154 0.0214 0.9094
vn -0.4139 0.0858 -0.9063
vn -0.4078 -0.1554 0.8998
vn -0.9057 -0.0162 -0.4235
vn -0.9057 -0.1053 0.4107
vn 0.9110 -0.0169 -0.4120
vn 0.4147 0.0338 -0.9093
vn 0.4154 -0.0730 0.9067
vn -0.4194 0.0337 -0.9072
vn 0.9109 -0.1041 0.3992
vn 0.5116 0.7486 0.4217
vn -0.2134 0.7830 -0.5842
vn 0.3158 0.5958 0.7385
vn 0.2465 0.8570 -0.4526
vn 0.3759 0.9052 -0.1981
vn -0.5980 0.7516 0.2783
vn -0.4709 0.8813 -0.0392
vn -0.1730 0.7706 0.6134
vn -0.3624 0.9307 0.0503
vn 0.1689 0.9570 -0.2360
vn 0.1237 0.9905 0.0603
vn 0.0023 0.9053 0.4248
vn -0.3145 0.9339 0.1698
vn 0.2629 0.9618 -0.0768
vn -0.0071 0.9910 -0.1339
vn 0.1325 0.8448 0.5184
vn -0.1845 0.9711 -0.1515
vn 0.2693 0.9254 -0.2668
vn 0.2509 0.9657 0.0666
vn -0.0858 0.9561 0.2802
vn -0.3503 0.8960 0.2730
vn 0.3407 0.9333 -0.1136
vn -0.0615 0.9364 -0.3455
vn 0.1468 0.9003 0.4099
vn -0.2966 -0.7823 -0.5478
vn 0.4822 -0.8540 -0.1954
vn -0.4631 -0.8616 0.2077
vn -0.2742 -0.9030 0.3307
vn 0.5424 -0.8391 0.0407
vn 0.1279 -0.9482 -0.2908
vn -0.4233 -0.8302 -0.3629
vn 0.2676 -0.6977 -0.6645
vn -0.1973 -0.9615 -0.1915
vn 0.1381 -0.9841 0.1117
vn -0.2676 -0.8205 0.5050
vn -0.0301 -0.9926 -0.1181
vn -0.5875 -0.7875 0.1864
vn -0.0943 -0.9901 0.1039
vn -0.0560 -0.9726 -0.2255
vn 0.0560 -0.9983 0.0185
vn 0.2911 -0.9284 -0.2310
vn 0.1227 -0.9796 -0.1592
vn 0.0560 -0.9726 -0.2258
vn -0.2252 -0.9729 -0.0525
vn -0.0560 -0.9983 0.0188
vn 0.1230 -0.9913 -0.0478
vn -0.5880 -0.7312 -0.3459
vn -0.0944 -0.9927 -0.0756
vn 0.2676 -0.8209 0.5045
vn 0.2013 -0.9755 -0.0886
vn -0.2676 -0.6981 -0.6641
vn 0.0263 -0.9996 -0.0091
vn 0.5875 -0.7316 -0.3459
vn 0.7128 -0.5838 -0.3887
vn -0.3256 -0.5433 -0.7738
vn 0.3256 -0.6923 0.6440
vn -0.7147 -0.5817 -0.3884
vn -0.7128 -0.6518 0.2589
vn -0.3256 -0.6904 0.6461
vn 0.7147 -0.6497 0.2591
vn 0.3256 -0.5410 -0.7754
vn 0.8489 -0.3600 -0.3869
vn -0.7773 -0.5199 0.3541
vn 0.3472 -0.4850 0.8027
vn -0.3821 -0.3031 -0.8730
vn 0.3483 -0.2942 -0.8900
vn -0.8117 -0.3505 -0.4672
vn -0.3624 -0.5681 0.7389
vn 0.8544 -0.4198 0.3061
vn -0.4106 0.2456 -0.8781
vn 0.4145 -0.1632 0.8953
vn -0.9096 -0.0468 0.4128
vn 0.9051 0.1420 -0.4008
vn -0.4145 -0.1632 0.8953
vn 0.9096 -0.0468 0.4128
vn 0.4106 0.2456 -0.8781
vn -0.9051 0.1420 -0.4008
vn -0.4161 0.8993 -0.1348
vn 0.1464 0.9537 -0.2626
vn 0.4129 0.8552 0.3132
vn -0.2113 0.8110 0.5455
vn -0.4179 0.8532 0.3121
vn 0.4212 0.8965 -0.1373
vn -0.2367 0.9544 -0.1817
vn 0.2285 0.8010 0.5533
vn 0.3528 0.8884 0.2936
vn -0.3278 0.9215 0.2083
vn -0.9083 0.0690 -0.4126
vn 0.4146 0.0863 -0.9059
vn 0.9077 0.0398 0.4176
vn -0.4141 0.0225 0.9100
vn 0.9083 0.0690 -0.4126
vn -0.9077 0.0398 0.4176
vn 0.4141 0.0225 0.9100
vn -0.4146 0.0863 -0.9059
vn -0.4138 -0.0744 0.9073
vn -0.9057 -0.0173 -0.4236
vn -0.9057 -0.1042 0.4109
vn 0.9109 -0.0185 -0.4121
vn 0.4026 -0.1569 0.9018
vn -0.4195 0.0348 -0.9071
vn 0.9110 -0.1025 0.3994
vt 0.831891 0.348369
vt 0.832336 0.347421
vt 0.832428 0.348328
vt 0.831909 0.348367
vt 0.832407 0.347459
vt 0.832446 0.348367
vt 0.828286 0.349105
vt 0.828739 0.348213
vt 0.828822 0.349105
vt 0.828841 0.349772
vt 0.829231 0.348824
vt 0.829377 0.349717
vt 0.827482 0.366181
vt 0.821165 0.368873
vt 0.821440 0.365918
vt 0.176079 0.843612
vt 0.171996 0.843094
vt 0.175929 0.843241
vt 0.172296 0.833508
vt 0.169570 0.836499
vt 0.169153 0.836393
vt 0.830957 0.370625
vt 0.821816 0.375282
vt 0.821892 0.370924
vt 0.833155 0.348409
vt 0.830086 0.349674
vt 0.816881 0.365695
vt 0.816362 0.368638
vt 0.178545 0.840761
vt 0.179218 0.840755
vt 0.169127 0.840592
vt 0.169724 0.840322
vt 0.815065 0.371785
vt 0.814624 0.376190
vt 0.829533 0.349113
vt 0.833139 0.348328
vt 0.173991 0.838258
vt 0.174283 0.838140
vt 0.174281 0.838382
vt 0.173886 0.837969
vt 0.173701 0.838134
vt 0.173699 0.838376
vt 0.173855 0.838554
vt 0.174096 0.838546
vt 0.171782 0.843612
vt 0.176569 0.833481
vt 0.178420 0.836200
vt 0.176289 0.833997
vt 0.172387 0.833781
vt 0.179248 0.836528
vt 0.778432 0.516002
vt 0.778043 0.516215
vt 0.777945 0.516002
vt 0.778799 0.516809
vt 0.778587 0.516419
vt 0.778799 0.516322
vt 0.777994 0.517176
vt 0.778384 0.516963
vt 0.778481 0.517177
vt 0.777627 0.516370
vt 0.777840 0.516759
vt 0.777626 0.516857
vt 0.777840 0.516449
vt 0.778587 0.516729
vt 0.778353 0.516215
vt 0.778074 0.516963
vt 0.175376 0.835669
vt 0.172533 0.835238
vt 0.170874 0.837833
vt 0.171391 0.839531
vt 0.174641 0.841826
vt 0.177256 0.837734
vt 0.172846 0.841184
vt 0.176584 0.839485
vt 0.174436 0.836330
vt 0.172418 0.838783
vt 0.172646 0.837354
vt 0.174539 0.839701
vt 0.173203 0.839622
vt 0.175407 0.838931
vt 0.175420 0.837791
vt 0.173546 0.836977
vt 0.171948 0.843840
vt 0.169149 0.840879
vt 0.172090 0.843431
vt 0.178952 0.836405
vt 0.175605 0.834040
vt 0.175770 0.833624
vt 0.178952 0.840642
vt 0.176005 0.843427
vt 0.178536 0.840489
vt 0.171521 0.833627
vt 0.169166 0.836979
vt 0.168766 0.836822
vt 0.168749 0.841063
vt 0.176204 0.843835
vt 0.178529 0.836597
vt 0.171697 0.834042
vt 0.778900 0.516277
vt 0.779046 0.516894
vt 0.778900 0.516843
vt 0.778803 0.515076
vt 0.777754 0.515558
vt 0.777553 0.515077
vt 0.778529 0.517270
vt 0.777917 0.517409
vt 0.777964 0.517270
vt 0.779738 0.517141
vt 0.779249 0.516118
vt 0.779738 0.515895
vt 0.777537 0.516898
vt 0.777401 0.516278
vt 0.777537 0.516332
vt 0.777678 0.518081
vt 0.778691 0.517614
vt 0.778928 0.518080
vt 0.777907 0.515905
vt 0.777849 0.515763
vt 0.776743 0.516016
vt 0.777196 0.517055
vt 0.776737 0.517264
vt 0.777839 0.517614
vt 0.777402 0.516961
vt 0.778606 0.515559
vt 0.779046 0.516211
vt 0.778531 0.515763
vt 0.779249 0.516971
vt 0.778594 0.517410
vt 0.777196 0.516202
vt 0.778473 0.515905
vt 0.779007 0.516957
vt 0.779134 0.516435
vt 0.779134 0.517000
vt 0.778708 0.515917
vt 0.778562 0.516435
vt 0.778581 0.515869
vt 0.778953 0.516233
vt 0.779074 0.515710
vt 0.779074 0.516276
vt 0.778708 0.516773
vt 0.778692 0.516404
vt 0.778994 0.515637
vt 0.778859 0.516157
vt 0.778870 0.515591
vt 0.778994 0.516493
vt 0.778985 0.516124
vt 0.170756 0.839565
vt 0.171132 0.835799
vt 0.171398 0.839482
vt 0.174585 0.842027
vt 0.174318 0.838237
vt 0.174799 0.838121
vt 0.174563 0.839696
vt 0.174845 0.835922
vt 0.175189 0.839599
vt 0.176100 0.838372
vt 0.175125 0.842074
vt 0.175450 0.838414
vt 0.171132 0.842245
vt 0.170496 0.842495
vt 0.175629 0.835375
vt 0.175125 0.835597
vt 0.778599 0.516548
vt 0.778361 0.515646
vt 0.778570 0.515548
vt 0.174845 0.842366
vt 0.174220 0.842630
vt 0.822653 0.357310
vt 0.822956 0.350874
vt 0.826790 0.343897
vt 0.827289 0.350974
vt 0.829077 0.358135
vt 0.823022 0.339356
vt 0.828695 0.349269
vt 0.822195 0.349350
vt 0.823013 0.356122
vt 0.830032 0.369016
vt 0.820967 0.368704
vt 0.823207 0.347116
vt 0.827691 0.336841
vt 0.829701 0.347051
vt 0.827422 0.370976
vt 0.834209 0.357820
vt 0.836487 0.370650
vt 0.829428 0.337959
vt 0.833964 0.348474
vt 0.827471 0.348418
vt 0.817792 0.356360
vt 0.814121 0.369016
vt 0.818303 0.347472
vt 0.821617 0.337209
vt 0.822163 0.358362
vt 0.818436 0.339356
vt 0.817299 0.349679
vt 0.820570 0.371372
vt 0.827296 0.358069
vt 0.824834 0.337960
vt 0.822561 0.348570
vt 0.819176 0.357139
vt 0.819685 0.350907
vt 0.822733 0.343897
vt 0.820595 0.373063
vt 0.829507 0.380592
vt 0.820666 0.380287
vt 0.827364 0.375407
vt 0.836781 0.382261
vt 0.827940 0.382579
vt 0.816725 0.373436
vt 0.813989 0.380592
vt 0.813383 0.373392
vt 0.820145 0.375824
vt 0.819987 0.352563
vt 0.816136 0.363208
vt 0.809469 0.357425
vt 0.830576 0.356533
vt 0.830504 0.347701
vt 0.823837 0.341918
vt 0.815078 0.341918
vt 0.809398 0.348594
vt 0.821257 0.382966
vt 0.815714 0.383328
vt 0.831214 0.382197
vt 0.822372 0.382487
vt 0.827064 0.373911
vt 0.821171 0.373655
vt 0.174370 0.837506
vt 0.173247 0.837959
vt 0.173652 0.839067
vt 0.174846 0.838012
vt 0.174840 0.838651
vt 0.173240 0.838597
vt 0.173733 0.837526
vt 0.174354 0.839084
vt 0.174127 0.837962
vt 0.822070 0.358371
vt 0.816957 0.359019
vt 0.829926 0.356360
vt 0.827261 0.357510
vt 0.174041 0.838717
vt 0.173816 0.841908
vt 0.173450 0.838720
vt 0.173610 0.838553
vt 0.173532 0.841790
vt 0.173019 0.838547
vt 0.173901 0.834461
vt 0.174479 0.834488
vt 0.173807 0.835025
vt 0.173331 0.839249
vt 0.173214 0.834951
vt 0.173792 0.842488
vt 0.173908 0.839291
vt 0.173934 0.837971
vt 0.174828 0.842160
vt 0.174166 0.842202
vt 0.173532 0.834295
vt 0.174109 0.834330
vt 0.174235 0.834757
vt 0.174510 0.837927
vt 0.831645 0.347474
vt 0.831716 0.347460
vt 0.828049 0.348213
vt 0.828541 0.348895
vt 0.827530 0.369150
vt 0.831366 0.374968
vt 0.833320 0.347514
vt 0.830145 0.348769
vt 0.829654 0.348222
vt 0.833251 0.347421
vt 0.779007 0.516470
vt 0.778953 0.515746
vt 0.778581 0.516863
vt 0.778870 0.516585
vt 0.170496 0.835662
vt 0.174095 0.841923
vt 0.174220 0.835799
vt 0.175756 0.842252
vt 0.778436 0.516587
vt 0.829106 0.339420
vt 0.835502 0.338318
vt 0.817028 0.337682
vt 0.819666 0.344132
vt 0.830145 0.373392
vt 0.836914 0.375063
vt 0.824895 0.363208
vt 0.174479 0.841935
vt 0.174109 0.841773
vt 0.173214 0.842468
vt 0.174828 0.834689
s 0
g mushroom_Material
usemtl Material
f 109/1/1 28/2/1 101/3/1
f 113/4/2 30/5/2 103/6/2
f 107/7/3 32/8/3 105/9/3
f 111/10/4 34/11/4 100/12/4
f 13/13/5 116/14/5 3/15/5
f 156/16/6 22/17/6 40/18/6
f 159/19/7 37/20/7 158/21/7
f 15/22/8 117/23/8 5/24/8
f 30/5/9 107/25/9 103/6/9
f 34/11/10 109/26/10 100/12/10
f 9/27/11 116/14/11 119/28/11
f 156/16/12 41/29/12 155/30/12
f 157/31/13 37/20/13 38/32/13
f 11/33/14 117/23/14 120/34/14
f 32/8/15 111/35/15 105/9/15
f 28/2/16 113/36/16 101/3/16
f 26/37/17 42/38/17 145/39/17
f 36/40/17 26/37/17 141/41/17
f 21/42/17 26/37/17 143/43/17
f 26/37/17 23/44/17 143/43/17
f 160/45/18 38/32/18 22/17/18
f 162/46/19 25/47/19 18/48/19
f 159/19/20 18/48/20 19/49/20
f 161/50/21 41/29/21 25/47/21
f 59/51/22 27/52/22 63/53/22
f 60/54/23 29/55/23 64/56/23
f 61/57/24 31/58/24 65/59/24
f 62/60/25 33/61/25 66/62/25
f 62/60/26 27/52/26 34/63/26
f 60/54/27 31/58/27 30/64/27
f 59/51/28 29/55/28 28/65/28
f 61/57/29 33/61/29 32/66/29
f 19/49/30 43/67/30 44/68/30
f 38/32/31 45/69/31 46/70/31
f 22/17/32 48/71/32 40/18/32
f 41/29/33 50/72/33 25/47/33
f 25/47/34 43/67/34 18/48/34
f 38/32/35 47/73/35 22/17/35
f 37/20/36 44/68/36 45/69/36
f 40/18/37 49/74/37 41/29/37
f 35/75/38 44/68/38 43/67/38
f 134/76/39 45/69/39 20/77/39
f 136/78/40 47/73/40 39/79/40
f 24/80/41 50/72/41 49/74/41
f 138/81/42 43/67/42 50/72/42
f 39/79/43 46/70/43 134/76/43
f 20/77/44 44/68/44 132/82/44
f 136/78/45 49/74/45 48/71/45
f 6/83/46 57/84/46 56/85/46
f 14/86/47 52/87/47 4/88/47
f 8/89/48 55/90/48 54/91/48
f 10/92/49 58/93/49 2/94/49
f 16/95/50 58/93/50 57/84/50
f 6/83/51 55/90/51 12/96/51
f 8/89/52 53/97/52 14/86/52
f 10/92/53 52/87/53 51/98/53
f 88/99/54 80/100/54 89/101/54
f 97/102/55 68/103/55 98/104/55
f 86/105/56 81/106/56 87/107/56
f 91/108/57 70/109/57 96/110/57
f 83/111/58 82/112/58 85/113/58
f 93/114/59 72/115/59 92/116/59
f 84/117/60 82/112/60 67/118/60
f 95/119/61 74/120/61 94/121/61
f 75/122/62 73/123/62 81/106/62
f 76/124/63 69/125/63 79/126/63
f 77/127/64 71/128/64 80/100/64
f 78/129/65 67/118/65 82/112/65
f 78/129/66 73/123/66 74/120/66
f 75/122/67 71/128/67 72/115/67
f 77/127/68 69/125/68 70/109/68
f 76/124/69 67/118/69 68/103/69
f 93/114/70 74/120/70 75/122/70
f 84/117/71 79/126/71 90/130/71
f 97/102/72 70/109/72 76/124/72
f 83/111/73 81/106/73 73/123/73
f 91/108/74 72/115/74 77/127/74
f 88/99/75 79/126/75 69/125/75
f 95/119/76 68/103/76 78/129/76
f 86/105/77 80/100/77 71/128/77
f 65/131/78 89/132/78 86/133/78
f 64/134/79 90/135/79 88/136/79
f 66/137/80 87/138/80 83/139/80
f 63/140/81 90/135/81 59/141/81
f 63/142/82 85/143/82 84/144/82
f 66/145/83 85/143/83 62/146/83
f 65/59/84 87/107/84 61/57/84
f 64/56/85 89/101/85 60/54/85
f 58/147/86 98/148/86 95/149/86
f 55/150/87 91/151/87 54/152/87
f 52/153/88 96/154/88 97/155/88
f 56/156/89 94/157/89 93/158/89
f 58/147/90 94/159/90 57/160/90
f 55/161/91 93/158/91 92/162/91
f 54/163/92 96/164/92 53/165/92
f 52/153/93 98/166/93 51/167/93
f 102/168/94 13/13/94 3/15/94
f 148/169/95 113/170/95 154/171/95
f 5/24/96 112/172/96 15/22/96
f 105/173/97 153/174/97 150/175/97
f 99/176/98 9/177/98 1/178/98
f 147/179/99 109/180/99 152/181/99
f 7/182/100 108/183/100 11/184/100
f 103/185/101 151/186/101 149/187/101
f 112/188/102 1/178/102 15/189/102
f 153/190/103 100/191/103 147/179/103
f 11/33/104 106/192/104 5/24/104
f 107/193/105 150/175/105 151/194/105
f 13/195/106 104/196/106 7/182/106
f 113/197/107 149/187/107 154/198/107
f 110/199/108 3/15/108 9/27/108
f 152/200/109 101/201/109 148/169/109
f 115/202/110 126/203/110 17/204/110
f 118/205/111 127/206/111 125/207/111
f 116/14/112 126/208/112 119/28/112
f 115/202/113 129/209/113 122/210/113
f 15/189/114 115/202/114 122/210/114
f 9/177/115 115/202/115 1/178/115
f 13/195/116 118/205/116 121/211/116
f 11/184/117 118/205/117 7/182/117
f 130/212/118 124/213/118 129/214/118
f 125/215/118 130/212/118 128/216/118
f 123/217/118 130/212/118 126/218/118
f 130/212/118 17/219/118 126/218/118
f 118/205/119 128/220/119 121/211/119
f 117/23/120 127/221/120 120/34/120
f 117/23/121 129/222/121 124/223/121
f 116/14/122 128/224/122 123/225/122
f 131/226/123 132/82/123 35/75/123
f 133/227/124 134/76/124 20/77/124
f 135/228/125 136/78/125 39/79/125
f 146/229/126 24/80/126 137/230/126
f 131/226/127 138/81/127 146/229/127
f 142/231/128 39/79/128 134/76/128
f 133/227/129 132/82/129 140/232/129
f 144/233/130 24/80/130 136/78/130
f 139/234/131 140/232/131 131/226/131
f 141/41/132 142/231/132 133/227/132
f 23/44/133 135/228/133 143/43/133
f 145/39/134 146/229/134 137/230/134
f 42/38/135 131/226/135 146/229/135
f 143/43/136 142/231/136 21/42/136
f 141/41/137 140/232/137 36/40/137
f 145/39/138 144/233/138 23/44/138
f 110/199/139 148/169/139 102/168/139
f 154/198/140 104/196/140 114/235/140
f 151/194/141 106/192/141 108/236/141
f 112/188/142 147/179/142 99/176/142
f 149/187/143 108/183/143 104/196/143
f 99/176/144 152/181/144 110/237/144
f 150/175/145 112/172/145 106/192/145
f 102/168/146 154/171/146 114/238/146
f 2/239/147 155/240/147 161/241/147
f 4/242/148 162/243/148 159/244/148
f 2/239/149 162/245/149 10/246/149
f 12/247/150 157/248/150 160/249/150
f 14/250/151 157/248/151 8/251/151
f 6/252/152 155/253/152 16/254/152
f 4/242/153 158/255/153 14/256/153
f 12/257/154 156/258/154 6/252/154
f 109/1/1 27/259/1 28/2/1
f 113/4/2 29/260/2 30/5/2
f 107/7/3 31/261/3 32/8/3
f 111/10/4 33/262/4 34/11/4
f 13/13/5 121/263/5 116/14/5
f 156/16/155 160/45/155 22/17/155
f 159/19/156 19/49/156 37/20/156
f 15/22/8 122/264/8 117/23/8
f 30/5/9 31/265/9 107/25/9
f 34/11/10 27/266/10 109/26/10
f 9/27/11 3/15/11 116/14/11
f 156/16/157 40/18/157 41/29/157
f 157/31/158 158/21/158 37/20/158
f 11/33/14 5/24/14 117/23/14
f 32/8/15 33/267/15 111/35/15
f 28/2/16 29/268/16 113/36/16
f 26/37/17 139/234/17 42/38/17
f 36/40/17 139/234/17 26/37/17
f 21/42/17 141/41/17 26/37/17
f 26/37/17 145/39/17 23/44/17
f 160/45/159 157/31/159 38/32/159
f 162/46/160 161/50/160 25/47/160
f 159/19/161 162/46/161 18/48/161
f 161/50/162 155/30/162 41/29/162
f 59/51/22 28/65/22 27/52/22
f 60/54/23 30/64/23 29/55/23
f 61/57/24 32/66/24 31/58/24
f 62/60/25 34/63/25 33/61/25
f 62/60/26 63/53/26 27/52/26
f 60/54/27 65/59/27 31/58/27
f 59/51/28 64/56/28 29/55/28
f 61/57/29 66/62/29 33/61/29
f 19/49/163 18/48/163 43/67/163
f 38/32/164 37/20/164 45/69/164
f 22/17/165 47/73/165 48/71/165
f 41/29/166 49/74/166 50/72/166
f 25/47/167 50/72/167 43/67/167
f 38/32/168 46/70/168 47/73/168
f 37/20/169 19/49/169 44/68/169
f 40/18/170 48/71/170 49/74/170
f 35/75/171 132/82/171 44/68/171
f 134/76/172 46/70/172 45/69/172
f 136/78/173 48/71/173 47/73/173
f 24/80/174 138/81/174 50/72/174
f 138/81/175 35/75/175 43/67/175
f 39/79/176 47/73/176 46/70/176
f 20/77/177 45/69/177 44/68/177
f 136/78/178 24/80/178 49/74/178
f 6/83/46 16/95/46 57/84/46
f 14/86/179 53/97/179 52/87/179
f 8/89/180 12/96/180 55/90/180
f 10/92/181 51/98/181 58/93/181
f 16/95/182 2/94/182 58/93/182
f 6/83/183 56/85/183 55/90/183
f 8/89/184 54/91/184 53/97/184
f 10/92/185 4/88/185 52/87/185
f 88/99/186 69/125/186 80/100/186
f 97/102/187 76/124/187 68/103/187
f 86/105/188 71/128/188 81/106/188
f 91/108/57 77/127/57 70/109/57
f 83/111/189 73/123/189 82/112/189
f 93/114/190 75/122/190 72/115/190
f 84/117/191 85/113/191 82/112/191
f 95/119/192 78/129/192 74/120/192
f 75/122/193 74/120/193 73/123/193
f 76/124/194 70/109/194 69/125/194
f 77/127/195 72/115/195 71/128/195
f 78/129/196 68/103/196 67/118/196
f 78/129/197 82/112/197 73/123/197
f 75/122/198 81/106/198 71/128/198
f 77/127/199 80/100/199 69/125/199
f 76/124/200 79/126/200 67/118/200
f 93/114/70 94/121/70 74/120/70
f 84/117/201 67/118/201 79/126/201
f 97/102/202 96/110/202 70/109/202
f 83/111/203 87/107/203 81/106/203
f 91/108/204 92/116/204 72/115/204
f 88/99/205 90/130/205 79/126/205
f 95/119/206 98/104/206 68/103/206
f 86/105/207 89/101/207 80/100/207
f 65/131/208 60/269/208 89/132/208
f 64/134/209 59/141/209 90/135/209
f 66/137/210 61/270/210 87/138/210
f 63/140/211 84/271/211 90/135/211
f 63/142/212 62/146/212 85/143/212
f 66/145/213 83/272/213 85/143/213
f 65/59/214 86/105/214 87/107/214
f 64/56/215 88/99/215 89/101/215
f 58/147/216 51/273/216 98/148/216
f 55/150/217 92/274/217 91/151/217
f 52/153/218 53/275/218 96/154/218
f 56/156/219 57/276/219 94/157/219
f 58/147/220 95/149/220 94/159/220
f 55/161/221 56/156/221 93/158/221
f 54/163/222 91/277/222 96/164/222
f 52/153/223 97/155/223 98/166/223
f 102/168/94 114/238/94 13/13/94
f 148/169/224 101/201/224 113/170/224
f 5/24/96 106/192/96 112/172/96
f 105/173/225 111/278/225 153/174/225
f 99/176/98 110/237/98 9/177/98
f 147/179/226 100/191/226 109/180/226
f 7/182/100 104/196/100 108/183/100
f 103/185/227 107/279/227 151/186/227
f 112/188/102 99/176/102 1/178/102
f 153/190/228 111/280/228 100/191/228
f 11/33/104 108/236/104 106/192/104
f 107/193/229 105/173/229 150/175/229
f 13/195/106 114/235/106 104/196/106
f 113/197/230 103/185/230 149/187/230
f 110/199/108 102/168/108 3/15/108
f 152/200/231 109/281/231 101/201/231
f 115/202/110 119/282/110 126/203/110
f 118/205/111 120/283/111 127/206/111
f 116/14/112 123/225/112 126/208/112
f 115/202/113 17/204/113 129/209/113
f 15/189/114 1/178/114 115/202/114
f 9/177/115 119/282/115 115/202/115
f 13/195/116 7/182/116 118/205/116
f 11/184/117 120/283/117 118/205/117
f 130/212/118 127/284/118 124/213/118
f 125/215/118 127/284/118 130/212/118
f 123/217/118 128/216/118 130/212/118
f 130/212/118 129/214/118 17/219/118
f 118/205/119 125/207/119 128/220/119
f 117/23/120 124/223/120 127/221/120
f 117/23/121 122/264/121 129/222/121
f 116/14/122 121/263/122 128/224/122
f 131/226/232 140/232/232 132/82/232
f 133/227/233 142/231/233 134/76/233
f 135/228/234 144/233/234 136/78/234
f 146/229/235 138/81/235 24/80/235
f 131/226/236 35/75/236 138/81/236
f 142/231/237 135/228/237 39/79/237
f 133/227/238 20/77/238 132/82/238
f 144/233/239 137/230/239 24/80/239
f 139/234/131 36/40/131 140/232/131
f 141/41/132 21/42/132 142/231/132
f 23/44/240 144/233/240 135/228/240
f 145/39/134 42/38/134 146/229/134
f 42/38/241 139/234/241 131/226/241
f 143/43/136 135/228/136 142/231/136
f 141/41/137 133/227/137 140/232/137
f 145/39/138 137/230/138 144/233/138
f 110/199/242 152/200/242 148/169/242
f 154/198/243 149/187/243 104/196/243
f 151/194/244 150/175/244 106/192/244
f 112/188/245 153/190/245 147/179/245
f 149/187/246 151/186/246 108/183/246
f 99/176/247 147/179/247 152/181/247
f 150/175/248 153/174/248 112/172/248
f 102/168/249 148/169/249 154/171/249
f 2/239/250 16/285/250 155/240/250
f 4/242/251 10/286/251 162/243/251
f 2/239/252 161/241/252 162/245/252
f 12/247/253 8/251/253 157/248/253
f 14/250/151 158/287/151 157/248/151
f 6/252/254 156/258/254 155/253/254
f 4/242/255 159/244/255 158/255/255
f 12/257/256 160/288/256 156/258/256
