# Blender 4.2.0
# www.blender.org
mtllib pan.mtl
g pan_Mesh
v -0.155082 -0.000000 0.000000
v -0.125464 -0.000000 -0.091155
v -0.047923 -0.000000 -0.147492
v 0.047923 -0.000000 -0.147492
v 0.125464 -0.000000 -0.091155
v 0.155082 -0.000000 0.000000
v 0.125464 -0.000000 0.091155
v 0.047923 -0.000000 0.147492
v -0.047923 -0.000000 0.147492
v -0.125464 -0.000000 0.091155
v -0.195336 0.020042 0.000000
v -0.158030 0.020042 -0.114816
v -0.060362 0.020042 -0.185776
v 0.060362 0.020042 -0.185776
v 0.158030 0.020042 -0.114816
v 0.195336 0.020042 0.000000
v 0.158030 0.020042 0.114816
v 0.060362 0.020042 0.185776
v -0.060362 0.020042 0.185776
v -0.158030 0.020042 0.114816
v -0.216815 0.092702 0.000000
v -0.213670 0.105655 0.000000
v -0.172862 0.105655 -0.125592
v -0.175407 0.065860 -0.127441
v -0.066028 0.105655 -0.203212
v -0.067000 0.076941 -0.206203
v 0.066028 0.105655 -0.203212
v 0.067000 0.092659 -0.206203
v 0.172862 0.105655 -0.125592
v 0.175407 0.089688 -0.127441
v 0.213670 0.105655 0.000000
v 0.216815 0.076941 0.000000
v 0.172862 0.105655 0.125592
v 0.175407 0.065712 0.127441
v 0.017542 0.090586 0.204782
v 0.020922 0.076975 0.206248
v -0.017542 0.090586 0.204782
v -0.020922 0.076975 0.206248
v -0.172862 0.105655 0.125592
v -0.175407 0.076941 0.127441
v -0.164529 0.026798 -0.000000
v 0.164529 0.026798 -0.000000
v -0.133107 0.026798 0.096708
v 0.133107 0.026798 0.096708
v -0.133107 0.026798 -0.096708
v 0.133107 0.026798 -0.096708
v -0.050842 0.026798 -0.156477
v 0.050842 0.026798 -0.156477
v 0.050842 0.026798 0.156477
v -0.050842 0.026798 0.156477
v -0.163246 0.099605 0.118605
v 0.062354 0.099605 -0.191907
v -0.062354 0.099605 -0.191907
v -0.201783 0.099605 0.000000
v 0.163246 0.099605 0.118605
v 0.062354 0.099605 0.191907
v 0.163246 0.099605 -0.118605
v -0.163246 0.099605 -0.118605
v -0.062354 0.099605 0.191907
v 0.201783 0.099605 0.000000
v -0.172393 0.048491 -0.125251
v -0.065848 0.048491 -0.202660
v 0.065848 0.048491 -0.202660
v 0.172393 0.048491 -0.125251
v 0.213090 0.048491 0.000000
v 0.172393 0.048491 0.125251
v 0.017509 0.063544 0.204535
v -0.017509 0.063544 0.204535
v -0.172393 0.048491 0.125251
v -0.213090 0.048491 0.000000
v -0.000000 0.020042 -0.185776
v 0.000000 0.020042 0.185776
v -0.000000 -0.000000 0.000000
v 0.000000 -0.000000 0.091155
v -0.000000 -0.000000 -0.091155
v -0.000000 -0.000000 -0.147492
v 0.000000 -0.000000 0.147492
v 0.000000 0.076053 0.393586
v -0.000000 0.093663 0.204782
v -0.000000 0.076941 -0.206203
v -0.000000 0.105655 -0.203212
v -0.000000 0.026798 -0.000000
v -0.000000 0.026798 0.096708
v -0.000000 0.026798 -0.096708
v -0.000000 0.026798 -0.156477
v 0.000000 0.026798 0.156477
v 0.000000 0.099605 0.191907
v -0.000000 0.099605 -0.191907
v -0.000000 0.048491 -0.202660
v -0.000000 0.060730 0.204535
v 0.066028 0.105655 0.203212
v 0.067000 0.076941 0.206203
v -0.066027 0.105655 0.203212
v -0.067000 0.087181 0.206203
v 0.000000 0.105655 0.203212
v 0.065848 0.048491 0.202660
v -0.065848 0.048491 0.202660
v 0.000000 0.048491 0.202660
v -0.028690 0.076310 0.340668
v 0.028690 0.076310 0.340668
v -0.017506 0.076135 0.393854
v 0.028610 0.076132 0.388228
v 0.000000 0.095534 0.392307
v 0.009723 0.092122 0.392298
v -0.009723 0.092122 0.392298
v 0.009745 0.060272 0.392005
v -0.009745 0.060272 0.392005
v 0.017506 0.076135 0.393854
v -0.028610 0.076132 0.388228
v 0.000000 0.104391 0.386316
v 0.000000 0.056745 0.392011
v -0.158585 0.076569 0.115219
v -0.152607 0.049834 0.110875
v -0.060574 0.076569 -0.186428
v -0.058291 0.049834 -0.179400
v 0.158585 0.076569 0.115219
v 0.152607 0.049834 0.110875
v 0.058291 0.049834 -0.179400
v 0.060574 0.076569 -0.186428
v -0.188632 0.049834 0.000000
v -0.196022 0.076569 0.000000
v 0.058291 0.049834 0.179400
v 0.060574 0.076569 0.186428
v 0.152607 0.049834 -0.110875
v 0.158585 0.076569 -0.115219
v -0.152607 0.049834 -0.110875
v -0.158585 0.076569 -0.115219
v -0.058291 0.049834 0.179400
v -0.060574 0.076569 0.186428
v 0.188632 0.049834 -0.000000
v 0.196022 0.076569 0.000000
v 0.000000 0.076569 0.186428
v 0.000000 0.049834 0.179400
v 0.000000 0.076569 -0.186428
v 0.000000 0.049834 -0.179400
v -0.020671 0.054946 0.338417
v -0.020621 0.053006 0.385877
v 0.020605 0.099394 0.386316
v 0.020672 0.097821 0.338822
v 0.000000 0.102475 0.338822
v -0.020672 0.097821 0.338822
v 0.000000 0.050258 0.338417
v 0.020671 0.054946 0.338417
v -0.020605 0.099394 0.386316
v 0.000000 0.047896 0.385877
v 0.020621 0.053006 0.385877
v -0.028650 0.076221 0.360121
v -0.020646 0.053976 0.357820
v 0.020638 0.098608 0.358242
v -0.020638 0.098608 0.358242
v 0.028650 0.076221 0.360121
v 0.020646 0.053976 0.357820
v 0.000000 0.100328 0.344347
v 0.000000 0.102605 0.340490
v 0.000000 0.050119 0.339798
v 0.000000 0.052308 0.343742
v 0.013184 0.099924 0.346236
v 0.010437 0.098115 0.348934
v -0.013184 0.099924 0.346236
v -0.010437 0.098115 0.348934
v 0.013205 0.052739 0.345793
v 0.010458 0.054510 0.348530
v -0.010458 0.054510 0.348530
v -0.013205 0.052739 0.345793
v 0.000000 0.051015 0.371700
v 0.000000 0.048051 0.375596
v 0.013112 0.100794 0.370271
v 0.010364 0.098723 0.367535
v -0.010364 0.098723 0.367535
v -0.013112 0.100794 0.370271
v 0.010383 0.053758 0.367125
v 0.013129 0.051664 0.369815
v -0.010383 0.053758 0.367125
v -0.013129 0.051664 0.369815
v 0.000000 0.104285 0.376366
v 0.000000 0.101372 0.372334
v -0.017357 0.052785 0.357820
v -0.013944 0.054132 0.357842
v 0.013917 0.098421 0.358220
v 0.017338 0.099783 0.358242
v -0.013917 0.098421 0.358220
v -0.017338 0.099783 0.358242
v 0.013944 0.054132 0.357842
v 0.017357 0.052785 0.357820
vn -0.4166 0.7054 0.5735
vn -0.0000 -1.0000 -0.0000
vn -0.4166 0.7054 -0.5735
vn 0.6742 0.7054 -0.2190
vn -0.0000 0.7054 0.7088
vn -0.4411 -0.8859 -0.1433
vn -0.2726 -0.8859 -0.3752
vn -0.0000 -0.8859 -0.4638
vn 0.2726 -0.8859 -0.3752
vn 0.4411 -0.8859 -0.1433
vn 0.4411 -0.8859 0.1433
vn 0.2726 -0.8859 0.3752
vn -0.0000 -0.8859 0.4638
vn -0.2726 -0.8859 0.3752
vn -0.4411 -0.8859 0.1433
vn -0.9438 -0.1236 0.3066
vn -0.9420 0.1040 0.3190
vn -0.5833 -0.1236 0.8028
vn -0.5910 0.1039 0.7999
vn 0.2205 -0.9724 -0.0761
vn 0.9372 0.3448 -0.0525
vn 0.5757 -0.2015 0.7924
vn 0.5912 0.0748 0.8030
vn 0.9315 -0.2015 0.3027
vn 0.9464 0.0748 0.3141
vn 0.9438 -0.1236 -0.3066
vn 0.9489 0.1040 -0.2979
vn 0.5856 -0.0857 -0.8060
vn 0.5810 0.1844 -0.7927
vn -0.0000 -0.1236 -0.9923
vn -0.0243 0.1036 -0.9943
vn -0.5759 -0.1999 -0.7927
vn -0.5911 0.0751 -0.8031
vn -0.9319 -0.1999 -0.3028
vn -0.9436 0.0753 -0.3225
vn -0.0000 1.0000 -0.0000
vn 0.6742 0.7054 0.2190
vn -0.0000 0.7054 -0.7088
vn -0.6741 0.7054 0.2190
vn 0.4166 0.7054 0.5735
vn 0.4166 0.7054 -0.5735
vn -0.6741 0.7054 -0.2190
vn -0.8179 -0.5104 -0.2657
vn -0.5055 -0.5104 -0.6957
vn -0.0000 -0.5104 -0.8599
vn 0.5055 -0.5104 -0.6957
vn 0.8179 -0.5104 -0.2657
vn 0.8179 -0.5104 0.2657
vn 0.5055 -0.5104 0.6957
vn -0.0000 -0.5104 0.8599
vn -0.5055 -0.5104 0.6957
vn -0.8179 -0.5104 0.2657
vn -0.0000 -0.5104 -0.8600
vn -0.0000 0.1036 -0.9946
vn -0.2192 0.9736 -0.0640
vn -0.9367 -0.3457 -0.0558
vn 0.2774 0.8817 -0.3817
vn 0.4488 0.8817 -0.1458
vn 0.4488 0.8817 0.1458
vn 0.2774 0.8817 0.3817
vn -0.0000 0.8817 0.4719
vn -0.2773 0.8817 0.3817
vn -0.4488 0.8817 0.1458
vn -0.4488 0.8817 -0.1458
vn -0.2773 0.8817 -0.3817
vn -0.0000 0.8817 -0.4719
vn -0.0000 0.1036 0.9946
vn 0.0216 0.1018 0.9946
vn 0.0009 -0.1267 0.9919
vn 0.0009 -0.1263 0.9920
vn -0.0243 -0.1514 0.9882
vn 0.0228 0.1298 0.9913
vn -0.0000 -0.1236 0.9923
vn 0.9455 0.3256 0.0024
vn 0.2303 0.9701 -0.0759
vn -0.9452 -0.3266 0.0003
vn -0.3336 0.9369 -0.1044
vn -0.1583 -0.9851 -0.0670
vn 0.9696 -0.2415 -0.0384
vn -0.9708 0.2373 -0.0355
vn 0.1725 0.9834 -0.0571
vn -0.0300 -0.0812 0.9962
vn 0.0157 0.0893 0.9959
vn -0.0157 0.0893 0.9959
vn 0.0300 -0.0812 0.9962
vn -0.2389 0.9707 -0.0269
vn 0.2593 -0.9657 -0.0146
vn 0.9412 -0.3376 -0.0108
vn -0.9417 0.3363 -0.0083
vn 0.3325 0.2504 0.9093
vn -0.4406 0.2231 0.8695
vn -0.1243 0.5127 0.8495
vn 0.4388 -0.2396 0.8661
vn -0.3312 -0.2675 0.9049
vn -0.2024 -0.5579 0.8048
vn 0.1936 0.5497 0.8126
vn 0.1288 -0.5196 0.8446
vn -0.0000 0.2314 0.9729
vn -0.0000 0.2542 0.9671
vn -0.0000 0.2314 -0.9729
vn -0.0000 0.2542 -0.9671
vn -0.9252 0.2314 -0.3006
vn -0.9198 0.2542 -0.2989
vn 0.5718 0.2314 -0.7871
vn 0.5685 0.2542 -0.7824
vn 0.5718 0.2314 0.7871
vn 0.5685 0.2542 0.7824
vn -0.9252 0.2314 0.3006
vn -0.9198 0.2542 0.2989
vn 0.9252 0.2314 0.3006
vn 0.9198 0.2542 0.2989
vn 0.9252 0.2314 -0.3006
vn 0.9198 0.2542 -0.2989
vn -0.5718 0.2314 -0.7871
vn -0.5685 0.2542 -0.7824
vn -0.5718 0.2314 0.7871
vn -0.5685 0.2542 0.7824
vn -0.9337 0.0025 -0.3581
vn -0.4038 -0.0087 0.9148
vn 0.2206 -0.9730 -0.0677
vn -0.2363 -0.9667 -0.0979
vn -0.9364 -0.0036 0.3510
vn 0.9337 0.0025 -0.3581
vn -0.4177 0.0115 -0.9085
vn 0.3352 0.9414 0.0387
vn 0.2356 0.9715 -0.0253
vn 0.3382 -0.9342 -0.1132
vn -0.2390 -0.9698 -0.0482
vn -0.3403 -0.9398 0.0321
vn 0.2449 -0.9690 -0.0333
vn 0.9366 -0.0037 0.3504
vn -0.2404 -0.9702 -0.0311
vn -0.9373 0.3483 -0.0125
vn 0.9367 -0.3499 -0.0163
vn 0.4050 0.0082 -0.9143
vn 0.2343 0.9714 -0.0389
vn -0.2528 0.9675 -0.0103
vn -0.9409 -0.3386 0.0004
vn 0.4038 -0.0087 0.9148
vn 0.9414 0.3372 0.0035
vn 0.3624 -0.9153 -0.1759
vn -0.3683 0.9234 0.1076
vn 0.0465 0.8602 0.5079
vn 0.0467 -0.8734 0.4848
vn -0.0487 0.8517 0.5217
vn -0.0505 -0.8608 0.5063
vn 0.0563 0.8092 -0.5848
vn 0.0475 -0.7950 -0.6047
vn -0.0532 0.8212 -0.5681
vn -0.0440 -0.8096 -0.5853
vn 0.3637 0.9162 -0.1684
vn -0.3624 -0.9153 -0.1759
vn 0.4256 -0.8924 0.1503
vn -0.4331 0.8727 -0.2255
vn 0.4294 0.8890 0.1590
vn -0.4256 -0.8924 0.1503
vn -0.2193 0.9741 -0.0548
vn -0.9509 -0.0801 0.2990
vn -0.9267 0.2250 0.3011
vn -0.5797 -0.0914 0.8097
vn -0.5802 0.1599 0.7986
vn 0.1583 -0.9851 -0.0670
vn 0.9708 0.2373 -0.0355
vn 0.5748 -0.1240 0.8088
vn 0.5846 0.1036 0.8047
vn 0.9469 -0.1240 0.2967
vn 0.9459 0.1036 0.3074
vn 0.9450 -0.0859 -0.3156
vn 0.9348 0.1842 -0.3037
vn 0.5845 -0.0800 -0.8075
vn 0.5728 0.2243 -0.7884
vn 0.0189 -0.0804 -0.9966
vn -0.0000 0.2243 -0.9745
vn -0.5749 -0.1240 -0.8088
vn -0.5846 0.1036 -0.8047
vn -0.9528 -0.0803 -0.2927
vn -0.9267 0.2250 -0.3011
vn -0.1725 0.9834 -0.0571
vn -0.9696 -0.2415 -0.0384
vn 0.2773 0.8817 -0.3817
vn 0.2773 0.8817 0.3817
vn 0.0010 0.1073 0.9942
vn 0.0174 0.1589 0.9871
vn -0.0228 0.1298 0.9913
vn -0.0213 -0.0918 0.9955
vn 0.0243 -0.1514 0.9882
vn 0.9417 0.3363 -0.0083
vn 0.2193 0.9741 -0.0548
vn -0.9412 -0.3376 -0.0108
vn -0.2343 0.9714 -0.0389
vn -0.2205 -0.9724 -0.0761
vn 0.9367 -0.3457 -0.0558
vn -0.9372 0.3448 -0.0525
vn 0.2192 0.9736 -0.0640
vn 0.0147 -0.1087 0.9940
vn -0.0239 0.0655 0.9976
vn 0.0239 0.0655 0.9976
vn -0.0147 -0.1087 0.9940
vn -0.3352 0.9414 0.0387
vn 0.2404 -0.9702 -0.0311
vn 0.9452 -0.3266 0.0003
vn -0.9455 0.3256 0.0024
vn 0.4406 0.2231 0.8695
vn -0.3325 0.2504 0.9093
vn -0.1936 0.5496 0.8127
vn 0.3312 -0.2675 0.9049
vn -0.4388 -0.2396 0.8661
vn -0.1288 -0.5196 0.8446
vn 0.1243 0.5127 0.8495
vn 0.2024 -0.5579 0.8048
vn -0.9343 0.0029 -0.3565
vn -0.4143 -0.0115 0.9101
vn 0.2363 -0.9667 -0.0979
vn -0.2206 -0.9730 -0.0677
vn -0.9366 -0.0037 0.3504
vn 0.9343 0.0029 -0.3565
vn -0.4050 0.0082 -0.9143
vn 0.2389 0.9707 -0.0269
vn 0.2528 0.9675 -0.0103
vn 0.2390 -0.9698 -0.0482
vn -0.3382 -0.9342 -0.1132
vn -0.2449 -0.9690 -0.0333
vn 0.3403 -0.9398 0.0321
vn 0.9364 -0.0036 0.3510
vn -0.2593 -0.9657 -0.0146
vn -0.9414 0.3372 0.0035
vn 0.9409 -0.3386 0.0004
vn 0.4177 0.0114 -0.9085
vn 0.3336 0.9369 -0.1044
vn -0.2356 0.9715 -0.0253
vn -0.9367 -0.3499 -0.0163
vn 0.4143 -0.0115 0.9101
vn 0.9373 0.3483 -0.0125
vn 0.4339 -0.8699 -0.2343
vn -0.4294 0.8890 0.1590
vn 0.0487 0.8517 0.5217
vn 0.0505 -0.8608 0.5064
vn -0.0465 0.8602 0.5079
vn -0.0467 -0.8734 0.4848
vn 0.0532 0.8212 -0.5681
vn 0.0440 -0.8096 -0.5853
vn -0.0563 0.8092 -0.5848
vn -0.0475 -0.7950 -0.6047
vn 0.4331 0.8727 -0.2255
vn -0.4339 -0.8699 -0.2343
vn 0.3648 -0.9258 0.0989
vn -0.3637 0.9162 -0.1684
vn 0.3683 0.9234 0.1076
vn -0.3648 -0.9258 0.0989
vn -0.2303 0.9701 -0.0759
vt 0.565085 0.376724
vt 0.564480 0.375609
vt 0.565096 0.375208
vt 0.308115 0.899557
vt 0.308115 0.902435
vt 0.306746 0.900551
vt 0.572765 0.382687
vt 0.572215 0.380798
vt 0.572864 0.380937
vt 0.573073 0.382210
vt 0.572460 0.384156
vt 0.572457 0.382288
vt 0.565085 0.377791
vt 0.564470 0.378794
vt 0.564470 0.377863
vt 0.308115 0.896679
vt 0.309483 0.898564
vt 0.306423 0.901884
vt 0.305901 0.901164
vt 0.309806 0.897230
vt 0.310329 0.897950
vt 0.306002 0.896610
vt 0.308132 0.895919
vt 0.310263 0.896613
vt 0.310921 0.897520
vt 0.310851 0.900449
vt 0.311579 0.898427
vt 0.311579 0.900667
vt 0.310263 0.902479
vt 0.309806 0.901887
vt 0.308132 0.903170
vt 0.306002 0.902475
vt 0.305344 0.901569
vt 0.305378 0.900445
vt 0.304686 0.898421
vt 0.305378 0.898666
vt 0.306423 0.897228
vt 0.300010 0.912786
vt 0.300770 0.910576
vt 0.300774 0.912737
vt 0.291427 0.072900
vt 0.292194 0.070743
vt 0.292197 0.072942
vt 0.294519 0.896514
vt 0.295269 0.898287
vt 0.294506 0.898227
vt 0.287470 0.056701
vt 0.288227 0.058390
vt 0.287457 0.058444
vt 0.284889 0.203283
vt 0.285272 0.205773
vt 0.284889 0.205778
vt 0.294134 0.202329
vt 0.294707 0.204749
vt 0.294131 0.204812
vt 0.295269 0.891865
vt 0.294519 0.894102
vt 0.294506 0.891914
vt 0.288227 0.052061
vt 0.287470 0.054247
vt 0.287457 0.052021
vt 0.302660 0.907445
vt 0.303420 0.909655
vt 0.302657 0.909606
vt 0.295612 0.067612
vt 0.296378 0.069769
vt 0.295608 0.069811
vt 0.302657 0.905024
vt 0.303424 0.907456
vt 0.295608 0.065150
vt 0.296382 0.067602
vt 0.302620 0.912920
vt 0.303491 0.914953
vt 0.302733 0.914898
vt 0.295564 0.073097
vt 0.296449 0.075063
vt 0.295678 0.075110
vt 0.303376 0.911697
vt 0.302620 0.911697
vt 0.296336 0.071854
vt 0.295564 0.071854
vt 0.303491 0.908441
vt 0.302620 0.910475
vt 0.302733 0.908497
vt 0.296449 0.068645
vt 0.295564 0.070610
vt 0.295678 0.068597
vt 0.300010 0.908124
vt 0.300774 0.908156
vt 0.291427 0.068306
vt 0.292197 0.068281
vt 0.671806 0.846011
vt 0.669354 0.856136
vt 0.665387 0.850673
vt 0.682192 0.838470
vt 0.682192 0.816624
vt 0.692579 0.830927
vt 0.695031 0.820803
vt 0.698998 0.826267
vt 0.661420 0.831707
vt 0.573077 0.380297
vt 0.572460 0.380619
vt 0.572864 0.379855
vt 0.572215 0.379855
vt 0.570183 0.381992
vt 0.570802 0.383983
vt 0.570186 0.383905
vt 0.565096 0.380796
vt 0.565085 0.378859
vt 0.572765 0.377022
vt 0.572215 0.378911
vt 0.572128 0.377384
vt 0.570799 0.385851
vt 0.570183 0.386048
vt 0.301535 0.910520
vt 0.301538 0.908301
vt 0.301987 0.908764
vt 0.301884 0.910577
vt 0.301884 0.912818
vt 0.301884 0.911697
vt 0.301987 0.914631
vt 0.301895 0.907389
vt 0.301892 0.905170
vt 0.301892 0.909370
vt 0.293752 0.894152
vt 0.293741 0.892146
vt 0.294519 0.895308
vt 0.293752 0.896362
vt 0.293752 0.895257
vt 0.293741 0.897933
vt 0.301538 0.912501
vt 0.572864 0.378772
vt 0.682192 0.860316
vt 0.695031 0.856150
vt 0.702965 0.831731
vt 0.702965 0.845232
vt 0.661420 0.845209
vt 0.296336 0.070628
vt 0.290857 0.213397
vt 0.290473 0.210906
vt 0.290857 0.210902
vt 0.294129 0.195340
vt 0.294707 0.197760
vt 0.294133 0.197823
vt 0.304686 0.900662
vt 0.310851 0.898670
vt 0.564470 0.376932
vt 0.305735 0.091450
vt 0.303400 0.090915
vt 0.303404 0.090691
vt 0.301199 0.091629
vt 0.301073 0.091448
vt 0.299838 0.093501
vt 0.299633 0.093430
vt 0.299838 0.095816
vt 0.299633 0.095881
vt 0.300353 0.096872
vt 0.300518 0.096752
vt 0.301199 0.097689
vt 0.301073 0.097864
vt 0.303400 0.098406
vt 0.303404 0.098623
vt 0.305600 0.097691
vt 0.305735 0.097867
vt 0.306961 0.095820
vt 0.307175 0.095885
vt 0.306961 0.093505
vt 0.307175 0.093434
vt 0.306455 0.092442
vt 0.306281 0.092568
vt 0.305600 0.091632
vt 0.287836 0.055148
vt 0.288240 0.054255
vt 0.287836 0.055790
vt 0.287471 0.055857
vt 0.288240 0.055464
vt 0.288240 0.056673
vt 0.294923 0.894993
vt 0.295283 0.894091
vt 0.295284 0.894935
vt 0.295284 0.895701
vt 0.294923 0.895634
vt 0.294847 0.895313
vt 0.287919 0.055469
vt 0.313662 0.920012
vt 0.314285 0.920461
vt 0.313662 0.920525
vt 0.314539 0.909986
vt 0.314295 0.910121
vt 0.314295 0.910090
vt 0.313664 0.913022
vt 0.314285 0.913472
vt 0.313664 0.913536
vt 0.314050 0.909986
vt 0.313912 0.909764
vt 0.313973 0.909763
vt 0.284505 0.205773
vt 0.284563 0.203280
vt 0.293557 0.204749
vt 0.293773 0.202289
vt 0.293556 0.197760
vt 0.293765 0.195300
vt 0.291241 0.210906
vt 0.291183 0.213400
vt 0.309103 0.918935
vt 0.309179 0.919387
vt 0.308985 0.919440
vt 0.309367 0.918553
vt 0.309417 0.919003
vt 0.309019 0.918474
vt 0.308791 0.918862
vt 0.308831 0.919308
vt 0.314051 0.909539
vt 0.313912 0.909242
vt 0.304664 0.921203
vt 0.304420 0.921505
vt 0.304420 0.921314
vt 0.313041 0.920461
vt 0.313064 0.919948
vt 0.313041 0.913472
vt 0.313065 0.912959
vt 0.308849 0.918237
vt 0.309586 0.918403
vt 0.309598 0.919045
vt 0.309247 0.918189
vt 0.308576 0.919451
vt 0.308576 0.918815
vt 0.309312 0.919617
vt 0.308914 0.919668
vt 0.309213 0.918424
vt 0.277356 0.061345
vt 0.276738 0.060254
vt 0.277356 0.060203
vt 0.565801 0.377769
vt 0.565801 0.376660
vt 0.285152 0.063448
vt 0.284527 0.062324
vt 0.285152 0.062291
vt 0.573590 0.379855
vt 0.573590 0.378730
vt 0.279789 0.067456
vt 0.280403 0.069701
vt 0.279786 0.069748
vt 0.569469 0.383881
vt 0.569466 0.386108
vt 0.284424 0.060504
vt 0.285045 0.060418
vt 0.573486 0.376911
vt 0.277368 0.064559
vt 0.276738 0.062472
vt 0.277356 0.062487
vt 0.565801 0.378878
vt 0.279786 0.065410
vt 0.280407 0.067475
vt 0.569466 0.381893
vt 0.284527 0.064573
vt 0.284527 0.063448
vt 0.285349 0.063715
vt 0.284728 0.065780
vt 0.284731 0.063792
vt 0.573793 0.380198
vt 0.276738 0.061363
vt 0.285349 0.068053
vt 0.285345 0.065761
vt 0.573790 0.382186
vt 0.573077 0.384353
vt 0.285045 0.066479
vt 0.285152 0.064606
vt 0.573486 0.382798
vt 0.573590 0.380979
vt 0.276750 0.058678
vt 0.277368 0.058581
vt 0.565813 0.375084
vt 0.313388 0.906905
vt 0.313570 0.905708
vt 0.313569 0.906896
vt 0.301503 0.902166
vt 0.301325 0.903395
vt 0.301326 0.902225
vt 0.304665 0.920756
vt 0.304420 0.920622
vt 0.304804 0.920617
vt 0.304175 0.920756
vt 0.304420 0.920648
vt 0.313728 0.905716
vt 0.302602 0.904988
vt 0.302783 0.906185
vt 0.302602 0.906177
vt 0.310736 0.908126
vt 0.310595 0.909403
vt 0.310541 0.908056
vt 0.314538 0.909539
vt 0.314678 0.909764
vt 0.314616 0.909763
vt 0.314295 0.909238
vt 0.314677 0.909242
vt 0.304803 0.920978
vt 0.304742 0.920979
vt 0.304037 0.920978
vt 0.304036 0.920617
vt 0.304176 0.921203
vt 0.304098 0.920979
vt 0.304803 0.921499
vt 0.302443 0.904997
vt 0.302443 0.906167
vt 0.304037 0.921499
vt 0.313664 0.912667
vt 0.313088 0.912604
vt 0.313662 0.919656
vt 0.313088 0.919593
vt 0.310352 0.908141
vt 0.310399 0.909344
vt 0.314678 0.910125
vt 0.314295 0.909423
vt 0.314262 0.912959
vt 0.301708 0.903395
vt 0.301708 0.902225
vt 0.314261 0.919948
vt 0.304227 0.921150
vt 0.304161 0.920978
vt 0.314488 0.909937
vt 0.314553 0.909765
vt 0.314295 0.910020
vt 0.304420 0.920718
vt 0.304614 0.920805
vt 0.310298 0.908084
vt 0.310537 0.907972
vt 0.304420 0.921238
vt 0.310785 0.908065
vt 0.304613 0.921150
vt 0.314102 0.909591
vt 0.314036 0.909765
vt 0.304679 0.920978
vt 0.304226 0.920805
vt 0.314487 0.909591
vt 0.314101 0.909937
vt 0.313911 0.910125
vt 0.572128 0.382326
vt 0.300006 0.910587
vt 0.291423 0.070733
vt 0.295283 0.896544
vt 0.285214 0.203280
vt 0.294499 0.202289
vt 0.303420 0.904993
vt 0.296378 0.065175
vt 0.303376 0.912941
vt 0.296336 0.073079
vt 0.303376 0.910453
vt 0.669354 0.820789
vt 0.570799 0.382314
vt 0.564480 0.380483
vt 0.290531 0.213400
vt 0.294490 0.195300
vt 0.287471 0.055091
vt 0.276750 0.064485
vt 0.565813 0.380891
vt 0.280403 0.065487
vt 0.284731 0.068006
vt 0.573793 0.384413
vt 0.284424 0.066392
vt 0.313388 0.905698
vt 0.301502 0.903455
vt 0.313728 0.906887
vt 0.302783 0.904979
vt 0.310785 0.909329
vt 0.314238 0.912604
vt 0.314238 0.919593
s 0
g pan_Material
usemtl Material
f 118/1/1 46/2/1 124/3/1
f 73/4/2 7/5/2 74/6/2
f 117/7/3 49/8/3 122/9/3
f 120/10/4 43/11/4 41/12/4
f 135/13/5 47/14/5 85/15/5
f 73/4/2 2/16/2 75/17/2
f 74/6/2 8/18/2 77/19/2
f 75/17/2 3/20/2 76/21/2
f 2/16/6 11/22/6 12/23/6
f 2/16/7 13/24/7 3/20/7
f 3/20/8 71/25/8 76/21/8
f 5/26/9 14/27/9 15/28/9
f 5/26/10 16/29/10 6/30/10
f 6/30/11 17/31/11 7/5/11
f 7/5/12 18/32/12 8/18/12
f 8/18/13 72/33/13 77/19/13
f 9/34/14 20/35/14 10/36/14
f 10/36/15 11/22/15 1/37/15
f 40/38/16 70/39/16 69/40/16
f 39/41/17 21/42/17 40/43/17
f 97/44/18 40/45/18 69/46/18
f 94/47/19 39/48/19 40/49/19
f 90/50/20 143/51/20 142/52/20
f 36/53/21 139/54/21 100/55/21
f 34/56/22 96/57/22 66/58/22
f 33/59/23 92/60/23 34/61/23
f 65/62/24 34/63/24 66/64/24
f 32/65/25 33/66/25 34/67/25
f 64/68/26 32/69/26 65/62/26
f 30/70/27 31/71/27 32/65/27
f 63/72/28 30/73/28 64/74/28
f 28/75/29 29/76/29 30/77/29
f 80/78/30 63/72/30 89/79/30
f 81/80/31 28/75/31 80/81/31
f 24/82/32 62/83/32 61/84/32
f 23/85/33 26/86/33 24/87/33
f 70/39/34 24/88/34 61/89/34
f 21/42/35 23/90/35 24/91/35
f 84/92/36 48/93/36 85/94/36
f 82/95/36 43/96/36 83/97/36
f 83/97/36 50/98/36 86/99/36
f 45/100/36 82/95/36 84/92/36
f 126/101/37 41/12/37 45/102/37
f 133/103/38 49/8/38 86/104/38
f 124/105/39 42/106/39 130/107/39
f 126/108/40 47/14/40 115/109/40
f 113/110/41 50/111/41 43/112/41
f 130/107/42 44/113/42 117/114/42
f 11/115/43 61/89/43 12/116/43
f 12/117/44 62/83/44 13/118/44
f 89/79/45 14/119/45 71/120/45
f 63/72/46 15/121/46 14/119/46
f 64/68/47 16/122/47 15/123/47
f 65/62/48 17/124/48 16/122/48
f 66/58/49 18/125/49 17/126/49
f 98/127/50 19/128/50 72/129/50
f 19/128/51 69/46/51 20/130/51
f 20/131/52 70/39/52 11/115/52
f 18/125/50 98/127/50 72/129/50
f 13/118/53 89/79/53 71/120/53
f 133/103/38 50/111/38 128/132/38
f 46/133/36 82/95/36 42/134/36
f 83/97/36 49/135/36 44/136/36
f 82/95/36 44/136/36 42/134/36
f 84/92/36 47/137/36 45/100/36
f 25/138/54 80/81/54 26/86/54
f 62/83/30 80/78/30 89/79/30
f 79/139/55 141/140/55 140/141/55
f 38/142/56 136/143/56 99/144/56
f 9/34/13 72/33/13 19/145/13
f 4/146/8 71/25/8 14/27/8
f 75/17/2 4/146/2 5/26/2
f 74/6/2 9/34/2 10/36/2
f 73/4/2 5/26/2 6/30/2
f 135/13/5 48/147/5 118/1/5
f 73/4/2 10/36/2 1/37/2
f 93/148/57 51/149/57 39/150/57
f 39/150/58 54/151/58 22/152/58
f 22/152/59 58/153/59 23/154/59
f 23/154/60 53/155/60 25/156/60
f 81/157/61 53/155/61 88/158/61
f 81/157/61 52/159/61 27/160/61
f 27/160/62 57/161/62 29/162/62
f 29/162/63 60/163/63 31/164/63
f 31/164/64 55/165/64 33/166/64
f 33/166/65 56/167/65 91/168/65
f 95/169/66 56/167/66 87/170/66
f 95/169/66 59/171/66 93/148/66
f 35/172/67 92/60/67 91/173/67
f 37/174/68 94/47/68 38/175/68
f 37/174/67 95/176/67 93/177/67
f 67/178/69 92/179/69 36/180/69
f 38/181/70 97/44/70 68/182/70
f 68/182/71 98/127/71 90/183/71
f 35/172/72 95/176/72 79/184/72
f 67/178/73 98/127/73 96/57/73
f 151/185/74 138/186/74 102/187/74
f 157/188/75 140/189/75 154/190/75
f 147/191/76 137/192/76 109/193/76
f 159/194/77 150/195/77 182/196/77
f 90/50/78 136/197/78 68/198/78
f 36/53/79 143/199/79 67/200/79
f 38/142/80 141/201/80 37/202/80
f 79/139/81 139/203/81 35/204/81
f 78/205/82 107/206/82 111/207/82
f 78/205/83 105/208/83 101/209/83
f 104/210/84 78/205/84 108/211/84
f 106/212/85 78/205/85 111/207/85
f 170/213/86 150/195/86 144/214/86
f 172/215/87 145/216/87 166/217/87
f 151/185/88 146/218/88 152/219/88
f 147/191/89 144/220/89 150/221/89
f 108/211/90 138/222/90 104/210/90
f 101/209/91 144/223/91 109/224/91
f 105/208/92 110/225/92 144/223/92
f 108/211/93 146/226/93 102/227/93
f 101/209/94 137/228/94 107/206/94
f 107/206/95 145/229/95 111/207/95
f 104/210/96 110/225/96 103/230/96
f 106/212/97 145/229/97 146/226/97
f 88/231/98 119/232/98 52/233/98
f 134/234/99 118/1/99 119/235/99
f 87/236/100 129/237/100 59/238/100
f 132/239/101 128/132/101 129/240/101
f 60/241/102 116/242/102 55/243/102
f 131/244/103 117/114/103 116/245/103
f 59/238/104 112/246/104 51/247/104
f 112/248/105 128/132/105 113/110/105
f 58/249/106 114/250/106 53/251/106
f 114/252/107 126/108/107 115/109/107
f 57/253/108 131/254/108 60/241/108
f 125/255/109 130/107/109 131/244/109
f 87/236/100 123/256/100 132/257/100
f 132/239/101 122/9/101 133/103/101
f 58/258/110 121/259/110 127/260/110
f 127/261/111 120/10/111 126/101/111
f 88/231/98 114/250/98 134/262/98
f 134/234/99 115/109/99 135/13/99
f 51/263/112 121/259/112 54/264/112
f 121/265/113 113/266/113 120/10/113
f 55/267/114 123/256/114 56/268/114
f 116/269/115 122/9/115 123/270/115
f 52/233/116 125/271/116 57/272/116
f 119/235/117 124/3/117 125/273/117
f 171/274/118 179/275/118 183/276/118
f 153/277/119 162/278/119 158/279/119
f 161/280/120 142/281/120 143/282/120
f 164/283/121 142/281/121 155/284/121
f 158/285/122 183/276/122 179/275/122
f 181/286/123 173/287/123 178/288/123
f 168/289/124 165/290/124 176/291/124
f 167/292/125 149/293/125 180/294/125
f 167/292/126 110/295/126 138/296/126
f 161/280/127 152/297/127 184/298/127
f 164/283/128 148/299/128 136/300/128
f 174/301/129 148/299/129 177/302/129
f 172/215/130 152/297/130 146/303/130
f 160/304/131 178/288/131 163/305/131
f 174/301/132 145/216/132 137/306/132
f 99/307/133 150/221/133 141/308/133
f 100/309/134 152/219/134 143/310/134
f 169/311/135 165/290/135 173/312/135
f 157/188/136 149/293/136 139/313/136
f 170/213/137 110/295/137 175/314/137
f 99/307/138 148/315/138 147/191/138
f 163/316/139 153/277/139 160/317/139
f 100/309/140 149/318/140 151/185/140
f 173/319/141 177/302/141 178/320/141
f 180/294/142 158/321/142 179/322/142
f 159/194/143 153/323/143 154/190/143
f 156/324/144 164/283/144 155/284/144
f 157/188/145 153/323/145 158/321/145
f 156/324/146 161/280/146 162/325/146
f 176/291/147 170/326/147 175/327/147
f 174/301/148 165/328/148 166/217/148
f 176/291/149 167/329/149 168/289/149
f 172/215/150 165/328/150 171/330/150
f 182/196/151 169/331/151 181/332/151
f 184/298/152 171/330/152 183/333/152
f 163/334/153 177/302/153 164/283/153
f 180/294/154 168/335/154 167/292/154
f 182/196/155 160/336/155 159/194/155
f 184/298/156 162/325/156 161/280/156
f 159/194/157 140/189/157 141/337/157
f 118/1/1 48/147/1 46/2/1
f 73/4/2 6/30/2 7/5/2
f 117/7/3 44/338/3 49/8/3
f 120/10/4 113/266/4 43/11/4
f 135/13/5 115/109/5 47/14/5
f 73/4/2 1/37/2 2/16/2
f 74/6/2 7/5/2 8/18/2
f 75/17/2 2/16/2 3/20/2
f 2/16/6 1/37/6 11/22/6
f 2/16/7 12/23/7 13/24/7
f 3/20/8 13/24/8 71/25/8
f 5/26/9 4/146/9 14/27/9
f 5/26/10 15/28/10 16/29/10
f 6/30/11 16/29/11 17/31/11
f 7/5/12 17/31/12 18/32/12
f 8/18/13 18/32/13 72/33/13
f 9/34/14 19/145/14 20/35/14
f 10/36/15 20/35/15 11/22/15
f 40/38/158 21/339/158 70/39/158
f 39/41/159 22/340/159 21/42/159
f 97/44/160 94/341/160 40/45/160
f 94/47/161 93/177/161 39/48/161
f 90/50/162 67/342/162 143/51/162
f 36/53/163 35/343/163 139/54/163
f 34/56/164 92/179/164 96/57/164
f 33/59/165 91/173/165 92/60/165
f 65/62/166 32/69/166 34/63/166
f 32/65/167 31/71/167 33/66/167
f 64/68/168 30/344/168 32/69/168
f 30/70/169 29/345/169 31/71/169
f 63/72/170 28/346/170 30/73/170
f 28/75/171 27/347/171 29/76/171
f 80/78/172 28/346/172 63/72/172
f 81/80/173 27/347/173 28/75/173
f 24/82/174 26/348/174 62/83/174
f 23/85/175 25/138/175 26/86/175
f 70/39/176 21/339/176 24/88/176
f 21/42/177 22/340/177 23/90/177
f 84/92/36 46/133/36 48/93/36
f 82/95/36 41/349/36 43/96/36
f 83/97/36 43/96/36 50/98/36
f 45/100/36 41/349/36 82/95/36
f 126/101/37 120/10/37 41/12/37
f 133/103/38 122/9/38 49/8/38
f 124/105/39 46/350/39 42/106/39
f 126/108/40 45/351/40 47/14/40
f 113/110/41 128/132/41 50/111/41
f 130/107/42 42/106/42 44/113/42
f 11/115/43 70/39/43 61/89/43
f 12/117/44 61/84/44 62/83/44
f 89/79/53 63/72/53 14/119/53
f 63/72/46 64/74/46 15/121/46
f 64/68/47 65/62/47 16/122/47
f 65/62/48 66/64/48 17/124/48
f 66/58/49 96/57/49 18/125/49
f 98/127/50 97/44/50 19/128/50
f 19/128/51 97/44/51 69/46/51
f 20/131/52 69/40/52 70/39/52
f 18/125/50 96/57/50 98/127/50
f 13/118/45 62/83/45 89/79/45
f 133/103/38 86/104/38 50/111/38
f 46/133/36 84/92/36 82/95/36
f 83/97/36 86/99/36 49/135/36
f 82/95/36 83/97/36 44/136/36
f 84/92/36 85/94/36 47/137/36
f 25/138/54 81/80/54 80/81/54
f 62/83/30 26/348/30 80/78/30
f 79/139/178 37/352/178 141/140/178
f 38/142/179 68/353/179 136/143/179
f 9/34/13 77/19/13 72/33/13
f 4/146/8 76/21/8 71/25/8
f 75/17/2 76/21/2 4/146/2
f 74/6/2 77/19/2 9/34/2
f 73/4/2 75/17/2 5/26/2
f 135/13/5 85/15/5 48/147/5
f 73/4/2 74/6/2 10/36/2
f 93/148/180 59/171/180 51/149/180
f 39/150/58 51/149/58 54/151/58
f 22/152/59 54/151/59 58/153/59
f 23/154/181 58/153/181 53/155/181
f 81/157/61 25/156/61 53/155/61
f 81/157/61 88/158/61 52/159/61
f 27/160/62 52/159/62 57/161/62
f 29/162/63 57/161/63 60/163/63
f 31/164/64 60/163/64 55/165/64
f 33/166/65 55/165/65 56/167/65
f 95/169/66 91/168/66 56/167/66
f 95/169/66 87/170/66 59/171/66
f 35/172/182 36/354/182 92/60/182
f 37/174/183 93/177/183 94/47/183
f 37/174/184 79/184/184 95/176/184
f 67/178/73 96/57/73 92/179/73
f 38/181/185 94/341/185 97/44/185
f 68/182/73 97/44/73 98/127/73
f 35/172/67 91/173/67 95/176/67
f 67/178/186 90/183/186 98/127/186
f 151/185/187 149/318/187 138/186/187
f 157/188/188 139/313/188 140/189/188
f 147/191/189 148/315/189 137/192/189
f 159/194/190 141/337/190 150/195/190
f 90/50/191 142/52/191 136/197/191
f 36/53/192 100/55/192 143/199/192
f 38/142/193 99/144/193 141/201/193
f 79/139/194 140/141/194 139/203/194
f 78/205/195 101/209/195 107/206/195
f 78/205/196 103/230/196 105/208/196
f 104/210/197 103/230/197 78/205/197
f 106/212/198 108/211/198 78/205/198
f 170/213/199 182/196/199 150/195/199
f 172/215/200 146/303/200 145/216/200
f 151/185/201 102/187/201 146/218/201
f 147/191/202 109/193/202 144/220/202
f 108/211/203 102/227/203 138/222/203
f 101/209/204 105/208/204 144/223/204
f 105/208/205 103/230/205 110/225/205
f 108/211/206 106/212/206 146/226/206
f 101/209/207 109/224/207 137/228/207
f 107/206/208 137/228/208 145/229/208
f 104/210/209 138/222/209 110/225/209
f 106/212/210 111/207/210 145/229/210
f 88/231/98 134/262/98 119/232/98
f 134/234/99 135/13/99 118/1/99
f 87/236/100 132/257/100 129/237/100
f 132/239/101 133/103/101 128/132/101
f 60/241/102 131/254/102 116/242/102
f 131/244/103 130/107/103 117/114/103
f 59/238/104 129/237/104 112/246/104
f 112/248/105 129/240/105 128/132/105
f 58/249/106 127/355/106 114/250/106
f 114/252/107 127/356/107 126/108/107
f 57/253/108 125/357/108 131/254/108
f 125/255/109 124/105/109 130/107/109
f 87/236/100 56/268/100 123/256/100
f 132/239/101 123/270/101 122/9/101
f 58/258/110 54/264/110 121/259/110
f 127/261/111 121/265/111 120/10/111
f 88/231/98 53/251/98 114/250/98
f 134/234/99 114/252/99 115/109/99
f 51/263/112 112/358/112 121/259/112
f 121/265/113 112/359/113 113/266/113
f 55/267/114 116/360/114 123/256/114
f 116/269/115 117/7/115 122/9/115
f 52/233/116 119/232/116 125/271/116
f 119/235/117 118/1/117 124/3/117
f 171/274/211 168/361/211 179/275/211
f 153/277/212 156/362/212 162/278/212
f 161/280/213 155/284/213 142/281/213
f 164/283/214 136/300/214 142/281/214
f 158/285/215 162/363/215 183/276/215
f 181/286/216 169/364/216 173/287/216
f 168/289/217 171/365/217 165/290/217
f 167/292/218 138/296/218 149/293/218
f 167/292/219 175/314/219 110/295/219
f 161/280/220 143/282/220 152/297/220
f 164/283/221 177/302/221 148/299/221
f 174/301/222 137/306/222 148/299/222
f 172/215/223 184/298/223 152/297/223
f 160/304/224 181/286/224 178/288/224
f 174/301/225 166/217/225 145/216/225
f 99/307/226 147/191/226 150/221/226
f 100/309/227 151/185/227 152/219/227
f 169/311/228 176/291/228 165/290/228
f 157/188/229 180/294/229 149/293/229
f 170/213/230 144/214/230 110/295/230
f 99/307/231 136/366/231 148/315/231
f 163/316/232 156/362/232 153/277/232
f 100/309/233 139/367/233 149/318/233
f 173/319/234 174/301/234 177/302/234
f 180/294/235 157/188/235 158/321/235
f 159/194/236 160/336/236 153/323/236
f 156/324/237 163/334/237 164/283/237
f 157/188/238 154/190/238 153/323/238
f 156/324/239 155/284/239 161/280/239
f 176/291/240 169/311/240 170/326/240
f 174/301/241 173/319/241 165/328/241
f 176/291/242 175/327/242 167/329/242
f 172/215/243 166/217/243 165/328/243
f 182/196/244 170/213/244 169/331/244
f 184/298/245 172/215/245 171/330/245
f 163/334/246 178/320/246 177/302/246
f 180/294/247 179/322/247 168/335/247
f 182/196/248 181/332/248 160/336/248
f 184/298/249 183/333/249 162/325/249
f 159/194/250 154/190/250 140/189/250
