# Blender 4.2.0
# www.blender.org
mtllib pan_bent.mtl
g pan_bent_Mesh
v -0.152219 0.001436 -0.000020
v -0.118931 0.001436 -0.091175
v -0.041390 0.001436 -0.147512
v 0.051108 -0.004782 -0.151217
v 0.120593 0.001819 -0.082734
v 0.144113 -0.008052 -0.011764
v 0.131997 0.001436 0.091135
v 0.054456 0.001436 0.147472
v -0.041390 0.001436 0.147472
v -0.127739 0.001436 0.096273
v -0.188803 0.021478 -0.000020
v -0.137364 0.023027 -0.105706
v -0.053829 0.021478 -0.185795
v 0.063547 0.015260 -0.189501
v 0.153205 0.009861 -0.114835
v 0.188378 -0.002572 -0.000020
v 0.164563 0.021478 0.114796
v 0.066895 0.021478 0.185756
v -0.053829 0.021478 0.185756
v -0.158470 0.021478 0.111126
v -0.208289 0.082565 0.000598
v -0.213953 0.110313 -0.005092
v -0.177543 0.096496 -0.131274
v -0.171343 0.068544 -0.127442
v -0.059495 0.107092 -0.203232
v -0.060467 0.078377 -0.206223
v 0.072078 0.106246 -0.204270
v 0.073050 0.077532 -0.207262
v 0.195723 0.085637 -0.125612
v 0.188552 0.057716 -0.127461
v 0.234197 0.072036 -0.000020
v 0.227593 0.043915 -0.000020
v 0.179395 0.107092 0.125572
v 0.181940 0.078377 0.127421
v 0.024075 0.092022 0.204762
v 0.027455 0.078411 0.206228
v -0.011009 0.092022 0.204762
v -0.014389 0.078411 0.206228
v -0.168164 0.107092 0.125572
v -0.170709 0.078377 0.127421
v -0.161666 0.028234 -0.000020
v 0.161585 0.014065 -0.000020
v -0.135382 0.028234 0.101826
v 0.139640 0.028234 0.096688
v -0.126574 0.028234 -0.096728
v 0.131959 0.024537 -0.096728
v -0.044310 0.028234 -0.156496
v 0.054027 0.022016 -0.160202
v 0.057375 0.028234 0.156457
v -0.044310 0.028234 0.156457
v -0.156713 0.101042 0.125925
v 0.068405 0.100196 -0.192965
v -0.059169 0.094823 -0.195632
v -0.200797 0.108125 -0.004900
v 0.169779 0.101042 0.118585
v 0.068887 0.101042 0.191887
v 0.184640 0.083138 -0.118625
v -0.166414 0.095076 -0.124063
v -0.055822 0.101042 0.191887
v 0.220974 0.070294 -0.000020
v -0.159844 0.043287 -0.120153
v -0.062663 0.043709 -0.206385
v 0.069033 0.043709 -0.206385
v 0.176229 0.031897 -0.125271
v 0.214966 0.018334 -0.005892
v 0.178926 0.049927 0.125231
v 0.024042 0.064980 0.204515
v -0.010977 0.064980 0.204515
v -0.167695 0.049927 0.125231
v -0.196155 0.057067 0.005687
v 0.003185 0.015260 -0.189501
v 0.006533 0.021478 0.185756
v -0.049619 0.001436 0.001448
v 0.006533 0.001436 0.091135
v 0.012772 0.001436 -0.086771
v 0.003185 -0.004782 -0.151217
v 0.006533 0.001436 0.147472
v 0.031226 0.080109 0.393010
v 0.006533 0.095099 0.204762
v 0.003185 0.072159 -0.209928
v 0.003185 0.100873 -0.206937
v -0.049619 0.028234 0.001448
v 0.006533 0.028234 0.096688
v 0.024149 0.028234 -0.108839
v 0.003185 0.022016 -0.160202
v 0.006533 0.028234 0.156457
v 0.006533 0.101042 0.191887
v 0.003185 0.094823 -0.195632
v 0.003185 0.043709 -0.206385
v 0.006533 0.062166 0.204515
v 0.072560 0.107092 0.203192
v 0.073532 0.078377 0.206184
v -0.059495 0.107092 0.203192
v -0.060467 0.078377 0.206184
v 0.006533 0.107092 0.203192
v 0.072381 0.049927 0.202641
v -0.059316 0.049927 0.202641
v 0.006533 0.049927 0.202641
v -0.005488 0.077238 0.345392
v 0.051166 0.076227 0.336345
v 0.013985 0.080518 0.396028
v 0.058625 0.079316 0.383216
v 0.031150 0.099453 0.390375
v 0.040726 0.095878 0.389075
v 0.021527 0.096220 0.392140
v 0.040494 0.064088 0.391030
v 0.021250 0.064431 0.394103
v 0.048553 0.079901 0.390508
v 0.002129 0.080324 0.392237
v 0.030259 0.107877 0.383850
v 0.030850 0.060741 0.392821
v -0.153887 0.078005 0.115199
v -0.147909 0.051270 0.110856
v -0.057389 0.071787 -0.190153
v -0.048499 0.045052 -0.183492
v 0.165118 0.078005 0.115199
v 0.159140 0.051270 0.110856
v 0.067348 0.045052 -0.175418
v 0.066624 0.077160 -0.187486
v -0.182100 0.051270 -0.000020
v -0.188356 0.088278 -0.001001
v 0.064823 0.051270 0.179380
v 0.067107 0.078005 0.186408
v 0.158022 0.039758 -0.110895
v 0.172568 0.062972 -0.115238
v -0.141104 0.053253 -0.107928
v -0.154954 0.075602 -0.116761
v -0.051758 0.051270 0.179380
v -0.054041 0.078005 0.186408
v 0.188684 0.027751 0.011357
v 0.207864 0.050495 -0.000020
v 0.006533 0.078005 0.186408
v 0.006533 0.051270 0.179380
v 0.003185 0.071787 -0.190153
v 0.003185 0.045052 -0.183125
v 0.001934 0.055632 0.343419
v 0.009493 0.056954 0.390294
v 0.050570 0.102530 0.380953
v 0.043097 0.097699 0.334274
v 0.022718 0.102705 0.337205
v 0.002277 0.098428 0.340792
v 0.022312 0.050592 0.340491
v 0.042752 0.054904 0.336901
v 0.009882 0.103256 0.387451
v 0.029820 0.051494 0.387404
v 0.050213 0.056227 0.383792
v -0.002365 0.078484 0.364553
v 0.005028 0.055996 0.362595
v 0.046148 0.099817 0.353352
v 0.005394 0.100545 0.359860
v 0.054210 0.077475 0.355519
v 0.045797 0.055269 0.356084
v 0.023579 0.100943 0.342798
v 0.022983 0.102950 0.338838
v 0.022531 0.050548 0.341861
v 0.023170 0.053002 0.345591
v 0.036893 0.100438 0.342609
v 0.034597 0.098866 0.345826
v 0.010859 0.100902 0.346766
v 0.013987 0.099234 0.349117
v 0.036536 0.053341 0.345499
v 0.034269 0.055344 0.348503
v 0.013618 0.055712 0.351801
v 0.010460 0.053806 0.349663
v 0.027593 0.053632 0.373219
v 0.028191 0.050943 0.377266
v 0.040638 0.102956 0.366232
v 0.037477 0.100751 0.364117
v 0.017012 0.101116 0.367385
v 0.014746 0.103418 0.370367
v 0.037137 0.055870 0.366883
v 0.040261 0.053918 0.369247
v 0.016634 0.056236 0.370157
v 0.014336 0.054381 0.373387
v 0.028681 0.107088 0.374056
v 0.028022 0.103905 0.370291
v 0.008268 0.054750 0.362160
v 0.011650 0.056035 0.361549
v 0.039507 0.099748 0.354403
v 0.042897 0.101048 0.353789
v 0.012025 0.100238 0.358791
v 0.008660 0.101659 0.359256
v 0.039184 0.055544 0.357152
v 0.042541 0.054139 0.356687
v 0.014226 0.095534 0.284831
v -0.004978 0.091862 0.288177
v -0.010921 0.073770 0.292115
v -0.005258 0.055365 0.290419
v 0.033378 0.091177 0.282052
v 0.039618 0.072868 0.284044
v 0.033072 0.054681 0.284298
v 0.013881 0.051092 0.287637
vn -0.2627 0.8589 0.4396
vn -0.0469 -0.9985 0.0294
vn -0.4166 0.7054 -0.5735
vn 0.7345 0.6515 -0.1896
vn 0.1461 0.6978 0.7012
vn -0.0000 -1.0000 -0.0000
vn -0.1279 -0.9852 0.1141
vn -0.6534 -0.7184 -0.2386
vn -0.3463 -0.8727 -0.3443
vn -0.1600 -0.8745 -0.4578
vn 0.1679 -0.9829 -0.0756
vn 0.1618 -0.9746 -0.1551
vn 0.3604 -0.8952 0.2623
vn 0.2726 -0.8859 0.3752
vn -0.0000 -0.8859 0.4638
vn -0.3230 -0.8310 0.4529
vn -0.4764 -0.8696 0.1300
vn -0.9674 -0.1197 0.2232
vn -0.9528 0.1028 0.2857
vn -0.5767 -0.1239 0.8075
vn -0.5782 0.1034 0.8093
vn 0.1993 -0.9791 -0.0411
vn 0.9193 0.3239 -0.2238
vn 0.5833 -0.1236 0.8028
vn 0.5846 0.1036 0.8047
vn 0.8108 -0.4778 0.3380
vn 0.9006 -0.2115 0.3798
vn 0.8433 -0.4299 -0.3225
vn 0.9264 -0.2176 -0.3074
vn 0.5945 -0.0913 -0.7989
vn 0.5560 -0.0880 -0.8265
vn -0.0000 -0.1236 -0.9923
vn 0.0300 0.1036 -0.9942
vn -0.6631 0.0455 -0.7471
vn -0.5497 -0.2320 -0.8025
vn -0.8684 -0.4533 -0.2009
vn -0.9390 -0.2418 -0.2445
vn -0.0000 0.9928 -0.1202
vn -0.0000 1.0000 -0.0000
vn 0.7706 0.5727 0.2796
vn -0.0000 0.7054 -0.7088
vn -0.5095 0.8345 0.2098
vn 0.4224 0.7973 0.4312
vn 0.4900 0.5359 -0.6875
vn -0.5989 0.7211 -0.3483
vn -0.5403 -0.7954 -0.2746
vn -0.4320 -0.7898 -0.4354
vn -0.0000 -0.5104 -0.8600
vn 0.5341 -0.5053 -0.6778
vn 0.5616 -0.7864 -0.2572
vn 0.6307 -0.7229 0.2822
vn 0.5055 -0.5104 0.6957
vn -0.0000 -0.5104 0.8599
vn -0.4997 -0.5094 0.7006
vn -0.9378 -0.2347 0.2559
vn -0.1109 -0.5072 -0.8546
vn 0.0228 0.9947 0.1007
vn -0.0000 0.9894 -0.1450
vn -0.0477 0.1035 -0.9935
vn -0.2202 0.9706 -0.0972
vn -0.9359 -0.3322 0.1171
vn -0.0000 -0.8859 -0.4638
vn -0.0001 -0.9954 0.0960
vn 0.0088 -0.9900 -0.1406
vn -0.0966 0.5869 0.8039
vn 0.4003 0.7250 -0.5605
vn 0.1645 0.9858 -0.0333
vn 0.1647 0.9845 -0.0603
vn 0.4913 0.4680 0.7345
vn -0.0000 0.8817 0.4719
vn -0.0867 0.8898 0.4480
vn -0.0289 0.9549 0.2957
vn -0.1293 0.9808 0.1458
vn -0.2971 0.8853 -0.3577
vn -0.2773 0.8817 -0.3817
vn -0.0000 0.8817 -0.4719
vn -0.0000 0.1036 0.9946
vn -0.0010 0.1074 0.9942
vn 0.0009 -0.1267 0.9919
vn -0.0000 -0.1236 0.9923
vn -0.0243 -0.1514 0.9882
vn 0.0228 0.1298 0.9913
vn 0.9360 0.3083 -0.1697
vn 0.2217 0.9584 -0.1795
vn -0.9353 -0.3091 0.1724
vn -0.3398 0.9333 -0.1163
vn -0.2131 -0.9764 0.0338
vn 0.9266 -0.3359 -0.1691
vn -0.9404 0.3282 0.0887
vn 0.1973 0.9676 -0.1576
vn 0.1277 -0.0121 0.9917
vn 0.1739 0.1571 0.9721
vn 0.1430 0.1577 0.9771
vn 0.1870 -0.0132 0.9823
vn -0.2338 0.9706 -0.0573
vn 0.2474 -0.9688 0.0129
vn 0.9254 -0.3540 -0.1353
vn -0.9289 0.3515 0.1166
vn 0.4741 0.3063 0.8255
vn -0.2958 0.2900 0.9102
vn 0.0153 0.5719 0.8202
vn 0.5689 -0.1873 0.8008
vn -0.1853 -0.1989 0.9624
vn -0.0759 -0.4977 0.8640
vn 0.3236 0.6006 0.7311
vn 0.2576 -0.4626 0.8483
vn -0.0591 0.2353 0.9701
vn -0.0689 0.3496 0.9344
vn -0.0000 0.2314 -0.9729
vn -0.0000 0.2542 -0.9671
vn -0.8672 0.2396 -0.4365
vn -0.9082 0.2568 -0.3304
vn 0.5294 0.4106 -0.7424
vn 0.5617 0.2535 -0.7876
vn 0.5908 0.2296 0.7735
vn 0.6056 0.3761 0.7013
vn -0.7952 0.5265 0.3006
vn -0.6802 0.6931 0.2387
vn 0.8181 0.5475 0.1761
vn 0.8060 0.5668 0.1705
vn -0.0000 0.2314 0.9729
vn -0.0069 0.2542 0.9671
vn 0.8407 0.4764 -0.2575
vn 0.9509 0.1536 -0.2685
vn -0.5718 0.2314 -0.7871
vn -0.5685 0.2542 -0.7824
vn -0.4503 0.4033 0.7966
vn -0.4997 0.4514 0.7393
vn -0.9786 -0.0056 -0.2056
vn -0.2538 0.0613 0.9653
vn 0.2008 -0.9791 -0.0328
vn -0.2551 -0.9669 0.0091
vn -0.8689 0.0370 0.4936
vn 0.8651 -0.0385 -0.5001
vn -0.5564 -0.0436 -0.8298
vn 0.3432 0.9357 -0.0812
vn 0.2349 0.9632 -0.1306
vn 0.3099 -0.9456 -0.0989
vn -0.2500 -0.9665 0.0587
vn -0.3370 -0.9292 0.1516
vn 0.2302 -0.9731 -0.0030
vn 0.9802 0.0039 0.1978
vn -0.2486 -0.9656 0.0758
vn -0.9251 0.3631 0.1109
vn 0.9199 -0.3666 -0.1390
vn 0.2550 -0.0617 -0.9650
vn 0.2315 0.9621 -0.1438
vn -0.2449 0.9688 -0.0385
vn -0.9312 -0.3211 0.1726
vn 0.5437 0.0470 0.8380
vn 0.9323 0.3200 -0.1688
vn 0.3239 -0.9314 -0.1658
vn -0.3406 0.9350 0.0989
vn 0.1320 0.8920 0.4322
vn 0.1173 -0.8387 0.5318
vn 0.0402 0.8863 0.4614
vn 0.0248 -0.8230 0.5674
vn -0.0318 0.7660 -0.6420
vn -0.0541 -0.8354 -0.5470
vn -0.1372 0.7811 -0.6092
vn -0.1415 -0.8470 -0.5124
vn 0.3384 0.8959 -0.2879
vn -0.3917 -0.9187 -0.0515
vn 0.4382 -0.8873 0.1439
vn -0.4576 0.8627 -0.2154
vn 0.4550 0.8901 0.0262
vn -0.4022 -0.8723 0.2781
vn -0.2188 0.9718 -0.0882
vn 0.2196 0.9755 -0.0158
vn -0.9663 0.2475 0.0703
vn 0.9298 -0.3368 -0.1487
vn -0.1579 -0.9824 -0.0995
vn -0.9549 -0.2959 0.0226
vn -0.1728 0.9849 0.0112
vn 0.9431 0.3078 -0.1255
vn 0.1576 -0.9769 -0.1441
vn -0.4873 0.6597 0.5721
vn -0.0000 -0.9958 0.0918
vn 0.8066 0.5361 -0.2487
vn -0.0038 0.8485 0.5292
vn -0.4665 -0.8515 -0.2395
vn -0.4061 -0.7229 -0.5590
vn -0.1254 -0.8951 -0.4278
vn 0.2624 -0.8873 -0.3793
vn 0.0813 -0.9832 -0.1637
vn 0.0954 -0.9901 0.1025
vn -0.2318 -0.8907 0.3910
vn -0.4982 -0.8578 0.1267
vn -0.8924 -0.3744 0.2521
vn -0.9373 -0.1246 0.3254
vn -0.5769 -0.1233 0.8075
vn -0.5781 0.1039 0.8093
vn 0.1789 -0.9834 -0.0288
vn 0.9321 0.2948 -0.2103
vn 0.9227 -0.1258 0.3645
vn 0.9219 0.1057 0.3728
vn 0.8791 -0.3631 -0.3086
vn 0.5041 -0.3090 -0.8064
vn 0.5462 0.1051 -0.8310
vn 0.0405 -0.0307 -0.9987
vn 0.0303 0.1046 -0.9941
vn -0.4935 -0.4410 -0.7496
vn -0.5245 0.1058 -0.8448
vn 0.0447 0.9945 -0.0944
vn 0.7173 0.6362 0.2842
vn -0.4005 0.8897 0.2190
vn 0.4807 0.5754 0.6617
vn 0.3602 0.7140 -0.6004
vn -0.3665 0.9051 -0.2158
vn -0.9535 -0.1556 -0.2581
vn -0.4777 -0.6916 -0.5418
vn 0.3856 -0.6919 -0.6104
vn 0.5951 -0.7538 -0.2787
vn 0.7831 -0.5203 0.3406
vn -0.4995 -0.5114 0.6993
vn -0.9018 -0.3874 0.1915
vn -0.0000 -0.6795 -0.7337
vn 0.0672 0.9967 0.0449
vn 0.0666 0.9970 -0.0393
vn 0.1153 0.9794 -0.1656
vn -0.0483 0.1051 -0.9933
vn -0.0573 0.0083 -0.9983
vn -0.2027 0.9747 -0.0937
vn -0.9443 -0.3025 0.1297
vn -0.0000 -0.9954 0.0960
vn -0.0514 -0.9980 -0.0363
vn -0.0000 0.7054 0.7088
vn 0.2553 0.8845 -0.3904
vn 0.4670 0.8774 -0.1098
vn 0.0154 0.9853 0.1703
vn 0.1021 0.5258 0.8445
vn -0.0915 0.8780 0.4699
vn -0.1443 0.8912 0.4301
vn -0.1239 0.9404 -0.3166
vn 0.0010 0.1073 0.9942
vn -0.0228 0.1298 0.9913
vn -0.0009 -0.1267 0.9919
vn 0.0243 -0.1514 0.9882
vn 0.9307 0.3183 -0.1804
vn 0.2142 0.9640 -0.1573
vn -0.9332 -0.3209 0.1616
vn -0.2311 0.9704 -0.0700
vn -0.2361 -0.9713 0.0285
vn 0.9137 -0.3652 -0.1783
vn -0.9314 0.3569 0.0718
vn 0.2126 0.9629 -0.1663
vn 0.1714 -0.0404 0.9844
vn 0.1350 0.1342 0.9817
vn 0.1821 0.1334 0.9742
vn 0.1423 -0.0399 0.9890
vn -0.3187 0.9476 0.0245
vn 0.2261 -0.9741 -0.0000
vn 0.9311 -0.3424 -0.1257
vn -0.9310 0.3416 0.1284
vn 0.5744 0.2744 0.7712
vn -0.1825 0.3180 0.9303
vn -0.0588 0.6075 0.7922
vn 0.4687 -0.2105 0.8579
vn -0.2975 -0.1718 0.9391
vn 0.0034 -0.4581 0.8889
vn 0.2608 0.5676 0.7810
vn 0.3238 -0.5048 0.8002
vn -0.0604 0.2310 0.9711
vn -0.1154 0.2525 0.9607
vn -0.7629 0.5051 -0.4036
vn -0.7889 0.4635 -0.4034
vn 0.5319 0.2346 -0.8136
vn 0.5612 0.2549 -0.7874
vn 0.4686 0.5384 0.7004
vn 0.5080 0.5700 0.6457
vn -0.7825 0.5462 0.2989
vn 0.9210 0.1650 0.3529
vn -0.0000 0.2417 0.9703
vn 0.9374 0.2348 -0.2573
vn 0.9245 0.2530 -0.2851
vn -0.5259 0.2351 0.8174
vn -0.5118 0.2921 0.8079
vn -0.9790 -0.0052 -0.2040
vn -0.2648 0.0583 0.9625
vn 0.2115 -0.9752 -0.0654
vn -0.2349 -0.9713 0.0367
vn -0.8692 0.0369 0.4931
vn 0.8660 -0.0381 -0.4986
vn -0.5448 -0.0475 -0.8373
vn 0.2379 0.9622 -0.1327
vn 0.2543 0.9599 -0.1183
vn 0.2220 -0.9749 -0.0167
vn -0.3580 -0.9337 0.0077
vn -0.2534 -0.9645 0.0742
vn 0.3349 -0.9412 0.0443
vn 0.9801 0.0040 0.1983
vn -0.2646 -0.9597 0.0946
vn -0.9267 0.3532 0.1281
vn 0.9269 -0.3543 -0.1241
vn 0.2685 -0.0583 -0.9615
vn 0.3189 0.9215 -0.2215
vn -0.2303 0.9715 -0.0563
vn -0.9297 -0.3336 0.1563
vn 0.5532 0.0437 0.8319
vn 0.9257 0.3301 -0.1847
vn 0.3856 -0.8915 -0.2378
vn -0.3929 0.9053 0.1616
vn 0.1363 0.8845 0.4461
vn 0.1245 -0.8248 0.5515
vn 0.0403 0.8937 0.4469
vn 0.0250 -0.8371 0.5465
vn -0.0322 0.7792 -0.6259
vn -0.0546 -0.8485 -0.5263
vn -0.1430 0.7680 -0.6242
vn -0.1480 -0.8337 -0.5320
vn 0.3976 0.8474 -0.3519
vn -0.4713 -0.8762 -0.1010
vn 0.3698 -0.9231 0.1053
vn -0.3798 0.9087 -0.1732
vn 0.3868 0.9220 -0.0173
vn -0.3505 -0.9103 0.2203
vn -0.2331 0.9666 -0.1069
vn 0.1727 0.9847 -0.0219
vn -0.9449 0.3225 0.0556
vn 0.9606 -0.2229 -0.1660
vn -0.2316 -0.9668 -0.1083
vn -0.9674 -0.2504 0.0364
vn -0.1853 0.9826 0.0153
vn 0.9670 0.2279 -0.1139
vn 0.1570 -0.9771 -0.1439
vt 0.567434 0.383301
vt 0.567910 0.385111
vt 0.567469 0.385035
vt 0.574156 0.385934
vt 0.574897 0.382831
vt 0.576763 0.383444
vt 0.570954 0.375374
vt 0.570326 0.377298
vt 0.570325 0.375439
vt 0.571332 0.389222
vt 0.571958 0.387145
vt 0.571962 0.389076
vt 0.576457 0.385476
vt 0.576969 0.384510
vt 0.577078 0.385372
vt 0.578852 0.383942
vt 0.576920 0.385443
vt 0.573544 0.382596
vt 0.574228 0.382027
vt 0.578414 0.385667
vt 0.577823 0.386250
vt 0.578245 0.382246
vt 0.579287 0.383928
vt 0.579046 0.386063
vt 0.578277 0.386793
vt 0.577139 0.386819
vt 0.575250 0.387510
vt 0.575334 0.386666
vt 0.573384 0.386291
vt 0.573107 0.384321
vt 0.572361 0.384367
vt 0.572912 0.382194
vt 0.573773 0.381478
vt 0.576752 0.381163
vt 0.574634 0.380761
vt 0.577014 0.380583
vt 0.578766 0.381809
vt 0.564805 0.369146
vt 0.565354 0.366872
vt 0.565562 0.369130
vt 0.564032 0.369130
vt 0.564682 0.366700
vt 0.564715 0.371258
vt 0.565474 0.371206
vt 0.316742 0.088036
vt 0.316344 0.087053
vt 0.316729 0.087042
vt 0.323732 0.080951
vt 0.323109 0.080029
vt 0.323694 0.079970
vt 0.565452 0.374749
vt 0.564973 0.372324
vt 0.565731 0.372420
vt 0.563929 0.374567
vt 0.564689 0.374694
vt 0.572526 0.370837
vt 0.572317 0.369047
vt 0.573205 0.371033
vt 0.571776 0.370784
vt 0.571555 0.368983
vt 0.572149 0.373296
vt 0.572833 0.373352
vt 0.571404 0.373207
vt 0.571555 0.375493
vt 0.572459 0.375513
vt 0.564563 0.376756
vt 0.565313 0.375688
vt 0.565325 0.376787
vt 0.563791 0.376779
vt 0.564405 0.375612
vt 0.565326 0.380209
vt 0.564406 0.377848
vt 0.565336 0.377885
vt 0.563907 0.380411
vt 0.564654 0.380340
vt 0.565631 0.364948
vt 0.564221 0.364633
vt 0.564964 0.364743
vt 0.563734 0.282120
vt 0.563218 0.282636
vt 0.563063 0.282035
vt 0.564814 0.280912
vt 0.565741 0.279593
vt 0.566113 0.281285
vt 0.566665 0.280502
vt 0.566820 0.281103
vt 0.563418 0.280302
vt 0.571325 0.390770
vt 0.572002 0.390475
vt 0.570937 0.374401
vt 0.570310 0.374591
vt 0.571020 0.378911
vt 0.573037 0.378499
vt 0.573363 0.378913
vt 0.576424 0.382475
vt 0.576519 0.384577
vt 0.571376 0.385212
vt 0.571331 0.387079
vt 0.574670 0.377636
vt 0.575008 0.377888
vt 0.566296 0.366825
vt 0.566154 0.365352
vt 0.565922 0.377907
vt 0.565859 0.379952
vt 0.566069 0.375918
vt 0.566080 0.376925
vt 0.573408 0.373344
vt 0.573216 0.375269
vt 0.573748 0.371129
vt 0.566141 0.376295
vt 0.566236 0.374659
vt 0.566760 0.375866
vt 0.566492 0.372523
vt 0.565878 0.371278
vt 0.566760 0.370430
vt 0.566626 0.371477
vt 0.566222 0.370953
vt 0.566308 0.368951
vt 0.570295 0.373743
vt 0.570919 0.373429
vt 0.565443 0.283426
vt 0.564206 0.283361
vt 0.566975 0.281704
vt 0.566518 0.282858
vt 0.562961 0.281457
vt 0.315594 0.086119
vt 0.315967 0.087115
vt 0.315588 0.087103
vt 0.314294 0.087015
vt 0.313765 0.086060
vt 0.314335 0.086056
vt 0.574912 0.381458
vt 0.577415 0.387510
vt 0.577017 0.386259
vt 0.576382 0.386546
vt 0.570419 0.365779
vt 0.568470 0.364564
vt 0.568391 0.364357
vt 0.565905 0.364589
vt 0.565820 0.364357
vt 0.563840 0.365791
vt 0.564035 0.365943
vt 0.574867 0.384402
vt 0.575331 0.382063
vt 0.575197 0.384381
vt 0.574958 0.385529
vt 0.575122 0.385469
vt 0.563626 0.369411
vt 0.564272 0.370466
vt 0.564094 0.370591
vt 0.566296 0.372064
vt 0.566241 0.372297
vt 0.568683 0.372216
vt 0.568602 0.371987
vt 0.570531 0.370434
vt 0.570351 0.370317
vt 0.571014 0.368102
vt 0.571232 0.368088
vt 0.570826 0.366933
vt 0.570630 0.367012
vt 0.570246 0.365921
vt 0.564719 0.371430
vt 0.564209 0.372231
vt 0.564797 0.370822
vt 0.565271 0.370000
vt 0.565168 0.370799
vt 0.564356 0.371086
vt 0.564502 0.369941
vt 0.565439 0.371520
vt 0.565075 0.371524
vt 0.565517 0.370913
vt 0.566024 0.370136
vt 0.565553 0.371226
vt 0.564676 0.371116
vt 0.323678 0.079618
vt 0.323023 0.079170
vt 0.323654 0.079111
vt 0.315339 0.087240
vt 0.315588 0.087133
vt 0.314351 0.085703
vt 0.313757 0.085199
vt 0.314374 0.085194
vt 0.315829 0.087247
vt 0.315963 0.087473
vt 0.315903 0.087470
vt 0.317111 0.087043
vt 0.317101 0.088036
vt 0.324256 0.080055
vt 0.324212 0.081023
vt 0.314914 0.086062
vt 0.314788 0.087025
vt 0.315199 0.087104
vt 0.315228 0.086119
vt 0.320552 0.076042
vt 0.320814 0.076418
vt 0.320661 0.076550
vt 0.320627 0.075586
vt 0.320864 0.075968
vt 0.320281 0.075665
vt 0.320241 0.076110
vt 0.320467 0.076497
vt 0.315824 0.087691
vt 0.315959 0.087991
vt 0.316477 0.086465
vt 0.316717 0.086160
vt 0.316720 0.086351
vt 0.324264 0.079198
vt 0.324264 0.079705
vt 0.315000 0.085201
vt 0.314953 0.085710
vt 0.320027 0.075536
vt 0.320760 0.075368
vt 0.321045 0.075938
vt 0.320364 0.075322
vt 0.320298 0.076748
vt 0.320027 0.076170
vt 0.321032 0.076580
vt 0.320695 0.076797
vt 0.320434 0.075537
vt 0.575521 0.386554
vt 0.574901 0.386580
vt 0.575740 0.385474
vt 0.572276 0.374293
vt 0.571638 0.373330
vt 0.572258 0.373252
vt 0.571656 0.374340
vt 0.571441 0.379436
vt 0.571676 0.377566
vt 0.572296 0.377613
vt 0.570295 0.378811
vt 0.570955 0.377505
vt 0.569987 0.386882
vt 0.570656 0.385106
vt 0.570609 0.387046
vt 0.575840 0.382251
vt 0.575812 0.384417
vt 0.566274 0.385059
vt 0.567129 0.387283
vt 0.566582 0.387361
vt 0.567762 0.387361
vt 0.571674 0.375351
vt 0.570191 0.391225
vt 0.570336 0.389281
vt 0.570719 0.391019
vt 0.569797 0.389436
vt 0.572295 0.375333
vt 0.565955 0.382975
vt 0.566829 0.385047
vt 0.322721 0.081018
vt 0.322876 0.079828
vt 0.322875 0.081014
vt 0.323464 0.087267
vt 0.323289 0.088485
vt 0.323289 0.087318
vt 0.316481 0.086912
vt 0.316971 0.086905
vt 0.316728 0.087017
vt 0.323058 0.079847
vt 0.316739 0.083412
vt 0.316923 0.084600
vt 0.316739 0.084597
vt 0.319874 0.081206
vt 0.319602 0.082461
vt 0.319668 0.081115
vt 0.315337 0.087684
vt 0.315197 0.087462
vt 0.315260 0.087461
vt 0.315582 0.087979
vt 0.315194 0.087981
vt 0.316340 0.086692
vt 0.316401 0.086690
vt 0.317106 0.086682
vt 0.316964 0.086459
vt 0.317045 0.086682
vt 0.316333 0.086171
vt 0.316587 0.083437
vt 0.316587 0.084604
vt 0.317099 0.086161
vt 0.319506 0.081189
vt 0.319445 0.082391
vt 0.315584 0.087795
vt 0.313757 0.085708
vt 0.323671 0.088483
vt 0.323670 0.087316
vt 0.323070 0.079678
vt 0.316913 0.086512
vt 0.316982 0.086684
vt 0.315388 0.087293
vt 0.315322 0.087464
vt 0.315585 0.087208
vt 0.316727 0.086946
vt 0.316531 0.086862
vt 0.319445 0.081125
vt 0.319651 0.081027
vt 0.316720 0.086427
vt 0.319911 0.081146
vt 0.316528 0.086517
vt 0.315771 0.087642
vt 0.315838 0.087471
vt 0.316464 0.086690
vt 0.316919 0.086857
vt 0.315387 0.087637
vt 0.315775 0.087299
vt 0.315194 0.084675
vt 0.314507 0.088515
vt 0.314876 0.088504
vt 0.323866 0.082434
vt 0.316654 0.089581
vt 0.316976 0.089628
vt 0.313808 0.087023
vt 0.315838 0.084581
vt 0.315520 0.084627
vt 0.323512 0.082359
vt 0.323234 0.081001
vt 0.316381 0.088045
vt 0.568069 0.383486
vt 0.563943 0.366562
vt 0.563943 0.371212
vt 0.570784 0.369028
vt 0.570784 0.375443
vt 0.563634 0.375651
vt 0.563634 0.377855
vt 0.564456 0.279593
vt 0.571159 0.378400
vt 0.577078 0.382702
vt 0.572002 0.385552
vt 0.315949 0.086129
vt 0.575305 0.381912
vt 0.563826 0.369350
vt 0.570906 0.379220
vt 0.570036 0.385023
vt 0.566575 0.383070
vt 0.322722 0.079814
vt 0.323464 0.088553
vt 0.323058 0.081015
vt 0.316923 0.083396
vt 0.319814 0.082407
vt 0.314152 0.088534
vt 0.323143 0.082387
vt 0.316333 0.089534
s 0
g pan_bent_Material
usemtl Material
f 118/1/1 46/2/1 124/3/1
f 6/4/2 74/5/2 73/6/2
f 122/7/3 44/8/3 49/9/3
f 120/10/4 43/11/4 41/12/4
f 135/13/5 47/14/5 85/15/5
f 73/6/6 2/16/6 75/17/6
f 74/5/6 8/18/6 77/19/6
f 75/17/7 3/20/7 76/21/7
f 1/22/8 12/23/8 2/16/8
f 3/20/9 12/23/9 13/24/9
f 3/20/10 71/25/10 76/21/10
f 4/26/11 15/27/11 5/28/11
f 6/4/12 15/27/12 16/29/12
f 7/30/13 16/29/13 17/31/13
f 7/30/14 18/32/14 8/18/14
f 8/18/15 72/33/15 77/19/15
f 10/34/16 19/35/16 20/36/16
f 1/22/17 20/36/17 11/37/17
f 40/38/18 70/39/18 69/40/18
f 39/41/19 21/42/19 40/38/19
f 94/43/20 69/40/20 97/44/20
f 94/43/21 39/41/21 40/38/21
f 192/45/22 143/46/22 142/47/22
f 190/48/23 139/49/23 100/50/23
f 66/51/24 92/52/24 96/53/24
f 33/54/25 92/52/25 34/55/25
f 32/56/26 66/57/26 65/58/26
f 31/59/27 34/60/27 32/56/27
f 30/61/28 65/58/28 64/62/28
f 29/63/29 32/56/29 30/61/29
f 28/64/30 64/62/30 63/65/30
f 28/64/31 29/63/31 30/61/31
f 80/66/32 63/67/32 89/68/32
f 81/69/33 28/70/33 80/66/33
f 61/71/34 26/72/34 62/73/34
f 23/74/35 26/72/35 24/75/35
f 21/42/36 61/76/36 70/39/36
f 21/42/37 23/77/37 24/78/37
f 84/79/38 48/80/38 85/81/38
f 82/82/39 43/83/39 83/84/39
f 83/84/39 50/85/39 86/86/39
f 45/87/39 82/82/39 84/79/39
f 126/88/40 41/12/40 45/89/40
f 133/90/41 49/9/41 86/91/41
f 124/92/42 42/93/42 130/94/42
f 126/95/43 47/14/43 115/96/43
f 128/97/44 43/11/44 113/98/44
f 130/94/45 44/99/45 117/100/45
f 11/101/46 61/76/46 12/102/46
f 61/71/47 13/103/47 12/104/47
f 89/68/48 14/105/48 71/106/48
f 63/65/49 15/107/49 14/108/49
f 15/107/50 65/58/50 16/109/50
f 65/110/51 17/111/51 16/112/51
f 66/51/52 18/113/52 17/111/52
f 98/114/53 19/115/53 72/116/53
f 19/117/54 69/40/54 20/118/54
f 20/118/55 70/39/55 11/101/55
f 18/113/53 98/114/53 72/116/53
f 13/103/56 89/68/56 71/106/56
f 133/90/41 50/119/41 128/120/41
f 84/79/57 42/121/57 46/122/57
f 83/84/39 49/123/39 44/124/39
f 42/121/58 83/84/58 44/124/58
f 84/79/39 47/125/39 45/87/39
f 26/72/59 81/69/59 80/66/59
f 62/73/32 80/66/32 89/68/32
f 185/126/60 141/127/60 140/128/60
f 187/129/61 136/130/61 99/131/61
f 9/132/15 72/33/15 19/35/15
f 4/26/62 71/25/62 14/133/62
f 75/17/63 4/26/63 5/28/63
f 74/5/6 9/132/6 10/34/6
f 6/4/64 75/17/64 5/28/64
f 135/13/65 48/134/65 118/135/65
f 73/6/6 10/34/6 1/22/6
f 93/136/66 51/137/66 39/138/66
f 39/138/67 54/139/67 22/140/67
f 23/141/68 54/139/68 58/142/68
f 25/143/69 58/144/69 53/145/69
f 81/146/70 53/145/70 88/147/70
f 81/148/71 52/149/71 27/150/71
f 27/150/72 57/151/72 29/152/72
f 31/153/73 57/151/73 60/154/73
f 33/155/74 60/154/74 55/156/74
f 33/155/75 56/157/75 91/158/75
f 95/159/76 56/157/76 87/160/76
f 95/159/76 59/161/76 93/136/76
f 35/162/77 92/52/77 91/163/77
f 37/164/78 94/165/78 38/166/78
f 37/164/77 95/167/77 93/168/77
f 67/169/79 92/52/79 36/170/79
f 68/171/80 94/165/80 97/172/80
f 68/171/81 98/114/81 90/173/81
f 35/162/82 95/167/82 79/174/82
f 67/169/80 98/114/80 96/53/80
f 151/175/83 138/176/83 102/177/83
f 157/178/84 140/128/84 154/179/84
f 147/180/85 137/181/85 109/182/85
f 159/183/86 150/184/86 182/185/86
f 192/45/87 136/186/87 188/187/87
f 190/48/88 143/188/88 191/189/88
f 187/129/89 141/190/89 186/191/89
f 185/126/90 139/192/90 189/193/90
f 78/194/91 107/195/91 111/196/91
f 78/194/92 105/197/92 101/198/92
f 104/199/93 78/194/93 108/200/93
f 106/201/94 78/194/94 111/196/94
f 170/202/95 150/184/95 144/203/95
f 172/204/96 145/205/96 166/206/96
f 151/175/97 146/207/97 152/208/97
f 147/180/98 144/209/98 150/210/98
f 108/200/99 138/211/99 104/199/99
f 101/198/100 144/212/100 109/213/100
f 105/197/101 110/214/101 144/212/101
f 108/200/102 146/215/102 102/216/102
f 101/198/103 137/217/103 107/195/103
f 107/195/104 145/218/104 111/196/104
f 104/199/105 110/214/105 103/219/105
f 106/201/106 145/218/106 146/215/106
f 88/147/107 119/220/107 52/221/107
f 134/222/108 118/135/108 119/220/108
f 87/223/109 129/224/109 59/225/109
f 132/226/110 128/120/110 129/224/110
f 60/227/111 116/228/111 55/229/111
f 116/228/112 130/230/112 117/231/112
f 51/232/113 129/233/113 112/234/113
f 129/233/114 113/98/114 112/234/114
f 53/145/115 127/235/115 114/236/115
f 114/236/116 126/95/116 115/96/116
f 57/237/117 131/238/117 60/239/117
f 131/238/118 124/3/118 130/240/118
f 87/223/109 123/241/109 132/226/109
f 132/226/110 122/7/110 133/90/110
f 58/242/119 121/243/119 127/244/119
f 121/243/120 126/88/120 127/244/120
f 88/147/121 114/236/121 134/222/121
f 134/222/122 115/96/122 135/13/122
f 51/232/123 121/243/123 54/245/123
f 112/234/124 120/10/124 121/243/124
f 55/229/125 123/241/125 56/246/125
f 116/228/126 122/7/126 123/241/126
f 52/247/127 125/248/127 57/237/127
f 125/248/128 118/1/128 124/3/128
f 171/249/129 179/250/129 183/251/129
f 153/252/130 162/253/130 158/254/130
f 161/255/131 142/47/131 143/46/131
f 164/256/132 142/47/132 155/257/132
f 158/258/133 183/251/133 179/250/133
f 181/259/134 173/260/134 178/261/134
f 168/262/135 165/263/135 176/264/135
f 167/265/136 149/266/136 180/267/136
f 167/265/137 110/268/137 138/269/137
f 161/255/138 152/270/138 184/271/138
f 164/256/139 148/272/139 136/186/139
f 174/273/140 148/272/140 177/274/140
f 172/204/141 152/270/141 146/275/141
f 160/276/142 178/261/142 163/277/142
f 174/273/143 145/205/143 137/278/143
f 99/131/144 150/210/144 141/190/144
f 100/50/145 152/208/145 143/188/145
f 169/279/146 165/263/146 173/280/146
f 157/178/147 149/266/147 139/192/147
f 170/202/148 110/268/148 175/281/148
f 99/131/149 148/282/149 147/180/149
f 163/283/150 153/252/150 160/284/150
f 100/50/151 149/285/151 151/175/151
f 173/286/152 177/274/152 178/287/152
f 180/267/153 158/288/153 179/289/153
f 159/183/154 153/290/154 154/179/154
f 156/291/155 164/256/155 155/257/155
f 157/178/156 153/290/156 158/288/156
f 156/291/157 161/255/157 162/292/157
f 176/264/158 170/293/158 175/294/158
f 174/273/159 165/295/159 166/206/159
f 176/264/160 167/296/160 168/262/160
f 172/204/161 165/295/161 171/297/161
f 182/185/162 169/298/162 181/299/162
f 184/271/163 171/297/163 183/300/163
f 163/301/164 177/274/164 164/256/164
f 180/267/165 168/302/165 167/265/165
f 182/185/166 160/303/166 159/183/166
f 184/271/167 162/292/167 161/255/167
f 159/183/168 140/128/168 141/127/168
f 35/304/169 185/126/169 189/193/169
f 38/305/170 186/191/170 37/306/170
f 67/307/171 190/48/171 191/189/171
f 90/308/172 188/187/172 68/309/172
f 38/305/173 188/310/173 187/129/173
f 37/311/174 185/126/174 79/312/174
f 36/313/175 189/314/175 190/48/175
f 90/308/176 191/315/176 192/45/176
f 118/1/177 48/316/177 46/2/177
f 6/4/178 7/30/178 74/5/178
f 122/7/3 117/231/3 44/8/3
f 120/10/179 113/98/179 43/11/179
f 135/13/180 115/96/180 47/14/180
f 73/6/6 1/22/6 2/16/6
f 74/5/6 7/30/6 8/18/6
f 75/17/6 2/16/6 3/20/6
f 1/22/181 11/37/181 12/23/181
f 3/20/182 2/16/182 12/23/182
f 3/20/183 13/24/183 71/25/183
f 4/26/184 14/133/184 15/27/184
f 6/4/185 5/28/185 15/27/185
f 7/30/186 6/4/186 16/29/186
f 7/30/14 17/31/14 18/32/14
f 8/18/15 18/32/15 72/33/15
f 10/34/187 9/132/187 19/35/187
f 1/22/188 10/34/188 20/36/188
f 40/38/189 21/42/189 70/39/189
f 39/41/190 22/317/190 21/42/190
f 94/43/191 40/38/191 69/40/191
f 94/43/192 93/318/192 39/41/192
f 192/45/193 191/315/193 143/46/193
f 190/48/194 189/314/194 139/49/194
f 66/51/24 34/55/24 92/52/24
f 33/54/25 91/163/25 92/52/25
f 32/56/195 34/60/195 66/57/195
f 31/59/196 33/319/196 34/60/196
f 30/61/197 32/56/197 65/58/197
f 29/63/29 31/59/29 32/56/29
f 28/64/198 30/61/198 64/62/198
f 28/64/199 27/320/199 29/63/199
f 80/66/200 28/70/200 63/67/200
f 81/69/201 27/321/201 28/70/201
f 61/71/202 24/75/202 26/72/202
f 23/74/203 25/322/203 26/72/203
f 21/42/36 24/78/36 61/76/36
f 21/42/37 22/317/37 23/77/37
f 84/79/204 46/122/204 48/80/204
f 82/82/39 41/323/39 43/83/39
f 83/84/39 43/83/39 50/85/39
f 45/87/39 41/323/39 82/82/39
f 126/88/205 120/10/205 41/12/205
f 133/90/41 122/7/41 49/9/41
f 124/92/206 46/324/206 42/93/206
f 126/95/207 45/325/207 47/14/207
f 128/97/208 50/326/208 43/11/208
f 130/94/209 42/93/209 44/99/209
f 11/101/210 70/39/210 61/76/210
f 61/71/211 62/73/211 13/103/211
f 89/68/48 63/67/48 14/105/48
f 63/65/212 64/62/212 15/107/212
f 15/107/213 64/62/213 65/58/213
f 65/110/214 66/51/214 17/111/214
f 66/51/52 96/53/52 18/113/52
f 98/114/53 97/172/53 19/115/53
f 19/117/215 97/44/215 69/40/215
f 20/118/216 69/40/216 70/39/216
f 18/113/53 96/53/53 98/114/53
f 13/103/217 62/73/217 89/68/217
f 133/90/41 86/91/41 50/119/41
f 84/79/218 82/82/218 42/121/218
f 83/84/39 86/86/39 49/123/39
f 42/121/219 82/82/219 83/84/219
f 84/79/220 85/81/220 47/125/220
f 26/72/221 25/322/221 81/69/221
f 62/73/222 26/72/222 80/66/222
f 185/126/223 186/327/223 141/127/223
f 187/129/224 188/310/224 136/130/224
f 9/132/15 77/19/15 72/33/15
f 4/26/62 76/21/62 71/25/62
f 75/17/225 76/21/225 4/26/225
f 74/5/6 77/19/6 9/132/6
f 6/4/226 73/6/226 75/17/226
f 135/13/227 85/15/227 48/134/227
f 73/6/6 74/5/6 10/34/6
f 93/136/228 59/161/228 51/137/228
f 39/138/229 51/137/229 54/139/229
f 23/141/68 22/140/68 54/139/68
f 25/143/230 23/328/230 58/144/230
f 81/146/231 25/143/231 53/145/231
f 81/148/232 88/329/232 52/149/232
f 27/150/233 52/149/233 57/151/233
f 31/153/73 29/152/73 57/151/73
f 33/155/234 31/153/234 60/154/234
f 33/155/75 55/156/75 56/157/75
f 95/159/76 91/158/76 56/157/76
f 95/159/76 87/160/76 59/161/76
f 35/162/235 36/170/235 92/52/235
f 37/164/77 93/168/77 94/165/77
f 37/164/236 79/174/236 95/167/236
f 67/169/80 96/53/80 92/52/80
f 68/171/237 38/166/237 94/165/237
f 68/171/80 97/172/80 98/114/80
f 35/162/77 91/163/77 95/167/77
f 67/169/238 90/173/238 98/114/238
f 151/175/239 149/285/239 138/176/239
f 157/178/240 139/192/240 140/128/240
f 147/180/241 148/282/241 137/181/241
f 159/183/242 141/127/242 150/184/242
f 192/45/243 142/47/243 136/186/243
f 190/48/244 100/50/244 143/188/244
f 187/129/245 99/131/245 141/190/245
f 185/126/246 140/128/246 139/192/246
f 78/194/247 101/198/247 107/195/247
f 78/194/248 103/219/248 105/197/248
f 104/199/249 103/219/249 78/194/249
f 106/201/250 108/200/250 78/194/250
f 170/202/251 182/185/251 150/184/251
f 172/204/252 146/275/252 145/205/252
f 151/175/253 102/177/253 146/207/253
f 147/180/254 109/182/254 144/209/254
f 108/200/255 102/216/255 138/211/255
f 101/198/256 105/197/256 144/212/256
f 105/197/257 103/219/257 110/214/257
f 108/200/258 106/201/258 146/215/258
f 101/198/259 109/213/259 137/217/259
f 107/195/260 137/217/260 145/218/260
f 104/199/261 138/211/261 110/214/261
f 106/201/262 111/196/262 145/218/262
f 88/147/263 134/222/263 119/220/263
f 134/222/264 135/13/264 118/135/264
f 87/223/109 132/226/109 129/224/109
f 132/226/110 133/90/110 128/120/110
f 60/227/265 131/330/265 116/228/265
f 116/228/266 131/330/266 130/230/266
f 51/232/267 59/331/267 129/233/267
f 129/233/268 128/97/268 113/98/268
f 53/145/269 58/144/269 127/235/269
f 114/236/270 127/235/270 126/95/270
f 57/237/117 125/248/117 131/238/117
f 131/238/271 125/248/271 124/3/271
f 87/223/109 56/246/109 123/241/109
f 132/226/110 123/241/110 122/7/110
f 58/242/119 54/245/119 121/243/119
f 121/243/272 120/10/272 126/88/272
f 88/147/121 53/145/121 114/236/121
f 134/222/273 114/236/273 115/96/273
f 51/232/274 112/234/274 121/243/274
f 112/234/275 113/98/275 120/10/275
f 55/229/125 116/228/125 123/241/125
f 116/228/126 117/231/126 122/7/126
f 52/247/276 119/332/276 125/248/276
f 125/248/277 119/332/277 118/1/277
f 171/249/278 168/333/278 179/250/278
f 153/252/279 156/334/279 162/253/279
f 161/255/280 155/257/280 142/47/280
f 164/256/281 136/186/281 142/47/281
f 158/258/282 162/335/282 183/251/282
f 181/259/283 169/336/283 173/260/283
f 168/262/284 171/337/284 165/263/284
f 167/265/285 138/269/285 149/266/285
f 167/265/286 175/281/286 110/268/286
f 161/255/287 143/46/287 152/270/287
f 164/256/288 177/274/288 148/272/288
f 174/273/289 137/278/289 148/272/289
f 172/204/290 184/271/290 152/270/290
f 160/276/291 181/259/291 178/261/291
f 174/273/292 166/206/292 145/205/292
f 99/131/293 147/180/293 150/210/293
f 100/50/294 151/175/294 152/208/294
f 169/279/295 176/264/295 165/263/295
f 157/178/296 180/267/296 149/266/296
f 170/202/297 144/203/297 110/268/297
f 99/131/298 136/130/298 148/282/298
f 163/283/299 156/334/299 153/252/299
f 100/50/300 139/49/300 149/285/300
f 173/286/301 174/273/301 177/274/301
f 180/267/302 157/178/302 158/288/302
f 159/183/303 160/303/303 153/290/303
f 156/291/304 163/301/304 164/256/304
f 157/178/305 154/179/305 153/290/305
f 156/291/306 155/257/306 161/255/306
f 176/264/307 169/279/307 170/293/307
f 174/273/308 173/286/308 165/295/308
f 176/264/309 175/294/309 167/296/309
f 172/204/310 166/206/310 165/295/310
f 182/185/311 170/202/311 169/298/311
f 184/271/312 172/204/312 171/297/312
f 163/301/313 178/287/313 177/274/313
f 180/267/314 179/289/314 168/302/314
f 182/185/315 181/299/315 160/303/315
f 184/271/316 183/300/316 162/292/316
f 159/183/317 154/179/317 140/128/317
f 35/304/318 79/312/318 185/126/318
f 38/305/319 187/129/319 186/191/319
f 67/307/320 36/313/320 190/48/320
f 90/308/321 192/45/321 188/187/321
f 38/305/322 68/338/322 188/310/322
f 37/311/323 186/327/323 185/126/323
f 36/313/324 35/339/324 189/314/324
f 90/308/325 67/340/325 191/315/325
