# Blender 4.2.0
# www.blender.org
mtllib pan_broken.mtl
g pan_broken_Mesh
v -0.151017 0.009488 0.007508
v -0.117729 0.009488 -0.083647
v -0.040188 0.009488 -0.139983
v 0.052311 0.003270 -0.143689
v 0.121795 0.009871 -0.075205
v 0.145316 0.000000 -0.004236
v 0.133199 0.009488 0.098663
v 0.055658 0.009488 0.155000
v -0.040188 0.009488 0.155000
v -0.126537 0.009488 0.103801
v -0.187601 0.029530 0.007508
v -0.136161 0.031079 -0.098178
v -0.052627 0.029530 -0.178267
v 0.064750 0.023312 -0.181972
v 0.167932 0.026129 -0.097524
v 0.190768 0.021527 -0.024031
v 0.165765 0.029530 0.122324
v 0.068097 0.029530 0.193284
v -0.052627 0.029530 0.193284
v -0.157268 0.029530 0.118654
v -0.207086 0.090617 0.008126
v -0.214781 0.110115 0.013820
v -0.170167 0.106208 -0.131778
v -0.170141 0.076596 -0.119914
v -0.058292 0.115144 -0.195703
v -0.059264 0.086429 -0.198695
v 0.073280 0.114299 -0.196742
v 0.074252 0.085584 -0.199733
v 0.152926 0.093689 -0.149057
v 0.163554 0.064735 -0.126363
v 0.211306 0.089494 0.034983
v 0.225271 0.064260 0.004526
v 0.180598 0.115144 0.133100
v 0.183142 0.086429 0.134949
v 0.025277 0.100074 0.212290
v 0.028657 0.086463 0.213756
v -0.009806 0.100074 0.212290
v -0.013186 0.086463 0.213756
v -0.164036 0.111095 0.129759
v -0.169507 0.086429 0.134949
v -0.160464 0.036286 0.007508
v 0.163975 0.038165 -0.024031
v -0.134180 0.036286 0.109354
v 0.140842 0.036286 0.104216
v -0.125372 0.036286 -0.089200
v 0.146686 0.040805 -0.079416
v -0.043107 0.036286 -0.148968
v 0.055230 0.030068 -0.152673
v 0.058578 0.036286 0.163985
v -0.043107 0.036286 0.163985
v -0.152584 0.105045 0.130113
v 0.069607 0.108249 -0.185437
v -0.057967 0.102876 -0.188104
v -0.201626 0.107927 0.014012
v 0.170981 0.109094 0.126114
v 0.070090 0.109094 0.199416
v 0.142825 0.091099 -0.144698
v -0.159037 0.104788 -0.124567
v -0.054619 0.109094 0.199416
v 0.201482 0.087835 0.031703
v -0.158642 0.051340 -0.112625
v -0.061461 0.051762 -0.198857
v 0.070236 0.051762 -0.198857
v 0.158355 0.047747 -0.116011
v 0.211335 0.043941 -0.008022
v 0.180128 0.057980 0.132759
v 0.025245 0.073032 0.212043
v -0.009774 0.073032 0.212043
v -0.166493 0.057980 0.132759
v -0.194952 0.065120 0.013215
v 0.004388 0.023312 -0.181972
v 0.007735 0.029530 0.193284
v -0.048416 0.009488 0.008976
v 0.007735 0.009488 0.098663
v 0.013974 0.009488 -0.079242
v 0.004388 0.003270 -0.143689
v 0.007735 0.009488 0.155000
v 0.007735 0.103152 0.212290
v 0.004388 0.080211 -0.202400
v -0.000274 0.112875 -0.192150
v -0.048416 0.036286 0.008976
v 0.007735 0.036286 0.104216
v 0.025352 0.036286 -0.101311
v 0.004388 0.030068 -0.152673
v 0.007735 0.036286 0.163985
v 0.007735 0.109094 0.199416
v -0.000274 0.106825 -0.180846
v 0.004388 0.051762 -0.198857
v 0.007735 0.070218 0.212043
v 0.073763 0.115144 0.210720
v 0.074735 0.086429 0.213712
v -0.058292 0.115144 0.210720
v -0.059264 0.086429 0.213712
v 0.007735 0.115144 0.210720
v 0.073584 0.057980 0.210169
v -0.058113 0.057980 0.210169
v 0.007735 0.057980 0.210169
v -0.004285 0.085290 0.352921
v 0.052369 0.082769 0.343874
v 0.015187 0.088570 0.403556
v 0.032353 0.095686 0.397903
v 0.022730 0.104273 0.399669
v 0.022453 0.072483 0.401631
v 0.003332 0.088377 0.399765
v 0.031461 0.099431 0.391378
v 0.032053 0.078475 0.400349
v -0.147669 0.080992 0.115549
v -0.141691 0.054258 0.111206
v -0.056186 0.079839 -0.182624
v -0.047297 0.053105 -0.175964
v 0.166320 0.086057 0.122727
v 0.160342 0.059323 0.118384
v 0.073190 0.053105 -0.170026
v 0.067827 0.085212 -0.179958
v -0.176102 0.053411 0.011248
v -0.187153 0.096331 0.006528
v 0.066026 0.059323 0.186908
v 0.068309 0.086057 0.193936
v 0.146796 0.048657 -0.105057
v 0.153343 0.062943 -0.117330
v -0.139902 0.061305 -0.100399
v -0.153751 0.083654 -0.109233
v -0.050555 0.059323 0.186908
v -0.052839 0.086057 0.193936
v 0.182797 0.043608 0.010411
v 0.209161 0.074734 -0.003429
v 0.007735 0.086057 0.193936
v 0.007735 0.059323 0.186908
v 0.004388 0.079839 -0.182624
v 0.004388 0.053105 -0.175597
v 0.003137 0.063684 0.350947
v 0.010696 0.065006 0.397822
v 0.044300 0.087937 0.341802
v 0.023920 0.102821 0.344733
v 0.003480 0.106480 0.348320
v 0.023515 0.058644 0.348019
v 0.043955 0.071044 0.344429
v 0.011084 0.111308 0.394979
v 0.031023 0.074363 0.394932
v -0.001163 0.086536 0.372081
v 0.006230 0.064048 0.370123
v 0.006596 0.108597 0.367388
v 0.029002 0.086071 0.379338
v 0.029628 0.086062 0.383258
v 0.024782 0.101058 0.350327
v 0.024185 0.103065 0.346366
v 0.023733 0.058600 0.349389
v 0.024372 0.061054 0.353119
v 0.038096 0.090114 0.350137
v 0.035799 0.089250 0.353354
v 0.012062 0.102039 0.354294
v 0.015190 0.100371 0.356646
v 0.037738 0.070185 0.353027
v 0.035471 0.071286 0.356031
v 0.014820 0.063764 0.359329
v 0.011662 0.061858 0.357191
v 0.028796 0.075314 0.380748
v 0.029394 0.074118 0.384795
v 0.032205 0.087223 0.399106
v 0.018004 0.084163 0.376458
v 0.018215 0.103733 0.374913
v 0.015948 0.111470 0.377895
v 0.031227 0.086042 0.393276
v 0.014990 0.083750 0.358097
v 0.017837 0.064289 0.377685
v 0.015539 0.062433 0.380915
v 0.029883 0.096664 0.381584
v 0.029225 0.095249 0.377819
v 0.009470 0.062802 0.369688
v 0.012852 0.064087 0.369077
v 0.035631 0.082949 0.354727
v 0.024563 0.083308 0.351823
v 0.013228 0.108291 0.366320
v 0.009863 0.109711 0.366785
v 0.037912 0.082782 0.351621
v 0.013022 0.084121 0.367827
v 0.015429 0.103587 0.292359
v -0.003776 0.099914 0.295706
v -0.009719 0.081822 0.299643
v -0.004055 0.063417 0.297947
v 0.034581 0.099229 0.289581
v 0.040821 0.080920 0.291573
v 0.034274 0.062733 0.291826
v 0.015084 0.059144 0.295165
v 0.220242 0.071994 -0.010647
v 0.200004 0.048936 -0.019409
v 0.182587 0.033745 -0.031203
v 0.162104 0.033151 -0.083342
v -0.158310 0.108070 0.129936
v -0.056456 0.112119 0.205068
v -0.208204 0.109021 0.013916
v -0.164602 0.105498 -0.128173
v -0.058129 0.109010 -0.191904
v -0.000274 0.109850 -0.186498
v 0.071444 0.111274 -0.191089
v 0.147875 0.092394 -0.146878
v 0.206394 0.088664 0.033343
v 0.175789 0.112119 0.129607
v 0.071926 0.112119 0.205068
v 0.007735 0.112119 0.205068
v 0.163442 0.049077 -0.109683
v 0.160155 0.066786 -0.118949
v -0.161881 0.030305 -0.045335
v 0.174012 0.025399 -0.056679
v -0.134373 0.009488 -0.038069
v 0.133555 0.004936 -0.039721
v -0.188613 0.083607 -0.055894
v -0.194546 0.111457 -0.060655
v -0.142918 0.036286 -0.040846
v 0.149992 0.041056 -0.047625
v -0.182403 0.109652 -0.056954
v -0.176797 0.058230 -0.049705
v -0.011532 0.036286 -0.046167
v -0.017221 0.009488 -0.035133
v -0.170452 0.089993 -0.051353
v -0.160399 0.060314 -0.046446
v 0.167007 0.035019 -0.053174
v -0.188474 0.110555 -0.058804
vn -0.3268 0.9041 0.2755
vn -0.0469 -0.9985 0.0294
vn -0.4166 0.7054 -0.5735
vn 0.6893 0.6825 -0.2431
vn 0.1461 0.6978 0.7012
vn -0.0000 -1.0000 -0.0000
vn -0.1279 -0.9852 0.1141
vn -0.5562 -0.8059 -0.2031
vn -0.3463 -0.8727 -0.3443
vn -0.1600 -0.8745 -0.4578
vn 0.2192 -0.9466 -0.2363
vn 0.3547 -0.9028 -0.2431
vn 0.4468 -0.8845 0.1342
vn 0.2726 -0.8859 0.3752
vn -0.0000 -0.8859 0.4638
vn -0.3230 -0.8310 0.4529
vn -0.4764 -0.8696 0.1300
vn -0.9674 -0.1197 0.2232
vn -0.9224 0.2639 0.2820
vn -0.5767 -0.1239 0.8075
vn -0.5568 0.2875 0.7793
vn 0.1774 -0.9834 -0.0376
vn 0.5605 0.8140 -0.1525
vn 0.5833 -0.1236 0.8028
vn 0.5846 0.1036 0.8047
vn 0.7324 -0.6421 0.2264
vn 0.9427 0.1939 0.2715
vn 0.1577 0.6444 0.7483
vn -0.0387 0.9335 -0.3565
vn 0.5589 -0.5495 -0.6211
vn 0.5256 -0.3969 -0.7525
vn -0.0000 -0.1236 -0.9923
vn 0.0299 0.1046 -0.9941
vn -0.6631 0.0455 -0.7471
vn -0.5309 -0.3156 -0.7865
vn -0.8684 -0.4533 -0.2009
vn -0.9390 -0.2418 -0.2445
vn -0.0000 0.9928 -0.1202
vn -0.0000 1.0000 -0.0000
vn 0.7472 0.6068 0.2711
vn -0.0000 0.7054 -0.7088
vn 0.6223 -0.2664 -0.7361
vn 0.4224 0.7973 0.4312
vn 0.5938 0.3240 -0.7365
vn -0.6626 0.7091 -0.2410
vn -0.7857 -0.4806 -0.3895
vn -0.4320 -0.7898 -0.4354
vn -0.0000 -0.5104 -0.8600
vn 0.5989 -0.3505 -0.7201
vn -0.5710 0.7995 -0.1866
vn 0.6707 -0.7256 0.1542
vn 0.5055 -0.5104 0.6957
vn -0.0000 -0.5104 0.8600
vn -0.4997 -0.5094 0.7006
vn -0.9378 -0.2347 0.2559
vn -0.0000 -0.5104 0.8599
vn -0.1109 -0.5072 -0.8546
vn -0.0280 0.9900 0.1379
vn -0.0000 0.9999 0.0146
vn -0.0267 0.2958 -0.9549
vn -0.1803 0.9826 0.0436
vn -0.9359 -0.3322 0.1171
vn -0.0000 -0.8859 -0.4638
vn -0.0001 -0.9954 0.0960
vn 0.0088 -0.9900 -0.1406
vn -0.0626 0.6312 0.7731
vn 0.3959 0.7158 -0.5753
vn 0.1647 0.9844 -0.0627
vn 0.1291 0.9899 0.0590
vn 0.4755 0.4723 0.7422
vn -0.1189 0.8754 0.4685
vn 0.0129 0.8798 0.4751
vn -0.0370 0.8944 0.4458
vn 0.1992 0.9763 -0.0846
vn -0.3266 0.8892 -0.3205
vn -0.2773 0.8817 -0.3817
vn -0.0000 0.8817 -0.4719
vn -0.0000 0.1036 0.9946
vn -0.0010 0.1073 0.9942
vn 0.0009 -0.1267 0.9919
vn -0.0000 -0.1236 0.9923
vn -0.0243 -0.1514 0.9882
vn 0.0228 0.1298 0.9913
vn 0.6961 0.6849 -0.2156
vn -0.9353 -0.3091 0.1724
vn -0.3596 0.7655 -0.5335
vn -0.2131 -0.9764 0.0338
vn 0.9337 -0.3378 -0.1185
vn -0.9404 0.3282 0.0887
vn 0.5945 0.8017 0.0627
vn -0.2338 0.9706 -0.0573
vn -0.9289 0.3515 0.1166
vn -0.2958 0.2900 0.9102
vn 0.5075 0.8611 0.0317
vn -0.1853 -0.1989 0.9624
vn 0.5145 -0.7273 0.4542
vn 0.2605 0.1314 0.9565
vn 0.9867 -0.0396 -0.1576
vn 0.0593 0.2267 0.9722
vn -0.0774 0.2828 0.9561
vn -0.0000 0.2314 -0.9729
vn -0.0000 0.2542 -0.9671
vn -0.9083 0.2347 -0.3463
vn -0.9406 0.2480 -0.2317
vn 0.5292 0.5160 -0.6736
vn 0.6088 0.2580 -0.7502
vn 0.1226 0.8465 0.5180
vn 0.6056 0.3761 0.7013
vn -0.0463 0.4563 0.8886
vn 0.0881 0.7532 0.6519
vn 0.8181 0.5475 0.1761
vn 0.9109 0.3458 0.2250
vn -0.0000 -0.0658 0.9978
vn -0.0069 0.2542 0.9671
vn 0.5898 0.8012 -0.1009
vn 0.9291 0.2054 -0.3076
vn -0.5718 0.2314 -0.7871
vn -0.5685 0.2542 -0.7824
vn -0.3871 0.5642 0.7292
vn -0.4544 0.6911 0.5621
vn 0.3251 -0.0610 -0.9437
vn -0.1785 0.0848 0.9803
vn 0.5325 -0.7891 0.3061
vn -0.2551 -0.9669 0.0091
vn 0.8651 -0.0382 -0.5001
vn 0.8651 -0.0487 -0.4991
vn 0.4526 -0.2848 0.8450
vn 0.9802 0.0039 0.1980
vn -0.2500 -0.9665 0.0587
vn -0.3370 -0.9292 0.1516
vn 0.5491 0.0661 0.8331
vn 0.9802 0.0055 0.1980
vn 0.5715 -0.7709 0.2811
vn -0.9251 0.3631 0.1109
vn 0.8065 0.0546 0.5887
vn 0.1968 -0.0792 -0.9772
vn -0.2488 0.1110 0.9622
vn 0.7317 0.6159 -0.2919
vn -0.9312 -0.3212 0.1726
vn 0.5491 0.0468 0.8345
vn 0.3239 -0.9314 -0.1658
vn 0.1990 0.8859 0.4190
vn 0.1173 -0.8387 0.5318
vn 0.5338 0.6399 0.5528
vn 0.4584 -0.6650 0.5897
vn 0.6265 0.6872 -0.3678
vn 0.7176 -0.6319 -0.2928
vn 0.3302 0.8875 -0.3214
vn 0.9868 -0.0481 -0.1544
vn 0.4382 -0.8873 0.1439
vn 0.3196 0.7375 0.5950
vn 0.6470 0.6491 -0.4002
vn 0.7968 0.1007 0.5957
vn 0.2245 0.9084 0.3527
vn 0.2196 0.9755 -0.0158
vn -0.9663 0.2475 0.0703
vn 0.9298 -0.3368 -0.1487
vn -0.1579 -0.9824 -0.0995
vn -0.9549 -0.2959 0.0226
vn -0.1728 0.9849 0.0112
vn 0.9431 0.3078 -0.1255
vn 0.1576 -0.9769 -0.1441
vn 0.9067 -0.0207 0.4214
vn 0.7854 -0.1627 -0.5972
vn -0.0000 0.8817 -0.4718
vn -0.3178 0.8882 -0.3317
vn 0.8531 0.3377 -0.3978
vn -0.0363 0.8938 0.4470
vn 0.0126 0.8799 0.4750
vn -0.0568 0.8803 0.4711
vn 0.4383 0.4817 0.7588
vn 0.1300 0.9899 0.0561
vn 0.1647 0.9831 -0.0804
vn 0.4006 0.7256 -0.5595
vn 0.6808 -0.1073 -0.7245
vn -0.7844 0.5031 -0.3627
vn 0.0732 0.7842 -0.6162
vn 0.1420 0.9896 -0.0243
vn 0.6731 0.7344 -0.0871
vn 0.8060 0.5668 0.1705
vn 0.8692 0.4138 0.2706
vn 0.4159 0.9010 -0.1234
vn 0.1415 0.9897 -0.0235
vn -0.0338 -0.9914 -0.1267
vn -0.0365 0.9993 -0.0041
vn 0.7607 0.5759 0.2996
vn 0.3299 -0.9139 -0.2364
vn -0.6111 -0.7291 -0.3081
vn 0.5013 0.5868 0.6359
vn -0.4253 0.7323 0.5319
vn -0.0000 -0.9958 0.0918
vn 0.8894 0.3954 -0.2295
vn -0.0038 0.8485 0.5292
vn -0.4665 -0.8515 -0.2395
vn -0.4061 -0.7229 -0.5590
vn -0.1254 -0.8951 -0.4278
vn 0.3978 -0.8596 -0.3207
vn 0.3047 -0.9504 -0.0623
vn 0.4695 -0.8736 0.1280
vn -0.2318 -0.8907 0.3910
vn -0.4982 -0.8578 0.1267
vn -0.8924 -0.3744 0.2521
vn -0.8248 -0.4320 0.3647
vn -0.5769 -0.1233 0.8075
vn -0.6072 0.1026 0.7879
vn 0.5232 -0.8514 0.0382
vn 0.9445 0.3101 -0.1087
vn 0.9378 -0.1243 0.3241
vn 0.9567 0.1023 0.2727
vn 0.7835 0.5896 0.1961
vn 0.0005 0.9352 -0.3542
vn 0.6189 -0.0937 -0.7799
vn 0.5308 0.1056 -0.8409
vn 0.0405 -0.0307 -0.9987
vn -0.0652 0.2903 -0.9547
vn -0.4935 -0.4410 -0.7496
vn -0.4997 0.1065 -0.8596
vn -0.9412 -0.1264 -0.3133
vn -0.0138 0.9917 -0.1281
vn 0.7391 0.6150 0.2747
vn 0.8445 -0.3090 -0.4374
vn 0.4807 0.5754 0.6617
vn 0.3602 0.7140 -0.6004
vn -0.2311 0.9726 -0.0274
vn -0.6309 -0.7697 -0.0978
vn -0.4777 -0.6916 -0.5418
vn 0.5832 -0.4948 -0.6443
vn 0.1405 0.9632 -0.2290
vn 0.8305 -0.5053 0.2345
vn -0.4995 -0.5114 0.6993
vn -0.9018 -0.3874 0.1915
vn -0.0000 -0.6795 -0.7337
vn -0.0099 0.9999 -0.0066
vn -0.0081 1.0000 0.0048
vn 0.1153 0.9794 -0.1656
vn 0.0648 0.1012 -0.9928
vn -0.0573 0.0083 -0.9983
vn 0.1501 0.9783 -0.1428
vn -0.9443 -0.3025 0.1297
vn -0.0000 -0.9954 0.0960
vn -0.0308 -0.9993 -0.0218
vn -0.0000 0.7054 0.7088
vn 0.2429 0.8859 -0.3952
vn 0.4642 0.8684 -0.1745
vn 0.1628 0.9845 0.0649
vn 0.0437 0.9909 0.1276
vn -0.0868 0.5230 0.8479
vn 0.0130 0.8816 0.4718
vn -0.0477 0.8870 0.4592
vn 0.3133 0.9471 -0.0696
vn -0.0818 0.9663 -0.2440
vn 0.0010 0.1073 0.9942
vn -0.0228 0.1298 0.9913
vn -0.0009 -0.1267 0.9919
vn 0.0243 -0.1514 0.9882
vn 0.5947 0.7665 0.2425
vn -0.9332 -0.3209 0.1616
vn 0.5481 0.8168 -0.1803
vn -0.2361 -0.9713 0.0285
vn 0.7990 -0.5808 -0.1559
vn -0.9314 0.3569 0.0718
vn 0.2189 0.9755 -0.0212
vn -0.3187 0.9476 0.0245
vn -0.9310 0.3416 0.1284
vn -0.1825 0.3180 0.9303
vn 0.6650 0.6834 0.3013
vn -0.2975 -0.1718 0.9391
vn 0.4334 -0.8433 0.3178
vn 0.2708 0.1068 0.9567
vn -0.0358 -0.0719 0.9968
vn -0.0621 0.2537 0.9653
vn -0.8686 0.3712 -0.3283
vn -0.7887 0.5279 -0.3152
vn 0.5552 0.2328 -0.7984
vn 0.6089 0.2499 -0.7528
vn 0.4816 0.8374 0.2585
vn 0.5080 0.5700 0.6457
vn 0.2040 0.5825 0.7868
vn -0.1895 0.6471 0.7385
vn 0.6735 0.7117 0.1997
vn 0.9209 0.2682 0.2827
vn -0.1365 0.2192 0.9661
vn -0.0000 0.2417 0.9703
vn 0.8529 0.3867 -0.3507
vn 0.9134 0.2557 -0.3166
vn -0.4284 0.2403 0.8711
vn -0.5559 0.1595 0.8158
vn 0.2723 -0.1302 -0.9534
vn -0.2415 0.2126 0.9468
vn 0.6517 -0.7476 -0.1280
vn -0.2349 -0.9713 0.0367
vn 0.8655 -0.0385 -0.4994
vn 0.8550 -0.0395 -0.5171
vn 0.9882 -0.0468 -0.1460
vn 0.8066 0.0546 0.5886
vn 0.9802 0.0040 0.1978
vn -0.3580 -0.9337 0.0077
vn -0.2534 -0.9645 0.0742
vn 0.5458 0.0637 0.8355
vn 0.9807 0.0039 0.1957
vn 0.4125 -0.9099 -0.0443
vn -0.9267 0.3532 0.1281
vn 0.8061 0.0549 0.5892
vn 0.2764 -0.1635 -0.9470
vn -0.3030 0.0580 0.9512
vn 0.5178 0.8413 0.1554
vn -0.9297 -0.3336 0.1563
vn 0.5532 0.0437 0.8319
vn 0.3856 -0.8915 -0.2378
vn 0.1601 -0.0457 0.9860
vn 0.1903 0.9023 0.3869
vn 0.1245 -0.8248 0.5515
vn 0.6116 0.7391 0.2825
vn 0.5172 -0.7530 0.4068
vn 0.6305 0.4329 -0.6442
vn 0.6420 -0.7666 0.0163
vn 0.8742 0.3749 -0.3084
vn 0.9862 -0.0500 -0.1575
vn 0.3698 -0.9231 0.1053
vn 0.8104 0.0967 0.5779
vn 0.2894 0.8375 -0.4634
vn 0.8041 0.1059 0.5849
vn -0.1616 0.9795 -0.1204
vn 0.1727 0.9847 -0.0219
vn -0.9449 0.3225 0.0556
vn 0.9606 -0.2229 -0.1660
vn -0.2316 -0.9668 -0.1083
vn -0.9674 -0.2504 0.0364
vn -0.1853 0.9826 0.0153
vn 0.9670 0.2279 -0.1139
vn 0.1570 -0.9771 -0.1439
vn 0.7853 -0.1663 -0.5963
vn 0.9248 0.3029 0.2301
vn -0.2774 0.8817 -0.3817
vn -0.0762 0.9629 -0.2588
vn 0.6510 0.6289 -0.4251
vn -0.0467 0.8869 0.4595
vn 0.0127 0.8816 0.4718
vn -0.0315 0.5257 0.8501
vn 0.0171 0.9857 0.1677
vn 0.1629 0.9847 0.0620
vn 0.4631 0.8653 -0.1920
vn 0.2534 0.8848 -0.3912
vn 0.5990 -0.0673 -0.7979
vn -0.3394 0.5795 -0.7410
vn 0.8084 0.5878 0.0317
vn 0.1527 0.9881 -0.0195
vn 0.7683 0.6189 -0.1632
vn 0.8730 0.3516 0.3381
vn 0.3222 0.9458 -0.0410
vn 0.1524 0.9881 -0.0184
vn -0.0514 -0.9980 -0.0363
vn -0.0297 0.9994 -0.0199
vn -0.9535 -0.1556 -0.2581
vn -0.9224 -0.2893 -0.2558
vn 0.3374 -0.8988 -0.2798
vn 0.5204 0.2355 0.8208
vt 0.568726 0.373715
vt 0.567412 0.372331
vt 0.569173 0.373610
vt 0.564364 0.380176
vt 0.566561 0.377850
vt 0.567873 0.379311
vt 0.564640 0.383777
vt 0.565243 0.382381
vt 0.565251 0.383915
vt 0.573009 0.381929
vt 0.573481 0.383874
vt 0.573015 0.383824
vt 0.566424 0.375378
vt 0.566940 0.374524
vt 0.567088 0.375402
vt 0.567444 0.380213
vt 0.569434 0.380785
vt 0.567015 0.381115
vt 0.565505 0.376971
vt 0.566381 0.376822
vt 0.568198 0.382054
vt 0.567387 0.382274
vt 0.569751 0.379018
vt 0.570146 0.379906
vt 0.569593 0.379901
vt 0.569846 0.380948
vt 0.568574 0.382673
vt 0.567536 0.382931
vt 0.565033 0.381377
vt 0.566434 0.383120
vt 0.564284 0.381895
vt 0.564041 0.381170
vt 0.564699 0.380776
vt 0.563626 0.377870
vt 0.564269 0.378241
vt 0.565183 0.376271
vt 0.566285 0.376082
vt 0.568996 0.377337
vt 0.567388 0.375894
vt 0.569537 0.376929
vt 0.570446 0.378863
vt 0.564724 0.371936
vt 0.564413 0.374261
vt 0.563969 0.372060
vt 0.565391 0.371955
vt 0.565106 0.374286
vt 0.573654 0.379642
vt 0.573107 0.381718
vt 0.572904 0.379640
vt 0.574528 0.381644
vt 0.573861 0.381755
vt 0.570894 0.377046
vt 0.571224 0.376048
vt 0.571248 0.377039
vt 0.566501 0.381895
vt 0.566705 0.382826
vt 0.566564 0.382878
vt 0.573007 0.375292
vt 0.573615 0.377157
vt 0.572866 0.377198
vt 0.574528 0.375250
vt 0.573759 0.375217
vt 0.576720 0.382183
vt 0.577063 0.379887
vt 0.577236 0.382479
vt 0.576085 0.381581
vt 0.576308 0.379778
vt 0.565589 0.372941
vt 0.565220 0.373705
vt 0.565595 0.372894
vt 0.573022 0.386635
vt 0.572323 0.386500
vt 0.573017 0.386540
vt 0.575687 0.375623
vt 0.576033 0.377344
vt 0.575574 0.377250
vt 0.576595 0.375689
vt 0.576814 0.377142
vt 0.576440 0.374394
vt 0.575676 0.374401
vt 0.577365 0.375664
vt 0.575615 0.371365
vt 0.576595 0.373210
vt 0.575665 0.373178
vt 0.577090 0.371139
vt 0.576293 0.371146
vt 0.565046 0.375476
vt 0.564295 0.376599
vt 0.564354 0.375430
vt 0.565800 0.375484
vt 0.564986 0.376665
vt 0.562260 0.278848
vt 0.561740 0.279365
vt 0.561582 0.278765
vt 0.563332 0.277641
vt 0.564251 0.276324
vt 0.564630 0.278014
vt 0.565178 0.277232
vt 0.565336 0.277832
vt 0.562451 0.276678
vt 0.562796 0.278245
vt 0.572835 0.384872
vt 0.573487 0.384747
vt 0.564635 0.384859
vt 0.565247 0.384859
vt 0.576487 0.382452
vt 0.577079 0.382691
vt 0.566400 0.372772
vt 0.566434 0.374419
vt 0.564630 0.385941
vt 0.565223 0.387487
vt 0.564740 0.387625
vt 0.570957 0.373836
vt 0.572429 0.372665
vt 0.572812 0.372902
vt 0.563719 0.376378
vt 0.563596 0.375423
vt 0.570330 0.381101
vt 0.574919 0.375526
vt 0.574908 0.374406
vt 0.574991 0.377431
vt 0.570195 0.374044
vt 0.570512 0.374272
vt 0.577800 0.380163
vt 0.577800 0.382851
vt 0.572147 0.377331
vt 0.572276 0.375584
vt 0.572885 0.378419
vt 0.572182 0.379570
vt 0.572165 0.378450
vt 0.572378 0.381575
vt 0.563237 0.372399
vt 0.563474 0.374468
vt 0.575064 0.373345
vt 0.565243 0.385803
vt 0.563604 0.280246
vt 0.563285 0.280149
vt 0.565493 0.278432
vt 0.565043 0.279585
vt 0.561485 0.278185
vt 0.561935 0.277032
vt 0.577313 0.374298
vt 0.565460 0.380256
vt 0.565850 0.379284
vt 0.565814 0.380265
vt 0.564704 0.377426
vt 0.564170 0.376490
vt 0.564749 0.376430
vt 0.567256 0.376672
vt 0.566512 0.382423
vt 0.567078 0.376345
vt 0.566422 0.376658
vt 0.577511 0.382866
vt 0.576674 0.380763
vt 0.576708 0.380657
vt 0.574883 0.379267
vt 0.574919 0.379149
vt 0.573530 0.379108
vt 0.573528 0.379227
vt 0.564911 0.374196
vt 0.565192 0.372389
vt 0.565083 0.374203
vt 0.564889 0.375273
vt 0.564982 0.375279
vt 0.566674 0.382858
vt 0.566390 0.384124
vt 0.566288 0.384129
vt 0.566769 0.385639
vt 0.566711 0.385719
vt 0.569730 0.373864
vt 0.570243 0.373669
vt 0.574902 0.386485
vt 0.574946 0.386587
vt 0.576734 0.385086
vt 0.576832 0.385146
vt 0.577171 0.384006
vt 0.577064 0.383978
vt 0.577393 0.382871
vt 0.573996 0.378068
vt 0.574387 0.377162
vt 0.574006 0.378718
vt 0.573642 0.378787
vt 0.574406 0.378386
vt 0.574426 0.379610
vt 0.573277 0.378084
vt 0.573629 0.378012
vt 0.573287 0.378733
vt 0.573207 0.378410
vt 0.574083 0.378391
vt 0.563913 0.367988
vt 0.563872 0.367624
vt 0.563903 0.367624
vt 0.564764 0.376072
vt 0.564162 0.375615
vt 0.564788 0.375553
vt 0.565612 0.379139
vt 0.565469 0.378899
vt 0.565529 0.378900
vt 0.571614 0.376039
vt 0.571614 0.377031
vt 0.566253 0.382882
vt 0.566016 0.381899
vt 0.565319 0.376483
vt 0.565191 0.377471
vt 0.566180 0.380278
vt 0.566258 0.379317
vt 0.565612 0.378678
vt 0.565483 0.378377
vt 0.565405 0.375607
vt 0.565358 0.376125
vt 0.569757 0.375744
vt 0.569845 0.375120
vt 0.569980 0.375743
vt 0.568885 0.373408
vt 0.568763 0.373609
vt 0.568763 0.373203
vt 0.569841 0.376360
vt 0.569621 0.376166
vt 0.571402 0.375046
vt 0.571232 0.375144
vt 0.571234 0.375035
vt 0.569445 0.375538
vt 0.569445 0.375766
vt 0.564420 0.369359
vt 0.564542 0.369569
vt 0.564435 0.369674
vt 0.565546 0.376545
vt 0.564920 0.376570
vt 0.563303 0.384855
vt 0.563915 0.385981
vt 0.563298 0.386012
vt 0.563919 0.384857
vt 0.573914 0.376705
vt 0.573350 0.375138
vt 0.573914 0.374880
vt 0.572921 0.377465
vt 0.572697 0.375445
vt 0.563381 0.387823
vt 0.564024 0.387733
vt 0.569163 0.373920
vt 0.568723 0.374033
vt 0.565709 0.374244
vt 0.566260 0.378193
vt 0.566644 0.378389
vt 0.566152 0.378317
vt 0.565452 0.377968
vt 0.565411 0.378060
vt 0.563924 0.383732
vt 0.571503 0.385091
vt 0.571859 0.383923
vt 0.572035 0.384974
vt 0.565696 0.375367
vt 0.571542 0.383802
vt 0.572289 0.381854
vt 0.563298 0.381816
vt 0.563308 0.383697
vt 0.563915 0.381905
vt 0.566669 0.378085
vt 0.570586 0.378395
vt 0.570788 0.378632
vt 0.570587 0.378928
vt 0.566818 0.378345
vt 0.566609 0.378188
vt 0.566818 0.377869
vt 0.570997 0.375902
vt 0.570863 0.376043
vt 0.571470 0.375905
vt 0.571223 0.376023
vt 0.564233 0.369349
vt 0.564171 0.369634
vt 0.564159 0.369345
vt 0.563920 0.369917
vt 0.564090 0.369388
vt 0.564085 0.369922
vt 0.563924 0.369379
vt 0.564088 0.368863
vt 0.564403 0.368999
vt 0.569024 0.369268
vt 0.568915 0.369563
vt 0.568763 0.369247
vt 0.563741 0.369918
vt 0.563746 0.369382
vt 0.571606 0.375679
vt 0.571459 0.375459
vt 0.571543 0.375680
vt 0.566990 0.377903
vt 0.566990 0.378349
vt 0.563741 0.368935
vt 0.571236 0.375335
vt 0.571594 0.375157
vt 0.563898 0.368186
vt 0.563909 0.368503
vt 0.563851 0.368521
vt 0.570792 0.378096
vt 0.570586 0.377869
vt 0.566610 0.378673
vt 0.566610 0.378359
vt 0.564150 0.368657
vt 0.564216 0.369064
vt 0.564162 0.376132
vt 0.566989 0.378885
vt 0.571412 0.375510
vt 0.571482 0.375681
vt 0.569445 0.376002
vt 0.565856 0.379183
vt 0.565851 0.379253
vt 0.571225 0.375949
vt 0.563964 0.367693
vt 0.563964 0.368022
vt 0.571048 0.375851
vt 0.564144 0.369098
vt 0.564245 0.369670
vt 0.564520 0.369106
vt 0.563928 0.368731
vt 0.563935 0.368691
vt 0.571421 0.375855
vt 0.568916 0.369107
vt 0.565594 0.378903
vt 0.565667 0.379091
vt 0.565460 0.379261
vt 0.566186 0.381718
vt 0.564906 0.379013
vt 0.565271 0.379021
vt 0.566268 0.380406
vt 0.571198 0.378567
vt 0.571524 0.378607
vt 0.564211 0.377477
vt 0.565541 0.381802
vt 0.565858 0.381755
vt 0.566628 0.380436
vt 0.566994 0.381842
vt 0.565344 0.373779
vt 0.564962 0.374121
vt 0.565062 0.374201
vt 0.564700 0.374751
vt 0.577279 0.384034
vt 0.577628 0.382861
vt 0.574990 0.386688
vt 0.576930 0.385206
vt 0.573027 0.386731
vt 0.565132 0.375381
vt 0.565595 0.375642
vt 0.565412 0.375952
vt 0.566185 0.384135
vt 0.566653 0.385800
vt 0.566580 0.382830
vt 0.564796 0.375268
vt 0.564740 0.374188
vt 0.565166 0.372282
vt 0.573531 0.378990
vt 0.576743 0.380552
vt 0.574954 0.379030
vt 0.571167 0.368589
vt 0.570918 0.367878
vt 0.571167 0.367881
vt 0.573784 0.377430
vt 0.573224 0.377935
vt 0.576102 0.381619
vt 0.572162 0.379165
vt 0.572130 0.379046
vt 0.565004 0.374845
vt 0.572816 0.385844
vt 0.572211 0.386024
vt 0.571642 0.386314
vt 0.572195 0.379284
vt 0.562899 0.280207
vt 0.573494 0.385620
vt 0.563626 0.380635
vt 0.563108 0.376163
vt 0.565788 0.372504
vt 0.567222 0.372687
vt 0.564630 0.382018
vt 0.573494 0.381954
vt 0.565617 0.374128
vt 0.575536 0.379750
vt 0.572130 0.386660
vt 0.577365 0.373221
vt 0.565800 0.376795
vt 0.562967 0.276324
vt 0.567088 0.373056
vt 0.568831 0.382976
vt 0.566769 0.382885
vt 0.569759 0.373521
vt 0.563757 0.368016
vt 0.569624 0.375315
vt 0.568878 0.373606
vt 0.564531 0.369334
vt 0.571642 0.381589
vt 0.570790 0.378343
vt 0.569022 0.369606
vt 0.563953 0.368192
vt 0.566817 0.378941
vt 0.564460 0.368674
vt 0.564140 0.369973
vt 0.569024 0.369069
vt 0.564547 0.379060
vt 0.566994 0.380398
vt 0.570882 0.378518
vt 0.565376 0.375273
vt 0.565141 0.372176
vt 0.570863 0.368392
vt 0.573752 0.377574
vt 0.563019 0.375333
s 0
g pan_broken_Material
usemtl Material
f 119/1/1 48/2/1 46/3/1
f 6/4/2 74/5/2 73/6/2
f 117/7/3 44/8/3 49/9/3
f 108/10/4 41/11/4 115/12/4
f 130/13/5 47/14/5 84/15/5
f 214/16/6 2/17/6 75/18/6
f 74/5/6 8/19/6 77/20/6
f 75/18/7 3/21/7 76/22/7
f 1/23/8 203/24/8 205/25/8
f 3/21/9 12/26/9 13/27/9
f 3/21/10 71/28/10 76/22/10
f 5/29/11 14/30/11 15/31/11
f 5/29/12 204/32/12 206/33/12
f 6/4/13 17/34/13 7/35/13
f 7/35/14 18/36/14 8/19/14
f 8/19/15 72/37/15 77/20/15
f 10/38/16 19/39/16 20/40/16
f 1/23/17 20/40/17 11/41/17
f 40/42/18 70/43/18 69/44/18
f 39/45/19 21/46/19 40/42/19
f 93/47/20 69/48/20 96/49/20
f 93/47/21 39/50/21 40/51/21
f 183/52/22 136/53/22 184/54/22
f 182/55/23 133/56/23 99/57/23
f 66/58/24 91/59/24 95/60/24
f 33/61/25 91/59/25 34/62/25
f 32/63/26 66/64/26 65/65/26
f 31/66/27 34/67/27 32/63/27
f 196/68/28 30/69/28 29/70/28
f 197/71/29 126/72/29 60/73/29
f 63/74/30 30/75/30 64/76/30
f 28/77/31 29/78/31 30/75/31
f 79/79/32 63/74/32 88/80/32
f 79/79/33 27/81/33 28/77/33
f 61/82/34 26/83/34 62/84/34
f 23/85/35 26/83/35 24/86/35
f 207/87/36 61/88/36 212/89/36
f 208/90/37 24/91/37 207/87/37
f 83/92/38 48/93/38 84/94/38
f 81/95/39 43/96/39 82/97/39
f 82/97/39 50/98/39 85/99/39
f 209/100/39 81/95/39 213/101/39
f 216/102/40 41/11/40 209/103/40
f 128/104/41 49/9/41 85/105/41
f 185/106/42 65/65/42 186/107/42
f 121/108/43 47/14/43 110/109/43
f 123/110/44 43/111/44 108/112/44
f 125/113/45 44/114/45 112/115/45
f 212/89/46 12/116/46 203/117/46
f 61/118/47 13/27/47 12/26/47
f 88/80/48 14/119/48 71/120/48
f 14/119/49 64/76/49 15/121/49
f 187/122/50 125/113/50 186/123/50
f 65/65/51 17/124/51 16/125/51
f 66/58/52 18/126/52 17/127/52
f 97/128/53 19/129/53 72/130/53
f 19/129/54 69/48/54 20/131/54
f 20/132/55 70/43/55 11/133/55
f 18/126/56 97/128/56 72/130/56
f 13/134/57 88/80/57 71/120/57
f 128/104/41 50/135/41 123/110/41
f 213/101/58 42/136/58 210/137/58
f 82/97/39 49/138/39 44/139/39
f 42/136/59 82/97/59 44/139/59
f 83/92/39 47/140/39 45/141/39
f 26/83/60 80/142/60 79/79/60
f 62/84/32 79/79/32 88/80/32
f 178/143/61 134/144/61 177/145/61
f 179/146/62 131/147/62 98/148/62
f 9/149/15 72/37/15 19/39/15
f 4/150/63 71/28/63 14/30/63
f 75/18/64 4/150/64 5/29/64
f 74/5/6 9/149/6 10/38/6
f 206/33/65 75/18/65 5/29/65
f 130/13/66 48/151/66 113/152/66
f 73/6/6 10/38/6 1/23/6
f 190/153/67 51/154/67 189/155/67
f 189/155/68 54/156/68 191/157/68
f 218/158/69 54/156/69 211/159/69
f 193/160/70 58/161/70 53/162/70
f 194/163/71 53/162/71 87/164/71
f 194/165/72 52/166/72 195/167/72
f 195/167/73 57/168/73 196/169/73
f 217/170/74 42/171/74 187/122/74
f 197/71/75 55/172/75 198/173/75
f 198/173/76 56/174/76 199/175/76
f 200/176/77 56/174/77 86/177/77
f 200/176/77 59/178/77 190/153/77
f 35/179/78 91/59/78 90/180/78
f 37/181/79 93/47/79 38/182/79
f 37/181/78 94/183/78 92/184/78
f 67/185/80 91/59/80 36/186/80
f 68/187/81 93/47/81 96/49/81
f 68/187/82 97/128/82 89/188/82
f 35/179/83 94/183/83 78/189/83
f 67/185/81 97/128/81 95/60/81
f 149/190/84 134/191/84 146/192/84
f 140/193/85 132/194/85 104/195/85
f 151/196/86 142/197/86 174/198/86
f 184/54/87 131/199/87 180/200/87
f 182/55/88 137/201/88 183/202/88
f 179/146/89 135/203/89 178/204/89
f 181/205/90 134/144/90 133/206/90
f 162/207/91 142/197/91 138/208/91
f 140/193/92 138/209/92 142/210/92
f 100/211/93 138/212/93 104/213/93
f 102/214/94 105/215/94 138/216/94
f 100/211/95 132/217/95 103/218/95
f 103/219/96 139/220/96 106/221/96
f 101/222/97 100/211/97 159/223/97
f 163/224/98 106/225/98 139/226/98
f 87/164/99 114/227/99 52/228/99
f 114/227/100 130/13/100 113/152/100
f 86/229/101 124/230/101 59/231/101
f 127/232/102 123/110/102 124/230/102
f 60/233/103 111/234/103 55/235/103
f 111/234/104 125/236/104 112/237/104
f 51/238/105 124/230/105 107/239/105
f 107/239/106 123/110/106 108/112/106
f 119/1/107 188/240/107 201/241/107
f 109/242/108 121/108/108 110/109/108
f 120/243/109 201/244/109 202/245/109
f 57/246/110 202/245/110 196/247/110
f 86/229/101 118/248/101 127/232/101
f 127/232/102 117/7/102 128/104/102
f 211/249/111 116/250/111 215/251/111
f 116/250/112 216/102/112 215/251/112
f 87/164/113 109/242/113 129/252/113
f 129/252/114 110/109/114 130/13/114
f 54/253/115 107/254/115 116/250/115
f 107/254/116 115/12/116 116/250/116
f 55/255/117 118/248/117 56/256/117
f 111/257/118 117/7/118 118/248/118
f 57/246/119 114/227/119 120/243/119
f 120/243/120 113/152/120 119/258/120
f 160/259/121 157/260/121 165/261/121
f 172/262/122 150/263/122 145/264/122
f 153/265/123 136/53/123 137/266/123
f 156/267/124 136/53/124 147/268/124
f 144/269/98 157/270/98 143/271/98
f 170/272/125 160/273/125 165/274/125
f 176/275/126 161/276/126 160/273/126
f 144/269/98 105/277/98 163/224/98
f 175/278/127 137/279/127 99/280/127
f 176/275/128 155/281/128 164/282/128
f 156/267/129 141/283/129 131/199/129
f 166/284/130 141/283/130 169/285/130
f 172/262/131 152/286/131 164/287/131
f 152/288/132 176/275/132 164/282/132
f 158/289/133 132/290/133 166/284/133
f 98/148/134 142/210/134 135/203/134
f 175/291/135 154/292/135 153/293/135
f 168/294/136 160/259/136 161/295/136
f 172/262/137 154/296/137 171/297/137
f 162/298/138 105/277/138 167/299/138
f 98/148/139 141/300/139 140/193/139
f 155/301/140 172/262/140 164/287/140
f 165/302/141 169/285/141 170/303/141
f 100/211/97 106/304/97 159/223/97
f 151/196/142 145/305/142 146/306/142
f 148/307/143 156/267/143 147/268/143
f 149/190/144 145/308/144 150/309/144
f 148/307/145 153/265/145 154/310/145
f 161/276/146 167/299/146 168/311/146
f 158/312/147 165/274/147 157/270/147
f 101/313/98 163/224/98 105/277/98
f 158/312/98 163/224/98 139/226/98
f 162/298/148 173/314/148 174/315/148
f 144/269/149 168/311/149 167/299/149
f 155/316/150 169/285/150 156/267/150
f 133/317/151 175/278/151 99/280/151
f 151/196/152 173/318/152 152/319/152
f 150/309/153 175/291/153 149/190/153
f 151/196/154 134/144/154 135/320/154
f 35/321/155 177/145/155 181/205/155
f 38/322/156 178/204/156 37/323/156
f 67/324/157 182/55/157 183/202/157
f 89/325/158 180/200/158 68/326/158
f 38/322/159 180/327/159 179/146/159
f 37/328/160 177/145/160 78/329/160
f 36/330/161 181/331/161 182/55/161
f 89/325/162 183/52/162 184/54/162
f 202/332/163 64/333/163 30/69/163
f 201/334/164 15/335/164 64/333/164
f 94/336/77 190/153/77 92/337/77
f 94/336/165 199/175/165 200/176/165
f 33/338/76 199/175/76 90/339/76
f 31/340/166 198/173/166 33/338/166
f 204/341/167 187/342/167 16/343/167
f 27/344/168 196/169/168 29/345/168
f 80/346/169 195/167/169 27/344/169
f 80/347/170 193/160/170 194/163/170
f 25/348/171 192/349/171 193/160/171
f 208/350/172 191/157/172 218/158/172
f 39/351/173 191/157/173 22/352/173
f 92/337/174 189/155/174 39/351/174
f 16/353/175 186/354/175 65/355/175
f 126/356/176 186/357/176 125/236/176
f 32/63/177 197/358/177 31/66/177
f 208/350/178 192/359/178 23/360/178
f 188/361/179 204/341/179 15/335/179
f 215/251/180 121/362/180 122/363/180
f 211/249/181 122/363/181 58/364/181
f 46/3/182 217/170/182 188/240/182
f 218/158/183 58/365/183 192/359/183
f 6/4/184 214/16/184 206/33/184
f 83/92/185 210/137/185 46/366/185
f 11/133/46 212/89/46 203/117/46
f 216/102/186 45/367/186 121/362/186
f 45/141/39 213/101/39 83/92/39
f 21/46/37 208/90/37 207/87/37
f 70/43/36 207/87/36 212/89/36
f 206/33/187 16/368/187 6/4/187
f 2/369/188 203/117/188 12/116/188
f 73/6/6 205/25/6 214/16/6
f 109/242/189 58/161/189 122/370/189
f 119/1/190 113/371/190 48/2/190
f 6/4/191 7/35/191 74/5/191
f 117/7/3 112/372/3 44/8/3
f 108/10/192 43/373/192 41/11/192
f 130/13/193 110/109/193 47/14/193
f 214/16/6 205/25/6 2/17/6
f 74/5/6 7/35/6 8/19/6
f 75/18/6 2/17/6 3/21/6
f 1/23/194 11/41/194 203/24/194
f 3/21/195 2/17/195 12/26/195
f 3/21/196 13/27/196 71/28/196
f 5/29/197 4/150/197 14/30/197
f 5/29/198 15/31/198 204/32/198
f 6/4/199 16/368/199 17/34/199
f 7/35/14 17/34/14 18/36/14
f 8/19/15 18/36/15 72/37/15
f 10/38/200 9/149/200 19/39/200
f 1/23/201 10/38/201 20/40/201
f 40/42/202 21/46/202 70/43/202
f 39/45/203 22/374/203 21/46/203
f 93/47/204 40/51/204 69/48/204
f 93/47/205 92/184/205 39/50/205
f 183/52/206 137/266/206 136/53/206
f 182/55/207 181/331/207 133/56/207
f 66/58/24 34/62/24 91/59/24
f 33/61/25 90/180/25 91/59/25
f 32/63/208 34/67/208 66/64/208
f 31/66/209 33/375/209 34/67/209
f 196/68/210 202/332/210 30/69/210
f 197/71/211 185/376/211 126/72/211
f 63/74/212 28/77/212 30/75/212
f 28/77/213 27/81/213 29/78/213
f 79/79/214 28/77/214 63/74/214
f 79/79/215 80/142/215 27/81/215
f 61/82/216 24/86/216 26/83/216
f 23/85/217 25/377/217 26/83/217
f 207/87/36 24/91/36 61/88/36
f 208/90/218 23/378/218 24/91/218
f 83/92/219 46/366/219 48/93/219
f 81/95/39 41/379/39 43/96/39
f 82/97/39 43/96/39 50/98/39
f 209/100/39 41/379/39 81/95/39
f 216/102/220 115/12/220 41/11/220
f 128/104/41 117/7/41 49/9/41
f 185/106/221 32/63/221 65/65/221
f 121/108/222 45/380/222 47/14/222
f 123/110/223 50/135/223 43/111/223
f 125/113/224 42/171/224 44/114/224
f 212/89/225 61/88/225 12/116/225
f 61/118/226 62/381/226 13/27/226
f 88/80/48 63/74/48 14/119/48
f 14/119/227 63/74/227 64/76/227
f 187/122/228 42/171/228 125/113/228
f 65/65/229 66/64/229 17/124/229
f 66/58/52 95/60/52 18/126/52
f 97/128/56 96/49/56 19/129/56
f 19/129/230 96/49/230 69/48/230
f 20/132/231 69/44/231 70/43/231
f 18/126/53 95/60/53 97/128/53
f 13/134/232 62/84/232 88/80/232
f 128/104/41 85/105/41 50/135/41
f 213/101/233 81/95/233 42/136/233
f 82/97/39 85/99/39 49/138/39
f 42/136/234 81/95/234 82/97/234
f 83/92/235 84/94/235 47/140/235
f 26/83/236 25/377/236 80/142/236
f 62/84/237 26/83/237 79/79/237
f 178/143/238 135/320/238 134/144/238
f 179/146/239 180/327/239 131/147/239
f 9/149/15 77/20/15 72/37/15
f 4/150/63 76/22/63 71/28/63
f 75/18/240 76/22/240 4/150/240
f 74/5/6 77/20/6 9/149/6
f 206/33/241 214/16/241 75/18/241
f 130/13/242 84/15/242 48/151/242
f 73/6/6 74/5/6 10/38/6
f 190/153/243 59/178/243 51/154/243
f 189/155/244 51/154/244 54/156/244
f 218/158/245 191/157/245 54/156/245
f 193/160/246 192/349/246 58/161/246
f 194/163/247 193/160/247 53/162/247
f 194/165/248 87/382/248 52/166/248
f 195/167/249 52/166/249 57/168/249
f 217/170/250 210/383/250 42/171/250
f 197/71/251 60/73/251 55/172/251
f 198/173/76 55/172/76 56/174/76
f 200/176/77 199/175/77 56/174/77
f 200/176/77 86/177/77 59/178/77
f 35/179/252 36/186/252 91/59/252
f 37/181/78 92/184/78 93/47/78
f 37/181/253 78/189/253 94/183/253
f 67/185/81 95/60/81 91/59/81
f 68/187/254 38/182/254 93/47/254
f 68/187/81 96/49/81 97/128/81
f 35/179/78 90/180/78 94/183/78
f 67/185/255 89/188/255 97/128/255
f 149/190/256 133/384/256 134/191/256
f 140/193/257 141/300/257 132/194/257
f 151/196/258 135/320/258 142/197/258
f 184/54/259 136/53/259 131/199/259
f 182/55/260 99/57/260 137/201/260
f 179/146/261 98/148/261 135/203/261
f 181/205/262 177/145/262 134/144/262
f 162/207/263 174/198/263 142/197/263
f 140/193/264 104/195/264 138/209/264
f 100/211/265 102/385/265 138/212/265
f 102/214/266 101/386/266 105/215/266
f 100/211/267 104/213/267 132/217/267
f 103/219/268 132/290/268 139/220/268
f 101/222/269 102/385/269 100/211/269
f 163/224/98 159/387/98 106/225/98
f 87/164/270 129/252/270 114/227/270
f 114/227/271 129/252/271 130/13/271
f 86/229/101 127/232/101 124/230/101
f 127/232/102 128/104/102 123/110/102
f 60/233/272 126/356/272 111/234/272
f 111/234/273 126/356/273 125/236/273
f 51/238/274 59/231/274 124/230/274
f 107/239/275 124/230/275 123/110/275
f 119/1/276 46/3/276 188/240/276
f 109/242/277 122/370/277 121/108/277
f 120/243/278 119/258/278 201/244/278
f 57/246/279 120/243/279 202/245/279
f 86/229/101 56/256/101 118/248/101
f 127/232/102 118/248/102 117/7/102
f 211/249/280 54/253/280 116/250/280
f 116/250/281 115/12/281 216/102/281
f 87/164/282 53/162/282 109/242/282
f 129/252/283 109/242/283 110/109/283
f 54/253/284 51/388/284 107/254/284
f 107/254/285 108/10/285 115/12/285
f 55/255/117 111/257/117 118/248/117
f 111/257/118 112/372/118 117/7/118
f 57/246/286 52/228/286 114/227/286
f 120/243/287 114/227/287 113/152/287
f 160/259/288 143/389/288 157/260/288
f 172/262/289 171/297/289 150/263/289
f 153/265/290 147/268/290 136/53/290
f 156/267/291 131/199/291 136/53/291
f 144/269/98 158/312/98 157/270/98
f 170/272/292 176/275/292 160/273/292
f 176/275/293 173/314/293 161/276/293
f 144/269/294 167/299/294 105/277/294
f 175/278/295 153/390/295 137/279/295
f 176/275/296 170/272/296 155/281/296
f 156/267/297 169/285/297 141/283/297
f 166/284/298 132/290/298 141/283/298
f 172/262/299 145/264/299 152/286/299
f 152/288/300 173/314/300 176/275/300
f 158/289/301 139/220/301 132/290/301
f 98/148/302 140/193/302 142/210/302
f 175/291/303 171/391/303 154/292/303
f 168/294/304 143/389/304 160/259/304
f 172/262/305 148/392/305 154/296/305
f 162/298/306 138/393/306 105/277/306
f 98/148/307 131/147/307 141/300/307
f 155/301/308 148/392/308 172/262/308
f 165/302/309 166/284/309 169/285/309
f 100/211/310 103/218/310 106/304/310
f 151/196/311 152/319/311 145/305/311
f 148/307/312 155/316/312 156/267/312
f 149/190/313 146/192/313 145/308/313
f 148/307/314 147/268/314 153/265/314
f 161/276/315 162/298/315 167/299/315
f 158/312/316 166/394/316 165/274/316
f 101/313/98 159/387/98 163/224/98
f 158/312/98 144/269/98 163/224/98
f 162/298/317 161/276/317 173/314/317
f 144/269/318 143/271/318 168/311/318
f 155/316/319 170/303/319 169/285/319
f 133/317/320 149/395/320 175/278/320
f 151/196/321 174/198/321 173/318/321
f 150/309/322 171/391/322 175/291/322
f 151/196/323 146/306/323 134/144/323
f 35/321/324 78/329/324 177/145/324
f 38/322/325 179/146/325 178/204/325
f 67/324/326 36/330/326 182/55/326
f 89/325/327 184/54/327 180/200/327
f 38/322/328 68/396/328 180/327/328
f 37/328/329 178/143/329 177/145/329
f 36/330/330 35/397/330 181/331/330
f 89/325/331 67/398/331 183/52/331
f 202/332/332 201/334/332 64/333/332
f 201/334/333 188/361/333 15/335/333
f 94/336/77 200/176/77 190/153/77
f 94/336/77 90/339/77 199/175/77
f 33/338/334 198/173/334 199/175/334
f 31/340/335 197/71/335 198/173/335
f 204/341/336 217/399/336 187/342/336
f 27/344/337 195/167/337 196/169/337
f 80/346/338 194/165/338 195/167/338
f 80/347/339 25/348/339 193/160/339
f 25/348/340 23/400/340 192/349/340
f 208/350/341 22/352/341 191/157/341
f 39/351/342 189/155/342 191/157/342
f 92/337/343 190/153/343 189/155/343
f 16/353/344 187/401/344 186/354/344
f 126/356/345 185/402/345 186/357/345
f 32/63/346 185/106/346 197/358/346
f 208/350/347 218/158/347 192/359/347
f 188/361/348 217/399/348 204/341/348
f 215/251/349 216/102/349 121/362/349
f 211/249/111 215/251/111 122/363/111
f 46/3/350 210/383/350 217/170/350
f 218/158/351 211/159/351 58/365/351
f 6/4/352 73/6/352 214/16/352
f 83/92/353 213/101/353 210/137/353
f 11/133/354 70/43/354 212/89/354
f 216/102/40 209/103/40 45/367/40
f 45/141/39 209/100/39 213/101/39
f 21/46/355 22/374/355 208/90/355
f 70/43/36 21/46/36 207/87/36
f 206/33/356 204/32/356 16/368/356
f 2/369/8 205/403/8 203/117/8
f 73/6/6 1/23/6 205/25/6
f 109/242/357 53/162/357 58/161/357
