# Blender 4.2.0
# www.blender.org
mtllib spear.mtl
g spear_Mesh
v 0.009768 -0.807835 -0.019392
v 0.017290 -0.807864 -0.015292
v 0.019778 -0.807900 -0.010144
v 0.018078 -0.807933 -0.005495
v 0.011548 -0.807959 -0.001788
v 0.002049 -0.807958 -0.001858
v -0.005473 -0.807929 -0.005957
v -0.007961 -0.807893 -0.011106
v -0.006261 -0.807860 -0.015755
v 0.000268 -0.807834 -0.019461
v -0.010096 0.693231 -0.019574
v -0.019517 0.689728 -0.011720
v -0.023595 0.689120 0.002086
v -0.019395 0.687296 0.017103
v -0.006532 0.687331 0.025129
v 0.008747 0.687072 0.024103
v 0.021449 0.688528 0.010561
v 0.022340 0.690336 -0.001914
v 0.018894 0.692011 -0.011595
v 0.002418 0.691976 -0.021225
v 0.000416 0.934933 -0.010462
v 0.006160 0.934900 -0.005798
v 0.007568 0.934836 0.003408
v 0.007453 0.934788 0.010127
v 0.001955 0.934672 0.026652
v -0.005562 0.934658 0.028583
v -0.010922 0.934727 0.018835
v -0.014734 0.934801 0.008389
v -0.011223 0.934883 -0.003252
v -0.006040 0.934917 -0.008173
v 0.009893 0.822703 -0.008030
v 0.010675 0.822629 0.002542
v 0.011017 0.822585 0.008714
v 0.004905 0.822529 0.016714
v -0.004758 0.822523 0.017595
v -0.012584 0.822579 0.009551
v -0.015473 0.822639 0.001133
v -0.014637 0.822669 -0.003134
v -0.008397 0.822748 -0.014323
v -0.000511 0.822734 -0.012387
v 0.009230 -0.696287 -0.026639
v 0.014481 -0.433309 -0.023603
v 0.002141 0.232156 -0.022888
v 0.016380 0.229043 -0.013736
v 0.018402 -0.436924 -0.019010
v 0.014939 -0.699871 -0.021603
v 0.020692 0.231464 -0.006014
v 0.022455 -0.438319 -0.006342
v 0.022046 -0.708575 -0.007600
v 0.017720 0.223450 0.006323
v 0.020676 -0.429130 0.000666
v 0.021301 -0.698385 0.000524
v 0.007549 0.224751 0.015414
v 0.008631 -0.436027 0.010236
v 0.013228 -0.692968 0.008803
v -0.004208 0.223648 0.016219
v -0.004266 -0.430813 0.010667
v 0.000347 -0.699562 0.010263
v -0.013533 0.224613 0.010246
v -0.009212 -0.431890 0.008116
v -0.012462 -0.706753 0.002393
v -0.018801 0.217147 0.002774
v -0.015729 -0.428303 -0.003548
v -0.013539 -0.707109 -0.004610
v -0.011952 0.231577 -0.014205
v -0.013826 -0.437203 -0.020416
v -0.010703 -0.695572 -0.021695
v -0.007182 0.232097 -0.015858
v -0.004160 -0.437072 -0.024542
v -0.002507 -0.700052 -0.025843
v 0.008836 -0.191427 -0.024169
v 0.017916 -0.194791 -0.017297
v 0.022099 -0.194278 -0.007102
v 0.019724 -0.193691 0.002571
v 0.008615 -0.196488 0.011901
v -0.003712 -0.194432 0.012519
v -0.010847 -0.194489 0.008257
v -0.016739 -0.196428 -0.001311
v -0.012364 -0.193664 -0.018234
v -0.005146 -0.193338 -0.021124
v 0.001924 0.395814 -0.019804
v 0.016929 0.391340 -0.011555
v 0.020500 0.384261 -0.005117
v 0.018770 0.384011 0.007431
v 0.007691 0.379197 0.017627
v -0.005302 0.377833 0.018108
v -0.015983 0.379897 0.011684
v -0.020449 0.380208 0.000206
v -0.015190 0.388065 -0.013093
v -0.008427 0.395402 -0.015623
v 0.021292 0.052222 -0.006469
v 0.017045 0.050755 -0.015427
v 0.005385 0.053992 -0.023440
v 0.018619 0.048508 0.004536
v 0.007979 0.047760 0.013746
v -0.004064 0.048236 0.014458
v -0.012293 0.048690 0.009340
v -0.017873 0.043988 0.000820
v -0.012261 0.052585 -0.016131
v -0.006267 0.053008 -0.018402
v -0.001731 1.121837 0.007535
v -0.003043 1.146496 0.005173
v -0.004025 1.146509 0.003331
v -0.005549 1.121177 0.002038
v -0.006027 1.120692 0.004497
v -0.004102 1.146503 0.004171
v -0.001442 1.120831 0.001484
v -0.001729 1.120441 0.000182
v -0.000722 1.121104 0.003425
v -0.001013 1.121096 0.005827
v -0.003714 1.121703 0.008293
v -0.005018 1.121105 0.007233
v -0.004419 1.120568 0.000534
v -0.000451 1.068714 -0.003759
v -0.000138 1.013419 -0.008205
v 0.001433 1.068299 -0.000243
v 0.002709 1.013382 -0.002955
v 0.002258 1.067716 0.004809
v 0.003752 1.013317 0.006338
v 0.001778 1.066146 0.008321
v 0.003388 1.013271 0.012877
v -0.000312 1.067653 0.013760
v 0.000162 1.013217 0.020551
v -0.003948 1.067764 0.014073
v -0.004511 1.013206 0.022042
v -0.006184 1.068067 0.011735
v -0.007888 1.013240 0.017303
v -0.007343 1.071237 0.004822
v -0.009964 1.013295 0.009496
v -0.006596 1.068333 0.000199
v -0.008173 1.013378 -0.002304
v -0.004805 1.066192 -0.002427
v -0.005454 1.013408 -0.006533
v -0.003296 1.146513 0.002728
v -0.003456 1.146495 0.005332
v -0.003619 1.146513 0.002801
v -0.003767 1.146497 0.005086
v -0.002939 1.146512 0.002922
v -0.002580 1.146507 0.003677
v -0.002699 1.146500 0.004552
v 0.000170 0.828123 -0.012996
v 0.010489 0.828081 -0.007066
v 0.012782 0.827949 0.011753
v 0.015039 0.827875 0.022127
v 0.006882 0.827798 0.033130
v -0.005832 0.827737 0.041841
v -0.016016 0.827855 0.025084
v -0.020059 0.831363 0.003599
v -0.018518 0.828068 -0.005223
v -0.008560 0.829234 -0.014949
v 0.013172 0.742565 -0.008101
v 0.014735 0.746719 0.000874
v 0.014856 0.750162 0.008311
v 0.006232 0.754533 0.017753
v -0.005340 0.754929 0.018609
v -0.014975 0.751682 0.011596
v -0.018044 0.746983 0.001444
v -0.016188 0.743678 -0.005695
v -0.008763 0.739461 -0.014805
v 0.000583 0.739852 -0.013961
v 0.011351 -0.792034 -0.025399
v 0.021952 -0.792075 -0.019621
v 0.026425 -0.792140 -0.010364
v 0.023061 -0.792205 -0.001165
v 0.013146 -0.792244 0.004464
v 0.000466 -0.792244 0.004371
v -0.010135 -0.792203 -0.001407
v -0.014608 -0.792138 -0.010664
v -0.011244 -0.792073 -0.019863
v -0.001329 -0.792034 -0.025491
v 0.018410 0.705126 -0.011392
v 0.002341 0.706221 -0.020862
v 0.002610 0.397725 -0.023603
v 0.021529 0.703919 -0.001269
v 0.021132 0.702518 0.010311
v 0.008601 0.700819 0.024338
v -0.006654 0.700671 0.025504
v -0.019552 0.701634 0.017434
v -0.023306 0.703470 0.001986
v -0.019885 0.705027 -0.011102
v -0.010082 0.706140 -0.020379
v 0.016422 0.738856 -0.010229
v 0.018593 0.744935 0.000534
v 0.018331 0.748301 0.010005
v 0.007776 0.749532 0.021267
v -0.006236 0.752994 0.022361
v -0.017951 0.746734 0.014036
v -0.021908 0.745145 0.001689
v -0.019702 0.738846 -0.007357
v -0.010415 0.735454 -0.018335
v 0.020101 0.397922 -0.013729
v 0.024363 0.392231 -0.005333
v 0.022239 0.386149 0.009168
v 0.009112 0.381356 0.021245
v -0.006226 0.382303 0.021900
v -0.019003 0.382045 0.014123
v -0.024317 0.388184 0.000453
v -0.018600 0.390106 -0.014916
v -0.010130 0.402178 -0.019054
v 0.001630 0.738215 -0.017700
v -0.011534 0.704599 -0.023891
v -0.011663 0.693998 -0.023021
v -0.023076 0.703633 -0.013158
v -0.022783 0.690942 -0.013637
v -0.027096 0.702273 0.001870
v -0.027386 0.690410 0.002116
v -0.022652 0.700610 0.019611
v -0.022422 0.688754 0.019396
v -0.007590 0.699723 0.029171
v -0.007440 0.688747 0.028820
v 0.010283 0.699905 0.027729
v 0.010380 0.688569 0.027535
v 0.024659 0.701490 0.011692
v 0.024901 0.689937 0.012137
v 0.025281 0.702779 -0.001803
v 0.026104 0.691587 -0.002336
v 0.021310 0.703838 -0.013842
v 0.021893 0.693062 -0.013903
v 0.003159 0.704721 -0.024574
v 0.003293 0.692953 -0.024907
v 0.002438 0.661249 -0.021473
v 0.019020 0.661302 -0.011817
v 0.022551 0.659207 -0.002271
v 0.021531 0.656953 0.010416
v 0.008785 0.655148 0.023804
v -0.006500 0.655479 0.024792
v -0.019354 0.655421 0.016792
v -0.023671 0.657695 0.001915
v -0.019421 0.658441 -0.012054
v -0.010100 0.662838 -0.019520
v 0.019259 0.598936 -0.012856
v 0.022951 0.599059 -0.003125
v 0.021688 0.600154 0.010280
v 0.008857 0.601856 0.023499
v -0.006440 0.602583 0.024225
v -0.019277 0.600029 0.016695
v -0.023813 0.598491 0.001832
v -0.019240 0.595036 -0.012058
v -0.010106 0.598752 -0.020342
v 0.002476 0.595858 -0.022059
v 0.003561 0.599753 -0.027587
v 0.003410 0.657564 -0.027076
v 0.023238 0.657601 -0.015618
v 0.028139 0.655717 -0.003199
v 0.026751 0.653681 0.012583
v 0.011189 0.652039 0.028907
v -0.007874 0.652319 0.030261
v -0.023888 0.652297 0.020159
v -0.029329 0.654338 0.001732
v -0.024035 0.655023 -0.015358
v -0.012313 0.658946 -0.024757
v 0.023482 0.602465 -0.016600
v 0.028553 0.602540 -0.003912
v 0.026887 0.603466 0.012540
v 0.011311 0.604925 0.028622
v -0.007869 0.605554 0.029723
v -0.023868 0.603327 0.020028
v -0.029469 0.601996 0.001631
v -0.023979 0.598966 -0.015126
v -0.012467 0.602287 -0.025462
vn 0.0949 -0.6325 0.7687
vn -0.4034 0.7859 -0.4687
vn -0.0095 0.9151 -0.4032
vn -0.2529 -0.8596 0.4439
vn -0.4816 0.5770 -0.6596
vn 0.4869 0.7148 -0.5020
vn -0.8878 -0.4352 0.1497
vn -0.1187 0.6835 -0.7203
vn 0.3784 0.8755 -0.3006
vn -0.3918 -0.8836 -0.2563
vn 0.9699 0.0022 0.2433
vn 0.6239 -0.0054 0.7814
vn 0.7629 0.0061 -0.6465
vn 0.9525 0.0004 -0.3046
vn 0.3304 -0.4358 -0.8372
vn 0.3636 0.8995 0.2424
vn 0.1538 -0.4152 -0.8966
vn 0.6297 -0.3243 -0.7059
vn 0.2094 0.6047 0.7684
vn -0.4356 -0.7700 -0.4661
vn 0.5049 -0.8616 0.0524
vn -0.4946 0.8149 0.3022
vn 0.5676 -0.7857 0.2459
vn -0.8532 0.5213 0.0167
vn -0.8136 0.0428 0.5799
vn 0.8778 0.0558 -0.4757
vn -0.9879 0.0402 -0.1497
vn 0.9972 0.0497 0.0558
vn -0.3341 0.0247 -0.9422
vn 0.2480 0.0771 0.9657
vn -0.9380 0.0522 0.3426
vn 0.9924 0.0524 -0.1110
vn -0.8411 0.0176 -0.5406
vn 0.9478 0.0462 0.3156
vn 0.2067 -0.0887 -0.9744
vn -0.6748 -0.6322 -0.3808
vn -0.8825 -0.4699 0.0213
vn -0.7750 -0.6305 0.0429
vn -0.3168 -0.9301 0.1860
vn 0.0282 -0.9528 0.3024
vn 0.3414 -0.9048 0.2545
vn 0.9573 -0.2838 -0.0550
vn 0.9925 -0.0969 -0.0742
vn 0.3815 -0.1512 -0.9119
vn 0.0073 -0.0037 -1.0000
vn -0.0691 0.0045 -0.9976
vn -0.3976 0.0110 -0.9175
vn -0.4936 -0.0096 -0.8696
vn -0.4509 0.0016 -0.8926
vn -0.3551 0.0107 -0.9348
vn -0.9387 0.0362 -0.3429
vn -0.9857 -0.0071 -0.1684
vn -0.9491 -0.0015 -0.3150
vn -0.9003 -0.0196 0.4349
vn -0.9884 0.0085 0.1515
vn -0.8338 -0.0107 0.5520
vn -0.4781 -0.0520 0.8768
vn -0.5187 -0.0117 0.8549
vn -0.5284 -0.0090 0.8489
vn -0.0073 -0.0635 0.9980
vn 0.1125 0.0004 0.9937
vn 0.0586 -0.0100 0.9982
vn 0.4937 -0.0064 0.8696
vn 0.7164 0.0013 0.6977
vn 0.6547 -0.0044 0.7559
vn 0.9384 0.0378 0.3434
vn 0.9956 -0.0019 0.0938
vn 0.9715 0.0026 0.2369
vn 0.8989 0.0615 -0.4339
vn 0.8919 0.0008 -0.4522
vn 0.9031 0.0074 -0.4294
vn 0.4786 0.0175 -0.8779
vn 0.6610 -0.0013 -0.7504
vn 0.5682 0.0099 -0.8228
vn -0.0000 -1.0000 -0.0070
vn 0.0306 -0.0069 0.9995
vn -0.4578 -0.0037 0.8890
vn -0.8738 -0.0063 0.4863
vn -0.9933 0.0070 -0.1157
vn -0.3927 0.0106 -0.9196
vn 0.0474 0.0142 -0.9988
vn -0.6020 -0.0034 -0.7985
vn -0.3275 -0.0001 -0.9448
vn -0.9227 -0.0154 -0.3853
vn -0.8177 0.0008 0.5757
vn -0.5404 -0.0141 0.8413
vn 0.0694 -0.0117 0.9975
vn 0.6656 -0.0113 0.7463
vn 0.9733 -0.0079 0.2293
vn 0.8725 0.0040 -0.4885
vn 0.5421 0.0095 -0.8402
vn 0.6054 0.0082 -0.7959
vn 0.9250 0.0062 -0.3798
vn 0.9712 0.0025 0.2383
vn 0.6438 -0.0041 0.7652
vn 0.0488 -0.0074 0.9988
vn -0.5128 -0.0076 0.8585
vn -0.8507 -0.0087 0.5256
vn -0.9681 -0.0023 -0.2507
vn -0.3720 0.0081 -0.9282
vn -0.2141 0.0098 -0.9768
vn -0.0000 -1.0000 -0.0071
vn -0.7815 0.0782 -0.6190
vn 0.9015 0.0702 -0.4270
vn 0.3488 0.1076 0.9310
vn -0.9939 0.0644 -0.0897
vn -0.3205 0.0538 -0.9457
vn -0.2992 0.0777 -0.9510
vn -0.7916 0.0369 -0.6100
vn -0.8055 0.0500 -0.5904
vn -0.9823 0.0249 -0.1858
vn -0.9836 0.0301 -0.1779
vn -0.9826 0.0370 0.1817
vn -0.9648 0.0561 0.2570
vn -0.6515 0.0836 0.7540
vn -0.8106 0.0928 0.5782
vn 0.3479 0.1160 0.9303
vn 0.0887 0.1241 0.9883
vn 0.9373 0.0632 0.3427
vn 0.9200 0.0614 0.3872
vn 0.9910 0.0584 0.1203
vn 0.9883 0.0313 0.1492
vn 0.9328 0.0627 -0.3549
vn 0.9870 0.0307 -0.1576
vn 0.8828 0.0573 -0.4663
vn 0.8827 0.0426 -0.4680
vn -0.0000 1.0000 0.0071
vn 0.0006 1.0000 0.0071
vn -0.0004 1.0000 0.0071
vn -0.6541 0.0957 0.7503
vn 0.9901 0.0718 0.1203
vn -0.1254 0.0890 -0.9881
vn -0.9392 0.0743 0.3352
vn 0.8710 0.0926 0.4824
vn 0.4755 0.0768 -0.8764
vn 0.6303 0.0170 -0.7762
vn 0.9877 0.0418 -0.1507
vn 0.9986 0.0501 0.0174
vn 0.9437 0.1023 0.3147
vn 0.2482 0.0700 0.9662
vn -0.8524 0.0665 0.5186
vn -0.9793 0.0580 0.1937
vn -0.9557 0.0625 -0.2877
vn -0.7011 0.0610 -0.7105
vn -0.3336 0.0682 -0.9403
vn 0.0898 0.0054 -0.9959
vn -0.8730 0.0329 -0.4867
vn -0.9809 0.0326 -0.1918
vn -0.9450 0.0412 0.3246
vn -0.7166 0.0166 0.6973
vn 0.0744 0.0167 0.9971
vn 0.7461 0.0358 0.6649
vn 0.9977 0.0543 -0.0414
vn 0.9810 0.0403 -0.1896
vn 0.4179 0.0228 -0.9082
vn 0.4460 -0.3567 -0.8208
vn 0.8391 -0.3596 -0.4080
vn 0.8753 -0.3648 0.3175
vn 0.4601 -0.3682 0.8079
vn -0.0068 -0.3691 0.9294
vn -0.4460 -0.3683 0.8157
vn -0.8391 -0.3654 0.4029
vn -0.8753 -0.3603 -0.3226
vn -0.4601 -0.3568 -0.8130
vn 0.0068 -0.3559 -0.9345
vn 0.2782 -0.9249 -0.2591
vn -0.0727 0.9700 0.2320
vn -0.1018 -0.9553 -0.2777
vn 0.4043 -0.9119 -0.0703
vn 0.0108 0.9668 0.2552
vn 0.3493 -0.9083 0.2300
vn 0.1715 0.9480 0.2681
vn 0.0084 -0.9330 0.3599
vn 0.3046 0.9443 0.1247
vn -0.0259 0.9193 -0.3927
vn 0.4453 0.0979 -0.8900
vn 0.9558 0.0662 -0.2866
vn 0.9967 0.0695 0.0425
vn 0.7314 0.0493 0.6801
vn 0.0755 0.0640 0.9951
vn -0.5970 0.0529 0.8005
vn -0.9689 0.0526 0.2417
vn -0.9660 0.0306 -0.2568
vn -0.7493 0.0769 -0.6577
vn -0.0392 0.0691 -0.9968
vn -0.1530 0.0079 -0.9882
vn -0.6270 0.0064 -0.7790
vn -0.9568 0.0039 -0.2908
vn -0.9605 -0.0039 0.2781
vn -0.5284 -0.0090 0.8490
vn 0.0643 -0.0093 0.9979
vn 0.7246 -0.0056 0.6891
vn 0.9968 0.0022 0.0805
vn 0.9386 0.0103 -0.3449
vn 0.5032 0.0073 -0.8642
vn 0.5087 0.0325 -0.8603
vn 0.9397 0.0849 -0.3313
vn 0.9960 0.0241 0.0856
vn 0.7278 -0.0055 0.6858
vn 0.0718 -0.0165 0.9973
vn -0.5322 -0.0343 0.8459
vn -0.9615 -0.0236 0.2740
vn -0.9599 0.0177 -0.2799
vn -0.6471 0.0138 -0.7623
vn -0.1232 0.0266 -0.9920
vn 0.0608 -0.9681 -0.2431
vn -0.2173 0.9653 0.1449
vn 0.1491 -0.9586 -0.2426
vn 0.2483 0.9159 -0.3154
vn -0.2805 -0.9517 -0.1248
vn -0.3021 0.9527 0.0343
vn -0.3221 -0.9464 -0.0249
vn -0.2871 0.9387 -0.1907
vn 0.3753 0.9259 -0.0424
vn -0.2025 -0.9251 0.3211
vn 0.0484 0.8629 0.5030
vn 0.3069 -0.8741 0.3766
vn 0.3407 0.8327 0.4366
vn -0.0195 -0.8817 0.4715
vn 0.5426 0.8185 0.1890
vn -0.1704 -0.8077 0.5644
vn 0.0082 0.8010 -0.5987
vn 0.6265 0.7770 -0.0613
vn -0.5173 -0.8207 0.2428
vn -0.4687 0.8533 -0.2283
vn -0.3341 0.0071 -0.9425
vn -0.4516 0.0110 -0.8922
vn -0.9373 0.0019 -0.3485
vn -0.9329 -0.0054 0.3602
vn -0.5197 -0.0107 0.8543
vn 0.0421 -0.0102 0.9991
vn 0.6784 -0.0067 0.7347
vn 0.9893 0.0018 0.1456
vn 0.8946 0.0109 -0.4466
vn 0.4915 0.0071 -0.8709
vn 0.4820 0.0090 -0.8761
vn 0.9285 0.0122 -0.3712
vn 0.9949 0.0026 0.1006
vn 0.7184 0.0014 0.6957
vn 0.0571 -0.0059 0.9983
vn -0.5180 -0.0025 0.8554
vn -0.9566 -0.0012 0.2913
vn -0.9504 -0.0022 -0.3110
vn -0.6675 -0.0037 -0.7446
vn -0.1301 0.0084 -0.9915
vn 0.5035 -0.8583 0.0992
vn -0.2713 0.8613 0.4296
vn -0.2566 -0.7657 -0.5898
vn 0.5010 -0.8467 -0.1794
vn -0.4341 0.8724 0.2248
vn -0.1985 -0.8469 -0.4933
vn 0.3418 -0.8451 -0.4110
vn -0.5047 0.8565 -0.1078
vn -0.6322 -0.7746 -0.0155
vn 0.2830 0.8231 -0.4923
vn -0.0304 -0.8530 0.5210
vn -0.5670 0.6046 -0.5594
vn 0.3138 0.6643 -0.6784
vn -0.4886 -0.6210 0.6129
vn -0.4337 0.6896 -0.5799
vn 0.3438 0.8279 -0.4431
vn -0.4806 -0.8615 0.1637
vn -0.0020 0.9159 -0.4015
vn 0.5697 0.7423 -0.3529
vn -0.7752 -0.3599 -0.5192
vn 0.9712 0.0020 0.2384
vn 0.6437 -0.0036 0.7653
vn 0.6063 0.0123 -0.7951
vn 0.9251 0.0045 -0.3797
vn 0.2370 -0.8843 -0.4023
vn 0.7347 0.5270 0.4271
vn 0.1830 -0.4670 -0.8651
vn 0.5917 -0.4953 -0.6360
vn 0.0649 0.8805 0.4696
vn -0.3096 -0.4902 -0.8148
vn 0.8981 -0.4367 -0.0516
vn -0.6484 0.6127 0.4518
vn 0.4612 -0.8737 0.1546
vn -0.4283 0.9034 0.0211
vn -0.8749 0.0518 0.4815
vn 0.6302 0.0268 -0.7760
vn -0.9557 0.0621 -0.2877
vn 0.9987 0.0479 0.0174
vn -0.2999 0.0222 -0.9537
vn 0.3028 0.0807 0.9496
vn -0.9655 0.0423 0.2571
vn 0.9874 0.0489 -0.1506
vn -0.6882 0.0355 -0.7246
vn 0.9212 0.0341 0.3875
vn 0.2359 -0.1384 -0.9619
vn -0.6909 -0.0865 -0.7178
vn -0.7727 -0.6155 -0.1556
vn -0.8162 -0.5072 0.2766
vn -0.2696 -0.9284 0.2557
vn 0.1514 -0.9650 0.2142
vn 0.3445 -0.9051 0.2490
vn 0.9578 -0.1963 -0.2098
vn 0.9766 -0.1786 -0.1202
vn 0.4960 0.0996 -0.8626
vn -0.0631 -0.0143 -0.9979
vn 0.0482 0.0106 -0.9988
vn -0.6020 -0.0085 -0.7984
vn -0.4578 -0.0143 -0.8889
vn -0.3926 -0.0002 -0.9197
vn -0.3287 0.0117 -0.9444
vn -0.9868 0.0025 -0.1621
vn -0.9943 -0.0115 -0.1061
vn -0.9290 0.0056 -0.3700
vn -0.9876 -0.0337 0.1535
vn -0.8741 -0.0087 0.4857
vn -0.8131 -0.0087 0.5820
vn -0.4998 -0.0556 0.8643
vn -0.4569 -0.0092 0.8895
vn -0.5400 -0.0081 0.8416
vn 0.1345 -0.0434 0.9900
vn 0.0314 -0.0050 0.9995
vn 0.0691 -0.0092 0.9976
vn 0.7052 -0.0315 0.7083
vn 0.6197 0.0067 0.7848
vn 0.6660 -0.0054 0.7459
vn 0.9974 0.0175 0.0696
vn 0.9699 0.0021 0.2434
vn 0.9718 0.0027 0.2358
vn 0.9046 0.0597 -0.4220
vn 0.9521 -0.0095 -0.3056
vn 0.8725 0.0042 -0.4886
vn 0.6633 0.0050 -0.7484
vn 0.7575 -0.0076 -0.6527
vn 0.5426 0.0125 -0.8399
vn 0.0487 -0.0079 0.9988
vn -0.5128 -0.0055 0.8585
vn -0.8507 -0.0088 0.5257
vn -0.9681 -0.0018 -0.2506
vn -0.3721 0.0115 -0.9281
vn -0.2119 -0.0072 -0.9773
vn -0.3751 0.0170 -0.9268
vn -0.3492 -0.0013 -0.9371
vn -0.9264 -0.0165 -0.3761
vn -0.9320 -0.0181 0.3621
vn -0.5176 -0.0161 0.8555
vn 0.0385 -0.0143 0.9992
vn 0.6794 -0.0095 0.7337
vn 0.9906 0.0004 0.1366
vn 0.8761 0.0035 -0.4821
vn 0.4856 0.0171 -0.8740
vn 0.5683 0.0104 -0.8228
vn 0.9033 0.0041 -0.4290
vn 0.6546 -0.0031 0.7559
vn 0.0587 -0.0079 0.9982
vn -0.5283 -0.0069 0.8490
vn -0.8346 -0.0074 0.5507
vn -0.9498 0.0031 -0.3129
vn -0.3549 0.0087 -0.9348
vn -0.3966 -0.0028 -0.9180
vn 0.0001 -1.0000 -0.0071
vn -0.7918 0.0785 -0.6057
vn 0.9315 0.0742 -0.3560
vn 0.3573 0.1079 0.9278
vn -0.9817 0.0710 -0.1766
vn -0.1263 0.0723 -0.9894
vn -0.3306 0.0738 -0.9409
vn -0.8109 0.0376 -0.5840
vn -0.8402 0.0523 -0.5398
vn -0.9842 0.0256 -0.1751
vn -0.9881 0.0352 -0.1498
vn -0.9392 0.0273 0.3423
vn -0.9796 0.0598 0.1917
vn -0.7158 0.0747 0.6943
vn -0.7135 0.0927 0.6945
vn 0.0884 0.1057 0.9905
vn 0.3009 0.1348 0.9441
vn 0.9298 0.0659 0.3621
vn 0.9369 0.0513 0.3458
vn 0.9854 0.0573 0.1605
vn 0.9978 0.0352 0.0557
vn 0.9866 0.0510 -0.1552
vn 0.9935 0.0242 -0.1113
vn 0.9707 0.0608 -0.2324
vn 0.8783 0.0439 -0.4760
vn 0.0005 1.0000 0.0071
vn -0.0005 1.0000 0.0071
vn -0.6168 0.0997 0.7807
vn 0.9883 0.0710 0.1346
vn -0.2191 0.0916 -0.9714
vn -0.9364 0.0751 0.3428
vn 0.9308 0.0797 0.3566
vn 0.9679 0.0814 -0.2380
vn 0.4981 0.0305 -0.8666
vn 0.9919 0.0390 -0.1206
vn 0.9762 0.0455 -0.2121
vn 0.8009 0.0729 0.5943
vn 0.5620 0.1004 0.8210
vn -0.8739 0.0698 0.4811
vn -0.9389 0.0325 0.3428
vn -0.9778 0.0704 -0.1972
vn -0.6874 0.0628 -0.7236
vn 0.2210 0.0226 -0.9750
vn 0.2384 0.0216 -0.9709
vn -0.7735 0.0071 -0.6337
vn -0.9643 0.0275 -0.2634
vn -0.9609 0.0338 0.2749
vn -0.5974 0.0432 0.8007
vn 0.0908 0.0142 0.9958
vn 0.7942 0.0248 0.6071
vn 0.9971 0.0532 -0.0549
vn 0.9958 0.0549 -0.0733
vn 0.3863 0.0166 -0.9222
vn 0.4460 -0.3567 -0.8209
vn -0.8753 -0.3602 -0.3226
vn 0.1896 -0.9629 -0.1919
vn -0.1201 0.9532 0.2776
vn -0.1198 -0.9792 -0.1635
vn 0.3014 -0.9465 -0.1157
vn 0.0099 0.9676 0.2525
vn 0.2936 -0.9361 0.1937
vn 0.1191 0.9719 0.2029
vn 0.0191 -0.9197 0.3921
vn 0.2410 0.9650 0.1033
vn -0.0207 0.9254 -0.3785
vn 0.5098 0.0596 -0.8582
vn 0.9674 0.0798 -0.2402
vn 0.9981 0.0611 0.0059
vn 0.7413 0.0547 0.6689
vn 0.0922 0.0590 0.9940
vn -0.5241 0.0825 0.8476
vn -0.9530 0.0341 0.3010
vn -0.9679 0.0328 -0.2491
vn -0.6893 0.0426 -0.7232
vn 0.0298 0.0990 -0.9946
vn -0.1309 -0.0018 -0.9914
vn -0.6401 -0.0013 -0.7683
vn -0.9590 0.0001 -0.2833
vn -0.9630 0.0008 0.2694
vn -0.5293 -0.0095 0.8484
vn 0.0669 -0.0105 0.9977
vn 0.7294 -0.0012 0.6841
vn 0.9974 0.0059 0.0721
vn 0.9424 0.0063 -0.3344
vn 0.5046 0.0083 -0.8633
vn 0.5099 0.0301 -0.8597
vn 0.9497 0.0532 -0.3087
vn 0.9961 0.0707 0.0527
vn 0.7419 0.0413 0.6692
vn 0.0807 -0.0308 0.9963
vn -0.5368 -0.0257 0.8433
vn -0.9690 0.0288 0.2454
vn -0.9657 -0.0125 -0.2594
vn -0.6777 -0.0520 -0.7335
vn -0.0456 -0.0812 -0.9957
vn -0.0571 -0.8846 -0.4629
vn -0.3012 0.9356 0.1844
vn 0.1333 -0.9653 -0.2245
vn 0.1997 0.9447 -0.2601
vn -0.3204 -0.9390 -0.1254
vn -0.3889 0.9211 -0.0206
vn -0.4141 -0.9097 0.0318
vn -0.3227 0.9085 -0.2653
vn 0.2936 0.9556 0.0234
vn -0.1910 -0.9313 0.3102
vn 0.0515 0.8590 0.5094
vn 0.3401 -0.8325 0.4373
vn 0.3106 0.8697 0.3836
vn 0.0013 -0.8581 0.5135
vn 0.4782 0.8647 0.1536
vn -0.1441 -0.8857 0.4413
vn -0.0078 0.8348 -0.5505
vn 0.5191 0.8513 -0.0757
vn -0.4685 -0.8594 0.2048
vn -0.5940 0.7453 -0.3028
vn -0.1366 -0.0065 -0.9906
vn -0.6707 -0.0048 -0.7417
vn -0.9495 0.0043 -0.3137
vn -0.9564 0.0004 0.2919
vn -0.5045 -0.0096 0.8633
vn 0.0469 -0.0105 0.9988
vn 0.7175 -0.0018 0.6966
vn 0.9956 0.0058 0.0934
vn 0.9349 0.0055 -0.3548
vn 0.4800 0.0058 -0.8773
vn 0.5002 0.0176 -0.8657
vn 0.9307 0.0106 -0.3656
vn 0.9961 0.0066 0.0884
vn 0.7239 -0.0023 0.6899
vn 0.0707 -0.0115 0.9974
vn -0.5335 -0.0098 0.8457
vn -0.9590 0.0020 0.2834
vn -0.9552 0.0031 -0.2958
vn -0.6279 0.0114 -0.7782
vn -0.1448 0.0127 -0.9894
vn 0.5361 -0.8358 0.1188
vn -0.2728 0.8603 0.4307
vn -0.1993 -0.8469 -0.4930
vn 0.5166 -0.8322 -0.2015
vn -0.4977 0.8241 0.2704
vn -0.2390 -0.7600 -0.6044
vn 0.4030 -0.7835 -0.4729
vn -0.5284 0.8389 -0.1301
vn -0.5262 -0.8501 -0.0187
vn 0.2825 0.8248 -0.4897
vt 0.449791 0.032123
vt 0.449625 0.031838
vt 0.449835 0.031866
vt 0.441594 0.044777
vt 0.441198 0.044793
vt 0.441305 0.044733
vt 0.442369 0.044312
vt 0.442427 0.044605
vt 0.442274 0.044583
vt 0.450113 0.031661
vt 0.449996 0.031596
vt 0.440887 0.037113
vt 0.440669 0.036904
vt 0.440907 0.036935
vt 0.442194 0.044129
vt 0.442508 0.044278
vt 0.452107 0.046370
vt 0.451514 0.046331
vt 0.452082 0.046212
vt 0.309270 0.083811
vt 0.309615 0.083668
vt 0.309342 0.083874
vt 0.442098 0.044191
vt 0.441858 0.044034
vt 0.452709 0.046217
vt 0.452772 0.046176
vt 0.303476 0.077511
vt 0.303894 0.082182
vt 0.303594 0.082366
vt 0.308484 0.083478
vt 0.309063 0.078848
vt 0.309100 0.083614
vt 0.295837 0.092090
vt 0.295966 0.087375
vt 0.295988 0.092170
vt 0.303041 0.082339
vt 0.428113 0.036601
vt 0.428873 0.036573
vt 0.428727 0.036707
vt 0.441845 0.044111
vt 0.441206 0.044089
vt 0.427649 0.036615
vt 0.427206 0.036719
vt 0.427589 0.036474
vt 0.429023 0.036702
vt 0.428855 0.036859
vt 0.441317 0.044156
vt 0.440850 0.044314
vt 0.428158 0.036556
vt 0.436173 0.026939
vt 0.436794 0.026899
vt 0.436717 0.026941
vt 0.308216 0.083637
vt 0.308038 0.083376
vt 0.308202 0.083403
vt 0.450113 0.032352
vt 0.449609 0.032144
vt 0.440850 0.044595
vt 0.441028 0.044575
vt 0.600928 0.905997
vt 0.600521 0.900435
vt 0.601192 0.900431
vt 0.558496 0.868324
vt 0.558270 0.862748
vt 0.559089 0.862759
vt 0.604319 0.905983
vt 0.602358 0.900426
vt 0.604202 0.900419
vt 0.560961 0.868348
vt 0.560528 0.862774
vt 0.561538 0.862783
vt 0.562864 0.914132
vt 0.563744 0.908592
vt 0.563892 0.914119
vt 0.606505 0.869960
vt 0.607220 0.864390
vt 0.607705 0.869959
vt 0.602470 0.905991
vt 0.559923 0.868339
vt 0.605162 0.905980
vt 0.604897 0.900416
vt 0.562716 0.862789
vt 0.563502 0.868364
vt 0.563931 0.921644
vt 0.562633 0.922012
vt 0.562615 0.921549
vt 0.604529 0.913555
vt 0.606099 0.913931
vt 0.604275 0.913938
vt 0.603605 0.913941
vt 0.603146 0.913323
vt 0.602359 0.913947
vt 0.599912 0.913574
vt 0.560280 0.842646
vt 0.560463 0.843656
vt 0.557337 0.842646
vt 0.557358 0.843718
vt 0.559764 0.844263
vt 0.558047 0.844603
vt 0.560249 0.844917
vt 0.561006 0.875929
vt 0.560520 0.876304
vt 0.559565 0.876294
vt 0.558090 0.875899
vt 0.557929 0.876279
vt 0.565357 0.922063
vt 0.563819 0.922028
vt 0.295106 0.097369
vt 0.295700 0.099195
vt 0.295153 0.099192
vt 0.295036 0.092159
vt 0.295616 0.097295
vt 0.294887 0.078913
vt 0.295456 0.082431
vt 0.294932 0.082458
vt 0.294701 0.099201
vt 0.294734 0.097286
vt 0.294674 0.078925
vt 0.294664 0.082469
vt 0.319095 0.107069
vt 0.319730 0.108762
vt 0.319317 0.108761
vt 0.319152 0.101521
vt 0.319850 0.106842
vt 0.319126 0.088677
vt 0.319906 0.091955
vt 0.319144 0.092123
vt 0.318938 0.108761
vt 0.318678 0.101590
vt 0.318798 0.107060
vt 0.318805 0.092028
vt 0.309458 0.090701
vt 0.309956 0.088998
vt 0.309835 0.090699
vt 0.309510 0.088857
vt 0.309821 0.083530
vt 0.309550 0.070487
vt 0.309850 0.073967
vt 0.309565 0.073977
vt 0.308929 0.090702
vt 0.308952 0.088727
vt 0.309644 0.083509
vt 0.309053 0.073988
vt 0.308520 0.088836
vt 0.308449 0.090703
vt 0.308518 0.070493
vt 0.308502 0.073974
vt 0.303633 0.087743
vt 0.303942 0.089406
vt 0.303545 0.089407
vt 0.303981 0.087539
vt 0.303418 0.072607
vt 0.303911 0.069197
vt 0.303895 0.072678
vt 0.303140 0.089406
vt 0.303017 0.087569
vt 0.303038 0.069089
vt 0.303026 0.072636
vt 0.295842 0.097376
vt 0.296134 0.099208
vt 0.302793 0.087497
vt 0.295896 0.078982
vt 0.295927 0.082512
vt 0.315674 0.072407
vt 0.314945 0.072448
vt 0.314945 0.072259
vt 0.309835 0.078806
vt 0.318760 0.096867
vt 0.319896 0.096855
vt 0.319885 0.101701
vt 0.294661 0.087345
vt 0.294601 0.092167
vt 0.294985 0.087335
vt 0.294836 0.075677
vt 0.295318 0.078901
vt 0.294533 0.075826
vt 0.319295 0.085433
vt 0.319896 0.088393
vt 0.318831 0.088527
vt 0.309581 0.067419
vt 0.309871 0.070466
vt 0.309049 0.070466
vt 0.309032 0.067393
vt 0.303375 0.069041
vt 0.303904 0.066003
vt 0.303361 0.066001
vt 0.295915 0.075769
vt 0.295602 0.087294
vt 0.303031 0.077522
vt 0.303894 0.077497
vt 0.308490 0.078793
vt 0.309586 0.078805
vt 0.319144 0.096907
vt 0.315674 0.072218
vt 0.315507 0.072558
vt 0.315101 0.072577
vt 0.315113 0.072108
vt 0.315519 0.072090
vt 0.603548 0.892777
vt 0.603456 0.890981
vt 0.603798 0.892820
vt 0.560290 0.855126
vt 0.560259 0.853322
vt 0.560376 0.853323
vt 0.321680 0.070463
vt 0.321721 0.069973
vt 0.321771 0.070466
vt 0.603237 0.890982
vt 0.603367 0.890982
vt 0.562917 0.901080
vt 0.563610 0.904716
vt 0.562922 0.904901
vt 0.562901 0.908601
vt 0.603828 0.896523
vt 0.604262 0.896675
vt 0.603104 0.896318
vt 0.603162 0.892812
vt 0.602758 0.892783
vt 0.602062 0.896544
vt 0.601740 0.896566
vt 0.602617 0.892741
vt 0.606454 0.856698
vt 0.606212 0.860532
vt 0.606127 0.856690
vt 0.606767 0.860522
vt 0.606462 0.864391
vt 0.560660 0.855129
vt 0.561778 0.858925
vt 0.560939 0.859029
vt 0.560401 0.858915
vt 0.559619 0.858868
vt 0.559987 0.855143
vt 0.559784 0.855169
vt 0.559071 0.858833
vt 0.320269 0.077080
vt 0.320285 0.077049
vt 0.320287 0.077066
vt 0.320252 0.077084
vt 0.320241 0.077036
vt 0.320256 0.077032
vt 0.320239 0.077082
vt 0.320223 0.077054
vt 0.320273 0.077036
vt 0.603102 0.890983
vt 0.560511 0.853324
vt 0.563049 0.899263
vt 0.563336 0.901089
vt 0.560924 0.855077
vt 0.560606 0.853325
vt 0.560228 0.853321
vt 0.564708 0.914154
vt 0.562615 0.875947
vt 0.606117 0.877539
vt 0.599520 0.906004
vt 0.597507 0.913586
vt 0.606191 0.913472
vt 0.309472 0.088798
vt 0.309867 0.090442
vt 0.309467 0.090447
vt 0.321672 0.086530
vt 0.321269 0.088104
vt 0.321160 0.086532
vt 0.320952 0.088038
vt 0.320972 0.086533
vt 0.320528 0.087945
vt 0.320622 0.086534
vt 0.320271 0.087881
vt 0.320312 0.086536
vt 0.302794 0.080564
vt 0.303256 0.081908
vt 0.302762 0.081917
vt 0.302446 0.080563
vt 0.302293 0.082004
vt 0.308611 0.075966
vt 0.308822 0.077411
vt 0.308497 0.077477
vt 0.308151 0.075962
vt 0.308104 0.077557
vt 0.309805 0.088803
vt 0.310387 0.090401
vt 0.295915 0.099528
vt 0.303555 0.089719
vt 0.303756 0.089718
vt 0.308611 0.091015
vt 0.308927 0.091015
vt 0.309324 0.091014
vt 0.309591 0.091012
vt 0.319361 0.109075
vt 0.319569 0.109076
vt 0.294899 0.099522
vt 0.295196 0.099516
vt 0.295607 0.099518
vt 0.304281 0.071904
vt 0.304456 0.071692
vt 0.304537 0.071757
vt 0.309797 0.076169
vt 0.309642 0.075842
vt 0.309801 0.075866
vt 0.304286 0.072281
vt 0.304546 0.072537
vt 0.304146 0.072299
vt 0.304984 0.071658
vt 0.304983 0.071580
vt 0.310200 0.075622
vt 0.310112 0.075557
vt 0.305831 0.071688
vt 0.305725 0.071753
vt 0.311037 0.075489
vt 0.311009 0.075563
vt 0.306260 0.071984
vt 0.306092 0.072007
vt 0.311548 0.075623
vt 0.311445 0.075681
vt 0.311412 0.076417
vt 0.311868 0.076239
vt 0.311500 0.076478
vt 0.440758 0.046547
vt 0.440169 0.047167
vt 0.440150 0.046538
vt 0.443173 0.036060
vt 0.443554 0.036759
vt 0.443113 0.036732
vt 0.443644 0.035942
vt 0.444056 0.036788
vt 0.448449 0.047058
vt 0.447654 0.047975
vt 0.447875 0.047068
vt 0.448986 0.048045
vt 0.448335 0.048026
vt 0.316621 0.086200
vt 0.316173 0.087108
vt 0.316242 0.086067
vt 0.436255 0.033788
vt 0.436895 0.034629
vt 0.436255 0.034689
vt 0.437194 0.033912
vt 0.436773 0.033801
vt 0.437721 0.033961
vt 0.437469 0.034577
vt 0.306818 0.085648
vt 0.307356 0.086230
vt 0.306818 0.086225
vt 0.304207 0.085800
vt 0.305466 0.086054
vt 0.304138 0.086052
vt 0.438157 0.046539
vt 0.437019 0.046738
vt 0.436806 0.046538
vt 0.442771 0.027468
vt 0.443387 0.028082
vt 0.442764 0.028093
vt 0.442142 0.027501
vt 0.442141 0.028136
vt 0.314181 0.083243
vt 0.312797 0.083039
vt 0.314181 0.083039
vt 0.445625 0.044479
vt 0.446993 0.044181
vt 0.447010 0.044479
vt 0.446934 0.044795
vt 0.434646 0.043282
vt 0.435193 0.042697
vt 0.435197 0.043325
vt 0.434228 0.043241
vt 0.434652 0.042663
vt 0.438278 0.046991
vt 0.436906 0.047300
vt 0.436951 0.046989
vt 0.315980 0.086470
vt 0.316372 0.086814
vt 0.315906 0.086817
vt 0.308345 0.073646
vt 0.307878 0.073423
vt 0.308364 0.073413
vt 0.307878 0.073154
vt 0.308376 0.073123
vt 0.304538 0.088044
vt 0.304092 0.087685
vt 0.304584 0.087683
vt 0.304562 0.087335
vt 0.304086 0.087334
vt 0.304551 0.087098
vt 0.308495 0.070647
vt 0.308005 0.070968
vt 0.307981 0.070636
vt 0.308518 0.070990
vt 0.307981 0.071290
vt 0.316453 0.085934
vt 0.316049 0.086172
vt 0.315906 0.085931
vt 0.316488 0.086476
vt 0.304627 0.072479
vt 0.305085 0.072648
vt 0.310190 0.076462
vt 0.309642 0.076197
vt 0.304146 0.071872
vt 0.311746 0.075842
vt 0.311720 0.076214
vt 0.305647 0.072517
vt 0.305071 0.072576
vt 0.310842 0.076482
vt 0.310279 0.076398
vt 0.306077 0.072306
vt 0.305744 0.072579
vt 0.310836 0.076556
vt 0.311897 0.075819
vt 0.306241 0.072333
vt 0.569270 0.913295
vt 0.567086 0.914085
vt 0.568730 0.912961
vt 0.598155 0.908050
vt 0.598494 0.909495
vt 0.597184 0.908046
vt 0.572129 0.912584
vt 0.572063 0.912988
vt 0.598172 0.906761
vt 0.598954 0.907026
vt 0.574369 0.913060
vt 0.573866 0.913377
vt 0.600555 0.905992
vt 0.600863 0.906411
vt 0.574906 0.915295
vt 0.574175 0.916313
vt 0.573704 0.916000
vt 0.575675 0.913803
vt 0.574897 0.913935
vt 0.603459 0.906120
vt 0.603229 0.906518
vt 0.571927 0.916300
vt 0.571962 0.916694
vt 0.294777 0.075536
vt 0.295339 0.071695
vt 0.295346 0.075619
vt 0.427172 0.032663
vt 0.452729 0.042098
vt 0.451490 0.041994
vt 0.316282 0.071873
vt 0.316731 0.067540
vt 0.316727 0.071877
vt 0.448445 0.028443
vt 0.449094 0.032811
vt 0.448445 0.032831
vt 0.447756 0.032736
vt 0.436164 0.026782
vt 0.436768 0.022642
vt 0.435795 0.026668
vt 0.436187 0.022666
vt 0.428151 0.032633
vt 0.547659 0.844971
vt 0.550590 0.848940
vt 0.547684 0.849049
vt 0.596805 0.880347
vt 0.598743 0.876562
vt 0.598780 0.880332
vt 0.601185 0.876684
vt 0.601316 0.880243
vt 0.570196 0.910948
vt 0.577731 0.909580
vt 0.577962 0.910948
vt 0.570445 0.909576
vt 0.577624 0.908249
vt 0.570386 0.907344
vt 0.577959 0.907338
vt 0.572462 0.876642
vt 0.575247 0.880202
vt 0.572513 0.880113
vt 0.577917 0.876438
vt 0.577917 0.880412
vt 0.543262 0.845207
vt 0.545186 0.848874
vt 0.543262 0.849166
vt 0.599250 0.909247
vt 0.600676 0.910042
vt 0.568042 0.915272
vt 0.567967 0.914200
vt 0.545474 0.849157
vt 0.547436 0.849359
vt 0.602604 0.909705
vt 0.601047 0.909690
vt 0.569266 0.916415
vt 0.567199 0.915426
vt 0.605535 0.909058
vt 0.602718 0.910044
vt 0.569726 0.916067
vt 0.605535 0.906945
vt 0.604986 0.907212
vt 0.575675 0.915425
vt 0.441552 0.044850
vt 0.440718 0.037113
vt 0.451633 0.046375
vt 0.309461 0.083646
vt 0.427346 0.036763
vt 0.441015 0.044340
vt 0.308038 0.083657
vt 0.450002 0.032416
vt 0.557760 0.868309
vt 0.562122 0.843481
vt 0.565432 0.921689
vt 0.302837 0.082267
vt 0.295300 0.075663
vt 0.319896 0.085279
vt 0.318820 0.085437
vt 0.309953 0.067376
vt 0.308449 0.067298
vt 0.303076 0.065860
vt 0.315294 0.072609
vt 0.315325 0.072057
vt 0.321702 0.069973
vt 0.320223 0.077070
vt 0.603069 0.890983
vt 0.562998 0.899264
vt 0.564295 0.875952
vt 0.608371 0.877539
vt 0.321698 0.088187
vt 0.303208 0.080563
vt 0.308879 0.075969
vt 0.310236 0.088812
vt 0.303330 0.089718
vt 0.319150 0.109075
vt 0.440823 0.047214
vt 0.444056 0.035876
vt 0.449055 0.047004
vt 0.316621 0.087099
vt 0.437910 0.034539
vt 0.307338 0.085601
vt 0.305521 0.085803
vt 0.438333 0.046741
vt 0.443387 0.027459
vt 0.312798 0.083243
vt 0.445611 0.044181
vt 0.445563 0.044795
vt 0.434228 0.042630
vt 0.438233 0.047300
vt 0.307879 0.073665
vt 0.304037 0.088046
vt 0.304037 0.087096
vt 0.308532 0.071297
vt 0.316510 0.086184
vt 0.294788 0.071639
vt 0.427601 0.032576
vt 0.452110 0.042027
vt 0.316281 0.067490
vt 0.449093 0.028428
vt 0.447756 0.028478
vt 0.435762 0.022669
vt 0.428839 0.032591
vt 0.550543 0.845054
vt 0.596805 0.876438
vt 0.570392 0.908248
vt 0.575202 0.876492
vt 0.545205 0.844878
vt 0.543946 0.849466
vt 0.605002 0.908881
s 0
g spear_Material
usemtl Material
f 85/1/1 195/2/1 86/3/1
f 158/4/2 188/5/2 157/6/2
f 151/7/3 200/8/3 160/9/3
f 87/10/4 195/2/4 196/11/4
f 159/12/5 189/13/5 158/14/5
f 151/7/6 183/15/6 182/16/6
f 88/17/7 196/18/7 197/19/7
f 159/20/8 200/21/8 190/22/8
f 152/23/9 184/24/9 183/15/9
f 89/25/10 197/19/10 198/26/10
f 73/27/11 51/28/11 48/29/11
f 51/30/12 75/31/12 54/32/12
f 42/33/13 72/34/13 45/35/13
f 45/36/14 73/27/14 48/29/14
f 81/37/15 191/38/15 82/39/15
f 153/40/16 185/41/16 184/24/16
f 90/42/17 198/43/17 199/44/17
f 82/39/18 192/45/18 83/46/18
f 154/47/19 186/48/19 185/41/19
f 81/37/20 199/44/20 173/49/20
f 83/50/21 193/51/21 84/52/21
f 156/53/22 186/54/22 155/55/22
f 84/56/23 194/57/23 85/1/23
f 157/6/24 187/58/24 156/59/24
f 27/60/25 125/61/25 127/62/25
f 22/63/26 115/64/26 117/65/26
f 29/66/27 129/67/27 131/68/27
f 24/69/28 119/70/28 121/71/28
f 30/72/29 115/73/29 21/74/29
f 25/75/30 125/76/30 26/77/30
f 27/60/31 129/67/31 28/78/31
f 23/79/32 117/65/32 119/70/32
f 30/80/33 131/68/33 133/81/33
f 24/69/34 123/82/34 25/83/34
f 141/84/35 39/85/35 150/86/35
f 149/87/36 39/88/36 38/89/36
f 149/87/37 37/90/37 148/91/37
f 148/91/38 36/92/38 147/93/38
f 147/94/39 35/95/39 146/96/39
f 145/97/40 35/95/40 34/98/40
f 144/99/41 34/98/41 33/100/41
f 143/101/42 33/102/42 32/103/42
f 142/104/43 32/103/43 31/105/43
f 141/84/44 31/106/44 40/107/44
f 70/108/45 161/109/45 170/110/45
f 69/111/46 41/112/46 70/108/46
f 68/113/47 93/114/47 100/115/47
f 169/116/48 70/108/48 170/110/48
f 67/117/49 69/111/49 70/108/49
f 65/118/50 100/115/50 99/119/50
f 64/120/51 169/121/51 168/122/51
f 63/123/52 67/124/52 64/120/52
f 62/125/53 99/126/53 98/127/53
f 167/128/54 64/120/54 168/122/54
f 60/129/55 64/120/55 61/130/55
f 97/131/56 62/125/56 98/127/56
f 166/132/57 61/133/57 167/134/57
f 58/135/58 60/136/58 61/133/58
f 56/137/59 97/138/59 96/139/59
f 165/140/60 58/135/60 166/132/60
f 55/141/61 57/142/61 58/135/61
f 95/143/62 56/137/62 96/139/62
f 52/144/63 165/140/63 164/145/63
f 51/30/64 55/141/64 52/144/64
f 50/146/65 95/143/65 94/147/65
f 49/148/66 164/149/66 163/150/66
f 48/29/67 52/151/67 49/148/67
f 91/152/68 50/153/68 94/154/68
f 162/155/69 49/148/69 163/150/69
f 46/156/70 48/29/70 49/148/70
f 44/157/71 91/152/71 92/158/71
f 161/109/72 46/159/72 162/160/72
f 41/161/73 45/36/73 46/156/73
f 93/114/74 44/162/74 92/163/74
f 6/164/75 10/165/75 1/166/75
f 75/31/76 57/142/76 54/32/76
f 57/142/77 77/167/77 60/136/77
f 77/168/78 63/123/78 60/129/78
f 63/123/79 79/169/79 66/170/79
f 79/171/80 69/111/80 66/172/80
f 80/173/81 42/33/81 69/111/81
f 90/174/82 43/175/82 68/113/82
f 89/176/83 68/113/83 65/118/83
f 88/177/84 65/178/84 62/125/84
f 59/179/85 88/177/85 62/125/85
f 86/180/86 59/181/86 56/137/86
f 53/182/87 86/180/87 56/137/87
f 50/146/88 85/183/88 53/182/88
f 47/184/89 84/185/89 50/153/89
f 44/157/90 83/186/90 47/184/90
f 43/175/91 82/187/91 44/162/91
f 71/188/92 92/163/92 72/34/92
f 92/158/93 73/27/93 72/189/93
f 73/27/94 94/154/94 74/190/94
f 74/191/95 95/143/95 75/31/95
f 95/143/96 76/192/96 75/31/96
f 96/139/97 77/167/97 76/192/97
f 77/168/98 98/127/98 78/193/98
f 98/127/99 79/169/99 78/193/99
f 99/119/100 80/173/100 79/171/100
f 100/115/101 71/188/101 80/173/101
f 1/166/75 5/194/75 6/164/75
f 7/195/102 9/196/102 10/165/102
f 2/197/75 4/198/75 5/194/75
f 104/199/103 136/200/103 113/201/103
f 109/202/104 138/203/104 139/204/104
f 101/205/105 135/206/105 111/207/105
f 104/199/106 106/208/106 103/209/106
f 113/210/107 114/211/107 132/212/107
f 132/212/108 115/73/108 133/213/108
f 113/201/109 130/214/109 104/199/109
f 132/215/110 131/68/110 130/214/110
f 104/199/111 128/216/111 105/217/111
f 130/214/112 129/67/112 128/216/112
f 112/218/113 128/216/113 126/219/113
f 126/219/114 129/67/114 127/62/114
f 112/218/115 124/220/115 111/221/115
f 124/220/116 127/62/116 125/61/116
f 111/222/117 122/223/117 101/224/117
f 124/225/118 123/226/118 122/223/118
f 110/227/119 122/228/119 120/229/119
f 120/229/120 123/82/120 121/71/120
f 110/227/121 118/230/121 109/202/121
f 120/229/122 119/70/122 118/230/122
f 109/202/123 116/231/123 107/232/123
f 118/230/124 117/65/124 116/231/124
f 108/233/125 116/231/125 114/234/125
f 116/231/126 115/64/126 114/234/126
f 138/235/127 140/236/127 139/237/127
f 134/238/128 137/239/128 135/240/128
f 136/241/127 106/242/127 137/239/127
f 138/235/129 135/240/129 102/243/129
f 111/221/130 137/244/130 112/218/130
f 109/202/131 140/245/131 110/227/131
f 113/210/132 134/246/132 108/247/132
f 112/218/133 106/208/133 105/217/133
f 101/248/134 140/245/134 102/249/134
f 107/232/135 134/250/135 138/203/135
f 22/251/136 141/84/136 21/74/136
f 23/79/137 142/104/137 22/63/137
f 24/69/138 143/101/138 23/79/138
f 25/83/139 144/252/139 24/69/139
f 26/77/140 145/253/140 25/75/140
f 26/254/141 147/93/141 146/255/141
f 27/60/142 148/91/142 147/93/142
f 29/66/143 148/91/143 28/78/143
f 29/66/144 150/256/144 149/87/144
f 21/74/145 150/86/145 30/72/145
f 39/257/146 160/258/146 159/259/146
f 39/260/147 158/261/147 38/262/147
f 38/262/148 157/263/148 37/264/148
f 37/264/149 156/265/149 36/266/149
f 36/266/150 155/267/150 35/268/150
f 34/269/151 155/270/151 154/271/151
f 33/272/152 154/271/152 153/273/152
f 32/274/153 153/275/153 152/276/153
f 31/277/154 152/276/154 151/278/154
f 40/279/155 151/280/155 160/258/155
f 2/281/156 161/109/156 162/160/156
f 3/282/157 162/155/157 163/150/157
f 3/282/158 164/149/158 4/283/158
f 4/284/159 165/140/159 5/285/159
f 5/285/160 166/132/160 6/286/160
f 7/287/161 166/132/161 167/134/161
f 8/288/162 167/128/162 168/122/162
f 8/288/163 169/121/163 9/289/163
f 9/290/164 170/110/164 10/291/164
f 10/291/165 161/109/165 1/292/165
f 19/293/166 216/294/166 18/295/166
f 178/296/167 209/297/167 177/298/167
f 20/299/168 202/300/168 220/301/168
f 17/302/169 216/294/169 214/303/169
f 176/304/170 209/297/170 211/305/170
f 17/302/171 212/306/171 16/307/171
f 176/304/172 213/308/172 175/309/172
f 16/307/173 210/310/173 15/311/173
f 175/309/174 215/312/174 174/313/174
f 181/314/175 219/315/175 201/316/175
f 182/317/176 172/318/176 200/319/176
f 182/320/177 174/321/177 171/322/177
f 183/323/178 175/324/178 174/321/178
f 185/325/179 175/326/179 184/327/179
f 185/325/180 177/328/180 176/329/180
f 187/330/181 177/331/181 186/332/181
f 187/333/182 179/334/182 178/335/182
f 189/336/183 179/334/183 188/337/183
f 190/338/184 180/339/184 189/336/184
f 190/340/185 172/341/185 181/342/185
f 230/343/186 20/344/186 221/345/186
f 12/346/187 230/347/187 229/348/187
f 13/349/188 229/350/188 228/351/188
f 14/352/189 228/351/189 227/353/189
f 226/354/190 14/355/190 227/356/190
f 16/357/191 226/358/191 225/359/191
f 224/360/192 16/357/192 225/359/192
f 223/361/193 17/362/193 224/363/193
f 222/364/194 18/365/194 223/361/194
f 20/366/195 222/367/195 221/368/195
f 220/369/196 217/370/196 218/371/196
f 218/372/197 215/373/197 216/374/197
f 216/374/198 213/375/198 214/376/198
f 214/377/199 211/378/199 212/379/199
f 211/378/200 210/380/200 212/379/200
f 209/381/201 208/382/201 210/380/201
f 207/383/202 206/384/202 208/385/202
f 205/386/203 204/387/203 206/384/203
f 203/388/204 202/389/204 204/390/204
f 202/389/205 219/391/205 220/369/205
f 11/392/206 204/393/206 202/300/206
f 178/296/207 205/394/207 207/395/207
f 19/293/208 220/301/208 218/396/208
f 171/397/209 219/315/209 172/398/209
f 13/399/210 204/393/210 12/400/210
f 180/401/211 205/394/211 179/402/211
f 14/403/212 206/404/212 13/399/212
f 181/314/213 203/405/213 180/401/213
f 171/397/214 215/312/214 217/406/214
f 14/403/215 210/310/215 208/407/215
f 225/408/216 247/409/216 246/410/216
f 234/411/217 254/412/217 255/413/217
f 225/408/218 245/414/218 224/415/218
f 234/411/219 256/416/219 235/417/219
f 224/415/220 244/418/220 223/419/220
f 235/417/221 257/420/221 236/421/221
f 221/422/222 251/423/222 230/424/222
f 223/419/223 243/425/223 222/426/223
f 236/421/224 258/427/224 237/428/224
f 229/429/225 251/423/225 250/430/225
f 199/431/226 240/432/226 173/433/226
f 238/434/227 199/44/227 198/43/227
f 197/19/228 238/435/228 198/26/228
f 236/436/229 197/19/229 196/18/229
f 195/437/230 236/438/230 196/439/230
f 234/440/231 195/441/231 194/442/231
f 193/443/232 234/440/232 194/442/232
f 192/444/233 233/445/233 193/51/233
f 191/446/234 232/447/234 192/444/234
f 240/448/235 191/38/235 173/49/235
f 242/449/236 252/450/236 241/451/236
f 252/452/237 244/453/237 253/454/237
f 253/454/238 245/455/238 254/456/238
f 245/457/239 255/458/239 254/459/239
f 246/460/240 256/461/240 255/458/240
f 256/461/241 248/462/241 257/463/241
f 248/464/242 258/465/242 257/466/242
f 258/465/243 250/467/243 259/468/243
f 250/469/244 260/470/244 259/471/244
f 260/470/245 242/449/245 241/451/245
f 233/472/246 253/473/246 254/412/246
f 227/474/247 247/409/247 226/475/247
f 239/476/248 241/451/248 240/477/248
f 231/478/249 253/473/249 232/479/249
f 227/474/250 249/480/250 248/481/250
f 239/476/251 259/471/251 260/470/251
f 231/478/252 241/482/252 252/483/252
f 229/429/253 249/480/253 228/484/253
f 237/428/254 259/485/254 238/486/254
f 221/422/255 243/425/255 242/487/255
f 85/1/256 194/57/256 195/2/256
f 158/4/257 189/488/257 188/5/257
f 151/7/258 182/16/258 200/8/258
f 87/10/259 86/3/259 195/2/259
f 159/12/260 190/489/260 189/13/260
f 151/7/261 152/23/261 183/15/261
f 88/17/262 87/490/262 196/18/262
f 159/20/263 160/491/263 200/21/263
f 152/23/264 153/40/264 184/24/264
f 89/25/265 88/17/265 197/19/265
f 73/27/266 74/190/266 51/28/266
f 51/30/267 74/191/267 75/31/267
f 42/33/268 71/188/268 72/34/268
f 45/36/269 72/189/269 73/27/269
f 81/37/270 173/49/270 191/38/270
f 153/40/271 154/47/271 185/41/271
f 90/42/272 89/492/272 198/43/272
f 82/39/273 191/38/273 192/45/273
f 154/47/274 155/493/274 186/48/274
f 81/37/275 90/42/275 199/44/275
f 83/50/276 192/444/276 193/51/276
f 156/53/277 187/494/277 186/54/277
f 84/56/278 193/495/278 194/57/278
f 157/6/279 188/5/279 187/58/279
f 27/60/280 26/254/280 125/61/280
f 22/63/281 21/496/281 115/64/281
f 29/66/282 28/78/282 129/67/282
f 24/69/283 23/79/283 119/70/283
f 30/72/284 133/213/284 115/73/284
f 25/75/285 123/226/285 125/76/285
f 27/60/286 127/62/286 129/67/286
f 23/79/287 22/63/287 117/65/287
f 30/80/288 29/66/288 131/68/288
f 24/69/289 121/71/289 123/82/289
f 141/84/290 40/107/290 39/85/290
f 149/87/291 150/256/291 39/88/291
f 149/87/292 38/89/292 37/90/292
f 148/91/293 37/90/293 36/92/293
f 147/94/294 36/497/294 35/95/294
f 145/97/295 146/96/295 35/95/295
f 144/99/296 145/97/296 34/98/296
f 143/101/297 144/252/297 33/102/297
f 142/104/298 143/101/298 32/103/298
f 141/84/299 142/498/299 31/106/299
f 70/108/300 41/112/300 161/109/300
f 69/111/301 42/33/301 41/112/301
f 68/113/302 43/175/302 93/114/302
f 169/116/303 67/117/303 70/108/303
f 67/117/304 66/172/304 69/111/304
f 65/118/305 68/113/305 100/115/305
f 64/120/306 67/124/306 169/121/306
f 63/123/307 66/170/307 67/124/307
f 62/125/308 65/178/308 99/126/308
f 167/128/309 61/130/309 64/120/309
f 60/129/310 63/123/310 64/120/310
f 97/131/311 59/179/311 62/125/311
f 166/132/312 58/135/312 61/133/312
f 58/135/313 57/142/313 60/136/313
f 56/137/314 59/181/314 97/138/314
f 165/140/315 55/141/315 58/135/315
f 55/141/316 54/32/316 57/142/316
f 95/143/317 53/182/317 56/137/317
f 52/144/318 55/141/318 165/140/318
f 51/30/319 54/32/319 55/141/319
f 50/146/320 53/182/320 95/143/320
f 49/148/321 52/151/321 164/149/321
f 48/29/322 51/28/322 52/151/322
f 91/152/323 47/184/323 50/153/323
f 162/155/324 46/156/324 49/148/324
f 46/156/325 45/36/325 48/29/325
f 44/157/326 47/184/326 91/152/326
f 161/109/327 41/112/327 46/159/327
f 41/161/328 42/499/328 45/36/328
f 93/114/329 43/175/329 44/162/329
f 6/164/75 7/195/75 10/165/75
f 75/31/330 76/192/330 57/142/330
f 57/142/331 76/192/331 77/167/331
f 77/168/332 78/193/332 63/123/332
f 63/123/333 78/193/333 79/169/333
f 79/171/334 80/173/334 69/111/334
f 80/173/335 71/188/335 42/33/335
f 90/174/336 81/500/336 43/175/336
f 89/176/337 90/174/337 68/113/337
f 88/177/338 89/501/338 65/178/338
f 59/179/339 87/502/339 88/177/339
f 86/180/340 87/503/340 59/181/340
f 53/182/341 85/183/341 86/180/341
f 50/146/342 84/504/342 85/183/342
f 47/184/343 83/186/343 84/185/343
f 44/157/344 82/505/344 83/186/344
f 43/175/345 81/500/345 82/187/345
f 71/188/346 93/114/346 92/163/346
f 92/158/347 91/152/347 73/27/347
f 73/27/68 91/152/68 94/154/68
f 74/191/348 94/147/348 95/143/348
f 95/143/349 96/139/349 76/192/349
f 96/139/350 97/138/350 77/167/350
f 77/168/351 97/131/351 98/127/351
f 98/127/352 99/126/352 79/169/352
f 99/119/353 100/115/353 80/173/353
f 100/115/354 93/114/354 71/188/354
f 1/166/75 2/197/75 5/194/75
f 7/195/355 8/506/355 9/196/355
f 2/197/75 3/507/75 4/198/75
f 104/199/356 103/209/356 136/200/356
f 109/202/357 107/232/357 138/203/357
f 101/205/358 102/508/358 135/206/358
f 104/199/359 105/217/359 106/208/359
f 113/210/360 108/247/360 114/211/360
f 132/212/361 114/211/361 115/73/361
f 113/201/362 132/215/362 130/214/362
f 132/215/363 133/81/363 131/68/363
f 104/199/364 130/214/364 128/216/364
f 130/214/365 131/68/365 129/67/365
f 112/218/366 105/217/366 128/216/366
f 126/219/367 128/216/367 129/67/367
f 112/218/368 126/219/368 124/220/368
f 124/220/369 126/219/369 127/62/369
f 111/222/370 124/225/370 122/223/370
f 124/225/371 125/76/371 123/226/371
f 110/227/372 101/248/372 122/228/372
f 120/229/373 122/228/373 123/82/373
f 110/227/374 120/229/374 118/230/374
f 120/229/375 121/71/375 119/70/375
f 109/202/376 118/230/376 116/231/376
f 118/230/377 119/70/377 117/65/377
f 108/233/378 107/232/378 116/231/378
f 116/231/379 117/65/379 115/64/379
f 138/235/380 102/243/380 140/236/380
f 134/238/127 136/241/127 137/239/127
f 136/241/129 103/509/129 106/242/129
f 138/235/381 134/238/381 135/240/381
f 111/221/382 135/510/382 137/244/382
f 109/202/383 139/204/383 140/245/383
f 113/210/384 136/511/384 134/246/384
f 112/218/385 137/244/385 106/208/385
f 101/248/386 110/227/386 140/245/386
f 107/232/387 108/233/387 134/250/387
f 22/251/388 142/498/388 141/84/388
f 23/79/389 143/101/389 142/104/389
f 24/69/390 144/252/390 143/101/390
f 25/83/391 145/512/391 144/252/391
f 26/77/392 146/513/392 145/253/392
f 26/254/393 27/60/393 147/93/393
f 27/60/394 28/78/394 148/91/394
f 29/66/395 149/87/395 148/91/395
f 29/66/396 30/80/396 150/256/396
f 21/74/397 141/84/397 150/86/397
f 39/257/398 40/279/398 160/258/398
f 39/260/399 159/514/399 158/261/399
f 38/262/400 158/261/400 157/263/400
f 37/264/401 157/263/401 156/265/401
f 36/266/402 156/265/402 155/267/402
f 34/269/403 35/515/403 155/270/403
f 33/272/404 34/269/404 154/271/404
f 32/274/405 33/516/405 153/275/405
f 31/277/406 32/274/406 152/276/406
f 40/279/407 31/517/407 151/280/407
f 2/281/408 1/292/408 161/109/408
f 3/282/157 2/518/157 162/155/157
f 3/282/158 163/150/158 164/149/158
f 4/284/159 164/145/159 165/140/159
f 5/285/160 165/140/160 166/132/160
f 7/287/161 6/286/161 166/132/161
f 8/288/162 7/519/162 167/128/162
f 8/288/409 168/122/409 169/121/409
f 9/290/164 169/116/164 170/110/164
f 10/291/165 170/110/165 161/109/165
f 19/293/410 218/396/410 216/294/410
f 178/296/411 207/395/411 209/297/411
f 20/299/412 11/392/412 202/300/412
f 17/302/413 18/295/413 216/294/413
f 176/304/414 177/298/414 209/297/414
f 17/302/415 214/303/415 212/306/415
f 176/304/416 211/305/416 213/308/416
f 16/307/417 212/306/417 210/310/417
f 175/309/418 213/308/418 215/312/418
f 181/314/419 172/398/419 219/315/419
f 182/317/420 171/520/420 172/318/420
f 182/320/421 183/323/421 174/321/421
f 183/323/422 184/521/422 175/324/422
f 185/325/423 176/329/423 175/326/423
f 185/325/424 186/522/424 177/328/424
f 187/330/425 178/523/425 177/331/425
f 187/333/426 188/337/426 179/334/426
f 189/336/427 180/339/427 179/334/427
f 190/338/428 181/524/428 180/339/428
f 190/340/429 200/525/429 172/341/429
f 230/343/430 11/526/430 20/344/430
f 12/346/431 11/527/431 230/347/431
f 13/349/432 12/528/432 229/350/432
f 14/352/433 13/349/433 228/351/433
f 226/354/434 15/529/434 14/355/434
f 16/357/435 15/530/435 226/358/435
f 224/360/436 17/531/436 16/357/436
f 223/361/437 18/365/437 17/362/437
f 222/364/438 19/532/438 18/365/438
f 20/366/439 19/533/439 222/367/439
f 220/369/440 219/391/440 217/370/440
f 218/372/441 217/534/441 215/373/441
f 216/374/442 215/373/442 213/375/442
f 214/377/443 213/535/443 211/378/443
f 211/378/444 209/381/444 210/380/444
f 209/381/445 207/536/445 208/382/445
f 207/383/446 205/386/446 206/384/446
f 205/386/447 203/537/447 204/387/447
f 203/388/448 201/538/448 202/389/448
f 202/389/449 201/538/449 219/391/449
f 11/392/450 12/400/450 204/393/450
f 178/296/451 179/402/451 205/394/451
f 19/293/452 20/299/452 220/301/452
f 171/397/453 217/406/453 219/315/453
f 13/399/454 206/404/454 204/393/454
f 180/401/455 203/405/455 205/394/455
f 14/403/456 208/407/456 206/404/456
f 181/314/457 201/316/457 203/405/457
f 171/397/458 174/313/458 215/312/458
f 14/403/459 15/311/459 210/310/459
f 225/408/460 226/475/460 247/409/460
f 234/411/461 233/472/461 254/412/461
f 225/408/462 246/410/462 245/414/462
f 234/411/463 255/413/463 256/416/463
f 224/415/464 245/414/464 244/418/464
f 235/417/465 256/416/465 257/420/465
f 221/422/466 242/487/466 251/423/466
f 223/419/467 244/418/467 243/425/467
f 236/421/468 257/420/468 258/427/468
f 229/429/469 230/424/469 251/423/469
f 199/431/470 239/539/470 240/432/470
f 238/434/471 239/540/471 199/44/471
f 197/19/472 237/541/472 238/435/472
f 236/436/473 237/541/473 197/19/473
f 195/437/474 235/542/474 236/438/474
f 234/440/475 235/543/475 195/441/475
f 193/443/476 233/544/476 234/440/476
f 192/444/477 232/447/477 233/445/477
f 191/446/478 231/545/478 232/447/478
f 240/448/479 231/546/479 191/38/479
f 242/449/480 243/547/480 252/450/480
f 252/452/481 243/548/481 244/453/481
f 253/454/482 244/453/482 245/455/482
f 245/457/483 246/460/483 255/458/483
f 246/460/484 247/549/484 256/461/484
f 256/461/485 247/549/485 248/462/485
f 248/464/486 249/550/486 258/465/486
f 258/465/487 249/550/487 250/467/487
f 250/469/488 251/551/488 260/470/488
f 260/470/489 251/551/489 242/449/489
f 233/472/490 232/479/490 253/473/490
f 227/474/491 248/481/491 247/409/491
f 239/476/492 260/470/492 241/451/492
f 231/478/493 252/483/493 253/473/493
f 227/474/494 228/484/494 249/480/494
f 239/476/495 238/552/495 259/471/495
f 231/478/496 240/553/496 241/482/496
f 229/429/497 250/430/497 249/480/497
f 237/428/498 258/427/498 259/485/498
f 221/422/499 222/426/499 243/425/499
